<?xml version="1.0" encoding="utf-8"?>
<!-- Generator: Adobe Illustrator 25.2.0, SVG Export Plug-In . SVG Version: 6.00 Build 0)  -->
<svg version="1.1" id="Layer_1" xmlns="http://www.w3.org/2000/svg" xmlns:xlink="http://www.w3.org/1999/xlink" x="0px" y="0px"
	 width="300px" height="300px" viewBox="0 0 300 300" style="enable-background:new 0 0 300 300;" xml:space="preserve">
<style type="text/css">
	.st0{fill:#E995BB;}
</style>
<g>
	<path class="st0" d="M149,131.8c0-49.2-76.9-49.2-76.9,6.1c0,55.3,76.9,105.1,76.9,105.1v0v0l0,0v0c0,0,76.9-49.8,76.9-105.1
		C226,82.5,149,82.5,149,131.8z"/>
</g>
<g>
	<path d="M238.4,170l-31.9,117.3c5.6-0.3,10.5-4.2,12.1-9.8l25.3-92.9C245.4,179,243,173.1,238.4,170z"/>
	<path d="M225.1,165.7c-7.1-1.9-14.5,2.3-16.4,9.4L183.5,268c-1.9,7.1,2.3,14.5,9.4,16.4l7.6,2.1l32.3-118.7L225.1,165.7z"/>
	<path d="M53.4,183.5l25.3,92.9c1.5,5.6,6.5,9.5,12.1,9.8L58.8,168.9C54.2,172,51.9,177.8,53.4,183.5z"/>
	<path d="M88.5,174c-1.9-7.1-9.3-11.3-16.4-9.4l-7.6,2.1l32.3,118.7l7.6-2.1c7.1-1.9,11.3-9.3,9.4-16.4L88.5,174z"/>
	<path d="M270.9,136.1c0-39.3-12-69.1-35.6-88.7c-20.6-17.1-49.1-25.8-84.8-25.8c-35.7,0-64.2,8.7-84.8,25.8
		C42.1,67,30.2,96.8,30.2,136.1c0,24.9,5.3,43.2,9.3,55.9c-5.8,10.6-7,27.7-2.1,45.8c6.5,23.9,21.5,41.2,35.2,41.7
		c-1.8-6.8-3.7-13.6-5.5-20.4c-3.6-13.3-7.2-26.5-10.8-39.8c-2.5-9.2-4.9-18.5-7.5-27.8c-2.5-9.1-5.3-18.1-6.9-27.5
		c-1.6-9.2-2.4-18.6-2.4-28c0-36.4,10.8-59.2,32.2-77c18.9-15.7,45.4-23.7,78.9-23.7s60,8,78.9,23.7c21.4,17.8,32.2,40.6,32.2,77
		c0,21.5-9.1,41.4-14.6,61.8c-3.9,14.5-7.8,29-11.8,43.4c-3.2,11.8-6.4,23.5-9.6,35.3c-0.1,0.2-0.9,3.9-1.1,4
		c13.7-0.6,28.7-17.8,35.2-41.7c4.9-18.2,3.7-35.5-2.3-46.1C263.2,178.3,270.9,157.4,270.9,136.1z"/>
</g>
</svg>
