<?xml version="1.0" encoding="utf-8"?>
<!-- Generator: Adobe Illustrator 28.0.0, SVG Export Plug-In . SVG Version: 6.00 Build 0)  -->
<svg version="1.1" id="Layer_1" xmlns="http://www.w3.org/2000/svg" xmlns:xlink="http://www.w3.org/1999/xlink" x="0px" y="0px"
	 viewBox="0 0 300 300" style="enable-background:new 0 0 300 300;" xml:space="preserve">
<style type="text/css">
	.st0{fill:#E6CCAE;}
	.st1{fill:#C13837;}
	.st2{fill:#FDFBE4;}
	.st3{fill:#F5C2CB;}
</style>
<g>
	<g>
		<path class="st0" d="M127.81,23.88C106.1,18.9,85.65,30.49,78.9,51.7c-0.42,1.31-0.83,2.62-1.25,3.93
			c-1.02-0.69-2.04-1.37-3.06-2.06c-17.29-11.64-44-7.54-55.23,10.79c-11.27,18.39-6.78,41.58,10.79,55.23
			c29.9,23.23,78.04,37.22,82.84,35.58c4.61-1.58,35.42-51.19,42.65-82.38C160.35,52.46,148.2,28.55,127.81,23.88z"/>
		<path class="st1" d="M128.3,33.34c-11.9-5.65-25.93-2.16-36.01,7.72c-7.14,7-11.19,19.5-11.23,19.64
			c0.09-0.34-13.25-4.18-14.73-4.44c-1.93-0.35-4.71-0.9-7.77-1.94c-6.67-2.28-5.71,0.64-9.71,1c-2.83,0.25-8.44-1.72-11.28-0.22
			c-4.84,2.55-9.94,9.52-14.03,16.6c-3.45,5.98-5.37,13.15-3.98,19.41c1.66,7.42,7.4,13.85,12.7,19.5
			c3.61,3.85,5.75,8.64,9.51,11.37c6.88,4.99,15.63,6.92,23.62,10.76c4.93,2.36,11,2.48,18.48,5.61c1.81,0.76,4.44,4.21,9.12,6.08
			c8.34,3.34,13.75,5.11,17.54,4.44c2.79-1.24,5.72-10.38,9.82-18.01c2.09-3.87,8.07-9.67,9.59-12.63c3.08-6,3.5-8.79,5.97-15.06
			c1.93-4.9,3.89-9.81,5.21-14.91c1.44-5.58-0.22-8.69,0.27-10.49c1.5-5.42,4.19-6.15,4.63-11.98c0.54-7.04,1.2-13.86-2.53-20.06
			c-1.4-2.33-1.71-6.91-3.51-8.65C137.67,34.83,131.09,34.66,128.3,33.34z"/>
		<path class="st2" d="M138.77,68.09c0.16-5.56,2.77-10.86,1.72-16.48c-1.07-5.69-6.72-9.38-11.19-12.39
			c-5.04-3.39-10.91-5.48-16.98-3.88c-2.87,0.75-5.4,2.27-7.58,4.26c-2.18,2-4.01,3.84-6.74,5.09c-2.58,1.18-4.98,2.41-6.59,4.84
			c-1.34,2.02-1.92,4.44-2.46,6.77c-0.57,2.43-5.74,9.94-5.79,10.02c-12.02,0.51-16.14-9.82-32.45-7.59
			c-3.06,0.42-6.16-0.11-9.22,0.34c-2.68,0.39-5.84,0.87-7.7,3.06c-1.78,2.08-2.34,4.99-3.44,7.44c-1.25,2.78-2.72,5.45-3.94,8.24
			c-2.45,5.57-3.57,11.41-1.39,17.28c2.16,5.84,6.46,10.41,11.22,14.27c10.6,8.6,22.01,16.12,33.09,24.06c2.79,2,5.46,4.25,8.4,6.03
			c2.59,1.57,5.48,2.65,8.4,3.41c3.05,0.78,6.17,1.22,9.29,1.63c2.8,0.37,5.62,0.76,8.45,0.39c2.82-0.37,5.41-1.56,7.22-3.8
			c1.85-2.29,2.8-5.11,4.09-7.72c2.71-5.47,6.17-10.52,9.76-15.44c3.67-5.02,7.5-9.93,10.93-15.12c3.35-5.08,6.84-10.73,7.12-16.98
			C143.3,79.46,138.59,74.35,138.77,68.09z"/>
		<g>
			<g>
				<path d="M112.58,78.06c-1.04,0-2.1-0.36-3.07-1.08c-2.11-1.59-2.66-4.15-1.35-6.23c1.03-1.63,2.78-2.36,4.68-1.93
					c2.18,0.49,3.95,2.31,4.21,4.34l0,0c0.15,1.22-0.24,2.38-1.13,3.37C115.02,77.54,113.83,78.06,112.58,78.06z M111.79,71.27
					c-0.6,0-1.09,0.29-1.45,0.85c-0.71,1.13-0.05,2.21,0.73,2.8c0.78,0.59,2.02,0.92,2.94-0.11c0.39-0.43,0.55-0.87,0.49-1.34l0,0
					c-0.12-0.94-1.11-1.9-2.21-2.15C112.11,71.29,111.95,71.27,111.79,71.27z"/>
			</g>
			<g>
				<path d="M78.74,81.48c-1.51,0-2.93-0.78-3.85-1.9c-1.59-1.92-1.51-4.42,0.19-6.08c0.93-0.91,2.06-1.36,3.27-1.29h0
					c2.04,0.11,4.03,1.76,4.63,3.84c0.51,1.79-0.11,3.51-1.67,4.6C80.48,81.23,79.6,81.48,78.74,81.48z M78.13,74.78
					c-0.45,0-0.86,0.18-1.25,0.56c-1.11,1.08-0.29,2.26-0.01,2.6c0.67,0.81,1.89,1.34,2.96,0.59c0.66-0.46,0.88-1.04,0.67-1.78
					c-0.3-1.04-1.32-1.92-2.29-1.97l0,0C78.19,74.78,78.16,74.78,78.13,74.78z"/>
			</g>
			<g>
				<path d="M36.43,100.76c-0.77,0-1.55-0.22-2.28-0.66c-1.11-0.68-1.82-1.66-2.06-2.85v0c-0.4-2.01,0.71-4.34,2.57-5.43
					c1.61-0.94,3.43-0.76,4.87,0.48c2.13,1.84,1.89,4.65,0.55,6.48C39.15,100.07,37.81,100.76,36.43,100.76z M34.62,96.74
					c0.1,0.48,0.38,0.85,0.87,1.15c1.32,0.8,2.26-0.28,2.52-0.64c0.62-0.85,0.84-2.16-0.16-3.02c-0.61-0.53-1.23-0.59-1.89-0.21
					C35.04,94.58,34.43,95.8,34.62,96.74z"/>
			</g>
			<g>
				<path d="M77.71,125.95c-1.7,0-3.48-0.92-4.46-2.39c-1.03-1.55-0.96-3.38,0.2-4.89c1.71-2.23,4.53-2.16,6.44-0.93
					c2.1,1.35,2.78,3.75,1.66,5.85c-0.61,1.15-1.55,1.91-2.72,2.22h0C78.46,125.9,78.09,125.95,77.71,125.95z M77.06,119.46
					c-0.57,0-1.14,0.22-1.57,0.77c-0.49,0.64-0.52,1.26-0.1,1.9c0.6,0.9,1.85,1.43,2.78,1.18c0.47-0.12,0.83-0.43,1.1-0.94
					c0.73-1.36-0.41-2.24-0.78-2.48C78.08,119.64,77.56,119.46,77.06,119.46z"/>
			</g>
			<g>
				<path d="M114.92,116.18c-0.77,0-1.55-0.22-2.28-0.66c-1.11-0.68-1.82-1.66-2.06-2.85v0c-0.4-2.01,0.71-4.34,2.57-5.43
					c1.61-0.94,3.43-0.76,4.87,0.48c2.13,1.84,1.89,4.65,0.55,6.48C117.63,115.49,116.29,116.18,114.92,116.18z M113.1,112.16
					c0.1,0.48,0.38,0.85,0.87,1.15c1.32,0.8,2.26-0.28,2.52-0.64c0.62-0.85,0.84-2.16-0.16-3.02c-0.61-0.52-1.23-0.59-1.89-0.21
					C113.52,110,112.91,111.21,113.1,112.16z"/>
			</g>
			<g>
				<path d="M129.87,48.37c-1.78,0-3.33-1-4.02-2.72c-0.49-1.2-0.47-2.42,0.04-3.51l0,0c0.87-1.85,3.15-3.06,5.3-2.83
					c1.85,0.2,3.21,1.43,3.62,3.29c0.62,2.74-1.25,4.86-3.41,5.54C130.88,48.29,130.37,48.37,129.87,48.37z M130.64,41.85
					c-1,0-2.04,0.58-2.42,1.39l0,0c-0.21,0.44-0.2,0.91,0.01,1.45c0.58,1.43,1.98,1.12,2.4,0.99c1.01-0.31,1.96-1.24,1.67-2.52
					c-0.18-0.79-0.63-1.21-1.39-1.29C130.82,41.85,130.73,41.85,130.64,41.85z"/>
			</g>
		</g>
		<g>
			<g>
				<path class="st1" d="M97.64,113.68c-3.19-0.02-6.4,1.34-8.49,4.19c-3.26,4.42-2.39,11.04,1.91,14.47
					c8.41,6.71,20.73-3.13,16.1-12.78C105.31,115.73,101.48,113.7,97.64,113.68z"/>
			</g>
			<g>
				<path class="st1" d="M124.94,80.65c-3.19-0.02-6.4,1.34-8.49,4.19c-3.26,4.42-2.39,11.04,1.91,14.47
					c8.41,6.71,20.73-3.13,16.1-12.78C132.61,82.69,128.79,80.67,124.94,80.65z"/>
			</g>
			<g>
				<path class="st1" d="M93.78,80.88c-3.19-0.02-6.4,1.34-8.49,4.19c-3.26,4.42-2.39,11.04,1.91,14.47
					c8.41,6.71,20.73-3.13,16.1-12.78C101.45,82.93,97.63,80.9,93.78,80.88z"/>
			</g>
			<g>
				<path class="st1" d="M112.37,42.82c-3.19-0.02-6.4,1.34-8.49,4.19c-3.26,4.42-2.39,11.04,1.91,14.47
					c8.41,6.71,20.73-3.13,16.1-12.78C120.04,44.87,116.22,42.84,112.37,42.82z"/>
			</g>
			<g>
				<path class="st1" d="M61.68,94.39c-3.19-0.02-6.4,1.34-8.49,4.19c-3.26,4.42-2.39,11.04,1.91,14.47
					c8.41,6.71,20.73-3.13,16.1-12.78C69.35,96.43,65.53,94.41,61.68,94.39z"/>
			</g>
			<g>
				<path class="st1" d="M50.4,65.8c-3.19-0.02-6.4,1.34-8.49,4.19c-3.26,4.42-2.39,11.04,1.91,14.47
					c8.41,6.71,20.73-3.13,16.1-12.78C58.07,67.84,54.24,65.82,50.4,65.8z"/>
			</g>
		</g>
	</g>
	<g>
		<path class="st0" d="M272.83,103.51c-18.81-11.93-41.95-7.82-55.39,9.92c-0.83,1.1-1.66,2.19-2.49,3.29
			c-0.73-0.99-1.47-1.97-2.2-2.96c-12.42-16.74-38.97-21.78-55.67-8.24c-16.75,13.58-20.25,36.95-8.24,55.67
			c20.44,31.87,61.16,61.11,66.23,61.16c4.87,0.05,50.47-36.45,67.68-63.45C293.98,141.31,290.49,114.72,272.83,103.51z"/>
		<path class="st1" d="M270.14,112.6c-9.34-9.29-23.73-10.69-36.53-4.73c-9.07,4.22-17.05,14.65-17.13,14.78
			c0.2-0.29-11.09-8.35-12.41-9.1c-1.7-0.97-4.14-2.42-6.68-4.42c-5.53-4.37-5.6-1.3-9.49-2.3c-2.75-0.71-7.38-4.44-10.56-3.97
			c-5.42,0.79-12.54,5.66-18.77,10.98c-5.25,4.49-9.45,10.61-10.22,16.97c-0.92,7.55,2.36,15.52,5.47,22.62
			c2.12,4.84,2.54,10.06,5.18,13.89c4.82,7,12.42,11.73,18.68,18.02c3.85,3.87,9.54,6,15.55,11.45c1.45,1.32,2.79,5.45,6.57,8.77
			c6.75,5.93,11.26,9.4,15.05,10.04c3.04-0.24,8.85-7.88,15.26-13.7c3.26-2.96,10.83-6.42,13.25-8.71
			c4.9-4.63,6.23-7.11,10.65-12.21c3.45-3.98,6.94-7.95,9.88-12.32c3.22-4.78,2.69-8.27,3.76-9.8c3.22-4.61,6-4.4,8.36-9.75
			c2.85-6.46,5.75-12.67,4.3-19.75c-0.54-2.66,0.69-7.08-0.42-9.33C278.48,117.12,272.32,114.77,270.14,112.6z"/>
		<path class="st2" d="M268.42,148.85c2-5.18,6.24-9.32,7.12-14.96c0.89-5.72-3.21-11.08-6.42-15.42c-3.62-4.88-8.46-8.8-14.71-9.32
			c-2.95-0.24-5.85,0.34-8.57,1.49c-2.72,1.16-5.06,2.28-8.06,2.55c-2.83,0.25-5.5,0.61-7.83,2.37c-1.93,1.46-3.29,3.55-4.58,5.56
			c-1.35,2.11-8.73,7.46-8.8,7.52c-11.5-3.53-11.94-14.64-28.06-17.98c-3.02-0.63-5.77-2.16-8.8-2.75
			c-2.66-0.53-5.79-1.12-8.27,0.31c-2.37,1.37-3.87,3.93-5.73,5.87c-2.11,2.2-4.38,4.23-6.47,6.46c-4.16,4.44-7.17,9.57-7.08,15.83
			c0.09,6.23,2.62,11.97,5.82,17.2c7.13,11.64,15.38,22.53,23.18,33.71c1.97,2.82,3.73,5.82,5.91,8.48
			c1.92,2.34,4.28,4.33,6.79,6.01c2.61,1.75,5.41,3.21,8.21,4.63c2.52,1.28,5.05,2.59,7.83,3.19c2.79,0.59,5.62,0.33,8.08-1.18
			c2.51-1.54,4.34-3.88,6.43-5.91c4.38-4.25,9.33-7.86,14.35-11.3c5.13-3.51,10.38-6.86,15.34-10.61
			c4.86-3.67,10.03-7.83,12.38-13.63C268.9,161.08,266.16,154.69,268.42,148.85z"/>
		<g>
			<g>
				<path d="M240.41,149.52c-0.98-0.35-1.86-1.04-2.53-2.04c-1.46-2.2-1.13-4.81,0.8-6.33c1.52-1.2,3.41-1.29,5.06-0.26
					c1.9,1.19,2.96,3.5,2.52,5.5l0,0c-0.26,1.2-1.02,2.17-2.19,2.81C242.88,149.84,241.58,149.93,240.41,149.52z M241.93,142.85
					c-0.57-0.2-1.12-0.09-1.65,0.32c-1.05,0.82-0.79,2.07-0.25,2.88c0.54,0.82,1.6,1.54,2.81,0.88c0.51-0.28,0.81-0.64,0.91-1.1l0,0
					c0.2-0.92-0.41-2.16-1.37-2.76C242.22,142.98,242.07,142.9,241.93,142.85z"/>
			</g>
			<g>
				<path d="M207.37,141.45c-1.42-0.5-2.5-1.71-3-3.07c-0.86-2.34,0.05-4.67,2.21-5.67c1.18-0.54,2.39-0.59,3.51-0.12l0,0
					c1.89,0.78,3.22,3,3.08,5.16c-0.12,1.86-1.28,3.27-3.11,3.78C209.08,141.8,208.17,141.74,207.37,141.45z M209.02,134.94
					c-0.43-0.15-0.87-0.11-1.36,0.11c-1.4,0.65-1.02,2.04-0.87,2.45c0.36,0.99,1.33,1.9,2.59,1.55c0.78-0.21,1.18-0.69,1.22-1.45
					c0.07-1.08-0.61-2.25-1.5-2.62l0,0C209.08,134.96,209.05,134.95,209.02,134.94z"/>
			</g>
			<g>
				<path d="M161.05,145.53c-0.73-0.26-1.39-0.72-1.93-1.38c-0.82-1.01-1.16-2.17-0.99-3.37l0,0c0.29-2.03,2.11-3.86,4.24-4.26
					c1.83-0.35,3.49,0.43,4.43,2.08c1.39,2.44,0.23,5.02-1.64,6.3C163.84,145.79,162.35,145.98,161.05,145.53z M160.68,141.14
					c-0.07,0.48,0.07,0.93,0.44,1.38c0.97,1.2,2.23,0.49,2.59,0.24c0.87-0.6,1.51-1.76,0.86-2.9c-0.4-0.7-0.96-0.97-1.71-0.83
					C161.79,139.24,160.82,140.18,160.68,141.14z"/>
			</g>
			<g>
				<path d="M191.56,183.04c-1.6-0.57-2.98-2.02-3.41-3.74c-0.45-1.81,0.22-3.51,1.82-4.54c2.36-1.53,4.99-0.52,6.38,1.27
					c1.53,1.97,1.37,4.47-0.38,6.07c-0.96,0.88-2.1,1.29-3.31,1.19l0,0C192.29,183.25,191.92,183.16,191.56,183.04z M193.11,176.71
					c-0.54-0.19-1.15-0.17-1.74,0.21c-0.67,0.44-0.91,1.01-0.72,1.76c0.26,1.05,1.27,1.96,2.23,2.04c0.48,0.04,0.93-0.13,1.35-0.52
					c1.14-1.04,0.36-2.25,0.09-2.59C194.01,177.21,193.59,176.88,193.11,176.71z"/>
			</g>
			<g>
				<path d="M229.9,186.23c-0.73-0.26-1.39-0.72-1.93-1.38c-0.82-1.01-1.16-2.17-0.99-3.37l0,0c0.29-2.03,2.11-3.86,4.24-4.26
					c1.83-0.35,3.49,0.43,4.43,2.08c1.39,2.44,0.23,5.02-1.64,6.3C232.69,186.49,231.2,186.69,229.9,186.23z M229.53,181.84
					c-0.07,0.48,0.07,0.93,0.44,1.38c0.97,1.2,2.22,0.49,2.59,0.24c0.87-0.6,1.51-1.76,0.86-2.89c-0.4-0.7-0.96-0.97-1.71-0.83
					C230.64,179.94,229.67,180.89,229.53,181.84z"/>
			</g>
			<g>
				<path d="M266.61,127.29c-1.68-0.59-2.8-2.05-2.89-3.91c-0.06-1.3,0.36-2.44,1.21-3.3l0,0c1.44-1.46,3.99-1.84,5.94-0.9
					c1.68,0.81,2.55,2.42,2.32,4.31c-0.33,2.79-2.8,4.17-5.07,4.08C267.59,127.55,267.08,127.46,266.61,127.29z M269.51,121.4
					c-0.94-0.33-2.12-0.13-2.75,0.5l0,0c-0.34,0.34-0.5,0.79-0.47,1.37c0.07,1.54,1.5,1.71,1.93,1.73c1.05,0.04,2.26-0.51,2.41-1.81
					c0.1-0.8-0.19-1.35-0.88-1.68C269.68,121.46,269.59,121.43,269.51,121.4z"/>
			</g>
		</g>
		<g>
			<g>
				<path class="st1" d="M214.44,178.12c-3-1.08-6.48-0.87-9.41,1.12c-4.54,3.08-5.93,9.62-3.03,14.28
					c5.69,9.13,20.59,3.97,19.44-6.68C220.99,182.6,218.06,179.42,214.44,178.12z"/>
			</g>
			<g>
				<path class="st1" d="M251.2,156.08c-3-1.08-6.48-0.87-9.41,1.12c-4.54,3.08-5.93,9.62-3.03,14.28
					c5.69,9.13,20.59,3.97,19.44-6.68C257.75,160.57,254.82,157.38,251.2,156.08z"/>
			</g>
			<g>
				<path class="st1" d="M221.74,145.91c-3-1.08-6.48-0.87-9.41,1.12c-4.54,3.08-5.93,9.62-3.03,14.28
					c5.69,9.13,20.59,3.97,19.44-6.68C228.29,150.4,225.36,147.21,221.74,145.91z"/>
			</g>
			<g>
				<path class="st1" d="M251.96,116.22c-3-1.08-6.48-0.87-9.41,1.12c-4.54,3.08-5.93,9.62-3.03,14.28
					c5.69,9.13,20.59,3.97,19.44-6.68C258.51,120.71,255.58,117.53,251.96,116.22z"/>
			</g>
			<g>
				<path class="st1" d="M186.97,147.94c-3-1.08-6.48-0.87-9.41,1.12c-4.54,3.08-5.93,9.62-3.03,14.28
					c5.69,9.13,20.59,3.97,19.44-6.68C193.53,152.43,190.59,149.24,186.97,147.94z"/>
			</g>
			<g>
				<path class="st1" d="M185.87,117.22c-3-1.08-6.48-0.87-9.41,1.12c-4.54,3.08-5.93,9.62-3.03,14.28
					c5.69,9.13,20.59,3.97,19.44-6.68C192.42,121.71,189.49,118.52,185.87,117.22z"/>
			</g>
		</g>
	</g>
	<g>
		<path class="st0" d="M155.16,185.12c-16.6-14.86-40.1-14.6-56.27,0.71c-1,0.95-2,1.89-3,2.84c-0.56-1.09-1.12-2.19-1.68-3.28
			c-9.51-18.55-34.87-27.88-53.56-17.26c-18.75,10.65-26.04,33.12-17.26,53.56c14.94,34.79,50.31,70.32,55.31,71.2
			c4.8,0.85,55.76-27.68,77.17-51.49C169.82,225.87,170.74,199.06,155.16,185.12z"/>
		<path class="st1" d="M151.01,193.64c-7.69-10.7-21.65-14.43-35.26-10.66c-9.64,2.67-19.22,11.66-19.32,11.77
			c0.24-0.26-9.57-10.06-10.75-11.01c-1.52-1.24-3.69-3.07-5.86-5.46c-4.74-5.22-5.31-2.2-8.98-3.82c-2.6-1.15-6.55-5.59-9.77-5.65
			c-5.48-0.11-13.3,3.52-20.31,7.75c-5.92,3.57-11.06,8.92-12.87,15.07c-2.14,7.3-0.22,15.7,1.69,23.21
			c1.3,5.12,0.86,10.35,2.83,14.55c3.61,7.69,10.33,13.61,15.47,20.84c3.17,4.45,8.43,7.48,13.46,13.85
			c1.22,1.54,1.85,5.83,5.04,9.73c5.69,6.96,9.56,11.12,13.2,12.37c3.04,0.26,10.03-6.32,17.3-11.01c3.7-2.38,11.74-4.56,14.5-6.42
			c5.59-3.77,7.31-6,12.51-10.29c4.06-3.36,8.15-6.7,11.77-10.53c3.96-4.19,4.01-7.72,5.31-9.05c3.93-4.02,6.64-3.36,9.85-8.25
			c3.87-5.91,7.75-11.56,7.48-18.78c-0.1-2.71,1.84-6.87,1.11-9.27C158.5,199.47,152.81,196.14,151.01,193.64z"/>
		<path class="st2" d="M143.38,229.11c2.83-4.79,7.68-8.17,9.47-13.59c1.82-5.49-1.35-11.46-3.8-16.26
			c-2.77-5.41-6.9-10.07-12.98-11.6c-2.87-0.73-5.83-0.63-8.69,0.07c-2.88,0.69-5.37,1.42-8.36,1.19c-2.83-0.21-5.52-0.3-8.11,1.05
			c-2.15,1.12-3.83,2.96-5.43,4.73c-1.67,1.86-9.83,5.93-9.91,5.98c-10.77-5.36-9.38-16.4-24.73-22.34
			c-2.88-1.11-5.34-3.07-8.23-4.16c-2.54-0.95-5.53-2.06-8.21-1.05c-2.56,0.97-4.46,3.24-6.61,4.85c-2.44,1.82-5.02,3.46-7.44,5.31
			c-4.84,3.7-8.64,8.26-9.58,14.45c-0.93,6.16,0.62,12.23,2.92,17.92c5.12,12.65,11.47,24.75,17.34,37.06
			c1.48,3.1,2.72,6.36,4.44,9.34c1.51,2.63,3.51,4.97,5.71,7.04c2.29,2.16,4.81,4.05,7.34,5.91c2.28,1.68,4.56,3.39,7.21,4.43
			c2.65,1.04,5.49,1.25,8.16,0.17c2.72-1.11,4.92-3.12,7.31-4.77c5.02-3.48,10.49-6.22,16.01-8.79c5.64-2.62,11.36-5.06,16.88-7.95
			c5.39-2.82,11.17-6.08,14.45-11.42C141.84,241.26,140.19,234.51,143.38,229.11z"/>
		<g>
			<g>
				<path d="M115.63,225.18c-0.91-0.5-1.67-1.33-2.16-2.43c-1.08-2.41-0.32-4.92,1.83-6.11c1.69-0.93,3.58-0.72,5.03,0.57
					c1.68,1.48,2.34,3.94,1.58,5.84l0,0c-0.46,1.14-1.36,1.97-2.62,2.41C118.02,225.91,116.72,225.78,115.63,225.18z M118.22,218.85
					c-0.53-0.29-1.09-0.28-1.68,0.05c-1.17,0.64-1.12,1.91-0.72,2.8c0.4,0.9,1.33,1.78,2.63,1.33c0.55-0.19,0.9-0.5,1.08-0.94l0,0
					c0.35-0.88-0.05-2.2-0.9-2.95C118.49,219.02,118.36,218.93,118.22,218.85z"/>
			</g>
			<g>
				<path d="M84.36,211.81c-1.32-0.73-2.19-2.1-2.45-3.52c-0.46-2.45,0.82-4.6,3.11-5.23c1.25-0.34,2.46-0.19,3.48,0.45l0,0
					c1.74,1.08,2.68,3.49,2.2,5.6c-0.42,1.82-1.8,3.02-3.69,3.22C86,212.43,85.1,212.22,84.36,211.81z M87.06,205.65
					c-0.39-0.22-0.84-0.25-1.36-0.11c-1.49,0.41-1.34,1.84-1.26,2.27c0.19,1.04,1,2.09,2.3,1.95c0.8-0.08,1.27-0.49,1.45-1.23
					c0.24-1.05-0.23-2.32-1.05-2.83l0,0C87.11,205.68,87.09,205.66,87.06,205.65z"/>
			</g>
			<g>
				<path d="M38,208.23c-0.67-0.37-1.26-0.94-1.68-1.68c-0.64-1.13-0.79-2.33-0.42-3.49l0,0c0.62-1.95,2.72-3.46,4.88-3.51
					c1.86-0.04,3.37,0.99,4.03,2.78c0.97,2.64-0.6,4.99-2.65,5.94C40.71,208.94,39.21,208.89,38,208.23z M38.35,203.84
					c-0.15,0.46-0.08,0.93,0.21,1.43c0.76,1.34,2.12,0.84,2.51,0.66c0.95-0.45,1.78-1.48,1.32-2.72c-0.28-0.76-0.79-1.11-1.55-1.1
					C39.76,202.15,38.65,202.91,38.35,203.84z"/>
			</g>
			<g>
				<path d="M61.95,250.24c-1.49-0.82-2.61-2.49-2.75-4.25c-0.15-1.86,0.8-3.42,2.54-4.18c2.58-1.13,5.01,0.3,6.09,2.3
					c1.18,2.19,0.62,4.63-1.38,5.93c-1.09,0.71-2.28,0.93-3.46,0.63l0,0C62.63,250.56,62.28,250.42,61.95,250.24z M64.51,244.24
					c-0.5-0.28-1.11-0.36-1.75-0.08c-0.74,0.32-1.06,0.85-1,1.61c0.09,1.07,0.93,2.14,1.86,2.38c0.47,0.12,0.93,0.03,1.42-0.29
					c1.3-0.84,0.72-2.16,0.51-2.54C65.32,244.89,64.96,244.49,64.51,244.24z"/>
			</g>
			<g>
				<path d="M99.24,259.67c-0.68-0.37-1.26-0.94-1.68-1.68c-0.64-1.13-0.79-2.33-0.42-3.49l0,0c0.62-1.95,2.72-3.46,4.88-3.51
					c1.87-0.04,3.37,1,4.03,2.78c0.97,2.64-0.6,4.99-2.65,5.94C101.95,260.39,100.45,260.34,99.24,259.67z M99.6,255.28
					c-0.15,0.46-0.08,0.93,0.21,1.43c0.76,1.34,2.11,0.85,2.51,0.66c0.95-0.45,1.78-1.48,1.32-2.72c-0.28-0.75-0.79-1.11-1.55-1.1
					C101,253.59,99.89,254.36,99.6,255.28z"/>
			</g>
			<g>
				<path d="M145.12,207.55c-1.56-0.86-2.43-2.48-2.21-4.33c0.15-1.29,0.76-2.35,1.74-3.05l0,0c1.66-1.2,4.24-1.16,6.01,0.08
					c1.52,1.08,2.12,2.81,1.58,4.63c-0.79,2.7-3.45,3.65-5.67,3.2C146.04,207.97,145.55,207.79,145.12,207.55z M148.95,202.21
					c-0.87-0.48-2.07-0.48-2.79,0.04l0,0c-0.39,0.28-0.62,0.7-0.69,1.27c-0.18,1.53,1.2,1.94,1.62,2.03
					c1.03,0.21,2.31-0.14,2.68-1.39c0.23-0.77,0.03-1.36-0.6-1.81C149.1,202.31,149.03,202.26,148.95,202.21z"/>
			</g>
		</g>
		<g>
			<g>
				<path class="st1" d="M85.32,249.13c-2.78-1.56-6.25-1.92-9.46-0.44c-4.99,2.29-7.43,8.51-5.33,13.59
					c4.11,9.94,19.66,7.29,20.27-3.4C91.05,254.63,88.68,251.01,85.32,249.13z"/>
			</g>
			<g>
				<path class="st1" d="M125.2,233.42c-2.78-1.56-6.25-1.92-9.46-0.44c-4.99,2.29-7.43,8.51-5.33,13.59
					c4.11,9.94,19.66,7.29,20.27-3.4C130.92,238.92,128.55,235.3,125.2,233.42z"/>
			</g>
			<g>
				<path class="st1" d="M97.81,218.56c-2.78-1.56-6.25-1.92-9.46-0.44c-4.99,2.29-7.43,8.51-5.33,13.59
					c4.11,9.94,19.66,7.29,20.27-3.4C103.53,224.06,101.16,220.43,97.81,218.56z"/>
			</g>
			<g>
				<path class="st1" d="M132.48,194.23c-2.78-1.56-6.25-1.92-9.46-0.44c-4.99,2.29-7.43,8.51-5.33,13.59
					c4.11,9.94,19.66,7.29,20.27-3.4C138.21,199.73,135.84,196.11,132.48,194.23z"/>
			</g>
			<g>
				<path class="st1" d="M63.18,214.86c-2.78-1.56-6.25-1.92-9.46-0.44c-4.99,2.29-7.43,8.51-5.33,13.59
					c4.11,9.94,19.66,7.29,20.27-3.4C68.91,220.36,66.54,216.74,63.18,214.86z"/>
			</g>
			<g>
				<path class="st1" d="M67.13,184.38c-2.78-1.56-6.25-1.92-9.46-0.44c-4.99,2.29-7.43,8.51-5.33,13.59
					c4.11,9.94,19.66,7.29,20.27-3.4C72.85,189.88,70.48,186.25,67.13,184.38z"/>
			</g>
		</g>
	</g>
	<path class="st3" d="M205.66,52.76c-4.58-2.54-9.96-1.26-12.87,3.09c-0.18,0.27-0.36,0.54-0.54,0.81
		c-0.19-0.22-0.37-0.44-0.56-0.67c-3.15-3.76-9.45-4.58-13.18-1.17c-3.75,3.42-4.25,8.95-1.17,13.18
		c5.24,7.2,15.19,13.51,16.39,13.45c1.14-0.06,11.35-9.25,15.02-15.82C211.14,61.35,209.96,55.15,205.66,52.76z"/>
	<path class="st3" d="M30.39,167.18c3.98-3.4,4.66-8.89,1.6-13.14c-0.19-0.26-0.38-0.53-0.57-0.79c0.27-0.1,0.55-0.19,0.82-0.29
		c4.62-1.63,7.59-7.25,5.71-11.94c-1.89-4.7-6.9-7.11-11.94-5.71c-8.58,2.39-17.97,9.52-18.33,10.65c-0.35,1.09,4.7,13.87,9.57,19.6
		C20.43,169.32,26.65,170.37,30.39,167.18z"/>
	<path class="st3" d="M206.15,245.86c-1.83-4.91-6.75-7.43-11.79-6.01c-0.31,0.09-0.62,0.17-0.93,0.26c0-0.29,0.01-0.58,0.01-0.87
		c0.05-4.9-4.21-9.62-9.26-9.46c-5.07,0.16-9.05,4.04-9.46,9.26c-0.7,8.88,2.77,20.14,3.72,20.87c0.91,0.7,14.64,0.34,21.7-2.27
		C204.74,255.94,207.87,250.46,206.15,245.86z"/>
</g>
</svg>
