<?xml version="1.0" encoding="utf-8"?>
<!-- Generator: Adobe Illustrator 26.3.1, SVG Export Plug-In . SVG Version: 6.00 Build 0)  -->
<svg version="1.1" id="Layer_1" xmlns="http://www.w3.org/2000/svg" xmlns:xlink="http://www.w3.org/1999/xlink" x="0px" y="0px"
	 width="300px" height="300px" viewBox="0 0 300 300" style="enable-background:new 0 0 300 300;" xml:space="preserve">
<style type="text/css">
	.st0{fill:#F4AAA9;}
</style>
<g>
	<path class="st0" d="M162.7,127.4c-2.6-4.8-8.2-8.3-14.8-7c-8.8,1.7-13.4,11.6-14.5,13.5c-1.1-1.9-5.5-12.6-14.4-13.6
		c-5.4-0.6-11.7,0.9-14.9,6.9c-10.9,20.4,28.9,62.1,28.9,62.1C133,189.1,173.5,147.8,162.7,127.4z"/>
	<path d="M110.2,161.3c-1.3-2.2-2.5-4.3-3.5-6.4c-0.1,0.3-0.2,0.5-0.3,0.8c-2.1,5.5-4.1,10.9-6.5,16.2c-1.5,3.3-3.2,6.5-5.9,9
		c-1.8,1.7-3.4,1.7-5.2,0.1c-1-0.9-1.9-2-2.5-3.1c-4.1-7.2-6-15.1-7.6-23.2c-0.2-0.8,0.1-1.2,0.9-1.5c5.2-1.9,9.2-5.4,12.4-9.8
		c8.8-11.7,12.5-25.1,13-39.6c0-3.7-0.3-7.3-1.5-10.7c-3.6-10.4-14.5-13-22.5-5.4c-3.3,3.1-5.7,6.9-7.6,11c-4.9,10.8-6.5,22.3-7,34
		c-0.2,4.3-0.1,8.5,0.2,12.7c-13.8,1.1-28.1-6.4-39.9-12.7c-5.8-3.1-10.9,5.7-5.1,8.8c9.9,5.4,20.2,10.9,31.4,13
		c4.9,0.9,9.9,1.3,14.9,0.9c0.7,4.3,1.7,8.6,3,12.8c1.9,6.5,4.2,12.9,8.4,18.3c6.7,8.5,16.5,8.8,23.7,0.7c1.5-1.7,2.8-3.4,3.9-5.3
		c2.9-4.8,4.9-10,6.9-15.1C112.4,165,111.3,163.2,110.2,161.3z M76.8,140.9c-0.1-1.3,0-2.6,0-3.9c0.4-10.9,1.3-21.8,5.4-32.1
		c1.2-2.9,2.6-5.7,4.7-8.1c0.3-0.4,0.6-0.8,1-1.1c2.7-2.5,4.5-2,5.5,1.5c1.3,4.7,0.8,9.5,0.1,14.2c-1.5,9.3-4.5,18.1-10.3,25.7
		c-1.3,1.7-2.9,3.1-4.6,4.4C77.4,142.5,76.9,142.1,76.8,140.9z"/>
	<path d="M276.5,147.1c-1.9-1.2-4.3-1.1-6.2,0.4c-1,0.8-1.5,1.9-2.1,3c-4.3,8.2-8.9,16.1-15.7,22.6c-4.6,4.4-9,4.1-13.1-0.8
		c-2.7-3.2-4.3-6.9-5.4-11c-0.4-1.5,0-2.2,1.6-2.2c0.7,0,1.5-0.3,2.2-0.5c11.4-3.3,22.2-13.8,20.4-30.3c-0.8-7.6-7.7-12.5-15.1-10.7
		c-6.6,1.6-11,6.1-14.3,11.6c-2.1,3.5-3.6,7.1-4.6,10.9c-1.2-0.6-2.3-1.3-3.4-2.1c-4.2-3.2-7.1-7.4-10-11.7
		c-0.9-1.3-1.7-2.7-2.7-3.9c-2.7-3.1-7-2.5-8.8,1.2c-0.5,0.9-0.8,1.9-1.2,2.9c-3.3,10-6.6,20-9.9,30.1c-1.3,4-2.7,8-4.1,12.4
		c-0.3-0.5-0.4-0.7-0.4-0.9c-2.1-10.5-4.2-21-6.3-31.6c-0.8-4-1.5-8-2.3-11.9c-0.6-2.9-3.1-4.7-5.9-4.4c-1.1,0.1-3.6,2.6-6.3,5.4
		c0.3,0.5,0.7,1,0.9,1.5c1.6,2.9,2.2,6.4,1.9,10.3c0.2-0.2,0.5-0.4,0.7-0.6c2.6,13.4,5.3,26.8,8.2,40.2c0.8,3.7,1.6,7.3,2.5,10.9
		c0.8,3,2.8,4.6,5.8,4.7c3,0.1,4.9-1.2,6-4.2c0.2-0.6,0.4-1.2,0.6-1.7c5.2-15.6,10.3-31.2,15.5-46.8c0.2-0.5,0.1-1.4,0.8-1.5
		c0.6-0.1,0.8,0.7,1.1,1.1c2.9,3.6,6.2,6.9,10.2,9.2c1.7,1,3.5,2,5.4,2.6c0,0.7,0,1.5,0,2.2c0,2.5,0,4.9,0.4,7.3
		c1.5,8.4,4.8,15.8,11.3,21.6c5.1,4.5,11.1,5.7,17.5,3.7c3.4-1,6.2-3.2,8.7-5.7c7.4-7.5,12.9-16.4,17.6-25.7
		c0.3-0.5,0.5-1.1,0.6-1.7C279.2,150.4,278.3,148.2,276.5,147.1z M233.6,146.9c1-5.3,2.6-10.3,5.9-14.7c1.2-1.5,2.6-2.8,4.3-3.7
		c2.4-1.3,3.7-0.5,3.8,2.3c0,0.4,0,0.9,0,1.3c0,7.1-5.6,14.2-12.5,16C234.2,148.3,233.4,148.4,233.6,146.9z"/>
</g>
</svg>
