<?xml version="1.0" encoding="utf-8"?>
<!-- Generator: Adobe Illustrator 28.0.0, SVG Export Plug-In . SVG Version: 6.00 Build 0)  -->
<svg version="1.1" id="Layer_1" xmlns="http://www.w3.org/2000/svg" xmlns:xlink="http://www.w3.org/1999/xlink" x="0px" y="0px"
	 viewBox="0 0 300 300" style="enable-background:new 0 0 300 300;" xml:space="preserve">
<style type="text/css">
	.st0{fill:#171515;}
	.st1{fill:#D8B3D1;}
	.st2{fill:#F0EFEF;}
	.st3{fill:#F2A5B5;}
	.st4{fill:#F2A584;}
	.st5{fill:#EE3E87;}
</style>
<g>
	<g>
		<path class="st0" d="M147.48,75.21c0-0.73-0.23-0.94-0.95-0.93c-2.32,0.04-4.65,0.01-6.97,0.01c0-0.01,0-0.01,0-0.02
			c-0.01,0-0.01,0-0.02,0c-0.01-2.33-0.05-4.66,0-6.98c0.02-0.81-0.26-1.02-1.01-1c-1.94,0.04-3.88-0.04-5.82,0.05
			c-1.03,0.05-1.26-0.31-1.23-1.27c0.07-1.94,0-3.88,0.03-5.82c0.01-0.64-0.13-0.9-0.85-0.9c-7.4,0.03-14.8,0.03-22.2,0.01
			c-0.74,0-0.95,0.23-0.94,0.95c0.04,2.02-0.03,4.04,0.03,6.05c0.02,0.81-0.26,1.01-1.01,0.99c-2.02-0.04-4.04,0-6.05-0.02
			c-0.61-0.01-0.94,0.1-0.93,0.83c0.05,2.37,0.04,4.74,0.05,7.11c0,0-0.01,0-0.01,0c0,0,0,0.01,0,0.01c-2.69,0-5.38,0-8.07,0.01
			c0,0,0-0.01,0-0.01c0,0-0.01,0-0.01,0c0.01-2.37,0-4.74,0.05-7.11c0.02-0.74-0.32-0.83-0.93-0.82c-1.94,0.03-3.88-0.06-5.82,0.04
			c-1.1,0.06-1.33-0.33-1.29-1.34c0.08-1.94,0.01-3.88,0.03-5.82c0.01-0.58-0.13-0.86-0.79-0.85c-7.45,0.02-14.89,0.03-22.34,0.02
			c-0.61,0-0.84,0.18-0.83,0.81c0.04,2.41,0.04,4.82,0.05,7.23c-2.45-0.02-4.9-0.02-7.35-0.07c-0.73-0.01-0.72,0.4-0.71,0.91
			c0.01,2.02-0.04,4.04,0.03,6.05c0.03,0.86-0.27,1.06-1.08,1.04c-2.02-0.05-4.04,0.01-6.05-0.03c-0.66-0.01-0.9,0.18-0.9,0.86
			c0.02,7.4,0.02,14.79,0,22.19c0,0.75,0.26,0.94,0.97,0.92c2.02-0.04,4.04,0.01,6.05-0.03c0.77-0.01,1.04,0.27,1.03,1.05
			c-0.04,2.02,0.01,4.04-0.03,6.05c-0.02,0.74,0.22,0.94,0.95,0.93c2.37-0.03,4.74,0.02,7.11,0.04c0,0,0,0.01,0,0.01
			c0,0,0.01,0,0.01,0c-0.01,2.33,0,4.66-0.06,6.98c-0.02,0.74,0.21,0.95,0.93,0.93c1.86-0.05,3.72,0.04,5.58-0.04
			c1.13-0.05,1.62,0.17,1.53,1.46c-0.13,1.85,0,3.72-0.05,5.57c-0.02,0.76,0.19,1.03,0.99,1.01c2.33-0.05,4.66-0.01,6.99-0.01
			c0,0,0,0.01,0,0.01l0,0c0,0,0.01,0,0.01,0c0,2.25,0.05,4.51-0.04,6.75c-0.04,1.05,0.34,1.26,1.28,1.22
			c1.86-0.06,3.72,0.04,5.58-0.04c1.02-0.05,1.26,0.31,1.22,1.27c-0.07,1.9,0.02,3.8-0.04,5.7c-0.03,0.86,0.26,1.07,1.08,1.04
			c1.98-0.06,3.96,0.01,5.94-0.03c0.75-0.02,1.03,0.15,1.01,0.97c-0.06,1.98,0.02,3.96-0.04,5.94c-0.02,0.83,0.26,1.12,1.07,1.11
			c1.98-0.03,3.96-0.04,5.94,0c0.78,0.02,1.01-0.22,1-1.01c-0.05-2.33-0.01-4.66,0-7c0,0,0.01,0,0.01,0c0,0,0-0.01,0-0.01
			c2.25,0,4.5-0.03,6.76,0.03c0.9,0.03,1.24-0.19,1.21-1.16c-0.08-1.94,0.02-3.88-0.04-5.81c-0.03-0.86,0.27-1.07,1.08-1.04
			c1.98,0.05,3.96-0.01,5.94,0.03c0.72,0.01,1.06-0.13,1.03-0.97c-0.07-2.33-0.04-4.66-0.05-6.99c0,0,0.01,0,0.01,0
			c0,0,0-0.01,0-0.01c2.33-0.01,4.67-0.06,7-0.01c0.86,0.02,1.07-0.26,1.04-1.07c-0.06-1.98,0.02-3.96-0.04-5.94
			c-0.03-0.86,0.27-1.06,1.08-1.03c1.86,0.06,3.73-0.04,5.58,0.04c0.99,0.04,1.41-0.15,1.34-1.27c-0.11-1.89,0.01-3.8-0.05-5.7
			c-0.03-0.86,0.27-1.06,1.08-1.04c1.98,0.05,3.96-0.01,5.94,0.03c0.75,0.01,1.04-0.19,1.02-1c-0.05-2.33-0.01-4.66-0.01-6.99
			c0.01,0,0.01,0,0.02,0c0-0.01,0-0.01,0-0.02c2.32,0,4.65-0.03,6.97,0c0.69,0.01,0.98-0.14,0.98-0.91
			C147.47,89.98,147.47,82.59,147.48,75.21z"/>
		<path class="st1" d="M139.55,74.28c-2.34,0.01-4.67-0.02-7.01,0.04c-0.85,0.02-1.08-0.27-1.06-1.09c0.05-1.98,0-3.96,0.03-5.94
			c0.01-0.69-0.19-0.98-0.94-0.98c-7.32,0.03-14.65,0.04-21.97,0.03c-0.85,0-1.09,0.3-1.07,1.11c0.04,1.94-0.01,3.88,0.02,5.82
			c0.01,0.7-0.1,1.09-0.96,1.06c-2.33-0.07-4.67-0.04-7.01-0.05c-0.01,2.33-0.05,4.66-0.01,6.99c0.01,0.8-0.19,1.11-1.06,1.09
			c-1.97-0.06-3.95-0.06-5.93,0.01c-0.86,0.03-1.07-0.29-1.06-1.09c0.03-2.33-0.01-4.66-0.02-6.99c-2.33,0.01-4.67-0.01-7,0.05
			c-0.81,0.02-1.01-0.27-0.99-1.02c0.04-1.98,0-3.95,0.02-5.93c0.01-0.65-0.11-1.03-0.9-1.03c-7.67,0.04-15.34,0.06-23.01,0.08
			c-0.03,2.63-0.06,5.27-0.09,7.9c-2.29,0-4.58,0.01-6.87-0.02c-0.76-0.01-1.12,0.15-1.12,1.04c0.04,7.29,0.04,14.57,0.01,21.86
			c0,0.92,0.32,1.14,1.17,1.12c1.98-0.06,3.96,0.01,5.94-0.04c0.73-0.02,0.95,0.23,0.94,0.96c-0.03,2.37,0.01,4.75,0.02,7.13
			c2.37-0.01,4.74-0.01,7.1-0.05c0.67-0.01,0.89,0.23,0.88,0.89c-0.03,1.97,0.03,3.95-0.03,5.92c-0.03,0.87,0.21,1.18,1.12,1.15
			c1.97-0.07,3.95,0,5.92-0.04c0.73-0.01,0.95,0.23,0.94,0.95c-0.04,2.37-0.01,4.74-0.01,7.1c2.3,0,4.59,0.04,6.89-0.03
			c0.98-0.03,1.2,0.32,1.17,1.22c-0.06,1.86,0.04,3.72-0.04,5.58c-0.04,0.98,0.33,1.21,1.23,1.18c1.86-0.06,3.72,0.02,5.58-0.03
			c0.89-0.03,1.27,0.17,1.22,1.17c-0.09,1.9,0.01,3.8-0.04,5.7c-0.02,0.85,0.2,1.2,1.12,1.18c2.29-0.06,4.59-0.03,6.89-0.04
			c0-2.34,0.02-4.67-0.03-7.01c-0.02-0.8,0.26-1.02,1.02-1.01c1.98,0.04,3.96-0.02,5.94,0.03c0.79,0.02,1.03-0.26,1.01-1.03
			c-0.04-1.98,0.02-3.96-0.03-5.94c-0.02-0.79,0.24-1.02,1.01-1.01c2.34,0.05,4.67,0.03,7.01,0.04c0.01-2.33,0.05-4.66,0.01-6.99
			c-0.01-0.8,0.17-1.11,1.04-1.08c1.86,0.07,3.72-0.04,5.57,0.04c1.05,0.05,1.48-0.23,1.43-1.34c-0.07-1.85,0.04-3.72-0.05-5.57
			c-0.04-0.94,0.28-1.14,1.13-1.12c1.9,0.05,3.8-0.02,5.69,0.04c0.87,0.03,1.19-0.2,1.16-1.12c-0.07-1.93,0.02-3.87-0.03-5.81
			c-0.02-0.82,0.22-1.11,1.06-1.09c2.33,0.05,4.66,0.03,7,0.03C139.55,90.29,139.55,82.28,139.55,74.28z"/>
		<path class="st2" d="M131.62,74.28c-5.03-0.01-7.97-0.01-12.99-0.05c-0.75-0.01-0.94,0.29-0.93,0.98
			c0.03,2.02,0.05,4.04-0.01,6.05c-0.03,0.88,0.34,1.06,1.12,1.04c1.94-0.04,1.79,0.02,3.73-0.03c0.77-0.02,1.04,0.24,1.03,1.02
			c-0.04,1.98,0.01,2.67-0.02,4.65c-0.01,0.81,0.25,1.12,1.09,1.1c1.98-0.05,3.96-0.04,5.94,0c0.73,0.01,1.09-0.19,1.09-0.99
			c-0.03-5.02-0.04-8.76-0.05-13.79C131.6,74.27,131.62,74.28,131.62,74.28z"/>
	</g>
	<g>
		<path class="st0" d="M257.8,75.21c0-0.73-0.23-0.94-0.95-0.93c-2.32,0.04-4.65,0.01-6.97,0.01c0-0.01,0-0.01,0-0.02
			c-0.01,0-0.01,0-0.02,0c-0.01-2.33-0.05-4.66,0-6.98c0.02-0.81-0.26-1.02-1.01-1c-1.94,0.04-3.88-0.04-5.82,0.05
			c-1.03,0.05-1.26-0.31-1.23-1.27c0.07-1.94,0-3.88,0.03-5.82c0.01-0.64-0.13-0.9-0.85-0.9c-7.4,0.03-14.8,0.03-22.2,0.01
			c-0.74,0-0.95,0.23-0.94,0.95c0.04,2.02-0.03,4.04,0.03,6.05c0.02,0.81-0.26,1.01-1.01,0.99c-2.02-0.04-4.04,0-6.05-0.02
			c-0.61-0.01-0.94,0.1-0.93,0.83c0.05,2.37,0.04,4.74,0.05,7.11c0,0-0.01,0-0.01,0c0,0,0,0.01,0,0.01c-2.69,0-5.38,0-8.07,0.01
			c0,0,0-0.01,0-0.01c0,0-0.01,0-0.01,0c0.01-2.37,0-4.74,0.05-7.11c0.02-0.74-0.32-0.83-0.93-0.82c-1.94,0.03-3.88-0.06-5.82,0.04
			c-1.1,0.06-1.33-0.33-1.29-1.34c0.08-1.94,0.01-3.88,0.03-5.82c0.01-0.58-0.13-0.86-0.79-0.85c-7.45,0.02-14.89,0.03-22.34,0.02
			c-0.61,0-0.84,0.18-0.83,0.81c0.04,2.41,0.04,4.82,0.05,7.23c-2.45-0.02-4.9-0.02-7.35-0.07c-0.73-0.01-0.72,0.4-0.71,0.91
			c0.01,2.02-0.04,4.04,0.03,6.05c0.03,0.86-0.27,1.06-1.08,1.04c-2.02-0.05-4.04,0.01-6.05-0.03c-0.66-0.01-0.9,0.18-0.9,0.86
			c0.02,7.4,0.02,14.79,0,22.19c0,0.75,0.26,0.94,0.97,0.92c2.02-0.04,4.04,0.01,6.05-0.03c0.77-0.01,1.04,0.27,1.03,1.05
			c-0.04,2.02,0.01,4.04-0.03,6.05c-0.02,0.74,0.22,0.94,0.95,0.93c2.37-0.03,4.74,0.02,7.11,0.04c0,0,0,0.01,0,0.01
			c0,0,0.01,0,0.01,0c-0.01,2.33,0,4.66-0.06,6.98c-0.02,0.74,0.21,0.95,0.93,0.93c1.86-0.05,3.72,0.04,5.58-0.04
			c1.13-0.05,1.62,0.17,1.53,1.46c-0.13,1.85,0,3.72-0.05,5.57c-0.02,0.76,0.19,1.03,0.99,1.01c2.33-0.05,4.66-0.01,6.99-0.01
			c0,0,0,0.01,0,0.01l0,0c0,0,0.01,0,0.01,0c0,2.25,0.05,4.51-0.04,6.75c-0.04,1.05,0.34,1.26,1.28,1.22
			c1.86-0.06,3.72,0.04,5.58-0.04c1.02-0.05,1.26,0.31,1.22,1.27c-0.07,1.9,0.02,3.8-0.04,5.7c-0.03,0.86,0.26,1.07,1.08,1.04
			c1.98-0.06,3.96,0.01,5.94-0.03c0.75-0.02,1.03,0.15,1.01,0.97c-0.06,1.98,0.02,3.96-0.04,5.94c-0.02,0.83,0.26,1.12,1.07,1.11
			c1.98-0.03,3.96-0.04,5.94,0c0.78,0.02,1.01-0.22,1-1.01c-0.05-2.33-0.01-4.66,0-7c0,0,0.01,0,0.01,0c0,0,0-0.01,0-0.01
			c2.25,0,4.5-0.03,6.76,0.03c0.9,0.03,1.24-0.19,1.21-1.16c-0.08-1.94,0.02-3.88-0.04-5.81c-0.03-0.86,0.27-1.07,1.08-1.04
			c1.98,0.05,3.96-0.01,5.94,0.03c0.72,0.01,1.06-0.13,1.03-0.97c-0.07-2.33-0.04-4.66-0.05-6.99c0,0,0.01,0,0.01,0
			c0,0,0-0.01,0-0.01c2.33-0.01,4.67-0.06,7-0.01c0.86,0.02,1.07-0.26,1.04-1.07c-0.06-1.98,0.02-3.96-0.04-5.94
			c-0.03-0.86,0.27-1.06,1.08-1.03c1.86,0.06,3.73-0.04,5.58,0.04c0.99,0.04,1.41-0.15,1.34-1.27c-0.11-1.89,0.01-3.8-0.05-5.7
			c-0.03-0.86,0.27-1.06,1.08-1.04c1.98,0.05,3.96-0.01,5.94,0.03c0.75,0.01,1.04-0.19,1.02-1c-0.05-2.33-0.01-4.66-0.01-6.99
			c0.01,0,0.01,0,0.02,0c0-0.01,0-0.01,0-0.02c2.32,0,4.65-0.03,6.97,0c0.69,0.01,0.98-0.14,0.98-0.91
			C257.79,89.98,257.79,82.59,257.8,75.21z"/>
		<path class="st3" d="M249.88,74.28c-2.34,0.01-4.67-0.02-7.01,0.04c-0.85,0.02-1.08-0.27-1.06-1.09c0.05-1.98,0-3.96,0.03-5.94
			c0.01-0.69-0.19-0.98-0.94-0.98c-7.32,0.03-14.65,0.04-21.97,0.03c-0.85,0-1.09,0.3-1.07,1.11c0.04,1.94-0.01,3.88,0.02,5.82
			c0.01,0.7-0.1,1.09-0.96,1.06c-2.33-0.07-4.67-0.04-7.01-0.05c-0.01,2.33-0.05,4.66-0.01,6.99c0.01,0.8-0.19,1.11-1.06,1.09
			c-1.97-0.06-3.95-0.06-5.93,0.01c-0.86,0.03-1.07-0.29-1.06-1.09c0.03-2.33-0.01-4.66-0.02-6.99c-2.33,0.01-4.67-0.01-7,0.05
			c-0.81,0.02-1.01-0.27-0.99-1.02c0.04-1.98,0-3.95,0.02-5.93c0.01-0.65-0.11-1.03-0.9-1.03c-7.67,0.04-15.34,0.06-23.01,0.08
			c-0.03,2.63-0.06,5.27-0.09,7.9c-2.29,0-4.58,0.01-6.87-0.02c-0.76-0.01-1.12,0.15-1.12,1.04c0.04,7.29,0.04,14.57,0.01,21.86
			c0,0.92,0.32,1.14,1.17,1.12c1.98-0.06,3.96,0.01,5.94-0.04c0.73-0.02,0.95,0.23,0.94,0.96c-0.03,2.37,0.01,4.75,0.02,7.13
			c2.37-0.01,4.74-0.01,7.1-0.05c0.67-0.01,0.89,0.23,0.88,0.89c-0.03,1.97,0.03,3.95-0.03,5.92c-0.03,0.87,0.21,1.18,1.12,1.15
			c1.97-0.07,3.95,0,5.92-0.04c0.73-0.01,0.95,0.23,0.94,0.95c-0.04,2.37-0.01,4.74-0.01,7.1c2.3,0,4.59,0.04,6.89-0.03
			c0.98-0.03,1.2,0.32,1.17,1.22c-0.06,1.86,0.04,3.72-0.04,5.58c-0.04,0.98,0.33,1.21,1.23,1.18c1.86-0.06,3.72,0.02,5.58-0.03
			c0.89-0.03,1.27,0.17,1.22,1.17c-0.09,1.9,0.01,3.8-0.04,5.7c-0.02,0.85,0.2,1.2,1.12,1.18c2.29-0.06,4.59-0.03,6.89-0.04
			c0-2.34,0.02-4.67-0.03-7.01c-0.02-0.8,0.26-1.02,1.02-1.01c1.98,0.04,3.96-0.02,5.94,0.03c0.79,0.02,1.03-0.26,1.01-1.03
			c-0.04-1.98,0.02-3.96-0.03-5.94c-0.02-0.79,0.24-1.02,1.01-1.01c2.34,0.05,4.67,0.03,7.01,0.04c0.01-2.33,0.05-4.66,0.01-6.99
			c-0.01-0.8,0.17-1.11,1.04-1.08c1.86,0.07,3.72-0.04,5.57,0.04c1.05,0.05,1.48-0.23,1.43-1.34c-0.07-1.85,0.04-3.72-0.05-5.57
			c-0.04-0.94,0.28-1.14,1.13-1.12c1.9,0.05,3.8-0.02,5.69,0.04c0.87,0.03,1.19-0.2,1.16-1.12c-0.07-1.93,0.02-3.87-0.03-5.81
			c-0.02-0.82,0.22-1.11,1.06-1.09c2.33,0.05,4.66,0.03,7,0.03C249.88,90.29,249.88,82.28,249.88,74.28z"/>
		<path class="st2" d="M241.94,74.28c-5.03-0.01-7.97-0.01-12.99-0.05c-0.75-0.01-0.94,0.29-0.93,0.98
			c0.03,2.02,0.05,4.04-0.01,6.05c-0.03,0.88,0.34,1.06,1.12,1.04c1.94-0.04,1.79,0.02,3.73-0.03c0.77-0.02,1.04,0.24,1.03,1.02
			c-0.04,1.98,0.01,2.67-0.02,4.65c-0.01,0.81,0.25,1.12,1.09,1.1c1.98-0.05,3.96-0.04,5.94,0c0.73,0.01,1.09-0.19,1.09-0.99
			c-0.03-5.02-0.04-8.76-0.05-13.79C241.93,74.27,241.94,74.28,241.94,74.28z"/>
	</g>
	<g>
		<path class="st0" d="M147.48,170.03c0-0.73-0.23-0.94-0.95-0.93c-2.32,0.04-4.65,0.01-6.97,0.01c0-0.01,0-0.01,0-0.02
			c-0.01,0-0.01,0-0.02,0c-0.01-2.33-0.05-4.66,0-6.98c0.02-0.81-0.26-1.02-1.01-1c-1.94,0.04-3.88-0.04-5.82,0.05
			c-1.03,0.05-1.26-0.31-1.23-1.27c0.07-1.94,0-3.88,0.03-5.82c0.01-0.64-0.13-0.9-0.85-0.9c-7.4,0.03-14.8,0.03-22.2,0.01
			c-0.74,0-0.95,0.23-0.94,0.95c0.04,2.02-0.03,4.04,0.03,6.05c0.02,0.81-0.26,1.01-1.01,0.99c-2.02-0.04-4.04,0-6.05-0.02
			c-0.61-0.01-0.94,0.1-0.93,0.83c0.05,2.37,0.04,4.74,0.05,7.11c0,0-0.01,0-0.01,0c0,0,0,0.01,0,0.01c-2.69,0-5.38,0-8.07,0.01
			c0,0,0-0.01,0-0.01c0,0-0.01,0-0.01,0c0.01-2.37,0-4.74,0.05-7.11c0.02-0.74-0.32-0.83-0.93-0.82c-1.94,0.03-3.88-0.06-5.82,0.04
			c-1.1,0.06-1.33-0.33-1.29-1.34c0.08-1.94,0.01-3.88,0.03-5.82c0.01-0.58-0.13-0.86-0.79-0.85c-7.45,0.02-14.89,0.03-22.34,0.02
			c-0.61,0-0.84,0.18-0.83,0.81c0.04,2.41,0.04,4.82,0.05,7.23c-2.45-0.02-4.9-0.02-7.35-0.07c-0.73-0.01-0.72,0.4-0.71,0.91
			c0.01,2.02-0.04,4.04,0.03,6.05c0.03,0.86-0.27,1.06-1.08,1.04c-2.02-0.05-4.04,0.01-6.05-0.03c-0.66-0.01-0.9,0.18-0.9,0.86
			c0.02,7.4,0.02,14.79,0,22.19c0,0.75,0.26,0.94,0.97,0.92c2.02-0.04,4.04,0.01,6.05-0.03c0.77-0.01,1.04,0.27,1.03,1.05
			c-0.04,2.02,0.01,4.04-0.03,6.05c-0.02,0.74,0.22,0.94,0.95,0.93c2.37-0.03,4.74,0.02,7.11,0.04c0,0,0,0.01,0,0.01
			c0,0,0.01,0,0.01,0c-0.01,2.33,0,4.66-0.06,6.98c-0.02,0.74,0.21,0.95,0.93,0.93c1.86-0.05,3.72,0.04,5.58-0.04
			c1.13-0.05,1.62,0.17,1.53,1.46c-0.13,1.85,0,3.72-0.05,5.57c-0.02,0.76,0.19,1.03,0.99,1.01c2.33-0.05,4.66-0.01,6.99-0.01
			c0,0,0,0.01,0,0.01l0,0c0,0,0.01,0,0.01,0c0,2.25,0.05,4.51-0.04,6.75c-0.04,1.05,0.34,1.26,1.28,1.22
			c1.86-0.06,3.72,0.04,5.58-0.04c1.02-0.05,1.26,0.31,1.22,1.27c-0.07,1.9,0.02,3.8-0.04,5.7c-0.03,0.86,0.26,1.07,1.08,1.04
			c1.98-0.06,3.96,0.01,5.94-0.03c0.75-0.02,1.03,0.15,1.01,0.97c-0.06,1.98,0.02,3.96-0.04,5.94c-0.02,0.83,0.26,1.12,1.07,1.11
			c1.98-0.03,3.96-0.04,5.94,0c0.78,0.02,1.01-0.22,1-1.01c-0.05-2.33-0.01-4.66,0-7c0,0,0.01,0,0.01,0c0,0,0-0.01,0-0.01
			c2.25,0,4.5-0.03,6.76,0.03c0.9,0.03,1.24-0.19,1.21-1.16c-0.08-1.94,0.02-3.88-0.04-5.81c-0.03-0.86,0.27-1.07,1.08-1.04
			c1.98,0.05,3.96-0.01,5.94,0.03c0.72,0.01,1.06-0.13,1.03-0.97c-0.07-2.33-0.04-4.66-0.05-6.99c0,0,0.01,0,0.01,0
			c0,0,0-0.01,0-0.01c2.33-0.01,4.67-0.06,7-0.01c0.86,0.02,1.07-0.26,1.04-1.07c-0.06-1.98,0.02-3.96-0.04-5.94
			c-0.03-0.86,0.27-1.06,1.08-1.03c1.86,0.06,3.73-0.04,5.58,0.04c0.99,0.04,1.41-0.15,1.34-1.27c-0.11-1.89,0.01-3.8-0.05-5.7
			c-0.03-0.86,0.27-1.06,1.08-1.04c1.98,0.05,3.96-0.01,5.94,0.03c0.75,0.01,1.04-0.19,1.02-1c-0.05-2.33-0.01-4.66-0.01-6.99
			c0.01,0,0.01,0,0.02,0c0-0.01,0-0.01,0-0.02c2.32,0,4.65-0.03,6.97,0c0.69,0.01,0.98-0.14,0.98-0.91
			C147.47,184.8,147.47,177.42,147.48,170.03z"/>
		<path class="st4" d="M139.55,169.1c-2.34,0.01-4.67-0.02-7.01,0.04c-0.85,0.02-1.08-0.27-1.06-1.09c0.05-1.98,0-3.96,0.03-5.94
			c0.01-0.69-0.19-0.98-0.94-0.98c-7.32,0.03-14.65,0.04-21.97,0.03c-0.85,0-1.09,0.3-1.07,1.11c0.04,1.94-0.01,3.88,0.02,5.82
			c0.01,0.7-0.1,1.09-0.96,1.06c-2.33-0.07-4.67-0.04-7.01-0.05c-0.01,2.33-0.05,4.66-0.01,6.99c0.01,0.8-0.19,1.11-1.06,1.09
			c-1.97-0.06-3.95-0.06-5.93,0.01c-0.86,0.03-1.07-0.29-1.06-1.09c0.03-2.33-0.01-4.66-0.02-6.99c-2.33,0.01-4.67-0.01-7,0.05
			c-0.81,0.02-1.01-0.27-0.99-1.02c0.04-1.98,0-3.95,0.02-5.93c0.01-0.65-0.11-1.03-0.9-1.03c-7.67,0.04-15.34,0.06-23.01,0.08
			c-0.03,2.63-0.06,5.27-0.09,7.9c-2.29,0-4.58,0.01-6.87-0.02c-0.76-0.01-1.12,0.15-1.12,1.04c0.04,7.29,0.04,14.57,0.01,21.86
			c0,0.92,0.32,1.14,1.17,1.12c1.98-0.06,3.96,0.01,5.94-0.04c0.73-0.02,0.95,0.23,0.94,0.96c-0.03,2.37,0.01,4.75,0.02,7.13
			c2.37-0.01,4.74-0.01,7.1-0.05c0.67-0.01,0.89,0.23,0.88,0.89c-0.03,1.97,0.03,3.95-0.03,5.92c-0.03,0.87,0.21,1.18,1.12,1.15
			c1.97-0.07,3.95,0,5.92-0.04c0.73-0.01,0.95,0.23,0.94,0.95c-0.04,2.37-0.01,4.74-0.01,7.1c2.3,0,4.59,0.04,6.89-0.03
			c0.98-0.03,1.2,0.32,1.17,1.22c-0.06,1.86,0.04,3.72-0.04,5.58c-0.04,0.98,0.33,1.21,1.23,1.18c1.86-0.06,3.72,0.02,5.58-0.03
			c0.89-0.03,1.27,0.17,1.22,1.17c-0.09,1.9,0.01,3.8-0.04,5.7c-0.02,0.85,0.2,1.2,1.12,1.18c2.29-0.06,4.59-0.03,6.89-0.04
			c0-2.34,0.02-4.67-0.03-7.01c-0.02-0.8,0.26-1.02,1.02-1.01c1.98,0.04,3.96-0.02,5.94,0.03c0.79,0.02,1.03-0.26,1.01-1.03
			c-0.04-1.98,0.02-3.96-0.03-5.94c-0.02-0.79,0.24-1.02,1.01-1.01c2.34,0.05,4.67,0.03,7.01,0.04c0.01-2.33,0.05-4.66,0.01-6.99
			c-0.01-0.8,0.17-1.11,1.04-1.08c1.86,0.07,3.72-0.04,5.57,0.04c1.05,0.05,1.48-0.23,1.43-1.34c-0.07-1.85,0.04-3.72-0.05-5.57
			c-0.04-0.94,0.28-1.14,1.13-1.12c1.9,0.05,3.8-0.02,5.69,0.04c0.87,0.03,1.19-0.2,1.16-1.12c-0.07-1.93,0.02-3.87-0.03-5.81
			c-0.02-0.82,0.22-1.11,1.06-1.09c2.33,0.05,4.66,0.03,7,0.03C139.55,185.11,139.55,177.1,139.55,169.1z"/>
		<path class="st2" d="M131.62,169.1c-5.03-0.01-7.97-0.01-12.99-0.05c-0.75-0.01-0.94,0.29-0.93,0.98
			c0.03,2.02,0.05,4.04-0.01,6.05c-0.03,0.88,0.34,1.06,1.12,1.04c1.94-0.04,1.79,0.02,3.73-0.03c0.77-0.02,1.04,0.24,1.03,1.02
			c-0.04,1.98,0.01,2.67-0.02,4.65c-0.01,0.81,0.25,1.12,1.09,1.1c1.98-0.05,3.96-0.04,5.94,0c0.73,0.01,1.09-0.19,1.09-0.99
			c-0.03-5.02-0.04-8.76-0.05-13.79C131.6,169.09,131.62,169.1,131.62,169.1z"/>
	</g>
	<g>
		<path class="st0" d="M257.8,170.03c0-0.73-0.23-0.94-0.95-0.93c-2.32,0.04-4.65,0.01-6.97,0.01c0-0.01,0-0.01,0-0.02
			c-0.01,0-0.01,0-0.02,0c-0.01-2.33-0.05-4.66,0-6.98c0.02-0.81-0.26-1.02-1.01-1c-1.94,0.04-3.88-0.04-5.82,0.05
			c-1.03,0.05-1.26-0.31-1.23-1.27c0.07-1.94,0-3.88,0.03-5.82c0.01-0.64-0.13-0.9-0.85-0.9c-7.4,0.03-14.8,0.03-22.2,0.01
			c-0.74,0-0.95,0.23-0.94,0.95c0.04,2.02-0.03,4.04,0.03,6.05c0.02,0.81-0.26,1.01-1.01,0.99c-2.02-0.04-4.04,0-6.05-0.02
			c-0.61-0.01-0.94,0.1-0.93,0.83c0.05,2.37,0.04,4.74,0.05,7.11c0,0-0.01,0-0.01,0c0,0,0,0.01,0,0.01c-2.69,0-5.38,0-8.07,0.01
			c0,0,0-0.01,0-0.01c0,0-0.01,0-0.01,0c0.01-2.37,0-4.74,0.05-7.11c0.02-0.74-0.32-0.83-0.93-0.82c-1.94,0.03-3.88-0.06-5.82,0.04
			c-1.1,0.06-1.33-0.33-1.29-1.34c0.08-1.94,0.01-3.88,0.03-5.82c0.01-0.58-0.13-0.86-0.79-0.85c-7.45,0.02-14.89,0.03-22.34,0.02
			c-0.61,0-0.84,0.18-0.83,0.81c0.04,2.41,0.04,4.82,0.05,7.23c-2.45-0.02-4.9-0.02-7.35-0.07c-0.73-0.01-0.72,0.4-0.71,0.91
			c0.01,2.02-0.04,4.04,0.03,6.05c0.03,0.86-0.27,1.06-1.08,1.04c-2.02-0.05-4.04,0.01-6.05-0.03c-0.66-0.01-0.9,0.18-0.9,0.86
			c0.02,7.4,0.02,14.79,0,22.19c0,0.75,0.26,0.94,0.97,0.92c2.02-0.04,4.04,0.01,6.05-0.03c0.77-0.01,1.04,0.27,1.03,1.05
			c-0.04,2.02,0.01,4.04-0.03,6.05c-0.02,0.74,0.22,0.94,0.95,0.93c2.37-0.03,4.74,0.02,7.11,0.04c0,0,0,0.01,0,0.01
			c0,0,0.01,0,0.01,0c-0.01,2.33,0,4.66-0.06,6.98c-0.02,0.74,0.21,0.95,0.93,0.93c1.86-0.05,3.72,0.04,5.58-0.04
			c1.13-0.05,1.62,0.17,1.53,1.46c-0.13,1.85,0,3.72-0.05,5.57c-0.02,0.76,0.19,1.03,0.99,1.01c2.33-0.05,4.66-0.01,6.99-0.01
			c0,0,0,0.01,0,0.01l0,0c0,0,0.01,0,0.01,0c0,2.25,0.05,4.51-0.04,6.75c-0.04,1.05,0.34,1.26,1.28,1.22
			c1.86-0.06,3.72,0.04,5.58-0.04c1.02-0.05,1.26,0.31,1.22,1.27c-0.07,1.9,0.02,3.8-0.04,5.7c-0.03,0.86,0.26,1.07,1.08,1.04
			c1.98-0.06,3.96,0.01,5.94-0.03c0.75-0.02,1.03,0.15,1.01,0.97c-0.06,1.98,0.02,3.96-0.04,5.94c-0.02,0.83,0.26,1.12,1.07,1.11
			c1.98-0.03,3.96-0.04,5.94,0c0.78,0.02,1.01-0.22,1-1.01c-0.05-2.33-0.01-4.66,0-7c0,0,0.01,0,0.01,0c0,0,0-0.01,0-0.01
			c2.25,0,4.5-0.03,6.76,0.03c0.9,0.03,1.24-0.19,1.21-1.16c-0.08-1.94,0.02-3.88-0.04-5.81c-0.03-0.86,0.27-1.07,1.08-1.04
			c1.98,0.05,3.96-0.01,5.94,0.03c0.72,0.01,1.06-0.13,1.03-0.97c-0.07-2.33-0.04-4.66-0.05-6.99c0,0,0.01,0,0.01,0
			c0,0,0-0.01,0-0.01c2.33-0.01,4.67-0.06,7-0.01c0.86,0.02,1.07-0.26,1.04-1.07c-0.06-1.98,0.02-3.96-0.04-5.94
			c-0.03-0.86,0.27-1.06,1.08-1.03c1.86,0.06,3.73-0.04,5.58,0.04c0.99,0.04,1.41-0.15,1.34-1.27c-0.11-1.89,0.01-3.8-0.05-5.7
			c-0.03-0.86,0.27-1.06,1.08-1.04c1.98,0.05,3.96-0.01,5.94,0.03c0.75,0.01,1.04-0.19,1.02-1c-0.05-2.33-0.01-4.66-0.01-6.99
			c0.01,0,0.01,0,0.02,0c0-0.01,0-0.01,0-0.02c2.32,0,4.65-0.03,6.97,0c0.69,0.01,0.98-0.14,0.98-0.91
			C257.79,184.8,257.79,177.42,257.8,170.03z"/>
		<path class="st5" d="M249.88,169.1c-2.34,0.01-4.67-0.02-7.01,0.04c-0.85,0.02-1.08-0.27-1.06-1.09c0.05-1.98,0-3.96,0.03-5.94
			c0.01-0.69-0.19-0.98-0.94-0.98c-7.32,0.03-14.65,0.04-21.97,0.03c-0.85,0-1.09,0.3-1.07,1.11c0.04,1.94-0.01,3.88,0.02,5.82
			c0.01,0.7-0.1,1.09-0.96,1.06c-2.33-0.07-4.67-0.04-7.01-0.05c-0.01,2.33-0.05,4.66-0.01,6.99c0.01,0.8-0.19,1.11-1.06,1.09
			c-1.97-0.06-3.95-0.06-5.93,0.01c-0.86,0.03-1.07-0.29-1.06-1.09c0.03-2.33-0.01-4.66-0.02-6.99c-2.33,0.01-4.67-0.01-7,0.05
			c-0.81,0.02-1.01-0.27-0.99-1.02c0.04-1.98,0-3.95,0.02-5.93c0.01-0.65-0.11-1.03-0.9-1.03c-7.67,0.04-15.34,0.06-23.01,0.08
			c-0.03,2.63-0.06,5.27-0.09,7.9c-2.29,0-4.58,0.01-6.87-0.02c-0.76-0.01-1.12,0.15-1.12,1.04c0.04,7.29,0.04,14.57,0.01,21.86
			c0,0.92,0.32,1.14,1.17,1.12c1.98-0.06,3.96,0.01,5.94-0.04c0.73-0.02,0.95,0.23,0.94,0.96c-0.03,2.37,0.01,4.75,0.02,7.13
			c2.37-0.01,4.74-0.01,7.1-0.05c0.67-0.01,0.89,0.23,0.88,0.89c-0.03,1.97,0.03,3.95-0.03,5.92c-0.03,0.87,0.21,1.18,1.12,1.15
			c1.97-0.07,3.95,0,5.92-0.04c0.73-0.01,0.95,0.23,0.94,0.95c-0.04,2.37-0.01,4.74-0.01,7.1c2.3,0,4.59,0.04,6.89-0.03
			c0.98-0.03,1.2,0.32,1.17,1.22c-0.06,1.86,0.04,3.72-0.04,5.58c-0.04,0.98,0.33,1.21,1.23,1.18c1.86-0.06,3.72,0.02,5.58-0.03
			c0.89-0.03,1.27,0.17,1.22,1.17c-0.09,1.9,0.01,3.8-0.04,5.7c-0.02,0.85,0.2,1.2,1.12,1.18c2.29-0.06,4.59-0.03,6.89-0.04
			c0-2.34,0.02-4.67-0.03-7.01c-0.02-0.8,0.26-1.02,1.02-1.01c1.98,0.04,3.96-0.02,5.94,0.03c0.79,0.02,1.03-0.26,1.01-1.03
			c-0.04-1.98,0.02-3.96-0.03-5.94c-0.02-0.79,0.24-1.02,1.01-1.01c2.34,0.05,4.67,0.03,7.01,0.04c0.01-2.33,0.05-4.66,0.01-6.99
			c-0.01-0.8,0.17-1.11,1.04-1.08c1.86,0.07,3.72-0.04,5.57,0.04c1.05,0.05,1.48-0.23,1.43-1.34c-0.07-1.85,0.04-3.72-0.05-5.57
			c-0.04-0.94,0.28-1.14,1.13-1.12c1.9,0.05,3.8-0.02,5.69,0.04c0.87,0.03,1.19-0.2,1.16-1.12c-0.07-1.93,0.02-3.87-0.03-5.81
			c-0.02-0.82,0.22-1.11,1.06-1.09c2.33,0.05,4.66,0.03,7,0.03C249.88,185.11,249.88,177.1,249.88,169.1z"/>
		<path class="st2" d="M241.94,169.1c-5.03-0.01-7.97-0.01-12.99-0.05c-0.75-0.01-0.94,0.29-0.93,0.98
			c0.03,2.02,0.05,4.04-0.01,6.05c-0.03,0.88,0.34,1.06,1.12,1.04c1.94-0.04,1.79,0.02,3.73-0.03c0.77-0.02,1.04,0.24,1.03,1.02
			c-0.04,1.98,0.01,2.67-0.02,4.65c-0.01,0.81,0.25,1.12,1.09,1.1c1.98-0.05,3.96-0.04,5.94,0c0.73,0.01,1.09-0.19,1.09-0.99
			c-0.03-5.02-0.04-8.76-0.05-13.79C241.93,169.09,241.94,169.1,241.94,169.1z"/>
	</g>
</g>
</svg>
