<?xml version="1.0" encoding="utf-8"?>
<!-- Generator: Adobe Illustrator 28.1.0, SVG Export Plug-In . SVG Version: 6.00 Build 0)  -->
<svg version="1.1" id="Layer_1" xmlns="http://www.w3.org/2000/svg" xmlns:xlink="http://www.w3.org/1999/xlink" x="0px" y="0px"
	 viewBox="0 0 864 864" style="enable-background:new 0 0 864 864;" xml:space="preserve">
<style type="text/css">
	.st0{fill:#232222;}
</style>
<g>
	<path class="st0" d="M729.9,734.2c-5.7-4-5,11.7-18.5,9.5c4.5-37.8-33.3-15.9-6.3,3.3c-13.8,19.6-31.7-8.1-11.5-17.7
		c1.5-1.3,0.7-4.3-1.6-4.1c-4.2,0.6-8.3,4.6-10.3,8.7c-5.8,13.2-19.9,29.8-31.5,11.2c5.9-9.8,12.4-19,19.6-27.9
		c1.8-16.7-20.7,19.7-22.5,22.6c-2.5-5.2-4.4-11.2-5.7-16.6c-0.7-2.7-0.1-5.3-3.2-5.6c-1,0-1.9,0.6-2.4,1.5
		c-4.9,8.6-8.8,27-22.1,24.6c4.5-37.8-33.3-15.9-6.3,3.3c-13.8,19.6-31.7-8.1-11.5-17.7c1.5-1.3,0.7-4.3-1.6-4.1
		c-4.2,0.6-8.3,4.6-10.3,8.7c-5.8,13.2-19.9,29.8-31.5,11.2c5.9-9.8,12.4-19,19.6-27.9c1.8-16.7-20.7,19.7-22.5,22.6
		c-2.5-5.2-4.4-11.2-5.7-16.6c-0.1-3.7-2.4-8-5.5-4.1c0,0-7.6,15.9-7.6,15.9c-0.2,0.3-0.3,0.7-0.3,1.1c-0.1,2.7,3.9,3.8,5,1.1
		c0,0,4.1-8.5,4.1-8.5c1.4,5.4,3.7,11.4,6.7,16.4c-2.1,3.9-4.9,7.8-6.3,12.1c3.2,8.3,7.6-4.2,9.5-7.2c8.9,13.4,25.3,9.5,32.7-3.2
		c2.7,14.9,24.5,14.9,29.8,1.8c13.2,3,21-9.4,25.1-19.9c1.4,5.4,3.7,11.4,6.7,16.4c-2.1,3.9-4.9,7.8-6.3,12.1
		c3.2,8.3,7.6-4.2,9.5-7.2c8.9,13.4,25.3,9.5,32.7-3.2c2.7,14.9,24.5,14.9,29.8,1.8c8.2,1.7,16.5-2.8,20.2-10.1
		C730.6,737.2,731.2,735.3,729.9,734.2z M609.1,742c-4-2.5-7.3-9.1-5.1-13.3C609.2,725.9,609.6,738.8,609.1,742z M706.6,742
		c-4-2.5-7.3-9.1-5.1-13.3C706.7,725.9,707.1,738.8,706.6,742z"/>
	<path class="st0" d="M218.9,684.9l-3.1-2c-10.1-6.4-21.2-12.1-32.8-18.1c-35.6-18.2-72.4-37.1-86.4-80l-0.1-0.3l0-0.1
		c-3.5-15-3.6-27.8,0-38.1c3.3-9.7,9.8-16.9,18.8-20.9c11.8-5.3,27.5-4.6,43.2,1.8c13.7,5.7,26.6,15.4,36.7,27.6
		c9.2-17.5,20.2-31.8,32-41.5c12.3-10.1,25.2-15.2,37.3-14.7c14.7,0.6,26.3,9.4,32,24.1l0,0c6.5,17.1,4.3,40.4-6.2,65.8
		c-12.5,30-35.5,61.5-68.5,93.7L218.9,684.9z M102.5,583c13.1,40.4,48.8,58.6,83.2,76.2c11.4,5.8,22.2,11.4,32.3,17.7
		c31.9-31.3,54.1-61.8,66.2-90.7c9.9-23.9,12.1-45.6,6.2-61.1l0,0c-4.7-12.3-14.3-19.6-26.4-20.1c-10.5-0.4-21.9,4.2-33,13.3
		c-12,9.9-23.3,25.1-32.6,43.8l-2.3,4.6l-3.1-4.1c-9.8-13.2-23-23.6-37.1-29.5c-14.1-5.8-28-6.5-38.2-1.9
		c-7.3,3.3-12.6,9.3-15.4,17.3C99.2,557.6,99.3,569.2,102.5,583z M286.2,526.7c-4.1-10.7-12-16.8-22.4-17.2
		c-3.1-0.1-6.4,0.3-9.9,1.3c-19,5.3-38.2,25.6-52.6,55.6l-4.5,9.4l-6-8.5c-9.5-13.5-22.5-24.1-36.6-29.9
		c-11.1-4.6-22.1-5.8-30.9-3.3c-1.3,0.4-2.6,0.8-3.8,1.4c-6.2,2.8-10.6,7.7-13,14.6c-2.9,8.3-2.8,19,0.2,31.9
		c12.6,38.5,47.4,56.3,81,73.5c10.4,5.3,20.3,10.4,29.6,16c29.7-29.6,51.3-59.6,62.7-86.8C289.5,561.7,291.7,541.1,286.2,526.7z
		 M137,603.6c-3.5,1-7.1-1.1-8.1-4.5s1.1-7.1,4.5-8.1c3.5-1,7.1,1.1,8.1,4.5S140.5,602.7,137,603.6z M127.9,563
		c-3.5,1-7.1-1.1-8.1-4.5c-1-3.5,1.1-7.1,4.5-8.1c3.5-1,7.1,1.1,8.1,4.5C133.4,558.4,131.4,562,127.9,563z M163.4,561.7
		c3.5-1,7.1,1.1,8.1,4.5c1,3.5-1.1,7.1-4.5,8.1c-3.5,1-7.1-1.1-8.1-4.5C157.9,566.3,159.9,562.7,163.4,561.7z M164.4,611.5
		c-1-3.5,1.1-7.1,4.5-8.1c3.5-1,7.1,1.1,8.1,4.5c1,3.5-1.1,7.1-4.5,8.1C169,617.1,165.4,615,164.4,611.5z M189.7,643.6
		c-3.5,1-7.1-1.1-8.1-4.5c-1-3.5,1.1-7.1,4.5-8.1c3.5-1,7.1,1.1,8.1,4.5S193.2,642.6,189.7,643.6z M222.3,656.6
		c-3.5,1-7.1-1.1-8.1-4.5s1.1-7.1,4.5-8.1c3.5-1,7.1,1.1,8.1,4.5C227.8,652,225.8,655.6,222.3,656.6z M216.4,611.4
		c-3.5,1-7.1-1.1-8.1-4.5c-1-3.5,1.1-7.1,4.5-8.1c3.5-1,7.1,1.1,8.1,4.5S219.9,610.4,216.4,611.4z M225.5,568
		c-3.5,1-7.1-1.1-8.1-4.5s1.1-7.1,4.5-8.1c3.5-1,7.1,1.1,8.1,4.5C231,563.4,229,567,225.5,568z M255.5,608.1c-3.5,1-7.1-1.1-8.1-4.5
		c-1-3.5,1.1-7.1,4.5-8.1c3.5-1,7.1,1.1,8.1,4.5C261,603.5,259,607.1,255.5,608.1z M245.1,528.4c-1-3.5,1.1-7.1,4.5-8.1
		c3.5-1,7.1,1.1,8.1,4.5c1,3.5-1.1,7.1-4.5,8.1C249.7,534,246.1,531.9,245.1,528.4z M271.8,560.1c-3.5,1-7.1-1.1-8.1-4.5
		s1.1-7.1,4.5-8.1s7.1,1.1,8.1,4.5S275.3,559.1,271.8,560.1z"/>
	<path class="st0" d="M776.7,539.4c-10.5-61.5-83.5-32-112.4,4c-24-59.8-107.4-80.6-109.1,2.7c2.8,64.2,59.4,94.8,96.5,136.9
		C713.4,647.7,775.9,603.9,776.7,539.4z M746.4,600.7c-20.5,26.1-51.9,51-93.3,73.9c-35.6-38.8-88.7-69.4-91.3-128.7
		c3-82.8,84.4-46.3,100.2,9.9C720.3,479.6,815.4,504.8,746.4,600.7z M746.8,539.5c4.2-3.9,8.5,3.5,8.8,7.5c3-3.1,7-5.8,9.9-5
		c0-1.7-0.3-3.4-0.6-5c-2.2,2.4-4.9,3.5-8.7,4.6c-7.3-8.7,0.3-20.6,2.6-7.3c1.5-1.1,3.5-2.1,4.8-2.2c-2.7-7.7-8.3-13.2-16.1-15.7
		c0.3,1.5,0.1,3.2-0.4,4.7c17.2-4.1,5.4,9.9-5.4,7.5c-0.6-4.4-2.7-9.2,0.2-13.4c-6.5-0.8-12.7,0-19.4,1.9c1.2,1.3,2,3.2,2.6,4.9
		c18.2-17.5,15,6.8-0.7,12.6c-4.1-4.3-9.9-7.9-10.6-14.3c-2,0.9-4.1,1.9-6.1,3c2.4,3.5,0.5,8.2-1.5,12.3c-3.6-1.2-8-1.4-10-5.2
		c-1.7,1.2-3.3,2.4-5,3.7c3,1.2,3.3,5.7,2.6,8.6c19.2-6.2,7.1,10.6-5.4,8.9c-1-4.5-3.4-9.1-1.7-13.9c-3.9,3.3-7.8,6.9-11.6,10.8
		c0.4,0.5,0.8,1.1,1.1,1.7c7.4-11.9,8.6,2.6,1.1,7.2c-2.1-1.5-4.6-2.7-6.2-4.8c-2.5,2.6-8.4,9.5-10.8,12.2
		c-2.7-7.7-5.9-17.3-9.9-24.3c-3,3.8-6.8,6.3-12.2,8.8c-15.2-13.9-4.2-32.9,2.3-12.6c1.5-1.6,3.5-3.3,5.2-4.1
		c-5.3-7.7-11.5-14.5-18.6-19.8c-0.6,2.1-2.1,4.1-3.8,5.6c23.5,7.2,0,15.6-11.7,5.1c2.2-5.5,3-12,8.6-15.4c-2.4-1.4-4.9-2.6-7.3-3.6
		c0.6,7.2-6.7,12.1-13.4,16.2c-4.7-4.8-13.3-10.7-9.8-18.4c-5.5,1.6-10.1,5-13.8,10.1c1.4,0.2,2.8,1.1,3.9,2.1
		c3.3-14.4,9.4-0.4,3.6,6.8c-3.5-1.2-7.8-1.3-9.9-4.9c-1.3,2.4-2.4,5.2-3.3,8.1c4.4-3.9,6.7,4.2,5.4,7.6c19.2-6.2,7.1,10.6-5.4,8.9
		c-0.6-2.5-1.6-5-2-7.6c-1,5.9-1.6,13.1-0.5,19.4c3.7-7.2,9.7,1.7,9,6.7c21-12.9,11.7,10.3-3.9,12.2c-0.5-0.9-1-1.9-1.5-2.8
		c0.5,1.6,1,3.1,1.6,4.6c3.6-1.4,7.6,1.8,9.6,4.8c10.1-22.5,15.5,1.9,3.6,12.2c-2.2-1.2-4.7-2.2-6.9-3.4c4.7,8.5,10.6,16.3,17,23.8
		c1.9-1.8,5.2-0.4,7,1.1c2.2-15.5,9.9-1.2,4.4,6.9c-1.6-0.4-3.4-0.6-5-0.9c14.6,15.5,31.9,29.9,46.8,44.8c0.3-2.4,1.3-5.1,2.8-8
		c4.3,1.4,10.6,2.1,11.7,7.5c2.5-1.5,4.9-2.9,7.3-4.4c-4.9-0.9-9-3.1-13.9-6.9c5.4-19.9,27.3-18.7,12.2-3.7c3.9,1.1,8.1,3.6,8.8,6.1
		c7.6-5,14.9-10,21.6-15.2c-0.6,0.1-1.1,0.1-1.7,0.2c-5.2-9.3,4.1-19.3,3.8-6.3c2.3-1.1,5-1.7,6.4-0.6
		c16.7-13.8,29.1-26.3,40.1-41.9c-4.6-0.4-8.9-2.1-13.9-5.2c3.1-20.4,24.9-21.8,11.7-5.1c2.6,0.5,5.5,1.4,7.2,2.6
		c6.5-10.9,10.5-21.5,11.8-31.1c-2.8,3.3-6.6,5.9-11.8,8.2C749.3,554.1,742,546.7,746.8,539.5z M747.6,561c2-2.9,5.5,0.9,6.3,3.2
		c9-11.9,8.8,3.6,0.5,7.8C751.2,569.3,745.8,566,747.6,561z M708.3,537.5c4-4.2,8.7,2.9,9.3,6.9c18-16.8,13.5,7.7-1.4,12.7
		C711.9,551.9,704.1,544.9,708.3,537.5z M717.8,584.6c-15.4-3.5,0.8-10,8.3-4.4c0.2,13-14.9,17.7-7.4,4.5L717.8,584.6z M704.5,598.5
		c0.3,23.4-14.5,2.8-9.3-10.3c20.1-4.6,29.4,15.3,9.1,9L704.5,598.5z M725.5,572.1c-2.7,1.8-6.4-0.2-8.6-2.4
		c-4.8,19.4-12.7,0.5-4.7-9.3C717.4,561.8,729.2,564.7,725.5,572.1z M695,560.3c1.9-1.4,4.8,0.1,6.4,1.7c3.3-14.4,9.4-0.4,3.6,6.8
		C701.2,567.9,692.4,565.8,695,560.3z M689.3,565.7c3.9,0.7,5.4,5.8,5.4,9.5c21-12.9,11.7,10.3-3.9,12.2
		C687.5,581.8,679.7,568.9,689.3,565.7z M625.2,616c-14.8,1.7-2.4-9.2,6-6.6c4.3,11.3-7.6,20.5-5.2,6.3L625.2,616z M602.9,563.4
		c-15.4-3.5,0.8-10,8.3-4.4c0.2,13-14.9,17.7-7.4,4.5L602.9,563.4z M608.2,579.4c2.1-1,4.9-1.1,7.3-0.7c-8.9-23,12.2-9.7,11.3,6
		c-5.8,1.7-11.6,5.3-17.9,2.7C604.7,585.7,603.7,581.3,608.2,579.4z M630.9,604.2c-11.5-9.7-1.6-29.5,4.8-9.2
		c19.1-15.5,12.9,8.7-2.3,12.6C632.6,606.4,631.8,605.3,630.9,604.2z M636.9,609.6c2.2-2.2,6.1-1,8.5,0.7c1-19.1,11.8-2.8,6.1,7.8
		C646.4,617.8,634.8,617.2,636.9,609.6z M652.8,598.1c-8.7-7.3-3.2-20.4,1.4-7.6C665.6,581.2,661.8,596,652.8,598.1z M657.6,599.3
		c4.6-6.1,8,2.1,5.5,6.4c18.9-3.1,5.2,10.9-6.3,7.6C656.4,608.7,654.6,603.7,657.6,599.3z M664.9,592.3c-3.2-9.2,8-7.1,10.8-1.3
		c10.1-22.5,15.5,1.9,3.6,12.2C674,600.3,667.5,598.7,664.9,592.3z M664.3,563c2-5.4,9.2-0.7,11.2,2.8c10.1-22.5,15.5,1.9,3.6,12.2
		C673.2,574.9,663.2,571.6,664.3,563z M658.7,568.2c4.4-1,4.4,5.6,3,8.5c18.9-3.1,5.2,10.9-6.3,7.6
		C654.8,579.1,652.7,571.2,658.7,568.2z M641.2,554c3.8-2.5,9-1,13.7,1c0.2,13-14.9,17.7-7.4,4.5C643.8,559.5,638,557.5,641.2,554z
		 M647.9,570.9c9.1,4.4-4,15.3-10.4,18.4c-16.2-12.8-6.5-32.5,1.4-12.7C641.4,573.5,645.4,570.6,647.9,570.9z M629.9,547.6
		c14.8,9.7,8.3,28.3-0.3,11.3C615,574.9,617.3,552.8,629.9,547.6z M610.7,532.1c0.8-5.9,6.2-1.7,6.2,2.2c11.4-9.3,7.7,5.5-1.4,7.6
		C613.5,538.9,610.4,536.2,610.7,532.1z M609,542.4c2.9-0.1,4.8,3.2,5.3,5.8c12.6-12.4,9.7,5.7-0.8,9.2
		C610.3,554,602.8,546.2,609,542.4z M589.1,546.1c-0.2,2.2-1.1,4.9-2.5,7.6c-11.1-0.4-15.1-14.2-3.6-6.8
		C583.1,540,589.7,538.2,589.1,546.1z M590.4,539.9c-2.7-4.9-0.3-11.2,2.5-16.8c16.8,1.4,19.8,19.9,4.9,9.6
		C597.4,537.2,594.4,544.1,590.4,539.9z M592.3,551.3c0.3-2.5,1.3-5.5,2.9-8.6c13,0.8,16.5,16.2,3.9,7.7
		C598.9,558.3,591.4,560.2,592.3,551.3z M599.4,596.6c0.5,9.9-14.4,14-6.8,1.7c-16.4-2.7-1.1-10.6,7.4-4.5
		C599.8,594.7,599.6,595.7,599.4,596.6z M601,577.8l-0.8-0.2c2.7,14.5-8.5,4.1-6-4.8C603.6,568.9,613.9,578.6,601,577.8z
		 M602.3,596.1c-0.9-8.2,7.9-4.3,9.1,1c12.6-16.5,12.2,4.7,0.6,10.7C608.3,604.3,603.2,601.8,602.3,596.1z M617.4,630
		c-10.2-5.1-7.9-19.2-0.5-7.8C625.9,610.4,625.7,625.9,617.4,630z M634.6,641.2c-14.6-3.5-14.6-25.6,0.1-10.4
		c10.1-22.5,15.5,1.9,3.6,12.2C637.2,642.4,635.9,641.8,634.6,641.2z M652.1,649.3c-0.2,2.2-1.1,4.9-2.5,7.6
		c-11.1-0.4-15.2-14.2-3.6-6.8C646.1,643.2,652.7,641.4,652.1,649.3z M663.9,635.9c-3.2,4.1-9.4,4.4-15.2,4
		c-5-14.5,9.6-24.3,6.3-7.6C659.1,630.9,666.1,630.9,663.9,635.9z M671.8,630.2c-15.3-1.4-18.2-18.8-4.3-8.9
		C672.4,602.8,679.6,621,671.8,630.2z M687.8,643.9c-1.1,2-3,4.1-5.5,6c-10.2-5.1-7.9-19.2-0.5-7.8
		C684.8,635.8,691.6,636.9,687.8,643.9z M695.7,625.5c-0.4,3.3-1.8,7.2-4.1,11.2c-18-1.9-20.4-21.5-5-10.2
		C687.2,616.2,697.1,613.9,695.7,625.5z M695.6,610.8c-2.3,3.2-6.1-1.2-6.9-3.8c-10.4,13-9.7-4.3-0.3-8.7
		C691.9,601.4,697.8,605.4,695.6,610.8z M714.7,616.6c-0.7,3.1-2.3,6.7-4.8,10.3c-16.9-3.2-18-22.3-3.9-10.2
		C707.2,607,716.9,605.6,714.7,616.6z M724.4,611.3c-3.2,5.8-7.2-0.8-5.6-4.9c-15.8,5.1-5.8-8.9,4.5-7.4
		C724.3,603.1,726.5,607.1,724.4,611.3z M740.2,590.7c7.5,3.1-2.5,12.4-7.4,15.2c-13.1-8.9-7.2-26,0.5-10.2
		C735.1,593.1,738.1,590.6,740.2,590.7z M741,565.7c-0.9,2.5-2.8,5.3-5.3,8c-13.3-4.5-12.5-21-2-9
		C736.1,556.7,744.3,556.8,741,565.7z M741,554.1c-1.5,1.7-3.8,3.2-6.7,4.5c-8.7-7.3-3.2-20.4,1.4-7.6
		C740,545.6,746.4,548.3,741,554.1z M745.2,535.7c0.5,9.9-14.4,14-6.8,1.7c-16.4-2.7-1.1-10.6,7.4-4.5
		C745.6,533.8,745.4,534.8,745.2,535.7z M701.9,528.4c-0.4-0.3-0.8-0.6-1.3-0.9c0.8-0.5,1.7-1.1,2.5-1.6c-0.3,0.8-0.5,2-0.6,3
		L701.9,528.4z M596.1,502.3c-0.3-0.2-0.6-0.4-0.9-0.6c3.9-0.3,7.7,0.2,11.8,1.3c-2.2,0.8-5,3.2-6.9,5.6
		C599.3,506.2,598,503.8,596.1,502.3z M656.6,663.8c0.9,0.8,1.8,1.3,2.8,1.6c-1.7,1-3.4,2-5.2,3c0.8-1.2,1.4-3.4,1.7-5.2
		L656.6,663.8z"/>
	<path class="st0" d="M360.4,535.4c-22.3-13.1-10.1-30.7-0.5-13.2C374.8,503.5,379,524.5,360.4,535.4z M332,559.7
		c-9.8-17.2,4.9-26.6,4.7-9.9C354.3,541.5,348.1,558.7,332,559.7z M337.8,591.4c-16.8-18.1-1.6-32.7,2.8-13.1
		C358.6,563.5,357.1,585.2,337.8,591.4z M353.7,609.7c-24.1-5.5-19.7-26.1-5.1-12.4C355.1,574.9,366.2,593.7,353.7,609.7z
		 M395.1,559.7c18.5,11,9.6,27.4,0.9,11.8C384.1,588.7,380.4,569.4,395.1,559.7z M402.8,624c5.7,14-6.5,20.4-4.7,7.1
		c-3.3,1.5-9.3,2.2-7.9-2.3C392.5,625,397.8,624.2,402.8,624z M379,636.9c-15.1,1.1-17.3-12.6-5.3-6.7c-0.4-3.6,0.8-9.5,4.6-6.8
		C381.3,626.8,380.4,632.1,379,636.9z M358.5,558.3c16.1,0.5,16.9,15.1,4.9,7.6c0.1,3.8-1.9,10-5.6,6.7
		C355,568.7,356.5,563.2,358.5,558.3z M368.7,610.9c0.7,16.1-13.8,18-7.3,5.5c-3.8,0.3-10.1-1.1-7.1-5.1
		C358.1,608.3,363.7,609.4,368.7,610.9z M376.8,573.5c0.7,16.1-13.8,18-7.3,5.5c-3.8,0.3-10.1-1.1-7.1-5.1
		C366.2,570.8,371.7,571.9,376.8,573.5z M379.1,571.6c-14.4-9.7-6.7-23-0.1-9.7c2.1-3.5,7.3-7.9,8.8-2.9
		C388,564.1,383.6,568.2,379.1,571.6z M407.3,602.4c-20.1-14.4-8.1-31.7,0.1-13.4C422.1,570.8,425.1,592.4,407.3,602.4z
		 M373.4,537.1c2.5-24.6,23.4-22.8,11.6-6.6C408.1,534.2,390.8,547.5,373.4,537.1z M403.8,561.1c-19-15.8-5.8-32.2,1-13.3
		C420.8,530.6,422.2,552.4,403.8,561.1z M404.9,621.8c-19-15.8-5.8-32.2,1-13.3C421.9,591.3,423.3,613.1,404.9,621.8z M379.5,555.3
		c-11-8.8-4-19.8,0.6-8c2-2.7,6.7-6,7.6-1.7C387.6,549.8,383.6,552.8,379.5,555.3z M350.6,570.6c-14.1-0.1-15.4-13.2-4.4-6.7
		c-0.1-3.4,1.5-8.9,4.9-6C353.5,561.3,352.3,566.2,350.6,570.6z M343.7,537.8c-14.1-0.1-15.4-13.2-4.4-6.7c-0.1-3.4,1.5-8.9,4.9-6
		C346.7,528.5,345.4,533.3,343.7,537.8z M491.9,536.6c-22.3-13.1-10.1-30.7-0.5-13.2C506.2,504.6,510.4,525.6,491.9,536.6z
		 M456.1,558c-9.8-17.2,4.9-26.6,4.7-9.9C478.5,539.8,472.3,557.1,456.1,558z M462.5,594.7c-16.8-18.1-1.6-32.7,2.8-13.1
		C483.4,566.8,481.9,588.5,462.5,594.7z M467.2,595.2c23.6-6.6,29.9,13.5,10.4,8.4C482.6,626.4,463.9,615.2,467.2,595.2z
		 M452.2,612.5c-24.1-5.5-19.7-26.1-5.1-12.4C453.7,577.7,464.7,596.4,452.2,612.5z M413.8,658.1c-24.1-5.5-19.7-26.1-5.1-12.4
		C415.3,623.3,426.3,642.1,413.8,658.1z M425.4,595.3c-6.8-17.3,8.2-24.4,5.8-8.6c4-1.8,11.3-2.5,9.6,2.9
		C437.9,594.2,431.5,595.1,425.4,595.3z M424.2,653.8c-6.8-17.3,8.2-24.4,5.8-8.6c4-1.8,11.3-2.5,9.6,2.9
		C436.8,652.7,430.3,653.6,424.2,653.8z M429.8,625.4c-6.8-17.3,8.2-24.4,5.8-8.6c4-1.8,11.3-2.5,9.6,2.9
		C442.3,624.3,435.9,625.2,429.8,625.4z M424.8,630.9c-18.4,2.9-22.1-13.3-7.2-7.5c-0.9-4.3-0.1-11.6,4.8-8.7
		C426.4,618.4,425.9,624.9,424.8,630.9z M447.3,641.3c-18.6-1-18.8-17.6-5.4-8.8c0-4.4,2.4-11.3,6.6-7.5
		C451.4,629.5,449.6,635.7,447.3,641.3z M468.6,646c-21.7-1.3-21.3-20.1-6.2-10.1C465,615,477.2,630.4,468.6,646z M449.5,586.3
		c-24.1-5.5-19.7-26.1-5.1-12.4C450.9,551.5,462,570.3,449.5,586.3z M434.1,665.1c5.4-24.1,26-19.9,12.3-5.2
		C468.9,666.3,450.2,677.5,434.1,665.1z M460.2,660.7c-13-6.1-8.6-18.5-1.3-8c1.3-3.2,5.1-7.5,7-3.5
		C466.8,653.4,463.6,657.3,460.2,660.7z M527,572.2c-13-6.1-8.6-18.5-1.3-8c1.3-3.2,5.1-7.5,7-3.5
		C533.6,564.8,530.4,568.8,527,572.2z M382.8,624.2c-18.5-8.9-11.4-25.3-1.8-11.1C390.9,595.7,395.9,613.8,382.8,624.2z
		 M390.6,646.8c-13-6.1-8.6-18.5-1.3-8c1.3-3.2,5.1-7.5,7-3.5C397.1,639.5,394,643.4,390.6,646.8z M395.7,598.6
		c-20.8,13.3-32.4-4.2-12.4-5C371.9,573.2,393,578.5,395.7,598.6z M482.1,564.5c19.6,0.7,19.9,18,5.9,9.2
		C485.8,592.9,474.5,578.7,482.1,564.5z M354.1,538.1c20.4,0.8,20.4,18.6,6,9.4C357.9,567.4,346.2,552.7,354.1,538.1z M429.2,669.6
		c16.1,0.5,16.9,15.1,4.9,7.6c0.1,3.8-1.9,10-5.6,6.7C425.7,680.1,427.3,674.6,429.2,669.6z M497.7,603.5c8,14-4,22.3-4,8.2
		c-3.2,2.1-9.5,3.6-8.7-1.3C487,606,492.4,604.4,497.7,603.5z M486.5,633.9c-20.6-3-18.8-21-5.1-10.2
		C485.6,603.9,496,619.8,486.5,633.9z M461.3,606.4c14.3,7.2,9,20.9,1.2,9c-1.6,3.5-5.9,8.2-7.9,3.7
		C453.7,614.4,457.4,610.1,461.3,606.4z M514.1,532.4c0.7,16.1-13.8,18-7.3,5.5c-3.8,0.3-10.1-1.1-7.1-5.1
		C503.4,529.8,509,530.8,514.1,532.4z M421.9,564.9c0.7,16.1-13.8,18-7.3,5.5c-3.8,0.3-10.1-1.1-7.1-5.1
		C411.2,562.2,416.8,563.3,421.9,564.9z M498.5,583.6c0.7,16.1-13.8,18-7.3,5.5c-3.8,0.3-10.1-1.1-7.1-5.1
		C487.8,581,493.4,582.1,498.5,583.6z M508.1,609.7c-16.5-10.2-8.3-25.2-0.6-10.7c2.2-4,7.7-9.1,9.7-3.6
		C517.7,601.1,513,605.8,508.1,609.7z M507.8,575.9c-16.6-5-13.2-20-3-9.2c1-4,4.6-9.7,7.6-5.4C514.2,566.1,511.2,571.3,507.8,575.9
		z M509.3,528.5c-7.3-15.5,6.1-23.3,4.9-8.3c3.6-1.9,10.3-3,9.1,2.1C520.9,526.7,515,527.9,509.3,528.5z M485.9,560.6
		c-20.1-14.4-8.1-31.7,0.1-13.4C500.6,529,503.6,550.6,485.9,560.6z M507.6,587.8c2.5-24.6,23.4-22.8,11.6-6.6
		C542.3,584.9,525,598.2,507.6,587.8z M524.6,559.4c-19-15.8-5.8-32.2,1-13.3C541.6,529,543,550.7,524.6,559.4z M504.8,560.3
		c-11-8.8-4-19.8,0.6-8c2-2.7,6.7-6,7.6-1.7C512.9,554.8,508.9,557.8,504.8,560.3z M424.1,609.9c-11-8.8-4-19.8,0.6-8
		c2-2.7,6.7-6,7.6-1.7C432.1,604.3,428.1,607.4,424.1,609.9z M445.3,565.3c-12.6-4.5-9.8-16.6-1.9-7.4c1-3.1,4.1-7.5,6.3-3.9
		C450.8,557.9,448.1,561.9,445.3,565.3z M475.4,647.7c-6.8-11.5,3.2-19,3.3-6.9c2.7-1.8,8-3.1,7.3,1
		C484.4,645.5,479.8,646.9,475.4,647.7z M475.3,574c-14.1-0.1-15.4-13.2-4.4-6.7c-0.1-3.4,1.5-8.9,4.9-6
		C478.3,564.7,477,569.5,475.3,574z M473.1,539.4c-14.1-0.1-15.4-13.2-4.4-6.7c-0.1-3.4,1.5-8.9,4.9-6
		C476.1,530.1,474.8,535,473.1,539.4z M426.9,671.4c-14.1-0.1-15.4-13.2-4.4-6.7c-0.1-3.4,1.5-8.9,4.9-6
		C429.8,662.1,428.6,667,426.9,671.4z M360.6,589.6c13-5.5,19.4,5.9,6.8,4.4c1.5,3.1,2.1,8.7-2.1,7.5
		C361.6,599.3,360.8,594.3,360.6,589.6z M525.8,540.5c-9.4-10.5-0.7-20.2,1.9-7.8c2.4-2.4,7.6-4.9,7.8-0.5
		C534.6,536.3,530.2,538.7,525.8,540.5z"/>
	<path class="st0" d="M772.8,352.8c-1.4-16-10.4-27.9-24.6-32.5c-11.7-3.8-25.7-2.4-40.6,4.1c-14.2,6.2-28.9,17.1-42.8,31.7
		c-6.5-14.8-16.4-27.9-28.2-37.2c-13.5-10.7-28.8-15.7-41.8-13.8c-9.9,1.4-18.2,6.7-24.2,15.3c-6.3,9.1-9.9,21.7-10.6,37.3l0,0.1
		l0,0.3c1.7,45.9,32.6,74.5,62.4,102.3c9.8,9.1,19,17.7,27.1,26.8l2.5,2.8l3.3-1.8c41.2-22.4,72.5-46.8,93.1-72.8
		C765.8,393.6,774.4,371.3,772.8,352.8z M743.4,411.5c-19.8,25-50.1,48.7-90,70.5c-8.1-9-17.1-17.4-26.7-26.3
		c-28.8-26.8-58.7-54.6-60.3-97.8c0.6-14.4,3.8-25.8,9.4-33.9c4.9-7.1,11.8-11.4,19.9-12.6c11.3-1.7,24.7,2.9,36.9,12.5
		c12.2,9.6,22.2,23.5,28.1,39.2l1.9,4.9l3.5-3.9c14.3-15.8,29.6-27.5,44.1-33.8c13.4-5.9,25.9-7.2,36-3.9c11.7,3.8,19,13.7,20.2,27
		C767.9,370.2,759.7,390.9,743.4,411.5z M761.8,353.8c1.4,15.7-6.4,35.2-22,54.9c-18.7,23.5-48.2,46.8-85.5,67.6
		c-7.6-8.1-15.8-15.8-24.5-23.9c-28.1-26.2-57.2-53.2-58.9-94.4c0.6-13.4,3.5-24,8.6-31.3c4.2-6.1,9.9-9.7,16.8-10.7
		c1.3-0.2,2.7-0.3,4.1-0.3c9.2,0,19.6,4.2,29.3,11.8c12.2,9.6,22,23.7,27.5,39.5l3.5,10l7-7.9c22.4-25.4,46.8-39.9,66.9-39.9
		c3.7,0,7,0.5,10.1,1.5C754.7,333.9,760.8,342.1,761.8,353.8z"/>
	<path class="st0" d="M541,346.2c-3-16.1-13.3-27.3-28.1-30.6c-12.2-2.8-26.3,0-40.8,8.1c-13.8,7.7-27.7,20.2-40.4,36.3
		c-8-14.4-19.3-26.7-32.2-35c-14.8-9.5-30.7-13.1-43.7-9.9c-9.9,2.4-17.8,8.6-23.1,17.9c-5.5,9.8-7.9,22.9-7.1,38.9l0,0.1l0,0.3
		c6.2,46.3,40.2,72.5,73.2,97.7c10.8,8.3,21,16.1,30.1,24.6l2.8,2.6l3.2-2.2c39.6-26.7,69-54.5,87.4-82.8
		C537.9,388.3,544.5,364.9,541,346.2z M516.9,408.7c-17.7,27.3-46.1,54.3-84.5,80.2c-9.1-8.3-19.1-16-29.6-24.1
		c-31.9-24.4-64.8-49.7-70.7-93.3c-0.7-14.7,1.4-26.5,6.3-35.3c4.3-7.6,10.9-12.7,18.9-14.7c11.3-2.8,25.4,0.5,38.6,9.1
		c13.3,8.6,24.8,21.7,32.3,37l2.4,4.8l3.2-4.3c13-17.4,27.3-30.7,41.4-38.6c13-7.3,25.5-9.8,36.2-7.4c12.2,2.7,20.6,12,23.1,25.4
		C537.8,364.4,531.5,386.2,516.9,408.7z M366.9,393.4c0.3,3.7-2.4,7.1-6.1,7.4c-3.7,0.3-7.1-2.4-7.4-6.1c-0.3-3.7,2.4-7.1,6.1-7.4
		C363.3,386.9,366.6,389.7,366.9,393.4z M351.7,351.5c-0.3-3.7,2.4-7.1,6.1-7.4c3.7-0.3,7.1,2.4,7.4,6.1c0.3,3.7-2.4,7.1-6.1,7.4
		C355.3,358,352,355.3,351.7,351.5z M389.4,370.4c-0.3-3.7,2.4-7.1,6.1-7.4c3.7-0.3,7.1,2.4,7.4,6.1c0.3,3.7-2.4,7.1-6.1,7.4
		C393,376.9,389.7,374.1,389.4,370.4z M400.8,412.8c0.3,3.7-2.4,7.1-6.1,7.4c-3.7,0.3-7.1-2.4-7.4-6.1c-0.3-3.7,2.4-7.1,6.1-7.4
		C397.1,406.3,400.4,409,400.8,412.8z M413.2,444c0.3,3.7-2.4,7.1-6.1,7.4c-3.7,0.3-7.1-2.4-7.4-6.1c-0.3-3.7,2.4-7.1,6.1-7.4
		C409.5,437.6,412.8,440.3,413.2,444z M444,463.4c0.3,3.7-2.4,7.1-6.1,7.4c-3.7,0.3-7.1-2.4-7.4-6.1c-0.3-3.7,2.4-7.1,6.1-7.4
		C440.3,456.9,443.7,459.7,444,463.4z M446.5,416.2c0.3,3.7-2.4,7.1-6.1,7.4c-3.7,0.3-7.1-2.4-7.4-6.1c-0.3-3.7,2.4-7.1,6.1-7.4
		C442.8,409.7,446.1,412.5,446.5,416.2z M463.9,373.6c0.3,3.7-2.4,7.1-6.1,7.4c-3.7,0.3-7.1-2.4-7.4-6.1c-0.3-3.7,2.4-7.1,6.1-7.4
		C460.2,367.1,463.5,369.9,463.9,373.6z M487,420.1c0.3,3.7-2.4,7.1-6.1,7.4c-3.7,0.3-7.1-2.4-7.4-6.1c-0.3-3.7,2.4-7.1,6.1-7.4
		C483.3,413.7,486.6,416.4,487,420.1z M498.6,343.1c0.3,3.7-2.4,7.1-6.1,7.4c-3.7,0.3-7.1-2.4-7.4-6.1c-0.3-3.7,2.4-7.1,6.1-7.4
		C495,336.6,498.3,339.3,498.6,343.1z M512.6,374.2c0.3,3.7-2.4,7.1-6.1,7.4c-3.7,0.3-7.1-2.4-7.4-6.1c-0.3-3.7,2.4-7.1,6.1-7.4
		C509,367.7,512.3,370.5,512.6,374.2z"/>
	<path class="st0" d="M300.9,335.4c-4.3-15.5-15.3-25.5-30.1-27.5c-12.2-1.6-25.7,2.3-39.2,11.4c-12.8,8.7-25.3,22.1-36.3,39
		c-9.1-13.4-21.2-24.4-34.5-31.4c-15.3-8-31.2-10.2-43.6-5.9c-9.4,3.2-16.7,9.9-21,19.4c-4.6,10.1-5.8,23.1-3.6,38.6l0,0.1l0.1,0.3
		c10,44.8,45.6,67.4,79.9,89.3c11.3,7.2,21.9,14,31.6,21.4l3,2.3l2.9-2.4c36.4-29.5,62.8-59.2,78.3-88.5
		C301.5,376.8,305.9,353.3,300.9,335.4z M282.7,398.5c-15,28.2-40.4,57-75.7,85.7c-9.6-7.3-20-14-31-21
		c-33.2-21.2-67.6-43-77.1-85.2c-2-14.3-0.9-26.1,3.1-35c3.6-7.8,9.5-13.4,17.2-16c10.8-3.7,24.9-1.7,38.6,5.5
		c13.8,7.2,26.1,19.1,34.8,33.4l2.7,4.5l2.7-4.4c11.2-18.1,24.1-32.4,37.2-41.3c12.1-8.2,24.1-11.8,34.7-10.4
		c12.2,1.6,21.2,10,24.8,22.9C299.3,353.5,295,375.3,282.7,398.5z M232.7,332.2l9.9,112.9c-3.7,4-7.7,8-11.8,12l-10-113.8
		C224.7,339.1,228.7,335.4,232.7,332.2z M192.7,375.3l8.7,99.2c-4.4-3.1-9-6.1-13.7-9.1L178,354.1c4.5,4.9,8.5,10.4,11.9,16.3
		L192.7,375.3z M212.6,352.9l9.8,112c-3.8,3.5-7.8,7-11.9,10.5l-9.3-105.9C204.9,363.5,208.7,357.9,212.6,352.9z M168.1,344.8
		l10,114.4c-4.5-2.9-9.1-5.8-13.6-8.8L154.5,336c0.4,0.2,0.8,0.4,1.1,0.6C160,338.9,164.2,341.6,168.1,344.8z M290.4,338.4
		c2.6,9.2,2,20.4-1.4,32.7l-3.8-43.4C287.4,330.7,289.2,334.2,290.4,338.4z M253.6,320.5l8.9,101.1c-3.6,4.8-7.4,9.5-11.6,14.3
		l-9.6-109.7C245.4,323.8,249.5,321.9,253.6,320.5z M275.5,320.4l6.2,70c-0.9,2-1.9,3.9-3,5.9c-2.4,4.5-5.1,9.1-8.2,13.7l-8-91.4
		c2.4-0.2,4.7-0.2,6.9,0.1C271.5,319.1,273.6,319.7,275.5,320.4z M145.1,332.1l9.8,111.8c-4.7-3.3-9.3-6.8-13.8-10.4l-9.1-103.8
		C136.2,329.9,140.6,330.7,145.1,332.1z M123.1,330.6l8.3,94.2c-5.3-5.1-10.1-10.7-14.3-16.7l-6.2-70.5c2.7-2.9,5.9-5,9.8-6.4
		C121.5,331,122.3,330.8,123.1,330.6z M103.3,354.5l2.8,32.4c-1.1-3.1-2-6.3-2.8-9.6C102.2,368.6,102.2,361,103.3,354.5z"/>
	<path class="st0" d="M652.2,302.7l-2.5-2.8c-8-8.9-17.1-17.3-26.7-26.3c-29.4-27.2-59.7-55.3-61.6-100.3l0-0.3l0-0.1
		c0.6-15.4,4.1-27.7,10.3-36.7c5.8-8.4,14-13.6,23.7-15.1c12.8-1.9,27.8,3,41.1,13.4c11.7,9.1,21.5,22,27.9,36.5
		c13.6-14.4,28.1-25.1,42-31.3c14.6-6.4,28.4-7.9,39.9-4.1c14,4.5,22.8,16.2,24.3,31.9l0,0c1.7,18.2-6.7,40.1-23.8,61.7
		c-20.1,25.5-50.8,49.7-91.2,71.7L652.2,302.7z M567.7,173.2c1.8,42.4,31.1,69.6,59.6,95.9c9.4,8.7,18.3,17,26.3,25.7
		c39.1-21.5,68.8-44.9,88.2-69.5c16-20.3,24-40.6,22.4-57.2l0,0c-1.2-13.1-8.5-22.8-20-26.5c-10-3.2-22.2-1.9-35.4,3.9
		c-14.3,6.3-29.2,17.8-43.2,33.4l-3.4,3.8l-1.8-4.8c-5.9-15.3-15.7-29-27.8-38.4c-12-9.4-25.2-13.8-36.3-12.1
		c-7.9,1.2-14.7,5.5-19.5,12.5C571.4,147.8,568.3,159,567.7,173.2z M759.8,168.5c-1.1-11.4-7.1-19.4-16.9-22.6c-3-1-6.3-1.5-9.9-1.5
		c-19.7,0-43.7,14.3-65.6,39.4l-6.9,7.8l-3.4-9.8c-5.5-15.5-15.1-29.3-27.2-38.7c-9.5-7.4-19.7-11.5-28.8-11.5
		c-1.4,0-2.8,0.1-4.1,0.3c-6.8,1-12.3,4.6-16.5,10.6c-5,7.2-7.8,17.5-8.4,30.8c1.8,40.5,30.4,67,58.1,92.6
		c8.6,7.9,16.7,15.5,24.2,23.4c36.6-20.5,65.5-43.5,83.8-66.7C753.6,203.1,761.2,183.9,759.8,168.5z M595.4,202.3
		c-3.6,0-6.6-2.9-6.6-6.6s2.9-6.6,6.6-6.6c3.6,0,6.6,2.9,6.6,6.6S599,202.3,595.4,202.3z M597.6,160.7c-3.6,0-6.6-2.9-6.6-6.6
		c0-3.6,2.9-6.6,6.6-6.6c3.6,0,6.6,2.9,6.6,6.6C604.1,157.8,601.2,160.7,597.6,160.7z M632.1,169.1c3.6,0,6.6,2.9,6.6,6.6
		c0,3.6-2.9,6.6-6.6,6.6c-3.6,0-6.6-2.9-6.6-6.6C625.5,172,628.5,169.1,632.1,169.1z M619.6,217.3c0-3.6,2.9-6.6,6.6-6.6
		c3.6,0,6.6,2.9,6.6,6.6c0,3.6-2.9,6.6-6.6,6.6C622.5,223.9,619.6,221,619.6,217.3z M635.3,255c-3.6,0-6.6-2.9-6.6-6.6
		c0-3.6,2.9-6.6,6.6-6.6s6.6,2.9,6.6,6.6C641.8,252.1,638.9,255,635.3,255z M663.2,276.4c-3.6,0-6.6-2.9-6.6-6.6s2.9-6.6,6.6-6.6
		c3.6,0,6.6,2.9,6.6,6.6S666.8,276.4,663.2,276.4z M669.7,231.3c-3.6,0-6.6-2.9-6.6-6.6s2.9-6.6,6.6-6.6c3.6,0,6.6,2.9,6.6,6.6
		S673.3,231.3,669.7,231.3z M690.2,191.9c-3.6,0-6.6-2.9-6.6-6.6s2.9-6.6,6.6-6.6c3.6,0,6.6,2.9,6.6,6.6S693.8,191.9,690.2,191.9z
		 M708.3,238.6c-3.6,0-6.6-2.9-6.6-6.6c0-3.6,2.9-6.6,6.6-6.6c3.6,0,6.6,2.9,6.6,6.6C714.8,235.7,711.9,238.6,708.3,238.6z
		 M719.7,159.1c0-3.6,2.9-6.6,6.6-6.6c3.6,0,6.6,2.9,6.6,6.6s-2.9,6.6-6.6,6.6C722.7,165.7,719.7,162.7,719.7,159.1z M737,196.8
		c-3.6,0-6.6-2.9-6.6-6.6s2.9-6.6,6.6-6.6c3.6,0,6.6,2.9,6.6,6.6S740.6,196.8,737,196.8z"/>
	<path class="st0" d="M302.4,131.6c-26.2-56.7-88.9-9.1-107.5,33.2c-38.8-51.5-124.7-49.8-104.6,31c19.4,61.2,82,76.1,128.8,107
		C269.5,252.6,318.5,194.1,302.4,131.6z M289.1,198.6c-13,30.6-36.8,62.7-70.8,95.6c-44.5-28.2-103.7-43.9-121.6-100.5
		c-19.3-80,70.2-66.8,99.3-16.6C232.4,88.6,330.7,88.1,289.1,198.6z M227.3,140.4c-0.5-0.2-1-0.4-1.5-0.5c0.7-0.7,1.3-1.5,2-2.2
		c-0.1,0.9,0,2.1,0.2,3L227.3,140.4z M118.3,142.9c-0.4-0.1-0.7-0.3-1.1-0.4c3.7-1.3,7.5-1.8,11.7-1.8c-1.9,1.3-4,4.4-5.2,7.2
		C122.5,145.8,120.6,143.8,118.3,142.9z M218.8,283c1,0.5,2.1,0.8,3.2,0.8c-1.4,1.4-2.8,2.8-4.2,4.2c0.5-1.4,0.5-3.6,0.2-5.5
		L218.8,283z M293.8,147.1c-1.7,3.3-4.8,6.8-8.7,10.1c-18.3-9.5-12.6-30.6-1.1-12.7c2.1-3.8,5.3-7.4,8.3-7.4
		c-0.5-1.6-1.1-3.2-1.9-4.6c-1.5,2.9-3.8,4.7-7.2,6.7c-9.3-6.5-5.1-20,0.6-7.7c1.1-1.5,2.8-3,4.1-3.4c-4.7-6.7-11.4-10.6-19.7-11
		c0.7,1.3,0.9,3.1,0.9,4.6c15.6-8.4,7.8,8.2-3.3,8.6c-1.7-4.1-5-8.2-3.3-13c-6.5,0.9-12.3,3.3-18.2,6.9c1.5,1,2.8,2.5,3.8,4.1
		c13.1-21.6,16.3,2.7,2.6,12.3c-5-3.1-11.6-5.1-13.9-11.1c-1.7,1.4-3.4,2.9-5.1,4.5c3.2,2.7,2.7,7.8,1.8,12.3
		c-3.7-0.2-8.1,0.8-11-2.4c-1.3,1.6-2.6,3.2-3.9,4.9c3.2,0.4,4.6,4.6,4.7,7.6c16.9-11,9.6,8.3-2.9,10c-2.2-4.1-5.7-7.9-5.2-12.9
		c-2.9,4.2-5.7,8.7-8.4,13.5c0.5,0.3,1.1,0.9,1.5,1.3c4-13.5,9,0.2,3,6.7c-2.4-1-5.1-1.4-7.2-3.1c-1.7,3.2-5.6,11.3-7.2,14.6
		c-4.6-6.7-10.2-15.1-15.9-20.8c-1.9,4.4-4.9,7.8-9.5,11.7c-18.3-9.5-12.6-30.6-1.1-12.7c1.1-1.9,2.6-4.1,3.9-5.3
		c-7.1-6.1-14.9-11-23.2-14.3c0,2.2-1,4.5-2.2,6.4c24.6,0.8,4.1,15-9.9,8c0.7-5.9-0.2-12.3,4.3-17.1c-2.7-0.7-5.4-1.3-8-1.6
		c2.5,6.8-3.3,13.5-8.7,19.2c-5.8-3.4-15.6-6.8-14.3-15.2c-4.9,3-8.5,7.5-10.7,13.3c1.4-0.2,3,0.3,4.3,1.1c-0.6-14.8,9-2.8,5.2,5.7
		c-3.7-0.2-7.8,0.7-10.9-2.2c-0.6,2.7-1,5.6-1.1,8.7c3.3-4.9,7.6,2.3,7.2,6c16.9-11,9.6,8.3-2.9,10c-1.2-2.3-2.8-4.4-3.9-6.8
		c0.5,6,1.9,13.1,4.5,18.8c1.6-7.9,9.9-0.9,10.4,4.2c16.9-17.9,14,6.9-0.6,12.8c-0.7-0.8-1.4-1.5-2.2-2.3c0.9,1.4,1.8,2.7,2.8,4.1
		c3.1-2.3,7.8-0.2,10.6,2.2c3.9-24.3,15.4-2.2,6.7,10.9c-2.4-0.6-5.1-0.9-7.6-1.5c6.8,6.9,14.5,13,22.7,18.5c1.3-2.3,4.9-1.8,7-0.8
		c-1.9-15.5,9.3-3.8,6.1,5.5c-1.7,0.1-3.4,0.3-5.1,0.4c18.2,11.2,38.6,20.5,56.9,31.1c-0.3-2.4-0.1-5.3,0.7-8.4
		c4.5,0.2,10.8-0.8,13.3,4.2c2-2.1,4-4.1,5.9-6.2c-5,0.5-9.5-0.7-15.2-3.1c0.1-20.6,21.5-25.2,10.8-6.8c4.1,0,8.8,1.3,10.1,3.6
		c6.1-6.8,11.7-13.6,16.9-20.3c-0.5,0.2-1.1,0.4-1.6,0.6c-7.4-7.6-1.1-19.7,2-7c1.9-1.6,4.4-2.9,6-2.2c12.5-17.7,21.3-33,27.8-50.9
		c-4.6,0.8-9.1,0.2-14.8-1.4c-2.4-20.5,18.4-27.6,9.9-8c2.6-0.2,5.7-0.1,7.6,0.6c3.4-12.2,4.5-23.5,3.3-33.1
		C294.1,146.5,294,146.8,293.8,147.1z M272.7,150.7c0.5,4-2.8,7.5-6.2,10.5c-10.3-4.8-8.4-18.9-0.7-7.7
		C267.3,150.6,271.2,146.7,272.7,150.7z M257.4,136c3-3.4,8.4-3.3,13.5-2.6c3.5,12.5-9.8,20.9-6,6.3
		C261.4,140.6,255.2,140.2,257.4,136z M235.9,147.5c2.7-5.1,9.2,0.5,10.8,4.2c13-20.9,15.1,3.9,2,12.6
		C243.1,160.5,233.7,155.9,235.9,147.5z M248.1,207.5c6.4,22.5-13.2,6.4-11.6-7.5c18.2-9.7,32.4,7.1,11.1,6.3L248.1,207.5z
		 M257.3,195.4c-0.3-1.5,0.2-3.4,0.9-4.9c-16.5,1.7-3.8-9.9,6-6.3c0,4.1,1.3,8.5-1.6,12.2C260.7,198.8,257.7,198.6,257.3,195.4z
		 M261.5,176.5c-2.1,2.4-6.3,1.5-8.9-0.1c0.4,20-12.1,3.8-7-7.7C251,168.6,263.2,168.4,261.5,176.5z M229,173
		c1.5-1.8,4.6-1.1,6.6-0.1c-0.6-14.8,9-2.8,5.2,5.7C236.9,178.8,227.9,179,229,173z M222.9,181.2c3.7-4.5,8.9,2.4,9.7,6.3
		c16.9-17.9,14,6.9-0.6,12.8C227.3,195.3,219,188.9,222.9,181.2z M200.9,181.4c3.1-2.5,7.9-0.4,10.7,2c3.9-24.3,15.4-2.2,6.7,10.9
		C211.9,193.2,197.1,190.8,200.9,181.4z M194.1,192.8c2.8-7.1,8.3-0.1,7,4.7c17.4-8,7.9,9.2-4.1,9
		C195.4,202.1,192.4,197.9,194.1,192.8z M210.9,224.7c16.9-6.5,5.6,10-5,9.5c-8.6-12.7,2.9-26,4.1-9L210.9,224.7z M191.1,209.9
		c1.9-3,5.5,0.7,6.3,3c8.6-12,8.8,3.3,0.7,7.7C194.9,218,189.4,214.8,191.1,209.9z M193.8,233.3c-2.8-17.9,11-3.4,8.2,6.9
		c-14.3,5.7-24.7-8.4-7.9-6L193.8,233.3z M192.1,217.3c0.8,6.7-4.6,12.5-10.3,17.4c-18.3-9.5-12.6-30.6-1.1-12.7
		C183.1,217.2,189.6,210.9,192.1,217.3z M189.1,205.4c-1.5,3.4-4.3,7.1-8,10.7c-19-8.1-14.8-29.7-2-12.6
		C182.9,192.6,194.3,193.4,189.1,205.4z M175.4,181c3-3.4,8.4-3.3,13.5-2.6c3.5,12.5-9.8,20.9-6,6.3
		C179.4,185.6,173.2,185.2,175.4,181z M162.8,177.7c16.8,5.5,15.4,25.2,2.7,11C155.5,208,152,186.1,162.8,177.7z M140.5,165.3
		c1.9-3,5.5,0.7,6.3,3c8.6-12,8.8,3.3,0.7,7.7C144.3,173.4,138.8,170.2,140.5,165.3z M140.1,179.5c1.9-3.7,6.6,0.3,7.8,2.9
		c9-15.2,10.9,3,1.6,9.1C145.5,188.7,138.7,185.5,140.1,179.5z M122.6,195c-11.1,2.5-18.2-9.8-5.2-5.7
		C116.7,174.6,126.3,186.5,122.6,195z M125.6,181.1c-7.5,0.3-6.2-11.4-4.9-17.4c16.6-3,24.3,14.1,7.2,8
		C128.4,175.6,128.2,179.7,125.6,181.1z M132.7,195.7c-6.4,2.6-5.9-9-4.6-13.6c12.8-2.6,20.1,11.3,5.8,6.5
		C134.3,191.3,134,194.5,132.7,195.7z M144.4,242.4c-4.4,5-6.9-2.3-4.4-5.9c-16.5,1.7-3.8-9.9,6-6.3
		C146,234.3,147.3,238.7,144.4,242.4z M147.9,212c-0.9,2.1-3.8,2.6-5.9,2.4c6.4,13.3-7.1,6.2-7.1-3.1
		C138.3,209.6,147.3,205.7,147.9,212z M146.2,205.8c-4.4,5-6.9-2.3-4.4-5.9c-16.5,1.7-3.8-9.9,6-6.3
		C147.8,197.7,149.1,202.1,146.2,205.8z M148.1,217.3c0.8-3.6,5.3-5.4,8.9-5.7c-14.6-19.8,9.3-12.5,12.5,2.8
		C164.5,218.2,151,227.4,148.1,217.3z M158,239c-12.3-2.4-13.1-21.2-0.2-8.7c7.8-19.2,13,1.4,3.4,10.2
		C160.3,240,159.2,239.5,158,239z M175.9,253.4c-0.6,2.2-1.8,4.7-3.7,7.2c-11.2-2.3-12.7-16.5-2.5-7.4
		C170.9,246.4,177.8,245.7,175.9,253.4z M176.8,245.5l0-0.9c-14.2,6.7-6.5-7.6,3.3-7.5C186.7,246.1,179.2,258.8,176.8,245.5z
		 M191.7,266.8c-15,0.4-20.8-20.9-2.6-10c3.9-24.3,15.4-2.2,6.7,10.9C194.6,267.4,193.2,267.1,191.7,266.8z M210.3,278.2
		c-11.1,2.5-18.2-9.8-5.2-5.7C204.5,257.8,214.1,269.7,210.3,278.2z M218.7,254.1c-2,4.8-7.9,6.7-13.6,7.8c-8.6-12.7,2.9-26,4.1-9
		C212.7,250.6,219.5,248.8,218.7,254.1z M224.8,246.6c-15.1,2.6-22.4-13.4-6.5-7.5C218.3,220,229.9,235.7,224.8,246.6z M225,218.6
		c-20.6-0.2-25-21.7-6.7-10.9C222.2,183.4,233.7,205.6,225,218.6z M228.2,219.4c0.7-2.4,2.2-5.2,4.4-7.9c12.6,3.1,13.4,18.8,2.5,8.3
		C233.5,227.4,225.8,228,228.2,219.4z M243.8,255.7c-0.6,2.2-1.8,4.7-3.7,7.2c-11.2-2.3-12.7-16.5-2.5-7.4
		C238.8,248.6,245.7,247.9,243.8,255.7z M245.7,247.7c-17.9,2.8-25.3-15.4-7.5-8.6C238.1,217.2,251.5,235.2,245.7,247.7z
		 M260.7,233.5c-17.1,1.3-23.1-16.8-6.4-8.8C256,203.7,267.3,222,260.7,233.5z M270.7,214.6c-1.6,6.5-7.2,1.1-6.7-3.2
		c-14,9-7.9-7.1,2.5-8.3C268.4,206.7,271.6,210,270.7,214.6z M274.5,196.4l0.6,0.9c9.4-17.4,12.2,2.6,2.2,10
		C263.6,202.8,262.5,184.9,274.5,196.4z M274.8,166.2c-0.3,2.7-1.3,5.8-3.1,9.1c-14-0.9-17.5-17.1-4.2-8.2
		C267.7,158.9,275.7,156.8,274.8,166.2z M293,161.7c-0.6,2.2-1.8,4.7-3.7,7.2c-11.2-2.3-12.7-16.5-2.5-7.4
		C288,154.6,294.9,153.9,293,161.7z"/>
	<path class="st0" d="M568.7,106.5c-0.1-1-0.8-1.9-1.8-2.3c-1.1-0.5-2.3-0.3-3.1,0.4l-26.2,3.2c-1.6,0.2-2.8,1.7-2.6,3.3
		c0.2,1.3,1.2,2.4,2.5,2.6c0.3,0,0.6,0.1,0.9,0l16.4-2l-31.3,20.9c-4.6-4.4-10.3-7.5-17.1-9c-12-2.6-25.8,0.3-39.9,8.3
		c-13.5,7.7-27,20.1-39.3,36c-8-14-19.2-26-32-34c-14.6-9.2-30.3-12.6-43-9.3c-9.7,2.5-17.4,8.6-22.5,17.7
		c-5.3,9.7-7.6,22.6-6.6,38.2l0,0.1l0,0.3c3.8,26.6,17,46.3,33.8,63L332,260.7l-22.4-3.7c-1.6-0.3-3.2,0.8-3.4,2.5
		c-0.3,1.6,0.8,3.2,2.5,3.4l16.1,2.7l-3.6,2.4c-0.4-0.3-0.9-0.6-1.5-0.7l-18.3-2.7c0,0,0,0,0,0c-1.6-0.2-3.1,0.9-3.4,2.5
		c-0.2,1.6,0.9,3.2,2.5,3.4l13.8,2l-5.9,4c-1.4,0.9-1.7,2.8-0.8,4.2c0.5,0.7,1.3,1.2,2.1,1.3c0.7,0.1,1.4,0,2.1-0.5l6.2-4.2l-3.5,16
		c-0.4,1.6,0.7,3.2,2.3,3.6c0.1,0,0.1,0,0.2,0c1.5,0.2,3-0.8,3.3-2.3l4.5-20.9c0.1-0.3,0.1-0.7,0-1l3.5-2.3l-4,19.6
		c-0.3,1.6,0.7,3.2,2.3,3.5c0.1,0,0.1,0,0.2,0c1.6,0.2,3-0.8,3.4-2.4l5.1-25.4c0-0.1,0.1-0.1,0.1-0.2l25.8-17.3
		c10.8,10,22.7,19,34.6,27.9c10.7,8,20.8,15.6,29.8,23.8l2.8,2.5l3.1-2.1c38.6-26.5,67.2-54.2,85-82.1c15-23.6,21.3-46.7,17.7-64.9
		c-1.2-6.3-3.6-11.7-6.9-16.2l30.6-20.5l-6,13.2c-0.7,1.4,0,3.1,1.6,3.8c0.2,0.1,0.5,0.2,0.8,0.2c1.3,0.2,2.6-0.4,3.2-1.6l10.3-22.5
		c0.8-0.6,1.3-1.6,1.2-2.7C568.8,106.9,568.7,106.7,568.7,106.5z M329.4,180.3c-0.9-14.4,1.1-26.1,5.8-34.7
		c4.2-7.5,10.5-12.6,18.4-14.6c11.1-2.8,24.9,0.3,38,8.5c13.2,8.3,24.6,21.1,32.1,36l2.4,4.7l3.1-4.2c12.6-17.2,26.5-30.4,40.3-38.3
		c12.7-7.2,25-9.9,35.4-7.6c5,1.1,9.3,3.3,12.9,6.4L362.2,240.5C345.8,224.4,333,205.5,329.4,180.3z M527.8,154.8
		c3.3,16.6-2.7,38-16.8,60.2c-17.1,26.9-44.8,53.7-82.1,79.5c-9-8.1-18.9-15.5-29.3-23.4c-11.3-8.5-22.6-17-32.9-26.5l155.2-103.8
		C524.7,144.7,526.8,149.4,527.8,154.8z"/>
</g>
</svg>
