<?xml version="1.0" encoding="utf-8"?>
<!-- Generator: Adobe Illustrator 26.0.1, SVG Export Plug-In . SVG Version: 6.00 Build 0)  -->
<svg version="1.1" id="Layer_1" xmlns="http://www.w3.org/2000/svg" xmlns:xlink="http://www.w3.org/1999/xlink" x="0px" y="0px"
	 viewBox="0 0 500 500" style="enable-background:new 0 0 500 500;" xml:space="preserve">
<style type="text/css">
	.st0{fill:#A4D5C3;}
	.st1{fill:#FFA6BC;}
	.st2{fill:#9DC5C9;}
	.st3{fill:#FFC700;}
	.st4{fill:#90C753;}
	.st5{fill:#E3ABDD;}
	.st6{fill:#FFFFFF;}
	.st7{fill:#919396;}
</style>
<path class="st4" d="M183.9,251.5c0.3,54.2,46,28.2,34.9-24.5C212.7,197.9,183.7,210,183.9,251.5z M201.8,274.2
	c-5.6-12.8-3.9-42.4,4.5-55.4C214.1,222.8,219,256.6,201.8,274.2z M156.2,212c0.6-0.1,22.5-0.1,22.3-0.1c2.8,0,4.2,1.5,4.3,3.2
	c0.1,4-5.7,3.5-11,3.5c-0.4,6.7-0.9,46.6-0.9,51.2c-0.1,6.7,2.6,9.2-1.6,10.6c-3.7,1.2-6.8-0.4-7.9-4.3c-4.4-15.2-5.4-30.7-3.1-46.4
	c2-13.6,3-10.1-2.3-11.4C151.9,217.3,152.4,212.6,156.2,212z"/>
<path class="st2" d="M471.5,117.8c1.9-11.7,6.4-24.1-4.8-26c0,0-82-15.4-153-22c-85.4-7.9-93.2-11.7-96,14.2
	c-0.5,4.7,3.1,3.5-47.3-5c-6.8-1.1-8.7,6.2-2.4,8.7c3.2,1.3,6.3,2.7,9.6,3.7c44,13.7,36.8,8,36.9,16.7c0,10-4.6,3.8,25.3,34.5
	c8.7,8.9,62.6,28.7,82.3,38.8c-3.9,11-7,22.1-17.5,34c-5.9,6.7-14.5,5.9-1.7,19.7c8.3,9,27.8,21.8,43.8,24.7
	c4.6,0.8,5.4,0.8,5.6,2.5c7.4,89.4,11.7,78-2.9,104.9c-3.5,6.3,0.3,10.2,7.9,21.4c0.8,1.2,12,2.4,22.8,3.3
	c-22.1,20.5-41.1,13.5-50.8-10.1c-7.3-17.8-4.5-31.4-1.5-63.2c5.2-54.5-18.4-62-32.9-51.9c-32.1,22.2-6.5,75.1-21.9,114.3
	c-19.4,49.3-109.6,52.8-156.8,45.7c-82.9-12.4-110.1-64-101.2-129c24.5,22,47.3-4.6,41.6-24c-5.1-17.4-27-22.4-43.6,9.2
	c-21.3-53,48-105.3,71.7-64.4c-6.5,4.5-9.5,11.8-9.6,17c-0.1,6.2,1.4,8.4,7.8,22l7.3-3.3c3,6.6,4.6,13.4,9.8,11.1
	c5.2-2.4,0.9-8.3-2-14.7l9-4.2c3,6.6,4.6,13.4,9.8,11.1c5.2-2.4,0.9-8.4-2-14.7l7.3-3.3c-4.7-10.4-9.5-26.4-24.9-25.2
	c-11.3,0.9-1.7,3.9-10.8-5.6c-37.4-39.1-105.4,29.5-77,81.3c1.2,2.1-1.1,5.9-2,15c-5,50.9,18.6,102.5,68.3,119.7
	c49.1,17,136.3,16.6,178.9-10.3c39.7-25.1,29.3-66.2,31.4-107.8c1.5-30,18.7-43.8,28.9-31.2c16.9,20.8-4.5,68.5,6.1,103.5
	c12,39.3,46.7,41.8,69.5,14c8.3,0.5,9,0.4,9.6,0.4c3.2-1,19.5-10.3,23.9-14c20.1-17.2,16.6-8.4,14-49.5
	c-2.9-45.5-9.2-103.9-9.3-111.6c-0.2-11.7,5-26.8,14.8-28.9c20.5,3.4,16.1,1.8,25.1-52.2l25.9,4.5l3.3-19.1L471.5,117.8z
	 M17.1,289.5c8.8-24,29.7-29.6,31.9-9.5c-0.8,11.4-9.7,22-20.6,18.9C23.7,297.6,16.3,291.7,17.1,289.5z"/>
<path class="st1" d="M248.1,265c-1.2-8.1-3.7-12.2-6.3-17.9c-8.2-18.3,5.8-29.2,12.1-16.2c2.2,4.5,1.8,9.1,3.2,9.9
	c11.3-14.9,23.6-4.9,21.1,4.8c-2.2,8.3-18.6,17.7-25.5,21.8C249.8,269,248.6,268.2,248.1,265z M96.2,106.9c1.7,3.7,2.8,0.5,9.9-8
	c6.3-7.4,9.4-9,10.9-17.1c1.1-5.7-5.1-12.3-12.5-8.6c-5.5,2.8-6.5,6.4-9.2,12.5c-1.1-2-1.9-3.8-2.9-5.5C88,73.1,78.5,70.1,76,78.2
	C71.4,92.9,92.1,98,96.2,106.9z"/>
<path class="st3" d="M213.9,121.5c0.4,2.2-4.3,62.5-4.4,62.7c-0.5,5.2-5.4,5.7-7.4,3c-1.1-1.5-24.1-46.3-25.8-49.1
	c-0.5,0.1-0.8-0.4-0.8,3.4c-0.6,48.7,1.4,50-6.3,48.9c-3.6-0.5-4.6-2.1-7.1-23.1c-1.7-14.2-1-30.9,4.3-44.3c1.4-3.6,6.1-7.1,9.4-1.8
	c3.1,5.2,25.9,51.7,27.7,51.2c3.8-49.5,3.5-49.8,4-51.3C208.6,117.5,213.2,117.8,213.9,121.5z M218.7,311.9c3.2-0.7,3.3-5.1,0-6.1
	c-1.6-0.5-15.9,0.4-17.3,0.5c-3.4,0.3-5.9,2-6.8,5.5c-5.4,20.4-4.4,42.3-1.3,60.8c0.5,3.2,2.1,4.5,5.1,4.2c3.2-0.3,4.3-1.5,4.3-4.8
	c0-12.3-1.1-10.5,4.3-11.2c4.1-0.5,8.5-0.1,8.4-3.9c-0.1-4-4.3-3.1-12.5-3.1l0.9-40.9C215,312.4,216.8,312.4,218.7,311.9z
	 M170.1,306c2.2,8.9,14.1,67.8,14,67.7c0.6,2.9,0.3,5.4-2.6,5.7c-3.6,0.4-3.8-3.1-5.8-11.4c-28.6,1.3-24.8-0.3-26.2,4.7
	c-0.9,3.2-3,4.6-6.3,4.1c-3.5-0.5-4.6-1.8-4.8-5.3C136.7,334.9,166,289.4,170.1,306z M174.4,360.7c-10.6-51.7-4.8-50.3-21.5,1
	C160.4,362.1,167.3,361.6,174.4,360.7z M112.3,139.1c2.1-15.3,3.8-19.7,10.3-20.5c28.8-3.6,46.7,28.9,12.7,57
	c9.6,2.7,11.7,3.2,13.4,4.1c3.3,1.8,1.5,6.2-1.7,6.1c-1.9-0.1-14.3-3.9-20.8-5.1c0.3,2.2,0.4,4,0.7,5.8c0.9,5.4-7.9,5.7-9.5-0.2
	C113.3,170.7,110.2,154.6,112.3,139.1z M127.6,171.5c27.8-13.5,23.6-49.5-2.1-45.7C125.5,130.1,124.5,173,127.6,171.5z M78.8,315.1
	c7.5,2.8,6.9-12.2-9.6-7.8c-28.7,7.7-21.6,64.5,2.1,68.4c7.5,1.2,16.7-6.3,12.9-10.3c-4.1-4.3-11.2,9.7-15.9,0.3
	c-6.3-12.6-7.1-36.9,2.5-50.2C73.2,312.2,75.8,313.9,78.8,315.1z M224,310c-0.2,3.4,3.2,3.4,6.7,4c-3.3,19.9-5,35.4,1.4,57.1
	c1.1,3.7,3.6,5.2,7.3,4.4c2.7-0.6,3.2-1.5,2.9-4.2c-0.9-6.5-0.8,1.1,0-54.4c0.1-5.5,0.7-1.9,8.6-3.8c3.7-0.9,3.4-5.4-0.1-6.2
	c-0.8-0.2,0.1-0.2-22-0.1C226.4,306.9,224.2,307.3,224,310z M114.2,362.4c9.9,2.8,11.7,3.2,13.5,4.2c2.9,1.6,1.5,5.9-1.5,5.9
	c-2.9,0-11.2-3-21.1-5.1c0.2,2.1,0.2,3.9,0.5,5.6c1,5.8-7.9,6-9.4,0c-5.1-20.3-8.6-40-2.3-61.1c4.5-14.9,44-6.3,38.1,24.4
	C129.4,349.7,121.6,356.2,114.2,362.4z M125.4,333.8c2.2-12.7-6.8-20.6-16.4-21.7c-5.1-0.6-5.8-3.5-4,46.3
	C110.8,358.1,122.9,348.2,125.4,333.8z M17.2,188.6c-9-27.3-7.9-70.2,9.9-72.2c28.7-3.3,50.6,23.2,18,50.4
	c18.6,12-3.2,25.9-21.9,26.1C19.5,192.9,18.3,191.9,17.2,188.6z M28.7,165.5c4.2,0.9,24.5-8.8,25.6-23.9
	c0.9-12.3-13.6-22.3-25.6-17.7V165.5z M28.6,184.5c7,0.4,14.4-3.6,16.7-8.9c-5.2-4.4-10.9-2-16.8-1.4
	C28.6,178,28.4,181.3,28.6,184.5z M67.2,159.7c-0.2-41.1,28.7-54,34.9-24.5C113.2,188.1,67.4,213.8,67.2,159.7z M85.2,182.2
	c15-14.9,13.7-50.6,4.3-55.2C80.5,141.7,79.9,172.2,85.2,182.2z"/>
<path class="st6" d="M104.3,226.8c-0.4-2.9-4.5-5-7.4-2c-2.2,2.2-2,4.1-2.3,7.5c-0.9-0.8-1.6-1.5-2.3-2.1c-3.3-2.8-8.3-2.6-8.2,1.7
	c0.2,7.8,11,6.8,14.4,10.4c1.4,1.5,1.4-0.2,3.4-5.4C103.7,232.2,104.9,230.9,104.3,226.8z"/>
</svg>
