<?xml version="1.0" encoding="utf-8"?>
<!-- Generator: Adobe Illustrator 23.0.2, SVG Export Plug-In . SVG Version: 6.00 Build 0)  -->
<svg version="1.1" id="Layer_1" xmlns="http://www.w3.org/2000/svg" xmlns:xlink="http://www.w3.org/1999/xlink" x="0px" y="0px"
	 viewBox="0 0 500 500" style="enable-background:new 0 0 500 500;" xml:space="preserve">
<g>
	<path d="M127.2,393.4c-1.2,0-1.8,0.3-3.9,1.1c-11.1-3.4-15.6-4.9-18.5-4.9c-9.7,0-17.9,16.1-18.9,16.1c0-31,8.8-38.2-9.6-34.4
		c-4.6,1-6.1,11.3-6.1,14.9c0,1.5,1.2,3.4,1.7,4.4c-0.7,10.2-1.3,18.7-1.8,25.9C64.5,427.1,52,447.6,45,450.9
		c-11.2-20,7.5-63,9.6-57.1c3.5,9.9,14.8-2.9,6.8-11.6c-17.5-18.8-36.9,26.4-36.9,56.5c0,28.3,18.7,39.2,44.7-1.5
		c-0.3,15,1.9,16.8,8.4,16.8c15.3,0,3.4-17.8,10.8-32.8c2.6-5.3,12.3-22.3,16.5-22.3c4.1,0,26.3,11.1,26.3-1.4
		C131.2,395.7,129.4,393.4,127.2,393.4z"/>
	<path d="M320.4,343.6c48.2-8.6,57-5.2,59.4-9.7c1.2-3.1-0.2-5-1.8-5.6c-10.4-3.5-68,8.4-68,6.9c0-33.6,13.7-58.1-7.7-48.5
		c-6.2,2.8-5.8,2.8-8,12.5c-0.4,1.9-9.9,41.9-11.8,42.3c-3.2,1.1-33.8,7.5-38.2,12.1c-2.1,2.5-1.1,5.7,1.1,6.8
		c1.6,0.9,2.8,0.4,4.2,0.4c8.2-0.6,3.8-2.6,10.1-4.4c2.7-0.8,18.4-4.9,20.3-4.9c0,0.5-14.5,51.4-29.4,74.2c-3.7,5.6-5.4,8.7-6.6,8.7
		c-4.5,0-8.8-35.5-9.3-40c-0.8-7-0.9-12-7-12c-8.4,0-9.1,6.2-10,6.2c-1.8,0-20.4-28.9-36.5,23.4c-20.7,32-26,40.9-30.1,23
		c-0.6-2.8-1.3-7.9-1.3-12.4c0.3-1,18.6-5.6,18.2-24.5c-0.5-20.6-36.6-21.7-36.6,23.5c0,30.8,16.1,55.5,44.9,15.5
		c-2,25,8.1,36.5,40.7-25.4c6.4-11.9-0.6,0.4,6.6,22.3c8.7,26.3,35.1,23.4,66.1-80.7c8.2-27.5-0.2,55.1,5.5,130.6
		c0.6,7.7-0.7,11,12.1,11c11.7,0,2.1-3,2.1-108.9c0-36.9,0-33.2,0.4-40.7C311.3,345.2,319.4,343.7,320.4,343.6z M155.7,394
		c2.2,0.7,3.1,3.9,3.1,6.1c0,7-7,12.5-8.3,12.5C149.2,406.2,154,395.1,155.7,394z M194.7,431c0-7.8,13.2-38.5,13.8-38.5
		c0.3,0,3.6,2.8,4.6,3.4C215.3,397.2,194.7,432.1,194.7,431z M293.6,338.8c0-0.3,0.6-1.4,0.7-1.4C294.3,340,293.6,338.9,293.6,338.8
		z"/>
	<path d="M332,363.7c10.4,5.3,16.4-14.4,3.5-14.4C328.8,349.3,324.3,359.7,332,363.7z"/>
	<path d="M417.4,373.3c-4.7,7.7-34.4,68.9-38.3,76.9c0-53.8,15.1-74.3-3.7-67.8c-6.4,2.2-6.5,1.2-9.5,34.1
		c-4.2,10.7-14.4,35.8-19.1,35.8c-3.6,0-5.8-17-5.8-28.2c0-19.9,2.5-24.4,2.5-29.7c0-6-17.3-7.1-17.3,5.2c0,0-0.3,14.2-0.3,22
		c0,46.7,18.5,57.8,38.3,21.6c-0.4,13.1-1.2,30,7.7,30c7.7,0,13.4-13.7,30-48.3c23.1-48.3,25.8-49.2,25.8-52.3
		C427.7,368.5,422.5,364.6,417.4,373.3z"/>
	<path d="M474.7,408.9c-0.8-1.5-2.6-2-4.5-2c-4.7,0.7-7.1,10.5-20.4,27.9c-8,10.4-11.8,14.4-15.1,0.3c-0.6-2.8-1.3-7.9-1.3-12.4
		c0.3-1,18.6-5.6,18.2-24.5c-0.5-20.6-36.6-21.7-36.6,23.5c0,20,11.1,71.5,56.3-2.3C474,415.2,476.8,411.7,474.7,408.9z M439.5,394
		c2.2,0.7,3.1,3.9,3.1,6.1c0,7-7,12.5-8.3,12.5C433,406.2,437.9,395.1,439.5,394z"/>
	<path d="M94.2,222c5.7,0,6-6,6.2-10.6c1-18.4,22.6-52.3,24.9-52.3c3.7,3.7-5.7,71.8,23.4,29.3c5.9-8.5,10.3-14.6,10.9-14.6
		c0.9,0.2,1.8,7.6,2.9,21.4c3.3,46.3,18,46.4,30.4,24.6c1.1-1.9,2.7-4.7,4.6-7.8c2.9,10,8.2,18.6,16.9,18.6c15.5,0,31.3-25.8,40-40
		c6.7,8.6,17.4,15.3,21.1,22.3c3.3,6.2-29.3,31.1-29.3,49c0,22.9,59.7,18.5,46.4-50c7.5-9.9,12.9-16.7,16.5-21.7
		c6.6,8.8,17.6,15.6,21.4,22.7c3.3,6.2-29.3,31.1-29.3,49c0,22.9,59.7,18.5,46.4-50c3.2-4.3,6.1-8,8.6-11.2
		c1.3,28.2,13.7,38.3,35.5,8.9c-2,12.7-7,78.8-7,112.5c0.2,5.5,4.9,10.3,9.4,10.3c12.8,0,3.3-10.2,20.8-148.8
		c1.1-8.6,2.7-20.9,2.7-27.4c-1-6.7-11.6-8.4-16.3-5.9c-3.2,1.7-3.7,5.3-6.2,31c-6.7,13.2-10.2,21.5-19.8,32.2
		c-2.4-9-1-43.1,2.4-52.9c1.8-5.2-0.6-9-9-8.1c-9.3,0.5-7.9,1.4-9.9,12.5c-1.1,6.5-2,12.7-2.4,18.5c-12.9,17.7-12.3,17.7-14,14.8
		c-5.4-10.2-29.5-17.3-15.2-33.9c5.8-6.8,6.6-6.3,8.4,1.1c0.7,2.9,0.2,16.4,0.9,18.1c0.9,3.5,5.4,4.5,7.4,2.4
		c2.2-2.2,1.9-19.7-0.2-26.3c-8.3-26.4-43.9-1.3-39.7,20.3c-15.4,20.2-14.4,21.8-16.6,18.3c-5.4-10.2-29.5-17.3-15.2-33.9
		c5.8-6.8,6.6-6.3,8.4,1.1c0.7,2.9,0.2,16.4,0.9,18.1c0.9,3.5,5.4,4.5,7.4,2.4c2.2-2.2,1.9-19.7-0.2-26.3
		c-8.3-26.3-43.7-1.5-39.7,20.1c-19.8,29.1-28,48.5-33.2,26c-0.7-3-1.4-8.5-1.4-13.4c0.3-1.1,20.1-6.1,19.6-26.5
		c-0.6-24.1-43.5-21.9-39.3,31.1c-16.5,33.1-10.6,4-17.9-24.3c-2.1-8.7-7.3-15.3-15.8-12.5c-8.3,2.8-13.1,11.2-19.2,19.8
		c-0.3-12.1,0.1-35.4-11.9-35.4c-8.5,0-16.9,11.9-21.3,19.2c-6.9,11.4-0.3-5.6-0.3-11.4c0-6.5-6.4-5.2-12.8-3.5
		c-4.2,1.1-6.1,3.5-6.1,8.1c0,5.2-6.4,38.4-6.4,55C83.4,218.9,83.9,222,94.2,222z M332.7,230.4c0.6,0.6-1.2,8-2.3,11.2
		c-5,15.1-16.4,20.7-18.2,20.7C305.3,262.3,331.8,230.4,332.7,230.4z M277.8,230.4c0.6,0.6-1.2,8-2.3,11.2
		c-5,15.1-16.4,20.7-18.2,20.7C250.3,262.3,277,230.4,277.8,230.4z M221.1,161.5c2.4,0.7,3.3,4.2,3.3,6.5c0,7.5-7.6,13.5-9,13.5
		C214.1,174.6,219.3,162.7,221.1,161.5z"/>
	<path d="M110.9,117.4c-1.4-102.9,0.5-95.1-2.8-96.6c-2.9-1.2-6.5-1.2-9.3,0s-2.8-6.3-1.4,96.6C97.4,122.2,110.9,122.1,110.9,117.4z
		"/>
	<path d="M127.2,44c3.9-15.5,4.5-16.3,0.6-17.2c-12.6-2.9-11.2,3.7-14.2,17.2C112.8,48,125.8,49.5,127.2,44z"/>
	<path d="M150.3,111.5c-1.8-18-3.2-36-3.4-54.1c4.5,13.2,9.4,26.3,14.6,39.3c1.1,3.7,11.8,3.8,13,0c4.1-13.2,9-26.2,13.9-39.2
		c1,19.3,2.9,38.4,5.5,57.5c0.4,5,13.9,4.8,13.5,0c-10.5-75.2-2.9-89.3-8.4-91.7c-3.1-1.4-10.4-1.1-11.3,1.7
		c-7.3,17.1-14,34.4-20.1,51.8c-19.5-53.1-14.9-52.2-21.8-53c-4.1-0.4-9.3,1.5-10.2,2c-4.9,2.6,0.5,78.5,1.2,85.6
		C137.2,116.6,150.8,116.2,150.3,111.5z"/>
	<path d="M262.5,117.6c5.2-2.3-1.1-5.3,1.3-64.9c9.1,23.5,16.6,38,28.7,60.9c1.9,3.7,13.2,3.2,13.2-1c-4.4-79.5,4.1-86.8-1.7-89.3
		c-3.7-1.6-11.4-0.9-11.4,2.7c-1.3,19.3-1.8,38.7-1.4,58.2c-24.1-52.8-21.7-61.7-33.6-61.7c-2.4,0-5.8,0.9-5.8,3.5
		c-2.3,29.7-2.5,59.3-0.8,88.9C251,118.8,258.9,119.3,262.5,117.6z"/>
	<path d="M323,114.1c41.1,22.8,50.8-82.4,16.8-89.4c-19.3-4-25.7,15.1-28.7,34.3C307.6,80.4,305.9,104.7,323,114.1z M335,31.5
		c13.9,5.6,17.7,63.8-1.1,78C314.8,103.8,322.4,44.9,335,31.5z"/>
	<path d="M358,30.3c31,2.3,12.6-25.4,22.5,87.3c0.3,3.8,8.2,4,11.7,2.5c5.8-2.5-3.8-17.8-1.3-92.1c15.2-1.3,26.6-0.5,24.5-5.8
		c-1-2.3-3.8-2.4-8.3-2.4c-51.8,4.2-48.3,3.4-51.6,5.1C352.7,26.4,354.2,30,358,30.3z"/>
	<path d="M115.9,259.8c-2.8,1.2-2.8-6.3-1.4,96.6c0.1,4.8,13.6,4.6,13.5,0c-1.4-102.9,0.5-95.1-2.8-96.6
		C122.3,258.5,118.7,258.6,115.9,259.8z"/>
	<path d="M130.8,283c-0.9,3.9,12.2,5.4,13.5,0c3.9-15.5,4.5-16.3,0.6-17.2C132.4,262.9,133.7,269.5,130.8,283z"/>
	<path d="M191.7,335.6c4.1-13.2,9-26.2,13.9-39.2c1,19.3,2.9,38.4,5.5,57.5c0.4,5,13.9,4.8,13.5,0c-10.5-75.2-2.9-89.3-8.4-91.7
		c-3.1-1.4-10.4-1.1-11.3,1.7c-7.3,17.1-14,34.4-20.1,51.8c-19.5-53.1-14.9-52.2-21.8-53c-4.1-0.4-9.3,1.5-10.2,2
		c-4.9,2.6,0.5,78.5,1.2,85.6c0.5,5.1,14,4.7,13.5,0c-1.8-18-3.2-36-3.4-54.1c4.5,13.2,9.4,26.3,14.6,39.3
		C179.8,339.4,190.5,339.4,191.7,335.6z"/>
	<path d="M452.8,51.2c2.3-9.8,5.4-18.2-5.9-31.9c-2.7-3.3-6.2-7.1-5.5-11.2c1.8-10.1-25,14.7-7.2,46.1c8.3,14.7,3.3,7.1,3.2,13.3
		c0,1.3-0.8-9.9,3.9,69.5c0.2,3.3,1.9,1.3,1.8,5.6c-0.3,29.6-0.6,33.5,1.2,43.8c23.7,138.3,22,200.4,29.2,199
		c5.9-1.1-2-17.2-6.8-180.5c-0.9-29.8,2.3-18.7-7-64.6c-0.6-2.8,1.2-2.2,0.6-4.6c-7.2-67-6.9-64.4-7.4-67.8
		C450.7,57.9,448.8,68.6,452.8,51.2z M455.3,137.1c-15.6,4.8-8.6,1.1-14.3-59.3c-1.1-11.4-0.6-10.5,1.6-10.9
		c10.9-1.8,4-4.9,13.9,68.2C456.7,136.2,456.3,136.8,455.3,137.1z"/>
	<path d="M73.6,53.8C58.8-10.8,63.9-10,42,48.6C39.8,54.5,25.4,296.9,29,302c0.6,0.9,1.2,0.5,0.1,2.6c-0.6,1.1-1.9,3.8-1.9,5
		c-0.4,25.8,4.4,19.6-0.3,27c-2.7,4.2,1.7,5,0.3,7.2c-0.5,0.9-1.5,3.5-0.6,3.9c1.7,0.8,1.4,2.4,1.2,4.8c-0.6,12.6-3.3,16.2,11,18.6
		c7.1,1.2,19.3-1.4,18.8-8.3c-0.1-0.8,0-6.3-0.2-11.2c-0.1-2.7,3.3-0.7,2.2-3.6c-0.4-1.1-1.4-1.6-0.4-3.4c2.4-4.4,0.2-4.7-0.1-8
		c-0.2-2.1,6.9-21.3,3-30.2c-1.2-2.8,0.3-1.8,1.1-5.2C65.7,291,62,289,63,286.4C63,286.3,73.6,53.9,73.6,53.8z M46,46.4
		c0.3-1.1,0.6-1.4,6-14.9c3.7-9.3,3.1-10.6,7.9-10.6c2.5,0.1,2.6,0.4,4.2,7.7c4.6,21.8,4.8,20.9,3.6,21.9c-2.4,1.8-2.1,3.3-3.1,1.9
		c-2.5-3.6-4.7-6.5-7.6-3.1c-3.7,4.4-3.7,4.6-4.4,3.4C47.3,43.2,45,49.6,46,46.4z M60.5,52c3.5,4.9,2.9,4,2.5,10.6
		c-2.6-0.1-10.1,226.5-14,227.3c-2.7,0.5-7.4,0.8-7.4-2C41.6,284.4,49.2,35.8,60.5,52z M31.8,279.6c10.7-159.4,8.2-241,16.4-228
		c3.3,5.2,3.1,5.2,3,6.5C43.2,148.4,38.8,284,38,287.5C35.1,285.9,31.6,282.8,31.8,279.6z M54,364c-0.9,2.5-7.3,4.8-12.3,4.3
		c-13.9-0.4-10.9-9.2-10.6-16c0-1.1,0.8-1,2.2-0.6c15,4.5,20.7-2.5,20.7,1.9C54,363.7,54.3,363.2,54,364z M57.2,348.4
		c-1.2,3.9-31.5,2.7-27.9-2.3c2.7-5.8-3-0.5,26.4-1.5C56.5,344.6,57.2,348.2,57.2,348.4z M41,342c-16.2-0.9-12.1-2.9-9.6-7.5
		c1.6-2.9,7.3,3.7,22.9,0.4c1.4-0.3,1.5,0.3,3.2,4C59.3,342.9,54.6,342.8,41,342z M60.4,311.9c0,0.1-1.7,17.7-3.7,19
		c-3.4,2.6-14.4,1.5-17.6,1.2c-7.3-0.8-8-2.6-8.3-5.7c-1.7-20.7-0.1-17.4,2.1-22.3c0.1-0.1,0.5-0.2,0.8-0.1c3.2,1.1,1.8-0.5,1.2,4.3
		c-0.4,3.3-1.7,19.1,1.8,18.2c3.1-0.8,3.5-17.5,2.9-21c8.8,1.6,1.8-2.5,3.5,14c0.6,5.8,5.2,5.9,5.7-6.1c0.3-9.1-2.5-6.4,3.2-7
		c-0.7,2.3-1.3,12,0,14.4c2.1,4,5.1-2,4.6-13.1c-0.1-2.2-0.4-2-0.2-2c1.5-0.3,1.9-0.3,2.4,0.8C59.6,308.2,60.5,310,60.4,311.9z
		 M40.1,302.2c-7.6-1.3-9.6-0.9-8.9-10.7c0.1-1.2,0.5-1.4,1.7-1c19.8,6.2,27-0.8,27.5,2.3C62.4,304.6,52.1,304,40.1,302.2z
		 M58.9,282.8c-0.2,2-2.5,3.4-3.7,4.4c-0.8,0.7-1.3,1.5-1.2-0.6c3.5-49.7,9.1-227.2,15.3-233.1C70.1,55,58.9,282.6,58.9,282.8z"/>
</g>
</svg>
