<?xml version="1.0" encoding="utf-8"?>
<!-- Generator: Adobe Illustrator 24.2.3, SVG Export Plug-In . SVG Version: 6.00 Build 0)  -->
<svg version="1.1" id="Layer_1" xmlns="http://www.w3.org/2000/svg" xmlns:xlink="http://www.w3.org/1999/xlink" x="0px" y="0px"
	 viewBox="0 0 630.9 615.7" style="enable-background:new 0 0 630.9 615.7;" xml:space="preserve">
<g id="l1bYtD_1_">
	<g>
		<path d="M17.8,305.1c0.2-3.6,0.3-10.1,1.7-16.5c1.3-5.8,3.6-11.3,7.3-16.1c2.5-3.2,5.5-5.6,9.3-7.2c8.8-3.5,17.5-7.1,26.3-10.6
			c6.1-2.4,12.3-4.6,18.4-7c2.6-1,5.1-0.7,7.6,0.2c7.4,2.7,14.2,6.5,20.5,11.1c5.1,3.7,9.5,8.1,13.4,13
			c8.8,10.9,15.7,22.9,20.6,36.1c3.8,10.2,6.5,20.6,8.8,31.2c2.3,10.8,5,21.5,8.3,32c0.2,0.7,0.6,1.3,0.9,2c0.5-0.5,1-1,1.5-1.5
			c0.6-0.6,1.4-1.2,1.5-1.9c0.1-0.6-0.8-1.3-1.2-1.9c-2.3-3.8-3.6-7.9-3.1-12.4c0.3-2.5,1.3-4.6,3.1-6.2c1.1-1,2.3-1.9,3.4-2.8
			c1.2-1,1.2-1.3,0.1-2.2c-4.1-3.2-5.8-7.4-5.8-12.4c0-0.1,0-0.1,0-0.2c-0.7-6.5,2.5-11.1,7.6-14.6c2-1.4,2.9-3,3.3-5.3
			c0.8-4.9,1.9-9.7,2.8-14.5c0.4-2.2,0.6-4.5,1.1-6.7c1.4-5.8,2.9-11.5,4.4-17.3c0.5-2,1-3.9,1.6-5.9c0.5-1.6,1.1-3.2,1.8-4.8
			c0.4-1,0.2-1.6-0.4-2.3c-3.4-3.9-6.7-7.8-10-11.8c-4.3-5.1-8.2-10.5-11.9-16.1c-1.3-2-2.7-4-3.1-6.5c-0.1-0.6-0.5-0.9-1-1
			c-7.5-0.9-13-5.4-18.5-10c-0.8-0.7-1.6-1.3-2.3-2c-0.6-0.5-1.1-0.7-1.8-0.3c-4.9,2.3-12-1-14.4-4.8c-1.2-2-2.4-4-3.3-6.1
			c-3.1-6.9-6.1-13.9-9.9-20.5c-1.6-2.9-3.6-5.7-6.1-7.9c-1-0.9-2.3-1.6-3.5-2.3c-0.6-0.4-1.3-0.6-2-0.9c-3.6-1.9-4.5-4.9-2.7-8.6
			c2.2-4.4,4.8-5.8,9.8-7.5c3.2-1.1,6.1-1.3,10.4-1.5c2.4-0.1,8.1,0.7,10.4,1.5c4,1.4,8.2,3.5,11.7,5.9c4.1,2.8,8.6,9.2,8.1,12
			c-0.3,2,0.4,2.7,2,3.8c8.3,5.7,15.8,12.3,21.5,20.7c1.6,2.3,2.9,4.8,4.2,7.4c1.3,2.6,1.9,5.4,1.8,8.4c0,1.4,0.1,1.5,1.2,1.9
			c3.2,1.1,6,2.9,8.6,5c3.8,3.1,7.6,6.2,11.5,9.3c0.4,0.4,0.9,0.7,1.3,1.1c0.3,0.2,0.6,0.4,1,0.5c-0.1-0.3-0.2-0.7-0.4-1
			c-2-3.5-1.5-8,1.2-11c1-1.1,2-2.3,3.5-2.9c1.1-0.5,1.1-0.6,0.7-1.7c-0.8-2.1-1.6-4.2-2.5-6.3c-1.6-3.9-3.4-7.8-5-11.7
			c-2.4-5.8-4.6-11.7-6.9-17.5c-0.3-0.9-0.8-1.5-1.7-2c-4.2-1.9-7.6-4.9-10.4-8.5c-5.5-7.1-10-14.7-12.7-23.3
			c-1.2-3.7-1.8-7.6-2.3-11.5c-0.1-0.7-0.3-1.6-0.7-2.2c-2.9-3.4-4.1-7.3-4.7-11.6c-0.9-7.1,0.4-13.8,3.4-20.1
			c2.4-5,6.3-8.8,11.1-11.6c1.6-0.9,3.4-1.3,5.2-1.4c1.9-0.1,4,1,4.3,3.5c0.2,1.5,0.2,2.9,0.3,4.4c0.2,6.3,2.2,11.7,6.8,16.1
			c3.8,3.7,7.6,7.4,11.4,11.2c3.9,3.9,6.8,8.3,8.1,13.7c0.7,3,0.5,5.8-1.5,8.4c-0.4,0.5-0.9,1.1-1.4,1.4c-1.1,0.7-1,1.5-0.8,2.6
			c0.7,3.4,1.4,6.9,1.9,10.3c0.5,2.8,0.2,5.6-0.4,8.4c-0.2,0.9-0.1,1.6,0.5,2.4c4,5.4,7.9,10.8,11.8,16.2c1.2,1.6,2.4,3.2,3.6,4.7
			c2.5,3.2,5,6.5,7.5,9.7c0.2,0.2,0.4,0.4,0.6,0.5c0.1-0.3,0.2-0.6,0.2-0.9c-0.6-2.4,0.1-4.6,1.3-6.6c1.4-2.3,3.4-3.6,6-4.1
			c2.2-0.4,4.4-0.5,6.6-0.2c1.5,0.2,1.6,0.1,1.7-1.5c0.1-1.2,0.1-2.4,0.3-3.5c0.4-2.4,1.5-5,3.3-6.6c1-0.9,4-2.5,6.1-2.7
			c1.8,0.2,1.8,0.2,1.2-1.6c-1.3-3.9-2.3-7.9-2.9-12c-2-14.9,1.9-28,11.6-39.5c3.2-3.7,7.2-6.6,11.5-8.9c4.4-2.3,8.9-4.1,13.8-5.2
			c10.2-2.4,19.4-0.2,27.6,6.2c3.8,3,7.1,6.7,10.2,10.4c1.5,1.8,3,3.6,4.5,5.3c0.7,0.7,1.5,1.4,2.3,1.9c5,3.4,10.5,5.9,16.1,8.3
			c1.3,0.5,2.5,1.1,3.8,1.6c1.2,0.5,1.8,1.3,1.9,2.7c0.5,5.9,1,11.7,1.6,17.6c0.1,1.1,0.1,2.3,0.2,3.4c0.1,1.2-0.4,2.2-1.3,3
			c-1.5,1.5-2.9,3-4.3,4.5c-2.6,2.9-3.8,6.4-4.1,10.2c-0.1,0.9,0.2,1.4,1,1.7c1.3,0.5,2.7,0.9,4,1.4c2.6,1,5.3,2,7.9,3.2
			c1.2,0.5,2,0.5,3.1-0.4c3.1-2.6,6.7-2.9,10.4-1.5c2.3,0.8,4.2,2.4,5.8,4.3c2.3,2.8,4.4,5.6,5.7,9c0.1,0.4,0.3,0.8,0.5,1.1
			c0.3,0.5,0.6,0.9,0.9,1.3c0.2-0.4,0.5-0.8,0.7-1.3c3.6-9.3,7.3-18.5,10.9-27.8c0.7-1.7,1.3-3.4,2-5.1c0.1-0.4,0.1-0.8,0.2-1.1
			c-0.4,0.1-0.8,0.1-1.2,0.3c-1,0.4-2,1-3.1,1.3c-2.5,0.9-3.8,0.4-5.1-1.8c-1.7-3-3.1-6.2-3.8-9.6c-1.6-7.1-0.9-14.1,1.2-20.9
			c0.2-0.8,0.5-1.6,0.8-2.4c0.3-1.1,0.1-1.2-0.9-1c-1.1,0.2-2.1,0.5-3.2,0.6c-5.1,0.7-10.2,0.4-15.1-1.2c-1.1-0.4-2.2-0.9-3.2-1.5
			c-1.4-0.8-1.8-2-1.2-3.5c0.4-1,1.1-2,1.8-2.9c3.7-4.5,8.4-7.9,13.6-10.5c3.7-1.8,7.6-2.8,11.6-3.8c1.6-0.4,2.5-0.1,1.2-2.5
			c-1-1.8-1.5-3.8-1.3-5.9c0.1-0.8-0.2-1.2-1-1.3c-0.3,0-0.6-0.1-0.8-0.1c-3.4-0.7-5.9-2.5-7.4-5.7c-0.8-1.8-1.3-3.7-1.9-5.6
			c-0.6-1.7-1-3.5-1.7-5.1c-0.9-2.2-2.3-4-4.2-5.4c-0.9-0.6-1.7-1.3-2.5-2c-0.5-0.4-0.9-0.8-1.3-1.3c-1.2-1.8-0.4-4,1.7-4.6
			c0.7-0.2,1.3-0.3,2-0.3c1.5-0.1,2.7-0.7,3.7-1.9c1.1-1.3,2.2-2.6,3.2-4c0.9-1.2,0.9-1.3-0.4-2c-2.9-1.5-5.8-3.1-8.5-5
			c-5.7-4.2-10.3-9.4-13.7-15.5c-1.5-2.8-2.9-5.7-4.1-8.6c-1.1-2.6-1.4-5.5-1.3-8.3c0.2-3.4,2.1-5,5.5-4.5c0.7,0.1,1.4,0.2,2,0.5
			c5.9,2.5,12.2,3.9,18.4,5.1c6.5,1.3,12.4,4,17.5,8.2c1.9,1.6,3.7,3.3,5.2,5.3c0.2,0.3,0.5,0.6,0.7,0.9c0.4,0.5,0.8,0.6,1.3,0.2
			c1.9-1.7,3.8-3.4,5.6-5.2c1.2-1.3,1.7-3,2.1-4.8c0.3-1.5,0.7-2.8,2.4-3.2c1.6-0.4,2.7,0.5,3.6,1.7c2.2,2.9,5.2,4.5,8.6,5.4
			c2.2,0.6,4.4,1.1,6.6,1.7c1.1,0.3,2.2,0.7,3.2,1c2.6,0.9,4.9,2.3,6.6,4.6c0.6,0.8,1.2,1,2.2,0.7c1.5-0.4,3-0.6,4.5-0.8
			c1.3-0.2,1.3-0.1,1.6-1.3c0.7-3.2,2.1-6.1,4-8.8c3.2-4.7,6.9-8.8,11.5-12.2c2.7-1.9,5.5-3.5,8.7-4.4c1.3-0.4,2.7-0.6,4-0.6
			c1.9,0,2.9,1.2,2.7,3.1c0,0.3-0.1,0.6-0.1,0.8c-0.7,4.3-1.5,8.7-2.2,13c-0.9,5.4-2.5,10.6-5.2,15.3c-0.8,1.4-1.8,2.6-2.7,3.9
			c-0.4,0.6-0.4,1,0.4,1c1.7,0.2,2.8,1,3.2,2.7c0.2,0.8,0.7,0.7,1.3,0.6c3.1-0.6,6.3-1,9.4-0.9c2.6,0.1,5.2,0.3,7.8,0.5
			c1.1,0.1,1.1,0,0.7-0.9c-2.5-5.4-3.2-11.2-3.4-17c0-1.5,0-2.9,0.1-4.4c0.1-1.6,1.5-2.7,3.4-2.4c1.9,0.3,3.8,0.7,5.6,1.2
			c3.6,1,6.9,2.8,9.9,5.1c6.4,5.1,11,11.5,13.6,19.3c0.5,1.6,0.7,3.3,1,5c0.2,1.2,0.5,1.4,1.6,0.8c1.9-1,3.8-1.7,6-1.6
			c0.8,0,1.1-0.4,1.2-1.1c0-0.3,0.1-0.6,0.1-0.8c0.7-3.2,2.4-5.6,5.3-7c1.7-0.8,3.5-1.3,5.3-1.9c1.5-0.5,3-1,4.5-1.6
			c2.3-1,4.2-2.5,5.6-4.5c0.7-1,1.4-1.9,2.2-2.8c0.8-1,1.8-1.5,3.2-1.1c1.3,0.4,1.9,1.4,2.1,2.6c0.1,0.4,0.1,0.8,0.2,1.2
			c0.2,1.6,0.9,2.8,2.1,3.7c1.4,1.1,2.8,2.2,4.2,3.2c3,2.2,5.6,4.8,7.9,7.6c1.6,1.9,2.5,4.2,2.8,6.6c0.2,1.4,0.4,1.6,1.8,1.8
			c0.2,0,0.3,0.1,0.5,0.1c2.9-0.2,5.4,1.2,7.7,2.8c0.6,0.4,1.1,0.9,1.6,1.4c1.3,1.4,2.5,2.8,3.8,4.1c1.6,1.6,3.5,2.7,5.7,3.1
			c0.6,0.1,1.2,0.2,1.8,0.4c1.9,0.7,2.5,2.6,1.3,4.3c-0.3,0.4-0.6,0.7-0.9,1c-2.8,2.3-4.3,5.3-5.1,8.8c-0.6,2.4-1.1,4.8-1.8,7.3
			c-0.8,3.2-2.2,6.2-4.9,8.4c-0.7,0.5-0.8,1.1-0.5,2c0.4,1.2,0.7,2.4,0.8,3.6c0.1,0.9,0.5,1.4,1.4,1.6c8.9,2.5,16,7.6,21.6,14.8
			c2.5,3.3,4.2,6.9,5.6,10.8c0.5,1.4,0.8,2.9-0.4,4.1c-1.2,1.2-2.6,1-4,0.6c-4.4-1.4-8.9-1.7-13.4-1.9c-1.8-0.1-3.6-0.2-5.4-0.4
			c-4.8-0.6-8.8-2.7-12.3-5.9c-0.3-0.3-0.6-0.6-1-0.9c-0.6-0.5-0.7-0.5-1,0.3c-0.2,0.6-0.5,1.3-0.8,1.8c-1.3,1.7-3,2-4.8,0.9
			c-0.3-0.2-0.7-0.5-1-0.6c-0.1-0.1-0.4-0.1-0.5-0.1c-0.1,0.2-0.2,0.4-0.1,0.6c0.2,0.4,0.4,0.8,0.6,1.2c5,9.7,7.9,19.8,7.6,30.8
			c-0.1,6-1.4,11.8-3.5,17.4c-0.6,1.6-1.6,3.1-2.6,4.5c-0.6,0.9-1.5,1.6-2.4,2.3c-1.5,1.2-3.2,1.5-4.9,0.4c-1.6-1-3.2-2-4.5-3.2
			c-2.6-2.3-4.6-5.1-6.5-8c-2.7-4.4-5.5-8.7-7.3-13.6c-0.1-0.2-0.1-0.5-0.3-0.6c-0.2-0.1-0.6-0.1-0.6,0c-0.2,0.3-0.3,0.6-0.4,0.9
			c-2.6,8.1-6.4,15.7-10.9,23c-1.3,2.1-2.6,4.1-3.9,6.2c-1.9,3.1-4.3,5.7-7,8.1c-3.2,2.8-6.2,2.4-8.2-1.3c-1.3-2.4-2.3-4.9-3.3-7.4
			c-1.4-3.3-2.6-6.6-3.9-9.9c-0.5-1.2-0.7-1.2-1.6-0.3c-2.7,2.6-5.2,5.3-7.9,7.9c-7.2,6.9-14.9,13.3-23.4,18.4
			c-6.9,4.2-14.2,7.4-21.7,10.5c-4.3,1.8-8.4,3.9-12.6,5.8c-0.6,0.3-0.9,0.5-0.7,1.3c1.5,6.3-0.1,12.1-3.6,17.4
			c-1.4,2.1-1,1.9,0.8,2.6c6.3,2.4,9.2,6.9,8.8,13.7c-0.1,1.8-0.4,3.5-1.3,5.1c-1.1,2.1-2.3,4.1-3.6,6.1c-1.1,1.8-1.2,1.8,0.6,2.8
			c1.2,0.7,2.4,1.4,3.4,2.2c3.7,3.3,4.8,7.4,3.5,12.1c-0.4,1.4-1.2,2.8-1.9,4.2c-0.6,1.2-1.4,2.2-2,3.3c-0.2,0.4-0.2,0.9-0.3,1.4
			c0.5,0.1,1,0.2,1.4,0.3c0.5,0,1-0.2,1.5-0.2c5.5-0.6,10.6-2.3,15.7-4.2c2.8-1,5.1-2.9,7.4-4.7c4.9-4,9.4-8.4,13.3-13.3
			c4.9-6.3,8.5-13.2,10.5-21c1-4.1,2.1-8.1,3.1-12.2c1.2-4.6,3.1-8.9,6-12.7c4.8-6.1,11.1-9.7,18.9-9.8c5.4-0.1,9.4,2.6,11.7,7.6
			c2.6,5.7,2.1,11.3-0.9,16.8c-3.5,6.4-7.5,12.5-11.7,18.5c-0.9,1.3-1.7,2.7-2.3,4.1c-3.6,7.9-7.2,15.7-10.8,23.6
			c-3.5,7.6-8.1,14.4-13.8,20.5c-1.4,1.5-3,2.8-4.4,4.2c-0.3,0.3-0.5,0.6-0.7,0.9c0.4,0.2,0.7,0.5,1.1,0.6c3.4,0.6,6.8,1.2,10.2,1.8
			c10.2,1.7,19.8,5.3,28.7,10.6c12.1,7.1,23.6,15,34,24.4c0.5,0.4,1,0.8,1.4,1.2c2.8,2.2,4.5,5.3,5.8,8.5c1.1,2.6-0.5,4.9-3.4,5.2
			c-3.4,0.4-6.9,0.7-10.3,1c-0.1,0-0.2,0-0.3,0c-1.9,0.1-2,0.3-1.3,2c1.2,2.8,2.3,5.7,3.5,8.5c0.1,0.4,0.3,0.7,0.4,1.1
			c0.6,2.2-0.7,4-3,4.1c-1.8,0-3.6-0.1-5.4-0.2c-1.3-0.1-2.6-0.2-3.9-0.2c-1,0-1.2,0.2-1,1.2c0.2,1.2,0.6,2.4,0.9,3.6
			c0.5,2,0.8,4.1,0.6,6.2c-0.3,3-1.9,4.4-4.9,4c-2.4-0.3-4.7-0.8-7-1.3c-1.4-0.3-1.6-0.2-1.8,1.2c-0.4,2.6-0.7,5.3-1,7.9
			c-0.1,1-0.2,1.9-0.4,2.8c-0.8,2.7-3.2,3.6-5.4,1.9c-1.3-0.9-2.4-2.1-3.4-3.3c-1.3-1.5-2.6-3-3.9-4.5c-5-5.9-10.9-10.8-17.2-15.3
			c-0.2-0.1-0.4-0.3-0.6-0.4c-0.1-0.1-0.3,0-0.5,0c0,0.2,0,0.3,0.1,0.5c0.2,0.3,0.4,0.7,0.6,1c3.8,5.7,7.7,11.5,11.5,17.2
			c0.9,1.5,1.5,3.1,2.3,4.7c0.2,0.4,0.2,0.8,0.4,1.1c0.9,1.4,1,3,0.8,4.6c-0.2,2.2,0.7,3.5,2.8,4c1.1,0.3,1.9,0.1,2.7-0.8
			c5.8-6,12.8-9.9,20.8-11.9c2.5-0.6,5.1-1,7.7-1.3c6.1-0.7,12.3-1.4,18.4-2.1c0.8-0.1,1.6-0.1,2.4,0.1c2.4,0.5,4.2,2.3,4.3,4.8
			c0.1,1.6,0,3.2-0.4,4.7c-3.2,10.2-7.7,19.7-15.2,27.5c-2.4,2.6-5.2,4.7-8.3,6.4c-0.3,0.2-0.7,0.4-1,0.6c-0.8,0.5-0.8,0.6-0.2,1.3
			c0.2,0.2,0.3,0.3,0.5,0.5c2.3,2.5,1.6,5.8-1.5,7.2c-0.9,0.4-1.8,0.6-2.7,1c-0.4,0.2-0.8,0.4-1.2,0.6c-0.5,0.4-0.4,0.8,0.1,1.1
			c0.2,0.1,0.4,0.2,0.6,0.3c9.7,4.2,17.2,10.9,23.2,19.5c2.1,2.9,4.1,5.9,6.1,8.8c0.9,1.2,1.8,2.3,2.7,3.5c0.9,1.2,2.1,2.1,3.5,2.6
			c0.4,0.1,0.8,0.3,1.2,0.6c2.6,1.5,2.8,5.1,0.2,6.7c-1.1,0.7-2.5,1.1-3.8,1.5c-3.1,0.9-6.4,0.9-9.6,0.8c-16.1-0.3-30-6.4-42.4-16.4
			c-1.4-1.1-2.5-1.6-4.2-0.8c-1.2,0.6-2.6,0.8-3.9,1c-1.8,0.3-3.6,0.4-5.4,0.5c-0.9,0.1-1.3,0.5-1.3,1.4c0,0.4,0.1,0.8,0.1,1.2
			c0.7,5.2-1,9.7-4.1,13.8c-1.2,1.6-2.6,3.1-4,4.6c-1.9,2.1-4,4-5.9,6.1c-0.9,1-0.9,1.2-0.1,2.1c3.7,4.2,5.7,9.3,7.3,14.6
			c1.5,4.9,2.3,9.8,2.5,14.9c0.1,1.7,0,3.4-0.3,5.1c-0.6,3.4-3.1,4.7-6.3,3.5c-3.1-1.1-5.6-3.2-8-5.3c-0.5-0.5-1.1-0.8-1.7-1.2
			c-0.2,0.6-0.4,1.3-0.5,1.9c-1.3,10-4.3,19.5-8.8,28.6c-1.6,3.3-3.6,6.4-5.4,9.6c-1.3,2.3-3.3,3.9-5.7,4.8c-1.3,0.5-2.6,0.5-3.8,0
			c-0.8-0.3-1.6-0.8-2.3-1.3c-5.3-4.2-10.1-8.9-14.3-14.2c-3.4-4.2-5.5-9.2-7.4-14.3c-2.6-7.1-4.5-14.4-5.2-21.9
			c0-0.3,0-0.6-0.1-0.8c-0.1-0.4-0.4-0.5-0.8-0.2c-0.3,0.2-0.6,0.5-0.9,0.8c-5.3,5.2-9.7,11.1-13.3,17.5c-0.4,0.8-0.9,1.6-1.4,2.3
			c-2.2,3.4-5.8,3.3-7.9-0.1c-1.5-2.5-2.5-5.3-3.4-8.1c-0.9-3.2-1.4-6.4-1.7-9.7c-0.6-7-0.2-13.9,0.8-20.8c1-6.6,3.5-12.8,6.8-18.6
			c0.4-0.8,0.9-1.6,1.4-2.3c0.6-1.1,0.6-1.1-0.4-1.9c-3.8-3.2-8.2-4.3-13.1-3.9c-1.1,0.1-2.3,0-3.4-0.3c-2.4-0.6-3.6-3-2.7-5.3
			c0.3-0.8,0.8-1.6,1.4-2.3c2.1-2.4,2.9-5.3,2.6-8.4c-0.3-3-0.9-6-1.4-9c-0.2-0.9-0.4-1.9-0.5-2.8c-0.2-1.9-1-3.3-2.5-4.4
			c-4.8-3.7-9.6-7.4-14.3-11.2c-5.8-4.7-11.5-9.5-17.2-14.3c-0.8-0.7-1.6-1.4-2.5-2.1c-0.6-0.6-1.2-0.4-1.9,0
			c-0.7,0.4-0.6,1-0.4,1.6c0.1,0.3,0.3,0.6,0.4,0.9c1.4,3.1,3,6.1,4.3,9.2c3.4,8.1,7.1,16,11,23.9c4,8.1,7.9,16.2,10.6,24.8
			c0.7,2.1,1.3,4.2,1.7,6.4c0.6,2.9-1.5,4.7-4.3,3.8c-1.8-0.5-3.3-1.5-4.6-2.8c-1.9-1.9-3.9-3.8-5.6-5.9c-7.4-8.7-14.8-17.4-22-26.3
			c-4.7-5.8-9.1-11.8-13-18.2c-0.1-0.2-0.3-0.5-0.4-0.7c-0.4-0.6-0.6-0.6-0.9,0c-0.3,0.7-0.6,1.5-0.8,2.2
			c-2.9,9.3-5.8,18.5-8.8,27.8c-2,6.3-4.2,12.5-6.3,18.8c-0.6,1.7-1.1,3.3-1.6,5c-1.9,6.2-4.7,12-9,17c-3.1,3.7-7.3,5.9-11.6,7.7
			c-0.7,0.3-1.4,0.3-2.2,0.3c-2.2-0.1-3.4-1.4-3.3-3.6c0.2-4.7,0.8-9.3,1.6-14c1.5-9.7,3.1-19.3,4.6-29c0.9-5.7,1.8-11.4,2.8-17.1
			c0.9-5.2,2-10.3,3-15.5c0.2-1.3,0.3-1.2-1.1-1.2c-3.1,0.1-6-0.8-8.4-2.7c-1-0.8-1.7-1.9-2.5-3c-0.8-1.1-1.2-1.3-2.4-0.8
			c-0.6,0.2-1.3,0.5-1.9,0.8c-3.7,1.6-9.5,0.4-11.9-3.2c-0.7-1-0.8-1-1.7-0.3c-1.9,1.4-4.1,2.2-6.5,1.9c-1.2-0.2-2.1,0.2-2.8,1.1
			c-2.3,2.8-4.5,5.6-6.9,8.4c-5,5.9-10.1,11.8-15.1,17.7c-3.9,4.6-7.8,9.3-11.7,13.9c-1.3,1.5-2.6,3-4,4.4c-1.3,1.3-2.5,1.2-3.5-0.4
			c-0.7-1.1-1.3-2.4-1.8-3.6c-1.4-3.4-2.1-7.1-2.4-10.7c-0.1-1.2,0.1-2.5,0.3-3.7c0.6-3.5,1.7-6.8,3.3-9.9c4.4-8.6,9.6-16.7,14.4-25
			c0.1-0.1,0.2-0.3,0.3-0.4c0.8-1.4,0.8-1.4-0.7-1.9c-2.4-0.7-4.5-2.1-6.4-3.7c-0.7-0.6-1.4-1.2-2-1.8c-0.6-0.5-1.2-0.8-2-0.5
			c-2.2,0.8-4.3,0.2-6.2-0.7c-1.5-0.7-3-1.6-4.5-2.5c-1.1-0.7-2.2-0.9-3.4-0.4c-3,1.1-6,2.1-9,3.1c-0.2,0.1-0.4,0.1-0.6,0.3
			c-0.2,0.1-0.5,0.4-0.4,0.4c0.1,0.2,0.3,0.5,0.5,0.6c1.4,0.5,2.9,1,4.3,1.5c0.7,0.2,1.4,0.5,2,0.8c1.8,1,2.1,3.1,0.9,4.6
			c-0.4,0.5-0.9,0.9-1.4,1.3c-2.4,1.8-3.5,4.2-3.6,7.2c-0.1,2.7-0.2,5.4-0.3,8.1c-0.2,4.3-1.3,8.3-3.3,12c-2.1,4-5.4,6.8-9.7,8.2
			c-1.1,0.3-2.2,0.6-3.3,0.9c-1,0.3-1.2,0.7-0.8,1.6c0.2,0.5,0.5,0.9,0.6,1.4c0.2,0.6,0.5,1,1.1,1.2c9.3,4.1,16.6,10.9,23,18.6
			c2,2.3,3.8,4.8,5.5,7.3c2.4,3.7,3.9,7.8,4.6,12.1c0.1,0.7,0.4,1.4,0.6,2.1c0.4,1.2,0.4,2.3,0.1,3.5c-0.5,1.9-2.3,3-4.2,2.4
			c-0.9-0.3-1.8-0.8-2.5-1.3c-1.9-1.3-3.7-2.6-5.5-3.9c-1.8-1.3-3.7-2.2-5.8-2.7c-3.5-0.8-7-1.6-10.4-2.4
			c-5.4-1.3-10.7-2.8-15.7-5.4c-1.2-0.6-1.5-0.4-1.7,0.8c-0.2,1.3-0.2,2.6-0.3,3.9c-0.1,0.8-0.1,1.7-0.3,2.5
			c-0.6,1.8-2.3,2.6-4.1,1.9c-0.7-0.3-1.4-0.7-2.1-1.2c-1.5-0.9-3-1.2-4.7-0.9c-1.5,0.4-3.1,0.7-4.7,1c-2.7,0.4-5.5,0.6-8.3,0.9
			c-0.4,0-0.8,0-1.2,0c-0.5,0-0.8,0.3-0.8,0.9c0,0.2,0,0.3,0.1,0.5c1.8,8.5,0.1,16.5-3.3,24.3c-2.6,6-5.8,11.8-9.1,17.4
			c-2.3,4-4.2,8.1-5.5,12.6c-0.6,2.2-1.3,4.4-2.2,6.6c-0.6,1.4-1.2,2.8-2.2,4c-2.1,2.7-5.2,3.1-7.8,1c-5.3-4.3-9.8-9.2-12.4-15.7
			c-2.7-6.8-4.3-13.7-4.4-21c-0.1-7.2,0.1-14.4,1.7-21.4c0.6-2.8,1.6-5.5,2.5-8.3c0.1-0.5,0.4-1,0.5-1.4c0.2-0.6-0.1-1-0.7-1.1
			c-0.7-0.1-1.3-0.2-2-0.2c-3.6-0.2-7.2-0.4-10.8-0.6c-1.6-0.1-3.3,0.3-4.8,1c-0.8,0.4-1.7,0.5-2.6,0.2c-1.9-0.7-2.6-1.9-2.2-3.8
			c0-0.1,0-0.2,0.1-0.3c1.5-3.8,0.6-7.4-0.9-10.9c-0.9-2.1-1.8-4.1-2.7-6.2c-1.6-3.9-3-7.8-3.5-12c-0.6-4.8,0.3-9.2,3.5-13
			c0.7-0.9,0.7-1-0.2-1.8c-0.6-0.6-1.3-1.1-1.9-1.7c-0.5-0.5-0.8-0.4-1.2,0.2c-0.8,1.2-1.6,2.4-2.4,3.5
			c-6.5,8.5-15.3,13.4-25.6,15.9c-5.1,1.2-10.4,1.7-15.7,1.6c-1.1,0-2.3-0.1-3.4-0.4c-2.3-0.5-3.2-1.9-2.9-4.2
			c0.1-1.1,0.3-2.2,0.5-3.4c1.4-6.5,3.8-12.6,8.1-17.7c1.9-2.3,4.2-4.2,6.7-6c1.4-1,1.3-1.3-0.2-2c-11.3-5-21-12.1-29.3-21.3
			c-1.6-1.7-3-3.6-4.5-5.3c-1-1.2-1.3-2.6-1.7-4c-0.3-1.3,0.4-2.4,1.3-3.4c1.9-2.1,4.1-3.7,6.6-5c2.3-1.2,4.6-2.1,7.2-2.6
			c3.5-0.7,6.9-1.7,10.4-2.3c8.6-1.5,17-0.7,25.4,1.5c5.8,1.5,11.2,3.9,16.5,6.7c1.4,0.8,2.8,1.5,4.2,2.2c0.7,0.4,1.2,0.3,1.8-0.3
			c0.9-0.9,1.8-1.7,2.8-2.5c3.6-3.1,7.8-5.2,12.5-6.1c1.2-0.2,2.5-0.1,3.7,0c1.7,0.1,1.7,0.2,2-1.4c0.8-4.2,2.9-7.5,6.3-9.9
			c1.6-1.2,1.6-1.2,0.9-3c-2.3-6.1-4.1-12.3-5.2-18.8c0-0.3-0.1-0.6-0.2-0.8c-0.2-0.5-0.5-0.7-1.1-0.5c-0.3,0.1-0.5,0.3-0.8,0.4
			c-7.6,4-15.2,8-22.9,11.9c-5.3,2.7-11,3.4-16.9,2.3c-2.5-0.5-5-1.2-7.3-2.1c-9.5-3.6-17.1-9.6-23.4-17.5c-7-8.9-12-18.9-15.7-29.5
			C19.6,336.2,17.3,322.3,17.8,305.1z M336.8,433c1.2,0,2.4,0,3.6,0c2.8-0.1,5.7-0.1,8.5-0.4c8.3-0.9,16.3-3.2,24.1-6.3
			c4.8-1.9,9.4-4.3,13.7-7.1c4.8-3.1,9.4-6.5,14.1-9.7c8.4-5.8,17.3-10.6,26.2-15.4c5.7-3.1,11.6-5.9,17.3-8.9
			c5.5-2.9,11.3-5.1,17.4-6.6c8.6-2.1,17.1-2.2,25.7,0c6.7,1.7,12.9,4.5,18.8,8c1.7,1,3.4,2,5,3.2c5.6,4.4,11.3,8.8,15.4,14.8
			c0.4,0.6,1,1.2,1.6,1.7c0.8,0.6,1.4,0.4,1.6-0.6c0.2-0.7,0.2-1.5,0.1-2.2c-0.1-1.6-0.3-3.2-0.4-4.7c-0.2-4.2,2.5-4.9,5.3-4.3
			c0.6,0.1,1.1,0.3,1.6,0.5c1.1,0.4,2.1,0.8,3.2,1.2c0.5,0.2,1,0.3,1.5,0.4c1.1,0.2,1.5-0.3,1.1-1.4c-0.2-0.4-0.4-0.8-0.6-1.2
			c-1-2.5-2-4.9-2.8-7.5c-0.7-2.2,0.4-4,2.7-4.4c1.2-0.2,2.5-0.1,3.7,0.1c1.8,0.3,3.5,0.8,5.3,1.1c0.8,0.2,1.6,0.5,2.2-0.3
			c0.5-0.8-0.2-1.4-0.5-2c-1-2.4-2.2-4.7-3.1-7.1c-0.7-1.9-0.2-3.3,1.6-4.3c1.1-0.6,2.3-1,3.5-1.2c2.1-0.2,4.2-0.2,6.3-0.3
			c0.5,0,1,0.1,1.5,0c0.9-0.2,1.3-0.7,0.9-1.6c-0.4-0.7-0.9-1.5-1.5-2c-4.2-4.1-8.2-8.2-13-11.7c-6.7-4.8-13.5-9.5-21.1-12.9
			c-2.8-1.3-5.7-2.6-8.5-3.8c-9.4-4-19.2-6-29.4-6.3c-5-0.1-10.1,0.3-15.1,1c-8.1,1.1-16.1,2.9-23.9,5.8c-8.2,3-15.9,7-23.6,11.1
			c-2.2,1.2-4.6,2.3-6.9,3.2c-5.9,2.3-11.8,4.7-17.4,7.6c-2.1,1.1-4.2,2.1-6.3,2.9c-9.4,3.8-18.9,7.7-28.3,11.4
			c-8.2,3.2-16.7,5.7-25.5,6.9c-8.4,1.2-16.7,1.4-25-0.2c-4.2-0.8-8.3-2-12.4-3c-7.8-1.9-15.6-3.8-23.4-5.7
			c-5.8-1.4-11.7-2.5-17.8-2.6c-2.6-0.1-5.2-0.1-7.8-0.1c-5.3,0-10.6,0.4-15.8,2c-6.1,1.9-11.8,4.5-17.3,7.8
			c-5.9,3.5-10.9,8-15.9,12.7c-5.6,5.3-11.1,10.8-16.7,16.1c-3,2.8-6,5.6-9.3,8c-14.4,10.3-29.6,11.4-45.4,3.5
			c-0.5-0.2-0.9-0.5-1.4-0.7c-0.1-0.1-0.3,0-0.5,0c0,0.2,0,0.4,0.1,0.6c0.2,0.3,0.5,0.6,0.7,0.9c6.8,7.7,15.1,12.8,24.9,15.7
			c5,1.5,10,1.8,15.1,1.4c5.7-0.5,11.2-1.7,16.6-3.4c11.7-3.8,23.2-8,35-11.5c5.8-1.7,11.5-3.3,17.5-4c6-0.7,12-1,17.9,0
			c9.4,1.6,18.8,3.7,27.9,6.5c6.1,1.9,12.2,3.7,18.4,5.5C317.2,431.5,326.8,433.5,336.8,433z M152.7,414.2c1.9-0.2,3.7-0.3,5.6-0.6
			c5.8-1,11.1-3.3,16.3-6.2c1.2-0.7,2.4-1.5,3.6-2.2c0.3-0.2,0.4-0.5,0.6-0.8c-0.3-0.1-0.6-0.4-0.9-0.4c-3.7-0.4-6.9-2.2-9.7-4.5
			c-3.8-3.1-6.9-6.9-9.5-11.2c-2.7-4.6-4.2-9.6-5.7-14.7c-0.5-1.8-1-3.6-1.3-5.4c-2.1-10-4.3-19.9-6.4-29.9
			c-1.9-9.1-5.2-17.7-8.2-26.4c-1.8-5.1-3.7-10.1-6.2-14.9c-5.4-10.6-12.5-19.9-20.9-28.2c-4.7-4.6-9.8-8.5-15.7-11.5
			c-2.9-1.5-5.9-2.7-9-3.4c-0.7-0.2-1.6-0.2-2.3,0c-2.6,0.7-5.1,1.4-7.6,2.3c-6.4,2.4-12.8,4.9-19.1,7.4c-0.6,0.2-1.5,0.3-1.5,1.1
			c0,0.8,0.9,1,1.5,1.2c3.8,1.7,7.3,3.8,10.5,6.6c3,2.6,5.8,5.4,8.7,8.1c2.4,2.2,4.4,4.7,6.2,7.4c5,7.7,9.8,15.5,14.1,23.6
			c5.7,10.8,9.7,22.2,13,33.9c2.3,8.3,4.1,16.8,6.1,25.2c1,4.1,1.8,8.2,3,12.2c1.7,5.9,4.1,11.5,7.5,16.7c2.9,4.4,6.8,7.9,11.7,10.1
			c2.3,1,4.6,1.9,7,2.7C146.4,413.6,149.5,414.1,152.7,414.2z M338,371.9c0.1,0,0.5,0,0.9,0c8.7-1,17.1-3.2,25.4-6.1
			c1.3-0.5,2-1.3,2.4-2.6c1.9-6.2,3.9-12.3,5.8-18.5c5.3-16.7,10.6-33.3,16-50c0.6-1.8,0.6-3.3-0.7-4.7c-0.1-0.2-0.3-0.4-0.4-0.5
			c-3.1-4.2-6.3-8.4-9.4-12.7c-5.5-7.6-10.8-15.2-16.4-22.7c-5-6.7-10.1-13.2-15.2-19.7c-1.1-1.4-1.2-1.4-2.8-0.5
			c-2.2,1.3-4.4,2.5-6.6,3.8c-3.3,1.8-6.6,3.6-9.8,5.4c-2.5,1.5-2.5,1.8-0.7,4.1c2.3,2.9,4.8,5.6,6.8,8.6
			c4.4,6.4,8.5,12.9,12.2,19.8c1.2,2.2,2.2,4.6,3.1,6.9c0.5,1.2,0.6,2.5,0.7,3.8c0,1.7-0.1,3.5-0.3,5.2c-0.3,2-0.7,4-1.1,6
			c-0.1,0.7-0.5,1.4-0.6,2.1c-1.2,7.4-2.5,14.8-3.7,22.3c-1.5,9.2-2.9,18.3-4.5,27.5c-1.1,6.6-2.6,13.1-3.8,19.7
			C334.7,372,334.8,372,338,371.9z M431.5,210.8c1.5-0.1,3-0.2,4.6-0.4c6.1-0.9,11.6-3.3,16.9-6.4c11-6.5,20.4-14.8,28.6-24.6
			c7-8.3,12.8-17.4,17-27.4c2.8-6.7,5.3-13.5,6.6-20.7c0.1-0.5,0.2-1,0.2-1.5c0-0.9-0.2-1.1-1.1-0.9c-1.8,0.4-3.6,0.9-5.4,1.3
			c-2.3,0.5-4.5,1-6.8,1.2c-3.6,0.4-7.2,0.4-10.8,0.7c-2.1,0.2-4.2,0-6.1,1.1c-1.3,0.7-2.9,0-3.5-1.4c-0.3-0.6-0.4-1.3-0.4-2
			c-0.1-2.7,0.6-5.1,1.7-7.6c1.5-3.5,3.5-6.7,5.7-9.8c3-4.3,6.8-7.7,11.5-10c0.5-0.2,0.9-0.6,1.3-1c-0.5-0.3-0.9-0.7-1.4-0.8
			c-3-1.1-6.1-1.2-9.2-0.4c-1.1,0.3-2.3,0.7-3.2,1.4c-3.9,2.7-7,6.1-8.8,10.5c-0.8,2.1-1.7,4.2-2.4,6.3c-1.8,5.2-3.5,10.4-5.5,15.5
			c-2.3,5.8-4.6,11.6-7.4,17.1c-3.1,6.2-6.8,12.2-10.7,17.9c-3.8,5.4-8,10.6-13,14.9c-2.9,2.5-5.8,4.9-8.8,7.1
			c-2.6,1.9-3.9,4.5-4.2,7.6c-0.3,3,0.4,5.6,2.6,7.8c1.5,1.5,3.2,2.5,5.2,3.1C426.6,210.4,429,210.8,431.5,210.8z M184,338.5
			c4.4-0.2,8.2-0.4,12-0.7c3.3-0.2,6.7-0.4,10-0.8c6.4-0.8,12.8-1.9,19.1-2.8c7.9-1.1,15.8-2.2,23.7-3.4c3.7-0.6,7.3-1.5,11-2
			c7-1,13.7-2.8,20.5-4.6c8.6-2.2,16.8-5.7,25.3-8.5c4.7-1.6,9.2-3.4,13.8-5.2c3.1-1.2,6.1-2.6,9.1-4c0.7-0.3,1.3-1,1.8-1.7
			c1.6-2.4,3.1-4.8,4.7-7.3c2.1-3.4,4.2-6.8,6.4-10.2c0.5-0.7,0.8-1.5,0.6-2.4c-0.2-0.9-0.6-1.1-1.4-0.6c-1.7,0.9-3.4,1.8-5.1,2.6
			c-5.7,2.6-11.4,5.2-17.2,7.6c-5.1,2.1-10.3,4-15.5,5.9c-0.7,0.3-1.4,0.4-2.1,0.6c-3.8,1-7.7,1.9-11.5,2.9
			c-6.4,1.7-12.8,3.6-19.2,5.2c-13.2,3.3-26.6,5.5-40,7.6c-7,1.1-14,1.8-21,2.7c-5.8,0.7-11.7,1.5-17.5,2.3
			c-4.1,0.6-8.2,1.2-12.2,1.9c-1.7,0.3-3.4,1-4.9,1.8c-2.3,1.2-3.7,2.9-3.3,5.7c0.1,0.4,0,0.9,0.1,1.3c0.3,0.8,0.5,1.7,1,2.3
			c1.4,1.5,3.1,2.9,5.3,3.2C179.6,338.3,182.1,338.4,184,338.5z M96.4,353.1c-0.1-1.4-0.2-4-0.4-6.5c-0.9-9.8-3.1-19.3-6.6-28.5
			c-4.8-12.9-11.3-24.8-20.7-35c-3.4-3.7-7.2-6.9-11.5-9.5c-3.1-1.8-6.3-3.3-9.9-3.8c-4.7-0.6-9.2-0.1-12.9,3.1
			c-1.8,1.6-3.3,3.4-4.6,5.4c-2.8,4.6-4.2,9.6-5,14.9c-0.5,3.5-0.8,7.1-0.9,10.6c-0.1,4.9-0.3,9.7,0,14.6c1,13.5,4.7,26.4,10.7,38.5
			c4.2,8.6,9.5,16.5,16.5,23.1c3.4,3.3,7.2,6,11.5,8c3.9,1.8,7.9,2.8,12.2,2.3c8.6-1.1,14.5-5.8,17.7-13.9
			C95.3,369.3,96.4,361.8,96.4,353.1z M187.3,365.8c3.4-0.2,6.6-0.3,9.9-0.7c3.3-0.4,6.5-1.1,9.7-1.6c5.5-1,10.9-1.9,16.4-2.9
			c7.8-1.5,15.7-3.1,23.5-4.7c9-1.8,18-4.1,26.8-6.9c6.1-1.9,12.1-3.9,18.1-5.7c6.1-1.8,12-4,17.8-6.6c0.7-0.3,1.6-0.8,2-1.5
			c2.6-4,5.1-8.2,7.6-12.2c0.1-0.2,0.1-0.4,0.2-0.6c-0.3,0-0.5-0.1-0.8,0c-3,1-6,2.1-8.9,3.2c-5.9,2.1-11.7,4.3-17.6,6.2
			c-10.5,3.4-21.1,6.1-31.9,7.9c-8,1.3-16,2.7-23.9,4c-4.4,0.7-8.9,1.2-13.3,1.9c-5.3,0.8-10.6,1.9-16,1.8c-0.4,0-0.9,0.1-1.4,0.1
			c-8.5,1-17.1,2-25.6,3c-1.1,0.1-2.1,0.3-3.2,0.5c-2,0.4-3.9,1.2-5.6,2.4c-2.1,1.5-2.8,3.7-2.2,6.1c0.6,2.2,1.9,3.7,3.9,4.6
			c2.7,1.2,5.5,1.9,8.4,1.9C183.3,365.8,185.3,365.8,187.3,365.8z M451.2,325.9c4.9,0,10.2-0.4,15.5-1.3c4-0.7,7.9-1.8,11.4-3.6
			c4.8-2.4,8.9-5.7,12.6-9.6c6.2-6.5,11.1-13.8,15-21.9c2.5-5.3,4.7-10.7,7.1-16c2.7-6,5.9-11.7,9.9-16.9c2.6-3.4,4.9-6.9,6.8-10.7
			c1.4-2.7,1.7-5.5,0.6-8.5c-1.1-3.1-4.7-4.6-7.6-3.6c-2.8,1-5.3,2.3-7.4,4.4c-3.1,3-5.2,6.6-6.7,10.5c-1.3,3.5-2.4,7.2-3.5,10.8
			c-2.7,9-5.9,17.7-11.7,25.2c-3.2,4.2-6.2,8.6-10.1,12.3c-5.2,5-10.9,9-17.8,11.1c-6.8,2.1-13.7,4.1-20.7,5.1
			c-2.1,0.3-2.2,0.5-2.5,2.5c-0.4,2.7-0.8,5.4-1.2,8.1c-0.2,1.7,0.1,2.1,1.7,2.1C445.4,325.9,448.1,325.9,451.2,325.9z M237.4,195
			c-1.8-0.1-2.9,0.7-2.9,2.5c0,1.2,0.1,2.4,0.6,3.5c0.7,1.6,1.7,3.1,2.8,4.4c3.3,3.9,6.7,7.7,10,11.5c4.5,5.2,9,10.4,13.6,15.6
			c3.9,4.5,7.9,8.9,11.8,13.4c3.3,3.8,6.5,7.7,9.8,11.5c8.2,9.1,16.6,18.1,24.8,27.2c0.6,0.7,1.2,0.9,2.1,0.6c2.3-0.9,4.7-1.7,7-2.6
			c3-1.1,3.1-1.2,1.2-3.8c-6.5-9.1-13.5-17.8-20.9-26.3c-2.8-3.2-5.8-6.2-8.6-9.4c-7.3-8.2-14.4-16.6-21.7-24.7
			c-5.3-5.9-11-11.6-17.2-16.6c-2.3-1.8-4.7-3.5-7.2-5.1C241,195.7,239.2,195.2,237.4,195z M295.8,174.6c4.5-0.2,8.9-0.1,13.4,0.4
			c3.3,0.4,6.6,0.8,9.9,1.2c1.6,0.2,1.7,0.1,1.8-1.5c0.4-12.4-3.6-23.5-10.3-33.7c-3.2-4.9-7.9-7.6-13.6-8.7c-3.1-0.6-6.2-0.3-9.1,1
			c-2,0.9-3.7,2.3-5.5,3.7c-1.5,1.1-2.5,2.5-3,4.2c-0.4,1.1-0.7,2.3-0.9,3.4c-0.6,3.4-0.5,6.7-0.1,10.1c0.8,6.8,2.9,13.1,6.1,19.1
			c0.5,0.9,1,1.2,2,1.2C289.6,174.8,292.7,174.7,295.8,174.6z M305.5,529.6c0,0.7,0,1.3,0.7,1.7c0.6,0.3,1.1,0,1.5-0.4
			c0.7-0.4,1.3-0.8,2-1.2c2.8-1.7,5.3-3.8,6.5-6.9c1.2-3.3,2.4-6.6,3.5-9.9c2.6-8,5.1-16,7.7-24c4.8-14.6,9.6-29.3,14.4-43.9
			c0.2-0.5,0.4-1.1,0.5-1.6c0.2-0.6,0-1-0.7-1.1c-0.3,0-0.6,0-0.8,0c-5.2-0.5-10.5-0.9-15.7-1.4c-3.2-0.3-3.4-0.3-4,2.9
			c-0.8,4.4-1.5,8.9-2.3,13.4c-1.8,9.8-3.6,19.6-5.4,29.5c-2.4,13.1-4.8,26.1-7.2,39.2C305.9,527.1,305.7,528.4,305.5,529.6z
			 M208.8,277.1c0.9-0.4,1.8-0.6,2.5-1.1c4-3,7-6.9,9.3-11.3c1.1-2.1,0.7-4.2-1.1-5.8c-2.4-2.2-4.8-4.5-7.3-6.6
			c-4.3-3.5-8.7-6.9-12.9-10.4c-7.8-6.6-15.5-13.4-23.8-19.4c-1.1-0.8-2.3-1.6-3.6-2.3c-1.3-0.7-1.6-0.6-2.4,0.6
			c-1.1,1.6-2.5,2.7-4.2,3.6c-1.2,0.6-1.4,1-1.2,2.3c0.2,0.9,0.5,1.8,1,2.5c1.6,2.4,3.3,4.7,5,7.1c2.4,3.3,4.7,6.6,7.3,9.8
			c6.9,8.6,14.1,17,21.7,25c1.8,1.9,3.8,3.5,6.1,4.8C206.2,276.4,207.5,276.6,208.8,277.1z M520.9,435.2c-0.8,0.1-1.6,0.1-2.4,0.3
			c-4.5,1-8,3.9-11.6,6.5c-0.5,0.4-0.5,0.7,0.2,1c0.9,0.3,1.8,0.6,2.7,1c5.5,2.3,6.9,10.2,2.6,14.6c-0.6,0.6-1.7,1.2-1.8,1.9
			c-0.1,0.8,0.7,1.7,1.1,2.6c2.8,6.1,0.4,12.5-5.6,15.4c-0.7,0.3-1.4,0.5-2.1,0.8c-0.8,0.3-0.9,0.7-0.3,1.2c2.4,2,4.7,4.1,7.3,5.8
			c4.5,3,13.2,3.6,18.1-2.4c0.6-0.8,1.3-1.5,1.9-2.4c2.4-3.4,4.4-6.9,6.2-10.7c1.1-2.4,2.5-4.7,3.8-7c0.6-1,1.4-1.7,2.4-2.3
			c1.3-0.7,1.3-1.5,0-2.4c-0.8-0.6-1.6-1.2-2.4-1.9c-2-1.9-3.3-4.2-4.4-6.6c-0.9-2-1.8-4-2.8-6c-1-2.2-2.4-4.1-4.1-5.8
			C527.4,436.2,524.3,435.4,520.9,435.2z M324.8,371.7c0.4,0,0.8,0.1,1.2,0.1c0.5,0,0.9,0,1.4,0c1.4,0,1.5-0.1,1.8-1.5
			c1.1-5.4,2.3-10.8,3.3-16.3c1.6-8.6,3.2-17.2,4.8-25.9c1.6-8.8,3.3-17.7,4.2-26.6c0.1-0.6,0.1-1.2,0.1-1.9
			c-0.1-0.6-0.5-0.8-0.9-0.3c-0.5,0.5-0.9,1.1-1.3,1.8c-12.2,19.5-24.4,39.1-36.5,58.6c-1,1.6-2,3.2-2.9,4.8
			c-0.9,1.6-0.7,1.8,1.1,2.3c2.2,0.5,4.4,1,6.6,1.7C313.1,370.3,318.9,371.4,324.8,371.7z M124.5,517c1.5-0.2,4-0.5,6.6-1
			c0.8-0.1,1.5-0.4,2.2-0.8c2.6-1.2,4.2-3.4,5.2-6c1.4-3.5,1.4-7.2,1.8-10.8c0-0.4-0.1-0.9-0.2-1.3c-0.5,0.1-0.9,0.3-1.3,0.4
			c-0.3,0.1-0.5,0.3-0.7,0.4c-3.4,1.8-7.4,1.2-10.1-1.3c-1.9-1.8-3.1-4-3.6-6.6c-0.3-2.1-0.5-2-2.5-2.1c-3.5-0.2-6.3-1.8-8.3-4.6
			c-1.7-2.3-2.2-4.8-1.5-7.5c0.1-0.4,0.3-0.9,0.4-1.3c0.2-0.9,0-1.1-1-0.9c-0.2,0-0.3,0.1-0.5,0.1c-3.3,1.1-6.5,2.2-9.7,3.4
			c-1.4,0.5-2.7,1.4-4,2.3c-2.4,1.6-3.4,4-3.5,6.8c-0.1,2,0.4,3.8,1.1,5.6c1,2.5,2.1,5,3.1,7.5c1.7,3.9,3,7.8,2.9,12.1
			c0,1.6,0.4,1.9,2,2.1c1.6,0.2,3.2,0.4,4.7,0.9C112.7,516.1,118,516.7,124.5,517z M458.8,509.7c0.2,0.8,0.3,1.8,0.8,2.6
			c0.7,1.2,1.6,2.4,2.6,3.3c2.5,2.4,5.4,4.3,8.7,5.5c5.3,1.9,10.4,4.4,16.1,5.3c1.9,0.3,2.1,0.3,2.7-1.5c0.1-0.3,0.2-0.5,0.2-0.8
			c0.6-2.2,1.6-4.1,3.2-5.7c2.2-2.1,4.5-4.2,6.8-6.2c2.5-2.2,5.2-4.2,7.1-7c1.6-2.4,2.6-4.9,1.4-7.8c-0.3-0.7-0.3-1.4-0.6-2.1
			c-0.4-1-0.8-2-1.5-2.8c-1.5-1.6-3.1-2.9-4.7-4.4c-1.6-1.4-1.6-1.3-2.2,0.6c-1.1,3.7-4.1,6.1-7.9,6.3c-1.9,0.1-3.6-0.3-5.2-1.2
			c-1.8-1-1.5-1.3-3.1,0.6c-1,1.2-2.1,2.2-3.3,3.1c-2.2,1.6-4.8,2.3-7.6,1.7c-2.7-0.5-5.2-1.6-7.3-3.4c-0.9-0.8-1.2-0.8-1.7,0.4
			c-1.1,3-2.3,5.9-3.3,8.9C459.3,506.6,459.1,508.1,458.8,509.7z M511.2,422.7c0-1.5-0.3-2.9-1-4.1c-1.2-2.2-2.4-4.5-3.8-6.6
			c-3.3-5.2-6.8-10.3-10.2-15.4c-0.5-0.8-0.8-0.8-1.7-0.4c-1.5,0.7-3,1.6-4.6,2.1c-5.3,1.6-10.7,2.5-16.1,2.9
			c-2.5,0.2-5.1,0.5-7.5,1c-3.7,0.8-6.2,3.2-7.6,6.6c-0.6,1.4-0.8,2.9,0.1,4.2c2,3.1,3.3,6.5,4.5,10c0.2,0.5,0.3,1,0.5,1.4
			c0.2,0.4,0.5,0.4,0.8,0.1c0.5-0.6,0.8-1.2,1.3-1.8c2.7-3.1,6-4.6,10.1-3.7c2.6,0.6,4.3,2.3,5.7,4.5c0.9,1.4,0.9,1.4,2.4,0.9
			c2.2-0.8,4.5-1.1,6.8-0.9c4.9,0.5,8.7,3.7,9.8,8.5c0.2,0.9,0.3,1.8,0.4,2.7c0.2,0.9,0.4,1,1.1,0.4c2.8-2.6,5.5-5.4,7.7-8.6
			C510.8,425.4,511.3,424.1,511.2,422.7z M430.3,453.9c0,0,0-0.1,0-0.1c0.8,0,1.6,0,2.4,0c0.9,0,1-0.2,0.8-1c-0.2-0.7-0.4-1.3-0.6-2
			c-1.4-5.6,1.1-12.4,8.7-13.6c1.5-0.2,1.5-0.3,1.8-1.7c0.5-2.7,1.6-5.1,3.3-7.2c1.3-1.6,3-2.7,5-3c1-0.2,2.1-0.1,3.2,0
			c1.1,0.1,1.3-0.1,0.9-1.1c-0.6-1.6-1.2-3.2-2-4.7c-1.5-3.2-3.7-6-6.3-8.3c-1.8-1.6-3.7-2-6-1.3c-3.5,1.1-6.8,2.4-10.1,4
			c-2,1-3.9,2.1-5.9,3.1c-2.2,1.1-4.6,1.8-7.1,2c-1.7,0.1-1.7,0.2-1.5,1.8c0.6,5.2,0.4,10.3-0.6,15.4c-0.4,1.8-0.8,3.5-1.1,5.3
			c-0.2,1.6-0.4,3.1-0.4,4.7c-0.1,1.7,0.7,3.1,2,4.2c1.4,1.3,3.1,2.1,5,2.4C424.7,453.2,427.5,453.6,430.3,453.9z M235,226.1
			c-0.1-0.5-0.2-1.1-0.4-1.5c-0.9-1.8-1.7-3.6-2.7-5.3c-0.8-1.4-1.8-2.6-2.8-3.9c-6.8-9-13.3-18.2-19.4-27.6
			c-2.8-4.3-5.9-8.4-8.9-12.6c-0.4-0.6-0.9-1.2-1.4-1.7c-0.8-0.8-1.2-0.8-2.1-0.1c-1.3,1-2.7,1.9-4.3,2.3c-0.8,0.2-0.9,0.8-0.7,1.4
			c0.2,0.8,0.5,1.5,0.7,2.3c1.5,3.6,2.9,7.2,4.4,10.8c3.7,8.8,7.4,17.6,11.2,26.4c2.4,5.5,5.3,10.8,8.9,15.6c0.8,1,1.7,2,2.7,2.7
			c1.3,1,2.9,1.1,4.5,0.5c2.3-0.8,4.3-2.1,6.2-3.4c1.7-1.2,2.8-2.8,3.6-4.6C234.8,227.1,234.9,226.6,235,226.1z M437.2,287.6
			c-0.1,0-0.7-0.1-1.1,0.1c-2.3,0.7-4.6,1.3-6.7,2.8c-4,2.9-8,5.7-12.1,8.5c-2,1.4-4,2.7-6.1,3.9c-3.1,1.8-6.2,3.5-9.2,5.4
			c-4.2,2.8-9.1,4.5-13.1,7.7c-0.8,0.6-1.4,1.2-1.7,2.2c-1.7,5.5-3.5,11-5.2,16.5c-0.2,0.6-0.2,1.3-0.3,1.9c0.6-0.2,1.3-0.3,1.9-0.6
			c5.5-2.5,10.9-5,15.9-8.3c3.8-2.4,7.6-4.9,11.4-7.3c1.3-0.8,2.5-1.7,3.9-2.4c8.1-4.7,16.1-9.7,23-16.1c2.4-2.2,4.5-4.7,5.2-7.9
			c0.2-0.9,0.2-2-0.1-3C442.2,288.6,440.5,287.6,437.2,287.6z M231.8,482.2c0.1,1.2,0.5,3.4,1.5,5.4c0.9,1.9,1.2,1.9,2.7,0.3
			c0.1-0.1,0.2-0.3,0.3-0.4c10.6-12.9,21.2-25.8,31.6-38.8c4.5-5.6,8.7-11.6,13-17.4c0.7-0.9,0.6-1.1-0.5-1.4
			c-1.4-0.4-2.9-0.7-4.3-1c-4.1-0.8-8.2-1.5-12.3-2.2c-1-0.2-1.7,0-2.3,1c-2.6,4.2-5.4,8.2-8,12.4c-3.2,5.2-6.1,10.6-9.2,15.8
			c-3.1,5.2-6.3,10.3-9.4,15.5C233.1,474.4,231.9,477.6,231.8,482.2z M98.4,469.7c0.9-0.1,1.8-0.2,2.7-0.4c2-0.6,3.9-1.2,5.8-1.9
			c0.9-0.3,0.9-0.6,0.4-1.4c-0.2-0.2-0.3-0.4-0.5-0.7c-1.5-2.3-1.8-4.7-0.6-7.2c0.9-2,2.4-3.5,4.4-4.6c0.5-0.3,1-0.5,1.5-0.7
			c0.9-0.4,1-0.6,0.6-1.6c-0.2-0.4-0.4-0.8-0.5-1.3c-1.1-3.4-0.6-6.5,1.9-9.1c1.7-1.7,3.6-2.8,6.2-2.7c0.5,0,0.9-0.2,1.4-0.3
			c-0.2-0.4-0.3-1-0.6-1.3c-1.4-1.7-2.7-3.5-4.2-5.1c-1.3-1.4-2.6-2.7-4-3.9c-2.2-1.8-4.9-2.3-7.7-1.6c-3.1,0.7-5.6,2.4-7.9,4.4
			c-4,3.5-7.7,7.4-11.9,10.6c-0.7,0.5-0.8,1.1-0.5,1.9c1.3,2.9,1.9,6,2.5,9.1c0.5,2.8,1.1,5.7,1.7,8.5c0.4,2.1,1.2,4,2.5,5.7
			C93.3,468.3,95.5,469.6,98.4,469.7z M188.9,488.6c0-2.2-0.5-4-1.3-5.7c-0.5-1-1.3-1.7-2.4-1.8c-1.2-0.2-2.3-0.4-3.5-0.7
			c-1.3-0.3-2.6-0.7-3.9-1.1c-1.7-0.5-1.7-0.5-1.8,1.2c0,0.1,0,0.2,0,0.3c-0.1,2.9-1.4,5.1-3.8,6.6c-2,1.2-4.1,1.6-6.4,1.3
			c-1.7-0.3-2-0.6-2.7,1.7c-0.3,1.1-0.8,2.2-1.5,3.2c-3.2,4.6-7.6,6.8-13.4,4.6c-0.2-0.1-0.3-0.1-0.5-0.2c-0.7-0.3-1.1,0-1.2,0.7
			c-0.1,0.3-0.1,0.7-0.2,1c-0.5,3.3-0.1,6.5,0.9,9.7c1.2,3.9,3.8,6.2,7.6,7.3c3.5,1,7,0.5,10.4-0.5c3.2-0.9,6.2-2.1,9.6-1.4
			c0.7,0.1,1.1-0.2,1.2-0.9c0-0.3,0.1-0.6,0.2-0.8c0.9-4.7,3-8.7,6.4-12.1c1.2-1.2,2.3-2.6,3.4-4
			C187.9,494.4,188.9,491.5,188.9,488.6z M158,113.5c0,1-0.1,1.9,0,2.9c0.3,3.8,1.2,7.4,3.4,10.5c0.4,0.6,1,1.2,1.6,1.7
			c1,0.7,1.6,0.5,1.9-0.7c0.3-1,0.3-2.1,0.5-3.2c0.2-1.3,0.3-2.7,0.7-4c0.3-1,0.9-2,1.6-2.7c1.1-1.1,2.7-0.9,3.4,0.5
			c0.4,0.7,0.6,1.6,0.8,2.4c0.4,2.2,0.6,4.4,1,6.5c0.5,3.1,1.7,6,3.9,8.4c0.8,0.9,1.8,1.7,2.9,2.4c1.4,0.9,2.4,0.3,2.7-1.3
			c0.1-0.5,0.1-1,0.1-1.5c-0.1-1-0.2-1.9-0.4-2.9c-0.3-1.8-0.7-3.7-0.9-5.5c-0.1-0.9,0.1-1.8,0.4-2.6c0.5-1.2,1.8-1.4,2.8-0.5
			c0.5,0.5,0.9,1,1.2,1.6c0.5,1.1,0.9,2.2,1.3,3.3c1.4,4,3.5,7.6,6.4,10.7c0.7,0.8,1.7,1.5,2.8,1.9c1.6,0.7,3-0.1,3.3-1.8
			c0.2-1,0.3-2,0.2-3c0-3.2-1.3-5.9-3-8.5c-3.3-5-7.4-9.4-12-13.4c-2.5-2.2-4.7-4.7-6.6-7.5c-1.7-2.5-2.8-5.2-3.3-8.1
			c-0.5-2.5-0.7-5-0.5-7.6c0.1-1.4-0.6-2.1-2-2c-0.5,0-1,0.1-1.5,0.3c-1.2,0.6-2.5,1.1-3.5,2c-3.6,3.2-6.6,6.9-7.8,11.7
			C158.4,106.7,157.9,110.1,158,113.5z M113.6,157.4c-2.8-0.1-5.6,0.2-8.4,0.9c-2.6,0.7-5.2,1.5-7.4,3.2c-2.4,2-2.3,3.1,0.4,4.6
			c1.4,0.7,2.8,1.5,4.1,2.3c2.9,1.9,4.9,4.6,6.6,7.6c2.4,4.2,4.3,8.7,6.1,13.2c1.3,3.1,2.7,6.1,4.1,9.1c1.5,3.1,3.8,5.8,6.5,7.9
			c1.2,0.9,2.4,1.6,4,1.8c2,0.2,2.8-0.6,2.6-2.6c-0.1-0.7-0.2-1.4-0.5-2c-0.6-1.5-1.1-3-1.9-4.3c-1.6-2.8-3.3-5.4-4.9-8.2
			c-0.5-0.9-1.1-1.9-1.4-2.9c-0.5-1.6,0.3-2.5,2-2.4c1.7,0.1,3.2,0.7,4.5,1.8c0.6,0.6,1.2,1.2,1.9,1.7c0.6,0.4,1.2,0.9,1.9,1.1
			c1.6,0.6,2.8-0.4,2.7-2.1c-0.1-1.2-0.3-2.4-1.1-3.3c-0.9-1.1-1.9-2.3-3-3.2c-1.6-1.4-3.5-2.5-5.2-3.9c-1.4-1.1-2.9-2.2-4.1-3.5
			c-1.7-1.8-1-3.8,1.4-4.2c2.8-0.5,5.5-0.1,7.9,1.6c0.4,0.3,0.8,0.6,1.2,0.9c0.8,0.6,1.6,1,2.5,0.4c0.7-0.5,0.9-1.4,0.4-2.6
			c-0.4-1-0.9-2-1.4-2.9c-2.9-4.7-7.3-7.3-12.4-8.8C119.9,157.8,116.8,157.3,113.6,157.4z M253.9,182.4c-1.7,0-3.8,0.8-4.1,2.4
			c-0.5,2.2-0.3,4.5,1.3,6.2c3.2,3.4,6.5,6.8,9.8,10.1c3.2,3.2,6.4,6.4,9.6,9.6c3,3.1,6,6.3,9,9.5c2.2,2.3,4.3,4.6,6.5,7
			c4.6,5.1,9.2,10.1,13.8,15.2c3.7,4.1,7.6,8.1,11.1,12.4c4.1,5,7.9,10.2,11.9,15.3c1.7,2.2,3.5,4.3,5.3,6.4
			c0.6,0.8,1.4,0.9,2.2,0.5c0.4-0.2,0.8-0.4,1.2-0.6c1.4-0.7,2.8-1.5,4.2-2.2c1.6-0.8,1.7-0.9,0.8-2.5c-0.1-0.1-0.1-0.2-0.2-0.3
			c-3.6-6.5-8-12.5-12.6-18.3c-1-1.2-2-2.5-3-3.7c-0.5-0.6-1-0.9-1.8-0.6c-1.1,0.5-2.1,0.1-3-0.6c-1.8-1.5-3.6-2.9-5.3-4.5
			c-4.6-4.3-9.1-8.9-13.8-13c-5.9-5.2-11.5-10.7-17-16.4c-2.6-2.7-5.1-5.6-7.5-8.6c-4.9-6-9-12.6-12.8-19.4
			C258,183.7,256.3,183,253.9,182.4z M393.9,296.8c0.1,0.3,0.1,0.6,0.3,0.7c0.2,0.1,0.6,0,0.7-0.2c1.2-1.1,2.3-2.2,3.4-3.3
			c1-0.9,1.2-1.9,0.8-3.2c-0.7-2.3-1.4-4.5-2-6.8c-1.8-6.5-1.3-12.9,1.3-19.1c1.5-3.5,3.5-6.9,5.8-9.9c0.9-1.2,0.9-1.3-0.5-1.9
			c-2.1-1-4.1-2.1-6.2-3.2c-5.8-3.4-11.4-7.2-16.7-11.3c-1.5-1.2-2.1-1.1-3.1,0.6c-2.4,3.9-4.8,7.8-7.3,11.7
			c-0.8,1.3-0.8,2.4,0.1,3.7c3.4,4.9,6.7,9.8,10.1,14.7c4.4,6.4,8.8,12.7,13.3,19.1c1.3,1.9,1.7,3.7,0.7,5.8
			C394.4,294.9,394.2,295.9,393.9,296.8z M190.2,475.1c2.3,0.1,4.6-0.5,6.8-1.4c1.7-0.7,3-1.8,4-3.3c1.4-2.1,2.1-4.5,2.2-7
			c0.1-3.2,0.2-6.4,0.2-9.7c0-3.3,0.5-6.5,2.4-9.4c0.7-1,0.5-1.3-0.7-1.6c-2.2-0.5-4.2-1.2-6.2-2.3c-0.9-0.5-1.7-0.5-2.6-0.1
			c-4.8,1.7-9.7,3-14.8,3.8c-1.3,0.2-1.4,0.3-1.6,1.6c-0.3,1.9-1,3.6-2,5.2c-1,1.5-1,1.5,0.5,2.7c1.4,1.1,2.5,2.4,3.4,4
			c2.7,5.1,1.9,9.9-2.4,13.7c-0.9,0.8-0.9,1.1,0.2,1.5C182.9,474.2,186.4,475.1,190.2,475.1z M285,293.6c0.5-0.1,0.6-0.1,0.8-0.2
			c4-1.5,7.9-3,11.9-4.5c0.8-0.3,0.8-0.5,0.2-1.2c-1.7-1.9-3.4-3.8-5-5.8c-4-4.9-7.9-9.9-11.9-14.8c-3.6-4.3-7.4-8.4-11-12.6
			c-1.9-2.1-3.8-4.2-5.6-6.4c-3.2-3.9-6.6-7.8-10.3-11.3c-3-2.9-6.1-5.8-9.1-8.7c-0.2-0.2-0.3-0.4-0.5-0.4c-0.2,0-0.5,0.1-0.6,0.2
			c-0.4,1.7-0.6,3.3,0.6,4.8c2,2.6,3.8,5.4,5.7,8c3.6,4.9,7.2,9.7,10.7,14.7c7.9,11.2,14.6,23.3,21.6,35.1c0.4,0.7,0.8,1.5,1.3,2.2
			C284.1,293.1,284.7,293.4,285,293.6z M449.3,543.8c0.1,0,0.1,0,0.2,0c0,0.3,0,0.6,0,0.8c0.1,9.4,2.4,18.2,5.9,26.8
			c2.3,5.6,5.5,10.6,9.8,14.9c0.3,0.3,0.6,0.7,1,0.9c0.2,0.1,0.5,0.2,0.7,0.2c0.1,0,0.2-0.4,0.2-0.6c0-0.3-0.1-0.7-0.1-1
			c-0.5-4-1.1-8.1-1.5-12.1c-1.1-12-2.2-24-3.2-36c-0.2-2.9-0.4-5.8-0.5-8.6c-0.1-1.3-0.5-2.3-1.7-3.1c-1.7-1.1-3.1-2.6-4.7-3.9
			c-0.3-0.3-0.5-0.6-0.8-0.9c-0.4-0.4-0.7-0.3-0.9,0.2c-0.1,0.3-0.2,0.6-0.4,0.9c-1.6,4.3-2.7,8.8-3.5,13.3
			C449.6,538.4,449.5,541.1,449.3,543.8z M486.2,552.2c0.1-5.4-0.7-11.4-2.8-17.3c-0.4-1.2-1.1-1.8-2.4-2c-1.6-0.2-3.1-0.5-4.7-0.8
			c-1.9-0.4-3.7-0.8-5.6-1.2c-0.9-0.2-1.1-0.1-1.2,0.9c0,1.1,0.1,2.3,0.1,3.4c0.5,7.3,1.1,14.7,1.6,22c0.7,9.4,2,18.7,3.5,27.9
			c0.1,0.4,0.2,0.9,0.3,1.3c0.3,0.8,0.7,0.8,1.2,0.1c0.8-1.3,1.6-2.6,2.4-3.9C483.6,573.4,485.7,563.4,486.2,552.2z M432.1,260
			c-0.7,0.1-1.4,0.3-2.1,0.4c-3,0.4-5.7,1.7-8.4,2.9c-3.6,1.6-6.8,3.7-9.9,6.1c-2.6,2-5.2,3.9-7.9,5.8c-1.4,1-2.1,2.3-1.5,4.1
			c0.2,0.5,0.2,1.1,0.3,1.7c0.6,2.6,1.7,5,2.9,7.4c0.8,1.5,1.6,2.9,1.5,4.6c0,0.8,0.3,0.9,0.9,0.5c2.3-1.5,4.7-2.8,7-4.4
			c3.8-2.7,7.5-5.7,11.3-8.4c3.5-2.5,6.8-5.2,9.8-8.3c1.4-1.5,2.5-3.1,3-5c0.5-2.1,0.4-4-1.5-5.5C435.8,260.6,434.1,260.1,432.1,260
			z M452.5,492.1C452.5,492.1,452.5,492.1,452.5,492.1c-0.6-0.1-1.1-0.1-1.7-0.1c-3.8-0.4-6.7-2.8-7.5-6.3c-0.4-1.6-0.4-3.2-0.1-4.9
			c0.4-1.9,0.4-1.9-1.3-2.6c-0.4-0.2-0.7-0.3-1.1-0.5c-5.8-2.8-8.1-9.9-5.2-14.9c0.6-1,0.4-1.3-0.7-1.4c-0.2,0-0.3,0-0.5,0
			c-3.9-0.3-7.8-0.6-11.7-0.9c-0.5,0-1-0.1-1.5-0.1c-0.4,0-0.6,0.3-0.3,0.7c0.2,0.3,0.5,0.6,0.8,0.9c2.9,3.3,5.7,6.6,8.6,9.8
			c4,4.6,8,9.2,11.5,14.3c1.7,2.5,3.2,5.2,4.8,7.8c0.5,0.9,0.8,1.9,1,2.9c0.4,2.5-1.2,4.2-3.7,4.1c-0.6,0-1.2-0.2-1.8-0.4
			c-0.8-0.3-1.6-0.6-2.4-0.9c-3.9-1.7-7.2-4.2-10.6-6.7c-4.6-3.4-9-7-13.6-10.5c-0.5-0.3-1.1-0.5-1.6-0.7c-0.1,0.6-0.3,1.2-0.3,1.8
			c0.3,3.9,0.2,7.8-0.8,11.6c-0.3,1.1-0.1,1.2,1,1.5c0.3,0.1,0.6,0.1,0.8,0.1c4.4,0.6,8.2,2.4,11.5,5.4c1.4,1.2,2.7,2.4,4.2,3.5
			c3.2,2.4,6.7,4.2,10.8,4.5c4,0.3,8.6-1.4,10-7c0.9-3.4,2.1-6.7,3.9-9.7c0.1-0.2,0.2-0.4,0.3-0.6c0.2-0.6,0.1-0.9-0.6-0.8
			C454.1,492,453.3,492.1,452.5,492.1z M391.1,94.2c1.5,0,3.4-0.4,5.1-1.3c1.9-1.1,3.8-2.2,5.7-3.4c1-0.6,0.9-0.9-0.1-1.5
			c-1.2-0.7-2.1-1.5-2.7-2.7c-1.2-2.7-0.6-5.3,1.6-7.4c1.1-1,1.1-1,0.5-2.3c-0.1-0.2-0.2-0.4-0.3-0.6c-1.9-4.5-0.8-8.1,3.2-10.9
			c0.7-0.5,0.8-0.7,0.1-1.3c-1.4-1.2-2.8-2.4-4.3-3.5c-2.7-2-5-2-7.8-0.2c-2,1.3-3.6,2.9-5.1,4.7c-2.8,3.2-5.1,7-8.5,9.7
			c-0.7,0.5-0.5,1,0,1.6c3.2,3.4,4.9,7.5,6,12c0.3,1.3,0.7,2.6,1.2,3.9C386.6,93.3,388.1,94.2,391.1,94.2z M572.1,504
			c0.7,0,1.4,0,2,0c0.4,0,0.8-0.1,1.1-0.2c-0.1-0.3-0.2-0.7-0.4-1c-2.6-3.7-5.2-7.4-7.8-11.1c-3.2-4.4-6.7-8.6-11.1-11.9
			c-3.1-2.3-6.4-4.2-10.1-5.6c-1.5-0.6-1.7-0.4-2.4,0.9c-2.1,4-4.5,7.9-7.2,11.5c-0.9,1.3-0.9,1.4,0.3,2.3c3.4,2.4,6.6,5,10.1,7.1
			C554.5,500.9,562.9,503.9,572.1,504z M132.7,564.6c0.1,2.8,0.3,5.5,0.5,8.3c0,0.6-0.1,1.5,0.7,1.7c0.2,0.1,0.8-0.8,1-1.4
			c2.9-7.2,6.5-14.1,10.6-20.6c3.6-5.6,5.7-11.8,6.6-18.4c0.4-2.9,0.6-5.7,0.1-8.6c-0.2-1.2-0.7-2-1.9-2.5c-2.5-0.9-4.6-2.4-6.6-4.1
			c-1.7-1.5-1.7-1.5-2.4,0.7c-2.6,7.3-4.2,14.9-5.7,22.5C134.1,549.6,132.8,557.1,132.7,564.6z M491.6,388.7
			c-0.1-0.2-0.2-0.4-0.3-0.4c-0.4-0.2-0.8-0.3-1.3-0.5c-4-1.3-8-2.2-12.2-2.5c-7.3-0.6-14.4,0.4-21.4,2.7c-5,1.6-9.6,4.2-14.4,6.4
			c-7.6,3.5-14.6,8-21.6,12.3c-1.9,1.2-3.8,2.3-5.6,3.5c-0.7,0.4-0.7,0.8,0.1,1c0.8,0.2,1.7,0.4,2.5,0.5c1.7,0.1,3.4-0.3,4.9-1.1
			c1.8-0.9,3.6-1.9,5.4-2.8c4-2.1,8.2-3.8,12.6-5c3.8-1,7.4-0.6,10.7,1.7c0.1,0.1,0.3,0.2,0.4,0.3c0.6,0.5,1,0.4,1.4-0.3
			c0.2-0.4,0.4-0.8,0.7-1.2c2.7-4.4,6.5-7.2,11.5-8.3c1.8-0.4,3.7-0.7,5.5-0.9c4.5-0.3,9-0.7,13.4-2.1c2.4-0.8,4.8-1.8,7.1-2.7
			C491.1,389.1,491.3,388.9,491.6,388.7z M537.3,59.5c0,0,0,0.3,0,0.5c0.3,4.1,2.8,7.2,5,10.4c0.3,0.5,0.8,0.4,1.1,0
			c0.2-0.2,0.3-0.5,0.4-0.7c2-3.2,6.1-3.8,8.9-1.3c0.2,0.2,0.4,0.4,0.6,0.6c0.6,0.7,1.2,0.7,1.9,0.3c0.2-0.1,0.4-0.2,0.6-0.3
			c4-1.8,8.6-1,10.5,2.6c0.5,0.8,0.9,0.8,1.6,0c1-1.3,2-2.6,3-3.9c1.9-2.7,1.9-4.9,0-7.7c-1.3-1.9-3-3.5-4.8-5
			c-3.1-2.5-6.5-4.5-9.2-7.5c-0.7-0.8-1-0.7-2,0.2c-2.9,2.8-6.5,4.4-10.4,5.6c-1.5,0.4-2.9,0.9-4.3,1.5
			C538.3,55.5,537.3,57.2,537.3,59.5z M363.5,219.6c-0.1,6,0.3,11.2,0.8,16.3c0.3,2.6,0.3,5.3,0.5,7.9c0.1,0.8,0.1,1.7,0.5,2.5
			c0.6,1.4,1.6,1.5,2.5,0.2c2.3-3.7,4.6-7.4,6.8-11.1c0.5-0.8,0.6-1.6,0.2-2.4c-1-1.7-0.8-3.5-0.2-5.2c1-2.9,1.9-5.8,3-8.6
			c0.4-1.1,0.7-2.3,0.5-3.5c-0.3-2.5-0.6-5-1-7.5c-0.5-3-1.6-5.8-3.1-8.3c-0.8-1.3-1.8-2.3-3.1-3c-2.3-1.2-4.5-0.4-5.4,1.9
			c-0.5,1.2-0.7,2.6-0.9,3.9C363.7,208.5,363.3,214.5,363.5,219.6z M47.8,486.4c0,0,0,0.1,0,0.1c1.9-0.3,3.8-0.5,5.7-0.8
			c6.2-1.2,12-3.3,17.3-6.8c4.2-2.8,7.6-6.4,10.2-10.7c1-1.7,1.3-3.5,1-5.4c-0.3-1.8-1-2-2.6-1.4c-1.1,0.4-2.2,0.8-3.3,1.2
			c-3.5,1.2-7.1,1.9-10.8,1.4c-1.3-0.1-2.4,0-3.4,0.6c-3.3,1.7-6.5,3.7-8.9,6.7c-3.1,3.8-5.6,8-7.3,12.5c-0.7,1.9-0.3,2.5,1.8,2.5
			C47.5,486.4,47.6,486.4,47.8,486.4z M66.1,456.9c0.7,0,1.4,0,2,0c3.8-0.1,7.4-1.4,11.1-2.3c0.7-0.2,0.8-0.6,0.6-1.1
			c-0.7-1.8-1.3-3.6-2.1-5.3c-0.2-0.4-0.7-0.7-1.2-0.9c-0.6-0.2-1.2-0.3-1.8-0.4c-7-1.3-13.9-2.8-20.6-4.8
			c-7.4-2.2-14.8-4.5-22.2-6.7c-0.6-0.2-1.2-0.4-1.8-0.5c-0.7-0.1-0.9,0.2-0.6,0.9c0.1,0.3,0.2,0.5,0.4,0.7c1.5,1.8,2.9,3.8,4.6,5.4
			c3.6,3.3,7.6,6,11.7,8.7C52.3,454.6,58.9,456.7,66.1,456.9z M550,121.4c0.1,1.9,0.5,3.6,1.7,5.1c0.8,1,1.8,1.8,3.2,1.7
			c1.8,0,3.6-0.1,5.4-0.4c4.8-0.8,9.4-0.4,13.9,1.8c1.2,0.6,1.4,0.5,1.9-0.8c1.2-3.4,3.2-6.2,5.2-9.1c0.6-0.8,1.2-1.6,1.8-2.5
			c1.3-2.2,1.9-4.5,1.1-7c-0.3-1.1-0.9-1.7-2.1-2c-1.5-0.4-3-1-4.5-1.5c-0.7-0.2-1.3-0.6-2-0.9c-1.1-0.4-1.3-0.3-1.7,0.7
			c-0.1,0.2-0.1,0.3-0.2,0.5c-0.9,2.4-2.6,3.9-5.1,4.5c-0.6,0.1-1.2,0.3-1.8,0.2c-1.3-0.1-2,0.5-2.3,1.7c-0.2,0.7-0.5,1.4-1,2
			c-1.5,2.2-3.6,3.3-6.4,3.1c-1.2-0.1-2.2-0.9-3.2-1.5c-1.5-0.9-2.6-0.6-3.2,1C550.3,119.3,550.2,120.4,550,121.4z M437.8,46.7
			c-0.2-0.5-0.4-1.2-0.8-1.7c-0.9-1.3-2.1-2.2-3.6-2.7c-2.7-1.1-5.5-2-8.5-2.3c-3.6-0.3-6.7-1.6-9.3-4c-1.1-1-1.2-0.9-2,0.4
			c-1.1,2-2.7,3.6-4.4,5.1c-0.9,0.7-1.8,1.4-2.6,2.1c-1.9,1.6-3.1,3.6-3.6,6c-0.5,2.5,0,4.7,2,6.4c0.8,0.7,1.6,1.3,2.3,1.9
			c1.1,0.9,1.2,0.8,1.8-0.4c0.5-1.3,1.3-2.4,2.6-3.1c2.5-1.4,5.1-1.4,7.6-0.1c1.5,0.8,1.5,0.9,2.7-0.4c2.8-3.1,8.5-4,11.8-0.5
			c0.8,0.8,1.1,0.7,1.6-0.4c0.7-1.6,1.4-3.2,2.1-4.8C437.6,47.8,437.6,47.3,437.8,46.7z M119.2,550.4c0,3.6,0.5,9.2,1.7,14.7
			c1,4.7,2.6,9.1,4.9,13.3c0.3,0.5,1,1.4,1.3,1.3c0.8-0.3,0.4-1.1,0.4-1.8c-0.2-3.7-0.6-7.3-0.6-11c0-14,2.6-27.7,6.3-41.1
			c0.2-0.9,0.6-1.7,0.8-2.6c0.3-1.1,0-1.3-1.1-1.1c-2.2,0.3-4.5,0.7-6.7,0.9c-1.4,0.1-2.2,0.7-2.7,2
			C120.3,532.5,119.2,540.3,119.2,550.4z M46.6,424.6c-0.7,0-1.5,0-2.2,0c-4.4,0.1-8.8,0.7-13,2.3c-0.6,0.2-1.6,0.6-1.6,1
			c-0.1,0.9,1,0.9,1.6,1.1c6.4,2,12.8,3.9,19.1,5.9c6.2,1.9,12.5,3.6,18.9,5c0.6,0.1,1.1,0.2,1.7,0.3c0.5,0,0.8-0.1,0.5-0.7
			c-0.1-0.1-0.2-0.3-0.3-0.4c-1.2-1.9-0.5-3.9,1.6-4.6c0.6-0.2,1.3-0.2,2-0.3c1.7-0.2,3.5-0.4,5.2-0.7c0.3,0,0.5-0.3,0.8-0.5
			c-0.2-0.2-0.3-0.4-0.6-0.6c-3.1-2-6.3-3.8-9.9-4.7C62.7,425.4,54.6,425,46.6,424.6z M579.2,69.9c-2,0.1-3.7,0.7-4.9,2.2
			c-0.6,0.7-1.2,1.5-1.8,2.3c-0.8,1-0.7,1.4,0.5,1.9c3.3,1.2,5,5.5,3.2,9.3c-0.8,1.7-0.8,1.7,0.5,3c1.3,1.3,2.2,2.8,2.5,4.7
			c0.4,2.3-0.2,4.3-1.7,6.2c-0.8,1-0.7,1.4,0.4,1.9c1.4,0.6,2.9,1.2,4.4,1.8c1.5,0.5,2.9,0.2,3.9-1c0.8-0.9,1.6-2,2-3.1
			c0.8-2.6,1.6-5.2,1.9-7.9c0.3-3.5,1.4-6.5,3.6-9.2c0.8-1,0.8-1.4-0.4-2c-2.4-1.3-4.3-3.2-6-5.2c-0.7-0.8-1.4-1.6-2.2-2.4
			C583.4,70.9,581.3,70.2,579.2,69.9z M196.2,387.2c1.7-0.1,3-0.6,4.1-1.9c2.8-3.2,5.9-6.1,9.2-8.8c1.2-1,2.5-2,3.7-2.9
			c0.2-0.1,0.3-0.3,0.4-0.5c-0.2,0-0.5-0.1-0.7-0.1c-0.2,0-0.3,0.1-0.5,0.1c-11.3,1.9-22.7,2.4-34.1,2.5c-1,0-1.9,0-2.8,0.3
			c-2,0.6-4,2.4-3.6,5.1c0.1,0.9,0.6,1.8,1.1,2.6c1.9,2.5,4.5,3.4,7.5,3.6C185.5,387.6,192.4,387.4,196.2,387.2z M547.5,134.7
			c0.4-1,0-2-1-2.8c-0.3-0.2-0.5-0.6-0.8-0.9c-0.7-0.8-0.9-0.7-1.2,0.2c-0.1,0.2-0.1,0.3-0.1,0.5c-2.9,9.4-5.8,18.8-8.6,28.2
			c-3.3,11.1-6.3,22.2-8.1,33.6c-0.1,0.6,0,1.1,0,1.7c0.4-0.4,0.9-0.9,1.2-1.4c7.5-12,12.7-25,16-38.7
			C546.5,148.6,546.9,141.8,547.5,134.7z M180.6,312.4c2.5-0.4,4.9-0.7,7.3-1c1.5-0.2,1.8-0.5,1.9-2.1c0.3-2.9,0.4-5.9,0.8-8.8
			c0.6-4.3,1.2-8.6,2-12.9c0.7-3.5,1.6-7,2.5-10.5c0.2-0.7,0.4-1.3-0.1-1.9c-1.7-2-3.5-4-5.2-6c-0.5-0.6-0.8-0.6-1.1,0.2
			c-0.9,2.3-1.8,4.5-2.5,6.8c-2.7,8.9-4.3,18.1-5.5,27.3c-0.3,2.5-0.8,5-1.2,7.5C179.4,312.2,179.7,312.5,180.6,312.4z M395.4,102
			c0.5,1.1,0.8,2.2,1.3,3.1c0.8,1.4,1.7,2.7,2.5,4c2,3.1,4.2,6.2,5.6,9.7c0.3,0.7,0.8,0.5,1.3,0.4c1.8-0.5,3.6-0.9,5.4-1.3
			c2-0.5,3.9-1,5.8-1.7c0.8-0.3,1.8-1,2.2-1.7c1.6-2.6,3.1-5.4,4.6-8.1c0.1-0.2,0-0.4,0-0.6c-0.2,0-0.3,0-0.5,0
			c-0.2,0.1-0.4,0.2-0.6,0.2c-4.1,1.4-7.2,0.2-9.2-3.6c-0.7-1.3-0.7-1.3-2.1-1c-3.9,0.8-6.6-0.9-7.4-4.7c0-0.1,0-0.1,0-0.2
			c-0.3-1.3-0.4-1.4-1.5-0.8c-1,0.5-2,1-2.9,1.7c-1.1,0.8-2.2,1.5-3.2,2.5C396.1,100.4,395.8,101.2,395.4,102z M196.3,493.2
			c-0.2,0.4-0.4,0.7-0.5,1.1c-0.7,2.4-1.6,4.7-2.9,6.8c-1,1.7-2.1,3.3-3.2,5c-0.8,1.2-0.8,1.4,0.5,2.1c1.6,0.9,3.1,1.8,4.8,2.5
			c5.3,2.3,10.9,3.8,16.5,5.2c1.9,0.5,3.8,1.1,5.7,1.6c0.7,0.2,1.7,0.6,2,0.4c0.7-0.7-0.1-1.4-0.5-2.1c-2.5-4.7-5.5-9.1-8.9-13.2
			c-3.3-3.9-7.2-7-12-9C197.4,493.6,196.9,493.4,196.3,493.2z M465.4,56.5c-0.4-0.2-0.6-0.4-0.9-0.5c-3.9-1.5-7.2-3.9-10.5-6.5
			c-1.1-0.9-2.4-1.7-3.7-2.3c-1.8-0.9-3.7-0.8-5.6-0.2c-0.7,0.2-1.3,0.6-1.6,1.4c-0.9,2.5-1.9,4.9-2.9,7.4c-0.4,1.1-0.4,1.2,0.7,1.5
			c3.3,1.1,5.2,3.5,5.3,7.1c0,0.3,0,0.7,0,1c-0.1,0.9,0.3,1.4,1.1,1.6c2.6,0.8,4.4,2.4,5.5,4.9c0.4,1,0.7,1,1.7,0.5
			c1.8-0.9,3.7-1.8,5.5-2.6c0.7-0.3,1.5-0.6,2.2-0.8c0.7-0.2,0.7-0.6,0.3-1.1c-0.4-0.4-0.8-0.8-1.1-1.3c-0.9-1-1.8-2-2.6-3.1
			c-1-1.3-0.9-2.2,0-3.6c0.6-0.9,1.4-1.6,2.5-2c1.1-0.4,2.3-0.7,3.4-1.1C464.9,56.9,465.1,56.8,465.4,56.5z M482.1,126
			C482.1,126,482.1,126,482.1,126c2.6,0,5.2-0.1,7.8-0.3c3.6-0.3,7.1-0.9,10.4-2.4c1.2-0.5,2.4-1.3,3.5-2c1-0.6,1.3-1.6,1-2.8
			c-1-4.1-3-7.7-5.4-11c-0.8-1.1-1.7-1.4-3.1-1c-4.4,1.3-8.2,3.6-11.1,7.1c-2.7,3.1-4.8,6.7-6.6,10.4c-0.2,0.5-0.4,0.9-0.6,1.4
			c-0.2,0.6-0.1,0.9,0.6,0.8C479.7,126.1,480.9,126.1,482.1,126z M495.2,38.1c0.1,0.9,0.2,2.1,0.3,3.4c0.5,4.8,1.8,9.3,4.6,13.3
			c0.6,0.9,1.4,1.6,2.4,1.9c4.9,1.8,9.3,4.5,13.3,7.9c0.5,0.4,1,0.7,1.5,1c0.1-0.6,0.3-1.2,0.3-1.8c-0.3-5.5-1.7-10.6-4.9-15.1
			c-4-5.6-8.5-10.5-15.4-12.6C495.3,35.5,495.1,35.6,495.2,38.1z M527.3,93.4c0.1-0.1,0.6-0.1,0.7-0.3c0.1-0.2,0-0.6-0.1-0.9
			c-0.2-0.4-0.4-0.7-0.6-1c-1.5-2.7-1.1-5.6,1.1-7.8c0.6-0.6,1.3-1,2.1-1.5c0.8-0.4,1.1-1,0.8-1.8c-0.1-0.4-0.2-0.8-0.3-1.2
			c-0.4-2.5,0.6-4.5,2.9-5.6c0.6-0.3,1.3-0.5,1.9-0.7c0.8-0.3,1-0.6,0.6-1.4c-1-1.6-2-3.3-3.1-4.8c-1.5-2-2.3-2.2-4.7-1.3
			c-1.5,0.6-2.9,1.4-4.2,2.2c-3.6,2.4-7,5.1-11.1,6.8c-1.3,0.5-1.5,1.5-0.6,2.6c1,1.3,2.1,2.5,3.2,3.7c1.3,1.5,2.8,2.8,4,4.4
			c1.8,2.3,3.5,4.7,5.2,7.1C525.6,92.7,526.1,93.4,527.3,93.4z M566.8,183.9c-0.3-2-0.6-3.9-0.9-5.9c-1.7-10-3.8-20-6.1-29.9
			c-0.9-4-2.1-7.9-3.2-11.8c-0.1-0.4-0.6-0.7-0.9-1.1c-0.3,0.3-0.8,0.6-1,1c-0.6,1.9-1.2,3.8-1.5,5.7c-0.4,2.4-0.5,4.8-0.9,7.2
			c-0.3,2-0.4,4.1,0,6.1c0.4,2.2,0.8,4.4,1.4,6.5c2.4,8.1,6.5,15.4,11.7,22c0.1,0.2,0.3,0.4,0.4,0.5c0.3,0.2,0.6,0.3,0.8,0.4
			C566.7,184.4,566.8,184.2,566.8,183.9z M469.7,435.1c0.3,2.1,0.6,4.4,0.9,6.6c0.3,1.6,0.6,1.8,2.1,1.8c3.9,0.2,7.4,1.5,10.3,4.2
			c1.1,1,1.2,1,2.3,0.2c3.4-2.2,5.9-5.2,7.7-8.9c0.7-1.5,0.9-3.1,0.5-4.8c-0.5-2.2-1.7-3.2-3.9-3.3c-0.7,0-1.5,0.1-2.2,0.2
			c-1.4,0.3-2.5,1.2-3.5,2.2c-2,2.2-5.1,1.7-6.5-1c-0.3-0.6-0.5-1.4-0.8-2.1c-0.4-1-0.8-2-1.4-2.9c-0.9-1.5-2.1-1.6-3.4-0.4
			c-0.9,0.9-1.5,2-1.7,3.2C470.1,431.8,470,433.4,469.7,435.1z M296.8,182.7c-1.5,0-2.9,0-4.4,0c-0.6,0-1.3,0.1-1.9,0.2
			c0.3,0.6,0.6,1.2,0.9,1.7c2.7,3.9,6.3,6.9,10,9.8c2.7,2.2,5.8,3.6,9.2,4.4c2.7,0.6,4.8-0.1,6.3-2.4c0.3-0.5,0.6-0.9,0.9-1.4
			c1.2-2.8,1.9-5.7,2.4-8.6c0.1-0.6-0.1-1-0.7-1.1c-0.7-0.1-1.4-0.3-2.2-0.4C310.5,183.6,303.7,182.6,296.8,182.7z M502.7,449.7
			c-5.4,0.1-9.9,2.4-13.9,5.6c-0.5,0.4-0.8,0.9-0.7,1.6c0.5,2.7,0.3,5.3-0.5,7.9c-0.2,0.7,0,1.2,0.6,1.6c2.2,1.3,4.3,2.8,6.5,3.9
			c1.5,0.8,3.2,1.2,4.8,1.6c1.3,0.3,2.6,0,3.8-0.6c1.7-0.8,2.5-2.5,2.1-4.2c-0.4-1.5-1.1-2.7-2.4-3.5c-0.4-0.3-0.9-0.5-1.3-0.8
			c-2.3-1.7-2.3-4.8,0-6.5c0.7-0.5,1.6-0.9,2.4-1.3c0.9-0.5,1.9-0.9,2.7-1.5c1.4-1.1,1.1-2.7-0.6-3.2
			C505,450,503.8,449.9,502.7,449.7z M170.1,444.8c-2.2-0.4-4.3,0.4-6,1.8c-1.9,1.5-3.7,3.1-5.6,4.7c-0.5,0.4-0.9,1-1.3,1.5
			c-0.5,0.6-0.6,1.3-0.2,2c1.3,2.3,1.8,4.7,1.8,7.3c0,0.7,0.2,1.4,0.9,1.7c2.7,1.3,5.4,2.8,8.5,3.4c1.8,0.4,3.6,0.1,5.3-0.6
			c3.4-1.4,4.3-5,1.8-7.7c-1.1-1.2-2.6-2-3.9-2.9c-0.6-0.5-1.4-0.8-2-1.3c-1.5-1.3-1.6-3-0.3-4.5c0.6-0.7,1.5-1.2,2.1-1.9
			c0.7-0.8,1.3-1.7,1.8-2.6c0.3-0.5,0-1-0.7-1.1C171.7,444.8,171,444.8,170.1,444.8z M576.2,166.8c-0.2-7.8-2.3-15.9-6.1-23.5
			c-1.2-2.4-2.7-4.6-4.1-6.9c-0.3-0.5-0.7-1.1-1.2-1.1c-0.8-0.2-1.8-0.2-2.4,0.1c-0.8,0.4-0.2,1.3,0,2c4.5,14.7,7.1,29.9,9.4,45.1
			c0.1,0.6-0.1,1.4,0.6,1.5c0.3,0,0.8-0.8,1-1.4C575.3,177.9,576.1,172.8,576.2,166.8z M474,21.5c0-0.7-0.3-0.9-1.1-0.6
			c-0.5,0.2-1,0.5-1.5,0.8c-4.8,2.6-8.5,6.4-11.4,10.9c-1.9,2.8-3.4,5.9-4.9,8.9c-0.7,1.4-0.5,1.6,0.7,2.5c0.6,0.5,1.3,1,1.9,1.4
			c1.4,1,2.7,2,4.1,3c1.1,0.8,1.3,0.7,2.4-0.2c1.7-1.3,3-2.9,4-4.8c1.6-3.1,3.1-6.3,3.8-9.8c0.4-2.2,0.8-4.3,1.2-6.5
			C473.4,25.3,473.7,23.5,474,21.5z M140,481.3c0.1-1.3,0.1-2.2,0.2-3.1c0.1-0.8-0.3-1.3-1-1.5c-0.6-0.2-1.2-0.5-1.7-0.7
			c-2.5-1.2-4.5-3-5.9-5.4c-0.4-0.7-0.8-1.4-1.8-1.1c-1.9,0.6-3.9,1.1-5.8,1.9c-2.3,1-4.4,2.4-5.6,4.8c-0.9,1.8-0.7,3.3,0.9,4.5
			c0.8,0.6,1.8,1,2.7,1.2c1.2,0.3,2.5,0,3.6-0.5c2.4-1,4.3,0.7,4.5,3c0.1,0.8,0,1.7,0,2.5c0,1.7,0.6,3.1,1.7,4.3
			c1.6,1.7,3.9,1.6,5.2-0.4c0.3-0.4,0.5-0.9,0.8-1.3C139.3,486.8,140.4,484.1,140,481.3z M477.3,59.6c-2.2,0.2-4.4,0.2-6.6,0.5
			c-1.5,0.2-3,0.5-4.4,1.1c-1.4,0.5-1.4,1.7-0.3,2.6c0.8,0.7,1.7,1.4,2.4,2.1c0.9,1,1.8,1.1,3,1c2.7-0.4,5.5-0.8,8.2-1
			c6.6-0.3,12.9,1,19,3.7c1.9,0.8,3.7,1.7,5.5,2.6c0.9,0.4,1,0.4,1.2-0.7c0.3-1.6,1-2.1,2.6-2c0.4,0,0.8,0.2,1.2,0.2
			c0.7,0,1.4-0.1,2.1-0.3c0.4-0.1,0.5-0.5,0.2-0.8c-0.2-0.2-0.5-0.5-0.8-0.7c-2.8-2.2-5.9-4-9.4-5C493.4,60.8,485.5,59.7,477.3,59.6
			z M440,448.2c0.2,1.7,0.8,3.3,2.6,4.3c2,1.1,4.1,1.6,6.3,1.9c2,0.3,3.9,0.5,5.9,0.8c1.3,0.2,1.3,0.2,1.8-0.9
			c1.2-3.1,3.2-5.6,5.9-7.5c1-0.7,1-0.8,0.5-2c-0.9-2-1.7-3.9-2.8-5.8c-0.8-1.5-1.9-2.8-3-4.1c-0.7-0.8-1.8-1.4-2.7-2
			c-0.6-0.4-1.3-0.3-1.9,0.3c-1.5,1.4-2.1,4.2-1.4,6.1c0.3,0.8,0.7,1.6,0.9,2.4c0.6,2.3-1,4.6-3.4,4.6c-0.9,0-1.7-0.3-2.6-0.6
			c-0.6-0.2-1.2-0.6-1.9-0.8C441.8,444.1,440,445.5,440,448.2z M409.9,423.9c-0.1-2.1-0.3-4.1-1.8-5.7c-0.5-0.5-0.7-1.3-0.9-2
			c-0.2-0.7-0.4-1-1.1-0.5c-4.2,2.7-8.4,5.5-12.6,8.2c-0.6,0.4-0.8,0.8-0.3,1.5c4.2,5.9,8.3,11.8,12.5,17.7c0.2,0.2,0.3,0.5,0.5,0.6
			c0.2,0.1,0.6,0,0.6-0.1c0.1-0.3,0.2-0.6,0.2-1c0.3-2,0.6-3.9,0.9-5.9C408.5,432.5,409.2,428.2,409.9,423.9z M365.6,28.3
			c-0.1,0-0.3,0.1-0.5,0.1c0.1,0.2,0.1,0.6,0.3,0.7c0.9,0.8,1.8,1.7,2.8,2.4c8.7,6.8,17.6,13.2,26.7,19.5c0.3,0.2,0.6,0.4,0.9,0.5
			c0.5,0.2,0.9,0.2,0.9-0.5c0-1.9,0.5-3.7,1.5-5.3c0.3-0.5,0.1-1-0.3-1.4c-0.5-0.6-1.1-1.2-1.5-1.8c-2.7-3.8-6.3-6.5-10.4-8.5
			C379.7,30.9,372.6,30.1,365.6,28.3z M462.9,460.4c-0.2,4.6,3.9,8.6,8.7,8.8c4.9,0.1,9.1-3.8,9.3-8.9c0.2-4.8-3.8-8.9-8.6-9.1
			C467.1,451,462.7,455.3,462.9,460.4z M608.8,136.9c0.9,0,1-0.2,0.6-1c-0.2-0.5-0.5-0.9-0.8-1.3c-2.9-4.8-7-8.2-11.7-11
			c-2.4-1.4-5-2.5-7.6-3.7c-0.7-0.3-1.4-0.4-2,0.4c-1.3,1.9-2.7,3.8-4,5.7c-0.4,0.6-0.4,1.1-0.1,1.7c1.2,2,2.6,3.9,4.7,5
			c3,1.6,6.1,2.9,9.5,3.3C601.2,136.2,605,136.5,608.8,136.9z M119.8,465.2c3.3,0.1,5.5-0.9,7.9-1.5c1.2-0.3,1.8-0.9,1.9-2.2
			c0.2-2.5,1.1-4.7,2.5-6.8c0.8-1.2,0.8-1.4-0.2-2.5c-1.2-1.3-2.5-2.6-3.8-3.9c-1.5-1.5-3.3-2.6-5.3-3.3c-1.3-0.5-2.5-0.5-3.8,0.1
			c-1.2,0.6-1.7,1.4-1.2,2.6c0.4,1.1,1.1,2.2,1.8,3.2c0.4,0.7,1,1.2,1.5,1.9c1.3,2,0.4,4.2-1.8,4.8c-0.6,0.2-1.3,0.2-2,0.3
			c-1.1,0.2-2.3,0.4-3.3,0.8c-1.1,0.4-2.3,1-2.3,2.5c0,1.3,1,2,2.1,2.5C115.9,464.6,118.2,465.1,119.8,465.2z M148.1,481.6
			C148.2,481.6,148.2,481.6,148.1,481.6c0.1,1.4,0.1,2.7,0.3,4.1c0.2,1.3,0.4,2.7,0.9,3.9c1.1,2.6,4.5,3.2,6.5,1.2
			c1.5-1.4,1.9-3.3,1.9-5.3c0-0.7-0.2-1.4-0.1-2c0.2-2,1.9-3.2,3.8-2.7c0.8,0.2,1.5,0.6,2.2,0.9c0.8,0.3,1.6,0.6,2.4,0.7
			c1.3,0.1,2.1-0.8,1.8-2c-0.3-1.1-0.8-2.1-1.4-3c-1.6-2.2-3.5-4-5.7-5.6c-0.9-0.6-1.9-1.1-2.8-1.6c-0.8-0.4-1.4-0.3-1.9,0.4
			c-1.8,2.6-4.1,4.5-7,5.7c-0.8,0.3-1,1-1,1.8C148.2,479.3,148.1,480.5,148.1,481.6z M546.9,450.7c0.4-0.1,0.7-0.2,1-0.4
			c3.9-1.8,7.4-4.1,10.4-7.2c4.7-5,8-10.9,10.6-17.2c0.1-0.2,0.1-0.3,0.2-0.5c0-0.2,0-0.3,0-0.5c-0.2,0-0.4,0-0.6,0.1
			c-0.2,0.1-0.4,0.3-0.6,0.4c-4.8,3.3-9.6,6.6-14.3,10c-3.6,2.5-7.2,5.1-10.7,7.7c-1.1,0.8-1.2,1-0.5,2.1c1.2,1.7,2.5,3.4,3.8,5
			C546.3,450.4,546.7,450.5,546.9,450.7z M389.3,149.8c0.5,2.4,1,5,1.6,7.6c0.1,0.5,0.4,1,0.6,1.5c0.3-0.5,0.7-1,0.9-1.5
			c3.5-9.9,7.5-19.6,11.9-29.2c0.2-0.4,0.4-0.8,0.5-1.2c0.1-0.2,0-0.4,0.1-0.6c-0.2,0-0.4,0-0.6,0.1c-2.4,0.7-3.6-0.2-3.6-2.6
			c0-0.7-0.1-1.4-0.2-2c-0.1-0.5-0.5-0.6-0.9-0.3c-0.3,0.2-0.6,0.5-0.9,0.8c-2.2,2.3-3.8,5-4.7,8c-1.3,4.2-2.4,8.5-3.5,12.8
			C390,145.2,389.7,147.4,389.3,149.8z M435.2,316.7c-0.2-0.4-0.3-0.9-0.5-1.3c-0.4,0.2-1,0.3-1.3,0.5c-2.7,2-5.3,4.1-7.9,6.1
			c-1,0.8-1.6,1.7-1.8,2.9c-1.2,5.5-2.5,11-3.8,16.5c-0.1,0.2-0.1,0.4-0.2,0.7c-0.2,1,0.1,1.2,1.1,0.9c0.2,0,0.3-0.1,0.5-0.2
			c2.9-1,5.6-2.4,8.3-3.8c0.9-0.5,1.3-1.1,1.5-2.1c0.7-3.2,1.6-6.4,2.3-9.6C434,323.8,434.6,320.3,435.2,316.7z M536.7,133.4
			c-2.1,0.1-2.4,0.2-2.6,2.6c-0.1,1.3-0.3,2.7-0.6,4c-2.7,14.7-8.3,28.1-17.3,40.1c-1,1.3-1.1,2.4-0.4,3.7c1.5,3.1,3,6.2,4.5,9.3
			c0.3,0.5,0.7,1,1,1.5c0.2-0.6,0.5-1.1,0.6-1.7c2.1-13,5.6-25.6,9.4-38.2c2-6.7,4.2-13.3,6.2-19.9c0.1-0.4,0.3-0.8,0.3-1.1
			c0-0.2-0.3-0.5-0.5-0.5C537.3,133.2,537,133.3,536.7,133.4z M451,464c0-0.1,0-0.1,0-0.2c-1.2,0-2.5,0-3.7,0
			c-1.4,0-2.7,0.5-3.8,1.3c-1.8,1.3-2,3.6-0.4,5.1c0.6,0.6,1.4,1.1,2.2,1.3c1.1,0.3,2.3,0.4,3.5,0.3c1.7-0.1,3.2,0.2,4.1,1.8
			c1,1.6,0.7,3.1-0.2,4.6c-0.5,0.8-1,1.6-1.5,2.5c-0.3,0.7-0.6,1.4-0.6,2.1c-0.2,1.3,0.4,2,1.7,1.9c1-0.1,2-0.3,2.9-0.7
			c3.8-1.8,6.2-4.8,7.9-8.5c0.3-0.7,0.3-1.2-0.4-1.7c-3.2-2.1-5.3-5-6.4-8.7c-0.3-0.9-0.7-1.2-1.6-1.1C453.5,464,452.2,464,451,464z
			 M470.1,487.9c0.1,1.7,0.6,3.1,2.3,3.9c1.5,0.7,2.7,0.3,4.2-1.2c1.2-1.3,2.1-2.8,2.6-4.5c1.1-3.4,4.3-4.2,6.9-1.8
			c0.7,0.7,1.4,1.5,2.2,2.1c0.6,0.5,1.3,0.9,2,1.1c0.9,0.3,1.6-0.2,1.7-1.1c0.1-0.6,0.1-1.3-0.2-1.8c-0.5-1.3-1-2.5-1.7-3.6
			c-1.8-2.8-4.3-5-6.9-7.2c-0.7-0.6-1.3-0.6-2.1-0.1c-2.1,1.5-4.4,2.4-6.9,2.7c-0.9,0.1-1.3,0.6-1.5,1.3c-0.6,2.2-1.3,4.3-1.9,6.5
			C470.5,485.4,470.3,486.6,470.1,487.9z M143.6,471.4c4.4,0.1,8.1-3.3,8.3-7.7c0.2-4.6-3.3-8.4-7.8-8.5c-4.4-0.2-8.3,3.4-8.5,7.8
			C135.4,467.5,139.2,471.6,143.6,471.4z M389.2,53.9c-0.5-0.4-1-0.8-1.5-1.2c-6.3-4.6-12.7-9.1-18.9-13.8c-3.1-2.3-6-5-9-7.5
			c-0.2-0.2-0.6-0.2-0.9-0.3c0,0.3,0,0.6,0.1,0.8c1,2,1.9,4.1,3,6.1c5.1,8.8,12.3,15.2,21.6,19.4c0.6,0.3,1.2,0.3,1.7-0.2
			c1.1-0.9,2.2-1.8,3.3-2.7C388.8,54.5,388.9,54.3,389.2,53.9z M198.9,308.4c0,1.1,0.3,1.5,1.4,1.4c2.5-0.2,5.1-0.6,7.6-0.9
			c0.6-0.1,0.9-0.4,0.8-1.1c-0.1-1-0.1-2-0.2-3c-0.5-3.9-0.1-7.8,0.3-11.7c0.2-1.9,0.6-3.7,0.8-5.5c0.2-1.6-0.4-2.3-1.9-2.8
			c-1.1-0.3-2.2-0.7-3.3-0.9c-0.3-0.1-1-0.1-1.3,0.4c-1,1.7-1.7,3.6-2.1,5.4C200,295.7,198.9,308,198.9,308.4z M446.6,517.1
			c-1.4,0.1-2.7,0.4-3.5,1.7c-0.8,1.4-1.8,2.6-2.6,4c-2.9,5.4-5.8,10.8-8.4,16.3c-1.5,3-2.5,6.2-3.6,9.3c-0.4,0.9-0.5,2-0.8,3
			c0,0.1,0,0.3,0.1,0.5c0.2,0,0.4,0,0.6-0.1c0.3-0.3,0.6-0.6,0.9-1c2-2.2,3.9-4.4,6-6.5c1.8-1.8,3.8-3.4,5.8-5
			c0.8-0.7,1.3-1.3,1.4-2.4c0.7-6.2,2.3-12.1,4.3-17.9c0.1-0.4,0.3-0.7,0.4-1.1C447.3,517.4,447.2,517,446.6,517.1z M559.9,420.2
			c-3.9,0.6-8,1-12.1,1.9c-5.6,1.2-10.5,4.1-15,7.6c-1,0.8-1,1,0,1.7c1.8,1.2,3.2,2.8,4.5,4.6c0.9,1.2,0.9,1.2,2.1,0.3
			c2.5-1.8,4.9-3.6,7.4-5.4c4.6-3.2,9.2-6.2,13.7-9.4c0.4-0.3,0.7-0.7,1-1C561.2,420.5,560.7,420.4,559.9,420.2z M292.2,365.2
			c0.8,0.1,1.3-0.3,1.7-0.9c2.5-4.1,5.1-8.3,7.6-12.5c0.1-0.2,0.1-0.5,0.2-0.8c-0.3,0-0.5,0-0.8,0c-3,1-5.9,2-8.8,2.9
			c-6.4,2-12.8,4.1-19.3,6.1c-0.3,0.1-0.5,0.2-0.8,0.3c-0.1,0.1-0.3,0.3-0.3,0.4c0,0.1,0.2,0.3,0.3,0.3c0.4,0.1,0.8,0.2,1.1,0.3
			c3.5,0.8,7.1,1.6,10.6,2.3C286.6,364.3,289.4,364.7,292.2,365.2z M109.6,373.6c0-0.1-0.1-0.5-0.2-0.8c-1.4-6.8-2.7-13.7-4.1-20.5
			c-0.5-2.4-1.3-4.8-2.1-7.2c-0.1-0.4-0.5-0.8-0.8-1.2c-0.1,0.5-0.4,0.9-0.4,1.4c0,4.4,0.2,8.7,0.1,13.1c-0.1,2.9-0.3,5.8-0.8,8.6
			c-0.8,3.9-1.9,7.7-2.9,11.5c-0.1,0.6-0.1,1.2-0.1,1.8c0.5-0.1,1.1-0.2,1.6-0.4c1.6-0.8,3.3-1.6,4.9-2.4c1.3-0.6,2.5-1.3,3.8-2
			C109.3,375.2,109.7,374.7,109.6,373.6z M377.5,127.6c4-0.1,7.7-1.2,11.4-2.5c1-0.4,1.6-0.9,2.2-1.7c1.6-2.5,3-5.1,5.5-6.8
			c0.5-0.3,0.5-0.7,0.3-1.2c-0.5-1.1-1.1-1.5-2.5-1.2c-2.9,0.6-5.9,1.2-8.7,2.1c-5.5,1.7-10.1,5.1-14.2,9c-0.9,0.9-0.8,1.3,0.4,1.5
			C373.7,127.2,375.6,127.4,377.5,127.6z M133.6,435.4c0.1,2.3,0.9,4.4,1.9,6.5c0.9,1.9,1.7,3.9,2.6,5.9c0.3,0.7,0.7,0.8,1.3,0.6
			c1-0.3,2.1-0.6,3.1-0.8c2.3-0.3,4.5-0.1,6.7,0.6c1.6,0.5,1.8,0.5,2.8-1c0.4-0.7,0.8-1.3,1.2-2c1.4-2.4,1.4-2.4-1.2-3.3
			c-5.9-2-11.3-4.8-15.9-9.1c-0.1-0.1-0.2-0.2-0.4-0.3c-0.8-0.6-1.3-0.5-1.6,0.5C133.9,433.7,133.8,434.6,133.6,435.4z M420.1,542.7
			c0,0.6,0,1.2,0,1.9c0,0.6,0.2,1.2,0.2,1.8c0.3-0.5,0.7-1,0.9-1.6c2.1-6.2,4.6-12.2,7.7-17.9c1.7-3.1,3.7-6.1,5.6-9.1
			c0.6-1,0.6-1.2-0.4-1.7c-1.6-0.8-3.3-1.5-4.9-2.3c-1-0.5-1.1-0.5-1.7,0.6c-0.8,1.5-1.7,2.9-2.4,4.5
			C421.6,526.4,420.5,534.5,420.1,542.7z M409.9,335.3c0-1-0.5-1.4-1.3-0.9c-3.1,1.8-6.3,3.6-9.3,5.6c-0.5,0.3-1,1-1.1,1.6
			c-1.1,3.4-2,6.8-3,10.3c-0.3,1,0,1.2,1,0.9c0.2-0.1,0.4-0.2,0.6-0.2c3-1.2,6-2.5,8.9-3.7c1.1-0.4,1.7-1.1,1.9-2.3
			c0.7-3.5,1.4-7,2.1-10.5C409.8,335.8,409.9,335.5,409.9,335.3z M270.2,297.6c0.8-0.1,0.9-0.5,0.4-1c-0.5-0.6-1-1.1-1.5-1.6
			c-6.9-6.2-12.6-11.1-19.7-17c-3.5-2.9-8.8-5.8-12.9-7.8c-0.8-0.4-1.4-0.6-2.3-0.7c-0.4-0.1-0.8-0.1-0.8,0.1
			c0.1,0.4,6.3,5.3,8.6,7.2c3.5,2.8,7.1,5.5,10.6,8.4c2.7,2.2,5.4,4.5,8.1,6.7c1.7,1.4,3.5,2.9,5.3,4.2
			C267,296.5,269,297.8,270.2,297.6z M412.7,124.3c-0.8-0.1-1.8,0.3-2.3,1.6c-0.2,0.6-0.6,1.1-0.9,1.6c-5.4,10.1-9.1,21-12.7,31.9
			c-0.1,0.3-0.2,0.6-0.3,1c0,0.5,0.2,0.8,0.7,0.5c2.1-1.2,3.7-2.7,4.7-5c0.8-2,1.6-4,2.3-6c1.7-5.2,3.5-10.4,5.8-15.4
			c1.3-2.9,2.6-5.9,3.9-8.8C414.5,124.6,414.2,124.3,412.7,124.3z M116.5,420.1c0,1.2,0.4,2.2,1.2,3.1c0.7,0.8,1.5,1.5,2.3,2.3
			c1.6,1.8,3.3,3.6,4.9,5.4c0.6,0.7,1,1.5,1.6,2.2c0.3,0.3,0.7,0.5,1,0.7c0.2-0.3,0.4-0.7,0.5-1c0.4-1.6,0.9-3,1.8-4.4
			c0.9-1.3,0.9-1.4-0.1-2.6c-2.8-3.5-5.1-7.3-7.3-11.2c-0.2-0.4-0.4-0.8-0.7-1.2c-0.5-0.7-0.9-0.8-1.5-0.3
			C118,415,116.6,417.3,116.5,420.1z M406,264.2c0.3-0.2,0.5-0.3,0.7-0.4c1.5-0.8,3-1.6,4.5-2.3c7.1-3.6,13.2-8.3,17.4-15.1
			c1.2-2,2.1-4.1,2.6-6.4c0-0.2,0-0.4,0-0.7c-0.2,0.1-0.4,0.1-0.6,0.2c-0.6,0.5-1.2,1-1.8,1.5c-1.7,1.5-3.3,3.1-5,4.6
			c-2.8,2.3-5,5.2-7.3,7.9c-0.7,0.8-1.5,1.5-2.3,2.3c-0.6,0.6-1.3,0.8-2,0.5c-0.7-0.2-1.1,0-1.4,0.4c-1,1.2-2,2.3-2.9,3.5
			c-0.7,1-1.3,2.1-1.9,3.2C405.8,263.6,405.9,263.9,406,264.2z M541.6,106.4c0,0.1,0,0.3-0.1,0.6c-0.2,0.5-0.4,1.1-0.5,1.6
			c-0.2,0.8-0.5,1.5-0.5,2.3c0,1.1,0.7,1.6,1.8,1.4c1.1-0.2,1.9-0.8,2.5-1.6c1.8-2.3,2.9-4.8,3.8-7.5c0.3-0.9,0.1-1.6-0.7-2
			c-1.7-0.9-3-2.2-4-3.8c-0.4-0.7-1.1-0.9-1.9-0.8c-1.6,0.4-3.2,0.7-4.8,1.1c-0.7,0.2-1.4,0.5-2,0.9c-1.3,0.9-1.5,2.5-0.4,3.7
			c0.8,0.9,1.9,1.4,3.2,1.5c0.5,0,1,0,1.5,0.2C540.8,104,541.6,105,541.6,106.4z M440.6,77.4c2.3-0.1,4.4-0.4,6.1-1.9
			c1.3-1.1,1.1-2.2-0.5-2.8c-0.5-0.2-1.1-0.3-1.7-0.3c-0.6-0.1-1.1,0-1.7-0.1c-2.6-0.2-3.8-2-3.1-4.5c0.2-0.7,0.4-1.3,0.6-1.9
			c0.1-0.4,0.3-0.9,0.3-1.3c0-1.2-0.8-2-1.9-1.6c-1,0.4-2.1,0.9-2.7,1.6c-1.4,1.6-2.6,3.4-3.8,5.2c-0.5,0.6-0.3,1.2,0.2,1.8
			c0.9,1.3,1.8,2.7,2.6,4.2c0.4,0.7,0.8,1.1,1.5,1.1C437.9,77.1,439.3,77.2,440.6,77.4z M504.3,551.9c0-0.4,0-0.6-0.1-0.8
			c-0.6-5.5-2.1-10.7-4.3-15.8c-0.6-1.3-1.3-2.5-2.1-3.7c-0.5-0.7-0.8-0.6-1.2,0.2c-0.2,0.3-0.3,0.6-0.4,0.9
			c-0.5,1.4-1.1,2.7-2.3,3.7c-0.6,0.5-0.4,1.1-0.3,1.7c1.2,4.6,3.5,8.5,6.8,11.9c0.8,0.8,1.6,1.6,2.5,2.3c0.3,0.2,0.7,0.3,1,0.3
			C504.2,552.7,504.2,552.1,504.3,551.9z M554.6,107.4c0.2,0.8,0.5,2.2,0.9,3.5c0.2,0.7,0.7,1.3,1.2,1.8c1,1.1,2.1,0.8,2.6-0.5
			c0.2-0.5,0.3-1.1,0.3-1.6c0.1-0.6,0-1.2,0-1.9c0.1-2.2,1.7-3.4,3.8-2.9c0.7,0.1,1.3,0.4,2,0.6c0.5,0.1,1,0.3,1.5,0.3
			c1.2,0,1.8-0.8,1.5-1.9c-0.2-0.8-0.7-1.6-1.2-2.2c-1.5-1.7-3.5-2.8-5.5-3.9c-0.7-0.4-1.3-0.2-1.9,0.3c-1.2,0.9-2.5,1.7-3.8,2.5
			c-0.7,0.4-1.1,0.9-1.2,1.7C554.9,104.4,554.8,105.6,554.6,107.4z M413.9,60c0,2.5,0.5,3.9,1.9,4.9c1.2,0.9,2.3,2,3.4,3.1
			c0.6,0.6,1.3,0.8,2.1,0.6c1.1-0.3,2.3-0.5,3.5-0.5c1.1,0,1.7-0.4,2.1-1.3c0.9-1.8,1.8-3.5,2.6-5.3c0.3-0.7,0.5-1.4,0.6-2.1
			c0.2-0.9,0-1.7-0.8-2.2c-0.8-0.5-1.8-0.6-2.5,0c-0.8,0.7-1.4,1.6-2,2.4c-0.4,0.6-0.6,1.4-1,1.9c-1.1,1.5-3,1.8-4.4,0.6
			c-0.5-0.4-0.9-1-1.4-1.5c-0.5-0.5-0.9-1-1.5-1.3C414.9,58.5,413.9,59.1,413.9,60z M388.1,347.7c0-0.7-0.4-1-1-0.8
			c-0.4,0.1-0.7,0.3-1.1,0.5c-2.9,1.6-5.7,3.2-8.6,4.8c-0.9,0.5-1.5,1.2-1.8,2.2c-0.6,1.9-1.2,3.8-1.8,5.7c-0.1,0.3-0.2,0.6-0.3,1
			c-0.1,0.5,0.2,0.7,0.7,0.7c0.2,0,0.4-0.1,0.6-0.2c2.9-1.2,5.7-2.3,8.6-3.5c0.9-0.4,1.5-1.1,1.9-2.1c0.8-2.4,1.5-4.7,2.3-7.1
			C388,348.4,388,348,388.1,347.7z M537.6,128.2c1.5,0.1,2.6-0.6,3.3-1.9c0.4-0.7,0.8-1.6,0.8-2.4c0-1.5,0.6-2.8,1.2-4.2
			c0.2-0.4,0.3-0.8,0.5-1.3c0.2-0.6-0.1-0.9-0.6-0.9c-0.8-0.1-1.6,0-2.4-0.2c-3.3-0.5-5.3-3-5.2-6.3c0-0.5,0.1-1,0.1-1.5
			c0.1-0.8-0.2-1.3-1-1.6c-0.5-0.2-1.1-0.2-1.6-0.3c0,0.5-0.1,1,0,1.5c1.2,5.1,1.8,10.2,1.9,15.4c0,0.7,0.1,1.3,0.2,2
			c0.1,0.9,0.7,1.3,1.4,1.5C536.7,128.2,537.1,128.1,537.6,128.2z M574.1,94.4c-0.1-1.2-0.8-2.1-1.9-2.7c-0.8-0.5-1.8-0.8-2.6-1.3
			c-1.7-1-2-2.9-0.7-4.4c0.5-0.6,1.1-1,1.6-1.5c0.5-0.6,1-1.3,1.2-2c0.3-0.9-0.3-1.6-1.2-1.7c-1.6-0.1-3,0.1-4.1,1.5
			c-1,1.3-2.1,2.5-3.2,3.7c-0.6,0.7-0.7,1.3-0.5,2.2c0.3,1.1,0.4,2.2,0.5,3.3c0.1,1,0.4,1.6,1.3,2c1.8,0.8,3.7,1.8,5.6,2.5
			c0.8,0.3,1.7,0.4,2.5,0.4C573.5,96.4,574.1,95.6,574.1,94.4z M345.2,194.7c0.3,2.2,0.6,4.5,0.9,6.7c0.1,0.8,0.4,1.2,1.3,1.4
			c2.4,0.5,4.8,1.1,7.2,1.7c1.2,0.3,1.3,0.3,1.5-1c0.1-1.2,0.2-2.5,0.2-3.7c0-0.6-0.2-1.3-0.5-1.7c-0.9-1.1-1.8-2.3-2.9-3
			c-1.6-1-3.3-1.7-5.1-2.2C345.2,192,345.2,192.1,345.2,194.7z M408.2,83.7c1.8,0,3.5-0.2,5-1.3c0.6-0.5,0.9-1,0.8-1.7
			c-0.4-2.3-0.1-4.5,0.9-6.6c0.3-0.8,0.1-1.3-0.5-1.8c-0.8-0.6-1.6-1.3-2.4-1.9c-1.1-0.8-2.2-1.3-3.5-1.5c-2.2-0.2-3,0.7-2.7,2.9
			c0.2,1.5,1.2,2.5,2.2,3.5c2.1,2.1,1.6,4.3-1,5.5c-0.6,0.3-1.3,0.5-1.9,0.8c-0.3,0.2-0.6,0.6-0.7,1c0,0.2,0.5,0.6,0.9,0.6
			C406.1,83.5,407.2,83.6,408.2,83.7z M547.7,76.2c0.2,0.9,0.3,2.3,0.8,3.6c0.7,1.7,1.2,1.8,3,1.7c1.4-0.1,2.9-0.1,4.2,0.3
			c2.6,0.9,2.4,1,4.4-1.6c0.1-0.1,0.2-0.3,0.3-0.4c0.8-1.2,1.5-2.4,1.6-3.9c0.2-2-0.7-2.9-2.7-2.6c-1.5,0.2-2.5,1.1-3.5,2.2
			c-1.9,2-4,1.6-5.2-0.9c-0.2-0.5-0.4-1.1-0.7-1.5c-0.2-0.3-0.6-0.5-1-0.8c-0.3,0.3-0.7,0.6-0.8,1C547.9,74.1,547.9,75,547.7,76.2z
			 M201.3,225.4c0.4,2.1,1.3,4.3,2.8,6.2c0.7,0.9,1.5,1.8,2.2,2.8c2.7,3.8,5.4,7.7,8,11.6c1,1.6,2.5,2.6,3.9,3.7
			c0.1,0.1,0.4,0.1,0.6,0.2c0-0.2,0.1-0.4,0.1-0.6c-0.3-1.4-0.7-2.7-1-4.1c-0.2-1-0.7-1.7-1.6-2.3c-2.4-1.5-4.2-3.6-5.5-6.1
			c-0.5-1-1.1-2-1.6-3c-1.5-3.1-2.9-6.2-4.4-9.4c-0.2-0.5-0.4-0.9-0.7-1.4c-0.1-0.2-0.4-0.4-0.6-0.4
			C202.6,222.6,201.4,224.1,201.3,225.4z M422.6,93.9c0,0-0.1,0-0.1,0c0.1-1,0.1-2,0.3-3c0.1-0.8-0.2-1.4-1-1.7
			c-1.1-0.4-2.1-0.9-3.1-1.4c-0.6-0.3-1.1-0.4-1.7,0c-1.2,0.8-2.5,1.5-3.6,2.5c-1.1,1-2,2.1-2.9,3.3c-0.4,0.6-1,1.4-0.4,2
			c0.6,0.7,1.4,0,2-0.3c0.7-0.4,1.3-0.9,2.1-1.2c1.9-0.8,3.7,0.1,4.1,2.1c0.1,0.5,0,1.1,0.1,1.7c0.1,0.7,0.2,1.5,0.5,2.1
			c0.6,1.2,1.8,1.3,2.5,0.2c0.5-0.7,0.8-1.5,0.9-2.3C422.5,96.6,422.5,95.3,422.6,93.9z M429.5,78.7c0-2.9-2.4-5.1-5.3-5.1
			c-2.9,0.1-5.1,2.4-5.1,5.3c0.1,2.8,2.5,5.1,5.4,5C427.4,83.8,429.6,81.5,429.5,78.7z M538.1,90.1c1.3,0.1,2.3,0.1,3.3,0.2
			c0.8,0.1,1.3-0.2,1.6-1c0.4-1.1,0.9-2.1,1.2-3.1c0.1-0.5,0.1-1.2-0.1-1.6c-1.1-1.6-2.2-3.2-3.5-4.5c-0.8-0.8-1.9-1.4-2.9-1.9
			c-0.3-0.2-0.9-0.1-1.1,0.1c-0.2,0.3-0.3,0.9-0.1,1.2c0.3,0.8,0.9,1.5,1.3,2.2c1.2,2.2,0.3,4.1-2.2,4.4c-0.5,0.1-1,0-1.5,0.2
			c-0.5,0.1-1.1,0.3-1.6,0.6c-1.1,0.6-1.2,1.8-0.1,2.5c0.8,0.5,1.8,0.8,2.7,0.9C536.1,90.2,537.2,90.1,538.1,90.1z M548,91.4
			c0,2.9,2.1,5.1,5,5.1c2.7,0,4.9-2.3,4.9-5c0-2.8-2.2-4.9-4.9-5C550.3,86.4,548.1,88.6,548,91.4z M358.3,233.3
			C358.4,233.3,358.4,233.3,358.3,233.3c0-0.7-0.1-1.5-0.2-2.2c-0.4-3.8-0.8-7.6-1.1-11.5c-0.1-1-0.4-1.7-1.3-2.2
			c-1.5-0.9-3-1.8-4.5-2.6c-0.5-0.3-1.4-0.7-1.6-0.5c-0.6,0.6,0.1,1.2,0.4,1.8c1.1,2.1,2.1,4.2,3.3,6.3c0.8,1.6,1.2,3.1,0,4.6
			c-0.6,0.8-0.4,1.5,0.2,2.3c1.1,1.5,2.1,2.9,3.1,4.4c0.2,0.3,0.4,0.7,0.6,1c0.2,0.2,0.5,0.3,0.7,0.3c0.2-0.1,0.4-0.4,0.4-0.6
			C358.4,234.1,358.3,233.7,358.3,233.3z M289.4,440.2c-0.1,2.5,2.4,4.7,5.1,3.1c0.3-0.2,0.7-0.4,1-0.6c2.2-1.6,3.7-3.8,5.1-6
			c0.5-0.8,0.4-1-0.6-1.3c-1.2-0.4-2.4-0.7-3.6-1c-1.2-0.3-2.5-0.6-3.8-0.9c-0.7,1.2-1.5,2.3-2.1,3.6
			C290.1,438,289.8,439.1,289.4,440.2z M244.1,426.6c-1.2,0.1-3.3,0.3-5.4,0.5c-0.8,0.1-1,0.4-0.5,0.9c1.8,2.3,3.6,4.5,6.2,5.9
			c0.6,0.4,1.3,0.6,2.1,0.7c2,0.2,3.3-1.2,2.8-3.1c-0.2-0.9-0.6-1.8-0.9-2.7C247.5,426.3,247.7,426.4,244.1,426.6z M435.9,83.4
			c-0.9-0.1-1.2,0.5-1.6,1c-0.9,1.1-1.6,2.5-2.8,3.1c-2.1,1.1-2.4,2.5-1.7,4.5c0.2,0.7,0.2,1.5,0.4,2.1c0.1,0.4,0.4,0.7,0.7,1.1
			c0.3-0.2,0.6-0.4,0.9-0.7c0.1-0.1,0.1-0.2,0.2-0.3c2.1-2.6,4.1-5.2,6.2-7.8c0.2-0.3,0.4-0.5,0.6-0.8c0.4-0.5,0.3-1-0.2-1.3
			C437.7,84.1,436.8,83.8,435.9,83.4z M309.2,446.3c0.1,1.4,0.7,2.3,1.8,2.3c1,0,2.2-0.9,2.5-1.9c0.3-1,0.6-2,1-3
			c0.4-1.1,0.8-2.2,1.2-3.4c0.1-0.3,0.2-0.7,0-0.9c-0.7-0.9-3.1-0.8-3.7,0.3c-0.8,1.6-1.6,3.2-2.3,4.9
			C309.4,445.1,309.3,445.7,309.2,446.3z M217.9,306.1c0.1,0.7,0.5,1.1,1.2,1.1c1.6-0.1,3.1-0.3,4.7-0.5c1.2-0.2,1.3-0.5,0.6-1.5
			c-1.5-1.9-2.9-3.8-4.4-5.8c-0.2-0.2-0.3-0.5-0.5-0.7c-0.6-0.6-1-0.5-1.1,0.3C218.1,301,217.8,305.7,217.9,306.1z"/>
		<path d="M86.1,219.1c0.2-1.8,0.4-3.6,0.7-5.4c0.8-3.9,2.1-7.7,3.8-11.4c0.3-0.7,0.7-1.4,1.2-2.1c1-1.4,2.4-1.7,3.9-0.9
			c1,0.6,1.8,1.3,2.6,2.1c0.6,0.6,1,1.3,1.5,2.1c2.9,4.9,5.2,10.1,5.9,15.7c0.6,4.3-0.3,8.3-3.6,11.6c-2.7,2.7-5.9,3.1-9.3,1.4
			c-4.5-2.3-5.9-6.3-6.5-10.8c-0.1-0.8-0.1-1.6-0.1-2.4C86.2,219.1,86.2,219.1,86.1,219.1z M90.4,219.2c0.2,1.2,0.3,2.6,0.6,4.1
			c0.4,2.2,1.7,3.9,3.6,5.1c2.4,1.6,4.9,1,6.4-1.5c1.2-1.9,1.5-4.1,1.1-6.2c-0.3-1.9-0.8-3.8-1.5-5.5c-1.2-3-2.7-6-4-9
			c-0.2-0.5-0.6-1-1-1.4c-0.9-0.9-1.8-0.7-2.2,0.5C91.8,209.7,90.8,214.2,90.4,219.2z"/>
		<path d="M477.8,366.6c0.6-7.4,1.1-14.9,1.7-22.4c0-0.6,0.1-1.2,0.2-1.8c0.3-1.6,1.9-3,3.5-3.2c1.1-0.1,2,0.4,2.6,1.3
			c0.5,0.8,0.9,1.6,1.2,2.4c2.7,6.6,5.4,13.2,8.2,19.8c0.2,0.6,0.6,1.1,1,1.7c0.3-0.6,0.7-1.2,0.9-1.9c2-6.2,3.9-12.4,5.9-18.6
			c0.2-0.8,0.5-1.5,0.9-2.2c0.8-1.4,2.1-2,3.4-1.5c1.3,0.4,2,1.6,1.8,3.1c-0.1,0.8-0.3,1.6-0.5,2.3c-2.8,9.1-5.7,18.3-8.6,27.4
			c-0.6,1.9-1.7,2.9-3.1,2.9c-1.8,0-3.1-1-3.7-2.7c-2.4-5.9-4.8-11.7-7.2-17.6c-0.2-0.4-0.3-0.9-0.5-1.2c-0.1-0.2-0.4-0.3-0.6-0.5
			c-0.1,0.2-0.3,0.5-0.3,0.7c-0.3,3.3-0.5,6.5-0.8,9.8c-0.1,1.4-0.2,2.8-0.3,4.2c-0.1,0.6-0.2,1.2-0.5,1.8c-0.6,1.2-1.7,1.7-3,1.5
			c-1.2-0.2-2.1-1.1-2.3-2.4C477.7,368.5,477.8,367.6,477.8,366.6z"/>
		<path d="M371.4,379.9c7.3-0.2,11.9,5.9,9.6,12.7c-0.4,1.3-1.2,2.4-1.9,3.6c-0.8,1.4-0.9,1.5,0.6,2.2c2.7,1.3,5.5,2.7,8.2,4
			c1.2,0.6,2.4,1.1,3.5,1.7c1.8,1,2.5,2.6,1.8,4c-0.7,1.5-2.4,2-4.3,1.1c-4.4-2.1-8.8-4.2-13.2-6.3c-0.6-0.3-1.6-0.8-2-0.6
			c-0.8,0.6-0.1,1.4,0.2,2.2c0.8,2.9,1.8,5.7,2.6,8.6c0.2,0.7,0.3,1.4,0.3,2.2c0,1.2-0.8,2.2-1.9,2.5c-1.1,0.3-2.3-0.1-3-1.1
			c-0.4-0.6-0.7-1.2-0.9-1.8c-2.8-9.1-5.6-18.3-8.4-27.4c-0.1-0.3-0.2-0.7-0.3-1c-0.5-1.9,0.1-3.3,1.7-4.4
			C366.5,380.7,368.9,379.9,371.4,379.9z M371.6,385.6c-0.7,0.1-1.3,0.2-1.9,0.4c-1,0.3-1.2,0.6-0.9,1.6c0.6,2.1,1.2,4.1,1.9,6.1
			c0.4,1.1,1.1,1.3,2,0.7c1.8-1.2,3-2.9,3.1-5.2c0.1-1.6-0.7-2.7-2.2-3.3C372.9,385.8,372.2,385.7,371.6,385.6z"/>
		<path d="M508.1,373.4c0.7-7.9,4.1-14.2,10.9-18.5c2.2-1.4,4.7-2.1,7.4-2.1c7.1,0,10.5,6.2,10.1,11.3c0,0.4-0.2,0.9-0.4,1.3
			c-0.4,1-1.2,1.5-2.3,1.4c-1.1,0-1.9-0.5-2.3-1.5c-0.3-0.8-0.5-1.7-0.7-2.6c-0.9-3.6-3.4-5-6.9-3.7c-0.4,0.1-0.8,0.3-1.1,0.5
			c-5.6,3.3-8.7,8.1-8.8,14.7c0,0.3,0,0.7,0.1,1c0.5,3.5,3.1,5.2,6.5,4.1c0.8-0.3,1.6-0.6,2.3-1.1c0.8-0.5,0.8-0.7,0.2-1.5
			c-0.6-0.8-1.2-1.5-1.8-2.3c-0.4-0.6-0.8-1.3-0.9-2c-0.3-1.1,0.1-2,1-2.7c0.9-0.7,2-0.8,3-0.2c0.6,0.4,1.2,0.9,1.6,1.4
			c2.3,2.8,4.6,5.6,6.9,8.4c0.4,0.4,0.7,0.9,0.9,1.4c0.6,1.2,0.3,2.6-0.7,3.4c-1,0.8-2.3,0.9-3.5,0.2c-0.5-0.3-1-0.8-1.3-1.3
			c-0.6-0.8-1.2-0.8-1.9-0.2c-0.5,0.3-1,0.6-1.5,0.9c-2.1,1.1-4.3,1.7-6.7,1.7c-4.2-0.1-7.2-2-9.1-5.8
			C508.5,377.9,508.1,375.6,508.1,373.4z"/>
		<path d="M273.9,410.6c0.2-0.7,0.3-1.4,0.5-2.1c2.2-7.8,4.5-15.6,6.7-23.3c0.2-0.6,0.4-1.2,0.6-1.8c0.9-2.1,3-3.1,5.3-2.5
			c0.5,0.1,1.1,0.4,1.6,0.6c3.6,1.7,7.2,3.4,10.7,5.1c0.5,0.2,0.9,0.5,1.3,0.8c0.9,0.8,1.3,2.1,0.8,3.2c-0.4,1.1-1.5,1.8-2.8,1.7
			c-0.7-0.1-1.3-0.3-1.9-0.6c-2.6-1.2-5.1-2.5-7.6-3.7c-0.4-0.2-0.7-0.4-1.1-0.5c-1.2-0.5-1.4-0.4-1.8,0.9c-0.5,1.7-1,3.5-1.5,5.2
			c-0.3,1.2-0.2,1.5,1,1.9c2.2,0.7,4.4,1.4,6.6,2.2c0.5,0.2,1.1,0.4,1.6,0.6c1.4,0.8,2,2.3,1.4,3.6c-0.5,1.3-1.8,2.1-3.3,1.7
			c-2.1-0.5-4.1-1.2-6.2-1.9c-0.6-0.2-1.3-0.5-1.9-0.6c-1-0.3-1.2-0.2-1.5,0.8c-0.5,1.7-1,3.4-1.5,5.1c-0.3,1.2-0.2,1.4,1.1,1.8
			c2.7,0.8,5.4,1.6,8.2,2.3c0.7,0.2,1.3,0.4,1.9,0.6c1.1,0.4,1.7,1.2,2,2.3c0.5,1.8-0.6,3.4-2.4,3.6c-0.7,0.1-1.4,0-2-0.2
			c-4-1-8-2-12-3c-0.6-0.2-1.2-0.4-1.8-0.6C274.5,413.2,273.9,412.1,273.9,410.6z"/>
		<path d="M249.9,391.8c0.1-4.1,0.3-8.1,0.4-12.2c0-0.8,0.1-1.6,0.2-2.4c0.3-2.1,1.6-3.2,3.7-3.2c4.4,0.1,8.7,0.2,13.1,0.3
			c0.5,0,1,0.1,1.5,0.3c1.2,0.5,1.9,1.6,1.8,2.8c-0.1,1.2-1,2.4-2.3,2.6c-0.7,0.1-1.5,0.1-2.2,0.1c-2.8,0-5.7-0.1-8.5-0.1
			c-1.3,0-1.5,0.2-1.6,1.4c-0.1,1.9-0.2,3.7-0.2,5.6c0,1.4,0.1,1.6,1.5,1.7c2.3,0.2,4.6,0.3,6.9,0.5c0.7,0.1,1.4,0.1,2,0.4
			c1.3,0.5,2,1.6,1.9,2.9c-0.1,1.3-1.1,2.3-2.6,2.5c-0.6,0.1-1.2,0.1-1.9,0c-2.1-0.1-4.2-0.3-6.3-0.4c-1.7-0.1-1.8,0-1.9,1.7
			c-0.1,1.4-0.1,2.7-0.2,4.1c0,2,0,2,1.9,2.1c2.9,0.1,5.9,0.2,8.8,0.3c0.6,0,1.1,0,1.7,0.2c1.5,0.4,2.6,1.8,2.5,3.2
			c0,1.5-1,2.5-2.7,2.8c-0.3,0.1-0.7,0.1-1,0.1c-4.2,0-8.4,0.1-12.5-0.1c-3.8-0.1-4.8-1.3-4.6-5
			C249.6,399.9,249.8,395.8,249.9,391.8C249.9,391.8,249.9,391.8,249.9,391.8z"/>
		<path d="M241.9,408.6c-0.5-0.1-1.3-0.3-2.2-0.7c-3.7-1.6-7.4-3.2-11.1-4.8c-0.6-0.2-1.2-0.3-1.8-0.5c0,0.6,0,1.3,0.1,1.9
			c0.7,2.5,1.5,5,2.2,7.5c0.2,0.6,0.4,1.3,0.4,2c0,1.1-0.4,2-1.4,2.5c-1,0.5-2,0.5-2.9-0.2c-0.7-0.6-1.3-1.4-1.7-2.2
			c-0.6-1.3-0.9-2.8-1.4-4.2c-2.2-6.8-4.4-13.5-6.6-20.3c-0.2-0.7-0.5-1.5-0.5-2.3c0-1.4,1.3-2.9,2.6-3.2c1.1-0.2,2.6,0.6,3.2,1.8
			c0.7,1.4,1.2,2.8,1.9,4.2c0.2,0.4,0.3,0.7,0.5,1.1c0.5,0.8,0.8,0.9,1.4,0.2c0.4-0.5,0.8-1,1.2-1.5c1.6-2.1,3.2-4.2,4.9-6.3
			c0.4-0.6,1-1.1,1.6-1.5c1.3-0.8,2.2-0.7,3.4,0.3c0.9,0.8,1.2,2,0.7,3.2c-0.4,0.8-0.9,1.6-1.4,2.3c-1.7,2.3-3.4,4.5-5.1,6.8
			c-0.2,0.3-0.5,0.6-0.7,0.9c-0.4,0.5-0.2,0.9,0.4,1.2c0.4,0.2,0.8,0.4,1.2,0.5c3.5,1.5,7,3,10.4,4.5c1.1,0.5,2.1,1.1,3,1.9
			c0.9,0.8,1.2,1.9,0.8,3.1C244.7,407.9,243.7,408.5,241.9,408.6z"/>
		<path d="M393.1,369.7c1.5,0,2.4,0.6,3.1,1.3c2.2,2,4.5,4,6.7,6c3,2.7,2.2,2.3,4.9,0.2c0.5-0.4,1.1-0.8,1.7-1.1
			c1.2-0.5,2.4-0.2,3.1,0.6c0.8,0.9,0.9,2.2,0.1,3.3c-0.5,0.7-1.2,1.2-1.8,1.8c-1.3,1.1-1.3,1.2-0.1,2.3c1.8,1.6,3.6,3.3,5.4,4.9
			c0.6,0.5,1.2,1.1,1.6,1.7c0.8,1.1,0.7,2.5-0.1,3.4c-0.8,0.9-2.3,1.1-3.4,0.4c-0.6-0.4-1.2-0.9-1.7-1.4c-2-1.8-4-3.7-6-5.5
			c-1.4-1.3-1.4-1.3-3-0.1c-1,0.8-1.9,1.6-3,2.3c-1,0.6-1.2,1.4-1,2.4c0.6,2.8,1.2,5.6,1.7,8.5c0.1,0.6,0.2,1.1,0.2,1.7
			c0,1.4-0.9,2.4-2.2,2.7c-1.2,0.2-2.5-0.4-3-1.7c-0.2-0.4-0.3-0.9-0.4-1.3c-1.9-9.2-3.7-18.4-5.6-27.6c-0.3-1.6-0.1-3.1,1.1-4.2
			C392.1,370.1,392.8,369.9,393.1,369.7z M397.4,380.6c0.1,0.6,0.2,1.4,0.4,2.1c0.2,0.6,0.4,1.1,0.7,1.6c0.6-0.4,1.2-0.7,1.8-1.1
			c0.5-0.3,0.4-0.8,0-1.2c-0.7-0.7-1.4-1.3-2.1-1.9C397.7,379.9,397.4,380,397.4,380.6z"/>
		<path d="M313.6,412.7c-0.8-0.1-1.7-0.2-2.5-0.3c-1.1-0.2-1.2-0.2-1.4,1c-0.6,2.4-1.1,4.7-1.6,7.1c-0.1,0.6-0.2,1.2-0.4,1.8
			c-0.6,1.7-2,2.6-3.5,2.3c-1.6-0.4-2.6-1.8-2.3-3.6c0.6-3,1.3-6.1,1.9-9.1c1.4-6.1,2.8-12.2,4.2-18.3c0-0.2,0.1-0.3,0.1-0.5
			c0.5-2.7,1.3-3.7,3.9-4.1c4.3-0.7,8.2,0.3,11.4,3.4c4.8,4.8,4.4,12.5-0.9,17C319.9,411.6,316.9,412.7,313.6,412.7z M313.6,406.7
			c2.8,0,5.1-1.3,6.4-3.5c1.3-2.2,0.9-4.9-1-6.7c-1-1-2.2-1.5-3.6-1.7c-1.5-0.2-1.6-0.2-1.9,1.3c-0.6,2.7-1.1,5.4-1.8,8.1
			C311,406.5,311.4,406.6,313.6,406.7z"/>
		<path d="M339.7,403.9c0-3.5,0.3-6.2,1.2-8.9c0.6-1.8,1.5-3.5,2.9-4.9c2.5-2.5,5.4-3,8.6-1.8c2.7,1,4.6,3,6,5.5
			c0.7,1.3,0.5,2.6-0.4,3.4c-1,0.8-2.4,0.7-3.6-0.3c-0.4-0.3-0.7-0.7-1.1-1.1c-0.5-0.5-1-1.1-1.6-1.5c-1.8-1.4-3.4-1.1-4.4,1
			c-0.6,1.2-1.1,2.6-1.2,4c-0.2,2.1-0.3,4.2-0.1,6.2c0.3,3.4,1.2,6.7,2.9,9.7c0.8,1.3,1.7,2.5,2.8,3.6c1.8,1.7,3.3,1.4,4.5-0.8
			c0.5-0.9,0.7-2,1.1-3c0.2-0.7,0.3-1.4,0.6-2.1c0.6-1.3,1.9-1.9,3.2-1.6c1.3,0.3,2.3,1.3,2.2,2.6c-0.2,4.5-1.6,8.5-5.6,11
			c-2.3,1.5-4.9,1.3-7.3,0.2c-2.3-1-4-2.8-5.4-4.8c-2.4-3.4-3.8-7.2-4.6-11.2C340,407.2,339.9,405.2,339.7,403.9z"/>
		<path d="M427.2,352.2c1.5,0,2.6,0.8,3,1.9c0.4,1.3,0.1,2.5-1.2,3.2c-2.7,1.5-5.4,3-8.2,4.5c-0.4,0.2-0.9,0.5-1.3,0.7
			c-0.8,0.5-0.9,0.8-0.5,1.7c0.6,1,1.2,1.9,1.8,2.9c0.6,0.9,0.9,1,1.8,0.5c1.2-0.5,2.3-1.2,3.5-1.7c0.6-0.3,1.3-0.5,1.9-0.6
			c1.2-0.2,2.3,0.4,2.8,1.5c0.5,1,0.3,2.1-0.5,3c-0.4,0.4-1,0.8-1.5,1.1c-0.9,0.5-1.8,0.9-2.7,1.4c-1.6,0.8-1.6,1-0.7,2.6
			c1.4,2.4,2.8,4.8,4.2,7.2c0.4,0.7,0.9,1.5,1.2,2.3c0.2,0.6,0.4,1.3,0.3,2c-0.3,2-2.6,2.9-4.2,1.6c-0.6-0.5-1.1-1.2-1.5-1.8
			c-4.4-7.1-8.7-14.3-13-21.5c-0.3-0.6-0.6-1.2-0.8-1.9c-0.3-1.2,0.2-2.3,1.3-2.9c4.3-2.4,8.6-4.8,12.9-7.1
			C426.4,352.4,426.9,352.3,427.2,352.2z"/>
		<path d="M451.6,343.3c1.5,0,2.7,0.8,3,2c0.4,1.2,0,2.5-1.2,3.3c-0.4,0.3-0.8,0.4-1.2,0.6c-0.5,0.2-1,0.3-1.5,0.4
			c-2.7,0.7-2.5,0.6-1.8,3.2c1.7,6.1,3.3,12.2,5,18.3c0.2,0.7,0.3,1.3,0.4,2c0.1,1.6-0.7,2.9-2.1,3.3c-1.4,0.4-2.9-0.3-3.5-1.9
			c-0.2-0.6-0.4-1.2-0.6-1.8c-1.7-6.3-3.5-12.6-5.2-19c-0.1-0.3-0.2-0.7-0.3-1c-0.2-0.7-0.6-0.9-1.3-0.7c-0.8,0.2-1.6,0.5-2.5,0.6
			c-0.7,0.1-1.5,0.2-2.2,0c-2.2-0.6-2.8-3.2-1.2-4.7c0.6-0.5,1.3-0.9,2.1-1.1c4.2-1.2,8.4-2.2,12.6-3.3
			C450.9,343.4,451.3,343.4,451.6,343.3z"/>
		<path d="M470.3,367.3c0,1.2,0.1,2.1,0,2.9c-0.2,1.5-1.2,2.5-2.5,2.6c-1.3,0.1-2.5-0.6-3-2c-0.4-1.3-0.7-2.7-0.8-4.1
			c-0.5-6.4-1-12.7-1.5-19.1c-0.1-1-0.2-2-0.3-3c0-0.4,0-0.8,0-1.2c0-2,1.1-3.4,2.7-3.5c1.7-0.2,3.1,0.9,3.4,3
			c0.2,1.4,0.3,2.8,0.4,4.2C469.4,353.9,469.9,360.8,470.3,367.3z"/>
		<path d="M117.8,338.6c-1.6-0.3-3.3-0.4-4.8-1c-4.3-1.6-6-5.7-4-9.9c0.9-1.9,2.2-3.4,3.8-4.8c4.1-3.5,8.9-6.1,13.8-8.3
			c0.6-0.3,1.3-0.4,2-0.4c1.2,0,2.1,0.6,2.5,1.7c0.4,1.1,0.1,2.2-0.7,2.9c-0.6,0.5-1.3,0.9-2,1.3c-3.1,1.8-6.3,3.6-9.4,5.5
			c-1.2,0.8-2.3,1.8-3.4,2.8c-0.4,0.4-0.8,1-1.1,1.5c-0.5,1-0.3,1.8,0.8,2.1c1.1,0.3,2.4,0.5,3.5,0.3c2.2-0.4,4.4-1.1,6.5-1.8
			c1.9-0.6,3.6-1.6,5.5-2.3c0.9-0.3,2-0.6,2.9-0.5c2,0.1,3,2.2,1.9,3.9c-0.3,0.6-0.9,1.1-1.4,1.4c-4.7,2.4-9.5,4.7-15,5.2
			c-0.5,0-0.9,0.1-1.4,0.1C117.8,338.4,117.8,338.5,117.8,338.6z"/>
		<path d="M139.3,352.5c0-0.6,0-1.1-0.1-1.7c-0.2-1-1-1.4-1.9-0.9c-0.5,0.3-1,0.7-1.3,1.2c-0.5,0.8-0.8,1.6-1.1,2.5
			c-0.7,2.5-1.9,4.8-3.4,7c-1.4,2-3.2,3.5-5.6,4.1c-0.5,0.1-1,0.2-1.5,0.2c-3.6,0.1-7.6-2.7-9.1-6.3c-1.4-3.4-0.4-7.3,2.5-9.9
			c0.7-0.6,1.5-1,2.3-1.3c1-0.3,1.9,0,2.6,0.8c0.7,0.8,0.8,1.8,0.3,2.7c-0.4,0.7-0.9,1.3-1.4,1.9c-1.7,2.1-1.3,4.4,1,5.7
			c1.5,0.8,2.7,0.7,3.8-0.7c1.4-1.7,2.3-3.6,3-5.7c0.5-1.5,1.1-3.1,2-4.4c1.4-2.2,3.6-3.5,6.2-3.5c3.4-0.1,5.5,1.4,6.4,4.7
			c0.4,1.6,0.4,3.1,0,4.7c-0.3,0.9-0.8,1.6-1.7,2c-1.3,0.5-2.6-0.1-2.9-1.5c-0.1-0.5-0.1-1.1-0.2-1.7
			C139.2,352.5,139.2,352.5,139.3,352.5z"/>
		<path d="M141.8,364.3c1.2,0.1,2,0.7,2.6,1.7c0.4,0.8,0.8,1.6,1.1,2.5c1.8,4.4,3.7,8.9,5.5,13.3c0.2,0.6,0.4,1.2,0.5,1.8
			c0.1,1.4-0.6,2.6-2,3c-1.2,0.4-2.5,0-3.3-1.1c-0.3-0.5-0.5-1-0.8-1.5c-0.5-1.1-0.9-2.3-1.4-3.5c-0.6-1.5-0.7-1.5-2.1-0.9
			c-2.9,1.2-5.9,2.4-8.8,3.6c-2.3,0.9-4.5,1.8-6.8,2.7c-0.5,0.2-1.1,0.4-1.6,0.5c-1.4,0.2-2.6-0.5-3.1-1.8c-0.5-1.2-0.1-2.5,1-3.3
			c0.6-0.4,1.3-0.7,1.9-1c4.7-1.9,9.4-3.8,14.1-5.8c0.2-0.1,0.4-0.2,0.6-0.3c1.8-0.8,1.8-0.8,1.1-2.5c-0.4-1.1-0.9-2.1-1.2-3.2
			c-0.2-0.6-0.3-1.3-0.2-2C139.2,365.2,140.4,364.2,141.8,364.3z"/>
		<path d="M107.5,313c-4.4-0.3-7.9-3-9.1-7.1c-0.7-2.4-0.9-4.8,0.1-7.2c0.4-0.9,0.9-1.7,1.5-2.4c1-1.1,2.4-1.2,3.6-0.6
			c1.1,0.6,1.6,1.9,1.3,3.4c-0.2,0.9-0.5,1.9-0.6,2.8c-0.2,2.7,1.6,4.4,4.3,3.8c1.5-0.3,3-0.9,4.4-1.7c3-1.6,5.9-3.4,8.8-5.1
			c0.8-0.4,1.7-0.7,2.5-0.8c1.2-0.1,2.1,0.4,2.6,1.5c0.6,1.1,0.5,2.1-0.3,3c-0.6,0.7-1.4,1.4-2.2,1.9c-2.8,1.7-5.6,3.4-8.5,5
			c-1.4,0.8-2.8,1.7-4.3,2.3C110.4,312.4,108.9,312.6,107.5,313z"/>
		<path d="M356.7,301c-0.1-4.6,4.1-8.8,8.9-8.9c5.4-0.2,9.9,4,10,9.4c0.1,5.2-4,9.5-9.2,9.6C360.8,311.3,356.8,307.2,356.7,301z"/>
		<path d="M30.8,313.5c0-5.6,0.6-11.1,2.9-16.3c1.3-3.1,3.2-5.8,5.9-8c1.7-1.4,3.6-2.3,5.8-2.7c4.5-0.8,8.7-0.4,12.8,1.8
			c5.8,3.1,10.4,7.6,14.4,12.7c6.4,8.3,10.7,17.7,13.6,27.7c2.1,7.2,3.2,14.6,3,22.1c-0.2,5.8-1.1,11.5-4.1,16.7
			c-2.6,4.5-6.2,7.6-11.4,8.5c-3.7,0.6-7.2-0.1-10.6-1.6c-3.2-1.4-6.1-3.4-8.7-5.8c-5.8-5.3-10.3-11.6-13.9-18.5
			c-5.1-9.8-8.4-20.3-9.5-31.3C30.9,317.2,30.9,315.3,30.8,313.5z M66.1,305.7c0.1,1.1,0.2,1.9,0.3,2.7c1.3,8.2,4.2,15.8,7.9,23.2
			c1.8,3.6,3.8,7,6.4,10.2c0.4,0.5,0.8,1.5,1.7,1c0.7-0.4,0.3-1.2,0.2-1.9c-0.7-5.7-2.2-11.2-4.2-16.6c-2.5-6.8-5.9-13.2-10.3-19
			c-0.4-0.5-0.7-1.4-1.5-1.1C66.3,304.4,66.2,305.4,66.1,305.7z M60.1,305.4C60.1,305.4,60.2,305.4,60.1,305.4
			c0.1-0.6,0.1-1.2,0-1.9c0-0.2-0.1-0.6-0.3-0.7c-0.2-0.1-0.5,0.1-0.7,0.3c-0.7,0.9-1.5,1.7-2.1,2.6c-5.1,7.2-10.2,14.5-15.3,21.8
			c-2.5,3.6-2.6,2.7-1,7.7c0,0.1,0,0.1,0.1,0.2c0.5,1.1,0.8,1.2,1.6,0.2c1.2-1.6,2.2-3.3,3.4-4.9c4.5-6.1,9.1-12.3,13.6-18.4
			c0.9-1.2,1.3-2.4,1-3.9C60.3,307.5,60.2,306.4,60.1,305.4z M68.5,333.6c-0.6-1.2-1.2-2.4-1.8-3.6c-0.1-0.1-0.5-0.1-0.7,0
			c-0.3,0.2-0.5,0.5-0.7,0.7c-2.9,4-5.9,8-8.8,12c-2.2,3-4.3,6.1-6.4,9.1c-0.5,0.6-0.8,1.3-0.2,2c0.9,1.3,1.8,2.6,2.8,3.8
			c0.6,0.8,1,0.7,1.6,0c0.2-0.3,0.4-0.7,0.6-1c1.7-2.8,3.3-5.7,5-8.5c2.6-4.3,5.2-8.6,7.8-12.9C67.9,334.9,68.1,334.3,68.5,333.6z
			 M63.6,322.1c-0.5-1.5-0.9-2.9-1.3-4.2c-0.2-0.5-0.6-0.4-0.9-0.1c-0.4,0.4-0.7,0.9-1.1,1.3c-5,6.9-9.9,13.9-14.9,20.8
			c-2,2.8-2,2.8-0.4,5.7c0.7,1.4,1.1,1.4,2,0.2c0.3-0.4,0.5-0.7,0.8-1.1c2.7-3.8,5.4-7.6,8.1-11.3c2.2-3.1,4.5-6.3,6.7-9.4
			C63,323.4,63.3,322.7,63.6,322.1z M37,317.8c0.2,1.5,0.3,2.9,0.6,4.4c0.1,0.4,0.3,0.8,0.5,1.2c0.4-0.3,0.9-0.5,1.1-0.8
			c0.6-0.8,1.1-1.6,1.6-2.4c0.8-1.2,1.5-2.4,2.3-3.6c4.6-6.5,9.1-12.9,13.7-19.4c0.3-0.4,0.6-0.7,0.7-1.1c0.1-0.3,0.1-0.8-0.1-1.1
			c-0.9-1.2-2.2-1.1-3.1,0c-5.4,6.6-10.8,13.2-16.2,19.8C37.3,315.7,36.9,316.6,37,317.8z M72.8,341.8c-0.2-0.5-0.4-1.1-0.7-1.6
			c-0.6-1-1.1-1.1-1.7-0.1c-0.9,1.4-1.8,2.8-2.6,4.1c-3.5,5.5-6.8,11.1-9.7,16.9c-0.9,1.8-0.8,2,0.7,3.3c1.6,1.4,1.9,1.3,2.9-0.6
			c1.8-3.6,3.7-7.3,5.5-10.9c1.6-3.1,3.3-6.2,4.9-9.3C72.3,343.1,72.5,342.5,72.8,341.8z M67.7,369.8c0.9,0.2,1.1-0.6,1.5-1.2
			c1.9-4,3.9-8,5.9-12.1c1-2,2-4.1,3-6.1c0.7-1.5,0.7-1.7-0.4-2.8c-1.7-1.8-1.8-1.8-2.9,0.4c-3.1,6-6.1,12-9.2,18
			c-1.3,2.6-1,3.3,1.9,3.8C67.5,369.7,67.6,369.7,67.7,369.8z M83.1,352.9c-0.1-0.2-0.1-1-0.5-1.1c-0.7-0.3-0.8,0.5-1.1,1
			c-0.1,0.2-0.2,0.4-0.3,0.6c-2.3,4.7-4.5,9.5-6.8,14.2c-0.2,0.4-0.4,0.7-0.5,1.1c-0.1,0.3,0,0.7,0.1,0.9c0.1,0.1,0.5,0.1,0.8,0
			c0.3-0.1,0.6-0.3,0.9-0.4c1.8-1.1,3.1-2.6,4.1-4.4C81.9,361.2,82.7,357.3,83.1,352.9z M37.4,305.8c0.1,0.2,0.2,0.5,0.4,0.6
			c0.1,0.1,0.4-0.1,0.6-0.3c0.3-0.3,0.5-0.6,0.8-0.9c3-3.8,5.9-7.6,8.9-11.4c0.2-0.3,0.4-0.5,0.6-0.8c0.1-0.3,0.3-0.8,0.2-0.9
			c-0.3-0.2-0.7-0.4-1-0.3c-1.6,0.3-3.2,0.8-4.5,1.9C39.6,296.9,38.4,301.2,37.4,305.8z"/>
	</g>
</g>
</svg>
