<?xml version="1.0" encoding="utf-8"?>
<!-- Generator: Adobe Illustrator 26.3.1, SVG Export Plug-In . SVG Version: 6.00 Build 0)  -->
<svg version="1.1" id="Layer_1" xmlns="http://www.w3.org/2000/svg" xmlns:xlink="http://www.w3.org/1999/xlink" x="0px" y="0px"
	 width="300px" height="300px" viewBox="0 0 300 300" style="enable-background:new 0 0 300 300;" xml:space="preserve">
<style type="text/css">
	.st0{fill:#E1B9A0;}
	.st1{fill:#E6A181;}
	.st2{fill:#F2B2A6;}
	.st3{fill:#B5BFB6;}
	.st4{fill:#686869;}
	.st5{fill:#F1E8DB;}
	.st6{fill:#E2AE56;}
</style>
<g>
	<g>
		<g>
			<path class="st0" d="M47.6,116.5c0-0.8,0.4-1.5,1-2c0.5-0.4,0.9-1.1,0.9-3.1c0-1.3,0-2,0-3.3c0-2.4-0.4-3.5-1-4.4
				c-0.7-1-1-1.8-1-2.5c0-1.5,1.1-2,4.2-1c2,0.6,3,0.9,5.1,1.4c5.8,1.5,8.1,4.5,8.1,8.8c0,4.1-2.8,6.3-5.6,5.6
				c-1.6-0.4-2.4-1.6-3-1.8c-0.2-0.1-0.3,0.1-0.3,0.4c0,0.1,0,0.1,0,0.2c0,0.9,0.6,1.8,1.2,2.5c0.8,0.9,1.1,1.6,1.1,2.4
				c0,1.6-1.1,2.5-5.3,1.3C49.4,119.7,47.6,118,47.6,116.5z M58.2,108.8c0-2.2-0.8-3.8-1.5-4c-0.4-0.1-0.7,0.2-0.7,1.3
				c0,1.8,0,2.7,0,4.5c0,0.8,0.3,1.2,0.8,1.3C57.4,112.2,58.2,111.3,58.2,108.8z"/>
			<path class="st0" d="M85.2,119.3c0,3.3-1.3,6.6-4.3,6.4c-2-0.1-3.7-2.4-5.7-7.9c-0.4-1-0.6-1.2-0.9-1.2c-0.2,0-0.5,0.2-0.5,0.7
				c0,0.1,0,0.1,0,0.2c0,1.2,0.5,2,0.9,2.7c0.5,0.8,1,1.6,1,2.4c0,1.5-1.3,2.5-5.3,1.9c-3.4-0.5-5-1.8-5-3.4c0-0.8,0.4-1.6,1-2.2
				c0.5-0.4,0.9-1.2,0.9-3.3c0-1.3,0-2,0-3.3c0-2.4-0.4-3.4-1-4.2c-0.7-0.9-1-1.7-1-2.3c0-1.5,1.1-2.2,4.2-1.7
				c2.6,0.4,3.9,0.6,6.5,0.8c5,0.5,7.5,2.8,7.5,5.8c0,2.4-1.6,4.3-3.6,5.3c0.2,0.7,0.7,1.1,1.4,1.2c0.5,0,1-0.2,1.5-0.4
				c0.4-0.2,0.7-0.3,1-0.3C84.7,116.6,85.2,117.7,85.2,119.3z M76.6,110.7c0-1.7-1.3-2.5-2.3-2.6c-0.4,0-0.5,0.2-0.5,0.5
				c0,1.9,0,2.8,0,4.7c0,0.5,0.2,0.7,0.6,0.8C75.4,114.3,76.6,112.6,76.6,110.7z"/>
			<path class="st0" d="M85.6,115.9c0-6.5,4.2-10.4,10-10.5c5.4-0.1,9.5,3.3,9.5,9.6c0,6.8-4.2,11-10,11.1
				C89.6,126.1,85.6,122.2,85.6,115.9z M98,116.6c0-4.9-1.3-7.2-2.9-7.2c-1.5,0-2.4,2.2-2.4,5.5c0,4.9,1.3,7.3,2.9,7.2
				C97.1,122,98,119.8,98,116.6z"/>
			<path class="st0" d="M105.4,122.9c0-0.7,0.3-1.5,1-2.4c0.4-0.5,0.9-1.2,0.9-3.9c0-1.2,0-1.7,0-2.9c0-2.7-0.5-3.5-1-4
				c-0.6-0.7-1-1.4-1-2.1c0-1.4,1.2-2.4,3.2-2.6c4.1-0.3,6.1-0.5,10.1-1c2.6-0.3,3.6,2.1,3.6,4.7c0,1.6-0.5,3-1.4,3.1
				c-0.4,0.1-0.8-0.1-1.5-0.8c-1.8-2.1-2.5-2.7-3.9-2.6c0,0,0,0-0.1,0c-1.2,0.1-1.8,1-1.8,2.5c0,0,0,0,0,0.1c0,1.5,0.3,2,1.1,1.9
				c0,0,0,0,0.1,0c0.5-0.1,1-0.3,1.5-1c0.5-0.6,0.8-0.8,1.1-0.8c1-0.1,1.6,1.1,1.6,3.1c0,1.7-0.6,3.6-1.7,3.8
				c-0.8,0.1-1.3-0.6-1.7-1.2c-0.4-0.5-0.7-1-1.1-0.9c0,0,0,0-0.1,0c-0.5,0.1-0.8,0.5-0.8,1.4c0,0.2,0,0.2,0,0.4
				c0,1.1,0.2,1.8,1.1,2.1c1,0.4,1.6,0.8,1.6,1.9c0,1.4-1.4,3-5.7,3.4C107,125.5,105.4,124.5,105.4,122.9z"/>
			<path class="st0" d="M125.8,123.1c-2.1,0.3-3-0.7-3-1.9c0-0.8,0.4-1.5,1-2.4c0.4-0.6,0.9-1.6,0.9-4.2c0-1.1,0-1.6,0-2.7
				c0-2.6-0.4-3.4-0.9-3.9c-0.7-0.8-1-1.5-1-2.2c0-1.4,1.3-2.5,3.2-2.8c3.9-0.6,5.8-0.9,9.7-1.5c2.6-0.4,3.8,1.6,3.8,4.1
				c0,2.1-0.7,4.1-1.6,4.3c-0.4,0.1-0.7-0.2-1-0.8c-1.1-2-2.5-3.3-3.8-3.1c0,0-0.1,0-0.1,0c-1.2,0.2-1.7,1.2-1.7,2.4
				c0,0.1,0,0.1,0,0.1c0,1.4,0.5,1.9,1.1,1.8c0,0,0,0,0.1,0c0.4-0.1,0.7-0.5,1-0.9c0.3-0.5,0.6-1,1.2-1.1c0.9-0.1,1.4,0.9,1.4,2.7
				c0,2.1-0.7,3.8-1.6,3.9c-0.4,0.1-0.7-0.2-0.9-0.7c-0.3-0.5-0.7-1-1.2-0.9c0,0,0,0-0.1,0c-0.5,0.1-1,1-1,2.1c0,0.1,0,0.1,0,0.2
				c0,1.5,0.6,2.4,1.9,2.2c0,0,0.1,0,0.1,0c1.1-0.2,2.1-1.2,3.6-3.6c1.1-1.8,1.7-2.3,2.2-2.4c0.9-0.2,1.5,1.2,1.5,3.2
				c0,3.3-1.5,5.9-3.6,6.2C132.5,122.1,130.2,122.4,125.8,123.1z"/>
			<path class="st0" d="M141.4,115.7c0-2.4,0.7-4.3,2-4.5c1.1-0.2,1.7,0.8,2.3,2c1.3,2.5,2.5,3.2,4.4,2.9c1.2-0.2,2.1-1.1,2.1-2.3
				c0-1.1-0.9-1.7-3.7-2.4c-4.4-1-6.1-2.5-6.1-5.4c0-3.2,2.4-6.4,6.7-7.2c2.5-0.5,3.9,0.2,4.4,0.8c0.7-0.8,1.5-1.9,2.6-2.1
				c1.6-0.3,2.7,2,2.7,4.4c0,1.5-0.5,2.7-1.7,3c-1.4,0.3-2.4-0.9-3.4-2.1c-1.4-1.6-2.2-2.1-3.1-2c-0.9,0.2-1.4,0.9-1.4,1.7
				c0,1.2,0.9,1.8,3.9,2.6c4.6,1.2,6.3,2.7,6.3,5.6c0,3.3-2.5,7.2-7.1,8.1c-1.9,0.4-3.3-0.2-4.6,0c-1.2,0.2-1.9,1.2-2.9,1.3
				C142.6,120.7,141.4,118.4,141.4,115.7z"/>
			<path class="st0" d="M160.2,112.2c0-2.4,0.7-4.3,2-4.6c1.1-0.2,1.7,0.8,2.3,2c1.3,2.5,2.5,3.2,4.4,2.9c1.2-0.2,2.1-1,2.1-2.3
				c0-1.1-0.9-1.7-3.7-2.4c-4.4-1.1-6.1-2.5-6.1-5.4c0-3.2,2.4-6.4,6.7-7.2c2.5-0.5,3.9,0.3,4.4,0.8c0.7-0.8,1.5-1.9,2.6-2.1
				c1.6-0.3,2.7,2,2.7,4.5c0,1.5-0.5,2.7-1.7,2.9c-1.4,0.2-2.4-1-3.4-2.1c-1.4-1.7-2.2-2.1-3.1-2c-0.9,0.2-1.4,0.9-1.4,1.7
				c0,1.2,0.9,1.8,3.9,2.6c4.6,1.3,6.3,2.8,6.3,5.7c0,3.3-2.5,7.2-7.1,8c-1.9,0.3-3.3-0.2-4.6,0c-1.2,0.2-1.9,1.2-2.9,1.3
				C161.5,117.2,160.2,114.9,160.2,112.2z"/>
			<path class="st0" d="M178.8,111.5c0-0.8,0.4-1.5,1-2.5c0.4-0.6,0.9-1.6,0.9-3.7c0-1.4,0-2.1,0-3.6c0-2.1-0.4-3.1-0.9-3.6
				c-0.7-0.7-1-1.3-1-2.1c0-1.4,1.3-2.7,5.2-3.3c3.9-0.6,5.2,0.3,5.2,1.7c0,0.8-0.4,1.5-1,2.4c-0.4,0.6-0.9,1.8-0.9,3.9
				c0,1.4,0,2.1,0,3.6c0,2.1,0.4,3,0.9,3.5c0.7,0.7,1,1.3,1,2.1c0,1.5-1.3,2.8-5.2,3.4C180.1,113.9,178.8,113,178.8,111.5z"/>
			<path class="st0" d="M189.5,102.5c0-6.5,4.2-11.3,10-11.9c5.4-0.6,9.5,2.9,9.5,9.2c0,6.8-4.2,10.9-10,11.5
				C193.5,112,189.5,108.8,189.5,102.5z M201.9,101.7c0-4.9-1.3-7.1-2.9-7c-1.5,0.2-2.4,2.4-2.4,5.7c0,4.9,1.3,7.1,2.9,6.9
				C201,107.2,201.9,104.9,201.9,101.7z"/>
			<path class="st0" d="M209.4,107.8c0-0.7,0.2-1.3,0.9-2.2c0.5-0.6,1-1.4,1-3c0-1.8,0-2.7,0-4.6c0-1.9-0.4-3-0.9-3.5
				c-0.6-0.8-1.1-1.3-1.1-2.1c0-1.2,1-2.3,3.3-2.4c1,0,1.5-0.1,2.6-0.1c1.5-0.1,2.6,0.6,3.6,2.2c2.3,3.4,3.4,5.1,5.7,8.6
				c0-1.3,0-2,0-3.3c0-1.3-0.4-2.6-0.9-3.1c-0.7-0.8-1-1.5-1-2.3c0-1.6,1-2.5,3.8-2.4c2.9,0.1,3.8,1,3.8,2.7c0,0.8-0.4,1.5-1,2.2
				c-0.5,0.6-0.9,1.8-0.9,3.1c0,3.8,0,5.7,0,9.6c0,2.1-1,3.1-3.1,3.1c-1.6,0-2.4-0.5-3.6-2.2c-2.5-3.5-3.8-5.3-6.3-8.7
				c0,1.3,0,2,0,3.3c0,1.6,0.5,2.3,1,2.9c0.7,0.9,1,1.4,1,2.2c0,1.6-1,2.7-3.8,2.8C210.7,110.4,209.4,109.6,209.4,107.8z"/>
			<path class="st0" d="M250.6,110.3c0,1.8-1.8,2.2-5.4,1.6c-3.7-0.6-5.3-1.4-5.3-2.9c0-0.7,0.2-1,0.9-1.6c0.6-0.5,0.8-0.9,0.8-1.4
				c0-0.9-0.5-1.5-1.6-1.6c-0.9-0.1-1.4-0.2-2.3-0.3c-1-0.1-1.6,0.4-1.6,1.3c0,0.5,0.2,0.8,0.7,1.4c0.7,0.8,1,1.3,1,1.9
				c0,1.4-1.6,2-4.5,1.8c-2.9-0.2-4.5-1.1-4.5-2.7c0-0.7,0.3-1.2,1.1-2c1-1,1.6-1.8,1.9-2.9c0.9-3.1,1.4-4.7,2.3-7.8
				c-1.4-0.4-2-1.4-2-3c0-1.6,1-2.1,3.9-1.8c1.9,0.2,2.9,0.3,4.8,0.5c2.7,0.4,3.6,1.1,4.2,3.3c1.1,4.3,1.7,6.4,2.9,10.7
				c0.4,1.4,0.7,2,1.5,2.8C250.2,108.8,250.6,109.5,250.6,110.3z M237.1,101.2c1.2,0.1,1.8,0.2,3.1,0.3c-0.6-2.4-1-3.5-1.6-5.9
				C238,97.9,237.7,99,237.1,101.2z"/>
			<path class="st0" d="M253.8,113.3c-1.7-0.4-2.8-1.5-2.8-2.8c0-0.8,0.3-1.5,1-2.2c0.4-0.5,0.9-1.1,0.9-3.8c0-1.3,0-1.9,0-3.2
				c0-2.1-0.4-3.3-0.9-3.9c-0.7-1-1-1.7-1-2.5c0-1.4,1.3-2.3,5.2-1.3c3.9,1,5.2,2.5,5.2,3.9c0,0.8-0.4,1.3-1,2
				c-0.4,0.4-0.9,1.4-0.9,3.5c0,1.7,0,2.5,0,4.2c0,3.3,0.5,4.1,1.4,4.4c0,0,0.1,0,0.1,0c0.9,0.3,1.5-0.8,2.1-1.8
				c0.7-1.2,1.4-2.4,2.5-2c1.1,0.4,1.8,2.5,1.8,4.6c0,3.3-1.4,4.6-3.7,3.8C259.7,114.7,257.7,114.2,253.8,113.3z"/>
		</g>
		<g>
			<path class="st1" d="M44.9,138.1c-0.1-8.9,5.1-13.9,11.8-12.2c2.6,0.7,4.6,2.2,5.8,4.5c1.9-1.8,3.6-2.5,5.2-2.2
				c2.9,0.5,4.8,4.1,4.8,9.1c0,3.9-1.6,6.1-3.6,5.8c-1.8-0.3-2.9-1.8-4.8-5.9c-1.8-4-2.9-5.4-4.6-5.8c-2.1-0.5-3.4,1.9-3.4,6.2
				c0,6.8,3.1,13.8,7.1,14.6c2.4,0.5,4.2-0.7,5.6-3.6c0.3-0.8,0.8-1.1,1.3-1.1c1.2,0.2,2.3,2,2.3,3.9c0,5.5-6.5,9.8-13.4,7.9
				C50.1,156.9,45,147.2,44.9,138.1z"/>
			<path class="st1" d="M106.6,152c0,5.2-2.1,10.7-6.8,10.9c-3.2,0.1-5.8-3.2-9.1-11.5c-0.6-1.5-0.9-1.8-1.4-1.8
				c-0.4,0-0.7,0.3-0.7,1.1c0,0.2,0,0.2,0,0.4c0,1.9,0.7,3.2,1.5,4.2c0.9,1.2,1.6,2.4,1.6,3.7c0,2.4-2,4.3-8.4,3.9
				c-5.5-0.3-8-2.3-8-4.8c0-1.3,0.6-2.6,1.6-3.6c0.7-0.8,1.4-2,1.4-5.3c0-2.1,0-3.2,0-5.3c0-3.9-0.6-5.4-1.5-6.6
				c-1-1.4-1.5-2.5-1.5-3.6c0-2.3,1.7-3.5,6.7-3.2c4.2,0.3,6.2,0.3,10.4,0.3c8,0,12,3.2,12,7.9c0,3.8-2.5,7.1-5.8,9.1
				c0.4,1.1,1.1,1.7,2.2,1.6c0.8,0,1.7-0.5,2.4-0.9c0.6-0.3,1.1-0.6,1.6-0.7C105.8,147.7,106.6,149.5,106.6,152z M92.9,139.8
				c0-2.7-2-3.7-3.6-3.7c-0.6,0-0.8,0.3-0.8,0.9c0,3,0,4.5,0,7.5c0,0.8,0.3,1.1,1,1.1C91,145.7,92.9,142.9,92.9,139.8z"/>
			<path class="st1" d="M142.4,153.5c0,2.8-2.8,4.7-8.7,5.6c-5.9,1-8.5,0.3-8.5-2.2c0-1.2,0.3-1.7,1.4-2.9c1-1.1,1.3-1.8,1.3-2.6
				c0-1.4-0.8-2.1-2.5-1.9c-1.5,0.2-2.2,0.3-3.6,0.5c-1.6,0.2-2.5,1.1-2.5,2.7c0,0.7,0.3,1.2,1.1,2c1.2,1,1.6,1.7,1.6,2.6
				c0,2.3-2.5,3.9-7.2,4.4c-4.5,0.5-7.1-0.7-7.1-3.2c0-1.1,0.5-2,1.7-3.3c1.6-1.8,2.5-3.3,3-5c1.5-5.2,2.2-7.8,3.7-13
				c-2.2-0.3-3.2-1.6-3.2-4.2c0-2.5,1.6-3.6,6.3-4.1c3-0.4,4.6-0.6,7.6-1c4.4-0.6,5.8,0,6.7,3.3c1.8,6.2,2.7,9.3,4.5,15.5
				c0.6,2,1.1,2.8,2.4,3.7C141.8,151.4,142.4,152.2,142.4,153.5z M121,145.6c2-0.3,2.9-0.4,4.9-0.7c-1-3.5-1.5-5.2-2.6-8.7
				C122.4,140,121.9,141.9,121,145.6z"/>
			<path class="st1" d="M144.3,153.1c0-1.1,0.5-2.4,1.6-3.9c0.6-0.9,1.4-2.1,1.4-6.4c0-1.9,0-2.8,0-4.6c0-4.4-0.8-5.5-1.5-6.2
				c-1-1.1-1.5-2.1-1.5-3.2c0-2.2,1.9-4.1,5.1-4.6c6.5-1.2,9.7-1.8,16.2-3c4.1-0.7,5.8,3,5.8,7.2c0,2.6-0.8,4.9-2.2,5.1
				c-0.7,0.1-1.3,0-2.4-1.2c-2.9-3.1-4-4.1-6.2-3.7c0,0-0.1,0-0.1,0c-1.9,0.4-2.8,1.9-2.8,4.2c0,0.1,0,0.1,0,0.1
				c0,2.3,0.4,3.2,1.8,3c0,0,0.1,0,0.1,0c0.9-0.2,1.5-0.6,2.4-1.8c0.8-1,1.3-1.4,1.8-1.5c1.6-0.3,2.5,1.6,2.5,4.7
				c0,2.8-0.9,5.8-2.6,6.2c-1.3,0.2-2.1-0.8-2.8-1.7c-0.6-0.7-1.1-1.4-1.8-1.3c0,0-0.1,0-0.1,0c-0.8,0.1-1.3,0.9-1.3,2.3
				c0,0.2,0,0.4,0,0.6c0,1.7,0.3,2.8,1.8,3.3c1.5,0.5,2.5,1.1,2.5,2.9c0,2.3-2.2,5-9.1,6.2C146.8,156.9,144.3,155.5,144.3,153.1z"/>
			<path class="st1" d="M181,146.5c0-1.3,0.6-2.4,1.6-3.9c0.7-1,1.4-2.6,1.4-5.9c0-4.2,0-6.3,0-10.4c0-2.1-0.3-2.8-1.2-2.7
				c-1,0.2-1.8,2.3-2.5,4.6c-1,3-1.9,5.5-3.6,5.8c-1.8,0.3-3.1-2.8-3.1-7.4c0-4.5,1.6-8.4,4.2-8.8c2-0.3,3.1,0.7,6.8,0.1
				c3.6-0.5,5.4-0.8,9-1.2c3.9-0.5,5-1.8,7-2c2.6-0.3,4.2,3.2,4.2,7.7c0,4.8-1.3,8.1-3.1,8.3c-1.7,0.2-2.7-2.2-3.6-4.8
				c-0.7-2.1-1.5-4-2.5-3.9c-0.9,0.1-1.2,0.9-1.2,3c0,4.2,0,6.3,0,10.4c0,3.2,0.6,4.7,1.3,5.5c1.1,1.3,1.7,2.2,1.7,3.5
				c0,2.4-2.2,4.4-8.1,5.3C183.2,150.4,181,149,181,146.5z"/>
			<path class="st1" d="M211.6,146.8c-3.3,0.2-4.9-1.4-4.9-3.4c0-1.2,0.6-2.4,1.6-3.7c0.6-0.9,1.5-2.4,1.5-6.5c0-1.7,0-2.6,0-4.4
				c0-4.1-0.7-5.4-1.4-6.2c-1.1-1.3-1.6-2.5-1.6-3.6c0-2.2,2-3.8,5.2-4c6.2-0.3,9.2-0.4,15.4-0.1c4.2,0.1,6,3.9,6,7.8
				c0,3.4-1.1,6.3-2.5,6.2c-0.6,0-1.1-0.5-1.6-1.6c-1.8-3.6-3.9-6-6.1-6.1c-0.1,0-0.1,0-0.2,0c-1.9,0-2.7,1.4-2.7,3.3
				c0,0.1,0,0.1,0,0.2c0,2.2,0.7,3.1,1.7,3.1c0,0,0.1,0,0.1,0c0.7,0,1.2-0.6,1.6-1.2c0.5-0.8,1-1.5,1.9-1.4c1.4,0,2.3,1.9,2.3,4.8
				c0,3.3-1.1,5.8-2.5,5.8c-0.7,0-1-0.5-1.5-1.3c-0.4-0.8-1-1.7-1.9-1.7c0,0-0.1,0-0.1,0c-0.9,0-1.6,1.3-1.6,3.1c0,0.1,0,0.2,0,0.3
				c0,2.3,1,3.9,2.9,3.9c0.1,0,0.1,0,0.2,0c1.8,0,3.4-1.4,5.7-4.6c1.8-2.5,2.6-3.1,3.5-3.1c1.4,0.1,2.4,2.5,2.4,5.7
				c0,5.2-2.4,8.7-5.7,8.6C222.2,146.4,218.7,146.5,211.6,146.8z"/>
			<path class="st1" d="M268.7,144.5c0,5.2-2.1,9.7-6.8,8.2c-3.2-1-5.8-5.1-9.1-14.1c-0.6-1.6-0.9-2-1.4-2.1c-0.4-0.1-0.7,0.2-0.7,1
				c0,0.2,0,0.2,0,0.4c0,1.9,0.7,3.3,1.5,4.5c0.9,1.4,1.6,2.7,1.6,4c0,2.4-2,3.5-8.4,2.5c-5.5-0.9-8-2.7-8-5.2
				c0-1.3,0.6-2.6,1.6-3.6c0.7-0.7,1.4-2,1.4-5.3c0-2.1,0-3.2,0-5.3c0-3.9-0.6-5.5-1.5-6.7c-1-1.4-1.5-2.5-1.5-3.6
				c0-2.3,1.7-3.7,6.7-3c4.2,0.6,6.2,1,10.4,2c8,1.9,12,7.1,12,11.8c0,3.8-2.5,6.1-5.8,6.9c0.4,1.2,1.1,2,2.2,2.3
				c0.8,0.2,1.7,0.1,2.4,0c0.6-0.1,1.1-0.2,1.6,0C267.9,139.9,268.7,142,268.7,144.5z M255,127.6c0-2.7-2-4.2-3.6-4.5
				c-0.6-0.1-0.8,0.2-0.8,0.8c0,3,0,4.5,0,7.5c0,0.8,0.3,1.2,1,1.3C253,133,255,130.7,255,127.6z"/>
		</g>
		<g>
			<path class="st2" d="M46.1,175.6c-0.1-8.9,5.1-14,11.8-12.3c2.6,0.7,4.6,2.2,5.8,4.5c1.9-1.8,3.6-2.5,5.2-2.2
				c2.9,0.5,4.8,4.1,4.8,9c0,3.9-1.6,6.1-3.6,5.8c-1.8-0.3-2.9-1.7-4.8-5.8c-1.8-4-2.9-5.4-4.6-5.8c-2.1-0.5-3.4,1.9-3.4,6.3
				c0,6.8,3.1,13.8,7.1,14.5c2.4,0.5,4.2-0.7,5.6-3.7c0.3-0.8,0.8-1.1,1.3-1.1c1.2,0.2,2.3,2,2.3,3.9c0,5.5-6.5,9.8-13.4,8
				C51.3,194.3,46.3,184.6,46.1,175.6z"/>
			<path class="st2" d="M107.8,188.9c0,5.2-2.1,10.7-6.8,11c-3.2,0.2-5.8-3.2-9.1-11.5c-0.6-1.5-0.9-1.8-1.4-1.8
				c-0.4,0-0.7,0.3-0.7,1.1c0,0.2,0,0.2,0,0.4c0,1.9,0.7,3.2,1.5,4.2c0.9,1.2,1.6,2.3,1.6,3.6c0,2.4-2,4.3-8.4,4
				c-5.5-0.3-8-2.2-8-4.7c0-1.3,0.6-2.6,1.6-3.6c0.7-0.8,1.4-2,1.4-5.3c0-2.1,0-3.2,0-5.3c0-3.9-0.6-5.4-1.5-6.6
				c-1-1.4-1.5-2.5-1.5-3.6c0-2.3,1.7-3.6,6.7-3.3c4.2,0.2,6.2,0.3,10.4,0.2c8-0.1,12,3.1,12,7.8c0,3.8-2.5,7.2-5.8,9.1
				c0.4,1.1,1.1,1.6,2.2,1.6c0.8,0,1.7-0.5,2.4-0.9c0.6-0.3,1.1-0.6,1.6-0.7C107.1,184.6,107.8,186.4,107.8,188.9z M94.1,176.8
				c0-2.7-2-3.7-3.6-3.7c-0.6,0-0.8,0.3-0.8,0.9c0,3,0,4.5,0,7.5c0,0.8,0.3,1.1,1,1.1C92.2,182.7,94.1,179.9,94.1,176.8z"/>
			<path class="st2" d="M114.2,198.3c-3.3,0.3-4.9-1.3-4.9-3.3c0-1.2,0.6-2.4,1.6-3.7c0.6-0.9,1.5-2.5,1.5-6.6c0-1.7,0-2.6,0-4.4
				c0-4.1-0.7-5.4-1.4-6.2c-1.1-1.3-1.6-2.5-1.6-3.6c0-2.2,2-3.8,5.2-4.2c6.2-0.7,9.2-1.1,15.4-2c4.2-0.6,6,2.6,6,6.5
				c0,3.4-1.1,6.5-2.5,6.8c-0.6,0.1-1.1-0.3-1.6-1.2c-1.8-3.2-3.9-5.3-6.1-5c-0.1,0-0.1,0-0.2,0c-1.9,0.3-2.7,1.8-2.7,3.7
				c0,0.1,0,0.1,0,0.2c0,2.2,0.7,3,1.7,2.9c0,0,0.1,0,0.1,0c0.7-0.1,1.2-0.7,1.6-1.4c0.5-0.8,1-1.6,1.9-1.8c1.4-0.2,2.3,1.5,2.3,4.4
				c0,3.3-1.1,6-2.5,6.2c-0.7,0.1-1-0.3-1.5-1.1c-0.4-0.8-1-1.5-1.9-1.4c0,0-0.1,0-0.1,0c-0.9,0.1-1.6,1.6-1.6,3.3
				c0,0.1,0,0.2,0,0.3c0,2.3,1,3.8,2.9,3.5c0.1,0,0.1,0,0.2,0c1.8-0.3,3.4-1.9,5.7-5.6c1.8-2.9,2.6-3.7,3.5-3.9
				c1.4-0.2,2.4,1.9,2.4,5.1c0,5.2-2.4,9.4-5.7,9.9C124.8,197.1,121.2,197.6,114.2,198.3z"/>
			<path class="st2" d="M173.8,184.8c0,2.8-2.8,4.6-8.7,5.7c-5.9,1.1-8.5,0.5-8.5-1.9c0-1.2,0.3-1.7,1.4-2.9c1-1.1,1.3-1.8,1.3-2.7
				c0-1.4-0.8-2.1-2.5-1.8c-1.5,0.3-2.2,0.4-3.6,0.7c-1.6,0.3-2.5,1.3-2.5,2.8c0,0.7,0.3,1.2,1.1,1.9c1.2,1,1.6,1.6,1.6,2.5
				c0,2.3-2.5,4-7.2,4.9c-4.5,0.8-7.1-0.1-7.1-2.6c0-1.1,0.5-2.1,1.7-3.5c1.6-2,2.5-3.5,3-5.3c1.5-5.3,2.2-8,3.7-13.3
				c-2.2-0.1-3.2-1.4-3.2-3.9c0-2.5,1.6-3.7,6.3-4.6c3-0.6,4.6-0.8,7.6-1.4c4.4-0.8,5.8-0.2,6.7,3c1.8,6.2,2.7,9.3,4.5,15.5
				c0.6,2,1.1,2.8,2.4,3.6C173.2,182.7,173.8,183.5,173.8,184.8z M152.4,177.5c2-0.4,2.9-0.5,4.9-0.9c-1-3.4-1.5-5.1-2.6-8.6
				C153.8,171.8,153.3,173.7,152.4,177.5z"/>
			<path class="st2" d="M177.9,184.1c0-1.3,0.6-2.4,1.6-3.9c0.7-1,1.4-2.6,1.4-5.9c0-4.2,0-6.3,0-10.4c0-2.1-0.3-2.8-1.2-2.7
				c-1,0.2-1.8,2.3-2.5,4.6c-1,3-1.9,5.5-3.6,5.8c-1.8,0.3-3.1-2.7-3.1-7.4c0-4.5,1.6-8.4,4.2-8.8c2-0.3,3.1,0.7,6.8,0.1
				c3.6-0.6,5.4-0.8,9-1.3c3.9-0.5,5-1.9,7-2.1c2.6-0.3,4.2,3.2,4.2,7.7c0,4.8-1.3,8.1-3.1,8.3c-1.7,0.2-2.7-2.2-3.6-4.8
				c-0.7-2.1-1.5-4-2.5-3.9c-0.9,0.1-1.2,0.9-1.2,3c0,4.2,0,6.3,0,10.4c0,3.2,0.6,4.7,1.3,5.5c1.1,1.2,1.7,2.2,1.7,3.5
				c0,2.4-2.2,4.5-8.1,5.3C180.1,187.9,177.9,186.5,177.9,184.1z"/>
			<path class="st2" d="M208.5,184c-3.3,0.2-4.9-1.4-4.9-3.3c0-1.2,0.6-2.4,1.6-3.7c0.6-0.9,1.5-2.5,1.5-6.5c0-1.7,0-2.6,0-4.4
				c0-4.1-0.7-5.4-1.4-6.2c-1.1-1.3-1.6-2.5-1.6-3.6c0-2.2,2-3.9,5.2-4.1c6.2-0.4,9.2-0.5,15.4-0.4c4.2,0.1,6,3.8,6,7.7
				c0,3.4-1.1,6.3-2.5,6.3c-0.6,0-1.1-0.5-1.6-1.5c-1.8-3.5-3.9-6-6.1-5.9c-0.1,0-0.1,0-0.2,0c-1.9,0-2.7,1.5-2.7,3.4
				c0,0.1,0,0.1,0,0.2c0,2.2,0.7,3.1,1.7,3.1c0,0,0.1,0,0.1,0c0.7,0,1.2-0.6,1.6-1.2c0.5-0.8,1-1.5,1.9-1.5c1.4,0,2.3,1.9,2.3,4.8
				c0,3.3-1.1,5.8-2.5,5.8c-0.7,0-1-0.5-1.5-1.3c-0.4-0.8-1-1.7-1.9-1.7c0,0-0.1,0-0.1,0c-0.9,0-1.6,1.4-1.6,3.1c0,0.1,0,0.2,0,0.3
				c0,2.3,1,3.9,2.9,3.9c0.1,0,0.1,0,0.2,0c1.8,0,3.4-1.4,5.7-4.7c1.8-2.5,2.6-3.2,3.5-3.2c1.4,0.1,2.4,2.4,2.4,5.7
				c0,5.2-2.4,8.8-5.7,8.7C219.1,183.4,215.5,183.6,208.5,184z"/>
			<path class="st2" d="M239.4,184.6c-3.4-0.4-5.4-1.7-5.4-4.3c0-1.1,0.6-2.3,1.6-3.5c0.9-1,1.5-2.5,1.5-6c0-2,0-3.1,0-5.1
				c0-3.4-0.6-5-1.4-6c-1-1.4-1.6-2.6-1.6-3.9c0-2.2,2-3.6,5.4-3.2c3.7,0.4,5.5,0.7,9.2,1.4c9.4,1.9,17.6,9.8,17.4,19.8
				c-0.2,10.2-8.4,13.9-17.7,12C244.7,185.3,243,185,239.4,184.6z M254.7,170.7c0-5.8-1.9-10.2-4.7-10.8c-1.9-0.4-2.6,1.4-2.6,4.8
				c0,4.1,0,6.2,0,10.3c0,3.3,0.8,5.3,2.6,5.6C252.4,181.2,254.7,177.8,254.7,170.7z"/>
		</g>
		<g>
			<path class="st3" d="M52.3,222.2c0-1.1,0.5-1.8,1.4-2.6c0.6-0.6,1.2-1.6,1.2-4.4c0-3.5,0-5.2,0-8.7c0-1.7-0.3-2.4-1-2.7
				c-0.8-0.2-1.5,1.3-2.1,2.9c-0.8,2.1-1.5,3.8-2.9,3.4c-1.5-0.5-2.6-3.6-2.6-7.5c0-3.7,1.3-6.2,3.5-5.5c1.7,0.5,2.6,1.9,5.7,2.7
				c3,0.8,4.5,1.2,7.5,1.8c3.2,0.7,4.2-0.2,5.8,0.1c2.2,0.3,3.5,3.5,3.5,7.2c0,4-1.1,6.5-2.6,6.2c-1.4-0.2-2.2-2.4-2.9-4.8
				c-0.6-1.9-1.3-3.7-2.1-3.9c-0.7-0.1-1,0.4-1,2.2c0,3.5,0,5.2,0,8.7c0,2.7,0.5,4.1,1.1,4.9c0.9,1.3,1.4,2.3,1.4,3.4
				c0,2-1.8,3.3-6.8,2.1C54.1,226.4,52.3,224.2,52.3,222.2z"/>
			<path class="st3" d="M73.8,217c-0.1-7.5,5.6-13.4,13.2-13.1c7.1,0.3,12.4,4.9,12.5,13.2c0.1,7.6-5.2,14.4-13.2,14.1
				C78.7,230.8,73.8,224.1,73.8,217z M90.2,218.8c0-6.5-1.7-9.6-3.9-9.7c-1.9-0.1-3.2,2.7-3.2,7c0,6.5,1.7,9.7,3.9,9.8
				C88.9,226,90.2,223.1,90.2,218.8z"/>
			<path class="st3" d="M112.7,216.1c0-7.5,4.2-13.6,9.8-14.3c2.2-0.3,3.8,0.4,4.8,1.9c1.6-2,3-3.1,4.3-3.3c2.4-0.4,4,2.2,4,6.3
				c0,3.2-1.3,5.5-2.9,5.7c-1.5,0.2-2.4-0.7-4-3.6c-1.5-2.8-2.4-3.7-3.8-3.5c-1.7,0.2-2.8,2.6-2.8,6.2c0,5.7,2.6,10.4,5.9,9.9
				c2-0.3,3.5-1.8,4.7-4.6c0.3-0.7,0.7-1.2,1.1-1.2c1-0.2,1.9,1.1,1.9,2.7c0,4.6-5.2,9.5-11.1,10.3
				C117.3,229.8,112.7,224,112.7,216.1z"/>
			<path class="st3" d="M163.9,213.2c0,4.3-1.7,9.1-5.7,9.8c-2.7,0.5-4.9-1.9-7.5-8.3c-0.5-1.1-0.8-1.4-1.2-1.3
				c-0.3,0.1-0.6,0.4-0.6,1c0,0.1,0,0.2,0,0.3c0,1.5,0.6,2.5,1.2,3.3c0.7,0.9,1.3,1.7,1.3,2.8c0,2-1.7,3.8-7,4.7
				c-4.5,0.8-6.7-0.2-6.7-2.3c0-1.1,0.5-2.3,1.4-3.4c0.6-0.8,1.2-2,1.2-4.7c0-1.8,0-2.6,0-4.4c0-3.2-0.5-4.4-1.3-5.2
				c-0.9-0.9-1.3-1.8-1.3-2.6c0-1.9,1.4-3.4,5.6-4.1c3.5-0.6,5.2-0.9,8.6-1.6c6.7-1.2,10,1.1,10,5c0,3.2-2.1,6.2-4.8,8.2
				c0.3,0.8,0.9,1.2,1.8,1.1c0.6-0.1,1.4-0.6,2-1c0.5-0.3,0.9-0.6,1.3-0.7C163.3,209.7,163.9,211.1,163.9,213.2z M152.5,204.7
				c0-2.2-1.7-2.8-3-2.5c-0.5,0.1-0.7,0.4-0.7,0.9c0,2.5,0,3.8,0,6.3c0,0.6,0.3,0.9,0.8,0.8C150.9,209.9,152.5,207.3,152.5,204.7z"
				/>
			<path class="st3" d="M169.2,220.6c-2.7,0.5-4-0.7-4-2.4c0-1,0.5-2.1,1.3-3.2c0.5-0.8,1.2-2.2,1.2-5.5c0-1.5,0-2.2,0-3.6
				c0-3.4-0.6-4.4-1.2-5c-0.9-1-1.4-1.9-1.4-2.8c0-1.8,1.7-3.4,4.3-3.8c5.1-0.9,7.7-1.4,12.8-2.2c3.5-0.5,5,2.2,5,5.5
				c0,2.8-0.9,5.4-2,5.6c-0.5,0.1-0.9-0.2-1.4-1c-1.5-2.6-3.3-4.4-5.1-4.1c-0.1,0-0.1,0-0.1,0c-1.5,0.3-2.2,1.6-2.2,3.1
				c0,0.1,0,0.1,0,0.2c0,1.8,0.6,2.5,1.4,2.4c0,0,0,0,0.1,0c0.6-0.1,1-0.6,1.3-1.2c0.4-0.7,0.8-1.4,1.6-1.5c1.2-0.2,1.9,1.2,1.9,3.6
				c0,2.7-0.9,5-2,5.2c-0.6,0.1-0.9-0.3-1.2-0.9s-0.9-1.3-1.6-1.1c0,0,0,0-0.1,0c-0.7,0.1-1.4,1.3-1.4,2.8c0,0.1,0,0.2,0,0.3
				c0,1.9,0.8,3.1,2.4,2.8c0.1,0,0.1,0,0.1,0c1.5-0.2,2.8-1.6,4.7-4.7c1.5-2.4,2.2-3.1,2.9-3.2c1.2-0.2,2,1.6,2,4.3
				c0,4.3-2,7.7-4.7,8.1C178,219,175,219.5,169.2,220.6z"/>
			<path class="st3" d="M218.7,211.8c0,2.3-2.3,3.4-7.2,3.7c-4.9,0.3-7-0.4-7-2.4c0-1,0.2-1.4,1.2-2.3c0.8-0.8,1.1-1.4,1.1-2.1
				c0-1.2-0.6-1.8-2.1-1.7c-1.2,0.1-1.8,0.2-3,0.3c-1.3,0.1-2.1,0.9-2.1,2.2c0,0.6,0.2,1,0.9,1.7c1,0.9,1.3,1.4,1.3,2.2
				c0,1.9-2.1,3.1-6,3.6c-3.8,0.4-5.9-0.4-5.9-2.4c0-0.9,0.4-1.7,1.4-2.8c1.4-1.6,2-2.8,2.5-4.3c1.2-4.4,1.8-6.5,3.1-10.9
				c-1.8-0.2-2.7-1.3-2.7-3.4c0-2.1,1.4-3,5.2-3.4c2.5-0.3,3.8-0.4,6.3-0.6c3.6-0.3,4.8,0.4,5.6,3.2c1.5,5.3,2.3,8,3.8,13.3
				c0.5,1.7,0.9,2.4,2,3.3C218.2,210,218.7,210.8,218.7,211.8z M200.9,203.6c1.6-0.2,2.4-0.2,4.1-0.4c-0.8-2.9-1.3-4.4-2.1-7.3
				C202.1,198.9,201.7,200.5,200.9,203.6z"/>
			<path class="st3" d="M222,211.8c0-1.1,0.5-1.9,1.4-3c0.6-0.7,1.2-1.9,1.2-4.7c0-3.5,0-5.2,0-8.7c0-1.7-0.3-2.4-1-2.4
				c-0.8,0-1.5,1.7-2.1,3.5c-0.8,2.4-1.5,4.3-2.9,4.3c-1.5,0-2.6-2.7-2.6-6.6c0-3.7,1.3-6.8,3.5-6.8c1.7,0,2.6,1,5.7,1
				c3,0.1,4.5,0.1,7.5,0.3c3.2,0.2,4.2-0.7,5.8-0.5c2.2,0.2,3.5,3.4,3.5,7.1c0,4-1.1,6.5-2.6,6.3c-1.4-0.2-2.2-2.3-2.9-4.6
				c-0.6-1.8-1.3-3.6-2.1-3.7c-0.7-0.1-1,0.6-1,2.3c0,3.5,0,5.2,0,8.7c0,2.7,0.5,4,1.1,4.8c0.9,1.2,1.4,2.1,1.4,3.2
				c0,2-1.8,3.3-6.8,3.1C223.8,215.2,222,213.8,222,211.8z"/>
			<path class="st3" d="M247.4,217.1c-2.7-0.5-4-2.1-4-3.8c0-1,0.5-1.9,1.3-2.8c0.5-0.6,1.2-1.7,1.2-5.1c0-1.5,0-2.2,0-3.6
				c0-3.4-0.6-4.6-1.1-5.4c-0.9-1.3-1.4-2.4-1.4-3.3c0-1.8,1.7-2.8,4.3-2.4c5.1,0.9,7.7,1.5,12.8,3c3.5,1,5,4.5,5,7.8
				c0,2.8-0.9,5-2,4.6c-0.5-0.2-0.9-0.6-1.4-1.6c-1.5-3.3-3.3-5.9-5.1-6.3c-0.1,0-0.1,0-0.1,0c-1.5-0.4-2.2,0.6-2.2,2.2
				c0,0.1,0,0.1,0,0.2c0,1.8,0.6,2.7,1.4,2.9c0,0,0,0,0.1,0c0.6,0.1,1-0.2,1.3-0.6c0.4-0.5,0.8-1,1.6-0.8c1.2,0.3,1.9,2.1,1.9,4.5
				c0,2.7-0.9,4.6-2,4.3c-0.6-0.2-0.9-0.6-1.2-1.4c-0.4-0.8-0.9-1.6-1.6-1.8c0,0,0,0-0.1,0c-0.7-0.2-1.4,0.8-1.4,2.2
				c0,0.1,0,0.2,0,0.3c0,1.9,0.8,3.4,2.4,3.8c0.1,0,0.1,0,0.1,0c1.5,0.4,2.8-0.4,4.7-2.6c1.5-1.7,2.2-2,2.9-1.8c1.2,0.4,2,2.6,2,5.3
				c0,4.3-2,6.7-4.7,5.9C256.2,218.8,253.3,218.1,247.4,217.1z"/>
		</g>
	</g>
	<path class="st4" d="M103.5,106.4c-3.4-8.8-1.2-6.7-10.1-9.8c8.8-3.4,6.7-1.2,9.8-10.1c3.4,8.8,1.2,6.7,10.1,9.8
		C104.5,99.7,106.6,97.5,103.5,106.4z"/>
	<path class="st4" d="M270.8,198.2c-3.4-8.8-1.2-6.7-10.1-9.8c8.8-3.4,6.7-1.2,9.8-10.1c3.4,8.8,1.2,6.7,10.1,9.8
		C271.8,191.5,273.9,189.3,270.8,198.2z"/>
	<path class="st4" d="M105.7,240.7c-3.4-8.8-1.2-6.7-10.1-9.8c8.8-3.4,6.7-1.2,9.8-10.1c3.4,8.8,1.2,6.7,10.1,9.8
		C106.8,233.9,108.9,231.8,105.7,240.7z"/>
	<g>
		<path class="st5" d="M47.3,169.4c0.1,0.4,0.1,0.6,0.2,0.9c0.7,2.7,5.6,10.6,0.6,12.3c-5,1.7-7.8-10.7-7.9-11
			c-0.6,0.9-5.1,12.9-10.7,10.2c-1-0.7-1.4-2-1-3.4c0.4-1.5,1.3-2.8,2.3-4.1c0.6-0.8,1.2-1.5,1.8-2.4c-1.2,0.2-2.2,0.5-3.3,0.6
			c-1.7,0.2-3.3,0.5-5,0.6c-0.9,0.1-1.8-0.2-2.4-0.9c-0.8-0.9-0.9-1.9-0.4-2.8c0.4-0.8,1-1.6,1.7-2.1c1.3-1,8.6-3.1,8.8-3.2
			c-0.3-0.1-8.9-2.3-10.6-3.7c-1.3-1.1-2.3-2.4-2.6-4.1c-0.3-1.6,0.8-3.2,2.5-3.3c1.1-0.1,2.3,0.1,3.5,0.2c2.8,0.4,5.4,1.5,8,2.5
			c0.2,0.1,0.4,0.2,0.8,0.3c-0.5-0.9-0.9-1.8-1.3-2.6c-1.1-2.3-1.7-4.7-1.2-7.3c0.1-0.5,0.2-1,0.5-1.5c0.5-1.1,2-1.5,3-0.8
			c0.8,0.5,1.5,1.1,2.1,1.8c1,1.2,4.4,8.1,4.6,8.4c0.1-0.4,1.4-13.8,7.1-13c6,1.2,0.8,13.3,0.8,13.7c0.7-0.5,14.9-2.9,15.4,2.5
			c0.3,3.5-4.9,7.2-11.3,6.2c0,0-0.1,0.1-0.2,0.2c0.7,0.6,1.4,1.1,2.1,1.7c1.4,1.1,2.7,2.4,3.9,3.8c0.9,1.1,1.7,2.3,1.9,3.8
			c0.2,1.8-1.2,3.2-3,2.9c-1.2-0.2-2.2-0.7-3.2-1.3c-2.2-1.5-4.5-3-6.7-4.5C47.7,169.7,47.6,169.6,47.3,169.4z"/>
		<path class="st6" d="M44.1,163.9c-0.4,0.2-1.2,0.6-2,0.9c-2.2,0.6-4-1-3.9-3.5c0-0.9,0.6-2,1.2-2.6c1.1-1.1,2.4-1.8,4-2
			c1.2-0.1,2.2,0.6,2.6,1.8C46.5,160.5,46,162.2,44.1,163.9z"/>
	</g>
	<g>
		<path class="st5" d="M197.1,84.5c0.1,0.4,0.1,0.6,0.2,0.9c0.7,2.7,5.6,10.6,0.6,12.3c-5,1.7-7.8-10.7-7.9-11
			c-0.6,0.9-5.1,12.9-10.7,10.2c-1-0.7-1.4-2-1-3.4c0.4-1.5,1.3-2.8,2.3-4.1c0.6-0.8,1.2-1.5,1.8-2.4c-1.2,0.2-2.2,0.5-3.3,0.6
			c-1.7,0.2-3.3,0.5-5,0.6c-0.9,0.1-1.8-0.2-2.4-0.9c-0.8-0.9-0.9-1.9-0.4-2.8c0.4-0.8,1-1.6,1.7-2.1c1.3-1,8.6-3.1,8.8-3.2
			c-0.3-0.1-8.9-2.3-10.6-3.7c-1.3-1.1-2.3-2.4-2.6-4.1c-0.3-1.6,0.8-3.2,2.5-3.3c1.1-0.1,2.3,0.1,3.5,0.2c2.8,0.4,5.4,1.5,8,2.5
			c0.2,0.1,0.4,0.2,0.8,0.3c-0.5-0.9-0.9-1.8-1.3-2.6c-1.1-2.3-1.7-4.7-1.2-7.3c0.1-0.5,0.2-1,0.5-1.5c0.5-1.1,2-1.5,3-0.8
			c0.8,0.5,1.5,1.1,2.1,1.8c1,1.2,4.4,8.1,4.6,8.4c0.1-0.4,1.4-13.8,7.1-13c6,1.2,0.8,13.3,0.8,13.7c0.7-0.5,14.9-2.9,15.4,2.5
			c0.3,3.5-4.9,7.2-11.3,6.2c0,0-0.1,0.1-0.2,0.2c0.7,0.6,1.4,1.1,2.1,1.7c1.4,1.1,2.7,2.4,3.9,3.8c0.9,1.1,1.7,2.3,1.9,3.8
			c0.2,1.8-1.2,3.2-3,2.9c-1.2-0.2-2.2-0.7-3.2-1.3c-2.2-1.5-4.5-3-6.7-4.5C197.5,84.8,197.4,84.7,197.1,84.5z"/>
		<path class="st6" d="M193.9,79c-0.4,0.2-1.2,0.6-2,0.9c-2.2,0.6-4-1-3.9-3.5c0-0.9,0.6-2,1.2-2.6c1.1-1.1,2.4-1.8,4-2
			c1.2-0.1,2.2,0.6,2.6,1.8C196.3,75.6,195.8,77.3,193.9,79z"/>
	</g>
	<g>
		<path class="st5" d="M225.1,236.1c0.1,0.4,0.1,0.6,0.2,0.9c0.7,2.7,5.6,10.6,0.6,12.3c-5,1.7-7.8-10.7-7.9-11
			c-0.6,0.9-5.1,12.9-10.7,10.2c-1-0.7-1.4-2-1-3.4c0.4-1.5,1.3-2.8,2.3-4.1c0.6-0.8,1.2-1.5,1.8-2.4c-1.2,0.2-2.2,0.5-3.3,0.6
			c-1.7,0.2-3.3,0.5-5,0.6c-0.9,0.1-1.8-0.2-2.4-0.9c-0.8-0.9-0.9-1.9-0.4-2.8c0.4-0.8,1-1.6,1.7-2.1c1.3-1,8.6-3.1,8.8-3.2
			c-0.3-0.1-8.9-2.3-10.6-3.7c-1.3-1.1-2.3-2.4-2.6-4.1c-0.3-1.6,0.8-3.2,2.5-3.3c1.1-0.1,2.3,0.1,3.5,0.2c2.8,0.4,5.4,1.5,8,2.5
			c0.2,0.1,0.4,0.2,0.8,0.3c-0.5-0.9-0.9-1.8-1.3-2.6c-1.1-2.3-1.7-4.7-1.2-7.3c0.1-0.5,0.2-1,0.5-1.5c0.5-1.1,2-1.5,3-0.8
			c0.8,0.5,1.5,1.1,2.1,1.8c1,1.2,4.4,8.1,4.6,8.4c0.1-0.4,1.4-13.8,7.1-13c6,1.2,0.8,13.3,0.8,13.7c0.7-0.5,14.9-2.9,15.4,2.5
			c0.3,3.5-4.9,7.2-11.3,6.2c0,0-0.1,0.1-0.2,0.2c0.7,0.6,1.4,1.1,2.1,1.7c1.4,1.1,2.7,2.4,3.9,3.8c0.9,1.1,1.7,2.3,1.9,3.8
			c0.2,1.8-1.2,3.2-3,2.9c-1.2-0.2-2.2-0.7-3.2-1.3c-2.2-1.5-4.5-3-6.7-4.5C225.6,236.4,225.4,236.3,225.1,236.1z"/>
		<path class="st6" d="M221.9,230.6c-0.4,0.2-1.2,0.6-2,0.9c-2.2,0.6-4-1-3.9-3.5c0-0.9,0.6-2,1.2-2.6c1.1-1.1,2.4-1.8,4-2
			c1.2-0.1,2.2,0.6,2.6,1.8C224.3,227.2,223.8,228.9,221.9,230.6z"/>
	</g>
</g>
</svg>
