<?xml version="1.0" encoding="utf-8"?>
<!-- Generator: Adobe Illustrator 27.8.1, SVG Export Plug-In . SVG Version: 6.00 Build 0)  -->
<svg version="1.1" id="Layer_1" xmlns="http://www.w3.org/2000/svg" xmlns:xlink="http://www.w3.org/1999/xlink" x="0px" y="0px"
	 viewBox="0 0 300 300" style="enable-background:new 0 0 300 300;" xml:space="preserve">
<style type="text/css">
	.st0{fill:#010101;}
	.st1{fill-rule:evenodd;clip-rule:evenodd;fill:#010101;}
</style>
<g>
	<g>
		<g>
			<circle class="st0" cx="75.34" cy="207.43" r="2.94"/>
			<circle class="st0" cx="70.81" cy="196.76" r="2.94"/>
			<path class="st0" d="M67.39,188.72c1.49-0.63,2.19-2.36,1.55-3.85c-0.63-1.49-2.36-2.19-3.85-1.55
				c-1.49,0.63-2.19,2.36-1.55,3.85C64.17,188.66,65.9,189.35,67.39,188.72z"/>
		</g>
		<g>
			<path class="st0" d="M43.55,206.55c-1.49-0.17-2.15-0.43-2.42-0.58c0.1-0.21,0.38-0.61,0.48-0.76l-0.17-0.12l0,0l0.17,0.12
				c0.57-0.83,1.27-1.85,0.81-2.93c-0.47-1.1-1.77-1.24-2.64-1.33c-0.16-0.02-0.58-0.06-0.8-0.11c0.08-0.13,0.23-0.35,0.46-0.66
				c0.55-0.74,1.39-1.85,0.81-3.02c-0.54-1.1-2.02-1.67-4.25-1.64c-0.62-0.05-1.21,0.39-1.31,0.97c-0.05,0.28,0.02,0.56,0.19,0.78
				c0.18,0.23,0.47,0.38,0.78,0.41c0.02,0,0.08,0,0.18,0c1.44-0.01,2.15,0.28,2.29,0.47c-0.02,0.16-0.39,0.65-0.55,0.86
				c-0.54,0.72-1.28,1.7-0.82,2.77c0.47,1.1,1.77,1.24,2.64,1.33c0.17,0.02,0.63,0.07,0.84,0.12c-0.05,0.13-0.19,0.38-0.54,0.89
				c-0.53,0.78-1.2,1.74-0.78,2.73c0.42,0.98,1.77,1.57,4.25,1.85c0.23,0.04,0.47,0.01,0.68-0.09c0.28-0.12,0.51-0.33,0.64-0.6
				c0.13-0.28,0.14-0.57,0.03-0.84c-0.11-0.27-0.33-0.47-0.62-0.56C43.76,206.57,43.66,206.56,43.55,206.55z"/>
			<path class="st0" d="M72.81,234.01c-0.12,0.06-0.19,0.11-0.28,0.18c-1.18,0.92-1.83,1.2-2.14,1.28c-0.08-0.22-0.16-0.7-0.19-0.88
				c-0.17-0.99-0.39-2.21-1.47-2.66c-1.11-0.46-2.13,0.36-2.81,0.9c-0.13,0.1-0.46,0.36-0.65,0.48c-0.04-0.15-0.09-0.41-0.14-0.79
				c-0.12-0.91-0.3-2.29-1.54-2.72c-1.16-0.4-2.61,0.22-4.18,1.8c-0.48,0.4-0.59,1.12-0.26,1.61c0.16,0.24,0.41,0.39,0.68,0.43
				c0.29,0.04,0.6-0.05,0.84-0.26c0.02-0.01,0.06-0.06,0.13-0.13c1.02-1.02,1.73-1.31,1.96-1.26c0.1,0.13,0.18,0.73,0.21,0.99
				c0.12,0.89,0.28,2.11,1.35,2.55c1.11,0.46,2.13-0.36,2.81-0.9c0.13-0.11,0.5-0.39,0.69-0.5c0.05,0.13,0.13,0.41,0.24,1.02
				c0.16,0.93,0.37,2.08,1.36,2.5c0.53,0.22,1.17,0.17,1.97-0.17c0.67-0.29,1.46-0.78,2.36-1.49c0.19-0.13,0.34-0.32,0.43-0.54
				c0.12-0.28,0.13-0.6,0.03-0.87c-0.1-0.29-0.3-0.51-0.57-0.62C73.38,233.86,73.08,233.88,72.81,234.01z"/>
			<path class="st0" d="M99.9,178.54c-0.61-0.1-0.89-0.18-1.02-0.23c0.1-0.19,0.39-0.56,0.49-0.69l0,0
				c0.53-0.68,1.34-1.71,0.87-2.81c-0.45-1.07-1.67-1.22-2.56-1.33c-0.26-0.03-0.86-0.11-1-0.2c-0.05-0.23,0.23-0.94,1.25-1.97
				c0.07-0.07,0.11-0.12,0.12-0.13c0.2-0.24,0.29-0.55,0.25-0.84c-0.04-0.28-0.19-0.52-0.43-0.68c-0.49-0.33-1.22-0.21-1.6,0.26
				c-1.58,1.6-2.2,3.06-1.78,4.21c0.44,1.24,1.82,1.41,2.74,1.52c0.38,0.05,0.65,0.09,0.79,0.13c-0.12,0.2-0.38,0.53-0.48,0.66
				c-0.53,0.68-1.34,1.71-0.87,2.81c0.46,1.08,1.69,1.28,2.67,1.45c0.18,0.03,0.66,0.11,0.88,0.18c-0.08,0.3-0.35,0.96-1.26,2.15
				c-0.07,0.09-0.13,0.16-0.18,0.28c-0.13,0.28-0.14,0.57-0.03,0.84c0.11,0.27,0.33,0.47,0.62,0.56c0.28,0.09,0.59,0.08,0.87-0.04
				c0.22-0.09,0.41-0.24,0.53-0.42c1.52-1.99,2.04-3.37,1.62-4.35C101.99,178.89,100.83,178.7,99.9,178.54z"/>
			<path class="st0" d="M103.54,212.86c-2.25,0.04-3.71,0.64-4.22,1.76c-0.55,1.19,0.32,2.28,0.89,3c0.24,0.3,0.4,0.52,0.48,0.65
				c-0.22,0.06-0.64,0.12-0.81,0.14c-0.86,0.11-2.16,0.28-2.59,1.4c-0.43,1.09,0.3,2.1,0.89,2.91c0.11,0.15,0.39,0.54,0.5,0.74
				c-0.27,0.16-0.92,0.44-2.41,0.65c-0.12,0.02-0.21,0.03-0.33,0.07c-0.28,0.1-0.5,0.31-0.61,0.58c-0.11,0.27-0.09,0.57,0.05,0.84
				c0.13,0.26,0.37,0.47,0.65,0.58c0.22,0.09,0.46,0.11,0.68,0.07c1.14-0.16,2.04-0.38,2.72-0.67c0.79-0.34,1.28-0.76,1.48-1.3
				c0.39-1-0.3-1.95-0.85-2.71c-0.36-0.5-0.51-0.75-0.57-0.87c0.21-0.06,0.67-0.12,0.84-0.15c0.86-0.11,2.16-0.28,2.59-1.4
				c0.43-1.08-0.34-2.04-0.9-2.75c-0.16-0.21-0.54-0.68-0.57-0.84c0.13-0.2,0.83-0.51,2.27-0.54c0.1,0,0.16-0.01,0.18-0.01
				c0.31-0.03,0.59-0.19,0.77-0.43c0.17-0.23,0.23-0.51,0.17-0.79C104.74,213.22,104.14,212.8,103.54,212.86z"/>
		</g>
		<path class="st0" d="M63.06,158.93c-0.54,0.23-0.83,0.8-0.63,1.26c0.24,0.56,0.52,1.93,0.05,3.47c-0.51,1.67-1.74,2.93-3.63,3.74
			c-1.89,0.8-3.65,0.81-5.21,0.02c-1.44-0.73-2.23-1.88-2.47-2.44c-0.2-0.46-0.8-0.65-1.34-0.42c-0.54,0.23-0.83,0.8-0.63,1.26
			c0.86,2.04,4.67,5.68,10.36,3.27c5.69-2.42,5.71-7.69,4.84-9.73C64.21,158.89,63.61,158.7,63.06,158.93z"/>
		<path class="st0" d="M49.68,158.33c-0.55-1.98-2.61-3.15-4.6-2.59c-1.98,0.55-3.15,2.61-2.59,4.6c0.55,1.98,2.61,3.15,4.6,2.59
			C49.07,162.37,50.24,160.31,49.68,158.33z"/>
		
			<ellipse transform="matrix(0.9204 -0.391 0.391 0.9204 -54.8766 36.1537)" class="st0" cx="61.35" cy="152.84" rx="3.73" ry="3.73"/>
	</g>
	<path class="st0" d="M259.38,232.26l-5.36-1.09l0-21.07l5.53-0.4c0.7-0.13,1.18-0.72,1.16-1.44c-0.02-0.71-0.54-1.27-1.2-1.35
		l-18.43-3.25c0.77-0.16,1.36-0.75,1.44-1.56c0.09-0.89-0.45-1.68-1.3-1.92l-3.61-1.07l-0.83-24.23l5.51-0.4
		c0.71-0.13,1.18-0.72,1.16-1.44s-0.54-1.27-1.14-1.33l-5.98-1.6l19.81-3.27c0.52-0.09,0.92-0.49,1.02-1.01
		c0.09-0.52-0.14-1.03-0.62-1.31l-3.98-2.2l-0.33-11.22l1.78-0.25c0.5-0.09,1.12-0.59,1.24-1.22c0.05-0.26,0.07-0.93-0.75-1.44
		c-0.06-0.04-0.13-0.07-0.2-0.09l-4.4-1.2l1.4-0.11c0.89-0.06,1.58-0.73,1.67-1.62c0.09-0.89-0.45-1.68-1.3-1.92l-3.6-1.07
		l-0.02-4.53c0.01-0.06,0.03-0.12,0.03-0.19c0-0.04-0.02-0.07-0.03-0.1l-0.06-10.48c0.06-0.11,0.09-0.24,0.09-0.38
		c-0.01-0.11-0.04-0.21-0.09-0.31l-0.03-4.52c2.19-0.16,3.92-0.3,5.07-0.41c0.01,0,0.02-0.01,0.02-0.01l0.44-0.03
		c0.7-0.13,1.18-0.72,1.16-1.43c-0.02-0.72-0.54-1.27-1.24-1.36l-74.55-9.32c-0.04-0.01-0.09-0.01-0.13-0.01l-85.27,4.23
		c-1.31,0.06-2.42,1.05-2.63,2.35c-1.73,10.61-0.48,19.53-0.47,19.62c0.01,0.04,0.02,0.09,0.03,0.13c0.42,1.28,1.45,2.26,2.76,2.62
		l2.7,0.7l-6.46,1.88c-0.96,0.27-1.62,1.11-1.63,2.07l-0.78,12.15c-0.02,0.99,0.63,1.88,1.57,2.17l6.15,1.88l-10.74,0.98
		c-0.59,0.03-1.14,0.26-1.58,0.61c-0.01,0.01-0.01,0.01-0.02,0.02c-0.53,0.43-0.91,1.04-1.03,1.76c-0.19,1.69-0.27,3.32-0.31,4.91
		l-4.94,0.47c2.63-6,2.73-12.67,0.22-18.58c-5.13-12.08-19.13-17.73-31.21-12.6c-12.08,5.13-17.73,19.13-12.6,31.21
		c2.44,5.74,7.42,10.46,13.52,12.9l-13.7,11.86l-2.31,1.94c-4.59,4.01-5.49,10.85-2.1,15.92c3.25,4.83,9.49,6.7,14.84,4.42
		c0.71-0.3,1.41-0.68,2.08-1.14l6.16-4.18l4.47,25.48c0.62,3.53,2.6,6.57,5.57,8.56c2.18,1.46,4.68,2.22,7.23,2.22
		c0.93,0,1.87-0.1,2.81-0.3c0.79-0.17,1.57-0.42,2.32-0.74c5.11-2.17,8.28-7.35,7.9-12.83l-0.14-10.94l7.99,7.56
		c3.72,4.12,9.64,5.43,14.75,3.26c0.74-0.32,1.47-0.7,2.14-1.15c2.53-1.69,4.33-4.13,5.2-6.99l7.86,4.07
		c-2.31,1.27-4.45,2.44-6.71,3.68c1.37,0.89,2.88,1.87,4.7,3.05c-2.55,1.31-4.9,2.52-7.37,3.79c1.18,0.57,2.35,1.13,3.93,1.89
		c-2.84,1.63-5.4,3.09-7.97,4.56c4.11,2.66,8.73,4.49,13.71,5.54c-0.28,1.52-0.53,2.86-0.79,4.29c0.85,0.11,1.68,0.22,2.52,0.34
		c0.02,0,0.03,0,0.05,0.01c0.84,0.11,1.67,0.22,2.52,0.34c0.12-1.45,0.24-2.81,0.37-4.35c5.08,0.29,10.02-0.25,14.68-1.74
		c-2.1-2.1-4.18-4.18-6.49-6.5c1.73-0.32,3-0.55,4.29-0.79c-2.05-1.87-4-3.66-6.11-5.59c1.17-0.37,2.21-0.71,3.18-1.02l19.7,10.19
		c0.05,0.03,0.1,0.04,0.15,0.06c0.92,0.25,1.86,0.37,2.82,0.37c0.27,0,0.54-0.01,0.81-0.03l102.06-9.89
		c0.89-0.06,1.58-0.73,1.67-1.62C260.83,233.31,260.29,232.52,259.38,232.26z M258.3,208.26l-4.82,0.35c-0.01,0-0.02,0-0.03,0
		c-10.49,1-67.87,4.57-95.84,6.2c-2.84-0.6-7.09-2.16-10.12-3.3l87.74-7.32L258.3,208.26z M252.49,216.41l0,4.82l-101.71,7.83
		c-0.01-0.22-0.03-0.45-0.03-0.67c0.04-1.77,0.53-3.52,1.41-5.25L252.49,216.41z M153.1,221.54c1.14-1.72,2.66-3.42,4.62-5.08
		c0.06-0.05,0.11-0.1,0.17-0.14c27.19-1.58,81.71-4.97,94.6-6.09v4.64L153.1,221.54z M252.49,222.77l0,3.82l-100.1,8.01
		c-0.73-1.33-1.21-2.67-1.45-4.01L252.49,222.77z M252.49,228.12v3.01c-15.08,1.36-30.64,2.75-46.45,4.17
		c-16.36,1.46-32.98,2.95-49.58,4.45c-1.27-1.22-2.31-2.45-3.16-3.69L252.49,228.12z M235.42,180.31l0.21,6.18l-98.43,7.9
		c-0.36-2.15-0.42-4.28-0.22-6.25L235.42,180.31z M137.19,186.59c0.12-0.71,0.27-1.41,0.46-2.06l0.19-0.7
		c0.31-1.14,0.76-2.8,1.39-3.57c2.67-0.15,6.27-0.31,10.07-0.48c3.84-0.17,7.88-0.35,11.34-0.54c0.12-0.01,0.22-0.04,0.32-0.1
		l5.47,1.67c0.82,0.25,1.52,0.38,2.24,0.38c0.44,0,0.89-0.05,1.38-0.14l27.33-4.52c8.42-0.46,17.6-0.77,24.98-1.03
		c5.71-0.2,10.39-0.36,12.89-0.52l0.13,3.79L137.19,186.59z M235.69,188.02l0.19,5.5l-96.29,7.97c-0.96-1.8-1.64-3.69-2.08-5.58
		L235.69,188.02z M235.92,195.06l0.14,3.98c-14.96,1.34-29.38,2.43-44.62,3.58c-15.46,1.16-31.45,2.36-48.11,3.87
		c-1.12-1.09-2.07-2.28-2.88-3.53L235.92,195.06z M241.3,173.02l-5.09,0.37c-0.01,0-0.02,0-0.02,0c-1.97,0.19-7.23,0.37-13.89,0.6
		c-3.69,0.13-7.82,0.27-12.08,0.44l22.45-3.71L241.3,173.02z M246.51,141.92c-14.98,1.35-28.51,2.29-42.83,3.29
		c-14.44,1.01-29.37,2.05-45.97,3.54c-0.69-1.23-1.24-2.48-1.7-3.73c28.68-2.59,83.08-6.2,90.48-6.69L246.51,141.92z M246.49,136.79
		c-7.05,0.47-62.24,4.13-90.96,6.73c-0.46-1.54-0.75-3.1-0.87-4.67c6.65-0.18,82.58-5.38,91.81-6.01L246.49,136.79z M155.52,130.44
		c0.31-1.09,0.76-2.29,1.58-3.15c13.25-0.77,68.31-3.99,89.3-5.5l0.02,4.05l-91.19,5.82C155.33,131.25,155.4,130.84,155.52,130.44z
		 M154.9,133.21c0,0,0.01,0,0.01,0l91.52-5.84l0.02,3.94c-8.31,0.57-86,5.89-91.89,6.02C154.55,135.96,154.67,134.59,154.9,133.21z
		 M98.71,139.5l54.94,14.31c0.92,0.25,1.87,0.37,2.82,0.37c0.27,0,0.54-0.01,0.8-0.03l88.08-6.91l7.88,2.16l-1.91,0.27c0,0,0,0,0,0
		c-27.49,3.87-79.47,12.32-80.44,12.48c-24.87-5.84-72.16-18.18-80.26-20.3L98.71,139.5z M250.81,155.51l0.09,2.88
		c-21.87,3.79-75.51,12.44-79.61,13.1c-0.02-1.02-0.04-2.13-0.02-3.28C174.85,167.65,238.48,157.64,250.81,155.51z M171.29,166.66
		c0.03-1.03,0.09-2.05,0.18-3.05c4.67-0.76,52.65-8.53,79.22-12.3l0.08,2.65C239.23,155.96,177.06,165.75,171.29,166.66z
		 M250.94,159.94l0.07,2.2c-12.9,2.31-25.39,4.42-38.6,6.64c-13.2,2.22-26.85,4.52-40.93,7.05c-0.04-0.59-0.09-1.57-0.14-2.79
		C173.25,172.73,228.44,163.83,250.94,159.94z M88.96,155.56c-0.29-0.09-0.5-0.37-0.49-0.64l0.76-11.84
		c3.64,0.95,54.25,14.2,80.71,20.43c-0.51,5.84,0.02,12.76,0.05,13.06c0.02,0.21,0.12,0.39,0.27,0.52c0.13,0.23,0.39,0.38,0.66,0.38
		c0.04,0,0.09,0,0.14-0.01c14.32-2.58,28.19-4.91,41.6-7.17c13.34-2.25,25.95-4.37,39-6.71l3.4,1.88l-22.46,3.71
		c-0.01,0-0.02,0-0.03,0l-62.8,10.38c-1.04,0.19-1.82,0.14-2.9-0.2L88.96,155.56z M109.42,221.6c-0.52,2.94-2.18,5.47-4.65,7.12
		c-0.57,0.38-1.17,0.7-1.79,0.97c-4.25,1.8-9.18,0.71-12.34-2.77l-9.92-9.39c-0.32-0.3-0.79-0.38-1.19-0.21
		c-0.4,0.18-0.66,0.57-0.65,1.01l0.18,13.58c0.32,4.61-2.32,8.93-6.57,10.74c-0.62,0.26-1.27,0.47-1.93,0.62
		c-2.91,0.63-5.88,0.07-8.36-1.6c-2.48-1.66-4.12-4.19-4.64-7.13l-4.76-27.14c-0.06-0.36-0.31-0.67-0.65-0.81
		c-0.14-0.06-0.28-0.09-0.42-0.09c-0.21,0-0.43,0.06-0.61,0.19l-7.55,5.12c-0.55,0.37-1.13,0.69-1.71,0.94
		c-4.39,1.87-9.51,0.34-12.18-3.63c-2.79-4.16-2.05-9.78,1.71-13.06l17.43-15.03c0.3-0.26,0.43-0.66,0.35-1.04
		c-0.08-0.39-0.36-0.7-0.74-0.82c-6.22-1.96-11.57-6.68-13.97-12.31c-4.66-10.97,0.47-23.69,11.44-28.35
		c10.97-4.66,23.69,0.47,28.35,11.44c2.51,5.9,2.14,12.64-1,18.49c-0.19,0.35-0.17,0.78,0.05,1.12c0.22,0.34,0.61,0.5,1.01,0.48
		l22.13-2.14l1.5-0.12c0.18-0.01,0.36-0.03,0.54-0.03c0,0,0.01,0,0.01,0c4.73-0.14,9.04,3.16,10.06,7.87
		c1.01,4.67-1.45,9.42-5.84,11.29c-0.59,0.25-1.21,0.44-1.86,0.58l-8.92,1.88c-0.36,0.08-0.66,0.33-0.79,0.67
		c-0.13,0.34-0.08,0.73,0.14,1.03l16.24,22.27C109.27,215.72,109.95,218.66,109.42,221.6z M102.94,196.39
		c-0.25,2.28-0.4,4.37-0.5,6.28l-6.78-9.3L102.94,196.39z M258.94,234.29l-102.06,9.89c-1.02,0.08-2.04-0.02-3.03-0.27l-18.27-9.45
		c0.03-0.01,0.06-0.02,0.09-0.03c-2.03-1.96-3.91-3.78-6.02-5.82c1.39-0.56,2.33-0.93,3.4-1.36c-3.48-3.14-5.54-6.94-6.72-10.96
		c-0.04,0.05-0.09,0.09-0.13,0.14c-0.03-0.06-0.06-0.11-0.09-0.17c-2.13,3.47-5.02,6.52-9.03,8.62l-5.53-2.86
		c0-0.01,0.01-0.03,0.01-0.04c0.63-3.53-0.19-7.06-2.29-9.95l-5.36-7.36c0.06-2.26,0.21-4.81,0.51-7.67l34.99,14.54
		c0.92,0.25,1.87,0.37,2.82,0.37c0.27,0,0.54-0.01,0.81-0.03l0.94-0.08c0.04,0.02,0.06,0.05,0.1,0.06c0.45,0.16,1.05,0.39,1.77,0.66
		c2.67,1.01,6.89,2.6,10.13,3.46c-2.13,1.92-3.77,3.89-4.89,5.91c-0.09,0.1-0.14,0.21-0.17,0.35c-1.05,2-1.63,4.04-1.69,6.12
		c-0.06,2.46,0.63,4.9,2.02,7.3c0.03,0.08,0.07,0.15,0.12,0.21c1.05,1.77,2.47,3.52,4.3,5.23c0.14,0.13,0.33,0.21,0.52,0.21
		c0.02,0,0.05,0,0.07,0c16.71-1.51,33.45-3.01,49.92-4.48c16.07-1.44,31.88-2.85,47.19-4.23l5.65,1.15c0.19,0.05,0.21,0.19,0.2,0.3
		C259.2,234.19,259.11,234.28,258.94,234.29z"/>
	<path class="st1" d="M267.07,87.54c0.95,0.87,1.82,1.82,2.84,2.55c-0.87,1.17-2.4,2.04-1.67,4.44c0.51-0.15,1.6-0.8,2.18-1.31
		c0.51,0.22,0.87,0.58,1.09,1.09c-1.24,0.8-2.11,1.89-3.13,2.91c-0.07,1.17,0.15,1.97,0.15,3.13c0.8-0.15,2.04-1.02,2.99-1.46
		c0.29-1.38,0.8-2.62,0.95-4.15c0.58-0.07,0.87,0.07,1.38,0.15c0,0.87,0,1.82,0,2.69c1.46-0.15,2.91-1.53,2.99-3.64
		c1.24,0.36,2.48,0.66,3.79,0.95c-0.29,1.31-0.58,2.55-0.95,3.79c-1.97-0.87-3.5-0.29-4.73,0.8c0.73,0.51,1.75,0.87,2.55,1.38
		c-0.22,0.36-0.29,0.87-0.51,1.24c-1.46-0.15-2.77-1.17-4.01-1.09c-1.24,0.07-1.82,1.31-2.99,1.6c0.8,0.8,1.89,1.24,2.84,1.89
		c1.53-0.29,2.77-0.8,4.3-1.02c0.15,0.36,0.36,0.66,0.36,1.24c-0.8,0.36-1.6,0.8-2.4,1.17c0.66,0.58,1.53,0.87,2.18,1.53
		c0.87-0.22,1.67-0.51,2.55-0.66c0.29,1.31,0.73,2.4,0.95,3.79c-1.31,0.22-2.48,0.66-3.79,0.95c-0.22-0.8-0.44-1.67-0.66-2.4
		c-0.66-0.51-1.46-0.8-2.18-1.24c-0.29,0.66-0.07,1.97-0.15,2.84c-0.51-0.07-0.8,0.15-1.24,0.15c-0.44-1.31-0.73-2.77-1.02-4.15
		c-0.87-0.58-1.82-0.95-2.69-1.53c-0.22,0.95-0.58,2.33-0.44,3.13c0.29,1.46,2.48,2.18,3.06,3.28c-0.15,0.44-0.44,0.73-0.8,0.95
		c-0.87-0.44-1.6-1.02-2.4-1.53c-0.44,2.33,0.29,3.5,1.6,4.3c-0.58,1.24-1.97,1.75-2.69,2.84c-0.07-0.51-2.77-2.04-2.84-2.69
		c0-0.73,1.38-1.09,1.89-1.75c0-0.87,0-1.82,0-2.69c-0.87,0.36-1.53,0.95-2.4,1.31c-0.44-0.15-0.51-0.51-0.8-0.8
		c0.8-1.31,2.18-1.97,3.13-3.06c0-1.02,0-2.04,0-3.13c-0.87,0-1.89,1.09-2.99,1.31c-0.36,1.38-0.73,2.91-1.09,4.3
		c-0.58,0.07-0.8-0.22-1.38-0.15c0.22-0.73,0.15-1.75,0.15-2.69c-1.46,0.15-2.99,1.53-2.99,3.64c-1.24-0.36-2.4-0.73-3.79-0.95
		c0.22-1.38,0.58-2.62,0.95-3.79c2.04,0.8,3.35,0.29,4.73-0.8c-0.73-0.51-1.75-0.87-2.55-1.38c0.15-0.36,0.29-0.8,0.44-1.24
		c1.46,0.07,2.84,1.24,4.15,1.09c1.24-0.07,1.75-1.31,2.84-1.6c-0.95-0.51-1.6-1.6-2.69-1.75c-1.38-0.22-2.84,1.17-4.44,1.02
		c-0.07-0.36-0.15-0.73-0.36-0.95c0.58-0.73,1.67-0.87,2.4-1.46c-1.09-1.31-2.77-1.53-4.73-0.8c-0.22-1.31-0.73-2.33-0.95-3.64
		c1.24-0.36,2.55-0.73,3.79-1.09c0.07,2.11,1.31,3.13,2.91,3.64c-0.07-0.87,0.15-2.04-0.15-2.69c0.36-0.15,0.8-0.29,1.38-0.29
		c0.36,1.31,0.73,2.69,1.09,4.08c0.95,0.58,2.04,1.02,2.99,1.6c-0.22-1.67,0.44-2.04,0.15-3.13c-0.36-1.46-4.59-2.99-2.4-4.22
		c0.95,0.36,1.6,0.95,2.4,1.38c-0.22-1.17,0.36-1.46,0.15-2.26c-0.22-1.09-1.82-1.46-1.89-2.04
		C264.3,89.73,266.78,88.42,267.07,87.54z"/>
	<g>
		<path class="st0" d="M78.62,65.08c0-1.16,0.52-2.12,1.92-3.52c1.2-1.2,1.88-2.96,2.24-5.52l0.64-4.48
			c0.16-1.12,0.28-2.76,0.28-3.6c0-1.04-0.32-1.92-0.88-2.48c-0.68-0.68-1.08-1.36-1.08-2.56c0-3,2.88-4.52,8.39-4.52
			c4.64,0,6.95,1.24,6.95,3.72c0,1.36-0.52,2.36-1.88,3.52c-1.12,0.96-1.68,2.16-2,4.32l-0.8,5.63c-0.16,1.2-0.28,2.16-0.28,2.92
			c0,1.36,0.16,2.2,0.8,3.12c0.8,1.12,1.04,1.84,1.04,2.88c0,2.8-2.88,4.24-8.47,4.24C80.89,68.76,78.62,67.52,78.62,65.08z"/>
		<path class="st0" d="M97.99,52.89c0-2.04,3.88-3,4.36-4.96c-2.44,0-3.92-1.36-3.92-3.68c0-3.36,2-5.83,5.59-5.83
			c3.04,0,4.6,1.72,4.6,5.2c0,5.55-4.28,10.71-8.67,10.71C98.67,54.33,97.99,53.85,97.99,52.89z"/>
		<path class="st0" d="M143.19,38.9c2.72,0,3.88,1.52,3.88,3.4c0,1.52-0.68,2.24-1.88,3.36c-1.04,0.96-1.64,1.88-2,4.32l-0.8,5.63
			c-0.16,1.2-0.28,2.16-0.28,2.92c0,1.36,0.16,2.2,0.8,3.12c0.72,1.04,1.04,1.76,1.04,2.88c0,2.4-2.08,4.24-8.47,4.24
			c-5.44,0-6.87-1.68-6.87-3.68c0-1.28,0.64-2.24,1.92-3.52c1.2-1.2,1.88-2.8,2.24-5.52l0.52-3.76l-6.95,9.43
			c-0.32,0.44-0.68,0.6-1,0.6c-0.28,0-0.68-0.36-0.84-0.68l-4.08-9.23l-0.44,3.2c-0.16,1.2-0.28,2.16-0.28,2.92
			c0,1.36,0.16,2.2,0.8,3.12c0.72,1.04,1.04,1.76,1.04,2.88c0,2.4-2.08,4.24-7.67,4.24c-5.04,0-6.47-1.68-6.47-3.68
			c0-1.28,0.64-2.24,1.92-3.52c1.2-1.2,1.88-2.8,2.24-5.52l0.6-4.48c0.16-1.2,0.36-2.84,0.36-3.6c0-1-0.44-1.56-0.96-2.16
			c-0.8-0.92-1-1.6-1-2.64c0-2.2,2-4.28,5.39-4.28h4.88c2.48,0,3.76,0.76,4.64,2.92l3.04,7.51l4.64-6.71
			c1.72-2.52,3.12-3.72,5.76-3.72H143.19z"/>
		<path class="st0" d="M187.26,64.44c0,3.12-2.96,4.32-8.55,4.32c-5.76,0-7.51-0.88-7.51-3.28c0-1.32,0.48-2.24,1.76-3.04
			c0.72-0.44,1.16-0.96,1.16-1.84c0-0.64-0.16-1.16-0.6-1.6c-0.64,0.72-1.84,1.28-3.36,1.28c-1.36,0-2.32-0.44-3.04-1.28
			c-0.72,0.56-1.04,1.36-1.04,2c0,0.6,0.24,0.88,0.88,1.44c0.88,0.72,1.28,1.36,1.28,2.8c0,2.32-2.16,3.52-7.51,3.52
			c-4,0-6.07-1.44-6.07-3.6c0-1.4,0.6-2.4,2.4-3.6c1.44-0.96,2.28-1.96,3.44-4.6l4.76-10.83l-0.28-0.08
			c-1.88-0.48-2.4-1.32-2.4-2.96c0-2.88,1.76-4.2,5.12-4.2h9.91c2.8,0,3.8,1.36,4.24,4.04l2.4,15.19c0.24,1.4,0.92,2.72,1.6,3.32
			C186.78,62.32,187.26,63.32,187.26,64.44z M168.95,54.53h3.96l-1-8.35L168.95,54.53z"/>
		<path class="st0" d="M193.68,68.28c-4.24,0-5.68-1.2-5.68-3.2c0-1.28,0.64-2.24,1.92-3.52c1.2-1.2,1.92-2.8,2.24-5.52l0.56-4.48
			c0.16-1.2,0.36-2.44,0.36-3.6c0-1.04-0.32-1.92-0.88-2.48c-0.68-0.68-1.08-1.36-1.08-2.56c0-2.56,2.08-4.52,8.39-4.52
			c5.68,0,6.95,1.8,6.95,3.72c0,1.52-0.68,2.48-1.88,3.52c-1.12,0.96-1.68,2.16-2,4.32l-0.8,5.63c-0.24,1.76-0.6,3.96-0.6,5.32
			c0,1.44,0.44,2,1.48,2h0.28c3.2,0,4.32-7.83,7.51-7.83c1.56,0,2.24,1.24,2.24,4.04c0,5.68-2.44,9.15-6.39,9.15H193.68z"/>
		<path class="st0" d="M218.53,68.28c-4.24,0-5.67-1.2-5.67-3.2c0-1.28,0.64-2.24,1.92-3.52c1.2-1.2,1.92-2.8,2.24-5.52l0.56-4.48
			c0.16-1.2,0.36-2.44,0.36-3.6c0-1.04-0.32-1.92-0.88-2.48c-0.68-0.68-1.08-1.36-1.08-2.56c0-2.56,2.08-4.52,8.39-4.52
			c5.68,0,6.95,1.8,6.95,3.72c0,1.52-0.68,2.48-1.88,3.52c-1.12,0.96-1.68,2.16-2,4.32l-0.8,5.63c-0.24,1.76-0.6,3.96-0.6,5.32
			c0,1.44,0.44,2,1.48,2h0.28c3.2,0,4.32-7.83,7.51-7.83c1.56,0,2.24,1.24,2.24,4.04c0,5.68-2.44,9.15-6.39,9.15H218.53z"/>
		<path class="st0" d="M96.26,94.65c0,5.76-4.76,10.31-11.59,10.31c-2.64,0-4.12-0.56-5.4-1.44c-1,0.6-2.56,1.44-5.64,1.44
			c-3.44,0-5.31-1.52-5.31-3.68c0-1.36,0.88-2.4,1.92-3.52c0.72-0.8,1.8-2.08,2.24-5.52l0.56-4.48c0.16-1.12,0.36-2.72,0.36-3.6
			c0-1.12-0.36-2.32-0.88-2.8c-0.8-0.72-1.12-1.6-1.12-2.56c0-2.64,2.12-4.2,5.76-4.2c1.92,0,3.84,0.32,5.84,0.96
			c1.44-0.56,3.68-0.96,6.07-0.96c4.68,0,7.91,2.56,7.91,6.27c0,3.44-2.12,6.16-5.24,7.47C94.78,89.26,96.26,91.62,96.26,94.65z
			 M85.87,93.93c0-1.72-0.72-2.76-1.92-2.76c-1.16,0-1.8,0.56-1.96,1.72l-0.36,2.64c-0.08,0.56-0.16,1.4-0.16,1.84
			c0,0.84,0.48,1.28,1.48,1.28C84.71,98.65,85.87,96.81,85.87,93.93z M86.59,82.1c0-1.44-0.6-2.2-1.68-2.2
			c-0.76,0-1.2,0.48-1.32,1.32l-0.6,4.12c-0.08,0.56-0.16,1.2-0.16,1.56c0,0.44,0.32,0.68,0.88,0.68
			C85.59,87.58,86.59,85.7,86.59,82.1z"/>
		<path class="st0" d="M98.21,92.97c0-10.55,7.23-18.34,17.03-18.34c7.51,0,11.91,4.4,11.91,11.99c0,10.55-7.23,18.35-17.03,18.35
			C102.65,104.96,98.21,100.53,98.21,92.97z M116.76,87.5c0-4.8-1.28-7.03-3.16-7.03c-2.6,0-5,5.68-5,11.83
			c0,4.8,1.24,6.83,3.16,6.83C114.4,99.13,116.76,93.65,116.76,87.5z"/>
		<path class="st0" d="M128.78,92.97c0-10.55,7.23-18.34,17.03-18.34c7.51,0,11.91,4.4,11.91,11.99c0,10.55-7.23,18.35-17.03,18.35
			C133.21,104.96,128.78,100.53,128.78,92.97z M147.32,87.5c0-4.8-1.28-7.03-3.16-7.03c-2.6,0-5,5.68-5,11.83
			c0,4.8,1.24,6.83,3.16,6.83C144.96,99.13,147.32,93.65,147.32,87.5z"/>
		<path class="st0" d="M189.36,96.21c0,4.04-4.12,8.75-8.39,8.75c-4.44,0-5.83-4-7.19-9.27c-1.04-3.92-1.6-4.96-2.6-4.96h-0.56
			l-0.16,1.08c-0.16,1.2-0.28,2.16-0.28,2.92c0,1.36,0.16,2.2,0.8,3.12c0.8,1.12,1.04,1.84,1.04,2.88c0,2.8-2.88,4.24-8.47,4.24
			c-4.6,0-6.87-1.24-6.87-3.68c0-1.16,0.52-2.12,1.92-3.52c1.2-1.2,1.88-2.96,2.24-5.52l0.64-4.48c0.16-1.12,0.28-2.76,0.28-3.6
			c0-1.04-0.32-1.92-0.88-2.48c-0.68-0.68-1.08-1.36-1.08-2.56c0-3,2.88-4.52,8.39-4.52c4.64,0,6.95,1.24,6.95,3.72
			c0,1.36-0.52,2.36-1.88,3.52c-1.12,0.96-1.68,2.16-2,4.32l-0.4,2.84l7.03-5.76c0.48-0.36,1.32-1,1.32-1.16s-0.48-0.96-0.72-1.44
			c-0.72-1.48-0.84-1.92-0.84-2.68c0-2.24,2.24-3.36,6.71-3.36c4.52,0,5.96,1.2,5.96,3c0,1.52-1.04,2.48-2.64,3.84l-6.75,5.72
			c0.72,1.4,1.4,2.96,2.16,4.2c1.2,2,2.2,2.92,3.16,2.92c0.36,0,0.64-0.04,0.96-0.16c0.32-0.12,0.52-0.16,0.8-0.16
			C188.84,93.97,189.36,94.81,189.36,96.21z"/>
		<path class="st0" d="M195.02,104.48c-4.24,0-5.68-1.2-5.68-3.2c0-1.28,0.64-2.24,1.92-3.52c1.2-1.2,1.88-2.68,2.24-5.52l0.56-4.48
			c0.16-1.2,0.36-2.76,0.36-3.6c0-1.04-0.32-1.92-0.88-2.48c-0.68-0.68-1.08-1.36-1.08-2.56c0-2.56,2.08-4.04,5.83-4.04h13.95
			c3.52,0,4.72,2.52,4.72,5.36c0,2.76-1.48,7.43-3.16,7.43c-0.64,0-0.96-0.4-1.36-1.6c-1.04-3.12-3.16-5.2-5.28-5.2h-0.16
			c-1.36,0-2.24,1-2.48,2.2l-0.08,0.4c-0.08,0.48-0.16,1.12-0.16,1.52c0,1.44,0.48,2.04,1.12,2.04h0.08c1.52,0,2.2-2.44,3.84-2.44
			c1.16,0,1.6,1,1.6,2.6c0,2.84-1.48,7.15-3.28,7.15c-0.64,0-0.96-0.4-1.28-1.2c-0.28-0.72-0.8-1.56-1.68-1.56h-0.08
			c-0.8,0-1.44,0.64-1.68,1.64l-0.08,0.32c-0.12,0.48-0.24,1.44-0.24,2.32c0,1.6,1.04,2.44,2.48,2.44h0.08
			c4.16,0,6.63-7.43,9.43-7.43c1.28,0,1.92,1.16,1.92,3.16c0,5.04-2.72,10.23-7.51,10.23H195.02z"/>
		<path class="st0" d="M227.55,103.53c-1.48,0.96-3.4,1.44-5.6,1.44c-3.28,0-5.35-1.44-5.35-3.68c0-1.16,0.28-1.68,1.92-3.52
			c0.72-0.8,1.8-2,2.24-5.52l0.56-4.48c0.24-1.76,0.36-2.8,0.36-3.6c0-1.12-0.36-2.28-0.88-2.8c-0.72-0.68-1.12-1.36-1.12-2.56
			c0-2.48,1.84-4.2,5.76-4.2c1.88,0,4.4,0.4,5.83,0.96c1.2-0.48,3.2-0.96,5.28-0.96c7.43,0,11.31,4.48,11.31,12.67
			c0,10.27-6,17.67-14.35,17.67C230.66,104.96,229.06,104.56,227.55,103.53z M237.46,87.38c0-5.04-1.04-7.71-3-7.71
			c-1.68,0-2.52,1.4-3.04,4.96l-1.24,8.75c-0.28,1.88-0.36,2.8-0.36,3.56c0,1.84,0.64,2.88,1.84,2.88
			C235.06,99.81,237.46,94.65,237.46,87.38z"/>
	</g>
	<path class="st0" d="M62.01,120.42c-2.66-1.32-5.3-2.62-8.23-4.08c1.54-0.85,2.66-1.48,3.81-2.12c-2.54-1.12-4.96-2.19-7.58-3.34
		c1.75-1.29,3.19-2.35,4.51-3.33c-2.55-1.21-4.92-2.33-7.57-3.58c1.14-0.97,1.91-1.63,2.78-2.38c-4.3-1.86-7.47-4.8-9.87-8.23
		c-0.03,0.06-0.05,0.12-0.08,0.17c-0.05-0.04-0.09-0.09-0.14-0.13c-0.93,4.08-2.76,8-6.05,11.34c1.09,0.36,2.05,0.68,3.47,1.15
		c-1.98,2.16-3.75,4.09-5.66,6.17c1.59,0.4,3.33,0.85,5.43,1.38c-2,2.06-3.84,3.96-5.77,5.95c1.3,0.16,2.59,0.32,4.33,0.53
		c-2.17,2.45-4.13,4.66-6.09,6.88c4.74,1.21,9.7,1.45,14.76,0.86c0.22,1.53,0.42,2.88,0.63,4.32c0.84-0.16,1.66-0.33,2.49-0.49
		c0.02,0,0.03-0.01,0.05-0.01c0.83-0.16,1.65-0.32,2.49-0.49c-0.35-1.41-0.68-2.74-1.05-4.24
		C53.57,125.43,58.07,123.33,62.01,120.42z"/>
	<path class="st0" d="M282.15,193.28c-2.1-2.1-4.18-4.18-6.49-6.5c1.73-0.32,3-0.55,4.29-0.79c-2.05-1.87-4-3.66-6.11-5.59
		c2.07-0.66,3.78-1.21,5.34-1.71c-2.03-1.96-3.91-3.78-6.02-5.82c1.39-0.56,2.33-0.93,3.4-1.36c-3.48-3.14-5.54-6.94-6.72-10.96
		c-0.04,0.05-0.09,0.09-0.13,0.14c-0.03-0.06-0.06-0.11-0.09-0.17c-2.19,3.57-5.18,6.7-9.36,8.81c0.91,0.69,1.73,1.3,2.92,2.2
		c-2.57,1.41-4.87,2.67-7.34,4.03c1.37,0.89,2.88,1.87,4.7,3.05c-2.55,1.31-4.9,2.52-7.37,3.79c1.18,0.57,2.35,1.13,3.93,1.89
		c-2.84,1.63-5.4,3.09-7.97,4.56c4.11,2.66,8.73,4.49,13.71,5.54c-0.28,1.52-0.53,2.86-0.79,4.29c0.85,0.11,1.68,0.22,2.52,0.34
		c0.02,0,0.03,0,0.05,0.01c0.84,0.11,1.67,0.22,2.52,0.34c0.12-1.45,0.24-2.81,0.37-4.35C272.55,195.32,277.49,194.77,282.15,193.28
		z"/>
	<path class="st1" d="M54.67,42.32c0.95,0.87,1.82,1.82,2.84,2.55c-0.87,1.17-2.4,2.04-1.67,4.44c0.51-0.15,1.6-0.8,2.18-1.31
		c0.51,0.22,0.87,0.58,1.09,1.09c-1.24,0.8-2.11,1.89-3.13,2.91c-0.07,1.17,0.15,1.97,0.15,3.13c0.8-0.15,2.04-1.02,2.99-1.46
		c0.29-1.38,0.8-2.62,0.95-4.15c0.58-0.07,0.87,0.07,1.38,0.15c0,0.87,0,1.82,0,2.69c1.46-0.15,2.91-1.53,2.99-3.64
		c1.24,0.36,2.48,0.66,3.79,0.95c-0.29,1.31-0.58,2.55-0.95,3.79c-1.97-0.87-3.5-0.29-4.73,0.8c0.73,0.51,1.75,0.87,2.55,1.38
		c-0.22,0.36-0.29,0.87-0.51,1.24c-1.46-0.15-2.77-1.17-4.01-1.09c-1.24,0.07-1.82,1.31-2.99,1.6c0.8,0.8,1.89,1.24,2.84,1.89
		c1.53-0.29,2.77-0.8,4.3-1.02c0.15,0.36,0.36,0.66,0.36,1.24c-0.8,0.36-1.6,0.8-2.4,1.17c0.66,0.58,1.53,0.87,2.18,1.53
		c0.87-0.22,1.67-0.51,2.55-0.66c0.29,1.31,0.73,2.4,0.95,3.79c-1.31,0.22-2.48,0.66-3.79,0.95c-0.22-0.8-0.44-1.67-0.66-2.4
		c-0.66-0.51-1.46-0.8-2.18-1.24c-0.29,0.66-0.07,1.97-0.15,2.84c-0.51-0.07-0.8,0.15-1.24,0.15c-0.44-1.31-0.73-2.77-1.02-4.15
		c-0.87-0.58-1.82-0.95-2.69-1.53c-0.22,0.95-0.58,2.33-0.44,3.13c0.29,1.46,2.48,2.18,3.06,3.28c-0.15,0.44-0.44,0.73-0.8,0.95
		c-0.87-0.44-1.6-1.02-2.4-1.53c-0.44,2.33,0.29,3.5,1.6,4.3c-0.58,1.24-1.97,1.75-2.69,2.84c-0.07-0.51-2.77-2.04-2.84-2.69
		c0-0.73,1.38-1.09,1.89-1.75c0-0.87,0-1.82,0-2.69c-0.87,0.36-1.53,0.95-2.4,1.31c-0.44-0.15-0.51-0.51-0.8-0.8
		c0.8-1.31,2.18-1.97,3.13-3.06c0-1.02,0-2.04,0-3.13c-0.87,0-1.89,1.09-2.99,1.31c-0.36,1.38-0.73,2.91-1.09,4.3
		c-0.58,0.07-0.8-0.22-1.38-0.15c0.22-0.73,0.15-1.75,0.15-2.69c-1.46,0.15-2.99,1.53-2.99,3.64c-1.24-0.36-2.4-0.73-3.79-0.95
		c0.22-1.38,0.58-2.62,0.95-3.79c2.04,0.8,3.35,0.29,4.73-0.8c-0.73-0.51-1.75-0.87-2.55-1.38c0.15-0.36,0.29-0.8,0.44-1.24
		c1.46,0.07,2.84,1.24,4.15,1.09c1.24-0.07,1.75-1.31,2.84-1.6c-0.95-0.51-1.6-1.6-2.69-1.75c-1.38-0.22-2.84,1.17-4.44,1.02
		c-0.07-0.36-0.15-0.73-0.36-0.95c0.58-0.73,1.67-0.87,2.4-1.46c-1.09-1.31-2.77-1.53-4.73-0.8c-0.22-1.31-0.73-2.33-0.95-3.64
		c1.24-0.36,2.55-0.73,3.79-1.09c0.07,2.11,1.31,3.13,2.91,3.64c-0.07-0.87,0.15-2.04-0.15-2.69c0.36-0.15,0.8-0.29,1.38-0.29
		c0.36,1.31,0.73,2.69,1.09,4.08c0.95,0.58,2.04,1.02,2.99,1.6c-0.22-1.67,0.44-2.04,0.15-3.13c-0.36-1.46-4.59-2.99-2.4-4.22
		c0.95,0.36,1.6,0.95,2.4,1.38c-0.22-1.17,0.36-1.46,0.15-2.26c-0.22-1.09-1.82-1.46-1.89-2.04C51.91,44.51,54.38,43.2,54.67,42.32z
		"/>
	<path class="st1" d="M216.76,242.5c0.95,0.87,1.82,1.82,2.84,2.55c-0.87,1.17-2.4,2.04-1.67,4.44c0.51-0.15,1.6-0.8,2.18-1.31
		c0.51,0.22,0.87,0.58,1.09,1.09c-1.24,0.8-2.11,1.89-3.13,2.91c-0.07,1.17,0.15,1.97,0.15,3.13c0.8-0.15,2.04-1.02,2.99-1.46
		c0.29-1.38,0.8-2.62,0.95-4.15c0.58-0.07,0.87,0.07,1.38,0.15c0,0.87,0,1.82,0,2.69c1.46-0.15,2.91-1.53,2.99-3.64
		c1.24,0.36,2.48,0.66,3.79,0.95c-0.29,1.31-0.58,2.55-0.95,3.79c-1.97-0.87-3.5-0.29-4.73,0.8c0.73,0.51,1.75,0.87,2.55,1.38
		c-0.22,0.36-0.29,0.87-0.51,1.24c-1.46-0.15-2.77-1.17-4.01-1.09c-1.24,0.07-1.82,1.31-2.99,1.6c0.8,0.8,1.89,1.24,2.84,1.89
		c1.53-0.29,2.77-0.8,4.3-1.02c0.15,0.36,0.36,0.66,0.36,1.24c-0.8,0.36-1.6,0.8-2.4,1.17c0.66,0.58,1.53,0.87,2.18,1.53
		c0.87-0.22,1.67-0.51,2.55-0.66c0.29,1.31,0.73,2.4,0.95,3.79c-1.31,0.22-2.48,0.66-3.79,0.95c-0.22-0.8-0.44-1.67-0.66-2.4
		c-0.66-0.51-1.46-0.8-2.18-1.24c-0.29,0.66-0.07,1.97-0.15,2.84c-0.51-0.07-0.8,0.15-1.24,0.15c-0.44-1.31-0.73-2.77-1.02-4.15
		c-0.87-0.58-1.82-0.95-2.69-1.53c-0.22,0.95-0.58,2.33-0.44,3.13c0.29,1.46,2.48,2.18,3.06,3.28c-0.15,0.44-0.44,0.73-0.8,0.95
		c-0.87-0.44-1.6-1.02-2.4-1.53c-0.44,2.33,0.29,3.5,1.6,4.3c-0.58,1.24-1.97,1.75-2.69,2.84c-0.07-0.51-2.77-2.04-2.84-2.69
		c0-0.73,1.38-1.09,1.89-1.75c0-0.87,0-1.82,0-2.69c-0.87,0.36-1.53,0.95-2.4,1.31c-0.44-0.15-0.51-0.51-0.8-0.8
		c0.8-1.31,2.18-1.97,3.13-3.06c0-1.02,0-2.04,0-3.13c-0.87,0-1.89,1.09-2.99,1.31c-0.36,1.38-0.73,2.91-1.09,4.3
		c-0.58,0.07-0.8-0.22-1.38-0.15c0.22-0.73,0.15-1.75,0.15-2.69c-1.46,0.15-2.99,1.53-2.99,3.64c-1.24-0.36-2.4-0.73-3.79-0.95
		c0.22-1.38,0.58-2.62,0.95-3.79c2.04,0.8,3.35,0.29,4.73-0.8c-0.73-0.51-1.75-0.87-2.55-1.38c0.15-0.36,0.29-0.8,0.44-1.24
		c1.46,0.07,2.84,1.24,4.15,1.09c1.24-0.07,1.75-1.31,2.84-1.6c-0.95-0.51-1.6-1.6-2.69-1.75c-1.38-0.22-2.84,1.17-4.44,1.02
		c-0.07-0.36-0.15-0.73-0.36-0.95c0.58-0.73,1.67-0.87,2.4-1.46c-1.09-1.31-2.77-1.53-4.73-0.8c-0.22-1.31-0.73-2.33-0.95-3.64
		c1.24-0.36,2.55-0.73,3.79-1.09c0.07,2.11,1.31,3.13,2.91,3.64c-0.07-0.87,0.15-2.04-0.15-2.69c0.36-0.15,0.8-0.29,1.38-0.29
		c0.36,1.31,0.73,2.69,1.09,4.08c0.95,0.58,2.04,1.02,2.99,1.6c-0.22-1.67,0.44-2.04,0.15-3.13c-0.36-1.46-4.59-2.99-2.4-4.22
		c0.95,0.36,1.6,0.95,2.4,1.38c-0.22-1.17,0.36-1.46,0.15-2.26c-0.22-1.09-1.82-1.46-1.89-2.04
		C213.99,244.68,216.47,243.37,216.76,242.5z"/>
	<path class="st0" d="M268.45,139.08c-2.33-6.19-0.8-4.73-7.06-7.06c6.19-2.33,4.73-0.8,7.06-7.06c2.33,6.19,0.8,4.73,7.06,7.06
		C269.32,134.35,270.78,132.89,268.45,139.08z"/>
	<path class="st0" d="M255.76,66.09c-2.33-6.19-0.8-4.73-7.06-7.06c6.19-2.33,4.73-0.8,7.06-7.06c2.33,6.19,0.8,4.73,7.06,7.06
		C256.64,61.36,258.09,59.9,255.76,66.09z"/>
	<path class="st0" d="M25.59,184.4c-1.6-4.37-0.58-3.35-4.95-4.95c4.37-1.6,3.35-0.58,4.95-4.95c1.6,4.37,0.58,3.35,4.95,4.95
		C26.17,181.05,27.19,180.03,25.59,184.4z"/>
	<path class="st0" d="M55.61,96.09c-2.33-6.19-0.8-4.73-7.06-7.06c6.19-2.33,4.73-0.8,7.06-7.06c2.33,6.19,0.8,4.73,7.06,7.06
		C56.48,91.36,57.94,89.9,55.61,96.09z"/>
	<path class="st0" d="M88.23,253.73c-2.33-6.19-0.8-4.73-7.06-7.06c6.19-2.33,4.73-0.8,7.06-7.06c2.33,6.19,0.8,4.73,7.06,7.06
		C89.1,248.99,90.56,247.54,88.23,253.73z"/>
	<path class="st0" d="M78.84,136.47c-1.6-4.37-0.58-3.35-4.95-4.95c4.37-1.6,3.35-0.58,4.95-4.95c1.6,4.37,0.58,3.35,4.95,4.95
		C79.42,133.13,80.44,132.11,78.84,136.47z"/>
	<path class="st0" d="M177.35,262.13c-2.33-6.19-0.8-4.73-7.06-7.06c6.19-2.33,4.73-0.8,7.06-7.06c2.33,6.19,0.8,4.73,7.06,7.06
		C178.22,257.39,179.68,255.94,177.35,262.13z"/>
	<path class="st0" d="M254.09,259.16c-2.33-6.19-0.8-4.73-7.06-7.06c6.19-2.33,4.73-0.8,7.06-7.06c2.33,6.19,0.8,4.73,7.06,7.06
		C254.96,254.43,256.42,252.97,254.09,259.16z"/>
	<path class="st0" d="M272.06,232.34c-1.6-4.37-0.58-3.35-4.95-4.95c4.37-1.6,3.35-0.58,4.95-4.95c1.6,4.37,0.58,3.35,4.95,4.95
		C272.64,228.99,273.66,227.97,272.06,232.34z"/>
	<path class="st0" d="M149.01,262.98c-1.6-4.37-0.58-3.35-4.95-4.95c4.37-1.6,3.35-0.58,4.95-4.95c1.6,4.37,0.58,3.35,4.95,4.95
		C149.59,259.63,150.61,258.61,149.01,262.98z"/>
</g>
</svg>
