<?xml version="1.0" encoding="utf-8"?>
<!-- Generator: Adobe Illustrator 28.0.0, SVG Export Plug-In . SVG Version: 6.00 Build 0)  -->
<svg version="1.1" id="Layer_1" xmlns="http://www.w3.org/2000/svg" xmlns:xlink="http://www.w3.org/1999/xlink" x="0px" y="0px"
	 viewBox="0 0 300 300" style="enable-background:new 0 0 300 300;" xml:space="preserve">
<style type="text/css">
	.st0{fill:#010101;}
	.st1{fill:#D3D3D3;}
	.st2{fill:#FBBB8F;}
	.st3{fill:#F2718E;}
	.st4{fill:#FFFFFF;}
	.st5{fill:#F9CDD2;}
	.st6{fill:#E55E5D;}
</style>
<g>
	<path class="st0" d="M66.44,108.56c2.4,6.47,0.85,4.92,7.32,7.32c-6.47,2.4-4.92,0.85-7.32,7.32c-2.4-6.47-0.85-4.92-7.32-7.32
		C65.59,113.49,64.04,115.03,66.44,108.56z"/>
	<path class="st0" d="M83.3,216.6c1.3,3.5,0.46,2.66,3.96,3.96c-3.5,1.3-2.66,0.46-3.96,3.96c-1.3-3.5-0.46-2.66-3.96-3.96
		C82.84,219.26,82,220.1,83.3,216.6z"/>
	<path class="st0" d="M173.94,52.14c1.3,3.5,0.46,2.66,3.96,3.96c-3.5,1.3-2.66,0.46-3.96,3.96c-1.3-3.5-0.46-2.66-3.96-3.96
		C173.48,54.81,172.64,55.64,173.94,52.14z"/>
	<path class="st0" d="M233.9,192.98c1.3,3.5,0.46,2.66,3.96,3.96c-3.5,1.3-2.66,0.46-3.96,3.96c-1.3-3.5-0.46-2.66-3.96-3.96
		C233.44,195.65,232.6,196.48,233.9,192.98z"/>
	<path class="st0" d="M227.39,202.88c1.11,3,0.39,2.28,3.39,3.39c-3,1.11-2.28,0.39-3.39,3.39c-1.11-3-0.39-2.28-3.39-3.39
		C227,205.17,226.28,205.88,227.39,202.88z"/>
	<path class="st0" d="M65.62,88.48c1.3,3.5,0.46,2.66,3.96,3.96c-3.5,1.3-2.66,0.46-3.96,3.96c-1.3-3.5-0.46-2.66-3.96-3.96
		C65.16,91.15,64.33,91.99,65.62,88.48z"/>
	<path class="st0" d="M58.55,100.93c1.11,3,0.39,2.28,3.39,3.39c-3,1.11-2.28,0.39-3.39,3.39c-1.11-3-0.39-2.28-3.39-3.39
		C58.16,103.21,57.44,103.93,58.55,100.93z"/>
	<path class="st0" d="M85.84,242.9c1.3,3.5,0.46,2.66,3.96,3.96c-3.5,1.3-2.66,0.46-3.96,3.96c-1.3-3.5-0.46-2.66-3.96-3.96
		C85.38,245.56,84.55,246.4,85.84,242.9z"/>
	<path class="st0" d="M77.57,229.61c1.88,5.06,0.66,3.85,5.73,5.73c-5.06,1.88-3.85,0.66-5.73,5.73c-1.88-5.06-0.66-3.85-5.73-5.73
		C76.91,233.46,75.7,234.67,77.57,229.61z"/>
	<path class="st0" d="M186.67,72.93c1.3,3.5,0.46,2.66,3.96,3.96c-3.5,1.3-2.66,0.46-3.96,3.96c-1.3-3.5-0.46-2.66-3.96-3.96
		C186.21,75.59,185.37,76.43,186.67,72.93z"/>
	<path class="st0" d="M188.08,55.54c1.67,4.5,0.59,3.42,5.09,5.09c-4.5,1.67-3.42,0.59-5.09,5.09c-1.67-4.5-0.59-3.42-5.09-5.09
		C187.49,58.96,186.41,60.04,188.08,55.54z"/>
	<g>
		<path class="st0" d="M225.66,179.13c-2.23,6.03-0.79,4.59-6.82,6.82c6.03,2.23,4.59,0.79,6.82,6.82c2.23-6.03,0.79-4.59,6.82-6.82
			C226.45,183.72,227.89,185.16,225.66,179.13z"/>
		<path class="st0" d="M220.65,205.62c-1.87-5.73-3.74-11.47-5.61-17.2c-0.1-0.31-0.21-0.56,0.16-0.83c1.52-1.1,2.34-2.59,2.66-4.46
			c1.42-8.27,2.91-16.53,4.39-24.8c0.23-1.29,0.69-2.58,0.69-3.87c0.01-1.77-0.6-3.44-2.05-4.59c-0.73-0.58-1.6-0.98-2.32-1.4
			c0.58-3.33,1.25-6.67,1.71-10.04c0.48-3.51,0.32-7.01-0.61-10.48c-1.24-4.65-3.92-8.22-8.13-10.4c-5.42-2.81-10.88-2.7-16.07,0.79
			c-0.89,0.6-1.75,1.25-2.64,1.89c-0.06-0.16-0.12-0.32-0.17-0.49c-0.91-2.79-1.8-5.58-2.73-8.36c-0.55-1.66-1.05-3.34-1.75-4.94
			c-1.21-2.74-4.11-4.29-7.22-3.86c-2.11,0.29-4.24,0.48-6.36,0.72c-0.27,0.03-0.53,0.04-0.95,0.06c0.38-0.43,0.64-0.73,0.91-1.01
			c2.89-2.98,4.9-6.48,6.14-10.45c0.57-1.83,0.68-3.67,0.28-5.53c-0.14-0.66-0.35-1.33-0.65-1.94c-0.36-0.73-1.17-0.72-1.58-0.01
			c-0.28,0.48-0.46,1-0.71,1.5c-0.33,0.64-0.61,1.33-1.04,1.9c-1.48,1.95-3.33,3.5-5.51,4.64c-0.92,0.48-1.91,0.7-2.93,0.49
			c-3.26-0.66-3.82-2.01-3.67-4.53c0.11-1.87,0.63-3.64,1.42-5.32c0.22-0.46,0.42-0.94,0.68-1.38c1.82-3.09,2.51-6.44,2.63-10
			c0.19-5.67-1.28-10.89-4.21-15.66c-2.21-3.61-5.54-6.09-9.27-8.01c-0.48-0.25-1.04-0.4-1.58-0.47c-1.2-0.15-1.61,0.46-1.17,1.57
			c1.68,4.25,3.38,8.49,5.02,12.76c1.2,3.12,1.66,6.35,0.8,9.64c-0.54,2.06-1.15,4.1-1.83,6.12c-0.67,2.02-2.04,3.55-3.78,4.74
			c-1.68,1.14-3.19,0.96-4.6-0.52c-1.23-1.31-1.95-2.91-2.14-4.65c-0.25-2.27-0.35-4.56-0.38-6.84c-0.04-3.22-0.13-6.43-0.77-9.61
			c-0.49-2.41-1.16-4.74-2.6-6.78c-0.9-1.28-2.01-2.34-3.45-3.01c-0.39-0.18-0.85-0.23-1.09,0.14c-0.16,0.25-0.21,0.71-0.09,0.98
			c1.65,3.73,1.94,7.65,1.57,11.65c-0.06,0.61-0.32,1.29-0.69,1.77c-1.2,1.51-4.07,1.77-5.49,0.47c-0.81-0.75-1.62-1.62-2.09-2.6
			c-0.87-1.83-1.62-3.74-2.19-5.69c-1.24-4.23-1.59-8.57-1.28-12.96c0.27-3.77,0.89-7.48,2.13-11.08c0.38-1.09,0.54-2.25,0.77-3.39
			c0.09-0.45,0.02-0.89-0.42-1.16c-0.43-0.26-0.79-0.05-1.17,0.17c-3.42,2-6.09,4.79-8.11,8.13c-2.26,3.74-3.82,7.79-4.64,12.1
			c-0.59,3.11-1.03,6.25-0.66,9.43c0.27,2.33,0.67,4.64,0.96,6.96c0.36,2.96,0.21,5.9-0.65,8.77c-0.45,1.51-1.6,2.02-3.04,1.38
			c-1.25-0.55-2.38-1.3-3.2-2.43c-1.93-2.67-3.25-5.63-4.03-8.83c-0.37-1.53-0.72-3.08-1.13-4.6c-0.14-0.5-0.46-0.94-1.06-0.99
			c-0.56-0.04-0.86,0.35-1.11,0.76c-1.11,1.79-1.97,3.7-2.51,5.74c-1.07,4.09-0.47,8.05,1.04,11.92c0.88,2.25,2.13,4.29,3.42,6.32
			c1.52,2.4,3.03,4.8,4.47,7.24c0.9,1.54,1.33,3.2,1.13,5.04c-0.17,1.58-0.95,2.59-2.46,2.89c-1.43,0.29-2.9,0.53-4.35,0.51
			c-3.06-0.05-5.9-0.85-8.29-2.91c-2.66-2.31-4.92-4.93-6.47-8.12c-0.22-0.45-0.5-0.85-1.08-0.76c-0.61,0.09-0.66,0.59-0.73,1.08
			c-0.26,1.83-0.18,3.65,0.03,5.47c0.77,6.72,3.76,12.35,8.47,17.13c0.09,0.09,0.17,0.2,0.31,0.37c-2.92,0.32-5.74,0.65-8.56,0.92
			c-1.51,0.14-2.99,0.32-4.21,1.36c-0.71,0.61-1.49,1.14-2.14,1.79c-4.08,4.06-6.58,8.96-7.67,14.58c-0.41,2.12-0.57,4.26-0.06,6.41
			c1.3,5.5,2.58,11.01,3.88,16.51c0.08,0.35,0.06,0.55-0.34,0.68c-1.52,0.5-2.88,1.31-4.1,2.32c-1.95,1.62-3.59,3.48-4.25,6
			c-0.55,2.09-0.19,4.04,2.15,5.34c0.3,0.17,0.38,0.38,0.42,0.72c0.12,1.3,0.19,2.62,0.47,3.9c0.5,2.24,1.97,3.61,4.26,3.86
			c1.21,0.13,2.47,0.06,3.69-0.1c0.96-0.13,1.88-0.54,2.83-0.83c0.02,0.08,0.05,0.17,0.07,0.26c2.25,9.56,4.49,19.12,6.74,28.68
			c0.98,4.15,1.96,8.3,2.92,12.45c0.06,0.25,0.08,0.6-0.05,0.78c-1.31,1.85-2.72,3.62-3.96,5.51c-1.35,2.05-2.56,4.19-2.99,6.68
			c-0.34,1.97-0.01,3.7,1.48,5.13c0.13,0.13,0.19,0.38,0.21,0.59c0.13,1.58,0.17,3.23,1.07,4.56c1.46,2.16,3.06,4.23,5.31,5.67
			c1.16,0.74,2.36,1.34,3.79,1.17c0.69-0.08,1.37-0.24,2.1-0.38c0.03,0.11,0.09,0.28,0.13,0.46c1.12,4.78,2.24,9.56,3.37,14.34
			c0.36,1.53,0.75,3.06,1.18,4.58c0.37,1.32,1.42,1.98,2.74,1.77c1.66-0.26,3.31-0.53,4.96-0.79c6.62-1.05,13.24-2.1,19.85-3.15
			c6.6-1.05,13.2-2.1,19.8-3.15c6.11-0.97,12.22-1.95,18.33-2.92c6.34-1.01,12.67-2.01,19.01-3.02c6.13-0.97,12.25-1.96,18.39-2.92
			c2.52-0.39,5.04-0.71,7.56-1.07c0.22-0.03,0.44-0.11,0.65-0.2c1.31-0.59,2.03-2.05,1.88-3.72c-0.06-0.6-0.34-1.04-0.88-1.3
			c-0.2-0.1-0.41-0.19-0.64-0.29c0.02-0.1,0.02-0.14,0.03-0.18c1.65-4.09,3.31-8.19,4.95-12.28c0.12-0.31,0.3-0.43,0.62-0.47
			c1.17-0.13,2.29-0.49,3.15-1.3c0.9-0.84,1.56-1.9,1.83-3.11c0.5-2.23,0.46-4.48-0.24-6.66
			C224.04,215.92,222.33,210.77,220.65,205.62z M78.38,164.98c-0.92,0.94-0.43,0.94-2.22,0C76.96,164.98,77.63,164.98,78.38,164.98z
			 M76.24,171.85c-0.84-0.36-0.75-1.18-0.96-1.98c0.56,0,1.06-0.01,1.56,0.01c0.1,0,0.23,0.07,0.28,0.15
			c0.52,0.89,1.34,1.42,2.23,1.91C78.28,172.25,77.25,172.28,76.24,171.85z M91.01,237.44c0.65,0.15,1.15,0.29,1.42,1.1
			c0.34,0.99,1.02,1.87,1.5,2.7C92.21,240.66,90.93,239.09,91.01,237.44z M92.24,227.98c0.57-1,1.09-1.94,1.62-2.87
			c0.05,0.01,0.1,0.02,0.15,0.03c0.24,1.03,0.49,2.07,0.75,3.19C93.89,228.21,93.15,228.1,92.24,227.98z M195.67,127.21
			c2.02-2.52,4.61-3.99,7.85-3.84c4.43,0.19,7.76,2.48,9.39,6.55c1.1,2.76,1.37,5.63,0.88,8.53c-0.44,2.62-1.06,5.22-1.6,7.82
			c-0.01,0.07-0.06,0.14-0.12,0.26c-3.75-0.92-7.47-1.82-11.17-2.77c-0.28-0.07-0.56-0.5-0.67-0.82c-0.69-1.99-1.34-4-1.99-6.01
			c-0.92-2.84-1.83-5.69-2.77-8.52C195.32,127.94,195.36,127.6,195.67,127.21z"/>
		<path class="st0" d="M174.65,79.37c0.66,0.18,0.94-0.22,1.19-0.71c0.78-1.55,1.69-3.02,2.8-4.36c1.06-1.28,1.66-2.77,1.94-4.39
			c0.32-1.86,0.61-3.72,0.91-5.58c0.05-0.34,0.08-0.68,0.09-1.02c0.01-0.42-0.11-0.87-0.55-0.95c-0.32-0.06-0.81,0.01-1.02,0.22
			c-0.95,0.95-1.95,1.89-2.71,2.99c-2.44,3.51-3.16,7.57-3.49,11.73c0,0.3-0.01,0.61,0,0.91C173.85,79,174.03,79.2,174.65,79.37z"/>
		<path class="st0" d="M145.27,44.15c0.32,0.5,0.97,0.52,1.25-0.01c0.13-0.24,0.18-0.54,0.19-0.82c0.03-0.74,0.01-1.48,0.01-2.22
			c0.15-3.25-0.21-4.56-2-7.3c-0.85-1.31-1.48-2.7-1.81-4.22c-0.13-0.58-0.21-1.16-0.31-1.74c-0.08-0.44-0.23-0.83-0.74-0.87
			c-0.51-0.04-0.73,0.32-0.88,0.74c-0.06,0.18-0.12,0.36-0.16,0.55c-1.4,5.74,0.25,10.69,3.89,15.13
			C144.9,43.62,145.1,43.88,145.27,44.15z"/>
		<path class="st0" d="M91.13,78.84c0.27,0.33,0.56,0.68,1.04,0.55c0.47-0.13,0.76-0.47,0.87-0.97c0.27-1.3,0.53-2.61,0.84-3.9
			c0.47-1.96,1.14-3.87,1.27-5.9c0.09-1.29,0.38-2.57,0.35-3.85c-0.04-1.66-1.27-2.25-2.57-1.23c-0.85,0.67-1.6,1.53-2.2,2.43
			c-1.16,1.74-2.13,3.58-2,5.61C88.79,74.72,89.52,76.9,91.13,78.84z"/>
		<path class="st0" d="M73.2,103.87c1.93,2.32,4.55,3.53,7.24,4.66c0.36,0.15,0.74,0.14,0.95-0.25c0.21-0.38,0.13-0.81-0.22-1.02
			c-0.72-0.42-1.02-1.11-1.31-1.81c-1.09-2.6-2.91-4.42-5.47-5.62c-1.13-0.53-2.11-1.4-3.16-2.1c-0.23-0.15-0.48-0.28-0.61-0.35
			c-0.76,0.02-1,0.57-0.74,1.29C70.58,100.65,71.86,102.27,73.2,103.87z"/>
		<path class="st0" d="M185.87,98.68c0.42-0.26,0.86-0.48,1.28-0.74c0.96-0.61,2-1.13,2.86-1.86c2.33-2,2.5-4.98,3.38-7.8
			c-0.18-0.24-0.33-0.63-0.59-0.73c-0.27-0.1-0.75-0.02-0.96,0.18c-1.07,0.95-2.15,1.9-3.09,2.96c-1.64,1.85-3.07,3.84-3.67,6.3
			c-0.06,0.26-0.23,0.49-0.26,0.75c-0.03,0.31-0.06,0.7,0.09,0.93C185.13,99,185.53,98.9,185.87,98.68z"/>
	</g>
	<path class="st1" d="M185.87,139.9c-0.26,1.1-0.33,2.25-0.49,3.44c1.52,0.36,2.95,0.69,4.41,1.04c0.06-0.19,0.12-0.33,0.15-0.48
		c0.13-0.86,0.24-1.72,0.39-2.57c0.24-1.35,0.53-2.69,0.77-4.04c0.44-2.55,0.9-5.09,1.8-7.54c0.53-1.44,1.18-2.8,2.22-3.96
		c4.14-4.64,10.54-5.05,15.58-1.17c2.46,1.89,3.65,4.58,4.3,7.54c0.47,2.16,0.44,4.35,0.14,6.54c-0.44,3.13-1.07,6.22-2.24,9.18
		c-0.22,0.55-0.31,1.16-0.45,1.73c1.4,0.4,2.73,0.77,4.12,1.17c0.04-0.14,0.11-0.36,0.16-0.58c0.56-2.6,1.15-5.2,1.65-7.82
		c0.71-3.72,1.18-7.46,0.61-11.24c-0.58-3.86-1.89-7.37-4.87-10.13c-3.54-3.27-7.69-4.52-12.37-3.83c-3.84,0.57-6.86,2.75-9.35,5.61
		c-2.02,2.33-3.37,5.08-4.22,8.04C187.29,133.82,186.58,136.86,185.87,139.9z"/>
	<path class="st2" d="M91.82,77.25c-1.06-0.8-1.89-4-1.53-6.44c0.37-2.49,1.71-4.49,3.63-6.12C94.03,69.03,92.56,73.06,91.82,77.25z
		 M78.43,106.03c-1.02-2.59-3.19-4.59-5.63-5.19C73.51,102.49,77.05,105.76,78.43,106.03z M191.3,90.14
		c-1.94,1.9-3.59,3.82-4.66,6.31C189.66,95.1,190.47,93.66,191.3,90.14z M145.26,41.73c0.14-1.73,0.18-3.45-0.58-5.01
		c-0.84-1.71-1.87-3.33-2.8-4.94C141.35,34,143.54,40.59,145.26,41.73z M179.03,69.96c0.3-1.66,0.54-3.34,0.81-5.01
		c0-0.02-0.04-0.05-0.11-0.14c-2.93,3.3-3.89,7.32-4.53,11.64c0.8-1.07,1.48-2.03,2.2-2.95C178.22,72.44,178.8,71.27,179.03,69.96z
		 M98.71,111.59c0.75-0.13,1.51-0.18,2.27-0.26c6.1-0.66,12.19-1.33,18.29-1.99c0.79-0.09,1.57-0.18,2.41-0.28
		c-0.12-0.23-0.2-0.38-0.29-0.52c-1.32-2.17-2.29-4.48-2.75-6.98c-0.31-1.68-0.49-3.39-0.72-5.09c-0.11-0.81-0.26-1.62-0.3-2.44
		c-0.01-0.32,0.18-0.75,0.42-0.96c0.33-0.29,0.72-0.06,1.01,0.23c0.11,0.11,0.21,0.22,0.32,0.33c1.33,1.28,2.66,2.57,4.01,3.82
		c0.6,0.56,1.33,0.73,2.13,0.5c0.89-0.26,1.63-0.76,2.09-1.58c0.7-1.22,1.28-2.51,1.29-3.92c0.03-3.5,0.02-7.01-0.08-10.51
		c-0.07-2.19-0.35-4.37-0.52-6.55c-0.05-0.61,0.21-1,0.64-1.05c0.55-0.06,0.8,0.3,0.91,0.76c0.2,0.85,0.4,1.71,0.54,2.57
		c0.63,4.07,1.77,8,3.49,11.74c0.94,2.04,1.98,4.08,3.81,5.56c0.74,0.59,1.49,0.84,2.42,0.75c2.3-0.22,4.3-1.18,6.31-2.23
		c1.54-0.8,2.76-1.88,3.58-3.41c0.21-0.39,0.5-0.69,0.99-0.61c0.47,0.08,0.67,0.46,0.72,0.86c0.13,0.96,0.38,1.94,0.28,2.89
		c-0.41,4-1.59,7.74-4.1,10.97c-0.47,0.6-0.87,1.24-1.03,2.12c0.31-0.02,0.51-0.02,0.72-0.05c4.07-0.44,8.14-0.89,12.21-1.34
		c3.6-0.39,7.19-0.79,10.79-1.17c0.46-0.05,0.82-0.2,1.14-0.55c0.73-0.8,1.49-1.58,2.23-2.37c2.6-2.81,4.37-6.08,5.44-9.74
		c0.43-1.47,0.46-2.94,0.09-4.56c-0.3,0.57-0.5,1.06-0.79,1.49c-1.8,2.69-4.17,4.77-7.15,6.03c-2.32,0.99-4.53,0.4-6.52-1.03
		c-0.73-0.52-1.17-1.28-1.4-2.16c-0.35-1.36-0.24-2.72-0.02-4.08c0.38-2.33,1.39-4.42,2.46-6.49c0.87-1.68,1.62-3.4,1.82-5.32
		c0.24-2.33,0.41-4.67,0.14-7.01c-0.48-4.22-1.85-8.15-4.21-11.66c-2.04-3.03-4.94-5.14-8.13-6.86c-0.14-0.08-0.3-0.11-0.57-0.2
		c0.16,0.41,0.29,0.7,0.4,0.99c1.55,3.99,3.15,7.97,4.62,11.99c1.05,2.89,1.32,5.87,0.74,8.95c-0.44,2.3-1.14,4.5-1.91,6.69
		c-0.85,2.43-2.37,4.32-4.47,5.78c-2.2,1.53-4.45,1.33-6.36-0.56c-1.6-1.58-2.49-3.55-2.72-5.73c-0.28-2.57-0.34-5.17-0.38-7.75
		c-0.04-2.94-0.2-5.86-0.79-8.75c-0.41-1.99-0.96-3.93-2.08-5.65c-0.38-0.58-0.86-1.1-1.3-1.65c-0.05,0.03-0.09,0.07-0.14,0.1
		c0.02,0.09,0.05,0.18,0.07,0.27c0.82,2.91,1.06,5.88,0.93,8.89c-0.06,1.32-0.22,2.63-1.14,3.7c-1.84,2.13-5.51,2.44-7.67,0.64
		c-1.25-1.04-2.19-2.33-2.85-3.81c-2.08-4.63-3.17-9.5-3.27-14.56c-0.11-5.33,0.54-10.57,2.32-15.63c0.21-0.6,0.33-1.22,0.49-1.83
		c-0.25,0.02-0.38,0.09-0.5,0.17c-2.62,1.69-4.6,4.02-6.2,6.62c-2.3,3.74-3.83,7.83-4.6,12.17c-0.56,3.12-0.93,6.26-0.46,9.43
		c0.29,1.96,0.6,3.92,0.84,5.88c0.4,3.27,0.28,6.51-0.73,9.67c-0.72,2.24-2.75,3.16-4.92,2.23c-1.63-0.7-3.07-1.71-4.09-3.2
		c-2.07-3.02-3.54-6.3-4.26-9.9c-0.2-0.99-0.44-1.97-0.66-2.96c-0.05,0-0.11,0-0.16,0c-0.78,1.54-1.53,3.09-1.95,4.78
		c-0.94,3.82-0.35,7.48,1.08,11.07c0.95,2.39,2.36,4.52,3.72,6.68c1.38,2.19,2.76,4.39,4.06,6.62c1.06,1.82,1.49,3.8,1.25,5.93
		c-0.25,2.23-1.47,3.52-3.55,4.1c-2.16,0.61-4.36,0.7-6.57,0.41c-2.24-0.29-4.39-0.9-6.22-2.25c-2.19-1.61-4.14-3.48-5.72-5.71
		c-0.45-0.63-0.88-1.27-1.32-1.91c-0.13,0.26-0.14,0.5-0.13,0.74c0.18,4.43,1.25,8.61,3.54,12.45c1.52,2.55,3.2,4.96,5.51,6.87
		C97.89,111.5,98.22,111.68,98.71,111.59z"/>
	<path class="st3" d="M150.47,92.3c-0.36,0.33-0.69,0.72-1.09,0.98c-1.3,0.82-2.62,1.62-3.95,2.38c-1.44,0.82-3.03,1.25-4.66,1.47
		c-1.08,0.15-2.19,0.26-3.16-0.39c-1.16-0.78-2.2-1.71-2.96-2.9c-1.68-2.63-3.07-5.39-3.89-8.42c-0.04-0.16-0.11-0.32-0.16-0.48
		c-0.12,1.59-0.11,3.15-0.12,4.71c-0.01,0.99,0.03,1.99-0.07,2.97c-0.18,1.91-0.77,3.71-2.02,5.2c-1.42,1.7-4.09,2.6-6.2,0.59
		c-0.74-0.71-1.51-1.4-2.26-2.09c-0.14-0.13-0.29-0.26-0.54-0.49c0.06,0.66,0.12,1.15,0.16,1.64c0.31,3.94,1.36,7.64,3.54,10.97
		c0.22,0.33,0.41,0.45,0.82,0.41c4.39-0.49,8.78-0.96,13.18-1.44c2.61-0.28,5.23-0.57,7.84-0.88c0.17-0.02,0.43-0.2,0.45-0.34
		c0.13-1.08,0.65-1.98,1.28-2.83c0.31-0.41,0.66-0.79,0.93-1.23c1.53-2.53,2.39-5.3,2.89-8.19
		C150.55,93.39,150.47,92.82,150.47,92.3z"/>
	<path class="st4" d="M201.38,235.15c-7.36,1.12-14.71,2.24-22.07,3.36c-6.87,1.05-13.73,2.11-20.6,3.16
		c-6.6,1.01-13.21,2.01-19.81,3.02c-7.36,1.12-14.71,2.29-22.07,3.35c-1.29,0.19-2.26,0.67-3.02,1.67
		c-0.02,0.03-0.05,0.06-0.07,0.09c-2.25,2.72-3.59,5.86-4.24,9.3c-0.22,1.18-0.27,2.4-0.41,3.69c0.29-0.03,0.36-0.04,0.44-0.05
		c3.12-0.52,6.23-1.03,9.35-1.55c10.81-1.81,21.62-3.63,32.44-5.44c9.22-1.54,18.43-3.08,27.65-4.62
		c11.24-1.88,22.49-3.78,33.73-5.65c0.77-0.13,1.19-0.34,1.49-1.15c1.33-3.52,2.79-7,4.19-10.49c0.17-0.42,0.33-0.84,0.52-1.33
		c-0.28,0.03-0.49,0.04-0.69,0.07C212.59,233.43,206.98,234.29,201.38,235.15z M212.52,243.58c-0.71,0.14-1.42,0.25-2.14,0.36
		c-10.2,1.63-20.41,3.27-30.61,4.9c-8.93,1.43-17.85,2.85-26.78,4.28c-9.15,1.47-18.3,2.94-27.45,4.41
		c-4.55,0.73-9.1,1.46-13.64,2.18c-0.11,0.02-0.23,0.02-0.34,0.04c-0.04,0.04-0.08,0.07-0.12,0.11c-0.2-0.22-0.52-0.42-0.59-0.68
		c-0.12-0.46,0.22-0.7,0.64-0.77c1.28-0.22,2.55-0.42,3.83-0.62c6.54-1.05,13.08-2.09,19.62-3.14c6.78-1.09,13.57-2.18,20.35-3.26
		c7.01-1.12,14.02-2.24,21.03-3.36c6.6-1.06,13.19-2.11,19.79-3.17c5.3-0.85,10.6-1.7,15.9-2.54c0.11-0.02,0.23-0.05,0.34-0.05
		c0.38,0,0.69,0.13,0.76,0.54C213.17,243.25,212.91,243.5,212.52,243.58z M214.19,239.99c-2.11,0.33-4.21,0.67-6.32,1
		c-6.49,1.01-12.98,2.02-19.46,3.04c-6,0.94-12,1.87-18,2.81c-5.96,0.93-11.92,1.86-17.88,2.79c-5.98,0.93-11.96,1.87-17.94,2.8
		c-6.49,1.01-12.98,2.02-19.46,3.03c-0.96,0.15-1.92,0.3-2.88,0.44c-0.45,0.07-0.88,0.03-0.97-0.52c-0.09-0.54,0.29-0.73,0.75-0.81
		c3.84-0.6,7.67-1.2,11.51-1.8c6.26-0.98,12.53-1.95,18.79-2.93c6.71-1.05,13.43-2.09,20.14-3.14c6.71-1.05,13.43-2.1,20.14-3.14
		c6.73-1.05,13.47-2.1,20.2-3.15c3.54-0.55,7.07-1.11,10.61-1.66c0.21-0.03,0.41-0.06,0.58-0.08c0.47-0.02,0.83,0.09,0.88,0.57
		C214.92,239.71,214.62,239.92,214.19,239.99z M214.96,236.74c-2.86,0.43-5.72,0.85-8.58,1.28c-5.99,0.9-11.97,1.8-17.96,2.69
		c-6.23,0.93-12.46,1.86-18.69,2.79c-5.97,0.89-11.93,1.79-17.9,2.68c-5.74,0.86-11.48,1.72-17.22,2.58
		c-5.72,0.86-11.45,1.72-17.17,2.57c-0.73,0.11-1.47,0.22-2.39,0.35c-0.14-0.15-0.46-0.34-0.53-0.6c-0.12-0.45,0.2-0.7,0.63-0.77
		c1.69-0.26,3.39-0.52,5.08-0.77c6.25-0.94,12.5-1.87,18.75-2.81c6.21-0.93,12.43-1.86,18.64-2.79c6.27-0.94,12.54-1.88,18.81-2.82
		c6.23-0.93,12.46-1.86,18.7-2.79c5.97-0.89,11.94-1.79,17.9-2.68c0.58-0.09,1.17-0.18,1.75-0.26c0.45-0.06,0.86,0,0.97,0.54
		C215.82,236.35,215.52,236.66,214.96,236.74z"/>
	<path class="st5" d="M144.16,216.66c3.9-5.15,8.79-8.83,15.27-10.38c-0.46,1.22,0.05,2.07,0.81,2.78c0.81,0.76,1.79,0.7,2.95,0.31
		c-0.48,1.06-1.02,1.9-1.79,2.46c-2.42,1.74-4.85,3.5-7.39,5.05c-1.78,1.08-3.74,1.85-5.64,2.72c-0.53,0.24-1.12,0.35-1.84,0.56
		c0.3-0.96,0.26-1.77-0.18-2.52C145.85,216.81,145.04,216.75,144.16,216.66z M185.73,190.78c2.66-1.15,4.46-3.3,6.41-5.42
		c-2.27-0.61-4.45-1.21-6.64-1.78c-0.17-0.05-0.47,0.02-0.58,0.15c-0.73,0.85-1.44,1.72-2.12,2.61c-0.38,0.5-0.25,0.73,0.39,0.83
		c0.15,0.02,0.3,0.05,0.45,0.08c1.72,0.41,2.43,1.59,1.99,3.31C185.62,190.59,185.65,190.63,185.73,190.78z M175.02,165.42
		c0.24-1.25,0.47-2.49,0.71-3.77c-0.94,0.27-1.81,0.55-2.69,0.75c-0.85,0.2-1.73,0.28-2.58,0.47c-1.71,0.38-3.4,0.86-5.12,1.17
		c-2.25,0.4-4.51,0.68-6.77,1.02c-1.44,0.21-2.89,0.27-4.3-0.15c-0.54-0.16-1.04-0.63-1.56-0.64c-0.57-0.01-1.13,0.42-1.72,0.55
		c-1.21,0.26-2.45,0.39-3.65,0.68c-5.06,1.22-10.17,2.11-15.33,2.78c-0.13,0.02-0.31,0.09-0.37,0.19c-0.53,0.97-1.45,1.32-2.44,1.5
		c-1.23,0.23-2.49,0.32-3.73,0.54c-3.3,0.59-6.58,1.23-9.87,1.84c-0.33,0.06-0.65,0.12-1.02,0.19c4.13,16.37,8.25,32.67,12.37,48.99
		c1.41-0.56,2.73-1.13,4.08-1.63c2.43-0.89,4.87-1.72,7.3-2.6c0.16-0.06,0.31-0.24,0.39-0.4c0.46-0.96,0.81-1.98,1.35-2.88
		c1.51-2.49,3.68-4.37,6.02-6.02c2.81-1.97,5.86-3.53,9-4.93c2.79-1.24,5.64-2.07,8.74-1.66c0.2,0.03,0.46-0.14,0.65-0.27
		c1.1-0.81,2.18-1.67,3.29-2.47c3.22-2.32,6.26-4.85,9.16-7.56c0.27-0.25,0.35-0.44,0.09-0.75c-0.52-0.61-0.7-1.35-0.6-2.14
		c0.2-1.63,0.74-3.14,1.68-4.5c0.42-0.6,0.86-1.19,1.32-1.82c-0.68-0.18-1.34-0.31-1.96-0.54c-1.14-0.43-2.25-0.94-2.94-2.04
		c-1.04-1.68-1.32-3.58-1.08-5.45C173.82,171.05,174.48,168.24,175.02,165.42z M125.12,161.8c-1.03,0.16-2.07,0.28-3.1,0.5
		c-2.58,0.54-5.16,1.13-7.74,1.69c-0.57,0.12-1.15,0.21-1.77,0.32c0.32,1.28,0.63,2.5,0.94,3.72c4.26-0.59,8.35-1.57,12.46-2.68
		c-0.32-1.08,0.11-1.89,0.69-2.7C125.89,161.88,125.62,161.72,125.12,161.8z M133.41,162.29c0.04,0.19,0.1,0.43,0.16,0.72
		c0.94-0.1,1.87-0.09,2.75-0.31c4.23-1.05,8.44-2.15,12.65-3.24c0.12-0.03,0.21-0.2,0.31-0.31c-0.04-0.04-0.08-0.08-0.12-0.11
		C144,160.5,138.68,161.21,133.41,162.29z M200.36,212.06c-1.9-7.54-3.78-14.98-5.69-22.55c-0.32,0.31-0.55,0.53-0.78,0.75
		c-1.93,1.75-3.84,3.54-6.23,4.68c-1.99,0.94-4.01,1.68-6.09,0.19c-0.11-0.08-0.4-0.02-0.53,0.08c-1.13,0.87-2.27,1.74-3.37,2.65
		c-3.36,2.78-6.7,5.59-10.05,8.37c-0.27,0.22-0.23,0.41-0.14,0.69c0.85,2.56,0.47,4.87-1.54,6.76c-1.15,1.08-2.37,2.08-3.57,3.11
		c-3.44,2.96-7.49,4.94-11.43,7.09c-2.68,1.46-5.43,1.06-8.11,0.17c-1.79,1.19-3.56,2.36-5.36,3.56c0.14,0.12,0.28,0.25,0.43,0.37
		c0.91,0.78,1.69,1.67,2.15,2.78c0.18,0.45,0.4,0.53,0.86,0.46c8.4-1.39,16.8-2.76,25.2-4.14c8.27-1.35,16.54-2.71,24.81-4.07
		c0.95-0.16,1.9-0.32,2.9-0.49c-0.81-2.41-0.28-4.57,1.01-6.58C196.11,213.91,197.86,212.49,200.36,212.06z M105.5,136.59
		c1.87,7.41,3.72,14.74,5.58,22.09c0.19-0.05,0.3-0.08,0.41-0.1c2.86-0.64,5.7-1.35,8.57-1.92c3.4-0.67,6.67-0.24,9.74,1.43
		c0.34,0.19,0.61,0.2,0.94,0.02c1.8-1.01,3.76-1.58,5.76-1.96c2.99-0.57,6-1.04,9.01-1.47c1.51-0.22,3.04-0.63,4.58-0.16
		c0.08,0.03,0.25-0.07,0.32-0.16c0.89-1.25,2.18-1.99,3.55-2.5c2.13-0.79,4.32-1.46,6.51-2.1c1.35-0.4,2.72-0.71,4.1-0.98
		c1.33-0.26,2.68-0.36,4.01-0.6c3.24-0.59,6.43-0.68,9.57,0.72c0.12-0.61,0.26-1.18,0.34-1.76c0.36-2.57,1.59-4.64,3.54-6.33
		c0.13-0.12,0.19-0.44,0.15-0.63c-1.1-4.45-2.23-8.9-3.34-13.36c-0.09-0.36-0.22-0.51-0.62-0.46c-0.49,0.06-0.99,0.06-1.48,0.05
		c-4.6-0.11-8.09-2.98-9.04-7.43c-0.14-0.66-0.2-1.35-0.31-2.11c-18.05,2.35-36.07,4.69-54.14,7.05c0.5,2.84,0.25,5.51-1.18,7.98
		C110.62,134.41,108.43,135.94,105.5,136.59z M172.61,152.52c-0.85-0.03-1.7-0.03-2.54,0.09c-3.09,0.43-6.21,0.74-9.16,1.83
		c-1.55,0.57-3.04,1.27-4.56,1.94c-0.22,0.1-0.39,0.3-0.64,0.51c0.99,0.28,1.42,0.92,1.57,1.76c0.06,0.33,0.04,0.68,0.1,1.02
		c0.02,0.13,0.16,0.33,0.26,0.34c0.68,0.05,1.39,0.19,2.04,0.07c4.09-0.77,8.2-1.49,12.21-2.62c0.91-0.26,1.82-0.53,2.88-0.84
		c-1.22-0.91-1.58-2.02-1.52-3.25C173.29,152.81,173.06,152.54,172.61,152.52z"/>
	<path class="st1" d="M148.42,210.22c-1.92,1.59-3.78,3.27-5.12,5.42c-0.26,0.42-0.51,0.85-0.73,1.29
		c-0.45,0.93-1.46,1.94-2.48,2.45c-0.4-1.69,0.07-3.18,1.04-4.56c2.14-3.05,4.94-5.37,8.15-7.21c2.58-1.47,5.19-2.88,7.99-3.92
		c1.49-0.55,2.99-1.02,4.6-0.98c0.21,0.01,0.41,0.03,0.79,0.07c-0.94,0.79-1.39,1.83-2.69,2.04
		C155.61,205.51,151.79,207.43,148.42,210.22z M150.62,222.5c3.83-2.15,7.77-4.11,11.16-6.98c1.31-1.11,2.69-2.12,3.78-3.47
		c1.13-1.39,1.23-2.93,0.71-4.64c-0.4,0.31-0.77,0.55-1.08,0.84c-0.19,0.18-0.4,0.42-0.45,0.67c-0.34,1.71-1.29,3.08-2.62,4.1
		c-2.12,1.61-4.3,3.16-6.56,4.56c-1.53,0.94-3.25,1.55-4.86,2.37c-1.49,0.76-3.01,1.38-4.7,1.46c-0.11,0.01-0.25,0.02-0.32,0.09
		c-0.48,0.5-0.94,1.02-1.38,1.5C146.42,223.67,148.57,223.65,150.62,222.5z M125.14,227.99c2.77-1.43,5.55-2.84,8.3-4.32
		c1.71-0.92,3.37-1.92,5.05-2.9c0.16-0.1,0.39-0.29,0.39-0.43c-0.02-0.54-0.11-1.08-0.18-1.62c-2.56,0.15-14.11,5.2-16.14,7.08
		c0.82,0.71,1.64,1.41,2.46,2.12C124.94,228.08,125.04,228.04,125.14,227.99z M147.96,155.76c-2.09,0.27-4.18,0.57-6.27,0.88
		c-2.63,0.4-5.27,0.76-7.82,1.57c-0.81,0.26-1.59,0.59-2.44,0.91c0.34,0.35,0.71,0.58,0.83,0.91c0.36,0.96,1.05,0.98,1.86,0.81
		c0.19-0.04,0.38-0.04,0.56-0.08c2.92-0.6,5.85-1.18,8.77-1.81c1.76-0.38,3.51-0.84,5.26-1.29c0.19-0.05,0.42-0.26,0.49-0.44
		c0.16-0.42,0.22-0.88,0.36-1.47C149,155.75,148.47,155.69,147.96,155.76z M107.5,169.74c-0.78,0.38-1.55,0.77-2.32,1.15
		c0.53,0.69,0.95,0.94,1.9,0.91c1.67-0.06,3.36-0.09,5.02-0.31c2.04-0.26,4.05-0.72,6.07-1.07c3.64-0.63,7.27-1.26,10.84-1.87
		c-0.51-0.3-1.2-0.52-1.56-0.99c-0.7-0.91-1.39-0.85-2.38-0.58c-3.76,1.05-7.58,1.86-11.44,2.42c-1.94,0.28-3.87,0.68-5.84,0.29
		C107.68,169.68,107.58,169.7,107.5,169.74z M182.6,192.06c0.65-0.55,1.2-1.26,1.67-1.98c0.36-0.55,0.12-0.99-0.48-1.29
		c-0.54-0.27-1.06-0.3-1.63,0c-1.76,0.94-3.16,2.33-4.59,3.65c-3.27,3.01-6.72,5.8-10.35,8.36c-2.34,1.65-4.51,3.48-6.27,5.76
		c-0.23,0.3-0.41,0.58-0.19,0.98c0.24,0.43,0.55,0.72,1.17,0.72c0.11-0.03,0.34-0.04,0.51-0.14c0.83-0.46,1.73-0.83,2.46-1.43
		c3.67-3.01,7.27-6.09,10.92-9.11C178.07,195.73,180.38,193.94,182.6,192.06z M180.86,182.55c-1.57,1.54-2.71,3.34-3.12,5.53
		c-0.13,0.69-0.03,1.32,0.53,1.79c1.06-0.8,2.11-1.58,3.19-2.39c-0.34-0.79-0.03-1.5,0.49-2.16c0.56-0.72,1.11-1.44,1.73-2.25
		c-0.84-0.23-1.6-0.44-2.38-0.63C181.17,182.41,180.95,182.46,180.86,182.55z M85.2,164.43c0.2,0.63,0.39,1.26,0.6,1.93
		c5.03-0.77,10.06-1.64,15.12-1.38c0.22-0.71,0.41-1.32,0.6-1.93C99.81,162.18,87.17,163.25,85.2,164.43z M93.55,233.14
		c0.46-0.52,0.91-1.05,1.39-1.56c0.24-0.26,0.54-0.4,0.4-0.89c-0.15-0.5-0.25-0.95-0.85-1.05c-0.82-0.14-1.64-0.29-2.5-0.44
		C91.55,230.8,92.23,232.47,93.55,233.14z M82.9,168.35c0.05,0.16,0.2,0.38,0.34,0.41c0.42,0.1,0.85,0.11,1.3,0.16
		c-0.03-0.4-0.09-0.72-0.08-1.04c0.02-1.17-0.2-2.29-0.77-3.3c-0.67-1.17-1.37-2.36-2.67-2.95c-2.09-0.94-4.21-0.9-6.32-0.05
		c-0.6,0.24-0.78,0.65-0.6,1.22c0.23,0.73,0.76,1.11,1.35,1c1.29-0.23,2.61-0.4,3.82,0.16C81.13,164.84,82.31,166.37,82.9,168.35z
		 M128.46,163.77c-0.61-0.22-1.35,0.35-1.25,1c0.18,1.24,1.46,2.35,2.83,2.34c0.06,0,0.23,0,0.4-0.02
		c3.74-0.58,7.49-1.11,11.22-1.75c2.17-0.37,4.31-0.92,6.47-1.38c1-0.21,2.02-0.36,3.01-0.62c0.52-0.14,0.97-0.52,1.48-0.68
		c1.11-0.34,2.02-0.95,2.81-1.77c0.49-0.51,0.65-1.15,0.54-1.85c-0.11-0.69-0.25-0.74-0.89-0.44c-1.17,0.55-2.31,1.21-3.53,1.58
		c-3.18,0.96-6.4,1.79-9.61,2.67c-2.85,0.78-5.72,1.44-8.69,1.5C131.62,164.38,130.01,164.34,128.46,163.77z M101.47,232.19
		c4.03-1.12,8.08-2.19,12.11-3.29c1.85-0.51,3.64-0.68,5.22,0.74c0.1,0.09,0.29,0.13,0.42,0.11c1.45-0.21,2.9-0.39,4.39-1.12
		c-0.88-0.8-1.64-1.58-2.49-2.24c-0.48-0.37-1.08-0.69-1.67-0.8c-0.85-0.17-1.75-0.23-2.6-0.15c-1.23,0.12-2.46,0.32-3.65,0.65
		c-4.08,1.15-8.17,2.29-12.2,3.6c-2.51,0.82-4.7,2.2-6.43,4.35c-1.52,1.89-1.51,4.44,0.48,6.28c0.38,0.35,0.79,0.67,1.3,1.08
		c0.12-0.59,0.21-1.01,0.29-1.44c0.07-0.33,0-0.57-0.25-0.85c-1.03-1.15-0.99-2.55-0.03-3.73
		C97.72,233.75,99.47,232.75,101.47,232.19z M88.78,172.13c1.69-0.17,3.38-0.3,5.06-0.45c3.08-0.27,6.14-0.64,9.09-1.58
		c1.5-0.48,3.03-0.91,4.32-1.88c0.48-0.36,0.82-0.79,0.92-1.39c0.07-0.41-0.1-0.6-0.51-0.46c-0.52,0.18-1.02,0.41-1.54,0.6
		c-0.71,0.27-1.4,0.62-2.13,0.8c-3.5,0.82-7.05,1.38-10.62,1.83c-2.97,0.37-5.93,0.8-8.93,0.6c-0.97-0.06-1.96-0.29-2.87-0.63
		c-1.59-0.6-1.93-1.56-1.26-3.13c-0.16-0.17-0.33-0.35-0.5-0.54c-0.24,0.14-0.41,0.26-0.59,0.36c-1.39,0.75-1.63,2.84-0.32,3.69
		c1.12,0.72,2.36,1.39,3.64,1.72C84.57,172.19,86.67,172.34,88.78,172.13z M76.64,168.58c0.01-0.16-0.01-0.28,0.03-0.38
		c0.54-1.3-0.32-1.67-1.28-2.12c-1.19-0.55-2.14-1.35-2.52-2.75c-0.35-1.32,0.01-2.42,1.27-2.97c1.25-0.54,2.56-0.84,3.94-0.81
		c0.16,0,0.32,0,0.53,0c-0.34-1.44-0.66-2.8-0.99-4.22c-1.87,0.57-3.41,1.56-4.74,2.82c-1.47,1.4-2.75,2.96-3.14,5.05
		c-0.28,1.49,0.14,2.52,1.41,3.32c0.88,0.56,1.79,1.09,2.72,1.56C74.73,168.53,75.66,168.71,76.64,168.58z M80.39,173.09
		c-1.36,0.53-2.76,0.56-4.15,0.18c-1.04-0.28-1.77-0.94-1.99-2.06c-0.08-0.43-0.14-0.86-0.22-1.29c-0.02-0.12-0.04-0.31-0.12-0.35
		c-0.51-0.26-1.03-0.5-1.6-0.76c-0.01,1.38,0.21,2.64,0.67,3.87c0.42,1.13,1.22,1.83,2.36,2.12c1.73,0.43,3.45,0.31,5.11-0.3
		c0.82-0.3,1.59-0.76,2.51-1.21c-0.78-0.24-1.35-0.42-1.94-0.61C80.83,172.81,80.63,173,80.39,173.09z M92.05,236.4
		c0.23-0.75,0.45-1.47,0.68-2.23c-1.53-0.96-2.16-2.44-2.19-4.23c-0.02-1.04,0.23-2.01,0.7-2.91c0.64-1.23,1.36-2.42,2.04-3.63
		c0.09-0.16,0.21-0.36,0.18-0.52c-0.27-1.26-0.57-2.51-0.89-3.88c-0.21,0.26-0.35,0.41-0.47,0.58c-1.02,1.47-2.08,2.91-3.04,4.42
		c-1.26,1.98-2.43,4.01-2.72,6.41c-0.17,1.4,0.08,2.73,1.29,3.57c1.21,0.84,2.55,1.49,3.84,2.22
		C91.65,236.29,91.86,236.33,92.05,236.4z M99.19,234.74c-0.07-0.03-0.13-0.06-0.2-0.1c-0.64,0.66-1.31,1.3-1.91,2
		c-0.15,0.18-0.12,0.52-0.19,0.86c0.87-0.28,1.34-0.02,1.25,0.6c-0.18,1.31-0.34,2.65-0.69,3.92c-0.4,1.46-1.41,1.85-2.79,1.2
		c-0.76-0.35-1.5-0.75-2.2-1.2c-1.27-0.81-2.41-1.76-2.73-3.36c-0.12-0.61-0.21-1.24-0.32-1.85c-0.02-0.12-0.07-0.27-0.15-0.32
		c-0.33-0.21-0.68-0.39-1.03-0.57c-0.07,0.05-0.14,0.09-0.21,0.14c0.31,1.09,0.4,2.32,0.98,3.23c1.26,1.96,2.72,3.81,4.71,5.14
		c1.05,0.7,2.14,1.22,3.46,1.04c1.11-0.15,1.77-0.67,2.08-1.75c0.11-0.38,0.19-0.78,0.26-1.17c0.36-2.09,0.09-4.18-0.09-6.26
		C99.39,235.76,99.28,235.25,99.19,234.74z M176.1,159.61c0.19-0.75,0.31-1.52,0.48-2.42c-0.33,0.04-0.59,0.01-0.79,0.1
		c-0.78,0.34-1.52,0.79-2.31,1.06c-1.19,0.4-2.4,0.73-3.62,1.01c-2.67,0.61-5.35,1.15-8.02,1.75c-1.54,0.35-3.07,0.54-4.63,0.24
		c-0.13-0.03-0.33-0.02-0.42,0.06c-0.8,0.71-1.59,1.45-2.39,2.18c0.9,0.32,1.91,0.41,2.93,0.26c1.51-0.21,3.01-0.46,4.51-0.72
		c1.7-0.29,3.4-0.6,5.1-0.93c1.77-0.34,3.55-0.66,5.31-1.08c1.16-0.28,2.28-0.69,3.41-1.08
		C175.83,159.99,176.06,159.79,176.1,159.61z M102.67,166.66c0.71-0.2,1.44-0.4,2.15-0.62c0.09-0.03,0.22-0.19,0.21-0.28
		c-0.03-0.93,0.59-1.39,1.32-1.67c0.83-0.31,1.7-0.58,2.57-0.73c2.47-0.43,4.97-0.75,7.43-1.2c2.77-0.51,5.52-1.1,8.27-1.69
		c1-0.21,1.8,0.07,2.51,0.74c0.36,0.34,0.62,0.82,1.03,1.05c1.25,0.68,2.62,0.81,4.13,0.76c-0.38-0.95-0.66-1.88-1.38-2.53
		c-1.16-1.05-2.55-1.71-4.04-2.16c-2.92-0.89-5.84-0.6-8.75,0.07c-2.78,0.64-5.54,1.36-8.31,2.06c-1.66,0.42-3.33,0.81-4.95,1.34
		C102.94,162.43,101.98,164.59,102.67,166.66z M101.63,240.42c1.44,0.55,2.87,1.04,4.44,0.65c1.53-0.39,3.07-0.73,4.59-1.17
		c3.7-1.07,7.28-2.45,10.77-4.06c1.03-0.48,1.69-1.37,2.44-2.17c-0.03-0.07-0.05-0.14-0.08-0.21c-0.68,0.14-1.36,0.28-2.04,0.41
		c-0.68,0.13-1.37,0.25-2.05,0.39c-0.25,0.05-0.49,0.14-0.72,0.24c-0.83,0.36-1.64,0.78-2.5,1.08c-0.79,0.28-1.62,0.42-2.43,0.63
		c-2.26,0.58-4.51,1.24-6.79,1.73c-1.86,0.4-3.75,0.61-5.64,0.87c-0.47,0.07-0.63,0.22-0.63,0.72
		C100.99,240.05,101.17,240.24,101.63,240.42z M177.14,154.27c-0.36-0.18-0.66-0.3-0.93-0.46c-0.29-0.18-0.54-0.42-0.84-0.58
		c-0.17-0.09-0.44-0.16-0.58-0.09c-0.12,0.07-0.17,0.36-0.16,0.55c0.06,1.27,0.89,2.08,2.21,2.15
		C176.94,155.31,177.04,154.8,177.14,154.27z M177.71,151.28c0.2-1.09,0.11-1.21-0.98-1.54c-0.05-0.02-0.11-0.04-0.16-0.05
		c-1.95-0.5-3.91-0.72-5.93-0.4c-3.19,0.51-6.43,0.74-9.53,1.72c-1.45,0.46-2.94,0.79-4.37,1.29c-1.27,0.45-2.49,1.02-3.7,1.6
		c-1.23,0.59-1.88,1.69-2.31,2.92c-0.24,0.69-0.29,1.41-0.05,2.17c1.23-0.31,2.36-0.78,3.41-1.43c0.11-0.07,0.18-0.24,0.21-0.37
		c0.22-0.98,0.82-1.62,1.68-2.11c2.22-1.27,4.59-2.15,7.07-2.69c2.49-0.54,5.02-0.88,7.53-1.28c1.21-0.2,2.39-0.17,3.46,0.57
		c0.09,0.07,0.25,0.07,0.38,0.06c0.83-0.09,1.53,0.16,2.16,0.7c0.21,0.18,0.46,0.32,0.81,0.55
		C177.51,152.32,177.62,151.8,177.71,151.28z M131.86,228.86c3.76-1.77,7.38-3.79,10.65-6.39c0.7-0.56,1.4-1.13,2-1.79
		c0.37-0.4,0.65-0.95,0.79-1.48c0.21-0.78-0.31-1.25-1.07-0.98c-0.49,0.17-0.96,0.47-1.35,0.81c-2.44,2.11-5.05,3.97-7.95,5.42
		c-2.53,1.27-4.99,2.69-7.51,3.99c-1.79,0.92-3.62,1.8-5.62,2.19c-1.21,0.23-2.45,0.31-3.67,0.55c-0.33,0.06-0.61,0.42-0.91,0.64
		c0.19,0.21,0.34,0.53,0.58,0.62c0.64,0.23,1.31,0.36,1.92,0.51c0.47-0.1,0.86-0.17,1.24-0.26c0.72-0.17,1.44-0.34,2.15-0.51
		c1.05-0.25,2.16-0.35,3.15-0.76C128.17,230.67,130,229.74,131.86,228.86z M193.29,186.22c-1.75,1.79-3.38,3.71-5.52,5.09
		c-0.88,0.57-1.75,0.87-2.78,0.75c-0.15-0.02-0.34,0.03-0.45,0.12c-0.7,0.61-1.38,1.25-2.12,1.92c0.74,0.54,1.52,0.71,2.38,0.48
		c1.68-0.44,3.21-1.21,4.54-2.31c1.66-1.36,3.26-2.8,4.86-4.24c0.56-0.5,1.04-1.09,1.6-1.68c-0.55-0.15-1.02-0.24-1.46-0.41
		C193.9,185.79,193.61,185.89,193.29,186.22z"/>
	<path class="st6" d="M100.97,166.39c0.12,0,0.23,0.27,0.41,0.51c-1.13,0.24-2.12,0.45-3.17,0.68c-0.1-0.41-0.19-0.77-0.29-1.21
		C98.96,166.38,99.96,166.36,100.97,166.39z M87.06,167.44c-1.14,0.14-1.14,0.19-1.29,1.43c3.75,0.05,7.35-0.73,11.06-1.13
		c-0.12-0.49-0.21-0.89-0.3-1.29c-0.13-0.01-0.21-0.02-0.28-0.01C93.19,166.77,90.12,167.08,87.06,167.44z M112.12,168.33
		c-0.32-1.26-0.59-2.38-0.9-3.5c-0.04-0.15-0.3-0.36-0.45-0.34c-0.87,0.07-1.73,0.19-2.6,0.3c-0.01,0.05-0.02,0.09-0.03,0.14
		c0.86,0.13,1.41,0.65,1.4,1.48c-0.01,0.72-0.27,1.45-0.43,2.24C110.07,168.54,111.07,168.44,112.12,168.33z M80.52,159.98
		c0.91,0.26,1.77,0.63,2.43,1.33c0.46,0.48,0.85,1.02,1.26,1.54c0.18,0.22,0.31,0.43,0.69,0.3c2.32-0.82,4.75-1.06,7.16-1.39
		c1.09-0.15,2.18-0.22,3.33-0.34c-3.58-15.54-7.15-31.01-10.76-46.69c-1,0.84-1.93,1.5-2.73,2.31c-3.78,3.81-6.11,8.4-7.17,13.65
		c-0.37,1.86-0.59,3.75-0.16,5.62c1.78,7.69,3.6,15.37,5.39,23.06C80.04,159.71,80.18,159.88,80.52,159.98z M96.6,160.7
		c0.13,0.55,0.33,0.66,0.87,0.63c1.65-0.08,3.31-0.1,4.94,0.5c0.85-1.11,2.15-1.45,3.44-1.8c1.28-0.34,2.56-0.67,3.89-1.02
		c-0.04-0.21-0.07-0.4-0.12-0.58c-1.81-7.2-3.63-14.4-5.45-21.6c-0.28-1.1-0.09-1.38,1.04-1.6c2.31-0.44,4.15-1.62,5.41-3.59
		c1.55-2.42,1.94-5.05,1.11-7.82c-0.2-0.66,0.1-1.08,0.9-1.18c7.4-0.96,14.81-1.92,22.21-2.89c10.8-1.41,21.61-2.82,32.41-4.22
		c1.46-0.19,1.5-0.13,1.57,1.34c0.11,2.52,0.87,4.76,2.91,6.39c2.11,1.68,4.55,2.01,7.13,1.64c0.66-0.09,0.94,0.07,1.09,0.69
		c1.02,4.08,2.05,8.16,3.07,12.24c0.16,0.66,0.33,1.31,0.49,1.94c0.77-0.04,1.1-0.39,1.25-1.1c0.38-1.84,0.84-3.67,1.29-5.5
		c1.04-4.22,2.66-8.17,5.49-11.55c0.11-0.13,0.16-0.39,0.11-0.55c-1.54-4.66-3.06-9.32-4.67-13.96c-0.62-1.78-2.05-2.77-3.85-3.24
		c-1.07-0.28-2.08,0.08-3.11,0.19c-6.46,0.69-12.91,1.41-19.36,2.11c-7.15,0.78-14.31,1.55-21.46,2.33s-14.31,1.57-21.46,2.36
		c-6.91,0.76-13.81,1.51-20.72,2.26c-1.59,0.17-3.18,0.34-4.77,0.51c-2.08,0.23-4.16,0.46-6.3,0.7c0.04,0.24,0.06,0.41,0.1,0.57
		C89.57,130.17,93.1,145.43,96.6,160.7z M95.83,226.91c0.26,1.1,0.52,2.2,0.79,3.37c4.19-2.63,9-3.29,13.49-4.96
		c-4.05-17.56-8.09-35.11-12.14-52.67c-0.12-0.01-0.2-0.02-0.27-0.01c-2.14,0.21-4.28,0.45-6.42,0.62c-1.8,0.14-3.61,0.21-5.41,0.26
		c-0.68,0.02-1.31-0.24-1.86,0.51c-0.3,0.41-0.45,0.67-0.34,1.16c3.38,14.33,6.75,28.67,10.12,43
		C94.47,221.1,95.15,224.01,95.83,226.91z M214.5,191.11c-0.27-0.83-0.55-1.65-0.83-2.5c-0.14,0.05-0.23,0.08-0.31,0.12
		c-2.29,1.18-4.71,1-7.08,0.48c-2.47-0.54-4.92-1.22-7.31-2.04c-1.32-0.46-2.16-0.16-2.87,0.9c-0.14,0.2-0.24,0.52-0.19,0.74
		c0.2,0.95,0.46,1.89,0.7,2.83c1.76,6.94,3.52,13.88,5.29,20.82c0.16,0.63-0.12,1.01-0.79,0.97c-0.87-0.05-1.66,0.17-2.41,0.59
		c-1.67,0.93-2.8,2.33-3.48,4.09c-0.6,1.55-0.63,3.08,0.22,4.57c0.25,0.44,0.05,0.82-0.44,0.99c-0.18,0.06-0.37,0.09-0.56,0.12
		c-5.51,0.9-11.01,1.8-16.52,2.7c-8.95,1.47-17.89,2.93-26.84,4.4c-3.68,0.61-7.37,1.22-11.05,1.83c-0.48,0.08-0.85-0.07-0.95-0.57
		c-0.34-1.6-1.41-2.66-2.63-3.61c-0.26-0.2-0.49-0.19-0.78-0.04c-1.47,0.75-2.95,1.51-4.44,2.21c-1.67,0.78-3.37,1.49-5.05,2.26
		c-0.25,0.11-0.51,0.31-0.64,0.54c-0.89,1.59-2.06,2.91-3.73,3.65c-2.15,0.95-4.36,1.78-6.54,2.68c-0.13,0.05-0.32,0.27-0.29,0.37
		c0.26,1.26,0.56,2.51,0.86,3.81c1.24-0.19,2.42-0.36,3.61-0.54c6.14-0.93,12.27-1.86,18.41-2.79c6.42-0.97,12.84-1.95,19.25-2.92
		c6.15-0.93,12.31-1.87,18.46-2.8c6.66-1.01,13.33-2.02,19.99-3.03c6.4-0.97,12.8-1.95,19.2-2.92c2.2-0.33,4.4-0.71,6.61-0.97
		c1.58-0.19,2.9-1.23,3.34-2.76c0.37-1.27,0.15-2.45-0.25-3.68C221.11,211.45,217.81,201.28,214.5,191.11z M213.59,230.58
		c-6.15,0.93-12.31,1.86-18.46,2.8c-6.44,0.98-12.87,1.96-19.31,2.93c-6.12,0.93-12.23,1.85-18.35,2.78
		c-6.4,0.97-12.8,1.95-19.19,2.92c-6.45,0.98-12.91,1.98-19.37,2.92c-1.34,0.19-2.66,0.69-4.06,0.36c-0.18-0.04-0.43,0.04-0.6,0.14
		c-0.58,0.32-1.21,0.6-1.7,1.04c-4.26,3.88-7.06,8.59-7.93,14.35c-0.24,1.57-0.11,3.16,0.27,4.71c0.1,0.39,0.29,0.53,0.73,0.63
		c0.9,0.19,1.74-0.05,2.59-0.19c7.32-1.15,14.63-2.32,21.94-3.49c7.54-1.2,15.08-2.39,22.62-3.59c7.11-1.13,14.21-2.26,21.32-3.39
		c6.6-1.05,13.2-2.1,19.8-3.15c6.77-1.08,13.53-2.16,20.31-3.21c0.57-0.09,0.92-0.33,1.1-0.82c0.14-0.39,0.24-0.8,0.27-1.21
		c0.05-0.58-0.35-0.86-0.92-0.69c-0.29,0.09-0.57,0.22-0.87,0.27c-4.3,0.72-8.6,1.42-12.9,2.13c-7.17,1.2-14.34,2.41-21.51,3.61
		c-7.38,1.24-14.76,2.47-22.13,3.7c-7.17,1.2-14.34,2.41-21.51,3.61c-6.96,1.17-13.93,2.33-20.89,3.5
		c-1.84,0.31-3.68,0.62-5.52,0.93c-1.05,0.17-1.41-0.12-1.47-1.17c-0.12-2.04,0.16-4.03,0.72-5.99c0.96-3.34,2.43-6.4,4.9-8.91
		c0.73-0.74,1.5-1.42,2.65-1.29c0.09,0.01,0.19-0.02,0.28-0.04c6.38-0.98,12.76-1.95,19.14-2.93c6.34-0.97,12.68-1.94,19.03-2.91
		c6.87-1.05,13.74-2.1,20.61-3.15c6.59-1.01,13.17-2.01,19.76-3.02c6.89-1.05,13.78-2.1,20.66-3.16c2.09-0.32,4.17-0.69,6.25-1.02
		c0.89-0.14,1.54-0.61,1.98-1.39c0.16-0.28,0.33-0.56,0.5-0.83c-1.08,0.77-2.27,1.01-3.55,1.16
		C218.36,229.79,215.98,230.22,213.59,230.58z M114.38,243.84c-0.25-1.1-0.5-2.23-0.75-3.33c-2.15,0.56-4.29,1.1-6.42,1.67
		c-1.79,0.48-3.54,0.44-5.26-0.29c-0.29-0.12-0.58-0.23-0.79-0.31c-0.28,1.09-0.56,2.11-0.8,3.14c-0.08,0.33-0.17,0.7-0.1,1.02
		c0.69,3.06,1.42,6.12,2.14,9.17c0.34,1.42,0.67,2.84,1.04,4.38c0.08-0.23,0.13-0.33,0.15-0.44c0.5-2.43,1.44-4.68,2.72-6.8
		C108.34,248.69,110.57,245.53,114.38,243.84z M115.25,224.25c2.08-0.41,4.12-0.44,6.09,0.52c0.12,0.06,0.36,0,0.49-0.09
		c0.98-0.62,1.94-1.27,2.92-1.89c0.89-0.56,0.9-0.54,0.67-1.59c-0.06-0.28-0.1-0.56-0.17-0.84c-3.95-15.67-7.91-31.34-11.87-47.01
		c-0.05-0.19-0.12-0.38-0.15-0.48c-2.03,0.08-3.97,0.17-5.91,0.25c-1.33,0.05-2.43-0.41-3.24-1.48c-0.23-0.3-0.45-0.29-0.79-0.21
		c-1.18,0.31-2.36,0.57-3.55,0.85c-0.14,0.03-0.28,0.09-0.44,0.14c4.04,17.54,8.08,35.03,12.12,52.6
		C112.76,224.75,114,224.5,115.25,224.25z M112.38,235.17c-0.33-1.43-0.65-2.84-1-4.38c-3.72,1.07-7.38,2.11-11.02,3.15
		c0.2,1.32,0.38,2.5,0.57,3.7C104.81,237.12,108.63,236.46,112.38,235.17z M116.92,230.04c-1.53-0.37-2.8,0.27-4.2,0.49
		c0.34,1.46,0.66,2.86,0.99,4.33c1.24-0.32,2.38-0.62,3.53-0.92c-0.01-0.06-0.01-0.12-0.02-0.18c-0.66-0.43-1.35-0.81-1.42-1.72
		C115.74,231.17,116.29,230.63,116.92,230.04z M194.33,129.69c-0.36,1.13-0.8,2.25-1.05,3.41c-0.56,2.64-1,5.31-1.52,7.96
		c-0.07,0.39,0.05,0.5,0.39,0.58c1.5,0.35,2.99,0.73,4.49,1.1c0.72,0.18,1.43,0.34,2.27,0.55c-1.5-4.62-2.97-9.1-4.43-13.59
		C194.43,129.69,194.38,129.69,194.33,129.69z"/>
	<g>
		<path class="st5" d="M220.38,151.1c-0.57-0.7-1.38-1.08-2.26-1.37c-0.16,0.59-0.29,1.1-0.45,1.61c-0.12,0.39-0.07,0.7,0.16,1.06
			c0.64,1.02,0.98,2.13,0.76,3.37c-1.59,8.74-3.16,17.49-4.75,26.24c-0.39,2.16-0.86,4.3-2.48,5.96c0.03,0.06,0.05,0.12,0.08,0.18
			c0.57-0.25,1.15-0.46,1.69-0.75c1.8-0.96,3.06-2.32,3.39-4.44c0.34-2.18,0.76-4.35,1.15-6.52c1.28-7.21,2.56-14.43,3.84-21.64
			C221.76,153.36,221.24,152.17,220.38,151.1z"/>
		<path class="st5" d="M184.27,140.99c-1.1,0.53-1.95,1.14-2.63,2.03c0.86,0,1.64,0,2.47,0
			C184.16,142.35,184.21,141.73,184.27,140.99z"/>
		<path class="st5" d="M211.58,147.8c-6.74-1.66-13.4-3.3-20.11-4.95c-0.14,0.62-0.27,1.19-0.42,1.82
			c6.77,1.58,13.44,3.14,20.14,4.71C211.33,148.8,211.45,148.31,211.58,147.8z"/>
		<path class="st5" d="M212.78,180.15c1.47-7.94,2.9-15.9,4.34-23.85c0.1-0.54,0.3-1.09,0.27-1.62c-0.06-1.38-1.41-2.86-2.76-3.15
			c-0.81-0.18-1.62-0.35-2.43-0.54c-8.61-2.01-17.23-4.03-25.84-6.04c-1.14-0.27-2.29-0.52-3.44-0.78
			c-0.01,0.02-0.02,0.05-0.03,0.07c-0.36,0.05-0.73,0.04-1.07,0.15c-0.7,0.21-1.39,0.51-1.66,1.26c-0.15,0.42-0.18,0.89-0.27,1.34
			c-1.51,7.94-3.03,15.89-4.54,23.83c-0.35,1.84-0.81,3.66-0.52,5.59c0.31,2.11,1.07,3.16,3.11,3.72
			c6.92,1.88,13.84,3.75,20.76,5.63c2.64,0.72,5.29,1.41,7.92,2.18c1.14,0.33,2.18,0.24,3.16-0.39c0.83-0.53,1.45-1.29,1.72-2.22
			C212.02,183.63,212.46,181.9,212.78,180.15z M200.18,162.62c-0.25,1.29-0.91,2.29-2.22,2.74c-0.44,0.15-0.55,0.48-0.59,0.88
			c-0.24,2.23-0.47,4.47-0.71,6.7c-0.02,0.21-0.06,0.41-0.1,0.69c-1.44-0.29-2.82-0.56-4.26-0.85c0.07-0.25,0.12-0.47,0.19-0.68
			c0.67-2,1.32-4.01,2.03-6c0.25-0.71,0.15-1.26-0.28-1.85c-1.16-1.57-0.82-3.81,0.72-5.01c1.06-0.83,2.47-0.91,3.64-0.22
			C199.77,159.72,200.45,161.24,200.18,162.62z"/>
	</g>
	<path class="st0" d="M120.89,141.91c0.12,0.1,0.27,0.06,0.4,0.08c1.13,0.12,2.02,0.62,2.6,1.63c0.4,0.7,0.31,1.64-0.16,2.3
		c-0.73,1.03-1.74,1.63-2.88,2.06c-0.35,0.13-0.69,0.28-1.03,0.43c-0.36,0.16-0.74,0.23-1.13,0.29c-0.67,0.1-1.2-0.21-1.42-0.87
		c-0.21-0.63-0.29-1.29-0.41-1.94c-0.22-1.13-0.39-2.27-0.61-3.4c-0.19-0.98-0.35-1.96-0.55-2.94c-0.15-0.75-0.28-1.49-0.44-2.24
		c-0.1-0.5-0.21-1-0.28-1.5c-0.11-0.8,0.45-1.57,1.23-1.72c0.63-0.13,1.24-0.33,1.89-0.35c1.26-0.06,2.43,0.17,3.44,0.97
		c0.7,0.55,1.08,1.3,1.25,2.15c0.21,1.05,0.03,2.05-0.48,3c-0.38,0.71-0.78,1.39-1.36,1.95
		C120.92,141.82,120.91,141.87,120.89,141.91z M118.09,142c0.9-0.84,1.76-1.66,2.41-2.65c0.37-0.56,0.51-1.21,0.48-1.89
		c-0.04-0.73-0.71-1.57-1.49-1.74c-0.73-0.15-1.45-0.06-2.17,0c-0.39,0.03-0.38,0.06-0.31,0.45c0.22,1.18,0.42,2.37,0.64,3.55
		C117.79,140.47,117.94,141.21,118.09,142z M120.04,143.91c-0.39,0.04-0.78,0.13-1.15,0.3c-0.35,0.15-0.33,0.14-0.3,0.52
		c0.05,0.56,0.3,1.07,0.27,1.65c-0.01,0.24,0.12,0.3,0.39,0.2c0.75-0.26,1.49-0.55,2.18-0.96c0.31-0.18,0.63-0.4,0.76-0.78
		c0.14-0.39,0.14-0.45-0.22-0.64C121.37,143.88,120.74,143.7,120.04,143.91z M134.79,144.64c0.07,0.56-0.12,0.93-0.51,1.1
		c-0.38,0.17-0.79,0.05-1.08-0.32c-0.31-0.41-0.49-0.89-0.67-1.36c-0.31-0.81-0.69-1.58-1.06-2.36c-0.06-0.13-0.14-0.18-0.28-0.16
		c-0.22,0.04-0.44,0.05-0.65,0.11c-0.71,0.22-1.43,0.42-2.12,0.68c-0.2,0.08-0.31,0.19-0.34,0.39c-0.16,0.87-0.31,1.73-0.47,2.6
		c-0.04,0.25-0.07,0.5-0.12,0.75c-0.12,0.58-0.53,0.9-1.03,0.83c-0.56-0.09-0.87-0.49-0.8-1.09c0.06-0.52,0.16-1.04,0.25-1.55
		c0.32-1.85,0.63-3.71,0.95-5.56c0.17-0.99,0.38-1.96,0.54-2.95c0.12-0.68,0.21-1.37,0.38-2.05c0.08-0.29,0.19-0.54,0.46-0.69
		c0.46-0.26,1.22-0.11,1.56,0.33c0.12,0.16,0.24,0.33,0.32,0.52c0.25,0.55,0.49,1.11,0.74,1.67c0.57,1.3,1.14,2.6,1.71,3.91
		c0.11,0.25,0.36,0.42,0.41,0.69c0.13,0.66,0.46,1.23,0.69,1.85c0.25,0.67,0.58,1.3,0.86,1.95
		C134.63,144.19,134.72,144.47,134.79,144.64z M129.15,136.53c-0.21,1.23-0.42,2.45-0.64,3.72c0.65-0.16,1.24-0.31,1.83-0.46
		c0.2-0.05,0.23-0.15,0.16-0.33C130.14,138.46,129.58,137.54,129.15,136.53z M144.81,132.1c0.01,0.73,0,1.46,0,2.18
		c0,0.98,0.03,1.96,0.02,2.94c-0.01,1.03-0.06,2.06-0.06,3.1c0,0.69-0.03,1.39-0.07,2.08c-0.02,0.32-0.1,0.64-0.21,0.94
		c-0.33,0.91-1.29,1.1-1.94,0.4c-0.53-0.57-0.93-1.25-1.38-1.89c-0.49-0.69-0.93-1.41-1.39-2.12c-0.7-1.08-1.49-2.1-2.11-3.22
		c-0.16-0.3-0.45-0.51-0.61-0.91c-0.08,0.27,0.01,0.45,0.02,0.64c0.01,0.2,0.03,0.41,0.03,0.61c-0.01,0.9,0.16,1.78,0.22,2.68
		c0.05,0.82,0.11,1.65,0.28,2.47c0.12,0.56,0.15,1.14,0.18,1.72c0.06,0.97-1.13,1.57-1.67,0.61c-0.16-0.28-0.2-0.61-0.24-0.93
		c-0.41-3.29-1.15-6.97-0.89-10.29c0.01-0.2,0.02-0.41,0.1-0.6c0.18-0.46,0.66-0.73,1.15-0.6c0.4,0.1,0.77,0.28,1,0.64
		c0.62,0.95,1.32,1.84,1.88,2.83c0.36,0.63,0.81,1.21,1.21,1.81c0.48,0.73,0.95,1.48,1.44,2.21c0.32,0.47,0.67,0.92,1.01,1.38
		c0.03-0.01,0.07-0.02,0.1-0.03c0.01-0.95,0.03-1.89,0.04-2.84c0.01-0.56,0.03-1.12,0.03-1.68c0.01-1.35,0.01-2.71,0.01-4.06
		c0-0.43,0.16-0.77,0.57-0.93C144.13,130.98,144.8,131.43,144.81,132.1z M155.66,130.34c-0.13,0.94-0.08,1.89-0.11,2.83
		c-0.04,1.2-0.02,2.4-0.02,3.6c0,1.1,0.08,2.2,0,3.3c-0.03,0.47-0.01,0.95-0.01,1.42c0,0.24-0.05,0.48-0.14,0.69
		c-0.3,0.66-1.03,0.84-1.61,0.4c-0.2-0.16-0.35-0.36-0.5-0.57c-0.62-0.91-1.25-1.81-1.85-2.73c-0.7-1.08-1.38-2.17-1.99-3.31
		c-0.31-0.58-0.7-1.12-1.06-1.7c0,0.42,0,0.85,0,1.28c0.01,1.1,0.11,2.2,0.09,3.3c-0.01,0.51,0.08,1.01,0.1,1.52
		c0.04,0.69,0.07,1.39,0.08,2.08c0.01,0.3-0.04,0.61-0.24,0.86c-0.39,0.51-1.07,0.47-1.4-0.08c-0.16-0.27-0.22-0.58-0.21-0.88
		c0-0.71-0.12-1.42-0.15-2.13c-0.06-1.88-0.14-3.75-0.16-5.64c-0.01-1.1,0.04-2.2-0.01-3.3c-0.01-0.19,0-0.37,0.03-0.56
		c0.15-0.79,1.03-1.1,1.64-0.58c0.2,0.16,0.36,0.37,0.46,0.6c0.26,0.59,0.65,1.11,0.96,1.67c1.08,1.96,2.24,3.86,3.41,5.77
		c0.18,0.29,0.31,0.6,0.6,0.9c0.1-0.57,0.08-1.09,0.07-1.61c-0.04-1.74-0.08-3.48,0.02-5.23c0.04-0.71-0.04-1.42,0.02-2.13
		c0.01-0.13,0.02-0.27,0.06-0.4c0.09-0.38,0.42-0.7,0.77-0.71c0.4-0.02,0.74,0.13,0.93,0.5
		C155.59,129.77,155.7,130.04,155.66,130.34z M160.4,128.17c0.54-0.17,1-0.19,1.45-0.25c0.56-0.07,0.96,0.21,1.06,0.71
		c0.11,0.52-0.17,0.98-0.72,1.1c-0.44,0.09-0.88,0.22-1.34,0.26c-0.59,0.05-1.17,0.21-1.75,0.32c-0.12,0.02-0.18,0.1-0.16,0.22
		c0.12,0.78-0.02,3.16,1.02,3.14c0.35-0.01,0.7-0.01,1.05-0.13c0.38-0.13,0.86,0.13,1.02,0.49c0.19,0.43,0.08,0.91-0.29,1.19
		c-0.19,0.15-0.41,0.24-0.66,0.25c-0.34,0.02-0.67,0.04-1.01,0.07c-0.29,0.02-0.35,0.06-0.3,0.33c0.13,0.7,0.16,1.41,0.29,2.11
		c0.11,0.57,0.22,1.13,0.26,1.7c0.03,0.46,0.11,0.5,0.58,0.44c0.63-0.07,1.22-0.29,1.84-0.41c0.26-0.05,0.5-0.04,0.75,0.05
		c0.57,0.22,0.85,0.92,0.31,1.49c-0.21,0.22-0.47,0.35-0.76,0.39c-1.04,0.15-2.05,0.44-3.1,0.59c-0.61,0.09-1.12-0.3-1.21-0.87
		c-0.16-1.05-0.36-2.1-0.51-3.15c-0.1-0.72-0.26-1.43-0.38-2.15c-0.05-0.3-0.06-0.61-0.1-0.91c-0.28-1.77-0.71-3.57-0.83-5.36
		c-0.04-0.56,0.23-0.9,0.8-1.1c0.53-0.19,1.08-0.27,1.63-0.38C159.72,128.26,160.11,128.21,160.4,128.17z M165.15,137.01
		c-0.16-1.11-0.33-2.22-0.49-3.32c-0.16-1.09-0.34-2.17-0.47-3.26c-0.09-0.74-0.26-1.46-0.24-2.21c0.01-0.59,0.28-0.97,0.86-1.08
		c1.22-0.24,2.43-0.2,3.61,0.21c1.22,0.42,2.26,1.1,3.1,2.12c0.78,0.94,1.3,1.99,1.5,3.18c0.22,1.32,0.1,2.61-0.44,3.88
		c-0.71,1.65-1.87,2.92-3.21,4.06c-0.35,0.3-0.73,0.54-1.12,0.79c-0.35,0.22-0.74,0.34-1.14,0.42c-0.31,0.07-0.61-0.01-0.85-0.22
		c-0.31-0.28-0.55-0.6-0.61-1.03c-0.17-1.18-0.34-2.35-0.52-3.52C165.13,137.01,165.14,137.01,165.15,137.01z M167.44,139.57
		c0.04,0,0.06,0.01,0.08,0.01c0.06-0.03,0.12-0.06,0.18-0.09c0.84-0.55,1.58-1.23,2.2-2.02c0.4-0.52,0.76-1.09,1-1.7
		c0.38-0.98,0.46-2.01,0.21-3.05c-0.41-1.68-1.37-2.89-3.02-3.48c-0.35-0.13-0.71-0.21-1.07-0.32c-0.22-0.07-0.43-0.07-0.65-0.04
		c-0.42,0.07-0.43,0.07-0.38,0.48c0.07,0.55,0.16,1.11,0.24,1.66c0.11,0.85,0.19,1.71,0.32,2.56c0.07,0.48,0.18,0.97,0.23,1.45
		c0.14,1.35,0.4,2.68,0.54,4.03C167.33,139.24,167.33,139.43,167.44,139.57z M128.89,182.01c0.15,0.09,0.32,0.04,0.48,0.04
		c1.34,0.01,2.4,0.42,3.09,1.37c0.48,0.66,0.39,1.61-0.14,2.33c-0.84,1.14-2.03,1.89-3.4,2.49c-0.42,0.19-0.84,0.39-1.26,0.59
		c-0.44,0.22-0.92,0.35-1.4,0.47c-0.85,0.21-1.52-0.05-1.8-0.71c-0.27-0.64-0.37-1.33-0.53-2c-0.28-1.17-0.5-2.35-0.79-3.51
		c-0.24-1.01-0.45-2.02-0.71-3.02c-0.19-0.76-0.37-1.53-0.56-2.29c-0.13-0.51-0.27-1.02-0.36-1.53c-0.14-0.82,0.57-1.64,1.56-1.84
		c0.79-0.16,1.55-0.39,2.35-0.45c1.53-0.11,2.93,0.06,4.14,0.79c0.83,0.5,1.28,1.22,1.49,2.04c0.27,1.02,0.07,2.03-0.51,3.01
		c-0.43,0.74-0.9,1.46-1.59,2.09C128.93,181.91,128.92,181.96,128.89,182.01z M125.47,182.39c1.11-0.96,2.15-1.87,2.93-2.94
		c0.44-0.6,0.59-1.26,0.54-1.94c-0.05-0.72-0.86-1.52-1.81-1.64c-0.89-0.11-1.77,0.02-2.66,0.13c-0.48,0.06-0.47,0.09-0.38,0.48
		c0.27,1.19,0.54,2.39,0.81,3.59C125.07,180.84,125.27,181.59,125.47,182.39z M127.89,184.15c-0.47,0.09-0.95,0.23-1.41,0.44
		c-0.43,0.2-0.41,0.19-0.37,0.57c0.07,0.57,0.38,1.08,0.35,1.68c-0.01,0.25,0.15,0.3,0.49,0.16c0.92-0.37,1.82-0.77,2.64-1.27
		c0.37-0.23,0.74-0.49,0.9-0.89c0.16-0.42,0.15-0.48-0.28-0.63C129.49,183.96,128.73,183.85,127.89,184.15z M143.32,178.73
		c-0.03-0.71-0.23-1.45-0.66-2.31c-0.43-0.89-1.09-1.66-1.95-2.3c-1.34-0.99-2.73-1.24-4.25-0.78c-0.72,0.22-1.35,0.6-1.8,1.11
		c-0.83,0.92-1.34,2.03-1.51,3.3c-0.04,0.27-0.02,0.54-0.01,0.79c0.01,0.14,0.02,0.28,0.01,0.42c-0.01,0.99,0.26,2,0.81,3.08
		c0.5,0.98,1.32,1.82,2.43,2.49c0.7,0.42,1.44,0.63,2.22,0.63c0.34,0,0.68-0.04,1.03-0.12c0.6-0.13,1.08-0.34,1.47-0.64
		c1.03-0.81,1.61-1.57,1.88-2.46c0.26-0.85,0.4-1.57,0.43-2.26c0.01-0.2-0.02-0.39-0.05-0.57
		C143.35,178.98,143.33,178.85,143.32,178.73z M140.01,176.42c0.54,0.76,0.86,1.43,0.99,2.13l0,0c0.2,0.99,0.19,1.81-0.05,2.58
		c-0.12,0.39-0.31,0.76-0.56,1.06c-0.56,0.7-1.32,0.92-2.19,0.65c-0.66-0.21-1.17-0.61-1.65-1.3c-0.56-0.8-0.89-1.69-0.97-2.67
		c-0.07-0.8,0.06-1.58,0.4-2.34c0.16-0.36,0.45-0.7,0.86-0.99c0.31-0.23,0.65-0.34,1.03-0.34c0.16,0,0.32,0.02,0.49,0.06
		C139.03,175.43,139.57,175.81,140.01,176.42z M152.02,175.54c-0.03-0.09-0.07-0.18-0.09-0.28c-0.39-1.28-1.06-2.23-2.06-2.89
		c-1.18-0.79-2.57-0.79-3.73,0c-0.72,0.49-1.25,1.15-1.56,1.97c-0.23,0.6-0.36,1.18-0.42,1.76c-0.07,0.71-0.11,1.47,0.09,2.19
		c0.2,0.71,0.39,1.35,0.75,1.96c0.69,1.18,1.65,1.89,2.92,2.18c0.18,0.04,0.37,0.06,0.54,0.06c0.26,0,0.52-0.05,0.76-0.14
		c1.08-0.41,1.86-1.06,2.32-1.94c0.66-1.27,0.88-2.63,0.65-4.17C152.19,176.02,152.11,175.79,152.02,175.54z M150.08,178.61
		c-0.09,0.46-0.32,0.92-0.74,1.46c-0.29,0.38-1.05,0.46-1.52,0.16c-0.39-0.25-0.7-0.62-0.96-1.14c-0.55-1.1-0.69-2.27-0.42-3.48
		c0.1-0.45,0.32-0.89,0.64-1.3c0.25-0.32,0.53-0.5,0.83-0.53c0.03,0,0.07-0.01,0.1-0.01c0.29,0,0.6,0.13,0.91,0.39
		c0.73,0.6,1,1.44,1.16,2.18l0,0C150.25,177.03,150.25,177.77,150.08,178.61z M160.73,178.2c-0.19-0.17-0.39-0.35-0.62-0.5
		c-0.44-0.29-0.87-0.63-1.29-0.96c-0.35-0.28-0.72-0.57-1.1-0.84c-0.29-0.2-0.57-0.43-0.85-0.65c-0.28-0.23-0.58-0.46-0.88-0.68
		c-0.12-0.08-0.22-0.17-0.34-0.26l-0.01-0.01c0.38-0.43,0.75-0.84,1.11-1.25c0.05-0.05,0.11-0.1,0.16-0.15l0.04-0.04
		c0.31-0.28,0.59-0.6,0.86-0.9c0.15-0.17,0.29-0.33,0.44-0.49c0.07-0.07,0.13-0.16,0.19-0.27c0.21-0.4,0.15-0.82-0.17-1.11
		c-0.31-0.29-0.76-0.32-1.14-0.09c-0.17,0.1-0.31,0.24-0.44,0.38l-0.09,0.09c-0.33,0.32-0.64,0.67-0.95,1
		c-0.38,0.41-0.77,0.84-1.2,1.24c-0.05-0.28-0.12-0.56-0.19-0.83c-0.1-0.4-0.21-0.82-0.24-1.23c-0.01-0.08-0.02-0.17-0.05-0.25
		c-0.12-0.35-0.39-0.63-0.72-0.73c-0.32-0.1-0.66-0.03-0.93,0.18c-0.34,0.26-0.46,0.66-0.32,1.08c0.08,0.23,0.11,0.45,0.15,0.7
		c0.02,0.12,0.04,0.23,0.06,0.35c0.13,0.68,0.27,1.36,0.41,2.04c0.21,1.01,0.42,2.05,0.61,3.09c0.05,0.27,0.11,0.54,0.17,0.8
		c0.09,0.4,0.18,0.81,0.24,1.22c0.02,0.18,0.07,0.35,0.11,0.51c0.04,0.16,0.09,0.32,0.11,0.48c0.03,0.28,0.09,0.55,0.15,0.81
		c0.04,0.2,0.09,0.39,0.12,0.6c0.03,0.17,0.11,0.34,0.24,0.51c0.18,0.24,0.44,0.36,0.74,0.36c0.07,0,0.15-0.01,0.23-0.02
		c0.34-0.07,0.6-0.3,0.73-0.66c0.1-0.26,0.05-0.5,0.01-0.66c-0.08-0.33-0.14-0.67-0.2-1c-0.03-0.15-0.05-0.31-0.08-0.46
		c-0.05-0.3-0.12-0.59-0.18-0.88c-0.06-0.31-0.13-0.61-0.18-0.92c-0.07-0.38-0.14-0.75-0.22-1.15l-0.04-0.22l1.1,0.83
		c0.21,0.16,0.42,0.31,0.63,0.46c0.41,0.3,0.84,0.61,1.24,0.94c0.38,0.31,0.78,0.6,1.17,0.87c0.22,0.16,0.44,0.31,0.65,0.48
		c0.44,0.33,1.01,0.26,1.32-0.15c0.31-0.4,0.23-0.97-0.18-1.29C160.99,178.44,160.86,178.32,160.73,178.2z M166.9,175.49
		c-0.37-0.97-0.95-1.85-1.72-2.62c-0.29-0.28-0.61-0.53-0.91-0.77c-0.34-0.26-0.68-0.53-0.98-0.84c-0.13-0.14-0.18-0.29-0.15-0.46
		c0.07-0.35,0.25-0.56,0.54-0.61c0.52-0.11,0.89,0.02,1.15,0.38c0.13,0.18,0.29,0.34,0.5,0.49c0.17,0.13,0.35,0.18,0.55,0.17
		c0.28-0.02,0.51-0.17,0.63-0.39c0.14-0.25,0.13-0.56-0.03-0.86c-0.52-0.98-1.53-1.62-2.59-1.63c-0.01,0-0.02,0-0.03,0
		c-1.22,0-2.49,0.86-2.55,2.3c-0.05,1.38,1.01,2.27,2.04,3.12c0.73,0.61,1.49,1.25,1.8,2.04c0.03,0.07,0.05,0.15,0.07,0.22
		c0.09,0.32,0.09,0.59,0,0.82c-0.18,0.45-0.7,0.66-1.11,0.63c-0.48-0.02-0.79-0.26-1.15-0.55c-0.11-0.09-0.22-0.18-0.34-0.26
		c-0.41-0.29-0.92-0.24-1.22,0.11c-0.31,0.35-0.3,0.86,0.02,1.25c0.16,0.2,0.37,0.38,0.62,0.56c0.5,0.35,0.97,0.64,1.53,0.74
		c0.2,0.03,0.39,0.05,0.57,0.05c0.72,0,1.35-0.23,1.88-0.69c0.38-0.32,0.76-0.68,0.91-1.21
		C167.15,176.77,167.13,176.09,166.9,175.49z M132.33,202.25c1.16,0.47,2.34,0.85,3.51,1.22c0.58,0.18,1.16,0.38,1.72,0.58
		c0.27,0.1,0.53,0.21,0.74,0.4c0.38,0.34,0.46,0.77,0.25,1.21c-0.22,0.45-0.71,0.72-1.28,0.72c-0.31,0-0.6-0.06-0.88-0.15
		c-1.01-0.32-2.02-0.66-3.06-0.99c-0.84-0.27-1.69-0.52-2.62-0.8c0.5,1.46,0.75,2.93,1.2,4.34c0.09,0.29,0.13,0.59,0.04,0.91
		c-0.14,0.52-0.51,0.9-1.04,1.13c-0.51,0.22-1.14,0.09-1.43-0.28c-0.16-0.2-0.28-0.42-0.35-0.68c-0.45-1.77-0.92-3.53-1.37-5.3
		c-0.26-1.01-0.54-2.02-0.77-3.05c-0.2-0.92-0.54-1.79-0.77-2.7c-0.03-0.11-0.06-0.21-0.08-0.32c-0.25-1.47-0.78-2.86-1.16-4.29
		c-0.15-0.55-0.03-1.02,0.44-1.48c0.49-0.47,1.06-0.79,1.73-1c2.03-0.64,4.02-0.86,5.8,0.07c1.81,0.94,2.81,2.72,2.44,4.7
		c-0.15,0.79-0.34,1.59-0.66,2.36c-0.26,0.63-0.65,1.2-1.07,1.77C133.23,201.16,132.78,201.69,132.33,202.25z M129.89,201.19
		c0.38-0.36,0.75-0.66,1.04-1c1.15-1.34,2.01-2.75,1.96-4.38c-0.03-1.17-0.76-2.22-2.43-2.28c-0.62-0.02-1.26,0.08-1.89,0.24
		c-0.92,0.24-0.56,0.56-0.37,1.21c0.4,1.43,0.81,2.88,1.13,4.33C129.47,199.93,129.62,200.54,129.89,201.19z M140.99,189.01
		c0.59-0.26,1.11-0.35,1.61-0.47c0.61-0.15,1.1,0.09,1.29,0.61c0.19,0.54-0.03,1.08-0.63,1.3c-0.48,0.17-0.96,0.38-1.48,0.5
		c-0.67,0.16-1.32,0.43-1.99,0.65c-0.14,0.05-0.2,0.14-0.16,0.27c0.26,0.86,0.46,3.59,1.68,3.34c0.41-0.08,0.81-0.16,1.19-0.37
		c0.41-0.23,1-0.03,1.22,0.32c0.28,0.43,0.22,0.99-0.14,1.38c-0.19,0.21-0.43,0.36-0.7,0.43c-0.38,0.1-0.77,0.2-1.15,0.31
		c-0.33,0.09-0.4,0.15-0.3,0.45c0.26,0.76,0.41,1.56,0.67,2.32c0.21,0.62,0.43,1.22,0.57,1.86c0.11,0.51,0.2,0.53,0.73,0.33
		c0.7-0.27,1.33-0.68,1.99-0.98c0.28-0.12,0.54-0.18,0.83-0.15c0.65,0.08,1.06,0.78,0.56,1.55c-0.19,0.3-0.45,0.52-0.76,0.65
		c-1.12,0.49-2.22,1.13-3.4,1.64c-0.7,0.3-1.38,0.02-1.57-0.61c-0.36-1.18-0.76-2.34-1.11-3.52c-0.24-0.81-0.54-1.59-0.79-2.39
		c-0.11-0.33-0.16-0.69-0.26-1.03c-0.62-1.99-1.43-3.98-1.84-6.01c-0.13-0.64,0.15-1.07,0.82-1.39c0.62-0.3,1.27-0.47,1.91-0.67
		C140.22,189.2,140.66,189.09,140.99,189.01z M156.41,197.46c-0.07-0.14-0.16-0.31-0.26-0.48c-0.13-0.22-0.27-0.44-0.41-0.66
		c-0.22-0.34-0.44-0.7-0.64-1.07c-0.1-0.19-0.21-0.37-0.32-0.56c-0.22-0.37-0.42-0.71-0.56-1.11c-0.06-0.19-0.19-0.31-0.3-0.42
		c-0.07-0.07-0.14-0.14-0.19-0.22l-2.44-4.09c-0.21-0.36-0.43-0.72-0.65-1.08c-0.11-0.17-0.24-0.34-0.4-0.5
		c-0.45-0.46-1.29-0.54-1.77-0.18c-0.31,0.24-0.38,0.57-0.41,0.87c-0.06,0.54-0.06,1.1-0.07,1.63c0,0.17,0,0.34-0.01,0.52
		c-0.01,0.54-0.03,1.08-0.05,1.62c-0.02,0.5-0.04,1-0.05,1.5c-0.03,1.57-0.06,3.15-0.09,4.75l-0.03,1.69
		c-0.01,0.44-0.02,0.89-0.01,1.33c0.01,0.39,0.13,0.69,0.36,0.89c0.17,0.15,0.4,0.23,0.66,0.23c0.05,0,0.09,0,0.14-0.01
		c0.6-0.06,1.02-0.58,1.05-1.3c0.01-0.16,0.01-0.32,0.01-0.49c0-0.11,0-0.23,0-0.34c0.01-0.61,0.03-1.22,0.04-1.83l0.02-1
		c0-0.16,0.06-0.24,0.2-0.34c0.49-0.32,1-0.61,1.49-0.88l0.42-0.24c0.11-0.06,0.24-0.11,0.37-0.16c0.07-0.02,0.13-0.05,0.2-0.07
		c0.04-0.02,0.04-0.02,0.08,0.05l0.19,0.29c0.39,0.59,0.79,1.21,1.13,1.84c0.24,0.44,0.48,0.89,0.84,1.24
		c0.36,0.36,0.83,0.4,1.21,0.09c0.26-0.21,0.53-0.62,0.33-1.36L156.41,197.46z M151.62,193.57c0,0-0.01,0.02-0.07,0.04
		c-0.38,0.17-0.75,0.35-1.16,0.55l-0.29,0.14l0.04-3.09c0.15,0.23,0.3,0.46,0.45,0.68c0.36,0.53,0.7,1.03,0.99,1.58
		C151.62,193.55,151.62,193.57,151.62,193.57z M161.18,186.19c-0.79-0.84-1.71-1.39-2.8-1.68c-1-0.27-2.05-0.23-3.11,0.11
		c-0.38,0.12-0.8,0.44-0.69,1.27c0.07,0.51,0.22,0.99,0.36,1.46c0.06,0.21,0.13,0.42,0.19,0.63c0.2,0.73,0.42,1.47,0.63,2.19
		c0.09,0.29,0.17,0.58,0.26,0.86l0.88,2.97l-0.01,0.01l1.01,3.42c0.12,0.4,0.35,0.7,0.73,0.95c0.15,0.1,0.32,0.15,0.48,0.15
		c0.14,0,0.28-0.04,0.42-0.11c0.27-0.14,0.61-0.34,0.9-0.67c0.29-0.33,0.55-0.62,0.78-0.97c1.03-1.56,1.6-2.88,1.86-4.3
		c0.21-1.18,0.13-2.35-0.25-3.57C162.48,187.9,161.95,187.01,161.18,186.19z M156.8,186.69c-0.02-0.07-0.05-0.2-0.06-0.21
		c0.02-0.02,0.11-0.05,0.2-0.07c0.1-0.03,0.19-0.05,0.28-0.05c0.06,0,0.12,0.01,0.18,0.02c0.13,0.03,0.26,0.05,0.39,0.08
		c0.18,0.03,0.35,0.07,0.52,0.11c1.29,0.35,2.19,1.25,2.77,2.73c0.33,0.85,0.42,1.75,0.28,2.69c-0.08,0.53-0.24,1.08-0.5,1.66
		c-0.36,0.82-0.83,1.56-1.41,2.21c-0.01,0.01-0.01,0.02-0.02,0.02c-0.03-0.06-0.05-0.14-0.07-0.22l-0.02-0.06
		c-0.16-0.62-0.34-1.24-0.52-1.85c-0.18-0.61-0.37-1.23-0.53-1.86c-0.07-0.28-0.16-0.57-0.25-0.84c-0.05-0.16-0.11-0.33-0.16-0.49
		c-0.14-0.46-0.26-0.93-0.39-1.4c-0.08-0.32-0.17-0.64-0.26-0.95c-0.07-0.23-0.14-0.47-0.21-0.7
		C156.95,187.24,156.87,186.97,156.8,186.69z M168.83,191.72c-0.19-0.05-0.39-0.03-0.61,0.07c-0.17,0.08-0.34,0.17-0.5,0.27
		c-0.21,0.12-0.43,0.25-0.66,0.33c-0.12,0.05-0.17,0.05-0.17,0.06c-0.01-0.01-0.04-0.06-0.08-0.24c-0.1-0.44-0.24-0.87-0.38-1.28
		l-0.05-0.17c-0.1-0.29-0.17-0.59-0.25-0.88c-0.08-0.29-0.16-0.6-0.26-0.9c-0.02-0.05-0.02-0.08-0.03-0.1
		c0.01-0.01,0.04-0.01,0.07-0.02c0.23-0.06,0.46-0.11,0.68-0.17c0.2-0.05,0.36-0.16,0.5-0.34c0.24-0.32,0.26-0.81,0.04-1.21
		c-0.11-0.2-0.32-0.37-0.54-0.42c-0.16-0.04-0.32-0.02-0.45,0.05c-0.19,0.12-0.41,0.15-0.65,0.19c-0.01,0-0.02,0-0.03,0
		c-0.4,0-0.67-1.23-0.82-1.9c-0.05-0.23-0.1-0.44-0.15-0.58c0.12-0.04,0.24-0.09,0.36-0.13c0.27-0.1,0.53-0.2,0.79-0.26
		c0.24-0.05,0.46-0.14,0.68-0.23c0.07-0.03,0.14-0.06,0.22-0.09c0.42-0.16,0.6-0.64,0.42-1.16c-0.17-0.49-0.56-0.73-1-0.63
		c-0.06,0.02-0.12,0.03-0.19,0.04c-0.25,0.05-0.5,0.11-0.78,0.25l-0.18,0.05c-0.16,0.04-0.35,0.09-0.53,0.15l-0.2,0.06
		c-0.31,0.1-0.64,0.2-0.94,0.37c-0.46,0.25-0.62,0.64-0.5,1.18c0.24,1.06,0.59,2.13,0.92,3.16c0.16,0.48,0.31,0.96,0.46,1.44
		c0.04,0.12,0.07,0.25,0.1,0.38c0.03,0.14,0.07,0.27,0.11,0.4c0.08,0.25,0.16,0.5,0.24,0.75c0.12,0.36,0.24,0.71,0.34,1.08
		c0.15,0.52,0.31,1.03,0.47,1.55c0.12,0.38,0.24,0.76,0.35,1.14c0.09,0.3,0.28,0.54,0.53,0.66c0.11,0.05,0.22,0.07,0.33,0.07
		c0.11,0,0.22-0.02,0.32-0.07c0.36-0.15,0.7-0.34,1.04-0.52c0.33-0.17,0.64-0.34,0.96-0.48c0.22-0.09,0.4-0.27,0.52-0.52
		c0.15-0.31,0.16-0.65,0.03-0.95C169.26,191.96,169.06,191.79,168.83,191.72z M174.76,189.21c-0.14-0.16-0.29-0.26-0.42-0.33
		c-0.28-0.16-0.56-0.32-0.84-0.46c-0.52-0.27-1.03-0.55-1.54-0.87l0.09-0.19c0.11-0.22,0.21-0.44,0.31-0.67
		c0.18-0.43,0.29-0.77,0.36-1.12c0.1-0.53,0.11-1.07,0.12-1.53c0.01-1.29-0.58-2.53-1.54-3.24c-0.8-0.59-1.67-0.66-2.72-0.22
		c-0.32,0.14-0.56,0.35-0.74,0.65c-0.18,0.3-0.21,0.64-0.09,1.05c0.1,0.32,0.2,0.64,0.31,0.96c0.19,0.58,0.39,1.17,0.53,1.77
		c0.01,0.05,0.03,0.09,0.04,0.13l0.02,0.08c0.08,0.26,0.16,0.52,0.25,0.78c0.1,0.31,0.21,0.63,0.3,0.94
		c0.14,0.51,0.29,1.02,0.45,1.53l0.55,1.84c0.2,0.65,0.39,1.31,0.59,1.97c0.05,0.17,0.12,0.33,0.22,0.49
		c0.15,0.23,0.39,0.37,0.62,0.37c0.08,0,0.16-0.02,0.24-0.05c0.2-0.1,0.44-0.31,0.46-0.78c0.01-0.2-0.02-0.41-0.1-0.63
		c-0.14-0.42-0.27-0.85-0.39-1.27c-0.11-0.38-0.22-0.76-0.35-1.15l0.08,0.04c0.27,0.14,0.53,0.28,0.79,0.41
		c0.25,0.13,0.49,0.26,0.73,0.4c0.25,0.13,0.49,0.27,0.73,0.4c0.16,0.09,0.32,0.14,0.47,0.16c0.34,0.04,0.62-0.15,0.71-0.51
		C175.08,189.82,175,189.49,174.76,189.21z M170.83,186.17c-0.05,0.11-0.12,0.21-0.2,0.32c-0.12-0.32-0.2-0.63-0.28-0.91
		c-0.26-0.94-0.55-1.88-0.84-2.79c-0.03-0.08-0.05-0.16-0.08-0.22c-0.04-0.1-0.09-0.24-0.07-0.27c0,0,0.01-0.03,0.11-0.06
		c0.21-0.07,0.4-0.1,0.58-0.1c0.06,0,0.11,0,0.16,0.01c0.87,0.1,1.08,1.1,1.12,1.4C171.47,184.41,171.31,185.22,170.83,186.17z
		 M118.72,152.86c7.37-1.58,14.82-2.8,22.25-4.07c8.3-1.41,16.61-2.78,24.91-4.18c2.66-0.45,5.33-0.88,7.98-1.4
		c0.88-0.17,0.51-1.52-0.37-1.34c-5.94,1.17-11.95,2.06-17.92,3.06c-8.71,1.45-17.42,2.9-26.11,4.46c-3.71,0.66-7.42,1.33-11.1,2.12
		C117.48,151.71,117.85,153.05,118.72,152.86L118.72,152.86z M121.68,155.31c6.29-1.27,12.64-2.28,18.96-3.37
		c8.27-1.44,16.55-2.85,24.82-4.3c2.34-0.41,4.69-0.78,7.02-1.26c0.88-0.18,0.51-1.53-0.37-1.34c-5.63,1.16-11.34,2.02-17.01,3
		c-8.46,1.46-16.92,2.91-25.37,4.4c-2.81,0.5-5.63,0.97-8.42,1.54C120.43,154.14,120.8,155.49,121.68,155.31L121.68,155.31z
		 M184.49,212.23c-0.94-0.98-2.37-1.08-3.43-0.23c-0.07,0.05-0.13,0.11-0.2,0.16c-0.03-0.07-0.06-0.14-0.09-0.21
		c-0.49-1.18-1.99-1.87-3.18-1.31c-1.19,0.56-1.75,1.89-1.31,3.18c0.74,2.19,2.73,4.53,3.03,4.6c0.29,0.07,3.53-1.42,4.95-2.77
		C185.19,214.79,185.37,213.16,184.49,212.23z M189.21,202.48c-0.87-0.21-1.7,0.24-1.98,1.08c-0.02,0.05-0.04,0.1-0.05,0.16
		c-0.04-0.03-0.08-0.06-0.12-0.08c-0.69-0.48-1.76-0.33-2.22,0.4c-0.46,0.73-0.3,1.66,0.4,2.22c1.18,0.95,3.11,1.54,3.3,1.48
		c0.19-0.06,1.45-2.03,1.76-3.28C190.5,203.65,190.03,202.69,189.21,202.48z"/>
</g>
</svg>
