<?xml version="1.0" encoding="utf-8"?>
<!-- Generator: Adobe Illustrator 28.0.0, SVG Export Plug-In . SVG Version: 6.00 Build 0)  -->
<svg version="1.1" id="Layer_1" xmlns="http://www.w3.org/2000/svg" xmlns:xlink="http://www.w3.org/1999/xlink" x="0px" y="0px"
	 viewBox="0 0 300 300" style="enable-background:new 0 0 300 300;" xml:space="preserve">
<style type="text/css">
	.st0{fill:#010101;}
</style>
<g>
	<g>
		<path class="st0" d="M70.05,76.25c0-8.51-3.15-11.88-4.77-12.4v-0.81h23.91v0.81c-1.61,0.51-4.77,3.89-4.77,12.4v24.94
			c0,8.51,3.15,11.88,4.77,12.4v0.81H65.28v-0.81c1.61-0.51,4.77-3.89,4.77-12.4V76.25z"/>
		<path class="st0" d="M130.41,101.19c0,8.51,2.2,11.88,3.37,12.4v0.81h-20.02v-0.81c1.1-0.51,3.3-3.89,3.3-12.4v-9.09
			c0-4.25-1.32-7.85-4.03-7.85c-2.93,0-4.33,2.93-4.33,8.58v8.36c0,8.51,2.2,11.88,3.37,12.4v0.81H90.59v-0.81
			c1.61-0.51,4.77-3.89,4.77-12.4v-3.08c0-6.01-1.91-8.43-5.79-9.75V87.4c6.09-1.1,13.06-8.95,16.5-8.95c2.42,0,2.64,3.08,2.64,5.28
			v0.15c2.49-2.86,6.01-5.28,11.08-5.28c7.92,0,10.64,6.67,10.64,12.69V101.19z"/>
	</g>
	<g>
		<path class="st0" d="M207.44,101.61c0,8.51,2.2,11.88,3.37,12.4v0.81h-20.02v-0.81c1.1-0.51,3.3-3.89,3.3-12.4v-9.09
			c0-4.25-1.32-7.85-4.03-7.85c-2.93,0-4.33,2.93-4.33,8.58v8.36c0,8.51,2.2,11.88,3.37,12.4v0.81h-20.02v-0.81
			c1.1-0.51,3.3-3.89,3.3-12.4v-9.09c0-4.25-1.32-7.85-4.03-7.85c-2.93,0-4.33,2.93-4.33,8.58v8.36c0,8.51,2.2,11.88,3.37,12.4v0.81
			H145.9v-0.81c1.61-0.51,4.77-3.89,4.77-12.4v-3.08c0-6.01-1.91-8.43-5.79-9.75v-0.95c6.09-1.1,13.06-8.95,16.5-8.95
			c2.42,0,2.64,3.08,2.64,5.28v0.15c2.49-2.86,6.01-5.28,11.08-5.28c5.21,0,8.21,2.93,9.61,6.6c2.49-3.45,6.31-6.6,12.1-6.6
			c7.92,0,10.64,6.67,10.64,12.69V101.61z"/>
		<path class="st0" d="M248.08,81.15c-1.61,0.51-6.38,3.59-9.32,11.59l-12.47,34.11c-2.13,5.87-6.31,9.09-11.15,9.09
			c-4.25,0-7.7-3.45-7.7-7.7s3.45-7.7,7.7-7.7c4.99,0,5.79,3.59,7.7,3.59c0.95,0,1.61-1.61,2.05-2.86l2.35-6.45h-5.79l-6.97-21.93
			c-2.64-8.07-6.53-11.22-7.85-11.74v-0.81h23.47v0.81c-1.61,0.51-3.37,3.67-0.73,11.81l2.71,8.58l3.23-8.8
			c2.93-8,1.39-11.08-0.22-11.59v-0.81h12.98V81.15z"/>
	</g>
	<g>
		<path class="st0" d="M61.48,156c0,11.15-5.21,21.05-16.5,21.05c-2.42,0-4.4-0.66-5.94-1.61c-2.05-1.32-2.49-1.25-3.08-0.07H17.77
			v-0.81c1.61-0.51,4.77-3.89,4.77-12.4l0.07-23.91c0-6.01-1.91-8.43-5.79-9.76v-0.95c6.09-1.1,13.06-8.87,16.5-8.87
			c2.79,0,2.64,3.01,2.64,5.21v20.02c2.35-2.71,5.65-4.47,9.9-4.47C52.9,139.43,61.48,144.86,61.48,156z M46.88,158.79
			c0-10.86-1.61-15.26-5.43-15.26c-2.71,0-5.5,2.13-5.5,12.91v1.32c0,10.78,1.47,16.21,5.5,16.21
			C45.27,173.97,46.88,169.57,46.88,158.79z"/>
		<path class="st0" d="M62.95,158.28c0-10.42,8.21-18.85,18.85-18.85c10.56,0,18.78,8.43,18.78,18.85
			c0,10.42-8.21,18.78-18.78,18.78C71.17,177.05,62.95,168.69,62.95,158.28z M87.6,157.47c-1.39-10.05-4.4-15.48-8-14.96
			c-3.67,0.51-5.06,6.6-3.74,16.58c1.47,10.05,4.47,15.4,8.14,14.82C87.52,173.46,88.99,167.45,87.6,157.47z"/>
		<path class="st0" d="M102.41,158.28c0-10.42,8.21-18.85,18.85-18.85c10.56,0,18.78,8.43,18.78,18.85
			c0,10.42-8.21,18.78-18.78,18.78C110.63,177.05,102.41,168.69,102.41,158.28z M127.06,157.47c-1.39-10.05-4.4-15.48-8-14.96
			c-3.67,0.51-5.06,6.6-3.74,16.58c1.47,10.05,4.47,15.4,8.14,14.82C126.99,173.46,128.45,167.45,127.06,157.47z"/>
		<path class="st0" d="M181.56,174.63v0.73c-1.32,1.1-4.33,1.76-6.67,1.76c-7.26,0-9.02-4.25-9.02-11.08
			c0-6.82-1.17-11.95-4.18-11.95c-2.2,0-3.74,1.61-4.11,7.04v1.03c0,8.51,3.15,11.88,4.77,12.4v0.81h-22.96v-0.81
			c1.61-0.51,4.77-3.89,4.77-12.4l0.07-23.91c0-6.01-1.91-8.43-5.79-9.76v-0.95c6.09-1.1,13.06-8.87,16.5-8.87
			c2.79,0,2.64,3.01,2.64,5.21v27.5c9.53-9.02,24.5-28.02,32.57-28.02c5.28,0,8.29,2.57,8.29,7.11c0,4.18-1.98,7.48-6.45,7.48
			c-3.89,0-4.77-2.13-7.77-2.13c-6.01,0-13.5,7.04-20.83,14.45c1.54-0.29,3.3-0.44,5.28-0.44c6.31,0,10.56,6.67,10.56,13.06v4.69
			C179.21,170.38,179.65,173.97,181.56,174.63z M200.7,162.16c0,8.51,3.15,11.88,4.77,12.4v0.81h-22.88v-0.81
			c1.61-0.51,4.77-3.89,4.77-12.4v-3.08c0-6.01-1.91-8.43-5.79-9.75v-0.95c6.09-1.1,13.06-8.95,16.5-8.95
			c2.42,0,2.64,3.08,2.64,5.28V162.16z"/>
		<path class="st0" d="M210.68,161.72c2.64,0,5.65,1.39,5.65,3.81c0,2.27-2.2,3.37-2.2,4.77c0,1.83,2.42,3.81,7.41,3.81
			c4.11,0,6.38-1.32,6.38-4.03c0-7.04-21.86-7.92-21.86-20.32c0-5.79,8.66-10.27,17.38-10.27c8.21,0,14.01,3.15,14.01,6.31
			c0,1.61-1.54,3.74-3.45,4.11l-0.73-0.37c0-3.45-3.23-7.11-7.63-7.11c-2.49,0-5.65,1.17-5.65,3.52c0,5.21,19.73,8.07,19.73,19.36
			c0,7.7-8.66,11.74-17.68,11.74c-6.45,0-17.31-2.86-17.31-9.32C204.74,164.44,207.31,161.72,210.68,161.72z"/>
		<path class="st0" d="M287.99,175.07v1.32c-1.61,4.33-6.67,9.39-12.91,9.39c-7.26,0-9.02-8.07-9.02-14.89l0.07-17.82
			c0-4.25-1.32-7.85-4.03-7.85c-2.93,0-6.01,5.72-6.01,12.54v4.4c0,8.51,3.15,11.88,4.77,12.4v0.81H237.9v-0.81
			c1.61-0.51,4.77-3.89,4.77-12.4l0.07-23.91c0-6.01-1.91-8.43-5.79-9.76v-0.95c6.09-1.1,13.06-8.87,16.5-8.87
			c2.79,0,2.64,3.01,2.64,5.21v22.44c1.83-3.52,4.55-6.75,9.32-6.75C280.22,139.57,274.2,166.64,287.99,175.07z"/>
	</g>
	<g>
		<path class="st0" d="M189.04,213.71c-1.76,4.62-7.48,9.98-15.11,9.98c-12.1,0-20.32-8.36-20.32-18.78
			c0-10.42,8.21-18.85,18.85-18.85c10.41,0,15.4,6.09,16.94,15.48c0.37,2.42-0.66,4.55-5.57,4.55c-12.03,0.22-20.1,2.49-14.16,10.27
			c4.47,5.79,10.12,4.4,12.32-2.64H189.04z M167.25,204.9v0.59c7.55-3.52,9.9-1.39,9.9-7.78c0-6.45-2.05-8.73-5.21-8.73
			C168.43,188.99,167.25,194.78,167.25,204.9z"/>
		<path class="st0" d="M230.19,192.88c0,4.84-3.96,8.73-8.73,8.73c-4.4,0-7.26-3.89-7.26-7.77c0-0.88,0.15-1.69,0.44-2.57
			c0.37-1.32,0.51-1.91-0.95-0.88c-1.91,1.54-3.52,4.33-3.52,8.29v10.12c0,8.51,3.15,11.88,4.77,12.4v0.81h-22.88v-0.81
			c1.61-0.51,4.77-3.89,4.77-12.4v-3.08c0-6.01-1.91-8.43-5.79-9.76V195c6.09-1.1,13.06-8.95,16.5-8.95c2.35,0,2.64,2.86,2.64,4.99
			c2.05-3.3,4.91-6.89,11.3-6.89C226.23,184.15,230.19,188.11,230.19,192.88z"/>
		<path class="st0" d="M280.8,233.51c0,7.04-7.34,9.24-13.13,9.24c-12.47,0-17.02-9.46-17.02-22.44v-1.03
			c-0.37,0.07-0.66,0.22-1.1,0.51c-2.49,2.2-5.65,3.96-8.87,3.96c-7.63,0-13.42-5.87-13.42-13.13c0-7.85,7.04-14.08,15.7-14.08
			c3.08,0,5.65,0.59,7.63,1.76c-0.44-5.79-2.13-9.31-6.6-9.31c-4.33,0-7.04,3.45-7.04,6.53l-1.69,0.66
			c-1.69-0.66-2.57-1.61-2.57-3.52c0-3.89,5.72-6.6,11.95-6.6c13.2,0,19.44,7.11,19.44,17.09v2.42c0,2.42,0,5.72,0,7.41v16.94
			c0,4.55,1.39,9.9,4.47,9.9c1.17,0,1.91-0.22,1.91-0.73c0-1.32-2.79-1.98-2.79-6.01c0-3.67,3.15-6.38,6.75-6.38
			S280.8,229.91,280.8,233.51z M244.57,219.5c0.81,0,1.91-0.59,3.01-1.61c2.86-3.01,3.08-6.31,3.08-11.52v-4.55
			c-1.17-0.88-2.71-1.47-4.18-1.47c-3.74,0-5.79,2.64-5.79,9.24C240.68,215.47,242.37,219.5,244.57,219.5z"/>
	</g>
	<path d="M204.15,239.08c-0.7-0.72-1.45-1.41-2.17-2.09c-0.35-0.33-0.71-0.66-1.06-0.99c-0.11-0.11-0.25-0.25-0.35-0.42
		c-0.76-1.27-1.65-2.77-2.54-4.31c-0.11-0.19-0.15-0.39-0.12-0.45c0.36-0.83-0.05-1.33-0.54-1.74c-1.07-0.9-2.14-1.82-3.22-2.74
		l-0.68-0.59c-0.03-0.03-0.07-0.04-0.11-0.04h-1.32c-1.68,0-3.16-1.15-3.58-2.79c-0.02-0.07-0.07-0.11-0.14-0.12l-0.26-0.03
		c-0.23-0.02-0.46-0.05-0.69-0.07l-0.46-0.05c-0.04-0.01-0.09,0.01-0.12,0.04c-0.54,0.45-1.06,0.83-1.58,1.19
		c-0.06,0.04-0.08,0.11-0.07,0.17c0.02,0.07,0.07,0.11,0.14,0.12l0.38,0.04c0.19,0.02,0.38,0.04,0.58,0.06
		c0.88,0.08,1.53,0.57,2.22,1.08l0.04,0.03c0.24,0.18,0.46,0.42,0.69,0.77c-0.16-0.03-0.32-0.06-0.48-0.09
		c-0.61-0.12-1.24-0.24-1.87-0.3c-0.76-0.08-1.52-0.16-2.28-0.24c-0.61-0.07-1.21-0.13-1.82-0.19c-0.03-0.01-0.06,0-0.09,0.02
		c-0.98,0.48-1.87,0.84-2.75,1.12c-0.07,0.02-0.12,0.09-0.11,0.17c0.01,0.08,0.07,0.14,0.15,0.14c1.17,0.11,2.33,0.22,3.5,0.33
		l2.01,0.19c1.17,0.11,2.34,0.33,3.48,0.55c0.52,0.1,1.04,0.2,1.57,0.29l0.04,0.01c0.03,0.01,0.07,0.02,0.1,0.02
		c0.08,0.01,0.16,0.02,0.25,0.03c0.46,0.06,1.03,0.14,1.35-0.47c0.13-0.26,0.13-0.47,0.07-0.66l2.64,2.26
		c-0.24,0-0.48,0.01-0.72,0.01c-0.61,0.01-1.24,0.02-1.85-0.02c-1.17-0.07-2.34-0.15-3.5-0.22c-3.87-0.24-7.87-0.49-11.79-0.83
		c-7.1-0.61-14.15-0.7-22.55-0.66c-1.5,0.01-3,0-4.5-0.01c-2.83-0.02-5.76-0.04-8.64,0.06c-3.77,0.13-7.6,0.41-11.3,0.69l-2.09,0.15
		c-4.55,0.33-9.44,0.98-14.94,1.97c-0.22,0.04-0.45,0.05-0.69,0.06c-0.08,0-0.16,0.01-0.23,0.01l-0.02-0.03
		c0.05-0.05,0.09-0.1,0.13-0.15c0.15-0.17,0.29-0.33,0.45-0.43c2.76-1.53,5.26-2.46,7.65-2.83c3.18-0.49,6.27-0.79,9.2-0.89
		c6.34-0.21,12.59-0.31,18.54-0.3c5.2,0.01,10.61,0.08,16.53,0.19c0.07,0,0.15-0.05,0.16-0.13c0.01-0.08-0.03-0.16-0.1-0.18
		c-1.12-0.41-2.21-0.92-3.35-1.54c-0.02-0.01-0.05-0.02-0.08-0.02l-0.63-0.02c-0.34-0.01-0.67-0.02-1.01-0.02
		c-7.47-0.09-15.06-0.01-22.41,0.07l-1.02,0.01c-2.66,0.03-5.37,0.14-7.99,0.25c-0.42,0.02-0.84,0.04-1.26,0.05
		c0.08-0.01,0.15-0.02,0.23-0.04c1.85-0.29,3.77-0.6,5.67-0.84c7.52-0.94,15.55-1.34,25.26-1.23c0,0,0,0,0,0
		c0.07,0,0.13-0.04,0.15-0.11c0.02-0.07,0-0.14-0.05-0.18c-0.57-0.45-1.12-0.93-1.64-1.43c-0.03-0.03-0.07-0.05-0.11-0.05h0l-0.17,0
		c-1.17,0-2.39,0.01-3.58,0.04c-5.88,0.15-11.03,0.4-15.73,0.78c-7.17,0.58-12.97,1.6-18.17,3.18c0.16-0.07,0.32-0.14,0.48-0.2
		c0.99-0.42,2.01-0.85,3.02-1.23c4.87-1.79,10.38-3.18,17.33-4.4c4.34-0.76,8.92-1.35,13.62-1.76c0.06-0.01,0.11-0.04,0.13-0.09
		c0.02-0.05,0.02-0.11-0.01-0.16c-0.25-0.39-0.55-0.85-0.81-1.33c-0.03-0.06-0.11-0.1-0.16-0.08c-10.34,0.95-19.25,2.59-27.21,5.01
		c-2.96,0.9-5.45,1.85-7.65,2.91c0.45-0.27,0.9-0.53,1.36-0.78c4.55-2.45,9.72-4.4,16.27-6.13c5.09-1.35,10.37-2.36,16.14-3.1
		c0.05-0.01,0.09-0.04,0.12-0.08c0.03-0.04,0.03-0.1,0.01-0.14l-0.08-0.19c-0.15-0.38-0.31-0.78-0.44-1.18
		c-0.02-0.08-0.1-0.13-0.18-0.11c-2.14,0.29-3.92,0.56-5.61,0.86c-10.57,1.88-18.45,4.27-25.53,7.75c-3.63,1.79-6.33,3.63-8.49,5.8
		l-0.1,0.09c-0.35,0.35-0.71,0.71-0.98,1.14c-0.41,0.66-0.79,0.82-1.36,0.55c0.03-0.05,0.07-0.11,0.11-0.16
		c0.15-0.23,0.3-0.46,0.46-0.68c1.98-2.67,4.58-5.02,8.42-7.64c5.98-4.06,12.8-7.4,21.46-10.51c3.55-1.27,7.13-2.38,10.64-3.31
		c0.07-0.02,0.12-0.08,0.12-0.16c0-0.08-0.01-0.16-0.01-0.23c-0.01-0.08-0.01-0.17-0.01-0.25c0-0.19,0.01-0.37,0.02-0.56
		c0.01-0.12,0.02-0.25,0.02-0.37c0-0.05-0.02-0.1-0.06-0.13c-0.04-0.03-0.09-0.05-0.14-0.03l-0.61,0.16
		c-0.61,0.16-1.21,0.31-1.81,0.48c-10.14,2.81-18.9,6.42-26.77,11.05c-4.74,2.79-8.24,5.47-11,8.45c-0.41,0.44-0.79,0.9-1.2,1.38
		c-0.11,0.14-0.23,0.28-0.35,0.42c-0.01-0.08-0.01-0.16-0.01-0.24c0-0.56,0-1.11,0-1.67c0-1.21,0.01-2.45-0.02-3.68
		c-0.01-0.57,0.14-1.05,0.51-1.56c1.79-2.52,3.96-4.79,6.63-6.94c10.74-8.66,22.96-14.53,36.32-17.44c0.38-0.08,0.76-0.17,1.15-0.25
		c0.05-0.01,0.09-0.04,0.11-0.08c0.28-0.52,0.59-1.03,0.91-1.52c0.03-0.05,0.04-0.12,0-0.18c-0.03-0.05-0.1-0.08-0.16-0.07
		c-3.61,0.52-7.24,1.41-11.1,2.73c-0.88,0.3-1.76,0.61-2.63,0.92l-1.21,0.43c-0.01,0-0.03,0-0.04,0.01l-1.25,0.48
		c-0.5,0.19-0.93,0.36-0.95,0.36c-0.02,0.01-0.03,0.01-0.05,0.02c-0.13,0.07-1.98,0.87-2.98,1.29c-0.47,0.2-0.82,0.35-0.84,0.36
		l-0.59,0.29c-4.04,1.97-14.77,7.21-24.66,18.35c-0.07,0.08-0.32,0.06-0.44-0.02c-0.22-0.16-0.44-0.3-0.66-0.44
		c-0.25-0.16-0.51-0.32-0.74-0.5c-0.07-0.05-0.13-0.12-0.18-0.18c-0.03-0.03-0.06-0.07-0.1-0.1c-0.02-0.03-0.07-0.05-0.08-0.04
		c-11.09-8.28-25.66-15.05-43.31-20.13c-0.01,0-0.03-0.01-0.04-0.01c-0.07-0.01-0.4-0.09-0.78-0.17c-1.19-0.27-3.42-0.77-4.68-0.95
		c-1.47-0.21-3.3-0.47-5.03,0.11c-3.29,1.11-6.7,2.26-10.08,3.5c-2.24,0.82-4.49,1.72-6.66,2.59c-0.68,0.27-1.35,0.54-2.03,0.81
		c-0.81,0.32-1.62,0.69-2.4,1.04l-0.11,0.05c-0.72,0.33-0.76,0.83-0.66,1.19c0.18,0.68,0.82,0.65,1.12,0.64l0.6-0.03
		c0.42-0.02,0.84-0.05,1.26-0.06c0.25-0.01,0.49-0.01,0.78-0.01c-0.28,0.15-0.52,0.28-0.77,0.4l-6.25,3.22
		c-0.17,0.09-0.35,0.18-0.51,0.28c-0.49,0.29-0.66,0.73-0.45,1.22c0.14,0.33,0.46,0.68,1.2,0.46c0.76-0.22,1.52-0.43,2.28-0.64
		l0.65-0.18c-0.12,0.09-0.24,0.18-0.34,0.28l-0.73,0.69c-1.83,1.73-3.65,3.45-5.47,5.19c-0.57,0.55-0.59,0.97-0.09,1.61
		c0.5,0.64,1.06,0.41,1.5,0.14c0.3-0.19,0.62-0.36,0.92-0.52c0.01,0,0.01-0.01,0.02-0.01c-0.05,0.07-0.1,0.13-0.15,0.19l-0.75,0.92
		c-1.37,1.67-2.73,3.35-4.1,5.02c-0.2,0.25-0.63,0.77-0.22,1.34c0.29,0.41,0.68,0.59,1.12,0.54c-0.05,0.05-0.11,0.09-0.17,0.14
		l-1.33,1.03c-0.79,0.61-1.58,1.22-2.36,1.84c-0.21,0.16-0.44,0.35-0.61,0.59c-0.34,0.49-0.66,0.99-0.99,1.5
		c-0.24,0.37-0.48,0.74-0.73,1.11c-0.35,0.52-0.7,1.04-1.05,1.56c-0.71,1.05-1.44,2.14-2.14,3.23c-0.17,0.27-0.24,0.6-0.31,0.94
		c-0.03,0.15-0.06,0.3-0.1,0.45c-0.81,0.42-1.43,1.17-1.76,2.13c-0.22,0.64-0.17,1.23,0.14,1.66c0.31,0.43,0.82,0.67,1.51,0.65
		c0.95-0.01,1.92-0.05,2.85-0.08l9.17-0.32c4.2-0.15,8.4-0.3,12.6-0.44c3.81-0.13,7.61-0.26,11.42-0.39
		c3.26-0.11,6.53-0.22,9.79-0.33c4.8-0.17,9.61-0.33,14.41-0.5l7.2-0.25c1.48-0.05,2.97-0.1,4.45-0.15
		c4.16-0.14,8.46-0.29,12.69-0.47c1.11-0.05,2.16-0.09,2.91,0.9c0.04,0.06,0.1,0.09,0.15,0.12l0.04,0.03
		c2.2,1.61,4.77,2.5,7.86,2.72c0.48,0.03,0.96,0.05,1.42,0.05c3.34,0,6.17-0.86,8.62-2.63c0.27-0.19,0.65-0.32,0.93-0.31
		c7.21,0.16,14.93,0.34,25.02,0.59c7.42,0.19,14.84,0.37,22.26,0.56l27.91,0.72c3.44,0.09,6.99,0.18,10.48,0.25
		c0.01,0,0.02,0,0.03,0c0.35,0,0.83-0.12,1.1-0.38C205,240.5,204.99,239.94,204.15,239.08z M103,240.02c-1.51-0.43-2.85-1.16-4-2.19
		c-0.16-0.14-0.36-0.34-0.51-0.56c-0.25-0.38-0.55-0.57-0.9-0.57c-0.15,0-0.31,0.04-0.49,0.11c-0.17,0.07-0.38,0.11-0.66,0.12
		c-4.07,0.14-8.14,0.28-12.21,0.42c-5.42,0.18-10.85,0.37-16.27,0.56c-6.91,0.24-13.82,0.49-20.73,0.73
		c-5.19,0.18-10.37,0.37-15.56,0.55c-6.76,0.24-13.52,0.46-20.28,0.69c-0.12,0-0.28-0.03-0.43-0.06c-0.02,0-0.04-0.01-0.05-0.01
		c0.01-0.02,0.01-0.05,0.02-0.07c0.04-0.17,0.07-0.33,0.14-0.46c0.12-0.22,0.28-0.39,0.42-0.46c0.13-0.06,0.26-0.13,0.39-0.2
		c0.67-0.34,1.3-0.66,2.11-0.68c7.72-0.16,15.56-0.34,23.15-0.52c2.98-0.07,5.96-0.14,8.95-0.21c4.42-0.1,8.83-0.2,13.25-0.3
		c4.01-0.09,8.03-0.18,12.04-0.28c8.55-0.2,17.66-0.42,26.82-0.65c0.58-0.02,0.99,0.07,1.34,0.57c0.48,0.7,1.18,1.2,2.27,1.62
		c2.38,0.91,4.82,1.24,7.28,0.97c1.49-0.16,3.4-0.5,5-1.73c0.53-0.4,1.12-0.57,1.88-0.56c7.06,0.17,14.11,0.33,21.17,0.49
		c3.82,0.08,7.64,0.17,11.46,0.26c10.91,0.25,21.83,0.5,32.74,0.75l14.43,0.33c1.34,0.03,2.67,0.06,4,0.1
		c0.47,0.01,1-0.02,1.32-0.59l1.56,1.7c-0.11,0.02-0.19,0.02-0.27,0.02l-37.9-0.94c-5.54-0.14-11.08-0.28-16.61-0.42l-8.53-0.22
		c-7.45-0.19-14.91-0.38-22.36-0.56c-0.01,0-0.02,0-0.03,0c-0.38,0-0.83,0.15-1.16,0.4C112.22,240.84,108.03,241.45,103,240.02z
		 M29.88,210.99L29.88,210.99c0.05-0.04,0.09-0.09,0.14-0.13l0.11-0.1c1.97-1.84,1.97-1.84,4.69-1.9
		c6.32-0.14,13.11,0.44,21.34,1.83c8.76,1.48,17.3,3.6,25.38,6.28c5.2,1.73,11.29,3.96,17.1,7.33c0.81,0.47,1.61,1,2.38,1.51
		c-5.47-2.9-11.31-4.77-16.36-6.22c-8.04-2.31-16.39-4.02-25.54-5.24c-7.16-0.96-13.19-1.4-18.89-1.4c-0.25,0-0.5,0-0.75,0
		c-4.25,0.03-8.78,0.22-13.17,1.42L29.88,210.99z M38.23,201.4c1.01-0.37,2.01-0.75,3.01-1.12c3.33-1.25,6.77-2.54,10.2-3.66
		c1.23-0.41,2.72-0.26,4.15-0.09c5.55,0.69,10.83,2.34,17.04,4.6c5.63,2.05,11.01,4.38,16,6.92c4.81,2.45,9.47,4.92,13.67,8.23
		c0.93,0.73,1.85,1.58,2.82,2.6c0.88,0.92,1.25,1.85,1.17,2.96c-0.08,1.17-0.07,2.33-0.05,3.56c0.01,0.43,0.01,0.87,0.02,1.31
		c-0.03-0.02-0.05-0.04-0.06-0.05c-4.54-4.61-10.25-8.6-17.46-12.2c-8.98-4.48-18.68-7.64-29.67-9.67
		c-7.23-1.33-14.5-2.01-21.65-2.01c-0.9,0-1.8,0.01-2.7,0.03c0.28-0.11,0.57-0.23,0.85-0.35C36.43,202.1,37.33,201.73,38.23,201.4z
		 M198.92,237.05l-80.61-1.85c-0.2-0.01-0.41-0.01-0.61-0.01c-0.17,0-0.33,0-0.5,0c-0.81,0-1.66,0.01-2.46-0.11
		c-0.26-0.04-0.52-0.33-0.77-0.62c-0.1-0.11-0.2-0.23-0.3-0.33l0.02-0.04h0.2c0.2,0,0.4,0,0.6,0l70.89,0.65
		c1.04,0.01,2.08,0.02,3.13,0.04c2.78,0.03,5.66,0.07,8.49,0.03c0.02,0,0.05,0,0.07,0c0.92,0,1.37,0.29,1.68,1.05
		c0.12,0.31,0.25,0.61,0.4,0.93l0.11,0.25C199.13,237.05,199.02,237.05,198.92,237.05z M197.01,233.1c-0.18,0-0.34,0-0.49,0
		l-54.61-0.47c-9.56-0.08-19.12-0.17-28.68-0.25c-0.13,0-0.27-0.05-0.42-0.11c0,0-0.01,0-0.01,0c0.72-0.12,1.44-0.24,2.16-0.36
		c1.72-0.29,3.51-0.59,5.27-0.84c2.19-0.31,4.47-0.56,6.95-0.78l1.14-0.1c2.78-0.25,5.66-0.51,8.49-0.61
		c4.14-0.15,8.67-0.23,14.27-0.25c5.13-0.02,10.63-0.02,16.08,0.13c2.34,0.06,4.72,0.23,7.01,0.4c1.32,0.09,2.69,0.19,4.03,0.27
		c3.54,0.2,7.11,0.37,10.26,0.51c0.86,0.04,1.72,0.07,2.58,0.1c1.38,0.05,2.8,0.1,4.2,0.19c0.29,0.02,0.66,0.29,0.85,0.54
		c0.29,0.38,0.53,0.81,0.78,1.27c0.07,0.12,0.14,0.25,0.21,0.38L197.01,233.1z M105.47,237.36c-2.1-0.25-3.82-0.91-4.53-1.73
		c1-0.93,1.61-2.14,2.2-3.31l0.21-0.42c0.52-1.02,1.54-1.82,2.79-2.2c1.29-0.38,2.63-0.26,3.67,0.33c0.46,0.26,0.7,0.7,0.72,1.3
		c0.01,0.22,0.09,0.42,0.17,0.62c0.02,0.05,0.04,0.1,0.06,0.16c0.03,0.08,0.08,0.12,0.13,0.16c0.01,0.01,0.03,0.03,0.03,0.01
		c0.16,1.11,0.78,1.97,1.38,2.81c0.22,0.31,0.44,0.62,0.64,0.94C111.41,237.21,108.5,237.73,105.47,237.36z M38.02,204.49
		c14.63,0.16,28.82,2.87,42.15,8.06c6.73,2.62,12.5,5.66,17.62,9.28c-5.28-2.81-11.19-5.16-18.94-7.55
		c-8.15-2.52-16.54-4.44-24.95-5.73c-6.39-0.97-11.82-1.44-16.79-1.44c-1.15,0-2.27,0.03-3.38,0.07c-0.64,0.03-1.29,0.08-1.91,0.13
		c-0.11,0.01-0.23,0.02-0.34,0.03c0.31-0.16,0.63-0.32,0.94-0.48c1.19-0.61,2.42-1.23,3.61-1.89
		C36.63,204.63,37.26,204.49,38.02,204.49z M27.87,215.95c0.12-0.14,0.36-0.27,0.57-0.29c0.79-0.09,1.58-0.2,2.36-0.3
		c1.93-0.25,3.93-0.52,5.9-0.59c7.34-0.27,15.18,0.27,24.69,1.67c10.06,1.49,18.78,3.46,26.66,6.05c2.45,0.8,4.89,1.79,7.24,2.74
		c0.3,0.12,0.6,0.24,0.9,0.36c-4.76-1.59-10-2.86-16.25-3.94c-10.2-1.77-20.53-2.67-30.74-2.67c-0.65,0-1.3,0-1.95,0.01
		c-8.14,0.09-14.32,0.69-20.04,1.95c-1.09,0.24-2.16,0.53-3.29,0.84c-0.37,0.1-0.74,0.2-1.11,0.3l0.87-1.05
		C25.12,219.27,26.48,217.62,27.87,215.95z M26,223l0.09-0.02c3.28-0.85,6.95-1.43,11.55-1.82c5.5-0.47,11.38-0.57,17.98-0.32
		c6.42,0.24,12.87,0.83,19.17,1.74c7.81,1.13,14.04,2.49,19.62,4.28c1.81,0.58,3.6,1.31,5.34,2.01c0.76,0.31,1.53,0.62,2.3,0.92
		c0.13,0.05,0.25,0.12,0.37,0.19c0.01,0.01,0.02,0.01,0.03,0.02c-0.13,0.01-0.25,0.02-0.33-0.01c-3.47-1.47-7.29-2.63-11.37-3.45
		c-3.14-0.63-6.37-1.05-9.49-1.47c-0.99-0.13-1.99-0.26-2.98-0.4c-2-0.28-3.68-0.47-5.39-0.55c-2.73-0.11-5.38-0.17-7.92-0.17
		c-0.43,0-0.86,0-1.29,0.01c-3.39,0.03-6.46,0.12-9.4,0.3c-2.09,0.13-4.21,0.31-6.27,0.49c-1.56,0.14-3.18,0.28-4.76,0.39
		c-1.31,0.09-2.64,0.16-3.93,0.22c-1.4,0.07-2.84,0.14-4.26,0.24c-2.31,0.18-4.65,0.45-6.9,0.72c-2.01,0.24-4.04,0.51-6.01,0.77
		c-0.62,0.08-1.24,0.16-1.85,0.24l0.48-0.38c1.58-1.26,3.16-2.53,4.74-3.78C25.65,223.09,25.83,223.05,26,223z M21.76,228.86
		c2.4-0.27,4.89-0.58,7.41-0.91c4.9-0.65,9.9-0.92,14.14-1.1c2.24-0.09,4.5-0.3,6.69-0.5c1.4-0.13,2.85-0.26,4.27-0.36
		c0.78-0.06,1.58-0.05,2.36-0.04c0.56,0,1.14,0.01,1.7-0.01c0.86-0.03,1.72-0.07,2.58-0.11c1.25-0.06,2.54-0.13,3.81-0.14
		c2.89-0.03,5.3-0.03,7.79,0.14c3.14,0.21,6.21,0.6,8.54,0.92c0.55,0.07,1.09,0.15,1.64,0.22c2.78,0.37,5.65,0.76,8.41,1.41
		c2.4,0.57,4.79,1.36,7.1,2.13c1,0.33,2,0.67,3.01,0.98c0.1,0.03,0.19,0.08,0.3,0.14c0.02,0.01,0.04,0.02,0.06,0.03
		c-0.02,0.14-0.06,0.22-0.12,0.26c-0.08,0.06-0.23,0.05-0.48-0.02c-0.71-0.19-1.42-0.39-2.12-0.59c-1.83-0.52-3.73-1.06-5.63-1.41
		c-3.36-0.62-6.72-0.98-9.26-1.21c-6.54-0.61-13.16-0.75-19.71-0.75c-2.9,0-5.79,0.03-8.65,0.06c-2.86,0.03-5.81,0.06-8.73,0.06
		c-0.24,0-0.46-0.01-0.71,0c-1.75,0-3.52,0.18-5.23,0.35c-1.07,0.11-2.17,0.21-3.26,0.28c-1.55,0.09-3.12,0.15-4.64,0.21
		c-1.23,0.05-2.5,0.09-3.75,0.16c-2.96,0.16-6.12,0.37-9.22,1.11c-0.02,0.01-0.04,0.01-0.06,0.01c0.04-0.05,0.07-0.09,0.11-0.14
		C20.6,229.43,20.99,228.95,21.76,228.86z M18.37,229.46c0.06-0.01,0.11-0.03,0.17-0.04l-0.13,0.23c-0.21,0.37-0.39,0.68-0.57,0.99
		c-0.22,0.36-0.55,0.89-0.05,1.29c0.28,0.23,0.81,0.34,1.21,0.27c0.47-0.09,0.95-0.22,1.41-0.34c0.64-0.17,1.3-0.35,1.96-0.42
		c3.2-0.33,6.41-0.56,9.7-0.79l1.19-0.08c3.36-0.24,6.83-0.48,10.25-0.63c2.84-0.12,5.74-0.14,8.55-0.16l4-0.03
		c3.98-0.03,8.09-0.07,12.13-0.01c4.65,0.07,9.2,0.25,13.53,0.52c4.21,0.26,8.32,0.58,12.35,1.6c-0.6,0-1.19,0.01-1.79-0.01
		c-2.16-0.04-4.33-0.08-6.49-0.13c-4.26-0.09-8.66-0.17-12.99-0.24c-2.25-0.03-4.53,0.02-6.67,0.09l-2.81,0.09
		c-6.57,0.2-13.37,0.41-20.05,0.66c-6.39,0.24-12.89,0.51-19.17,0.78c-2.86,0.12-5.71,0.24-8.57,0.36c-0.15,0.01-0.3,0-0.49,0
		l-0.03,0c0.2-0.28,0.4-0.56,0.6-0.84c0.73-1.01,1.42-1.97,2.15-2.9C17.83,229.59,18.08,229.53,18.37,229.46z M39.54,234.2
		c2.39-0.1,4.78-0.21,7.18-0.32c5.08-0.23,10.33-0.48,15.49-0.57c5.87-0.1,11.84-0.02,17.61,0.05c1.73,0.02,3.46,0.05,5.19,0.06
		c3.5,0.04,7.06,0.11,10.51,0.18c1.57,0.03,3.14,0.06,4.71,0.09c0.07,0,0.14,0.01,0.22,0.02c-0.21,0.4-0.49,0.54-1.02,0.55
		c-8.66,0.18-17.46,0.38-25.97,0.58l-8,0.18c-2.97,0.07-5.93,0.14-8.9,0.2c-3.71,0.08-7.41,0.17-11.12,0.25
		c-6.34,0.15-12.67,0.3-19.01,0.46l-12.69,0.3c-0.19,0-0.37,0.01-0.6,0H13.1c0.44-0.6,0.84-1.05,1.63-1.08
		C22.79,234.87,30.73,234.56,39.54,234.2z"/>
	<path class="st0" d="M88.52,196.77c-2.13-5.58-0.78-4.26-6.41-6.27c5.58-2.13,4.26-0.78,6.27-6.41c2.14,5.58,0.78,4.26,6.41,6.27
		C89.21,192.5,90.54,191.14,88.52,196.77z"/>
	<path class="st0" d="M106.83,209.37c-2.13-5.58-0.78-4.26-6.41-6.27c5.58-2.13,4.26-0.78,6.27-6.41c2.14,5.58,0.78,4.26,6.41,6.27
		C107.52,205.1,108.85,203.75,106.83,209.37z"/>
	<path class="st0" d="M57.54,127.77c-2.13-5.58-0.78-4.26-6.41-6.27c5.58-2.13,4.26-0.78,6.27-6.41c2.14,5.58,0.78,4.26,6.41,6.27
		C58.23,123.5,59.56,122.14,57.54,127.77z"/>
	<path class="st0" d="M142.03,82.01c-2.13-5.58-0.78-4.26-6.41-6.27c5.58-2.13,4.26-0.78,6.27-6.41c2.14,5.58,0.78,4.26,6.41,6.27
		C142.72,77.73,144.05,76.38,142.03,82.01z"/>
	<path class="st0" d="M271.23,135.87c-2.13-5.58-0.78-4.26-6.41-6.27c5.58-2.13,4.26-0.78,6.27-6.41c2.14,5.58,0.78,4.26,6.41,6.27
		C271.92,131.6,273.24,130.24,271.23,135.87z"/>
	<path class="st0" d="M221.59,237.6c-2.13-5.58-0.78-4.26-6.41-6.27c5.58-2.13,4.26-0.78,6.27-6.41c2.14,5.58,0.78,4.26,6.41,6.27
		C222.28,233.33,223.61,231.98,221.59,237.6z"/>
	<path class="st0" d="M121.24,193.65c-1.44-3.77-0.53-2.87-4.32-4.23c3.77-1.44,2.87-0.53,4.23-4.32c1.44,3.77,0.53,2.87,4.32,4.23
		C121.7,190.77,122.6,189.85,121.24,193.65z"/>
	<path class="st0" d="M57.17,188.72c-1.44-3.77-0.53-2.87-4.32-4.23c3.77-1.44,2.87-0.53,4.23-4.32c1.44,3.77,0.53,2.87,4.32,4.23
		C57.63,185.84,58.53,184.92,57.17,188.72z"/>
	<path class="st0" d="M77.89,135.51c-1.44-3.77-0.53-2.87-4.32-4.23c3.77-1.44,2.87-0.53,4.23-4.32c1.44,3.77,0.53,2.87,4.32,4.23
		C78.36,132.63,79.25,131.72,77.89,135.51z"/>
	<path class="st0" d="M160.67,71.49c-1.44-3.77-0.53-2.87-4.32-4.23c3.77-1.44,2.87-0.53,4.23-4.32c1.44,3.77,0.53,2.87,4.32,4.23
		C161.13,68.61,162.03,67.7,160.67,71.49z"/>
	<path class="st0" d="M257.83,114.09c-1.44-3.77-0.53-2.87-4.32-4.23c3.77-1.44,2.87-0.53,4.23-4.32c1.44,3.77,0.53,2.87,4.32,4.23
		C258.29,111.21,259.19,110.29,257.83,114.09z"/>
	<path class="st0" d="M241.28,238c-1.44-3.77-0.53-2.87-4.32-4.23c3.77-1.44,2.87-0.53,4.23-4.32c1.44,3.77,0.53,2.87,4.32,4.23
		C241.75,235.12,242.64,234.21,241.28,238z"/>
</g>
</svg>
