<?xml version="1.0" encoding="utf-8"?>
<!-- Generator: Adobe Illustrator 28.0.0, SVG Export Plug-In . SVG Version: 6.00 Build 0)  -->
<svg version="1.1" id="Layer_1" xmlns="http://www.w3.org/2000/svg" xmlns:xlink="http://www.w3.org/1999/xlink" x="0px" y="0px"
	 viewBox="0 0 300 300" style="enable-background:new 0 0 300 300;" xml:space="preserve">
<style type="text/css">
	.st0{fill:#010101;}
	.st1{fill:#FDC890;}
	.st2{fill:#F37971;}
	.st3{fill:#F494AF;}
	.st4{fill:#A7D7CB;}
	.st5{fill:#FFFFFF;}
	.st6{fill:#F8BDD0;}
	.st7{fill:#BFD071;}
	.st8{fill:#CEA07D;}
	.st9{fill:#FFF8F3;}
</style>
<g>
	<path class="st0" d="M157.44,72.67c-0.46,4.32-3.51,10.55-8.7,10c-2.16-0.23-3.14-1.72-3.43-1.75c-0.75-0.08-1.29,1.08-2.83,0.92
		c-3.28-0.35-3.56-4.07-3.54-6.63c0.08-3.18,0.3-6.39,0.63-9.59c0.29-2.74,0.49-7.42,2.78-9.24c0.55-0.4,1.21-0.71,1.87-0.64
		c3.36,0.35,2.69,6.71,2.74,9.06c1.17-1.51,3.17-2.23,5.04-2.03C156.75,63.27,157.86,68.76,157.44,72.67z M150.77,71.42
		c0.11-1-0.17-2.41-1.33-2.53c-1.54-0.16-2.76,1.47-2.91,2.88c-0.1,0.95,0.16,2.49,1.36,2.62
		C149.43,74.55,150.63,72.79,150.77,71.42z M177.2,74.79c-0.57,5.4-4.69,10.59-10.54,9.97c-5.86-0.62-8.96-6.61-8.39-12.05
		c0.55-5.23,4.79-10.75,10.56-10.14C174.86,63.21,177.78,69.31,177.2,74.79z M168.98,73.55c0.07-0.67,0.16-2.67-0.84-2.78
		c-1.25-0.13-1.58,2.23-1.67,3.1c-0.08,0.79-0.22,2.45,0.95,2.58C168.62,76.58,168.89,74.42,168.98,73.55z M196.93,76.87
		c-0.57,5.4-4.69,10.59-10.54,9.97c-5.86-0.62-8.96-6.61-8.39-12.05c0.55-5.23,4.79-10.75,10.56-10.14
		C194.58,65.29,197.5,71.39,196.93,76.87z M188.7,75.63c0.07-0.67,0.16-2.67-0.84-2.78c-1.25-0.13-1.58,2.23-1.67,3.1
		c-0.08,0.79-0.22,2.45,0.95,2.58C188.34,78.66,188.61,76.5,188.7,75.63z M214.97,86.5c-0.16,1.49-1.96,2.65-3.41,2.49
		c-2.53-0.27-4.98-4.98-6.14-7.07l-0.39,3.65c-0.26,2.49-1.35,2.88-3.72,2.63c-3.45-0.36-3.61-3.61-3.41-6.32
		c0.13-2.04,0.3-4.04,0.51-6.08c0.3-2.82,0.68-5.64,1.1-8.45c0.4-2.6,1.27-5.7,4.6-5.35c2.08,0.22,3.73,1.65,3.5,3.85
		c-0.28,2.66-0.85,5.28-1.21,7.93c1.62-2.18,4.28-6.73,7.39-6.4c1.5,0.16,2.97,1.28,2.8,2.94c-0.18,1.74-3.95,5.63-5.28,7.08
		c-0.05,0.08-0.1,0.16-0.11,0.2C211.04,79.2,215.27,83.68,214.97,86.5z M243.32,70.85c2.19,1.53,1.53,8.56,1.27,11.01
		c-0.29,2.74-1.08,7.02-2.7,9.29c-1.97,2.73-5.48,4.17-8.84,3.81c-2.7-0.28-5.64-1.9-5.3-5.05c0.14-1.33,1.24-2.18,2.57-2.04
		c1.2,0.13,1.78,1.41,3.03,1.54c1.91,0.2,2.47-1.54,2.63-3c-0.55,0.07-1.14,0.09-1.72,0.03c-4.53-0.48-6.76-4.41-6.31-8.64
		c0.44-4.19,3.42-8.54,8.11-8.05c1.5,0.16,2.72,1.25,3.3,1.31c0.37,0.04,1.31-0.83,2.72-0.68
		C242.53,70.43,242.98,70.56,243.32,70.85z M237.24,77.98c0.08-0.75-0.14-1.86-1.05-1.96c-1.12-0.12-1.92,1.48-2.02,2.43
		c-0.07,0.67,0.14,1.86,0.97,1.95C236.26,80.52,237.14,78.93,237.24,77.98z M253.96,73.06c0.49,1.69,0.15,5.39-0.05,7.22
		c-0.21,2.04-0.6,4.05-0.93,6.07c-0.4,2.23-1.47,7.15-4.62,6.82c-3.28-0.35-2.77-5.96-2.54-8.2c0.28-2.7,1.23-10.03,2.34-12.27
		c0.63-1.19,1.9-1.69,3.19-1.55C252.47,71.27,253.62,71.89,253.96,73.06z M248.74,65.67c0.18-1.74,1.44-3.33,3.35-3.13
		c1.91,0.2,3.11,2.01,2.91,3.83c-0.19,1.79-1.73,3.3-3.6,3.11C249.49,69.27,248.55,67.45,248.74,65.67z M272.79,78.49
		c-0.21,2.04-2.02,3.99-4.18,3.76c-1.41-0.15-2.42-1.31-3.75-1.45c-1.25-0.13-1.79,0.69-2.04,1.8c-0.63,2.75-0.92,5.57-1.42,8.33
		c-0.38,2.02-1.62,3.4-3.78,3.17c-0.71-0.07-1.72-0.43-2.15-1.07c-1.09-1.63-0.46-6.77-0.25-8.8c0.33-3.16,0.88-6.33,1.75-9.39
		c0.54-1.92,1.48-2.87,3.51-2.65c2.12,0.22,2.5,0.98,2.29,3.01l-0.03,0.29c1.47-1.23,3.5-1.77,5.41-1.57
		C270.51,74.18,273.07,75.83,272.79,78.49z M280.4,71.19c1.3,2.03,0.48,10.21,0.2,12.83c-0.24,2.28-1.02,10.1-2.51,11.49
		c-0.65,0.56-1.59,0.71-2.42,0.63c-0.96-0.1-2.12-0.56-2.4-1.55c-0.81-2.65,0.02-12.13,0.34-15.21c0.21-1.99,0.46-3.98,0.76-6.01
		c0.34-2.02,1.33-3.81,3.69-3.56C278.98,69.91,279.9,70.38,280.4,71.19z M144.65,97.5c1.98,3.44,6.61,3.88,6.09,8.83
		c-0.44,4.16-4.78,6.33-8.62,5.92c-3.19-0.34-7.61-2.81-7.21-6.56c0.16-1.48,1.38-3.36,3.09-3.18c1.3,0.14,2.19,1.82,3.58,1.97
		c0.28,0.03,0.81-0.1,0.84-0.38c0.13-1.2-6.24-3.79-5.7-8.93c0.46-4.39,4.62-7.89,9.01-7.42c3.24,0.34,6.93,3.07,6.55,6.63
		c-0.2,1.85-1.63,3.48-3.62,3.27c-1.71-0.18-2.06-1.71-3.08-1.82c-0.6-0.06-1.03,0.45-1.08,0.96
		C144.46,97.06,144.53,97.3,144.65,97.5z M174.07,99.29c-0.27,2.59-1.6,13.44-3.39,14.89c-0.77,0.67-1.86,0.74-2.83,0.64
		c-1.3-0.14-3.03-1.02-2.86-2.59l0.02-0.23c-1.06,1.62-3.04,2.2-4.89,2.01c-7.03-0.74-7.75-9-7.17-14.51
		c0.4-3.84,1.7-10.81,6.88-10.27c2.91,0.31,3.44,2,3.17,4.54c-0.21,2.04-0.71,4.04-0.93,6.12c-0.12,1.11-0.49,3.74,1.13,3.91
		c0.32,0.03,0.66-0.02,0.92-0.28c1.72-1.64,0.67-13.87,6.96-13.2C175.48,90.79,174.38,96.33,174.07,99.29z M206.96,96.49
		c0.91,1.97,0.17,9.51-0.08,11.83c-0.24,2.27-0.48,4.53-0.9,6.78c-0.52,2.75-2.47,3.48-5.11,3.2c-2.87-0.3-3.97-1.87-3.67-4.69
		c0.29-2.73,0.99-5.37,1.27-8.1c0.08-0.74-0.28-1.34-1.07-1.42c-0.6-0.06-1.2,0.25-1.4,0.84c-0.88,3-1.08,6.25-1.73,9.27
		c-0.45,2.01-1.81,2.94-3.84,2.73c-3.47-0.37-4.17-2.59-3.85-5.64c0.14-1.34,1.48-8.31-0.18-8.49c-1.43-0.15-1.74,3.65-1.83,4.53
		c-0.24,2.27-0.28,6.19-1.87,7.94c-0.8,0.9-2.56,0.76-3.67,0.64c-2.64-0.28-3.93-0.88-4.08-3.94c-0.1-2.12-0.01-4.31,0.21-6.43
		c0.36-3.38,1.48-10.09,3.98-12.44c0.78-0.76,2.03-1.52,3.14-1.4c2.91,0.31,2.65,1.96,3.1,4.3c1.01-2,3.68-3.82,5.99-3.58
		c2.36,0.25,4.42,2.01,4.97,4.36c1.67-2.07,3.27-3.49,6.14-3.19C204.39,93.79,206.11,94.77,206.96,96.49z M240.36,100.01
		c0.91,1.97,0.17,9.51-0.08,11.83c-0.24,2.27-0.48,4.53-0.9,6.78c-0.52,2.75-2.47,3.48-5.11,3.2c-2.87-0.3-3.97-1.87-3.67-4.69
		c0.29-2.73,0.99-5.37,1.27-8.1c0.08-0.74-0.28-1.34-1.07-1.42c-0.6-0.06-1.2,0.25-1.4,0.84c-0.88,3-1.08,6.25-1.73,9.27
		c-0.45,2.01-1.81,2.94-3.84,2.73c-3.47-0.37-4.17-2.59-3.85-5.64c0.14-1.34,1.48-8.31-0.18-8.49c-1.43-0.15-1.74,3.65-1.83,4.53
		c-0.24,2.27-0.28,6.19-1.87,7.94c-0.8,0.9-2.56,0.76-3.67,0.64c-2.64-0.28-3.93-0.88-4.08-3.94c-0.1-2.12-0.01-4.31,0.21-6.43
		c0.36-3.38,1.48-10.09,3.98-12.44c0.78-0.76,2.03-1.52,3.14-1.4c2.91,0.31,2.65,1.96,3.1,4.3c1.01-2,3.68-3.82,5.99-3.58
		c2.36,0.25,4.42,2.01,4.97,4.36c1.67-2.07,3.27-3.49,6.14-3.19C237.79,97.31,239.51,98.29,240.36,100.01z M259.45,117.65
		c-0.02,0.18-0.04,0.37-0.1,0.55c-1.54,3.95-5.05,5.78-9.12,5.35c-6.34-0.67-9.1-5.96-8.48-11.89c0.66-6.29,5.14-13.26,12.26-12.51
		c4.21,0.44,6.72,3.7,6.27,7.91c-0.44,4.16-4.01,7.86-8.36,7.4c-0.97-0.1-1.72-0.56-1.87,0.88c-0.11,1.06,0.33,2.61,1.63,2.75
		c2.73,0.29,2.32-3.4,5.19-3.1C258.26,115.14,259.61,116.12,259.45,117.65z M251.03,107.45c-0.06,0.55,0.03,1.5,0.72,1.57
		c0.97,0.1,1.78-1.82,1.86-2.56c0.05-0.51,0.01-1.4-0.69-1.48C251.91,104.88,251.11,106.62,251.03,107.45z M281,107.53
		c-0.24,2.27-2.25,4.44-4.65,4.19c-1.57-0.17-2.7-1.45-4.18-1.61c-1.39-0.15-2,0.77-2.27,2.01c-0.7,3.06-1.03,6.21-1.59,9.28
		c-0.42,2.25-1.8,3.78-4.21,3.53c-0.79-0.08-1.91-0.48-2.4-1.19c-1.21-1.81-0.52-7.54-0.28-9.8c0.37-3.52,0.98-7.05,1.95-10.46
		c0.6-2.14,1.65-3.19,3.91-2.96c2.36,0.25,2.78,1.09,2.55,3.36l-0.03,0.32c1.64-1.37,3.9-1.97,6.03-1.75
		C278.46,102.72,281.31,104.57,281,107.53z M116.03,77.53c0.84,0.13,1.31-0.46,1.49-1.08c0.54-1.82,1.12-3.67,1.36-5.54
		c0.31-2.38,0.3-4.8,0.42-7.21c0.03-0.63,0.14-1.24,0.89-1.3c0.81-0.06,0.97,0.57,1.07,1.23c0.39,2.53,0.77,5.06,1.23,7.57
		c0.63,3.47,2.92,5.45,6.1,6.58c0.23,0.08,0.47,0.15,0.7,0.24c0.53,0.2,1.06,0.54,0.82,1.13c-0.16,0.38-0.72,0.8-1.13,0.83
		c-1.84,0.16-3.03,1.13-3.51,2.82c-0.59,2.07-1,4.19-1.47,6.3c-0.09,0.39-0.02,0.83-0.17,1.18c-0.17,0.38-0.51,0.95-0.77,0.95
		c-0.38,0-0.93-0.37-1.09-0.73c-0.58-1.33-0.97-2.74-1.55-4.06c-0.69-1.58-1.47-3.12-2.29-4.64c-0.54-1.01-1.49-1.55-2.59-1.78
		c-0.66-0.13-1.35-0.19-1.22-1.13C114.39,78.25,115.39,77.46,116.03,77.53z M266.48,228.73c1.71-0.26,2.37-1.89,2.56-2.28
		c0.69-1.44,1.04-2.73,1.6-4.23c0.46-1.24,0.76-2.54,1.13-3.81c0.17-0.56,0.4-1.1,1.11-1.02c0.74,0.09,0.89,0.69,0.92,1.3
		c0.06,1.23,0.11,2.46,0.14,3.7c0.06,3.13,2.88,4.51,5.47,5.26c0.35,0.1,1.54,0.53,1.62,0.97c-0.11,0.85-1.8,1.45-2.21,1.59
		c-1.73,0.57-2.95,1.73-3.52,3.42c-0.55,1.63-1.33,5.53-1.45,5.71c-0.24,0.34-0.38,0.82-0.87,0.86c-0.48,0.04-0.84-0.41-0.97-0.76
		c-0.57-1.5-1.15-3.01-1.51-4.56c-0.64-2.75-2.67-3.73-5.09-4.32c-0.24-0.06-1.46-0.38-1.46-0.98c0-0.29,0.44-0.75,0.76-0.83
		C265.25,228.63,265.85,228.73,266.48,228.73z M49.52,228.51c-0.2-0.25-0.54-0.62-0.79-1.03c-0.78-1.29-1.51-2.61-2.3-3.9
		c-0.65-1.06-1.53-1.84-2.76-2.19c-0.26-0.07-0.57-0.2-0.71-0.4c-0.17-0.25-0.3-0.64-0.24-0.91c0.05-0.23,0.39-0.5,0.64-0.56
		c1.45-0.33,2.29-1.22,2.62-2.65c0.48-2.06,0.66-4.13,0.31-6.24c-0.12-0.73-0.11-1.48-0.11-2.22c0-0.61,0.22-1.15,0.92-1.17
		c0.7-0.02,0.91,0.47,0.99,1.1c0.18,1.53,0.21,3.1,0.64,4.56c0.88,3.05,2.63,4.06,5.8,3.61c0.64-0.09,1.23-0.11,1.44,0.61
		c0.2,0.7-0.32,1.06-0.86,1.35c-0.11,0.06-0.22,0.12-0.34,0.15c-2.83,0.6-3.64,2.64-3.73,5.21c-0.04,1.23-0.12,2.47-0.18,3.7
		C50.82,228.18,50.49,228.53,49.52,228.51z M280.73,131.34c-1.42-0.82-2.97-0.74-4.5-0.88c-4.15-0.39-8.3-0.82-12.45-1.22
		c-6.77-0.65-13.53-1.27-20.3-1.93c-7.38-0.71-14.76-1.45-22.14-2.16c-7.41-0.71-14.83-1.4-22.24-2.11
		c-7.35-0.71-14.7-1.44-22.05-2.15c-6.77-0.65-13.53-1.28-20.3-1.93c-0.92-0.09-1.83-0.24-2.75-0.36c-0.56-0.07-1.14-0.29-1.67-0.19
		c-10.03,1.78-20.06,3.59-30.09,5.39c-0.23,0.04-0.47,0.01-0.64,0.01c-0.23-2.21-0.39-4.37-0.7-6.5c-0.1-0.72,0-1,0.69-1.28
		c2.51-1.02,4.67-2.52,6.13-4.88c1.02-1.65,1.23-3.4,0.68-5.25c-1.23-4.15-5.07-6.27-9.4-5.17c-0.98,0.25-1.93,0.62-2.93,0.94
		c-0.43-0.86-0.78-1.71-1.26-2.5c-0.73-1.21-1.53-2.39-2.32-3.56c-2.89-4.28-6.87-7.25-11.39-9.66c-3.3-1.76-6.61-3.39-10.34-3.89
		c-3.7-0.49-7.42-0.91-11.14-1.24c-1.66-0.15-3.17-0.58-4.74-1.36c3.17-3.41,5.29-7.35,6.98-11.56c0.14,0.46,0.21,0.88,0.26,1.31
		c0.57,4.86,4.03,8.82,8.82,9.96c1.99,0.48,3.97,0.85,5.38,2.58c0.58,0.71,1.41,0.34,1.62-0.6c0.14-0.66,0.19-1.35,0.33-2.01
		c1.22-5.96-2.07-12.52-7.99-14.55c-1.66-0.57-3.36-1-5.06-1.44c-0.8-0.21-1.47-0.53-1.75-1.33c-0.17-0.49-0.41-0.96-0.94-0.75
		c-0.34,0.13-0.64,0.61-0.75,1c-0.26,0.88-0.28,1.85-0.59,2.71c-1.35,3.72-2.93,7.35-5.26,10.59c-0.82,1.14-1.75,2.2-2.63,3.29
		c-0.7-0.49-1.27-0.91-1.86-1.29c-5.16-3.33-10.1-3.06-14.89,0.78c-1.66,1.33-2.79,3.02-3.76,4.88c-0.24,0.47-0.74,0.88-1.21,1.13
		c-2.71,1.47-5.46,2.88-8.18,4.32c-0.48,0.25-0.93,0.57-1.44,0.88c-0.1-0.25-0.18-0.42-0.23-0.59c-0.72-2.5-2.45-4.19-4.57-5.5
		c-1.13-0.7-2.45-0.88-3.76-0.7c-3.15,0.42-5.87,3.31-6.17,6.51c-0.04,0.46-0.08,0.91-0.12,1.49c-0.64-0.43-1.15-0.83-1.7-1.15
		c-3.48-2.05-7.33-0.26-7.78,3.68c-0.29,2.5,0.2,4.89,1.66,6.97c0.98,1.38,2.02,2.76,3.24,3.92c1.47,1.39,3.15,2.56,4.87,3.93
		c-3.98,9.07-4.07,18.59-1.74,28.17c2.32,9.53,6.54,18.07,14.2,24.81c-0.42,0.03-0.64,0.03-0.85,0.06
		c-1.51,0.21-2.89,0.68-3.86,1.95c-2.48,3.25-0.97,7.06,3.09,7.68c1.24,0.19,2.52,0.19,3.79,0.22c0.86,0.02,1.3,0.41,1.24,1.23
		c-0.05,0.7-0.25,1.39-0.37,2.09c-0.22,1.36-0.62,2.73-0.6,4.09c0.06,2.95,2.97,4.59,5.58,3.21c0.71-0.37,1.41-0.95,1.85-1.62
		c0.78-1.17,1.35-2.48,1.96-3.64c1.72,2.24,3.47,4.52,5.27,6.86c-0.65,0.92-1.01,2.14-0.99,3.48c0.02,1.22,0.56,2.12,1.67,2.54
		c0.72,0.27,0.95,0.73,1.13,1.39c2.22,8.1,4.46,16.19,6.7,24.28c2.27,8.18,4.58,16.35,6.77,24.55c0.32,1.2,0.93,1.77,2.02,2.09
		c3.87,1.15,7.81,1.88,11.86,1.73c2.89-0.11,5.79-0.38,8.67-0.71c4.79-0.54,9.45-1.59,13.56-4.27c1.05-0.68,2-1.54,2.92-2.39
		c0.32-0.29,0.55-0.8,0.59-1.24c0.09-0.91,0.03-1.83,0.03-2.82c3.14,0.32,6.18,0.63,9.21,0.95c5.59,0.59,11.18,1.19,16.77,1.78
		c5.62,0.59,11.25,1.18,16.87,1.77c6.73,0.71,13.46,1.42,20.18,2.13c6.14,0.64,12.29,1.28,18.44,1.92
		c7.34,0.77,14.68,1.56,22.03,2.33c6.76,0.71,13.52,1.39,20.28,2.13c0.82,0.09,1.41-0.1,2.02-0.61
		c7.24-5.99,14.49-11.96,21.74-17.94c3.84-3.16,7.68-6.33,11.52-9.49c1.72-1.42,1.52-3.49-0.4-4.6c-0.26-0.15-0.42-0.69-0.42-1.05
		c0.09-6.86,0.21-13.72,0.36-20.58c0.01-0.34,0.3-0.75,0.58-1c0.45-0.4,1.13-0.6,1.47-1.06c0.82-1.1,0.62-3.74-0.15-4.87
		c-0.8-1.18-1.64-2.36-1.43-3.94c0.08-0.6-0.06-1.23-0.06-1.85c-0.01-2.78,0-5.55,0-8.44c0.14-0.02,0.44-0.07,0.73-0.12
		c2.12-0.38,4.16-0.96,5.78-2.5c1.37-1.31,1.23-2.75-0.4-3.73c-0.7-0.42-1.5-0.69-2.3-1.05c0.03-0.38,0.05-0.78,0.1-1.17
		c0.28-2.45,0.57-4.91,0.86-7.36c0.48-4.08,0.97-8.16,1.44-12.24c0.05-0.47,0.17-0.74,0.69-0.77c2.53-0.13,3.81-1.84,4.72-3.89
		C283.41,134.47,282.56,132.4,280.73,131.34z"/>
	<path class="st1" d="M111.91,150.1c3.14-3.76,5.05-7.9,6.69-12.17c0.2-0.53,0.43-0.67,1.01-0.61c10.96,1.23,21.92,2.43,32.88,3.64
		c11.18,1.23,22.35,2.47,33.53,3.71c7.77,0.86,15.53,1.72,23.3,2.59c0.24,0.03,0.48,0.09,0.86,0.16c-0.39,0.66-0.75,1.25-1.1,1.85
		c-3.87,6.73-5.73,13.9-4.67,21.68c0.26,1.89,0.85,3.73,1.32,5.58c0.19,0.75,0.73,0.99,1.5,0.84c7.47-1.4,14.93-2.8,22.4-4.18
		c11.6-2.14,23.2-4.27,34.8-6.4c2.73-0.5,5.47-1,8.2-1.53c0.37-0.07,0.8-0.24,1.03-0.52c0.9-1.07,1.13-1.14,2.29-0.4
		c0.18,0.11,0.32,0.27,0.68,0.57c-0.72,0.5-1.31,1.08-2.01,1.34c-1.18,0.44-2.42,0.73-3.65,0.98c-2.23,0.46-4.47,0.92-6.73,1.26
		c-2.44,0.36-4.93,0.45-7.35,0.9c-5.52,1.02-11.02,2.19-16.53,3.29c-6.51,1.3-13.01,2.64-19.53,3.87
		c-4.12,0.78-8.29,1.34-12.42,2.08c-2.32,0.42-4.53-0.18-6.77-0.55c-10.06-1.63-20.11-3.28-30.17-4.93
		c-9.63-1.58-19.26-3.16-28.88-4.74c-9.17-1.5-18.34-3.01-27.52-4.51c-0.15-0.02-0.29-0.07-0.49-0.11c0.36-1.68,0.82-3.32,1.02-4.98
		c0.2-1.6,0.66-2.74,2.2-3.63c1.25-0.72,2.18-2.07,3.1-3.26c0.77-1,0.84-2.25,0.55-3.46c-0.34-1.41-1.94-2.34-3.48-2.1
		c-1.13,0.18-2.01,0.75-2.74,1.6C114.42,148.95,113.37,149.6,111.91,150.1z M122.56,135.7c5.28,0.58,10.56,1.16,15.84,1.74
		c5.89,0.65,11.79,1.31,17.68,1.97c5.28,0.59,10.56,1.16,15.84,1.75c5.89,0.65,11.79,1.31,17.68,1.97
		c5.31,0.59,10.62,1.21,15.93,1.75c2.32,0.24,4.67,0.55,6.98,0.42c3.79-0.21,7.56-0.74,11.34-1.15c5.4-0.58,10.81-1.18,16.21-1.76
		c6.05-0.65,12.1-1.28,18.15-1.96c6.41-0.72,12.81-1.57,19.23-2.16c1.82-0.16,2.71-1.08,3.31-2.47c0.71-1.66-0.07-3.01-1.88-3.2
		c-4.36-0.46-8.74-0.79-13.1-1.21c-8.64-0.83-17.28-1.68-25.92-2.51c-8.03-0.77-16.05-1.52-24.08-2.29
		c-10.55-1.02-21.09-2.06-31.64-3.08c-10.52-1.02-21.03-2.02-31.55-3.01c-0.48-0.05-0.99-0.01-1.47,0.08
		c-8.18,1.46-16.35,2.93-24.53,4.4c-1.69,0.3-3.38,0.62-5.07,0.93c0,0.42-0.03,0.73,0,1.04c0.19,1.79-0.03,3.47-0.9,5.11
		c-0.51,0.96-0.7,2.09-1.08,3.27C120.62,135.46,121.59,135.59,122.56,135.7z"/>
	<path class="st2" d="M69.94,84.48c1.25-1.14,2.31-2.14,3.4-3.08c0.19-0.16,0.59-0.26,0.8-0.17c1.54,0.67,3.14,1.25,4.55,2.13
		c2.47,1.55,3.74,5.26,2.78,8.02c-1.62,4.65-4.78,7.9-9.34,9.82c-2.7,1.14-5.5,1.46-8.35,1.02c-3.69-0.57-6.39-2.79-8.61-5.65
		c-5.57-7.2-0.09-17.78,7.14-19.54c3.18-0.77,5.89,0.31,8.52,1.89c0.47,0.28,0.89,0.64,1.45,1.04c-1.05,0.95-2.02,1.82-3.17,2.86
		c0.12-0.97,0.17-1.83,0.34-2.68c0.1-0.49,0.23-0.95-0.34-1.17c-0.57-0.22-0.97,0.07-1.18,0.59c-1.39,3.41,0.72,7.42,3.83,7.44
		c0.89,0.01,1.79,0.11,2.68,0.12c0.33,0,0.75-0.02,0.97-0.22c0.33-0.29,0.73-0.76,0.7-1.12c-0.05-0.64-0.67-0.52-1.18-0.51
		c-1.19,0.02-2.39,0.02-3.58-0.07C70.98,85.18,70.63,84.85,69.94,84.48z"/>
	<path class="st3" d="M40.82,94.24c-0.07,2.82-0.62,5.25-1.5,7.6c-0.81,2.17-1.73,4.29-2.59,6.44c-0.2,0.51-0.49,0.65-1.07,0.57
		c-5.18-0.76-9.39-3.29-12.86-7.11c-1.64-1.8-3.13-3.7-3.39-6.24c-0.08-0.82-0.13-1.68,0.04-2.48c0.55-2.52,2.58-3.44,4.87-2.22
		c0.73,0.39,1.37,0.95,2.04,1.44c0.35,0.25,0.67,0.59,1.06,0.74c0.37,0.15,0.93,0.28,1.18,0.1c0.3-0.21,0.48-0.76,0.5-1.17
		c0.03-0.83-0.19-1.67-0.12-2.48c0.21-2.42,1.59-4.06,3.79-4.94c1.43-0.57,2.86-0.27,4.14,0.62c2.36,1.63,3.48,3.93,3.7,6.74
		C40.66,92.74,40.76,93.63,40.82,94.24z"/>
	<path class="st4" d="M270.02,213.72c0.45,0.62,0.26,0.98-0.19,1.35c-7.21,5.93-14.42,11.86-21.62,17.79
		c-3.75,3.08-7.5,6.16-11.23,9.27c-0.57,0.48-1.12,0.64-1.85,0.56c-6.94-0.75-13.89-1.47-20.83-2.21
		c-7.37-0.78-14.74-1.58-22.12-2.35c-7.96-0.84-15.92-1.65-23.87-2.48c-9.09-0.96-18.18-1.94-27.28-2.89
		c-7.93-0.83-15.85-1.65-23.78-2.48c-1.75-0.18-3.5-0.38-5.39-0.59c-0.19-9.84-0.38-19.67-0.57-29.63c1.22,0.08,2.31,0.15,3.41,0.24
		c7.24,0.59,14.47,1.2,21.71,1.78c6.47,0.53,12.94,1.03,19.41,1.55c7.24,0.59,14.47,1.2,21.71,1.79c6.47,0.53,12.94,1.03,19.41,1.55
		c7.24,0.59,14.47,1.19,21.71,1.79c5.54,0.45,11.09,0.91,16.63,1.32c0.7,0.05,0.86,0.28,0.87,0.94c0.1,8.87,0.24,17.74,0.36,26.61
		c0,0.34,0.01,0.68,0.05,1.02c0.18,1.4,0.89,1.71,1.99,0.83c1.47-1.18,2.92-2.39,4.37-3.59c8.84-7.26,17.68-14.51,26.52-21.76
		C269.59,214,269.77,213.89,270.02,213.72z M111.23,197.17c-0.07,0.73,0.25,0.96,0.94,1.01c4.1,0.3,8.19,0.64,12.29,0.97
		c5.57,0.45,11.15,0.9,16.72,1.35c6.56,0.53,13.12,1.07,19.68,1.61c5.64,0.46,11.27,0.9,16.91,1.36c6.5,0.53,12.99,1.07,19.49,1.6
		c5.67,0.46,11.33,0.9,17,1.36c7.17,0.59,14.35,1.19,21.52,1.76c0.4,0.03,0.88-0.06,1.22-0.27c11.18-6.81,22.35-13.65,33.54-20.47
		c0.71-0.43,0.81-0.96,0.66-1.71c-0.14,0.05-0.23,0.07-0.31,0.11c-12.63,6.7-25.26,13.41-37.91,20.07
		c-0.64,0.34-1.48,0.52-2.21,0.47c-3.21-0.21-6.4-0.53-9.6-0.82c-6.55-0.59-13.11-1.19-19.66-1.78c-5.08-0.46-10.15-0.91-15.23-1.37
		c-5.88-0.53-11.75-1.07-17.63-1.6c-5.08-0.46-10.15-0.91-15.23-1.37c-5.88-0.53-11.75-1.07-17.63-1.6
		c-5.88-0.53-11.75-1.07-17.63-1.6c-2.27-0.2-4.54-0.4-6.91-0.61C111.24,196.25,111.28,196.72,111.23,197.17z"/>
	<path class="st5" d="M119.82,127.86c0.01,2.87-1.81,5.21-4.13,5.67c-0.61,0.12-1.31,0.06-1.9-0.12c-4.13-1.31-7.31-3.77-9.13-7.79
		c-0.84-1.86-0.81-3.78-0.29-5.7c0.09-0.34,0.48-0.71,0.82-0.84c1.17-0.43,2.12-1.1,2.92-2.05c0.19-0.23,0.68-0.48,0.87-0.38
		c2.8,1.4,5.84,2.39,8.02,4.85C118.75,123.48,119.6,125.79,119.82,127.86z M109.26,101.39c0.23-2.02-0.05-3.95-0.93-5.77
		c-1.38-2.87-4.34-4.48-7.07-3.56c-3.96,1.33-6.58,4.47-4.89,9.12c1.04,2.85,2.7,5.33,4.72,7.58c0.15,0.17,0.51,0.34,0.66,0.27
		c1.78-0.8,3.53-0.73,5.29,0.21C108.18,106.69,108.95,104.11,109.26,101.39z M111.7,115.03c2.01,0.26,4.01,0.69,6.07,0.28
		c3.18-0.63,6-1.89,8.04-4.51c1.28-1.64,1.48-3.43,0.52-5.29c-1.03-2-2.57-3.44-4.93-3.29c-1.47,0.09-2.96,0.56-4.36,1.07
		c-3.22,1.18-5.82,3.21-7.72,6.08c-0.33,0.5-0.61,1.19-0.56,1.76c0.11,1.14,0.46,2.26,0.77,3.62
		C110.13,114.82,110.91,114.93,111.7,115.03z M92.87,105.85c-2.65-1.22-4.9-0.48-6.81,1.47c-1.6,1.64-2.62,3.6-1.91,5.95
		c0.69,2.28,2.5,3.42,4.77,3.68c2.14,0.24,4.3,0.34,6.45,0.36c1.21,0.01,2.42-0.3,3.65-0.46c-0.8-2.99-0.72-3.76,0.58-6.06
		C97.84,108.44,95.45,107.03,92.87,105.85z M100.18,118.43c-2.54,0.31-4.91,1.21-6.95,2.8c-3.7,2.87-3.88,8.59-0.41,11.51
		c1.68,1.41,3.19,1.5,4.97,0.25c1.27-0.89,2.16-2.08,2.83-3.47c1.6-3.28,1.46-6.81,1.59-10.36
		C101.52,118.89,100.81,118.36,100.18,118.43z"/>
	<path class="st6" d="M110.05,174.15c0.17-0.04,0.52-0.24,0.86-0.21c3.51,0.25,7.03,0.53,10.54,0.81c5.02,0.4,10.04,0.81,15.06,1.22
		c6.71,0.54,13.43,1.08,20.14,1.62c5.7,0.46,11.4,0.9,17.1,1.36c7.45,0.6,14.91,1.21,22.36,1.8c5.76,0.46,11.52,0.9,17.28,1.36
		c5.48,0.44,10.96,0.89,16.57,1.34c0,0.35,0.01,0.68,0,1c-0.1,5.66-0.2,11.31-0.31,16.97c-0.01,0.27-0.08,0.54-0.14,0.8
		c-0.2,0.89,0.39,1.47,1.27,1.19c0.38-0.12,0.73-0.34,1.08-0.52c12.41-6.52,24.82-13.05,37.23-19.57c0.19-0.1,0.37-0.23,0.58-0.29
		c0.13-0.04,0.36-0.04,0.41,0.04c0.09,0.13,0.15,0.4,0.08,0.48c-0.34,0.38-0.68,0.82-1.11,1.05c-6.13,3.28-12.27,6.53-18.41,9.78
		c-6.11,3.24-12.22,6.49-18.35,9.7c-0.53,0.28-1.24,0.41-1.84,0.36c-8.86-0.77-17.73-1.57-26.59-2.37
		c-10.31-0.93-20.62-1.86-30.92-2.79c-9.57-0.86-19.14-1.73-28.71-2.59c-10.8-0.98-21.6-1.96-32.4-2.92
		c-0.61-0.05-0.68-0.33-0.68-0.83c-0.04-3.06-0.11-6.12-0.17-9.18c-0.01-0.34-0.08-0.67-0.08-1.01c0-0.33-0.03-0.71,0.13-0.97
		c0.83-1.43,1.16-3,0.75-4.55C111.48,176.19,110.7,175.29,110.05,174.15z M190.32,178.27c-0.42-0.08-0.84-0.17-1.27-0.24
		c-5.42-0.89-10.85-1.78-16.27-2.67c-9.66-1.59-19.32-3.17-28.98-4.76c-9.26-1.52-18.53-3.03-27.79-4.56
		c-1.94-0.32-1.93-0.35-2.78,1.45c-0.69,1.47-1.39,2.94-2.14,4.53c26.49,2.12,52.83,4.23,79.18,6.34
		C190.3,178.33,190.31,178.3,190.32,178.27z M248.7,173.01c-12.04,2.34-24.07,4.69-36.23,7.05c0.29,0.06,0.49,0.12,0.69,0.13
		c5.54,0.44,11.07,0.9,16.62,1.3c0.63,0.05,1.34-0.08,1.92-0.35c5.43-2.51,10.85-5.06,16.26-7.61c0.27-0.13,0.52-0.27,0.79-0.41
		C248.73,173.09,248.71,173.05,248.7,173.01z"/>
	<g>
		<path class="st7" d="M94.63,78.18c-2.8-0.57-5.48-1.07-7.61-3.05c-2.36-2.19-3.2-4.95-3.28-8.04c0.09-0.08,0.18-0.17,0.28-0.25
			c0.11,0.21,0.16,0.49,0.33,0.63c1.38,1.17,2.73,2.4,4.2,3.46C91.18,72.83,93.26,75.14,94.63,78.18z"/>
		<path class="st7" d="M96.56,77.94c-0.27-0.51-0.48-0.9-0.69-1.31c-1.62-3.11-3.89-5.62-6.87-7.48c-1.78-1.11-3.28-2.49-4.38-4.36
			C92.96,65.61,97.53,71.71,96.56,77.94z"/>
	</g>
	<path class="st1" d="M104.22,110.27c1.57,0,2.8,0.95,3.18,2.46c0.4,1.58-0.42,3.39-1.92,4.24c-1.48,0.84-3.06,0.71-4.21-0.34
		c-1.02-0.93-1.44-2.62-0.65-3.91C101.41,111.44,102.45,110.24,104.22,110.27z"/>
	<path class="st8" d="M109.97,227.76c0,2.09,0.02,4.04-0.02,5.98c-0.01,0.33-0.21,0.72-0.45,0.96c-1.69,1.8-3.82,2.91-6.09,3.75
		c-4.74,1.74-9.72,2.35-14.71,2.7c-4.57,0.32-9.12-0.11-13.56-1.39c-0.53-0.15-0.82-0.4-0.96-0.97c-0.46-1.83-0.99-3.63-1.49-5.45
		c-0.08-0.29-0.14-0.58-0.24-1.01c1.47,0.14,2.82,0.26,4.17,0.39c4.02,0.39,8,0.34,12-0.35c6.48-1.12,12.96-2.19,19.31-3.93
		C108.52,228.29,109.1,228.06,109.97,227.76z M111.74,156.91c-0.52,0.07-1.04,0.19-1.53,0.35c-2.21,0.74-3.24,2.67-2.64,4.91
		c0.14,0.51,0.27,1.02,0.33,1.54c0.36,2.82-0.08,5.37-2.45,7.27c-1.7,1.36-3.54,1.27-5.07-0.27c-1.62-1.63-1.95-3.62-1.67-5.82
		c0.13-0.99,0.07-2.02-0.04-3.02c-0.09-0.82-0.55-1.02-1.31-0.67c-1.09,0.49-1.34,1.45-1.33,2.54c0.01,1.02,0.1,2.04,0.04,3.06
		c-0.16,2.38-1.63,3.95-3.69,4.01c-1.69,0.05-2.94-0.81-4.02-1.98c-0.46-0.5-0.86-1.05-1.31-1.56c-0.49-0.54-1.09-0.64-1.77-0.39
		c-1.25,0.45-2.06,1.35-2.51,2.56c-1.37,3.69-0.77,7.22,0.94,10.64c0.12,0.25,0.65,0.49,0.94,0.43c4.38-0.76,8.74-1.63,13.12-2.36
		c3.25-0.54,6.16-1.93,9.09-3.32c0.42-0.2,0.86-0.57,1.07-0.97c1.99-3.9,4.14-7.74,5.17-12.05c0.39-1.64,0.72-3.29,1.12-5.11
		C113.21,156.77,112.47,156.81,111.74,156.91z M67.93,182.9c1.45-0.12,2.89-0.27,4.34-0.34c0.79-0.04,1.12-0.38,1.24-1.15
		c0.12-0.85,0.4-1.68,0.57-2.53c0.46-2.25,0.13-4.44-0.73-6.53c-0.75-1.85-2.53-2.65-4.53-2.41c-1.9,0.23-3.08,1.36-4.2,2.75
		c-0.74,0.93-1.58,1.84-2.53,2.54c-1.59,1.16-3.34,0.97-4.7-0.44c-0.74-0.77-1.23-1.77-1.95-2.57c-0.6-0.67-1.29-1.32-2.07-1.76
		c-0.36-0.2-1.2-0.06-1.47,0.24c-0.27,0.3-0.3,1.12-0.08,1.5c1.38,2.33,2.83,4.63,4.35,6.88c0.71,1.05,1.61,2.03,2.92,2.31
		c2.92,0.62,5.86,1.14,8.79,1.7C67.89,183.04,67.91,182.97,67.93,182.9z M103.3,178.58c-4.22,1.53-8.64,2.25-13.06,2.96
		c-1.63,0.26-3.25,0.55-4.93,0.83c0.69,1.39,1.3,2.67,1.97,3.91c0.12,0.21,0.53,0.42,0.78,0.39c2.84-0.37,5.71-0.64,8.51-1.23
		c3.28-0.69,6.53-1.57,9.74-2.55c1-0.31,1.96-1.06,2.71-1.83c1.45-1.48,1.23-3.74-0.27-5C106.92,176.92,105.17,177.9,103.3,178.58z
		 M95.05,196.08c-0.81,0.18-1.95,0.21-2.3,0.73c-0.38,0.57-0.05,1.64,0.04,2.49c0.17,1.61,0.38,3.21,0.59,4.98
		c2.68-0.7,5.21-1.36,7.74-2.05c0.21-0.06,0.51-0.34,0.51-0.51c-0.06-2.31-0.16-4.61-0.25-7.01
		C99.15,195.19,97.1,195.62,95.05,196.08z M91.52,188.14c0.25,2.18,0.5,4.34,0.74,6.46c0.13,0.04,0.2,0.09,0.25,0.07
		c2.76-0.62,5.53-1.24,8.28-1.89c0.19-0.04,0.46-0.36,0.45-0.54c-0.05-1.84-0.14-3.69-0.22-5.51
		C97.8,187.21,94.7,187.67,91.52,188.14z M70.87,184.6c-2.24-0.06-4.5-0.06-6.73-0.28c-1.53-0.15-3.02-0.6-4.53-0.95
		c-0.51-0.12-0.82-0.01-1.03,0.47c-0.2,0.48-0.52,0.92-0.65,1.42c-0.42,1.58-0.12,2.04,1.48,2.42c3.92,0.92,7.91,0.82,11.89,0.69
		c0.2-0.01,0.51-0.25,0.56-0.44c0.29-1.1,0.52-2.22,0.8-3.45C72.02,184.54,71.44,184.62,70.87,184.6z M100.85,220.2
		c1.57-0.32,1.58-0.35,1.53-1.94c-0.07-1.9-0.16-3.8-0.25-5.74c-2.58,0.64-5.05,1.25-7.6,1.88c0.26,2.27,0.51,4.46,0.78,6.84
		C97.28,220.87,99.07,220.56,100.85,220.2z M101.61,210.5c0.17-0.05,0.39-0.34,0.39-0.52c-0.05-1.93-0.14-3.85-0.22-5.79
		c-2.65,0.63-5.19,1.22-7.72,1.85c-0.17,0.04-0.4,0.39-0.38,0.58c0.18,1.9,0.4,3.79,0.63,5.86
		C96.81,211.81,99.22,211.17,101.61,210.5z M82.11,208.79c-0.05-0.22-0.42-0.52-0.65-0.52c-1.6-0.02-3.2,0.02-4.81,0.07
		c-0.94,0.03-1.88,0.1-2.93,0.17c0.37,1.49,0.71,2.86,1.05,4.22c0.39,1.59,0.4,1.59,1.98,1.63c0.34,0.01,0.68,0.07,1.01,0.06
		c1.75-0.05,3.49-0.12,5.37-0.18C82.77,212.29,82.47,210.54,82.11,208.79z M77.24,222.52c0.05,0.17,0.47,0.36,0.71,0.35
		c1.33-0.05,2.65-0.14,3.98-0.24c0.88-0.06,1.75-0.16,2.73-0.25c-0.39-2.11-0.77-4.13-1.14-6.1c-2.66,0-5.21,0-7.85,0
		C76.19,218.41,76.68,220.47,77.24,222.52z M85.45,215.95c0.38,2.06,0.73,4.03,1.14,5.99c0.04,0.2,0.52,0.47,0.78,0.45
		c1.26-0.11,2.52-0.26,3.76-0.47c2.19-0.38,2.19-0.41,1.99-2.65c-0.01-0.09-0.01-0.19-0.02-0.28c-0.16-1.37-0.33-2.74-0.51-4.27
		C90.12,215.14,87.82,215.53,85.45,215.95z M83.94,207.88c0.4,2.14,0.76,4.09,1.15,6.14c2.47-0.43,4.85-0.84,7.29-1.25
		c-0.24-2.04-0.47-4.02-0.71-6.1C89.01,207.08,86.51,207.47,83.94,207.88z M62.66,197.05c0.05,0.17,0.25,0.39,0.4,0.41
		c1.92,0.24,3.85,0.29,5.86-0.01c-0.57-2.29-1.09-4.47-1.67-6.64c-0.05-0.17-0.39-0.36-0.62-0.37c-1.93-0.16-3.86-0.29-5.95-0.44
		C61.34,192.38,61.99,194.72,62.66,197.05z M79.26,230.64c0.05,0.17,0.33,0.41,0.5,0.41c2.11-0.01,4.23-0.05,6.52-0.09
		c-0.47-2.35-0.89-4.43-1.32-6.59c-2.4,0.15-4.7,0.29-7.17,0.44C78.29,226.83,78.75,228.74,79.26,230.64z M105.95,193.6
		c-0.86,0.27-2.1,0.27-2.5,0.85c-0.43,0.62-0.09,1.78-0.05,2.7c0.06,1.46,0.15,2.92,0.24,4.66c1.89-0.61,3.61-1.14,5.32-1.72
		c0.18-0.06,0.35-0.42,0.35-0.64c0.03-2.28,0.02-4.56,0.02-6.95C108.04,192.92,107,193.27,105.95,193.6z M65.06,205.75
		c0.04,0.15,0.2,0.37,0.33,0.39c1.91,0.24,3.82,0.44,5.87,0.67c-0.62-2.49-1.17-4.76-1.76-7.02c-0.04-0.17-0.32-0.41-0.49-0.41
		c-1.88-0.03-3.75-0.02-5.73-0.02C63.89,201.54,64.47,203.65,65.06,205.75z M102.22,227.86c0.21-0.04,0.52-0.32,0.52-0.49
		c-0.04-1.83-0.13-3.66-0.21-5.49c-2.4,0.45-4.66,0.87-7,1.3c0.22,1.91,0.43,3.8,0.67,5.84C98.3,228.63,100.27,228.27,102.22,227.86
		z M109.04,217.23c0.48-0.21,0.62-0.48,0.61-0.98c-0.05-1.63-0.05-3.27-0.07-4.9c-0.01-0.48-0.06-0.96-0.09-1.45
		c-1.76,0.6-3.42,1.16-5.06,1.75c-0.15,0.05-0.33,0.31-0.32,0.47c0.07,2.33,0.17,4.66,0.28,7.24
		C106.08,218.57,107.55,217.87,109.04,217.23z M73.7,216.65c-0.07-0.24-0.49-0.51-0.77-0.55c-1.04-0.13-2.09-0.16-3.13-0.25
		c-0.63-0.05-1.25-0.14-2.01-0.23c0.66,2.39,1.27,4.62,1.91,6.84c0.05,0.18,0.32,0.42,0.48,0.43c1.66,0.03,3.32,0.02,5.11,0.02
		C74.75,220.76,74.26,218.7,73.7,216.65z M93.61,223.49c-2.24,0.35-4.39,0.68-6.57,1.02c0.38,2,0.75,3.96,1.14,6.03
		c2.08-0.37,4.04-0.72,6.11-1.08C94.05,227.39,93.83,225.45,93.61,223.49z M103.37,185.91c-0.16,0.06-0.39,0.28-0.39,0.42
		c0.05,1.92,0.14,3.84,0.23,6.09c2-0.7,3.79-1.31,5.57-1.97c0.18-0.07,0.35-0.42,0.36-0.64c0.03-1.94,0.02-3.88,0.02-5.82
		C107.14,184.65,105.25,185.27,103.37,185.91z M109.41,225.7c0.18-0.07,0.37-0.36,0.37-0.55c0.03-1.97,0.02-3.93,0.02-5.9
		c-0.31,0-0.41-0.03-0.49,0c-1.5,0.64-3,1.28-4.49,1.94c-0.15,0.07-0.34,0.3-0.34,0.45c0.06,1.84,0.15,3.68,0.24,5.81
		C106.39,226.84,107.91,226.29,109.41,225.7z M109.05,207.83c0.17-0.07,0.38-0.29,0.38-0.44c0.03-1.74,0.02-3.48,0.02-5.21
		c-2,0.54-3.84,1.03-5.75,1.55c0.09,1.95,0.17,3.91,0.27,6.12C105.79,209.12,107.43,208.49,109.05,207.83z M67.11,213.14
		c0.06,0.2,0.28,0.46,0.46,0.49c1.8,0.27,3.61,0.5,5.59,0.76c-0.42-1.67-0.82-3.03-1.08-4.42c-0.19-1.03-0.59-1.49-1.72-1.49
		c-1.52-0.01-3.05-0.26-4.67-0.42C66.18,209.83,66.63,211.49,67.11,213.14z M71.81,230.11c0.06,0.19,0.3,0.45,0.47,0.46
		c1.62,0.13,3.23,0.22,5,0.33c-0.5-2.02-0.96-3.9-1.46-5.76c-0.04-0.16-0.36-0.33-0.56-0.34c-1.6-0.03-3.2-0.02-4.94-0.02
		C70.83,226.63,71.3,228.37,71.81,230.11z M91.46,204.71c-0.31-2.67-0.6-5.16-0.91-7.79c-0.63,0.39-1.51-0.26-1.69,0.73
		c-0.56,3.06-1.91,5.7-4.04,8.1C87.01,205.4,89.22,205.06,91.46,204.71z M71.04,197.33c0.09-2.29,0.19-4.59,0.28-6.86
		c-0.71,0-1.37,0-2.12,0c0.59,2.36,1.16,4.63,1.73,6.89C70.97,197.36,71,197.34,71.04,197.33z M89.28,195.16
		c0.32-0.05,0.66-0.1,1.07-0.15c-0.27-2.25-0.52-4.4-0.78-6.59c-0.48,0.1-0.84,0.17-1.13,0.22C88.72,190.87,89,192.98,89.28,195.16z
		 M73.14,206.2c0.04,0.15,0.28,0.36,0.43,0.36c0.63,0.01,1.26-0.05,1.85-0.09c-1.12-1.48-2.2-2.9-3.29-4.34
		C72.46,203.48,72.78,204.85,73.14,206.2z"/>
	<path class="st1" d="M120.73,72.13c0.78,3.09,2.65,5.24,5.57,6.69c-2.77,1.77-3.01,4.72-3.79,7.65c-1.27-2.86-2.17-5.72-4.68-7.62
		C119.81,77.04,120.06,74.53,120.73,72.13z"/>
	<path class="st1" d="M272.67,235.49c-1.71-4.06-1.71-4.06-4.62-6.1c2.5-1.07,2.97-3.57,4.17-5.88c0.36,2.98,2.37,4.25,4.76,5.43
		C274.46,230.39,273.4,232.73,272.67,235.49z"/>
	<path class="st1" d="M45.92,220.06c1.41-0.84,1.66-2.4,2-3.78c1.05,0.68,2.09,1.35,3.2,2.07c-1.62,1.35-1.7,3.47-1.98,5.59
		C48.05,222.63,47.02,221.39,45.92,220.06z"/>
	<path class="st2" d="M44.76,133.64c1.09,0.99,2.01,1.99,3.08,2.79c1.78,1.32,3.69,1.83,5.75,0.46c0.93-0.62,1.09-1.04,0.62-2.07
		c-0.44-0.98-0.94-1.96-1.2-3c-0.28-1.11-0.32-2.28-0.51-3.7c0.6,0.23,0.88,0.32,1.13,0.45c2.74,1.38,5.29,0.84,7.68-0.81
		c1.38-0.95,1.31-1.73-0.11-2.58c-0.3-0.18-0.56-0.44-1-0.8c0.84-0.1,1.47-0.09,2.04-0.26c1.95-0.58,3.89-1.17,5.79-1.89
		c0.71-0.27,1.11-0.17,1.61,0.31c2.1,2.07,3.08,4.66,3.43,7.52c0.39,3.15,0.14,6.28-0.29,9.41c-0.38,2.78-0.5,5.6-0.84,8.38
		c-0.18,1.43-0.52,2.85-0.94,4.24c-0.42,1.41-1.09,1.82-2.54,1.78c-0.68-0.02-1.36-0.08-2.03-0.2c-3.46-0.6-6.99-0.98-10.37-1.9
		c-4.98-1.35-9.49-3.66-12.85-7.81c-1.19-1.47-2.03-3.09-2.64-4.85c-0.08-0.22,0.01-0.63,0.18-0.79
		C42.27,136.91,43.95,135.61,44.76,133.64z"/>
	<path class="st7" d="M37.32,138.77c-0.26-0.84-0.13-2.02,0.31-3.16c0.29-0.75,0.68-1.46,0.91-2.22c0.15-0.51,0.33-1.27,0.08-1.58
		c-0.26-0.33-1.05-0.43-1.56-0.35c-1.36,0.24-2.7,0.41-4-0.21c-0.54-0.26-1-0.65-1.7-1.12c0.95-0.31,1.64-0.51,2.31-0.77
		c1.68-0.66,3.05-1.67,4.03-3.25c1.49-2.4,3.66-3.82,6.54-3.96c0.65-0.03,1.34,0.15,1.97,0.35c1.46,0.47,2.16,0.06,2-1.45
		c-0.12-1.14-0.47-2.29-0.94-3.34c-0.56-1.26-1.37-2.42-2.05-3.63c-0.21-0.38-0.39-0.78-0.52-1.18c-0.23-0.68-0.47-1.4,0.36-1.88
		c0.67-0.39,1.82-0.15,2.2,0.61c0.34,0.69,0.45,1.51,0.59,2.28c0.23,1.3,0.37,2.61,0.61,3.91c0.07,0.38,0.32,0.74,0.55,1.06
		c0.87,1.18,1.77,1.17,2.7,0.05c0.94-1.13,1.83-2.32,2.92-3.3c0.65-0.59,1.59-1,2.47-1.18c2.67-0.55,4.89-1.59,5.78-4.48
		c1.17,1.46,0.96,3.66-0.39,4.94c-0.13,0.13-0.33,0.21-0.42,0.36c-0.21,0.34-0.57,0.76-0.51,1.06c0.07,0.32,0.53,0.7,0.88,0.79
		c2.8,0.75,5.44,0.46,7.83-1.31c0.24-0.18,0.49-0.36,0.86-0.62c0.29,1.38-0.09,2.49-0.89,3.41c-0.52,0.59-1.16,1.15-1.86,1.5
		c-2.94,1.49-5.98,2.65-9.38,2.49c-0.4-0.02-1.02,0.22-1.16,0.52c-0.17,0.36-0.07,1,0.17,1.35c0.52,0.75,1.2,1.4,1.85,2.12
		c-1.7,1.06-3.45,1.37-5.34,0.45c-0.55-0.27-1.14-0.5-1.74-0.58c-1.15-0.16-1.56,0.31-1.78,1.46c-0.46,2.44,0.22,4.64,1.17,6.82
		c0.1,0.22,0.2,0.44,0.3,0.67c-0.76,0.62-1.55,0.61-2.38,0.26c-1.78-0.75-3-2.13-4.07-3.68c-0.88-1.28-1.57-1.29-2.3,0.04
		c-0.96,1.76-2.12,3.32-3.71,4.56C39.06,137.32,38.17,138.08,37.32,138.77z"/>
	<path class="st3" d="M87.61,158.95c-3.33-2.88-6.46-5.94-7.91-10.27c-0.85-2.53-0.62-5.07,0.56-7.47c0.73-1.48,1.79-1.82,3.3-1.13
		c1.1,0.5,1.8,1.39,2.33,2.43c0.48,0.93,0.84,1.93,1.38,2.82c0.23,0.37,0.78,0.76,1.17,0.75c0.29-0.01,0.75-0.62,0.83-1.01
		c0.47-2.65,2.4-4,4.58-4.95c2.37-1.04,4.76,0.71,4.83,3.29c0.09,3.22-1.16,5.94-3.32,8.2c-2.39,2.49-4.95,4.81-7.45,7.2
		C87.86,158.87,87.76,158.88,87.61,158.95z"/>
	<g>
		<path class="st5" d="M128.97,153.13c-0.93,0.45-1.87,0.9-2.77,1.41c-1.16,0.65-2.22,1.42-3.03,2.49c-0.73,0.95-1.28,1.98-1.3,3.22
			c-0.02,0.93,0.56,1.84,1.42,2.17c0.86,0.33,1.71,0.24,2.54-0.13c1.13-0.51,1.96-1.36,2.69-2.34c1.18-1.57,1.88-3.35,2.14-5.29
			c0.05-0.37,0.18-0.6,0.54-0.75c0.25-0.1,0.49-0.22,0.73-0.35c-0.07,0.71-0.09,1.43-0.06,2.15c0.03,0.63,0.11,1.25,0.34,1.85
			c0.53,1.4,1.86,1.8,3.07,0.93c0.27-0.19,0.51-0.42,0.72-0.67c0.62-0.73,1.09-1.55,1.53-2.39c0.96-1.81,1.61-3.75,2.25-5.69
			c0.06-0.18,0.1-0.31,0.33-0.23c0.61,0.2,1.23,0.39,1.85,0.59c0.33,0.11,0.33,0.11,0.17,0.44c-0.84,1.7-1.41,3.49-1.76,5.6
			c-0.03,0.43-0.11,1.09-0.13,1.76c-0.02,0.77,0.04,1.53,0.36,2.25c0.53,1.15,1.73,1.53,2.81,0.87c0.62-0.37,1.07-0.92,1.48-1.5
			c0.46-0.65,0.86-1.34,1.23-2.03c0.14,1,0.35,1.99,0.86,2.88c0.84,1.48,2.37,1.75,3.68,0.66c0.27-0.22,0.51-0.47,0.74-0.74
			c0.65-0.79,1.13-1.69,1.63-2.57c0.02-0.04,0.04-0.08,0.06-0.12c0.02,0.04,0.03,0.07,0.06,0.11c0.31,0.52,0.63,1.02,0.96,1.52
			c0.12,0.18,0.12,0.29-0.09,0.41c-0.44,0.26-0.81,0.6-1.13,0.99c-0.31,0.38-0.54,0.81-0.6,1.3c-0.15,1.22,0.73,2.38,1.91,2.55
			c1.26,0.18,2.51-0.73,2.73-1.94c0.12-0.68,0-1.31-0.24-1.93c-0.09-0.23-0.02-0.3,0.19-0.35c1.21-0.33,2.41-0.72,3.61-1.12
			c1.07-0.35,2.11-0.76,3.01-1.46c0.51-0.4,0.63-0.91,0.32-1.33c-0.32-0.43-0.78-0.45-1.33-0.04c-0.44,0.34-0.92,0.61-1.44,0.81
			c-1.65,0.65-3.36,1.12-5.05,1.64c-0.14,0.04-0.21,0-0.28-0.12c-0.29-0.47-0.59-0.93-0.89-1.4c-0.38-0.61-0.71-1.25-0.83-1.97
			c-0.24-1.52,0.55-2.62,2.06-2.89c0.13-0.02,0.27-0.03,0.4-0.04c0.92-0.05,1.75,0.44,2.13,1.28c0.11,0.25,0.19,0.51,0.29,0.76
			c0.19,0.43,0.61,0.64,1.01,0.51c0.44-0.14,0.69-0.56,0.57-1.03c-0.45-1.76-1.55-2.86-3.39-3.2c-0.22,0-0.53-0.02-0.83-0.01
			c-2.15,0.12-3.73,1.57-3.95,3.63c-0.05,0.47-0.01,0.92,0.07,1.36c-0.08,0.06-0.16,0.13-0.23,0.22c-0.07,0.1-0.14,0.21-0.2,0.32
			c-0.45,0.8-0.89,1.61-1.39,2.38c-0.31,0.48-0.65,0.94-1.14,1.27c-0.32,0.22-0.56,0.18-0.81-0.11c-0.14-0.16-0.24-0.35-0.32-0.55
			c-0.47-1.22-0.59-2.5-0.65-3.79c-0.01-0.13,0.04-0.19,0.17-0.22c0.86-0.17,1.56-0.63,2.17-1.23c1.64-1.62,2.53-3.63,2.94-5.87
			c0.09-0.57,0.12-1.14,0.02-1.71c-0.32-1.71-1.95-2.37-3.38-1.37c-0.59,0.41-1.05,0.94-1.44,1.54c-1.02,1.57-1.53,3.33-1.89,5.14
			c-0.15,0.77-0.23,1.54-0.27,2.32c-0.4,0.92-0.87,1.8-1.34,2.68c-0.49,0.93-1,1.86-1.76,2.62c-0.15,0.15-0.31,0.37-0.52,0.31
			c-0.25-0.07-0.28-0.35-0.32-0.58c-0.2-1.01-0.07-2.03,0.07-3.03c0.09-0.63,0.24-1.25,0.43-1.86c0.43-1.38,0.95-2.72,1.73-3.95
			c0.31-0.49,0.1-1.12-0.46-1.3c-1.31-0.42-2.62-0.82-3.93-1.24c-0.58-0.18-1.4,0.18-1.48,0.8c-0.05,0.36-0.2,0.71-0.32,1.05
			c-0.6,1.76-1.19,3.52-2.07,5.17c-0.41,0.78-0.83,1.56-1.45,2.2c-0.15,0.15-0.31,0.39-0.54,0.33c-0.25-0.07-0.27-0.35-0.32-0.58
			c-0.2-0.93-0.19-1.87-0.09-2.8c0.13-1.29,0.44-2.55,0.82-3.79c0.1-0.34,0-0.63-0.26-0.86c-0.27-0.23-0.57-0.27-0.89-0.12
			c-0.27,0.12-0.41,0.34-0.5,0.61c-0.17,0.54-0.29,1.1-0.43,1.65c-0.04,0.03-0.08,0.06-0.12,0.09c-0.3,0.27-0.66,0.43-1.01,0.62
			c-0.16,0.09-0.2,0.04-0.19-0.14c0.05-0.54,0.1-1.08,0.12-1.62c0.02-0.7,0.03-1.39,0.02-2.09c-0.01-0.44-0.27-0.79-0.68-0.82
			c-0.35-0.03-0.57-0.18-0.79-0.4c-0.09-0.09-0.2-0.15-0.31-0.22c-1.27-0.74-2.55-0.67-3.83-0.05c-1.35,0.65-2.2,1.77-2.77,3.12
			c-0.39,0.92-0.58,1.87-0.38,2.86c0.36,1.7,2.02,2.46,3.54,1.63c0.56-0.3,1.04-0.7,1.52-1.12c0.69-0.61,1.32-1.27,1.94-1.98
			c-0.04,0.51-0.09,1.01-0.12,1.52C129.25,152.92,129.16,153.04,128.97,153.13z M128.82,155.31c-0.12,0.57-0.3,1.12-0.54,1.65
			c-0.58,1.33-1.36,2.52-2.54,3.41c-0.35,0.26-0.74,0.46-1.18,0.52c-0.78,0.11-1.1-0.22-0.95-1.16c0.18-0.83,0.74-1.62,1.45-2.31
			c1.03-1.01,2.32-1.63,3.59-2.27C128.87,155.06,128.85,155.19,128.82,155.31z M154.89,161.08c0.09-0.06,0.16-0.07,0.21,0.05
			c0.12,0.32,0.22,0.64,0.22,0.93c-0.05,0.36-0.32,0.66-0.62,0.71c-0.27,0.04-0.49-0.04-0.63-0.3c-0.11-0.2-0.1-0.39,0.01-0.58
			C154.27,161.55,154.57,161.3,154.89,161.08z M147.78,152.59c0.31-1.7,0.7-3.37,1.59-4.88c0.25-0.43,0.54-0.83,0.91-1.16
			c0.06-0.05,0.12-0.1,0.18-0.15c0.48-0.33,0.75-0.21,0.82,0.37c0.09,0.77-0.09,1.5-0.32,2.22c-0.45,1.42-1.12,2.72-2.21,3.76
			c-0.25,0.24-0.53,0.42-0.83,0.59c-0.18,0.1-0.26,0.03-0.24-0.15C147.71,152.99,147.75,152.79,147.78,152.59z M128.78,148.98
			c-0.84,1.4-1.92,2.57-3.22,3.55c-0.18,0.13-0.36,0.26-0.57,0.34c-0.38,0.16-0.69,0.04-0.86-0.34c-0.13-0.29-0.16-0.64-0.11-1.12
			c0.38-1.35,0.97-2.57,2.31-3.24c0.63-0.31,1.29-0.39,1.96-0.11c0.15,0.06,0.29,0.15,0.41,0.27
			C128.88,148.53,128.94,148.71,128.78,148.98z"/>
		<path class="st5" d="M133.99,147.56c0.46,0.07,0.86-0.24,0.93-0.7c0.07-0.47-0.24-0.87-0.73-0.94c-0.46-0.07-0.89,0.24-0.96,0.68
			C133.17,147.05,133.51,147.49,133.99,147.56z"/>
		<path class="st5" d="M169.11,152.94c0.46,0.07,0.9-0.24,0.96-0.67c0.07-0.46-0.27-0.91-0.74-0.98c-0.47-0.06-0.86,0.23-0.93,0.7
			C168.32,152.47,168.62,152.87,169.11,152.94z"/>
		<path class="st5" d="M177.18,161.94c0.29-0.31,0.57-0.62,0.89-0.98c-0.02,0.15-0.03,0.25-0.05,0.34
			c-0.23,0.81-0.27,1.64-0.29,2.47c-0.02,0.72,0.05,1.43,0.43,2.08c0.38,0.65,1.06,0.93,1.79,0.73c0.44-0.12,0.82-0.34,1.17-0.63
			c0.98-0.83,1.69-1.89,2.38-2.95c0.2-0.31,0.39-0.63,0.57-0.95c0.05,0.09,0.08,0.17,0.13,0.26c0.31,0.52,0.63,1.02,0.96,1.52
			c0.12,0.18,0.12,0.29-0.09,0.41c-0.44,0.26-0.81,0.6-1.13,0.99c-0.32,0.38-0.54,0.81-0.6,1.3c-0.15,1.22,0.73,2.38,1.91,2.55
			c1.26,0.18,2.51-0.73,2.73-1.95c0.12-0.68,0-1.31-0.24-1.93c-0.09-0.23-0.02-0.3,0.19-0.35c1.21-0.33,2.41-0.72,3.61-1.11
			c0.61-0.2,1.21-0.43,1.78-0.71c-0.05,0.82-0.07,1.65-0.02,2.47c0.06,1.03,0.2,2.05,0.67,2.98c0.69,1.37,1.99,1.69,3.24,0.79
			c0.6-0.43,1.06-0.99,1.48-1.58c0.98-1.39,1.68-2.94,2.31-4.51c0.04-0.1,0.06-0.23,0.07-0.34c0.03-0.39-0.2-0.72-0.57-0.84
			c-0.35-0.11-0.76,0.03-0.95,0.33c-0.08,0.14-0.14,0.29-0.21,0.45c-0.5,1.24-1.06,2.45-1.79,3.58c-0.38,0.6-0.8,1.17-1.39,1.58
			c-0.34,0.23-0.46,0.2-0.66-0.17c-0.24-0.44-0.34-0.92-0.41-1.41c-0.24-1.6-0.16-3.21,0.02-4.8c0.21-1.86,0.54-3.69,1.03-5.5
			c0.05-0.2,0.14-0.24,0.33-0.21c0.75,0.12,1.51,0.23,2.27,0.34c0.76,0.11,1.51,0.23,2.27,0.34c0.51,0.07,0.91-0.27,0.95-0.79
			c0.03-0.45-0.26-0.79-0.76-0.86c-1.39-0.21-2.78-0.41-4.17-0.62c-0.35-0.05-0.35-0.05-0.26-0.38c0.08-0.29,0.19-0.57,0.25-0.86
			c0.09-0.5-0.16-0.89-0.61-1c-0.42-0.1-0.84,0.15-1,0.6c-0.11,0.3-0.2,0.6-0.3,0.91c-0.13,0.4-0.13,0.4-0.54,0.34
			c-0.75-0.11-1.49-0.24-2.24-0.34c-0.67-0.09-1.18,0.47-0.99,1.07c0.11,0.35,0.37,0.56,0.74,0.62c0.72,0.11,1.43,0.22,2.15,0.32
			c0.21,0.03,0.3,0.07,0.24,0.32c-0.24,1.01-0.5,2.01-0.64,3.04c-0.1,0.69-0.2,1.38-0.3,2.07c-0.43,0.33-0.9,0.59-1.4,0.79
			c-1.65,0.65-3.36,1.12-5.05,1.64c-0.14,0.04-0.21,0-0.28-0.12c-0.29-0.47-0.59-0.93-0.89-1.4c-0.38-0.61-0.71-1.24-0.83-1.97
			c-0.24-1.52,0.55-2.62,2.06-2.89c0.13-0.02,0.27-0.03,0.4-0.04c0.92-0.05,1.75,0.44,2.13,1.28c0.11,0.25,0.19,0.51,0.29,0.76
			c0.19,0.43,0.61,0.64,1.01,0.51c0.44-0.14,0.69-0.56,0.57-1.03c-0.45-1.76-1.55-2.86-3.39-3.2c-0.22,0-0.53-0.02-0.83-0.01
			c-2.15,0.12-3.73,1.57-3.95,3.63c-0.04,0.34-0.03,0.67,0,0.99c-0.07,0.06-0.13,0.13-0.18,0.21c-0.05,0.09-0.1,0.19-0.15,0.28
			c-0.61,1.19-1.31,2.32-2.15,3.38c-0.27,0.34-0.57,0.66-0.91,0.93c-0.36,0.28-0.42,0.25-0.5-0.18c-0.03-0.16-0.05-0.33-0.05-0.49
			c-0.03-1.51,0.33-2.95,0.68-4.4c0.26-1.06,0.54-2.12,0.88-3.15c0.11-0.34-0.01-0.63-0.27-0.86c-0.26-0.23-0.56-0.26-0.87-0.12
			c-0.29,0.13-0.53,0.32-0.69,0.6c-0.23,0.41-0.48,0.82-0.71,1.23c-0.6,1.05-1.25,2.07-2.05,2.99c-0.32,0.36-0.65,0.72-1.04,1.01
			c-0.46,0.35-0.66,0.28-0.84-0.26c-0.18-0.58-0.2-1.19-0.14-1.78c0.14-1.29,0.35-2.57,0.7-3.82c0.14-0.53-0.09-0.99-0.58-1.12
			c-0.45-0.12-0.94,0.21-1.06,0.71c-0.33,1.38-0.65,2.77-0.74,4.19c0,0,0,0,0,0c-0.1,0.01-0.19,0.03-0.3,0.07
			c-0.72,0.27-1.46,0.43-2.22,0.54c-0.15,0.02-0.28,0.05-0.25-0.2c0.2-1.57,0.18-3.14,0.22-4.72c0.01-0.48-0.38-0.9-0.8-0.91
			c-0.46-0.01-0.88,0.4-0.89,0.89c-0.01,0.44-0.01,0.89-0.02,1.33c-0.03,1.2-0.05,2.39-0.21,3.58c-0.03,0.21-0.11,0.32-0.33,0.36
			c-1.17,0.26-2.22,0.8-3.15,1.55c-1.03,0.81-1.75,1.82-1.99,3.14c-0.01,0.18-0.01,0.37-0.01,0.55c-0.02,1.93,1.74,3.1,3.51,2.32
			c0.92-0.41,1.57-1.11,2.06-1.97c0.69-1.2,0.99-2.53,1.28-3.86c0.05-0.22,0.12-0.31,0.35-0.34c0.48-0.06,0.96-0.13,1.43-0.22
			c0.48-0.09,0.95-0.22,1.4-0.4c0.06,0.33,0.13,0.65,0.27,0.96c0.57,1.32,1.85,1.71,3.06,0.94
			C176.5,162.6,176.86,162.29,177.18,161.94z M185.93,165.7c0.09-0.06,0.16-0.07,0.21,0.05c0.12,0.32,0.22,0.64,0.22,0.93
			c-0.05,0.36-0.32,0.66-0.62,0.71c-0.27,0.04-0.49-0.04-0.63-0.3c-0.11-0.2-0.1-0.39,0.01-0.58
			C185.32,166.17,185.61,165.92,185.93,165.7z M167.8,162.25c-0.24,0.91-0.47,1.82-0.93,2.64c-0.31,0.56-0.7,1.05-1.31,1.31
			c-0.65,0.28-1.17-0.09-1.13-0.8c0.04-0.76,0.37-1.37,0.89-1.9c0.64-0.65,1.4-1.12,2.25-1.45
			C167.83,161.95,167.85,161.97,167.8,162.25z"/>
		<path class="st5" d="M171.31,189.55c-0.34-0.19-0.78-0.1-1.04,0.24c-0.11,0.14-0.19,0.31-0.27,0.48
			c-0.52,1.07-1.08,2.12-1.73,3.12c-0.22,0.33-0.45,0.66-0.73,0.93c-0.05,0.05-0.09,0.15-0.18,0.11c-0.07-0.03-0.07-0.11-0.07-0.18
			c-0.02-0.21-0.05-0.42-0.06-0.63c-0.08-1.28,0.13-2.55,0.29-3.81c0.05-0.38,0.11-0.76,0.17-1.15c0.12-0.7,0.25-1.41,0.28-2.13
			c0.02-0.46-0.35-0.88-0.8-0.86c-0.29,0.02-0.52-0.06-0.75-0.21c-0.14-0.09-0.29-0.16-0.44-0.21c-1.71-0.52-3.19-0.07-4.45,1.15
			c-0.85,0.83-1.31,1.83-1.47,2.96c-0.01,0.02-0.03,0.03-0.04,0.05c-0.07,0.11-0.12,0.22-0.17,0.34c-0.38,0.89-0.8,1.76-1.31,2.59
			c-0.18,0.29-0.37,0.58-0.65,0.86c-0.12-0.46-0.1-0.88-0.09-1.3c0.04-1.29,0.19-2.57,0.15-3.85c-0.02-0.83-0.08-1.67-0.45-2.44
			c-0.64-1.37-1.9-1.72-3.17-0.91c-0.61,0.39-1.09,0.89-1.51,1.47c-0.41,0.56-0.74,1.17-1.07,1.79c0.02-0.39,0.05-0.76,0.1-1.14
			c0.12-0.87,0.29-1.73,0.43-2.6c0.08-0.5-0.22-0.89-0.67-0.96c-0.48-0.08-0.86,0.19-0.97,0.69c-0.23,1.02-0.4,2.05-0.5,3.09
			c-0.05,0.49-0.1,0.98-0.14,1.47c0,0.01-0.01,0.01-0.01,0.02c-0.06,0.11-0.12,0.22-0.17,0.34c-0.38,0.89-0.8,1.76-1.31,2.59
			c-0.18,0.3-0.37,0.58-0.65,0.86c-0.12-0.46-0.1-0.88-0.09-1.3c0.04-1.28,0.19-2.57,0.15-3.85c-0.02-0.83-0.08-1.67-0.45-2.44
			c-0.64-1.37-1.9-1.72-3.17-0.91c-0.61,0.39-1.09,0.89-1.51,1.47c-0.41,0.56-0.74,1.17-1.07,1.79c0.02-0.39,0.05-0.76,0.1-1.14
			c0.12-0.87,0.29-1.73,0.43-2.6c0.08-0.5-0.22-0.88-0.67-0.96c-0.48-0.08-0.86,0.19-0.97,0.69c-0.23,1.02-0.39,2.05-0.5,3.09
			c-0.04,0.36-0.07,0.72-0.11,1.09c-0.07,0.11-0.14,0.23-0.2,0.35c-0.52,1.07-1.08,2.12-1.73,3.12c-0.22,0.33-0.45,0.66-0.73,0.94
			c-0.05,0.05-0.09,0.15-0.18,0.11c-0.07-0.03-0.07-0.11-0.07-0.18c-0.02-0.21-0.05-0.42-0.06-0.63c-0.08-1.28,0.13-2.55,0.29-3.81
			c0.05-0.38,0.11-0.76,0.17-1.15c0.12-0.7,0.25-1.41,0.28-2.13c0.02-0.46-0.35-0.88-0.8-0.86c-0.29,0.02-0.52-0.06-0.76-0.21
			c-0.14-0.09-0.29-0.16-0.44-0.21c-1.71-0.52-3.19-0.07-4.45,1.15c-0.55,0.53-0.93,1.14-1.18,1.8c-0.65,0.06-1.3-0.01-1.94-0.15
			c-0.25-0.05-0.31-0.18-0.27-0.41c0.07-0.58,0.05-1.16-0.03-1.73c-0.15-1.11-0.48-2.14-1.35-2.91c-0.82-0.73-1.88-0.6-2.53,0.28
			c-0.34,0.46-0.5,0.99-0.52,1.55c-0.04,1.52,0.51,2.78,1.77,3.68c0.21,0.15,0.43,0.29,0.65,0.43c0.11,0.07,0.16,0.14,0.13,0.28
			c-0.13,0.57-0.25,1.15-0.42,1.72c-0.23,0.74-0.5,1.47-0.93,2.12c-0.33,0.51-0.5,0.5-0.82-0.01c-0.03-0.05-0.06-0.1-0.09-0.15
			c-0.34-0.63-0.48-1.33-0.57-2.03c-0.21-1.58-0.1-3.15,0.07-4.72c0.06-0.55-0.27-1.01-0.75-1.12c-0.45-0.1-0.83,0.15-1.04,0.68
			c-0.24,0.61-0.46,1.23-0.72,1.84c-0.52,1.25-1.04,2.5-1.75,3.66c-0.19,0.31-0.39,0.62-0.65,0.89c-0.12,0.12-0.2,0.11-0.24-0.05
			c-0.06-0.2-0.12-0.39-0.16-0.59c-0.15-0.73-0.18-1.48-0.14-2.22c0.03-0.65,0.03-1.29,0.12-1.94c0.15-1.01,0.31-2.03,0.41-3.05
			c0.05-0.5-0.26-0.88-0.71-0.93c-0.44-0.05-0.86,0.27-0.93,0.73c-0.15,0.99-0.31,1.99-0.43,2.98c-0.16,1.26-0.2,2.53-0.1,3.79
			c0.06,0.81,0.19,1.62,0.61,2.34c0.29,0.48,0.68,0.81,1.28,0.83c0.66,0.03,1.12-0.32,1.54-0.75c0.5-0.52,0.87-1.14,1.21-1.77
			c0.21-0.38,0.4-0.76,0.63-1.21c0.06,0.73,0.14,1.38,0.3,2.01c0.21,0.8,0.52,1.56,1.09,2.19c0.75,0.82,1.82,0.9,2.67,0.19
			c0.39-0.33,0.66-0.75,0.9-1.2c0.59-1.11,0.95-2.3,1.19-3.53c0.04-0.21,0.1-0.27,0.33-0.22c0.61,0.15,1.24,0.18,1.87,0.17
			c0,0.07-0.02,0.13-0.02,0.2c-0.02,0.95,0.18,1.83,0.73,2.61c0.78,1.12,1.97,1.34,3.13,0.61c0.52-0.33,0.92-0.76,1.28-1.25
			c0.16-0.22,0.32-0.45,0.48-0.68c-0.01,0.59-0.05,1.17-0.05,1.74c0,0.68,0.02,1.36,0.24,2.01c0.14,0.42,0.36,0.77,0.77,0.98
			c0.63,0.33,1.2,0.16,1.74-0.22c0.53-0.37,0.93-0.87,1.28-1.41c0.18-0.28,0.34-0.56,0.51-0.84c0.01,0.41,0.02,0.83,0.07,1.24
			c0.07,0.53,0.37,0.81,0.81,0.83c0.42,0.02,0.76-0.25,0.89-0.73c0.26-1,0.57-1.99,0.96-2.95c0.46-1.15,0.93-2.3,1.7-3.29
			c0.28-0.36,0.6-0.68,1.01-0.91c0.31-0.17,0.46-0.12,0.62,0.21c0.1,0.21,0.16,0.43,0.2,0.66c0.18,0.96,0.13,1.93,0.07,2.89
			c-0.05,0.93-0.13,1.85-0.11,2.78c0.02,0.65,0.09,1.3,0.44,1.87c0.4,0.65,1.14,0.85,1.82,0.49c0.3-0.16,0.55-0.39,0.78-0.64
			c0.3-0.33,0.55-0.69,0.79-1.07c0.01,0.25,0.02,0.49,0.05,0.74c0.07,0.53,0.37,0.81,0.81,0.83c0.42,0.02,0.76-0.25,0.89-0.73
			c0.26-1,0.57-1.99,0.96-2.95c0.46-1.15,0.93-2.3,1.7-3.29c0.28-0.36,0.6-0.68,1.01-0.91c0.31-0.17,0.46-0.12,0.62,0.21
			c0.1,0.21,0.16,0.43,0.2,0.66c0.18,0.96,0.13,1.93,0.07,2.89c-0.05,0.93-0.13,1.85-0.11,2.78c0.02,0.65,0.09,1.3,0.44,1.87
			c0.4,0.66,1.14,0.85,1.82,0.49c0.3-0.16,0.55-0.39,0.78-0.64c0.55-0.6,0.96-1.29,1.33-2c0.07,0.13,0.13,0.25,0.22,0.37
			c0.78,1.12,1.97,1.34,3.13,0.61c0.52-0.33,0.92-0.76,1.28-1.25c0.17-0.22,0.32-0.45,0.48-0.68c-0.01,0.59-0.05,1.17-0.05,1.74
			c0,0.68,0.01,1.35,0.24,2.01c0.14,0.42,0.36,0.77,0.77,0.98c0.63,0.33,1.2,0.16,1.74-0.22c0.53-0.37,0.93-0.87,1.28-1.41
			c0.69-1.04,1.29-2.13,1.84-3.26c0.11-0.23,0.23-0.45,0.31-0.68C171.85,190.16,171.67,189.75,171.31,189.55z M126.19,184.4
			c-0.1,0.05-0.17-0.07-0.23-0.13c-0.58-0.54-0.82-1.22-0.79-2c0.02-0.17,0.03-0.33,0.1-0.48c0.07-0.15,0.15-0.16,0.26-0.04
			c0.17,0.18,0.29,0.39,0.38,0.61c0.24,0.57,0.33,1.17,0.34,1.78C126.25,184.23,126.29,184.36,126.19,184.4z M135.61,184.69
			c-0.6,1.29-1.24,2.56-2.06,3.72c-0.21,0.29-0.45,0.56-0.74,0.77c-0.45,0.32-0.7,0.28-0.99-0.2c-0.34-0.55-0.41-1.16-0.35-1.79
			c0.14-1.57,1.23-2.84,2.65-3.09c0.5-0.09,0.96-0.03,1.39,0.25C135.63,184.45,135.68,184.53,135.61,184.69z M165.81,187.35
			c-0.6,1.29-1.24,2.56-2.06,3.72c-0.21,0.29-0.45,0.56-0.74,0.77c-0.45,0.32-0.7,0.28-0.99-0.2c-0.34-0.55-0.41-1.16-0.35-1.79
			c0.14-1.57,1.23-2.84,2.65-3.09c0.5-0.09,0.96-0.03,1.39,0.25C165.83,187.1,165.89,187.19,165.81,187.35z"/>
		<path class="st5" d="M201.19,188.73c-0.09,0.14-0.16,0.29-0.22,0.44c-0.66,1.53-1.32,3.06-1.97,4.58
			c-0.26,0.61-0.53,1.22-0.82,1.89c-0.03-0.09-0.05-0.11-0.05-0.14c-0.19-1.68-0.37-3.36-0.56-5.04c-0.07-0.63-0.12-1.27-0.19-1.9
			c-0.05-0.46-0.43-0.79-0.86-0.78c-0.44,0.01-0.75,0.32-0.79,0.8c-0.01,0.13-0.01,0.27,0,0.4c0.09,1,0.2,2.01,0.31,3.01
			c-0.02,0.02-0.04,0.03-0.06,0.06c-0.11,0.14-0.19,0.31-0.27,0.48c-0.52,1.07-1.08,2.12-1.73,3.12c-0.22,0.33-0.45,0.66-0.73,0.93
			c-0.05,0.05-0.09,0.15-0.18,0.11c-0.07-0.03-0.07-0.11-0.07-0.18c-0.02-0.21-0.05-0.42-0.06-0.63c-0.08-1.28,0.13-2.55,0.29-3.81
			c0.05-0.38,0.11-0.76,0.17-1.15c0.12-0.7,0.25-1.41,0.28-2.13c0.02-0.46-0.35-0.88-0.8-0.86c-0.29,0.02-0.52-0.06-0.75-0.21
			c-0.14-0.09-0.29-0.16-0.45-0.21c-1.71-0.52-3.19-0.07-4.45,1.15c-0.64,0.63-1.05,1.36-1.29,2.16c-0.13,0.12-0.21,0.27-0.28,0.43
			c-0.48,1.24-0.98,2.46-1.6,3.64c-0.2,0.38-0.4,0.77-0.67,1.12c-0.04,0.04-0.07,0.11-0.13,0.09c-0.07-0.02-0.06-0.09-0.07-0.14
			c-0.08-0.41-0.07-0.83-0.05-1.24c0.07-1.45,0.19-2.89,0.19-4.34c0-0.71-0.03-1.41-0.27-2.09c-0.26-0.74-0.78-1.13-1.51-1.13
			c-0.38,0-0.72,0.15-1.04,0.34c-0.59,0.35-1.07,0.83-1.51,1.35c-0.43,0.52-0.79,1.09-1.14,1.73c0.14-1.2,0.27-2.33,0.45-3.45
			c0.13-0.81,0.28-1.62,0.42-2.43c0.13-0.76,0.33-1.51,0.4-2.28c0.04-0.48-0.26-0.85-0.71-0.9c-0.45-0.05-0.86,0.27-0.94,0.72
			c-0.23,1.3-0.5,2.6-0.71,3.91c-0.24,1.48-0.44,2.96-0.61,4.45c-0.18,1.53-0.18,3.07-0.23,4.6c-0.02,0.54,0.25,0.93,0.71,1.01
			c0.49,0.08,0.87-0.2,1.04-0.72c0.45-1.42,0.99-2.81,1.69-4.13c0.46-0.88,1.02-1.69,1.83-2.29c0.23-0.17,0.28-0.15,0.33,0.13
			c0.13,0.66,0.12,1.33,0.09,1.99c-0.04,1.21-0.13,2.41-0.19,3.62c-0.03,0.69-0.03,1.38,0.22,2.03c0.45,1.21,1.61,1.52,2.61,0.69
			c0.39-0.32,0.66-0.73,0.91-1.16c0.35-0.6,0.66-1.23,0.95-1.86c0.08,0.16,0.16,0.32,0.27,0.47c0.78,1.12,1.97,1.34,3.13,0.61
			c0.52-0.33,0.92-0.76,1.28-1.25c0.17-0.22,0.32-0.45,0.48-0.68c-0.01,0.59-0.05,1.17-0.05,1.74c0,0.68,0.02,1.35,0.24,2.01
			c0.14,0.42,0.36,0.77,0.77,0.98c0.63,0.33,1.2,0.16,1.74-0.22c0.53-0.37,0.93-0.87,1.28-1.41c0.4-0.61,0.76-1.23,1.11-1.86
			c0.07,0.62,0.14,1.24,0.22,1.86c0.07,0.58,0.15,1.17,0.25,1.75c0.08,0.49,0.38,0.76,0.84,0.82c0.47,0.06,0.78-0.12,1-0.57
			c0.04-0.09,0.08-0.18,0.12-0.27c1.03-2.38,2.05-4.76,3.08-7.14c0.04-0.08,0.04-0.22,0.15-0.22c0.09,0,0.12,0.12,0.17,0.19
			c0.41,0.6,0.87,1.16,1.48,1.58c0.26,0.18,0.53,0.36,0.82,0.49c-0.01,0.12-0.04,0.23-0.04,0.35c-0.03,0.39-0.08,0.77-0.04,1.16
			c0.12,1.34,0.54,2.55,1.48,3.54c0.74,0.78,1.66,1.04,2.7,0.82c0.55-0.11,1.02-0.41,1.45-0.77c1.27-1.07,2.25-2.39,3.12-3.8
			c0.05-0.08,0.09-0.17,0.11-0.27c0.1-0.35-0.01-0.72-0.27-0.92c-0.29-0.22-0.66-0.23-0.98-0.03c-0.17,0.11-0.27,0.28-0.37,0.44
			c-0.79,1.23-1.63,2.41-2.78,3.33c-0.79,0.63-1.47,0.52-2.05-0.31c-0.38-0.54-0.59-1.15-0.69-1.8c-0.04-0.24,0.03-0.34,0.28-0.33
			c0.11,0.01,0.23-0.02,0.35-0.04c1.83-0.37,3.67-1.86,3.62-4.47c-0.02-1.2-1.03-2.07-2.22-1.9c-1.06,0.15-1.81,0.8-2.41,1.63
			c-0.38,0.52-0.66,1.07-0.87,1.64c-0.18-0.11-0.35-0.24-0.5-0.38c-0.61-0.56-1.02-1.26-1.4-1.98c-0.12-0.22-0.23-0.45-0.37-0.66
			C202.21,188.15,201.52,188.18,201.19,188.73z M191.5,189.61c-0.6,1.29-1.24,2.56-2.06,3.72c-0.21,0.29-0.45,0.56-0.74,0.77
			c-0.45,0.32-0.7,0.28-0.99-0.2c-0.34-0.55-0.41-1.16-0.35-1.79c0.14-1.57,1.23-2.84,2.65-3.09c0.5-0.09,0.96-0.04,1.39,0.25
			C191.52,189.36,191.58,189.45,191.5,189.61z M206.25,192.91c0.23-0.82,0.55-1.59,1.14-2.22c0.21-0.22,0.44-0.41,0.72-0.52
			c0.4-0.17,0.59-0.03,0.57,0.41c0,0.07-0.01,0.13-0.02,0.2c-0.1,1.11-1.07,2.15-2.18,2.33
			C206.31,193.14,206.19,193.14,206.25,192.91z"/>
		<path class="st5" d="M148.3,218.47c-0.42,0.37-0.88,0.66-1.39,0.89c-1.61,0.75-3.28,1.32-4.94,1.94c-0.14,0.05-0.21,0.01-0.29-0.1
			c-0.32-0.45-0.65-0.89-0.97-1.34c-0.42-0.59-0.78-1.2-0.94-1.91c-0.33-1.5,0.39-2.65,1.88-3c0.13-0.03,0.27-0.05,0.4-0.07
			c0.91-0.11,1.77,0.34,2.2,1.15c0.13,0.24,0.22,0.5,0.34,0.74c0.22,0.42,0.64,0.6,1.04,0.45c0.43-0.16,0.66-0.6,0.51-1.06
			c-0.55-1.73-1.72-2.76-3.58-2.99c-0.22,0.01-0.53,0.01-0.83,0.04c-2.14,0.25-3.63,1.79-3.73,3.86c-0.01,0.31,0,0.62,0.05,0.91
			c-0.03,0.03-0.06,0.06-0.08,0.1c-0.08,0.14-0.13,0.3-0.18,0.46c-0.43,1.27-0.91,2.51-1.57,3.68c-0.35,0.62-0.72,1.22-1.3,1.66
			c-0.32,0.25-0.45,0.23-0.67-0.13c-0.26-0.43-0.4-0.9-0.5-1.39c-0.33-1.58-0.35-3.19-0.26-4.79c0.09-1.86,0.32-3.72,0.7-5.55
			c0.04-0.2,0.12-0.25,0.31-0.23c0.76,0.07,1.52,0.14,2.28,0.2s1.52,0.14,2.29,0.2c0.52,0.04,0.89-0.33,0.9-0.85
			c0-0.45-0.31-0.77-0.81-0.81c-1.4-0.13-2.8-0.25-4.19-0.37c-0.36-0.03-0.36-0.03-0.28-0.37c0.07-0.29,0.16-0.58,0.19-0.88
			c0.06-0.51-0.21-0.88-0.67-0.96c-0.42-0.07-0.83,0.2-0.96,0.65c-0.09,0.31-0.16,0.62-0.24,0.93c-0.11,0.41-0.11,0.41-0.52,0.37
			c-0.75-0.07-1.5-0.15-2.25-0.2c-0.67-0.05-1.15,0.54-0.93,1.12c0.13,0.34,0.4,0.54,0.77,0.57c0.72,0.06,1.45,0.13,2.17,0.19
			c0.21,0.02,0.3,0.05,0.26,0.31c-0.18,1.02-0.37,2.04-0.45,3.07c-0.01,0.13-0.02,0.26-0.03,0.39c-1.06,0.24-2.06,0.11-2.98-0.53
			c-0.42-0.29-0.86-0.57-1.22-0.93c-0.86-0.86-1.97-0.63-2.7-0.13c-0.32,0.22-0.6,0.49-0.83,0.81c-0.74,1-1.11,2.13-1.29,3.33
			c-0.36,0.76-0.73,1.51-1.15,2.24c-0.28,0.5-0.59,0.98-1.06,1.33c-0.31,0.24-0.55,0.22-0.82-0.06c-0.15-0.15-0.26-0.33-0.35-0.53
			c-0.54-1.19-0.74-2.46-0.87-3.74c-0.01-0.13,0.03-0.19,0.16-0.23c0.84-0.22,1.52-0.72,2.09-1.36c1.54-1.72,2.3-3.78,2.58-6.03
			c0.06-0.57,0.05-1.14-0.09-1.7c-0.42-1.69-2.09-2.25-3.46-1.16c-0.56,0.45-0.99,1-1.34,1.62c-0.93,1.63-1.33,3.42-1.57,5.25
			c-0.25,1.89-0.16,3.76,0.21,5.63c0.21,1.05,0.47,2.08,1.07,2.99c0.93,1.42,2.47,1.6,3.71,0.44c0.26-0.24,0.49-0.5,0.69-0.78
			c0.14-0.2,0.28-0.41,0.41-0.62c0.02,0.05,0.03,0.11,0.05,0.16c0.08,0.21,0.17,0.41,0.28,0.6c0.85,1.46,2.43,1.67,3.64,0.49
			c0.78-0.76,1.22-1.71,1.51-2.74c0.25-0.87,0.32-1.77,0.3-2.67c0-0.15-0.02-0.32,0.23-0.21c0.58,0.26,1.2,0.31,1.82,0.33
			c0.28,0.01,0.57,0,0.85-0.03c-0.03,0.38-0.06,0.76-0.07,1.14c-0.02,1.12-0.01,2.24,0.13,3.36c0.13,1.02,0.32,2.03,0.85,2.94
			c0.77,1.33,2.09,1.57,3.28,0.6c0.57-0.46,1-1.05,1.38-1.67c0.63-1.02,1.11-2.1,1.53-3.21c0.03,0.05,0.05,0.1,0.09,0.15
			c0.34,0.5,0.69,0.98,1.05,1.46c0.13,0.17,0.14,0.28-0.06,0.42c-0.42,0.29-0.77,0.65-1.07,1.06c-0.29,0.4-0.49,0.84-0.52,1.34
			c-0.08,1.23,0.87,2.33,2.06,2.43c1.27,0.1,2.46-0.88,2.6-2.11c0.08-0.69-0.08-1.31-0.36-1.91c-0.1-0.23-0.04-0.3,0.17-0.37
			c1.19-0.4,2.36-0.87,3.53-1.33c1.04-0.41,2.06-0.89,2.92-1.64c0.49-0.43,0.58-0.94,0.24-1.34
			C149.28,218.01,148.82,218.02,148.3,218.47z M118.66,214.97c0.01-0.2,0.03-0.4,0.05-0.61c0.21-1.71,0.5-3.41,1.3-4.96
			c0.23-0.44,0.49-0.86,0.84-1.21c0.05-0.05,0.11-0.11,0.17-0.16c0.46-0.36,0.74-0.25,0.84,0.32c0.14,0.76,0,1.5-0.19,2.23
			c-0.37,1.44-0.95,2.78-1.98,3.89c-0.23,0.25-0.5,0.45-0.79,0.63C118.74,215.22,118.66,215.15,118.66,214.97z M127.24,218.37
			c-0.07,0.65-0.34,1.63-0.94,2.5c-0.14,0.21-0.31,0.39-0.53,0.53c-0.26,0.16-0.44,0.14-0.64-0.1c-0.31-0.36-0.42-0.81-0.49-1.26
			c-0.09-0.57-0.08-1.12-0.02-1.67c0.04-0.1,0.09-0.19,0.13-0.28c0.07-0.18,0.06-0.35,0.01-0.51c0.13-0.53,0.31-1.04,0.57-1.55
			c0.19-0.35,0.42-0.67,0.77-0.89c0.2-0.12,0.37-0.11,0.55,0.05c0.2,0.17,0.31,0.39,0.4,0.63
			C127.28,216.44,127.35,217.15,127.24,218.37z M140.89,225.4c-0.27,0.06-0.49-0.01-0.65-0.26c-0.12-0.19-0.12-0.38-0.02-0.58
			c0.18-0.35,0.46-0.62,0.76-0.86c0.08-0.07,0.16-0.08,0.21,0.03c0.14,0.31,0.26,0.62,0.27,0.92
			C141.44,225.02,141.19,225.34,140.89,225.4z"/>
		<path class="st5" d="M169.99,220.55c-0.18,0.05-0.33,0.15-0.48,0.27c-1.14,0.9-2.4,1.59-3.76,2.1c-0.53,0.2-1.07,0.33-1.63,0.43
			c-0.13,0.02-0.3,0.06-0.24-0.18c0.13-0.53,0.11-1.08,0.25-1.6c0.03-0.14,0.08-0.2,0.23-0.19c0.7,0.04,1.37-0.12,2-0.42
			c2.54-1.19,3.76-3.31,4.18-5.81c0.03-0.58,0.02-1-0.06-1.41c-0.27-1.28-1.27-2.08-2.57-2.06c-0.75,0.01-1.34,0.4-1.87,0.89
			c-0.89,0.82-1.5,1.82-1.97,2.91c-0.36,0.84-0.64,1.7-0.88,2.57c-0.05,0.01-0.1-0.01-0.15,0.01c-1.12,0.29-2.17,0.17-3.13-0.5
			c-0.42-0.29-0.86-0.57-1.22-0.93c-0.86-0.86-1.97-0.64-2.7-0.13c-0.32,0.22-0.6,0.49-0.83,0.81c-0.84,1.14-1.23,2.44-1.36,3.83
			c-0.09,1-0.03,1.99,0.33,2.94c0.08,0.21,0.17,0.41,0.28,0.6c0.85,1.46,2.43,1.67,3.64,0.49c0.78-0.76,1.22-1.71,1.51-2.74
			c0.25-0.87,0.32-1.77,0.3-2.67c0-0.14-0.02-0.32,0.23-0.21c0.58,0.26,1.2,0.31,1.82,0.33c0.29,0.01,0.57,0,0.86-0.03
			c-0.2,1.01-0.37,2.02-0.51,3.04c-0.14,1.07-0.11,2.14-0.04,3.21c0.08,1.16,0.26,2.31,0.73,3.39c0.17,0.39,0.39,0.76,0.7,1.06
			c0.78,0.76,1.87,0.65,2.47-0.26c0.27-0.41,0.42-0.87,0.49-1.35c0.19-1.45-0.21-2.74-1.14-3.86c-0.14-0.17-0.17-0.24,0.08-0.31
			c1.94-0.52,3.63-1.53,5.22-2.71c0.34-0.25,0.43-0.67,0.25-1.04C170.8,220.63,170.4,220.44,169.99,220.55z M164.56,219.41
			c0.22-0.86,0.44-1.73,0.75-2.56c0.41-1.07,0.93-2.09,1.73-2.93c0.18-0.19,0.38-0.36,0.62-0.48c0.41-0.2,0.85-0.05,1.05,0.36
			c0.16,0.32,0.15,0.66,0.15,1.06c-0.37,2.04-1.32,3.74-3.4,4.61c-0.21,0.09-0.44,0.13-0.67,0.18
			C164.57,219.72,164.51,219.63,164.56,219.41z M158.11,221.09c-0.07,0.65-0.34,1.63-0.94,2.5c-0.14,0.21-0.31,0.39-0.53,0.53
			c-0.26,0.16-0.44,0.14-0.64-0.1c-0.31-0.36-0.42-0.81-0.49-1.26c-0.22-1.41,0.03-2.75,0.7-4.01c0.19-0.35,0.42-0.67,0.77-0.89
			c0.2-0.12,0.37-0.11,0.55,0.05c0.2,0.17,0.31,0.39,0.4,0.63C158.15,219.16,158.22,219.87,158.11,221.09z M164.86,228.9
			c-0.03,0.09-0.03,0.23-0.13,0.24c-0.13,0.01-0.15-0.13-0.19-0.22c-0.32-0.66-0.47-1.37-0.57-2.09c-0.04-0.29-0.06-0.59-0.1-0.96
			c0.65,0.64,0.97,1.35,1.05,2.18C164.95,228.33,164.97,228.62,164.86,228.9z"/>
		<path class="st5" d="M222.23,224.81c-0.34-0.41-0.81-0.4-1.32,0.04c-0.42,0.37-0.88,0.66-1.39,0.89
			c-1.61,0.75-3.28,1.32-4.94,1.94c-0.14,0.05-0.21,0.01-0.29-0.1c-0.32-0.45-0.65-0.89-0.97-1.34c-0.42-0.59-0.78-1.2-0.94-1.91
			c-0.33-1.5,0.39-2.65,1.89-3c0.13-0.03,0.27-0.05,0.4-0.07c0.91-0.11,1.77,0.34,2.2,1.15c0.12,0.24,0.22,0.5,0.34,0.74
			c0.22,0.42,0.65,0.6,1.04,0.45c0.43-0.16,0.66-0.6,0.51-1.06c-0.55-1.73-1.72-2.76-3.58-2.99c-0.22,0.01-0.53,0.01-0.83,0.04
			c-2.14,0.25-3.63,1.79-3.73,3.86c0,0.1,0.01,0.19,0.01,0.29c-0.06,0.09-0.13,0.17-0.19,0.26c-0.69,0.87-1.46,1.63-2.52,2.03
			c-0.36,0.14-0.73,0.21-1.11,0.08c-0.71-0.24-1.31-0.65-1.86-1.16c-0.14-0.13-0.14-0.22,0.03-0.33c0.71-0.47,1.35-1.03,1.96-1.62
			c0.65-0.63,1.24-1.31,1.59-2.16c0.22-0.52,0.05-0.97-0.4-1.18c-0.45-0.2-0.9-0.01-1.14,0.49c-0.13,0.27-0.27,0.54-0.46,0.77
			c-0.71,0.89-1.55,1.64-2.49,2.29c-0.07,0.05-0.14,0.14-0.23,0.09c-0.08-0.05-0.03-0.16-0.02-0.24c0.15-1.21,0.26-2.42,0.43-3.63
			c0.18-1.27,0.36-2.54,0.7-3.79c0.09-0.35-0.06-0.72-0.35-0.91c-0.32-0.2-0.71-0.17-1,0.07c-0.2,0.17-0.3,0.4-0.36,0.65
			c-0.23,0.97-0.41,1.95-0.55,2.93c-0.15,1.09-0.3,2.17-0.41,3.14c-1.07,0.25-2.08,0.12-3-0.52c-0.42-0.29-0.86-0.57-1.22-0.93
			c-0.86-0.86-1.97-0.64-2.7-0.13c-0.32,0.22-0.6,0.49-0.83,0.81c-0.01,0.01-0.02,0.03-0.03,0.05c-0.18-0.07-0.39-0.1-0.62-0.04
			c-1.12,0.29-2.17,0.17-3.13-0.5c-0.42-0.29-0.86-0.57-1.22-0.93c-0.86-0.86-1.98-0.64-2.7-0.13c-0.32,0.22-0.6,0.49-0.83,0.81
			c-0.09,0.13-0.16,0.26-0.24,0.39c-0.6-0.04-1.2,0.02-1.79,0.1c-0.25,0.03-0.34-0.04-0.39-0.28c-0.08-0.46-0.25-0.9-0.5-1.29
			c-0.57-0.93-1.37-1.48-2.5-1.45c-0.87,0.02-1.54,0.44-2.14,1.03c-0.28,0.28-0.51,0.6-0.79,0.98c0.13-0.96,0.24-1.84,0.37-2.72
			c0.08-0.53,0.2-1.06,0.29-1.59c0.12-0.65,0.26-1.29,0.35-1.94c0.07-0.49-0.23-0.85-0.69-0.92c-0.43-0.07-0.86,0.25-0.96,0.7
			c-0.16,0.77-0.31,1.53-0.45,2.3c-0.34,1.85-0.56,3.71-0.77,5.57c-0.17,1.5-0.22,3.01-0.21,4.52c0,0.76,0.04,1.53,0.09,2.29
			c0.03,0.55,0.42,0.9,0.92,0.89c0.7-0.02,1-0.27,1.04-0.9c0.01-0.28-0.01-0.56-0.01-0.87c0.86,0.5,1.22,0.6,1.82,0.54v0
			c1.01-0.09,1.8-0.62,2.5-1.3c1-0.98,1.55-2.18,1.74-3.55c0.02-0.16,0.06-0.28,0.25-0.3c0.35-0.04,0.7-0.08,1.06-0.1
			c-0.17,0.56-0.29,1.14-0.35,1.74c-0.09,1-0.03,1.99,0.33,2.94c0.08,0.21,0.17,0.41,0.28,0.6c0.85,1.46,2.43,1.67,3.64,0.49
			c0.78-0.76,1.22-1.71,1.51-2.74c0.25-0.87,0.32-1.77,0.3-2.67c0-0.14-0.02-0.32,0.23-0.21c0.58,0.26,1.2,0.31,1.82,0.33
			c0.29,0.01,0.57,0,0.85-0.03c-0.22,0.65-0.36,1.33-0.43,2.03c-0.09,1-0.03,1.99,0.33,2.94c0.08,0.21,0.17,0.41,0.28,0.6
			c0.85,1.46,2.43,1.67,3.64,0.49c0.78-0.76,1.22-1.71,1.51-2.74c0.25-0.87,0.32-1.77,0.3-2.67c0-0.14-0.02-0.32,0.23-0.21
			c0.58,0.26,1.2,0.31,1.82,0.33c0.29,0.01,0.58,0,0.86-0.03c-0.14,1.72-0.22,3.28-0.19,4.82c0.01,0.57,0,1.14,0.09,1.71
			c0.06,0.36,0.27,0.6,0.62,0.69c0.33,0.08,0.61-0.02,0.84-0.27c0.19-0.22,0.21-0.48,0.2-0.76c-0.06-1.03-0.1-2.06-0.05-3.1
			c0-0.08-0.04-0.2,0.06-0.23c0.09-0.03,0.14,0.08,0.2,0.14c0.51,0.46,1.06,0.84,1.67,1.15c1.1,0.57,2.21,0.55,3.32,0.04
			c0.76-0.35,1.4-0.86,2-1.43c0.08-0.08,0.15-0.16,0.23-0.24c0.16,0.34,0.34,0.68,0.55,1c0.34,0.5,0.69,0.98,1.05,1.46
			c0.13,0.17,0.14,0.28-0.06,0.42c-0.42,0.29-0.77,0.65-1.07,1.06c-0.29,0.4-0.49,0.84-0.52,1.34c-0.08,1.23,0.87,2.33,2.05,2.43
			c1.27,0.1,2.46-0.88,2.61-2.11c0.08-0.69-0.08-1.31-0.36-1.91c-0.1-0.23-0.04-0.3,0.17-0.37c1.19-0.4,2.36-0.87,3.53-1.33
			c1.05-0.41,2.06-0.89,2.92-1.64C222.47,225.73,222.57,225.21,222.23,224.81z M181.88,222.85c-0.28,1.01-0.83,1.83-1.68,2.43
			c-0.31,0.22-0.64,0.39-0.98,0.38c-0.51-0.04-0.69-0.32-0.56-0.75c0.11-0.38,0.35-0.67,0.63-0.92c0.7-0.63,1.51-1.03,2.4-1.31
			C181.87,222.62,181.94,222.62,181.88,222.85z M181.73,220.91c-1.36,0.32-2.56,0.96-3.64,1.85c0.28-1.08,0.68-2.09,1.42-2.95
			c0.15-0.17,0.31-0.32,0.5-0.44c0.52-0.36,1.14-0.26,1.5,0.26c0.2,0.29,0.32,0.62,0.4,0.96
			C181.95,220.76,181.91,220.87,181.73,220.91z M188.94,223.8c-0.07,0.65-0.34,1.63-0.94,2.5c-0.14,0.21-0.31,0.39-0.53,0.53
			c-0.26,0.16-0.44,0.14-0.64-0.1c-0.31-0.36-0.42-0.81-0.49-1.26c-0.22-1.41,0.03-2.75,0.7-4.01c0.19-0.35,0.42-0.67,0.77-0.89
			c0.2-0.12,0.37-0.11,0.55,0.05c0.2,0.17,0.31,0.39,0.4,0.63C188.98,221.87,189.05,222.58,188.94,223.8z M197.47,224.55
			c-0.07,0.65-0.34,1.63-0.94,2.5c-0.14,0.21-0.31,0.39-0.53,0.53c-0.26,0.16-0.44,0.14-0.64-0.1c-0.31-0.36-0.42-0.81-0.49-1.26
			c-0.22-1.41,0.03-2.75,0.7-4.01c0.19-0.35,0.42-0.67,0.77-0.89c0.2-0.12,0.37-0.11,0.56,0.05c0.2,0.17,0.31,0.39,0.4,0.63
			C197.51,222.62,197.58,223.33,197.47,224.55z M213.5,231.79c-0.27,0.06-0.49-0.01-0.65-0.26c-0.12-0.19-0.12-0.38-0.02-0.58
			c0.18-0.35,0.46-0.62,0.76-0.86c0.08-0.07,0.16-0.08,0.21,0.03c0.14,0.31,0.26,0.62,0.27,0.92
			C214.04,231.41,213.79,231.72,213.5,231.79z"/>
	</g>
	<path class="st5" d="M59.51,135.31c-0.12,0.61-0.85,0.89-1.41,0.86c-0.93-0.04-1.38-0.97-1.62-1.75c-0.13-0.42-0.22-0.85-0.3-1.28
		c-0.06-0.3-0.52-1.1-0.16-1.32c0.42-0.26,0.97,0.31,1.25,0.56c0.65,0.56,1.25,1.22,1.82,1.87c0.16,0.19,0.31,0.4,0.38,0.64
		C59.53,135.04,59.54,135.18,59.51,135.31z M52.05,141.9c-0.36-0.33-0.79-0.01-0.78,0.54c0.01,0.46,0.04,0.93,0.12,1.38
		c0.09,0.56,0.17,1.13,0.39,1.64c0.28,0.64,0.88,0.84,1.55,0.73c0.58-0.1,0.78-0.53,0.84-1.13
		C53.91,143.75,53.02,142.78,52.05,141.9z M64.79,135.18c1.47,0.17,1.44-1.51,0.82-2.38c-0.36-0.51-0.89-0.87-1.41-1.21
		c-0.28-0.18-1.23-0.99-1.55-0.74c-0.21,0.16,0.11,1.05,0.2,1.31c0.22,0.68,0.49,1.34,0.8,1.99c0.24,0.49,0.49,0.92,1.06,1.02
		C64.73,135.17,64.76,135.18,64.79,135.18z M58.37,145.84c-0.46-0.16-0.75,0.08-0.69,0.52c0.12,0.83,0.22,1.69,0.55,2.44
		c0.21,0.47,0.78,0.87,1.29,1.1c0.66,0.3,1.15-0.13,1.16-0.85C60.68,148.25,59.17,146.12,58.37,145.84z M68.67,150.4
		c-0.22-0.74-0.66-1.4-1.23-1.92c-0.25-0.23-0.54-0.44-0.84-0.6c-0.16-0.09-0.65-0.38-0.84-0.27c-0.19,0.12-0.02,0.92,0,1.09
		c0.06,0.47,0.14,0.95,0.29,1.4c0.24,0.67,0.68,1.41,1.4,1.65c0.67,0.22,1.31-0.33,1.25-1.01C68.7,150.65,68.71,150.52,68.67,150.4z
		 M60.35,138.83c-0.47-0.11-0.72,0.12-0.61,0.59c0.14,0.6,0.27,1.22,0.52,1.78c0.22,0.5,0.53,0.99,0.92,1.37
		c0.2,0.19,0.72,0.23,0.98,0.1c0.26-0.12,0.39-0.54,0.47-0.67C62.64,141.01,61.1,139,60.35,138.83z M67.11,140.48
		c-0.67-0.41-0.44,0.41-0.37,0.82c0.06,0.39,0.13,0.79,0.22,1.18c0.16,0.69,0.45,1.48,1.16,1.77c0.49,0.21,1.24,0.2,1.49-0.35
		c0.02-0.05,0.04-0.1,0.05-0.16C69.99,142.32,68.13,141.11,67.11,140.48z M45.75,138.65c-0.54-0.16-0.72,0.15-0.66,0.62
		c0.07,0.58,0.12,1.19,0.32,1.73c0.18,0.48,0.47,0.99,0.85,1.31c0.24,0.2,0.78,0.19,1.13,0.08c0.24-0.08,0.37-0.48,0.46-0.61
		C47.84,141.1,46.21,138.79,45.75,138.65z M66.78,125.74c-0.22-0.13-1.15-0.69-1.29-0.27c-0.07,0.21,0.2,0.63,0.29,0.8
		c0.3,0.57,0.66,1.11,1.02,1.65c0.32,0.48,0.64,1.16,1.34,0.96c0.3-0.08,0.54-0.31,0.71-0.57c0.08-0.13,0.15-0.27,0.16-0.42
		C69.03,126.88,67.49,126.15,66.78,125.74z M70.6,135.62c-0.45-0.46-0.9-0.92-1.41-1.3c-0.07-0.05-0.58-0.39-0.66-0.4
		c-0.34-0.05-0.05,0.7,0.05,0.95c0.22,0.54,0.47,1.08,0.74,1.6c0.19,0.37,0.42,1.02,0.81,1.23c0.14,0.08,0.31,0.11,0.47,0.12
		c0.14,0.01,0.28-0.01,0.4-0.08c0.1-0.06,0.18-0.16,0.24-0.25c0.11-0.17,0.18-0.32,0.2-0.46C71.56,136.46,71.04,136.07,70.6,135.62z
		"/>
	<path class="st5" d="M209.55,152.06c0.96-1.6,1.75-2.99,2.64-4.31c0.19-0.29,0.73-0.45,1.13-0.49c8.44-0.94,16.89-1.85,25.33-2.76
		c8.32-0.9,16.65-1.78,24.97-2.67c3.62-0.39,7.25-0.79,10.87-1.19c0.18-0.02,0.36-0.02,0.68-0.03c-0.17,1.55-0.31,3.04-0.49,4.53
		c-0.67,5.74-1.36,11.47-2,17.21c-0.08,0.75-0.34,1.04-1.07,1.18c-19.02,3.46-38.03,6.95-57.04,10.43c-2.13,0.39-4.25,0.77-6.37,1.2
		c-0.57,0.11-0.84,0.01-1-0.58c-0.83-3.22-1.44-6.45-1.09-9.8c0.05-0.53,0.15-0.81,0.79-0.87c4.43-0.4,8.85-0.84,13.28-1.27
		c0.63-0.06,1.22-0.2,1.16-1c-0.06-0.77-0.68-0.78-1.25-0.73c-3.75,0.34-7.5,0.7-11.25,1.05c-0.73,0.07-1.46,0.13-2.51,0.22
		c0.82-2.96,1.6-5.76,2.31-8.3c2.07-0.21,3.83-0.37,5.59-0.58c6.07-0.72,12.14-1.44,18.21-2.17c5.95-0.72,11.89-1.44,17.84-2.16
		c2.24-0.27,4.48-0.54,6.72-0.79c0.65-0.07,1.23-0.24,1.18-1c-0.06-0.8-0.7-0.82-1.33-0.75c-4.51,0.53-9.01,1.06-13.52,1.6
		c-4.91,0.59-9.81,1.18-14.71,1.77c-4.97,0.6-9.93,1.2-14.9,1.79C212.44,151.74,211.15,151.88,209.55,152.06z M212.99,158.77
		c1.65-0.19,2.97-0.33,4.29-0.49c5.06-0.59,10.12-1.19,15.18-1.77c5.06-0.58,10.12-1.15,15.18-1.74c5.15-0.59,10.3-1.2,15.45-1.8
		c2.3-0.27,4.6-0.52,6.9-0.8c0.58-0.07,1.15-0.27,1.06-1.01c-0.09-0.73-0.66-0.81-1.26-0.74c-1.07,0.11-2.15,0.24-3.22,0.36
		c-4.6,0.54-9.2,1.07-13.79,1.61c-4.54,0.53-9.08,1.05-13.61,1.58c-5.09,0.59-10.18,1.17-15.27,1.76
		c-3.56,0.41-7.11,0.84-10.67,1.25c-0.58,0.07-1.13,0.28-0.99,0.93C212.32,158.3,212.82,158.59,212.99,158.77z M210.3,169.33
		c5.75-0.75,11.63-1.52,17.51-2.29c10.71-1.41,21.42-2.83,32.14-4.25c0.89-0.12,1.78-0.23,2.66-0.36c0.6-0.09,1.12-0.31,1.04-1.04
		c-0.08-0.7-0.63-0.75-1.19-0.72c-0.12,0.01-0.25,0.03-0.37,0.04c-6.3,0.82-12.61,1.63-18.91,2.47c-11.05,1.46-22.09,2.94-33.14,4.4
		c-0.66,0.09-1.31,0.22-1.23,1.05C208.89,169.44,209.57,169.38,210.3,169.33z M243.53,159.1c0.07,0.01,0.14,0.01,0.21,0
		c5.18-0.59,10.37-1.13,15.56-1.69c1.26-0.14,2.52-0.24,3.76-0.45c0.33-0.06,0.7-0.37,0.89-0.66c0.11-0.17-0.04-0.71-0.21-0.8
		c-0.35-0.18-0.81-0.26-1.21-0.22c-4.32,0.44-8.64,0.92-12.96,1.39c-1.93,0.21-3.86,0.41-5.79,0.64c-0.98,0.12-1.24,1.01-0.47,1.66
		C243.36,159.03,243.43,159.07,243.53,159.1z M237.25,158c-0.48-0.16-1.07,0.01-1.55,0.07c-0.68,0.09-1.35,0.18-2.03,0.27
		c-1.39,0.19-2.77,0.38-4.15,0.57c-1,0.14-1.99,0.27-2.99,0.43c-0.98,0.15-1.83,0.11-2.35,1.06c-0.01,0.03-0.03,0.06-0.03,0.09
		c0,0.04,0.03,0.07,0.05,0.09c0.72,0.79,1.16,0.69,2.14,0.55c3.54-0.49,7.08-0.98,10.62-1.47c0.89-0.12,1.41-1.15,0.41-1.63
		C237.33,158.03,237.29,158.02,237.25,158z M263.23,148.19c0,0.01,0,0.02,0,0.03c2.32-0.31,4.64-0.61,6.95-0.92
		c0.55-0.08,0.93-0.37,0.86-0.98c-0.07-0.63-0.54-0.81-1.08-0.74c-2.41,0.29-4.83,0.58-7.23,0.96c-0.34,0.05-0.82,0.6-0.85,0.96
		c-0.06,0.61,0.52,0.74,1.06,0.72C263.04,148.2,263.13,148.19,263.23,148.19z M266.93,161.91c1.13-0.18,2.52-0.03,3.06-1.21
		c0.01-0.03,0.02-0.05,0.02-0.08c0-0.04-0.02-0.07-0.05-0.1c-0.62-0.8-2.09-0.59-2.91-0.26c-0.3,0.12-0.62,0.29-0.75,0.61
		C266.1,161.41,266.6,161.58,266.93,161.91z"/>
	<path class="st5" d="M238.11,212.68c-0.33-2,0.03-3.27,1.92-4.4c9.25-5.47,18.38-11.15,27.55-16.76c0.26-0.16,0.52-0.3,0.9-0.52
		c0.02,0.36,0.05,0.63,0.05,0.89c-0.1,6.58-0.22,13.17-0.31,19.75c-0.01,0.68-0.21,1.13-0.75,1.56
		c-9.45,7.73-18.88,15.48-28.32,23.23c-0.19,0.15-0.39,0.29-0.77,0.57c0-0.51,0-0.85,0-1.2c-0.09-6.68-0.17-13.35-0.3-20.03
		c-0.01-0.75,0.23-1.19,0.84-1.56c4.66-2.86,9.3-5.75,13.95-8.63c0.16-0.1,0.31-0.2,0.48-0.29c0.51-0.3,0.86-0.72,0.53-1.29
		c-0.37-0.65-0.93-0.46-1.45-0.14c-0.95,0.58-1.89,1.18-2.83,1.76c-3.57,2.22-7.14,4.43-10.71,6.65
		C238.68,212.41,238.43,212.52,238.11,212.68z M255.41,216.17c-0.04-0.97-0.81-1.24-1.55-0.72c-1.22,0.84-2.42,1.72-3.61,2.6
		c-3.58,2.64-7.15,5.28-10.72,7.93c-0.49,0.36-0.96,0.85-0.43,1.47c0.51,0.59,0.98,0.13,1.44-0.21c1.98-1.48,3.95-2.96,5.95-4.4
		c2.68-1.93,5.4-3.8,8.08-5.73C254.95,216.83,255.21,216.4,255.41,216.17z M265.14,214.52c0-0.79-0.49-1.17-1.09-0.99
		c-0.34,0.11-0.67,0.32-0.97,0.53c-3.72,2.6-7.43,5.21-11.14,7.83c-0.33,0.23-0.72,0.45-0.91,0.77c-0.17,0.29-0.26,0.83-0.1,1.06
		c0.15,0.2,0.73,0.25,1.03,0.13c0.47-0.19,0.86-0.58,1.3-0.88c3.76-2.59,7.53-5.17,11.28-7.78
		C264.84,215,265.02,214.67,265.14,214.52z M263.35,204.46c0.01-0.04,0.01-0.09-0.01-0.13c-0.08-0.23-0.23-0.44-0.44-0.56
		c-0.35-0.2-0.99-0.08-1.33,0.13c-2.94,1.82-5.84,3.69-8.76,5.55c-1,0.64-2.33,1.07-2.43,2.39c0,0.03-0.01,0.07,0.01,0.1
		c0.02,0.03,0.05,0.05,0.08,0.06c0.82,0.41,1.21,0.08,1.89-0.34c3.3-2.05,6.61-4.09,9.91-6.16
		C262.53,205.35,263.28,204.85,263.35,204.46z M240.81,219.41c0.39-0.21,0.72-0.35,1.03-0.55c1.91-1.25,3.82-2.51,5.73-3.77
		c0.44-0.29,0.95-0.52,1.27-0.92c0.22-0.27,0.3-0.83,0.16-1.13c-0.1-0.21-0.66-0.25-1.03-0.27c-0.18-0.01-0.38,0.18-0.56,0.3
		c-2.19,1.44-4.39,2.89-6.58,4.34c-0.23,0.15-0.52,0.3-0.63,0.53c-0.13,0.28-0.19,0.67-0.09,0.94
		C240.19,219.1,240.55,219.23,240.81,219.41z M257.65,215.23c0.4-0.21,0.73-0.36,1.04-0.55c1.36-0.85,2.73-1.67,4.06-2.57
		c1.07-0.72,2.08-1.52,3.09-2.33c0.45-0.36,0.69-0.95,0.15-1.33c-0.28-0.19-0.95-0.1-1.29,0.12c-1.37,0.88-2.67,1.86-4,2.79
		c-1.11,0.78-2.26,1.5-3.34,2.32c-0.23,0.17-0.36,0.63-0.34,0.94C257.02,214.83,257.4,215.01,257.65,215.23z M257.04,202.89
		c0.35,0.02,0.73-0.24,1.01-0.41c0.86-0.55,1.72-1.11,2.57-1.68c0.4-0.26,0.92-0.53,1.13-0.98c0.25-0.53,0.08-1.18-0.59-1.14
		c-0.71,0.04-1.33,0.58-1.91,0.94c-0.86,0.53-2.82,1.25-2.85,2.45c-0.01,0.26,0.09,0.53,0.3,0.69
		C256.8,202.85,256.91,202.89,257.04,202.89z M241.15,231.56c0.25-0.11,0.45-0.14,0.58-0.25c0.99-0.83,2-1.63,2.93-2.53
		c0.19-0.19,0.22-0.85,0.04-1.03c-0.19-0.21-0.84-0.29-1.05-0.12c-1.06,0.83-2.06,1.74-3.04,2.67c-0.16,0.15-0.16,0.6-0.06,0.84
		C240.63,231.33,240.96,231.43,241.15,231.56z M263.38,199.02c0.7-0.02,1.52-0.8,2.01-1.19c0.16-0.13,0.16-0.69,0.01-0.89
		c-0.15-0.2-0.64-0.35-0.87-0.25c-0.62,0.25-1.22,0.6-1.74,1.01c-0.3,0.24-0.28,0.81-0.04,1.06
		C262.93,198.96,263.15,199.03,263.38,199.02z M248.36,225.61c0.01-0.58-0.57-0.99-1.08-0.69c-0.52,0.31-1.02,0.7-1.44,1.14
		c-0.45,0.48-0.18,1.17,0.44,1.26C246.93,227.41,248.35,226.24,248.36,225.61z M265.69,202.71c-0.02-0.07-0.05-0.13-0.09-0.18
		c-0.49-0.59-1.89,0.22-1.78,0.88c0.01,0.06,0.04,0.11,0.07,0.16C264.5,204.59,265.98,203.71,265.69,202.71z"/>
	<path class="st5" d="M268.78,169.54c0.09,3.48,0.11,6.85,0.29,10.21c0.06,1.07-0.28,1.55-1.2,2.03
		c-11.77,6.14-23.51,12.34-35.26,18.51c-0.29,0.15-0.59,0.29-0.95,0.46c0-0.9-0.07-1.7,0.04-2.48c0.04-0.28,0.5-0.57,0.83-0.72
		c5.54-2.57,11.1-5.13,16.65-7.68c0.46-0.21,1.18-0.66,1.25-1.24c0.09-0.74-1.15-0.75-1.67-0.52c-0.78,0.35-1.56,0.72-2.34,1.08
		c-1.53,0.7-3.05,1.41-4.58,2.11c-3.05,1.41-6.1,2.81-9.15,4.21c-0.28,0.13-0.56,0.24-0.96,0.41c0-1-0.05-1.91,0.03-2.81
		c0.02-0.23,0.4-0.5,0.67-0.63c2.08-0.95,4.17-1.87,6.25-2.81c0.28-0.13,0.64-0.23,0.79-0.45c0.18-0.27,0.3-0.7,0.21-0.98
		c-0.08-0.22-0.51-0.43-0.79-0.45c-0.31-0.02-0.65,0.15-0.96,0.29c-2,0.88-3.99,1.78-6.15,2.74c0-0.43-0.01-0.72,0-1.01
		c0.04-1.88,0.12-3.77,0.1-5.65c-0.01-0.69,0.23-1.03,0.84-1.32c7.36-3.43,14.76-6.78,22.03-10.39c2.01-1,4.02-1.33,6.15-1.6
		c2.32-0.29,4.62-0.75,6.93-1.13C268.11,169.67,268.38,169.62,268.78,169.54z M233.66,185.79c0.4-0.16,0.7-0.25,0.97-0.38
		c4.16-2.02,8.33-4.03,12.49-6.06c0.62-0.3,1.52-0.58,1.07-1.5c-0.44-0.9-1.21-0.41-1.84-0.1c-4.17,2.01-8.33,4.03-12.49,6.05
		c-0.25,0.12-0.57,0.23-0.69,0.43c-0.17,0.28-0.29,0.69-0.21,0.99C233.03,185.47,233.43,185.62,233.66,185.79z M253.14,182.93
		c0.34-0.1,0.56-0.14,0.75-0.23c4.29-2.05,8.58-4.1,12.87-6.16c0.53-0.26,0.87-0.66,0.58-1.26c-0.3-0.61-0.84-0.52-1.36-0.31
		c-0.17,0.07-0.34,0.15-0.5,0.23c-3.98,1.91-7.97,3.81-11.95,5.72c-0.28,0.13-0.62,0.25-0.78,0.47c-0.18,0.24-0.3,0.64-0.22,0.91
		C252.59,182.57,252.94,182.75,253.14,182.93z M266.27,179.75c-0.31-0.03-0.66,0.11-0.95,0.23c-2.54,1.1-5.08,2.2-7.62,3.32
		c-0.55,0.24-1.64,0.62-1.59,1.38c0.01,0.25,0.17,0.48,0.39,0.59c0.26,0.13,0.57,0.09,0.84-0.01c2.45-0.89,4.83-2.11,7.22-3.14
		c0.65-0.28,1.34-0.49,1.94-0.86c0.38-0.23,0.55-0.84,0.3-1.22C266.67,179.86,266.48,179.77,266.27,179.75z M250.28,177.95
		c0.36-0.12,0.6-0.17,0.82-0.28c2.43-1.22,4.85-2.45,7.27-3.68c0.53-0.27,0.87-0.68,0.59-1.27c-0.31-0.67-0.89-0.56-1.43-0.29
		c-2.43,1.22-4.85,2.45-7.27,3.68c-0.19,0.1-0.42,0.22-0.5,0.39c-0.12,0.26-0.24,0.62-0.14,0.84
		C249.73,177.61,250.07,177.77,250.28,177.95z M243.03,187.9c0.28-0.08,0.47-0.1,0.63-0.18c1.8-0.95,3.6-1.89,5.38-2.86
		c0.5-0.27,0.76-0.81,0.38-1.23c-0.24-0.26-0.93-0.4-1.26-0.25c-1.64,0.77-3.23,1.66-4.83,2.52c-0.29,0.16-0.64,0.32-0.81,0.57
		c-0.16,0.24-0.21,0.65-0.12,0.92C242.48,187.62,242.84,187.75,243.03,187.9z M252.92,187.7c0.11-0.01,0.22-0.05,0.31-0.12
		c0.28-0.22,0.64-0.62,0.67-1.01c0.04-0.48-0.36-0.88-0.83-0.66c-0.72,0.34-1.09,0.89-0.53,1.58c0.06,0.07,0.12,0.14,0.2,0.17
		C252.8,187.69,252.86,187.7,252.92,187.7z"/>
	<path class="st9" d="M114.28,102.49c-1.02-2.03-1.82-4.21-3.73-6.07c0.98,3.14,0.47,6.01-0.21,8.95
		C111.71,104.36,112.97,103.44,114.28,102.49z M118.93,117.02c-1.58,0.09-3,0.17-4.26,0.24c1.54,1.33,3.14,2.71,4.85,4.19
		C119.32,119.94,119.13,118.47,118.93,117.02z M119.22,148.53c-0.55-0.44-1.5-0.23-2.19,0.42c-0.2,0.19-0.37,0.42-0.58,0.6
		c-0.54,0.46-1.02,1.06-1.65,1.33c-2.09,0.92-4.21,1.75-6.35,2.54c-0.73,0.27-1.41-0.27-1.3-0.96c0.06-0.36,0.33-0.71,0.59-1
		c1.81-2.02,4.02-3.72,5.23-6.22c1.47-3.05,2.84-6.16,4.24-9.25c0.16-0.34,0.24-0.72,0.39-1.22c-1.68,0.78-3.22,0.75-4.77,0.22
		c-3.81-1.31-6.88-3.57-8.99-7.05c-0.15-0.25-0.31-0.49-0.54-0.85c-0.15,0.49-0.26,0.84-0.37,1.18c-0.81,2.53-2.03,4.78-4.32,6.29
		c-1.78,1.17-3.64,1.51-5.59,0.44c-2.15-1.18-3.6-2.98-4.15-5.33c-0.93-3.96,0.23-7.31,3.36-9.95c0.22-0.19,0.45-0.37,0.85-0.7
		c-0.64,0-1.07,0.06-1.48-0.01c-1.73-0.29-3.51-0.42-5.16-0.97c-3.03-1-4.76-4.24-4.16-7.33c1.2-6.13,7.41-8.95,12.8-5.8
		c0.49,0.29,0.99,0.56,1.55,0.89c-0.69-1.47-1.42-2.8-1.95-4.2c-1.31-3.43-0.56-6.55,2.08-8.94c2.11-1.91,4.48-3.05,7.34-2.43
		c-6.69-5.24-14.48-7.19-22.9-7.24c0.18,0.27,0.37,0.54,0.55,0.82c1.97,3.08,2.49,6.33,0.83,9.68c-3.04,6.14-7.91,9.79-14.83,10.55
		c-3.87,0.43-7.37-0.42-10.44-2.84c-3.48-2.75-5.94-6.12-6.17-10.73c-0.07-1.33,0.14-2.68,0.25-4.32c-3.02,1.76-5.9,3.42-8.75,5.14
		c-0.21,0.13-0.25,0.63-0.26,0.96c-0.08,1.87,0.03,3.77-0.22,5.62c-0.45,3.4-1.9,6.51-3.17,9.65c-0.41,1.03-0.96,2-1.5,2.97
		c-0.5,0.89-1.02,0.92-1.72,0.18c-0.14-0.15-0.33-0.29-0.52-0.33c-1.99-0.5-3.99-0.98-6.22-1.53c-0.61,1.98-1.4,4.1-1.91,6.28
		c-1.87,7.95-1.11,15.83,1.25,23.51c2.12,6.89,5.27,13.33,10.41,18.57c1.15,1.17,2.54,2.12,3.91,3.06c1.18,0.81,2.68,1.1,3.62,2.31
		c0.38,0.49,0.67,0.94,0.21,1.47c-0.45,0.52-0.95,0.46-1.57,0.12c-2.14-1.21-4.44-1.68-6.84-0.99c-1.37,0.39-2.21,1.78-2.15,3.22
		c0.05,1.12,0.72,1.76,2.28,2.18c0.27,0.07,0.54,0.14,0.82,0.16c1.11,0.06,2.22,0.12,3.33,0.16c1.51,0.05,2.6,0.85,2.73,2.35
		c0.1,1.1-0.16,2.25-0.33,3.36c-0.16,1.03-0.5,2.04-0.6,3.07c-0.08,0.89,0.23,1.73,1.15,2.14c0.76,0.33,1.94,0.05,2.5-0.76
		c0.55-0.79,1.08-1.7,1.25-2.63c0.33-1.75,0.33-3.56,0.57-5.34c0.29-2.17,2.14-3.28,4.21-2.56c1.24,0.43,2.31,1.17,3.03,2.32
		c0.44,0.71,0.85,1.44,1.38,2.08c1.09,1.3,2.17,1.37,3.38,0.18c0.73-0.71,1.37-1.51,1.98-2.32c1.2-1.59,2.8-2.45,4.75-2.77
		c2.92-0.48,5.57,0.86,6.73,3.57c0.93,2.19,1.36,4.52,0.95,6.88c-0.36,2.06-0.88,4.1-1.41,6.13c-1.03,3.99-1.9,8.01-1.57,12.16
		c0.21,2.69,0.89,5.24,2.86,7.26c2.25,2.3,5.17,2.31,7.46,0.04c2.58-2.57,3.63-5.75,3.74-9.3c0.14-4.47-1.61-8.34-4.03-11.91
		c-1.66-2.45-2.69-5.05-2.96-7.97c-0.24-2.51-0.01-4.95,1.26-7.18c2.03-3.57,5.53-3.83,8.05-0.63c0.38,0.48,0.83,0.93,1.33,1.27
		c1.55,1.04,2.89,0.52,3.22-1.3c0.17-0.92,0.11-1.9,0.04-2.85c-0.19-2.56,1.06-4.55,3.25-5.04c1.59-0.36,3,0.46,3.21,2.08
		c0.18,1.39,0.2,2.82,0.08,4.22c-0.13,1.48,0.1,2.77,1.13,3.85c0.82,0.86,1.6,0.99,2.42,0.15c0.73-0.74,1.35-1.69,1.71-2.66
		c0.52-1.4,0.19-2.88-0.26-4.27c-0.7-2.15-0.14-3.93,1.43-5.49c0.97-0.97,2.1-1.63,3.45-1.85c1-0.16,2.02-0.31,3.03-0.37
		c2.88-0.17,4.51-2.08,5.9-4.26C119.8,149.96,119.95,149.11,119.22,148.53z M74.57,139.18c-0.29,3.54-0.68,7.06-1.11,10.59
		c-0.13,1.06-0.47,2.11-0.84,3.12c-0.77,2.08-2.26,2.97-4.49,2.78c-0.77-0.07-1.54-0.14-2.3-0.27c-3.46-0.61-6.99-1-10.36-1.91
		c-5.56-1.51-10.51-4.18-13.98-9c-0.93-1.29-1.62-2.75-2.47-4.21c-0.13,0.29-0.23,0.66-0.45,0.95c-0.29,0.39-0.64,0.96-1,0.99
		c-0.39,0.03-0.98-0.39-1.19-0.78c-0.96-1.77-1.24-3.67-0.67-5.64c0.23-0.79,0.51-1.56,0.74-2.28c-0.92-0.06-1.81-0.07-2.68-0.19
		c-1.83-0.25-3.16-1.3-4.17-2.81c-0.62-0.93-0.37-1.67,0.69-1.99c0.68-0.21,1.37-0.36,2.05-0.57c1.64-0.51,2.97-1.37,3.93-2.89
		c1.69-2.68,4.14-4.3,7.33-4.64c0.93-0.1,1.89-0.02,2.98-0.02c-0.19-0.5-0.36-1.17-0.68-1.76c-0.77-1.41-1.61-2.78-2.4-4.17
		c-0.21-0.37-0.36-0.78-0.5-1.19c-0.56-1.7-0.21-2.92,1.08-3.74c1.19-0.76,3.12-0.51,4.2,0.54c1.05,1.03,1.29,2.32,1.32,3.73
		c0.02,0.92,0.17,1.84,0.3,2.75c0.05,0.36,0.23,0.69,0.41,1.21c0.4-0.51,0.75-0.89,1.02-1.31c1.28-2.06,3.17-3.29,5.5-3.76
		c2.16-0.44,3.76-1.4,4.57-3.55c0.26-0.68,0.72-1.35,1.62-1.32c0.91,0.03,1.32,0.72,1.66,1.43c0.94,1.95,1.11,3.9-0.08,5.83
		c-0.11,0.17-0.18,0.37-0.3,0.62c1.68,0.1,3.21-0.09,4.56-1.06c0.4-0.29,0.8-0.58,1.19-0.89c1.53-1.19,2.44-0.88,2.82,1.04
		c0.42,2.09-0.19,3.91-1.67,5.44c-0.21,0.22-0.44,0.42-0.58,0.55c0.87,1.24,1.79,2.39,2.53,3.65c1.24,2.09,1.76,4.43,1.77,6.83
		C74.93,133.89,74.79,136.54,74.57,139.18z M96.57,152.85c-2.41,2.51-4.99,4.86-7.51,7.26c-0.92,0.87-1.44,0.89-2.74-0.2
		c-3.3-2.79-6.35-5.81-7.98-9.93c-1.31-3.31-1.14-6.6,0.48-9.76c1.06-2.07,2.93-2.7,5.09-1.88c1.26,0.48,2.23,1.32,2.95,2.43
		c0.42,0.64,0.77,1.33,1.24,2.13c0.96-1.82,2.46-2.95,4.07-3.93c1.83-1.11,3.81-1.23,5.64-0.18c1.78,1.02,2.57,2.72,2.59,4.81
		C100.45,147.25,99.02,150.3,96.57,152.85z"/>
</g>
</svg>
