<?xml version="1.0" encoding="utf-8"?>
<!-- Generator: Adobe Illustrator 28.0.0, SVG Export Plug-In . SVG Version: 6.00 Build 0)  -->
<svg version="1.1" id="Layer_1" xmlns="http://www.w3.org/2000/svg" xmlns:xlink="http://www.w3.org/1999/xlink" x="0px" y="0px"
	 viewBox="0 0 300 300" style="enable-background:new 0 0 300 300;" xml:space="preserve">
<g>
	<path d="M240.64,85.76c0.18-0.1,0.3-0.16,0.41-0.23c2.34-1.68,4.78-0.84,6.26,0.55c0.63,0.59,1.32,0.91,2.16,1.09
		c1.21,0.26,1.99,1.03,2.34,2.24c0.27,0.91,0.58,1.81,0.9,2.71c0.42,1.17,0.27,2.3-0.24,3.4c-0.48,1.02-1,2.03-1.54,3.11
		c0.82-0.05,1.56-0.14,2.29-0.14c1.46,0,2.62,0.55,3.36,1.88c0.46,0.83,1.14,1.42,2.02,1.83c1.75,0.81,2.38,2.04,2.26,3.97
		c-0.06,0.97-0.09,1.96-0.01,2.93c0.15,1.84-0.59,3.17-2.12,4.14c-2.08,1.31-4.41,1.75-6.78,2.11c-0.2,0.03-0.39,0.08-0.71,0.14
		c0.87,0.58,1.64,1.08,2.39,1.6c2.08,1.42,3.47,3.4,4.48,5.66c0.12,0.26,0.22,0.55,0.23,0.84c0.08,1.68,0.19,3.37,0.16,5.05
		c-0.02,1.02-0.75,1.72-1.57,2.27c-0.9,0.61-1.8,1.21-2.69,1.84c-1.5,1.07-3.13,0.86-4.75,0.47c-2.54-0.61-4.78-1.86-6.86-3.42
		c-0.18-0.14-0.37-0.27-0.56-0.41c-0.23,1.37-0.41,2.71-0.7,4.02c-0.36,1.65-1.03,3.18-2.19,4.45c-1.49,1.63-3.35,2.16-5.42,1.54
		c-1.39-0.42-2.69-0.63-4.11-0.18c-1.41,0.44-2.62,0.09-3.4-1.29c-0.09-0.16-0.22-0.29-0.35-0.43c-0.03-0.03-0.09-0.04-0.28-0.13
		c0.16,3.91,0.02,7.73-1.67,11.43c3.3,0,6.46,0,9.61,0c0.02-0.05,0.06-0.1,0.05-0.14c-0.58-2.02,0.83-4.07,3.41-3.88
		c1.54,0.11,3.04,0.6,4.56,0.94c0.29,0.07,0.57,0.21,0.71,0.26c-0.54-1.93-1.17-3.89-1.61-5.89c-0.23-1.01-0.27-2.12-0.14-3.15
		c0.31-2.45,2.83-3.45,4.77-1.9c0.56,0.45,1.04,1.08,1.36,1.73c0.9,1.82,1.69,3.7,2.54,5.59c0.08-0.27,0.14-0.61,0.27-0.93
		c0.5-1.25,0.87-2.59,1.59-3.7c0.54-0.84,1.45-1.58,2.36-2.04c1.92-0.97,3.81,0.18,4.04,2.32c0.24,2.23-0.28,4.32-1.18,6.33
		c-0.17,0.39-0.37,0.76-0.64,1.31c0.41-0.12,0.69-0.21,0.97-0.29c1.75-0.52,3.54-0.71,5.35-0.43c0.74,0.11,1.49,0.39,2.16,0.75
		c1.54,0.81,1.92,2.26,1.04,3.76c-0.74,1.27-1.81,2.17-3.24,2.53c-1.41,0.36-2.85,0.59-4.17,0.86c0.86,0.69,1.85,1.41,2.75,2.23
		c0.74,0.68,1.42,1.43,2.03,2.23c0.79,1.05,1.31,2.23,0.56,3.54c-0.57,0.99-2.08,1.43-3.58,1.11c-1.8-0.38-3.2-1.49-4.6-2.58
		c-0.19-0.15-0.36-0.31-0.55-0.45c-0.03-0.03-0.1-0.01-0.21-0.02c0.1,0.9,0.25,1.79,0.29,2.68c0.25,5.59,0.52,11.19,0.01,16.78
		c-0.16,1.78-0.61,3.49-1.56,5.05c-0.78,1.29-1.87,1.93-3.42,1.9c-3-0.05-6-0.02-9-0.02c-0.21,0-0.42,0.02-0.63,0.03
		c0.17,1.78,0.37,3.54,0.49,5.3c0.33,4.92,0.8,9.85,0.39,14.78c-0.22,2.63-0.67,5.25-1.16,7.85c-0.26,1.36-0.86,2.64-2.2,3.35
		c-0.33,0.18-0.74,0.32-1.11,0.32c-11.67,0.01-23.35-0.01-35.02,0c-0.24,0-0.66,0.22-0.69,0.39c-0.39,2.42-2.12,3.79-3.94,5.05
		c-0.73,0.51-1.58,0.83-2.32,1.21c0.73,0.93,1.58,1.88,2.26,2.93c1.97,3.05,1.45,6.26-1.07,8.36c-0.75,0.63-1.11,1.45-1.25,2.41
		c-0.14,0.97-0.32,1.94-0.59,2.88c-0.59,2.07-1.86,3.51-4.06,3.91c-1.08,0.2-1.67,0.82-1.95,1.84c-0.11,0.41-0.24,0.81-0.39,1.21
		c-0.74,1.93-2.08,3.05-4.22,2.97c-1.16-0.04-2.17,0.28-3.13,0.94c-1.58,1.07-3.31,1.3-5.17,0.84c-2.33-0.57-4.31-1.74-6.06-3.34
		c-0.27-0.25-0.54-0.5-0.89-0.82c-0.15,0.61-0.27,1.13-0.41,1.65c-0.99,3.48-4.12,6.27-7.4,6.62c-1.46,0.16-2.79-0.13-4-0.98
		c-0.28-0.2-0.59-0.37-0.85-0.58c-0.9-0.73-1.84-0.81-2.89-0.34c-1.52,0.67-3.13,0.79-4.76,0.51c-1.41-0.24-2.5-1.03-3.28-2.2
		c-0.8-1.21-1.88-1.87-3.31-1.88c-3.09-0.02-4.66-1.94-5.69-4.52c-1.05-2.62-1.19-5.31-0.53-8.04c0.02-0.1,0.03-0.21,0.05-0.38
		c-0.34,0-0.64-0.01-0.95,0c-1.46,0.04-2.84-0.2-4.14-0.91c-0.3-0.16-0.7-0.2-1.06-0.21c-5.17-0.13-10.33-0.24-15.5-0.36
		c-0.61-0.01-1.22-0.09-1.83-0.1c-5.33-0.07-10.66-0.05-15.99-0.22c-4.76-0.16-9.53-0.46-14.28-0.85c-2.53-0.21-5.05-0.64-7.55-1.12
		c-3.08-0.6-5.91-1.83-8.44-3.73c-6.83-5.13-11.25-11.92-13.84-19.99c-1.04-3.22-1.4-6.5-1.37-9.87c0.06-9.78,0.69-19.52,2.07-29.19
		c0.58-4.06,0.72-8.06,0.3-12.12c-0.54-5.15-2.87-9.24-6.89-12.43c-2.65-2.11-5.62-3.69-8.6-5.26c-1.05-0.56-2.11-1.12-3.09-1.79
		c-1.86-1.28-2.98-3.04-2.55-5.35c0.44-2.34,2.07-3.83,4.28-4.48c3.06-0.91,6.17-0.88,9.28-0.13c5.68,1.38,9.96,4.69,13.43,9.31
		c4.59,6.11,6.53,13.12,7.33,20.55c0.55,5.07-0.11,10.07-1.06,15.03c-1.82,9.48-3,19.02-2.84,28.68c0.03,2.17,0.17,4.35,0.38,6.51
		c0.3,3.02,1.61,5.67,3.54,7.95c1.48,1.76,3.12,3.4,4.8,4.97c1.74,1.63,3.85,2.25,6.25,1.8c1.17-0.22,2.01-0.83,2.67-1.82
		c1.85-2.78,2.25-5.86,2.21-9.12c-0.09-6.58-0.18-13.16-0.04-19.73c0.05-2.46,0.74-4.91,1.14-7.37c0.04-0.26,0.11-0.51,0.19-0.91
		c-0.57,0-1.05-0.01-1.54,0c-1.37,0.04-2.74,0.13-4.11,0.12c-0.37,0-0.81-0.24-1.1-0.5c-1.49-1.38-2.14-3.25-2.51-5.14
		c-1.18-5.91-2.13-11.86-1.39-17.93c0.24-2,0.31-4.04,0.76-5.98c0.37-1.57,1.07-3.11,1.89-4.51c0.52-0.89,1.48-1.56,2.31-2.24
		c0.26-0.22,0.75-0.21,1.13-0.21c3.66-0.01,7.32,0,10.99,0c0.12,0,0.25-0.03,0.45-0.06c-1.48-3.45-2.94-6.85-4.3-10.02
		c-0.7,1.34-1.41,2.97-2.38,4.43c-0.66,0.99-1.6,1.85-2.57,2.55c-1.41,1.01-2.56,0.8-3.73-0.48c-0.33-0.36-0.64-0.49-1.11-0.36
		c-0.33,0.09-0.68,0.13-1.02,0.14c-1.31,0.05-2.05-0.46-2.41-1.72c-0.15-0.53-0.36-0.86-0.91-1.06c-1.08-0.39-1.64-1.2-1.45-2.36
		c0.21-1.26,0.68-2.49,1.05-3.72c0.07-0.24,0.21-0.47,0.35-0.79c-1.01,0.37-1.9,0.76-2.83,1.01c-1.69,0.46-3.3,0.4-4.68-0.9
		c-0.74-0.7-1.16-1.51-1.08-2.54c0.03-0.42-0.03-0.66-0.49-0.83c-1.02-0.4-1.32-1.05-1.19-2.15c0.05-0.49-0.05-1,0.02-1.48
		c0.09-0.61,0.16-1.29,0.48-1.78c0.49-0.74,1.19-1.34,1.81-2c0.23-0.24,0.49-0.46,0.8-0.75c-0.81-0.19-1.55-0.25-2.18-0.54
		c-1.05-0.48-2.12-0.99-3.01-1.7c-1.1-0.89-1.18-1.98-0.48-3.21c0.34-0.6,0.41-1.09-0.01-1.67c-0.7-0.97-0.75-1.95,0.12-2.89
		c0.14-0.15,0.25-0.36,0.28-0.56c0.18-1.48,1.14-2.39,2.35-3c1.24-0.62,2.57-1.06,3.85-1.58c-0.46-0.66-1.06-1.38-1.5-2.17
		c-0.37-0.66-0.63-1.4-0.8-2.14c-0.17-0.75,0.13-1.38,0.82-1.83c0.23-0.15,0.37-0.53,0.41-0.82c0.05-0.39-0.13-0.81-0.05-1.18
		c0.12-0.52,0.27-1.11,0.61-1.49c0.63-0.69,1.37-1.29,2.12-1.86c1.11-0.84,2.39-0.93,3.62-0.39c1.21,0.52,2.34,1.23,3.51,1.85
		c0.27,0.15,0.54,0.32,0.89,0.52c-0.14-0.97-0.36-1.83-0.36-2.69c0-0.99,0.1-2.01,0.36-2.96c0.25-0.94,0.98-1.51,1.95-1.82
		c0.46-0.15,0.85-0.55,1.25-0.87c0.16-0.13,0.25-0.34,0.38-0.51c1.2-1.67,2.98-2,4.74-0.9c1.27,0.79,2.06,1.97,2.68,3.28
		c0.41,0.85,0.74,1.74,1.13,2.67c0.39-1.01,0.72-1.97,1.13-2.9c0.79-1.8,2.07-3.05,4.01-3.57c1.47-0.39,2.45-0.05,3.27,1.24
		c0.27,0.42,0.53,0.47,0.98,0.39c1.77-0.29,2.7,0.37,3.06,2.15c0.49,2.48,0.46,4.96-0.24,7.4c-0.09,0.3-0.14,0.6-0.25,1.04
		c1.09-0.86,2.08-1.6,3.02-2.41c0.17-0.14,0.17-0.53,0.17-0.8c0.01-4.06,0.05-8.12,0.79-12.13c0.01-0.08,0.01-0.16,0.04-0.23
		c0.61-1.36,0.33-2.48-0.93-3.31c-0.61,0.39-1.24,0.89-1.95,1.23c-2.5,1.19-5.11,1.52-7.82,0.89c-0.72-0.17-1.46-0.27-2.19-0.41
		c-1.07-0.21-1.49-0.64-1.44-1.74c0.11-2.4,0.46-4.75,1.7-6.9c-0.81-0.48-1.67-0.87-2.37-1.45c-1.4-1.13-2.72-2.36-4.05-3.57
		c-0.48-0.43-0.59-0.99-0.31-1.6c1.07-2.28,2.42-4.38,4.46-5.91c0.91-0.68,2-1.12,3.21-1.78c0-1.09-0.05-2.46,0.01-3.82
		c0.08-1.7,0.93-3.13,1.77-4.55c0.38-0.64,1-0.72,1.68-0.53c3.43,0.92,6.12,2.85,7.97,5.9c0.09,0.16,0.19,0.31,0.26,0.43
		c0.46-0.75,0.85-1.55,1.39-2.22c1.96-2.44,4.54-3.09,7.5-2.34c3.06,0.77,2.51,1.1,2.49,3.19c-0.02,2.45-0.21,4.87-1.17,7.04
		c1.26,0.5,2.53,0.86,3.65,1.5c1.75,1,2.81,2.71,3.86,4.37c0.43,0.68,0.2,1.4-0.27,2c-1.1,1.4-2.44,2.5-4.06,3.24
		c-0.5,0.23-1.02,0.43-1.74,0.72c0.39,0.04,0.57,0.07,0.76,0.07c1.01,0,2.02-0.01,3.02,0c2.39,0.02,4.77,0.08,7.16,0.08
		c28.23-0.02,56.46-0.05,84.7-0.08c7.48-0.01,14.96,0.08,22.44-0.04c2.67-0.04,4.45,1.17,5.65,3.27c1.04,1.8,1.75,3.79,2.6,5.7
		C240.5,85.25,240.55,85.46,240.64,85.76z M207.6,117.57c-0.55,0-0.86,0-1.18,0c-5.12,0.01-10.24,0.03-15.36,0.03
		c-8.81,0-17.62-0.02-26.42-0.01c-0.25,0-0.66,0.26-0.74,0.49c-0.32,0.92-0.66,1.86-0.79,2.82c-0.57,4.44-0.48,8.89-0.24,13.34
		c0.08,1.53,0.35,3.06,0.7,4.55c0.77,3.22,1.67,6.41,2.47,9.62c0.13,0.52,0.45,0.43,0.78,0.43c18.12,0,36.24,0,54.36,0.01
		c0.6,0,0.96-0.22,1.12-0.78c0.37-1.27,0.95-2.53,1.05-3.82c0.23-2.87,0.21-5.77,0.29-8.65c0-0.15-0.04-0.32-0.11-0.46
		c-0.88-1.84-0.85-3.8-0.76-5.77c0.01-0.19,0-0.38,0-0.65c-0.29,0.21-0.48,0.35-0.68,0.49c-3.28,2.39-6.73,2.16-9.67-0.62
		c-0.25-0.24-0.5-0.48-0.71-0.75c-0.78-0.98-1.77-1.62-2.93-2.1c-2.56-1.07-3.33-3.32-2.11-5.8
		C207.03,119.24,207.25,118.48,207.6,117.57z M164.97,115.52c0.21,0.02,0.34,0.05,0.46,0.05c8.25,0,16.5,0.01,24.75-0.02
		c0.3,0,0.78-0.31,0.87-0.58c0.49-1.42,1.02-2.86,1.28-4.33c1.5-8.51,1.51-17.06,0.25-25.59c-0.31-2.13-1.07-4.19-1.66-6.28
		c-0.07-0.24-0.33-0.59-0.53-0.6c-0.8-0.07-1.61-0.03-2.44-0.03c0.36,1.25,0.7,2.37,0.99,3.49c0.09,0.35,0.16,0.79,0.02,1.08
		c-0.16,0.32-0.55,0.68-0.87,0.72c-0.26,0.03-0.6-0.39-0.82-0.67c-0.13-0.17-0.09-0.46-0.16-0.69c-0.31-1.09-0.61-2.19-0.97-3.27
		c-0.09-0.26-0.37-0.61-0.6-0.63c-0.77-0.08-1.56-0.03-2.35-0.03c0.28,0.76,0.57,1.39,0.73,2.06c0.16,0.69,0.25,1.41,0.27,2.12
		c0.03,1.12-0.32,1.65-0.97,1.62c-0.61-0.03-0.9-0.54-0.91-1.6c-0.02-1.3-0.28-2.5-1.05-3.6c-0.34-0.47-0.67-0.62-1.23-0.62
		c-15.63,0.01-31.25,0.01-46.88,0.01c-0.24,0-0.48,0.01-0.72,0.01c-3.82,0.02-7.64,0.05-11.45,0.05c-2.47,0-4.93-0.04-7.4-0.05
		c-0.09,0-0.19,0.07-0.34,0.13c0.34,2.73-0.83,5.08-1.93,7.43c-0.47,1.02-1.18,1.23-2.06,0.86c-1.47-0.62-2.98-1.17-4.55-1.77
		c-1.01,4.29-1.03,8.49-1.07,12.69c1.08-0.32,2.04-0.7,3.04-0.9c1.9-0.38,3.24,0.66,3.38,2.6c0.04,0.54,0.23,0.76,0.73,0.94
		c1.32,0.45,2.05,1.4,2.05,2.54c0,1.85-0.53,3.5-1.85,4.85c-0.83,0.85-1.68,1.7-2.52,2.54c-0.18,0.18-0.34,0.37-0.6,0.64
		c0.92,0,1.71-0.03,2.49,0.01c3.68,0.17,5.47,1.59,6.13,4.82c4.04,0,8.08,0,11.96,0c-0.05-1.68-0.1-3.31-0.15-4.93
		c-0.01-0.15-0.01-0.36-0.11-0.43c-0.64-0.53-1.19-1.17-2.17-1.15c-2.71,0.04-5.41,0.01-8.12,0.01c-2.53,0-2.67-0.02-3.26-2.53
		c-1.53-6.43-1.15-12.84,0.48-19.21c0.29-1.15,0.69-1.42,1.87-1.42c13.96,0,27.91,0,41.87-0.01c0.89,0,1.49,0.39,1.8,1.17
		c0.32,0.78,0.62,1.59,0.8,2.41c0.32,1.5,0.54,3.02,0.81,4.54c2.7,0.7,3.11,1.2,3.39,3.97c0.02,0.22,0.31,0.53,0.54,0.6
		c1.1,0.34,1.81,1.04,2.22,2.11c0.49,1.28,0.62,2.6,0.3,3.91c-0.38,1.59-0.81,3.19-1.35,4.73
		C166.65,111.35,165.8,113.37,164.97,115.52z M196.61,150.88c1.24,5.42,0.45,10.82,0.7,16.19c0.25,5.39-0.27,10.74-1.25,16.16
		c0.34,0,0.62,0,0.9,0c8.62,0,17.25-0.01,25.87,0.02c0.84,0,1.11-0.27,1.16-1.05c0.12-1.85,0.26-3.7,0.44-5.55
		c0.53-5.39,1.11-10.78,0.65-16.19c-0.27-3.21-0.93-6.38-1.42-9.58C214.57,150.88,205.67,150.88,196.61,150.88z M166.48,150.88
		c0,1.91,0,3.71,0,5.51c0,2.72-0.23,5.41-1.06,8.01c-0.36,1.11-0.42,2.2-0.44,3.35c-0.05,3.55-0.22,7.1-0.38,10.65
		c-0.02,0.53,0.11,0.76,0.62,0.73c0.9-0.06,1.8-0.11,2.69-0.24c2.17-0.31,4.19-0.13,5.78,1.62c0.73,0.81,1.7,1.1,2.72,1.37
		c0.87,0.23,1.68,0.71,2.53,1.06c0.33,0.14,0.68,0.29,1.03,0.29c2.97,0.02,5.94,0,8.91,0.02c0.72,0.01,1.04-0.24,1.13-0.98
		c0.6-4.74,0.97-9.49,1.33-14.25c0.42-5.49,0.23-10.91-0.49-16.34c-0.09-0.69-0.34-0.84-0.99-0.84c-7.53,0.02-15.07,0.01-22.6,0.02
		C166.99,150.84,166.73,150.87,166.48,150.88z M99.21,138.1c0.04,0.23,0.08,0.43,0.12,0.64c0.32,1.85,0.48,3.69-0.25,5.48
		c-0.68,1.65-1.71,2.22-3.39,1.79c-0.56-0.15-0.87,0-1.22,0.41c-0.76,0.89-1.49,1-2.55,0.5c-0.33-0.15-0.7-0.22-1.27-0.4
		c0.32,0.65,0.54,1.04,0.7,1.45c0.29,0.72,0.78,0.89,1.54,0.89c5.86-0.04,11.73-0.01,17.59-0.04c0.61,0,1.26-0.18,1.82-0.43
		c4.83-2.23,9.28-5.13,13.74-7.98c3.26-2.09,5.25-5.19,6.16-8.86c1.19-4.79,0.42-9.37-2.21-13.59c-0.14-0.22-0.55-0.38-0.84-0.38
		c-4.03-0.02-8.07-0.02-12.1-0.01c-0.19,0-0.38,0.04-0.61,0.07c1.03,1.49,1,1.86-0.12,3.18c-0.1,0.12-0.17,0.32-0.16,0.48
		c0.15,1.9-0.4,2.78-2.24,3.33c-0.91,0.27-1.86,0.41-2.8,0.55c-1.16,0.17-2.33,0.29-3.44,0.42c0.82,0.87,1.64,1.69,2.41,2.56
		c1.23,1.39,2.22,2.91,2.42,4.82c0.18,1.71-0.5,2.86-2.15,3.31c-0.84,0.23-1.16,0.6-1,1.44c0.04,0.2,0,0.42-0.02,0.63
		c-0.16,1.4-0.83,2.01-2.23,2.08c-0.18,0.01-0.41-0.02-0.54,0.08c-1.45,1.04-2.85,0.57-4.17-0.21
		C101.31,139.68,100.32,138.88,99.21,138.1z M143.98,232.02c-1.92,2-4.04,3.56-6.47,4.7c-0.29,0.13-0.53,0.53-0.63,0.85
		c-1.02,3.26-0.76,6.38,1.11,9.3c0.57,0.9,1.37,1.46,2.48,1.49c2.33,0.05,4.21,0.9,5.49,2.94c0.53,0.84,1.38,1.3,2.35,1.29
		c0.97-0.01,2.01-0.02,2.88-0.38c1.97-0.81,3.71-0.69,5.35,0.67c0.18,0.15,0.4,0.26,0.6,0.4c0.91,0.61,1.89,0.81,2.96,0.55
		c4.18-1.03,5.87-4.37,5.92-8.1c0-0.18-0.05-0.38-0.14-0.53c-1.1-1.84-1.44-3.86-1.47-5.95c-0.02-1.53-0.18-3-1.46-4.07
		c-0.1-0.08-0.17-0.21-0.23-0.33c-0.75-1.44-1.49-2.89-2.23-4.33c-0.54,0.59-1.14,1.3-1.79,1.95c-2.19,2.23-4.9,3.27-7.99,3.41
		C147.67,236.02,145.55,234.6,143.98,232.02z M166.41,238.53c0.01,1.75,0.03,3.46,0.88,5c1.7,3.08,4.23,5.19,7.61,6.24
		c1.43,0.44,2.79,0.32,4.02-0.55c1.19-0.84,2.49-1.21,3.96-1.19c1.51,0.02,2.07-0.44,2.59-1.87c0.11-0.3,0.19-0.61,0.28-0.91
		c0.51-1.72,1.57-2.87,3.39-3.18c1.4-0.24,2.18-1.13,2.57-2.41c0.21-0.71,0.4-1.44,0.47-2.17c0.17-1.81,0.91-3.26,2.29-4.47
		c1.35-1.18,1.68-2.72,1.04-4.42c-0.61-1.6-1.63-2.92-2.99-3.94c-0.43-0.32-0.98-0.59-1.5-0.66c-1.8-0.22-3.55-0.58-5.05-1.45
		c-3.9,2.54-8.05,2.84-12.49,1.94c0.26,0.38,0.45,0.66,0.66,0.94c1.69,2.33,2.65,4.89,2.49,7.8c-0.23,4.23-3.33,6.78-7.39,6.07
		C168.3,239.13,167.39,238.8,166.41,238.53z M216.31,214.84c0.08-0.35,0.17-0.6,0.2-0.85c0.44-3.93,1.03-7.84,1.26-11.78
		c0.33-5.43-0.51-10.79-1.48-16.12c-0.13-0.71-0.4-0.87-1.08-0.87c-11.25,0.02-22.5,0.01-33.75,0.01c-0.28,0-0.57,0-0.88,0
		c0.24,1.28,0.47,2.46,0.7,3.66c0.75-0.35,1.5-0.73,2.27-1.06c2.25-0.94,6.2-0.04,7.22,3.26c0.09,0.28,0.23,0.54,0.32,0.81
		c0.18,0.56,0.52,0.75,1.13,0.74c4.17-0.03,8.33-0.01,12.5-0.01c1.5,0,2.26,0.74,2.29,2.21c0.07,3.63,0.14,7.27,0.21,10.9
		c0.05,2.51-0.06,2.61-2.62,2.61c-1.32,0-2.64,0-3.95,0c-0.13,0.56-0.15,1.06-0.35,1.47c-0.7,1.44-0.64,2.84-0.09,4.31
		c0.2,0.55,0.42,0.73,0.99,0.72c3.95-0.02,7.91-0.01,11.86-0.01C214.13,214.84,215.18,214.84,216.31,214.84z M160.18,94.39
		c-0.13-2.03-0.45-3.95-1.04-5.83c-0.17-0.56-0.45-0.73-1.02-0.72c-13.45,0.02-26.9,0.02-40.35,0c-0.61,0-0.81,0.22-0.94,0.77
		c-0.88,3.63-1.28,7.32-1.05,11.05c0.13,2.23,0.59,4.45,0.9,6.67c0.08,0.53,0.36,0.72,0.92,0.71c2.07-0.04,4.14-0.01,6.21-0.02
		c0.19,0,0.37-0.04,0.69-0.08c-0.44-0.41-0.78-0.7-1.09-1.02c-1.16-1.16-2.37-2.29-2.96-3.89c-0.66-1.82,0.05-3.29,1.9-3.87
		c1.27-0.4,2.56-0.42,3.85-0.1c2.29,0.56,4.61,1.04,6.85,1.75c3,0.95,5.52,0.35,7.69-1.9c0.09-0.1,0.19-0.18,0.29-0.27
		c2.46-2.15,5.24-3.78,8.29-4.93c2.89-1.08,5.65-1.02,8.21,0.92C158.27,94.18,159.11,94.52,160.18,94.39z M148.16,220.08
		c-0.98-0.16-2.03-0.29-3.06-0.51c-1.95-0.41-3.89-0.87-5.3-2.47c-1.75-1.97-2.38-4.26-1.93-6.84c-0.1-0.06-0.16-0.12-0.23-0.14
		c-1.91-0.69-3.82-1.4-5.75-2.05c-0.34-0.12-0.8-0.13-1.12,0c-1.84,0.73-3.47,1.8-4.91,3.16c-1.89,1.78-2.82,4.25-0.94,6.64
		c0.7,0.89,0.68,1.99,0.26,3.03c-0.21,0.51-0.51,0.99-0.77,1.48c-0.95,1.8-0.52,3.56,1.15,4.74c0.54,0.38,1.09,0.75,1.66,1.09
		c1.51,0.88,2.11,2.23,2.14,3.91c0.03,1.98,0.72,2.82,2.66,3.21c1.8,0.36,3.54,0.11,5.19-0.66c2.16-1.02,4.05-2.41,5.64-4.19
		c0.26-0.29,0.47-0.72,0.52-1.11c0.24-1.9,0.84-3.68,1.88-5.27C146.14,222.72,147.18,221.42,148.16,220.08z M229.24,183.23
		c0.3,0,0.61,0,0.93,0c4.94,0,9.87,0,14.81,0c2.27,0,2.29,0,2.33-2.32c0.08-3.9,0.11-7.8,0.2-11.69c0.02-0.66-0.12-1.1-0.64-1.56
		c-0.5-0.44-0.87-1.07-1.16-1.68c-0.8-1.7-1-3.5-0.75-5.36c0.14-0.98,0.24-1.96,0.36-2.95c-1.42,1.05-2.73,2.19-4.22,3.04
		c-1.19,0.68-2.56,1.18-3.91,1.42c-1.58,0.28-2.74-1.13-2.39-2.71c0.16-0.7,0.49-1.41,0.9-2.01c1.19-1.77,2.88-3.02,4.67-4.14
		c0.2-0.13,0.39-0.27,0.67-0.46c-0.53-0.15-0.92-0.23-1.29-0.36c-1.47-0.52-2.9-1.3-4.41-1.52c-1.89-0.27-3.85-0.06-5.92-0.06
		C232.37,161.69,231.15,172.39,229.24,183.23z M177.91,209.49c3.51-0.53,6.37,0.27,8.58,2.87c2.26,2.66,2.56,5.53,0.8,8.62
		c0.33,0.14,0.61,0.28,0.91,0.38c3.28,1.12,6.18,0.48,8.77-1.83c1.51-1.34,1.97-2.89,1.35-4.78c-0.1-0.3-0.17-0.61-0.28-0.91
		c-0.48-1.36-0.48-2.75,0.16-4.03c0.57-1.15,0.19-1.96-0.6-2.75c-0.21-0.21-0.41-0.41-0.62-0.61c-1.52-1.42-2.24-3.15-1.83-5.23
		c0.3-1.52-0.21-2.7-1.33-3.68c-0.44-0.38-0.86-0.8-1.34-1.13c-1.77-1.21-2.98-2.8-3.68-4.84c-0.51-1.5-2.3-2.47-3.85-2.12
		c-2.09,0.48-3.73,1.41-4.23,3.83c-0.32,1.52-1.13,2.93-1.76,4.47c1.52,1.55,1.87,3.59,1.6,5.78
		C180.3,205.67,179.22,207.5,177.91,209.49z M193.16,78.13c3.11,12.54,3.12,24.95,0.14,37.44c4.09,0,8.26,0.01,12.42-0.02
		c0.17,0,0.45-0.32,0.49-0.53c0.16-0.78,0.16-1.59,0.37-2.35c0.3-1.09,0.17-1.89-0.74-2.72c-1.05-0.96-1.6-2.34-0.82-3.68
		c0.87-1.49,1.04-2.94,0.65-4.56c-0.2-0.82,0.01-1.63,0.71-2.15c0.8-0.6,1.01-1.38,0.95-2.3c-0.13-2.12-0.25-4.23-0.36-6.35
		c-0.22-3.92-0.64-7.82-1.71-11.61c-0.33-1.16-0.31-1.16-1.48-1.16c-2.89,0-5.78,0-8.67,0C194.42,78.13,193.74,78.13,193.16,78.13z
		 M151.72,204.52c-0.28-1.13-0.65-2.21-0.8-3.32c-0.37-2.7-0.1-5.25,2.11-7.23c0.13-0.12,0.2-0.45,0.14-0.62
		c-0.61-1.71-1.17-3.45-1.92-5.11c-0.73-1.61-2.13-2.6-3.66-3.41c-0.79-0.41-1.6-0.44-2.47-0.18c-0.96,0.28-1.94,0.54-2.93,0.68
		c-0.9,0.13-1.55,0.48-1.95,1.29c-0.62,1.27-1.64,2.12-2.87,2.77c-0.45,0.23-0.87,0.52-1.34,0.7c-2.11,0.86-2.9,2.61-3.39,4.67
		c-0.23,1-0.75,1.95-1.26,2.86c-0.32,0.56-0.88,0.98-1.29,1.5c-0.74,0.93-1.41,1.91-0.96,3.19c0.45,1.28,1.17,2.4,2.3,3.17
		c1.99,1.37,4.22,2.18,6.54,2.81c0.41,0.11,0.62,0.01,0.8-0.38c0.5-1.04,1.3-1.82,2.31-2.34c2.36-1.2,4.83-1.9,7.51-1.54
		C149.62,204.19,150.66,204.36,151.72,204.52z M98.98,150.89c-0.35-0.02-0.58-0.04-0.82-0.04c-6.15,0-12.3-0.01-18.45,0.01
		c-0.27,0-0.75,0.19-0.79,0.36c-0.62,2.95-1.49,5.89-1.71,8.88c-0.57,7.6,0.18,15.14,1.9,22.57c0.1,0.41,0.26,0.58,0.69,0.56
		c0.82-0.03,1.65-0.06,2.46,0.01c0.73,0.06,0.98-0.24,1.19-0.9c2.57-8.14,6.18-15.75,12.19-21.95c1.55-1.59,2.49-3.19,2.61-5.4
		C98.33,153.63,98.72,152.3,98.98,150.89z M177.12,196.6c0.46-0.91,0.95-1.7,1.27-2.56c1-2.66,1.16-5.37,0.19-8.09
		c-0.31-0.85-0.78-1.54-1.75-1.8c-1.99-0.53-3.84-1.29-5.32-2.83c-0.36-0.38-1.11-0.5-1.69-0.54c-0.73-0.05-1.48,0.07-2.21,0.19
		c-2.14,0.34-4.14,0.13-6.05-1.04c-0.6-0.37-1.48-0.52-2.18-0.41c-3.68,0.57-6.65,4.91-5.81,8.56c0.36,1.55,1.07,3.02,1.62,4.52
		c0.51-0.09,1.02-0.22,1.55-0.26c2.93-0.26,5.02,1.23,6.55,3.47c1,1.46,1.65,3.15,2.44,4.72c0.99-1.92,2.24-3.8,4.57-4.68
		C172.67,194.95,174.83,195.47,177.12,196.6z M232.94,102.31c0.43-0.57,0.79-1.03,1.12-1.51c0.11-0.16,0.19-0.38,0.2-0.57
		c0.08-2.85,0.73-5.56,1.97-8.13c0.11-0.22,0.2-0.52,0.15-0.75c-0.56-2.47-1.72-4.6-3.72-6.22c-0.51-0.41-1.04-0.59-1.7-0.44
		c-0.78,0.18-1.45-0.04-2.07-0.55c-0.88-0.73-1.32-0.68-2.04,0.25c-0.74,0.95-1.72,1.46-2.9,1.64c-0.6,0.09-1.21,0.18-1.81,0.29
		c-1.06,0.2-1.8,0.8-2.3,1.77c-0.98,1.92-0.92,3.89-0.32,5.88c0.48,1.59,1.28,2.9,2.87,3.71c1.31,0.67,2.49,1.61,3.71,2.45
		c0.42,0.29,0.81,0.64,1.24,0.98c0.4-2.02,0.98-2.3,2.8-1.43C231.32,100.27,232.28,101.07,232.94,102.31z M226.4,116.15
		c-1.21-0.26-2.51-0.49-3.78-0.82c-0.9-0.23-1.14-0.69-0.99-1.61c0.07-0.4,0.19-0.79,0.3-1.26c-1.05-0.05-2-0.08-2.95-0.14
		c-3.43-0.2-6.08,1.35-8.34,3.75c-0.68,0.73-1.16,1.55-1.35,2.56c-0.13,0.67-0.38,1.32-0.68,1.94c-0.88,1.82-0.59,2.69,1.32,3.46
		c1.18,0.48,2.2,1.15,3,2.15c0.27,0.33,0.57,0.63,0.87,0.93c2.18,2.1,4.48,2.38,6.98,0.69c0.95-0.64,1.78-1.51,2.5-2.41
		c1.27-1.59,2.41-3.27,3.59-4.92c0.08-0.11,0.12-0.28,0.1-0.41C226.79,118.76,226.59,117.46,226.4,116.15z M228.04,122.1
		c-2.99,3.34-3.79,7.14-2.98,11.33c0.11,0.56,0.62,1.07,1.03,1.53c0.51,0.57,1.22,0.97,1.64,1.59c0.5,0.73,1.03,0.88,1.81,0.63
		c1.38-0.44,2.73-0.45,4.12,0.07c2.12,0.79,3.72,0.19,4.83-1.8c1.2-2.13,1.62-4.46,1.61-6.89c0-0.96-0.33-1.79-0.8-2.62
		c-0.6-1.05-1.06-2.18-1.6-3.26c-0.11-0.22-0.24-0.54-0.43-0.6c-1.56-0.5-2.93-1.28-3.76-2.44c-1.14,0.88-2.2,1.74-3.31,2.53
		C229.53,122.66,228.79,122.78,228.04,122.1z M227.44,103.98c-1.08-0.91-2.17-1.95-3.38-2.83c-1.21-0.89-2.53-1.65-3.81-2.44
		c-2.1-1.3-4.43-1.88-6.86-2.05c-0.8-0.05-1.64,0.09-2.44,0.26c-0.93,0.19-1.46,0.8-1.73,1.76c-0.19,0.68-0.57,1.38-1.05,1.9
		c-0.4,0.45-0.6,0.81-0.45,1.39c0.46,1.7,0.25,3.31-0.75,4.79c-0.38,0.57-0.3,1.08,0.06,1.62c1.3,1.95,4.59,3.31,6.86,2.79
		c0.51-0.12,1-0.34,1.52-0.47c2.2-0.56,4.43-0.44,6.64-0.18c1.03,0.12,1.78-0.16,2.43-0.97c-0.43-0.4-0.87-0.78-1.26-1.2
		c-0.74-0.79-1.34-1.66-1.26-2.81c0.05-0.74,0.42-1.25,1.18-1.4c0.39-0.07,0.79-0.14,1.18-0.15
		C225.35,103.97,226.39,103.98,227.44,103.98z M229.68,214.78c0.09-0.59,0.2-1.1,0.24-1.63c0.57-6.95,1.35-13.89,0.78-20.88
		c-0.18-2.17-0.21-4.35-0.96-6.42c-0.09-0.24-0.37-0.59-0.56-0.6c-2.17-0.04-4.34-0.03-6.71-0.03c2.79,9.86,1.93,19.68,0.49,29.56
		C225.19,214.78,227.4,214.78,229.68,214.78z M240.3,116.18c0.77,1.87,0.33,3.71-0.26,5.45c-0.26,0.77-0.17,1.3,0.12,1.9
		c0.27,0.54,0.61,1.05,0.95,1.56c2.45,3.59,5.87,5.66,10.13,6.33c0.59,0.09,1.33-0.1,1.87-0.39c0.97-0.52,1.85-1.22,2.77-1.85
		c0.44-0.3,0.68-0.66,0.62-1.26c-0.1-0.94-0.07-1.89-0.14-2.83c-0.05-0.65-0.03-1.35-0.28-1.92c-0.76-1.71-1.81-3.27-3.39-4.33
		c-1.53-1.04-3.1-2.03-4.74-2.88c-1.28-0.67-2.61-1.2-4.19-0.51C242.73,115.89,241.51,115.94,240.3,116.18z M231.57,214.83
		c1.3,0,2.57,0.01,3.84,0c1.58-0.01,1.85-0.1,2.22-1.66c0.46-1.93,0.85-3.89,1.02-5.86c0.58-6.82-0.02-13.62-0.62-20.41
		c-0.04-0.41-0.17-0.84-0.35-1.21c-0.09-0.2-0.37-0.43-0.57-0.44c-1.77-0.03-3.55-0.02-5.31-0.02
		C233.79,195.11,232.7,204.91,231.57,214.83z M238.97,103.97c0.79,0,1.68,0.01,2.57-0.01c0.25-0.01,0.53-0.06,0.75-0.17
		c3.99-2.01,6.71-5.19,8.38-9.28c0.22-0.53,0.18-1.24,0.06-1.83c-0.18-0.87-0.57-1.7-0.81-2.56c-0.16-0.58-0.46-0.95-1.05-1.04
		c-1.15-0.17-2.06-0.75-2.91-1.51c-1.44-1.28-2.87-1.34-4.23,0.01c-1,0.99-1.91,2.12-2.65,3.33c-0.78,1.28-1.42,2.67-1.93,4.08
		c-0.49,1.32-0.74,2.73-1.11,4.17c1.37-0.15,1.84,0.05,2.18,1.19C238.57,101.54,238.73,102.79,238.97,103.97z M81.98,115.84
		c0.03-0.07,0.06-0.15,0.1-0.22c-0.11-0.21-0.23-0.41-0.32-0.62c-0.69-1.6-1.34-3.24-0.83-4.99c0.24-0.82,0.06-1.38-0.4-1.93
		c-2.27-2.7-4.57-5.38-7.6-7.28c-1.14-0.72-2.32-1.38-3.54-1.96c-0.98-0.46-1.55-0.24-2.22,0.57c-0.22,0.26-0.44,0.58-0.74,0.71
		c-0.77,0.32-0.84,0.86-0.75,1.58c0.1,0.8,0.11,1.69-0.62,2.19c-0.73,0.5-0.57,0.96-0.22,1.51c0.32,0.51,0.63,1.05,1.02,1.51
		c3.19,3.77,7.02,6.6,11.83,7.92C79.1,115.23,80.55,115.51,81.98,115.84z M92.6,114.88c1.08,0.29,2.07,0.58,3.06,0.81
		c0.2,0.05,0.46-0.04,0.67-0.13c5.14-2.25,9.66-5.38,13.34-9.65c0.54-0.62,0.85-1.51,1.04-2.33c0.29-1.29,0.2-1.32-1.07-1.72
		c-1.03-0.33-1.42-0.82-1.52-1.88c-0.02-0.26-0.05-0.53-0.08-0.79c-0.06-0.49-0.35-0.7-0.82-0.64c-0.29,0.03-0.58,0.08-0.86,0.16
		c-1.88,0.55-3.59,1.44-5.07,2.73c-1.6,1.4-3.24,2.79-4.67,4.36c-1.04,1.14-1.75,2.58-2.6,3.89c-0.1,0.15-0.18,0.36-0.15,0.52
		C94.18,111.97,93.65,113.51,92.6,114.88z M237.78,88.92c0.96-0.82,1.4-1.71,0.81-2.97c-0.8-1.7-1.43-3.47-2.25-5.16
		c-0.34-0.69-0.93-1.28-1.47-1.85c-0.59-0.61-1.33-0.84-2.22-0.83c-6.07,0.05-12.15,0.04-18.22,0.06c-0.39,0-0.78,0.04-1.22,0.06
		c0.06,0.26,0.11,0.43,0.15,0.61c0.5,2.35,1.14,4.69,1.46,7.07c0.37,2.73,0.45,5.49,0.67,8.24c0.02,0.26,0.1,0.69,0.25,0.74
		c0.71,0.24,1.46,0.38,2.21,0.55c-0.23-1.03-0.5-1.97-0.65-2.93c-0.72-4.77,1.45-7.72,6.17-8.42c0.87-0.13,1.5-0.54,2.05-1.21
		c1.2-1.47,2.94-1.63,4.44-0.5c0.23,0.17,0.58,0.33,0.85,0.29c1.39-0.21,2.47,0.33,3.48,1.2C235.88,85.26,236.93,87.02,237.78,88.92
		z M241.73,110.29c1.26,0.51,2.22,1.26,2.85,2.41c0.06,0.12,0.23,0.23,0.35,0.25c1.52,0.18,3.04,0.47,4.57,0.47
		c2.81,0.01,5.54-0.43,8.04-1.84c0.97-0.55,1.42-1.32,1.29-2.49c-0.1-1.02-0.04-2.06,0.03-3.09c0.07-0.9-0.18-1.61-1.02-1.96
		c-1.39-0.59-2.33-1.61-3.09-2.87c-0.17-0.29-0.52-0.63-0.82-0.66c-2.06-0.24-4.06-0.17-5.69,1.43c-0.68,0.67-1.44,1.25-2.19,1.83
		c-0.53,0.42-1.11,0.78-1.66,1.16C245.28,106.6,244.52,108.1,241.73,110.29z M83.16,122.67c0.02,0-0.04-0.01-0.08,0.01
		c-0.15,0.11-0.29,0.23-0.42,0.36c-4.17,4.01-7.47,8.66-10.1,13.79c-0.43,0.84-0.66,1.78-0.95,2.69c-0.18,0.54,0.01,0.91,0.6,1.06
		c0.79,0.21,1.24,0.75,1.48,1.52c0.32,1.02,0.33,1.03,1.43,0.8c1.04-0.22,1.94-0.05,2.67,0.79c0.66,0.76,0.98,0.86,1.7,0.16
		c0.92-0.89,1.81-1.87,2.49-2.96c1.33-2.15,2.02-4.57,2.18-7.07c0.12-1.74-0.08-3.49-0.15-5.24c-0.01-0.15-0.08-0.29-0.14-0.43
		c-0.23-0.54-0.62-1.06-0.67-1.61C83.09,125.27,83.16,124,83.16,122.67z M93.5,127.27c0.04,0.1,0.07,0.2,0.11,0.3
		c0.19,0.38,0.36,0.77,0.57,1.13c2.04,3.4,4.85,6.15,7.68,8.86c0.63,0.6,1.51,0.96,2.31,1.36c0.28,0.14,0.69,0.14,0.99,0.05
		c0.69-0.2,1.35-0.5,2.15-0.81c0-0.05,0.04-0.28,0.04-0.52c0-2.22,0.21-2.54,2.35-3.23c0.66-0.21,0.98-0.6,0.8-1.23
		c-0.25-0.88-0.51-1.8-0.99-2.56c-1.04-1.68-2.49-3.02-4.08-4.19c-0.93-0.69-1.95-1.11-3.08-1.39c-2.18-0.55-4.33-1.22-6.49-1.84
		c-0.31-0.09-0.62-0.18-0.94-0.28c0.1,0.88,0.22,1.64,0.27,2.4C95.29,126.83,94.95,127.21,93.5,127.27z M94.61,120.65
		c1.07,0.38,1.93,0.7,2.81,0.99c3.84,1.28,7.72,2.36,11.83,1.77c1.39-0.2,2.77-0.44,4.14-0.72c0.41-0.08,0.97-0.25,0.8-0.87
		c-0.28-1.06-0.07-1.93,0.97-2.63c-1.71-0.99-1.6-2.27-0.95-3.71c0.14-0.32,0.1-0.91-0.11-1.17c-0.39-0.47-0.91-0.95-1.48-1.15
		c-2.74-0.97-5.56-0.86-8.15,0.29c-2.32,1.03-4.44,2.53-6.65,3.82c0.74,1.35,0.46,2.1-1.07,2.68
		C96.11,120.21,95.45,120.38,94.61,120.65z M88.78,124.78c-0.6,0.7-1.09,1.55-1.82,2.04c-0.77,0.52-0.9,1.14-0.95,1.93
		c-0.28,4.06,0.67,7.9,1.98,11.68c0.29,0.85,0.62,1.7,1.03,2.49c0.52,0.98,1.16,1.85,2.5,1.72c0.31-0.03,0.64,0.24,0.98,0.29
		c0.23,0.03,0.59,0.01,0.72-0.14c0.73-0.84,1.62-1.04,2.66-0.8c0.98,0.23,1.32,0.14,1.46-0.85c0.18-1.26,0.3-2.6,0.1-3.85
		c-0.38-2.33-1.08-4.56-2.75-6.4c-1.71-1.88-2.89-4.11-3.78-6.5c-0.08-0.21-0.22-0.44-0.4-0.56
		C89.92,125.44,89.3,125.09,88.78,124.78z M155.09,216.26c-1.94-2.33-1.81-4.39-0.08-6.39c-0.24-0.3-0.51-0.52-0.62-0.8
		c-0.82-1.96-2.5-2.47-4.4-2.82c-2.94-0.54-5.69-0.21-8.27,1.31c-0.27,0.16-0.55,0.36-0.73,0.6c-2.79,3.83-0.59,8.15,2.55,8.99
		c1.45,0.39,2.93,0.72,4.41,0.97c1.61,0.27,3.22,0.33,4.7-0.59c0.31-0.19,0.72-0.2,1.04-0.37
		C154.18,216.9,154.61,216.57,155.09,216.26z M154.14,219.15c-0.12,0.03-0.25,0.05-0.36,0.1c-4.28,1.75-7.06,4.83-8.23,9.32
		c-0.33,1.28,0.04,2.4,0.84,3.42c1.28,1.62,2.99,2.03,4.96,1.86c3.54-0.31,5.98-2.31,8.03-4.99c0.84-1.1,1.03-2.35,1.16-3.64
		c0.01-0.14-0.06-0.31-0.14-0.43c-0.36-0.54-0.74-1.08-1.12-1.63C157.45,223.54,155.6,222.97,154.14,219.15z M170.42,216.87
		c0.84,0.87,1.28,2.14,1.19,3.53c-0.04,0.66,0.17,0.96,0.67,1.23c3.89,2.08,7.8,1.7,11.57-0.2c2.14-1.08,2.94-3.33,2.37-5.46
		c-0.61-2.31-2.91-4.36-5.33-4.63c-2.23-0.25-4.36,0.15-6.36,1.26c-0.78,0.43-1.65,0.69-2.45,1.08c-0.25,0.12-0.49,0.39-0.61,0.65
		C171.11,215.1,170.82,215.9,170.42,216.87z M80.82,122c-1.34-0.41-2.63-0.82-3.94-1.2c-0.17-0.05-0.37-0.03-0.55,0
		c-5.02,0.67-9.34,2.74-12.97,6.33c-0.98,0.97-0.31,2.05-0.57,3.05c-0.01,0.05,0.17,0.2,0.28,0.23c1.2,0.32,1.42,1.19,1.33,2.28
		c-0.09,0.96,0.33,1.65,1.21,1.87c0.55,0.14,1.17,0.17,1.72,0.06c1.77-0.34,3.35-1.15,4.8-2.19c0.4-0.29,0.84-0.57,1.12-0.96
		c2.29-3.21,4.45-6.53,7.37-9.24C80.72,122.14,80.79,122.03,80.82,122z M167.68,210.35c0.98-0.2,2.06,0,2.81,0.97
		c0.36,0.47,0.71,0.57,1.21,0.34c0.36-0.16,0.74-0.27,1.1-0.45c2.81-1.4,4.38-3.83,5.44-6.65c0.43-1.13,0.57-2.34,0.22-3.51
		c-0.19-0.64-0.45-1.42-0.94-1.77c-0.92-0.67-1.98-1.2-3.06-1.58c-2.28-0.79-4.53,0.02-5.95,1.99c-1.04,1.44-1.78,3.03-2.02,4.79
		c-0.14,1.05-0.12,2.16,0.07,3.2C166.74,208.53,167.25,209.34,167.68,210.35z M166.16,223.13c-0.41,1.36-1.41,2.37-3.04,2.6
		c-0.56,0.08-0.69,0.3-0.72,0.8c-0.25,3.69,1.07,6.74,3.76,9.22c1.29,1.19,2.89,1.73,4.6,1.61c0.79-0.05,1.66-0.41,2.3-0.89
		c1.53-1.15,1.66-2.89,1.53-4.62c-0.26-3.48-2.34-6.05-4.46-8.59c-0.18-0.22-0.6-0.33-0.9-0.33
		C168.24,222.96,167.26,223.06,166.16,223.13z M88.31,110.07c0.9-0.54,1.75-1.39,2.74-1.58c1.53-0.3,2.26-1.26,2.94-2.43
		c0.05-0.09,0.12-0.17,0.18-0.26c2.4-3.8,3.54-7.89,2.83-12.4c-0.1-0.64-0.3-0.91-1.04-0.73c-1.25,0.3-1.95-0.01-2.6-1.12
		c-0.37-0.64-0.82-0.73-1.46-0.52c-0.92,0.3-1.66,0.83-2.15,1.67c-1.46,2.54-2.14,5.34-2.12,8.21
		C87.67,103.99,88.08,107.08,88.31,110.07z M164.2,206.4c-0.07-1.01-0.1-1.97-0.22-2.91c-0.39-3.15-1.28-6.07-3.88-8.17
		c-1.54-1.25-3.61-1.32-5.24-0.22c-1.91,1.29-2.22,3.23-2.04,5.27c0.26,3.07,1.64,5.72,3.49,8.13c0.13,0.17,0.41,0.4,0.55,0.36
		c1.19-0.32,2.28-0.15,3.27,0.69C160.74,207.46,162.13,206.51,164.2,206.4z M78.43,117c-0.15-0.04-0.25-0.07-0.34-0.09
		c-3.98-1.08-7.71-2.65-10.75-5.56c-0.25-0.24-0.7-0.39-1.07-0.4c-1.89-0.04-3.61,0.5-5.1,1.67c-0.25,0.2-0.44,0.52-0.58,0.82
		c-0.28,0.59-0.53,1.19-0.75,1.81c-0.07,0.19-0.05,0.49,0.06,0.64c0.88,1.19,0.8,2.36,0,3.53c-0.3,0.44-0.17,0.79,0.2,1.12
		c1.76,1.57,5.83,1.98,7.44,1.05c2.76-1.6,5.76-2.52,8.95-2.81c0.24-0.02,0.51-0.15,0.68-0.32C77.6,118.02,77.97,117.54,78.43,117z
		 M86.21,110.34c0-0.4,0.02-0.79,0-1.17c-0.18-2.54-0.32-5.08-0.58-7.62c-0.27-2.65-0.83-5.24-2-7.65c-0.4-0.82-0.91-1.64-1.55-2.27
		c-1.06-1.05-1.87-0.91-2.72,0.31c-0.56,0.8-1.15,1.55-2.18,1.73c-0.79,0.14-1.23,0.64-1.21,1.35c0.03,1.34,0.12,2.69,0.36,4.01
		c0.26,1.45,0.97,2.67,2.06,3.75c1.53,1.53,2.87,3.26,4.27,4.91c0.41,0.48,0.67,1.14,1.16,1.49
		C84.51,109.66,85.36,109.94,86.21,110.34z M205.25,206.37c-0.09-3.98-0.17-7.81-0.25-11.69c-3.8,0-7.51,0-11.39,0
		c0.54,0.47,0.97,0.85,1.4,1.22c1.67,1.46,2.61,3.23,2.12,5.49c-0.51,2.35,1.21,3.49,2.5,4.89c0.06,0.07,0.19,0.09,0.29,0.09
		C201.66,206.37,203.4,206.37,205.25,206.37z M220.98,214.8c0.07-0.33,0.16-0.63,0.19-0.94c0.35-3.83,0.72-7.65,1.01-11.48
		c0.42-5.57-0.2-11.06-1.59-16.47c-0.06-0.24-0.25-0.62-0.42-0.64c-0.64-0.08-1.29-0.03-2.03-0.03c1.05,4.97,1.81,9.88,1.67,14.79
		c-0.14,4.93-0.9,9.84-1.38,14.77C219.2,214.8,220.07,214.8,220.98,214.8z M213.47,94.45c-0.05-1-0.09-2.06-0.15-3.11
		c-0.25-4.07-0.55-8.13-1.76-12.07c-0.25-0.81-0.61-1.16-1.46-1.13c-1.06,0.05-2.13,0.01-3.31,0.01c1.92,5.67,2.1,11.42,2.47,17.06
		C210.66,94.96,212,94.72,213.47,94.45z M191.75,183.23c0.61,0,1.12-0.04,1.61,0.01c0.6,0.06,0.88-0.16,0.94-0.76
		c0.32-3.24,0.84-6.47,0.95-9.71c0.16-4.9,0.05-9.8,0.05-14.7c0-2.41-0.15-4.81-0.77-7.17c-0.57,0-1.11,0-1.79,0
		C194.5,161.73,193.21,172.43,191.75,183.23z M90.17,82.1c0.88,0.19,1.68,0.41,2.48,0.54c2.83,0.43,5.44-0.03,7.65-1.98
		c0.17-0.15,0.36-0.42,0.35-0.62c-0.05-0.65-0.19-1.3-0.3-1.94c-0.51-0.02-1,0.01-1.46-0.08c-1.76-0.33-2.94-2.01-2.86-3.96
		c0.01-0.26-0.16-0.75-0.25-0.76c-0.55-0.01-1.25-0.11-1.64,0.18C91.24,75.59,90.19,78.59,90.17,82.1z M107.52,74.78
		c-1.16,0.8-2.47,1.3-3.93,0.72c-0.59,0.95-1.37,1.66-1.18,2.93c0.34,2.33,1.31,4.07,3.65,4.82c1.2,0.38,2.42,0.73,3.67,1.11
		c0.32-0.68,0.65-1.37,0.96-2.07c0.6-1.36,0.85-2.79,0.64-4.27c-0.14-1-0.59-1.76-1.64-2.14C108.95,75.61,108.27,75.17,107.52,74.78
		z M225.7,183.23c0.48,0,0.81,0.06,1.1-0.02c0.21-0.06,0.49-0.27,0.54-0.47c0.85-3.33,1.21-6.72,1.4-10.14
		c0.15-2.72,0.51-5.45,0.5-8.17c-0.01-4.12-0.54-8.19-1.52-12.2c-0.36-1.48-0.34-1.48-1.9-1.35c-0.04,0-0.09,0.06-0.14,0.09
		c-0.01,0.07-0.03,0.15-0.02,0.23c0.07,0.44,0.13,0.89,0.24,1.33c1.94,7.73,1.4,15.52,0.58,23.32
		C226.23,178.26,225.97,180.68,225.7,183.23z M85.12,69.26c1.78,1.81,3.53,3.56,5.91,4.42c0.9-0.77,1.78-1.52,2.68-2.28
		c-0.82-1.78-0.66-3.51,0.47-5.06c-0.79-0.76-1.58-1.43-2.25-2.2c-0.84-0.97-1.05-1.07-2.21-0.47c-0.33,0.17-0.64,0.38-0.92,0.62
		C87.2,65.65,85.94,67.26,85.12,69.26z M101.21,61.26c-0.01-0.15,0-0.23-0.02-0.3c-1.06-3.44-3.54-5.41-6.79-6.57
		c-0.16-0.06-0.52,0.16-0.64,0.35c-1.15,1.87-1.3,3.94-1.12,6.06c0.18,2.05,1.48,3.26,3.18,4.14c0.33,0.17,0.74,0.17,1.17,0.27
		C97.25,62.56,98.58,61.18,101.21,61.26z M108.46,65.73c1.33-0.55,2.08-1.55,2.54-2.81c0.75-2.02,0.84-4.14,0.79-6.26
		c0-0.19-0.23-0.48-0.41-0.54c-1.98-0.64-3.89-0.61-5.51,0.87c-1.69,1.55-2.19,3.49-1.64,5.71c0.14,0.55,0.43,0.82,1.05,0.84
		c1.19,0.04,2.09,0.66,2.77,1.62C108.2,65.34,108.32,65.54,108.46,65.73z M118.29,70.79c-0.7-0.9-1.3-1.86-2.07-2.65
		c-1.59-1.63-4.29-2.62-6.48-0.72c-0.32,0.28-0.51,0.76-0.86,0.91c-1.2,0.51-0.63,1.07-0.3,1.87c0.37,0.9,0.34,1.97,0.51,3.12
		C111.88,75.12,116.14,74.06,118.29,70.79z M252.34,160.57c-0.06,0.01-0.12,0.01-0.18,0.02c-0.08,0.84-0.13,1.69-0.25,2.52
		c-0.24,1.67-0.69,3.26-1.87,4.55c-0.25,0.28-0.47,0.7-0.49,1.06c-0.14,3.95-0.24,7.89-0.36,11.84c-0.03,0.86-0.11,1.73-0.16,2.58
		c1.81,0.14,2,0.11,2.6-1.46c0.44-1.17,0.85-2.44,0.88-3.68c0.1-5,0.05-10.01,0.04-15.02C252.54,162.19,252.41,161.38,252.34,160.57
		z M76.8,151.46c-1.06,1.11-1.95,2.69-2.21,4.61c-0.42,3.17-0.92,6.38-0.86,9.56c0.07,3.8,0.59,7.6,1.13,11.37
		c0.26,1.81,0.98,3.55,1.54,5.31c0.11,0.34,0.44,0.62,0.68,0.92c0.08-0.04,0.17-0.08,0.25-0.12
		C74.86,172.67,73.86,162.21,76.8,151.46z M162.59,219.74c1.86,0,3.38-1.51,3.38-3.38c0.01-1.89-1.55-3.44-3.44-3.42
		c-1.85,0.02-3.39,1.55-3.4,3.4C159.13,218.23,160.66,219.74,162.59,219.74z M245.85,147.91c0.76-0.41,1.45-0.78,2.16-1.16
		c-0.49-3.16-1.47-6.16-3.01-8.98c-0.2-0.37-0.41-0.78-0.73-1.03c-0.3-0.24-0.82-0.46-1.13-0.36c-0.29,0.1-0.62,0.63-0.61,0.96
		c0.02,1.16,0.13,2.32,0.31,3.46C243.26,143.43,244.46,145.72,245.85,147.91z M253.3,150.75c2.79,0.11,5.6,0.07,8.29-0.85
		c0.65-0.22,1.25-0.79,1.72-1.32c0.53-0.61,0.42-0.99-0.33-1.27c-0.7-0.27-1.46-0.51-2.21-0.55c-2.36-0.12-4.56,0.47-6.61,1.64
		C252.81,149.17,252.82,149.17,253.3,150.75z M251.59,147.57c0.41-0.48,0.79-0.91,1.16-1.36c1.8-2.2,2.84-4.7,2.79-7.58
		c-0.01-0.4-0.21-1.07-0.46-1.14c-0.4-0.12-1.07,0.01-1.35,0.3c-0.68,0.71-1.42,1.49-1.75,2.38c-0.64,1.7-1.05,3.49-1.48,5.26
		C250.15,146.83,250.21,146.85,251.59,147.57z M250.16,155.38c-0.62,0.04-1.18,0.15-1.72,0.1c-0.48-0.04-0.71,0.12-0.77,0.55
		c-0.29,2.19-0.72,4.39-0.78,6.59c-0.03,1.06,0.57,2.17,1.03,3.19c0.29,0.65,0.65,0.61,1.03-0.02c0.27-0.45,0.51-0.94,0.64-1.44
		c0.73-2.88,0.64-5.82,0.65-8.75C250.24,155.53,250.19,155.46,250.16,155.38z M244.38,151.13c0.4-1.32,0.33-1.73-0.85-2.35
		c-1.32-0.7-2.71-1.31-4.13-1.79c-0.85-0.28-1.82-0.3-2.74-0.28c-0.36,0.01-0.89,0.38-1,0.71c-0.12,0.33,0.09,0.88,0.32,1.2
		c0.25,0.35,0.66,0.63,1.06,0.8C239.37,150.45,241.81,150.99,244.38,151.13z M236.17,110.43c0.01-1.56-1.23-2.85-2.78-2.88
		c-1.49-0.03-2.74,1.19-2.77,2.69c-0.03,1.45,1.44,3.13,2.75,2.98C235.03,113.04,236.11,112.07,236.17,110.43z M252.59,153.31
		c1.18,2.31,2.84,4.07,4.93,5.4c0.83,0.53,1.78,0.9,2.72,1.22c0.31,0.11,0.75-0.13,1.12-0.21c-0.09-0.37-0.08-0.8-0.28-1.09
		C259.1,155.61,256.34,153.79,252.59,153.31z M103.9,69.47c0.01-1.47-1.13-2.65-2.58-2.67c-1.5-0.02-2.83,1.29-2.86,2.82
		c-0.03,1.48,1.15,2.69,2.63,2.7C102.61,72.34,103.89,71.04,103.9,69.47z M245.89,154.54c-0.61-0.62-0.75-1.55-1.75-1.11
		c-2.75,1.21-5.24,2.77-6.95,5.33c-0.24,0.35-0.22,0.87-0.32,1.31c0.4-0.03,0.83,0,1.21-0.12c0.6-0.19,1.24-0.4,1.73-0.76
		C241.84,157.68,243.83,156.12,245.89,154.54z M90.26,118.14c0.01-1.33-1.1-2.43-2.43-2.41c-1.29,0.01-2.37,1.09-2.38,2.39
		c-0.02,1.3,1.12,2.43,2.44,2.41C89.19,120.52,90.26,119.44,90.26,118.14z M251.19,150.97c-0.01-1.24-0.99-2.21-2.24-2.2
		c-1.31,0.01-2.45,1.19-2.44,2.54c0.01,1.26,0.98,2.21,2.23,2.19C250.07,153.48,251.2,152.31,251.19,150.97z M238.45,120.27
		c0.12-0.75,0.31-1.44,0.33-2.14c0.06-1.56-1.54-3.32-3.05-3.44c-0.75-0.06-1.28,0.46-1.24,1.24
		C234.62,118.46,235.74,119.72,238.45,120.27z M230.23,114.04c-2.07,1.55-2.11,4.28-0.86,6.33c2.04-0.91,3.14-2.65,2.9-4.68
		c-0.03-0.29-0.23-0.64-0.47-0.81C231.34,114.55,230.8,114.33,230.23,114.04z M223.59,113.79c1.17,0.07,2.24,0.09,3.3,0.2
		c0.89,0.09,1.05-0.75,1.58-1.1c0.9-0.6,0.27-1.21,0.11-1.9c-1.02,0.26-1.99-0.74-3,0.11C224.78,111.79,223.96,112.43,223.59,113.79
		z M242.79,106.32c-0.61-0.18-1.07-0.38-1.56-0.46c-1.21-0.2-2.33,0.08-3.29,0.83c-0.28,0.22-0.6,0.71-0.54,1
		c0.1,0.54,0.48,1.03,0.74,1.55C240.02,108.85,241.78,108.36,242.79,106.32z M163.05,170.95c-0.09-0.03-0.19-0.06-0.28-0.09
		c-0.83,2.15-1.65,4.29-2.48,6.43c0.88,0.29,1.62,0.54,2.45,0.81C162.84,175.69,162.95,173.32,163.05,170.95z M224.02,106
		c0.57,1.38,2.57,2.84,4.04,2.96c0.25,0.02,0.66-0.05,0.74-0.2c0.12-0.26,0.14-0.67,0.01-0.92
		C227.93,106.08,226.32,105.48,224.02,106z M155.7,213.06c0.01,0.1,0.02,0.26,0.04,0.42c0.09,0.49,0.26,0.9,0.85,1.01
		c0.6,0.11,0.96-0.03,1.22-0.64c0.21-0.5,0.63-0.9,0.97-1.34c0.2-0.27,0.76-0.45,0.39-0.87c-0.33-0.37-0.79-0.8-1.23-0.85
		C156.85,210.66,155.7,211.89,155.7,213.06z M100.03,156.26c0.69-0.54,1.21-0.94,1.71-1.35c0.22-0.18,0.55-0.36,0.59-0.59
		c0.22-1.12,0.37-2.26,0.55-3.47c-0.56,0-1.01-0.03-1.45,0.02c-0.16,0.02-0.41,0.19-0.44,0.32
		C100.67,152.8,100.37,154.43,100.03,156.26z M242.87,113.63c-0.18-0.26-0.32-0.51-0.51-0.71c-0.86-0.9-1.98-1.18-3.17-1.23
		c-1.15-0.04-1.26,0.06-1.58,1.21C239.19,114.15,240.92,114.28,242.87,113.63z M85.99,114.04c-0.69-1.95-1.84-2.98-3.34-2.94
		c0.17,1.58,0.43,3.1,1.66,4.25C84.91,114.88,85.43,114.48,85.99,114.04z M235.75,106.14c0.9-1.55,1.44-3.06,0.72-4.81
		c-1.16,0.59-1.75,1.57-2.13,2.69c-0.41,1.22-0.3,1.44,0.9,1.91C235.38,105.99,235.53,106.05,235.75,106.14z M165.07,211.33
		c0.04-0.11,0.13-0.27,0.18-0.45c0.22-0.72,0.26-1.41-0.33-1.99c-0.53-0.52-1.13-0.66-1.81-0.35c-0.78,0.35-1.16,1-1.19,1.82
		c-0.01,0.19,0.23,0.53,0.4,0.56C163.2,211.1,164.08,211.19,165.07,211.33z M83.38,117.74c-1.79-0.09-3.33,0.3-4.58,1.8
		c1.67,0.42,3.21,0.54,4.83,0.14C83.54,119.03,83.47,118.44,83.38,117.74z M91.8,110.29c-1.54,0.3-2.87,1.88-2.91,3.5
		c0.35,0.15,0.7,0.34,1.07,0.45c0.16,0.05,0.42,0.03,0.55-0.07C91.66,113.3,92.19,111.67,91.8,110.29z M230.67,106.31
		c0.46-0.22,0.88-0.42,1.29-0.62c-0.13-1.91-1.25-3.65-2.59-4.02C229.06,103.41,229.63,104.88,230.67,106.31z M167.88,217.92
		c-0.52,0.85-1,1.63-1.49,2.43c0.64,0.87,1.32,0.99,2.63,0.54c0.6-0.21,0.65-0.6,0.58-1.11
		C169.42,218.54,168.97,218.05,167.88,217.92z M89.45,122.31c0.87,1.49,2.37,1.87,3.74,2.6c0.08-1.22-0.42-2.08-1.11-2.88
		c-0.78-0.91-0.77-0.92-1.73-0.27C90.09,121.93,89.82,122.08,89.45,122.31z M159.41,220.76c-1.29-1.01-2.01-2.3-2.25-3.86
		c-1.09,0.66-1.25,1.75-0.49,2.97C157.58,221.31,158.2,221.54,159.41,220.76z M98.2,73.67c-0.3,0.56-0.2,1.23,0.26,1.85
		c0.42,0.57,1.03,0.62,1.65,0.44c0.82-0.24,1.47-0.67,1.61-1.46C100.56,74.23,99.45,73.97,98.2,73.67z M166.76,212.83
		c0.3,0.53,0.56,0.93,0.75,1.36c0.2,0.45,0.32,0.93,0.49,1.45c0.78-0.27,1.43-0.7,1.41-1.53c-0.01-0.55-0.23-1.28-0.63-1.59
		C168.15,212.01,167.45,212.53,166.76,212.83z M84.87,125.76c1.51-0.35,2.45-2.08,2.21-3.25c-0.45-0.15-0.91-0.31-1.59-0.54
		C85.28,123.25,85.09,124.44,84.87,125.76z M104.21,73.43c0.63,0.4,1.15,0.39,1.86-0.14c0.59-0.44,1.1-0.94,0.9-1.78
		c-0.13-0.57-0.4-1.02-0.94-1.06C105.4,71.48,104.82,72.43,104.21,73.43z M92.3,118.96c1.21-0.23,2.35-0.45,3.49-0.66
		c-1.03-1.11-2.21-1.48-3.59-1.35C92.23,117.63,92.26,118.21,92.3,118.96z M164.34,221.61c-0.85,0.04-1.56,0.09-2.27,0.11
		c-0.6,0.02-0.88,0.35-0.69,0.9c0.22,0.61,0.61,1.08,1.31,1.11c0.68,0.03,1.18-0.33,1.42-0.95
		C164.25,222.43,164.26,222.03,164.34,221.61z M97.06,67.32c-1-0.14-1.59,0.32-1.79,1.35c-0.25,1.28,0.34,2.39,1.46,2.65
		C96.32,69.94,96.41,68.61,97.06,67.32z M102.03,64.69c-0.21-1.14-0.82-1.64-1.8-1.44c-0.93,0.19-1.45,1.06-1.25,1.98
		C99.99,65.05,100.99,64.87,102.03,64.69z M210.65,112.89c-0.46-0.16-1.18-0.41-1.98-0.7c-0.16,1.14-0.31,2.22-0.44,3.17
		C209.04,114.54,209.86,113.7,210.65,112.89z M105.87,68.16c0.81-0.54,0.99-1.25,0.47-1.97c-0.5-0.69-1.39-0.85-1.98-0.41
		C104.87,66.58,105.37,67.37,105.87,68.16z M104.75,152.78c0.94-0.59,1.87-1.18,2.92-1.83c-2.63-0.37-2.82-0.26-2.99,1.69
		C104.68,152.65,104.71,152.68,104.75,152.78z"/>
	<path d="M188.06,146.88c-6.18,0.1-12.36,0.19-18.54,0.29c-1.15,0.02-1.67-0.3-1.66-1c0.01-0.67,0.49-0.97,1.6-0.99
		c12.36-0.19,24.72-0.39,37.08-0.58c0.37-0.01,0.81-0.09,1.09,0.07c0.34,0.19,0.75,0.61,0.75,0.93c0,0.31-0.44,0.7-0.77,0.91
		c-0.23,0.15-0.62,0.08-0.94,0.08C200.47,146.7,194.27,146.8,188.06,146.88C188.06,146.89,188.06,146.89,188.06,146.88z"/>
	<path d="M178.59,143.19c-3.31,0.1-6.62,0.2-9.93,0.29c-0.34,0.01-0.69,0.03-1.03,0c-0.57-0.04-0.98-0.33-0.99-0.93
		c-0.02-0.64,0.37-0.97,1-1c1.3-0.06,2.59-0.1,3.89-0.13c5.77-0.16,11.55-0.31,17.32-0.46c0.24-0.01,0.48-0.02,0.71,0
		c0.6,0.05,1.04,0.32,1.03,0.97c0,0.65-0.43,0.93-1.04,0.96c-0.87,0.04-1.75,0.09-2.62,0.1c-2.78,0.01-5.56,0-8.34,0
		C178.59,143.06,178.59,143.13,178.59,143.19z"/>
	<path d="M132.18,81.34c-5.36,0-10.72,0-16.07,0c-0.16,0-0.32,0.01-0.48,0c-0.61-0.05-1.1-0.26-1.14-0.96
		c-0.04-0.6,0.41-0.99,1.15-1.04c0.16-0.01,0.32,0,0.48,0c10.72-0.01,21.43-0.01,32.15-0.02c0.29,0,0.59-0.01,0.87,0.03
		c0.53,0.09,0.87,0.41,0.87,0.97c0,0.56-0.34,0.88-0.88,0.95c-0.29,0.04-0.58,0.04-0.87,0.04c-5.36,0-10.72,0-16.07,0
		C132.18,81.32,132.18,81.33,132.18,81.34z"/>
	<path d="M148.01,84.45c-5.46,0.21-9.25,0.36-13.04,0.5c-0.81,0.03-1.28-0.31-1.31-0.94c-0.03-0.62,0.44-1.02,1.22-1.05
		c7.74-0.29,15.47-0.58,23.21-0.86c0.24-0.01,0.54-0.06,0.7,0.06c0.31,0.23,0.75,0.58,0.73,0.86c-0.02,0.33-0.4,0.81-0.73,0.93
		c-0.53,0.19-1.15,0.15-1.73,0.17C153.5,84.25,149.92,84.38,148.01,84.45z"/>
	<path d="M186.05,100.21c-0.23,2.64-0.42,5.28-0.7,7.91c-0.13,1.18-0.64,1.63-1.36,1.47c-0.66-0.15-0.74-0.68-0.61-1.87
		c0.24-2.16,0.51-4.33,0.49-6.49c-0.04-4.02-0.26-8.04-0.44-12.06c-0.03-0.73-0.25-1.46-0.36-2.19c-0.08-0.59-0.01-1.17,0.71-1.29
		c0.74-0.12,0.94,0.41,1.07,1C185.57,89.91,185.98,95.05,186.05,100.21z"/>
	<path d="M190.83,100.69c-0.17,2.88-0.33,5.76-0.51,8.65c-0.04,0.61-0.34,1.03-0.98,1.02c-0.64-0.01-0.95-0.43-0.98-1.03
		c-0.03-0.39,0-0.8,0.04-1.19c0.45-4.6,0.52-9.21,0.32-13.82c-0.01-0.19-0.02-0.37,0-0.56c0.08-0.52,0.32-0.92,0.91-0.91
		c0.59,0.01,0.84,0.37,0.87,0.93c0.07,1.67,0.14,3.34,0.2,5c0.02,0.64,0,1.27,0,1.91C190.74,100.68,190.79,100.69,190.83,100.69z"/>
	<path d="M189.98,88.29c0,0.37,0.1,0.78-0.03,1.1c-0.14,0.33-0.49,0.78-0.77,0.8c-0.3,0.02-0.87-0.37-0.9-0.64
		c-0.15-1.12-0.21-2.26-0.15-3.39c0.01-0.27,0.59-0.69,0.93-0.72c0.24-0.02,0.67,0.47,0.75,0.8c0.18,0.66,0.17,1.36,0.25,2.04
		C190.04,88.28,190.01,88.29,189.98,88.29z"/>
	<path d="M190.03,165.21c-0.28,3.3-0.59,7.07-0.91,10.84c-0.12,1.4-0.25,2.8-0.36,4.2c-0.05,0.61-0.22,1.12-0.95,1.13
		c-0.58,0.01-0.9-0.46-0.85-1.28c0.27-3.75,0.67-7.5,0.8-11.26c0.11-3.06-0.09-6.13-0.15-9.2c0-0.18-0.05-0.37-0.06-0.55
		c-0.03-0.63,0.18-1.14,0.86-1.21c0.69-0.08,1.04,0.36,1.1,0.99C189.69,160.8,189.83,162.76,190.03,165.21z"/>
	<path d="M189.54,154.74c0.03,0.6-0.03,1.14-0.75,1.27c-0.56,0.1-0.96-0.33-1.06-1.11c-0.05-0.36-0.18-0.77-0.07-1.09
		c0.13-0.36,0.43-0.81,0.76-0.92c0.53-0.18,0.88,0.21,0.98,0.75C189.47,154,189.5,154.37,189.54,154.74z"/>
	<path d="M124.46,119.27c1.4,0,2.81,0,4.21,0c0.21,0,0.43-0.01,0.63,0.02c0.56,0.09,0.95,0.38,0.95,0.98c0,0.6-0.38,0.95-0.95,0.96
		c-3.21,0.02-6.41,0.01-9.62-0.01c-0.61,0-1.01-0.38-0.99-1.01c0.03-0.63,0.46-0.94,1.07-0.94
		C121.34,119.26,122.9,119.27,124.46,119.27C124.46,119.27,124.46,119.27,124.46,119.27z"/>
	<path d="M216.79,199.58c-0.39,3.77-0.74,7.53-1.19,11.29c-0.1,0.85-0.51,1.66-0.83,2.47c-0.19,0.5-0.65,0.83-1.13,0.53
		c-0.3-0.18-0.63-0.78-0.54-1.06c1.98-6.1,1.3-12.39,1.42-18.62c0-0.16-0.01-0.32-0.01-0.48c0.01-0.83,0.35-1.29,0.96-1.31
		c0.6-0.01,1,0.43,1.04,1.26c0.05,0.93,0.04,1.86,0.04,2.78c0.01,1.03,0,2.07,0,3.1C216.64,199.56,216.72,199.57,216.79,199.58z"/>
	<path d="M216.15,189.15c-0.02,0.35-0.01,0.8-0.07,1.24c-0.08,0.53-0.4,0.88-0.97,0.82c-0.53-0.05-0.77-0.41-0.79-0.92
		c-0.03-0.82-0.08-1.63-0.09-2.45c-0.01-0.54,0.15-1.03,0.79-1.09c0.67-0.07,0.94,0.38,1.03,0.95
		C216.12,188.15,216.12,188.61,216.15,189.15z"/>
	<path d="M234.3,170.87c-0.16,3.52-0.36,7.03-1.43,10.43c-0.06,0.18-0.13,0.35-0.2,0.52c-0.22,0.47-0.59,0.69-1.1,0.54
		c-0.53-0.16-0.67-0.59-0.57-1.08c0.18-0.85,0.44-1.69,0.61-2.55c0.55-2.79,0.75-5.61,0.67-8.45c-0.01-0.29-0.06-0.66,0.09-0.85
		c0.24-0.29,0.64-0.65,0.95-0.63c0.31,0.02,0.72,0.41,0.86,0.74C234.35,169.92,234.27,170.42,234.3,170.87z"/>
	<path d="M234.25,165.05c0,0.47-0.01,0.95,0,1.42c0.02,0.58-0.29,0.91-0.82,0.98c-0.57,0.08-1.07-0.19-1.09-0.77
		c-0.02-1.18,0.04-2.37,0.18-3.54c0.03-0.24,0.6-0.62,0.86-0.58c0.32,0.05,0.74,0.44,0.82,0.76c0.13,0.55,0.04,1.15,0.04,1.73
		C234.24,165.05,234.24,165.05,234.25,165.05z"/>
	<path d="M201.32,96.35c0-2.77,0.01-5.21,0-7.64c0-0.57,0.06-1.11,0.73-1.22c0.72-0.11,1.04,0.4,1.07,1c0.1,2.17,0.2,4.34,0.19,6.51
		c-0.01,2.38-0.14,4.76-0.22,7.15c-0.01,0.24-0.01,0.48-0.06,0.71c-0.13,0.57-0.46,0.99-1.09,0.94c-0.65-0.05-0.89-0.5-0.87-1.11
		C201.16,100.45,201.25,98.23,201.32,96.35z"/>
	<path d="M202.62,107.92c-0.19,1.44-0.36,2.88-0.58,4.31c-0.13,0.83-0.57,1.23-1.16,1.09c-0.75-0.17-0.79-0.75-0.71-1.37
		c0.19-1.52,0.38-3.03,0.59-4.55c0.04-0.28,0.12-0.63,0.31-0.78c0.26-0.2,0.69-0.4,0.96-0.31c0.26,0.08,0.46,0.51,0.57,0.82
		c0.08,0.23-0.03,0.52-0.05,0.78C202.56,107.91,202.59,107.92,202.62,107.92z"/>
	<path d="M79.47,159.82c0.07-1.94,0.15-3.98,0.23-6.01c0.01-0.21,0.03-0.42,0.06-0.63c0.09-0.6,0.42-0.99,1.06-0.95
		c0.65,0.04,0.93,0.49,0.9,1.09c-0.05,1.59-0.17,3.17-0.2,4.76c-0.07,2.83-0.11,5.66-0.14,8.49c-0.01,0.54-0.13,0.97-0.71,1.07
		c-0.56,0.1-0.92-0.22-1.05-0.74c-0.09-0.35-0.14-0.73-0.14-1.1C79.46,163.84,79.47,161.88,79.47,159.82z"/>
	<path d="M80.1,169.73c0.54,0.05,0.82,0.42,0.87,0.99c0.1,1.16,0.17,2.32,0.28,3.48c0.2,2.19,0.42,4.37,0.64,6.55
		c0.02,0.21,0.09,0.41,0.18,0.61c0.23,0.55,0.15,1-0.41,1.27c-0.5,0.24-1.15-0.05-1.35-0.64c-0.17-0.52-0.28-1.08-0.34-1.63
		c-0.33-3.05-0.64-6.1-0.94-9.16C78.94,170.26,79.34,169.7,80.1,169.73z"/>
	<path d="M82.89,171.82c0.08-1.11,0.15-2.22,0.23-3.33c0.01-0.21,0.03-0.43,0.08-0.63c0.15-0.54,0.46-0.91,1.08-0.83
		c0.62,0.09,0.83,0.52,0.79,1.09c-0.11,1.59-0.26,3.17-0.36,4.76c-0.04,0.55,0,1.11,0.05,1.66c0.05,0.52,0.01,0.99-0.59,1.13
		c-0.63,0.15-1.1-0.19-1.18-0.77c-0.14-1.02-0.13-2.05-0.18-3.08C82.83,171.82,82.86,171.82,82.89,171.82z"/>
</g>
</svg>
