<?xml version="1.0" encoding="utf-8"?>
<!-- Generator: Adobe Illustrator 28.0.0, SVG Export Plug-In . SVG Version: 6.00 Build 0)  -->
<svg version="1.1" id="Layer_1" xmlns="http://www.w3.org/2000/svg" xmlns:xlink="http://www.w3.org/1999/xlink" x="0px" y="0px"
	 viewBox="0 0 300 300" style="enable-background:new 0 0 300 300;" xml:space="preserve">
<style type="text/css">
	.st0{fill:#010101;}
	.st1{fill:#BA8969;}
	.st2{fill:#A64747;}
	.st3{fill:#E9D8C9;}
	.st4{fill:#A3A96B;}
	.st5{fill:#F2CA92;}
	.st6{fill:#BD4A4A;}
	.st7{fill:#E6D6C7;}
	.st8{fill:#E2D7C7;}
	.st9{fill:#AB6A49;}
	.st10{fill:#EFE8D4;}
	.st11{fill:#7B8A75;}
	.st12{fill:#784836;}
	.st13{fill:#F1EAD6;}
	.st14{fill:#9F9F88;}
	.st15{fill:#F1C090;}
</style>
<g>
	<path class="st0" d="M264.17,178.38c-1.55-1.1-3.24-1.88-5.02-2.52c-4.12-1.47-8.39-2.26-12.72-2.82c-1.39-0.18-2.78-0.33-4.2-0.5
		c-5.48-16.82-10.93-33.55-16.4-50.34c0.37-0.13,0.64-0.27,0.92-0.32c1.72-0.26,3.26-1,4.75-1.84c1.96-1.1,3.69-2.49,4.82-4.47
		c1.57-2.74,1.52-5.62,0.62-8.55c-0.92-3-2.26-5.81-3.89-8.47c-1.18-1.93-2.49-3.77-3.75-5.65c-0.43-0.64-0.83-1.3-0.68-2.2
		c2.97-1.07,5.48-0.21,6.8,1.71c1.87,2.71,3.07,5.75,3.89,8.87c1.13,4.29,1.88,8.68,0.92,13.15c-0.02,0.08-0.02,0.17-0.02,0.25
		c-0.06,0.73,0.12,1.36,0.78,1.77c0.63,0.4,1.29,0.28,1.8-0.13c1.57-1.23,3.35-2.23,4.55-3.9c0.68-0.93,1.35-1.86,2.01-2.81
		c1.27-1.82,1.56-3.83,1.18-5.98c-0.24-1.39-0.52-2.78-0.6-4.18c-0.22-3.64-1.7-6.67-4.29-9.16c-2.73-2.64-5.51-5.23-8.3-7.8
		c-0.62-0.57-1.35-1.04-2.06-1.5c-1.8-1.15-3.62-2.26-5.43-3.39c-0.62-0.39-1.15-0.84-1.12-1.85c0.53,0,0.99-0.05,1.43,0.01
		c2.04,0.27,4.05,0.69,5.82,1.81c3.05,1.93,5.81,4.2,8.15,6.96c1.1,1.3,2.13,2.66,3.15,4.03c2.36,3.17,4.3,6.56,5.47,10.36
		c0.2,0.65,0.41,1.31,0.72,1.91c0.73,1.43,2.22,1.82,3.56,0.92c0.45-0.3,0.87-0.72,1.16-1.17c2.4-3.72,4.26-7.69,5.21-12.03
		c0.52-2.38,0.23-4.68-0.99-6.81c-2.08-3.62-4.82-6.63-8.49-8.67c-3.4-1.89-7-3.34-10.71-4.52c-2.03-0.65-4.05-1.35-6.05-2.07
		c-0.53-0.19-1.15-0.38-1.35-1.06c0.31-0.69,0.91-0.95,1.55-0.99c1.7-0.12,3.4-0.26,5.1-0.22c3.71,0.1,7,1.33,9.76,3.89
		c1.5,1.39,3.07,2.71,4.66,4c1.89,1.55,3.67,3.19,5.11,5.18c0.15,0.21,0.33,0.4,0.51,0.57c0.91,0.86,1.86,0.91,2.68-0.03
		c0.51-0.59,0.93-1.34,1.16-2.09c0.77-2.55,1.14-5.17,0.97-7.84c-0.17-2.61-0.55-5.18-1.83-7.53c-0.96-1.76-2.29-3.08-4.26-3.63
		c-1.06-0.3-2.15-0.63-3.24-0.71c-3.4-0.25-6.81-0.38-10.22-0.57c-2.47-0.14-4.95-0.13-7.37-0.77c-0.37-0.1-0.76-0.16-1.11-0.31
		c-1.01-0.41-1.15-1.13-0.31-1.84c0.44-0.38,1-0.68,1.55-0.86c2.34-0.75,4.79-1.15,7.2-0.73c4.03,0.69,8.06,1.48,11.72,3.48
		c0.59,0.32,1.27,0.52,1.93,0.63c0.82,0.14,1.3-0.33,1.33-1.16c0.01-0.29-0.05-0.59-0.12-0.88c-0.55-2.29-1.29-4.51-2.44-6.58
		c-0.37-0.66-0.83-1.29-1.34-1.86c-1.41-1.57-2.98-2.96-4.87-3.9c-2.29-1.14-4.59-2.26-6.96-3.21c-4.01-1.6-8.01-1.38-11.95,0.36
		c-1.01,0.45-2.04,0.87-3.04,1.35c-2.1,1.03-4.26,1.99-6.27,3.18c-3.94,2.34-5.96,5.9-5.99,10.49c-0.01,1.95-0.38,3.81-0.99,5.64
		c-0.08,0.24-0.21,0.47-0.37,0.8c-0.14-1.05-0.19-1.95-0.39-2.82c-0.72-3.13-2.19-5.82-4.84-7.75c-0.24-0.18-0.46-0.38-0.68-0.58
		c-1.51-1.44-3.33-2.17-5.38-2.45c-1.85-0.25-3.69-0.55-5.57-0.84c-0.44-1.29-0.87-2.54-1.29-3.79c-0.98-2.94-2.69-5.4-4.94-7.51
		c-1.04-0.97-2.3-1.45-3.69-1.63c-1.29-0.17-1.76,0.28-1.68,1.55c0.01,0.17,0.05,0.34,0.06,0.51c0.06,2.43,0.11,4.86,0.18,7.29
		c0.08,2.86-1.11,5.21-2.94,7.29c-0.15,0.17-0.34,0.31-0.51,0.47c-0.02-0.57,0.12-1.05,0.25-1.53c0.81-3,1.64-6,2.4-9.02
		c0.56-2.21,0.18-4.32-0.93-6.3c-0.64-1.13-1.54-1.99-2.79-2.29c-1.99-0.48-4-0.86-6.02-1.21c-1.15-0.2-1.72,0.38-1.58,1.54
		c0.1,0.84,0.28,1.69,0.56,2.49c1.32,3.86,1.78,7.9,2.45,11.89c0.16,0.96,0.22,1.96,0.19,2.93c-0.02,0.71-0.24,1.42-0.43,2.11
		c-0.12,0.44-0.45,0.73-0.95,0.7c-0.55-0.02-0.71-0.46-0.77-0.88c-0.14-0.97-0.2-1.95-0.3-2.93c-0.34-3.35-0.57-6.72-1.08-10.04
		c-0.4-2.63-1.37-5.1-3.1-7.21c-0.76-0.93-1.72-1.47-2.9-1.73c-2.67-0.59-5.14-0.11-7.55,1.13c-2.05,1.05-2.15,1.3-0.78,3.2
		c1.84,2.57,3.68,5.14,5.06,8c1.12,2.32,1.97,4.73,2.1,7.33c0.02,0.47,0.21,1.01-0.4,1.55c-0.36-0.6-0.71-1.11-0.99-1.67
		c-1.09-2.17-2.1-4.38-3.24-6.53c-1.42-2.67-2.8-5.37-4.83-7.67c-2.56-2.88-6.12-3.39-9.3-1.22c-0.95,0.65-1.15,1.45-0.48,2.41
		c0.38,0.55,0.91,1,1.4,1.48c1.27,1.26,2.6,2.47,3.81,3.79c1.28,1.4,2.26,3,2.68,4.89c0.06,0.25,0.01,0.53,0.01,0.94
		c-0.42-0.23-0.69-0.35-0.92-0.52c-2.06-1.52-4.1-3.07-6.16-4.58c-1.44-1.06-2.88-2.12-4.63-2.67c-1.54-0.49-2.82-0.29-3.95,0.95
		c-0.72,0.78-1.5,1.54-2.36,2.15c-1.59,1.14-2.47,2.66-2.89,4.52c-0.58,2.57-0.63,5.17-0.45,7.77c0.24,3.41,2.22,5.47,5.59,6
		c3.18,0.5,6.18-0.04,9.06-1.49c1.44-0.73,2.97-1.28,4.49-1.85c1.77-0.66,3.53-0.4,5.26,0.23c0.86,0.31,1.41,0.9,1.62,1.93
		c-0.38,0.21-0.72,0.5-1.11,0.59c-1.16,0.27-2.33,0.49-3.51,0.66c-1.01,0.15-2.04,0.19-3.05,0.33c-2.61,0.38-5.23,0.78-7.84,1.2
		c-1,0.16-2.01,0.38-2.98,0.66c-0.76,0.22-1.33,0.75-1.71,1.46c-0.55,1.04-0.44,2.08,0.48,2.76c2.51,1.85,5.18,2.91,8.37,1.77
		c4.46-1.6,8.93-3.13,13.41-4.67c1-0.35,2.04-0.63,3.07-0.87c0.57-0.13,1.18-0.12,1.73,0.36c-0.86,1.01-1.98,1.51-3.11,1.98
		c-2.78,1.14-5.72,1.67-8.64,2.31c-2.41,0.54-4.85,0.99-7.09,2.11c-1.03,0.51-1.31,1.08-0.66,2.02c0.62,0.9,1.42,1.69,2.18,2.49
		c2.04,2.11,4.43,2.34,7.05,1.26c0.2-0.08,0.4-0.15,0.59-0.24c1.77-0.88,3.66-1.15,5.6-0.98c1.82,0.16,3.64,0.47,5.46,0.67
		c1.7,0.19,3.4,0.39,5.04-0.34c0.22-0.1,0.5-0.12,0.74-0.08c1.28,0.2,2.56,0.43,4.1,0.7c-0.73,0.56-1.26,1.03-1.85,1.41
		c-0.96,0.62-1.55,1.43-1.68,2.58c-0.04,0.33-0.11,0.66-0.16,0.97c-1.59,0.32-54.83,6.31-55.89,5.97c0.21-0.6,0.47-1.18,0.63-1.79
		c0.66-2.47,1.39-4.92,1.91-7.42c0.46-2.21,0.6-4.48,1.02-6.7c0.41-2.17,1-4.31,1.5-6.47c0.23-0.99,0.48-1.99,0.61-2.99
		c0.03-0.26-0.32-0.7-0.6-0.83c-0.21-0.1-0.67,0.09-0.87,0.29c-0.35,0.36-0.6,0.82-0.87,1.26c-2.53,4.21-5.04,8.42-7.57,12.63
		c-0.18,0.3-0.4,0.58-0.71,1.03c-1.19-6.13-1.77-12.06-1.9-18.04c-0.06-2.9,0.12-5.8,0.16-8.7c0.01-0.55,0-1.13-0.16-1.64
		c-0.23-0.75-1.03-0.83-1.48-0.2c-0.12,0.17-0.19,0.38-0.28,0.57c-3,6.51-6.01,13.01-9,19.52c-1.78,3.88-3.67,7.72-4.76,11.86
		c-0.63,2.39-1.12,4.82-1.66,7.23c-0.25,1.11-0.46,2.23-0.69,3.35c-1.94,0.1-3.12,1.49-4.7,2.36c-0.35-2.16-0.71-4.21-1.01-6.28
		c-0.59-4.05-1.11-8.12-1.74-12.16c-0.8-5.1-1.77-10.18-1.58-15.38c0.03-0.91-0.27-1.38-0.79-1.4c-0.73-0.04-0.88,0.54-1.06,1.07
		c-1.72,5.17-2.88,10.45-2.82,15.93c0.08,7.57-1.13,14.95-2.91,22.28c-0.44,1.82-0.75,3.68-0.94,5.54c-0.32,3.23-0.4,6.48-0.78,9.7
		c-0.37,3.06-0.5,6.12-0.51,9.2c0,0.39,0,0.79,0,1.18c-0.3-0.31-0.4-0.62-0.49-0.94c-1.23-4.41-1.87-8.93-2.54-13.44
		c-0.5-3.38-0.97-6.74-0.86-10.17c0.07-2.15-0.62-4.21-1.53-6.16c-0.29-0.61-0.68-1.18-1.06-1.74c-0.25-0.37-0.58-0.65-1.08-0.52
		c-0.49,0.13-0.64,0.53-0.67,0.98c-0.05,0.81-0.13,1.62-0.14,2.43c-0.07,4.07,0.4,8.09,1.16,12.08c0.41,2.14,0.27,4.25-0.03,6.36
		c-0.38,2.7-0.85,5.39-1.28,8.09c-0.04,0.24-0.1,0.48-0.16,0.76c-0.12-0.09-0.21-0.13-0.24-0.19c-2.11-4.14-3.15-8.52-3.12-13.18
		c0.01-2.64-0.06-5.3-0.29-7.93c-0.42-4.85-0.66-9.71-0.56-14.58c0.08-3.88,0.26-7.76,0.44-11.64c0.07-1.53,0.21-3.07,0.41-4.59
		c0.36-2.66,0.79-5.32,1.17-7.98c0.06-0.41,0.08-0.87-0.04-1.25c-0.2-0.64-0.88-0.72-1.31-0.21c-0.13,0.16-0.21,0.37-0.3,0.56
		c-0.65,1.44-1.31,2.87-1.94,4.32c-1.64,3.77-3.1,7.6-3.62,11.7C59.51,82,59.87,91.46,62.3,100.8c0.23,0.89,0.3,1.85,0.33,2.78
		c0.05,1.62-0.04,3.24,0,4.85c0.03,1.26,0.17,2.52,0.28,4.06c-0.29-0.46-0.45-0.69-0.59-0.94c-1.03-1.82-2-3.67-3.11-5.44
		c-4.82-7.75-11.29-13.98-18.31-19.7c-0.53-0.43-1.09-0.83-1.67-1.19c-1.93-1.18-3.86-2.35-5.82-3.46
		c-0.39-0.22-0.92-0.19-1.39-0.28c-0.05,0.09-0.09,0.17-0.14,0.26c0.32,0.48,0.62,0.99,0.98,1.44c1.13,1.44,2.47,2.76,3.39,4.33
		c1.68,2.86,3.13,5.87,4.67,8.82c0.94,1.82,1.78,3.69,2.82,5.45c3.65,6.19,6.69,12.69,9.46,19.29c2.72,6.49,5.02,13.15,7.01,19.91
		c0.33,1.13,0.65,2.27,0.98,3.41c-0.69-0.53-1.16-1.18-1.64-1.81c-1.24-1.63-2.38-3.35-3.76-4.86c-3.43-3.77-6.63-7.69-9.16-12.13
		c-0.15-0.26-0.33-0.5-0.5-0.74c-2.85-4.06-5.39-8.3-7.63-12.72c-0.5-0.98-0.86-1.28-1.36-1.05c-0.73,0.34-0.51,1-0.44,1.57
		c0.29,2.43,0.96,4.79,1.94,7.01c1.98,4.49,4.11,8.9,6.24,13.32c1.07,2.23,2.12,4.47,2.8,6.86c1.01,3.53,2.16,7.02,3.88,10.28
		c2.17,4.13,2.99,8.59,3.51,13.14c0.39,3.41,1.22,6.71,2.84,9.77c1.68,3.17,3.38,6.32,5.01,9.51c0.78,1.52,1.42,3.1,2.11,4.66
		c0.11,0.25,0.12,0.53,0.17,0.82c-1.57,0.22-3.07,0.35-4.52,0.65c-1.79,0.38-3.58,0.8-5.3,1.41c-1.4,0.49-1.6,1.09-1.37,2.58
		c0.03,0.21,0.05,0.42,0.06,0.64c0.27,2.98,0.54,5.95,0.8,8.93c0.57,6.33,1.13,12.66,1.7,19c0.42,4.71,0.84,9.43,1.26,14.14
		c0.52,5.82,1.13,11.64,1.51,17.47c0.14,2.12,0.93,3.45,2.87,4.18c0.68,0.26,1.33,0.61,2.02,0.79c2.06,0.54,4.12,1.14,6.21,1.5
		c7.32,1.25,14.68,1.42,22.08,0.87c0.63-0.05,1.27-0.08,1.95-0.12c0.22,0.43,0.41,0.8,0.6,1.18c1.74,3.58,4.4,6.3,7.97,8.02
		c3.39,1.63,6.9,2.9,10.63,3.59c4.22,0.78,8.46,1.19,12.73,0.82c2.33-0.2,4.65-0.6,6.97-0.98c5.44-0.91,10.04-3.41,13.82-7.43
		c0.38-0.4,0.74-0.87,1.21-1.12c1.65-0.89,3.35-1.69,5.02-2.55c3.59-1.84,6.87-4.13,9.82-6.89c0.46-0.43,0.89-0.72,1.53-0.8
		c1.4-0.18,2.78-0.45,4.17-0.67c10.11-1.61,20.22-3.22,30.33-4.82c1-0.16,2-0.28,3.13-0.44c0.07,1.03,0.19,1.92,0.16,2.8
		c-0.04,1.24,0.44,2.27,1.26,3.11c2.34,2.4,4.86,4.62,8.11,5.65c3.16,1,6.36,2,9.62,2.57c5.8,1.01,11.68,1.55,17.59,1.28
		c2.51-0.12,5.04-0.34,7.48-0.86c2.28-0.49,4.5-1.34,6.66-2.24c3.84-1.58,7.24-3.78,9.72-7.25c1.01-1.42,1.53-2.93,1.59-4.64
		c0.14-3.71,0.28-7.42,0.41-11.13c0.51-14.89,1.02-29.78,1.53-44.67c0.11-3.28,0.21-6.57,0.31-9.86c0.01-0.42,0.05-0.91-0.13-1.25
		C266.06,180.33,265.33,179.19,264.17,178.38z M190.19,68.16c-0.41-1.06-0.25-1.81,0.67-2.48c2-1.45,3.9-3.09,6.39-3.62
		c1.49-0.32,3.02-0.5,4.54-0.68c0.47-0.06,0.97,0.1,1.46,0.15c-0.12,1.45-0.9,2.48-2.11,2.85c-0.98,0.3-1.96,0.61-2.95,0.81
		c-2.49,0.5-4.81,1.42-7.06,2.56C190.84,67.91,190.52,68.02,190.19,68.16z M206.81,72.34c-0.19,0.5-0.44,1.06-0.82,1.41
		c-0.92,0.82-1.93,1.54-2.93,2.27c-0.23,0.16-0.55,0.22-0.84,0.26c-2.63,0.3-5.26,0.59-7.89,0.87c-0.06,0.01-0.13-0.07-0.2-0.11
		c0.01-0.08-0.01-0.19,0.03-0.24c2.56-3.02,5.63-5.23,9.63-5.82c0.77-0.11,1.61,0.04,2.39,0.18
		C206.77,71.27,207.03,71.78,206.81,72.34z"/>
	<path class="st1" d="M104.79,225.95c1.15,0.62,2.41,1.13,3.69,1.39c3.94,0.8,7.95,1.05,11.98,1.18c3.15-0.23,6.31-0.33,9.44-0.74
		c2.82-0.37,5.62-1.02,8.39-1.69c0.86-0.21,1.68-0.81,2.39-1.39c0.65-0.53,0.62-1.22-0.04-1.76c-0.62-0.51-1.33-0.93-2.06-1.25
		c-2.37-1.03-4.9-1.44-7.44-1.77c-5.28-0.68-10.56-0.61-15.84,0.03c-2.67,0.33-5.32,0.8-7.85,1.74c-0.95,0.35-1.91,0.77-2.76,1.32
		C103.11,224.02,103.12,225.06,104.79,225.95z"/>
	<path class="st2" d="M140.01,220.67c-2.19-1.12-4.56-1.67-6.97-2.02c-1.85-0.27-3.73-0.4-5.59-0.59c-0.46-0.05-0.92-0.08-1.35-0.12
		c0.53-0.9,1.1-1.68,1.49-2.55c0.39-0.89,0.61-1.85,0.96-2.98c1.74,0.21,3.35,0.37,4.94,0.6c2.83,0.41,5.62,1,8.29,2.05
		c1.07,0.42,2.11,0.93,3.1,1.5c0.65,0.38,1.27,0.88,1.78,1.44c1.14,1.23,1.14,2.5,0.08,3.79c-1.06,1.28-2.45,2.07-4.07,2.75
		C142.82,222.46,141.54,221.46,140.01,220.67z M103.64,221.87c0.45-0.32,0.92-0.64,1.43-0.85c1.22-0.49,2.45-1,3.71-1.36
		c4.3-1.21,8.71-1.57,13.15-1.73c0.44-0.02,0.89-0.06,1.33-0.09c-1.04-1.92-2-3.7-2.99-5.55c-0.27,0-0.56-0.01-0.85,0
		c-4.35,0.22-8.67,0.71-12.9,1.76c-2.45,0.61-4.84,1.37-7.07,2.58c-1.13,0.61-2.21,1.3-2.98,2.36c-0.91,1.24-0.9,2.35,0.1,3.49
		c1.46,1.69,3.43,2.51,5.67,3.28C101.63,223.94,102.36,222.78,103.64,221.87z"/>
	<path class="st3" d="M125.64,199.92c-1.13,1.49-2.4,2.9-3.36,4.5c-1.41,2.35-1.7,4.88-0.46,7.46c0.5,1.04,0.95,2.1,1.45,3.14
		c0.32,0.66,0.74,1.24,1.46,1.58c0.89-0.35,1.24-1.09,1.51-1.92c0.36-1.09,0.71-2.19,1.15-3.25c0.7-1.68,2-2.76,3.74-3.23
		c1.02-0.28,2.08-0.46,3.13-0.59c2.24-0.28,4.5-0.47,6.56-1.54c1.85-0.96,3.13-2.26,2.78-5.06c-0.43-3.45,1.04-5.62,4.35-6.71
		c1.94-0.64,3.94-0.78,5.95-0.59c2.59,0.25,5.16,0.66,7.74,0.98c2.08,0.26,4.14,0.29,6.2-0.33c2.62-0.79,4.48-4.39,3.15-7.22
		c-0.69-1.45-1.61-2.71-2.84-3.74c-0.66-0.55-1.29-1.12-1.92-1.69c-1.03-0.95-1.39-2.16-1.12-3.49c0.17-0.82,0.52-1.62,0.93-2.35
		c0.59-1.03,1.32-1.99,1.98-2.98c0.89-1.32,1.54-2.76,1.91-4.31c0.38-1.56,0.27-3.07-0.78-4.37c-1.06-1.32-2.35-2.35-3.97-2.93
		c-3.08-1.09-5.91-0.46-8.46,1.41c-1.16,0.85-2.14,1.95-3.15,2.98c-1.34,1.38-2.54,2.9-3.95,4.19c-3.39,3.11-7.32,4.46-11.9,3.19
		c-2.77-0.77-5.03,0.08-6.93,2.13c-1.32,1.42-2.29,3.07-3.18,4.78c-1.14,2.21-1.49,4.54-0.95,6.95c0.38,1.7,0.9,3.37,1.42,5.04
		c0.6,1.95,0.44,3.81-0.61,5.54C126.97,198.36,126.26,199.11,125.64,199.92z"/>
	<path class="st4" d="M139.39,47.8c0.3-2.29,0.51-4.49,2.61-5.98c0.97-0.69,1.83-1.54,2.65-2.4c0.66-0.68,1.34-0.8,2.2-0.55
		c1.55,0.45,2.82,1.4,4.1,2.33c2.1,1.53,4.17,3.12,6.26,4.66c0.37,0.28,0.78,0.53,1.21,0.72c1.34,0.57,2.29-0.04,2.35-1.51
		c0.02-0.42-0.06-0.85-0.15-1.26c-0.41-1.88-1.33-3.52-2.59-4.94c-1.33-1.5-2.8-2.87-4.21-4.29c-0.44-0.44-0.89-0.87-1.34-1.31
		c2.32-1.91,5.19-1.7,7.11,0.35c2.07,2.21,3.43,4.88,4.83,7.52c1.13,2.15,2.16,4.35,3.25,6.53c0.31,0.61,0.62,1.22,1.03,1.76
		c0.51,0.69,1.2,1.15,2.1,0.84c0.87-0.3,1.27-1.06,1.24-1.91c-0.05-1.36-0.13-2.74-0.42-4.06c-0.75-3.42-2.4-6.46-4.31-9.36
		c-0.84-1.28-1.75-2.53-2.62-3.79c-0.14-0.2-0.26-0.42-0.4-0.66c2.31-1.49,4.75-2,7.36-1.26c0.58,0.16,1.24,0.51,1.58,0.98
		c0.75,1.02,1.41,2.13,1.94,3.28c1.02,2.2,1.28,4.59,1.5,6.97c0.26,2.8,0.47,5.61,0.73,8.41c0.05,0.55,0.16,1.11,0.35,1.62
		c0.64,1.69,2.79,2.06,3.93,0.64c0.43-0.54,0.77-1.27,0.87-1.95c0.17-1.13,0.29-2.31,0.13-3.43c-0.48-3.38-1.07-6.74-1.69-10.09
		c-0.23-1.25-0.69-2.46-1.03-3.7c-0.13-0.48-0.23-0.97-0.37-1.54c0.44,0,0.78-0.05,1.1,0.01c1.38,0.28,2.75,0.59,4.13,0.88
		c1.13,0.24,1.87,0.93,2.39,1.94c0.85,1.63,1.05,3.33,0.6,5.09c-0.79,3.05-1.64,6.09-2.46,9.14c-0.17,0.62-0.35,1.23-0.45,1.86
		c-0.1,0.67,0.07,1.3,0.72,1.65c0.62,0.34,1.21,0.1,1.64-0.33c0.81-0.82,1.62-1.65,2.28-2.58c1.21-1.69,1.96-3.56,2.08-5.68
		c0.16-2.65,0.21-5.29-0.07-7.93c-0.03-0.25,0-0.5,0-0.83c1.09-0.05,1.93,0.41,2.65,1.07c1.63,1.52,3.07,3.22,3.96,5.29
		c0.66,1.52,1.2,3.09,1.83,4.75c-0.44,0.07-0.76,0.16-1.07,0.17c-3.15,0.11-5.75,1.41-7.95,3.62c-2.27,2.27-4.36,4.69-6.2,7.32
		c-0.09,0.13-0.22,0.25-0.34,0.4c-1.14-0.44-2.27-0.82-3.35-1.31c-3.43-1.57-7.05-2.52-10.7-3.44c-6.33-1.6-12.73-2.88-19.15-4.03
		c-3.78-0.67-7.55-0.76-11.29,0.32C139.82,47.82,139.69,47.8,139.39,47.8z M183.75,57.64c-0.13-0.08-0.26-0.21-0.41-0.26
		c-3.21-1.15-6.37-2.47-9.64-3.4c-6.69-1.9-13.5-3.3-20.33-4.57c-2.94-0.55-5.88-1.05-8.89-0.83c-1.75,0.12-3.46,0.4-5.13,1.13
		c0,1.07-0.1,2.14,0.02,3.19c0.3,2.62,1.61,3.96,4.21,4.4c2.87,0.49,5.58-0.02,8.18-1.32c1.52-0.76,3.12-1.37,4.72-1.95
		c2.15-0.77,4.29-0.49,6.38,0.3c1.24,0.47,2.03,1.37,2.4,2.64c0.27,0.92,0.13,1.43-0.67,2c-0.41,0.3-0.86,0.61-1.34,0.72
		c-1.32,0.31-2.66,0.54-4.01,0.76c-0.97,0.15-1.95,0.18-2.92,0.33c-1.98,0.31-3.95,0.68-5.93,0.99c-1.01,0.16-2.05,0.17-3.05,0.37
		c-0.69,0.14-1.41,0.38-2,0.75c-0.65,0.4-0.62,1.05-0.02,1.45c2.06,1.38,4.19,2.2,6.74,1.28c4.37-1.59,8.76-3.09,13.16-4.59
		c1.2-0.41,2.44-0.75,3.69-1.01c0.94-0.2,1.87,0.04,2.7,0.55c1.12,0.7,1.28,1.48,0.31,2.36c-0.78,0.71-1.64,1.43-2.59,1.83
		c-1.84,0.78-3.74,1.43-5.67,1.95c-2.59,0.69-5.24,1.18-7.85,1.81c-1.07,0.26-2.09,0.7-3.39,1.14c0.52,0.58,0.81,0.93,1.14,1.26
		c2.61,2.61,3.84,2.86,7.16,1.34c2.29-1.05,4.55-2.15,6.79-3.3c1.7-0.88,3.35-1.87,5.01-2.81c0.71-0.4,1.39-0.83,2.12-1.18
		c0.4-0.2,0.87-0.18,1.11,0.3c0.26,0.49-0.04,0.81-0.44,1.04c-2.06,1.2-4.12,2.41-6.2,3.58c-0.8,0.45-1.64,0.83-2.73,1.37
		c2.55,0.32,4.78,0.59,7,0.88c2.05,0.27,3.67-0.37,4.82-2.15c0.42-0.64,0.97-1.19,1.48-1.76c0.29-0.32,0.69-0.39,1.03-0.11
		c0.35,0.28,0.36,0.67,0.11,1.03c-0.24,0.35-0.52,0.68-0.79,1.01c-0.42,0.51-0.84,1.02-1.34,1.61c1.22,0.35,2.24,0.52,3.3,0.27
		C182.03,67.13,182.5,62.36,183.75,57.64z"/>
	<path class="st5" d="M231.66,185.25c0.75,0.61,1.19,0.59,1.92-0.02c1.54-1.27,2.3-2.9,2.31-4.9c0.01-3.3-1.6-6.01-3.2-9.07
		c-0.64,1.18-1.2,2.13-1.67,3.12c-0.44,0.92-0.84,1.86-1.14,2.83c-0.25,0.8-0.45,1.65-0.5,2.49
		C229.25,181.9,229.9,183.82,231.66,185.25z"/>
	<path class="st6" d="M164.97,234.79c-1.88-2.9-4.58-4.86-7.69-6.14c-3.43-1.42-6.77-1.09-9.68,1.48c-0.25,0.23-0.44,0.55-0.72,0.72
		c-0.21,0.13-0.65,0.22-0.77,0.11c-0.2-0.19-0.36-0.59-0.3-0.85c0.07-0.3,0.36-0.58,0.61-0.79c0.81-0.68,1.66-1.33,2.56-2.04
		c-0.15-1.56-0.31-3.18-0.47-4.81c-0.09-0.03-0.17-0.06-0.26-0.08c-1.35,1.68-3.09,2.81-5.03,3.61c-1.69,0.7-3.42,1.33-5.18,1.81
		c-4.5,1.24-9.12,1.8-13.77,2.01c-6.68,0.3-13.31-0.07-19.81-1.73c-3.33-0.85-6.53-2-9.06-4.49c-0.04-0.04-0.15,0.01-0.34,0.02
		c-0.1,0.68-0.26,1.38-0.3,2.09c-0.29,6.09-0.65,12.18-0.81,18.28c-0.1,3.88-0.01,7.78,0.78,11.6c1.1,5.31,3.71,9.63,8.68,12.16
		c3.19,1.63,6.58,2.77,10.11,3.54c6.89,1.5,13.74,1.15,20.57-0.23c4.15-0.84,7.7-2.92,10.9-5.65c0.25-0.21,0.43-0.51,0.68-0.82
		c-0.42-0.17-0.81-0.25-1.1-0.48c-0.19-0.15-0.37-0.53-0.31-0.74c0.05-0.22,0.38-0.41,0.63-0.52c0.17-0.07,0.42,0.02,0.63,0.04
		c1.09,0.12,2.13-0.06,3.11-0.53c4.08-1.97,8.03-4.15,11.58-6.99c2.05-1.64,3.82-3.54,5.19-5.78
		C168.47,244.57,168.11,239.64,164.97,234.79z M161.19,249.65c-1.99,2.12-4.28,3.88-6.93,5.16c-2.02,0.98-4.04,1.26-6.16,0.39
		c-0.16-0.06-0.32-0.11-0.48-0.19c-0.38-0.18-0.65-0.45-0.51-0.9c0.13-0.44,0.49-0.55,0.91-0.5c0.24,0.03,0.49,0.08,0.71,0.11
		c1.49-3.47,1.97-12.3,0.73-17.52c-0.22,0.45-0.46,0.88-0.65,1.34c-0.17,0.41-0.34,0.86-0.87,0.72c-0.6-0.16-0.6-0.7-0.43-1.15
		c0.61-1.62,1.43-3.13,2.92-4.09c2.18-1.39,4.5-1.69,6.94-0.61c4.63,2.07,6.88,5.58,6.73,10.3
		C164.03,245.37,162.99,247.73,161.19,249.65z"/>
	<path class="st7" d="M228.48,173.78c0.29-0.01,0.58,0.03,0.91,0.04c-0.48,1.53-1.03,2.88-1.31,4.28c-0.63,3.09,0.01,5.85,2.46,8.02
		c0.47,0.42,1.04,0.72,1.6,1.1c0,1.11,0,2.25,0,3.44c-0.25,0.05-0.45,0.13-0.65,0.13c-7.53-0.07-15-0.67-22.29-2.66
		c-1.92-0.53-3.8-1.27-5.63-2.07c-0.96-0.42-1.86-1.06-2.64-1.76c-1.52-1.37-1.51-2.79,0.05-4.14c0.86-0.74,1.86-1.37,2.88-1.88
		c2.42-1.2,5.01-1.92,7.63-2.51C217.08,174.53,222.75,173.94,228.48,173.78z M235.82,173.86c0.38,1,0.78,1.89,1.04,2.82
		c1.11,3.86,0.77,7.36-2.66,10.03c-0.22,0.17-0.45,0.47-0.46,0.72c-0.05,1.09-0.02,2.18-0.02,3.3c0.38,0.03,0.59,0.06,0.8,0.06
		c6.16-0.08,12.26-0.63,18.29-1.92c2.71-0.58,5.4-1.29,7.9-2.51c1.14-0.56,2.26-1.23,3.22-2.05c1.56-1.34,1.54-2.78-0.04-4.12
		c-0.93-0.79-1.99-1.5-3.12-1.97c-1.96-0.82-3.98-1.54-6.03-2.08c-5.84-1.53-11.83-2.12-17.85-2.34
		C236.57,173.78,236.25,173.83,235.82,173.86z"/>
	<path class="st8" d="M200.95,225.47c0.04,0.57,0.06,0.98,0.09,1.49c-1.88,0.3-3.68,0.59-5.49,0.86
		c-9.36,1.43-18.71,2.86-28.07,4.29c-0.34,0.05-0.7,0.03-1.01,0.14c-1.09,0.39-1.8-0.02-2.35-1.18c6.17-0.99,12.3-1.89,18.42-2.82
		C188.64,227.34,194.74,226.41,200.95,225.47z M168.39,246.68c-0.13,0.43-0.25,0.85-0.42,1.44c11.47-1.92,22.74-3.81,34.08-5.72
		c-0.06-0.84-0.11-1.51-0.17-2.36c-11.07,1.77-22.04,3.53-33.1,5.29C168.63,245.86,168.51,246.27,168.39,246.68z M168.07,237.46
		c0.28,0.86,0.5,1.53,0.75,2.3c10.94-1.71,21.79-3.4,32.72-5.11c-0.04-0.76-0.08-1.38-0.12-2.2
		C190.22,234.13,179.2,235.75,168.07,237.46z M166.25,233.84c0.48,0.83,0.85,1.48,1.24,2.15c11.29-1.69,22.5-3.37,33.8-5.06
		c-0.04-0.81-0.07-1.52-0.12-2.43C189.43,230.3,177.91,232.06,166.25,233.84z M169.06,241.27c0,0.53,0,0.91,0,1.29
		c0,0.36,0,0.73,0,1.2c11.01-1.76,21.84-3.5,32.74-5.25c-0.06-0.83-0.1-1.49-0.16-2.32C190.71,237.89,179.91,239.58,169.06,241.27z
		 M151.67,246.47c0.38-0.03,0.63-0.04,0.87-0.08c2.73-0.44,5.46-0.87,8.19-1.32c1.63-0.26,1.7-0.34,1.85-1.98
		c0.02-0.2,0-0.41,0-0.81c-3.69,0.58-7.2,1.13-10.71,1.68C151.79,244.88,151.74,245.63,151.67,246.47z M151.89,242.4
		c3.62-0.57,7.04-1.11,10.65-1.67c-0.28-0.88-0.51-1.58-0.75-2.34c-3.43,0.54-6.74,0.91-10.04,1.57
		C151.8,240.84,151.84,241.58,151.89,242.4z M151.14,250.86c0.36-0.02,0.57-0.01,0.77-0.05c1.98-0.33,3.94-0.71,5.93-0.97
		c1.93-0.26,2.72-1.64,3.64-3.33c-3.48,0.56-6.7,1.08-9.98,1.6C151.37,249.07,151.26,249.93,151.14,250.86z M156.04,233.56
		c-1.78-0.61-3.33-0.18-4.78,0.8C152.98,234.45,155.42,233.99,156.04,233.56z M151.45,238.39c3.24-0.49,6.27-0.95,9.31-1.41
		c0.03-0.09,0.06-0.19,0.09-0.28c-0.53-0.47-1.03-0.97-1.6-1.39c-0.25-0.18-0.64-0.3-0.94-0.25c-2.31,0.33-4.61,0.7-7.03,1.07
		C151.34,236.88,151.39,237.53,151.45,238.39z"/>
	<path class="st9" d="M156.15,251.65c0.02,0.11,0.05,0.23,0.07,0.34c-1.81,0.92-3.46,2.24-5.86,2.22c0.17-0.64,0.3-1.15,0.44-1.67
		C152.64,252.24,154.39,251.94,156.15,251.65z M191.85,80.06c-1.77,3.31-3.15,6.77-4.16,10.54c0.74-0.22,0.75-0.21,1.12-0.79
		c2.04-3.21,4.36-6.19,7.31-8.63c1.13-0.94,2.24-1.9,3.5-2.97c-0.37,0-0.56-0.02-0.75,0c-1.65,0.17-3.3,0.44-4.95,0.5
		C192.88,78.75,192.31,79.2,191.85,80.06z M199.29,101.32c-1.12-0.21-2.19-0.42-3.27-0.63c-0.24-1.16,0.08-2.15,0.27-3.13
		c1.1-5.53,4.25-9.88,8.08-13.81c0.61-0.63,1.44-1.05,2.21-1.51c0.77-0.47,1.61-0.49,2.47-0.24c0.96,0.28,1.27,0.66,1.18,1.66
		c-0.04,0.46-0.15,0.95-0.38,1.34c-0.54,0.91-1.08,1.86-1.8,2.62c-2.24,2.38-4.01,5.08-5.61,7.91
		C201.41,97.38,200.41,99.26,199.29,101.32z M137.85,208.62c1.16-0.23,2.29-0.62,3.57-0.97c0.52,2.02,1.03,3.98,1.59,6.2
		c-4.43-1.67-8.82-2.4-13.36-2.87c0.37-0.75,0.95-1.02,1.54-1.19c0.98-0.28,1.98-0.48,2.99-0.65
		C135.4,208.94,136.64,208.87,137.85,208.62z M85.24,106.19c1.47-5.8,4.23-10.86,8.76-14.87c0.57-0.5,1.21-0.92,2.03-1.55
		c0.41,1.77,0.76,3.26,1.1,4.74c8.17,35.44,16.34,70.88,24.53,106.31c0.2,0.87,0.09,1.53-0.39,2.26c-1.47,2.27-2.04,4.75-1.54,7.51
		c-3.93,0.47-7.84,0.93-11.89,1.41c-0.16-0.59-0.36-1.27-0.52-1.96c-7.48-31.84-14.94-63.67-22.43-95.5
		C84.23,111.71,84.55,108.94,85.24,106.19z M122.8,199.02c-8.42-36.52-16.85-73.04-25.31-109.76c27.03-2.95,53.86-5.88,80.64-8.8
		c0.52,1.96,0.91,3.79,1.49,5.55c0.58,1.78,1.35,3.5,2.09,5.37c-0.3,0.07-0.6,0.18-0.9,0.22c-12.57,1.64-25.13,3.27-37.7,4.9
		c-5.12,0.67-10.24,1.34-15.36,2.01c-1.33,0.17-1.5,0.47-1.2,1.76c1.33,5.69-1.77,11.3-7.35,12.38c-1.44,0.28-1.57,0.56-1.2,2.05
		c4.4,17.45,8.81,34.91,13.22,52.36c0.41,1.61,0.81,3.22,1.23,4.89c-2.93,1.7-4.62,4.4-6.13,7.25c-1.49,2.82-1.72,5.78-0.96,8.83
		c0.34,1.36,0.75,2.72,1.21,4.04c0.77,2.2,0.27,4.11-1.17,5.84c-0.65,0.78-1.36,1.51-2.01,2.23c-0.14-0.04-0.18-0.04-0.21-0.06
		c-0.04-0.02-0.09-0.05-0.1-0.08C122.97,199.68,122.88,199.35,122.8,199.02z M200.09,215.03c0.36,0.94,0.8,6.88,0.65,8.92
		c-2.96,0.45-5.86,0.9-8.77,1.34c-8.72,1.32-17.46,2.6-26.17,4c-2.17,0.35-4.01,0.35-5.99-0.99c-3.13-2.12-4.85-2.2-9.37-1.57
		c-0.04-0.32-0.09-0.64-0.11-0.96c-0.12-2.45-0.62-4.81-1.49-7.1c-0.39-1.03-1.08-1.83-1.9-2.52c-0.35-0.3-0.72-0.58-1.24-0.99
		c0.43-0.07,0.7-0.16,0.96-0.16c3.05-0.02,5.81,0.83,8.16,2.82c0.99,0.84,1.76,1.85,2.14,3.12c0.29,0.97,0.43,1.04,1.48,0.86
		c8.16-1.34,16.33-2.67,24.49-4.01c5.43-0.89,10.85-1.79,16.28-2.68C199.51,215.06,199.81,215.06,200.09,215.03z M224.34,122.52
		c5.42,16.62,10.81,33.17,16.25,49.87c-1.85-0.06-3.5-0.09-5.15-0.19c-0.27-0.02-0.61-0.29-0.77-0.54
		c-0.37-0.57-0.64-1.21-0.99-1.79c-0.59-0.98-1.22-1.01-1.85-0.08c-0.41,0.6-0.76,1.23-1.12,1.86c-0.21,0.36-0.47,0.56-0.91,0.58
		c-2.98,0.13-5.96,0.28-9.12,0.44c-4.37-17.32-8.76-34.69-13.22-52.33c2.41,0.7,4.46,1.45,6.15,2.96c1.33,1.18,2.4,2.54,2.91,4.28
		c0.07,0.24,0.15,0.5,0.29,0.7c0.38,0.55,1.07,0.5,1.31-0.12c0.19-0.51,0.28-1.07,0.35-1.62c0.19-1.57,1.05-2.57,2.55-3.03
		C222.07,123.18,223.13,122.88,224.34,122.52z M202.12,244.01c0.06,0.79,0.12,1.5,0.19,2.39c-12.22,1.94-24.36,3.88-36.81,5.86
		c0.58-0.89,0.92-1.53,1.37-2.08c0.21-0.26,0.63-0.44,0.97-0.5c6.22-1.06,12.45-2.09,18.67-3.13c4.84-0.81,9.67-1.62,14.51-2.43
		C201.36,244.07,201.69,244.06,202.12,244.01z"/>
	<path class="st10" d="M254.84,189.95c-6.37,1.55-12.86,2.19-19.4,2.33c-7.79,0.17-15.53-0.24-23.17-1.83
		c-4.19-0.87-8.3-1.98-11.87-4.51c-0.05-0.04-0.16,0-0.33,0c0,0.24-0.01,0.48,0,0.72c0.35,5.62,0.7,11.24,1.06,16.87
		c0.46,7.15,0.94,14.31,1.39,21.46c0.55,8.73,1.08,17.46,1.6,26.2c0.04,0.73,0.28,1.34,0.79,1.83c2.16,2.08,4.46,3.97,7.32,5.05
		c3.08,1.17,6.26,2.04,9.5,2.56c3.24,0.51,6.52,0.73,9.79,1.08c4.05,0.43,8.1,0.27,12.14-0.15c3.39-0.35,6.53-1.59,9.64-2.9
		c2.34-0.98,4.48-2.31,6.34-4.03c2.14-1.97,3.58-4.23,3.55-7.34c-0.03-3.79,0.22-7.59,0.35-11.39c0.56-16.29,1.12-32.59,1.68-48.88
		c0.02-0.49,0-0.98,0-1.56c-1.06,0.67-1.96,1.31-2.92,1.83C259.94,188.55,257.41,189.32,254.84,189.95z M254.83,201.15
		c-0.11,6.4-0.21,12.79-0.27,16.22c-0.17,9.37-0.33,15.76-0.37,22.16c-0.01,1.41-0.56,2.22-1.72,2.83
		c-2.06,1.09-4.28,1.72-6.55,2.08c-9.48,1.49-18.88,1.05-28.14-1.49c-1.47-0.4-2.86-1.09-4.3-1.63c-0.75-0.28-0.96-0.79-0.96-1.58
		c-0.08-11.94-0.2-23.89-0.3-35.83c-0.01-1.32-0.07-2.65-0.04-3.97c0.02-1.04,0.52-1.38,1.51-1.03c6.07,2.15,12.38,2.79,18.75,2.92
		c6.68,0.14,13.3-0.34,19.78-2.1c0.45-0.12,0.9-0.28,1.34-0.41c0.94-0.28,1.24-0.07,1.29,0.93
		C254.85,200.55,254.84,200.85,254.83,201.15z"/>
	<path class="st11" d="M179.79,80.25c-0.28-1.84,0.2-3.31,1.86-4.38c0.92-0.6,1.67-1.46,2.54-2.14c1.18-0.91,2.32-1.94,3.63-2.6
		c3.53-1.79,6.99-3.77,10.97-4.49c0.96-0.17,1.9-0.49,2.83-0.79c1.75-0.55,2.71-1.87,3.21-3.54c0.28-0.92-0.1-1.75-0.98-2.12
		c-0.57-0.24-1.23-0.35-1.86-0.36c-4.7-0.03-8.72,1.69-12.23,4.76c-2.1,1.83-4.03,3.81-5.62,6.1c-0.09,0.13-0.2,0.25-0.31,0.37
		c-0.1-0.03-0.21-0.05-0.31-0.08c0.13-1.95,0.2-3.9,0.4-5.85c0.15-1.53,0.45-3.04,0.7-4.55c0.3-1.8,0.96-3.47,2.13-4.87
		c1.72-2.06,3.49-4.08,5.31-6.07c2.22-2.43,5.05-3.46,8.3-3.2c2.46,0.2,4.92,0.53,7.36,0.92c1.35,0.22,2.6,0.83,3.61,1.81
		c0.28,0.27,0.56,0.53,0.87,0.76c2.22,1.64,3.6,3.85,4.27,6.5c0.22,0.86,0.39,1.76,0.39,2.64c0.01,2.97-0.04,5.94-0.11,8.91
		c-0.11,4.58,0.39,9.12,0.76,13.67c0.07,0.81,0.11,1.62,0.14,2.43c0.21,6.27,0.42,12.54,0.62,18.8c0.13,4.18,0.15,8.37-0.58,12.51
		c-0.29,1.68-0.7,3.34-0.99,5.02c-0.18,1.04-0.26,2.1-0.38,3.19c-0.05-0.01-0.2-0.01-0.26-0.08c-1.92-2.34-4.48-3.69-7.32-4.46
		c-2.83-0.77-5.14-2.27-7.04-4.42c-0.66-0.75-1.24-1.66-1.58-2.6c-0.87-2.42-1.1-4.92-0.26-7.41c0.48-1.41,0.98-2.83,1.65-4.15
		c1.63-3.19,3.32-6.36,5.49-9.23c0.69-0.92,1.53-1.72,2.22-2.64c0.76-1.02,1.54-2.05,2.11-3.18c0.68-1.35,0.88-2.89-0.27-4.07
		c-1.16-1.18-2.77-1.41-4.28-0.84c-1.17,0.44-2.38,1.08-3.26,1.95c-4.13,4.07-7.41,8.68-8.68,14.5c-0.63,2.88-0.62,5.75-0.35,8.66
		c0.1,1.13,0.34,2.28-0.19,3.49c-0.33-0.14-0.66-0.22-0.92-0.4c-2.53-1.7-4.69-3.7-5.56-6.77c-0.1-0.37-0.23-0.74-0.4-1.08
		c-1.02-2.11-0.67-4.16,0.34-6.15c3.41-6.72,8.11-12.29,14.52-16.35c1.55-0.98,3-2.11,4.46-3.21c0.8-0.6,1.34-1.42,1.59-2.42
		c0.37-1.49-0.22-2.63-1.68-3.12c-0.98-0.33-2-0.4-3.03-0.23c-3.13,0.49-5.82,1.86-8.2,3.92c-2.42,2.1-4.35,4.6-5.67,7.51
		c-1.14,2.52-2.03,5.15-3.06,7.72c-0.33,0.82-0.67,1.68-1.18,2.39c-0.8,1.11-1.64,1.04-2.23-0.18c-1.56-3.19-2.88-6.47-3.42-10.01
		C179.81,80.59,179.81,80.42,179.79,80.25z M235.23,63.72c0.52-0.39,1.21-0.73,1.85-0.79c1.82-0.17,3.66-0.3,5.48-0.25
		c3.92,0.11,7.44,1.34,10.39,4.03c1.42,1.29,2.89,2.52,4.37,3.75c2.1,1.75,4.2,3.5,5.79,5.76c0.19,0.27,0.47,0.46,0.7,0.69
		c0.71-0.36,0.9-0.99,1.07-1.59c1.09-3.81,1.26-7.65,0.26-11.51c-1.09-4.18-3.05-5.9-7.34-6.25c-3.36-0.27-6.73-0.38-10.09-0.56
		c-2.64-0.14-5.29-0.15-7.87-0.86c-0.61-0.17-1.25-0.35-1.78-0.67c-1.34-0.83-1.64-2.31-0.62-3.5c0.56-0.65,1.33-1.25,2.13-1.55
		c2.84-1.07,5.83-1.45,8.81-0.92c4.15,0.75,8.3,1.6,12.04,3.72c0.11,0.06,0.24,0.08,0.44,0.14c0.05-0.17,0.1-0.26,0.09-0.33
		c-0.88-3.78-2.33-7.23-5.62-9.59c-0.49-0.35-0.98-0.68-1.48-1c-2.27-1.47-4.75-2.52-7.27-3.46c-2.99-1.12-6.06-1.48-9.14-0.34
		c-3.81,1.4-7.54,2.99-11.01,5.1c-3.41,2.07-5.17,5.16-5.17,9.14c0,2.44-0.59,4.73-1.33,7c-0.16,0.51-0.45,1.15-0.86,1.36
		c-1.04,0.51-1.03,1.34-1,2.25c0.07,1.88,0.1,3.75,0.18,5.63c0.11,2.51,0.19,5.03,0.37,7.54c0.27,3.7,0.58,7.4,0.59,11.12
		c0.01,3.63,0.29,7.25,0.4,10.87c0.1,3.63,0.2,7.25,0.18,10.88c-0.02,3.69-0.77,7.29-1.53,10.88c-0.2,0.94-0.53,1.87-0.2,2.88
		c0.82-0.42,1.57-0.93,2.39-1.2c1.91-0.62,3.83-1.19,5.78-1.64c1.65-0.37,3.18-0.97,4.62-1.81c1.68-0.97,3.19-2.16,4.15-3.89
		c1.4-2.5,1.17-5.08,0.32-7.68c-1.15-3.51-2.91-6.73-4.88-9.83c-0.78-1.22-1.68-2.36-2.48-3.57c-0.35-0.53-0.66-1.11-0.82-1.72
		c-0.47-1.82,0.18-2.79,2.02-3.09c0.63-0.1,1.27-0.11,1.91-0.13c2.31-0.08,4.15,0.84,5.49,2.71c2.18,3.02,3.34,6.51,4.39,10.03
		c0.91,3.05,1.06,6.22,1.21,9.37c0.05,1.09-0.19,2.2-0.3,3.3c-0.03,0.27-0.05,0.54-0.07,0.81c1.41-1.05,3.02-1.73,4.06-3.13
		c0.79-1.06,1.58-2.13,2.32-3.22c0.91-1.34,1.1-2.84,0.88-4.41c-0.24-1.69-0.55-3.37-0.73-5.06c-0.25-2.35-0.99-4.5-2.53-6.31
		c-0.61-0.71-1.27-1.39-1.92-2.06c-0.83-0.85-1.66-1.72-2.54-2.53c-2.47-2.29-4.8-4.74-7.75-6.45c-1.51-0.88-2.97-1.84-4.46-2.77
		c-0.82-0.51-1.49-1.13-1.83-2.06c-0.52-1.4,0.11-2.5,1.59-2.69c0.59-0.07,1.2-0.05,1.79,0.03c2.74,0.38,5.34,1.21,7.55,2.93
		c1.75,1.36,3.54,2.71,5.08,4.29c1.81,1.85,3.43,3.9,5.02,5.96c2.66,3.43,4.75,7.18,5.99,11.37c0.1,0.33,0.2,0.65,0.34,0.97
		c0.46,1.06,1.15,1.18,1.95,0.35c0.15-0.15,0.28-0.33,0.39-0.51c2.19-3.49,3.93-7.19,4.86-11.22c0.36-1.56,0.42-3.16-0.25-4.65
		c-0.52-1.16-1.11-2.33-1.87-3.34c-2.48-3.3-5.6-5.77-9.42-7.45c-3.92-1.72-7.98-3-12.01-4.38c-1-0.34-2.01-0.73-2.92-1.27
		C233.91,66.4,233.84,64.76,235.23,63.72z"/>
	<path class="st4" d="M119.5,85.17c-0.7-2.45-1.32-4.92-1.47-7.48c-0.07-1.21,0.29-2.38,0.9-3.42c1.9-3.24,3.82-6.46,5.75-9.68
		c0.1-0.17,0.26-0.31,0.54-0.65c-0.3,1.66-0.58,3.07-0.81,4.49c-0.51,3.16-0.88,6.34-1.55,9.46c-0.48,2.24-1.36,4.39-2.06,6.58
		C120.61,85.09,120.25,85.39,119.5,85.17z M87.42,144.84c0.82,2.33,1.68,4.67,2.17,7.08c1.28,6.3,1.61,12.69,1.33,19.11
		c-0.12,2.81-0.42,5.62-0.56,8.43c-0.25,5.32-0.44,10.65-0.65,15.95c2.31,0,4.63,0,6.99,0c0.82-5.17,1.6-10.17,1.86-15.25
		c0.02-0.5-0.07-1.02-0.18-1.51c-5-21.34-10.02-42.68-14.99-64.03c-0.33-1.43-0.41-2.97-0.3-4.44c0.55-6.87,3.31-12.82,7.83-17.98
		c0.46-0.53,0.64-0.99,0.53-1.71c-0.78-5.02-1.49-10.04-2.25-15.06c-0.58-3.88-1.19-7.76-1.77-11.64c-0.14-0.96-0.2-1.92-0.29-2.89
		c-0.09-0.01-0.18-0.01-0.27-0.02c-0.1,0.37-0.22,0.73-0.29,1.1c-0.69,3.35-1.19,6.72-1.15,10.15c0.1,6.83-0.88,13.53-2.44,20.15
		c-0.72,3.07-1.46,6.13-1.58,9.31c-0.1,2.51-0.24,5.03-0.55,7.53c-0.37,3.02-0.54,6.03-0.54,9.06c0,4.38,0.5,8.67,2.07,12.8
		C84.13,135.6,85.79,140.22,87.42,144.84z M67.04,159.96c0.46,1.17,0.66,2.48,0.75,3.74c0.25,3.57,0.29,7.16,0.6,10.73
		c0.27,3.09,0.5,6.24,1.29,9.23c0.93,3.53,2.41,6.91,3.69,10.34c0.32,0.84,0.92,1.39,1.95,1.27c0.54-0.06,1.09-0.01,1.77-0.01
		c-0.4-0.98-0.75-1.79-1.06-2.63c-1.76-4.69-2.79-9.58-3.58-14.5c-1.11-6.92-1.48-13.91-1.78-20.9c-0.15-3.54-0.03-7.08-0.15-10.62
		c-0.04-1.3-0.18-2.68-0.65-3.88c-1.3-3.33-2.79-6.59-4.21-9.88c-0.15-0.35-0.36-0.68-0.56-1c-2.96-4.66-5.33-9.6-7.32-14.75
		c-1.92-4.98-4.32-9.76-7.86-13.84c-2.62-3.03-5.32-5.99-7.99-8.98c-0.02-0.02-0.07-0.02-0.22-0.07c0.1,0.29,0.15,0.53,0.26,0.74
		c1.03,2.06,2.04,4.12,3.12,6.16c1.32,2.49,2.81,4.89,4.02,7.42c3,6.31,5.99,12.62,8.31,19.24c2.61,7.45,5.09,14.93,6.85,22.63
		C65.02,153.63,65.82,156.85,67.04,159.96z M65.04,104.44c0.18-0.31,0.22-0.58,0.21-0.86c-0.15-2.94-0.28-5.87-0.47-8.81
		c-0.36-5.62-0.59-11.24-0.26-16.87c0.11-1.96,0.12-3.92,0.25-5.88c0.19-2.85,0.46-5.69,0.69-8.53c0.03-0.33,0.05-0.67,0.07-1
		c-1.52,2.81-2.51,5.74-3.08,8.8c-0.66,3.58-0.8,7.2-0.87,10.82c-0.15,7.31,0.98,14.44,3.1,21.42
		C64.78,103.85,64.92,104.15,65.04,104.44z M64.14,107.32c-0.01,1.71,0.21,3.35,0.34,5c0.2,2.59,0.53,5.12,1.55,7.57
		c1.18,2.82,2.06,5.77,3.1,8.65c0.25,0.69,0.64,1.34,0.96,2.01c0.12-0.04,0.24-0.09,0.36-0.13c-0.1-1.83-0.33-3.66-0.27-5.48
		c0.07-2.24-0.48-4.29-1.36-6.3c-0.38-0.86-0.76-1.71-1.11-2.58c-1.09-2.73-2.16-5.46-3.25-8.19
		C64.39,107.69,64.26,107.51,64.14,107.32z M72.08,90.22c-0.15,3.53-0.01,7.03,1.01,10.44C73.53,97.11,73.78,93.57,72.08,90.22z"/>
	<path class="st12" d="M68.68,194.74c-4.59-0.61-9-0.88-13.19-2.68c0.3-0.69,0.82-0.82,1.28-0.92c1.78-0.42,3.56-0.82,5.36-1.15
		c1.21-0.22,2.44-0.29,3.67-0.43C66.74,191.25,67.64,192.87,68.68,194.74z M97.91,215.78c1.87-1.15,3.89-1.93,5.98-2.56
		c0.77-0.23,1.54-0.46,2.44-0.72c-0.33-1.37-0.63-2.67-0.95-3.99c-0.32,0.06-0.48,0.08-0.64,0.12c-3.39,0.96-6.87,1.35-10.37,1.5
		c-10.32,0.46-20.55-0.33-30.68-2.42c-2.25-0.47-4.47-1.06-6.95-1.66c0.38,4.25,0.75,8.36,1.12,12.54
		c11.9,3.32,23.92,3.9,36.02,3.14c0.13-0.33,0.23-0.49,0.25-0.65C94.34,218.55,95.91,217.01,97.91,215.78z M60.36,246.54
		c-0.32-3.61-0.64-7.16-0.98-10.91c10.83,3.28,21.76,4.22,33.01,3.53c0,3.77,0,7.49,0,11.41C81.47,251.33,70.79,250.38,60.36,246.54
		z"/>
	<path class="st11" d="M117.76,85.51c-6.04,0.66-12.16,1.33-18.54,2.03c0.53-2.59,1.01-4.92,1.5-7.25c1.02-4.84,3.04-9.31,5.1-13.75
		c2.5-5.37,5.02-10.73,7.54-16.1c0.12-0.26,0.25-0.52,0.46-0.94c0.15,4.15,0.16,8.13,0.48,12.08c0.32,3.99,0.9,7.96,1.48,11.92
		C116.36,77.46,117.08,81.39,117.76,85.51z M98.3,195.34c1.35-0.1,2.55-0.19,3.94-0.29c-0.79-3.36-1.54-6.51-2.28-9.66
		c-0.08,0.01-0.16,0.02-0.25,0.03C99.25,188.66,98.79,191.9,98.3,195.34z M70.02,194.02c0.51,0.76,1.09,1.15,2.15,0.88
		c-0.12-0.33-0.2-0.57-0.29-0.8c-0.74-1.81-1.47-3.64-2.24-5.44c-1.98-4.63-2.47-9.56-2.81-14.5c-0.22-3.24-0.34-6.48-0.52-9.72
		c-0.1-1.76-0.45-3.45-1.08-5.11c-0.67-1.75-1.32-3.54-1.67-5.36c-0.58-3-1.82-5.67-3.53-8.14c-2.48-3.58-5.09-7.06-8.1-10.22
		c-1.83-1.92-3.36-4.08-4.78-6.32c-2.35-3.71-4.74-7.4-7.12-11.09c-0.07-0.1-0.14-0.2-0.21-0.3c-0.04,0.48,0.05,0.88,0.22,1.25
		c2.04,4.36,4.12,8.71,6.14,13.08c0.93,2.01,1.97,4,2.6,6.11c1.36,4.55,3.08,8.94,5.06,13.25c0.8,1.73,1.36,3.59,1.78,5.45
		c0.47,2.03,0.67,4.12,0.96,6.19c0.37,2.72,0.89,5.4,2.1,7.88c1.5,3.07,3.05,6.11,4.69,9.1c1.34,2.44,2.57,4.91,3.47,7.55
		C67.59,190,68.71,192.06,70.02,194.02z M49.63,100.49c4.34,4.82,7.44,10.4,9.72,16.42c1.85,4.89,4.17,9.52,6.91,13.95
		c0.62,1.01,1.08,2.12,1.57,3.21c0.79,1.77,1.55,3.55,2.32,5.33c0.09-0.02,0.18-0.04,0.27-0.06c0-0.62-0.06-1.25,0.01-1.86
		c0.27-2.27-0.49-4.24-1.61-6.17c-0.72-1.24-1.25-2.61-1.76-3.96c-1.2-3.19-2.25-6.44-3.53-9.59c-2.8-6.89-6.71-13.12-11.52-18.78
		c-3.55-4.18-7.76-7.66-11.89-11.22c-0.79-0.68-1.7-1.24-2.55-1.85c-0.07,0.07-0.13,0.14-0.2,0.2c1.95,2.42,3.84,4.9,5.85,7.26
		C45.3,95.78,47.49,98.11,49.63,100.49z M71.93,133.15c0.12,9.69-0.08,19.38,0.52,29.06c0.39,6.26,0.77,12.52,2.04,18.69
		c0.82,3.97,1.68,7.93,3.08,11.75c0.26,0.71,0.63,1.4,1.02,2.05c0.32,0.54,0.82,0.79,1.5,0.79c2.48,0.01,4.95,0.06,7.43,0.1
		c0.16,0,0.33-0.05,0.59-0.09c0.07-0.77,0.18-1.52,0.21-2.28c0.15-3.84,0.25-7.68,0.44-11.51c0.14-2.94,0.39-5.88,0.6-8.81
		c0.33-4.7,0.16-9.39-0.27-14.07c-0.36-3.92-0.98-7.77-2.36-11.49c-2.62-7.08-5.11-14.2-7.71-21.29c-1.9-5.19-3.24-10.51-4.08-15.96
		c-0.26-1.72-0.46-3.45-0.69-5.17c-0.05-0.01-0.11-0.01-0.16-0.02c-0.11,0.36-0.24,0.71-0.32,1.07c-0.46,2.21-0.88,4.43-1.35,6.64
		c-0.71,3.32-0.82,6.68-0.73,10.06C71.74,126.16,71.89,129.66,71.93,133.15z"/>
	<path class="st13" d="M59.07,231.95c-0.31-3.31-0.61-6.63-0.91-9.94c-0.05-0.54-0.06-1.09-0.09-1.73
		c11.72,3.12,23.51,3.72,35.38,3.05c-0.32,4.77-0.63,9.48-0.95,14.24c-0.69,0.05-1.28,0.11-1.87,0.14
		c-9.96,0.5-19.78-0.35-29.39-3.16C59.26,233.96,59.26,233.95,59.07,231.95z M60.53,248.27c0.15,1.79,0.35,3.35,0.38,4.92
		c0.03,1.09,0.49,1.72,1.42,2.19c1.81,0.91,3.72,1.49,5.68,1.91c8.03,1.74,16.16,1.95,24.32,1.4c0.49-0.03,0.98-0.1,1.43-0.15
		c-0.4-2.18-0.77-4.23-1.17-6.44C81.68,252.84,71.02,251.93,60.53,248.27z M90.68,208.7c3.93-0.04,7.85-0.28,11.71-1.09
		c0.86-0.18,1.7-0.44,2.65-0.69c-0.84-3.54-1.64-6.92-2.44-10.33c-0.67,0.04-1.18,0.07-1.68,0.09c-2.98,0.14-5.97,0.34-8.95,0.4
		c-8.37,0.17-16.73-0.1-25.05-1.01c-3.6-0.39-7.2-0.86-10.65-2.07c-0.14-0.05-0.3-0.02-0.57-0.03c0.3,3.45,0.6,6.8,0.91,10.33
		c1.6,0.44,3.11,0.91,4.64,1.27C70.91,207.87,80.74,208.81,90.68,208.7z"/>
	<path class="st1" d="M157.66,144.31c-0.69-0.33-1.39-0.5-2.15-0.27c-0.42,0.05-0.85,0.15-1.26,0.32c-0.37,0.17-0.36,0.15-0.29,0.55
		c0.1,0.58,0.42,1.12,0.43,1.72c0,0.25,0.15,0.31,0.45,0.21c0.81-0.28,1.61-0.59,2.33-1.03c0.33-0.2,0.66-0.43,0.78-0.83
		C158.08,144.57,158.07,144.51,157.66,144.31z M156.03,137.2c-0.1-0.78-0.92-1.68-1.81-1.84c-0.83-0.16-1.63-0.06-2.44,0.02
		c-0.43,0.04-0.42,0.07-0.31,0.49c0.34,1.26,0.67,2.53,1.02,3.78c0.22,0.79,0.45,1.58,0.69,2.41c0.93-0.9,1.82-1.77,2.47-2.83
		C156.02,138.61,156.12,137.92,156.03,137.2z M160.54,123.64c0.38,0.46,0.82,0.88,1.33,1.22c0.81,0.54,1.84,0.42,2.34-0.27
		c0.26-0.35,0.4-0.76,0.47-1.2c0.17-0.98,0.04-1.93-0.26-2.91c-0.25-0.78-0.52-1.54-1.02-2.23c-0.55-0.76-1.13-1.48-2.03-1.92
		c-0.82-0.4-1.73-0.26-2.16,0.46c-0.23,0.39-0.39,0.82-0.45,1.29c-0.1,0.79-0.01,1.56,0.17,2.2
		C159.21,121.6,159.75,122.68,160.54,123.64z M177.45,141.58c0.41-0.5,0.76-1.06,0.89-1.72c0.18-0.91,0.21-1.82,0-2.75
		c-0.22-1.04-0.57-2.03-1.42-2.79c-0.9-0.8-1.75-0.73-2.39,0.1c-0.36,0.47-0.62,1-0.74,1.58c-0.29,1.44-0.11,2.84,0.54,4.19
		c0.27,0.56,0.62,1.07,1.15,1.46C176.06,142.08,177.04,142.08,177.45,141.58z M153.19,163.87c-0.19-0.1-0.37-0.19-0.56-0.29
		c-0.66-0.33-1.32-0.66-2.03-1.01c0.35,1.09,0.56,2.16,0.85,3.21C152.03,165.14,152.6,164.51,153.19,163.87z M150.32,153.74
		c-0.48-0.06-0.97-0.03-1.45,0.06c-0.68,0.13-0.41,0.42-0.27,0.96c0.32,1.19,0.65,2.4,0.91,3.59c0.11,0.51,0.23,1.01,0.44,1.55
		c0.29-0.25,0.56-0.44,0.78-0.68c0.89-0.96,1.56-2.03,1.52-3.39C152.23,154.85,151.64,153.91,150.32,153.74z M170.85,156.74
		c-0.46-1.01-1.11-1.94-1.64-2.95c-0.15,1.25-0.3,2.5-0.45,3.79c0.69-0.18,1.31-0.34,1.94-0.5
		C170.9,157.02,170.93,156.92,170.85,156.74z M218.81,171.48c-2.17-8.6-4.34-17.21-6.51-25.81c-2.08-8.23-4.16-16.46-6.22-24.7
		c-0.21-0.83-0.49-1.46-1.36-1.82c-0.66-0.27-1.25-0.74-1.8-1.21c-1.78-1.54-3.57-3.08-4.31-5.44c-0.89-2.79-1.12-5.59-0.18-8.43
		c0.13-0.39,0.22-0.79,0.35-1.27c-1.02-0.17-1.91-0.32-2.95-0.5c0.09,1.32,0.22,2.46,0.23,3.6c0.01,1.18,0.04,2.4-0.2,3.55
		c-0.26,1.24-1.19,1.59-2.36,1.1c-0.35-0.15-0.7-0.32-1.02-0.53c-2.87-1.92-5.22-4.26-6.19-7.72c-0.07-0.25-0.16-0.49-0.27-0.72
		c-1.25-2.67-0.84-5.23,0.47-7.74c0.23-0.44,0.49-0.88,0.73-1.32c-0.05-0.07-0.1-0.14-0.15-0.21c-0.41,0.16-0.84,0.27-1.22,0.48
		c-0.83,0.46-1.64,0.61-2.57,0.29c-0.42-0.14-0.92-0.14-1.36-0.08c-6.81,0.88-13.62,1.78-20.44,2.66
		c-10.16,1.32-20.31,2.63-30.47,3.95c-0.92,0.12-1.83,0.27-2.79,0.41c0.78,7.04-1.61,12.06-8.75,14.26
		c4.81,19.04,9.61,38.05,14.44,57.18c1.65-0.38,3.07-0.21,4.49,0.17c2.5,0.68,4.89,0.37,7.21-0.78c1.75-0.87,3.17-2.12,4.47-3.54
		c-0.12-0.08-0.25-0.15-0.32-0.26c-0.12-0.18-0.21-0.36-0.26-0.57c-0.35-1.41-0.71-2.81-1.06-4.23c-0.2-0.81-0.42-1.62-0.6-2.44
		c-0.16-0.73-0.42-1.45-0.6-2.19c-0.02-0.09-0.05-0.17-0.07-0.26c-0.2-1.18-0.62-2.32-0.92-3.49c-0.11-0.45-0.04-0.81,0.29-1.15
		c0.34-0.35,0.76-0.57,1.25-0.71c1.53-0.41,3.08-0.48,4.52,0.41c1.5,0.93,2.34,2.55,2.02,4.21c-0.13,0.66-0.28,1.3-0.56,1.92
		c-0.22,0.49-0.53,0.92-0.87,1.33c-0.33,0.39-0.69,0.77-1.04,1.16c0.88,0.51,1.79,0.96,2.7,1.41c0.91-0.85,1.91-1.57,3.05-2.09
		c-0.08-0.3-0.16-0.6-0.24-0.9c-0.08-0.3-0.11-0.62-0.18-0.92c-0.44-1.8-1.06-3.64-1.32-5.47c-0.08-0.58,0.18-0.93,0.79-1.15
		c0.56-0.21,1.17-0.3,1.76-0.41c0.41-0.08,0.84-0.13,1.15-0.18c0.58-0.18,1.08-0.21,1.57-0.27c0.61-0.08,1.07,0.2,1.22,0.71
		c0.15,0.53-0.11,1.01-0.71,1.15c-0.48,0.1-0.95,0.24-1.45,0.29c-0.64,0.07-1.26,0.23-1.89,0.36c-0.13,0.03-0.19,0.1-0.16,0.22
		c0.19,0.8,0.22,3.24,1.35,3.2c0.39-0.01,0.76-0.02,1.13-0.15c0.41-0.14,0.95,0.12,1.15,0.47c0.24,0.43,0.15,0.92-0.23,1.21
		c-0.2,0.15-0.43,0.25-0.69,0.27c-0.36,0.03-0.73,0.06-1.09,0.09c-0.31,0.03-0.38,0.06-0.3,0.35c0.04,0.15,0.06,0.29,0.1,0.44
		c2.37-0.68,4.67-0.58,6.84,0.44c0.16-1.36,0.31-2.73,0.48-4.1c0.12-1,0.28-2,0.39-3.01c0.08-0.7,0.13-1.41,0.28-2.1
		c0.06-0.3,0.17-0.56,0.46-0.72c0.48-0.27,1.32-0.13,1.72,0.32c0.14,0.16,0.28,0.34,0.38,0.53c0.31,0.56,0.6,1.14,0.9,1.7
		c0.69,1.32,1.38,2.63,2.07,3.94c0.13,0.25,0.41,0.42,0.49,0.69c0.17,0.66,0.56,1.23,0.84,1.85c0.3,0.66,0.69,1.29,1.03,1.94
		c0.13,0.26,0.25,0.53,0.33,0.7c0.11,0.56-0.08,0.93-0.49,1.11c-0.39,0.17-0.84,0.07-1.17-0.3c-0.35-0.4-0.58-0.88-0.8-1.35
		c-0.38-0.8-0.83-1.57-1.28-2.35c-0.07-0.13-0.16-0.18-0.31-0.15c-0.23,0.04-0.47,0.06-0.69,0.12c-0.75,0.23-1.51,0.45-2.24,0.73
		c-0.21,0.08-0.32,0.2-0.34,0.4c-0.05,0.41-0.1,0.81-0.16,1.22c0.17,0.13,0.35,0.24,0.52,0.38c2.82,2.36,3.46,4.71,2.37,8.21
		c-0.59,1.9-1.64,3.56-2.74,5.18c-0.53,0.78-1.08,1.54-1.49,2.38c-0.69,1.39-0.46,2.41,0.66,3.45c0.69,0.64,1.41,1.23,2.12,1.86
		c1.11,0.98,1.9,2.18,2.56,3.48c1.91,3.74-0.32,8.55-4.16,9.63c-2.11,0.6-4.21,0.63-6.34,0.36c-2.5-0.31-4.98-0.71-7.48-1
		c-1.96-0.22-3.92-0.08-5.83,0.49c-2.38,0.71-3.79,2.47-3.34,5.25c0.33,2.04-0.2,3.82-1.77,5.21c-0.47,0.41-0.51,0.81-0.36,1.36
		c0.47,1.73,0.9,3.47,1.36,5.2c0.07,0.27,0.2,0.53,0.3,0.79c5.86-0.33,10.83,1.06,13.87,6.72c13.83-2.27,27.71-4.54,41.62-6.83
		c0-0.54,0.02-0.96,0-1.38c-0.39-6.35-0.79-12.69-1.19-19.04c-0.2-3.19-0.31-6.4-0.65-9.58c-0.21-1.97,0.38-3.5,1.89-4.59
		c1.3-0.94,2.72-1.76,4.19-2.42c2.89-1.3,5.98-2.01,9.09-2.59c1.84-0.34,3.69-0.62,5.67-0.94
		C219.01,172.37,218.92,171.92,218.81,171.48z M188.22,129.89c0.33,0.31,0.39,0.77,0.14,1.2c-0.06,0.11-0.13,0.21-0.22,0.3
		c-0.57,0.57-1.08,1.19-1.7,1.71c-0.1,0.08-0.2,0.16-0.28,0.25c-0.52,0.54-1.03,1.08-1.57,1.66c0.21,0.17,0.39,0.35,0.59,0.5
		c0.74,0.55,1.4,1.2,2.14,1.75c1.03,0.77,1.95,1.67,2.99,2.41c0.46,0.33,0.83,0.76,1.26,1.12c0.44,0.37,0.47,0.96,0.14,1.33
		c-0.35,0.39-0.96,0.41-1.42,0.04c-0.75-0.6-1.53-1.17-2.26-1.8c-0.74-0.64-1.54-1.24-2.31-1.86c-0.55-0.45-1.11-0.9-1.74-1.41
		c0.14,0.8,0.27,1.49,0.39,2.18c0.12,0.74,0.28,1.47,0.4,2.2c0.1,0.59,0.17,1.19,0.31,1.77c0.05,0.23,0.07,0.45-0.02,0.67
		c-0.14,0.33-0.39,0.55-0.76,0.59c-0.38,0.04-0.73-0.08-0.96-0.41c-0.12-0.16-0.21-0.33-0.24-0.53c-0.08-0.56-0.24-1.11-0.3-1.67
		c-0.04-0.4-0.2-0.79-0.25-1.2c-0.09-0.83-0.32-1.64-0.46-2.46c-0.36-2.1-0.79-4.21-1.18-6.33c-0.08-0.44-0.11-0.89-0.25-1.33
		c-0.13-0.41-0.04-0.83,0.33-1.12c0.61-0.47,1.47-0.16,1.71,0.64c0.03,0.09,0.04,0.18,0.05,0.27c0.06,0.96,0.4,1.88,0.52,2.83
		c0,0.03,0.03,0.06,0.07,0.13c1.08-0.94,1.97-2.01,2.99-2.97c0.21-0.2,0.4-0.41,0.65-0.56
		C187.42,129.52,187.89,129.57,188.22,129.89z M176.58,111.16c0.43-0.18,0.82-0.05,1.16,0.27c0.34,0.32,0.68,0.65,0.99,0.99
		c0.85,0.93,1.77,1.78,2.65,2.68c0.2,0.21,0.4,0.41,0.64,0.65c0.4-0.76,0.81-1.47,1.15-2.22c0.24-0.52,0.5-1.03,0.78-1.52
		c0.28-0.5,0.54-1,0.78-1.52c0.15-0.32,0.34-0.61,0.68-0.77c0.69-0.32,1.41,0.13,1.44,0.91c0.01,0.31-0.07,0.6-0.23,0.85
		c-0.44,0.68-0.73,1.44-1.11,2.16c-0.54,1.02-1.07,2.04-1.61,3.06c-0.14,0.28-0.29,0.55-0.44,0.82c-0.1,0.19-0.1,0.37-0.07,0.59
		c0.15,0.98,0.47,1.92,0.64,2.89c0.15,0.88,0.42,1.73,0.56,2.6c0.04,0.24,0.04,0.48,0.01,0.71c-0.05,0.4-0.34,0.69-0.74,0.76
		c-0.4,0.07-0.79-0.1-1.01-0.47c-0.1-0.18-0.19-0.37-0.24-0.56c-0.24-0.93-0.48-1.87-0.68-2.81c-0.22-1.04-0.46-2.07-0.7-3.11
		c-0.05-0.21-0.15-0.38-0.3-0.54c-0.71-0.72-1.43-1.46-2.15-2.18c-0.83-0.84-1.67-1.66-2.49-2.52
		C175.72,112.26,175.85,111.47,176.58,111.16z M156.85,116.7c0.43-1.38,1.31-2.36,2.8-2.72c0.23-0.06,0.46-0.07,0.69-0.04
		c1.03,0.16,2.01,0.43,2.86,1.14c0.69,0.57,1.31,1.18,1.83,1.9c0.64,0.9,1.35,2.52,1.72,4.08c0.1,0.57,0.17,1.52,0.07,2.44
		c-0.08,0.71-0.27,1.4-0.65,2c-0.69,1.1-1.66,1.8-3.09,1.78c-0.23,0-0.46-0.03-0.68-0.11c-1.01-0.35-1.98-0.8-2.77-1.55
		c-1.01-0.95-1.71-2.09-2.26-3.33c-0.25-0.56-0.4-1.15-0.58-1.73c-0.13-0.43-0.13-0.86-0.17-1.29
		C156.54,118.41,156.59,117.53,156.85,116.7z M147.44,127.02c-0.83-1.23-1.36-2.63-1.65-4.05c-0.05-0.27-0.1-0.54-0.14-0.8
		c-0.22-1.51-0.2-3.06,0.31-4.46c0.65-1.79,2.12-3.12,4.03-3.59c0.62-0.15,1.29-0.2,1.96,0.03c0.47,0.16,0.96,0.23,1.39,0.52
		c0.34,0.22,0.64,0.48,0.9,0.78c0.37,0.44,0.37,0.98,0.02,1.35c-0.34,0.36-0.89,0.38-1.37,0.06c-0.07-0.04-0.13-0.1-0.19-0.15
		c-0.85-0.72-1.72-0.7-2.62-0.32c-1.29,0.55-2.08,1.51-2.33,2.88c-0.17,0.93-0.1,1.9,0.06,2.85c0.31,1.85,1,3.83,2.5,5.16
		c1.43,1.27,3.42,1.7,4.59,0.11c0.29-0.39,0.58-0.79,0.85-1.19c0.34-0.51,0.94-0.59,1.44-0.25c0.45,0.3,0.61,0.8,0.38,1.29
		c-0.65,1.39-1.69,2.41-3.13,3.04c-0.36,0.15-0.75,0.21-1.15,0.24C150.88,130.68,148.73,128.94,147.44,127.02z M159.74,146.09
		c-0.73,1.08-1.79,1.72-3.02,2.18c-0.37,0.14-0.74,0.3-1.1,0.46c-0.39,0.17-0.8,0.25-1.22,0.31c-0.74,0.12-1.35-0.21-1.64-0.88
		c-0.29-0.65-0.43-1.34-0.62-2.02c-0.33-1.18-0.62-2.38-0.97-3.57c-0.3-1.03-0.56-2.08-0.87-3.11c-0.23-0.79-0.45-1.59-0.69-2.39
		c-0.16-0.53-0.32-1.07-0.45-1.6c-0.2-0.86,0.37-1.69,1.23-1.86c0.7-0.14,1.37-0.36,2.1-0.39c1.41-0.07,2.74,0.17,3.94,1.02
		c0.83,0.59,1.31,1.38,1.57,2.29c0.32,1.12,0.19,2.18-0.3,3.19c-0.36,0.75-0.75,1.48-1.36,2.07c-0.03,0.03-0.04,0.09-0.06,0.13
		c0.15,0.11,0.3,0.07,0.45,0.08c1.27,0.12,2.29,0.63,3.01,1.69C160.25,144.42,160.21,145.4,159.74,146.09z M170.16,142.95
		c-0.29,1.05-1,1.79-1.85,2.43c-0.4,0.3-0.9,0.45-1.42,0.51c-1.16,0.16-2.21-0.15-3.17-0.83c-1.04-0.75-1.89-1.66-2.45-2.78
		c-0.52-1.04-0.89-2.12-0.94-3.27c-0.02-0.43-0.1-0.86-0.07-1.29c0.09-1.28,0.49-2.45,1.28-3.45c0.42-0.54,1.01-0.91,1.7-1.12
		c1.62-0.49,3.04-0.02,4.33,1.04c0.91,0.75,1.62,1.64,2.11,2.67c0.39,0.83,0.7,1.69,0.75,2.6c0.02,0.35,0.13,0.7,0.13,1.06
		C170.53,141.35,170.38,142.15,170.16,142.95z M169.75,126.89c-0.39-0.24-0.55-0.61-0.57-1.05c-0.04-0.59,0.16-1.11,0.32-1.65
		c0.21-0.69,0.43-1.39,0.68-2.07c0.37-1.05,0.79-2.08,1.15-3.13c0.47-1.37,1.05-2.7,1.47-4.09c0.04-0.12,0.06-0.25,0.11-0.45
		c-0.72,0.05-1.35,0.18-1.97,0.31c-0.39,0.09-0.77,0.17-1.16,0.25c-0.28,0.05-0.57,0.03-0.85-0.07c-0.36-0.13-0.61-0.38-0.69-0.74
		c-0.08-0.36,0.03-0.67,0.31-0.9c0.23-0.19,0.52-0.29,0.82-0.35c0.88-0.2,1.77-0.39,2.65-0.57c0.67-0.14,1.36-0.14,2.04,0.04
		c0.64,0.17,0.98,0.58,1.05,1.23c0.04,0.38,0.04,0.76-0.07,1.11c-0.45,1.42-0.85,2.86-1.4,4.23c-0.49,1.24-0.97,2.48-1.45,3.72
		c-0.18,0.45-0.3,0.93-0.51,1.37c-0.1,0.21-0.16,0.44-0.14,0.72c0.47-0.02,0.9-0.2,1.34-0.32c0.23-0.07,0.46-0.15,0.7-0.17
		c0.77-0.08,1.49-0.3,2.21-0.55c0.63-0.22,1.18,0,1.42,0.55c0.24,0.54-0.01,1.15-0.6,1.39c-0.49,0.21-1.03,0.28-1.55,0.42
		c-1.27,0.32-2.56,0.59-3.8,1C170.74,127.32,170.22,127.19,169.75,126.89z M172.6,141.21c-0.4-0.71-0.62-1.47-0.84-2.23
		c-0.23-0.8-0.21-1.63-0.14-2.45c0.05-0.68,0.2-1.33,0.42-1.98c0.31-0.9,0.85-1.64,1.65-2.19c1.26-0.87,2.8-0.8,4.1,0.14
		c1.25,0.9,1.96,2.11,2.36,3.5c0.12,0.41,0.31,0.82,0.29,1.14c0.25,1.78,0.02,3.35-0.77,4.78c-0.55,0.99-1.45,1.61-2.57,1.94
		c-0.44,0.13-0.9,0.11-1.36-0.04C174.31,143.39,173.31,142.48,172.6,141.21z M175.69,155.19c-0.23-1.1-0.48-2.2-0.68-3.31
		c-0.14-0.75-0.37-1.49-0.39-2.26c-0.02-0.6,0.25-1,0.87-1.12c1.31-0.26,2.62-0.23,3.9,0.16c1.34,0.41,2.48,1.1,3.43,2.13
		c0.88,0.95,1.48,2.01,1.74,3.21c0.29,1.33,0.23,2.63-0.29,3.91c-0.68,1.67-1.85,2.95-3.21,4.12c-0.36,0.3-0.75,0.56-1.15,0.81
		c-0.36,0.23-0.77,0.35-1.18,0.45c-0.32,0.07-0.64,0.01-0.92-0.21c-0.35-0.27-0.61-0.58-0.7-1.01c-0.24-1.17-0.49-2.34-0.74-3.52
		c0.01,0,0.01,0,0.02,0C176.16,157.43,175.92,156.31,175.69,155.19z M187.1,183.18c-1.04,2.32-4.21,5.71-4.6,5.77
		c-0.4,0.05-3.94-1.78-5.91-4.05c-1.16-1.33-1.15-3.21,0.01-4.47c1.16-1.26,3.3-1.16,4.47,0.01c0.07,0.07,0.14,0.14,0.21,0.21
		c0.05-0.1,0.11-0.19,0.16-0.29c0.85-1.55,2.63-2.14,4.24-1.42C187.2,179.62,187.78,181.67,187.1,183.18z M192.38,160.09
		c-0.21,0.22-0.48,0.35-0.78,0.4c-1.09,0.17-2.14,0.48-3.23,0.65c-0.63,0.1-1.19-0.28-1.31-0.84c-0.21-1.05-0.47-2.09-0.67-3.14
		c-0.14-0.72-0.33-1.43-0.49-2.15c-0.07-0.3-0.08-0.61-0.15-0.92c-0.38-1.79-0.91-3.62-1.12-5.44c-0.06-0.58,0.21-0.92,0.8-1.14
		c0.56-0.2,1.15-0.29,1.73-0.41c0.41-0.08,0.82-0.13,1.13-0.18c0.57-0.18,1.06-0.21,1.54-0.27c0.6-0.08,1.03,0.2,1.16,0.71
		c0.13,0.53-0.14,1.01-0.73,1.14c-0.47,0.1-0.93,0.24-1.42,0.28c-0.62,0.06-1.23,0.23-1.85,0.35c-0.12,0.03-0.19,0.1-0.16,0.22
		c0.16,0.8,0.11,3.22,1.21,3.18c0.38-0.01,0.74-0.02,1.11-0.15c0.4-0.14,0.92,0.12,1.1,0.47c0.22,0.43,0.12,0.92-0.26,1.21
		c-0.2,0.15-0.43,0.25-0.68,0.27c-0.36,0.03-0.71,0.05-1.07,0.08c-0.3,0.03-0.37,0.06-0.3,0.34c0.17,0.7,0.23,1.42,0.4,2.12
		c0.14,0.56,0.28,1.12,0.35,1.7c0.05,0.46,0.13,0.49,0.62,0.43c0.66-0.09,1.27-0.32,1.92-0.44c0.27-0.05,0.53-0.05,0.79,0.04
		C192.61,158.82,192.93,159.52,192.38,160.09z M201.67,157.66c-0.2,0.33-0.61,0.47-1.06,0.37c-0.24-0.05-0.47-0.15-0.69-0.26
		c-0.77-0.42-1.54-0.85-2.31-1.27c-0.61-0.33-1.24-0.66-1.9-1.01c0.32,1.2,0.45,2.38,0.73,3.53c0.06,0.24,0.07,0.47,0,0.7
		c-0.11,0.37-0.39,0.59-0.78,0.67c-0.37,0.07-0.81-0.13-1-0.45c-0.1-0.18-0.18-0.36-0.22-0.57c-0.27-1.39-0.54-2.79-0.82-4.2
		c-0.16-0.81-0.33-1.61-0.46-2.42c-0.12-0.73-0.33-1.44-0.47-2.17c-0.02-0.09-0.04-0.17-0.05-0.25c-0.14-1.17-0.48-2.3-0.71-3.46
		c-0.09-0.44,0-0.81,0.33-1.14c0.35-0.35,0.76-0.57,1.23-0.69c1.49-0.4,2.98-0.47,4.31,0.43c1.39,0.93,2.12,2.54,1.74,4.18
		c-0.15,0.65-0.34,1.29-0.63,1.9c-0.23,0.48-0.55,0.91-0.9,1.32c-0.33,0.39-0.7,0.76-1.05,1.14c0.86,0.53,1.75,1,2.63,1.47
		c0.45,0.24,0.9,0.48,1.34,0.73c0.21,0.12,0.42,0.26,0.58,0.44C201.81,156.97,201.87,157.34,201.67,157.66z M195.87,146.74
		c-0.46-0.07-0.93-0.03-1.39,0.06c-0.66,0.12-0.42,0.41-0.3,0.94c0.25,1.18,0.51,2.38,0.7,3.56c0.08,0.5,0.17,1,0.35,1.54
		c0.29-0.24,0.56-0.43,0.78-0.66c0.9-0.95,1.6-2,1.62-3.35C197.65,147.85,197.13,146.91,195.87,146.74z M177.21,152.45
		c0.16,0.87,0.3,1.74,0.48,2.6c0.1,0.49,0.24,0.98,0.32,1.46c0.22,1.36,0.57,2.69,0.79,4.04c0.03,0.18,0.04,0.37,0.17,0.51
		c0.05,0,0.07,0.01,0.08,0.01c0.06-0.03,0.13-0.06,0.18-0.1c0.87-0.57,1.62-1.26,2.24-2.06c0.41-0.53,0.75-1.11,0.98-1.73
		c0.36-1,0.4-2.03,0.08-3.07c-0.52-1.69-1.6-2.91-3.4-3.5c-0.38-0.12-0.78-0.2-1.17-0.31c-0.24-0.07-0.47-0.07-0.7-0.03
		c-0.44,0.08-0.46,0.08-0.38,0.49C176.97,151.32,177.11,151.88,177.21,152.45z M167.13,136.52c-0.46-0.67-1.07-1.21-1.89-1.46
		c-0.63-0.19-1.2-0.12-1.69,0.26c-0.39,0.3-0.7,0.67-0.87,1.13c-0.31,0.84-0.41,1.73-0.29,2.63c0.14,1.08,0.51,2.1,1.13,3.04
		c0.46,0.69,1.01,1.28,1.81,1.61c1,0.42,1.82,0.2,2.4-0.55c0.27-0.34,0.46-0.75,0.58-1.18c0.26-0.97,0.19-1.96-0.03-2.95
		C168.09,138.15,167.66,137.31,167.13,136.52z"/>
	<path class="st14" d="M253.29,201.14c-13.32,3.08-26.43,3.1-39.54-0.44c0,2.11-0.02,4.11,0,6.12c0.09,10.63,0.21,21.25,0.27,31.88
		c0.01,0.97,0.31,1.5,1.22,1.78c1.22,0.38,2.4,0.9,3.64,1.22c8.41,2.18,16.93,2.6,25.52,1.46c2.28-0.3,4.52-0.84,6.66-1.77
		c1.15-0.5,1.62-1.2,1.64-2.52c0.15-12.08,0.38-24.15,0.59-36.23C253.3,202.17,253.29,201.7,253.29,201.14z M246.73,230.32
		c-1.61,2.5-5.96,3.9-8.86,2c-1.08,4.63-5.11,6.46-8.01,5.63c-1.73-0.49-3.01-1.52-3.94-3.03c-0.73-1.18-0.8-1.79-0.62-4.83
		c-1.18,0.07-2.35,0.27-3.51,0.18c-1.7-0.13-2.81-1.29-3.59-2.67c-1.23-2.17-1.49-4.43-0.21-6.71c0.84-1.5,2.38-1.99,3.82-2.6
		c0.52-0.22,1.1-0.32,1.64-0.47c-0.46-0.93-1.05-1.79-1.32-2.74c-0.29-1.03-0.45-2.16-0.38-3.23c0.11-1.59,1.02-2.76,2.4-3.59
		c3.13-1.88,7.59-1.64,9.75,2.27c0.13,0.24,0.29,0.46,0.43,0.68c0.56-0.5,1.08-1,1.64-1.43c3.57-2.78,9.61-0.6,10.26,4.41
		c0.34,2.66-0.11,4.97-2.16,6.99c2.12,1.04,3.49,2.61,3.78,4.97C248.05,227.69,247.56,229.03,246.73,230.32z"/>
	<path class="st3" d="M243.8,231.06c-1.22,0.71-2.63,0.9-3.97,0.54c-1.19-0.32-2.28-1.17-3.16-2.47c-0.5-0.73-0.81-1.62-1.11-2.47
		l-0.02-0.05c-0.05-0.13,0.13-0.49,0.32-0.67c1.14-1.09,1.77-2.19,1.99-3.46c0.03-0.17,0.29-0.43,0.46-0.47
		c0.49-0.12,1.01-0.18,1.52-0.24c0.2-0.02,0.4-0.05,0.6-0.07c1.77-0.04,3.35,0.6,4.7,1.91c1.19,1.16,1.63,2.64,1.22,4.16
		C245.97,229.14,245.05,230.34,243.8,231.06z M237.68,220.42l1.07,0c1.31,0,2.55,0,3.8-0.01c0.06,0,0.21-0.04,0.46-0.26
		c1.63-1.47,2.21-3.35,1.79-5.77c-0.34-1.91-1.35-3.22-3.1-4c-2.22-0.99-4.95-0.2-6.21,1.79c-0.16,0.26-0.23,0.65-0.16,0.9
		c0.41,1.46,0.58,2.7,0.11,3.99c-0.03,0.07,0.05,0.3,0.13,0.36C236.51,218.14,237.21,219.12,237.68,220.42z M223.11,212.3
		c-0.03,2.79,1.02,4.71,3.21,5.87c0.6,0.32,1.12,0.3,1.65-0.04c1.53-1,3.03-1.43,4.57-1.32c0.1,0,0.2,0,0.31,0
		c0.23,0.01,0.42,0.01,0.62-0.01c0.16-0.02,0.32-0.09,0.35-0.12c0.02-0.09,0.05-0.2,0.08-0.31c0.12-0.43,0.25-0.88,0.19-1.28
		c-0.24-1.73-0.99-3.39-2.23-4.91c-0.6-0.73-1.39-1.22-2.36-1.46c-0.47-0.11-0.93-0.17-1.38-0.17c-1.23,0-2.44,0.42-3.66,1.27
		C223.6,210.41,223.12,211.29,223.11,212.3z M233.91,227.19c-1.7,0.41-1.93,0.4-4-0.45c-0.14-0.06-0.24-0.08-0.33-0.08
		c-0.18,0-0.29,0.11-0.45,0.33c-0.26,0.37-0.57,0.72-0.86,1.05c-0.15,0.17-0.29,0.33-0.44,0.5c-0.09,0.11-0.19,0.21-0.3,0.32
		c-0.23,0.24-0.45,0.46-0.52,0.71c-0.3,1.07-0.44,1.94-0.46,2.73c-0.02,1.05,0.52,2.19,1.44,3.06c1.02,0.96,2.35,1.44,3.73,1.32
		c2.36-0.19,4.42-2.36,4.68-4.94c0.02-0.2-0.05-0.45-0.15-0.55C235.19,230.08,234.42,228.78,233.91,227.19z M218.65,223.18
		c-0.2,1.74,0.31,3.3,1.51,4.64c0.8,0.89,1.8,1.26,2.96,1.09c2.27-0.31,3.92-1.41,5.05-3.36c-1.69-1.58-2.22-3.45-1.58-5.57
		c-0.94-0.52-1.78-0.78-2.59-0.78c-0.5,0-1,0.1-1.49,0.3C220.74,220.2,218.91,220.92,218.65,223.18z"/>
	<path class="st15" d="M232.38,225.93c0.19,0.03,0.38,0.01,0.48-0.05c0.18-0.11,0.35-0.21,0.53-0.32c0.6-0.36,1.23-0.73,1.75-1.19
		c0.72-0.63,1.11-1.46,1.14-2.39c0.03-0.99-0.27-1.85-0.89-2.47c-0.72-0.73-1.82-1.11-3.14-1.07c-0.84-0.11-1.82,0.14-2.87,0.72
		c-1.11,0.62-1.67,1.78-1.43,2.97C228.35,224.12,230.05,225.58,232.38,225.93z"/>
</g>
</svg>
