<?xml version="1.0" encoding="utf-8"?>
<!-- Generator: Adobe Illustrator 28.0.0, SVG Export Plug-In . SVG Version: 6.00 Build 0)  -->
<svg version="1.1" id="Layer_1" xmlns="http://www.w3.org/2000/svg" xmlns:xlink="http://www.w3.org/1999/xlink" x="0px" y="0px"
	 viewBox="0 0 300 300" style="enable-background:new 0 0 300 300;" xml:space="preserve">
<style type="text/css">
	.st0{fill:#231F20;}
	.st1{fill:#F494AF;}
	.st2{fill:#F1E8DB;}
	.st3{fill:#A7D7CB;}
	.st4{fill:#F7B15C;}
	.st5{fill:#97BE9D;}
	.st6{fill:#F1BF86;}
</style>
<g>
	<g>
		<g>
			<path class="st0" d="M84.18,88.02c-0.03,0.05-0.1,0.14-0.09,0.18c0.16,0.27,4.24,1.17,5.22,5.1c1.45,5.84-5.67,8.96-11.17,9.75
				c-0.56,0.08-1.08,0.11-1.63,0.03c-3.99-0.57-6.12-8.51-6.67-11.45c-0.66-3.51-1.05-10.28,0.84-13.51
				c1.49-2.54,4.57-4.12,7.38-4.56c3.88-0.6,8.62,1.33,9.78,5.66C88.82,82.89,86.29,85.6,84.18,88.02z M81.94,94.91
				c-0.28-1.21-1.89-2-3.18-2c-0.59,0.25-0.18,1.48-0.08,1.93c0.09,0.4,0.49,2.22,0.86,2.38c0.05,0.03,0.2,0.06,0.25,0.05
				C81.05,97.1,82.21,96.08,81.94,94.91z M80.46,81.42c-0.22-0.95-1.54-1.53-2.43-1.4c-0.17,0.02-0.29,0.08-0.4,0.18
				c-0.36,0.35-0.1,2.93,0.02,3.47c0.06,0.29,0.22,0.39,0.52,0.35C79.26,83.87,80.72,82.53,80.46,81.42z"/>
			<path class="st0" d="M114.67,88.97c0.74,7.26-3.61,14.81-11.95,14.15c-7.59-0.6-11.99-7.92-12.37-14.18
				c-0.41-6.84,3.34-15.33,11.2-15.05C108.81,74.15,114,82.39,114.67,88.97z M105.69,89c-0.15-1.6-0.94-5.38-3.22-5.52
				c-2.32-0.14-2.95,4.1-2.81,5.85c0.14,1.75,0.65,3.95,2.97,4.12C105.17,93.63,105.87,90.97,105.69,89z"/>
			<path class="st0" d="M136.05,99.15c0.8,1.1,1.73,2.44,1.65,3.78c-0.13,2.27-3.04,2.26-4.73,1.93c-3.7-0.74-5.38-12.75-7.13-13.05
				c-0.37-0.06-0.28,0.38-0.28,0.64c0.01,3.1,0.68,6.25,0.56,9.21c-0.11,2.59-1.85,2.49-3.94,2.11c-1.37-0.25-3.37-0.77-4.26-2.14
				c-0.99-1.53-0.95-8.38-0.97-10.41c-0.03-3.59,0.18-7.23,0.74-10.83c0.77-4.86,3.45-7.18,8.35-6.53
				c5.16,0.69,10.23,5.06,10.36,11.12c0.06,2.8-1.48,6.33-4.08,6.67C133.35,94.03,134.61,97.16,136.05,99.15z M128.49,84.32
				c-0.06-1.49-1.61-2.77-2.85-2.96c-0.62-0.09-0.47,3.07-0.44,3.61c0.03,0.67-0.06,1.58,0.76,1.71
				C127.43,86.92,128.55,86,128.49,84.32z"/>
			<path class="st0" d="M158.03,77.29c0.99,3.57,1.75,7.17,2.32,10.68c0.59,3.56,0.99,7.09,1.19,10.5c0.17,2.77-0.07,6.99-3.08,7.23
				c-5.03,0.4-8-12.94-10.9-12.65c-0.51,0.05-0.27,1.42-0.2,1.82c0.47,2.76,1.67,5.42,2.05,8.14c0.36,2.59-0.81,3.83-3,3.96
				c-4.73,0.28-5.51-6.33-6.2-10.13c-0.79-4.41-4.65-20.27,1.22-21.11c3.62-0.52,6.1,6.1,8,8.9c0.28,0.41,0.66,0.65,1.13,0.6
				c1.99-0.24-0.78-8.8,0.6-10.99c0.51-0.86,1.42-1.11,2.27-1.24C156.12,72.59,157.18,74.21,158.03,77.29z"/>
			<path class="st0" d="M191.16,76.65c0.33,1.96-0.1,3.71-1.68,4.72c-1.09,0.7-2.55,0.94-3.73,1.36c-0.16,0.04-1.26,0.4-1.23,0.59
				c0.93,5.57,1.55,10.95,2.09,16.18c0.28,2.75,0.09,6.53-2.84,7.28c-3.44,0.87-4.34-2.35-4.78-5.63
				c-0.7-5.12-1.31-10.44-1.99-15.99c-2.82,0.31-6.37,1.72-7.35-3.18c-0.42-2.13-0.51-4.38,1.11-5.55
				c1.42-1.02,8.07-2.41,10.14-2.85C184,72.9,190.25,71.3,191.16,76.65z"/>
			<path class="st0" d="M214.54,88.45c-0.37,7.2-5.64,16.45-13.41,17.02c-7.07,0.52-10.07-7.46-9.75-14.55
				c0.35-7.74,5.08-17.33,12.85-16.97C211.42,74.28,214.88,81.93,214.54,88.45z M205.78,89.61c0.09-1.69-0.08-5.62-2.26-5.6
				c-2.22,0.01-3.42,4.68-3.53,6.59c-0.1,1.91,0.08,4.3,2.25,4.2C204.63,94.69,205.67,91.7,205.78,89.61z"/>
			<path class="st0" d="M104.23,145.82c1.28,1.61,2.76,3.57,2.4,5.68c-0.61,3.56-5.96,4.05-9.12,3.89
				c-6.9-0.34-8.11-19.36-11.59-19.45c-0.73-0.02-0.66,0.68-0.72,1.1c-0.66,5,0.11,10.01-0.57,15.03c-0.6,4.39-4.02,4.89-8.29,5.18
				c-2.79,0.19-6.74,0.33-8.42-1.63c-1.87-2.18-0.82-14.34-0.43-17.84c0.68-6.2,2.1-12.43,4.33-18.33
				c3.02-7.98,9.33-11.66,18.58-10.8c9.73,0.91,18.07,7.3,17.28,16c-0.36,4.02-3.93,9.25-8.96,10.03
				C100.13,138.22,101.91,142.9,104.23,145.82z M92.84,123.91c0.17-2.22-2.57-4.02-5.01-4.18c-1.22-0.08-1.6,4.71-1.66,5.53
				c-0.08,1.03-0.44,2.45,1.19,2.52C90.29,127.92,92.64,126.41,92.84,123.91z"/>
			<path class="st0" d="M142.74,149.93c0.11,5.2-5.34,6.46-9.45,6.88c-3.41,0.35-6.97,0.61-10.54,0.7
				c-1.59,0.04-3.26,0.11-4.79-0.45c-3.54-1.29-4.57-5.36-5.13-8.58c-0.69-4-1.21-8.01-1.54-12.11c-0.47-5.75-0.83-11.69-0.67-17.44
				c0.19-7.17,8.43-7.58,14.22-7.87c3.34-0.17,10.92-0.89,13.44,2.52c1.05,1.39,1.52,3.01,1.7,4.63c0.48,4.23,0.48,6.43-4.02,6.51
				c-2.97,0.05-4.46,0.08-7.48,0.14c-2.02,0.04-2.47,0.93-2.29,2.8c0.08,0.8,0.35,2.27,1.43,2.25c1.89-0.02,3.81-0.31,5.67-0.33
				c3.92-0.03,4.75,2.14,4.93,5.65c0.36,7.15-11.81,3.01-11.6,7.44c0.05,1.11,0.39,1.23,1.38,1.23c2.79-0.02,5.54-0.27,8.28-0.26
				C141.1,143.66,142.63,144.92,142.74,149.93z"/>
			<path class="st0" d="M170.82,116.5c4.19,6.27,7.26,28.81,7.42,36.06c0.1,4.52-1.81,9.08-7.22,9.31c-4.57,0.2-6.91-2.62-6.91-6.82
				c0-3.67,0.87-7.39,0.86-11.14c0-1.34-0.41-2.81-2.05-2.78c-0.85,0.01-1.63,0.49-2.15,1.17c-1.95,2.55-0.69,13.74-3.72,17.13
				c-1.64,1.79-4.19,2.37-6.6,2.29c-4.35-0.14-7.11-1.74-7.06-6.47c0.01-1.1,0.15-2.14,0.35-3.23c2.22-11.42,6.72-21.84,13.65-32.17
				c1.94-2.95,4.45-6.11,8.14-6.32C167.82,113.4,169.52,114.57,170.82,116.5z M165.86,132.78c-0.02-1.11-0.86-5.3-2.18-5.25
				c-0.86,0.03-2.67,5.68-2.65,6.65c0.02,0.97,1.13,1.14,1.84,1.12C164.13,135.27,165.9,134.38,165.86,132.78z"/>
			<path class="st0" d="M219.08,132.63c-1.9,15.42-15.96,29.61-31.9,29.03c-2.5-0.09-4.71-0.28-5.66-2.65
				c-1.34-3.35,0.39-17.24,1.07-21.51c0.92-5.71,2.28-12.03,4.02-18.13c1.85-6.5,7.79-7.28,13.17-7.43
				C212.02,111.62,220.57,120.51,219.08,132.63z M203.94,135.68c0.38-2.93-1.13-6.71-4.54-6.57c-3.62,0.15-4.64,5.87-5,8.39
				c-0.31,2.17-0.94,5.74,2.15,5.69C200.08,143.12,203.53,138.82,203.94,135.68z"/>
			<path class="st0" d="M83.53,166.16c0.37,2.64-3.13,4.01-5.43,4.7c-0.92,0.28-2.9,0.9-3.66,1.51c-0.22,0.18-0.14,0.64-0.11,0.81
				c0.24,1.4,0.47,1.28,1.97,0.79c2.11-0.68,5.66-1.65,6.02,0.94c0.2,1.39-0.78,2.82-2.38,3.32c-0.78,0.24-1.6,0.26-2.4,0.52
				c-0.6,0.2-1.31,0.75-1.21,1.39c0.19,1.16,1.59,3.19,1.8,4.79c0.27,2.01-1.74,3.63-3.68,4.32c-0.82,0.29-1.57,0.06-2.12-0.39
				c-1.9-1.65-4.12-9.32-4.63-12c-0.44-2.31-1.13-7.84,1.26-10.15c0.69-0.7,1.65-1.13,2.58-1.43
				C74.38,164.36,83.06,162.86,83.53,166.16z"/>
			<path class="st0" d="M103.27,173.52c-0.81,5.64-5.3,12.51-11.81,12.64c-5.93,0.13-8.58-5.99-8.02-11.25
				c0.61-5.75,5.63-12.94,12.27-12.76C101.85,162.32,104,168.42,103.27,173.52z M96.07,173.8c0.17-1.28,0.26-4.25-1.6-4.27
				c-1.89-0.02-3.19,3.46-3.36,4.89c-0.17,1.43-0.1,3.23,1.74,3.21C94.86,177.61,95.86,175.39,96.07,173.8z"/>
			<path class="st0" d="M118.35,180.77c0.55,0.85,1.2,1.9,1.05,2.99c-0.27,1.83-2.66,1.92-4.04,1.7c-3.01-0.48-3.07-10.02-4.46-10.2
				c-0.29-0.04-0.28,0.3-0.32,0.5c-0.41,2.39-0.22,4.89-0.61,7.37c-0.34,2.17-1.75,2.23-3.43,2.07c-1.1-0.1-2.62-0.35-3.19-1.46
				c-0.63-1.23,0.17-6.95,0.43-8.56c0.46-2.84,1.2-5.63,2.31-8.27c1.5-3.57,4.28-5.17,8.01-4.53c3.92,0.67,7.05,3.75,6.26,7.98
				c-0.36,1.95-2.05,4.48-4.19,4.72C116.69,176.85,117.35,179.22,118.35,180.77z M114.17,169.67c0.2-1.07-0.82-2-1.8-2.14
				c-0.49-0.07-0.9,2.21-0.97,2.6c-0.09,0.49-0.31,1.16,0.34,1.25C112.91,171.54,113.95,170.87,114.17,169.67z"/>
			<path class="st0" d="M136.2,170.31c0.1,1.64-0.62,3.18-2.4,3.24c-2.8,0.1-2.18-3.19-3.83-3.12c-2.06,0.08-2.35,3.63-2.24,5.2
				c0.1,1.47,0.82,4.3,2.73,4.2c1.72-0.08,1.11-3.07,3.34-3.16c1.27-0.05,1.95,0.87,2.05,2.07c0.31,3.84-2.25,8.08-6.18,8.34
				c-5.04,0.34-8.23-5.49-8.55-9.98c-0.38-5.48,2.58-12.83,8.64-13.03C133.32,163.95,135.98,166.78,136.2,170.31z"/>
			<path class="st0" d="M151.3,186.53c-0.43,2.55-3.33,2.57-5.43,2.28c-1.74-0.24-3.53-0.56-5.27-1c-0.77-0.19-1.58-0.4-2.23-0.9
				c-1.51-1.17-1.54-3.35-1.39-4.97c0.19-2.01,0.49-3.97,0.92-5.91c0.6-2.72,1.41-5.44,2.48-7.93c1.34-3.11,4.82-2.19,7.51-1.52
				c1.55,0.39,5.19,1.1,5.84,2.85c0.28,0.72,0.25,1.46,0.09,2.18c-0.41,1.87-0.73,2.85-2.93,2.32c-1.45-0.35-2.16-0.53-3.59-0.89
				c-0.96-0.24-1.3,0.1-1.49,0.96c-0.08,0.37-0.17,1.07,0.34,1.2c0.89,0.23,1.85,0.33,2.75,0.56c1.9,0.47,2.02,1.54,1.68,3.2
				c-0.69,3.38-6.13-0.05-6.57,2.09c-0.11,0.53,0.04,0.64,0.52,0.76c1.35,0.34,2.73,0.55,4.11,0.89
				C151.06,183.31,151.71,184.08,151.3,186.53z"/>
			<path class="st0" d="M191.96,171.3c0.13,1.32-0.4,2.51-1.91,3.13c-1.04,0.43-2.36,0.52-3.44,0.73c-0.14,0.02-1.15,0.19-1.14,0.31
				c0.32,3.74,0.37,7.54,0.81,11.25c0.23,1.95,0.06,4.64-2.64,4.83c-3.18,0.22-3.99-2.22-4.32-4.53c-0.51-3.62-0.54-7.3-0.56-10.93
				c-2.45-0.05-5.63,0.42-5.81-2.69c-0.08-1.35,0.16-2.7,1.65-3.27c1.31-0.5,6.97-0.92,8.76-1.11
				C186.06,168.73,191.61,167.69,191.96,171.3z"/>
			<path class="st0" d="M212.81,178.94c-0.66,5.9-6.17,12.94-13.68,12.61c-6.84-0.3-9.65-6.42-8.95-11.38
				c0.76-5.41,5.68-11.81,13.06-12.07C210.06,167.86,213.4,173.6,212.81,178.94z M203.96,179.83c0.16-1.29,0.15-4.26-1.96-4.24
				c-2.15,0.02-3.52,3.41-3.71,4.81c-0.18,1.4-0.11,3.19,2.01,3.23C202.62,183.67,203.76,181.42,203.96,179.83z"/>
			<path class="st0" d="M111.63,196.48c0.22,4.19-2.77,23.57-3.5,29.3c-0.69,5.44-1.82,12.49-7.41,13.31
				c-8.14,1.19-5.84-14.69-8.83-14.13c-3.69,0.69-1.99,15.91-9.5,16.86c-5.89,0.74-8-6.48-8.91-11.09
				c-1.48-7.49-2.77-14.81-5.27-21.42c-0.29-0.83-0.52-1.68-0.62-2.57c-0.47-4.08,2.58-7.3,6.67-8.53c3.27-0.98,4.8,0.61,5.91,3.13
				c1.46,3.3,1.54,8.45,2.93,11.35c0.13,0.16,0.34,0.5,0.58,0.44c3.39-0.79,2.03-9.57,6.03-10.47c3.77-0.85,2.41,8.12,4.91,7.62
				c4-0.82-0.35-17.15,9.98-18.74C107.89,191.04,111.42,192.47,111.63,196.48z"/>
			<path class="st0" d="M144.73,217.35c-0.22,10.7-6.04,24.13-17.54,22.68c-10.47-1.32-15.68-15.08-14.86-25.26
				c0.9-11.12,8.79-22.48,19.03-20.39C140.83,196.3,144.93,207.66,144.73,217.35z M132.58,216.38c0.11-2.47-0.04-8.12-3.02-8.66
				c-3.04-0.55-4.92,5.73-5.08,8.5c-0.16,2.77,0.17,6.44,3.26,6.92C131.13,223.66,132.45,219.43,132.58,216.38z"/>
			<path class="st0" d="M177.54,227.99c1.63,1.32,3.59,2.94,4.07,4.98c0.81,3.45-3.43,4.74-6.07,4.96
				c-5.76,0.48-13.05-17.53-15.6-17.41c-0.53,0.02-0.29,0.66-0.22,1.05c0.9,4.63,3.05,9.31,4.33,14.21c1.12,4.29-1.3,5.01-4.44,5.34
				c-2.05,0.21-4.96,0.27-6.82-1.71c-2.07-2.2-4.66-13.7-5.22-16.9c-0.99-5.66-1.29-11.14-0.76-16.3
				c0.71-6.96,4.54-10.16,11.32-10.11c7.12,0.06,14.8,4.33,16.03,12.19c0.57,3.63-0.92,8.87-4.73,10.09
				C171.6,221.44,174.59,225.58,177.54,227.99z M162.15,209.18c-0.29-2-2.58-3.35-4.34-3.33c-0.88,0.01-0.31,4.28-0.2,5.02
				c0.14,0.93,0.16,2.24,1.34,2.2C161.07,213.02,162.48,211.43,162.15,209.18z"/>
			<path class="st0" d="M215.05,236.05c-0.11,2.84-3.11,4.99-5.79,4.85c-1.68-0.08-3.57-0.74-4.68-2.04
				c-2.68-3.24-4.64-7-7.19-10.35c-0.27-0.32-0.75-0.9-1.22-0.93c-0.72-0.05-0.43,2.3-0.41,2.73c0.27,5.86,1.5,10.17-6.22,9.74
				c-2.95-0.16-4.51-1.84-5.02-4.83c-0.82-4.79-1.21-9.62-1.43-14.19c-0.22-4.51-0.74-17.2,0.7-20.68c1.04-2.52,3.24-2.92,6.15-2.75
				c5.49,0.33,6.52,2.84,6.46,7.1c-0.03,1.95-0.18,3.9-0.05,5.88c0,0.3,0.07,1.49,0.61,1.53c1.58,0.09,8.28-10.95,14.19-11
				c3.18-0.03,5.06,2.75,4.93,5.1c-0.34,6.06-10.18,11.21-10.21,13.76C205.85,222.95,215.2,232.22,215.05,236.05z"/>
			<path class="st0" d="M170.28,177.82c-0.87,7.06-7.3,13.55-14.6,13.29c-1.14-0.04-2.16-0.13-2.59-1.22
				c-0.61-1.54,0.18-7.89,0.49-9.84c0.42-2.61,1.04-5.5,1.84-8.3c0.85-2.97,3.57-3.33,6.03-3.4
				C167.05,168.21,170.97,172.28,170.28,177.82z M163.35,179.22c0.17-1.34-0.52-3.07-2.08-3.01c-1.66,0.07-2.12,2.68-2.29,3.84
				c-0.14,0.99-0.43,2.63,0.99,2.6C161.59,182.62,163.17,180.66,163.35,179.22z"/>
		</g>
	</g>
	<g>
		<path class="st1" d="M258.42,187.41c4.29-10.12,11.07-18.66,17.56-27.53c-1.28-0.7-2.52-1.57-3.88-2.08
			c-1.88-0.7-3.84-1.22-5.8-1.66c-1.8-0.4-3.64-0.71-5.48-0.86c-3.09-0.25-6.17,0.03-9.25,0.33c-0.8,0.08-1.25,0.38-1.65,1.1
			c-4.94,8.86-9.92,17.71-14.89,26.55c-0.11,0.19-0.21,0.39-0.35,0.64C242.8,183.58,250.55,185.26,258.42,187.41z"/>
		<path class="st1" d="M224.95,133.43c-0.15,0.38-0.25,0.62-0.34,0.87c-0.76,2.11-1.45,4.25-2.3,6.32
			c-1.25,3.05-2.58,6.07-3.93,9.07c-1.28,2.86-2.63,5.68-3.97,8.51c-0.56,1.17-1.16,2.33-1.75,3.48c-0.16,0.31-0.14,0.47,0.17,0.71
			c1.12,0.87,2.25,1.74,3.28,2.71c1.51,1.43,2.94,2.93,4.38,4.43c2.8,2.89,5.39,5.95,7.35,9.49c0.04,0.06,0.11,0.1,0.2,0.18
			c0.14-0.25,0.26-0.47,0.37-0.68c1.36-2.55,2.71-5.1,4.07-7.65c3.32-6.18,6.65-12.36,9.99-18.53c0.2-0.38,0.27-0.68,0.02-1.07
			c-1.35-2.09-2.59-4.26-4.04-6.28c-1.79-2.51-3.76-4.91-6.32-6.71c-1.95-1.37-3.89-2.76-5.85-4.13
			C225.89,133.89,225.45,133.7,224.95,133.43z"/>
		<path class="st1" d="M243.22,153.51c-0.12,0.2-0.2,0.32-0.27,0.44c-3.34,6.21-6.69,12.42-10.03,18.63c-1.33,2.47-2.68,4.93-4,7.4
			c-0.11,0.2-0.17,0.57-0.06,0.7c1.02,1.29,2.12,2.46,3.8,2.91c0.52,0.14,0.8,0.06,1.07-0.43c4.97-8.89,9.96-17.78,14.94-26.67
			c0.04-0.06,0.05-0.14,0.09-0.25c-0.62,0.01-1.19,0.06-1.76,0.04c-1.44-0.07-2.74-0.39-3.36-1.92
			C243.54,154.11,243.39,153.86,243.22,153.51z"/>
	</g>
	<g>
		<g>
			<path class="st2" d="M249.04,152.18c3.41-1.3,6.8-1.92,10.28-2.06c3.39-0.14,8.83,0.03,12.79,1.72c0.11,0.05,0.21-0.06,0.17-0.17
				c-0.54-1.86-0.58-3.32-0.7-4.73c-0.01-0.08-0.05-0.15-0.13-0.17C265.86,144.55,253.29,147.53,249.04,152.18z"/>
			<path class="st2" d="M244.21,152.19c-0.01-0.18,0.01-0.36-0.02-0.53c-0.1-0.61-0.17-1.23-0.32-1.83c-0.9-3.5-2.82-6.43-5.13-9.13
				c-2.38-2.79-5.15-5.15-8.14-7.24c-0.85-0.6-1.76-1.13-2.65-1.7c-0.3,0.55-0.56,1.03-0.82,1.49c3.51,2.55,7.21,4.78,9.99,8.16
				C239.87,144.74,242.38,148.22,244.21,152.19z"/>
			<path class="st2" d="M245.63,147.42c-0.22-7.41-5.33-14.51-9.53-16.68c-0.36,0.1-1.19,0.24-1.66,0.43
				c-0.36,0.15-0.41,0.16-0.11,0.38c2.24,1.58,5.36,4.52,7,6.71C243.4,141.01,244.86,144.06,245.63,147.42z"/>
			<path class="st2" d="M247.59,154.91c0.02,0.11,0.05,0.22,0.07,0.33c4.41-0.98,8.87-1.47,13.36-1.12
				c4.48,0.35,8.84,1.34,12.97,3.19c0.41-0.77,0.41-0.96-0.34-1.31c-1.19-0.56-2.38-1.17-3.64-1.48c-5.83-1.45-11.74-1.5-17.66-0.63
				C250.75,154.12,249.18,154.56,247.59,154.91z"/>
			<path class="st2" d="M244.92,150.5c-0.33-9.75-9.08-18.12-13.8-19.18c-0.08-0.02-0.12-0.02-0.19,0.05
				c-0.09,0.1-0.2,0.25-0.27,0.4c-0.11,0.23-0.14,0.27,0.18,0.47c0.88,0.58,1.87,1.28,2.69,1.93c3.22,2.51,5.89,5.38,8.15,8.81
				C242.52,144.26,244.25,148.43,244.92,150.5z"/>
			<path class="st2" d="M273.5,153.29c-7.62-2.35-16.85-2.48-24.48-0.03c0.15,0.06,0.31,0.04,0.46,0.01
				c4.07-0.75,9.83-1.27,13.96-0.97c3.19,0.23,6.34,0.69,9.34,1.89c0.12,0.05,0.39-0.09,0.49-0.22
				C273.39,153.82,273.41,153.59,273.5,153.29z"/>
		</g>
		<g>
			<path class="st2" d="M28.75,122.08c-2.79,9.35-5.53,18.55-8.31,27.87c0.2-0.12,0.26-0.14,0.3-0.18c5-4.62,9.99-9.24,14.99-13.85
				c0.26-0.24,0.23-0.41,0.09-0.69c-2.22-4.13-4.43-8.26-6.64-12.39C29.07,122.64,28.95,122.43,28.75,122.08z"/>
			<path class="st2" d="M20.3,151.79c0.04,0.07,0.07,0.13,0.11,0.2c0.22-0.1,0.47-0.15,0.65-0.3c1.34-1.14,2.67-2.31,4-3.46
				c6.19-5.37,12.39-10.74,18.58-16.11c0.43-0.38,0.85-0.76,1.31-1.17c-0.23-0.22-0.43-0.37-0.59-0.56
				c-0.34-0.38-0.59-0.35-0.96,0.01c-0.88,0.88-1.82,1.7-2.74,2.54c-5.93,5.48-11.85,10.96-17.78,16.44
				C22.02,150.19,21.16,150.99,20.3,151.79z"/>
			<path class="st2" d="M23.22,151.39c0.02,0.03,0.04,0.06,0.07,0.08c0.11-0.08,0.22-0.15,0.32-0.23
				c7.29-5.78,14.58-11.56,21.86-17.34c0.95-0.75,0.95-0.79,0.28-1.82c-0.02-0.03-0.06-0.05-0.14-0.12
				C38.15,138.44,30.69,144.91,23.22,151.39z"/>
			<path class="st2" d="M27.19,120.19c-2.03,7.68-4.05,15.37-6.08,23.05c1.08-3.22,2.05-6.47,3.02-9.71
				c1.22-4.11,2.44-8.21,3.66-12.32C28.02,120.43,28.04,120.43,27.19,120.19z"/>
			<path class="st2" d="M24.2,119.92c-0.64,0.12-0.97,0.3-1.06,0.91c-0.18,1.15-0.45,2.28-0.69,3.41c-0.62,2.94-1.25,5.88-1.87,8.82
				c-0.54,2.58-1.08,5.15-1.61,7.73c-0.19,0.91-0.35,1.83-0.53,2.75c0.03,0.01,0.06,0.01,0.08,0.02
				C20.41,135.7,22.29,127.85,24.2,119.92z"/>
			<path class="st2" d="M20.14,141.86c0.04,0.01,0.07,0.02,0.11,0.02c1.93-7.31,3.86-14.63,5.8-21.95c-0.63-0.1-0.64-0.1-0.81,0.59
				c-0.26,1.07-0.49,2.14-0.75,3.21c-0.59,2.48-1.19,4.96-1.79,7.43c-0.51,2.1-1.02,4.19-1.52,6.29
				C20.83,138.92,20.49,140.39,20.14,141.86z"/>
		</g>
		<g>
			<path class="st2" d="M245.17,230.85c-3.6,1.19-5.54-3.74-6.64-6.42c-4.36,10.61-11.57,6.19-6.69-3.47
				c-10.87,6.69-16.58-0.63-4.62-6.87c-13.08-2.3-7.44-9.89,2.71-7.56c-9.41-10.01-2.83-16.1,6.13-4.9
				c-0.86-9.65,8.08-13.48,8.76-2.19c9.12-10.64,10.82,0.95,4.33,7.88c14.1-1.6,16.54,8.67,1,8.76c7.34,5.49,5.42,14.27-3.56,7.09
				C247.1,225.66,247.73,229.46,245.17,230.85z"/>
		</g>
		<g>
			<path class="st2" d="M51.06,100.66c-3.6,1.19-5.54-3.74-6.64-6.42c-4.36,10.61-11.57,6.19-6.69-3.47
				c-10.87,6.69-16.58-0.63-4.62-6.87c-13.08-2.3-7.44-9.89,2.71-7.56c-9.41-10.01-2.83-16.1,6.13-4.9
				c-0.86-9.65,8.08-13.48,8.76-2.19c9.12-10.64,10.82,0.95,4.33,7.88c14.1-1.6,16.54,8.67,1,8.76c7.34,5.49,5.42,14.27-3.56,7.09
				C53,95.48,53.63,99.27,51.06,100.66z"/>
		</g>
	</g>
	<g>
		<g>
			<path class="st3" d="M20.88,154.91c5.99,10.17,11.95,20.29,17.93,30.45c0.23-0.16,0.44-0.29,0.64-0.43
				c1.26-0.91,2.52-1.83,3.78-2.74c7.1-5.13,14.19-10.27,21.3-15.4c0.34-0.25,0.5-0.42,0.25-0.89
				c-5.53-10.68-11.03-21.38-16.55-32.07c-0.07-0.13-0.17-0.25-0.26-0.39C38.93,140.6,29.94,147.73,20.88,154.91z"/>
			<path class="st3" d="M18.03,154.87c0.13,0.25,0.18,0.37,0.25,0.49c5.6,9.74,11.21,19.48,16.81,29.22
				c0.51,0.89,1.41,1.25,2.46,0.97c-1.14-1.94-2.27-3.87-3.4-5.8c-4.56-7.76-9.14-15.51-13.69-23.27c-0.43-0.73-0.82-1.45-1.82-1.41
				C18.49,155.08,18.33,154.98,18.03,154.87z"/>
		</g>
		<path class="st3" d="M242.63,122.26c-1.41,0.27-2.76-0.18-4.1-0.46c-2.15-0.45-4.17-1.24-5.78-2.85c-0.94-0.94-1.52-2.05-1.7-3.36
			c-0.25-1.82,0.98-3.36,2.79-3.54c1.29-0.13,2.49,0.17,3.61,0.81c0.3,0.17,0.59,0.36,1.01,0.42c-0.23-0.89-0.74-1.57-1.1-2.32
			c-0.46-0.96-0.53-1.93-0.13-2.93c0.57-1.4,2-1.87,3.29-1.08c0.54,0.33,0.98,0.78,1.36,1.28c0.31,0.4,0.61,0.82,1.08,1.06
			c0.26-0.22,0.11-0.44,0.09-0.64c-0.06-0.6-0.2-1.19-0.21-1.78c-0.04-2.17,1.91-3.39,3.89-2.47c2.3,1.07,3.74,2.86,4.36,5.3
			c0.55,2.15,0.61,4.31-0.18,6.43c-1.47-1.53-3.16-1.37-4.24,0.43c-0.26,0.44-0.51,0.93-0.59,1.42c-0.12,0.67-0.25,0.84-0.94,0.5
			c-0.83-0.41-1.77-0.51-2.55,0.14c-0.7,0.59-0.88,1.41-0.71,2.31C241.98,121.45,242.39,121.81,242.63,122.26z"/>
		<path class="st3" d="M54.04,230.9c0.7,0.24,1.18,0.78,1.57,1.42c0.04,0.07,0.07,0.17,0.16,0.17c0.11,0,0.13-0.12,0.15-0.2
			c0.3-1.04,1.14-1.49,2.05-1.84c0.43-0.17,0.83,0.05,1.21,0.25c0.7,0.36,1.07,0.97,1.33,1.69c0.16,0.45,0.23,0.47,0.55,0.11
			c1.07-1.24,2.48-1.58,4.04-1.57c0.29,0,0.57,0.09,0.83,0.22c0.29,0.15,0.33,0.36,0.09,0.57c-0.45,0.41-0.81,0.91-1.22,1.36
			c-0.74,0.83-0.92,1.86-0.96,2.92c-0.05,1.51-0.09,3.01-0.31,4.51c-0.4,2.72-1.83,4.72-4.31,5.88c-1.17,0.55-2.46,0.5-3.73,0.23
			c-1.72-0.37-2.93-1.39-3.76-2.89c-0.78-1.43-1.03-2.98-0.9-4.61c0.12-1.42,0.52-2.78,0.8-4.17c0.24-1.18,0.24-2.33-0.32-3.43
			c-0.13-0.27-0.22-0.56-0.32-0.84c-0.13-0.37-0.06-0.45,0.32-0.47C52.27,230.16,53.18,230.35,54.04,230.9z"/>
	</g>
	<path class="st4" d="M47.13,193.1c0.63-0.38,1.36-0.4,2.1-0.28c0.08,0.01,0.18,0.06,0.23-0.01c0.07-0.09-0.01-0.18-0.06-0.24
		c-0.6-0.9-0.4-1.83-0.08-2.75c0.15-0.44,0.58-0.6,0.97-0.77c0.73-0.31,1.44-0.19,2.15,0.08c0.45,0.17,0.51,0.13,0.43-0.35
		c-0.26-1.62,0.39-2.92,1.4-4.1c0.19-0.22,0.43-0.38,0.7-0.49c0.3-0.12,0.49-0.02,0.5,0.3c0.02,0.61,0.17,1.2,0.25,1.81
		c0.15,1.1,0.83,1.91,1.61,2.62c1.12,1.01,2.24,2.01,3.24,3.15c1.82,2.06,2.42,4.44,1.71,7.09c-0.34,1.25-1.21,2.2-2.23,3
		c-1.39,1.07-2.95,1.35-4.63,1.01c-1.6-0.32-2.95-1.13-4.1-2.28c-1.01-1-1.79-2.19-2.67-3.3c-0.75-0.95-1.62-1.68-2.83-1.97
		c-0.29-0.07-0.57-0.19-0.84-0.3c-0.36-0.14-0.38-0.24-0.15-0.55C45.43,193.98,46.15,193.41,47.13,193.1z"/>
	<g>
		<path class="st1" d="M228.38,91.23c-1.25-0.71-1.98-1.93-2.81-3.02c-1.34-1.74-2.36-3.66-2.53-5.93c-0.1-1.33,0.18-2.55,0.9-3.66
			c0.99-1.54,2.93-1.92,4.43-0.87c1.07,0.74,1.78,1.75,2.21,2.96c0.12,0.32,0.21,0.66,0.5,0.97c0.4-0.82,0.46-1.67,0.68-2.48
			c0.27-1.03,0.85-1.81,1.81-2.31c1.34-0.69,2.73-0.12,3.2,1.33c0.2,0.61,0.23,1.23,0.2,1.86c-0.02,0.51-0.07,1.02,0.13,1.5
			c0.34,0.01,0.37-0.26,0.48-0.43c0.34-0.49,0.62-1.03,1-1.49c1.38-1.68,3.66-1.33,4.56,0.66c1.05,2.31,0.98,4.6-0.14,6.86
			c-0.98,2-2.34,3.67-4.32,4.76c-0.12-2.11-1.51-3.09-3.5-2.43c-0.48,0.16-0.99,0.38-1.37,0.7c-0.52,0.43-0.74,0.47-1.04-0.24
			c-0.36-0.85-1.02-1.54-2.03-1.55c-0.91-0.01-1.58,0.5-2.04,1.29C228.42,90.19,228.49,90.73,228.38,91.23z"/>
		<path class="st1" d="M47.2,209.78c0.43,0.6,0.52,1.32,0.47,2.07c-0.01,0.08-0.04,0.18,0.03,0.23c0.09,0.06,0.17-0.03,0.24-0.08
			c0.84-0.68,1.79-0.56,2.73-0.32c0.45,0.11,0.65,0.52,0.85,0.9c0.37,0.7,0.32,1.41,0.11,2.15c-0.13,0.46-0.08,0.52,0.39,0.4
			c1.59-0.4,2.94,0.14,4.21,1.04c0.24,0.17,0.41,0.4,0.55,0.66c0.15,0.28,0.06,0.48-0.26,0.52c-0.61,0.07-1.19,0.27-1.78,0.41
			c-1.08,0.25-1.83,0.99-2.47,1.84c-0.91,1.2-1.81,2.41-2.85,3.5c-1.9,2-4.22,2.8-6.91,2.32c-1.28-0.22-2.3-1.01-3.18-1.96
			c-1.19-1.29-1.6-2.82-1.41-4.52c0.18-1.62,0.87-3.03,1.92-4.28c0.91-1.09,2.02-1.98,3.05-2.95c0.88-0.83,1.53-1.76,1.72-2.99
			c0.04-0.29,0.14-0.58,0.22-0.87c0.1-0.37,0.21-0.4,0.53-0.2C46.18,208.16,46.82,208.83,47.2,209.78z"/>
	</g>
	<g>
		<path class="st5" d="M228.38,91.23c0.11-0.5,0.04-1.03,0.31-1.5c0.46-0.79,1.13-1.3,2.04-1.29c1.01,0.01,1.67,0.7,2.03,1.55
			c0.3,0.71,0.52,0.67,1.04,0.24c0.39-0.32,0.89-0.53,1.37-0.7c1.99-0.66,3.38,0.32,3.5,2.43c-0.43,1.04-1.27,1.6-2.27,1.96
			c-1,0.36-1.99,0.73-3.01,1.02c-0.45,0.13-0.65,0.36-0.83,0.76c-1.19,2.6-2.39,5.2-4.62,7.13c-0.6,0.52-1.26,0.95-2.07,1.09
			c-0.49,0.08-0.87-0.1-1.04-0.57c-0.17-0.48,0-0.9,0.45-1.09c1.72-0.71,2.71-2.11,3.58-3.65c0.64-1.14,1.3-2.27,1.76-3.49
			c0.1-0.26,0.21-0.5-0.12-0.7C229.31,93.68,228.81,92.47,228.38,91.23z"/>
		<path class="st5" d="M242.63,122.26c-0.24-0.45-0.65-0.81-0.75-1.34c-0.17-0.9,0.01-1.72,0.71-2.31c0.78-0.65,1.72-0.55,2.55-0.14
			c0.69,0.34,0.83,0.17,0.94-0.5c0.09-0.49,0.33-0.98,0.59-1.42c1.08-1.8,2.77-1.96,4.24-0.43c0.35,1.07,0.07,2.04-0.45,2.97
			c-0.52,0.92-1.04,1.85-1.62,2.73c-0.26,0.39-0.26,0.69-0.14,1.12c0.79,2.75,1.56,5.5,1.14,8.42c-0.12,0.79-0.34,1.54-0.86,2.17
			c-0.32,0.39-0.72,0.49-1.16,0.24c-0.44-0.25-0.59-0.68-0.36-1.12c0.85-1.66,0.68-3.37,0.34-5.1c-0.25-1.28-0.49-2.57-0.93-3.8
			c-0.09-0.26-0.17-0.52-0.55-0.46C244.93,123.52,243.77,122.93,242.63,122.26z"/>
		<path class="st5" d="M226.21,240.05c-0.98-0.4-1.95-0.8-2.95-1.13c-0.63-0.21-2.63-0.81-1.96-1.92c0.59-0.98,1.7,0.07,2.68,0.5
			c1.03,0.46,2.09,0.87,3.13,1.3c0.34,0.14,0.6,0.07,0.94,0.01c1.64-0.32,2.83-1.41,4.13-2.3c1.16-0.79,2.45-1.18,3.85-1.25
			c1.08-0.05,1.83,0.38,2.13,1.19c0.31,0.85,0.02,1.82-0.76,2.47c-0.7,0.58-1.53,0.93-2.37,1.24c-0.27,0.1-0.55,0.2-0.81,0.36
			c1.46,0.26,2.93,0.32,4.4,0.45c0.66,0.06,0.92-0.09,1.19-0.78c0.76-1.98,1.77-3.85,3.77-4.92c1.23-0.66,2.21-0.66,2.91,0
			c0.68,0.65,0.75,1.82,0.18,2.99c-0.32,0.66-0.87,1.1-1.45,1.5c-0.61,0.41-1.21,0.83-1.79,1.31c1.46,0.09,2.9,0.02,4.34-0.09
			c0.37-0.03,0.3-0.32,0.31-0.52c0.13-2.71,1.65-4.53,3.8-5.96c0.32-0.21,0.69-0.34,1.07-0.41c0.75-0.13,1.48-0.12,1.99,0.54
			c0.51,0.67,0.51,1.44,0.18,2.19c-0.4,0.89-1.05,1.6-1.77,2.25c-0.41,0.37-0.86,0.69-1.3,1.03c-0.06,0.05-0.12,0.1-0.18,0.15
			c0.11,0.06,0.2,0.02,0.3-0.03c1.94-0.4,3.85-0.81,5.52-2.04c1.5-1.1,3.25-1.77,5.14-1.99c0.81-0.09,1.58-0.01,2.27,0.46
			c0.77,0.53,1.06,1.38,0.73,2.24c-0.47,1.2-1.43,1.76-2.64,1.97c-1.83,0.32-3.66,0.18-5.5,0.09c-0.33-0.02-0.67-0.03-1.04,0.08
			c0.43,0.2,0.87,0.38,1.3,0.59c1.03,0.5,1.85,1.21,2.27,2.32c0.49,1.28-0.04,2.32-1.37,2.62c-1.59,0.36-3.1,0.12-4.51-0.68
			c-1.55-0.88-2.91-2.02-4.21-3.23c-0.17-0.16-0.3-0.34-0.59-0.29c-1.26,0.24-2.55,0.25-3.89,0.35c0.25,0.36,0.62,0.48,0.91,0.7
			c0.7,0.53,1.39,1.06,1.74,1.92c0.5,1.25,0.04,2.18-1.27,2.45c-2.32,0.47-4.08-0.45-5.46-2.26c-0.57-0.75-1.02-1.57-1.39-2.44
			c-0.13-0.31-0.29-0.48-0.64-0.49c-1.96-0.05-3.92-0.27-5.86-0.52c-0.14-0.02-0.31-0.12-0.4,0.06c-0.08,0.18,0.11,0.25,0.2,0.35
			c0.39,0.45,0.79,0.9,1.17,1.36c0.4,0.49,0.66,1.04,0.77,1.67c0.25,1.41-0.47,2.39-1.91,2.53c-1.53,0.15-2.68-0.54-3.61-1.68
			c-0.73-0.9-1.35-1.89-1.66-3c-0.34-1.19-1.22-2.04-1.73-3.12C226.42,240.15,226.3,240.09,226.21,240.05z"/>
		<path class="st5" d="M60.63,120.13c1.05-0.07,2.11-0.14,3.16-0.14c0.66,0,2.75,0.07,2.47-1.2c-0.25-1.11-1.64-0.47-2.7-0.37
			c-1.12,0.11-2.25,0.16-3.38,0.24c-0.36,0.03-0.59-0.12-0.9-0.29c-1.45-0.83-2.23-2.24-3.19-3.49c-0.85-1.12-1.95-1.9-3.25-2.41
			c-1.01-0.39-1.86-0.22-2.4,0.45c-0.57,0.71-0.6,1.72-0.06,2.58c0.48,0.77,1.15,1.36,1.85,1.93c0.23,0.18,0.45,0.36,0.66,0.6
			c-1.47-0.21-2.88-0.63-4.31-0.97c-0.65-0.15-0.85-0.38-0.88-1.12c-0.09-2.12-0.46-4.21-2.01-5.86c-0.96-1.02-1.88-1.33-2.77-0.92
			c-0.85,0.4-1.29,1.48-1.12,2.78c0.09,0.73,0.47,1.31,0.9,1.88c0.44,0.59,0.88,1.17,1.28,1.81c-1.42-0.38-2.76-0.9-4.09-1.46
			c-0.35-0.15-0.18-0.4-0.12-0.59c0.74-2.61-0.13-4.82-1.71-6.85c-0.24-0.31-0.54-0.54-0.88-0.73c-0.67-0.36-1.37-0.59-2.06-0.12
			c-0.69,0.47-0.94,1.2-0.86,2.02c0.1,0.97,0.49,1.85,0.97,2.69c0.27,0.48,0.6,0.93,0.9,1.39c0.04,0.07,0.08,0.13,0.12,0.2
			c-0.12,0.02-0.2-0.04-0.27-0.12c-1.71-1-3.39-1.99-4.58-3.69c-1.07-1.52-2.52-2.71-4.24-3.52c-0.74-0.35-1.49-0.51-2.3-0.28
			c-0.9,0.25-1.44,0.97-1.4,1.9c0.06,1.28,0.8,2.12,1.88,2.7c1.63,0.88,3.41,1.34,5.18,1.83c0.32,0.09,0.64,0.18,0.96,0.41
			c-0.47,0.05-0.95,0.08-1.42,0.15c-1.14,0.15-2.14,0.56-2.89,1.48c-0.87,1.06-0.7,2.21,0.47,2.92c1.39,0.84,2.9,1.1,4.5,0.79
			c1.75-0.34,3.4-0.99,5.01-1.73c0.21-0.1,0.39-0.23,0.65-0.08c1.12,0.63,2.34,1.05,3.58,1.57c-0.35,0.26-0.74,0.26-1.08,0.37
			c-0.83,0.28-1.66,0.57-2.26,1.27c-0.88,1.03-0.73,2.06,0.43,2.73c2.05,1.18,4.01,0.87,5.9-0.41c0.78-0.53,1.47-1.17,2.09-1.87
			c0.22-0.25,0.42-0.36,0.76-0.26c1.88,0.57,3.8,0.99,5.72,1.37c0.13,0.03,0.33-0.02,0.36,0.18c0.02,0.2-0.19,0.2-0.3,0.27
			c-0.51,0.31-1.03,0.6-1.54,0.92c-0.53,0.34-0.95,0.78-1.26,1.34c-0.68,1.26-0.31,2.42,1.01,3.01c1.4,0.63,2.71,0.34,3.95-0.45
			c0.98-0.62,1.88-1.36,2.53-2.32c0.7-1.02,1.8-1.55,2.63-2.4C60.4,120.16,60.53,120.13,60.63,120.13z"/>
	</g>
	<g>
		<g>
			<path class="st6" d="M55.63,226.55c0.11-0.08,0.21-0.18,0.27-0.31c0.23-0.47,0.03-1.02-0.37-1.35c-0.44-0.36-0.87-0.28-1.35-0.16
				c-0.53,0.12-0.81,0.77-0.62,1.26c0.06,0.15,0.12,0.26,0.23,0.38c0.09,0.1,0.21,0.18,0.33,0.24c0.09,0.04,0.19,0.07,0.28,0.09
				c0.07,0.22,0.15,0.44,0.2,0.67c0.19,0.82,0.22,1.69,0.08,2.52c-0.05,0.31,0.1,0.67,0.44,0.74c0.3,0.06,0.69-0.1,0.74-0.44
				C56.07,228.98,55.99,227.73,55.63,226.55z"/>
			<path class="st6" d="M59.53,226.82c0.17-0.08,0.33-0.19,0.43-0.35c0.15-0.22,0.17-0.5,0.11-0.76c-0.1-0.47-0.55-0.83-1.03-0.82
				c-0.21,0.01-0.43,0.07-0.6,0.19c-0.4,0.29-0.62,0.8-0.47,1.29c0.06,0.19,0.17,0.38,0.31,0.53c-0.11,0.81-0.21,1.63-0.32,2.44
				c-0.02,0.16-0.02,0.31,0.06,0.46c0.08,0.13,0.23,0.26,0.38,0.29c0.29,0.06,0.7-0.1,0.74-0.44
				C59.29,228.71,59.41,227.76,59.53,226.82z"/>
			<path class="st6" d="M61.77,230.78c0.34-1.01,0.69-2.01,1.03-3.02c0.06-0.01,0.13-0.01,0.18-0.03c0.53-0.18,0.84-0.78,0.64-1.32
				c-0.17-0.46-0.67-0.71-1.15-0.65c-0.23,0.03-0.51,0.14-0.7,0.28c-0.25,0.2-0.27,0.6-0.26,0.9c0,0.08,0.02,0.16,0.03,0.24
				c0.02,0.07,0.05,0.12,0.09,0.17c-0.35,1.04-0.71,2.08-1.06,3.12c-0.1,0.3,0.14,0.68,0.44,0.74
				C61.38,231.3,61.66,231.11,61.77,230.78z"/>
		</g>
		<g>
			<path class="st6" d="M44.83,189.09c0.01-0.14,0-0.28-0.06-0.41c-0.22-0.48-0.76-0.68-1.27-0.59c-0.56,0.11-0.77,0.49-0.99,0.92
				c-0.25,0.49,0.07,1.11,0.56,1.29c0.15,0.05,0.27,0.08,0.44,0.07c0.13,0,0.27-0.04,0.39-0.1c0.09-0.04,0.17-0.1,0.25-0.16
				c0.22,0.09,0.43,0.17,0.64,0.28c0.75,0.38,1.43,0.92,1.98,1.57c0.21,0.24,0.58,0.36,0.85,0.14c0.24-0.19,0.36-0.59,0.14-0.85
				C46.97,190.32,45.97,189.57,44.83,189.09z"/>
			<path class="st6" d="M47.56,186.28c0.05-0.18,0.06-0.38,0.01-0.56c-0.08-0.26-0.28-0.45-0.51-0.58
				c-0.42-0.23-0.99-0.11-1.29,0.26c-0.13,0.16-0.22,0.37-0.24,0.58c-0.04,0.49,0.21,0.99,0.69,1.19c0.19,0.08,0.4,0.12,0.61,0.1
				c0.55,0.61,1.11,1.21,1.66,1.82c0.11,0.12,0.22,0.22,0.39,0.25c0.15,0.03,0.34-0.01,0.46-0.1c0.24-0.18,0.37-0.6,0.14-0.85
				C48.84,187.68,48.2,186.98,47.56,186.28z"/>
			<path class="st6" d="M52.03,187.12c-0.55-0.91-1.1-1.82-1.64-2.74c0.04-0.05,0.07-0.1,0.1-0.16c0.21-0.52-0.05-1.15-0.59-1.34
				c-0.47-0.16-0.98,0.05-1.23,0.46c-0.12,0.2-0.23,0.48-0.23,0.71c-0.01,0.32,0.29,0.59,0.52,0.77c0.06,0.05,0.14,0.09,0.21,0.13
				c0.06,0.03,0.12,0.04,0.19,0.04c0.57,0.94,1.13,1.88,1.7,2.82c0.17,0.27,0.61,0.33,0.85,0.14
				C52.17,187.76,52.21,187.42,52.03,187.12z"/>
		</g>
		<g>
			<path class="st6" d="M51,207.14c0.14,0,0.28-0.02,0.4-0.09c0.46-0.26,0.62-0.82,0.47-1.32c-0.16-0.54-0.55-0.72-1.01-0.91
				c-0.51-0.21-1.1,0.16-1.23,0.67c-0.04,0.16-0.05,0.28-0.04,0.44c0.01,0.13,0.06,0.27,0.13,0.38c0.05,0.09,0.11,0.16,0.18,0.24
				c-0.07,0.22-0.13,0.45-0.22,0.66c-0.32,0.78-0.79,1.51-1.39,2.11c-0.22,0.23-0.31,0.61-0.07,0.86c0.21,0.23,0.62,0.31,0.86,0.07
				C49.97,209.38,50.62,208.31,51,207.14z"/>
			<path class="st6" d="M54.04,209.61c0.19,0.04,0.38,0.03,0.56-0.04c0.25-0.1,0.43-0.32,0.53-0.55c0.19-0.44,0.03-1-0.37-1.26
				c-0.17-0.11-0.39-0.19-0.6-0.19c-0.5,0-0.96,0.3-1.13,0.79c-0.06,0.19-0.08,0.41-0.05,0.61c-0.55,0.6-1.11,1.21-1.66,1.81
				c-0.11,0.12-0.2,0.24-0.21,0.41c-0.01,0.15,0.04,0.34,0.14,0.45c0.2,0.22,0.63,0.32,0.86,0.07
				C52.76,211.01,53.4,210.31,54.04,209.61z"/>
			<path class="st6" d="M53.59,214.14c0.86-0.63,1.72-1.25,2.58-1.88c0.05,0.03,0.11,0.06,0.17,0.08c0.54,0.16,1.14-0.15,1.28-0.71
				c0.12-0.48-0.14-0.97-0.57-1.19c-0.21-0.11-0.5-0.18-0.73-0.17c-0.32,0.02-0.56,0.34-0.73,0.59c-0.04,0.07-0.08,0.14-0.11,0.22
				c-0.03,0.06-0.03,0.13-0.03,0.19c-0.89,0.65-1.78,1.29-2.66,1.94c-0.26,0.19-0.28,0.63-0.07,0.86
				C52.97,214.33,53.31,214.34,53.59,214.14z"/>
		</g>
		<path class="st6" d="M238.83,206.88c-0.99,0.08-1.95,0.45-2.73,1.15c-1.22,1.09-1.87,2.82-1.72,4.45c0.34,3.7,4.63,5.68,7.61,3.41
			c1.38-1.05,2.43-2.94,2.28-4.7C244.04,208.38,241.35,206.68,238.83,206.88z"/>
		<path class="st6" d="M44.72,76.7c-0.99,0.08-1.95,0.45-2.73,1.15c-1.22,1.09-1.87,2.82-1.72,4.45c0.34,3.7,4.63,5.68,7.61,3.41
			c1.38-1.05,2.43-2.94,2.28-4.7C49.93,78.19,47.25,76.49,44.72,76.7z"/>
		<path class="st6" d="M260.56,124.73c2.06,5.57,0.73,4.24,6.3,6.3c-5.57,2.06-4.24,0.73-6.3,6.3c-2.06-5.57-0.73-4.24-6.3-6.3
			C259.83,128.97,258.5,130.3,260.56,124.73z"/>
		<path class="st6" d="M30.01,193.78c2.06,5.57,0.73,4.24,6.3,6.3c-5.57,2.06-4.24,0.73-6.3,6.3c-2.06-5.57-0.73-4.24-6.3-6.3
			C29.28,198.02,27.94,199.35,30.01,193.78z"/>
		<path class="st6" d="M219.74,64.09c2.06,5.57,0.73,4.24,6.3,6.3c-5.57,2.06-4.24,0.73-6.3,6.3c-2.06-5.57-0.73-4.24-6.3-6.3
			C219.01,68.33,217.67,69.66,219.74,64.09z"/>
		<path class="st6" d="M218.84,243.01c2.06,5.57,0.73,4.24,6.3,6.3c-5.57,2.06-4.24,0.73-6.3,6.3c-2.06-5.57-0.73-4.24-6.3-6.3
			C218.11,247.25,216.77,248.58,218.84,243.01z"/>
		<path class="st6" d="M64.83,99.51c2.06,5.57,0.73,4.24,6.3,6.3c-5.57,2.06-4.24,0.73-6.3,6.3c-2.06-5.57-0.73-4.24-6.3-6.3
			C64.1,103.75,62.77,105.09,64.83,99.51z"/>
	</g>
</g>
</svg>
