<?xml version="1.0" encoding="utf-8"?>
<!-- Generator: Adobe Illustrator 28.0.0, SVG Export Plug-In . SVG Version: 6.00 Build 0)  -->
<svg version="1.1" id="Layer_1" xmlns="http://www.w3.org/2000/svg" xmlns:xlink="http://www.w3.org/1999/xlink" x="0px" y="0px"
	 viewBox="0 0 300 300" style="enable-background:new 0 0 300 300;" xml:space="preserve">
<style type="text/css">
	.st0{fill:#F7ADBE;}
	.st1{fill:#F3D1D0;}
	.st2{fill:#F16053;}
	.st3{fill:#F69389;}
	.st4{fill:#F1BF86;}
	.st5{fill:#FFFFFF;}
</style>
<g>
	<path class="st0" d="M271.56,252.74H35.28c-1.69,0-3.47-0.65-4.08-2c-5.73-12.63-4.5-29.46,0.04-41.54
		c0.53-1.42,2.4-2.12,4.15-2.12h236.02c1.72,0,3.75,0.6,4.11,2.04c3.06,12.46,3.88,29.95,0.05,41.7
		C275.13,252.21,273.21,252.74,271.56,252.74z"/>
	<path class="st1" d="M249.44,206.97H56.24c-2.15,0-4.56-1.03-5.03-3c-2.72-11.31-1.94-29.59,0.03-39.64
		c0.41-2.09,2.89-3.25,5.15-3.25h193.04c2.32,0,4.9,1.24,5.21,3.4c1.57,10.91,2.19,27.6,0.05,39.04
		C254.27,205.69,251.79,206.97,249.44,206.97z"/>
	<path class="st2" d="M232.55,124.5H72.49c-1.62,0-3.34-0.69-3.73-2c-3.23-10.76-1.75-25.49,0.02-35.12
		c0.26-1.4,2.12-2.15,3.81-2.15h159.94c1.8,0,3.56,0.9,3.9,2.37c2.52,10.95,3.37,23.52-0.03,34.65
		C235.98,123.65,234.29,124.5,232.55,124.5z"/>
	<path class="st3" d="M245.1,85.73H60.97c-1.04,0-2.09-0.44-2.5-1.27c-4.88-9.91-3-27.74,0.04-36.2c0.31-0.87,1.46-1.31,2.52-1.31
		h184.06c1.14,0,2.33,0.53,2.61,1.47c2.83,9.57,3.38,25.68,0.01,35.84C247.4,85.2,246.24,85.73,245.1,85.73z"/>
	<path class="st4" d="M259.9,161.32H45.38c-0.9,0-1.92-0.31-2.32-1.14c-4.15-8.59-2.77-27.44,0.01-34.59
		c0.33-0.84,1.4-1.08,2.27-1.08h214.74c0.97,0,2.04,0.39,2.44,1.3c3.44,7.79,3.36,24.75-0.04,33.99
		C262.1,160.82,260.97,161.32,259.9,161.32z"/>
	<g>
		<g>
			<g>
				<path class="st5" d="M123.47,73.18c-0.03-0.46-0.03-1.01-0.03-1.63c0-5.25,0.49-15.19,0.6-15.92c0.22-1.17,0.79-1.8,1.52-1.8
					c0.71,0,1.36,0.49,1.63,2.75c0.14,1.09,0.19,2.8,0.19,4.71c0,4.33-0.24,9.72-0.33,11.43c-0.05,1.5,0,4-1.82,4
					C123.69,76.69,123.53,74.54,123.47,73.18z"/>
				<path class="st5" d="M130.19,74.21c-0.11-0.79-0.19-1.61-0.19-2.42c-0.05-1.69-0.08-3.29-0.08-4.87c0-3.08,0.11-6.07,0.38-9.33
					c0.08-0.82,0.41-1.63,1.17-1.93c0.38-0.16,0.76-0.24,1.14-0.35c0.87-0.16,2.12-0.27,3.4-0.27c1.71,0,4.46,0.05,4.46,1.77
					c0,0.93-0.95,1.33-2.2,1.39c-1.01,0.05-3.81,0.22-4.57,0.3c0.03,0.73,0.05,1.5,0.05,2.26c0,1.01-0.03,2.01-0.03,3.02
					c0,0.6,0,1.17,0.03,1.74c0.46,0.03,1.61-0.03,2.37-0.03c0.84,0,1.85,0.22,1.82,1.28c-0.05,1.52-2.18,1.5-4.03,1.63
					c-0.05,0.57-0.08,1.09-0.08,1.61c0,1.39,0,2.8-0.05,4.22c-0.03,1.09-0.6,2.59-1.74,2.59C130.9,76.8,130.36,75.38,130.19,74.21z"
					/>
				<path class="st5" d="M146.47,76.23c-0.14-0.93,1.77-13.28,2.34-16.25c0.11-0.52,0.27-1.06,0.49-1.52
					c0.35-0.68,1.17-0.98,1.9-0.98c1.09,0,1.85,0.76,2.37,1.96l1.63,3.86c0.46,1.12,1.55,4.16,1.77,4.54
					c0.24-0.35,0.46-0.79,5.09-9.09c0.52-0.95,1.09-1.93,2.34-1.93c1.25,0,1.93,1.01,2.2,2.26c0.11,0.38,0.14,0.79,0.16,1.2
					c0.16,4,0.3,8.03,0.44,12.06c0.11,1.36-0.11,3.54-1.71,3.67c-0.57,0.08-1.25-0.3-1.58-1.12c-0.19-0.44-0.33-1.06-0.38-1.52
					c-0.57-4.33-0.38-10.34-0.35-9.47c-1.25,2.56-4,7.35-4.54,8.22c-0.49,0.79-1.09,1.36-1.9,1.36c-0.73,0.03-1.52-0.27-1.96-0.82
					c-0.44-0.57-0.68-1.03-0.95-1.71c-0.76-1.85-2.2-6.23-2.37-6.61c-0.16,0.9-1.31,7.92-1.55,10.53c-0.05,0.52-0.11,1.06-0.24,1.58
					c-0.22,0.68-0.95,1.09-1.58,1.09C147.39,77.53,146.6,77.01,146.47,76.23z"/>
				<path class="st5" d="M173.76,75.79c-0.27-0.68-0.33-1.39-0.35-2.12c-0.11-1.47-0.14-7.59-0.14-7.59
					c-0.68-1.8-1.93-3.86-2.8-5.99c-0.27-0.63-1.01-1.96-1.06-2.37c-0.08-0.79,0.24-1.42,0.87-1.63c0.19-0.08,0.35-0.11,0.54-0.11
					c0.41,0,0.76,0.19,1.09,0.52c0.46,0.46,3.02,5.74,3.32,6.34c1.77-2.29,2.83-4.19,4.49-6.23c0.38-0.44,0.79-0.63,1.14-0.63
					c0.65,0,1.2,0.54,1.2,1.28c0,0.35-0.08,0.73-0.24,1.14c-0.41,0.98-1.09,1.85-1.66,2.69c-1.28,1.9-2.29,3.65-3.27,5.06v2.04v4.33
					c0,1.25-0.05,2.48-0.27,3.18c-0.14,0.57-0.79,0.9-1.44,0.9S173.95,76.31,173.76,75.79z"/>
			</g>
		</g>
		<g>
			<g>
				<path class="st5" d="M121.88,111.3c-0.08-0.41-0.11-1.85-0.11-3.7c0-3.32,0.11-7.92,0.24-10.15c0.05-0.98,0.03-1.96,0.3-2.91
					c0.27-0.84,1.22-1.33,2.07-1.5c0.63-0.11,1.25-0.16,1.88-0.16c1.12,0,2.2,0.22,3.24,0.82c1.47,0.9,2.15,2.31,2.15,3.7
					c0,0.9-0.3,1.82-0.82,2.56c-0.68,0.98-1.71,1.39-1.71,1.39c1.63,0.65,3.78,2.45,4.35,3.73c0.33,0.71,0.46,1.47,0.46,2.26
					c0,4.11-3.81,6.1-7.84,6.91c-0.3,0.05-0.6,0.11-0.87,0.11C123.51,114.35,122.17,113.18,121.88,111.3z M125.25,99.57
					c1.25-0.33,3.16-1.31,3.16-2.45c0-0.49-0.27-0.95-0.73-1.22c-0.27-0.19-0.71-0.24-1.17-0.24c-0.44,0-0.87,0.05-1.22,0.11
					c0.03,1.09-0.05,2.23-0.05,3.05C125.22,99.11,125.22,99.35,125.25,99.57z M125.41,110.56c1.31-0.24,2.86-0.57,4.05-1.5
					c0.65-0.49,0.95-1.09,0.95-1.69c0-1.55-1.99-3.16-5.12-3.4v1.63C125.3,107.49,125.33,109.58,125.41,110.56z"/>
				<path class="st5" d="M139.24,113.42c-0.65-0.57-1.28-1.22-1.77-1.9c-1.36-2.01-1.96-4.3-1.96-6.59c0-4.54,2.45-9.01,6.37-10.94
					c0.79-0.38,1.71-0.6,2.64-0.6c1.61,0,3.27,0.63,4.33,1.88c0.87,0.98,1.55,2.04,2.12,3.67c0.57,1.66,0.82,3.51,0.82,5.39
					c0,1.52-0.22,3.08-0.71,4.65c-0.41,1.31-1.06,2.45-1.93,3.51c-1.52,1.8-3.46,2.56-5.33,2.56
					C142.12,115.05,140.46,114.43,139.24,113.42z M139.43,106.62c0.46,2.2,2.29,4.33,4.35,4.33c1.93,0,3.16-1.93,3.73-3.48
					c0.54-1.39,0.79-2.69,0.79-4c0-1.14-0.19-2.29-0.57-3.51c-0.57-1.82-1.93-3.59-4.03-3.48c-0.03,0-0.05,0-0.08,0.03
					c-2.07,0.73-4.41,4.19-4.41,8.11C139.21,105.26,139.29,105.94,139.43,106.62z"/>
				<path class="st5" d="M157.31,113.42c-0.65-0.57-1.28-1.22-1.77-1.9c-1.36-2.01-1.96-4.3-1.96-6.59c0-4.54,2.45-9.01,6.37-10.94
					c0.79-0.38,1.71-0.6,2.64-0.6c1.61,0,3.27,0.63,4.33,1.88c0.87,0.98,1.55,2.04,2.12,3.67c0.57,1.66,0.82,3.51,0.82,5.39
					c0,1.52-0.22,3.08-0.71,4.65c-0.41,1.31-1.06,2.45-1.93,3.51c-1.52,1.8-3.46,2.56-5.33,2.56
					C160.19,115.05,158.53,114.43,157.31,113.42z M157.5,106.62c0.46,2.2,2.29,4.33,4.35,4.33c1.93,0,3.16-1.93,3.73-3.48
					c0.54-1.39,0.79-2.69,0.79-4c0-1.14-0.19-2.29-0.57-3.51c-0.57-1.82-1.93-3.59-4.03-3.48c-0.03,0-0.05,0-0.08,0.03
					c-2.07,0.73-4.41,4.19-4.41,8.11C157.28,105.26,157.36,105.94,157.5,106.62z"/>
				<path class="st5" d="M172.27,113.12c-0.16-0.87-0.19-6.01-0.19-7.51c0-2.69,0.08-5.33,0.46-8.14c0.03-0.33,0.08-0.68,0.19-0.98
					c0.22-0.82,0.76-1.22,1.42-1.17c0.57,0.05,1.01,0.49,1.12,1.25c0.14,0.82,0.27,4.16,0.24,4.68c0.35-0.44,0.98-1.39,1.25-1.77
					c0.84-1.28,2.78-4,3.78-4c0.6,0,1.2,0.6,1.17,1.2c-0.03,0.57-0.44,1.42-0.9,2.2c-0.73,1.44-2.64,4.52-3.08,5.14
					c0.44,0.46,0.84,0.87,1.25,1.28l3.81,3.86c0.52,0.52,0.87,1.17,0.93,1.77c0.08,0.79-0.38,1.31-1.14,1.42
					c-0.65,0.05-1.2-0.3-1.66-0.65c-1.28-0.95-4.87-4.41-5.39-4.93c-0.03,0.35-0.05,0.84-0.05,1.36c0,3.18,0.05,3.51-0.11,4.87
					c-0.05,0.9-0.6,1.82-1.58,1.82C172.93,114.84,172.46,113.91,172.27,113.12z"/>
			</g>
		</g>
		<g>
			<g>
				<path class="st5" d="M110.09,148.98c-0.03-0.46-0.03-1.01-0.03-1.63c0-5.25,0.49-15.19,0.6-15.92c0.22-1.17,0.79-1.8,1.52-1.8
					c0.71,0,1.36,0.49,1.63,2.75c0.14,1.09,0.19,2.8,0.19,4.71c0,4.33-0.24,9.72-0.33,11.43c-0.05,1.5,0,4-1.82,4
					C110.31,152.49,110.15,150.34,110.09,148.98z"/>
				<path class="st5" d="M118.45,153.66c-0.3-0.6-0.08-1.36,0.41-1.82c0.46-0.46,1.06-0.73,1.63-1.12c0.98-0.68,3.4-2.59,3.4-3.78
					c0-0.73-0.49-1.42-1.55-2.15c-1.06-0.71-3.92-2.1-4.9-3.08c-0.93-0.87-1.39-1.88-1.39-2.99s0.52-2.29,1.17-3.18
					c1.31-1.82,3.78-2.78,6.07-2.78c1.71,0,4.54,0.79,4.46,2.5c-0.03,0.79-0.52,1.39-1.44,1.39c-1.14,0-1.36-0.35-2.78-0.35
					c-1.14,0-2.39,0.27-3.05,0.84c-0.52,0.41-0.71,0.82-0.71,1.2c0,1.58,3.37,3.02,5.61,4.49c1.44,0.95,2.18,2.42,2.18,4
					c0,1.12-0.35,2.29-1.09,3.4c-1.61,2.42-5.03,4.38-6.4,4.38C119.37,154.62,118.69,154.24,118.45,153.66z"/>
				<path class="st5" d="M139.21,151.81c-0.65-0.57-1.28-1.22-1.77-1.9c-1.36-2.01-1.96-4.3-1.96-6.59c0-4.54,2.45-9.01,6.37-10.94
					c0.79-0.38,1.71-0.6,2.64-0.6c1.61,0,3.27,0.63,4.33,1.88c0.87,0.98,1.55,2.04,2.12,3.67c0.57,1.66,0.82,3.51,0.82,5.39
					c0,1.52-0.22,3.08-0.71,4.65c-0.41,1.31-1.06,2.45-1.93,3.51c-1.52,1.8-3.46,2.56-5.33,2.56
					C142.1,153.45,140.44,152.82,139.21,151.81z M139.4,145.01c0.46,2.2,2.29,4.33,4.35,4.33c1.93,0,3.16-1.93,3.73-3.48
					c0.54-1.39,0.79-2.69,0.79-4c0-1.14-0.19-2.29-0.57-3.51c-0.57-1.82-1.93-3.59-4.03-3.48c-0.03,0-0.05,0-0.08,0.03
					c-2.07,0.73-4.41,4.19-4.41,8.11C139.19,143.65,139.27,144.33,139.4,145.01z"/>
				<path class="st5" d="M154.02,150.81c-0.14-1.28-0.22-2.56-0.24-3.81c-0.03-1.47-0.03-2.91-0.03-4.38c0-3.02,0.08-6.04,0.38-9.06
					c0.14-1.28,0.71-1.96,1.77-2.39c1.5-0.54,2.53-0.65,3.95-0.65c1.61,0,3.21,0.27,4.74,0.98c2.18,0.98,3.29,2.91,3.29,5.06
					c0,1.39-0.44,2.86-1.36,4.27c-1.96,2.99-5.33,4.44-9.01,5.36c0.03,0.82,0.11,2.34,0.11,3.43c0,1.39-0.38,3.48-1.77,3.48
					C154.83,153.09,154.15,151.81,154.02,150.81z M157.42,142.43c2.07-0.22,4.54-1.58,6.07-3.32c0.65-0.76,0.95-1.88,0.95-2.53
					c0-2.15-3.21-2.83-5.14-2.83c-0.73,0-1.47,0.08-2.26,0.27C157.2,136.52,157.2,139.84,157.42,142.43z"/>
				<path class="st5" d="M169.61,142.13c0-2.29,0.08-4.57,0.27-6.83c0.19-2.15,0.84-3.21,3.37-3.92c0.87-0.24,1.74-0.41,2.61-0.41
					c0.46,0,0.93,0.05,1.39,0.14c0.52,0.05,1.06,0.22,1.33,0.76c0.19,0.38-0.22,0.98-0.95,1.42c-1.25,0.71-2.8,0.98-4.19,1.33
					c-0.03,0.54-0.05,1.12-0.05,1.69c0,1.44,0.08,2.94,0.11,4.16c0.76-0.05,1.36-0.11,2.01-0.11c0.84,0,1.33,0.11,1.85,0.68
					c0.16,0.16,0.22,0.41,0.22,0.68s-0.08,0.57-0.24,0.76c-0.38,0.49-0.73,0.63-1.36,0.73c-0.73,0.14-1.52,0.19-2.34,0.33
					c-0.05,0.33-0.05,0.79-0.05,1.33c0,1.25,0.08,2.94,0.08,4.3c1.17,0.05,2.8-0.16,3.97-0.11c0.84,0.08,1.52,0.6,1.61,1.25
					c0.14,0.63-0.35,1.33-1.17,1.69c-1.01,0.44-3.18,0.57-4.76,0.71c-1.17,0.14-2.5-0.08-3.21-1.55
					C169.69,150.32,169.61,144.6,169.61,142.13z"/>
				<path class="st5" d="M182.18,153.37c-0.93-1.39-0.65-5.31-0.65-6.64c0-3.08,0.11-6.04,0.33-9.25c0.11-1.36,1.03-1.77,1.69-2.07
					c0.24-0.11,0.46-0.16,0.68-0.16c1.28,0,2.34,1.55,2.91,2.45c1.22,1.93,4.54,7.46,4.9,7.92c0.16-1.61,0.33-10.01,0.41-11.43
					c0.08-1.2,0.3-2.2,1.5-2.2c1.66,0,1.5,2.29,1.5,3.73c-0.19,3.62,0,12.52-0.63,15.21c-0.22,1.01-0.84,1.58-1.61,1.58
					c-0.35,0-0.73-0.14-1.14-0.38c-0.63-0.41-1.22-1.06-1.69-1.69c-2.8-3.86-5.74-9.31-5.74-9.31c-0.03,0.52-0.11,3.43-0.11,6.07
					c0,1.06,0.14,3.7-0.03,5.33c-0.05,0.46-0.41,1.25-1.36,1.25C182.75,153.77,182.37,153.64,182.18,153.37z"/>
			</g>
		</g>
		<g>
			<g>
				<path class="st5" d="M81.69,194.2c-0.27-0.68-0.33-1.39-0.35-2.12c-0.11-1.47-0.14-7.59-0.14-7.59c-0.68-1.8-1.93-3.86-2.8-5.99
					c-0.27-0.63-1.01-1.96-1.06-2.37c-0.08-0.79,0.24-1.42,0.87-1.63c0.19-0.08,0.35-0.11,0.54-0.11c0.41,0,0.76,0.19,1.09,0.52
					c0.46,0.46,3.02,5.74,3.32,6.34c1.77-2.29,2.83-4.19,4.49-6.23c0.38-0.44,0.79-0.63,1.14-0.63c0.65,0,1.2,0.54,1.2,1.28
					c0,0.35-0.08,0.73-0.24,1.14c-0.41,0.98-1.09,1.85-1.66,2.69c-1.28,1.9-2.29,3.65-3.27,5.06v2.04v4.33
					c0,1.25-0.05,2.48-0.27,3.18c-0.14,0.57-0.79,0.9-1.44,0.9C82.45,195.01,81.88,194.71,81.69,194.2z"/>
				<path class="st5" d="M93.47,194.41c-0.65-0.57-1.28-1.22-1.77-1.9c-1.36-2.01-1.96-4.3-1.96-6.59c0-4.54,2.45-9.01,6.37-10.94
					c0.79-0.38,1.71-0.6,2.64-0.6c1.61,0,3.27,0.63,4.33,1.88c0.87,0.98,1.55,2.04,2.12,3.67c0.57,1.66,0.82,3.51,0.82,5.39
					c0,1.52-0.22,3.08-0.71,4.65c-0.41,1.31-1.06,2.45-1.93,3.51c-1.52,1.8-3.46,2.56-5.33,2.56
					C96.36,196.05,94.7,195.42,93.47,194.41z M93.66,187.61c0.46,2.2,2.29,4.33,4.35,4.33c1.93,0,3.16-1.93,3.73-3.48
					c0.54-1.39,0.79-2.69,0.79-4c0-1.14-0.19-2.29-0.57-3.51c-0.57-1.82-1.93-3.59-4.03-3.48c-0.03,0-0.05,0-0.08,0.03
					c-2.07,0.73-4.41,4.19-4.41,8.11C93.45,186.25,93.53,186.93,93.66,187.61z"/>
				<path class="st5" d="M112.49,194.49c-1.17-0.63-2.31-2.2-2.8-3.4c-1.36-3.21-1.9-7.43-1.9-10.67c0-1.25-0.03-3.08,0.63-4.19
					c0.33-0.52,0.9-0.79,1.36-0.68c0.71,0.16,1.25,0.71,1.42,2.23c0.05,0.54,0.22,2.8,0.33,4.08c0.49,6.15,1.39,9.01,2.91,9.23
					c1.03,0.14,1.66-0.27,2.01-1.42c0.73-2.39,0.9-4.54,1.36-9.61c0.38-4.08,1.12-4.71,1.8-4.71c1.5,0,1.66,1.55,1.66,3.16v1.09
					c0,3.92-0.16,9.25-1.63,12.3c-1.12,2.2-2.5,3.13-4.76,3.13C113.99,195.04,113.15,194.85,112.49,194.49z"/>
				<path class="st5" d="M124.6,195.07c-1.09-1.31-0.9-4.27-0.9-4.82c0-1.99,0.08-3.95,0.16-5.88c0.16-2.91,0.22-5.61,0.63-7.97
					c0.14-0.82,0.52-1.42,1.25-1.69c0.71-0.24,1.8-0.44,2.59-0.44c1.69,0,3.05,0.3,4.52,1.17c2.1,1.17,3.18,3.13,3.18,5.12
					c0,1.66-0.76,3.35-2.31,4.63c-0.79,0.63-1.66,1.14-2.75,1.82c0.98,0.87,4.05,3.48,4.95,4.44c0.35,0.35,0.52,0.87,0.52,1.22
					c0,0.14,0,0.22-0.05,0.3c-0.22,0.33-0.49,0.44-0.82,0.44c-0.57,0-1.28-0.41-1.8-0.65c-1.69-0.79-4.63-2.99-6.26-3.89
					c-0.08,1.01-0.11,1.99-0.22,3.02c-0.08,1.03-0.19,2.34-0.79,3.18c-0.22,0.3-0.57,0.44-0.93,0.44
					C125.2,195.5,124.85,195.34,124.6,195.07z M127.52,183.94c1.22-0.22,2.2-0.79,3.18-1.33c0.76-0.44,1.42-1.28,1.42-2.15
					c0-0.65-0.35-1.31-1.01-1.82c-0.76-0.57-1.58-0.9-2.56-0.9c-0.33,0-0.68,0.05-1.06,0.14c-0.05,0.65-0.08,1.47-0.08,2.29
					C127.41,181.49,127.46,182.9,127.52,183.94z"/>
				<path class="st5" d="M143.6,194.63c-0.14-0.93,1.77-13.28,2.34-16.25c0.11-0.52,0.27-1.06,0.49-1.52
					c0.35-0.68,1.17-0.98,1.9-0.98c1.09,0,1.85,0.76,2.37,1.96l1.63,3.86c0.46,1.12,1.55,4.16,1.77,4.54
					c0.24-0.35,0.46-0.79,5.09-9.09c0.52-0.95,1.09-1.93,2.34-1.93c1.25,0,1.93,1.01,2.2,2.26c0.11,0.38,0.14,0.79,0.16,1.2
					c0.16,4,0.3,8.03,0.44,12.06c0.11,1.36-0.11,3.54-1.71,3.67c-0.57,0.08-1.25-0.3-1.58-1.12c-0.19-0.44-0.33-1.06-0.38-1.52
					c-0.57-4.33-0.38-10.34-0.35-9.47c-1.25,2.56-4,7.35-4.54,8.22c-0.49,0.79-1.09,1.36-1.9,1.36c-0.73,0.03-1.52-0.27-1.96-0.82
					c-0.44-0.57-0.68-1.03-0.95-1.71c-0.76-1.85-2.2-6.23-2.37-6.61c-0.16,0.9-1.31,7.92-1.55,10.53c-0.05,0.52-0.11,1.06-0.24,1.58
					c-0.22,0.68-0.95,1.09-1.58,1.09C144.52,195.94,143.74,195.42,143.6,194.63z"/>
				<path class="st5" d="M170.3,194.41c-0.65-0.57-1.28-1.22-1.77-1.9c-1.36-2.01-1.96-4.3-1.96-6.59c0-4.54,2.45-9.01,6.37-10.94
					c0.79-0.38,1.71-0.6,2.64-0.6c1.61,0,3.27,0.63,4.33,1.88c0.87,0.98,1.55,2.04,2.12,3.67c0.57,1.66,0.82,3.51,0.82,5.39
					c0,1.52-0.22,3.08-0.71,4.65c-0.41,1.31-1.06,2.45-1.93,3.51c-1.52,1.8-3.46,2.56-5.33,2.56
					C173.18,196.05,171.52,195.42,170.3,194.41z M170.49,187.61c0.46,2.2,2.29,4.33,4.35,4.33c1.93,0,3.16-1.93,3.73-3.48
					c0.54-1.39,0.79-2.69,0.79-4c0-1.14-0.19-2.29-0.57-3.51c-0.57-1.82-1.93-3.59-4.03-3.48c-0.03,0-0.05,0-0.08,0.03
					c-2.07,0.73-4.41,4.19-4.41,8.11C170.27,186.25,170.35,186.93,170.49,187.61z"/>
				<path class="st5" d="M189.32,194.49c-1.17-0.63-2.31-2.2-2.8-3.4c-1.36-3.21-1.9-7.43-1.9-10.67c0-1.25-0.03-3.08,0.63-4.19
					c0.33-0.52,0.9-0.79,1.36-0.68c0.71,0.16,1.25,0.71,1.42,2.23c0.05,0.54,0.22,2.8,0.33,4.08c0.49,6.15,1.39,9.01,2.91,9.23
					c1.03,0.14,1.66-0.27,2.01-1.42c0.73-2.39,0.9-4.54,1.36-9.61c0.38-4.08,1.12-4.71,1.8-4.71c1.5,0,1.66,1.55,1.66,3.16v1.09
					c0,3.92-0.16,9.25-1.63,12.3c-1.12,2.2-2.5,3.13-4.76,3.13C190.81,195.04,189.97,194.85,189.32,194.49z"/>
				<path class="st5" d="M205.59,194.3c-0.44-0.76-0.54-1.63-0.6-2.53c-0.05-1.01-0.08-2.01-0.08-3.02c0-3.24,0.24-6.5,0.46-9.42
					c0.05-0.52,0.05-1.25,0.08-1.8c-0.54,0-1.36,0.08-2.01,0.08c-0.46,0-0.95,0.03-1.44,0.03c-0.3,0-0.63,0-0.93-0.05
					c-0.73-0.08-1.14-0.6-1.17-1.2c-0.05-0.63,0.27-1.01,0.79-1.28c0.46-0.24,0.98-0.44,1.5-0.6c2.8-0.63,5.77-0.93,8.46-1.2
					c0.73-0.08,1.36-0.11,1.88-0.11c1.14,0,1.85,0.16,2.26,0.44c0.38,0.27,0.54,0.68,0.54,1.09c0,0.33-0.08,0.63-0.27,0.9
					c-0.54,0.82-1.82,0.9-2.78,1.03c-1.14,0.19-2.97,0.44-3.56,0.52c0,3.08,0.03,5.91,0.03,8.76v2.15c0.03,1.47-0.05,2.97-0.19,4.41
					c-0.05,0.63-0.11,1.31-0.44,1.88c-0.3,0.46-0.73,0.68-1.22,0.68C206.41,195.07,205.89,194.79,205.59,194.3z"/>
				<path class="st5" d="M215.82,196.56c-0.54-2.04-0.73-7.16-0.73-9.28c0-2.67,0.14-5.28,0.3-7.92c0.08-0.98,0.46-2.83,1.44-2.97
					c1.25-0.19,1.52,1.28,1.66,2.56c0.08,1.33,0.16,2.67,0.22,4l0.08,2.2c0,0,3.78-0.44,5.42-0.71c0.11-1.14,0.35-4.22,0.54-5.93
					c0.19-1.28,0.3-1.96,0.57-2.56c0.24-0.6,0.76-0.9,1.47-0.84c0.63,0.03,1.06,0.49,1.22,0.98c0.22,0.63,0.16,3.27,0.16,5.12
					c0,3.02-0.16,7.57-0.16,10.5c-0.05,1.01-0.19,1.99-0.82,2.83c-0.33,0.44-0.76,0.65-1.2,0.65c-0.44,0-0.87-0.24-1.17-0.73
					c-0.71-1.33-0.71-5.17-0.76-6.42c-0.82,0.14-4.14,0.46-5.22,0.68c-0.05,0.95-0.03,2.94-0.14,4.08c-0.05,1.2-0.11,2.39-0.3,3.59
					c-0.14,1.01-0.73,1.61-1.28,1.55C216.31,197.9,215.99,197.27,215.82,196.56z"/>
			</g>
		</g>
		<g>
			<path class="st5" d="M49.11,242.28c-0.3-0.6-0.08-1.36,0.41-1.82c0.46-0.46,1.06-0.73,1.63-1.12c0.98-0.68,3.4-2.59,3.4-3.78
				c0-0.73-0.49-1.42-1.55-2.15c-1.06-0.71-3.92-2.1-4.9-3.08c-0.93-0.87-1.39-1.88-1.39-2.99s0.52-2.29,1.17-3.18
				c1.31-1.82,3.78-2.78,6.07-2.78c1.71,0,4.54,0.79,4.46,2.5c-0.03,0.79-0.52,1.39-1.44,1.39c-1.14,0-1.36-0.35-2.78-0.35
				c-1.14,0-2.39,0.27-3.05,0.84c-0.52,0.41-0.71,0.82-0.71,1.2c0,1.58,3.37,3.02,5.61,4.49c1.44,0.95,2.18,2.42,2.18,4
				c0,1.12-0.35,2.29-1.09,3.4c-1.61,2.42-5.03,4.38-6.4,4.38C50.04,243.23,49.36,242.85,49.11,242.28z"/>
			<path class="st5" d="M61.98,242.58c-0.54-2.04-0.73-7.16-0.73-9.28c0-2.67,0.14-5.28,0.3-7.92c0.08-0.98,0.46-2.83,1.44-2.97
				c1.25-0.19,1.52,1.28,1.66,2.56c0.08,1.33,0.16,2.67,0.22,4l0.08,2.2c0,0,3.78-0.44,5.42-0.71c0.11-1.14,0.35-4.22,0.54-5.93
				c0.19-1.28,0.3-1.96,0.57-2.56c0.24-0.6,0.76-0.9,1.47-0.84c0.63,0.03,1.06,0.49,1.22,0.98c0.22,0.63,0.16,3.27,0.16,5.12
				c0,3.02-0.16,7.57-0.16,10.5c-0.05,1.01-0.19,1.99-0.82,2.83c-0.33,0.44-0.76,0.65-1.2,0.65s-0.87-0.24-1.17-0.73
				c-0.71-1.33-0.71-5.17-0.76-6.42c-0.82,0.14-4.14,0.46-5.22,0.68c-0.05,0.95-0.03,2.94-0.14,4.08c-0.05,1.2-0.11,2.39-0.3,3.59
				c-0.14,1.01-0.73,1.61-1.28,1.55C62.47,243.91,62.15,243.29,61.98,242.58z"/>
			<path class="st5" d="M80.46,240.43c-0.65-0.57-1.28-1.22-1.77-1.9c-1.36-2.01-1.96-4.3-1.96-6.59c0-4.54,2.45-9.01,6.37-10.94
				c0.79-0.38,1.71-0.6,2.64-0.6c1.61,0,3.27,0.63,4.33,1.88c0.87,0.98,1.55,2.04,2.12,3.67c0.57,1.66,0.82,3.51,0.82,5.39
				c0,1.52-0.22,3.08-0.71,4.65c-0.41,1.31-1.06,2.45-1.93,3.51c-1.52,1.8-3.46,2.56-5.33,2.56
				C83.35,242.06,81.69,241.44,80.46,240.43z M80.65,233.63c0.46,2.2,2.29,4.33,4.35,4.33c1.93,0,3.16-1.93,3.73-3.48
				c0.54-1.39,0.79-2.69,0.79-4c0-1.14-0.19-2.29-0.57-3.51c-0.57-1.82-1.93-3.59-4.03-3.48c-0.03,0-0.05,0-0.08,0.03
				c-2.07,0.73-4.41,4.19-4.41,8.11C80.43,232.27,80.52,232.95,80.65,233.63z"/>
			<path class="st5" d="M99.48,240.51c-1.17-0.63-2.31-2.2-2.8-3.4c-1.36-3.21-1.9-7.43-1.9-10.67c0-1.25-0.03-3.08,0.63-4.19
				c0.33-0.52,0.9-0.79,1.36-0.68c0.71,0.16,1.25,0.71,1.42,2.23c0.05,0.54,0.22,2.8,0.33,4.08c0.49,6.15,1.39,9.01,2.91,9.23
				c1.03,0.14,1.66-0.27,2.01-1.42c0.73-2.39,0.9-4.54,1.36-9.61c0.38-4.08,1.12-4.71,1.8-4.71c1.5,0,1.66,1.55,1.66,3.16v1.09
				c0,3.92-0.16,9.25-1.63,12.3c-1.12,2.2-2.5,3.13-4.76,3.13C100.98,241.06,100.14,240.87,99.48,240.51z"/>
			<path class="st5" d="M110.42,238.47c0.08-4.71,0.27-11.18,0.57-14.56c0.14-1.55,0.24-3.35,2.15-3.35
				c1.58,0.22,1.42,2.99,1.36,4.57c-0.14,2.75-0.14,11.35-0.19,12.95c1.69-0.03,2.72-0.3,4-0.3c1.17,0,2.5,0.24,2.5,1.42
				c0,0.3-0.11,0.6-0.33,0.9c-0.52,0.71-1.12,1.03-1.96,1.31c-1.47,0.52-2.97,0.82-4.54,0.76
				C111.7,242.09,110.4,240.79,110.42,238.47z"/>
			<path class="st5" d="M123.65,239.83c-0.11-0.54-0.24-8.27-0.24-13.2c0-1.14,0-2.12,0.03-2.83c0.05-2.01-0.11-3.65,3.37-3.65
				c6.26,0,9.91,3.16,9.91,9.14c0,0.44-0.03,0.87-0.05,1.31c-0.44,5.39-4.03,8.82-8.44,10.45c-0.46,0.16-1.36,0.44-2.26,0.44
				C124.93,241.49,123.92,241.14,123.65,239.83z M127.11,237.3c2.01-0.52,3.46-1.42,4.68-3.29c0.9-1.36,1.5-3.18,1.5-4.9
				c0-2.86-1.66-5.44-6.29-5.33c-0.03,0.03-0.03,0.68-0.03,1.71C126.97,229.11,127.05,237.22,127.11,237.3z"/>
			<path class="st5" d="M144.39,238.31c-0.08-0.41-0.11-1.85-0.11-3.7c0-3.32,0.11-7.92,0.24-10.15c0.05-0.98,0.03-1.96,0.3-2.91
				c0.27-0.84,1.22-1.33,2.07-1.5c0.63-0.11,1.25-0.16,1.88-0.16c1.12,0,2.2,0.22,3.24,0.82c1.47,0.9,2.15,2.31,2.15,3.7
				c0,0.9-0.3,1.82-0.82,2.56c-0.68,0.98-1.71,1.39-1.71,1.39c1.63,0.65,3.78,2.45,4.35,3.73c0.33,0.71,0.46,1.47,0.46,2.26
				c0,4.11-3.81,6.1-7.84,6.91c-0.3,0.05-0.6,0.11-0.87,0.11C146.02,241.36,144.69,240.19,144.39,238.31z M147.76,226.58
				c1.25-0.33,3.16-1.31,3.16-2.45c0-0.49-0.27-0.95-0.73-1.22c-0.27-0.19-0.71-0.24-1.17-0.24c-0.44,0-0.87,0.05-1.22,0.11
				c0.03,1.09-0.05,2.23-0.05,3.05C147.73,226.12,147.73,226.36,147.76,226.58z M147.92,237.57c1.31-0.24,2.86-0.57,4.05-1.5
				c0.65-0.49,0.95-1.09,0.95-1.69c0-1.55-1.99-3.16-5.12-3.4v1.63C147.81,234.5,147.84,236.59,147.92,237.57z"/>
			<path class="st5" d="M158.51,230.74c0-2.29,0.08-4.57,0.27-6.83c0.19-2.15,0.84-3.21,3.37-3.92c0.87-0.24,1.74-0.41,2.61-0.41
				c0.46,0,0.93,0.05,1.39,0.14c0.52,0.05,1.06,0.22,1.33,0.76c0.19,0.38-0.22,0.98-0.95,1.42c-1.25,0.71-2.8,0.98-4.19,1.33
				c-0.03,0.54-0.05,1.12-0.05,1.69c0,1.44,0.08,2.94,0.11,4.16c0.76-0.05,1.36-0.11,2.01-0.11c0.84,0,1.33,0.11,1.85,0.68
				c0.16,0.16,0.22,0.41,0.22,0.68c0,0.27-0.08,0.57-0.24,0.76c-0.38,0.49-0.73,0.63-1.36,0.73c-0.73,0.14-1.52,0.19-2.34,0.33
				c-0.05,0.33-0.05,0.79-0.05,1.33c0,1.25,0.08,2.94,0.08,4.3c1.17,0.05,2.8-0.16,3.97-0.11c0.84,0.08,1.52,0.6,1.61,1.25
				c0.14,0.63-0.35,1.33-1.17,1.69c-1.01,0.44-3.18,0.57-4.76,0.71c-1.17,0.14-2.5-0.08-3.21-1.55
				C158.59,238.93,158.51,233.22,158.51,230.74z"/>
			<path class="st5" d="M177.42,238.69c-1.61-2.15-1.88-4.41-1.88-6.64c0-1.77,0.19-3.48,0.73-4.9c0.9-2.37,2.42-4.16,4.79-5.2
				c0.79-0.33,1.58-0.52,2.34-0.52c0.95,0,1.88,0.27,2.8,0.93c0.98,0.73,1.52,1.5,1.52,2.18c0,0.33-0.14,0.65-0.41,0.93
				c-0.24,0.24-0.52,0.38-0.82,0.38c-1.09,0-1.55-1.09-2.78-1.09c-0.49,0-0.98,0.16-1.44,0.44c-2.29,1.28-3.05,3.92-3.05,6.37
				c0,2.23,0.84,5.88,3.4,5.8c0.54,0.05,1.47-0.3,2.18-0.76c0.49-0.33,1.09-0.41,1.55-0.35c0.65,0.03,1.33,0.6,1.2,1.42
				c-0.08,0.73-0.44,1.25-0.95,1.74c-1.2,1.17-2.75,1.77-4.27,1.77C180.5,241.17,178.65,240.32,177.42,238.69z"/>
			<path class="st5" d="M189.94,238.47c0.08-4.71,0.27-11.18,0.57-14.56c0.14-1.55,0.24-3.35,2.15-3.35
				c1.58,0.22,1.42,2.99,1.36,4.57c-0.14,2.75-0.14,11.35-0.19,12.95c1.69-0.03,2.72-0.3,4-0.3c1.17,0,2.5,0.24,2.5,1.42
				c0,0.3-0.11,0.6-0.33,0.9c-0.52,0.71-1.12,1.03-1.96,1.31c-1.47,0.52-2.97,0.82-4.54,0.76
				C191.22,242.09,189.91,240.79,189.94,238.47z"/>
			<path class="st5" d="M204.64,240.43c-0.65-0.57-1.28-1.22-1.77-1.9c-1.36-2.01-1.96-4.3-1.96-6.59c0-4.54,2.45-9.01,6.37-10.94
				c0.79-0.38,1.71-0.6,2.64-0.6c1.61,0,3.27,0.63,4.33,1.88c0.87,0.98,1.55,2.04,2.12,3.67c0.57,1.66,0.82,3.51,0.82,5.39
				c0,1.52-0.22,3.08-0.71,4.65c-0.41,1.31-1.06,2.45-1.93,3.51c-1.52,1.8-3.46,2.56-5.33,2.56
				C207.52,242.06,205.86,241.44,204.64,240.43z M204.83,233.63c0.46,2.2,2.29,4.33,4.35,4.33c1.93,0,3.16-1.93,3.73-3.48
				c0.54-1.39,0.79-2.69,0.79-4c0-1.14-0.19-2.29-0.57-3.51c-0.57-1.82-1.93-3.59-4.03-3.48c-0.03,0-0.05,0-0.08,0.03
				c-2.07,0.73-4.41,4.19-4.41,8.11C204.61,232.27,204.69,232.95,204.83,233.63z"/>
			<path class="st5" d="M220.8,242.28c-0.3-0.6-0.08-1.36,0.41-1.82c0.46-0.46,1.06-0.73,1.63-1.12c0.98-0.68,3.4-2.59,3.4-3.78
				c0-0.73-0.49-1.42-1.55-2.15c-1.06-0.71-3.92-2.1-4.9-3.08c-0.93-0.87-1.39-1.88-1.39-2.99s0.52-2.29,1.17-3.18
				c1.31-1.82,3.78-2.78,6.07-2.78c1.71,0,4.54,0.79,4.46,2.5c-0.03,0.79-0.52,1.39-1.44,1.39c-1.14,0-1.36-0.35-2.78-0.35
				c-1.14,0-2.39,0.27-3.05,0.84c-0.52,0.41-0.71,0.82-0.71,1.2c0,1.58,3.37,3.02,5.61,4.49c1.44,0.95,2.18,2.42,2.18,4
				c0,1.12-0.35,2.29-1.09,3.4c-1.61,2.42-5.03,4.38-6.4,4.38C221.73,243.23,221.05,242.85,220.8,242.28z"/>
			<path class="st5" d="M232.88,230.74c0-2.29,0.08-4.57,0.27-6.83c0.19-2.15,0.84-3.21,3.37-3.92c0.87-0.24,1.74-0.41,2.61-0.41
				c0.46,0,0.93,0.05,1.39,0.14c0.52,0.05,1.06,0.22,1.33,0.76c0.19,0.38-0.22,0.98-0.95,1.42c-1.25,0.71-2.8,0.98-4.19,1.33
				c-0.03,0.54-0.05,1.12-0.05,1.69c0,1.44,0.08,2.94,0.11,4.16c0.76-0.05,1.36-0.11,2.01-0.11c0.84,0,1.33,0.11,1.85,0.68
				c0.16,0.16,0.22,0.41,0.22,0.68c0,0.27-0.08,0.57-0.24,0.76c-0.38,0.49-0.73,0.63-1.36,0.73c-0.73,0.14-1.52,0.19-2.34,0.33
				c-0.05,0.33-0.05,0.79-0.05,1.33c0,1.25,0.08,2.94,0.08,4.3c1.17,0.05,2.8-0.16,3.97-0.11c0.84,0.08,1.52,0.6,1.61,1.25
				c0.14,0.63-0.35,1.33-1.17,1.69c-1.01,0.44-3.18,0.57-4.76,0.71c-1.17,0.14-2.5-0.08-3.21-1.55
				C232.96,238.93,232.88,233.22,232.88,230.74z"/>
			<path class="st5" d="M245.73,239.83c-0.11-0.54-0.24-8.27-0.24-13.2c0-1.14,0-2.12,0.03-2.83c0.05-2.01-0.11-3.65,3.37-3.65
				c6.26,0,9.91,3.16,9.91,9.14c0,0.44-0.03,0.87-0.05,1.31c-0.44,5.39-4.03,8.82-8.44,10.45c-0.46,0.16-1.36,0.44-2.26,0.44
				C247.01,241.49,246,241.14,245.73,239.83z M249.18,237.3c2.01-0.52,3.46-1.42,4.68-3.29c0.9-1.36,1.5-3.18,1.5-4.9
				c0-2.86-1.66-5.44-6.29-5.33c-0.03,0.03-0.03,0.68-0.03,1.71C249.05,229.11,249.13,237.22,249.18,237.3z"/>
		</g>
		<polygon class="st5" points="83.19,66.96 76.56,68.91 74.79,75.58 72.85,68.95 66.18,67.18 72.8,65.24 74.57,58.57 76.51,65.19 		
			"/>
		<polygon class="st5" points="240.75,66.96 234.13,68.91 232.36,75.58 230.42,68.95 223.74,67.18 230.37,65.24 232.14,58.57 
			234.08,65.19 		"/>
		<g>
			<path class="st5" d="M74.73,95.54v19.14c0,2.15,3.34,2.16,3.34,0V95.54C78.07,93.39,74.73,93.39,74.73,95.54z"/>
			<path class="st5" d="M81.91,95.48v19.63c0,2.15,3.34,2.16,3.34,0V95.48C85.25,93.33,81.91,93.33,81.91,95.48z"/>
		</g>
		<g>
			<path class="st5" d="M220.7,95.54v19.14c0,2.15,3.34,2.16,3.34,0V95.54C224.04,93.39,220.7,93.39,220.7,95.54z"/>
			<path class="st5" d="M227.88,95.48v19.63c0,2.15,3.34,2.16,3.34,0V95.48C231.22,93.33,227.88,93.33,227.88,95.48z"/>
		</g>
		<path class="st5" d="M64.34,132.57c-0.06-1.07-0.25-2.05-1.36-2.47c-1.04-0.4-8.75-0.39-11.26-0.11
			c-2.69,0.29-2.46,3.13-2.48,5.16c-0.05,5.82-0.56,20.95,1.02,20.96c2.5,0.01,5.56,0.04,8.07,0.05c1.25,0.01,2.5,0.01,3.76,0.02
			c1.07,0.01,2.24,0.11,2.91-0.91C65.59,154.34,64.49,135.16,64.34,132.57z M57.22,152.8c-1.51-0.01-3.01-0.02-4.52-0.02
			c0-0.06,0.01-0.11,0.01-0.17c-0.12-5.14-0.17-10.28-0.14-15.42c0.01-1.21,0.01-2.42,0.03-3.63c0-0.05,0.01-0.15,0.02-0.27
			c0.09,0,0.19,0,0.28,0l1.8,0c2.1,0,4.25-0.11,6.37-0.04c0.27,3.25,0.26,6.57,0.41,9.81c0.08,1.82,0.17,3.65,0.25,5.47
			c0.07,1.43,0.21,2.89,0.24,4.33C60.39,152.89,58.79,152.81,57.22,152.8z"/>
		<path class="st5" d="M256.15,132.57c-0.06-1.07-0.25-2.05-1.36-2.47c-1.04-0.4-8.75-0.39-11.26-0.11
			c-2.69,0.29-2.46,3.13-2.48,5.16c-0.05,5.82-0.56,20.95,1.02,20.96c2.5,0.01,5.56,0.04,8.07,0.05c1.25,0.01,2.5,0.01,3.76,0.02
			c1.07,0.01,2.24,0.11,2.91-0.91C257.39,154.34,256.3,135.16,256.15,132.57z M249.03,152.8c-1.51-0.01-3.01-0.02-4.52-0.02
			c0-0.06,0.01-0.11,0.01-0.17c-0.12-5.14-0.17-10.28-0.14-15.42c0.01-1.21,0.01-2.42,0.03-3.63c0-0.05,0.01-0.15,0.02-0.27
			c0.09,0,0.19,0,0.28,0l1.8,0c2.1,0,4.25-0.11,6.37-0.04c0.27,3.25,0.26,6.57,0.41,9.81c0.08,1.82,0.17,3.65,0.25,5.47
			c0.07,1.43,0.21,2.89,0.24,4.33C252.19,152.89,250.59,152.81,249.03,152.8z"/>
		<path class="st5" d="M249.49,180.08c-2.02-1.29-4.52-0.86-5.97,1.05c-0.09,0.12-0.18,0.24-0.27,0.35
			c-0.08-0.11-0.16-0.21-0.24-0.32c-1.33-1.81-4.19-2.36-5.99-0.91c-1.81,1.46-2.19,3.97-0.91,5.99c2.19,3.44,6.57,6.6,7.11,6.61
			c0.52,0.01,5.45-3.91,7.31-6.81C251.76,184.16,251.39,181.29,249.49,180.08z"/>
		<path class="st5" d="M69.1,180.08c-2.02-1.29-4.52-0.86-5.97,1.05c-0.09,0.12-0.18,0.24-0.27,0.35c-0.08-0.11-0.16-0.21-0.24-0.32
			c-1.33-1.81-4.19-2.36-5.99-0.91c-1.81,1.46-2.19,3.97-0.91,5.99c2.19,3.44,6.57,6.6,7.11,6.61c0.52,0.01,5.45-3.91,7.31-6.81
			C71.37,184.16,71,181.29,69.1,180.08z"/>
		<path class="st5" d="M45.07,251.52c-1.07-2.16-1.81-4.46-2.31-6.82c-1.01-4.73-1.02-9.62-1.1-14.43
			c-0.13-7.71-0.2-15.7,1.87-23.18h-3.39c-1.6,6.32-1.9,12.9-1.86,19.45c0.05,8.81-0.15,18.06,3.69,26.2h3.76
			C45.49,252.34,45.27,251.94,45.07,251.52z"/>
		<path class="st5" d="M262.95,252.74h3.46c1.79-7.55,1.96-15.5,2.19-23.21c0.22-7.52,0.08-15.3-2.32-22.44h-3.54
			c2.73,7.22,2.74,15.25,2.5,22.92C265.01,237.6,264.81,245.36,262.95,252.74z"/>
	</g>
</g>
</svg>
