<?xml version="1.0" encoding="utf-8"?>
<!-- Generator: Adobe Illustrator 22.1.0, SVG Export Plug-In . SVG Version: 6.00 Build 0)  -->
<svg version="1.1" id="Layer_1" xmlns="http://www.w3.org/2000/svg" xmlns:xlink="http://www.w3.org/1999/xlink" x="0px" y="0px"
	 viewBox="0 0 500 500" style="enable-background:new 0 0 500 500;" xml:space="preserve">
<style type="text/css">
	.st0{fill:#034F50;}
	.st1{fill:#92D1C8;}
	.st2{fill:#50A5A6;}
</style>
<g>
	<path class="st0" d="M284.8,248.1c1.1,0.9,1.5,1.5,2.4,1.8c11.2,5.7,14.5,21.7,4.4,32.4c-7.9,8.3-17.1,15.1-28.3,18.4
		c-2.9,0.9-5.9,0.9-8.8,0.9c-2,0-3.9-0.7-4.2-3.3c-0.2-2.2,1.3-4.4,3.5-5.3c0.9-0.2,2-0.4,3.5-0.7c-0.9-1.3-1.3-2.4-2-3.3
		c-3.5-3.9-5.7-8.8-6.8-14c-2-9.4-3.3-19.1-2.6-28.7c0-0.4,0-0.7,0-1.1c-1.8-16.4,0.4-32.9,2.2-49.3c0-0.9-0.2-1.5-0.4-2.9
		c-4.6,1.3-7,7-12.7,4.8c0.4-3.7,2-7,4.8-9.4c2.6-2.2,5.9-3.7,8.8-5.7c1.8-1.1,3.7-2,5-3.5c1.8-2,3.5-2.4,6.1-2
		c2.4,0.4,4.8,0.9,7.2,0.4c5.9-0.7,11.6,0.2,16.9,2.6c7.2,3.1,11.4,8.6,12.9,16c1.5,7,1.1,14-0.7,20.8c-2.2,8.8-5,17.5-9.4,25.7
		C286.4,244.8,285.7,246.1,284.8,248.1z M262.2,249.7c0.4,0.2,0.9,0.2,1.3,0.4c0.4-0.7,0.7-1.1,1.1-1.8c0.7-1.1,1.3-2,2-3.1
		c6.1-11.4,10.1-23.5,12.5-36c0.9-5,1.3-10.1,0-15.1c-1.5-5.5-4.8-8.3-10.5-8.3c-5,0-6.4,0.9-6.6,5.9c-0.4,17.3-0.4,34.6-0.7,52
		C261.4,245.5,262,247.5,262.2,249.7z M269.9,288.7c11.2-3.9,15.8-20.2,11.6-27.8c-1.8-3.5-3.7-4.8-7-2.6c-3.9,2.6-7.2,6.1-10.5,9.4
		c-0.7,0.7-0.7,2.4-0.4,3.5c0.9,3.9,1.8,7.9,3.1,11.6C267.3,284.9,268.8,286.7,269.9,288.7z"/>
	<path class="st1" d="M124.5,182.1c-3.1-1.3-5.3-2.2-7.5-3.3c0.4-3.3,2.4-3.5,4.4-3.7c8.3-0.4,16.9-0.9,25.2-0.9
		c2.2,0,4.8-0.2,5.7,3.5c-1.5,0.7-3.1,1.5-4.6,1.8c-2.9,0.4-3.7,2-3.9,4.6c-0.2,5.7-0.7,11.2-1.1,16.9c-0.9,13.4-2,27-2.4,40.3
		c-0.2,7.5,0.4,15.1,0.7,22.6c0.2,5,0,10.1,0,14.9c-0.7,0.4-0.9,0.7-1.1,0.9c-8.8,2.4-9.9,1.8-11.6-7.2c-2.2-11-2.9-22.1-2.4-33.5
		c0.4-9,0.9-17.8,1.5-26.7c0-1.5,0-3.1-0.7-5c-0.4,1.1-1.1,2.2-1.3,3.3c-2,11.2-3.9,22.4-6.1,33.5c-0.9,4.2-2,8.1-2.9,12.3
		c-0.7,2.9-2.4,5-5.3,6.1c-3.9,1.8-7,1.1-9-2.6c-1.8-3.3-3.1-6.8-3.9-10.3c-1.5-6.6-2.9-13.4-4.2-20c-0.2-1.1-0.9-2-1.5-3.1
		c-1.3,7.5-2,14.9-1.3,22.4c0.7,9,1.1,18.2,1.8,27.2c0.2,4.4,0.9,8.8,1.1,13.2c0.2,3.5-1.5,5.7-4.8,6.4c-3.3,0.9-5.5,0-6.8-3.3
		c-0.9-2.2-1.8-4.6-2.2-7c-1.8-16.2-3.1-32.4-0.9-48.7c0.4-3.3,1.1-6.6,1.8-10.5c-2.2,0.2-4.2,0-5.9,0.4c-2,0.4-3.7,1.1-5.5-0.9
		c0.2-2.4,2.2-3.3,4.2-3.9c5.5-1.8,11-3.7,16.4-5.3c6.8-2,10.3-0.2,13.2,5.9c1.8,3.5,2.6,7.7,3.7,11.4c0.7,2.4,1.3,4.8,2.6,7.2
		C114.2,221.1,116,201,124.5,182.1z"/>
	<path class="st2" d="M333,67c-0.9,1.3-2,2.6-2.6,4.2c-2.4,5.3-4.8,10.5-7,15.8c-3.3,8.3-6.1,16.7-9.4,25.2
		c-2.2,5.9-5.5,8.1-11.4,8.1c-2.9,0-4.8-0.9-5.9-3.5c-1.3-2.9-2.6-5.9-3.1-9c-1.3-9.9-2-20-3.1-29.8c-0.2-2-0.2-3.9-0.2-5.9
		c-0.4,0-0.7-0.2-1.1-0.2c-0.4,1.1-1.1,2.4-1.3,3.5c-3.7,23-5.7,46.3-4.4,69.7c0.2,4.4-1.1,6.1-6.4,7.2c-3.5,0.9-6.1-1.1-7-5.5
		c-0.7-2.6-0.9-5.3-0.9-7.9c-0.9-23,1.5-45.6,8.3-67.5c0.2-0.9,0.4-2,0.9-3.3c-2.2-1.1-4.4-2-6.6-3.1c0.7-3.1,2.9-3.7,5-4.2
		c4.2-0.9,8.3-1.5,12.5-2c7.5-0.9,11.6,2.4,12.3,10.1c1.1,10.7,2.2,21.7,3.3,32.4c0.2,1.5,0.7,2.9,0.9,4.2c0.4,0,0.7,0,1.1,0
		c0.7-1.5,1.5-3.1,2-4.6c2.2-5.9,4.4-11.8,6.6-17.8c3.3-9.4,8.1-18,14.3-25.7c2-2.4,4.8-4.8,7.7-6.1c5.5-2.4,11.4-4.4,17.3-6.1
		c2.4-0.7,5.3-0.2,7.7,0.7c2.6,0.9,2.4,3.5,0,4.6c-1.8,0.9-3.7,1.1-5.5,1.3c-3.3,0.4-5,2-5.5,5.3c-2,11.4-4.2,22.8-6.1,34.2
		c-2.4,14-2.2,28.3-1.8,42.5c0.2,5.3-0.9,6.8-5,7.5c-3.5,0.4-6.8-1.5-7.9-5.5c-0.7-2.4-1.1-5.3-1.3-7.7c-1.3-17.8,0.9-35.3,3.7-52.8
		c0.4-2.6,0.7-5.3,1.1-8.1C333.9,67.2,333.5,67.2,333,67z"/>
	<path class="st1" d="M169.5,245.3c0.9-1.3,2-2.6,2.4-4.2c1.1-3.5,2.2-7,2.9-10.5c2.2-12.9,6.8-25,12.7-36.6
		c1.1-2.2,2.6-4.2,4.2-6.1c4.6-5,11-3.7,12.3,2.9c1.8,8.3,3.3,16.9,3.7,25.4c0.7,10.7,0.2,21.7,0,32.7c-0.4,18.4-7,34.4-17.8,49.1
		c-2.2,2.9-4.2,5.7-6.1,8.6c-3.3,4.4-7.5,7.2-12.5,9.4c-3.9,1.5-6.4,1.1-8.8-2.2c-1.8-2.4-3.9-5.3-4.4-8.1
		c-2-14.5,0.2-28.1,11.4-38.8c1.5-1.5,3.7-2.9,5.7-3.3c1.3-0.4,3.1,0.7,4.8,0.9c-0.4,1.3-0.7,3.1-1.3,4.2c-6.6,9-8.3,19.5-9.9,30
		c0,0.4,0.2,0.9,0.4,2c0.9-0.9,2-1.3,2.4-2.2c1.1-1.5,2-2.9,2.6-4.6c7.9-17.3,14.9-35.3,17.8-54.2c1.8-11.6,1.3-23.7,2-35.7
		c0-0.9-0.2-1.5-0.7-3.3c-1.1,1.8-2,2.6-2.2,3.7c-2.6,9-5.3,17.8-7.5,26.7c-1.5,5.9-3.1,11.4-6.1,16.7c-2.6,4.2-6.1,6.4-11,5.9
		c-5-0.4-8.6-3.5-9.9-8.1c-4.8-15.3-4.6-30.7,0.9-46c1.1-3.1,3.3-4.4,5.9-3.9c2.6,0.4,4.2,2.4,4.4,5.7c0,1.3-0.2,2.9-0.4,4.2
		c0,11.2-0.2,22.4-0.2,33.5c0,2.2,0.9,4.4,1.3,6.4C168.6,245.3,169.1,245.3,169.5,245.3z"/>
	<path class="st0" d="M423.4,233.6c0.9-1.1,2.2-2,2.9-3.3c11.8-20,22.8-40.6,30.7-62.7c3.3-9.4,7.5-18.4,11.4-27.6
		c0.7-1.5,1.3-2.9,2.4-4.2c2-2.4,4.2-3.1,6.4-2c2.6,1.1,4.2,3.3,3.7,6.1c-0.7,3.7-1.3,7.7-2.4,11.2c-2.4,7.7-5.3,15.1-7.9,22.8
		c-5.9,16.9-12.7,33.3-22.1,48.7c-3.9,6.4-7.9,12.3-14.3,16.4c-0.7,0.4-0.9,0.9-1.3,1.3c0,0.4,0,1.1,0.2,1.1
		c6.4,4.4,12.7,9.2,19.5,13.2c2.2,1.3,5.5,0.9,8.1,0.7c2.9-0.2,5.9-1.1,8.8-1.5c1.1-0.2,2.2,0.2,4.4,0.2c-3.9,5.7-8.6,8.6-14.5,9.6
		c-7.2,1.1-14-0.7-20.4-3.7c-3.5-1.8-6.6-3.9-9.9-5.9c-1.8-1.1-3.5-2.2-6.1-3.9c-0.2,2.6-0.4,4.2-0.2,5.9c0,2.9,0.4,5.7,0.4,8.3
		c0,4.4-1.8,6.4-5.5,7c-3.7,0.7-6.1-0.7-7.5-4.8c-0.9-2.9-1.8-5.7-2-8.8c-1.8-21.7-1.3-43.4,2.6-64.9c0.9-5,3.5-9.9,5.7-14.5
		c1.5-3.3,3.7-4.2,6.8-3.1c2.9,0.9,4.4,2.9,4.2,6.4c-0.2,3.5-0.9,7-1.5,10.3c-0.9,6.4-2,12.7-2.6,19.3c-0.7,5.7-0.9,11.6-1.1,17.3
		c0,1.3,0,2.6,0,3.9C422.7,233.2,423.2,233.4,423.4,233.6z"/>
	<path class="st0" d="M399.3,216.3c0,11.4-1.8,22.6-3.7,34c-1.1,6.6-2.9,12.9-5.5,19.1c-3.1,7.7-9.4,12.1-16.7,15.1
		c-1.3,0.4-3.1,0.4-4.6,0c-5.5-1.5-9.4-4.8-10.7-10.5c-1.1-4.4-2.2-8.8-2.6-13.4c-2.2-18.9,0-37.1,7.2-54.6
		c2.6-6.6,6.8-12.3,12.1-16.2c8.3-6.1,19.1-3.3,22.6,6.8c1.3,4.2,1.5,9,2,13.4C399.5,212.2,399.3,214.1,399.3,216.3z M383.3,193.3
		c-3.3,2.9-4.4,5.9-5,9c-2.2,8.8-4.6,17.3-5.9,26.1c-2.2,14-2.2,28.3,0.7,42.3c0.4,2,1.3,3.7,2.4,6.8c2.4-2.2,4.6-3.3,5.3-5.3
		c2-4.8,4.2-9.9,4.6-14.9c1.5-14,2.4-28.3,3.5-42.3c0.4-5.9-0.4-11.6-2.4-17.1C385.9,196.2,384.4,194.8,383.3,193.3z"/>
	<path class="st2" d="M238.6,322.9c2.4-1.5,3.9-3.1,5.9-3.7c17.1-5,40.1,1.1,41.7,27.4c0.4,5.9-0.7,12.3-2,18.2
		c-3.3,13.2-12.3,22.1-23.5,28.9c-5.9,3.5-12.9,3.7-20,3.9c-0.7,0-1.3-0.2-2-0.4c-0.7-0.2-1.1-0.9-1.5-1.3c1.5-3.7,5.3-3.9,8.1-6.1
		c-3.7-5.9-4.2-12.7-4.4-19.5c-0.4-8.6-1.1-17.1-1.1-25.7c0-4.2,0.9-8.3,1.8-12.5C242.5,328.6,242.9,325.9,238.6,322.9z
		 M253.7,383.2c0.9-0.4,1.3-0.4,1.5-0.7c11.6-12.1,16.2-26.7,15.1-43.2c-0.4-6.8-6.4-12.9-12.3-14.3c-3.5-0.9-4.6-0.2-5.3,3.1
		c-0.7,3.1-1.1,6.1-1.3,9.4c-1.3,14.3,0.2,28.3,1.1,42.5C253,380.8,253.5,381.9,253.7,383.2z"/>
	<path class="st0" d="M349.5,211.7c-0.2,14.9-2.6,27.8-7.2,40.1c-2.6,6.8-7.2,11.8-13.2,16c-3.7,2.6-7.9,3.1-11.8,1.1
		c-7.7-3.7-13.2-9.2-14.3-18.2c-2-15.3-0.7-30.3,5.3-44.9c3.7-9,9.6-15.8,17.3-21.3c4.4-3.3,12.3-2,16.2,2.6c3.5,3.9,5.9,8.8,6.6,14
		C349.1,205.4,349.3,209.3,349.5,211.7z M332.6,189.8c-3.5,2.2-5.7,4.8-7.2,8.6c-5.9,15.6-7.7,31.8-7.2,48.5c0,2.2,0.4,4.6,1.1,6.8
		c0.9,3.3,2.2,6.4,5.5,7.9c2.6-0.4,4.4-2.2,5.5-4.4c1.1-2.4,2.4-4.8,3.1-7.2c1.8-6.4,3.3-12.9,4.4-19.5c1.8-10.1,2-20.2,0.2-30.3
		C337.2,196.2,336.6,192.4,332.6,189.8z"/>
	<path class="st2" d="M101.3,88.1c0,23.2,0.2,45.2-0.2,67.3c-0.2,10.1-2,20.2-6.8,29.4c-1.3,2.6-1.8,5.7-2.6,8.6
		c-1.8,5.9-7.7,10.1-13.8,10.1c-3.3,0-5.7-1.3-7.7-3.7c-3.7-4.6-4.8-10.1-6.1-15.6c-1.8-8.1-1.8-16,0.4-24.1
		c0.4-1.5,1.1-3.1,1.8-4.4c1.1-2,2.9-2.6,5-2c2.2,0.7,1.8,2.9,1.3,4.4c-0.7,3.5-1.8,6.8-2.4,10.3c-1.5,7.7-0.2,15.1,2,22.4
		c0.7,2.4,2.4,4.6,4.2,6.6c2.6,2.6,5.3,2,6.1-1.8c0.9-3.3,1.1-6.8,1.8-10.3c2.9-18.6,3.5-37.7,4.4-56.6c0.4-10.7,1.3-21.7,2-32.4
		c0.2-2.4,0.2-4.8,0.2-7.2c-4.2-2.6-9.6,1.1-13.4-3.9c1.5-0.9,2.6-2,3.9-2.2c8.6-0.4,17.1-0.9,25.7-1.1c0.4,0,1.3,0,1.5,0.4
		c0.9,0.9,1.8,2,2,3.3c0,0.4-1.5,1.5-2.6,1.8C105.7,87.6,103.3,87.8,101.3,88.1z"/>
	<path class="st2" d="M218.4,354.7c0-6.6-0.4-13.4,0-20c0.4-5.7,1.8-11.4,2.6-17.1c0.2-1.3,0.9-2.6,1.5-3.9c1.1-2,2.9-3.1,5.3-2.4
		c2.2,0.7,3.5,2.4,3.3,4.8c-0.2,2.2-0.4,4.2-0.7,6.4c-2.6,14.9-1.3,29.6-0.4,44.5c0.2,3.9,0.4,8.1,0.7,11.8c-5,3.3-6.4,3.3-10.5,0
		c-3.7-3.1-6.6-6.8-8.8-11c-2.4-4.6-4.8-9.4-7.2-14c-0.4-1.1-1.3-2-2.9-2.9c-0.2,1.8-0.4,3.7-0.4,5.5c-0.2,6.1-0.4,12.3-0.9,18.4
		c-0.2,3.9-4.2,6.4-7.9,5.3c-2.4-0.9-3.7-2.6-3.9-5c-0.2-3.7-0.2-7.5-0.2-11c0.2-7.2,0.7-14.3,1.3-21.5c0.2-2.9,1.3-5.7,2.6-8.6
		c2.6-5.9,9.9-7.2,14.3-2.2c2,2.2,3.1,5,3.9,7.9c1.8,5.3,3.5,10.5,6.6,15.1C217.5,354.9,217.9,354.7,218.4,354.7z"/>
	<path class="st2" d="M138.8,133c-0.7,1.1-1.1,2.2-1.8,3.3c-2.2,3.9-3.9,8.1-6.6,12.1c-3.9,5.9-11.4,5.9-15.3,0
		c-1.8-2.4-2.9-5.7-3.1-8.8c-0.7-12.5,0.2-24.8,2-37.3c0.4-2.4,1.3-4.8,2-7c0.7-2,2.2-3.1,4.4-2.9c2.2,0.2,3.3,2,3.5,3.9
		c0.2,1.1,0,2.4,0,3.7c-0.4,11.6-1.1,23.5-1.5,35.1c0,2.9,0.7,5.7,0.9,9.6c1.8-1.5,2.9-2.2,3.3-3.1c1.5-3.1,2.9-5.9,3.9-9.2
		c4.6-11.8,8.8-23.7,13.6-35.3c1.1-2.9,3.3-5.5,5.3-7.7c1.1-1.1,3.3-1.5,5-1.8c2,0,3.1,1.3,3.3,3.5c0,1.1,0,2.2-0.2,3.1
		c-1.5,9.2-3.7,18.6-4.6,27.8c-0.9,9-0.2,18.2-0.2,27.2c0,0.4,0.2,0.7,0.2,1.1c0.4,2.4,0.9,5-2,6.4c-2.2,0.9-5.3,0-7-2.4
		c-1.3-2-2.6-4.2-3.1-6.6c-0.7-3.3-0.9-7-1.1-10.5c-0.2-1.8-0.4-3.3-0.4-5C139.2,133.2,139,133,138.8,133z"/>
	<path class="st2" d="M326.3,304.7c-3.5-0.7-6.8-1.3-10.1-2.2c-0.4,0-0.7-0.9-1.1-1.8c1.3-1.1,2.4-2.2,3.9-3.1
		c4.2-2,8.3-3.5,13.2-3.3c8.6,0.2,17.1,0.7,25.7,1.1c2.6,0.2,5,1.3,6.1,4.2c-0.4,2.4-2.4,2.2-4.2,2.2c-4.8,0.2-9.4,0.2-14.3,0.2
		c-5.5,0-6.4,0.7-7,6.1c-0.9,10.1-1.8,20.2-2.4,30.5c-0.7,11-1.3,22.1-1.8,33.1c-0.2,2.6,0.2,5.3,0.4,7.7c2.9,2,5.7,1.3,8.3,1.1
		c2.4-0.2,4.6,0,6.4,1.8c1.8,1.8,1.3,4.2-1.3,4.6c-2.6,0.7-5.5,0.7-8.3,0.9c-6.1,0.7-12.3,1.3-18.2,1.8c-0.4,0-0.7,0.2-1.1,0.2
		c-2.2,0-5,0.4-5.7-2.2c-0.9-2.9,2-3.1,3.9-3.9c0.9-0.4,1.5-0.9,2.4-1.3C318.1,356.2,322.5,330.6,326.3,304.7z"/>
	<path class="st2" d="M165.5,376.2c-3.5,0.7-6.4,1.1-9.2,2c-3.1,1.1-4.4,3.7-4.6,7c-0.7,9-1.3,17.8-2,26.7c-0.2,1.8,0,3.5,0,5.3
		c-2,1.3-3.7,2.4-5.7,3.7c-2.2-1.1-2.9-3.1-2.9-5.3c0-7.5-0.7-15.1,0.4-22.6c1.3-10.5,3.7-21,5.9-31.6c2-9,6.4-16.9,11.6-24.6
		c2.6-3.7,5.7-6.4,10.5-5.3c5,1.1,7.9,4.2,8.8,9.4c0.2,1.3,0.7,2.9,0.7,4.2c0.7,14.5,1.3,29.2,2,43.6c0.2,6.4-1.1,8.1-7.5,9.4
		c-3.7,0.9-5.7-0.2-6.1-4.2c-0.4-4.2-0.7-8.3-0.9-12.5C166.4,379.9,166,378.6,165.5,376.2z M154.6,372.4c3.1-0.4,4.8-0.9,6.8-1.3
		c4.8-1.1,4.8-1.1,5-6.1c0.2-6.8,0.4-13.6,0.4-20.4c0-0.9-0.2-1.8-0.7-3.9C158.5,350.5,155.2,360.4,154.6,372.4z"/>
	<path class="st2" d="M370.5,141.6c5.3-0.7,9.6-1.3,13.6-1.8c1.3,2.6-0.2,3.5-1.8,4.2c-7.9,3.5-15.8,6.8-23.5,10.1
		c-2.6,1.1-3.7-0.4-5-2c0.2-0.4,0.2-1.1,0.4-1.1c4.4-2.6,4.6-6.4,3.7-10.7c-0.7-3.5-0.9-7-1.1-10.5c-1.3-16.7,0.2-33.1,2.6-49.8
		c0.7-4.4,2.2-8.3,3.3-12.7c-1.8-1.3-3.3-2.6-4.8-3.7c0.4-3.1,2.6-3.7,4.6-3.9c5.9-0.7,11.8-2.9,18-0.7c0.9,0.2,2.2-0.4,3.3-0.9
		c5.5-2,11.2-2.6,17.1-1.1c1.8,0.4,3.1,1.8,4.6,3.1c-9.4,5-19.7,2.2-29.2,4.4c-3.3,7.2-7,39.9-5,46.9c1.3-0.2,2.9-0.2,4.4-0.4
		c3.5-0.7,7.2-1.5,10.7-2.2c2.2-0.4,4.2-0.4,4.8,3.1c-1.1,0.7-2.2,1.5-3.3,2c-4.4,1.3-8.8,2.4-13.2,3.7c-2.6,0.7-4.4,1.8-4.4,4.8
		C370.5,128.2,370.5,134.5,370.5,141.6z"/>
	<path class="st2" d="M236.1,128.4c-1.3,7.5-2.4,14.5-3.7,21.7c-0.7,3.1-1.1,6.1-2,9.2c-1.1,4.4-3.5,7.7-7.7,9.4
		c-5.5,2.6-10.3,1.5-14.3-2.9c-3.7-4.2-5.9-9-6.6-14.7c-1.5-12.3-0.2-24.6,0.7-36.8c0.2-2,0.2-3.7,0.4-5.9c-3.5,0-6.4,0-9.4,0
		c-0.2-0.4-0.2-0.9-0.4-1.1c1.8-1.1,3.5-2.6,5.5-3.3c4.6-1.5,6.4-4.4,7.5-9c1.3-5.9,3.9-11.6,5.9-17.3c0.4-1.1,1.5-2.4,2.6-3.1
		c3.5-1.8,7,0.7,6.6,4.6c-0.2,3.1-1.1,6.1-1.8,9.2c-0.4,2.4-0.9,4.8-1.3,7.2c0,0.7,0.2,1.3,0.4,2.6c2,0,4.2,0.2,6.1,0.2
		c2.2,0,4.2-0.2,6.1,0.4c1.1,0.2,2.9,2,2.6,2.4c-0.4,1.3-1.8,2.4-2.9,3.1c-0.7,0.4-2,0-3.1,0c-2-0.2-3.7-0.4-5.7-0.4
		c-3.9,0.2-4.6,1.3-5.3,5.3c-2,15.8-3.1,31.8-1.1,47.6c0.4,2.9,0.7,5.5,2.6,7.9c2.9-0.2,3.3-2.4,3.7-4.4c1.1-4.6,1.8-9.2,3.1-13.8
		c1.3-5,2.6-10.1,4.4-15.1C230.9,128.6,231.3,128.4,236.1,128.4z"/>
	<path class="st2" d="M173.2,140.5c2.6-2.6,3.7-5,3.9-7.7c0-4.6,0.2-9.4-0.7-14c-1.8-9.2-4.2-18.4-6.4-27.6
		c-1.8-6.8-2.4-13.4-1.5-20.4c0.7-5,2.4-9.4,5.5-13.4c7.2-9,20.4-7.2,23.9,3.7c3.3,10.1,3.5,20.6,0.2,30.9c-0.2,0.9-0.7,2.2-1.5,2.6
		c-0.9,0.7-2.4,0.9-3.3,0.4c-0.7-0.2-1.1-1.5-1.3-2.4c-0.2-0.9,0.4-1.8,0.4-2.6c1.5-9.2-0.2-18.2-1.8-27.2c0-0.4-0.2-1.1-0.7-1.5
		c-1.5-1.5-3.3-2.9-4.8-4.4c-1.3,1.3-2.6,2.6-3.5,4.2c-3.5,6.6-3.3,13.6-2.2,20.6c0.9,5.5,2.2,11,3.9,16.2
		c3.1,9.4,4.2,19.1,4.8,28.9c0.4,7.5-4.8,16-11,18.4c-3.7,1.3-7.5,0.4-10.3-2.9c-2.4-2.6-3.5-8.1-1.8-10.7c0.4-0.9,2-2,2.9-1.8
		c0.9,0,2.2,1.1,2.6,2.2C171.7,134.5,172.1,137,173.2,140.5z"/>
	<path class="st1" d="M469.6,310.2c-5.5,2.6-11,5.3-16.7,7.5c-14.5,5.9-28.9,11.6-43.4,17.5c-5,2-10.1,4.2-15.1,6.1
		c-3.9,1.5-5,0.9-7.9-3.5c2-1.3,3.7-3.1,5.9-3.9c22.1-10.1,44.7-19.5,68.8-23.9c2.6-0.4,5-0.7,7.7-1.1
		C469.4,309.3,469.4,309.7,469.6,310.2z"/>
	<path class="st1" d="M28.7,368.9c4.4-0.9,8.8-2,13.2-2.4c23.9-2.9,47.6-5.7,71.7-5.7c2.2,0,4.4-0.2,5.7,1.8
		c0.7,0.9,1.1,2.2,0.9,3.1c0,0.7-1.5,1.1-2.4,1.5c-0.4,0.2-1.1,0-1.5,0c-23,1.3-46,2.6-69.3,3.7c-6.1,0.2-12.1-0.2-18.2-0.4
		C29,370.2,29,369.6,28.7,368.9z"/>
	<path class="st1" d="M54.8,467.4c0.9-1.5,1.5-3.3,2.6-4.6c8.8-9.9,17.5-19.5,26.3-29.4c2.6-2.9,5.5-5,9.9-4.8
		c-0.7,5.3-7.5,14-23.7,29.6c-4.2,3.9-8.1,8.6-13.8,10.3C55.7,468,55.3,467.6,54.8,467.4z"/>
	<path class="st1" d="M443.8,407.3c-2,0-3.7,0.7-5,0.2c-13.4-3.7-26.5-7.2-39.9-11.2c-3.3-0.9-6.4-2.6-7.7-6.4
		c5.3-1.8,20.4,2,38.6,8.8C440.9,402.9,441.4,402.9,443.8,407.3z"/>
	<path class="st1" d="M47.6,408.4c3.5-1.1,6.8-2.2,10.3-2.9c12.7-2.9,25.2-5.7,37.9-8.3c5-1.1,6.6,0,7.7,4.8
		c-9,2.4-18.4,3.1-27.6,5.5c-9.2,2.2-18.6,1.3-28.1,2.4C47.8,409.3,47.6,408.8,47.6,408.4z"/>
	<path class="st1" d="M438.7,359.1c0,3.5-2.2,3.9-4.4,4.4c-5.3,0.9-10.3,1.5-15.6,2.4c-5.3,0.9-10.7,2-16,2.6
		c-1.8,0.2-3.9,0.2-5.5-0.7c-2.2-0.9-2-3.3,0.2-4.4c1.8-0.9,3.5-1.5,5.3-2c9.9-2.4,20-4.2,30-3.5C435,358,437,358.6,438.7,359.1z"/>
	<path class="st1" d="M390.9,309.1c6.4-8.3,14.5-14,24.1-17.3c-0.7,4.2-3.3,7.2-6.1,9.9c-3.3,3.1-6.8,5.9-10.3,8.8
		C395.3,313,394.9,313,390.9,309.1z"/>
	<path class="st2" d="M412.4,142c-0.7,4.6-1.1,8.3-2.2,12.1c-0.4,1.8-2,3.5-3.5,4.2c-1.3,0.7-3.5,0.7-4.8,0
		c-0.7-0.4-0.7-2.9-0.7-4.2c0-2.6,0.4-5,0.2-7.7c-0.2-3.3,0.4-4.6,3.5-5C407.4,141.3,409.3,141.8,412.4,142z"/>
	<path class="st1" d="M81.1,332.1c4.4-1.8,11.6-0.7,20.2,3.5c3.1,1.5,7,2.2,7.9,7c-1.3,0-2.4,0.2-3.3,0c-6.6-1.8-13.2-3.7-19.7-5.7
		C82.7,335.8,82.9,335.8,81.1,332.1z"/>
	<path class="st1" d="M118.8,319.6c2,0.4,3.5,0.2,4.4,0.9c4.6,3.5,9.2,7.5,13.6,11.2c0.2,0.2-0.2,1.1-0.4,1.8
		C128.5,331.6,121,326.2,118.8,319.6z"/>
</g>
</svg>
