<?xml version="1.0" encoding="utf-8"?>
<!-- Generator: Adobe Illustrator 28.0.0, SVG Export Plug-In . SVG Version: 6.00 Build 0)  -->
<svg version="1.1" id="Layer_1" xmlns="http://www.w3.org/2000/svg" xmlns:xlink="http://www.w3.org/1999/xlink" x="0px" y="0px"
	 viewBox="0 0 300 300" style="enable-background:new 0 0 300 300;" xml:space="preserve">
<style type="text/css">
	.st0{fill:#A5BCA7;}
	.st1{fill:#FFFFFF;}
	.st2{fill:#F3EBDE;}
	.st3{fill:#EBA5A6;}
	.st4{fill:#F9AA8C;}
	.st5{fill:#BFDDDF;}
	.st6{fill:#FECA8C;}
	.st7{fill:#FABB92;}
	.st8{fill:#231F20;}
</style>
<g>
	<path class="st0" d="M233.11,35.85H65.93c-11.06,0-20.03,8.97-20.03,20.03v205.58c0,11.06,8.97,20.03,20.03,20.03h167.18
		c11.06,0,20.03-8.97,20.03-20.03V55.87C253.13,44.81,244.17,35.85,233.11,35.85z"/>
	<path class="st1" d="M228.93,50.38H70.11c-5.19,0-9.4,4.21-9.4,9.4v179.2c0,5.19,4.21,9.4,9.4,9.4h158.82c5.19,0,9.4-4.21,9.4-9.4
		V59.78C238.33,54.59,234.12,50.38,228.93,50.38z"/>
	<g>
		<path class="st2" d="M277.36,69.92c-2.11-6.6-9.17-10.24-15.77-8.13c-0.23,0.07-0.46,0.16-0.69,0.24
			c0.01-0.23,0.02-0.47,0.02-0.71c0.03-6.93-5.56-12.58-12.49-12.61c-6.93-0.03-12.58,5.56-12.61,12.49c0,0.24,0.01,0.49,0.02,0.73
			c-0.22-0.09-0.44-0.17-0.66-0.24c-6.58-2.17-13.68,1.4-15.85,7.98c-2.17,6.58,1.4,13.68,7.98,15.85c0.23,0.08,0.46,0.15,0.7,0.21
			c-0.15,0.18-0.29,0.37-0.43,0.56c-4.1,5.59-2.9,13.44,2.69,17.54c5.59,4.1,13.44,2.9,17.54-2.69c0.14-0.2,0.28-0.4,0.41-0.6
			c0.13,0.2,0.26,0.39,0.4,0.58c4.05,5.63,11.89,6.91,17.51,2.86c5.63-4.05,6.91-11.89,2.86-17.51c-0.14-0.2-0.29-0.39-0.44-0.58
			c0.23-0.06,0.45-0.12,0.68-0.2C275.82,83.58,279.47,76.52,277.36,69.92z"/>
		<path class="st2" d="M81.07,223.58c-2.11-6.6-9.17-10.24-15.77-8.13c-0.23,0.07-0.46,0.16-0.69,0.24
			c0.01-0.23,0.02-0.47,0.02-0.71c0.03-6.93-5.56-12.58-12.49-12.61c-6.93-0.03-12.58,5.56-12.61,12.49c0,0.24,0.01,0.49,0.02,0.73
			c-0.22-0.09-0.44-0.17-0.66-0.24c-6.58-2.17-13.68,1.4-15.85,7.98c-2.17,6.58,1.4,13.68,7.98,15.85c0.23,0.08,0.46,0.15,0.7,0.21
			c-0.15,0.18-0.29,0.37-0.43,0.56c-4.1,5.59-2.9,13.44,2.69,17.54c5.59,4.1,13.44,2.9,17.54-2.69c0.14-0.2,0.28-0.4,0.41-0.6
			c0.13,0.2,0.26,0.39,0.4,0.58c4.05,5.63,11.89,6.91,17.51,2.86c5.63-4.05,6.91-11.89,2.86-17.51c-0.14-0.2-0.29-0.39-0.44-0.58
			c0.23-0.06,0.45-0.12,0.68-0.2C79.53,237.25,83.18,230.18,81.07,223.58z"/>
		<path class="st2" d="M235.54,38.68c-0.22-3.97-3.62-7.01-7.59-6.79c-0.14,0.01-0.28,0.02-0.42,0.04c0.04-0.13,0.08-0.26,0.11-0.39
			c1.02-3.84-1.27-7.78-5.12-8.8c-3.84-1.02-7.78,1.27-8.8,5.12c-0.04,0.14-0.07,0.27-0.09,0.41c-0.11-0.08-0.22-0.16-0.33-0.23
			c-3.34-2.16-7.8-1.19-9.95,2.15c-2.16,3.34-1.19,7.8,2.15,9.95c0.12,0.08,0.24,0.15,0.36,0.22c-0.11,0.08-0.22,0.16-0.32,0.25
			c-3.08,2.51-3.55,7.05-1.03,10.13c2.51,3.08,7.05,3.55,10.13,1.03c0.11-0.09,0.21-0.18,0.32-0.27c0.04,0.13,0.09,0.26,0.14,0.38
			c1.44,3.71,5.6,5.55,9.31,4.11c3.71-1.44,5.55-5.6,4.11-9.31c-0.05-0.13-0.1-0.26-0.16-0.38c0.13,0,0.27,0,0.41-0.01
			C232.72,46.04,235.76,42.65,235.54,38.68z"/>
		<path class="st2" d="M261.12,127.03c-1.83-3.53-6.17-4.91-9.7-3.08c-0.12,0.06-0.25,0.13-0.36,0.2c-0.01-0.13-0.03-0.27-0.05-0.4
			c-0.65-3.92-4.35-6.58-8.27-5.93c-3.92,0.65-6.58,4.35-5.93,8.27c0.02,0.14,0.05,0.27,0.08,0.41c-0.13-0.03-0.26-0.05-0.4-0.07
			c-3.93-0.6-7.6,2.11-8.2,6.04c-0.6,3.93,2.11,7.6,6.04,8.2c0.14,0.02,0.28,0.04,0.41,0.05c-0.07,0.12-0.13,0.24-0.19,0.36
			c-1.78,3.55-0.35,7.88,3.21,9.66c3.55,1.78,7.88,0.35,9.66-3.21c0.06-0.13,0.12-0.25,0.18-0.38c0.09,0.1,0.18,0.2,0.28,0.29
			c2.83,2.79,7.39,2.76,10.18-0.07c2.79-2.83,2.76-7.39-0.07-10.18c-0.1-0.1-0.2-0.19-0.31-0.28c0.12-0.06,0.24-0.11,0.37-0.18
			C261.56,134.91,262.94,130.56,261.12,127.03z"/>
		<path class="st2" d="M113.58,239.48c-1.83-3.53-6.17-4.91-9.7-3.08c-0.12,0.06-0.25,0.13-0.36,0.2c-0.01-0.13-0.03-0.27-0.05-0.4
			c-0.65-3.92-4.35-6.58-8.27-5.93c-3.92,0.65-6.58,4.35-5.93,8.27c0.02,0.14,0.05,0.27,0.08,0.41c-0.13-0.03-0.26-0.05-0.4-0.07
			c-3.93-0.6-7.6,2.11-8.2,6.04c-0.6,3.93,2.11,7.6,6.04,8.2c0.14,0.02,0.28,0.04,0.41,0.05c-0.07,0.12-0.13,0.24-0.19,0.36
			c-1.78,3.55-0.35,7.88,3.21,9.66c3.55,1.78,7.88,0.35,9.66-3.21c0.06-0.13,0.12-0.25,0.18-0.38c0.09,0.1,0.18,0.2,0.28,0.29
			c2.83,2.79,7.39,2.76,10.18-0.07c2.79-2.83,2.76-7.39-0.07-10.18c-0.1-0.1-0.2-0.19-0.31-0.28c0.12-0.06,0.24-0.11,0.37-0.18
			C114.03,247.35,115.41,243.01,113.58,239.48z"/>
		<path class="st2" d="M71.92,181.84c0.91-3.87-1.49-7.74-5.36-8.65c-0.14-0.03-0.27-0.06-0.41-0.08c0.08-0.11,0.15-0.22,0.22-0.34
			c2.06-3.4,0.97-7.83-2.43-9.89c-3.4-2.06-7.83-0.97-9.89,2.43c-0.07,0.12-0.14,0.24-0.21,0.36c-0.08-0.11-0.17-0.21-0.26-0.31
			c-2.6-3.01-7.14-3.34-10.15-0.75c-3.01,2.6-3.34,7.14-0.75,10.15c0.09,0.11,0.19,0.21,0.28,0.31c-0.13,0.05-0.25,0.09-0.38,0.15
			c-3.67,1.54-5.39,5.76-3.85,9.42c1.54,3.67,5.76,5.39,9.42,3.85c0.13-0.05,0.26-0.11,0.38-0.17c0,0.13,0.01,0.27,0.02,0.4
			c0.33,3.96,3.81,6.9,7.77,6.57c3.96-0.33,6.9-3.81,6.57-7.77c-0.01-0.14-0.03-0.28-0.05-0.41c0.13,0.04,0.26,0.07,0.39,0.1
			C67.13,188.11,71.01,185.71,71.92,181.84z"/>
	</g>
	<path class="st3" d="M248.25,88.2c-5.2-0.03-9.4-4.26-9.37-9.47c0.03-5.2,4.26-9.4,9.47-9.37c5.2,0.03,9.4,4.26,9.37,9.47
		C257.69,84.02,253.45,88.22,248.25,88.2z"/>
	<path class="st3" d="M51.96,241.86c-5.2-0.03-9.4-4.26-9.37-9.47c0.03-5.2,4.26-9.4,9.47-9.37c5.2,0.03,9.4,4.26,9.37,9.47
		S57.16,241.88,51.96,241.86z"/>
	<path class="st1" d="M188.78,266.72h-78.52c-2.01,0-3.64,1.63-3.64,3.64s1.63,3.64,3.64,3.64h78.52c2.01,0,3.64-1.63,3.64-3.64
		S190.79,266.72,188.78,266.72z"/>
	<path class="st4" d="M202.95,109.62c2.3,6.21,0.81,4.72,7.02,7.02c-6.21,2.3-4.72,0.81-7.02,7.02c-2.3-6.21-0.81-4.72-7.02-7.02
		C202.13,114.34,200.65,115.83,202.95,109.62z"/>
	<path class="st4" d="M158.32,186.51c2.3,6.21,0.81,4.72,7.02,7.02c-6.21,2.3-4.72,0.81-7.02,7.02c-2.3-6.21-0.81-4.72-7.02-7.02
		C157.51,191.23,156.03,192.71,158.32,186.51z"/>
	<path class="st4" d="M97.9,155.87c2.3,6.21,0.81,4.72,7.02,7.02c-6.21,2.3-4.72,0.81-7.02,7.02c-2.3-6.21-0.81-4.72-7.02-7.02
		C97.09,160.59,95.6,162.07,97.9,155.87z"/>
	<path class="st5" d="M216.75,44.63c-2.88-0.76-4.6-3.72-3.84-6.61c0.76-2.88,3.72-4.6,6.61-3.84c2.88,0.76,4.6,3.72,3.84,6.61
		S219.63,45.39,216.75,44.63z"/>
	<path class="st6" d="M246.42,140.17c-2.94,0.49-5.73-1.51-6.21-4.45c-0.49-2.94,1.51-5.73,4.45-6.21c2.94-0.49,5.73,1.51,6.21,4.45
		C251.35,136.9,249.36,139.68,246.42,140.17z"/>
	<path class="st5" d="M98.88,252.61c-2.94,0.49-5.73-1.51-6.21-4.45c-0.49-2.94,1.51-5.73,4.45-6.21c2.94-0.49,5.73,1.51,6.21,4.45
		C103.82,249.35,101.83,252.13,98.88,252.61z"/>
	<path class="st7" d="M52.21,182.25c-2.55-1.55-3.37-4.87-1.82-7.42c1.55-2.55,4.87-3.37,7.42-1.82c2.55,1.55,3.37,4.87,1.82,7.42
		C58.08,182.98,54.76,183.8,52.21,182.25z"/>
	<g>
		<g>
			<path class="st8" d="M113.87,128.9c1.23,0,2.26-1.03,2.26-2.26c0-1.23-1.03-2.26-2.26-2.26s-2.26,1.03-2.26,2.26
				C111.61,127.87,112.64,128.9,113.87,128.9z"/>
			<path class="st8" d="M211.23,135.19c-3,6.69-6.29,9.93-10.42,9.93c-1.77,0-3.24-0.84-3.69-2.95c4.96-0.05,9.19-2.8,9.19-7.67
				c0-3.15-2.85-5.55-5.7-5.55c-4.21,0-6.63,2.43-7.78,5.82c-0.2,0.21-0.36,0.5-0.48,0.87c-1.52,4.96-5.75,9.14-7.62,9.14
				c-1.67,0-2.56-1.08-2.85-6.49c2.9-3.24,8.36-12.34,8.36-18.83c0-5.16-2.41-5.7-4.23-5.7c-7.72,0-9.29,14.94-9.29,20.6
				c0,0.23,0,0.47,0.01,0.72c-0.22,0.17-0.42,0.4-0.59,0.71c-1.47,4.96-5.51,8.8-7.37,8.8c-1.67,0-2.06-1.23-2.11-6.83
				c2.85-3.69,7.67-10.86,7.72-17.5c0.05-6.34-4.33-6.64-4.33-6.64c-5.95,0-7.62,11.26-7.96,17.84c-0.88-1.13-2.11-1.97-3.83-1.97
				c-3.22,0-5.3,1.55-6.61,3.62c-0.22,0.11-0.41,0.25-0.51,0.46c-0.79,1.77-5.75,10.76-8.16,10.76c-1.72,0-1.23-3.64-0.93-5.65
				c0.39-3.2,0.25-8.85-5.21-8.85c-2.9,0-5.01,2.21-6.59,5.06c0.1-1.38,0.15-2.56,0.1-3.2c-0.15-2.56-2.8-2.41-3.93-1.82
				c-0.61,0.31-0.98,1.92-1.2,3.61c-0.22,0.19-0.4,0.45-0.52,0.81c-1.33,3.88-6.09,10.47-8.06,10.47c-2.6,0-1.23-9.63-1.23-9.63
				c0-0.84,1.23-4.23-1.67-4.08c-2.9,0.1-3.19,2.36-3.19,2.36c-0.13,0.34-0.31,1.09-0.47,2.09c-0.25,0.19-0.45,0.41-0.56,0.66
				c-1.87,4.03-5.21,8.6-7.91,8.6c-2.36,0-4.42-1.43-6-3.54c0.98-0.98,2.26-2.21,3.74-3.39c3.15-2.46,5.65-3.44,5.01-5.11
				c-0.54-1.52-1.47-2.56-3.34-1.92c-2.65,0.93-5.31,3.39-7.32,5.7c0-0.05,0-0.15,0-0.2c3.39-4.67,7.91-11.9,8.01-17.65
				c0.05-2.65-1.62-4.92-4.37-4.92c-10.42,0-8.8,34.21-8.8,34.21c0.1,1.03,0.98,1.23,2.56,1.23c1.52,0,2.31-1.28,2.36-3.39
				c1.82,2.01,4.37,3.74,7.72,3.74c4.07,0,7.03-2.43,9.1-5.33c0.74,2.95,2.43,5.33,5.89,5.33c3.22,0,6.11-2.6,8.34-5.74
				c-0.04,0.79-0.08,1.52-0.09,2.1c-0.05,2.46-0.59,3.64,2.06,3.64c1.92,0,2.56-0.88,2.85-1.92c1.92-6.24,4.52-12.29,6.34-12.29
				c3.59,0-2.75,13.91,5.9,13.91c3.35,0,6.2-2.25,8.4-5.03c0.59,2.46,2.12,4.74,5.8,4.74c2.75,0,5.31-2.07,6.93-4.87
				c0.74,3.1,2.31,5.46,5.7,5.46c4.1,0,7.24-2.81,9.31-6.16c0.96,3.41,2.85,6.16,6.62,6.16c3.84,0,6.55-2.19,8.53-4.97
				c1.24,3,3.8,4.97,7.05,4.97c10.52,0,13.57-7.96,15.53-13.17C215.85,135.14,212.21,133.37,211.23,135.19z M199.78,133.32
				c0.93-0.49,2.06,0.34,1.97,1.38c-0.2,2.41-2.75,2.75-4.42,2.7C197.91,134.75,199.14,133.62,199.78,133.32z M169.36,119.12
				c0.49,0,1.77,1.77-2.65,10.27C167.05,122.16,168.57,119.12,169.36,119.12z M96.67,119.02c0.49,0,1.18,2.75-2.41,8.9
				C94.8,122.75,95.64,119.02,96.67,119.02z M156.09,144.28c-3.19,0-2.02-9.83,1.67-9.83c1.97,0,2.41,3.74,2.41,3.74
				C160.17,141.04,157.71,144.28,156.09,144.28z M185.33,119.26c0.49,0,1.47,2.95-3.54,11.99
				C182.08,123,184.49,119.26,185.33,119.26z"/>
		</g>
		<g>
			<g>
				<path class="st8" d="M128.54,162.49c2.63,1.45,2.72,9.39,2.72,12.15c0,3.1-0.38,7.98-1.92,10.7c-1.88,3.28-5.63,5.3-9.43,5.3
					c-3.05,0-6.52-1.45-6.52-5.02c0-1.5,1.13-2.58,2.63-2.58c1.36,0,2.16,1.36,3.57,1.36c2.16,0,2.58-2.02,2.58-3.66
					c-0.61,0.14-1.27,0.23-1.92,0.23c-5.12,0-8.07-4.13-8.07-8.92c0-4.74,2.82-9.95,8.12-9.95c1.69,0,3.19,1.08,3.85,1.08
					c0.42,0,1.36-1.08,2.96-1.08C127.6,162.11,128.11,162.21,128.54,162.49z M122.58,171.17c0-0.84-0.38-2.07-1.41-2.07
					c-1.27,0-1.97,1.88-1.97,2.96c0,0.75,0.38,2.07,1.31,2.07C121.78,174.13,122.58,172.25,122.58,171.17z"/>
				<path class="st8" d="M140.69,163.71c0.75,1.83,0.8,6.01,0.8,8.07c0,2.3-0.19,4.6-0.33,6.9c-0.19,2.53-0.8,8.17-4.36,8.17
					c-3.71,0-3.8-6.34-3.8-8.87c0-3.05,0.19-11.36,1.17-13.99c0.56-1.41,1.92-2.11,3.38-2.11
					C138.82,161.88,140.18,162.44,140.69,163.71z M133.98,156.06c0-1.97,1.22-3.89,3.38-3.89s3.71,1.88,3.71,3.94
					c0,2.02-1.55,3.89-3.66,3.89C135.25,160,133.98,158.08,133.98,156.06z"/>
				<path class="st8" d="M162.37,167.56c0,2.3-1.78,4.69-4.22,4.69c-1.6,0-2.86-1.17-4.36-1.17c-1.41,0-1.92,0.99-2.06,2.25
					c-0.38,3.14-0.38,6.34-0.61,9.48c-0.19,2.3-1.41,3.99-3.85,3.99c-0.8,0-1.97-0.28-2.53-0.94c-1.41-1.69-1.31-7.51-1.31-9.81
					c0-3.57,0.23-7.18,0.84-10.7c0.38-2.21,1.31-3.38,3.61-3.38c2.39,0,2.91,0.8,2.91,3.1v0.33c1.5-1.55,3.71-2.39,5.87-2.39
					C159.32,163.01,162.37,164.56,162.37,167.56z"/>
				<path class="st8" d="M170.02,158.5c1.69,2.11,1.74,11.36,1.74,14.31c0,2.58,0.05,11.4-1.45,13.14c-0.66,0.7-1.69,0.99-2.63,0.99
					c-1.08,0-2.44-0.38-2.86-1.46c-1.22-2.86-1.41-13.56-1.41-17.03c0-2.25,0.05-4.51,0.14-6.8c0.14-2.3,1.03-4.41,3.71-4.41
					C168.29,157.23,169.37,157.66,170.02,158.5z"/>
				<path class="st8" d="M181.47,163.71c0.75,1.83,0.8,6.01,0.8,8.07c0,2.3-0.19,4.6-0.33,6.9c-0.19,2.53-0.8,8.17-4.36,8.17
					c-3.71,0-3.8-6.34-3.8-8.87c0-3.05,0.19-11.36,1.17-13.99c0.56-1.41,1.92-2.11,3.38-2.11
					C179.6,161.88,180.96,162.44,181.47,163.71z M174.76,156.06c0-1.97,1.22-3.89,3.38-3.89c2.16,0,3.71,1.88,3.71,3.94
					c0,2.02-1.55,3.89-3.66,3.89C176.03,160,174.76,158.08,174.76,156.06z"/>
				<path class="st8" d="M202.08,179.99c0,0.19,0,0.38-0.05,0.56c-1.13,4.13-4.46,6.34-8.59,6.34c-6.43,0-9.76-5.02-9.76-11.03
					c0-6.38,3.75-13.84,10.98-13.84c4.27,0,7.13,3,7.13,7.27c0,4.22-3.19,8.31-7.6,8.31c-0.99,0-1.78-0.38-1.78,1.08
					c0,1.08,0.61,2.58,1.92,2.58c2.77,0,1.97-3.66,4.88-3.66C200.62,177.6,202.08,178.44,202.08,179.99z M192.55,170.66
					c0,0.56,0.19,1.5,0.89,1.5c0.99,0,1.6-2.02,1.6-2.77c0-0.52-0.14-1.41-0.85-1.41C193.16,167.98,192.55,169.81,192.55,170.66z"/>
			</g>
		</g>
	</g>
</g>
</svg>
