<?xml version="1.0" encoding="utf-8"?>
<!-- Generator: Adobe Illustrator 22.1.0, SVG Export Plug-In . SVG Version: 6.00 Build 0)  -->
<svg version="1.1" id="Layer_1" xmlns="http://www.w3.org/2000/svg" xmlns:xlink="http://www.w3.org/1999/xlink" x="0px" y="0px"
	 viewBox="0 0 500 500" style="enable-background:new 0 0 500 500;" xml:space="preserve">
<style type="text/css">
	.st0{fill:#92D1C8;}
	.st1{fill:#50A5A6;}
</style>
<g>
	<path class="st0" d="M338.5,403.2c4.2-2.3,8.1-4.8,12.7-7.3c-1.7-5.2-3.1-10-5-14.7c-6.6-18.7-10.2-37.8-9.8-57.5
		c0.4-18.9,0.6-37.8,1-56.7c0.2-4.6,0.8-8.9,1.2-13.3c0.2-1.9,0-3.9,0-6.6c-5.6,1.7-10.8,2.9-15.8,4.6c-2.5,0.8-4.8,1.7-7.1-0.4
		c1-7.7,5.8-12.9,12.2-16.6c7.7-4.4,15.8-7.5,24.5-9.5c13.9-3.3,28-3.3,41.9,0c24.1,5.6,41.3,25.1,44.6,50.4
		c0.6,5.2,1.5,10.6,1.7,15.8c0.2,3.3-0.4,6.6-0.6,10c-1.7,18.5-5.4,36.3-11.8,53.8c-10.4,27.2-30.1,44.4-56.1,55.2
		c-6.6,2.7-13.7,1.9-20.8,1.5c-1.9,0-3.9-0.8-5.8-1C341.8,409.6,339.5,407.6,338.5,403.2z M369.8,384.9c2.1-1.2,3.5-1.9,4.8-2.9
		c6.9-5.8,12.7-12.2,16.8-20.1c2.9-5.6,6-11.2,8.5-16.8c8.9-20.8,14.1-42.3,13.5-65.2c-0.2-9.8-2.7-19.1-7.3-27.6
		c-4.2-7.9-10.2-13.9-19.5-14.5c-6-0.4-12.2,0.4-18.3,0.8c-2.9,0.2-4.2,1.9-4.4,5c-0.6,8.7-2.3,17.4-2.5,26.2
		c-0.4,17.2,0.2,34.5-0.2,51.7c-0.4,19.3,1.9,38,6.4,56.7C368.2,380.1,369,382,369.8,384.9z"/>
	<path class="st0" d="M255.7,190.4c2.1-4.4,1.9-8.9,2.1-13.5c0.2-5.8,0.2-11.6,0.2-17.4c0-27.4,6-53.4,17.2-78.1
		c0.8-1.7,1.5-3.3,2.5-4.8c3.1-4.8,7.1-6.2,12.5-4.6c3.3,1,4.6,2.9,3.7,6.4c-0.4,1.7-1.2,3.3-2.1,5c-7.3,16.4-12.9,33.4-16.2,51.1
		c-1.9,10-1.9,20.6-2.9,30.7c-0.8,7.7-1.5,15.6-2.9,23.3c-2.5,12-8.5,15.4-20.3,12c-10.6-2.9-16.2-10.6-18.9-20.6
		c-2.3-9.3-3.7-18.9-5.6-28.2c-0.6-2.9-1.2-5.8-1.9-9.1c-6.4-0.2-12.5-0.6-18.7-0.8c-1.9,3.7-3.5,7.3-5.2,10.6
		c-5.4,9.8-13.3,16-24.7,17.2c-8.3,0.8-15.2-1.7-20.6-8.7c-8.7-11.4-10.6-24.1-7.5-37.8c1.9-8.1,4.4-16,8.5-23.3
		c2.7-4.6,3.3-9.5,2.9-14.9c-0.4-4.4-0.6-8.9-0.4-13.5c0.2-11.2,5.2-20.6,13.1-28.2c6.6-6.4,14.7-6,22.8-3.5c5.4,1.7,9.3,5,12,9.8
		c2.9,5.2,4.8,10.6,5.4,16.4c1,10.2,1.7,20.6,0.4,30.7c-1,8.1-1.5,16.2-2.3,24.3c-0.2,2.5-1,4.8-1.7,7.5c3.3,3.1,7.5,3.7,11.8,3.1
		c2.5-0.2,2.9-2.1,2.9-3.9c-0.2-4.6-0.2-9.3-0.6-13.9c-1-12-1.7-23.9,0.6-35.7c0.6-3.5,1.5-7.3,2.9-10.6c2.5-6,8.9-7.1,13.3-2.1
		c1.7,2.1,2.5,5,3.7,7.5c0.2,0.6,0.2,1.7,0.2,2.5c-1.2,34.5,4.2,68.5,7.1,102.8c0.2,3.3,1.2,6.4,2.3,9.8
		C252.1,189.8,252.3,189.8,255.7,190.4z M194.2,116.7c0.6-2.7,1.5-5.2,1.7-7.5c0.6-11.8,1-23.9,1.2-35.7c0-5.6-0.8-11.2-3.5-16.4
		c-1.7-3.3-3.7-7.3-7.7-7.1c-3.7,0.2-6,3.9-7.5,7.3c-2.9,6.6-4.6,13.5-3.3,20.8c1,6.2,2.3,12.5,3.7,18.5c1.9,8.1,7.9,13.7,13.1,19.5
		C192.3,116.3,193,116.3,194.2,116.7z M172.6,158.8c8.9-5,13.9-12.2,16.6-21.4c0.6-2.3,0.2-3.9-1.5-5.6c-4.8-4.6-9.3-9.3-13.9-14.1
		c-1-1-2.5-2.1-3.7-2.9c-0.8,0.6-1.2,0.8-1.5,1.2c-4.6,12.5-6.2,25.1-0.4,37.6C169.1,155.5,171.2,157,172.6,158.8z"/>
	<path class="st0" d="M106.2,331.4c2.3-4.6,4.6-9.1,6.6-13.7c4.8-10.4,11.4-19.3,19.7-27.2c6.4-6,13.7-6.2,21.4-3.9
		c2.1,0.6,3.9,3.1,5.2,5c4.4,6.4,6,13.9,7.1,21.6c3.3,23.3,0,45.7-8.5,67.5c-2.1,5.2-4.4,10.4-6.9,15.4c-3.3,6.6-7.9,12.2-13.7,17
		c-1.9,1.5-3.3,3.3-5,5.2c2.7,3.5,6.2,3.9,10,3.5c5.4-0.6,10.8-1.5,16.2-2.3c0.6,0,1.2-0.2,1.9-0.4c1.9-0.2,3.7-0.2,4.8,1.9
		c0.8,1.9,0,3.7-1.5,5c-1.2,1-2.5,2.3-3.9,2.9c-9.1,3.7-18.5,6.4-28.6,5.2c-2.7-0.4-5.6-1-8.3-1.9c-1-0.2-2.3-1-3.3-1
		c-1.7,0-3.7-0.2-5,0.8c-0.6,0.4-0.2,3.1,0.4,4.6c2.5,6.2,4.4,12.5,8.5,17.9c2.3,2.9,1.5,5.2-1.9,6.6c-3.7,1.7-7.5,1.5-11-0.4
		c-10.4-5.8-18.1-13.9-21.8-25.5c-6-18.9-9.1-38-9.8-57.7c-0.6-18.5-0.8-37,0.8-55.2c0.8-9.8,2.5-19.3,6.9-28.4
		c2.1-4.4,5.4-6.4,10.4-6.2c3.3,0.2,5.6,1.7,7.3,4.6c2.1,3.7,2.5,7.9,2.3,12c-0.4,8.1-0.8,16.2-1.2,24.3c0,1,0.2,2.1,0.4,3.3
		C105.6,331.2,106,331.4,106.2,331.4z M112.6,407.3c1.7-1.5,2.3-1.9,2.7-2.5c1-1.2,1.9-2.7,2.9-4.2c16.4-26.4,23.3-55.8,27.8-85.9
		c0.8-5,0-9.8-2.1-14.7c-4.6,3.3-7.7,7.3-10.4,11.6c-6.6,10.8-11.8,22.2-14.7,34.7c-4.6,18.7-5.2,37.8-7.1,56.7
		C111.4,404,112.2,405.3,112.6,407.3z"/>
	<path class="st0" d="M285.8,360.8c-5.2,2.5-10.2,4.8-14.7,7.3c-2.7,1.5-2.9,4.2-2.9,6.9c0,9.5,0,18.9,0,28.4c0,5.4-0.2,11-0.8,16.4
		c-0.6,4.8-3.5,6.9-8.1,7.1c-2.5,0-4.2-1-4.6-3.5c-0.4-2.3-0.8-4.6-1-6.9c-1.2-19.3-3.1-38.8-2.3-58.1c0.8-20.3,4.4-40.3,11-59.6
		c3.5-10.6,8.7-20.6,15.8-29.1c2.3-2.7,5-5,8.5-5.6c8.1-1.7,16,2.9,18.5,11.4c1.2,3.9,1.7,8.1,2.1,12.2c1,14.5,1.9,29.1,2.9,43.8
		c1,13.5,2.3,27.2,4.2,40.7c0.8,6,3.1,11.8,5,17.6c2.5,7.5,0.4,10.6-7.5,11c-3.5,0.2-6.4-0.8-9.3-2.9c-4.6-3.5-8.1-7.9-9.8-13.5
		c-1.9-6.4-3.7-13.1-5.6-19.5C286.6,363.7,286.4,362.7,285.8,360.8z M271,352.5c4.4-1.2,8.9-2.7,12.9-3.7
		c-0.8-16.4-1.7-31.8-2.5-47.3c0-0.4-0.2-1-0.2-1.5l-0.4-0.4h-0.4C273.7,311,267.7,343.8,271,352.5z"/>
	<path class="st0" d="M202.3,314.5c0,24.1-1.5,47.3,2.3,71.4c1.5,0,3.1,0.2,4.6,0c5.2-0.4,10.2-1.2,15.4-1.7c1.9-0.2,3.7,0,5.4,0.4
		c1.9,0.4,3.1,1.7,3.3,3.7c0.2,2.1-0.8,3.5-2.7,4.2c-2.3,0.8-4.8,1.2-7.3,2.1c-4.4,1.2-8.5,2.5-12.9,3.7c-2.9,0.8-4.2,2.7-3.9,5.4
		c0.6,7.3,1,14.5,2.1,21.8c1.2,7.7,1.7,7.5,9.3,7.1c2.7-0.2,5.4-0.2,7.9-0.4c1.9,0,3.3,0.4,3.9,2.5c0.6,1.9-0.8,3.1-2.3,4.2
		c-0.6,0.4-1.5,0.6-2.3,1c-3.7,1.7-7.7,3.1-11.4,5c-5.6,2.7-11.4,3.1-17.4,1.7c-6-1.5-10-5.4-11.2-11.4c-1.5-7.1-2.9-13.9-3.5-21.2
		c-1.9-21.6-3.3-43-4.8-64.6c-0.6-10.8,0.2-21.6,3.1-32c0.6-1.9,1.2-3.7,2.1-5.6c1.5-3.1,3.9-4.8,7.3-5.4c2.3-0.4,4.4-1,6.6-1.9
		c10.4-4.2,21.2-5.4,32.2-5c1.9,0,3.9,0.8,5.6,1.9c2.7,1.7,2.5,4.8-0.4,6.2c-1.7,0.8-3.7,1.2-5.6,1.7c-6.4,1.2-13.1,2.5-19.5,3.9
		C206.5,313.1,204.6,313.9,202.3,314.5z"/>
	<path class="st0" d="M312.1,165.3c-0.8,5.4-1,10,1.5,14.7c2.5-0.4,5-0.6,7.5-1c3.9-0.4,7.7,0,11,2.1c3.1,1.7,2.9,4.4-0.2,6
		c-1.2,0.6-2.9,1-4.2,1.5c-4.4,1.2-8.3,2.9-12,5.6c-5.2,3.7-13.7,2.3-17.2-3.3c-2.5-3.9-4.8-8.3-5.4-12.7c-2.5-19.7-3.7-39.4,0.6-59
		c1.2-5.4,3.3-10.8,5.2-16c1.5-3.5,4.2-5.4,8.3-5c1.9,0.2,3.9-0.4,5.6-1.2c10-5,20.3-4.4,30.7-3.1c1.7,0.2,3.3,1,4.4,2.1
		s2.3,2.9,2.1,4.2c-0.4,1.5-2.1,3.1-3.5,3.5c-2.1,0.8-4.6,0.6-6.9,0.8c-6.6,0.4-13.3,0.6-19.9,1c-3.1,5.8-4.8,11.8-5.8,18.1
		c-1.2,6.6-1.9,13.5-2.5,20.1c-0.2,2.3,0.4,4.8,0.6,7.9c3.1-0.2,5.8-0.4,8.3-0.6c4.4-0.2,8.9-0.6,13.3-0.6c1.9,0,3.7,1,5.6,1.7
		c2.1,0.8,3.1,2.5,2.9,4.8c-0.2,2.5-1.9,3.9-4.8,4.4c-5,0.8-10.2,1.5-15.4,2.1C319,164,315.4,164.7,312.1,165.3z"/>
	<path class="st0" d="M126.9,212.2c5-3.3,10-6.4,14.7-9.8c3.1-2.3,6.6-2.7,10.4-2.3c2.1,0.2,3.7,1,3.9,3.1c0.2,1.5-0.8,3.1-1.7,4.4
		c-0.6,0.8-1.7,1.5-2.7,2.1c-3.9,3.1-8.1,5.8-11.8,9.1c-5.4,5-12,6.6-19.1,7.3c-3.7,0.4-6.6-1-8.3-4.2c-1.7-2.9-3.3-6.2-4.4-9.5
		c-6.2-22.2-10-45-8.5-68.3c0.8-13.7,2.7-27.4,5.8-40.9c0.4-1.5,0.6-2.9,1.2-4.4c1.5-4.2,3.5-5.4,7.5-5c4.2,0.4,7.1,2.9,7.3,6.9
		c0.2,4.2,0,8.3-0.2,12.5c-1.5,23.3-2.7,46.3-0.6,69.5C121.3,193.1,123.6,202.4,126.9,212.2z"/>
	<path class="st1" d="M220.6,249.8c0.2-7.7,2.1-14.7,6.6-21c2.7-3.7,6.4-6.2,11.2-6.6c2.7-0.2,5.2-0.8,7.9-1
		c5.8-0.6,9.8,1.9,12.7,6.9c3.9,6.9,4.6,14.1,2.5,21.6c-1.5,5-3.7,9.5-5.8,14.3c-0.6,1.5-1.9,2.9-3.1,3.7
		c-6.4,3.7-13.5,5.8-20.8,2.7c-7.1-2.9-10.6-8.7-11-16.4C220.8,252.5,220.6,251,220.6,249.8z M243.2,230.9
		c-6.2,6.6-8.9,14.5-7.9,23.5c0.2,1.2,0.6,2.5,1.5,3.7c2.3,3.7,6.2,3.7,8.1,0c3.1-6.6,5-13.7,3.3-21.2
		C247.6,234.2,246.3,231.9,243.2,230.9z"/>
	<path class="st1" d="M191.5,223.4c-2.7-0.8-4.8-1.2-6.9-1.9c-2.7-0.8-3.5-2.7-2.1-5c1.2-1.7,3.3-3.5,5.2-4.2
		c9.3-2.7,18.9-3.9,28.4-2.7c2.3,0.2,4.6,1,6.6,2.1c1.2,0.6,2.5,2.5,2.5,3.7c0.2,2.1-1.7,3.3-3.5,3.5c-2.3,0.4-4.6,0.4-6.9,0.6
		c-1.5,0-2.9,0.2-4.6,0.2c-1.7,6.6-2.7,13.1-2.9,19.7c-0.2,10.2-0.2,20.3-0.2,30.3c0,7.1-1.2,7.3-8.1,7.7c-3.9,0.2-6.6-1.9-8.1-5.6
		c-1.9-4.6-2.5-9.3-2.1-14.1c0.4-7.9,1-16,1.7-23.9C191.1,230.7,191.1,227.1,191.5,223.4z"/>
</g>
</svg>
