<?xml version="1.0" encoding="utf-8"?>
<!-- Generator: Adobe Illustrator 28.0.0, SVG Export Plug-In . SVG Version: 6.00 Build 0)  -->
<svg version="1.1" id="Layer_1" xmlns="http://www.w3.org/2000/svg" xmlns:xlink="http://www.w3.org/1999/xlink" x="0px" y="0px"
	 viewBox="0 0 300 300" style="enable-background:new 0 0 300 300;" xml:space="preserve">
<style type="text/css">
	.st0{fill:#141210;}
	.st1{fill:#231F20;}
	.st2{fill:#EBDEC6;}
	.st3{fill:#FFFFFF;}
	.st4{fill:#75866F;}
	.st5{fill:#EFE2C9;}
	.st6{fill:#EEE1C9;}
	.st7{fill:#ECE0C8;}
	.st8{fill:none;}
	.st9{fill:#DDB66A;}
	.st10{fill:#DAB469;}
	.st11{fill:#DCB56A;}
	.st12{fill:#EA856C;}
	.st13{fill:#E8846B;}
	.st14{fill:#EAB6B7;}
	.st15{fill:#E9B5B6;}
	.st16{fill:#778870;}
</style>
<g>
	<g>
		<g>
			<path class="st0" d="M73.88,127.83c-0.77-2.16-0.93-4.34-0.23-6.55c0.78-2.44,0.35-4.81-0.39-7.16c-0.9-2.84-1.69-5.7-1.87-8.69
				c-0.23-3.61,0.51-6.99,2.4-10.1c0.21-0.34,0.46-0.67,0.92-0.58c0.55,0.1,0.74,0.54,0.81,1.02c0.14,1.05,0.29,2.1,0.57,3.13
				c0.73,2.66,2.01,5.07,3.42,7.51c0-0.79,0.02-1.58,0-2.37c-0.06-2.59,0.12-5.19-0.1-7.78c-0.09-1.05,0.58-1.8,1.22-2.51
				c1.65-1.83,3.86-2.71,6.18-3.18c7.74-1.56,15.18-0.65,22.29,2.86c1.2,0.59,1.6,1.44,1.59,2.71c-0.04,4.85-0.02,9.71-0.01,14.56
				c0,0.25-0.07,0.51,0.01,0.65c12.29-6.01,24.5-5.7,36.77,0.11c0-0.16,0-0.41,0-0.66c0-9.29,0-18.58,0-27.87
				c0-0.21-0.02-0.43-0.02-0.62c-0.02-1.19,0.11-1.68,0.7-2.3c1.57-1.65,3.6-2.5,5.74-3.09c5.96-1.63,11.93-1.65,17.86,0.1
				c2.19,0.65,4.15,1.72,5.6,3.57c0.28,0.36,0.23,0.72,0.23,1.09c0.01,4.36,0.01,8.72,0.01,13.14c0.86-0.43,1.68-0.95,2.61-1.24
				c6.17-1.93,12.23-1.74,18.16,0.95c0.16,0.07,0.33,0.15,0.49,0.24c1.14,0.61,1.79,1.3,1.74,2.87c-0.16,6.15-0.06,12.3-0.06,18.45
				c0,0.25,0,0.51,0,0.88c1.27-0.7,2.48-1.24,3.78-1.58c1.46-0.38,2.94-0.62,4.44-0.72c0.48-0.03,0.52-0.19,0.42-0.6
				c-0.23-0.93-0.42-1.87-0.5-2.82c-0.09-1.05-0.03-2.09,0.38-3.05c0.28-0.66,0.09-0.83-0.55-0.97c-2.76-0.63-4.61-2.34-5.6-4.96
				c-0.27-0.71-0.44-1.47,0.35-2.03c0.24-0.17,0.03-0.33-0.01-0.47c-1.63-4.83-0.71-9.17,2.51-13.07c1.6-1.94,3.51-3.52,5.6-4.9
				c0.73-0.49,1.51-0.88,2.37-1.13c0.82-0.24,1.41,0.02,1.89,0.68c1.54,2.12,2.57,4.49,3.38,6.94c0.59,1.76,1.23,3.52,1.27,5.42
				c0.04,2.01-0.13,3.98-0.93,5.86c-0.08,0.18-0.18,0.35-0.14,0.59c0.66,3.43-0.96,6.19-4.23,7.36c-1.25,0.45-2.52,0.58-3.82,0.48
				c-0.46-0.03-0.59,0.13-0.74,0.53c-0.77,1.96-0.13,3.82,0.32,5.7c0.08,0.33,0.28,0.3,0.52,0.31c1.29,0.07,2.6,0.03,3.88,0.24
				c0.28,0.04,0.41-0.05,0.52-0.31c1.98-4.34,5.45-7.14,9.61-9.2c0.21-0.1,0.42-0.19,0.63-0.29c1.33-0.62,1.89-0.32,1.98,1.14
				c0.12,2.12-0.23,4.17-0.97,6.17c-0.63,1.71-1.65,3.16-2.84,4.5c-0.17,0.19-0.33,0.39-0.49,0.59c0.29,0.25,0.57,0.48,0.84,0.73
				c0.37,0.33,0.46,0.71,0.44,1.24c-0.06,2.39-0.03,4.77-0.04,7.16c0,0.32,0.16,0.48,0.4,0.6c1.88,0.88,3.4,2.25,5.02,3.5
				c1.06,0.82,2.92,0.52,3.7-0.59c0.21-0.29,0.01-0.4-0.15-0.57c-1.8-1.86-3.14-3.98-3.62-6.56c-0.25-1.32-0.45-2.66-0.1-4.01
				c0.27-1.05,1.05-1.81,2-1.91c0.87-0.09,1.82,0.54,2.2,1.54c0.31,0.82,0.54,1.67,0.83,2.5c0.09,0.26,0.18,0.63,0.49,0.64
				c0.34,0.01,0.35-0.38,0.44-0.64c0.36-1.02,0.7-2.05,1.06-3.07c0.24-0.68,0.62-1.25,1.2-1.68c0.98-0.72,2.04-0.45,2.55,0.68
				c0.41,0.92,0.35,1.85,0.07,2.8c-0.24,0.82-0.41,1.66-0.6,2.49c-0.05,0.2-0.08,0.4,0.1,0.67c0.52-0.59,1.03-1.14,1.49-1.7
				c0.6-0.73,1.28-1.35,2.14-1.76c0.79-0.38,1.58-0.56,2.32,0.08c0.61,0.54,0.78,1.66,0.43,2.53c-0.29,0.73-0.81,1.32-1.28,1.94
				c-0.29,0.39-0.63,0.75-0.76,1.21c0.8,0,1.59-0.05,2.38,0.01c1.57,0.11,2.3,1.43,1.6,2.83c-0.35,0.7-0.92,1.18-1.58,1.56
				c-1.98,1.14-4.13,1.56-6.4,1.61c-1.66,0.04-3.25-0.18-4.81-0.71c-0.21-0.07-0.43-0.23-0.63,0.04c-0.7,0.96-1.77,1.39-2.81,1.92
				c1.71,2.1,3.56,4.03,5.09,6.22c0.98,1.4,2.72,1.75,3.82,2.98c-0.28-1.27-0.59-2.49-0.67-3.75c-0.08-1.2-0.07-2.38,0.37-3.52
				c0.86-2.22,3.25-3.17,5.41-2.2c2.34,1.04,3.53,3.1,4.69,5.2c0.12,0.21,0.14,0.49,0.42,0.69c0.15-0.74,0.28-1.45,0.45-2.14
				c0.73-2.98,3.53-4.68,6.33-3.83c1.66,0.51,2.47,1.9,3.16,3.33c0.69,1.44,0.86,3.01,0.86,4.78c0.36-0.37,0.58-0.64,0.84-0.87
				c1.84-1.61,3.94-2.15,6.27-1.37c2.39,0.8,3.64,3.24,3.03,5.82c-0.53,2.21-1.92,3.86-3.64,5.26c-0.1,0.08-0.21,0.15-0.35,0.25
				c0.33,0.29,0.73,0.31,1.08,0.43c2.29,0.75,3.35,3.23,2.3,5.4c-0.79,1.63-2.02,2.83-3.69,3.5c-2.77,1.12-5.63,1.57-8.57,0.71
				c-0.52-0.15-0.76-0.09-0.93,0.49c-0.82,2.85-2.87,4.28-5.67,4.88c-1.23,0.26-2.47,0.3-3.71,0.29c-0.37,0-0.62,0.02-0.6,0.54
				c0.22,6.13-1.81,11.58-5.12,16.63c-1.96,2.99-4.33,5.61-6.97,8.03c1.6,0.6,2.82,0.42,4.25-0.45c1.62-0.98,2.95-2.27,4.29-3.57
				c1.93-1.89,4.02-3.59,6.37-4.94c2.2-1.27,4.52-1.74,7.02-1.18c0.95,0.21,1.31,1.02,0.67,1.64c-1.82,1.77-2.61,4.07-3.33,6.39
				c-0.51,1.64-1.16,3.2-2.19,4.59c-1.71,2.28-3.82,3.93-6.75,4.27c-1.04,0.12-1.92,0.54-2.72,1.22c-0.59,0.5-1.24,0.94-1.88,1.38
				c-2.19,1.49-4.61,1.65-7.15,1.35c-2.53-0.31-4.78-1.47-7.17-2.19c-0.77-0.23-1.53-0.49-2.31-0.66c-0.82-0.18-0.94-0.05-0.94,0.78
				c0.01,4.23,0.02,8.46,0.04,12.68c0,0.74-0.39,1.27-0.88,1.74c-1.28,1.23-2.91,1.79-4.59,2.12c-5.59,1.11-11.13,0.83-16.58-0.88
				c-0.91-0.29-1.78-0.69-2.62-1.15c-0.19-0.11-0.34-0.29-0.53,0.06c-1.07,1.92-5.46,4-12.22,3.72c-3.31-0.41-7.17-1.19-10.27-3.26
				c-0.36-0.24-0.56-0.06-0.83,0.08c-2.12,1.09-4.09,3.56-15.81,3.26c-3.67-0.29-8.24-1.18-12.39-3.66c-0.22-0.16-0.34-0.11-0.54,0
				c-3.73,2.21-7.85,3.16-12.08,3.71c-5.54,0.72-11.08,0.63-16.57-0.44c-2.93-0.57-5.78-1.39-8.34-3.01
				c-0.17-0.11-0.32-0.27-0.53-0.03c-1.55,1.82-3.71,2.52-5.9,3.02c-6.76,1.54-13.52,1.5-20.21-0.47c-1.55-0.45-3-1.15-4.13-2.36
				c-0.76-0.79-0.27-10.92-0.27-15.33c0-0.29,0.13-0.65-0.47-0.43c-3.23,1.22-4.55-0.17-5.55-2.68c-0.69-1.73-0.79-3.58-0.72-5.43
				c0.02-0.54,0.09-1.08,0.14-1.68c-0.4,0.06-0.64,0.33-0.91,0.54c-2.56,1.95-5.37,2.17-8.32,1.15c-2.15-0.75-3.02-2.86-2.23-5.24
				c0.76-2.3,2.52-3.73,4.49-4.96c0.32-0.2,0.71-0.3,1-0.69c-1.14-0.22-2.24-0.37-3.28-0.74c-1.65-0.59-3.14-1.47-4.43-2.65
				c-0.64-0.59-1.05-1.34-1.21-2.21c0.02-0.59-0.01-1.18,0.25-1.73c0.08-0.17,0.05-0.32-0.11-0.37c-0.26-0.08-0.19,0.16-0.21,0.28
				c-0.06,0.3-0.1,0.6-0.15,0.9c-1.34,6.05-5.78,9.47-11.19,10.43c-0.94,0.17-1.9,0.24-2.86,0.33c-0.72,0.07-1.11-0.38-0.93-1.14
				c1.05-4.24,2.84-7.96,6.88-10.23c2.07-1.16,4.21-2.06,6.53-2.55c0.12-0.03,0.24-0.09,0.39-0.14c-0.64-1.52-1.48-2.96-1.57-4.88
				c-1.07,1.9-2.66,2.72-4.45,3.11c-3.74,0.82-7.39,0.65-10.79-1.36c-0.83-0.49-1.63-1.01-2.3-1.71c-0.6-0.62-0.81-1.33-0.42-2.13
				c1.1-2.24,2.36-4.38,4.4-5.92c1.01-0.76,2.2-1.01,3.42-1.1c0.4-0.03,0.65-0.13,0.81-0.53c0.29-0.68,0.86-0.99,1.59-1.06
				c2.21-0.23,4.14,0.44,5.86,1.77c0.65,0.5,1.28,1.05,1.96,1.62c0.35-1.64,0.26-3.24-0.04-4.84c-0.48-2.62-1.39-5.05-3.1-7.15
				c-0.5-0.62-1.2-0.8-1.86-1.04c-1.86-0.66-3.75-0.96-5.72-0.43c-0.47,0.13-0.57,0.29-0.47,0.8c0.54,2.87,0.6,5.67-1.26,8.18
				c-1.35,1.82-3.1,3.02-5.35,3.43c-0.59,0.11-1.18,0.12-1.76-0.09c-1.35-0.48-1.71-1.96-0.69-2.98c0.52-0.53,1.19-0.82,1.83-1.16
				c1.45-0.76,1.78-1.05,2.18-1.92c-0.46-0.18-0.85,0.08-1.23,0.23c-1.15,0.45-2.28,0.99-3.5,1.24c-1.21,0.25-2.19-0.23-2.63-1.26
				c-0.39-0.92-0.02-1.91,1.04-2.56c0.88-0.53,1.83-0.95,2.72-1.48c0.43-0.25,1.1-0.58,0.94-1.1c-0.16-0.49-0.87-0.27-1.34-0.23
				c-1.21,0.1-2.42,0.24-3.65,0.18c-0.5-0.02-0.98-0.1-1.43-0.31c-1.14-0.55-1.41-1.81-0.6-2.79c0.28-0.34,0.59-0.67,1.01-0.84
				c2.3-0.92,4.57-1.92,7.14-1.88c2.46,0.04,4.36,1.12,5.99,2.83c0.18,0.19,0.25,0.41,0.6,0.31c1.5-0.43,3.02-0.37,4.6-0.22
				c-0.96-0.64-1.92-1.29-2.89-1.93c-0.04-0.03-0.1-0.03-0.14-0.06c-1.15-0.89-2.54-1.11-3.9-1.5c-3.63-1.03-5.56-3.76-6.44-7.22
				c-0.74-2.89-0.35-5.82,0.29-8.7c0.16-0.71,0.93-0.96,1.45-0.42c1.59,1.65,3.62,2.81,5.15,4.48c2.69,2.93,3.95,6.39,3.2,10.42
				c-0.04,0.2-0.09,0.41-0.19,0.58c-0.18,0.29-0.11,0.45,0.18,0.61c2.18,1.23,4.31,2.55,6.28,4.14c0.19-0.4,0.34-0.78,0.55-1.12
				c0.96-1.58,2.45-2.18,4.19-1.62c0.78,0.25,1.55-0.1,2.36,0.15c2.29,0.69,4.3,1.76,5.79,3.69c0.41,0.53,0.49,1.02,0.2,1.64
				c-0.59,1.29-1.22,2.61-2.6,3.15c-1.32,0.52-2.64,1.08-4.01,1.48c-0.63,0.18-1.27-0.03-1.96-0.16c0.19,1.11,0.54,2.1,0.64,3.16
				c0.26,2.86-0.01,5.69-0.29,8.53c-0.32,3.13,0.59,5.93,2.3,8.51c0.25,0.38,0.48,0.49,0.91,0.11c1.41-1.25,3.2-1.5,4.97-1.75
				c1.7-0.24,3.41-0.18,5.29,0.11c-0.95-0.88-1.78-1.64-2.6-2.41c-1.01-0.94-1.85-2.03-2.57-3.21c-1.39-2.27-1.18-5.2,0.5-6.91
				c1.69-1.73,4.74-1.92,6.95-0.42c1.64,1.11,3.13,2.38,4.38,3.94c0.23,0.29,0.51,0.54,0.85,0.78c-0.24-2.39,0.16-4.56,1.8-6.56
				c-1.58,0.29-3.02,0.44-4.39-0.03c-3.43-1.17-5.83-3.46-7.08-6.89c-0.4-1.09-0.75-2.2-1.13-3.29c-1.03-2.91-3.06-4.76-5.95-5.78
				c-2.12-0.75-4.29-1.37-6.25-2.49c-2.27-1.3-4.13-3.03-5.33-5.4c-0.2-0.4-0.42-0.83-0.1-1.23c0.31-0.4,0.79-0.37,1.22-0.22
				c3.12,1.15,6.27,0.71,9.44,0.21c3.49-0.54,6.66,0.1,9.23,2.71c1.23,1.25,1.97,2.84,2.83,4.35c0.68,1.21,1.61,2.15,2.84,2.79
				c1.89,0.99,3.68,2.11,4.8,4.03c0.06-0.02,0.13-0.04,0.19-0.05c0-0.94-0.07-1.88,0.02-2.8c0.12-1.26-0.36-2.19-1.13-3.16
				c-2.17-2.71-4.17-5.55-6.46-8.17c-2.39-2.73-4.83-5.42-7.49-7.91c-0.41-0.39-0.67-0.4-1.15-0.08c-2.52,1.69-5.22,2.9-8.31,3.18
				c-3.31,0.3-5.94-0.83-7.89-3.5c-0.27-0.36-0.42-0.53-0.9-0.3c-1.33,0.66-2.79,0.73-4.24,0.78c-3.5,0.13-6.95-0.1-10.19-1.58
				c-2.26-1.03-4.36-2.3-5.62-4.58c-0.77-1.39-1.04-2.85-0.64-4.41c0.59-2.32,2.12-3.64,4.52-3.95c1.68-0.22,3.36-0.21,5.15,0.03
				c-0.54-0.62-1.02-1.16-1.49-1.72c-1.92-2.3-2.54-4.94-1.94-7.85c0.37-1.8,1.73-2.85,3.59-2.97c2.28-0.15,4.35,0.49,6.33,1.53
				c0.07,0.08,0.15,0.12,0.23,0.05c0.02-0.02-0.03-0.11-0.05-0.18c-0.68-1.7-1.4-3.38-1.43-5.27c-0.08-4.41,3.57-6.56,7.46-5.34
				c1.96,0.61,3.36,1.99,4.55,3.6c0.28,0.38,0.54,0.78,0.92,1.34c0.08-1.13,0.12-2.04,0.35-2.94c0.77-3.08,4.15-5.08,7.19-4.65
				c3.94,0.56,6.7,2.73,8.11,6.47c1.68,4.46,1.68,8.96,0.13,13.46c-0.31,0.9-0.79,1.74-1.22,2.59c-0.16,0.31-0.14,0.55,0.03,0.86
				c1.85,3.34,1.78,6.65-0.15,9.95c-0.77,1.31-1.7,2.47-2.7,3.59c-0.24,0.27-0.24,0.43,0.03,0.67c3.09,2.74,5.84,5.81,8.61,8.86
				c0.06,0.07,0.13,0.13,0.19,0.2C74.03,128.07,73.94,127.95,73.88,127.83z M227.61,194.97c2.83-1.6,5.41-3.55,7.82-5.71
				c4.47-4.01,8.08-8.66,10.21-14.34c1.09-2.91,1.66-5.92,1.62-9.04c-0.01-0.51-0.04-0.88-0.77-0.95c-1.21-0.1-2.39-0.17-3.55-0.87
				c-2.96-1.81-4.36-4.45-4.68-7.78c-0.04-0.41-0.19-0.59-0.58-0.64c-0.24,3.04-2.27,4.91-4.49,6.85c1.96-0.12,3.61,0.29,5.05,1.38
				c1.43,1.09,2.52,2.42,2.07,4.35c-0.46,1.98-1.85,3.18-3.77,3.75c-1.2,0.35-2.43,0.43-3.78,0.12c0.58,0.84,1.01,1.63,1.3,2.47
				c0.07-0.01,0.1-0.01,0.11-0.02c0.09-0.09,0.18-0.19,0.26-0.28c1.9-2.21,4.46-2.86,7.21-3.1c0.4-0.03,0.79,0.03,0.95,0.49
				c0.15,0.43-0.05,0.77-0.36,1.03c-1.93,1.69-3,3.77-3.38,6.35c-0.38,2.6-1.59,4.79-4.21,5.93c-0.77,0.33-1.46,0.89-2.15,1.39
				c-1,0.72-1.69,1.66-1.9,2.91c-0.24,1.36-0.67,2.66-1.54,3.76c-0.49,0.63-1.04,1.21-1.57,1.81c-0.12,0.07-0.33,0.17-0.23,0.29
				C227.36,195.25,227.5,195.04,227.61,194.97z M228.34,131.13c0.1,1.48-0.2,2.78-0.64,4.06c-0.54,1.58-1.15,3.12-2.72,4
				c-0.3,0.17-0.22,0.44-0.22,0.68c0,1.89,0.01,3.79-0.01,5.68c0,0.39,0.11,0.68,0.38,0.97c1.02,1.09,1.57,2.4,1.84,3.86
				c0.21,1.15,0.1,2.3,0.08,3.58c0.83-0.78,1.64-1.41,2.59-1.83c0.94-0.42,1.9-0.76,2.92-0.92c-0.02-0.32-0.26-0.47-0.4-0.68
				c-1.5-2.23-2.33-4.64-1.64-7.33c0.53-2.07,1.6-3.77,3.95-4.2c0.39-0.07,0.79-0.1,1.34-0.16
				C233.42,136.09,231.53,133.12,228.34,131.13z M224.76,186.14c0.28-0.87,0.52-1.64,0.79-2.4c0.32-0.91,0.18-1.21-0.79-1.59
				C224.76,183.45,224.76,184.74,224.76,186.14z"/>
		</g>
		<path class="st0" d="M54.52,200.35c-1.65,0-2.97-0.37-4.29-0.78c-0.81-0.25-1.65-0.44-2.46-0.68c-0.84-0.25-1.06-0.98-0.43-1.51
			c2.26-1.89,4.46-3.89,7.3-4.9c3.52-1.25,7.08-1.67,10.68-0.25c1.07,0.42,1.24,0.86,0.62,1.83c-2.29,3.56-5.57,5.56-9.75,6.13
			C55.55,200.26,54.91,200.31,54.52,200.35z"/>
		<path class="st0" d="M72.55,199.51c0.04,3.38-1.53,5.72-3.84,7.67c-0.55,0.47-1.13,0.9-1.65,1.41c-0.3,0.3-0.67,0.48-1.12,0.29
			c-0.47-0.2-0.47-0.61-0.42-0.99c0.33-2.38,0-4.76,0.03-7.14c0.03-2.68,1.03-5.03,2.68-7.12c0.6-0.76,1.51-0.79,2.05-0.05
			C71.63,195.42,72.64,197.38,72.55,199.51z"/>
		<path class="st0" d="M235.5,213.71c-1.65,0-2.97-0.37-4.29-0.78c-0.81-0.25-1.65-0.44-2.46-0.68c-0.84-0.25-1.06-0.98-0.43-1.51
			c2.26-1.89,4.46-3.89,7.3-4.9c3.52-1.25,7.08-1.67,10.68-0.25c1.07,0.42,1.24,0.86,0.62,1.83c-2.29,3.56-5.57,5.56-9.75,6.13
			C236.53,213.63,235.88,213.68,235.5,213.71z"/>
		<path class="st0" d="M262.67,173.8c-2.65,2.1-5.46,2.3-8.41,1.66c-0.71-0.15-1.41-0.34-2.13-0.44c-0.42-0.06-0.79-0.23-0.92-0.71
			c-0.13-0.49,0.19-0.74,0.53-0.93c2.08-1.2,3.76-2.91,5.66-4.35c2.14-1.62,4.61-2.27,7.27-2.24c0.96,0.01,1.55,0.71,1.3,1.59
			C265.34,170.55,264.41,172.55,262.67,173.8z"/>
		<path class="st0" d="M51.96,213.34c-1.59,0.45-2.96,0.47-4.33,0.44c-0.85-0.02-1.7,0.04-2.56,0.03c-0.87-0.01-1.29-0.65-0.83-1.33
			c1.65-2.44,3.22-4.97,5.67-6.73c3.04-2.17,6.35-3.56,10.19-3.19c1.14,0.11,1.43,0.48,1.1,1.58c-1.22,4.06-3.82,6.89-7.68,8.58
			C52.93,212.97,52.32,213.2,51.96,213.34z"/>
		<path class="st0" d="M233.89,103.1c2.6-3.32,5.99-5.14,10.22-5.31c1.15-0.05,1.44,0.33,1.26,1.46c-0.6,3.82-2.77,6.68-5.63,9.08
			c-2.31,1.94-5.15,2.82-7.92,3.82c-0.78,0.28-1.29-0.29-1.09-1.13c0.2-0.83,0.47-1.64,0.66-2.47c0.31-1.34,0.67-2.66,1.5-4.09
			C233.13,104.15,233.5,103.61,233.89,103.1z"/>
		<path class="st0" d="M233.95,86.18c0.83-0.39,1.61,0.08,1.77,1.03c0.45,2.62,0.21,5.16-1.05,7.53c-1.11,2.1-2.53,4.04-3.39,6.29
			c-0.14,0.36-0.33,0.72-0.84,0.67c-0.49-0.05-0.72-0.38-0.85-0.8c-0.21-0.7-0.51-1.36-0.77-2.03c-1.1-2.82-1.35-5.62,0.29-8.57
			C230.08,88.38,231.9,87.14,233.95,86.18z"/>
		<path d="M111.04,252.35l-0.6-4.1c-0.13-1.17-0.68-2.06-1.48-2.56c-0.45-1.06-1.37-1.71-2.53-1.71c-0.6,0-1.2,0.18-1.81,0.55
			l-0.18,0.1c-0.76,0.42-1.8,1.01-3.05,1.01c-0.28,0-0.57-0.06-0.85-0.2c-0.17-0.46-0.29-1.02-0.29-1.74
			c0-4.19,0.52-11.18,0.99-15.21c0.12-0.79-0.11-1.57-0.64-2.19c-0.2-0.23-0.44-0.41-0.7-0.57c-0.11-0.28-0.25-0.55-0.46-0.78
			c-0.54-0.63-1.37-1-2.21-1h-4.07c-1.48,0-2.66,1.13-2.82,2.69c-0.66,6.48-0.86,12.99-0.91,19.29c-0.1-0.08-0.2-0.16-0.31-0.23
			c-0.45-1.06-1.37-1.71-2.53-1.71c-0.6,0-1.2,0.18-1.81,0.55l-0.18,0.1c-0.76,0.42-1.8,1.01-3.05,1.01c-0.28,0-0.57-0.06-0.85-0.2
			c-0.17-0.46-0.29-1.02-0.29-1.74c0-4.19,0.52-11.18,0.99-15.21c0.12-0.79-0.11-1.57-0.64-2.19c-0.2-0.23-0.44-0.41-0.7-0.57
			c-0.11-0.28-0.25-0.55-0.46-0.78c-0.54-0.63-1.37-1-2.21-1h-4.07c-1.48,0-2.66,1.13-2.82,2.69c-0.43,4.22-0.67,8.46-0.79,12.64
			c-0.62-3.22-1.5-6.88-2.8-11.15c-0.29-0.94-0.8-1.67-1.49-2.16c-0.66-1.3-1.88-2.02-3.51-2.02h-6.33c-1.91,0-3.27,0.97-3.81,2.74
			c-3.5,11.5-4.01,18.66-4.43,24.41l-0.07,0.9c-0.04,0.84,0.22,1.58,0.73,2.12c0.03,0.03,0.07,0.05,0.1,0.08
			c0.09,0.59,0.35,1.13,0.75,1.55c0.53,0.56,1.27,0.86,2.08,0.86h3.83c2.05,0,3.43-1.38,3.43-3.43c0-0.63,0.02-1.79,0.17-3.34h2.11
			c0.05,0.73,0.07,1.36,0.07,1.85c0,0.99,0.32,1.8,0.88,2.36c0.32,1.58,1.54,2.57,3.3,2.57h3.83c0.81,0,1.55-0.31,2.08-0.86
			c0.16-0.17,0.3-0.37,0.41-0.58c0.64,0.89,1.69,1.44,2.96,1.44h13.23c1.69,0,2.64-0.66,3.14-1.21c0.12-0.13,0.24-0.29,0.36-0.48
			c0.62,1.03,1.74,1.69,3.12,1.69h13.23c1.69,0,2.64-0.66,3.14-1.21C110.68,254.87,111.21,253.93,111.04,252.35z M58.83,243.16
			c0.11-0.78,0.55-2.7,0.66-3.42c0.11,0.75,0.19,2.59,0.29,3.4L58.83,243.16z"/>
		<g>
			<path d="M246.87,229.24c-2.28-3.45-5.94-5.31-10.76-5.31h-4.6c-1.45,0-2.66,1.16-2.82,2.69c-0.02,0.15-0.03,0.3-0.04,0.45
				c-0.27-0.53-0.64-0.94-1.11-1.24c-0.56-1.27-1.66-1.9-3.34-1.9H211.5c-1.33,0-2.42,0.93-2.74,2.26
				c-0.17-0.19-0.37-0.35-0.58-0.49c-0.42-1.03-1.43-1.77-2.61-1.77h-3.99c-1.54,0-2.75,1.18-2.81,2.7
				c-0.07-0.12-0.15-0.23-0.24-0.34c-0.2-0.23-0.44-0.41-0.7-0.57c-0.11-0.28-0.25-0.55-0.46-0.79c-0.54-0.63-1.37-1-2.21-1h-4.03
				c-1.48,0-2.66,1.13-2.82,2.69c-0.17,1.66-0.3,3.24-0.42,4.75c-0.6-1.62-1.42-2.93-2.49-3.93c-1.97-2.8-5.14-4.03-9.8-4.03h-0.04
				c-6.32,0-9.9,2.25-11.46,7.63c-0.58-1.45-1.36-2.62-2.34-3.55c-1.97-2.83-5.15-4.08-9.83-4.08h-0.04
				c-5.88,0-9.38,1.95-11.11,6.55c-0.4-0.83-0.95-1.57-1.63-2.2c-1.57-2.4-4.59-3.82-8.56-3.82h-7.14c-1.48,0-2.66,1.13-2.82,2.69
				c-0.98,9.7-0.94,16.88-0.9,22.12c0.01,1.23,0.02,2.34,0.01,3.33c0,0.79,0.32,1.5,0.84,2.02c0.24,1.43,1.48,2.52,2.98,2.52h8.03
				c5.07,0,8.82-2.23,10.15-5.78c0.01,0.01,0.01,0.02,0.02,0.03c1.8,4.36,5.33,6.23,11.13,6.23h0.04c6.48,0,10.12-2.33,11.69-7.89
				c0.25,0.61,0.52,1.17,0.83,1.68c1.8,4.35,5.33,6.21,11.12,6.21h0.04c5.48,0,8.94-1.67,10.82-5.55c0,0.17,0,0.35,0,0.51
				c-0.03,0.73,0.24,1.43,0.75,1.97c0.02,0.02,0.05,0.04,0.07,0.06c0.09,0.59,0.35,1.13,0.78,1.58c0.57,0.6,1.38,0.95,2.22,0.95
				h4.03c0.88,0,1.72-0.36,2.3-1c0.54-0.6,0.8-1.37,0.73-2.17c-0.16-1.71-0.22-3.4-0.25-5.05c0.31,1.06,0.53,2.29,0.54,3.71l0,0.03
				l0,0.03c0.04,0.78,0.36,1.46,0.85,1.96c0.27,1.45,1.47,2.5,2.96,2.5h3.99c1.11,0,2.08-0.61,2.6-1.5c0.53,0.9,1.49,1.5,2.6,1.5
				h14.64c0.89,0,2.17-0.11,3.05-1.1c0,0,0,0,0,0c0.56,0.67,1.38,1.1,2.32,1.1h7.06c7.58,0,12.1-5.64,12.1-15.09
				C250.78,236.22,249.39,232.05,246.87,229.24z M131.06,245.05c-0.22,0.4-0.83,0.58-1.15,0.65c-0.27,0.06-0.43-0.12-0.39-0.37
				c0.01-0.4,0-1,0.01-1.4c0.01-0.13,0.01-0.32,0.13-0.32c0.25-0.01,0.54,0.05,0.74,0.13c0.26,0.1,0.41,0.18,0.58,0.4
				C131.19,244.4,131.22,244.76,131.06,245.05z M138.3,240.3c0.42-0.32,0.81-0.68,1.17-1.1c0,0.06,0,0.12,0,0.18
				c0,0.76,0.02,1.49,0.05,2.18C139.16,241.1,138.76,240.68,138.3,240.3z M151.93,245.96c-0.22,0-0.48,0-0.75-0.09
				c-0.34-0.91-0.59-2.42-0.59-4.95c0-6.37,1.52-6.37,2.33-6.37c0.3,0,0.69,0,1.07,0.33c0.26,0.97,0.44,2.41,0.44,4.54
				C154.43,245.96,152.8,245.96,151.93,245.96z M175.6,245.96c-0.22,0-0.48,0-0.75-0.09c-0.34-0.91-0.59-2.42-0.59-4.95
				c0-6.37,1.52-6.37,2.33-6.37c0.3,0,0.69,0,1.07,0.33c0.26,0.97,0.44,2.41,0.44,4.54C178.1,245.96,176.48,245.96,175.6,245.96z
				 M207.77,246.24c-0.56-1.1-1.26-2.05-2.06-2.85c-0.46-0.65-0.97-1.22-1.53-1.72c1.54-1.15,2.83-2.9,3.77-5.06
				C207.79,240.31,207.77,243.5,207.77,246.24z M220.62,245.43c-0.66,0-1.57-0.02-2.02-0.03c0-0.09,0-0.18,0-0.29
				c0-0.86,0.19-1.08,0.19-1.08c0,0,0.07-0.04,0.29-0.04h0.61c0.55,0,1.26,0.29,1.95,0.57c0.46,0.19,0.93,0.37,1.41,0.5
				C222.49,245.26,221.74,245.43,220.62,245.43z M227.81,245.58c-0.44-0.71-1.09-1.09-1.75-1.22c0.05-0.05,0.1-0.09,0.14-0.15
				c0.33-0.43,0.69-1.19,0.54-2.33c-0.08-0.64-0.18-1.37-0.28-2.06l-0.12-0.9c-0.13-0.98-0.65-1.76-1.4-2.2
				c-0.42-1.04-1.37-1.7-2.57-1.7c-0.56,0-1.05,0.14-1.52,0.27c-0.52,0.15-1.06,0.3-1.83,0.3h-0.06c0.05-0.45,0.13-0.57,0.13-0.57
				c0,0,0.16-0.11,0.76-0.11h2.78c1.19,0,1.83,0.31,2.5,0.63l0.21,0.1c0.03,0.01,0.06,0.03,0.09,0.04c0.38,0.15,0.82,0.23,1.27,0.23
				c0.49,0,0.94-0.12,1.34-0.32C227.85,239.44,227.81,242.75,227.81,245.58z M238.89,244.96c0.05-3.22,0.17-7.17,0.4-10.25
				c0.14,0.1,0.28,0.23,0.41,0.38c0.29,0.96,0.49,2.29,0.49,4.13C240.19,242.32,239.61,244.02,238.89,244.96z"/>
		</g>
		<path class="st0" d="M127.76,97.51c0.45,1.59,0.47,2.96,0.44,4.33c-0.02,0.85,0.04,1.7,0.03,2.56c-0.01,0.87-0.65,1.29-1.33,0.83
			c-2.44-1.65-4.98-3.21-6.73-5.67c-2.17-3.04-3.56-6.35-3.19-10.19c0.11-1.14,0.48-1.43,1.58-1.1c4.06,1.22,6.89,3.82,8.58,7.68
			C127.39,96.54,127.62,97.15,127.76,97.51z"/>
		<path class="st0" d="M130.14,80.21c0.86,3.26-0.08,5.92-1.85,8.37c-0.42,0.59-0.87,1.15-1.25,1.78c-0.22,0.37-0.53,0.63-1.02,0.56
			c-0.5-0.08-0.6-0.47-0.64-0.86c-0.27-2.39-1.16-4.62-1.72-6.93c-0.63-2.61-0.23-5.13,0.86-7.56c0.4-0.88,1.27-1.13,1.97-0.55
			C128.24,76.46,129.7,78.11,130.14,80.21z"/>
		<path class="st0" d="M135.23,85.43c0.8-0.43,1.61-0.01,1.82,0.94c0.58,2.59,0.47,5.14-0.67,7.58c-1,2.16-2.33,4.16-3.06,6.45
			c-0.12,0.36-0.3,0.74-0.8,0.71c-0.49-0.03-0.74-0.35-0.88-0.75c-0.24-0.68-0.57-1.33-0.87-1.99c-1.24-2.76-1.63-5.55-0.14-8.57
			C131.47,87.82,133.23,86.49,135.23,85.43z"/>
		<path class="st0" d="M78.17,77.85c1.35,3.09,0.82,5.86-0.55,8.56c-0.33,0.65-0.69,1.27-0.97,1.94c-0.16,0.4-0.43,0.71-0.92,0.71
			c-0.51,0-0.67-0.38-0.77-0.75c-0.63-2.32-1.85-4.39-2.75-6.59c-1.01-2.49-1.01-5.04-0.3-7.6c0.26-0.93,1.08-1.31,1.87-0.85
			C75.72,74.44,77.41,75.85,78.17,77.85z"/>
		<path class="st0" d="M248.4,84.36c-0.5,3.34-2.42,5.4-5.02,6.95c-0.62,0.37-1.26,0.71-1.85,1.13c-0.35,0.25-0.74,0.37-1.15,0.11
			c-0.43-0.27-0.36-0.67-0.25-1.04c0.7-2.3,0.76-4.7,1.17-7.04c0.46-2.64,1.82-4.8,3.78-6.6c0.71-0.65,1.62-0.54,2.03,0.28
			C248.13,80.17,248.82,82.27,248.4,84.36z"/>
		<g>
			<g>
				<path class="st1" d="M78.61,56.92c-0.49,0.87-1,1.74-1.48,2.62c-0.88,1.59-1.74,3.18-2.61,4.77c-0.26,0.47-0.61,0.89-1.02,1.26
					c-0.89,0.81-2.06,0.89-2.64,0.1c-0.59-0.81-1.13-1.65-1.52-2.61c-0.53-1.29-1.18-2.52-1.89-3.75c-0.08,0.72-0.14,1.45-0.23,2.17
					c-0.17,1.42-0.09,2.8-0.3,4.23c-0.1,0.67-0.03,1.32-0.07,1.99c-0.07,1.28-0.19,2.57-0.24,3.84c-0.04,1.12-0.02,2.23-0.03,3.35
					c0,0.15,0.02,0.3,0.01,0.46c-0.07,0.88-0.8,1.69-1.61,1.81c-0.83,0.12-1.52-0.47-1.41-1.33c0.18-1.46,0.03-2.84,0.15-4.28
					c0.15-1.7,0.05-3.36,0.33-5.08c0.09-0.52-0.01-1,0.04-1.52c0.14-1.54,0.25-3.08,0.31-4.61c0.05-1.35,0.24-2.72,0.4-4.09
					c0.07-0.58,0.36-1.14,0.74-1.65c0.72-0.95,1.9-1.15,2.62-0.45c0.49,0.47,0.79,1.09,1.15,1.67c0.56,0.9,0.94,1.9,1.42,2.85
					c0.59,1.18,1.09,2.42,1.82,3.58c0.53-0.71,0.87-1.45,1.27-2.17c0.88-1.62,1.75-3.24,2.63-4.85c0.5-0.9,1.01-1.8,1.51-2.7
					c0.36-0.65,0.85-1.18,1.59-1.28c0.81-0.12,1.27,0.33,1.58,0.94c0.15,0.28,0.21,0.59,0.25,0.91c0.14,1.11,0.25,2.22,0.38,3.34
					c0.2,1.75,0.38,3.51,0.6,5.26c0.2,1.6,0.49,3.17,0.63,4.79c0.15,1.74,0.34,3.47,0.49,5.21c0.03,0.35,0.07,0.69,0.16,1.02
					c0.12,0.45,0.1,0.93-0.1,1.43c-0.25,0.63-0.74,0.98-1.36,1.14c-0.54,0.14-1.16-0.16-1.38-0.63c-0.1-0.21-0.18-0.46-0.19-0.7
					c-0.05-1.89-0.35-3.72-0.45-5.6c-0.06-1.1-0.28-2.16-0.41-3.24c-0.21-1.72-0.42-3.45-0.62-5.17c-0.12-1-0.33-1.98-0.33-3.02
					C78.73,56.91,78.67,56.92,78.61,56.92z"/>
				<path class="st1" d="M92.77,57.95c0.77-1.1,1.54-2.14,2.22-3.22c0.47-0.75,0.98-1.48,1.51-2.19c0.53-0.72,1.03-1.44,1.51-2.19
					c0.29-0.46,0.64-0.87,1.16-1.1c1.06-0.46,1.96,0.2,1.78,1.32c-0.07,0.45-0.25,0.86-0.55,1.21c-0.8,0.97-1.41,2.07-2.14,3.1
					c-1.03,1.47-2.06,2.95-3.09,4.44c-0.28,0.4-0.55,0.8-0.84,1.2c-0.2,0.27-0.25,0.55-0.26,0.86c-0.05,1.43,0.15,2.82,0.12,4.23
					c-0.02,1.29,0.13,2.55,0.08,3.84c-0.01,0.36-0.07,0.71-0.17,1.05c-0.18,0.6-0.68,1.03-1.26,1.13c-0.59,0.1-1.09-0.15-1.3-0.69
					c-0.1-0.26-0.17-0.54-0.19-0.83c-0.08-1.38-0.17-2.76-0.19-4.15c-0.02-1.52-0.09-3.04-0.13-4.55c-0.01-0.31-0.11-0.55-0.28-0.78
					c-0.81-1.05-1.6-2.09-2.41-3.13c-0.93-1.2-1.88-2.37-2.78-3.58c-0.65-0.87-0.24-2.02,0.86-2.49c0.64-0.28,1.16-0.1,1.54,0.35
					c0.39,0.45,0.77,0.91,1.11,1.4c0.93,1.33,1.99,2.54,2.97,3.83C92.28,57.31,92.51,57.6,92.77,57.95z"/>
				<path class="st1" d="M126.88,63.42c0.44-2.19,0.72-4.36,0.97-6.51c0.27-2.33,0.64-4.66,0.84-6.99c0.05-0.61,0.1-1.24,0.02-1.85
					c-0.11-0.79,0.3-1.52,1.33-1.8c0.75-0.2,1.47,0.32,1.72,1.16c0.13,0.42,0.07,0.85,0.02,1.28c-0.17,1.47-0.36,2.95-0.54,4.42
					c-0.04,0.35-0.06,0.7-0.07,1.05c-0.03,1.56-0.37,3.11-0.58,4.66c-0.25,1.82-0.53,3.64-0.83,5.45c-0.23,1.38-0.33,2.78-0.77,4.15
					c-0.24,0.76-0.6,1.37-1.45,1.51c-0.67,0.11-1.34-0.35-1.69-1.16c-1.07-2.47-2.19-4.92-3.43-7.3c-0.24-0.45-0.51-0.89-0.8-1.39
					c-0.35,0.44-0.36,0.92-0.56,1.33c-0.55,1.12-0.99,2.28-1.44,3.43c-0.47,1.2-0.92,2.42-1.36,3.64c-0.12,0.34-0.25,0.68-0.42,0.99
					c-0.38,0.71-1.05,1.11-1.74,1.07c-0.77-0.05-1.17-0.5-1.33-1.2c-0.07-0.33-0.12-0.68-0.16-1.02c-0.19-1.44-0.37-2.89-0.58-4.33
					c-0.12-0.89-0.27-1.78-0.42-2.66c-0.08-0.49-0.13-0.99-0.15-1.5c-0.03-0.71-0.22-1.4-0.32-2.1c-0.15-1.07-0.27-2.15-0.44-3.22
					c-0.15-0.97-0.34-1.92-0.5-2.88c-0.12-0.7-0.22-1.41-0.35-2.11c-0.07-0.36,0-0.7,0.13-1.03c0.29-0.77,0.81-1.15,1.56-1.16
					c0.67-0.01,1.22,0.47,1.32,1.19c0.06,0.47,0.07,0.95,0.16,1.42c0.28,1.61,0.59,3.21,0.78,4.85c0.16,1.37,0.43,2.71,0.57,4.08
					c0.09,0.86,0.24,1.72,0.39,2.58c0.11,0.67,0.11,1.36,0.28,2.09c0.28-0.63,0.58-1.16,0.77-1.73c0.39-1.21,1.05-2.32,1.44-3.53
					c0.18-0.55,0.5-1.05,0.84-1.53c0.8-1.1,1.94-1.23,2.83-0.34c0.74,0.75,1.21,1.68,1.69,2.6c0.7,1.37,1.39,2.75,2.09,4.12
					C126.74,63.24,126.81,63.32,126.88,63.42z"/>
				<path class="st1" d="M139.77,46.37c0.83-0.09,1.61-0.12,2.34-0.12c0.9-0.01,1.47,0.51,1.51,1.31c0.05,0.84-0.49,1.51-1.39,1.6
					c-0.72,0.07-1.44,0.18-2.18,0.17c-0.94-0.02-1.88,0.12-2.83,0.2c-0.19,0.02-0.31,0.12-0.3,0.31c0.01,1.26-0.76,4.98,0.88,5.12
					c0.56,0.05,1.1,0.1,1.68-0.02c0.63-0.14,1.33,0.36,1.49,0.95c0.2,0.7-0.09,1.45-0.73,1.82c-0.34,0.2-0.7,0.3-1.09,0.28
					c-0.54-0.03-1.07-0.05-1.61-0.07c-0.46-0.02-0.56,0.03-0.55,0.48c0.05,1.12-0.07,2.25-0.03,3.37c0.04,0.91,0.08,1.81,0.02,2.72
					c-0.05,0.72,0.06,0.8,0.81,0.79c1-0.01,1.99-0.26,2.98-0.32c0.42-0.03,0.8,0.03,1.17,0.22c0.85,0.45,1.13,1.61,0.14,2.4
					c-0.38,0.3-0.82,0.46-1.28,0.47c-1.67,0.05-3.34,0.34-5.01,0.41c-0.97,0.04-1.7-0.65-1.71-1.56c-0.01-1.68-0.08-3.36-0.08-5.05
					c0-1.15-0.08-2.3-0.1-3.45c-0.01-0.48,0.05-0.97,0.05-1.45c-0.03-2.84-0.29-5.75-0.06-8.58c0.07-0.89,0.57-1.38,1.51-1.61
					c0.87-0.22,1.77-0.25,2.65-0.32C138.68,46.39,139.34,46.42,139.77,46.37z"/>
				<path class="st1" d="M151.14,46.15c0.82-0.07,1.61-0.07,2.34-0.06c0.9,0.02,1.47,0.55,1.51,1.35c0.05,0.84-0.49,1.5-1.39,1.56
					c-0.72,0.05-1.44,0.14-2.18,0.11c-0.94-0.05-1.89,0.07-2.83,0.13c-0.19,0.01-0.31,0.12-0.31,0.3c0.01,1.26-0.76,4.95,0.88,5.14
					c0.56,0.06,1.1,0.13,1.68,0.02c0.63-0.12,1.33,0.4,1.5,0.99c0.2,0.71-0.09,1.44-0.73,1.8c-0.34,0.19-0.7,0.28-1.09,0.25
					c-0.54-0.04-1.07-0.08-1.61-0.11c-0.46-0.03-0.57,0.01-0.55,0.46c0.05,1.12-0.07,2.25-0.03,3.37c0.04,0.91,0.08,1.81,0.02,2.72
					c-0.05,0.72,0.06,0.8,0.81,0.81c1,0.02,1.99-0.2,2.98-0.24c0.42-0.01,0.8,0.05,1.17,0.25c0.85,0.47,1.13,1.64,0.14,2.4
					c-0.38,0.29-0.82,0.44-1.28,0.44c-1.67,0.01-3.34,0.24-5.01,0.27c-0.97,0.01-1.7-0.7-1.71-1.61c-0.01-1.68-0.08-3.37-0.08-5.05
					c0-1.15-0.08-2.3-0.1-3.45c-0.01-0.48,0.05-0.97,0.05-1.45c-0.03-2.84-0.29-5.75-0.06-8.58c0.07-0.89,0.57-1.36,1.51-1.57
					c0.88-0.19,1.77-0.2,2.66-0.25C150.06,46.13,150.72,46.18,151.14,46.15z"/>
				<path class="st1" d="M159.85,51.87c1.82-1.12,3.42-2.45,5.15-3.59c0.36-0.23,0.7-0.49,1.1-0.64c0.68-0.25,1.35-0.05,1.74,0.49
					c0.39,0.55,0.35,1.22-0.12,1.78c-0.12,0.14-0.25,0.28-0.4,0.38c-0.98,0.67-1.89,1.45-2.93,2.05c-0.16,0.09-0.33,0.18-0.48,0.29
					c-0.9,0.66-1.79,1.33-2.73,2.04c0.25,0.31,0.47,0.61,0.72,0.88c0.92,1,1.7,2.12,2.61,3.12c1.29,1.41,2.37,2.98,3.69,4.38
					c0.58,0.61,1.01,1.36,1.54,2.02c0.54,0.68,0.42,1.57-0.16,2.02c-0.62,0.48-1.52,0.35-2.1-0.34c-0.93-1.11-1.91-2.17-2.8-3.3
					c-0.9-1.16-1.89-2.24-2.84-3.36c-0.68-0.8-1.35-1.6-2.13-2.52c-0.02,1.21-0.03,2.27-0.06,3.32c-0.03,1.12-0.01,2.25-0.04,3.37
					c-0.02,0.9-0.09,1.82-0.06,2.72c0.01,0.35-0.03,0.7-0.23,1c-0.3,0.46-0.73,0.74-1.28,0.7c-0.56-0.03-1.04-0.3-1.29-0.85
					c-0.12-0.27-0.21-0.55-0.19-0.86c0.04-0.86-0.04-1.71,0.04-2.57c0.05-0.61-0.07-1.23-0.02-1.84c0.1-1.25,0.01-2.51,0.04-3.76
					c0.08-3.19,0.06-6.38,0.11-9.57c0.01-0.66,0.09-1.32,0.02-2c-0.07-0.63,0.17-1.22,0.79-1.55c1.01-0.55,2.16,0.11,2.28,1.32
					c0.01,0.13,0.01,0.27-0.01,0.4c-0.19,1.41,0.05,2.83-0.05,4.25C159.78,51.72,159.81,51.77,159.85,51.87z"/>
				<path class="st1" d="M178.02,46.86c0.82-0.02,1.61,0.03,2.34,0.09c0.9,0.08,1.46,0.64,1.51,1.45c0.05,0.84-0.49,1.47-1.39,1.47
					c-0.72,0-1.44,0.05-2.18-0.04c-0.94-0.11-1.88-0.05-2.82-0.06c-0.19,0-0.31,0.1-0.3,0.28c0.01,1.26-0.76,4.9,0.88,5.2
					c0.56,0.1,1.1,0.21,1.68,0.13c0.63-0.08,1.33,0.49,1.49,1.08c0.2,0.72-0.09,1.44-0.73,1.75c-0.34,0.16-0.7,0.23-1.09,0.18
					c-0.54-0.08-1.07-0.15-1.6-0.22c-0.46-0.06-0.56-0.02-0.55,0.43c0.05,1.13-0.07,2.24-0.03,3.37c0.04,0.91,0.08,1.82,0.02,2.72
					c-0.05,0.72,0.06,0.8,0.81,0.86c1,0.08,1.98-0.07,2.98-0.04c0.42,0.01,0.8,0.1,1.17,0.33c0.85,0.52,1.13,1.72,0.14,2.41
					c-0.38,0.27-0.82,0.38-1.28,0.36c-1.67-0.1-3.33,0.03-5.01-0.06c-0.97-0.05-1.7-0.81-1.71-1.72c-0.01-1.68-0.08-3.37-0.08-5.06
					c0-1.15-0.08-2.3-0.1-3.45c-0.01-0.48,0.05-0.96,0.05-1.44c-0.03-2.84-0.29-5.77-0.06-8.59c0.07-0.89,0.57-1.32,1.51-1.47
					c0.87-0.13,1.77-0.09,2.65-0.08C176.93,46.78,177.59,46.87,178.02,46.86z"/>
				<path class="st1" d="M195.03,63.93c0.24-1.45,0.48-2.91,0.72-4.36c0.14-0.86,0.3-1.71,0.44-2.57c0.32-2.08,0.64-4.17,0.95-6.25
					c0.1-0.66,0.42-1.12,1.11-1.21c1.02-0.13,1.96,0.83,1.82,1.86c-0.15,1.12-0.34,2.24-0.5,3.36c-0.22,1.51-0.41,3.03-0.65,4.54
					c-0.25,1.59-0.57,3.15-0.81,4.74c-0.16,1.07-0.36,2.13-0.59,3.17c-0.11,0.49-0.3,0.94-0.54,1.37c-0.73,1.26-2.28,1.19-3.14-0.14
					c-0.71-1.09-1.18-2.28-1.74-3.43c-0.6-1.25-1.14-2.53-1.69-3.79c-0.85-1.93-1.86-3.79-2.58-5.76c-0.19-0.52-0.58-0.95-0.75-1.62
					c-0.19,0.39-0.09,0.71-0.12,0.99c-0.04,0.32-0.05,0.64-0.1,0.95c-0.22,1.39-0.16,2.81-0.28,4.22c-0.11,1.29-0.2,2.59-0.12,3.92
					c0.06,0.91-0.03,1.82-0.11,2.72c-0.13,1.53-2.14,2.03-2.77,0.36c-0.19-0.49-0.18-1.02-0.17-1.53c0.11-5.23-0.2-11.19,0.97-16.23
					c0.06-0.31,0.13-0.62,0.29-0.89c0.39-0.66,1.21-0.89,1.94-0.53c0.61,0.3,1.14,0.71,1.43,1.36c0.77,1.69,1.65,3.33,2.3,5.06
					c0.42,1.11,1,2.16,1.49,3.25c0.59,1.31,1.15,2.64,1.76,3.95c0.39,0.85,0.84,1.68,1.26,2.52
					C194.93,63.94,194.98,63.93,195.03,63.93z"/>
				<path class="st1" d="M202.1,63.93c0-1.77,0-3.54,0-5.31c0-1.74-0.03-3.48,0.02-5.21c0.03-1.17-0.07-2.36,0.13-3.5
					c0.16-0.9,0.67-1.38,1.59-1.3c1.97,0.15,3.86,0.74,5.6,1.88c1.82,1.18,3.28,2.71,4.36,4.65c1,1.81,1.57,3.65,1.61,5.56
					c0.04,2.13-0.43,4.05-1.57,5.73c-1.49,2.2-3.59,3.62-5.95,4.78c-0.62,0.31-1.27,0.52-1.93,0.73c-0.6,0.19-1.24,0.2-1.88,0.17
					c-0.5-0.03-0.95-0.26-1.29-0.71c-0.43-0.56-0.72-1.15-0.72-1.83c0-1.88,0-3.76,0-5.64C202.08,63.92,202.09,63.92,202.1,63.93z
					 M205.11,68.82c0.07,0.03,0.1,0.05,0.12,0.04c0.1-0.02,0.2-0.04,0.3-0.07c1.45-0.49,2.76-1.2,3.91-2.14
					c0.75-0.62,1.44-1.33,1.95-2.17c0.82-1.34,1.18-2.87,1.02-4.57c-0.26-2.75-1.47-5.05-3.92-6.69c-0.52-0.35-1.07-0.63-1.6-0.96
					c-0.32-0.2-0.65-0.3-1.01-0.34c-0.67-0.07-0.69-0.08-0.7,0.57c-0.02,0.88,0,1.77-0.01,2.65c-0.02,1.36-0.09,2.71-0.09,4.07
					c0,0.78,0.06,1.57,0.02,2.33c-0.1,2.13,0.02,4.29-0.07,6.43C205.01,68.26,204.97,68.56,205.11,68.82z"/>
				<path class="st1" d="M224.2,72.84c-0.13-1.37,0-2.85-0.12-4.3c-0.1-1.27,0.03-2.5-0.06-3.77c-0.1-1.39-0.07-2.79-0.09-4.18
					c-0.02-1.61-0.19-3.24-0.29-4.86c-0.01-0.22-0.03-0.44-0.02-0.65c0.04-0.81,0.62-1.34,1.39-1.27c0.71,0.06,1.43,0.79,1.55,1.63
					c0.09,0.65,0.12,1.3,0.18,1.95c0.41,4.72,0.05,9.31,0.33,14.01c0.05,0.86,0.03,1.71,0.15,2.59c0.1,0.72-0.18,1.24-0.8,1.47
					c-0.86,0.32-1.84-0.32-2.14-1.36C224.15,73.69,224.24,73.3,224.2,72.84z"/>
				<path class="st1" d="M236.39,71.58c-0.01-0.17-0.03-0.33-0.05-0.5c-0.65-4.2-6.38-8.21-5.27-12.32
					c0.64-2.35,3.26-3.15,5.67-2.22c2.01,0.77,3.69,2.7,4.25,4.8c0.31,1.14-0.39,1.86-1.43,1.53c-0.33-0.11-0.61-0.31-0.83-0.6
					c-0.29-0.38-0.55-0.77-0.73-1.21c-0.47-1.16-1.38-1.65-2.42-1.85c-0.8-0.15-1.33,0.22-1.64,0.87c-0.17,0.37-0.13,0.8,0.12,1.25
					c0.87,1.57,2.13,2.91,3.04,4.48c1.15,1.97,1.92,4.02,2.23,6.14c0.19,1.29-0.14,2.49-0.77,3.47c-0.49,0.76-1.35,1.06-2.21,1.31
					c-1.57,0.46-3.18,0.07-4.79-0.88c-1.01-0.6-1.77-1.53-2.5-2.45c-0.34-0.44-0.66-0.9-0.89-1.4c-0.37-0.8-0.21-1.54,0.38-1.87
					c0.59-0.33,1.38-0.09,1.95,0.63c0.85,1.08,1.38,2.17,2.68,2.77c1,0.46,2.18,0.46,2.78-0.26
					C236.32,72.83,236.43,72.22,236.39,71.58z"/>
			</g>
		</g>
	</g>
	<path class="st2" d="M217.49,122.98c-0.05-0.08,0.41,0,0.52,0.02c1.78,0.24,3.39,0.84,5.02,1.55c0.61,0.27,0.14,0.94,0.23,1.47
		c-1.72-1.26-3.92-1.52-5.57-2.88L217.49,122.98z"/>
	<path class="st3" d="M41.84,94.82c0.02,0.06,0.07,0.16,0.05,0.18c-0.08,0.07-0.17,0.03-0.23-0.05
		C41.72,94.9,41.78,94.86,41.84,94.82z"/>
	<path class="st4" d="M219.59,132.27c-0.03,0.02-0.06,0.04-0.09,0.05c0.02-0.03,0.03-0.06,0.05-0.09
		C219.56,132.23,219.59,132.27,219.59,132.27z"/>
	<g>
		<path class="st5" d="M110.61,163.41c0-13.83,0.01-27.66-0.02-41.49c0-0.68,0.22-1,0.83-1.27c2.09-0.91,4.31-1.31,6.53-1.66
			c2.94-0.47,5.87-1.04,8.87-0.88c3.93,0.22,7.85,0.54,11.74,1.17c2.83,0.46,5.53,1.33,8.21,2.27c0.52,0.18,0.7,0.43,0.7,1
			c-0.02,8.35-0.01,16.71-0.01,25.06c0,18.74-0.01,37.48,0.02,56.22c0,0.72-0.22,1.05-0.86,1.28c-2.76,0.99-5.56,1.79-8.53,1.89
			c-2.59,0.08-5.18,0.34-7.78,0.28c-3.81-0.08-7.63-0.13-11.43-0.33c-2.5-0.13-4.98-0.59-7.45-1.05c-0.67-0.12-0.84-0.43-0.84-1.09
			c0.03-5.73,0.02-11.47,0.02-17.2C110.61,179.54,110.61,171.47,110.61,163.41z M118.51,160.44c0.01,0,0.02,0,0.03,0
			c0,7.45,0,14.89,0,22.34c0,1.44,0.09,1.57,1.52,1.58c5.81,0.02,11.63,0.02,17.44,0.02c0.88,0,1.21-0.3,1.32-1.18
			c0.04-0.31,0.03-0.62,0.03-0.93c0-10.54,0-21.07,0-31.61c0-3.97,0-7.94,0-11.91c0-1.66-0.19-1.85-1.8-1.84
			c-5.5,0.01-11,0.03-16.51,0.03c-0.28,0-0.58,0-0.84-0.08c-0.84-0.23-1.2,0.02-1.2,0.92C118.51,145.34,118.51,152.89,118.51,160.44
			z"/>
		<path class="st5" d="M180.35,155.26c0-17.9,0-35.81-0.02-53.71c0-0.76,0.25-1.25,0.83-1.71c2.05-1.63,4.97-1.95,7.24-1.92
			c3.63,0.07,5.76,1.38,6.97,2.16c0.38,0.24,0.32,0.55,0.32,0.87c0,7.16,0,14.32,0,21.48c0,19.04,0,38.09,0.01,57.13
			c0,0.6-0.14,1.08-0.49,1.58c-1.23,1.77-2.09,3.75-3.1,5.65c-0.19,0.36-0.26,0.75,0,1.1c0.28,0.37,0.68,0.3,1.07,0.22
			c0.56-0.11,1.14-0.13,1.68-0.31c0.76-0.25,0.84,0.04,0.84,0.72c-0.02,6.43-0.02,12.87-0.01,19.3c0,0.57,0.03,1.08,0,1.72
			c0.06,0.31-0.16,0.47-0.32,0.64c-0.95,1.02-2.12,1.27-3.4,1.41c-2.84,0.3-5.7,0.3-8.52-0.25c-0.91-0.18-1.8-0.48-2.57-1.04
			c-0.36-0.26-0.53-0.55-0.53-1.03C180.36,191.27,180.35,173.27,180.35,155.26z"/>
		<path class="st5" d="M148.89,131.37c0-4.05,0.01-8.09-0.01-12.14c0-0.55,0.13-0.74,0.68-0.63c4.41,0.85,8.87,0.77,13.33,0.71
			c3.24-0.05,6.48-0.13,9.7-0.57c0.95-0.13,1.9-0.27,2.83-0.47c0.53-0.12,0.66,0.01,0.66,0.54c-0.02,3.27-0.01,6.54-0.01,9.81
			c0,4.75-0.01,9.5,0.01,14.24c0,0.58-0.15,0.81-0.73,0.9c-3,0.49-6,0.83-9.05,0.81c-3.27-0.03-6.54-0.03-9.81-0.02
			c-2.31,0.01-4.61-0.15-6.92-0.23c-0.61-0.02-0.7-0.26-0.69-0.8C148.9,139.46,148.89,135.41,148.89,131.37z"/>
		<path class="st6" d="M148.89,193.14c0-6.2,0.01-12.4-0.01-18.61c0-0.51,0.06-0.77,0.67-0.67c3.16,0.51,6.36,0.49,9.54,0.59
			c3.86,0.12,7.73,0.14,11.6,0.02c1.59-0.05,3.14-0.35,4.69-0.63c0.54-0.1,0.71,0.01,0.71,0.59c-0.02,12.43-0.02,24.86,0,37.29
			c0,0.48-0.16,0.75-0.58,0.97c-2.74,1.44-5.57,2.62-8.71,2.85c-6.13,0.35-8.34,0.05-10.17-0.3c-2.47-0.48-4.91-1.03-7.12-2.33
			c-0.42-0.25-0.63-0.48-0.63-1.01C148.9,205.65,148.89,199.4,148.89,193.14z M154.66,195.61c0.01,0,0.02,0,0.02,0
			c0,4.62,0,9.23,0,13.85c0,1.17,0.22,1.43,1.41,1.61c0.59,0.09,1.18,0.21,1.77,0.22c3.16,0.05,6.31,0.5,9.47,0.06
			c0.86-0.12,1.84-0.1,2.15-1.26c0.1-0.36,0.11-0.71,0.11-1.07c0-9.08-0.01-18.16,0.02-27.23c0-0.78-0.25-1.14-0.99-1.28
			c-2.59-0.48-5.21-0.56-7.82-0.49c-1.78,0.05-3.55,0.34-5.33,0.51c-0.62,0.06-0.82,0.42-0.82,1
			C154.67,186.22,154.66,190.92,154.66,195.61z"/>
		<path class="st5" d="M176.06,101.87c0,3.01-0.02,6.02,0.02,9.02c0.01,0.62-0.19,0.75-0.78,0.81c-4.62,0.41-9.27,0.45-13.9,0.73
			c-3.78,0.23-7.56,0.2-11.33-0.28c-1.18-0.15-1.18-0.16-1.18-1.31c0-5.89,0.02-11.77-0.02-17.66c-0.01-0.8,0.24-1.14,1-1.32
			c3.65-0.82,7.85-1.08,11.64-1.08c3.34,0,5.72,0.14,8.89,0.45c1.6,0.15,3.22,0.37,4.87,0.69c0.66,0.07,0.82,0.37,0.82,1.01
			C176.04,95.91,176.06,98.89,176.06,101.87z"/>
		<path class="st5" d="M148.89,159.49c0-3.03,0.02-6.07-0.02-9.1c-0.01-0.62,0.18-0.71,0.74-0.67c6.44,0.45,12.89,0.69,19.35,0.61
			c2.17-0.02,4.35-0.19,6.49-0.55c0.53-0.09,0.62,0.07,0.62,0.54c-0.01,5.91-0.01,11.82,0,17.74c0,0.4-0.12,0.56-0.53,0.68
			c-2.37,0.67-4.78,0.88-7.22,0.89c-4.15,0.03-8.3-0.02-12.44-0.21c-2.05-0.09-4.09-0.07-6.14-0.07c-0.65,0-0.88-0.11-0.86-0.83
			C148.92,165.51,148.89,162.5,148.89,159.49z"/>
		<path class="st6" d="M148.89,86.41c0-1.56,0.01-3.14,0-4.72c0-0.59,0.43-0.86,0.81-1.16c1.48-1.19,3.22-1.87,5.04-2.33
			c5.94-1.49,11.84-1.48,17.65,0.63c1.2,0.44,2.3,1.06,3.19,2.01c0.32,0.34,0.49,0.71,0.49,1.18c-0.01,1.14-0.01,2.28,0,3.42
			c0,0.38-0.03,0.56-0.51,0.4c-2.46-0.83-5.03-1-7.59-1.08c-4.51-0.14-7.55-0.1-12.05,0.22c-1.73,0.12-4.89,0.82-6.54,1.36
			C149.24,86.41,149.1,86.5,148.89,86.41z"/>
		<path class="st7" d="M90.86,104.76c-1.99-0.15-5.63,0.01-9.26-0.21c-0.53-0.03-0.68-0.18-0.68-0.72c0.01-2.1-0.01-2.11,2.07-2.38
			c2.24-0.29,4.49-0.34,6.74-0.49c2.84-0.19,5.68-0.5,8.54-0.44c3.52,0.07,7.03,0.4,10.54,0.76c0.3,0.03,0.41,0.16,0.4,0.44
			c-0.01,0.47,0,0.93,0,1.4c0,1.15,0,1.12-1.18,1.23C102.86,104.89,97.67,104.94,90.86,104.76z"/>
		<path class="st7" d="M80.94,201.27c3.62,1.17,7.32,1.06,10.98,1.21c3.91,0.15,7.83,0.1,11.73-0.3c1.7-0.17,3.4-0.34,5.04-0.84
			c0.42-0.13,0.59-0.06,0.54,0.39c-0.01,0.05,0,0.1,0,0.16c-0.02,0.7,0.2,1.53-0.12,2.05c-0.33,0.54-1.26,0.45-1.93,0.61
			c-4.62,1.11-9.32,1.58-14.07,1.73c-3.97,0.13-7.85-0.36-11.71-1.16c-0.3-0.06-0.46-0.15-0.46-0.49
			C80.94,203.52,80.94,202.41,80.94,201.27z"/>
		<path class="st7" d="M215.98,154.92c-1.64-1.33-3.23-2.43-5.14-2.96c-0.87-0.24-1.72-0.37-2.6-0.14c-0.39,0.1-0.49,0.01-0.49-0.39
			c0.01-5.34,0.01-10.69,0-16.03c0-0.39,0.15-0.49,0.51-0.48c0.67,0.02,1.35,0.01,2.1,0.01c-0.19,0.92-0.39,1.79-0.5,2.67
			c-0.14,1.14-0.01,2.22,0.34,3.29c0.21,0.67,0.39,1.34,0.5,2.03c0.15,0.93,0.46,1.22,1.44,1.32c1.12,0.11,2.23-0.02,3.32-0.21
			c0.37-0.06,0.52-0.04,0.52,0.38C215.97,147.85,215.98,151.3,215.98,154.92z"/>
		<path class="st7" d="M240.17,129.73c-1.78,0.27-3.44-0.53-5.14-1.01c-0.7-0.19-1.1-1-1.53-1.6c-1.52-2.09-2.33-4.43-2.2-7.05
			c0.03-0.64,0.02-1.48,0.8-1.58c0.75-0.1,0.81,0.74,0.99,1.28c0.24,0.74,0.41,1.5,0.77,2.19c0.38,0.73,0.92,1.3,1.8,1.26
			c0.87-0.04,1.3-0.68,1.57-1.42c0.34-0.95,0.65-1.91,0.98-2.86c0.09-0.27,0.17-0.55,0.32-0.79c0.19-0.31,0.36-0.86,0.78-0.7
			c0.33,0.12,0.36,0.67,0.32,1.05c-0.05,0.41-0.17,0.81-0.3,1.2c-0.28,0.84-0.45,1.7-0.56,2.57c-0.12,0.95,0.25,1.74,0.87,1.99
			c0.71,0.28,1.44-0.02,2.11-0.75c0.82-0.89,1.45-1.98,2.54-2.6c0.3-0.18,0.68-0.59,1.02-0.22c0.31,0.34,0.11,0.8-0.13,1.15
			c-0.5,0.72-1.04,1.42-1.54,2.14c-0.35,0.52-0.62,1.08-0.58,1.73c0.04,0.71,0.41,1.11,1.13,1.09c0.75-0.03,1.49-0.15,2.24-0.19
			c0.35-0.02,0.81-0.12,0.97,0.29c0.16,0.41-0.16,0.76-0.47,0.99c-1.2,0.9-2.57,1.43-4.04,1.67
			C242.01,129.72,241.13,129.8,240.17,129.73z"/>
		<path class="st7" d="M95,116.88c-3.59,0.08-7.67,0.08-11.32-0.21c-0.72-0.06-2.65-0.21-2.71-0.25c-0.08-0.57-0.02-1.32-0.02-2.14
			c-0.02-0.45,0.32-0.38,0.58-0.36c6.07,0.32,12.11-0.07,18.18,0.03c3.01,0.05,6.03,0.01,9.04-0.08c0.16,0,0.4-0.11,0.42,0.19
			c0.03,0.54,0.05,1.09,0.05,1.63c0,0.26-0.1,0.55-0.3,0.62C107.77,116.65,98.68,116.8,95,116.88z"/>
		<path class="st2" d="M42.95,147.42c0,3.71-2.31,6.58-5.77,7.32c-0.13,0.03-0.25,0.07-0.38,0.07c-0.36,0-0.82,0.09-0.94-0.33
			c-0.11-0.39,0.33-0.53,0.61-0.7c0.84-0.52,1.75-0.89,2.54-1.5c0.61-0.47,1.1-1.03,1.32-1.78c0.36-1.22-0.4-2.12-1.67-2
			c-0.89,0.09-1.69,0.48-2.5,0.82c-0.74,0.31-1.5,0.58-2.28,0.77c-0.4,0.1-0.75,0.02-0.93-0.36c-0.19-0.4,0.14-0.64,0.43-0.8
			c0.83-0.47,1.69-0.89,2.52-1.35c0.55-0.3,1.03-0.69,1.42-1.19c0.43-0.56,0.72-1.17,0.42-1.87c-0.31-0.71-0.93-1.04-1.68-1.07
			c-0.7-0.03-1.41-0.05-2.09,0.05c-0.88,0.13-1.76,0.1-2.64,0.1c-0.39,0-0.92,0-1.02-0.38c-0.13-0.45,0.36-0.73,0.74-0.86
			c1.63-0.57,3.19-1.32,4.93-1.59c1.94-0.29,3.59,0.2,5.22,1.24c1.25,0.8,1.31,2.04,1.54,3.22
			C42.88,145.98,43.05,146.76,42.95,147.42z"/>
		<path class="st2" d="M223.29,204.48c0.05,0.98-0.3,0.79-1.06,0.97c-2.64,0.62-8.75,0.98-10.92,0.96
			c-3.33-0.04-11.07-0.58-11.5-1.04c-0.3-0.32-0.19-1.29-0.11-1.75c0.08-0.45,0.64-0.33,0.87-0.3c1.28,0.18,10.66,0.83,14.16,0.62
			c2.64-0.16,5.27-0.34,7.86-0.84c0.74-0.14,0.76,0.11,0.71,0.65C223.29,203.98,223.29,204.43,223.29,204.48z"/>
		<path class="st2" d="M200.46,127.84c0-0.84,0.01-1.69-0.01-2.54c-0.01-0.35,0.23-0.42,0.47-0.52c2.18-0.92,4.46-1.47,6.79-1.85
			c2.11-0.34,4.23-0.35,6.35-0.33c0.47,0.01,0.83,0.12,1.19,0.44c1.04,0.94,2.2,1.72,3.48,2.32c0.18,0.08,0.47,0.14,0.35,0.41
			c-0.08,0.18-0.3,0.04-0.47,0.02c-1.33-0.16-2.67-0.3-4.02-0.21c-4.71,0.31-9.34,1.14-13.91,2.27
			C200.62,127.87,200.57,127.85,200.46,127.84z"/>
		<path class="st2" d="M96.37,192.27c0.6-0.92,1.08-1.83,1.26-2.86c0.05-0.29,0.23-0.28,0.44-0.31c3.59-0.45,7.19-0.87,10.73-1.66
			c0.33-0.07,0.42,0.02,0.41,0.33c-0.01,0.73-0.02,1.45,0,2.18c0.01,0.43-0.28,0.49-0.59,0.58c-1.37,0.39-2.79,0.56-4.19,0.81
			C101.81,191.81,99.15,192.19,96.37,192.27z"/>
		<path class="st2" d="M209.77,177.24c0.16-0.51,0.31-0.94,0.42-1.39c0.18-0.72-0.1-1.08-0.85-1.11c-0.28-0.01-0.57-0.04-0.85-0.01
			c-0.59,0.08-0.76-0.15-0.73-0.73c0.04-0.96,0-0.93,0.94-0.85c1.48,0.12,2.94-0.05,4.37-0.44c0.17-0.05,0.32-0.18,0.56-0.07
			c-0.82,1.37-1.63,2.74-1.86,4.36c-0.04,0.26-0.24,0.23-0.41,0.24C210.85,177.25,210.34,177.24,209.77,177.24z"/>
		<path class="st2" d="M207.76,160.55c1.11,0.9,2.17,1.52,3.46,2.11c-1.18,0.25-2.16,0.58-3.06,1.09c-0.34,0.19-0.4,0.04-0.4-0.26
			C207.76,162.57,207.76,161.65,207.76,160.55z"/>
		<path class="st2" d="M84,189.86c0.59,0.65,1.08,1.2,1.61,1.78C83.81,191.58,83.81,191.58,84,189.86z"/>
		<path class="st6" d="M82.06,179.44c-2.61-0.1-4.02-1.54-3.91-4.02c0.09-2.06,1.8-3.77,3.8-3.61c2.5,0.19,3.94,1.47,3.89,3.73
			C85.79,177.77,84.08,179.52,82.06,179.44z"/>
		<path class="st7" d="M226.11,166.08c0,1.71-1.43,3.07-3.23,3.06c-1.75,0-3.26-1.42-3.27-3.08c-0.01-1.62,1.56-3.11,3.27-3.1
			C224.64,162.97,226.11,164.4,226.11,166.08z"/>
	</g>
	<path class="st8" d="M139.47,239.2c-0.36,0.41-0.75,0.78-1.17,1.1c0.46,0.38,0.87,0.81,1.22,1.27c-0.03-0.69-0.05-1.42-0.05-2.18
		C139.46,239.32,139.47,239.26,139.47,239.2z"/>
	<g>
		<path class="st9" d="M74.19,190.7c0.11-1.84,0.37-3.42,1.06-4.9c0.18-0.39,0.11-0.72-0.25-0.94c-0.34-0.21-0.65-0.08-0.91,0.18
			c-0.06,0.05-0.1,0.12-0.14,0.18c-1.22,2.04-3.24,3.02-5.31,3.82c-1.54,0.59-3.14,0.22-4.63-0.38c-1.14-0.46-1.57-1.54-1.3-2.77
			c0.45-2.06,1.84-3.41,3.52-4.45c1.82-1.13,3.57-2.42,5.77-2.79c0.35-0.06,0.5-0.35,0.46-0.71c-0.06-0.42-0.35-0.56-0.73-0.54
			c-0.75,0.05-1.47,0.28-2.21,0.37c-2.42,0.28-4.7-0.11-6.84-1.26c-0.57-0.31-1.12-0.66-1.65-1.03c-0.83-0.58-1.6-1.29-1.53-2.38
			c0.08-1.15,0.86-1.95,1.87-2.4c2.08-0.93,4.3-1.17,6.54-1.01c2.29,0.16,4.5,0.71,6.53,1.84c0.36,0.2,0.71,0.19,0.97-0.17
			c0.26-0.37,0.1-0.7-0.18-0.97c-0.21-0.19-0.46-0.33-0.7-0.48c-3.39-1.96-6.3-4.43-8.47-7.72c-0.5-0.75-0.73-1.62-0.76-2.5
			c-0.05-1.3,0.4-2.43,1.52-3.13c1.37-0.85,2.82-0.83,4.21-0.03c1.26,0.73,2.4,1.64,3.4,2.7c1.76,1.87,3.45,3.8,4.69,6.07
			c0.21,0.38,0.48,0.75,0.98,0.46c0.46-0.27,0.39-0.73,0.16-1.1c-1.22-1.93-1.45-4.07-1.43-6.27c0.02-1.95,1.57-4.85,4.09-5.5
			c1.79-0.46,3.53,0.07,4.43,1.67c1.18,2.1,1.32,4.38,0.88,6.71c-0.21,1.12-0.61,2.17-1.18,3.18c-0.42,0.75-0.7,1.6-1.08,2.39
			c-0.17,0.35-0.11,0.73,0.28,0.94c0.39,0.22,0.72,0.05,0.94-0.28c0.25-0.39,0.52-0.79,0.67-1.22c0.88-2.53,2.9-3.9,5.12-5.06
			c0.98-0.52,1.98-1,3.13-1.11c3.48-0.32,5.6,2.62,4.12,5.8c-0.76,1.65-1.93,2.9-3.71,3.56c-1.58,0.58-3.23,0.95-4.83,1.46
			c-0.5,0.16-1.02,0.32-0.85,0.97c0.17,0.64,0.72,0.63,1.21,0.42c2.52-1.1,4.75-0.07,6.87,1.06c2.31,1.24,2.4,5.06-0.03,6.33
			c-1.68,0.88-3.41,0.98-5.2,0.43c-1.01-0.31-2.01-0.67-3.03-0.98c-0.45-0.13-1.04-0.37-1.24,0.32c-0.19,0.66,0.33,0.88,0.86,1.07
			c3.43,1.2,5.44,3.72,5.95,7.2c0.61,4.22-3.61,6-6.49,4.92c-2.13-0.8-3.56-2.36-4.79-4.15c-0.78-1.13-1.46-2.32-2.19-3.49
			c-0.26-0.42-0.59-0.8-1.13-0.46c-0.54,0.34-0.32,0.8-0.09,1.23c0.07,0.14,0.14,0.28,0.25,0.39c1.44,1.49,1.17,3.22,0.64,4.95
			c-0.44,1.44-1.04,2.82-1.91,4.06c-0.67,0.95-1.55,1.59-2.68,1.88c-1.08,0.29-1.7,0.04-2.32-0.88
			C74.29,194.47,74.29,192.46,74.19,190.7z M82.07,180.87c2.88,0.03,5.12-2.3,5.19-5.33c0.07-3.22-2.35-5.05-5.31-5.15
			c-2.86-0.09-5.21,2.23-5.19,5.14C76.79,178.6,78.9,180.99,82.07,180.87z"/>
		<path class="st9" d="M225.66,152.03c-0.01,1.9-0.49,3.57-0.99,5.23c-0.09,0.3-0.21,0.59-0.26,0.89c-0.07,0.43-0.17,0.93,0.44,1.08
			c0.57,0.14,0.79-0.25,0.94-0.7c0.13-0.39,0.24-0.79,0.35-1.19c0.19-0.76,0.62-1.34,1.2-1.86c1.28-1.16,2.64-2.16,4.34-2.64
			c1.88-0.53,3.39,0.07,4.29,1.81c0.5,0.95,0.34,1.87-0.13,2.75c-0.86,1.61-2.09,2.89-3.61,3.89c-0.85,0.55-1.7,1.09-2.55,1.64
			c-0.41,0.26-0.69,0.62-0.4,1.1c0.3,0.5,0.78,0.41,1.15,0.11c0.61-0.5,1.31-0.42,2-0.4c1.74,0.04,3.46,0.1,4.97,1.21
			c1.31,0.97,1.92,2.33,1.35,3.45c-0.43,0.85-1.05,1.55-1.96,1.92c-1.18,0.47-2.39,0.7-3.65,0.33c-1.22-0.36-2.44-0.71-3.56-1.31
			c-0.4-0.21-0.77-0.24-1.02,0.17c-0.23,0.38-0.1,0.76,0.25,1.03c0.16,0.13,0.34,0.23,0.53,0.32c1.99,0.88,3.03,2.56,3.44,4.57
			c0.44,2.21-0.37,4.18-1.95,5.73c-1.79,1.77-4.26,1.3-5.45-0.93c-0.8-1.5-1.28-3.11-1.56-4.78c-0.04-0.25-0.08-0.52-0.16-0.76
			c-0.22-0.62-0.72-0.74-1.2-0.3c-0.37,0.34-0.57,0.76-0.74,1.24c-0.92,2.78-2.48,5.09-5.17,6.41c-1.98,0.97-3.6-0.12-3.63-2.36
			c-0.04-2.58,0.73-4.9,2.28-6.96c0.63-0.84,1.12-1.8,2.18-2.25c0.41-0.17,0.51-0.61,0.27-1c-0.25-0.4-0.65-0.39-1.03-0.18
			c-0.98,0.54-1.9,1.16-2.93,1.61c-2.01,0.88-4.07,1.2-6.2,0.51c-2.17-0.7-2.72-2.44-1.32-4.23c1.74-2.23,4.13-3.23,6.88-3.42
			c0.48-0.03,0.9-0.2,1.34-0.31c0.36-0.09,0.55-0.27,0.53-0.64c-0.02-0.39-0.29-0.56-0.61-0.59c-0.92-0.09-1.74-0.49-2.57-0.84
			c-1.92-0.82-3.6-1.96-4.73-3.77c-0.67-1.07-0.82-2.19-0.12-3.3c0.61-0.96,1.93-1.38,3.18-1.07c2.03,0.49,3.69,1.63,5.19,3.01
			c0.82,0.75,1.6,1.56,2.24,2.48c0.12,0.17,0.26,0.33,0.41,0.47c0.31,0.28,0.67,0.32,0.99,0.06c0.31-0.25,0.29-0.59,0.09-0.91
			c-1.99-3.28-1.06-6.34,0.78-9.29c0.5-0.8,1.28-1.36,2.1-1.82c0.88-0.5,1.6-0.35,2.29,0.41
			C225.34,148.92,225.63,150.5,225.66,152.03z M227.55,166.09c0-2.51-2.08-4.54-4.66-4.53c-2.6,0.01-4.69,2.04-4.67,4.53
			c0.02,2.49,2.13,4.49,4.72,4.48C225.49,170.57,227.54,168.58,227.55,166.09z"/>
		<path class="st10" d="M159.94,117.88c-3.45,0.17-6.99-0.04-10.51-0.59c-0.38-0.06-0.55-0.17-0.54-0.58
			c0.02-0.96,0.02-1.92,0.01-2.88c0-0.41,0.04-0.57,0.56-0.48c4.12,0.67,8.26,0.67,12.41,0.44c2.12-0.12,4.25-0.14,6.38-0.25
			c2.41-0.12,4.81-0.27,7.22-0.44c0.49-0.04,0.64,0.08,0.62,0.57c-0.03,0.78-0.04,1.56,0,2.33c0.03,0.49-0.17,0.69-0.62,0.79
			c-1.75,0.36-3.52,0.65-5.3,0.79C166.79,117.84,163.42,117.97,159.94,117.88z"/>
		<path class="st10" d="M164.98,86.14c2.85,0.06,6.44,0.17,9.26,0.82c0.23,0.05,0.46,0.1,0.68,0.18c0.99,0.33,1.15,0.57,1.15,1.61
			c0,0.57,0.18,1.3-0.1,1.66c-0.33,0.42-1.05,0.02-1.59-0.06c-3.11-0.42-6.23-0.73-9.36-0.87c-4.65-0.21-10.95,0.28-15.08,1.23
			c-0.99,0.21-1.04,0.02-1.04-1.04c0-1.81,0.01-1.77,1.71-2.3C155.03,86.22,160.2,86.08,164.98,86.14z"/>
		<path class="st10" d="M166.12,148.9c-5.34,0.03-10.13-0.28-14.92-0.32c-0.21,0-0.42-0.03-0.62-0.08
			c-0.54-0.13-1.41,0.19-1.59-0.29c-0.26-0.71-0.1-1.58-0.09-2.38c0-0.33,0.26-0.23,0.46-0.22c5.46,0.36,10.94,0.28,16.4,0.38
			c3.25,0.06,6.47-0.27,9.66-0.83c0.59-0.1,0.69,0.07,0.64,0.56c-0.02,0.18,0,0.36,0,0.54c0,2.16,0,2.14-2.18,2.34
			C171.12,148.84,168.36,148.98,166.12,148.9z"/>
		<path class="st10" d="M163.06,173.03c-2,0-3.99-0.01-5.99,0c-2.52,0.01-5.02-0.21-7.52-0.44c-0.56-0.05-0.73-0.26-0.66-0.77
			c0.02-0.15,0.02-0.31,0-0.47c-0.1-0.63,0.17-0.76,0.77-0.76c5.31,0.06,10.62,0.48,15.94,0.46c3.03-0.01,6.07,0.03,9.05-0.62
			c1.45-0.32,1.42-0.32,1.43,1.21c0,0.49-0.16,0.7-0.62,0.77c-2.05,0.33-4.08,0.69-6.17,0.67
			C167.21,173.07,165.14,173.27,163.06,173.03z"/>
		<path class="st9" d="M156.07,195.79c0-4.41,0.01-8.82-0.02-13.23c0-0.65,0.23-0.85,0.82-0.91c3.54-0.38,7.08-0.42,10.62,0.11
			c0.52,0.08,0.69,0.22,0.69,0.76c-0.02,8.87-0.01,17.75,0,26.62c0,0.44-0.1,0.66-0.57,0.72c-0.72,0.09-1.43,0.26-2.16,0.26
			c-2.78,0-5.55,0.04-8.32-0.18c-1.06-0.08-1.06-0.09-1.06-1.14C156.07,204.46,156.07,200.12,156.07,195.79z"/>
		<path class="st11" d="M91.7,226.76c-0.85,8.27-0.93,16.5-0.93,24.76c0,1.21,0.85,2.02,2.06,2.02h13.23c1.77,0,2.58-0.93,2.42-2.46
			l-0.6-4.15c-0.12-1.09-0.73-1.57-1.45-1.57c-0.36,0-0.73,0.12-1.13,0.36c-0.81,0.44-2.18,1.29-3.91,1.29
			c-1.86,0-3.71-1.53-3.71-4.8c0-4.31,0.52-11.33,1.01-15.45c0.12-0.81-0.65-1.45-1.45-1.45h-4.07
			C92.35,225.31,91.79,225.95,91.7,226.76z"/>
		<path class="st11" d="M175.56,254.02h0.04c7.02,0,11.05-2.5,11.05-14.64c0-12.1-4.03-14.6-11.05-14.6h-0.04
			c-7.02,0-11.05,2.5-11.05,14.6C164.51,251.52,168.54,254.02,175.56,254.02z M175.6,231.48c2.62,0,3.87,2.06,3.87,7.95
			c0,5.85-1.25,7.9-3.87,7.9c-2.66,0-3.91-2.06-3.91-7.9C171.69,233.54,172.94,231.48,175.6,231.48z"/>
		<path class="st11" d="M230.06,226.76c-1.17,11.94-0.81,20.21-0.89,25.33c0,0.81,0.64,1.45,1.45,1.45c4.15,0,2.9,0,7.06,0
			c6.25,0,10.53-4.28,10.53-13.51c0-9.52-4.48-14.72-12.1-14.72h-4.6C230.74,225.31,230.14,225.95,230.06,226.76z M236.63,231.24
			c3.47,0.04,4.68,3.27,4.68,7.99c0,5.45-1.73,8.27-5.28,8.27C236.03,244.02,236.15,235.83,236.63,231.24z"/>
	</g>
	<g>
		<path class="st12" d="M66.56,103.24c-0.97-0.8-2.02-1.37-3.34-1.42c-2.18-0.09-3.38,1.26-2.93,3.4c0.1,0.46,0.26,0.9,0.35,1.35
			c0.12,0.6-0.06,1.16-0.51,1.55c-0.47,0.41-1.07,0.43-1.61,0.15c-0.6-0.31-1.15-0.7-1.73-1.05c-0.81-0.49-1.63-1.03-2.6-0.48
			c-1.02,0.57-1.3,1.54-1.3,2.65c0,0.63,0.05,1.24,0.28,1.83c0.12,0.31,0.2,0.64,0.28,0.97c0.26,1.17-0.12,1.6-1.34,1.68
			c-0.9,0.06-1.74-0.27-2.61-0.36c-2.03-0.22-3.29,0.81-3.44,2.85c-0.02,0.31-0.08,0.64,0.01,0.93c0.26,0.88-0.26,1.11-0.93,1.35
			c-1.26,0.44-2.56,0.38-3.85,0.41c-3.82,0.09-7.5-0.48-10.82-2.52c-1.42-0.87-2.63-1.93-3.31-3.5c-0.61-1.4-0.45-2.73,0.26-4.03
			c0.6-1.11,1.69-1.43,2.79-1.61c2.21-0.37,4.39-0.22,6.53,0.47c0.32,0.1,0.64,0.21,0.97,0.28c0.37,0.07,0.75,0.08,0.96-0.31
			c0.22-0.4,0.06-0.76-0.25-1.04c-0.5-0.45-1.03-0.87-1.54-1.31c-0.97-0.83-1.83-1.77-2.56-2.81c-1.25-1.8-1.62-3.8-1.15-5.93
			c0.27-1.23,1.08-1.8,2.35-1.86c2.39-0.11,4.48,0.69,6.39,2.04c0.91,0.64,1.76,1.36,2.63,2.06c0.4,0.32,0.82,0.56,1.24,0.13
			c0.42-0.44,0.14-0.83-0.19-1.22c-1.85-2.14-3.07-4.61-3.65-7.38c-0.5-2.42,0.61-4.49,2.67-5.01c1.43-0.36,2.78-0.08,4.03,0.7
			c1.75,1.1,2.88,2.74,3.82,4.52c0.49,0.94,0.94,1.9,1.41,2.86c0.22,0.45,0.5,0.86,1.06,0.67c0.57-0.2,0.49-0.68,0.39-1.17
			c-0.37-1.8-0.63-3.62-0.44-5.48c0.35-3.52,3.89-5.21,6.74-4.42c3.18,0.88,5.27,2.91,6.23,6.05c1.44,4.7,1.29,9.3-1.05,13.72
			c-0.05,0.09-0.1,0.18-0.16,0.26C66.64,103.21,66.61,103.22,66.56,103.24z"/>
		<path class="st12" d="M252.63,143.29c-0.03-2.37,0.21-4.71,0.79-7.01c0.54-2.17,2.54-3.41,4.46-2.76
			c1.27,0.43,1.87,1.56,2.32,2.68c0.85,2.11,0.94,4.3,0.25,6.47c-0.38,1.19-0.62,2.4-0.93,3.61c-0.11,0.45-0.07,0.87,0.4,1.05
			c0.51,0.19,0.87-0.11,1.01-0.59c0.26-0.92,0.36-1.9,0.73-2.77c0.94-2.2,2.32-4.04,4.79-4.7c1.51-0.41,2.95-0.16,3.95,1.11
			c1.05,1.34,0.98,2.89,0.21,4.33c-1.31,2.44-3.26,4.13-6.03,4.75c-0.48,0.11-0.96,0.31-0.85,0.91c0.11,0.65,0.65,0.66,1.17,0.57
			c1.41-0.23,2.8-0.36,4.2,0.18c1.38,0.53,2.06,1.86,1.49,3.25c-0.56,1.36-1.56,2.34-2.9,2.9c-2.57,1.08-5.22,1.46-7.97,0.65
			c-0.42-0.12-0.6-0.28-0.56-0.73c0.08-0.92-0.04-1.81-0.51-2.63c-0.81-1.4-2.26-1.72-3.58-0.77c-0.82,0.59-1.4,1.38-1.82,2.29
			c-0.11,0.23-0.2,0.54-0.52,0.5c-0.33-0.04-0.33-0.38-0.37-0.61c-0.1-0.53-0.15-1.08-0.21-1.62c-0.17-1.74-1.55-2.88-2.97-2.44
			c-0.77,0.24-1.26,0.79-1.59,1.5c-0.37,0.77-0.63,1.59-0.87,2.41c-0.08,0.27-0.14,0.57-0.48,0.64c-0.37,0.08-0.58-0.18-0.77-0.42
			c-0.4-0.49-0.69-1.04-0.93-1.61c-0.5-1.2-1.33-2-2.67-2.05c-1.35-0.05-2.4,0.56-3.08,1.75c-0.14,0.25-0.22,0.47-0.55,0.23
			c-2.68-1.9-5.14-3.98-6.17-7.26c-0.48-1.53-0.47-3.04,0.24-4.54c0.95-2,3.11-2.83,5.05-1.76c2.8,1.53,5.14,3.58,6.74,6.39
			c0.08,0.13,0.15,0.27,0.24,0.4c0.23,0.31,0.55,0.39,0.9,0.27c0.4-0.14,0.43-0.48,0.39-0.83c-0.06-0.48-0.37-0.85-0.59-1.26
			c-1.16-2.14-2.37-4.27-2.77-6.72c-0.21-1.25-0.32-2.51,0.01-3.78c0.35-1.4,2.09-2.53,3.68-1.67c1.98,1.06,3.03,2.85,3.96,4.74
			c0.84,1.71,0.92,3.6,1.11,5.45c0.06,0.57,0.08,1.14,0.14,1.7c0.04,0.47,0.26,0.82,0.77,0.79c0.56-0.03,0.7-0.45,0.7-0.94
			C252.63,144.64,252.63,143.97,252.63,143.29z"/>
		<path class="st12" d="M222.66,177.34c0.33,0.92,0.65,1.7,0.65,2.62c-0.02,6.92-0.02,13.85,0.01,20.77c0,0.63-0.21,0.85-0.78,0.95
			c-2.81,0.5-5.64,0.78-8.5,0.84c-4.51,0.08-9.01-0.13-13.51-0.33c-0.67-0.03-0.89-0.3-0.89-1c0.04-4.64,0.03-9.28,0.01-13.93
			c0-0.54,0.15-0.79,0.66-0.93c3.61-1,6.12-3.36,7.96-6.52c0.23-0.4,0.39-0.98,0.84-1.06c0.7-0.13,1.45-0.07,2.17-0.03
			c0.41,0.03,0.21,0.4,0.21,0.63c-0.02,1.17,0.16,2.27,0.92,3.21c1,1.24,2.38,1.68,3.88,1.16c2.8-0.96,4.56-3.05,5.93-5.54
			C222.37,177.93,222.49,177.68,222.66,177.34z M211.61,196.68c0,0.62,0,1.24,0,1.86c0,0.52-0.06,1.1,0.49,1.38
			c0.56,0.29,1.05-0.03,1.5-0.36c1.09-0.79,2.2-1.55,3.25-2.39c1.38-1.1,2.65-2.29,3.36-3.99c1.21-2.89,0.66-5.68-0.29-8.48
			c-0.41-1.21-1.54-1.54-2.57-0.74c-0.73,0.57-1.44,1.18-2.05,1.9C212.66,188.99,211.47,192.61,211.61,196.68z"/>
		<path class="st12" d="M216.43,126.99c-0.98,0.62-1.84,1.11-2.5,1.84c-0.49,0.53-0.98,1.04-1.1,1.83
			c-0.05,0.34-0.42,0.63-0.65,0.94c-0.81,0.92-1.13,1.58-1.31,1.88c-0.36,0.12-2.95,0.09-3.75-0.03c-0.65-0.1-0.92,0.33-0.9,0.97
			c0.2,5.99,0.04,11.84,0.1,17.82c0,0.29-0.05,0.54-0.25,0.78c-1.34,1.67-1.43,3.55-0.22,5.38c0.35,0.53,0.49,1.04,0.48,1.66
			c-0.03,1.35-0.03,2.7,0,4.05c0.01,0.56-0.13,0.97-0.55,1.36c-0.96,0.91-1.68,1.98-1.79,3.35c-0.11,1.36,0.4,2.48,1.56,3.17
			c0.71,0.43,0.84,0.94,0.86,1.7c0.03,0.86-0.17,1.24-1.08,1.32c-1.46,0.13-2.81,0.73-4.11,1.35c-0.74,0.35-0.76,0.12-0.76-0.53
			c0.02-9.44,0.01-18.88,0.01-28.33c0-5.81,0.01-11.62-0.02-17.43c0-0.65,0.19-0.92,0.81-1.05c3.42-0.74,6.85-1.4,10.33-1.76
			C213.13,127.13,214.68,126.96,216.43,126.99z"/>
		<path class="st12" d="M199.67,206.38c1.43,0.42,5.92,1.06,8.4,1.26c3.7,0.14,6.54,0.15,9.8-0.15c2.22-0.21,3.26-0.24,4.83-0.71
			c0.51-0.15,0.62-0.05,0.61,0.46c-0.03,1.19-0.06,2.39,0.01,3.58c0.05,0.95-0.41,1.5-1.15,1.94c-1.16,0.69-2.43,1.05-3.73,1.28
			c-5.44,0.96-10.79,0.63-16.01-1.25c-0.02-0.01-0.05-0.02-0.07-0.03c-2.66-1.05-2.69-1.1-2.69-3.92
			C199.67,208.06,199.67,207.26,199.67,206.38z"/>
		<path class="st12" d="M213.13,121.17c-4.39-0.07-8.54,0.64-12.65,2.21c0-1.41-0.04-2.74,0.02-4.07c0.03-0.62,0.61-0.93,1.09-1.23
			c1.8-1.12,3.38-1.35,5.41-1.79c0.93-0.13,2.05-0.24,2.66-0.15c0.34,0.31,0.55,1.01,1.09,1.78c0.47,0.67,0.71,1.14,1.11,1.68
			C212.23,120.11,212.65,120.59,213.13,121.17z"/>
		<path class="st12" d="M223.3,140.16c0,1.76,0,3.33,0,4.9c0,0.21,0.03,0.41-0.3,0.42c-2.24,0.11-3.54,1.61-4.72,3.25
			c-0.31,0.43-0.54,0.93-0.9,1.57c0-1.47,0-2.77,0-4.07c0-0.52,0.05-1.04-0.01-1.55c-0.09-0.72,0.18-1.03,0.87-1.25
			c1.51-0.48,2.88-1.27,4.03-2.4C222.54,140.77,222.86,140.54,223.3,140.16z"/>
		<path class="st12" d="M218.29,121.54c1.49-0.55,2.53-1.65,3.65-2.64c0.19-0.16,0.34-0.54,0.7-0.3c0.31,0.21,0.68,0.38,0.68,0.87
			c-0.01,1.16,0,2.32,0,3.57C221.63,122.4,219.99,121.92,218.29,121.54z"/>
		<path class="st12" d="M214.51,120.45c-1.34-1.39-2.39-2.75-3.18-4.48c1.17,0.08,2.24,0.15,3.31,0.22
			c0.32,0.02,0.36,0.17,0.29,0.46C214.68,117.84,214.53,119.04,214.51,120.45z"/>
		<path class="st13" d="M71.86,226.76c-0.85,8.27-0.93,16.5-0.93,24.76c0,1.21,0.85,2.02,2.06,2.02h13.23
			c1.77,0,2.58-0.93,2.42-2.46l-0.6-4.15c-0.12-1.09-0.73-1.57-1.45-1.57c-0.36,0-0.73,0.12-1.13,0.36
			c-0.81,0.44-2.18,1.29-3.91,1.29c-1.86,0-3.71-1.53-3.71-4.8c0-4.31,0.52-11.33,1.01-15.45c0.12-0.81-0.65-1.45-1.45-1.45h-4.07
			C72.5,225.31,71.94,225.95,71.86,226.76z"/>
		<path class="st13" d="M151.89,254.02h0.04c7.02,0,11.05-2.5,11.05-14.64c0-12.1-4.03-14.6-11.05-14.6h-0.04
			c-7.02,0-11.05,2.5-11.05,14.6C140.83,251.52,144.87,254.02,151.89,254.02z M151.93,231.48c2.62,0,3.87,2.06,3.87,7.95
			c0,5.85-1.25,7.9-3.87,7.9c-2.66,0-3.91-2.06-3.91-7.9C148.01,233.54,149.26,231.48,151.93,231.48z"/>
		<path class="st13" d="M209.16,252.09c0,0.81,0.64,1.45,1.45,1.45h14.64c1.98,0,2.46-0.81,2.22-2.86l-0.52-3.47
			c-0.16-1.13-0.77-1.53-1.45-1.53c-0.36,0-0.77,0.12-1.13,0.28c-0.73,0.36-1.77,0.85-3.75,0.85c-0.93,0-2.34-0.04-2.34-0.04
			c-1.69,0-2.3-1.09-2.26-3.15c0-1.9,0.73-2.7,2.06-2.7h0.61c1.6,0,3.24,1.22,4.4,1.22c0.07,0,0.13,0,0.2-0.01
			c0.65-0.08,1.01-0.65,0.89-1.53c-0.12-0.93-0.28-2.06-0.4-2.94c-0.12-0.89-0.77-1.25-1.41-1.25c-0.89,0-1.69,0.56-3.35,0.56h-0.64
			c-1.49,0-2.1-0.85-2.02-2.54c0.08-1.77,0.61-2.58,2.5-2.58h2.78c1.69,0,2.62,0.52,3.39,0.89c0.2,0.08,0.44,0.12,0.69,0.12
			c0.77,0,1.53-0.52,1.33-2.02l-0.48-3.51c-0.2-1.41-0.81-2.02-2.34-2.02H211.5c-0.81,0-1.37,0.65-1.45,1.45
			C208.84,238.7,209.2,246.93,209.16,252.09z"/>
	</g>
	<g>
		<path class="st14" d="M89.62,161.66c0.27-1.53,0.32-2.91,0.1-4.3c-0.21-1.32-0.52-2.58-1.25-3.72c-1.24-1.93-3.58-2.79-5.86-2.15
			c-0.27,0.08-0.54,0.16-0.88,0.25c-0.06-1.86-0.52-3.62-0.86-5.4c-0.15-0.78,0.07-1.55,0.07-2.32c-0.01-8.51,0-17.02-0.02-25.53
			c0-0.65,0.05-0.85,0.82-0.74c2.8,0.41,5.63,0.47,8.46,0.5c3.97,0.04,7.94,0.04,11.91,0c2.23-0.02,4.46-0.1,6.63-0.71
			c0.74-0.21,0.47,0.36,0.47,0.63c0.02,4.98,0.01,9.96,0.01,14.94c0,17.25-0.01,34.51,0.02,51.76c0,0.82-0.27,1.1-1.03,1.27
			c-2.51,0.55-5.06,0.82-7.59,1.21c-0.82,0.13-1.64,0.21-2.46,0.31c-0.28,0.03-0.45-0.02-0.53-0.38c-0.39-1.89-1.32-3.52-2.49-5.04
			c-0.06-0.07-0.11-0.15-0.22-0.3c1.14-0.06,2.21-0.04,3.21-0.36c1.87-0.61,3.37-1.65,3.79-3.72c0.4-1.99-0.05-3.75-1.59-5.17
			c-0.53-0.49-1.17-0.76-1.81-1.03c-0.55-0.23-1.1-0.44-1.84-0.73c1.47-0.51,2.59-1.24,3.48-2.31c1.58-1.87,2.35-3.96,1.69-6.4
			c-0.51-1.85-2.51-3.36-4.42-3.54c-2.29-0.22-4.19,0.71-6.05,1.84C90.83,160.86,90.3,161.22,89.62,161.66z M99.56,145.51
			c-0.13-2.34-0.57-4.46-1.47-6.46c-0.62-1.38-1.19-1.45-2.25-0.41c-1.47,1.44-2.71,3.03-3.69,4.86c-2.21,4.12-2.14,8.38-0.97,12.73
			c0.21,0.78,0.72,0.9,1.34,0.38c1.3-1.1,2.63-2.17,3.84-3.39C98.53,151.03,99.34,148.34,99.56,145.51z"/>
		<path class="st15" d="M94.88,216.42c-3.92-0.08-7.7-0.38-11.32-1.76c-0.1-0.04-0.2-0.07-0.29-0.11c-2.31-0.98-2.33-1.01-2.33-3.49
			c0-1.32,0.03-2.65-0.01-3.97c-0.02-0.68,0.17-0.75,0.79-0.6c4.39,1.09,8.85,1.34,13.35,1.14c4.54-0.2,9.03-0.81,13.43-1.94
			c0.63-0.16,0.74-0.02,0.73,0.58c-0.02,1.42,0.01,2.85,0.08,4.27c0.08,1.81-0.7,3.01-2.35,3.75c-2.4,1.08-4.93,1.54-7.5,1.87
			C97.9,216.36,96.34,216.35,94.88,216.42z"/>
		<path class="st15" d="M93.45,201.06c-3.71,0.02-7.11-0.02-10.47-0.6c-2.05-0.35-2.01-0.39-2.05-2.43
			c-0.02-0.77,0.15-1.38,0.66-1.97c0.7-0.84,1.13-1.85,1.51-2.87c0.14-0.38,0.31-0.5,0.75-0.42c1.17,0.23,2.35,0.38,3.52,0.57
			c0.93,0.15,1.69,0.76,2.62,0.94c1.2,0.23,2.38,0.27,3.52-0.17c1.15-0.45,2.36-0.36,3.53-0.42c3.92-0.2,7.76-0.91,11.6-1.66
			c0.56-0.11,0.59,0.04,0.59,0.49c-0.02,2.2-0.02,4.41,0.01,6.61c0.01,0.5-0.2,0.64-0.64,0.77c-2.21,0.64-4.48,0.84-6.75,1.01
			C98.94,201.11,96.04,201.23,93.45,201.06z"/>
		<path class="st15" d="M215.28,101.09c-0.07-0.52,0.01-0.99-0.17-1.43c-0.32-0.78-0.99-1-1.58-0.41c-0.66,0.65-1.23,1.39-1.89,2.14
			c-0.36-0.59-0.39-1.22-0.59-1.8c-0.17-0.5-0.33-1.02-0.94-1.12c-0.62-0.11-1.01,0.28-1.36,0.73c-0.39,0.5-0.72,1.04-0.83,1.65
			c-0.13,0.74-0.53,0.67-1.05,0.52c-1.85-0.55-2.55-1.98-2.83-3.72c-0.7-4.42,0.72-8.11,3.86-11.21c1.57-1.56,3.26-2.96,5.23-4
			c1.04-0.55,1.07-0.54,1.71,0.45c1.2,1.83,2.05,3.83,2.73,5.9c0.64,1.94,1.35,3.88,1.21,5.97c-0.09,1.4-0.23,2.79-0.78,4.1
			c-0.26,0.62-0.59,1.11-1.28,1.36C216.22,100.41,215.8,100.77,215.28,101.09z"/>
		<path class="st15" d="M93.55,91.3c5.22,0.07,10.24,1.01,14.91,3.47c0.54,0.28,0.8,0.6,0.76,1.25c-0.07,1.09-0.04,2.18-0.01,3.27
			c0.02,0.49-0.12,0.62-0.61,0.57c-1.91-0.2-3.82-0.36-5.73-0.52c-3.29-0.28-6.58-0.28-9.87-0.05c-2.95,0.21-5.89,0.46-8.83,0.72
			c-0.9,0.08-1.8,0.21-2.69,0.38c-0.41,0.08-0.56,0.04-0.55-0.41c0.02-1.22,0.02-2.44,0.01-3.66c-0.01-0.71,0.39-1.22,0.84-1.69
			c1.21-1.26,2.76-1.9,4.39-2.38C88.58,91.54,91.04,91.25,93.55,91.3z"/>
		<path class="st15" d="M99.52,112.37c-5.47,0.04-10.42,0.15-15.37,0.35c-0.93,0.04-1.86-0.08-2.8-0.1
			c-0.37-0.01-0.41-0.19-0.41-0.49c0-1.94,0.01-3.89-0.01-5.83c-0.01-0.45,0.19-0.49,0.56-0.48c6.4,0.28,12.8,0.58,19.2,0.44
			c2.64-0.06,5.28-0.23,7.9-0.57c0.51-0.07,0.62,0.09,0.61,0.56c-0.02,1.82-0.04,3.63,0.01,5.45c0.02,0.65-0.22,0.78-0.8,0.77
			C105.28,112.45,102.14,112.48,99.52,112.37z"/>
		<path class="st15" d="M220.76,133.52c0.1,0.56,0.06,1.04-0.05,1.52c-0.11,0.49-0.16,0.99,0.38,1.3c0.51,0.29,0.89-0.01,1.27-0.28
			c0.23-0.16,0.44-0.33,0.65-0.5c0.69,1.79-0.09,2.96-1.34,4.14c-2.54,2.4-5.61,3.05-8.92,3.14c-0.52,0.01-0.68-0.21-0.75-0.65
			c-0.06-0.38-0.13-0.77-0.25-1.13c-1.21-3.45-0.3-6.46,1.93-9.17c1.16-1.42,2.86-1.4,4.49-1.46c0.33-0.01,0.36,0.19,0.25,0.47
			c-0.22,0.58-0.45,1.16-0.61,1.76c-0.28,0.99,0.2,1.5,1.22,1.34c0.3-0.05,0.6-0.15,0.9-0.24
			C220.2,133.68,220.47,133.6,220.76,133.52z"/>
		<path class="st15" d="M46.51,166.66c-2.77-0.01-5.21-0.94-7.41-2.58c-0.61-0.45-0.83-0.9-0.4-1.62c0.96-1.63,1.86-3.29,3.33-4.55
			c1.07-0.92,2.35-1.14,3.69-1.16c0.67-0.01,1.11,0.53,1.65,0.81c0.57,0.3,1.11,0.66,1.63,1.05c0.57,0.43,0.53,0.6-0.11,0.87
			c-0.45,0.19-0.92,0.35-1.34,0.61c-1.17,0.72-1.15,1.86,0.03,2.55c0.11,0.07,0.23,0.12,0.34,0.18c1.14,0.62,1.14,0.61,0.4,1.7
			c-0.28,0.42-0.47,0.89-0.37,1.39c0.13,0.66-0.15,0.81-0.73,0.74C46.98,166.63,46.75,166.66,46.51,166.66z"/>
		<path class="st15" d="M58.3,141.43c1.89,0.6,3.59,1.35,4.82,2.9c0.14,0.18,0.29,0.33,0.17,0.62c-0.47,1.06-1.05,2.02-2.16,2.54
			c-0.56,0.26-1.09,0.35-1.49-0.29c-0.07-0.11-0.17-0.2-0.27-0.28c-0.57-0.46-1.3-0.79-0.37-1.69c0.48-0.46,0.02-1.02-0.53-1.28
			c-0.48-0.23-0.69-0.48-0.38-1.01C58.34,142.51,58.31,142,58.3,141.43z"/>
		<path class="st15" d="M189.68,226.76c-1.21,11.94-0.85,20.21-0.89,25.33c-0.04,0.81,0.64,1.45,1.45,1.45h4.03
			c0.81,0,1.53-0.61,1.45-1.45c-0.24-2.66-0.28-5.28-0.28-7.9c0-0.89,0.32-1.33,0.73-1.33c0.28,0,0.6,0.2,0.93,0.61
			c0.81,1.13,2.82,3.99,2.86,8.63c0.04,0.85,0.65,1.45,1.45,1.45h3.99c0.81,0,1.45-0.65,1.45-1.45c0-5.89-3.23-11.17-8.07-11.17
			v-0.77c4.56,0,8.23-5.81,8.23-13.39c0-0.81-0.65-1.45-1.45-1.45h-3.99c-0.81,0-1.45,0.61-1.45,1.45
			c-0.04,4.92-1.61,8.27-2.7,10.16c-0.32,0.56-0.77,0.93-1.13,0.93c-0.36,0-0.65-0.4-0.56-1.37c0.28-3.47,0.52-6.74,0.89-9.72
			c0.12-0.81-0.65-1.45-1.45-1.45h-4.03C190.33,225.31,189.76,225.95,189.68,226.76z"/>
		<path class="st15" d="M53.06,227.08c-3.63,11.94-3.99,18.96-4.44,25.01c-0.04,0.81,0.44,1.45,1.29,1.45h3.83
			c1.13,0,1.86-0.61,1.86-1.86c0-1.17,0.08-2.9,0.32-4.92h5.65c0.2,2.02,0.32,3.75,0.32,4.92c0,1.25,0.69,1.86,1.82,1.86h3.83
			c0.85,0,1.33-0.65,1.29-1.45c-0.44-6.05-0.81-13.07-4.44-25.01c-0.32-1.05-1.05-1.77-2.5-1.77h-6.33
			C54.11,225.31,53.39,226.03,53.06,227.08z M58.35,232.37h0.77c0.73,2.3,1.65,7.3,2.22,12.14h-5.16
			C56.69,239.67,57.62,234.67,58.35,232.37z"/>
		<path class="st15" d="M122,226.76c-1.21,11.94-0.85,20.17-0.89,25.33c0,0.81,0.65,1.45,1.45,1.45h8.03c5.36,0,9.11-2.74,9.11-7.22
			c0-4.44-3.55-6.17-6.13-6.7v-0.77c2.62-0.6,5.4-2.82,5.4-6.9c0-4.4-3.59-6.65-8.39-6.65h-7.14
			C122.64,225.31,122.08,225.95,122,226.76z M128.49,231.56c1.98,0,3.99,0.81,3.87,2.94c-0.12,2.18-1.81,3.51-3.79,3.51h-0.44
			C128.21,236.24,128.33,233.21,128.49,231.56z M128.05,240.47h0.52c1.82,0,4.52,1.25,4.52,3.39c0,2.54-2.9,3.31-5.12,3.31
			C127.93,245.43,127.97,242.17,128.05,240.47z"/>
	</g>
	<g>
		<g>
			<g>
				<path class="st16" d="M197.12,178.89c0-0.5,0-0.83,0-1.16c0-25.35,0-50.71,0-76.06c0-0.62-0.06-1.24-0.08-1.86
					c-0.01-0.29-0.13-0.49-0.36-0.65c-2.58-1.73-5.3-2.65-8.12-2.64c-4.8,0.01-7.83,1.73-9.21,3.24c-0.35,0.3-0.27,0.76-0.27,1.17
					c0,8.59-0.16,17.18-0.16,25.77c0,27.3,0.01,54.6-0.03,81.9c0,1.69,0.73,2.66,2.13,3.34c1.57,0.76,6.27,1.45,11.72,0.99
					c1.53-0.27,2.97-0.83,4.01-2.09c0.4-0.48,0.39-0.8,0.4-1.53c-0.07-0.15-0.04-0.36-0.04-0.54c0-6.9,0-13.81,0-20.71
					c0-0.23-0.08-0.5,0.1-0.67c0.23-0.21,0.56-0.35,0.85-0.27c0.28,0.08,0.15,0.4,0.15,0.61c0.01,7.58,0.01,15.16,0,22.73
					c0,0.62,0.01,1.21,0,1.86c-0.21,1.16-3.38,2.58-5.63,3c-3.24,0.47-6.02,0.29-9.09-0.43c-1.74-0.41-3.45-0.91-5.06-1.75
					c-0.65-0.34-0.97-0.77-0.97-1.57c0.02-37.97,0.02-75.93,0-113.9c0-0.68,0.22-1.11,0.76-1.48c1.99-1.35,4.25-1.91,6.58-2.21
					c3.38-0.43,6.73-0.2,10.01,0.74c1.23,0.35,2.38,0.86,3.51,1.47c0.57,0.31,0.71,0.69,0.71,1.3c-0.01,19.44-0.01,38.87-0.01,58.31
					c0,6.88-0.01,13.75,0.01,20.63c0,0.74-0.09,1.3-0.84,1.63C197.87,178.23,197.59,178.53,197.12,178.89z"/>
				<path class="st16" d="M147.45,116.93c0,0.78,0,1.56,0,2.34c0,1.02,0,1.01-0.99,0.65c-2.24-0.82-4.52-1.55-6.88-1.93
					c-3.66-0.6-7.34-0.93-11.04-1.2c-5.4-0.39-10.58,0.64-15.74,1.93c-0.55,0.14-1.07,0.38-1.59,0.61
					c-0.38,0.17-0.56,0.16-0.55-0.33c0.03-1.76,0.03-3.53,0.03-5.29c0-0.44,0.3-0.64,0.58-0.86c1.01-0.8,2.19-1.3,3.37-1.75
					c4.65-1.75,9.46-2.78,14.44-2.62c5.29,0.17,10.47,0.97,15.33,3.24C147.45,113.13,147.45,113.13,147.45,116.93z"/>
				<path class="st16" d="M128.84,216.23c-4.57,0.02-8.71-0.42-12.74-1.6c-1.7-0.5-3.32-1.18-4.84-2.09c-0.41-0.24-0.55-0.52-0.55-1
					c0.02-1.27-0.01-2.54-0.05-3.81c-0.01-0.49,0.13-0.64,0.63-0.53c4.5,0.99,9.06,1.4,13.66,1.37c2.64-0.02,5.29,0.29,7.93,0.11
					c2.82-0.19,5.66-0.08,8.45-0.58c1.88-0.34,3.75-0.82,5.53-1.54c0.49-0.19,0.62-0.14,0.61,0.4c-0.03,1.4-0.04,2.8,0,4.2
					c0.01,0.52-0.19,0.8-0.61,1.05c-2.53,1.57-5.33,2.39-8.21,3.01C135.3,215.95,131.9,216.26,128.84,216.23z"/>
				<path class="st16" d="M50.98,130.18c1.29,0.21,2.41,0.39,3.54,0.4c2.16,0.02,4.27-0.51,6.41-0.66c3.74-0.27,6.53,1.22,8.36,4.5
					c0.35,0.63,0.73,1.25,1.07,1.89c0.84,1.6,2.08,2.8,3.7,3.54c3.16,1.44,4.77,4.01,5.48,7.28c0.29,1.34,0.56,2.68,0.74,4.05
					c0.08,0.62-0.12,0.88-0.72,1.02c-4.57,1.08-8.96-1.41-10.43-5.94c-0.46-1.4-0.95-2.79-1.52-4.15c-1.18-2.81-3.3-4.58-6.09-5.64
					c-1.84-0.7-3.71-1.33-5.51-2.11C54,133.48,52.38,132.1,50.98,130.18z"/>
				<path class="st16" d="M227.31,196.91c0.66-0.41,1.14-0.7,1.62-0.99c1.7-1.04,3.38-2.14,4.9-3.43c0.96-0.82,2.01-0.9,3.13-0.7
					c1.68,0.3,3.22,0.08,4.69-0.83c1.65-1.02,3.06-2.3,4.43-3.65c1.89-1.86,3.93-3.53,6.25-4.85c1.54-0.87,3.18-1.32,5.09-1.13
					c-1.08,1.49-1.84,3.04-2.42,4.67c-0.31,0.88-0.55,1.78-0.87,2.66c-0.98,2.74-2.64,4.91-5.28,6.25
					c-0.82,0.42-1.73,0.55-2.62,0.67c-0.93,0.12-1.73,0.5-2.46,1.07c-0.27,0.21-0.55,0.39-0.8,0.62c-2.3,2.03-4.96,2.64-7.96,2.1
					C232.39,198.9,230.03,197.7,227.31,196.91z"/>
				<path class="st16" d="M54.03,122.05c-2.67-0.06-4.66-1.17-6.01-3.39c-0.52-0.86-0.67-1.78-0.37-2.76
					c0.22-0.74,0.68-1.05,1.45-0.98c1.03,0.09,2.02,0.49,3.07,0.39c0.52-0.05,1.03-0.11,1.51-0.33c0.84-0.4,1.31-1.05,1.32-2.02
					c0-0.76-0.17-1.49-0.43-2.2c-0.16-0.44-0.27-0.89-0.24-1.37c0.03-0.5,0.05-1.03,0.54-1.3c0.47-0.26,0.82,0.18,1.18,0.39
					c0.96,0.54,1.77,1.37,2.98,1.38c2.08,0.03,3.45-1.58,3.03-3.63c-0.1-0.48-0.27-0.95-0.35-1.43c-0.19-1.06,0.21-1.54,1.27-1.53
					c1.97,0.03,3.12,1.27,3.92,2.87c1.52,3.04,0.99,5.91-0.8,8.67c-0.95,1.46-2.13,2.74-3.25,4.06c-0.78,0.93-2.07,1.37-3.19,1.89
					C57.86,121.6,55.94,122.02,54.03,122.05z"/>
				<path class="st4" d="M74.22,97.78c0.5,2.2,1.3,4.27,2.28,6.27c0.7,1.45,1.43,2.87,1.96,4.4c0.76,2.15,1.08,4.35,1.08,6.62
					c-0.01,6.25,0,12.51,0,18.76c0,0.25,0,0.51,0,0.88c-0.76-0.6-1.28-1.27-1.72-1.97c-1.58-2.5-2.78-5.15-3.14-8.12
					c-0.1-0.85,0.05-1.67,0.29-2.45c0.92-2.93,0.59-5.78-0.33-8.63c-0.88-2.72-1.62-5.46-1.8-8.34
					C72.67,102.62,73.18,100.17,74.22,97.78z"/>
				<path class="st16" d="M249.09,163.56c-1.39,0.08-2.66-0.02-3.91-0.22c-1.92-0.3-3.28-1.49-4.26-3.09c-0.66-1.07-1-2.28-1.2-3.51
					c-0.21-1.25,0.36-2.43,1.31-2.81c0.86-0.35,1.57-0.09,2.01,0.76c0.39,0.76,0.72,1.55,1.27,2.22c0.56,0.68,1.22,1.15,2.14,0.99
					c0.89-0.16,1.36-0.78,1.63-1.59c0.25-0.74,0.49-1.47,0.77-2.2c0.17-0.44,0.43-0.91,0.99-0.84c0.58,0.07,0.76,0.6,0.83,1.09
					c0.1,0.72,0.12,1.44,0.32,2.15c0.26,0.94,0.76,1.46,1.53,1.55c0.76,0.09,1.5-0.34,1.93-1.17c0.33-0.65,0.66-1.29,1.24-1.77
					c0.82-0.68,1.5-0.53,1.85,0.48c0.45,1.29,0.1,2.55-0.26,3.8c-0.65,2.24-2.26,3.37-4.44,3.85
					C251.56,163.54,250.28,163.62,249.09,163.56z"/>
				<path class="st4" d="M239.8,172.93c-0.04,0.13-0.04,0.21-0.09,0.26c-1.27,1.48-2.01,3.18-2.21,5.12c-0.1,1.01-0.5,1.95-0.9,2.88
					c-0.35,0.81-0.9,1.44-1.68,1.88c-1.11,0.62-2.22,1.24-3.24,2c-1.41,1.05-2.36,2.39-2.61,4.16c-0.33,2.29-1.82,3.8-3.51,5.29
					c-0.23-2.44,0.1-4.73,0.48-7.02c0.19-1.16,0.52-2.27,0.92-3.37c0.09-0.25,0.14-0.51,0.56-0.52c3.42-0.09,5.26-1.46,6.3-4.65
					c0.1-0.32,0.25-0.65,0.25-0.97c0.03-1.62,1.2-2.51,2.21-3.49C237.23,173.57,238.48,173.2,239.8,172.93z"/>
				<path class="st16" d="M215.87,119.9c0.13-4.35,2.11-7.61,5.27-10.28c1.42-1.2,2.96-2.16,4.61-3c0.63-0.32,0.68-0.06,0.65,0.47
					c-0.19,3.25-1.17,6.17-3.42,8.63c-1.05,1.15-2.17,2.23-3.33,3.27c-0.96,0.87-2.17,1.34-3.38,1.69
					C215.49,120.91,215.8,120.42,215.87,119.9z"/>
				<path class="st16" d="M194.05,186.46c1.64-4.51,4.48-7.71,8.99-9.35c1.57-0.57,3.17-0.94,4.83-1.08c0.67-0.06,0.8,0.16,0.5,0.72
					c-1.92,3.6-4.09,6.92-8.34,8.16C198.07,185.48,196.16,186.2,194.05,186.46z"/>
				<path class="st16" d="M45.47,181.79c-0.13,0.01-0.26,0-0.39,0.04c-0.55,0.17-0.52-0.08-0.41-0.5c0.86-3.29,2.54-5.96,5.52-7.77
					c1.79-1.09,3.68-1.88,5.7-2.41c0.78-0.21,0.83-0.15,0.68,0.69C55.45,177.99,50.65,181.31,45.47,181.79z"/>
				<path class="st16" d="M36.72,124.26c2.51,2.06,5.23,3.75,6.48,6.86c0.71,1.76,1.06,3.57,0.75,5.46
					c-0.15,0.94-0.62,1.22-1.54,0.96c-1.95-0.55-3.48-1.66-4.53-3.42c-1.09-1.83-1.65-3.77-1.51-5.92
					C36.44,126.92,36.38,125.62,36.72,124.26z"/>
				<path class="st4" d="M219.56,132.23c-0.05-0.45,0.23-0.78,0.38-1.17c0.38-0.99,0.09-1.6-0.9-1.92
					c-0.76-0.24-1.54-0.19-2.31-0.09c-0.25,0.03-0.5,0.11-0.83,0.02c1.11-1,2.46-1.2,3.79-1.46c0.41-0.08,0.82-0.1,1.23-0.16
					c1.8-0.28,3.14,0.69,4.56,1.58c1.61,1.01,1.59,2.46,1.28,4.02c-0.31,1.55-0.77,3.05-1.85,4.4c-0.28-0.82-0.32-1.56-0.31-2.3
					c0.01-0.51,0.11-1.08-0.44-1.39c-0.57-0.32-1.04-0.02-1.5,0.3c-0.08,0.06-0.18,0.09-0.26,0.12c-0.05-0.06-0.1-0.09-0.11-0.12
					c-0.1-1.95-0.27-2.06-2.67-1.79L219.56,132.23z"/>
				<path class="st4" d="M209.71,100.39c0.9,3.36,2.29,3.18,4.01,0.85c0.04,0.02,0.1,0.04,0.1,0.07c0.5,1.76,1.09,1.96,2.53,0.85
					c0.43-0.33,0.98-0.94,1.37-0.67c0.46,0.32,0.05,1.04-0.12,1.56c-0.75,2.29-2.67,3.25-4.78,3.41c-2.54,0.2-5.04-0.38-7.04-2.21
					c-0.56-0.52-0.95-1.16-1.34-1.8c-0.09-0.15-0.23-0.35-0.1-0.5c0.19-0.21,0.39,0,0.54,0.11c0.73,0.52,1.53,0.83,2.44,0.88
					c0.99,0.06,1.5-0.24,1.81-1.19C209.29,101.32,209.37,100.85,209.71,100.39z"/>
				<path class="st4" d="M48.36,161.35c0.4-0.37,0.89-0.41,1.3-0.6c1.43-0.64,1.66-1.85,0.56-2.97c-0.63-0.64-1.42-1.04-2.17-1.5
					c-0.2-0.12-0.41-0.23-0.6-0.36c-0.14-0.1-0.32-0.21-0.26-0.43c0.05-0.18,0.24-0.17,0.39-0.2c0.89-0.18,1.76,0,2.59,0.29
					c1.76,0.61,3.16,1.76,4.36,3.15c0.52,0.6,0.3,1.41,0.19,2.09c-0.21,1.31-0.62,2.6-1.41,3.67c-0.82,1.11-2.06,1.62-3.4,1.8
					c-0.52,0.07-0.68-0.34-0.45-0.78c0.19-0.36,0.48-0.67,0.71-1.01c0.52-0.77,0.41-1.55-0.33-2.12
					C49.38,162.02,48.88,161.71,48.36,161.35z"/>
				<path class="st4" d="M57.44,148.63c-1.02-0.14-2-0.3-2.46-1.49c-0.37-0.97-0.97-1.84-1.65-2.62c-0.61-0.7-0.36-1.37-0.09-2.02
					c0.3-0.71,0.8-1.27,1.65-1.36c0.39-0.04,0.77,0.03,1.14,0.16c0.87,0.3,1.02,0.57,0.57,1.37c-0.46,0.8-0.29,1.43,0.36,1.99
					c0.23,0.21,0.35,0.35,0.13,0.69c-0.48,0.74-0.35,1.26,0.33,1.82c0.14,0.12,0.3,0.21,0.44,0.32c0.28,0.22,0.75,0.4,0.63,0.79
					C58.36,148.71,57.84,148.56,57.44,148.63z"/>
				<path class="st16" d="M49.21,197.7c2.61-2.07,5.09-3.92,8.3-4.56c2.15-0.42,4.24-0.6,6.37,0.02c0.57,0.17,0.7,0.34,0.38,0.89
					c-0.43,0.75-1.12,1.2-1.75,1.74c-2.28,1.98-4.94,2.98-7.94,3.08C52.75,198.94,51.09,198.25,49.21,197.7z"/>
				<path class="st4" d="M69.18,194.69c3.48,4.22,1.89,9.34-1.97,11.65c-0.02-0.07-0.07-0.14-0.07-0.21
					c0.1-1.92-0.26-3.83-0.15-5.74C67.1,198.27,67.85,196.37,69.18,194.69z"/>
				<path class="st16" d="M137.4,160.68c0,7.11-0.01,14.21,0.02,21.32c0,0.76-0.22,0.95-0.96,0.95c-5.19-0.03-10.38-0.04-15.56-0.01
					c-0.71,0-0.91-0.19-0.91-0.91c0.02-14.24,0.02-28.48,0-42.72c0-0.65,0.12-0.9,0.85-0.9c5.24,0.01,10.48-0.02,15.72-0.07
					c0.69-0.01,0.87,0.19,0.87,0.87C137.39,146.36,137.4,153.52,137.4,160.68z"/>
				<path class="st16" d="M92.25,154.84c-1.52-5.43,0.3-11.17,4.51-15.01C99.3,145.32,98.36,150.78,92.25,154.84z"/>
				<path class="st16" d="M213.03,195.98c0.05-3.6,1.17-6.8,3.55-9.53c0.3-0.35,0.69-0.63,1.03-0.95c0.84-0.79,0.86-0.78,1.17,0.3
					c0.49,1.67,0.89,3.36,0.61,5.12c-0.35,2.21-1.66,3.8-3.4,5.09c-0.81,0.6-1.63,1.19-2.45,1.78c-0.35,0.25-0.51,0.16-0.51-0.26
					C213.03,197.02,213.03,196.5,213.03,195.98z"/>
			</g>
			<path class="st16" d="M230.19,211.06c2.61-2.07,5.09-3.92,8.3-4.56c2.15-0.42,4.24-0.6,6.37,0.02c0.57,0.17,0.7,0.34,0.38,0.89
				c-0.43,0.75-1.12,1.2-1.75,1.74c-2.28,1.98-4.94,2.98-7.94,3.08C233.72,212.31,232.06,211.62,230.19,211.06z"/>
			<path class="st4" d="M264.42,168.17c-1.21,5.34-6.22,7.21-10.42,5.58c0.04-0.06,0.07-0.14,0.12-0.18
				c1.58-1.1,2.87-2.55,4.44-3.64C260.31,168.72,262.27,168.16,264.42,168.17z"/>
			<path class="st16" d="M46.12,212.26c1.93-2.71,3.81-5.18,6.72-6.67c1.95-1,3.91-1.75,6.13-1.73c0.6,0,0.77,0.14,0.62,0.75
				c-0.21,0.84-0.75,1.47-1.2,2.16c-1.64,2.53-3.93,4.23-6.78,5.16C49.87,212.48,48.08,212.27,46.12,212.26z"/>
			<path class="st16" d="M232.5,110.38c3.11-1.2,5.96-2.4,8.13-4.85c1.45-1.64,2.67-3.35,3.2-5.5c0.14-0.58,0.06-0.78-0.58-0.78
				c-0.86,0-1.61,0.36-2.39,0.62c-2.86,0.96-5.07,2.75-6.68,5.29C233.21,106.7,232.97,108.48,232.5,110.38z"/>
			<path class="st4" d="M234.4,87.68c-5.08,2.04-6.12,7.3-3.84,11.17c0.06-0.05,0.13-0.09,0.16-0.15c0.83-1.73,2.06-3.24,2.88-4.97
				C234.51,91.81,234.76,89.79,234.4,87.68z"/>
		</g>
		<path class="st16" d="M126.68,103.35c-2.71-1.93-5.18-3.8-6.67-6.72c-1-1.95-1.75-3.91-1.74-6.12c0-0.6,0.14-0.77,0.75-0.62
			c0.84,0.21,1.47,0.75,2.16,1.2c2.53,1.64,4.23,3.93,5.16,6.78C126.9,99.6,126.69,101.39,126.68,103.35z"/>
		<path class="st4" d="M125.68,76.35c4.41,3.24,4.12,8.59,0.94,11.78c-0.04-0.06-0.1-0.12-0.12-0.18c-0.38-1.88-1.19-3.65-1.56-5.53
			C124.54,80.33,124.81,78.31,125.68,76.35z"/>
		<path class="st4" d="M135.76,86.9c-4.97,2.3-5.75,7.6-3.27,11.35c0.05-0.05,0.12-0.1,0.15-0.16c0.74-1.77,1.89-3.34,2.63-5.11
			C136.08,91.02,136.22,88.99,135.76,86.9z"/>
		<path class="st4" d="M73.18,74.72c4.85,2.53,5.37,7.87,2.72,11.5c-0.05-0.06-0.12-0.1-0.14-0.16c-0.66-1.8-1.73-3.42-2.38-5.23
			C72.66,78.83,72.62,76.79,73.18,74.72z"/>
		<path class="st4" d="M245.83,79.06c2.76,4.73,0.37,9.52-3.81,11.18c-0.01-0.08-0.05-0.15-0.03-0.22c0.4-1.88,0.36-3.82,0.77-5.69
			C243.21,82.26,244.25,80.51,245.83,79.06z"/>
	</g>
</g>
</svg>
