<?xml version="1.0" encoding="utf-8"?>
<!-- Generator: Adobe Illustrator 22.1.0, SVG Export Plug-In . SVG Version: 6.00 Build 0)  -->
<svg version="1.1" id="Layer_1" xmlns="http://www.w3.org/2000/svg" xmlns:xlink="http://www.w3.org/1999/xlink" x="0px" y="0px"
	 viewBox="0 0 500 500" style="enable-background:new 0 0 500 500;" xml:space="preserve">
<style type="text/css">
	.st0{fill:#50A5A6;}
</style>
<g>
	<path class="st0" d="M166.7,270.9c3.2-3.7,5.5-6.3,8.2-9c2.6-2.9,5.5-4.2,9.5-4c3.7,0.5,5.8,2.1,6.1,6.1c0.3,3.7,0,7.6-0.5,11.3
		c-0.3,3.7-1.3,7.4-1.6,11.3c-0.5,5.3-0.5,10.5,5.3,13.4c-3.7,3.7-5.5,4.2-9.5,2.6c-5.3-2.6-8.7-6.9-9-12.6c0-4.2,0.8-8.4,1.3-12.4
		c0.5-2.4,1.6-4.7,1.3-7.9c-1.3,1.8-3.2,3.4-4.2,5.5c-4,6.9-7.6,14-11.3,21.1c-1.3,2.1-2.6,4.5-4.5,6.1c-2.4,2.1-5.3,3.7-8.7,1.8
		c-3.7-1.8-6.1-5-5.3-9.2c1.1-6.6,2.4-13.2,4-19.8c0.8-3.7,2.6-7.1,3.7-10.8c0.5-2.1,0.8-4.5,1.3-7.4c-7.6,0.8-13.7,4-20.3,7.4
		c1.1,5,2.4,10,2.6,15c1.3,16.1-4.7,25.6-17.7,30.8c-9.2,3.7-14.8,0.5-15.8-9.5c-0.3-1.6-0.5-3.2-0.8-4.7c-5.8,0.5-9,2.9-10.3,8.2
		c-3.7,14.5-9.8,28.2-16.1,41.9c-4,9-12.1,14-20.6,17.9c-2.4,1.1-5.3,0.8-8.2,0.5c-4.7-0.5-7.6-3.7-7.9-8.4c-0.3-3.2,0-6.3,0.8-9.5
		c2.9-12.4,8.7-23.2,18.7-31.6c4-3.2,7.9-6.3,11.6-9.8c2.1-1.8,4.2-4.5,4.7-7.1c2.6-11.3,4.7-22.7,6.9-34c0-0.5-0.3-1.1-0.8-2.4
		c-1.6,1.8-3.2,3.4-4.2,5c-4.7,6.6-9.8,13.2-14.5,20c-5.3,7.6-13.4,11.6-21.9,14c-5.5,1.6-12.1-3.7-12.4-9.8c0-4.2,0.3-8.4,1.8-12.4
		c3.7-9.8,10.8-16.6,20.3-20.8c3.7-1.6,8.7-1.6,12.9-1.6c1.8,0,3.7,1.8,5.8,2.9c-1.3,3.7-3.7,4.5-6.3,4.5c-5.5,0-9,2.6-11.3,7.4
		c-2.1,4.2-4.2,8.7-6.3,12.9c-1.1,2.4-2.1,4.5-0.5,7.4c5-0.8,7.9-4.5,10.5-8.2c4.5-6.1,8.7-12.4,13.4-18.4c3.2-4,7.1-7.9,11.1-11.1
		c6.3-5,14.2-2.1,16.3,5.8c1.6,5.8,1.8,11.6,0.8,17.7c-0.8,4.2-1.1,8.2-1.6,12.4c6.9,0.8,8.7,0,11.6-5.3c3.7-6.6,8.4-11.9,13.7-17.1
		c8.2-8.2,18.2-11.9,28.5-15.3c1.8-0.8,4.2-1.1,6.1-1.1c8.4-0.3,12.9,4.2,13.4,12.4C166.7,265.1,166.7,267.2,166.7,270.9z
		 M67.6,316.8c-11.6,8.7-19.2,19.8-21.6,34c-0.3,1.6,0.3,3.2,0.5,4.5c3.7,0.8,5.3-1.3,6.6-3.4c2.4-4,5-7.9,7.1-11.9
		C63.9,332.6,66.5,324.9,67.6,316.8z M124.5,273.6c-5.8,8.7-10.3,17.1-9.8,27.9C124,299.1,129,285.4,124.5,273.6z"/>
	<path class="st0" d="M347.4,413.2c-1.6,2.4-3.4,1.6-5.3,1.1c-6.6-1.8-11.6-6.1-15.3-11.6c-5.8-8.4-8.7-17.7-9-27.9
		c0-2.9,0-5.8,0-9.2c-3.4,1.1-3.7,3.7-5,5.5c-3.7,5-7.1,10-10.8,14.5c-2.6,3.2-6.9,4.2-10.8,3.7c-5.8-0.5-9.8-4.5-9.8-10.5
		c0.3-9.5,3.4-17.9,11.6-23.5c6.6-4.5,13.4-5.8,20.6-1.3c3.4,2.1,6.3,1.1,7.9-3.2c2.4-5.8,4.2-11.9,6.6-17.7
		c3.2-7.6,6.3-15.3,9.8-22.7c3.2-7.1,7.9-13.2,13.7-18.7c6.3-6.3,14.5-9.5,22.4-12.4c7.4-2.6,14,3.2,13.7,11.1
		c-0.3,7.1-2.6,13.4-6.1,19.5c-8.7,15.5-21.6,27.4-34,39.5c-0.8,0.8-1.6,1.6-2.4,1.8c-6.9,3.2-9.5,9.2-10.8,16.1
		c-0.8,4-1.8,7.9-2.1,11.9c-1.1,13.2,2.9,24.5,14.5,32.4C346.9,411.9,347.2,412.4,347.4,413.2z M342.4,340c1.6-0.3,1.8-0.3,2.1-0.5
		c13.7-11.1,23.2-25.3,31.6-40.3c1.6-2.9,2.1-5.8,1.3-9.2c-4-0.5-6.6,1.3-9,3.7c-8.2,8.2-14.5,17.4-18.7,27.9
		C347.4,327.6,345.1,333.1,342.4,340z M309.5,361.8c-1.8-2.9-3.4-4.7-6.6-2.9c-6.9,4-11.1,14.8-8.4,23.5
		C302.4,377.4,305,369.2,309.5,361.8z"/>
	<path class="st0" d="M301.3,157.6c0.8-2.9,1.6-5.3,2.4-7.6c3.4-10.3,6.3-20.6,10-30.6c2.9-8.7,8.2-16.1,14.2-22.9
		c5-5.8,11.3-9.2,19-10.3c9-1.3,14.5,4,13.2,12.9c-1.3,10-4.7,19.2-10,27.7c-6.1,10-12.9,19.5-21.9,26.9
		c-7.9,6.6-11.9,14.5-13.2,24.2c-0.8,7.4-1.8,14.8-1.6,21.9c0.3,4.7,2.4,9.5,4,15.3c-1.1,1.8-3.2,1.3-5.3,0.3
		c-5.3-2.4-9.2-6.3-10.5-11.9s-2.1-11.1-2.6-16.9c-0.3-3.4,0-7.1-1.1-11.1c-0.8,1.1-1.3,2.1-2.1,3.2c-2.6,3.7-4.7,7.4-7.6,10.8
		c-2.9,3.4-7.4,4.2-11.6,4c-4.5-0.3-8.2-3.7-9.2-8.4c-1.1-4.5-0.5-8.7,2.1-12.6C276.8,160.8,286.8,155.2,301.3,157.6z M324,145.8
		c13.4-11.6,31.4-38.7,26.4-51.9c-1.8,1.3-3.7,2.1-4.7,3.7c-8.7,12.6-17.1,25.6-20.3,41.1C324.5,140.5,324.3,142.9,324,145.8z
		 M294,164.7c-9.8,3.4-15.5,13.2-12.9,20C285.5,177.6,289.7,171.1,294,164.7z"/>
	<path class="st0" d="M131.6,200.8c4.2,7.6,9.5,11.6,17.7,11.9c2.1,0,4.5,0.8,6.9,1.1c-3.7,5.5-9.5,6.6-19,4
		c-7.1-1.8-12.1-6.3-17.4-11.9c-1.6,5.3,0,9.2,1.3,13.2c-1.3,2.9-3.7,3.7-6.3,3.2c-3.7-0.5-6.6-2.6-7.4-6.1
		c-1.3-5.3-2.6-10.8-2.9-16.1c-0.3-6.3,0.5-12.6,1.3-19c1.8-13.2,3.7-26.4,6.3-39.3c1.1-4.7,4.2-9,6.6-13.4c1.3-2.1,3.2-4.2,6.3-3.2
		c2.6,0.8,4.7,4.5,4.2,7.9c-0.5,2.9-1.1,5.8-2.1,8.7c-2.1,7.4-3.7,14.5-3.2,22.4c0.8-1.3,1.6-2.6,2.1-4.2c4-7.9,9-15.3,15.5-21.3
		c7.9-7.4,17.1-10.5,27.7-10.5c7.1,0,10.3,3.7,9.2,10.8c-1.6,10.3-4.7,20-11.9,28.2c-1.3,1.6-2.6,3.4-3.7,5
		C154,184,145.6,195,131.6,200.8z M166.4,135.7c-5-0.8-8.7,0.5-11.9,3.2c-4.2,3.4-8.4,7.1-11.9,11.3c-9.2,11.3-13.7,25-17.9,38.7
		c0,0.5,0.3,1.1,0.8,2.4c4-3.7,8.2-6.9,11.3-10.8c8.2-10,16.1-20,23.7-30.3C163.5,146,165.9,141.5,166.4,135.7z"/>
	<path class="st0" d="M145.3,391.9c3.2,4.7,6.6,7.6,11.1,9c4.2,1.1,8.4,1.3,14,2.1c-4.7,4.2-9,5-13.7,4.2c-4.2-0.8-8.7-1.8-12.6-3.7
		c-4-1.8-7.6-5-12.6-8.2c1.1,4.7,1.8,8.4,2.6,11.9c-5.3,3.7-11.9,2.4-14-4.2c-1.8-5.5-3.2-11.6-2.9-17.1c0.8-12.4,2.6-24.8,4.5-36.9
		c1.1-6.3,2.6-12.4,7.4-17.1c2.1-2.1,4-4.7,7.4-2.9c3.2,1.6,4.2,4.2,3.2,8.4c-1.6,6.9-3.2,14-4.7,20.8c-0.3,1.1-0.3,2.1,0.5,3.4
		c1.1-1.6,1.8-3.2,2.9-4.5c4.2-5.3,8.2-10.8,12.9-15.3c8.2-7.6,18.7-10,29.8-9.5c6.6,0.3,9.2,4,7.9,10.5
		c-1.3,8.2-4.5,15.8-10.5,21.9c-3.4,3.4-6.6,7.1-9.8,10.8c-5.8,6.6-12.4,11.9-20.6,15.3C147.4,390.6,146.6,391.1,145.3,391.9z
		 M177.5,337.6c-7.1-0.8-12.4,1.8-17.1,5.8c-12.4,10-18.2,23.7-22.9,38.5C147.7,379,175.6,348.1,177.5,337.6z"/>
	<path class="st0" d="M392,140.2c2.1,0,4,0,5.8,0.3c2.4,0.3,4.7,0.5,6.6,1.3c5,2.1,6.3,4.5,5.5,10c-1.8,12.6-3.7,25.3-5.8,37.9
		c-1.3,8.4-2.9,17.1,1.3,25.3c-6.1,2.4-9.2,1.6-12.9-3.4c-5-6.9-5.5-14.8-4.2-22.9c2.1-12.6,4.2-25.3,6.1-37.9c0-0.8,0-1.6,0.3-2.4
		c-6.6-1.6-6.9-1.1-8.4,4.7c-3.7,15-10.8,28.2-21.3,39.5c-3.7,4.2-8.7,6.6-14.2,7.4c-10.8,1.8-19.2-4-21.3-14.8
		c-2.4-11.9,5-28.5,15.5-34.5c4.2-2.4,8.4-3.7,13.2-2.4c5,1.3,7.4,5,6.1,10c-2.6,10.3-6.6,19.5-15.5,26.1c-1.3,1.1-2.9,1.8-4,3.2
		c-0.8,1.1-1.8,2.9-1.3,3.7c0.8,1.3,2.4,2.4,4,2.6c1.3,0.3,3.2-0.3,4.2-0.8c3.2-2.1,6.6-4,8.7-7.1c4.5-6.3,9-12.9,11.9-20
		c2.4-5.3,2.9-11.3,3.7-17.1c0.8-4.2,0.5-8.4,1.1-12.6c0.5-4,4.7-6.6,9.5-6.3c2.9,0.3,4,1.8,4.7,6.3
		C391.5,137.8,391.7,138.9,392,140.2z M342.4,178.7c7.4-3.7,13.4-15.5,12.4-23.7C347.4,161.3,343.8,168.7,342.4,178.7z"/>
	<path class="st0" d="M197.2,398.2c7.1-1.8,12.1-6.3,17.1-10.8c4.7-4.2,8.4-8.7,9.8-15.5c1.6-9.2,8.4-15.3,16.3-19.8
		c5.8-3.4,10.8-1.8,15.8,3.7c1.8-1.6,4-2.9,5.8-4.7c3.2-2.6,6.3-3.2,10-1.3c3.2,1.6,4,4.7,3.4,9.2c-1.6,10.3-2.9,20.3-4.5,30.6
		c-0.3,1.8-0.5,3.7-1.1,5.5c-0.5,2.9-1.3,6.1-4.7,6.6c-2.9,0.5-6.9-2.6-7.6-6.6c-1.6-7.4-2.4-15-1.1-22.7c0.3-1.6,0.5-3.2-0.3-5.5
		c-1.6,2.1-3.2,4.2-4.5,6.3c-2.1,3.2-4.2,6.3-6.6,9.2c-6.3,7.9-12.1,8.7-20.3,2.9c-0.3-0.3-0.8-0.3-1.6-0.5
		c-3.4,7.1-10,11.3-16.6,15.5c-3.7,2.6-7.9,4-12.4,4.2c-4.2,0.3-7.4-1.3-9.8-4.7c-2.9-4.2-5-9-5-14c0.3-14.8,5.8-26.4,19.8-33.2
		c4.5-2.1,8.7-2.9,13.4-0.8c3.7,1.6,5,3.2,4.5,7.4c-0.3,2.4-0.8,5-1.8,7.4c-3.7,8.2-8.2,15.5-16.1,20.6
		C194.1,390.3,193.8,391.9,197.2,398.2z M253.4,358.9c-5-2.1-8.2,0-10.8,3.4c-3.7,4.5-6.1,9.5-7.1,15c-0.3,1.3,0.3,2.6,0.5,4
		c0.5,0.3,0.8,0.3,1.3,0.5C242.3,374.2,247.6,366.6,253.4,358.9z M195.9,380.5c7.4-5.3,13.2-16.6,11.9-22.1
		C201.7,360.3,195.1,372.9,195.9,380.5z"/>
	<path class="st0" d="M450.5,172.6c-2.9,1.3-5.8,2.6-8.7,4c-5.3,2.9-10.5,4-16.3,3.7c-9.2-0.5-13.4-7.4-10-15.8
		c3.4-7.9,8.2-14.8,15.5-19.5c6.1-4.2,12.9-5,20-3.2c2.4,0.5,5,1.3,5.5,4.7c-1.6,2.6-4.2,2.6-7.1,2.6c-2.1-0.3-4.7-0.3-6.6,0.8
		c-8.4,5.3-13.4,12.9-16.6,22.4c3.2,1.6,5.3-0.3,7.4-1.3c4.2-1.6,8.2-3.4,12.4-4.7c2.4-0.8,5-0.8,7.4-0.5c8.2,0.8,11.1,5.5,7.9,13.2
		c-0.8,2.4-1.8,4.5-2.9,7.1c10.3,3.2,19-1.8,28.5-2.9c0.3,4.5-2.6,5.5-5.3,6.6c-7.1,2.9-14.8,4.2-22.4,3.2c-4.5-0.5-7.1,0.5-9.5,4.2
		c-2.6,3.7-5.8,7.4-9.2,10.3c-6.6,5.5-14.5,7.4-22.9,5c-3.4-0.8-4.2-3.4-4-6.3c0.5-6.6,4.2-11.6,9.5-14.8c3.2-2.1,7.4-4,11.1-4
		C444.2,187.4,447.3,180.5,450.5,172.6z M422.3,205.6c5.8-3.4,9.5-7.4,13.7-12.1C428.1,194.2,424.4,197.4,422.3,205.6z"/>
	<path class="st0" d="M221.7,270.1c2.4-3.4,4.7-6.9,7.1-10c3.2-4.5,6.9-7.9,11.9-10c7.4-3.4,12.1,0,11.3,8.2
		c-0.5,4.5-1.3,8.7-2.1,13.2c-1.6,11.3-1.3,11.9,6.3,19.5c-1.8,2.6-4.5,2.4-7.1,1.8c-9.2-1.8-14.8-9.8-14.2-19.5
		c0.3-2.1,0.5-4.5-0.3-6.9c-0.8,1.1-2.1,2.1-2.6,3.2c-2.9,6.1-6.1,11.9-8.7,18.2c-2.4,6.3-4.5,12.6-6.1,19.2
		c-0.8,2.9-1.6,4.5-4.7,4.7c-2.9,0.3-5.3-0.8-6.1-3.2c-1.8-5-3.7-10.3-4.7-15.5c-0.5-3.2-0.3-6.9,0.8-10c2.6-10,5.8-20,9-30
		c0.3-0.8,0.5-1.6,1.1-2.4c1.3-2.4,3.2-4,6.1-3.4c2.9,0.5,4.2,2.9,4.2,5.5c-0.3,3.4-0.8,7.1-1.3,10.5c-0.3,2.4-0.8,4.5-1.1,6.9
		C220.7,269.9,221.2,270.1,221.7,270.1z"/>
	<path class="st0" d="M275.8,285.9c1.8-1.8,3.4-3.2,4.5-4.7c4.7-6.1,9.2-12.6,14.2-18.4c4-4.7,8.4-8.7,12.9-12.9
		c2.9-2.6,6.3-3.4,9.8-1.1c3.4,2.4,4,5.8,3.2,9.5c-0.8,4-1.8,7.6-2.9,11.6c-2.1,9.2-2.6,18.2-2.1,27.7c0,0.5,0,0.8,0,1.3
		c0.3,5.5-0.5,7.1-3.4,7.6c-3.4,0.5-7.9-1.8-9-5.5c-1.3-4.7-2.6-9.8-2.9-14.8c-0.3-5.5,0.5-11.3,0.8-16.9c0-1.3,0.3-2.9-0.5-4.7
		c-1.1,1.6-2.4,3.2-3.4,4.7c-3.4,5.3-6.9,10.8-10.5,15.8c-1.8,2.6-4.5,5.3-7.1,7.1c-7.4,5-15.5,1.6-16.3-7.1
		c-0.5-4.7,0.3-10.3,1.8-14.8c2.9-8.7,9.8-14.2,18.4-16.9c1.8-0.5,4.2-0.8,6.1-0.5c1.6,0.3,3.7,1.6,4.2,3.2c0.8,2.4-1.8,2.6-3.7,3.4
		C280.5,262.8,274.2,274.1,275.8,285.9z"/>
	<path class="st0" d="M241,172.9c-1.3,1.8-2.4,3.7-4,5.5c-2.6,3.4-5,7.4-8.2,10.3c-2.1,2.1-5.3,3.7-8.2,4.5c-5,1.6-9.5-1.1-10.5-6.1
		c-0.8-3.4-0.8-7.6,0.3-11.1c3.2-12.9,16.9-21.1,29.8-18.2c2.6-2.4,5-4.7,7.9-7.1c2.9-2.4,6.3-3.4,10-1.1c3.4,2.1,4.2,5.5,3.4,9.5
		c-0.8,3.7-2.4,7.4-2.6,11.1c-0.8,7.1-1.1,14.2-1.6,21.3c-0.3,3.2-0.3,6.3-0.8,9.5c-0.8,3.7-3.2,4.7-6.6,3.2
		c-3.4-1.3-5.8-3.4-6.3-7.4c-0.5-5.5-0.8-11.3-1.1-16.9c0-2.1,0-4.5,0-6.6C241.8,173.2,241.5,173.2,241,172.9z M220.7,185.3
		c5.3-3.7,13.4-15.5,15-21.6c-3.7-1.6-5.3,1.1-7.4,3.2C223.9,171.8,220.7,177.6,220.7,185.3z"/>
	<path class="st0" d="M185.6,211.1c1.8-2.6,3.2-4.2,4.2-6.1c2.4-3.4,4.5-7.1,7.1-10.3c1.6-1.8,3.7-3.2,6.1-4.5
		c0.5-0.3,2.1,0,2.6,0.5c0.5,0.5,0.8,2.1,0.3,2.9c-4,6.3-7.4,12.9-12.1,18.4c-4.5,5.5-11.6,5.5-17.7,1.8c-7.6-4.7-9.5-11.9-9.5-20
		c0-15,6.1-27.4,17.7-36.9c2.4-1.8,5.3-3.4,8.4-4c5.3-1.3,9,1.3,10.3,6.6c1.8,7.4,0,14-5.3,19c-3.4,3.4-7.4,6.6-11.3,9
		c-3.4,2.1-4.7,4.5-4.7,8.2C182,200.6,182.7,205.3,185.6,211.1z M185.4,179.7c8.2-2.6,11.9-10.3,8.7-19.2
		C188.5,164.5,184.9,172.6,185.4,179.7z"/>
</g>
</svg>
