<?xml version="1.0" encoding="utf-8"?>
<!-- Generator: Adobe Illustrator 28.0.0, SVG Export Plug-In . SVG Version: 6.00 Build 0)  -->
<svg version="1.1" id="Layer_1" xmlns="http://www.w3.org/2000/svg" xmlns:xlink="http://www.w3.org/1999/xlink" x="0px" y="0px"
	 viewBox="0 0 300 300" style="enable-background:new 0 0 300 300;" xml:space="preserve">
<g>
	<polygon points="72.33,157.65 72.33,106.46 61.69,106.46 54.79,143.23 47.6,106.46 36.53,106.46 36.53,157.65 44.24,157.65 
		44.24,125.56 51.71,157.65 57.92,157.65 64.61,125.48 64.61,157.65 	"/>
	<path d="M81.11,118.09v27.92c0,3.37,1.18,6.26,3.55,8.65c2.37,2.39,5.25,3.59,8.65,3.59c3.37,0,6.26-1.19,8.65-3.57
		c2.39-2.38,3.59-5.27,3.59-8.67v-27.92c0-3.37-1.19-6.26-3.57-8.65c-2.38-2.4-5.27-3.59-8.67-3.59c-3.35,0-6.22,1.19-8.61,3.57
		C82.31,111.8,81.11,114.69,81.11,118.09z M88.67,117.93c0-1.22,0.43-2.26,1.31-3.12c0.87-0.86,1.92-1.29,3.14-1.29
		c1.23,0,2.27,0.43,3.12,1.29c0.86,0.86,1.29,1.9,1.29,3.12v28c0,1.23-0.43,2.27-1.29,3.12c-0.86,0.86-1.9,1.29-3.12,1.29
		c-1.22,0-2.27-0.43-3.14-1.29c-0.87-0.86-1.31-1.9-1.31-3.12V117.93z"/>
	<path d="M138.68,126.14v-7.43c0-3.7-0.88-6.59-2.65-8.65c-2.01-2.37-5.17-3.55-9.47-3.55h-12.16v51.15h7.71v-19.27h4.45
		c0.24,0,0.48,0,0.69,0l4.68,19.27h8.34l-5.71-22.33C137.31,132.82,138.68,129.75,138.68,126.14z M131.17,126.3
		c0,1.23-0.43,2.27-1.29,3.14c-0.86,0.87-1.9,1.31-3.12,1.31h-4.65v-16.37h4.65c2.94,0,4.41,1.48,4.41,4.45V126.3z"/>
	<polygon points="170.86,114.22 170.86,106.46 148.9,106.46 148.9,157.65 170.86,157.65 170.86,149.89 156.61,149.89 156.61,135.93 
		167.02,135.93 167.02,128.18 156.61,128.18 156.61,114.22 	"/>
	<polygon points="46.32,210.09 38.61,210.09 38.61,261.24 59.63,261.24 59.63,253.57 46.32,253.57 	"/>
	<polygon points="66.95,261.24 88.91,261.24 88.91,253.48 74.66,253.48 74.66,239.52 85.07,239.52 85.07,231.77 74.66,231.77 
		74.66,217.81 88.91,217.81 88.91,210.05 66.95,210.05 	"/>
	<path d="M119.41,241.2c-1.03-1.85-2.5-3.73-4.41-5.63c-0.57-0.6-1.76-1.65-3.55-3.14c-1.52-1.25-2.67-2.34-3.43-3.27
		c-2.01-2.42-3.02-4.8-3.02-7.14c0-1.5,0.3-2.75,0.9-3.76c0.74-1.25,1.81-1.88,3.23-1.88c1.33,0,2.35,0.42,3.06,1.26
		c0.98,1.17,1.58,2.8,1.8,4.9l7.39-1.35c-0.19-2.23-0.76-4.2-1.69-5.92c-0.94-1.71-2.17-3.05-3.69-4c-1.96-1.22-4.31-1.84-7.06-1.84
		c-2.86,0-5.25,0.72-7.18,2.16c-3.13,2.4-4.69,5.92-4.69,10.58c0,2.59,0.57,4.98,1.71,7.19c1.06,1.96,2.87,4.18,5.43,6.66
		c3.05,2.89,5.33,5.05,6.86,6.5c1.93,2.1,2.9,4.21,2.9,6.33c0,1.47-0.26,2.6-0.78,3.39c-1.01,1.61-2.35,2.44-4.04,2.49
		c-1.2,0.05-2.26-0.42-3.18-1.44c-1.25-1.34-2.04-3.5-2.37-6.48l-7.35,0.53c0.16,2.72,0.73,5.14,1.69,7.25
		c0.97,2.11,2.28,3.78,3.94,5c1.99,1.5,4.49,2.25,7.51,2.25c1.63,0,3.06-0.19,4.29-0.57c2.29-0.71,4.06-1.92,5.31-3.63
		c1.9-2.53,2.83-5.58,2.78-9.14c-0.03-1.44-0.41-3.08-1.14-4.9C120.3,242.87,119.9,242.07,119.41,241.2z"/>
	<path d="M152.24,241.2c-1.03-1.85-2.5-3.73-4.41-5.63c-0.57-0.6-1.76-1.65-3.55-3.14c-1.52-1.25-2.67-2.34-3.43-3.27
		c-2.01-2.42-3.02-4.8-3.02-7.14c0-1.5,0.3-2.75,0.9-3.76c0.74-1.25,1.81-1.88,3.23-1.88c1.33,0,2.35,0.42,3.06,1.26
		c0.98,1.17,1.58,2.8,1.8,4.9l7.39-1.35c-0.19-2.23-0.76-4.2-1.69-5.92c-0.94-1.71-2.17-3.05-3.69-4c-1.96-1.22-4.31-1.84-7.06-1.84
		c-2.86,0-5.25,0.72-7.18,2.16c-3.13,2.4-4.69,5.92-4.69,10.58c0,2.59,0.57,4.98,1.71,7.19c1.06,1.96,2.87,4.18,5.43,6.66
		c3.05,2.89,5.33,5.05,6.86,6.5c1.93,2.1,2.9,4.21,2.9,6.33c0,1.47-0.26,2.6-0.78,3.39c-1.01,1.61-2.35,2.44-4.04,2.49
		c-1.2,0.05-2.26-0.42-3.18-1.44c-1.25-1.34-2.04-3.5-2.37-6.48l-7.35,0.53c0.16,2.72,0.73,5.14,1.69,7.25
		c0.97,2.11,2.28,3.78,3.94,5c1.99,1.5,4.49,2.25,7.51,2.25c1.63,0,3.06-0.19,4.29-0.57c2.29-0.71,4.06-1.92,5.31-3.63
		c1.9-2.53,2.83-5.58,2.78-9.14c-0.03-1.44-0.41-3.08-1.14-4.9C153.13,242.87,152.73,242.07,152.24,241.2z"/>
	<path d="M102.39,88.61c0.58,4.83,1.21,9.65,2.12,14.44c0.35,1.81,1.71,2.86,3.27,2.58c1.52-0.26,2.64-1.9,2.41-3.57
		c-0.16-1.22-0.37-2.44-0.56-3.65c-0.55-3.59-0.74-7.22-0.68-10.93c0.32,0.39,0.63,0.77,0.95,1.16c1.52,1.87,3.12,3.68,5.07,5.11
		c4.06,2.99,8.49,4.46,13.31,2.13c3.65-1.77,6.58-4.36,9.11-7.39c0.95,3.21,2.57,6.06,5.19,8.37c2.63,2.32,5.7,2.92,9.03,1.91
		c1.76-0.53,3.21-1.63,4.5-2.92c2.37-2.38,4.34-5.04,6.08-7.86c0.48,1.12,1.12,2.18,1.95,3.17c2.88,3.42,6.8,3.8,10.36,1.09
		c1.59-1.21,2.79-2.74,3.81-4.43c0.47-0.77,0.9-1.56,1.35-2.34c0.15,1.92,0.18,3.81,0.34,5.69c0.19,2.21,0.44,4.4,1.35,6.46
		c0.58,1.31,1.41,2.41,2.77,2.98c2.14,0.89,3.97,0.18,5.6-1.21c1.61-1.37,2.78-3.1,3.78-4.95c0.34-0.63,0.66-1.26,0.98-1.9
		c0.28,0.9,0.61,1.79,1.08,2.64c1.37,2.51,4.58,5.32,8.66,4.51c2.49-0.49,4.36-1.99,5.97-3.8c2.32-2.61,4.29-5.48,5.78-8.65
		c0.74-1.57,1.49-3.13,2.23-4.69c-0.11,1.57,0.05,3.09-0.03,4.6c-0.29,5.3-0.24,10.6-0.59,15.9c-0.12,1.92,0.93,3.21,2.6,3.34
		c1.53,0.12,2.75-1.09,2.98-2.92c0.35-2.83,0.16-5.68,0.33-8.52c0.81-13.56,1.18-27.23,1.39-40.81c0.03-1.87-0.96-3.09-2.61-3.25
		c-1.4-0.13-2.66,0.97-2.96,2.65c-0.3,1.68-0.53,3.37-0.79,5.06c-0.46,2.97-0.92,5.94-1.53,8.88c-0.15,0.72-0.43,0.82-1.03,0.45
		c-0.87-0.53-1.8-0.92-2.76-1.25c-2.92-0.99-5.85-1.12-8.69,0.22c-3.35,1.59-5.98,4.02-7.78,7.27c-0.77,1.39-1.41,2.81-1.92,4.26
		c-0.12,0.13-0.23,0.27-0.33,0.42c-0.32,0.5-0.54,1.07-0.75,1.63c-1.4,3.63-2.9,7.22-4.73,10.66c-0.61,1.15-1.26,2.26-2.11,3.25
		c-0.15,0.18-0.26,0.51-0.57,0.41c-0.22-0.07-0.25-0.34-0.29-0.56c-0.13-0.68-0.27-1.36-0.38-2.05c-0.62-4.15-0.32-8.33-0.15-12.49
		c0.05-1.25,0.14-2.52,0.23-3.78c0.18-2.33,0.4-4.66,0.29-7.01c-0.07-1.51-1.39-2.76-2.84-2.55c-0.95,0.13-1.72-0.05-2.52-0.47
		c-0.47-0.25-0.99-0.44-1.51-0.55c-5.73-1.21-10.41,0.68-14.15,5.02c-2.19,2.55-3.42,5.43-3.84,8.58c-0.01,0.01-0.03,0.01-0.04,0.02
		c-0.53,0.4-0.78,0.98-1.08,1.54c-2.2,4.22-4.61,8.31-8.09,11.63c-2.39,2.28-4.64,2.11-6.75-0.42c-1.39-1.66-2.24-3.58-2.78-5.66
		c-0.2-0.78-0.01-1.13,0.81-1.15c0.37-0.01,0.75-0.13,1.11-0.24c5.85-1.72,11.42-7.12,10.52-15.59c-0.41-3.91-3.96-6.43-7.78-5.53
		c-3.41,0.8-5.66,3.12-7.38,5.99c-2.09,3.47-3.07,7.25-3.16,11.24c-0.23,0.18-0.46,0.39-0.65,0.65c-1.04,1.44-2.17,2.8-3.35,4.12
		c-1.6,1.77-3.35,3.36-5.34,4.68c-2.16,1.43-4.39,1.63-6.73,0.45c-1.02-0.52-1.98-1.12-2.84-1.87c-2.02-1.75-3.6-3.9-5.31-5.93
		c-0.41-0.49-0.18-0.7,0.27-0.91c3.74-1.75,6.8-4.37,9.41-7.52c3.86-4.66,7.13-9.62,7.75-15.86c0.37-3.75-0.4-7.21-2.94-10.08
		c-1.56-1.76-3.52-2.78-6-2.78c-3.26,0.01-5.64,1.65-7.73,3.86c-2.7,2.84-4.52,6.24-6,9.83c-0.14,0.35-0.29,0.7-0.44,1.04
		c-0.14-0.34-0.16-0.63-0.13-0.91c0.33-3.62,0.06-7.27,0.46-10.89c0.2-1.79-1.07-3.32-2.69-3.4c-1.59-0.08-2.79,1.28-2.85,3.12
		c-0.09,2.71-0.3,5.43-0.32,8.14c-0.03,5.31-0.1,10.62,0.09,15.94C101.4,77.86,101.74,83.24,102.39,88.61z M202.89,75.12
		c1.63-1.99,3.57-3.66,6.39-3.55c1.92,0.07,3.63,0.79,5.11,2.03c0.58,0.48,0.83,1.05,0.53,1.84c-2.16,5.76-4.4,11.47-8.49,16.22
		c-0.68,0.79-1.4,1.56-2.29,2.12c-1.04,0.66-1.72,0.61-2.67-0.18c-0.81-0.68-1.26-1.58-1.57-2.55c-0.51-1.57-0.94-3.16-0.85-4.85
		C199.24,82.14,200.26,78.32,202.89,75.12z M174.23,70.72c1.59-0.43,3.11-0.39,4.59,0.42c0.45,0.25,0.65,0.51,0.46,1.06
		c-1.58,4.38-3.29,8.69-5.66,12.72c-0.6,1.01-1.31,1.94-2.2,2.72c-1.37,1.18-2.2,1.1-3.29-0.36c-1.25-1.7-1.66-3.65-1.65-5.72
		C166.49,76.38,169.68,71.95,174.23,70.72z M142.23,78.69c0.5-2.73,1.34-5.32,3.07-7.55c0.61-0.78,1.32-1.45,2.2-1.91
		c1.24-0.65,1.91-0.25,1.98,1.16c0.01,0.22,0,0.44,0,0.66c-0.01,3.66-2.88,7.32-6.43,8.23C142.49,79.43,142.08,79.49,142.23,78.69z
		 M112.2,61.53c1.13-2.69,2.45-5.28,4.34-7.53c0.82-0.98,1.71-1.87,2.88-2.42c1.41-0.66,2.45-0.43,3.44,0.78
		c1.12,1.37,1.38,3.02,1.53,4.62c-0.14,1.95-0.48,3.79-1.25,5.51c-2.28,5.13-5.61,9.43-10.09,12.84c-1.09,0.83-2.3,1.44-3.56,1.97
		c-0.36,0.15-0.69,0.27-0.64-0.36C109.24,71.63,110.13,66.45,112.2,61.53z"/>
	<path d="M161.7,186.75c2.45,2.58,6.08,3.14,9.46,2.48c0.38,2.06,0.85,4.1,1.45,6.13c0.98,3.35,2.14,6.63,4.34,9.42
		c3.44,4.36,8.51,4.51,12.21,0.37c0.76-0.85,1.43-1.77,2.02-2.75c0.95-1.6,1.72-3.28,2.42-4.99c0.87,2.63,1.95,5.15,3.7,7.37
		c3.44,4.36,8.51,4.51,12.21,0.37c0.76-0.85,1.43-1.77,2.02-2.75c1.71-2.87,2.83-6,4.05-9.09c0.47-1.17,0.93-2.36,1.26-3.58
		c0.4-1.43-0.35-2.75-1.73-3.28c-1.23-0.48-2.58,0.07-3.29,1.34c-0.2,0.36-0.35,0.74-0.49,1.13c-1.06,2.81-2.11,5.63-3.36,8.36
		c-0.78,1.7-1.65,3.35-3.06,4.64c-0.94,0.86-1.73,0.86-2.69,0.03c-0.53-0.46-0.96-1.02-1.3-1.62c-2.11-3.71-3.11-7.79-3.91-11.93
		c-0.08-0.41,0.04-0.63,0.45-0.78c2.69-0.97,4.73-2.8,6.41-5.03c4.52-6.03,6.42-12.95,6.68-20.39c0.02-1.89-0.15-3.74-0.77-5.53
		c-1.86-5.37-7.46-6.71-11.58-2.79c-1.7,1.62-2.94,3.55-3.91,5.67c-2.55,5.57-3.34,11.51-3.62,17.53c-0.17,3.72,0.07,7.4,0.66,11.04
		c-0.12,0.26-0.24,0.52-0.35,0.79c-1.06,2.81-2.1,5.63-3.36,8.36c-0.78,1.7-1.65,3.35-3.06,4.64c-0.94,0.86-1.73,0.86-2.68,0.03
		c-0.53-0.46-0.96-1.02-1.3-1.62c-2.11-3.71-3.11-7.79-3.91-11.93c-0.08-0.41,0.04-0.63,0.45-0.78c2.69-0.97,4.73-2.8,6.4-5.03
		c4.52-6.03,6.42-12.95,6.68-20.39c0.02-1.89-0.15-3.74-0.77-5.53c-1.86-5.37-7.46-6.71-11.58-2.79c-1.7,1.62-2.94,3.55-3.91,5.67
		c-2.55,5.57-3.34,11.51-3.62,17.53c-0.11,2.34-0.05,4.66,0.15,6.96c-0.25,0.06-0.49,0.13-0.74,0.16c-0.08,0-0.35,0.03-0.39,0.03
		c-0.24,0.01-0.49,0.02-0.73,0.02c-0.2,0-0.39-0.02-0.58-0.02c-0.09-0.01-0.18-0.02-0.27-0.02c-0.02,0-0.02,0-0.06-0.01
		c-0.44-0.07-0.92-0.16-1.32-0.35c0.13,0.06-0.39-0.28-0.51-0.35c-0.08-0.08-0.3-0.28-0.32-0.31c-0.12-0.12-0.23-0.25-0.35-0.38
		c-0.05-0.05-0.08-0.08-0.11-0.11c-0.01-0.02-0.02-0.03-0.05-0.07c-0.13-0.18-0.26-0.36-0.38-0.54c-1.62-2.4-3.12-4.9-4.62-7.38
		c-0.47-1.1-2.12-3.46-3.12-4.34c-2.99-2.61-6.61-1.5-8.83,0.36c-0.98,0.82-1.8,1.77-2.47,2.86c-0.81,1.32-1.43,2.68-1.92,4.09
		c-0.18,0.18-0.34,0.38-0.48,0.61c-0.23,0.41-0.39,0.86-0.55,1.31c-1.38,4.02-3.02,7.92-4.96,11.7c-1.29,2.51-2.73,4.94-4.91,6.81
		c-1.32,1.13-1.98,1-2.84-0.5c-0.93-1.62-1.32-3.42-1.56-5.24c-0.42-3.34-0.31-6.69,0.19-10.02c0.73-4.92,1.68-9.78,3.34-14.48
		c0.62-1.75-0.27-3.52-2.1-3.84c-4.45-0.8-8.9-1.55-13.37-2.28c-1.73-0.28-3,0.59-3.33,2.2c-1.55,7.37-4.13,14.4-6.99,21.33
		c-1.18,2.87-2.53,5.67-4.43,8.15c-0.77,1.01-1.65,1.92-2.81,2.5c-1.51,0.75-2.68,0.54-3.82-0.72c-0.73-0.81-1.22-1.77-1.63-2.77
		c-1.41-3.5-2.15-7.13-2.1-10.92c0.02-1.26,0.02-2.53,0.21-3.79c0.47-3.17,1.3-6.18,3.27-8.79c1.99-2.65,4.96-3.37,7.41-0.47
		c0.02,0.02,0.04,0.05,0.07,0.07c1.25,1.24,2.82,1.39,3.99,0.37c1.22-1.06,1.26-2.62,0.12-4.07c-3.4-4.29-9.45-5.01-13.71-1.57
		c-2.89,2.33-4.57,5.47-5.59,8.96c-0.62,2.12-1.02,4.24-1.2,6.38c-0.01,0.02-0.03,0.03-0.04,0.04c-1.27,1.31-2.69,2.41-4.26,3.31
		c-5.02,2.9-10.32,5.24-15.54,7.73c-0.43,0.21-0.67,0.1-0.96-0.24c-1.16-1.38-2.37-2.72-3.54-4.09c-1.54-1.79-2.9-3.68-3.62-5.96
		c-1.52-4.79,0.51-8.74,5.28-10.32c0.42-0.14,0.85-0.24,1.28-0.33c2.95-0.61,5.86,0.59,7.49,3.12c0.48,0.74,0.85,1.56,1.32,2.31
		c0.82,1.31,2.27,1.78,3.52,1.18c1.36-0.66,1.97-2.14,1.35-3.61c-2.29-5.48-6.39-8.48-12.51-8.7c-0.7,0.1-1.71,0.18-2.7,0.38
		c-6.9,1.43-11.31,6.87-11.02,13.65c0.17,4.04,1.86,7.51,4.38,10.6c1.24,1.52,2.54,2.99,3.85,4.45c0.47,0.53,0.53,0.88-0.08,1.38
		c-1.28,1.05-2.32,2.33-3.18,3.75c-0.84,1.38-1.35,2.88-1.31,4.5c0.1,4.02,3.5,7.36,7.39,7.32c4.17-0.03,7.76-3.58,7.88-7.6
		c0.07-2.26-0.64-4.24-1.72-6.12c-0.4-0.71-0.21-0.95,0.45-1.24c3.77-1.64,7.45-3.49,11.12-5.34c1.84-0.93,3.65-1.92,5.34-3.08
		c0.14,1.14,0.33,2.28,0.58,3.42c0.74,3.33,1.78,6.55,3.89,9.29c2.86,3.72,7.5,4.56,11.51,2.12c1.28-0.78,2.4-1.74,3.37-2.89
		c2.27-2.69,3.86-5.79,5.27-8.97c2.87-6.49,5.23-13.17,7.04-20.03c0.17-0.63,0.36-1.05,1.13-0.91c1.99,0.36,3.98,0.71,5.98,1.02
		c0.71,0.11,0.88,0.41,0.69,1.09c-0.42,1.59-0.82,3.19-1.16,4.79c-1.31,6.14-2.28,12.31-1.41,18.61c0.37,2.68,1.01,5.28,2.5,7.6
		c2.58,4.01,6.87,4.71,10.6,1.76c2.02-1.6,3.52-3.63,4.86-5.79c0.78-1.26,1.49-2.55,2.16-3.87c0.28,1.02,0.64,2.02,1.11,2.99
		c0.31,0.65,0.68,1.29,1.1,1.88c3.19,4.5,8.39,4.73,11.98,0.55c2.32-2.7,3.47-5.92,4.12-9.35
		C161.53,188.28,161.63,187.52,161.7,186.75z M196.11,179.32c0.19-5.63,0.65-11.23,2.8-16.53c0.61-1.5,1.35-2.93,2.4-4.18
		c0.16-0.19,0.33-0.39,0.51-0.56c1.39-1.3,2.34-1.04,2.83,0.79c0.66,2.44,0.43,4.89,0.03,7.33c-0.79,4.8-2.3,9.32-5.32,13.23
		c-0.68,0.88-1.5,1.62-2.39,2.29c-0.54,0.41-0.82,0.22-0.86-0.38C196.08,180.65,196.11,179.99,196.11,179.32z M175.77,179.32
		c0.19-5.63,0.65-11.23,2.8-16.53c0.61-1.5,1.34-2.93,2.4-4.18c0.16-0.19,0.33-0.39,0.51-0.56c1.39-1.3,2.34-1.04,2.84,0.79
		c0.66,2.44,0.43,4.89,0.03,7.33c-0.79,4.8-2.3,9.32-5.32,13.23c-0.68,0.88-1.5,1.62-2.39,2.29c-0.55,0.41-0.82,0.22-0.86-0.38
		C175.73,180.65,175.77,179.99,175.77,179.32z M63.74,203.38c-0.87,0.28-1.62,0.09-2.18-0.67c-0.43-0.58-0.5-1.21-0.24-1.88
		c0.48-1.2,1.31-2.14,2.24-3.01c0.26-0.24,0.49-0.29,0.69,0.05c0.56,0.96,1.02,1.96,1.15,2.91
		C65.4,201.97,64.67,203.08,63.74,203.38z M153.99,193.53c-0.41,0.72-0.91,1.37-1.58,1.87c-0.8,0.6-1.38,0.57-2.1-0.14
		c-1.1-1.09-1.59-2.51-1.95-3.95c-1.12-4.54-0.68-8.97,1.13-13.26c0.51-1.2,1.17-2.31,2.24-3.12c0.61-0.46,1.18-0.46,1.82-0.01
		c0.71,0.5,1.13,1.17,1.48,1.93c0.89,1.97,1.32,4.26,1.32,8.27C156.28,187.27,155.7,190.54,153.99,193.53z"/>
	<path d="M276.42,167.65c-0.39-0.49-0.7-1.03-0.98-1.59c-0.14-0.28-0.28-0.4-0.14-0.72c0.3-0.66,0.33-1.47-0.07-2.11
		c-0.64-1.01-1.62-0.98-2.01-1.8c-0.5-1.05-0.05-2.47-1.93-3.12c-1.79-0.61-3.46-0.05-4.43-1.85c-0.44-0.82-1.09-1.67-2.2-1.67
		c-2,0-2.49,1.33-2.84,1.39c-0.2,0.03-1.04-0.13-1.28-0.15c0.12-0.25,0.25-0.58,0.35-0.83c0.12-0.3,0.25-0.55,0.38-0.85
		c0.89-2.06,1.37-2.99,1.93-5.38c0.23-0.98,0.42-2.04,0.52-3.08c0.03-0.35,0.1-0.79,0.11-1.13c0.02-0.73,0.07-1.59,0.14-2.28
		c0.05-0.43,0.07-0.7,0.14-1.09c0.19-1.03,0.09-0.95,0.5-1.1c0.57-0.2,1.17-0.74,1.17-1.4c0-0.64-0.12-1.08-0.53-1.48
		c-1.24-1.24-2.67-0.24-2.67,1.12c0,0.9,0.46,1.45,0.38,1.98l-0.28,1.94c-0.07-0.28-0.52-1.11-0.52-1.24c0-0.12,0.36-0.6,0.36-1.13
		c0-0.58-0.65-1.34-1.24-1.34c-0.45,0-0.85,0.08-1.15,0.4c-0.73,0.79-0.27,2.12,0.75,2.37c0.57,0.14,0.4,0.25,0.62,0.82
		c0.31,0.79,0.74,2.06,0.92,2.89c0.14,0.61,0.05,1.04-0.04,1.68c-0.16,1.1-0.36,2.1-0.66,3.15c-0.07,0.25-0.16,0.48-0.23,0.7
		l-0.37,0.71c-0.04-0.5-0.38-1.28-0.55-1.77c-0.27-0.8-1.67-4.84-1.67-5.34c0-0.23,0.26-0.47,0.26-1.03c0-0.64-0.73-1.39-1.39-1.39
		c-1.52,0-1.83,1.93-0.8,2.71c1.08,0.81,0.7-0.41,1.52,2.03c0.1,0.29,0.24,0.63,0.26,0.97c-0.15-0.07-0.95-0.35-1.13-0.36
		c-0.11-1.34-1.65-1.95-2.49-1.15c-0.88,0.85-0.07,2.18,0.94,2.18c0.91,0,0.74-0.25,1.73,0.12c0.27,0.1,0.49,0.19,0.75,0.28
		c0.76,0.27,0.7,0.39,0.91,1.15c0.13,0.45,0.89,2.79,0.89,3.18c0,0.69-0.2,0.91-0.46,1.49l-0.52,1.13c-0.23-0.15-0.44-0.4-0.65-0.58
		c-0.09-0.07-0.12-0.13-0.21-0.2c-1.49-1.33-2.85,0-2.85,1.76c0,0.74,0.62,3.69,0.76,4.49c0.12,0.73,0.37,1.49,0.16,2.24
		c-0.81,2.92-2.68,5.09-4.42,7.42c-0.15,0.21-0.42,0.59-0.62,0.72c-0.23-0.17-0.44-0.55-0.62-0.77c-0.44-0.57-1.53-1.89-2.02-2.3
		c-0.39-0.32-0.74-0.67-1.16-0.95c-0.56-0.37-0.45-1-0.52-1.65c-0.22-2.12-0.44-4.15-1.02-6.14l-0.91-3.41
		c-0.37-1.46-0.44-0.96,0.04-1.96c0.35-0.74,0.63-1.55,0.85-2.35c0.22-0.8,0.06-1.13,0.64-1.47c0.24-0.14,0.44-0.25,0.69-0.39
		c0.2-0.12,0.48-0.34,0.74-0.34c0.55,0,0.82,0.16,1.24-0.1c1.2-0.71,0.14-3-1.45-2.01c-0.56,0.34-0.37,1.04-0.71,1.3
		c-0.1,0.07-0.56,0.32-0.68,0.35V148c0.58-0.31,1.18-0.64,1.18-1.44c0-0.38-0.14-0.69-0.32-0.91c-0.75-0.9-2.36-0.3-2.36,0.86
		c0,1.1,0.46,1.14,0.46,1.44c0,1.7-0.3,3.14-0.84,4.67l-0.34,0.59c-0.02-0.2-0.12-0.43-0.18-0.65c-0.07-0.23-0.12-0.42-0.19-0.63
		c-0.68-2.18-1.23-4.41-1.91-6.59c-0.06-0.2-0.14-0.45-0.19-0.64l-0.4-1.3c-0.31-1.09-0.16-0.78,0.3-1.71l0.89-1.89
		c1.58-3.11,2.89-6.93,3.58-10.33c0.21-1.04,0.77-1.94,1.64-2.53c0.48,0.11,0.46,0.31,1.24,0.31c0.74,0,1.34-0.79,1.34-1.49
		c0-1.71-2.55-2.01-2.96-0.33c-0.12,0.5-0.45,0.78-0.85,1.05c0-0.78-0.19-1.01,0.45-1.35c0.24-0.13,0.35-0.2,0.52-0.41
		c0.79-0.96-0.18-2.28-1.28-2.34c-1.32-0.07-2.18,1.43-1.32,2.34c0.09,0.09,0.19,0.2,0.29,0.28c0.31,0.26,0.27,0.21,0.27,0.61
		c0,0.66-0.08,1.34-0.16,1.95c-0.21,1.48-0.52,2.95-0.99,4.37c-0.05,0.15-0.07,0.24-0.12,0.4l-0.17,0.39
		c-0.09-1.05-0.57-2.7-1.03-3.66c-0.07-0.14-0.17-0.35-0.21-0.52c0.38-0.57,0.57-0.43,0.57-1.29c0-0.98-2.34-1.95-2.9-0.38
		c-0.42,1.19,0.94,1.64,1.11,1.8c0.26,0.24,0.57,0.95,0.6,1.3c-0.27-0.02-0.29-0.16-0.36-0.37c-0.51-1.63-2.79-1.19-2.79,0.37
		c0,0.88,0.68,1.39,1.49,1.39c0.52,0,0.62-0.36,1.13-0.36c0.2,0,0.55,0.28,0.74,0.39c0.33,0.19,0.33,0.37,0.34,0.84
		c0.02,0.68,0.15,1.41,0.15,2.21c0,0.74-0.08,1.5-0.24,2.13c-0.16,0.62-0.38,1.04-0.6,1.57l-1.18,2.53
		c-0.08,0.18-0.07,0.26-0.26,0.31l-0.35-1.09c-0.13-0.38-0.23-0.69-0.35-1.09c-0.89-3.02-1.74-6.09-2.38-9.2
		c-0.15-0.7-1.17-5.03-1.1-5.37c0.1-0.5,0.69-0.59,0.69-1.53c0-0.69-0.51-1.44-1.18-1.44c-0.49,0-0.86,0.17-1.15,0.5
		c-0.21,0.23-0.4,0.62-0.4,1.04v0l0,0c0,0.35,0.1,0.53,0.1,0.82c-0.58-0.39-0.05-0.99-0.53-1.63c-0.81-1.07-2.5-0.32-2.5,0.96
		c0,0.62,0.65,1.24,1.29,1.24c0.28,0,0.45-0.05,0.67-0.1c0.14,0.26,0.34,0.45,0.52,0.67l0.55,0.68c0.37,0.45,0.69,0.91,1,1.42
		c0.47,0.78,0.72,1.82,0.9,2.75c0.06,0.3,0.17,0.77,0.17,1.07c-0.22-0.15-1.46-1.45-2.02-1.9c-0.08-0.07-0.11-0.1-0.19-0.17
		c-0.51-0.45-1.07-0.86-1.62-1.27c-0.47-0.35-2.18-1.54-2.67-1.66c0-0.25,0.05-0.3,0.05-0.46c0-0.7-0.56-1.39-1.24-1.39h-0.31
		c-0.59,0-1.29,0.69-1.29,1.29v0.31c0,0.68,0.7,1.18,1.34,1.18c0.83,0,0.4-0.39,1.41,0.29c0.38,0.25,1.96,1.2,2.14,1.46
		c-0.42,0-1.17-0.26-2.63-0.26c-0.03-0.32-0.32-0.69-0.54-0.85c-0.94-0.64-2.29,0.32-2.29,1.47c0,1.27,1.42,1.73,2.23,0.94
		c0.47-0.47,0.56-0.48,1.27-0.48c1.31,0,2.87,0.63,3.87,1.38l1.45,1.18c0.43,0.37,0.85,0.99,1.14,1.48
		c0.89,1.47,1.45,3.41,1.92,5.08c0.26,0.91,0.5,1.81,0.8,2.7c0.31,0.9,0.53,1.76,0.84,2.66c0.21,0.61,0.78,2.24,0.79,2.71
		c-0.53-0.12-0.93-0.87-1.3-1.27l-0.98-0.98c-0.14-0.12-0.2-0.22-0.35-0.32c0.37-0.77-0.01-1.91-0.98-1.91
		c-0.52,0-1.07,0.26-1.26,0.6c-0.38,0.71,0.13,1.56,0.79,1.78c1.05,0.35,0.25-0.28,1.41,0.96c0.11,0.11,0.16,0.14,0.25,0.27
		c-0.63-0.05-1.31-0.36-1.96-0.41c-0.09-1.14-1.52-1.87-2.64-0.73c-0.2,0.2-0.39,0.33-0.52,0.61c-0.21,0.44-0.1,0.87,0.19,1.24
		c0.1,0.12,0.17,0.17,0.31,0.26c1.32,0.79,2.27-0.29,2.5-0.29c0.39,0,1.14,0.22,1.49,0.31c0.68,0.18,2.69,0.91,3.3,1.34
		c0.22,0.15,0.27,0.31,0.35,0.57c0.3,0.94,0.52,1.9,0.8,2.86l1.62,5.74c0.56,2,1.08,3.84,1.43,5.93c0.22,1.29,0.53,3.59,0.54,4.97
		c0,0.23,0.03,0.26,0.05,0.42l0.16,2.62c0.01,0.22,0.04,0.19,0.05,0.41c0.03,0.62,0.06,1.13,0.11,1.75l0.32,3.33
		c0.14,1.08,0.27,2.22,0.44,3.27c0.52,3.15,1.49,7.13,2.94,9.93c0.82,1.58,1.05,0.54-0.03,2.54c-1.27,2.33-2.78,4.57-4.12,6.85
		l-1.47,2.34c-0.09,0.15-0.12,0.22-0.3,0.27c0-2.94,0.17-3.58-0.59-6.26c-0.14-0.49-0.37-1.31-1.01-1.31
		c-0.79,0-1.24,1.32-1.58,1.92l-0.39,0.79c-0.8,1.72-1.41,3.47-1.68,5.38c-0.1,0.72-0.07,1.25-0.12,1.63
		c-0.05,0.35,0.04,1.3,0.08,1.65c0.07,0.64,0.19,1.36,0.4,1.97l0.32,0.87c-0.88,1.32-1.83,2.6-2.77,3.87l-0.07,0.11l-3.25-0.14
		c0.44-3.72,0.58-7.78,0.58-11.1c0-0.64,0-1.24-0.05-1.8c-0.02-0.27,0-0.64,0-0.92c0.01-1.12-0.35-1.23,0.45-1.3
		c0.22-0.02,0.57-0.09,0.78-0.15c0.52-0.13,0.97-0.28,1.43-0.47c0.9-0.37,1.66-0.82,2.43-1.33c1.49-0.98,2.75-2.26,3.93-3.59
		c0.14-0.16,0.27-0.35,0.41-0.52c0.14-0.17,0.27-0.35,0.39-0.53c1.06-1.55,2.95-4.44,2.95-6.48c0-0.61,0.01-1.44-0.82-1.44
		c-0.9,0-3.94,2.02-4.64,2.57c-1.66,1.3-2.27,2.04-3.74,3.52c-0.83,0.84-1.92,2.32-2.56,3.21l-0.88,1.28
		c-0.12,0.18-0.17,0.33-0.38,0.39l-0.46-7.11c0-0.3-0.07-0.85-0.1-1.14c-0.09-0.84-0.13-2.83-0.23-3.58l-0.09-1.15
		c0-0.31-0.03-0.9-0.08-1.21c-0.17-1.1,0.18-0.61,1.3-1.18c1.06-0.53,2.94-2.1,3.87-3.04c0.14-0.14,0.22-0.18,0.36-0.31l0.9-0.95
		c0.29-0.35,0.64-0.64,0.91-0.99c0.18-0.24,0.38-0.46,0.58-0.7c1.41-1.74,2.82-4.15,2.82-7.28c0-2.92-1.13-2.65-2.77-1.43
		c-0.54,0.4-1.04,0.75-1.54,1.19l-1.42,1.31c-0.45,0.45-0.94,0.9-1.33,1.4c-0.19,0.25-0.4,0.48-0.61,0.73l-2.24,3.22l-0.98,1.75
		c-0.13,0.25-0.32,0.68-0.5,0.89c-0.01-0.25-0.12-0.7-0.17-0.96l-0.5-2.95c0-0.92,0.4-1.36,0.86-2.13c0.34-0.56,0.67-1.08,1-1.63
		c0.7-1.17,1.78-2.86,2.77-3.83c0.44-0.43,0.81-0.95,1.3-1.33l1.69-1.61c0.81-0.88,1.94-2.21,0.7-3.3c-0.85-0.74-1.9-0.35-2.85-0.35
		c-0.46,0-0.4-1.82-2.56-1.01c-0.78,0.29-1.01-0.62-1.91-0.36c-0.31,0.09-0.56,0.31-0.84,0.45c-1.25-2.35-2.02-1.03-2.88-1.03
		c-1.3,0-1.49-0.86-2.62-0.09c-0.5,0.34-0.71,0.88-1.13,1.29c-0.68,0.68-1.14,0.29-1.71,0.29c-0.77,0-1.23,1.09-1.28,1.86
		c-0.04,0.53,0.1,0.51-0.4,0.74c-0.31,0.14-0.46,0.26-0.81,0.38c-0.85,0.28-1.92-0.32-2.44,1.53c-0.19,0.67-0.14,0.64-0.95,0.65
		c-0.63,0.01-0.87,0.42-0.87,0.93c0,1.27,1.35,2.53,2.3,3.16c1.38,0.91,2.8,1.73,4.22,2.58c1.49,0.89,2.83,1.88,4.59,2.26
		c0.8,0.17,1.65,0.13,2.6,0.13c0.29,0.6,0.52,2.8,0.63,3.59c0.26,1.81,0.97,7.7,1.01,9.65c0.01,0.25,0.04,0.23,0.05,0.46l0.05,1.6
		c-0.22-0.08-0.36-0.57-0.46-0.77c-0.15-0.3-0.28-0.54-0.45-0.84l-1-1.52c-0.36-0.47-0.72-0.97-1.14-1.39
		c-0.32-0.31-0.58-0.68-0.93-0.98c-0.57-0.48-1.14-1.02-1.78-1.41c-0.26-0.16-0.49-0.32-0.78-0.46l-0.86-0.43
		c-1.1-0.47-2.65-0.91-4.19-0.91c-0.67,0-1.18,0.18-1.18,0.82c0,0.47,0.57,1.15,0.83,1.54c0.8,1.18,1.66,2.36,2.58,3.44
		c0.19,0.22,0.41,0.43,0.58,0.66c0.19,0.25,0.36,0.39,0.58,0.61c0.2,0.21,0.35,0.43,0.58,0.61c0.23,0.17,0.4,0.37,0.6,0.58
		c0.87,0.88,2.49,2.01,3.5,2.58c0.77,0.43,1.66,0.78,2.54,1.01c1.17,0.31,1.24,0,1.24,0.56l0.11,1.75c0.12,1.07,0.12,2.26,0.24,3.36
		l0.16,2.82c0,0.2-0.01,0.41,0.01,0.61c0.07,0.52,0.14,4.16,0.14,4.7l-0.05,2.94c0,0.57-0.11,1.33-0.11,1.9
		c0,1.32-0.26,3.74-0.47,5.44l-23.88-1.05c-0.22-0.01-0.45-0.01-0.69,0.01l-33.17,2.28c-0.59,0.04-1.05,0.55-1.12,1.24
		c-0.06,0.61,0.24,1.1,0.73,1.23c0.03,0.01,0.06,0.01,0.09,0.01c0.05,0.02,0.11,0.04,0.16,0.04l0.9,0.09l0,4l-15.9,0.23
		c-0.42,0.01-0.79,0.28-0.91,0.69c-0.12,0.41,0.04,0.84,0.39,1.07l1.28,0.85l0.46,8.12l-0.84,0.39c-0.26,0.05-0.47,0.23-0.57,0.48
		c-0.12,0.31-0.03,0.65,0.23,0.87l4.02,3.24l-2.81,0.9c-0.32,0.1-0.52,0.41-0.5,0.74c0.02,0.34,0.27,0.61,0.62,0.67
		c0.61,0.08,1.27,0.16,1.97,0.24l-0.03,3.67l-2.54,1.12c-0.28,0.09-0.46,0.36-0.45,0.65c0.01,0.32,0.26,0.58,0.56,0.62
		c0.18,0.03,6.14,0.88,14.38,2.05l-10.41,1.28c-0.59,0.04-1.05,0.55-1.12,1.24c-0.06,0.61,0.24,1.1,0.73,1.23
		c0.2,0.05,0.79,0.16,1.33,0.26l-0.02,8.21l-0.6,0.05c-0.04,0-0.08,0.01-0.12,0.02c-0.64,0.21-1.02,0.86-0.95,1.62
		c0.07,0.74,0.55,1.3,1.21,1.38l41.87,4.73c0.02,0,0.04,0,0.06,0c0.05,0,0.09-0.01,0.14-0.02l35.33-9.04
		c1.1-0.28,1.84-1.26,1.8-2.37l0.08-5.61c-0.04-1.12-0.91-2.01-2.03-2.08l-4-0.18l10.47-5.37c0.83-0.43,1.33-1.31,1.29-2.24
		l-0.16-3.9c-0.04-0.93-0.74-1.69-1.67-1.79l-4.84-0.54l-0.02-4.58c0-0.74-0.45-1.4-1.14-1.67l-2.29-0.9l12.78-3.27
		c1.08-0.28,1.84-1.28,1.8-2.37l0.08-5.61c-0.04-1.12-0.91-2.01-2.03-2.08c0,0,0,0,0,0l-14.11-0.62l0.97-1.37
		c0.88-1.29,1.83-2.54,2.72-3.82c1.34-1.94,2.73-3.84,4.04-5.8c0.11-0.17,0.2-0.32,0.32-0.51c0.65-1.02,1.67-2.55,2.2-3.56
		c0.2,0.05,0.26,0.13,0.45,0.22c2.12,1.09,5.16,0.52,7.25-0.3c0.2-0.08,0.28-0.13,0.46-0.21c0.1-0.04,0.16-0.07,0.25-0.11
		c1.87-0.98,3.3-2.31,4.45-4.04c0.36-0.54,1.52-2.01,0.62-2.59c-0.56-0.36-1.48-0.1-2.08-0.01l-3.86,0.67
		c-1.38,0.29-2.74,0.65-4.03,1.22c-0.15,0.07-0.38,0.19-0.57,0.2l3.9-7.33c0.19-0.38,0.35-0.75,0.53-1.12
		c0.54-1.07,1-2.22,1.45-3.34c0.5-1.24,1.94-5.37,2.21-5.93c0.62,0.05,0.85,0.62,4.02,0.62c2.06,0,4-0.85,5.54-1.87
		c1.25-0.83,2.49-1.95,4.05-2.13c0.4-0.05,0.7-0.08,1.12-0.12c0.7-0.07,1.51-0.15,2.22-0.25c0.73-0.1,1.39-0.46,1.39-1.23
		C278,168.97,277.05,168.45,276.42,167.65z M235.21,124.28c0.35,0,0.35,0,0.37,0.44C235.44,124.55,235.33,124.42,235.21,124.28z
		 M227.03,164.63c-0.2,0.51-0.41,1.03-0.65,1.52c-0.13,0.26-0.31,0.5-0.5,0.72c-0.23,0.26-0.44,0.27-0.74,0.09
		c-0.28-0.17-0.54-0.36-0.82-0.53c-1.24-0.74-2.48-1.48-3.72-2.23c-0.68-0.41-1.36-0.84-1.91-1.43c-0.28-0.3-0.56-0.63-0.65-1.1
		c1.05,0.05,1.48-0.57,1.66-1.46c0.01-0.06,0.04-0.13,0.05-0.19c0.06-0.32,0.27-0.47,0.58-0.47c0.11,0,0.23-0.02,0.34-0.02
		c0.47,0,0.91-0.11,1.3-0.36c0.55-0.36,1.11-0.35,1.66-0.05c0.47,0.26,0.93,0.54,1.35,0.86c1,0.77,2.3,2.48,2.79,3.62l0,0
		C227.36,163.81,227.2,164.22,227.03,164.63z M228.96,163.29L228.96,163.29L228.96,163.29c-0.14-0.22-0.22-0.35-0.3-0.48
		c-0.73-1.23-1.51-2.43-2.6-3.39c-0.72-0.64-1.49-1.21-2.43-1.5c-0.23-0.07-0.31-0.21-0.3-0.43c0-0.15,0-0.29,0.03-0.44
		c0.09-0.51,0.2-0.59,0.71-0.5c0.8,0.14,1.48-0.11,2.02-0.71c0.25-0.28,0.46-0.59,0.7-0.88c0.33-0.39,0.47-0.41,0.93-0.21
		c0.06,0.03,0.12,0.05,0.18,0.08c0.64,0.33,1.27,0.32,1.91,0.01c0.6-0.29,0.66-0.26,0.95,0.34c0.11,0.23,0.22,0.47,0.34,0.72
		C229.91,158.17,229.38,160.65,228.96,163.29z M230.97,163.5c-0.22,0.16-0.42,0.36-0.63,0.53c-0.09,0.07-0.21,0.12-0.41,0.23
		c0.06-0.47,0.09-0.86,0.15-1.24c0.31-1.76,0.73-3.5,1.36-5.18c0.2-0.54,0.51-1.05,0.8-1.55c0.13-0.22,0.34-0.39,0.52-0.57
		c0.16-0.15,0.33-0.2,0.52-0.04c0.53,0.46,1.12,0.44,1.74,0.2c0.09-0.04,0.18-0.06,0.28-0.09c0.37-0.1,0.4-0.08,0.59,0.24
		c0.05,0.08,0.09,0.17,0.14,0.26c0.26,0.47,0.65,0.71,1.19,0.69c0.19-0.01,0.39-0.05,0.58-0.06c0.39-0.01,0.78-0.06,1.16-0.01
		c0.47,0.06,0.6,0.36,0.37,0.77c-0.14,0.25-0.32,0.5-0.52,0.7c-0.58,0.59-1.17,1.17-1.78,1.73c-1.49,1.39-2.8,2.94-3.88,4.68
		c-0.07,0.11-0.15,0.21-0.25,0.36l0,0l0,0c-0.34-0.22-0.51-0.51-0.63-0.84c-0.07-0.18-0.12-0.37-0.2-0.55
		C231.83,163.31,231.4,163.2,230.97,163.5z M236.25,213.36l-1.85,2.72c-0.44,0.07-0.88,0.15-1.33,0.22
		c0.21-0.97,0.39-1.98,0.54-3.06L236.25,213.36z M232.72,217.88c0.03-0.14,0.06-0.28,0.09-0.42c0.24-0.04,0.47-0.08,0.71-0.12
		l-0.75,1.1c-0.1,0.15-0.11,0.26-0.26,0.31C232.54,218.5,232.66,218.12,232.72,217.88z M174.81,214.75c-0.01-0.05,0-0.12,0.03-0.2
		c0.03-0.07,0.06-0.11,0.07-0.12l33.17-2.29c0.18-0.01,0.37-0.02,0.56-0.01l23.78,1.05c0,0,0,0,0,0c-0.13,0.9-0.33,2.07-0.58,3.31
		c-5.24,0.89-10.51,1.79-14.46,2.51c-7.23-0.76-14.36-1.45-21.25-2.13C189.61,216.25,182.24,215.53,174.81,214.75z M176.7,221.46
		v-1.99l40.75,4.18c0.06,0.84,0.05,1.6-0.02,2.32L176.7,221.46z M217.25,227.07c-0.13,0.61-0.31,1.17-0.54,1.7l-40.01-4.5l0-1.69
		L217.25,227.07z M176.7,218.36v-2.3c6.67,0.69,13.38,1.35,19.31,1.93l0.37,0.04c6.69,0.65,13.6,1.33,20.58,2.06l0.09,0.55
		c0.08,0.51,0.2,1.19,0.28,1.9L176.7,218.36z M176.27,225.34l40.72,4.59c0.24,0.02,0.47-0.11,0.56-0.33l0.14-0.31
		c1.4-3.1,0.85-6.41,0.45-8.83l-0.07-0.44c3.78-0.68,8.64-1.52,13.51-2.34c-0.44,2.02-0.98,4.08-1.5,5.39
		c-0.57,1.43-1.29,2.77-1.86,4.21c-0.1,0.26-0.29,0.62-0.41,0.96l-10.65,2.73l-41.75-5.03c-0.2-0.03-0.23-0.18-0.24-0.25
		c-0.01-0.06,0-0.2,0.14-0.27L176.27,225.34z M160.22,221.27l15.37-0.22l0,3.23l-0.45,0.04c-0.04,0-0.09,0.01-0.12,0.02
		c-0.63,0.2-1.01,0.79-0.95,1.44c0.06,0.66,0.54,1.16,1.2,1.25l24.35,2.93c-11.43,0.33-21.54,0.5-25.94,0.51
		c-1.96-1.36-3.62-2.47-5.23-3.55c-2.27-1.52-4.42-2.95-7.13-4.91c0,0,0,0-0.01,0c0,0-0.01-0.01-0.01-0.01L160.22,221.27z
		 M161.88,228.4l-0.11-1.88l11.37,8.17c-0.01,0.66-0.04,1.33-0.1,2.01L161.88,228.4z M172.92,237.98c-0.05,0.4-0.12,0.81-0.2,1.28
		c-1.63-1.29-3.27-2.55-5.09-3.95c-2-1.54-3.81-2.93-5.6-4.35l-0.06-1.12L172.92,237.98z M161.69,225.09l-0.09-1.49
		c2.28,1.62,4.19,2.9,6.22,4.25c1.5,1,3.19,2.13,5.15,3.49c0.07,0.64,0.12,1.29,0.15,1.97L161.69,225.09z M162.95,237.31l1.84-0.59
		l1.18,0.96c-0.85-0.1-1.64-0.2-2.37-0.29L162.95,237.31z M167.38,240.35l-0.1-0.02c-1.21-0.19-2.36-0.38-3.14-0.49l0.01-1.28
		c1.04,0.12,2.19,0.26,3.47,0.43l2.14,1.73C169,240.61,168.18,240.48,167.38,240.35z M171.46,242.1l0.16,0.13
		c0.38,0.32,0.89,0.49,1.38,0.47l3.1-0.15c18.82,2.61,48.66,6.76,48.66,6.76c0.11,0.02,0.23,0,0.33-0.05L247,238.3
		c0.01,0.73-0.07,1.03-0.11,1.13l-21.93,11.03l-60.84-8.48l0.01-1.02c0.79,0.12,1.9,0.29,3.09,0.48
		C168.75,241.69,170.34,241.94,171.46,242.1z M164.54,249.24c-0.01-0.04,0-0.12,0.03-0.2c0.02-0.07,0.06-0.12,0.09-0.12l14.52-1.78
		c15.71,2.24,27.67,3.92,35.59,5.01c-3.05,0.52-7,1.21-7.61,1.31c-7.14-0.75-13.82-1.35-20.29-1.94l-0.19-0.02
		c-6.54-0.59-13.3-1.21-20.54-1.96C165.63,249.45,164.84,249.31,164.54,249.24z M166.59,255.76l0.01-2.1l40.54,4.16
		c0.05,0.9,0.04,1.72-0.04,2.46L166.59,255.76z M206.91,261.38c-0.15,0.7-0.35,1.34-0.6,1.88l-0.21-0.02
		c-8.03-0.89-27.91-3.09-39.52-4.46l0.01-1.9L206.91,261.38z M166.6,252.55l0.01-1.84c7.08,0.73,13.64,1.33,19.98,1.9
		c6.39,0.58,12.99,1.18,20.12,1.92c0.15,0.76,0.27,1.48,0.35,2.17L166.6,252.55z M242.27,248.67c0.06-0.01,0.12-0.03,0.17-0.06
		c0.41,0.14,0.69,0.51,0.71,0.93l-0.08,5.61c0.02,0.61-0.37,1.14-0.96,1.29l-35.23,9.02l-41.75-4.72c-0.16-0.02-0.22-0.25-0.24-0.38
		c-0.02-0.17,0.03-0.37,0.15-0.45l0.95-0.08c13.97,1.66,40.41,4.57,40.59,4.58c0.24,0.03,0.44-0.09,0.55-0.29
		c1.24-2.37,1.47-5.62,0.68-9.65c2.5-0.44,9.71-1.66,10.62-1.82c3.59,0.49,5.82,0.78,6.83,0.88c0.41,0.05,0.83-0.03,1.2-0.22
		l5.94-3.05C238.1,249.34,242.27,248.67,242.27,248.67z M235.6,248.62l0.64-0.33l1.09,0.05L235.6,248.62z M248.05,235.08
		c0.38,0.04,0.67,0.35,0.68,0.74l0.16,3.9c0.02,0.5-0.25,0.97-0.69,1.2l-22.25,11.41c-0.17,0.09-0.37,0.13-0.57,0.11
		c-5.62-0.61-48.94-6.8-63.05-8.82l1.31-0.58l61.34,8.55c0.11,0.02,0.23,0,0.33-0.05l22.21-11.17c0.05-0.02,0.1-0.06,0.14-0.1
		c0.19-0.19,0.59-0.57,0.41-2.85c0,0,0-0.04,0-0.05c-0.04-0.48-0.09-0.97-0.16-1.5c-0.03-0.22-0.19-0.4-0.41-0.46
		c-0.13-0.03-0.27-0.02-0.38,0.04l-3.76,1.75l-0.01-2.63L248.05,235.08z M242.9,238.62l4-1.86c0.01,0.12,0.02,0.23,0.03,0.33
		l-22.18,11.1c-2.19-0.31-24.98-3.48-42.63-5.93l6.15-0.3l36.49,4.99c0.11,0.02,0.22,0,0.31-0.05l16.09-7.47l0.19-0.01
		C241.95,239.4,242.52,239.11,242.9,238.62z M194.34,241.68l43.88-2.1l-13.47,6.26L194.34,241.68z M242.2,229.47l0.04,7.86
		c0,0.53-0.41,0.96-0.95,0.98l-68.34,3.27c-0.21,0.02-0.44-0.06-0.63-0.22l-11.44-9.23l0.53-0.25c1.87,1.48,3.82,2.98,5.54,4.3
		c1.81,1.39,3.86,2.96,5.81,4.51c0.01,0.01,0.03,0.02,0.05,0.03c0.04,0.02,0.07,0.04,0.11,0.05c0.01,0.01,0.03,0.01,0.04,0.02
		c0.1,0.02,0.22,0.02,0.33-0.03c0.03-0.01,0.05-0.03,0.05-0.03c0.05-0.03,0.1-0.07,0.12-0.09c0.02-0.01,0.05-0.05,0.06-0.07
		c0.03-0.04,0.05-0.09,0.07-0.13c0.01-0.02,0.02-0.04,0.01-0.04c0,0,0,0,0,0c0.01-0.01,0.01-0.03,0.01-0.04
		c0.42-1.93,0.63-3.96,0.63-6.02c0-0.91-0.05-1.84-0.14-2.76c5.93-0.02,19.72-0.3,32.81-0.73l10.2,1.23c0.07,0,0.14,0,0.2-0.02
		l6.88-1.76c0.02,0,0.04,0.01,0.09,0.01c0,0,0,0,0,0C232.91,229.96,240.02,229.63,242.2,229.47z M241.75,228.23
		C241.75,228.23,241.75,228.23,241.75,228.23c0.08,0.03,0.16,0.08,0.23,0.15c-1.58,0.11-5.92,0.33-12.64,0.62l8.7-2.23
		L241.75,228.23z M252.55,214.18c0.06-0.01,0.12-0.03,0.17-0.06c0.41,0.14,0.7,0.51,0.71,0.93l-0.08,5.61c0,0,0,0.01,0,0.01
		c0.02,0.6-0.38,1.14-0.96,1.29l-23.17,5.93c0.09-0.21,0.18-0.43,0.26-0.64l2.38-4.99c0.79-1.53,1.85-3.13,2.8-4.56
		c0.12-0.18,0.21-0.32,0.33-0.49l0.08-0.11C244.18,215.55,252.43,214.2,252.55,214.18z M247.69,213.86
		c-2.99,0.49-7.21,1.19-11.73,1.95l1.68-2.39L247.69,213.86z M264.71,155.92c0.28,0.01,0.5,0.16,0.66,0.37
		c0.2,0.26,0.38,0.53,0.54,0.81c0.63,1.12,1.6,1.72,2.83,1.93c0.48,0.08,0.96,0.13,1.45,0.2c0.19,0.03,0.38,0.07,0.57,0.11
		c0.59,0.13,0.92,0.52,1.04,1.09c0.07,0.32,0.12,0.64,0.2,0.95c0.18,0.75,0.6,1.32,1.29,1.69c0.19,0.1,0.37,0.2,0.55,0.32
		c0.64,0.43,0.72,1.07,0.29,1.79c-0.04,0.07-0.15,0.12-0.24,0.13c-0.37,0.07-0.73,0.16-1.1,0.18c-0.19,0.01-0.4-0.08-0.59-0.14
		c-0.06-0.02-0.11-0.07-0.15-0.12c-0.86-0.95-1.96-1.06-3.13-0.9c-1.51,0.21-2.93,0.72-4.3,1.35c-0.13,0.06-0.26,0.17-0.41,0.13l0,0
		c0.25-0.84,0.52-1.64,0.73-2.45c0.26-1.02,0.25-2.06-0.04-3.08c-0.21-0.73-0.57-1.38-1.18-1.86c-0.25-0.2-0.42-0.44-0.53-0.74
		c-0.11-0.29-0.25-0.56-0.38-0.86C263.24,156.13,263.91,155.9,264.71,155.92z M251.74,189.74c-0.18-0.28-0.33-0.46-0.44-0.68
		c-0.21-0.44-0.42-0.88-0.59-1.33c-1.12-2.91-1.92-5.9-2.31-8.99c-0.05-0.41-0.11-0.82-0.17-1.24c0.03-0.01,0.05-0.02,0.08-0.03
		c0,0,0,0,0,0h0l0,0c0,0,0,0,0,0c0.07,0.14,0.15,0.27,0.22,0.41c0.98,1.93,2.03,3.82,3.37,5.52c0.3,0.38,0.63,0.75,0.97,1.09
		c0.33,0.33,0.69,0.63,1.08,0.99C253.29,186.89,252.55,188.28,251.74,189.74z M258.65,174.32c-0.4,1.01-0.78,2.03-1.18,3.04
		c-0.52,1.31-1.04,2.63-1.56,3.94c-0.08,0.19-0.17,0.38-0.25,0.56c-0.04,0-0.07-0.01-0.11-0.01v0h0c-0.67-3.22-1.5-6.39-3.33-9.21
		c1.6-2.09,3.38-4.02,4.53-6.43c0,0.16,0.01,0.32,0,0.49c-0.05,1.04-0.04,2.08,0.12,3.11c0.2,1.31,0.77,2.47,1.48,3.57
		c0.07,0.11,0.14,0.22,0.23,0.32C258.75,173.89,258.74,174.08,258.65,174.32z M261.49,168.34c-0.57,0.21-1.14,0.42-1.75,0.31
		c-0.85-0.15-1.34-0.75-1.69-1.48c-0.15-0.32-0.18-0.68-0.16-1.05c0.03-0.53,0.01-1.07,0.01-1.61l0,0c0.06-1.85-0.24-3.66-0.65-5.45
		c-0.16-0.71-0.28-1.44-0.36-2.16c-0.04-0.33,0.01-0.69,0.11-1.01c0.13-0.46,0.38-0.52,0.75-0.21c0.27,0.23,0.53,0.48,0.78,0.73
		c0.55,0.57,1.21,0.86,2.01,0.8c0.1-0.01,0.19-0.01,0.29-0.01c0.8,0,1.03,0.14,1.31,0.89c0.16,0.42,0.38,0.79,0.74,1.07
		c0.64,0.49,0.92,1.16,1.04,1.92c0.12,0.75,0.07,1.49-0.13,2.22c-0.43,1.59-1.04,3.11-1.8,4.57
		C261.86,168.11,261.71,168.26,261.49,168.34z M276.75,169.7C276.75,169.7,276.75,169.7,276.75,169.7c-0.4,0.05-0.77,0.11-1.14,0.15
		c-0.74,0.08-1.49,0.13-2.23,0.21c-1.03,0.12-1.99,0.47-2.86,1.05c-0.68,0.45-1.34,0.92-2.02,1.37c-0.62,0.42-1.27,0.78-1.99,1.01
		c-1.15,0.38-2.28-0.09-2.81-1.18c-0.25-0.51-0.36-1.05-0.37-1.6c-0.01-0.78,0.04-1.56,0.07-2.34c0-0.09,0.04-0.19,0.08-0.27
		c0.34-0.6,0.75-1.12,1.43-1.4c1.39-0.58,2.79-1.08,4.28-1.27c0.26-0.03,0.52-0.04,0.78-0.03c0.4,0.02,0.76,0.16,1.06,0.44
		c0.15,0.14,0.31,0.28,0.48,0.42c0.43,0.35,0.93,0.46,1.47,0.36c0.26-0.05,0.51-0.11,0.77-0.15c0.4-0.07,0.7,0.09,0.91,0.42
		c0.05,0.08,0.1,0.17,0.14,0.26c0.35,0.9,0.94,1.63,1.7,2.21c0.06,0.05,0.12,0.1,0.18,0.16C276.7,169.54,276.71,169.58,276.75,169.7
		C276.75,169.7,276.75,169.7,276.75,169.7L276.75,169.7L276.75,169.7C276.75,169.7,276.75,169.7,276.75,169.7L276.75,169.7z"/>
	<path d="M34.92,65.37c0.39,1.15,0.84,2.2,1.39,3.31c0.53,1.03,1.07,2.05,1.77,3.04c0.17,0.31,0.34,0.63,0.51,0.94
		c0.17,0.31,0.26,0.65,0.34,0.99c0.09,0.34,0.17,0.67,0.34,0.99c0.17,0.31,0.34,0.63,0.6,0.92c0.13,0.15,0.28,0.38,0.4,0.52
		c0.15,0.23,0.19,0.4,0.26,0.65c0.17,0.67,0.43,1.32,0.73,1.78c0.38,0.44,0.85,0.86,1.44,1.06c0.11,0.06,0.21,0.12,0.32,0.19
		c0.11,0.06,0.15,0.23,0.25,0.29c0.49,0.86,0.98,1.36,1.51,1.67c0.53,0.31,1.24,0.31,2,0.11c0.67-0.17,1.32-0.43,1.97-0.69
		c0.23-0.15,0.48-0.21,0.71-0.36c0.25-0.06,0.48-0.21,0.71-0.36c0.48-0.21,1.03-0.53,1.55-0.58c-0.06,0.11-0.02,0.27-0.08,0.38
		c-0.06,0.11-0.12,0.21-0.29,0.25c-0.57,0.24-1.11,0.55-1.44,1c-0.42,0.47-0.73,0.99-0.96,1.5c-0.54,1.03-0.97,2.13-1.22,3.27
		c-0.24,1.14-0.28,2.4,0.24,3.7c0.04,0.17,0.11,0.42,0.17,0.67c0.02,0.08,0.04,0.17,0.06,0.25s0.04,0.17,0.06,0.25
		c0.04,0.17,0.09,0.34,0.15,0.59c0.21,0.48,0.47,0.78,0.81,1.05c0.13,0.15,0.36,0.36,0.49,0.5c0.15,0.23,0.21,0.48,0.3,0.82
		c0.11,0.42,0.22,0.84,0.66,1.17c0.13,0.15,0.25,0.29,0.38,0.44c0.13,0.15,0.19,0.4,0.32,0.54c0.19,0.4,0.36,0.71,0.68,0.9
		c0.23,0.21,0.53,0.31,0.89,0.31c0.27,0.02,0.46,0.06,0.59,0.21c0.21,0.12,0.34,0.27,0.49,0.5c0.38,0.44,0.8,0.69,1.2,0.85
		c0.3,0.1,0.57,0.12,0.84,0.14c0.34-0.09,0.59-0.15,0.88-0.05l-0.02-0.08c0.11,0.06,0.21,0.12,0.32,0.19c0,0,0,0,0.11,0.06
		c0.02,0.08,0.11,0.06,0.19,0.04c0.11,0.06,0.13,0.15,0.23,0.21c0.21,0.12,0.51,0.23,0.72,0.35c0.38,0.08,0.82,0.06,1.22-0.13
		c0.17-0.04,0.42-0.11,0.61-0.07c0.19,0.04,0.38,0.08,0.59,0.21l0.11,0.06l2.77-0.71c0.19-0.32,0.48-0.57,0.79-0.74
		c0.15-0.13,0.23-0.15,0.38-0.28c0.67-0.53,1.15-1.1,1.59-1.84c0.35-0.72,0.58-1.58,0.7-2.51c0.18-1.75,0.27-3.47,0.28-5.18
		c0.03-1.62-0.04-3.3-0.2-4.96c0.15,0.95,0.39,1.87,0.63,2.79c0.32,1.26,0.73,2.5,1.14,3.74c0.06,0.25,0.19,0.4,0.32,0.54
		c0.13,0.15,0.32,0.19,0.59,0.21c0.25-0.06,0.4-0.19,0.42-0.47c0.04-0.19,0-0.36-0.07-0.61c-0.15-0.59-0.24-1.28-0.39-1.87
		c-0.31-1.53-0.61-3.07-1.19-4.62c-0.02-0.08-0.04-0.17-0.04-0.17l0.62,1.36c0.34,0.63,0.62,1.36,1.11,2.22
		c0.53,1.03,1.04,1.97,1.64,2.89c0.6,0.92,1.19,1.84,1.79,2.76c0.45,0.69,1.02,1.17,1.59,1.65c0.55,0.4,1.25,0.66,1.98,0.74
		c0.19,0.04,0.38,0.08,0.55,0.04c0.38,0.08,0.82,0.06,1.08,0.35l0.11,0.06l2.77-0.71c0.12-0.21,0.36-0.36,0.5-0.49
		c0.15-0.13,0.4-0.19,0.65-0.26c0.42-0.11,0.73-0.28,1.03-0.53c0.29-0.25,0.56-0.59,0.71-1.08c0.06-0.11,0.1-0.3,0.19-0.32
		c0.06-0.11,0.15-0.13,0.31-0.17c0.5-0.13,0.96-0.43,1.32-0.79c0.33-0.44,0.48-0.93,0.6-1.5c0.04-0.19,0.08-0.38,0.23-0.51
		c0.06-0.11,0.21-0.23,0.38-0.28c0.31-0.17,0.59-0.51,0.69-0.8c0.1-0.3,0.18-0.67,0.08-1.09c-0.04-0.17,0-0.36-0.07-0.61
		c0.04-0.19,0.08-0.38,0.12-0.57c0.12-0.21,0.14-0.48,0.08-0.74c0.02-0.27-0.05-0.53-0.11-0.78c-0.06-0.25-0.11-0.42-0.09-0.69
		c0.04-0.19,0.08-0.38,0.18-0.67c0.1-0.3,0.21-0.59,0.2-0.95c0.02-0.27,0.02-0.63-0.15-0.95c-0.06-0.25-0.11-0.42-0.17-0.67
		c-0.17-0.67-0.43-1.32-0.5-1.93c-0.06-0.25-0.21-0.48-0.28-0.73l-0.02-0.08c-0.4-0.52-0.81-1.05-1.29-1.55
		c-0.4-0.52-0.89-1.02-1.44-1.42c-0.66-0.46-1.31-0.92-2.01-1.19c-0.7-0.27-1.45-0.43-2.17-0.43c-0.17,0.04-0.36,0-0.48-0.14
		c-0.11-0.06-0.13-0.15-0.25-0.29c0.67-0.17,1.39-0.18,2-0.25c0.17-0.04,0.27,0.02,0.44-0.02l0.44-0.02
		c0.88-0.05,1.85-0.12,2.67-0.42c0.65-0.26,1.11-0.55,1.42-1.08c0.31-0.53,0.43-1.1,0.41-1.9c0.04-0.19,0-0.36,0.04-0.55
		c0.04-0.19,0.1-0.3,0.23-0.51c0.4-0.55,0.62-1.06,0.75-1.62c0.12-0.57,0.08-1.09-0.07-1.68l-0.04-0.17
		c-0.06-0.25-0.11-0.42-0.15-0.59c-0.04-0.17,0-0.36,0.02-0.63c0.08-0.38,0.14-0.84,0.14-1.2c-0.02-0.44-0.11-0.78-0.22-1.2
		c-0.09-0.34-0.15-0.59-0.13-0.86c0.02-0.27-0.07-0.61-0.05-0.88c0.1-1.01,0.11-2,0.04-2.97c0.01-0.99-0.06-1.96-0.23-2.99
		c-0.09-0.69-0.28-1.45-0.48-2.21c-0.19-0.76-0.58-1.55-1.03-2.24c-0.42-0.61-0.78-0.96-1.29-1.19c-0.48-0.14-0.95-0.2-1.54-0.05
		c-0.59,0.15-1.07,0.37-1.64,0.6c-0.57,0.24-1.05,0.45-1.51,0.75c-1.66,0.87-3.14,2.06-4.5,3.4c-1.36,1.33-2.48,2.88-3.59,4.51
		c-1.33,2.13-2.54,4.41-3.45,6.8c-0.91,2.38-1.69,4.91-2.28,7.48c-0.06,0.11-0.04,0.19-0.1,0.3c-0.04,0.19-0.08,0.38-0.12,0.57
		c-0.63-0.37-1.2-0.5-1.71-0.37c-0.5,0.13-0.94,0.51-1.51,1.1c-0.11-0.06-0.21-0.12-0.25-0.29c-0.02-0.08-0.13-0.15-0.15-0.23
		c-0.76-0.88-1.51-1.67-2.23-2.38c-0.74-0.79-1.55-1.48-2.37-2.26c-0.93-0.84-1.84-1.59-2.83-2.32c0,0,0,0-0.11-0.06
		c-0.23-0.21-0.47-0.42-0.8-0.69c-0.11-0.06-0.11-0.06-0.21-0.12l0.04,0.17c-0.76-0.52-1.52-1.04-2.35-1.46
		c-2.11-1.25-4.43-2.26-6.75-2.92c-1.45-0.43-2.95-0.67-4.38-0.66c-1.45-0.07-2.86,0.02-4.31,0.3c-0.69,0.09-1.07,0.37-1.43,0.73
		c-0.27,0.34-0.48,0.93-0.56,1.67c-0.02,0.63-0.05,1.18,0.01,1.79C34.53,64.22,34.69,64.81,34.92,65.37z M76,91.7
		c-0.12,0.21-0.29,0.25-0.48,0.21c-0.19-0.04-0.38-0.08-0.7-0.27c-0.21-0.12-0.34-0.27-0.49-0.5c-0.13-0.15-0.28-0.38-0.42-0.61
		c-1.27-1.82-2.3-3.71-3.34-5.68c-0.92-1.82-1.67-3.69-2.46-5.73c0.02,0.08,0.13,0.15,0.15,0.23c0.02,0.08,0.13,0.15,0.13,0.15
		c0.89,1.38,1.89,2.83,2.81,4.29c1.47,2.22,2.85,4.46,4.38,6.58l0.02,0.08l0.02,0.08l0.02,0.08C76.01,91.07,76.18,91.39,76,91.7z
		 M72.28,77.26c0.93,0.12,1.77,0.26,2.7,0.38c0.27,0.02,0.46,0.06,0.67,0.18c0.21,0.12,0.42,0.25,0.47,0.42l0.17,0.31
		c0.7,0.98,1.4,1.97,2.1,2.95c-0.06,0.11-0.17,0.04-0.36,0c0,0-0.08,0.02-0.11-0.06c-1.14-0.24-2.3-0.57-3.48-0.99
		c-1.1-0.43-2.22-0.95-3.36-1.55c-0.32-0.19-0.74-0.44-1.14-0.6c-0.32-0.19-0.74-0.44-1.16-0.69l-0.11-0.06
		c-0.21-0.12-0.42-0.25-0.57-0.48c0.31-0.17,0.61-0.07,0.97-0.07c0.08-0.02,0.19,0.04,0.19,0.04
		C70.51,76.99,71.35,77.14,72.28,77.26z M70.08,75.67c0.67-0.17,1.45-0.28,2.12-0.46c1.09-0.28,2.16-0.65,3.25-0.93
		c0.17-0.04,0.34-0.09,0.42-0.11c0.17-0.04,0.27,0.02,0.46,0.06c0.11,0.06,0.19,0.04,0.3,0.1c0,0,0,0,0.02,0.08c0,0,0,0,0.02,0.08
		c0.02,0.08-0.06,0.11-0.12,0.21c-0.19,0.32-0.37,0.63-0.69,0.8c-0.21,0.23-0.54,0.32-0.8,0.38l-0.17,0.04
		c-0.97,0.07-1.96,0.06-2.94,0.04C71.36,75.79,70.73,75.77,70.08,75.67z M79.31,90.67l-0.08,0.02c-0.27,0.34-0.65,0.26-1.03,0.18
		c-0.21-0.12-0.51-0.23-0.63-0.37c-0.21-0.12-0.36-0.36-0.51-0.59c-1.89-2.83-3.87-5.63-5.91-8.33c-0.55-0.75-1.13-1.59-1.81-2.49
		L69.32,79c0.19,0.04,0.42,0.25,0.55,0.4L70,79.54c2.71,2.53,5.44,5.14,8.01,7.79c0.25,0.29,0.51,0.59,0.78,0.96
		c0.17,0.31,0.36,0.71,0.55,1.11c0.09,0.34,0.15,0.59,0.11,0.78C79.5,90.35,79.46,90.54,79.31,90.67z M82.92,88.67
		c-0.19,0.32-0.4,0.55-0.67,0.53c-0.25,0.06-0.55-0.04-0.86-0.23c-0.21-0.12-0.42-0.25-0.55-0.4c-0.21-0.12-0.36-0.36-0.51-0.59
		c-0.93-1.19-1.93-2.28-3.01-3.35c-0.97-1-2.01-1.9-3.05-2.8c1.39,0.54,2.72,1.18,4.01,2.01c1.48,0.87,2.81,1.87,4.04,3.17
		c0.02,0.08,0.11,0.06,0.13,0.15l0.11,0.06c0.25,0.29,0.42,0.61,0.49,0.86C83.08,88.27,83.04,88.46,82.92,88.67z M85.38,86.06
		c-0.04,0.19-0.1,0.3-0.25,0.42c-0.06,0.11-0.23,0.15-0.4,0.19c-0.25,0.06-0.44,0.02-0.63-0.02c-0.19-0.04-0.42-0.25-0.55-0.4
		c-0.61-0.65-1.31-1.27-1.99-1.82c-0.55-0.4-1.04-0.9-1.59-1.29c0.63,0.02,1.2,0.14,1.87,0.32c0.76,0.16,1.56,0.49,2.3,0.93
		l0.11,0.06c0.32,0.19,0.63,0.37,0.89,0.67c0.13,0.15,0.25,0.29,0.3,0.46C85.4,85.79,85.42,85.87,85.38,86.06z M85.03,80.51
		c0.11,0.06,0.32,0.19,0.44,0.33c0.13,0.15,0.28,0.38,0.24,0.57c0.04,0.17,0,0.36-0.04,0.55c-0.06,0.11-0.12,0.21-0.19,0.32
		s-0.23,0.15-0.34,0.09c-1.01-0.1-1.94-0.22-2.86-0.34c-0.95-0.2-1.83-0.51-2.76-0.99c-0.19-0.04-0.32-0.19-0.44-0.33
		c-0.11-0.06-0.15-0.23-0.17-0.31c0.82,0.06,1.62,0.03,2.5-0.02c0.97-0.07,1.96-0.06,2.97,0.04C84.54,80.37,84.82,80.39,85.03,80.51
		z M83.13,77.33c0.4,0.17,0.68,0.54,0.97,1c0.13,0.15,0.15,0.23,0.09,0.34c-0.08,0.02-0.08,0.02-0.17,0.04l-0.8,0.03
		c-1.51,0.03-3.13,0-4.65,0.03c-0.27-0.02-0.57-0.12-0.78-0.25c-0.21-0.12-0.36-0.36-0.51-0.59c0.8-0.03,1.58-0.14,2.27-0.23
		c0.84-0.22,1.7-0.35,2.46-0.54C82.44,77.06,82.82,77.14,83.13,77.33z M80.59,75.12c0.17,0.31,0.4,0.52,0.57,0.84
		c-0.67,0.17-1.34,0.35-2.14,0.37c-0.69,0.09-1.41,0.09-2.15,0.01c0.29-0.25,0.48-0.57,0.69-0.8c0.27-0.34,0.56-0.59,0.94-0.87
		c0.15-0.13,0.4-0.19,0.59-0.15c0.19,0.04,0.46,0.06,0.65,0.1C80.04,74.72,80.28,74.93,80.59,75.12z M85.46,67.24
		c0.13,0.5,0.13,0.86,0.03,1.16c-0.1,0.3-0.29,0.61-0.6,0.78L84.8,69.2c-0.29,0.25-0.69,0.45-1.11,0.55
		c-0.42,0.11-0.76,0.19-1.2,0.22c-1.22,0.13-2.33,0.33-3.51,0.63c-1.09,0.28-2.25,0.67-3.3,1.12c-0.99,0.34-2.04,0.79-3.02,1.14
		c-0.99,0.34-2.06,0.71-3.15,0.99l-0.76,0.19c0.04-0.19,0.19-0.32,0.33-0.44l0.08-0.02c1.3-1.23,2.61-2.37,3.97-3.35
		c1.34-1.06,2.83-1.89,4.36-2.55c0.96-0.43,1.95-0.77,3.04-1.05c1.01-0.26,1.95-0.41,3-0.5c0.61-0.07,0.99,0.01,1.31,0.2
		C85.16,66.42,85.33,66.73,85.46,67.24z M75.8,66.59c0.58-0.87,1.19-1.65,1.81-2.35c0.69-0.8,1.42-1.44,2.24-2.1
		c0.29-0.25,0.67-0.53,0.98-0.7c0.38-0.28,0.69-0.45,1.09-0.64c0.17-0.04,0.25-0.06,0.4-0.19c0.17-0.04,0.25-0.06,0.42-0.11
		c0.44-0.02,0.93,0.12,1.24,0.31c0.34,0.27,0.59,0.56,0.62,1.01c0.05,0.53,0.01,1.07-0.16,1.47c-0.17,0.4-0.52,0.76-0.84,0.93
		l-0.08,0.02c-0.25,0.06-0.42,0.11-0.67,0.17c-0.25,0.06-0.5,0.13-0.76,0.19c-2.1,0.54-4.12,1.06-6.05,1.91
		c-0.08,0.02-0.08,0.02-0.17,0.04L75.8,66.59z M84.61,56.98c0.02,0.08,0.02,0.08,0.04,0.17l0.02,0.08c0,0.36-0.1,0.65-0.23,0.86
		c-0.21,0.23-0.52,0.4-0.94,0.51l-0.08,0.02c-0.34,0.09-0.69,0.09-0.84-0.14c-0.15-0.23,0.04-0.55,0.25-0.78
		c0.06-0.11,0.06-0.11,0.12-0.21c0.12-0.21,0.33-0.44,0.56-0.59c0.23-0.15,0.46-0.3,0.71-0.36l0.08-0.02
		c0.08-0.02,0.19,0.04,0.3,0.1C84.55,56.72,84.57,56.81,84.61,56.98z M82.78,53.69c0.17-0.04,0.4-0.19,0.67-0.17
		c0.17-0.04,0.36,0,0.46,0.06c0.11,0.06,0.23,0.21,0.3,0.46c0.13,0.15,0.17,0.31,0.19,0.4c0.02,0.08-0.06,0.11-0.15,0.13
		c-0.82,0.3-1.4,0.81-2.09,1.26c-0.29,0.25-0.61,0.42-0.9,0.68c0,0-0.08,0.02-0.17,0.04c-0.08,0.02-0.08,0.02-0.17,0.04
		c-0.17,0.04-0.25,0.06-0.34,0.09c-0.17,0.04-0.27-0.02-0.4-0.17c-0.02-0.08-0.04-0.17-0.04-0.17c-0.02-0.08,0.06-0.11,0.04-0.19
		c0.25-0.42,0.5-0.84,0.85-1.2c0.36-0.36,0.73-0.64,1.11-0.91C82.38,53.88,82.55,53.83,82.78,53.69z M79.48,54.44
		c0.48-0.93,0.95-1.86,1.79-2.43c0.08-0.02,0.08-0.02,0.17-0.04c0.08-0.02,0.17-0.04,0.27,0.02c0.11,0.06,0.21,0.12,0.23,0.21
		c0.15,0.23,0,0.36-0.14,0.48c-0.42,0.47-0.77,0.83-1.13,1.19c-0.36,0.36-0.71,0.72-1.07,1.08c-0.08,0.02-0.06,0.11-0.15,0.13
		l-0.08,0.02l-0.08,0.02c0,0,0,0-0.02-0.08c0,0-0.11-0.06-0.02-0.08C79.38,54.74,79.44,54.63,79.48,54.44z M78.7,59.04
		c0.06-0.11,0.23-0.15,0.38-0.28c0.08-0.02,0.17-0.04,0.34-0.09l0.08-0.02c0.19,0.04,0.3,0.1,0.4,0.17
		c0.11,0.06,0.23,0.21,0.28,0.38c0.04,0.17,0.06,0.25,0.02,0.44c-0.06,0.11-0.12,0.21-0.19,0.32c-0.36,0.36-0.82,0.66-1.26,1.04
		c-0.38,0.28-0.73,0.64-1.11,0.91l-0.02-0.08c0.04-0.55,0.1-1.01,0.24-1.5C78.01,59.84,78.34,59.4,78.7,59.04z M76.52,58.25
		c0.08-0.38,0.16-0.76,0.46-1.01l0.06-0.11c0.06-0.11,0.15-0.13,0.23-0.15s0.17-0.04,0.3,0.1c0.13,0.15,0.23,0.21,0.28,0.38
		c0.04,0.17-0.02,0.27-0.06,0.46c-0.17,0.4-0.37,0.63-0.56,0.95c-0.21,0.23-0.44,0.38-0.73,0.64C76.51,58.88,76.5,58.53,76.52,58.25
		z M74.14,57.34c0.12-0.21,0.33-0.44,0.67-0.53l0.08-0.02c0.08-0.02,0.27,0.02,0.3,0.1c0.11,0.06,0.13,0.15,0.17,0.31l0.02,0.08
		c0.06,0.25-0.02,0.63-0.14,0.84c-0.12,0.21-0.33,0.44-0.5,0.49c-0.17,0.04-0.36,0-0.46-0.06c-0.11-0.06-0.23-0.21-0.28-0.38
		C73.91,57.85,73.93,57.58,74.14,57.34z M71.1,61.89c0.31-0.53,0.62-1.06,0.96-1.5l0.15-0.13c0.15-0.13,0.21-0.23,0.36-0.36
		c0.15-0.13,0.4-0.19,0.57-0.24c0.08-0.02,0.27,0.02,0.3,0.1c0.11,0.06,0.13,0.15,0.25,0.29c0.02,0.08,0.04,0.17-0.02,0.27
		c-0.06,0.11-0.15,0.13-0.21,0.23c-0.61,0.42-1.11,0.91-1.69,1.42c-0.36,0.36-0.79,0.74-1.15,1.1C70.83,62.58,70.91,62.2,71.1,61.89
		z M67.48,73.21c0.32-2.59,1.08-4.85,2.2-6.75c1.12-1.9,2.67-3.55,4.57-4.85c0.15-0.13,0.38-0.28,0.54-0.32
		c0.25-0.06,0.42-0.11,0.67-0.17c0.17-0.04,0.36,0,0.46,0.06c0.11,0.06,0.11,0.06,0.21,0.12c0.02,0.08,0.13,0.15,0.15,0.23
		c0.04,0.17,0,0.36-0.04,0.55c-0.02,0.27-0.14,0.48-0.25,0.78c-0.1,0.3-0.23,0.51-0.33,0.8c-0.54,1.03-1.08,2.07-1.75,2.96
		s-1.36,1.69-2.13,2.52c-0.56,0.59-1.15,1.1-1.73,1.61c-0.86,0.85-1.82,1.63-2.63,2.65C67.41,73.31,67.41,73.31,67.48,73.21z
		 M42.06,69.09c-0.57,0.24-0.92,0.24-1.22,0.13c-0.21-0.12-0.42-0.25-0.51-0.59l-0.02-0.08c-0.06-0.25-0.11-0.42-0.05-0.53
		c0.06-0.11,0.12-0.21,0.38-0.28c0.42-0.11,0.78-0.11,1.16-0.03c0.38,0.08,0.72,0.35,1.06,0.62c0.11,0.06,0.13,0.15,0.13,0.15
		c0.02,0.08-0.04,0.19-0.12,0.21c-0.15,0.13-0.21,0.23-0.38,0.28C42.31,69.03,42.22,69.05,42.06,69.09z M50.36,78.06
		c-0.67,0.17-1.32,0.43-1.95,0.77c-0.4,0.19-0.82,0.3-1.24,0.41c-0.42,0.11-0.86,0.13-1.24,0.05c-0.46-0.06-0.76-0.16-1.01-0.46
		c-0.25-0.29-0.42-0.61-0.55-1.11c-0.11-0.42-0.11-0.78-0.01-1.07c0.1-0.3,0.4-0.55,0.79-0.74c0.63-0.34,1.36-0.62,2.1-0.9
		c0.73-0.28,1.51-0.39,2.27-0.58c2.06-0.35,4.1-0.43,6.12-0.23c2.02,0.2,4.11,0.64,6.13,1.2c0,0,0.08-0.02,0.11,0.06
		c0.11,0.06,0.19,0.04,0.32,0.19c-0.73,0.28-1.51,0.39-2.27,0.58c-0.17,0.04-0.34,0.09-0.5,0.13c-1.18,0.3-2.31,0.42-3.53,0.55
		c-1.22,0.13-2.42,0.35-3.61,0.57C51.69,77.63,51.01,77.8,50.36,78.06z M55.87,79.96l-0.11-0.06c-0.11-0.06-0.11-0.06-0.13-0.15
		l-0.02-0.08c0,0,0,0-0.02-0.08c-0.02-0.08,0.06-0.11,0.12-0.21c0.21-0.23,0.54-0.32,0.88-0.41l0.17-0.04
		c1.11-0.2,2.21-0.48,3.3-0.76c0.84-0.22,1.66-0.52,2.48-0.82c-0.15,0.13-0.31,0.17-0.46,0.3c-0.17,0.04-0.23,0.15-0.4,0.19
		c-0.63,0.34-1.24,0.77-1.78,1.09c-0.63,0.34-1.26,0.68-1.89,1.02c-0.4,0.19-0.73,0.28-1.18,0.3
		C56.48,80.25,56.18,80.14,55.87,79.96z M56.3,81.64c-0.63,0.34-1.26,0.68-1.91,0.94c-0.65,0.26-1.38,0.54-2.14,0.73
		c0.1-0.3,0.14-0.48,0.25-0.78c0.1-0.3,0.23-0.51,0.44-0.74c0.27-0.34,0.56-0.59,0.82-0.66c0.34-0.09,0.69-0.09,1.07-0.01
		c0.4,0.17,0.78,0.25,1.18,0.41L56.3,81.64z M50.93,87.23c-0.02-0.08,0.02-0.27,0-0.36l-0.02-0.08c0.06-0.46,0.2-0.95,0.39-1.26
		c0.19-0.32,0.48-0.57,0.9-0.68c0.76-0.19,1.49-0.47,2.22-0.75c0.73-0.28,1.47-0.56,2.2-0.84c0,0.36-0.02,0.63-0.14,0.84
		c-0.1,0.3-0.42,0.47-0.73,0.64c-0.86,0.49-1.74,0.9-2.68,1.41c-0.63,0.34-1.26,0.68-1.8,1l-0.08,0.02
		C51.1,87.18,51.04,87.29,50.93,87.23z M52.34,90.62c-0.08,0.02-0.08,0.02-0.08,0.02c-0.23,0.15-0.48,0.21-0.67,0.17
		c-0.19-0.04-0.3-0.1-0.34-0.27c-0.15-0.23-0.21-0.48-0.19-0.76c0.02-0.27,0.14-0.48,0.27-0.7c0.19-0.32,0.5-0.49,0.82-0.66
		l0.08-0.02c0.69-0.45,1.4-0.81,2.14-1.09c0.71-0.36,1.43-0.72,2.14-1.09c-0.02,0.27-0.06,0.46-0.18,0.67
		c-0.1,0.3-0.31,0.53-0.52,0.76c-0.75,0.91-1.65,1.59-2.53,2.35C52.87,90.22,52.57,90.48,52.34,90.62z M56.11,91
		c-0.33,0.8-0.64,1.69-0.87,2.55c-0.1,0.3-0.23,0.51-0.37,0.63c-0.15,0.13-0.38,0.28-0.54,0.32c-0.08,0.02-0.25,0.06-0.36,0
		c-0.19-0.04-0.3-0.1-0.42-0.25c-0.13-0.15-0.17-0.31-0.21-0.48c-0.02-0.08-0.06-0.25,0-0.36c0.04-0.19,0-0.36,0.14-0.48
		c0.04-0.19,0.19-0.32,0.25-0.42c0.42-0.82,1.04-1.52,1.61-2.11c0.5-0.49,1.02-0.89,1.55-1.29C56.59,89.71,56.3,90.32,56.11,91z
		 M60.16,88.61c-0.39,1.26-0.68,2.59-0.96,3.92l-0.12,0.21c-0.1,0.3-0.1,0.65-0.18,1.03l-0.04,0.19c-0.04,0.19-0.14,0.48-0.18,0.67
		c-0.12,0.21-0.17,0.4-0.29,0.61c-0.12,0.21-0.36,0.36-0.61,0.42c-0.25,0.06-0.46-0.06-0.76-0.16c-0.21-0.12-0.34-0.27-0.4-0.52
		c-0.06-0.25-0.11-0.42-0.03-0.8c0.04-0.19,0.14-0.48,0.18-0.67c0.04-0.19,0.14-0.48,0.18-0.67c0.49-1.56,1.22-2.91,2.03-4.28
		c0.62-1.06,1.35-2.05,2.19-2.98C60.79,86.57,60.51,87.54,60.16,88.61z M64.89,85.78c0.09-1.73,0.21-3.37,0.39-5.11
		c-0.02-0.08-0.02-0.08,0.04-0.19c0.04-0.19,0.02-0.27,0.06-0.46c0.05,0.88,0.16,1.66,0.16,2.38c0.07,0.97,0.2,1.83,0.23,2.63
		c0.05,1.24,0.1,2.48,0.15,3.72c-0.03,1.26-0.09,2.44-0.23,3.64c0.02,0.08-0.04,0.19-0.02,0.27c-0.06,0.46-0.1,1.01-0.26,1.41
		c-0.12,0.21-0.25,0.42-0.4,0.55c-0.15,0.13-0.25,0.06-0.42,0.11c-0.4-0.17-0.4-0.52-0.41-0.88l-0.02-0.08
		c-0.02-0.08-0.02-0.08,0.04-0.19c-0.02-0.08-0.02-0.08,0.04-0.19C64.5,90.9,64.66,88.35,64.89,85.78z M64.31,81.1
		c0.02,0.08-0.06,0.11-0.04,0.19c-0.16,1.12-0.24,2.21-0.4,3.33c-0.53,2.82-0.87,5.69-1.1,8.61l0.02,0.08
		c0,0.36-0.08,0.74-0.27,1.05c-0.1,0.3-0.31,0.53-0.6,0.78c-0.06,0.11-0.23,0.15-0.31,0.17c-0.17,0.04-0.34,0.09-0.44,0.02
		c-0.11-0.06-0.32-0.19-0.44-0.33c-0.13-0.15-0.15-0.23-0.19-0.4c-0.09-0.34-0.15-0.59-0.13-0.86c0-0.36,0-0.72,0.1-1.01
		c0.02-0.27,0.12-0.57,0.16-0.76c0.02-0.27,0.12-0.57,0.25-0.78c0.47-1.64,0.97-3.2,1.44-4.85c0.47-1.64,0.97-3.2,1.54-4.79
		l0.06-0.11c0.1-0.3,0.27-0.7,0.46-1.01C64.39,80.72,64.35,80.91,64.31,81.1z M63.68,78.3c0.08-0.02,0.17-0.04,0.25-0.06l0.08-0.02
		c-0.18,1.03-1.39,2.95-2.72,4.73c-1.33,1.78-2.82,3.32-3.76,3.83c0.06-1.18,0.19-2.38,0.27-3.47l0.08-0.38
		c0.04-0.19,0.08-0.38,0.12-0.57c0.12-0.21,0.27-0.34,0.42-0.47l0.08-0.02C60.16,80.64,61.88,79.3,63.68,78.3z M51.39,65.35
		c0.06-0.11,0.23-0.15,0.4-0.19c0.08-0.02,0.17-0.04,0.25-0.06c0.08-0.02,0.19,0.04,0.27,0.02c0.67,0.18,1.18,0.41,1.81,0.79
		c0.53,0.31,0.97,0.65,1.44,1.06c-0.59-0.21-1.18-0.41-1.75-0.53c-0.67-0.18-1.33-0.29-1.98-0.39l-0.08,0.02
		c-0.27-0.02-0.55-0.04-0.53-0.31C51.27,65.56,51.22,65.39,51.39,65.35z M50.8,67.56c0.25-0.06,0.53-0.05,0.72,0
		c0.44-0.02,0.72,0,0.93,0.12c2.13,0.26,4,0.94,5.74,2.11c1.71,1.08,3.36,2.63,4.74,4.51c0.02,0.08,0.13,0.15,0.15,0.23
		c-1.29-0.47-2.53-0.78-3.77-1.09c-1.62-0.39-3.27-0.86-4.89-1.61c-0.72-0.35-1.35-0.73-2.07-1.08c-0.63-0.37-1.29-0.83-1.88-1.4
		l-0.11-0.06c-0.36-0.36-0.8-0.69-0.66-1.17c0.14-0.48,0.59-0.51,0.94-0.51C50.71,67.58,50.8,67.56,50.8,67.56z M48.54,63.66
		c0.06-0.11,0.23-0.15,0.4-0.19c0.08-0.02,0.08-0.02,0.17-0.04c0.25-0.06,0.46,0.06,0.67,0.18c0.21,0.12,0.36,0.36,0.4,0.52
		l0.02,0.08c0.04,0.17,0,0.36-0.06,0.46c-0.06,0.11-0.21,0.23-0.38,0.28c0,0,0,0-0.08,0.02c-0.25,0.06-0.46-0.06-0.67-0.18
		c-0.3-0.1-0.47-0.42-0.55-0.75C48.42,63.87,48.48,63.77,48.54,63.66z M46.47,65c0.06-0.11,0.15-0.13,0.23-0.15
		c0.08-0.02,0.19,0.04,0.27,0.02c0.4,0.17,0.72,0.35,0.97,0.65c0.25,0.29,0.42,0.61,0.62,1.01c-0.27-0.02-0.55-0.04-0.74-0.08
		c-0.19-0.04-0.4-0.17-0.59-0.21l-0.21-0.12c-0.11-0.06-0.21-0.12-0.23-0.21c-0.11-0.06-0.13-0.15-0.15-0.23
		c-0.21-0.12-0.25-0.29-0.28-0.38C46.34,65.21,46.4,65.11,46.47,65z M45.43,67.6c0.15-0.13,0.38-0.28,0.57-0.24
		c0.19,0.04,0.38,0.08,0.57,0.12c0.19,0.04,0.4,0.17,0.61,0.29c0.32,0.19,0.66,0.46,0.91,0.75c0.23,0.21,0.4,0.52,0.66,0.82
		c-0.82-0.06-1.58-0.22-2.34-0.38c-0.19-0.04-0.38-0.08-0.57-0.12c-0.19-0.04-0.3-0.1-0.42-0.25c-0.13-0.15-0.17-0.31-0.21-0.48
		C45.25,67.91,45.29,67.72,45.43,67.6z M48.53,70.92c1.35,0.37,2.66,0.93,3.9,1.59c-0.42,0.11-0.86,0.13-1.28,0.24
		c-0.25,0.06-0.44,0.02-0.69,0.09c-1.2,0.22-2.46,0.54-3.63,0.85c-0.59,0.15-1.18,0.3-1.85,0.48c-0.34,0.09-0.69,0.09-0.99-0.01
		c-0.3-0.1-0.61-0.29-0.87-0.58c-0.02-0.08-0.13-0.15-0.15-0.23c-0.28-0.38-0.38-0.8-0.39-1.15c0-0.36,0.16-0.76,0.43-1.1
		c0,0,0.08-0.02,0.06-0.11l0.06-0.11c0.15-0.13,0.29-0.25,0.46-0.3c0.17-0.04,0.34-0.09,0.5-0.13
		C45.6,70.33,47.07,70.49,48.53,70.92z M39.17,65.18c0.15-0.13,0.29-0.25,0.54-0.32l0.17-0.04c0.61-0.07,1.24-0.05,1.81,0.07
		s1.16,0.33,1.77,0.62c0.21,0.12,0.42,0.25,0.4,0.52c-0.04,0.19-0.21,0.23-0.38,0.28l-0.08,0.02c-0.17,0.04-0.42,0.11-0.61,0.07
		c-0.19-0.04-0.38-0.08-0.65-0.1c-0.38-0.08-0.76-0.16-1.12-0.16c-0.36,0-0.74-0.08-1.16,0.03c-0.36,0-0.55-0.04-0.65-0.1
		c-0.11-0.06-0.13-0.15-0.17-0.31C38.98,65.49,39.02,65.3,39.17,65.18z"/>
	<path d="M197.95,133.36c-2.99,1.55-5.99,1.32-9.07-0.02c0.81,4.85,7.29,10.52,15.08,8.8c7.43-1.64,12.05-9.07,10.23-16.24
		c-1.98-7.77-10-11.52-15.9-9.68c4.95,3.88,6.32,7.92,4.27,12.32C201.58,130.67,200.05,132.27,197.95,133.36z"/>
	<path d="M258.82,108.23c-2.4,6.48-0.85,4.93-7.33,7.33c6.48,2.4,4.93,0.85,7.33,7.33c2.4-6.48,0.85-4.93,7.33-7.33
		C259.67,113.16,261.22,114.71,258.82,108.23z"/>
	<path d="M242.67,105.77c3.19-8.6,1.13-6.54,9.73-9.73c-8.6-3.19-6.54-1.13-9.73-9.73c-3.19,8.6-1.13,6.54-9.73,9.73
		C241.54,99.23,239.48,97.17,242.67,105.77z"/>
	<path d="M260.25,81.32c1.64-4.42,0.58-3.36,4.99-4.99c-4.42-1.64-3.36-0.58-4.99-4.99c-1.64,4.42-0.58,3.36-4.99,4.99
		C259.67,77.96,258.61,76.9,260.25,81.32z"/>
	<path d="M47.82,196.19c-6.48-2.4-4.93-0.85-7.33-7.33c-2.4,6.48-0.85,4.93-7.33,7.33c6.48,2.4,4.93,0.85,7.33,7.33
		C42.89,197.04,41.34,198.59,47.82,196.19z"/>
	<path d="M40.49,173.1c-7.97-2.95-6.06-1.05-9.02-9.02c-2.95,7.97-1.05,6.06-9.02,9.02c7.97,2.95,6.07,1.05,9.02,9.02
		C34.42,174.15,32.51,176.05,40.49,173.1z"/>
</g>
</svg>
