<?xml version="1.0" encoding="utf-8"?>
<!-- Generator: Adobe Illustrator 28.0.0, SVG Export Plug-In . SVG Version: 6.00 Build 0)  -->
<svg version="1.1" id="Layer_1" xmlns="http://www.w3.org/2000/svg" xmlns:xlink="http://www.w3.org/1999/xlink" x="0px" y="0px"
	 viewBox="0 0 300 300" style="enable-background:new 0 0 300 300;" xml:space="preserve">
<style type="text/css">
	.st0{fill:#F8B9CD;}
	.st1{fill:#A3BB9F;}
	.st2{fill:#F0658C;}
	.st3{fill:#FAAB55;}
	.st4{fill:#FFFFFF;}
</style>
<g>
	<path d="M293.65,163.02c-0.23-0.19-0.45-0.39-0.68-0.58c1.03-1.32,2.07-2.64,1.5-4.33c-0.37-1.12-1.45-2.06-1.64-3.17
		c-0.2-1.19-0.16-2.41-0.78-3.52c-0.86-1.55-0.83-1.55-0.66-3.3c0.2-2.07-1-3.37-2.62-4.29c-2.62-1.49-5.49-1.77-8.34-1.05
		c-6.35,1.61-11.48,4.87-14.2,11.15c-3.78-3.24-8.6-2.24-8.75,2.33c-2.08-0.25-4.14-0.5-6.51-0.79c3.86-2.73,7.01-5.75,9.37-9.64
		c1.63,2.61,3.9,3.61,6.72,3.05c3.26-0.64,5.02-2.82,5.5-6.04c4.56-0.45,6.45-2.07,6.81-5.77c0.36-3.67-1.77-6.04-6.68-7.47
		c0.14-1.03,0.33-2.06,0.4-3.09c0.14-2.13-0.87-3.59-2.77-4.5c-3.54-1.69-8.17-0.45-10.59,2.86c-0.41,0.56-0.77,1.16-1.18,1.78
		c-2.11-0.59-3.98-0.29-5.31,1.61c-1.92,2.73-2.15,5.52-0.17,8.4c-4.53-0.34-7.87,1.89-11.05,4.64c0.49-1.71,1.08-3.34,1.63-4.99
		c0.17-0.5,0.4-1.1,0.26-1.55c-0.14-0.47-0.7-0.81-1.16-1.29c0.08-0.06,0.27-0.17,0.42-0.31c1.98-1.96,3.78-4.03,4.43-6.85
		c0.06-0.25,0.48-0.51,0.78-0.59c1.01-0.29,2.07-0.4,3.05-0.75c3.08-1.1,5.52-3,6.51-6.21c1.27-4.13-2.08-9.31-6.51-10.37
		c-0.4-0.09-0.79-0.19-1.25-0.29c1.62-4.51,0.2-8.26-2.75-11.56c-3.6-4.02-9.61-3.88-13.09,0.22c-0.54,0.64-0.99,1.35-1.36,1.86
		c-1.38-0.67-2.68-1.65-4.11-1.89c-1.41-0.24-2.94,0.28-4.69,0.49c1.12-2.37,2.18-4.71,3.33-7.01c0.4-0.79,0.83-1.51,0.28-2.33
		c-0.53-0.79-1.33-0.61-2.1-0.45c-0.14,0.03-0.27,0.07-0.41,0.09c-7.26,1.58-13.94,4.44-20.06,8.69
		c-7.21,5.01-14.06,10.4-19.74,17.15c-0.84,1-1.63,2.04-2.35,2.93c-0.64-3.68-1.28-7.4-1.91-11.04c0.77,0.33,1.67,0.79,2.61,1.12
		c3.02,1.05,5.65,0.35,7.88-1.89c1.55-1.56,2.52-3.45,2.85-5.61c0.24-1.6,0.28-3.24,0.41-4.9c0.84,0.39,1.7,0.84,2.59,1.2
		c2.95,1.17,5.88,0.19,7.36-2.59c2.38-4.47,1.8-8.9-0.47-13.23c-0.18-0.35-0.38-0.69-0.62-1.11c0.79,0,1.42,0,2.05,0
		c2.35,0.01,4.69,0.01,6.92-0.91c3.08-1.28,4.04-3.86,2.5-6.81c-0.24-0.46-0.49-0.97-0.87-1.3c-1.43-1.29-1.88-2.97-2.46-4.74
		c-1.71-5.18-5.63-8.17-10.84-9.33c-4.13-0.92-8.36-0.89-12.52-0.13c-5.71,1.04-10.52,4.03-15.1,7.42
		c-0.45,0.33-1.03,0.64-1.57,0.68c-3.81,0.29-7.45,1.22-10.95,2.7c-4.28,1.81-8.34,3.99-11.14,7.91c-0.13,0.18-0.38,0.28-0.59,0.37
		c-1.3,0.51-2.64,0.92-3.89,1.52c-3.85,1.84-7.66,3.75-11.48,5.63c-0.16,0.08-0.35,0.11-0.76,0.24c0.8-4.83,1.54-9.49,2.37-14.13
		c0.27-1.5,0.8-2.96,1.24-4.43c0.25-0.84,0.46-1.67-0.33-2.32c-0.8-0.66-1.58-0.3-2.31,0.18c-0.38,0.25-0.77,0.49-1.11,0.78
		c-1.62,1.39-3.21,2.8-4.82,4.2c-0.21,0.18-0.44,0.34-0.84,0.65c0.28-0.63,0.46-1,0.62-1.39c1.12-2.79,1.94-5.62,1.35-8.68
		c-0.71-3.67-3.56-5.81-7.23-4.35c-0.15,0.06-0.32,0.08-0.51,0.13c-0.09-0.99-0.13-1.93-0.26-2.86c-0.41-3.05-2.49-4.6-5.48-3.91
		c-1.12,0.26-2.29,0.78-3.15,1.51c-1.17,0.99-2.06,2.3-2.99,3.38c-0.31-1.04-0.61-2.26-1.04-3.42c-0.84-2.24-2.51-3.49-4.87-3.75
		c-2.49-0.27-4.32,0.88-5.64,2.9c-0.41,0.62-0.73,1.3-1.11,1.97c-0.64-0.82-1.18-1.64-1.86-2.33c-1.73-1.77-3.9-2.1-6.05-1.01
		c-1.4,0.71-2.22,1.94-2.63,3.38c-0.26,0.93-0.61,1.19-1.64,1.16c-2.85-0.09-5.02,1.18-6.42,3.73c-0.17,0.3-0.67,0.56-1.04,0.59
		c-1.65,0.13-2.9,0.91-3.62,2.34c-0.54,1.08-0.94,2.26-1.18,3.44c-0.43,2.13,0.19,4.14,1.12,6.09c-0.6,0.28-1.14,0.5-1.66,0.77
		c-3.79,1.94-4.82,5.27-2.83,9.04c1.47,2.78,3.85,4.47,6.67,5.62c6.5,2.65,13.19,2.83,19.99,1.42c0.36-0.07,0.83-0.15,1.11,0.02
		c1.27,0.75,2.46,1.58,2.88,3.15c0.33,1.23,0.77,2.43,1.17,3.64c-1.15,0.4-2.48,0.81-3.75,1.35c-0.62,0.26-1,0.16-1.49-0.24
		C94.87,89.34,94,88.45,92.94,88c-4.18-1.78-8.46-3.34-12.95-4.15c-3.49-0.63-6.72-1.85-9.71-3.75c-4.34-2.76-8.89-5.13-13.51-7.39
		c-3.63-1.77-7.01-4.04-10.49-6.11c-0.73-0.43-1.43-0.86-2.22-0.29c-0.81,0.58-0.6,1.42-0.35,2.21c0.83,2.66,2.15,5.07,3.76,7.34
		c3.34,4.69,7.64,8.23,12.75,10.81c1.05,0.53,2.09,1.07,3.1,1.59c-0.88,0.66-1.7,1.29-2.56,1.93c-2.48-2.11-5.31-1.9-8.1-0.9
		c-3.13,1.12-4.27,3.69-4.38,6.81c-4.48,0.92-5.53,1.7-6.95,5.21c-0.21-0.22-0.41-0.4-0.58-0.61c-1.39-1.67-3.13-2.89-5.06-3.84
		c-3.4-1.69-6.29-0.63-7.79,2.88c-2.65-0.21-3.83,1.32-4.17,3.74c-0.64-0.12-1.21-0.3-1.79-0.31c-1.98-0.04-3.02,1.23-3.73,2.86
		c-0.2,0.45-0.35,0.73-0.95,0.73c-2.04,0.01-3.41,1.04-4.16,2.92c-0.11,0.28-0.38,0.53-0.62,0.74c-0.73,0.62-1.66,1.08-2.19,1.83
		c-2.29,3.2-2.24,8.44-0.08,11.73c4.81,7.33,15.3,8.85,20.79,5.14c0.22-0.15,0.49-0.23,0.77-0.35c0.45,1.73,0.87,3.47,2.68,4.2
		c2.07,0.84,3.24-0.46,4.21-2.16c0.87,1.31,1.66,2.49,2.52,3.79c-0.32-0.04-0.45-0.05-0.58-0.07c-4.34-0.81-8.41-0.04-12.26,2.04
		c-1.04,0.56-1.3,1.47-0.64,2.37c1.65,2.24,3.73,3.98,6.58,4.25c1.75,0.16,3.57,0.06,5.3-0.25c2.35-0.43,4.64-1.17,7.01-1.8
		c1.75,1.67,3.65,3.48,5.38,5.14c-2.23,0.38-4.54,0.71-6.82,1.17c-1.7,0.34-3.07,1.33-4.21,2.61c-0.85,0.96-0.84,1.97,0.18,2.73
		c2.03,1.52,4.26,2.88,6.77,3.19c4.64,0.57,9.19-0.12,13.57-1.84c0.29-0.11,0.71-0.19,0.95-0.06c1.03,0.56,2.02,1.2,3.17,1.9
		c-0.79,0.14-1.4,0.26-2.02,0.36c-6.81,1.03-13.6,1.13-20.29-0.74c-4.4-1.23-8.38-3.14-10.94-7.21c-0.24-0.38-1.09-0.6-1.61-0.53
		c-0.82,0.1-1.04,0.85-0.97,1.61c0.19,1.91,0.31,3.84,0.64,5.73c0.76,4.42,1.81,8.77,3.99,12.74c0.39,0.72,0.34,1.11-0.23,1.67
		c-3.01,2.93-5.99,5.88-8.95,8.86c-2.3,2.32-2.16,3.04,0.83,4.31c3.79,1.61,7.77,2.51,11.84,3.08c1.4,0.19,2.82,0.29,4.29,0.43
		c-0.41,2.33-0.8,4.56-1.18,6.74c-0.16,0.06-0.23,0.11-0.29,0.1c-0.28-0.02-0.56-0.05-0.83-0.09c-5.85-0.95-11.43-0.2-16.65,2.72
		c-1.1,0.61-2.21,1.2-3.34,1.75c-0.66,0.32-1.41,0.68-1.2,1.48c0.14,0.53,0.7,1.18,1.21,1.35c6.02,1.98,12.16,3.22,18.55,2.59
		c1.53-0.15,3.05-0.53,4.64-0.81c-0.16,0.47-0.3,0.89-0.45,1.35c-0.35-0.02-0.66-0.02-0.97-0.04c-1.99-0.16-3.51,0.74-4.21,2.49
		c-0.56,1.38-0.97,3.02-0.77,4.45c0.25,1.8,1.19,3.51,1.88,5.38c-2.51,2.41-3.21,5.56-1.65,8.95c1.57,3.42,4.55,4.86,8.24,4.8
		c-0.23,3.32,1.31,6.15,4.03,7.12c1.03,0.37,2.29,0.5,3.37,0.31c2.23-0.39,3.89-1.77,5.11-3.68c3.16,1.37,6.19,1.54,9.08-0.59
		c2.89-2.13,3.95-4.87,2.84-8.33c3.02-1.42,5.48-3.25,5.61-6.87c0.11-3.22-1.82-4.95-4.7-5.8c0.3-0.74,0.57-1.37,0.83-2.01
		c1.55,0.16,3.03,0.32,4.48,0.47c0.97,4.77,2.39,9.26,5.99,12.65c2.05,1.94,4.31,3.66,6.48,5.47c0.6,0.5,1.29,0.8,2.01,0.28
		c0.73-0.53,0.53-1.26,0.33-2c-1.22-4.36-2.42-8.73-3.66-13.18c0.2,0.17,0.34,0.27,0.46,0.39c7.35,7.66,14.28,15.66,20.22,24.48
		c2.71,4.03,5.3,8.14,8.93,11.45c6.46,5.89,14.01,7.74,22.26,5.03c10.68-3.5,21.45-6.57,32.48-8.68
		c15.17-2.89,30.46-4.35,45.92-3.84c0.59,0.02,1.23,0.14,1.77-0.03c0.45-0.15,0.98-0.59,1.13-1.02c0.26-0.74,0.25-1.57,0.34-2.36
		c0.26-2.33,0.5-4.66,0.8-6.98c0.04-0.3,0.29-0.73,0.54-0.83c0.6-0.22,1.27-0.28,1.69-0.37c0.61,1.59,1.01,3.15,1.78,4.51
		c0.86,1.53,2.52,2.05,4.17,2.34c2.89,0.5,4.69-1.04,6.01-3.37c4.71,2.74,8.03,2.75,10.63-0.18c0.79-0.89,1.37-2.17,1.55-3.34
		c0.34-2.22-0.95-3.98-2.24-5.59c0.96-0.77,1.88-1.5,2.81-2.24c1.17,0.44,2.38,1.01,3.65,1.35c4.56,1.24,8.93,0.4,13.21-1.33
		c1.54-0.63,3.14-1.13,4.76-1.55c0.83-0.21,1.71-0.21,2.01-1.19c0.29-0.97-0.44-1.46-1.06-1.98c-0.11-0.09-0.22-0.17-0.33-0.26
		c-6.28-4.92-13.28-6.27-20.95-4.24c-0.51,0.14-0.8,0.09-1.12-0.39c-1.47-2.23-3.66-3.39-6.18-4.02c-2.85-0.71-5.61-0.41-8.41,0.93
		c-0.16-2.03-1.06-3.52-2.79-4.54c7.63-2.32,15.22-2.46,22.8-1.04c6.14,1.15,12.1,2.93,17.18,6.82c0.61,0.46,1.09,1.1,1.71,1.53
		c0.32,0.22,0.91,0.34,1.24,0.2c0.32-0.14,0.68-0.72,0.63-1.05c-0.1-0.79-0.26-1.67-0.69-2.32c-3.28-4.91-6.63-9.78-9.98-14.65
		c-0.38-0.55-0.44-0.97-0.13-1.6c1.23-2.47,2.36-4.99,3.59-7.46c0.49-0.99,0.31-1.74-0.52-2.39c-0.52-0.41-1.03-0.85-1.58-1.21
		c-3.64-2.36-7.58-4.03-11.82-4.99c-1.05-0.24-2.4-0.17-3.05-0.81c-0.7-0.69-0.79-2.04-1.07-3.12c-0.43-1.65-0.8-3.32-1.19-4.99
		c0.42,0.14,0.66,0.34,0.87,0.57c3.15,3.24,7.01,5.42,11.06,7.28c1.42,0.65,2.48-0.15,2.33-1.67c-0.07-0.73-0.18-1.46-0.34-2.17
		c-0.31-1.37-0.68-2.72-1.05-4.19c2.19,1.78,4.34,1.51,6.36,0.24c1.15,1.34,2.1,2.81,3.38,3.9c3.51,3.02,7.67,4.87,12.18,5.81
		c3.73,0.78,7.11-0.05,9.74-2.99c1.05-1.17,1.31-2.58,1.03-4.12c-0.05-0.29,0.06-0.74,0.26-0.93
		C296.1,168.06,296.01,164.94,293.65,163.02z M164.82,107.38c1.75,2.99,3.73,5.5,7.52,4.85c3.62-0.62,4.91-3.56,6.04-6.62
		c1.3,2.59,2.26,10.05,1.7,13.37c-0.43-0.04-0.87-0.06-1.29-0.13c-3.77-0.68-7.54-0.56-11.04,0.93c-6.14,2.61-12.54,3.23-19.1,3.07
		c-0.73-0.02-1.47-0.04-2.2-0.01c-1.45,0.07-2.19,1.14-1.58,2.46c0.4,0.87,0.95,1.75,1.63,2.41c1.58,1.53,3.27,2.96,5.42,3.68
		c0.23,0.07,0.44,0.2,0.79,0.36c-1.51,1.04-2.89,2.07-4.35,2.98c-3.47,2.17-6.39,4.98-9.3,7.81c-0.6,0.58-1.07,0.63-1.9,0.35
		c-2.01-0.66-4.1-1.08-6.16-1.59c-0.26-0.07-0.54-0.08-0.86-0.12c-0.07-0.51-0.13-0.99-0.22-1.6c3.5,0.42,5.25-1.3,5.71-4.46
		c1.31-0.09,2.57-0.05,3.78-0.29c2.99-0.62,4.81-3,4.8-6.02c-0.01-2.03-1.27-3.24-2.88-4.38c1.59-2.61,2.67-5.27,0.33-7.94
		c-2.26-2.58-5.09-2.53-8.06-1.45c-0.03-0.04-0.06-0.06-0.06-0.09c-0.74-3.82-2.85-5.14-6.59-4.04c-2.16,0.64-3.88,1.89-4.93,4.14
		c-0.83-1.8-1.61-3.43-2.32-5.09c-0.09-0.2,0.06-0.6,0.22-0.8c1.71-2.06,3.21-4.23,4.11-6.78c0.08-0.24,0.38-0.55,0.6-0.57
		c1.69-0.15,3.39-0.25,5.07-0.36c-0.23,1-0.57,2.11-0.73,3.26c-0.37,2.77,0.85,4.77,3.44,5.78c4.16,1.63,8.14,0.64,11.2-2.79
		c0.69-0.78,1.34-1.6,2.17-2.61c-0.04,0.92-0.07,1.62-0.1,2.32c-0.12,2.64,0.37,5.14,1.58,7.5c3.64,7.1,10.76,6.39,14.67,0.75
		c1.39-2,2.13-4.31,2.57-6.71C164.58,108.49,164.68,108.05,164.82,107.38z M239.07,157.1c1.48,0,2.74,0,4.05,0
		c0.19,0.78,0.36,1.49,0.55,2.25C242.15,158.61,240.72,157.91,239.07,157.1z M53.49,219.18c0.1,0,0.2-0.02,0.3-0.04
		C53.69,219.17,53.59,219.18,53.49,219.18c-0.44,0.02-0.68-0.12-0.81-0.32C52.81,219.07,53.05,219.2,53.49,219.18z M252.63,140.9
		c0.82,2.69,2.56,3.98,5.27,4.34c-3.04,4.19-6.54,7.48-11.17,9.34c-0.85,0.34-1.96,0.05-3.02-0.06
		C248.09,150.99,250.25,146.04,252.63,140.9z M109.57,81.48c0.01-1.49-0.02-2.94,0.74-4.26c0.2-0.35,0.58-0.77,0.94-0.85
		c4.02-0.92,7.76-2.5,11.21-4.76c0.04-0.03,0.12,0,0.31,0.01c-1.21,1.61-2.37,3.17-3.56,4.7c-4.39,5.66-6.35,12.11-6.36,19.22
		c0,0.31-0.02,0.63-0.03,0.94c0,0.02-0.05,0.04-0.08,0.06c-1.7-2.18-3.41-4.37-5.17-6.63C109.85,87.61,109.56,84.49,109.57,81.48z
		 M62.06,150.8c-1.81-1.44-3.62-2.87-5.4-4.33c-0.14-0.11-0.15-0.51-0.08-0.73c2.32-7.33-0.59-14.5-6.7-19.03
		c-1.14-0.85-2.32-0.42-2.71,1.06c-0.74,2.81-0.88,5.65-0.33,8.52c0.06,0.32,0.1,0.65,0.15,0.98c-0.1,0.05-0.2,0.11-0.29,0.16
		c-1.95-2.48-3.89-4.95-6.04-7.68c1-0.42,1.71-0.79,2.46-1.02c1.49-0.45,2.51-2.03,2.29-3.69c-0.25-1.91-1.32-3.26-2.92-4.1
		c0.76-1.33,1.49-2.62,2.25-3.96c2.14,2.42,4.78,3.13,7.91,1.89c2.27,3.87,5.29,6.09,9.98,4.66c3.42-1.04,5.08-3.07,5.33-6.68
		c0.37-0.1,0.79-0.21,1.5-0.4c-0.32,9.15-0.64,18.14-0.96,27.13c-0.09,0.02-0.18,0.03-0.27,0.05c-0.8-1.55-1.53-3.14-2.42-4.64
		c-1.01-1.71-2.13-3.35-3.23-5.01c-0.25-0.37-0.58-0.71-0.91-1.01c-1.18-1.08-2.5-0.68-2.79,0.89c-0.53,2.95-0.56,5.9,0.11,8.85
		c0.64,2.81,1.59,5.49,3.26,7.87C62.21,150.66,62.13,150.73,62.06,150.8z M254.33,158.49c1.64,0.25,3.07,0.47,4.64,0.71
		c-1.19,1.97-0.66,3.56,0.66,5.07c0.26,0.3,0.18,0.89,0.3,1.57C257.99,163.3,256.25,161.01,254.33,158.49z"/>
	<g>
		<path class="st0" d="M227.67,183.79c-4.09,18.47-8.14,36.86-10.03,55.7c-27.11-0.72-53.39,3.77-79.16,12.52
			c0.1-1.27,0.18-2.43,0.29-3.59c1.33-14.27,2.66-28.54,3.99-42.82c0.2-2.19,0.43-4.38,0.6-6.58c0.05-0.65,0.27-0.98,0.93-1.15
			c15.77-4.03,31.53-8.1,47.31-12.1c4.94-1.25,10.01-1.66,15.07-1.84c6.32-0.22,12.65-0.26,18.98-0.35
			C226.31,183.58,226.96,183.71,227.67,183.79z M71.9,94.89c0.52,26.86-0.52,53.65-3.45,80.42c0.44,0.03,0.75,0.07,1.05,0.06
			c6.11-0.3,12.26-0.31,18.33-0.98c10.29-1.13,20.46-3.06,30.57-5.28c0.69-0.15,0.89-0.43,0.95-1.1c0.5-6.31,1.05-12.62,1.55-18.93
			c0.04-0.49-0.03-1.1-0.29-1.49c-1.1-1.69-2.11-3.48-3.46-4.94c-11.43-12.39-22.91-24.74-34.42-37.05
			c-3.44-3.68-7.03-7.21-10.55-10.81C72.08,94.82,71.99,94.85,71.9,94.89z M147.37,162.49c8.03-1.7,16.05-3.47,24.1-5.08
			c11.18-2.25,22.42-4.04,33.89-4.03c7.46,0,14.89-0.14,22.25,1.39c2.34,0.49,4.73,0.79,7.05,1.17c2.04-6.62,4.06-13.21,6.12-19.9
			c-1.89-0.24-3.75-0.54-5.62-0.71c-10.55-1-21.13-1.01-31.63,0.18c-6.6,0.75-13.09,2.5-19.62,3.86c-5.04,1.05-9.89,2.76-14.63,4.74
			c-3.54,1.48-7.01,3.14-10.52,4.7c-2.2,0.98-4.4,1.96-6.62,2.89c-1.25,0.52-2.58,0.88-3.83,1.41c-0.32,0.14-0.66,0.61-0.71,0.96
			c-0.2,1.42-0.3,2.85-0.43,4.28c-0.12,1.38-0.23,2.76-0.34,4.18C147.1,162.51,147.24,162.52,147.37,162.49z M139.7,199.1
			c-6.68,1.78-13.36,3.58-20.05,5.33c-0.75,0.2-0.8,0.62-0.85,1.2c-0.32,3.9-0.65,7.81-0.98,11.71c-0.75,9.03-1.51,18.05-2.24,27.08
			c-0.03,0.34,0.06,0.81,0.28,1.04c4.96,5.17,10.67,8.54,18.2,7.5c2.03-0.28,1.64,0.04,1.81-1.79c1.57-16.57,3.1-33.15,4.65-49.73
			c0.08-0.82,0.13-1.65,0.2-2.55C140.3,198.97,140,199.02,139.7,199.1z M112.86,241.67c0.1-0.04,0.19-0.07,0.29-0.11
			c1.01-12.04,2.02-24.08,3.05-36.27c-9.46,2.29-18.73,4.36-28.49,4.92C97.13,220.08,105.91,230.14,112.86,241.67z M140.32,155.48
			c-5.94,1.55-11.26,0.29-16.03-3.51c-0.26-0.21-0.51-0.42-0.91-0.74c-0.48,5.8-0.95,11.38-1.43,17.08c0.7-0.13,1.21-0.2,1.72-0.32
			c6.53-1.51,13.06-3.02,19.59-4.56c0.31-0.07,0.78-0.37,0.81-0.6c0.31-2.77,0.55-5.55,0.82-8.5
			C143.23,154.75,141.77,155.1,140.32,155.48z"/>
		<path class="st0" d="M36.66,122.45c-1.03-3.82-2.85-7.24-4.92-10.51c-1.28-2.02-2.89-3.84-4.42-5.69
			c-0.65-0.78-1.19-1.56-1.13-2.61c0.06-1.11,0.55-1.63,1.61-1.35c1.23,0.32,2.51,0.73,3.55,1.43c4.45,3.01,6.5,7.46,7.05,12.65
			C38.64,118.56,37.76,120.55,36.66,122.45z M12.32,113.52c-1.39,2.3-1.86,6.28,0.01,8.96c3.25,4.65,9.09,6.91,14.67,5.58
			c0.75-0.18,1.44-0.57,2.36-0.95c-8.07-1.92-14.32-5.58-16.59-14.08C12.59,113.22,12.42,113.35,12.32,113.52z M23.33,116.63
			c-2.06-1.98-3.96-4.14-5.15-6.81c-0.38-0.85-1.1-0.77-1.78-0.44c-1.15,0.57-1.29,1.71-1.04,2.71c0.38,1.53,0.84,3.12,1.63,4.47
			c2.08,3.53,5.43,5.55,9.17,6.94c1.9,0.71,3.88,1.1,5.8,0.88C29.06,121.8,26.11,119.3,23.33,116.63z M33.67,121.98
			c-0.16-0.48-0.26-1-0.49-1.45c-1.7-3.2-3.23-6.53-5.23-9.53c-1.23-1.83-3.13-3.25-4.88-4.66c-1.26-1.01-2.32-0.43-2.53,1.2
			c-0.06,0.46,0.01,1.01,0.21,1.42c0.37,0.78,0.77,1.6,1.35,2.22c2.75,2.93,5.53,5.82,8.37,8.66c0.89,0.89,2.01,1.55,3.02,2.31
			C33.54,122.1,33.6,122.04,33.67,121.98z M41.94,116.35c1.1-4.6,0.69-8.92-2.27-12.83c-1.38-1.82-2.96-3.35-5.01-4.35
			c-1.19-0.58-2.46-0.93-3.67-0.05c-0.75,0.54-0.72,1.14,0.01,1.49c3.79,1.81,6.47,4.69,8.15,8.51c1.23,2.79,2.09,5.66,2.17,8.82
			C41.53,117.41,41.81,116.9,41.94,116.35z"/>
		<path class="st0" d="M268.61,160.34c3.14-1.68,6.12-2.75,9.3-3.12c3.23-0.37,6.46-0.65,9.7-0.88c0.85-0.06,1.74,0.14,2.57,0.39
			c0.96,0.29,1.67,0.98,1.74,2.02c0.07,1.01-0.59,1.8-1.44,2.14c-1.61,0.65-3.26,1.31-4.96,1.57c-4.81,0.75-9.55,0.04-14.24-1.05
			C270.46,161.23,269.69,160.78,268.61,160.34z M271.57,165.27c4.86,3.22,10.23,4.74,16.04,4.41c1.53-0.09,3.04-0.88,4.52-1.45
			c0.78-0.3,1.07-1.13,0.8-1.85c-0.25-0.65-0.75-1.46-1.33-1.67c-0.86-0.31-1.96-0.4-2.85-0.16c-4.28,1.17-8.58,0.95-12.9,0.41
			c-1.81-0.23-3.61-0.6-5.71-0.96C270.76,164.55,271.12,164.97,271.57,165.27z M288.57,151.12c-2-1.24-4.22-1.65-6.54-1.47
			c-3.27,0.25-6.18,1.49-8.72,3.52c-1.28,1.02-2.39,2.26-3.57,3.41c0.07,0.09,0.15,0.18,0.22,0.27c6.54-2.54,13.33-3.4,20.39-3.04
			C290.13,152.66,289.56,151.74,288.57,151.12z M272.35,170.36c3.28,2.76,7.12,4.39,11.26,5.34c2.29,0.53,4.45,0.07,6.36-1.34
			c1.15-0.85,1.49-1.71,1.15-2.65c-7.51,2.01-14.15-0.56-20.85-3.65C270.96,168.83,271.57,169.7,272.35,170.36z M288.07,146.3
			c-1.68-1.19-3.64-1.52-5.6-1.23c-4.65,0.69-8.6,2.76-11.72,6.34c-0.09,0.1-0.11,0.24-0.27,0.6c5.6-4.46,11.45-6.45,18.29-3.71
			C289.08,147.37,288.94,146.91,288.07,146.3z"/>
	</g>
	<g>
		<path class="st1" d="M267.28,219.04c-2.23,0.79-4.44,1.66-6.71,2.34c-3.47,1.04-6.89,0.83-10.23-0.64
			c-0.7-0.31-0.91-0.66-0.72-1.44c0.19-0.76,0.23-1.6,0.15-2.39c-0.09-0.82,0.21-1.09,0.95-1.26c4.96-1.12,9.71-0.56,14.26,1.73
			c0.8,0.4,1.56,0.88,2.34,1.32C267.3,218.81,267.29,218.93,267.28,219.04z"/>
		<path class="st1" d="M185.43,117.25c0.64-0.78,1.23-1.55,1.88-2.27c7.39-8.21,15.96-14.94,25.58-20.32
			c2.47-1.39,5.22-2.29,7.84-3.41c0.07,0.12,0.13,0.24,0.2,0.35c-0.94,0.78-1.88,1.58-2.83,2.35c-5.17,4.16-9.86,8.8-13.71,14.22
			c-1.17,1.64-2.05,3.49-3.08,5.23c-0.15,0.26-0.41,0.58-0.67,0.64C195.61,115.12,190.6,116.16,185.43,117.25z M204.19,113.46
			c0.45-0.02,0.66-0.02,0.86-0.04c3.82-0.43,7.64-0.85,11.45-1.31c0.24-0.03,0.5-0.3,0.66-0.52c0.54-0.79,1.06-1.6,1.55-2.43
			c0.14-0.23,0.29-0.56,0.22-0.78c-0.81-2.45-0.32-4.71,0.99-6.82c0.64-1.03,1.23-2.02,1.5-3.24c0.37-1.66,0.95-3.27,1.44-4.9
			C215.72,99.18,208.86,105.17,204.19,113.46z M168.56,122.2c-6.14,2.82-12.63,3.37-19.25,3.29c-0.35,0-0.71,0-1.29,0
			c1.83,1.89,3.65,3.28,5.98,3.79c0.88,0.19,1.97,0.37,2.73,0.04c5.68-2.5,11.31-5.14,16.95-7.74c0.3-0.14,0.6-0.29,0.9-0.43
			C172.46,120.99,170.42,121.35,168.56,122.2z"/>
		<path class="st1" d="M133.22,64.98c-0.49,2.57-1.04,5.13-1.46,7.7c-0.54,3.28-0.95,6.57-1.48,9.85c-0.07,0.43-0.43,0.92-0.8,1.17
			c-2.79,1.9-5.48,3.88-7.57,6.57c-1.23,1.58-2.1,3.3-2.35,5.3c-0.24,2.01,0.32,3.72,1.9,5.07c0.2,0.17,0.35,0.61,0.28,0.83
			c-0.69,2.04-1.84,3.81-3.35,5.49c-0.96-1.89-2.19-3.6-2.71-5.5c-0.5-1.87-0.38-3.94-0.36-5.92c0.1-7.11,2.47-13.35,6.95-18.91
			c2.74-3.41,5.35-6.92,8.59-9.87c0.72-0.65,1.45-1.28,2.18-1.93C133.1,64.88,133.16,64.93,133.22,64.98z M87.7,88.81
			c-2.27-0.69-4.5-1.56-6.82-2.01c-4.84-0.93-9.31-2.62-13.45-5.32c-2.34-1.53-4.79-2.89-7.26-4.18c-3.24-1.7-6.56-3.26-9.84-4.91
			c-0.91-0.46-1.77-1-2.82-1.61c0.12,0.32,0.16,0.45,0.22,0.57c2.03,3.65,4.61,6.87,7.95,9.37c6.24,4.66,13.29,7.52,20.98,8.74
			c2.4,0.38,4.84,0.62,7.27,0.63c1.45,0.01,2.91-0.56,4.56-0.91C88.11,89,87.91,88.88,87.7,88.81z M102.35,78.21
			c-1.27,0.65-2.19,1.51-3.33,2.49c2.25,1.28,3.17,3.24,3.61,5.53c0.19,0.97,1.64,1.9,2.7,1.78c1.01-0.12,1.1-1.03,1.29-1.8
			c0.09-0.37,0.17-0.75,0.18-1.14c0.11-2.46,0.19-4.93,0.3-7.63C105.6,78.56,103.95,77.39,102.35,78.21z"/>
		<path class="st1" d="M41.91,199.78c-6.41,1.85-12.33,0.17-18.58-0.98c5.47-3.47,11.09-4.17,17.22-2.92
			C39.44,197.6,40.2,198.78,41.91,199.78z M87.08,224.01c-0.48-1.81-1-3.51-1.38-5.24c-0.62-2.87-1.58-5.57-3.54-7.83
			c-0.19-0.22-0.45-0.53-0.7-0.55c-1.03-0.06-2.07-0.03-3.16-0.03C79.34,216.11,82.23,220.61,87.08,224.01z"/>
		<path class="st1" d="M259.52,172.76c-6.97-2.97-12.1-7.42-13.44-15.3c2.13,0.12,4.3-0.08,5.87,2.05c2.02,2.75,4.49,5.19,5.85,8.38
			C258.48,169.47,258.95,171.14,259.52,172.76z M243.79,150.78c2.64-2.7,4.13-6.1,5.73-9.43c0.29-0.6,0.56-1.2,0.89-1.9
			c-5.73,1.11-11.51,8.01-12.35,15.02C240.38,153.75,242.18,152.43,243.79,150.78z M263.28,154.92c-1.17-0.58-2.48-0.49-2.91,0.17
			c-0.53,0.81-0.08,1.96,1.1,2.82c1.48,1.09,1.49,1.98-0.05,2.93c-0.55,0.34-0.55,0.68-0.22,1.09c0.24,0.29,0.55,0.53,0.87,0.72
			c0.89,0.51,1.08,1.18,0.66,2.11c-0.49,1.08,0.04,2.09,1.2,2c0.83-0.07,1.64-0.61,2.43-0.99c0.09-0.04,0.08-0.37,0.06-0.56
			c-0.29-2.05-0.6-4.1-0.9-6.15C265.84,157.12,264.98,155.76,263.28,154.92z"/>
		<path class="st1" d="M59.55,152.21c-3.84,0.87-7.45,1.77-11.13,1.18c-1.7-0.27-3.28-1.26-4.91-1.93c0-0.13-0.01-0.27-0.01-0.4
			c0.65-0.36,1.26-0.84,1.95-1.05c3.04-0.93,6.1-1.35,9.31-0.85c1.08,0.17,1.75,0.71,2.51,1.26
			C57.97,150.93,58.63,151.49,59.55,152.21z M54.19,144.35c1.63-4.61-0.44-11.41-4.72-14.38C48.07,134.89,50.58,142.46,54.19,144.35
			z M67.48,152.47c0.19-6.14-3.32-10.76-6.02-15.69C60.07,141.07,63.71,150.43,67.48,152.47z M30.77,138.47
			c1.16,1.32,2.61,2.05,4.35,2.22c3,0.29,5.76-0.75,8.73-1.43C41.44,136.24,33.85,135.85,30.77,138.47z M38.99,123.9
			c-0.24,0.39-0.49,0.77-0.74,1.15c-0.47,0.71-1.02,1.23-1.99,1c-0.19-0.04-0.47,0.17-0.66,0.33c-0.35,0.29-0.68,0.6-0.97,0.93
			c-0.19,0.21-0.45,0.53-0.41,0.74c0.16,0.74,0.35,1.49,0.68,2.17c0.32,0.66,0.85,0.61,1.14-0.06c0.26-0.6,0.46-1.24,0.59-1.87
			c0.25-1.27,0.93-1.73,2.17-1.39c0.19,0.05,0.38,0.12,0.56,0.18c0.62-1.49,0.97-1.64,2.49-1.03c0.69,0.28,1.02-0.04,0.88-0.63
			c-0.15-0.61-0.45-1.29-0.9-1.68c-0.56-0.48-1.35-0.69-2.12-1.05C39.41,123.18,39.21,123.54,38.99,123.9z"/>
	</g>
	<g>
		<path class="st2" d="M247.63,123.09c-2.48-0.09-2.71,0.19-2.69,2.17c0,0.7-0.17,1.5-0.53,2.09c-1.11,1.87-2.41,3.6-4.26,4.83
			c-1.58,1.06-4.96,0.71-6.39-0.55c-0.98-0.87-1.45-1.84-1.68-3.15c-0.71-3.94-2.5-7.39-5.35-10.25c-0.72-0.72-1.48-1.16-2.52-0.66
			c-0.3,0.14-0.69,0.11-1.03,0.2c-0.76,0.19-1.18-0.06-1.54-0.79c-0.53-1.06-1.27-2-1.88-3.02c-0.75-1.25-0.32-2.59,0.99-3.2
			c1.53-0.71,1.68-1.16,0.86-2.65c-1-1.82-0.55-4.4,1.21-6.14c0.81-0.8,1.76-1.52,2.76-2.05c2.38-1.27,3.73-1.12,5.88,1.46
			c0.24,0.29,0.37,0.73,0.66,0.93c0.46,0.3,1.06,0.68,1.52,0.59c0.4-0.07,0.77-0.69,1.01-1.15c0.51-0.98,0.78-2.12,1.42-2.99
			c2.24-3,5.88-3.5,8.72-1.07c2.35,2.01,3.75,4.59,3.3,7.86c-0.17,1.22-0.66,2.26-1.59,3.1c-0.62,0.57-1.15,1.23-0.57,2.1
			c0.53,0.8,1.31,0.64,2.07,0.35c4.39-1.66,7.9,3.31,7.51,6.32c-0.2,1.57-1.2,2.68-2.36,3.6
			C251.42,122.44,249.36,123.05,247.63,123.09z M239.94,115.89c0-2.95-2.18-5.22-5-5.23c-2.97-0.01-5.45,2.55-5.44,5.64
			c0,2.95,2.17,5.21,5.01,5.23C237.48,121.55,239.94,118.99,239.94,115.89z"/>
		<path class="st2" d="M252.3,188.71c-0.9-0.43-1.49-0.71-2.07-1c-4.73-2.34-9.81-3.61-14.85-5.07c-7.07-2.05-14.24-1.91-21.44-1.65
			c-6.47,0.23-12.96,0.28-19.33,1.52c-4.69,0.91-9.32,2.16-13.96,3.34c-14.39,3.68-28.8,7.26-43.13,11.16
			c-10.93,2.98-21.88,5.85-32.95,8.22c-10.21,2.18-20.52,3.08-30.97,2.03c-6.96-0.7-13.81-1.84-20.29-4.53
			c-3.38-1.4-6.59-3.2-9.85-4.88c-0.28-0.14-0.48-0.82-0.42-1.19c0.58-3.59,1.22-7.17,1.84-10.75c0.83-4.79,1.66-9.57,2.5-14.36
			c0.05-0.3,0.13-0.6,0.16-0.75c2.77,1.3,5.45,2.74,8.27,3.82c2.5,0.95,5.16,1.48,7.73,2.24c5.68,1.69,11.46,0.78,17.2,0.65
			c6.42-0.14,12.74-1.08,19.06-2.17c13.82-2.38,27.55-5.18,41.15-8.59c14.25-3.58,28.62-6.56,43.11-8.93
			c7.26-1.19,14.56-1.87,21.94-1.8c5.14,0.05,10.3-0.37,15.4,0.46c5.2,0.85,10.38,1.87,15.56,2.89c3.08,0.61,5.57,2.38,7.81,4.49
			c0.33,0.31,0.53,0.92,0.55,1.4c0.33,6.39,2.33,12.32,4.79,18.14C250.81,185.07,251.49,186.74,252.3,188.71z M35.45,164.01
			c0.5,1.25,1.17,2.46,1.94,3.56c0.73,1.06,0.83,1.6-0.1,2.55c-1.15,1.17-2.34,2.31-3.5,3.48c-2.22,2.23-4.42,4.46-6.73,6.78
			c4.86,1.84,9.78,3.05,14.95,3.07c0.25,0,0.66-0.46,0.72-0.76c0.44-2.23,0.82-4.47,1.2-6.71c0.52-3.07,1.07-6.13,1.49-9.21
			c0.2-1.43,0.72-2.44,2.15-2.72c1.11-0.22,2.29-0.23,3.43-0.15c4.78,0.35,9.55,0.76,14.32,1.15c0.47,0.04,0.95,0.01,1.5,0.01
			c0.2-2.31,0.38-4.48,0.57-6.71c-0.37,0.05-0.54,0.06-0.71,0.09c-4.58,0.94-9.2,1.39-13.87,1.2c-7.2-0.29-14.1-1.61-20.08-6.48
			C33.26,157.03,34.09,160.59,35.45,164.01z M251.37,179.63c1.33,3.13,2.49,5.97,3.74,8.77c0.58,1.29,1.34,2.49,2.01,3.74
			c1,1.89,0.41,3.75-1.52,4.65c-0.59,0.28-1.26,0.56-1.89,0.56c-3.46,0.02-6.92,0.08-10.37-0.11c-4.32-0.23-8.63-0.81-12.95-1.01
			c-2.77-0.12-2.77,0.07-3.33,2.72c-0.19,0.89-0.39,1.77-0.57,2.66c-0.12,0.59-0.2,1.19-0.33,1.93c2.27-0.44,4.36-0.81,6.45-1.25
			c3.22-0.67,6.42-1.3,9.74-1.35c7.78-0.11,15.33,0.93,22.51,4.09c1.15,0.51,2.32,0.96,3.68,1.52c-0.2-0.33-0.27-0.44-0.35-0.56
			c-2.39-3.49-4.76-6.99-7.17-10.46c-0.53-0.77-0.59-1.42-0.14-2.31c1.31-2.58,2.49-5.23,3.81-8.05
			C260.69,182.43,256.4,180.54,251.37,179.63z M241.29,194.38c3.62,0.28,7.25,0.46,10.87,0.62c0.72,0.03,1.47-0.12,2.16-0.33
			c0.95-0.29,1.07-0.72,0.26-1.24c-2.11-1.34-4.25-2.66-6.48-3.79c-5.06-2.56-10.6-3.67-16.04-5.09c-0.56-0.14-1.12-0.25-1.74-0.39
			c-0.72,3.22-1.42,6.32-2.14,9.52C232.69,193.39,236.98,194.04,241.29,194.38z M48.07,166.93c0.59,0.63,1.08,1.42,1.78,1.88
			c3.69,2.39,7.78,3.91,12.01,5.03c1.26,0.34,2.58,0.45,3.99,0.68c0.25-2.44,0.49-4.7,0.7-6.75c-5.72-0.46-11.25-0.91-16.77-1.34
			c-0.47-0.04-0.96,0.07-1.43,0.11C48.25,166.67,48.16,166.8,48.07,166.93z"/>
		<path class="st2" d="M100.27,75.57c-2.01-0.33-3.53-1.33-4.75-2.87c-1.76-2.21-3.16-4.61-4.09-7.27
			c-1.34-3.85-3.02-7.65-3.11-11.8c-0.04-1.77,0.32-3.62,0.88-5.31c0.64-1.98,2.76-2.29,4.17-0.75c0.58,0.63,1.07,1.39,1.45,2.17
			c3.48,7.06,5.12,14.6,5.76,22.39c0.08,0.93-0.08,1.88-0.14,2.82C100.42,75.15,100.33,75.35,100.27,75.57z M88.93,66.27
			c-0.64-1.66-1.15-3.37-1.75-5.04c-0.15-0.41-0.35-0.87-0.67-1.14c-2.23-1.88-4.75-3.26-7.61-3.94c-1.77-0.42-2.71,0.11-3.34,1.81
			c-0.85,2.33-0.71,4.66,0.84,6.56c1.91,2.34,4,4.58,6.24,6.61c1.68,1.53,3.64,2.82,5.62,3.96c2.43,1.4,5.23,1.47,8.23,1.86
			C92.71,74.02,90.51,70.35,88.93,66.27z M105.93,68.27c1.19-5.22,1.78-10.48,1.17-15.81c-0.2-1.75-0.61-3.51-1.22-5.16
			c-0.58-1.57-2.73-2.18-4.19-1.45c-2.03,1.02-3.41,4.82-2.7,6.96c1,3.01,2.04,6.03,2.7,9.12c0.79,3.73,1.21,7.55,1.78,11.3
			C104.42,71.73,105.5,70.19,105.93,68.27z M108.97,70.84c4.57-3.65,7.77-8.25,9.1-13.96c0.53-2.28,0.6-4.7,0.58-7.06
			c-0.01-1.86-0.93-2.35-2.75-1.93c-1.49,0.35-2.5,1.36-3.29,2.59c-1.71,2.67-2.68,5.57-2.69,8.78c0,1.11-0.13,2.24-0.32,3.34
			c-0.54,3.01-1.15,6-1.72,8.97C108.18,71.39,108.6,71.14,108.97,70.84z M109.27,74.41c2.83-1.05,5.69-2.02,8.48-3.18
			c4.58-1.91,7.55-5.28,8.76-10.14c0.46-1.83,0.62-3.65-0.08-5.46c-0.51-1.31-1.57-1.9-2.93-1.55c-1.36,0.35-2.29,1.08-2.64,2.61
			c-0.98,4.31-2.68,8.33-5.67,11.65c-1.86,2.06-3.92,3.94-5.9,5.9C109.28,74.29,109.27,74.35,109.27,74.41z M95.1,79.48
			c-0.17-0.02-0.33-0.06-0.5-0.07c-6.13-0.49-11.1-3.26-15.23-7.72c-1.12-1.2-2.29-2.36-3.48-3.48c-0.3-0.28-0.79-0.54-1.17-0.52
			c-3.09,0.19-4.8,3.21-3.42,5.93c1.21,2.38,3.26,3.78,5.64,4.75c5.47,2.22,11.13,2.49,16.89,1.54c0.43-0.07,0.86-0.19,1.28-0.29
			C95.11,79.57,95.11,79.52,95.1,79.48z M80.87,53.87c1.66,0.88,3.3,1.76,4.99,2.65c-0.11-1.66-0.22-3.25-0.33-4.89
			C83.44,51.26,81.26,52.36,80.87,53.87z"/>
	</g>
	<g>
		<path class="st3" d="M221.66,228.37c0.32-2.09,0.57-3.91,0.88-5.72c0.72-4.13,1.48-8.26,2.22-12.38c0.26-1.42,2.06-2.73,3.76-2.76
			c1.3-0.02,2.24,0.9,2.56,2.57c0.1,0.55,0.05,1.13,0.21,1.66c0.18,0.59,0.38,1.46,0.8,1.63c0.51,0.21,1.39,0,1.89-0.35
			c1.47-1,3.04-1.63,4.79-1.63c3.24,0,6.11,0.87,7.8,3.95c1.53,2.79-0.01,6.37-3.07,7.24c-0.34,0.1-0.68,0.16-1.02,0.24
			c-0.71,0.16-1.53,0.39-1.47,1.22c0.05,0.59,0.54,1.2,0.97,1.68c0.51,0.56,1.27,0.9,1.74,1.48c0.91,1.13,1.69,2.4,1,3.94
			c-0.7,1.56-2.08,2.24-3.7,2.35c-1.82,0.12-3.22-0.75-4.36-2.1c-0.34-0.4-0.62-0.85-0.99-1.22c-0.87-0.86-2.02-0.53-2.34,0.65
			c-0.11,0.4-0.12,0.83-0.18,1.24c-0.22,1.51-1.42,2.79-2.67,2.83c-1.94,0.06-3.55-1.06-3.82-2.76c-0.16-1.03-0.21-2.08-0.27-3.13
			c-0.1-1.69-1.11-2.28-2.63-1.53C223.18,227.78,222.53,228.01,221.66,228.37z M230.31,217.34c-2.48-0.04-4.25,1.39-4.3,3.47
			c-0.06,2.52,1.86,4.58,4.3,4.62c2.19,0.03,4.4-1.85,4.46-3.78C234.82,219.63,232.48,217.37,230.31,217.34z"/>
		<path class="st3" d="M173.21,65.64c0.76,0.16,2.01,0.33,3.2,0.68c1.38,0.41,1.81,1.31,0.94,2.46c-1.12,1.48-2.4,2.95-3.91,4
			c-4.91,3.41-10.39,5.41-16.38,5.83c-1.27,0.09-2.59-0.05-3.84-0.33c-1.82-0.42-2.29-1.51-1.2-3c0.94-1.27,2.08-2.47,3.36-3.39
			C160.56,68.18,166.36,66.14,173.21,65.64z"/>
		<path class="st3" d="M128.24,131.79c1.76,0.26,3.18-0.43,4.51-1.39c1.66-1.21,2.31-3.25,1.77-5.43c-0.45-1.81-1.71-2.97-3.54-3.27
			c-1.75-0.28-3.86,0.58-5.19,2.12c-2-2.45-2.58-5.91-1.35-8.15c0.87-1.59,3.15-2.75,4.95-2.57c0.8,0.08,1.23,0.56,1.33,1.26
			c0.14,0.96,0.17,1.94,0.19,2.91c0.02,0.73,0.08,1.45,0.85,1.76c0.76,0.31,1.34-0.1,1.86-0.63c1.32-1.34,2.89-1.81,4.69-1.19
			c1.78,0.61,2.46,2.24,1.74,3.96c-0.45,1.07-1.01,2.02-2.04,2.71c-0.42,0.28-0.78,1.06-0.7,1.54c0.07,0.42,0.77,0.75,1.22,1.08
			c0.12,0.09,0.34,0.07,0.51,0.1c1.42,0.21,2.36,0.94,2.54,1.98c0.22,1.27-0.6,2.78-1.85,3.36c-1.23,0.58-2.5,0.56-3.79,0.29
			c-2.21-0.47-2.62-0.15-2.87,2.13c-0.04,0.38-0.12,0.76-0.21,1.13c-0.25,1.02-0.87,1.55-1.96,1.48c-1.02-0.06-1.68-0.44-1.86-1.56
			c-0.18-1.1-0.52-2.17-0.79-3.25C128.21,132.1,128.23,132.02,128.24,131.79z"/>
		<path class="st3" d="M53.49,219.18c-1.18,0.04-0.91-0.98-1.06-1.58c-0.17-0.71,0.9-1.52,1.81-1.5c0.64,0.02,1.31,0.75,1.28,1.41
			C55.49,218.27,54.39,219.18,53.49,219.18z"/>
		<path class="st3" d="M56.46,104.99c0.01-1.31,0.54-2.06,1.45-2.05c1.14,0.02,2.55,1.4,2.57,2.51c0.02,0.98-0.8,1.87-1.73,1.88
			C57.46,107.35,56.45,106.33,56.46,104.99z"/>
		<path class="st3" d="M265.91,135.96c-0.01,1.43-0.4,1.94-1.45,1.91c-1.13-0.03-2.32-0.85-2.28-1.58c0.05-1.01,1.12-1.89,2.27-1.88
			C265.54,134.44,265.92,134.83,265.91,135.96z"/>
	</g>
	<g>
		<path class="st4" d="M68.53,209.64c-0.46,0.62-0.96,1.39-1.55,2.09c-0.49,0.58-1.02,1.14-0.63,1.94c0.42,0.85,1.22,0.8,2.01,0.69
			c1.89-0.27,3.3,0.33,3.94,1.67c0.63,1.31,0.13,3.22-1.24,4.33c-1.2,0.98-2.46,1.8-4.2,1.46c-0.43-0.09-1.23,0.4-1.44,0.83
			c-0.17,0.35,0.16,1.17,0.52,1.49c1.61,1.43,1.9,3.13,0.7,4.92c-1.84,2.75-5.54,3.38-8.2,1.41c-1.35-1-2.42-0.61-2.83,1.03
			c-0.5,2.01-3.32,3.59-5.23,2.93c-2.11-0.73-3.16-3.19-2.26-5.3c0.14-0.32,0.4-0.63,0.42-0.95c0.04-0.58,0.17-1.42-0.14-1.69
			c-0.38-0.33-1.29-0.44-1.77-0.22c-1.37,0.62-2.69,0.66-4.08,0.24c-3.17-0.94-4.79-4.8-3.1-7.63c0.42-0.71,1.34-1.11,2.02-1.67
			c0.45-0.37,1.17-0.72,1.24-1.17c0.07-0.44-0.4-1.16-0.84-1.46c-2.23-1.53-3.26-4.48-2.34-7.03c0.6-1.65,2.05-2.04,3.41-0.92
			c0.22,0.18,0.4,0.49,0.63,0.53c0.54,0.09,1.26,0.26,1.6,0c0.33-0.26,0.54-1.14,0.35-1.52c-0.66-1.37-0.1-2.41,0.63-3.7
			c3.32,2.34,7.01,3.73,10.78,4.82C60.7,207.85,64.56,208.67,68.53,209.64z M53.49,221.59c2.39-0.01,4.57-1.99,4.56-4.15
			c-0.01-2.09-1.8-3.92-3.83-3.91c-2.36,0.01-4.49,1.88-4.51,3.94C49.68,220.05,51.09,221.59,53.49,221.59z"/>
		<path class="st4" d="M69.41,102.87c0,3.11,0,6.22,0,9.33c0,1.26-0.78,1.98-2.05,1.92c-1.8-0.09-2.28,0.4-2.16,2.17
			c0.15,2.26-0.46,3.46-2.2,4.3c-2.27,1.1-4.47,0.96-5.97-0.43c-1-0.93-1.95-1.87-2.12-3.37c-0.11-0.94-1.01-1.35-1.92-1.03
			c-0.16,0.06-0.32,0.14-0.47,0.23c-4.16,2.42-6.74-0.87-6.93-3.91c-0.08-1.26,0.33-2.62,0.81-3.82c0.38-0.94,0.41-1.64-0.18-2.42
			c-0.52-0.7-1.07-1.39-1.5-2.14c-1.22-2.13-0.11-4.34,2.34-4.71c0.72-0.11,1.46-0.13,2.19-0.15c1.39-0.04,2.04-0.78,1.87-2.16
			c-0.3-2.52,0.47-4.2,2.4-4.9c2.37-0.85,4.95-0.9,6.39,1.39c0.28,0.45,1.1,0.86,1.61,0.79c0.43-0.06,1.01-0.79,1.08-1.3
			c0.27-1.77,2.81-2.75,4.38-1.82c0.42,0.25,0.82,0.53,1.23,0.79c0.69,0.45,1.04,1.02,1.02,1.9c-0.05,3.11-0.02,6.22-0.02,9.33
			C69.28,102.87,69.34,102.87,69.41,102.87z M53.99,105.11c0.01,0.13,0.02,0.44,0.06,0.76c0.29,2.12,2.14,3.72,4.44,3.87
			c1.7,0.11,4.13-1.08,4.54-3.25c0.34-1.83-0.31-3.26-1.57-4.53c-1.38-1.39-3.4-1.96-4.97-1.35
			C54.87,101.22,53.99,102.75,53.99,105.11z"/>
		<path class="st4" d="M273.5,140.21c-0.61-0.15-1.22-0.28-1.82-0.44c-1.54-0.43-2.33,0.3-1.95,1.87c0.37,1.49-0.08,2.74-1.17,3.69
			c-1.14,1-2.54,1.43-4,0.81c-0.69-0.3-1.31-0.9-1.77-1.51c-0.43-0.57-0.62-1.32-0.89-2c-0.54-1.38-1.57-1.65-2.7-0.69
			c-1.01,0.87-2.51,0.71-3.39-0.36c-0.88-1.06-0.76-2.77,0.24-3.61c1.53-1.28,1.4-2.1-0.47-2.87c-0.78-0.32-1.46-1.55-1.24-2.65
			c0.2-0.93,0.54-1.91,1.09-2.67c0.32-0.44,1.21-0.72,1.79-0.66c1.98,0.22,2.79-0.1,3.74-1.82c1.54-2.81,4.87-4.2,7.67-3.2
			c1.53,0.55,2.06,1.28,1.77,2.85c-0.18,0.97-0.57,1.92-0.98,2.84c-0.32,0.73-0.67,1.41-0.11,2.15c0.53,0.69,1.22,0.64,1.99,0.49
			c1.84-0.35,3.41,0.25,4.59,1.67c1.04,1.24,1.04,2.68,0.45,4.15C275.84,139.52,274.89,140.16,273.5,140.21z M268.48,136
			c0.01-2.56-1.46-4.08-3.99-4.09c-2.55-0.01-4.69,1.98-4.72,4.38c-0.03,2.33,2.06,4.21,4.68,4.22
			C267.08,140.53,268.46,138.98,268.48,136z"/>
		<path class="st4" d="M142.29,152.11c-4.74,1.89-9.35,1.94-13.79-0.41c-1.58-0.84-2.99-2.05-4.34-3.24
			c-1.08-0.95-0.85-2.63,0.43-3.27c1.14-0.57,2.39-1.11,3.64-1.21c4.72-0.4,8.93,0.87,12.3,4.35
			C141.53,149.38,142.22,150.62,142.29,152.11z M217.73,115.37c-0.35-0.59-0.76-0.82-1.45-0.73c-2.91,0.4-5.81,0.79-8.73,1.12
			c-9.86,1.14-19.48,3.28-28.81,6.71c-11.36,4.18-22.3,9.17-31.96,16.59c-2.2,1.69-4.16,3.71-6.27,5.61
			c0.82,0.77,1.53,1.43,2.27,2.11c0.15-0.1,0.3-0.19,0.43-0.29c4.05-3.26,8.47-5.94,13.07-8.31c17.76-9.11,36.65-14.87,56.18-18.69
			c2.33-0.46,4.67-0.83,7.17-1.28C218.92,117.17,218.28,116.29,217.73,115.37z M100.85,95.71c0.83,1.08,1.64,2.18,2.42,3.3
			c8.95,13.03,16.41,26.88,22.87,41.29c0.2,0.44,0.62,0.77,0.94,1.15c0.07-0.5,0.31-1.04,0.2-1.5c-0.96-4-1.63-8.13-3.07-11.96
			c-2.59-6.89-5.51-13.66-8.56-20.36c-1.66-3.64-3.75-7.1-5.89-10.49c-1.25-1.99-2.94-3.7-4.51-5.47c-0.32-0.36-1.03-0.67-1.48-0.59
			c-1.81,0.32-3.59,0.81-5.61,1.29C99.2,93.64,100.05,94.66,100.85,95.71z M122.04,144.09c-0.34-0.59-0.52-0.96-0.75-1.29
			c-3.73-5.45-7.29-11.03-11.24-16.32c-5.86-7.84-11.92-15.54-18.05-23.17c-2.51-3.12-5.41-5.95-8.23-8.8
			c-0.53-0.53-1.64-0.92-2.34-0.76c-1.61,0.38-3.12,1.14-4.78,1.8C92.11,111.48,107.25,127.43,122.04,144.09z M123.33,140.82
			c-0.02-0.29-0.09-0.55-0.2-0.8c-6.52-14.26-13.89-28.05-23.01-40.84c-1.69-2.38-3.71-4.54-5.68-6.71c-0.47-0.52-1.34-0.99-2-0.96
			c-2.21,0.12-4.41,0.49-6.75,0.77C99.85,107.45,111.89,123.9,123.33,140.82z M147.32,150.83c4.28-1.84,8.61-3.6,12.84-5.55
			c7.44-3.42,14.92-6.7,22.96-8.44c6.24-1.36,12.46-2.98,18.78-3.82c8.6-1.15,17.3-1.1,25.98-0.86c0.61,0.02,1.23,0.06,2.06,0.1
			c-0.2-1.43-0.39-2.7-0.56-3.97c-0.09-0.62-0.38-0.88-1.04-0.85c-4.19,0.15-8.4,0.03-12.56,0.44c-11.97,1.17-23.64,3.89-35.12,7.43
			c-9.53,2.94-18.86,6.4-27.59,11.29c-2.06,1.15-4.02,2.48-6.03,3.73C147.12,150.48,147.22,150.65,147.32,150.83z M225.36,120.79
			c-0.28-0.34-0.98-0.55-1.43-0.48c-6.03,1.04-12.09,1.93-18.05,3.25c-16.6,3.69-32.67,8.95-47.83,16.74
			c-3.09,1.59-6.05,3.42-9.07,5.15c24.76-12.82,50.97-19.98,79.1-21.02C227.18,123.2,226.34,121.94,225.36,120.79z"/>
		<path class="st4" d="M162.32,80.61c0,2.74,0.12,5.43-0.03,8.11c-0.21,3.76,0.19,7.46,0.45,11.19c0.34,4.87-0.36,9.62-2.8,13.98
			c-0.78,1.39-1.97,2.37-3.38,3.04c-1.78,0.84-3.5,0.66-4.98-0.67c-2.52-2.27-3.44-5.26-3.27-8.52c0.38-7.15,1.95-14.03,5.29-20.43
			c0.98-1.88,2.07-3.7,3.15-5.53c0.15-0.25,0.52-0.47,0.82-0.51C159.16,81.01,160.75,80.82,162.32,80.61z M175.08,79.89
			c2.67,5.58,4.51,11.45,4.27,17.66c-0.11,2.92,1.07,4.45,3.35,5.64c0.37,0.19,0.74,0.39,1.13,0.55c2.77,1.12,4.71,0.7,6.44-1.72
			c0.81-1.13,1.38-2.52,1.7-3.88c0.77-3.27-0.11-6.39-1.33-9.4c-1.89-4.68-5.37-8.05-9.34-10.94c-1.57-1.15-3.33-2.04-5.03-3
			c-0.27-0.15-0.76-0.14-1.03,0.01c-0.79,0.44-1.52,0.98-2.34,1.53C173.67,77.57,174.5,78.67,175.08,79.89z M167.33,78.96
			c-2.52,0.99-2.54,0.98-2.55,3.68c-0.01,2.31,0.09,4.62,0.02,6.92c-0.12,4.18,0.27,8.31,1.03,12.41c0.46,2.47,1.31,4.8,3.11,6.65
			c1.47,1.51,3.55,1.49,4.87-0.1c0.68-0.81,1.23-1.78,1.64-2.76c1.7-4.07,1.71-8.34,1.01-12.59c-0.92-5.55-2.37-10.93-5.96-15.55
			C169.39,78.09,168.37,78.55,167.33,78.96z M186.77,78.91c3.12,2.91,5.53,6.28,6.9,10.36c0.11,0.32,0.22,0.74,0.47,0.9
			c1.46,0.94,2.89,1.96,4.46,2.67c1.61,0.73,3.15,0.07,4-1.47c1.47-2.68,1.59-5.56,0.54-8.32c-2.38-6.24-7.19-9.81-13.4-11.84
			c-3.37-1.1-6.75-0.71-10.15-0.57c-0.14,0.01-0.29,0.18-0.4,0.3c-0.42,0.51-0.82,1.03-1.29,1.63
			C181.23,74.33,184.13,76.45,186.77,78.91z M153.08,80.97c-2.23-1.49-3.67-0.17-5.05,1.4c-3.43,3.91-6.96,7.74-10.24,11.77
			c-1.95,2.39-3.6,5.05-5.2,7.7c-0.62,1.03-0.83,2.35-1.03,3.58c-0.18,1.1,0.39,1.93,1.42,2.44c2.59,1.28,5.74,0.98,7.82-1
			c3.2-3.05,5.63-6.59,6.73-10.97c0.49-1.95,1.14-3.89,1.92-5.75c1.28-3.01,2.72-5.95,4.14-9.01
			C153.48,81.1,153.25,81.08,153.08,80.97z M148.65,77.07c-0.17,0.04-0.35,0.05-0.5,0.13c-5.85,2.97-11.75,5.84-17.51,8.97
			c-2.73,1.48-5.17,3.51-6.93,6.14c-0.68,1.02-1.2,2.22-1.5,3.41c-0.46,1.82,0.44,3.08,2.26,3.45c1.87,0.38,3.7,0.1,5.41-0.72
			c0.89-0.43,1.9-0.91,2.47-1.66c4.93-6.54,10-12.94,16.13-18.42c0.28-0.25,0.34-0.75,0.51-1.13
			C148.88,77.18,148.76,77.12,148.65,77.07z M185.53,67.74c5.94,0.75,11.32,2.76,15.52,7.27c0.22,0.24,0.55,0.51,0.84,0.52
			c2.47,0.06,4.95,0.15,7.43,0.06c0.94-0.04,1.91-0.42,2.79-0.81c1.28-0.56,1.62-1.51,0.97-2.72c-0.44-0.82-1-1.61-1.65-2.27
			c-2.02-2.05-4.55-3.27-7.28-3.97c-6.98-1.8-13.86-1.2-20.65,1.03c-0.75,0.25-1.48,0.54-2.39,0.88
			C182.75,67.72,184.16,67.57,185.53,67.74z M209.39,64.91c-0.06-0.21-0.09-0.34-0.14-0.45c-0.1-0.22-0.19-0.45-0.32-0.66
			c-1.94-3.27-4.75-5.4-8.48-6.14c-3.66-0.72-7.37-0.69-11.07-0.14c-4.54,0.67-8.4,2.95-12.25,5.23c-0.26,0.15-0.48,0.35-0.62,0.46
			c1.11,0.7,2.19,1.37,3.38,2.12C189.56,61.67,199.38,60.61,209.39,64.91z"/>
		<path class="st4" d="M132.13,126.76c0.01,0.84-0.79,1.48-1.77,2.07c-1.03,0.61-1.94,0.26-2.87-0.14c-0.13-0.06-0.24-0.25-0.29-0.4
			c-0.49-1.68,0.66-3.64,2.36-4.03C131.13,123.89,132.15,124.72,132.13,126.76z"/>
		<path class="st4" d="M234.51,118.89c-1.33,0-2.35-1.09-2.38-2.53c-0.03-1.65,1.27-3.08,2.79-3.07c1.35,0.01,2.42,1.19,2.39,2.65
			C237.29,117.53,236,118.89,234.51,118.89z"/>
		<path class="st4" d="M230.25,222.85c-0.93-0.03-1.74-0.91-1.74-1.89c0-0.72,0.71-1.45,1.5-1.15c0.8,0.31,1.5,1.08,2.05,1.8
			C232.32,221.96,231,222.88,230.25,222.85z"/>
	</g>
	<path class="st4" d="M53.14,186.69c-0.26,1.04,3.8,3.18,2.79,7.26c-0.67,2.71-3.48,3.42-5.92,2.82c-1.77-0.44-4.27-2.16-3.74-4.29
		c0.26-1.06,1.28-1.85,2.39-1.57c1,0.25,1.33,1.2,2.21,1.42c0.35,0.09,0.93,0.06,1.04-0.38c0.35-1.4-4.08-3.2-3.1-7.15
		c0.67-2.71,3.63-4.09,6.22-3.45c1.8,0.45,4.14,2.11,3.61,4.24c-0.28,1.13-1.28,2.13-2.55,1.82c-0.98-0.24-1.32-1.22-1.83-1.35
		C53.76,185.93,53.28,186.14,53.14,186.69z M71.74,186.87c0.25,0.69-0.48,4.42-0.65,5.37c-0.43,2.36-0.97,4.73-1.6,7.03
		c-0.45,1.57-1.02,2.56-2.84,2.23c-0.72-0.13-2.2-0.45-2.01-1.48c0.22-1.21,0.55-2.41,0.77-3.6c0.08-0.43,0.01-0.97-0.48-1.06
		c-0.56-0.1-1.38-0.09-1.57,0.58c-0.31,0.97-0.48,1.98-0.72,2.96c-0.42,1.57-1.63,1.56-3,1.31c-0.36-0.07-0.71-0.18-0.94-0.45
		c-0.75-0.83-0.28-3.82-0.09-4.87c0.37-2.05,0.76-4.09,1.14-6.14c0.42-2.18,1.12-4.4,3.87-3.9c1.57,0.29,1.96,1.12,1.68,2.63
		c-0.2,1.1-0.52,2.21-0.72,3.31c-0.09,0.52,0.29,0.7,0.74,0.78c0.56,0.1,1.35,0.13,1.48-0.59c0.09-0.49,0.13-1,0.22-1.49
		c0.14-0.79,0.58-3.06,1.18-3.55c0.44-0.36,1.05-0.3,1.55-0.21C70.46,185.85,71.47,186.08,71.74,186.87z M85.65,186.63
		c0.37,0.64,0.36,4.43,0.37,5.39c0.02,2.4-0.07,4.82-0.26,7.2c-0.15,1.62-0.52,2.7-2.38,2.72c-0.73,0.01-2.24-0.03-2.25-1.08
		c-0.01-1.23,0.09-2.47,0.08-3.68c0-0.43-0.17-0.96-0.67-0.95c-0.57,0.01-1.37,0.17-1.43,0.86c-0.13,1.01-0.1,2.03-0.16,3.04
		c-0.12,1.62-1.31,1.84-2.7,1.85c-0.37,0-0.73-0.04-1.01-0.27c-0.9-0.68-0.99-3.69-1-4.77c-0.02-2.08-0.01-4.16-0.03-6.24
		c0-2.22,0.28-4.53,3.07-4.55c1.6-0.01,2.13,0.74,2.14,2.27c0.01,1.12-0.09,2.26-0.08,3.38c0,0.53,0.42,0.64,0.87,0.63
		c0.57-0.01,1.35-0.13,1.34-0.86c0-0.5-0.05-1-0.06-1.51c-0.01-0.8,0-3.11,0.49-3.71c0.36-0.44,0.98-0.49,1.48-0.49
		C84.21,185.87,85.24,185.9,85.65,186.63z M98.82,184.72c0.46,0.58,0.97,4.34,1.11,5.29c0.35,2.37,0.6,4.79,0.75,7.17
		c0.08,1.63-0.14,2.75-1.98,3.02c-0.72,0.11-2.22,0.29-2.38-0.75c-0.18-1.22-0.25-2.46-0.43-3.66c-0.06-0.43-0.3-0.93-0.8-0.85
		c-0.56,0.08-1.33,0.36-1.3,1.05c0.01,1.02,0.19,2.03,0.27,3.03c0.1,1.63-1.04,2-2.42,2.21c-0.36,0.05-0.73,0.06-1.04-0.12
		c-0.98-0.55-1.5-3.52-1.66-4.58c-0.31-2.06-0.59-4.12-0.9-6.18c-0.31-2.2-0.35-4.52,2.41-4.94c1.58-0.24,2.21,0.43,2.44,1.95
		c0.17,1.11,0.22,2.25,0.39,3.36c0.08,0.52,0.5,0.57,0.95,0.5c0.57-0.08,1.32-0.31,1.21-1.04c-0.07-0.5-0.19-0.99-0.27-1.49
		c-0.12-0.79-0.44-3.08-0.03-3.74c0.3-0.48,0.9-0.62,1.4-0.69C97.28,184.17,98.3,184.06,98.82,184.72z M106.45,196.25
		c0.22,0.91-0.26,2.04-1.22,2.27c-0.98,0.23-1.89-0.44-2.12-1.37c-0.23-0.96,0.27-1.99,1.27-2.23
		C105.3,194.69,106.24,195.36,106.45,196.25z M111.06,195.14c0.22,0.91-0.26,2.04-1.22,2.27c-0.98,0.23-1.89-0.44-2.12-1.37
		c-0.23-0.96,0.27-1.99,1.27-2.23C109.91,193.58,110.84,194.25,111.06,195.14z M115.64,194.03c0.22,0.91-0.26,2.04-1.22,2.27
		c-0.98,0.24-1.89-0.44-2.12-1.37c-0.23-0.96,0.27-1.99,1.27-2.24C114.48,192.48,115.42,193.14,115.64,194.03z M127.94,191.76
		c0.32,1.33-0.33,1.96-1.57,2.26c-1.56,0.37-3.14,0.62-4.71,0.94c-0.92,0.18-1.69,0.03-1.93-0.99c-0.22-0.91,0.34-1.82,1.25-2.04
		l0.2-0.05c-0.64-2.97-1.29-5.94-2-8.9c-0.11-0.47-0.65-0.24-0.97-0.31c-0.54-0.08-1.04-1.09-1.15-1.56
		c-0.22-0.93,0.51-1.3,1.31-1.49c1.3-0.36,2.59-0.76,3.9-1.08c0.98-0.23,2.14-0.19,2.42,0.99c0.15,0.62-0.16,1.29-0.72,1.58
		c-0.13,0.05-0.26,0.09-0.35,0.2c-0.17,0.18-0.12,0.48-0.07,0.7c0.72,2.98,1.43,5.96,1.99,8.97
		C126.47,190.78,127.65,190.56,127.94,191.76z M129.9,179.56c0.2,0.82,0.4,3.27-0.71,3.53c-1.16,0.28-2.84-2.52-3.06-3.48
		c-0.23-0.98,0.27-1.83,1.25-2.06C128.76,177.23,129.62,178.36,129.9,179.56z M144.14,174.41c1.32,1.52,3.26,7.55,3.75,9.62
		c0.34,1.45,0.88,4.44-1.14,4.92c-0.67,0.16-1.41-0.11-1.94-0.58c-0.65-0.55-1.01-1.38-1.27-2.19c-0.16-0.57-0.67-3.25-1.49-3.05
		c-1.16,0.27,1.3,3.71-1.04,4.26c-1.89,0.45-2.27-3.06-3.1-2.86c-0.51,0.12-0.33,1.28-0.25,1.63c0.19,0.82,0.61,1.57,0.79,2.37
		c0.29,1.25,0.08,2.61-1.37,2.95c-2.58,0.61-3.56-2.64-4-4.51c-0.55-2.34-1.88-10.65,1.53-11.45c3.49-0.82,3.44,5.2,4.79,4.88
		c0.85-0.2,0.17-4.15,0.49-5.07c0.27-0.77,1.02-1.27,1.79-1.46C142.45,173.7,143.59,173.76,144.14,174.41z M164.27,180.96
		c0.58,0.39,1.27,0.86,1.43,1.58c0.27,1.2-1.29,1.88-2.25,2.09c-2.1,0.47-4.57-5.47-5.53-5.25c-0.2,0.04-0.11,0.26-0.08,0.39
		c0.36,1.61,1.12,3.12,1.48,4.73c0.31,1.41-0.62,1.75-1.78,2.01c-0.76,0.17-1.82,0.34-2.46-0.22c-0.72-0.61-1.59-4.3-1.83-5.37
		c-0.42-1.9-0.67-3.83-0.66-5.78c0.02-2.63,1.33-4.23,3.91-4.81c2.72-0.61,5.64,0.5,6.3,3.44c0.3,1.36-0.12,3.45-1.46,4.17
		C162.15,178.93,163.22,180.26,164.27,180.96z M158.56,175.02c-0.16-0.74-1.08-1.07-1.75-0.92c-0.33,0.07,0.01,1.64,0.07,1.9
		c0.07,0.33,0.11,0.82,0.56,0.72C158.25,176.55,158.75,175.85,158.56,175.02z M177.57,179.24c0.38,1.79-1.4,2.65-2.81,3.09
		c-1.16,0.38-2.35,0.7-3.56,0.96c-0.54,0.11-1.1,0.23-1.64,0.11c-1.25-0.27-1.81-1.63-2.16-2.72c-0.45-1.35-0.8-2.71-1.09-4.09
		c-0.41-1.95-0.72-3.96-0.78-5.93c-0.1-2.46,2.41-2.98,4.31-3.38c1.1-0.23,3.6-0.87,4.52,0.08c0.38,0.39,0.58,0.88,0.69,1.4
		c0.28,1.34,0.37,2.07-1.16,2.39l-2.51,0.53c-0.67,0.14-0.79,0.47-0.66,1.1c0.06,0.27,0.2,0.75,0.56,0.68
		c0.63-0.13,1.26-0.36,1.88-0.49c1.32-0.28,1.69,0.39,1.94,1.58c0.51,2.42-3.84,1.86-3.52,3.38c0.08,0.38,0.2,0.4,0.54,0.33
		c0.94-0.2,1.86-0.48,2.8-0.68C176.6,177.2,177.21,177.52,177.57,179.24z M187.03,164.73c1.68,1.81,3.87,8.98,4.32,11.43
		c0.28,1.53-0.08,3.13-1.83,3.45c-1.48,0.27-2.45-0.55-2.71-1.99c-0.23-1.26-0.17-2.57-0.4-3.83c-0.08-0.45-0.31-0.92-0.87-0.82
		c-0.29,0.05-0.53,0.26-0.67,0.52c-0.52,0.98,0.63,4.72-0.19,6.1c-0.45,0.73-1.28,1.12-2.12,1.27c-1.51,0.28-2.57-0.07-2.87-1.71
		c-0.07-0.38-0.09-0.75-0.09-1.14c0.02-4.12,1-8.01,2.99-11.63c0.56-1.03,1.31-2.12,2.55-2.35
		C185.9,163.89,186.51,164.17,187.03,164.73z M186.08,170.06c-0.07-0.36-0.56-1.66-1.01-1.58c-0.29,0.05-0.64,1.97-0.58,2.29
		c0.06,0.32,0.45,0.31,0.7,0.27C185.61,170.96,186.17,170.58,186.08,170.06z M203.97,169.33c0.3,4.54-3.07,9.13-7.74,9.44
		c-0.8,0.05-1.48,0.12-1.96-0.63c-0.69-1.05-1.22-5.74-1.32-7.15c-0.12-1.89-0.11-3.82,0.06-5.71c0.21-2.01,2.13-2.38,3.87-2.5
		C200.82,162.53,203.72,165.5,203.97,169.33z M199.64,169.98c-0.06-0.94-0.76-2.1-1.83-2.03c-1.14,0.08-1.09,1.86-1.04,2.68
		c0.05,0.71,0.1,1.87,1.06,1.81C198.92,172.36,199.7,170.98,199.64,169.98z M213.78,176.05c-0.03,1.37-0.81,1.81-2.09,1.79
		c-1.6-0.03-3.2-0.2-4.8-0.27c-0.94-0.06-1.64-0.4-1.62-1.45c0.02-0.94,0.79-1.68,1.72-1.66l0.21,0c0.13-3.04,0.25-6.08,0.31-9.12
		c0.01-0.48-0.56-0.4-0.86-0.54c-0.5-0.21-0.73-1.32-0.72-1.8c0.02-0.96,0.82-1.13,1.64-1.11c1.35-0.02,2.7-0.09,4.05-0.06
		c1.01,0.02,2.12,0.36,2.1,1.57c-0.01,0.64-0.48,1.2-1.1,1.35c-0.14,0.02-0.27,0.02-0.39,0.11c-0.21,0.13-0.24,0.43-0.24,0.66
		c-0.06,3.06-0.12,6.12-0.33,9.18C212.62,174.73,213.8,174.82,213.78,176.05z M229.45,165.28c-0.04,1.65-0.15,3.32-0.33,4.98
		c-0.18,1.68-0.43,3.38-0.75,5.04c-0.26,1.35-0.9,3.42-2.67,3.23c-2.95-0.32-2.81-7.18-4.49-7.36c-0.29-0.03-0.37,0.65-0.39,0.85
		c-0.15,1.39,0.15,2.82,0,4.23c-0.15,1.34-0.98,1.87-2.28,1.73c-2.79-0.3-2.3-3.79-2.09-5.74c0.25-2.27,0.99-10.03,4.31-9.67
		c2.04,0.22,2.23,3.41,2.83,4.9c0.09,0.22,0.26,0.37,0.53,0.4c1.14,0.12,1.03-3.98,2.14-4.73c0.42-0.3,0.95-0.29,1.43-0.24
		C229.18,163.06,229.46,163.85,229.45,165.28z M242.42,175.34c-0.66,3.13-3.78,5.7-7.03,5.02c-3.71-0.78-4.59-5.42-3.92-8.6
		c0.73-3.51,3.88-7.71,7.91-6.87c1.39,0.29,3.57,1.7,3.22,3.36c-0.2,0.96-1.58,2.77-2.7,2.54c-0.65-0.14-1.07-0.69-1.72-0.83
		c-1.63-0.34-2.89,1.4-3.18,2.81c-0.26,1.23,0.27,2.72,1.64,3c0.81,0.17,1.29-0.24,1.46-1.05c0.19-0.89-1.65,0.1-1.23-1.92
		c0.1-0.49,0.35-1,0.85-1.18c0.82-0.34,2.02-0.28,2.87-0.1C242.56,171.97,242.78,173.6,242.42,175.34z"/>
</g>
</svg>
