<?xml version="1.0" encoding="utf-8"?>
<!-- Generator: Adobe Illustrator 22.1.0, SVG Export Plug-In . SVG Version: 6.00 Build 0)  -->
<svg version="1.1" id="Layer_1" xmlns="http://www.w3.org/2000/svg" xmlns:xlink="http://www.w3.org/1999/xlink" x="0px" y="0px"
	 viewBox="0 0 500 500" style="enable-background:new 0 0 500 500;" xml:space="preserve">
<style type="text/css">
	.st0{fill:#50A5A6;}
	.st1{fill:#92D1C8;}
	.st2{fill:#034F50;}
</style>
<g>
	<path class="st0" d="M157.2,330.9c1-2.3,1.9-4.6,2.9-6.8c3.9-8.1,9.3-14.7,18.5-16.6c11.8-2.7,22.4,5.8,22.6,18
		c0.2,9.5-2.1,18.5-6.4,26.8c-1.2,2.5-2.5,5-3.5,7.1c3.5,3.5,6.6,6.8,10,10.2c0-0.6,0.2-1.5,0.2-2.3c0-10.4,3.7-19.1,11-26.3
		c3.1-3.1,6.4-5.8,9.7-8.3c1.9-1.5,2.9-2.9,2.5-5.4c-0.4-3.1-0.4-6.2-0.4-9.3c0-7.3,2.9-13.3,7.7-18.5c4.4-4.6,9.7-5.8,15.3-3.3
		c3.7,1.9,7.3,4.1,10.4,6.6c3.3,2.7,5.2,6.4,6,10.6c2.1,10.2,2.7,20.3,0.6,30.7c-0.4,2.1-0.4,4.1-0.4,6.4c2.9,1,4.6,0.2,5.2-2.5
		c1.2-4.8,3.5-8.9,6-12.9c1.2-1.9,1.7-4.6,1.7-7.1c0.2-11.6,5.2-20.7,14.7-27.4c7.9-5.4,20.5-2.5,25.3,5.6c2.7,4.4,3.5,9.3,3.7,14.3
		c0.4,7.7,0,15.1-1.5,22.8c-0.6,2.9-0.6,5.8-1,8.7c6.2-0.4,7.3-1.5,8.5-6.4c2.7-11,5.2-22,8.1-32.8c1.5-5.2,3.3-10.2,5.4-14.9
		c1.5-3.5,4.1-6,8.3-6c5.4,0,10,6,8.7,12c-0.8,3.7-1.9,7.5-2.9,11c-3.1,13.9-5.4,28-5.6,42.3c0,0.8,0.2,1.7,0.2,3.5
		c1.9-1.7,3.5-2.7,4.8-4.1c9.3-11.6,17.8-23.4,24.9-36.5c0.8-1.5,1.5-3.1,2.7-4.1c1-0.8,2.7-1.5,3.9-1.2c0.8,0.2,2.1,1.9,2.1,2.9
		c0,2.7,0,5.8-1.2,8.3c-7.7,16.4-16.8,31.7-30.9,43.4c-2.5,2.1-2.5,3.7,0.8,5.2c3.9,1.7,8.1,2.9,12,4.4c1.5,0.4,3.1,0.8,4.6,1.2
		c0,2.9-1.5,3.5-3.5,3.9c-5,0.8-10,0.6-14.5-1.9c-1.7-0.8-3.3-1.2-5.8-2.1c-0.2,2.5-0.8,4.4-0.8,6c0.2,5.2,0.6,10.4,0.8,15.3
		c0.2,6.4-1.5,7.9-7.7,9.3c-5,1.2-8.5-0.4-11-4.6c-1.5-2.3-2.7-5-3.3-7.7c-2.1-9.7-2.1-19.7-1.9-29.7c0-3.1,0-6.2,0-10.2
		c-3.3,0.8-6,1.5-8.7,2.5c-1,0.4-1.9,1.7-2.3,2.9c-1.5,2.9-2.5,5.8-3.7,8.7c-3.3,7.3-8.5,12.7-15.1,16.6c-3.9,2.5-8.3,2.1-12.4,1
		c-8.3-2.1-13.5-7.9-14.5-16.2c-0.6-4.6-0.8-9.1-1.2-13.7c-4.8-1-4.8-1-6.4,2.7c-2.9,6.4-5.6,12.9-10.2,18c-2.3,2.5-4.4,5-6.8,7.1
		c-3.9,3.5-8.5,5-13.9,4.1c-0.8-0.2-1.7-0.4-2.5-0.2c-9.3,0.8-15.1-4.8-20.5-11c-0.4-0.4-0.6-1.2-1.2-1.7c-1.5-1.5-3.3-1-3.7,1
		c-0.4,1.7-0.4,3.5-0.8,5.4c-3.3,20.7-11.4,39-27.4,53.3c-5.4,4.8-11.4,6-18,3.9c-6.4-2.1-10.4-6.4-11-13.3
		c-0.2-1.2-0.2-2.7-0.2-3.9c0-2.1-0.8-3.7-3.1-4.6c-4.8-1.7-6.6-5.6-8.1-10.2c-3.7-11.2-4.8-22.6-4.6-34.4
		c0.2-17.8,1.5-35.5,5.4-52.9c1-4.4,3.3-8.3,5.2-12.2c1.2-2.5,3.3-3.5,6.2-3.3c1.7,0,3.3-0.2,5-0.6c5.4-0.8,9.5,3.1,8.5,8.5
		c-0.6,3.7-1.5,7.5-2.3,11.2c-0.2,0.8,0,1.9,0,2.7C156.6,330.7,157,330.7,157.2,330.9z M179.4,369.7c-2.1,1.9-3.7,3.3-5.4,4.8
		c-1.9,1.5-3.9,3.1-6,4.1c-2.3,1.2-4.1,0-5.8-1.7c-1.7-1.7-1.9-3.3-0.8-5.4c0.6-1.2,1-2.5,1.7-3.7c5-12.4,10-24.9,14.7-37.5
		c1.5-4.1,2.5-8.5,1.5-13.5c-1.2,0.6-2.1,1-2.9,1.5c-3.5,2.5-5.6,6-7.5,9.7c-8.7,18.9-12.9,39-15.1,59.5c-0.4,3.7-0.6,7.5-1,12
		c1.7-1.5,2.5-2.3,3.3-2.9c4.1-3.5,8.1-7.3,12.4-10.6c3.3-2.5,6.8-4.6,10.4-6.6c2.5-1.5,3.3-3.1,2.3-5.8
		C180.9,372.8,180.2,371.8,179.4,369.7z M231.3,343.4c-2.5,3.7-4.6,6.4-6.2,9.3c-4.6,8.3-4.4,17.2-3.5,26.1c0.4,4.1,3.5,5.6,7.7,3.9
		c1.5-0.6,3.1-1.7,3.7-2.9c3.5-6.4,6.8-13.1,10.2-19.9c0.8-1.7,0.6-3.5-0.8-5C238.7,351.5,235.4,347.7,231.3,343.4z M180.2,391.7
		c-1.7,0.8-2.5,1-3.1,1.5c-8.3,5.6-14.5,13.1-19.1,21.8c-1.9,3.5-2.5,7.5-1.7,11.6c0.4,2.5,0.2,6,3.3,6.6c3.1,0.6,5.2-1.9,6.6-4.4
		c5.2-9.3,10.2-18.7,12.7-29C179.6,397.3,179.8,394.8,180.2,391.7z M303,306.5c-11.2,8.7-9.7,34.8,1.7,42.3c1-5.4,2.5-10.8,3.1-16
		c0.8-7.1,0.6-14.3-1.9-21.2C305.3,310,304.1,308.3,303,306.5z M285.4,355.4c-1.5,5-1.9,10.2-1,15.1c0.4,2.5,1.5,5.2,2.7,7.3
		c1.9,3.1,5,3.3,7.3,0.6c3.9-4.8,5.8-10.4,6.4-16.2C295.4,359.8,290.6,357.5,285.4,355.4z M245.6,305.8c-0.6,0-1,0.2-1.7,0.2
		c-0.4,2.3-1,4.4-1.2,6.6c-1,7.3-0.6,14.5,1.9,21.6c0.6,1.7,1,3.5,3.5,4.1c0.6-9.3,1-18-0.2-27C247.9,309.6,246.4,307.7,245.6,305.8
		z"/>
	<path class="st1" d="M172.6,106.9c2.3-1.5,4.1-2.5,6-3.7c0-1.9-0.4-3.7-0.2-5.6c0.2-3.1,0.4-6.2,1.2-9.3c1.5-5.4,5.2-8.9,11-9.5
		c6-0.6,11.2,1,14.5,6.4c3.1,4.8,4.6,10.2,5.2,16c0.2,1.7,0.4,3.5,0.6,5.2c0.4,0,0.8,0,1.2,0c0.8-4.1,1.7-8.5,2.3-12.7
		c0.4-2.7,0.8-5.6,1-8.3c0.4-3.3,2.1-5.6,4.8-7.1c3.5-1.9,7.1-0.2,7.1,3.7c0,4.4-0.8,8.9-1.5,13.3c-0.2,1.9-0.4,3.7-0.6,5.6
		c0.4,0.2,0.6,0.2,1,0.4c1-1.2,2.1-2.3,3.1-3.5c3.1-3.5,6-7.1,9.1-10.6c4.1-4.8,9.3-6.6,15.3-7.1c4.6-0.4,6.8,1,7.3,5.4
		c0.4,4.4,0.6,8.9-0.2,13.3c-1.2,8.1-5,15.6-10.4,21.8c-2.3,2.7-5.6,4.6-8.5,6.6c-1,0.8-2.1,1.5-3.3,2.3c2.1,2.1,4.1,1.2,6.2,1
		c1.9-0.2,3.5-0.6,5.4-0.6c0.8,0,2.3,1,2.5,1.9c0.4,0.8,0,2.5-0.6,3.1c-1.2,1.2-2.9,2.3-4.6,2.9c-6.6,2.3-13.3,3.1-19.9,0.2
		c-0.8-0.4-1.7-0.4-2.3-0.6c-0.2,0-0.2,0-1,0.2c-0.6,1.5-1.2,3.3-1.9,5.2c-0.6,2.5-1,5.2-1.9,7.7c-1,3.3-2.9,4.6-6.2,4.4
		c-3.1-0.2-5.4-1.9-5.6-5.2c-0.2-5.4,0-11,0.2-16.4c0-2.5,0.2-5.2,0.4-8.5c-2.5,1.5-2.9,3.5-3.7,5.2c-2.3,5.4-5.2,10.4-9.1,14.7
		c-5.6,6.4-13.1,7.3-20.9,6.8c-1.7,0-3.9-1.5-5-2.9c-2.3-3.1-5-6.4-6-10.2c-2.7-9.1-2.1-18.5,3.1-26.8c0.4-0.8,1-1.7,1.5-2.5
		c0-0.2,0-0.2,0-1c-1.5,0-3.1-0.2-4.6,0c-2.7,0.2-4.6-1-5.2-3.5c-0.4-1.9-0.8-3.9-0.8-5.8c-0.4-5.6-0.6-11.2-1-16.8
		c-0.4-3.9-1.9-7.7-5-10.4c-2.7,0.8-3.1,2.9-3.3,5c-0.8,7.3-0.8,14.5,1,21.8c3.5,13.7,7.3,27.2,10.8,40.9c2.7,10.6,5,21.4,4.6,32.4
		c-0.2,7.3-1.7,14.1-5,20.5c-1.9,3.5-4.1,5.6-8.1,6.6c-14.3,3.7-27.4-1-35.7-13.5c-7.7-11.4-10.2-24.1-8.5-37.5
		c0.8-6.8,3.9-13.3,9.1-18.3c2.9-2.7,6.2-4.4,10.2-5c0.8,0,1.7-0.2,2.5,0c3.7,0.8,4.8,3.5,2.1,6c-2.3,2.3-4.4,5-6.2,7.7
		c-1.2,2.1-2.5,4.4-2.9,6.8c-1.7,12-0.2,23.4,6,34.2c2.5,4.1,5.6,7.5,10.2,9.1c3.9,1.7,5.8,1,7.3-3.1c4.1-12,6-24.5,3.5-37.1
		c-2.5-11.4-5.8-22.8-8.7-34.2c-2.3-10-3.7-19.9-2.7-30.1c0.4-4.1,1.5-8.1,2.5-12.2c0.4-1.5,1.2-3.1,2.3-3.7
		c8.5-5,17.8-7.3,24.3,2.9c3.1,5,4.6,10.4,5,16C172.8,93.6,172.6,99.9,172.6,106.9z M228.6,123.3c12.4-3.9,23-21.8,19.9-33
		C239.4,94.1,228.2,112.1,228.6,123.3z M182.5,118.3c-2.3,5.6-3.3,11.8-2.5,18.3c0.4,2.5,1.7,3.3,3.7,3.7c2.3,0.4,4.4-0.2,5.6-2.3
		c1.5-2.5,2.7-5.2,3.7-8.1c0.2-0.8-0.2-2.3-0.8-2.9C189.4,124.3,186.1,121.4,182.5,118.3z M195.8,109.6c1.5-5.2,1-9.5-1.2-17.4
		c-0.4-1.2-1.2-2.5-1.9-3.5C189.8,96.1,190.8,102.8,195.8,109.6z"/>
	<path class="st0" d="M420.9,321.4c-1.5,0.8-2.5,1.2-3.5,2.1c-2.5,1.7-5.4,1.7-8.1,1c-2.7-0.6-3.5-2.7-1.9-4.8
		c1.5-1.9,3.5-3.5,5.4-5c8.5-5.8,18-8.1,28.2-7.5c3.1,0.2,6.2,0.4,9.3,0.6c18.5,1,30.9,17.4,27,35.7c-3.5,15.3-10,29.7-19.7,41.9
		c-6.4,8.1-13.9,15.6-21.2,23c-3.3,3.5-7.5,6.2-12.9,4.1c-1.2-0.4-2.9,0.2-4.4,0.2c-2.7,0-5.4-0.4-6.8-3.1c-1.5-2.5-0.6-5,1-6.8
		c3.3-3.5,3.1-7.1,2.3-11.4c-2.3-13.5-1.7-27.2,0.2-40.7c1.2-8.9,3.3-17.8,4.8-26.8C421.1,323.3,420.9,322.6,420.9,321.4z
		 M432.5,382.4c1.9-1,2.3-1.2,2.9-1.7c0.8-0.6,1.5-1.2,2.3-2.1c8.9-10.4,16.6-21.4,20.5-34.8c1.9-6.4,1.7-12.7,0-19.1
		c-1.7-6-5.6-8.7-11.4-8.9c-3.5-0.2-4.4,0.4-5,3.9c-2.3,12.7-4.6,25.3-6.6,38.2C433.7,365.8,433.3,373.5,432.5,382.4z"/>
	<path class="st1" d="M326.5,126.4c2.1-2.7,4.4-5.2,6.4-7.9c4.6-6.2,9.1-12.7,13.7-18.9c1.5-2.1,3.1-3.1,5.8-2.9
		c3.9,0.2,5.8,1.9,5.6,6c-0.2,3.1-0.6,6.2-0.8,9.3c-0.8,7.3-1.7,14.5-2.3,21.8c-0.2,1.5,0,2.9,0,4.4c10,0.8,20.9-7.1,23.4-16
		c0.4-1.9,1.2-3.7,2.5-5.2c1.7-1.9,4.1-2.1,6.4-0.8c2.1,1,3.3,3.1,2.7,5.4c-0.6,2.9-1.5,5.8-3.1,8.3c-3.5,5.8-8.7,10-14.9,12.9
		c-4.6,2.1-9.1,4.1-13.7,5.6c-4.4,1.2-6.2,3.5-6.8,7.9c-1.5,8.3-4.4,16.4-8.1,23.9c-3.1,6.2-6.8,11.6-12.2,16.2
		c-9.1,7.9-19.3,8.9-30.3,5.2c-7.7-2.7-12.4-12-10.4-20.1c1.2-4.6,3.5-8.3,6.6-11.4c11.2-10.8,23.6-19.7,38.8-24.3
		c3.1-0.8,4.6-2.5,4.8-5.8c0.4-6.2,1.7-12.4,2.3-18.7c0-0.8,0-1.5,0-3.3c-1.5,1.7-2.5,2.5-3.1,3.3c-3.7,5.4-7.7,10.8-11.4,16.4
		c-2.1,3.1-4.8,5-8.7,5s-6.2-1.7-7.5-5.4c-0.4-1.7-0.8-3.3-0.8-4.8c-0.4-7.7,1.7-15.1,3.9-22.4c0.8-2.3,2.3-3.9,4.8-4.8
		c4.1-1.2,7.1,0.8,6.6,5.2c-0.4,3.7-1.2,7.5-1.7,11.2c-0.2,1.7-0.2,3.1-0.4,4.8C325.6,126,326.1,126.2,326.5,126.4z M337.3,153.8
		c-13.7,4.8-25.3,11.6-33.4,23.6c-1.5,2.1-2.1,5.4-1.9,8.1c0,7.7,7.3,11.4,13.7,7.5c13.9-8.5,19.9-22,22.4-37.3
		C337.9,155.3,337.7,155,337.3,153.8z"/>
	<path class="st1" d="M283.1,94.9c1.5-1.2,2.9-2.7,4.4-3.9c5-4.4,10.8-6.6,17.4-6c5.6,0.4,7.9,2.9,8.3,8.5c0.6,11-2.5,20.7-9.5,29
		c-3.9,4.6-8.7,8.1-13.3,11.8c-1,1-2.5,1.7-3.5,2.5c2.7,4.4,3.3,4.8,7.1,3.7c2.1-0.6,3.9-0.6,5.2,1.7c1,1.9,0,4.6-2.1,6
		c-3.7,2.9-10.2,2.9-14.5,0c-1.9-1.2-3.7-2.7-6-4.4c-0.4,1.5-1,2.3-1,3.3c-0.4,5-0.6,10-1.2,14.9c-0.6,4.6-3.3,6.6-7.9,6.4
		c-2.7,0-4.4-1.5-5.2-3.9c-0.4-1.5-0.4-2.9-0.4-4.4c-0.4-23.2,1.9-46,6-68.9c1.2-6.6,3.9-12.7,8.5-17.6c2.3-2.3,4.8-3.5,8.1-3.1
		c3.3,0.4,4.6,1.9,3.7,5c-1,4.6-2.5,8.9-3.5,13.5c-0.4,1.7-0.6,3.5-0.8,5.2C282.3,94.5,282.7,94.7,283.1,94.9z M301.2,94.5
		c-9.5,2.3-23.4,23.4-22.2,33.6c2.7,0.8,4.4-0.6,6.2-2.1c10-7.7,14.7-18,16.4-30.1C301.8,95.5,301.4,94.9,301.2,94.5z"/>
	<path class="st0" d="M396.6,347.3c-3.7,12-3.1,24.7-5,37.8c2.5,0,4.4,0,6.2,0c2.1,0.2,4.4,0,6.2,0.6c1,0.2,2.1,1.7,2.3,2.7
		c0.2,0.6-1.2,1.9-2.3,2.1c-1.2,0.6-2.9,0.6-4.4,1c-1.9,0.4-3.7,1-5.6,1.9c-2.3,0.8-3.5,2.5-3.5,5c0,2.7,0,5.6,0,8.9
		c2.3,0,3.9,0,5.8,0c1.7,0,3.1,0,4.6,0c0.8,2.5-0.2,3.5-1.7,4.4c-2.7,1.7-5.4,3.1-8.1,4.8c-6.8,3.9-12,2.5-14.7-4.8
		c-1.5-3.7-2.1-8.1-2.5-12c-1.2-16,1.2-31.7,4.1-47.3c0.4-2.1,1.2-4.1,2.1-6c2.1-5.2,5.6-7.9,11.8-7.5c5,0.4,10.2-0.8,15.3-1.2
		c1,0,2.3-0.4,3.3,0c1.9,0.4,3.3,1.7,3.3,3.9c0,1.9-1,3.1-2.9,3.5C406.5,345.5,402,346.3,396.6,347.3z"/>
	<path class="st1" d="M85,402.3c-5.4,0.4-6.8-0.6-8.1-4.6c-0.6-2.3-0.8-4.6-1-6.8c-0.6-10.6,0.2-20.9,2.5-31.1
		c0.2-0.8,0.2-1.7,0.2-2.5c0-0.2-0.2-0.2-0.4-1c-3.3,5.4-5,11-7.1,16.6c-1.5,4.1-3.1,8.3-5.2,12.2c-2.1,4.1-6,4.4-9.3,1
		c-1.5-1.5-2.7-3.3-4.6-5.6c-0.6,5.6-1.2,10.4-1.9,15.1c0,0.8,0.2,1.9-0.2,2.5c-0.8,0.8-1.9,1.9-2.9,2.1c-0.8,0.2-2.3-0.8-2.7-1.5
		c-0.6-1-0.8-2.5-0.8-3.7c0.8-7.5,1.5-15.1,2.7-22.6c0.6-4.1,2.1-5,5.6-4.8c2.5,0,4.1,1.2,4.8,3.5c0.8,2.5,1.5,5,2.5,7.7
		c0.4,1.5,1,2.7,1.9,4.6c0.8-1.2,1.7-1.9,1.9-2.7c1-3.1,2.1-6.2,2.9-9.5c2.1-7.7,5-15.1,9.7-21.6c1.9-2.5,4.1-4.6,6.6-6.6
		c1.7-1.5,3.7-1.7,5.6-0.6c1.9,1,2.3,2.9,2.1,4.8c-0.8,5.4-1.9,10.8-2.5,16.2c-1.2,9.5-2.3,19.1-3.1,28.6
		C84.2,395,84.8,398.4,85,402.3z"/>
	<path class="st2" d="M161.2,238.8c0,3.9,0,7.9,0,11.8c0,2.9,0,5.6-0.2,8.5c0,1.5-0.6,3.3-2.5,2.9c-0.8-0.2-1.9-1.9-2.1-2.7
		c-0.4-9.1-0.6-18.3-0.6-27.4c0-2.5-0.2-5.6,3.5-6.8c7.7,8.9,11,20.5,17.8,30.1c0.4,0,0.8-0.2,1-0.2c0-1.7,0-3.5,0-5.2
		c0.4-10.2,0.6-20.5,1-30.7c0-2.3,0.6-4.6,1.2-6.8c0.6-2.3,2.1-3.7,5-3.5c0.2,0.8,0.4,1.5,0.2,2.3c-2.1,12.2-2.7,24.7-2.7,37.1
		c0,3.9-0.6,7.9-0.8,11.8c-0.2,2.1-1.2,3.7-3.3,3.7c-1.5,0-3.3-1-3.9-2.1c-3.7-6-7.1-12.2-10.6-18.5c-0.8-1.5-1.7-2.9-2.3-4.4
		C162,238.6,161.6,238.6,161.2,238.8z"/>
	<path class="st2" d="M210.3,215.6c3.5-0.6,6.2-1.2,8.7-1.5c1,0,2.1,0.8,3.1,1.5c-0.6,1-1,2.7-1.9,3.1c-2.1,0.8-4.4,1.2-6.6,1.7
		c-2.9,0.4-4.4,1.9-4.8,5c-0.4,3.7-0.8,7.5-1.2,11.4c-0.4,5.8-0.6,11.6-1,17.4c-0.2,3.1,0,6.2,1.7,9.1c2.5-1,2.5-3.3,3.1-5
		c1.9-4.6,3.3-9.3,5.4-13.9c0.6-1.7,2.3-2.9,3.3-4.4c2.5,1.5,2.3,2.9,1.5,4.6c-2.3,5.4-4.1,10.8-6.4,16.2c-1,2.5-2.1,5.4-3.7,7.5
		c-2.5,3.3-6.2,2.7-7.7-1.2c-0.8-2.5-1.5-5.2-1.5-7.7c0.2-10,0.6-19.9,1-29.9c0-1.9,0.2-3.5,0.2-6c-2.5,0-4.6,0.2-6.6,0
		c-1-0.2-2.1-1-3.1-1.7c0.8-0.8,1.7-1.7,2.7-2.5c0.4-0.2,1-0.2,1.5-0.4c6.8-1.7,7.1-1.7,7.5-9.1c0.4-4.8,0.6-9.5,1-14.3
		c0-0.6,0-1.5,0.2-1.9c0.6-0.6,1.5-1.5,2.3-1.7c0.6-0.2,1.7,0.6,1.9,1.2c0.4,1,0.6,2.3,0.6,3.3c0,3.5-0.4,6.8-0.6,10.4
		C210.7,209.4,210.5,212.1,210.3,215.6z"/>
	<path class="st2" d="M279.4,261.9c-2.7-11.2-0.2-21.4,0.6-31.5c-5.4,6.6-6.2,16.2-13.3,21.6c-5.2-1.7-4.6-7.3-8.1-11
		c-0.2,2.3-0.6,3.9-0.6,5.4c-0.2,3.9,0,7.9-0.2,11.8c0,1.2-0.2,2.7-0.6,3.9c-0.2,0.8-1.5,1.7-2.1,1.7c-0.6,0-1.7-1-2.1-1.7
		c-0.4-0.8-0.4-1.9-0.4-2.9c0.4-11,0.6-21.8,1-32.8c0-1.7-0.2-3.9,2.1-3.7c1.5,0,3.5,1.5,4.4,2.7c1,1.7,1.2,4.1,1.9,6
		c1.2,4.1,2.5,8.5,3.9,13.7c1.5-1.5,2.3-2.1,2.9-3.1c1.9-3.5,3.3-7.3,5.2-10.8c1.7-3.1,3.3-6,5.4-8.9c0.6-0.8,2.5-1.5,3.3-1.2
		c1,0.2,2.1,1.9,2.1,2.9c0.2,2.7,0.2,5.4,0,7.9c-0.6,8.1-1.2,16.2-1.9,24.3c0,1,0,2.1-0.4,2.9C282.1,260,281.1,260.6,279.4,261.9z"
		/>
	<path class="st2" d="M140.8,249.2c-11,2.9-9.5,1.7-10.8,12.2c-0.4,3.1,0,6.2-0.2,9.3c-0.2,2.1-0.2,4.4-2.3,5.6
		c-2.9-0.8-2.7-3.1-2.7-5.2c0.4-6.8,0.8-13.9,1.2-20.7c0.8-10.4,3.5-20.5,6.4-30.5c0.2-0.8,0.4-1.7,0.8-2.3c1.2-2.7,3.5-3.3,6-1.7
		c2.5,1.9,4.1,4.4,4.4,7.5c0.8,7.5,1.9,15.1,2.7,22.6c0.4,4.4,0.8,8.9,1,13.3c0.2,1.9,0.4,4.6-2.1,4.8c-2.7,0.2-2.9-2.3-3.1-4.1
		C141.7,256.5,141.2,252.9,140.8,249.2z M131.5,246.7c2.1-0.6,3.3-0.6,4.6-1.2c4.1-1.7,4.6-2.3,4.1-6.6c-0.2-3.5-0.4-6.8-0.8-10.4
		c-0.2-1.9-0.8-3.7-1.5-5.4c-0.4,0-0.8,0-1.2,0C134.4,230.5,132.7,238.2,131.5,246.7z"/>
	<path class="st2" d="M108.1,279.1c1-1.5,2.5-2.9,3.3-4.6c1-2.3,1.7-4.8,2.7-6.8c0.4-0.8,1.7-1.2,2.5-1.7c0.4,0.8,1.5,1.7,1.2,2.3
		c-0.4,5.4-2.3,10.4-6.2,14.1c-2.1,1.9-4.4,2.1-6.8,0.6c-3.1-1.7-5-4.4-5.8-7.7c-2.9-13.7-2.3-27,2.1-40.2c0.6-1.9,1.7-3.7,2.7-5.2
		c4.1-5.4,11-4.4,13.1,2.1c1,2.9,0.6,6.4,0.4,9.7c0,0.6-1.7,1.9-2.3,1.9c-0.8,0-1.9-1.2-2.1-2.1c-0.4-1.9,0.2-3.9-0.2-6
		c-0.2-1.2-1.2-2.9-2.3-3.3c-1.7-0.8-2.7,0.8-3.1,2.3c-1.7,6-3.7,12-4.4,18.3c-0.6,6.4,0.2,12.9,0.6,19.3c0.2,2.3,1.7,4.6,2.5,6.6
		C107,279.1,107.4,279.1,108.1,279.1z"/>
	<path class="st2" d="M350.1,210c0,1.2,0.2,2.5-0.2,3.5c-1,2.9-2.3,5.8-3.7,8.7c-5.2,9.5-11,18.5-19.3,25.7c1.9,4.4,4.8,6.2,9.3,5.2
		c0.6,3.1,0,4.8-2.7,5c-1.7,0-3.5-0.6-5.2-1.5c-1.7-0.8-3.3-2.1-5.4-3.5c-0.4,2.5-0.6,3.9-1,5.6c-0.2,1.5-0.6,3.3-2.5,2.9
		c-1.9-0.2-1.9-2.1-1.9-3.5c0-0.4,0-0.6,0-1c0.6-8.9,1.2-17.8,1.9-26.8c0.2-1.7-0.2-4.4,2.3-4.1c2.7,0,1.9,2.7,1.9,4.4
		c0,2.9-0.4,6-0.6,8.9c0,1.2,0,2.5,0,3.9c2.9,0.2,4.1-1.9,5.4-3.3c6.6-7.7,11.6-16.6,16.4-25.3c1-1.9,2.3-3.5,3.5-5.2
		C349.1,209.6,349.7,209.8,350.1,210z"/>
	<path class="st1" d="M33.2,361.6c-1,0.4-2.3,1-3.3,1c-2.1,0.2-3.3,0.8-3.5,3.1c-0.6,10.8-1.5,21.4-2.3,32.2c0,0.6,0.2,1.2,0.6,2.3
		c2.3,0,4.4,0,6.8,0c-3.3,4.4-11.6,6.2-16.4,3.5c2.5-2.5,1.9-5.6,1.5-8.7c-0.8-8.5,0.6-16.8,2.1-25.1c0.2-1.7,0.6-3.3,1-5.2
		c-2.3-0.4-4.1-0.8-6-1.5c-0.4-2.7,1.2-3.1,2.9-3.3c5.6-0.6,11-3.3,16.6-0.2C33,360.4,33,361,33.2,361.6z"/>
	<path class="st2" d="M424.2,231c-1.2,7.7-2.3,15.1-1,22.8c3.3-5.2,3.9-12.2,10.2-14.9c0.4,0.2,0.8,0.4,1.2,0.6
		c-0.4,1.5-0.4,2.9-1,4.4c-1.7,3.7-3.5,7.5-5.2,11.2c-0.6,1.5-1.5,3.1-2.5,4.4c-2.1,2.5-5,2.5-6.6-0.2c-1-1.7-1.7-3.9-1.7-6
		c0-4.4,0.4-8.5,0.6-12.9c0.2-2.5,0.4-5,0.4-7.3c-1.9-0.8-3.5-1.5-6-2.5c1.2-1.2,2.1-2.5,2.9-2.7c3.5-0.6,4.4-3.1,4.6-6.2
		c0.2-3.3,0.6-6.4,1-9.7c2.7-0.4,3.3,0.8,3.5,2.7c0.2,1.9,0,3.7,0.2,5.4c0,1.9,0.2,3.5,0.2,5.6c2.5,0.2,4.4,0.2,6.2,0.6
		c1.5,0.2,3.3,0.8,2.9,2.7c-0.2,0.8-1.9,1.7-2.9,1.9C429.1,230.8,426.9,230.8,424.2,231z"/>
	<path class="st2" d="M75.3,282.8c1.5,0,2.9-0.2,4.4,0c0.8,0.2,2.1,1.2,2.3,2.1c0.2,0.6-0.4,2.1-1,2.5c-3.9,1.7-8.1,3.1-12.2,4.1
		c-1.9,0.4-3.3-2.5-1.9-3.7c2.5-2.3,2.1-5,2.1-7.9c0-7.7,0-15.1-0.2-22.8c0-2.7-0.4-5.2-0.6-8.1c-1.9,0.2-3.1,0.4-4.4,0.2
		c-0.8-0.2-1.9-1-2.1-1.7c-0.2-0.6,0.6-1.9,1.2-2.5c0.6-0.6,1.5-0.8,2.3-1c3.5-1.5,7.1-2.9,10.8-3.9c1-0.4,2.9,0,3.5,0.8
		c1.2,1.5,0.2,2.9-1,3.7c-1.2,1-2.7,1.9-3.9,2.7C73,262.9,73.4,278,75.3,282.8z"/>
	<path class="st2" d="M311.1,246.3c-1.9,2.7-1.2,6.4-1.2,10.4c0,1.7,0.6,4.1-1.9,4.4s-2.5-2.3-2.7-3.9c-0.2-2.1-0.4-4.4-0.4-6.4
		c-5.2-2.7-6.8-2.3-8.7,2.7c-0.6,1.5-1.2,3.1-2.1,4.6c-0.4,0.6-1.5,1-2.1,0.8c-0.6-0.2-1.2-1.2-1.2-1.9c-0.2-1,0.2-1.9,0.4-2.9
		c2.1-6.4,4.1-12.9,6.6-19.3c0.8-2.3,2.7-4.6,4.6-6.2c2.1-2.1,4.6-1.5,5.6,1.2c1,2.7,1.2,5.8,1.9,8.7
		C310.1,240.7,310.5,243.2,311.1,246.3z M303.7,234.1c-2.7,3.1-3.7,6-4.1,9.7c1.5,0.2,2.9,0.2,4.4,0.4
		C305.1,240.9,305.3,238,303.7,234.1z"/>
	<path class="st2" d="M373.4,227.6c-5.4,3.7-12.2,0-18.5,2.5c0,5.8,0,11.8,0,18.3c1.9,0.2,3.7,0.2,5.8,0.4c1.5,0.2,3.7-0.6,3.9,1.7
		c0.2,2.7-2.3,2.5-3.9,2.7c-2.3,0.4-4.6,0.6-6.8,0.8c-0.4,0.8-0.8,1.7-0.8,2.5c-0.4,2.9,0.2,3.5,3.1,3.7c1.7,0,3.7-0.6,3.9,1.7
		c0.2,2.5-2.3,2.5-3.9,2.7c-9.3,0.6-8.9-0.2-7.9-7.9c1-7.9,1.5-15.8,1.9-23.6c0.4-6.4,1.2-7.5,7.7-7.7c3.7-0.2,7.3-0.4,11-0.4
		c1.7,0,3.3,0.6,5,1C373.6,226.4,373.4,227,373.4,227.6z"/>
	<path class="st2" d="M396.2,217.1c4.4-1.7,8.7-1,12.9-1c1,2.3,0.4,3.7-1.7,4.1c-2.3,0.4-2.7,2.1-3.1,3.9c-1.9,7.7-2.9,15.3-2.5,23
		c0.4,0.4,0.6,0.6,0.8,0.8c1.5,1,3.9,1,3.7,3.5c-0.4,2.5-2.9,2.5-4.8,2.7c-2.7,0.6-5.4,1-8.3-1.2c4.6-4.1,3.1-9.5,3.9-14.5
		c0.6-3.3,0.8-6.6,1.2-10C398.9,223.7,398.9,223.7,396.2,217.1z"/>
	<path class="st1" d="M41.1,365.6c0.2-1.7,0.4-3.3,0.8-5c1.2-5,2.7-10.2,4.4-15.1c0.4-1,1.5-2.3,2.5-2.5c1,0,2.3,1,3.1,1.9
		c0.4,0.4,0.4,1.2,0.4,1.9c-0.2,6.2-2.3,12-6.2,16.8c-0.8,1-2.5,1.7-3.7,2.7C41.7,366,41.5,365.8,41.1,365.6z"/>
	<path class="st2" d="M192.1,202.1c0.8-3.7,1.7-7.3,2.5-10.6c0.4-1.5,2.3-1.7,3.1-0.2c1.7,2.9,0.2,5.4-0.6,8.1
		C196.6,201.3,195.6,203,192.1,202.1z"/>
</g>
</svg>
