<?xml version="1.0" encoding="utf-8"?>
<!-- Generator: Adobe Illustrator 26.3.1, SVG Export Plug-In . SVG Version: 6.00 Build 0)  -->
<svg version="1.1" id="Layer_1" xmlns="http://www.w3.org/2000/svg" xmlns:xlink="http://www.w3.org/1999/xlink" x="0px" y="0px"
	 width="507.1px" height="507.1px" viewBox="0 0 507.1 507.1" style="enable-background:new 0 0 507.1 507.1;" xml:space="preserve"
	>
<g>
	<path d="M396.2,86c-23.8,0-49.9-26.1-49.9-49.9V34H161v2.1c0,21.9-28,49.9-49.9,49.9H109v338.2h2.1c22,0,49.9,30.9,49.9,49.9v2.1
		h185.2v-2.1c0-21.9,28-49.9,49.9-49.9h2.1V86H396.2z M393.9,131.1c-0.2,3.3-0.5,6.6-1.3,9.9c0,0.2,0,0.3,0,0.5
		c-0.2,0.6-0.4,1.1-0.5,1.7c-0.7,3.3-2.9,5.4-5.2,7.7l-0.2,0.2c-7.5-7.8-16.9-9.6-28.7-5.5c-0.1-0.4-0.2-0.8-0.3-1.2
		c-0.3-1.2-0.5-2.4-0.7-3.6l-0.1-0.7c-0.2-1.4-0.5-2.8-0.5-4.2c0-2.8-0.2-5.5-1.3-8c-0.3-0.7-0.2-1.3,0.4-2c1-1.2,2-2.4,3-3.7
		c0.5-0.6,0.9-1.2,1.4-1.7c2-2.5,2.5-5.3,1.3-8.7c-0.6-1.8-0.8-3.8-1-5.8l-0.1-0.9c-0.1-1.3-0.2-2.7-0.2-3.9c0-0.5,0-1,0-1.5
		l1.2-1.1c1.1-1,2.3-2.1,3.5-3.1l0.4-0.4c0.8-0.7,1.7-1.5,2.6-2.1c1.3-0.9,3.1-1.1,4.8-0.7c1.8,0.4,3.3,1.6,4.1,3
		c1,1.9,1.6,3.9,1.7,5.9c0.1,3.3,1.4,5.4,4.1,6.5c1,0.4,1.4,1.2,1.3,2.5c-0.1,1.3,0,2.4,0.2,3.3c0.5,2.1,2.4,3.8,4.5,3.8
		c2,0,3.4,0.4,4.6,1.3c0.3,0.2,0.7,0.4,1.1,0.4C394.1,123.1,394.1,127.1,393.9,131.1z M251.2,419.5c0,2.4,0,4.9,0.4,7.4
		c0.7,4.3,2.1,7.7,4.3,10.4c0.2,0.2,0.4,0.5,0.7,0.7h-8.5c0.1-0.1,0.2-0.3,0.2-0.5c0.1-0.6-0.1-1.2-0.6-2c-1.6-2.3-2.3-5-2.1-7.9
		c0.3-4.7,0.7-8.9,1.2-12.7c0.4-2.8,1.5-4.5,3.8-5.7c36.1-18.5,72.8-37.5,108.3-55.8l8.5-4.4c2.6-1.3,5.2-2.7,7.7-4.1
		c1.7-0.9,3.3-1.8,5-2.7c0.1-0.1,0.4-0.1,0.6,0c1.9,0.9,3.7,1.8,5.7,2.8l1.1,0.6l-0.2,0.1c-0.5,0.3-0.8,0.5-1.2,0.6l-14.8,7.6
		c-38.6,20-78.6,40.6-117.9,60.9c-1.5,0.8-2.2,1.8-2.2,3.2C251.2,418.5,251.2,419,251.2,419.5z M385.9,340.2
		c-1.7-0.7-3.3-1.3-4.8-2.3c-1.7-1.2-2.9-3.2-3.5-4.3c-2.6-5.2-5.3-10.8-7.7-16.5c-2-4.8-2.8-10.1-2.5-16.7c0.1-2.2,0.1-4.4,0-6.5
		c0-0.8,0-1.5,0-2.3c0.5,1,1,1.9,1.5,2.9c1.3,2.5,2.6,5.1,4,7.6c1.9,3.3,3.8,6.6,5.7,9.9c1.1,1.8,2.1,3.6,3.2,5.4
		c0.3,0.4,0.5,1,0.6,1.5c0.5,2.4,1,4.7,1.4,7.1c0.8,4,1.6,7.9,2.4,11.9c0.2,0.8,0.5,1.7,0.9,2.4c0,0.1,0.1,0.2,0.1,0.3
		C386.9,340.6,386.4,340.4,385.9,340.2z M367.3,321.4c1.2,2.7,2.5,5.4,3.7,8c0.6,1.2,1.2,2.4,1.7,3.6c0.1,0.2,0.2,0.4,0.3,0.6
		l-0.1-0.1c-4.5-2.6-8.8-5.1-12.6-8.4c-3.8-3.3-6-7.6-7.3-14.2c-1.3-6.9-1.1-14.1,0.7-22.8c0.8-3.9,1.3-7.8,1.8-11.6
		c0.2-1.4,0.4-2.8,0.6-4.2c0.3,0.5,0.7,1,1,1.6c0.9,1.5,1.8,3,2.9,4.4c2.4,3.3,3.6,7.3,3.7,12.4c0,3-0.1,6-0.2,8.9l-0.1,1.4
		C363.3,308.3,364.5,315.1,367.3,321.4z M380.2,306.8c-0.1-0.1-0.4-0.5-0.5-0.7l-0.4-0.6c-1.4-2.5-2.8-5.1-4.1-7.6
		c-2.7-5.2-5.5-10.3-8.2-15.6l-2.7-5.2c0.2,0.1,0.3,0.1,0.5,0.2c1,0.4,1.9,0.7,2.7,1.1c1.9,0.9,3.7,1.9,5.5,2.9l0.1,0.1
		c0.3,0.2,0.5,0.4,0.6,0.7c1.4,5.6,4.1,10.8,6.7,15.8c0.6,1.1,1.1,2.2,1.7,3.3c0.7,1.3,1.4,2.6,2.1,4l0.8,1.6l-0.8,0
		C382.7,306.7,381.4,306.8,380.2,306.8z M370.1,275.3c-2.3-1-4.4-1.9-6.7-2.5c-2.3-0.6-3.4-1.9-4.4-3.8c-1.9-3.5-4-7-5.9-10.4
		c-0.9-1.6-1.8-3.2-2.7-4.7c0,0,0-0.1-0.1-0.1c6.8,0.5,12.5,2.2,17.2,5.5c1.4,0.9,2,1.9,2.3,3.3c0.5,3,1.1,6,1.7,8.9
		c0.3,1.4,0.5,2.7,0.8,4.1c0.1,0.3,0.1,0.6,0.1,0.9C371.6,276,370.8,275.7,370.1,275.3z M155.5,196c-0.6-3-1.2-6.1-1.3-9.2
		c-0.2-5.4,0-11.1,3.5-16.1c0.8-1.1,2-2.3,3.5-3.3c4.8-3.2,10.4-3.8,15.3-3.8c0.2,0,0.5,0,0.7,0c1.3,0,2.7-0.1,3.9-0.2
		c0.7-0.1,1.3-0.1,2-0.2c0.6,0,1.3-0.1,1.9,0c1.2,0.1,2,0.5,2.4,1.9c1.4,5,4.7,8.8,7.7,11.9c2.7,2.8,5.5,5.8,7.4,9.5
		c0.7,1.5,1.6,2.8,2.6,4.1c1.9,2.5,3.8,4.8,5.7,7c0.7,0.8,1.7,1.6,2.8,2.2c5.9,3.4,12.1,5.4,18.6,6c2,0.2,4,0.4,6,0.6
		c2.7,0.3,5.4,0.5,8,0.8c0.5,0.1,1.1,0.2,1.6,0.3c0.2,0,0.3,0.1,0.5,0.1c-0.9,5.4-1.3,11.2,0.8,16.9c0.4,1.2,0.8,2.4,1.1,3.5
		c0.7,2.4,1.4,4.9,2.9,7.1c0,0.1,0.1,0.3,0,0.5c-0.3,0.8-0.7,1.6-1.1,2.4c-0.2,0.4-0.4,0.8-0.6,1.3c-0.9,2.1-2.7,3.1-4.5,4.2
		c-0.4,0.3-0.9,0.5-1.3,0.8c-1.4,0.9-3,1.7-5,2.4c-4.3,1.5-7.7,4.3-10.2,6.5c-0.5,0.4-1,0.9-1.5,1.3c-0.9,0.8-1.8,1.6-2.8,2.4
		c-4.1,3.4-9.2,5.1-14.9,4.8c-0.7,0-1.4-0.2-2.2-0.5c-7.6-2.9-16.4-6.8-23.3-13.9c-2.2-2.3-3.8-4.8-4.8-7.6
		c-4.2-11.9-10.8-20.2-19.9-25.3c-2-1.1-4.4-3.3-4.2-6.8C157,203.6,156.2,199.7,155.5,196z M152.6,143.6l-8-1.7
		c-1.8-2.9-6.8-6.8-11-9.8c2.7-0.1,5.5-0.2,8.3,0.1C145.4,135.5,149.9,140.2,152.6,143.6z M148,133.2c2.8,0.8,5.8,1.8,9.6,3
		c1.9,2.3,5.8,7.3,8.4,11.1c-2.5-1-5.2-1.9-8.3-2.6C155.9,141.6,151.2,136.5,148,133.2z M138.8,140.6c-2.6-0.6-5.2-1.1-7.8-1.6
		c-1.9-0.4-3.9-0.7-5.9-0.9c-1.6-0.2-3.3-0.4-4.9-0.7c-0.9-0.2-1.7-0.5-2.6-0.9c-0.3-0.1-0.6-0.3-0.9-0.4l0,0
		c2.8-0.1,5.3-1.2,8.1-2.7c0.8-0.4,1.9-0.8,3.2-0.9C131.2,134.6,135.8,137.9,138.8,140.6z M130.9,143.1c3,0.6,6.1,1.3,9,1.9
		c0.8,0.2,1.6,0.3,2.4,0.5c-2.5,1.3-6.2,3.1-8.2,3.6c-0.1,0-0.3,0.1-0.4,0.2c-3-0.7-6.3-1.5-10.2-2.2c3.5-1.7,6.8-3.6,7.2-3.8
		C130.8,143.2,130.9,143.1,130.9,143.1z M147.7,146.6l0.7,0.1c0.7,0.1,1.3,0.3,2,0.4c3.5,0.6,7.1,1.6,10.6,2.8c-2.1,1.2-6,3.2-8.6,4
		c-3.8-0.7-7.8-1.7-12.8-3.1C143,149.3,146.5,147.3,147.7,146.6z M165.3,151.6C165.3,151.6,165.3,151.6,165.3,151.6
		c2.9,1.1,5.7,2.4,8.5,3.9c0.1,0.1,0.2,0.1,0.3,0.2c-0.1,0-0.2,0-0.4,0c-0.7,0-1.4-0.1-2.2-0.2c-1.5-0.1-3.1-0.3-4.7-0.2
		c-2.5,0.1-5-0.1-7.8-0.3C162.2,153.4,165,151.8,165.3,151.6z M171.9,150.3c-0.1,0-0.2-0.1-0.2-0.1l-0.1,0c-1-2.7-4.6-7.6-7.7-11.7
		c0.8,0.4,1.6,1,2.3,1.5c0.2,0.2,0.5,0.3,0.7,0.5c1.9,1.4,3.9,2.8,5.8,4.2l0.5,0.4c0.2,0.1,0.6,0.5,0.7,0.8c0.6,1.8,1.2,3.6,1.7,5.4
		l0.3,1c-0.2-0.1-0.4-0.2-0.6-0.3C174.2,151.5,173,151,171.9,150.3z M173.2,131.1c-3.3-4.8-3-10.6,0.6-14.5c0,0.7,0,1.4,0,2
		c0,1.8-0.1,3.6,0.1,5.3c0.4,5.1,2.9,9.3,7.2,12.1c3.2,2,4.6,4.7,4.6,8.5c0,1.9,0.2,3.8,0.6,6.2c0.4,2.4,1,4.8,3.3,6.4
		c0,0,0,0-0.1,0c-0.5,0.2-1,0.4-1.4,0.5c-0.5,0.1-0.9,0.1-1.1,0c-4.3-3-8.7-6.9-9.1-13.4C177.5,139.5,176,135.2,173.2,131.1z
		 M357.4,113.2c0.8,1.8,0.6,3.3-0.6,4.8c-1,1.2-1.9,2.4-2.8,3.5c-0.3,0.4-0.6,0.8-0.9,1.2c-0.6-0.6-1.1-1.2-1.7-1.8
		c-1.6-1.7-3-3.3-4.5-5c-0.8-0.9-1.5-2.1-2-3.6c-1.9-4.8-5.1-7.8-9.6-8.9c-2-0.5-3.5-1.6-4.7-3.3c-3.1-4.4-7.6-7-13.7-8
		c-1-0.2-1.6-0.6-2.3-1.5c-2.3-3-5.2-6.2-9.8-7.7l1.7-0.9c1.7-0.9,3.3-1.7,4.9-2.6c2.4-1.3,5.1-1.6,7.7-1.8c0.6-0.1,1.3-0.1,1.9-0.2
		c4.8-0.6,8.8-0.4,12.5,0.7c2.4,0.7,4.1,2.1,5.2,4.2c1.5,3,3.6,5,6.5,5.9c5.4,1.8,7.9,6.2,10.1,10.6c0.9,1.8,1.3,3.8,1.1,6.3
		C355.9,108,356.3,110.7,357.4,113.2z M351.1,153.7C351.1,153.7,351.1,153.7,351.1,153.7c-0.1-0.4,0-0.8,0.1-1.2
		c0-0.2,0.1-0.4,0.1-0.6c0.6-3.3,0.1-6-1.4-8.4c-1.8-2.8-3-6.2-3.7-10.2c-1-5.4-3.1-8.8-6.6-10.8c-2-1.1-2.5-2.6-3-4.5
		c-0.1-0.4-0.2-0.8-0.4-1.1c-0.1-0.2-0.1-0.4-0.2-0.6c-1-3.2-3.2-5-6.3-5.4c-3.1-0.4-6-1.6-8.6-3.4c-3.5-2.4-7.7-3.3-11.4-3.8
		c-2.7-0.4-4.9-1.2-6.8-2.5c-2.3-1.6-4.6-2.4-6.9-2.4c-0.9,0-1.9,0.1-2.8,0.4c-0.8,0.2-1.6,0.3-2.6,0.3c-0.1,0-0.2,0-0.2,0
		c0.6-0.5,1.2-0.9,1.8-1.1c2.9-1.3,5.5-1.9,8.1-1.8c1.8,0.1,3.6-0.1,5.4-0.3c1.1-0.1,2.3-0.3,3.4-0.3c5.7-0.3,12.3,0.2,17.3,5.5
		c0.3,0.3,0.6,0.6,0.8,1c1.6,2.5,3.9,4.2,6.8,4.9c3.5,0.9,5.8,3,7.1,6.7c0.9,2.5,2.4,4.7,4.6,6.7c4.6,4.2,6.8,9.2,6.7,15.3
		c0,2,0.3,4.1,0.8,6.1c1.2,4.2,0.8,8.5-1.2,13.6c-0.1,0.2-0.2,0.4-0.4,0.7c-0.1,0.2-0.3,0.4-0.4,0.6c-0.5-0.5-0.4-1.1-0.2-1.9
		C351.1,154.6,351.2,154.2,351.1,153.7z M329,172.4c-0.5-5-1.1-9.6-2.8-13.9c-0.7-1.8-0.7-3.5,0-5.3c1.3-3,1.2-6.1-0.4-9.1
		c-0.7-1.3-1-2.4-0.2-3.6c0.1,0.1,0.2,0.2,0.4,0.4c0.5,0.5,0.9,0.9,1.2,1.4c1.5,2.4,3.8,3.5,5.9,4.3c2.5,0.9,5.2,1.9,7.7,3.2
		c1.5,0.7,2.6,2.1,3.2,4.1c0.3,0.9,0.9,1.7,1.4,2.4l0.3,0.5c0.2,0.3,0.5,0.7,0.8,1c0.3,0.3,0.5,0.5,0.7,0.8c1.9,2.5,2,4.6,0.5,7
		c-2.6,4-4.6,8.5-6.5,12.7c-0.8,1.8-1.6,3.6-2.4,5.4c-0.7,1.6-1.6,3.1-2.4,4.6l-0.2,0.4c-1,1.8-2.6,3.2-5,4.3
		c-0.4,0.2-0.7,0.4-1.1,0.6c-0.1,0.1-0.2,0.1-0.3,0.2c-0.8-2-1.1-4.1-1-6.6c0-0.8,0.1-1.6,0.1-2.5
		C329.2,180.6,329.4,176.4,329,172.4z M320.5,210.2c1,3,0.9,6.2-0.3,10c-0.2,0.6-0.8,1.1-1.4,1.7c-0.2,0.2-0.5,0.4-0.7,0.6
		c-3.1,3.2-7.3,4.4-11,5.4c-5.7,1.6-11.9,2.4-19,2.4c-6.3,0-11.6-2.1-15.9-6.2c-2.4-2.3-3.8-4.9-4.4-7.8c0.1,0,0.3-0.1,0.4-0.1
		c0.5-0.2,1-0.3,1.5-0.5c2.8-0.8,6.5-2,9.5-4.7c0.9-0.8,1.9-1,3.3-0.8l0.7,0.1c1.6,0.3,3.4,0.6,5,0.8c4.7,0.5,9-0.8,12.6-3.9
		c2.3-2,4.5-2.5,7.3-1.7c3.6,1.1,6.8,0.3,9.4-2.3c1.2-1.2,2.5-1.8,4-1.8c-0.1,0.1-0.1,0.2-0.2,0.3
		C319.8,204.4,319.5,207.3,320.5,210.2z M308.7,144.4c-0.1-1.9-1.1-3.4-3.1-4.7c-1-0.6-1.1-1.3-1-2.6c0.2-2.5-0.1-5.1-0.4-7.5
		c-0.2-1.6-0.6-3.2-1.1-4.8l-0.3-1c-0.5-1.8-0.9-3.1-1.3-4.4c-0.2-0.6-0.2-0.9,0.3-1.2c0.5-0.3,1-0.7,1.4-1.1
		c0.3-0.2,0.5-0.4,0.8-0.6c1.1-0.9,3-0.7,3.9,0.4c1.3,1.6,1.7,3.5,1.2,5.5c-0.2,0.6-0.4,1.2-0.7,1.8l-0.2,0.6
		c-1.3,3.3-1.2,6.4,0.4,9.2c0.8,1.5,1.3,3.2,1.6,4.8c1,4.5,4.2,7,7.2,8.9c1.3,0.8,2.5,1.9,3.7,2.9c0.3,0.3,0.6,0.6,1,0.8
		c0.2,0.2,0.4,0.6,0.3,0.9c-0.2,1.6-0.4,3.2-0.6,4.8l-0.1,1c-3.7-2.5-7.9-3.1-11.7-3.1c-0.8,0-1.6,0-2.3,0.1
		c0.1-0.4,0.2-0.8,0.3-1.1c0.3-1.2,0.6-2.4,0.8-3.6C308.9,148.3,308.8,146.2,308.7,144.4z M274.6,159.5c-0.1-0.1-0.1-0.3-0.2-0.4
		c-0.2-0.4-0.3-0.8-0.6-1.2c-2.5-3.5-3.5-7.6-4.5-11.6c-0.3-1.1-0.5-2.1-0.8-3.2c-1.9-6.8-5.8-11.5-11.7-13.8c-1-0.4-2-0.6-3.1-0.7
		c-0.4-0.1-0.8-0.1-1.2-0.2c0.2-0.6,0.4-1.1,0.5-1.7c0.8-2.6,1.5-5,3.8-6.6c1.1-0.8,2.2-1.3,3.3-1.6c2.4-0.7,4.2-1.6,5.8-2.9
		c1.9-1.6,4.2-1.7,6.6-1.8l0.5,0c4.2-0.2,5.6,2.6,7.1,5.7l0.4,0.8c0.3,0.5,0.5,1.1,0.7,1.6c0.8,1.7,1.5,3.5,3.3,4.7l0.5,0.3
		c0.8,0.6,1.6,1.2,2.6,1.5c3.3,1.1,5.6,3.4,7.1,7.4c0.9,2.4,2.4,4.1,4.3,5.2c0.4,0.2,0.9,0.3,1.3,0.4c0.2,0.1,0.5,0.1,0.7,0.2
		l0.3,0.1c0.4,0.1,0.8,0.2,1.1,0.4c3.2,1.9,2.8,4.8,2.3,7.9l-0.1,0.6c-0.4,2.6-1.7,5-4,7.5c-2.5,2.8-5.8,5.8-10.4,6.8l-0.3,0.1
		c-0.8,0.2-1.7,0.3-2.5,0.4c-3.7,0.1-8,0.4-12.1,2.1C275.8,164.4,275.5,161.9,274.6,159.5z M311.9,126.3c0.3-0.8,0.6-1.5,0.9-2.3
		c0.3-0.8,0.6-1.6,0.9-2.5c0.1-0.3,0.3-0.5,0.5-0.6c0.3-0.1,0.7,0.1,1,0.3c2.3,1.5,4.8,2.2,7.6,2c2.4-0.2,2.8,0,3.8,1.1
		c-1.4,1.5-2.8,2.9-5,2.6c-0.5-0.1-1.2,0.1-1.7,0.5c-2.9,2-5.6,4.4-5.7,8.7c0,0.5,0,0.9-0.1,1.4c-0.1-1.7-0.7-3.4-1.9-5.3
		C311.1,130.4,311,128.6,311.9,126.3z M316,142L316,142c0.7-0.3,1.4-0.7,2-1.1c1.2-0.8,2.3-1.5,3.9-1.5c-1.2,2.6-0.2,4.9,0.7,7.1
		l0,0.1L316,142z M322.4,135.6c-1.3,0-2.8,0.2-4.3,0.7c-0.1-1.3,0.5-2.7,1.4-3.8c1-1.2,2.3-1.8,3.5-1.8h0c1.6,0,3.1-0.6,4.6-1.9
		l0.4-0.3c1.2-1.1,2.5-2.2,3.9-3.1c1.8-1.2,3.7-1,5.6,0.4c2.4,1.8,3.8,4,4.3,6.7c1.1,5.7,2.7,10.1,5.1,14c0.8,1.3,0.7,2.8,0.4,4.3
		c-1.8-3.2-4.8-5.4-9.2-6.9c-1-0.3-2.1-0.7-3.2-1c-2.1-0.6-3.6-1.6-4.9-3.2C328.1,137,325.5,135.6,322.4,135.6z M332.5,120.8
		c-0.7,0.3-1.5,0.6-2.3,0.9c-0.1,0-0.4-0.1-0.6-0.2c-1.5-1.5-3.3-2.2-5.2-2.2c-0.3,0-0.6,0-0.9,0c-2.5,0.3-4.7-0.3-7-1.7
		c-0.7-0.4-1.7-0.5-2.7-0.6c-0.4,0-0.8,0-1.2-0.1c-1.3-3.6-3.8-5.3-7.6-5.2c0.8-1.8,0.6-3.4-0.7-4.6c-1.1-1-2.3-1.9-3.4-2.5
		c-0.8-0.5-1.6-0.9-2.3-1.4c-0.4-0.2-0.9-0.5-1.3-0.8c1,0.2,2,0.6,2.9,1.3c2.8,2,5.7,3.2,9,3.7c4.5,0.7,8.4,2.1,11.8,4.5
		c1.7,1.2,3.9,1.8,6,2.3c4.6,1,5.3,1.8,6.1,6.3L332.5,120.8z M300.4,109.3c0.4,0.2,0.9,0.6,0.9,0.8c0,0.2-0.5,0.8-0.7,1
		c-0.6,0.7-1.3,1.3-2.1,2c-2.2,2-2.6,3.5-1.4,6.2c1.4,3.2,2.1,6.7,2.7,10.1c0.3,1.4,0.6,2.8,0.9,4.2c0.2,0.8,0.1,1.6,0,2.5
		c0,0.3-0.1,0.7-0.1,1l-0.3,0.1c-0.1-0.2-0.3-0.4-0.4-0.6c-0.4-0.6-0.9-1.2-1.2-1.8c-0.3-0.6-0.6-1.2-0.9-1.9
		c-0.4-0.8-0.8-1.6-1.2-2.3c-1.7-2.7-3.6-4.4-6-5.2c-3.2-1.1-5.1-3.1-6.1-6.3c-0.9-3-2.8-5.5-6-8c-0.1-0.1-0.2-0.2-0.4-0.2
		c-0.1-0.1-0.2-0.1-0.3-0.2c-0.2-0.2-0.5-0.3-0.8-0.3c-0.6-0.2-0.7-0.2-0.6-0.7c0.1-0.4,0.1-0.8,0.2-1.2c0.2-1.3,0.3-2.6,1.6-3
		c2.6-0.9,5.5-1.7,8.5-1.7c2.3,0,4.7,0.5,7,1.9c1.1,0.7,2.2,1.3,3.3,1.9C298.1,107.9,299.3,108.6,300.4,109.3z M285.1,98.5
		c-1.3,1.3-2.7,1.6-4.3,1.8c-0.5,0.1-0.9,0.2-1.4,0.3c-4.5,1.1-6,2.7-6.6,7c-0.2,1.5-0.7,2-2,2.1c-3.6,0.3-6.4,1.5-8.7,3.7
		c-0.4,0.4-1,0.6-1.6,0.8c-0.2,0.1-0.4,0.1-0.6,0.2l0-0.1c-0.1-0.2-0.1-0.4-0.1-0.6c-0.1-0.6-0.2-1.2-0.2-1.8
		c-0.2-1.3-0.3-2.7-0.7-4c-0.3-1.2-0.1-2.1,0.9-2.9c0.5-0.5,1.1-0.9,1.7-1.3c0.4-0.3,0.8-0.6,1.2-0.9c0.6-0.5,1.3-1,2-1.5
		c1.6-1.2,3.2-2.5,4.6-4c2.2-2.2,4.8-3.6,8.2-4.1c2.9-0.5,5.8-0.7,8.7-1l0.2,0c0.2,0,0.3,0,0.5,0c1.8,0,3.2,0.9,4.8,1.9l0.1,0.1
		c-0.6,0.4-1.2,0.7-1.8,1C288.1,96.2,286.4,97.1,285.1,98.5z M261.8,92.8c-0.4,0.5-0.8,1-1.2,1.5c-1.3,1.6-2.6,3.2-3.9,4.7
		c-2.1,2.3-2.7,5-2,8.6c0.5,2.5,0.8,5.1,1.2,7.8c0,0.3-0.1,0.7-0.3,0.8c-2.9,1.9-4.8,4.7-5.9,8.6c-0.2,0.7-0.4,1.4-0.7,2.2
		c-0.1,0.3-0.2,0.5-0.3,0.8c-0.2-0.2-0.3-0.4-0.5-0.6c-0.6-0.7-1.1-1.3-1.4-2c-1.4-2.5-3.2-5-6.5-5.8c-2.5-0.6-2.6-0.7-2.6-3.5
		c-0.2-10.3,4.5-17.8,14.3-22.9c2.4-1.3,5.2-2.7,8.3-2.9c0.1,0,0.3,0,0.4,0c0.6,0,1.3,0.1,1.9,0.1c0.3,0,0.5,0.1,0.8,0.1l0,0.2
		c-0.2,0.2-0.3,0.5-0.5,0.7C262.7,91.7,262.3,92.3,261.8,92.8z M238.1,123.2L238.1,123.2c1.4-0.2,2.7,0.3,3.7,1.5
		c0.6,0.7,1.1,1.5,1.5,2.2c1.5,3.2,4,5,7.7,5.4l0.5,0.1c0.7,0.1,1.3,0.1,2,0.2c2.7,0.4,4.8,1.4,6.4,3.3c3,3.3,4.7,6.4,5.3,10.1
		c0.5,2.6,1.3,5.1,2.1,7.6c0.2,0.6,0.4,1.3,0.6,1.9c0.3,1,0.9,2.1,1.6,3.2c2.4,3.5,2.6,7.1,0.6,11.3c-2.8-2.1-6-2.1-9.2-2.2
		c-0.5,0-0.9,0-1.4,0c-3.4-0.1-6.3-0.9-8.9-2.5c-4.7-2.7-8.8-4.1-13-4.4c-0.4,0-0.9,0-1.3,0c-2.3,0-4.8,0.4-7.7,1.1
		c-1.4,0.4-3,0.8-4.7,1.1c-0.3,0.1-0.9-0.1-1.1-0.3c-2.1-2.2-4.4-4.7-6.1-7.6c-1-1.8-2.3-3.5-3.4-5.2c-0.8-1.2-1.7-2.4-2.5-3.6
		c-2.1-3.3-4.1-6.9-4.4-11c-0.2-2.5,0-5,0.5-7.3c0.9-4,2.8-7.6,5.4-10.6c1.2-1.3,2.8-2.3,4.4-3.2c1-0.6,2-0.3,2.8,0.7
		c0.3,0.3,0.5,0.7,0.7,1c0.6,0.9,1.3,1.8,2,2.6c1.1,1.3,2.1,2.4,3.1,3.4c2,1.9,4.6,2.5,8.1,1.9c1-0.2,2-0.3,3-0.5
		C237.1,123.4,237.6,123.3,238.1,123.2z M223.5,167.5l0.5-0.1c0.9-0.2,1.8-0.5,2.8-0.7c2-0.5,4-1.1,6.1-1.5c4-0.8,8.1-0.2,12.2,1.7
		c0.9,0.4,1.7,0.9,2.6,1.3c1.8,1,3.7,2,5.8,2.6c2.4,0.7,5.2,1.1,8.6,1.1c0,0,0.1,0,0.1,0c5.3,0,7.5,2.4,9.4,6.5
		c0.7,1.6,1.2,3.4,1.6,5.1c0.2,0.6,0.3,1.2,0.5,1.9l0.5,1.8c1,3.5,2,7.1,2.9,10.7c0.5,1.9,0.6,3.8,0.8,5.7c0,0.4-0.3,1-0.7,1.3
		c-1.9,1.9-4.5,2.9-7.8,3c-0.5,0-1.1,0-1.6,0c-0.2,0-0.5,0-0.8,0c-3.7,0.4-7.2-0.7-10.4-2c-4.6-1.8-9.6-2.8-15.8-3.3
		c-4.3-0.3-8.8-0.9-13.7-1.7c-3.9-0.7-7.9-2.3-12.1-5c-1.5-1-2.7-2.7-3.8-4.2c-1.2-1.7-2.4-3.5-3.5-5.2c-1.3-2-2.7-4.1-4.2-6.1
		c-0.9-1.2-1.9-2.3-3-3.4c-0.7-0.8-1.5-1.6-2.2-2.4l-0.7-0.8c-1.9-2.3-3.8-4.6-5.5-7.1c-0.6-1-0.9-2.2-1.2-3.4
		c-0.1-0.5-0.3-1.1-0.4-1.6c-0.1-0.2-0.1-0.4,0-0.6c0.1-0.2,0.3-0.2,0.6-0.3c0.6,0,1.2-0.1,1.9-0.1c1-0.1,2.1-0.2,3.1-0.2
		c0.7,0,1.4,0,2.1,0.1c3.7,0.6,7.5,1.9,12,4.2c2,1,4.3,2,7,3C219.4,168.6,221.5,168,223.5,167.5z M314.5,200.7
		c-1.1,1.1-2.5,1.4-4.3,1.1c-1-0.2-1.9-0.4-2.8-0.6c-2.8-0.6-5.3-0.1-7.6,1.8c-1.2,1-2.7,1.9-4.6,3c-2.9,1.6-6,1.3-8.4,0.9
		c-1.2-0.2-2.4-0.4-3.6-0.6l-1.4-0.3c0.4-6.1-1.4-11.7-3.2-17.2l-0.1-0.2c-0.4-1.2-0.7-2.5-0.9-3.7c-0.7-4.3-2-7.9-3.9-10.9
		c1.3-1.5,2.5-2.8,4.4-3.2c0.6-0.1,1.3-0.3,1.9-0.4c1.8-0.4,3.6-0.7,5.3-0.8c4.1-0.2,9.4-0.9,13.8-4.4c1.3-1,2.6-2.2,3.8-3.6
		c1.6-1.8,3.8-2.7,6.5-2.6c2.2,0.1,4.6,0.5,7.2,1.2c1.3,0.4,2.7,1.3,3.4,2.3c3.2,4.4,5,8.9,5.2,13.4c0.2,3.5-0.1,7.2-0.5,10.6
		c-0.3,2.9,0,5.7,1.1,8.5c0.3,0.8,0.1,1-0.3,1.2c-0.3,0.1-0.6,0.3-0.9,0.4c-0.9,0.4-1.7,0.8-2.6,0.9
		C319.1,197.6,316.6,198.7,314.5,200.7z M344.2,82.9c0,0.2,0,0.3,0,0.5c-0.2-0.2-0.3-0.4-0.5-0.6c-0.5-0.6-1-1.1-1.3-1.7
		c-1.8-4.1-5.3-6.5-10.8-7.5c-1.8-0.3-3.6-0.4-5.3-0.4c-3.2,0-6.3,0.4-9.4,0.8l-0.2,0c-3.9,0.5-7.3,2.1-10.1,3.7
		c-1.6,0.9-3.3,1.7-5,2.6l-1.5,0.8c-0.2,0.1-0.4,0.1-0.5,0.1c-1.4-0.4-2.4-2-2.2-3.5c0.1-0.5,0.1-1,0.2-1.5c0-0.4,0.1-0.9,0.1-1.3
		c0.4-3.2,3.2-6.1,6.5-6.7c0.5-0.1,0.9-0.2,1.4-0.2c1.7-0.3,3.4-0.5,5-1.2c2.4-1,4.7-2.7,6.4-4c5.1-3.9,10-4.3,16.1-1.4
		c1.3,0.6,2.4,2,3.3,3.2c1,1.3,1.9,2.8,2.8,4.1c1,1.5,2,3,3.1,4.4c1.9,2.5,2,5.4,2.1,8.1C344.3,81.8,344.2,82.4,344.2,82.9z
		 M302.5,86.6c3.1,0.7,5.3,2.5,7.7,5.1c-0.4,0-0.8,0.1-1.1,0.1c-1.3,0.2-2.5,0.3-3.6,0.4c-2.6,0.2-5.4,0.3-8.7,0.5
		c-0.2,0-0.6-0.1-1-0.4c-0.5-0.3-0.9-0.7-1.4-1c-0.4-0.3-0.8-0.6-1.3-0.9c-3.9-2.8-8.3-2.2-12.5-1.7l-0.7,0.1
		c-2.1,0.3-3.9,0.6-5.6,1.1c-3.1,0.8-5.5,2.3-7.6,4.5c-1.1,1.2-2.3,2.2-3.4,3.2c-0.1,0.1-0.2,0.2-0.3,0.3c0.1-0.1,0.2-0.3,0.3-0.4
		c1-1.2,2.1-2.5,3-3.9c1.2-1.7,1.6-3.2,1.2-4.4c-0.4-1.3-1.6-2.3-3.6-2.9c4.2-2.7,7.9-3.7,11.7-3.3c3.8,0.4,7.2,0,10.2-1.3
		c3.7-1.6,6.8-1.1,9.7,1.5C297.6,84.8,299.9,86,302.5,86.6z M296.5,68.4c-1.8,2.1-2.7,4.7-2.8,8.2c0,0.2,0,0.4-0.1,0.6c0,0,0,0,0,0
		c-2.3-0.9-4.7-0.9-7.4,0c-1.6,0.5-3.6,1.1-5.7,1.5c-0.9,0.2-1.8,0.2-2.7,0.2c-0.6,0-1.2,0-1.8,0.1c-0.4,0-0.9,0.1-1.3,0.1
		c-1.7,0.1-3.4,0.2-5,0.5c-1.2,0.2-2.1-0.2-2.4-1.2c-0.7-2.1-1.4-4.1-1.5-6.2c-0.2-5.4-1.9-10.5-5.2-15.5c-0.5-0.8-1-1.6-1.6-2.4
		l-0.6-0.8c1.6-0.6,3.3-1.3,4.9-2c4.1-1.6,7.9-3.2,11.9-4.5c4.8-1.6,9-0.7,12.5,2.7c4,3.9,6.7,8.6,8.5,14.5c0.3,0.9,0.3,1.8,0.4,2.8
		c0,0.3,0,0.7,0.1,1C296.7,68.1,296.6,68.3,296.5,68.4z M261.3,68.5c0.2,0.6,0.3,1.3,0.3,2c-0.1,3.9,0.7,7.5,2.6,11.2
		c-2.5,1.2-4,2.4-5,4.3c-0.1,0.2-0.6,0.3-1,0.4c-0.1,0-0.3,0.1-0.4,0.1c-10.6,3-17.6,8.6-21.6,17c-2.3,4.9-2.9,10.2-1.8,16.1
		c-2.1,1.2-4.9,1-6.5-0.6c-0.9-0.8-1.6-1.8-2.4-2.8c-0.3-0.4-0.6-0.8-0.9-1.1c-0.2-0.3-0.4-0.5-0.6-0.8c-0.1-0.1-0.2-0.3-0.3-0.4
		c-1.6-2.3-3.3-3.8-5.7-3.8c-1.5,0-3.2,0.6-5.4,1.8c-0.5,0.3-1,0.7-1.5,1.1c-0.2,0.1-0.3,0.2-0.5,0.4c-0.1-0.1-0.2-0.2-0.3-0.3
		c-0.3-0.4-0.6-0.7-0.8-1.1c-0.5-1-1-2-1.5-3.1c-1.6-3.2-3.2-6.6-4.5-10c-1.6-4-0.7-8.2,0.5-12.1c1.1-3.6,2.4-7.5,4.7-11
		c1-1.6,2.4-3.4,4.4-4.2c6.2-2.6,9.9-7.9,13.1-12.6c2.1-3,4.1-5.5,6.2-7.6c3.5-3.5,7.1-4.8,11-4.1c1.5,0.3,3,0.9,4.2,1.7
		C254.6,53.7,259.2,60.2,261.3,68.5z M205.9,112.3c0.7,1.1,1.4,2.2,2,3.4c0.1,0.2,0,0.8-0.2,1.2c-2.9,4.5-4.6,8.6-5.2,12.7
		c-0.7,4.2-0.1,8.4,1.8,12.9c2,4.6,4.9,8.7,7.5,12.2c1.7,2.2,3.3,4.5,5,6.9c0.6,0.8,1.1,1.6,1.7,2.4c-0.2,0-0.3-0.1-0.5-0.1
		c-1-0.3-2-0.6-2.9-1.1c-5.9-3.1-11.5-5.2-17.2-6.2c-1.8-0.3-3.5-1.2-5.2-2.1l-0.7-0.4c-0.5-0.3-1.1-1-1.2-1.7
		c-0.5-2.2-0.8-4.5-1-6.8c-0.1-0.6-0.1-1.3-0.1-2c0-0.3,0-0.6,0-0.9c-0.1-4-1.8-7.1-5.3-9.2c-4.4-2.7-6.6-6.7-6.6-11.8l0-0.1
		c0-2.4,0-4.9,0.2-7.3c0.1-1.3,0.7-2.7,1.1-3.6c1.4-3.2,1.7-6.4,1.8-9c0.1-2.7,0.2-5.6,0.8-8.2c1.2-5.1,5.6-8,11.2-7.2
		c1.9,0.3,3.2,1,4.4,2.8c1.4,2.1,2,3.8,2,6c-0.1,4.2,1.8,8,3.6,11.6l0.2,0.4C203.7,108.8,204.8,110.6,205.9,112.3z M253.2,223.8
		c-0.2-0.7-0.4-1.4-0.7-2.1c0.8,0.7,1.6,1.4,2.4,2.1c2.2,1.9,4.4,3.8,6.6,5.7c5,4.3,11,7.7,19.3,11.1c3.5,1.4,6.3,3,8.5,5.6
		c2.7,3.2,6.6,4.3,11.7,3.3c2-0.4,4.1-0.8,6.1-1.3c2-0.5,4.1-0.6,6.3-0.1c5.6,1.1,10.7,1.1,15.7,0c-0.4,0.2-0.7,0.4-1.1,0.6
		c-1.4,0.7-2.8,1.4-4.2,2c-1.8,0.7-3.9,1.3-6.3,1.8c-4.1,0.9-7.7,2.9-10.3,4.5c-1.9,1.2-4,2.2-5.9,3.2l-1.1,0.6
		c-0.7,0.4-1.5,0.6-2.3,0.8c-3.3,0.8-5.3-0.1-7.2-3.1c-0.9-1.5-2-3-3-4.4c-0.5-0.7-0.9-1.3-1.4-2c-2.2-3.2-5.5-4.8-8.2-5.8
		c-0.9-0.4-1.9-0.7-2.8-1c-2.9-1.1-6-2.1-8.7-3.9c-0.6-0.4-1.2-0.8-1.8-1.2c-2.7-1.7-5.4-3.5-7.3-6.1l-0.1-0.2
		c-0.7-0.9-1.4-1.9-1.8-2.9C254.7,228.5,253.9,226.1,253.2,223.8z M326,254.1l1-0.5c2.1-1.1,4.3-2.2,6.2-3.5c1.4-1,2.7-2.3,3.8-3.5
		c0.5-0.5,1-1,1.5-1.5c0.1-0.1,0.2-0.2,0.2-0.3c1.4,9.8-1.6,18.5-5.7,28.7c-0.2-0.3-0.4-0.5-0.6-0.8c-0.8-1-1.5-2-2.3-3.1
		c-3.5-5-5.1-9.5-5-14.2C325.3,254.7,325.4,254.4,326,254.1z M337.2,274.8c0.2-0.6,0.4-1.2,0.6-1.8c0.6-1.6,1.1-3.3,1.8-5
		c1.8-4.5,2.9-9.6,3.4-15.5c0.1-0.9,0.1-1.8,0.2-2.6l0-0.5l0.6,1c0.8,1.3,1.5,2.6,2.3,3.9c0.3,0.5,0.6,1.1,0.9,1.6
		c0.5,1,1.1,2,1.7,3c2.8,4.1,3.9,9,3.3,15.1c-0.3,3-0.8,6.1-1.3,9.1c-0.3,1.6-0.5,3.1-0.8,4.7c-0.6,4.1-1.2,8.4-1.7,13
		c-2-6.8-4.7-14.5-10-21C336.8,278.3,336.5,276.8,337.2,274.8z M367.2,254.4c-0.8-0.5-1.6-0.9-2.5-1.3c-3.2-1.5-6.9-2.4-11.2-2.9
		c-1.5-0.2-3.1-0.8-4.6-1.3c-0.5-0.2-1-0.4-1.5-0.6c-0.4-0.1-0.8-0.5-1-0.9c-0.8-1.4-1.5-2.8-2.2-4.1c-0.4-0.8-0.8-1.5-1.2-2.3
		c-0.3-0.5-0.2-0.8,0.3-1.1c2-1.4,3.9-2.8,5.8-4.2l2.1-1.5c0,0,0,0,0,0c0,0,0,0,0,0c0.5,0,0.9-0.1,1.4-0.1c1.3-0.1,2.6-0.2,3.8-0.2
		c0.5,0,1.3,0.5,1.7,1c0.4,0.5,0.7,1,1.1,1.4c1.3,1.8,2.7,3.6,3.6,5.6c1.3,2.9,2.4,5.9,3.5,8.9c0.4,1.2,0.9,2.4,1.3,3.6
		c0.1,0.2,0.1,0.3,0.1,0.5C367.6,254.6,367.4,254.5,367.2,254.4z M345.4,233.9c-1,0.7-2,1.4-2.9,2.1c-1.1,0.9-2.1,1.8-3.1,2.8
		c-0.7,0.7-1.5,1.4-2.2,2.1c-0.6,0.6-1.3,1-1.9,1.2c-2.5,0.9-4.5,1.5-6.4,2c-4.6,1.2-9.5,1.3-14.8,0.2c-2.6-0.6-5.3-0.5-8.2,0.2
		c-2,0.5-4.2,0.9-6.9,1.4c-2.6,0.4-4.8-0.2-6.2-1.8c-3.1-3.7-7.1-5.6-11.7-7.6c-8.3-3.5-14.9-7.7-20.3-12.8
		c-0.9-0.9-1.9-1.7-2.9-2.6c-0.9-0.7-1.8-1.5-2.6-2.3c-2.4-2.2-3.4-5.2-3-8.8c0.1-0.5,0.1-0.8,0.3-0.9c0.1,0,0.1,0,0.2,0
		c0.2,0,0.6,0.1,0.9,0.2c0.8,0.2,1.5,0.5,2.3,0.7c2.3,0.7,4.6,1.4,7,1.9c1.5,0.3,3.1,0.2,4.6,0.1c0.2,0,0.5,0,0.7,0
		c-0.6,0.2-1.2,0.4-1.7,0.5c-2.5,0.8-3.3,2.2-2.7,4.7c1.2,5.4,4.3,9.7,9.6,13c4.5,2.9,9.7,4.2,15.9,4.1c8.8-0.1,16.2-1.4,22.8-3.8
		c2-0.8,4-1.8,5.9-2.8c0.7-0.4,1.5-0.8,2.2-1.2c0,0.1,0.1,0.2,0.1,0.4c0.2,0.7,0.3,1.5,0.6,2.4c0.3,1,0.8,1.7,1.5,2
		c0.7,0.3,1.5,0.1,2.5-0.4c1.5-0.9,3.1-1.8,4.8-2.7c0.3-0.1,0.7-0.2,0.8-0.1c4.9,2.6,10,4,15.4,5.2c0.1,0,0.2,0.1,0.4,0.1
		C346,233.4,345.7,233.7,345.4,233.9z M328,224.4c-0.7,0.4-1.5,0.8-2.2,1.2l-1.4,0.7c-0.6-2.6-0.6-4.8,0-6.8c1-3.3,1-6.7-0.1-10.2
		c-0.8-2.5-0.3-4.7,1.3-6.5c0.2-0.3,0.5-0.6,0.7-0.9c1-1.2,2.1-2.5,3.3-3c1.5-0.7,2.8-1.6,4-2.6c0.6-0.5,1.3-1,1.9-1.4
		c1.6-1.1,3.2-2.7,4.2-4.5c1.4-2.4,2.6-4.9,3.7-7.3c0.5-1.1,1-2.2,1.6-3.2l0.9-1.9c1.9-3.7,3.7-7.4,5.6-11.1
		c0.8-1.6,1.6-3.3,1.4-5.2c0-0.2,0.1-0.5,0.3-0.8c0.9-1.6,1.9-3.2,2.9-4.9l0.7-1.2l1,2c1,2.1,2.1,4.2,3.2,6.3c1.2,2.4,1.6,5.2,2,7.8
		c0.1,0.8,0.2,1.5,0.3,2.3c1.2,7.3-0.2,14.6-4.3,22.6c-1.6,3-3.8,5.8-7.3,8.8c-2.6,2.3-5.3,5.1-8.1,8.6c-3.1,3.8-6.6,6.6-10.8,8.6
		C331.3,222.6,329.6,223.5,328,224.4z M113.3,90.2c23.2-1.6,50.4-28.8,52-52h176.9c1.4,25,27,50.6,52,52v24.4
		c-1.6-0.9-3.2-1.3-4.9-1.2c-0.9,0.1-1.4-0.3-1.5-1.3c-0.1-0.5,0-1.1,0-1.7c0.2-2.8-1-4.9-3.4-6c-1.4-0.6-2-1.6-2-3.3
		c-0.1-2.6-0.8-5-2.1-7.4c-1.4-2.6-3.9-4.5-6.9-5.2c-2.9-0.6-5.8,0-8.1,1.6C364,91,363,92,361.9,93c-0.6,0.5-1.1,1.1-1.7,1.6
		c-0.5,0.4-1,0.8-1.5,1.2c-0.1,0.1-0.3,0.2-0.4,0.3c0-0.1-0.1-0.1-0.1-0.2c-0.2-0.3-0.3-0.6-0.5-0.8c-0.5-0.6-1-1.2-1.5-1.8
		c-1.7-2.1-3.4-4.2-5.2-6.3c-0.4-0.5-1-0.8-1.5-1.1c-0.6-0.3-1.2-0.6-1.4-1.1c-0.3-0.6-0.1-1.3,0-2.2c0.1-0.5,0.1-1,0.1-1.5
		c0-3.2-0.2-6.6-2.3-9.6c-1.2-1.7-2.3-3.4-3.4-5c-1.1-1.7-2.3-3.4-3.4-5c-0.8-1.1-1.8-2.1-2.8-2.8c-5.4-3.6-14.4-5.4-22.3,1.2
		c-1.9,1.6-3.7,2.7-5.4,3.3c-1.9,0.6-3.9,1-5.8,1.3c-0.7,0.1-1.5,0.3-2.2,0.4c-1.2-5.7-3.6-10.7-7.1-14.9c-2.3-2.8-4.5-4.7-6.6-6
		c-3.9-2.3-8.6-2.6-13-0.9c-3,1.1-6,2.4-9,3.6c-2.2,0.9-4.4,1.9-6.7,2.7c-0.7,0.3-1.7,0.3-2.7,0.1c-0.6-0.1-1.2-0.6-1.7-1.1
		l-0.2-0.1c-3.2-2.8-6.2-4.8-10-5.2c-5.4-0.6-10.4,1.4-14.6,6c-2.5,2.7-4.7,5.6-6.6,8.4c-3.2,4.4-6.2,8.3-11,10.4
		c-2.4,1-4.4,2.9-5.9,5.6c-1.1,1.8-2.1,3.8-3,5.9c-0.7,1.7-1.3,3.4-1.9,5.2c-0.2,0.6-0.4,1.1-0.6,1.7c-1.6-2.9-4.2-3.6-6.6-4
		c-7.5-1-13.6,2.7-15.6,9.6c-0.8,2.8-1.2,6.1-1.2,9.4c0.1,3.6-1,6.7-3.3,9.6c-0.4,0.5-0.8,0.9-1.2,1.4c-0.8,1-1.7,2-2.4,3.1
		c-2.4,3.5-3.2,6.9-2.6,10.6c0.6,3.1,1.6,5.8,3.3,8.2c1.4,2.1,2.3,4,2.8,6c0,0,0,0,0,0l-0.2-0.1c-0.3-0.2-0.6-0.4-0.9-0.7
		c-3.5-3-6.6-5.2-10.5-6.3c-1.4-0.4-3.3-0.9-5.1-1.6c-7.5-2.8-15.6-4-24.1-3.5c-1.4,0.1-3.1,0.2-4.7,0.5c-0.1,0-0.2,0-0.3,0
		c-2.7,0.5-4.8,1.3-6.6,2.5c-0.7,0.5-1.5,0.8-2.1,0.8c-1.7,0.2-3.5,0.2-5.1,0.1c-0.1,0-0.2,0-0.3,0V90.2z M113.3,138.2
		c2,1.8,4.1,2.9,6.5,3.2c1.5,0.2,3,0.4,4.5,0.6c0.3,0,0.6,0.1,0.9,0.1c-2.5,1.3-6.2,3.2-8.3,3.6l-3.5-0.6c-0.1,0-0.2,0-0.2,0V138.2z
		 M113.3,148.9c0.1,0,0.3,0.1,0.4,0.1c10,1.9,18,3.8,25.3,5.8c3.5,1,7.3,1.8,12,2.6c0.4,0.2,0.8,0.3,1.2,0.2
		c2.7,0.5,5.4,0.9,8.1,1.3l0.1,0c2.6,0.4,5.3,0.4,7.8,0.5c1.4,0,2.9,0,4.4,0.1c1.3,0.1,2.6,0.2,3.9,0.3c-0.4,0-0.8,0-1.2,0
		c-4.2,0-8.2,0.1-12.1,2c-0.4,0.2-0.8,0.2-1.4,0.3c-3.3,0.3-6.7-0.1-9.9-1.3c-3.8-1.4-7-1.7-10.2-1.1c-7,1.3-13.8,1.1-20.3-0.6
		c-2.4-0.6-4.7-1.4-6.8-2.4c-0.1-0.1-0.2-0.1-0.4-0.2c-0.3-0.1-0.5-0.2-0.8-0.3V148.9z M113.3,160.7c0.8,0.4,1.6,0.7,2.3,1
		c9.2,2.8,16.4,3.5,23.5,2.4c2.2-0.3,5.4-0.7,8.4-0.3c2.2,0.3,4.3,0.9,6.3,1.5c0.7,0.2,1.4,0.4,2.1,0.6c-0.3,0.5-0.6,1-0.9,1.5
		c-1,1.6-2,3.3-2.9,5.1c-0.5,1.1-1,1.8-2,2.3c-10.4,6.4-20.9,12.9-31.1,19.2l-5.8,3.6V160.7z M113.3,201.8c0.6,0.1,1.2-0.1,1.8-0.5
		l29.8-18.5c1.3-0.8,2.7-1.6,4-2.5l1.4-0.9l0,1.5c0,2.4,0,4.6,0,6.9c0,0.1-0.2,0.4-0.6,0.7c-9,6.1-18.1,12.2-27.1,18.2l-9.2,6.2
		V201.8z M113.3,225.9c0.1,0.2,0.3,0.4,0.4,0.5c0.3,0.4,0.6,0.8,1,1.2l11.3,14.2c7.4,9.3,14.9,18.6,22.3,28
		c5.1,6.4,10.2,12.8,15.4,19.2c5,6.2,10,12.5,15,18.7c9.6,12.1,19.3,24.1,28.9,36.2l15.9,20c7,8.8,14,17.5,21,26.3
		c0.1,0.1,0.2,0.2,0.3,0.3c0.3,0.4,0.6,0.8,1,1c0.3,0.1,0.9,0.3,1.6,0.3c0.3,0,0.6,0,0.8-0.2c0.4-0.2,0.7-0.5,0.8-0.9
		c0.2-0.5,0-1.1-0.3-1.8c-0.2-0.4-0.5-0.8-0.8-1.2c-5.8-7.3-11.7-14.6-17.5-21.9l-15.2-19c-7.7-9.6-15.4-19.2-23.1-28.8
		c-9.4-11.8-18.8-23.5-28.2-35.3l-16.4-20.5c-4.9-6.2-9.8-12.3-14.8-18.5c-5.9-7.3-11.7-14.7-17.6-22v0c-0.3-0.4-0.7-0.7-1.1-1
		c-0.2-0.2-0.4-0.3-0.6-0.5v-2.7c0.7-0.2,1.3-0.6,1.6-0.8c6.3-4.3,12.7-8.5,19-12.8l11.8-7.9c1.3-0.8,2.5-1.7,3.8-2.6l1.2-0.8l0,0.3
		c0.1,0.6,0.1,1.1,0.2,1.6c0.2,1,0.4,2.1,0.7,3.1c0.6,2.6,1.2,5.3,1,8.2c-0.4,5.5,2,9.7,7.2,12.6c3.2,1.8,6.2,4.2,8.8,7.3
		c3.5,4.1,6.3,9.1,8.5,15.3c1.3,3.5,3.1,6.5,5.7,9.1c4.4,4.3,8.7,7.5,13.3,9.8c1,0.5,2.1,1,3.1,1.4c1.3,0.6,2.6,1.1,3.9,1.8
		c6.9,3.8,14.2,3.6,21.8-0.6c2.2-1.2,4.1-2.9,5.9-4.5c0.6-0.5,1.2-1,1.7-1.5c3.1-2.6,6-4.9,9.6-6.2c1.9-0.7,3.6-1.5,5.1-2.4
		c0.4-0.2,0.7-0.4,1.1-0.7c2.7-1.6,5.4-3.3,6.8-6.5c0.3-0.6,0.5-1.2,0.8-1.7l0.1-0.3l2.2,1.5c2,1.4,3.9,2.7,5.9,4.1
		c2.7,1.9,5.9,3,8.9,4.1c1.3,0.5,2.6,0.9,3.8,1.5c1.6,0.7,3.4,1.5,4.6,2.7c2.6,2.6,4.4,4.9,5.7,7.5c2.3,4.5,6,6.2,11,5.1
		c1.7-0.4,3.2-0.9,4.5-1.6c3.1-1.6,6.1-3.4,8.7-4.9c3.1-1.9,6.6-2.6,10.2-3.4l0,0c0,0.2,0,0.4,0,0.5c-0.1,4.4,1,8.4,3.2,11.8
		c2.5,3.9,5.3,7.9,8.6,12.1c3.2,4.2,6.7,9.1,8.6,14.9c1.3,4.1,2.5,8.2,3.7,12.2l1,3.3c3,10.2,9.6,18,19.9,24c2.2,1.3,4.4,2.6,6.6,4
		c0.9,0.5,1.7,1.1,2.6,1.6l0,0c-0.3,0.2-0.5,0.3-0.7,0.4l-2.3,1.2c-11.4,5.9-22.7,11.7-34.1,17.6L322,368
		c-24.1,12.5-48.3,24.9-72.4,37.4c-0.8,0.4-1,0.3-1.6-0.4c-14.8-18.7-29.6-37.3-44.4-55.9c-4.8-6.1-9.7-12.2-14.5-18.3
		c-8.1-10.2-16.3-20.4-24.4-30.7c-11.6-14.6-23.1-29.2-34.7-43.8l-15-18.9c-0.4-0.5-1-0.8-1.6-0.9c-0.1,0-0.1,0-0.2,0V225.9z
		 M244.4,437.7c0.1,0.1,0.1,0.1,0.2,0.2h-17c-0.2-0.5-0.6-1-0.9-1.4c-0.2-0.3-0.4-0.5-0.6-0.8c-0.5-0.7-1.1-1.4-1.7-2
		c-1.3-1.4-1.9-2.8-2-4.7c-0.5-12,1.7-22.6,6.8-32.4c0.6-1.2,1.4-2.3,2.2-3.4c0.3-0.4,0.6-0.9,0.9-1.3c0,0,0,0,0.1,0
		c0,0,0.1,0,0.1,0l1.3,1.6c3.7,4.6,7.6,9.5,11.3,14.2c0.1,0.1,0.1,0.6,0,1c-0.2,0.6-0.5,1.3-0.8,1.9c-0.5,1.2-1,2.4-1.2,3.6
		c-0.7,4.6-1.2,9.2-1.5,13.7C241.5,431.5,242.4,434.8,244.4,437.7z M178.4,386.5c-0.2,1.6-0.5,3.6-1.2,5.5c-0.9,0.2-2.2,0.5-3.6,0.9
		c0.4-0.9,0.9-1.7,1.4-2.7c1.6-3.1,2.3-5.6,2.4-8.2c0-0.1,0-0.2,0-0.2C178.7,383.2,178.6,384.8,178.4,386.5z M182.4,388
		c0.1,0.2,0.2,0.3,0.2,0.5c0.7,2.5,0.6,4.9,0,7.6c-0.8,3.1-1.9,6-3.5,9c-0.4-1.9-0.9-3.6-1.2-4.4l0-0.1
		C179.8,396.7,181.6,392.6,182.4,388z M175.6,410.7C175.6,410.7,175.6,410.8,175.6,410.7c-0.9,1.3-1.8,2.4-2.6,3.5
		c-0.9,1.1-1.8,2.1-2.7,3.2c0,0-0.1,0.1-0.1,0.1l5.4-11.7C176.1,408.2,176.1,410,175.6,410.7z M175.6,396c-1.4,3.1-2.9,6.4-4.6,10
		c-1.1,0.2-2.8,0.6-4.6,1.3c0.4-1,0.9-2.1,1.4-3.1c0.9-1.7,1.9-3.7,3.2-6.2l0.1-0.1C171.9,397.3,173.6,396.6,175.6,396z
		 M172.8,385.1c-1.2,2.8-2.6,5.6-4,8.4l0,0.1c-0.7,1.4-1.4,2.8-2.2,4.2c-0.7,1.4-1.5,2.8-2.2,4.3c-2.8,5.6-4.3,10.8-4.6,16
		c-0.2-2.3,0-4.7,0.5-7.4c1.7-8.9,4.6-18.2,8.8-28.3c0.8-1.8,1.4-3.7,2-5.6c0.2-0.6,0.4-1.2,0.6-1.8l0,0.1
		C173.1,378.4,174.4,381.5,172.8,385.1z M164.9,412.1c0.8-0.6,2.3-1.3,4.2-1.9l-1.9,4.1c-1.1,2.4-2.2,4.8-3.3,7.2c0-0.3,0-0.5,0-0.8
		C163.8,417.9,164.1,415,164.9,412.1z M165.1,436.5c1.3-6.4,4-12,8.3-16.6c6.3-6.9,9.9-12.9,11.9-19.3c0.5-1.7,0.9-3.4,1.3-5.2
		c0.1-0.6,0.3-1.2,0.4-1.8l0.2,0.2c0.5,0.6,0.9,1.2,1.4,1.7l29.8,37.1c1.4,1.7,2.8,3.5,4.2,5.2h-58
		C164.8,437.6,165,437.1,165.1,436.5z M212.1,395.3c-2.3,6.1-3.5,12.2-3.6,18.5l-0.1-0.1c-0.5-0.5-0.8-1-1.2-1.5
		c-1.2-1.5-2.4-3-3.6-4.5c-3-3.7-6.1-7.6-9.2-11.4c-0.8-1-1.1-2-1.1-3.3c0-7.3,2.1-14.2,6.1-21.1c2.6-4.4,5.5-7.8,9-10.4l13.9,17.5
		C218,383.2,214.8,388.4,212.1,395.3z M222.8,384.4c0.3-0.4,0.7-0.9,1.1-1.3l0.3-0.4c0.1-0.1,0.3-0.3,0.5-0.4l0.1-0.1l5,6.3
		c-9.3,11.6-11.2,25.3-11.7,37.3c0,0,0,0,0,0c-0.4-0.5-0.8-1-1.2-1.4c-3.5-3.2-4.9-7.4-4.4-13.2C213.6,400.7,217,391.9,222.8,384.4z
		 M113.3,259.6l36,43.8c-4.2,3.8-7.3,8-9.4,12.9l0,0c-0.2-0.3-0.4-0.5-0.6-0.7l-23.6-28.7c-0.1-0.1-0.2-0.3-0.3-0.4
		c-0.3-0.4-0.6-0.8-1.1-1c-0.3-0.1-0.7-0.2-1.1-0.3V259.6z M113.3,290.2c4.3,5.3,8.6,10.5,12.9,15.8l5.1,6.2c2.5,3,5,6.2,7.6,9.2
		c0.4,0.5,1.4,1.1,2.2,1.1c0.1,0,0.2,0,0.3,0c0.6-0.1,1.1-0.8,1.6-2.1c0.2-0.6,0.4-1.2,0.6-1.8c0.2-0.7,0.4-1.4,0.7-2.1
		c2.1-4.4,4.9-8,8.6-10.7c0.8-0.6,1.2-1.2,1.3-1.8c0.1-0.6-0.2-1.2-0.8-2c-0.8-1-1.6-2-2.5-3c-0.4-0.5-0.8-0.9-1.2-1.4l-27.7-33.7
		c-2.4-2.9-4.7-5.7-7.1-8.6c-0.5-0.6-1.1-1-1.7-1.1V242c6.8,8.6,13.6,17.2,20.5,25.7l15.8,19.9c8.5,10.7,17,21.4,25.5,32.1
		c4.9,6.2,9.8,12.4,14.8,18.5l12.1,15.2c0.9,1.2,1.9,2.4,2.8,3.6l1,1.3c-9.5,8.1-14.9,18.5-16.5,31.6l-2.4-2.9
		c-2-2.5-3.9-4.9-5.9-7.3c-9.3-11.5-18.5-23.1-27.8-34.6l-24.6-30.7c-4.7-5.9-9.4-11.8-14.2-17.6c-0.4-0.5-0.8-0.8-1.2-1V290.2z
		 M149.2,382.3c2.1-3.3,3.7-6.4,5-9.4c0.3,0.8,0.5,1.7,0.8,2.8l0.7,3.9c0.6,4.3,0.9,8.8,1,11.1c-1.3,3.1-3.1,6.1-5.2,8.8
		c-0.6,0.7-1.2,1.5-1.9,2.2C150,395.8,150.7,386.6,149.2,382.3z M126.1,382.5c2.7-3.2,5.5-6.4,8.3-9.6c3.3-2.3,11.4-4.8,18.1-6.5
		c-1,2.8-2.2,5.6-3.7,8.4C145.1,375.9,133.9,379.3,126.1,382.5z M145.5,405c-2.2,1.6-4.6,2.9-7.2,4c-2.5,1-4.9,2-7.5,3.1l-2.9,1.2
		c1.3-2,2.7-3.9,4-5.8c3.5-5.1,6.8-9.9,10.2-14.8c1.4-2,2.9-4.1,4.3-6.2C146.9,391.3,146.2,399.3,145.5,405z M140.6,366.2
		c4-3.8,8.7-6.8,13.6-9.9l0.6-0.4c0,0.3-0.1,0.6-0.1,0.9c-0.1,1-0.2,1.9-0.4,2.8c-0.2,0.9-0.4,1.8-0.7,2.8
		C151.2,363,145.7,364.4,140.6,366.2z M155.8,368.2c0.7-2.2,1.4-4.5,2-6.8c0.3-1.1,0.6-2.1,0.9-3.2c0.7,0.6,0.9,1.6,1.3,4
		c0.7,4.2,0.3,8.3-0.2,12.4c-0.2,1.5-0.3,3-0.4,4.5c0,0.3-0.1,0.7-0.1,1C158.5,374.4,157.4,370.4,155.8,368.2z M128,354.8
		c3.4-3.1,6.9-6.2,10.7-8.9c0,2.7-0.9,5.6-1.7,7.7c-2.8,1.9-5.6,3.3-8.6,4.3c-1.6,0.5-3.1,1-4.7,1.5l-1.8,0.6l0,0
		C124,358.4,126,356.6,128,354.8z M126.4,351.1c-0.9-0.1-2.9-0.4-5.3-0.4c-0.8,0-1.6,0-2.4,0.1l0.1,0c1.5-1.1,2.9-2.3,4.4-3.4
		c0.3-0.2,0.5-0.4,0.8-0.6l0.4-0.3c2.7-1.3,6.6-1.3,9.2-1.2C131.1,347.2,128.7,349.2,126.4,351.1z M137.5,342.1
		c-0.4-0.1-2.9-0.5-6-0.5c-0.1,0-0.2,0-0.4,0c2-1.2,3.9-2.2,5.7-3.1c1.1-0.5,2.1-0.9,3.1-1.1h0c1.8-0.4,2.1-0.3,3.1,1.4
		c-0.5,0.3-1.1,0.6-1.6,0.9C140,340.5,138.7,341.2,137.5,342.1z M142.1,343.7c1.2-0.7,2.3-1.3,3.3-1.8c0,0,0,0,0,0
		c2,2.3,2,2.3,0,4.4c0,0,0,0,0,0c-1.2,1.3-2.4,2.5-3.7,3.6C142.2,347.6,142.4,345.5,142.1,343.7z M113.3,301.7l0.8,1
		c8,10,16.1,20,24.1,30.1c0.2,0.2,0.4,0.5,0.6,0.8c0,0,0,0,0,0c-4.1,1.3-8.1,3.4-12.2,6.3c-3.2,2.3-6.4,4.8-9.4,7.3
		c-1.1,0.9-2.3,1.8-3.4,2.7l-0.3,0.2c-0.1,0.1-0.1,0.1-0.2,0.2V301.7z M113.3,355.7c0.1,0,0.2,0,0.2-0.1c2.4-1.3,6.1-1.5,9.1-1.4
		c-0.2,0.2-0.4,0.3-0.6,0.5c-0.7,0.6-1.3,1.1-2,1.7c-1.8,1.5-3.5,3.3-5.2,4.9c-0.5,0.5-1,1-1.5,1.5V355.7z M113.3,367.6
		c0.6,0,1.3-0.3,1.6-0.4c0.2-0.1,0.5-0.2,0.7-0.4c0.5-0.2,0.9-0.5,1.4-0.6c2-0.7,3.9-1.4,5.9-2c2.1-0.7,4.3-1.5,6.4-2.2
		c1.2-0.4,2.4-0.9,3.7-1.4c0,0,0.1,0,0.1,0c-1,0.8-2,1.6-3,2.4c-3,2.4-6.2,5-9.4,7.3c-1.5,1.1-3.3,1.8-5,2.5c-0.7,0.3-1.4,0.6-2,0.9
		c-0.1,0-0.2,0.1-0.3,0.2V367.6z M113.3,377.4c0.4,0.2,0.9,0.2,1.5,0.1c0.2,0,0.5-0.1,0.8-0.2c0.9-0.5,1.8-0.9,2.7-1.4
		c2.1-1,4.3-2.1,6.2-3.4c2.8-1.8,5.6-4,8.5-6.5c1-0.9,2-1.8,3-2.6c3.9-3.4,8-6.9,11.2-11.2c0.8-1,1.5-2.1,2.2-3.2
		c0.3-0.4,0.5-0.8,0.8-1.2l3.4,4.2l-0.8,0.6c-0.8,0.6-1.5,1.1-2.2,1.6c-1.2,0.8-2.4,1.7-3.7,2.5c-2.6,1.7-5.4,3.5-7.7,5.7
		c-7,6.4-13.7,13.9-20.5,23c-1.7,2.3-3.6,5-5.4,8.1V377.4z M113.3,402.8c0.1-0.2,0.1-0.3,0.2-0.5l0-0.1c1.5-4.2,3.9-8.4,7.1-12.8
		c0.2-0.1,0.4-0.2,0.6-0.3c2.7-2.4,14.6-6.5,25.1-9.8c-0.7,1.2-1.5,2.3-2.2,3.4c-2.4,3.6-4.9,7.2-7.4,10.7l-0.5,0.7
		c-4.3,2-16.6,7.7-22.9,11.7V402.8z M117.2,420.1c-0.1,0.1-0.2,0.3-0.2,0.4c-1.2-0.2-2.5-0.4-3.7-0.5v-10
		c3.5-2.6,12.8-7.2,18.9-10.1c-0.6,0.9-1.3,1.8-1.9,2.8c-0.7,1.1-1.5,2.2-2.2,3.3c-2.6,4-5.3,8-8.6,11.6
		C118.6,418.3,117.9,419.2,117.2,420.1z M125.9,423.4c-0.9-0.4-1.8-0.8-2.7-1.1c2-2.1,4.4-4.4,7.5-5.7c2.3-1,4.7-2,6.8-2.8
		c3.2-1.3,7-2.9,10.2-5.3c0,0,0.1,0,0.1,0c-1.6,2.1-3.6,3.9-5.8,5.5c-5.6,4.1-10.5,6.9-15.5,9C126.2,423.1,126,423.2,125.9,423.4z
		 M130.2,425.6c0.4-0.2,0.7-0.4,1.1-0.6c2.8-1.5,5.7-3,8.5-4.7c7-4.2,12.5-9.8,16.3-16.7c3.6-6.4,5.9-13.9,7-22.9
		c0.5-3.7,0.7-7.5,0.9-11.2c0.1-1.4,0.2-2.8,0.3-4.1c0.1,0.1,0.2,0.3,0.3,0.4c0.7,0.9,1.4,1.9,2.3,2.7c0.9,1,1.3,2.2,0.9,3.5
		c-0.1,0.5-0.2,1-0.4,1.5c-0.6,2.4-1.2,4.8-2.1,7c-3.9,9.6-6.7,18.3-8.6,26.8c-1.6,7-1.5,12.3,0.2,17.2c1.2,3.5,1.8,7.2,2.4,10.8
		c0.1,0.7,0.2,1.3,0.3,2c0,0.2,0.1,0.4,0.2,0.6h-13.7C141.4,433.1,135.9,428.8,130.2,425.6z M342.1,472H165.2
		c-0.8-9.1-6.7-20.2-15-29.7H356C348.2,451.3,342.8,462,342.1,472z M394.1,420c-11.6,0.8-24.2,8-34.1,18h-58.5
		c26.8-14.7,53.6-29.4,80.3-44.1c4.1-2.3,8.2-4.5,12.3-6.8V420z M394.1,382.9c-0.4,0-0.8,0.1-1.4,0.4c-0.2,0.1-0.3,0.2-0.5,0.3
		l-16.2,8.9c-26.8,14.7-53.6,29.4-80.3,44.1l-0.3,0.1c-0.4,0.2-1,0.5-1.2,0.9c-0.1,0.1-0.1,0.2-0.2,0.4h-11.9
		c37.3-20.5,74.6-40.9,111.9-61.4V382.9z M394.1,372.5c-0.1,0-0.3,0-0.4,0c-0.5,0-0.9,0.3-1.3,0.5c-0.1,0.1-0.2,0.1-0.3,0.2
		c-38.6,21.2-77.2,42.3-115.7,63.5c-0.1,0.1-0.2,0.1-0.3,0.2c-0.5,0.2-1,0.5-1.3,0.9c-0.1,0.1-0.1,0.2-0.1,0.3h-13.3
		c0-0.4-0.1-0.7-0.2-1.1c0-0.2-0.1-0.3-0.1-0.5c0-0.2-0.1-0.3-0.2-0.4l133.1-70c0.1,0,0.2-0.1,0.2-0.1V372.5z M394.1,361.7
		c-0.6,0-1.3,0.3-2.1,0.7l-134.1,70.5l-1.6-4l1.6-0.9c1.1-0.6,2.2-1.1,3.2-1.7l132.4-69.7l0.2-0.1c0.1-0.1,0.3-0.1,0.4-0.2V361.7z
		 M394.1,352.2c-0.3,0-0.6,0.1-0.9,0.2c-0.6,0.2-1.1,0.5-1.7,0.8l-134,70.5c-0.5,0.3-1.1,0.6-1.7,0.9l-0.5,0.3l-0.2-5.2
		c0-0.8,0.3-1.3,1.1-1.7c37.9-19.5,75.7-39,113.6-58.6l12.8-6.6c0.7-0.4,1.4-0.7,2.1-1.1c1.9-0.9,3.8-1.9,5.7-3
		c1-0.6,1.6-0.9,2.6-0.4c0.4,0.2,0.8,0.3,1.2,0.2V352.2z M394.1,344.4c-0.7-0.3-1.2-0.6-1.4-1c-0.4-0.7-0.6-1.4-0.8-2.2
		c-0.1-0.3-0.2-0.7-0.3-1c-0.3-0.9-0.6-1.9-0.9-2.8c-0.7-2.1-1.5-4.3-2.1-6.6c-0.4-1.3-0.6-2.7-0.7-4c0-0.3-0.1-0.7-0.2-1l0.7,1.2
		c0.9,1.5,1.8,3,2.7,4.5c0.4,0.6,0.7,1.3,1,2c0.3,0.5,0.5,1.1,0.8,1.6c0.3,0.5,0.7,0.9,1.1,1.1V344.4z M394.1,329.3
		c-2.2-3.5-4.4-7.1-6.6-10.6l-5.2-8.2c0.3,0,0.6,0,0.9,0c1.2,0,2.2,0,3.2,0c0.4,0,1,0.4,1.1,0.7c1.4,2.3,2.7,4.7,4.1,7.3
		c0.5,0.9,0.9,1.8,1.3,2.7c0.3,0.6,0.6,1.3,0.9,1.9c0.1,0.1,0.1,0.2,0.2,0.3V329.3z M394.1,314.1c-1.4-2.6-2.8-5.1-4.3-7.7
		c-1.9-3.3-3.8-6.8-5.7-10.2c-4.1-7.5-6.7-14.6-7.9-21.6c-1.2-7.1-2.9-14.5-5-22.6c-1.8-6.6-4.3-12.1-7.6-16.8c-0.5-0.7-1-1.3-1.5-2
		c-0.2-0.2-0.3-0.4-0.5-0.6c0.1,0,0.2-0.1,0.3-0.1c10.5-3,18.9-8.7,24.9-17c1.8-2.4,3.7-5,5.8-7.4c0.6-0.7,1.1-1.4,1.5-2.2V314.1z
		 M394.1,195.8c0,0.1,0,0.2-0.1,0.3c-0.1,0.4-0.2,0.9-0.4,1.4c0,0,0,0-0.1,0.1c-0.4,0.5-0.6,1.1-0.8,1.6c-0.1,0.3-0.2,0.7-0.4,1
		c-0.2,0.5-0.5,1-0.7,1.5c-0.6,1.3-1.2,2.7-2,3.8c-1.6,2.2-3.4,4.4-5.1,6.5c-0.6,0.7-1.1,1.4-1.7,2.1l-0.4,0.5
		c-0.9,1.1-1.8,2.2-2.7,3.2c-3.8,3.9-8.5,7-14.5,9.5c-5.1,2.2-9.9,3-14.6,2.6c-4.9-0.5-9.8-1.8-16-4.3c0.1,0,0.2-0.1,0.3-0.1
		l0.2-0.1c4.6-2.2,8.4-5.2,11.3-9c2.9-3.7,5.4-6.7,8.6-9.2c2.9-2.2,5.4-5.2,7.5-9.2c4.6-8.6,6.2-17.2,4.8-26.3
		c-0.9-5.9-2.7-11.1-5.6-15.8c-0.9-1.4-1.7-2.8-2.5-4.4c-0.3-0.6-0.7-1.1-1-1.7c4.4-2,8.8-2.7,13.3-2.1c6,0.7,10.5,3.4,13.3,7.9
		c2.7,4.2,4.9,8.8,6.2,13.6c0.8,2.8,1.7,5.9,2,8.8c0.5,4,1,7.9,0.9,12c0,0.1,0,0.2,0.1,0.3V195.8z M394.1,165.3
		c-0.7-2.3-1.6-4.6-2.9-6.8c-0.5-0.9-1-1.9-1.5-2.9c-0.2-0.4-0.4-0.7-0.6-1.1c0.2-0.3,0.5-0.5,0.7-0.8c0.6-0.7,1.2-1.4,1.9-2
		c0.9-1,1.7-2,2.4-3.1V165.3z"/>
	<path d="M380.8,26.2H126.5c-14.3,0-25.9,11.6-25.9,25.9V458c0,14.3,11.6,25.9,25.9,25.9h254.3c14.3,0,25.9-11.6,25.9-25.9V52.2
		C406.7,37.9,395.1,26.2,380.8,26.2z M402.5,458c0,11.9-9.7,21.7-21.7,21.7H126.5c-11.9,0-21.7-9.7-21.7-21.7V52.2
		c0-11.9,9.7-21.7,21.7-21.7h254.3c11.9,0,21.7,9.7,21.7,21.7V458z"/>
	<path d="M182.4,450.8c0-0.7-0.1-1.3-1.1-1.3c-2.3,0.1-4.6,0.2-6.8,0.2c-2.4,0-4.7-0.2-7-0.2c-1,0-1.1,0.5-1.1,1.3
		c0.1,0.9,0.1,1.9,0.1,2.9c0,0.9-0.2,2.2-0.2,2.5c0,0.6,0.2,1,0.7,1c1.3,0,1.9-1.8,2.7-4.2c0.4-1.3,0.8-1.7,1.4-1.7s0.9,0.4,0.9,1
		c0,11.7-0.2,11.9-1.6,11.9c-0.5,0-0.8-0.2-1.2-0.2c-0.4,0-0.7,0.3-0.7,0.8c0,0.5,0.2,0.9,0.7,0.9c0.8,0,3.4-0.1,5.2-0.1
		s4.4,0.1,5.2,0.1c0.6,0,0.7-0.4,0.7-0.9c0-0.5-0.3-0.8-0.7-0.8c-0.4,0-0.7,0.2-1.2,0.2c-1.4,0-1.6-0.2-1.6-11.9c0-0.6,0.3-1,0.9-1
		s1,0.4,1.4,1.7c0.7,2.4,1.4,4.2,2.7,4.2c0.5,0,0.7-0.4,0.7-1c0-0.3-0.2-1.6-0.2-2.5C182.3,452.7,182.3,451.7,182.4,450.8z"/>
	<path d="M201.9,451.1c0.2,0,0.4,0.1,0.6,0.1c0.5,0,0.7-0.4,0.7-0.8c0-0.5-0.3-0.8-0.7-0.8c-1.3,0-2.6,0.1-4,0.1
		c-1.2,0-2.3-0.1-3.4-0.1c-0.5,0-0.6,0.3-0.6,0.8c0,0.4,0.2,0.8,0.6,0.8c0.7,0,0.7,0.5,0.7,1c0.1,0.9,0.1,1.8,0.1,2.8
		c0,1.2-0.1,1.5-2.2,1.5c-2,0-2.2-0.2-2.2-1.5c0-1,0-1.8,0.1-2.8c0.1-0.5,0.1-1,0.7-1c0.5,0,0.6-0.4,0.6-0.8c0-0.5-0.2-0.8-0.6-0.8
		c-1.1,0-2.2,0.1-3.4,0.1c-1.4,0-2.7-0.1-4-0.1c-0.4,0-0.7,0.4-0.7,0.8c0,0.5,0.2,0.8,0.7,0.8c0.2,0,0.4-0.1,0.6-0.1
		c0.6,0,0.7,0.8,0.7,1.6c0.1,1.2,0.1,2.6,0.1,4c0,2,0,4.1-0.1,5.8c-0.1,0.8-0.1,1.6-0.7,1.6c-0.2,0-0.4-0.1-0.6-0.1
		c-0.5,0-0.7,0.4-0.7,0.8c0,0.5,0.3,0.8,0.7,0.8c1.3,0,2.6-0.1,4-0.1c1.2,0,2.3,0.1,3.4,0.1c0.5,0,0.6-0.3,0.6-0.8
		c0-0.4-0.2-0.8-0.6-0.8c-0.7,0-0.7-0.5-0.7-1c-0.1-1.2-0.1-2.3-0.1-3.6c0-1.5,0.2-1.7,2.2-1.7c2,0,2.2,0.2,2.2,1.7
		c0,1.3,0,2.4-0.1,3.6c-0.1,0.5-0.1,1-0.7,1c-0.5,0-0.6,0.4-0.6,0.8c0,0.5,0.2,0.8,0.6,0.8c1.1,0,2.2-0.1,3.4-0.1
		c1.4,0,2.7,0.1,4,0.1c0.4,0,0.7-0.4,0.7-0.8c0-0.5-0.2-0.8-0.7-0.8c-0.2,0-0.4,0.1-0.6,0.1c-0.6,0-0.7-0.8-0.7-1.6
		c-0.1-1.7-0.1-3.8-0.1-5.8c0-1.4,0.1-2.8,0.1-4C201.2,451.9,201.2,451.1,201.9,451.1z"/>
	<path d="M219.9,459.7c-1.7,0-2.5,4.3-6.5,4.3c-1,0-1.2-0.4-1.3-1.5c-0.1-0.9-0.1-2.4-0.1-3.9c0-0.4,0.2-0.7,0.6-0.7
		c2.1,0,2.6,2.3,3.8,2.3c0.3,0,0.6-0.1,0.6-0.7c0-0.5,0-1,0-2.3c0-0.9,0.1-1.5,0.1-2c0-0.6-0.2-0.8-0.5-0.8c-1.2,0-2.2,1.9-4,1.9
		c-0.3,0-0.5-0.2-0.5-0.6c0-1.1,0.1-2.1,0.2-3c0.1-0.8,0.4-1.6,1.3-1.6c3.6,0,4.5,4.2,6.2,4.2c0.5,0,0.7-0.4,0.7-1
		c0-0.3-0.1-1.1-0.1-1.8c0-1,0.1-1.7,0.1-2.1c0-0.5-0.4-0.9-1-0.9c-1.5,0-7.3,0.1-9.7,0.1c-1.5,0-2.8-0.1-4.1-0.1
		c-0.4,0-0.7,0.4-0.7,0.8c0,0.5,0.2,0.8,0.7,0.8c0.1,0,0.3-0.1,0.5-0.1c0.6,0,0.7,0.8,0.7,1.6c0.1,1.1,0.1,2.5,0.1,3.8
		c0,2.3-0.1,4.4-0.1,6c-0.1,1.2-0.2,1.6-0.8,1.6c-0.1,0-0.3-0.1-0.5-0.1c-0.4,0-0.7,0.3-0.7,0.8c0,0.5,0.2,0.8,0.7,0.8
		c0.7,0,2.8-0.2,4.2-0.2c3.3,0,8,0.2,9.9,0.2c0.6,0,0.9-0.4,0.9-1c0-0.5-0.2-1.3-0.2-2.4c0-0.7,0.2-1.5,0.2-1.8
		C220.5,460.1,220.4,459.7,219.9,459.7z"/>
	<path d="M246.2,458.9c-0.5,0-0.8,0.4-0.8,0.8c0,0.5,0.4,1.2,0.4,1.8c0,0.6-0.2,1-0.8,1c-0.6,0-0.9-0.3-1-0.9
		c-0.2-2.3-1.3-2.8-3.4-2.8c-0.3,0-0.5-0.2-0.5-0.4c0-0.2,0.2-0.4,0.4-0.4c2.7-0.4,5.1-1.1,5.1-4.5c0-2.9-1.9-4.1-5.2-4.1
		c-1.6,0-5,0.2-6.8,0.2c-1.4,0-2.7-0.1-4-0.1c-0.4,0-0.7,0.4-0.7,0.8c0,0.5,0.2,0.8,0.7,0.8c0.2,0,0.4-0.1,0.6-0.1
		c0.6,0,0.7,0.8,0.7,1.6c0.1,1.2,0.1,2.6,0.1,4c0,2.2-0.1,4.3-0.1,5.8c-0.1,1.2-0.2,1.6-0.8,1.6c-0.1,0-0.3-0.1-0.5-0.1
		c-0.4,0-0.7,0.4-0.7,0.8c0,0.5,0.2,0.8,0.7,0.8c0.7,0,2.8-0.1,4.2-0.1c1.4,0,3.3,0.1,4,0.1c0.4,0,0.7-0.5,0.7-0.8
		c0-0.4-0.2-0.8-0.7-0.8c-0.2,0-0.6,0.1-0.7,0.1c-0.7,0-0.8-0.4-0.8-1.3c0-0.4-0.1-1.1-0.1-1.6c0-1,0.7-1.5,2-1.5
		c1.1,0,1.5,0.4,1.5,1.1c0,0.8-0.1,1.6-0.1,2.3c0,2.1,1.2,2.9,3.6,2.9c3.4,0,3.8-1.9,3.8-5C247.1,459.3,246.9,458.9,246.2,458.9z
		 M236.8,457.8c-0.4,0-0.6-0.2-0.6-1.2c0-5,0.3-5.7,2-5.7c1.7,0,2.1,0.9,2.1,3.2C240.4,456.6,239.2,457.8,236.8,457.8z"/>
	<path d="M263.9,459.7c-1.7,0-2.5,4.3-6.5,4.3c-1,0-1.2-0.4-1.3-1.5c-0.1-0.9-0.1-2.4-0.1-3.9c0-0.4,0.2-0.7,0.6-0.7
		c2.1,0,2.6,2.3,3.8,2.3c0.3,0,0.6-0.1,0.6-0.7c0-0.5,0-1,0-2.3c0-0.9,0.1-1.5,0.1-2c0-0.6-0.2-0.8-0.5-0.8c-1.2,0-2.2,1.9-4,1.9
		c-0.3,0-0.5-0.2-0.5-0.6c0-1.1,0.1-2.1,0.2-3c0.1-0.8,0.4-1.6,1.3-1.6c3.6,0,4.5,4.2,6.2,4.2c0.5,0,0.7-0.4,0.7-1
		c0-0.3-0.1-1.1-0.1-1.8c0-1,0.1-1.7,0.1-2.1c0-0.5-0.4-0.9-1-0.9c-1.5,0-7.3,0.1-9.7,0.1c-1.5,0-2.8-0.1-4.1-0.1
		c-0.4,0-0.7,0.4-0.7,0.8c0,0.5,0.2,0.8,0.7,0.8c0.1,0,0.3-0.1,0.5-0.1c0.6,0,0.7,0.8,0.7,1.6c0.1,1.1,0.1,2.5,0.1,3.8
		c0,2.3-0.1,4.4-0.1,6c-0.1,1.2-0.2,1.6-0.8,1.6c-0.1,0-0.3-0.1-0.5-0.1c-0.4,0-0.7,0.3-0.7,0.8c0,0.5,0.2,0.8,0.7,0.8
		c0.7,0,2.8-0.2,4.2-0.2c3.3,0,8,0.2,9.9,0.2c0.6,0,0.9-0.4,0.9-1c0-0.5-0.2-1.3-0.2-2.4c0-0.7,0.2-1.5,0.2-1.8
		C264.5,460.1,264.3,459.7,263.9,459.7z"/>
	<path d="M279.4,450.8c0-0.9-0.5-1.3-1.1-1.3c-0.4,0-1.9,0.2-3.4,0.2c-1.7,0-4.9-0.2-5.7-0.2c-0.6,0-0.8,0.4-0.8,0.8
		c0,0.4,0.3,0.9,0.8,0.9c0.2,0,0.5-0.1,0.8-0.1c0.4,0,1.1,0.3,1.1,1.2c0,4.1-4.6,11-4.6,12.7c0,0.5,0.2,0.7,0.6,0.7
		c0.5,0,1.6-0.2,2.5-0.2c0.8,0,2.6,0.2,2.9,0.2c0.5,0,0.7-0.4,0.7-0.8c0-1-1.5-1.4-1.5-2.9c0-0.8,0.2-1.1,2.5-1.1
		c2.6,0,2.9,0.1,2.9,1.8c0,1.1-0.5,1.5-1.1,1.5c-0.5,0-0.8-0.1-1-0.1c-0.4,0-0.7,0.4-0.7,0.8c0,0.5,0.2,0.8,0.7,0.8
		c0.3,0,3.2-0.2,4.5-0.2c1.6,0,3,0.2,3.6,0.2c0.4,0,0.6-0.3,0.6-0.6c0-0.4-0.2-0.6-0.5-1.2C281.8,461,279.4,454,279.4,450.8z
		 M273.8,459.3c-1.8,0-1.9-0.4-1.9-1.4c0-2.7,0.9-6.1,2.2-6.1c0.4,0,0.6,0.2,1,1.1c0.7,1.4,1.3,4.2,1.2,5.3
		C276.3,458.8,276.1,459.3,273.8,459.3z"/>
	<path d="M294.4,449.5c-1.6,0-3.1,0.1-4.9,0.1c-1.4,0-2.7-0.1-4-0.1c-0.4,0-0.7,0.4-0.7,0.8c0,0.5,0.2,0.8,0.7,0.8
		c0.1,0,0.3-0.1,0.5-0.1c0.6,0,0.7,0.8,0.7,1.6c0.1,1.3,0.1,2.8,0.1,4.3c0,2-0.1,4-0.1,5.4c-0.1,1.2-0.2,1.6-0.8,1.6
		c-0.1,0-0.4-0.1-0.5-0.1c-0.4,0-0.7,0.2-0.7,0.8c0,0.5,0.3,0.8,0.7,0.8c0.6,0,2.7-0.1,4.2-0.1c1.6,0,4,0.1,4.8,0.1
		c5.4,0,7.6-2.3,7.6-6.7C302.1,453.3,299.9,449.5,294.4,449.5z M293.7,464.1c-0.8,0-1.4-0.4-1.5-1.6c-0.1-1.5-0.2-3.5-0.2-5.6
		c0-1.4,0.1-2.9,0.2-4.2c0.1-1.3,0.6-1.6,1.5-1.6c2,0,2.7,1.5,2.7,8.1C296.5,463.3,296.3,464.1,293.7,464.1z"/>
	<path d="M318.9,459.7c-1.7,0-2.5,4.3-6.5,4.3c-1,0-1.2-0.4-1.3-1.5c-0.1-0.9-0.1-2.4-0.1-3.9c0-0.4,0.2-0.7,0.6-0.7
		c2.1,0,2.6,2.3,3.8,2.3c0.3,0,0.6-0.1,0.6-0.7c0-0.5,0-1,0-2.3c0-0.9,0.1-1.5,0.1-2c0-0.6-0.2-0.8-0.5-0.8c-1.2,0-2.2,1.9-4,1.9
		c-0.3,0-0.5-0.2-0.5-0.6c0-1.1,0.1-2.1,0.2-3c0.1-0.8,0.4-1.6,1.3-1.6c3.6,0,4.5,4.2,6.2,4.2c0.5,0,0.7-0.4,0.7-1
		c0-0.3-0.1-1.1-0.1-1.8c0-1,0.1-1.7,0.1-2.1c0-0.5-0.4-0.9-1-0.9c-1.5,0-7.3,0.1-9.7,0.1c-1.5,0-2.8-0.1-4.1-0.1
		c-0.4,0-0.7,0.4-0.7,0.8c0,0.5,0.2,0.8,0.7,0.8c0.1,0,0.3-0.1,0.5-0.1c0.6,0,0.7,0.8,0.7,1.6c0.1,1.1,0.1,2.5,0.1,3.8
		c0,2.3-0.1,4.4-0.1,6c-0.1,1.2-0.2,1.6-0.8,1.6c-0.1,0-0.3-0.1-0.5-0.1c-0.4,0-0.7,0.3-0.7,0.8c0,0.5,0.2,0.8,0.7,0.8
		c0.7,0,2.7-0.2,4.2-0.2c3.3,0,8,0.2,9.9,0.2c0.6,0,0.9-0.4,0.9-1c0-0.5-0.2-1.3-0.2-2.4c0-0.7,0.2-1.5,0.2-1.8
		C319.6,460.1,319.4,459.7,318.9,459.7z"/>
	<path d="M339.3,458.9c-0.5,0-0.8,0.4-0.8,0.8c0,0.5,0.4,1.2,0.4,1.8c0,0.6-0.2,1-0.8,1c-0.6,0-0.9-0.3-1-0.9
		c-0.2-2.3-1.3-2.8-3.4-2.8c-0.3,0-0.5-0.2-0.5-0.4c0-0.2,0.2-0.4,0.4-0.4c2.7-0.4,5.1-1.1,5.1-4.5c0-2.9-1.9-4.1-5.2-4.1
		c-1.6,0-5,0.2-6.8,0.2c-1.4,0-2.7-0.1-4-0.1c-0.4,0-0.7,0.4-0.7,0.8c0,0.5,0.2,0.8,0.7,0.8c0.2,0,0.4-0.1,0.6-0.1
		c0.6,0,0.7,0.8,0.7,1.6c0.1,1.2,0.1,2.6,0.1,4c0,2.2-0.1,4.3-0.1,5.8c-0.1,1.2-0.2,1.6-0.8,1.6c-0.1,0-0.3-0.1-0.5-0.1
		c-0.4,0-0.7,0.4-0.7,0.8c0,0.5,0.2,0.8,0.7,0.8c0.7,0,2.8-0.1,4.2-0.1c1.4,0,3.3,0.1,4,0.1c0.4,0,0.7-0.5,0.7-0.8
		c0-0.4-0.2-0.8-0.7-0.8c-0.2,0-0.6,0.1-0.7,0.1c-0.7,0-0.8-0.4-0.8-1.3c0-0.4-0.1-1.1-0.1-1.6c0-1,0.7-1.5,2-1.5
		c1.1,0,1.5,0.4,1.5,1.1c0,0.8-0.1,1.6-0.1,2.3c0,2.1,1.2,2.9,3.6,2.9c3.4,0,3.8-1.9,3.8-5C340.2,459.3,340,458.9,339.3,458.9z
		 M329.9,457.8c-0.4,0-0.6-0.2-0.6-1.2c0-5,0.3-5.7,2-5.7c1.7,0,2.1,0.9,2.1,3.2C333.4,456.6,332.3,457.8,329.9,457.8z"/>
	<path d="M113.2,53.6l8.8,1.4c0.5,0.1,0.7,0.7,0.4,1.1l-6.2,6.3c-0.5,0.5,0.1,1.4,0.8,1.1l8-4c0.5-0.2,1,0.2,1,0.7l-1.3,8.8
		c-0.1,0.7,0.9,1.1,1.2,0.4l4.1-7.9c0.2-0.5,0.9-0.5,1.2,0l4.1,7.9c0.3,0.7,1.4,0.3,1.2-0.4l-1.3-8.8c-0.1-0.5,0.5-0.9,1-0.7l8,4
		c0.7,0.3,1.3-0.5,0.8-1.1l-6.2-6.3c-0.4-0.4-0.2-1,0.4-1.1l8.8-1.4c0.7-0.1,0.7-1.2,0-1.3l-8.8-1.4c-0.5-0.1-0.7-0.7-0.4-1.1
		l6.2-6.3c0.5-0.5-0.1-1.4-0.8-1.1l-8,4c-0.5,0.2-1-0.2-1-0.7l1.3-8.8c0.1-0.7-0.9-1.1-1.2-0.4l-4.1,7.9c-0.2,0.5-0.9,0.5-1.2,0
		l-4.1-7.9c-0.3-0.7-1.4-0.3-1.2,0.4l1.3,8.8c0.1,0.5-0.5,0.9-1,0.7l-8-4c-0.7-0.3-1.3,0.5-0.8,1.1l6.2,6.3c0.4,0.4,0.2,1-0.4,1.1
		l-8.8,1.4C112.4,52.5,112.4,53.5,113.2,53.6z"/>
	<path d="M389.7,452.3l6.2-6.3c0.5-0.5-0.1-1.4-0.8-1.1l-8,4c-0.5,0.2-1-0.2-1-0.7l1.3-8.8c0.1-0.7-0.9-1.1-1.2-0.4l-4.1,7.9
		c-0.2,0.5-0.9,0.5-1.2,0l-4.1-7.9c-0.3-0.7-1.4-0.3-1.2,0.4l1.3,8.8c0.1,0.5-0.5,0.9-1,0.7l-8-4c-0.7-0.3-1.3,0.5-0.8,1.1l6.2,6.3
		c0.4,0.4,0.2,1-0.4,1.1l-8.8,1.4c-0.7,0.1-0.7,1.2,0,1.3l8.8,1.4c0.5,0.1,0.7,0.7,0.4,1.1l-6.2,6.3c-0.5,0.5,0.1,1.4,0.8,1.1l8-4
		c0.5-0.2,1,0.2,1,0.7l-1.3,8.8c-0.1,0.7,0.9,1.1,1.2,0.4l4.1-7.9c0.2-0.5,0.9-0.5,1.2,0l4.1,7.9c0.3,0.7,1.4,0.3,1.2-0.4l-1.3-8.8
		c-0.1-0.5,0.5-0.9,1-0.7l8,4c0.7,0.3,1.3-0.5,0.8-1.1l-6.2-6.3c-0.4-0.4-0.2-1,0.4-1.1l8.8-1.4c0.7-0.1,0.7-1.2,0-1.3l-8.8-1.4
		C389.5,453.4,389.3,452.7,389.7,452.3z"/>
	<path d="M125,441.8c5.4,4.2,6.8,8.6,4.6,13.3c-1.1,2.3-2.7,4-5,5.2c-3.2,1.7-6.5,1.4-9.8,0c0.9,5.2,7.9,11.4,16.3,9.5
		c8-1.8,13-9.8,11.1-17.6C140,443.9,131.4,439.9,125,441.8z"/>
	<path d="M377.9,66.9c8-1.8,13-9.8,11.1-17.6c-2.1-8.4-10.8-12.5-17.2-10.5c5.4,4.2,6.8,8.6,4.6,13.3c-1.1,2.3-2.7,4-5,5.2
		c-3.2,1.7-6.5,1.4-9.8,0C362.5,62.7,369.5,68.8,377.9,66.9z"/>
	<path d="M251.9,335.9c0.4,2.1,0.7,4.3,1,6.3l0.2,1.4c0.2,1,0.3,2.1,0.4,3.2l0.2,1.6c0,0.3,0.3,0.5,0.5,0.5c0,0,0,0,0,0
		c0.3,0,0.5-0.2,0.5-0.5c0.2-1.2,0.3-2.4,0.5-3.6c0.3-2.7,0.7-5.3,1.1-7.9c0.6-3.6,1.9-6,4.2-7.7c1.5-1.1,3.3-1.8,5.8-2.4
		c0.7-0.2,1.4-0.3,2.2-0.5l1.1-0.2c0.3-0.1,0.4-0.3,0.4-0.5c0-0.3-0.2-0.5-0.4-0.5c-0.6-0.1-1.2-0.3-1.8-0.4
		c-1.2-0.3-2.4-0.5-3.6-0.8c-3.7-1-6.1-3.3-7.1-6.7c-0.4-1.6-0.8-3.3-1-4.9c-0.1-0.8-0.3-1.7-0.4-2.7c-0.4-2.6-0.9-6.1-0.9-6.6
		c0,0,0,0,0,0c0-0.3-0.2-0.6-0.5-0.6c-0.3,0-0.6,0.2-0.6,0.5c0,0,0,0,0,0c0,0,0,0,0,0v0c0,0.7-1.1,8.7-1.8,12.5
		c-0.8,4.7-3.6,7.6-8.2,8.6c-1,0.2-2,0.4-3.1,0.6l-1.7,0.3c-0.3,0.1-0.4,0.3-0.4,0.5c0,0.3,0.2,0.5,0.4,0.5l1.4,0.3
		c0.9,0.2,1.8,0.4,2.6,0.6C248.1,328.4,251,331.2,251.9,335.9z"/>
	<path d="M278.5,349.6l0.8,0.2c0.5,0.1,1,0.2,1.5,0.4c2.9,0.7,4.6,2.4,5.1,5c0.2,1.2,0.4,2.4,0.6,3.6l0.1,0.8
		c0.1,0.6,0.2,1.2,0.2,1.8l0.1,0.9c0,0.2,0.2,0.3,0.3,0.3c0,0,0,0,0,0c0.2,0,0.3-0.1,0.3-0.3c0.1-0.7,0.2-1.4,0.3-2
		c0.2-1.6,0.4-3,0.6-4.5c0.3-2.1,1.1-3.5,2.4-4.4c0.9-0.6,1.9-1,3.3-1.4c0.4-0.1,0.8-0.2,1.2-0.3l0.6-0.1c0.1,0,0.2-0.2,0.2-0.3
		c0-0.1-0.1-0.3-0.2-0.3c-0.4-0.1-0.7-0.1-1-0.2c-0.7-0.1-1.4-0.3-2-0.5c-2.1-0.6-3.5-1.9-4-3.8c-0.3-0.9-0.5-1.9-0.6-2.8
		c-0.1-0.5-0.2-1-0.2-1.6c-0.2-1.5-0.5-3.5-0.5-3.8c0,0,0,0,0,0c0-0.2-0.1-0.3-0.3-0.3c-0.2,0-0.3,0.1-0.3,0.3c0,0,0,0,0,0
		c0,0,0,0,0,0v0c0,0.4-0.6,5-1,7.2c-0.5,2.7-2,4.3-4.7,4.9c-0.6,0.1-1.1,0.2-1.8,0.4l-1,0.2c-0.1,0-0.2,0.2-0.3,0.3
		C278.2,349.5,278.3,349.6,278.5,349.6z"/>
	<path d="M278.8,301.5l1,0.2c0.7,0.2,1.3,0.3,1.9,0.4c3.6,0.9,5.6,2.9,6.3,6.2c0.3,1.5,0.5,3,0.7,4.5l0.1,1c0.1,0.7,0.2,1.5,0.3,2.3
		l0.1,1.1c0,0.2,0.2,0.3,0.4,0.3c0,0,0,0,0,0c0.2,0,0.4-0.1,0.4-0.3c0.1-0.9,0.2-1.7,0.3-2.5c0.2-1.9,0.5-3.7,0.8-5.6
		c0.4-2.6,1.4-4.3,3-5.4c1.1-0.8,2.3-1.3,4.1-1.7c0.5-0.1,1-0.2,1.5-0.3l0.8-0.2c0.2,0,0.3-0.2,0.3-0.4c0-0.2-0.1-0.3-0.3-0.4
		c-0.4-0.1-0.9-0.2-1.3-0.3c-0.9-0.2-1.7-0.4-2.5-0.6c-2.6-0.7-4.3-2.3-5-4.8c-0.3-1.2-0.6-2.3-0.7-3.5c-0.1-0.6-0.2-1.2-0.3-1.9
		c-0.3-1.8-0.7-4.4-0.7-4.7c0,0,0,0,0,0c0-0.2-0.2-0.4-0.4-0.4c-0.2,0-0.4,0.2-0.4,0.4c0,0,0,0,0,0c0,0,0,0,0,0v0
		c0,0.5-0.8,6.2-1.3,8.9c-0.6,3.3-2.5,5.4-5.9,6.1c-0.7,0.2-1.4,0.3-2.2,0.5l-1.2,0.2c-0.2,0-0.3,0.2-0.3,0.4
		C278.5,301.3,278.6,301.5,278.8,301.5z"/>
	<path d="M375.8,416.2c-0.4-0.1-0.7-0.1-1-0.2c-0.7-0.1-1.4-0.2-2-0.4c-2.1-0.5-3.5-1.5-4-3c-0.3-0.7-0.5-1.5-0.6-2.2
		c-0.1-0.4-0.2-0.8-0.2-1.2c-0.2-1.2-0.5-2.8-0.5-3c0,0,0,0,0,0c0-0.1-0.1-0.3-0.3-0.3c-0.2,0-0.3,0.1-0.3,0.2c0,0,0,0,0,0
		c0,0,0,0,0,0v0c0,0.3-0.6,4-1,5.7c-0.5,2.1-2,3.4-4.7,3.9c-0.6,0.1-1.1,0.2-1.8,0.3l-1,0.2c-0.1,0-0.2,0.1-0.3,0.2
		c0,0.1,0.1,0.2,0.2,0.2l0.8,0.2c0.5,0.1,1,0.2,1.5,0.3c2.9,0.6,4.6,1.9,5.1,4c0.2,1,0.4,1.9,0.6,2.9l0.1,0.6
		c0.1,0.5,0.2,0.9,0.2,1.4l0.1,0.7c0,0.1,0.2,0.2,0.3,0.2c0,0,0,0,0,0c0.2,0,0.3-0.1,0.3-0.2c0.1-0.5,0.2-1.1,0.3-1.6
		c0.2-1.2,0.4-2.4,0.6-3.6c0.3-1.6,1.1-2.7,2.4-3.5c0.9-0.5,1.9-0.8,3.3-1.1c0.4-0.1,0.8-0.1,1.2-0.2l0.6-0.1c0.1,0,0.2-0.1,0.2-0.2
		C376.1,416.4,376,416.3,375.8,416.2z"/>
	<path d="M389.2,239.4c-0.4-0.1-0.7-0.1-1-0.2c-0.7-0.1-1.4-0.2-2-0.4c-2.1-0.5-3.5-1.5-4-3c-0.3-0.7-0.5-1.5-0.6-2.2
		c-0.1-0.4-0.2-0.8-0.2-1.2c-0.2-1.2-0.5-2.8-0.5-3c0,0,0,0,0,0c0-0.1-0.1-0.3-0.3-0.3c-0.2,0-0.3,0.1-0.3,0.2c0,0,0,0,0,0
		c0,0,0,0,0,0v0c0,0.3-0.6,4-1,5.7c-0.5,2.1-2,3.4-4.7,3.9c-0.6,0.1-1.1,0.2-1.8,0.3l-1,0.2c-0.1,0-0.2,0.1-0.3,0.2
		c0,0.1,0.1,0.2,0.2,0.2l0.8,0.2c0.5,0.1,1,0.2,1.5,0.3c2.9,0.6,4.6,1.9,5.1,4c0.2,1,0.4,1.9,0.6,2.9l0.1,0.6
		c0.1,0.5,0.2,0.9,0.2,1.4l0.1,0.7c0,0.1,0.2,0.2,0.3,0.2c0,0,0,0,0,0c0.2,0,0.3-0.1,0.3-0.2c0.1-0.5,0.2-1.1,0.3-1.6
		c0.2-1.2,0.4-2.4,0.6-3.6c0.3-1.6,1.1-2.7,2.4-3.5c0.9-0.5,1.9-0.8,3.3-1.1c0.4-0.1,0.8-0.1,1.2-0.2l0.6-0.1c0.1,0,0.2-0.1,0.2-0.2
		C389.5,239.5,389.4,239.4,389.2,239.4z"/>
	<path d="M150.8,107c-0.4-0.1-0.7-0.1-1-0.2c-0.7-0.1-1.4-0.2-2-0.4c-2.1-0.5-3.5-1.5-4-3c-0.3-0.7-0.5-1.5-0.6-2.2
		c-0.1-0.4-0.2-0.8-0.2-1.2c-0.2-1.2-0.5-2.8-0.5-3c0,0,0,0,0,0c0-0.1-0.1-0.3-0.3-0.3c-0.2,0-0.3,0.1-0.3,0.2c0,0,0,0,0,0
		c0,0,0,0,0,0v0c0,0.3-0.6,4-1,5.7c-0.5,2.1-2,3.4-4.7,3.9c-0.6,0.1-1.1,0.2-1.8,0.3l-1,0.2c-0.1,0-0.2,0.1-0.3,0.2
		c0,0.1,0.1,0.2,0.2,0.2l0.8,0.2c0.5,0.1,1,0.2,1.5,0.3c2.9,0.6,4.6,1.9,5.1,4c0.2,1,0.4,1.9,0.6,2.9l0.1,0.6
		c0.1,0.5,0.2,0.9,0.2,1.4l0.1,0.7c0,0.1,0.2,0.2,0.3,0.2c0,0,0,0,0,0c0.2,0,0.3-0.1,0.3-0.2c0.1-0.5,0.2-1.1,0.3-1.6
		c0.2-1.2,0.4-2.4,0.6-3.6c0.3-1.6,1.1-2.7,2.4-3.5c0.9-0.5,1.9-0.8,3.3-1.1c0.4-0.1,0.8-0.1,1.2-0.2l0.6-0.1c0.1,0,0.2-0.1,0.2-0.2
		C151,107.2,150.9,107.1,150.8,107z"/>
	<path d="M206,60c-0.4-0.1-0.9-0.2-1.3-0.3c-0.9-0.2-1.7-0.4-2.5-0.6c-2.6-0.7-4.3-2.3-4.9-4.8c-0.3-1.2-0.6-2.3-0.7-3.5
		c-0.1-0.6-0.2-1.2-0.3-1.9c-0.3-1.8-0.7-4.4-0.6-4.7c0,0,0,0,0,0c0-0.2-0.2-0.4-0.4-0.4c-0.2,0-0.4,0.2-0.4,0.4c0,0,0,0,0,0
		c0,0,0,0,0,0v0c0,0.5-0.8,6.2-1.2,8.9c-0.6,3.3-2.5,5.4-5.8,6.1c-0.7,0.2-1.4,0.3-2.1,0.5l-1.2,0.2c-0.2,0-0.3,0.2-0.3,0.4
		c0,0.2,0.1,0.3,0.3,0.4l1,0.2c0.7,0.2,1.2,0.3,1.8,0.4c3.5,0.9,5.6,2.9,6.2,6.2c0.3,1.5,0.5,3,0.7,4.5l0.1,1
		c0.1,0.7,0.2,1.5,0.3,2.3l0.1,1.1c0,0.2,0.2,0.3,0.4,0.3c0,0,0,0,0,0c0.2,0,0.4-0.1,0.4-0.3c0.1-0.9,0.2-1.7,0.3-2.5
		c0.2-1.9,0.5-3.8,0.8-5.6c0.4-2.6,1.4-4.3,3-5.5c1.1-0.8,2.3-1.3,4-1.7c0.5-0.1,1-0.2,1.5-0.3l0.8-0.2c0.2,0,0.3-0.2,0.3-0.4
		C206.3,60.2,206.2,60.1,206,60z"/>
	<path d="M171.1,243.8c-0.4-0.1-0.8-0.1-1.2-0.2c-0.8-0.1-1.6-0.3-2.3-0.4c-2.5-0.5-4-1.7-4.7-3.5c-0.3-0.8-0.5-1.7-0.7-2.5
		c-0.1-0.4-0.2-0.9-0.3-1.4c-0.3-1.4-0.6-3.2-0.6-3.4c0,0,0,0,0,0c0-0.2-0.1-0.3-0.3-0.3c-0.2,0-0.4,0.1-0.4,0.3c0,0,0,0,0,0
		c0,0,0,0,0,0v0c0,0.4-0.7,4.6-1.2,6.5c-0.5,2.4-2.4,4-5.4,4.5c-0.7,0.1-1.3,0.2-2,0.3l-1.1,0.2c-0.2,0-0.3,0.1-0.3,0.3
		c0,0.1,0.1,0.3,0.3,0.3l0.9,0.2c0.6,0.1,1.2,0.2,1.7,0.3c3.3,0.7,5.2,2.2,5.8,4.6c0.3,1.1,0.5,2.2,0.7,3.3l0.1,0.7
		c0.1,0.5,0.2,1.1,0.3,1.7l0.1,0.8c0,0.1,0.2,0.3,0.4,0.3c0,0,0,0,0,0c0.2,0,0.3-0.1,0.4-0.2c0.1-0.6,0.2-1.2,0.3-1.9
		c0.2-1.4,0.4-2.8,0.7-4.1c0.4-1.9,1.3-3.1,2.8-4c1-0.6,2.2-0.9,3.8-1.3c0.5-0.1,0.9-0.2,1.4-0.3l0.7-0.1c0.2,0,0.3-0.1,0.3-0.3
		C171.4,243.9,171.3,243.8,171.1,243.8z"/>
	<path d="M203.8,421.7c-0.4-0.1-0.7-0.1-1-0.2c-0.7-0.1-1.4-0.2-2-0.4c-2.1-0.5-3.5-1.5-4-3c-0.3-0.7-0.5-1.5-0.6-2.2
		c-0.1-0.4-0.2-0.8-0.2-1.2c-0.2-1.2-0.5-2.8-0.5-3c0,0,0,0,0,0c0-0.1-0.1-0.3-0.3-0.3c-0.2,0-0.3,0.1-0.3,0.2c0,0,0,0,0,0
		c0,0,0,0,0,0v0c0,0.3-0.6,4-1,5.7c-0.5,2.1-2,3.4-4.7,3.9c-0.6,0.1-1.1,0.2-1.8,0.3l-1,0.2c-0.1,0-0.2,0.1-0.3,0.2
		c0,0.1,0.1,0.2,0.2,0.2l0.8,0.2c0.5,0.1,1,0.2,1.5,0.3c2.9,0.6,4.6,1.9,5.1,4c0.2,1,0.4,1.9,0.6,2.9l0.1,0.6
		c0.1,0.5,0.2,0.9,0.2,1.4l0.1,0.7c0,0.1,0.2,0.2,0.3,0.2c0,0,0,0,0,0c0.2,0,0.3-0.1,0.3-0.2c0.1-0.5,0.2-1.1,0.3-1.6
		c0.2-1.2,0.4-2.4,0.6-3.6c0.3-1.6,1.1-2.7,2.4-3.5c0.9-0.5,1.9-0.8,3.3-1.1c0.4-0.1,0.8-0.1,1.2-0.2l0.6-0.1c0.1,0,0.2-0.1,0.2-0.2
		C204.1,421.8,204,421.7,203.8,421.7z"/>
	<path d="M129,328.6c-0.3,0-0.5-0.1-0.7-0.1c-0.5-0.1-1-0.2-1.5-0.3c-1.5-0.3-2.5-1.1-2.9-2.2c-0.2-0.5-0.3-1.1-0.4-1.6
		c0-0.3-0.1-0.6-0.2-0.9c-0.2-0.8-0.4-2-0.4-2.1c0,0,0,0,0,0c0-0.1-0.1-0.2-0.2-0.2c-0.1,0-0.2,0.1-0.2,0.2c0,0,0,0,0,0c0,0,0,0,0,0
		v0c0,0.2-0.5,2.8-0.7,4c-0.3,1.5-1.5,2.4-3.4,2.8c-0.4,0.1-0.8,0.1-1.3,0.2l-0.7,0.1c-0.1,0-0.2,0.1-0.2,0.2c0,0.1,0.1,0.2,0.2,0.2
		l0.6,0.1c0.4,0.1,0.7,0.1,1.1,0.2c2.1,0.4,3.3,1.3,3.6,2.8c0.2,0.7,0.3,1.4,0.4,2.1l0.1,0.4c0.1,0.3,0.1,0.7,0.2,1l0.1,0.5
		c0,0.1,0.1,0.2,0.2,0.2c0,0,0,0,0,0c0.1,0,0.2-0.1,0.2-0.2c0.1-0.4,0.1-0.8,0.2-1.2c0.1-0.9,0.3-1.7,0.4-2.5
		c0.2-1.2,0.8-1.9,1.7-2.5c0.6-0.3,1.3-0.6,2.4-0.8c0.3-0.1,0.6-0.1,0.9-0.2l0.4-0.1c0.1,0,0.2-0.1,0.2-0.2
		C129.2,328.7,129.1,328.6,129,328.6z"/>
</g>
</svg>
