<?xml version="1.0" encoding="utf-8"?>
<!-- Generator: Adobe Illustrator 28.0.0, SVG Export Plug-In . SVG Version: 6.00 Build 0)  -->
<svg version="1.1" id="Layer_1" xmlns="http://www.w3.org/2000/svg" xmlns:xlink="http://www.w3.org/1999/xlink" x="0px" y="0px"
	 viewBox="0 0 300 300" style="enable-background:new 0 0 300 300;" xml:space="preserve">
<style type="text/css">
	.st0{fill:#91674A;}
	.st1{fill:#EFB2C0;}
	.st2{fill:#CEDDDD;}
	.st3{fill:#FFFFFF;}
	.st4{fill:#FCE5ED;}
</style>
<g>
	<path class="st0" d="M283.76,172.67c-0.08-2.64-0.63-4.94-2.48-6.95c-3.61-3.92-7.7-6.98-13.05-8.04c-2.01-0.4-4.01-0.57-6.06-0.18
		c-3.57,0.69-6.55,2.56-9.47,4.58c-1.52,1.05-3.08,2.04-4.72,3.13c-1.65-7.14-4.36-13.4-10.92-17.28c1.17-0.63,2.2-1.18,3.22-1.73
		c3.36-1.8,6.66-3.69,9.24-6.58c1.93-2.16,3.91-4.29,5.74-6.55c1.92-2.37,3.48-4.96,4.25-7.97c0.82-3.18-0.02-5.79-2.52-7.88
		c-2.21-1.85-4.62-3.4-7.3-4.5c-3.33-1.37-6.66-2.74-10.02-4.02c-1.95-0.74-3.96-1.34-5.97-1.91c-0.77-0.22-1.62-0.17-2.44-0.24
		c0-0.51-0.02-0.91,0-1.31c0.33-4.8-0.1-9.53-1.27-14.2c-1.05-4.22-2.3-8.37-4.55-12.13c-1.65-2.75-3.87-4.49-7.41-4.32
		c-4.3,0.21-8.61,0.03-12.92,0.06c-0.7,0-1.17-0.14-1.57-0.77c-0.85-1.34-2.16-2.04-3.68-1.61c-1.64,0.46-3.19,1.29-4.78,1.93
		c-0.48,0.19-0.99,0.42-1.49,0.42c-33.89,0.02-67.77,0.02-101.66-0.01c-0.5,0-1.04-0.3-1.51-0.56c-1.34-0.74-2.6-1.63-3.97-2.27
		c-1.48-0.69-2.88-0.33-4,0.89c-0.4,0.44-0.71,0.97-1.12,1.4c-0.24,0.25-0.6,0.54-0.91,0.54c-5.48,0.03-10.95,0.08-16.42-0.02
		c-2.3-0.04-3.97,0.73-5.28,2.59c-1.88,2.68-2.9,5.69-3.62,8.83c-1,4.42-1.21,8.93-1.16,13.44c0.09,8.48,0.91,16.84,4.56,24.73
		c-5.6,0-11.21,0.04-16.81-0.03c-1.17-0.01-2.22,0.14-2.8,1.13c-0.67,1.13-1.28,2.35-1.59,3.61c-2.11,8.62-2.34,17.37-1.51,26.16
		c0.35,3.7,1.07,7.33,2.72,10.71c0.04,0.07,0,0.18,0,0.3c-0.16,0.02-0.29,0.06-0.41,0.06c-4.64,0-9.28-0.01-13.92,0
		c-0.48,0-1.09,0.02-1.42,0.29c-1.04,0.86-2.24,1.7-2.89,2.83c-1.01,1.73-2,3.63-2.33,5.58c-0.67,3.97-1.08,8-1.26,12.02
		c-0.25,5.7,0.67,11.32,1.78,16.89c0.44,2.19,1.36,4.31,2.32,6.34c0.62,1.31,1.65,2.51,3.5,1.85c0.21-0.07,0.46-0.01,0.7-0.01
		c3,0,6.01,0,9.01,0c1.19,0,2.39,0,3.62,0c-0.33,1.39-0.68,2.67-0.93,3.97c-1.5,8.03-1.57,16.14-0.89,24.24
		c0.26,3.14,0.89,6.27,1.59,9.35c0.47,2.07,0.93,2.23,3.05,2.23c24.74,0,49.48,0,74.22,0c36.39,0.01,72.78,0.03,109.17,0.02
		c0.44,0,0.91-0.17,1.3-0.38c1.75-0.93,2.39-2.63,2.87-4.39c1.55-5.63,1.71-11.41,1.5-17.19c-0.21-5.92-0.7-11.84-1.07-17.82
		c0.11-0.01,0.4-0.04,0.69-0.04c3.77,0,7.55-0.04,11.32,0.02c1.9,0.03,3.25-0.76,4.22-2.34c1.22-1.98,1.77-4.17,2-6.44
		c0.64-6.57,0.27-13.14,0.07-19.71c-0.05-1.79-0.32-3.57-0.51-5.54c5.68,1.88,11.31,3.1,17.19,1.62c0,1.43,0.02,2.7,0,3.96
		c-0.05,2.3-0.13,4.6-0.17,6.91c-0.03,1.87,0.69,3.42,1.96,4.77c2.1,2.23,4.17,4.51,6.25,6.76c2.28,2.46,4.79,4.63,7.67,6.37
		c0.61,0.37,1.35,0.62,1.84,0.05c0.38-0.43,0.52-1.15,0.58-1.76c0.05-0.58-0.17-1.18-0.24-1.78c-0.51-5,0.07-9.95,0.96-14.84
		C282.87,184.21,283.95,178.53,283.76,172.67z M207.87,166.02c2.71-5.76,2.05-11.87,2.11-17.88c4.29,0.43,8.46,0.84,12.77,1.27
		c0.25,5.64,1.08,11.29,3.81,16.6C220.36,166.02,214.25,166.02,207.87,166.02z M228.25,128.85c-0.26-0.01-0.51-0.09-0.77-0.14
		c-0.05-0.12-0.09-0.23-0.14-0.35c2.18-1.39,4.29-2.93,6.56-4.15c3.02-1.62,6.08-3.2,9.53-3.76c1.72-0.28,1.74-0.28,2.3,1.4
		c0.69,2.07,1.14,4.18,0.95,6.38c-0.05,0.54-0.21,0.87-0.78,0.95c-0.56,0.08-1.11,0.34-1.66,0.32
		C238.91,129.31,233.58,129.07,228.25,128.85z"/>
	<path class="st1" d="M143.14,124.25c-13.62,0-27.24-0.02-40.86,0.03c-1.46,0.01-2.18-0.7-2.72-1.84
		c-2.61-5.56-3.76-11.44-3.71-17.57c0.05-6.42,0.41-12.83,2.33-19c0.88-2.81,2.29-5.46,3.54-8.14c0.15-0.31,0.78-0.56,1.2-0.56
		c6.68-0.03,13.35-0.03,20.03-0.03c19.86,0,39.72,0.01,59.59-0.03c1.11,0,1.48,0.4,1.76,1.38c1.65,5.73,1.97,11.63,2.35,17.52
		c0.45,6.97,0.57,13.94-0.15,20.9c-0.22,2.12-0.65,4.22-0.9,6.34c-0.1,0.81-0.41,1.02-1.2,1.02c-6.94-0.03-13.89-0.02-20.83-0.02
		C156.76,124.25,149.95,124.25,143.14,124.25z M79.42,77.14c-5.27,0-10.55,0.09-15.81-0.06c-1.53-0.04-2.34,0.52-3.08,1.65
		c-1.8,2.73-2.68,5.81-3.19,8.97c-1.56,9.67-1.1,19.28,1.06,28.81c0.56,2.46,1.31,4.9,2.93,6.95c0.46,0.58,0.96,0.8,1.7,0.8
		c5.27-0.03,10.54-0.02,15.81-0.02c0.35,0,0.7,0,1.08,0c-0.75-2.5-1.38-4.83-3.14-6.73c-2.21-2.38-2.45-5.23-1.31-8.22
		c0.3-0.78,0.53-1.63,1.02-2.27c1.86-2.39,1.3-5.12,1.27-7.79c0-0.27-0.19-0.57-0.38-0.79c-1.9-2.28-1.97-4.67-0.36-7.09
		c1.11-1.66,2.29-3.28,3.48-4.88c0.71-0.95,1.05-1.81,0.36-3c-0.42-0.72-0.49-1.71-0.51-2.58c-0.03-1.19,0.13-2.39,0.22-3.71
		C80.08,77.17,79.75,77.14,79.42,77.14z M205.14,77.5c0.01,0.13,0.03,0.27,0.06,0.4c0.63,2.91,0.86,5.75-1.14,8.32
		c-0.16,0.2-0.09,0.71,0.05,0.98c0.79,1.54,1.56,3.1,2.48,4.57c1.11,1.79,1.57,3.52,0.57,5.56c-0.35,0.72-0.44,1.87-0.11,2.55
		c1.89,3.87,2.26,7.82,0.32,11.65c-1.22,2.42-0.29,4.55-0.13,6.93c2.1-1.77,3.97-3.54,6.03-5.06c4.39-3.25,9.13-5.79,14.65-6.52
		c0.7-0.09,0.76-0.47,0.8-1.01c0.65-8.7-1.14-16.91-4.92-24.72c-0.46-0.94-1.12-1.82-1.82-2.61c-0.86-0.98-1.93-1.47-3.35-1.44
		c-4.1,0.09-8.21,0.03-12.32,0.03c-0.36,0-0.73,0-1.11,0C205.16,77.37,205.13,77.44,205.14,77.5z"/>
	<path class="st2" d="M199.44,126.76c-1.51,1.84-2.62,3.71-4.76,4.64c-0.13-0.18-0.26-0.32-0.36-0.49
		c-0.94-1.68-2.25-2.88-4.28-2.81c-1.97,0.06-3.04,1.49-3.94,3.02c-0.3,0.51-0.46,1.09-0.7,1.66c-2.29-1.12-4.54-1.93-6.62,0.43
		c-3.04-2.3-6.55-3.42-10.27-3.82c-3.44-0.38-6.88-0.07-10.26,0.6c-5.12,1.01-10.21,0.9-15.33,0.04c-3.72-0.62-7.47-0.77-11.11,0.35
		c-1.46,0.45-2.78,1.36-4.15,2.1c-0.24,0.13-0.45,0.43-0.54,0.69c-2.1,6.09-3.3,12.33-2.5,18.77c0.66,5.32,4.38,8.64,9.73,9.1
		c4.42,0.38,8.71-0.48,13-1.33c0.52-0.1,1.04-0.2,1.88-0.36c-1.13,1.33-2.18,2.37-2.99,3.57c-0.61,0.9-1.28,0.81-2.18,0.78
		c-5.63-0.23-11.28-0.68-16.83,0.72c-1.25,0.32-2.42,0.93-3.65,1.36c-0.49,0.17-1.02,0.33-1.54,0.33
		c-26.51,0.02-53.01,0.01-79.52,0.03c-0.66,0-1-0.22-1.33-0.78c-1.55-2.68-2.26-5.63-2.64-8.65c-1.18-9.31-0.88-18.58,1.16-27.76
		c0.48-2.18,0.53-2.17,2.78-2.17c12.95,0,25.91,0,38.86,0c38.86,0,77.71,0,116.57,0C198.33,126.76,198.75,126.76,199.44,126.76z
		 M184.31,144.57c-2.08,4.99-5.31,9.22-8.85,13.25c-3.29,3.75-7.18,6.55-12.03,7.91c-0.18,0.05-0.35,0.15-0.68,0.3
		c0.3,0.05,0.39,0.08,0.49,0.08c13.75,0,27.5,0,41.25,0.01c0.69,0,1.07-0.3,1.25-0.91c0.48-1.6,1.23-3.18,1.34-4.8
		c0.28-4.15,0.28-8.32,0.33-12.49c0-0.24-0.51-0.62-0.84-0.71c-4.88-1.3-9.94-2.09-14.2-5.45c-1.66,3.9-4.61,3.41-7.72,2.23
		C184.51,144.24,184.38,144.39,184.31,144.57z"/>
	<path class="st3" d="M194.12,168.63c-1.49,4.63-0.22,8.27,3.29,11.34c-1.63,1.6-2.4,3.59-2.39,5.89c0.02,2.37,0.83,4.3,3.1,5.5
		c-1.43,1.27-2.59,2.63-2.68,4.57c-0.09,1.91,0.54,3.53,2.06,4.75c-3.22,3.26-3.51,4.58-1.8,8.6c-22.6,0-45.15,0-67.66,0
		c0-1.46,0.03-2.91-0.01-4.36c-0.04-1.8-0.14-3.6-0.2-5.4c-0.01-0.36,0.03-0.73,0.13-1.07c0.97-3.47,1-6.9-0.23-10.33
		c-0.49-1.38-0.91-2.79-1.27-4.21c-0.4-1.58-0.22-1.82,1.33-2.18c4.23-0.96,8.2-2.56,11.94-4.75c5.08-2.97,10.35-5.49,15.92-7.43
		c1.73-0.6,3.41-0.96,5.24-0.95c10.65,0.05,21.29,0.02,31.94,0.02C193.24,168.63,193.63,168.63,194.12,168.63z M107.86,190.42
		c-0.63-4.07-0.34-7.96,1.91-11.57c2.21-3.54,4.94-6.62,8.01-9.43c0.23-0.21,0.46-0.41,0.78-0.71c-17.06,0-33.95,0-50.96,0
		c1.27,1.55,1.73,3.18,1.39,5.05c-0.36,1.96-1.69,3.08-3.34,3.91c2.3,3.67,1.93,6.49-1.34,10.38c2.24,1.26,3,3.37,3.22,5.76
		c0.23,2.4-0.53,4.51-2.12,6.36c1.76,0.95,2.94,2.26,3.41,4.12c0.49,1.93-0.08,3.59-1.65,5.1c0.58,0,0.94,0,1.3,0
		c14.82,0,29.64-0.01,44.46,0.02c1.2,0,2.22-0.3,3.22-1.08C111.76,203.06,108.91,197.16,107.86,190.42z M41.68,168.63
		c-5.71,0-11.42,0.02-17.12-0.02c-0.97-0.01-1.65,0.34-2.23,1.07c-1.29,1.64-2.16,3.52-2.43,5.53c-0.53,3.96-0.97,7.95-1.14,11.94
		c-0.21,4.85,0.67,9.64,1.41,14.42c0.37,2.39,0.97,4.7,2.09,6.85c0.31,0.59,0.7,0.97,1.47,0.97c5.73-0.03,11.47-0.01,17.2-0.02
		c0.2,0,0.41-0.07,0.67-0.11c-2.71-2.95-2.54-7.45-0.77-10.65c-3.95-4.26-4.11-6.64-0.73-11.1c-2.05-1.42-2.6-3.32-1.86-5.68
		c0.71-2.28,1.62-4.39,4.02-5.45c-1.34-2.64-1.17-5.17,0.41-7.7C42.26,168.66,41.97,168.63,41.68,168.63z M222.97,209.38
		c5.7-0.01,11.41-0.08,17.11,0.01c1.33,0.02,2.07-0.48,2.41-1.57c0.52-1.64,1.17-3.31,1.27-5c0.49-8.37,0.46-16.73-0.6-25.07
		c-0.05-0.39-0.44-0.86-0.8-1.06c-1.73-0.93-3.5-1.79-5.25-2.66c-1.63-0.81-3.28-1.59-4.9-2.43c-0.76-0.4-1.64-0.77-2.15-1.4
		c-1.17-1.45-2.61-1.68-4.32-1.59c-2.11,0.11-4.23,0.03-6.64,0.03c1.47,1.42,2.31,2.93,2.23,4.68c-0.08,1.69-0.49,3.37-0.76,5.11
		c2.52,0.98,3.61,3.19,4.04,5.88c0.44,2.78-0.48,5.11-2.33,7.13c3.27,2.71,3.08,6.74-0.24,9.69c1.75,2.69,2.19,5.38,0.09,8.21
		C222.46,209.35,222.72,209.38,222.97,209.38z M213.43,209.35c0.21,0,0.54-0.29,0.61-0.5c1.12-3.45,2.44-6.86,2.73-10.52
		c0.65-8.1,0.16-16.14-1.72-24.05c-0.41-1.73-1.47-3.32-2.25-4.96c-0.27-0.58-0.78-0.7-1.41-0.7c-3.7,0.03-7.41,0.01-11.11,0.02
		c-0.27,0-0.55,0.04-0.62,0.05c0.78,2.22,1.68,4.34,2.28,6.54c1.74,6.38,1.81,12.93,1.67,19.47c-0.04,2.03-0.03,4.1-0.42,6.08
		c-0.55,2.86-1.44,5.66-2.21,8.59C205.04,209.37,209.24,209.38,213.43,209.35z M52.55,168.63c-2.39,0-2.43-0.01-3.27,2.27
		c-3.02,8.29-4.64,16.8-3.51,25.62c0.49,3.85,1.52,7.64,2.31,11.46c0.22,1.06,0.78,1.46,1.94,1.44c3.67-0.09,7.34-0.03,11.01-0.04
		c0.35,0,0.7-0.03,1.18-0.06c-4.68-13.63-5.28-27.12,0.52-40.69C59.16,168.63,55.86,168.63,52.55,168.63z"/>
	<path class="st3" d="M195.67,124.25c0.38-1.95,0.77-3.7,1.07-5.47c1-6.03,0.8-12.12,0.55-18.18c-0.19-4.63-0.49-9.27-0.98-13.87
		c-0.29-2.7-1.01-5.36-1.64-8.02c-0.17-0.72-0.18-1.26,0.48-1.63c1.41-0.8,2.8-1.67,4.29-2.3c1.24-0.52,1.87-0.17,2.42,1.03
		c0.94,2.03,1.39,4.2,1.2,6.43c-0.14,1.63-1.19,2.77-2.46,3.72c-0.53,0.4-1.09,0.77-1.55,1.25c-0.46,0.48-0.55,1.11-0.04,1.62
		c0.54,0.54,1.14,0.43,1.7-0.03c0.28-0.23,0.56-0.46,0.93-0.76c1.17,2.15,2.32,4.2,3.39,6.3c0.18,0.35,0.09,0.93-0.05,1.33
		c-0.83,2.39-1.71,4.76-2.57,7.13c-0.26,0.72-0.3,1.45,0.53,1.79c0.82,0.34,1.32-0.17,1.64-0.88c0.21-0.45,0.41-0.91,0.7-1.56
		c1.23,3.53,0.92,6.7-0.89,9.82c-0.46-0.22-0.91-0.59-1.39-0.61c-0.48-0.02-1.16,0.17-1.43,0.52c-0.43,0.54-0.12,1.16,0.48,1.51
		c1.58,0.92,2.29,2.34,2.49,4.1c0.03,0.3,0.08,0.59,0.12,0.89c0.21,1.59-0.13,2.87-1.33,4.14c-1.24,1.31-2.45,1.96-4.23,1.76
		C198.02,124.15,196.91,124.25,195.67,124.25z M98.81,77.15c-1.8-0.01-3.61,0.02-5.41-0.02c-0.72-0.02-1.13,0.27-1.36,0.92
		c-0.31,0.88-0.63,1.76-0.95,2.64c-3.69,10.31-5.15,20.88-3.73,31.79c0.48,3.67,1.65,7.07,3.82,10.08c0.44,0.61,0.95,1.51,1.53,1.6
		c1.55,0.22,3.15,0.08,4.97,0.08c-3.95-7.59-4.67-15.53-4.26-23.67c0.4-8.13,1.51-16.08,5.94-23.29
		C99,77.19,98.91,77.15,98.81,77.15z M192.24,124.26c0.64,0.02,0.85-0.25,0.99-0.83c0.9-3.91,1.71-7.85,1.64-11.87
		c-0.12-7.23-0.38-14.47-0.71-21.7c-0.18-4.04-0.81-8.03-2.14-11.87c-0.11-0.31-0.37-0.8-0.58-0.8c-1.68-0.07-3.36-0.04-4.92-0.04
		c3.47,15.64,3.91,31.23,1.56,47.09C189.52,124.25,190.88,124.22,192.24,124.26z M80.15,116.19c0.86-0.61,1.62-0.64,2.06-0.08
		c0.47,0.59,0.24,1.15-0.58,1.93c-0.29,0.28-0.59,0.84-0.51,1.17c0.33,1.35,0.77,2.68,1.27,3.99c0.13,0.34,0.58,0.77,0.9,0.78
		c1.9,0.07,3.8,0.04,5.74,0.04c-1.49-2.49-2.89-4.95-3.51-7.76c-1.71-7.71-1.49-15.45-0.27-23.18c0.82-5.22,2.38-10.25,4.39-15.14
		c0.32-0.79,0.19-1.39-0.46-1.84c-0.96-0.66-1.92-1.32-2.96-1.83c-1.31-0.66-2.31-0.38-2.64,1.04c-0.44,1.92-0.67,3.96-0.54,5.92
		c0.05,0.75,1.36,1.41,2.1,2.11c0.12,0.11,0.25,0.22,0.37,0.34c0.51,0.49,0.91,1.06,0.45,1.76c-0.47,0.71-1.13,0.56-1.77,0.19
		c-0.1-0.06-0.22-0.08-0.15-0.05c-0.74,1.11-1.43,2.12-2.1,3.14c-1.09,1.64-2.2,3.25-3.23,4.92c-0.46,0.75-0.53,1.64,0.17,2.31
		c0.86,0.83,1.86,1.51,2.72,2.34c0.34,0.32,0.72,0.92,0.63,1.27c-0.09,0.35-0.74,0.59-1.17,0.81c-0.17,0.09-0.44-0.01-0.73-0.03
		c0,0.43-0.05,0.8,0.01,1.15c0.37,2.14-0.1,4.08-1.2,5.95c-0.57,0.97-1,2.03-1.41,3.08c-0.94,2.47-0.12,4.48,1.7,6.25
		C79.69,116.56,79.91,116.36,80.15,116.19z"/>
	<path class="st1" d="M181.49,141.97c-5.12,6.3-12.25,8.97-19.52,11.31c-6.41,2.06-12.95,3.75-19.62,4.75
		c-2.43,0.36-4.92,0.56-7.37,0.47c-4.65-0.16-7.35-2.81-7.96-7.41c-0.44-3.36,0.06-6.66,0.51-9.96c0.13-0.99,0.29-1.97,0.45-3.06
		c0.86,0.71,1.6,1.35,2.38,1.94c2.02,1.53,4.41,2.02,6.84,2.32c1.85,0.23,3.72,0.32,5.59,0.46c5.38,0.42,10.55-0.79,15.69-2.13
		c4.71-1.23,9.4-2.54,14.09-3.81c1.7-0.46,3.42-0.55,5.14-0.1c0.25,0.07,0.61,0.27,0.66,0.47
		C178.86,139.19,180.08,140.67,181.49,141.97z M233.77,131.8c-6.09-0.45-12.14-1.29-18.22-1.93c-4.47-0.47-8.85-0.29-13.04,1.64
		c-1.59,0.73-3.34,1.12-5.02,1.67c-0.54,0.18-1.1,0.3-1.6,0.56c-0.25,0.13-0.53,0.51-0.53,0.77c0.01,1.68-0.37,3.25-1.27,4.67
		c-0.3,0.47-0.27,0.82,0.2,1.07c1.46,0.78,2.87,1.74,4.42,2.25c9.73,3.21,19.75,4.53,29.97,4.33c3.78-0.07,7.49-0.7,10.54-3.17
		c3.72-3.02,6.31-6.75,6.73-11.8C241.84,131.86,237.78,132.1,233.77,131.8z M243,116.12c-3.29-5.25-7.89-7.73-14.18-6.84
		c-3.7,0.52-7.11,1.76-10.28,3.67c-6.6,3.98-11.9,9.41-16.92,15.16c-0.42,0.48-0.78,1-1.17,1.5c0.54-0.05,0.98-0.2,1.39-0.4
		c3.89-1.95,8.06-2.28,12.29-2c2.59,0.18,5.19,0.48,7.75,0.92c1.71,0.29,3.11,0.16,4.11-1.41c0.09-0.14,0.24-0.23,0.37-0.33
		c5.2-4.08,10.83-7.28,17.55-8.68C243.58,117.14,243.31,116.62,243,116.12z M96.66,237.46c6.07-1.7,11.77-4.26,17.13-7.56
		c3.78-2.33,6.8-5.38,8.32-9.66c0.93-2.64,1.81-5.29,2.59-7.98c0.81-2.8,0.94-5.68,0.8-8.75c-0.28,0.3-0.44,0.49-0.62,0.66
		c-1.39,1.34-2.71,2.76-4.18,4c-3.68,3.13-8.04,5.11-12.49,6.83c-3.3,1.28-5.57,3.47-6.94,6.64c-1.23,2.84-2.47,5.69-3.46,8.62
		c-0.78,2.31-1.19,4.75-1.8,7.24C96.42,237.48,96.55,237.49,96.66,237.46z M239.81,172.78c4.71,2.39,9.71,3.91,14.91,4.65
		c4.38,0.62,8.53-0.06,12.32-2.61c3.28-2.21,6.51-4.55,10.27-5.95c0.78-0.29,1.54-0.61,2.36-0.93c-0.21-0.3-0.35-0.56-0.55-0.78
		c-3.08-3.41-6.65-6.09-11.28-6.94c-1.55-0.28-3.19-0.43-4.75-0.26c-3.39,0.36-6.12,2.28-8.88,4.13c-3.65,2.44-7.2,5.09-11.38,6.62
		c-1.36,0.5-2.77,0.87-4.33,1.36C239.02,172.35,239.41,172.57,239.81,172.78z M278.27,204.47c-0.3-5.6,0.26-11.13,1.36-16.6
		c1-5.01,1.81-10.03,1.74-15.16c-0.01-0.82-0.08-1.63-0.12-2.54c-0.33,0.09-0.52,0.13-0.71,0.2c-3.01,1.03-5.86,2.37-8.5,4.16
		c-1.93,1.31-3.95,2.48-5.89,3.77c-0.29,0.19-0.55,0.67-0.56,1.02c-0.12,3.67-0.2,7.33-0.27,11c-0.02,1.19,0.45,2.19,1.26,3.06
		c2.09,2.24,4.12,4.54,6.26,6.73c1.65,1.68,3.43,3.23,5.34,5.01C278.25,204.66,278.27,204.57,278.27,204.47z M149.41,166.74
		c-5.41-0.7-10.84-0.86-16.28-0.69c-3.32,0.11-6.41,0.97-9.39,2.46c-4.2,2.1-7.19,5.46-10.02,9.03c-0.75,0.94-1.37,1.99-2.15,3.13
		c0.44,0.03,0.6,0.06,0.76,0.05c2.73-0.16,5.46-0.33,8.19-0.48c6.06-0.34,11.75-1.99,17.04-4.96c5.41-3.04,10.85-6,16.8-7.9
		c0.14-0.05,0.27-0.14,0.62-0.33C152.94,166.95,151.16,166.97,149.41,166.74z M225.81,155.8c0.66,3.7,1.69,7.28,3.94,10.37
		c1.51,2.08,3.31,3.67,6.12,3.51c3.26-0.19,6.27-1.22,9.12-2.75c0.27-0.14,0.53-0.69,0.48-0.99c-0.22-1.21-0.53-2.41-0.88-3.59
		c-1.51-5.14-4.07-9.54-8.71-12.52c-1.11-0.71-2.15-1.28-3.51-0.82c-0.43,0.15-0.92,0.18-1.38,0.19c-1.93,0.02-3.86,0.01-6.04,0.01
		C225.25,151.59,225.44,153.71,225.81,155.8z M123.13,202.24c2.73-3.41,3.67-7.38,2.76-11.66c-0.57-2.69-1.41-5.32-2.15-8.03
		c-1.41,0.09-2.97,0.2-4.53,0.29c-2.6,0.16-5.19,0.31-7.79,0.45c-0.72,0.04-1.2,0.18-1.3,1.11c-0.23,2.08-0.13,4.11,0.26,6.16
		c1.16,6.1,3.8,11.48,8.04,16.51C120.05,205.43,121.75,203.97,123.13,202.24z M173.43,133.15c-4.38-1.73-8.9-1.67-13.41-0.87
		c-5.33,0.95-10.64,1.25-16.03,0.49c-2.63-0.37-5.32-0.62-7.96-0.52c-1.88,0.08-3.78,0.71-5.58,1.35c-1.25,0.45-1.38,1.44-0.58,2.51
		c1.27,1.69,2.97,2.87,5.04,3.19c2.99,0.47,6.02,0.78,9.04,0.97c1.75,0.11,3.57,0.08,5.28-0.28c5.44-1.15,10.85-2.46,16.26-3.75
		c3.2-0.76,6.39-1.6,9.6-2.41C174.63,133.65,174.03,133.39,173.43,133.15z M149.17,164.18c3.23,0.34,6.47,0.47,9.68-0.03
		c4.77-0.75,9.22-2.31,12.63-5.91c2.36-2.49,4.59-5.11,6.79-7.74c0.85-1.02,1.45-2.24,2.16-3.37c-5.37,3.82-7.06,4.74-14.02,7.29
		c-4.25,1.56-8.67,2.64-13.01,3.94c-0.31,0.09-0.72,0.16-0.9,0.38c-1.34,1.73-2.62,3.5-4,5.35
		C148.8,164.12,148.99,164.16,149.17,164.18z M247.64,137.89c1.94-2.2,4.01-4.31,5.78-6.64c1.29-1.71,2.39-3.63,3.2-5.61
		c1.39-3.36,0.68-5.15-2.24-7.32c-2.68-1.99-5.66-3.38-8.74-4.59c-0.46-0.18-0.93-0.35-1.4-0.52c5.89,7.97,6.21,16.42,2.71,25.35
		C247.18,138.33,247.43,138.13,247.64,137.89z M191.43,131.24c-0.83-0.84-1.61-0.91-2.28,0.05c-0.62,0.89-1.08,1.97-1.34,3.04
		c-0.51,2.08-1.49,2.47-3.15,1.16c-0.56-0.45-1.22-0.85-1.89-1.08c-1.47-0.5-2.17,0.1-2.04,1.65c0.02,0.23,0.07,0.46,0.13,0.69
		c0.69,2.78,4.35,5.73,7.25,5.78c0.33,0.01,0.8-0.22,0.99-0.48c1.1-1.58,2.2-3.18,3.18-4.84c0.37-0.63,0.44-1.45,0.58-1.94
		C192.73,133.6,192.45,132.27,191.43,131.24z"/>
	<path class="st1" d="M62.08,199.42c-0.39-3.24-0.77-6.36-1.15-9.49c2.09-0.08,3.29,0.77,3.79,2.55c0.76,2.71,0.07,5.1-1.9,6.53
		C62.64,199.15,62.43,199.23,62.08,199.42z M200.65,181.3c-2.04,0.5-3.11,2.16-3.09,4.51c0.02,2.27,0.98,3.37,3.66,3.96
		C201.02,186.88,200.84,184.11,200.65,181.3z M219.56,190.33c3.23-2.24,3.11-5.96,1.58-8.33c-0.49-0.75-1.15-1.29-2.16-1.2
		C219.17,183.96,219.37,187.1,219.56,190.33z M196.79,169.08c-2.19,2.74-0.37,7.86,3.37,9.49
		C199.55,175.19,198.85,171.92,196.79,169.08z M61.23,186.95c0.36-0.23,0.74-0.45,1.09-0.7c1.87-1.33,2.73-3.86,2-5.82
		c-0.31-0.83-0.84-1.4-1.76-1.35c-0.93,0.05-0.64,0.91-0.73,1.4c-0.37,2.11-0.64,4.25-0.94,6.38
		C61,186.89,61.11,186.92,61.23,186.95z M44.29,178.65c-1.03,0-1.86,0.31-2.36,1.12c-0.46,0.76-0.86,1.58-1.14,2.42
		c-0.73,2.21-0.09,3.23,2.32,3.75C43.5,183.53,43.89,181.12,44.29,178.65z M43.51,199.62c-2.82,2.18-1.61,7.63,2.12,9.28
		C44.91,205.74,44.21,202.68,43.51,199.62z M216.82,208.68c2.21-0.05,4.06-1.25,4.14-2.69c0.11-1.89-0.42-3.47-2.24-3.51
		C218.08,204.56,217.45,206.6,216.82,208.68z M42.97,188.8c-1.86,0.93-2.94,3.03-2.66,4.91c0.18,1.16,1.59,2.64,2.66,2.84
		C42.97,193.96,42.97,191.42,42.97,188.8z M197.98,196.61c0.17,1.57,1.19,2.47,3,2.56c0-2.11,0-4.21,0-6.31
		C199.09,193.42,197.8,195.01,197.98,196.61z M66.71,172.81c0.11-1.47-0.6-2.63-2.05-3.16c-0.65,2.1-1.31,4.18-2.01,6.43
		C65.18,175.59,66.6,174.4,66.71,172.81z M47.6,168.6c-1.63,0.42-2.98,0.96-3.54,2.57c-0.59,1.7-0.33,3.26,1,4.75
		C45.93,173.41,46.74,171.08,47.6,168.6z M64.41,207.9c1.7-0.71,2.28-1.63,1.96-2.95c-0.41-1.7-1.64-2.61-3.67-2.5
		C63.29,204.34,63.85,206.11,64.41,207.9z M222.05,195.55c-0.24-1.39-1.04-2.11-2.38-2.14c-0.14,2.05-0.29,4.11-0.44,6.23
		C221.16,198.93,222.34,197.16,222.05,195.55z M200.17,202.2c-1.25,0.59-2.45,1.26-2.83,2.76c-0.31,1.21,0.11,2.46,1.14,3.3
		c0.68-2.01,1.34-3.96,2-5.9C200.38,202.31,200.27,202.26,200.17,202.2z M216.16,169.83c0.68,2.21,1.36,4.45,2.05,6.69
		C219.9,173.87,218.76,170.28,216.16,169.83z"/>
	<g>
		<path class="st3" d="M112.22,98.07c-0.94,1.51-0.6,3.36,0.83,4.43c0.09,0.07,0.18,0.13,0.26,0.2c-0.08,0.06-0.16,0.12-0.24,0.18
			c-1.33,1.01-1.72,3.13-0.62,4.46c1.1,1.33,2.97,1.6,4.46,0.62c2.54-1.66,4.85-4.94,4.85-5.34c0-0.39-2.95-4.01-5.12-5.37
			C115.23,96.35,113.11,96.65,112.22,98.07z"/>
		<path class="st3" d="M164.91,98.07c-0.94,1.51-0.6,3.36,0.83,4.43c0.09,0.07,0.18,0.13,0.26,0.2c-0.08,0.06-0.16,0.12-0.24,0.18
			c-1.33,1.01-1.72,3.13-0.62,4.46c1.1,1.33,2.97,1.6,4.46,0.62c2.54-1.66,4.85-4.94,4.85-5.34c0-0.39-2.95-4.01-5.12-5.37
			C167.92,96.35,165.8,96.65,164.91,98.07z"/>
		<path class="st3" d="M138.57,98.07c-0.94,1.51-0.6,3.36,0.83,4.43c0.09,0.07,0.18,0.13,0.26,0.2c-0.08,0.06-0.16,0.12-0.24,0.18
			c-1.33,1.01-1.72,3.13-0.62,4.46c1.1,1.33,2.97,1.6,4.46,0.62c2.54-1.66,4.85-4.94,4.85-5.34c0-0.39-2.95-4.01-5.12-5.37
			C141.58,96.35,139.45,96.65,138.57,98.07z"/>
	</g>
	<path class="st0" d="M69.08,154.78c-0.64,1.23-1.57,2.2-2.74,2.93c-2.64,1.65-5.53,2.08-8.55,1.52c-2.7-0.51-4.1-2.36-4.7-4.93
		c-0.16-0.7-0.18-1.41,0.09-2.1c0.3-0.76,0.85-1.25,1.67-1.38c0.5-0.08,0.92,0.14,1.05,0.52c0.14,0.41-0.01,0.8-0.51,1.03
		c-0.55,0.26-0.7,0.66-0.62,1.21c0.42,2.59,1.85,3.85,4.13,4.03c2.17,0.18,4.26-0.1,6.18-1.21c1.07-0.62,1.94-1.44,2.48-2.57
		c0.73-1.55,0.42-2.86-0.96-3.89c-1.11-0.83-2.41-1.2-3.75-1.42c-0.37-0.06-0.77-0.33-1.1-0.15c-0.32,0.18-0.38,0.63-0.55,0.97
		c-0.36,0.72-0.71,1.45-1.05,2.18c-0.45,0.96-0.91,1.92-1.18,2.96c-0.15,0.59-0.56,0.86-1.02,0.75c-0.46-0.11-0.73-0.53-0.67-1.1
		c0.06-0.55,0.26-1.06,0.47-1.56c1.1-2.63,2.43-5.14,3.71-7.68c0.98-1.95,2.01-3.87,3.13-5.74c0.12-0.2,0.24-0.41,0.4-0.58
		c0.25-0.26,0.62-0.3,0.91-0.13c0.29,0.17,0.46,0.52,0.36,0.85c-0.07,0.25-0.2,0.48-0.32,0.71c-0.88,1.73-1.77,3.46-2.65,5.19
		c-0.08,0.16-0.23,0.31-0.15,0.58c0.17-0.06,0.34-0.11,0.5-0.17c1.64-0.62,3.26-1.29,4.75-2.24c0.92-0.59,1.77-1.27,2.48-2.11
		c0.39-0.46,0.71-0.95,0.9-1.52c0.37-1.09,0.06-2.02-0.87-2.69c-0.59-0.42-1.27-0.63-1.98-0.72c-2.06-0.26-4.06,0.04-6.04,0.61
		c-1.54,0.45-2.97,1.12-4.24,2.1c-0.92,0.71-1.64,1.58-2.03,2.69c-0.33,0.94-0.45,1.89-0.03,2.84c0.2,0.47,0.44,0.87,1.09,0.79
		c0.37-0.05,0.64,0.24,0.72,0.57c0.08,0.36-0.07,0.69-0.43,0.89c-0.62,0.35-1.36,0.26-1.97-0.3c-0.85-0.77-1.28-1.75-1.37-2.88
		c-0.16-2.11,0.68-3.84,2.14-5.29c1.28-1.28,2.85-2.11,4.53-2.73c2.27-0.85,4.61-1.25,7.04-1.14c1.08,0.05,2.11,0.29,3.07,0.8
		c2.03,1.08,2.8,3.09,1.99,5.24c-0.32,0.86-0.85,1.58-1.47,2.25c-1.11,1.2-2.44,2.1-3.87,2.86c-1.02,0.55-2.1,0.99-3.18,1.43h0
		c0.17,0.24,0.43,0.25,0.64,0.32c0.71,0.27,1.39,0.6,2.02,1.04C69.73,149.93,70.33,152.4,69.08,154.78z M115.64,149.14
		c-0.21,0.19-0.46,0.34-0.68,0.52c-1.6,1.3-3.41,2.22-5.37,2.84c-0.11,0.04-0.22,0.08-0.33,0.12c-0.34,0.12-0.47,0.36-0.41,0.69
		c0.15,0.8,0.15,1.6-0.05,2.39c-0.54,2.1-2.75,3.47-4.88,3.03c-2.29-0.48-3.26-2.97-1.88-4.86c0.53-0.73,1.26-1.21,2.07-1.57
		c0.6-0.27,1.25-0.41,1.91-0.63c-0.2-0.41-0.5-0.68-0.76-0.98c-0.31-0.36-0.59-0.73-0.82-1.14c-1.21,1.36-2.41,2.74-3.81,3.91
		c-0.77,0.64-1.61,1.17-2.6,1.4c-0.93,0.22-1.73,0.03-2.45-0.6c-0.61-0.54-1.12-1.16-1.59-1.82c-0.17-0.23-0.33-0.47-0.57-0.63
		c-0.37-0.25-0.56-0.22-0.82,0.15c-0.54,0.78-0.97,1.63-1.39,2.48c-0.11,0.21-0.21,0.43-0.36,0.61c-0.26,0.31-0.62,0.39-0.96,0.25
		c-0.35-0.14-0.54-0.44-0.55-0.84c0-0.3,0.11-0.55,0.24-0.81c0.67-1.36,1.36-2.71,2.04-4.06c-0.72,0.38-1.46,0.69-2.3,0.8
		c-0.41,0.06-0.66,0.24-0.86,0.61c-0.8,1.5-1.97,2.65-3.45,3.48c-1.89,1.06-3.93,0.03-4.44-1.88c-0.23-0.84-0.14-1.69,0.18-2.51
		c0.01-0.02,0.02-0.03,0.02-0.05c-0.42,0.16-0.86,0.29-1.32,0.35c-0.41,0.06-0.66,0.24-0.86,0.61c-0.8,1.5-1.97,2.65-3.45,3.48
		c-1.89,1.06-3.93,0.03-4.44-1.88c-0.23-0.84-0.14-1.69,0.18-2.51c0.46-1.18,1.2-2.15,2.27-2.83c0.3-0.2,0.47-0.41,0.58-0.75
		c0.53-1.52,2.25-2.54,3.7-2.23c1.28,0.27,2.24,1.51,2.29,2.98c0.01,0.4,0,0.79,0,1.22c0.35,0.04,0.66-0.16,0.96-0.32
		c0.67-0.36,1.32-0.75,1.98-1.12c0.21-0.12,0.4-0.25,0.64-0.29c0.07-0.01,0.13-0.01,0.19-0.01c0.04-0.07,0.08-0.13,0.11-0.22
		c0.53-1.52,2.25-2.54,3.7-2.23c1.28,0.27,2.24,1.51,2.29,2.98c0.01,0.4,0,0.79,0,1.22c0.35,0.04,0.66-0.16,0.96-0.32
		c0.67-0.36,1.32-0.75,1.98-1.12c0.17-0.1,0.34-0.19,0.52-0.24c1.34-2.61,2.69-5.21,4.06-7.81c0.18-0.33,0.36-0.67,0.58-0.98
		c0.33-0.45,0.8-0.55,1.17-0.28c0.37,0.26,0.43,0.64,0.16,1.13c-1.23,2.24-2.18,4.62-3.49,7c0.42-0.11,0.6-0.31,0.81-0.44
		c0.66-0.42,1.36-0.77,2.14-0.92c1.45-0.29,2.42,0.76,2,2.19c-0.22,0.75-0.66,1.36-1.18,1.92c-1.03,1.1-2.19,2.02-3.63,2.55
		c-0.09,0.03-0.16,0.09-0.26,0.15c0.35,0.61,0.81,1.12,1.31,1.59c0.26,0.25,0.56,0.32,0.92,0.24c0.62-0.14,1.14-0.46,1.63-0.84
		c1.15-0.89,2.1-1.98,3.08-3.04c0.4-0.44,0.8-0.88,1.2-1.32c0.12-0.14,0.26-0.26,0.42-0.36c0.03-0.38,0.14-0.74,0.35-1.08
		c0.72-1.22,1.78-2.02,3.2-2.26c0.82-0.14,1.54,0.1,2.14,0.7c0.72,0.73,1.06,1.61,1.11,2.62c0.03,0.65-0.21,1.01-0.69,1.06
		c-0.48,0.05-0.79-0.24-0.89-0.88c-0.08-0.49-0.16-0.97-0.49-1.39c-0.3-0.38-0.65-0.51-1.12-0.36c-0.68,0.22-1.21,0.63-1.62,1.21
		c-0.28,0.41-0.25,0.85-0.05,1.28c0.15,0.33,0.37,0.61,0.59,0.88c0.41,0.49,0.84,0.97,1.22,1.48c0.19,0.26,0.37,0.28,0.66,0.19
		c1.93-0.62,3.78-1.38,5.36-2.69c0.27-0.23,0.57-0.43,0.86-0.62c0.53-0.34,0.96-0.3,1.27,0.08
		C116.18,148.21,116.1,148.73,115.64,149.14z M76.51,150.36c-1.03-0.25-1.83-0.85-2.54-1.66c-0.84,0.62-1.43,1.51-1.59,2.4
		c-0.06,0.3-0.07,0.61-0.01,0.92c0.17,0.95,1,1.38,1.86,0.95c0.99-0.5,1.78-1.24,2.41-2.14C76.79,150.61,76.84,150.44,76.51,150.36z
		 M77.92,147.58c0.02-0.75-0.25-1.31-0.72-1.49c-0.49-0.19-1.18,0.08-1.61,0.64c-0.35,0.45-0.33,0.77,0.07,1.19
		c0.23,0.24,0.5,0.44,0.81,0.56C77.79,148.96,77.82,148.87,77.92,147.58z M86.39,150.36c-1.03-0.25-1.83-0.85-2.54-1.66
		c-0.84,0.62-1.43,1.51-1.59,2.4c-0.06,0.3-0.07,0.61-0.01,0.92c0.17,0.95,1,1.38,1.86,0.95c0.99-0.5,1.78-1.24,2.41-2.14
		C86.67,150.61,86.72,150.44,86.39,150.36z M87.8,147.58c0.02-0.75-0.25-1.31-0.72-1.49c-0.49-0.19-1.18,0.08-1.61,0.64
		c-0.35,0.45-0.33,0.77,0.07,1.19c0.23,0.24,0.5,0.44,0.81,0.56C87.67,148.96,87.7,148.87,87.8,147.58z M94.46,149.71
		c1.86-0.58,3.23-1.7,4.19-3.32C97.33,146.66,95.04,148.51,94.46,149.71z M107.2,154.27c-0.02-0.11-0.06-0.34-0.09-0.58
		c-0.04-0.29-0.16-0.42-0.48-0.32c-0.56,0.18-1.14,0.32-1.7,0.51c-0.52,0.18-0.98,0.48-1.35,0.9c-0.4,0.44-0.53,0.95-0.27,1.51
		c0.25,0.53,0.72,0.76,1.28,0.73v0C106.29,156.94,107.18,156.07,107.2,154.27z"/>
	<path class="st0" d="M79.88,195.75c-0.18-0.1-0.32-0.2-0.42-0.3c-0.09-0.08-0.23-0.31-0.45-0.96c-0.2-0.62-0.59-1.71-1.2-3.34
		c-0.47-1.29-0.94-2.59-1.39-3.88c-0.14-0.43-0.26-0.71-0.35-0.86c-0.1-0.17-0.26-0.28-0.46-0.32c-0.17-0.03-0.41-0.05-0.72-0.05
		h-0.24c-0.27,0-0.45,0.04-0.58,0.12c-0.09,0.06-0.28,0.17-1.84,4.25l-0.82,2.08c-0.5,1.34-0.92,2.23-1.24,2.63
		c-0.18,0.23-0.41,0.4-0.7,0.51c-0.29,0.1-0.35,0.29-0.35,0.43l0.01,0.1c0.07,0.26,0.24,0.42,0.51,0.47
		c0.08,0.01,0.16,0.02,0.23,0.02l2.37,0.01c0.12,0,0.22-0.01,0.32-0.03c0.22-0.06,0.35-0.23,0.35-0.46c0-0.14-0.07-0.34-0.39-0.46
		l-0.11-0.05c-0.45-0.23-0.67-0.54-0.67-0.97c0-0.24,0.08-0.55,0.24-0.94l0.1-0.29c0.11-0.29,0.3-0.43,0.6-0.43
		c0.59,0,1.4,0.02,2.49,0.06c0.36,0.01,0.46,0.18,0.5,0.31c0.41,1.13,0.5,1.55,0.5,1.71c0,0.2-0.06,0.47-0.62,0.59
		c-0.05,0.02-0.14,0.04-0.27,0.06c-0.22,0.05-0.34,0.2-0.36,0.43c0,0.26,0.12,0.43,0.37,0.51c0.11,0.03,0.23,0.04,0.36,0.04
		l2.14-0.01l0.79,0.01c0.45,0,0.9-0.03,1.35-0.1c0.08-0.01,0.19-0.04,0.24-0.14c0.03-0.05,0.04-0.12,0.04-0.19
		C80.23,196.09,80.11,195.88,79.88,195.75z M75.14,191.9c0,0.04-0.02,0.08-0.05,0.13c0,0-0.05,0.05-0.31,0.07l0,0
		c-0.06,0.01-0.28,0.01-1.1,0.01c-0.24,0-0.41-0.01-0.52-0.02c-0.38-0.04-0.38-0.2-0.38-0.26c0-0.09,0.14-0.58,1.1-2.75
		c0.05-0.11,0.1-0.11,0.11-0.11c0.04,0,0.08,0.03,0.13,0.08c0.09,0.1,0.15,0.21,0.2,0.32C75.03,191.39,75.14,191.82,75.14,191.9z
		 M93.14,193.17c-0.2,0-0.3,0.1-0.34,0.18c-0.05,0.08-0.08,0.18-0.1,0.28c-0.02,0.13-0.03,0.27-0.04,0.4
		c-0.01,0.13-0.03,0.26-0.05,0.38c-0.03,0.14-0.08,0.27-0.16,0.36c-0.07,0.09-0.18,0.14-0.31,0.15c-0.16,0.02-0.26-0.02-0.33-0.09
		c-0.08-0.09-0.14-0.2-0.17-0.35c-0.03-0.12-0.06-0.25-0.09-0.36c-0.13-0.61-0.31-1.17-0.56-1.65c-0.25-0.5-0.7-0.91-1.35-1.2
		c-0.03-0.01-0.06-0.02-0.08-0.03c-0.04-0.01-0.08-0.03-0.12-0.06c0,0-0.01-0.01,0-0.04c0-0.03,0.01-0.03,0.02-0.03
		c0.03-0.02,0.07-0.04,0.1-0.05l0.06-0.02c0.38-0.13,0.74-0.28,1.08-0.44c0.35-0.16,0.68-0.38,0.99-0.66
		c0.39-0.38,0.62-0.79,0.69-1.21c0.06-0.42-0.01-0.81-0.2-1.17c-0.19-0.35-0.48-0.64-0.85-0.83c-0.71-0.37-1.47-0.57-2.25-0.6
		c-1.79-0.08-3.61-0.09-5.39-0.04c-0.11,0-0.21,0-0.31,0.01c-0.14,0-0.28,0-0.4,0.01c-0.08,0-0.15,0-0.22,0.02
		c-0.07,0.02-0.16,0.07-0.21,0.21c-0.04,0.11-0.04,0.22,0,0.31c0.04,0.08,0.1,0.15,0.18,0.22c0.09,0.06,0.19,0.11,0.3,0.13
		c0.54,0.14,0.79,0.46,0.77,1.02c0,0.39,0,0.79,0.01,1.18c0.02,0.84,0.02,1.7,0,2.54c-0.01,0.37-0.01,0.74-0.01,1.12
		c0.02,0.6,0,1.22-0.04,1.82c-0.02,0.27-0.09,0.49-0.2,0.65c-0.11,0.15-0.29,0.24-0.54,0.27c-0.15,0.01-0.28,0.06-0.38,0.13
		c-0.11,0.09-0.17,0.22-0.17,0.4c0.02,0.25,0.15,0.34,0.25,0.37c0.11,0.03,0.23,0.05,0.35,0.04l-0.01-0.13l0.01,0.13
		c0.22,0,0.58,0,1.07,0c0.49-0.01,1-0.01,1.53-0.02l1.3-0.02c0.11-0.01,0.2-0.01,0.26-0.01c0.12,0.01,0.23-0.01,0.31-0.06
		c0.08-0.04,0.17-0.12,0.21-0.3c0.03-0.2-0.04-0.31-0.12-0.36c-0.08-0.06-0.17-0.1-0.27-0.12l-0.13-0.03
		c-0.02,0-0.05-0.01-0.07-0.02c-0.21-0.06-0.37-0.15-0.49-0.27c-0.11-0.11-0.17-0.28-0.17-0.5c0-0.7,0-1.39-0.01-2.08v-0.99
		c0-0.08,0.02-0.13,0.06-0.17c0.05-0.04,0.11-0.07,0.2-0.09c0.54-0.14,0.98-0.09,1.34,0.17c0.36,0.25,0.57,0.65,0.64,1.2
		c0.02,0.21,0.04,0.42,0.05,0.64c0.02,0.33,0.06,0.67,0.1,1.01c0.05,0.49,0.2,0.94,0.42,1.32c0.23,0.39,0.61,0.68,1.11,0.85
		c0.25,0.07,0.5,0.11,0.73,0.11c0.61,0,1.16-0.25,1.64-0.75c0.3-0.33,0.51-0.71,0.61-1.12c0.1-0.39,0.15-0.81,0.16-1.23
		c0.01-0.12-0.02-0.23-0.08-0.32C93.43,193.27,93.33,193.18,93.14,193.17z M89.53,188.86c-0.02,0.34-0.14,0.68-0.36,1
		c-0.15,0.2-0.4,0.36-0.72,0.46c-0.34,0.11-0.68,0.17-1.03,0.18c-0.34,0.01-0.6-0.01-0.78-0.07c-0.09-0.03-0.1-0.07-0.11-0.08
		c-0.02-0.06-0.03-0.12-0.02-0.2c-0.01-0.11-0.01-0.29-0.01-0.52c-0.01-0.33-0.02-0.66-0.02-1.02c-0.01-0.34,0-0.6,0.01-0.74
		c0.03-0.43,0.17-0.68,0.41-0.76c0.2-0.07,0.45-0.1,0.73-0.1c0.1,0,0.21,0,0.32,0.01c0.32,0.01,0.6,0.07,0.85,0.18
		c0.24,0.11,0.42,0.31,0.55,0.61C89.48,188.17,89.55,188.52,89.53,188.86z M104.61,193.76l0,0.13c0,0.27-0.01,0.53-0.02,0.8
		c-0.02,0.36-0.02,0.72-0.01,1.06c0.02,0.39-0.06,0.66-0.25,0.82c-0.16,0.13-0.37,0.19-0.67,0.19c-0.05,0-0.11,0-0.16-0.01
		c-0.39-0.01-1.03-0.02-1.91-0.02c-0.88-0.01-1.81-0.01-2.77-0.02c-1.34-0.01-2.31-0.01-2.92-0.01h-0.14
		c-0.14,0.02-0.27,0.01-0.39-0.02c-0.11-0.03-0.26-0.11-0.31-0.38c-0.02-0.26,0.08-0.37,0.17-0.41c0.09-0.05,0.2-0.08,0.33-0.08
		c0.06-0.01,0.12-0.02,0.18-0.04c0.22-0.09,0.38-0.23,0.47-0.4c0.09-0.18,0.13-0.39,0.13-0.63c0.01-1.72,0.02-3.44,0.02-5.16v-1.59
		c0-0.22-0.06-0.39-0.17-0.5c-0.12-0.12-0.29-0.22-0.49-0.27c-0.04-0.01-0.08-0.02-0.13-0.03c-0.12-0.02-0.23-0.06-0.32-0.11
		c-0.07-0.04-0.19-0.15-0.15-0.4c0.04-0.17,0.13-0.28,0.28-0.32c0.11-0.03,0.22-0.04,0.34-0.03l3.05,0.01
		c1.59,0.01,3.18,0.01,4.77,0.01c0.31,0.01,0.56,0.07,0.71,0.21c0.16,0.15,0.24,0.4,0.22,0.73c-0.01,0.41-0.02,0.83-0.01,1.24
		c0,0.21,0.01,0.41,0.01,0.62c0,0.02,0,0.04,0.01,0.07c0.01,0.12,0,0.23-0.03,0.32c-0.03,0.09-0.1,0.21-0.33,0.25
		c-0.21,0.02-0.3-0.05-0.35-0.12c-0.05-0.07-0.08-0.15-0.1-0.25l-0.04-0.09c-0.35-0.9-0.78-1.52-1.29-1.84
		c-0.51-0.32-1.28-0.44-2.28-0.37c-0.3,0.01-0.54,0.08-0.71,0.22c-0.17,0.13-0.26,0.34-0.27,0.63c-0.03,0.73-0.05,1.47-0.04,2.21
		v0.37c0,0.12,0.03,0.24,0.28,0.27c0.48,0.06,0.9-0.01,1.24-0.23c0.34-0.22,0.56-0.55,0.68-1.01c0.01-0.04,0.01-0.08,0.02-0.13
		c0.01-0.12,0.04-0.22,0.09-0.3c0.07-0.12,0.2-0.17,0.4-0.15c0.25,0.04,0.34,0.17,0.38,0.27c0.04,0.11,0.05,0.23,0.04,0.36l0,0.07
		c0,1.08,0,2.16,0,3.24c0.01,0.14-0.01,0.27-0.05,0.38c-0.04,0.11-0.14,0.24-0.42,0.26c-0.22-0.01-0.32-0.1-0.36-0.17
		c-0.05-0.08-0.07-0.18-0.08-0.28c0-0.04-0.01-0.08-0.02-0.12c-0.05-0.25-0.14-0.48-0.25-0.69c-0.11-0.2-0.28-0.35-0.53-0.47
		c-0.49-0.22-0.86-0.26-1.09-0.12c-0.22,0.14-0.34,0.47-0.36,0.98v0.16c-0.01,0.64-0.02,1.28-0.01,1.91c0,0.42,0.07,0.71,0.22,0.86
		c0.15,0.15,0.43,0.23,0.86,0.25c0.94,0.08,1.69-0.04,2.21-0.37c0.52-0.32,0.97-0.94,1.34-1.84c0.02-0.04,0.04-0.09,0.05-0.14
		c0.03-0.11,0.08-0.22,0.15-0.32c0.06-0.09,0.18-0.19,0.41-0.16c0.27,0.05,0.37,0.19,0.39,0.3
		C104.62,193.48,104.63,193.62,104.61,193.76z M147.34,196.46c-0.02,0.24-0.13,0.33-0.23,0.37c-0.09,0.03-0.18,0.05-0.28,0.05
		c-0.02,0-0.03,0-0.05,0h-4.09c-0.11,0-0.21-0.02-0.3-0.06c-0.11-0.05-0.18-0.15-0.21-0.29c-0.04-0.22,0.03-0.34,0.1-0.4
		c0.08-0.07,0.19-0.11,0.32-0.14c0.27-0.07,0.48-0.2,0.61-0.38c0.13-0.19,0.2-0.42,0.2-0.71c0.03-2.17,0.04-4.37,0.04-6.54
		c0-0.05,0-0.1,0.01-0.15c0.01-0.1,0.01-0.19-0.01-0.28c0-0.03-0.01-0.06-0.08-0.07c-0.07-0.01-0.08,0.02-0.09,0.04
		c-0.04,0.07-0.07,0.15-0.09,0.24c-0.02,0.06-0.03,0.1-0.05,0.15c-0.94,2.64-1.87,5.27-2.8,7.91c-0.01,0.04-0.02,0.07-0.03,0.1
		c-0.03,0.11-0.07,0.21-0.13,0.3c-0.07,0.11-0.2,0.18-0.37,0.19c-0.25,0.01-0.36-0.09-0.42-0.18c-0.07-0.1-0.12-0.21-0.15-0.33
		c-0.01-0.02-0.02-0.04-0.02-0.07c-0.39-1.11-0.79-2.23-1.18-3.34l-0.53-1.53c-0.02-0.05-0.03-0.1-0.05-0.14
		c-0.39-1.11-0.77-2.21-1.17-3.31c-0.01-0.03-0.02-0.07-0.03-0.11c-0.01-0.07-0.03-0.13-0.07-0.18c-0.01-0.02-0.07-0.01-0.08-0.01
		c-0.07,0.02-0.07,0.04-0.07,0.05c-0.02,0.06-0.02,0.12-0.01,0.19l0,0.1c0,0.21,0,0.52-0.01,0.93c0,0.9-0.01,1.92-0.01,3.05
		c0,1.12,0.01,1.96,0.03,2.48c0.01,0.36,0.1,0.68,0.27,0.95c0.16,0.26,0.43,0.46,0.79,0.58c0.13,0.03,0.23,0.09,0.31,0.16
		c0.07,0.06,0.14,0.18,0.1,0.37c-0.04,0.18-0.14,0.25-0.22,0.27c-0.08,0.02-0.17,0.03-0.26,0.03c-0.03-0.01-0.05-0.01-0.06-0.01
		h-0.55c-0.8,0.01-1.6,0-2.4-0.01l-0.03-0.01c-0.12,0.01-0.24,0-0.35-0.04c-0.09-0.03-0.23-0.11-0.24-0.37
		c0.01-0.23,0.13-0.3,0.2-0.32c0.1-0.04,0.23-0.04,0.36-0.05c0.59-0.08,0.94-0.4,1.07-0.98c0.08-0.32,0.13-0.64,0.14-0.96
		c0.02-0.33,0.02-0.66,0.02-0.99v-0.38c0-0.81,0.01-1.64,0.03-2.44c0.01-0.55,0.02-1.1,0.03-1.65c0.02-0.35-0.03-0.66-0.14-0.92
		c-0.1-0.24-0.33-0.4-0.72-0.48c-0.13-0.02-0.24-0.07-0.33-0.16c-0.09-0.09-0.13-0.22-0.12-0.37c0.04-0.2,0.14-0.27,0.22-0.29
		c0.08-0.02,0.16-0.03,0.25-0.01l0.06,0c1.01-0.01,2.01-0.01,3.02-0.01c0.62,0.01,1.03,0.32,1.21,0.94
		c0.46,1.37,0.95,2.78,1.45,4.18c0.08,0.21,0.15,0.42,0.22,0.63c0.01,0.03,0.03,0.08,0.04,0.13c0.02,0.08,0.04,0.14,0.08,0.2
		c0.01,0.01,0.03,0.05,0.12,0.05c0.08,0,0.11-0.04,0.12-0.06c0.04-0.06,0.07-0.14,0.09-0.22c0.02-0.05,0.03-0.08,0.04-0.1l0.41-1.13
		c0.44-1.15,0.86-2.38,1.24-3.67c0.16-0.49,0.35-0.77,0.58-0.88c0.21-0.1,0.45-0.13,0.71-0.09c0.08,0,0.18,0.01,0.28,0.01
		c0.81-0.01,1.63-0.01,2.44,0h0.13c0.11-0.02,0.24-0.01,0.35,0.02c0.1,0.03,0.24,0.11,0.29,0.35c0.04,0.26-0.05,0.37-0.13,0.42
		c-0.09,0.05-0.19,0.09-0.31,0.1c-0.04,0.01-0.09,0.02-0.13,0.03c-0.48,0.16-0.71,0.49-0.7,1.01l-0.01,2.74c0,1.29,0,2.58,0,3.87
		c0,0.29,0.05,0.53,0.18,0.74c0.11,0.19,0.33,0.3,0.65,0.34C147.18,195.98,147.34,196.16,147.34,196.46z M161.59,186.59
		c0.03,0.37-0.13,0.61-0.45,0.71c-0.41,0.12-0.81,0.36-1.19,0.71c-0.39,0.36-0.76,0.78-1.11,1.27c-0.35,0.48-0.68,0.97-0.99,1.46
		c-0.32,0.5-0.62,0.94-0.89,1.3c-0.01,0.25-0.01,0.47-0.02,0.65c-0.01,0.26-0.01,0.55-0.01,0.88c0,0.33,0.02,0.82,0.06,1.46
		c0.04,0.54,0.31,0.86,0.83,0.99c0.09,0.02,0.18,0.04,0.27,0.06c0.12,0.01,0.22,0.05,0.3,0.11c0.07,0.05,0.14,0.16,0.11,0.35
		c-0.03,0.17-0.12,0.24-0.2,0.27c-0.19,0.08-0.46,0.05-0.7,0.06c-0.24,0.01-0.47,0.01-0.72,0.01l-2.73-0.01
		c-0.3-0.01-0.6,0.01-0.89-0.01c-0.05,0-0.09,0-0.14-0.01c-0.16-0.01-0.27-0.1-0.33-0.25c-0.06-0.18,0-0.35,0.15-0.47
		c0.11-0.09,0.24-0.14,0.39-0.16c0.39-0.06,0.66-0.16,0.8-0.3c0.13-0.14,0.21-0.39,0.23-0.76c0.04-0.6,0.07-1.27,0.09-1.99
		l0.03-0.89c-0.3-0.41-0.62-0.88-0.96-1.38c-0.36-0.54-0.72-1.07-1.08-1.57c-0.36-0.5-0.7-0.91-1.01-1.22
		c-0.14-0.12-0.34-0.23-0.58-0.32c-0.26-0.09-0.48-0.16-0.68-0.19c-0.35-0.09-0.51-0.33-0.47-0.68c0.02-0.18,0.09-0.31,0.22-0.38
		c0.1-0.06,0.22-0.09,0.34-0.11c0.22-0.03,0.44-0.04,0.66-0.03l3.88-0.01c0.2,0,0.4,0.02,0.6,0.04c0.12,0.02,0.23,0.05,0.32,0.11
		c0.08,0.05,0.18,0.14,0.21,0.34c0.03,0.25-0.05,0.47-0.25,0.63c-0.07,0.04-0.15,0.06-0.26,0.08c-0.09,0.01-0.2,0.03-0.32,0.04
		c-0.12,0.01-0.24,0.03-0.34,0.05c-0.12,0.02-0.15,0.04-0.15,0.04c-0.12,0.11-0.14,0.23-0.06,0.39c0.16,0.31,0.38,0.69,0.65,1.13
		c0.27,0.44,0.53,0.79,0.77,1.03c0.17,0.16,0.31,0.17,0.47,0.04c0.23-0.2,0.49-0.5,0.77-0.9c0.28-0.4,0.5-0.75,0.65-1.03
		c0.11-0.22,0.18-0.5-0.31-0.76c-0.15-0.08-0.27-0.17-0.35-0.28c-0.09-0.12-0.1-0.28-0.05-0.48c0.06-0.19,0.16-0.31,0.3-0.36
		c0.11-0.04,0.25-0.07,0.39-0.07c1.02-0.05,2.07-0.05,3.09,0c0,0,0,0,0,0c0.12,0,0.24,0.02,0.35,0.06
		C161.41,186.27,161.54,186.36,161.59,186.59z"/>
	<g>
		<path class="st2" d="M167.89,184.85c-0.32,0.46-0.56,1-0.67,1.6c-0.34,1.74,0.4,3.49,1.81,4.53c0.12,0.09,0.25,0.18,0.37,0.27
			c-0.11,0.08-0.22,0.17-0.33,0.25c-2,1.52-2.48,5.02-0.37,6.66c0.69,0.54,1.57,0.8,2.44,0.84c1.7,0.08,3.32-0.56,4.84-1.26
			c1.6-0.74,3.14-1.61,4.67-2.48c1.93-1.09,3.85-2.18,5.78-3.28c0.3-0.17,0.88-0.51,0.74-0.92c-0.1-0.3-0.7-0.51-0.95-0.67
			c-2.77-1.84-5.79-3.37-8.71-5C174.85,183.92,170.23,181.56,167.89,184.85z"/>
	</g>
	<path class="st4" d="M226.07,220.38c-0.15-2.13-0.31-4.26-0.54-6.39c-0.21-1.9-0.48-2.1-2.36-2.1c-31.41,0-62.83,0-94.24,0
		c-0.3,0-0.63-0.07-0.89,0.02c-0.29,0.1-0.66,0.32-0.74,0.57c-0.59,1.8-1.16,3.62-1.65,5.45c-1.81,6.63-5.8,11.46-11.75,14.89
		c-5.7,3.29-11.77,5.64-18.01,7.63c-1.6,0.51-2.53-0.27-2.38-1.97c0.03-0.37,0.08-0.73,0.13-1.09c0.73-6.15,2.99-11.8,5.61-17.34
		c1.63-3.46,4.17-6,7.85-7.29c0.51-0.18,1-0.43,1.49-0.65c-0.02-0.08-0.04-0.15-0.06-0.23c-0.38,0-0.77,0-1.15,0
		c-21.36,0-42.73,0-64.09,0c-3.89,0-3.9,0-4.58,3.86c-1.19,6.71-1.41,13.48-1.03,20.25c0.22,3.92,0.91,7.81,1.38,11.71
		c0.13,1.12,0.68,1.47,1.85,1.47c30.31-0.04,60.63-0.03,90.94-0.03c30.08,0,60.16,0,90.24,0c2.23,0,2.56-0.12,3.05-2.28
		c0.56-2.46,1-4.97,1.23-7.49C226.92,233.04,226.51,226.71,226.07,220.38z M51.67,230.54c-1.29-3.48-0.46-2.65-3.93-3.93
		c3.48-1.29,2.65-0.46,3.93-3.93c1.29,3.48,0.46,2.65,3.93,3.93C52.12,227.89,52.96,227.06,51.67,230.54z M60.54,242.52
		c-1.89-5.1-0.67-3.88-5.76-5.76c5.1-1.89,3.88-0.67,5.76-5.76c1.89,5.1,0.67,3.88,5.76,5.76
		C61.21,238.64,62.43,237.43,60.54,242.52z M69.6,229.35c-0.72-1.94-0.25-1.48-2.2-2.2c1.94-0.72,1.48-0.25,2.2-2.2
		c0.72,1.94,0.25,1.48,2.2,2.2C69.85,227.87,70.32,227.41,69.6,229.35z M78.56,238.13c-1.08-2.91-0.38-2.21-3.29-3.29
		c2.91-1.08,2.21-0.38,3.29-3.29c1.08,2.91,0.38,2.21,3.29,3.29C78.95,235.91,79.64,235.22,78.56,238.13z M83.87,224.59
		c-0.72-1.94-0.25-1.48-2.2-2.2c1.94-0.72,1.48-0.25,2.2-2.2c0.72,1.94,0.25,1.48,2.2,2.2C84.12,223.11,84.59,222.65,83.87,224.59z"
		/>
	<path class="st0" d="M142.91,230.44c-0.74,1.16-1.44,2.34-2.11,3.54c-1.45,2.59-3.02,5.1-4.96,7.36c-0.32,0.38-0.65,0.76-0.99,1.11
		c-0.39,0.39-0.86,0.65-1.41,0.79c-1,0.25-1.77-0.1-2.21-1.05c-0.42-0.9-0.46-1.88-0.49-2.7l0,0c0.1-2.37,0.67-4.5,1.28-6.62
		c0.55-1.89,1.25-3.73,1.87-5.59c0.38-1.15,0.71-2.31,0.85-3.52c0.05-0.4,0.08-0.8-0.01-1.2c-0.1-0.43-0.27-0.6-0.69-0.54
		c-0.97,0.13-1.8,0.56-2.53,1.2c-0.15,0.14-0.16,0.34-0.24,0.51c-0.15,0.31-0.4,0.46-0.74,0.44c-0.34-0.02-0.61-0.24-0.71-0.6
		c-0.12-0.44-0.02-0.86,0.28-1.2c1.01-1.14,2.27-1.88,3.78-2.07c1.5-0.19,2.5,0.7,2.63,2.22c0.09,1.12-0.08,2.22-0.36,3.31
		c-0.44,1.77-1.11,3.47-1.69,5.2c-0.7,2.07-1.34,4.15-1.72,6.3c-0.21,1.17-0.33,2.34-0.1,3.53c0.13,0.7,0.32,0.85,0.97,0.3
		c0.23-0.19,0.42-0.45,0.62-0.68c1.82-2.1,3.35-4.41,4.71-6.84c0.4-0.72,0.84-1.43,1.24-2.16c1.69-3.1,3.94-5.73,6.63-8
		c0.92-0.78,1.83-1.59,2.83-2.27c0.41-0.28,0.84-0.54,1.32-0.67c0.26-0.07,0.51-0.1,0.76,0.01c0.57,0.24,0.71,0.9,0.26,1.33
		c-0.13,0.13-0.32,0.2-0.48,0.3c-0.23,0.13-0.48,0.22-0.68,0.38C147.82,224.82,144.97,227.24,142.91,230.44z M217.05,233.04
		c-0.08,0.14-0.18,0.28-0.29,0.4c-1.09,1.25-2.17,2.51-3.28,3.74c-0.81,0.91-1.72,1.7-2.78,2.29c-0.97,0.54-1.99,0.88-3.13,0.56
		c-1.36-0.38-2.24-1.28-2.5-2.51c-0.29,0.36-0.59,0.72-0.93,1.05c-0.38,0.39-0.79,0.75-1.25,1.05c-0.26,0.17-0.53,0.31-0.83,0.39
		c-0.82,0.23-1.53-0.1-1.85-0.89c-0.3-0.73-0.25-1.49-0.11-2.24c0.24-1.26,0.72-2.45,1.11-3.67c0.13-0.4,0.3-0.8,0.27-1.28
		c-0.29,0-0.47,0.2-0.67,0.34c-1.81,1.26-3.23,2.92-4.54,4.67c-0.61,0.81-1.19,1.65-1.79,2.48c-0.15,0.21-0.3,0.43-0.52,0.58
		c-0.35,0.25-0.74,0.26-1.06,0.03c-0.29-0.21-0.41-0.56-0.31-0.95c0.06-0.23,0.17-0.44,0.25-0.66c0.05-0.12,0.1-0.24,0.15-0.36
		c-0.12,0.13-0.23,0.26-0.36,0.39c-0.51,0.5-1.06,0.94-1.66,1.33c-0.42,0.27-0.86,0.5-1.35,0.63c-0.85,0.21-1.56-0.08-1.99-0.83
		c-0.24-0.41-0.35-0.86-0.4-1.3c-0.2,0.21-0.4,0.41-0.62,0.61c-0.66,0.59-1.39,1.07-2.23,1.36c-1.67,0.59-2.99-0.19-3.31-1.95
		c-0.03-0.17-0.04-0.34-0.05-0.51c-0.23,0.27-0.45,0.54-0.69,0.79c-0.38,0.39-0.79,0.75-1.25,1.05c-0.26,0.17-0.53,0.31-0.83,0.39
		c-0.82,0.23-1.53-0.1-1.85-0.89c-0.3-0.73-0.25-1.49-0.11-2.24c0.24-1.26,0.72-2.45,1.11-3.67c0.13-0.4,0.3-0.8,0.27-1.28
		c-0.29,0-0.47,0.2-0.67,0.34c-1.81,1.26-3.23,2.92-4.54,4.67c-0.61,0.81-1.19,1.65-1.79,2.48c-0.15,0.21-0.3,0.43-0.52,0.58
		c-0.35,0.25-0.74,0.26-1.06,0.03c-0.29-0.21-0.41-0.56-0.31-0.95c0.06-0.23,0.17-0.44,0.25-0.66c0.12-0.31,0.25-0.62,0.38-0.93
		c-0.73,0.78-1.55,1.46-2.49,1.99c-0.97,0.54-1.99,0.88-3.13,0.56c-1.59-0.44-2.53-1.61-2.58-3.16c-0.73,0.87-1.5,1.7-2.4,2.42
		c-0.59,0.47-1.23,0.88-1.98,1.08c-1.33,0.35-2.54-0.24-3.05-1.53c-0.14-0.35-0.21-0.71-0.25-1.08c-0.21,0.27-0.4,0.55-0.62,0.82
		c-0.48,0.59-1.02,1.13-1.7,1.49c-1.44,0.76-2.73,0.14-3.02-1.47c-0.05-0.3-0.07-0.6-0.11-0.92c-0.27,0.08-0.38,0.31-0.54,0.47
		c-0.58,0.59-1.16,1.19-1.86,1.64c-0.3,0.2-0.61,0.36-0.95,0.48c-1.43,0.51-2.76-0.22-3.1-1.71c-0.14-0.62-0.07-1.23,0.07-1.83
		c0.52-2.27,1.52-4.27,3.24-5.89c0.14-0.13,0.28-0.25,0.43-0.37c1.75-1.34,3.46-1.05,4.67,0.78c0.05,0.08,0.08,0.17,0.27,0.23
		c0.25-0.38,0.5-0.75,0.76-1.12c0.12-0.17,0.25-0.35,0.4-0.49c0.28-0.25,0.68-0.27,0.99-0.09c0.3,0.18,0.48,0.55,0.42,0.91
		c-0.05,0.28-0.19,0.53-0.32,0.78c-0.87,1.6-1.72,3.22-2.29,4.96c-0.18,0.56-0.4,1.12-0.35,1.73c0.03,0.42,0.18,0.5,0.55,0.3
		c0.38-0.21,0.67-0.52,0.95-0.85c1.14-1.37,2.14-2.84,3.11-4.33c0-0.01,0.01-0.01,0.02-0.02c0.83-1.95,1.88-3.8,2.98-5.61
		c0.72-1.19,1.48-2.37,2.23-3.55c0.14-0.22,0.28-0.44,0.48-0.61c0.37-0.31,0.79-0.32,1.09-0.04c0.3,0.27,0.35,0.64,0.1,1.03
		c-1.26,1.98-2.36,4.05-3.55,6.07c-0.55,0.93-1.02,1.9-1.46,2.89c-0.01,0.05-0.01,0.09-0.03,0.14c-0.05,0.13-0.13,0.26-0.2,0.38
		c-0.12,0.27-0.25,0.53-0.35,0.81c-0.29,0.73-0.51,1.48-0.54,2.27c-0.01,0.31-0.01,0.62,0.06,0.92c0.16,0.68,0.56,0.9,1.21,0.65
		c0.72-0.28,1.31-0.76,1.85-1.29c1.07-1.04,1.96-2.25,2.95-3.37c0.17-0.19,0.34-0.4,0.54-0.57c0.07-0.06,0.14-0.09,0.21-0.13
		c0.51-1.06,1.22-2.03,2.12-2.89c0.45-0.43,0.95-0.78,1.51-1.05c0.43-0.21,0.88-0.36,1.36-0.37c1.23-0.03,2.13,0.86,2.09,2.09
		c-0.02,0.61-0.19,1.18-0.54,1.67c-0.76,1.05-1.75,1.78-3.03,2.09c-0.57,0.14-1.12,0.12-1.68-0.05c-0.47-0.14-0.48-0.14-0.65,0.32
		c-0.19,0.52-0.28,1.05-0.28,1.46c-0.01,1.34,0.88,2.06,2.06,1.82c0.4-0.08,0.76-0.25,1.11-0.46c1.09-0.65,1.96-1.55,2.79-2.51
		c0.82-0.95,1.65-1.9,2.47-2.84c0.07-0.08,0.14-0.15,0.2-0.22c0.17-0.4,0.34-0.8,0.5-1.2c0.12-0.31,0.21-0.63,0.34-0.94
		c0.19-0.47,0.51-0.67,0.93-0.58c0.42,0.09,0.65,0.47,0.57,0.99c-0.07,0.47-0.25,0.91-0.41,1.36c-0.06,0.18-0.13,0.36-0.2,0.55
		c0.03,0.18,0,0.36-0.1,0.56c-0.03,0.06-0.08,0.11-0.12,0.17c0.02,0.01,0.04,0.03,0.06,0.04c0.19-0.19,0.39-0.38,0.58-0.57
		c0.82-0.83,1.71-1.57,2.71-2.18c0.34-0.21,0.69-0.41,1.09-0.52c1-0.26,1.82,0.29,1.91,1.32c0.06,0.67-0.05,1.32-0.25,1.96
		c-0.28,0.86-0.56,1.71-0.84,2.57c-0.18,0.54-0.33,1.09-0.41,1.65c-0.03,0.21-0.07,0.41,0.03,0.65c0.34-0.07,0.55-0.3,0.77-0.51
		c0.93-0.89,1.72-1.9,2.37-3.01c0.36-0.61,0.7-1.24,1.05-1.85c0.09-0.16,0.19-0.33,0.31-0.47c0.02-0.02,0.04-0.03,0.07-0.06
		c0.12-0.22,0.23-0.43,0.35-0.65c0.6-1.05,2.23-3.51,2.85-4.55c0.1-0.18,0.29-0.32,0.25-0.62c-0.95-0.12-1.91-0.3-2.88-0.17
		c-0.57,0.08-1.09,0.28-1.52,0.71c-0.39,0.39-0.8,0.42-1.13,0.13c-0.33-0.29-0.35-0.71-0.06-1.16c0.2-0.3,0.48-0.52,0.78-0.71
		c0.9-0.55,1.88-0.76,2.93-0.71c0.88,0.04,1.75,0.1,2.62,0.19c0.35,0.03,0.57-0.05,0.75-0.37c0.26-0.45,0.56-0.88,0.86-1.31
		c0.11-0.16,0.22-0.31,0.36-0.43c0.34-0.3,0.72-0.32,1.04-0.08c0.31,0.24,0.39,0.64,0.18,1.03c-0.14,0.25-0.31,0.47-0.46,0.72
		c-0.09,0.16-0.22,0.3-0.23,0.49c0.15,0.16,0.33,0.11,0.48,0.11c1.25,0,2.5,0.04,3.74-0.01c0.45-0.01,1.65-0.11,1.8-0.08
		c0.35,0.08,0.6,0.29,0.67,0.66h0c0.07,0.37-0.09,0.65-0.39,0.85c-0.37,0.23-0.8,0.28-1.23,0.3c-1.85,0.09-3.7,0.12-5.54,0.01
		c-0.48-0.03-0.77,0.1-1.02,0.53c-1.01,1.77-3.15,4.9-4.03,6.74c-0.55,1.14-0.97,2.32-0.97,3.6c0,0.29,0.02,0.57,0.15,0.83
		c0.18,0.38,0.33,0.46,0.73,0.33c0.68-0.22,1.29-0.6,1.81-1.09c0.82-0.77,1.46-1.68,2.07-2.61c0.48-0.75,1.39-2.16,1.98-3.07
		c0.1-0.16,0.23-0.3,0.38-0.42c0.29-0.23,0.65-0.23,0.92-0.03c0.3,0.21,0.4,0.59,0.25,0.95c-0.06,0.15-0.17,0.28-0.26,0.43
		c-0.37,0.62-1.08,2.31-1.32,2.91c-0.18,0.44-0.32,0.89-0.43,1.35c-0.09,0.4-0.11,0.8-0.06,1.2c0.06,0.43,0.17,0.49,0.56,0.3
		c0.38-0.19,0.73-0.44,1.07-0.71c0.75-0.58,1.4-1.28,2.02-2c0.86-0.98,1.69-1.98,2.54-2.97c0.25-0.59,0.51-1.18,0.75-1.77
		c0.12-0.31,0.21-0.63,0.34-0.94c0.19-0.47,0.51-0.67,0.93-0.58c0.42,0.09,0.65,0.47,0.57,0.99c-0.07,0.47-0.25,0.91-0.41,1.36
		c-0.1,0.27-0.2,0.55-0.3,0.82c0.03,0.14,0.01,0.3-0.04,0.46c0.18-0.18,0.37-0.36,0.55-0.54c0.82-0.83,1.71-1.57,2.71-2.18
		c0.34-0.21,0.69-0.41,1.09-0.52c1-0.26,1.82,0.29,1.91,1.32c0.06,0.67-0.05,1.32-0.25,1.96c-0.28,0.86-0.56,1.71-0.84,2.57
		c-0.18,0.54-0.33,1.09-0.41,1.65c-0.03,0.21-0.07,0.41,0.03,0.65c0.34-0.07,0.55-0.3,0.77-0.51c0.93-0.89,1.72-1.9,2.37-3.01
		c0.36-0.61,0.7-1.24,1.05-1.85c0.09-0.16,0.19-0.33,0.31-0.47c0.06-0.07,0.13-0.12,0.19-0.16c0.42-0.63,0.91-1.23,1.49-1.78
		c0.45-0.43,0.95-0.78,1.51-1.05c0.43-0.21,0.88-0.36,1.36-0.37c1.23-0.03,2.13,0.86,2.09,2.09c-0.02,0.61-0.19,1.18-0.54,1.67
		c-0.76,1.05-1.75,1.78-3.03,2.09c-0.57,0.14-1.12,0.12-1.68-0.05c-0.47-0.14-0.48-0.14-0.65,0.32c-0.19,0.52-0.28,1.05-0.28,1.46
		c-0.01,1.34,0.88,2.06,2.06,1.82c0.4-0.08,0.76-0.25,1.11-0.46c1.09-0.65,1.96-1.55,2.79-2.51c0.82-0.95,1.65-1.9,2.47-2.84
		c0.2-0.23,0.41-0.47,0.69-0.61c0.39-0.2,0.77-0.14,1.04,0.14C217.19,232.32,217.24,232.68,217.05,233.04z M208.13,233.06
		c0.09,0.18,0.28,0.13,0.54,0.15c0.98-0.14,1.78-0.71,2.34-1.63c0.14-0.23,0.33-0.54,0.1-0.78c-0.23-0.25-0.54-0.04-0.79,0.07
		c-0.85,0.41-1.49,1.06-2.05,1.81C208.2,232.8,208.06,232.91,208.13,233.06z M164.34,233.06c0.09,0.18,0.28,0.13,0.54,0.15
		c0.98-0.14,1.78-0.71,2.34-1.63c0.14-0.23,0.33-0.54,0.1-0.78c-0.23-0.25-0.54-0.04-0.79,0.07c-0.85,0.41-1.49,1.06-2.05,1.81
		C164.41,232.8,164.27,232.91,164.34,233.06z M148.95,233.22c0-0.72-0.29-1.3-0.88-1.68c-0.58-0.37-1.09-0.05-1.56,0.3
		c-0.15,0.11-0.29,0.24-0.43,0.37c-0.73,0.69-1.32,1.49-1.75,2.39c-0.48,1-0.91,2.03-0.97,3.06c-0.02,1.01,0.33,1.22,1.13,0.78
		c0.31-0.17,0.59-0.39,0.86-0.63c1.35-1.21,2.4-2.67,3.45-4.13C148.89,233.54,148.95,233.39,148.95,233.22z M191.74,228.03
		c-0.02,0.02-0.05,0.04-0.07,0.05c-0.01-0.02-0.02-0.05-0.03-0.07c-0.16-0.41-0.67-0.65-1.08-0.47c-0.41,0.18-0.61,0.64-0.47,1.08
		c0.24,0.76,0.9,1.57,1.01,1.6c0.1,0.03,1.22-0.46,1.72-0.91c0.32-0.29,0.4-0.85,0.1-1.18C192.6,227.79,192.11,227.75,191.74,228.03
		z"/>
</g>
</svg>
