<?xml version="1.0" encoding="utf-8"?>
<!-- Generator: Adobe Illustrator 22.1.0, SVG Export Plug-In . SVG Version: 6.00 Build 0)  -->
<svg version="1.1" id="Layer_1" xmlns="http://www.w3.org/2000/svg" xmlns:xlink="http://www.w3.org/1999/xlink" x="0px" y="0px"
	 viewBox="0 0 500 500" style="enable-background:new 0 0 500 500;" xml:space="preserve">
<style type="text/css">
	.st0{fill:#92D1C8;}
</style>
<g>
	<path class="st0" d="M107,429.8c16.7-113.7,33.2-226.7,49.8-340.1c7,1.3,13.5,2.8,20,4c10.3,1.7,20.8,3.2,31.2,4.8
		c17.5,2.8,35,5.7,52.5,8.5c28.7,4.7,57.4,9.5,86,13.7c17.3,2.7,34.8,4.3,52.3,6.7c11.7,1.7,23.3,3.7,35.2,5.8
		c4.5,0.8,6.2,3,5.3,7.7c-1,4.8-2.5,9.5-4.2,14.2c-3.8,11-8.2,21.7-11.8,32.7c-4.3,12.5-6.3,25.7-8.3,38.7c-3.8,23.5-7.5,47-11,70.7
		c-3.3,22.7-6.2,45.3-9.2,68.2c-2.3,18.8-4.7,37.5-6.8,56.3c-1.2,10.7-1.8,21.5-2.7,32.3c-0.3,3.2-0.7,6.3-1.5,9.5
		c-1.7,6.5-5.3,9-12,8.7c-3.2-0.2-6.3-0.7-9.5-1.5c-17.3-4.7-35.2-7.3-53-10.2c-23-3.8-46-7.3-69-10.8c-20.5-3.2-41.2-6.2-61.7-9.2
		c-21.2-3.2-42.5-6.2-63.7-9.3C112.3,430.7,109.8,430.3,107,429.8z M298.7,397c-2.7-1.7-3-3.8-2.8-6.2c0-1.7,0.3-3.5,0.7-5.2
		c0.3-2.3,1.3-4,3.7-5.3c6.2-3.3,11-8.2,13-15c0.8-3,1.3-6,1.7-9c0.5-3.8-2.2-6-6-5c-1.5,0.5-3,1.3-4.2,2.2c-4.8,3.7-9,7.8-12.3,13
		c-4.3,6.7-6.2,14.2-5.5,22c0.5,5.3,3.3,9.5,8.2,11.3c4.5,1.8,8.3-1.2,11.3-4.3c2.8-3,5.3-6.3,8-9.5c2-2.3,4.2-4.7,6.2-7
		c0.5,1.3,0.3,2.2,0.2,3.2c-1,4-2.2,8-3,12c-1.7,7.5-3.2,14.8-3,22.5c0,2.5,0.3,5.2,1.2,7.5c1.5,4,5.7,5.2,9.2,2.8
		c1.3-0.8,2.5-2.2,3.3-3.3c1.2-1.8,2-3.8,3-5.7c2.8-5.8,5.7-11.8,11.7-15.3c0.3-0.2,0.3-0.8,0.5-1.5c-4.2-1.2-7,1-9.3,3.7
		c-3.7,4-6.2,8.7-8,13.8c-0.7,1.7-1.2,3.3-1.8,4.8c-0.3,0.5-1,0.8-2.2,2c0.5-5.2,0.3-9.5,1.2-13.5c3.3-15.2,7.3-30,12.7-44.5
		c0.8-2,1.8-3,3.8-3.3c9-2.2,18-1.8,27-1.2c3.8,0.3,7.5,1.5,10,5c1.3,1.8,2.7,1.7,5-0.3c-0.8-2.3-2.5-4.2-4.7-5.2
		c-3.3-1.5-6.8-3.2-10.5-3.7c-6-0.7-12.2-0.5-18.3-0.5c-2.8,0-5.7,0.3-8.8,0.5c0.3-2.2,0.8-3.7,1-5.3c0.2-2.7-2-4.2-4.5-3.2
		c-2.2,0.8-3.8,2.3-5,4.5c-0.8,1.3-1.7,2.7-2.3,3.8c-2.3,0.2-4.7-2.2-6.7,1.2c1.5,1.3,3,2.7,4.7,4c-1,3.3-1.8,6.7-4.3,9.3
		c-6,6.3-11.8,12.7-17.8,18.8C302.9,393.8,300.7,395.5,298.7,397z M292,293.3c-0.2,0-0.5-0.2-0.7-0.2c0.3-1.3,0.5-2.8,1-4.2
		c0.8-2.5,1.8-5,2.7-7.5c0.8-2.2,0.3-4.2-1.2-4.8c-2-1-3,0.5-4,1.8c-2.3,3.2-4,6.5-4.8,10.3c-0.5,2.3-0.8,4.7-1.5,7
		c-0.7,2.7-2.3,3.3-4.8,2.2c-2-1-2.3-1.8-2-4.5c0.8-5.8,1.8-11.8,2.5-17.8c0.2-1.7-0.2-3.5-0.8-5c-1.7-4.3-6-5-8.7-1.3
		c-1.5,2-2.5,4.7-3.2,7.2c-0.7,2.3-1.3,4.5-3.7,5.8c-1.5,0.8-2.8,2.5-3.8,4c-4.7,6-6.5,13-6.7,20.5c0,3.2,0.7,6,2.3,8.8
		c1,1.7,2.5,2.8,4.5,2.8c3.3-0.2,6.3-1,8.2-4.2c2-3.3,3.8-6.7,5.7-10.2c0.7-1.2,1.2-2.5,1.8-3.7c2.7,0.7,5,1.2,7.3,1.7
		c-0.5,4.5-1.2,8.8-1.3,13.2c-0.2,2.3,0.3,4.8,1,7c0.7,2,2.2,3.7,5,3.2c0.2-3.2,0.3-6.2,0.5-10.2c4,3.3,7.3,5.8,11.7,6.7
		c4.5,1,8.2,0.2,11.8-3.3c-2.8-1.2-5.5-0.7-7.8-0.5c-3.3,0.2-5.8-1.2-8.2-4.2c1.7-0.7,3.2-1.2,4.7-1.7c3-1,6-2.5,8-5.2
		c3.5-4.7,7.2-9.3,10.2-14.3c1.7-2.8,2.7-6.3,3.3-9.7c1-5.3-2.2-8.5-7.5-7.8c-1.2,0.2-2.3,0.3-3.5,0.7c-5.8,1.7-10,5.5-13.3,10.2
		C295,288.6,293.5,290.9,292,293.3z M180,238.3c0.8-0.8,1.7-1.8,2.7-2.7c4.5-3.5,7.7-8,10.5-12.8c4.2-7.2,6.3-15,8.3-22.8
		c0.8-3.2-0.8-7.8-3-9c-3.2-1.7-6-0.5-8.5,1.3c-4.5,3.2-7.8,7.7-10.3,12.5c-5.7,10.8-9.7,22.2-11.5,34.3c-0.3,1.8-0.8,3.7-1.2,5.5
		c-0.3,0-0.7-0.2-1-0.2c0-1.2-0.2-2.2,0-3.3c1.7-10.3,3.3-20.7,5.2-31c0.7-4,2.2-8,3.3-12c0.5-1.7,0.5-3.3-1.3-4
		c-1.8-0.8-3.2,0.2-4,1.7c-0.5,0.8-1.2,1.8-1.5,2.8c-0.8,2-1.7,4-2.3,6c-3.3,11-5,22.3-5.8,33.7c-0.2,3.2,0.3,6.3,0.8,9.5
		c0.3,1.7,1.3,3.3,2.3,4.5c2.5,2.8,5.8,2.2,7.3-1.3c0.5-1.2,0.5-2.3,0.8-3.5c0.3-1.2,0.7-2.5,1.2-4.2c1.5,1,2.5,1.8,3.7,2.3
		c1.5,0.8,3,1.8,4.5,2.3c5.5,1.7,9-1.2,8.5-6.7C186.3,239.6,182.5,241.3,180,238.3z M210.7,395.5c0.8,2.8,1.7,5.3,2.5,7.8
		c0.7,1.8,1.3,3.8,2.5,5.3c0.7,0.8,2.3,1.3,3.5,1.2c1.7-0.3,1.5-1.8,1.3-3.2c-0.8-5.3-1.5-10.5-2.3-15.8c-0.3-1.7-0.2-3.2,0.8-4.5
		c6.2-8,8.8-17.5,11.5-27c1.3-4.8,1.5-9.7,0.8-14.7c-0.3-3.2-1.8-5.8-4.8-7.3c-1.3-0.7-3-1.2-4.5-0.8c-7.3,1.2-12.8,5.3-17.3,11.2
		c-7.2,9.2-10.5,19.7-11.5,31c-0.3,4-0.2,8,1.5,11.8C197.8,396.8,204,399,210.7,395.5z M241.7,258.6c-1,0.5-1.8,0.7-2.5,1.3
		c-0.7,0.5-1.2,1.3-1.2,2.2c0,0.5,1,1.3,1.7,1.5c1.3,0.3,2.7,0.7,4,0.5c8.3-1,15.8-3.7,20.8-11c2.8-4.2,5.5-8.5,7.8-13
		c3-6.2,3.8-12.7,2.5-19.5c-0.8-5-3.5-8.5-8-10.7c-5-2.3-10.3-2.3-15.7-0.8c-1.3,0.3-2.5,1.7-3.7,2.3c1.3,3.3,1.3,3.3,0.5,6.2
		c-1.2,4-2.5,7.8-3.2,12C243,239.1,239.5,248.6,241.7,258.6z M259.2,351.8c-0.2,0.3-0.2,0.7-0.3,1c-4.7,10-5.8,20.7-6.8,31.5
		c-0.2,1.7,0,3.5,0.3,5.2c0.5,2,2.7,3.5,4.5,3.3c2-0.2,3-1.3,3.5-3.3c0.5-2.5,1-5,1.7-7.3c1.7-7,3.3-14,5-21c1-4.3,2-8.5,3-12.8
		c0.7-2.8-1.2-4.3-3.3-5.7c-2.2-1.3-3.8-0.2-5.3,1.2c-1,0.8-2,1.8-2.8,2.7c-5.5,6.2-10,12.8-13,20.5c-1.2,2.8-2.3,5.7-3.7,8.5
		c-0.5,1-1.2,1.8-2.2,3c-0.3-1-0.5-1.3-0.5-1.8c0-1,0-1.8,0.2-2.8c1.2-7.8,3-15.3,5.8-22.8c0.7-2,1.3-4,1.8-6.2
		c0.3-1.5-0.2-2.5-1.7-3.3c-1.5-0.8-2.5-0.3-3.5,0.8c-3.2,3.5-5.8,7.3-7,12c-0.8,3-1.8,5.8-2.3,8.8c-0.8,4.5-1.3,9-1.7,13.5
		c-0.2,1.3,0.2,2.7,0.7,3.8c1.2,3.2,4.2,4,7.2,2.3c2.7-1.5,5-3.5,6.5-6.3c2-4,3.8-7.8,5.7-11.8C252.9,360.1,255.2,355.5,259.2,351.8
		z M229,287.1c0.3,0.2,0.5,0.2,0.8,0.3c0,0.5,0,1-0.2,1.5c-1.8,9.2-2.2,18.5-2,27.8c0,3.5,0.5,7,2.7,9.8c2.8,3.8,6.8,3.5,8.7-0.8
		c1.5-3.3,2.7-7,3.8-10.5c3.8-12,7.7-24,11.5-36.2c0.2-0.8,0-1.7,0-2.5c-1.2,0.2-2.7-0.2-3.2,0.3c-1.2,1.3-2.2,3-2.7,4.8
		c-4,13.3-7.8,26.5-11.7,39.8c-0.3,1.2-0.8,2.5-1.2,3.7c-0.3,0-0.7,0-1,0c-0.2-1.5-0.8-3-0.7-4.3c0.5-8,1.2-15.8,2-23.8
		c0.5-4.8,1.5-9.7,2-14.7c0.3-2.8-0.8-4.7-2.7-5.2c-2.3-0.7-3.8,0.7-5,2.3c-1.7,2.5-3.5,5-4.8,7.8c-3.2,6.8-5.8,13.7-8.8,20.5
		c-0.3,0.8-0.8,1.7-1.3,2.7c-0.5-0.5-0.7-0.7-0.8-0.8c0-1.2,0-2.3,0-3.5c0.5-9.2,3-18.2,4.8-27.2c0.3-1.5,0.5-3.2,0.5-4.7
		c0-0.5-0.8-1.5-1.5-1.5c-0.7,0-1.5,0.3-2,0.8c-0.5,0.3-0.7,1.2-0.8,1.8c-2.7,9.5-6,18.8-6.3,28.8c-0.2,3,0.7,6,1.3,9
		c0.3,1.5,1.2,2.8,3,2.8s3.5-0.5,4.3-2.3c0.5-1,1-2,1.3-2.8c2.7-6.2,5.2-12.3,7.8-18.3C227.2,290.6,228.2,288.9,229,287.1z
		 M331.4,320.6c8.7,3.5,15.5,2.7,22.3-1.7c6-3.8,10.8-9,14.3-15.3c4-7.5,2.3-20.3-10.3-23.3c-2.3-0.5-4.7-0.8-7-1.2
		c-4.2-0.7-7.7,0.8-11.3,3.5c2,1.3,2.2,2.8,1.7,5c-1.3,5.7-2.7,11.3-3.7,17.2c-0.7,4.3-2.3,8.8-0.8,13.3
		C334.9,319,333.4,319.6,331.4,320.6z M326.2,255.1c0.8-4.2,2-8.2,2.2-12.5c0.8-11.7,3-23,7.2-33.8c0.2-0.5,0.3-1,0.5-1.5
		c0.2-1.8-1-3.8-2.7-4.5c-1.8-0.7-3,0.3-3.8,1.8c-0.5,0.8-1.2,1.8-1.5,2.8c-3.3,8.5-6,17-6.2,26.3c0,3.2-0.5,6.5-0.8,9.7
		c-1-0.5-1.5-1.2-1.7-1.8c-1-3.5-2.2-7.2-3-10.8c-1.2-4.5-2.8-8.8-5.3-12.8c-0.8-1.3-1.8-2.8-3.7-2.7c-3,0.3-5.8,0.8-7.3,4
		c-3.5,7.5-5,15.5-4.7,23.7c0,1.5,0.7,2.7,2.3,2.8c1.5,0.2,3,0,3.7-1.7c0.5-1.3,1-2.7,1.3-4.2c1-4.5,1.7-9.2,2.7-13.7
		c0.2-1.2,0.8-2.2,1.2-3.2c0.3,0,0.5,0,0.8,0c0.7,2.5,1.3,5,1.8,7.5c1.5,7.2,4.3,13.7,9.3,19.2c0.8,1,1.7,2,2.3,3.3
		C321.7,255.4,323.2,256.3,326.2,255.1z M228.2,234.1c-0.3,3.7-0.7,7.2-1,10.5c-0.2,2.7,0.2,5.3,1.8,7.5c1,1.5,2.2,2.8,4.2,2.5
		c2.2-0.3,1.8-2.3,2-3.8c0.7-4.3,0.8-8.7,1.5-13c1.2-7.8,2.7-15.7,3.8-23.7c0.5-2.8,0.8-5.8,1-8.7c0.2-2.3-0.2-4.7-2.7-5.8
		c-2.5-1.2-5-0.5-7,1.3c-0.7,0.5-1.2,1.2-1.7,1.7c-1.2,1.5-2.3,2.8-3.3,4.5c-6.7,10.2-11.2,21.2-13.2,33.2c-0.5,3.3-0.7,6.7-0.8,10
		c0,0.8,0.8,2.5,1.2,2.5c1.2,0,2.5-0.5,3.5-1.2c0.7-0.7,0.8-1.8,1-2.8c0.8-3.7,1.3-7.3,2.2-11C221.9,233.4,223.5,232.6,228.2,234.1z
		 M211.3,157.4c0.2,0.2,0.5,0.2,0.7,0.3c-0.2,0.7-0.3,1.3-0.5,1.8c-0.8,5.8-1.8,11.5-2.5,17.3c-0.2,2.2,0.3,4.5,0.8,6.7
		c0.5,2,2,3.2,4,3.2c1.8,0,3.3-0.7,4.3-2.3c0.7-1.5,1.3-3,1.8-4.3c4-10.7,7.8-21.2,11.8-31.8c0.2-0.7,0.7-1.2,0.7-1.8
		c0-0.8-0.2-2.3-0.5-2.3c-0.8-0.2-2,0-2.8,0.5c-0.7,0.5-1,1.5-1.3,2.5c-4.7,11-8.8,22-11.7,33.5c-0.2,1-0.7,1.8-1,3.2
		c-1.3-2.5-1.3-2.5-1-5.5c1-10.3,3.8-20.3,6.3-30.5c0.3-1.5,1-2.8,1-4.3c0-0.8-0.7-2.2-1.3-2.5c-0.7-0.3-2,0-2.8,0.5
		c-0.8,0.3-1.2,1.3-1.8,2.2c-5.7,7.5-9.3,16-12.8,24.7c-0.5,1.2-1,2.3-1.5,3.3c-0.5-1.2-0.8-2.3-0.5-3.2c1.3-5.5,3-11,4.3-16.5
		c0.3-1.3,1-2.8,1.2-4.2c0-0.8-0.8-2-1.5-2.3c-0.5-0.3-1.8,0.2-2.3,0.8c-1,1.2-1.8,2.3-2.2,3.8c-1.7,5.3-3.2,10.7-4.3,16.2
		c-0.5,2.3-0.2,4.8,0.3,7.2c0.3,1.8,1.5,3.7,3.7,3.8c2.2,0.2,3.8-1,4.7-3c1-2.5,2.2-4.8,3.2-7.3C208.7,163.6,210,160.6,211.3,157.4z
		 M343.2,256.4c-0.3-0.2-0.8-0.3-1.2-0.3c0-1.8-0.3-3.7,0-5.5c1.3-7,2.5-13.8,4.2-20.7c1.2-5.2,3.8-9.7,7.8-13.2
		c2.7-2.3,3.2-2.2,5.3,0.5c1.3,1.7,2.7,2,3.5,1c1.2-1.3,0.3-2.7-0.5-3.5c-0.8-1-2-2-3.2-2.3c-2.2-0.5-4.5-0.8-6.7-0.3
		c-6.8,1.3-11.7,5.3-13.8,12c-1.8,5.5-3,11.3-4.2,17c-0.7,3.3-0.8,6.8-0.7,10.3c0.2,3.7,3,7.3,6.3,8c3.3,0.7,6.3-0.7,8.5-3.3
		c0.3-0.3,0.7-0.8,1-1.3c4.5-5.8,7.7-12.2,9.5-19.2c0.7-2.3,1.7-3.5,4-3.5c3.7,0,7.5-0.3,11.2-0.5c1.2,0,2.2,0,3.5,0
		c-0.3-2.7-2-3.2-3.5-3.3c-7.2-1.3-14.3-1-21.2,1.7c-0.8,0.3-1.5,1.2-3.2,2.2c2.3,0.7,3.8,1,5.5,1.5
		C352.1,241.8,349.6,250.1,343.2,256.4z M162.7,372.5c0.7,2.3,0.8,4.3,1.7,6c1.8,3.7,6.2,3.8,8.3,0.5c2.7-3.8,3.8-7.8,3-12.5
		c-1-5.8-2.3-11.5-3-17.3c-0.5-3.7-0.5-7.5-0.2-11.2c0.2-2.2,0.7-4.5,3.7-5.2c0.3,0.7,0.8,1.2,1,1.8c0.3,2.8,0.5,5.8,0.5,8.7
		c0,1.2-0.5,2.7,1.2,2.8c1.5,0.3,1.8-1.2,2.2-2.3c1.2-3.5,1.3-7,0.2-10.7c-1.7-4.5-6.3-5.7-9.3-2c-1.7,2-2.7,4.7-3.2,7.2
		c-1.7,8.3-1.8,16.7,0.7,24.8c1.3,4.2,1.3,8.3,0.8,12.7c-0.2,0.8-0.7,1.5-1,2.7c-4.3-3.3-1.3-7.3-2-10.8c-2-1-2.3,0.7-3.2,1.5
		c-1.3,1.2-2.5,0.8-2.8-0.8c-0.2-0.8-0.3-1.8-0.3-2.8c0.5-7.3,0.3-14.7,2.3-21.8c0.5-1.5,0.7-3.2,2.7-3.5c0.5-0.2,1-1,1-1.5
		s-0.5-1.2-1-1.5c-2.5-1.2-6.2-0.2-8.3,2.3c2.2,0.8,2.3,2.3,1.8,4.3c-1,3.8-1.7,7.8-2,11.8c-0.5,5.5-0.8,11-1.2,16.7
		C158.3,373.6,160.5,374,162.7,372.5z M352.1,160.2c-1,3.5-2.5,7-3.2,10.7c-1,5-1.7,10.2-2.2,15.3c-0.2,1.5,0.5,3.2,1.2,4.5
		c0.5,0.8,2,1.2,3,1.3c0.3,0,1-1.7,1.2-2.5c0.5-3.3,0.7-6.7,1.5-9.8c1.8-7.2,4.2-14.3,6.2-21.5c0.3-1.3,1-2.8,1.2-4.2
		c0.3-3.2-2-4.8-4.8-3.3c-2,1-3.8,2.5-5.3,4c-4,4-6.8,8.8-9,14c-1.2,2.7-2,5.5-4.7,7.8c-0.5-3-1-5.7-1.5-8.2
		c-0.5-2.7-1.5-3.7-3.8-3.8c-2.2-0.2-3.2,1.2-3.7,3c-1.5,5.2-3,10.5-4.3,15.7c-0.2,0.7-0.2,1.7,0.2,2.3c0.3,0.7,1.2,1.3,1.7,1.3
		c0.8,0,1.7-0.5,2.2-1.2c0.5-0.5,0.3-1.5,0.7-2.3c0.8-3,1.7-6,2.7-9.7c1,1.8,1.5,2.8,2,3.8c2.2,3.3,5,3.7,7.3,0.5
		c1.7-2.3,3.2-4.8,4.5-7.5C347.1,166.7,348.9,163.1,352.1,160.2z M284.9,210.1c-3.5,14-8.7,27.7-7.8,42.2c-1.7,1.2-3,2-5,3.2
		c1.5,0.7,2.2,1.3,2.8,1.2c4.5-1,9-2.2,13.5-3.5c0.5-0.2,0.7-1.3,1.3-2.3c-2.2-0.2-3.5-0.2-5.2-0.2c-0.7-3.8,0.2-7.5,0.8-11.2
		c2-9.5,4.3-19,6.3-28.5c0.5-2,1.7-2.7,3.3-2.7c3.7,0,7.2-0.2,10.8,0c1.7,0,3.3,0.2,4.7-1.3c-6.5-5.2-29.7-3-34.3,3.2
		C279.2,212.4,282.2,208.9,284.9,210.1z M276.5,354.8c-5.7,13.7-8.2,27.7-10,42.2c-0.3,0.2-0.8,0.2-1.2,0.5
		c-0.5,0.5-1.5,1.3-1.3,1.8c0.2,0.7,1,1.3,1.8,1.8c0.3,0.3,1,0.2,1.5,0.2c2.5,0.2,5,0.3,7.5,0.3c1.8,0,3.3-0.3,4-2.7
		c-1.5-0.8-2.8-1.7-4.2-2.5c0.2-1.2,0.2-2.3,0.5-3.3c2.5-11,4.8-22,7.3-33c1-4.2,1-4.2,5.2-4.3c1.7-0.2,3.7,0.2,3.7-2
		c0-2-2.2-2-3.7-2.2c-3.3-0.7-6.8-1.2-10.2-1.7c-1.8-0.3-3.5-0.2-4.3,2.2C274.2,353,275.4,353.8,276.5,354.8z M200,254.1
		c0.3-2.8,0.7-5,0.8-7.2c0.2-2.3,1.3-3.3,3.5-3.3c1.7,0,3.5,0.2,4.7-1.8c-1.7-2.5-5.2-1-7.3-3.5c1.5-5.7,3-11.5,4.5-17.5
		c0.8-3.2,2.7-4.7,6-4.5c1.8,0,4,0.2,5.3-1.8c-0.7-2-2.3-2-4-2.2c-1.8-0.2-3.7-0.2-5.5-0.5c-4.2-0.8-4.5-0.8-6.8,2.7
		c-0.8,1.2-1.5,2.5-2,3.8c-2.7,7.7-5.2,15.3-6,23.5c-0.5,4.3-0.3,8.8-0.3,13.2c0,2.2,1.2,3.5,3.3,3.8c3.5,0.7,6.7-0.3,9.7-1.5
		c0.5-0.2,1.2-1.3,1-1.8c-0.2-0.5-1-1.2-1.7-1.2C203.8,253.9,202.3,254.1,200,254.1z M268,170.6c0.3,0,0.7,0,1,0
		c0.3,2.2,0.5,4.2,0.8,6.3c0.7,3.8,1.3,7.7,2.5,11.3c0.5,1.5,1.8,2.8,3.2,3.8c1.8,1.2,3.3,0.5,4.2-1.5c0.5-1.3,0.8-2.8,1.3-4.2
		c3.5-12.5,7.2-25.2,10.7-37.7c0.2-0.7,0.3-1.3,0.5-1.8c-3.2-1.5-3.8-1.3-4.8,1.7c-2,5.8-4,11.7-5.3,17.5
		c-1.7,6.8-2.7,13.8-4.2,20.8c-0.2,0.7-0.7,1.5-1,2.2c-0.3,0-0.5-0.2-0.8-0.2c-0.5-3.7-1.2-7.3-1.5-11c-0.3-5.3-0.5-10.7-0.8-16
		c-0.2-2.5-1-3.2-3.3-3.7c-2-0.3-3.3,0.2-4.2,2c-2.7,5.8-4,12.2-4.2,18.5c0,1,0.8,2.5,1.7,2.7c1.5,0.5,2.3-0.7,2.8-2.2
		c0.2-0.8,0.2-1.7,0.3-2.3C267.2,174.7,267.7,172.6,268,170.6z M322.9,333.8c0.3-3.3,0.5-6.7,1-9.7c1.7-10.7,4.5-21,8-31.3
		c0.5-1.3,1-2.8,1.3-4.2c0.3-1.5,0.2-3-1.3-3.8c-1.5-1-3-0.3-3.8,0.8c-1.5,2-3.2,4-3.8,6.3c-3.7,11.7-7.5,23.3-8.2,35.7
		c-0.2,1.5-0.2,3,0,4.3c0.5,3.7,1.7,5,5.3,5c4.2,0.2,8.5,0,12.8-0.2c0.5,0,1-0.7,1.7-1.2C331.5,333.8,327.4,335,322.9,333.8z
		 M241.4,169.2c-0.2,2.2-0.3,4-0.5,5.8c-0.3,2.8-0.7,5.5-1,8.3c-0.2,1.5-0.2,3,1.8,3.5c1.7,0.3,2.5-0.3,3-2.7c0.8-5,1.3-10,2.7-15
		c2-8.3,4.5-16.7,6.8-25c0.3-1.3,1-2.7-0.5-3.5c-1.8-1-2.7,0.3-3.5,1.7c-1.2,2.3-2.3,4.5-3.2,6.8c-1.5,4.8-2.8,9.7-4,14.7
		c-0.5,2-1.3,3.2-3.5,2.8c-0.7-0.2-1.5-0.3-2.7-0.5c0.5-1.8,0.8-3.5,1.2-5.2c0.3-1.5,1-2.8,1-4.2c0-0.8-0.8-2.2-1.5-2.3
		c-0.7-0.2-2,0.5-2.5,1.2c-0.7,0.7-0.8,1.7-1,2.5c-1,3.2-2.2,6.3-2.8,9.5c-0.8,3.3-1.3,6.8-1.7,10.2c-0.2,3.3,0.7,3.7,4,2.7
		c0.7-3.8,1.3-7.7,2.2-12C237.7,168.7,239.4,168.9,241.4,169.2z M169.8,295.1c0,2.2,0,4.5,0,6.7c0,1.5,0.2,3.2,0.7,4.7
		c0.3,0.8,1.5,1.7,2.2,1.7c0.8,0,1.8-0.8,2.3-1.7c0.5-0.7,0.3-1.8,0.3-2.7c0.2-2.2,0.2-4.5,0.7-6.7c1.3-6.2,3-12.2,4.5-18.2
		c0.2-0.8,0.7-1.8,0.7-2.7c-0.2-1-0.5-2-1.2-2.7c-1.2-0.8-2.3-0.3-3,0.8c-1,1.5-1.8,3.3-2.3,5c-1.2,3.2-2,6.3-3,9.5
		c-0.7,2.2-2.2,2.7-4.2,2.5c0-1.8,0.2-3.3,0-4.8c-0.2-0.8-1-1.7-1.5-2.5c-0.8,0.5-1.8,1-2.3,1.8c-0.7,1.5-1,3-1.2,4.7
		c-0.5,3.5-1,7.2-1.3,10.7c-0.2,1.3,0.3,2.8,2,3c1.5,0.2,2.3-1.2,2.7-2.5c0.3-1.5,0.3-2.8,0.7-4.3
		C166.5,295.1,167.7,294.3,169.8,295.1z M167,275.3c-4.8-1.5-9.5-0.5-13.8,1c-3.8,1.3-8,2.3-10.3,6.2c0.2,0.3,0.3,0.7,0.3,1
		c2.5-0.5,4.8-1,7.7-1.5c-2.5,6.7-3.2,13.2-3.3,19.7c0,1.5,0.2,3,0.5,4.3c0.3,1.5,1.3,2.7,3.2,2.3c1.7-0.3,2.5-1.3,2.5-3.2
		c0-1,0-1.8,0-2.8c0.2-6,0.7-12,2.5-17.7c2-6,0.5-5,6.8-6.5C164.7,277.8,166.3,277.8,167,275.3z M186.8,295.9c0-0.8-0.2-1.7,0-2.7
		c0.5-3,1-6,1.8-9c1-4.7,1.2-4.5,6-5c1.3-0.2,2.7-0.3,4-0.7c0.7-0.2,1.2-0.8,2-1.5c-3.7-2.2-7-1.3-10.5-0.8c-2.5,0.3-4.2,1.7-5,4
		c-1,3.2-2.2,6.3-2.8,9.5c-1.5,6.3-2,12.7-1.2,19c0.5,3.8,1.8,4.5,5.3,2.8c1.8-0.8,3.5-1.8,5.2-2.8c0.5-0.3,0.8-1.2,1.8-2.3
		c-2.7,0.7-4.5,1-6.7,1.5c0-2.8,0-5.3,0-7.7c2.8-1.5,6.2-1.2,8-4.2C192,293.9,189.7,296.8,186.8,295.9z M310.2,184.2
		c-0.2-5.3,3.5-21.2,5.8-25.2c1.3-0.5,3.2,0.8,4.2-1.2c-2.5-2-5-2.5-10.2-2c-1.3,0.2-3,0-3.8,2c1.5,0.5,2.7,1,4.3,1.5
		c-0.5,1.3-1,2.7-1.3,4.2c-1.3,5.3-2.7,10.8-3.8,16.3c-0.5,2.2-0.8,4.5-1.3,7.2c3.5,1,7.2,0.8,10.7-0.8c0-0.3,0-0.7,0-1
		C313.2,184.7,311.9,184.4,310.2,184.2z M270.5,154.2c-0.5-0.3-1-1-1.3-1c-4,0-8-0.3-12,0c-1.2,0.2-2.5,1.5-3.2,2.7
		c-1.5,3.3-3,6.8-3.8,10.5c-1,3.7-1.3,7.5-1.7,11.3c-0.2,1.5,0,3.7,2,3.8c2.5,0.2,5.2,0.2,8.3-2c-2.5-0.5-4-0.8-6-1.2
		c0.3-2,0.8-3.8,1.2-5.5c3-0.5,5.5,0.2,8.2-2.2c-2.8-0.5-5-1-7.7-1.5c0.7-2.5,1.3-5,2.2-7.3c1.7-5.5,1.8-5.3,7.7-5.8
		C266.2,155.9,268.7,156.2,270.5,154.2z M325.4,162.4c0.8,0,1.3,0.2,1.5,0c4.7-2.8,6.7-7.2,7.8-12.3c0-0.3,0.2-1-0.2-1.2
		c-0.7-0.7-1.3-1.3-2.2-1.5c-0.5-0.2-1.5,0.7-1.7,1.2c-1.8,3.7-3.5,7.3-5,11.2C325.4,160.6,325.5,161.6,325.4,162.4z"/>
	<path class="st0" d="M408.4,126.4c-1.2,0.2-2.2,0.5-3.3,0.5c-5,0.2-7-1.5-7-6.5c-0.2-3.5,0.2-7,0.3-10.3c0-1.2,0.2-2.3,0.2-3.8
		c-5.7-0.8-11.2-1.8-16.7-2.7c-21.7-3.3-43.5-6.8-65.2-10.2c-21.5-3.3-43-6.7-64.4-10c-21.3-3.3-42.7-6.7-64-10
		c-17.3-2.7-34.5-5.3-52-6.2c-3.3-0.2-6.7,0-10,0.2c-1.7,0.2-3.5,0.5-5,1.2c-3.5,1.5-4.2,5.3-1.3,7.8c1.8,1.5,3.8,3,6,3.8
		c6.2,2.5,12.3,4.8,18.7,7.2c1.3,0.5,2.7,1,4.3,1.5c-0.8,6.5-1.5,12.8-2.3,19.2c-2,15.8-4,31.7-6.2,47.5
		c-3.3,23.8-6.5,47.8-10.2,71.7c-3.3,23-7.2,45.8-10.7,68.7c-3.7,22.8-7.3,45.8-10.8,68.7c-2.7,17.2-5,34.3-7.5,51.3
		c-0.5,3.7-1.2,7.3-1.5,11c-0.2,1.8-1,2.8-2.7,2.8c-2.7,0.2-5.3,0.3-8,0c-6.7-1-12.8-3.5-18.8-6.5c-9.8-5.2-13.7-13.8-11.3-24.8
		c1.5-7.3,2.8-14.7,3.8-22c3-20.5,5.7-40.8,8.5-61.4c2.5-18.2,5-36.5,7.5-54.7c2.8-20.2,5.7-40.3,8.5-60.5c2.5-18.2,5-36.5,7.5-54.7
		c2.2-16.3,4.5-32.7,6.7-49.2c1-7,1.8-14,2.8-21c0-0.3,0.2-0.8,0.2-1.2c2.3-12,9.5-18.5,21.8-18.8c7.5-0.2,15,0.2,22.3,1.2
		c12.8,1.7,25.5,4.3,38.2,6.3c18.5,2.8,37.2,5.7,55.7,8.3c18.7,2.8,37.3,5.7,56.2,8.3c17.2,2.5,34.3,5.2,51.3,7.7
		c15.8,2.3,31.7,4.5,47.5,6.8c3.3,0.5,6.7,0.8,9.8,1.3c2.2,0.3,4.2,0.7,6.2,1.3c2.8,1.2,3.7,3,2,5.7c-1.2,1.8-2.7,3.8-4.3,5.2
		c-3,2.7-4.2,5.8-3.8,9.7C407.7,120.4,408.1,123.2,408.4,126.4z"/>
	<path class="st0" d="M298.5,376c2.8-7.3,4.3-15,10.5-20.5C310.9,361.6,305,373.1,298.5,376z"/>
	<path class="st0" d="M289.7,310.6c4.8-11,8-22.5,18.3-29.5c2-1.3,3.8-2.7,6.5-2.5C314,287.1,299.5,305.9,289.7,310.6z"/>
	<path class="st0" d="M260.7,315.5c-3.7-7-0.8-21.5,5.3-28c1.5,2.7,3,5.3,4.3,8c0.3,0.7,0.3,1.7,0.2,2.3c-1.8,5.7-4.3,11-7.8,16
		C262.4,314.3,261.5,314.6,260.7,315.5z"/>
	<path class="st0" d="M272.4,287.6c-1.5-5.5-1-10.3,0.8-15.3C274.9,275.1,274.5,282.1,272.4,287.6z"/>
	<path class="st0" d="M175,235.3c0.3-11.8,12.3-35.8,19.5-39.7C196.2,202.1,183.5,228.3,175,235.3z"/>
	<path class="st0" d="M224.4,341c2.7,2.8,2.5,6.3,2.2,9.7c-1,9.2-3.7,18-7.3,26.5c-0.2,0.5-0.5,0.8-1,1.5c-1.2-1.8-0.8-3.5-0.7-5.2
		c0.2-2.8,0.5-5.5,1-8.3c0.2-1.7,0-3-1.5-3.7c-1.8-0.8-2.8,0.5-3.5,1.7c-2.3,3.8-3,8.3-3.3,12.7c-0.3,3.7,0,7.5,0,11.2
		c0,1,0.2,1.8,0.2,2.8c-0.2,1.7-1.7,3.2-3.3,3.5c-2,0.3-2.5-1-3-2.5c-1.5-3.8-1.3-8-0.7-11.8c1.8-10.5,4.7-20.7,9.5-30.3
		C214.8,343.5,218.5,340.8,224.4,341z"/>
	<path class="st0" d="M249.7,253.6c0.2-1.8,0-3.7,0.3-5.5c1.7-9.3,3.5-18.5,5.5-27.7c0.3-1.5,0.8-3,1.5-4.5c1.3-3.2,4.7-3.7,6.8-1.2
		c1,1,1.5,2.5,2,3.8c1.2,4,1,8.3-0.3,12.2c-2.5,7.7-6.2,14.7-11.8,20.5c-1,1-2.2,1.8-3.2,2.8C250.4,253.8,250,253.6,249.7,253.6z"/>
	<path class="st0" d="M343.4,314.1c2-8.8,4.2-17.5,6.3-26.3c0.5-1.8,0.8-4,3.7-4c3.7,0,6.2,1.2,7.2,4c1.2,3.2,0.7,6.3-0.8,9.3
		c-2,4.3-4.8,7.8-8.3,11.2c-2.3,2.2-4.7,4.3-7,6.5C344.1,314.6,343.7,314.5,343.4,314.1z"/>
	<path class="st0" d="M233.2,209.9c-1.3,6.3-2.5,12.7-3.8,19c-2,0-3.7,0-6,0c2.2-7.2,5.3-13.3,9-19.3
		C232.5,209.8,232.9,209.8,233.2,209.9z"/>
</g>
</svg>
