<?xml version="1.0" encoding="iso-8859-1"?>
<!-- Generator: Adobe Illustrator 25.2.0, SVG Export Plug-In . SVG Version: 6.00 Build 0)  -->
<svg version="1.1" id="Layer_1" xmlns="http://www.w3.org/2000/svg" xmlns:xlink="http://www.w3.org/1999/xlink" x="0px" y="0px"
	 width="300px" height="300px" viewBox="0 0 300 300" enable-background="new 0 0 300 300" xml:space="preserve">
<g>
	<g>
		<path d="M70.015,151.954c0.496-0.909-0.909-2.313-1.735-1.239c-2.314,3.057-7.354,4.131-10.41,3.305
			c-11.238-3.221-5.372-22.061-0.827-22.061c2.808,0,2.478,4.627,2.974,10.659c0.578,6.032,13.054,0.744,9.831-4.958
			c-3.138-5.618-8.178-8.014-14.459-8.014c-9.171,0-16.524,6.857-16.524,15.286c0,8.427,7.354,15.286,16.524,15.286
			C61.752,160.217,67.289,156.83,70.015,151.954z"/>
		<path d="M82,140.718c-5.536,0-10.08,4.379-10.08,9.749c0,5.371,4.543,9.75,10.08,9.75c3.306,0,6.281-1.57,8.098-3.966
			c0,0,1.735,3.966,6.197,3.966h8.428c0.909,0,1.157-1.075,0.33-1.735c-2.892-2.149-3.389-3.966-3.389-7.023v-6.775
			c0-8.924-6.693-15.037-15.534-15.037c-7.6,0-11.733,3.8-11.733,7.354c0,4.792,12.395,3.139,10.66-0.91
			c-0.993-2.148-0.993-4.131,0.248-4.131c2.974,0,4.792,5.453,4.792,10.246v2.479C88.28,142.288,85.306,140.718,82,140.718z
			 M85.636,155.755c-2.232,0-4.049-2.396-4.049-5.288c0-2.891,1.817-5.288,4.049-5.288c2.314,0,4.131,2.397,4.131,5.288
			C89.767,153.359,87.95,155.755,85.636,155.755z"/>
		<path d="M132.327,158.482c-0.827,0.661-0.496,1.735,0.33,1.735h16.36c1.817,0,1.733-1.405,0.909-2.066
			c-1.901-1.405-2.81-10.824-2.81-19.004v-1.9h5.866c1.075,0,1.405-0.909,1.405-1.982c0-1.075-0.33-1.983-1.405-1.983h-5.7
			c0.412-6.197,1.817-11.32,5.782-12.393c5.866-1.652,19.17,11.733,28.257,4.379c5.702-4.71-0.825-14.79-5.534-8.841
			c-5.536,7.187-16.939,1.734-24.54,1.734c-5.43,0-10.042,2.282-12.798,6.106c-0.78-3.104-4.906-6.106-11.662-6.106
			c-8.841,0-15.534,6.032-15.534,14.955v0.165h-1.321c-1.157,0-1.487,0.909-1.487,1.983c0,1.074,0.33,1.982,1.487,1.982h1.321
			v14.212c0,3.057-0.494,4.875-3.387,7.023c-0.827,0.661-0.496,1.735,0.33,1.735h16.358c1.819,0,1.735-1.405,0.911-2.066
			c-1.901-1.405-2.81-10.824-2.81-19.004v-1.9h5.866c1.075,0,1.405-0.909,1.405-1.982c0-1.075-0.33-1.983-1.405-1.983h-5.618
			c0.661-6.775,2.396-12.807,4.71-12.807c1.239,0,1.239,1.9,0.248,4.131c-1.714,4.04,4.818,5.893,8.457,4.102
			c-0.388,1.371-0.605,2.842-0.605,4.409v0.165h-1.321c-1.157,0-1.487,0.909-1.487,1.983c0,1.074,0.33,1.982,1.487,1.982h1.321
			v14.212C135.714,154.516,135.22,156.333,132.327,158.482z"/>
		<path d="M155.961,144.932c0,8.427,7.354,15.286,16.524,15.286c6.363,0,11.899-3.388,14.625-8.263
			c0.496-0.909-0.909-2.313-1.735-1.239c-2.314,3.057-7.354,4.131-10.41,3.305c-3.306-0.991-5.124-3.305-5.95-6.032
			c1.735,0.744,3.637,1.24,5.784,1.24c6.445,0,11.733-4.379,11.733-9.75c0-5.453-6.941-9.831-13.384-9.831
			C163.233,129.646,155.961,136.503,155.961,144.932z M176.535,139.478c0,4.049-1.569,7.437-3.801,7.437
			c-1.983,0-4.049-2.727-4.049-7.105c0-5.288,2.728-7.85,4.049-7.85C174.965,131.959,176.535,135.347,176.535,139.478z"/>
		<path d="M195.13,130.224c3.389,0,6.693-2.726,7.436-6.032c0.745-3.388-1.403-6.032-4.71-6.032c-3.387,0-6.691,2.644-7.436,6.032
			C189.678,127.498,191.826,130.224,195.13,130.224z"/>
		<path d="M189.43,158.482c-0.827,0.661-0.496,1.735,0.33,1.735h16.112c1.735,0,1.735-1.405,0.825-2.066
			c-3.056-2.314-4.047-11.651-1.817-26.358c0.166-1.074,0.993-2.396-0.743-2.066c-3.14,0.661-6.445,6.032-14.377,6.032
			c-0.827,0-1.157,0.992-0.33,1.652c2.892,2.232,3.387,4.049,3.387,7.106v6.94C192.817,154.516,192.322,156.333,189.43,158.482z"/>
		<path d="M256.607,168.396c0.661,4.049-2.066,10.741-6.197,9.172c-4.627-1.818-4.049-19.83-4.049-26.11v-5.453
			c0-9.089-5.618-16.359-14.625-16.359c-2.644,0-4.792,1.239-6.527,2.974c0-0.248,0.082-0.578,0.082-0.827
			c0.166-1.074,0.993-2.396-0.743-2.066c-3.14,0.661-6.445,6.032-14.377,6.032c-0.827,0-1.157,0.992-0.33,1.652
			c2.892,2.232,3.387,4.049,3.387,7.106v6.94c0,3.057-0.494,4.875-3.387,7.023c-0.827,0.661-0.496,1.735,0.33,1.735h16.112
			c1.735,0,1.735-1.405,0.825-2.066c-2.644-2.066-3.799-9.337-2.478-20.905c1.487-2.644,3.389-4.131,4.71-4.131
			c4.131,0,5.536,8.759,5.536,18.343c0,17.269,6.197,26.11,14.459,28.754c11.154,3.635,24.953-5.206,21.07-14.46
			C267.761,159.556,255.45,161.126,256.607,168.396z"/>
		<path d="M280.324,150.715c-2.314,3.057-7.354,4.131-10.41,3.305c-3.306-0.991-5.124-3.305-5.95-6.032
			c1.735,0.744,3.637,1.24,5.784,1.24c6.445,0,11.733-4.379,11.733-9.75c0-5.453-6.941-9.831-13.384-9.831
			c-9.915,0-17.187,6.857-17.187,15.286c0,8.427,7.354,15.286,16.524,15.286c6.363,0,11.899-3.388,14.625-8.263
			C282.556,151.045,281.151,149.641,280.324,150.715z M267.683,131.959c2.232,0,3.801,3.388,3.801,7.519
			c0,4.049-1.569,7.437-3.801,7.437c-1.983,0-4.049-2.727-4.049-7.105C263.634,134.521,266.362,131.959,267.683,131.959z"/>
		<path d="M94.13,208.175c0.662,4.049-2.066,10.907-6.197,9.172c-3.553-1.487-2.974-19.995-2.974-26.11v-6.94
			c0-3.057,0.578-4.875,3.389-7.106c0.909-0.661,0.578-1.652-0.248-1.652c-7.932,0-10.906-6.114-19.831-6.114h-0.164
			c-9.089,0.082-16.36,6.857-16.36,15.286c0,8.427,7.354,15.286,16.524,15.286c2.15,0,4.215-0.413,6.115-1.157
			c1.157,12.642,5.536,18.921,12.477,21.152c11.236,3.635,25.035-5.206,21.068-14.46C105.285,199.335,92.973,200.905,94.13,208.175z
			 M68.269,197.682c-2.644,0-4.792-5.866-4.792-12.972c0-7.188,2.148-12.973,4.792-12.973c2.562,0,4.71,5.784,4.71,12.973
			C72.978,191.816,70.831,197.682,68.269,197.682z"/>
		<path d="M127.601,171.573c0.164-1.074,0.909-2.396-0.827-2.066c-3.056,0.661-6.445,6.032-14.377,6.032
			c-0.827,0-1.157,0.992-0.33,1.652c2.892,2.232,3.387,4.049,3.387,7.106v6.94c-1.073,2.479-2.644,4.958-4.379,4.958
			c-6.197,0-6.527-14.79-4.461-24.623c0.248-1.074,0.993-2.396-0.743-2.066c-3.14,0.661-6.445,6.032-14.377,6.032
			c-0.827,0-1.157,0.992-0.33,1.652c2.892,2.232,3.387,4.049,3.387,7.106c0,12.228,5.702,15.699,13.138,15.699
			c3.719,0,6.279-2.149,8.096-4.793c0.827,2.396,3.14,4.793,6.777,4.793h7.6c0.827,0,0.993-0.91,0.248-1.735
			C125.288,192.146,126.527,178.183,127.601,171.573z"/>
		<path d="M161.483,190.494c-2.314,3.057-7.354,4.131-10.41,3.305c-3.306-0.991-5.124-3.305-5.95-6.032
			c1.735,0.744,3.637,1.24,5.784,1.24c6.445,0,11.733-4.379,11.733-9.75c0-5.453-6.941-9.831-13.384-9.831
			c-9.915,0-17.187,6.857-17.187,15.286c0,8.427,7.354,15.286,16.524,15.286c6.363,0,11.899-3.388,14.625-8.263
			C163.714,190.824,162.309,189.42,161.483,190.494z M148.841,171.738c2.232,0,3.801,3.388,3.801,7.519
			c0,4.049-1.569,7.437-3.801,7.437c-1.983,0-4.049-2.727-4.049-7.105C144.792,174.3,147.52,171.738,148.841,171.738z"/>
		<path d="M194.453,190.494c-2.314,3.057-7.354,4.131-10.41,3.305c-3.306-0.991-5.124-3.305-5.95-6.032
			c1.735,0.744,3.637,1.24,5.784,1.24c6.445,0,11.733-4.379,11.733-9.75c0-5.453-6.941-9.831-13.384-9.831
			c-9.915,0-17.187,6.857-17.187,15.286c0,8.427,7.354,15.286,16.524,15.286c6.363,0,11.899-3.388,14.625-8.263
			C196.685,190.824,195.28,189.42,194.453,190.494z M181.812,171.738c2.232,0,3.801,3.388,3.801,7.519
			c0,4.049-1.569,7.437-3.801,7.437c-1.983,0-4.049-2.727-4.049-7.105C177.763,174.3,180.491,171.738,181.812,171.738z"/>
		<path d="M234.78,191.237v-5.453c0-9.089-5.7-16.359-14.625-16.359c-2.644,0-4.792,1.734-6.445,3.883l0.248-1.735
			c0.166-1.074,0.993-2.396-0.743-2.066c-3.14,0.661-6.445,6.032-14.377,6.032c-0.827,0-1.157,0.992-0.33,1.652
			c2.892,2.232,3.387,4.049,3.387,7.106v6.94c0,3.057-0.494,4.875-3.387,7.023c-0.827,0.661-0.496,1.735,0.33,1.735h16.112
			c1.735,0,1.735-1.405,0.825-2.066c-2.478-1.9-3.635-8.593-2.726-19.086c1.405-3.14,3.058-5.619,4.71-5.619
			c5.702,0,8.098,19.913,2.81,24.706c-0.827,0.744-0.909,2.066,0.827,2.066h16.442c0.825,0,1.157-1.075,0.33-1.735
			C235.276,196.112,234.78,194.295,234.78,191.237z"/>
	</g>
	<path fill="#F9B397" d="M251.659,109.536c3.45-2.317,5.069-5.99,3.626-8.486c-1.404-2.43-5.22-2.9-8.865-1.236
		c-0.282-4.147-2.653-7.384-5.536-7.384c-2.807,0-5.122,3.071-5.503,7.059c-3.732-1.829-7.721-1.394-9.163,1.102
		c-1.404,2.43,0.098,5.971,3.362,8.295c-3.45,2.317-5.069,5.99-3.626,8.486c1.404,2.43,5.22,2.9,8.865,1.236
		c0.282,4.147,2.653,7.384,5.536,7.384c2.807,0,5.122-3.071,5.503-7.059c3.732,1.829,7.721,1.394,9.163-1.102
		C256.425,115.4,254.923,111.86,251.659,109.536z M240.621,115.909c-3.699,0-6.697-2.998-6.697-6.697s2.998-6.697,6.697-6.697
		s6.698,2.998,6.698,6.697S244.32,115.909,240.621,115.909z"/>
	<path fill="#F9CD89" d="M39.984,175.41c3.45-2.317,5.069-5.99,3.626-8.486c-1.404-2.43-5.22-2.9-8.865-1.236
		c-0.282-4.147-2.653-7.384-5.536-7.384c-2.807,0-5.122,3.071-5.503,7.059c-3.732-1.829-7.721-1.394-9.163,1.102
		c-1.404,2.43,0.098,5.971,3.362,8.295c-3.45,2.317-5.069,5.99-3.626,8.486c1.404,2.43,5.22,2.9,8.865,1.236
		c0.282,4.147,2.653,7.384,5.536,7.384c2.807,0,5.122-3.071,5.503-7.059c3.732,1.829,7.721,1.394,9.163-1.102
		C44.749,181.274,43.247,177.734,39.984,175.41z M28.945,181.783c-3.699,0-6.697-2.998-6.697-6.697s2.998-6.697,6.697-6.697
		s6.698,2.998,6.698,6.697C35.643,178.784,32.644,181.783,28.945,181.783z"/>
	<path fill="#AED2D4" d="M272.589,203.758c3.445-2.314,5.059-5.98,3.62-8.472c-1.401-2.427-5.212-2.895-8.851-1.234
		c-0.281-4.14-2.648-7.372-5.527-7.372c-2.803,0-5.114,3.066-5.494,7.047c-3.726-1.826-7.709-1.392-9.148,1.101
		c-1.401,2.427,0.098,5.961,3.357,8.282c-3.445,2.314-5.059,5.98-3.62,8.472c1.401,2.427,5.212,2.895,8.851,1.234
		c0.281,4.14,2.648,7.372,5.527,7.372c2.803,0,5.114-3.066,5.494-7.047c3.726,1.826,7.709,1.392,9.148-1.1
		C277.347,209.612,275.846,206.079,272.589,203.758z M261.568,210.12c-3.693,0-6.686-2.994-6.686-6.686
		c0-3.692,2.994-6.686,6.686-6.686c3.693,0,6.686,2.994,6.686,6.686C268.255,207.126,265.262,210.12,261.568,210.12z"/>
</g>
<g>
</g>
<g>
</g>
<g>
</g>
<g>
</g>
<g>
</g>
<g>
</g>
</svg>
