<?xml version="1.0" encoding="utf-8"?>
<!-- Generator: Adobe Illustrator 27.10.0, SVG Export Plug-In . SVG Version: 6.00 Build 0)  -->
<svg version="1.1" id="Layer_1" xmlns="http://www.w3.org/2000/svg" xmlns:xlink="http://www.w3.org/1999/xlink" x="0px" y="0px"
	 width="300px" height="300px" viewBox="0 0 300 300" style="enable-background:new 0 0 300 300;" xml:space="preserve">
<g>
	<g>
		<path d="M193.9,118.8c-1.2-1.1-1.6-2.5-1.8-4c-0.1-0.6-0.1-1.3-0.2-1.9c-0.2-1.7-1.2-2.8-2.8-3.3c-1.5-0.5-3.1-0.4-4.6-0.1
			c-1.2,0.2-2.4,0.3-3.6,0.4c-0.8,0-1.5-0.3-1.9-1.1c-0.3-0.6-0.6-1.2-0.7-1.8c-0.2-0.9-0.3-1.8-0.3-2.7c-0.1-1.4-0.5-2.7-1.2-3.9
			c-1.1-1.6-2.6-2.5-4.5-2.6c-1.3,0-2.5,0.3-3.7,0.7c-0.7,0.2-1.1,0.6-1.5,1.2c-1.8,2.8-3.6,5.6-5.3,8.4c-1,1.6-1.9,3.3-2,5.2
			c-0.1,0.6-0.4,1.2-0.7,2c0.2,0.2,0.4,0.5,0.7,0.8c0.4,0.6,1,1.2,0.8,2c0,0.1,0.1,0.3,0.2,0.4c0.6,0.8,1,1.7,0.9,2.7
			c0,0.3,0.1,0.5,0.4,0.7c1.1,0.7,2.1,1.5,3,2.5c0.8,0.9,1.7,1.4,2.8,1.6c0.6,0.1,1.2,0.2,1.7,0.4c1,0.3,1.7-0.1,2.3-0.7
			c0.8-0.9,1.6-1.8,2.3-2.6c0.7-0.7,1.3-1.4,2.3-1.8c1-0.3,1.2-0.2,1.9,0.5c0.5,0.6,1,1.3,1.6,1.7c1.9,1.2,2.8,1.1,4.4-0.3
			c0.5-0.4,0.9-0.9,1.3-1.3c1.5-1.4,3.1-2.1,5.1-1.3c0.3,0.1,0.7,0.1,1.1,0c1-0.2,2-0.4,3-0.6c0.4-0.1,0.7-0.3,1.1-0.5
			C194.8,119.4,194.4,119.3,193.9,118.8z"/>
		<path d="M127.8,107.5c0.5,0.2,0.5,0.6,0.5,1.1c0,0.4-0.1,0.7-0.1,1.1c0.1,0,0.3,0.1,0.4,0c0.6-0.3,0.2-1,0.6-1.4
			c0.1,0.2,0.2,0.3,0.3,0.4c0.3,0.5,0.5,1.1,0.9,1.6c0.5,0.8,1.1,1.5,1.7,2.3c0.1,0.1,0.2,0.2,0.3,0.3c0.7,0.7,1.1,0.7,1.8,0
			c0.1-0.1,0.2-0.2,0.3-0.3c0.2,0.1,0.4,0.2,0.6,0.2c0.2,0,0.5,0,0.5-0.1c0.1-0.5,0.7-0.6,0.8-0.9c0.2-0.5,1-0.6,0.9-1.2
			c0,0,0.1-0.1,0.2-0.1c1-0.5,1.1-1,0.3-1.7c-0.1-0.1-0.1-0.2-0.2-0.2c-0.4-0.6-0.5-0.9,0.1-1.4c0.4-0.4,0.9-0.7,1.4-1.1
			c0.4-0.3,0.9-0.3,1.3,0.1c0.6,0.5,1.3,1,1.5,2c0,0.1,0.1,0.3,0.2,0.3c0.2,0.2,0.5,0.4,0.8,0.5c0.4,0.1,0.4-0.3,0.5-0.6
			c0,0,0.1-0.1,0.1-0.1c0.5,0.3,1,0.6,1.6,0.8c0.8,0.2,1.2,0.7,1.4,1.4c0.1,0.2,0.1,0.4,0.2,0.6c0.5,0.8,1,1.7,2.1,1.9
			c0.4,0.1,0.5,0.3,0.6,0.7c0.1,0.6,0.3,1.2,0.4,1.8c0.1,0,0.2,0,0.3,0c0.9-1,1.8-2,2.5-3c0.8-1.2,1.7-2.1,2.9-2.8
			c0.6-0.4,1.1-0.9,1.5-1.5c1.2-2,2.4-4.1,3.6-6.1c0.5-0.9,0.7-1.6-0.1-2.4c-0.6-0.7-1-1.6-1.5-2.4c-0.4-0.6-0.8-0.9-1.5-0.9
			c-1.6,0-3.2,0.2-4.7,1c-1.2,0.7-2.4,1.5-3.6,2.3c-1.2,0.8-2.7,0.6-3.5-0.8c-0.2-0.3-0.3-0.6-0.4-0.9c-0.5-1.6-1.6-2.5-3.1-3.1
			c-2-0.8-4-1.1-6.1-0.4c-1.8,0.6-3.5,1.5-5.1,2.6c-3.6,2.5-4.3,6.7-3.4,10.2C127.5,107.3,127.6,107.4,127.8,107.5z M133.1,105.6
			c0.3-0.4,0.7-0.8,1.2-1c0.9-0.5,1.4-0.3,1.7,0.6c0.1,0.2,0.1,0.4,0.2,0.6c-0.1,0.8-0.7,1.2-1.3,1.5c-0.4,0.2-0.9,0-1.3-0.3
			c-0.1-0.1-0.3-0.2-0.4-0.4C132.8,106.3,132.7,105.9,133.1,105.6z M134.9,109.8c-0.2,0.1-0.3,0.3-0.5,0.4c-0.2,0.2-0.4,0.4-0.6,0.6
			c-0.2,0.1-0.3,0.3-0.5,0.3c-0.1,0-0.3-0.2-0.4-0.4c-0.1-0.3-0.1-0.6-0.2-0.8c-0.1-0.2-0.1-0.5-0.2-0.8
			C133.6,108.6,134.5,108.9,134.9,109.8z M130.4,109.7c0.1-1,0.2-1.1,1-1.3c0.4-0.1,0.7,0,0.8,0.3c0.2,0.5,0.4,1,0.4,1.6
			c0,0.6-0.6,0.7-1,0.9c-0.4,0.2-0.6-0.1-0.8-0.5C130.6,110.4,130.2,110.2,130.4,109.7z"/>
		<path d="M141.1,130.6c0,1,0.4,1.9,1.3,2.4c-0.1,0.2-0.1,0.4-0.1,0.6c-0.1,0.8,0,1.6,0.6,2.2c0.3,0.2,0.3,0.5,0.4,0.9
			c0.1,1,0.4,1.8,1.6,1.9c0.1,0,0.2,0.1,0.4,0.2c0.1,1-0.1,2.2,1.3,2.3c0.1,0.6,0.1,1.2,0.4,1.7c0.3,0.7,0.8,0.8,1.5,0.5
			c0.2-0.1,0.3-0.1,0.6-0.2c0,0.5,0,0.8,0,1.2c0,0.6,0.2,1.1,0.8,1.4c0.4,0.2,0.6,0.1,0.7-0.2c0.1-0.3,0.2-0.7,0.2-1.1
			c-0.1-1.1-0.2-2.3-0.4-3.4c-0.1-0.4-0.1-0.8,0.2-1.2c0.5-0.8,1.1-1.6,1.6-2.4c0.4-0.7,1.2-1,1.9-1.1c1.6-0.3,3.1-0.2,4.6,0.2
			c0.7,0.2,1.4,0.3,2.1,0.6c0.8,0.4,1.5,0.9,2.2,1.3c0.3,0.2,0.5,0.1,0.7-0.1c0.1-0.1,0.2-0.4,0.1-0.6c-0.1-0.4-0.3-0.9-0.5-1.3
			c0.1-0.2,0.2-0.3,0.4-0.4c1-1,1.2-2.4,0.5-3.6c-0.3-0.4-0.3-0.8-0.2-1.3c0.2-1-0.1-1.8-0.8-2.6c-0.2-0.2-0.3-0.5-0.4-0.7
			c-0.1-0.8-0.4-1.5-1-2.1c-0.1-0.2-0.3-0.4-0.3-0.6c0-0.6-0.2-1.1-0.5-1.6c-0.2-0.3-0.4-0.7-0.6-1.1c-0.2-0.4-0.2-0.7-0.1-1.1
			c0.6-1.6-0.1-2.5-1.8-3.1c-0.5-0.2-0.8-0.4-1.1-0.8c-0.4-0.1-0.8-0.2-1.3-0.3c-0.5-0.1-0.9-0.3-1.1-0.8c1-0.1,1.9,0,2.5,0.9
			c0.6,0.2,1.2,0.5,2,0.4c-0.6-1-1.1-2-1.6-2.9c-0.2-0.4-0.5-0.6-1-0.4c-0.2,0.1-0.5,0-0.6-0.1c-0.5-0.4-1.1-0.3-1.6-0.1
			c-0.5,0.1-0.6,0.6-0.8,1c-0.2,0.4,0.2,0.5,0.4,0.8c0,0,0,0.1,0,0.3c-0.4,0-0.8-0.1-1.2-0.1c0.3-0.9,0.6-1.6,0.7-2.4
			c0.2-0.9,0.7-1.5,1.4-2c0.3-0.3,0.7-0.5,1-0.8c-0.4-0.4-0.7-0.3-1-0.1c-0.4,0.2-0.7,0.4-1.1,0.6c-0.2,0.2-0.5,0.4-0.6,0.6
			c-0.5,1.1-1.3,2-2.2,2.8c-1.4,1.5-3.1,2.7-4.8,3.9c-0.5,0.4-1.2,0.5-1.8,0.8c-0.4,0.2-0.8,0.3-1.1,0.5c-0.5,0.4-1.1,0.5-1.7,0.5
			c-0.9-0.1-1.9-0.2-2.8-0.2c-0.2,0-0.5,0.2-0.5,0.3c-0.1,0.2,0,0.5,0.2,0.6c0.3,0.2,0.6,0.3,0.9,0.4c0.8,0.2,0.9,0.5,0.5,1.1
			c-0.4,0.7-0.7,1.5-1,2.3c-0.4,0.8,0.3,1.6,0,2.4c-0.1,0.2,0.1,0.4,0.1,0.6c0.1,0.2,0.2,0.4,0.2,0.7c0.1,0.6,0.4,1.1,1,1.2
			C140.9,130.1,141.1,130.2,141.1,130.6z M143.2,133c0-0.2,0.2-0.3,0.3-0.4c2-1,3.6-2.4,5.3-3.7c0.1,0,0.1-0.1,0.3-0.1
			c0.2,0.7,0.4,1.3,0.6,1.9c0,0.2-0.1,0.4-0.2,0.6c-1.2,1.5-2.8,2.3-4.5,3c-0.2,0.1-0.5,0.1-0.8,0.1
			C143.3,134.3,143,133.8,143.2,133z M147.5,141.7c0-0.9,0.1-1,1.2-1.2c0.1,0.7,0.1,1.3,0.2,2C147.9,142.9,147.6,142.6,147.5,141.7z
			 M149,138.9c-0.1,0.6-1.5,1.4-2.1,1.2c-0.5-0.1-0.6-0.6-0.6-1c-0.1-0.4,0-0.6,0.4-0.9c0.8-0.5,1.4-1.1,2.1-1.7
			c0.1-0.1,0.2-0.3,0.3-0.4c0.1,0,0.2,0.1,0.2,0.1C149.3,137.1,149.2,138,149,138.9z M150.2,133c-1.2,1.8-2.8,3.1-4.8,3.9
			c-0.3,0.1-0.6,0.2-0.8,0.2c-0.6,0-0.7-0.1-0.9-0.8c2.7-0.5,4.8-2,6.6-4c0,0,0.1,0.1,0.1,0.1C150.4,132.7,150.3,132.9,150.2,133z
			 M160,135.9c-0.2,0-0.4,0-0.6-0.1c-0.5-0.1-1.1-0.2-1.6-0.2c-0.4,0-0.6-0.2-0.9-0.4c-0.2-0.2-0.5-0.5-0.8-0.6
			c-0.9-0.2-1.8-0.3-2.8-0.4c-0.9-0.1-1.2,0.2-1.2,1.2c0,0.5-0.3,0.8-1.1,1.4c0-0.2,0-0.3,0-0.4c0.4-0.8,0.7-1.7,1.1-2.5
			c0.4-0.7,1-0.9,1.8-0.6c1.8,0.6,3.6,1.3,5.4,1.9c0.3,0.1,0.5,0.3,0.7,0.4C160.1,135.8,160,135.8,160,135.9z M163.8,133.4
			c0.1,0.7-0.3,1.4-0.7,1.9c-0.2,0.3-0.5,0.4-0.8,0.1c-0.2-0.2-0.5-0.4-0.9-0.7c0.4-0.4,0.7-0.7,1-1c0.3-0.3,0.7-0.6,1.1-1
			C163.7,133,163.8,133.2,163.8,133.4z M162.5,129c0.9,0.7,0.8,1.5,0.6,2.3c-0.4,1.3-1.5,2-2.6,2.5c-0.2,0.1-0.5-0.2-1-0.4
			C161,132.2,161.9,130.7,162.5,129z M161.1,126.4c0-0.1,0.1-0.1,0.2-0.1c0.4,0.4,0.3,1,0.2,1.5c-0.1,0.6-0.4,1.2-0.9,1.6
			c-0.3,0.2-0.5,0.5-0.7,0.7c-0.4,0.6-1,1.1-1.6,1.5c-0.5,0.3-0.9,0.5-1.4,0.2c-0.8-0.4-1.7-0.4-2.7-0.1c-0.3-0.6-0.5-1.1-0.9-1.8
			c0.5,0.1,0.7,0.1,0.9,0.1c0.9,0.3,1.8,0.1,2.6-0.3C158.5,128.8,160.1,128,161.1,126.4z M159.4,125.3c-0.9,1-1.9,2-3.1,2.7
			c-0.9,0.5-1.8,0.6-2.8,0.5c-0.8-0.1-0.9,0-1.2-1.3c2.7-1.2,5.2-2.7,7.4-4.7C160.1,123.4,160.1,124.5,159.4,125.3z M157.6,119.7
			c0.1-0.2,0.2-0.5,0.3-0.7c1,0.4,1.2,1.2,0.6,1.9c-0.5,0.6-1.1,1.2-1.7,1.7c-1.5,0.9-3,1.8-4.6,2.6c-0.8,0.4-1,0.3-1.2-0.6
			c1-0.6,1.9-1.1,2.8-1.7c0.7-0.4,1.4-0.9,2.1-1.4C156.6,121.2,157.2,120.5,157.6,119.7z M155.4,117.7c0.9,0.4,1,0.7,0.6,1.3
			c-0.3,0.5-0.7,0.9-1.2,1.2c-1.1,0.8-2.3,1.6-3.5,2.4c-0.3,0.2-0.6,0.3-1,0.5c-0.1-0.3-0.2-0.5-0.3-0.7c1.2-0.8,2.3-1.6,3.4-2.4
			C154.3,119.4,155.1,118.8,155.4,117.7z M149,118.8c0.7-0.5,1.5-0.9,2.3-1.4c0.2-0.1,0.4-0.3,0.6-0.4c0.5-0.4,1-0.3,1.4,0.2
			c0.3,0.3,0.2,0.8-0.2,1.1c-0.8,0.7-1.7,1.3-2.5,2c-0.4,0.3-0.8,0.6-1.3,0.9c-0.5-0.5-0.7-1.2-0.7-1.8
			C148.6,119.1,148.8,118.9,149,118.8z M148.6,127.6c-0.5,0.4-0.9,0.8-1.3,1.2c-0.9,0.7-1.8,1.3-2.7,1.9c-0.6,0.4-1.2,0.7-1.9,0.4
			c-0.3-0.1-0.5-0.3-0.5-0.6c-0.1-0.3,0.2-0.4,0.5-0.5c1.4-0.8,2.8-1.5,4.1-2.4c0.4-0.3,0.7-0.7,1.2-1.2
			C148.1,126.8,148.3,127.2,148.6,127.6z M141.8,121.9c0.6-0.3,1.3-0.5,2-0.7c0.2-0.1,0.5-0.1,0.8-0.1c0.4,0.1,0.9,0.1,1,0.6
			c0.1,0.5-0.3,0.6-0.5,0.9c-0.9,0.8-1.8,1.5-3,1.8c-0.7,0.1-0.7,0.2-1.5-0.2C140.3,122.9,140.8,122.4,141.8,121.9z M139.6,127.6
			c-0.1-0.6,0.1-0.8,0.7-0.9c0.4-0.1,0.7-0.2,1-0.4c1.4-0.8,2.8-1.7,4.2-2.5c0.3-0.2,0.6-0.4,1-0.6c0.1,0.2,0.2,0.3,0.3,0.5
			c0.6,1.2,0.6,1.2-0.4,2.2c-1.2,1.1-2.5,2-3.9,2.7c-0.4,0.2-0.9,0.3-1.3,0.4C140.2,128.9,139.7,128.3,139.6,127.6z"/>
		<path d="M150.5,189c-0.5-0.3-1-0.8-0.9-1.4c0.1-0.7,0-1.3,0-1.9c-0.1-2.5-0.1-5-0.2-7.4c0-1.2,0-2.4,0-3.6c0-0.7-0.1-1.3-0.1-2
			c0-1.1,0-2.1,0-3.2c0-0.8,0.1-1.6,0.5-2.3c0.5-0.9,0.6-1.8-0.1-2.7c-0.5-0.7-0.3-1.4,0.5-1.7c0.3-0.1,0.5-0.3,0.5-0.7
			c0-0.4,0-0.7-0.4-0.9c-0.2-0.1-0.4-0.2-0.5-0.4c-0.4-0.9-1.2-0.9-2-1.1c0,0.2-0.1,0.3-0.1,0.4c0.1,0.6-0.2,0.9-0.8,1.1
			c-0.2,0.1-0.5,0.3-0.6,0.5c-0.2,0.4-0.5,0.6-0.9,0.6c-0.5,0-0.7,0.3-0.7,0.7c0,0.4,0.1,0.8,0.2,1.2c0.2,0.5,0.4,0.9,0.7,1.3
			c0.6,1,0.6,2.2,0.6,3.3c0,1.1,0,2.3,0,3.4c0,2.2,0,4.5,0.1,6.7c0,0.1,0,0.2,0,0.2c0,0.7-0.1,1.4-0.1,2c0.1,1.5,0.3,3,0.4,4.5
			c0,0.6,0,1.3-0.1,1.9c-0.2,0.8-0.5,1.6-0.7,2.4c-0.3,1-0.2,1.9,0.2,2.9c0.8-0.7,1.8-0.8,2.4-0.2c0.6,0.6,1.2,0.7,2,0.9
			c0.2,0,0.4,0,0.5-0.1c0.7-0.3,1.3-1.9,1-2.7C151.6,189.9,151.2,189.4,150.5,189z"/>
		<path d="M168,158.6c-0.8,0-1.4,0.2-1.9,0.8c-0.2,0.2-0.4,0.5-0.6,0.6c-0.5,0.3-0.7,0.8-0.8,1.4c-0.1,1.1-0.5,2.1-1,3
			c-0.1,0.3-0.3,0.6-0.4,0.9c-0.4,1.3-0.9,2.7-1.3,4c-0.2,0.5-0.4,0.9-0.5,1.4c-0.9,2.5-1.7,5-2.7,7.4c-1,2.3-2.3,4.6-3.5,6.8
			c-0.4,0.8-1.1,1.4-2.1,1.3c-1,0-1.3,0.4-1.3,1.4c0,0.2,0,0.3,0,0.5c0,0,0,0,0,0c0,0.3,0,0.5,0,0.8c0,1.3,1,1.9,2.2,1.6
			c0.5-0.1,1-0.4,1.5-0.5c0.3-0.1,0.6-0.2,0.9-0.2c0.8,0,1,0,1.2-0.9c0.1-0.3,0.1-0.5,0.1-0.8c0-1.4,0.4-2.6,1-3.7
			c1.2-2.4,2.3-4.8,3.1-7.3c0.4-1.2,0.9-2.4,1.4-3.6c0.5-1.2,1-2.4,1.4-3.6c0.2-0.5,0.3-1,0.5-1.5c0.8-1.5,1.5-3.1,2.6-4.5
			c1.1-1.3,1.2-2.8,1.1-4.4C168.8,159,168.5,158.6,168,158.6z"/>
		<path d="M159.9,225.6c0.8,0.2,1.5,0.3,2.3,0.4c0.5,0.1,0.9,0,1.2-0.5c0.2-0.5,0.1-0.8-0.1-1.2c-1-1.8-2-3.6-2.9-5.4
			c-1.1-2.1-2.2-4.1-2.7-6.4c0-0.2-0.1-0.3-0.2-0.4c-0.9-2.4-1.9-4.8-2.8-7.2c-1-2.6-1.5-5.3-1.9-8c-0.1-0.9-0.5-1.8-1.1-2.6
			c-0.2-0.3-0.5-0.5-0.9-0.3c-0.4,0.1-0.6,0.4-0.6,0.8c0,0.5-0.1,0.9-0.2,1.4c-0.1,0.8-0.4,1-1.2,1.1c-0.1,0-0.2,0.1-0.4,0.2
			c0.2,0.5,0.3,1,0.6,1.4c2.1,3.5,3.4,7.3,4.7,11.1c0.8,2.4,1.5,4.8,2.6,7c1,1.9,1.5,3.9,2.1,6c0.1,0.5,0.2,1.1,0.4,1.6
			C159,225.1,159.3,225.5,159.9,225.6z"/>
		<path d="M156.6,110.6c0.1,0.5-0.2,0.9-0.6,1.2c-0.3,0.2-0.6,0.4-0.9,0.7c-0.1,0.1-0.2,0.4-0.1,0.6c0.1,0.3,0.3,0.4,0.6,0.3
			c0.2-0.1,0.5,0,0.7,0.1c0.5,0.2,1.1,0.4,1.6,0.6c0.6,0.2,0.8,0.1,0.9-0.6c0.1-0.5,0.1-1.1,0.2-1.6c0.1-0.5,0.2-0.9,0.4-1.3
			c0.9-1.8,1.9-3.5,2.8-5.2c0.7-1.3,1.4-2.7,2.3-4c1.3-1.9,2.7-3.7,4.1-5.5c0.5-0.7,1-1.4,1.4-2.2c0.2-0.3,0.3-0.6,0-0.8
			c-0.3-0.2-0.3-0.5-0.3-0.7c0-0.8-0.1-0.9-0.8-1.1c-0.3-0.1-0.6-0.1-0.9-0.2c-1.1,0-1.4,0.4-1.6,1.4c-0.1,1.1-0.3,2.3-0.9,3.3
			c-0.6,1-1.2,1.9-1.7,2.9c-1.8,3.7-4.1,7.1-6.3,10.6C157,109.4,156.5,109.9,156.6,110.6z"/>
		<path d="M166.7,158.5c0.4-0.2,0.7-0.5,0.7-1c0-0.2,0.1-0.5,0.3-0.7c0.6-1,0.8-2.2,0.9-3.7c-0.1-0.3-0.3-1-0.5-1.6
			c-0.1-0.4-0.4-0.7-0.5-1.1c-0.2-0.7-0.7-1.2-1.4-1.5c-0.6-0.3-1-0.7-1.3-1.3c-0.1-0.3-0.3-0.5-0.5-0.7c-0.6-0.5-1.2-0.6-1.6,0.1
			c-0.3,0.4-0.6,0.9-0.8,1.3c-0.1,0.2-0.1,0.4-0.1,0.7c0.1,0.8,0.1,1.7,0.2,2.5c0,0.3,0,0.7,0.2,1c0.4,1,0.3,1.9,0.2,2.9
			c-0.1,0.4,0,0.7,0.3,1c0.5,0.5,0.7,1,0.5,1.7c-0.1,0.5-0.2,1-0.2,1.5c0,0.5,0.3,0.8,0.8,0.6c0.4-0.1,0.7-0.4,1.1-0.6
			C165.7,159.1,166.2,158.8,166.7,158.5z"/>
		<path d="M135.2,123c0.1-0.6,0.7-0.8,1.2-0.9c0.4-0.1,0.9-0.2,1.2-0.7c-0.7-0.8-1.6-1-2.5-0.7c-0.5,0.2-1,0.3-1.5,0.5
			c-1,0.3-1.9,0.1-2.9,0c-1.7,0-3.4-0.3-5.1-0.5c-2.4-0.2-4.6-1-6.8-1.8c-0.3-0.1-0.5-0.3-0.8-0.4c-0.8-0.3-1.6-0.7-2.4-0.9
			c-0.6-0.2-0.8,0-1,0.6c-0.3,0.7-0.3,1.6-1.1,2c-0.3,0.2-0.3,0.5,0,0.8c0.2,0.2,0.4,0.4,0.6,0.5c0.7,0.4,1.5,0.4,2.2,0.2
			c1.3-0.3,2.7-0.3,4-0.2c1.6,0.2,3.2,0.5,4.8,0.7c2.3,0.4,4.7,0.7,7,1.3c1.3,0.3,2.5,0.6,3.4,1.5c0.4,0.4,0.7,0.3,1.1-0.2
			c-0.2-0.2-0.4-0.4-0.6-0.5C135.5,124.1,135.1,123.6,135.2,123z"/>
		<path d="M158,160c0.2,0,0.6-0.3,0.6-0.5c0-0.9,0.6-1.3,1.3-1.8c0.2-0.1,0.3-0.3,0.5-0.4c0.2-0.2,0.5-0.4,0.7-0.6
			c0.7-0.4,1-0.9,0.9-1.7c0-0.2,0-0.3,0-0.5c0,0,0.1,0,0.1,0c-0.1-0.7-0.3-1.3-0.4-2c-0.1-0.4-0.3-0.8-0.3-1.2
			c-0.1-0.6-0.3-0.8-0.9-0.7c-0.8,0.2-1.7,0.5-2.5,0.7c-0.8,0.3-1.7,0.4-2.5,0c-0.4-0.2-0.8-0.3-1.2-0.3c-0.5,0-0.7,0.2-0.8,0.7
			c0,0.3,0,0.5,0,0.8c0,0.7,0,1.5-0.4,2.1c-0.1,0.1-0.1,0.3-0.1,0.5c-0.1,0.8,0.2,1.2,1.1,1.6c1.4,0.6,2.6,1.4,3.2,2.8
			C157.5,159.8,157.8,160,158,160z"/>
		<path d="M150.9,147c-0.7,0.5-1.5,1-1.9,1.8c-0.9,1.6-1.5,3.3-1.9,5c-0.2,0.7-0.1,1.5,0.3,2.2c0.3,0.5,0.5,1,0.5,1.5
			c0,0.2,0.1,0.5,0.3,0.7c0.6,0.8,1.1,1.8,2.4,1.7c0.1,0,0.3,0.1,0.4,0.1c0.3,0.1,0.6,0.2,0.9-0.1c0.3-0.3,0.3-0.6,0.2-0.9
			c-0.2-0.7-0.4-1.3-0.7-2c-0.1-0.4-0.1-0.6,0.1-1c0.5-0.7,0.9-1.5,1.2-2.4c0.4-1,0.5-2.1,0.3-3.1c0-0.7,0-1.3,0-1.9
			c-0.1-1.2-0.4-1.5-1.6-1.8C151.2,146.9,151,146.9,150.9,147z"/>
		<path d="M113.6,118.7c0-0.2,0.1-0.4,0.3-0.6c0.3-0.6,0.2-0.9-0.4-1.2c-0.5-0.2-1-0.4-1.5-0.6c-2.4-0.6-4.8-1.5-7-2.7
			c-0.6-0.3-1.2-0.5-1.9-0.8c-1.5-0.6-2.9-1.2-4.4-1.8c-0.2-0.1-0.3-0.1-0.4-0.2c-0.4,0-0.8,0.3-0.9,0.7c-0.1,0.5,0.1,1.1,0.6,1.3
			c0.8,0.4,1.7,0.9,2.5,1.2c2.5,1.1,4.9,2.2,7.4,3.4c1.4,0.7,2.8,1.3,4,2.4c0.2,0.1,0.6,0.2,0.8,0.1
			C113.1,119.7,113.6,119.4,113.6,118.7z"/>
		<path d="M167.1,90.2c0.5-0.2,1,0,1.4,0.1c0.8,0.2,1.4-0.2,1.5-1c0.1-0.3,0.1-0.6,0.2-0.9c0.4-1.9,0.9-3.7,1.3-5.6
			c0.5-2.9,1.2-5.7,2.2-8.5c0.1-0.2,0.1-0.5,0.2-0.6c0-0.8-0.2-1-1.1-1.3c-0.5-0.2-0.8-0.1-1,0.4c-0.2,0.4-0.3,0.8-0.4,1.2
			c-0.6,2.6-1.1,5.3-1.7,7.9c-0.2,1-0.5,1.9-0.8,2.8c-0.3,1-0.7,2-1.1,3c-0.2,0.5-0.4,0.9-0.7,1.3c-0.1,0.2-0.3,0.5-0.4,0.7
			C166.6,90,166.8,90.3,167.1,90.2z"/>
		<path d="M148.7,200.6c-0.1,0.2-0.3,0.5-0.4,0.7c-0.3,0.7-0.6,1.4-1,2.1c-0.6,1.1-1.1,2.2-1.7,3.3c-0.2,0.4-0.4,0.8-0.9,0.9
			c0.1-0.2,0.1-0.4,0.2-0.7c0.2-0.4,0-0.7-0.3-1c-0.5-0.4-0.9-0.1-1.3,0.1c-0.7,0.4-0.8,0.7-0.3,1.4c0.3,0.4,0.6,0.5,1.1,0.3
			c0.2-0.1,0.3-0.1,0.5-0.2c-0.1,0.2-0.2,0.5-0.3,0.7c-0.2,0.3-0.5,0.5-0.7,0.8c-0.5,0.5-0.5,0.9,0,1.4c0.5,0.6,1.3,0.9,2,0.8
			c0.8-0.2,1.6-0.5,1.8-1.5c0.1-0.5,0.2-1.1,0.3-1.6c0.6-1.8,1.3-3.6,2.3-5.3C150.5,202.1,149.8,200.8,148.7,200.6z"/>
		<path d="M146.1,213.6c0-0.3,0-0.6,0-0.9c0-0.4-0.2-0.6-0.6-0.6c-0.6,0-1.3,0-1.9-0.3c-0.3-0.2-0.8,0-0.8,0.3
			c-0.1,0.8-0.2,1.7-0.3,2.5c-0.1,0.9-0.1,1.8-0.4,2.7c-0.1,0.3-0.1,0.6-0.2,0.9c-0.2,0.7-0.4,1.4-0.6,2.1c-0.2,0.5-0.3,1.1-0.5,1.7
			c0.6-0.2,0.8-0.5,0.9-0.9c0.1-0.6,0.3-1.1,0.5-1.6c0.2-0.8,0.5-1.6,0.7-2.4c0.1,0,0.1,0,0.2,0c-0.2,1.3-0.6,2.7-0.4,4.2
			c0.6-0.3,0.7-0.7,0.7-1.1c0.2-1.1,0.4-2.3,0.6-3.4c0-0.2,0.3-0.6,0.4-0.5c0.4,0.1,0.3,0.5,0.2,0.7c-0.1,0.7-0.3,1.4-0.5,2
			c0,0.2-0.1,0.4-0.1,0.6c0,0.2,0.2,0.3,0.3,0.5c0.1-0.1,0.3-0.2,0.4-0.3c0.2-0.4,0.3-0.8,0.5-1.3c0.3,0.3,0.5,0.4,0.8,0.7
			c0.1-0.4,0.1-0.6,0.2-0.9c0-0.6,0.1-1.3,0.1-2c0-0.6-0.1-1.2-0.2-1.8C146.1,214.2,146.1,213.9,146.1,213.6z"/>
		<path d="M164.6,236.6c0.1-1.3-0.2-1.7-1.6-1.8c-0.1,0-0.1-0.1-0.2-0.1c-0.7-0.1-1.3-0.3-2-0.3c-0.6,0-0.6,0.1-0.6,0.6
			c0.2,1.7-0.1,3.3-1.2,4.6c-0.1,0.1-0.3,0.2-0.4,0.4c-0.1,0.2,0,0.4-0.1,0.5c0.2,0,0.4,0,0.5-0.1c0.1-0.1,0.3-0.3,0.3-0.4
			c0.3-0.6,0.7-1.3,1-1.9c0.1-0.2,0.3-0.5,0.4-0.7c0,0,0.1,0.1,0.1,0.1c-0.1,1.3-0.8,2.4-1.6,3.6c0.8,0.1,1.1-0.3,1.3-0.8
			c0.4-0.8,0.7-1.6,1-2.4c0.1-0.2,0.2-0.5,0.3-0.8c0.2,0.5,0.4,0.9,0.2,1.3c-0.5,1-1.1,2.1-1.6,3.1c-0.1,0.1-0.1,0.3-0.2,0.4
			c1.5-0.8,1.8-2.5,2.6-3.8c0.2,0.3,0.2,0.7,0.4,0.9c0.4,0.6,0.2,1.1-0.2,1.6c-0.5,0.7-1.1,1.4-1.6,2c-0.3,0.3-0.3,0.5,0,0.7
			c0.2,0.2,0.4,0.1,0.6-0.1c0.6-0.7,1.2-1.5,1.9-2.2c0.4-0.5,0.6-1,0.5-1.6C164.6,238.5,164.5,237.6,164.6,236.6z"/>
		<path d="M136,113.9c0.3,0.3,0.7,0.6,1,0.9c0.3,0.4,0.7,0.3,1,0.1c0.3-0.3,0.6-0.6,0.9-0.8c1.3-0.9,2-2.3,2.6-3.6
			c0.2-0.5,0.4-1.1-0.1-1.7c-0.3-0.4-0.6-0.8-0.8-1.1c-0.1-0.1-0.2-0.3-0.3-0.3c-0.4,0-0.8-0.1-1.1-0.4c-0.1-0.1-0.3,0-0.4,0.1
			c-0.3,0.2-0.3,0.5-0.1,0.8c0.1,0.3,0.3,0.7,0.3,0.9c-0.1,0.5,0.1,0.8,0.4,1.1c0.1,0.1,0.1,0.3,0.2,0.4c-0.9,0-1.2,0.4-1.2,1.3
			c-0.3-0.1-0.5-0.2-0.8-0.4c0,0.4,0,0.7,0,1c-0.2-0.1-0.2-0.1-0.3-0.1c-0.5-0.2-0.7-0.1-0.6,0.4c0,0.2,0,0.3,0.1,0.6
			c-0.3-0.1-0.5-0.2-0.7-0.3C135.6,113.3,135.6,113.6,136,113.9z"/>
		<path d="M152.3,164.5c0.7,0.5,1.5,1.1,2.3,1.4c1.2,0.6,2.4-0.1,2.6-1.4c0.1-0.6-0.3-1.4-0.9-1.6c-0.5-0.1-0.9-0.3-1.4-0.3
			c-1.2-0.2-2.2-0.7-3-1.5c-0.1-0.1-0.3-0.2-0.5-0.4c-0.1,0-0.2,0.1-0.2,0.1c0,0.3,0,0.7,0,1C151.1,162.8,151.4,163.8,152.3,164.5z"
			/>
		<path d="M151.7,143c-0.1,0.2-0.2,0.5-0.3,0.7c0.1,0,0.1,0.1,0.2,0.1c0.4-0.1,0.5-0.5,0.7-0.8c0.6-1,1.1-2.1,1.6-3.1
			c0.2-0.3,0.4-0.5,0.8-0.5c0.5,0,1-0.1,1.5-0.3c0.5-0.2,0.9-0.1,1.4,0c1.2,0.5,2.3,0.9,3.5,1.4c0.4,0.2,0.8,0.2,1.3-0.1
			c-1.1-0.5-1.9-1.3-3-1.6c-0.5-0.1-0.9-0.4-1.3-0.6c-0.3-0.2-0.6-0.4-0.7-0.8c-0.1-0.4-0.4-0.6-0.8-0.6c-0.9,0.1-1.9,0.3-2.8,0.4
			c-0.6,0.1-0.8,0.5-0.7,1.1c0.1,0.2,0.2,0.4,0.2,0.6c0,0.2,0.1,0.4,0,0.5C152.8,140.7,152.3,141.9,151.7,143z"/>
		<path d="M158.7,166c0.9,0.1,1.8-0.1,2.6-0.3c0.8-0.1,1.3-0.6,1.7-1.2c0.6-1.1,0.6-2.3,1.2-3.4c-0.7-0.3-1.3-0.2-1.8,0.1
			c-0.8,0.4-1.5,1-2.1,1.7c-0.3,0.4-0.6,0.7-1,1c-0.3,0.3-0.6,0.5-1,0.4c-0.1,0-0.5,0.1-0.5,0.3C157.4,165.3,157.9,166,158.7,166z"
			/>
		<path d="M154.2,149.2c0.2,0.1,0.4,0.1,0.6,0.1c0,0.2,0,0.4,0.1,0.5c0.1,0.7,0.3,1,1,1c0.6,0,1.3,0,1.9,0c0.6-0.1,1.2-0.3,1.5-0.9
			c0.3-0.5,0.5-1.1,1.2-1.3c0.2-0.1,0.3-0.4,0.5-0.7c-0.5,0-0.8,0-1.1,0c-0.6-0.9-0.6-0.9-1.6-0.7c-0.9,0.2-1.9,0.4-2.9,0.2
			c-0.2,0-0.4,0.1-0.5,0.3c-0.1,0.2-0.1,0.4-0.2,0.7c-0.1,0-0.3,0-0.3,0c-0.2,0.1-0.3,0.2-0.5,0.3
			C153.9,148.9,154.1,149.1,154.2,149.2z"/>
		<path d="M164.8,223.9c-0.5,0.1-0.6,0.3-0.4,0.9c0.3,0.9-0.9,2.3-2,1.8c-0.5-0.3-1.2-0.4-1.8-0.2c-0.4,0.9-0.3,1.5,0,2.3
			c0.1,0.3,0.3,0.6,0.7,0.6c0.6,0.1,1.1,0.2,1.7,0.2c0.9,0,1.5-0.6,1.6-1.5c0.1-0.3,0.2-0.7,0.5-0.9c0.6-0.8,0.9-1.6,0.6-2.6
			C165.6,224,165.2,223.8,164.8,223.9z"/>
		<path d="M153.2,145.4c0.2,0.1,0.4,0.2,0.5,0.2c0.3,0,0.5,0.1,0.6,0.4c0.3,0.7,0.9,0.8,1.6,0.7c0.6-0.1,1.1-0.2,1.7-0.4
			c0.4-0.2,1-0.4,1.2-0.7c0.3-0.5,0.5-1.1,1-1.4c0,0,0-0.1,0-0.1c-0.3-0.1-0.7,0-0.9-0.2c-0.4-0.7-1-0.5-1.6-0.3
			c-0.7,0.2-1.4,0.4-2.1,0.5c-0.6,0-1.1,0.2-1.1,0.8c-0.4,0.2-0.6,0.3-0.9,0.4C153.2,145.3,153.2,145.4,153.2,145.4z"/>
		<path d="M177.9,68.4c0.7-0.8,1.2-1.8,2-2.5c0.9-0.7,1.8-1.6,3.1-1.3c0.2,0,0.4,0,0.6,0c0.2-0.1,0.5-0.2,0.7-0.4
			c-0.1-0.2-0.2-0.2-0.2-0.3c-0.1-0.1-0.2-0.1-0.3-0.1c-1.2-0.3-2.4-0.3-3.5,0.5c-0.9,0.7-1.7,1.5-2.5,2.2c-1.1,1-2.2,1.9-3.3,2.9
			c-0.3,0.2-0.6,0.5-0.6,1c1.2-0.5,2.3-1,3.3-1.4C177.6,68.8,177.8,68.6,177.9,68.4z"/>
		<path d="M173.1,71.9c0.5,0.4,1.1,0.3,1.6-0.2c0.4-0.3,0.9-0.6,1.4-0.8c0.6-0.2,1.2-0.4,1.8-0.6c0,0.2,0,0.4,0,0.6
			c-0.1,0-0.1,0.1-0.2,0.1c0.1,0,0.1,0,0.2,0c0,0.1,0.1,0.3,0.1,0.4c0.2,0.6,0.5,1.2,0.9,1.6c0.1,0.1,0.2,0.2,0.4,0.3
			c0.1,0.1,0.2,0.1,0.3,0.2c0.1,0.1,0.2,0.1,0.4,0.1c0,0-0.3,0.6-0.3,0.6c-0.2,0.4,0.1,0.8,0.3,1c0.4,0.5,0.9,0.9,1.4,1.2
			c1.2,0.8,2.6,1.5,4,1.9c0.3,0.1,0.6,0.2,0.9,0.2c1,0.2,1.5,0.1,1.7-0.3l4.6-9.5c0.2-0.3-0.1-0.8-0.6-1.3c1.1-1.3,1.9-3.4,2-4.1
			c0.2-1.2-0.3-2.6-1.6-2.3c-1.3,0.3-0.4,3.8-0.3,3.9c-0.9-1.3-2.4-1.9-1.5-0.3c0.2,0.5,0.4,0.9,0.4,1.4c0,0,0,0,0,0
			c0,0,0,0.1,0,0.1c0,0.1,0,0.3,0,0.4c-0.4-0.2-1-0.6-1.3-0.8c-0.7-0.4-1.5-0.8-2.3-1c-0.5-0.2-1-0.3-1.4-0.4
			c-1-0.2-1.5-0.1-1.7,0.3l-0.6,1.2c-0.4-0.1-0.9-0.2-1.3-0.2c-0.9-0.1-1.7,0-2.4,0.8c0,0,0,0-0.1,0c-0.7,0.4-1.3,1.1-1.7,1.9
			c-0.1,0.2-0.2,0.4-0.3,0.7c-0.8,0.2-1.5,0.4-2.2,0.8c-0.9,0.5-1.8,0.7-2.7,1.1c-0.1,0.1-0.3,0.2-0.4,0.3
			C172.8,71.6,172.9,71.8,173.1,71.9z M181.2,70.1c0.1,0,0.2,0,0.3,0c0.1,0,0.2,0,0.3,0l-0.4,0.8c-0.1,0-0.1,0-0.2-0.1
			c-0.7-0.2-1.5-0.2-2.2-0.2c0-0.2,0-0.4,0-0.5C179.8,70.1,180.5,70,181.2,70.1z M180.3,72.5c-0.5-0.2-0.8-0.6-1-1.1c0,0,0,0,0,0
			c0.6,0.1,1.2,0.2,1.8,0.3c0,0,0,0,0,0l-0.5,1C180.5,72.6,180.4,72.6,180.3,72.5z M179.8,68.6c1-0.1,1.9-0.3,2.9-0.2l-0.3,0.6
			c-0.2,0-0.5,0-0.7,0c-0.7,0-1.5,0-2.2,0.1C179.5,68.9,179.6,68.7,179.8,68.6z"/>
		<path d="M154.5,142.8c0.1,0.2,0.4,0.3,0.6,0.3c0.8,0,1.6-0.1,2.4-0.2c0.2,0,0.4-0.2,0.5-0.4c0.2-0.4,0.4-0.8,0.6-1.1
			c-0.3-0.4-0.5-0.8-0.8-1.1c-0.2-0.3-0.5-0.4-0.9-0.3c-0.5,0.1-0.9,0.1-1.4,0.1c-0.6,0.1-1.2,0.1-1.3,0.9c0,0.1-0.2,0.3-0.3,0.4
			c-0.1,0.1-0.2,0.2-0.4,0.5C154,142,154.3,142.3,154.5,142.8z"/>
		<path d="M160.9,233.4c0.8,0.5,1.7,0.5,2.5,0.1c0.2-0.1,0.4-0.3,0.5-0.6c0.2-0.7,0.2-1.4,0-2.1c-0.1-0.3-0.2-0.5-0.6-0.3
			c-0.3,0.1-0.5,0-0.8-0.2c-0.2-0.2-0.5-0.4-0.7-0.3c-0.4,0.1-0.8,0.2-1.1,0.4c-0.2,0.1-0.3,0.4-0.4,0.5c0.1,0.8,0.1,1.4,0.2,1.9
			C160.6,233,160.8,233.2,160.9,233.4z"/>
		<path d="M96.3,110.7c-0.3-0.2-0.5-0.1-0.8,0.2c-0.2,0.2-0.5,0.4-0.7,0.6c-1,0.7-2,1.4-2.9,2.2c-0.8,0.7-1.6,1.6-2.3,2.4
			c-0.1,0.1-0.1,0.3-0.1,0.4c0.1,0.1,0.3,0.1,0.4,0.1c0.3-0.1,0.5-0.2,0.8-0.4c1.2-1,2.3-2.1,3.7-2.9c0.6-0.4,1.2-0.9,1.9-1
			c0.4-0.1,0.6-0.4,0.6-1C96.7,111.1,96.5,110.9,96.3,110.7z"/>
		<path d="M90.6,113.5c0.4-0.1,0.8-0.4,1.2-0.6c0.4-0.2,0.8-0.5,1.2-0.7c0.4-0.2,0.7-0.5,1.1-0.7c0-0.1-0.1-0.1-0.1-0.2
			c-1.3,0.3-2.6,0.6-3.8,0.9c-0.5,0.1-1,0.4-1.2,0.9c-0.1,0.2-0.3,0.3-0.5,0.4c0-0.2,0-0.4,0.1-0.7c-0.9-0.1-0.9-0.1-1.5,0.4
			c-0.2,0.2-0.4,0.3-0.5,0.5c-0.6,0.6-1.2,1.2-1.8,1.9c-0.1,0.1-0.1,0.4,0,0.5c0.2,0.2,0.4,0,0.5-0.2c0.6-0.7,1.3-1.4,2-2.1
			c0.3-0.4,0.7-0.5,1.2-0.3c-0.1,0.1-0.1,0.3-0.2,0.4c-1,1.3-1.5,2.7-2,4.2c-0.1,0.3-0.2,0.5,0.3,0.7c0.2-0.4,0.3-0.7,0.5-1.1
			c0.6-1,1.1-2.1,1.7-3.1C89.1,114,89.8,113.7,90.6,113.5z"/>
		<path d="M149.1,193.9c-0.5-0.1-1-0.3-1.4-0.7c-0.3-0.3-0.6-0.3-1-0.2c-0.4,0.2-0.5,0.5-0.5,0.8c0,0.1,0,0.2,0,0.3
			c0,0.9,0.5,1.6,1.2,2.1c0.4,0.3,1.3,0.4,1.6-0.1c0.4-0.6,0.6-1.2,0.5-1.9C149.5,194.1,149.3,193.9,149.1,193.9z"/>
		<path d="M139.1,122.3c-0.2-0.3-0.5-0.4-0.8-0.3c-0.6,0.2-1.1,0.4-1.7,0.6c-0.7,0.2-0.8,0.8-0.4,1.3c0.1,0.2,0.3,0.3,0.4,0.4
			c0.5,0.3,0.7,0.7,0.9,1.1c0.2,0.4,0.5,0.7,1.1,0.6c0-0.3-0.1-0.6-0.1-0.8c-0.1-0.8-0.1-1.6,0.5-2.3
			C139.2,122.8,139.3,122.5,139.1,122.3z"/>
		<path d="M147.5,115.9c-0.1-0.1-0.4-0.2-0.5-0.1c-0.3,0.3-0.7,0.1-1,0c-0.4,0.3-0.7,0.7-1.2,0.9c-0.4,0.2-0.4,0.5-0.2,0.8
			c-0.1,0.1-0.2,0.2-0.3,0.2c-0.2,0.2-0.5,0.2-0.4,0.6c0.2,0.3,0.4,0.3,0.7,0.2c0.1-0.1,0.4,0,0.6,0c0.2,0,0.4,0.1,0.5,0
			c0.5-0.3,0.9-0.6,1.3-0.9c0.1-0.1,0.3-0.3,0.2-0.5c-0.1-0.3,0-0.5,0.1-0.7C147.6,116.2,147.5,116,147.5,115.9z"/>
		<path d="M155.4,193c0.4-0.2,0.7-0.4,1-0.6c0.5-0.3,0.7-0.6,0.6-1.2c0-1-0.3-1.3-1.2-0.9c-0.3,0.1-0.5,0.2-0.8,0.3
			c-0.7,0.3-1.1,1.3-0.7,1.9C154.6,193.1,155,193.2,155.4,193z"/>
		<path d="M141.2,114c0.4-0.4,0.8-0.8,1.2-1.2c0.4-0.4,0.7-0.8,0.8-1.3c0.1-0.3,0.3-0.6,0.5-0.9c0.4-0.5,0.4-0.6-0.2-1.1
			c-0.3,0.3-0.5,0.7-0.9,0.8c-0.6,0.2-0.8,0.6-1,1.1c-0.3,0.7-0.4,1.5-1.1,2c-0.1,0.1-0.2,0.5-0.1,0.6
			C140.7,114.4,141,114.1,141.2,114z"/>
		<path d="M153.4,192c-0.1-0.2-0.3-0.4-0.6-0.8c-0.3,0.5-0.6,0.9-0.8,1.3c-0.1,0.2-0.1,0.4-0.1,0.6c0,0.4,1.1,2,1.5,2.4
			c0.1-0.2,0.3-0.5,0.4-0.7c0.4-0.6,0.5-1.3,0-1.9C153.7,192.6,153.6,192.3,153.4,192z"/>
		<path d="M141.6,115.2c0.2-0.1,0.5-0.3,0.7-0.3c0.9,0,1.5-0.6,1.8-1.3c0.3-0.4,0.4-0.9,0.8-1.2c0.2-0.2,0.2-0.5-0.1-0.7
			c-0.3-0.2-0.5,0-0.6,0.3c-0.1,0.2-0.3,0.5-0.5,0.6c-0.9,0.4-1.6,1-2,1.9c-0.1,0.1-0.3,0.3-0.4,0.3c-0.2,0.1-0.3,0.2-0.5,0.3
			c0,0.1,0,0.2,0.1,0.3C141.1,115.3,141.4,115.3,141.6,115.2z"/>
		<path d="M142.8,116.8c0.2-0.1,0.4-0.4,0.6-0.4c1.4-0.2,2-1.3,2.6-2.4c0.1-0.1,0-0.3-0.1-0.4c0-0.1-0.3-0.1-0.3,0
			c-0.5,0.3-0.9,0.6-1.3,0.9c-0.4,0.4-1,0.8-1.2,1.4c0,0.1-0.2,0.1-0.3,0.2c-0.2,0.1-0.4,0.2-0.7,0.3
			C142.3,116.9,142.5,117.1,142.8,116.8z"/>
		<path d="M90.7,114.1c-0.2,0-0.2-0.1-0.3-0.1c-1.5,1.1-2.4,2.7-2.9,4.5c-0.1,0.3,0,0.6,0.4,0.6c0.4-0.5,1.1-1.8,1-2.2
			c-0.1-0.8,0.3-1.4,0.8-1.9C90.1,114.7,90.3,114.4,90.7,114.1z"/>
		<path d="M89.7,117.2c-0.2,0.5-0.4,0.9-0.5,1.4c0,0.2,0,0.3,0.1,0.5c0.1,0,0.2,0,0.3,0c0.3-0.5,0.6-1.1,0.8-1.6
			c0.1-0.1-0.1-0.3-0.1-0.5C90,117.1,89.7,117.1,89.7,117.2z"/>
		<path d="M191.4,63.8l0-0.2c0-0.2,0.1-2.2-0.4-2.4c-0.2-0.1-0.4,0.1-0.7,0.4c-0.4,0.6,0.8,1.8,0.9,1.9L191.4,63.8z"/>
	</g>
	<g>
		<path d="M80.5,238c0,2,0.1,4.8,0.1,5.6c0,0.5-0.3,0.9-1.1,0.9c-0.8,0-1.1-0.4-1.1-0.9c0-0.1,0.1-0.5,0.1-0.6c0-0.9-0.6-1-2.2-1.1
			c-1.9-0.1-4.6-0.2-7.4-0.2c-2.1,0-4.1,0.1-5.9,0.2c-1.1,0.1-2.2,0.1-2.2,1c0,0.3,0.1,0.6,0.1,0.7c0,0.7-0.5,0.9-1.1,0.9
			c-0.7,0-1.1-0.4-1.1-0.9c0-1.7,0.1-3.5,0.1-5.4c0-2.4-0.1-4.5-0.1-6.7c0-7.4,5.2-10.5,12.9-10.5c6,0,9.1,3,9.1,10.4
			C80.7,232.6,80.5,235.8,80.5,238z M71.8,228.8c-8.9,0-10.9,1-10.9,3.7c0,1.2,0.5,1.9,2.2,2.1c1.7,0.1,3.7,0.2,5.6,0.2
			c2.8,0,5.6-0.1,7.6-0.2c1.6-0.1,2.3-0.9,2.2-2C78.5,229,77.4,228.8,71.8,228.8z"/>
		<path d="M78.5,214.1c0-0.9-0.6-1-2.2-1.1c-2.1-0.1-5.1-0.2-8.2-0.2c-1.8,0-3.6,0.1-5.1,0.2c-1.1,0.1-2.2,0.1-2.2,1
			c0,0.3,0.1,0.6,0.1,0.7c0,0.7-0.5,0.9-1.1,0.9s-1.1-0.4-1.1-0.9c0-1.8,0.1-3.6,0.1-5.6c0-3.3-0.1-11.1-0.1-13.2
			c0-0.8,0.5-1.4,1.2-1.4c0.6,0,1.5,0.1,2.9,0.1c1,0,2.1-0.1,2.5-0.1c0.7,0,1.3,0.3,1.3,1c0,2.2-5.6,3.5-5.6,8.4
			c0,1.2,1.1,1.5,2.2,1.7c1.2,0.2,2.6,0.2,4.1,0.2c0.5,0,0.8-0.3,0.8-0.7c0-2.4-2.5-3.7-2.5-5.4c0-0.4,0.3-0.7,1-0.7
			c0.7,0,1.4,0.1,2.6,0.1c1.8,0,2.5,0,3.1,0c0.8,0,0.9,0.4,0.9,0.8c0,1.6-3.1,2.3-3.1,5.1c0,0.6,0.3,0.8,0.9,0.8c2,0,4,0,5.2-0.1
			c1.5-0.1,2.1-0.5,2.1-1.8c0-5.3-5.9-6.4-5.9-8.7c0-0.6,0.5-0.9,1.1-0.9c0.4,0,1.5,0.2,2.5,0.2c1.5,0,2.5-0.2,3.2-0.2
			c0.8,0,1.3,0.5,1.3,1.3c0,2.5-0.2,8.9-0.2,13.4c0,1.9,0.2,4.7,0.2,5.6c0,0.7-0.5,0.9-1.1,0.9c-0.6,0-1.1-0.4-1.1-0.9
			C78.4,214.6,78.5,214.2,78.5,214.1z"/>
		<path d="M80.6,188.2c0,0.6-0.2,0.9-1,0.9c-2.3,0-11.7-6.2-17.2-6.2c-1.3,0-1.6,0.9-1.6,1.5c0,0.3,0.1,0.8,0.1,1.1
			c0,0.8-0.6,1.2-1.2,1.2c-0.6,0-1.1-0.4-1.1-1.2c0-1.2,0.2-5.4,0.2-7.8c0-2.2-0.2-4.2-0.2-4.7c0-0.9,0.5-1.5,1.7-1.5
			c4.4,0,13.9-3.2,17.8-5.3c0.8-0.5,1.2-0.7,1.6-0.7c0.5,0,0.8,0.3,0.8,0.8c0,0.8-0.2,2.8-0.2,4.9c0,1.7,0.2,5.8,0.2,6.1
			c0,0.7-0.5,1-1.1,1c-0.6,0-1.1-0.4-1.1-1c0-0.3,0.1-0.6,0.1-1.3c0-0.8-0.6-1.4-2-1.4c-2.2,0-2.4,0.4-2.4,4c0,3.1,0.4,3.4,1.5,3.4
			c2.1,0,2.6-2.1,3.9-2.1c0.6,0,1.1,0.3,1.1,0.9c0,0.5-0.2,2.9-0.2,4C80.4,186,80.6,187.5,80.6,188.2z M71.9,179.1
			c0-3.1-0.6-3.4-1.5-3.4c-1.5,0-5.3,0.7-7.2,1.7c-1.2,0.6-1.4,0.8-1.4,1.4c0,1.7,4.5,2.9,8.2,2.9C71.4,181.6,71.9,181.5,71.9,179.1
			z"/>
		<path d="M80.5,154.7c0,2,0.1,4.8,0.1,5.6c0,0.5-0.3,0.9-1.1,0.9c-0.8,0-1.1-0.4-1.1-0.9c0-0.1,0.1-0.5,0.1-0.6
			c0-0.9-0.6-1-2.2-1.1c-1.9-0.1-4.6-0.2-7.4-0.2c-2.1,0-4.1,0.1-5.9,0.2c-1.1,0.1-2.2,0.1-2.2,1c0,0.3,0.1,0.6,0.1,0.7
			c0,0.7-0.5,0.9-1.1,0.9c-0.7,0-1.1-0.4-1.1-0.9c0-1.7,0.1-3.5,0.1-5.4c0-2.4-0.1-4.5-0.1-6.7c0-7.4,5.2-10.5,12.9-10.5
			c6,0,9.1,3,9.1,10.4C80.7,149.3,80.5,152.5,80.5,154.7z M71.8,145.6c-8.9,0-10.9,1-10.9,3.7c0,1.2,0.5,1.9,2.2,2.1
			c1.7,0.1,3.7,0.2,5.6,0.2c2.8,0,5.6-0.1,7.6-0.2c1.6-0.1,2.3-0.9,2.2-2C78.5,145.7,77.4,145.6,71.8,145.6z"/>
		<path d="M58.8,108.7c0-0.7,0.5-0.9,1.2-0.9c0.5,0,1.1,0.3,1.1,1c0,0.2-0.1,0.5-0.1,0.8c0,0.9,1.1,1,2.2,1c1.6,0.1,3.5,0.2,5.4,0.3
			c2.9,0,5.8,0,7.9,0c1.6,0,2.2-0.2,2.2-1.1c0-0.1-0.1-0.5-0.1-0.7c0-0.7,0.5-0.9,1.1-0.9c0.6,0,1.1,0.3,1.1,1c0,0.9-0.2,3.3-0.2,5
			c0,2,0,4.8,0,5.8c0,0.7-0.5,0.9-1.1,0.9c-0.6,0-1.1-0.3-1.1-1c0-0.2,0.1-0.5,0.1-0.6c0-0.9-0.6-1.1-2.2-1.2
			c-2.1-0.1-4.9-0.3-7.8-0.3c-1.9,0-3.8,0-5.4,0.1c-1.1,0.1-2.2,0.1-2.2,1c0,0.3,0.1,0.6,0.1,0.7c0,0.7-0.6,0.9-1.1,0.9
			c-0.7,0-1.1-0.3-1.1-1c0-1.8,0.2-3.6,0.2-5.5C58.9,112.1,58.8,110.4,58.8,108.7z"/>
		<path d="M66.4,93.8c-0.1,0.3,0,0.7,0.6,0.9c12.3,4.1,13.9-0.4,15.5,0.1c0.7,0.2,1,0.7,0.8,1.3c-0.4,1.1-0.9,2.2-1.2,3.3
			c-0.6,1.7-0.9,3-1.1,3.7c-0.2,0.5-0.7,0.7-1.3,0.5c-1.4-0.5-1.2-2.9-12.9-6.9c-4-1.3-4.2-1.2-4.5-0.3c-0.1,0.4-0.1,0.7-0.2,1
			c-0.2,0.6-0.8,0.7-1.3,0.5c-0.5-0.2-0.9-0.6-0.7-1.2c0.5-1.6,1.3-3.4,1.9-5.2c0.5-1.4,1-3.3,1.4-4.7c0.3-1,1.1-1,2.2-0.8
			c4.8,0.6,9-0.4,13.7-1.1c0.5-0.1,0.7-0.5,0.8-0.8c0.1-0.3,0-0.7-0.6-0.9c-9.8-3.3-11.8,0.5-13.6-0.1c-0.6-0.2-0.9-0.8-0.7-1.6
			c0.4-1,0.8-2,1.1-2.9c0.4-1.1,0.7-2.2,0.9-3.1c0.3-0.8,0.9-1,1.5-0.8c1.3,0.4,1.8,3.5,9.2,6c2.2,0.8,7.1,1.8,8.2,2.2
			c1.1,0.4,1.4,0.8,1.1,1.7c-0.2,0.7-0.7,1.6-0.9,2.4c-0.3,0.9-0.5,1.9-0.8,2.7c-0.3,0.9-0.8,1.2-1.8,1.3
			c-6.8,1.1-14.5,1.4-16.6,2.1C66.7,93.3,66.5,93.6,66.4,93.8z"/>
		<path d="M91.6,77.5c-0.4,0.5-1,0.7-1.5,0.3c-0.6-0.5-2.1-2-3.1-2.8c-1-0.8-1.8-1.2-2.3-1.6c-0.6-0.5-0.8-1-0.2-1.8
			c1.6-2,8.7,0.4,11.8-3.4c0.8-1,1.1-2.5-0.2-3.5c-1.2-1-2.4-0.9-6.2,2c-5,3.8-8.1,3.9-11.2,1.4c-2.7-2.2-3.7-6.2-0.1-10.6
			c2.7-3.3,5.3-3,6.1-3.9c0.3-0.4,0.4-0.8,0.1-1c-0.2-0.2-0.4-0.2-0.6-0.4c-0.5-0.4-0.5-1-0.1-1.4c0.5-0.6,0.9-0.6,1.6,0
			c0.8,0.7,1.4,1.3,2.4,2.1c0.6,0.5,1.7,1.3,2.1,1.6c0.6,0.5,0.8,1.2,0.4,1.7c-2,2.4-8.1,0.1-10.5,3.1c-1.1,1.3-1.1,2.7,0,3.6
			c1,0.8,2.3,0.9,5.9-1.7c5.4-3.8,8.5-4.4,11.9-1.6c3.6,2.9,3,7,0.3,10.3c-3,3.7-6.2,3.4-7.2,4.7c-0.4,0.5-0.4,1,0,1.3
			c0.1,0.1,0.4,0.2,0.6,0.4C91.9,76.5,91.9,77,91.6,77.5z"/>
		<path d="M103.4,35.9c0.5-0.4,1.1-0.1,1.4,0.4c0.3,0.4,0.4,1.1-0.1,1.5c-0.2,0.1-0.5,0.2-0.7,0.4c-0.7,0.5-0.2,1.4,0.4,2.4
			c0.8,1.4,1.8,3,2.9,4.5c1.7,2.4,3.4,4.7,4.6,6.4c1,1.3,1.5,1.7,2.2,1.2c0.1-0.1,0.4-0.3,0.6-0.5c0.5-0.4,1.1-0.1,1.4,0.4
			c0.4,0.5,0.4,1.1-0.1,1.5c-0.7,0.5-2.8,1.8-4.2,2.8c-1.6,1.1-3.9,2.8-4.7,3.4c-0.5,0.4-1.1,0.1-1.4-0.4c-0.3-0.5-0.4-1,0.2-1.4
			c0.1-0.1,0.5-0.2,0.6-0.3c0.7-0.5,0.5-1.1-0.4-2.5c-1.1-1.7-2.7-4.2-4.3-6.5c-1.1-1.5-2.2-3.1-3.2-4.3c-0.7-0.9-1.4-1.8-2.1-1.3
			c-0.2,0.2-0.4,0.4-0.5,0.5c-0.5,0.4-1.1,0-1.4-0.4C94,43,94,42.4,94.5,42c1.5-1,3-1.9,4.6-3.1C100.7,37.9,102,36.8,103.4,35.9z"/>
		<path d="M125.7,49c-1.9,0.6-4.5,1.5-5.4,1.8c-0.5,0.2-1-0.1-1.2-0.8c-0.2-0.8,0.1-1.2,0.6-1.3c0.1,0,0.5-0.1,0.6-0.1
			c0.8-0.3,0.8-0.9,0.4-2.5c-0.5-1.9-1.2-4.5-2-7.1c-0.6-2-1.3-3.9-1.9-5.5c-0.4-1-0.8-2.1-1.6-1.8c-0.3,0.1-0.5,0.3-0.7,0.3
			c-0.6,0.2-1-0.2-1.2-0.8c-0.2-0.6,0.1-1.2,0.6-1.4c1.7-0.5,3.3-0.9,5.2-1.5c2.3-0.7,4.3-1.4,6.3-2c7.1-2.2,11.5,1.9,13.8,9.3
			c1.7,5.7-0.2,9.6-7.2,11.8C130.9,47.6,127.8,48.3,125.7,49z M131.9,37.9c-2.6-8.5-4.1-10.2-6.7-9.4c-1.2,0.4-1.7,1-1.3,2.7
			c0.4,1.6,0.8,3.6,1.4,5.5c0.8,2.7,1.8,5.3,2.5,7.2c0.6,1.5,1.5,1.9,2.6,1.5C133.7,44.4,133.5,43.3,131.9,37.9z"/>
		<path d="M146.9,41.8c0.9,0.1,1.1-0.5,1.2-2.2c0.2-2.1,0.5-5.1,0.7-8.1c0.1-1.8,0.1-3.6,0.1-5.1c0-1.1,0-2.2-0.9-2.3
			c-0.3,0-0.6,0.1-0.7,0.1c-0.7,0-0.9-0.5-0.9-1.2c0-0.6,0.5-1.1,1-1.1c1.8,0.1,3.5,0.4,5.6,0.5c3.3,0.2,11.1,0.5,13.2,0.6
			c0.8,0,1.4,0.5,1.3,1.3c0,0.6-0.2,1.5-0.3,2.8c-0.1,1,0,2.1,0,2.5c0,0.7-0.4,1.3-1.1,1.3c-2.2-0.1-3.1-5.8-8-6.1
			c-1.2-0.1-1.6,1-1.8,2.1c-0.2,1.2-0.4,2.6-0.5,4.1c0,0.5,0.2,0.9,0.7,0.9c2.4,0.1,3.9-2.3,5.5-2.2c0.4,0,0.7,0.3,0.7,1.1
			c0,0.7-0.2,1.4-0.3,2.6c-0.1,1.8-0.1,2.5-0.2,3.1c0,0.8-0.5,0.9-0.9,0.9c-1.6-0.1-2.1-3.2-4.9-3.4c-0.6,0-0.8,0.3-0.9,0.9
			c-0.1,1.9-0.2,4-0.2,5.2c0,1.5,0.4,2.1,1.6,2.2c5.3,0.3,6.8-5.5,9.1-5.3c0.6,0,0.8,0.6,0.8,1.2c0,0.4-0.3,1.5-0.4,2.5
			c-0.1,1.5,0.1,2.6,0,3.2c0,0.8-0.6,1.3-1.3,1.2c-2.5-0.2-8.9-0.7-13.4-1c-1.9-0.1-4.7-0.1-5.6-0.1c-0.7,0-0.9-0.5-0.9-1.2
			c0-0.6,0.5-1.1,1-1C146.4,41.7,146.8,41.8,146.9,41.8z"/>
		<path d="M185.9,52.5c-1.6-1-4-2.4-4.8-2.9c-0.6-0.4-0.5-1-0.3-1.4c0.4-0.6,0.8-0.8,1.4-0.4c0.1,0.1,0.4,0.3,0.5,0.4
			c0.7,0.5,1.2,0.1,2.1-1.3c1-1.4,2.3-3.3,3.7-5.5c1.4-2.2,2.8-4.5,3.9-6.5c0.3-0.6,0.6-1.2-0.1-1.7c-0.2-0.1-0.5-0.2-0.7-0.3
			c-0.6-0.4-0.5-0.9-0.2-1.4c0.3-0.5,1-0.7,1.4-0.4c1.5,0.9,2.9,1.9,4.5,3c2,1.3,5.8,3.5,7.6,4.7c3.6,2.3,4.9,4.8,3,7.8
			c-1.7,2.7-3.5,3.3-7.2,1.1c-0.4-0.3-0.8-0.2-1,0.1c-0.2,0.3,0,0.6,0.4,0.9c3.9,2.8,4.6,4.6,2.5,7.8c-2.1,3.3-4.8,4-10.5,0.4
			C190.4,55.6,187.8,53.7,185.9,52.5z M191,50.8c-0.8,1.5-0.8,2.1,0.7,3.1c2.3,1.5,3.4,0.7,4.7-1.3c2-3.2,1.8-4.7-0.4-6.1
			c-1.3-0.8-1.9-0.8-2.4,0C192.6,47.9,191.6,49.7,191,50.8z M197,44.6c2.3,1.4,3.5,0.8,4.9-1.4c1.4-2.2,1.1-3.2-0.8-4.5
			c-1.3-0.8-2-0.5-2.5,0c-0.9,1.1-1.6,2.1-2.4,3.4C195.6,43.2,195.8,43.8,197,44.6z"/>
		<path d="M217.5,63.6c-4.3,3.3-6.1,5.4-4,8.2c1.6,2,3.5,2.2,6.3,0c5.2-4,5.5-8.8,7.1-10c0.6-0.5,1.1-0.2,1.4,0.1
			c0.6,0.8,1.3,1.9,1.9,2.7c0.7,0.9,1.5,1.8,2.1,2.5c0.5,0.6,0.4,1.2,0,1.5c-0.4,0.3-0.7,0.4-1.6,0.5c-2.7,0.2-5.7,1.6-8.6,3.8
			l-1.7,1.3c-4.4,3.3-8.1,3.3-11.8-1.6c-4.1-5.4-3.3-8.6,1.5-12.3c1.9-1.5,4.1-3,6.4-4.8c2.4-1.9,2.8-2.2,2.3-2.8
			c-0.2-0.3-0.5-0.5-0.6-0.7c-0.4-0.5-0.2-1,0.3-1.4c0.6-0.4,1.1-0.3,1.4,0.1c1,1.4,2,2.7,3.2,4.2c1.1,1.5,2,2.5,3.1,3.9
			c0.5,0.6,0.3,1.2-0.2,1.6c-0.4,0.3-1,0.4-1.5-0.2c-0.1-0.2-0.2-0.5-0.4-0.6c-0.4-0.5-0.9-0.2-1.4,0.2
			C220.9,61,219.4,62.2,217.5,63.6z"/>
		<path d="M244,97.3c0.4,1.2-0.2,1.6-1.2,1.9c-1.2,0.3-2.5,0.6-3.8,1c-1.1,0.3-2.7,1.2-3.1,1.3c-0.7,0.2-1.3,0.1-1.5-0.6
			c-0.5-1.6,1.6-3.2,4.4-5.1c1.5-1.1,1.8-1.7,1.6-2.5c-0.2-0.8-0.8-1-1.7-0.7c-15.2,4.7-15.3,5-14.8,6.9c0.2,0.7,0.5,1,0.7,1.5
			c0.2,0.5-0.1,1.1-0.8,1.3c-0.6,0.2-1.2,0.1-1.4-0.6c-0.3-1.1-1.3-4.5-2-6.8c-0.7-2.3-1.8-5.7-2.1-6.8c-0.2-0.8,0.2-1.1,0.8-1.3
			c0.7-0.2,1.2,0.1,1.4,0.6c0.1,0.5,0.1,0.9,0.3,1.6c0.6,1.9,0.9,2.1,16.1-2.6c0.8-0.3,1.2-0.7,1-1.5c-0.2-0.8-0.9-1.2-2.7-1.2
			c-3.4,0-6.1-0.1-6.6-1.8c-0.2-0.6,0.2-1.1,0.9-1.3c0.4-0.1,2.2-0.3,3.3-0.7c1.3-0.4,2.6-0.9,3.8-1.3c1-0.3,1.7-0.4,2.1,0.9
			c0.9,3.1,1.6,6.1,2.5,9.2C241.9,91.4,243,94.4,244,97.3z"/>
		<path d="M224.5,119.8c0.6,0,1.1,0.4,1.1,0.9c0,0.2-0.1,0.5-0.1,0.6c0,0.9,0.6,1,2.2,1.1c2.1,0.1,5.1,0.2,8.2,0.2
			c1.8,0,3.6-0.1,5.1-0.2c1.1-0.1,2.2-0.1,2.2-1c0-0.3-0.1-0.6-0.1-0.7c0-0.7,0.5-0.9,1.1-0.9c0.6,0,1.1,0.4,1.1,0.9
			c0,3-0.1,5.9-0.1,9.2c0,2.2,0.1,7.6,0.1,8.9c0,1.1-0.3,1.4-1.3,1.4c-0.1,0-1.2-0.1-2.8-0.1c-1.1,0-2.4,0.1-2.7,0.1
			c-0.7,0-1-0.2-1-1c0-2.8,5.6-2.6,5.6-7.9c0-1.4-1.1-1.5-2.2-1.6c-2-0.1-4.3-0.2-5.9-0.2c-1.4,0-1.6,0.2-1.6,1.2c0,2.6,3,3,3,5.4
			c0,0.6-0.3,0.9-0.8,0.9c-0.3,0-2-0.2-3.6-0.2c-1.3,0-2.8,0.2-3.5,0.2c-0.4,0-0.9-0.3-0.9-0.9c0-2.2,3.7-2.9,3.7-5.4
			c0-0.8-0.2-1.2-1.1-1.2c-0.8,0-1.8,0.1-2.6,0.1c-1.6,0.1-2.2,0.4-2.2,1.6c0,0.6,0.1,2,0.1,2.8c0,0.5-0.5,0.9-1.1,0.9
			c-0.6,0-1.1-0.3-1.1-0.9c0-1.3,0.2-5.1,0.2-7.7c0-1.9-0.2-4.7-0.2-5.6C223.4,120.1,223.9,119.8,224.5,119.8z"/>
		<path d="M235.7,155c-5.4,0-8.2,0.6-8.2,4.1c0,2.6,1.4,3.9,5,3.9c6.5,0,9.8-3.6,11.7-3.6c0.8,0,1,0.5,1,0.9c0,1-0.1,2.3-0.1,3.3
			c0,1.2,0.1,2.4,0.1,3.2c0,0.8-0.4,1.1-0.9,1.1c-0.5,0-0.8-0.1-1.6-0.6c-2.3-1.5-5.4-2.2-9.2-2.2h-2.2c-5.5,0-8.4-2.3-8.4-8.4
			c0-6.8,2.6-8.9,8.7-8.9c2.4,0,5.1,0.1,8,0.1c3.1,0,3.5,0,3.5-0.9c0-0.3-0.1-0.7-0.1-0.9c0-0.7,0.5-0.9,1.1-0.9
			c0.7,0,1.1,0.4,1.1,0.9c0,1.7-0.1,3.4-0.1,5.3c0,1.9,0.1,3.2,0.1,4.9c0,0.8-0.5,1.1-1.1,1.1c-0.5,0-1.1-0.3-1.1-1.1
			c0-0.2,0.1-0.5,0.1-0.7c0-0.6-0.6-0.7-1.2-0.7C240,155,238,155,235.7,155z"/>
		<path d="M243.2,185.5c0-2.2-1.4-2.5-2.8-2.6c-3.8-0.2-9.4-0.2-12.7,0c-1.6,0.1-2.2,0.4-2.2,1.6c0,3.2,9.4,4.7,9.4,6.9
			c0,0.6-0.2,0.9-0.9,0.9c-0.6,0-3-0.2-5.4-0.2c-2.1,0-3.6,0.2-4.4,0.2c-0.5,0-0.8-0.5-0.8-0.8c0-2.1,0.1-7.8,0.1-11.8
			c0-1.9-0.1-4.7-0.1-5.7c0-0.7,0.6-0.9,1.1-0.9c0.6,0,1.1,0.4,1.1,0.9c0,0.2-0.1,0.6-0.1,0.7c0,0.9,0.6,1,2.2,1.1
			c3.4,0.1,9.2,0.2,13.2,0c1.1-0.1,2.2-0.1,2.2-1c0-0.3-0.1-0.6-0.1-0.8c0-0.7,0.6-0.9,1.1-0.9c0.6,0,1.1,0.4,1.1,0.9
			c0,1.7-0.1,3.5-0.1,5.4c0,2.9,0.1,5.4,0.1,8.1c0,0.6-0.4,1-1.1,1c-0.4,0-1.1-0.2-1.1-1C243,186.9,243.2,186.3,243.2,185.5z"/>
		<path d="M243.2,210.3c0-2.2-1.4-2.5-2.8-2.6c-3.8-0.2-9.4-0.2-12.7,0c-1.6,0.1-2.2,0.4-2.2,1.6c0,3.2,9.4,4.7,9.4,6.9
			c0,0.6-0.2,0.9-0.9,0.9c-0.6,0-3-0.2-5.4-0.2c-2.1,0-3.6,0.2-4.4,0.2c-0.5,0-0.8-0.5-0.8-0.8c0-2.1,0.1-7.8,0.1-11.8
			c0-1.9-0.1-4.7-0.1-5.7c0-0.7,0.6-0.9,1.1-0.9c0.6,0,1.1,0.4,1.1,0.9c0,0.2-0.1,0.6-0.1,0.7c0,0.9,0.6,1,2.2,1.1
			c3.4,0.1,9.2,0.2,13.2,0c1.1-0.1,2.2-0.1,2.2-1c0-0.3-0.1-0.6-0.1-0.8c0-0.7,0.6-0.9,1.1-0.9c0.6,0,1.1,0.4,1.1,0.9
			c0,1.7-0.1,3.5-0.1,5.4c0,2.9,0.1,5.4,0.1,8.1c0,0.6-0.4,1-1.1,1c-0.4,0-1.1-0.2-1.1-1C243,211.7,243.2,211.1,243.2,210.3z"/>
		<path d="M233.1,227.4c3.1-1.7,6.9-4.1,8.9-5.6c1.2-0.8,1.7-1.4,2.3-1.4c0.7,0,1,0.3,1,1c0,0.9-0.2,3.2-0.2,5.8
			c0,1.4,0.2,4.5,0.2,4.8c0,0.7-0.5,1-1.1,1c-0.8,0-1.1-0.3-1.1-1c0-0.2,0.1-0.5,0.1-0.8c0-0.6-0.3-0.9-0.9-0.9
			c-2,0-3.8,0.8-7.8,2.5c-1.1,0.5-1.7,1.2-1.7,2c0,1,1.5,1.7,3.4,1.7c5.3,0,5.7-1,8-1c0.7,0,1.1,0.3,1.1,1c0,0.4-0.2,1.3-0.2,3
			c0,2.2,0.2,3.2,0.2,3.9s-0.2,1.1-1,1.1c-1.4,0-3.7-1.6-8.3-4.5c-4.6-2.9-5.7-3.6-8.2-3.6c-2.1,0-2.3,1-2.3,2
			c0,0.7,0.1,1.1,0.1,1.6c0,0.6-0.5,0.9-1.1,0.9c-0.5,0-1.1-0.3-1.1-0.9c0-1.2,0.1-4.8,0.1-7.4c0-2.4-0.1-6-0.1-7.1
			c0-0.6,0.6-0.9,1.1-0.9c0.6,0,1.1,0.3,1.1,0.9c0,0.5-0.1,0.9-0.1,1.6c0,0.9,0.3,1.9,3.4,1.9C229.9,228.8,231.4,228.3,233.1,227.4z
			"/>
	</g>
	<g>
		<path d="M122.4,177.1l0-0.2c-0.1,0-0.1,0.1-0.2,0.1l-0.3,0.3c-0.6,0.6-1.3,1.2-1.8,1.9c0,0.1-0.2,0.2-0.2,0.3
			c-0.3,0.3-0.4,0.3-0.8,0.2c0,0,0,0.1,0,0.1c-0.1,0.2-0.1,0.3-0.2,0.5c-0.1,0.6-0.3,1.2-0.4,1.7c-0.2,0.9-0.4,1.8-0.6,2.7
			c-0.4,1.4-0.5,2.7-0.6,3.9c0,0.1,0,0.2-0.1,0.4c0,0,0,0.1,0,0.1c0.2,0.3,0.5,0.5,0.8,0.8c0.9,0.7,1.6,1.1,2.2,1.6
			c0.2,0.1,0.3,0.3,0.5,0.5c0,0,0,0,0.1,0.1l0,0l0-0.4c0-0.4,0-0.9,0-1.3c0-1.4,0.3-2.7,0.9-3.9c0.1-0.3,0.2-0.7,0.2-1.1
			c-0.1-2.5,0-4.5,0.2-6.3c0.1-0.5,0.1-0.9,0.2-1.4C122.4,177.4,122.4,177.2,122.4,177.1z"/>
		<path d="M129.6,174.4l0.2-0.5l0,0c-0.2,0-0.3,0.1-0.4,0.1c-0.9,0.3-1.7,0.6-2.5,1.1l-0.1,0c-0.2,0.1-0.4,0.3-0.7,0.1
			c-0.2-0.2-0.2-0.4-0.2-0.7l0,0c0-0.1,0-0.2,0-0.3c0,0-0.1,0-0.1,0l-0.6,0.5c-0.5,0.4-1,0.7-1.4,1c-0.2,0.2-0.3,0.3-0.3,0.5
			c-0.3,1-0.5,2.1-0.6,3.1c-0.1,1.4-0.2,2.8-0.2,4.8c0,0.1,0,0.1,0,0.2l0,0c1.6-2.5,3.4-4.8,5.5-6.7c0.4-0.5,0.8-1,1-1.6
			C129.4,175.5,129.5,175,129.6,174.4z"/>
		<path d="M128.5,185.7c0.6-1.3,1.2-2.7,1.9-4c0-0.1,0.1-0.2,0.1-0.3l0,0l0,0c-0.1,0-0.2,0-0.3,0c-0.5-0.1-0.7-0.3-0.7-0.8l-0.4,0.1
			c-0.4,0.1-0.7,0.2-1.1,0.3c-0.4,0.1-0.7,0.2-1.1,0.3c-0.4,0.1-0.7,0.2-1.1,0.3c0,0-0.2,0.1-0.3,0.1c-1.3,1.6-2.7,3.5-3.5,5.8
			c-0.3,0.7-0.4,1.6-0.4,2.3c0.8-0.7,1.8-1.2,2.9-1.6c0.2-0.1,0.4-0.1,0.6-0.2c0.4-0.1,0.9-0.3,1.3-0.4c0.4-0.2,0.8-0.3,1.2-0.5
			c0.2-0.1,0.3-0.1,0.4-0.2c-0.1-0.4,0.1-0.7,0.2-1L128.5,185.7z"/>
		<path d="M118,190.9c-0.4-0.2-0.9-0.5-1.3-0.9c0.1,0.5,0.2,0.9,0.4,1.4c0.1,0.3,0.3,0.6,0.4,0.8c0.2,0.4,0.4,0.8,0.5,1.1
			c0.3,0.6,0.5,1.2,0.8,1.7c0.1,0.4,0.3,0.8,0.5,1.2c0,0.1,0.1,0.2,0.1,0.2c0.5,0.4,1,0.8,1.4,1.1l0.2,0.2c0.1-0.4,0-0.8-0.1-1.3
			c-0.2-1-0.3-2-0.3-3.1c0-0.2-0.1-0.3-0.2-0.5c-0.6-0.7-1.3-1.3-2.2-1.9C118.2,191,118.2,191,118,190.9z"/>
		<path d="M130.2,179.4c0.1-0.2,0.2-0.3,0.3-0.5c0.2-0.3,0.5-0.8,0.7-1.1c0.5-0.8,0.9-1.6,1.4-2.4l0.3-0.6c-2.2,1.7-4.6,3.5-6.4,5.8
			c0.2-0.1,0.4-0.1,0.6-0.2c0.7-0.3,1.7-0.6,2.7-0.8C130.1,179.6,130.1,179.5,130.2,179.4z"/>
		<path d="M130.1,175.9l2.7-2.2l-0.9,0c-0.1,0-0.2,0-0.4,0c-0.2,0-0.4,0-0.7,0c-0.1,0-0.2,0-0.2,0.2c0,0.1-0.1,0.3-0.1,0.4
			s-0.1,0.3-0.2,0.5C130.3,175.3,130.2,175.6,130.1,175.9L130.1,175.9z"/>
		<path d="M109.4,143.2c0.1,0,0.2,0,0.4,0.1c-0.2-0.2-0.4-0.4-0.7-0.4c-0.2,0-0.3-0.1-0.5-0.1c-0.5-0.1-0.9-0.2-1.4-0.3
			c-0.3-0.1-0.7-0.1-1.1-0.1c-0.4,0-0.6,0.2-0.8,0.5c-0.3,0.5-0.4,1.2-0.4,1.9c0,1.3,0.4,2.4,1.3,3.4l0,0c0-0.2-0.1-0.5-0.1-0.7
			c-0.1-1.4,0.4-2.5,1.2-3.2C107.8,143.7,108.5,143.2,109.4,143.2z"/>
		<path d="M111.6,148.1c-0.3-0.4-0.6-0.9-0.9-1.4c-0.1-0.2-0.2-0.4-0.3-0.6c0,0-0.1-0.1-0.1-0.2c-0.2,0.1-0.3,0.1-0.4,0.2
			c-0.4,0.2-0.7,0.4-1,0.6c-0.9,0.6-1.4,1.4-1.5,2.6c0,0,0,0.1,0.1,0.2c0.1,0.2,0.3,0.4,0.5,0.5c0.2,0.2,0.4,0.4,0.6,0.6
			c0.9,1,1.5,2.4,1.9,3.5c0.3,0.8,0.5,1.6,0.6,2.4c0.2,1.3,0.7,2.6,1.5,3.8c0.3,0.5,0.7,1,1,1.6c0.5,0.8,0.6,1.7,0.3,2.6
			c-0.2,0.7-0.5,1.2-1,1.7c-0.4,0.4-0.7,1-1,1.6c-0.1,0.3-0.3,0.5-0.4,0.8c0,0.1,0,0.1-0.1,0.2c0.3-0.1,0.6-0.2,0.9-0.3
			c2.4-1.3,3.9-3.3,4.3-5.9c0.3-2.1,0.2-4.2-0.5-6.6c-0.4-1.5-1-2.9-1.7-4.1c-0.3-0.6-0.7-1-1.1-1.5c-0.1-0.1-0.2-0.3-0.3-0.4
			c-0.2-0.2-0.4-0.5-0.6-0.8C112.1,148.8,111.8,148.5,111.6,148.1z"/>
		<path d="M110.3,144.5c0-0.1-0.2-0.3-0.5-0.4c-0.2,0-0.3-0.1-0.5-0.1c-0.3,0-0.5,0.1-0.8,0.2c-1,0.6-1.4,1.6-1.4,2.8
			c0,0.2,0,0.3,0,0.5c0,0,0,0,0-0.1c0.4-0.7,0.9-1.3,1.8-1.7c0.4-0.2,0.8-0.4,1.1-0.7C110.2,144.8,110.4,144.7,110.3,144.5z"/>
		<path d="M123.1,199c0.2-2.2,1.2-4.2,3.1-6.2c0.2-0.2,0.3-0.3,0.5-0.5c0.2-0.2,0.4-0.4,0.6-0.6c0.2-0.3,0.5-0.6,0.7-1
			c0.3-0.8,0.6-1.6,0.9-2.4c0.1-0.3,0.2-0.6,0.3-0.8c-0.2-0.1-0.3,0-0.4,0l-0.2,0.1c-0.4,0.2-0.8,0.5-1.3,0.7
			c-0.7,0.3-1.3,0.5-2,0.7l-0.3,0.1c-1.1,0.4-2.3,0.9-3.2,1.9c-0.2,0.2-0.2,0.4-0.3,0.7c0,0.5,0,0.9,0,1.4c0,0.6,0,1.3,0,1.9
			c0,0.4,0.1,0.9,0.2,1.3c0.1,0.6,0.2,1.5,0.1,2.3l0.1,0.1c0.3,0.3,0.7,0.5,1,0.8l0,0C123,199.2,123.1,199.1,123.1,199z"/>
		<path d="M117.3,156.8c0,0.1,0,0.2,0.1,0.3l0.3-0.5c0.3-0.5,0.6-1,0.8-1.5c0.3-0.5,0.5-1,0.7-1.4c0.2-0.4,0.3-0.9,0.3-1.3
			c0-0.7-0.3-1.3-0.7-1.7l-0.4-0.4c-0.3-0.3-0.7-0.7-1-1c-0.6-0.5-1-1.2-1.4-1.7c-0.2-0.4-0.5-0.8-0.8-1.2c-0.7-1-1.7-1.7-3.1-2.2
			c-0.2,0-0.4-0.1-0.7-0.2c0,0-0.1,0-0.2,0c0,0,0,0.1,0,0.1c0,0.2,0,0.4,0,0.6c0,0.2-0.1,0.3-0.2,0.5c0,0.1,0,0.2-0.1,0.2
			c0.4,0.9,0.9,1.7,1.8,2.8c0.6,0.8,1.3,1.6,2,2.4c0.2,0.3,0.4,0.6,0.6,0.9C116.1,153.1,116.8,154.8,117.3,156.8z"/>
		<path d="M118.1,168.2c0.8-0.4,1.4-1,2.1-1.7c1.1-1.2,2.3-2.3,3.6-3.4l0.2-0.2c0.1-0.1,0.2-0.2,0.3-0.3c0,0-0.1,0-0.1,0.1
			c-0.9,0.4-1.8,0.7-2.6,0.8c-0.9,0.1-1.9,0.4-3,1c-0.2,0.1-0.4,0.3-0.6,0.4c-0.3,0.2-0.6,0.4-0.9,0.5c-0.4,0.2-0.6,0.4-0.8,0.8
			c-0.9,1.2-1.8,2.1-2.9,2.7c0,0-0.1,0-0.1,0.1c0.3,0.1,0.7,0.2,1.1,0.2C115.5,169.3,116.8,169,118.1,168.2z"/>
		<path d="M109.1,174.2c0,0.2-0.1,0.3-0.1,0.5c0,1,0.2,2,0.7,2.9c0,0,0,0.1,0,0.1c0,0.1,0,0.1,0.1,0.2c0.8,1.4,1.2,3,1.5,4.4
			c0.4,1.8,0.7,3.5,1,4.9c0.4,2,1.2,3.9,2.2,5.7c0.8,1.4,1.8,2.6,2.7,3.6c1.1,1.2,2.1,2.2,3.3,3.1c2.1,1.6,3.8,3.1,5.2,4.7
			c2.2,2.5,3.7,4.6,4.8,6.8c0.4,0.8,0.8,1.4,1.2,2.1c0.1,0.2,0.3,0.5,0.4,0.7c0.1,0.2,0.2,0.3,0.3,0.4c0,0,0,0.1,0.1,0.1
			c0.2-0.2,0.3-0.5,0.2-0.7c0-0.3-0.1-0.5-0.2-0.7c-0.1-0.3-0.3-0.5-0.4-0.8c-0.6-1.3-1.2-2.6-1.9-3.9c-0.9-1.4-1.8-2.6-2.8-3.6
			c-1.4-1.4-2.9-2.9-4.6-4.4c-0.8-0.7-1.6-1.4-2.5-2c-1.7-1.1-2.9-2.6-3.8-4.3c-0.7-1.3-1.4-2.9-2.1-4.5c-0.6-1.3-0.8-2.8-1-4
			c-0.5-2.4-0.6-5-0.4-7.6c0.1-1.7,0.5-3.3,1-4.9c0.1-0.3,0.2-0.7,0.3-1l0.1-0.4c0.1-0.5,0.2-1.1,0.2-1.6c0,0-0.1,0-0.1,0
			c-0.7,0-1.5-0.1-2.4-0.5l0,0c0,0-0.1,0-0.2,0c-0.4,0.1-0.8,0.2-1.2,0.4l-0.3,0.1c0.2,0.9-0.1,1.8-0.5,2.4l-0.1,0.3
			C109.6,173.2,109.4,173.7,109.1,174.2z"/>
		<path d="M102.7,167.2c0.9,0.9,2,1.2,3.2,1.6c0.9,0.3,1.9,0.5,2.8,0.4c0.9,0,1.5-0.4,1.9-1.1c0.2-0.2,0.3-0.5,0.4-0.8
			c0.3-0.7,0.7-1.3,1.1-1.8c0.4-0.4,0.7-0.9,0.9-1.5c0.2-0.7,0.2-1.3-0.2-1.8c-0.3-0.5-0.6-0.9-0.8-1.3c-0.9-1.3-1.4-2.5-1.7-3.7
			c-0.1-0.2-0.1-0.5-0.1-0.7c0-0.2,0-0.4-0.1-0.5c-0.2-1-0.6-2.1-1.1-3.4c-0.4-0.9-1.1-1.6-1.6-2.2c-0.6-0.6-1.2-1.3-1.8-1.9
			c-0.7-0.8-1.1-1.6-1.3-2.4c0,0.2-0.1,0.4-0.1,0.6c-0.1,0.8-0.3,1.7-0.7,2.6c-0.3,0.6-0.5,1.1-0.8,1.5c-1,1.6-1.7,3.2-2.2,4.8
			c-0.5,1.9-0.8,3.8-0.6,5.6C100.1,163.7,101,165.7,102.7,167.2z"/>
		<path d="M107.6,197.3c-0.5-0.3-0.8-0.7-1.3-1.1c-0.2-0.2-0.3-0.2-0.4-0.1c-0.1,0.1-0.2,0.1-0.3,0.1c0,0-0.1,0-0.1,0
			c-0.3,0.1-0.5,0.3-0.6,0.6c-0.2,0.5-0.6,0.8-1.1,1.1c-0.6,0.3-1.1,0.3-1.7,0.4l-0.2,0c-0.4,0.1-0.9,0.1-1.4,0.2l-0.5,0.1l0.1,1.1
			l0.4,0.2c0.4,0.2,0.8,0.3,1.2,0.5c0.3,0.1,0.6,0.3,0.9,0.4c0.5,0.2,1,0.4,1.5,0.6c0.5,0.2,0.8,0.4,1.3,0.7
			c0.2,0.1,0.3,0.1,0.4,0.1c2.2-0.3,4.6-0.7,7-1.2c0,0-0.1-0.1-0.2-0.1l-1.1-0.8c-0.7-0.5-1.5-1-2.2-1.6
			C108.8,198.1,108.2,197.7,107.6,197.3z"/>
		<path d="M115.3,196.8c-0.1-0.1-0.2-0.2-0.3-0.3l-0.2-0.1c-0.6-0.3-1.2-0.5-1.7-0.7c-0.9-0.3-1.9-0.6-2.8-0.8l-0.7-0.2
			c-0.2-0.1-0.4-0.1-0.6-0.1c-0.5-0.1-0.9,0-1.2,0.3c-0.2,0.1-0.4,0.3-0.6,0.5l-0.2,0.1c0.1,0.1,0.2,0.2,0.3,0.2
			c0.3,0.2,0.5,0.5,0.8,0.7c0.9,0.7,1.8,1.4,2.7,2c0.5,0.4,1,0.7,1.5,1.1c0.3,0.2,0.7,0.5,1,0.7c0.2,0.1,0.3,0.2,0.5,0.4
			c0.1,0.1,0.2,0.1,0.3,0.1c1.4-0.3,2.7-0.5,4.2-0.5l-0.3-0.3c-0.3-0.4-0.6-0.6-0.9-1C116.4,198.3,115.9,197.5,115.3,196.8z"/>
		<path d="M105.5,170.4c-0.3,0.8-0.6,1.8-0.6,2.8c-0.1,2.3,0.2,4.5,0.9,6.5c0.2,0.4,0.3,0.9,0.5,1.4c0,0,0,0.1,0,0.1
			c0.1-2.2,0.7-4.4,1.9-6.9c0.3-0.7,0.7-1.5,1.1-2.2l0.2-0.4c0.3-0.6,0.4-1.1,0.4-1.6c-0.2,0-0.3,0-0.4,0c-0.4,0-0.8,0-1.2,0
			c-0.3,0-0.5-0.1-0.8-0.1c-0.2,0-0.3,0-0.5-0.1c-0.1,0-0.2,0-0.3,0c-0.1,0-0.2,0-0.4-0.1C105.8,169.8,105.6,170,105.5,170.4z"/>
		<path d="M99.6,164c-2-0.6-3.9-1.7-5.9-3.5c0.1,0.2,0.2,0.4,0.3,0.6c0.4,1,0.8,2,1.5,2.9c1.3,2,2.9,3.4,4.8,4.4
			c0.8,0.5,1.6,0.7,2.5,0.8c0.1,0,0.2,0,0.4,0.1c0.5,0.1,0.9,0.1,1.4,0.1C102.2,168.4,100.6,166.7,99.6,164z"/>
		<path d="M113.8,207.8C113.7,207.8,113.7,207.8,113.8,207.8c0.2,0,0.4-0.1,0.7-0.2c0.5-0.2,1-0.6,1.3-1l0.2-0.2
			c0.1-0.2,0.2-0.3,0.4-0.4c0.2-0.2,0.4-0.3,0.6-0.3c0.2,0,0.3,0.1,0.6,0.3l0,0l0,0c0,0,0.1-0.1,0.2-0.2c0.1-0.2,0.2-0.3,0.3-0.4
			c0.3-0.3,0.6-0.6,0.8-1c0.6-0.9,1.5-1.5,2.3-1.9c0.2-0.1,0.4-0.3,0.7-0.4c0-0.1,0.1-0.1,0.2-0.1c-0.1-0.1-0.2-0.1-0.2-0.2
			c-0.3-0.2-0.5-0.4-0.8-0.6c-0.2-0.1-0.4-0.1-0.6-0.1c-0.3,0-0.6,0-0.9,0c-0.3,0-0.6,0-0.9,0l0,0c-0.7,0-1.1,0.2-1.4,0.6
			c-0.7,1-1.3,1.8-1.7,2.7c-0.4,0.8-0.8,1.6-1.2,2.4C114,207.1,113.9,207.4,113.8,207.8z"/>
		<path d="M108.6,205.6c-0.5,0.8-1.1,1.8-1.8,2.6c1.5-0.1,2.8-0.4,3.9-0.7l0.1,0c0.1,0,0.2,0,0.3-0.1c0.1,0,0.1,0,0.2,0
			c0.3,0,0.5,0.1,0.7,0.4c0,0.1,0.1,0.2,0.3,0.2c0.1,0,0.2-0.1,0.3-0.2c0.7-1.2,1.3-2.5,1.8-3.5c0.5-1.1,1-2.1,1.8-3
			c0,0,0,0,0.1-0.1c-0.1,0-0.2,0-0.3,0c-0.4,0.1-0.9,0.2-1.3,0.2c-0.8,0.2-1.7,0.3-2.5,0.5c-0.6,0.1-1.1,0.4-1.5,0.8
			C110.2,203.4,109.3,204.4,108.6,205.6z"/>
		<path d="M102,201.3l-2.4-1c-0.5,0.5-1.1,0.8-1.8,0.8c-0.3,0-0.6,0.1-0.9,0.1l-0.6,0.1c0,0.1,0,0.2,0,0.2c0.1,0.5-0.1,0.8-0.5,1.1
			c-0.6,0.3-1.2,0.4-1.7,0.5l-0.7,0.1c-0.2,0-0.3,0-0.4,0c1.1,0,2.2,0,3.4,0c0.2,0,0.4,0,0.6,0c0.5,0,1.1,0,1.7-0.1
			c0.8-0.1,1.5-0.1,2.3-0.2l0.8-0.1c0.8-0.1,1.7-0.2,2.5-0.3c0,0,0,0,0.1,0c-0.1,0-0.1,0-0.2-0.1C103.4,202,102.7,201.7,102,201.3z"
			/>
		<path d="M95.2,204.2c-0.3,0-0.5,0-0.8,0c0.2,0,0.4,0.1,0.7,0.2c0.2,0,0.3,0.1,0.5,0.2c0.2,0.1,0.4,0.2,0.4,0.4
			c0,0.2,0,0.4-0.1,0.6c-0.1,0.1-0.2,0.2-0.3,0.3l0,0c0,0,0.1,0,0.1,0c0.1,0.1,0.3,0.1,0.4,0.2c0.9,0.2,1.8,0.3,2.8,0.4l0.2,0
			c0,0,0.1,0,0.3-0.1c0.6-0.4,1.1-0.8,1.6-1.3l0.2-0.2c0.5-0.5,1-0.9,1.4-1.5c-0.4,0-0.7,0.1-1,0.1c-1,0.1-2,0.2-3.1,0.3
			S96.3,204,95.2,204.2z"/>
		<path d="M100.3,206.7c0.1,0,0.2,0,0.2,0c0.4,0,0.7,0.1,1.1,0.1c0.4,0,0.7,0.1,1.1,0.1c0.2,0,0.5,0.1,0.7,0.1c0.7,0.1,0.9,0.4,1,1
			c0.3,0.1,0.6,0.1,0.9,0.1c0.1,0,0.2,0,0.3,0c0,0,0.1-0.1,0.2-0.2c0.2-0.2,0.3-0.4,0.5-0.6c0.4-0.6,0.9-1.2,1.2-1.8
			c0.7-1.1,1.4-2.3,2.4-3.3l-0.1,0c-0.3,0.1-0.6,0.1-0.9,0.2l-1.6,0.2c-1,0.1-2,0.2-2.9,0.4c-0.2,0-0.4,0.1-0.5,0.2
			c-0.3,0.2-0.6,0.5-0.8,0.7c-0.2,0.2-0.5,0.5-0.8,0.8C101.6,205.5,101,206.1,100.3,206.7z"/>
	</g>
	<g>
		<path d="M183.5,177.6c0.1,0.5,0.2,0.9,0.2,1.4c0.2,1.8,0.2,3.8,0.2,6.3c0,0.4,0.1,0.7,0.2,1.1c0.6,1.2,0.9,2.6,0.9,3.9
			c0,0.4,0,0.9,0,1.3l0,0.4l0,0c0,0,0.1-0.1,0.1-0.1c0.2-0.2,0.3-0.4,0.5-0.5c0.6-0.5,1.3-0.9,2.2-1.6c0.3-0.2,0.6-0.5,0.8-0.8
			c0,0,0-0.1,0-0.1c0-0.1,0-0.2-0.1-0.4c0-1.2-0.2-2.6-0.6-3.9c-0.2-0.9-0.4-1.8-0.6-2.7c-0.1-0.6-0.3-1.2-0.4-1.7
			c0-0.2-0.1-0.3-0.2-0.5c0,0,0-0.1,0-0.1c-0.4,0.1-0.5,0.1-0.8-0.2c-0.1-0.1-0.2-0.2-0.2-0.3c-0.5-0.7-1.2-1.3-1.8-1.9l-0.3-0.3
			c-0.1,0-0.1-0.1-0.2-0.1l0,0.2C183.4,177.2,183.5,177.4,183.5,177.6z"/>
		<path d="M176.6,176c0.2,0.6,0.5,1.2,1,1.6c2.1,2,3.9,4.3,5.5,6.7l0,0c0-0.1,0-0.1,0-0.2c0-1.9,0-3.4-0.2-4.8c-0.1-1-0.3-2-0.6-3.1
			c0-0.2-0.2-0.3-0.3-0.5c-0.5-0.3-1-0.7-1.4-1l-0.6-0.5c0,0,0,0-0.1,0c0,0.1,0,0.2,0,0.3l0,0c0,0.2,0.1,0.5-0.2,0.7
			c-0.3,0.2-0.5,0.1-0.7-0.1l-0.1,0c-0.8-0.4-1.6-0.8-2.5-1.1c-0.1,0-0.2-0.1-0.4-0.1l0,0l0.2,0.5C176.3,175,176.5,175.5,176.6,176z
			"/>
		<path d="M177.5,185.9c0.1,0.3,0.3,0.6,0.2,1c0.2,0.1,0.3,0.1,0.4,0.2c0.4,0.2,0.8,0.3,1.2,0.5c0.4,0.1,0.8,0.3,1.3,0.4
			c0.2,0.1,0.4,0.1,0.6,0.2c1.2,0.4,2.1,0.9,2.9,1.6c0-0.7-0.1-1.5-0.4-2.3c-0.8-2.3-2.2-4.2-3.5-5.8c-0.1-0.1-0.2-0.1-0.3-0.1
			c-0.4-0.1-0.7-0.2-1.1-0.3c-0.4-0.1-0.7-0.2-1.1-0.3c-0.4-0.1-0.7-0.2-1.1-0.3l-0.4-0.1c0,0.5-0.1,0.7-0.7,0.8c-0.1,0-0.2,0-0.3,0
			l0,0l0,0c0,0.1,0.1,0.2,0.1,0.3c0.6,1.3,1.2,2.7,1.9,4L177.5,185.9z"/>
		<path d="M187.5,191.1c-0.9,0.6-1.6,1.2-2.2,1.9c-0.1,0.2-0.2,0.3-0.2,0.5c0,1.1,0,2.1-0.3,3.1c-0.1,0.5-0.1,0.9-0.1,1.3l0.2-0.2
			c0.5-0.4,1-0.7,1.4-1.1c0.1,0,0.1-0.2,0.1-0.2c0.2-0.4,0.4-0.8,0.5-1.2c0.3-0.6,0.5-1.2,0.8-1.7c0.1-0.4,0.3-0.7,0.5-1.1
			c0.1-0.3,0.3-0.6,0.4-0.8c0.2-0.5,0.4-1,0.4-1.4c-0.4,0.4-0.8,0.7-1.3,0.9C187.7,191,187.6,191,187.5,191.1z"/>
		<path d="M175.9,179.6c1,0.2,2,0.5,2.7,0.8c0.2,0.1,0.4,0.1,0.6,0.2c-1.8-2.3-4.1-4.1-6.4-5.8l0.3,0.6c0.5,0.8,0.9,1.6,1.4,2.4
			c0.2,0.4,0.5,0.8,0.7,1.1c0.1,0.2,0.2,0.3,0.3,0.5C175.7,179.5,175.7,179.6,175.9,179.6z"/>
		<path d="M175.7,175.9c-0.1-0.3-0.2-0.6-0.3-0.9c0-0.2-0.1-0.4-0.2-0.5s-0.1-0.3-0.1-0.4c0-0.2-0.1-0.2-0.2-0.2c-0.2,0-0.4,0-0.7,0
			c-0.1,0-0.2,0-0.4,0l-0.9,0L175.7,175.9L175.7,175.9z"/>
		<path d="M198.5,144.1c0.8,0.8,1.3,1.9,1.2,3.2c0,0.2,0,0.5-0.1,0.7l0,0c0.9-1,1.3-2.1,1.3-3.4c0-0.7-0.2-1.3-0.4-1.9
			c-0.2-0.3-0.4-0.5-0.8-0.5c-0.4,0-0.8,0-1.1,0.1c-0.5,0.1-0.9,0.2-1.4,0.3c-0.2,0-0.3,0.1-0.5,0.1c-0.3,0-0.5,0.2-0.7,0.4
			c0.1,0,0.2,0,0.4-0.1C197.3,143.2,198,143.7,198.5,144.1z"/>
		<path d="M193.4,149.1c-0.2,0.2-0.4,0.5-0.6,0.8c-0.1,0.1-0.2,0.3-0.3,0.4c-0.4,0.5-0.8,1-1.1,1.5c-0.7,1.2-1.3,2.6-1.7,4.1
			c-0.7,2.4-0.8,4.6-0.5,6.6c0.4,2.6,1.9,4.6,4.3,5.9c0.3,0.1,0.6,0.3,0.9,0.3c0-0.1,0-0.1-0.1-0.2c-0.1-0.3-0.3-0.6-0.4-0.8
			c-0.3-0.6-0.6-1.2-1-1.6c-0.4-0.5-0.8-1-1-1.7c-0.3-0.9-0.2-1.8,0.3-2.6c0.3-0.6,0.7-1.1,1-1.6c0.9-1.2,1.3-2.4,1.5-3.8
			c0.1-0.8,0.3-1.6,0.6-2.4c0.4-1.1,0.9-2.4,1.9-3.5c0.2-0.2,0.4-0.4,0.6-0.6c0.2-0.2,0.3-0.3,0.5-0.5c0.1-0.1,0.1-0.2,0.1-0.2
			c-0.1-1.2-0.6-2-1.5-2.6c-0.3-0.2-0.7-0.4-1-0.6c-0.1-0.1-0.2-0.1-0.4-0.2c0,0-0.1,0.1-0.1,0.2c-0.1,0.2-0.2,0.4-0.3,0.6
			c-0.3,0.4-0.6,0.9-0.9,1.4C194,148.5,193.7,148.8,193.4,149.1z"/>
		<path d="M195.9,145.1c0.4,0.3,0.7,0.5,1.1,0.7c0.8,0.4,1.4,1,1.8,1.7c0,0,0,0,0,0.1c0-0.2,0-0.3,0-0.5c0-1.3-0.5-2.2-1.4-2.8
			c-0.3-0.2-0.6-0.3-0.8-0.2c-0.2,0-0.4,0.1-0.5,0.1c-0.3,0.1-0.5,0.3-0.5,0.4C195.5,144.7,195.6,144.8,195.9,145.1z"/>
		<path d="M182.8,199.3L182.8,199.3c0.3-0.2,0.6-0.5,1-0.8l0.1-0.1c-0.1-0.9,0-1.7,0.1-2.3c0.1-0.4,0.2-0.9,0.2-1.3
			c0-0.6,0-1.3,0-1.9c0-0.5,0-0.9,0-1.4c0-0.2-0.1-0.5-0.3-0.7c-0.9-1-2.1-1.5-3.2-1.9l-0.3-0.1c-0.6-0.2-1.3-0.4-2-0.7
			c-0.4-0.2-0.9-0.4-1.3-0.7l-0.2-0.1c-0.1-0.1-0.2-0.1-0.4,0c0.1,0.3,0.2,0.6,0.3,0.8c0.3,0.8,0.6,1.6,0.9,2.4
			c0.2,0.4,0.5,0.7,0.7,1c0.2,0.2,0.4,0.5,0.6,0.6c0.2,0.2,0.3,0.3,0.5,0.5c1.9,2,2.9,4,3.1,6.2
			C182.7,199.1,182.8,199.2,182.8,199.3z"/>
		<path d="M190.6,151.5c0.2-0.3,0.3-0.6,0.6-0.9c0.7-0.8,1.4-1.7,2-2.4c0.9-1.1,1.4-1.9,1.8-2.8c0-0.1,0-0.2-0.1-0.2
			c-0.1-0.2-0.1-0.3-0.2-0.5c0-0.2,0-0.4,0-0.6c0,0,0-0.1,0-0.1c-0.1,0-0.1,0-0.2,0c-0.2,0-0.4,0.1-0.7,0.2
			c-1.4,0.4-2.4,1.1-3.1,2.2c-0.3,0.4-0.6,0.9-0.8,1.2c-0.3,0.6-0.8,1.2-1.4,1.7c-0.3,0.3-0.7,0.7-1,1l-0.4,0.4
			c-0.5,0.4-0.7,1-0.7,1.7c0,0.4,0.1,0.9,0.3,1.3c0.2,0.4,0.4,0.9,0.7,1.4c0.3,0.5,0.5,1,0.8,1.5l0.3,0.5c0-0.1,0-0.2,0.1-0.3
			C189.1,154.8,189.7,153.1,190.6,151.5z"/>
		<path d="M191.6,169.2c0.4,0,0.7-0.1,1.1-0.2c0,0-0.1,0-0.1-0.1c-1.1-0.6-2-1.5-2.9-2.7c-0.2-0.3-0.5-0.6-0.8-0.8
			c-0.3-0.1-0.6-0.3-0.9-0.5c-0.2-0.1-0.4-0.3-0.6-0.4c-1.2-0.6-2.1-0.9-3-1c-0.8-0.1-1.7-0.3-2.6-0.8c0,0-0.1,0-0.1-0.1
			c0.1,0.1,0.2,0.2,0.3,0.3l0.2,0.2c1.2,1.1,2.4,2.2,3.6,3.4c0.6,0.7,1.3,1.2,2.1,1.7C189.1,169,190.3,169.3,191.6,169.2z"/>
		<path d="M196,172.7l-0.1-0.3c-0.3-0.7-0.7-1.5-0.5-2.4l-0.3-0.1c-0.4-0.1-0.8-0.2-1.2-0.4c0,0-0.1,0-0.2,0l0,0
			c-0.9,0.3-1.6,0.5-2.4,0.5c0,0-0.1,0-0.1,0c0,0.5,0,1.1,0.2,1.6l0.1,0.4c0.1,0.3,0.2,0.7,0.3,1c0.6,1.5,0.9,3.2,1,4.9
			c0.2,2.6,0.1,5.2-0.4,7.6c-0.2,1.2-0.5,2.7-1,4c-0.7,1.6-1.5,3.2-2.1,4.5c-0.8,1.7-2.1,3.2-3.8,4.3c-0.9,0.6-1.8,1.3-2.5,2
			c-1.7,1.5-3.2,3-4.6,4.4c-1,1-1.9,2.2-2.8,3.6c-0.7,1.2-1.3,2.5-1.9,3.9c-0.1,0.3-0.3,0.5-0.4,0.8c-0.1,0.2-0.2,0.5-0.2,0.7
			c-0.1,0.2,0,0.5,0.2,0.7c0,0,0.1-0.1,0.1-0.1c0.1-0.1,0.2-0.2,0.3-0.4c0.1-0.2,0.3-0.5,0.4-0.7c0.4-0.7,0.9-1.4,1.2-2.1
			c1.1-2.2,2.6-4.4,4.8-6.8c1.4-1.6,3.1-3.1,5.2-4.7c1.2-0.9,2.3-1.9,3.3-3.1c0.9-1,1.9-2.2,2.7-3.6c1-1.8,1.8-3.7,2.2-5.7
			c0.3-1.5,0.6-3.1,1-4.9c0.3-1.4,0.6-3,1.5-4.4c0,0,0-0.1,0.1-0.2c0,0,0-0.1,0-0.1c0.4-0.9,0.6-1.9,0.7-2.9c0-0.2,0-0.3-0.1-0.5
			C196.5,173.7,196.2,173.2,196,172.7z"/>
		<path d="M205.9,161.4c0.1-1.8-0.1-3.7-0.6-5.6c-0.4-1.6-1.2-3.2-2.2-4.8c-0.3-0.5-0.5-1-0.8-1.5c-0.4-0.8-0.6-1.8-0.7-2.6
			c0-0.2-0.1-0.4-0.1-0.6c-0.2,0.8-0.6,1.6-1.3,2.4c-0.6,0.6-1.2,1.3-1.8,1.9c-0.6,0.6-1.2,1.3-1.6,2.2c-0.6,1.3-0.9,2.3-1.1,3.4
			c0,0.2-0.1,0.3-0.1,0.5c0,0.2-0.1,0.5-0.1,0.7c-0.2,1.2-0.8,2.4-1.7,3.7c-0.3,0.4-0.5,0.8-0.8,1.3c-0.3,0.6-0.4,1.2-0.2,1.8
			c0.2,0.6,0.5,1.1,0.9,1.5c0.4,0.5,0.8,1.1,1.1,1.8c0.1,0.2,0.2,0.5,0.4,0.8c0.4,0.7,1,1.1,1.9,1.1c0.9,0,1.9-0.1,2.8-0.4
			c1.2-0.4,2.3-0.8,3.2-1.6C204.8,165.7,205.7,163.7,205.9,161.4z"/>
		<path d="M196.5,198.5c-0.7,0.5-1.5,1-2.2,1.6l-1.1,0.8c0,0-0.1,0.1-0.2,0.1c2.4,0.5,4.8,0.9,7,1.2c0.2,0,0.3,0,0.4-0.1
			c0.5-0.3,0.8-0.5,1.3-0.7c0.5-0.2,1-0.4,1.5-0.6c0.3-0.1,0.6-0.3,0.9-0.4c0.4-0.2,0.8-0.3,1.2-0.5l0.4-0.2l0.1-1.1l-0.5-0.1
			c-0.5-0.1-0.9-0.1-1.4-0.2l-0.2,0c-0.6-0.1-1.1-0.2-1.7-0.4c-0.6-0.3-0.9-0.6-1.1-1.1c-0.1-0.3-0.3-0.5-0.6-0.6c0,0-0.1,0-0.1,0
			c-0.1,0-0.2-0.1-0.3-0.1c-0.2-0.1-0.3-0.1-0.4,0.1c-0.4,0.4-0.8,0.8-1.3,1.1C197.6,197.7,197.1,198.1,196.5,198.5z"/>
		<path d="M188.8,199c-0.3,0.3-0.6,0.6-0.9,1l-0.3,0.3c1.4,0.1,2.8,0.3,4.2,0.5c0.2,0,0.3,0,0.3-0.1c0.2-0.2,0.3-0.3,0.5-0.4
			c0.3-0.2,0.7-0.5,1-0.7c0.5-0.4,1-0.7,1.5-1.1c0.8-0.6,1.8-1.3,2.7-2c0.3-0.2,0.5-0.4,0.8-0.7c0.1-0.1,0.2-0.2,0.3-0.2l-0.2-0.1
			c-0.2-0.2-0.4-0.3-0.6-0.5c-0.3-0.3-0.7-0.4-1.2-0.3c-0.2,0-0.4,0.1-0.6,0.1l-0.7,0.2c-0.9,0.3-1.9,0.5-2.8,0.8
			c-0.6,0.2-1.2,0.4-1.7,0.7l-0.2,0.1c-0.1,0-0.2,0.2-0.3,0.3C190,197.5,189.4,198.3,188.8,199z"/>
		<path d="M199.7,169.9c-0.1,0-0.2,0-0.4,0.1c-0.1,0-0.2,0-0.3,0c-0.2,0-0.3,0-0.5,0.1c-0.3,0-0.5,0.1-0.8,0.1c-0.4,0-0.8,0-1.2,0
			c-0.2,0-0.3,0-0.4,0c0,0.5,0.1,1.1,0.4,1.6l0.2,0.4c0.3,0.7,0.7,1.5,1.1,2.2c1.2,2.4,1.8,4.7,1.9,6.9c0,0,0-0.1,0-0.1
			c0.1-0.5,0.3-0.9,0.5-1.4c0.7-2,1-4.1,0.9-6.5c0-1.1-0.3-2-0.6-2.8C200.2,170,200,169.8,199.7,169.9z"/>
		<path d="M201.4,169.3c0.5,0.1,0.9,0,1.4-0.1c0.1,0,0.2,0,0.4-0.1c0.9-0.1,1.7-0.4,2.5-0.8c1.8-1,3.4-2.5,4.8-4.4
			c0.6-0.9,1.1-1.9,1.5-2.9c0.1-0.2,0.1-0.4,0.3-0.6c-2.1,1.7-4,2.9-5.9,3.5C205.2,166.7,203.6,168.4,201.4,169.3z"/>
		<path d="M191.6,206.7c-0.4-0.8-0.8-1.6-1.2-2.4c-0.4-0.9-1-1.8-1.7-2.7c-0.3-0.5-0.7-0.6-1.4-0.6l0,0c-0.3,0-0.6,0-0.9,0
			c-0.3,0-0.6,0-0.9,0c-0.2,0-0.5,0-0.6,0.1c-0.3,0.2-0.5,0.4-0.8,0.6c-0.1,0.1-0.2,0.1-0.2,0.2c0.1,0,0.2,0.1,0.2,0.1
			c0.2,0.1,0.5,0.3,0.7,0.4c0.8,0.4,1.7,1,2.3,1.9c0.2,0.3,0.5,0.6,0.8,1c0.1,0.1,0.2,0.2,0.3,0.4c0,0,0.1,0.1,0.2,0.2l0,0l0,0
			c0.2-0.2,0.4-0.2,0.6-0.3c0.2,0,0.4,0.1,0.6,0.3c0.1,0.2,0.2,0.3,0.4,0.4l0.2,0.2c0.4,0.5,0.8,0.8,1.3,1c0.2,0.1,0.4,0.2,0.7,0.3
			c0,0,0,0,0,0C192,207.4,191.8,207.1,191.6,206.7z"/>
		<path d="M195,202.7c-0.4-0.5-0.8-0.7-1.5-0.8c-0.8-0.1-1.7-0.3-2.5-0.5c-0.4-0.1-0.9-0.2-1.3-0.2c-0.1,0-0.2,0-0.3,0
			c0,0,0,0,0.1,0.1c0.7,0.9,1.3,1.8,1.8,3c0.5,1.1,1.1,2.3,1.8,3.5c0.1,0.2,0.2,0.2,0.3,0.2c0.2,0,0.3-0.1,0.3-0.2
			c0.2-0.2,0.4-0.4,0.7-0.4c0.1,0,0.1,0,0.2,0c0.1,0,0.2,0,0.3,0.1l0.1,0c1.1,0.3,2.4,0.5,3.9,0.7c-0.7-0.8-1.3-1.8-1.8-2.6
			C196.5,204.4,195.7,203.4,195,202.7z"/>
		<path d="M201.7,202.3c-0.1,0-0.1,0-0.2,0.1c0,0,0.1,0,0.1,0c0.8,0.1,1.7,0.2,2.5,0.3l0.8,0.1c0.7,0.1,1.5,0.2,2.3,0.2
			c0.5,0.1,1.1,0.1,1.7,0.1c0.2,0,0.4,0,0.6,0c1.2,0,2.3,0.1,3.4,0c-0.2,0-0.3,0-0.4,0l-0.7-0.1c-0.5,0-1.2-0.1-1.7-0.5
			c-0.4-0.3-0.6-0.6-0.5-1.1c0-0.1,0-0.2,0-0.2l-0.6-0.1c-0.3,0-0.6-0.1-0.9-0.1c-0.7-0.1-1.3-0.3-1.8-0.8l-2.4,1
			C203.1,201.7,202.4,202,201.7,202.3z"/>
		<path d="M207.5,204c-1-0.1-2.1-0.2-3.1-0.3c-0.4,0-0.7-0.1-1-0.1c0.4,0.5,0.9,1,1.4,1.5l0.2,0.2c0.5,0.5,1,0.9,1.6,1.3
			c0.2,0.1,0.2,0.1,0.3,0.1l0.2,0c0.9-0.1,1.9-0.2,2.8-0.4c0.1,0,0.3-0.1,0.4-0.2c0,0,0,0,0.1,0l0,0c-0.1-0.1-0.2-0.2-0.3-0.3
			c-0.1-0.2-0.2-0.4-0.1-0.6c0-0.2,0.2-0.3,0.4-0.4c0.2-0.1,0.3-0.1,0.5-0.2c0.2,0,0.4-0.1,0.7-0.2c-0.3,0-0.5,0-0.8,0
			C209.6,204,208.5,204,207.5,204z"/>
		<path d="M203.6,204.9c-0.2-0.3-0.5-0.5-0.8-0.8c-0.3-0.3-0.6-0.5-0.8-0.7c-0.1-0.1-0.3-0.1-0.5-0.2c-1-0.2-2-0.3-2.9-0.4l-1.6-0.2
			c-0.3,0-0.6-0.1-0.9-0.2l-0.1,0c1,1,1.7,2.2,2.4,3.3c0.4,0.6,0.8,1.2,1.2,1.8c0.2,0.2,0.3,0.4,0.5,0.6c0.1,0.1,0.2,0.2,0.2,0.2
			c0.1,0,0.2,0,0.3,0c0.3,0,0.6,0,0.9-0.1c0.1-0.7,0.3-0.9,1-1c0.2,0,0.5-0.1,0.7-0.1c0.4-0.1,0.7-0.1,1.1-0.1
			c0.4-0.1,0.7-0.1,1.1-0.1c0.1,0,0.2,0,0.2,0C204.8,206.1,204.2,205.5,203.6,204.9z"/>
	</g>
	<g>
		<path d="M147.9,246.3c-0.4-0.3-0.8-0.4-1.1-0.2c-0.3,0.2-0.6,0.5-0.8,1c-0.1,0.2-0.1,0.2-0.2,0.3c0,0-0.1,0.1-0.1,0.1
			c0,0-0.1,0.1-0.1,0.1c0,0.1,0,0.2-0.1,0.3c0,0,0,0.1,0,0.2c0,0.1,0,0.1,0,0.1c0,0.2,0.2,0.4,0.3,0.5c0.2,0.1,0.4,0.3,0.6,0.4
			l0.1,0.1c0.2,0,0.4,0.1,0.7,0.1c0.2,0,0.3-0.1,0.4-0.3c0.1-0.2,0.2-0.4,0.3-0.7c0.1-0.3,0.2-0.6,0.3-0.7c0.1-0.2,0.2-0.3,0.2-0.3
			C148.4,246.8,148.2,246.5,147.9,246.3z"/>
		<path d="M153.9,258.2c0,0.1,0,0.1,0,0.1c0,0,0,0,0,0.1c0.1,0,0.1,0,0.1-0.1C153.9,258.3,153.9,258.2,153.9,258.2z"/>
		<path d="M244.8,257c-1.1-2.4-4,2.3-5,3.2c-1.6,1.2-4.6,5.5-6.6,4.4c-0.6-0.7-0.1-1.6,0.1-2.3c0.3-2.1,1.2-3.9,1.9-5.8
			c2.2-5.3,4.6-10.4,7.2-15.5c0.3-0.4-0.1-0.6-0.5-0.9c-1.8-1.4-1.8,1.9-2.7,2.7c-1.9,3.5-3.3,7.2-5.4,10.5c-0.5,0.5-1.1,0-1.5-0.4
			c-3.6-1.9-7.8,0.9-10.3,3.5c-1.1,1.1-4,3.7-4.8,4.3c-3.5,3-9.3,6.8-13.7,3.6c-0.9-0.7-1-3.1,0.4-3.3c1.8,0.6,3.9,1.1,5.7,0.1
			c2.9-1.2,5.5-5.3,3-8.1c-3.2-2.5-7.6,0.5-9.6,3.2c-1.3,1.1-2.4,3.1-3.7,4.2c-1.1,0.9-1.9,2.5-3.1,3.3c-2.4,3.5-5,3.5-3.5-1.3
			c1.5-4.1,3.1-8.1,5-12.1c1.1-3.8,3.8-3.7,7.1-4c1,0.2,2.1-1.7,1.2-2.3c-1.1-0.2-4.5,1.4-4.5-0.5c0.3-1.7,3-3.5-0.2-4.1
			c-3.4,4.5-1.6,5.8-8.6,6.1c-0.9-0.2-1.3,1.3-1.3,2c0,0.7,0.8,0.2,1.3,0.2c0.8-0.1,1.2-0.1,1.9-0.2c3.7-0.3-1.5,7.1-1.8,8.7
			c-2.3,1.5-10.4,11.7-9.8,3.6c0.6-2-1.7-3.9-3.1-1.7c-1.8,2.7-11.2,11.2-9.4,2.6c0-1.4,2.3-2.6,2.1-3.5c1.7-1.7,4.2-3.8,6.7-3
			c0.5,0.3,0.8,0.6,1.4,0.5c2.8-0.1-0.1-2.7-1.4-2.6c-2.2-0.6-4.5,0.7-6.2,1.9c-3.6,2.8-5.7,7.7-9.9,9.8c-2.6-1.2,2.3-7.3,0.6-9.7
			c-1.9-3.4-6,0.2-7.7,2.1c-2.1,1.5-1.1-1.1-0.7-2.1c0.6-1,0.2-1.9-1-2c-0.6-0.2-0.7,0.2-1.1,1c-0.6,1.6-0.6,3.5-1.9,4.5
			c-7.1,6.8-13,11.6-6.7-2.3c0.3-0.7,0.9-1.7,1-2.4c-0.2-0.5-1.1-1-1.7-0.9c-1.2,1.1-1.9,3.1-2.6,4.6c-3.1,2.7-6,5.9-9.9,7.5
			c-2.6,1-7.5,2.4-8.6-1.3c-0.1-0.7,0-2,1-2c4.1,2,9.4-0.9,9.8-5.4c-0.6-6.2-8.5-3-10.7,0.6c-1.7,1-11.2,6.3-11.6,2.9
			c0.5-1.9,1.3-3.7,2.3-5.3c2-3.7,3.7-7.5,5.8-11.2c0.2-0.8,0.9-1.4,1-2.1c-0.6-0.8-1.8-1.5-2.4-0.1c-3,5.1-5.2,10.6-8,15.8
			c-1.7,1-10.9,6.1-11.4,2.8c0.5-1.9,1.3-3.7,2.3-5.3c2-3.4,3.3-7.1,5.5-10.5c0.5-1.7,2.5-3.2-0.3-3.7c-1.7,1.5-2.7,4.5-3.8,6.6
			c-1.8,3.3-3.3,6.7-5.1,10.1c-2.3,1.5-10.4,11.6-9.8,3.6c0.6-2-1.7-3.9-3.1-1.7c-1.2,1.8-9.3,10-9.6,4.5c-0.1-2.1,0.9-3.8,2.2-5.4
			c1.8-1.7,4.3-3.9,6.9-3.2c0.6,0.4,1.2,0.6,1.9,0.4c1.9-0.3-0.5-2.5-1.5-2.5c-1.7-0.7-3.2,0.2-4.8,0.7c-2,1-3.5,2.7-4.9,4.3
			c-3.1,3-6.4,5.8-10.5,7.2c-2.1,0.6-4.5,0.9-6.5-0.4c-3.4-3.3,4.6-9.3,7.6-9.9c1,0,0.8,1.3,1.4,1.8c0.2,0.4,1.5,0.8,1.7,0
			c0.3-9.4-13.1,0.2-13.4,5.1c-1.4,4.3,3.9,6.8,7.6,6.1c4-0.6,7.2-3.1,10.4-5.4c-0.9,2.8,1.6,6.1,4.6,4.9c1.8-0.5,3.4-1.5,4.8-2.7
			c0.9-0.5,1.5-1.9,2.5-2c1.2,0.1,0.8,1.7,1.5,2.4c2.6,3.6,6.9-1.5,9.1-3.2c-1.2,4.1-3.6,8.4-3.1,12.7c2,6.5,8.6-2.1,10.5-4.7
			c4.4-6.5-6-5.5,5.8-9.2c-1.5,4.5-4,9.1-3.5,13.9c0.1,0.8,0.4,1.9,1.4,1.9c3.5,1.6,6.7-3.9,8.7-6.1c5.3-6.5-5.5-6.4,5.9-9.6
			c-1.8,6.1,3.6,8.5,8.8,7.1c3.8-1.3,7.3-3.4,10.2-6.1c-2.3,10.5,6.9,4.6,10.5,0.5c-0.5,1.8-1.2,3.6-1.2,5.5c0.4,1,1.5,1.4,2.2,0.3
			c1.4-3.1,3.2-5.9,5.3-8.6c1.2-1,5-6.2,4.9-1.8c-0.5,2.4-1.9,4.6-1.8,7c0.9,5.7,6.1,1.1,8-1.3c0.1,4.5,3.7,5,7.1,3.1
			c0.9-0.7,2-1.3,2.8-2.1c0.7-0.5,1.3-1.6,2.1-1.7c1.2,0.1,0.8,1.7,1.5,2.4c2.7,3.7,7.1-1.8,9.5-3.5c-1.4,2.8-1.4,10.2,3.4,8
			c2.3-2.1,4.3-4.3,6.3-6.6c-0.5,5.9,7.6,6.4,11.3,4.1c2.7-1.4,5.5-2.8,7.7-5c-1,3.6,1.4,7.1,5.2,6.1c1.2-0.5,2.2-1.2,3.1-2.1
			c0.6-0.6,1.6-2.4,2.5-1.4c1,5.5,4.3,3.4,7.4,0.8c1.8-1.4,3.6-3.2,5.1-4.9C243.6,259,244.9,258.1,244.8,257z M205,257.2
			c0.2-0.2,0.4-0.4,0.5-0.5c0.1-0.2,0.2-0.2,0.3-0.3c0.2-0.2,0.4-0.4,0.6-0.5c0.2-0.2,0.4-0.3,0.6-0.5c0.2-0.2,0.5-0.3,0.7-0.4
			c0.2-0.1,0.4-0.2,0.6-0.2c0.5-0.2,0.9-0.3,1.4-0.4h0.7c0.2,0,0.4,0,0.5,0.1c0.4,0.2,0.6,0.5,0.6,1c0,0.2,0,0.4-0.1,0.6
			c0,0.2-0.1,0.5-0.2,0.8c-0.1,0.2-0.2,0.4-0.3,0.6c-0.1,0.2-0.2,0.4-0.4,0.6c-0.2,0.2-0.3,0.4-0.5,0.5c-0.2,0.2-0.4,0.3-0.5,0.5
			c-0.1,0-0.2,0.1-0.4,0.2c-0.2,0.1-0.4,0.1-0.6,0.2c-0.2,0.1-0.4,0.1-0.6,0.2c-0.2,0.1-0.3,0.1-0.5,0.1c-0.3,0-0.7-0.1-1.1-0.2
			c-0.2-0.1-0.4-0.1-0.6-0.2c-0.2,0-0.4-0.1-0.5-0.2c-0.3-0.2-0.5-0.5-0.5-1C204.5,257.9,204.7,257.5,205,257.2z M125,257.2
			c0.2-0.2,0.4-0.4,0.5-0.5c0.1-0.2,0.2-0.2,0.3-0.3c0.2-0.2,0.4-0.4,0.6-0.5c0.2-0.2,0.4-0.3,0.6-0.5c0.2-0.2,0.5-0.3,0.7-0.4
			c0.2-0.1,0.4-0.2,0.6-0.2c0.5-0.2,0.9-0.3,1.4-0.4h0.7c0.2,0,0.4,0,0.5,0.1c0.4,0.2,0.6,0.5,0.6,1c0,0.2,0,0.4-0.1,0.6
			c0,0.2-0.1,0.5-0.2,0.8c-0.1,0.2-0.2,0.4-0.3,0.6c-0.1,0.2-0.2,0.4-0.4,0.6c-0.2,0.2-0.3,0.4-0.5,0.5c-0.2,0.2-0.4,0.3-0.5,0.5
			c-0.1,0-0.2,0.1-0.4,0.2c-0.2,0.1-0.4,0.1-0.6,0.2c-0.2,0.1-0.4,0.1-0.6,0.2c-0.2,0.1-0.3,0.1-0.5,0.1c-0.3,0-0.7-0.1-1.1-0.2
			c-0.2-0.1-0.4-0.1-0.6-0.2c-0.2,0-0.4-0.1-0.5-0.2c-0.3-0.2-0.5-0.5-0.5-1C124.6,257.9,124.7,257.5,125,257.2z M101.5,266.8
			c-0.1,0.2-0.2,0.4-0.2,0.5c-0.1,0.2-0.2,0.3-0.3,0.6c-0.1,0.2-0.2,0.5-0.4,0.7c-0.2,0.2-0.3,0.4-0.5,0.5c-0.2,0.2-0.3,0.4-0.5,0.6
			c-0.2,0.2-0.4,0.4-0.5,0.5c-0.2,0.2-0.3,0.4-0.5,0.5c-0.2,0.2-0.4,0.4-0.5,0.6c-0.1,0.2-0.3,0.4-0.5,0.6c-0.2,0.2-0.4,0.4-0.5,0.5
			c-0.2,0.2-0.3,0.3-0.5,0.5c-0.5,0.4-0.9,0.6-1.3,0.6c-0.3,0-0.5-0.1-0.7-0.3c-0.1-0.2-0.2-0.4-0.2-0.6c0-0.3,0-0.5,0-0.7
			c0-0.2,0-0.4,0-0.6c0.1-0.6,0.2-1.1,0.2-1.4c0.1-0.4,0.2-0.7,0.3-0.9c0.1-0.2,0.2-0.3,0.2-0.4c0-0.2,0.1-0.4,0.1-0.6
			c0.1-0.2,0.1-0.4,0.2-0.7c0.1-0.2,0.1-0.4,0.2-0.6c0-0.2,0.1-0.4,0.2-0.6c0.1-0.2,0.1-0.4,0.2-0.5c0.1-0.1,0.1-0.3,0.2-0.4
			l0.2-0.3c0.1-0.2,0.2-0.4,0.3-0.7c0.1-0.3,0.2-0.6,0.3-0.8c0.1-0.3,0.2-0.5,0.4-0.7c0.2-0.2,0.4-0.3,0.7-0.3
			c0.4,0,0.8,0.1,1.3,0.4c0.3,0.2,0.6,0.4,0.8,0.6c0.2,0.2,0.3,0.3,0.3,0.3c0.2,0.2,0.3,0.4,0.5,0.5c0.2,0.2,0.4,0.3,0.5,0.6
			c0.2,0.3,0.3,0.8,0.3,1.4C101.6,266.4,101.5,266.6,101.5,266.8z M114.2,266.8c-0.1,0.2-0.2,0.4-0.2,0.5c-0.1,0.2-0.2,0.3-0.3,0.6
			c-0.1,0.2-0.2,0.5-0.4,0.7c-0.2,0.2-0.3,0.4-0.5,0.5c-0.2,0.2-0.3,0.4-0.5,0.6c-0.2,0.2-0.4,0.4-0.5,0.5c-0.2,0.2-0.3,0.4-0.5,0.5
			c-0.2,0.2-0.4,0.4-0.5,0.6c-0.1,0.2-0.3,0.4-0.5,0.6c-0.2,0.2-0.4,0.4-0.5,0.5c-0.2,0.2-0.3,0.3-0.5,0.5c-0.5,0.4-0.9,0.6-1.3,0.6
			c-0.3,0-0.5-0.1-0.7-0.3c-0.1-0.2-0.2-0.4-0.2-0.6c0-0.3,0-0.5,0-0.7c0-0.2,0-0.4,0-0.6c0.1-0.6,0.2-1.1,0.2-1.4
			c0.1-0.4,0.2-0.7,0.3-0.9c0.1-0.2,0.2-0.3,0.2-0.4c0-0.2,0.1-0.4,0.1-0.6c0.1-0.2,0.1-0.4,0.2-0.7c0.1-0.2,0.1-0.4,0.2-0.6
			c0-0.2,0.1-0.4,0.2-0.6c0.1-0.2,0.1-0.4,0.2-0.5c0.1-0.1,0.1-0.3,0.2-0.4l0.2-0.3c0.1-0.2,0.2-0.4,0.3-0.7
			c0.1-0.3,0.2-0.6,0.3-0.8c0.1-0.3,0.2-0.5,0.4-0.7c0.2-0.2,0.4-0.3,0.7-0.3c0.4,0,0.8,0.1,1.3,0.4c0.3,0.2,0.6,0.4,0.8,0.6
			c0.2,0.2,0.3,0.3,0.3,0.3c0.2,0.2,0.3,0.4,0.5,0.5c0.2,0.2,0.4,0.3,0.5,0.6c0.2,0.3,0.3,0.8,0.3,1.4
			C114.3,266.4,114.3,266.6,114.2,266.8z M231.4,257.7c-0.1,0.2-0.2,0.4-0.3,0.5c-1.2,1.6-2.3,3.1-3.5,4.6c-0.8,0.9-1.6,1.5-2.6,2.1
			c-0.2,0.2-0.4,0.3-0.6,0.3c-0.2,0.1-0.4,0.2-0.6,0.2H223c-0.2,0-0.4-0.1-0.6-0.2c-0.2-0.2-0.3-0.3-0.4-0.6
			c-0.1-0.2-0.2-0.4-0.2-0.6c-0.1-0.2-0.1-0.5-0.2-0.7c0-0.2-0.1-0.4-0.1-0.6c0-0.1,0.1-0.3,0.1-0.6c0-0.2,0-0.3,0-0.3
			c0,0,0-0.2,0.1-0.3c0.6-1.8,1.2-3.4,2.7-4.8c1.7-1.6,3.7-2.3,6-2.3c0.2,0,0.4,0.1,0.6,0.3c0.2,0.2,0.3,0.4,0.5,0.5
			c0.2,0.4,0.3,0.9,0.3,1.4C231.9,256.8,231.7,257.2,231.4,257.7z"/>
	</g>
</g>
</svg>
