<?xml version="1.0" encoding="utf-8"?>
<!-- Generator: Adobe Illustrator 28.0.0, SVG Export Plug-In . SVG Version: 6.00 Build 0)  -->
<svg version="1.1" id="Layer_1" xmlns="http://www.w3.org/2000/svg" xmlns:xlink="http://www.w3.org/1999/xlink" x="0px" y="0px"
	 viewBox="0 0 300 300" style="enable-background:new 0 0 300 300;" xml:space="preserve">
<style type="text/css">
	.st0{fill:#FFFFFF;}
	.st1{fill:#DDBF99;}
	.st2{fill:#C98D4A;}
	.st3{fill:#ECF2FA;}
	.st4{fill:#C7C19D;}
	.st5{fill:#F9CDD2;}
	.st6{fill:#BACEEB;}
	.st7{fill:#F5CCA7;}
	.st8{fill:#D0AECB;}
</style>
<g>
	<g>
		<path d="M28.7,131.73c1.35,3.65,0.48,2.78,4.13,4.13c-3.65,1.35-2.78,0.48-4.13,4.13c-1.35-3.65-0.48-2.78-4.13-4.13
			C28.22,134.51,27.35,135.38,28.7,131.73z"/>
		<path d="M116.94,108.58c-0.75-3.52-4.74-6.79-7.97-6.85c-0.81-0.02-1.62-0.07-2.46-0.11c2.63-2.82,3.4-6.23,2.73-9.94
			c-0.63-3.51-2.64-6.01-5.81-7.67c-1.21-0.6-3.73-1.34-5.83-1c-3.77,0.62-6.71,2.48-8.77,5.77c-0.91,1.46-1.23,2.97-1.04,4.64
			c0.04,0.35,0.06,0.71,0.11,1.19c-0.27-0.2-0.42-0.32-0.58-0.44c-1.29-0.91-2.53-1.95-4.15-2.17c-3.78-0.51-7.24,0.37-10.44,2.43
			c-1.82,1.17-2.95,2.77-3.44,4.83c-0.36,1.49-0.36,3.01,0.01,4.49c1.12,4.38,4.18,7.01,8.16,8.7c1.47,0.62,3.06,0.75,4.65,0.42
			c0.42-0.09,0.84-0.19,1.38-0.3c-3.11,3.37-4.04,7.99-3.72,11.12c0.39,3.75,2.63,6.64,6.25,7.68c1.38,0.39,2.81,0.68,4.23,0.8
			c2.83,0.24,5.32-0.56,7.3-2.71c1.41-1.53,2.14-3.38,2.68-5.33c0.48-1.72,0.66-3.49,0.39-5.43c0.5,0.37,0.87,0.67,1.26,0.94
			c1.49,1.02,2.97,2.09,4.87,2.18c3.7,0.18,6.65-1.39,9.05-4.06c0.56-0.62,0.95-1.46,1.21-2.27
			C117.78,113.2,117.43,110.88,116.94,108.58z"/>
		<path d="M137.1,56.58c-1.95-0.77-3.94-1.51-5.53-2.95c-1.7-1.54-3.62-2.13-5.88-1.65c-1.45,0.3-2.77,0.08-3.96-0.96
			c-0.63-0.55-1.48-0.94-2.29-1.17c-2.48-0.7-4.8,0.06-6.89,1.29c-3.4,2-6.02,4.8-7.84,8.32c-1.23,2.38-2.28,4.83-2.98,7.42
			c-0.05,0.18-0.18,0.4-0.33,0.46c-1.37,0.58-2.76,1.12-4.11,1.66c0.01-0.02,0.04-0.12,0.09-0.22c1.27-2.37,2.11-4.9,2.86-7.47
			c0.11-0.37,0.18-0.78,0.38-1.09c1.41-2.13,3.13-3.98,5.19-5.51c3.07-2.28,5.42-5.19,7.12-8.58c1.46-2.9,1.81-5.98,0.71-9.11
			c-0.51-1.46-1.07-2.92-1.71-4.33c-0.85-1.86-1.97-3.51-3.99-4.31c-0.84-0.33-1.43-0.94-1.86-1.74c-0.54-1-1.13-1.98-1.71-2.97
			c-0.72-1.24-1.48-1.44-2.74-0.75c-0.16,0.09-0.32,0.18-0.47,0.29c-1.96,1.36-3.55,3.03-4.3,5.35c-0.62,1.93-1.18,3.89-1.78,5.82
			c-0.15,0.48-0.36,0.94-0.55,1.42c-0.09,0.04-0.18,0.09-0.27,0.13c-0.54-0.62-1.03-1.29-1.63-1.85c-2.38-2.22-5.2-3.33-8.45-2.91
			c-2.44,0.32-4.75,0.28-7.03-0.78c-1.28-0.6-2.44-0.04-2.91,1.32c-0.76,2.17-0.7,4.27,0.82,6.15c0.86,1.07,1.27,2.27,1.09,3.64
			c-0.1,0.77-0.33,1.51-0.43,2.28c-0.1,0.74-0.28,1.51-0.14,2.22c0.46,2.28,1.93,3.81,4,4.72c1.06,0.47,1.5,1.19,1.49,2.28
			c0,0.18,0.01,0.37,0.02,0.55c0.11,1.97,0.97,3.48,2.78,4.31c1.05,0.49,2.17,0.84,3.28,1.17c2.39,0.72,4.88,0.63,7.34,0.78
			c0.45,0.03,0.72,0.15,0.86,0.59c0.44,1.37,0.95,2.71,1.33,4.09c0.28,1.01,0.14,2.03-0.34,2.99c-2.2,4.46-4.68,8.74-8.12,12.39
			c-0.68,0.72-1.44,1.38-2.2,2.03c-0.34,0.3-0.62,0.61-0.33,1.04c0.29,0.44,0.71,0.31,1.09,0.08c0.04-0.02,0.07-0.05,0.11-0.08
			c1.78-1.11,3.07-2.74,4.34-4.34c1.39-1.75,2.61-3.64,3.81-5.53c1.53-2.41,3.97-3.34,6.28-4.22c0.72,0.98,1.26,1.92,2.01,2.66
			c1.06,1.07,2.22,2.04,3.42,2.96c1,0.77,2.09,1.43,3.14,2.13c0.89,0.41,2.46,0.77,3.68,0.99c0.84,0,1.47-0.07,2.09,0.01
			c3.19,0.41,5.89-0.62,8.3-2.64c0.29-0.24,0.71-0.35,1.09-0.43c0.93-0.2,1.92-0.22,2.8-0.56c2.11-0.81,3.59-2.28,4.35-4.46
			c0.45-1.31,1.07-2.57,2.3-3.32c1.9-1.15,3.12-2.77,3.68-4.91c0.12-0.46,0.34-0.9,0.5-1.35C139.44,57.8,139.22,57.41,137.1,56.58z
			 M96.75,59.94c-0.09-0.29-0.1-0.69,0.03-0.95c0.41-0.8,0.91-1.57,1.39-2.38c1.44,2.28,0.61,4.5-0.21,6.85
			c-0.1-0.23-0.16-0.35-0.2-0.48C97.42,61.97,97.06,60.96,96.75,59.94z"/>
		<path d="M74.26,167.22c-0.28-1.41-1.22-2.22-2.5-2.67c-4.8-1.68-9.64-1.96-14.5-0.23c-0.23,0.08-0.46,0.16-0.7,0.23
			c0.96-0.91,1.97-1.71,2.94-2.54c1.86-1.58,3.18-3.59,4.36-5.68c0.76-1.35,1.44-2.75,1.63-4.33c0.17-1.39-0.21-2.52-1.17-2.98
			c-0.48-0.23-0.65-0.52-0.71-1.03c-0.11-1.04-0.77-1.5-1.82-1.35c-0.15,0.02-0.31,0.05-0.48,0.08c-0.04-0.21-0.07-0.39-0.11-0.56
			c-0.38-2.04-2.13-3.06-4.05-2.28c-0.72,0.29-1.43,0.73-2.01,1.26c-1.27,1.15-2.4,2.45-3.16,4.02c-0.09,0.19-0.22,0.37-0.45,0.74
			c0-1.16,0.05-2.11-0.01-3.05c-0.11-1.57-0.22-3.16-1.1-4.55c-0.7-1.1-1.91-1.24-2.87-0.36c-0.26,0.24-0.5,0.5-0.79,0.79
			c-0.18-0.27-0.31-0.48-0.45-0.69c-0.56-0.83-1.27-0.99-2.11-0.43c-0.34,0.23-0.65,0.51-0.9,0.83c-0.8,1-1.28,2.16-1.52,3.41
			c-0.64,3.24-0.58,6.5-0.34,9.77c0.1,1.39,0.26,2.78,0.4,4.25c-0.41-0.69-0.74-1.34-1.16-1.93c-2.83-3.91-6.33-7.14-10.26-9.91
			c-0.67-0.47-1.51-0.78-2.32-0.96c-2.25-0.5-3.98,0.51-4.79,2.65c-0.07,0.19-0.27,0.35-0.45,0.46c-0.99,0.6-1.22,1.2-0.89,2.31
			c0.06,0.2,0.11,0.4,0.2,0.58c0.17,0.36,0.09,0.61-0.2,0.9c-1.27,1.3-1.49,2.81-0.39,4.27c0.75,1,1.79,1.8,2.71,2.68
			c0.14,0.13,0.31,0.23,0.57,0.42c-1.94,0.2-3.46,0.94-4.7,2.28c-0.43,0.47-0.98,0.88-1.56,1.16c-1.57,0.77-1.91,1.96-0.84,3.38
			c0.29,0.38,0.63,0.73,1.01,1.01c1.13,0.85,2.39,1.49,3.79,1.65c1.88,0.21,3.78,0.34,5.67,0.33c2.02,0,4.04-0.2,5.87-0.3
			c-1.42,0.92-3.01,1.9-4.54,2.96c-2.88,2-5.56,4.24-7.86,6.9c-1.04,1.2-1.78,2.42-0.68,3.98c0.01,0.02,0.02,0.04,0.02,0.07
			c-0.02,0.76,0.37,1.24,1.07,1.46c-0.35,1.45-0.08,2.03,1.29,2.59c0.45,0.19,0.97,0.3,1.46,0.29c1.53-0.03,2.97-0.47,4.32-1.19
			c2.96-1.6,5.32-3.93,7.55-6.39c0.12-0.14,0.22-0.31,0.32-0.46c0.05,0.04,0.09,0.09,0.14,0.13c-0.06,0.19-0.13,0.38-0.19,0.58
			c-0.73,2.54-1.53,5.07-2.14,7.64c-0.35,1.45-0.45,2.97-0.53,4.47c-0.05,0.92,0.36,1.7,1.37,1.97c0.01,0.14,0.02,0.25,0.02,0.37
			c0.05,1.33,0.69,1.94,2.01,1.98c1.3,0.04,2.28-0.57,3.12-1.47c1.73-1.85,2.99-3.99,3.66-6.43c0.46-1.66,0.75-3.37,1.1-5.04
			c0.53,1.55,1.05,3.17,1.64,4.77c1.13,3.07,2.35,6.09,4.86,8.39c0.96,0.88,1.69,0.95,2.53-0.06c0.21-0.25,0.4-0.53,0.61-0.8
			c0.41,0.28,0.76,0.54,1.12,0.77c1.15,0.73,1.96,0.55,2.74-0.58c0.7-1.01,0.95-2.17,1.04-3.36c0.24-3.17-0.91-5.89-2.69-8.44
			c-1.66-2.37-3.22-4.81-4.82-7.21c0.17,0,0.28,0.08,0.37,0.16c2.09,1.88,4.17,3.77,6.28,5.63c0.53,0.47,1.12,0.86,1.73,1.23
			c0.3,0.18,0.72,0.35,1.03,0.28c0.63-0.13,1.02,0.13,1.47,0.47c1.52,1.13,3.55,0.59,4.4-1.1c0.83-1.66,0.64-3.25-0.49-4.62
			c-1.33-1.62-2.82-3.11-4.25-4.65c-0.13-0.13-0.36-0.17-0.54-0.25c0.07-0.07,0.15-0.15,0.22-0.22c1.09,0,2.19-0.08,3.28,0.02
			c2.04,0.18,3.89-0.34,5.66-1.27c0.74-0.39,1.58-0.76,1.76-1.62c0.21-1,0.17-2.05,0.24-3.08c0.02-0.22-0.01-0.5,0.11-0.65
			C74.35,168.48,74.39,167.87,74.26,167.22z"/>
		<path d="M275.35,77.31c-0.53-0.24-0.86,0.1-1.12,0.52c-0.52,0.83-1.12,1.62-1.57,2.49c-1.9,3.7-3.83,7.38-5.6,11.13
			c-2.12,4.51-3.07,9.31-2.95,14.3c0.04,1.62,0.08,3.22-0.69,4.76c-0.64,1.28-1.07,2.66-1.6,4c-0.05,0.13-0.12,0.26-0.2,0.42
			c-0.31-1.59-0.6-3.1-0.92-4.62c-0.72-3.43-1.52-6.85-3.12-9.98c-0.97-1.9-1.12-3.92-1.56-5.91c-0.07-0.32-0.01-0.68,0.03-1.02
			c0.28-2.54,1.33-4.83,2.37-7.11c2.33-5.15,3.12-10.39,1.36-15.92c-1.51-4.74-4.03-8.94-6.59-13.14c-0.16-0.27-0.71-0.48-1.01-0.42
			c-0.23,0.05-0.47,0.57-0.5,0.9c-0.12,1.34-0.15,2.69-0.24,4.03c-0.07,0.98-0.24,1.95-0.29,2.93c-0.27,5.37,0.64,10.6,1.89,15.79
			c0.76,3.15,1.74,6.26,1.7,9.55c-0.01,1.14-0.21,2.27-0.33,3.48c-0.1-0.17-0.17-0.26-0.22-0.37c-1.55-3.35-3.76-6.25-6.02-9.14
			c-0.95-1.21-1.79-2.52-2.63-3.82c-0.35-0.55-0.59-1.19-0.82-1.81c-1.07-2.84-2.76-5.24-5.03-7.25c-2.44-2.17-5-4.13-8.17-5.14
			c-3.02-0.97-6.03-1.98-9.05-2.97c-0.52-0.17-1.04-0.39-1.58-0.44c-0.38-0.03-0.92,0.08-1.13,0.34c-0.17,0.21-0.02,0.75,0.09,1.11
			c0.09,0.29,0.32,0.56,0.53,0.8c2.05,2.31,4.08,4.63,6.16,6.91c2.42,2.65,5.31,4.6,8.73,5.72c1.48,0.49,2.93,1.04,4.43,1.44
			c2.85,0.75,5,2.35,6.48,4.89c0.4,0.68,0.97,1.27,1.45,1.91c0.37,0.5,0.73,1.01,1.09,1.51c-0.05,0.06-0.1,0.12-0.15,0.19
			c-2.36-1.17-4.75-2.3-7.09-3.53c-3.01-1.58-6.15-2.58-9.57-2.88c-4.32-0.38-8.69-0.44-12.88-1.77c-0.42-0.13-0.84-0.05-1.03,0.43
			c-0.19,0.48,0.09,0.79,0.48,1.01c0.52,0.29,1.05,0.55,1.58,0.83c3.29,1.74,6.54,3.56,9.89,5.19c2.41,1.17,4.95,2.11,7.7,1.94
			c1.88-0.12,3.77-0.39,5.63-0.72c1.09-0.2,2.12-0.25,3.17,0.1c2.56,0.84,4.71,2.14,5.88,4.74c1.38,3.04,2.91,6,4.29,9.04
			c0.59,1.3,0.97,2.69,1.44,4.04c-0.07,0.03-0.13,0.07-0.2,0.1c-0.9-0.69-1.83-1.36-2.71-2.09c-2.06-1.7-4-3.56-6.16-5.12
			c-4.69-3.37-9.82-5.72-15.73-5.98c-1.87-0.08-3.74-0.26-5.61-0.4c-0.59-0.04-1.29-0.27-1.48,0.54c-0.18,0.79,0.54,0.89,1.06,1.08
			c3.14,1.1,6,2.7,8.49,4.9c1.51,1.33,2.97,2.72,4.48,4.04c1.46,1.27,3.07,2.32,4.96,2.84c1.1,0.3,2.22,0.56,3.34,0.75
			c2.3,0.38,4.61,0.67,6.9,1.04c0.89,0.15,1.77,0.4,2.63,0.68c0.55,0.18,0.83,0.62,0.94,1.23c0.58,3.21,1.24,6.41,1.78,9.62
			c0.39,2.29,0.65,4.61,0.96,6.92c0.06,0.48,0.21,0.89,0.78,0.84c0.54-0.05,0.6-0.47,0.55-0.92c-0.25-2.18-0.52-4.35-0.73-6.53
			c-0.06-0.67-0.04-1.37,0.1-2.03c0.58-2.7,1.88-5.14,3.01-7.62c0.19-0.43,0.5-0.83,0.83-1.17c1.92-1.96,3.42-4.22,4.83-6.55
			c2.52-4.16,3.68-8.69,3.48-13.54c-0.1-2.38-0.15-4.75,0.51-7.08c0.26-0.94,0.45-1.91,0.65-2.87
			C275.88,78.02,275.87,77.53,275.35,77.31z"/>
		<path d="M214.69,91.02c-1.06-1.49-2.02-3.06-3.21-4.43c-3.01-3.43-6.11-6.79-9.22-10.13c-0.63-0.68-1.05-1.37-1.03-2.27
			c0.04-2.12,0.07-4.24,0.21-6.35c0.15-2.35-0.08-4.65-0.76-6.9c-0.88-2.92-2.2-5.66-3.55-8.39c-0.17-0.34-0.58-0.7-0.93-0.77
			c-0.53-0.1-0.83,0.38-1.02,0.85c-0.11,0.28-0.2,0.56-0.27,0.85c-0.26,1.13-0.5,2.28-0.77,3.41c-0.9,3.8-0.47,7.44,1.24,10.94
			c0.34,0.69,0.61,1.42,0.9,2.11c-2.43-2.02-4.82-4.02-7.17-5.97c0.4-1.37,0.77-2.86,1.27-4.29c0.98-2.85,0.69-5.66-0.26-8.4
			c-1.34-3.87-3.77-7.02-6.89-9.63c-0.73-0.61-1.6-1.06-2.42-1.56c-0.46-0.28-1.04-0.56-1.45-0.12c-0.3,0.32-0.36,0.88-0.45,1.34
			c-0.05,0.26,0.04,0.54,0.07,0.81c0.14,1.3,0.28,2.6,0.42,3.9c-1.08-1.51-2.12-2.99-3.19-4.45c-0.23-0.32-0.54-0.64-0.89-0.81
			c-0.64-0.3-1.34,0.19-1.27,0.85c0.06,0.6,0.34,1.06,0.92,1.34c0.41,0.2,0.83,0.47,1.11,0.81c0.54,0.67,1.05,1.39,1.47,2.14
			c0.53,0.96,0.94,1.99,1.41,2.99c-0.07,0.06-0.15,0.13-0.22,0.19c-0.34-0.25-0.8-0.43-1.01-0.77c-0.39-0.63-0.51-1.46-0.97-2.01
			c-0.74-0.86-1.63-1.61-2.53-2.32c-0.51-0.4-1.17,0-1.24,0.66c-0.07,0.63,0.31,1.22,0.98,1.26c1.25,0.08,1.57,1.08,2.17,1.91
			c-0.84-0.19-1.58-0.47-2.33-0.51c-1.05-0.05-1.82-0.37-2.24-1.39c-0.27-0.66-1.08-1.05-1.68-0.88c-0.58,0.16-0.92,0.7-0.85,1.32
			c0.08,0.66,0.63,0.95,1.32,1.17c0.91,0.28,1.74,0.82,2.6,1.25c0.03,0.02,0.04,0.08,0.05,0.12c0.37,1.12,0.74,2.23,1.1,3.35
			c-0.61-0.8-1.71-1.15-1.9-2.3c-0.09-0.58-0.83-0.81-1.33-0.58c-0.47,0.23-0.7,0.84-0.38,1.35c0.27,0.43,0.68,0.78,1.04,1.15
			c0.67,0.68,1.36,1.35,2.04,2.02c-0.05,0.05-0.1,0.1-0.15,0.15c-1.59-0.47-3.01-1.17-3.81-2.75c-0.26-0.53-0.53-1.06-0.82-1.57
			c-0.28-0.51-0.76-0.81-1.31-0.63c-0.3,0.1-0.65,0.47-0.72,0.78c-0.14,0.54,0.21,0.95,0.7,1.2c0.2,0.1,0.47,0.17,0.58,0.33
			c0.52,0.77,1,1.58,1.51,2.39c-0.43-0.12-0.87-0.24-1.31-0.37c-0.44-0.13-0.87-0.3-1.31-0.4c-1.24-0.29-1.78,0.18-1.68,1.46
			c0.02,0.29,0.04,0.62,0.18,0.86c0.53,0.92,0.99,1.93,1.71,2.69c3.22,3.46,7.13,5.93,11.58,7.47c2.97,1.03,6.01,1.49,8.94-0.27
			c0.13-0.08,0.41-0.04,0.53,0.05c1.96,1.57,4.06,3,5.82,4.77c3.81,3.81,7.45,7.79,11.15,11.7c0.04,0.04,0.06,0.12,0.13,0.28
			c-0.43-0.18-0.78-0.32-1.12-0.48c-2.49-1.12-5.05-1.87-7.82-1.72c-2.17,0.12-4.33,0.17-6.5,0.28c-1,0.05-2.01,0.13-2.99,0.31
			c-0.31,0.06-0.72,0.46-0.79,0.77c-0.05,0.25,0.31,0.62,0.54,0.9c0.1,0.13,0.32,0.16,0.49,0.23c4.36,1.7,8.74,3.18,13.54,3.07
			c2.22-0.05,4.42-0.04,6.59-0.61c0.28-0.07,0.73,0.02,0.92,0.21c1.97,2.07,3.89,4.18,5.38,6.64c0.24,0.4,0.55,0.75,1.04,0.47
			C215.06,91.86,214.97,91.41,214.69,91.02z"/>
		<path d="M235.41,106.86c-0.08-0.25-0.51-0.4-0.79-0.57c-0.06-0.04-0.18,0-0.27,0.01c-3.11,0.21-6.18,0.63-9.18,1.51
			c-0.22,0.06-0.58,0.05-0.72-0.09c-1.48-1.45-2.93-2.95-4.4-4.41c-1.11-1.1-2.32-2.06-3.79-2.65c-3.61-1.44-7.26-1.33-10.87-0.09
			c-3.26,1.12-5.49,3.25-5.97,6.83c-0.14,1.01-0.61,1.63-1.52,1.98c-0.17,0.07-0.33,0.15-0.5,0.23c-2.19,1.09-3.06,2.77-2.81,5.2
			c0.05,0.48-0.14,1.01-0.33,1.47c-0.16,0.39-0.47,0.73-0.73,1.07c-0.93,1.2-1.28,2.55-1.09,4.05c0.2,1.58,0.15,3.12-0.53,4.63
			c-0.56,1.24-0.38,2.49,0.66,3.47c1.01,0.95,2.2,1.52,3.61,1.64c1.97,0.17,3.87-0.12,5.71-0.84c1.67-0.65,3.41-0.89,5.18-0.54
			c3.3,0.65,6.13-0.24,8.44-2.64c1.61-1.67,3.37-2.34,5.68-1.64c0.88,0.27,1.96,0.31,2.83,0.05c2.98-0.88,5.29-3.6,4.58-7.18
			c-0.25-1.27-0.63-2.53-1.07-3.75c-0.64-1.78-1.38-3.51-2.14-5.42c1.97-0.39,4-0.83,6.04-1.18c1.1-0.19,2.22-0.24,3.33-0.37
			C235.18,107.57,235.55,107.3,235.41,106.86z"/>
		<path d="M272.22,155.99c1.64-1.66,1.95-5.38-1.66-6.43c-1.84-0.54-3.7-0.53-5.57-0.32c-0.86,0.1-1.71,0.23-2.57,0.35
			c0.22-0.3,0.47-0.5,0.73-0.68c2.08-1.4,3.98-3.02,5.51-5.01c0.67-0.87,1.26-1.87,1.63-2.9c0.78-2.19-0.58-4.47-2.72-4.7
			c-0.74-0.08-1.52-0.05-2.25,0.08c-3.03,0.55-5.65,1.9-7.83,4.09c-1,1.01-2.01,2.01-3.02,3.01c-0.01-0.21,0.06-0.34,0.13-0.48
			c1.56-2.98,2.93-6.04,3.91-9.27c0.66-2.17,0.68-4.34-0.53-6.36c-0.69-1.16-1.75-1.63-3.09-1.42c-2.24,0.35-3.8,1.66-5.01,3.49
			c-1.72,2.6-2.91,5.43-3.66,8.44c-0.06,0.24-0.15,0.47-0.22,0.71c-0.44-3.74-1.82-7.12-3.28-10.48c-0.67-1.53-1.63-2.85-2.9-3.95
			c-0.55-0.47-1.15-0.77-1.88-0.63c-1.12,0.21-2.06,0.72-2.67,1.74c-0.78,1.3-1.21,2.69-1.25,4.22c-0.13,4.45,1,8.59,2.92,12.56
			c0.1,0.2,0.18,0.41,0.27,0.61c-0.29-0.09-0.46-0.25-0.63-0.39c-1.45-1.25-2.85-2.57-4.38-3.73c-1.87-1.42-3.97-2.45-6.3-2.88
			c-1.92-0.35-3.73-0.08-5.38,1.01c-1.43,0.95-2,2.23-1.63,3.89c0.46,2.1,1.66,3.79,3.31,5.07c1.51,1.17,3.19,2.12,4.81,3.14
			c0.42,0.26,0.88,0.45,1.3,0.66c-1.82-0.04-3.64-0.15-5.45-0.1c-2.53,0.07-4.8,0.92-6.65,2.68c-1.36,1.29-1.57,2.93-0.65,4.57
			c0.83,1.48,2.18,2.31,3.77,2.77c2.86,0.82,5.74,0.65,8.72,0.17c-1.4,0.99-2.77,1.89-4.06,2.89c-1.56,1.21-3.08,2.5-3.86,4.38
			c-0.29,0.69-0.49,1.51-0.42,2.24c0.13,1.47,1.29,2.11,2.57,2.4c1.96,0.44,3.86,0.08,5.68-0.74c2.23-1,4.23-2.36,6.04-3.99
			c0.19-0.17,0.39-0.34,0.58-0.51c-0.01,0.29-0.11,0.49-0.2,0.69c-1.28,2.82-2.43,5.67-2.61,8.82c-0.1,1.8,0.02,3.57,1.01,5.16
			c1.78,2.88,4.76,3.28,7.23,0.97c1.2-1.12,2.08-2.48,2.52-4.03c0.54-1.93,0.91-3.9,1.26-5.88c0.19-1.09,0.18-2.22,0.26-3.32
			c0.17,0.21,0.23,0.43,0.29,0.64c1.02,3.71,2.21,7.35,4.12,10.71c0.72,1.27,1.64,2.37,2.94,3.1c2.06,1.16,4.1,0.58,5.24-1.48
			c0.94-1.7,1.11-3.52,0.82-5.39c-0.47-3.01-1.77-5.7-3.3-8.29c-0.13-0.22-0.25-0.45-0.37-0.67c0.3,0.04,0.48,0.16,0.67,0.29
			c2.8,1.86,5.68,3.59,8.82,4.83c1.46,0.57,2.96,0.95,4.54,0.89c3.04-0.11,4.76-2.61,3.64-5.42c-0.37-0.93-0.97-1.82-1.62-2.6
			c-1.92-2.3-4.45-3.76-7.14-4.97c-0.21-0.1-0.42-0.2-0.82-0.38c2.96-0.19,5.55-0.97,8-2.17
			C270.7,157.24,271.54,156.67,272.22,155.99z"/>
		<path d="M281.73,197.37c-0.25-0.41-0.55-0.79-0.77-1.22c-0.98-1.98-2.51-3.31-4.61-4.05c-1.36-0.48-2.22-1.59-2.94-2.78
			c-1.19-1.98-2.94-3.12-5.17-3.47c-0.93-0.15-1.9,0.04-2.85,0.03c-0.39,0-0.83-0.02-1.16-0.2c-2.77-1.49-5.63-1.94-8.66-0.88
			c-0.59,0.2-1.23,0.27-2.04,0.44c-1.15,0.46-2.61,1.14-3.4,1.72c-0.89,0.9-1.82,1.77-2.64,2.73c-0.98,1.14-1.92,2.34-2.74,3.6
			c-0.57,0.88-0.91,1.92-1.42,3.02c-2.44-0.39-5.02-0.79-7.01-2.84c-1.56-1.6-3.14-3.21-4.86-4.63c-1.57-1.3-3.16-2.64-5.14-3.35
			c-0.04-0.02-0.08-0.04-0.13-0.05c-0.42-0.14-0.86-0.19-1.05,0.3c-0.19,0.48,0.14,0.73,0.54,0.95c0.87,0.49,1.75,0.97,2.57,1.54
			c4.11,2.87,7.42,6.55,10.49,10.46c0.66,0.84,1.01,1.81,0.95,2.86c-0.09,1.43-0.31,2.85-0.46,4.28c-0.05,0.46-0.28,0.63-0.72,0.75
			c-2.38,0.65-4.83,1.07-7.03,2.27c-1.02,0.56-2.04,1.13-2.97,1.82c-1.6,1.19-2.13,2.85-1.84,4.79c0.03,0.18,0.05,0.36,0.09,0.54
			c0.24,1.07-0.05,1.87-0.99,2.54c-1.84,1.32-2.97,3.12-2.95,5.44c0.01,0.72,0.34,1.44,0.59,2.14c0.26,0.73,0.64,1.41,0.89,2.14
			c0.46,1.3,0.3,2.56-0.32,3.78c-1.1,2.15-0.72,4.22,0.46,6.19c0.74,1.23,1.99,1.54,3.12,0.69c2.01-1.51,4.27-2.02,6.72-2.21
			c3.27-0.25,5.8-1.92,7.67-4.58c0.47-0.67,0.81-1.43,1.21-2.15c0.1,0.02,0.2,0.05,0.29,0.07c0.28,0.42,0.58,0.83,0.83,1.27
			c0.99,1.77,1.93,3.57,2.93,5.34c1.21,2.12,3.11,3.42,5.31,4.36c0.17,0.07,0.34,0.13,0.52,0.19c1.37,0.41,2.07,0.06,2.53-1.3
			c0.36-1.08,0.74-2.16,1.06-3.25c0.26-0.87,0.71-1.59,1.46-2.09c1.81-1.2,2.57-3.05,3.02-5.04c0.34-1.51,0.59-3.05,0.79-4.59
			c0.44-3.29-0.54-6.24-2.56-8.77c-2.36-2.97-5.26-5.33-8.73-6.93c-2.34-1.08-4.39-2.53-6.21-4.33c-0.27-0.26-0.42-0.65-0.6-0.99
			c-1.26-2.36-2.6-4.67-4.33-6.72c-0.07-0.08-0.12-0.18-0.13-0.19c1.43,0.25,2.9,0.5,4.36,0.78c0.16,0.03,0.33,0.23,0.41,0.39
			c1.22,2.39,2.75,4.58,4.44,6.65c2.51,3.08,5.65,5.28,9.39,6.54c2.3,0.77,4.72,1.04,7.01-0.16c0.75-0.39,1.5-0.95,2-1.61
			c0.96-1.26,2.2-1.75,3.68-1.75c2.31,0,4.07-0.96,5.42-2.82c1.26-1.73,3.05-2.87,4.81-4.02
			C282.78,199.74,282.91,199.32,281.73,197.37z M240.69,205.98c0.09-1.07,0.24-2.13,0.37-3.19c0.02-0.14,0.05-0.27,0.1-0.51
			c1.29,2.13,2.55,4.14,1.61,6.67c-0.64-0.7-1.29-1.34-1.85-2.05C240.74,206.68,240.67,206.29,240.69,205.98z"/>
		<path d="M216.05,54.12c1.95-5.28,0.69-4.01,5.97-5.97c-5.28-1.95-4.01-0.69-5.97-5.97c-1.96,5.28-0.69,4.01-5.97,5.97
			C215.36,50.11,214.1,48.85,216.05,54.12z"/>
		<path d="M74.62,82.13c1.35-3.65,0.48-2.78,4.13-4.13c-3.65-1.35-2.78-0.48-4.13-4.13c-1.35,3.65-0.48,2.78-4.13,4.13
			C74.14,79.35,73.27,78.48,74.62,82.13z"/>
		<path d="M268.4,128.51c5.28,1.95,4.01,0.69,5.97,5.97c1.95-5.28,0.69-4.01,5.97-5.97c-5.28-1.95-4.01-0.69-5.97-5.97
			C272.42,127.82,273.68,126.56,268.4,128.51z"/>
		<path d="M68.42,61.81c1.95-5.28,0.69-4.01,5.97-5.97c-5.28-1.95-4.01-0.69-5.97-5.97c-1.96,5.28-0.69,4.01-5.97,5.97
			C67.73,57.8,66.47,56.54,68.42,61.81z"/>
		<path d="M36.51,201.99c-1.95,5.28-0.69,4.01-5.97,5.97c5.28,1.95,4.01,0.69,5.97,5.97c1.95-5.28,0.69-4.01,5.97-5.97
			C37.2,206,38.46,207.26,36.51,201.99z"/>
		<path d="M66.93,112.41c-1.45-3-2.35-6.14-2.55-9.47c-0.13-2.01-0.18-4.02-0.33-6.02c-0.14-1.93-0.54-3.81-1.51-5.51
			c-0.56-0.99-1.17-1.96-1.84-2.89c-1.36-1.89-2.79-3.72-4.15-5.61c-0.53-0.73-0.97-1.53-1.39-2.34c-0.27-0.52-0.15-1.02,0.2-1.53
			c1.86-2.68,3.65-5.41,5.53-8.08c1.34-1.9,2.8-3.72,4.2-5.58c0.29-0.38,0.48-0.78,0.04-1.14c-0.42-0.35-0.76-0.09-1.04,0.26
			c-1.36,1.72-2.7,3.45-4.09,5.14c-0.43,0.52-0.94,1-1.51,1.37c-2.32,1.51-4.95,2.31-7.52,3.28c-0.44,0.17-0.94,0.23-1.41,0.24
			c-2.74,0.03-5.4,0.57-8.05,1.23c-4.73,1.17-8.74,3.56-12.02,7.13c-1.61,1.76-3.25,3.47-5.35,4.66c-0.85,0.48-1.67,1.03-2.49,1.58
			c-0.4,0.26-0.73,0.61-0.52,1.14c0.21,0.54,0.68,0.53,1.16,0.42c0.96-0.22,1.94-0.36,2.87-0.66c3.95-1.28,7.92-2.53,11.82-3.94
			c4.69-1.7,8.74-4.43,12.18-8.06c1.11-1.17,2.22-2.34,3.84-2.88c1.36-0.45,2.64-1.13,3.95-1.71c0.13-0.06,0.26-0.1,0.43-0.16
			c-0.9,1.35-1.77,2.62-2.61,3.92c-1.91,2.93-3.76,5.93-4.83,9.27c-0.65,2.03-1.97,3.57-3.06,5.29c-0.18,0.28-0.47,0.49-0.74,0.7
			c-1.99,1.6-4.35,2.48-6.7,3.37c-5.28,2.01-9.55,5.16-12.2,10.32c-2.27,4.42-3.46,9.18-4.6,13.95c-0.07,0.3,0.16,0.84,0.42,1.01
			c0.19,0.13,0.74-0.07,0.99-0.28c1.03-0.86,2-1.8,3.01-2.68c0.74-0.64,1.55-1.22,2.28-1.88c3.98-3.61,7.03-7.96,9.8-12.53
			c1.68-2.77,3.19-5.67,5.53-7.96c0.81-0.79,1.75-1.46,2.69-2.23c-0.05,0.19-0.07,0.31-0.1,0.41c-1.27,3.46-1.75,7.08-2.19,10.72
			c-0.18,1.53-0.5,3.05-0.83,4.56c-0.14,0.64-0.42,1.26-0.69,1.86c-1.24,2.77-1.74,5.66-1.55,8.69c0.2,3.26,0.63,6.46,2.16,9.41
			c1.46,2.82,2.87,5.66,4.31,8.49c0.25,0.49,0.46,1.01,0.81,1.42c0.25,0.29,0.71,0.59,1.04,0.56c0.27-0.03,0.55-0.52,0.72-0.85
			c0.14-0.27,0.17-0.62,0.19-0.94c0.18-3.08,0.38-6.16,0.51-9.24c0.16-3.58-0.52-7-2.15-10.22c-0.7-1.38-1.34-2.81-2.12-4.15
			c-1.49-2.54-1.88-5.19-1.14-8.04c0.2-0.77,0.21-1.58,0.32-2.38c0.09-0.62,0.19-1.23,0.29-1.84c0.08-0.01,0.16-0.02,0.23-0.03
			c0.85,2.5,1.74,4.99,2.53,7.5c1.02,3.24,2.53,6.17,4.75,8.8c2.79,3.31,5.85,6.44,7.88,10.34c0.2,0.39,0.56,0.63,1.03,0.42
			c0.47-0.21,0.49-0.62,0.37-1.05c-0.16-0.57-0.36-1.13-0.54-1.7c-1.11-3.55-2.12-7.14-3.34-10.65c-0.88-2.53-2.02-4.99-4.08-6.81
			c-1.42-1.25-2.94-2.38-4.5-3.46c-0.91-0.63-1.67-1.32-2.17-2.31c-1.22-2.4-1.82-4.84-0.82-7.51c1.17-3.12,2.18-6.31,3.34-9.43
			c0.5-1.33,1.21-2.59,1.83-3.88c0.07,0.02,0.14,0.05,0.21,0.07c0.15,1.13,0.33,2.26,0.45,3.39c0.26,2.66,0.32,5.35,0.76,7.98
			c0.95,5.7,2.92,10.98,6.93,15.34c1.27,1.38,2.47,2.82,3.69,4.24c0.38,0.44,0.73,1.1,1.43,0.66
			C67.61,113.5,67.17,112.91,66.93,112.41z"/>
		<path d="M65.44,133.11c5.28,1.95,4.01,0.69,5.97,5.97c1.95-5.28,0.69-4.01,5.97-5.97c-5.28-1.95-4.01-0.69-5.97-5.97
			C69.45,132.41,70.71,131.15,65.44,133.11z"/>
		<path d="M169.67,76.62c3.65,1.35,2.78,0.48,4.13,4.13c1.35-3.65,0.48-2.78,4.13-4.13c-3.65-1.35-2.78-0.48-4.13-4.13
			C172.45,76.15,173.33,75.27,169.67,76.62z"/>
		<path d="M207.79,137.24c-1.35,3.65-0.48,2.78-4.13,4.13c3.65,1.35,2.78,0.48,4.13,4.13c1.35-3.65,0.48-2.78,4.13-4.13
			C208.27,140.02,209.14,140.89,207.79,137.24z"/>
		<path d="M269.21,215.19c-1.35,3.65-0.48,2.78-4.13,4.13c3.65,1.35,2.78,0.48,4.13,4.13c1.35-3.65,0.48-2.78,4.13-4.13
			C269.68,217.97,270.56,218.84,269.21,215.19z"/>
		<path d="M92.97,238.94c-1.09-1.69-1.36-3.49-1.24-5.43c0.07-1.17-0.05-2.31-0.65-3.38c-0.82-1.47-1.93-2.48-3.63-2.73
			c-0.48-0.07-0.73-0.28-0.85-0.8c-0.84-3.51-4.35-4.48-6.79-3.12c-0.93,0.52-1.81,1.13-2.78,1.74c-3.11-3.18-7.13-5.53-9.82-9.27
			c-0.91-1.26-1.55-2.74-2.18-4.17c-1.21-2.73-2.76-5.26-4.36-7.76c-0.56-0.87-0.91-1.88-1.54-2.71c-0.21-0.28-0.61-0.96-1.03-0.96
			c-2.05-0.01,0.47,3.04,0.75,3.49c0.69,1.1,1.37,2.2,2.01,3.33c0.23,0.42,0.35,1.04,0.23,1.5c-0.31,1.19-0.76,2.34-1.2,3.49
			c-0.21,0.55-0.65,0.91-1.26,0.89c-1.18-0.04-2.38-0.02-3.54-0.22c-3.39-0.6-6.06,0.59-8.18,3.16c-0.59,0.72-1.1,1.51-1.58,2.32
			c-0.8,1.34-1.08,2.79-0.86,4.35c0.14,0.99,0.24,1.99,0.36,2.99c0.1,0.87-0.04,1.7-0.52,2.43c-1.54,2.35-1.9,4.78-0.74,7.41
			c0.54,1.23,0.14,2.53,0.01,3.79c-0.16,1.46-0.01,2.87,0.65,4.21c0.56,1.12,1.18,1.27,2.17,0.53c1.22-0.92,2.44-1.85,3.68-2.75
			c0.4-0.29,0.85-0.54,1.31-0.73c1.89-0.77,3.24-2.09,4.2-3.86c0.38-0.7,0.73-1.43,1.14-2.11c0.68-1.14,1.54-2.13,2.79-2.65
			c3.45-1.44,4.91-4.28,5.63-7.72c0.95-4.54-1.09-7.91-4.09-10.99c0.41-1.13,0.83-2.25,1.28-3.48c3.58,6.74,6.01,13.74,6.09,21.44
			c-0.93,0.11-1.97,0.25-3.01,0.33c-1.26,0.1-2.35,0.6-3.46,1.19c-3.71,1.98-5.28,5.48-6.67,9.12c-0.45,1.19-0.51,2.46-0.21,3.72
			c0.22,0.96,0.45,1.91,0.71,2.86c0.25,0.93,0.23,1.84-0.09,2.76c-0.18,0.52-0.33,1.05-0.46,1.58c-0.37,1.54,0.01,2.93,1.03,4.09
			c1.87,2.12,3.27,4.49,4.32,7.11c0.72,1.78,2.41,2.25,3.99,1.13c0.85-0.6,1.59-1.36,2.32-2.12c0.62-0.64,1.29-1.04,2.21-1.04
			c1.37,0,2.35-0.84,3.2-1.78c1.68-1.87,2.42-4.11,2.41-6.6c0-1.09,0.31-2.04,0.98-2.92c0.93-1.23,1.86-2.57,1.91-4.11
			c0.07-1.94,0.29-3.85,0.41-5.78c0.06-1.11-0.3-2.16-0.86-3.13c-1.59-2.74-3.68-4.93-6.71-6.11c-0.19-0.07-0.36-0.43-0.39-0.68
			c-0.32-2.44-0.56-4.9-0.94-7.33c-0.19-1.21-0.63-2.38-0.95-3.57c-0.06-0.21-0.11-0.42-0.19-0.74c2.77,2.48,5.46,4.88,8.12,7.3
			c0.17,0.15,0.26,0.52,0.22,0.76c-0.44,2.37-0.22,4.71,0.51,6.97c0.53,1.66,1.66,2.95,3.17,3.83c1.12,0.65,1.94,1.49,2.6,2.62
			c1.06,1.8,2.63,2.99,4.77,3.36c0.86,0.15,1.68,0.58,2.53,0.81c0.67,0.18,1.39,0.37,2.07,0.32c1.39-0.09,2.13-1.01,2.24-2.4
			C94.34,241.26,93.69,240.06,92.97,238.94z"/>
		<path d="M76.57,215.07c1.35-3.65,0.48-2.78,4.13-4.13c-3.65-1.35-2.78-0.48-4.13-4.13c-1.35,3.65-0.48,2.78-4.13,4.13
			C76.09,212.29,75.22,211.42,76.57,215.07z"/>
		<g>
			<path d="M133.85,249.73c0.18-1.73,0.26-3.48,0.23-5.22c-0.02-1.21-0.09-2.44-0.22-3.64c-0.11-1.09-0.46-2.75-1.91-2.74
				c-1.74,0.02-2.46,2.46-2.69,3.8c-0.47-0.29-1.03-0.43-1.59-0.44c-3.04-0.03-4.56,3.22-4.64,5.74c-0.07,2.36,1.12,5.58,4.14,5.62
				c0.83,0.01,1.65-0.27,2.2-0.84c0.05,0.79,1.06,1.14,1.78,1.14C133.24,253.14,133.69,251.27,133.85,249.73z M128.19,248.4
				c-0.76-0.01-0.93-0.72-0.92-1.3c0.01-0.57,0.27-1.85,1.07-1.85c0.75,0.01,1,0.91,0.99,1.48
				C129.33,247.36,129.02,248.41,128.19,248.4z"/>
			<path d="M141.33,248.19c2.37-0.12,3.94-2.32,3.79-4.45c-0.15-2.16-1.74-3.58-3.96-3.46c-3.75,0.2-5.6,4.01-5.52,7.25
				c0.08,3.05,1.98,5.57,5.51,5.4c2.27-0.11,4.03-1.36,4.49-3.49c0.02-0.1,0.01-0.19,0.01-0.29c-0.06-0.78-0.87-1.16-1.62-1.11
				c-1.56,0.1-1.03,1.93-2.53,2.01c-0.71,0.04-1.08-0.71-1.11-1.26C140.37,248.04,140.8,248.21,141.33,248.19z M140.28,244.71
				c-0.02-0.43,0.26-1.37,0.8-1.4c0.37-0.02,0.47,0.43,0.48,0.69c0.02,0.38-0.25,1.42-0.77,1.45
				C140.42,245.46,140.3,244.99,140.28,244.71z"/>
			<path d="M151.55,239.24c-1.67,0.17-3.55,1.09-3.39,2.99c0.14,1.66,1.86,1.42,3.1,1.3c0.62-0.06,1.03,0.09,1.1,0.73
				c-0.36-0.06-0.73-0.05-1.08-0.01c-2.65,0.26-4.61,2.43-4.42,4.98c0.15,1.92,1.98,3.17,4.01,2.99c1.13-0.1,2.19-0.69,2.85-1.55
				c0.31,0.52,0.99,0.8,1.63,0.73c1.43-0.16,1.67-1.81,1.7-2.86c0.04-1.49,0.06-3.03-0.12-4.5
				C156.57,241.09,154.85,238.9,151.55,239.24z M151.65,248.76c-0.58,0.06-0.74-0.26-0.78-0.74c-0.04-0.45,0.03-1.01,0.63-1.07
				c0.53-0.05,0.67,0.32,0.71,0.74C152.25,248.15,152.25,248.7,151.65,248.76z"/>
			<path d="M164.59,250.47c1.56-0.24,3.11-1.44,2.84-3.04c-0.14-0.8-0.8-1.36-1.67-1.22c-0.38,0.06-0.66,0.35-0.99,0.4
				c-0.68,0.11-0.94-1.95-1.02-2.42c-0.09-0.61-0.18-1.22-0.26-1.82c-0.06-0.48-0.1-0.51,0.41-0.62c0.87-0.18,1.79-0.58,1.62-1.61
				c-0.27-1.62-2.12-0.48-2.23-1.16c-0.01-0.08-0.02-0.13-0.03-0.21c-0.24-1.55-0.38-3.24-2.36-2.94c-1.88,0.28-1.53,1.78-1.34,3.13
				c0.12,0.9,0.02,0.76-0.76,0.92c-0.86,0.18-1.11,0.79-1.01,1.58c0.13,0.99,0.93,0.99,1.78,0.97c0.05,0.76,0.14,1.54,0.24,2.32
				C160.16,247.43,160.63,251.08,164.59,250.47z"/>
			<path d="M179.17,244.39c-0.38-1.7-1.48-6.09-3.07-6.91c-0.51-0.28-1.12-0.29-1.7-0.17c-1.11,0.23-1.97,1.04-2.58,1.93
				c-0.25-1.16-0.82-4.54-2.37-4.69c-0.27-0.02-0.57-0.02-0.85,0.04c-0.95,0.18-1.73,0.71-1.6,1.77c0.15,1.22,0.36,2.45,0.57,3.67
				c0.27,1.55,1.32,7.39,2.09,8.49c0.49,0.69,1.22,0.94,2.11,0.78c2.56-0.48,1.44-3.11,1.14-4.66c-0.11-0.56-0.45-2.29,0.44-2.47
				c0.89-0.18,1.2,1.85,1.31,2.41c0.19,0.91,0.4,1.82,0.63,2.69c0.23,0.88,0.88,1.18,1.81,0.99
				C179.22,247.8,179.55,246.06,179.17,244.39z"/>
			<path d="M91.02,254.01c-1.18-0.2-2.47,0.1-3.27,0.9c0.06-1.35,0.72-4.92-1.36-5.32c-0.41-0.08-0.84,0.05-1.2,0.25
				c-1.51,0.89-1.87,3.54-2.19,5.08c-0.37,1.8-0.68,3.63-0.85,5.42c-0.14,1.44-0.11,3.61,2.05,4.02c1.01,0.19,1.41-0.44,1.9-0.35
				c0.19,0.04,0.79,0.95,2.21,1.19c3.43,0.59,5.55-2.86,5.93-5.31C94.59,257.67,94,254.51,91.02,254.01z M89.97,258.88
				c-0.13,0.78-0.96,1.72-1.95,1.55c-0.78-0.14-0.89-1.03-0.8-1.57c0.15-0.8,0.99-1.66,1.97-1.49
				C89.93,257.5,90.07,258.32,89.97,258.88z"/>
			<path d="M102.65,254.55c-4.02-0.48-6.65,2.94-7.12,6.15c-0.44,3.02,1.14,5.85,4.91,6.31c2.42,0.3,4.5-0.62,5.37-2.64
				c0.04-0.09,0.05-0.19,0.06-0.28c0.08-0.78-0.72-1.29-1.53-1.38c-1.68-0.18-1.42,1.72-3.03,1.53c-0.76-0.09-1.02-0.89-0.95-1.44
				c0.09-0.73,0.53-0.49,1.09-0.42c2.54,0.3,4.59-1.58,4.8-3.71C106.46,256.51,105.02,254.83,102.65,254.55z M102.42,258.29
				c-0.04,0.38-0.51,1.36-1.07,1.29c-0.4-0.05-0.45-0.54-0.41-0.82c0.05-0.43,0.51-1.31,1.09-1.24
				C102.42,257.57,102.45,258.03,102.42,258.29z"/>
			<path d="M114.54,253.29c-3.37-0.23-4.46,1.28-4.72,4.25c-0.17,1.92-2.16,0.28-2.36,2.39c-0.07,0.69,0.47,1.31,1.28,1.39
				c0.64,0.06,0.46,1.57,0.43,1.9c-0.08,0.9-0.26,1.77-0.34,2.65c-0.09,1.04,0.03,2.16,1.52,2.28c2.68,0.22,2.69-2.31,2.8-3.95
				c0.05-0.69,0.07-1.38,0.12-2.07c0.06-0.78,0.52-0.49,1.19-0.44c0.89,0.06,1.66-0.66,1.7-1.42c0.06-1.02-1.38-1.4-2.31-1.46
				c-0.16-0.01-0.18-0.54-0.17-0.63c0.02-0.33,0.16-0.78,0.54-0.92c0.79-0.26,1.4,0.04,2.27-0.41c0.62-0.32,0.93-1.07,0.96-1.66
				C117.54,253.66,115.84,253.38,114.54,253.29z"/>
			<path d="M123.91,256.09c-3.64-0.09-6.09,3.15-6.25,6.15c-0.16,3.12,2.13,6.48,6.03,6.57c3.9,0.1,6.24-3.11,6.24-6.21
				C129.94,259.45,127.71,256.19,123.91,256.09z M123.74,264.05c-0.76-0.02-0.76-0.97-0.74-1.43c0.01-0.5,0.11-1.86,0.91-1.83
				c0.64,0.02,0.7,1.16,0.69,1.54C124.58,262.83,124.52,264.07,123.74,264.05z"/>
			<path d="M138.93,256.49c-1.2,0.05-2.42,0.51-3.24,1.32c0-0.07,0-0.1,0-0.17c-0.03-1.17-0.33-1.56-1.66-1.54
				c-1.28,0.02-1.8,0.62-2,1.74c-0.32,1.79-0.45,3.63-0.44,5.44c0.01,1.17-0.03,4.12,0.81,4.97c0.33,0.33,1.03,0.46,1.49,0.46
				c1.43-0.02,2.14-0.91,2.21-2.07c0.1-1.59,0.06-3.23,0.22-4.82c0.07-0.64,0.34-1.15,1.14-1.18c0.85-0.03,1.6,0.54,2.5,0.5
				c1.39-0.06,2.34-1.33,2.28-2.49C142.16,257.13,140.42,256.43,138.93,256.49z"/>
			<path d="M152.52,263c-1.67,0.16-1.04,1.97-2.65,2.1c-0.76,0.06-1.17-0.67-1.22-1.22c-0.06-0.74,0.42-0.58,0.98-0.63
				c2.53-0.21,4.15-2.46,3.94-4.6c-0.22-2.16-1.96-3.51-4.33-3.31c-4.01,0.34-5.89,4.22-5.7,7.45c0.18,3.05,2.28,5.5,6.04,5.19
				c2.42-0.2,4.26-1.51,4.7-3.66c0.02-0.1,0.01-0.19,0-0.29C154.2,263.27,153.33,262.93,152.52,263z M149.23,258.39
				c0.4-0.03,0.51,0.41,0.54,0.67c0.03,0.38-0.23,1.43-0.79,1.48c-0.4,0.03-0.54-0.43-0.57-0.72
				C148.38,259.39,148.65,258.44,149.23,258.39z"/>
			<path d="M174.55,255.86c-0.23-1.19-0.51-2.38-0.85-3.55c-0.3-1.05-0.96-2.63-2.48-2.35c-1.83,0.34-2.18,2.88-2.19,4.24
				c-0.54-0.2-1.16-0.24-1.76-0.14c-3.21,0.53-4.26,4-3.9,6.5c0.33,2.34,2.15,5.3,5.33,4.78c0.87-0.14,1.69-0.57,2.17-1.23
				c0.19,0.77,1.31,0.93,2.07,0.8c2.2-0.4,2.36-2.32,2.26-3.86C175.09,259.31,174.88,257.57,174.55,255.86z M169,260.78
				c-0.8,0.13-1.1-0.54-1.19-1.11c-0.09-0.56-0.03-1.88,0.81-2.02c0.79-0.13,1.21,0.71,1.3,1.28
				C170.02,259.54,169.88,260.63,169,260.78z"/>
			<path d="M185.64,257.47c-1.63,0.39-0.76,2.1-2.33,2.45c-0.75,0.17-1.26-0.5-1.38-1.03c-0.16-0.72,0.33-0.63,0.89-0.76
				c2.48-0.56,3.78-3.03,3.26-5.11c-0.52-2.11-2.44-3.2-4.76-2.67c-3.93,0.9-5.25,5-4.61,8.18c0.6,2.99,3.03,5.13,6.72,4.29
				c2.37-0.53,4.02-2.09,4.15-4.29c0-0.1-0.02-0.19-0.04-0.28C187.35,257.5,186.43,257.28,185.64,257.47z M181.13,254.9
				c-0.09-0.42,0.04-1.4,0.61-1.53c0.39-0.09,0.57,0.33,0.63,0.59c0.09,0.37-0.03,1.45-0.57,1.57
				C181.4,255.62,181.19,255.18,181.13,254.9z"/>
			<path d="M197.48,253.31c-1.74,0.52-1.55,2.24-2.71,2.57c-0.71,0.2-1.01-0.39-1.15-0.87c-0.24-0.85-0.27-2.96,0.97-3.32
				c0.9-0.26,1.09,0.88,2.38,0.5c1.19-0.35,1.56-1.26,1.26-2.24c-0.65-2.12-2.78-3.26-5.18-2.57c-3.84,1.09-5.42,5.41-4.61,8.59
				c0.75,2.96,2.86,4.86,6.54,3.84c2.48-0.69,5.34-2.69,4.57-5.23C199.3,253.74,198.57,252.99,197.48,253.31z"/>
			<path d="M210.46,247.1c-1.01-2.78-3.28-4.49-6.67-3.34c-1.72,0.58-3.49,1.95-2.91,3.77c0.51,1.59,2.26,0.92,3.53,0.5
				c0.63-0.21,1.1-0.17,1.31,0.44c-0.39,0.03-0.78,0.14-1.13,0.26c-2.72,0.91-4.3,3.52-3.55,5.95c0.57,1.84,2.76,2.62,4.84,1.93
				c1.16-0.38,2.14-1.22,2.64-2.22c0.44,0.43,1.21,0.54,1.87,0.31c1.47-0.51,1.36-2.18,1.17-3.22
				C211.28,250.01,210.97,248.49,210.46,247.1z M205.95,253.04c-0.6,0.2-0.83-0.07-0.98-0.53c-0.14-0.43-0.18-0.99,0.43-1.2
				c0.54-0.18,0.77,0.15,0.9,0.55C206.45,252.3,206.57,252.83,205.95,253.04z"/>
			<path d="M218.66,244.93c0.83-0.34,1.22-1.32,0.92-2.02c-0.39-0.95-1.86-0.65-2.73-0.3c-0.15,0.06-0.39-0.41-0.43-0.5
				c-0.12-0.31-0.19-0.77,0.09-1.06c0.6-0.57,1.29-0.58,1.89-1.36c0.43-0.56,0.38-1.37,0.15-1.92c-0.59-1.41-2.26-0.92-3.47-0.43
				c-3.15,1.27-3.49,3.1-2.43,5.89c0.69,1.8-1.83,1.19-1.09,3.18c0.24,0.65,1,0.98,1.76,0.69c0.61-0.23,1.1,1.22,1.22,1.53
				c0.32,0.85,0.53,1.71,0.84,2.53c0.37,0.98,0.97,1.93,2.37,1.39c2.52-0.97,1.43-3.25,0.82-4.78c-0.26-0.64-0.54-1.27-0.79-1.92
				C217.48,245.12,218.03,245.18,218.66,244.93z"/>
		</g>
		<path d="M240.85,64.68c1.35-3.65,0.48-2.78,4.13-4.13c-3.65-1.35-2.78-0.48-4.13-4.13c-1.35,3.65-0.48,2.78-4.13,4.13
			C240.37,61.91,239.5,61.03,240.85,64.68z"/>
		<path d="M126.51,37.13c1.35-3.65,0.48-2.78,4.13-4.13c-3.65-1.35-2.78-0.48-4.13-4.13c-1.35,3.65-0.48,2.78-4.13,4.13
			C126.03,34.35,125.16,33.48,126.51,37.13z"/>
		<path d="M224.61,195.71c-0.43-2.43-1.58-4.67-2.94-6.74c-1.26-1.94-2.22-4.1-4.09-5.57c1.42-1.89,1.89-3.93,1.32-6.1
			c-0.37-1.4-1.05-2.72-1.58-4.08c-0.12-0.32-0.33-0.7-0.26-0.99c0.45-1.62,0.3-3.17-0.62-4.54c-1.21-1.8-2.49-3.55-3.83-5.26
			c-2.08-2.66-4.22-5.29-6.38-7.89c-1.27-1.53-2.55-3.06-4.36-4.02c-0.16-0.08-0.23-0.35-0.31-0.54c-0.27-0.59-0.41-1.27-0.8-1.76
			c-1.04-1.3-2.35-2.34-3.89-2.98c-2.14-0.9-4.32-1.73-6.53-2.44c-1.83-0.58-3.47-1.38-4.8-2.79c-0.77-0.81-1.5-1.66-2.3-2.45
			c-0.35-0.35-0.46-0.65-0.34-1.13c0.9-3.82,1.83-7.64,2.66-11.48c0.8-3.72,1.99-7.36,2.34-11.18c0.13-1.41,0.07-2.77-0.3-4.14
			c-0.41-1.56-0.74-3.14-1.08-4.62c1.07-0.39,2.03-0.69,2.93-1.11c0.36-0.17,0.71-0.58,0.83-0.96c0.65-2.05,1.2-4.12,1.82-6.18
			c0.35-1.15,0.24-1.63-0.73-2.36c-0.38-0.29-0.79-0.56-1.22-0.76c-1.48-0.67-2.94-1.38-4.46-1.94c-6.42-2.36-13.03-4.07-19.68-5.63
			c-1.55-0.37-3.11-0.71-4.7-1.08c0.03-0.42,0.08-0.78,0.09-1.14c0.05-1.55,0.19-3.11,0.1-4.65c-0.16-2.62-1.05-5.09-1.87-7.56
			c-1.22-3.66-2.53-7.29-3.78-10.94c-1.3-3.8-2.52-7.63-3.86-11.42c-1.48-4.19-2.69-8.5-5.06-12.33c-0.07-0.11-0.11-0.25-0.15-0.38
			c-0.19-0.63-0.6-0.81-1.25-0.76c-2.25,0.16-3.87,1.51-5.51,2.83c-0.48,0.38-0.41,0.94-0.21,1.46c0.59,1.54,1.19,3.07,1.78,4.6
			c1.26,3.26,2.69,6.46,3.73,9.79c1.78,5.68,4.14,11.13,6.37,16.62c1.44,3.55,2.07,7.18,1.92,10.97c-0.02,0.44-0.09,0.88-0.13,1.28
			c-3.84-0.59-7.58-1.21-11.33-1.74c-4.14-0.58-8.3-1.04-12.5-0.9c-0.81,0.03-1.63,0.2-2.43,0.38c-0.57,0.13-0.95,0.53-1.08,1.12
			c-0.47,2.21-0.94,4.42-1.42,6.63c-0.1,0.45,0.02,0.77,0.41,1.07c0.8,0.63,1.56,1.31,2.36,1.99c-0.55,1.41-1.5,2.56-2.52,3.68
			c-1.46,1.61-2.52,3.41-2.99,5.6c-3.09,14.47-6.25,28.93-9.39,43.4c-0.05,0.21-0.12,0.41-0.15,0.49c-1.15-0.43-2.22-0.88-3.32-1.21
			c-0.72-0.22-1.48-0.25-2.23-0.37c-2.14-0.36-4.27-0.79-6.42-1.05c-1.04-0.12-1.91-0.29-2.56-1.21c-0.25-0.35-0.7-0.58-1.1-0.8
			c-2.19-1.2-4.55-1.56-7.02-1.4c-1.02,0.06-2.05-0.06-3.07-0.12c-1.55-0.09-3.09-0.28-4.64-0.28c-1.2,0.01-2.02,0.71-2.46,1.87
			c-0.59,1.58-0.14,3.42,1.27,4.66c1.94,1.71,3.91,3.38,5.89,5.03c0.68,0.57,1.43,1.06,2.18,1.55c1.13,0.75,2.38,0.98,3.75,0.74
			c0.35,1.71,1.37,2.81,2.88,3.48c0.46,0.2,0.94,0.35,1.42,0.5c1.98,0.62,3.81,1.5,5.5,2.72c1.67,1.19,3.36,2.47,5.66,1.53
			c0.15,1.08,0.55,2.01,0.27,3.09c-0.58,2.23-1.01,4.5-1.5,6.76c-0.15,0.69-0.31,1.39-0.46,2.03c-0.89-0.5-1.67-1.02-2.52-1.4
			c-2.99-1.32-5.99-2.62-9.01-3.84c-0.96-0.39-2.01-0.58-3.05-0.72c-0.56-0.08-0.91-0.2-1.16-0.73c-0.96-2.1-2.64-3.27-4.86-3.86
			c-1.87-0.49-3.68-1.21-5.52-1.83c-1.04-0.35-2.06-0.79-3.12-1.01c-1.76-0.37-3.12,0.58-3.33,2.37c-0.27,2.27,0.12,4.42,1.65,6.25
			c0.73,0.88,1.55,1.7,2.19,2.64c1.9,2.82,4.71,4.31,7.71,5.58c0.23,0.1,0.43,0.39,0.55,0.64c0.44,0.9,0.74,1.87,1.26,2.71
			c0.91,1.46,2.11,2.68,3.38,3.85c1.48,1.35,2.79,2.89,4.19,4.34c1.94,2.02,4.29,2.78,7.05,2.26c0.28-0.05,0.56-0.1,0.91-0.17
			c-0.35,1.62-0.74,3.13-0.99,4.65c-0.33,1.94-1.16,3.8-0.93,5.84c0.17,1.58,0.54,3.05,1.54,4.32c0.04,0.05,0.04,0.12,0.07,0.23
			c-0.21,0.04-0.4,0.07-0.64,0.11c-0.43-1.86-1.58-2.98-3.36-3.49c-0.86-0.24-1.71-0.5-2.58-0.71c-0.86-0.21-1.41-0.72-1.9-1.45
			c-0.94-1.43-1.93-2.84-2.99-4.17c-0.9-1.13-2.04-1.97-3.6-2c-0.16,0-0.42-0.27-0.47-0.45c-0.77-2.63-2.49-4.4-4.88-5.63
			c-0.91-0.47-1.75-1.07-2.58-1.68c-1.44-1.07-2.98-1.83-4.82-1.95c-2.41-0.16-5.01,1.78-4.41,4.82c0.52,2.67,1.2,5.22,2.57,7.6
			c1.82,3.17,4.2,5.5,7.9,6.24c0.18,0.04,0.43,0.33,0.45,0.52c0.15,1.92,0.76,3.66,1.91,5.2c1.56,2.09,3.07,4.21,4.67,6.26
			c1.09,1.39,2.56,2.25,4.28,2.68c1.51,0.37,2.98,0.32,4.39-0.48c0.62,2.75,2.39,4.12,4.98,4.51c1.26,0.19,2.55,0.3,3.82,0.31
			c3.75,0.04,7.5-0.04,11.24,0.06c2.03,0.05,4.05,0.38,6.07,0.59c-0.01,0.05-0.02,0.09-0.03,0.14c-2.8,0.88-5.59,1.77-8.37,2.64
			c-1.65-0.88-3.24-2.07-5.25-2.23c-2.03-0.15-4.06-0.31-6.1-0.28c-2.45,0.03-4.74-0.45-6.96-1.49c-0.89-0.42-1.91-0.63-2.89-0.77
			c-1.2-0.17-2.28,0.24-2.84,1.35c-0.54,1.06-0.18,2.11,0.53,3c0.53,0.66,1.11,1.27,1.7,1.88c1.54,1.59,3.18,3.1,4.62,4.77
			c1.77,2.05,3.96,3.42,6.51,4.11c3.05,0.83,5.53,0.44,7.03-1.84c0.02-0.03,0.07-0.03,0.16-0.07c1.05,1.86,2.75,2.05,4.63,1.72
			c0.25-0.04,0.49-0.11,0.73-0.18c3.19-0.94,6.45-1.22,9.77-1.07c2.74,0.12,5.48,0.19,8.22,0.15c2.01-0.03,3.9-0.6,5.35-2.1
			c0.59-0.61,1.09-1.32,1.68-2.03c1,1.2,2.23,2.11,3.75,2.59c2.39,0.76,4.86,1.04,7.32,0.65c4.4-0.71,8.77-1.55,13.14-2.39
			c7.64-1.45,15.32-2.57,23.06-3.29c2.31-0.21,4.39-1.09,5.79-3.11c0.24-0.35,0.46-0.71,0.7-1.09c1.31,1.09,2.77,1.02,4.27,0.72
			c1.81-0.36,3.62-0.82,5.49-0.62c1.06,0.11,2.02,0.25,2.84,1.18c1.48,1.66,3.24,1.73,4.99,0.33c0.68-0.55,1.31-1.23,1.79-1.96
			c1.24-1.9,2.57-3.69,4.42-5.08c0.93-0.69,1.74-1.65,2.34-2.64c1.87-3.1,1.99-6.54,1.57-10.03c-0.06-0.52-0.05-0.88,0.4-1.24
			c0.33-0.26,0.56-0.66,0.78-1.03C224.98,200.24,225,197.93,224.61,195.71z M169.79,193.26c0.41-1.78,0.79-3.44,1.2-5.2
			c7.25,0.77,14.12,2.71,20.56,6.12C184.25,195.1,177.06,194.35,169.79,193.26z M199.56,175.43c-0.5,1.09-0.88,2.21-0.88,3.42
			c0,0.61,0.09,1.22,0.15,1.91c-1.02-0.14-1.97-0.29-2.93-0.4c-2.2-0.26-4.4-0.55-6.6-0.76c-3.51-0.32-6.79-1.4-9.93-2.93
			c-1.52-0.74-2.97-1.61-4.48-2.38c-0.5-0.26-0.61-0.53-0.48-1.07c1.35-5.76,2.68-11.52,4.02-17.28c0.45-1.95,0.91-3.91,1.36-5.86
			c0.07-0.04,0.14-0.08,0.21-0.11c0.54,0.6,1.11,1.19,1.61,1.82c0.67,0.84,1.25,1.75,1.95,2.56c0.67,0.77,1.54,1.19,2.62,1.09
			c0.29-0.03,0.64,0.09,0.89,0.26c3.51,2.29,6.56,5.06,8.57,8.79c0.97,1.8,1.73,3.71,1.96,5.81c0.18,1.66,0.73,3.2,1.93,4.45
			C199.64,174.87,199.64,175.24,199.56,175.43z"/>
	</g>
	<g>
		<path class="st0" d="M189.15,221.74c-2.18-0.4-4.34-0.9-6.5-1.37c-4.25-0.93-8.45-1.04-12.66,0.32c-3,0.97-6.09,1.46-9.24,1.38
			c-1.45-0.04-2.9-0.37-4.35-0.53c-2.98-0.32-5.93,0.11-8.88,0.48c-1.81,0.22-3.61,0.64-5.45,0.26c-0.11-0.02-0.33,0.08-0.37,0.19
			c-0.77,1.66-1.19,3.34-0.12,5.03c0.9,1.43,2.11,2.52,3.77,3.02c1.92,0.59,3.89,0.89,5.89,0.65c2.24-0.27,4.47-0.66,6.69-1.07
			c6.24-1.15,12.44-2.57,18.75-3.29c3.81-0.44,7.63-0.84,11.43-1.31c1.94-0.24,3.77-0.81,4.95-2.56c0.24-0.36,0.36-0.82,0.5-1.24
			c0.07-0.2,0.07-0.42,0.11-0.64c-0.08-0.02-0.15-0.04-0.23-0.06C192.12,221.87,190.65,222.01,189.15,221.74z"/>
		<path class="st0" d="M138.49,218.01c-2.6,3.36-5.85,5.01-9.98,4.48c-1.77-0.22-3.36,0.19-5.02,0.66
			c-2.97,0.84-5.95,1.61-8.81,2.79c-1.25,0.52-2.29,1.26-2.93,2.45c-0.74,1.38-0.43,2.7,0.41,3.93c0.76,1.11,1.87,0.94,2.98,0.76
			c0.18-0.03,0.36-0.08,0.53-0.13c3.71-1.08,7.5-1.31,11.34-1.06c2.1,0.14,4.2,0.19,6.3,0.17c1.94-0.02,3.84-0.32,5.3-1.83
			c0.94-0.98,1.66-2,1.06-3.46c-0.14-0.35-0.15-0.76-0.17-1.14c-0.07-1.45,0.33-2.8,1-4.11
			C139.28,220.68,138.73,219.48,138.49,218.01z"/>
		<path class="st0" d="M193.08,153.22c-1.82-0.02-3.53,0.27-5.08,1.39c0.17,0.13,0.29,0.22,0.42,0.31c3.26,2.25,6.21,4.81,8.22,8.3
			c1.12,1.95,1.95,4.02,2.34,6.25c0.16,0.92,0.34,1.85,0.65,2.72c0.44,1.22,1.31,2.2,2.62,2.36c1.35,0.16,2.75,0.13,4.1-0.01
			c1.81-0.19,3.62-0.51,5.4-0.88c0.97-0.2,1.9-0.6,2.83-0.96c0.91-0.35,1.25-1.11,1.19-2.03c-0.04-0.56-0.12-1.16-0.36-1.65
			c-0.47-0.94-0.98-1.87-1.62-2.69c-3.02-3.81-6.07-7.61-9.17-11.36c-1.05-1.27-2.14-2.57-3.78-3.24c-0.99,0.94-2.19,1.36-3.54,1.39
			C195.9,153.15,194.49,153.24,193.08,153.22z"/>
		<path class="st0" d="M180.29,147.95c-0.05,0.21,0.13,0.56,0.31,0.7c1.08,0.83,1.99,1.8,2.7,2.98c0.31,0.51,0.67,0.98,1.06,1.43
			c0.92,1.05,1.51,1.15,2.66,0.37c1.93-1.31,4.06-1.75,6.37-1.66c1.54,0.06,3.1-0.09,4.64-0.24c0.49-0.05,1.01-0.31,1.43-0.6
			c0.76-0.54,0.76-1.08,0.14-1.78c-0.95-1.07-2.05-1.99-3.37-2.53c-2.13-0.87-4.29-1.69-6.47-2.4c-1.86-0.61-3.54-1.42-4.95-2.81
			c-0.81-0.8-1.72-1.5-2.52-2.2C181.65,141.94,180.95,144.94,180.29,147.95z"/>
		<path class="st0" d="M144.5,168.31c0.59-0.92,1.3-1.73,1.57-2.84c0.41-1.71,1.09-3.31,2.66-4.33c-0.86-1.75-2.13-2.95-3.81-3.63
			c-2.02-0.81-4.16-1.2-6.32-0.89c-3.42,0.5-6.64,0.11-9.66-1.64c-0.95-0.55-1.92-1.06-2.88-1.6c-2.37-1.34-4.69-2.76-7.43-3.25
			c-2.73-0.49-5.27,0.65-6.84,2.91c-1.28,1.84-1.69,3.98-2.05,6.12c-0.18,1.06-0.08,2.15,0.43,3.15c0.85,1.66,2.05,2.99,3.83,3.65
			c1.43,0.53,2.9,0.96,4.37,1.37c3.34,0.93,6.72,1.74,9.88,3.24c1.46,0.7,2.74,1.61,3.86,2.8c0.89,0.94,1.86,1.84,2.92,2.58
			c2.24,1.55,4.24,1.75,6.57-0.17c0.22-0.18,0.39-0.56,0.38-0.85c-0.03-1.04-0.05-2.08,0.44-3.02
			C143.07,170.69,143.75,169.47,144.5,168.31z"/>
		<path class="st0" d="M208.34,195.92c0.13-0.32,0.3-0.62,0.47-0.92c1.26-2.25,1.75-4.69,1.89-7.23c0.05-0.84-0.28-1.45-1.04-1.84
			c-2.99-1.51-6.05-2.79-9.4-3.29c-2.8-0.42-5.59-0.92-8.39-1.28c-2.38-0.31-4.78-0.39-7.1-1.06c-6.37-1.84-11.98-5.17-17.25-9.08
			c-2.64-1.96-5.06-4.21-7.61-6.28c-1.94-1.57-4.1-2.76-6.61-3.15c-2.5-0.39-4.6,0.33-5.46,3.03c-0.16,0.5-0.28,1.02-0.49,1.5
			c-0.27,0.64-0.57,1.28-0.93,1.88c-0.76,1.24-1.62,2.43-2.34,3.7c-0.33,0.58-0.53,1.28-0.58,1.94c-0.2,3.02,1.02,5.51,3.09,7.63
			c0.14,0.14,0.31,0.27,0.49,0.35c0.79,0.34,1.58,0.65,2.37,0.98c1.39,0.57,2.74,1.29,4.18,1.67c4.57,1.18,9.28,1.55,13.97,1.89
			c3.45,0.25,6.88,0.52,10.25,1.29c6.98,1.61,13.65,3.9,19.28,8.58c1.81,1.51,3.92,2.52,6.64,2.58
			C205.68,198.78,207.47,198.12,208.34,195.92z"/>
		<path class="st0" d="M205.97,215.04c-0.19-0.13-0.38-0.26-0.58-0.36c-1.29-0.67-2.27-1.61-2.64-2.94
			c-0.81,0.35-1.52,0.82-2.29,0.95c-0.98,0.15-2,0-3,0.02c-0.36,0.01-0.79,0.05-1.08,0.24c-1.99,1.29-2.8,3.39-2.24,5.7
			c0.67,2.77,2.13,3.77,4.91,3.3c1.78-0.3,3.54-0.71,5.36-0.54c0.53,0.05,1.07,0.1,1.68,0.17c-0.24-1.39,0.33-2.53,0.77-3.7
			C207.4,216.43,207.23,215.93,205.97,215.04z"/>
		<path class="st0" d="M89.54,166.87c-0.78-1.84-1.75-2.64-3.61-3.23c-2.28-0.72-4.54-1.52-6.81-2.29
			c-0.65-0.22-1.29-0.48-1.95-0.65c-1-0.26-1.51,0.08-1.75,1.08c-0.05,0.22-0.1,0.45-0.1,0.68c0.04,1.75,0.42,3.38,1.66,4.73
			c0.84,0.93,1.67,1.89,2.38,2.92c1.59,2.29,3.95,3.44,6.44,4.57c0.06-0.77,0.09-1.46,0.18-2.14
			C86.33,170.13,86.74,167.74,89.54,166.87z"/>
		<path class="st0" d="M103.7,180.95c-0.12,0.49-0.24,0.98-0.35,1.47c-0.97,4.3,1.1,7.68,4.43,9.39c1.72,0.88,3.52,1.65,5.35,2.29
			c4.16,1.47,8.13,3.23,11.71,5.88c1.94,1.44,4.13,2.4,6.59,2.7c1.4,0.17,2.73,0.23,3.95-0.63c0.32-0.22,0.44-0.44,0.4-0.85
			c-0.08-0.86-0.15-1.73-0.1-2.59c0.14-2.19,1.07-3.95,2.88-5.28c1.09-0.81,2.07-1.79,3-2.8c0.37-0.4,0.59-1.04,0.66-1.61
			c0.16-1.24,0.18-2.49,0.27-3.85c-0.19-0.07-0.5-0.2-0.82-0.3c-1.59-0.49-3.16-0.27-4.74,0.05c-3.61,0.71-7.23,0.71-10.82-0.07
			c-3.04-0.65-5.61-2.27-8.05-4.13c-2.36-1.79-4.95-3.09-7.85-3.77C106.21,175.93,104.34,178.34,103.7,180.95z"/>
		<path class="st0" d="M133.94,220.17c1.79-0.89,2.94-2.42,4.22-3.84c0.08-0.08,0.09-0.25,0.08-0.38c-0.17-1.92,0.11-3.7,1.66-5.18
			c-1.48-0.98-2.85-1.96-4.3-2.81c-0.87-0.51-1.84-0.93-2.81-1.21c-3.51-0.99-7.08-0.63-10.63-0.35c-3.15,0.25-6.29,0.34-9.45,0.1
			c-2.78-0.21-5.56-0.43-8.34-0.47c-3.84-0.05-6.42,3.01-6.71,6.31c-0.08,0.87,0.11,1.76,0.16,2.64c0.14,2.37,1.56,3.99,3.92,4.19
			c2.25,0.19,4.52,0.32,6.77,0.26c4.65-0.13,9.27-0.01,13.88,0.71c2.57,0.4,5.16,0.68,7.75,0.93
			C131.47,221.2,132.72,220.77,133.94,220.17z"/>
		<path class="st0" d="M105.68,175.82c0.47-0.27,0.49-1.33,0.06-1.68c-0.56-0.46-1.13-0.96-1.78-1.25
			c-3.26-1.45-6.53-2.85-9.82-4.21c-0.7-0.29-1.5-0.51-2.25-0.51c-2.58-0.02-3.61,0.54-4.18,3.14c-0.13,0.58-0.24,1.17-0.28,1.76
			c-0.11,1.67-0.3,3.4,0.69,4.86c0.89,1.31,1.95,2.52,3.03,3.69c1.39,1.52,2.85,2.95,4.29,4.42c0.45,0.46,0.88,0.93,1.37,1.34
			c1.67,1.36,3.55,1.51,5.63,0.96c-1-1.97-0.9-3.99-0.56-6.01C102.31,179.67,103.14,177.25,105.68,175.82z"/>
		<path class="st0" d="M109.26,223.77c-2.12-0.31-4.28-0.41-6.42-0.39c-2.64,0.02-5.12-0.44-7.5-1.59c-0.76-0.37-1.65-0.55-2.5-0.64
			c-0.42-0.05-1.11,0.2-1.27,0.52c-0.17,0.33,0.03,0.99,0.28,1.36c0.46,0.67,1.07,1.25,1.64,1.84c1.52,1.57,3.14,3.06,4.57,4.72
			c1.63,1.89,3.67,3.07,5.98,3.82c1.18,0.39,2.47,0.5,3.64,0.05c0.67-0.26,1.23-0.88,1.77-1.41c0.45-0.44,0.56-1.01,0.45-1.69
			c-0.2-1.15,0.13-2.24,0.84-3.16c0.54-0.69,1.19-1.31,1.89-2.07C111.51,224.64,110.42,223.94,109.26,223.77z"/>
		<path class="st0" d="M85.34,193.56c0.14-0.08,0.23-0.42,0.18-0.59c-0.51-1.85-1.63-3.23-3.26-4.23c-1.38-0.85-2.74-1.73-4.08-2.63
			c-1.16-0.78-2.4-1.34-3.82-1.32c-1.82,0.02-2.89,1.37-2.53,3.15c0.11,0.51,0.22,1.03,0.29,1.55c0.39,2.95,1.88,5.41,3.55,7.76
			c0.53,0.75,1.29,1.36,2.02,1.94c1.05,0.83,2.31,1.23,3.62,1.49c0.26-0.94,0.45-1.83,0.76-2.69
			C82.71,196.19,83.65,194.6,85.34,193.56z"/>
		<path class="st0" d="M100.46,205.28c-0.22-1.3-1.07-2.18-2.47-2.54c-0.55-0.14-1.1-0.34-1.66-0.44c-1.82-0.32-3.02-1.35-3.96-2.94
			c-0.86-1.44-1.93-2.79-3.1-3.99c-1.3-1.34-3.11-1.05-4.3,0.4c-1.08,1.31-1.64,2.83-2,4.46c-0.51,2.33-0.16,4.49,1.26,6.44
			c1.6,2.17,3.18,4.36,4.83,6.49c0.91,1.17,2.19,1.86,3.64,2.17c0.95,0.21,1.9,0.22,2.81-0.23c0.48-0.24,0.71-0.51,0.64-1.12
			c-0.27-2.38,0.33-4.55,1.9-6.38C98.78,206.78,99.63,206.09,100.46,205.28z"/>
		<path class="st0" d="M97.4,142.8c-0.37-0.32-0.63-0.6-0.95-0.8c-1.78-1.11-3.74-1.48-5.82-1.47c-1.5,0.01-3-0.08-4.5-0.16
			c-1.25-0.06-2.5-0.26-3.74-0.22c-1.03,0.03-1.46,0.65-1.49,1.68c-0.04,1.2,0.64,2,1.49,2.71c1.35,1.13,2.67,2.28,4.03,3.4
			c1.11,0.92,2.19,1.87,3.38,2.66c0.59,0.39,1.39,0.51,2.11,0.64c0.46,0.08,0.69-0.19,0.82-0.74c0.39-1.63,0.82-3.27,1.43-4.83
			C94.71,144.28,95.99,143.51,97.4,142.8z"/>
		<path class="st0" d="M113.21,149.73c0.33-0.19,0.65-0.41,1.01-0.65c-0.15-0.23-0.24-0.5-0.43-0.64c-1.15-0.88-2.25-1.88-3.52-2.56
			c-0.89-0.48-2-0.6-3.03-0.79c-2.24-0.41-4.5-0.77-6.75-1.15c-2.11-0.35-4.39,0.78-5.15,2.67c-0.48,1.18-0.86,2.42-1.09,3.66
			c-0.48,2.63,0.42,3.88,2.94,4.75c1.65,0.57,3.26,1.31,4.82,2.1c0.97,0.49,1.79,1.26,2.73,1.83c0.54,0.32,1.15,0.59,1.76,0.7
			c0.98,0.18,1.65-0.38,1.85-1.34c0.18-0.85,0.37-1.7,0.6-2.53C109.65,153.27,110.86,151.1,113.21,149.73z"/>
		<path class="st0" d="M194.87,212.19c-0.37-0.1-0.63-0.19-0.89-0.24c-4.04-0.88-8.07-1.77-12.12-2.62
			c-2.74-0.57-5.43-1.58-8.32-1.11c-0.92,0.15-1.87,0.12-2.8,0.25c-2.8,0.39-5.59,0.92-8.41,1.19c-2.77,0.26-5.56,0.31-8.34,0.37
			c-2.72,0.06-5.44,0-8.15,0c-1.77,0-3.37,0.5-4.74,1.67c-0.74,0.64-1.21,1.41-1.35,2.39c-0.23,1.62,0.06,3.19,0.48,4.74
			c0.29,1.07,1.11,1.75,2.18,1.98c0.77,0.16,1.6,0.18,2.38,0.1c2.36-0.23,4.71-0.64,7.08-0.8c1.79-0.12,3.65-0.22,5.39,0.11
			c3.36,0.62,6.65,0.36,9.93-0.32c1.76-0.37,3.47-1.03,5.23-1.35c3.65-0.65,7.28-0.39,10.88,0.45c2.02,0.47,4.04,0.96,6.08,1.37
			c1.01,0.2,2.06,0.2,3-0.34c0.19-0.11,0.42-0.46,0.38-0.64C192.14,216.63,192.52,214.2,194.87,212.19z"/>
		<path class="st0" d="M220.65,204.4c-1.44,0.08-2.66-0.45-3.69-1.38c-0.99-0.89-2.15-1.26-3.43-1.37
			c-0.32-0.03-0.64-0.07-0.95-0.11c-1.69-0.19-2.78-1.16-3.48-2.65c-0.1-0.22-0.18-0.45-0.24-0.61c-0.73,0.48-1.39,1.02-2.14,1.36
			c-0.75,0.35-1.6,0.5-2.38,0.73c0.04,0.71,0.07,1.43,0.11,2.16c0.05,0.98,0.08,1.96,0.14,2.94c0.08,1.33,0.09,2.67-0.44,3.91
			c-0.28,0.66-0.28,1.27-0.07,1.92c0.3,0.93,0.97,1.48,1.77,2c0.81,0.53,1.59,1.14,2.27,1.83c0.64,0.64,0.74,1.5,0.44,2.37
			c-0.26,0.75-0.55,1.5-0.81,2.25c-0.43,1.22,0.01,2.65,1.04,3.43c0.96,0.74,1.77,0.82,2.66,0c0.81-0.74,1.56-1.61,2.15-2.54
			c1.02-1.63,2.22-3.04,3.76-4.21c1.11-0.84,2.11-1.82,2.71-3.13c1.27-2.73,1.41-5.59,1.06-8.52
			C221.1,204.65,220.81,204.39,220.65,204.4z"/>
		<path class="st0" d="M200.94,175.95c-0.84,1.36-1.06,2.9-0.75,4.53c0.09,0.45,0.29,0.69,0.79,0.79c1.07,0.21,2.15,0.44,3.19,0.77
			c2.55,0.79,5.03,1.77,7.23,3.35c0.13,0.09,0.34,0.13,0.49,0.1c2.55-0.54,4.17-2.22,5.38-4.39c0.06-0.12,0.07-0.26,0.11-0.39
			c0.76-2.57-0.44-4.71-1.4-6.83C211.03,175.71,206.1,176.46,200.94,175.95z"/>
		<path class="st0" d="M201.28,210.75c1.2-1.05,1.94-2.37,1.9-4.02c-0.03-1.18-0.11-2.37-0.17-3.55c0.05,0,0.09-0.01,0.14-0.01
			c-0.07-0.79-0.14-1.59-0.2-2.38c-0.03-0.38-0.2-0.54-0.59-0.59c-1.85-0.24-3.51-0.99-5.04-2.02c-1.06-0.72-2.04-1.54-3.1-2.27
			c-0.27-0.18-0.67-0.27-1-0.25c-2.67,0.14-5.34,0.52-8,0.45c-3.88-0.1-7.76-0.38-11.62-0.8c-6.04-0.67-11.65-2.6-16.66-6.16
			c-2.46-1.75-4.92-3.51-7.73-4.67c-0.82-0.34-1.66-0.65-2.52-0.85c-1.29-0.3-2.05,0.11-2.39,1.38c-0.29,1.07-0.47,2.19-0.51,3.29
			c-0.05,1.45-0.41,2.71-1.5,3.69c-1.06,0.97-2.15,1.9-3.21,2.87c-0.38,0.35-0.75,0.74-1.05,1.16c-0.71,0.99-0.87,2.16-0.9,3.33
			c-0.05,2.09,0.46,4.07,2.01,5.51c2.33,2.16,5.06,2.93,8.17,1.77c1.71-0.64,3.41-1.28,5.28-1.37c2.42-0.12,4.84-0.6,7.24-0.48
			c3.94,0.2,7.87,0.69,11.8,1.17c7.5,0.91,14.75,3.07,22.17,4.43c1.55,0.29,3.08,0.68,4.63,0.93
			C199.4,211.46,200.46,211.48,201.28,210.75z"/>
		<path class="st0" d="M222.86,194.89c-0.97-3-2.7-5.63-4.41-8.25c-0.53-0.8-1.23-1.49-1.9-2.29c-1.29,1.34-2.7,2.19-4.4,2.48
			c0.03,3.01-0.46,5.83-1.81,8.48c-0.23,0.44-0.39,0.99-0.37,1.48c0.1,1.64,1.11,3.29,2.95,3.36c1.96,0.07,3.8,0.51,5.27,1.95
			c0.18,0.17,0.41,0.29,0.63,0.42c1.48,0.81,3.03,0.37,3.74-1.15C223.56,199.27,223.56,197.04,222.86,194.89z"/>
	</g>
	<g>
		<path class="st1" d="M158.23,129.38c-2.04-0.48-6.45-1.5-8.5-1.97c-0.11-0.06-0.25-0.11-0.42-0.16
			c-7.04-1.82-13.98-3.97-20.65-6.87c-2.82-1.22-5.55-2.66-8.36-4.01c-0.02,0.07-0.07,0.22-0.1,0.37
			c-1.18,5.44-2.36,10.89-3.54,16.33c-0.91,4.2-1.81,8.39-2.74,12.58c-0.11,0.48,0,0.79,0.36,1.13c0.46,0.43,0.88,0.94,1.19,1.48
			c0.21,0.36,0.4,0.39,0.75,0.37c0.77-0.04,1.56-0.12,2.32-0.02c2.11,0.28,4.05,1.08,5.9,2.11c1.94,1.08,3.87,2.16,5.82,3.21
			c2.35,1.27,4.84,1.61,7.5,1.28c3.51-0.43,7.02,0.08,9.99,2.25c0.04,0.03,1.85,1.81,2.33,2.84c1.19,0,3.16-0.28,5.55,0.49
			c2.57,0.83,4.68,2.44,6.73,4.15c2.39,1.99,4.77,3.99,7.2,5.93c1.04,0.83,2.2,1.5,3.38,2.28c3.25-14.05,6.46-27.96,9.69-41.89
			C174.3,132.4,166.31,130.78,158.23,129.38z"/>
		<g>
			<path class="st1" d="M108.94,175.2c0.43,0.05,0.86,0.09,1.29,0.17c2.85,0.55,5.41,1.78,7.78,3.41c1.15,0.79,2.25,1.64,3.43,2.39
				c4.28,2.75,9.01,3.06,13.87,2.39c2.62-0.36,5.22-1.05,7.6,0.05c0.82-0.62,1.51-1.13,2.22-1.66c-1.22-1.37-2.26-2.98-2.81-4.94
				c-0.26,0.15-0.47,0.24-0.64,0.37c-2.18,1.64-4.47,1.5-6.68,0.23c-1.29-0.74-2.54-1.69-3.53-2.79c-1.57-1.75-3.44-2.94-5.62-3.65
				c-3.28-1.06-6.58-2.04-9.9-2.98c-2.33-0.66-4.49-1.54-6.13-3.65c-0.69,3.17-1.35,6.18-1.98,9.19
				C107.68,174.48,108.2,175.11,108.94,175.2z"/>
			<path class="st1" d="M105.65,204.55c1.8-0.05,3.6,0.14,5.4,0.32c3.31,0.33,6.61,0.42,9.92,0.15c3.12-0.26,6.24-0.59,9.37-0.23
				c2.31,0.27,4.54,0.74,6.49,2.15c1.4,1.01,2.87,1.92,4.24,2.83c0.94-0.4,1.83-0.78,2.66-1.13c-3.3-0.61-6.07-2.1-7.46-5.5
				c-0.36,0.19-0.66,0.42-1,0.52c-0.78,0.23-1.58,0.55-2.37,0.54c-3.22-0.02-6.2-0.98-8.77-2.89c-3.57-2.65-7.55-4.4-11.7-5.87
				c-2.96-1.05-5.94-2.14-8.35-4.55c-0.61,2.97-1.27,5.8-1.75,8.65c-0.23,1.36,0.26,2.67,1.06,3.81
				C103.92,204.13,104.56,204.57,105.65,204.55z"/>
			<path class="st1" d="M169.44,188.08c-4.55-0.49-8.99-0.96-13.39-1.43c3.64,2.88,7.71,4.98,12.32,6.12
				C168.74,191.14,169.1,189.59,169.44,188.08z"/>
		</g>
		<path class="st1" d="M159.36,206.22c-2.19,0.04-4.37,0.33-6.55,0.52c-0.37,0.03-0.63,0.06-0.83,0.1c0,0,0-0.01,0-0.01
			c-1.77,0.22-4.23,1.21-5.45,1.63c0.79,0,3.87,0.01,5.22,0.01c0.04,0,0.08,0.01,0.12,0.01c4.03,0.34,8.03-0.04,12.04-0.42
			c1.02-0.1,1.09-0.21,1.18-1.53C163.18,206.41,161.27,206.18,159.36,206.22z"/>
	</g>
	<g>
		<path class="st2" d="M161.11,105.73c2.55,0.41,5.09,0.84,7.64,1.2c3.43,0.48,6.85,1.05,10.35,0.73c1.92-0.18,3.15-1.22,4.31-2.47
			c-18.47-1.19-36.3-5.15-53.57-11.95c0.5,2.12,1.65,3.76,3.71,4.65c4.43,1.93,9.13,3.05,13.76,4.36c3.99,1.14,8.05,2.06,12.07,3.08
			C159.96,105.48,160.53,105.63,161.11,105.73z"/>
		<path class="st2" d="M145.68,97.09c8.59,2.41,17.29,4.3,26.13,5.51c4.24,0.58,8.49,1.07,12.77,0.92c1.04-0.04,2.09-0.2,3.11-0.44
			c0.46-0.11,1.1-0.44,1.24-0.82c0.55-1.52,0.93-3.09,1.41-4.73c-0.2-0.01-0.29-0.03-0.38-0.02c-4.5,0.38-8.95-0.14-13.4-0.72
			c-7.46-0.98-14.83-2.42-22.17-4.07c-6.91-1.55-13.78-3.28-20.46-5.65c-2.25-0.8-4.42-1.81-6.65-2.73
			c-0.29,1.32-0.63,2.79-0.93,4.27c-0.04,0.19,0.12,0.47,0.27,0.63c1.27,1.31,2.9,2.06,4.51,2.81
			C135.82,94.17,140.73,95.7,145.68,97.09z"/>
		<path class="st2" d="M145.01,88.85c12.29,3.25,24.73,5.77,37.38,7.06c2.4,0.24,4.83,0.16,7.25,0.2c0.34,0.01,0.68-0.14,1.01-0.22
			c0.02-0.1,0.04-0.19,0.06-0.29c-1.26-0.61-2.5-1.3-3.79-1.82c-5.33-2.15-10.87-3.64-16.43-5.04c-3.05-0.77-6.13-1.46-9.33-2.22
			c-0.14,1.07-0.23,2.02-0.41,2.95c-0.06,0.33-0.28,0.81-0.55,0.91c-2.37,0.93-4.52,0.22-6.53-1.07c-0.26-0.17-0.45-0.64-0.45-0.98
			c-0.02-0.86,0.05-1.74,0.13-2.6c0.06-0.55-0.05-0.8-0.67-0.9c-4.56-0.68-9.11-1.5-13.68-2.09c-2.83-0.36-5.69-0.44-8.54-0.57
			c-0.86-0.04-1.74,0.17-2.61,0.26c-0.02,0.09-0.03,0.18-0.05,0.27c0.57,0.32,1.11,0.67,1.7,0.95
			C134.48,85.99,139.74,87.45,145.01,88.85z"/>
	</g>
	<g>
		<path class="st3" d="M155.05,82.56c-0.12,1.78-0.25,3.56-0.36,5.34c-0.01,0.21,0.07,0.55,0.22,0.62c1.18,0.59,2.41,0.97,3.76,0.88
			c0.45-0.03,0.68-0.22,0.72-0.71c0.14-1.52,0.41-3.04,0.5-4.56c0.1-1.77,0.35-3.61,0.04-5.33c-0.47-2.61-1.28-5.18-2.1-7.71
			c-1.48-4.56-3.09-9.08-4.64-13.61c-1.2-3.52-2.38-7.05-3.6-10.57c-1.14-3.28-2.26-6.57-4.15-9.57c-1.73,0.03-2.89,1.18-4.17,2.07
			c-0.09,0.06-0.13,0.33-0.08,0.46c0.57,1.45,1.16,2.88,1.73,4.32c1.3,3.29,2.77,6.53,3.83,9.9c1.71,5.46,3.96,10.71,6.12,15.98
			C154.53,74.12,155.35,78.22,155.05,82.56z"/>
		<path class="st3" d="M152.07,126.4c1.38,0.37,2.78,0.68,4.26,1.02c0.02-0.31,0.04-0.53,0.06-0.75c0.26-3.21,0.52-6.42,0.77-9.63
			c0.26-3.37,0.53-6.74,0.77-10.11c0.01-0.17-0.12-0.47-0.25-0.51c-1.4-0.39-2.81-0.73-4.32-1.11c-0.09,1.11-0.17,2.08-0.25,3.06
			c-0.31,3.92-0.61,7.83-0.92,11.75c-0.15,1.89-0.31,3.78-0.43,5.67C151.76,125.99,151.92,126.36,152.07,126.4z"/>
	</g>
	<g>
		<path class="st0" d="M183.62,106.97c-1.12,1.09-2.36,1.9-3.98,2.08c-1.94,0.22-3.85,0.29-5.8,0c-3.41-0.51-6.84-0.88-10.25-1.36
			c-1.37-0.19-2.73-0.49-4.15-0.75c-0.19,2.38-0.38,4.7-0.56,7.03c-0.34,4.37-0.67,8.75-1.04,13.12c-0.04,0.5,0.06,0.68,0.57,0.76
			c4.17,0.65,8.33,1.44,12.52,1.95c3.99,0.49,8.02,0.69,12.05-0.17c0.78-3.38,1.59-6.78,2.35-10.19c0.45-2.03,0.94-4.05,1.23-6.11
			c0.38-2.69-1.1-5.08-1.35-7.88C184.57,106.06,184.09,106.51,183.62,106.97z"/>
		<path class="st0" d="M121.17,114.92c1.51,0.81,2.96,1.72,4.5,2.47c5.9,2.89,12.1,5,18.39,6.86c2.01,0.6,4.04,1.14,6.19,1.74
			c0.08-0.93,0.15-1.72,0.22-2.51c0.45-5.81,0.91-11.61,1.35-17.42c0.1-1.31,0.26-1.05-0.99-1.4c-3.79-1.03-7.6-1.96-11.37-3.05
			c-2.03-0.59-3.98-1.46-5.98-2.17c-2.12-0.76-3.6-2.18-4.52-4.22c-0.22-0.49-0.39-1-0.55-1.43c-0.97,1.14-1.96,2.27-2.92,3.43
			c-0.99,1.18-1.68,2.45-1.98,4.04c-0.8,4.26-1.79,8.49-2.73,12.72C120.66,114.44,120.75,114.7,121.17,114.92z"/>
	</g>
	<g>
		<path class="st0" d="M86.93,109.44c-0.41-0.84-0.78-1.61-1.06-2.18c-1.26,0-2.42,0.03-3.58-0.02c-0.42-0.02-0.86-0.15-1.22-0.36
			c-0.18-0.11-0.31-0.52-0.26-0.75c0.04-0.18,0.38-0.34,0.61-0.41c0.18-0.05,0.4,0.08,0.6,0.08c1.09-0.01,2.18-0.02,3.26-0.06
			c0.18-0.01,0.43-0.13,0.52-0.27c0.3-0.52,0.55-1.08,0.87-1.74c-0.66-0.53-1.32-1.09-2.02-1.6c-0.46-0.34-1.01-0.55-1.44-0.92
			c-0.2-0.17-0.37-0.65-0.27-0.85c0.1-0.21,0.54-0.31,0.84-0.33c0.22-0.01,0.47,0.17,0.67,0.32c1.05,0.75,2.09,1.51,3.07,2.21
			c0.72-0.49,1.47-1,2.35-1.6c-0.69-1.97-1.68-3.9-3.26-5.37c-1.33-1.24-2.89-2.24-4.87-2.24c-2.91,0-5.58,0.71-8.06,2.26
			c-2.47,1.54-3.26,3.8-3.14,6.54c0.19,4.21,4.09,7.64,7.44,8.96c2.62,1.03,5.03,0.23,7.41-0.8
			C85.95,110.07,86.44,109.73,86.93,109.44z"/>
		<path class="st0" d="M107.93,120.37c2.4-0.22,4.4-1.31,6.16-2.88c0.89-0.79,1.57-1.8,1.66-3c0.11-1.44,0.11-2.91-0.03-4.36
			c-0.39-4.07-4.23-7.38-8.42-7.09c-1.08,0.08-2.28,0.08-3.2,0.54c-1.54,0.77-2.94,1.83-4.68,2.2c-0.17,0.03-0.28,0.31-0.46,0.51
			c1.37,0.17,2.57,0.32,3.77,0.47c0.49,0.06,0.94,0.24,0.82,0.85c-0.11,0.58-0.59,0.57-1.03,0.51c-0.88-0.11-1.76-0.28-2.65-0.37
			c-0.46-0.05-0.95-0.12-1.19,0.5c-0.45,1.13-0.47,1.25,0.21,1.79c0.61,0.48,1.25,0.92,1.88,1.38c0.35,0.25,0.58,0.56,0.32,0.99
			c-0.26,0.41-0.65,0.38-1.03,0.18c-0.24-0.12-0.47-0.28-0.69-0.44c-0.58-0.44-1.15-0.89-1.72-1.33c-0.54,0.34-0.61,0.78-0.34,1.29
			c0.43,0.81,0.77,1.68,1.32,2.39c1.73,2.23,3.87,3.99,6.38,5.31C105.92,120.29,106.91,120.46,107.93,120.37z"/>
		<path class="st0" d="M95.87,112.64c-0.02-0.03-0.07-0.05-0.1-0.08c-0.34,0.14-0.66,0.34-1.01,0.41c-0.47,0.1-0.51,0.36-0.54,0.77
			c-0.07,0.86-0.19,1.72-0.36,2.57c-0.1,0.51-0.44,0.92-1.03,0.7c-0.55-0.2-0.39-0.65-0.3-1.1c0.18-0.85,0.28-1.72,0.41-2.5
			c-1.11-0.4-2.03-0.73-3.04-1.1c-0.1,0.28-0.27,0.58-0.33,0.9c-0.2,1.05-0.36,2.11-0.54,3.17c-0.08,0.45-0.36,0.77-0.79,0.62
			c-0.26-0.09-0.59-0.53-0.56-0.77c0.19-1.33,0.41-2.66,0.76-3.96c0.26-0.95,0.35-0.93-0.49-1.55c-1.32,0.69-2.36,1.69-3.34,2.79
			c-2.37,2.65-3.45,5.78-3.38,9.29c0.07,3.49,1.78,5.93,4.82,7.02c1.75,0.63,3.57,0.96,5.44,0.9c2.65-0.09,4.68-1.31,5.93-3.58
			c0.74-1.36,1.2-2.9,1.6-4.41c0.57-2.11,0.34-4.14-0.87-6.05C97.3,115.38,96.62,113.99,95.87,112.64z"/>
		<path class="st0" d="M90.89,99.29c0.65,1.4,0.56,1.42,2.09,1.4c0.53-0.01,0.64-0.19,0.71-0.71c0.15-1.22,0.41-2.42,0.71-3.61
			c0.06-0.24,0.52-0.38,0.79-0.56c0.16,0.29,0.39,0.56,0.47,0.88c0.05,0.21-0.1,0.48-0.16,0.73c-0.14,0.67-0.32,1.33-0.42,2.01
			c-0.19,1.31-0.16,1.34,1.03,1.84c0.08,0.04,0.18,0.06,0.25,0.12c0.62,0.48,1.03,0.23,1.35-0.38c0.51-0.97,1.03-1.93,1.56-2.89
			c0.22-0.4,0.52-0.77,1.03-0.55c0.54,0.23,0.43,0.71,0.22,1.11c-0.49,0.98-0.89,2.05-1.58,2.87c-0.81,0.97-0.92,1.78-0.17,2.75
			c0.01,0.02,0.04,0.03,0.1,0.08c2.27-0.44,4.08-1.73,5.77-3.17c0.76-0.64,1.52-1.37,2-2.22c1.55-2.73,1.74-5.63,0.71-8.6
			c-1.47-4.24-6.94-7.49-11.59-5.38c-1.13,0.52-2.32,1.05-3.26,1.84c-2.35,1.97-3.82,4.36-3.15,7.67
			C89.69,96.17,90.18,97.74,90.89,99.29z"/>
	</g>
	<g>
		<g>
			<path class="st4" d="M84.24,33.74c0.12-0.23,0.58-0.29,0.88-0.43c0.12,0.31,0.36,0.63,0.34,0.93c-0.03,0.36-0.27,0.71-0.43,1.07
				c-0.35,0.77-0.78,1.51-1.06,2.3c-0.46,1.28-0.62,2.69,0.01,3.87c0.67,1.24,1.73,2.28,2.7,3.5c0.13-0.36,0.18-0.56,0.27-0.74
				c0.62-1.24,1.23-2.49,1.87-3.72c0.22-0.42,0.64-0.65,1.01-0.33c0.21,0.18,0.24,0.69,0.18,1.01c-0.07,0.34-0.38,0.62-0.52,0.95
				c-0.5,1.12-1,2.24-1.46,3.38c-0.18,0.45-0.06,0.87,0.3,1.25c0.77,0.81,1.49,1.67,2.23,2.51c1.98,2.22,3.94,4.45,5.02,7.29
				c0.13,0.33,0.27,0.65,0.41,0.98c0.07,0.01,0.14,0.02,0.21,0.04c0.23-0.74,0.45-1.5,0.71-2.23c0.15-0.42,0.03-0.71-0.21-1.06
				c-1.25-1.83-2.54-3.63-3.67-5.53c-2.09-3.53-2.07-7.1,0.06-10.64c0.2-0.33,0.39-0.65,0.58-0.98c-0.09,0.06-0.18,0.13-0.26,0.19
				c-0.68-0.8-1.28-1.7-2.06-2.38c-2.05-1.79-4.45-2.65-7.2-2.27c-1.99,0.27-3.96,0.37-5.9-0.26c-0.36-0.12-0.72-0.24-1.14-0.38
				c1.46,2.65,3.26,4.95,5.11,7.22C82.27,37.15,83.32,35.46,84.24,33.74z"/>
			<path class="st4" d="M94.55,48.4c1.6,2.49,3.31,4.91,5,7.41c0.05-0.12,0.1-0.2,0.11-0.27c0.5-2.51,1.01-5.01,1.48-7.52
				c0.03-0.17-0.13-0.5-0.29-0.58c-0.88-0.42-1.77-0.79-2.67-1.16c-0.29-0.12-0.67-0.1-0.9-0.28c-0.21-0.16-0.43-0.54-0.38-0.76
				c0.04-0.21,0.42-0.38,0.68-0.49c0.14-0.06,0.36,0.02,0.53,0.07c1.11,0.36,2.22,0.74,3.35,1.12c-0.01,0.03,0.02-0.03,0.03-0.09
				c0.38-2.57,0.35-5.15,0.1-7.73c-0.05-0.55-0.37-1.13-0.71-1.59c-0.8-1.1-1.69-2.14-2.53-3.22c-0.3-0.39-0.5-0.85-0.02-1.2
				c0.5-0.36,0.82,0.02,1.11,0.42c0.51,0.71,1.04,1.41,1.56,2.13c0-1.71-0.1-3.38,0.03-5.02c0.13-1.67,0.47-3.33,0.72-5
				c-1.14,0.82-2.26,1.72-2.86,3.04c-0.62,1.37-1.2,2.77-1.58,4.22c-0.62,2.35-1.32,4.62-2.73,6.67
				C92.39,41.79,92.45,45.14,94.55,48.4z"/>
			<path class="st4" d="M108.01,47.69c-0.22,0.07-0.43,0.15-0.65,0.22c-1.9,0.58-3.54,1.57-4.91,3.01
				c-0.17,0.17-0.34,0.39-0.39,0.62c-0.41,1.84-0.79,3.7-1.19,5.6c1.26-1.15,2.35-2.31,3.61-3.24c2.98-2.21,5.31-4.96,7.02-8.21
				c1.29-2.46,1.75-5.11,0.83-7.83c-0.58-1.73-1.23-3.45-2.03-5.08c-0.64-1.31-1.53-2.48-3.01-3.04c-1.15-0.44-1.96-1.29-2.54-2.39
				c-0.39-0.74-0.88-1.43-1.37-2.2c-0.08,0.23-0.14,0.38-0.18,0.53c-0.75,2.77-0.94,5.57-0.57,8.42c0.26,2,0.46,4.02,0.68,5.92
				c0.37-0.32,0.79-0.7,1.22-1.05c0.83-0.68,1.64-1.38,2.52-2c0.2-0.14,0.74-0.07,0.95,0.11c0.35,0.3,0.19,0.72-0.13,1.01
				c-0.22,0.2-0.49,0.34-0.71,0.53c-0.98,0.89-1.97,1.76-2.91,2.69c-0.69,0.69-0.96,1.58-1.04,2.55c-0.09,1.09-0.23,2.18-0.37,3.27
				c-0.07,0.55-0.16,1.1-0.26,1.77c0.22-0.16,0.33-0.23,0.44-0.31c1.36-1.1,2.93-1.75,4.57-2.27c0.45-0.14,0.96-0.2,1.14,0.39
				C108.88,47.28,108.49,47.53,108.01,47.69z"/>
			<path class="st4" d="M77.19,43.96c-0.41,1.26-0.16,2.32,0.52,3.37c0.69,1.06,1.69,1.71,2.81,2.21c1.25,0.56,1.91,1.5,1.97,2.88
				c0.01,0.34,0.08,0.68,0.09,1.02c0.06,1.59,0.83,2.64,2.29,3.26c2.06,0.88,4.2,1.36,6.44,1.47c1.07,0.05,2.13,0.12,3.39,0.19
				c-0.36-0.82-0.72-1.48-0.94-2.19c-0.29-0.93-0.93-1.41-1.77-1.77c-1.77-0.74-3.52-1.53-5.29-2.26c-0.74-0.3-1.5-0.55-2.27-0.76
				c-0.47-0.13-0.98-0.2-0.87-0.81c0.11-0.65,0.67-0.65,1.14-0.49c1.36,0.45,2.71,0.94,4.05,1.44c0.8,0.3,1.59,0.63,2.38,0.95
				c-0.35-0.67-0.77-1.2-1.22-1.71c-1.88-2.15-3.77-4.29-5.67-6.42c-0.15-0.17-0.4-0.32-0.61-0.33c-1.09-0.06-2.19-0.08-3.28-0.11
				c-0.2,0-0.45,0.09-0.61,0.01c-0.27-0.14-0.66-0.36-0.69-0.59c-0.03-0.21,0.32-0.52,0.56-0.7c0.14-0.11,0.4-0.06,0.6-0.07
				c0.79-0.04,1.59-0.08,2.43-0.12c-1.23-1.67-2.47-3.28-3.64-4.93c-1.16-1.65-2.25-3.34-3.46-5.14c-0.38,1.59-0.53,3.04,0.46,4.25
				C77.86,38.85,78.05,41.33,77.19,43.96z"/>
			<path class="st4" d="M113.45,68.41c-0.09-0.07-0.17-0.16-0.26-0.22c-0.79-0.53-1.56-1.1-2.39-1.57
				c-1.13-0.64-2.33-0.61-3.49-0.07c-1.16,0.54-2.29,1.13-3.43,1.71c-0.25,0.13-0.49,0.3-0.87,0.53c0.52,0.64,0.92,1.26,1.44,1.75
				c0.93,0.88,1.89,1.73,2.89,2.52c1.82,1.43,3.7,2.79,6.14,2.93c0.82,0.05,1.65,0.08,2.46,0.17c2.73,0.32,5.04-0.59,7.05-2.36
				c0.61-0.54,1.27-0.75,2.05-0.78c2.83-0.08,4.8-1.41,5.78-4.11c0.68-1.86,1.77-3.38,3.5-4.43c1.03-0.63,1.72-1.54,2.1-2.7
				c0.27-0.82,0.59-1.63,0.89-2.45c0.34-0.95,0.32-0.92-0.59-1.29c-2.37-0.96-4.73-1.94-6.67-3.71c-0.99-0.9-2.22-1.23-3.57-0.97
				c-2.16,0.42-4.13,0.25-5.89-1.35c-0.99-0.9-2.32-1.08-3.69-0.87c-3.27,0.49-5.68,2.43-7.85,4.7c-2.23,2.32-3.66,5.17-4.89,8.12
				c-0.4,0.96-0.71,1.96-1.04,2.89c2.88-1.22,5.7-2.41,8.5-3.62c0.35-0.15,0.71-0.36,0.96-0.64c0.91-1.03,1.82-2.07,2.26-3.41
				c0.43-1.32,0.84-2.65,1.23-3.98c0.14-0.47,0.31-0.92,0.9-0.81c0.58,0.11,0.63,0.59,0.57,1.08c-0.03,0.25-0.08,0.5-0.14,0.74
				c-0.47,2.06-1.33,3.96-2.49,5.86c0.35-0.09,0.61-0.17,0.87-0.23c1.62-0.38,3.23-0.85,4.87-1.12c1.15-0.19,2.04-0.68,2.69-1.58
				c0.72-0.97,1.36-2,2.03-3.01c0.27-0.41,0.62-0.66,1.09-0.38c0.45,0.27,0.39,0.71,0.15,1.08c-0.59,0.92-1.21,1.83-1.82,2.74
				c-0.1,0.16-0.21,0.31-0.38,0.56c0.45-0.04,0.76-0.08,1.08-0.1c1.96-0.12,3.92-0.24,5.89-0.34c0.49-0.03,0.96,0.11,1,0.7
				c0.03,0.61-0.46,0.73-0.94,0.76c-0.68,0.04-1.37,0.03-2.06,0.07c-1.7,0.12-3.39,0.26-5,0.38c1.4,1.29,2.76,2.54,4.13,3.8
				c0.31,0.28,0.51,0.64,0.19,0.94c-0.22,0.2-0.66,0.31-0.95,0.24c-0.29-0.07-0.58-0.36-0.78-0.63c-1.06-1.43-2.5-2.39-4-3.28
				c-0.74-0.44-1.54-0.63-2.37-0.43c-1.89,0.44-3.78,0.88-5.64,1.42c-1.32,0.38-2.6,0.92-4.04,1.43c0.4,0.17,0.65,0.24,0.85,0.38
				c0.9,0.62,1.81,1.23,2.64,1.92c0.18,0.15,0.21,0.71,0.07,0.95C114.24,68.76,113.81,68.68,113.45,68.41z"/>
		</g>
		<g>
			<path class="st4" d="M189.91,81.73c2.83,1.72,12.28,2.98,15.27,2.03C201.81,81.52,194.63,80.57,189.91,81.73z"/>
			<path class="st4" d="M199.43,73.17c0.07-0.02,0.13-0.04,0.2-0.05c-0.1-3.23,0.71-6.43,0.11-9.68c-0.48-2.62-2.53-7.91-3.52-8.95
				c-0.19,0.81-0.4,1.6-0.57,2.41c-0.51,2.5-0.86,5.03,0.01,7.51c0.77,2.17,1.68,4.29,2.58,6.42
				C198.58,71.63,199.03,72.39,199.43,73.17z"/>
		</g>
		<g>
			<path class="st4" d="M205.01,119.27c-0.18-0.03-0.27-0.06-0.36-0.06c-1.97,0.03-3.86-0.38-5.68-1.1
				c-0.49-0.19-1.03-0.29-1.47-0.56c-0.22-0.13-0.43-0.6-0.36-0.82c0.07-0.21,0.5-0.43,0.78-0.44c0.37-0.01,0.75,0.17,1.11,0.31
				c1.7,0.63,3.4,1.23,5.24,1.22c1.6,0,3.18-0.04,4.56-1.06c1.64-1.21,3.33-2.33,5-3.5c0.08-0.06,0.13-0.15,0.19-0.23
				c-0.93-0.32-1.82-0.61-2.7-0.93c-1.9-0.69-3.76-1.44-5.26-2.85c-0.38-0.36-0.67-0.76-0.25-1.24c0.4-0.44,0.83-0.23,1.2,0.1
				c2.31,2.02,5.11,2.96,8.02,3.64c0.47,0.11,1.08-0.04,1.55-0.26c1.74-0.8,3.44-1.69,5.17-2.53c0.4-0.2,0.85-0.31,1.34-0.48
				c-0.22-0.22-0.37-0.38-0.53-0.54c-1.1-1.1-2.24-2.15-3.29-3.3c-1.54-1.67-3.38-2.77-5.59-3.25c-2.98-0.65-5.89-0.26-8.66,0.91
				c-2.23,0.94-3.75,2.58-4.12,5.09c-0.05,0.34-0.15,0.67-0.21,1.01c-0.14,0.82-0.59,1.43-1.3,1.84c-0.4,0.23-0.8,0.44-1.21,0.64
				c-1.77,0.86-2.35,1.9-2.08,3.86c0.11,0.79-0.03,1.5-0.46,2.16c-0.3,0.46-0.6,0.92-0.94,1.35c-0.71,0.9-0.96,1.89-0.8,3.02
				c0.25,1.75,0.15,3.45-0.56,5.11c-0.52,1.24-0.24,1.85,0.94,2.56C197.07,124.83,201.12,122.19,205.01,119.27z"/>
			<path class="st4" d="M220.17,123.83c0.64,0.16,1.3,0.29,1.96,0.33c0.58,0.04,1.21,0.05,1.75-0.13c2.52-0.87,3.79-3.11,3.18-5.7
				c-0.37-1.55-0.88-3.07-1.43-4.57c-0.43-1.18-1.02-2.29-1.52-3.44c-0.16-0.37-0.41-0.45-0.77-0.31c-1.04,0.42-2.09,0.81-3.11,1.26
				c-0.19,0.08-0.39,0.4-0.38,0.61c0.02,1.89,0.08,3.78,0.15,5.67c0.04,1.02,0.15,2.05,0.17,3.07c0.01,0.46-0.23,0.88-0.78,0.85
				c-0.56-0.03-0.65-0.44-0.67-0.93c-0.11-2.73-0.23-5.46-0.36-8.34c-0.89,0.54-1.68,1.07-2.53,1.52c-1.12,0.59-1.88,1.38-2.06,2.69
				c-0.08,0.58-0.42,1.11-0.55,1.69c-0.37,1.71-1.1,3.36-0.79,5.17c0.05,0.27-0.02,0.62-0.17,0.84c-0.12,0.18-0.45,0.33-0.67,0.31
				c-0.18-0.02-0.46-0.3-0.47-0.48c-0.05-0.95-0.17-1.93-0.01-2.85c0.25-1.46,0.7-2.88,1.06-4.32c0.04-0.16,0.05-0.32,0.1-0.6
				c-1.27,0.87-2.44,1.66-3.6,2.47c-1.9,1.31-3.81,2.62-5.67,3.97c-0.35,0.25-0.68,0.72-0.75,1.14c-0.17,0.98-0.2,1.98-0.24,2.98
				c-0.02,0.52,0.32,1.23-0.49,1.34c-0.83,0.11-0.79-0.66-0.85-1.2c-0.08-0.72-0.1-1.44-0.15-2.26c-1.74,1.5-3.58,2.83-4.71,4.97
				c0.3,0.04,0.52,0.08,0.74,0.09c1.77,0.15,3.44-0.24,5.09-0.85c1.85-0.69,3.76-0.87,5.73-0.51c2.53,0.47,4.81-0.04,6.72-1.88
				c0.54-0.52,1.13-1,1.71-1.49C217.06,123.89,218.5,123.42,220.17,123.83z"/>
		</g>
		<g>
			<path class="st4" d="M233.62,82.68c-3.14-0.32-6.28-0.61-9.42-0.91c-0.08-0.01-0.16,0.01-0.45,0.02c0.69,0.37,1.2,0.65,1.72,0.91
				c2.19,1.08,4.35,2.22,6.57,3.22c3.53,1.59,7.17,1.49,11.03,0.46c-1.04-0.55-1.92-1.03-2.81-1.48
				C238.16,83.85,236,82.92,233.62,82.68z"/>
			<path class="st4" d="M241.99,96.32c-3.27-1.55-6.75-2-10.27-2.25c1.58,1.13,3.19,2.17,4.67,3.37c1.66,1.35,3.19,2.88,4.8,4.29
				c1.44,1.26,3.04,2.28,4.94,2.71c2.14,0.49,4.28,0.93,6.44,1.34c0.94,0.18,1.9,0.2,3,0.31c-0.84-0.71-1.59-1.28-2.25-1.93
				C249.98,100.9,246.2,98.31,241.99,96.32z"/>
			<path class="st4" d="M256.19,87.46c0.81-1.66,1.5-3.32,2.1-5.02c1.3-3.69,1.33-7.41,0.21-11.17c-0.85-2.84-2.01-5.53-3.5-8.08
				c-0.58-1-1.12-2.03-1.68-3.04c-0.1,0.02-0.19,0.04-0.29,0.06c-0.15,2.48-0.53,4.97-0.38,7.42c0.21,3.36,0.71,6.71,1.3,10.03
				c0.56,3.16,1.41,6.27,2.13,9.41C256.1,87.2,256.15,87.33,256.19,87.46z"/>
			<path class="st4" d="M265.94,106.69c1.31-1.83,2.71-3.61,3.91-5.52c2.31-3.66,3.34-7.72,3.3-12.05
				c-0.02-2.14-0.02-4.28-0.02-6.33c0.06-0.07-0.01-0.01-0.05,0.06c-1.55,3.05-3.18,6.06-4.64,9.15c-1.95,4.14-2.92,8.53-2.85,13.13
				c0.01,0.57,0.02,1.15,0.03,1.83C265.82,106.81,265.89,106.76,265.94,106.69z"/>
			<path class="st4" d="M227.78,70.86c1.65,1.77,3.5,3.34,5.75,4.24c3.16,1.28,6.4,2.37,9.71,3.57c-0.18-0.44-0.31-0.82-0.49-1.17
				c-0.85-1.65-1.86-3.19-3.22-4.49c-2.7-2.58-5.59-4.82-9.27-5.88c-2.56-0.74-5.08-1.65-7.62-2.48c-0.15-0.05-0.31-0.09-0.46-0.13
				c-0.05,0.05-0.09,0.11-0.14,0.16c0.2,0.18,0.42,0.36,0.6,0.56C224.36,67.11,226.05,69,227.78,70.86z"/>
		</g>
		<g>
			<path class="st4" d="M26.65,87.92c3.25-1.06,6.53-2.05,9.74-3.21c4.31-1.56,8.09-3.99,11.29-7.29c0.4-0.41,0.8-0.82,1.27-1.32
				c-0.24-0.01-0.33-0.03-0.42-0.01c-2.22,0.37-4.47,0.64-6.66,1.15c-4.22,0.97-7.81,3.11-10.84,6.2c-1.5,1.53-3.01,3.04-4.45,4.5
				C26.48,87.94,26.57,87.94,26.65,87.92z"/>
			<path class="st4" d="M54.49,115.9c2,2.44,4.02,4.86,6.03,7.29c0.05,0.06,0.12,0.11,0.33,0.3c-0.23-0.75-0.39-1.31-0.57-1.86
				c-0.78-2.31-1.51-4.64-2.38-6.92c-1.38-3.62-4.03-6.12-7.49-8.11c0.35,1.12,0.63,2.08,0.95,3.03
				C52.1,111.86,52.97,114.05,54.49,115.9z"/>
			<path class="st4" d="M28.82,106.43c-1.4,2.61-2.48,5.33-3.23,8.2c-0.29,1.12-0.64,2.23-0.96,3.34c0.08,0.05,0.16,0.11,0.24,0.16
				c1.85-1.65,3.88-3.14,5.51-4.99c2.22-2.53,4.24-5.26,6.16-8.03c1.83-2.64,3.43-5.44,5.13-8.17c0.07-0.12,0.13-0.24,0.2-0.36
				c-1.74,0.61-3.41,1.3-5.03,2.07C33.32,100.36,30.68,102.97,28.82,106.43z"/>
			<path class="st4" d="M58.19,100.33c1.23,3.4,3.37,6.18,5.68,8.84c-0.32-1.91-0.73-3.79-0.93-5.68c-0.22-2.13-0.23-4.29-0.38-6.43
				c-0.13-1.91-0.55-3.76-1.59-5.4c-1.17-1.85-2.38-3.68-3.62-5.49c-0.54-0.79-1.21-1.49-1.91-2.34c0.09,1.1,0.22,2.03,0.23,2.96
				C55.76,91.45,56.61,95.95,58.19,100.33z"/>
			<path class="st4" d="M44.36,113.12c-0.57,1.77-0.94,3.57-0.89,5.45c0.1,3.73,0.56,7.36,2.42,10.71c1.29,2.33,2.44,4.75,3.65,7.13
				c0.07,0.14,0.16,0.28,0.23,0.42c0.07-0.01,0.14-0.01,0.22-0.02c-0.01-0.27-0.04-0.55-0.03-0.82c0.11-2.53,0.25-5.07,0.33-7.6
				c0.08-2.42-0.13-4.84-1.08-7.07c-1.34-3.14-2.87-6.2-4.36-9.39C44.66,112.38,44.48,112.74,44.36,113.12z"/>
		</g>
		<g>
			<path class="st4" d="M83.51,239.26c0.96,1.83,2.36,3.03,4.49,3.3c0.71,0.09,1.38,0.46,2.07,0.7c0.13,0.05,0.25,0.12,0.38,0.16
				c0.68,0.21,1.45,0.53,1.99-0.09c0.54-0.62,0.32-1.44,0.02-2.14c-0.27-0.63-0.56-1.26-0.94-1.83c-1.1-1.63-1.38-3.44-1.3-5.36
				c0.06-1.26,0.04-2.47-0.72-3.62c-0.66-1-1.57-1.45-2.65-1.61c-0.98-0.14-1.45-0.6-1.65-1.59c-0.52-2.51-2.5-3.46-4.81-2.33
				c-0.77,0.38-1.46,0.91-2.24,1.41c0.66,0.77,1.09,1.58,1.76,1.98c1.11,0.67,2.29,1.35,3.69,1.18c0.07-0.01,0.13-0.03,0.2-0.04
				c0.88-0.14,1.33,0.02,1.34,0.51c0.01,0.78-0.64,0.84-1.16,0.88c-0.72,0.05-1.44-0.02-2.24-0.05c0.69,0.93,1.27,2,2.11,2.78
				c0.94,0.87,2.25,0.9,3.51,0.77c0.16-0.02,0.31-0.06,0.47-0.09c0.41-0.07,0.82,0.05,0.83,0.47c0.01,0.28-0.26,0.75-0.49,0.82
				c-0.58,0.17-1.21,0.17-1.82,0.22c-0.22,0.02-0.45-0.02-0.84-0.03c0.56,0.66,0.98,1.29,1.52,1.78c1.15,1.03,2.37,1.99,3.56,2.98
				c0.09,0.07,0.2,0.12,0.29,0.18c0.37,0.27,0.59,0.62,0.33,1.05c-0.26,0.43-0.69,0.46-1.08,0.2c-0.89-0.6-1.75-1.23-2.62-1.86
				c-0.24-0.17-0.44-0.39-0.75-0.66c0.03,0.43,0.14,0.79,0.05,1.08c-0.1,0.29-0.35,0.66-0.62,0.74c-0.42,0.13-0.62-0.23-0.7-0.64
				c-0.12-0.65-0.28-1.29-0.42-1.94c-0.02-0.11-0.1-0.25-0.06-0.33c0.35-0.74-0.23-1.11-0.6-1.57c-0.95-1.19-1.91-2.38-2.9-3.61
				c-0.16,0.5-0.29,0.98-0.47,1.43c-0.12,0.29-0.26,0.63-0.5,0.79c-0.21,0.15-0.63,0.19-0.85,0.07c-0.16-0.08-0.24-0.52-0.19-0.76
				c0.22-1.06,0.51-2.1,0.77-3.15c0.02-0.08,0.01-0.19-0.04-0.25c-0.83-1.07-1.67-2.14-2.51-3.21c-0.08,0.03-0.16,0.06-0.25,0.09
				c0.03,0.95,0,1.9,0.1,2.84c0.2,1.92,0.64,3.76,2.22,5.07c0.52,0.43,1.1,0.82,1.68,1.17C82.36,237.69,83.04,238.37,83.51,239.26z"
				/>
			<path class="st4" d="M63.92,233.39c-1.84,0.68-3.55,1.81-4.58,3.55c-1.02,1.74-1.9,3.59-2.64,5.47
				c-0.32,0.82-0.22,1.84-0.15,2.75c0.06,0.81,0.29,1.62,0.55,2.4c0.51,1.53,0.41,3.03-0.16,4.49c-0.64,1.63-0.37,3.01,0.82,4.29
				c1.76,1.9,3.01,4.13,3.97,6.52c0.06,0.14,0.13,0.28,0.27,0.57c2.26-4.61,4.06-9.22,5.1-14.1c-0.05-0.03-0.1-0.05-0.15-0.08
				c-0.37,0.33-0.73,0.67-1.1,0.98c-1.09,0.92-2.32,1.54-3.74,1.73c-0.26,0.04-0.6,0.06-0.8-0.06c-0.23-0.14-0.46-0.46-0.47-0.71
				c-0.01-0.17,0.35-0.5,0.57-0.52c2.38-0.21,3.95-1.6,5.23-3.46c0.67-0.97,1.14-1.97,1.21-3.2c0.08-1.5,0.36-2.99,0.55-4.49
				c0.04-0.28,0.04-0.57,0.05-0.89c-1.16,0.85-2.23,1.7-3.36,2.46c-0.95,0.64-1.96,1.18-2.94,1.75c-0.43,0.25-0.86,0.29-1.12-0.2
				c-0.24-0.48,0.02-0.83,0.43-1.08c1.14-0.68,2.35-1.26,3.41-2.04c1.24-0.91,2.36-1.99,3.52-3.02c0.14-0.12,0.26-0.34,0.27-0.52
				c0.04-0.96,0.06-1.92,0.03-2.87c0-0.15-0.29-0.45-0.41-0.43C66.83,232.89,65.28,232.89,63.92,233.39z"/>
			<path class="st4" d="M49.25,229.08c-0.44,0-0.8-0.13-0.84-0.61c-0.04-0.51,0.31-0.74,0.77-0.79c0.29-0.03,0.59,0.06,0.88,0.03
				c1.01-0.1,2.02-0.23,3.03-0.37c0.13-0.02,0.29-0.15,0.36-0.28c1.35-2.46,2.69-4.92,4.12-7.55c-0.39,0.06-0.55,0.08-0.71,0.11
				c-1.38,0.29-2.76,0.61-4.15,0.86c-0.23,0.04-0.67-0.18-0.75-0.38c-0.08-0.22,0.06-0.7,0.25-0.81c0.42-0.25,0.92-0.37,1.41-0.48
				c1.07-0.23,2.15-0.4,3.22-0.63c0.98-0.21,1.61-0.81,1.89-1.78c0.18-0.63,0.38-1.25,0.61-2.01c-1.97,0.54-3.75-0.07-5.56-0.21
				c-2.1-0.16-3.8,0.7-5.2,2.15c-0.68,0.7-1.22,1.54-1.76,2.35c-0.83,1.25-1.12,2.63-0.84,4.12c0.06,0.31,0.07,0.64,0.14,0.95
				c0.43,2.14,0.22,4.17-1.01,6.05c-0.88,1.35-1.05,2.8-0.4,4.31c0.8,1.85,0.56,3.76,0.32,5.67c-0.07,0.52,0.01,1.07,0.01,1.6
				l0.18,0.03c2.33-4.09,4.67-8.19,6.99-12.27C51.23,229.12,50.24,229.09,49.25,229.08z"/>
			<path class="st4" d="M69.31,256.3c0.21,0.17,0.52,0.27,0.65,0.48c0.15,0.26,0.16,0.6,0.23,0.91c-0.3,0.07-0.72,0.29-0.89,0.17
				c-0.73-0.52-1.39-1.14-2.07-1.74c-0.11-0.1-0.2-0.24-0.29-0.35c-1.13,2.72-2.26,5.43-3.39,8.13c0.02,0.03,0.04,0.06,0.06,0.09
				c0.6-0.55,1.25-1.05,1.78-1.65c1.02-1.17,2.18-1.88,3.81-2c0.72-0.05,1.49-0.75,2.04-1.34c1.53-1.64,2.01-3.69,1.99-5.89
				c-0.01-1.21,0.42-2.26,1.12-3.25c0.49-0.69,0.92-1.42,1.31-2.16c0.44-0.82,0.58-1.7,0.52-2.65c-0.06-0.85,0.01-1.74,0.18-2.57
				c0.34-1.7,0.1-3.24-0.84-4.72c-1.16-1.83-2.6-3.35-4.51-4.4c-0.16-0.09-0.33-0.16-0.49-0.24c-0.06-0.03-0.13-0.03-0.23-0.06
				c-0.11,1.82-0.21,3.57-0.31,5.32c-0.01,0.16,0,0.33-0.04,0.48c-0.44,1.55,0.3,2.69,1.32,3.72c0.48,0.48,1.01,0.93,1.54,1.36
				c0.4,0.33,0.8,0.67,0.38,1.18c-0.4,0.5-0.89,0.25-1.27-0.08c-0.82-0.72-1.61-1.47-2.46-2.26c-0.05,0.43-0.08,0.85-0.15,1.26
				c-0.52,2.94-1.04,5.89-1.57,8.83C67.49,254.39,68.21,255.43,69.31,256.3z"/>
			<path class="st4" d="M58.93,219.82c-0.31,0.76-0.65,1.51-1.04,2.23c-0.38,0.71-0.46,1.42-0.27,2.19c0.2,0.8,0.41,1.59,0.62,2.39
				c0.11,0.43,0.15,0.87-0.34,1.05c-0.52,0.19-0.83-0.14-0.98-0.6c-0.2-0.63-0.36-1.26-0.57-2c-1.64,2.81-3.22,5.5-4.77,8.21
				c-0.11,0.18-0.11,0.5-0.03,0.71c0.2,0.56,0.51,1.08,0.67,1.64c0.07,0.25-0.01,0.75-0.16,0.82c-0.24,0.11-0.7,0.06-0.89-0.12
				c-0.31-0.27-0.48-0.7-0.75-1.12c-1.3,2.24-2.57,4.45-3.84,6.65c0.03,0.03,0.06,0.07,0.09,0.1c0.57-0.43,1.11-0.88,1.7-1.27
				c0.85-0.56,1.69-1.17,2.61-1.6c1.53-0.71,2.59-1.83,3.36-3.29c0.72-1.37,1.36-2.81,2.56-3.86c0.56-0.49,1.15-1.03,1.83-1.3
				c3.15-1.27,4.38-3.86,4.99-6.94c0.68-3.44-0.77-6.12-2.92-8.6C60.17,216.7,59.57,218.27,58.93,219.82z"/>
		</g>
		<g>
			<path class="st4" d="M242.96,227.34c1.8,1.72,2.95,3.79,4.04,5.97c0.67,1.34,1.53,2.59,2.41,3.81c0.85,1.17,2.14,1.82,3.42,2.39
				c-0.59-1.58-1.27-3.13-1.73-4.74c-0.46-1.59-0.71-3.23-1.06-4.91c-0.37,0.8-0.74,1.6-1.09,2.4c-0.2,0.45-0.43,0.89-1,0.64
				c-0.55-0.24-0.45-0.74-0.23-1.18c0.6-1.22,1.26-2.42,1.82-3.67c0.23-0.52,0.42-1.15,0.36-1.7c-0.28-2.57-0.78-5.1-1.68-7.54
				c-0.02-0.06-0.07-0.11-0.05-0.08c-1.03,0.6-2.04,1.2-3.05,1.78c-0.16,0.09-0.35,0.21-0.51,0.18c-0.28-0.05-0.68-0.14-0.77-0.34
				c-0.09-0.21,0.04-0.62,0.21-0.82c0.19-0.22,0.57-0.28,0.83-0.46c0.81-0.54,1.61-1.1,2.38-1.69c0.14-0.11,0.23-0.46,0.16-0.62
				c-0.98-2.36-1.99-4.71-2.99-7.06c-0.03-0.07-0.09-0.13-0.17-0.25c-1.14,2.8-2.31,5.52-3.37,8.28
				C239.52,221.36,240.15,224.65,242.96,227.34z"/>
			<path class="st4" d="M248.12,213.65c1.64,1.12,3.45,1.76,5.43,1.93c0.23,0.02,0.45,0.06,0.68,0.08c0.5,0.06,0.94,0.22,0.88,0.82
				c-0.06,0.62-0.57,0.67-1.04,0.62c-1.71-0.17-3.39-0.49-4.94-1.29c-0.12-0.06-0.24-0.11-0.49-0.22c0.24,0.64,0.44,1.15,0.62,1.68
				c0.35,1.04,0.71,2.07,1.03,3.12c0.28,0.93,0.72,1.75,1.54,2.28c1.11,0.72,2.26,1.37,3.4,2.04c0.25,0.15,0.55,0.23,0.81,0.38
				c0.38,0.22,0.61,0.6,0.33,0.96c-0.17,0.22-0.68,0.4-0.9,0.3c-0.98-0.42-1.92-0.94-2.88-1.44c-0.5-0.26-0.99-0.54-1.41-0.78
				c0.18,1.91,0.4,3.92,0.55,5.94c0.22,2.86,0.98,5.57,2.29,8.12c0.07,0.14,0.16,0.27,0.29,0.48c0.32-0.86,0.65-1.63,0.89-2.43
				c0.35-1.19,0.96-2.19,2-2.86c1.34-0.85,1.97-2.19,2.32-3.6c0.45-1.76,0.73-3.58,0.94-5.39c0.34-2.84-0.65-5.35-2.42-7.49
				c-2.34-2.83-5.18-5.05-8.56-6.6c-1.42-0.65-2.72-1.57-4.19-2.43c0.78,1.78,1.54,3.52,2.32,5.24
				C247.7,213.34,247.92,213.52,248.12,213.65z"/>
			<path class="st4" d="M230.48,226.02c-0.83,0.13-1.61,0.26-2.4,0.38c-0.2,0.03-0.45,0.13-0.6,0.05c-0.27-0.13-0.67-0.36-0.69-0.57
				c-0.02-0.23,0.31-0.52,0.55-0.71c0.14-0.11,0.4-0.06,0.6-0.11c1.06-0.25,2.13-0.49,3.19-0.78c0.2-0.06,0.42-0.26,0.53-0.45
				c1.42-2.48,2.83-4.96,4.23-7.45c0.34-0.59,0.64-1.2,0.85-1.92c-0.71,0.48-1.41,0.97-2.14,1.42c-1.21,0.76-2.43,1.52-3.67,2.24
				c-0.43,0.25-0.98,0.36-1.22-0.25c-0.23-0.58,0.26-0.76,0.69-0.98c0.71-0.36,1.41-0.76,2.06-1.21c1.58-1.08,3.13-2.21,4.71-3.3
				c0.75-0.52,1.27-1.13,1.37-2.09c0.07-0.73,0.29-1.45,0.47-2.34c-1.22,0.33-2.24,0.61-3.28,0.88c-2.17,0.56-4.16,1.47-6,2.76
				c-1.3,0.91-1.84,2.1-1.57,3.66c0.06,0.34,0.06,0.68,0.12,1.02c0.23,1.36-0.23,2.42-1.33,3.22c-0.99,0.72-1.84,1.57-2.3,2.74
				c-0.45,1.17-0.48,2.26,0.18,3.41c1.38,2.4,1.7,4.86,0.35,7.44c-0.72,1.39-0.28,2.78,0.42,4.26c0.81-2.01,1.54-3.9,2.34-5.74
				C228.74,229.73,229.62,227.9,230.48,226.02z"/>
			<path class="st4" d="M235.15,220.61c-0.28,0.45-0.3,0.88-0.04,1.28c0.68,1.02,1.4,2.02,2.12,3.01c0.21,0.29,0.57,0.51,0.71,0.82
				c0.13,0.31,0.2,0.81,0.03,1.03c-0.29,0.39-0.76,0.24-1.06-0.12c-0.88-1.08-1.73-2.17-2.59-3.26c-0.12-0.16-0.21-0.34-0.41-0.67
				c-0.7,1.4-1.52,2.63-1.93,3.98c-0.38,1.29,0.06,2.63,0.78,3.79c0.44,0.71,1.01,1.35,1.51,2.03c0.23,0.31,0.54,0.6,0.64,0.95
				c0.08,0.29-0.08,0.65-0.14,0.98c-0.32-0.07-0.78-0.03-0.95-0.24c-1.26-1.5-2.63-2.94-3.11-4.99c-1.34,2.61-2.64,5.22-3.52,8.12
				c0.39-0.23,0.71-0.42,1.04-0.61c1.77-1.01,3.72-1.32,5.72-1.46c2.77-0.2,4.95-1.53,6.58-3.7c0.63-0.83,1.03-1.83,1.53-2.76
				c0.1,0.05,0.2,0.09,0.3,0.14c-0.26-0.28-0.51-0.56-0.77-0.84c-2.82-3.02-3.56-6.52-2.24-10.4c0.71-2.09,1.61-4.12,2.46-6.17
				c0.16-0.39,0.22-0.7-0.02-1.08c-0.41-0.66-0.77-1.36-1.15-2.04c-0.07,0.03-0.14,0.05-0.2,0.08c-0.07,0.35-0.15,0.69-0.2,1.04
				c-0.47,3-1.94,5.58-3.42,8.16C236.26,218.67,235.73,219.66,235.15,220.61z"/>
			<path class="st4" d="M279.15,196.03c-0.61-1.06-1.47-1.81-2.61-2.21c-1.9-0.67-3.28-1.93-4.33-3.62
				c-1.51-2.44-3.71-3.34-6.5-2.83c-0.78,0.14-1.46,0.06-2.17-0.34c-2.33-1.33-4.79-1.73-7.39-0.86c-0.78,0.26-1.58,0.46-2.37,0.68
				c-2.37,0.64-3.92,2.36-5.41,4.13c-0.82,0.98-1.59,2.01-2.31,3.06c-0.4,0.59-0.67,1.27-1.05,2.01c0.42,0.15,0.69,0.27,0.96,0.34
				c1.23,0.33,2.47,0.67,3.71,0.97c1.25,0.29,2.43,0.08,3.4-0.78c0.71-0.63,1.35-1.35,2.01-2.03c0.08-0.08,0.13-0.19,0.21-0.27
				c0.29-0.33,0.7-0.5,1.01-0.16c0.18,0.2,0.27,0.76,0.13,0.95c-0.68,0.85-1.44,1.63-2.19,2.42c-0.17,0.18-0.4,0.29-0.75,0.55
				c1.52,0.21,2.88,0.47,4.25,0.57c1.93,0.14,3.87,0.18,5.81,0.23c0.86,0.02,1.6-0.33,2.23-0.91c1.29-1.18,2.5-2.41,3.24-4.03
				c0.14-0.3,0.36-0.65,0.63-0.77c0.27-0.13,0.73-0.12,0.98,0.04c0.37,0.23,0.25,0.62,0.01,0.96c-1.08,1.51-2.16,3.02-3.26,4.56
				c1.61-0.21,3.29-0.42,4.98-0.65c0.68-0.09,1.35-0.25,2.03-0.35c0.48-0.07,0.98-0.05,1.07,0.56c0.09,0.58-0.34,0.81-0.83,0.89
				c-1.94,0.3-3.89,0.59-5.83,0.87c-0.31,0.05-0.63,0.07-1.08,0.12c0.21,0.21,0.35,0.34,0.48,0.47c0.78,0.77,1.57,1.52,2.34,2.31
				c0.31,0.32,0.46,0.73,0.08,1.09c-0.4,0.37-0.79,0.2-1.14-0.15c-0.86-0.85-1.7-1.72-2.6-2.52c-0.83-0.74-1.8-1.04-2.96-0.99
				c-1.66,0.07-3.33-0.05-5-0.1c-0.27-0.01-0.53-0.03-0.89-0.05c1.52,1.61,2.75,3.3,3.63,5.22c0.11,0.23,0.21,0.46,0.29,0.7
				c0.16,0.47,0.21,0.95-0.33,1.17c-0.56,0.23-0.81-0.17-1.05-0.61c-0.66-1.22-1.33-2.44-2.02-3.64c-0.7-1.22-1.81-2.05-2.91-2.87
				c-0.3-0.22-0.7-0.36-1.07-0.43c-2.99-0.61-5.99-1.19-9.06-1.8c0.52,0.84,1.02,1.76,1.61,2.61c1.81,2.63,3.79,5.12,6.45,6.94
				c2.59,1.77,5.35,3.17,8.65,2.98c1.38-0.08,2.65-0.53,3.43-1.61c1.39-1.92,3.29-2.49,5.49-2.53c1.38-0.02,2.51-0.6,3.3-1.68
				c1.54-2.12,3.64-3.57,5.77-5c0.82-0.55,0.84-0.53,0.31-1.39C280.06,197.51,279.58,196.79,279.15,196.03z"/>
		</g>
	</g>
	<g>
		<path class="st5" d="M237.6,150.7c0.6-0.74,1.38-1.16,2.33-1.31c0.29-0.04,0.54-0.31,0.84-0.49c-0.42-0.39-0.75-0.61-0.97-0.92
			c-1.45-2.02-3.25-3.7-5.05-5.4c-2.05-1.95-4.25-3.69-6.89-4.78c-1.9-0.78-3.84-1.22-5.84-0.29c-1.75,0.81-2.2,1.98-1.4,3.73
			c0.66,1.44,1.62,2.66,2.89,3.6c3.98,2.97,8.49,4.79,13.22,6.15C237.12,151.09,237.34,151.01,237.6,150.7z"/>
		<path class="st5" d="M249.42,163.39c-0.26-0.41-0.57-0.55-1.09-0.38c-0.44,0.14-0.94,0.09-1.42,0.08c-0.64-0.02-1.29-0.08-2-0.12
			c0.2,3.35,0.78,6.41,1.87,9.37c0.93,2.53,1.73,5.11,3.25,7.37c0.66,0.98,1.43,1.85,2.58,2.26c1.09,0.39,1.92,0.09,2.53-0.9
			c0.77-1.25,1.02-2.63,0.87-4.08c-0.26-2.55-1.22-4.88-2.46-7.07C252.29,167.68,250.81,165.56,249.42,163.39z"/>
		<path class="st5" d="M252.11,158.93c0.16,1.55-0.63,2.43-1.68,3.16c0.08,0.11,0.13,0.19,0.19,0.25c3.92,3.91,8.54,6.76,13.69,8.75
			c1.08,0.42,2.32,0.6,3.48,0.57c2.09-0.04,2.98-1.58,2.19-3.51c-0.59-1.44-1.63-2.54-2.8-3.49c-3.53-2.85-7.67-4.36-12.03-5.33
			C254.17,159.13,253.18,159.07,252.11,158.93z"/>
		<path class="st5" d="M242.08,162.79c-0.66-0.43-1.36-0.8-2.12-1.24c-3.76,3.31-6.55,10.31-6.75,14.25c-0.08,1.55,0,3.07,0.91,4.41
			c1.29,1.9,3.06,2.11,4.75,0.57c1.08-0.98,1.77-2.2,2.25-3.55c1.18-3.3,1.37-6.74,1.5-10.19c0.04-1.21-0.06-2.42-0.14-3.62
			C242.47,163.2,242.27,162.92,242.08,162.79z"/>
		<path class="st5" d="M271.79,153.75c0.32-1.17-0.09-2.1-1.2-2.57c-0.56-0.23-1.17-0.39-1.77-0.49c-2.28-0.35-4.51,0.05-6.73,0.54
			c-2.63,0.58-5.13,1.5-7.5,2.77c-0.36,0.19-0.72,0.56-0.88,0.94c-0.25,0.6-0.34,1.26-0.52,2.02c0.26,0.09,0.57,0.23,0.9,0.3
			c1.43,0.31,2.85,0.63,4.29,0.87c4.2,0.71,8.07-0.33,11.75-2.3C270.96,155.39,271.54,154.69,271.79,153.75z"/>
		<path class="st5" d="M247.08,147.8c0.3,0.22,0.46,0.28,0.82,0.19c0.61-0.17,1.25-0.19,1.87-0.33c0.25-0.05,0.56-0.19,0.69-0.39
			c2.41-3.81,4.39-7.84,5.97-12.06c0.5-1.33,0.81-2.74,1.22-4.18c0.18-1.38-0.67-4.08-2.63-3.61c-1.02,0.22-1.96,0.61-2.71,1.38
			c-1.42,1.46-2.38,3.24-3.18,5.08c-1.61,3.7-2.38,7.6-2.79,11.6C246.24,146.41,246.22,147.17,247.08,147.8z"/>
		<path class="st5" d="M241.36,147c0.27,0.38,0.52,0.43,0.97,0.22c0.55-0.26,1.15-0.43,1.75-0.53c0.43-0.07,0.59-0.22,0.58-0.65
			c-0.02-1.16-0.01-2.33-0.01-3.49c-0.02,0-0.04,0-0.06,0c-0.08-1.35-0.13-2.69-0.26-4.04c-0.34-3.6-1.67-6.91-3.22-10.13
			c-0.47-0.99-1.22-1.86-1.94-2.71c-0.76-0.9-1.9-0.85-2.5,0.18c-0.53,0.91-1.05,1.96-1.1,2.97c-0.09,1.86-0.01,3.76,0.31,5.59
			c0.7,4.08,2.58,7.73,4.51,11.34C240.64,146.21,241.05,146.57,241.36,147z"/>
		<path class="st5" d="M252.17,148.93c0.58,0.78,0.66,1.63,0.44,2.54c-0.05,0.21-0.04,0.57,0.07,0.64c0.21,0.12,0.55,0.17,0.78,0.08
			c1.11-0.43,2.18-0.95,3.29-1.37c1.88-0.7,3.57-1.73,5.2-2.88c1.99-1.41,3.9-2.89,5.41-4.82c0.58-0.75,1.11-1.58,1.47-2.45
			c0.66-1.63-0.37-3-2.37-2.99c-2.01,0.24-4.15,0.86-5.95,2.21c-3.18,2.39-5.85,5.31-8.33,8.41
			C252.06,148.44,252.06,148.79,252.17,148.93z"/>
		<path class="st5" d="M238.68,160.04c0.13-0.14,0.18-0.4,0.19-0.61c0.03-0.54,0.01-1.08,0.01-1.81c-0.41-0.15-0.89-0.51-1.3-0.44
			c-0.94,0.16-1.88,0.43-2.75,0.82c-3.32,1.47-6.66,2.9-9.53,5.21c-1.51,1.22-3.07,2.4-3.9,4.25c-0.63,1.4-0.24,2.17,1.26,2.51
			c0.46,0.1,0.95,0.1,1.43,0.09c1.38-0.03,2.64-0.46,3.86-1.07C232.22,166.84,235.43,163.42,238.68,160.04z"/>
		<path class="st5" d="M236.48,154.45c-0.08-0.3-0.08-0.65-0.01-0.95c0.17-0.7-0.19-0.93-0.78-1.04c-2.69-0.5-5.36-1.15-8.07-1.46
			c-2.04-0.24-4.15-0.16-6.2,0c-1.44,0.11-2.75,0.83-3.88,1.76c-1.35,1.1-1.47,2.51-0.2,3.71c0.61,0.58,1.4,1.09,2.19,1.31
			c1.37,0.39,2.81,0.53,4.21,0.77c0.01-0.05,0.02-0.1,0.03-0.15c0.73-0.04,1.46-0.04,2.19-0.13c3.38-0.41,6.56-1.55,9.76-2.62
			C236.34,155.46,236.69,155.18,236.48,154.45z"/>
	</g>
	<g>
		<path class="st6" d="M47.86,174.34c-0.94,0.23-1.71,0.41-2.59,0.62c0.14,1.46,0.2,3,0.46,4.49c0.75,4.32,2.29,8.4,3.9,12.45
			c0.84,2.1,1.88,4.12,3.85,5.59c0.19-0.35,0.39-0.7,0.56-1.05c0.38-0.77,0.96-0.95,1.67-0.46c0.49,0.33,0.97,0.69,1.44,1.05
			c0.33,0.25,0.61,0.19,0.77-0.17c0.22-0.47,0.48-0.95,0.59-1.45c0.6-2.75-0.07-5.25-1.57-7.56c-1.94-2.99-3.89-5.96-5.87-8.92
			C50,177.33,48.88,175.78,47.86,174.34z"/>
		<path class="st6" d="M43.49,175.02c-0.52-0.22-1.06-0.38-1.66-0.59c-0.04,0.05-0.09,0.13-0.13,0.21c-0.11,0.2-0.23,0.4-0.33,0.6
			c-2.52,5.07-4.38,10.37-5.33,15.97c-0.14,0.81-0.21,1.63-0.25,2.44c-0.01,0.2,0.13,0.54,0.3,0.61c1.19,0.54,1.22,0.52,1.14,1.72
			c-0.04,0.61,0.23,0.78,0.76,0.72c0.91-0.1,1.52-0.68,2.08-1.33c1.96-2.27,3.1-4.93,3.63-7.86c0.72-4.02,0.42-8.05,0.12-12.09
			C43.81,175.28,43.63,175.08,43.49,175.02z"/>
		<path class="st6" d="M59.55,175.09c-1.87-0.59-3.74-1.16-5.6-1.77c-1.08-0.36-2.14-0.78-3.22-1.15c-0.15-0.05-0.36-0.03-0.5,0.04
			c-0.39,0.19-0.76,0.41-1.25,0.69c0.91,0.95,1.75,1.91,2.69,2.77c2.07,1.9,4.19,3.75,6.29,5.61c1.13,1,2.26,1.99,3.44,2.93
			c0.25,0.2,0.7,0.14,1.06,0.21c0.37,0.07,0.76,0.1,1.09,0.25c0.34,0.16,0.62,0.47,0.94,0.68c0.74,0.48,1.62,0.24,2.05-0.53
			c0.68-1.2,0.39-2.29-0.35-3.33c-1.68-2.37-3.82-4.29-6.02-6.16C60.01,175.2,59.76,175.16,59.55,175.09z"/>
		<path class="st6" d="M47.22,164.34c1.51,0.17,2.96,0.53,3.45,2.36c0.3-0.19,0.51-0.32,0.71-0.46c1.79-1.3,3.57-2.62,5.37-3.9
			c3.17-2.25,5.31-5.31,6.79-8.84c0.3-0.71,0.35-1.54,0.46-2.33c0.06-0.48-0.19-0.84-0.68-0.98c-0.8-0.22-1.15-0.76-1.12-1.58
			c0.01-0.15-0.05-0.3-0.1-0.52c-0.28,0.12-0.5,0.21-0.73,0.3c-0.85,0.35-1.36,0.07-1.51-0.85c-0.05-0.34-0.08-0.68-0.12-1.02
			c-0.13-1.13-1.01-1.71-2.05-1.26c-0.61,0.27-1.22,0.65-1.7,1.11c-2.72,2.61-4.33,5.89-5.56,9.39c-0.47,1.33-0.88,2.69-1.38,4.01
			C48.48,161.31,47.84,162.81,47.22,164.34z"/>
		<path class="st6" d="M51.24,169.72c0.06,0.16,0.05,0.37,0.01,0.54c-0.08,0.41,0.13,0.56,0.48,0.67c0.8,0.26,1.62,0.5,2.38,0.85
			c3.57,1.63,7.32,2.38,11.67,2.38c1.71,0.35,3.68-0.18,5.56-1.2c0.92-0.5,1.43-2.09,0.86-2.98c-0.39-0.6-0.31-1.09,0.2-1.51
			c0.57-0.47,0.52-1.03,0.16-1.52c-0.28-0.38-0.71-0.7-1.15-0.91c-2.06-0.99-4.3-1.2-6.53-1.37c-4.6-0.33-8.67,1.43-12.72,3.28
			C51.39,168.31,50.86,168.76,51.24,169.72z"/>
		<path class="st6" d="M45.97,163.48c0.63-1.57,1.31-3.16,1.92-4.78c1.49-3.9,2.38-7.92,2.1-12.12c-0.07-1.1-0.41-2.19-0.71-3.26
			c-0.14-0.52-0.53-0.58-0.92-0.13c-0.24,0.28-0.48,0.56-0.76,0.79c-0.63,0.53-1.25,0.5-1.82-0.1c-0.28-0.3-0.5-0.65-0.85-1.11
			c-0.3,0.39-0.6,0.71-0.82,1.07c-0.84,1.34-1.09,2.85-1.22,4.38c-0.4,4.85-0.05,9.67,0.86,14.38
			C44.49,162.89,45.17,163.16,45.97,163.48z"/>
		<path class="st6" d="M29.72,161.81c3.31,1.4,6.65,2.67,10.19,3.37c0.19,0.04,0.48-0.12,0.62-0.28c0.32-0.35,0.53-0.82,0.88-1.12
			c0.36-0.3,0.36-0.55,0.19-0.93c-1.15-2.59-2.57-4.98-4.56-7.04c-2.26-2.34-4.61-4.58-7.29-6.43c-0.71-0.49-1.59-0.74-2.38-1.1
			c-0.03,0.06-0.05,0.12-0.08,0.17c-1.41-0.04-2.19,0.57-2.58,1.9c-0.09,0.32-0.34,0.73-0.61,0.84c-0.83,0.33-0.8,0.81-0.5,1.49
			c0.34,0.77,0.3,1.49-0.35,2.14c-1.06,1.04-1.1,1.81-0.2,2.99c0.82,1.07,1.87,1.89,3.09,2.45
			C27.32,160.81,28.52,161.3,29.72,161.81z"/>
		<path class="st6" d="M40.5,172.72c-0.81-0.67-1.53-1.26-2.24-1.84c-0.12-0.12-0.35-0.03-0.58,0.06c-2.74,1.17-5.32,2.61-7.71,4.4
			c-2.71,2.03-5.34,4.15-7.49,6.79c-0.49,0.6-0.69,1.16-0.11,1.82c0.17,0.19,0.21,0.49,0.3,0.75c1.52,0.31,1.56,0.43,0.74,2.62
			c0.67,0.1,1.27,0.3,1.84,0.25c1.47-0.13,2.82-0.68,4.08-1.48c3.55-2.29,6.31-5.38,8.85-8.69C39.29,175.95,40.05,174.3,40.5,172.72
			z"/>
		<path class="st6" d="M38.36,168.17c0.28-0.54,0.48-1.12,0.71-1.71c-0.04-0.02-0.12-0.06-0.2-0.09c-2.97-0.95-5.95-1.9-8.93-2.83
			c-0.91-0.28-1.83-0.63-2.76-0.72c-2.41-0.25-4.64,0.12-6.27,2.22c-0.36,0.46-0.96,0.76-1.5,1.03c-0.89,0.44-0.98,0.69-0.28,1.43
			c0.94,0.99,2.15,1.63,3.47,1.79c1.99,0.25,4,0.39,6,0.39c3.06,0,6.12-0.18,9.09-1.04C37.95,168.57,38.24,168.39,38.36,168.17z"/>
	</g>
	<path class="st7" d="M95.69,102.71c-1.39-0.67-2.87-0.83-4.4-0.48c-1.8,0.41-2.91,1.7-3.95,3.07c-0.11,0.14-0.12,0.39-0.11,0.58
		c0.01,2.03,1.98,4.64,4.11,5.45c1.94,0.74,3.58,0.45,4.68-1c0.92-1.21,1.47-2.62,1.56-4.11C97.51,104.71,97.12,103.4,95.69,102.71z
		"/>
	<path class="st0" d="M245.98,161.41c0.11,0.07,0.26,0.07,0.39,0.11c1.48,0.42,2.65-0.29,3.75-1.11c0.64-0.48,0.65-1.21,0.16-1.81
		c-0.61-0.73-0.54-1.1,0.32-1.51c0.9-0.43,1.42-1.12,1.59-2.09c0.14-0.82-0.22-1.58-0.94-1.92c-0.58-0.27-0.67-0.7-0.45-1.24
		c0.13-0.32,0.3-0.62,0.39-0.95c0.16-0.53-0.03-0.99-0.5-1.23c-0.82-0.42-1.65-0.68-2.59-0.19c-1.06,0.55-1.32,0.46-1.99-0.52
		c-0.44-0.64-1.04-0.92-1.76-0.83c-1.13,0.15-2.14,0.52-2.54,1.76c-0.21,0.66-0.68,0.95-1.4,0.98c-0.45,0.02-0.96,0.19-1.32,0.46
		c-1.77,1.32-1.49,4.07,0.47,5.03c0.16,0.08,0.33,0.15,0.49,0.24c0.65,0.36,0.74,0.72,0.45,1.41c-0.14,0.34-0.3,0.82-0.17,1.09
		c0.35,0.67,0.76,1.37,1.33,1.83c0.49,0.39,1.22,0.52,1.86,0.67c0.35,0.08,0.74-0.03,1.12-0.06c0.03,0.06,0.06,0.12,0.09,0.18
		C245.07,161.21,245.48,161.12,245.98,161.41z M242.38,154.11c0.11,0.47,0.13,0.83,0.28,1.14c0.19,0.41,0.35,0.8-0.11,1.08
		c-0.47,0.28-0.83-0.01-1.09-0.41c-0.94-1.42-0.27-2.92,1.42-3.25c0.15-0.03,0.27-0.2,0.4-0.32c0.46-0.4,0.88-0.88,1.39-1.18
		c0.81-0.48,1.64-0.31,2.19,0.3c0.63,0.7,0.81,1.95,0.31,2.61c-0.16,0.2-0.57,0.38-0.79,0.32c-0.22-0.06-0.36-0.44-0.52-0.69
		c-0.03-0.04,0-0.13,0.02-0.2c0.1-0.4,0.26-0.93-0.23-1.06c-0.28-0.07-0.7,0.3-1.02,0.52c-0.15,0.11-0.25,0.33-0.33,0.51
		C243.82,154.53,243.63,154.61,242.38,154.11z M244.4,158.18c-0.1-0.27,0.07-0.64,0.12-0.97c0.32,0.08,0.65,0.13,0.96,0.25
		c0.13,0.05,0.2,0.22,0.38,0.42c0.23-1.01,0.41-1.08,1.28-1.01c0.28,0.02,0.63-0.28,0.88-0.51c0.15-0.14,0.16-0.42,0.23-0.63
		c0.14-0.43,0.42-0.66,0.87-0.54c0.47,0.12,0.55,0.5,0.49,0.92c-0.15,1.12-0.95,1.98-2.07,2.3c-0.17,0.05-0.34,0.19-0.44,0.34
		c-0.5,0.74-1.29,0.9-1.99,0.33C244.83,158.83,244.53,158.52,244.4,158.18z"/>
	<path class="st7" d="M40.85,167c-0.84,0.61-1.07,1.43-1.12,2.21c0,1.28,0.27,1.65,1.35,1.88c0.7,0.15,1.14,0.52,1.36,1.2
		c0.07,0.22,0.15,0.43,0.25,0.64c0.41,0.83,1.44,1.02,2.16,0.44c0.16-0.13,0.45-0.26,0.61-0.2c1.1,0.39,1.63-0.34,2.21-1.04
		c0.23-0.27,0.5-0.63,0.8-0.7c1.55-0.35,1.51-1.74,0.9-2.82c-0.15-0.28-0.22-0.65-0.2-0.97c0.06-0.97-0.15-1.36-1.08-1.6
		c-0.43-0.11-0.91-0.17-1.35-0.12c-0.78,0.09-1.31-0.19-1.74-0.82c-0.62-0.92-1.12-1.08-2.07-0.52c-0.48,0.28-0.8,0.83-1.17,1.27
		C41.45,166.21,41.24,166.72,40.85,167z"/>
	<path class="st8" d="M177.39,63.45c2.13,0.98,4.36,1.65,6.76,1.51c1.85-0.11,3.33-0.74,3.91-2.69c0.33-1.11,0.61-2.24,0.97-3.35
		c0.86-2.64,0.43-5.21-0.52-7.71c-1.18-3.09-3.17-5.64-5.57-7.87c-0.72-0.67-1.58-1.18-2.37-1.76c-0.06,0.05-0.12,0.09-0.17,0.14
		c0.29,2.24,0.58,4.47,0.86,6.71c0.05,0.41,0.1,0.82,0.08,1.23c-0.05,0.96-0.69,1.45-1.63,1.24c-0.44-0.1-0.87-0.27-1.3-0.43
		c-1.25-0.48-2.49-0.97-3.88-1.51c0.18,0.55,0.31,0.95,0.45,1.35c0.52,1.56,1.12,3.1,1.54,4.68c0.37,1.38-0.16,1.95-1.57,1.69
		c-1.66-0.3-3.29-0.74-4.93-1.16c-1.05-0.27-2.08-0.62-3.27-0.97c0.31,1.24,1.01,2.04,1.76,2.82
		C171.03,60.02,174.09,61.94,177.39,63.45z"/>
</g>
</svg>
