<?xml version="1.0" encoding="utf-8"?>
<!-- Generator: Adobe Illustrator 26.3.1, SVG Export Plug-In . SVG Version: 6.00 Build 0)  -->
<svg version="1.1" id="Layer_1" xmlns="http://www.w3.org/2000/svg" xmlns:xlink="http://www.w3.org/1999/xlink" x="0px" y="0px"
	 width="300px" height="300px" viewBox="0 0 300 300" style="enable-background:new 0 0 300 300;" xml:space="preserve">
<style type="text/css">
	.st0{fill:#241F20;}
	.st1{fill:#F1BA50;}
	.st2{fill:#010101;}
	.st3{fill:#F69162;}
	.st4{fill:#DFB1D2;}
	.st5{fill:#A1CBD7;}
	.st6{fill:#F2BB51;}
	.st7{fill:#F69A93;}
	.st8{fill:#F9BE7C;}
</style>
<g>
	<g>
		<g>
			<path class="st0" d="M47.6,122.1C47.6,122.1,47.6,122.1,47.6,122.1c0.1,0.4,0.1,0.8,0.1,1.2c0,0.4,0,0.9,0,1.3
				c0,0.2-0.1,0.4-0.1,0.4c-0.1,0.1-0.3,0.1-0.5,0.1c-0.1,0-0.1,0-0.2,0c-0.1,0-0.1,0-0.2,0c-1.3-0.2-2.6-0.5-3.8-0.7
				c-1.2-0.2-2.6-0.4-3.8-0.7c-1-0.2-2-0.4-3-0.6c-0.9-0.2-1.9-0.3-2.9-0.6c-0.3-0.1-0.6-0.1-0.8-0.1c-0.3,0-0.5-0.1-0.8-0.2
				c-0.3-0.1-0.5-0.2-0.6-0.3c-0.1-0.1-0.2-0.3-0.2-0.6c0-0.1,0-0.2-0.1-0.2c0-0.1,0-0.1,0-0.2c0-1,0.1-2.1,0.1-3c0-1-0.1-2-0.1-3
				c-0.1-3.5-0.2-7.1-0.3-10.6c-0.1-3.5-0.3-7.1-0.5-10.6c-0.1-2.9-0.2-5.8-0.2-8.7c0-2.9-0.1-5.7-0.1-8.6c0-0.2,0-0.4,0-0.5
				c0-0.1,0-0.3,0.1-0.4c0-0.1,0.1-0.2,0.1-0.3c0.1-0.1,0.2,0,0.3,0c0.2,0,0.5,0.1,0.8,0.1c0.2,0.1,0.5,0.1,0.8,0.1
				c2.3,0.4,4.6,0.9,6.9,1.2c2.3,0.4,4.6,0.7,6.9,1.1c0.2,0,0.4,0.1,0.5,0.2c0.1,0.1,0.2,0.3,0.2,0.6c0,0.5,0,1.2,0.1,1.7
				c0,0.6,0,1.2,0.1,1.7c0,0.3,0,0.7,0.1,1c0,0.3,0.1,0.6,0.1,0.9c0,0.3-0.1,0.5-0.2,0.5c-0.1,0.1-0.3,0.1-0.6,0.1
				c-0.3,0-0.5-0.1-0.8-0.1c-0.3,0-0.5-0.1-0.8-0.1c-0.7-0.1-1.5-0.2-2.2-0.3c-0.7-0.1-1.5-0.2-2.2-0.3c-0.5-0.1-1-0.2-1.6-0.3
				c-0.5-0.1-1-0.1-1.5-0.2c-0.1,0-0.2,0-0.2,0c0,0-0.1,0.1-0.1,0.2c0.1,3.1,0.2,6.3,0.3,9.6c0.2,3.2,0.3,6.4,0.3,9.5
				c0,0.7,0.1,1,0.2,1.1c0.1,0.1,0.5,0.3,1.1,0.4c0.5,0.1,1.1,0.1,1.6,0.2c0.5,0.1,1.1,0.1,1.6,0.2c0.2,0,0.4,0,0.6,0.1
				c0.2,0,0.4,0.1,0.6,0.1c0.2,0,0.3,0.1,0.4,0.2c0.1,0.1,0.1,0.2,0.1,0.4c0.1,0.9,0.1,1.9,0.2,2.8c0.1,0.9,0.2,1.8,0.2,2.8
				c0,0.2,0,0.3-0.1,0.4c-0.1,0.1-0.2,0.1-0.5,0.1c-0.2,0-0.5,0-0.8,0c-0.2,0-0.5-0.1-0.8-0.1c-0.6-0.1-1.1-0.1-1.7-0.2
				c-0.6-0.1-1.1-0.2-1.7-0.3c-0.5-0.1-0.8-0.1-0.9-0.1c-0.1,0.1-0.1,0.3-0.1,0.8c0,0.9,0,1.8,0.1,2.6c0,0.9,0.1,1.8,0.1,2.6
				c0,0.1,0,0.2,0.1,0.3c0,0,0.1,0.1,0.2,0.1c0.7,0.1,1.6,0.3,2.3,0.5c0.7,0.2,1.6,0.3,2.4,0.4c0.8,0.1,1.5,0.2,2.3,0.4
				c0.8,0.1,1.6,0.3,2.4,0.4c0.2,0,0.4,0.1,0.4,0.3c0,0.2,0.1,0.3,0.1,0.5c0,0.3,0,0.8,0,1.2c0,0.4,0,0.8,0,1.2c0,0.1,0,0.2,0,0.2
				C47.6,121.9,47.6,122,47.6,122.1z"/>
			<path class="st0" d="M66.6,97.9c0,0,0.1,0.1,0.1,0.1c0.2-0.6,0.5-1.2,0.7-1.8c0.2-0.6,0.5-1.1,0.7-1.7c0.8-1.9,1.6-3.8,2.3-5.6
				c0.7-1.8,1.5-3.7,2.3-5.5c0.2-0.5,0.4-1.1,0.6-1.6c0.2-0.5,0.5-1,0.8-1.5c0-0.1,0-0.2,0.1-0.2c0.1,0,0.2-0.1,0.3-0.1
				c1,0,2.1,0,3.2,0.1c1.1,0,2.2,0.1,3.2,0.1c0.2,0,0.3,0,0.3,0.1c0.1,0.1,0.1,0.2,0.1,0.4c0,0,0,0.1,0,0.1c0,4.2,0.1,8.4,0.1,12.5
				c0,4.1,0,8.4,0.1,12.5c0,3.5,0,7.2,0,10.7s0,7.2,0.1,10.8c0,0.3,0,0.6-0.1,0.6c-0.1,0.1-0.3,0.1-0.7,0.1c-0.9,0-1.8,0-2.7,0
				c-0.9,0-1.8,0-2.8,0c-0.3,0-0.5-0.1-0.6-0.1c-0.1,0-0.1-0.2-0.2-0.5c0-0.1,0-0.2,0-0.3c0-0.1,0-0.2,0-0.2c0-0.4,0-0.8,0-1.2
				c0-0.3,0-0.7,0-1c0-4.4,0-8.7-0.1-13.1c0-4.4-0.1-8.7-0.1-13.1c0,0,0-0.1,0-0.2c0,0,0-0.1,0-0.2c-0.3,0.7-0.6,1.4-0.9,2
				c-0.3,0.6-0.5,1.2-0.8,1.9c-0.5,1-0.9,2.1-1.3,3.1c-0.4,1.1-0.9,2.2-1.3,3.2c-0.1,0.2-0.2,0.3-0.3,0.3c-0.1,0-0.2,0.1-0.3,0
				c-0.7-0.2-1.8-0.2-2.6-0.3c-0.9-0.1-1.9-0.3-2.6-0.2c-0.1,0-0.3,0-0.3-0.1c-0.1-0.1-0.2-0.2-0.2-0.3c-0.3-0.7-0.7-1.5-1-2.2
				c-0.3-0.7-0.7-1.5-1-2.2c-0.5-1.1-1-2.2-1.5-3.3c-0.5-1.1-0.9-2.2-1.4-3.3c0,0,0,0,0-0.1c0,0-0.1,0-0.1-0.1c0,0.1,0,0.2,0,0.3
				c0,0.1,0,0.2,0,0.3c0,0.1,0,0.1,0,0.2c0,0.1,0,0.1,0,0.2c0,4,0.1,8.1,0.1,12.1c0.1,4,0,8,0,12c0,0.7,0,1.4,0.1,2.1
				c0,0.7,0.1,1.4,0.1,2.1c0,0.2,0,0.4-0.1,0.5c-0.1,0.1-0.2,0.2-0.5,0.1c-1-0.1-2-0.2-3-0.3c-1-0.1-1.9-0.2-2.9-0.4
				c-0.2,0-0.3-0.1-0.3-0.2c-0.1-0.1-0.1-0.2-0.1-0.3c0-0.1-0.1-0.1-0.1-0.2c0,0,0-0.1,0-0.1c-0.1-2.4-0.1-4.7-0.1-7.1
				c0-2.3,0-4.6-0.1-7c0-2.3-0.1-4.6-0.1-6.8c0-2.2,0-4.6-0.1-6.9c0-2.2,0-4.5,0-6.7c0-2.3,0-4.5-0.1-6.8c0-0.7,0-1.4,0-2
				c0-0.7-0.1-1.4-0.1-2.1c0-0.2,0-0.5,0.1-0.7c0-0.2,0-0.5,0-0.8c0-0.1,0-0.2,0.1-0.2c0,0,0.1,0,0.2,0c0.3,0,0.6,0,0.9,0.1
				c0.3,0,0.5,0.1,0.8,0.1c0.7,0.1,1.5,0.1,2.2,0.2c0.7,0.1,1.5,0.1,2.2,0.2c0.2,0,0.3,0.1,0.4,0.1c0.1,0.1,0.1,0.2,0.2,0.4
				c0.1,0.3,0.2,0.6,0.3,0.8c0.1,0.3,0.2,0.6,0.4,0.8c1.2,2.8,2.5,5.6,3.7,8.4c1.2,2.7,2.4,5.5,3.7,8.3
				C66.6,97.9,66.6,97.9,66.6,97.9z"/>
			<path class="st0" d="M113.9,100.5c0,0.6,0.1,1.2,0.1,1.7c0,2.4-0.3,4.9-0.6,7.3c-0.3,2.4-0.9,4.8-1.7,7.2
				c-0.4,1.2-0.9,2.4-1.4,3.6c-0.6,1.1-1.2,2.3-2,3.4c-0.7,0.9-1.5,1.8-2.4,2.5c-0.9,0.7-1.9,1.3-2.9,1.6c-0.8,0.3-1.6,0.5-2.4,0.5
				c-0.5,0-0.9,0-1.4,0c-1.2-0.2-2.4-0.6-3.5-1.3c-1-0.6-1.8-1.4-2.5-2.2c-0.7-0.8-1.3-1.7-1.9-2.7c-0.9-1.6-1.6-3.3-2.1-4.9
				c-0.5-1.7-0.9-3.4-1.2-5.2c-0.1-0.9-0.3-1.7-0.4-2.5c-0.1-0.8-0.2-1.7-0.2-2.6c-0.1-0.9-0.1-1.8-0.1-2.7c0-0.1,0-0.2,0-0.3
				c0-0.8,0-1.6,0-2.3c0.1-2.3,0.4-4.6,0.9-6.9c0.4-2.3,1.1-4.5,2-6.8c0.5-1.2,1.1-2.4,1.7-3.5c0.7-1.1,1.5-2.1,2.4-3.1
				c1-1,2.1-1.7,3.3-2.2c0.9-0.4,1.8-0.6,2.9-0.7c0.3,0,0.6,0,0.9-0.1c0.9,0,1.8,0.2,2.6,0.5c0.8,0.3,1.6,0.7,2.3,1.2
				c1,0.8,1.9,1.6,2.7,2.6c0.7,1,1.3,2.1,1.8,3.3c0.6,1.3,1.2,2.8,1.6,4.2c0.4,1.5,0.7,3,1,4.5c0.1,0.7,0.2,1.4,0.3,2
				c0.1,0.6,0.1,1.3,0.2,1.9C113.8,99.3,113.9,99.9,113.9,100.5z M106.4,109.2c0.3-2,0.3-4.3,0.5-6.3c0-0.3,0-0.5,0-0.8
				c0-0.3-0.1-0.5-0.1-0.8c0-1-0.1-2.1-0.2-3c-0.1-1-0.3-2-0.5-3c-0.2-1.2-0.5-2.5-0.9-3.6c-0.4-1.2-0.9-2.3-1.6-3.5
				c-0.2-0.4-0.5-0.8-0.8-1.2c-0.3-0.4-0.7-0.8-1.1-1.1c-0.2-0.2-0.5-0.4-0.8-0.5c-0.2-0.1-0.6-0.1-0.9,0.1
				c-0.3,0.1-0.5,0.3-0.8,0.5c-0.2,0.2-0.4,0.4-0.6,0.6c-0.6,0.7-1.1,1.4-1.5,2.2c-0.4,0.8-0.7,1.6-1,2.4c-0.8,2.2-1.3,4.4-1.6,6.6
				c-0.3,2.2-0.4,4.5-0.3,6.7c0,0.8,0,1.7,0.1,2.5c0.1,0.8,0.2,1.7,0.3,2.6c0.2,1.2,0.4,2.3,0.7,3.5c0.3,1.1,0.7,2.3,1.1,3.4
				c0.3,0.8,0.8,1.6,1.2,2.3c0.4,0.7,1,1.3,1.6,1.9c0.4,0.3,0.8,0.5,1.1,0.5c0.4,0,0.8-0.1,1.1-0.4c0.1,0,0.2-0.1,0.3-0.2
				c0.1-0.1,0.2-0.1,0.2-0.2c0.7-0.7,1.3-1.5,1.7-2.3c0.4-0.8,0.8-1.7,1.2-2.6C105.6,113.4,106.1,111.3,106.4,109.2z"/>
			<path class="st0" d="M124.4,124.4c0-0.4,0-0.9,0-1.3c0-6.1,0-12.2-0.1-18.2c-0.1-6.1-0.2-12.2-0.2-18.3c0-0.5,0-1.1,0-1.7
				c0-0.5,0-1.1,0-1.7c0-0.2,0-0.3-0.1-0.4c-0.1-0.1-0.2-0.1-0.4-0.1c-0.2,0-0.5,0-0.8,0c-0.2,0-0.5,0.1-0.7,0.1
				c-0.6,0.1-1.2,0.2-1.8,0.2c-0.6,0-1.2,0.1-1.8,0.2c-0.3,0-0.5,0-0.6-0.1c-0.1-0.1-0.2-0.3-0.2-0.5c0.1-0.9,0.1-1.9,0.1-2.8
				c0-0.9,0-1.9,0.1-2.8c0-0.3,0.1-0.5,0.2-0.7c0.1-0.1,0.4-0.2,0.7-0.2c1.5-0.2,3-0.3,4.5-0.5c1.5-0.2,3-0.4,4.5-0.5
				c0.8-0.1,1.5-0.1,2.3-0.2c0.8-0.1,1.5-0.3,2.3-0.3c0.8-0.1,1.7-0.2,2.5-0.3c0.8-0.1,1.7-0.2,2.5-0.3c0.2,0,0.4-0.1,0.6-0.1
				c0.2,0,0.4,0,0.6,0c0.1,0,0.3,0,0.3,0.1c0.1,0.1,0.1,0.2,0.1,0.3c0,0.2,0,0.4,0,0.6c0,0.2,0,0.3,0,0.5c-0.1,0.7-0.1,1.5-0.1,2.2
				c0,0.7,0,1.5,0,2.3c0,0.4-0.1,0.8-0.2,0.9c-0.1,0.2-0.4,0.3-0.9,0.3c-0.8,0-1.6,0.1-2.4,0.3c-0.8,0.1-1.6,0.2-2.4,0.3
				c-0.2,0-0.4,0.1-0.6,0.1c-0.2,0-0.5,0-0.7,0c-0.1,0-0.3,0.1-0.3,0.1c0,0-0.1,0.2-0.1,0.4c0,0.9,0,1.9,0,2.9c0,0.9,0,1.9,0.1,2.9
				c0,1.4,0,2.7,0,4.1c0,1.4,0,2.7,0.1,4.1c0.1,3.3,0.1,6.8,0.1,10.2c0,3.4,0,6.8,0.1,10.2c0,1.4,0.1,2.8,0.1,4.2
				c0,1.4,0,2.9,0.1,4.3c0,0.3,0,0.4-0.1,0.5c-0.1,0.1-0.3,0.2-0.6,0.3c-0.9,0.1-1.8,0.2-2.7,0.4c-0.9,0.1-1.8,0.3-2.6,0.4
				c-0.5,0.1-0.8,0-0.9-0.1c-0.1-0.1-0.2-0.4-0.2-0.8C124.4,125.3,124.4,124.8,124.4,124.4z"/>
			<path class="st0" d="M152.2,76.8c0,0.7,0,1.4,0,2.1c0,1.7-0.1,3.5-0.1,5.1c0,1.7,0,3.4-0.1,5.1c0,1,0,2.1,0,3.2
				c0,1,0,2.1-0.1,3.2c0,1.2-0.1,2.4-0.1,3.6c0,1.2,0,2.5-0.1,3.8c0,1,0,2.1,0,3.1c0,1,0,2.1-0.1,3.1c0,1.2,0,2.4,0,3.6
				c0,1.1,0,2.3-0.1,3.5c0,0.8-0.1,1.6-0.1,2.4c0,0.8,0,1.6,0,2.4c0,0.3-0.1,0.6-0.2,0.7c-0.1,0.1-0.3,0.1-0.5,0.2
				c-0.1,0-0.2,0-0.2,0c-0.7-0.1-1.9,0.3-2.8,0.4c-0.9,0.1-1.8,0.2-2.8,0.4c-0.2,0-0.4,0-0.5,0c-0.1-0.1-0.1-0.2-0.1-0.3
				c0-0.1,0-0.1,0-0.2c0-2,0-4,0-6c0-2,0-4,0.1-6c0-0.7,0.1-1.5,0.1-2.2c0-0.7,0-1.5,0-2.3c0-1.5,0-3.1,0.1-4.6c0-1.5,0-3.1,0.1-4.6
				c0-1,0.1-2,0.1-3c0-1,0-2,0-2.9c0-1.2,0.1-2.5,0.1-3.7c0-1.2,0-2.5,0.1-3.7c0-0.9,0.1-1.9,0.1-2.8c0-0.9,0-1.9,0-2.8
				c0-0.7,0-1.4,0.1-2c0-0.6,0-1.3,0-2c0-0.3,0.1-0.5,0.2-0.7c0.1-0.1,0.3-0.2,0.6-0.3c0,0,0.1,0,0.2,0c0.7-0.1,1.3-0.2,2-0.3
				c0.6-0.1,1.3-0.2,2-0.2c0.2,0,0.4-0.1,0.6-0.1c0.2,0,0.5-0.1,0.7-0.1c0.3-0.1,0.6,0,0.7,0.1c0.1,0.1,0.2,0.3,0.2,0.7
				c0,0.4,0,0.8,0.1,1.1c0,0.1,0,0.3,0,0.4c0,0.2,0,0.5-0.1,0.8C152.2,75.4,152.2,76.1,152.2,76.8z"/>
			<path class="st0" d="M184.7,90.8c0,0.6,0.1,1.2,0.1,1.7c0,2.4-0.2,4.9-0.6,7.3c-0.3,2.4-0.9,4.8-1.7,7.3
				c-0.4,1.2-0.9,2.5-1.4,3.6c-0.5,1.2-1.2,2.4-2,3.4c-0.7,0.9-1.5,1.8-2.4,2.6c-0.9,0.8-1.9,1.4-2.9,1.8c-0.8,0.3-1.6,0.6-2.4,0.7
				c-0.5,0.1-0.9,0.1-1.4,0.1c-1.2-0.1-2.4-0.4-3.5-1c-1-0.5-1.8-1.2-2.5-2c-0.7-0.7-1.3-1.6-1.9-2.5c-0.9-1.5-1.6-3.1-2.1-4.7
				c-0.5-1.6-0.9-3.3-1.2-5c-0.1-0.9-0.3-1.7-0.4-2.5c-0.1-0.8-0.2-1.7-0.2-2.6c-0.1-0.9-0.1-1.8-0.1-2.6c0-0.1,0-0.2,0-0.3
				c0-0.8,0-1.6,0-2.3c0.1-2.3,0.4-4.7,0.9-7c0.4-2.3,1.1-4.7,2-7c0.5-1.3,1.1-2.5,1.7-3.7c0.7-1.2,1.5-2.3,2.4-3.3
				c1-1.1,2.1-1.9,3.3-2.5c0.9-0.5,1.8-0.8,2.9-0.9c0.3,0,0.6-0.1,0.9-0.1c0.9,0,1.8,0.1,2.6,0.3c0.8,0.3,1.6,0.6,2.3,1.1
				c1,0.7,1.9,1.6,2.7,2.5c0.7,1,1.3,2.1,1.8,3.2c0.6,1.3,1.2,2.7,1.6,4.2c0.4,1.5,0.7,3,1,4.5c0.1,0.7,0.2,1.4,0.3,2
				c0.1,0.6,0.1,1.3,0.2,1.9C184.6,89.5,184.6,90.1,184.7,90.8z M177.2,99.7c0.3-2.1,0.3-4.3,0.5-6.3c0-0.3,0-0.5,0-0.8
				c0-0.3-0.1-0.5-0.1-0.8c0-1-0.1-2.1-0.2-3c-0.1-1-0.3-2-0.5-3c-0.2-1.2-0.5-2.4-0.9-3.6c-0.4-1.2-0.9-2.3-1.6-3.4
				c-0.2-0.4-0.5-0.8-0.8-1.2c-0.3-0.4-0.7-0.7-1.1-1.1c-0.2-0.2-0.5-0.3-0.8-0.4c-0.2-0.1-0.6,0-0.9,0.1c-0.3,0.1-0.5,0.3-0.8,0.5
				c-0.2,0.2-0.4,0.4-0.6,0.6c-0.6,0.7-1.1,1.5-1.5,2.4c-0.4,0.8-0.7,1.7-1,2.5c-0.8,2.3-1.3,4.5-1.6,6.7c-0.3,2.2-0.4,4.5-0.3,6.8
				c0,0.8,0,1.7,0.1,2.5c0.1,0.8,0.2,1.7,0.3,2.6c0.2,1.2,0.4,2.3,0.7,3.4c0.3,1.1,0.7,2.3,1.1,3.3c0.3,0.7,0.8,1.5,1.2,2.2
				c0.4,0.7,1,1.3,1.6,1.8c0.4,0.3,0.8,0.4,1.1,0.4c0.4,0,0.8-0.1,1.1-0.4c0.1,0,0.2-0.1,0.3-0.2c0.1-0.1,0.2-0.1,0.2-0.3
				c0.7-0.8,1.3-1.6,1.7-2.4c0.4-0.9,0.8-1.8,1.2-2.7C176.4,103.9,176.9,101.8,177.2,99.7z"/>
			<path class="st0" d="M196.7,87.8c0-0.1-0.1-0.1-0.1-0.2c0,0.3-0.1,0.7-0.1,1c0,0.3,0.1,0.6,0.1,0.9c0,2.2,0,4.4,0,6.6
				c0,2.2,0,4.5,0.1,6.6c0,1.9,0,3.8,0.1,5.7c0,1.9,0,3.8,0,5.7c0,0.3-0.1,0.6-0.2,0.7c-0.1,0.1-0.3,0.1-0.6,0.2
				c-0.9,0.1-1.8,0.2-2.7,0.3c-0.9,0.1-1.8,0.2-2.8,0.3c-0.3,0-0.5,0-0.6-0.1s-0.2-0.3-0.2-0.6c0,0,0,0,0-0.1c0-2.7,0-5.4,0-8.1
				c0-2.7-0.1-5.4-0.1-8.1c0-3.1,0-6.2,0-9.4c0-3.1,0-6.2-0.1-9.3c0-1.9-0.1-3.8-0.1-5.8c0-1.9,0-3.8,0-5.7c0-0.1,0-0.2,0-0.2
				c0-0.1,0-0.2,0-0.2c0-0.1,0.1-0.2,0.1-0.2c0-0.1,0.1-0.1,0.2-0.1c1-0.1,2.1-0.3,3.1-0.4c1-0.1,2.1-0.2,3.1-0.2c0.2,0,0.2,0,0.3,0
				c0.1,0.1,0.2,0.2,0.2,0.3c1.1,2.9,2.3,5.7,3.4,8.6c1.1,2.8,2.2,5.8,3.3,8.6c0.8,1.9,1.5,3.8,2.3,5.7c0.7,1.9,1.5,3.8,2.3,5.7
				c0,0,0,0.1,0.1,0.1c0,0,0,0.1,0,0.1c0.1,0,0.1-0.1,0.1-0.1c0,0,0-0.1,0-0.1c0.1-0.7,0.1-1.4,0.2-2.1c0-0.7,0-1.4,0.1-2.1
				c0-0.8,0.2-1.7,0.2-2.6c0.1-0.9,0.2-1.7,0.2-2.6c0.2-2.7,0.4-5.5,0.6-8.3c0.2-2.7,0.3-5.6,0.5-8.3c0.1-0.7,0.1-1.4,0.2-2.1
				c0.1-0.7,0.1-1.4,0.2-2.1c0-0.1,0-0.2,0-0.3c0-0.1,0-0.2,0-0.3c0-0.1,0-0.2,0.1-0.4c0,0,0.1-0.1,0.2-0.1c0,0,0.1,0,0.1,0
				c0.5,0,1.1,0,1.6,0c0.5,0,1.1,0,1.6,0c0.5,0,1,0,1.5,0c0.5,0,1.1,0,1.5,0c0.1,0,0.3,0.1,0.4,0.2c0,0,0.1,0.1,0.1,0.2
				c0,0,0,0.1,0,0.2c0,0.5-0.1,1-0.1,1.5c0,0.5-0.1,1.1-0.1,1.6c0,0.4-0.1,0.9-0.1,1.3c0,0.4,0,0.8-0.1,1.3
				c-0.5,6.9-0.9,13.8-1.4,20.7c-0.5,6.9-1,13.8-1.5,20.7c0,0.1,0,0.3-0.1,0.5c0,0.2-0.1,0.3-0.1,0.5c0,0.1-0.1,0.2-0.2,0.3
				c-0.1,0.1-0.2,0.1-0.3,0.1c-0.5,0-1.1,0-1.7,0c-0.6,0-1.2,0-1.8,0c-0.3,0-0.7,0-1.1,0s-0.8,0-1.2,0c-0.2,0-0.3,0-0.5-0.1
				c-0.1-0.1-0.2-0.2-0.2-0.4c-0.3-0.9-0.7-1.8-1-2.6c-0.3-0.8-0.7-1.7-1-2.5c-1.3-3.4-2.7-6.9-4-10.2c-1.3-3.4-2.7-6.8-4-10.2
				C196.8,87.9,196.8,87.8,196.7,87.8z"/>
			<path class="st0" d="M256.6,113c0,0.1,0.1,0.2,0.1,0.3c0,0.2-0.1,0.3-0.1,0.3c0,0.1-0.1,0.2-0.3,0.2c-0.9,0.1-1.8,0.2-2.8,0.3
				c-0.9,0.1-1.8,0.3-2.7,0.4c-0.1,0-0.2,0-0.2,0c-0.2,0-0.3-0.1-0.3-0.2c-0.1-0.1-0.2-0.3-0.3-0.7c-0.3-1-0.5-2.1-0.8-3.1
				c-0.2-1.1-0.5-2.1-0.8-3.1c-0.2-1-0.5-2-0.8-3c-0.3-1-0.5-2-0.8-3c0-0.2-0.1-0.3-0.2-0.4c-0.1-0.1-0.3-0.1-0.4-0.1
				c-1.4-0.1-2.8-0.2-4.2-0.3c-1.4-0.1-2.8-0.1-4.2-0.2c-1,0-2.1,0-3.2,0c-1.1,0-2.1,0-3.2-0.1c-0.2,0-0.3,0-0.3,0.1
				c-0.1,0.1-0.1,0.2-0.2,0.3c-0.7,1.7-1.3,3.4-2,5.1c-0.7,1.7-1.3,3.4-2,5.1c-0.2,0.6-0.4,0.9-0.6,0.9c-0.1,0.1-0.5,0-1.1-0.2
				c-0.7-0.3-1.4-0.5-2.1-0.8c-0.7-0.3-1.4-0.6-2.1-0.8c-0.4-0.1-0.6-0.3-0.7-0.4c0,0-0.1-0.1-0.1-0.2c0-0.2,0-0.4,0.1-0.6
				c0.4-1.1,0.8-2.2,1.2-3.2c0.4-1,0.8-2.1,1.2-3.1c1.1-2.8,2.2-5.7,3.2-8.4c1.1-2.8,2.1-5.6,3.2-8.3c1.2-3.2,2.5-6.4,3.7-9.6
				c1.2-3.2,2.5-6.4,3.7-9.5c0-0.2,0.1-0.3,0.2-0.3c0.1-0.1,0.2-0.1,0.4-0.1c1,0,1.9,0,2.9,0c0.2,0,0.5,0,0.8,0
				c1.2,0.1,2.6,0.3,3.6,0.3c0.2,0,0.3,0,0.4,0.2c0,0.1,0.1,0.2,0.1,0.4c0.4,1.6,0.8,3.2,1.2,4.8c0.4,1.6,0.8,3.2,1.2,4.8
				c0.9,3.5,1.8,6.9,2.6,10.4c0.8,3.5,1.7,7,2.5,10.4c0.6,2.5,1.2,5.1,1.8,7.6c0.6,2.5,1.2,5,1.8,7.6
				C256.5,112.7,256.6,112.8,256.6,113z M241.6,80.3c-0.3-1.3-0.7-2.7-1-4c0,0,0,0.1-0.1,0.2c0,0.1-0.1,0.1-0.1,0.2
				c-0.5,1.4-1.1,2.9-1.7,4.3c-0.5,1.4-1.1,2.9-1.7,4.4c-0.5,1.2-1,2.6-1.5,3.9c-0.5,1.3-1,2.6-1.5,3.9c-0.1,0.2-0.2,0.3-0.1,0.3
				c0,0.1,0.2,0.1,0.4,0.1c0.3,0,0.6,0,0.9,0c0.3,0,0.6,0,0.9,0c1.4,0,2.8,0.1,4.2,0.2c1.4,0.1,2.9,0.1,4.2,0.2c0.2,0,0.3,0,0.4-0.1
				c0-0.1,0-0.2-0.1-0.4c-0.4-1.5-0.7-3.1-1.1-4.5c-0.4-1.5-0.8-3.1-1.2-4.6C242.3,83,241.9,81.6,241.6,80.3z"/>
			<path class="st0" d="M276.3,118.3c-0.3-0.1-0.7-0.2-1.1-0.3c-1-0.3-2.2-0.5-3.2-0.7c-1.1-0.2-2.1-0.4-3.2-0.6
				c-1-0.2-1.9-0.3-2.8-0.4c-1-0.1-1.9-0.3-2.8-0.5c-0.2,0-0.4-0.1-0.6-0.1c-0.1,0-0.2,0-0.2,0c-0.1,0-0.2-0.1-0.3-0.1
				c-0.2-0.1-0.5-0.1-0.6-0.3c-0.1-0.1-0.2-0.3-0.2-0.6c0-0.8,0-1.7,0-2.5c0-0.9,0-1.7-0.1-2.5c0-1.4-0.1-2.9-0.1-4.3
				c0-1.4,0-2.9-0.1-4.3c0-0.6-0.1-1.3-0.1-1.9c0-0.6,0-1.3,0-1.9c0-1.4-0.1-2.8-0.1-4.1c0-1.3,0-2.8-0.1-4.1c0-0.6-0.1-1.3-0.1-1.9
				c0-0.7,0-1.3,0-2c0-1.4-0.1-2.9-0.1-4.2c0-1.4-0.1-2.9-0.1-4.2c0-0.7,0-1.4,0-2.1c0-0.7-0.1-1.5-0.1-2.2
				c-0.1-0.6-0.1-1.2-0.1-1.9c0-0.2,0-0.5,0.1-0.7c0.1-0.8,0-1.7-0.1-2.6c0-0.2,0.1-0.4,0.2-0.5c0.1-0.1,0.3-0.1,0.5,0
				c0.9,0.1,1.9,0.3,2.8,0.4c0.6,0.1,1.2,0.2,1.8,0.3c0.3,0.1,0.6,0.1,1,0.2c0.3,0.1,0.5,0.1,0.5,0.2c0.1,0.1,0.1,0.3,0.1,0.5
				c0,0.7,0,1.3,0.1,1.9c0,0.6,0,1.2,0,1.8c0,0.8,0,1.7,0.1,2.6c0,0.8,0,1.7,0.1,2.6c0,0.6,0.1,1.2,0.1,1.8c0,0.6,0,1.2,0,1.7
				c0,1.4,0.1,2.8,0.1,4.2c0,1.4,0,2.8,0.1,4.2c0,0.6,0.1,1.2,0.1,1.9c0,0.6,0,1.2,0,1.8c0,1.4,0.1,2.9,0.1,4.2c0,1.4,0,2.9,0.1,4.2
				c0,0.6,0.1,1.3,0.1,1.9c0,0.6,0,1.3,0.1,1.9c0,0.7,0,1.4,0.1,2.1c0,0.6,0.1,1.3,0.1,2c0,0.2,0,0.3,0.1,0.3c0,0,0.1,0.1,0.3,0.1
				c0.8,0.2,1.7,0.3,2.5,0.5c0.8,0.2,1.7,0.3,2.5,0.5c0.6,0.1,1.3,0.3,2,0.4c0.6,0.2,1.3,0.3,1.9,0.5c0.2,0.1,0.3,0.1,0.4,0.2
				c0.1,0.1,0.2,0.3,0.2,0.4c0,0.1,0,0.2,0,0.2c0,0.1,0.1,0.2,0.1,0.2c0,0.7,0,1.4,0.1,2.1c0,0.7,0,1.5,0.1,2.2c0,0.2,0,0.4,0,0.5
				c0,0.2,0.1,0.4,0.1,0.6c0,0.3-0.1,0.4-0.2,0.5c-0.1,0.1-0.3,0.1-0.6,0C277.1,118.4,276.7,118.4,276.3,118.3z"/>
			<path class="st0" d="M65.6,131.7c0.2,0,0.4,0,0.5,0c0.1,0,0.2,0,0.2,0c1.2,0.1,2.2,0.3,3.2,0.8c1,0.4,2.1,1,3,1.8
				c1.3,1.1,2.3,2.3,2.9,3.6c0.7,1.4,1.2,2.9,1.6,4.4c0.2,0.9,0.4,1.8,0.5,2.7c0.1,0.9,0.1,1.8,0.1,2.8c0,0.4,0,0.8-0.1,1.2
				c0,0.4-0.1,0.8-0.2,1.2c0,0.2-0.1,0.3-0.2,0.4c-0.1,0.1-0.3,0.1-0.5,0.1c-0.7-0.1-1.4-0.1-2.1-0.2c-0.7,0-1.4-0.1-2.1-0.1
				c-0.2,0-0.5,0-0.7-0.1c-0.2,0-0.4,0-0.6,0c-0.3,0-0.5-0.1-0.5-0.1c-0.1-0.1-0.2-0.3-0.2-0.5c0-0.5,0.1-1,0.1-1.5
				c0.1-0.5,0-1,0-1.5c-0.1-0.8-0.1-1.7-0.3-2.5c-0.2-0.8-0.4-1.7-0.8-2.5c-0.2-0.4-0.5-0.8-0.7-1.2c-0.2-0.4-0.5-0.8-0.9-1.1
				c-0.7-0.5-1.4-0.8-2-0.8c-0.6,0-1.2,0.5-1.7,1.1c-0.4,0.5-0.8,1-1,1.7c-0.2,0.6-0.4,1.3-0.4,1.9c-0.1,1.2,0.1,2.5,0.5,3.7
				c0.3,1.2,0.8,2.3,1.3,3.5c0.6,1.4,1.3,2.7,2,4c0.8,1.3,1.5,2.6,2.3,3.9c0.8,1.5,1.6,3.1,2.4,4.6c0.8,1.5,1.4,3.1,2,4.8
				c0.4,1.1,0.7,2.3,0.9,3.5c0.2,1.2,0.3,2.5,0.2,3.7c-0.1,1.2-0.3,2.3-0.6,3.4c-0.4,1.1-0.9,2.1-1.7,3c-0.7,0.9-1.6,1.7-2.6,2.1
				c-1,0.5-2.1,0.7-3.3,0.7c-0.2,0-0.3,0-0.5,0c-1,0-1.9-0.3-2.8-0.7c-1-0.5-1.9-1.1-2.8-1.9c-1.1-1-1.9-2.2-2.5-3.4
				c-0.6-1.2-1.1-2.5-1.4-3.9c-0.1-0.2-0.1-0.4,0-0.5c0-0.1,0.2-0.2,0.4-0.2c0.9-0.2,1.8-0.4,2.7-0.6c0.9-0.2,1.8-0.4,2.8-0.6
				c0.3-0.1,0.5,0,0.6,0c0.1,0.1,0.2,0.3,0.3,0.6c0.2,0.6,0.4,1.2,0.6,1.7c0.2,0.5,0.5,1.1,0.9,1.6c0.2,0.2,0.3,0.3,0.5,0.5
				c0.2,0.2,0.4,0.3,0.5,0.4c0.2,0.1,0.4,0.2,0.6,0.1c0.2,0,0.3-0.2,0.5-0.4c0.2-0.3,0.3-0.7,0.4-1c0.1-0.3,0.2-0.7,0.2-1.1
				c0.2-1,0.1-2.1-0.1-3.1c-0.2-1-0.4-2.1-0.8-3c-0.5-1.3-1-2.6-1.7-3.8c-0.6-1.2-1.3-2.5-2-3.7c-0.7-1.3-1.4-2.6-2.1-3.8
				c-0.7-1.3-1.5-2.7-2.1-4c-0.6-1.2-1-2.5-1.4-3.8c-0.4-1.3-0.8-2.7-0.9-4c-0.1-0.7-0.1-1.5-0.1-2.3c0-1.1,0.1-2.2,0.3-3.3
				c0.4-1.7,1.3-3.3,2.5-4.8c0.8-1,1.8-1.7,2.8-2.3c1.1-0.6,2.3-1,3.6-1.1c0,0,0.1,0,0.1,0c0,0,0,0,0.1-0.1
				C65.3,131.7,65.5,131.7,65.6,131.7z"/>
			<path class="st0" d="M82.7,157.9c-0.2-2.7-0.2-5.4-0.2-8.1c0-0.4,0-0.8,0-1.2c0-1.3,0-2.6,0.1-3.9c0-1.3,0.1-2.6,0.2-3.9
				c0-1,0.1-2,0.2-3c0.1-1,0.1-2.1,0.2-3.1c0-0.2,0.1-0.5,0.1-0.7c0-0.2,0-0.4,0.1-0.6c0-0.2,0.1-0.3,0.2-0.4
				c0.1-0.1,0.2-0.1,0.3-0.1c0,0,0.1,0,0.1,0c0.4,0,0.9,0,1.3,0c0.4,0,0.9,0.1,1.3,0.1c0.5,0,1.1,0.1,1.7,0.1
				c0.5,0.1,1.1,0.1,1.6,0.2c0.3,0,0.4,0.1,0.5,0.3c0.1,0.1,0.2,0.3,0.1,0.6c-0.2,0.7-0.3,1.3-0.3,1.9c0,0.6-0.1,1.2-0.1,1.9
				c-0.1,1.1-0.2,2.2-0.2,3.3c-0.1,1.1-0.1,2.2-0.1,3.3c-0.2,4.6-0.1,9.3,0.2,14.1c0.3,4.8,1.1,9.4,2.3,13.9
				c0.3,0.9,0.5,1.9,0.9,2.8c0.3,0.9,0.8,1.8,1.3,2.6c0.2,0.3,0.3,0.5,0.3,0.5c0.1,0,0.2-0.2,0.4-0.5c0.5-0.8,0.9-1.7,1.3-2.7
				c0.3-0.9,0.7-1.9,0.9-2.8c0.4-1.5,0.8-3,1-4.4c0.3-1.5,0.5-3,0.8-4.4c0.1-0.9,0.2-1.9,0.3-2.8s0.2-1.9,0.3-2.8
				c0.1-0.7,0.1-1.5,0.2-2.2c0-0.7,0.1-1.5,0.2-2.2c0.2-1.8,0.2-3.8,0.2-5.6c0-1.8,0-3.7,0-5.5c0-0.9-0.1-1.8-0.1-2.7
				c0-0.9,0-1.8-0.1-2.6c0-0.5-0.1-1.2-0.2-1.8c-0.1-0.6-0.1-1.2-0.2-1.7c0-0.3,0-0.6,0.1-0.6c0.1-0.1,0.3-0.2,0.6-0.3
				c0.5-0.1,0.9-0.2,1.3-0.2c0.4-0.1,0.9-0.2,1.3-0.3c0.5-0.1,1-0.2,1.5-0.2c0.5-0.1,1-0.2,1.5-0.3c0.3-0.1,0.5,0,0.6,0.1
				c0.1,0.1,0.1,0.2,0.2,0.5c0.1,1,0.2,1.9,0.3,2.9c0.1,0.9,0.1,1.9,0.2,2.8c0.1,0.8,0.1,1.5,0.1,2.2c0,0.7,0,1.5,0.1,2.2
				c0.1,1.3,0.1,2.7,0.1,4c0,2-0.1,4.1-0.2,6.1c-0.2,3.4-0.5,6.8-1,10.1c-0.5,3.2-1,6.5-1.7,9.9c-0.7,3.4-2,6.6-3.8,9.3
				c-0.5,0.8-1.1,1.6-1.7,2.2c-0.7,0.7-1.4,1.2-2.3,1.5c-0.7,0.3-1.4,0.4-2.1,0.5c-0.3,0-0.7,0-1,0c-1-0.2-2-0.6-2.8-1.2
				c-0.8-0.6-1.6-1.4-2.2-2.3c-0.6-0.9-1.2-1.9-1.6-2.9c-0.9-1.9-1.5-4-1.9-6.2c-0.4-2.2-0.8-4.3-1.2-6.1
				C83.3,164.1,82.9,161,82.7,157.9z"/>
			<path class="st0" d="M118.7,168.9c0.1,1.2,0.1,2.7,0.1,4.2c0,0.8,0,1.8,0,2.9c0,1.1,0.1,2.2,0.1,3.3c0,0.3-0.1,0.6-0.2,0.7
				c-0.1,0.1-0.3,0.2-0.7,0.3c-0.9,0.1-1.8,0.2-2.8,0.3c-1,0.1-1.9,0.2-2.8,0.3c-0.2,0-0.3,0-0.4-0.1c-0.1-0.1-0.2-0.2-0.2-0.4
				c0,0,0-0.1,0-0.1c0,0,0,0,0-0.1c0.2-7.2,0.2-14.4,0.1-21.6c-0.1-7.2-0.3-14.3-0.6-21.5c0-0.8-0.1-1.7-0.1-2.6s-0.1-1.8-0.2-2.6
				c0,0,0-0.1,0-0.1c0-0.2,0.1-0.3,0.2-0.4c0.1-0.1,0.3-0.2,0.5-0.3c0.5-0.1,1-0.2,1.5-0.2c0.5-0.1,1.1-0.1,1.6-0.1
				c0.8,0,1.6,0,2.4,0c0.8,0,1.6,0.1,2.4,0.1c1.4,0.1,2.8,0.4,4,0.9c1.2,0.5,2.4,1.1,3.6,1.8c1,0.6,2,1.4,2.8,2.2
				c0.8,0.9,1.5,1.8,2.1,2.9c0.4,0.8,0.7,1.6,0.9,2.4c0.2,0.8,0.4,1.7,0.5,2.5c0.1,0.7,0.1,1.4,0.1,2c0,0.5,0,0.9-0.1,1.4
				c-0.1,1.1-0.3,2.3-0.8,3.5c-0.4,1.1-0.9,2.2-1.5,3.3c-0.6,1-1.3,2-2,3c-1.2,1.5-2.5,2.9-4,4c-1.5,1.1-3,2.1-4.6,3
				c-0.2,0.1-0.4,0.2-0.6,0.3c-0.2,0.1-0.5,0.2-0.6,0.3c-0.2,0.1-0.4,0.2-0.5,0.3c-0.1,0.1-0.2,0.3-0.2,0.5
				C118.7,166.4,118.7,167.7,118.7,168.9z M118.5,148c0,1.5,0.1,3.1,0.1,4.6c0,0.7,0,1.5,0,2.2c0,0.7,0,1.4,0.1,2.1
				c0,0.1,0,0.2,0.1,0.2c0,0.1,0.1,0.1,0.3,0c0.7-0.4,1.4-0.9,2.1-1.4c0.7-0.5,1.3-1,1.9-1.6c0.4-0.4,0.9-0.9,1.2-1.4
				c0.3-0.5,0.7-1,1-1.6c0.6-1,1-2.1,1.2-3.2c0.2-1,0.2-2.1,0-3.2c-0.2-0.9-0.6-1.8-1.1-2.6c-0.5-0.8-1.1-1.5-1.9-2
				c-0.6-0.5-1.4-0.9-2.1-1.2c-0.7-0.3-1.5-0.6-2.4-0.7c-0.2,0-0.3,0.1-0.3,0.1c0,0-0.1,0.1-0.1,0.3c0,0.8,0,1.7,0,2.5
				c0,0.8,0,1.6,0.1,2.4C118.5,145,118.5,146.5,118.5,148z"/>
			<path class="st0" d="M145,165.3c0.1,1.2,0.1,2.7,0.1,4.2c0,0.8,0,1.8,0,2.9c0,1.1,0.1,2.2,0.1,3.3c0,0.3-0.1,0.6-0.2,0.7
				c-0.1,0.1-0.3,0.2-0.7,0.3c-0.9,0.1-1.8,0.3-2.8,0.4c-1,0.1-1.9,0.3-2.8,0.4c-0.2,0-0.3,0-0.4-0.1c-0.1-0.1-0.2-0.2-0.2-0.4
				c0,0,0-0.1,0-0.1c0,0,0,0,0-0.1c0.2-7.2,0.2-14.4,0.1-21.6c-0.1-7.2-0.3-14.3-0.6-21.5c0-0.8-0.1-1.7-0.1-2.6s-0.1-1.8-0.2-2.6
				c0,0,0-0.1,0-0.1c0-0.2,0.1-0.3,0.2-0.4c0.1-0.1,0.3-0.2,0.5-0.3c0.5-0.1,1-0.2,1.5-0.3c0.5-0.1,1.1-0.1,1.6-0.2
				c0.8,0,1.6-0.1,2.4-0.1c0.8,0,1.6,0,2.4,0.1c1.4,0.1,2.8,0.4,4,0.8c1.2,0.4,2.4,1,3.6,1.7c1,0.6,2,1.3,2.8,2.2
				c0.8,0.8,1.5,1.8,2.1,2.9c0.4,0.7,0.7,1.6,0.9,2.3c0.2,0.8,0.4,1.7,0.5,2.5c0.1,0.7,0.1,1.3,0.1,2c0,0.5,0,0.9-0.1,1.4
				c-0.1,1.1-0.3,2.3-0.8,3.5c-0.4,1.1-0.9,2.3-1.5,3.3c-0.6,1-1.3,2.1-2,3c-1.2,1.6-2.5,2.9-4,4.1c-1.5,1.1-3,2.2-4.6,3.1
				c-0.2,0.1-0.4,0.2-0.6,0.3c-0.2,0.1-0.5,0.2-0.6,0.3c-0.2,0.1-0.4,0.2-0.5,0.3c-0.1,0.1-0.2,0.3-0.2,0.5
				C144.9,162.8,144.9,164.1,145,165.3z M144.7,144.4c0,1.5,0.1,3.1,0.1,4.6c0,0.7,0,1.5,0,2.2c0,0.7,0,1.4,0.1,2.1
				c0,0.1,0,0.2,0.1,0.2c0,0.1,0.1,0.1,0.3,0c0.7-0.5,1.4-1,2.1-1.5c0.7-0.5,1.3-1.1,1.9-1.7c0.4-0.5,0.9-0.9,1.2-1.5
				c0.3-0.5,0.7-1,1-1.6c0.6-1.1,1-2.1,1.2-3.2c0.2-1,0.2-2.1,0-3.2c-0.2-0.9-0.6-1.8-1.1-2.6c-0.5-0.8-1.1-1.4-1.9-2
				c-0.6-0.4-1.4-0.8-2.1-1.2c-0.7-0.3-1.5-0.5-2.4-0.7c-0.2,0-0.3,0.1-0.3,0.1c0,0.1-0.1,0.2-0.1,0.3c0,0.8,0,1.7,0,2.5
				c0,0.8,0,1.6,0.1,2.4C144.7,141.3,144.7,142.9,144.7,144.4z"/>
			<path class="st0" d="M218.6,147.1c-1.7,1.7-3.5,3.2-5.4,4.5c1.9,0.7,3.8,1.4,5.7,2.1c1.9,0.7,3.8,1.5,5.7,2.2
				c0.1,0,0.2,0.1,0.3,0.1c0.1,0.1,0.1,0.2,0.2,0.2c0,0,0,0.1,0,0.2c0,0,0,0.1,0,0.1c0,0.1-0.1,0.2-0.1,0.3
				c-0.4,0.7-0.8,1.5-1.2,2.3c-0.4,0.8-0.7,1.6-1.1,2.4c0,0.1-0.1,0.2-0.2,0.3c0,0.1-0.1,0.2-0.3,0.3c-0.1,0-0.3,0-0.4,0
				c-0.2,0-0.3-0.1-0.4-0.1c-2.2-0.9-4.4-1.7-6.6-2.5c-2.2-0.8-4.4-1.6-6.6-2.4c0,1.9,0,3.8,0,5.7c0,1.8,0.1,3.7,0.1,5.6
				c0,0.1,0,0.2,0,0.3c0,0.1-0.1,0.2-0.1,0.3c-0.1,0.1-0.2,0.2-0.3,0.2c-0.1,0-0.2,0-0.3,0c-0.9,0.1-1.8,0.1-2.7,0.2
				c-0.2,0-0.3,0-0.4,0c-0.8,0.1-1.6,0.1-2.4,0.2c-0.4,0-0.7-0.1-0.7-0.3c0-0.2,0-0.6-0.1-0.9c0-0.5,0-1,0-1.4s0-0.9,0-1.4
				c0-1.8,0-3.7-0.1-5.5c0-1.8,0-3.6,0-5.5c0-3.7-0.1-7.4-0.1-11.1c0-3.7,0-7.4-0.1-11.1c0-1.8,0-3.7-0.1-5.6c0-1.8,0-3.7,0-5.6
				c0,0,0-0.1,0-0.2c0-0.1,0-0.1,0.1-0.2c0,0,0.1-0.1,0.2-0.1c0,0,0.1-0.1,0.2-0.1c0.5,0,1-0.1,1.5-0.1c1.5-0.1,3-0.2,4.5-0.2
				c2,0,4,0.4,5.8,0.9c1.8,0.5,3.6,1.4,5.2,2.5c1.6,1.2,2.9,2.7,3.8,4.4c1.1,2,1.7,4.1,1.7,6.5c0,2.4-0.5,4.7-1.4,6.7
				C221.5,143.5,220.2,145.4,218.6,147.1z M207.9,138c0,1.7,0,3.5,0.1,5.2c0,0.5,0,1,0,1.6s0,1.1,0,1.6c0,0.2,0,0.3,0.1,0.3
				c0,0,0.1,0,0.3-0.1c1.1-0.5,2.1-1.2,3.1-1.9c0.9-0.7,1.7-1.6,2.5-2.5c0.8-0.9,1.4-1.9,1.8-3c0.5-1.1,0.7-2.2,0.9-3.4
				c0.1-0.6,0.1-1.2,0.1-1.9c0-0.6-0.2-1.2-0.4-1.8c-0.3-0.7-0.8-1.3-1.3-1.9c-0.5-0.5-1.1-1-1.7-1.4c-0.7-0.4-1.5-0.8-2.4-1.1
				c-0.8-0.2-1.7-0.4-2.6-0.5c-0.3,0-0.4,0-0.5,0c0,0-0.1,0.2-0.1,0.5c0,0.9,0,1.8,0,2.5c0,0.8,0.1,1.7,0.1,2.5
				C207.8,134.6,207.9,136.3,207.9,138z"/>
			<path class="st0" d="M235.3,167.5c0-0.4,0-0.9,0-1.3c0-6.1,0-12.2-0.1-18.3c-0.1-6.1-0.2-12.2-0.2-18.3c0-0.5,0-1.1,0-1.7
				c0-0.5,0-1.1,0-1.7c0-0.2,0-0.3-0.1-0.4c-0.1-0.1-0.2-0.1-0.4-0.1c-0.2,0-0.5-0.1-0.8-0.1c-0.2,0-0.5,0-0.7,0c-0.6,0-1.2,0-1.8,0
				c-0.6,0-1.2-0.1-1.8-0.1c-0.3,0-0.5-0.1-0.6-0.2c-0.1-0.1-0.2-0.3-0.2-0.5c0.1-0.9,0.1-1.9,0.1-2.8c0-0.9,0-1.9,0.1-2.8
				c0-0.3,0.1-0.5,0.2-0.6c0.1-0.1,0.4-0.1,0.7-0.1c1.5,0,3,0.1,4.5,0.1c1.5,0,3,0.1,4.5,0.2c0.8,0.1,1.5,0.1,2.3,0.1
				c0.8,0,1.5,0,2.3,0.1c0.8,0.1,1.7,0.2,2.5,0.2c0.8,0,1.7,0.2,2.5,0.2c0.2,0,0.4,0,0.6,0.1c0.2,0,0.4,0.1,0.6,0.1
				c0.1,0,0.3,0.1,0.3,0.2c0.1,0.1,0.1,0.2,0.1,0.3c0,0.2,0,0.4,0,0.6c0,0.2,0,0.3,0,0.5c-0.1,0.7-0.1,1.5-0.1,2.2
				c0,0.7,0,1.5,0,2.3c0,0.4-0.1,0.7-0.2,0.8c-0.1,0.1-0.4,0.2-0.9,0.1c-0.8-0.1-1.6-0.2-2.4-0.2c-0.8,0-1.6-0.1-2.4-0.2
				c-0.2,0-0.4,0-0.6,0c-0.2,0-0.5-0.1-0.7-0.1c-0.1,0-0.3,0-0.3,0c0,0-0.1,0.2-0.1,0.3c0,0.9,0,1.9,0,2.9c0,0.9,0,1.9,0.1,2.9
				c0,1.4,0,2.8,0,4.1c0,1.3,0,2.7,0.1,4.1c0.1,3.3,0.1,6.8,0.1,10.2c0,3.4,0,6.8,0.1,10.2c0,1.4,0.1,2.8,0.1,4.2s0,2.9,0.1,4.3
				c0,0.3,0,0.4-0.1,0.5c-0.1,0.1-0.3,0.2-0.6,0.1c-0.9,0-1.8-0.1-2.7-0.1c-0.9,0-1.8,0-2.6,0c-0.5,0-0.8-0.1-0.9-0.2
				c-0.1-0.1-0.2-0.4-0.2-0.9C235.3,168.4,235.3,167.9,235.3,167.5z"/>
			<path class="st0" d="M33,188.1c0,0.7,0,1.4,0,2.1c0,1.7-0.1,3.4-0.1,5.1c0,1.7,0,3.4-0.1,5.1c0,1,0,2.1,0,3.2c0,1,0,2.1-0.1,3.2
				c0,1.2-0.1,2.4-0.1,3.6c0,1.2,0,2.5-0.1,3.7c-0.1,1,0,2.1,0,3.1c0,1,0,2.1-0.1,3.1c0,1.2,0,2.4,0,3.6c0,1.1,0,2.3-0.1,3.5
				c0,0.8-0.1,1.5-0.1,2.4c0,0.8,0,1.6,0,2.4c0,0.3-0.1,0.5-0.2,0.6c-0.1,0.1-0.3,0-0.5,0c-0.1,0-0.2,0-0.2-0.1
				c-0.7-0.3-1.9-0.5-2.8-0.7c-0.9-0.3-1.8-0.6-2.8-0.8c-0.2-0.1-0.4-0.2-0.5-0.3c-0.1-0.1-0.1-0.2-0.1-0.4c0-0.1,0-0.1,0-0.2
				c0-2,0-4,0-6c0-2,0-4,0.1-6c0-0.7,0.1-1.4,0.1-2.2c0-0.7,0-1.5,0-2.3c0-1.5,0-3.1,0.1-4.6c0-1.5,0-3.1,0.1-4.6c0-1,0.1-2,0.1-2.9
				s0-2,0-2.9c0-1.2,0.1-2.5,0.1-3.7c0-1.2,0-2.5,0.1-3.7c0-0.9,0.1-1.9,0.1-2.8c0-0.9,0-1.9,0-2.8c0-0.7,0-1.3,0.1-2
				c0-0.6,0-1.3,0-2c0-0.3,0.1-0.5,0.2-0.6c0.1-0.1,0.3-0.1,0.6,0c0,0,0.1,0,0.2,0.1c0.7,0.2,1.3,0.4,2,0.6c0.6,0.2,1.3,0.4,2,0.6
				c0.2,0.1,0.4,0.1,0.6,0.2c0.2,0.1,0.5,0.1,0.7,0.2c0.3,0.1,0.6,0.2,0.7,0.3c0.1,0.1,0.2,0.4,0.2,0.7c0,0.4,0,0.8,0.1,1.2
				c0,0.1,0,0.3,0,0.4c0,0.2,0,0.5-0.1,0.7C33,186.7,33,187.4,33,188.1z"/>
			<path class="st0" d="M46.8,203.5c-0.1,0.9-0.1,1.9-0.1,2.8c0,1,0,1.9,0.1,2.8c0.1,0.9,0.2,1.9,0.3,2.9c0.2,1.9,0.5,3.9,0.9,5.9
				c0.4,2,1,3.9,1.6,5.8c0.3,0.9,0.7,1.8,1,2.7c0.4,0.9,0.8,1.8,1.4,2.6c0.1,0.2,0.3,0.4,0.4,0.6c0.1,0.2,0.3,0.3,0.4,0.5
				c0.3,0.2,0.6,0.3,0.9,0.3c0.3,0,0.7-0.2,1.1-0.5c0.3-0.2,0.6-0.5,0.8-0.8c0.2-0.3,0.4-0.6,0.6-0.9c0.7-1,1.2-2,1.6-3.1
				c0.4-1,0.8-2.1,1-3.3c0-0.1,0.1-0.1,0.1-0.2c0-0.1,0-0.1,0.1-0.2c0-0.1,0.1-0.2,0.2-0.3c0.1,0,0.3-0.1,0.4,0
				c0.9,0.3,1.9,0.6,2.8,0.9c0.9,0.3,1.8,0.5,2.8,0.8c0.2,0.1,0.3,0.2,0.4,0.3c0.1,0.1,0.1,0.3,0,0.5c-0.3,1.3-0.7,2.6-1.2,3.9
				c-0.5,1.2-1,2.4-1.7,3.6c-0.3,0.6-0.6,1.1-1,1.7c-0.3,0.5-0.8,1-1.2,1.5c-0.8,0.9-1.7,1.6-2.7,2.1c-1,0.5-2.1,0.8-3.3,0.7
				c-0.3,0-0.6,0-0.9-0.1c-0.8-0.1-1.6-0.3-2.3-0.7c-1-0.5-2-1.1-2.9-2c-0.9-0.9-1.7-1.9-2.3-2.9c-0.6-1.1-1.2-2.2-1.7-3.3
				c-0.8-1.8-1.4-3.6-2-5.5c-0.5-1.9-1-3.8-1.4-5.6c-0.2-1.1-0.4-2.2-0.5-3.2c-0.2-1.1-0.3-2.1-0.4-3.2c-0.1-0.6-0.2-1.3-0.2-1.9
				c0-0.6,0-1.3-0.1-2c0-0.5-0.1-1.1-0.1-1.6c0-0.2,0-0.3,0-0.5c0-0.7,0-1.3,0.1-2c0.1-1.7,0.2-3.5,0.5-5.2c0.2-1.7,0.7-3.3,1.4-4.8
				c0.3-0.7,0.8-1.4,1.2-2.1c0.5-0.6,1.1-1.2,1.7-1.6c0.9-0.6,1.8-1.1,2.8-1.4c1-0.3,2-0.4,3.2-0.4c0.3,0,0.6,0.1,0.9,0.1
				c0.9,0.1,1.9,0.4,2.7,0.8c1.1,0.5,2.2,1.2,3.3,1.9c1.1,0.8,2.1,1.7,2.9,2.7c0.8,1,1.6,2.1,2.2,3.2c0.6,1.1,1.2,2.4,1.7,3.5
				c0.5,1.2,0.8,2.4,1.1,3.6c0.1,0.4,0.2,0.9,0.2,1.2c0.1,0.4,0,0.9,0.1,1.2c0,0.1,0.1,0.1,0.1,0.2c0,0.1,0,0.2-0.1,0.3
				c0,0.1-0.2,0.1-0.4,0.1c-0.9,0.1-1.9,0.2-2.7,0.3c-0.9,0.1-1.8,0.2-2.7,0.3c-0.2,0-0.4,0-0.5-0.1c-0.1-0.1-0.2-0.2-0.2-0.4
				c-0.1-0.5-0.3-1-0.3-1.5c-0.1-0.5-0.2-1-0.4-1.5c-0.3-1.1-0.7-2.2-1.2-3.2c-0.5-1-1.1-2-1.8-3c-0.5-0.6-1.1-1.3-1.7-1.8
				c-0.6-0.5-1.4-0.9-2.1-1.1c-0.1-0.1-0.2-0.1-0.3-0.1c-0.1,0-0.2,0-0.3,0c-0.7,0.1-1.3,0.3-1.8,0.7c-0.5,0.4-0.9,0.9-1.2,1.6
				c-0.3,0.7-0.5,1.4-0.7,2.1c-0.1,0.7-0.3,1.4-0.3,2.2C47,201.7,46.9,202.6,46.8,203.5z"/>
			<path class="st0" d="M88.9,233.9C88.9,233.9,88.9,233.9,88.9,233.9c0.1,0.4,0.1,0.8,0.1,1.2c0,0.4,0,0.9,0,1.3
				c0,0.2-0.1,0.4-0.1,0.5c-0.1,0.1-0.3,0.2-0.5,0.2c-0.1,0-0.1,0.1-0.2,0.1c-0.1,0-0.1,0-0.2,0c-1.3,0-2.6,0-3.8,0.1
				c-1.3,0.1-2.6,0.1-3.8,0.1c-1,0-2,0-3,0c-0.9,0-1.9,0.1-2.9,0.1c-0.3,0-0.6,0-0.8,0c-0.3,0-0.5,0-0.8,0c-0.3,0-0.5-0.1-0.6-0.2
				c-0.1-0.1-0.2-0.3-0.2-0.5c0-0.1,0-0.2-0.1-0.2c0-0.1,0-0.1,0-0.2c0-1,0.1-2.1,0.1-3.1c0-1-0.1-2-0.1-3c-0.1-3.5-0.2-7-0.3-10.6
				c-0.1-3.5-0.3-7-0.5-10.5c-0.1-2.9-0.2-5.8-0.2-8.7c0-2.8-0.1-5.7-0.1-8.6c0-0.2,0-0.4,0-0.5c0-0.1,0-0.3,0.1-0.5
				c0-0.1,0.1-0.2,0.1-0.3c0.1-0.1,0.2-0.1,0.3-0.1c0.2,0,0.5,0,0.8,0c0.2,0,0.5,0,0.8,0c2.3-0.1,4.6-0.2,6.9-0.3
				c2.3-0.1,4.6-0.2,6.9-0.3c0.2,0,0.4,0,0.5,0.1c0.1,0.1,0.2,0.3,0.2,0.5c0,0.5,0,1.2,0.1,1.7c0,0.6,0,1.2,0.1,1.7
				c0,0.3,0,0.7,0.1,1c0,0.3,0.1,0.6,0.1,0.9c0,0.3-0.1,0.5-0.2,0.6c-0.1,0.1-0.3,0.2-0.6,0.2c-0.3,0-0.5,0.1-0.8,0.1
				c-0.2,0-0.5,0-0.8,0c-0.8,0-1.5,0.1-2.2,0.2c-0.7,0-1.5,0.1-2.2,0.1c-0.5,0-1,0-1.6,0.1c-0.5,0-1,0.1-1.5,0.1
				c-0.1,0-0.2,0-0.2,0.1c0,0-0.1,0.1-0.1,0.2c0.1,3.1,0.2,6.3,0.3,9.5c0.2,3.1,0.3,6.3,0.3,9.4c0,0.7,0.1,1,0.2,1.1
				c0.1,0.1,0.5,0.2,1.1,0.1c0.5-0.1,1.1-0.1,1.6-0.1c0.5,0,1.1-0.1,1.6-0.1c0.2,0,0.4,0,0.6-0.1c0.2,0,0.4,0,0.6,0
				c0.2,0,0.3,0,0.4,0.1c0.1,0.1,0.1,0.2,0.1,0.4c0.1,0.9,0.1,1.9,0.2,2.8c0.1,0.9,0.2,1.8,0.2,2.7c0,0.2,0,0.3-0.1,0.5
				c-0.1,0.1-0.2,0.2-0.5,0.2c-0.2,0.1-0.5,0.1-0.8,0.1c-0.2,0-0.5,0-0.8,0.1c-0.6,0.1-1.1,0.1-1.7,0.1c-0.6,0-1.1,0.1-1.7,0.1
				c-0.5,0-0.8,0-0.9,0.1c-0.1,0.1-0.1,0.4-0.1,0.8c0,0.9,0,1.8,0.1,2.6c0,0.9,0.1,1.8,0.1,2.6c0,0.1,0,0.2,0.1,0.3
				c0,0,0.1,0.1,0.2,0.1c0.8,0,1.6,0,2.3,0c0.8,0,1.6,0,2.4-0.1c0.8,0,1.5-0.1,2.3-0.1c0.8,0,1.6,0,2.4-0.1c0.2,0,0.4,0.1,0.4,0.2
				c0,0.2,0.1,0.3,0.1,0.5c0,0.3,0,0.8,0,1.2c0,0.4,0,0.8,0,1.2c0,0.1,0,0.2,0,0.2C88.9,233.7,88.9,233.8,88.9,233.9z"/>
			<path class="st0" d="M92.7,212.2c0-4,0-7.9,0-11.9c0-4,0-7.9,0-11.9c0-0.4,0.1-0.6,0.2-0.7c0.1-0.1,0.4-0.2,0.8-0.2
				c0.1,0,0.2,0,0.2,0c2.8-0.1,5.6,0.1,8.2,0.8c2.6,0.7,5.2,1.8,7.5,3.3c2,1.3,3.7,2.7,5.2,4.4c1.5,1.7,2.8,3.5,3.9,5.6
				c0.7,1.3,1.2,2.7,1.6,4c0.4,1.4,0.8,2.8,1,4.3c0.1,0.7,0.2,1.5,0.2,2.2c0,0.5,0.1,1,0.1,1.5c0,0.2,0,0.5,0,0.8
				c-0.1,2.7-0.6,5.3-1.5,7.9c-0.9,2.6-2.2,5.1-4,7.3c-1.6,2-3.4,3.7-5.4,5.1c-2,1.4-4.3,2.5-6.7,3.2c-1,0.3-2,0.5-3.1,0.6
				c-0.7,0.1-1.5,0.2-2.2,0.2c-0.3,0-0.6,0.1-1,0.1c-0.7,0-1.5,0-2.2-0.1c-0.7-0.1-1.5-0.2-2.2-0.3c-0.2,0-0.3-0.1-0.3-0.2
				c-0.1-0.1-0.1-0.2-0.1-0.4c0-0.6-0.1-1.3-0.1-1.9c0-0.6-0.1-1.2-0.1-1.9c0-3.7,0-7.3,0-10.9C92.7,219.5,92.7,215.8,92.7,212.2z
				 M99.7,204.5c0,3,0,5.9,0,9c0,3,0,5.9,0,8.9c0,3,0,5.9,0,9c0,0.2,0,0.4,0.1,0.4c0.1,0.1,0.2,0.1,0.5,0c0.3-0.1,0.5-0.1,0.8-0.2
				c0.3-0.1,0.6-0.1,0.9-0.2c1.8-0.5,3.4-1.2,4.9-2.1c1.5-0.9,2.8-2.3,3.9-3.8c1.1-1.5,2-3,2.5-4.6c0.5-1.6,0.9-3.3,1-5
				c0.1-0.9,0.1-1.9,0.1-2.7c-0.1-0.9-0.2-1.7-0.4-2.6c-0.4-2-1.1-3.9-2-5.6c-0.9-1.7-2.1-3.3-3.5-4.7c-1.1-1.1-2.4-2.1-3.8-2.9
				c-1.4-0.8-2.9-1.5-4.5-2c-0.2-0.1-0.4-0.1-0.4-0.1c0,0-0.1,0.2-0.1,0.4C99.7,198.5,99.7,201.5,99.7,204.5z"/>
			<path class="st0" d="M148.4,199.5c-0.1,1-0.1,1.9-0.1,2.8c0,1,0,1.9,0.1,2.8c0.1,0.9,0.2,1.9,0.3,2.8c0.2,1.9,0.5,3.8,0.9,5.6
				c0.4,1.9,1,3.6,1.6,5.4c0.3,0.8,0.7,1.6,1,2.4c0.4,0.8,0.8,1.5,1.4,2.2c0.1,0.2,0.3,0.3,0.4,0.5c0.1,0.1,0.3,0.3,0.4,0.3
				c0.3,0.1,0.6,0.2,0.9,0.1c0.3-0.1,0.7-0.4,1.1-0.8c0.3-0.3,0.6-0.6,0.8-1c0.2-0.3,0.4-0.7,0.6-1c0.7-1.1,1.2-2.3,1.6-3.5
				c0.4-1.1,0.8-2.3,1-3.6c0-0.1,0.1-0.2,0.1-0.2c0-0.1,0-0.1,0.1-0.2c0-0.2,0.1-0.3,0.2-0.3c0.1-0.1,0.3-0.1,0.4-0.1
				c0.9,0.1,1.9,0.2,2.8,0.3c0.9,0.1,1.8,0.1,2.8,0.2c0.2,0,0.3,0.1,0.4,0.2c0.1,0.1,0.1,0.2,0,0.5c-0.3,1.4-0.7,2.8-1.2,4.1
				c-0.5,1.3-1,2.7-1.7,4c-0.3,0.6-0.6,1.3-1,1.9c-0.3,0.6-0.8,1.2-1.2,1.7c-0.8,1.1-1.7,2-2.7,2.7c-1,0.8-2.1,1.3-3.3,1.6
				c-0.3,0.1-0.6,0.1-0.9,0.2c-0.8,0.1-1.6,0.1-2.3,0c-1-0.2-2-0.5-2.9-1.1c-0.9-0.6-1.7-1.4-2.3-2.2c-0.6-0.9-1.2-1.8-1.7-2.8
				c-0.8-1.5-1.4-3.2-2-4.9c-0.5-1.7-1-3.4-1.4-5.2c-0.2-1-0.4-2-0.5-3c-0.2-1-0.3-2-0.4-3.1c-0.1-0.6-0.2-1.3-0.2-1.9
				c0-0.6,0-1.3-0.1-2c0-0.5-0.1-1.1-0.1-1.6c0-0.2,0-0.3,0-0.5c0-0.7,0-1.3,0.1-2c0.1-1.8,0.2-3.6,0.5-5.3c0.2-1.8,0.7-3.5,1.4-5.3
				c0.3-0.9,0.8-1.7,1.2-2.5c0.5-0.8,1.1-1.5,1.7-2.2c0.9-0.9,1.8-1.7,2.8-2.3c1-0.6,2-1.1,3.2-1.3c0.3,0,0.6-0.1,0.9-0.1
				c0.9-0.1,1.8-0.2,2.7,0c1.1,0.2,2.2,0.6,3.3,1.1c1.1,0.5,2.1,1.2,2.9,2c0.8,0.8,1.6,1.8,2.2,2.7c0.6,1,1.2,2.1,1.7,3.2
				c0.5,1.1,0.8,2.2,1.1,3.4c0.1,0.4,0.2,0.8,0.2,1.2c0.1,0.4,0,0.9,0.1,1.1c0,0.1,0.1,0.1,0.1,0.2c0,0.1,0,0.2-0.1,0.4
				c0,0.1-0.2,0.1-0.4,0.2c-0.9,0.3-1.9,0.6-2.7,0.9c-0.9,0.3-1.8,0.6-2.7,1c-0.2,0.1-0.4,0-0.5,0c-0.1,0-0.2-0.1-0.2-0.4
				c-0.1-0.5-0.3-1-0.3-1.4c-0.1-0.5-0.2-1-0.4-1.4c-0.3-1-0.7-2-1.2-2.9c-0.5-0.9-1.1-1.8-1.8-2.5c-0.5-0.5-1.1-1-1.7-1.3
				c-0.6-0.3-1.4-0.5-2.1-0.5c-0.1,0-0.2,0-0.3,0c-0.1,0-0.2,0.1-0.3,0.1c-0.7,0.3-1.3,0.7-1.8,1.3c-0.5,0.5-0.9,1.2-1.2,1.9
				c-0.3,0.8-0.5,1.6-0.7,2.4c-0.1,0.8-0.3,1.5-0.3,2.3C148.6,197.6,148.4,198.6,148.4,199.5z"/>
			<path class="st0" d="M198,198.8c0,0.6,0.1,1.2,0.1,1.7c0,2.4-0.3,4.9-0.6,7.3c-0.3,2.4-0.9,4.8-1.7,7.2c-0.4,1.2-0.9,2.4-1.4,3.6
				c-0.6,1.1-1.2,2.3-2,3.4c-0.7,0.9-1.5,1.8-2.4,2.5c-0.9,0.8-1.9,1.3-2.9,1.7c-0.8,0.3-1.6,0.5-2.4,0.6c-0.5,0.1-0.9,0.1-1.4,0.1
				c-1.2-0.1-2.4-0.4-3.5-1.1c-1-0.5-1.8-1.3-2.5-2c-0.7-0.8-1.3-1.6-1.9-2.5c-0.9-1.5-1.6-3.1-2.1-4.7c-0.5-1.6-0.9-3.3-1.2-5
				c-0.1-0.9-0.3-1.7-0.4-2.5c-0.1-0.8-0.2-1.7-0.2-2.6c-0.1-0.9-0.1-1.8-0.1-2.6c0-0.1,0-0.2,0-0.3c0-0.8,0-1.6,0-2.3
				c0.1-2.3,0.4-4.7,0.9-7c0.4-2.3,1.1-4.7,2-7c0.5-1.3,1.1-2.5,1.7-3.6c0.7-1.2,1.5-2.3,2.4-3.3c1-1.1,2.1-1.9,3.3-2.5
				c0.9-0.4,1.8-0.8,2.9-0.9c0.3,0,0.6-0.1,0.9-0.1c0.9,0,1.8,0.1,2.6,0.4c0.8,0.3,1.6,0.7,2.3,1.2c1,0.7,1.9,1.6,2.7,2.6
				c0.7,1,1.3,2.1,1.8,3.3c0.6,1.3,1.2,2.8,1.6,4.2c0.4,1.5,0.7,3,1,4.5c0.1,0.7,0.2,1.4,0.3,2.1c0.1,0.6,0.1,1.3,0.2,1.9
				C197.9,197.6,197.9,198.2,198,198.8z M190.5,207.5c0.3-2.1,0.3-4.3,0.5-6.3c0-0.3,0-0.5,0-0.8c0-0.3-0.1-0.5-0.1-0.8
				c0-1-0.1-2.1-0.2-3c-0.1-1-0.3-2-0.5-3c-0.2-1.2-0.5-2.5-0.9-3.6c-0.4-1.2-0.9-2.3-1.6-3.4c-0.2-0.4-0.5-0.8-0.8-1.2
				c-0.3-0.4-0.7-0.7-1.1-1.1c-0.2-0.2-0.5-0.3-0.8-0.4c-0.2-0.1-0.6,0-0.9,0.1c-0.3,0.1-0.5,0.3-0.8,0.5c-0.2,0.2-0.4,0.4-0.6,0.6
				c-0.6,0.7-1.1,1.5-1.5,2.3c-0.4,0.8-0.7,1.7-1,2.5c-0.8,2.3-1.3,4.5-1.6,6.7c-0.3,2.2-0.4,4.5-0.3,6.7c0,0.8,0,1.7,0.1,2.5
				c0.1,0.8,0.2,1.7,0.3,2.6c0.2,1.2,0.4,2.3,0.7,3.4c0.3,1.1,0.7,2.3,1.1,3.3c0.3,0.7,0.8,1.5,1.2,2.2c0.4,0.7,1,1.3,1.6,1.8
				c0.4,0.3,0.8,0.4,1.1,0.4c0.4,0,0.8-0.1,1.1-0.4c0.1,0,0.2-0.1,0.3-0.2c0.1-0.1,0.2-0.1,0.2-0.3c0.7-0.7,1.3-1.5,1.7-2.4
				c0.4-0.9,0.8-1.8,1.2-2.7C189.7,211.7,190.2,209.6,190.5,207.5z"/>
			<path class="st0" d="M215.3,182c-0.8,0.1-1.6,0.1-2.3,0.1c-0.7,0-1.3,0.1-1.9,0.2c-0.6,0-1.2,0.1-1.7,0.2c-0.1,0-0.3,0.1-0.3,0.1
				c-0.1,0.1-0.1,0.2-0.1,0.4c0.1,2.9,0.3,5.8,0.4,8.8c0.1,3,0.2,6,0.2,8.9c0,0.3,0,0.4,0.1,0.5c0.1,0,0.2,0,0.5,0
				c0.7,0,1.3-0.1,2.1-0.1c0.7,0,1.4-0.1,2-0.1c0.3,0,0.6,0,0.7,0.1c0.1,0.1,0.1,0.3,0.1,0.6c-0.1,0.9,0,1.9,0,2.8
				c0,1,0,1.9-0.1,2.8c0,0.2-0.1,0.4-0.2,0.5c-0.1,0.1-0.2,0.2-0.4,0.2c-0.7,0-1.4,0.1-2.1,0.1c-0.7,0-1.3,0-2,0.1
				c-0.2,0-0.3,0.1-0.4,0.1c-0.1,0-0.1,0.2-0.1,0.4c0,1,0.1,2.1,0.1,3.1c0,1,0,2.1,0.1,3.1c0,0.8,0.1,1.6,0.1,2.3
				c0,0.7,0,1.5,0.1,2.2c0,0.5,0.1,1.1,0.1,1.6c0,0.5,0,1.1,0.1,1.6c0,0,0,0.1,0,0.1c0,0.4-0.1,0.6-0.2,0.8
				c-0.1,0.1-0.3,0.2-0.7,0.2c-0.6,0.1-1.3,0.1-1.9,0.2c-0.6,0.1-1.3,0.1-1.9,0.1c-0.3,0-0.6,0.1-0.9,0.1c-0.3,0.1-0.6,0.1-0.9,0.1
				c-0.2,0-0.4-0.1-0.5-0.1c-0.1-0.1-0.1-0.3-0.1-0.5c-0.4-7.3-0.7-14.7-1-22.1c-0.3-7.3-0.6-14.8-0.6-22.1c0-0.4,0-0.9,0-1.3
				c0-0.4-0.1-0.9-0.1-1.3c0-0.2,0-0.4,0.1-0.5c0.1-0.1,0.3-0.1,0.5-0.2c1-0.1,2.1-0.3,3.1-0.4c1-0.1,2.1-0.2,3.1-0.3
				c1.1-0.1,2.3-0.2,3.5-0.3c1.2-0.1,2.3-0.2,3.5-0.2c0.4,0,0.8-0.1,1.1-0.1c0.4,0,0.8,0,1.2,0c0.2,0,0.4,0,0.5,0
				c0.1,0,0.2,0.2,0.2,0.5c0,0.2,0,0.5,0.1,0.7c0,0.2,0,0.5,0,0.7c0,0.7,0,1.5,0.1,2.1c0,0.4,0,0.9,0,1.3c0,0.2,0,0.5,0,0.8
				c0,0.3-0.1,0.5-0.2,0.6c-0.1,0.1-0.3,0.2-0.6,0.2C217,181.9,216.1,181.9,215.3,182z"/>
			<path class="st0" d="M234.9,181.7c-0.8,0-1.6,0-2.3,0c-0.7,0-1.3,0-1.9,0c-0.6,0-1.2,0-1.7,0c-0.1,0-0.3,0-0.3,0.1
				c-0.1,0.1-0.1,0.2-0.1,0.4c0.1,2.9,0.3,5.8,0.4,8.8c0.1,3,0.2,6,0.2,8.9c0,0.3,0,0.4,0.1,0.5c0.1,0,0.2,0.1,0.5,0.1
				c0.7,0,1.3,0,2.1,0c0.7,0,1.4,0,2,0c0.3,0,0.6,0.1,0.7,0.2c0.1,0.1,0.1,0.3,0.1,0.6c-0.1,0.9,0,1.9,0,2.8c0,1,0,1.9-0.1,2.8
				c0,0.2-0.1,0.4-0.2,0.5c-0.1,0.1-0.2,0.2-0.4,0.2c-0.7,0-1.4,0-2.1,0c-0.7,0-1.3-0.1-2-0.1c-0.2,0-0.3,0.1-0.4,0.1
				c-0.1,0-0.1,0.2-0.1,0.3c0,1,0.1,2.1,0.1,3.1c0,1,0,2.1,0.1,3.1c0,0.8,0.1,1.6,0.1,2.3c0,0.7,0,1.5,0.1,2.3
				c0,0.5,0.1,1.1,0.1,1.6c0,0.5,0,1.1,0.1,1.6c0,0,0,0.1,0,0.1c0,0.4-0.1,0.6-0.2,0.7c-0.1,0.1-0.3,0.2-0.7,0.2
				c-0.6,0-1.3,0-1.9,0.1c-0.6,0-1.3,0-1.9,0c-0.3,0-0.6,0-0.9,0.1c-0.3,0-0.6,0.1-0.9,0.1c-0.2,0-0.4-0.1-0.5-0.2
				c-0.1-0.1-0.1-0.3-0.1-0.5c-0.4-7.3-0.7-14.8-1-22.2c-0.3-7.4-0.6-14.8-0.6-22.2c0-0.4,0-0.9,0-1.3c0-0.4-0.1-0.9-0.1-1.3
				c0-0.2,0-0.4,0.1-0.5c0.1-0.1,0.3-0.1,0.5-0.1c1-0.1,2.1-0.1,3.1-0.2c1,0,2.1-0.1,3.1-0.1c1.1,0,2.3-0.1,3.5-0.1
				c1.2,0,2.3,0,3.5,0c0.4,0,0.8,0,1.1,0c0.4,0,0.8,0,1.2,0c0.2,0,0.4,0,0.5,0.1c0.1,0,0.2,0.3,0.2,0.5c0,0.2,0,0.5,0.1,0.8
				c0,0.2,0,0.5,0,0.7c0,0.7,0,1.5,0.1,2.1c0,0.4,0,0.9,0,1.3c0,0.2,0,0.5,0,0.8c0,0.3-0.1,0.5-0.2,0.6c-0.1,0.1-0.3,0.2-0.6,0.2
				C236.5,181.7,235.7,181.7,234.9,181.7z"/>
			<path class="st0" d="M260.1,221.4C260.1,221.4,260.1,221.4,260.1,221.4c0.1,0.4,0.1,0.8,0.1,1.2c0,0.4,0,0.9,0,1.3
				c0,0.2-0.1,0.4-0.1,0.4c-0.1,0.1-0.3,0.1-0.5,0.2c-0.1,0-0.1,0-0.2,0c-0.1,0-0.1,0-0.2,0c-1.3-0.2-2.6-0.4-3.8-0.5
				c-1.3-0.1-2.6-0.2-3.8-0.4c-1-0.1-2-0.2-3-0.2c-0.9,0-1.9-0.1-2.9-0.1c-0.3,0-0.6,0-0.8,0c-0.3,0-0.5,0-0.8-0.1
				c-0.3,0-0.5-0.1-0.6-0.2c-0.1-0.1-0.2-0.3-0.2-0.5c0-0.1,0-0.2-0.1-0.2c0-0.1,0-0.1,0-0.2c0-1,0.1-2.1,0.1-3.1c0-1-0.1-2-0.1-3
				c-0.1-3.5-0.2-7-0.3-10.6c-0.1-3.5-0.3-7-0.5-10.5c-0.1-2.9-0.2-5.8-0.2-8.7c0-2.9-0.1-5.7-0.1-8.6c0-0.2,0-0.4,0-0.5
				c0-0.1,0-0.3,0.1-0.5c0-0.1,0.1-0.2,0.1-0.3c0.1-0.1,0.2-0.1,0.3-0.1c0.2,0,0.5,0,0.8,0c0.2,0,0.5,0,0.8,0c2.3,0,4.6,0.1,6.9,0.2
				c2.3,0.1,4.6,0.3,6.9,0.6c0.2,0,0.4,0.1,0.5,0.2c0.1,0.1,0.2,0.3,0.2,0.6c0,0.5,0,1.2,0.1,1.7c0,0.6,0,1.2,0.1,1.7
				c0,0.3,0,0.7,0.1,1c0,0.3,0.1,0.6,0.1,0.9c0,0.3-0.1,0.5-0.2,0.6c-0.1,0.1-0.3,0.1-0.6,0.1c-0.3,0-0.5,0-0.8,0
				c-0.2,0-0.5-0.1-0.8-0.1c-0.7-0.1-1.5-0.1-2.2-0.2c-0.7,0-1.5-0.1-2.2-0.1c-0.5,0-1-0.1-1.6-0.1c-0.5,0-1,0-1.5,0
				c-0.1,0-0.2,0-0.2,0c0,0-0.1,0.1-0.1,0.2c0.1,3.1,0.2,6.3,0.3,9.5c0.2,3.2,0.3,6.3,0.3,9.4c0,0.7,0.1,1,0.2,1.1
				c0.1,0.1,0.5,0.2,1.1,0.2c0.5,0,1.1,0,1.6,0.1c0.5,0,1.1,0,1.6,0.1c0.2,0,0.4,0,0.6,0c0.2,0,0.4,0.1,0.6,0.1
				c0.2,0,0.3,0.1,0.4,0.2c0.1,0.1,0.1,0.2,0.1,0.4c0.1,0.9,0.1,1.9,0.2,2.8c0.1,0.9,0.2,1.8,0.2,2.7c0,0.2,0,0.3-0.1,0.4
				c-0.1,0.1-0.2,0.1-0.5,0.1c-0.2,0-0.5,0.1-0.8,0c-0.2,0-0.5,0-0.8,0c-0.6,0-1.1-0.1-1.7-0.1c-0.6,0-1.1-0.1-1.7-0.1
				c-0.5-0.1-0.8,0-0.9,0c-0.1,0.1-0.1,0.3-0.1,0.8c0,0.9,0,1.8,0.1,2.6c0,0.9,0.1,1.8,0.1,2.6c0,0.1,0,0.2,0.1,0.3
				c0,0,0.1,0.1,0.2,0.1c0.7,0.1,1.6,0.1,2.3,0.2c0.7,0.1,1.6,0.2,2.4,0.2c0.8,0.1,1.5,0.1,2.3,0.2c0.8,0.1,1.6,0.2,2.4,0.3
				c0.2,0,0.4,0.1,0.4,0.3c0,0.2,0.1,0.3,0.1,0.5c0,0.3,0,0.8,0,1.2c0,0.4,0,0.8,0,1.2c0,0.1,0,0.2,0,0.2
				C260.1,221.3,260.1,221.3,260.1,221.4z"/>
			<path class="st0" d="M283,226.6C283.1,226.6,283.1,226.6,283,226.6c0.1,0.4,0.1,0.8,0.1,1.2c0,0.4,0,0.9,0,1.3
				c0,0.2-0.1,0.4-0.1,0.4c-0.1,0.1-0.3,0.1-0.5,0.1c-0.1,0-0.1,0-0.2,0c-0.1,0-0.1,0-0.2-0.1c-1.3-0.4-2.6-0.8-3.8-1.1
				c-1.2-0.3-2.6-0.6-3.8-0.9c-1-0.3-2-0.5-3-0.6c-0.9-0.2-1.9-0.3-2.9-0.5c-0.3-0.1-0.6-0.1-0.8-0.1c-0.3,0-0.5-0.1-0.8-0.2
				c-0.3-0.1-0.5-0.2-0.6-0.3c-0.1-0.1-0.2-0.3-0.2-0.6c0-0.1,0-0.2-0.1-0.2c0-0.1,0-0.1,0-0.2c0-1,0.1-2.1,0.1-3.1c0-1-0.1-2-0.1-3
				c-0.1-3.5-0.2-7.1-0.3-10.6c-0.1-3.5-0.3-7.1-0.5-10.6c-0.1-2.9-0.2-5.8-0.2-8.7c0-2.9-0.1-5.7-0.1-8.6c0-0.2,0-0.4,0-0.5
				c0-0.1,0-0.3,0.1-0.5c0-0.1,0.1-0.2,0.1-0.3c0.1-0.1,0.2-0.1,0.3-0.1c0.2,0,0.5,0,0.8,0.1c0.2,0,0.5,0.1,0.8,0.1
				c2.3,0.3,4.6,0.7,6.9,1.1s4.6,0.9,6.9,1.6c0.2,0.1,0.4,0.1,0.5,0.2c0.1,0.1,0.2,0.4,0.2,0.6c0,0.5,0,1.2,0.1,1.7
				c0,0.6,0,1.2,0.1,1.7c0,0.3,0,0.7,0.1,1c0,0.3,0.1,0.6,0.1,0.9c0,0.3-0.1,0.4-0.2,0.5c-0.1,0.1-0.3,0.1-0.6,0
				c-0.3-0.1-0.5-0.1-0.8-0.2c-0.3,0-0.5-0.2-0.8-0.2c-0.7-0.2-1.5-0.3-2.2-0.5c-0.7-0.2-1.5-0.3-2.2-0.4c-0.5-0.1-1-0.2-1.6-0.3
				c-0.5-0.1-1-0.2-1.5-0.2c-0.1,0-0.2,0-0.2,0c0,0-0.1,0.1-0.1,0.2c0.1,3.1,0.2,6.3,0.3,9.6c0.2,3.2,0.3,6.4,0.3,9.5
				c0,0.7,0.1,1,0.2,1.1c0.1,0.1,0.5,0.3,1.1,0.4c0.5,0.1,1.1,0.2,1.6,0.3c0.5,0.1,1.1,0.2,1.6,0.3c0.2,0,0.4,0.1,0.6,0.1
				c0.2,0,0.4,0.1,0.6,0.2c0.2,0,0.3,0.1,0.4,0.2c0.1,0.1,0.1,0.2,0.1,0.4c0.1,0.9,0.1,1.9,0.2,2.8c0.1,0.9,0.2,1.8,0.2,2.8
				c0,0.2,0,0.3-0.1,0.4c-0.1,0.1-0.2,0.1-0.5,0c-0.2,0-0.5,0-0.8-0.1c-0.2-0.1-0.5-0.1-0.8-0.1c-0.6-0.1-1.1-0.2-1.7-0.3
				c-0.6-0.1-1.1-0.2-1.7-0.3c-0.5-0.1-0.8-0.1-0.9-0.1c-0.1,0.1-0.1,0.3-0.1,0.8c0,0.9,0,1.8,0.1,2.6c0,0.9,0.1,1.8,0.1,2.6
				c0,0.1,0,0.2,0.1,0.3c0,0,0.1,0.1,0.2,0.1c0.7,0.2,1.6,0.3,2.3,0.6c0.7,0.2,1.6,0.4,2.4,0.5c0.8,0.2,1.5,0.4,2.3,0.6
				c0.8,0.2,1.6,0.4,2.4,0.7c0.2,0.1,0.4,0.2,0.4,0.4c0,0.2,0.1,0.3,0.1,0.5c0,0.3,0,0.8,0,1.2c0,0.4,0,0.8,0,1.2c0,0.1,0,0.2,0,0.2
				C283,226.4,283,226.5,283,226.6z"/>
		</g>
	</g>
	<g>
		<circle class="st1" cx="180.4" cy="149.2" r="23.7"/>
		<g>
			<g>
				<g>
					<path class="st2" d="M177.4,136.5c-1.3-0.4-2.6,0.7-3,2.3c-0.4,1.7,0.2,3.3,1.5,3.7c1.3,0.4,2.6-0.7,3-2.3
						C179.3,138.5,178.7,136.9,177.4,136.5z"/>
				</g>
			</g>
			<path class="st2" d="M194.8,147.8c-0.3-0.3-0.8-0.4-1.3-0.3c-0.4,0.1-0.7,0.4-0.8,0.9c-0.3,1.6-0.8,3.2-1.4,4.9
				c-1.7,5.1-6.4,8.5-11.3,8.2c-6.8-0.4-10.8-5.4-11.2-9.9c0-0.3,0-0.7,0-1c0-2,0.5-4,1-6c0.1-0.6,0.3-1.3,0.4-1.9
				c0.1-0.4,0.2-0.9-0.1-1.3c-0.2-0.2-0.4-0.4-0.7-0.4c-0.4,0-0.8,0.1-1,0.4c-0.4,0.4-0.5,0.9-0.6,1.4c-0.8,3.3-1.7,7.1-1,10.7
				c1.1,5,5.4,9,10.8,10.1c0.5,0.1,1.1,0.2,1.6,0.2c3.2,0.3,6.2-0.4,8.6-2.1c2.5-1.7,4.5-4.3,5.5-6.8c0.8-2,1.4-4,1.8-6.1
				C195.3,148.5,195.2,148.1,194.8,147.8z"/>
			<g>
				<g>
					<path class="st2" d="M189.3,139.8c-1.3-0.4-2.6,0.7-3,2.3c-0.4,1.7,0.2,3.3,1.5,3.7c1.3,0.4,2.6-0.7,3-2.3
						C191.2,141.8,190.5,140.2,189.3,139.8z"/>
				</g>
			</g>
		</g>
	</g>
	<path class="st3" d="M120.4,68.7c-0.2-0.1-0.3-0.1-0.5-0.1c0,0,0-0.1,0-0.1c0,0,0-0.1,0-0.1c0.1-0.1,0.3-0.2,0.4-0.3
		c2-1.9,2.1-5,0.2-7c-1.9-2-5-2.1-7-0.2c-0.1,0.1-0.3,0.3-0.4,0.4c0,0-0.1,0-0.1,0c0,0-0.1,0-0.1,0c0-0.2-0.1-0.4-0.1-0.5
		c-0.6-2.7-3.3-4.3-6-3.7c-2.7,0.6-4.3,3.3-3.7,6c0,0.2,0.1,0.3,0.2,0.5c0,0-0.1,0-0.1,0.1c0,0-0.1,0-0.1,0.1
		c-0.2-0.1-0.3-0.1-0.5-0.2c-2.6-0.8-5.4,0.7-6.1,3.3c-0.8,2.6,0.7,5.4,3.3,6.1c0.2,0.1,0.3,0.1,0.5,0.1c0,0,0,0.1,0,0.1
		c0,0,0,0.1,0,0.1c-0.1,0.1-0.3,0.2-0.4,0.3c-2,1.9-2.1,5-0.2,7c1.9,2,5,2.1,7,0.2c0.1-0.1,0.3-0.3,0.4-0.4c0,0,0.1,0,0.1,0
		c0,0,0.1,0,0.1,0c0,0.2,0.1,0.4,0.1,0.5c0.6,2.7,3.3,4.3,6,3.7c2.7-0.6,4.3-3.3,3.7-6c0-0.2-0.1-0.3-0.2-0.5c0,0,0.1,0,0.1-0.1
		c0,0,0.1,0,0.1-0.1c0.2,0.1,0.3,0.1,0.5,0.2c2.6,0.8,5.4-0.7,6.1-3.3S123,69.5,120.4,68.7z M112.9,73.8c-1.7,1.6-4.3,1.5-5.9-0.2
		c-1.6-1.7-1.5-4.3,0.2-5.9c1.7-1.6,4.3-1.5,5.9,0.2C114.7,69.6,114.6,72.2,112.9,73.8z"/>
	<path class="st4" d="M136.4,238.9c-0.1-0.1-0.3-0.2-0.4-0.4c0,0,0-0.1,0-0.1c0,0,0-0.1,0-0.1c0.2,0,0.3-0.1,0.5-0.1
		c2.6-0.8,4.1-3.5,3.4-6.1c-0.8-2.6-3.5-4.1-6.1-3.4c-0.2,0.1-0.3,0.1-0.5,0.2c0,0-0.1,0-0.1-0.1c0,0-0.1,0-0.1-0.1
		c0.1-0.2,0.1-0.3,0.2-0.5c0.7-2.6-1-5.3-3.6-6c-2.6-0.7-5.3,1-6,3.6c0,0.2-0.1,0.4-0.1,0.5c0,0-0.1,0-0.1,0c0,0-0.1,0-0.1,0
		c-0.1-0.1-0.2-0.3-0.4-0.4c-2-1.9-5.1-1.8-7,0.1c-1.9,2-1.8,5.1,0.1,7c0.1,0.1,0.3,0.2,0.4,0.4c0,0,0,0.1,0,0.1c0,0,0,0.1,0,0.1
		c-0.2,0-0.3,0.1-0.5,0.1c-2.6,0.8-4.1,3.5-3.4,6.1c0.8,2.6,3.5,4.1,6.1,3.4c0.2-0.1,0.3-0.1,0.5-0.2c0,0,0.1,0.1,0.1,0.1
		c0,0,0,0,0.1,0.1c-0.1,0.2-0.1,0.3-0.2,0.5c-0.7,2.6,1,5.3,3.6,6c2.6,0.7,5.3-1,6-3.6c0-0.2,0.1-0.4,0.1-0.5c0,0,0.1,0,0.1,0
		c0,0,0.1,0,0.1,0c0.1,0.1,0.2,0.3,0.4,0.4c2,1.9,5.1,1.8,7-0.1C138.5,243.9,138.4,240.8,136.4,238.9z M127.5,240
		c-2.2,0.6-4.5-0.6-5.1-2.8c-0.6-2.2,0.6-4.5,2.8-5.1c2.2-0.6,4.5,0.6,5.1,2.8C131,237.1,129.7,239.4,127.5,240z"/>
	<path class="st5" d="M243,221.3c-0.2,0.1-0.3,0.1-0.5,0.2c0,0-0.1,0-0.1-0.1c0,0-0.1,0-0.1-0.1c0.1-0.2,0.1-0.3,0.2-0.5
		c0.6-2.7-1-5.3-3.6-6c-2.7-0.6-5.3,1-6,3.6c0,0.2-0.1,0.4-0.1,0.5c0,0-0.1,0-0.1,0c0,0-0.1,0-0.1,0c-0.1-0.1-0.2-0.3-0.4-0.4
		c-2-1.9-5.1-1.8-7,0.2c-1.9,2-1.8,5.1,0.2,7c0.1,0.1,0.3,0.2,0.4,0.3c0,0,0,0.1,0,0.1c0,0,0,0.1,0,0.1c-0.2,0-0.3,0.1-0.5,0.1
		c-2.6,0.8-4.1,3.5-3.3,6.1c0.8,2.6,3.5,4.1,6.1,3.3c0.2-0.1,0.3-0.1,0.5-0.2c0,0,0,0,0.1,0.1c0,0,0.1,0.1,0.1,0.1
		c-0.1,0.2-0.1,0.3-0.2,0.5c-0.6,2.7,1,5.3,3.6,6c2.7,0.6,5.3-1,6-3.6c0-0.2,0.1-0.4,0.1-0.5c0,0,0.1,0,0.1,0c0,0,0.1,0,0.1,0
		c0.1,0.1,0.2,0.3,0.4,0.4c2,1.9,5.1,1.8,7-0.2c1.9-2,1.8-5.1-0.2-7c-0.1-0.1-0.3-0.2-0.4-0.3c0,0,0-0.1,0-0.1c0,0,0-0.1,0-0.1
		c0.2,0,0.3-0.1,0.5-0.1c2.6-0.8,4.1-3.5,3.3-6.1C248.4,222,245.7,220.5,243,221.3z M239.6,229.6c-0.5,2.2-2.8,3.6-5,3.1
		c-2.2-0.5-3.6-2.8-3.1-5c0.5-2.2,2.8-3.6,5-3.1C238.8,225.2,240.1,227.4,239.6,229.6z"/>
	<path class="st6" d="M41.5,161.5c-0.2-0.1-0.3-0.1-0.5-0.1c0,0,0-0.1,0-0.1c0,0,0-0.1,0-0.1c0.1-0.1,0.3-0.2,0.4-0.3
		c2-1.9,2.1-5,0.2-7c-1.9-2-5-2.1-7-0.2c-0.1,0.1-0.3,0.3-0.4,0.4c0,0-0.1,0-0.1,0c0,0-0.1,0-0.1,0c0-0.2-0.1-0.4-0.1-0.5
		c-0.6-2.7-3.3-4.3-6-3.7c-2.7,0.6-4.3,3.3-3.7,6c0,0.2,0.1,0.3,0.2,0.5c0,0-0.1,0-0.1,0.1c0,0-0.1,0-0.1,0.1
		c-0.2-0.1-0.3-0.1-0.5-0.2c-2.6-0.8-5.4,0.7-6.1,3.3c-0.8,2.6,0.7,5.4,3.3,6.1c0.2,0.1,0.3,0.1,0.5,0.1c0,0,0,0.1,0,0.1
		c0,0,0,0.1,0,0.1c-0.1,0.1-0.3,0.2-0.4,0.3c-2,1.9-2.1,5-0.2,7c1.9,2,5,2.1,7,0.2c0.1-0.1,0.3-0.3,0.4-0.4c0,0,0.1,0,0.1,0
		c0,0,0.1,0,0.1,0c0,0.2,0.1,0.4,0.1,0.5c0.6,2.7,3.3,4.3,6,3.7c2.7-0.6,4.3-3.3,3.7-6c0-0.2-0.1-0.3-0.2-0.5c0,0,0.1,0,0.1-0.1
		c0,0,0.1,0,0.1-0.1c0.2,0.1,0.3,0.1,0.5,0.2c2.6,0.8,5.4-0.7,6.1-3.3C45.6,165,44.1,162.3,41.5,161.5z M34.1,166.6
		c-1.7,1.6-4.3,1.5-5.9-0.2c-1.6-1.7-1.5-4.3,0.2-5.9c1.7-1.6,4.3-1.5,5.9,0.2C35.8,162.4,35.8,165.1,34.1,166.6z"/>
	<path class="st7" d="M273.6,128c-0.2,0.1-0.3,0.1-0.5,0.2c0,0-0.1,0-0.1-0.1c0,0-0.1,0-0.1-0.1c0.1-0.2,0.1-0.3,0.2-0.5
		c0.6-2.7-1-5.3-3.6-6c-2.7-0.6-5.3,1-6,3.6c0,0.2-0.1,0.4-0.1,0.5c0,0-0.1,0-0.1,0c0,0-0.1,0-0.1,0c-0.1-0.1-0.2-0.3-0.4-0.4
		c-2-1.9-5.1-1.8-7,0.2c-1.9,2-1.8,5.1,0.2,7c0.1,0.1,0.3,0.2,0.4,0.3c0,0,0,0.1,0,0.1c0,0,0,0.1,0,0.1c-0.2,0-0.3,0.1-0.5,0.1
		c-2.6,0.8-4.1,3.5-3.3,6.1c0.8,2.6,3.5,4.1,6.1,3.3c0.2-0.1,0.3-0.1,0.5-0.2c0,0,0,0,0.1,0.1c0,0,0.1,0.1,0.1,0.1
		c-0.1,0.2-0.1,0.3-0.2,0.5c-0.6,2.7,1,5.3,3.6,6c2.7,0.6,5.3-1,6-3.6c0-0.2,0.1-0.4,0.1-0.5c0,0,0.1,0,0.1,0c0,0,0.1,0,0.1,0
		c0.1,0.1,0.2,0.3,0.4,0.4c2,1.9,5.1,1.8,7-0.2c1.9-2,1.8-5.1-0.2-7c-0.1-0.1-0.3-0.2-0.4-0.3c0,0,0-0.1,0-0.1c0,0,0-0.1,0-0.1
		c0.2,0,0.3-0.1,0.5-0.1c2.6-0.8,4.1-3.5,3.3-6.1S276.3,127.2,273.6,128z M270.2,136.3c-0.5,2.2-2.8,3.6-5,3.1
		c-2.2-0.5-3.6-2.8-3.1-5c0.5-2.2,2.8-3.6,5-3.1C269.4,131.8,270.7,134.1,270.2,136.3z"/>
	<g>
		<path class="st8" d="M228.4,69.8c-3.5-8.5-1.4-6.5-10.1-9.4c8.5-3.5,6.5-1.4,9.4-10.1c3.5,8.5,1.4,6.5,10.1,9.4
			C229.3,63.2,231.3,61,228.4,69.8z"/>
		<path class="st8" d="M264,177.4c-3.5-8.5-1.4-6.5-10.1-9.4c8.5-3.5,6.5-1.4,9.4-10.1c3.5,8.5,1.4,6.5,10.1,9.4
			C264.9,170.8,266.9,168.7,264,177.4z"/>
		<path class="st8" d="M173.7,247.8c-3.5-8.5-1.4-6.5-10.1-9.4c8.5-3.5,6.5-1.4,9.4-10.1c3.5,8.5,1.4,6.5,10.1,9.4
			C174.6,241.2,176.6,239.1,173.7,247.8z"/>
		<path class="st8" d="M40.6,147.6c-3.5-8.5-1.4-6.5-10.1-9.4c8.5-3.5,6.5-1.4,9.4-10.1c3.5,8.5,1.4,6.5,10.1,9.4
			C41.5,141,43.5,138.8,40.6,147.6z"/>
		<path class="st8" d="M63.6,72.6c-3.5-8.5-1.4-6.5-10.1-9.4c8.5-3.5,6.5-1.4,9.4-10.1c3.5,8.5,1.4,6.5,10.1,9.4
			C64.5,66,66.5,63.9,63.6,72.6z"/>
	</g>
</g>
</svg>
