<?xml version="1.0" encoding="utf-8"?>
<!-- Generator: Adobe Illustrator 26.3.1, SVG Export Plug-In . SVG Version: 6.00 Build 0)  -->
<svg version="1.1" id="Layer_1" xmlns="http://www.w3.org/2000/svg" xmlns:xlink="http://www.w3.org/1999/xlink" x="0px" y="0px"
	 width="250px" height="250px" viewBox="0 0 250 250" style="enable-background:new 0 0 250 250;" xml:space="preserve">
<style type="text/css">
	.st0{fill:#EABB62;}
	.st1{fill:#231F20;}
	.st2{fill:#F69769;}
	.st3{fill:#D8B3D1;}
	.st4{fill:#A9CAD5;}
	.st5{fill:#EBBC63;}
	.st6{fill:#F1BF86;}
	.st7{fill:#F5A096;}
</style>
<g>
	<g>
		<circle class="st0" cx="143.6" cy="128.5" r="18.6"/>
		<g>
			<g>
				<g>
					<path d="M141.2,118.6c-1-0.3-2,0.5-2.4,1.8c-0.3,1.3,0.2,2.6,1.2,2.9c1,0.3,2-0.5,2.4-1.8C142.7,120.1,142.2,118.9,141.2,118.6
						z"/>
				</g>
			</g>
			<path d="M154.9,127.4c-0.3-0.2-0.7-0.3-1-0.2c-0.3,0.1-0.5,0.3-0.6,0.7c-0.3,1.2-0.6,2.5-1.1,3.9c-1.4,4-5,6.7-8.8,6.4
				c-5.3-0.3-8.5-4.2-8.8-7.8c0-0.3,0-0.5,0-0.8c0-1.6,0.4-3.2,0.7-4.7c0.1-0.5,0.2-1,0.3-1.5c0.1-0.3,0.1-0.7-0.1-1
				c-0.1-0.2-0.3-0.3-0.6-0.3c-0.3,0-0.6,0.1-0.8,0.3c-0.3,0.3-0.4,0.7-0.5,1.1c-0.6,2.6-1.4,5.5-0.8,8.4c0.8,3.9,4.2,7.1,8.4,7.9
				c0.4,0.1,0.8,0.1,1.3,0.2c2.5,0.2,4.9-0.3,6.7-1.6c1.9-1.4,3.6-3.4,4.3-5.3c0.6-1.5,1.1-3.1,1.4-4.8
				C155.2,127.9,155.1,127.6,154.9,127.4z"/>
			<g>
				<g>
					<path d="M150.5,121.1c-1-0.3-2,0.5-2.4,1.8c-0.3,1.3,0.2,2.6,1.2,2.9c1,0.3,2-0.5,2.4-1.8C152,122.7,151.5,121.4,150.5,121.1z"
						/>
				</g>
			</g>
		</g>
	</g>
	<g>
		<path class="st1" d="M51.1,62.2c1.4,0.1,2.8,0.3,4,0.4c-0.2,2.4-0.3,4.1-0.4,5.3c-0.6,0-1.2-0.1-1.8-0.2c-0.6,0-1.3-0.1-1.9-0.2
			c-0.4,2.9-0.7,5.9-0.8,9.1c-0.1,3.1-0.1,6.4,0.1,9.8c0.1,0,0.2,0,0.3,0c0.7,0,1.3,0,1.8,0c0.5,0,0.9,0,1.3-0.1
			c0.1,2.4,0.1,4.1,0.1,5.3c-0.4,0-0.8,0.1-1.3,0.1c-0.5,0-1.2,0-1.8,0c0.1,1.6,0.3,3.3,0.5,4.9c0.2,1.7,0.4,3.4,0.7,5.1
			c-2.3,0.3-4.1,0.6-5.2,0.8c-1.1-7.4-1.6-14.3-1.7-20.9c0-0.2,0-0.5,0-0.7c0-6.3,0.5-12.3,1.4-17.8c0.1-0.7,0.1-1.1,0.2-1.4
			C48.1,61.9,49.6,62,51.1,62.2z"/>
		<path class="st1" d="M63.8,79.2c0,3.9,0.3,7.3,1,10.4c0.3,1.2,0.6,2.3,1,3.2c0.4,0.9,0.8,1.8,1.3,2.4c0.3,0.5,0.6,0.8,0.9,1.1
			c0.3,0.2,0.5,0.4,0.8,0.4c0,0,0.1,0,0.2,0c0.1,0,0.2-0.1,0.3-0.1c0.1-0.1,0.3-0.2,0.5-0.3c0.1-0.1,0.3-0.3,0.5-0.5
			c0.4-0.5,0.9-1.2,1.3-2c0.4-0.9,0.9-1.9,1.3-3.1c0.9-3.1,1.6-6.8,1.9-11.1c0.3-4.3,0.2-9.3-0.1-14.8c2.3-0.2,4.1-0.3,5.3-0.4
			c0.2,3.1,0.3,6.1,0.3,8.9c0,2.4-0.1,4.7-0.2,6.9c-0.3,4.6-1,8.7-2.1,12.1c-0.5,1.6-1,2.9-1.7,4.1c-0.6,1.2-1.3,2.2-2.1,3
			c-0.9,1-1.8,1.7-2.8,2.1c-0.7,0.3-1.5,0.5-2.3,0.5c-0.3,0-0.6,0-0.9-0.1c-1-0.1-2-0.5-2.9-1.1c-0.9-0.6-1.7-1.5-2.5-2.6
			c-0.7-0.9-1.3-2-1.8-3.3c-0.5-1.3-0.9-2.7-1.3-4.3c-0.7-3.3-1.1-7-1.1-11c0-0.2,0-0.3,0-0.5c0-4.2,0.4-8.8,1.3-13.8
			c2.6,0.4,4.3,0.7,5.2,0.9C64.3,71.1,63.9,75.4,63.8,79.2z"/>
		<path class="st1" d="M90.7,62.4c1.6,0.2,3,0.3,4.4,0.4c-0.2,2.4-0.4,4.1-0.5,5.3C94,68.1,93.2,68,92.5,68
			c-0.7-0.1-1.4-0.2-2.1-0.3c-0.4,2.8-0.6,5.6-0.8,8.6c-0.1,3-0.1,6.1,0.1,9.2c0.4,0,0.6,0,0.8,0c0.8,0,1.6,0,2.2-0.1
			c0.6,0,1.2,0,1.7,0c0,2.3,0.1,4.1,0.1,5.3c-0.5,0-1,0-1.7,0.1c-0.6,0-1.4,0-2.2,0c-0.3,0-0.5,0-0.6,0c0.1,1.2,0.2,2.3,0.4,3.5
			c0.1,1.2,0.2,2.3,0.4,3.5c0.1,0,0.2,0,0.3,0c0.2,0,0.3,0,0.4,0c0.2,0,0.4,0,0.5,0c0.9,0,1.7,0,2.4,0c0.7,0,1.3,0,1.7-0.1
			c0.1,2.4,0.2,4.1,0.2,5.3c-0.5,0-1.1,0-1.8,0.1c-0.7,0-1.5,0-2.5,0c-0.2,0-0.4,0-0.5,0c-1.3,0-2.3,0-3.2,0c-0.9,0-1.7,0.1-2.2,0.1
			c-0.1-1-0.1-1.8-0.1-2.3c-0.9-6.7-1.5-13-1.5-19c0-0.4,0-0.7,0-1.1c0-5.6,0.4-10.8,1.1-15.8c0.2-1.6,0.3-2.6,0.4-3.1
			C87.5,62.1,89.2,62.3,90.7,62.4z"/>
		<path class="st1" d="M106.1,73.2c-0.2,2.9-0.4,5.9-0.4,8.9c0,2.4,0.1,4.8,0.2,7c0.1,2.2,0.3,4.3,0.6,6.3c0.1,0,0.3,0,0.5,0.1
			c0.2,0,0.3,0,0.5,0c0.8,0,1.6,0.1,2.4,0.1c0.7,0,1.4,0,2,0c0,2.4,0,4.1-0.1,5.3c-0.7,0-1.4,0-2.1-0.1c-0.8,0-1.6-0.1-2.4-0.1
			c-0.1,0-0.3,0-0.5-0.1c-0.2,0-0.4,0-0.6,0c-0.1,0-0.2,0-0.3,0c-0.1,0-0.2-0.1-0.3-0.1c-0.1,0-0.2,0-0.3,0c-0.1,0-0.2,0-0.3,0
			c-0.6,0-1.2,0-1.6-0.1c-0.5,0-0.9-0.1-1.3-0.1v-0.1h-0.1c-0.5-2.6-0.9-5.4-1.1-8.5c-0.2-2.8-0.3-5.7-0.3-8.9c0-0.4,0-0.7,0-1.1
			c0-3.2,0.1-6.3,0.4-9.3c0.2-3,0.5-5.8,1-8.6c2.6,0.4,4.3,0.6,5.2,0.8C106.6,67.5,106.3,70.3,106.1,73.2z"/>
		<path class="st1" d="M122.7,62.4c1.6,0.2,3,0.3,4.4,0.4c-0.2,2.4-0.4,4.1-0.5,5.3c-0.7-0.1-1.4-0.1-2.1-0.2
			c-0.7-0.1-1.4-0.2-2.1-0.3c-0.4,2.8-0.6,5.6-0.8,8.6c-0.1,3-0.1,6.1,0.1,9.2c0.4,0,0.6,0,0.8,0c0.8,0,1.6,0,2.2-0.1
			c0.6,0,1.2,0,1.7,0c0,2.3,0.1,4.1,0.1,5.3c-0.5,0-1,0-1.7,0.1c-0.6,0-1.4,0-2.2,0c-0.3,0-0.5,0-0.6,0c0.1,1.2,0.2,2.3,0.4,3.5
			c0.1,1.2,0.2,2.3,0.4,3.5c0.1,0,0.2,0,0.3,0c0.2,0,0.3,0,0.4,0c0.2,0,0.4,0,0.5,0c0.9,0,1.7,0,2.4,0c0.7,0,1.3,0,1.7-0.1
			c0.1,2.4,0.2,4.1,0.2,5.3c-0.5,0-1.1,0-1.8,0.1c-0.7,0-1.5,0-2.5,0c-0.2,0-0.4,0-0.5,0c-1.3,0-2.3,0-3.2,0c-0.9,0-1.7,0.1-2.2,0.1
			c-0.1-1-0.1-1.8-0.1-2.3c-0.9-6.7-1.5-13-1.5-19c0-0.4,0-0.7,0-1.1c0-5.6,0.4-10.8,1.1-15.8c0.2-1.6,0.3-2.6,0.4-3.1
			C119.5,62.1,121.2,62.3,122.7,62.4z"/>
		<path class="st1" d="M140.4,64.7c2.1,1,3.9,2.3,5.5,3.9c1.5,1.5,2.7,3.2,3.6,5.1c0.9,1.8,1.5,3.8,1.8,6c0.1,0.9,0.2,1.8,0.2,2.6
			c0,1.3-0.1,2.5-0.3,3.7c-0.4,2.1-1,4.2-2,6.2c-1,2.1-2.4,4.1-3.9,5.8c-1.6,1.8-3.5,3.3-5.6,4.7v0.1c-2.4,0.3-4.1,0.5-5.3,0.6
			c-0.4-3.7-0.7-7.1-1-10.3c-0.3-3.1-0.5-6-0.6-8.5c-0.2-3.2-0.3-6-0.3-8.6c0-0.3,0-0.5,0-0.8c0-2.8,0.2-5.2,0.4-7.2h-0.1
			c0.4-2.6,0.6-4.4,0.8-5.3C135.9,63.1,138.3,63.7,140.4,64.7z M142,93.4c0.9-1.1,1.7-2.3,2.3-3.6c0.7-1.6,1.3-3.1,1.6-4.7
			c0.3-1.6,0.3-3.1,0.1-4.8c-0.2-1.6-0.6-3-1.3-4.3c-0.6-1.3-1.5-2.5-2.6-3.6c-0.6-0.6-1.3-1.2-1.9-1.7c-0.7-0.5-1.5-0.9-2.3-1.3
			c-0.2,1.9-0.3,4-0.3,6.5c0,2.5,0.1,5.2,0.3,8.3c0.1,1.9,0.2,3.8,0.4,5.9c0.2,2.1,0.4,4.2,0.6,6.4C140,95.6,141.1,94.5,142,93.4z"
			/>
		<path class="st1" d="M165.1,62.4c2,0,3.8,0.2,5.6,0.7c2,0.5,3.9,1.3,5.7,2.3c1.8,1.1,3.3,2.4,4.5,3.7c1.2,1.4,2,2.9,2.5,4.6
			c0.3,1.2,0.5,2.3,0.5,3.4c0,0.7-0.1,1.5-0.3,2.2c-0.4,1.8-1.3,3.5-2.7,5.2c-0.6,0.8-1.3,1.5-2.2,2.2c-0.8,0.7-1.8,1.3-2.8,1.9
			c0.5,0.3,1,0.6,1.4,0.9c0.4,0.3,0.8,0.7,1.1,1.1c0.3,0.4,0.5,0.9,0.7,1.4c0.1,0.5,0.2,1,0.3,1.5c0,0.6-0.1,1.2-0.2,1.8
			c-0.2,0.6-0.4,1.1-0.7,1.7c-0.3,0.5-0.7,1-1.2,1.5c-0.5,0.5-1,0.9-1.6,1.3c-1.3,0.8-2.7,1.5-4.4,2c-1.6,0.5-3.5,0.8-5.5,0.9
			c0-0.7-0.1-1.2-0.1-1.5c-0.6-5.2-1-10.8-1.3-16.8c-0.1-3.1-0.2-6.3-0.2-9.7c0-3.1,0.1-6.3,0.2-9.6h0.1c0-1.3-0.1-2.2-0.1-2.6
			C164.7,62.4,164.9,62.4,165.1,62.4z M174.1,83.6c1.2-0.8,2.1-1.7,2.9-2.5c0.8-0.9,1.3-1.9,1.5-2.9c0.2-0.9,0.2-1.9-0.1-2.9
			c-0.3-1-0.8-2-1.6-2.9c-0.8-0.9-1.8-1.7-3-2.4c-0.6-0.3-1.3-0.6-2-0.9c-0.6-0.3-1.3-0.5-2-0.7c-0.1,3.1-0.1,6.2-0.1,9.1
			c0,2.9,0.1,5.7,0.3,8.4C171.5,85.1,172.9,84.3,174.1,83.6z M171.8,95.9c0.3-0.2,0.7-0.4,1-0.6c0.3-0.1,0.5-0.3,0.7-0.5
			c0.2-0.2,0.4-0.4,0.5-0.6c0-0.1,0.1-0.2,0.2-0.3c0-0.1,0.1-0.2,0.1-0.3l-0.1-0.1c0,0,0-0.1,0-0.1c-0.1,0-0.2-0.1-0.3-0.2
			c-0.1-0.1-0.2-0.1-0.4-0.2c-0.4-0.1-0.9-0.2-1.4-0.2c-0.5,0-1.1,0.1-1.7,0.3c0.2,1.6,0.3,2.6,0.3,3.1
			C171,96.3,171.4,96.1,171.8,95.9z"/>
		<path class="st1" d="M206.8,73.7c0.3,1.8,0.5,3.4,0.6,4.9c0.1,1.3,0.1,2.6,0.1,4c0,0.5,0,1,0,1.6c-0.1,1.8-0.2,3.7-0.5,5.5
			c-0.2,2.1-0.6,3.9-1.2,5.5c-0.5,1.6-1.2,3-1.9,4.1c-0.9,1.3-1.9,2.1-2.9,2.7c-0.8,0.4-1.7,0.6-2.7,0.6c-0.3,0-0.6,0-0.9-0.1
			c-1.2-0.1-2.2-0.5-3.1-1.1c-1-0.6-1.9-1.5-2.6-2.7c-0.7-1-1.3-2.2-1.8-3.5c-0.5-1.3-0.8-2.6-1-4.2c2.3-0.3,4.1-0.5,5.3-0.6
			c0.1,1,0.3,2,0.6,2.9c0.3,0.8,0.7,1.6,1.2,2.3c0.3,0.5,0.7,0.9,1,1.2c0.3,0.3,0.7,0.4,1,0.5c0.1,0,0.2,0,0.3,0
			c0.1,0,0.2-0.1,0.3-0.1c0.1-0.1,0.3-0.2,0.5-0.4c0.2-0.2,0.3-0.4,0.5-0.6c0.5-0.7,1-1.7,1.4-2.9c0.4-1.2,0.7-2.7,0.9-4.3
			c0.2-1.7,0.3-3.3,0.4-5c0-1.7,0-3.3-0.1-5c0-0.2,0-0.4,0-0.5c-0.4,0.8-0.7,1.5-1.1,2.1c-0.3,0.6-0.7,1.2-1,1.8
			c-0.5,0.9-1,1.6-1.5,2.2c-0.5,0.6-1,1.2-1.5,1.6c-0.7,0.6-1.5,1-2.3,1.2c-0.7,0.2-1.5,0.2-2.2-0.1c-0.7-0.1-1.4-0.5-1.9-1
			c-0.6-0.5-1.1-1.2-1.5-2c-0.3-0.6-0.6-1.3-0.8-2c-0.2-0.8-0.4-1.6-0.5-2.6c-0.2-1.7-0.4-3.5-0.4-5.6c0-0.3,0-0.6,0-0.9
			c0-2.5,0.2-5.2,0.6-8.2c2.3,0.3,4.1,0.5,5.2,0.6c-0.3,2.8-0.5,5.3-0.6,7.6c0,2.2,0.1,4.2,0.3,5.9c0.1,0.6,0.2,1.2,0.3,1.6
			c0.1,0.5,0.3,0.9,0.4,1.2c0.3-0.2,0.5-0.5,0.8-0.9c0.3-0.4,0.6-0.8,0.9-1.3c0.9-1.5,1.8-3.3,2.6-5.5c0.8-2.2,1.7-4.8,2.6-7.7
			c2.2,0.6,3.9,1.1,5,1.5V68c0,0,0.1,0,0.1,0C206.2,70,206.5,71.9,206.8,73.7z"/>
		<path class="st1" d="M49,115.4c-0.1,2.9-0.1,5.5-0.2,7.7c0,2.3,0,4.4,0,6.2c0,3.2,0,6.1,0,8.8c0.1,2.7,0.2,5.1,0.3,7.3
			c-2.2,0.2-3.9,0.3-5,0.4c-0.2-2.3-0.3-4.8-0.3-7.5c0-1.9,0-3.9,0-6.1c0-1,0-2,0-3c0-1.8,0-3.8,0-6.2c0-2.3,0.1-4.9,0.2-7.8
			c0-1.3,0-2.4,0-3.2c0-0.8,0-1.5,0-1.8c2.5,0.1,4.2,0.1,5,0.1C49.1,112.6,49,114.3,49,115.4z"/>
		<path class="st1" d="M64.4,114c-0.4,0-0.7,0.1-1.1,0.2c-0.4,0.2-0.8,0.4-1.2,0.6c-0.4,0.2-0.8,0.5-1.2,0.9
			c-1.2,1.1-2.1,2.6-2.9,4.5c-0.7,1.8-1.3,4-1.6,6.5c-0.3,2.3-0.5,4.6-0.4,6.8c0.1,2.2,0.4,4.3,0.8,6.3c0.2,0.9,0.4,1.6,0.7,2.3
			c0.3,0.7,0.5,1.2,0.8,1.7c0,0.1,0.1,0.2,0.1,0.2c0.1,0.1,0.1,0.2,0.2,0.2c0.1-0.1,0.3-0.2,0.4-0.4c0.2-0.2,0.3-0.4,0.4-0.6
			c0.5-0.7,1-1.6,1.5-2.8c0.5-1.2,0.9-2.5,1.5-4.1c2.1,0.6,3.7,1.1,4.8,1.5c-0.5,1.8-1.1,3.3-1.7,4.7c-0.6,1.3-1.2,2.5-1.8,3.4
			c-0.3,0.5-0.7,0.9-1,1.3c-0.4,0.4-0.7,0.7-1.1,1c-0.5,0.4-0.9,0.6-1.4,0.8c-0.5,0.2-1,0.3-1.5,0.3c-0.5,0-1-0.1-1.5-0.2
			c-0.5-0.1-0.9-0.4-1.4-0.7c-0.4-0.2-0.7-0.5-1-0.8c-0.3-0.3-0.6-0.7-0.8-1.2c-0.5-0.7-0.9-1.5-1.2-2.5c-0.4-0.9-0.7-2-0.9-3.1
			c-0.5-2.3-0.9-4.7-1-7.2c0-0.5,0-1,0-1.5c0-2,0.1-4,0.4-6.1c0.4-3.1,1.1-5.8,2.1-8.1c1-2.3,2.3-4.3,3.8-5.8
			c0.7-0.7,1.5-1.4,2.3-1.8c0.8-0.5,1.7-0.8,2.6-1.1c0.7-0.2,1.5-0.3,2.2-0.3c0.1,0,0.3,0,0.4,0c0.8,0,1.7,0.2,2.5,0.6
			c-1,2.3-1.7,3.8-2.1,4.6C65,114,64.7,114,64.4,114z"/>
		<path class="st1" d="M75.8,109.5c1.5,0.2,2.9,0.3,4.2,0.4c-0.2,2.3-0.3,4-0.4,5.1c-0.6-0.1-1.3-0.1-2-0.2c-0.7-0.1-1.4-0.1-2-0.2
			c-0.4,2.6-0.6,5.4-0.7,8.2c-0.1,2.8-0.1,5.8,0,8.8c0.4,0,0.6,0,0.8,0c0.8,0,1.5,0,2.1,0c0.6,0,1.1,0,1.6,0c0,2.2,0.1,3.9,0.1,5
			c-0.5,0-1,0-1.6,0c-0.6,0-1.3,0-2.1,0c-0.3,0-0.5,0-0.6,0c0.1,1.1,0.2,2.2,0.3,3.3c0.1,1.1,0.2,2.2,0.4,3.3c0.1,0,0.2,0,0.3,0
			c0.2,0,0.3,0,0.4,0c0.2,0,0.3,0,0.4,0c0.8,0,1.6,0,2.3,0c0.6,0,1.2,0,1.6,0c0.1,2.3,0.2,4,0.2,5.1c-0.5,0-1.1,0-1.7,0
			c-0.7,0-1.5,0-2.4,0c-0.2,0-0.4,0-0.5,0c-1.2,0-2.2,0-3.1,0c-0.9,0-1.6,0.1-2.1,0.1c-0.1-1-0.1-1.7-0.1-2.2
			c-0.9-6.4-1.4-12.4-1.5-18.1c0-0.4,0-0.7,0-1.1c0-5.3,0.4-10.3,1.1-15.1c0.2-1.5,0.3-2.5,0.4-3C72.8,109.2,74.4,109.4,75.8,109.5z
			"/>
		<path class="st1" d="M91.4,111.7c2,0.9,3.7,2.2,5.3,3.7c1.4,1.5,2.6,3.1,3.4,4.8c0.9,1.7,1.4,3.6,1.7,5.7c0.1,0.8,0.1,1.7,0.1,2.5
			c0,1.2-0.1,2.4-0.3,3.5c-0.4,2-1,4-1.9,5.9c-1,2-2.2,3.9-3.7,5.5c-1.5,1.7-3.3,3.2-5.3,4.5v0c-2.3,0.3-4,0.5-5.1,0.6
			c-0.4-3.6-0.7-6.8-1-9.8c-0.3-3-0.5-5.7-0.6-8.1c-0.2-3-0.3-5.8-0.3-8.2c0-0.3,0-0.5,0-0.8c0-2.6,0.2-4.9,0.4-6.8h0
			c0.4-2.5,0.6-4.2,0.7-5C87.2,110.1,89.4,110.8,91.4,111.7z M93,139.1c0.9-1.1,1.6-2.2,2.2-3.4c0.7-1.5,1.2-3,1.5-4.5
			c0.3-1.5,0.3-3,0.1-4.6c-0.2-1.5-0.6-2.9-1.3-4.1c-0.6-1.3-1.4-2.4-2.5-3.4c-0.6-0.6-1.2-1.1-1.8-1.6c-0.7-0.5-1.4-0.9-2.2-1.3
			c-0.2,1.8-0.2,3.8-0.2,6.2c0,2.4,0.1,5,0.2,7.9c0.1,1.8,0.2,3.6,0.4,5.6c0.2,2,0.3,4,0.5,6.2C91.1,141.1,92.1,140.1,93,139.1z"/>
		<path class="st1" d="M124.5,114c-0.4,0-0.7,0.1-1.1,0.2c-0.4,0.2-0.8,0.4-1.2,0.6c-0.4,0.2-0.8,0.5-1.2,0.9
			c-1.2,1.1-2.1,2.6-2.9,4.5c-0.7,1.8-1.3,4-1.6,6.5c-0.3,2.3-0.5,4.6-0.4,6.8c0.1,2.2,0.4,4.3,0.8,6.3c0.2,0.9,0.4,1.6,0.7,2.3
			c0.3,0.7,0.5,1.2,0.8,1.7c0,0.1,0.1,0.2,0.1,0.2c0.1,0.1,0.1,0.2,0.2,0.2c0.1-0.1,0.3-0.2,0.4-0.4c0.2-0.2,0.3-0.4,0.4-0.6
			c0.5-0.7,1-1.6,1.5-2.8c0.5-1.2,0.9-2.5,1.5-4.1c2.1,0.6,3.7,1.1,4.8,1.5c-0.5,1.8-1.1,3.3-1.7,4.7c-0.6,1.3-1.2,2.5-1.8,3.4
			c-0.3,0.5-0.7,0.9-1,1.3c-0.4,0.4-0.7,0.7-1.1,1c-0.5,0.4-0.9,0.6-1.4,0.8c-0.5,0.2-1,0.3-1.5,0.3c-0.5,0-1-0.1-1.5-0.2
			c-0.5-0.1-0.9-0.4-1.4-0.7c-0.4-0.2-0.7-0.5-1-0.8c-0.3-0.3-0.6-0.7-0.8-1.2c-0.5-0.7-0.9-1.5-1.2-2.5c-0.4-0.9-0.7-2-0.9-3.1
			c-0.5-2.3-0.9-4.7-1-7.2c0-0.5,0-1,0-1.5c0-2,0.1-4,0.4-6.1c0.4-3.1,1.1-5.8,2.1-8.1c1-2.3,2.3-4.3,3.8-5.8
			c0.7-0.7,1.5-1.4,2.3-1.8c0.8-0.5,1.7-0.8,2.6-1.1c0.7-0.2,1.5-0.3,2.2-0.3c0.1,0,0.3,0,0.4,0c0.8,0,1.7,0.2,2.5,0.6
			c-1,2.3-1.7,3.8-2.1,4.6C125.2,114,124.8,114,124.5,114z"/>
		<path class="st1" d="M167.8,109.3c1.4,0.1,2.6,0.2,3.8,0.3c-0.2,2.3-0.3,3.9-0.4,5c-0.6,0-1.2-0.1-1.7-0.1c-0.6,0-1.2-0.1-1.8-0.1
			c-0.4,2.8-0.6,5.7-0.7,8.7c-0.1,3-0.1,6.1,0.1,9.3c0.1,0,0.2,0,0.2,0c0.6,0,1.2,0,1.7,0c0.5,0,0.9,0,1.3,0c0.1,2.3,0.1,3.9,0.1,5
			c-0.4,0-0.8,0-1.3,0c-0.5,0-1.1,0-1.7,0c0.1,1.5,0.3,3.1,0.4,4.7c0.2,1.6,0.4,3.2,0.6,4.8c-2.2,0.3-3.9,0.6-5,0.7
			c-1-7-1.6-13.7-1.6-19.9c0-0.2,0-0.4,0-0.6c0-6,0.5-11.7,1.4-17c0.1-0.6,0.1-1.1,0.1-1.3C165,109,166.5,109.2,167.8,109.3z"/>
		<path class="st1" d="M179.8,109.3c1.4,0.1,2.6,0.2,3.8,0.3c-0.2,2.3-0.3,3.9-0.4,5c-0.6,0-1.2-0.1-1.7-0.1c-0.6,0-1.2-0.1-1.8-0.1
			c-0.4,2.8-0.6,5.7-0.7,8.7c-0.1,3-0.1,6.1,0.1,9.3c0.1,0,0.2,0,0.2,0c0.6,0,1.2,0,1.7,0c0.5,0,0.9,0,1.3,0c0.1,2.3,0.1,3.9,0.1,5
			c-0.4,0-0.8,0-1.3,0c-0.5,0-1.1,0-1.7,0c0.1,1.5,0.3,3.1,0.4,4.7c0.2,1.6,0.4,3.2,0.6,4.8c-2.2,0.3-3.9,0.6-5,0.7
			c-1-7-1.6-13.7-1.6-19.9c0-0.2,0-0.4,0-0.6c0-6,0.5-11.7,1.4-17c0.1-0.6,0.1-1.1,0.1-1.3C176.9,109,178.4,109.2,179.8,109.3z"/>
		<path class="st1" d="M191.9,109.5c1.5,0.2,2.9,0.3,4.2,0.4c-0.2,2.3-0.3,4-0.4,5.1c-0.6-0.1-1.3-0.1-2-0.2c-0.7-0.1-1.4-0.1-2-0.2
			c-0.4,2.6-0.6,5.4-0.7,8.2c-0.1,2.8-0.1,5.8,0,8.8c0.4,0,0.6,0,0.8,0c0.8,0,1.5,0,2.1,0c0.6,0,1.1,0,1.6,0c0,2.2,0.1,3.9,0.1,5
			c-0.5,0-1,0-1.6,0c-0.6,0-1.3,0-2.1,0c-0.3,0-0.5,0-0.6,0c0.1,1.1,0.2,2.2,0.3,3.3c0.1,1.1,0.2,2.2,0.4,3.3c0.1,0,0.2,0,0.3,0
			c0.2,0,0.3,0,0.4,0c0.2,0,0.3,0,0.4,0c0.8,0,1.6,0,2.3,0c0.6,0,1.2,0,1.6,0c0.1,2.3,0.2,4,0.2,5.1c-0.5,0-1.1,0-1.7,0
			c-0.7,0-1.5,0-2.4,0c-0.2,0-0.4,0-0.5,0c-1.2,0-2.2,0-3.1,0c-0.9,0-1.6,0.1-2.1,0.1c-0.1-1-0.1-1.7-0.1-2.2
			c-0.9-6.4-1.4-12.4-1.5-18.1c0-0.4,0-0.7,0-1.1c0-5.3,0.4-10.3,1.1-15.1c0.2-1.5,0.3-2.5,0.4-3
			C188.9,109.2,190.4,109.4,191.9,109.5z"/>
		<path class="st1" d="M206.2,109.5c1.5,0.2,2.9,0.3,4.2,0.4c-0.2,2.3-0.3,4-0.4,5.1c-0.6-0.1-1.3-0.1-2-0.2c-0.7-0.1-1.4-0.1-2-0.2
			c-0.4,2.6-0.6,5.4-0.7,8.2c-0.1,2.8-0.1,5.8,0,8.8c0.4,0,0.6,0,0.8,0c0.8,0,1.5,0,2.1,0c0.6,0,1.1,0,1.6,0c0,2.2,0.1,3.9,0.1,5
			c-0.5,0-1,0-1.6,0c-0.6,0-1.3,0-2.1,0c-0.3,0-0.5,0-0.6,0c0.1,1.1,0.2,2.2,0.3,3.3c0.1,1.1,0.2,2.2,0.4,3.3c0.1,0,0.2,0,0.3,0
			c0.2,0,0.3,0,0.4,0c0.2,0,0.3,0,0.4,0c0.8,0,1.6,0,2.3,0c0.6,0,1.2,0,1.6,0c0.1,2.3,0.2,4,0.2,5.1c-0.5,0-1.1,0-1.7,0
			c-0.7,0-1.5,0-2.4,0c-0.2,0-0.4,0-0.5,0c-1.2,0-2.2,0-3.1,0c-0.9,0-1.6,0.1-2.1,0.1c-0.1-1-0.1-1.7-0.1-2.2
			c-0.9-6.4-1.4-12.4-1.5-18.1c0-0.4,0-0.7,0-1.1c0-5.3,0.4-10.3,1.1-15.1c0.2-1.5,0.3-2.5,0.4-3
			C203.1,109.2,204.7,109.4,206.2,109.5z"/>
		<path class="st1" d="M66.3,189.6c0.6,0.6,1.2,1.1,1.6,1.5c-1.5,1.8-2.5,3.2-3.2,4.2c-0.6-0.4-1.2-1-2-1.7
			c-0.7-0.7-1.5-1.6-2.4-2.6c-0.6,0.4-1.3,0.8-2,1.1c-0.6,0.3-1.3,0.6-2,0.8c-0.8,0.3-1.7,0.5-2.4,0.6c-0.8,0.1-1.5,0.1-2.3,0.1
			c-1,0-2-0.2-2.8-0.5c-0.8-0.3-1.6-0.7-2.3-1.3c-1.4-1.2-2.3-2.5-2.8-3.9c-0.3-0.9-0.5-1.8-0.5-2.8c0-0.6,0.1-1.2,0.2-1.9
			c0.2-1.2,0.6-2.4,1.3-3.8c0.7-1.4,1.6-2.8,2.7-4.4c0.2-0.3,0.4-0.5,0.6-0.8c0.2-0.3,0.4-0.6,0.7-0.9c-0.7-1.7-1.3-3.2-1.6-4.7
			c-0.3-1.5-0.5-2.8-0.5-4.1c0-1.1,0.2-2.1,0.5-3.1c0.3-0.9,0.8-1.8,1.5-2.5c0.6-0.7,1.4-1.4,2.4-1.8c0.9-0.5,2-0.9,3.2-1.1
			c0.5-0.1,1.1-0.1,1.6-0.1c0.6,0,1.1,0.1,1.7,0.2c1,0.2,2,0.7,2.8,1.4c0.7,0.6,1.2,1.3,1.5,2c0.3,0.7,0.5,1.6,0.4,2.5
			c0,0.6-0.2,1.3-0.4,2c-0.2,0.7-0.6,1.5-1,2.2c-0.3,0.5-0.7,1.1-1.2,1.8c-0.5,0.7-1,1.4-1.6,2.1c-0.2,0.3-0.5,0.6-0.8,0.9
			c-0.3,0.3-0.6,0.7-0.9,1.1c-0.1,0-0.2,0.1-0.3,0.3c-0.1,0.2-0.3,0.4-0.5,0.6c-0.2,0.3-0.4,0.5-0.5,0.7c-0.1,0.1-0.2,0.2-0.3,0.3
			c0,0,0,0.1,0.1,0.1c0,0,0,0.1,0.1,0.1c0.8,1.5,1.7,3,2.6,4.5c1,1.5,2.1,3.1,3.4,4.6c0.5-0.7,0.9-1.4,1.4-2.2
			c0.4-0.8,0.8-1.6,1.1-2.5c0.4-1.1,0.7-2.2,1-3.4c0.2-1.2,0.4-2.3,0.5-3.6c0-1.2,0-2.4-0.2-3.6c-0.1-1.2-0.3-2.3-0.6-3.3
			c2.3-0.6,4-1.1,5.1-1.4c0.3,1.3,0.6,2.7,0.8,4.1c0.1,1.1,0.2,2.1,0.2,3.2c0,0.4,0,0.7,0,1.1c-0.1,1.5-0.3,2.9-0.6,4.4
			c-0.3,1.5-0.7,2.9-1.2,4.2c-0.5,1.4-1.1,2.6-1.8,3.9c-0.7,1.2-1.5,2.3-2.3,3.2C65,188.3,65.7,189,66.3,189.6z M49.4,181.5
			c-0.5,0.9-0.8,1.7-0.9,2.4c-0.1,0.7-0.1,1.4,0.1,2c0.2,0.6,0.7,1.1,1.3,1.6c0.5,0.4,1.1,0.6,1.9,0.7c0.8,0,1.8-0.1,2.8-0.5
			c0.4-0.1,0.7-0.2,1.1-0.4c0.3-0.2,0.7-0.4,1.1-0.6c-1.1-1.4-2.1-2.8-3-4.2c-0.9-1.4-1.8-2.7-2.6-4.1
			C50.5,179.6,49.8,180.6,49.4,181.5z M53.2,167.5c0.2-0.3,0.4-0.6,0.7-0.8c0.5-0.6,0.9-1.2,1.3-1.8c0.4-0.5,0.7-1,1-1.5
			c0.2-0.4,0.4-0.8,0.5-1.1c0.1-0.3,0.2-0.6,0.2-0.8v-0.1l-0.1-0.1v-0.1c-0.2-0.2-0.5-0.3-0.8-0.3c-0.3-0.1-0.6-0.1-1,0
			c-0.6,0.1-1.1,0.3-1.6,0.5c-0.4,0.2-0.8,0.4-1,0.7c-0.2,0.3-0.4,0.6-0.5,1c-0.1,0.4-0.2,0.8-0.2,1.2c0,0.6,0,1.2,0.1,1.8
			c0.1,0.6,0.3,1.3,0.6,2.1C52.7,168.1,53,167.8,53.2,167.5z"/>
		<path class="st1" d="M80.9,191.2c0-1.8,0.2-4,0.7-6.6c0.6-3.5,1.6-7.6,3-12.4c1.3-4.3,2.5-8.1,3.7-11.3c1.2-3.2,2.4-5.9,3.6-8
			v-0.1c0,0,0-0.1,0.1-0.1H92v-0.1h0.1l0.1,0.1c2.5,0.3,4.2,0.4,5,0.5h0.1h0.1c0,0.1,0,0.2,0,0.2c0.3,2.6,0.6,5.9,1,9.9
			c0.4,4,0.8,8.6,1.3,13.8c0,0.2,0,0.3,0,0.4c0.4,3.8,0.7,7.2,1,10c0.3,2.8,0.5,5.2,0.7,7.2c-2.3,0.3-4.1,0.5-5.2,0.6
			c-0.1-1-0.2-1.9-0.3-2.9c-0.1-1-0.2-1.9-0.3-2.9c-0.6,0-1.3-0.1-2.2-0.1c-0.8,0-1.8,0-2.9,0c-0.3,0-0.6,0-0.7,0
			c-0.7,0-1.4,0.1-1.9,0.1c-0.5,0-1,0-1.3,0c-0.1,0.6-0.1,1.2-0.1,1.7s0,0.9,0.1,1.3c-2.6,0.2-4.4,0.4-5.3,0.5
			C81,192.4,80.9,191.8,80.9,191.2z M88.1,184.1c0.4,0,0.8,0,1.4-0.1c0.3,0,0.5,0,0.7,0c1,0,1.9,0,2.6,0c0.8,0,1.5,0,2,0
			c-0.1-0.8-0.2-1.7-0.3-2.7c-0.1-1-0.2-2.2-0.3-3.4c0-0.1,0-0.1-0.1-0.2c0-0.1,0-0.1,0-0.2c-0.3-3-0.6-5.7-0.8-8
			c-0.2-2.3-0.4-4.2-0.6-5.8c-0.6,1.6-1.1,3.1-1.7,4.8c-0.5,1.7-1,3.3-1.5,5c-0.6,1.9-1.1,3.7-1.5,5.5c-0.4,1.8-0.8,3.4-1.1,5
			C87.4,184.1,87.7,184.1,88.1,184.1z"/>
		<path class="st1" d="M125.4,166.1c0.1,2.3,0.1,4.4,0.2,6.2c0,2.9-0.1,5.4-0.2,7.7c-0.1,2.3-0.3,4.2-0.5,5.8v0.1
			c-2.2,0.9-3.8,1.5-4.9,2c-0.7-1.7-1.6-3.6-2.4-5.5c-0.9-1.9-1.9-3.9-2.9-6c-0.7-1.3-1.4-2.7-2.2-4.2c-0.8-1.5-1.7-3.1-2.6-4.8
			c0,4.1,0.1,8.1,0.4,12c0.3,3.8,0.8,7.5,1.4,11.1c-2.3,0.4-4.1,0.7-5.3,0.9c-0.9-5.4-1.5-11.1-1.7-16.9c-0.1-2.1-0.1-4.2-0.1-6.4
			c0-3.7,0.1-7.5,0.4-11.4c2.6,0.2,4.4,0.3,5.3,0.4c0,0.1,0,0.1,0,0.2c0.1,0.1,0.2,0.3,0.3,0.5c0.1,0.2,0.3,0.5,0.5,0.8
			c0.2,0.3,0.4,0.6,0.5,0.8c0.1,0.2,0.2,0.3,0.3,0.4c0.3,0.5,0.5,1,0.8,1.5c0.2,0.4,0.5,0.8,0.7,1.2c1.3,2.3,2.5,4.4,3.6,6.3
			c1,1.9,2,3.7,2.7,5.2c0.2,0.3,0.3,0.6,0.5,0.9c0.1,0.3,0.3,0.6,0.5,0.9c0-1.5,0-2.6,0-3.4c0-1.8-0.1-3.9-0.2-6.1
			c-0.1-2.3-0.2-4.7-0.3-7.4c2.6-0.1,4.3-0.2,5.2-0.3C125.2,161.4,125.3,163.8,125.4,166.1z"/>
		<path class="st1" d="M146.7,161.3c-0.4,1.2-0.9,2.4-1.5,3.8c-0.2,0.5-0.5,1.1-0.8,1.7c-0.3,0.6-0.6,1.3-1,2
			c-0.8,1.7-1.4,3-1.8,3.9c-0.2,0.5-0.4,0.9-0.6,1.3c-0.2,0.4-0.3,0.7-0.5,1c-0.2,0.4-0.3,0.8-0.5,1.1c-0.2,0.3-0.3,0.7-0.5,1
			c0.8,2,1.7,4,2.6,5.8c0.9,1.8,1.9,3.5,2.8,5.1c-2,1.2-3.6,2.1-4.6,2.7c-0.6-1-1.2-2.1-1.9-3.2c-0.6-1.2-1.2-2.4-1.8-3.6
			c-0.4,1.3-0.8,2.5-1,3.5c-0.2,1-0.4,1.9-0.4,2.7c-2.4,0-4.1-0.1-5.3-0.1c0-1.1,0.2-2.4,0.5-3.8c0.3-1.4,0.8-2.9,1.4-4.5
			c0.2-0.7,0.5-1.4,0.8-2.2c0.3-0.8,0.6-1.6,1-2.4c-1.7-4-3-7.9-4.2-11.7c-1.1-3.7-1.9-7.3-2.4-10.8c2.3-0.4,4-0.7,5.2-0.9
			c0.4,2.5,1,5.2,1.8,8c0.7,2.8,1.7,5.7,2.7,8.7c0.5-1,0.9-1.8,1.2-2.4c0.3-0.6,0.5-1.1,0.6-1.4c0.3-0.7,0.7-1.3,1-1.9
			c0.3-0.6,0.5-1.2,0.7-1.7c0.6-1.3,1-2.4,1.4-3.4c0.4-1,0.7-1.9,0.9-2.6c2.5,0.7,4.2,1.2,5.1,1.4
			C147.5,159.2,147.2,160.2,146.7,161.3z"/>
		<path class="st1" d="M155.2,158.9c-0.1,3-0.1,5.7-0.2,8.1c0,2.4-0.1,4.6-0.1,6.4c0,3.4,0,6.4,0.1,9.2c0.1,2.8,0.2,5.4,0.3,7.6
			c-2.3,0.2-4.1,0.3-5.3,0.4c-0.2-2.4-0.3-5-0.4-7.9c0-2-0.1-4.1-0.1-6.3c0-1,0-2,0.1-3.1c0-1.9,0-4,0.1-6.4c0-2.4,0.1-5.2,0.2-8.2
			c0-1.4,0-2.5,0.1-3.4c0-0.9,0.1-1.5,0.1-1.9c2.6,0.1,4.4,0.1,5.3,0.1C155.3,156,155.2,157.8,155.2,158.9z"/>
		<path class="st1" d="M164.9,152.8c1.6,0.2,3,0.3,4.4,0.4c-0.2,2.4-0.4,4.1-0.5,5.3c-0.7-0.1-1.4-0.1-2.1-0.2
			c-0.7-0.1-1.4-0.2-2.2-0.3c-0.3,2.8-0.6,5.6-0.7,8.6c-0.1,3-0.1,6.1,0.1,9.2c0.3,0,0.6,0,0.8,0c0.8,0,1.6,0,2.2-0.1
			c0.6,0,1.2,0,1.6,0c0.1,2.3,0.1,4.1,0.1,5.3c-0.4,0-1,0-1.7,0.1c-0.6,0-1.4,0-2.2,0c-0.3,0-0.5,0-0.6,0c0.1,1.2,0.2,2.3,0.3,3.5
			c0.1,1.2,0.3,2.3,0.5,3.5c0.1,0,0.2,0,0.3,0c0.2,0,0.3,0,0.4,0c0.2,0,0.4,0,0.5,0c0.9,0,1.7,0,2.4,0c0.7,0,1.3,0,1.7-0.1
			c0.1,2.4,0.2,4.1,0.2,5.3c-0.5,0-1.1,0-1.8,0.1c-0.7,0-1.5,0-2.5,0c-0.2,0-0.4,0-0.5,0c-1.3,0-2.3,0-3.2,0c-0.9,0-1.7,0.1-2.3,0.1
			c0-1-0.1-1.8-0.1-2.3c-0.9-6.7-1.4-13-1.5-19c0-0.4,0-0.7,0-1.1c0-5.6,0.4-10.8,1.1-15.8c0.2-1.6,0.3-2.6,0.4-3.1
			C161.6,152.4,163.3,152.6,164.9,152.8z"/>
		<path class="st1" d="M175.8,154.3c1.2-0.1,2.4-0.1,3.8-0.1c0.4,0,0.9,0,1.6-0.1c0.6,0,1.3,0,2.2,0c1.5,0,2.4,0,2.9,0
			c0,2.6,0.1,4.4,0.1,5.3c-1.5,0-2.5,0-2.9,0c-0.4,0-0.8,0-1,0c0.1,1.3,0.1,2.9,0.2,5c0.1,2,0.2,4.4,0.3,7.1c0,0.4,0,0.8,0.1,1.1
			c0,0.3,0.1,0.5,0.1,0.7c0.2,4.1,0.3,7.6,0.5,10.7c0.1,3.1,0.3,5.7,0.5,7.7c-2.3,0.2-4.1,0.3-5.3,0.4c-0.1-2.1-0.3-4.7-0.5-7.8
			c-0.1-3.1-0.3-6.7-0.5-10.8c0-0.2-0.1-0.4-0.1-0.7c0-0.3-0.1-0.7-0.1-1.1c-0.1-2.8-0.2-5.2-0.3-7.2c-0.1-2-0.2-3.7-0.2-5
			c-0.7,0-1.5,0.1-2.1,0.1c-0.7,0-1.4,0.1-2,0.1c-0.2-2.6-0.3-4.4-0.4-5.3C173.6,154.4,174.7,154.3,175.8,154.3z"/>
		<path class="st1" d="M208.7,164c0.2,1.8,0.4,3.4,0.6,4.9c0.1,1.3,0.1,2.6,0.1,4c0,0.5,0,1,0,1.6c-0.1,1.8-0.2,3.7-0.5,5.5
			c-0.2,2.1-0.6,3.9-1.2,5.5c-0.5,1.6-1.2,3-1.9,4.1c-0.9,1.3-1.9,2.1-2.9,2.7c-0.8,0.4-1.7,0.6-2.7,0.6c-0.3,0-0.6,0-0.9-0.1
			c-1.2-0.1-2.2-0.5-3.1-1.1c-1-0.6-1.9-1.5-2.6-2.7c-0.7-1-1.3-2.2-1.8-3.5c-0.5-1.3-0.8-2.6-1-4.2c2.3-0.3,4.1-0.5,5.2-0.6
			c0.1,1.1,0.4,2,0.7,2.9c0.3,0.8,0.7,1.6,1.2,2.3c0.3,0.5,0.7,0.9,1,1.2c0.3,0.3,0.7,0.4,1,0.5c0.1,0,0.2,0,0.3,0
			c0.1,0,0.2-0.1,0.3-0.1c0.2-0.1,0.3-0.2,0.5-0.4c0.2-0.2,0.3-0.4,0.5-0.6c0.5-0.7,1-1.7,1.4-2.9c0.4-1.2,0.7-2.7,0.9-4.3
			c0.2-1.7,0.3-3.3,0.4-5c0-1.7,0-3.3-0.1-5c0-0.2,0-0.4,0-0.5c-0.4,0.8-0.7,1.5-1.1,2.1c-0.3,0.6-0.7,1.2-1,1.8
			c-0.5,0.9-1,1.6-1.5,2.2c-0.5,0.6-1.1,1.2-1.5,1.6c-0.8,0.6-1.5,1-2.3,1.2c-0.7,0.2-1.5,0.2-2.2-0.1c-0.7-0.1-1.4-0.5-1.9-1
			c-0.6-0.5-1.1-1.2-1.5-2c-0.3-0.6-0.6-1.3-0.8-2c-0.2-0.8-0.4-1.6-0.6-2.6c-0.2-1.7-0.3-3.5-0.3-5.6c0-0.3,0-0.6,0-0.9
			c0-2.5,0.2-5.2,0.6-8.2c2.3,0.3,4.1,0.5,5.2,0.6c-0.3,2.8-0.5,5.3-0.6,7.6c0,2.2,0.1,4.2,0.3,5.9c0.1,0.6,0.2,1.2,0.3,1.6
			c0.1,0.5,0.3,0.9,0.4,1.2c0.3-0.2,0.5-0.5,0.8-0.9c0.3-0.4,0.6-0.8,0.9-1.3c0.9-1.5,1.8-3.3,2.6-5.5c0.8-2.2,1.7-4.8,2.6-7.7
			c2.2,0.6,3.9,1.1,5,1.5v-0.1c0,0,0.1,0,0.1,0C208.1,160.3,208.4,162.2,208.7,164z"/>
		<path class="st2" d="M158.9,60.2c-0.1,0-0.3-0.1-0.4-0.1c0,0,0,0,0-0.1c0,0,0,0,0-0.1c0.1-0.1,0.2-0.2,0.3-0.3
			c1.4-1.4,1.5-3.6,0.1-5.1c-1.4-1.4-3.6-1.5-5.1-0.1c-0.1,0.1-0.2,0.2-0.3,0.3c0,0,0,0-0.1,0c0,0,0,0-0.1,0c0-0.1,0-0.3-0.1-0.4
			c-0.5-1.9-2.4-3.1-4.3-2.7c-1.9,0.5-3.1,2.4-2.7,4.3c0,0.1,0.1,0.3,0.1,0.4c0,0,0,0-0.1,0.1c0,0,0,0-0.1,0.1
			c-0.1,0-0.2-0.1-0.4-0.1c-1.9-0.6-3.9,0.5-4.5,2.4c-0.6,1.9,0.5,3.9,2.4,4.5c0.1,0,0.3,0.1,0.4,0.1c0,0,0,0,0,0.1c0,0,0,0.1,0,0.1
			c-0.1,0.1-0.2,0.2-0.3,0.3c-1.4,1.4-1.5,3.6-0.1,5.1c1.4,1.4,3.6,1.5,5.1,0.1c0.1-0.1,0.2-0.2,0.3-0.3c0,0,0.1,0,0.1,0
			c0,0,0,0,0.1,0c0,0.1,0,0.3,0.1,0.4c0.5,1.9,2.4,3.1,4.3,2.7c1.9-0.5,3.1-2.4,2.7-4.3c0-0.1-0.1-0.3-0.1-0.4c0,0,0,0,0.1-0.1
			c0,0,0,0,0.1-0.1c0.1,0,0.2,0.1,0.4,0.1c1.9,0.6,3.9-0.5,4.5-2.4C161.9,62.7,160.8,60.7,158.9,60.2z M153.5,63.9
			c-1.2,1.1-3.1,1.1-4.3-0.1c-1.1-1.2-1.1-3.1,0.1-4.3c1.2-1.1,3.1-1.1,4.3,0.1C154.8,60.8,154.7,62.7,153.5,63.9z"/>
	</g>
	<path class="st3" d="M87,163.6c-0.1-0.1-0.2-0.2-0.3-0.3c0,0,0,0,0-0.1c0,0,0,0,0-0.1c0.1,0,0.3-0.1,0.4-0.1c1.9-0.5,3-2.5,2.5-4.4
		c-0.5-1.9-2.5-3-4.4-2.5c-0.1,0-0.2,0.1-0.4,0.1c0,0,0,0-0.1-0.1c0,0,0,0-0.1-0.1c0-0.1,0.1-0.2,0.1-0.4c0.5-1.9-0.7-3.9-2.6-4.3
		c-1.9-0.5-3.9,0.7-4.3,2.6c0,0.1-0.1,0.3-0.1,0.4c0,0,0,0-0.1,0c0,0,0,0-0.1,0c-0.1-0.1-0.2-0.2-0.3-0.3c-1.4-1.4-3.7-1.3-5.1,0.1
		c-1.4,1.4-1.3,3.7,0.1,5.1c0.1,0.1,0.2,0.2,0.3,0.3c0,0,0,0,0,0.1c0,0,0,0.1,0,0.1c-0.1,0-0.3,0.1-0.4,0.1c-1.9,0.5-3,2.5-2.5,4.4
		c0.5,1.9,2.5,3,4.4,2.5c0.1,0,0.2-0.1,0.4-0.1c0,0,0,0,0.1,0.1c0,0,0,0,0.1,0.1c0,0.1-0.1,0.2-0.1,0.4c-0.5,1.9,0.7,3.9,2.6,4.3
		c1.9,0.5,3.9-0.7,4.3-2.6c0-0.1,0.1-0.3,0.1-0.4c0,0,0,0,0.1,0c0,0,0,0,0.1,0c0.1,0.1,0.2,0.2,0.3,0.3c1.4,1.4,3.7,1.3,5.1-0.1
		C88.5,167.3,88.5,165,87,163.6z M80.6,164.4c-1.6,0.5-3.3-0.5-3.7-2.1c-0.5-1.6,0.5-3.3,2.1-3.7c1.6-0.5,3.3,0.5,3.7,2.1
		C83.1,162.3,82.2,164,80.6,164.4z"/>
	<path class="st4" d="M181.6,190.7c-0.1,0-0.2,0.1-0.4,0.1c0,0,0,0-0.1-0.1c0,0,0,0-0.1-0.1c0-0.1,0.1-0.2,0.1-0.4
		c0.5-1.9-0.7-3.9-2.6-4.3c-1.9-0.5-3.9,0.7-4.3,2.6c0,0.1-0.1,0.3-0.1,0.4c0,0,0,0-0.1,0c0,0,0,0-0.1,0c-0.1-0.1-0.2-0.2-0.3-0.3
		c-1.4-1.4-3.7-1.3-5.1,0.1c-1.4,1.4-1.3,3.7,0.1,5.1c0.1,0.1,0.2,0.2,0.3,0.3c0,0,0,0,0,0.1c0,0,0,0,0,0.1c-0.1,0-0.3,0.1-0.4,0.1
		c-1.9,0.6-3,2.6-2.4,4.4c0.6,1.9,2.6,3,4.4,2.4c0.1,0,0.2-0.1,0.4-0.1c0,0,0,0,0.1,0.1c0,0,0,0,0.1,0.1c0,0.1-0.1,0.2-0.1,0.4
		c-0.5,1.9,0.7,3.9,2.6,4.3c1.9,0.5,3.9-0.7,4.3-2.6c0-0.1,0.1-0.3,0.1-0.4c0,0,0.1,0,0.1,0c0,0,0,0,0.1,0c0.1,0.1,0.2,0.2,0.3,0.3
		c1.4,1.4,3.7,1.3,5.1-0.1c1.4-1.4,1.3-3.7-0.1-5.1c-0.1-0.1-0.2-0.2-0.3-0.3c0,0,0,0,0-0.1c0,0,0,0,0-0.1c0.1,0,0.3-0.1,0.4-0.1
		c1.9-0.6,3-2.6,2.4-4.4S183.5,190.1,181.6,190.7z M179.1,196.7c-0.4,1.6-2,2.6-3.6,2.2c-1.6-0.4-2.6-2-2.2-3.6
		c0.4-1.6,2-2.6,3.6-2.2C178.5,193.5,179.5,195.1,179.1,196.7z"/>
	<path class="st5" d="M45.8,92.6c-0.1,0-0.3-0.1-0.4-0.1c0,0,0,0,0-0.1c0,0,0,0,0-0.1c0.1-0.1,0.2-0.2,0.3-0.3
		c1.4-1.4,1.5-3.6,0.1-5.1c-1.4-1.4-3.6-1.5-5.1-0.1c-0.1,0.1-0.2,0.2-0.3,0.3c0,0,0,0-0.1,0c0,0,0,0-0.1,0c0-0.1,0-0.3-0.1-0.4
		c-0.5-1.9-2.4-3.1-4.3-2.7c-1.9,0.5-3.1,2.4-2.7,4.3c0,0.1,0.1,0.3,0.1,0.4c0,0,0,0-0.1,0.1c0,0,0,0-0.1,0.1
		c-0.1,0-0.2-0.1-0.4-0.1c-1.9-0.6-3.9,0.5-4.5,2.4c-0.6,1.9,0.5,3.9,2.4,4.5c0.1,0,0.3,0.1,0.4,0.1c0,0,0,0,0,0.1c0,0,0,0.1,0,0.1
		c-0.1,0.1-0.2,0.2-0.3,0.3c-1.4,1.4-1.5,3.6-0.1,5.1c1.4,1.4,3.6,1.5,5.1,0.1c0.1-0.1,0.2-0.2,0.3-0.3c0,0,0.1,0,0.1,0
		c0,0,0,0,0.1,0c0,0.1,0,0.3,0.1,0.4c0.5,1.9,2.4,3.1,4.3,2.7c1.9-0.5,3.1-2.4,2.7-4.3c0-0.1-0.1-0.3-0.1-0.4c0,0,0,0,0.1-0.1
		c0,0,0,0,0.1-0.1c0.1,0,0.2,0.1,0.4,0.1c1.9,0.6,3.9-0.5,4.5-2.4C48.8,95.2,47.7,93.2,45.8,92.6z M40.4,96.3
		c-1.2,1.1-3.1,1.1-4.3-0.1c-1.1-1.2-1.1-3.1,0.1-4.3c1.2-1.1,3.1-1.1,4.3,0.1C41.7,93.3,41.6,95.2,40.4,96.3z"/>
	<g>
		<path class="st6" d="M156.2,108.6c-2.6-6.3-1-4.9-7.5-7c6.3-2.6,4.9-1,7-7.5c2.6,6.3,1,4.9,7.5,7
			C156.8,103.7,158.3,102.1,156.2,108.6z"/>
		<path class="st6" d="M82.7,63.1c-2.6-6.3-1-4.9-7.5-7c6.3-2.6,4.9-1,7-7.5c2.6,6.3,1,4.9,7.5,7C83.3,58.2,84.8,56.6,82.7,63.1z"/>
		<path class="st6" d="M37.5,159.9c-2.6-6.3-1-4.9-7.5-7c6.3-2.6,4.9-1,7-7.5c2.6,6.3,1,4.9,7.5,7C38.1,155,39.6,153.4,37.5,159.9z"
			/>
		<path class="st6" d="M124.9,204.6c-2.6-6.3-1-4.9-7.5-7c6.3-2.6,4.9-1,7-7.5c2.6,6.3,1,4.9,7.5,7
			C125.5,199.7,127,198.1,124.9,204.6z"/>
		<path class="st6" d="M219.1,164.1c-2.6-6.3-1-4.9-7.5-7c6.3-2.6,4.9-1,7-7.5c2.6,6.3,1,4.9,7.5,7
			C219.8,159.2,221.3,157.6,219.1,164.1z"/>
	</g>
	<path class="st7" d="M222.4,111.6c-0.1,0-0.2,0.1-0.4,0.1c0,0,0,0-0.1-0.1c0,0,0,0-0.1-0.1c0-0.1,0.1-0.2,0.1-0.4
		c0.5-1.9-0.7-3.9-2.6-4.3c-1.9-0.5-3.9,0.7-4.3,2.6c0,0.1-0.1,0.3-0.1,0.4c0,0,0,0-0.1,0c0,0,0,0-0.1,0c-0.1-0.1-0.2-0.2-0.3-0.3
		c-1.4-1.4-3.7-1.3-5.1,0.1c-1.4,1.4-1.3,3.7,0.1,5.1c0.1,0.1,0.2,0.2,0.3,0.3c0,0,0,0,0,0.1c0,0,0,0,0,0.1c-0.1,0-0.3,0.1-0.4,0.1
		c-1.9,0.6-3,2.6-2.4,4.4c0.6,1.9,2.6,3,4.4,2.4c0.1,0,0.2-0.1,0.4-0.1c0,0,0,0,0.1,0.1c0,0,0,0,0.1,0.1c0,0.1-0.1,0.2-0.1,0.4
		c-0.5,1.9,0.7,3.9,2.6,4.3c1.9,0.5,3.9-0.7,4.3-2.6c0-0.1,0.1-0.3,0.1-0.4c0,0,0.1,0,0.1,0c0,0,0,0,0.1,0c0.1,0.1,0.2,0.2,0.3,0.3
		c1.4,1.4,3.7,1.3,5.1-0.1c1.4-1.4,1.3-3.7-0.1-5.1c-0.1-0.1-0.2-0.2-0.3-0.3c0,0,0,0,0-0.1c0,0,0,0,0-0.1c0.1,0,0.3-0.1,0.4-0.1
		c1.9-0.6,3-2.6,2.4-4.4S224.3,111,222.4,111.6z M219.9,117.6c-0.4,1.6-2,2.6-3.6,2.2c-1.6-0.4-2.6-2-2.2-3.6c0.4-1.6,2-2.6,3.6-2.2
		C219.3,114.4,220.3,116,219.9,117.6z"/>
</g>
</svg>
