<?xml version="1.0" encoding="utf-8"?>
<!-- Generator: Adobe Illustrator 28.0.0, SVG Export Plug-In . SVG Version: 6.00 Build 0)  -->
<svg version="1.1" id="Layer_1" xmlns="http://www.w3.org/2000/svg" xmlns:xlink="http://www.w3.org/1999/xlink" x="0px" y="0px"
	 viewBox="0 0 300 300" style="enable-background:new 0 0 300 300;" xml:space="preserve">
<style type="text/css">
	.st0{fill:#F5C2CB;}
	.st1{fill:#EFDCC9;}
	.st2{fill:#F494AF;}
	.st3{fill:#D99C7A;}
	.st4{fill:#F1BF86;}
</style>
<g>
	<g>
		<path d="M58.07,93.18c3.01,2.09,6.12,4.25,9.34,6.09c0.06,0.04,0.12,0.09,0.19,0.14c0.51,0.37,3.74,2.16,4.49,2.16
			c0.08,0,0.16,0,0.25-0.02c0.85-0.11,2.02-1.17,2.13-3.41l0.5-9.76c0.13-2.57,0.26-5.23,0.18-7.87c-0.09-2.64-0.35-5.41-1.73-7.85
			c-0.54-0.96-4-4.74-5.32-5.36c-2.1-1-4.58-0.91-6.8,0.22c-1.83,0.94-3.32,2.5-4.16,4.29c-2.65-0.7-5.51-0.17-7.67,1.51
			c-0.96,0.74-1.72,1.63-2.26,2.65h0c-3.82,7.22,4.6,12.94,7.77,15.09C56.02,91.75,57.04,92.47,58.07,93.18z"/>
		<path d="M228.6,100.69c0.44,0.16,2.08,0.5,2.53,0.56c0.08,0.01,0.17,0.02,0.25,0.02c1.7-0.02,8.47-4.98,11.47-7.06
			c1.03-0.72,2.06-1.43,3.1-2.14c3.02-2.05,11.05-7.51,7.54-14.15c-0.46-0.87-1.81-3.2-3.88-4.45c-2.23-1.34-5-1.9-7.54-1.36
			c-0.36-0.68-1.56-3.25-4.29-4.44c-2.29-1-4.7-1.22-6.8-0.22c-1.5,0.71-2.77,1.94-3.68,3.55c-1.45,2.57-1.73,5.45-1.82,8.18
			c-0.09,2.68,0.05,5.36,0.18,7.95l0.49,9.75C226.29,99.77,227.73,100.37,228.6,100.69z"/>
		<path d="M85.89,154.72c-0.24,0.03-0.48,0.07-0.73,0.12c-0.13,0.03-0.25,0.06-0.37,0.09c-0.07-0.19-0.12-0.38-0.21-0.56
			c-0.41-0.85-0.99-1.51-1.61-2.05c-0.83-1.21-1.96-2.02-2.92-2.59c-2.17-1.29-4.66-2.06-7.61-2.36c-3.19-0.32-6.39-0.28-9.49,0.14
			c-5.23,0.7-10.39,2.45-15.33,5.22c-3.28,1.84-5.72,3.97-7.47,6.5c-0.93,1.35-2.12,3.44-1.81,6.06c0.18,1.51,0.46,2.83,0.85,4.04
			c0.65,1.98,1.35,3.97,2.03,5.9l0.13,0.38c0.32,0.9,0.64,1.8,0.95,2.71c0.65,1.89,1.52,3.46,2.64,4.79
			c3.67,4.39,8.18,7.16,13.38,8.3c0.86,0.26,1.74,0.48,2.64,0.64c2.55,0.44,4.83,0.52,6.97,0.24c0,0,0,0,0,0
			c0.83-0.11,1.65-0.28,2.43-0.5c2.03-0.57,4.64-1.47,6.88-3.37l0.6-0.5c1.23-1.03,2.5-2.1,3.53-3.51c1.05-1.43,1.96-3.02,2.94-5.14
			c0.05-0.01,0.1-0.02,0.14-0.02c0.22-0.03,0.49-0.04,0.72-0.04c0.32-0.01,0.65-0.03,0.96-0.08c2.13-0.28,4.08-1.31,6.12-3.22
			c2.73-2.56,4.32-5.84,4.73-9.73c0.21-2.01,0.22-4.96-2.13-7.37c-0.1-0.1-0.21-0.19-0.31-0.29c-0.25-0.36-0.54-0.71-0.87-1.06v0
			C91.53,155.25,88.9,154.31,85.89,154.72z M88.74,167.83c-0.38,1.19-1.13,2.06-2.19,2.62c0.05-0.85,0.08-1.72,0.07-2.58
			c-0.03-1.53-0.21-3.06-0.38-4.53c-0.03-0.24-0.06-0.47-0.08-0.72c0.09-0.02,0.17-0.05,0.26-0.07c0.47-0.13,0.91-0.25,1.32-0.31
			c0.01,0,0.01,0,0.02,0c0.49,0.33,0.89,0.8,1.02,1.29C89.17,165.07,89.16,166.52,88.74,167.83z"/>
		<path d="M201.31,169.81c3.9,0.42,6.37-2.85,6.72-6.14c0.29-2.71-0.97-5.24-3.51-7.17c-0.66-0.5-2-1.6-2.61-2.07
			c-2.06-1.55-4.73-2.61-7.38-2.89c-7.5-0.82-14.48,4.5-15.23,11.56c-0.64,6.05,2.85,9.71,5.79,12.21c-0.54-0.23-1.14-0.4-1.83-0.47
			c-1.64-0.19-3.21,0.31-4.51,1.3c-1.24-2.44-3.11-4.16-4.96-5.43c-1.49-1.46-3.15-2.54-4.62-3.36c0.26,0.03,0.52,0.05,0.8,0.05
			c0.94,0.44,2.15,0.89,3.65,0.68c3.88-0.55,5.49-4.32,5.03-7.59c-0.21-1.51-0.91-2.83-1.95-3.96c-0.67-0.73-2.33-2.21-2.79-2.56
			c-0.74-0.54-2.1-1.32-3.04-1.71c-2.38-1-5.37-1.38-8-1c-3.45,0.49-6.72,2.3-8.98,4.96c-1.49,1.76-2.46,3.78-2.87,5.9
			c0.04-0.82-0.04-1.67-0.12-2.46c-0.17-1.66-0.77-2.92-1.52-4.04c-0.74-1.11-2.92-2.65-3.33-2.94c-2.77-1.93-7.52-1.42-10.44-1.1
			l-0.63,0.07c-4.46,0.46-11.92,1.22-12.41,8.57c-0.3,4.11-0.18,8.64,0.35,13.86c0.28,2.77,0.67,5.37,1.16,7.89
			c-0.33-0.29-1.29-1.55-2.16-2.09c-0.4-0.25-1.13-0.57-1.6-0.75c-1.53-0.67-3.09-1.06-4.6-1.43c-0.27-0.06-0.52-0.13-0.77-0.2
			c0-0.01,0-0.01,0-0.02c0.59-2.47,1.5-4.94,2.39-7.32c0.92-2.47,1.86-5.02,2.49-7.66c0.76-3.21,0.27-5.8-1.32-7.57
			c-0.54-0.6-3.26-2.89-4.13-3.4c-0.77-0.46-1.67-0.81-2.69-1.06c-2.75-0.65-5.07-0.17-6.51,1.32c-2.38,2.38-7.31,22.96-7.87,25.3
			l-0.12,0.48c-0.22,0.9-0.45,1.84-0.48,2.94c-0.07,7.92,9.98,10.31,14.27,11.32c0.32,0.08,0.67,0.16,1.03,0.24
			c0.76,0.2,1.47,0.37,2.05,0.51c1.36,0.32,3.07,0.73,4.76,0.73c2.78,0,5.51-1.1,6.54-5.47c0.05-0.21,0.07-0.4,0.11-0.6
			c0.8,1.9,2.27,3.64,4.62,4.72c1.04,0.48,3.35,1.11,5.44,1.11c0.69,0,1.37-0.07,2-0.13c2.81-0.29,5.63-0.74,8.34-1.33
			c4.22-0.84,6.39-2.4,7.41-4.11c1,1.51,2.6,2.63,4.6,3.56c3.29,1.53,7.16,1.87,8.95,1.87c0.67,0,1.33-0.04,1.97-0.13
			c3.25-0.46,6.18-1.81,8.24-3.8c0.5-0.48,0.93-1,1.31-1.54c0.48,0.52,1.03,1.01,1.65,1.47c1.25,0.91,2.73,1.65,4.28,2.17
			c0.99,0.33,2.92,1.05,5.89,1.44c0.61,0.08,1.66,0.16,2.26,0.16c2.61,0,5.09-0.61,7.11-1.77c2.94-1.69,4.68-4.36,5.04-7.73
			c0.74-7-3.86-11.13-6.61-13.6c-0.27-0.24-0.57-0.51-0.85-0.78c0.38,0.12,0.88,0.33,1.3,0.47
			C198.9,169.45,200.48,169.72,201.31,169.81z M152.91,179.96c-0.52-0.79-1.94-2.25-2.38-2.57c-0.49-0.35-1.45-0.8-2.03-1.05
			c0.84-0.84,1.37-2.02,1.19-3.71c-0.11-1.07-0.4-3.27-1.72-4.5c-0.4-0.37-1.17-1.02-2.32-1.7l0.79-0.08
			c2.9-0.3,4.03-1.54,4.41-3.06c-0.09,0.95-0.08,1.92,0.06,2.89c0.85,6.03,5.13,8.73,8.58,10.44c-0.57-0.09-1.2-0.11-1.89-0.01
			C155.55,176.91,153.88,178.2,152.91,179.96z"/>
		<polygon points="79.3,272.23 94.77,272.23 94.77,256.86 79.36,256.86 79.36,241.45 63.89,241.45 63.89,256.92 79.3,256.92 		"/>
		<polygon points="110.23,272.23 125.7,272.23 125.7,256.86 110.3,256.86 110.3,241.45 94.83,241.45 94.83,256.92 110.23,256.92 		
			"/>
		<polygon points="48.36,272.23 63.83,272.23 63.83,256.86 48.42,256.86 48.42,241.45 32.96,241.45 32.96,256.92 48.36,256.92 		"/>
		<polygon points="141.17,272.23 156.64,272.23 156.64,256.92 171.58,256.92 171.58,272.23 187.05,272.23 187.05,256.81 
			171.86,256.81 171.86,241.45 156.39,241.45 156.39,256.86 141.23,256.86 141.23,241.45 125.77,241.45 125.77,256.92 
			141.17,256.92 		"/>
		<path d="M233.45,270.74C233.45,270.74,233.45,270.74,233.45,270.74l0,1.49h15.45v-2.05c0-0.02,0.01-0.04,0.01-0.07v-13.24h15.22
			v-15.47h-15.47v15.4h-15.15v-15.4h-15.47v15.47h15.4V270.74z"/>
		<path d="M202.51,272.2c0,0.01,0,0.02,0,0.03h15.46v-15.42h-15.4v-15.4h-15.47v15.47h15.4V272.2z"/>
		<polygon points="187.02,27.77 171.55,27.77 171.55,43.14 186.95,43.14 186.95,58.55 202.42,58.55 202.42,43.08 187.02,43.08 		"/>
		<polygon points="156.08,27.77 140.61,27.77 140.61,43.14 156.02,43.14 156.02,58.55 171.48,58.55 171.48,43.08 156.08,43.08 		"/>
		<polygon points="248.89,27.77 233.42,27.77 233.42,43.14 248.83,43.14 248.83,58.55 264.29,58.55 264.29,43.08 248.89,43.08 		"/>
		<polygon points="217.95,27.77 202.48,27.77 202.48,43.14 217.89,43.14 217.89,58.55 233.36,58.55 233.36,43.08 217.95,43.08 		"/>
		<polygon points="125.14,27.77 109.67,27.77 109.67,43.08 94.74,43.08 94.74,27.77 79.27,27.77 79.27,43.19 94.46,43.19 
			94.46,58.55 109.92,58.55 109.92,43.14 125.08,43.14 125.08,58.55 140.55,58.55 140.55,43.08 125.14,43.08 		"/>
		<polygon points="32.8,43.19 32.8,58.59 48.27,58.59 48.27,43.12 32.86,43.12 		"/>
		<path d="M63.8,27.8c0-0.01,0-0.02,0-0.03H48.33v15.42h15.4v15.4H79.2V43.12H63.8V27.8z"/>
		<path d="M212.13,73.65c0.46-1.22,0.26-2.62-0.04-4.33c-0.29-1.64-0.89-2.93-1.82-3.92c-0.48-0.53-1.81-2.13-3.49-2.86
			c-3.12-1.34-7.53-0.9-10.44-0.36l-0.63,0.12c-4.03,0.72-10.53,1.91-11.57,7.73c-0.39-0.53-0.81-1.05-1.3-1.53
			c-0.63-0.62-4.85-5.66-11.85-6.16c-6.98-0.5-11.81,2.47-14.02,9.06c-0.28,0.85-0.53,1.73-0.78,2.61
			c-1.2-2.92-4.89-10.27-13.51-11.18c-5.07-0.54-10.01,0.98-14.02,5.04c-2.52,2.55-4.53,5.93-5.71,9.47
			c-1.29-4.77-2.89-9.6-4.44-11.7c-0.55-0.76-3.7-5.51-9.82-4.38c-2.74,0.51-4.98,2-5.96,4.22c-0.34,0.78-0.5,1.85-0.6,3.33
			c-0.72-1.06-3.43-5.95-9.64-5.13c-11.22,1.49-7.49,26.85-7.32,27.92c1.29,8.48,4.23,13.55,12.23,13.5c0.4,0,0.81-0.03,1.23-0.1
			c2.01-0.31,3.5-1.39,4.31-3.14c0.79-1.7,0.72-3.61,0.52-4.9c-0.07-0.44-0.17-0.87-0.27-1.3c0.55,0.15,0.69,1.6,4.67,1.07
			c0.85-0.11,1.81-0.62,2.34-0.98c0.42,0.81,0.96,1.59,1.64,2.28c1.47,1.5,3.89,4.11,8.95,3.01c1.63-0.35,3.69-1.25,4.58-4.39
			c4.54,5.85,11.32,6.34,12.17,6.48c0.8,0.13,1.58,0.19,2.35,0.19c5.83,0,10.76-3.56,13.96-8.46c0.17,2.82,0.65,3.62,0.87,3.97
			c0.71,1.2,1.82,1.94,2.96,2.41s5.63,1.46,6.81,1.57c1.67,0.16,3.02,0.16,4.2-0.34c1.34-0.57,2.14-1.71,2.46-3.33
			c1.73,2.65,4.96,3.74,8.01,3.79c2.9,0.04,6.83-0.73,7.16-4.26c0.21-2.26-1.28-4.16-2.27-5.41c-1.33-1.7-2.48-4.41-3.39-6.73
			c1.76-0.84,3.19-2.45,4.17-4.28c0.16,1.08,0.33,2.17,0.53,3.31c0.6,3.37,1.34,6.49,2.23,9.5c0.47,1.66,1.68,6.16,5.11,7.74
			c0.36,0.17,2.52,1.08,5.86,1c0.93-0.02,1.83-0.16,2.66-0.31c2.79-0.5,5.56-1.16,8.21-1.95c7.15-1.98,8.07-5.68,7.57-8.43
			c-0.31-1.73-1.54-6.7-5.9-7.23c0.66-0.88,1-2.02,0.73-3.56c-0.24-1.32-0.61-2.81-1.58-3.81c-0.46-0.47-1.33-1.38-2.39-1.96
			c-0.08-0.04-0.14-0.11-0.2-0.16l0.47-0.08C209.52,76.07,211.43,75.52,212.13,73.65z"/>
		<path d="M212.09,144.44c1.05,0,3.1,0.01,4.07-0.2c3.92-0.88,7.51-3.27,9.08-6.7c1.61,2.27,3.75,4.07,6.39,5.06
			c0.96,0.36,3.07,1.26,5.62,1.53c0.36,0.04,1.7,0.06,2.05,0.06c9.24,0,15.61-9.19,16.28-18.12c0.38-5.09-1.12-10.42-4.28-14.05
			c-0.84-0.96-3.22-3.31-5.25-4.48c-1.86-1.07-3.88-1.94-6.27-2.11c-4.83-0.36-9.39,1.73-12.84,5.89c-2.9,3.49-4.83,8.3-5.18,12.86
			c-0.01,0.19-0.01,0.39-0.02,0.59c-0.48-0.41-0.97-0.77-1.47-1.1c-1.31-1.34-2.79-2.32-4.2-3.07c0.79,0.22,1.72,0.35,2.76,0.12
			c3.65-0.82,4.89-4.53,4.21-7.6c-0.49-2.17-3.13-4.9-5-6c-3.18-1.89-7.4-2.61-10.67-1.88c-3.44,0.77-6.31,2.83-8.17,5.51
			c-0.48-0.51-3.39-2.94-4.19-3.48c-2.03-1.37-4.75-2.26-7.27-2.4c-3.3-0.17-6.68,0.91-9.27,2.98c-2.79,2.22-4.42,5.33-4.6,8.74
			c-0.29,5.43,2.76,8.66,5.54,10.87c-0.35-0.08-0.72-0.14-1.11-0.16c-2.24-0.13-4.26,1.02-5.48,2.83c-0.28-0.42-0.63-0.8-1.06-1.12
			c-0.23-0.17-0.46-0.31-0.71-0.43c0.69-0.8,1.1-1.88,0.92-3.38c-0.15-1.27-0.49-2.64-1.3-3.71c-0.88-1.17-2.14-1.68-2.36-1.93
			c-0.02-0.02-0.04-0.04-0.06-0.06l0.49-0.06c4.86-0.58,4.47-3.84,4.16-6.45c-0.19-1.58-0.76-2.78-1.51-3.82
			c-0.95-1.31-2.49-2.37-3.16-2.79c-2.77-1.74-7.28-1.35-10.09-0.99l-0.59,0.07c-3.65,0.44-9.4,1.14-11.14,5.83
			c-0.04-0.04-0.07-0.08-0.1-0.11c-0.62-0.61-2.28-1.87-2.4-1.98c-2.52-2.1-5.46-3.64-8.96-3.98c-6.61-0.64-11.22,2.32-13.33,8.57
			c-0.78-1.46-1.84-2.75-3.17-3.78c-0.34-0.27-1.96-1.64-2.46-2.03c-2.69-2.1-6.1-3.04-9.63-2.66c-4.02,0.44-7.06,2.42-8.96,5.79
			c-0.63-0.74-1.33-1.44-2.22-2.12c-2.68-2.4-6.7-3.91-10.05-3.91c-7.17,0-13.22,5.7-13.22,12.45c0,5.43,3.23,8.5,6.11,10.56
			c-0.35-0.07-0.72-0.1-1.12-0.1c-2.02,0-3.8,1.02-4.95,2.59c-0.06-0.02-0.13-0.03-0.19-0.04c-0.53-0.91-1.22-1.55-2.11-1.94
			c0.6-0.82,0.92-1.88,0.7-3.31c-0.7-4.7-3.56-5.28-3.82-5.56l0.35-0.06c4.83-0.78,4.31-4.02,3.89-6.62
			c-0.25-1.57-0.94-2.69-1.67-3.76c-0.53-0.77-1.66-2.16-3.21-3.01c-2.86-1.58-7.33-0.81-10.12-0.34l-0.59,0.1
			c-4.2,0.68-11.24,1.82-11.29,8.86c-0.05,3.87,0.3,8.13,1.09,13.01c0.52,3.19,1.16,6.13,1.96,8.98c0.42,1.57,1.46,5.48,4.65,7.07
			c0.34,0.17,3.23,1.39,5.98,1.42c0.84,0.01,1.65-0.13,2.39-0.25c2.64-0.43,5.27-1.01,7.76-1.71c2.81-0.73,4.6-1.75,5.73-2.89
			c2,1.71,4.53,2.55,7.05,3.25c1.8,0.4,3.57,0.69,5.06,0.69c4.99,0,10.03-2.39,11.66-7c0.97,3.17,2.44,6.31,4.48,6.87
			c0,0,1.76,0.44,4.09,0.56c0.18,0.01,0.36-0.01,0.54-0.03c0.29-0.03,0.6-0.06,0.91-0.08c1.85-0.15,4.16-0.35,5.46-1.92
			c0.71-0.86,1-1.97,0.85-3.31c-0.16-1.48-0.48-2.91-0.79-4.29c-0.3-1.32-0.58-2.58-0.73-3.87c0.36-0.18,1.29-0.34,1.86-0.44
			c0.81-0.14,1.64-0.27,2.41-0.57c0.92-0.37,1.74-0.88,2.49-1.45c-0.65,8.64,0.33,10.27,0.66,10.8c0.5,0.84,1.2,1.45,1.96,1.89
			c1.38,0.81,6.37,1.86,7.5,1.97c1.65,0.16,5.33,0.51,6.29-3.1c0.99,1.37,2.31,1.93,3.86,2.48c0.59,0.21,2.3,0.66,2.98,0.73
			c0.4,0.04,0.8,0.06,1.19,0.06c2.94,0,5.69-1.1,6.21-3.68c0.82,1.54,2.22,3.09,4.19,3.86c1.6,0.62,3.21,0.8,5.09,0.83
			c0.71,0.01,1.4-0.08,2.05-0.16c2.65-0.32,5.29-0.79,7.82-1.38c3.16-0.68,5.08-1.78,6.22-3.02c1.47,1.19,3.29,2.05,5.09,2.57
			c0.75,0.21,2.83,0.91,5.06,1.17c0.28,0.03,1.74,0.16,2.02,0.16c5.79,0,11.55-3.2,11.9-9.62c0.36-6.65-4.19-10.33-6.9-12.52
			c-0.25-0.2-0.54-0.44-0.81-0.66c1.2,0.57,2.95,0.81,3.91,0.86c0.94,0.05,1.78-0.12,2.52-0.45c1.5,4.3,4.89,6.31,7.84,7.56
			c-0.36,0.01-0.73,0.06-1.11,0.14c-1.73,0.39-3.17,1.47-4.03,3.05c-0.8,1.45-1.03,3.15-0.66,4.81c0.63,2.8,2.85,4.65,6.02,5.92
			C207.24,143.8,210.61,144.44,212.09,144.44z M146.45,126.89c0.34,2.87,0.81,5.55,1.38,8.15c-0.15-0.2-0.29-0.39-0.43-0.56
			c-1.23-1.58-2.29-4.08-3.14-6.24c0.79-0.39,1.51-0.96,2.16-1.62C146.43,126.71,146.44,126.8,146.45,126.89z M90.96,122.59
			c-0.51-0.48-1.03-0.93-1.54-1.33c0.31,0.05,2.81,0.81,3.9,0.81c0.64,0,1.21-0.13,1.75-0.32c-0.02,1.76,0.08,3.45,0.22,4.94
			C93.96,124.92,92.33,123.6,90.96,122.59z"/>
		<path d="M260.36,197.32c-1.79-1.03-3.79-1.8-6.09-2.01c-6.38-0.56-11.83,3.09-15.3,8.34c-0.3-1.58-1.1-2.8-2.09-3.83
			c-0.71-0.73-2.18-2.06-3.81-3.12c-2.94-1.91-7.02-2.29-10.13-1.74c-3.43,0.61-6.63,2.54-8.79,5.29c-0.06,0.08-0.11,0.16-0.17,0.24
			c-0.18-0.15-0.35-0.31-0.55-0.45c-0.21-0.15-1.7-1.44-2.48-2.04c-2.04-1.58-4.89-2.6-7.54-2.86c-3.47-0.34-7.07,0.65-9.89,2.71
			c-1.07,0.78-1.98,1.69-2.74,2.68c-0.48-0.45-2.32-1.93-2.71-2.26c-2.41-2.02-6.55-2.49-9.23-2.8l-0.63-0.07
			c-4.45-0.54-11.9-1.46-14.01,5.6c-0.75,2.47-1.37,5.16-1.9,8.09c0-0.15,0.01-0.31,0-0.46c-0.17-2.98-1.4-5.59-3.41-7.61
			c-0.66-0.66-2.42-2.23-3.86-3.19c-2.78-1.87-6.27-2.91-9.97-2.69c-5.36,0.31-9.13,2.65-11.13,6.8c-0.82-1-3.99-3.6-4.54-4.03
			c-0.28-0.22-0.58-0.43-0.88-0.62c-3.02-1.94-6.7-2.6-10.35-1.85c-4.1,0.84-7.06,3.15-8.74,6.76c-0.44-0.98-1.13-1.77-1.89-2.49
			c-0.93-0.87-2.63-2.27-3.36-2.76c-2.86-1.93-6.83-2.48-9.91-2.06c-3.45,0.46-6.73,2.25-9.01,4.9c-0.06,0.07-0.1,0.14-0.16,0.2
			c-0.24-0.15-1.18-0.98-1.43-1.22c-2.32-2.22-6.59-2.83-9.34-3.21l-0.63-0.09c-4.44-0.65-11.86-1.75-14.14,5.25
			c-0.46,1.37-0.86,2.83-1.25,4.33c-1.11-1.32-2.38-3.01-3.95-4.45c-3.62-3.63-9.23-5.53-14.79-4.77
			c-2.72,0.37-9.94,1.37-10.18,8.35c-0.09,4.26,0.18,8.7,0.8,13.18c0.02,0.13,2.03,13.6,4.52,16.88c0.66,0.87,1.75,1.82,2.5,2.14
			c0.75,0.32,2.8,0.8,4.81,0.73c0.66-0.02,1.31-0.09,1.91-0.17l0.15-0.02c4.76-0.65,9.03-3.12,12.21-7.01
			c0.51,1.31,1.35,2.54,2.72,3.43c1.4,0.9,6.42,1.95,7.42,2.1c2.81,0.42,5.65,0.67,8.4,0.77c0.42,0.02,0.82,0.03,1.21,0.03
			c5.9,0,7.93-2.53,8.52-4.96c1.32,1.9,3.57,3.19,5.8,4.1c1.04,0.42,4.52,1.12,6.25,1.12c0.66,0,2.71,0.01,3.31-0.07
			c3.26-0.44,6.19-1.77,8.27-3.75c1.39-1.32,2.31-2.86,2.79-4.56c1.38,4.01,3.86,9.02,6.03,9.22c2.16,0.2,2.6,0.04,4.66-0.07
			c0.31-0.02,0.63-0.12,0.96-0.18c1.93-0.34,4.33-0.77,5.53-2.53c0.65-0.96,0.84-2.14,0.56-3.52c-0.31-1.54-0.79-3.02-1.26-4.45
			c-0.45-1.39-0.88-2.71-1.17-4.1c0.33-0.25,1.37-0.52,2.01-0.69c0.84-0.22,1.7-0.45,2.48-0.83c0.42-0.21,0.79-0.47,1.16-0.73
			c0.68,11.19,2.13,12.91,2.59,13.45c0.67,0.82,1.51,1.34,2.42,1.68c0.82,0.3,2.3,0.81,5.43,1.16c0.41,0.05,1.84,0.09,2.23,0.07
			c1.67-0.1,3.01-0.3,4.1-0.97c1.39-0.86,2.04-2.31,1.95-4.29c0.94,1.09,1.98,1.92,3.12,2.43c0.57,0.26,1.89,0.72,3.31,0.78
			c0.32,0.01,1.01,0.05,1.34,0.02c1.92-0.11,3.82-0.64,5.18-1.6c0.27,0.23,0.56,0.45,0.88,0.65c1.33,0.81,6.36,1.86,7.44,1.99
			c2.82,0.35,5.66,0.53,8.42,0.56c0.23,0.01,0.45,0.01,0.66,0.01c4.87,0,7.22-1.58,8.29-3.46c1.44,1.01,3.17,1.91,4.79,2.43
			c1.5,0.48,4.63,1,5.74,1.11c0.54,0.05,1.07,0.08,1.61,0.08c5.32,0,10.54-2.57,11.95-7.88c0.53,2.95,2.78,4.96,6.03,6.46
			c2.38,1.1,6.6,1.65,8.39,1.65c0.87,0,1.72-0.07,2.54-0.22c3.23-0.58,6.11-2.03,8.1-4.1c0.5-0.52,0.92-1.07,1.29-1.64
			c1.69,1.91,3.81,3.35,6.08,4.23c2.52,0.96,5.5,1.32,7.46,1.31c4.41-0.04,8.56-2.02,11.8-5.77c3.07-3.57,5.08-8.37,5.5-13.18
			c0.53-5.96-1.39-12.26-5.46-16.11C264.48,200.52,263.01,198.85,260.36,197.32z M187.9,214.41c-0.83-1.67-2.86-2.66-3.17-2.96
			l1.79,0.22c0.87,0.11,1.6,0.09,2.22-0.01c1.02,3.3,3.36,5.61,5.43,7.34c-0.54-0.22-1.14-0.39-1.83-0.46
			c-1.57-0.15-3.08,0.3-4.34,1.22c0.14-0.37,0.24-0.78,0.3-1.25C188.45,217.18,188.52,215.66,187.9,214.41z M235.06,214.46
			c-1.66-1.65-3.57-2.79-5.24-3.64c0.16,0.01,0.32,0.01,0.49,0.01c0.99,0.43,2.31,0.95,3.93,0.66c0.51-0.09,0.99-0.26,1.44-0.47
			C235.38,212.15,235.18,213.31,235.06,214.46z M161.47,214.59c-0.33,2.69-0.5,5.24-0.58,7.75c-1-1.33-1.95-2.88-2.77-4.29
			c1.7-1.16,2.92-3.11,3.59-5.2C161.63,213.44,161.54,213.99,161.47,214.59z M105.1,214.41c-1.49-1.48-3.16-2.55-4.63-3.39
			c0.27,0.04,0.56,0.05,0.85,0.05c0.94,0.44,2.13,0.88,3.6,0.68c1.18-0.16,2.13-0.64,2.9-1.3c-0.02,2.41,0.23,4.79,0.56,6.91
			C107.38,216.18,106.24,215.21,105.1,214.41z M83.5,224.98c-0.46-0.43-2.69-2.23-3.15-2.53c1.41-0.53,2.57-1.58,2.89-3.69
			c0.2-1.33,0.32-2.85-0.29-4.11c-0.47-0.97-1.71-2.49-3.22-3.05l1.91,0.28c0.34,0.05,0.71,0.09,1.09,0.11
			c1.44,4.49,5.02,6.75,8,8.25c-0.57-0.09-1.2-0.12-1.89-0.02C86.23,220.56,84.22,222.5,83.5,224.98z M213.73,224.66
			c-0.31-5.75-4.28-9.28-6.76-11.47c-0.29-0.25-0.6-0.54-0.91-0.82c0.4,0.13,2.05,0.84,4.26,1.01c0.73,0.05,1.43-0.02,2.1-0.21
			c1.74,3.98,5.18,5.96,8.07,7.27c-0.58-0.07-1.2-0.07-1.89,0.06C216.31,220.9,214.53,222.54,213.73,224.66z"/>
		<path d="M258.92,166.85c-0.23-0.08-0.47-0.14-0.71-0.21c-0.12-0.03-0.25-0.05-0.37-0.08c0.02-0.2,0.05-0.39,0.05-0.6
			c0-0.94-0.24-1.79-0.56-2.54c-0.23-1.45-0.9-2.67-1.52-3.59c-1.4-2.1-3.32-3.87-5.85-5.41c-2.75-1.67-5.65-3.01-8.62-3.97
			c-5.02-1.63-10.44-2.27-16.08-1.9c-3.75,0.25-6.88,1.11-9.54,2.65c-1.42,0.81-3.4,2.19-4.25,4.68c-0.49,1.44-0.81,2.75-0.97,4.01
			c-0.27,2.07-0.5,4.17-0.72,6.27c-0.11,1.06-0.23,2.13-0.35,3.19c-0.23,1.99-0.12,3.77,0.31,5.46c1.42,5.55,4.29,10,8.5,13.27
			c0.67,0.6,1.36,1.18,2.1,1.71c2.11,1.5,4.14,2.56,6.18,3.22c0,0,0,0,0,0c0.8,0.26,1.61,0.46,2.41,0.6
			c2.08,0.36,4.82,0.68,7.66-0.07l0.76-0.2c1.55-0.4,3.16-0.81,4.7-1.64c1.56-0.84,3.07-1.88,4.87-3.36
			c0.05,0.01,0.09,0.03,0.14,0.04c0.21,0.07,0.46,0.18,0.67,0.27c0.29,0.13,0.6,0.25,0.9,0.35c2.05,0.67,4.24,0.58,6.91-0.27
			c3.57-1.14,6.41-3.4,8.47-6.74c1.06-1.72,2.34-4.38,1.26-7.57c-0.05-0.14-0.1-0.26-0.16-0.39c-0.07-0.43-0.18-0.88-0.33-1.33
			C263.78,169.75,261.81,167.78,258.92,166.85z M257.71,176.03c-0.3,1.57-0.94,2.87-1.88,3.87c-0.86,0.91-1.9,1.37-3.1,1.42
			c0.41-0.75,0.81-1.51,1.17-2.3c0.64-1.39,1.13-2.85,1.61-4.25c0.08-0.22,0.15-0.45,0.23-0.68c0.09,0.02,0.17,0.03,0.26,0.05
			c0.48,0.08,0.93,0.16,1.33,0.29c0.01,0,0.02,0.01,0.03,0.01C257.65,174.93,257.81,175.53,257.71,176.03z"/>
	</g>
	<g>
		<path class="st0" d="M114.43,65.05c2.69,3.65,5.96,17.53,6.68,22.27c0.51,3.31,1.18,10.13-3.45,10.84
			c-1.53,0.23-3.15-0.51-4.26-1.64c-1.35-1.36-2.01-3.29-2.45-5.15c-0.25-1.32-0.92-7.41-2.81-7.12c-2.65,0.4,2.25,8.57-3.1,9.38
			c-4.33,0.66-4.55-7.28-6.43-6.99c-1.17,0.18-0.98,2.81-0.85,3.62c0.29,1.88,1.08,3.64,1.36,5.47c0.44,2.85-0.3,5.88-3.61,6.39
			c-5.91,0.9-7.51-6.56-8.17-10.84c-0.82-5.34-2.3-24.24,5.49-25.43c7.99-1.22,6.78,12.3,9.88,11.83c1.94-0.3,1.13-9.29,2.03-11.3
			c0.73-1.67,2.51-2.68,4.29-2.95C110.75,63.16,113.3,63.5,114.43,65.05z"/>
		<path class="st0" d="M153.1,83.94c-1.39,8.59-8.62,17.86-18.23,16.3c-8.74-1.41-11.91-11.21-10.66-18.94
			c1.36-8.44,8.62-17.86,18.13-16.32C151.14,66.41,154.36,76.16,153.1,83.94z M142.29,83.08c0.31-1.93,0.58-6.48-2.12-6.91
			c-2.74-0.44-4.8,4.54-5.15,6.68s-0.37,4.9,2.32,5.33C140.29,88.65,141.9,85.47,142.29,83.08z"/>
		<path class="st0" d="M180,92.71c0.97,1.23,2.12,2.74,1.96,4.38c-0.26,2.77-4.07,3.13-6.28,2.92c-4.82-0.46-5.98-14.9-8.18-15.11
			c-0.46-0.04-0.41,0.48-0.44,0.79c-0.35,3.69,0.22,7.47-0.13,11.16c-0.31,3.23-2.54,3.33-5.21,3.07c-1.74-0.17-4.14-0.55-5.12-2.2
			c-1.12-1.81-0.41-10.33-0.18-12.79c0.42-4.36,1.24-8.68,2.62-12.84c1.88-5.61,5.79-8.14,11.74-7.57c6.25,0.6,11.73,5,11.09,11.76
			c-0.3,3.13-2.66,7.3-6.03,7.91C176.88,86.88,178.25,90.47,180,92.71z M171.92,76.01c0.16-1.69-1.57-3.05-3.11-3.19
			c-0.77-0.07-1.11,3.52-1.17,4.13c-0.07,0.77-0.33,1.83,0.7,1.93C170.18,79.05,171.74,77.9,171.92,76.01z"/>
		<path class="st0" d="M212.69,91.92c0.73,4.05-3.34,5.88-6.53,6.77c-2.63,0.79-5.34,1.43-8.08,1.92c-1.22,0.22-2.48,0.44-3.69,0.14
			c-2.79-0.7-3.97-3.79-4.68-6.28c-0.92-3.08-1.62-6.14-2.19-9.29c-0.79-4.41-1.34-8.97-1.36-13.41c-0.05-5.54,5.63-6.55,9.94-7.32
			c2.48-0.44,8.17-1.72,10.18,0.48c0.84,0.9,1.25,2.03,1.46,3.19c0.54,3.04,0.68,4.69-2.76,5.31l-5.68,1.02
			c-1.52,0.27-1.81,1-1.55,2.42c0.11,0.61,0.41,1.71,1.22,1.56c1.42-0.25,2.85-0.72,4.27-0.97c2.99-0.54,3.79,1,4.27,3.68
			c0.98,5.47-8.77,3.92-8.15,7.37c0.15,0.86,0.43,0.92,1.19,0.78c2.13-0.38,4.22-0.97,6.35-1.35
			C210.65,87.27,211.99,88.02,212.69,91.92z"/>
	</g>
	<g>
		<path class="st0" d="M112.07,178.96c2.4,0.83,5.02,1.14,7.37,2.17c1.98,0.79,2,3.17,1.58,4.93c-1.27,5.36-5.24,4.69-9.55,3.66
			c-4.56-1.08-12.64-3.16-12.59-9.18c0.03-1,0.3-1.94,0.54-2.94c0.83-3.51,5.62-22.59,7.29-24.26c1.12-1.16,3.01-1.09,4.46-0.74
			c4.26,1.01,5.26,4.16,4.32,8.12c-1.21,5.11-3.67,9.87-4.88,14.99C110.19,177.51,110.2,178.36,112.07,178.96z"/>
		<path class="st0" d="M149.68,182.48c0.42,4.1-3.77,5.62-7.02,6.26c-2.68,0.58-5.43,1.02-8.2,1.31c-1.23,0.13-2.51,0.26-3.69-0.14
			c-2.73-0.91-3.68-4.08-4.2-6.61c-0.68-3.14-1.16-6.25-1.48-9.42c-0.46-4.46-0.67-9.04-0.35-13.48c0.37-5.52,6.1-6.11,10.46-6.56
			c2.51-0.26,8.27-1.11,10.12,1.24c0.77,0.96,1.1,2.11,1.22,3.29c0.31,3.07,0.33,4.73-3.15,5.09l-5.74,0.59
			c-1.54,0.16-1.88,0.86-1.73,2.3c0.06,0.62,0.28,1.73,1.1,1.65c1.43-0.15,2.9-0.5,4.33-0.65c3.02-0.31,3.7,1.28,3.98,3.99
			c0.57,5.53-9.04,3.26-8.68,6.74c0.09,0.87,0.36,0.95,1.12,0.87c2.15-0.22,4.28-0.65,6.43-0.87
			C148,177.68,149.28,178.53,149.68,182.48z"/>
		<path class="st0" d="M163.73,166.2c0.34,2.4,10.63,3.44,11.95,12.82c0.88,6.22-4.4,10.09-10.01,10.88
			c-4.08,0.58-10.74-0.93-11.43-5.82c-0.35-2.45,1.12-4.94,3.67-5.3c2.29-0.32,3.78,1.39,5.82,1.1c0.82-0.12,1.99-0.65,1.84-1.66
			c-0.45-3.21-11.23-3.25-12.51-12.33c-0.88-6.22,4.13-11.61,10.1-12.45c4.13-0.58,10.43,0.92,11.12,5.81
			c0.37,2.6-0.88,5.53-3.79,5.94c-2.24,0.32-3.79-1.44-4.97-1.27C164.37,164.08,163.55,164.93,163.73,166.2z"/>
		<path class="st0" d="M191.74,166.24c-0.25,2.41,9.47,5.92,8.47,15.35c-0.66,6.25-6.72,8.71-12.36,8.12
			c-4.1-0.43-10.19-3.51-9.67-8.43c0.26-2.46,2.29-4.52,4.85-4.25c2.3,0.24,3.33,2.27,5.38,2.49c0.82,0.09,2.09-0.14,2.19-1.17
			c0.34-3.23-10.1-5.89-9.13-15c0.66-6.25,6.83-10.25,12.83-9.62c4.15,0.44,9.89,3.43,9.37,8.35c-0.28,2.61-2.2,5.15-5.12,4.84
			c-2.25-0.24-3.33-2.32-4.51-2.45S191.87,164.95,191.74,166.24z"/>
	</g>
	<path class="st1" d="M59.64,189.79c2.95,0.51,5.91,0.59,8.82-0.23c2.3-0.65,4.53-1.53,6.38-3.1c1.38-1.18,2.82-2.29,3.92-3.79
		c1.16-1.58,2.06-3.28,2.87-5.05c0.11-0.24,0.39-0.48,0.65-0.55c0.42-0.12,0.88-0.14,1.32-0.15c2.51-0.06,4.47-1.3,6.21-2.94
		c2.57-2.41,3.95-5.42,4.32-8.91c0.25-2.33,0-4.51-1.77-6.31c-1.92-1.96-4.19-2.62-6.83-2.09c-0.95,0.19-1.87,0.48-2.88,0.75
		c-0.08-0.53-0.12-0.97-0.23-1.4c-0.17-0.69-0.29-1.41-0.6-2.05c-0.57-1.19-1.6-1.98-2.71-2.64c-2.11-1.25-4.44-1.86-6.85-2.11
		c-8.45-0.85-16.35,0.99-23.72,5.13c-2.68,1.5-5.08,3.37-6.84,5.93c-0.99,1.43-1.71,3-1.5,4.78c0.15,1.24,0.39,2.49,0.77,3.68
		c0.98,3,2.07,5.97,3.11,8.95c0.53,1.54,1.26,2.96,2.3,4.21C49.88,186.09,54.22,188.85,59.64,189.79z M83.21,161.26
		c-0.04-0.4,0.02-0.63,0.42-0.72c0.87-0.2,1.72-0.53,2.6-0.6c1.87-0.15,3.87,1.3,4.34,3.11c0.46,1.77,0.51,3.59-0.06,5.34
		c-0.68,2.1-2.14,3.52-4.25,4.2c-1.56,0.51-1.64,0.48-2.82,0.35c0.11-2.01,0.33-4.02,0.29-6.02
		C83.7,165.03,83.42,163.15,83.21,161.26z M44.23,162.13c0.61-1.29,1.58-2.3,2.65-3.21c2.2-1.87,4.73-3.17,7.39-4.22
		c4.24-1.67,8.64-2.65,13.2-2.79c2.16-0.07,4.32,0.03,6.38,0.72c1.05,0.35,2.1,0.85,2.99,1.5c1.56,1.16,1.93,2.94,1.18,4.74
		c-0.56,1.36-1.52,2.42-2.61,3.37c-2.27,1.97-4.9,3.34-7.68,4.41c-1.47,0.56-2.97,1.02-4.46,1.53c-4.17,1.01-8.36,1.57-12.64,1.03
		c-1.71-0.21-3.35-0.64-4.82-1.59C43.8,166.32,43.21,164.3,44.23,162.13z"/>
	<g>
		<g>
			<g>
				<path class="st2" d="M56.85,211.58c1.4,10.15-5.43,21.02-15.89,22.45c-1.79,0.25-3.31,0.51-4.52-1.09
					c-1.71-2.26-3.67-12.7-4.1-15.86c-0.58-4.23-0.86-8.56-0.78-12.84c0.16-4.54,4.41-5.7,8.29-6.23
					C48.69,196.79,55.67,203.01,56.85,211.58z M47.22,213.73c-0.29-2.09-2.04-4.61-4.43-4.28c-2.55,0.35-2.16,4.35-1.9,6.19
					c0.22,1.58,0.52,4.19,2.67,3.9C46,219.2,47.53,215.98,47.22,213.73z"/>
			</g>
			<g>
				<path class="st2" d="M80.35,228.97c-0.6,4.08-5.04,4.51-8.35,4.34c-2.74-0.09-5.52-0.35-8.27-0.75
					c-1.22-0.18-2.5-0.37-3.54-1.04c-2.42-1.56-2.56-4.86-2.44-7.44c0.11-3.21,0.42-6.34,0.88-9.5c0.66-4.43,1.58-8.93,2.98-13.15
					c1.72-5.26,7.42-4.42,11.75-3.78c2.5,0.37,8.29,0.97,9.5,3.7c0.51,1.12,0.54,2.32,0.37,3.49c-0.45,3.06-0.85,4.67-4.31,4.15
					l-5.71-0.84c-1.53-0.23-2.03,0.38-2.24,1.8c-0.09,0.61-0.15,1.75,0.66,1.87c1.43,0.21,2.93,0.23,4.36,0.44
					c3.01,0.44,3.27,2.15,2.88,4.85c-0.81,5.5-9.56,0.93-10.07,4.39c-0.13,0.87,0.11,1.01,0.88,1.12c2.14,0.32,4.31,0.43,6.45,0.75
					C79.9,223.9,80.93,225.05,80.35,228.97z"/>
			</g>
			<g>
				<path class="st2" d="M95.03,209.83c0.32,2.4,10.61,3.51,11.87,12.9c0.84,6.23-4.46,10.06-10.08,10.82
					c-4.08,0.55-10.73-0.99-11.39-5.89c-0.33-2.45,1.15-4.94,3.7-5.28c2.3-0.31,3.78,1.41,5.82,1.14c0.82-0.11,1.99-0.63,1.86-1.65
					c-0.43-3.22-11.2-3.32-12.43-12.41c-0.84-6.23,4.21-11.58,10.18-12.39c4.13-0.56,10.42,0.98,11.08,5.88
					c0.35,2.6-0.92,5.53-3.83,5.92c-2.25,0.3-3.78-1.46-4.96-1.31C95.68,207.72,94.86,208.55,95.03,209.83z"/>
			</g>
			<g>
				<path class="st2" d="M132.28,206.47c0.95,4.64-0.64,9.49-5.07,11.75c-2.01,0.99-5.69,0.95-5.26,3.07
					c0.6,2.93,1.84,5.67,2.43,8.6c0.77,3.78-3.24,3.97-5.91,4.52c-0.35,0.07-0.72,0.09-1.09,0.06c-2.89-0.51-5.72-11.55-6.27-14.28
					c-1.61-7.92-3.01-20.46,7.49-22.6C124.95,196.29,130.98,200.06,132.28,206.47z M123.09,208.29c-0.27-1.31-1.68-2.81-3.14-2.51
					c-1.06,0.22-0.43,3.56-0.27,4.36c0.07,0.35,0.38,1.6,0.53,1.83c0.12,0.08,0.27,0.05,0.42,0.02
					C122.3,211.65,123.43,209.95,123.09,208.29z"/>
			</g>
			<g>
				<path class="st2" d="M158.58,223.79c1.14,1.07,2.51,2.38,2.6,4.03c0.16,2.78-3.55,3.71-5.76,3.84
					c-4.83,0.28-8.17-13.82-10.38-13.69c-0.46,0.03-0.33,0.54-0.31,0.84c0.21,3.7,1.35,7.35,1.57,11.05
					c0.19,3.24-2.01,3.67-4.68,3.83c-1.75,0.1-4.17,0.09-5.39-1.39c-1.38-1.62-1.98-10.15-2.12-12.62
					c-0.25-4.37-0.09-8.76,0.64-13.09c1-5.84,4.49-8.93,10.45-9.27c6.27-0.36,12.36,3.16,12.75,9.94c0.18,3.14-1.52,7.62-4.76,8.73
					C154.62,218.5,156.51,221.85,158.58,223.79z M148.06,208.51c-0.1-1.7-2.02-2.77-3.56-2.68c-0.77,0.04-0.56,3.64-0.53,4.26
					c0.04,0.77-0.05,1.86,0.98,1.8C146.8,211.78,148.17,210.41,148.06,208.51z"/>
			</g>
			<g>
				<path class="st2" d="M185.7,228.71c-0.5,4.09-4.93,4.64-8.23,4.54c-2.75-0.03-5.53-0.21-8.29-0.55
					c-1.23-0.15-2.5-0.31-3.57-0.95c-2.46-1.49-2.68-4.79-2.63-7.38c0.03-3.21,0.26-6.35,0.65-9.52c0.54-4.45,1.36-8.96,2.65-13.22
					c1.58-5.31,7.31-4.61,11.65-4.07c2.5,0.31,8.31,0.76,9.59,3.46c0.54,1.1,0.6,2.3,0.46,3.48c-0.38,3.07-0.73,4.68-4.2,4.26
					l-5.72-0.7c-1.53-0.19-2.02,0.43-2.2,1.86c-0.08,0.61-0.11,1.75,0.71,1.85c1.43,0.18,2.94,0.15,4.37,0.33
					c3.02,0.37,3.33,2.07,3,4.78c-0.68,5.52-9.53,1.17-9.96,4.64c-0.11,0.87,0.14,1,0.9,1.1c2.15,0.26,4.32,0.32,6.47,0.58
					C185.12,223.66,186.18,224.78,185.7,228.71z"/>
			</g>
			<g>
				<path class="st2" d="M200.73,209.86c-0.24,2.41,9.52,5.84,8.6,15.28c-0.61,6.25-6.65,8.77-12.29,8.22
					c-4.1-0.4-10.22-3.43-9.74-8.35c0.24-2.46,2.25-4.54,4.82-4.29c2.31,0.23,3.35,2.24,5.4,2.44c0.82,0.08,2.08-0.16,2.19-1.18
					c0.32-3.23-10.14-5.8-9.25-14.93c0.61-6.25,6.75-10.31,12.75-9.72c4.15,0.41,9.92,3.35,9.44,8.27
					c-0.26,2.61-2.16,5.17-5.08,4.89c-2.25-0.22-3.35-2.29-4.53-2.41C201.85,207.95,200.86,208.58,200.73,209.86z"/>
			</g>
			<g>
				<path class="st2" d="M224.34,209.86c0.43,2.38,10.75,3.05,12.41,12.38c1.11,6.18-4.03,10.24-9.6,11.24
					c-4.06,0.73-10.77-0.53-11.64-5.4c-0.43-2.43,0.94-4.98,3.47-5.43c2.28-0.41,3.83,1.25,5.86,0.89c0.81-0.14,1.96-0.72,1.78-1.73
					c-0.57-3.19-11.34-2.84-12.95-11.86c-1.11-6.19,3.71-11.75,9.64-12.81c4.11-0.73,10.45,0.54,11.32,5.4
					c0.46,2.59-0.68,5.56-3.57,6.08c-2.23,0.4-3.84-1.3-5.01-1.09C224.9,207.72,224.12,208.59,224.34,209.86z"/>
			</g>
			<g>
				<path class="st2" d="M266.18,215.62c-0.76,8.67-7.31,18.43-17.01,17.58c-8.82-0.78-12.69-10.32-12-18.12
					c0.75-8.52,7.31-18.43,16.91-17.59C262.96,198.27,266.88,207.77,266.18,215.62z M255.33,215.54c0.17-1.95,0.11-6.51-2.61-6.74
					c-2.77-0.24-4.46,4.88-4.65,7.04c-0.19,2.15-0.02,4.91,2.7,5.15C253.75,221.24,255.12,217.95,255.33,215.54z"/>
			</g>
		</g>
		<g>
			<g>
				<path class="st2" d="M49.14,76.99c0.38-0.73,0.94-1.39,1.66-1.94c2.06-1.59,4.84-1.77,7.15-0.61c0.2,0.1,0.4,0.2,0.6,0.3
					c0.04-0.2,0.07-0.4,0.11-0.59c0.67-3.63,4.95-6.56,8.5-4.88c1.16,0.55,2.08,1.53,2.72,2.65c1.23,2.18,1.46,4.73,1.54,7.18
					c0.08,2.59-0.05,5.18-0.18,7.77c-0.16,3.25-0.33,6.5-0.49,9.75c-0.03,0.5-0.09,1.5-0.72,1.58c-0.46,0.06-1.13-0.59-1.51-0.8
					c-4.24-2.42-8.25-5.38-12.31-8.14C52.52,86.74,46.37,82.23,49.14,76.99z"/>
			</g>
		</g>
		<g>
			<g>
				<path class="st2" d="M249.93,77.15c-0.38-0.73-0.94-1.39-1.66-1.94c-2.06-1.59-4.84-1.77-7.15-0.61c-0.2,0.1-0.4,0.2-0.6,0.3
					c-0.04-0.2-0.07-0.4-0.11-0.59c-0.67-3.63-4.95-6.56-8.5-4.88c-1.16,0.55-2.08,1.53-2.72,2.65c-1.23,2.18-1.46,4.73-1.54,7.18
					c-0.08,2.59,0.05,5.18,0.18,7.77c0.16,3.25,0.33,6.5,0.49,9.75c0.03,0.5,0.09,1.5,0.72,1.58c0.46,0.06,1.13-0.59,1.51-0.8
					c4.24-2.42,8.25-5.38,12.31-8.14C246.56,86.9,252.71,82.39,249.93,77.15z"/>
			</g>
		</g>
	</g>
	<path class="st1" d="M220.1,187.15c2.44,1.74,5.08,3.08,8.06,3.6c2.35,0.41,4.74,0.58,7.09-0.05c1.76-0.47,3.53-0.85,5.17-1.73
		c1.73-0.93,3.27-2.07,4.77-3.31c0.2-0.17,0.56-0.26,0.82-0.22c0.43,0.07,0.85,0.26,1.26,0.44c2.29,1.03,4.59,0.75,6.87,0.03
		c3.36-1.07,5.91-3.19,7.75-6.17c1.23-2,1.94-4.07,1.13-6.45c-0.88-2.59-2.65-4.17-5.26-4.84c-0.94-0.24-1.9-0.37-2.92-0.57
		c0.15-0.51,0.31-0.93,0.4-1.37c0.15-0.7,0.34-1.4,0.35-2.11c0-1.32-0.59-2.48-1.31-3.55c-1.36-2.04-3.2-3.59-5.27-4.85
		c-7.26-4.41-15.18-6.16-23.61-5.61c-3.06,0.2-6.03,0.85-8.73,2.4c-1.51,0.87-2.83,1.97-3.41,3.67c-0.4,1.18-0.73,2.42-0.89,3.65
		c-0.41,3.13-0.71,6.28-1.06,9.42c-0.18,1.61-0.14,3.21,0.26,4.79C212.89,179.61,215.63,183.97,220.1,187.15z M253.68,171.59
		c0.13-0.38,0.29-0.55,0.69-0.47c0.87,0.19,1.78,0.27,2.6,0.58c1.75,0.67,2.93,2.84,2.57,4.68c-0.35,1.8-1.09,3.46-2.36,4.79
		c-1.52,1.6-3.45,2.25-5.65,1.96c-1.63-0.22-1.69-0.27-2.7-0.9c0.97-1.77,2.03-3.49,2.86-5.31
		C252.49,175.2,253.05,173.38,253.68,171.59z M218.14,155.55c1.1-0.9,2.41-1.39,3.77-1.75c2.79-0.73,5.64-0.82,8.49-0.62
		c4.54,0.32,8.93,1.34,13.11,3.18c1.98,0.87,3.89,1.89,5.45,3.41c0.79,0.77,1.53,1.67,2.05,2.64c0.91,1.72,0.47,3.48-0.98,4.79
		c-1.09,0.99-2.41,1.53-3.81,1.92c-2.9,0.79-5.86,0.9-8.83,0.66c-1.56-0.12-3.12-0.36-4.68-0.54c-4.2-0.89-8.22-2.19-11.85-4.52
		c-1.45-0.93-2.75-2.03-3.67-3.51C215.93,159.15,216.28,157.07,218.14,155.55z"/>
	<g>
		<g>
			<path class="st3" d="M70.7,134.27c0.62,3.82-3.23,5.48-6.25,6.26c-2.49,0.7-5.05,1.26-7.63,1.68c-1.15,0.19-2.34,0.38-3.47,0.07
				c-2.62-0.7-3.68-3.62-4.3-5.97c-0.82-2.91-1.43-5.8-1.91-8.77c-0.67-4.16-1.13-8.45-1.07-12.63c0.04-5.21,5.39-6.07,9.46-6.73
				c2.34-0.38,7.71-1.49,9.57,0.61c0.78,0.86,1.15,1.92,1.32,3.02c0.46,2.87,0.57,4.42-2.68,4.95l-5.35,0.87
				c-1.43,0.23-1.72,0.92-1.5,2.25c0.09,0.57,0.36,1.61,1.12,1.49c1.34-0.22,2.69-0.63,4.03-0.85c2.82-0.46,3.55,1,3.96,3.53
				c0.84,5.16-8.3,3.55-7.78,6.8c0.13,0.81,0.39,0.87,1.1,0.75c2.01-0.33,3.98-0.84,5.99-1.17C68.86,129.85,70.1,130.58,70.7,134.27
				z"/>
			<path class="st3" d="M83.97,119.21c0,2.28,9.44,4.6,9.44,13.51c0,5.91-5.42,8.81-10.75,8.81c-3.87,0-9.88-2.28-9.88-6.93
				c0-2.32,1.69-4.46,4.12-4.46c2.18,0,3.34,1.79,5.28,1.79c0.77,0,1.94-0.34,1.94-1.31c0-3.05-10.02-4.5-10.02-13.12
				c0-5.91,5.38-10.27,11.04-10.27c3.92,0,9.59,2.23,9.59,6.88c0,2.47-1.55,5.04-4.31,5.04c-2.13,0-3.34-1.84-4.46-1.84
				S83.97,118,83.97,119.21z"/>
			<path class="st3" d="M118.63,116.99c0.48,4.43-1.43,8.83-5.77,10.56c-1.97,0.75-5.41,0.39-5.19,2.42
				c0.3,2.79,1.23,5.47,1.53,8.26c0.39,3.61-3.38,3.44-5.93,3.71c-0.34,0.04-0.68,0.02-1.03-0.04c-2.66-0.73-4.35-11.32-4.63-13.92
				c-0.82-7.56-1.04-19.42,8.98-20.51C112.65,106.83,117.96,110.88,118.63,116.99z M109.86,117.89c-0.14-1.25-1.33-2.78-2.72-2.63
				c-1.01,0.11-0.71,3.29-0.63,4.06c0.04,0.34,0.22,1.54,0.34,1.77c0.11,0.09,0.25,0.07,0.4,0.05
				C108.83,120.98,110.03,119.48,109.86,117.89z"/>
			<path class="st3" d="M143.34,133.92c0.91,1.16,1.99,2.58,1.84,4.12c-0.25,2.6-3.84,2.94-5.91,2.73
				c-4.53-0.44-5.6-14.02-7.67-14.22c-0.43-0.04-0.38,0.45-0.41,0.74c-0.34,3.47,0.19,7.03-0.14,10.5c-0.29,3.04-2.4,3.12-4.9,2.88
				c-1.64-0.16-3.89-0.52-4.81-2.07c-1.05-1.71-0.37-9.72-0.15-12.03c0.4-4.1,1.18-8.16,2.49-12.07c1.78-5.28,5.46-7.64,11.05-7.1
				c5.88,0.57,11.02,4.72,10.41,11.08c-0.29,2.94-2.51,6.86-5.68,7.43C140.42,128.43,141.7,131.81,143.34,133.92z M135.77,118.2
				c0.15-1.59-1.47-2.87-2.92-3.01c-0.72-0.07-1.05,3.3-1.11,3.88c-0.07,0.72-0.31,1.72,0.65,1.81
				C134.13,121.05,135.6,119.98,135.77,118.2z"/>
			<path class="st3" d="M171.88,134.33c0.46,3.85-3.46,5.34-6.5,6c-2.51,0.59-5.09,1.05-7.69,1.36c-1.15,0.14-2.36,0.28-3.47-0.07
				c-2.58-0.81-3.52-3.77-4.05-6.15c-0.69-2.94-1.19-5.86-1.55-8.84c-0.5-4.18-0.77-8.49-0.54-12.67c0.25-5.2,5.64-5.85,9.73-6.34
				c2.36-0.28,7.76-1.17,9.53,1c0.74,0.89,1.07,1.97,1.2,3.08c0.35,2.89,0.39,4.44-2.88,4.83l-5.39,0.65
				c-1.44,0.17-1.75,0.84-1.59,2.19c0.07,0.58,0.29,1.62,1.06,1.53c1.35-0.16,2.72-0.52,4.06-0.68c2.84-0.34,3.5,1.14,3.81,3.69
				c0.62,5.19-8.44,3.21-8.05,6.48c0.1,0.82,0.35,0.88,1.07,0.8c2.02-0.24,4.02-0.68,6.04-0.92
				C170.22,129.84,171.44,130.62,171.88,134.33z"/>
			<path class="st3" d="M185.82,118.92c-0.12,2.27,9.18,5.1,8.7,14c-0.32,5.9-5.89,8.51-11.21,8.22c-3.87-0.21-9.74-2.8-9.49-7.45
				c0.12-2.32,1.93-4.36,4.35-4.23c2.18,0.12,3.24,1.97,5.17,2.07c0.77,0.04,1.95-0.23,2-1.2c0.16-3.05-9.77-5.04-9.3-13.64
				c0.32-5.9,5.92-9.96,11.58-9.66c3.92,0.21,9.46,2.74,9.21,7.38c-0.13,2.47-1.82,4.95-4.57,4.8c-2.13-0.11-3.24-2.02-4.35-2.08
				S185.89,117.72,185.82,118.92z"/>
			<path class="st3" d="M209.33,119.29c0.5,2.22,10.22,2.42,12.17,11.12c1.29,5.77-3.37,9.79-8.56,10.95
				c-3.78,0.85-10.14-0.06-11.15-4.6c-0.51-2.27,0.68-4.72,3.04-5.25c2.13-0.48,3.65,1.02,5.54,0.59c0.76-0.17,1.82-0.75,1.6-1.7
				c-0.67-2.98-10.77-2.2-12.65-10.61c-1.29-5.77,3-11.19,8.53-12.43c3.83-0.86,9.84,0.08,10.86,4.61c0.54,2.41-0.41,5.25-3.1,5.86
				c-2.08,0.47-3.66-1.06-4.75-0.82C209.76,117.26,209.06,118.11,209.33,119.29z"/>
			<path class="st3" d="M251.21,124.49c-0.61,8.16-6.65,17.42-15.78,16.74c-8.31-0.62-12.06-9.55-11.51-16.89
				c0.6-8.02,6.65-17.42,15.68-16.74C247.97,108.22,251.77,117.1,251.21,124.49z M241.01,124.55c0.14-1.84,0.02-6.12-2.54-6.31
				c-2.61-0.2-4.14,4.64-4.29,6.67c-0.15,2.03,0.04,4.62,2.6,4.81C239.59,129.94,240.84,126.82,241.01,124.55z"/>
		</g>
		<path class="st3" d="M51.86,167.71c3.04,0.31,6.04,0.01,9.02-0.61c3.97-0.82,7.74-2.18,11.17-4.38c1.49-0.95,2.85-2.06,3.77-3.6
			c1-1.66,0.66-3.09-0.95-4.14c-0.28-0.18-0.57-0.38-0.88-0.46c-1.26-0.33-2.52-0.75-3.81-0.9c-3.7-0.42-7.32,0.15-10.87,1.03
			c-2.75,0.77-5.38,1.71-7.84,3.1c-1.86,1.05-3.62,2.23-4.88,4c-1.46,2.06-1,3.82,1.27,4.92C49.12,167.29,50.48,167.56,51.86,167.71
			z"/>
		<path class="st3" d="M222.64,163.87c2.6,1.59,5.43,2.61,8.38,3.33c3.93,0.97,7.91,1.37,11.94,0.87c1.75-0.22,3.45-0.63,4.94-1.62
			c1.61-1.06,1.92-2.49,0.92-4.14c-0.17-0.28-0.35-0.58-0.6-0.79c-0.99-0.84-1.95-1.76-3.04-2.44c-3.15-1.97-6.65-3.02-10.23-3.76
			c-2.8-0.49-5.58-0.78-8.39-0.58c-2.12,0.14-4.22,0.45-6.12,1.5c-2.2,1.23-2.54,3-0.97,4.97
			C220.35,162.32,221.46,163.15,222.64,163.87z"/>
	</g>
	<g>
		<path class="st4" d="M262.99,148.24c0.02,0.01,0.04,0.02,0.06,0.04l-0.12,0c-3.52,2.21-3.49,5.7-3.49,5.7s-0.06-3.48-3.63-5.61
			l-0.12,0c0.02-0.01,0.04-0.03,0.06-0.04c-0.02-0.01-0.04-0.02-0.06-0.04l0.12,0c3.51-2.21,3.49-5.7,3.49-5.7s0.06,3.49,3.63,5.61
			l0.12,0C263.03,148.21,263.01,148.23,262.99,148.24z"/>
		<path class="st4" d="M94.87,187.51c0.02,0.01,0.04,0.02,0.06,0.04l-0.12,0c-3.51,2.21-3.49,5.7-3.49,5.7s-0.06-3.48-3.63-5.61
			l-0.12,0c0.02-0.01,0.04-0.03,0.06-0.04c-0.02-0.01-0.04-0.02-0.06-0.04l0.12,0c3.52-2.21,3.49-5.7,3.49-5.7s0.06,3.49,3.63,5.61
			l0.12,0C94.91,187.48,94.89,187.49,94.87,187.51z"/>
		<path class="st4" d="M52.88,97.11c0.02,0.01,0.04,0.02,0.06,0.04l-0.12,0c-3.51,2.21-3.49,5.7-3.49,5.7s-0.06-3.48-3.63-5.61
			l-0.12,0c0.02-0.01,0.04-0.03,0.06-0.04c-0.02-0.01-0.04-0.02-0.06-0.04l0.12,0c3.52-2.21,3.49-5.7,3.49-5.7s0.06,3.49,3.63,5.61
			l0.12,0C52.92,97.09,52.9,97.1,52.88,97.11z"/>
		<path class="st4" d="M225.65,66.66c0.02,0.01,0.04,0.02,0.06,0.04l-0.12,0c-3.51,2.21-3.49,5.7-3.49,5.7s-0.06-3.48-3.63-5.61
			l-0.12,0c0.02-0.01,0.04-0.03,0.06-0.04c-0.02-0.01-0.04-0.02-0.06-0.04l0.12,0c3.52-2.21,3.49-5.7,3.49-5.7s0.06,3.49,3.63,5.61
			l0.12,0C225.69,66.64,225.67,66.65,225.65,66.66z"/>
		<path class="st4" d="M40.38,182.06c0.02,0.01,0.04,0.02,0.06,0.04l-0.12,0c-3.51,2.21-3.49,5.7-3.49,5.7s-0.06-3.48-3.63-5.61
			l-0.12,0c0.02-0.01,0.04-0.03,0.06-0.04c-0.02-0.01-0.04-0.02-0.06-0.04l0.12,0c3.52-2.21,3.49-5.7,3.49-5.7s0.06,3.49,3.63,5.61
			l0.12,0C40.42,182.03,40.4,182.04,40.38,182.06z"/>
		<path class="st4" d="M260.59,102.88c0.02,0.01,0.04,0.02,0.06,0.04l-0.12,0c-3.51,2.21-3.49,5.7-3.49,5.7s-0.06-3.48-3.63-5.61
			l-0.12,0c0.02-0.01,0.04-0.03,0.06-0.04c-0.02-0.01-0.04-0.02-0.06-0.04l0.12,0c3.52-2.21,3.49-5.7,3.49-5.7s0.06,3.49,3.63,5.61
			l0.12,0C260.63,102.86,260.61,102.87,260.59,102.88z"/>
		<path class="st4" d="M213.79,189.43c0.02,0.01,0.04,0.02,0.06,0.04l-0.12,0c-3.51,2.21-3.49,5.7-3.49,5.7s-0.06-3.48-3.63-5.61
			l-0.12,0c0.02-0.01,0.04-0.03,0.06-0.04c-0.02-0.01-0.04-0.02-0.06-0.04l0.12,0c3.52-2.21,3.49-5.7,3.49-5.7s0.06,3.49,3.63,5.61
			l0.12,0C213.83,189.4,213.81,189.42,213.79,189.43z"/>
		<path class="st4" d="M83.65,67.62c0.02,0.01,0.04,0.02,0.06,0.04l-0.12,0c-3.51,2.21-3.49,5.7-3.49,5.7s-0.06-3.48-3.63-5.61
			l-0.12,0c0.02-0.01,0.04-0.03,0.06-0.04c-0.02-0.01-0.04-0.02-0.06-0.04l0.12,0c3.52-2.21,3.49-5.7,3.49-5.7s0.06,3.49,3.63,5.61
			l0.12,0C83.69,67.6,83.67,67.61,83.65,67.62z"/>
	</g>
</g>
</svg>
