<?xml version="1.0" encoding="utf-8"?>
<!-- Generator: Adobe Illustrator 26.3.1, SVG Export Plug-In . SVG Version: 6.00 Build 0)  -->
<svg version="1.1" id="Layer_1" xmlns="http://www.w3.org/2000/svg" xmlns:xlink="http://www.w3.org/1999/xlink" x="0px" y="0px"
	 width="300px" height="300px" viewBox="0 0 300 300" style="enable-background:new 0 0 300 300;" xml:space="preserve">
<style type="text/css">
	.st0{fill:#E1B05D;}
	.st1{fill:#7195CD;}
	.st2{fill:#DC8675;}
	.st3{fill:#EAA33E;}
	.st4{fill:#E895C0;}
</style>
<path class="st0" d="M57.8,87.3c0.9,0.3,1.6,0.8,2.4,1.6c-1.1,0-1.9-0.5-2.6-1.1C57.7,87.7,57.8,87.5,57.8,87.3z"/>
<g>
	<g>
		<path class="st1" d="M151.6,107.4c0.7-0.1,1.4-0.2,2.1-0.4c4.6-1,9.2-3,14.1-6.1c0.2-0.1,0.3-0.2,0.5-0.3c1.2-0.7,2.6-1.6,3.1-2.9
			c0.3-0.7,0.3-1.3,0-2c-0.4-0.8-0.9-1.2-1.7-1.4c-1.4-0.3-2.9,0.7-4.1,1.4c-0.2,0.1-0.2,0.2-0.4,0.3c-3.1,1.9-6.5,3.3-10.3,4.1
			c-1.4,0.3-2-0.1-2.2-1.4c-0.5-3.8-0.9-7.3-1.4-10.7c-0.1-0.5,0-0.7,0.1-0.7c0-0.1,0.2-0.2,0.9-0.4c2.8-0.7,5.3-1.7,7.8-3
			c1-0.5,3.4-1.8,2.5-4c-0.7-2-3.1-1.3-4.1-1c-0.8,0.2-1.7,0.5-2.6,0.7c-1.3,0.4-2.7,0.8-4.1,1.2c-0.6,0.2-0.9,0.2-0.9,0.1
			c-0.1,0-0.2-0.3-0.2-1c-0.1-9.1,0.3-17.5,1.1-25.5c0.2-1.9,1-2.6,3-2.7c2.3-0.1,4.6-0.5,6.8-0.8c0.3,0,0.5-0.1,0.8-0.1
			c2.5-0.4,2.5-2,2.5-2.3c-0.1-1.4-1.6-1.8-2.2-2c-2.5-0.7-5.2-1-8.4-0.9c-0.2,0-0.4,0-0.6,0c-0.4,0-0.6,0-1,0
			c-8.1,0.1-10.4,2.4-11.3,10.4c-1.6,14.2-1.8,30.8,1,45C143.6,106.5,146.1,108.3,151.6,107.4z"/>
		<path class="st1" d="M54.7,125.7c-5.3-2.5-10.4-3.3-15.5-2.8c-2.8,0.3-3.9,1.4-3.8,4.3c0.1,3,0.1,6.1,0.1,9.1c0,6,0,12.2,0.6,18.4
			c0.6,6.1,1.4,12.5,2.5,18.9c0.5,3,2.4,4.5,3.9,5.2c0.4,0.2,0.9,0.4,1.4,0.6c1.8,0.6,3,0.2,3.6-1.1c0.1-0.3,0.1-0.3,0.8,0
			c0.2,0.1,0.4,0.1,0.6,0.2c4.6,1.5,8.4,1.3,11.5,0c2.6-1.1,4-3.1,4.1-5.5c0.1-2.4-1.3-5-3.7-7.2c-1.4-1.2-2.9-2.1-4.4-2.9
			c3.4-2.5,6-5.2,8.2-8.5c3.2-4.9,4-10.8,2.1-16.2C64.8,132.7,60.4,128.3,54.7,125.7z M48.1,167.9c1.2-0.4,4.1-0.4,6.5,0.1
			c0.2,0.1,0.4,0.1,0.7,0.2c1.6,0.4,1.9,0.6,2.1,1.4c0.2,0.8,0,1.5-1.8,2.2c-1.5,0.7-3.3,0.9-5.8,0.6c-0.2,0-0.5,0-0.7-0.1
			c-1.6-0.1-1.7-0.3-1.8-0.8C46.6,169.4,46.9,168.4,48.1,167.9z M44.1,129.8c0,0,0.1-0.1,0.7,0c1.1,0.2,2.2,0.4,3.1,0.5
			c0.3,0,0.5,0.1,0.8,0.1c2.9,0.8,4.9,1.6,6.8,2.7c4.3,2.4,5.8,5.9,4.5,10.3c-0.8,2.4-2.1,4.6-4,6.3c-2.6,2.4-5.8,5-9.5,6.9
			c-0.2,0.1-0.3,0.2-0.5,0.3c0,0,0,0,0,0c0-0.2,0-0.4,0-0.7c-0.3-3.6-0.5-7.2-0.7-10.8c-0.3-4.8-0.5-9.9-1.2-14.9
			C44,130,44,129.8,44.1,129.8z"/>
		<path class="st1" d="M229.4,156.6c-1.4-0.7-2.9-0.1-4.1,0.4c-0.2,0.1-0.2,0.1-0.4,0.2c-3.2,1.3-6.6,2-10.3,2c-1.4,0-2-0.5-2.2-1.9
			c-0.5-4.2-0.9-8-1.4-11.7c-0.1-0.5,0-0.7,0.1-0.8c0-0.1,0.2-0.2,0.9-0.3c2.8-0.4,5.3-1,7.8-2c1-0.4,3.4-1.3,2.5-3.9
			c-0.7-2.3-3.1-1.8-4.1-1.7c-0.8,0.1-1.7,0.2-2.6,0.4c-1.3,0.2-2.7,0.4-4.1,0.8c-0.6,0.1-0.9,0.1-0.9,0c-0.1-0.1-0.2-0.3-0.2-1
			c-0.1-8.6,0.3-16.5,1.1-23.9c0.2-1.7,1-2.4,3-2.4c2.3,0,4.6-0.2,6.8-0.4c0.3,0,0.5,0,0.8-0.1c2.5-0.2,2.5-1.8,2.5-2.1
			c-0.1-1.4-1.6-1.9-2.2-2.1c-2.5-0.8-5.2-1.2-8.4-1.1c-0.2,0-0.4,0-0.6,0c-0.4,0-0.6,0-1,0c-8.1,0.1-10.4,2.3-11.3,9.6
			c-1.7,13.8-1.5,29.8,1,43.5c1,5.6,3.5,7.8,9,8.2c0.7,0,1.4,0.1,2.1,0.1c4.6,0,9.2-1.1,14.1-3c0.2-0.1,0.3-0.1,0.5-0.2
			c1.2-0.4,2.6-0.9,3.1-2.3c0.3-0.7,0.3-1.4,0-2.2C230.8,157.7,230.2,157,229.4,156.6z"/>
		<path class="st1" d="M152.8,186c-3.5-0.1-6.9,1-9.5,2c-1.2,0.5-2.5,0.9-3.7,1.4c-2.8,1.1-5.7,2.2-8.5,2.9c-6.2,1.5-7.9,3.4-8,9.2
			c0,0.6,0,1.1,0,1.7c0,0,0,0.1,0,0.1c-0.1,0-0.1,0-0.2,0.1c0,0.3,0,0.4,0.1,0.7c0.1,1.6,0.3,3.3,0.4,4.9c0.3,3.6,0.6,7.2,1,10.8
			c1,9.3,2.2,19.9,3.6,30.3c0.5,3.8,2.4,5.6,5.8,5.6c0.3,0,0.6,0,0.9,0c3.7-0.3,4.3-2.3,4-6.5c-0.2-3.7-0.6-7.5-0.9-11.2
			c-0.2-2.4-0.4-4.8-0.6-7.2c0-0.2,0-0.4-0.1-0.6c-0.1-0.7-0.2-1.4,0.1-1.8c0.2-0.2,0.5-0.4,0.9-0.5c0.7-0.2,1.4-0.3,2.1-0.5
			c1.7-0.5,3.3-0.9,5-0.8c1.1,0.1,2.5,0.2,3.6-0.6c0.5-0.4,0.9-1,1-1.8c0.5-2.6-2-3.1-3.4-3.4c-0.1,0-0.1,0-0.2,0
			c-2.5-0.4-4.9,0.2-7.3,0.8c-0.1,0-0.2,0-0.3,0.1c-0.7,0.2-1.5,0.3-1.9,0.1c-0.2-0.2-0.4-0.5-0.5-1c-0.7-6.4-1.5-13-1.8-19.8
			c-0.1-1.5,0.4-2.1,2.3-2.8c4.5-1.6,9-3.5,13.4-5.3c1.1-0.4,1.6-0.6,2.6-1.1c1-0.4,3.1-1.3,3.1-3.5
			C155.8,186.1,154,186.1,152.8,186z"/>
	</g>
	<g>
		<path class="st2" d="M39.6,105.3L39.6,105.3c3.3,0.5,3.2-2.8,3.1-4c0-0.5,0-0.9,0-1.4c0-1.2,0-2.4-0.3-3.6c-0.3-1.5,0-2.3,1.2-3
			c0.8-0.4,1.5-1,2.1-1.5c0.2-0.1,0.3-0.2,0.4-0.3c7.2-5.7,11.5-12.6,13.5-20.8c1.4-5.7,0.6-11.2-2.1-15.5c-2.8-4.3-7.3-6.7-12.7-7
			c-2.2-0.1-4.3,0.2-6.2,0.5c-0.8,0.1-1.7,0.2-2.5,0.3c-3.1,0.3-4.5,1.9-4.5,5.1c0,1.8-0.1,3.7-0.2,5.5c-0.2,3.6-0.3,6.9,0.1,10.1
			c0,8.3,0.6,16.5,1.7,25.2c0,0.3,0.1,0.4,0.1,0.7c0.2,1.5,0.4,3,0.7,4.5c0.6,2.5,2.3,4.4,4.8,5.1C39.1,105.2,39.4,105.3,39.6,105.3
			z M43.3,55.2c3.4,0.2,5.8,1.1,7.1,2.9c1.3,1.8,1.5,4.5,0.8,8c-1.4,6.8-5.4,11.8-9.6,15.8C40.7,73.1,39.9,64.6,40,56c0-1,0-1,3-0.8
			C43.1,55.2,43.2,55.2,43.3,55.2z"/>
		<path class="st2" d="M202,83.6c0-1.9-2.1-2.6-2.7-2.9c-1.1-0.4-2.2-0.3-3.2-0.3c-0.2,0-0.2,0-0.4,0c-1.8,0.1-3.5,0.1-5.4,0.2
			c-0.1,0-0.1,0-0.2,0c0,0,0,0,0.1,0c0.1-0.1,0.3-0.2,0.4-0.3c4.5-3.4,8.2-7,10.9-10.8c3.4-4.8,4-9.9,1.6-14.1
			c-2.4-4.2-7.4-7.1-13.9-7.9c-4.8-0.5-8.9,0.9-13.1,2.6c-2,0.9-3,2.1-3,3.8c-0.1,2-0.1,3.9-0.2,5.9c-0.2,6.8,0,13.8,0.2,20.6
			c0.1,3,0.2,6.1,0.2,9.1c0,1.1,0.3,2.1,0.7,3.2c0.4,1.2,1.6,2.6,4.5,2.1c0.1,0,0.1,0,0.2,0c2.2-0.4,3.7-2,3.9-4.1
			c0-0.2,0.1-0.4,0.2-0.7c0.1-0.4,0.3-0.9,0.2-1.5c0-0.7,0.1-1,0.2-1.1c0.1-0.1,0.4-0.3,1.6-0.3c0.1,0,0.2,0,0.3,0
			c4.5-0.1,9.1,0.1,13.8-1c0.1,0,0.1,0,0.2,0C200,86,202,85.5,202,83.6z M182.8,74.8L182.8,74.8c-0.5-4.3-0.8-8.5-1.2-12.7
			c-0.2-2.3-0.4-4.7-0.6-7c-0.1-0.9,0.1-1.1,0.9-1.3c1.6-0.4,3.6-0.9,5.2-1c4.5-0.2,7.8,1,9.3,3c1.5,1.9,1.3,4.7-0.4,8
			c-2.1,4-5.7,7.7-10.5,11.5c-0.5,0.4-0.9,0.8-1.3,1.3c-0.2,0.3-1,1.1-1.2,1.1c0,0,0,0,0,0c-0.2,0-0.2-1-0.1-1.5
			C182.8,75.7,182.8,75.2,182.8,74.8z"/>
		<path class="st2" d="M108.6,133.7c-0.5-2.4-2.1-3.9-4.4-4.1c-2.9-0.2-3.9,2.4-4.5,3.8c-0.1,0.2-0.1,0.3-0.2,0.5
			c-1.1,2.7-2.2,5.4-3.3,8.1c-2.9,7.1-5.7,12.8-10.2,17.3c-0.3,0.3-0.5,0.5-0.7,0.6c-0.1-0.2-0.1-0.4-0.2-0.9
			c-0.9-4.5-1.3-9.2-1.3-14.4c0-3.3-0.2-6.7-0.4-9.7c-0.1-2.4-1.6-4-3.9-4.2c-2.1-0.2-3.3,1.1-3.5,3.8c-0.1,1.3-0.2,2.7-0.4,4
			c-0.2,1.4-0.3,2.9-0.4,4.4c-0.4,6,0.1,11.8,1.5,17.2c1.1,4.1,3.1,6.2,5.8,6.8c2.8,0.7,5.9-0.5,8.7-3.5c4.1-4.2,7.3-9.9,9.7-14.3
			c0.1,5.8-0.4,11.7-1.6,17.7c-0.7,3.4-1.9,7.7-4.7,11.2c-1.9,2.3-2.3,2.4-4.7,0.8c-2.3-1.5-4.9-1.5-6.7,0.1c-2.1,1.8-0.5,4,0.4,5.4
			c0.9,1.3,2.4,2.2,4.5,2.6c1.1,0.2,2.2,0.3,3.4,0.3c5.1-0.2,10.2-3,13-7.2c2-3,3.4-6.7,4.2-11.4c1.4-7.8,1.7-16.1,1-27.3
			C109.6,138.8,109.1,136,108.6,133.7z"/>
		<path class="st2" d="M243.2,110.7c-2.9-0.3-4.9,0.2-6.2,1.4c-1.1,1-1.5,2.6-1.2,4.6c0.1,0.9,0.1,1.9,0.1,2.9c0,0.5,0,0.9,0,1.4
			c-0.1,3.1,0.1,6.4,0.4,9.5c0.1,1.1,0.2,2.3,0.3,3.4c0.6,8.8,1.3,19.2,3.2,29.3c0.7,3.5,2.3,6.1,4.6,7.4c0.6,0.4,1.3,0.6,2,0.8
			c1.8,0.4,3.6,0,5.3-1.1c3.1-1.9,5.9-4.2,8.4-6c14.2-10.3,7.7-29.1,2.1-39.9C258.2,116.4,250.5,111.5,243.2,110.7z M257.7,150.8
			c-2.6,4.5-6.3,7.8-9.6,10.7c-0.8-6.7-1.2-13.1-1.7-19.3c0-0.1,0-0.2,0-0.3c-0.1-2-0.3-3.6-0.4-5.4c-0.2-2.5-0.4-5-0.6-7.6
			c-0.3-3.5-0.5-7.1-0.9-10.6c-0.1-1.1,0.1-1.3,0.1-1.4c0,0,0.3-0.2,1.1,0c0.1,0,0.2,0,0.3,0.1c3,0.8,5.5,2.7,8.2,6.4
			C260.7,132.1,262.1,143.1,257.7,150.8z"/>
		<path class="st2" d="M189.4,178.4c-3.5-0.3-6.9,0.6-9.5,1.5c-1.2,0.4-2.5,0.9-3.7,1.4c-2.8,1.1-5.7,2.2-8.5,2.9
			c-6.2,1.5-7.9,3.5-8,9.9c0,0.6,0,1.2,0,1.8c0,0,0,0.1,0,0.1c-0.1,0-0.1,0-0.2,0.1c0,0.3,0,0.4,0.1,0.7c0.1,1.8,0.3,3.6,0.4,5.3
			c0.3,3.9,0.6,8,1,12c1,10.3,2.2,22.5,3.6,34.9c0.5,4.5,2.4,6.6,5.8,6.6c0.3,0,0.6,0,0.9,0c3.7-0.4,4.3-2.8,4-7.6
			c-0.2-4.3-0.6-8.7-0.9-12.9c-0.2-2.8-0.4-5.5-0.6-8.3c0-0.2,0-0.5-0.1-0.7c-0.1-0.8-0.2-1.6,0.1-2.1c0.2-0.2,0.5-0.4,0.9-0.5
			c0.7-0.2,1.4-0.4,2.1-0.6c1.7-0.5,3.3-1,5-0.8c1.1,0.1,2.5,0.3,3.6-0.6c0.5-0.5,0.9-1.1,1-2c0.5-2.9-2-3.5-3.4-3.9
			c-0.1,0-0.1,0-0.2,0c-2.5-0.6-4.9,0.1-7.3,0.7c-0.1,0-0.2,0.1-0.3,0.1c-0.7,0.2-1.5,0.3-1.9,0.1c-0.2-0.2-0.4-0.6-0.5-1.2
			c-0.7-7.2-1.5-14.5-1.8-21.8c-0.1-1.7,0.4-2.3,2.3-3c4.5-1.6,9-3.4,13.4-5.1c1-0.4,1.6-0.6,2.6-1c1-0.4,3.1-0.9,3.1-3.3
			C192.4,178.9,190.5,178.5,189.4,178.4z"/>
	</g>
	<g>
		<path class="st3" d="M74.7,108.4c0.2,0,0.4,0,0.6,0.1c4.3,0.2,8.5-2.3,11.3-6.8c3.3-5.5,5.1-12.2,5.3-20.4c0.1-10-1.1-16.8-4-22.8
			c-2.2-4.7-5.9-7.6-10.1-8c-4.2-0.4-8.3,1.8-11.1,5.8c-8.3,12.4-8.6,29.9-2.7,43.4C66.3,104.5,70.3,107.9,74.7,108.4L74.7,108.4z
			 M69.9,77.4c0.3-6.2,1.3-10.9,3.2-15.1c0-0.1,0.1-0.1,0.1-0.2c0.4-0.9,0.8-1.7,1.3-2.4c0.7-1.1,1.4-1.6,2-1.6c0.6,0,1.3,0.5,2,1.6
			c0.8,1.2,1.5,2.5,1.9,3.7c1.8,5,2.7,9.7,2.5,13c-0.1,9.9-1.4,16.1-4.6,21.5c-1.3,2.1-2,2.4-2.3,2.4c-0.4,0-1.2-0.5-2.4-2.7
			C69.9,91,69.7,83.7,69.9,77.4z"/>
		<path class="st3" d="M237.6,95.2c0.3-0.6,0.3-1.2,0-1.9c-0.4-0.8-0.9-1.4-1.7-1.8c-1.4-0.6-2.9-0.2-4.1,0.2
			c-0.2,0.1-0.2,0.1-0.4,0.1c-3.1,0.9-6.5,1.3-10.3,1.2c-1.4-0.1-2-0.5-2.2-1.7c-0.5-3.5-0.9-6.7-1.4-9.7c-0.1-0.5,0-0.6,0.1-0.6
			c0,0,0.2-0.2,0.9-0.2c2.8-0.1,5.3-0.5,7.8-1.2c1-0.3,3.4-0.9,2.5-3.1c-0.7-1.9-3.1-1.7-4.1-1.6c-0.8,0.1-1.7,0.1-2.6,0.2
			c-1.3,0.1-2.7,0.2-4.1,0.4c-0.6,0.1-0.9,0-0.9,0c-0.1-0.1-0.2-0.3-0.2-0.9c-0.1-7.9,0.3-15,1.1-21.7c0.2-1.6,1-2.1,3-2.1
			c2.3,0,4.6-0.2,6.8-0.4c0.3,0,0.5,0,0.8-0.1c2.5-0.2,2.5-1.7,2.5-2c-0.1-1.3-1.6-1.7-2.2-1.9c-2.5-0.7-5.2-1-8.4-0.9
			c-0.2,0-0.4,0-0.6,0c-0.4,0-0.6,0-1,0c-8.1,0-10.4,1.7-11.3,8.2c-1.8,13.7-1.4,26.2,1,38c1,4.8,3.5,6.8,9,7.2
			c0.7,0.1,1.4,0.1,2.1,0.1c4.6,0.1,9.2-0.5,14.1-1.9c0.2-0.1,0.3-0.1,0.5-0.1C235.6,96.7,237.1,96.3,237.6,95.2z"/>
		<path class="st3" d="M149.6,164.2c0,0.1,0,0.2,0,0.4C149.6,164.4,149.6,164.3,149.6,164.2c-0.2,0.1-0.3,0.1-0.6,0.2
			c-1.1,0.3-1.2,0.2-1.3-1c-0.2-7.3-0.5-14.7-0.8-22.1c-0.1-3.2-0.2-4.8-0.3-8c0-0.1,0-0.2,0-0.4c0-0.6,0-1.2,0-1.8
			c0-1.7,0.1-3.5-0.1-5.2c-0.1-0.9,0-1.2,0-1.2c0.1,0,0.3-0.1,1-0.1c0.9,0,2.1,0,3.1-0.8c0.4-0.3,0.9-0.9,1.1-1.8
			c0.1-0.7,0-1.3-0.3-1.7c-0.6-0.8-1.9-0.8-2.8-0.8c-4.2,0.3-8.7,1.2-14.3,2.9c-2.6,0.8-3.8,2.1-3.7,3.8c0.2,2.6,2.8,2,4.1,1.7
			c0.5-0.1,0.8-0.2,1.1-0.4c0.8-0.4,1.1-0.4,1.2-0.4c0.1,0,0.2,0.4,0.2,1.4c-0.3,11.8,0.1,24,1.2,36.2c0.3,2.8,0,3.6-2.2,4.5
			c-0.8,0.3-1.6,0.9-2.1,1.7c-0.4,0.7-0.6,1.4-0.5,2.1c0.2,1.4,1.3,2,3.2,1.7c0.2,0,0.4-0.1,0.7-0.1c0.6-0.1,1.1-0.4,1.7-0.6
			c3.2-1.7,6.7-2.9,9.9-3.9c0.2-0.1,0.4-0.1,0.6-0.2c1.6-0.5,4.6-1.3,4.6-4.3c0-0.7-0.3-1.3-0.8-1.6
			C152.5,163.3,150.9,163.8,149.6,164.2z"/>
		<path class="st3" d="M72.2,231.5c-1.7-0.5-3.2,0-3.9,1.3c-0.6,1.1-1,2.2-1.3,3.2c-1,3-2.1,6.2-4.3,8.8c-0.1,0.1-0.2,0.2-0.3,0.4
			c-1.7,2-3.4,3.9-6.3,3.6c-3-0.3-4.4-2.4-5.8-5.6c-4.6-11-5.5-22.9-2.6-34c2-7.8,8-9.8,17.2-7.3c0.1,0,0.2,0.1,0.3,0.1
			c0.7,0.2,2.1,0.6,2.8-0.6c0.8-1.4-0.6-2.5-1.3-3.1c-2.3-1.8-5.2-3-8.6-3.7c0,0,0,0,0,0c-10-1.6-17.3,0.8-20.4,8.7
			c-2.9,7.3-2.5,15.9-1.8,22.3c0.8,7.3,2.4,13.5,4.9,18.9c2.3,4.9,6.9,8.5,12.3,9.8c1.4,0.4,2.8,0.5,4.2,0.5c2.8,0,5.4-0.7,7.6-2
			c7.3-4.4,8.7-10.8,9.7-18.4C74.8,233,73.8,231.9,72.2,231.5z"/>
		<path class="st3" d="M228.5,244.3c-1.4-0.7-3.1,0.2-4.5,0.9c-0.2,0.1-0.3,0.1-0.5,0.2c-3.8,1.9-7.9,2.8-12.3,2.8c0,0-0.1,0-0.1,0
			c-2,0-2.9-0.9-3.1-3.1c-0.5-5.1-1.1-10.1-1.7-15.1c-0.1-0.7,0-1.2,0.2-1.5c0.2-0.3,0.7-0.5,1.4-0.6c3.2-0.3,6.2-1,8.9-2.1
			c0.1,0,0.1,0,0.1-0.1c1.2-0.5,3.5-1.4,2.7-4.2c-0.7-2.4-3-2.1-4.2-1.9c-1,0.2-2.1,0.3-3.2,0.5c-1.6,0.2-3.2,0.5-4.7,0.8
			c-0.8,0.2-1.3,0.1-1.6-0.2c-0.3-0.3-0.4-0.9-0.5-1.9c-0.1-12.2,0.3-23.2,1.3-33.8c0.2-2.8,1.4-3.9,4.1-3.9c2.7,0,5.4-0.4,8-0.7
			c0.4,0,0.6-0.1,1-0.1c2.3-0.2,2.5-1.8,2.5-2.4c-0.1-1.5-1.5-2.1-2.2-2.3c-2.8-1.1-6-1.5-9.7-1.3c-0.3,0-0.4,0-0.7,0
			c-0.5,0-0.7,0-1.1,0c-9.3,0.3-11.8,3-12.8,12.7c-1.9,19.4-1.9,39,1.2,58.3c1.1,7.2,3.9,10.1,10.2,10.6c0.8,0.1,1.7,0.1,2.5,0.1
			c5.3,0,10.8-1.5,16.5-4.3c0.2-0.1,0.3-0.2,0.6-0.3c1.3-0.6,2.9-1.3,3.4-2.8c0.3-0.7,0.2-1.5-0.1-2.3
			C229.8,245.3,229.2,244.6,228.5,244.3z"/>
	</g>
	<g>
		<path class="st4" d="M130.5,104.5L130.5,104.5c3.6-1.3,3.9-4.6,4-6.7c0.6-7.8,1.1-15.4,1.2-23.1c0-1.8,0-3.6,0-5.4
			c0-3.7,0-7.6,0.1-11.4c0-1.1,0.1-2.1,0.2-3.2c0.1-2.2,0.3-4.4,0.1-6.7c-0.1-1.4-0.9-3.9-4.5-4c-1,0-3.5,0.3-3.8,4.2
			c-0.5,7.4-1,17.2-1.1,27c0,2.4-0.2,4.9-0.3,7.3c-0.7-1.8-1.3-3.5-1.9-5.3c-0.3-0.7-0.4-1.1-0.6-1.8c-0.4-1-0.7-2.1-1-3.2
			c-0.7-2.4-1.5-4.9-2.7-7.2c-1.4-2.6-3.6-3.7-6.3-3.1c-2.8,0.6-3.4,3.3-3.8,5.2c0,0.1,0,0.2-0.1,0.3c-0.8,4.2-1.7,8.3-2.6,12.6
			c-0.1,0.3-0.1,0.5-0.2,0.8c-0.5-3.2-0.8-4.8-1.3-8.1c-0.9-5.6-1.8-11.3-2.7-17.1c0-0.2,0-0.3-0.1-0.4c-0.3-2-0.7-4.4-2.7-5.9
			c-1.6-1.2-3.2-1.3-4.7-0.4C93.8,49.8,94,51.7,94,53c0,0.1,0,0.2,0,0.3c0.8,12.4,2.2,25,4.5,38.2c0.1,0.4,0.1,0.6,0.2,1
			c0.8,4.4,1.5,8.9,2.9,13.1c0.9,2.8,2.8,4.1,5.8,3.9c0.3,0,0.7-0.1,1-0.1c3.5-0.6,4-3.5,4.1-5.9c0-0.8,0.1-1.7,0.3-2.6
			c0.1-0.5,0.1-1,0.2-1.5c0.7-6.6,1.5-12.7,2.6-18.9c0.1,0.5,0.3,1,0.4,1.5c0.3,1,0.4,1.5,0.7,2.5c1.8,6,3.7,12,6.3,17.3
			C124.6,104.8,127.2,105.7,130.5,104.5z"/>
		<path class="st4" d="M235.9,57.9C235.9,57.9,235.9,57.9,235.9,57.9c0,0.5,0,0.9,0,1.3c-0.1,3,0.1,6,0.4,9c0.1,1.1,0.2,2.2,0.3,3.2
			c0.6,8.3,1.3,16.5,3.2,25c0.7,2.9,2.3,5.1,4.6,6.2c0.6,0.3,1.3,0.5,2,0.7c1.8,0.3,3.6,0,5.3-1c3.1-1.7,5.9-3.9,8.4-5.8
			c11.3-8.8,10.7-28.7,2.1-38.9c-5.4-6.3-11.7-9.4-19-9.1c-2.9,0.1-4.9,0.8-6.2,2.1c-1.1,1.1-1.5,2.6-1.2,4.5
			C236,56.1,236,57,235.9,57.9z M244.6,54.2c0,0,0.3-0.2,1.1-0.2c0.1,0,0.2,0,0.3,0c3,0.2,5.5,1.6,8.2,4.6
			c6.5,7.2,7.9,18.1,3.5,25.8c-2.6,4.5-6.3,7.7-9.6,10.3c-0.8-5.8-1.2-11.3-1.7-16.5c0-0.1,0-0.2,0-0.3c-0.1-1.7-0.3-3.4-0.4-5.1
			c-0.2-2.4-0.4-4.8-0.6-7.2c-0.3-3.3-0.5-6.7-0.9-10.1C244.4,54.6,244.6,54.3,244.6,54.2z"/>
		<path class="st4" d="M190.2,141.9c-1.7-0.2-3.1,0.8-3.8,2.4c-0.5,1.2-0.8,2.4-1.1,3.5c-0.8,3.1-1.7,6.5-3.6,9.4
			c-0.1,0.2-0.2,0.3-0.3,0.4c-1.4,2.3-2.7,4.3-4.9,4.6c-2.3,0.3-3.4-1.3-4.5-3.8c-3.9-9.1-4.6-19.2-2.1-30.1
			c1.7-7.4,6.5-11.5,14-11.7c0.1,0,0.2,0,0.3,0c0.6,0,2.1,0,2.9-1.6c0.8-1.8-0.6-2.6-1.3-3c-2-1.1-4.6-1.4-7.6-0.9
			c-8.7,1.8-15,7.5-17.7,15.9c-2.5,7.7-2.2,14.9-1.6,20.3c0.6,6.1,2,11.1,4.2,15.3c2,3.9,6,6.3,10.7,6.5c1.2,0.1,2.5,0,3.7-0.3
			c2.5-0.5,4.8-1.7,6.7-3.5c6.3-5.9,7.6-12.8,8.4-20.6C192.8,143.1,191.9,142,190.2,141.9z"/>
		<path class="st4" d="M100.6,197.2c-4.7-0.1-9.3,2-12.6,5.7c-10,11.4-9.4,29.2-3.1,39.3c2.6,4.3,7.1,6.8,12.1,7c0.2,0,0.5,0,0.7,0
			c4.9,0,9.8-2.3,12.8-6.3c3.9-5,5.9-11.4,6.1-19c0,0,0,0,0,0c0-9.3-1.3-15.3-4.7-20.4C109.5,199.7,105.4,197.3,100.6,197.2z
			 M107.4,220.4C107.4,220.4,107.4,220.4,107.4,220.4c-0.1,9.1-1.8,15-5.5,20c-1.3,1.6-2.3,2.4-3.2,2.4c0,0,0,0,0,0
			c-0.9,0-2-0.8-3.3-2.5c-4.5-5.7-4.8-12.4-4.5-18.3c0.3-5.7,1.5-10.2,3.8-14.2c0.1-0.1,0.1-0.1,0.1-0.2c0.5-0.8,1-1.7,1.6-2.4
			c1-1.2,1.9-1.8,2.8-1.8c0,0,0,0,0,0c0.9,0,1.8,0.5,2.7,1.5c1,1.1,1.8,2.3,2.3,3.4C106.5,212.9,107.6,217.3,107.4,220.4z"/>
		<path class="st4" d="M264.8,245.6c-1.4-0.7-3.1,0-4.5,0.6c-0.2,0.1-0.3,0.1-0.5,0.2c-3.8,1.6-7.9,2.4-12.3,2.3c0,0-0.1,0-0.1,0
			c-2,0-2.9-0.9-3.1-3c-0.5-4.8-1.1-9.7-1.7-14.5c-0.1-0.7,0-1.1,0.2-1.4c0.2-0.3,0.7-0.4,1.4-0.5c3.2,0,6.2-0.5,8.9-1.3
			c0.1,0,0.1,0,0.1,0c1.2-0.4,3.5-1,2.7-3.6c-0.7-2.3-3.1-2.3-4.2-2.2c-1,0-2.1,0.1-3.2,0.1c-1.6,0.1-3.2,0.1-4.7,0.3
			c-0.8,0.1-1.3,0-1.6-0.3c-0.3-0.3-0.4-0.9-0.5-1.9c-0.1-11.9,0.3-22.7,1.3-32.9c0.2-2.7,1.4-3.6,4.1-3.1c2.7,0.5,5.4,0.7,8,1.1
			c0.4,0,0.6,0.1,1,0.1c2.3,0.3,2.5-1.1,2.5-1.7c-0.1-1.5-1.5-2.4-2.2-2.8c-2.8-1.7-6-2.9-9.7-3.5c-0.3-0.1-0.4-0.1-0.7-0.1
			c-0.5-0.1-0.7-0.1-1.1-0.2c-9.3-1.7-11.8,0.7-12.8,10.5c-1.9,19.3-1.9,39,1.2,58.1c1.1,7,3.9,9.8,10.2,10.3
			c0.8,0.1,1.7,0.1,2.5,0.1c5.3,0,10.8-1.4,16.5-3.9c0.2-0.1,0.3-0.1,0.6-0.2c1.3-0.5,2.9-1.1,3.4-2.4c0.3-0.6,0.2-1.3-0.1-2.1
			C266.1,246.6,265.6,245.9,264.8,245.6z"/>
	</g>
</g>
</svg>
