<?xml version="1.0" encoding="utf-8"?>
<!-- Generator: Adobe Illustrator 25.2.0, SVG Export Plug-In . SVG Version: 6.00 Build 0)  -->
<svg version="1.1" id="Layer_1" xmlns="http://www.w3.org/2000/svg" xmlns:xlink="http://www.w3.org/1999/xlink" x="0px" y="0px"
	 width="300px" height="300px" viewBox="0 0 300 300" style="enable-background:new 0 0 300 300;" xml:space="preserve">
<style type="text/css">
	.st0{fill:#C9A33A;}
	.st1{fill:#D1D3D4;}
</style>
<g>
	<g>
		<path class="st0" d="M167.2,156.7c-0.3,1.6-0.6,3.6-1.1,5.5c-0.5,1.9-1.1,3.7-1.6,5.5c-1,3.3-2.9,5.8-5.8,7.7
			c-4.3,2.8-9,4.7-14.2,4.8c-2.4,0-4.8-0.2-7-1.2c-4.5-2.1-8.7-4.7-11.4-9.1c-1.8-3-3-6.2-3.7-9.5c-0.5-2.1-0.8-4.3-0.4-6.5
			c0.2-0.9,0.5-1.7,0.8-2.5c1.3-3,2.2-6.2,4.5-8.7c3.6-4,8-6.4,13.3-7.2c3.2-0.5,6.4-0.8,9.6,0c8.2,2,14.8,7.5,16.4,16.7
			C166.8,153.5,167,154.9,167.2,156.7z M161.9,162.4c0-0.2,0-0.5,0-0.7c-0.2-1.6-1.2-2.2-2.5-1.6c-1.5,0.7-1.9,3.8-0.6,4.9
			c0.3,0.2,0.8,0.3,1.1,0.2C161.2,164.9,162,163.8,161.9,162.4z M159,155.2c0.2,0.5,0.3,1.1,0.5,1.6c0.6,1.4,2,1.6,3,0.5
			c0.7-0.8,0.9-2.4,0.3-3.3c-0.7-1.1-1.4-1.4-2.3-1.1C159.7,153.4,159.1,154.3,159,155.2z M158.2,144c0-1.1-1.6-2.6-2.7-2.6
			c-1.1,0.1-2,1-2,2.2c0,1.1,1.3,2.2,2.4,2.2C157.1,145.8,158.2,144.9,158.2,144z M159.8,146.3c-1,0-1.7,0.9-1.8,1.9
			c-0.1,1.2,0.7,1.8,1.3,2.6c0.5,0.6,1.2,0.9,1.9,0.5c0.8-0.5,1.2-1.3,0.8-2.1c-0.4-0.8-0.9-1.6-1.5-2.3
			C160.3,146.5,159.9,146.4,159.8,146.3z M125.2,160.2c0,1.5,1,2.3,1.8,3.2c0.5,0.5,1.2,0.4,1.8-0.2c0.8-0.9,0.7-2.9-0.5-3.9
			c-0.6-0.5-1.4-0.8-2.1-0.7C125.8,158.6,125.5,159.6,125.2,160.2z M149.3,137.7c-0.6,0-0.9,0-1.2,0.1c-0.7,0.1-1.3,0.3-1.5,1.1
			c-0.2,0.9,0.4,1.3,1,1.6c0.7,0.3,1.4,0.6,2.2,0.8c0.6,0.2,1.9-0.6,2.1-1.3c0.2-0.9-0.1-1.7-1-2
			C150.3,137.9,149.7,137.8,149.3,137.7z M127.4,147.6c0.3,0.5,0.5,1.2,0.9,1.4c0.4,0.2,1.1,0,1.5-0.3c1.2-0.7,1.7-1.8,1.8-3.2
			c0.1-1.2-1-1.9-2-1.3C128.5,144.9,127.6,145.9,127.4,147.6z M154.3,171.7c-1.2,0-3.1,1.2-3.5,2.2c-0.4,0.9,0.5,2.2,1.4,2
			c1.3-0.2,2.4-0.8,3.1-2C156.1,172.9,155.4,171.7,154.3,171.7z M154.3,147.9c-0.5,0-0.8,0-1.1,0.1c-1.4,0.3-1.8,1.3-0.9,2.4
			c0.4,0.5,0.9,1,1.5,1.3c1.1,0.7,2.2,0.2,2.5-1C156.7,149.2,155.6,147.6,154.3,147.9z M128.7,151.9c-0.3-0.4-0.6-1-1-1.1
			c-0.5-0.1-1.3,0-1.7,0.4c-1.3,1.2-1.1,3.4,0.2,4.6c0.6,0.5,1.4,0.5,1.6-0.3C128.1,154.4,128.3,153.2,128.7,151.9z M155.5,154.9
			c-0.9,0-1.8,0.8-1.8,1.8c0,1.1,0.5,2.1,1.3,2.8c0.3,0.2,1.1,0.2,1.3,0c0.5-0.5,1-1.2,1.2-1.9C157.9,156.8,156.4,154.9,155.5,154.9
			z M152.9,153.8c-0.2-0.5-0.3-1-0.7-1.4c-0.7-0.8-2.1-0.9-2.8-0.4c-0.6,0.4-0.8,1.4-0.4,2.5c0.1,0.2,0.1,0.4,0.2,0.6
			c0.8,1.6,2.1,1.7,3.1,0.2C152.6,154.9,152.7,154.4,152.9,153.8z M143.8,138.4c0-0.9-0.2-1.1-0.9-1.3c-1.1-0.3-2.1-0.1-3.1,0.4
			c-0.9,0.5-1.3,1.7-0.8,2.4c0.7,0.9,1.6,0.6,2.4,0.4c0.9-0.3,2.1-0.3,2.4-1.6C143.8,138.6,143.8,138.5,143.8,138.4z M152.2,164.6
			c0,1.4,0.6,2.3,1.7,2.3c1,0,2.2-1.5,2.2-2.6c0-1-0.8-1.9-1.8-1.8C153.1,162.5,152.2,163.3,152.2,164.6z M141.5,150.7
			c0.3-0.2,0.9-0.5,1.2-0.9c0.4-0.6,0.4-1.2-0.1-1.9c-0.7-1-3-1.1-3.8-0.2c-0.9,1-0.6,2.1,0.6,2.5
			C140,150.4,140.6,150.5,141.5,150.7z M149.5,148.9c0-0.7-0.2-1.4-1-1.8c-0.9-0.4-1.9-0.3-2.6,0.3c-0.3,0.3-0.5,1.1-0.3,1.5
			c0.3,0.6,0.9,1.2,1.5,1.6C148.5,151.5,149.5,150.9,149.5,148.9z M159.6,168.6c0-1.2-0.5-1.8-1.4-1.7c-1.1,0.1-2.3,1-2.6,2.1
			c-0.2,0.8,0.2,1.7,1,1.9C158,171.3,159.6,170.1,159.6,168.6z M152.4,144.6c0-0.9-0.4-1.7-1.1-1.9c-0.8-0.2-1.7,0-2.6,0.1
			c-0.1,0-0.2,0.4-0.3,0.6c-0.3,1.4,0.3,2.2,2,2.9c0.9,0.4,1.5,0.1,1.9-0.6C152.5,145.4,152.4,145,152.4,144.6z M146.8,164.2
			c-0.3,0-0.4,0-0.6,0c-0.9,0.1-1.6,0.4-2,1.3c-0.3,0.9,0.2,1.4,0.8,2c0.8,0.7,1.5,0.5,2.2,0c0.3-0.2,0.6-0.3,0.9-0.5
			c0.7-0.5,0.8-1.1,0.3-1.8C148,164.6,147.5,164.1,146.8,164.2z M138,172.3c0.2,0,0.5,0,0.7-0.1c0.4-0.3,1-0.7,1-1
			c0-0.4-0.4-0.9-0.8-1.2c-0.6-0.5-1.3-0.8-2-1.1c-0.6-0.3-1.1-0.2-1.6,0.2c-0.5,0.5-0.5,1-0.2,1.6
			C135.8,171.8,136.7,172.3,138,172.3z M132.4,142.5c0,1,0.9,1.8,1.8,1.3c0.8-0.4,1.6-1.1,2.2-1.8c0.5-0.5,0.1-1.7-0.5-1.9
			C134.3,139.5,132.5,140.8,132.4,142.5z M137,154.6c1,0,1.5-0.7,1.6-2.3c0.1-1-0.7-1.6-2.2-1.6c-0.7,0-1.6,1-1.7,1.9
			C134.6,153.7,135.6,154.5,137,154.6z M146.3,143c0-1.1-0.7-2.4-1.3-2.3c-1,0-2.2,1.1-2.2,2c0,1.4,0.6,2.3,1.6,2.3
			C145.5,145,146.2,144.2,146.3,143z M135.9,160.2c1.1,0.1,2-0.6,2.1-1.4c0.1-1-1-2.1-2-2.2c-1.1-0.1-2,0.9-2.1,2.1
			C133.8,159.5,134.7,160.1,135.9,160.2z M132.3,157.3c-0.2-0.5-0.6-1.4-1.1-2.2c-0.1-0.2-0.9-0.4-1-0.2c-0.5,0.5-1.3,1.2-1.3,1.8
			c0,0.9,0.1,2,1.2,2.5C131.2,159.6,132.3,158.9,132.3,157.3z M148.2,161c0,1.2,0.5,2,1.4,2c1.2,0,2.4-0.9,2.4-1.8c0-0.9-1.1-2-2-2
			C149.1,159.2,148.2,160,148.2,161z M139.4,145.7c1.1,0,2.2-0.9,2.2-1.8c0-0.7-1.4-1.9-2.2-1.9c-0.9,0-1.9,1.1-1.9,2
			C137.5,145,138.3,145.7,139.4,145.7z M137.3,173.1c-0.6,0.4-1.3,0.7-1.9,1.1c-0.2,0.1-0.2,0.8,0,1c0.7,0.6,1.4,1.2,2.2,1.5
			c0.4,0.2,1.2-0.1,1.6-0.5c0.3-0.3,0.4-1,0.3-1.4C139.3,174,138.2,173.3,137.3,173.1z M150.1,171.4c1.1,0,2.5-1.3,2.4-2.2
			c0-0.8-0.9-1.5-1.9-1.5c-0.9,0-2.1,1.2-2.1,2.1C148.4,170.6,149.2,171.4,150.1,171.4z M133.5,171.9c0.1-1.1-0.8-1.6-1.5-2.2
			c-0.3-0.3-1-0.6-1.3-0.4c-0.7,0.4-1.3,1-0.9,1.9c0.4,0.8,1,1.6,1.8,2.1C132.6,173.8,133.5,173.1,133.5,171.9z M144.1,173.2
			c0.9,0,2.1-1.1,2.1-1.9c0-1.1-0.9-1.8-2.5-1.8c-0.7,0-1.4,1-1.4,2C142.4,172.3,143.3,173.2,144.1,173.2z M132.2,149.3
			c-0.9,0-2.3,1.1-2.5,1.8c-0.1,0.6,0.8,2.1,1.4,2.3c0.2,0.1,0.5,0.1,0.8,0c1.2-0.5,1.8-2.6,1-3.6
			C132.6,149.5,132.3,149.4,132.2,149.3z M141.4,175.8c0.8,1.1,1.9,1.7,3.3,1.5c1-0.1,1.8-0.9,1.4-1.6c-0.3-0.5-0.9-1-1.4-1.2
			c-0.7-0.2-1.5-0.6-2.3,0.1C142.1,174.9,141.8,175.3,141.4,175.8z M137,162.3c-1.6,0.1-2,0.8-1.4,2.2c0.2,0.3,0.4,0.6,0.6,0.9
			c0.7,0.7,2,0.7,2.7,0c0.6-0.7,0.5-1.6-0.5-2.3C138,162.7,137.5,162.5,137,162.3z M142.3,161.2c0-0.9-1-2-1.7-2
			c-1,0-1.9,1.1-1.9,2.2c0,0.8,1,1.7,1.9,1.7C141.4,163.1,142.3,162,142.3,161.2z M142.6,155.2c0-1-1-2.2-1.7-2.2
			c-0.8,0-2.1,1.2-2.2,2c0,0.9,1.1,1.6,2.4,1.6C141.9,156.5,142.6,155.9,142.6,155.2z M127.2,166.3c0,0.8,0.6,1.7,1.4,2.4
			c0.7,0.6,1.6,0.2,1.9-0.6c0.3-1.1-0.9-3-2-3.2C127.6,164.7,127.2,165.1,127.2,166.3z M136.3,146.5c0-1-1-1.7-2.6-1.7
			c-1.2,0-0.7,1-0.8,1.5c-0.2,1,0.7,2.2,1.4,2.2C134.9,148.4,136.3,147.2,136.3,146.5z M148.7,157.6c0-0.9-0.9-1.8-1.8-1.8
			c-0.8,0-1.5,0.8-1.5,1.7c0,1.1,0.8,2.1,1.5,2.1C147.7,159.6,148.7,158.5,148.7,157.6z M134.9,167.1c0-0.9-1.6-2.5-2.5-2.5
			c-0.7,0-1.6,0.9-1.3,1.4c0.5,0.7,1,1.4,1.7,1.9C133.7,168.6,134.9,168,134.9,167.1z M139.3,167.6c0,0.9,0.4,1.4,1.2,1.4
			c1.3,0,2.3-0.7,2.3-1.5c0-1-0.9-1.9-1.9-1.9C140.2,165.6,139.3,166.7,139.3,167.6z M144.4,163.3c0.8,0,1.9-0.8,2-1.5
			c0.1-0.8-1-1.9-1.7-1.9c-1,0-1.6,0.5-1.7,1.3C143,162.3,143.7,163.3,144.4,163.3z M147,153.5c-0.2-0.5-0.2-0.8-0.3-1
			c-0.2-0.8-0.7-1.2-1.5-1.1c-0.5,0.1-1.2,0.2-1.5,0.5c-0.4,0.6,0.1,1.3,0.5,1.8c0.1,0.1,0.2,0.2,0.3,0.4c0.4,0.5,0.8,1.1,1.4,0.7
			C146.4,154.5,146.7,153.8,147,153.5z M148.1,173.7c-0.7,0-1.3,0.5-1.3,1.3c0,0.8,1.3,2.3,2,2.3c0.6,0,1.1-0.6,1.1-1.4
			C149.9,175,148.8,173.7,148.1,173.7z M131.5,163.1c1.2,0,1.8-0.4,1.8-1.3c0-0.8-0.6-1.4-1.5-1.4c-1.1,0-1.4,0.3-1.4,1.6
			C130.4,162.8,130.7,163.2,131.5,163.1z M141.9,157.8c0.1,0.7,0.3,1.3,1.1,1.3c0.8,0,1.6-0.7,1.6-1.5c0-0.7-0.4-1-1-1.1
			C142.7,156.4,141.9,157,141.9,157.8z"/>
		<g>
			<path class="st1" d="M157,135.1c0.6-1.8,1.2-3.6,1.8-5.3c0.2-0.6,0.4-1.2,0.5-1.8c0-0.3-0.3-0.7-0.4-1c-0.3,0.2-0.7,0.3-0.9,0.6
				c-0.3,0.4-0.5,1-0.6,1.5c-0.6,1.7-1.1,3.5-1.7,5.3c-0.9-0.1-1.3-0.4-1.4-1.5c-0.2-3,0.6-5.9,1.7-8.6c1.9-4.5,4-8.9,5.9-13.3
				c0.1-0.3,0-0.7,0-1.1c-0.4,0-0.8,0-1.2,0.1c-0.2,0.1-0.4,0.4-0.5,0.6c-2.8,5.7-5.6,11.5-7.2,17.7c-0.4,1.6-0.2,3.4-0.3,5.2
				c-1-0.1-2.2-0.2-3.3-0.4c-0.2,0-0.5-0.5-0.6-0.9c-0.4-3.4-0.5-6.8-0.2-10.3c0.5-6.2,1.7-12.2,3.8-18.1c2.2-6.2,5.1-12.1,9.1-17.4
				c2.1-2.8,3.9-4.5,5.9-5.4c-0.1,0.3-0.2,0.5-0.3,0.8c-1.2,2.8-2.5,5.5-3.7,8.3c-0.2,0.4-0.4,0.8-0.3,1.3c0,0.4,0.2,1.1,0.5,1.2
				c0.6,0.3,0.8-0.4,1-0.8c0.8-2.1,1.6-4.2,2.5-6.2c0.7-1.5,1.5-2.9,2.2-4.3c0.5-0.9,1-1.1,1.9-0.5c0.7,0.5,1.3,1.2,1.8,1.8
				c0.1,0.1-0.1,0.7-0.3,0.9c-1.4,2.2-2.8,4.3-4.1,6.4c-0.5,0.8-0.7,1.8-1,2.7c-0.1,0.5,0,1.1,0.6,1.1c0.3,0,0.7-0.5,0.8-0.9
				c1-2.8,2.7-5.1,4.4-7.5c0.3-0.5,0.7-0.9,1-1.4c1,0.3,1.6,1,1.6,2c0.1,1.8,0.3,3.6,0.2,5.3c-0.2,3.3-0.5,6.6-0.9,9.8
				c-1,8.2-4.3,15.6-8.4,22.6c-2.1,3.6-4.1,7.3-6.1,11c-0.9,1.7-1.3,1.9-3,1C157.7,135.5,157.4,135.3,157,135.1z"/>
			<path class="st1" d="M220.6,138.2c-0.6,1.8-1.7,3.3-3.1,4.4c-3.4,2.5-6.8,5.1-10.4,7.4c-3.9,2.5-8.4,3.9-13,4.3
				c-5.7,0.5-11.5,0.8-17.3,1c-2.3,0.1-4.6-0.2-6.9-0.3c-0.9,0-1.4-0.3-1.4-1.4c0.1-0.9-0.1-1.7-0.2-2.7c2.9,0.9,5.8,1,8.6,0.9
				c4.1-0.1,8-1.1,11.9-2.2c2.4-0.7,4.8-1.4,7.2-2.1c0.6-0.2,1.6-0.4,1.3-1.2c-0.3-0.9-1.2-0.5-1.8-0.3c-4.2,1.1-8.5,2.3-12.7,3.4
				c-4.2,1-8.4,1.1-12.6,0.4c-0.1,0-0.3-0.1-0.4-0.3c4.6-1.3,9.3-2.5,13.9-3.8c0.7-0.2,1.4-0.4,2-0.6c0.5-0.2,1.2-0.4,1-1.1
				c-0.2-0.8-1-0.6-1.5-0.4c-1.8,0.4-3.5,0.9-5.2,1.4c-4,1.2-8.1,2.3-12.2,3.5c-0.4-1-0.9-2.1-1.3-3.3c-0.1-0.2,0.1-0.7,0.4-0.9
				c1.8-1.7,3.9-3,6.2-3.8c5.2-1.9,10.4-3.6,15.5-5.5c4.7-1.8,9.6-2.7,14.6-2.9c2.3-0.1,4.6-0.4,6.9-0.5c2.5-0.1,4.9,0.3,7.3,1.4
				c-0.5,0.2-0.8,0.3-1.1,0.4c-4,1.2-8,2.3-12,3.5c-0.6,0.2-1.6,0.2-1.3,1.2c0.3,1,1.2,0.5,1.8,0.3c4.6-1.3,9.2-2.7,13.8-4.1
				c0.6-0.2,1-0.1,1.4,0.4c0.3,0.4,0.6,0.9,0.9,1.4c-0.3,0.2-0.6,0.4-0.8,0.5c-3.6,1.8-7.2,3.7-11.2,4.7c-0.6,0.2-1.3,0.2-1.9,0.4
				c-0.3,0.1-0.5,0.5-0.8,0.8c0.3,0.2,0.6,0.6,0.9,0.6c1.2-0.1,2.4-0.1,3.4-0.6c3.1-1.2,6-2.5,9.1-3.8
				C219.9,138.5,220.2,138.4,220.6,138.2z"/>
			<path class="st1" d="M171.6,230.4c-0.5-0.2-1.1-0.3-1.6-0.6c-3.9-2.7-7.4-5.7-9.8-9.9c-2.2-3.9-4.2-7.9-5.6-12.2
				c-1.3-4.3-2.2-8.7-3.4-13.1c-1-3.9-2.1-7.9-3.1-11.8c-0.1-0.3-0.1-0.6-0.3-1c0.8-0.2,1.6-0.4,2.3-0.6c1.7,4.2,3.3,8.2,5,12.2
				c0.2,0.5,0.5,1,0.8,1.4c0.2,0.2,0.7,0.3,1,0.4c0.1-0.4,0.3-0.8,0.2-1.1c-0.4-1.2-0.9-2.3-1.4-3.4c-1.4-3.2-2.7-6.4-4.1-9.6
				c1-0.6,1.1-0.6,1.7,0.4c3,4.7,6,9.5,8.3,14.6c0.3,0.6,0.6,1.3,1.1,1.8c0.2,0.2,0.6,0.2,0.9,0.3c0.1-0.3,0.3-0.6,0.3-0.9
				c0-0.3-0.1-0.7-0.3-1c-2.3-5.3-5.1-10.3-8.4-15c-0.3-0.4-0.7-0.8-1.1-1.3c1-0.4,1.9-1,2.9-1.2c1-0.2,2,0.3,2.6,1.1
				c0.9,1.1,1.8,2.2,2.3,3.5c3.4,8.6,7.9,16.7,12.7,24.7c2.4,3.9,3.3,8.1,3.1,12.6c-0.1,1.4,0.2,2.8,0.1,4.1c-0.1,2.5-1.6,4-4.2,4.1
				c-0.3,0-0.7-0.3-0.8-0.6c-1.5-3.2-3-6.4-4.5-9.7c-1.3-2.8-2.5-5.6-3.7-8.5c-0.3-0.6-0.6-1.2-1-1.6c-0.2-0.2-0.6-0.3-0.9-0.2
				c-0.2,0-0.3,0.5-0.3,0.7c0,0.4,0.2,0.8,0.3,1.1c2.8,6.3,5.7,12.6,8.5,18.9c0.2,0.4,0.4,0.8,0.5,1.3
				C171.7,230.2,171.7,230.3,171.6,230.4z"/>
			<path class="st1" d="M69.9,152.9c3.1-0.1,5.8-0.2,8.5-0.3c1.6,0,3.2,0,4.7,0c0.3,0,0.6,0.1,0.9-0.1c0.3-0.2,0.6-0.5,0.9-0.7
				c-0.3-0.2-0.6-0.7-0.9-0.7c-1.4-0.1-2.8-0.2-4.2-0.1c-2.9,0.1-5.8,0.2-8.7,0.3c-0.4,0-0.7,0-1.1,0.1c-0.8,0.2-1.4,0.4-2-0.4
				c-0.7-0.9-1.2-1.9-0.6-3c0.3-0.6,0.7-1.1,1.2-1.5c2.3-2.1,5.2-2.8,8.2-3.3c3.6-0.6,7.1-0.8,10.7-0.6c3.2,0.1,6.4,0.1,9.7,0.4
				c3.6,0.3,6.9,1.5,10.3,2.6c2.7,0.9,5.4,1.7,8,2.5c0.3,0.1,0.6,0.2,1,0.3c2.4,1.1,3.3,1.2,2.4,4.1c-1.7-0.4-3.5-1-5.2-1.3
				c-5-0.8-10.1-1.6-15.1-2.3c-1.9-0.3-3.9-0.3-5.8-0.4c-0.5,0-1,0-1.5,0.2c-0.3,0.1-0.6,0.5-0.8,0.8c0.3,0.2,0.7,0.5,1,0.6
				c1.7,0.1,3.4,0.1,5,0.3c7.1,0.8,14.2,1.9,21.3,3.4c0.8,0.2,1.2,0.5,1,1.3c-0.1,0.5,0,1,0,1.4c-3.8-0.5-7.7-1-11.5-1.4
				c-3-0.3-6-0.6-9-0.8c-0.3,0-0.5,0-0.8,0.1c-0.5,0.1-1.1,0.1-1.1,0.8c0,0.7,0.6,0.7,1.1,0.7c1.5,0.1,3,0.2,4.5,0.4
				c5.3,0.6,10.5,1.2,15.8,1.8c0.8,0.1,1.3,0.3,1.2,1.3c0,0.4,0.1,0.8,0.2,1.3c-0.6,0.1-1.2,0.2-1.7,0.3c-7.1,0.2-14.2,0.5-21.3,0.5
				c-4.7,0-9.4,0.1-14-0.8c-4.1-0.7-7.9-2.1-10.8-5.4C71,154.6,70.5,153.9,69.9,152.9z"/>
			<path class="st1" d="M219.5,177c-5.5-1-10.9-2-16.3-3c-0.6-0.1-1.3-0.1-1.9-0.1c-0.2,0-0.6,0.3-0.6,0.4c0,0.2,0.1,0.6,0.3,0.7
				c0.4,0.2,0.9,0.4,1.3,0.5c5.4,1,10.7,1.9,16.1,2.9c0.2,0,0.5,0.1,0.7,0.2c0.3,1.1,0.1,2-0.6,2.8c-0.7,0.7-1.4,1-2.4,0.8
				c-4.2-1.1-8.5-2.1-12.7-3.1c-1.6-0.4-3.1-0.9-4.6-1.3c-0.5-0.1-1.1-0.3-1.3,0.3c-0.1,0.3,0.3,0.9,0.7,1c0.9,0.4,1.9,0.8,2.9,1
				c3.8,1,7.5,1.9,11.3,2.9c0.3,0.1,0.5,0.1,0.8,0.4c-0.9,0.1-1.8,0.2-2.7,0.2c-5.4,0.2-10.8-0.5-16.1-1.4
				c-4.7-0.8-9.3-1.6-13.8-3.3c-4.3-1.6-8.4-3.5-12.1-6.3c-0.7-0.6-1.3-1.2-2-1.9c-0.5-0.5-0.6-1-0.1-1.8c2,0.3,4,0.5,6.1,0.8
				c2.6,0.4,5.1,1,7.7,1.5c0.2,0,0.5,0.2,0.7,0.1c0.3-0.1,0.7-0.2,0.7-0.4c0-0.3-0.1-0.7-0.3-0.8c-0.8-0.4-1.7-0.8-2.6-1
				c-3.9-0.9-7.8-1.6-11.9-1.7c0.2-0.9,0.5-1.8,0.7-2.7c0.1-0.6,0.5-0.8,1-0.8c4.9,0,9.8-0.2,14.7,0c7.7,0.3,15.2,1.8,22.7,3.9
				c4.3,1.2,8.4,3,12.1,5.6C219.7,174.6,219.9,175.3,219.5,177z"/>
			<path class="st1" d="M95,95.4c0.2,0.3,0.4,0.6,0.6,0.9c3.5,5.4,7.1,10.8,11.4,15.6c0.3,0.3,0.6,0.7,0.9,0.9
				c0.3,0.2,0.8,0.2,1.1,0.3c0-0.4,0.1-1-0.1-1.3c-0.9-1.2-1.9-2.3-2.8-3.5c-3.3-4.7-6.6-9.3-9.8-14c-0.1-0.2-0.2-0.4-0.5-0.9
				c1.1-0.1,2.1-0.2,3-0.2c0.2,0,0.5,0.4,0.7,0.7c2.2,3.5,4.5,7,6.7,10.5c0.2,0.4,0.5,0.7,0.9,1c0.2,0.2,0.7,0.3,0.8,0.1
				c0.2-0.2,0.4-0.6,0.3-0.8c-0.2-0.6-0.5-1.1-0.8-1.6c-2-3.2-4-6.4-6-9.5c-0.1-0.2-0.2-0.3-0.4-0.7c0.7,0.1,1.3,0.1,1.8,0.2
				c4.6,1.3,8.7,3.7,12.2,7c0.8,0.7,1.5,1.6,2.2,2.3c2.6,2.5,3.6,5.8,4.5,9.2c1.3,4.9,2.7,9.7,4.4,14.4c0.9,2.6,2.5,5,3.8,7.4
				c0.3,0.6,0.7,1.2,1,1.8c0.5,1.1,0.3,1.7-0.8,2.4c-1.7-1.1-2.8-2.7-4-4.3c-2.9-3.8-5.4-7.8-7.4-12.1c-0.3-0.5-0.5-1.1-0.9-1.6
				c-0.2-0.2-0.7-0.3-1-0.4c-0.1,0.3-0.3,0.7-0.2,1c0.1,0.6,0.4,1.2,0.7,1.8c2.4,5,5.3,9.6,8.9,13.9c0.8,0.9,1.8,1.7,3,2.8
				c-0.3,0.2-0.7,0.5-1.1,0.7c-0.4,0.3-0.7,0.6-1.2,1.1c-1.7-1.3-3.6-2.4-5.1-3.9c-2.7-2.6-5.2-5.3-7.6-8.2
				c-3.9-4.6-7.7-9.2-11.4-14c-2.6-3.5-4.7-7.3-6.5-11.3c-1-2.2-1.7-4.5-1.3-7c0-0.1,0-0.3,0.1-0.4C94.8,95.5,94.9,95.5,95,95.4z"/>
			<path class="st1" d="M138.8,132.8c-0.1-1.8-0.3-3.4-0.4-5c-0.1-1.6,0-3.3,0-4.9c0-0.3,0.1-0.7,0-1c-0.1-0.3-0.4-0.6-0.6-0.8
				c-0.3,0.3-0.7,0.5-0.7,0.8c-0.2,1.1-0.3,2.1-0.3,3.2c0.1,2.5,0.3,4.9,0.5,7.6c-0.6-1.5-1.3-2.8-1.6-4.2
				c-1.2-4.7-2.3-9.4-3.5-14.1c-0.1-0.3-0.1-0.6-0.2-0.9c-0.2-0.3-0.5-0.5-0.8-0.8c-0.2,0.3-0.6,0.6-0.6,0.9
				c0.1,1.1,0.1,2.3,0.4,3.4c1.2,4.5,2.3,8.9,3.6,13.4c0.4,1.2,1.1,2.3,1.7,3.5c-0.6,0.3-1.3,0.7-2,1c-0.8,0.3-1.6,0.3-2.1-0.6
				c-1.1-1.9-2.5-3.8-3.3-5.9c-2.2-6-4.2-12-6.1-18.1c-1.8-6-2.8-12.1-3.4-18.3c-0.1-1.5,0-3.1,0.2-4.6c0.1-1,0.7-1.7,1.6-2.2
				c0.7-0.4,1.2-0.4,1.5,0.5c1.5,3.7,3,7.4,4.5,11.1c0.6,1.4,1,2.8,1.5,4.2c0.2,0.5,0.3,1.2,1,1c0.8-0.2,0.6-0.9,0.5-1.4
				c-0.5-1.7-1-3.3-1.7-4.9c-1.4-3.5-2.8-6.9-4.2-10.4c0.1,0,0.2,0,0.3-0.1c3.2-1.1,4.4-0.2,6.1,2.4c1.7,2.7,3.2,5.5,4.7,8.3
				c2.3,4.2,4.1,8.6,4.9,13.3c0.6,3.4,0.7,6.8,1,10.2c0.3,3.6,0.4,7.3,0.6,11c0.1,1.1-0.1,1.4-1.2,1.8
				C140.3,132.4,139.6,132.5,138.8,132.8z"/>
			<path class="st1" d="M86.4,208.1c1-0.5,1.9-0.8,2.7-1.3c1.5-0.9,3.1-1.8,4.5-2.8c0.5-0.4,1.4-0.9,0.8-1.7
				c-0.5-0.6-1.1,0.1-1.7,0.4c-2.4,1.3-4.8,2.5-7.2,3.8c-0.8,0.4-1.2,0-1.5-0.6c-0.5-1-0.5-1.5,0.3-2c4.5-2.6,8.8-5.5,12.8-8.7
				c0.7-0.5,1.3-1.2,1.8-1.9c0.2-0.3,0.4-1.2,0.1-1.4c-0.4-0.5-0.9,0-1.3,0.4c-4,3.8-8.7,6.6-13.2,9.6c-0.1-4.3,1.1-8.1,4.6-10.8
				c1.9-1.5,3.7-3.1,5.6-4.4c7.8-5.3,15.9-10.1,24.3-14.4c1.1-0.6,2.2-1.2,3.4-1.8c0.9-0.5,1.7-0.4,2.4,0.4c0.8,0.9,1.6,1.8,2.4,2.8
				c-5.2,1.9-10,4.5-14.7,7.2c-1,0.6-2,1.3-2.9,2c-0.3,0.2-0.3,0.8-0.4,1.2c0.4,0,0.9,0.1,1.2-0.1c4.3-2.3,8.6-4.7,12.9-7
				c1.5-0.8,3.1-1.5,4.6-2.2c1.3,1.7,1.3,2.2-0.3,3.3c-6.7,4.7-12.2,10.6-17.1,17.1c-0.9,1.3-1.8,2.6-2.5,4
				c-0.4,0.8-0.9,1.2-1.7,1.6c-4.7,2.3-9.3,4.6-14,6.8C90.6,208.6,88.6,209,86.4,208.1z"/>
			<path class="st1" d="M162,175.9c2,3.7,4,7.3,6,10.9c0.3,0.6,0.6,1.2,1,1.7c0.2,0.3,0.7,0.3,1,0.4c0.1-0.3,0.3-0.7,0.2-1
				c-0.1-0.5-0.3-1.1-0.6-1.6c-1.8-4-4-7.8-6.7-11.3c0.2-0.2,0.5-0.4,0.7-0.6c1.5-1.3,2.2-1.3,3.7,0.1c1.1,1,2.1,2.2,3.1,3.3
				c4.7,5.5,9.6,10.9,14.1,16.6c3.2,4.1,5.9,8.5,8.6,12.9c1.8,3,1.9,6.4,1.6,9.8c-0.1,1.6-1.4,2.5-3.4,2.8c-0.6-1.6-1.1-3.3-1.8-4.8
				c-1.5-3.4-3-6.8-4.5-10.2c-0.3-0.8-0.9-1.5-1.4-2.1c-0.3-0.3-0.8-0.3-1.3-0.4c0,0.4-0.1,0.9,0.1,1.3c2.8,4.7,4.7,9.7,6.6,14.8
				c0.3,0.7,0.5,1.5,0.8,2.2c0.3,0.7,0,1-0.6,0.9c-0.7,0-1.4-0.1-2-0.4c-3-1.3-5.6-3.1-7.5-5.9c-0.7-0.9-1.2-2-1.5-3.1
				c-1.2-4.1-3-7.9-5.7-11.2c-3.6-4.5-6.1-9.6-8-15c-0.9-2.4-2-4.6-3.4-6.7C159.7,177.5,159.9,177.1,162,175.9z"/>
			<path class="st1" d="M195.7,92.6c-1.4,2.1-2.8,4.1-4.1,6.2c-0.3,0.4-0.6,0.9-0.8,1.4c-0.3,0.5-0.3,1.2,0.3,1.4
				c0.3,0.1,0.9-0.3,1.1-0.6c1.5-2.2,3-4.5,4.5-6.8c0.6-0.8,1.5-1.1,2.8-0.7c0.9,0.3,1.4,0.9,1.4,1.8c-0.1,2.1-0.2,4.2-0.3,6.2
				c-0.1,1.1-0.3,2.2-0.5,3.3c-0.4,2.5-1.8,4.4-3.8,5.8c-4.6,3.3-9.2,6.5-13.9,9.7c-4.9,3.3-9.6,6.8-13.5,11.2
				c-1.4,1.5-2.6,3.2-3.9,4.7c-0.3,0.3-0.5,0.7-0.9,0.8c-0.4,0.1-1,0.2-1.3,0c-0.2-0.2-0.2-0.9,0-1.2c0.7-1.6,1.5-3.1,2.2-4.7
				c3.6-7.8,7.2-15.6,10.9-23.3c0.6-1.2,1.5-2.4,2.4-3.4c4-4.2,8.5-7.9,13.4-11.2c0.6-0.4,1.3-0.7,2-0.9c0.6-0.2,1.3,0,1.9,0
				C195.7,92.4,195.7,92.5,195.7,92.6z"/>
			<path class="st1" d="M164.6,142.4c7.1-4.9,14.1-9.8,21.1-14.6c0.1,0,0.1-0.1,0.2-0.1c0.5-0.4,1.6-0.7,1-1.5
				c-0.5-0.7-1.4-0.2-2,0.2c-3.4,2.3-6.9,4.7-10.3,7.1c-3.6,2.5-7.1,5.1-10.6,7.7c-0.1,0.1-0.2,0.1-0.3,0.1
				c-0.2-0.3-0.4-0.6-0.7-0.9c-0.1-0.1-0.1-0.2-0.2-0.3c0.4-0.3,0.8-0.6,1.2-0.9c2-1.2,3.5-2.8,5.1-4.5c5.4-5.8,11.5-10.8,18-15.3
				c2.3-1.6,4.6-3.2,7-4.7c2.3-1.4,4.9-2.2,7.6-2.8c2.2-0.4,4.3-1.2,6.4-1.8c1.8-0.6,2.5-0.7,3.7-0.2c-0.8,0.9-1.6,1.9-2.4,2.7
				c-2.5,2.4-5,4.8-7.4,7.3c-0.3,0.3-0.3,0.8-0.4,1.2c0.4,0,0.9,0.2,1.3,0.1c0.5-0.2,1-0.6,1.5-1.1c3.1-3.1,6.2-6.2,9.3-9.3
				c1.2,1,1.4,2.4,1,4c-1,5-3.9,8.9-7.1,12.7c-0.9,1.1-2.2,1.5-3.6,1.8c-6.4,1.4-12.9,2.5-19,4.8c-6.1,2.3-12.2,4.8-17.9,8.1
				C165.8,142.7,165.6,142.7,164.6,142.4z"/>
			<path class="st1" d="M108.8,219.2c0.8-1.3,1.6-2.5,2.5-3.7c1.8-2.6,3.7-5.1,5.6-7.7c0.3-0.5,1.1-1,0.5-1.6
				c-0.7-0.6-1.3,0.1-1.7,0.6c-1.7,2.2-3.4,4.4-5,6.6c-1,1.4-2,2.9-3.1,4.5c-0.9-1.6-1-3.2-0.8-4.8c0.6-6,2.1-11.7,5.5-16.8
				c4.2-6.3,9.3-11.9,15.2-16.5c0.4-0.3,0.9-0.7,1.4-0.9c1.9-1.1,3.6-0.8,5.1,0.8c0.2,0.2,0.1,0.8-0.1,1c-2.3,3.8-4.6,7.7-7.1,11.4
				c-1.4,2.1-3.2,3.8-4.7,5.7c-0.2,0.3-0.5,0.5-0.6,0.8c-0.1,0.3-0.1,0.7-0.1,1c0.3,0,0.7,0.1,0.9,0c0.7-0.5,1.4-1,2-1.7
				c2.5-3.2,4.9-6.4,7.2-9.7c1.5-2.3,2.8-4.7,4.1-7.1c1,0.8,1.5,2.4,0.8,4.1c-0.8,2.2-1.9,4.3-2.9,6.4c-3.3,7-6.8,13.9-11.5,20.2
				c-2.2,3-4.8,5.6-8.3,7.2c-0.8,0.4-1.7,0.7-2.6,0.8c-0.8,0.1-1.7-0.1-2.5-0.1C108.8,219.4,108.8,219.3,108.8,219.2z"/>
			<path class="st1" d="M143.4,183c0,4.7,0,9.3,0,13.8c0,1.3,0.3,2.5,0.5,3.8c0.1,0.3,0.5,0.6,0.8,0.9c0.2-0.3,0.5-0.7,0.5-1
				c0-1.8-0.2-3.7-0.2-5.5c-0.1-3.8-0.1-7.7-0.1-11.5c0-0.3,0.3-1,0.4-1c0.4,0,1.1,0.1,1.3,0.4c0.4,0.5,0.5,1.2,0.6,1.9
				c0.9,5.9,2,11.7,3.6,17.4c1.2,4.4,2.6,8.8,4.7,12.9c0.8,1.7,1.8,3.2,2.6,4.8c0.2,0.3,0.4,0.7,0.4,1.1c-0.2,2.8-0.9,5.4-1.9,8
				c-0.6,1.5-1.5,2.9-3.4,3.4c-0.5-1.9-1.1-3.7-1.5-5.6c-0.8-3.9-1.4-7.8-2.1-11.7c0-0.2,0-0.5-0.2-0.7c-0.2-0.3-0.6-0.5-0.9-0.8
				c-0.2,0.3-0.6,0.7-0.5,1c0.3,2.7,0.6,5.3,1.1,8c0.6,3.2,1.4,6.4,2.1,9.6c-1.3-0.4-2.4-1.3-3.3-2.4c-2.1-2.7-3.9-5.5-5.4-8.6
				c-2.4-5.3-3.5-10.8-3.9-16.6c-0.2-3.6-0.3-7.2-0.2-10.8c0.1-3.4,0.8-6.8,2-10c0.1-0.2,0.3-0.6,0.5-0.6
				C141.8,183.1,142.6,183.1,143.4,183z"/>
			<path class="st1" d="M82,103.1c0.9-0.3,1.5-0.7,2.1-0.7c2.8,0,5.5,0.6,8.2,1.5c0.7,0.3,1.4,0.9,1.9,1.6c1.9,2.8,3.8,5.7,5.7,8.6
				c4.8,7.6,10.4,14.6,17.2,20.5c1.9,1.7,3.9,3.4,5.9,5c1.7,1.4,1.8,2.1,0.6,3.9c-0.3,0.4-0.6,0.8-1,1.4
				c-10.6-6.8-21.5-13-30.6-21.6c-3.6-3.4-6.9-7.1-10.2-10.7c-1.2-1.3-2-2.9-2.3-4.6c-0.2-1.1,0.2-1.8,1.1-2.2
				c0.8-0.3,1.3-0.3,1.9,0.5c2.7,3.5,5.4,7,8.1,10.5c0.3,0.3,0.6,0.7,0.9,0.9c0.2,0.1,0.7,0.2,0.9,0.1c0.2-0.1,0.2-0.7,0.1-0.9
				c-0.4-0.7-0.9-1.4-1.4-2.1C88.1,111,85.1,107.2,82,103.1z"/>
			<path class="st1" d="M226,158.8c-0.5,0.9-1,1.9-1.6,2.6c-2.4,2.7-5.4,4.5-9,5.1c-2.4,0.4-4.7-0.2-7.1-0.7
				c-5.3-1.1-10.6-1.8-16-2.1c-4.5-0.2-9-0.8-13.5-1.2c-2.2-0.2-4.5-0.4-6.7-0.5c-1.2,0-2.2-0.4-3.1-1.2c-0.2-0.1-0.3-0.4-0.3-0.6
				c0-0.3,0-0.6,0-0.9c0.3-1,0.3-2.2,0.9-2.8c0.6-0.5,1.8-0.2,2.8-0.2c3.9,0.1,7.9,0.4,11.8,0.2c6.2-0.3,12.5-1,18.4-3.1
				c2-0.7,3.8-1.9,5.7-2.8c0.7-0.3,1.6-0.6,2.4-0.5c1.7,0.2,3.5,0.5,5.1,1.1c2.7,1,5.3,2.2,7.9,3.4c1,0.5,2,1.1,2.3,2.4
				c-2.3,0.3-4.5,0.6-6.7,0.8c-4.7,0.4-9.4,0.8-14,1.2c-0.2,0-0.4,0-0.5,0.1c-0.3,0.2-0.5,0.5-0.7,0.7c0.3,0.2,0.5,0.6,0.8,0.6
				c1.3,0.1,2.7,0.1,4,0c5-0.5,10-1,15-1.6c0.7-0.1,1.4-0.2,2.1-0.4C225.8,158.7,225.9,158.8,226,158.8z"/>
			<path class="st1" d="M148.8,76.6c-0.3,1.7-0.6,3.4-0.9,5.1c-0.7,4.6-1.2,9.3-1,13.9c0.1,1,0.3,2,0.6,2.9c0.1,0.3,0.6,0.5,0.8,0.7
				c0.2-0.3,0.5-0.7,0.5-1c-0.1-1.5-0.3-2.9-0.3-4.4c0-5.2,0.7-10.2,1.6-15.3c0.1-0.8,0.4-1.5,0.4-2.3c0.1-0.7,0.5-0.9,1.1-0.9
				c1.1,0,1.9,0.4,2.5,1.2c1.6,1.9,2.6,4.2,3.3,6.6c0.4,1.6-0.1,3.1-0.6,4.5c-1.7,4.4-3.6,8.7-5.2,13.2c-1.9,5.4-2.9,10.9-3.6,16.6
				c-0.6,4.5-0.9,9-1.4,13.5c0,0.3-0.3,0.9-0.5,0.9c-0.6,0.1-1.4,0.1-1.8-0.2c-0.4-0.3-0.7-1.1-0.8-1.6c-0.1-2.9-0.2-5.8-0.2-8.8
				c-0.1-5.9-1-11.7-3.1-17.2c-1.3-3.3-1.4-6.4-0.6-9.7c1.1-4.4,2.3-8.7,3.5-13.1c0.1-0.5,0.4-1,0.6-1.5
				C144.8,77.9,146.1,76.3,148.8,76.6z"/>
			<path class="st1" d="M74.4,177.3c-2.3-0.4-4.6-0.6-6.9-1.2c-1.2-0.3-2.2-1.2-3.3-1.9c-0.3-0.2-0.5-0.8-0.6-1.3
				c-0.1-0.7,0.2-1,1-1c5.3,0.2,10.5-0.4,15.5-1.8c0.7-0.2,1.3-0.5,1.9-0.9c0.3-0.2,0.3-0.7,0.5-1.1c-0.4-0.1-0.8-0.3-1.1-0.2
				c-1.8,0.4-3.5,1.1-5.3,1.3c-3.9,0.5-7.8,0.8-11.7,1.1c-0.9,0.1-1.1-0.4-1-1.1c0.1-0.6,0.3-1.2,0.6-1.7c2.1-3,5-5.1,8.4-6.2
				c1.5-0.5,3.4-0.3,5.1-0.1c5.3,0.6,10.6,1.4,16,1.9c2.6,0.2,5.3,0,7.9-0.1c2.8-0.2,5.7-0.6,8.5-0.9c0.6-0.1,1.1,0,1.1,0.7
				c0,0.3-0.4,0.9-0.7,1c-7.2,3.2-13.6,7.8-20.3,12c-0.4,0.2-0.8,0.4-1.2,0.4c-3.3,0.2-6.5,0.4-9.8,0.6c-1.6,0.1-3.2,0.2-4.7,0.2
				C74.4,177.1,74.4,177.2,74.4,177.3z"/>
			<path class="st1" d="M128.6,233c0.2-3.9,0.6-7.7,1.5-11.4c0.1-0.3,0.2-0.5,0.1-0.8c-0.1-0.4-0.3-0.7-0.4-1.1
				c-0.3,0.3-0.8,0.5-1,0.8c-0.4,0.9-0.7,1.9-0.8,2.9c-0.4,2.9-0.7,5.8-1,8.7c0,0.4-0.1,0.7-0.1,1.1c-0.8,0.1-1.3-0.2-1.6-0.8
				c-0.5-0.9-0.9-1.8-1.3-2.7c-0.8-2.2-1.6-4.4-2.4-6.5c-0.7-1.9-0.7-3.8-0.4-5.8c0-0.2,0.1-0.5,0.3-0.7c2-3.6,4-7.2,6.2-10.7
				c2.9-4.5,5.4-9.3,7.7-14.2c0.6-1.2,1-2.5,1.6-3.7c0.1-0.3,0.4-0.5,0.6-0.7c0.2,0.3,0.6,0.7,0.6,1c-0.1,1.3-0.3,2.7-0.4,4
				c-0.2,2-0.4,3.9-0.5,5.9c-0.2,3.1-0.3,6.2-0.4,9.3c-0.1,2.7,0.6,5.3,1.9,7.7c1,1.9,1.4,3.7,0.5,5.9c-1.4,3.5-2.6,7.1-4.7,10.3
				c-0.9,1.4-2,2.6-4,2.1C129.9,233.5,129.3,233.2,128.6,233z"/>
			<path class="st1" d="M172,177c0.8,0.2,1.5,0.4,2.1,0.7c3.9,1.7,7.8,3.4,11.9,4.4c2.8,0.7,5.7,1.2,8.5,1.9
				c0.5,0.1,1.2,0.3,1.5,0.7c4,4.3,8,8.6,11,13.7c0.9,1.6,1.7,3.4,2.2,5.3c0.7,2.7,0.2,3.6-2.5,4.7c-1.7-2.3-3.3-4.6-5-6.9
				c-0.7-1-1.5-2-2.4-2.9c-0.3-0.3-0.8-0.3-1.2-0.4c0,0.4-0.1,1,0.1,1.3c1.6,2.3,3.2,4.5,4.8,6.7c0.8,1,1.5,2.1,2.4,3.3
				c-0.7,0.1-1.3,0.3-1.8,0.2c-5-0.8-9.4-2.7-12.2-7.2c-1.9-3-3.4-6.1-5.4-9c-3.5-5.2-8-9.6-12.5-13.9
				C173,178.8,172.1,178.4,172,177z"/>
			<path class="st1" d="M75.1,197.2c1.5-1.3,2.9-2.6,4.3-3.9c0.4-0.4,0.9-0.8,1.2-1.3c0.2-0.2,0.1-0.7,0.1-1c-0.3,0-0.8-0.1-1,0
				c-1,0.8-2.1,1.6-3,2.5c-0.8,0.7-1.5,1.5-2.4,2.4c-0.7-2.4-0.4-4.5,1-6.2c1-1.3,2.3-2.6,3.7-3.6c3.5-2.5,7.2-4.8,10.8-7.2
				c5.4-3.6,10.6-7.3,16.1-10.7c3.8-2.3,7.8-4.3,12.3-5c1.4-0.2,1.9-0.1,2.6,1c-4.8,1.8-8.9,4.6-13.2,7.2c-0.8,0.5-1.6,1.1-2.2,1.7
				c-0.3,0.3-0.3,0.8-0.5,1.3c0.4,0,1,0.1,1.3-0.2c2.8-1.7,5.6-3.6,8.5-5.3c2.2-1.3,4.5-2.5,6.7-3.7c0.9,1.1,0.9,2.2-0.1,3.1
				c-1.1,1-2.3,1.8-3.6,2.6c-4.8,3.2-9.9,5.8-15.1,8.5c-4.8,2.5-9.4,5.4-13.6,8.8c-3.1,2.5-5.1,5.6-5.5,9.6c0,0.3-0.4,0.8-0.7,0.8
				C80.1,199.2,77.5,198.9,75.1,197.2z"/>
			<path class="st1" d="M79.3,122.4c0.2,0.2,0.5,0.4,0.7,0.7c2.1,2,4.3,4,6.4,5.9c0.7,0.7,1.6,1.2,2.5,1.7c0.2,0.1,0.8,0,0.9-0.1
				c0.1-0.3,0.1-0.8-0.1-1c-0.5-0.5-1.2-1-1.8-1.5c-2.6-2.4-5.1-4.8-7.7-7.1c-0.6-0.5-0.6-1.1-0.3-1.7c0.2-0.7,0.8-1,1.5-0.8
				c0.8,0.2,1.6,0.5,2.3,1c1.7,1.3,3.4,2.7,4.9,4.2c5.8,5.6,12.3,10.3,19.3,14.3c3.9,2.2,7.9,4.5,11.8,6.7c0.9,0.5,1.1,1,0.8,1.8
				c-0.5,1.1-1,1.4-2.1,1.1c-4.1-1.3-8.2-2.8-12.4-4c-2.7-0.8-5.5-1.2-8.2-1.8c-0.5-0.1-1-0.2-1.4-0.5c-5.9-3.8-11.4-8.2-15.6-13.8
				c-0.7-0.9-1.2-1.9-1.6-2.9c-0.2-0.6-0.1-1.3-0.1-2C79.1,122.4,79.2,122.4,79.3,122.4z"/>
		</g>
	</g>
	<g>
		<path d="M58.8,192.2c-1.2-1.7-2.9-2.4-4.8-2.8c-2.1-0.4-4.2-0.9-6.4-1.2c-2.8-0.4-5.3,0.4-7.9,1.4c-0.9,0.3-1.8,0.8-2.7,1.2
			c-1,0.5-2,1.2-2.8,2c-0.8,0.7-1.4,0.6-1.7-0.4c-0.7-2.1-1.1-4.3-1.9-6.4c-0.1-0.4-0.2-0.8,0.2-1.1c0.3-0.3,0.7-0.3,1.1-0.1
			c0.3,0.1,0.6,0.2,0.9,0.1c2.1-0.7,4.2-1.1,6.3-1.9c1.8-0.7,3.4-1.7,4.8-3c2.6-2.5,5.2-4.9,7.2-7.9c0.5-0.7,0.9-1.4,1-2.3
			c0-0.4,0.3-0.6,0.7-0.6c0.4,0,0.7,0.2,0.8,0.5c0.7,3.2,1.8,6.3,2.5,9.5c0.1,0.4,0.1,0.8-0.3,1c-0.4,0.2-0.7,0.1-1-0.1
			c-0.5-0.4-1.1-0.4-1.7-0.1c-0.8,0.3-1.6,0.9-2.2,1.5c-1.7,1.4-3,3.2-4.7,5c1,0.2,1.8,0.3,2.7,0.4c2,0.3,4.1,0.6,6.1,0.9
			c0.5,0.1,0.7,0,0.9-0.5c0.2-0.6,0.4-1.3,0.3-1.9c0-0.4,0.1-0.8,0.5-0.9c0.5-0.1,0.7,0.2,0.9,0.6l2.3,6.8c0.1,0.4,0.1,0.7-0.3,0.9
			C59.4,192.6,59,192.5,58.8,192.2z"/>
		<path d="M52.2,212.5c-2.9,1.5-6.2,1.5-9.4-0.6c-2.9-1.9-4-4.8-3.7-8.2c0.5-4.7,4.3-8.3,9.1-8.6c6.1-0.4,10.7,5.3,9.1,11.2
			C56.6,208.9,54.9,211,52.2,212.5z M45.6,209.3c0.7-0.3,1.3-0.8,1.9-1.2c1.4-1,2.8-2.2,4.1-3.4c1.3-1.2,2.5-2.5,3.2-4.1
			c0.1-0.2,0.2-0.4,0.1-0.6c0-0.4-0.4-0.7-0.8-0.8c-1.5-0.6-3.2-0.2-4.7,0.5c-2.9,1.4-5.4,3.6-7,6.4c-0.9,1.5-1.4,4.1,1.3,3.7
			C44.4,209.8,45,209.6,45.6,209.3z"/>
		<path d="M60,235.6c-1-1.1-2.2-2.1-3.1-3.3c-0.3-0.3-0.4-0.6-0.2-0.9c0.2-0.4,0-0.5-0.3-0.6c-1.1-0.5-2.2-1.2-3.1-2.1
			c-1.1-1.1-1.9-2.4-2.2-4c-0.2-1.1,0.1-2.2,0.7-3.1c0.8-1.3,1.8-2.4,3.1-3.4c1.3-1,2.6-2.1,3.7-3.4c0.6-0.7,1-1.5,1-2.4
			c0-0.3,0.1-0.6,0.5-0.7c0.3-0.1,0.5,0,0.7,0.2c1.7,1.4,3.4,2.8,5,4.3c0.7,0.6,0.7,1.1-0.2,1.5c-0.5,0.2-0.8,0.5-1.2,0.7
			c-2.4,1.7-4.9,3.2-6.8,5.6c-0.8,0.9-1.4,2-1.4,3.2c0,0.9,1,2.4,1.9,2.7c0.2,0.1,0.4,0,0.6-0.1c1.7-1.4,3.4-2.7,5.1-4.1
			c1.8-1.5,3.6-3,5.4-4.4c0.8-0.6,1.1-0.5,1.8,0.1c1,0.9,1.7,1.9,2.6,2.9c0.2,0.2,0.4,0.6,0.5,0.9c0.2,0.4,0,0.8-0.4,0.9
			c-2.4,1-4.7,2.4-6.7,4.1c-1.8,1.5-4.1,3.2-4.6,5.6c-0.1,0.4-0.2,0.9-0.7,1c-0.5,0.1-0.8-0.3-1.1-0.6
			C60.3,235.9,60.1,235.7,60,235.6z"/>
		<path d="M101.3,262.9c-0.2,0.3-0.4,0.4-0.8,0.4c-0.2,0-0.3,0-0.5-0.1c-2.2-1-4.3-1.9-6.3-3.3c-0.5-0.3-0.6-0.7-0.5-1.2
			c0.4-2.4,0.9-4.9,1.3-7.3c0.1-0.5,0-0.8-0.5-1c-1.7-0.9-3.5-1.9-5.2-2.8c-0.8-0.4-0.8-0.4-1.4,0.3c-0.9,1.1-1.8,2.3-2.3,3.7
			c-0.3,0.7-0.4,1.3-0.3,2.1c0.1,0.3,0.1,0.6-0.2,0.9c-0.3,0.2-0.6,0.2-0.9,0c-1.7-0.8-3.4-1.7-5.1-2.5c-0.4-0.2-0.7-0.5-0.6-1
			c0.1-0.5,0.5-0.6,0.9-0.7c1.8-0.3,3.2-1.3,4.5-2.5c2.1-1.8,4.1-3.7,6.1-5.5c2.3-2,4.6-4,6.9-6c0.9-0.7,1.2-1.5,1.1-2.6
			c-0.1-1.2,0.5-1.5,1.6-1c0.8,0.4,1.7,0.9,2.5,1.3c0.9,0.5,1.7,0.9,2.6,1.4c0.7,0.4,0.7,0.6,0.5,1.3c-0.7,2.6-1.4,5.1-2,7.7
			c-1,4.2-2,8.4-2.4,12.8c-0.1,1.2-0.1,2.4,0.1,3.5c0.1,0.5,0.2,1,0.6,1.4C101.4,262.4,101.4,262.6,101.3,262.9z M95.1,248.2
			l1.7-8.9c-0.3,0-0.4,0.1-0.5,0.2c-2.4,1.8-4.5,3.9-6.7,6c-0.4,0.4-0.2,0.5,0.2,0.7c1.5,0.8,3.1,1.6,4.6,2.4
			C94.9,248.8,95,248.7,95.1,248.2z"/>
		<path d="M131.5,250.9c-2,1.1-4.7-0.2-5-2.5c-0.1-0.9-0.1-0.9-1-0.5c-2.6,1.4-4.8,3.3-6.8,5.4c-0.5,0.5-0.9,1-1.4,1.4
			c-0.3,0.3-0.5,0.6-0.6,1c-0.6,3-1.4,5.9-1.7,8.9c0,0.4,0,0.8,0,1.2c0,0.6-0.4,1-1,0.9c-1.8-0.5-3.7-0.7-5.4-1.3
			c-0.6-0.2-0.8-0.6-0.5-1.2c0.5-1,0.8-2.2,1.1-3.3c0.4-1.3,0.8-2.5,1.1-3.7c0.5-1.6,0.7-3.2,1.1-4.8c0.2-0.9,0-1.8-0.2-2.6
			c-0.2-0.8,0.2-1.2,0.9-1.1c2.1,0.2,4.2,0.4,6.3,0.4c0.6,0,0.9,0.4,0.6,1l-0.2,0.7c0.5-0.5,1-1,1.5-1.4c1.6-1.5,3.3-2.9,5.2-4.2
			c2-1.3,4.1-1.9,6.3-0.7c1,0.5,1.6,1.3,1.7,2.5C133.6,248.6,133.1,250,131.5,250.9z"/>
		<path d="M139,269.8c-0.1-0.3-0.2-0.5-0.2-0.7c-0.4-1.4,0.5-2.8,2-3.2c1.6-0.4,3.1,0.5,3.4,1.9c0.1,0.8,0,1.5-0.6,2.2
			c-1.6,1.9-3.7,2.8-6.2,2.7c-4.6-0.1-8.3-3.5-9.1-7.2c-0.8-3.8,0.4-8.7,4-11.1c4.4-2.9,8.8-0.8,10.7,2.8c0.8,1.6,1.4,3.3,1.1,5.1
			c-0.1,0.9-0.3,1-1.2,1c-2.8-0.3-5.7-0.5-8.5-0.8c-0.8-0.1-0.8,0-0.7,0.7c0.4,2.6,1.4,4.9,4,6.1c0.2,0.1,0.4,0.2,0.6,0.2
			C138.5,269.7,138.7,269.8,139,269.8z M138.7,260.2c0-1.3,0-2.8-0.8-4.2c-0.7-1.2-1.3-1.3-2.3-0.3c0,0-0.1,0.1-0.1,0.1
			c-1,1.4-1.6,2.9-1.9,4.6c-0.1,0.4,0.1,0.6,0.5,0.6c1.2,0.1,2.3,0.2,3.5,0.4C138.6,261.6,138.6,261.5,138.7,260.2z"/>
		<path d="M176.2,253.5c-1.7,3.1-4.4,5-7.7,6.2c-0.4,0.2-0.6,0.4-0.5,0.8c0.4,1.8,0.7,3.6,1.4,5.3c0.2,0.4,0.4,0.7,0.8,1
			c0.5,0.5,0.4,1-0.3,1.2l-5.7,1.5c-0.6,0.1-1-0.2-0.9-0.7c0.2-1.2-0.1-2.4-0.3-3.6c-0.8-3.8-1.9-7.5-3.1-11.1c-1-3.2-2-6.6-3.8-9.4
			c-0.4-0.6-0.2-1,0.5-1.3c1.8-0.8,3.7-1.3,5.6-1.6c2.4-0.5,4.8-0.8,7.3-0.7c3.1,0.2,5.7,1.3,7.1,4.2
			C177.8,248.1,177.6,250.8,176.2,253.5z M164.6,243.5c-0.7,0-0.7,0.1-0.6,0.7l3,13c0.1,0.7,0.2,0.7,0.7,0.3
			c2.4-1.6,3.5-3.9,3.6-6.8C171.5,246.4,168.8,243.6,164.6,243.5z"/>
		<path d="M183.4,236.2c0.2,0.5,0.4,1,0.6,1.5c2.6,6.9,5.4,13.8,8.1,20.7c0.1,0.3,0.3,0.6,0.4,0.9c0.4,0.9,0.2,1.3-0.7,1.7
			c-0.3,0.1-0.6,0.3-0.9,0.4c-0.8,0.3-1.6,0.6-2.3,1c-0.9,0.4-1.3,0.2-1.6-0.8c-2.2-7.9-6.2-14.8-10.2-21.9c-0.6-1-0.5-1.3,0.6-1.8
			c1.6-0.7,3.2-1.5,4.7-2.2C182.9,235.3,183.2,235.4,183.4,236.2z"/>
		<path d="M228.6,250.1c0,1.7-0.9,2.9-2.3,3.9c-2.1,1.6-4.6,1.8-7.1,1.8c-4.7-0.1-8.8-1.9-12.2-5.1c-0.6-0.5-0.6-0.5-0.7,0.3
			c-0.5,2.3-1.7,4.1-3.9,4.9c-3.8,1.4-6.5-1.9-6.4-4.6c0.1-2.2,1.1-3.8,2.5-5.4c0.7-0.8,1.4-1.5,2-2.4c0.8-1.1,0.7-1.4-0.2-2.4
			c-0.9-0.9-1.8-1.8-3.1-1.9c-1.3-0.2-2.1,0.6-2.7,1.4c-0.2,0.3,0.1,0.4,0.3,0.4c1,0.4,1.7,1.1,2,2.1c0.5,1.5,0.1,3.1-1.1,3.6
			c-1.3,0.6-3,0.1-3.9-1.2c-0.6-0.9-0.7-1.8-0.5-2.9c0.8-4.2,5.3-7.2,9.7-6.6c1.8,0.2,3.2,1.3,4.4,2.5c0.7,0.7,1.3,1.5,1.8,2.3
			c1,2,2.1,3.9,3.4,5.7c2.3,3.3,5.3,5.6,9.4,6.1c0.8,0.1,1.5,0,2.3,0c0.4,0,0.6-0.1,0.3-0.5c-0.3-0.4-0.6-0.9-0.7-1.4
			c-0.3-1.5,0-2.7,1.1-3.7c1-0.9,2.2-1,3.4-0.4C227.9,247.4,228.6,248.6,228.6,250.1z M202.6,244.3c-0.1-0.2-0.2-0.2-0.4,0
			c-0.6,1.1-1.4,2.1-1.7,3.3c-0.3,1-0.1,2,0.5,2.8c0.4,0.5,0.8,0.6,1.4,0.4c1.1-0.4,1.8-1.2,2.5-2c0.2-0.2,0.1-0.4,0-0.6
			L202.6,244.3z"/>
		<path d="M211.7,227.9c0.7-1.7,1.5-3.2,3.2-4.2c2.6-1.4,5-0.8,7.4,0.6c1.4,0.8,2.5,2,3.8,3c1.7,1.3,3.5,2.5,5.6,3.3
			c1.1,0.4,1.1,0.5,0.3,1.4c-1.2,1.4-2.4,2.8-3.9,3.9c-0.6,0.5-1,0.4-1.5-0.2c-1.9-2.4-4.2-4.6-6.8-6.3c-1.1-0.7-2.2-1.5-3.7-1.5
			c-0.5,0-1,0.1-1.5,0.4c-1.4,0.8-1.6,1.8-0.6,3c1.1,1.5,2.4,2.8,3.8,4.1c1.6,1.5,3.3,3,5.2,4.2c0.3,0.2,0.3,0.4,0.1,0.7
			c-1.4,1.3-2.5,2.8-4,4c-0.5,0.4-0.9,0.4-1.3-0.2c-0.7-1.2-1.7-2.1-2.7-3.1c-0.8-0.9-1.6-1.9-2.5-2.8c-1.1-1.1-2.2-2.1-3.3-3.1
			c-0.7-0.6-1.5-0.9-2.3-1.2c-0.8-0.2-0.9-0.7-0.5-1.4c1.2-1.7,2.5-3.3,3.5-5.1c0.3-0.5,0.9-0.6,1.3,0
			C211.5,227.5,211.6,227.7,211.7,227.9L211.7,227.9z"/>
		<path d="M239.5,222.3c-0.6,0.9-1.2,1.7-1.9,2.6c-0.7,0.9-1,0.9-1.8,0.1c-2.1-2.2-4.5-4.2-7-6c-1.2-0.9-2.5-1.8-3.8-2.6
			c-0.6-0.4-2-1.9-2.6-1c-0.3,0.5-0.6,0.9-1,1.3c-0.4,0.5-0.8,0.5-1.3,0.1c-0.5-0.4-0.6-0.7-0.2-1.3c0.3-0.5,0.7-1,1.1-1.5
			c0.2-0.3,0.2-0.5-0.1-0.7c-1.2-0.7-2.4-1.4-3.6-2.1c-0.8-0.4-0.9-0.8-0.4-1.5c1-1.5,2.1-2.9,3.1-4.4c0.3-0.5,0.7-0.5,1.2-0.1
			c0.8,0.5,1.5,1.1,2.2,1.7c0.4,0.3,0.8,0.6,1.2,0.9c0.4,0.4,0.7,0.3,1-0.2c0.2-0.4,0.5-0.8,0.8-1.1c0.4-0.5,0.8-0.6,1.3-0.2
			c0.7,0.5,0.8,0.9,0.4,1.5c-0.3,0.5-0.6,0.9-1,1.4c-0.3,0.4-0.3,0.6,0.1,0.9c2.3,1.6,4.6,3.2,7,4.8c1.5,1,3.1,2,4.7,2.8
			c0.7,0.3,1.4,0.6,2.2,0.8c0.7,0.2,0.8,0.5,0.4,1.1C240.8,220.5,240.2,221.4,239.5,222.3z"/>
		<path d="M248.1,202.2c-0.3,0-0.5,0-0.7,0c-1.5-0.1-2.5-1.5-2.3-3c0.2-1.6,1.6-2.7,3-2.4c0.8,0.2,1.4,0.6,1.8,1.3
			c1.2,2.2,1.2,4.4,0.3,6.7c-1.8,4.2-6.3,6.4-10,5.8c-3.8-0.6-8-3.5-8.9-7.8c-1.1-5.2,2.5-8.5,6.5-8.9c1.8-0.2,3.6-0.1,5.2,0.8
			c0.8,0.4,0.9,0.7,0.5,1.4c-1.3,2.5-2.6,5.1-3.9,7.6c-0.3,0.7-0.3,0.7,0.4,0.9c2.6,0.6,5.1,0.5,7.2-1.5c0.1-0.1,0.3-0.3,0.4-0.5
			C247.8,202.7,247.9,202.5,248.1,202.2z M239,199c-1.2-0.5-2.6-1-4.2-0.8c-1.4,0.2-1.7,0.7-1.1,2c0,0,0,0.1,0.1,0.1
			c0.9,1.5,2.2,2.6,3.6,3.5c0.3,0.2,0.6,0.1,0.7-0.2c0.5-1,1.1-2.1,1.7-3.1C240.3,199.6,240.2,199.6,239,199z"/>
		<path d="M246.3,191.1c-2.6-0.6-5-2-6.3-4.2c-1.4-2.3-2-6.8,0.6-9.5c0.4-0.4,0.1-0.5-0.2-0.5c-2.4-0.5-4.7-1.1-7.1-1.6
			c-1-0.2-1.2-0.5-0.9-1.4c0.6-1.9,1.2-3.9,1.8-5.8c0.2-0.7,0.6-0.8,1.2-0.4c2,1.3,4.3,2.1,6.6,2.9c2.9,1,5.8,2,8.7,2.9
			c2.7,0.8,5.4,1.6,8.2,1.8c0.6,0.1,0.9,0.4,0.8,1.1c-0.3,1.4-0.7,2.7-1.1,4.1c-0.1,0.4-0.4,0.7-0.9,0.6c-0.5-0.1-0.5,0.2-0.4,0.6
			c0.4,1.8,0.4,3.6-0.4,5.3c-0.7,1.4-1.7,2.6-3.1,3.3C251.6,191.4,248.9,191.7,246.3,191.1z M249,179c-1.1-0.2-1.9-0.4-2.8-0.6
			c-0.8-0.2-1.7-0.4-2.5-0.6c-0.3-0.1-0.6-0.1-0.8,0.3c-1.1,2.2-0.9,3.8,1,5.1c0.3,0.2,0.6,0.4,0.9,0.5c1.6,0.7,3.2,1.2,5,1.4
			c2.3,0.2,4.2-0.4,5.7-2.1c0.8-0.9,0.4-2.2-0.8-2.6C252.8,179.8,250.8,179.5,249,179z"/>
	</g>
	<g>
		<path d="M57.9,111.3c1.3,2.9,0.9,6.3,0,9.2c-0.5,1.7-1.2,3.4-1.9,5c-0.6,1.6-1.1,3.3-1.9,4.8c-0.2,0.5-0.7,0.5-1.1,0.3
			c-3.2-1.6-6.5-2.6-9.9-3.6c-2.6-0.7-5.1-1.5-7.7-2.1c-2.1-0.5-4.1-1-6.3-0.9c-0.5,0-0.8-0.3-0.8-0.8c0-0.6,0.2-1.1,0.4-1.7
			c0.9-3.8,2.3-7.3,4.6-10.4c0.4-0.6,0.9-1.1,1.5-1.6c2.4-2.1,5.2-2,7.4,0.3c1.1,1.1,1.6,2.4,1.9,3.9c0.1,0.7,0.3,1.4,0.4,2.3
			c0.8-1.8,1.6-3.3,2.8-4.7c1-1.1,2.1-2,3.4-2.6C53.5,107.4,56.6,108.6,57.9,111.3z M42.3,119.1c0.5,0.1,0.6,0,0.5-0.5
			c-0.1-0.6-0.2-1.1-0.4-1.7c-0.5-1.9-1.6-3.5-3.2-4.6c-1.5-1-2.9-0.9-4.3,0.4c-0.8,0.7-1.2,1.5-1.7,2.4c-0.2,0.4-0.1,0.6,0.3,0.7
			L42.3,119.1z M52,114.4c-1.3-0.2-2.6,0.5-3.7,1.4c-1.2,1.1-2.2,2.3-2.9,3.8c-0.1,0.1-0.1,0.3-0.1,0.5c0.1,0.2,0.2,0.2,0.4,0.3
			c1.4,0.5,2.7,1,4.1,1.5c1.3,0.5,2.7,1,4,1.5c0.2,0.1,0.4,0.1,0.5,0c0.1-0.1,0.1-0.2,0.2-0.3c0.7-1.6,0.9-3.3,0.6-5
			c-0.2-0.8-0.5-1.7-1-2.4C53.7,115.1,52.9,114.6,52,114.4z"/>
		<path d="M77.7,95.7c1.4,1.2,1.6,2.8,1.2,4.5c-0.7,3.5-3.5,6.1-6.9,6.7c-3.4,0.6-6.5-0.2-9.5-1.5c-2.5-1.1-4.8-2.5-7.1-3.8
			c-2.8-1.6-5.6-3.2-8.4-4.8c-1.8-1-3.6-2.1-5.5-2.9c-0.6-0.3-0.7-0.6-0.4-1.2c0.1-0.2,0.3-0.5,0.4-0.7l2.6-4.4
			c0.4-0.7,0.7-0.7,1.4-0.3c1.6,1.1,3,2.4,4.5,3.5c1,0.8,2.1,1.5,3.1,2.3c2,1.4,4.1,2.6,6.1,4c2.1,1.4,4.2,2.7,6.3,4
			c1.7,1,3.4,2,5.5,2.1c1.5,0.1,3.6-1.1,4.3-2.5c0.2-0.4,0-0.4-0.3-0.5c-1.1-0.4-1.8-1.1-1.9-2.3c-0.1-1.2,0.5-2.1,1.5-2.6
			C75.8,94.8,76.9,95,77.7,95.7z"/>
		<path d="M76.5,77.4c2.3,2.3,3.4,5.4,2.4,9.1c-0.9,3.4-3.3,5.3-6.6,6.1c-4.6,1-9.2-1.5-11-5.8c-2.3-5.6,1.6-11.9,7.7-12.2
			C71.7,74.4,74.3,75.3,76.5,77.4z M75.5,84.6c-0.5-0.5-1.2-1-1.8-1.5c-1.4-1-2.9-2-4.5-2.8c-1.5-0.8-3.1-1.5-4.9-1.7
			c-0.2,0-0.4,0-0.6,0c-0.4,0.2-0.5,0.6-0.5,1c-0.1,1.6,0.9,3.1,2,4.3c2.2,2.3,5.2,3.9,8.3,4.6c1.7,0.4,4.3,0,3.1-2.4
			C76.4,85.6,76,85.1,75.5,84.6z"/>
		<path d="M96.4,63.5c1.7,2.8,2.1,6.1,0.2,9.4c-1.7,3-4.4,4.4-7.8,4.3c-4.8-0.1-8.6-3.6-9.3-8.3c-1-6,4.4-11.2,10.3-10
			C92.4,59.4,94.7,60.9,96.4,63.5z M93.7,70.3c-0.4-0.7-0.9-1.3-1.4-1.8c-1.2-1.3-2.4-2.6-3.7-3.8c-1.3-1.2-2.7-2.2-4.3-2.8
			c-0.2-0.1-0.4-0.1-0.6-0.1c-0.4,0.1-0.6,0.5-0.8,0.9c-0.5,1.6,0.1,3.2,0.9,4.7c1.6,2.8,4.1,5,7,6.4c1.6,0.8,4.2,1,3.6-1.6
			C94.4,71.5,94.1,70.9,93.7,70.3z"/>
		<path d="M106.2,50.3c0.6-0.5,1.1-1,1.8-1.4c2-1.2,4.6-1,6.3,0.6c0.5,0.4,0.6,0.3,0.9-0.2c1.2-2.1,2.9-3.7,5.3-4.4
			c1.6-0.5,3.1-0.1,4.4,0.9c1.4,1.1,2.4,2.6,3,4.3c0.5,1.3,0.9,2.6,1.2,3.9c0.6,2.3,1.3,4.5,2.4,6.6c1.5,2.7,3.4,4.9,6.5,5.8
			c1.1,0.3,2.2,0.4,3.3,0.1c0.7-0.2,0.7-0.3,0.2-0.8c-0.9-1-1-2.1-0.5-3.2c0.5-1.2,1.5-1.9,2.8-1.9c1.2,0,2.1,0.5,2.6,1.6
			c0.4,0.8,0.4,1.7,0,2.5c-0.9,2.2-2.5,3.7-4.7,4.7c-4.8,2.1-9.5,0.8-12.8-3.2c-1.6-1.9-2.6-4.1-3.7-6.3c-1.3-2.7-2.6-5.5-3.9-8.2
			c-0.3-0.6-0.8-1.2-1.3-1.6c-0.9-0.8-2.1-0.7-3.2,0.2c-0.8,0.6-0.9,0.9-0.5,1.8c1.2,2.5,2,5.2,3.5,7.5c0.6,1,1.4,1.9,2.1,2.9
			c0.3,0.4,0.3,0.7-0.2,0.9c-1.8,0.7-3.6,1.3-5.5,1.6c-0.8,0.1-1-0.1-1.1-0.9c-0.2-2.1-0.9-4.1-1.7-6.1c-0.6-1.6-1.3-3.2-2.4-4.6
			c-0.5-0.7-1.1-1.2-2-1.4c-0.6-0.2-1.2-0.1-1.8,0.2c-0.8,0.4-1,0.9-0.8,2.1c0.3,1.8,0.9,3.6,1.5,5.4c0.7,2.1,1.5,4.2,2.7,6.1
			c0.2,0.3,0.1,0.5-0.2,0.6c-1.8,0.5-3.5,1.3-5.3,1.7c-0.6,0.1-1-0.1-1.1-0.7c-0.2-2.7-1-5.3-1.9-7.8c-0.8-2.2-1.4-4.5-3.1-6.2
			c-0.6-0.6-0.5-1.1,0.2-1.5c1.9-0.9,3.7-1.9,5.5-3c0.5-0.3,1-0.1,1.1,0.5C106.2,49.8,106.2,50.1,106.2,50.3
			C106.2,50.3,106.2,50.3,106.2,50.3z"/>
		<path d="M190.7,46.8c-0.5,1.1-1.2,2.1-1.9,3c-3.3,4.1-6.5,8.2-9.7,12.3c-0.9,1.1-1.8,2.3-2.7,3.4c-0.4,0.5-0.8,0.7-1.3,0.5
			c-0.7-0.2-1.4-0.4-2.1-0.7c-0.6-0.2-0.8-0.6-0.8-1.2c-0.2-3.3-0.4-6.6-0.6-9.9c0-0.2-0.1-0.4-0.1-0.6c-0.2-0.1-0.2,0-0.3,0.1
			c-2,1.9-4,3.7-6,5.6c-0.6,0.5-0.8,1.3-1,2c-0.3,1-0.6,1.2-1.6,1c-0.8-0.2-1.5-0.4-2.4-0.5c-0.6-0.1-0.9-0.4-1-1.1
			c-0.2-4.4-0.3-8.9-0.5-13.3c-0.1-3.5-0.5-7-1.4-10.4c-0.2-0.7-0.5-1.3-0.9-1.8c-0.2-0.3-0.4-0.6-0.2-1c0.2-0.4,0.6-0.3,0.9-0.2
			c2.8,0.7,5.6,1.5,8.4,2.2c0.8,0.2,0.9,0.6,0.7,1.3c-0.8,2-1.2,4.1-1.6,6.2c-0.8,4.5-0.9,9-0.9,13.5c0,0.2,0,0.4,0,0.6
			c0,0,0,0.1,0.1,0.1c0.9-0.9,1.8-1.8,2.7-2.7c1.4-1.4,2.7-2.8,4.1-4.2c0.2-0.2,0.4-0.4,0.4-0.8c-0.5-3.6-0.9-7.3-2.3-10.7
			c-0.2-0.4-0.3-0.8-0.5-1.1c-0.2-0.3-0.2-0.7,0-1c0.2-0.3,0.6-0.3,0.9-0.2c2.8,0.7,5.7,1.5,8.5,2.2c0.6,0.2,0.8,0.6,0.8,1.2
			c-0.3,3.6-0.5,7.2-0.5,10.8c0,2.9,0.1,5.7,0.3,8.6c2.7-3.6,5.5-7.2,8.2-10.8c-1.8-0.5-2.9-1.7-3.1-3.2c-0.2-1.9,0.6-3.5,2.1-4.4
			c1.3-0.8,3.7-0.4,4.6,0.5C191.1,43.2,191.5,45.1,190.7,46.8z"/>
		<path d="M204,81.7c-0.3,0.2-0.6,0-0.9-0.2c-1.1-0.7-2.1-1.4-3.2-2.1c-0.4-0.2-0.8-0.4-1.1-0.7c-0.5-0.5-0.5-0.8-0.1-1.3
			c1.5-2.1,3.1-4,4.4-6.1c0.6-0.9,1.1-1.8,1.5-2.8c0.4-0.8,0.6-1.6,0.5-2.5c-0.1-1.1-0.7-1.9-1.9-2.1c-0.3-0.1-0.5-0.1-0.8-0.1
			c-0.8,0-1.5,0-1.9,0.8c-0.2,0.3-0.4,0.5-0.6,0.8c-1.7,2.6-3.5,5.2-5.2,7.8c-0.3,0.4-0.5,0.9-0.8,1.4c-0.4,0.6-0.8,0.7-1.4,0.3
			c-1.1-0.7-2.2-1.4-3.3-2.1c-0.9-0.5-0.9-1.1-0.2-1.8c1.9-2.2,3.4-4.6,4.8-7c0.8-1.4,1.6-2.8,2.4-4.2c1.5-2.6,2.9-5.3,4-8.1
			c0.2-0.6,0.4-1.2,0.5-1.8c0.2-0.8,0.7-1.1,1.5-0.7c0.7,0.4,1.3,0.8,1.9,1.1c1.1,0.6,2.2,1.2,3.2,1.9c0.9,0.5,1,0.9,0.4,1.7
			c-1.7,2.3-3.3,4.7-4.9,7.1c-0.1,0.2-0.2,0.4-0.5,0.7c1.1-0.1,2-0.1,2.9,0.2c3.6,1.1,5.3,4,4.3,7.7c-0.5,1.9-1.4,3.6-2.5,5.3
			c-0.7,1.1-1.6,2.2-2.2,3.4c-0.4,0.9-0.7,1.8-0.6,2.8C204.4,81.2,204.3,81.5,204,81.7z"/>
		<path d="M216,91c0.1-0.3,0.2-0.5,0.3-0.7c0.7-1.4,2.2-1.8,3.6-1.1c1.4,0.8,2,2.4,1.2,3.7c-0.4,0.7-1,1.1-1.8,1.2
			c-2.5,0.3-4.6-0.4-6.4-2.1c-3.4-3.1-3.8-8.1-2-11.4c1.9-3.4,6.1-6.3,10.4-5.6c5.2,0.8,7.1,5.3,6.1,9.2c-0.4,1.8-1.2,3.4-2.6,4.6
			c-0.7,0.6-0.9,0.6-1.5-0.1c-1.9-2.1-3.9-4.2-5.8-6.3c-0.5-0.6-0.6-0.6-1,0.1c-1.5,2.2-2.2,4.6-1.1,7.2c0.1,0.2,0.2,0.4,0.3,0.6
			C215.7,90.6,215.8,90.7,216,91z M222.2,83.6c0.9-0.9,1.8-2.1,2.2-3.7c0.3-1.4-0.1-1.9-1.5-1.7c0,0-0.1,0-0.1,0
			c-1.7,0.3-3.1,1.1-4.5,2.1c-0.3,0.2-0.3,0.5-0.1,0.8c0.8,0.8,1.6,1.7,2.3,2.6C221.2,84.6,221.2,84.6,222.2,83.6z"/>
		<path d="M237.2,98.7c1,0.5,2,0.6,3,0.8c2.9,0.5,5.8,1.2,8.7,2c1.8,0.5,3.4,1.5,4.3,3.2c0.6,1.1,0.6,2.3-0.1,3.4
			c-0.8,1.1-2,1.4-3.3,1.2c-1.1-0.2-1.9-0.8-2.3-1.8c-0.6-1.3-0.2-2.5,1.1-3.4c0.1-0.1,0.4-0.1,0.3-0.3c0-0.1-0.2-0.2-0.4-0.2
			c-1.6-0.6-3.2-1.1-4.8-1.4c-3.1-0.7-6.2-1.2-9.3-1.6c-0.4,0-0.7,0-1.1,0.2c-2.4,1.5-4.8,3.1-7,4.9c-0.3,0.3-0.6,0.6-0.9,0.9
			c-0.5,0.5-1,0.5-1.3-0.1c-0.9-1.6-2.1-3-2.9-4.6c-0.4-0.7-0.2-1.1,0.5-1.4c0.8-0.3,1.5-0.7,2.3-1.1c1.5-0.9,3.1-1.7,4.6-2.6
			c1.3-0.8,2.5-1.6,3.7-2.5c0.7-0.5,1.2-1.2,1.6-2c0.4-0.7,0.9-0.7,1.5-0.1c1.3,1.6,2.7,3.1,4.2,4.6c0.5,0.4,0.4,1-0.3,1.2
			C238.5,98.1,237.9,98.4,237.2,98.7z"/>
		<path d="M234.9,125.4c0.2-0.2,0.4-0.4,0.5-0.5c1.1-1,2.8-0.8,3.7,0.5c1,1.3,0.8,3-0.4,3.9c-0.7,0.4-1.4,0.6-2.2,0.4
			c-2.4-0.7-4-2.2-5-4.5c-1.8-4.2-0.2-9,2.8-11.3c3.1-2.3,8.1-3.3,11.7-1c4.5,2.9,4.3,7.7,1.8,10.9c-1.1,1.4-2.4,2.6-4.2,3.1
			c-0.8,0.3-1.1,0.1-1.4-0.7c-0.9-2.7-1.8-5.4-2.8-8.1c-0.2-0.7-0.3-0.8-0.9-0.3c-2.2,1.5-3.9,3.3-3.9,6.2c0,0.2,0,0.4,0,0.6
			C234.8,124.9,234.9,125.1,234.9,125.4z M243.6,121.2c1.2-0.5,2.5-1.2,3.5-2.5c0.8-1.1,0.7-1.8-0.7-2.2c0,0-0.1,0-0.1,0
			c-1.7-0.4-3.3-0.2-5,0.1c-0.4,0.1-0.5,0.3-0.4,0.7c0.4,1.1,0.7,2.2,1,3.3C242.3,121.7,242.3,121.7,243.6,121.2z"/>
	</g>
</g>
</svg>
