<?xml version="1.0" encoding="utf-8"?>
<!-- Generator: Adobe Illustrator 26.3.1, SVG Export Plug-In . SVG Version: 6.00 Build 0)  -->
<svg version="1.1" id="Layer_1" xmlns="http://www.w3.org/2000/svg" xmlns:xlink="http://www.w3.org/1999/xlink" x="0px" y="0px"
	 width="500px" height="500px" viewBox="0 0 500 500" style="enable-background:new 0 0 500 500;" xml:space="preserve">
<style type="text/css">
	.st0{fill:#BE784C;}
	.st1{fill:#B67C35;}
	.st2{fill:#7D4F2D;}
	.st3{fill:#F1BD95;}
</style>
<g>
	<g>
		
			<ellipse transform="matrix(0.7071 -0.7071 0.7071 0.7071 -80.4285 188.9444)" class="st0" cx="187.9" cy="191.6" rx="50.6" ry="50.6"/>
		<g>
			<path class="st0" d="M187.8,132.9L187.8,132.9c1.8,0,3.3-1.5,3.3-3.3l-0.1-84.9c0-1.8-1.5-3.3-3.3-3.3c-0.9,0-1.7,0.3-2.4,1
				c-0.6,0.6-1,1.5-1,2.4l0,84.9C184.5,131.4,186,132.9,187.8,132.9z"/>
			<path class="st0" d="M215.6,138.7c0.2,0.9,0.8,1.6,1.6,2c0.5,0.3,1.1,0.4,1.7,0.4c1.2,0,2.3-0.6,2.9-1.7l42.4-73.6
				c0.9-1.6,0.4-3.6-1.2-4.6c-0.8-0.4-1.7-0.6-2.5-0.3c-0.9,0.2-1.6,0.8-2,1.6l-42.4,73.6C215.5,136.9,215.4,137.8,215.6,138.7z"/>
			<path class="st0" d="M238.7,162.2L238.7,162.2c0.6,1,1.7,1.7,2.9,1.7c0.6,0,1.2-0.2,1.7-0.4l73.5-42.5c1.6-0.9,2.1-3,1.2-4.6
				c-0.9-1.6-3-2.1-4.6-1.2l-73.5,42.5C238.3,158.5,237.7,160.6,238.7,162.2z"/>
			<path class="st0" d="M334.8,188.1l-84.9,0.1c-0.9,0-1.7,0.3-2.4,1c-0.6,0.6-1,1.5-1,2.4c0,1.8,1.5,3.3,3.3,3.3l84.9-0.1
				c1.8,0,3.3-1.5,3.3-3.3C338.2,189.6,336.7,188.1,334.8,188.1z"/>
			<path class="st0" d="M316.9,262.1l-73.6-42.4c-1.6-0.9-3.6-0.4-4.6,1.2c-0.9,1.6-0.4,3.6,1.2,4.6l73.6,42.4
				c0.5,0.3,1.1,0.4,1.7,0.4c1.2,0,2.3-0.6,2.9-1.7C319,265,318.4,263,316.9,262.1z"/>
			<path class="st0" d="M221.8,243.6c-0.4-0.8-1.2-1.3-2-1.6c-0.9-0.2-1.8-0.1-2.5,0.3c-1.6,0.9-2.1,3-1.2,4.6l42.5,73.5
				c0.6,1,1.7,1.7,2.9,1.7c0.6,0,1.2-0.2,1.7-0.4c1.6-0.9,2.1-3,1.2-4.6L221.8,243.6z"/>
			<path class="st0" d="M187.9,250.2L187.9,250.2c-0.9,0-1.7,0.3-2.4,1c-0.6,0.6-1,1.5-1,2.4l0,84.9c0,1.8,1.5,3.3,3.3,3.3
				c0.9,0,1.7-0.3,2.4-1c0.6-0.6,1-1.5,1-2.4l0-84.9C191.2,251.7,189.7,250.2,187.9,250.2z"/>
			<path class="st0" d="M160.1,244.4c-0.2-0.9-0.8-1.6-1.6-2c-1.6-0.9-3.6-0.4-4.6,1.2l-42.4,73.6c-0.4,0.8-0.6,1.7-0.3,2.5
				c0.2,0.9,0.8,1.6,1.6,2c0.5,0.3,1.1,0.4,1.7,0.4c1.2,0,2.3-0.6,2.9-1.7l42.4-73.6C160.2,246.2,160.3,245.3,160.1,244.4z"/>
			<path class="st0" d="M137.1,220.9c-0.9-1.6-3-2.1-4.6-1.2L59,262.2c-1.6,0.9-2.1,3-1.2,4.6c0.6,1,1.7,1.7,2.9,1.7
				c0.6,0,1.2-0.2,1.7-0.4l73.5-42.5C137.4,224.6,138,222.5,137.1,220.9z"/>
			<path class="st0" d="M129.2,191.6c0-1.8-1.5-3.3-3.3-3.3l-84.9,0.1c-1.8,0-3.3,1.5-3.3,3.3c0,1.8,1.5,3.3,3.3,3.3l84.9-0.1
				C127.7,194.9,129.2,193.4,129.2,191.6z"/>
			<path class="st0" d="M58.9,121l73.6,42.4c0.5,0.3,1.1,0.4,1.7,0.4c1.2,0,2.3-0.6,2.9-1.7c0.4-0.8,0.6-1.7,0.3-2.5
				c-0.2-0.9-0.8-1.6-1.6-2l-73.6-42.4c-0.8-0.4-1.7-0.6-2.5-0.3c-0.9,0.2-1.6,0.8-2,1.6c-0.4,0.8-0.6,1.7-0.3,2.5
				C57.5,119.9,58.1,120.6,58.9,121z"/>
			<path class="st0" d="M153.9,139.5L153.9,139.5c0.6,1,1.7,1.7,2.9,1.7c0.6,0,1.2-0.2,1.7-0.4c1.6-0.9,2.1-3,1.2-4.6l-42.5-73.5
				c-0.9-1.6-3-2.1-4.6-1.2c-1.6,0.9-2.1,3-1.2,4.6L153.9,139.5z"/>
			<path class="st0" d="M203,134.9L203,134.9c0.3,0.1,0.6,0.1,0.9,0.1c1.5,0,2.8-1,3.2-2.5l12.4-46.1c0.2-0.9,0.1-1.8-0.3-2.5
				c-0.4-0.8-1.2-1.3-2-1.6c-1.8-0.5-3.6,0.6-4.1,2.4l-12.4,46.1C200.2,132.6,201.2,134.4,203,134.9z"/>
			<path class="st0" d="M229.7,145.4c-0.6,0.6-1,1.5-1,2.4c0,0.9,0.3,1.7,1,2.4c0.6,0.6,1.5,1,2.4,1c0.9,0,1.7-0.3,2.4-1l33.8-33.7
				c0.6-0.6,1-1.5,1-2.4c0-0.9-0.3-1.7-1-2.4c-0.6-0.6-1.5-1-2.4-1s-1.7,0.3-2.4,1L229.7,145.4z"/>
			<path class="st0" d="M249.2,179l46.1-12.3c0.9-0.2,1.6-0.8,2-1.6c0.4-0.8,0.6-1.7,0.3-2.5c-0.2-0.9-0.8-1.6-1.6-2
				c-0.8-0.4-1.7-0.6-2.5-0.3l-46.1,12.3c-0.9,0.2-1.6,0.8-2,1.6c-0.4,0.8-0.6,1.7-0.3,2.5c0.4,1.5,1.7,2.5,3.2,2.5
				C248.6,179.2,248.9,179.1,249.2,179z"/>
			<path class="st0" d="M247.6,211.5l46.1,12.4c0.3,0.1,0.6,0.1,0.9,0.1c1.5,0,2.8-1,3.2-2.5c0.2-0.9,0.1-1.8-0.3-2.5
				c-0.4-0.8-1.2-1.3-2-1.6L249.3,205c-0.9-0.2-1.8-0.1-2.5,0.3c-0.8,0.4-1.3,1.2-1.6,2C244.7,209.2,245.8,211,247.6,211.5z"/>
			<path class="st0" d="M234.7,234c-0.6-0.6-1.5-1-2.4-1c0,0,0,0,0,0c-0.9,0-1.7,0.3-2.4,1c-1.3,1.3-1.3,3.4,0,4.7l33.7,33.8
				c0.6,0.6,1.5,1,2.4,1c0.9,0,1.7-0.3,2.4-1c1.3-1.3,1.3-3.4,0-4.7L234.7,234z"/>
			<path class="st0" d="M207.5,251.9c-0.5-1.8-2.3-2.8-4.1-2.4c-1.8,0.5-2.8,2.3-2.4,4.1l12.3,46.1c0.4,1.5,1.7,2.5,3.2,2.5
				c0.3,0,0.6,0,0.9-0.1c1.8-0.5,2.8-2.3,2.4-4.1L207.5,251.9z"/>
			<path class="st0" d="M172.7,249.6L172.7,249.6c-1.8-0.5-3.6,0.6-4.1,2.4L156.2,298c-0.2,0.9-0.1,1.8,0.3,2.5
				c0.4,0.8,1.2,1.3,2,1.6c0.3,0.1,0.6,0.1,0.9,0.1c1.5,0,2.8-1,3.2-2.5l12.4-46.1C175.6,251.9,174.5,250.1,172.7,249.6z"/>
			<path class="st0" d="M146.1,239.1c1.3-1.3,1.3-3.4,0-4.7c-1.3-1.3-3.4-1.3-4.7,0l-33.8,33.7c-1.3,1.3-1.3,3.4,0,4.7
				c0.6,0.6,1.5,1,2.4,1c0.9,0,1.7-0.3,2.4-1L146.1,239.1z"/>
			<path class="st0" d="M126.5,205.4l-46.1,12.3c-1.8,0.5-2.8,2.3-2.4,4.1c0.4,1.5,1.7,2.5,3.2,2.5c0.3,0,0.6,0,0.9-0.1l46.1-12.3
				c1.8-0.5,2.8-2.3,2.4-4.1C130.1,206,128.3,205,126.5,205.4z"/>
			<path class="st0" d="M128.1,173L82,160.6c-1.8-0.5-3.6,0.6-4.1,2.4c-0.5,1.8,0.6,3.6,2.4,4.1l46.1,12.4c0.3,0.1,0.6,0.1,0.9,0.1
				c1.5,0,2.8-1,3.2-2.5C131,175.3,129.9,173.5,128.1,173z"/>
			<path class="st0" d="M141,150.4c0.6,0.6,1.5,1,2.4,1c0.9,0,1.7-0.3,2.4-1c1.3-1.3,1.3-3.4,0-4.7L112,111.9c-0.6-0.6-1.5-1-2.4-1
				c0,0,0,0,0,0c-0.9,0-1.7,0.3-2.4,1c-1.3,1.3-1.3,3.4,0,4.7L141,150.4z"/>
			<path class="st0" d="M168.2,132.6c0.4,1.5,1.7,2.5,3.2,2.5c0.3,0,0.6,0,0.9-0.1c0.9-0.2,1.6-0.8,2-1.6c0.4-0.8,0.6-1.7,0.3-2.5
				l-12.3-46.1c-0.5-1.8-2.3-2.8-4.1-2.4c-1.8,0.5-2.8,2.3-2.4,4.1L168.2,132.6z"/>
		</g>
	</g>
	<path class="st1" d="M307.2,278.8c7.1,12.7,11.2,27.3,11.2,42.8c0,48.5-39.3,87.7-87.7,87.7c-15.5,0-30.1-4.1-42.8-11.2
		c15,26.8,43.7,44.9,76.6,44.9c48.5,0,87.7-39.3,87.7-87.7C352.1,322.5,334,293.8,307.2,278.8z"/>
	<path class="st2" d="M356.2,229.1c0.5,1.6,1.1,3.1,1.9,4.4c1.6,2.7,0.7,4.9-0.8,7.1c-3.8,5.8-7.6,11.5-11.5,17.3
		c-1,1.5-2.2,2.8-3.3,4.1c-0.9,1.1-1.8,2.2-2.7,3.2c1.3,0.4,2.6,0.7,4.2,1.1c0.3-0.3,0.5-0.6,0.8-0.9c3.2-3.6,5.9-7.6,8.7-11.5
		c1-1.4,2.1-1.7,3.7-1.5c2.1,0.3,4.2,0.3,6.2,0.5c1.1,0.1,2.2,0.1,3.3,0.3c16.5,2.6,33.7-2.3,46.8-12.6c6.3-5,2.6-6.3-3.6-7.3
		c-4.4-0.7-9.5-1.3-14-0.8c-8.2,1-16.5,3.2-24.2,6c-3,1.1-6,2.4-9,3.6c-0.3,0.1-0.7,0.1-0.9-0.1c-0.2-0.1-0.4-0.6-0.3-0.8
		c1-2.2,1.8-4.5,3.3-6.4c0.7-0.9,1.6-1.8,1.9-2.8c0.8-2.5,2.6-4,4.8-5.1c10.4-5.5,20.7-12,28.5-20.9c3.8-4.3,7-9.2,9.4-14.5
		c0.8-1.7,6-17.3,2.7-16.1c-12.3,4.3-19.1,14.2-26.8,23.9c-0.8,1-1.6,2-2.5,2.9c-0.1,0.1-0.5,0-0.7,0c0,0-0.1-0.3,0-0.4
		c1.7-1.8,2.3-4.2,3-6.5c1.6-5.2,3.8-10.2,4.9-15.6c0.4-2,1.7-3.8,2.6-5.7c4.8-10.1,8.9-21.3,11.1-32.6c0.8-4.2,5-33.9-1-33
		c-1.5,0.2-2.7,0.9-3.5,2.2c-10.4,17.9-18.8,41.5-13,62.5c0.5,1.6,0.4,3.2,0.1,4.7c-1.2,5.3-2.4,10.7-4.7,15.7
		c-0.5,1-0.8,2.1-1.2,3.2c-1.1,2.8-2.2,5.7-3.8,8.3c-1.7,2.9-3,6-4.4,9.1c-0.1,0.2-0.5,0.5-0.7,0.6c-0.2,0-0.1-14.4-0.2-16.2
		c-0.5-7.2-2-14.2-3.4-21.3c-0.3-1.4-1.7-4-3.4-1.7c-5.9,8.4-8.3,18.8-9.2,28.8C354.6,211.4,353.9,221.4,356.2,229.1z"/>
	<g>
		<path class="st3" d="M388.5,431.8c-5.5-13.6-2.1-10.4-16.1-15.1c13.6-5.5,10.4-2.1,15.1-16.1c5.5,13.6,2.1,10.4,16.1,15.1
			C390,421.3,393.2,417.9,388.5,431.8z"/>
		<path class="st3" d="M419.8,323.6c-5.5-13.6-2.1-10.4-16.1-15.1c13.6-5.5,10.4-2.1,15.1-16.1c5.5,13.6,2.1,10.4,16.1,15.1
			C421.3,313.1,424.5,309.7,419.8,323.6z"/>
		<path class="st3" d="M121.9,425.5c-5.5-13.6-2.1-10.4-16.1-15.1c13.6-5.5,10.4-2.1,15.1-16.1c5.5,13.6,2.1,10.4,16.1,15.1
			C123.4,415,126.6,411.6,121.9,425.5z"/>
		<path class="st3" d="M346.4,146c-5.5-13.6-2.1-10.4-16.1-15.1c13.6-5.5,10.4-2.1,15.1-16.1c5.5,13.6,2.1,10.4,16.1,15.1
			C347.9,135.5,351.1,132.1,346.4,146z"/>
		<path class="st3" d="M88.9,317.2c-5.5-13.6-2.1-10.4-16.1-15.1c13.6-5.5,10.4-2.1,15.1-16.1c5.5,13.6,2.1,10.4,16.1,15.1
			C90.3,306.6,93.5,303.2,88.9,317.2z"/>
		<path class="st3" d="M238,354.4c-5.5-13.6-2.1-10.4-16.1-15.1c13.6-5.5,10.4-2.1,15.1-16.1c5.5,13.6,2.1,10.4,16.1,15.1
			C239.5,343.8,242.7,340.4,238,354.4z"/>
		<path class="st3" d="M443.2,161.1c-5.5-13.6-2.1-10.4-16.1-15.1c13.6-5.5,10.4-2.1,15.1-16.1c5.5,13.6,2.1,10.4,16.1,15.1
			C444.7,150.6,447.9,147.2,443.2,161.1z"/>
	</g>
</g>
</svg>
