<?xml version="1.0" encoding="utf-8"?>
<!-- Generator: Adobe Illustrator 25.2.0, SVG Export Plug-In . SVG Version: 6.00 Build 0)  -->
<svg version="1.1" id="Layer_1" xmlns="http://www.w3.org/2000/svg" xmlns:xlink="http://www.w3.org/1999/xlink" x="0px" y="0px"
	 width="300px" height="300px" viewBox="0 0 300 300" style="enable-background:new 0 0 300 300;" xml:space="preserve">
<style type="text/css">
	.st0{fill:#E0ACB8;}
	.st1{fill:#C1A385;}
</style>
<path class="st0" d="M191.2,70.9c13.2,9.6,15.3,24,12.1,39c-1.3,7.2-3.6,14.4-8.3,20.1c-18,23.7-43.5,28-71.7,26.4
	c-19.4-1.5-35.6-13.9-45.9-29.8c-6.9-9.7-15.9-18.8-17.6-31.1c-3.4-31,7.7-30.8,24.6-50.6c4.3-5.8,7.4-12.8,13.5-17
	c16.2-10.7,34.4,7.5,47.5,16.2C159,55.6,177.3,59.7,191.2,70.9z"/>
<path class="st1" d="M164.5,171.8c9.6,0.2,18,3.1,27.3,3.9c24.4,1.6,43.2,9.9,45.5,36.8c4.3,23.4-13.5,50.2-37.9,52.1
	c-8.2,0.4-16.4-1.1-24.1-3.5c-13.4-2.5-27.4-5.3-39-12.9c-10.9-7.7-19.4-21.2-15.2-34.9C126.3,196.6,146,172.7,164.5,171.8z"/>
<g>
	<path d="M223,65.1c0.2-0.2,0.4-0.4,0.6-0.6c0.5-0.4,1.1-0.7,1.5-0.1c0.2,0.3,0.2,1-0.1,1.4c-0.6,1.1-1.3,2-2,3.1
		c-2.8,4.1-5,8.6-7,13.2c-1.7,4-3.6,7.8-7.6,10.5c7,0.7,11.9,4.8,16.9,8.8c0.1,0.1,0.3,0.2,0.3,0.3c0.1,0.5,0.5,1,0.3,1.4
		c-0.1,0.3-0.8,0.5-1.3,0.5c-1.9-0.1-3.8-0.6-5.8-0.6c-2.9,0-5.7,0.3-8.6,0.4c-4.1,0.1-8-0.8-11.5-3.1c-0.6-0.4-1.1-0.4-1.7,0
		c-3.7,2.6-7.7,4.2-12.3,3.7c-4.2-0.5-8.5-0.7-12.2-3.1c-0.6-0.4-1.3-0.8-2-1.2c-0.1,0.3-0.2,0.6-0.3,0.9c-1.1,4.2-1.3,8.5-1.4,12.7
		c-0.1,5.5-0.1,11.1-0.2,16.6c-0.2,8.1-0.5,16.2-0.5,24.3c0,11.4,0.1,22.7,0.3,34.1c0.2,12.2,0.5,24.4,0.6,36.5
		c0.1,9.6-0.1,19.3,0,28.9c0.1,9.5,0.4,19,0.6,28.6c0,1.3,0.1,2.6,0.2,4c0,1.8-0.9,2.9-2.6,3.2c-0.6,0.1-1.2,0.2-1.8,0.2
		c-2.1,0.2-3.1-0.7-3.2-2.8c-0.1-2.3-0.2-4.6-0.2-6.9c0.1-11.5,0.2-23.1,0.3-34.6c0.1-10.2,0.1-20.4,0-30.6
		c-0.1-11.9-0.5-23.8-0.7-35.7c-0.1-5.1,0-10.1-0.1-15.2c0-8.2-0.3-16.5-0.1-24.7c0.1-8,0.6-15.9,1-23.8c0.2-3.4,0.5-6.8,0.8-10.2
		c0-0.3,0-0.6,0-1.1c-0.3,0.3-0.6,0.5-0.8,0.7c-1.6,1.4-3.1,2.9-4.7,4.3c-2.1,1.9-3.7,4-4.9,6.6c-0.2,0.5-0.4,1-0.7,1.4
		c-0.2,0.3-0.8,0.6-1.1,0.5c-0.3-0.1-0.7-0.5-0.8-0.9c-0.1-0.3-0.1-0.7-0.1-1c-0.2-3.4-0.4-6.9-0.5-10.3c0-1,0.1-2,0.3-2.9
		c0.7-2.6,2.1-4.8,3.8-6.8c0.6-0.7,1.5-1.2,2.1-1.6c-1.6-0.4-3.3-0.8-5-1.2c-0.2,0-0.5,0.2-0.7,0.3c-0.1,0-0.1,0.1-0.1,0.2
		c-2.3,3.8-3.8,5-9.8,3.9c-0.3,0-0.7-0.1-0.9,0c-1.8,1.2-3.9,1.2-5.9,0.8c-2.2-0.5-4.3-1.4-6.4-2c-2.5-0.7-5-1.6-7.6-1.9
		c-1.8-0.2-3.7,0.3-5.5,0.4c-0.4,0-1-0.1-1.3-0.4c-0.2-0.1-0.1-1,0.2-1.1c2.7-2.1,4.4-5.1,6.5-7.7c2.2-2.7,5-4.2,8.5-4.6
		c0.6-0.1,0.9-0.2,1.1-0.9c0.2-1.1,0.6-2.1,0.9-3.1c0.3-1-0.8-2.9-1.6-3.4c-1.5-1-3-2-4.5-3c-0.7-0.5-1.3-1.1-2-1.4
		c-4.9-2.6-8.4-6.4-10.7-11.5c-0.9-1.9-1.9-3.8-3.1-5.5c-4.2-5.6-4.2-11.8-2.4-18.2c0.7-2.4,1.7-4.7,2.6-7.1c0.4-1,0.5-1.9,0.1-2.9
		c-0.5-1.2,0-2,1.2-2.4c1.6-0.5,3-0.1,4.4,0.5c0.7,0.3,1.4,0.7,2,1.1c2.1,1.2,4.3,2.5,6.4,3.7c1.1,0.6,2.1,1.3,3.2,1.9
		c0.2-0.8,0.4-1.8,0.7-2.7c0.7-2.6,1.9-4.9,3.7-7c2.5-2.9,5.9-3.8,9.5-4c1.7-0.1,3.2-0.5,4.7-1.2c2-0.9,3.9-1.8,6-2.5
		c3.1-1,6.2-0.7,9,1.1c2.2,1.4,4.5,2.4,7.2,2.5c2.1,0.1,4.1,0.7,6,1.8c0.8,0.5,1.6,0.9,2.4,1.4c0.7-0.5,1.3-1.1,2-1.5
		c2.2-1.6,4.7-2,7.3-1.1c1.2,0.4,2.1,0.2,3-0.5c1-0.8,2.2-1.6,3.3-2.1c4.8-2.2,9.5,0.2,10.5,5.4c0,0.1,0.1,0.1,0.1,0.2
		c1-0.3,1.9-0.6,2.9-0.9c2.4-0.5,4.6,0,6.6,1.4c1.4,1,2.7,2.1,4.2,3.2c0.9-1.4,2.2-2.3,3.7-2.7c2.6-0.7,4.9-0.2,7,1.5
		c1,0.9,2,1.9,2.9,2.9c1.1,1.3,1.8,2.8,1.8,4.5c0,3.7,0.5,7.3,0.9,11c0.5,4.3-0.8,8.3-2.5,12.2c-0.7,1.5-1,3.1-1.6,4.6
		c-0.7,1.9-1.6,3.8-2.3,5.7c-0.4,1.1-0.9,2.2-1.3,3.2C222.9,65,222.9,65.1,223,65.1z M142.7,47.4c0-0.1,0-0.2,0-0.2
		c-0.3,0-0.7,0-1,0c-4.3-0.1-6.7,1.7-7.2,6c-0.6,4.6-1.5,9.1-2.9,13.5c-1.1,3.4-0.5,6.9,1.8,9.8c2.5,3.2,5,6.5,8.4,8.9
		c3.7,2.7,7.5,5.4,12.1,6.1c4.2,0.6,8.5,0.8,12.7,0.2c2.6-0.4,5.2-0.7,7.7-1.7c3-1.1,5.1-4,5.2-7.2c0-2.1,0.3-4.1,0.4-6.2
		c0.2-3.5-0.6-6.9-3.3-9.3c-2.4-2.1-4.3-4.5-5.7-7.4c-0.7-1.5-1.8-2.6-3.2-3.4c-2.5-1.5-5.2-2.6-8-3.3c-2.3-0.6-4.3-1.8-5.7-3.7
		c-0.3-0.5-0.8-0.9-1.2-1.3c-1.3-1.1-2.7-1.7-4.5-1.4C146.5,47.2,144.6,47.3,142.7,47.4z M177.8,90.4c2.4-0.7,4.5-1.3,6.3-2.8
		c2.1-1.8,4.5-3.2,6.4-5.3c2.3-2.6,5-4.5,8.3-5.8c1-0.4,2.1-1,2.8-1.8c1.7-2,3.1-4.3,3.5-6.9c0.4-2.6,1.2-5.1,2.2-7.6
		c0.9-2.3,1.5-4.7,1.2-7.2c-0.3-2.4-1.4-4.2-3.7-5.1c-1.7-0.7-3.3-1.1-5.2-0.9c-2.2,0.3-4.2-0.2-5.9-1.6c-0.4-0.4-0.9-0.7-1.4-1
		c-1.4-1.1-2.9-1.5-4.7-1.4c-3.8,0.2-7.3,1.2-10.5,3.1c-2,1.2-4.2,1.6-6.5,1.7c-1.9,0.1-3.8,0.3-5.6,0.8c-1.7,0.4-3.1,1.5-4.2,2.9
		c1.2,0.4,2.3,0.7,3.3,1.1c4.2,1.6,7.8,3.9,9.5,8.3c0.7,1.7,2,3,3.4,4.2c3.6,3,4.8,7,4.6,11.6c-0.1,2.1-0.3,4.2-0.3,6.3
		c-0.1,2.3-0.8,4.4-2.5,6.1C178.6,89.5,178.3,89.9,177.8,90.4z M168.7,99.7c-0.6,0.1-1.1,0.4-1.6,0.4c-1.2,0-1.7,0.6-1.7,1.8
		c0,0.3-0.1,0.5-0.1,0.8c-0.6,8.5-1.4,17-1.8,25.5c-0.3,7.3-0.3,14.7-0.3,22c0,12.4,0.1,24.8,0.2,37.2c0.2,11.6,0.6,23.3,0.7,34.9
		c0.1,10.1,0.1,20.3,0,30.4c-0.1,9-0.3,18.1-0.4,27.1c0,2.2,0.1,4.5,0.2,6.7c0,0.9,0.4,1.4,1.4,1.2c0.3-0.1,0.7-0.1,1-0.1
		c1.3-0.2,1.5-0.5,1.4-1.8c-0.1-3-0.2-5.9-0.2-8.9c-0.1-4.3-0.2-8.6-0.3-13c-0.1-5.4-0.3-10.9-0.3-16.3c0-7.7,0.1-15.3,0-23
		c-0.2-13.8-0.5-27.6-0.6-41.3c-0.1-13.2-0.1-26.3,0-39.5c0.1-9.7,0.4-19.3,0.6-29C167.1,109.8,167.1,104.7,168.7,99.7z M225.2,23.6
		c0,1.4,0.1,2.9,0,4.4c-0.3,2.3-1.7,3.9-3.2,5.5c-0.8,0.8-1.2,1.7-1.2,2.8c0,0.7-0.1,1.4-0.1,2.1c-0.1,2.6-1.1,4.8-3.2,6.2
		c-2,1.4-3.2,3.1-3.8,5.4c-0.4,1.6-1.3,2.9-2.6,3.9c-0.3,0.2-0.5,0.7-0.5,1c-0.2,2.6-1,5-1.9,7.3c-0.6,1.4-1.1,2.9-1.3,4.4
		c-0.4,2.8-1.5,5.3-3,7.7c-1.2,1.9-2.8,3.2-4.9,4.1c-1.1,0.4-2.2,0.8-3.1,1.5c-2.6,2.1-5.1,4.4-7.7,6.6c0.1,0.1,0.1,0.1,0.2,0.2
		c4.4-1.4,8.6-3,12.5-5.4c2.5-1.5,5-2.8,7.6-4c1.9-0.9,3.6-1.9,5-3.4c1.2-1.3,2.5-2.4,3.5-3.8c1.3-1.7,2.4-3.4,3.4-5.3
		c1-1.9,1.7-4,2.5-6c0.4-1,0.8-2,1.1-2.9c0.9-2.5,1.8-5.1,2.8-7.6c1.1-2.9,1.8-5.8,1.5-8.9c-0.4-3.7-1-7.3-0.9-11.1
		C227.9,26.5,226.6,24.8,225.2,23.6z M145.9,45.4c0-0.1,0.1-0.2,0.1-0.3c-1.8-2-2.6-4.3-3.1-6.9c-0.3-1.6-1.1-2.6-2.4-3.5
		c-2.1-1.4-3.9-3-5-5.3c-0.5-1.1-1.4-1.9-2-2.6c-2,1.6-3.9,3-5.6,4.5c-0.6,0.5-1.1,1.4-1.3,2.2c-0.6,1.9-1,3.9-1.6,5.8
		c-0.4,1.3-1.1,2.6-1.6,3.9c-1.2,3.1-1.8,6.2,0,9.4c0.3,0.5,0.4,1.1,0.5,1.6c0.6,2.7,1.1,5.5,1.6,8.2c0.6,2.7,1.8,5.1,3.4,7.2
		c0.3-1.6,0.4-3.3,1-4.8c1.4-3.7,2.1-7.4,2.4-11.3c0.4-4.5,3.6-8.9,9.5-8.2c0.7,0.1,1.4,0.1,2,0.1C144.6,45.5,145.2,45.4,145.9,45.4
		z M171.7,97.9c0.5,0.4,0.9,0.8,1.4,1.1c4.3,2.6,9,3,13.8,3.1c3.6,0.1,6.7-1.7,9.7-3.7c2.8-1.9,5.7-3.8,8.6-5.7
		c3.6-2.3,6.5-5.2,8.2-9.2c1.7-3.9,3.6-7.6,5.4-11.4c0.1-0.1,0.1-0.2,0.1-0.3c-0.8,0.6-1.5,1.3-2.1,2.1c-2.2,2.6-4.7,4.5-7.9,5.8
		c-1.8,0.7-3.5,1.5-5.1,2.6c-4.6,3-9.6,5.1-14.9,6.7c-0.6,0.2-1.2,0.6-1.7,1.1c-3,3.5-6.8,5.3-11.2,6.1
		C174.5,96.2,173.1,96.8,171.7,97.9z M173.1,19.6c-2-1.5-4.2-2.7-6.8-2.8c-2.8-0.2-5.4-0.9-7.8-2.5c-0.5-0.3-1-0.6-1.5-0.8
		c-1.5-0.7-3-1-4.6-0.8c-2.7,0.3-5.1,1.5-7.5,2.7c-1.8,0.9-3.6,1.4-5.6,1.5c-3.2,0.2-6.2,0.9-8.4,3.5c-2.3,2.7-3.1,6.1-4.2,9.4
		c0.3-0.1,0.4-0.2,0.5-0.2c1.8-0.9,3.1-2.4,4.5-3.9c1.1-1.2,1.9-1.2,3-0.1c0.9,0.9,1.7,1.9,2.5,2.8c0.5-1,1-2.1,1.6-3.1
		c0.9-1.4,2.6-2,4.1-1.5c0.7,0.2,1.3,0.7,1.9,1.1c1.5,0.9,3,1.5,4.8,0.7c0.7-0.3,1.6-0.4,2.3-0.7c3.1-0.9,6-0.2,8.6,1.6
		c0.5,0.4,1.1,0.7,1.6,1.1c0.2-0.3,0.4-0.6,0.6-0.9c1.4-1.9,3.1-3.8,5.6-3.9C170.9,22.8,172.1,21.5,173.1,19.6z M205.6,36.1
		c0.3-1.4-0.1-2.5-0.7-3.4c-0.7-1.1-1.4-2.2-2.2-3.2c-2.4-3-3.9-6.3-3.9-10.3c0-4-4.2-6.6-8.1-4.5c-1,0.5-1.9,1.1-2.8,1.8
		c-1.5,1.2-3,1.4-4.8,0.8c-1.8-0.7-3.6-0.4-5.3,0.7c-2,1.3-3.4,3.1-5,5c2.2,0.8,4.2,0.6,6.3,0c3.6-0.9,6.7-0.3,9.2,2.8
		c0.3,0.3,0.9,0.6,1.4,0.6c1.7,0.1,3.4,0.3,4.6,1.6c0.8,0.8,1.3,1.9,1.8,2.9c0.8,1.7,1.5,3.4,2.4,5.2
		C200.8,34.4,203.2,34.4,205.6,36.1z M210.6,52c0.4-0.9,1-1.8,1.3-2.8c0.7-2.4,2-4.3,4.1-5.7c1.8-1.1,2.6-2.9,2.7-5
		c0.1-0.7,0.1-1.5,0.1-2.2c0-1.4,0.5-2.6,1.5-3.7c0.5-0.5,0.9-1,1.4-1.5c1.2-1.4,1.9-3.1,1.7-5c-0.1-0.7-0.2-1.5-0.4-2.2
		c-0.5-1.4-1.3-2.6-2.8-2.7c-1.7-0.2-3.1,0.4-4.1,1.9c-2.5,3.7-5,7.3-7.5,10.9c-1.2,1.7-1.5,3.5-0.5,5.5c1.4,2.6,1.6,5.1,0,7.7
		c-0.1,0.2-0.1,0.6,0.1,0.9C209,49.3,209.7,50.5,210.6,52z M123.8,68.1c0.1-0.1,0.1-0.1,0.2-0.2c-0.5-1-1-2-1.5-3
		c-0.8-1.5-1.6-2.9-2.3-4.4c-0.9-1.9-2-3.7-2.6-5.7c-1.1-3.8-2-7.6-3.4-11.3c-0.7-1.7-1-3.7-1.1-5.6c-0.2-3.6-1.1-6.9-2.8-10
		c-0.1-0.2-0.2-0.4-0.5-0.8c-0.9,2.7-1.9,5.2-2.6,7.7c-1.5,5.4-1.3,10.6,2.1,15.5c1.5,2.1,2.7,4.5,3.9,6.9c1.2,2.2,2.3,4.4,4.3,6
		C119.5,64.9,121.6,66.5,123.8,68.1z M123.6,62.3c-0.6-3.5-1-7.1-2.4-10.3c-0.9-1.9-1.1-3.9-0.5-5.9c0.4-1.5,0.8-3,1.4-4.5
		c1.1-2.7,2.1-5.5,2.8-8.4c0.4-1.7-0.1-2.7-1.3-3.6c-0.5-0.4-1-0.7-1.5-1c-2.5-1.4-4.9-2.8-7.4-4.2c-0.7-0.4-1.3-0.9-2.1-1.1
		c-0.8-0.3-1.7-0.4-2.6-0.5c0,0.1-0.1,0.2-0.1,0.3c0.1,0.3,0.3,0.7,0.4,1c0.7,1.5,1.5,3,2.2,4.5c1.1,2.4,2,4.8,2.1,7.5
		c0.1,3.1,0.9,6,1.9,8.9c0.8,2.1,1.5,4.2,1.9,6.3C119.3,55.4,121.1,59,123.6,62.3z M172.5,38.4c-1.4,0-2.5,0-3.6,0
		c-3.2-0.1-7.7-2.9-8.4-6.7c-0.1-0.6-0.3-1.1-0.6-1.6c-0.3-0.4-0.8-0.9-1.2-0.9c-1.7,0.1-3.4,0.5-4.1,2.3c-1,2.3-2.6,4-4.7,5.2
		c-1.1,0.6-1.7,1.5-2.2,2.6c-0.7,1.6-0.3,3.1,0.4,4.6c0.2,0.4,0.5,0.9,0.9,1c0.7,0.3,1-0.3,1.2-0.9c1.8-3.2,4.5-4.9,8.1-4.8
		c2.5,0.1,4.9,0.7,7.3,1.1C168.1,40.6,170.3,40,172.5,38.4z M173.6,34.7c0.1-0.2,0.2-0.4,0.2-0.6c0.9-3.7,3.1-5.6,6.8-5.9
		c0.8-0.1,1.6,0,2.3-0.1c1.3-0.2,2.6-0.6,4-1c-0.3-0.4-0.3-0.5-0.4-0.6c-1.9-2.1-4.2-2.4-6.8-1.7c-2.3,0.6-4.5,0.7-6.8,0.2
		c-0.8-0.2-1.7-0.4-2.5-0.4c-3.1-0.2-4.8,1.9-6.6,3.8c0.5,0.8,1,1.5,1.4,2.2c0.7,1.3,1.8,1.9,3.3,2c0.9,0.1,1.7,0.3,2.5,0.7
		C171.9,33.7,172.7,34.2,173.6,34.7z M158,27.2c-1.2-0.6-2.2-1-3.4-0.8c-1.6,0.3-3.1,0.7-4.6,1.1c-1.5,0.4-3,0.5-4.4-0.2
		c-0.9-0.4-1.7-0.9-2.5-1.4c-1.2-0.7-2.2-0.6-2.8,0.6c-0.6,1-1,2.2-1.5,3.2c-0.3,0.6-0.2,1.1,0.4,1.6c1,0.8,2,1.6,3.1,2.4
		c1.3,0.9,2.1,2.1,2.4,3.6c0.1,0.4,0.2,0.9,0.3,1.3c0.1,0.4,0.2,0.8,0.4,1.4c0.1-0.3,0.2-0.4,0.3-0.5c0.5-2.2,1.7-3.7,3.7-4.7
		c1.6-0.9,2.7-2.2,3.4-3.9c0.7-1.6,1.9-2.6,3.4-3.1C156.7,27.5,157.3,27.4,158,27.2z M187.7,41.1c3.8,0.5,3.8,0.4,7,2.7
		c1.1,0.8,2.2,1.6,3.7,1.5c2.9-0.2,5.6,0,8.2,1.4c1-1.9,1.2-3.8,0.3-5.7c-0.3-0.6-0.6-1.2-0.8-1.8c-0.9-2.1-3.7-3.1-5.8-2.2
		c-1.3,0.6-2.7,1-4,1.2c-1.2,0.2-2.4,0.1-3.7,0.2C190.6,38.7,188.9,39.3,187.7,41.1z M195.7,36.7c-1.5-2.2-3.2-3.5-5.7-3.6
		c-1.3-0.1-2.5-0.4-3.8-0.8c-1.7-0.5-3.3-1.2-5-1.5c-1.1-0.2-2.3-0.5-3.3,0.3c-1.8,1.4-2.3,3.4-2.7,5.6c4.9-2,8,0.6,11,4
		C188.1,36.5,191.8,36.6,195.7,36.7z M213.5,23.9c-1.4-1.1-2.6-1.9-3.8-2.9c-2.6-2.2-5.4-2-8.3-0.9c-0.3,0.1-0.6,0.7-0.5,1
		c0.2,1.9,0.7,3.6,1.9,5.2c0.8,1,1.5,2.1,2.2,3.2c0.7,1.1,1.4,2.2,2.3,3.4C209.4,29.7,211.4,26.8,213.5,23.9z M159.1,51
		c2.1-2.7,3.2-3.7,5.5-4.2c1.8-0.4,3.6-0.5,5.4-0.8c1.6-0.2,3.3-0.2,4.8-0.8c3.1-1.3,5.9-3.1,9.6-3.6c-1-1-1.8-1.7-2.7-2.5
		c-0.9-0.8-1.8-0.9-2.8-0.1c-1.6,1.2-3.2,2.4-4.8,3.6c-2.7,1.9-5.7,3.3-9.2,3c-2-0.2-4-0.3-6-0.5c-2.2-0.2-4.3-0.2-6.6,0.7
		C155.1,46.9,156.1,50.2,159.1,51z M131.5,77c-0.4,1.4-0.6,2.5-0.9,3.6c-1,3.8,0.8,6.5,3.6,8.1c2.3,1.3,4.8,2,7.4,2.3
		c1.5,0.2,3-0.1,4.5-0.1c0-0.1,0-0.2,0-0.3C140.2,87.3,135.3,82.9,131.5,77z M128.1,82.3c-4.8,0.7-7.7,4-10.1,8
		c1.9-0.5,3.9-1,5.9-1.3c2-0.3,4-0.5,5.8-0.7C129.2,86.3,128.6,84.3,128.1,82.3z M119.5,91.9c1.3,0.3,2.4,0.4,3.3,0.7c3,1,6,2,9.1,3
		c1.5,0.5,3.1,0.9,5,0.4c-2.4-1.3-3.7-3.3-5.1-5.3c-0.2-0.3-0.7-0.5-1.1-0.5c-2.7,0.2-5.5,0.5-8.2,0.8
		C121.6,91.2,120.7,91.5,119.5,91.9z M199.8,98.5c1.9,1.3,3.9,2.1,6.1,2.5c3.8,0.8,7.5,0.2,11.3,0.1c0.2,0,0.4-0.1,0.8-0.2
		c-0.6-0.2-0.9-0.4-1.3-0.5c-4.2-1.6-8.6-2.6-13.1-3.1C202.1,97.1,200.9,97.3,199.8,98.5z M151.9,110.1c1.8-5.7,4.5-11,9.1-15.4
		c-1.2,0.2-2.2,0.3-3.1,0.7c-1,0.4-2.3,0.9-2.9,1.7c-1.2,1.6-2.2,3.4-3.1,5.2c-0.4,0.7-0.5,1.6-0.4,2.4
		C151.5,106.5,151.7,108.3,151.9,110.1z M183.8,90.6c-3.9,1.5-8,2.4-12.2,3c-2.9,0.4-5.7,1.1-8.1,3c-0.4,0.3-0.7,0.7-1.2,1.1
		c2.8,1.1,4.7,1,7-0.6c2.3-1.7,4.8-2.7,7.7-3.2C179.5,93.4,181.8,92.4,183.8,90.6z M160.7,97.6c-2.9,3.7-5.2,7.5-6.5,12.1
		c3.3-3.2,7.1-5.7,9.5-9.7C162.4,99.5,160.9,99.3,160.7,97.6z M175.8,38.7c0-0.1-0.1-0.2-0.1-0.2c-0.8,0.5-1.5,1-2.3,1.6
		c-2.5,1.9-5.3,2.5-8.5,2c-2.3-0.4-4.6-0.8-6.9-1c-2.1-0.1-3.7,1-5.1,2.2c1.6-0.1,3.4-0.3,5.1-0.3c1.9,0,3.7,0.2,5.6,0.5
		C168.7,44.3,172.3,41.7,175.8,38.7z M148.1,92.3c-4.7,1.3-9.1,0.6-13.5-1.2c0.2,0.4,0.3,0.5,0.4,0.6c0.1,0.2,0.3,0.4,0.4,0.6
		c2,2.4,4.8,3,7.7,3.3C145.5,95.7,147,94.7,148.1,92.3z M194.6,32.7c-0.5-2.9-2.2-4.7-4.5-4.5c-1.7,0.2-3.3,0.9-5,1.3
		c0,0.2,0,0.3,0,0.5c1.5,0.4,3,0.9,4.5,1.1C191.3,31.4,193,31.5,194.6,32.7z M219.4,99.4c-3.5-2.8-7.3-4.7-11.9-5
		c-1.3-0.1-2.3,0.4-3.3,1.2C209.6,96,214.6,97.4,219.4,99.4z M172.2,36.4c0.1-0.1,0.1-0.2,0.2-0.3c-1.3-0.5-2.5-1.4-3.8-1.5
		c-2.5-0.3-4.2-1.3-5.3-3.5c-0.3-0.6-0.9-1-1.3-1.6c-0.1,0.1-0.1,0.1-0.2,0.2C163.6,35.2,166.7,37.1,172.2,36.4z"/>
</g>
</svg>
