<?xml version="1.0" encoding="utf-8"?>
<!-- Generator: Adobe Illustrator 25.2.0, SVG Export Plug-In . SVG Version: 6.00 Build 0)  -->
<svg version="1.1" id="Layer_1" xmlns="http://www.w3.org/2000/svg" xmlns:xlink="http://www.w3.org/1999/xlink" x="0px" y="0px"
	 viewBox="0 0 300 300" style="enable-background:new 0 0 300 300;" xml:space="preserve">
<path d="M136.04,42.55c0.9-0.07,1.69-0.75,1.65-1.62c-0.02-0.51-0.34-1.03-0.61-1.49c-0.22-0.37-0.39-0.66-0.29-1.13
	c0.06-0.27-0.08-0.65-0.26-0.89c-0.35-0.48-0.79-0.89-1.23-1.37c0.02-0.05,0.06-0.18,0.13-0.31c0.59-1.18,0.39-1.96-0.7-2.68
	c-0.39-0.26-0.81-0.48-1.24-0.69c-0.43-0.22-0.75-0.44-0.68-1.03c0.03-0.28-0.13-0.69-0.35-0.87c-0.5-0.41-1.06-0.76-1.64-1.05
	c-0.54-0.27-1.14-0.41-1.75-0.62c0.5-0.37,0.99-0.67,1.41-1.04c0.82-0.74,0.89-1.58,0.07-2.29c-0.65-0.57-1.43-1.07-2.23-1.37
	c-3.49-1.31-7.14-1.26-10.79-1.1c0.5-0.33,1.04-0.64,1.53-1c1.63-1.2,1.72-3.18,0.15-4.25c-0.63-0.43-1.39-0.7-2.12-0.98
	c-0.69-0.26-1.36-0.09-2.04,0.19c-1.33,0.55-2.24,1.59-3.16,2.62c-0.3,0.34-0.55,0.41-0.99,0.31c-0.45-0.1-0.41-0.42-0.48-0.69
	c-0.28-1.01-0.45-2.05-0.79-3.04c-0.39-1.11-1.29-1.73-2.43-1.97c-1.57-0.33-3.14-0.62-4.7-0.97c-1.26-0.28-1.99,0.29-1.92,1.56
	c0.08,1.46,0.88,2.59,1.77,3.66c0.86,1.03,1.75,2.05,2.65,3.1c-0.26,0.33-0.52,0.38-0.87-0.05c-0.59-0.74-1.25-1.43-1.86-2.15
	c-1.69-1.98-3.64-3.61-6.03-4.73c-1.35-0.63-2.6-1.49-3.9-2.24c-0.96-0.56-1.91-1.14-2.89-1.65c-0.78-0.41-1.63-0.43-2.46-0.11
	c-0.65,0.26-0.94,0.8-0.79,1.49c0.11,0.49,0.28,0.98,0.45,1.57c-0.4-0.23-0.69-0.46-1.03-0.58c-1.11-0.41-2.21-0.91-3.37-1.14
	c-1-0.2-1.56,0.65-1.23,1.62c0.12,0.35,0.25,0.72,0.46,1c0.88,1.14,1.79,2.25,2.7,3.37c0.09,0.11,0.19,0.22,0.24,0.28
	c-1.32-0.08-2.65-0.22-3.99-0.23c-1.42-0.01-2.46,1.07-2.08,2.18c0.2,0.59,0.67,1.14,1.15,1.57c2.44,2.22,5.45,3.38,8.54,4.27
	c2.23,0.64,4.56,0.92,6.71,1.33c0.01,0-0.15,0.04-0.3,0.07c-1.25,0.25-2.51,0.45-3.75,0.75c-1.5,0.36-2.97,0.85-4.47,1.2
	c-2.21,0.52-3.86,1.66-4.51,3.91c-0.22,0.75-0.65,1.07-1.34,1.33c-1.06,0.39-2.12,0.83-3.08,1.4c-0.95,0.57-1.38,1.54-1.21,2.66
	c0.15,1.01,0.9,1.55,1.8,1.84c0.52,0.17,1.08,0.2,1.72,0.31c-0.85,0.96-1.03,2.08-1.07,3.22c-0.04,1.07,0.68,1.77,1.73,1.73
	c0.72-0.03,1.49-0.02,2.13-0.29c1.72-0.73,3.38-1.58,5.05-2.42c0.94-0.47,1.84-1.01,2.75-1.51c0.04,0.05,0.08,0.09,0.12,0.14
	c-1.33,1.83-2.66,3.66-3.99,5.49c-0.75,1.03-1.34,2.12-1.25,3.47c0.06,0.85,0.59,1.42,1.46,1.43c0.93,0.01,1.73-0.39,2.42-0.97
	c3.74-3.14,6.92-6.84,10.09-10.53c0.49-0.57,0.95-1.17,1.43-1.76c0.04,0.21-0.01,0.36-0.09,0.49c-0.91,1.44-1.78,2.92-2.75,4.32
	c-1.14,1.66-2.52,3.16-3.13,5.14c-0.06,0.19-0.19,0.37-0.29,0.54c-0.92,1.61-1.84,3.22-2.77,4.82c-0.77,1.33-0.53,2.37,0.86,3.69
	c0.53,0.5,1.37,0.4,2.5-0.31c0.09-0.05,0.18-0.11,0.26-0.17c3.12-2.15,5.54-4.9,7.14-8.36c0.17-0.37,0.34-0.73,0.52-1.1
	c0.07,0.23,0.04,0.43,0.02,0.63c-0.09,0.96-0.26,1.93-0.25,2.89c0.02,2.43,0.16,4.86,0.96,7.2c0.35,1.01,0.57,2.08,1.43,2.83
	c1.13,0.98,2.16,0.76,2.73-0.63c0.42-1.02,0.75-2.06,1.01-3.11c-0.02,3.47-0.04,6.73-0.08,9.53c-0.18,11.94-1.98,23.42-2.94,29.59
	c-0.33,2.08-0.56,3.59-0.62,4.38c-0.32,4.21,2.49,7.04,4.24,10.53c1.8,3.6,2.78,8.23,1.2,12.07c-0.63,1.54-1.46,1.63-1.92,1.57
	c-0.08,0.01-0.15-0.02-0.2-0.08c-0.05-0.06-0.06-0.14-0.03-0.21c0.09-1.56-0.31-3.11-1.14-4.44c-0.76-1.15-1.55-1.33-2.08-1.27
	c-0.87,0.04-1.56,0.75-1.57,1.62c-0.08,1.43,1.18,3.55,2.81,4.75c1.34,1.42,6,6.74,4.59,10.46c-0.72,1.9-2.94,2.7-5.15,3.02
	c-1.04-0.42-2.79-1.14-4.75-1.81c-0.23-0.08-0.25-0.16-0.28-0.44c-0.25-3.22-0.36-6.4-0.36-8.3c0-0.35-0.28-0.63-0.63-0.63
	s-0.63,0.28-0.63,0.63c0,1.82,0.14,4.8,0.33,7.87c0.01,0.11-0.07,0.31-0.48,0.17c-3.27-1.15-6.59-1.97-7.6-1.46
	c-0.98,0.49-1.01,1.15-0.95,1.5c0.33,1.75,4.91,3.04,8.66,3.61c0.33,0.05,0.64,0.22,0.66,0.53c0.27,3.76,0.5,6.82,0.51,6.88
	c0.01,0.35,0.3,0.62,0.65,0.6c0.35-0.01,0.62-0.3,0.6-0.65v-0.05c0-0.06-0.21-2.96-0.48-6.57c-0.02-0.12,0.02-0.24,0.09-0.34
	c0.08-0.09,0.19-0.15,0.31-0.16c1.92,0.12,3.63,0.03,5.11-0.24c0.03,0.06,0.06,0.11,0.1,0.16c0.07,0.07,6.46,7.16,3.55,11.57
	c-1.14,1.73-3.91,2.15-3.94,2.16c-0.27,0.04-0.49,0.26-0.53,0.53c-0.04,0.27,0.1,0.54,0.36,0.66c2.47,1.14,5.63,3.11,5.26,3.67
	c0,0.05-0.1,0.14-0.26,0.22c-0.79,0.27-1.66,0.19-2.38-0.23c-1.86-0.89-3.22-2.57-3.7-4.57c-0.05-0.22-0.21-0.4-0.43-0.46
	c-0.22-0.06-0.45-0.01-0.61,0.15c-0.16,0.16-0.23,0.39-0.17,0.61c0.38,1.57,1.22,2.97,2.39,4.05c0.02,0.04,0.04,0.08,0.07,0.12
	c0.07,0.09,7.36,9.28,4.21,16.93c-0.63,1.54-1.46,1.63-1.92,1.57c-0.08,0.01-0.15-0.02-0.2-0.08c-0.05-0.06-0.06-0.14-0.03-0.21
	c0.09-1.56-0.31-3.11-1.14-4.44c-0.76-1.15-1.55-1.33-2.08-1.27c-0.87,0.04-1.56,0.75-1.57,1.62c-0.08,1.33,1.01,3.26,2.48,4.49
	c0.01,0.15,0.07,0.3,0.17,0.41c4.03,4.14,4.9,11.45,3.98,13.02c-0.63,1.09-1.36,0.95-2.86,0.2c-0.72-0.36-1.53-0.76-2.04-0.09
	c-0.49,0.65-0.17,1.27,0.12,1.82c0.45,0.79,0.69,1.69,0.7,2.6c0,0.23-0.38,0.43-0.53,0.36c-2.94-1.32-3.5-0.73-3.69-0.53
	c-0.35,0.37-0.33,0.91,0.06,1.58c0.8,1.1,2.2,1.58,3.51,1.2c0.36-0.1,0.69-0.26,0.98-0.49c0.05,0,0.1,0,0.14-0.01
	c0.71,0.84,5.99,7.45,4.37,16.45c-0.29,1.63-0.9,2.46-1.81,2.47c-1.67,0.01-4.12-2.58-4.45-4.29c-0.17-0.53-0.08-1.11,0.23-1.58
	c0.35-0.34,0.82-0.53,1.31-0.53c0.34,0.01,0.63-0.27,0.64-0.61c-0.01-0.34-0.27-0.62-0.61-0.64c-0.86-0.01-1.69,0.34-2.29,0.97
	c-0.57,0.75-0.75,1.72-0.5,2.63c0.24,1.25,1.35,2.93,2.75,4.07c0.02,0.04,0.04,0.07,0.07,0.11c3.71,4.6,3.36,15.61,3.09,24.45
	c-0.07,2.12-0.13,4.11-0.13,5.86c0,25.71-0.08,41.07-0.24,45.64c-0.01,0.33,0.24,0.59,0.56,0.6c0.32,0.01,0.59-0.24,0.6-0.56
	c0.16-4.58,0.24-19.95,0.24-45.68c0-1.73,0.06-3.72,0.13-5.82c0.08-2.43,0.16-5.01,0.16-7.6c0-6.02-0.44-12.01-2.4-15.88
	c0.29,0.07,0.57,0.12,0.86,0.11c0.9-0.01,2.49-0.47,3.03-3.5c0.22-1.22,0.33-2.47,0.33-3.71c-0.05-5.08-1.84-9.99-5.09-13.9
	c-0.06-0.07-0.15-0.12-0.23-0.16c0.11-0.33,0.17-0.68,0.16-1.03c0.04-0.97-0.19-1.94-0.66-2.79c-0.16-0.33-0.04-0.45,0.07-0.4
	c1.11,0.55,3.17,1.59,4.5-0.69c0.38-0.82,0.54-1.73,0.49-2.63c0-2.85-1.04-7.06-3.33-10.29c0.94,0.1,2.32-0.18,3.21-2.34
	c0.6-1.48,0.9-3.07,0.89-4.68c0-4.46-2.13-8.7-3.69-11.21c0.92,0.31,1.92,0.3,2.84-0.07c0.55-0.22,0.92-0.74,0.93-1.33v-0.03
	c-0.03-1.18-1.5-2.61-3.07-3.63c-0.18-0.12-0.28-0.32-0.27-0.54c0.01-0.21,0.13-0.41,0.32-0.51c0.67-0.4,1.24-0.95,1.66-1.61
	c3.06-4.64-1.99-11.14-3.35-12.74c2.15-0.65,3.61-1.79,4.22-3.39c0.23-0.62,0.35-1.27,0.34-1.93c0-2.92-2.04-6.06-3.66-8.08
	c0.9-0.02,2.06-0.47,2.83-2.35c0.6-1.48,0.9-3.07,0.89-4.68c0-3.5-1.27-6.9-2.94-9.93c-1.08-1.95-2.59-3.76-3.15-5.95
	c-0.57-2.2,0.03-4.52,0.37-6.71c0.97-6.2,2.78-17.73,2.96-29.75c0.07-5.01,0.1-11.51,0.1-18.07c0.06,0.16,0.11,0.33,0.18,0.49
	c0.64,1.71,1.4,3.39,1.96,5.12c0.43,1.33,0.6,2.73,0.93,4.09c0.4,1.61,1.65,2.72,3.11,2.85c0.66,0.06,1.15-0.13,1.36-0.78
	c0.34-1.03,0.68-2.06,0.96-3.11c0.16-0.59,0.18-1.22,0.25-1.69c1,0.61,1.95,1.25,2.96,1.78c0.84,0.44,1.48,0.19,1.87-0.68
	c0.17-0.38,0.2-0.83,0.28-1.25c0.05-0.26,0.06-0.52,0.09-0.79c1.71,0.71,2.96-0.14,2.83-1.93c-0.18-2.55-0.87-4.98-2.02-7.27
	c-1.36-2.71-3.23-5.07-5.24-7.31c-0.62-0.69-1.18-1.43-1.76-2.15c0.05-0.04,0.09-0.08,0.14-0.12c0.9,0.78,1.96,1.44,2.67,2.37
	c1.61,2.08,3.1,4.26,4.55,6.46c1.12,1.7,2.27,3.33,3.89,4.6c1.3,1.01,2.69,1.68,4.36,1.58c0.75-0.04,1.29-0.47,1.36-1.19
	c0.05-0.59,0.03-1.2-0.1-1.77c-0.16-0.7-0.46-1.37-0.71-2.11c0.37,0.02,0.68,0.05,0.99,0.05c0.33,0,0.66,0.01,0.98-0.04
	c0.88-0.14,1.2-0.73,0.79-1.52c-0.22-0.44-0.52-0.84-0.81-1.24c-0.27-0.37-0.58-0.71-0.9-1.1
	C135.26,42.56,135.65,42.58,136.04,42.55z M106.97,124.64c-0.07-0.07-0.12-0.12-0.14-0.14c-0.08-0.08-0.18-0.13-0.29-0.16
	c-1.13-0.95-1.87-2.34-1.81-3.26c0.02-0.26,0.09-0.41,0.46-0.45c0.25-0.03,0.58,0.24,0.89,0.71
	C106.68,122.25,107.64,124.88,106.97,124.64z M99.03,139.12L99.03,139.12c-3.64-0.53-6.5-1.64-7.23-2.29
	c-0.06-0.07-0.08-0.16-0.06-0.25c0.02-0.09,0.09-0.16,0.17-0.19c0.62-0.3,3.65,0.51,7.25,1.74c0.22,0.04,0.38,0.22,0.4,0.44
	c0.02,0.12,0.03,0.25,0.02,0.38C99.58,139.2,99.21,139.14,99.03,139.12z M102.75,139.42c0,0.22-1.65,0.14-1.89-0.09
	c-0.13-0.18-0.14-0.42-0.04-0.62C101.02,138.51,102.75,139.14,102.75,139.42L102.75,139.42z M106.81,176.66L106.81,176.66
	c-1.28-0.94-2.14-2.48-2.08-3.47c0.02-0.26,0.09-0.41,0.46-0.45c0.25-0.03,0.58,0.24,0.89,0.71
	C106.73,174.43,107.78,177.37,106.81,176.66z M104.85,197.01c-0.7,0.14-1.42-0.11-1.88-0.65
	C103.61,196.52,104.24,196.74,104.85,197.01L104.85,197.01z M131.05,30.74c0.42,0.15,0.69,0.43,0.65,0.98
	c-0.06,0.75,0.47,1.19,1.07,1.53c0.34,0.19,0.71,0.33,1.04,0.54c1.02,0.64,1.04,0.75,0.4,1.88c-5.07-2.73-10.3-5.08-16.1-5.75
	c0.05-0.59,0.09-1.09,0.13-1.64c0.06-0.01,0.14-0.05,0.21-0.04c3.11,0.47,6.23,0.89,9.33,1.44
	C128.9,29.87,129.97,30.35,131.05,30.74z M118.8,24.01c2.78-0.02,5.57-0.04,8.26,0.83c0.83,0.27,1.66,0.62,2.4,1.09
	c0.72,0.45,0.69,0.78,0.01,1.26c-0.61,0.44-1.26,0.84-1.93,1.2c-0.18,0.1-0.49,0.03-0.72-0.03c-2.9-0.65-5.84-0.96-8.81-1.08
	c-0.5-1-1-2.01-1.55-3.11C117.27,24.11,118.04,24.02,118.8,24.01z M115.53,17.99c0.5-0.34,1.07-0.28,1.6-0.07
	c0.42,0.17,0.83,0.36,1.23,0.58c1.02,0.57,1.17,1.7,0.25,2.44c-0.59,0.47-1.28,0.8-1.95,1.16c-0.41,0.22-0.86,0.36-1.28,0.53
	c-0.96-0.78-1.9-1.53-2.96-2.39C113.45,19.48,114.48,18.71,115.53,17.99z M102.15,16.24c-0.28-0.38-0.38-0.9-0.5-1.37
	c-0.12-0.45,0.1-0.66,0.58-0.56c1.65,0.34,3.3,0.66,4.93,1.02c1.22,0.27,1.57,1.3,1.84,2.33c0.17,0.67,0.26,1.37,0.37,1.98
	c-1.22,0.44-2.37,0.85-3.67,1.31C104.56,19.44,103.33,17.86,102.15,16.24z M87.6,11.6c0.52,0.03,1.1,0,1.53,0.24
	c1.51,0.83,2.96,1.78,4.45,2.65c0.82,0.48,1.65,0.93,2.51,1.32c2.1,0.94,3.74,2.45,5.23,4.15c0.57,0.65,1.12,1.31,1.68,1.97
	c0.49,0.58,0.47,0.76,0.02,1.15c-2.18-1.05-4.33-2.02-6.42-3.1c-1.48-0.76-2.88-1.67-4.31-2.53c-0.88-0.53-1.78-1.05-2.58-1.7
	c-1.2-0.98-2.06-2.23-2.43-3.76C87.26,11.88,87.49,11.59,87.6,11.6z M82.22,13.69c-0.1-0.17-0.15-0.37-0.26-0.67
	c0.31,0.04,0.54,0.03,0.74,0.09c1.48,0.42,2.82,1.12,4.11,1.96c2.62,1.7,5.22,3.45,7.9,5.04c1.67,0.99,3.5,1.73,5.24,2.61
	c0.77,0.39,1.5,0.84,2.25,1.26c-0.01,0.11-0.02,0.22-0.03,0.32c-0.19,0-0.4,0.06-0.56-0.01c-1.67-0.69-3.31-1.45-5.01-2.08
	c-1.33-0.49-2.71-0.82-4.07-1.22c-2.21-0.66-4.4-1.36-6.3-2.74C84.56,17.04,83.28,15.46,82.22,13.69z M84.64,23.59
	c-1.4-0.68-2.72-1.51-4.05-2.33c-0.39-0.24-0.71-0.63-1.01-1c-0.37-0.46-0.32-0.81,0.23-0.94c0.74-0.18,1.54-0.3,2.29-0.22
	c2.77,0.28,5.34,1.29,7.93,2.23c1.08,0.39,2.18,0.73,3.3,1c2.79,0.69,5.4,1.83,8.04,3.04c-0.61,1.16-0.61,1.14-1.69,1.04
	c-1.25-0.12-2.5-0.19-3.76-0.25C92,26,88.19,25.33,84.64,23.59z M86.24,30.51c1.6-0.4,3.17-0.89,4.77-1.26
	c2.05-0.46,4.11-0.84,6.17-1.25c0.16-0.03,0.32-0.03,0.5,0.06c-0.17,0.04-0.34,0.09-0.51,0.13c-3.63,0.89-7.1,2.18-10.38,3.99
	c-1.31,0.72-2.78,1.17-4.31,1.79C83.21,32.05,84.43,30.96,86.24,30.51z M77.52,39.05c-0.22-0.28-0.34-0.75-0.29-1.1
	c0.11-0.7,0.65-1.13,1.29-1.37c1.9-0.72,3.82-1.38,5.71-2.14c1.33-0.53,2.64-1.14,3.93-1.77c3.69-1.83,7.52-3.21,11.61-3.84
	c0.21-0.03,0.43-0.04,0.65-0.05c0.02,0.05,0.05,0.1,0.07,0.15c-0.1,0.09-0.19,0.22-0.31,0.26c-2.59,0.82-4.88,2.26-7.29,3.45
	c-0.49,0.25-0.93,0.6-1.4,0.9c-2.1,1.34-4.18,2.71-6.32,3.99c-1.34,0.8-2.75,1.48-4.14,2.19C80.39,40.04,77.96,39.61,77.52,39.05z
	 M88.43,41.29c-1.39,0.76-2.79,1.51-4.17,2.29c-1.15,0.65-2.37,1.03-3.68,1.15c-0.76,0.07-1.02-0.26-0.95-1.03
	c0.14-1.55,0.96-2.57,2.32-3.24c3.84-1.88,7.37-4.27,10.98-6.54c2.33-1.46,4.78-2.73,7.42-3.64c0.4,1.69-0.84,2.53-1.72,3.47
	C95.71,36.89,92.17,39.24,88.43,41.29z M91.46,47.36c-1.01,1-2.06,1.96-3.14,2.88c-0.38,0.32-0.88,0.53-1.36,0.7
	c-0.59,0.21-0.93-0.05-0.77-0.66c0.19-0.74,0.44-1.52,0.86-2.14c1.43-2.14,2.95-4.22,4.45-6.31c0.25-0.35,0.55-0.67,0.87-0.96
	c2.11-1.89,4.27-3.74,6.34-5.67c0.92-0.86,1.68-1.89,2.43-2.75c0.48,0.43,1.03,0.92,1.58,1.41c0.3,0.26,0.28,0.48,0.02,0.77
	C98.93,38.84,95.5,43.37,91.46,47.36z M103.2,42.88c-0.64,1.99-1.28,4-2.13,5.91c-1.43,3.22-3.76,5.73-6.66,7.71
	c-0.05,0.03-0.1,0.08-0.16,0.1c-0.43,0.16-0.81,0.72-1.32,0.27c-0.95-0.85-1.04-1.25-0.55-2.12c0.8-1.41,1.63-2.81,2.41-4.24
	c0.42-0.77,0.72-1.62,1.18-2.37c0.66-1.11,1.35-2.21,2.14-3.24c1.58-2.07,2.88-4.3,4.09-6.6c0.54-1.02,1.29-1.94,1.93-2.88
	c0.15,0.06,0.19,0.07,0.22,0.09c0.86,0.71,0.79,0.69,0.45,1.79C104.22,39.15,103.79,41.04,103.2,42.88z M107.78,56.44
	c-0.32,1.33-0.74,2.65-1.18,3.95c-0.23,0.68-0.52,0.73-1,0.18c-0.32-0.36-0.55-0.81-0.73-1.27c-1.1-2.88-1.5-5.88-1.21-8.92
	c0.24-2.51,0.77-5,1.22-7.49c0.37-2.02,0.82-4.02,1.25-6.09c0.57,0.17,1.03,0.31,1.53,0.45c-0.08,0.74-0.26,1.5-0.22,2.24
	c0.09,2.06,0.28,4.11,0.4,6.17C108.04,49.26,108.64,52.86,107.78,56.44z M116.46,60.31c-0.15,0.34-0.33,0.39-0.67,0.31
	c-1.02-0.25-1.57-0.96-1.82-1.91c-0.24-0.89-0.39-1.81-0.57-2.71c-0.47-2.38-1.61-4.52-2.42-6.78c-1.11-3.11-1.87-6.31-1.85-9.64
	c0-0.65,0-1.31,0-2.04c0.37,0.03,0.66,0.08,0.94,0.08c1.02,0.01,1,0.01,1.42,0.95c0.74,1.65,1.51,3.28,2.26,4.92
	c0.13,0.28,0.24,0.57,0.34,0.86c1.04,2.94,2.08,5.89,3.09,8.84c0.16,0.46,0.2,0.96,0.23,1.45C117.54,56.6,117.25,58.5,116.46,60.31z
	 M122.5,56.53c-0.06,0.42-0.29,0.62-0.74,0.37c-1.21-0.68-2.37-1.33-2.88-2.79c-0.76-2.17-1.65-4.29-2.49-6.43
	c-0.83-2.09-1.32-4.31-2.51-6.28c-0.7-1.16-1.04-2.54-1.56-3.82c-0.12-0.3-0.04-0.46,0.24-0.58c0.26-0.11,0.51-0.26,0.95-0.48
	c0.93,1.32,1.9,2.59,2.75,3.95c1.77,2.81,3.31,5.74,4.57,8.81c0.52,1.27,1.1,2.53,1.59,3.81C122.84,54.22,122.66,55.38,122.5,56.53z
	 M120.46,41.86c1.2,1.56,2.33,3.21,3.23,4.95c1.04,2.01,1.63,4.22,1.78,6.51c0.01,0.2,0.01,0.43-0.08,0.6
	c-0.1,0.19-0.31,0.46-0.47,0.46c-0.21,0-0.5-0.18-0.62-0.37c-1.15-1.81-1.81-3.85-2.7-5.78c-1.34-2.92-2.83-5.76-4.49-8.51
	c-0.84-1.39-1.81-2.65-3.1-3.76c0.31-0.39,0.58-0.72,0.82-1.01C116.72,37.27,118.66,39.51,120.46,41.86z M131.94,50.28
	c-1.76-0.4-3.08-1.51-4.13-2.87c-1.29-1.68-2.33-3.54-3.57-5.25c-1.65-2.28-3.18-4.67-5.59-6.29c-0.75-0.5-1.45-1.09-2.16-1.64
	c-0.45-0.35-0.67-0.73-0.08-1.17c0.09-0.07,0.14-0.19,0.2-0.29c3.73,1.22,6.8,3.41,9.49,6.14c1.73,1.76,3.38,3.61,4.98,5.49
	c1.07,1.26,1.82,2.74,2.29,4.34C133.81,50.22,133.43,50.62,131.94,50.28z M134.92,44.48c0.2,0.22,0.34,0.5,0.63,0.92
	c-0.93-0.06-1.69-0.11-2.46-0.17c-0.06,0-0.13-0.09-0.18-0.16c-1.02-1.36-2.05-2.73-3.14-4.18c0.77,0.18,1.51,0.3,2.19,0.55
	c0.31,0.11,0.53,0.49,0.79,0.75C133.48,42.95,134.21,43.71,134.92,44.48z M131.55,40.25c-0.47-0.15-0.96-0.24-1.42-0.39
	c-1.14-0.37-2.25-0.73-3.16-1.63c-1.95-1.94-4.01-3.75-6.49-4.99c-1.08-0.54-2.22-0.96-3.33-1.44c0.52-1.09,0.51-1.03,1.68-0.81
	c5.51,1.04,10.56,3.26,15.44,5.92c0.34,0.19,0.65,0.43,0.96,0.67c0.35,0.27,0.52,0.6,0.41,1.07c-0.14,0.59,0.25,1,0.57,1.44
	c0.22,0.3,0.67,0.65,0.29,1c-0.27,0.25-0.8,0.44-1.14,0.35C134.07,41.11,132.82,40.65,131.55,40.25z"/>
<path d="M218.27,46.37c0.9-0.07,1.69-0.75,1.65-1.62c-0.02-0.51-0.34-1.03-0.61-1.49c-0.22-0.37-0.39-0.66-0.29-1.13
	c0.06-0.27-0.08-0.65-0.26-0.89c-0.35-0.48-0.79-0.89-1.23-1.37c0.02-0.05,0.06-0.18,0.13-0.31c0.59-1.18,0.39-1.96-0.7-2.68
	c-0.39-0.26-0.81-0.48-1.24-0.69c-0.43-0.22-0.75-0.44-0.68-1.03c0.03-0.28-0.13-0.69-0.35-0.87c-0.5-0.41-1.06-0.76-1.64-1.05
	c-0.54-0.27-1.14-0.41-1.75-0.62c0.5-0.37,0.99-0.67,1.41-1.04c0.82-0.74,0.89-1.58,0.07-2.29c-0.65-0.57-1.43-1.07-2.23-1.37
	c-3.49-1.31-7.14-1.26-10.79-1.1c0.5-0.33,1.04-0.64,1.53-1c1.63-1.2,1.72-3.18,0.15-4.25c-0.63-0.43-1.39-0.7-2.12-0.98
	c-0.69-0.26-1.36-0.09-2.04,0.19c-1.33,0.55-2.24,1.59-3.16,2.62c-0.3,0.34-0.55,0.41-0.99,0.31c-0.45-0.1-0.41-0.42-0.48-0.69
	c-0.28-1.01-0.45-2.05-0.79-3.04c-0.39-1.11-1.29-1.73-2.43-1.97c-1.57-0.33-3.14-0.62-4.7-0.97c-1.26-0.28-1.99,0.29-1.92,1.56
	c0.08,1.46,0.88,2.59,1.77,3.66c0.86,1.03,1.75,2.05,2.65,3.1c-0.26,0.33-0.52,0.38-0.87-0.05c-0.6-0.74-1.25-1.43-1.86-2.15
	c-1.69-1.98-3.64-3.61-6.02-4.73c-1.35-0.63-2.61-1.49-3.9-2.24c-0.96-0.56-1.91-1.14-2.89-1.65c-0.78-0.41-1.63-0.43-2.46-0.11
	c-0.65,0.26-0.94,0.8-0.79,1.49c0.11,0.49,0.28,0.98,0.45,1.57c-0.4-0.23-0.69-0.46-1.03-0.58c-1.11-0.41-2.21-0.91-3.37-1.14
	c-1-0.2-1.56,0.65-1.23,1.62c0.12,0.35,0.25,0.72,0.46,1c0.88,1.14,1.79,2.25,2.7,3.37c0.09,0.11,0.19,0.22,0.24,0.28
	c-1.32-0.08-2.65-0.22-3.99-0.23c-1.42-0.01-2.46,1.07-2.08,2.18c0.2,0.59,0.67,1.14,1.15,1.57c2.44,2.22,5.45,3.38,8.54,4.27
	c2.23,0.64,4.56,0.92,6.71,1.33c0.01,0-0.15,0.04-0.3,0.07c-1.25,0.25-2.51,0.45-3.75,0.75c-1.5,0.36-2.97,0.85-4.47,1.2
	c-2.21,0.52-3.86,1.66-4.51,3.91c-0.22,0.75-0.65,1.07-1.34,1.33c-1.06,0.39-2.12,0.83-3.08,1.4c-0.95,0.57-1.38,1.54-1.21,2.66
	c0.15,1.01,0.9,1.55,1.8,1.84c0.52,0.17,1.08,0.2,1.72,0.31c-0.85,0.96-1.03,2.08-1.07,3.22c-0.04,1.07,0.68,1.77,1.73,1.73
	c0.72-0.03,1.49-0.02,2.13-0.29c1.72-0.73,3.38-1.58,5.05-2.42c0.94-0.47,1.84-1.01,2.75-1.51c0.04,0.05,0.08,0.09,0.12,0.14
	c-1.33,1.83-2.66,3.66-3.99,5.49c-0.75,1.03-1.34,2.12-1.25,3.47c0.06,0.85,0.59,1.42,1.46,1.43c0.93,0.01,1.73-0.39,2.42-0.97
	c3.74-3.14,6.92-6.84,10.09-10.53c0.49-0.57,0.95-1.17,1.43-1.76c0.04,0.21-0.01,0.36-0.09,0.49c-0.91,1.44-1.78,2.92-2.75,4.32
	c-1.14,1.66-2.52,3.16-3.13,5.14c-0.06,0.19-0.19,0.37-0.29,0.54c-0.92,1.61-1.84,3.22-2.77,4.82c-0.77,1.33-0.53,2.37,0.86,3.69
	c0.53,0.5,1.37,0.4,2.5-0.31c0.09-0.05,0.18-0.11,0.26-0.17c3.12-2.15,5.54-4.9,7.14-8.36c0.17-0.37,0.34-0.73,0.52-1.1
	c0.07,0.23,0.04,0.43,0.02,0.63c-0.09,0.96-0.26,1.93-0.25,2.89c0.02,2.43,0.16,4.86,0.96,7.2c0.35,1.01,0.57,2.08,1.43,2.83
	c1.13,0.98,2.16,0.76,2.73-0.63c0.49-1.2,0.87-2.43,1.15-3.67c-0.49,10.14-1.95,19.46-2.79,24.8c-0.56,3.55-1.56,6.66,1.04,10.88
	c1.99,3.23,5.07,6.58,3.75,10.75c-0.59,1.87-2.3,2.73-4.1,3.1c-0.38,0.07-0.78,0-1.11-0.2c-4.87-2.88-11.89-5.91-13.58-4.84
	c-0.38,0.23-0.57,0.67-0.5,1.1c0.34,2.67,5.83,4.93,10.73,5.37c1.03,0.1,2.06,0.11,3.09,0.03c0.33-0.03,0.67,0.05,0.95,0.23
	c0.25,0.16,0.5,0.32,0.74,0.49c3.11,2.1,4.12,3.53,4.03,4.14c-0.02,0.3-0.23,0.55-0.52,0.64c-1.21,0.23-2.46-0.04-3.47-0.74
	c-0.59-0.5-1.27-1.25-1.11-1.96c0.12-0.41,0.42-0.75,0.81-0.92c0.33-0.06,0.56-0.37,0.51-0.71c-0.05-0.34-0.37-0.58-0.71-0.53
	c-0.86,0.24-1.54,0.89-1.8,1.74c-0.2,0.68-0.15,1.72,1.07,2.94c0.01,0.13,0.05,0.26,0.14,0.36c0.07,0.09,7.36,9.28,4.21,16.93
	c-0.63,1.54-1.46,1.63-1.92,1.57c-0.08,0.01-0.15-0.02-0.2-0.08c-0.05-0.06-0.06-0.14-0.03-0.21c0.09-1.56-0.31-3.11-1.14-4.44
	c-0.76-1.15-1.55-1.33-2.08-1.27c-0.87,0.04-1.56,0.75-1.57,1.62c-0.07,1.23,0.86,2.98,2.16,4.2c0.02,0.14,0.08,0.26,0.18,0.36
	c2.17,2.29,3.7,5.11,4.44,8.18c0.03,0.12-0.01,0.26-0.11,0.34c-0.1,0.08-0.24,0.09-0.35,0.03c-0.84-0.43-1.84-0.35-2.61,0.21
	c-0.45,0.35-0.82,0.78-1.11,1.26c-0.46,0.67-0.98,1.42-1.54,1.43c-0.31-0.02-0.6-0.14-0.83-0.34l-1.22-1.3
	c-0.23-0.24-0.61-0.26-0.86-0.05c-0.25,0.22-0.3,0.59-0.09,0.86c0.38,0.52,0.82,0.99,1.31,1.4l2.85,3.03
	c0.03,0.07,0.07,0.13,0.12,0.18c2.17,2.29,3.7,5.11,4.44,8.18c0.03,0.12-0.01,0.26-0.11,0.34c-0.1,0.08-0.24,0.09-0.35,0.03
	c-0.84-0.43-1.84-0.35-2.61,0.21c-0.45,0.35-0.82,0.78-1.11,1.26c-0.46,0.67-0.98,1.42-1.54,1.43c-0.31-0.02-0.6-0.14-0.83-0.34
	l-1.22-1.3c-0.23-0.24-0.61-0.26-0.86-0.05c-0.25,0.22-0.3,0.59-0.09,0.86c0.38,0.52,0.82,0.99,1.31,1.4l3.44,3.66
	c0.05,0.05,0.1,0.09,0.16,0.12c1.27,1.71,6.77,9.77,3.96,16.6c-0.63,1.54-1.46,1.63-1.92,1.57c-0.08,0.01-0.15-0.02-0.2-0.08
	c-0.05-0.06-0.06-0.14-0.03-0.21c0.09-1.56-0.31-3.11-1.14-4.44c-0.76-1.15-1.55-1.33-2.08-1.27c-0.87,0.04-1.56,0.75-1.57,1.62
	c-0.08,1.4,1.12,3.46,2.71,4.67c0.03,0.06,0.07,0.12,0.12,0.17c0.06,0.06,6.23,6.34,4.87,10.84c-0.48,1.61-2,2.49-3.63,2.98
	c-0.53,0.16-1.1,0.11-1.6-0.14c-3.37-1.67-12.27-5.77-14.44-3.73c-0.59,0.46-0.79,1.26-0.49,1.94c1.04,2.42,8.09,4.02,13.23,3.73
	c0.7-0.04,1.39-0.12,2.07-0.23c0.03,0.06,0.07,0.12,0.11,0.17c3.39,3.53,2.25,8.68,0.3,12.13c-0.26,0.07-0.5,0.2-0.71,0.36
	c-0.54,0.44-0.71,1.19-0.43,1.83c0.08,0.21,0.27,0.37,0.49,0.4c0.23,0.03,0.45-0.06,0.59-0.24c0.16-0.21,0.31-0.43,0.47-0.66
	c0.26-0.4,0.72-0.61,1.19-0.55c0.62,0.09,1.22,0.3,1.76,0.62c0.31,0.18,0.58,0.41,0.81,0.68c0.29,0.39,0.36,0.9,0.18,1.35
	c-0.18,0.45-0.58,0.77-1.06,0.85c-0.7,0.1-1.41,0.11-2.12,0.03c-0.02-0.02-0.03-0.04-0.05-0.06c-1.87-2.1-12.46-9-15.18-7.71
	c-0.62,0.3-0.93,1-0.75,1.66c0.38,2.48,8.98,6.16,14.24,7.13c3.4,4.8,3.07,15.46,2.81,24.07c-0.07,2.12-0.13,4.11-0.13,5.86
	c0,25.71-0.08,41.07-0.24,45.64c-0.01,0.32,0.24,0.59,0.56,0.6c0.32,0.01,0.59-0.24,0.6-0.56c0.16-4.58,0.24-19.95,0.24-45.68
	c0-1.73,0.06-3.72,0.13-5.82c0.08-2.43,0.16-5.01,0.16-7.6c0-6.24-0.47-12.45-2.62-16.29c2.54,0.26,4.14-0.21,4.77-1.39l0.08-0.23
	c0.04-0.21,0.06-0.43,0.06-0.65c-0.04-1.24-0.74-2.37-1.85-2.95c-0.47-0.28-0.98-0.5-1.51-0.64c-0.24-0.07-0.45-0.24-0.56-0.46
	c-0.11-0.23-0.12-0.49-0.02-0.72c1.49-3.55,1.94-8.07-0.98-11.48c2.51-0.7,4.14-2.03,4.69-3.88c0.17-0.56,0.25-1.14,0.24-1.72
	c0-3.24-2.33-6.68-3.94-8.67c0.91,0,2.09-0.44,2.88-2.35c0.6-1.48,0.9-3.07,0.89-4.68c0-6.85-5.03-13.19-5.29-13.52
	c-0.08-0.1-0.18-0.17-0.3-0.2l-1.39-1.48c-0.08-0.09-0.12-0.2-0.1-0.32c0.02-0.12,0.08-0.22,0.19-0.28
	c0.62-0.44,1.14-1.01,1.53-1.67c0.2-0.34,0.46-0.65,0.75-0.92c0.27-0.24,0.63-0.35,0.99-0.29c0.36,0.06,0.66,0.28,0.83,0.6
	c0.86,1.52,0.45,3.45-0.95,4.49c-0.28,0.19-0.36,0.56-0.18,0.85s0.55,0.38,0.84,0.22c1.36-0.8,2.25-2.21,2.38-3.78
	c0.05-0.4,0.08-0.79,0.08-1.19c0-3.72-2.14-8.21-4.53-10.94c-0.03-0.06-0.07-0.13-0.12-0.18l-1.71-1.82
	c-0.08-0.09-0.12-0.2-0.1-0.32c0.02-0.12,0.08-0.22,0.19-0.28c0.62-0.44,1.14-1.01,1.53-1.67c0.2-0.34,0.46-0.65,0.75-0.92
	c0.27-0.24,0.63-0.35,0.99-0.29c0.36,0.06,0.66,0.28,0.83,0.6c0.86,1.52,0.45,3.45-0.95,4.49c-0.28,0.19-0.36,0.56-0.18,0.85
	c0.18,0.29,0.55,0.38,0.84,0.22c1.36-0.8,2.25-2.21,2.38-3.78c0.05-0.4,0.08-0.79,0.08-1.19c0-3.18-1.56-6.92-3.51-9.65
	c0.94,0.11,2.34-0.15,3.24-2.34c0.6-1.48,0.9-3.07,0.89-4.68c0-4.82-2.49-9.39-4.06-11.79c0.94,0.26,1.98,0.34,2.79,0.04
	c0.71-0.25,1.22-0.88,1.31-1.63c0.01-0.08,0.02-0.16,0.02-0.24c0-1.26-1.36-2.86-4.06-4.75c-0.12-0.08-0.18-0.21-0.16-0.35
	c0.01-0.14,0.1-0.26,0.23-0.31c1.72-0.53,3.09-1.86,3.67-3.57c1.49-4.39-1.95-8.74-4.06-12.18c-1.91-3.12-1.3-6.25-0.77-9.65
	c0.97-6.2,2.78-17.73,2.96-29.75c0.01-0.76,0.02-1.55,0.03-2.37c0.61,1.6,1.31,3.17,1.83,4.8c0.43,1.33,0.6,2.73,0.93,4.09
	c0.4,1.61,1.65,2.72,3.11,2.85c0.66,0.06,1.15-0.13,1.36-0.78c0.34-1.03,0.68-2.06,0.96-3.11c0.16-0.59,0.18-1.22,0.25-1.69
	c1,0.61,1.95,1.25,2.96,1.78c0.84,0.44,1.48,0.19,1.87-0.68c0.17-0.38,0.2-0.83,0.28-1.25c0.05-0.26,0.06-0.52,0.09-0.79
	c1.71,0.71,2.96-0.14,2.83-1.93c-0.18-2.55-0.87-4.98-2.02-7.27c-1.36-2.71-3.23-5.07-5.24-7.31c-0.62-0.69-1.18-1.43-1.76-2.15
	c0.05-0.04,0.09-0.08,0.14-0.12c0.9,0.78,1.96,1.44,2.67,2.37c1.61,2.08,3.1,4.26,4.55,6.46c1.12,1.7,2.27,3.33,3.89,4.6
	c1.3,1.01,2.69,1.68,4.36,1.58c0.75-0.04,1.29-0.47,1.36-1.19c0.05-0.59,0.03-1.2-0.1-1.77c-0.16-0.7-0.46-1.37-0.71-2.11
	c0.37,0.02,0.68,0.05,0.99,0.05c0.33,0,0.66,0.01,0.98-0.04c0.88-0.14,1.2-0.73,0.79-1.52c-0.22-0.44-0.52-0.84-0.81-1.24
	c-0.27-0.37-0.58-0.71-0.9-1.1C217.49,46.38,217.88,46.4,218.27,46.37z M184.54,110.7L184.54,110.7c-4.38-0.39-8.21-2.13-9.3-3.62
	c-0.09-0.12-0.1-0.29-0.02-0.42c0.08-0.13,0.23-0.2,0.38-0.19c1.81,0.2,5.09,1.5,9.33,3.88
	C185.55,110.73,184.96,110.73,184.54,110.7z M188.78,135.32L188.78,135.32c-1.28-0.94-2.14-2.48-2.08-3.47
	c0.02-0.26,0.09-0.41,0.46-0.45c0.25-0.03,0.58,0.24,0.89,0.71C188.69,133.09,189.74,136.03,188.78,135.32z M188.78,184.69
	L188.78,184.69c-1.28-0.94-2.14-2.48-2.08-3.47c0.02-0.26,0.09-0.41,0.46-0.45c0.25-0.03,0.58,0.24,0.89,0.71
	C188.69,182.46,189.74,185.4,188.78,184.69z M185.86,200.28L185.86,200.28c-4,0.75-11.22-1.7-11.73-2.9
	c-0.02-0.04-0.03-0.09-0.04-0.14c0-0.09,0.05-0.22,0.23-0.39c1-0.94,9.64,1.77,11.68,3.03C186.21,200,186.09,200.24,185.86,200.28z
	 M186.97,217.68c-0.04,0.08-0.14,0.13-0.23,0.11c-5.51-1.36-11.42-4.52-11.6-5.74l0,0c-0.01-0.06-0.01-0.11-0.02-0.17
	c0-0.15,0.05-0.17,0.07-0.18c0.46-0.21,2.39,0.08,6.73,2.53c1.72,0.97,3.39,2.04,4.99,3.2
	C186.99,217.49,187.02,217.59,186.97,217.68z M213.28,34.56c0.42,0.15,0.69,0.43,0.65,0.98c-0.06,0.75,0.47,1.19,1.07,1.53
	c0.34,0.19,0.71,0.33,1.04,0.54c1.02,0.64,1.04,0.75,0.4,1.88c-5.07-2.73-10.3-5.08-16.1-5.75c0.05-0.59,0.09-1.09,0.13-1.64
	c0.06-0.01,0.14-0.05,0.21-0.04c3.11,0.47,6.23,0.89,9.33,1.44C211.13,33.69,212.2,34.17,213.28,34.56z M201.03,27.84
	c2.78-0.02,5.57-0.04,8.26,0.83c0.83,0.27,1.66,0.62,2.4,1.09c0.72,0.45,0.69,0.78,0.01,1.26c-0.61,0.44-1.26,0.84-1.93,1.2
	c-0.18,0.1-0.49,0.03-0.72-0.03c-2.9-0.65-5.84-0.96-8.81-1.08c-0.5-1-1-2.01-1.55-3.11C199.5,27.94,200.26,27.84,201.03,27.84z
	 M197.76,21.81c0.5-0.34,1.07-0.28,1.6-0.07c0.42,0.17,0.83,0.36,1.23,0.58c1.02,0.57,1.17,1.7,0.25,2.44
	c-0.59,0.47-1.28,0.8-1.95,1.16c-0.41,0.22-0.86,0.36-1.28,0.53c-0.96-0.78-1.9-1.53-2.96-2.39
	C195.68,23.3,196.7,22.54,197.76,21.81z M184.38,20.06c-0.28-0.38-0.38-0.9-0.5-1.37c-0.12-0.45,0.1-0.66,0.58-0.56
	c1.65,0.34,3.3,0.66,4.93,1.02c1.22,0.27,1.57,1.3,1.84,2.33c0.17,0.67,0.26,1.37,0.37,1.98c-1.22,0.44-2.37,0.85-3.67,1.31
	C186.79,23.27,185.55,21.68,184.38,20.06z M191.3,51.76c-0.02-0.33-0.03-0.65-0.05-0.98c0.13,0.32,0.24,0.65,0.35,0.98
	C191.51,51.76,191.4,51.77,191.3,51.76z M169.82,15.42c0.52,0.03,1.1,0,1.53,0.24c1.51,0.83,2.96,1.78,4.45,2.65
	c0.82,0.48,1.65,0.93,2.51,1.32c2.1,0.94,3.74,2.45,5.23,4.15c0.57,0.65,1.12,1.31,1.68,1.97c0.49,0.58,0.47,0.76,0.02,1.15
	c-2.18-1.05-4.33-2.02-6.42-3.1c-1.48-0.76-2.88-1.67-4.31-2.53c-0.88-0.53-1.78-1.05-2.58-1.7c-1.2-0.98-2.06-2.23-2.43-3.76
	C169.48,15.7,169.72,15.41,169.82,15.42z M164.45,17.51c-0.1-0.17-0.15-0.37-0.26-0.67c0.31,0.04,0.54,0.03,0.74,0.09
	c1.48,0.42,2.82,1.12,4.11,1.96c2.62,1.7,5.22,3.45,7.9,5.04c1.67,0.99,3.5,1.73,5.24,2.61c0.77,0.39,1.5,0.84,2.25,1.26
	c-0.01,0.11-0.02,0.22-0.03,0.32c-0.19,0-0.4,0.06-0.56-0.01c-1.67-0.69-3.31-1.45-5.01-2.08c-1.33-0.49-2.71-0.82-4.07-1.22
	c-2.21-0.66-4.4-1.36-6.3-2.74C166.79,20.86,165.51,19.28,164.45,17.51z M166.87,27.41c-1.4-0.68-2.72-1.51-4.05-2.33
	c-0.39-0.24-0.71-0.63-1.01-1c-0.37-0.46-0.32-0.81,0.22-0.94c0.74-0.18,1.54-0.3,2.29-0.22c2.77,0.28,5.34,1.29,7.93,2.23
	c1.08,0.39,2.18,0.73,3.3,1c2.79,0.69,5.4,1.83,8.04,3.04c-0.61,1.16-0.61,1.14-1.69,1.04c-1.25-0.12-2.5-0.19-3.76-0.25
	C174.23,29.83,170.42,29.15,166.87,27.41z M168.47,34.33c1.6-0.4,3.17-0.89,4.77-1.26c2.05-0.46,4.11-0.84,6.17-1.25
	c0.16-0.03,0.32-0.03,0.5,0.06c-0.17,0.04-0.34,0.09-0.51,0.13c-3.63,0.89-7.1,2.18-10.38,3.99c-1.31,0.72-2.78,1.17-4.31,1.79
	C165.44,35.87,166.66,34.78,168.47,34.33z M159.75,42.87c-0.22-0.28-0.34-0.75-0.29-1.1c0.11-0.7,0.65-1.13,1.29-1.37
	c1.9-0.72,3.82-1.38,5.71-2.14c1.33-0.53,2.64-1.14,3.93-1.77c3.69-1.83,7.52-3.21,11.61-3.84c0.21-0.03,0.43-0.04,0.65-0.05
	c0.02,0.05,0.05,0.1,0.07,0.15c-0.1,0.09-0.19,0.22-0.31,0.26c-2.59,0.82-4.88,2.26-7.29,3.45c-0.49,0.25-0.93,0.6-1.4,0.9
	c-2.1,1.34-4.18,2.71-6.32,3.99c-1.34,0.8-2.75,1.48-4.14,2.19C162.62,43.86,160.19,43.43,159.75,42.87z M170.66,45.11
	c-1.39,0.76-2.79,1.51-4.17,2.29c-1.15,0.65-2.37,1.03-3.68,1.15c-0.76,0.07-1.02-0.26-0.95-1.03c0.14-1.55,0.96-2.57,2.32-3.24
	c3.84-1.88,7.37-4.27,10.98-6.54c2.33-1.46,4.78-2.73,7.42-3.64c0.4,1.69-0.84,2.53-1.72,3.47
	C177.93,40.71,174.4,43.06,170.66,45.11z M173.68,51.18c-1.01,1-2.06,1.96-3.14,2.88c-0.38,0.32-0.88,0.53-1.36,0.7
	c-0.59,0.21-0.93-0.05-0.77-0.66c0.19-0.74,0.44-1.52,0.86-2.14c1.43-2.14,2.95-4.22,4.45-6.31c0.25-0.35,0.55-0.67,0.87-0.96
	c2.11-1.89,4.27-3.74,6.34-5.67c0.92-0.86,1.68-1.89,2.43-2.75c0.48,0.43,1.03,0.92,1.58,1.41c0.3,0.26,0.28,0.48,0.02,0.77
	C181.16,42.66,177.73,47.19,173.68,51.18z M185.43,46.7c-0.64,1.99-1.28,4-2.13,5.91c-1.43,3.22-3.76,5.73-6.66,7.71
	c-0.05,0.03-0.1,0.08-0.16,0.1c-0.43,0.16-0.81,0.72-1.32,0.27c-0.95-0.85-1.04-1.25-0.55-2.12c0.8-1.41,1.63-2.81,2.41-4.24
	c0.42-0.77,0.72-1.62,1.18-2.37c0.66-1.11,1.35-2.21,2.14-3.24c1.58-2.07,2.88-4.3,4.09-6.6c0.54-1.02,1.29-1.94,1.93-2.88
	c0.15,0.06,0.19,0.07,0.22,0.09c0.86,0.71,0.79,0.69,0.45,1.79C186.45,42.97,186.02,44.86,185.43,46.7z M190.01,60.26
	c-0.32,1.33-0.74,2.65-1.18,3.95c-0.23,0.68-0.52,0.73-1,0.18c-0.32-0.36-0.55-0.81-0.73-1.27c-1.1-2.88-1.5-5.88-1.21-8.92
	c0.24-2.51,0.77-5,1.22-7.49c0.37-2.02,0.82-4.02,1.25-6.09c0.57,0.17,1.03,0.31,1.53,0.45c-0.08,0.74-0.26,1.5-0.22,2.24
	c0.09,2.06,0.28,4.11,0.4,6.17C190.27,53.09,190.87,56.69,190.01,60.26z M198.69,64.13c-0.15,0.34-0.33,0.39-0.67,0.31
	c-1.02-0.25-1.57-0.96-1.82-1.91c-0.24-0.89-0.39-1.81-0.57-2.71c-0.47-2.38-1.61-4.52-2.42-6.78c-1.11-3.11-1.87-6.31-1.85-9.64
	c0-0.65,0-1.31,0-2.04c0.37,0.03,0.66,0.08,0.94,0.08c1.02,0.01,1,0.01,1.42,0.95c0.74,1.65,1.51,3.28,2.26,4.92
	c0.13,0.28,0.24,0.57,0.34,0.86c1.04,2.94,2.08,5.89,3.09,8.84c0.16,0.46,0.2,0.96,0.23,1.45
	C199.76,60.43,199.48,62.32,198.69,64.13z M204.73,60.35c-0.06,0.42-0.29,0.62-0.74,0.37c-1.21-0.68-2.37-1.33-2.88-2.79
	c-0.76-2.17-1.65-4.29-2.49-6.43c-0.83-2.09-1.32-4.31-2.51-6.28c-0.7-1.16-1.04-2.54-1.56-3.82c-0.12-0.3-0.04-0.46,0.24-0.58
	c0.26-0.11,0.51-0.26,0.95-0.48c0.93,1.32,1.9,2.59,2.75,3.95c1.77,2.81,3.31,5.74,4.57,8.81c0.52,1.27,1.1,2.53,1.59,3.81
	C205.07,58.04,204.88,59.21,204.73,60.35z M202.68,45.68c1.2,1.56,2.33,3.21,3.23,4.95c1.04,2.01,1.63,4.22,1.78,6.51
	c0.01,0.2,0.01,0.43-0.08,0.6c-0.1,0.19-0.31,0.46-0.47,0.46c-0.21,0-0.5-0.18-0.62-0.37c-1.15-1.81-1.81-3.85-2.7-5.78
	c-1.34-2.92-2.83-5.76-4.49-8.51c-0.84-1.39-1.81-2.65-3.1-3.76c0.31-0.39,0.58-0.72,0.82-1.01
	C198.95,41.09,200.89,43.33,202.68,45.68z M214.17,54.1c-1.76-0.4-3.08-1.51-4.13-2.87c-1.29-1.68-2.33-3.54-3.57-5.25
	c-1.65-2.28-3.18-4.67-5.59-6.29c-0.75-0.5-1.45-1.09-2.16-1.64c-0.45-0.35-0.67-0.73-0.08-1.17c0.09-0.07,0.14-0.19,0.2-0.29
	c3.73,1.22,6.8,3.41,9.49,6.14c1.73,1.76,3.38,3.61,4.98,5.49c1.07,1.26,1.82,2.74,2.29,4.34C216.04,54.04,215.65,54.44,214.17,54.1
	z M217.15,48.3c0.2,0.22,0.34,0.5,0.63,0.92c-0.93-0.06-1.69-0.11-2.46-0.17c-0.06,0-0.13-0.09-0.18-0.16
	c-1.02-1.36-2.05-2.73-3.14-4.18c0.77,0.18,1.51,0.3,2.19,0.55c0.31,0.11,0.53,0.49,0.79,0.75
	C215.71,46.78,216.44,47.53,217.15,48.3z M213.78,44.07c-0.47-0.15-0.96-0.24-1.42-0.39c-1.14-0.37-2.25-0.73-3.16-1.63
	c-1.95-1.94-4.01-3.75-6.49-4.99c-1.08-0.54-2.22-0.96-3.33-1.44c0.52-1.09,0.51-1.04,1.68-0.81c5.51,1.04,10.56,3.26,15.44,5.92
	c0.34,0.19,0.65,0.43,0.96,0.67c0.35,0.27,0.52,0.6,0.41,1.07c-0.14,0.59,0.25,1,0.57,1.44c0.22,0.3,0.67,0.65,0.29,1
	c-0.27,0.25-0.8,0.44-1.14,0.35C216.3,44.93,215.04,44.47,213.78,44.07z"/>
</svg>
