<?xml version="1.0" encoding="utf-8"?>
<!-- Generator: Adobe Illustrator 27.5.0, SVG Export Plug-In . SVG Version: 6.00 Build 0)  -->
<svg version="1.1" id="Layer_1" xmlns="http://www.w3.org/2000/svg" xmlns:xlink="http://www.w3.org/1999/xlink" x="0px" y="0px"
	 viewBox="0 0 864 864" style="enable-background:new 0 0 864 864;" xml:space="preserve">
<style type="text/css">
	.st0{fill:#FFFFFF;}
	.st1{fill:#9CA67B;}
</style>
<g>
	<g>
		<g>
			<path d="M718.4,554.1h-41.3c-23.2,0-42.1-18.9-42.1-42v-97.9h125.4V512C760.4,535.2,741.6,554.1,718.4,554.1z M640.2,419.3V512
				c0,20.3,16.5,36.9,36.9,36.9h41.3c20.3,0,36.9-16.5,36.9-36.9v-92.7H640.2z"/>
			<g>
				<path class="st0" d="M677.1,548.5c-20.1,0-36.5-16.4-36.5-36.5v-92.3h114.3V512c0,20.1-16.4,36.5-36.5,36.5H677.1z"/>
			</g>
		</g>
		<path class="st1" d="M667.3,372.1c-9.5-1.3-27.2-5.1-44.8-16.1l-0.2-0.2l-0.3-0.1c-20.3-9.7-35.1-24.9-41.8-32.8
			c6.2-1.5,15.2-3,25.2-3c11.7,0,22,2.2,30.6,6.4C653.6,338,663.1,359.4,667.3,372.1z M698.1,326.7c-0.2,0-0.4,0-0.6,0
			c-1.4-0.2-2.7-0.9-3.4-1.9c-8.2-12-26.2-43.2-17.9-72.1c8.4-29.1,41.4-49.1,55.2-56.4c0.8-0.4,1.7-0.7,2.7-0.7c1.7,0,3.2,0.7,4,2
			c8.2,12,26.3,43.1,17.9,72.1c-8.3,28.8-40.8,48.7-54.3,55.9l-0.9,0.5C699.9,326.4,699,326.7,698.1,326.7L698.1,326.7z
			 M740.7,374.4c-2.8,0-5.5-0.1-7.9-0.1c-2.1-0.1-4-0.1-5.7-0.1l-0.8,0c-1,0-1.9,0-2.8,0.1c2.7-13.8,9.7-38.2,26.6-52.7
			c13.2-8.6,29.4-10.5,40.6-10.5c6.2,0,11.6,0.5,15.5,1.1c-3,3.9-5,10-7.4,17.1c-4.1,12.3-9.2,27.7-20.7,35l-0.3,0.2l-0.2,0.2
			C766.9,373.2,752.2,374.4,740.7,374.4C740.7,374.4,740.7,374.4,740.7,374.4z"/>
		<path d="M821.6,307.4c-0.8-3-4.5-2.8-8.8-2.7c-1.3,0-2.8,0.1-3.4,0l0,0c-11.7-1.8-41.3-4.4-63.8,10.5l-0.2,0.2
			c-19.3,16.3-26.8,43.4-29.6,58.2c-0.4,2.1-0.3,4,0.4,5.5v0.1l0.4,0.6c0.2,0.3,0.4,0.6,0.7,0.9c-3.7,5.4-7.1,11.1-10.1,16.9
			c-2.8,5.3-5.2,10.5-7.3,15.5c-0.1-1.3-0.1-2.6-0.2-3.9c-0.8-18.3-2-45.7,3.8-75.2c0.5-0.2,0.9-0.4,1.3-0.6l0.9-0.5
			c18-9.6,49.6-30.3,58.4-61c9.3-32.4-10.2-66.1-19-79.1c-3.7-5.4-11.3-7.2-17.4-4c-18.3,9.6-50.4,30.4-59.3,61.4
			c-9.3,32.3,10.2,66.1,19,79.1c2,3,5.3,5,9.1,5.5c-5.5,29.5-4.3,56.4-3.5,74.6c0,0.5,0,1,0.1,1.5c-2.1-5.3-4.5-10.9-7.4-16.5
			c-3.1-6-6.5-11.7-10.2-17.3c0.4-1,0.6-2.1,0.5-3.3c-0.1-0.8-0.2-1.7-0.5-2.6c-4.3-13.5-14.7-38.2-35.3-51.6l-0.3-0.1
			c-23.4-11.8-51.9-6.5-63.1-3.7c-2.8,0.7-4.8,2.4-5.5,4.5c-0.6,1.9-0.2,3.8,1.2,5.6c6,7.3,22.5,25.6,46.1,36.9
			c19.3,12,38.7,15.9,48.5,17.2c0.8,0.1,1.6,0.2,2.2,0.3c3.7,5.6,7.2,11.4,10.2,17.4c3.1,6,5.6,11.9,7.8,17.5h19
			c2-4.7,4.2-9.5,6.8-14.3c3.4-6.5,7.3-12.8,11.5-18.8c0.6,0,1.2,0,1.9-0.1c1.8,0,3.9,0,6.2,0.1c13.8,0.4,34.6,0.9,49.8-11.3
			c13.7-8.8,19.3-25.6,23.8-39c2.5-7.6,4.9-14.7,7.7-16.2C819.6,312.3,822.3,310.2,821.6,307.4z M621.1,358.3l-0.3-0.1
			c-22.7-10.9-38.7-28.5-44.4-35.6c-0.3-0.3-0.4-0.6-0.3-0.7c0.1-0.3,0.7-0.8,1.9-1.1c5.6-1.4,15.8-3.5,27.4-3.5
			c10.3,0,21.7,1.6,31.9,6.7c19.1,12.6,28.9,35.9,33,48.8l0,0c0.2,0.5,0.3,1,0.3,1.4c0,0.5,0,0.8-0.1,0.9c0,0-0.1,0-0.2,0l-0.1,0
			c-0.8-0.1-1.6-0.2-2.6-0.3C658.2,373.6,639.6,369.8,621.1,358.3z M692.3,325.9c-8.3-12.3-26.8-44.1-18.2-73.9
			c8.6-29.9,42.2-50.3,56.2-57.7c1.2-0.6,2.4-0.9,3.7-0.9c2.3,0,4.5,1,5.8,2.9l0,0c8.3,12.3,26.8,44,18.2,73.9
			c-8.5,29.5-41.6,49.8-55.4,57.2l-0.9,0.5c-1.4,0.7-3,1-4.5,0.9C695.1,328.5,693.4,327.5,692.3,325.9z M811.4,310.9
			c-4.6,2.5-7,9.8-10.1,19.1c-4.3,12.7-9.5,28.6-21.8,36.4l-0.2,0.2c-13.7,11.1-33.5,10.6-46.5,10.2c-2.3-0.1-4.5-0.1-6.4-0.1
			c-2.2,0-3.9,0.1-5.2,0.4c-0.1,0-0.2,0-0.2,0c0,0,0,0,0,0l0,0c-0.2-0.4-0.4-1.3-0.1-2.7c2.7-14,9.8-39.8,27.8-55.1
			c20.9-13.8,48.9-11.3,60-9.6c1.1,0.2,2.6,0.1,4.4,0.1c0.1,0,0.2,0,0.3,0C812.7,310.2,812.1,310.5,811.4,310.9z"/>
		<path class="st0" d="M733.9,198.7c-1.5,4.2-4,10.3-5.7,14.5c-1.9,4.8-3.5,9.7-5.1,14.6c-2.8,8.7-7,20.9-9.6,29.5
			c-4.2,14.8-6.2,29.9-9,45.1c-0.8,5.1-1.6,10.2-2.6,15.4c0,0.2-0.2,0.3-0.4,0.3c-0.1,0-0.3-0.1-0.3-0.3c-1.9-10.4-1.9-21-0.8-31.5
			c0.6-5.3,1.6-10.4,3-15.6c2.9-10.1,6.6-19.9,10.5-29.7c3.5-8.5,8.3-20.6,12.3-28.7c2.3-4.7,4.7-9.3,7-13.9
			c0.1-0.2,0.3-0.2,0.5-0.2C733.9,198.3,734,198.5,733.9,198.7L733.9,198.7z M732.6,369.5c5.3-13.8,15.3-25.2,27-33.9
			c11.4-9,24.3-16.1,38-20.9c0.1,0,0.3,0,0.3,0.1c0,0.1,0,0.2-0.1,0.3c-14.5,6.9-28.1,15.9-39.6,27.1c-5.7,6-12.6,13.3-18,19.5
			c-2.4,2.7-4.7,5.4-7.2,8.1C732.9,370,732.5,369.8,732.6,369.5L732.6,369.5z M585.1,324.2c11.1,1.8,21.7,5.4,32.4,8.9
			c4.4,1.6,8.8,3.6,13,5.7c5.9,3.1,11.7,6.5,16.6,11c5.5,5.1,10.8,11.1,13.4,18.3c0.1,0.2-0.3,0.4-0.4,0.2
			c-4.8-5.7-10.3-10.4-16.1-14.9c-7.2-5.5-14.5-11.1-22.7-15.1c-5-2.5-10.1-4.4-15.3-6.4c-6.9-2.7-13.8-5.4-21-7.3
			c-0.1,0-0.2-0.2-0.2-0.3C584.9,324.3,585,324.2,585.1,324.2L585.1,324.2z"/>
	</g>
	<g>
		<path class="st1" d="M118.2,451.5c-2.5-13.7-4.5-27.8-6.1-42l-0.2-1.8c-1.4-12.6-2.8-24.5-3.8-35.6l-0.2-2.5l-2.5-0.2
			c-4.2-0.4-8.2-1.3-11.8-2.7c-10.3-4.1-15.9-11.6-18.9-15.6c-15.9-21.2-14.4-48.3-8.8-52.7c3-2.4,6.5-2.8,6.5-2.8c0,0,0.2,0,0.4,0
			c0.8,0,2.7,0.1,4.7,0.9c2.8,1.2,4.3,11.4,5.4,19.6c2,13.9,4.2,29.6,13.3,38c1.8,1.7,3.9,3,6.3,4.1l4.5,2l-0.3-4.9
			c-2.5-35.2,0.2-56,8.9-69.4c6.9-10.7,18.1-17.1,29.9-17.1c10.7,0,20.3,5.3,26.3,14.5c12.8,19.7,8.5,56,0.7,122
			c-0.5,4.3-1.1,8.8-1.7,13.2l-0.6,4.7l4.5-1.4c4.1-1.3,7.7-3.3,10.6-6c10.8-9.9,13.4-28.6,15.7-45.1c1.5-10.5,3.2-22.4,6.9-23.9
			c2.4-1,4.8-1.1,5.8-1.1c0.3,0,0.5,0,0.6,0c0,0,4.3,0.4,8.1,3.4c6.8,5.4,8.8,38.2-10.4,63.8c-3.7,4.9-10.4,13.9-22.9,18.9
			c-5.4,2.2-11.5,3.4-18.2,3.6l-2.5,0.1l-0.4,2.4c-0.7,4.7-1.5,9.3-2.2,13.5h-26.2L118.2,451.5z"/>
		<path d="M242.1,373.8c-1.3-0.2-3.1-0.6-5-0.9c-1.1-0.2-2.9-0.6-4.1-0.9c1-0.8,3-2.1,6.7-4c0.9-0.4,1.5-1.6,1.3-2.5
			c-0.2-0.9-1-1.3-1.8-0.9c-2.7,1.4-4.9,2.6-6.4,3.7c0.2-11.1-2.4-20.1-6.9-23.7c-5.2-4.1-10.9-4.6-11.1-4.6c-0.2,0-4.5-0.3-8.8,1.5
			c-2,0.8-3.6,2.5-4.8,4.8c-0.1-0.1-0.1-0.2-0.2-0.3c-1.2-2.2-2.3-4.1-3.1-5.5c-0.5-0.9-1.6-1.2-2.5-0.7c-0.9,0.5-1.2,1.6-0.7,2.5
			c0.8,1.5,1.9,3.3,3.1,5.5c0.4,0.7,1,1.8,1.6,2.9c-0.1,0.4-0.3,0.9-0.4,1.3c-1.3-0.5-3.2-1.3-6-2.7c-0.9-0.5-2-0.1-2.5,0.8
			c-0.5,0.9-0.1,2,0.8,2.5c2.8,1.4,4.9,2.4,6.7,3c-0.9,4.2-1.6,9.1-2.3,14.3c-2.2,15.6-4.7,33.2-14,41.8c-1.3,1.2-2.9,2.3-4.6,3.2
			c0.4-3,0.7-6,1.1-8.9c5-42.8,8.6-73.4,7-95.4c2.1,0.9,6.1,0.6,12.9-0.8c1.1-0.2,1.8-1.3,1.6-2.4c-0.2-1.1-1.3-1.8-2.4-1.6
			c-4.8,1-7.4,1.2-8.9,1.2c1.2-1.3,3-3.2,4.1-4.3c2-2,3.7-3.7,5-5.1c0.8-0.8,0.8-2.1,0-2.9c-0.8-0.8-2.1-0.8-2.9,0
			c-1.4,1.4-3.1,3.1-5,5.1c-2.3,2.4-3.9,4-4.9,5.2c-1.2-10-3.8-18.1-8.1-24.6c-7-10.8-18.3-17-31-17c0,0,0,0,0,0
			c-10.6,0-20.7,4.4-28.5,12.1c-0.6-1.4-1.5-3.4-2.8-6.2c-1.2-2.6-2.2-4.8-3.1-6.5c-0.5-1-1.7-1.5-2.8-1c-1,0.5-1.5,1.7-1,2.8
			c0.8,1.7,1.9,3.9,3,6.4c0.6,1.4,1.7,3.7,2.4,5.4c-1.4-0.5-3.8-1.6-8-4.1c-1-0.6-2.3-0.3-2.8,0.7c-0.6,1-0.3,2.3,0.7,2.8
			c4.3,2.6,7.4,4.1,9.7,4.7c-0.6,0.8-1.1,1.5-1.6,2.3c-9.1,14.1-12.1,34-10.1,67.9c-0.3-0.2-0.6-0.5-0.8-0.7
			c-7.7-7-9.8-22.3-11.6-34.7c-1.7-12.1-3-21.6-8.9-24c-3.7-1.5-7.4-1.3-7.6-1.2c-0.2,0-5.1,0.4-9.5,3.9c-3.2,2.5-5.2,8.1-5.7,15.3
			c-0.8-1.1-1.8-2.5-3-4.4c-1.6-2.3-3.1-4.3-4.2-5.8c-0.7-0.9-2-1.1-2.9-0.5c-0.9,0.7-1.1,2-0.5,2.9c1.1,1.5,2.5,3.5,4.2,5.8
			c0.9,1.2,2.4,3.4,3.4,4.9c-1.4-0.2-4-0.9-8.6-2.5c-1.1-0.4-2.3,0.2-2.7,1.2c-0.4,1.1,0.2,2.3,1.2,2.7c6.8,2.5,10.8,3.4,13,2.7
			c0.6,11.9,4.7,26.3,13.6,38.2c1,1.3,2.3,3.1,4.1,5.1c-1.3,0.3-3.1,1.1-6.1,2.3c-2.2,0.9-4.1,1.7-5.6,2.3c-0.9,0.4-1.3,1.4-0.9,2.3
			c0.4,0.9,1.4,1.3,2.3,0.9c1.5-0.6,3.4-1.4,5.6-2.3c1.2-0.5,3.2-1.3,4.7-1.8c-0.5,1.1-1.5,3.1-3.8,6.6c-0.5,0.8-0.3,1.9,0.5,2.4
			c0.8,0.5,1.9,0.3,2.4-0.5c2.6-3.9,4-6.6,4.5-8.6c3.4,3.2,7.9,6.4,13.6,8.7c3.5,1.4,7.3,2.4,11.2,2.9c0.5,5.1,1.1,10.4,1.7,15.9
			c-1.1-0.5-2.5-1.2-4.4-2c-2.2-1-4.1-1.8-5.6-2.5c-0.9-0.4-1.9,0-2.3,0.9c-0.4,0.9,0,1.9,0.9,2.3c1.5,0.6,3.4,1.5,5.5,2.5
			c1.2,0.5,3.2,1.4,4.5,2.1c-1.1,0.4-3.3,1.1-7.4,1.8c-1,0.2-1.6,1.1-1.4,2c0.2,1,1.1,1.6,2,1.4c4.1-0.7,6.9-1.4,8.7-2.3
			c0.4,3.8,0.9,7.7,1.3,11.6l0.2,1.6c0.8,7.5,1.8,15,2.9,22.4c-1.4-0.6-3.4-1.4-6.2-2.4c-2.6-1-4.9-1.8-6.7-2.5
			c-1.1-0.4-2.3,0.2-2.6,1.2c-0.4,1.1,0.2,2.3,1.2,2.6c1.8,0.6,4.1,1.5,6.7,2.5c1.4,0.5,3.9,1.5,5.5,2.2c-1.3,0.6-3.8,1.5-8.5,2.7
			c-1.1,0.3-1.8,1.4-1.5,2.5c0.3,1.1,1.4,1.8,2.5,1.5c5.3-1.3,8.7-2.5,10.7-3.7c0.8,5.3,1.7,10.6,2.7,15.9l0.4,2.1l26.1-0.2h30.8
			l0.4-2.1c0.8-4.4,1.6-9.1,2.3-14c6.5-0.4,12.5-1.7,17.9-3.9c4.4-1.8,8.2-4,11.5-6.4c0.6,2.3,2.5,5.5,6,10.3c0.7,0.9,2,1.1,2.9,0.4
			c0.9-0.7,1.1-2,0.4-2.9c-2.9-3.9-4.2-6.2-4.9-7.5c1.7,0.5,4.2,1.4,5.6,1.9c2.7,0.9,4.9,1.7,6.7,2.4c1.1,0.4,2.3-0.2,2.6-1.2
			c0.4-1.1-0.2-2.3-1.2-2.6c-1.8-0.6-4.1-1.5-6.8-2.4c-3.1-1.1-5.2-1.8-6.7-2.2c4.2-4,7.2-7.8,9.1-10.4c2.4-3.1,4.4-6.4,6.2-9.8
			c1,1.9,2.6,4.4,4.9,7.4c0.7,0.9,2,1.1,2.9,0.4c0.9-0.7,1.1-2,0.4-2.9c-2.9-3.9-4.2-6.2-4.9-7.5c1.7,0.5,4.2,1.4,5.6,1.9
			c2.7,0.9,4.9,1.7,6.7,2.4c1.1,0.4,2.3-0.2,2.6-1.2c0.4-1.1-0.2-2.3-1.2-2.6c-1.8-0.6-4.1-1.5-6.8-2.4c-3.3-1.1-5.5-1.9-7-2.3
			c3.4-8,5.4-16.1,6.3-23.7c0.9,0.2,2.1,0.4,3.6,0.7c2,0.4,3.7,0.7,5.1,0.9c0.8,0.1,1.8-0.6,2.1-1.6
			C243.3,374.9,242.9,373.9,242.1,373.8z M212.3,413.1c-3.7,4.9-10.5,14-23,19c-5.5,2.2-11.6,3.4-18.3,3.6l-2.1,0.1l-0.3,2.1
			c-0.8,4.8-1.5,9.5-2.3,13.9h-26.5l-21.8,0.1c-2.5-13.8-4.6-28.1-6.2-42.3l-0.2-1.6c-1.4-12.7-2.8-24.7-3.8-35.7l-0.2-2.1l-2.1-0.2
			c-4.3-0.4-8.3-1.3-11.9-2.8c-10.4-4.1-16-11.7-19.1-15.8c-16-21.4-14.4-48.7-8.7-53.2c3.1-2.5,6.7-2.8,6.7-2.8c0,0,0.2,0,0.4,0
			c0.9,0,2.9,0.1,4.8,0.9c3.1,1.2,4.5,11.2,5.7,19.9c1.9,13.8,4.2,29.5,13.2,37.8c1.8,1.6,3.9,3,6.2,4l3.9,1.7l-0.3-4.3
			c-2.5-35.8,0.1-56,9-69.7c7-10.8,18.3-17.3,30.2-17.3c0,0,0,0,0,0c10.9,0,20.6,5.3,26.6,14.7c12.9,19.8,8.6,56.2,0.8,122.3
			c-0.5,4.3-1.1,8.8-1.7,13.2l-0.5,4.1l3.9-1.3c4.1-1.3,7.6-3.3,10.4-5.9c10.7-9.8,13.3-28.4,15.6-44.9c0.7-5.2,1.5-10.4,2.5-14.7
			c0.3-0.2,0.6-0.4,0.8-0.7c0.5-0.8,0.6-1.5,0.1-2.7c1-3.1,2.2-5.4,3.7-6c3.2-1.3,6.5-1.1,6.5-1.1c0,0,4.4,0.4,8.3,3.5l0,0
			C230.4,354.9,230.6,388.6,212.3,413.1z"/>
		<path d="M168.7,554.1h-58.1c-4,0-7.3-3.3-7.3-7.3v-2.7c-32.7-15.8-53.8-50.6-54-89.2l0-2.6l90.4-0.5h90.4v2.6
			c0,38.8-21.1,73.9-54,89.7v2.7C176.1,550.8,172.8,554.1,168.7,554.1z M54.5,457.4c1.1,36.2,21.5,68.4,52.4,82.6l1.5,0.7v6
			c0,1.2,1,2.2,2.2,2.2h58.1c1.2,0,2.2-1,2.2-2.2v-6l1.5-0.7c31.2-14.3,51.5-46.8,52.5-83.1h-85.2L54.5,457.4z"/>
		<path class="st0" d="M110.6,548.5c-1,0-1.8-0.8-1.8-1.8v-6.2l-1.7-0.8c-30.7-14.1-51-46-52.2-81.9l73.6-0.4l5.2,0l6,0h84.8
			c-1.1,36.1-21.3,68.2-52.2,82.4l-1.7,0.8v6.2c0,1-0.8,1.8-1.8,1.8H110.6z"/>
		<path class="st0" d="M157.3,290.7c3.6,31.4,4.9,63,4.1,94.5c-0.6,20.6-1.6,41.2-4.1,61.6h-4.5c1.8-28.4,3.3-56.9,3.1-85.3
			c-0.1-15.4-0.5-31.6-1.1-47c-0.4-7.8-0.8-15.7-1.3-23.5C153.4,288.8,157,288.3,157.3,290.7z M131,349c0.7-10,0.8-19.9,1-29.6
			c0.2-10.4,0.3-21.2,1.1-32.3c0.1-1.4-1-2.5-2.4-2.6c-1.4-0.1-2.7,0.9-2.8,2.3c-0.8,11.3-1,22.1-1.2,32.6c-0.2,10-0.3,19.5-1,29.3
			c-2.5,35.5-1.6,67.8,2.7,98.3l5.2,0C129.4,416.6,128.5,384.4,131,349z M220.2,361c-0.1-3.3-5.3-3.3-5.2,0
			c0.4,11.7-2.5,23.4-7,34.1c-2.3,5.3-5,10.5-8.3,15.3c-3.1,4.5-6.7,8.4-11.7,10.8c-5.5,2.6-11.7,4.2-17.6,5.4
			c-3.3,0.7-1.9,5,1.3,4.3c5.7-1.2,11.5-2.1,16.9-4.4c5.8-2.4,10.2-6.3,13.9-11.2c7.5-10,12.5-22,15.4-34.1
			C219.5,374.6,220.4,367.8,220.2,361z M103.6,362.3c-7.5-2.1-13.8-5.9-18.8-12.3c-2.8-3.6-4.1-8.2-5.3-12.5c-1.3-5-2.1-10-2.5-15.2
			c-0.4-5.7-0.2-11.5,0.7-17.2c0.2-1.4-0.3-2.8-1.8-3.2c-1.2-0.3-3,0.4-3.2,1.8c-1.7,11.2-1.3,22.6,1.4,33.6
			c1.2,4.9,2.7,10.3,5.6,14.5c2.6,3.7,6.1,6.6,10,8.7c4.6,2.4,9.6,4,14.5,5.4C107.6,366.9,106.8,363.2,103.6,362.3z"/>
	</g>
	<g>
		<path class="st1" d="M413,354c-10.4,0-20.1-3.5-25.1-5.7c0,0-0.1,0-0.1-0.1c3.2-4.5,11.7-14.7,24.6-17.6c2.7-0.6,5.6-0.9,8.6-0.9
			c10.4,0,20.1,3.5,25.1,5.7c0,0,0.1,0,0.1,0.1c-3.2,4.5-11.7,14.7-24.6,17.6C419,353.7,416.1,354,413,354z M404.8,294.6
			c1.5-14.2-5.2-27.5-8.4-32.8c-4.2,4.5-13.4,15.9-14.9,30c-1.5,14.2,5.2,27.5,8.4,32.8C394,320.1,403.3,308.7,404.8,294.6z
			 M364.1,224.6c3-13.9-2.3-27.9-4.8-33.5c-4.6,4-15.1,14.3-18,28.2c-3,13.9,2.3,27.9,4.8,33.5C350.7,248.8,361.1,238.5,364.1,224.6
			z M375.5,274.8c5.1-11,3.5-23.5,2.4-29.1c-4.9,2.7-15.4,9.5-20.4,20.5c-5.1,11-3.5,23.5-2.4,29.1
			C360,292.5,370.5,285.8,375.5,274.8z M396.1,390.8c10.5-3.5,16.3-13.9,18.3-18.3c-0.1,0-0.1-0.1-0.3-0.2
			c-3.9-1.6-11.8-4.2-19.9-4.2c-3.4,0-6.6,0.5-9.4,1.4c-10.5,3.5-16.3,13.9-18.3,18.3c0.1,0,0.1,0.1,0.3,0.2
			c3.9,1.6,11.8,4.2,19.9,4.2C390.1,392.2,393.3,391.8,396.1,390.8z M337,277.8c-0.7-4.5-2.9-14.8-9.4-20.5
			c-5-4.4-11.6-5.4-16.3-5.4c-0.8,0-1.7,0-2.5,0.1c0.7,4.5,2.9,14.8,9.4,20.5c5,4.4,11.6,5.4,16.3,5.4
			C335.4,277.9,336.2,277.9,337,277.8z M339.6,343.4c-5.2-8-15-10.7-19.3-11.5c-0.6,4.9-1.4,17.1,4,25.5c5.2,8,14.9,10.7,19.3,11.5
			C344.3,363.9,345.1,351.7,339.6,343.4z M313.5,386.8c0-0.1,0-0.2-0.1-0.3c-2.2-5.1-8.5-17.6-18.7-22.7c-3.5-1.8-7.6-2.7-12-2.7
			c-5.9,0-11.2,1.6-13.9,2.6c0,0.1,0,0.2,0.1,0.3c2.2,5.1,8.5,17.6,18.7,22.7c3.5,1.8,7.6,2.7,12,2.7
			C305.5,389.5,310.8,387.9,313.5,386.8z M306.4,338.3c3.4-6.3,11.3-22.8,10.6-39.2c-0.7-15.5-8.8-27-12.9-31.8c0,0,0,0,0,0
			c-3.4,6.3-11.3,22.8-10.6,39.2C294.1,322.1,302.3,333.6,306.4,338.3C306.3,338.3,306.3,338.3,306.4,338.3z"/>
		<path d="M353,299.8c0.5,0.2,1,0.3,1.5,0.3c0.7,0,1.4-0.2,2-0.5c5-2.6,17.2-10.2,23.1-22.9c5.9-12.7,3.7-27.1,2.6-32.7
			c-0.3-1.4-1.1-2.4-2.2-2.9c-1.1-0.5-2.4-0.4-3.6,0.2c-5,2.6-17.2,10.2-23.1,22.9c-3.7,8.1-4.2,16.9-3.8,23.6
			c-1.5-8.8-3.4-17.5-5.7-26.2c-0.6-2.2-1.2-4.4-1.8-6.6c0.6,1.3,1.7,2.2,2.9,2.5c0.3,0.1,0.5,0.1,0.8,0.1c1,0,2-0.4,2.9-1.1
			c4.8-4.1,16.4-15.4,19.8-30.9c3.3-15.5-2.6-30.8-5.3-36.6c-0.6-1.4-1.7-2.3-3-2.6c-1.3-0.3-2.6,0.1-3.7,1.1
			c-4.8,4.1-16.4,15.4-19.8,30.9c-1.4,6.8-1.1,13.5-0.1,19.4c-0.8-2.4-1.7-4.8-2.6-7.2c-0.6-1.6-2.4-2.4-4-1.8
			c-1.6,0.6-2.4,2.4-1.8,4c3.7,10,7,20.2,9.6,30.5c0.3,1,0.5,2,0.7,2.9c-1.7-4.4-4.2-8.8-8-12.2c-7.8-7-18.7-6.8-23-6.3
			c-1,0.1-1.9,0.6-2.6,1.4c-0.7,0.9-1,2.1-0.8,3.3c0.4,3.1,1.3,7.4,3.1,11.9c-0.1-0.2-0.3-0.4-0.4-0.5c-0.9-1-2.1-1.5-3.3-1.4
			c-1.4,0.2-2.8,1.2-3.6,2.8c-3.6,6.7-11.8,24.1-11.1,41.6c0.4,9.7,3.5,17.9,6.9,24.2c-4.8-6.1-10-11.9-15.7-17.3
			c-1.2-1.2-3.2-1.1-4.4,0.1c-1.2,1.2-1.1,3.2,0.1,4.4c9,8.6,16.9,18.2,23.5,28.5c-3.1-1.9-6.5-3.3-10.4-4
			c-17.3-3.1-30.4,9.3-31.8,10.7c-1,1-1,2.6,0,3.7c1,1,2.6,1,3.7,0c1.2-1.2,12.5-11.9,27.2-9.3c11.4,2,17.8,10.3,25.5,26.5
			c1.1,2.8,2.1,5.7,3.1,8.5c-3.4-7.1-9.8-17.8-19.8-22.8c-11.6-5.8-24.6-2.1-29.7-0.2c-1.1,0.4-2,1.3-2.4,2.3
			c-0.5,1.2-0.5,2.6,0.1,4c3,6.9,9.7,19.3,20.8,24.9c4.6,2.3,9.5,3.1,14,3.1c6.8,0,12.7-1.8,15.7-2.9c1.1-0.4,2-1.2,2.4-2.3
			c0.2-0.5,0.3-1.1,0.3-1.6c2.5,8.4,4.1,16.5,5.2,24.3c1,7.1,1.4,13.9,1.4,20.2h6.2c-0.1-6.4-0.5-13.1-1.4-20.2
			c-2.1-16.5-6.9-34.8-16.2-53.3c-2.7-5.3-5.7-10.5-8.9-15.5c0.6,0.4,1.3,0.7,2,0.7c0.1,0,0.3,0,0.4,0c1.4-0.2,2.8-1.2,3.6-2.8
			c3.6-6.7,11.8-24.1,11.1-41.6c-0.4-9.1-3.1-16.9-6.2-22.9c6.1,5.5,14.2,6.5,19.4,6.5c1.4,0,2.6-0.1,3.6-0.2c1-0.1,1.9-0.6,2.6-1.4
			c0.5-0.6,0.7-1.3,0.8-2c5,24.2,7.3,49,6.7,74.3c0,0.2,0,0.4,0,0.5c0,0.3,0,0.6,0,0.9c-0.6-4.7-2-9.5-4.7-13.6
			c-6.3-9.8-18-12.8-22.7-13.6c-1.1-0.2-2.2,0.1-3.1,0.7c-1,0.7-1.6,1.9-1.8,3.2c-0.8,6.7-1.3,19.2,4.7,28.5
			c6.3,9.8,18,12.8,22.7,13.6c0.2,0,0.5,0.1,0.7,0.1c0.8,0,1.6-0.3,2.3-0.8c0.4-0.3,0.7-0.6,1-1c-1,13.1-2.8,26.4-5.2,39.8
			c-1.2,6.7-2.7,13.4-4.3,20.2h6.4c1.6-6.8,3-13.5,4.2-20.2c4.7-25.6,6.7-50.9,6-75.7c1.1-12.8,8.9-19.2,17.8-26.6
			c0.8-0.7,1.6-1.4,2.5-2c1.1-0.9,1.2-2.5,0.3-3.6c-0.9-1.1-2.6-1.2-3.7-0.3c-0.8,0.7-1.6,1.4-2.4,2c-5.8,4.8-11.5,9.5-15.2,15.9
			c-0.5-7.7-1.4-15.4-2.5-23C351.6,298.8,352.2,299.4,353,299.8z M356.2,265.5c5.5-11.9,17-19,21.7-21.5c0.3-0.2,0.6-0.2,0.8-0.1
			c0.2,0.1,0.4,0.4,0.5,0.8c1.1,5.3,3.1,18.8-2.3,30.7c-5.5,11.9-17,19-21.7,21.5c-0.3,0.2-0.6,0.2-0.8,0.1
			c-0.2-0.1-0.4-0.4-0.5-0.8C352.7,291,350.7,277.4,356.2,265.5z M314.8,387.5c-0.1,0.3-0.4,0.5-0.7,0.6c-4.7,1.7-16.7,5.2-27.2,0
			c-10.6-5.3-17.1-18.1-19.3-23.4c-0.2-0.5-0.3-1.1-0.1-1.5c0.1-0.3,0.4-0.5,0.7-0.6c2.8-1.1,8.3-2.8,14.6-2.8
			c4.1,0,8.4,0.7,12.6,2.8c10.6,5.3,17.1,18.1,19.3,23.4C315,386.5,315,387.1,314.8,387.5z M318.4,299c0.7,16.8-7.3,33.5-10.7,40
			c-0.4,0.8-1,1.2-1.3,1.2c-0.2,0-0.4-0.1-0.6-0.3c-3.9-4.5-13-16.6-13.7-33.3c-0.7-16.8,7.3-33.5,10.7-40c0.5-0.8,1-1.2,1.3-1.2h0
			c0.2,0,0.4,0.1,0.6,0.3C308.5,270.2,317.6,282.4,318.4,299z M338.3,279c-0.1,0.1-0.2,0.2-0.4,0.2c-3.9,0.4-13.7,0.6-20.6-5.6
			c-7-6.2-9.3-17.3-9.9-21.8c-0.1-0.4,0-0.7,0.2-0.9c0.1-0.1,0.2-0.2,0.4-0.2c0.9-0.1,2-0.1,3.3-0.1c4.7,0,11.9,0.9,17.3,5.7
			c7,6.2,9.3,17.3,9.9,21.8C338.6,278.4,338.5,278.8,338.3,279z M339.8,219c3.1-14.6,14.2-25.3,18.7-29.2c0.3-0.3,0.6-0.4,0.9-0.4
			c0.1,0,0.1,0,0.2,0c0.3,0.1,0.6,0.4,0.8,0.8c2.6,5.6,8.2,20.1,5,34.7c-3.1,14.5-14.1,25.3-18.7,29.2c-0.4,0.3-0.7,0.4-1,0.4
			c-0.3-0.1-0.6-0.4-0.8-0.8C342.3,248.1,336.7,233.6,339.8,219z M345,369.1c-0.1,0.5-0.3,0.9-0.6,1.1c-0.2,0.1-0.4,0.2-0.7,0.2
			c-4.3-0.8-15-3.5-20.7-12.2c-5.7-8.8-4.8-21.5-4.2-26.5c0.1-0.5,0.3-0.9,0.6-1.1c0.2-0.1,0.4-0.2,0.7-0.2
			c4.3,0.8,15,3.5,20.7,12.2C346.5,351.4,345.7,364.1,345,369.1z M450.8,334.3c-0.4-1.3-1.4-2.4-2.9-3.1c-6.1-2.6-21.8-8.3-36.5-5
			c-7.5,1.7-13.6,5.5-18.2,9.5c7.2-8.3,15.2-16,24.1-23.2c1.3-1.1,1.5-3,0.5-4.4c-1.1-1.3-3-1.5-4.4-0.5
			c-5.2,4.2-10.1,8.6-14.8,13.1c4.5-6.2,9.5-15.3,10.6-25.8c1.7-15.7-5.8-30.3-9.1-35.8c-0.8-1.3-1.9-2.1-3.2-2.2
			c-1.3-0.1-2.6,0.4-3.6,1.4c-4.4,4.6-14.7,17.1-16.4,32.8c-1.7,15.7,5.8,30.3,9.1,35.8c0.8,1.3,1.9,2.1,3.2,2.2c0.1,0,0.3,0,0.4,0
			c0.3,0,0.7-0.1,1-0.1c-7.3,8.2-13.8,16.9-19.4,26c-11.8,19.3-18.3,38.5-21.7,56.1c-1.4,7-2.2,13.8-2.7,20.2h6.2
			c0.5-6.4,1.4-13.2,2.8-20.2c1.5-7.3,3.5-14.8,6.2-22.5c0.1,0.2,0.1,0.4,0.2,0.7c0.5,1.2,1.5,2.2,2.9,2.7c4.9,1.9,13,4.5,21.5,4.5
			c3.6,0,7.3-0.5,10.9-1.7c12.3-4.1,18.8-16,21-20.9c0.5-1.1,0.5-2.3,0.1-3.4c-0.5-1.2-1.5-2.2-2.9-2.7c-7-2.8-20.5-6.8-32.3-2.8
			c-9,3-14.8,10.1-18.2,15.7c3.1-7.4,6.8-14.9,11.4-22.4c2.1-3.4,4.3-6.7,6.6-10c0,0.3,0.1,0.6,0.2,0.9c0.4,1.3,1.4,2.4,2.9,3
			c4.8,2.1,15.5,6,26.9,6c3.2,0,6.4-0.3,9.5-1c14.7-3.4,24.1-14.9,27.5-19.7C450.9,336.7,451.1,335.5,450.8,334.3z M365.2,387.5
			c2.1-4.5,8-15.5,19.2-19.2c11.3-3.8,24.9,0.7,30.2,2.8c0.5,0.2,1,0.6,1.1,1c0.1,0.3,0.1,0.6,0,0.9c-2.1,4.5-8,15.5-19.2,19.3
			c-11.3,3.8-24.9-0.7-30.2-2.8c-0.5-0.2-1-0.6-1.1-1C365.1,388.1,365.1,387.8,365.2,387.5z M390.7,325.8c-0.3,0.4-0.7,0.5-1,0.5
			c-0.3,0-0.7-0.3-0.9-0.7c-3.1-5.3-10.3-19.1-8.7-33.9s11.4-26.6,15.5-31c0.3-0.4,0.7-0.5,1-0.5c0.3,0,0.7,0.3,0.9,0.7
			c3.1,5.3,10.3,19.1,8.7,33.9C404.6,309.6,394.8,321.4,390.7,325.8z M447.6,336c-3.2,4.5-12,15.4-25.7,18.5
			c-13.7,3.1-28.7-2.3-34.5-4.8c-0.6-0.3-1-0.6-1.1-1c-0.1-0.3,0-0.6,0.2-0.9c3.2-4.5,12-15.4,25.7-18.5c2.9-0.7,5.9-0.9,8.9-0.9
			c10.9,0,21.1,3.8,25.7,5.8c0.6,0.2,1,0.6,1.1,1C447.9,335.4,447.8,335.7,447.6,336z"/>
		<path class="st0" d="M396.6,445.5c-0.1-4.5-0.2-9.2-0.3-13.8H288.8c0,7-0.2,13.9-0.3,20.7c-0.5,29-1,56.3,5.1,82.6
			c1.9,8.1,8.9,13.7,17.1,13.7h63.6c8.3,0,15.5-5.9,17.2-13.9C397.8,505.4,397.2,476.3,396.6,445.5z"/>
		<path d="M404.2,411.4H280.6c-5.7,0-9.1,4.6-6,7.9l8.7,9.2c0,8-0.1,15.9-0.3,23.6c-0.5,29.3-1,57,5.3,83.9
			c2.5,10.6,11.7,18,22.6,18h63.6c10.9,0,20.4-7.7,22.6-18.4c6.3-29.8,5.7-59.2,5.1-90.4c-0.1-5.4-0.2-11-0.3-16.6l8.4-9.5
			C413.3,415.8,409.8,411.4,404.2,411.4z M392,534.7c-1.7,8.3-9.1,14.2-17.6,14.2h-63.6c-8.4,0-15.6-5.8-17.5-14
			c-6.1-26.3-5.6-53.7-5.1-82.7c0.1-6.7,0.2-13.7,0.3-20.7h0.4h107.5h0.4c0.1,4.7,0.2,9.3,0.2,13.8
			C397.6,476.3,398.2,505.4,392,534.7z"/>
	</g>
	<g>
		<path class="st1" d="M497.5,442.8l-5.2-13.8c-1.8-4.8-3.6-9.1-5.4-13.4c-4.6-10.9-9.8-21.6-15.3-32.1c6.7,5.3,16.2,14.7,25.2,27.2
			l9.2,12.9l0.2-15.9c0.3-22.5,5.5-42.2,9.7-54.5c4,11.8,9,30.4,9.7,51.9l0.6,18l9.1-15.5c11.6-19.7,26.9-34.4,36.5-41.4
			c-6,10.3-11.6,20.9-16.6,31.6c-4.5,9.7-8.7,19.6-12.3,29.3l-5.6,14.9l13.3-8.8c7.5-4.9,14.2-8.4,19.5-10.6
			c-6.5,6.4-12.8,13.2-18.7,20H497.5z M479.6,442.8c-0.2-0.2-0.3-0.4-0.5-0.6c-6.1-7.7-12.6-15.3-19.3-22.5c6.4,3,15.1,8,24.4,15.3
			l9.9,7.8H479.6z"/>
		<path d="M553.7,449.5H477c-0.6,0-1.2-0.3-1.6-0.8c-0.7-0.9-1.4-1.7-2-2.6c-7.8-9.9-16.3-19.5-25.1-28.4c-0.1-0.1-0.2-0.2-0.3-0.3
			c-1.8-2.7-3.4-5.7-1.7-7.8c3.6-4.3,21.2,3.9,36.5,14.7c-0.9-2.2-1.8-4.3-2.6-6.4c-5.4-12.9-11.7-25.6-18.5-37.7
			c-0.1-0.1-0.1-0.2-0.2-0.4c-1.1-3.3-1.9-7,0.4-8.5c5.2-3.6,23.7,12.6,37.1,29.9c1.3-25.1,8.1-46.2,12.2-57c0.7-2,2.6-3.2,4.6-3.2
			c0,0,0,0,0,0c2.1,0,3.9,1.3,4.6,3.2c3.9,10.1,10.3,29.9,12,53.6c16.2-24.9,38.3-42.3,45.8-43.8c1.4-0.3,2.5-0.1,3.4,0.5
			c2.2,1.7,1.3,5.3,0.1,8.5c0,0.1-0.1,0.2-0.2,0.4c-7.3,11.9-14,24.4-19.9,37c-3.6,7.6-6.9,15.3-9.9,23.1
			c12.8-7.6,28.8-14.4,32-10.2c1.6,2.1-0.1,5.1-2,7.7c-0.1,0.1-0.2,0.2-0.3,0.3c-9.2,8.6-18,17.9-26.2,27.5v0c0,0-0.1,0.1-0.1,0.1
			C554.9,449.3,554.3,449.5,553.7,449.5z M478.1,445.4h74.7c8.1-9.5,16.8-18.5,25.8-27.1c0.8-1.1,1.2-1.9,1.4-2.4
			c-3.6,0.1-15.5,3.8-31.2,14.2c-0.7,0.5-1.7,0.4-2.4-0.1c-0.7-0.6-1-1.5-0.7-2.3c3.6-9.7,7.7-19.5,12.2-29.1
			c6-12.7,12.7-25.2,20-37.2c0.6-1.8,0.9-2.8,0.9-3.4c-5.9,1.1-30,19.8-46.3,47.5c-0.5,0.8-1.4,1.2-2.3,1c-0.9-0.2-1.5-1-1.6-1.9
			c-0.8-26-7.9-48-12.1-58.9c-0.2-0.5-0.6-0.6-0.8-0.6c0,0,0,0,0,0c-0.2,0-0.6,0.1-0.8,0.6c-4.4,11.4-11.7,34.5-12.1,61.5
			c0,0.9-0.6,1.7-1.5,1.9c-0.9,0.3-1.8,0-2.3-0.8c-15.1-21.1-30.5-32.3-34.6-33.5c0,0.6,0.2,1.6,0.8,3.4c6.9,12.2,13.1,25,18.6,38
			c1.8,4.2,3.5,8.6,5.3,13.3c0.3,0.9,0,1.9-0.7,2.4c-0.8,0.6-1.8,0.5-2.5,0c-16.8-13.3-31.8-19.2-36.1-19.5c0.2,0.5,0.6,1.3,1.4,2.5
			c8.9,9.1,17.4,18.7,25.3,28.6C477.1,444.2,477.6,444.8,478.1,445.4z"/>
		<path d="M578,447.6c-1.4-1.7-3.8-2.7-6.2-2.7H457.9c-2.5,0-4.8,1-6.3,2.7c-1.2,1.4-1.7,3.1-1.4,4.8l13.2,83h-7.2
			c-3.5,0-4.5,2.8-2.2,6.3l3.9,6c2.3,3.5,6.4,6.3,9.2,6.3h95.4c2.8,0,7-2.8,9.2-6.3l3.9-6c2.3-3.5,1.3-6.3-2.2-6.3H567l12.4-83.1
			C579.6,450.7,579.1,449,578,447.6z M574.3,451.6l-12.5,83.8h-0.4H469h-0.4l-13.3-83.8c0-0.1,0-0.3,0.2-0.6
			c0.4-0.4,1.2-0.9,2.3-0.9h113.8c1.1,0,2,0.5,2.3,0.9C574.3,451.3,574.3,451.6,574.3,451.6z"/>
		<path class="st0" d="M573.9,451.6l-12.6,83.9H469l-13.3-83.9c0-0.1,0-0.2,0.1-0.3c0.3-0.3,1-0.7,2-0.7h113.8c1,0,1.7,0.4,2,0.7
			C573.8,451.3,573.9,451.5,573.9,451.6z"/>
	</g>
	<path d="M79.8,668.7c0.5,0.5,0.7,1.1,0.7,1.7c0,0.6-0.3,1.1-0.7,1.6c-0.5,0.5-1.1,0.7-1.9,0.7h-6.7l-6.4,0l-6.4,0
		c-1.2,0-2.2-0.4-2.9-1.2c-0.7-0.8-1.1-1.7-1.1-2.7c0-3.3,0.1-6.5,0.1-9.7c0-16.3-0.7-32.5-1.9-48.6v-0.3c0-1,0.3-1.8,1-2.6
		c0.7-0.8,1.6-1.2,2.8-1.4c4-0.3,9.6-0.7,16.8-1.1h0.1c1.6,0,2.4,0.7,2.6,2.2c0,0.6-0.2,1.2-0.7,1.7c-0.4,0.5-1,0.8-1.8,0.8
		l-12.6,0.8c0.9,11.1,1.4,21.9,1.6,32.7l13.7,0.6c0.7,0,1.4,0.3,1.8,0.7c0.4,0.5,0.7,1,0.7,1.6c0,0.7-0.3,1.3-0.7,1.7
		c-0.5,0.5-1.1,0.7-1.9,0.7l-13.4-0.5c0.1,3.4,0.1,7.2,0.1,11.3l0,8.3h15.3C78.7,668,79.3,668.2,79.8,668.7z M110,641.8
		c1.2,10,1.9,20.3,1.9,30.6v1.4c0,0.7-0.3,1.2-0.7,1.7c-0.5,0.5-1.1,0.7-1.9,0.7c-0.7,0-1.4-0.3-1.9-0.7c-0.5-0.5-0.7-1-0.7-1.7
		c0-5.6-0.1-10.9-0.4-15.8l-12.3,0c-0.4,5-0.6,10.3-0.6,15.9c0,1.1-0.4,2-1.2,2.7c-0.7,0.8-1.8,1.2-3,1.2s-2.2-0.4-2.9-1.2
		c-0.8-0.7-1.2-1.7-1.2-2.7v-0.6c0-22.4,3.3-43.7,9.8-63.9c0.7-1.8,2-2.7,3.9-2.7c0.4,0,0.9,0,1.4,0.2c1.8,0.7,2.6,1.9,2.8,3.4
		C106.4,621,108.7,631.5,110,641.8z M105.9,653.2c-0.9-12.6-2.7-23.8-5.6-33.6c-3,9.9-4.9,21.1-6,33.5L105.9,653.2z M130.9,633.7
		c-1.3-1.3-2.4-2.5-3.4-3.5c-1.2-1.3-2.4-2.7-3.4-4.2c-1.2-1.7-1.8-3.3-1.8-5c0-1.3,0.4-2.6,1.3-4c0.3-0.5,0.7-1,1.4-1.5
		c2.4-2.3,5.6-3.4,9.8-3.4c1.1,0,1.9,0,2.5,0.1c0.6,0.1,1.1,0.2,1.3,0.2c0.5,0,1-0.1,1.4-0.4c0.8-0.5,1.2-1.1,1.2-2.1
		c0-0.4-0.1-0.8-0.4-1.2c-0.5-1-2.5-1.5-5.9-1.5l-1.8,0c-2.9,0.1-5.6,0.8-8.2,2.3c-2.6,1.5-4.5,3.1-5.7,4.9c-1.9,3-2.9,6.2-2.9,9.6
		c0,2.4,0.6,4.6,1.7,6.7c0.8,1.4,1.9,2.8,3.3,4.3c1.2,1.3,2.4,2.6,3.7,3.8c3.5,3.4,6,6.4,7.7,8.9c1.2,1.8,2.2,3.9,3.3,6.6
		c1,2.6,1.5,5.2,1.5,7.8c0,3.9-2,6.3-5.9,7.3c-1.1,0.3-2.2,0.4-3.3,0.4c-1.1,0-2.2-0.3-3.3-0.7c-1.7-0.9-3.3-2.5-5-4.8
		c-0.5-0.7-1.2-1-2.1-1c-0.6,0-1.1,0.2-1.7,0.5c-0.6,0.5-0.9,1.1-0.9,1.9c0,0.5,0.1,0.9,0.4,1.3c2.1,3,4.4,5.1,6.9,6.3
		c1.7,0.8,3.6,1.2,5.7,1.2h0.8c1.3,0,2.5-0.2,3.7-0.5c2.3-0.5,4.1-1.4,5.6-2.5c3.9-3.2,6.1-7.7,6.5-13.5c0-1.5-0.3-3-0.7-4.6
		C142.7,647.4,138.2,640.7,130.9,633.7z M157.3,613.9c0-1-0.4-1.9-1.1-2.7c-0.7-0.7-1.7-1.2-2.9-1.3c-1.2,0-2.2,0.4-3,1.1
		c-0.8,0.7-1.3,1.6-1.3,2.7c-0.3,6.9-0.4,13.7-0.4,20.5l0,6.3c0.3,18.4,1,28.2,2.3,29.3c0.7,0.6,1.5,1,2.5,1l0.5,0
		c1.2-0.1,2.2-0.6,3-1.4c0.7-0.8,1-1.7,1-2.7c-0.7-11.1-1-21.9-1-32.4C156.9,627.4,157,620.6,157.3,613.9z M181.8,670.5l-12.1,0.3
		c0.1-19.5,1.1-39.4,3-59.5v-0.3c0-0.9-0.3-1.8-1-2.6c-0.7-0.9-1.8-1.3-3.1-1.3c-1.1,0-2,0.3-2.7,1c-0.8,0.7-1.2,1.5-1.4,2.6
		c-1.9,20.8-3,41.2-3.1,61.2c0,1.1,0.4,2,1.1,2.7c0.7,0.7,1.7,1.1,2.9,1.2c0.4,0,0.7,0,0.9-0.1l15.5-0.4c0.7,0,1.4-0.3,1.9-0.8
		c0.4-0.5,0.7-1,0.7-1.6c0-0.7-0.3-1.2-0.7-1.7C183.2,670.7,182.6,670.5,181.8,670.5z M205.1,607.1c-0.5-0.7-1.2-1-2.2-1
		c-0.6,0-1.1,0.2-1.6,0.5c-0.5,0.4-0.8,0.8-1,1.5l-5.5,27.3l-7.5-25.4c-0.3-1-1-1.8-2-2.3c-0.6-0.3-1.2-0.4-2-0.4
		c-1.7,0-2.9,0.7-3.6,2c-0.3,0.6-0.5,1.2-0.5,1.8c0,0.4,0,0.7,0.2,1.1l10.5,35.6l2.2,21c0.1,1.1,0.6,1.9,1.4,2.6
		c0.8,0.6,1.8,0.9,2.8,0.9h0.4c1.2-0.2,2.1-0.6,2.7-1.4c0.6-0.7,0.9-1.6,0.9-2.6l-1.1-10.9c-0.8-7-1.2-10.7-1.2-11.2
		c5-24.9,7.5-37.5,7.5-37.6C205.6,608,205.4,607.6,205.1,607.1z M256.7,622.3c1.8,4.4,2.6,9.2,2.6,14.2c0,7-1.5,13.6-4.6,19.7
		c-1,1.9-2.6,4.1-4.7,6.6c-2.1,2.5-4.5,4.5-7,6.2c-2.5,1.7-4.8,2.5-7.1,2.5c-1.7,0-2.9-0.5-3.7-1.5c-0.5-0.8-0.8-1.6-0.8-2.4l0-0.6
		c2-13.2,3-26.1,3-38.7c0-5.7-0.2-11.5-0.6-17.2V611c0-1,0.3-1.8,1-2.5c0.8-1,1.9-1.5,3.2-1.5c2.4,0,4.9,0.8,7.4,2.5
		c2.5,1.7,4.8,3.7,6.8,6C254.3,618,255.8,620.2,256.7,622.3z M254.1,636.5c0-4.5-0.8-8.6-2.3-12.5c-2.3-5.5-5.4-8.9-9.4-10.4
		c0.3,4.4,0.4,9.1,0.4,14.4c0,13.1-0.9,25.4-2.6,37.1c3.7-1.5,7-5.1,9.9-10.8C252.8,648.7,254.1,642.8,254.1,636.5z M271.7,613.9
		c0-1-0.4-1.9-1.1-2.7c-0.7-0.7-1.7-1.2-2.9-1.3c-1.2,0-2.2,0.4-3,1.1c-0.8,0.7-1.3,1.6-1.3,2.7c-0.3,6.9-0.4,13.7-0.4,20.5l0,6.3
		c0.3,18.4,1,28.2,2.3,29.3c0.7,0.6,1.5,1,2.5,1l0.5,0c1.2-0.1,2.2-0.6,3-1.4c0.7-0.8,1-1.7,1-2.7c-0.7-11.1-1-21.9-1-32.4
		C271.2,627.4,271.4,620.6,271.7,613.9z M291.4,633.7c-1.3-1.3-2.4-2.5-3.4-3.5c-1.2-1.3-2.4-2.7-3.4-4.2c-1.2-1.7-1.8-3.3-1.8-5
		c0-1.3,0.4-2.6,1.3-4c0.3-0.5,0.7-1,1.4-1.5c2.4-2.3,5.6-3.4,9.8-3.4c1.1,0,1.9,0,2.5,0.1c0.6,0.1,1.1,0.2,1.3,0.2
		c0.5,0,1-0.1,1.4-0.4c0.8-0.5,1.2-1.1,1.2-2.1c0-0.4-0.1-0.8-0.4-1.2c-0.5-1-2.5-1.5-5.9-1.5l-1.8,0c-2.9,0.1-5.6,0.8-8.2,2.3
		c-2.6,1.5-4.5,3.1-5.7,4.9c-1.9,3-2.9,6.2-2.9,9.6c0,2.4,0.6,4.6,1.7,6.7c0.8,1.4,1.9,2.8,3.3,4.3c1.2,1.3,2.4,2.6,3.7,3.8
		c3.5,3.4,6,6.4,7.7,8.9c1.2,1.8,2.2,3.9,3.3,6.6c1,2.6,1.5,5.2,1.5,7.8c0,3.9-2,6.3-5.9,7.3c-1.1,0.3-2.2,0.4-3.3,0.4
		c-1.1,0-2.2-0.3-3.3-0.7c-1.7-0.9-3.3-2.5-5-4.8c-0.5-0.7-1.2-1-2.1-1c-0.6,0-1.1,0.2-1.7,0.5c-0.6,0.5-0.9,1.1-0.9,1.9
		c0,0.5,0.1,0.9,0.4,1.3c2.1,3,4.4,5.1,6.9,6.3c1.7,0.8,3.6,1.2,5.7,1.2h0.8c1.3,0,2.5-0.2,3.7-0.5c2.3-0.5,4.1-1.4,5.6-2.5
		c3.9-3.2,6.1-7.7,6.5-13.5c0-1.5-0.3-3-0.7-4.6C303.1,647.4,298.6,640.7,291.4,633.7z M334.8,607.1h-26.1c-0.7,0-1.4,0.3-1.9,0.7
		c-0.5,0.5-0.7,1-0.7,1.6c0,0.6,0.3,1.1,0.7,1.6c0.5,0.5,1.1,0.7,1.9,0.7h8.3l0-0.4v0.3c1,13.1,1.5,26.6,1.5,40.4
		c0,4.5,0,10-0.1,16.4c0,1.1,0.4,2,1.1,2.7c0.7,0.7,1.7,1.1,2.9,1.2c1.2,0,2.2-0.4,3-1.1c0.7-0.7,1.1-1.7,1.2-2.7
		c0.1-6.4,0.1-12,0.1-16.6c0-14.5-0.5-28.2-1.5-40.9l0.1,0.6h9.4c0.7,0,1.4-0.3,1.9-0.7c0.5-0.5,0.7-1,0.7-1.6
		c0-0.6-0.3-1.1-0.7-1.6C336.2,607.3,335.6,607.1,334.8,607.1z M364.3,651.2c1.1,3.3,1.7,6.7,1.7,10.2c0,2.6-0.4,4.1-1.1,4.8
		c-0.4,0.4-1,0.6-1.7,0.6c-0.8,0-1.5-0.3-1.9-0.7c-0.4-0.5-0.7-1.1-0.7-1.6v-0.1c0.1-0.9,0.1-1.9,0.1-2.8c0-3-0.5-5.9-1.4-8.9
		c-1.1-3.5-3.3-6.7-6.3-9.8c-1,0.5-2.5,1-4.3,1.5l0.5,0c0.1,6.8,0.3,13.9,0.6,21.2v0.1c0,1-0.4,1.9-1.1,2.6
		c-0.7,0.8-1.6,1.2-2.9,1.3h-0.2c-1.1,0-2.1-0.4-2.9-1.1c-1.3-1.1-1.9-12.1-1.9-32.8c0-8.8,0.2-17.6,0.6-26.4
		c0.1-1.1,0.5-1.9,1.3-2.6c0.8-0.7,1.8-1.1,3-1.1c2.6,0.3,5.6,1.5,8.9,3.5c3.3,2.1,5.7,4.2,7.3,6.3c2.2,3.2,3.3,6.6,3.3,10.1
		c0,3.1-0.8,6.1-2.4,8.9c-1.5,2.6-3.3,4.5-5.5,6C360.7,643.6,363,647.2,364.3,651.2z M358.3,632c1.2-2.1,1.8-4.3,1.8-6.6
		c0-2.7-0.8-5.2-2.5-7.7c-1.9-2.8-4.6-4.8-7.9-6c-0.3,7.6-0.5,15.5-0.5,23.8v3.7c0.6-0.2,1.6-0.6,3-1.4l0,0
		C355,636.2,357,634.3,358.3,632z M394.3,641.8c1.2,10,1.9,20.3,1.9,30.6v1.4c0,0.7-0.3,1.2-0.7,1.7c-0.5,0.5-1.1,0.7-1.9,0.7
		c-0.7,0-1.4-0.3-1.9-0.7c-0.5-0.5-0.7-1-0.7-1.7c0-5.6-0.1-10.9-0.4-15.8l-12.3,0c-0.4,5-0.6,10.3-0.6,15.9c0,1.1-0.4,2-1.2,2.7
		c-0.7,0.8-1.8,1.2-3,1.2c-1.2,0-2.2-0.4-2.9-1.2c-0.8-0.7-1.2-1.7-1.2-2.7v-0.6c0-22.4,3.3-43.7,9.8-63.9c0.7-1.8,2-2.7,3.9-2.7
		c0.4,0,0.9,0,1.4,0.2c1.8,0.7,2.6,1.9,2.8,3.4C390.7,621,393,631.5,394.3,641.8z M390.3,653.2c-0.9-12.6-2.7-23.8-5.6-33.6
		c-3,9.9-4.9,21.1-6,33.5L390.3,653.2z M423.9,671.1c-0.4-0.3-1.3-0.6-2.7-0.9l-2-0.5c-1.2-0.3-2.5-0.9-3.9-1.9
		c-1.5-1.1-2.9-2.6-4.2-4.7c-1.1-2.1-1.9-4.2-2.3-6.2c-0.7-3.4-1.1-7.9-1.1-13.4c0-0.4,0-2.2,0-5.5c0-3.2,0.6-7.7,1.8-13.4
		c1.1-5.7,2.9-9.7,5.2-12.2c0.9-0.8,2.2-1.3,3.8-1.7c2.2-0.4,3.2-1.1,3.2-2.3c0-0.8-0.5-1.5-1.7-1.9c-0.4-0.2-1-0.3-1.6-0.3
		c-3.1,0-5.9,1-8.2,3c-2.3,1.9-4.3,4.5-5.8,7.6c-1.5,3.1-2.7,6.7-3.5,10.6c-0.8,4.3-1.3,8.8-1.3,13.4c0,6.2,0.8,11.9,2.3,17.2
		c1.5,5.2,3.9,9.4,7.1,12.6c3,3,6.7,4.5,11.2,4.5l1.1,0c0.8,0,1.7-0.4,2.4-1c0.4-0.4,0.6-0.7,0.6-1c0-0.3,0-0.5,0-0.7v0
		C424.5,671.8,424.3,671.4,423.9,671.1z M456.7,607.1h-26.1c-0.7,0-1.4,0.3-1.9,0.7c-0.5,0.5-0.7,1-0.7,1.6c0,0.6,0.3,1.1,0.7,1.6
		c0.5,0.5,1.1,0.7,1.9,0.7h8.3l0-0.4v0.3c1,13.1,1.5,26.6,1.5,40.4c0,4.5,0,10-0.1,16.4c0,1.1,0.4,2,1.1,2.7
		c0.7,0.7,1.7,1.1,2.9,1.2c1.2,0,2.2-0.4,3-1.1c0.7-0.7,1.1-1.7,1.2-2.7c0.1-6.4,0.1-12,0.1-16.6c0-14.5-0.5-28.2-1.5-40.9l0.1,0.6
		h9.4c0.7,0,1.4-0.3,1.9-0.7c0.5-0.5,0.7-1,0.7-1.6c0-0.6-0.3-1.1-0.7-1.6C458.1,607.3,457.5,607.1,456.7,607.1z M488.2,668h-15.3
		l0-8.3c0-4.1,0-7.9-0.1-11.3l13.4,0.5c0.8,0,1.4-0.2,1.9-0.7c0.5-0.4,0.7-1.1,0.7-1.7c0-0.6-0.2-1.1-0.7-1.6
		c-0.4-0.5-1.1-0.7-1.8-0.7l-13.7-0.6c-0.2-10.8-0.7-21.6-1.6-32.7l12.6-0.8c0.7,0,1.4-0.4,1.8-0.8c0.4-0.5,0.7-1.1,0.7-1.7
		c-0.2-1.5-1.1-2.2-2.6-2.2h-0.1c-7.2,0.4-12.8,0.7-16.8,1.1c-1.2,0.1-2.1,0.6-2.8,1.4c-0.7,0.7-1,1.6-1,2.6v0.3
		c1.2,16.1,1.9,32.3,1.9,48.6c0,3.3,0,6.5-0.1,9.7c0,1.1,0.4,1.9,1.1,2.7c0.7,0.7,1.7,1.1,2.9,1.2l6.4,0l6.4,0h6.7
		c0.7,0,1.4-0.3,1.9-0.7c0.5-0.5,0.7-1,0.7-1.6c0-0.6-0.2-1.1-0.7-1.7C489.6,668.2,488.9,668,488.2,668z M519.5,622.3
		c1.8,4.4,2.6,9.2,2.6,14.2c0,7-1.5,13.6-4.6,19.7c-1,1.9-2.6,4.1-4.7,6.6c-2.1,2.5-4.5,4.5-7,6.2c-2.5,1.7-4.8,2.5-7.1,2.5
		c-1.7,0-2.9-0.5-3.7-1.5c-0.5-0.8-0.8-1.6-0.8-2.4l0-0.6c2-13.2,3-26.1,3-38.7c0-5.7-0.2-11.5-0.6-17.2V611c0-1,0.3-1.8,1-2.5
		c0.8-1,1.9-1.5,3.2-1.5c2.4,0,4.9,0.8,7.4,2.5c2.5,1.7,4.8,3.7,6.8,6C517.1,618,518.6,620.2,519.5,622.3z M517,636.5
		c0-4.5-0.8-8.6-2.3-12.5c-2.3-5.5-5.4-8.9-9.4-10.4c0.3,4.4,0.4,9.1,0.4,14.4c0,13.1-0.9,25.4-2.6,37.1c3.7-1.5,7-5.1,9.9-10.8
		C515.6,648.7,517,642.8,517,636.5z M576.3,650.3c1.6,2.5,2.4,5.1,2.4,7.8c0,2.4-0.6,4.7-1.8,7c-2.2,3.7-5.5,6.4-9.9,8.4
		c-4.4,1.9-8.4,2.9-12.2,2.9l-1.1,0c-1.2-0.1-2.2-0.5-2.8-1.3c-0.7-0.8-1-1.6-1-2.6v-0.3c0.5-7.4,0.8-14.7,0.8-22
		c0-13.2-0.9-26.4-2.6-39.6v-0.4c0-0.8,0.3-1.6,0.8-2.3c0.7-1.1,2-1.6,3.7-1.6c1.8,0,3.8,0.4,5.9,1.4c2.5,1.1,4.8,2.4,7,4
		c5.7,4.2,8.6,9.3,8.6,15.2c0,3-0.8,6-2.5,8.9c-1.9,3.2-4.1,5.4-6.5,6.8C569.9,643.4,573.6,646,576.3,650.3z M556.6,612.3
		c1.2,9.2,1.9,18.9,2.2,29v-0.8c3.7-1.5,6.4-3.7,8.3-7c1.2-2.2,1.9-4.4,1.9-6.6c0-2.8-0.8-5.3-2.5-7.7
		C564.2,615.9,560.9,613.6,556.6,612.3z M573.5,658.2c0-2-0.5-3.8-1.6-5.5c-1.2-1.8-3-3.3-5.3-4.5c-2.3-1.1-4.9-1.8-7.7-1.8l0,3.3
		c0,7.4-0.3,14.5-0.7,21.2c3.2-0.4,6.1-1.3,8.6-2.8c2.5-1.5,4.3-3.3,5.4-5.3C573.1,661.4,573.5,659.9,573.5,658.2z M601.9,607.1
		c-0.5-0.7-1.2-1-2.2-1c-0.6,0-1.1,0.2-1.6,0.5c-0.5,0.4-0.8,0.8-1,1.5l-5.5,27.3l-7.5-25.4c-0.3-1-1-1.8-2-2.3
		c-0.6-0.3-1.2-0.4-2-0.4c-1.7,0-2.9,0.7-3.6,2c-0.3,0.6-0.5,1.2-0.5,1.8c0,0.4,0,0.7,0.2,1.1l10.5,35.6l2.2,21
		c0.1,1.1,0.6,1.9,1.4,2.6c0.8,0.6,1.8,0.9,2.8,0.9h0.4c1.2-0.2,2.1-0.6,2.7-1.4c0.6-0.7,0.9-1.6,0.9-2.6l-1.1-10.9
		c-0.8-7-1.2-10.7-1.2-11.2c5-24.9,7.5-37.5,7.5-37.6C602.3,608,602.2,607.6,601.9,607.1z M649.2,617.3c2.7,4.1,4.1,8.4,4.1,13.1
		c0,4-1,7.7-2.9,11.3c-3.1,5.6-8.2,9.6-15.2,11.8l-0.7,0.1l0.8,0.1c0.1,5.9,0.3,12.1,0.6,18.7c0,1-0.4,1.9-1.1,2.7
		c-0.7,0.7-1.7,1.2-2.9,1.3c-1.2,0-2.2-0.4-3-1.1c-1.3-1.2-2-12.5-2-34v-1.9c0-20.3,0.7-31,2-32.2c0.7-0.7,1.7-1,2.8-1h0.2
		c3,0.3,6.1,1.6,9.5,4C645,612.6,647.6,615,649.2,617.3z M648.1,630.5c0-3.8-1.1-7.3-3.3-10.6c-2.3-3.3-5.3-5.8-8.9-7.2
		c-0.4,8.5-0.5,17.4-0.5,26.8l0,9c4.6-1.6,8.1-4.5,10.4-8.8C647.3,636.7,648.1,633.6,648.1,630.5z M677.2,670.5l-12.1,0.3
		c0.1-19.5,1.1-39.4,3-59.5v-0.3c0-0.9-0.3-1.8-1-2.6c-0.7-0.9-1.8-1.3-3.1-1.3c-1.1,0-2,0.3-2.7,1c-0.8,0.7-1.2,1.5-1.4,2.6
		c-1.9,20.8-3,41.2-3.1,61.2c0,1.1,0.4,2,1.1,2.7c0.7,0.7,1.7,1.1,2.9,1.2c0.4,0,0.7,0,0.9-0.1l15.5-0.4c0.7,0,1.4-0.3,1.9-0.8
		c0.4-0.5,0.7-1,0.7-1.6c0-0.7-0.3-1.2-0.7-1.7C678.6,670.7,678,670.5,677.2,670.5z M708.2,641.8c1.2,10,1.9,20.3,1.9,30.6v1.4
		c0,0.7-0.3,1.2-0.7,1.7c-0.5,0.5-1.1,0.7-1.9,0.7c-0.7,0-1.4-0.3-1.9-0.7c-0.5-0.5-0.7-1-0.7-1.7c0-5.6-0.1-10.9-0.4-15.8l-12.3,0
		c-0.4,5-0.6,10.3-0.6,15.9c0,1.1-0.4,2-1.2,2.7c-0.7,0.8-1.8,1.2-3,1.2c-1.2,0-2.2-0.4-2.9-1.2c-0.8-0.7-1.2-1.7-1.2-2.7v-0.6
		c0-22.4,3.3-43.7,9.8-63.9c0.7-1.8,2-2.7,3.9-2.7c0.4,0,0.9,0,1.4,0.2c1.8,0.7,2.6,1.9,2.8,3.4C704.6,621,706.9,631.5,708.2,641.8z
		 M704.1,653.2c-0.9-12.6-2.7-23.8-5.6-33.6c-3,9.9-4.9,21.1-6,33.5L704.1,653.2z M746.4,610.7c0-0.6-0.3-1.2-0.7-1.6
		c-0.5-0.5-1.1-0.7-1.9-0.7c-0.7,0-1.4,0.3-1.8,0.8c-0.5,0.4-0.7,1-0.7,1.6l1,49.8c-1.4-2.7-5.2-12.2-11.5-28.4
		c-4-10.3-7.1-18.1-9.5-23.2c-0.8-1.5-2.1-2.3-3.7-2.3c-0.6,0-1.3,0.2-1.9,0.4c-1.1,0.8-1.8,3-1.9,6.5c0,1,0,2,0,3.1
		c0,4,0.4,10.5,1.1,19.7c0.5,5.6,0.7,14.5,0.7,27.1c0,3.4,0,6.9-0.1,10.4c0,0.7,0.3,1.2,0.7,1.7c0.4,0.4,1.1,0.7,1.8,0.7
		c0.8,0,1.5-0.2,1.9-0.7c0.4-0.4,0.7-1,0.7-1.6l0-9.7c0-14.9-0.3-27.4-0.9-37.5c0,0.1,1.1,2.8,3.1,8.2c3.2,8.3,6.3,16.2,9.5,23.6
		c3.1,7.5,5.8,12.7,8,15.7c0.8,1,1.9,1.5,3.3,1.5c0.8,0,1.6-0.2,2.4-0.7c0.8-0.4,1.3-1.1,1.5-1.9c0-0.4,0.1-1.7,0.1-3.9
		c0-5.4-0.1-14.5-0.5-27.2L746.4,610.7z M781,611.8c0.7,0,1.4-0.3,1.9-0.7c0.5-0.5,0.7-1,0.7-1.6c0-0.6-0.3-1.1-0.7-1.6
		c-0.5-0.5-1.1-0.7-1.9-0.7h-26.1c-0.7,0-1.4,0.3-1.9,0.7c-0.5,0.5-0.7,1-0.7,1.6c0,0.6,0.3,1.1,0.7,1.6c0.5,0.5,1.1,0.7,1.9,0.7
		h8.3l0-0.4v0.3c1,13.1,1.5,26.6,1.5,40.4c0,4.5,0,10-0.1,16.4c0,1.1,0.4,2,1.1,2.7c0.7,0.7,1.7,1.1,2.9,1.2c1.2,0,2.2-0.4,3-1.1
		c0.7-0.7,1.1-1.7,1.2-2.7c0.1-6.4,0.1-12,0.1-16.6c0-14.5-0.5-28.2-1.5-40.9l0.1,0.6H781z M810.7,653.7c-1.7-6.3-6.1-13-13.4-20
		c-1.3-1.3-2.4-2.5-3.4-3.5c-1.2-1.3-2.4-2.7-3.4-4.2c-1.2-1.7-1.8-3.3-1.8-5c0-1.3,0.4-2.6,1.3-4c0.3-0.5,0.7-1,1.4-1.5
		c2.4-2.3,5.6-3.4,9.8-3.4c1.1,0,1.9,0,2.5,0.1c0.6,0.1,1.1,0.2,1.3,0.2c0.5,0,1-0.1,1.4-0.4c0.8-0.5,1.2-1.1,1.2-2.1
		c0-0.4-0.1-0.8-0.4-1.2c-0.5-1-2.5-1.5-5.9-1.5l-1.8,0c-2.9,0.1-5.6,0.8-8.2,2.3c-2.6,1.5-4.5,3.1-5.7,4.9c-1.9,3-2.9,6.2-2.9,9.6
		c0,2.4,0.6,4.6,1.7,6.7c0.8,1.4,1.9,2.8,3.3,4.3c1.2,1.3,2.4,2.6,3.7,3.8c3.5,3.4,6,6.4,7.7,8.9c1.2,1.8,2.2,3.9,3.3,6.6
		c1,2.6,1.5,5.2,1.5,7.8c0,3.9-2,6.3-5.9,7.3c-1.1,0.3-2.2,0.4-3.3,0.4c-1.1,0-2.2-0.3-3.3-0.7c-1.7-0.9-3.3-2.5-5-4.8
		c-0.5-0.7-1.2-1-2.1-1c-0.6,0-1.1,0.2-1.7,0.5c-0.6,0.5-0.9,1.1-0.9,1.9c0,0.5,0.1,0.9,0.4,1.3c2.1,3,4.4,5.1,6.9,6.3
		c1.7,0.8,3.6,1.2,5.7,1.2h0.8c1.3,0,2.5-0.2,3.7-0.5c2.3-0.5,4.1-1.4,5.6-2.5c3.9-3.2,6.1-7.7,6.5-13.5
		C811.4,656.7,811.1,655.2,810.7,653.7z"/>
	<path d="M797.5,572.2h-731c-4.7,0-8.5-3.8-8.5-8.5v0c0-4.7,3.8-8.5,8.5-8.5h731c4.7,0,8.5,3.8,8.5,8.5v0
		C806,568.3,802.2,572.2,797.5,572.2z"/>
</g>
</svg>
