<?xml version="1.0" encoding="utf-8"?>
<!-- Generator: Adobe Illustrator 23.0.1, SVG Export Plug-In . SVG Version: 6.00 Build 0)  -->
<svg version="1.1" id="Layer_1" xmlns="http://www.w3.org/2000/svg" xmlns:xlink="http://www.w3.org/1999/xlink" x="0px" y="0px"
	 viewBox="0 0 864 864" style="enable-background:new 0 0 864 864;" xml:space="preserve">
<g id="oYa1aA.tif">
	<g>
		<path d="M94.4,493.9c0.2-16.8,1.6-33.4,4.2-50c0.1-0.8,0-1.6,0-2.4c-0.5,0.6-1.1,1.1-1.6,1.8c-0.7,1-1.3,2.1-2,3
			c-1.1,1.3-2.1,1.2-3.1-0.2c-0.4-0.6-0.8-1.3-1.1-1.9c-3.6-7-7.4-13.9-10.9-21c-2.3-4.6-4.2-9.5-6.2-14.2
			c-2.5-5.9-2.7-12.1-2.1-18.4c1.3-14.3,7.3-26.3,17.2-36.6c2.3-2.4,4.8-4.6,7.1-6.9c0.7-0.7,1.4-1.6,1.7-2.6
			c2.7-7.4,5.9-14.6,9.5-21.7c0.3-0.6,0.4-1.4,0.5-2.1c-0.6,0.4-1.3,0.7-1.7,1.2c-4.9,5.3-10.5,9.7-16.4,13.7
			c-5.9,4.1-12.4,7-19.5,8.6c-1.6,0.4-3.2,0.8-4.8,1.2c-1.1,0.2-2.2,0.5-3.3,0.6c-3.6,0.4-4.9-0.8-4.9-4.3
			c0.4-18.7,8.8-32.8,24.8-42.5c5.1-3.1,10.5-5.1,16.5-5.4c4.3-0.2,8.5,0.5,12.7,1.7c2.9,0.9,5.7,1.9,8.5,2.8c2.1,0.7,2.1,0.7,3.6-1
			c4.2-5,8.3-10.1,12.6-15c2.3-2.6,4.8-4.9,7.2-7.4c0.4-0.4,0.6-1.1,0.9-1.6c-0.6-0.1-1.1-0.3-1.7-0.3c-5.2,0.3-10.3-0.6-15.4-1.7
			c-6.5-1.3-12.9-2.9-18.9-5.8c-3.1-1.5-5.9-3.3-8.5-5.5c-2.8-2.4-5.7-4.7-8.7-6.8c-1.6-1.1-2-3.4,0.3-4.4c3.1-1.4,6-3.1,9-4.6
			c5.6-2.9,11.5-4.1,17.7-4.8c16.9-2.1,31.3,3.5,44,14.3c0.9,0.7,1.6,1.6,2.3,2.4c1.1,1.2,1.4,1.3,2.7,0.5c4.9-2.8,9.9-5.3,15.3-7.2
			c1.5-0.5,1.7-0.9,1.3-2.6c-0.3-1.6-0.6-3.2-1-4.9c-0.4-1.9-0.5-2.1-2.6-1.9c-11.7,1-22.9-0.9-33.8-4.9c-11-4-20.9-9.8-30-17
			c-12.7-10.2-23-22.4-30.1-37.1c-1.2-2.6-2.3-5.2-3.3-7.9c-1.3-3.6,0.6-6.1,4.5-5.9c0.9,0,1.8,0.2,2.7,0.4c3.1,0.7,6.2,1.4,9.2,2.2
			c8.1,2.2,15.6,0.5,22.6-3.8c13.5-8.3,28-13.7,43.5-16.6c7.9-1.5,15.8-1.6,23.7,0.6c2.2,0.6,4.3,1.4,6.4,2.2
			c1.2,0.5,2.1,0.4,3.1-0.5c4.9-4.4,10.6-7.6,16.6-10.3c2.8-1.2,5.7-2,8.7-2.3c4-0.3,7.9-0.7,11.9-1.1c4.8-0.6,9.4,0.3,13.9,2.1
			c1.8,0.8,3.5,1.6,5.3,2.4c1.9,0.8,2.3,0.5,2.4-1.4c0-2.3,0.1-4.5-0.1-6.8c-0.4-4.5-0.4-9,0.4-13.5c1.7-9.6,6.2-17.6,14-23.6
			c3.6-2.8,7.5-4.9,11.9-6.2c5.4-1.6,10.7-1.8,16.2,0c2.6,0.9,5.2,1.5,7.8,2.1c4.1,1,7.8,2.7,11.2,5.1c2.5,1.8,5,3.5,7.6,5.3
			c1.8,1.2,3.9,2,6,2.3c4.3,0.7,8.6,1.1,13,0.9c3.7-0.2,7.5-0.2,11.2-0.1c2.9,0.1,5.3,1,7.2,3.5c2.8,3.6,2.2,3,5.9,1.8
			c2.8-0.9,5.6-0.8,8.5-0.3c1.1,0.2,2.4,0.7,3.3,1.4c4,3.1,6.8,7,6.8,12.3c0,1.1-0.1,2.3,0,3.4c0,0.5,0.3,1,0.5,1.6
			c0.3-0.4,0.6-0.8,0.7-1.3c0.7-2.8,1.4-5.7,1.9-8.6c0.6-3.4,1.1-6.8,1.5-10.2c0.2-2.2,0.2-4.3,0.2-6.5c-0.1-2.1-0.5-2.4-2.5-1.7
			c-1.4,0.4-2.7,1.1-4,1.4c-3.3,0.8-6.6,1.7-9.9,2c-5.1,0.5-9.4-3.6-9.3-8.7c0-3.5,1.7-6,5-7.2c2.7-1,5.4-1.2,8.2-0.7
			c3.1,0.5,6.3,0.7,9.2,2.1c1.1,0.5,1.6,0,1.3-1.2c-0.9-3-1.9-6-2.8-9c-0.3-0.9-1-1.1-1.8-0.9c-1.4,0.5-2.8,1.1-4.2,1.5
			c-1.8,0.5-3.6,1.1-5.4,1.4c-1.9,0.3-3.7-0.2-5.5-1c-2.2-1.1-3.2-2.9-3.3-5.2c-0.2-2.2,1.1-3.9,3.4-4.7c2.9-1,5.8-1.3,8.9-1.3
			c0.8,0,1.7-0.2,2.6-0.3c-0.4-0.9-0.7-1.8-1.2-2.6c-0.4-0.6-1-1.1-1.4-1.7c-1-1.4-2.2-1.6-3.9-1.2c-4.5,1.1-8.9-1-11.1-5
			c-2.1-3.9-1.5-8.7,1.6-11.9c3.2-3.2,8-3.9,12-1.8c3.7,1.9,5.8,6,5.1,10.4c-0.3,2,0.1,3.3,1.5,4.6c0.8,0.7,1.4,1.6,2,2.4
			c1.6,1.9,1.6,1.8,3-0.1c1.6-2.1,3.1-4.2,5-6.1c1.3-1.3,2.9-2.4,4.6-3.2c5-2.3,9.8,1.1,9.2,6.5c-0.2,1.7-0.8,3.6-1.6,5.1
			c-2.4,4.1-5.8,7.1-10.2,8.8c-0.5,0.2-1,0.4-1.5,0.6c-1,0.4-1.4,1.1-1,2.2c0.9,2.7,1.8,5.4,2.8,8.1c0.5,1.2,1,1.2,1.9,0.2
			c1.7-1.8,3.4-3.6,5.2-5.3c1.2-1,2.6-1.9,4-2.5c3.6-1.6,6.4,0.4,6.2,4.3c-0.2,3.4-1.7,6.4-3.9,8.9c-1.1,1.2-2.3,2.4-3.5,3.5
			c-1.3,1.1-2.5,2.2-4,2.9c-2.4,1.2-2.9,3-2.5,5.4c1,6.3,0.4,12.6-0.2,18.9c0,0.3-0.1,0.6-0.1,0.9c0.1,0.6,0.2,1.2,0.4,1.8
			c0.4-0.5,0.9-0.9,1.3-1.4c0.3-0.4,0.5-0.9,0.7-1.4c1.8-4.1,4.7-7.2,8.3-9.9c2.9-2.1,5.5-4.6,8.3-6.9c0.7-0.6,0.8-1.2,0.5-2
			c-0.9-2.3-1.1-4.6-0.8-7.1c0.1-1.1-0.1-2.2-0.2-3.4c-0.3-3.4,0.9-6.7,1.5-10c0.9-5.3,2.5-10.4,5.5-14.9c1.5-2.3,3.1-4.6,4.7-6.9
			c1.8-2.7,4.7-3.4,7.5-4.2c6.7-1.8,13.5-1.8,20.3,0c3.5,0.9,7,2.2,10.5,3.3c0.5,0.2,1,0.4,1.5,0.4c5,0,10,0.4,14.6-2.6
			c4-2.6,8.2-4.6,12.8-6.1c1.6-0.5,3.2-1.3,4.7-2.1c3.1-1.6,6.5-2.4,9.9-2.9c8.2-1,14.6,2.4,19.9,8.3c1.2,1.3,2.1,2.9,3.2,4.4
			c0.9,1.2,1.1,1.2,2.4,0.6c0.5-0.2,0.9-0.6,1.4-0.7c2.2-0.9,4.4-2.1,6.7-2.5c6.1-1,12.4-1.7,18.6-1.3c15.4,0.9,30,5.1,44.4,10.3
			c4.2,1.5,7.8,3.9,11.1,6.8c1.2,1,2.2,2.3,2.9,3.7c3.2,7,5.7,14.3,6.5,21.9c0.6,5.3-0.2,10.6-0.8,15.9c-0.1,0.9-0.3,1.8-0.4,2.7
			c-0.2,1.7,0.2,2,1.9,1.5c0.7-0.2,1.4-0.5,2.1-0.9c5.4-2.8,10.5-1.5,15,1.9c6.2,4.8,9.8,11.4,12,18.9c0.3,1.2,0.2,2.5,0.2,3.8
			c0,0.7-0.2,1.3-0.2,2c0,2.4,0.4,2.8,2.7,3.3c14.1,2.6,26.8,8.2,37.9,17.3c3.1,2.6,6.1,5.3,9,8.2c7.5,7.4,15.3,14.7,23.6,21.2
			c4.7,3.7,10,6.6,15.4,9.2c2,0.9,3.8,2.1,5.6,3.3c1.3,0.8,1.9,2.1,1.5,3.7c-0.4,1.6-1.4,2.5-3,2.7c-1.7,0.2-3.4,0.5-5.1,0.3
			c-4.8-0.5-9.6-0.8-14.4-0.1c-2.8,0.5-5.6,1.1-8.3,1.9c-7.8,2.2-15.2,5.6-22.6,9c-8.1,3.7-16.3,7-24.8,9.5
			c-1.8,0.6-3.1,1.4-3.5,3.3c-0.2,1-0.8,2-1.3,2.9c-1.8,3.2-3.7,6.3-5.6,9.5c-0.5,0.9-0.8,1.7-0.5,2.8c1.1,3.1,1.6,6.4,1.8,9.7
			c0,0.1,0,0.3,0.1,0.4c0.3,0.8,0.6,1.6,0.9,2.4c1.1-0.4,0.8-1.5,1.1-2.3c1.2-3.4,2.3-6.8,3.4-10.2c1.2-3.7,2.5-7.4,3.8-11.1
			c0.3-0.8,0.4-1.6,0.8-2.3c0.9-2,1.9-2.3,4.1-2.3c3.3,0.1,6.1,1.4,8.7,3.2c4.3,3.1,8.5,6.2,12.6,9.4c1.3,1,2.4,1.3,3.9,0.6
			c8.1-3.3,19.8-6,25.6-7.1c1.9-0.4,3.3-1.1,4.4-2.8c4.7-6.9,9.7-13.5,15.7-19.4c2.6-2.5,5.5-4.6,8.8-6.2c3.9-1.8,7.9-2.4,12.1-1.4
			c1.4,0.3,2.7,0.9,3.9,1.6c3.4,2.2,4.3,5.9,2.3,9.4c-1.9,3.4-4.5,6.2-7.5,8.6c-2.4,1.8-4.9,3.4-7.4,5.1c-0.4,0.3-0.9,0.5-1.3,0.9
			c-0.4,0.4-0.3,0.8,0.2,1c0.2,0.1,0.4,0.1,0.7,0.2c2.6,0.2,5.2,0.4,7.9,0.5c0.9,0,1.9-0.4,2.7-0.9c4.1-2.4,8-5.1,12.1-7.4
			c6.8-3.8,13.9-6.9,22-6.2c2.5,0.2,4.9,0.8,7.2,1.8c4.6,2.2,6.3,7.1,4,11.7c-0.7,1.4-1.8,2.8-3,3.9c-2.5,2.2-5.3,4-8.7,4.3
			c-0.7,0.1-1.3,0.5-2,0.8c0.6,0.5,1.1,1.1,1.8,1.5c1.7,0.9,3.6,1.6,5.3,2.5c1.8,1,3.4,1,5.3,0.2c5-2.1,10.7-0.7,14.1,3.5
			c3.9,4.7,4.6,10,1.3,15c-3.3,4.9-9.6,7-15.1,5c-5.4-1.9-8.8-7.2-8.3-12.8c0.2-2.3,0.1-2.5-2.1-3.2c-1.1-0.4-2.1-0.7-3.2-1
			c-0.5-0.1-1.1,0-1.7,0.1c0.2,0.5,0.4,1.1,0.7,1.5c1.7,2,3.1,4.3,3.5,7c0.2,1.7,0.4,3.5,0.2,5.1c-0.5,4.6-4.1,7.7-8.7,7.8
			c-4.6,0.1-8.5-1.8-12.1-4.3c-7.7-5.2-13.1-12.5-17.4-20.6c-1-1.8-2.1-2.6-4-2.5c-1.2,0.1-2.4,0-3.6,0.1c-0.2,0-0.6,0.3-0.7,0.5
			c0,0.2,0.2,0.5,0.4,0.7c1.1,0.9,2.3,1.6,3.5,2.5c2.4,1.9,4.1,4.3,5,7.3c0.7,2.5,0.1,4.5-1.8,6c-4.8,3.6-10.1,5.5-16,3.6
			c-2.8-0.9-5.4-2.3-7.9-3.8c-3.8-2.2-7.1-5-10.3-8c-1.5-1.5-3.1-2.8-4.6-4.3c-0.9-0.9-2-1.3-3.3-1c-4.3,1-6.5,1.6-11.5,3.3
			c-0.5,0.2-1,0.4-1.5,0.6c-0.8,0.3-1.1,0.9-0.9,1.8c0.4,1.7,0.9,3.3,1.3,5c0.3,1.3,1.3,1.2,2.3,1.2c2.8,0,5.6-0.2,8.3,0.1
			c8.4,0.9,14.9,5.2,20.1,11.6c5.9,7.2,9.9,15.4,13.2,23.9c1.1,2.8,2,5.7,2.7,8.6c1.4,6.3,0,12.3-2.1,18.3
			c-1.6,4.6-4.2,8.8-6.5,13.1c-0.4,0.8-0.8,1.6-1.3,2.4c-3.2,5.3-4.2,11-3.6,17.1c0.4,4.1,1.9,7.8,3.7,11.5
			c1.7,3.5,3.3,7.1,4.7,10.7c1.4,3.6,1.4,7.4-0.1,11c-0.6,1.5-1.2,3.1-2,4.5c-0.9,1.8-0.9,1.9,0.8,2.7c3,1.4,6,2.8,9,4.2
			c1.5,0.7,1.6,0.6,2.8-0.8c2.7-3.2,5.3-6.6,8.3-9.5c5.1-5,11.3-7.9,18.3-9.1c5.2-0.9,9.3,1.1,12.8,4.6c1.8,1.7,1.6,4,0.7,6.1
			c-1.3,3.3-3.4,6.1-6.8,7.5c-3.5,1.5-7.1,2.8-10.8,3.8c-4,1.1-8,1.9-12.1,2.8c-0.7,0.2-1.3,0.6-1.9,0.9c0.4,0.5,0.8,1,1.3,1.4
			c1.8,1.4,3.6,2.7,5.4,4.1c0.8,0.6,1.5,0.7,2.5,0.4c2.9-1.1,5.8-2.1,8.7-3.1c6.8-2.3,13.7-3.4,20.8-1.9c3,0.6,5.8,1.7,8.1,3.8
			c0.9,0.8,1.7,1.9,2.3,3c1.4,2.7,0.7,4.8-2.1,6.1c-2.5,1.2-5.2,2-8,2c-2,0-4.1-0.2-6-0.5c-5.7-0.9-11.4-1.9-16.7-4.4
			c-0.3-0.2-0.7-0.3-1.1-0.4c-0.3,0-0.6,0.1-0.8,0.1c0.1,0.3,0,0.7,0.2,1c0.3,0.4,0.8,0.7,1.1,1.1c3.9,3.6,7.8,7.3,10.9,11.6
			c1.1,1.4,2.2,1.9,4,1.8c2.7-0.2,5.4-0.3,8.1,0.1c8,1.1,14.6,4.8,19.5,11.3c1.8,2.4,2.4,5,1.9,7.9c-0.1,0.7-0.3,1.5-0.7,2.1
			c-1.4,2.4-6.3,4.2-9,3.4c-2.7-0.9-5.3-2.1-7.3-4.2c-2-2-4-4-6.1-6c-0.2-0.2-0.6-0.3-0.9-0.4c0.1,0.3,0.1,0.6,0.2,0.8
			c2.1,5,4.3,10.1,6.4,15.1c0.5,1.2,1.5,1.4,2.5,1.6c3.8,0.9,6.9,2.9,9.2,6.1c3.7,5,4,12.2,0.7,17.4c-3.5,5.6-9.9,8.4-16.3,7.2
			c-6.4-1.2-11.3-6.1-12.4-12.4c-1.3-6.8,1.5-12,6.6-16.2c0.3-0.3,0.7-0.5,1.1-0.8c1.4-1.1,1.5-1.4,1-3.1c-0.5-1.6-1.1-3.3-1.9-4.8
			c-2.3-4.5-4.7-9.1-7.2-13.5c-0.6-1.1-1.4-2.1-2.2-3.1c-0.1-0.2-0.5-0.2-0.8-0.3c-0.1,0.3-0.3,0.6-0.2,0.8c0.2,1.2,0.5,2.3,0.8,3.5
			c1.1,5.4,1.3,10.9,0,16.3c-0.2,0.9-0.5,1.9-0.9,2.8c-1.2,3.2-3.8,4.7-7,5.4c-2.8,0.6-5.7-1.2-6.4-4.1c-0.5-2.1-0.7-4.5-0.5-6.7
			c0.7-7.4,2.8-14.4,6.9-20.7c1.7-2.6,1.7-2.6-0.5-4.9c-3-3.1-6-6.3-9-9.4c-0.7-0.7-1.6-1.4-2.5-2c-0.3-0.2-0.8-0.2-1.2-0.3
			c0,0.4-0.1,0.9,0.1,1.3c0.5,1.3,1.1,2.6,1.7,3.9c3.3,6.5,3.2,13.2,0.7,19.9c-1.1,2.9-5.9,6-9,5.8c-1.5-0.1-2.6-0.8-3.4-1.9
			c-2.4-3.2-4.2-6.7-4.4-10.9c-0.2-4.1-0.1-8.3,0.7-12.3c0.8-3.6,1.8-7.1,3.8-10.3c0.9-1.3,0.8-1.5-0.4-2.4c-3.9-2.7-8-5.1-12.4-6.7
			c-0.6-0.2-1.4-0.1-2.1-0.1c0.1,0.6,0.2,1.3,0.4,1.9c2.2,4.5,4.1,9,4.5,14.1c0.7,9.9,0.1,19.5-4.4,28.6c-0.6,1.1-0.9,2.4-1.3,3.6
			c-0.5,1.6-1.2,2.3-2.3,2.4c-1.3,0-2-0.8-2.4-1.9c-0.6-1.6-1.8-2.8-3.1-3.8c-4.3-3.2-8.9-5.9-13.7-8.2c-2-0.9-3.8-2.1-5.2-3.8
			c-1-1.2-1.3-1.2-2.3-0.1c-2.3,2.3-4.9,4.2-7.8,5.7c-1.6,0.8-1.8,1.4-1.3,3.1c0.2,0.7,0.4,1.4,0.7,2.1c2.2,5.2,4.5,10.3,6.8,15.5
			c0.8,1.9,1.2,2.1,3.3,1.9c13.1-1.5,25.4,1.1,37.1,6.8c6.2,3,11.2,7.5,15.9,12.4c0.6,0.6,1.1,1.3,1.7,1.8c3.7,3.5,6.5,7.7,8.7,12.2
			c2,4.1,3.8,8.3,5.6,12.5c1.1,2.5,0,3.9-2.7,3.8c-3.4-0.1-6.8-0.4-10.1-0.1c-8.8,0.7-17-1.5-24.9-4.9c-5.2-2.2-10.2-4.9-15.1-7.6
			c-2.9-1.6-5.5-3.8-8.3-5.8c-0.4-0.3-0.8-0.7-1.2-1c-0.4-0.3-0.9-0.4-1.4-0.6c-0.2,0.5-0.5,1.1-0.4,1.6c0.3,3.7,0.9,7.3,1.1,11
			c0.3,6.7,0.4,13.4,0.5,20c0,0.9,0,1.8,0,2.7c0,3,0.1,3,2.8,4c4.5,1.8,9.2,3.4,13.5,5.5c7.8,3.9,13.4,10,17.1,17.9
			c3.3,7.2,5.3,14.7,5.6,22.6c0.2,7.4-1.2,14.7-3.7,21.6c-1.9,5.2-4.6,10-8.1,14.2c-0.4,0.5-0.9,1-1.3,1.5c-1.6,1.7-3.3,1.8-5.2,0.4
			c-0.9-0.7-1.7-1.5-2.4-2.3c-5.9-7.1-11.4-14.4-14.3-23.3c-1.8-5.5-3.3-11.1-4.7-16.7c-0.8-3.3-1.3-6.6-2-9.9
			c-0.1-0.3-0.4-0.6-0.6-0.8c-0.2,0.2-0.4,0.5-0.5,0.7c-0.5,1.9-1,3.8-1.5,5.6c-1.8,6.2-3.5,12.4-5.4,18.6c-0.5,1.6-0.6,3-0.3,4.6
			c1.6,10.8,2.3,21.7-0.2,32.5c-2.8,11.9-8.3,22.3-16.8,31.1c-3.1,3.2-7,5.4-10.9,7.5c-7.9,4.3-16.1,8.2-24.4,11.5
			c-3.3,1.3-6.5,2.8-9.7,4.2c-1.7,0.7-3.4,1.5-5.2,2.1c-1.7,0.6-2.6-0.1-2.7-1.9c0-1.3,0.2-2.5,0.3-3.8c0-1.1,0.7-2.3-0.2-3.4
			c-0.8,0.8-1.7,1.4-2.4,2.3c-15.5,19.2-32.9,36.4-52.4,51.5c-17.5,13.5-36.3,25.1-56.3,34.6c-19.2,9.1-39.1,16.2-59.7,21.2
			c-16.7,4.1-33.6,6.7-50.7,8c-11.5,0.9-23,1.1-34.4,0.7c-39.1-1.5-76.6-10-112.4-25.6c-27.3-11.9-52.4-27.4-75.2-46.5
			c-29.2-24.5-53.2-53.3-71.8-86.6c-15.6-27.9-26.7-57.6-33.1-88.9c-2.9-14.3-5-28.7-5.7-43.3C94.9,506.9,94.7,500.4,94.4,493.9z
			 M111.1,492c0.1,0,0.2,0,0.3,0c0,2.2-0.1,4.5,0,6.7c0.4,7.6,0.6,15.1,1.3,22.7c0.6,6.2,1.6,12.4,2.7,18.5c1.2,6.8,2.5,13.6,4,20.3
			c2.3,10,5.3,19.9,8.8,29.6c0.2,0.6,0.4,1.1,0.6,1.7c0.4,0.9,1,1.1,1.8,0.5c0.7-0.5,1.4-1.1,2.1-1.7c1.7-1.5,3.2-3.2,5.1-4.4
			c2.5-1.6,5.1-3,7.8-4.1c5.4-2.1,10.7-1.9,15.7,1.5c4.3,3,7.9,6.6,11.2,10.6c3.5,4.2,7.3,8.2,11.1,12.1c4.6,4.8,9.3,9.4,14,14.1
			c0.4,0.4,0.7,0.8,1,1.2c4.6,5.3,9.5,10.2,15.7,13.6c0.9,0.5,1.8,1.1,2.7,1.6c3.9,2.3,7,5.3,9.7,9c3.2,4.5,6,9.1,8.3,14.1
			c4.4,9.6,7.9,19.5,9.2,30c0.5,3.5,0.8,7-1.6,9.9c-2.8,3.3-5.9,6.1-9.6,8.4c-0.5,0.3-1.1,0.5-1.6,0.7c-3.7,1.5-7.5,2.5-11.5,3.1
			c-1.5,0.2-3.1,0.7-4.4,1.5c-2.3,1.5-2.3,2.5-0.2,4.3c20.4,17.4,42.7,31.8,67,43.1c18,8.4,36.7,14.9,56.1,19.5
			c6.3,1.5,12.6,2.9,18.9,4.4c0.9,0.2,1.9,0.4,2.9,0.5c2.6,0.3,5.2,0.6,7.8,1c2.3,0.3,4.6,0.9,6.9,1.1c7.8,0.7,15.7,1.3,23.5,1.8
			c5.7,0.3,11.4,0.4,17.1,0.5c2.1,0,4.2-0.1,6.2-0.6c4.2-1,8.5-1.6,12.9-2c8.5-0.7,17-2.4,25.6-1.9c0.6,0,1.2-0.1,1.8-0.2
			c0.3-0.1,0.5-0.3,0.7-0.5c-0.2-0.2-0.4-0.4-0.6-0.6c-4-2.4-7.9-4.8-11.9-7.3c-6.5-4.1-10.5-9.9-12.6-17.2
			c-1.7-5.8-3.7-11.6-6.7-16.9c-2.7-4.7-5.5-9.3-8.4-13.9c-3.3-5.3-8.1-7.9-14.2-8.1c-5.7-0.2-11.4-0.4-17.1-0.5
			c-2.3,0-4.3-0.6-6.1-2c-1.6-1.2-3.2-2.3-4.7-3.5c-2.3-1.8-4.6-3.4-7.2-4.5c-2.1-0.9-4.2-2-6.3-3.1c-4.5-2.2-6.9-6.1-8.3-10.7
			c-2.1-7.3-3-14.7-2.7-22.3c0.2-6.2,0.6-12.3,2.6-18.2c0.2-0.7,0.3-1.5,0.6-2.2c0.4-1.2,0.1-1.9-1-2.6c-2.2-1.3-4.3-2.7-6.4-4.1
			c-5-3.3-9.4-7.4-13.3-12.1c-4.2-5-8.3-10.1-12.5-15.1c-1.6-1.9-3.6-3.6-5.5-5.3c-1.8-1.7-4-2.5-6.5-3c-7.3-1.4-14.2-3.6-20.4-8
			c-3.7-2.6-6.7-5.6-8.8-9.5c-1.8-3.3-3.4-6.7-5-10.1c-1.9-4.2-3.7-8.6-5.5-12.8c-1-2.2-2.1-4.3-3.2-6.5c-0.1-0.3-0.5-0.5-0.7-0.7
			c-0.1,0.4-0.2,0.7-0.2,1.1c0,0.2,0,0.4,0,0.7c0.2,4.1,0.3,8.3,0.5,12.4c0.1,2.8,0.9,5.3,2.5,7.6c1,1.5,1.8,3.1,2.5,4.8
			c1,2.5,0.7,5,0,7.5c-0.6,2.1-2.2,3.2-4,4c-0.3,0.1-0.5,0.3-0.8,0.5c-1.5,1-3.1,1.3-4.9,1c-3.9-0.7-7.4-2.5-10.8-4.4
			c-4.3-2.6-7.8-6-10.2-10.6c-1.4-2.7-3.1-5.3-4.5-8c-1.7-3.3-3.7-6.6-4.9-10.1c-1.5-4.3-3-8.5-5.1-12.6c-2.2-4.3-4.5-8.5-7.6-12.1
			c-2.2-2.6-3.8-5.6-4.8-8.8c-0.8-2.6-1.4-5.2-2.3-7.8c-1.7-4.9-1.8-9.9-0.7-14.9c1.1-5.1,0.7-10.2-0.4-15.2c-1.3-6-1.4-12.1-1-18.1
			c0.1-2.2,0.8-4.4,1.2-6.6c0.2-0.9,0.4-1.9,0.4-2.9c-0.2-5.8,0.4-11.5,1.9-17.2c0.3-1.2,0.4-2.7,0.1-4c-1.1-4.5,0.6-10.5-2.8-13.7
			c-1.8-1.8-3.8-3.4-5.8-5c-2-1.6-4.1-2.8-6.6-3.3c-4.7-0.9-9.4-1.8-14.2-2.3c-5.1-0.6-13.7,0.3-18.1-2.4c-2.9-1.8-4.8-4.2-5.5-7.6
			c-0.3-1.6-0.8-3.2-1.2-4.8c-0.4-1.7-0.9-3.4-0.3-5.1c1.9-6.2,4.3-12.1,7.7-17.6c0.6-1,1.4-1.7,2.6-1.9c2.6-0.5,5.3-1.1,7.9-1.6
			c4.1-0.8,7.3-2.6,8.2-7.1c0.1-0.4,0.2-0.7,0.3-1.1c1.7-5.9,5.6-9.8,11.4-11.3c3.3-0.9,6.8-1.1,10.2-1.3c2-0.1,3.8-0.6,5.4-1.9
			c1.5-1.3,3.1-2.6,4.7-3.9c1.9-1.5,3.4-3.4,4.6-5.5c1.2-2,2.3-4.1,3.6-6c4.3-6.1,9.9-10.1,17.6-10.9c0.7-0.1,1.5-0.3,2.2-0.4
			c2.4-0.6,4.6-0.4,6.8,0.6c2.2,1,4.4,2,6.5,3.1c1.3,0.8,2.7,1.7,3.7,2.9c3.5,4,7,8,10.1,12.4c2.2,3.1,4.9,5.5,7.8,7.6
			c4,3,8.3,5.3,13,7c4.7,1.7,9.4,2.3,14.3,2c1.7-0.1,3.4-0.6,5.1-0.8c8.3-0.6,15.9-3.4,23.6-6.5c2.2-0.9,4.3-1.8,6.5-2.5
			c4.1-1.4,8.2-1.6,12.2,0.8c0.3,0.2,0.7,0.3,1,0.5c3.3,1.4,6.5,1.6,9.8,0.1c1.3-0.6,2.5-1.4,3.8-2c3.4-1.6,7-1.7,10.1,0.2
			c4.3,2.7,6.8,6.6,6,11.9c-0.8,5.7-2.4,11.2-5.1,16.2c-1.4,2.7-3.2,5.3-4.8,7.9c-2.2,3.7-5,6.7-8.3,9.4c-2.7,2.2-5.5,4.4-7.6,7.3
			c-0.5,0.7-1.1,1.2-1.8,1.7c-2.5,1.9-4.1,4.5-5.6,7.2c-0.8,1.5-1.7,3-2.5,4.5c-1.2,2.3-2.5,4.6-3.5,7c-0.9,2.2-0.2,3.6,2,4.5
			c0.7,0.3,1.5,0.3,2.2,0.4c0.8,0.1,1.7,0,2.5,0c3.8,0.1,6.6,1.6,8.2,5.3c0.8,1.9,1.7,3.7,2.7,5.5c1.5,2.9,3.3,5.6,5.7,7.8
			c1,0.9,2.2,1.6,3.4,2.1c1.6,0.8,3.1,0.4,4.3-0.9c0.7-0.7,1.4-1.4,2.2-2c2.6-1.8,3.3-4.3,3.4-7.2c0.2-5.7,0.6-11.4,0.8-17.1
			c0-1-0.1-2.1-0.5-3c-1-2.1-1.4-4.4-1.7-6.7c-0.2-1.3-0.3-2.6-0.8-3.7c-1.5-3.3-1-6.3,1.3-8.8c1.9-2.1,4.2-3.8,6.4-5.6
			c2.7-2.2,9.6-1.9,12.3,0.7c1.5,1.4,3,2.7,5,3.3c0.5,0.1,0.9,0.5,1.3,0.9c2.9,3,6.2,5.8,7.9,9.8c0.5,1.1,1.3,1.4,2.3,1.2
			c1.9-0.2,3.7-0.5,5.6-0.7c4.5-0.5,9-0.3,13.1,2c1.2,0.7,2.4,1.5,3.6,2.3c3.9,2.9,6.6,6.6,7.2,11.5c0.6,4.3,1,8.6,1.3,13
			c0.1,1.3,0.5,2.3,1.4,3.1c2.9,2.6,4.4,6,5.3,9.7c0.9,3.9,0.4,7.6-0.7,11.3c-1,3.3-3,5.9-5.9,7.7c-3.1,1.9-6.6,3-10.2,3.3
			c-4.7,0.4-9.5,0.3-14.1-1.2c-1.4-0.4-2.8-0.6-4.2-0.8c-0.8-0.1-1.3,0.3-1.3,1.1c0,1.2,0,2.4,0.2,3.6c0.3,2.2,0.8,4.4,1.2,6.7
			c0.8,5.3-1.6,8.7-6.9,9.8c-1.5,0.3-3,0.2-4.5,0.3c-0.9,0.1-1.8,0.2-2.7,0.4c-0.8,0.2-1.1,0.7-0.9,1.5c0.2,0.7,0.3,1.3,0.4,2
			c0.3,2.8-1,4.9-2.6,6.9c-1.2,1.5-2.5,3-3.4,4.7c-1.1,2-2.3,3.6-4.2,4.9c-2.7,2-5.6,3.8-8,6.2c-1.9,1.9-4.3,3.1-7.1,2.9
			c-2.2-0.1-3.4,0.9-4.3,2.6c-0.4,0.7-0.7,1.5-1,2.2c-1,2.5-1.8,5.1-2.9,7.6c-2.4,5.3-4.6,10.7-6.5,16.3c-1.5,4.2-4.4,7.6-7.9,10.1
			c-5,3.6-10.6,3.6-16.4,1.9c-3.6-1.1-5.5-3.6-5.7-7.3c-0.1-2.4-0.3-4.8,0-7.2c0.3-2.8,0.3-5.7,2.4-8c0.3-0.4,0.4-1,0.5-1.5
			c0.8-3.7,1.7-7.5,2.4-11.2c0.3-1.5,0.4-3.1,0.3-4.7c-0.1-2.8-2.2-4.5-4.4-5.4c-1.4-0.6-3.4-0.2-5,0.1c-3.8,0.6-6.2,3.1-7.7,6.5
			c-0.5,1-0.7,2.2-1.2,3.1c-2.5,4.5-3.1,9.5-4,14.4c-0.7,3.8-1.3,7.5-2.4,11.2c-0.6,2-0.4,3.7,0.7,5.3c1,1.5,2.1,2.9,3.1,4.4
			c0.9,1.3,2.2,2.3,3.7,2.8c4.6,1.7,9.4,2.7,14.3,2.3c3.9-0.4,7.6,0.2,11.3,1.3c2.5,0.8,4,2.5,4.3,5c0.2,1.6,0,3.3-0.1,4.9
			c-0.1,0.9-0.8,2.1-0.5,2.7c0.5,0.8,1.7,1,2.7,1.5c1.1,0.6,2.4,0.9,3.4,1.7c1.3,1,2.6,2.1,3.6,3.3c2.9,3.6,3.1,7.9,2.5,12.2
			c-0.1,1-0.8,1.9-1.3,2.8c-1.7,2.6-4.3,4.2-7,5.5c-2.1,1-2.6,2.6-2.5,4.6c0.1,2.3,0.9,4.4,2.4,6.2c0.8,0.9,1.6,1.8,2.4,2.7
			c1.4,1.4,1.6,1.4,2.6-0.3c2.2-3.8,4.4-7.5,8.2-10c0.2-0.2,0.4-0.4,0.7-0.6c3.7-3.2,7.8-5.2,12.7-5.9c4.6-0.6,9.2-0.9,13.9,0
			c8.5,1.5,17.1,2.7,25.6,4c1,0.2,2.1,0.2,3.1,0.3c1.9,0.2,3.6-0.4,5.3-1.4c1.9-1.1,3.8-2.1,5.9-2.8c3.2-1.2,6.4-2.1,9.6-3.2
			c5.5-1.8,10.9-1.5,16.4,0.2c4.2,1.3,7.8,3.9,11.2,6.6c3,2.3,6.3,3.6,10,4.5c2.3,0.5,4.5,0.4,6.6-0.5c3.3-1.4,6.8-2.3,10.4-2.8
			c3.9-0.6,7.7-1.1,11.7-0.6c3.1,0.4,6.1,0.7,9.2,1.1c1.2,0.2,2.6,0.4,3.7,0.9c6.9,3.6,12.4,8.9,17.1,15c1.3,1.7,1.9,3.5,1.8,5.6
			c-0.1,3.5-0.3,7.1,1,10.5c0.2,0.6,0.2,1.3,0.3,2c0.8,7.6,0.5,15.2-0.4,22.7c-0.8,6.3-2.7,12.3-6.7,17.5c-1.6,2-2.8,4.2-3.6,6.7
			c-0.8,2.7-2.3,5-4.5,6.8c-1.3,1-2.7,1.8-4.3,1.5c-2.3-0.4-4.8-0.2-7-1.4c-1.7-0.9-2.4-0.6-3.4,1c-1.9,3-4.5,5.5-5.4,9
			c-0.1,0.3-0.4,0.6-0.6,0.9c-0.4,0.9-1,1.7-1.2,2.6c-1.4,5.2-3.7,9.8-7.3,13.8c-1,1.1-2,2.3-3.3,3c-2.9,1.6-5.9,3-8.9,4.4
			c-1.2,0.6-2.1,1.3-2.7,2.5c-0.6,1.3-1.3,2.6-2.2,3.7c-3,3.7-4.5,8.1-5.8,12.6c-0.5,1.9,0,3.2,1.5,4.3c6.9,5.1,14.3,6.9,22.6,3.9
			c15.1-5.5,29.7-12.1,43.8-20c22-12.3,42.1-27.2,60.3-44.6c11.9-11.4,22.8-23.7,32.6-37c0.6-0.8,1.2-1.6,1.9-2.2
			c4.8-4.3,7.9-9.8,9.8-15.9c2.7-8.5,6.3-16.4,12.5-22.9c2.3-2.4,4-5.2,5.4-8.3c4.2-9.1,8.1-18.4,11.5-27.9c0.6-1.6,1.1-3.1,1.6-4.7
			c0.8-2.4,0.6-2.6-1.9-2.5c-1.3,0.1-2.7,0.1-4.1,0c-0.7,0-1.4-0.1-2-0.3c-1.9-0.6-2.5-2.1-1.7-3.9c0.2-0.3,0.4-0.6,0.6-1
			c3.6-6.2,8.2-11.5,13.9-15.8c1.7-1.2,2.6-2.8,3-4.8c2.1-9.5,3.8-19.2,5-28.8c0.1-0.7,0.1-1.4,0.1-2c-0.1-0.7-0.5-0.9-1.1-0.6
			c-0.8,0.5-1.6,1.1-2.4,1.6c-6.3,4.7-13.7,7.2-21.1,9.4c-2.7,0.8-3.7-0.3-3-3.1c0.6-2.3,1.1-4.5,1.8-6.7c1.5-4.7,3.3-9.3,5.3-13.8
			c1.8-4,4.1-7.7,7.1-10.8c3.8-4,8.1-7.3,12.7-10.4c2-1.3,2.9-2.8,2.8-5.1c-0.6-8.2-1-16.3-1.6-24.5c-0.3-4.1-0.6-4.3-4.5-3.3
			c-3.7,0.9-7.3,2.2-11.1,2.9c-2.7,0.5-4.2,1.9-5.4,4.2c-2.9,5.2-5.9,10.5-9.1,15.6c-3.3,5.2-6.9,10.2-10.3,15.3
			c-1.4,2.1-2.7,4.2-3.9,6.3c-0.5,1-0.9,2.3-0.8,3.4c0.2,1.6,0.7,3.2,1.3,4.7c2.4,5.6,4.9,11.1,7.3,16.7c1.3,2.9,2.2,5.9,2.7,9
			c0.2,1.2,0.5,2.3,0.7,3.5c0.2,1.1,0.3,2.2,0.2,3.3c-0.2,2.4-0.1,2.5,2.1,3.2c2,0.6,4,1.2,6,2c2.3,0.9,3.5,2.7,4.1,5
			c0.4,1.8,0.2,3.6-0.2,5.3c-1.6,5.9-4.3,11.3-7.5,16.6c-4.4,7.2-8.7,14.4-11.6,22.3c-2.3,6.3-6.6,11-12.4,14.4
			c-1,0.6-1.9,1.2-2.8,1.9c-4.7,3.5-9.9,5.9-15.6,7.2c-1.5,0.3-3,0.9-4.5,1.4c-4.2,1.5-8.4,3.2-12.7,4.6c-2,0.7-4.1,0.9-6.2,1.2
			c-2.1,0.3-3.9-0.2-5.3-2.1c-1.2-1.6-1.4-1.6-3.4-0.7c-1.8,0.7-3.7,1.2-5.5,0.6c-4.3-1.6-8.7-3.3-12.7-5.5
			c-3.1-1.7-5.6-4.5-7.9-7.3c-4.6-5.7-9.4-11.1-14.8-16.1c-1.9-1.7-3.9-3.3-5.5-5.3c-4.3-5.2-7.5-10.9-7.8-17.8
			c-0.1-3.1-1.4-5.5-3.4-7.6c-1.5-1.7-3-3.4-4.6-4.9c-3.7-3.7-5.6-8.1-5.5-13.3c0.1-3.5,0.3-7,2-10.3c2.1-3.9,4.6-7.3,8.6-9.5
			c1.7-0.9,1.8-1.4,0.8-3c-2.4-3.9-3.6-8.2-5.1-12.5c-1.3-3.5-1.3-7.1-0.3-10.6c0.3-1.3,0.7-2.6,1.1-3.9c2.4-7.3,6.4-13.2,13.6-16.5
			c2.4-1.1,4.8-1.7,7.4-1.6c2.2,0.1,4.5,0.1,6.8,0.3c1.3,0.1,2.7,0.3,4,0.6c4.7,1.1,9.5,2.3,14.2,3.4c2.3,0.5,2.4,0.5,3.6-1.6
			c1.8-3.1,3.6-6.1,6.1-8.6c2.4-2.3,5.2-3.5,8.5-3.7c1.5-0.1,3,0,4.5,0.2c6.1,1.1,11.8,3.3,16.9,6.9c2.2,1.6,4.6,3.1,6.8,4.8
			c3,2.3,6,4.5,8.8,7c2.1,1.8,4,3.8,5.9,5.8c1.6,1.7,2.1,1.7,3.5,0c0.5-0.6,1.1-1.3,1.6-1.9c1.5-1.9,1.4-2.1-0.7-3.3
			c-2.6-1.5-5.2-3-7.6-4.8c-3.2-2.4-5.5-5.6-6.6-9.4c-1.3-4.6-2.3-9.3-2.4-14.2c-0.2-7-2-13.5-5.7-19.5c-0.4-0.7-0.9-1.4-1.4-2.1
			c-0.6-1.1-0.8-2.1,0.1-3.1c0.8-1,1.8-1.3,3-1c0.7,0.2,1.4,0.5,2.1,0.8c4.9,2.5,9.3,5.7,13.1,9.8c7.2,7.9,13,16.7,18,26.1
			c0.2,0.3,0.3,0.8,0.6,0.9c0.3,0.2,0.8,0.2,1.1,0.1c0.3-0.1,0.5-0.5,0.7-0.9c2.4-4.1,4.8-8.2,7.1-12.3c1-1.8,0.9-2.2-0.8-3.3
			c-2.6-1.7-4.8-3.8-6.9-6.1c-4.1-4.8-8.3-9.5-12.9-13.8c-2-1.8-3.7-3.9-5.2-6.2c-3.1-4.7-6.1-9.5-9-14.3c-2-3.4-4.5-6.4-7.4-9
			c-0.5-0.4-1.1-0.8-1.6-1.2c-0.2,0.7-0.6,1.3-0.7,2c-1.7,8.5-5.6,15.5-13.4,19.9c-3.8,2.1-7.9,3.8-12.2,4.6
			c-6.5,1.2-13,2.2-19.5,3.2c-2.9,0.4-5.8,0.7-8.5,1.9c-4.4,2-8.9,4-13,6.7c-0.8,0.5-1.7,1.1-2.6,1.4c-3.8,1.4-7.7-1.8-7.1-5.8
			c0.1-0.8,0.4-1.6,0.6-2.4c1.2-4.8,2.1-9.6,1.1-14.5c-0.6-3.1-1.6-6.1-2.5-9.1c-1.8-6.1-1.9-12.1-0.2-18.2
			c1.5-5.2,4.1-9.8,7.7-13.8c1.2-1.3,1.2-1.4-0.4-2.2c-0.3-0.2-0.7-0.3-1-0.5c-5.2-2.4-10.1-5.3-14.8-8.6c-7.1-5.1-13.5-11-18-18.7
			c-0.5-0.8-1-1.7-1.3-2.6c-1-2.8,0.5-5.4,3.4-6c1.6-0.3,3.3-0.6,4.9-0.7c4.3-0.1,8.2-1.5,12-3.4c5.6-2.9,11.3-5.7,17-8.4
			c7.1-3.4,14.4-6.1,22.1-7.4c3.3-0.6,3.5-0.7,2.3-3.9c-1.7-4.6-2.6-9.2-2.8-14.1c-0.1-1.2-0.1-2.4-0.1-3.6c-0.1-1.6-0.5-1.8-2-1.4
			c-6.7,1.8-13.5,3.6-20.2,5.4c-2.6,0.7-5.3,1.2-7.9,1.6c-3.5,0.5-7,0.9-10.5,1.3c-2.9,0.3-5.8,0.2-8.7-0.5
			c-3.5-0.8-5.6-2.9-6.9-6.1c-2.6-6.6-3.3-13.2-1.6-20.1c0.3-1,0.5-2,0.7-3.1c0.2-1.3-0.1-1.6-1.5-1.4c-0.3,0.1-0.6,0.1-0.9,0.2
			c-7.2,2.2-14.5,3.9-21.8,5.5c-10.9,2.4-21.8,3.2-32.9,1.8c-2.3-0.3-4.6-0.8-6.8-1.5c-5.4-1.7-10.6-3.7-15-7.5
			c-1.5-1.2-1.7-1.1-3.3,0.2c-1.4,1.2-2.7,2.4-4.1,3.5c-1.2,0.9-1.7,1.9-1.3,3.5c0.4,1.5,1.3,2.1,2.7,2.3c2.8,0.6,5.6,1.2,8.4,1.8
			c7,1.5,13.7,3.8,19.9,7.7c4.2,2.7,6.9,6.4,8,11.3c0.6,2.9,1.3,5.9,0.4,8.9c-0.5,1.6-1.4,2.8-3,3.5c-2.4,1.1-4.9,1.6-7.5,1.3
			c-3.5-0.4-6.9-1.5-10-3.4c-1.3-0.8-2.5-1.7-3.8-2.5c-0.3-0.2-0.7-0.2-1-0.3c0,0.4-0.1,0.9,0.1,1.2c1.6,2.7,3.2,5.4,4.8,8.2
			c0.7,1.3,1.8,1.7,3.2,1.5c0.5-0.1,1-0.1,1.6-0.2c8.7-1.3,17.4-1.5,26,0.4c5.8,1.3,11.4,3.2,16,7.3c1.3,1.2,2.5,2.6,3.4,4.2
			c2.3,4.1,1.4,9-2,12.1c-4.4,3.9-9.5,5.4-15.2,4.1c-1-0.2-2-0.5-3.1-0.7c-0.4-0.1-0.8,0.1-1.3,0.1c0.3,0.4,0.4,0.9,0.8,1.2
			c2.4,1.7,4.8,3.3,7.3,4.8c1.8,1.1,1.8,1.1,3.5-0.4c3.1-2.9,6.8-4.1,11-3.7c5.8,0.6,9.8,3.7,11.9,9c2.1,5.5,1.3,10.6-2.7,15.1
			c-2.4,2.8-5.6,3.6-9,4c-6.8,0.8-13.5-3.7-15-10.3c-0.6-2.9-1.9-4.7-4.3-6.1c-0.8-0.5-1.6-1.2-2.4-1.7c-1.9-1.4-3.8-2.7-5.7-4
			c-0.4-0.3-0.9-0.3-1.4-0.4c0.1,0.4,0.1,0.9,0.3,1.2c0.8,1.7,1.8,3.3,2.5,5c2.1,5,2,10-0.3,14.8c-2.5,5.2-8.2,6.9-13.3,4.3
			c-3.8-2-6.6-5.2-8.9-8.8c-4.1-6.3-5.2-13.5-5.9-20.8c-0.6-5.5-0.6-11.1-0.9-16.6c0-0.8-0.2-1.7-0.6-2.3c-2-2.7-4-5.2-6.1-7.8
			c-0.2-0.3-0.6-0.4-0.9-0.6c-0.2,0.4-0.4,0.7-0.4,1.1c-0.1,0.4,0,0.7,0.1,1.1c0.7,5.6,0.4,11.3-0.8,16.8c-0.5,2.3-1.3,4.5-2.3,6.6
			c-1.7,3.6-5.4,5.1-9.2,4.1c-1.8-0.5-3.3-1.4-4.6-2.7c-4.2-3.8-6.5-8.6-7-14.2c-0.4-4.9,0.1-9.7,1.2-14.5c2-8.3,4.7-16.3,7.8-24.2
			c0.6-1.6,0.7-3.1,0.2-4.8c-0.9-3.1-1.7-6.2-2.5-9.3c-0.5-1.9-0.6-2-2.6-1.7c-3.1,0.5-6.2,1-9.4,1.4c-4.3,0.5-8.7,0.6-12.9,1.7
			c-1.4,0.3-3,0.4-4.5,0.3c-1.7,0-2.5-1.3-2-3c0.1-0.4,0.3-0.7,0.5-1c4.2-8.3,5.5-17.1,5.1-26.2c-0.1-1.9-0.4-2.1-2.4-2.1
			c-5.2,0.2-10.4,0.3-15.5,0.4c-0.7,0-1.4,0-2,0c-0.3,0-0.7,0.3-1,0.4c0.2,0.4,0.3,0.8,0.6,1.1c0.9,0.8,2.1,1.3,2.8,2.2
			c2.1,2.7,4,5.7,4.8,9.1c1,4.9,1.7,9.8,1.3,14.8c-0.3,3.8-1,7.6-2.9,11c-0.6,1.1-1,2.3-1.5,3.5c-1.6,3.8-4,7.1-7.3,9.6
			c-0.9,0.7-2.2,1.2-3.3,1.2c-2,0.1-4-0.2-6.1-0.5c-2.2-0.3-3.9-1.5-5-3.4c-0.2-0.3-0.3-0.7-0.6-1c-0.2-0.2-0.5-0.5-0.7-0.4
			c-0.2,0.1-0.4,0.4-0.5,0.7c-0.1,0.5-0.2,1-0.3,1.6c-0.8,3.9-1.5,7.8-3.7,11.3c-1.2,2-2.4,4-3.6,6c-2.7,4.2-4.6,8.6-4.4,13.7
			c0,0.2,0,0.5,0,0.7c-0.3,1.9-1.1,2.4-2.7,1.4c-1.3-0.8-2.6-1.8-3.8-2.8c-3.3-3-7-5.3-11-7.3c-3.6-1.8-7.1-3.7-10.4-5.8
			c-6.8-4.2-12.7-9.4-16.1-16.9c-0.5-1-1.2-1.2-2.2-0.9c-2.9,0.7-5.8,1.4-8.7,2.1c-4.4,1.1-8.8,2-13.3,2.3c-1.5,0.1-3,0.5-4.4,0.7
			c-1.6,0.2-3.1,0.6-4.7,0.5c-7.7-0.1-15.1-1.5-22.1-4.7c-1.1-0.5-2.1-0.5-3.2,0c-5.5,2.8-11.3,3.9-17.4,3.9c-1.7,0-3.5,0.5-4.9,1.2
			c-2.4,1.2-4.7,2.7-6.9,4.3c-4.1,2.9-8.2,5.5-13,7c-4.7,1.5-9.2,1.3-13.4-1.3c-2.5-1.5-3.6-3.8-3-6.7c0.4-2.1,1-4.1,1.6-6.1
			c1-3.3,1-6.7,0.7-10c-0.2-2.3-0.5-4.6-0.7-6.9c-0.1-0.5-0.2-1-0.4-1.5c-0.5,0.3-0.9,0.6-1.4,1c-0.1,0.1-0.2,0.2-0.3,0.4
			c-3.1,4.2-6.3,8.4-9.4,12.6c-0.6,0.8-1.1,1.8-1.4,2.8c-1.3,5-3.5,9.6-5.8,14.2c-1,1.9-2.6,2-3.9,0.3c-0.2-0.2-0.3-0.5-0.5-0.8
			c-0.7-1-0.9-1.1-1.6-0.1c-1.7,2.4-3.3,4.8-5,7.2c-0.5,0.8-0.5,1.5-0.1,2.3c0.3,0.5,0.5,1.1,0.7,1.7c3.1,7.6,5,15.4,4.4,23.7
			c-0.3,3.7-0.2,7.3-0.1,11c0.1,3.5,0.5,7,0.5,10.6c0,2.8-1.9,4.1-4.3,2.9c-4.4-2-8.9-4.1-12.6-7.4c-1.6-1.4-3.1-2.9-4.6-4.3
			c-1.6-1.6-1.7-1.6-2.8,0.5c-0.3,0.6-0.6,1.2-0.9,1.8c-7.6,17-14,34.4-18.3,52.5c-3.6,15.2-6.1,30.6-7,46.3
			C111.5,480.6,111.3,486.3,111.1,492z M189.9,410c0,0,0-0.1,0-0.1c2.5,0,5-0.1,7.4,0c5.6,0.2,11.1,0.9,16.4,2.8
			c4.1,1.5,8,3.5,11,6.8c9.1,10.4,12.1,22.2,8.2,35.6c-0.8,2.7-0.7,1.4-1.9,3.9c-0.7,1.6-0.8,3-0.1,4.5c1.5,3.5,2.2,7.1,2.4,10.9
			c0.2,2.9,0.5,5.7-0.6,8.5c-2.9,7.1-2.8,14.3-0.9,21.6c0.5,1.9,1.4,3.7,3.1,5.1c0.8,0.6,1.4,1.8,1.8,2.7c0.6,1.4,1.1,2.9,1.6,4.4
			c1.3,3.2,1.2,6.2-1.4,8.7c-0.7,0.7-0.9,1.5-0.8,2.4c0.9,5.9,1.7,11.9,3.7,17.6c3,8.5,7.1,16.6,11.7,24.3c2.2,3.6,4.6,7,6.9,10.5
			c0.2,0.2,0.6,0.3,0.8,0.5c0-0.3,0-0.6-0.1-0.9c-1.1-5.7-2.3-11.5-3.4-17.2c-1-5.1-1.2-10.3,0.3-15.4c1.1-3.8,3.5-6.5,6.9-8.1
			c3.9-1.9,7.7-0.9,11.1,1.4c2.3,1.5,4.1,3.6,5.2,6.1c1.5,3.4,3.1,6.7,4,10.3c2.7,10.3,7,19.8,12,29.1c0.7,1.3,1.7,2.7,3,3.6
			c2.4,1.8,5.1,3.1,8.2,3.6c1.6,0.3,3.2,0.6,4.8,1c3.6,0.9,7.3,1.5,10.6,2.9c9.4,3.9,9.7,4,14.6,12.4c2.6,4.4,6,8.4,9.1,12.6
			c0.2,0.3,0.7,0.5,1,0.8c0.2-0.4,0.4-0.8,0.5-1.2c1-5.3,3.6-9.6,7.9-13c0.7-0.6,1.4-1.2,2-1.8c1-1.1,0.8-1.9-0.6-2.2
			c-1.2-0.2-2.5-0.3-3.8-0.5c-1.5-0.2-3-0.5-4-1.9c-0.9-1.3-2.1-1.8-3.4-2.4c-2-0.8-3.6-2.1-4.2-4.4c-0.5-1.7,0.1-3.3,0.7-4.8
			c0.8-1.8,0.8-1.8-1.2-1.9c-0.4,0-0.9,0-1.4,0c-8.4-0.1-16.1-2.3-23.4-6.5c-1.6-0.9-3.2-2-4.6-3.3c-2.5-2.2-4.1-5-4-8.5
			c0.1-2.3,0.4-4.6,0.9-6.9c0.5-2.3,1-4.5,1-6.9c0-1.4,0.4-2.8,0.7-4.2c0.7-3.2,1.4-6.3,2.1-9.4c0.5-2.4,0.7-4.9,1.3-7.3
			c0.8-3.3,2-6.5,4.1-9.2c3.2-4.1,7.2-7.2,11.9-9.4c4.3-1.9,8.7-2.2,12.9,0.4c2.1,1.3,4.3,2.4,6.5,3.5c2.7,1.5,4.5,3.8,5.3,6.7
			c0.9,3.7,1.2,7.4,0.8,11.2c-0.4,3.2-0.7,6.4-1,9.6c-0.3,2.7-0.6,5.4-0.9,8.1c-0.1,0.8,0,1.6,0.1,2.4c0.5-0.5,1.1-1,1.6-1.5
			c0.9-0.9,1.7-1.9,2.6-2.8c2.7-2.4,4.5-5.4,5.8-8.7c0.6-1.6,1.2-3.2,2-4.7c1.4-2.7,2.3-5.5,2.9-8.5c0.5-2.3,1-4.7,1.8-7
			c1.5-4.7,5-7,9.9-6.8c0.7,0,1.5,0.1,2.2,0.1c2.4,0.3,4.1-0.7,5.1-2.8c1-2.2,2-4.4,2.8-6.6c1.2-3,2.1-6.1,3.3-9.1
			c1.3-3.3,3.8-5.3,7.2-6.1c1.2-0.3,2.4-1,3.6-1.1c2.3-0.3,2.9-1.8,3-3.7c0-0.4,0.1-0.9,0.1-1.3c0.6-4.4,1.5-8.7,3.3-12.8
			c3.1-6.9,9.6-9.1,16.2-5.5c2.9,1.6,5.9,2,9.1,1.4c1.3-0.2,2.2-0.8,2.8-2c0.6-1.2,1.4-2.3,2-3.5c1.9-3.6,2.7-8.4-0.8-11.9
			c-2.2-2.1-2.8-4.6-3-7.5c-0.2-2.4-0.8-4.9-1.5-7.2c-0.4-1.6-0.8-1.7-2.5-1.5c-2.5,0.3-5,0.7-7.6,1.1c-3.1,0.4-5.6-0.6-7.5-3.1
			c-0.5-0.6-1.2-1.2-1.9-1.4c-3.3-0.8-5.7-2.8-7.8-5.4c-1-1.3-2-2.6-3.1-3.9c-0.4-0.4-0.9-0.7-1.3-1.1c-0.2,0.5-0.5,1.1-0.6,1.6
			c-0.3,1.9-0.6,3.9-0.7,5.8c-0.1,7.5-1.9,14.7-3.8,21.9c-1.1,4-3.1,7.5-6.3,10.2c-3,2.5-6,5-9.5,6.8c-5,2.5-10,2.7-14.8-0.2
			c-2.1-1.2-4-2.7-5.7-4.4c-2.8-2.7-5.3-5.7-8-8.5c-0.6-0.6-1.2-1.4-2-1.8c-2.5-1.2-4.9-2.4-7.8-2.4c-4.6,0-7.9-2.8-10.2-6.5
			c-1.4-2.3-1.8-5.1-1.9-7.8c-0.3-7.2,2-13.7,5.5-19.9c3.1-5.5,7.1-10.3,11.7-14.5c4-3.7,8.1-7.4,13.2-9.6c1.2-0.5,2.3-1.4,3.3-2.4
			c5.4-5.1,8-11.7,9.8-18.6c0.2-0.8-0.1-1.2-0.9-0.8c-2.3,0.9-4.6,1.8-6.9,2.8c-1.9,0.8-3.8,1.7-5.8,2.4c-2.3,0.8-4.7,0.9-7.1,0.2
			c-2.7-0.9-5.4-1.7-8.1-2.7c-0.9-0.3-1.7-0.3-2.5,0.1c-8.1,3.9-16.6,6-25.6,5.9c-2.4,0-4.8-0.1-7.2,0c-6.2,0.2-12.3-0.6-18.2-2.3
			c-4-1.1-7.9-2.2-11.9-3.4c-0.8-0.2-1.4-0.8-2.1-1.2c-1-0.6-1.9-1.2-2.9-1.6c-1.2-0.6-2.6-0.9-3.8-1.5c-5.1-2.7-10.3-5.4-13.7-10.3
			c-0.6-0.8-1-1.6-1-2.6c0-2.1-1.1-3.7-2.8-4.9c-1.3-0.9-2.7-1.7-4.1-2.4c-3.1-1.5-6.5-1-8.8,1.6c-1.3,1.4-2.3,3.1-3.4,4.7
			c-0.6,0.8-1,1.6-1.7,2.4c-1.7,1.8-3.4,3.6-5.1,5.4c-2,2.2-4,4.5-6.1,6.6c-0.9,0.9-2.3,1.3-3.4,2.1c-3.6,2.8-7.7,4.5-12.1,5.7
			c-1.2,0.3-2.2,1.2-3.3,1.9c-1,0.7-1.9,1.5-2.7,2.3c-2.5,2.4-5.2,4.7-6.7,7.8c-1.1,2.3-2.7,3.7-4.7,4.8c-1.4,0.7-2.9,1.2-4.4,1.6
			c-2.5,0.7-5.1,1.1-7.7,1.8c-2.2,0.6-2.6,1.5-1.8,3.6c0.1,0.3,0.2,0.6,0.3,0.9c0.1,1.4-0.2,5.4,1,5.4
			C183.6,410,186.8,410,189.9,410z M495.7,713.2c0.2-2,0.3-4.8,0.8-7.6c0.8-5.3,4.1-8.4,9.4-9.2c4.3-0.6,8.5-1.8,12.9-1.4
			c3.6,0.4,6.4-1.3,8.1-4.5c0.7-1.3,1.1-2.8,1.5-4.2c0.3-1,0.6-1.9,1.5-2.6c0.8-0.6,1.3-1.7,1.6-2.6c0.6-2.1,0.9-4.2,1.5-6.3
			c1.2-4.1,1.1-8.1-0.2-12.2c-0.3-1-0.5-2.1-0.3-3.1c0.7-5-0.4-9.7-2.4-14.2c-2.7-5.9-10.6-12.3-19.7-10.2c-4.5,1.1-9,2.1-13.6,2.3
			c-0.7,0-1.3,0.2-2,0.4c-3.8,0.8-7.5,1.6-11.3,2.3c-7.8,1.4-14.8-0.1-20.5-6c-1.9-1.9-4-3.6-6-5.4c-1.4-1.2-3.1-1.7-4.8-0.8
			c-2.7,1.4-5.4,2.8-7,5.7c-1.6,3.1-4.5,4.6-8,4.5c-1.9-0.1-3.9-0.3-5.8-0.7c-2.9-0.6-5.7-1.4-8.5-2.2c-2-0.6-4.1-0.8-6.2-0.7
			c-6.6,0.2-13.2,0.1-19.6-1.9c-0.8-0.2-1.6-0.4-2.4-0.5c-3.7-0.7-7.2,0.1-10.4,1.9c-4.2,2.3-6.8,6.2-8.6,10.4
			c-2,4.7-3,9.7-3.5,14.8c-0.3,3-0.8,5.9-1.2,8.9c-0.2,1.6-0.4,3.3-0.3,4.9c0.3,4.8,1.5,9.3,3.2,13.7c2.3,5.9,6.4,10.1,11.7,13.2
			c2,1.2,4.1,2.1,6.2,3.2c3.4,1.8,7.1,2.6,11,3.1c5.4,0.7,10.7,1.6,16,2.4c3.3,0.5,6.1,2,8.6,4.2c3.3,3,6.3,6.2,8.7,9.9
			c2.1,3.3,4.3,6.5,6.5,9.7c4.2,6.3,8.2,12.7,10.1,20.2c0.2,0.7,0.4,1.3,0.7,1.9c1,2,1.8,4.2,3,6c3.8,5.8,9,10.2,14.7,14.1
			c0.5,0.4,1.2,0.5,1.8,0.8c-0.1-0.7-0.2-1.4-0.4-2c-0.4-1.3-0.9-2.6-1.2-3.9c-0.3-1.5-0.5-3-0.3-4.4c0.7-3.4,1.3-6.8,2.6-10
			c1.8-4.6,3.9-9.1,6.1-13.5c2.3-4.6,5.5-8.3,10.5-10.3c2.3-0.9,3.8-2.8,4.4-5.3C495.6,722.2,496.2,718.2,495.7,713.2z M268.6,208.2
			c0.2-1.2,0.3-2.4,0.7-3.5c1-3.1,3.6-4.6,6.7-3.8c1.9,0.5,2.2,0.1,2.8-1.7c0.8-2.8,2.3-5.4,4.7-7.3c1.7-1.4,1.7-1.4,0.7-3.3
			c-2-3.9-4-7.7-5.8-11.7c-1.4-3.1-3.4-5.8-6.1-8c-1.1-0.9-2.2-1.8-3.3-2.7c-4.7-3.6-9.6-7-14.2-10.7c-3-2.4-6.3-4.1-9.9-5.1
			c-4.8-1.2-9.6-1.8-14.5-0.9c-6.3,1.2-12.5,3.1-18.6,5.2c-1.3,0.5-2.7,1-3.9,1.7c-3.6,1.8-6.4,4.4-8.1,8.1
			c-2.1,4.5-4.5,8.8-7.9,12.5c-1.6,1.8-3,4-4.1,6.2c-1,1.8-1.7,3.9-2.1,5.9c-0.6,3.3,0,6.4,2.2,9.1c0.3,0.4,0.6,0.8,0.9,1.3
			c2.2,4.5,4.3,8.9,6.5,13.4c2,4.1,1.8,8.2,0.7,12.5c-0.7,2.5-1.2,5-1.5,7.5c-0.7,5,1.4,9.2,4.1,13.2c0.1,0.2,0.3,0.3,0.5,0.5
			c1.1,1.1,2.1,2.1,3.2,3.2c1.3,1.4,2.9,1.8,4.7,1.1c1.1-0.5,2.2-1,3.3-1.5c3-1.3,6.1-2.4,9.5-2.7c5.7-0.5,11.5-1,17.3-0.7
			c6.1,0.3,12,1.3,17.9,2.9c5.4,1.4,10.8,2.7,16.4,2.9c2.9,0.1,5.8,0.4,8.7,0.7c1.3,0.1,2.4-0.3,3.3-1.1c1.5-1.1,1.5-1.5,0.1-2.7
			c-2.4-2.2-4-5-5.4-7.9c-0.8-1.7-0.8-3.5,0.2-5.2c1-1.7,1-1.8-0.3-3.2c-2-2.2-2.3-4.6-0.9-7.2c1-1.7,0.9-1.7-0.4-3.2
			c-1.6-1.8-3.3-3.5-4.7-5.5C269.9,214.1,268.6,211.4,268.6,208.2z M607.7,76.6c-4.5-3.2-9.4-5.3-14.7-6.7
			c-8.5-2.3-17.2-3.3-25.9-4.5c-4.9-0.7-9.7-0.8-14.6,0.1c-1.4,0.3-2.8,0.6-4.2,0.8c-4.8,0.8-7.8,1.5-10.8,5.4
			c-2.8,3.7-5.3,7.6-7.9,11.5c-1.9,2.9-2.8,6.1-3.4,9.5c-1.1,6-2.4,11.9-3.4,17.9c-0.7,4.3-0.9,8.6-1.6,12.9
			c-0.4,3.1,1.2,4.9,3.3,6.7c1,0.8,1.5,0.7,1.8-0.7c0.4-1.4,0.7-2.9,1.3-4.3c2.2-4.8,6.4-7.1,11.2-8.2c6.1-1.5,12.1-0.8,18,1
			c5,1.6,10,2.6,15.1,3.4c5.7,0.9,11.2,2.3,16.1,5.4c2.6,1.6,4.4,3.8,5.2,6.8c0.3,1.2,0.9,2.4,1.1,3.7c0.3,1.4,0.7,2.8,0.5,4.2
			c-0.9,8-2.3,15.9-5.3,23.4c-1.2,2.9-1.3,5.4,0,8.1c0,0.1,0,0.1,0.1,0.2c0.5,1.4,1,1.6,2,0.5c4.1-4.4,8.4-8.8,11.3-14.3
			c1.7-3.3,3.7-6.5,5.3-9.9c1.6-3.3,3.2-6.7,4.4-10.1c2-5.9,3.9-11.8,5.6-17.8C622.7,97.7,618.7,83.4,607.7,76.6z M749.5,318.1
			C749.5,318.1,749.5,318.1,749.5,318.1c0-1.1,0-2.1,0-3.2c-0.1-4.4-0.8-8.7-2.8-12.6c-1.4-2.8-2.9-5.6-4.3-8.4
			c-3.5-7.1-9.4-11.3-16.5-14.2c-3.1-1.3-6.5-1.7-9.7-0.9c-4.7,1.2-9.1,3.2-12.7,6.5c-4.2,3.9-8,8.1-11.1,13
			c-1.1,1.7-2.4,3.3-3.3,5.1c-1.8,3.5-3.4,7.2-5,10.8c-0.6,1.4-0.4,1.5,1,2.3c0.8,0.4,1.6,0.9,2.1,1.6c1.4,1.9,3,3.2,5.1,4.2
			c2.2,1,3.1,3.1,2.5,5.4c-0.2,0.9-0.7,1.8-1.1,2.7c-0.7,1.5-0.7,1.7,0.7,2.5c0.3,0.2,0.7,0.4,1,0.5c3.7,2.2,4.5,5.4,2.5,9.2
			c-1.1,1.9-0.9,2.9,0.7,4.6c0.8,0.9,1.5,1.9,2,2.9c0.5,1.2,1.2,2,2.3,2.6c2.6,1.6,3,4.3,1.1,6.7c-0.5,0.6-1.1,1.2-1.8,1.7
			c-0.9,0.7-1.8,1.3-2.8,1.9c-1.4,1-1.4,1.1-0.4,2.4c0.2,0.2,0.4,0.4,0.6,0.7c1.5,2.1,1.3,4.2-0.8,5.7c-1,0.7-2.1,1.2-3.2,1.7
			c-1.3,0.7-1.5,1.1-0.6,2.2c1.7,1.9,3.5,3.7,5.4,5.4c7.6,6.7,16.4,11.3,25.5,15.6c1.7,0.8,3.5,1.4,5.2,2.1c2.3,0.9,4.7,1,7.1,1.1
			c5.6,0.3,10.2-6.7,7.8-11.4c-1.5-3.1-2.7-6.3-4.2-9.4c-3.3-6.7-4.9-13.6-4.4-21.1c0.3-4.6,1.2-8.9,3.2-13c1.8-3.5,3.5-7,5.5-10.3
			c2.3-3.9,3.4-8.1,3.5-12.6C749.5,320.8,749.5,319.4,749.5,318.1z M295.6,102.5c-6.7,0-12,1.4-16.5,5c-2,1.6-3.9,3.2-6,4.8
			c-3.4,2.6-5.1,6.2-5.6,10.4c-0.2,1.5-0.3,3-0.3,4.5c0.1,6.5,0.2,12.9,0.2,19.4c0,1.4,0.5,2.4,1.7,3.1c3.6,2.1,6.7,4.9,9.2,8.2
			c4.7,6.3,9.3,12.7,13.1,19.6c1.5,2.8,2.9,5.6,4.3,8.4c1.4,2.7,2.3,2.9,4.8,1.2c2.9-1.9,5.4-1.8,8,0.5c0.2,0.2,0.4,0.4,0.7,0.6
			c1.4,1.2,1.6,1.2,2.5-0.4c1.3-2.2,2.9-4,5.3-5.1c3-1.5,6-0.8,7.9,2c0.9,1.4,1.7,2.9,2.3,4.4c0.6,1.5,1.3,2.7,3.2,2.5
			c0.4,0,0.9,0.1,1.3,0.3c1.2,0.6,1.8,0,2.4-0.9c1.6-2.6,1.7-5.4,1.2-8.3c-0.8-4-1.6-8-2.3-11.9c-1.1-6.2-1.1-12.4,0.7-18.5
			c2.5-8.1,6-15.7,10.6-22.8c1.7-2.6,4.1-4.8,6.2-7.1c0.4-0.5,1.1-0.8,1.5-1.3c0.7-0.8,0.7-1.4-0.3-1.7c-1.4-0.4-2.9-0.6-4.4-0.7
			c-1.1-0.1-2.2,0.2-3.4,0.3c-6.4,0.1-12.6-0.8-18.4-3.6c-4.3-2.1-8.6-4.3-12.8-6.5c-2.6-1.4-5-3-7.6-4.4c-1.4-0.7-2.9-1.3-4.4-1.6
			C298.7,102.6,296.7,102.6,295.6,102.5z M433.2,86.8c0.2,4.8,0.9,9.2,3.2,13.2c1.3,2.2,2.7,4.3,4.2,6.4c3.4,4.8,6.9,9.7,10.5,14.3
			c2.1,2.6,4.3,5.2,6.8,7.4c3.9,3.5,8.1,6.7,12.1,10c0.4,0.3,0.8,0.7,1.2,1c1.1,0.7,1.5,0.7,2.2-0.4c0.7-1,1.2-2.1,1.9-3.1
			c3.8-5.9,8.9-10.1,15.7-12c1.1-0.3,2.1-0.8,3.1-1.3c2.1-1.1,4.3-1.8,6.6-2c3.2-0.3,6.3,0,9.4,0.7c1.5,0.3,1.9,0.1,1.9-1.3
			c0.1-3.8,0.4-7.6,0.3-11.5c-0.1-6.7,1.4-13.1,4-19.2c2.6-6.2,6-12.1,9.8-17.7c0.8-1.1,0.9-2.1,0.3-3.3c-0.8-1.7-1.4-3.5-2.2-5.2
			c-1.4-3.1-3.8-4.7-7.3-4.6c-8.1,0.1-15,3.3-21.4,7.9c-2.6,1.9-5,4-7.5,6.1c-1.6,1.3-3.3,2-5.4,2c-2.8,0.1-5.6-0.2-8.2-1.3
			c-4.3-1.8-9-2.2-13.5-3.3c-3.6-0.9-7.3-1.5-11-2.1c-2.5-0.4-5-0.4-7.1,1.2C436.6,73.1,433.9,79.5,433.2,86.8z M202.9,306.2
			c0,1.2,0,2.6,0,4c0,0.8,0.2,1.6,0.3,2.4c0.7-0.3,1.6-0.4,2.2-0.9c3.3-2.4,6.5-4.8,9.7-7.3c3.5-2.8,7.4-3.9,11.8-3.5
			c1.1,0.1,2.2,0.1,3.4,0.3c1.7,0.2,3.3-0.2,4.7-1.3c3.8-3,8.1-3.4,12.6-2.3c4.3,1,8.6,2.5,12.3,4.8c3.4,2.1,6.7,2.2,10.3,1.1
			c3.9-1.2,7.8-2.4,11.7-3.3c10-2.4,20-4.1,30.3-3.5c2.5,0.2,5.1,0.4,7.6,0.6c2.9,0.2,5.6-0.4,8.2-1.8c2.5-1.4,4.8-3.1,6.7-5.3
			c5-5.7,10-11.4,16-16.2c2.9-2.3,6-4.4,9-6.7c0.5-0.4,0.7-1,1.1-1.5c-0.6-0.2-1.2-0.6-1.8-0.6c-0.5-0.1-1.1,0.1-1.5,0.3
			c-3.7,1.4-7.5,2.7-11.2,4.1c-3.5,1.4-6.9,3-10.3,4.4c-2.3,1-4.8,1.3-7.3,0.9c-7.3-1-14.3-2.9-20.6-6.7c-2.9-1.7-5.8-3.4-8.7-5.3
			c-1-0.6-1.7-0.7-2.7,0c-2.9,2-6.2,2.9-9.7,3.4c-6.3,1-12.6,1.9-18.9,2.8c-5.3,0.8-10.4,2.5-15.1,5c-3.2,1.7-5.8,3.9-8,6.8
			c-0.4,0.5-0.7,1-1.1,1.4c-1.5,1.8-3.8,2.3-5.7,1.3c-1.8-1-2.9-3.3-2-5.4c0.6-1.5,1.6-2.9,2.7-4.1c5.6-6.1,12.7-9.6,20.3-12.5
			c0.7-0.3,1.9,0,1.9-1.1c0-0.2-1.2-0.6-2-0.8c-5.5-1.2-11.1-2.1-16.5-3.5c-3.6-0.9-7-0.9-10.4,0.3c-4,1.4-7.9,2.9-11.8,4.4
			c-6.2,2.3-11.2,6.3-15,11.7c-1.2,1.7-2.5,3.2-2.7,5.3c0,0.3-0.2,0.6-0.3,0.8c-1.5,1.9-1.8,4.2-1.7,6.4c0.2,3.1,0.6,6.3,1.3,9.3
			C202.7,298.3,203.3,302.1,202.9,306.2z M588.9,307.8c0.5,8.2,2.7,16.1,8,22.9c3.2,4.1,6.8,7.8,10.6,11.3c3.7,3.4,7.8,6.3,11.8,9.4
			c1.2,1,1.8,0.7,2.1-0.9c0.1-0.5,0.1-1.1,0.1-1.6c0.5-2.9,0.8-5.8,1.5-8.6c2.1-8.2,5.9-15.7,10.5-22.8c3.2-4.9,7-9.2,11.6-12.8
			c4.2-3.3,8.4-6.8,12.7-10.1c0.6-0.5,1.2-0.9,1.9-1.1c2.4-0.9,5,0.4,5.8,2.8c0.3,0.8,0.2,1.8,0.3,2.7c0.2,1.5,0.3,3.1,0.7,4.6
			c0.9,2.9,1.9,5.7,2.9,8.5c0.3,0.9,0.7,1.8,1.1,2.7c0.4,0.8,1.3,1,1.9,0.3c0.6-0.6,1.1-1.4,1.4-2.2c1.8-4.9,3.8-9.8,6.4-14.4
			c0.8-1.5,0.7-1.9-0.7-3.1c-2-1.6-4-3.2-6-4.8c-5.8-4.6-11.1-9.6-13.8-16.8c-1.3-3.6-3.2-7-3.6-10.9c-0.2-1.6-0.6-3.2-1.2-4.8
			c-0.8-2.3-1.5-2.6-3.9-2.3c-4.3,0.6-8.5,1.9-12.5,3.7c-4.9,2.2-9.7,4.5-14.5,6.6c-2,0.9-4.1,1.6-6.1,2.4c-5.1,2-10.2,3.9-15.3,6
			c-1.8,0.8-3.6,1.9-5,3.3c-4.3,4.2-6.9,9.5-7.7,15.5C589.5,298.1,589.3,302.8,588.9,307.8z M150.5,598.9c-1.2,0.2-2.5,0.1-3.4,0.7
			c-3,2-6.1,3.8-8.7,6.4c-2.5,2.6-2.7,3.2-1.3,6.3c6.6,14.7,14.2,28.8,22.9,42.3c9.1,14.1,19.5,27.2,30.8,39.5
			c3.3,3.5,6.7,6.9,10.1,10.3c1.2,1.2,1.2,1.1,2.5,0c1.2-1,2.4-2,3.7-2.9c1.9-1.3,4-2.4,6-3.6c3.5-2.3,7-4.6,11.4-5
			c2.5-0.2,4.1-2.3,4-4.4c-0.2-3.6-0.4-7.2-1-10.7c-1.3-7.2-4.1-13.9-7.3-20.5c-3.6-7.2-8.8-12.4-16.7-14.7
			c-2.9-0.8-5.3-2.4-7.7-4.2c-3.9-3.1-7.9-6.2-11.8-9.4c-3.5-2.9-6.8-6-9.2-9.8c-2.7-4.4-6-8.1-10.6-10.7c-2.8-1.6-5.6-3.4-7.5-6.3
			C155.3,600.1,153.3,598.7,150.5,598.9z M480.6,278.2c0-0.1,0-0.1,0-0.2c1.9,0,3.9,0.2,5.8,0c9-1,17.7-3.1,26.1-6.6
			c3.2-1.3,6.5-2.3,9.9-3c7-1.6,14.1-2.7,21.3-3.2c2-0.2,4.1-1,6-1.6c1.4-0.5,1.7-1.3,1.3-2.7c-0.1-0.6-0.4-1.1-0.7-1.7
			c-1.4-3-3.8-5.1-6.6-6.9c-1.4-0.9-3-1.8-4.4-2.8c-3.2-2.3-6.7-3.6-10.5-4.2c-5.8-0.9-11.5-2-17.3-2.9c-4.7-0.7-9.5-1.5-14.3-1.8
			c-7-0.4-13-2.6-18.1-7.4c-0.4-0.4-0.9-0.8-1.3-1.2c-9.1-7.8-19.7-11.5-31.7-10.8c-3.3,0.2-6.5,0.9-9.8,1.5
			c-3.8,0.7-7.3,2.3-10.6,4.2c-1.2,0.7-1.7,1.6-1.4,3c0.3,1.6,0.6,3.2,1,4.8c1.6,6.6,5.4,12.2,8.3,18.1c0,0.1,0.1,0.1,0.1,0.2
			c2.2,3.8,5.2,7,8.4,9.9c1.7,1.5,3.6,2.7,5.5,3.8c4.1,2.3,8.4,4.3,12.6,6.5c3.5,1.8,7.1,3.4,10.9,4
			C474.3,277.5,477.5,277.8,480.6,278.2z M650.5,141.6C650.4,141.6,650.4,141.6,650.5,141.6c-0.1-0.7-0.1-1.4-0.1-2
			c0.5-7.3-5.1-10.8-9.8-12.3c-0.6-0.2-1.4-0.2-2,0c-1.5,0.3-3.1,0.6-4.5,1.3c-3.1,1.5-6.1,3.2-9.1,5c-0.9,0.5-1.7,1.5-2.1,2.5
			c-3.8,8.2-7.4,16.4-11.1,24.6c-3.3,7.3-7.3,14.3-11.9,20.9c-2.6,3.6-5.5,7-9.1,9.6c-1.4,1-2.3,2.3-3.1,3.8
			c-1.6,3.6-3.6,6.9-6.2,9.9c-0.3,0.3-0.5,0.6-0.7,0.9c-0.2,0.3-0.2,0.7-0.4,1c0.4,0.1,0.8,0.4,1.2,0.4c2.1,0,4.2-0.3,6.3-0.1
			c2.9,0.2,5.8,0.7,8.7,1.3c6.8,1.3,13.5,1,20.1-0.9c4.9-1.4,9.7-3.2,14.5-5c3.8-1.5,7.3-3.5,10.1-6.6c0.2-0.2,0.3-0.3,0.5-0.4
			c3.7-2.9,6.7-6.5,8.9-10.6c2.8-5.2,4.7-10.7,5.9-16.5c0.9-4.3,0.1-8.2-2.8-11.6c-0.6-0.7-1.2-1.5-1.8-2.3c-1.4-2.1-2-4.4-2-6.8
			C650.1,145.4,650.3,143.5,650.5,141.6z M539,552.9c-0.4,2.5,0.9,4.8,2.9,6.9c1.2,1.2,2.4,2.4,3.7,3.7c2.9,2.8,4.7,6.2,5.5,10.1
			c0.3,1.5,0.7,3.1,0.8,4.7c0.4,5.7,3.2,10.2,7,14.3c1.4,1.5,2.9,3,4.3,4.6c6.5,6.9,12,14.6,19.2,20.8c2.9,2.5,6.3,3.6,10,2.5
			c2.8-0.8,5.6-1.8,8.3-2.9c2.5-1,4.5-2.6,6.2-4.7c2.8-3.5,4-7.7,5-11.9c0.8-3.6,0.8-3.7-2.4-5.6c-3.8-2.2-4.7-5.5-4-9.4
			c0.3-1.8,1-3.5,1.7-5.1c1.4-3.5,1.5-3.4-2.2-3.2c-3.8,0.1-7.3-0.7-9.3-4.3c-0.9-1.6-1.7-2.2-3.7-1.9c-3.2,0.5-5.6-1.3-6.2-4.5
			c-0.1-0.4-0.2-0.9-0.2-1.3c0-1.3-0.6-1.8-1.9-2.1c-2.2-0.4-3.5-1.9-4.2-4c-0.3-1-0.4-2.1-0.5-3.1c-0.2-1.6-0.6-2.1-2.1-2.4
			c-0.4-0.1-0.9-0.1-1.3-0.1c-2.3-0.2-3.3-1.1-3.3-3.4c0.1-5.1-0.3-10.2,2.4-14.9c0.8-1.3,0.4-1.8-1.1-1.7c-2.5,0.2-5.1,0.4-7.6,0.7
			c-5.5,0.7-11,1.5-16.5,2.3c-2.9,0.5-5.4,1.9-7.1,4.4C540.3,544.7,538.9,548.3,539,552.9z M399.3,166c0.1,0.9,0.1,1.8,0.2,2.7
			c0.9,5.8,2.9,11.4,4.7,16.9c0.8,2.4,2.7,3.7,5.3,4c0.7,0.1,1.3,0.2,2,0.3c2.9,0.6,2.9,0.5,3.9-2.2c0.8-2,1.5-4.1,2.6-6
			c1.5-2.8,3.7-4.9,6.8-5.8c1.9-0.6,3.8-1.5,5.7-2.1c1.4-0.4,2.9-0.8,4.4-1c7.6-0.9,15,0.7,22.1,3.2c5.5,1.9,11,4.1,16.4,6.2
			c1.9,0.7,2.2,0.5,2.5-1.5c0.4-2.7,0.7-5.5,1.2-8.2c0.3-1.5,0-2.7-0.8-4c-2.6-4.2-4.8-8.5-6.1-13.3c-0.6-2-1.6-3.3-3.2-4.4
			c-2.7-1.8-5.4-3.6-7.9-5.6c-9.6-7.5-18.2-16.1-26.5-25c-0.9-0.9-1.8-1.9-2.8-2.6c-2.9-2-5.6-1.5-7.7,1.3c-2,2.6-3.9,5.3-5.7,8.1
			c-6.2,9.5-11,19.6-15.2,30.1C400,160,399.3,162.9,399.3,166z M422.9,207c0.1,1.7,0.1,3.4,0.3,5.1c0.4,2.4,1.6,3.1,3.8,2.4
			c4.7-1.5,9.6-2.4,14.5-3.3c5.9-1.1,11.7-0.4,17.3,1.6c2.8,1,5.6,2.1,8.4,3.2c1.2,0.5,2.3,1.1,3.4,1.7c2.5,1.4,4.8,3.1,7.4,4.2
			c4.8,2.2,9.7,4.1,14.5,6.2c6.6,2.9,13.5,4.5,20.5,5.9c6.7,1.4,13.5,1.6,20.3,2.3c4.4,0.4,8.8,0.9,13.1,1.8
			c8.3,1.8,14.4,9,15.2,17.4c0,0.3,0,0.6,0.1,0.9c0.2,0.7,0.7,0.9,1.1,0.3c0.7-0.9,1.4-1.8,2-2.7c2.6-4.3,5.5-8.2,9.2-11.6
			c0.6-0.5,1.1-1,1.6-1.6c1.1-1.4,1.2-1.9-0.2-3c-3.9-3.2-7.8-6.5-11.9-9.6c-3.2-2.4-7-3.6-11.1-3.9c-5.2-0.3-10.5-0.2-15.6-1.7
			c-0.6-0.2-1.5,0.2-2,0.6c-1.2,0.9-2.6,1.4-4.1,1.6c-1.3,0.1-2.5,0.2-3.8,0.3c-5,0.4-9.9-0.8-14.7-1.5c-6.6-1-12.7-3.1-17.7-7.6
			c-0.3-0.3-0.7-0.5-1.1-0.8c-6.8-4.6-11.4-11-15.2-18c-0.3-0.6-0.6-1.3-1.1-1.7c-2.2-1.7-4.3-3.6-6.8-4.7
			c-9.5-4.1-19.5-6.6-29.8-7.3c-5.3-0.4-9.6,1.5-12.2,6.4c-0.3,0.6-0.7,1.2-1,1.8C425,196.6,422.5,201.4,422.9,207z M541.9,299.9
			c1.2-0.2,3.2-0.5,5-1c3.1-0.7,6.2-1.6,9.4-2.4c4.9-1.2,9.7-2.5,14.6-3.6c2.5-0.6,5-1.1,7.5-1.5c1.6-0.3,2.6-1,2.8-2.8
			c0.1-0.6,0.2-1.2,0.4-1.8c1.2-4.7,3.1-9.2,6.5-12.7c5-5.1,10.4-9.4,17.3-11.9c5.8-2.1,11.4-5,17.1-7.5c2.1-0.9,4.1-1.9,6.1-2.8
			c6.5-2.7,13-5.4,19.1-9c1.4-0.8,3-1.4,4.5-2c1.6-0.7,3.3-1,5-0.5c1.1,0.3,1.7,0,2.1-1.1c0.9-2.6,1.7-5.2,1.3-7.9
			c-0.5-4-1.8-7.5-5.4-9.9c-3.7-2.4-7-5.2-9.8-8.6c-0.1-0.2-0.3-0.4-0.4-0.5c-0.9-0.8-1.3-0.8-2,0.3c-0.5,0.8-0.9,1.7-1.4,2.6
			c-2.4,4.4-4.7,8.9-7.3,13.2c-3,5-7.2,9-11.4,13c-3.9,3.7-8.4,6.3-13.4,8c-4.6,1.6-9.2,1.5-13.6-0.4c-2.8-1.2-5.5-2.7-8.2-4.3
			c-2.9-1.7-2.9-1.7-4.6,1.2c-1.1,2-2.3,4.1-3.5,6c-2.6,4.1-5.3,8.2-8.1,12.2c-2.3,3.2-5.2,5.8-8.4,8c-1.1,0.7-2.4,1.2-3.7,1.5
			c-2.6,0.5-5.3,1-8,1.1c-4.3,0.3-8.5,0.8-12.6,2c-1.1,0.3-2,0.6-2.4,1.8c-1.1,3.6-2.5,7.1-3.3,10.7c-0.5,2.1-0.4,4.3-0.2,6.5
			c0.2,2.2,1.1,3,3.4,3.3C538,299.6,539.6,299.7,541.9,299.9z M657.4,549.5c-0.3-3.7-0.5-7.6-0.9-11.5c-0.6-5.5-2.8-10.5-5.9-14.9
			c-3.9-5.7-8.1-11.2-12.4-16.6c-1.6-2-3.4-3.9-5.4-5.4c-4.9-3.5-9.9-6.8-15.1-9.8c-2.5-1.4-5.4-2.2-8.2-2.9
			c-2.4-0.7-3.3,0.3-3.2,2.8c0,0.6,0.1,1.2,0.2,1.8c1.7,9.8,4.7,19.1,9.5,27.8c2,3.6,3.8,7.3,5.6,11c1.2,2.6,2.4,5.2,3.4,7.8
			c0.9,2.3,1.7,4.7,2.3,7c1,4,0.3,8.1,0.1,12.1c-0.1,2.6-0.7,5-1.8,7.4c-2.4,5.5-4.8,11-7.1,16.5c-0.3,0.7-0.6,1.6-0.7,2.4
			c-0.1,1.8,1.1,2.9,2.8,2.5c5.3-1.2,10.4-2.8,15.2-5.4c4.8-2.7,9.2-5.9,13.2-9.7c2.9-2.8,5.1-6.1,6.5-9.9
			C657,558.4,657.3,554.1,657.4,549.5z M700.7,412.6c-0.1,0-0.2,0-0.2,0.1c-0.2,1.5-0.3,3-0.5,4.5c-0.4,3.2-2.1,5.7-4.6,7.7
			c-0.8,0.6-1.6,1.1-2.4,1.7c-0.8,0.7-1.6,1.5-2.3,2.4c-1.5,1.9-2.9,4-4.6,5.8c-1.9,2.1-4.4,2.9-7.2,2c-1.5-0.5-3-1.1-4.3-1.9
			c-2.6-1.7-5.1-3.4-7.4-5.5c-6.2-5.6-12.4-11.3-18.5-17.2c-3.2-3.1-6.2-6.6-9.3-9.8c-4.4-4.5-7.8-9.7-10.3-15.5
			c-1.7-3.8-3.1-7.8-4.7-11.7c-0.8-2-1.3-2.1-2.9-0.9c-1.8,1.4-3.6,2.8-5.3,4.1c-2.3,1.8-4.1,4.1-5.5,6.7c-1.8,3.2-1.6,6.8,2.9,8.1
			c0.2,0.1,0.4,0.2,0.6,0.2c3.1,1.3,6.3,2.2,9.3,3.8c7.3,4,13.3,9.3,17.8,16.2c3.3,5.1,7.1,9.9,11,14.5c3.5,4.2,7,8.4,10.2,12.8
			c4.4,6,10.2,9.6,17.2,11.6c3.1,0.9,6.2,1.2,9.4,0.5c4.4-0.9,8.8-2,13.1-3.1c0.9-0.2,1.9-0.6,2.7-1c6.1-3,10.1-7.6,11.1-14.6
			c0.7-5.1,0.9-10.2-0.7-15.2c-1.9-5.6-4-11.1-6.3-16.6c-1-2.3-2.5-4.5-4.6-6c-3-2.2-5.9-4.3-8.9-6.5c-0.4-0.3-1-0.4-1.5-0.7
			c0.1,0.6,0.2,1.1,0.3,1.7c1.7,4.6,3.5,9.1,5,13.7C700,407.4,700.2,410.1,700.7,412.6z M377,135.4c-0.1-0.8,0-1.4-0.1-1.9
			c-0.2-0.7-0.6-1.3-0.9-1.9c-0.5,0.5-1.1,1-1.4,1.6c-1.7,3-2.3,6.4-2.5,9.7c-0.4,6.6-3.2,12.5-4.9,18.7c-0.2,0.6-0.5,1.1-0.8,1.6
			c-0.7,1.6-1.5,3.3-2.2,4.9c-4.2,9.9-10.1,18.4-18.7,25c-3.5,2.7-5.5,6-6.1,10.5c-0.7,5.1-3.1,9.4-7.7,12.4
			c-5.9,3.9-11.5,8.1-17.2,12.3c-3.6,2.7-6.6,6.2-8.7,10.2c-2.2,4.2-1.8,7.2,1.5,10.6c5.9,5.8,13.1,9.5,20.8,12.1
			c4.7,1.6,9.1,0.3,12.9-2.6c2.6-2,5.1-4.2,7.5-6.5c2.1-2,2-2.5-0.7-3.7c-6.4-2.9-12.5-6.2-17.9-10.7c-1.1-0.9-2.1-2.1-3-3.3
			c-0.8-1.1-0.7-2.4,0-3.6c1.3-2.3,3-3.9,5.5-5.1c2.4-1.1,4.8-2.5,6.9-4.1c5.1-4.1,9.3-9.1,13.3-14.3c2.9-3.9,5.8-7.9,9-11.5
			c2.7-3.2,5.9-6,8.9-8.9c1.2-1.1,1.8-2.3,1.8-3.9c0.1-3.8,0.3-7.5,0.4-11.2c0.3-9.1,1.4-18.1,2.7-27.1
			C375.9,141.5,376.5,138.3,377,135.4z M486.4,183.6c0.1,0.8,0.2,1.9,0.6,3c0.9,2.9,2.6,5.4,4.5,7.7c1.9,2.2,3.8,4.3,5.8,6.3
			c3.3,3.4,6.7,6.4,11.4,7.7c1.5,0.4,3,1,4.4,1.7c3.7,2,7.7,2.8,11.8,3.5c1.9,0.3,3.3-0.1,4.7-1.4c4.1-3.5,6.9-7.9,9.2-12.7
			c1-2.1,1.4-4.4,1.8-6.7c0.3-1.4-0.3-1.8-1.7-1.7c-0.9,0-1.8,0.2-2.7,0.3c-8.2,1.1-15.8-0.6-22.8-5c-1.3-0.8-2.5-2-3.5-3.1
			c-2.6-2.9-3.9-6.5-4.9-10.3c-1.8-6.8-1.9-6.7-6.3-11.1c-1.9-1.9-3.1-1.9-4.9,0.1c-0.6,0.7-1.2,1.6-1.6,2.4c-1,2.1-2.2,4.1-3,6.3
			C487.8,174.8,486.9,179,486.4,183.6z M580.6,175.3c-0.3-2-0.6-4-1.1-5.9c-0.9-4.5-3.3-8.5-4.9-12.8c-0.9-2.2-2-4.4-3-6.5
			c-0.6-1.2-1.2-1.3-2-0.3c-2.5,3-5,6-7.3,9.2c-5.3,7.2-8.4,15.5-12.3,23.5c-0.1,0.3-0.2,0.6-0.3,0.8c-0.5,1.3-0.4,2.4,0.7,3.5
			c2.5,2.5,2.4,9.4,0.1,12c-0.9,1.1-1.6,2.6-1.9,4c-0.6,2.7-1.8,5.1-3.5,7.2c-0.7,0.9-1.5,1.9-2.1,2.9c-0.4,0.6-0.3,1.2,0.5,1.4
			c3.4,1.2,6.9,1.6,10.1,0.1c3.3-1.4,6.4-3.3,9.2-5.6c3.7-2.9,7-6.3,10.3-9.7c1.9-1.9,3.5-4.1,4.2-6.8
			C578.8,186.8,579.9,181.1,580.6,175.3z M647.8,359.9c0,7.7,2,14.1,6.6,19.5c3.9,4.5,8,8.7,12.7,12.4c2.8,2.3,5.6,4.5,8.3,6.9
			c4,3.4,7.8,7.1,10.7,11.5c0.5,0.7,1.1,1.2,1.7,1.9c0.3-0.8,0.8-1.6,0.9-2.4c0.5-5.7-0.5-11.1-3.1-16.1c-1.7-3.3-3.8-6.5-5.7-9.7
			c-2.2-3.8-4.3-7.7-4.6-12.3c-0.1-1.2-0.7-1.9-1.8-2.3c-1.3-0.5-2.7-0.9-3.9-1.6c-1.4-0.8-2.9-1.7-3.9-2.9
			c-1.9-2.4-3.7-4.9-5.3-7.5c-2-3.3-2.6-6.8-1.5-10.6c0.3-0.9,0.4-1.9,0.7-2.8c0.6-1.8,0.7-3.4-0.1-5.2c-0.9-2.1-0.3-4.3,1.1-6.2
			c0.4-0.5,0.8-1.1,1.4-1.5c1.3-1,1.8-2.3,2.3-3.8c0.8-2.4,0.7-4.5-0.5-6.7c-0.6-1-1-2.2-1.5-3.3c-0.2-0.4-0.6-0.8-0.9-1.2
			c-0.4,0.4-0.7,0.8-1.1,1.3c0,0.1-0.1,0.1-0.1,0.2c-2.7,7.2-5.6,14.4-8.2,21.7C649.4,346,648.1,353.2,647.8,359.9z M543.9,510.4
			c-0.3,6.5,1.6,11.5,5.7,15.6c1.2,1.2,2.4,1.5,4,1.1c3.6-0.8,7.2-1.5,10.8-2c4.2-0.5,8.4-0.6,12.5-0.9c1.9-0.1,2.1-0.4,1.8-2.2
			c-0.1-0.7-0.3-1.3-0.4-2c-0.4-2.1-0.8-4.3-1.1-6.4c-0.6-5.2,0.3-10.1,2.2-15c0.7-1.9,0.5-2.1-1.3-2.8c-2.5-0.9-5-1.7-7.4-2.7
			c-4.5-1.8-9.1-2.3-13.9-2.3c-1.4,0-2.7,0.2-3.8,1.2C547.4,497.1,544,503.3,543.9,510.4z M630.2,355.7c0.1,3.4,0.4,8.2,2.3,12.8
			c0.4,1,0.7,2.1,1,3.2c1.6,7.6,5.3,14.1,10.2,20.1c2.7,3.3,5.5,6.5,8.3,9.8c4.6,5.4,9.2,10.7,14.4,15.5c2.7,2.5,5.9,4.4,9.1,6.2
			c2.6,1.4,5.1-0.2,5-3.2c0-1.1-0.3-2.2-0.8-3.2c-0.8-1.5-1.6-2.9-2.8-4.1c-3-3.1-6-6.1-9.2-8.9c-6.3-5.4-12.7-10.5-18.3-16.6
			c-7.6-8.4-11.3-18.1-10.4-29.5c0.7-8.3,2.4-16.3,5.4-24.1c1.9-5.1,4-10.2,5.9-15.3c0.2-0.6,0.1-1.3,0.1-1.9
			c-0.6,0.3-1.2,0.4-1.7,0.8c-5,3.9-9,8.8-12.3,14.2C632.2,338.4,630.1,346,630.2,355.7z M668.5,562.1c-0.1-0.6-0.1-1.6-0.4-2.5
			c-0.3-0.9-1-1.5-2-1.6c-1-0.1-1.5,0.5-1.9,1.3c-0.6,1.4-1.2,2.9-1.7,4.4c-0.8,1.9-1.3,3.9-2.3,5.6c-2.3,3.9-4.6,7.7-7.6,11.1
			c-4.2,4.7-8.6,8.8-14.9,10.4c-5.6,1.4-10.7,4-16,6c-1.3,0.5-1.8,1.3-2.1,2.6c-0.6,3.1-1.3,6.2-2.1,9.2c-1.3,4.4-3.8,8.1-7.4,11.1
			c-0.4,0.3-0.8,0.7-1.2,1.1c-0.5,0.6-0.2,1.2,0.5,1.3c0.5,0.1,1,0,1.6-0.1c3-0.4,5.8-1.3,8.5-2.9c2.6-1.6,5.5-2.6,8.5-3.3
			c3-0.8,6-2,8.8-3.4c1.7-0.8,3.4-2,4.7-3.5c3.2-3.8,6.5-7.7,9.2-11.9c5-7.7,9.7-15.7,14.5-23.6
			C667.2,569.9,668.1,566.3,668.5,562.1z M584,215.5c-4.2-0.1-9.2,1.3-11.6,3c-0.9,0.6-0.9,1.1,0,1.7c0.4,0.3,0.8,0.5,1.2,0.7
			c2.4,1.3,4.8,2.5,7.1,3.8c7.3,4.1,14.7,8.2,22,12.3c3.2,1.8,6.4,2.5,9.8,0.7c1.3-0.7,2.6-1.3,3.7-2.1c5.6-4.3,10.1-9.4,13.2-15.7
			c1.3-2.8,2.8-5.6,4.3-8.4c0.1-0.2,0.2-0.4,0.3-0.6c0.2-0.6-0.1-0.9-0.6-0.8c-0.7,0.1-1.3,0.3-2,0.5c-7.8,2.5-15.5,5.3-23.8,5.8
			c-4.4,0.2-8.8,0.4-13.3,0.3C590.4,216.3,586.5,215.8,584,215.5z M533.9,144.6c0,0,0.1,0,0.1,0c0,1.2-0.1,2.4,0,3.6
			c0.1,1,0.2,2.3,0.8,2.9c1.3,1.1,2.8,2.4,4.6,2.1c2.5-0.4,4.5,0.2,6.5,1.8c1.2,1,3.8,0.5,4.7-0.7c1.8-2.4,3.6-4.8,5.5-7.1
			c3.2-4.2,7.6-6.5,12.7-7.5c2.9-0.6,5.5,0.3,7.2,3c0.9,1.5,1.8,3.1,2.8,4.6c1.3,2.1,2.7,4.1,4.1,6.2c0.2,0.3,0.6,0.6,0.9,0.5
			c0.3-0.1,0.6-0.5,0.6-0.8c0.3-1.7,0.5-3.4,0.8-5.1c0.5-3-0.3-5.9-1.9-8.4c-3.8-5.7-9.3-8.9-16-9.7c-6.8-0.8-13.8-1.1-20.6-1.6
			c-1-0.1-1.9,0-2.9,0c-3.8-0.1-6.2,1.9-7.8,5.1c-0.7,1.3-1.2,2.8-1.4,4.3C534.2,140,534.1,142.3,533.9,144.6z M485.4,149.7
			c0,1-0.1,2,0,2.9c0.1,1.4,0.6,1.5,1.7,0.7c1-0.7,1.9-1.4,3-1.9c1.3-0.6,2.7-1,4-1.5c2.5-1,4.9-0.7,7,0.9c1.5,1.1,2.9,2.4,4.1,3.8
			c1.9,2.3,3.6,4.8,5.3,7.2c1,1.4,1.1,1.5,2.2,0.2c0.6-0.6,1.3-1.3,2.1-1.5c1.1-0.4,1.6-1.1,2.2-2.1c0.5-1,1.2-2.2,2.1-2.5
			c2.3-0.8,3.5-2.8,5.4-4c0.8-0.5,1-1.3,0.7-2.2c-1.4-5.2-3.1-10.2-7.4-14.1c-3.9-3.5-8.3-4.8-13.2-4.4c-6,0.5-11,3.4-15.4,7.2
			c-0.7,0.6-1.2,1.5-1.7,2.3C485.8,143.6,485.3,146.6,485.4,149.7z M124.5,328.6c-0.1-2.5-0.2-5.6-0.5-8.6c-0.1-0.8-0.5-1.5-0.7-2.2
			c-0.5,0.6-1.2,1-1.6,1.7c-5.6,9.3-10.2,19-13.9,29.2c-1.2,3.2-1,6,0.5,9c2.7,5.4,5.1,11,6.7,16.9c0.2,0.7,0.4,1.5,0.7,2.1
			c0.2,0.5,0.5,0.8,0.8,1.3c0.4-0.4,0.8-0.8,1.1-1.2c0.2-0.3,0.3-0.7,0.4-1c2.5-5.6,5-11.3,7.6-16.8c2.6-5.6,2.4-4,0.9-9.6
			C124.7,342.7,124.3,335.9,124.5,328.6z M177.1,161.4c-1.1,0.1-1.9,0.1-2.6,0.2c-2.5,0.2-4,1.2-4.9,3.7
			c-6.6,17.5-13.4,35-20.1,52.5c-0.2,0.6-0.5,1.3-0.7,1.9c-0.4,1.4-0.3,1.8,1,2.3c1.3,0.5,2.7,1,4.1,1.3c2,0.4,2.2,0.3,3-1.7
			c2.6-6.3,5.2-12.6,7.7-19c2.1-5.2,4-10.3,6-15.5c2.9-7.5,5.8-15,8.7-22.5C180.3,161.6,180.1,161.2,177.1,161.4z M154.6,281.1
			c-0.1-0.2-0.1-0.7-0.3-0.8c-0.3-0.1-0.7,0.1-1,0.3c-0.7,0.5-1.3,1-1.9,1.6c-5,4.7-9.8,9.8-14.2,15.1c-2.3,2.8-4.5,5.7-6.6,8.5
			c-1.5,2-1.4,2.2,0.9,3.4c1.6,0.8,3.3,1.6,4.6,2.7c3.1,2.5,6,5.2,9,7.8c1.5,1.3,1.8,1.3,3-0.3c1.8-2.6,3.6-5.2,5.5-7.7
			c1-1.4,1.2-2.8,0.8-4.4c-1.9-8.4-2.4-16.8-0.2-25.2C154.4,281.9,154.5,281.6,154.6,281.1z M598.6,492.1c0-0.9,0-1.8,0-2.7
			c-0.1-1-0.5-1.2-1.3-0.6c-0.4,0.3-0.7,0.6-1,0.9c-2.5,2.4-4.5,5.1-5.7,8.5c-3,8.2-2.8,16.5-0.6,24.8c0.1,0.6,0.7,1.3,1.2,1.4
			c1.8,0.4,3.6,1,5.5,0.6c4-0.9,7.7-0.2,11.3,1.8c0.5,0.3,1.1,0.4,1.6,0.5c-0.1-0.6-0.1-1.3-0.3-1.9c-0.1-0.4-0.3-0.7-0.4-1
			c-2.1-4.6-4.1-9.1-6.2-13.7C599.9,504.7,598.9,498.5,598.6,492.1z M365.2,129.8c-0.2-0.4-0.3-0.9-0.7-1.2
			c-0.7-0.5-1.4-0.3-2.1,0.1c-2.3,1.7-4.5,3.4-6.8,5.2c-0.5,0.4-0.8,0.9-1.2,1.4c-1.6,2.5-3.3,4.9-4.7,7.4
			c-4.9,8.9-6.4,18.3-3.2,28.2c0.6,2,1.1,2.1,2.5,0.6c0.2-0.2,0.3-0.3,0.4-0.5c2.2-2.2,3.5-5,4.9-7.8c2.8-5.3,4.8-10.8,6.4-16.5
			c1.1-3.8,2.1-7.7,3.1-11.5C364.4,133.5,364.7,131.7,365.2,129.8z M131.4,212.8c0.4-0.2,0.8-0.4,1-0.7c0.3-0.4,0.5-0.9,0.7-1.4
			c4.9-11.8,9.8-23.6,14.6-35.4c0.2-0.6,0.5-1.1,0.6-1.7c0.1-0.8-0.3-1.1-1.1-1c-0.5,0.1-1,0.3-1.5,0.5c-2.5,1.1-5,2.1-7.4,3.4
			c-0.8,0.4-1.6,1.2-2,2c-4.3,8.9-8.5,17.9-12.7,26.9c-0.2,0.3-0.4,0.7-0.4,1.1c0.1,0.5,0.2,1.2,0.6,1.5c1.9,1.4,3.9,2.8,5.9,4.1
			C130.4,212.3,130.9,212.5,131.4,212.8z M192.3,262.4c-0.1-0.3-0.1-0.4-0.1-0.6c-0.6-1.5-3.2-2.9-4.8-2.4c-7,2.2-13.4,5.6-19.4,9.7
			c-1.2,0.8-1.2,1.2-0.5,2.4c2.4,4.1,4.4,8.3,5.8,12.9c0.5,1.6,1.1,1.7,2.3,0.5c3.6-3.7,7.2-7.4,10.6-11.3c1-1.1,1.7-2.4,2.4-3.7
			c1.1-2.1,2.1-4.3,3.2-6.4C191.9,263.1,192.1,262.7,192.3,262.4z M714.7,572.4c-0.1-0.3-0.3-1-0.6-1.1c-0.4-0.1-0.9,0.3-1.3,0.6
			c-2.3,1.7-4.5,3.5-6.8,5.1c-1.5,1-2.5,2.2-3,4c-1.3,4.4-2.7,8.9-4.2,13.3c-1.4,4.2-3,8.3-4.5,12.5c-0.2,0.6-0.2,1.3-0.3,1.9
			c0.6-0.1,1.3-0.1,1.8-0.4c2.3-1.1,4.5-2.3,6.9-3.4c2.3-1,3.7-2.7,4.5-5c2.5-7,4.8-14,6.5-21.3
			C714.2,576.6,714.4,574.6,714.7,572.4z M404.5,241.4c1.3-0.3,2.3-0.4,3.3-0.7c1.1-0.3,1.3-0.9,0.7-1.9c-0.7-1.2-1.6-2.4-2.4-3.6
			c-8.2-12.1-16.5-24.1-24.7-36.2c-2.1-3.1-3-3.1-5,0.1c-0.4,0.7-0.5,1.4-0.1,2.1c0.3,0.4,0.6,0.9,0.9,1.3
			c8,11.8,15.9,23.6,23.9,35.4c0.5,0.8,1,1.7,1.7,2.4C403.3,240.8,404,241.1,404.5,241.4z M593.1,379.2c0.8-0.3,2.1-0.7,3.4-1.2
			c1.3-0.5,1.4-1,0.7-2.3c-0.2-0.3-0.4-0.6-0.6-0.9c-7.1-10.2-14.2-20.4-21.3-30.7c-0.8-1.1-1.5-2.2-2.3-3.3c-0.6-0.9-1.4-1-2.4-0.7
			c-2.8,0.9-3.1,1.6-1.4,4.1c5.5,8.7,11.1,17.3,16.6,26c1.6,2.5,3.2,5.1,4.9,7.6C591,378.5,591.5,379.3,593.1,379.2z M365.4,284.7
			c-0.2,0-0.4,0-0.6,0.1c0.5,5.4,1,10.9,1.6,16.3c0.1,1.3,0.7,2.5,1.8,3.2c1,0.7,1.9,0.6,2.5-0.4c2.5-4,4.7-8.1,4.7-12.9
			c0-3-0.2-6-0.4-9c-0.2-2.5-1.3-4.6-3.2-6.3c-2-1.7-4.1-2-6.4-0.9c-0.8,0.4-1,0.9-0.9,1.8C364.8,279.3,365.1,282,365.4,284.7z
			 M705.9,188c-0.8-0.8-1.4-1.6-2.1-2.2c-1.2-1.2-1.6-1.2-2.9-0.1c-1.8,1.5-3.7,2.9-5.4,4.4c-8.7,7.7-17.4,15.4-26.1,23.2
			c-2,1.8-2,1.8-0.6,4.1c0.2,0.3,0.3,0.5,0.5,0.8c0.5,0.9,1.2,1,2,0.4c0.4-0.3,0.7-0.6,1-0.9c8.2-7,16.3-14,24.4-21
			c2.6-2.3,5.1-4.6,7.7-6.9C705,189.2,705.4,188.7,705.9,188z M384.9,243.2c2.3,0.1,2.6-0.3,1.9-1.8c-0.1-0.3-0.3-0.5-0.5-0.8
			c-5.6-9-11.2-18-16.7-26.9c-0.3-0.4-0.5-0.9-0.9-1.3c-0.7-0.8-1.2-0.8-1.8,0c-0.8,1.1-1.4,2.3-2.1,3.4c-0.8,1.2-0.8,2.3,0,3.6
			c4.2,6.8,8.3,13.7,12.6,20.5c0.6,0.9,1.7,1.7,2.8,2.1C381.9,242.7,383.8,242.9,384.9,243.2z M657.9,207.7c0.8-0.6,1.5-1,2.1-1.5
			c5.8-5.1,11.6-10.2,17.4-15.3c4.9-4.4,9.7-8.9,14.6-13.4c1.2-1.1,1.2-1.5,0-2.5c-1.8-1.5-2.4-1.5-4.2,0.1
			c-10.6,9.4-21.2,18.8-31.8,28.2c-0.4,0.3-0.8,0.7-1.1,1.1c-0.2,0.3-0.2,0.9-0.1,1C655.8,206.2,656.8,206.9,657.9,207.7z
			 M577.2,380c0.4-0.1,1-0.2,1.1-0.4c0.1-0.4,0-0.9-0.1-1.2c-0.2-0.5-0.6-1-0.9-1.5c-5.8-9-11.7-18-17.5-27
			c-1.6-2.5-1.6-3.1-4.8-0.8c-1.3,0.9-1.4,1.4-0.5,2.8c5.1,8.2,10.2,16.4,15.3,24.6c0.4,0.6,1,1.3,1.6,1.5
			C573.3,378.9,575.3,379.4,577.2,380z M586.6,336.8c-1.2,0-1.6,0.6-1.2,1.4c0.3,0.5,0.6,1,1,1.5c6.6,9.8,13.2,19.5,19.8,29.3
			c0.2,0.3,0.4,0.6,0.6,0.9c0.8,1,1.2,1.1,2.2,0.2c0.9-0.8,1.7-1.7,2.6-2.5c2.3-2.2,2.3-2.2,0.1-4.4c-2.6-2.7-5.5-5.1-8-7.9
			c-5.3-5.8-10.5-11.7-15.8-17.6C587.5,337.3,586.9,337,586.6,336.8z M717.3,529.6c-0.1,0-0.2,0-0.3,0c0-4.9,0.1-9.7,0-14.6
			c-0.1-2.5-0.5-4.9-0.7-7.4c0-0.3-0.4-0.5-0.6-0.8c-0.1,0.3-0.3,0.5-0.4,0.8c-0.2,1.7-0.4,3.4-0.5,5.1c-0.5,9.8-1.6,19.6-3.2,29.3
			c-0.6,3.8-1.3,7.7-2,11.5c-0.3,1.9,0,2.3,2,2.1c0.9-0.1,1.8-0.2,2.7-0.3c1.2-0.1,1.7-0.7,1.8-1.9c0-1.8,0.1-3.6,0.2-5.4
			C716.7,541.9,717,535.8,717.3,529.6z M467.9,335.7c-1.1,0-2.3-0.1-3.4,0c-0.6,0-1.1,0.3-1.7,0.5c0.4,0.5,0.6,1.2,1.1,1.5
			c2.5,1.7,5,3.4,7.6,4.8c4.4,2.4,9.1,4.4,14.1,5c1.6,0.2,3-0.1,4.4-0.7c1.5-0.7,2-1.9,1.2-3.3c-0.5-0.9-1.2-1.8-2.1-2.3
			c-1.9-1.1-3.8-2.1-5.9-2.8C478.4,336.7,473.2,335.8,467.9,335.7z M410,208c0.3-1.8-0.5-3.2-2-4.1c-0.9-0.5-1.9-0.9-2.9-1.2
			c-2-0.6-3.7-1.6-5-3.3c-2.3-3-4.5-6.2-6.8-9.2c-0.4-0.5-1-1.1-1.5-1.1c-0.9,0.1-1.9,0.6-2.5,1.2c-0.2,0.3,0.4,1.4,0.7,2.1
			c0.1,0.3,0.3,0.5,0.5,0.7c3.5,4.9,7,9.8,10.4,14.7c2.3,3.2,4.6,6.5,6.9,9.7c0.3,0.4,0.8,0.6,1.2,0.9c0.2-0.5,0.6-1,0.6-1.5
			C409.8,214,409.9,211,410,208z M779.4,253.8c-1.5,0-1.8,0.5-1.3,1.6c0.1,0.2,0.2,0.4,0.3,0.6c3.7,5.4,8.2,10,13.8,13.3
			c1.1,0.6,2.3,1.1,3.6,1.2c2.1,0.3,3.2-1.1,2.7-3.2c-0.5-2.2-1.9-3.7-3.5-5.1c-4-3.3-8.4-6-13.3-7.8
			C780.8,254,779.9,253.9,779.4,253.8z M432.7,335.2c-0.1-3.1-0.3-6.5-0.5-9.9c-0.1-1.3-0.3-2.7-0.5-4c-0.1-0.4-0.4-0.7-0.6-1.1
			c-0.2,0.3-0.5,0.5-0.7,0.8c-0.2,0.4-0.5,0.8-0.6,1.2c-1.3,4.1-2.8,8.2-4,12.4c-1,3.4-0.8,6.8-0.2,10.3c0.1,0.8,0.4,1.6,0.9,2.3
			c1.1,1.7,2.9,1.8,4,0c0.7-1.1,1.2-2.3,1.4-3.5C432.3,341,432.4,338.2,432.7,335.2z M460.4,314.4c0.8-0.1,1.2-0.1,1.5-0.1
			c2.2-0.5,2.8-2,1.4-3.8c-0.4-0.5-0.9-1-1.4-1.4c-5.2-4.3-11.2-7.2-17.9-8.4c-0.6-0.1-1.3,0-1.9,0.1c0.3,0.6,0.6,1.3,1,1.9
			c0.1,0.2,0.3,0.3,0.5,0.5c4.1,3.9,8.7,7.1,13.5,10C458.1,313.7,459.5,314,460.4,314.4z M468.2,374.4c0,0.2,0-0.1,0-0.4
			c-1.1-8.5-4.9-15.8-9.6-22.7c-0.2-0.3-0.7-0.4-1.1-0.7c-0.2,0.4-0.5,0.8-0.6,1.3c-0.1,0.3,0,0.7,0.1,1.1c0.9,4.1,1.7,8.2,2.8,12.2
			c1.2,4.1,3.3,7.9,6,11.2c0.4,0.4,1.1,0.6,1.6,0.9c0.2-0.5,0.5-1,0.7-1.6C468.3,375.5,468.2,375.2,468.2,374.4z M766.1,220.7
			c-0.6,0.2-1.6,0.5-2.5,1c-6.1,3.2-10,8.6-13.7,14.3c-0.1,0.2-0.2,0.4-0.3,0.6c-0.2,0.8,0.1,1.1,0.9,1c0.3-0.1,0.6-0.2,0.8-0.3
			c5.6-2.9,10.9-6.3,15.4-10.7c0.8-0.8,1.5-1.7,1.9-2.7C769.6,222,768.5,220.6,766.1,220.7z M699.1,210.9c0.8-0.3,1.3-0.4,1.9-0.7
			c4.2-1.7,8.4-3.5,12.7-5.1c2.2-0.8,4.6-1.3,6.9-2c0.5-0.2,1-0.6,1.4-0.9c-0.3-0.4-0.5-0.9-0.9-1.2c-1.2-1-2.5-2-3.7-2.9
			c-2-1.6-2.1-1.6-4.1-0.1c-4.6,3.7-9,7.4-13.5,11.1c-0.3,0.3-0.6,0.6-0.9,1C698.9,210.3,699,210.6,699.1,210.9z M178.1,228.5
			c1.3-0.1,2.2-0.1,3.2-0.2c1.3,0,2.1-0.6,2.4-1.9c0.5-1.7,1-3.3,1.5-5c0.7-2.4-1.1-7.2-3.2-8.5c-0.6-0.4-1.1-0.4-1.6,0.2
			c-0.3,0.4-0.5,0.9-0.7,1.4c-1.4,3.9-2.8,7.7-4.2,11.6c-0.4,1.2-0.1,1.7,1.1,2C177.2,228.4,177.8,228.4,178.1,228.5z M757.9,266.5
			c2.5,0,3.3-1.3,2.5-3.1c-0.7-1.5-2-2.5-3.5-3c-4.4-1.6-8.9-3.1-13.3-4.6c-0.6-0.2-1.2-0.3-1.8-0.3c-0.4,0-1,0.1-1.1,0.4
			c-0.1,0.3,0.1,0.8,0.4,1.2c0.2,0.3,0.5,0.6,0.8,0.8c3.2,3.1,7,5.4,11.1,7.1C754.7,265.6,756.6,266.1,757.9,266.5z M790.2,242.3
			c1.7-0.2,3.9-0.4,6.1-0.8c3.6-0.6,7.2-1.5,10.5-3.2c0.8-0.5,1.7-1,2.4-1.7c0.6-0.6,0.4-1.3-0.4-1.6c-0.4-0.2-0.9-0.2-1.3-0.2
			c-2.2,0.1-4.3,0.1-6.5,0.4c-5.2,0.7-9.8,3.1-14.6,5.1c-0.2,0.1-0.4,0.2-0.6,0.3c-0.2,0.3-0.6,0.6-0.5,0.9c0,0.3,0.5,0.6,0.8,0.6
			C787.3,242.2,788.4,242.2,790.2,242.3z M678.3,167.7c-0.3-0.4-0.6-0.8-0.9-1c-1.5-0.7-3-1.3-4.5-1.9c-0.9-0.3-1.6,0.1-2.3,0.6
			c-1,0.8-1.9,1.7-2.9,2.5c-1.1,0.9-1.6,1.9-1.6,3.3c0.1,2.4-0.6,4.7-1.5,7c-0.2,0.4-0.3,0.8-0.5,1.3c0,0.1,0,0.4,0,0.4
			c0.2,0.1,0.4,0.1,0.6,0.1c0.2-0.1,0.4-0.2,0.6-0.4c4-3.6,8.1-7.1,12.1-10.7C677.8,168.6,678,168.1,678.3,167.7z M113.8,185.9
			c-0.1-1.3-0.4-1.7-1.8-1.7c-3.4,0.1-6.5-0.7-9.7-1.8c-0.5-0.2-1-0.4-1.5-0.5c-0.8-0.1-1.1,0.3-0.7,1.1c0.2,0.4,0.4,0.8,0.7,1.1
			c2.3,2.9,4.7,5.9,7.1,8.7c1.1,1.4,2,1.4,2.7,0.2C111.7,190.7,112.7,188.3,113.8,185.9z M552.1,367.5c-0.1-0.4-0.2-0.6-0.3-0.8
			c-2.1-3.6-4.3-7.2-6.4-10.8c-0.6-0.9-1.4-1.1-2.3-0.7c-1.2,0.4-2.4,0.8-3.6,1.2c-0.7,0.3-1.3,0.7-1.9,1c0.5,0.6,0.8,1.5,1.4,1.9
			c3.8,2.7,7.6,5.4,11.4,8c0.4,0.3,0.8,0.4,1.2,0.5C551.6,367.9,551.9,367.7,552.1,367.5z M354,228.3c-0.4,0.2-0.8,0.4-1.1,0.6
			c-1.5,1.1-3,2.2-4.5,3.3c-1.1,0.8-1,1.3,0.3,1.9c3.1,1.3,6.2,2.6,9.4,3.9c0.4,0.2,0.8,0.3,1.3,0.4c0.9,0.1,1.2-0.3,0.8-1.2
			c-0.2-0.3-0.4-0.6-0.6-0.9c-1.6-2.4-3.2-4.7-4.8-7.1C354.6,228.8,354.3,228.6,354,228.3z"/>
		<path d="M763,354.1c0-6.3,4.4-12.3,10.3-14.1c7.8-2.4,14.9,2.7,15.2,10.9c0.2,6.5-4.6,13-10.9,14.6
			C769.9,367.5,763,362.2,763,354.1z"/>
		<path d="M738.1,643.8c6.7-0.1,12.4,5.5,12.6,12.4c0.2,7-5.5,12.8-12.6,12.8c-6.8,0-12.5-5.5-12.6-12.3
			C725.3,649.5,730.7,644,738.1,643.8z"/>
		<path d="M237.9,110c6.3,0,11.1,4.9,11,11.2c0,6.2-5,11-11.3,10.9c-6-0.1-10.7-5.2-10.7-11.3C226.9,116.3,230.8,109.8,237.9,110z"
			/>
	</g>
</g>
</svg>
