<?xml version="1.0" encoding="utf-8"?>
<!-- Generator: Adobe Illustrator 25.2.0, SVG Export Plug-In . SVG Version: 6.00 Build 0)  -->
<svg version="1.1" id="Layer_1" xmlns="http://www.w3.org/2000/svg" xmlns:xlink="http://www.w3.org/1999/xlink" x="0px" y="0px"
	 width="617.1px" height="327.4px" viewBox="0 0 617.1 327.4" style="enable-background:new 0 0 617.1 327.4;" xml:space="preserve"
	>
<g>
	<path d="M617.2,30.8c-0.1-1.4-0.2-2.9-0.4-4.3c-0.1-1.6-0.3-3.2-0.4-4.9c-0.2-2.2-0.3-4.4-0.4-6.6c0-1.2-0.1-2.7-1.5-3
		c-0.7-0.1-1.5,0.6-2.3,1.2c-0.1,0.1-0.2,0.2-0.3,0.3c-0.5,0.4-0.9,1-1.2,1.5l-0.2,0.3c-3.7,5.4-5.1,11.5-6.2,18.9
		c-0.8,5.5-1.5,10.9-2.1,16.2l-0.3,2.5c-0.7,6.2-1.5,12.7-1.9,19c-0.2,3-1,5.2-2.7,7.1c-6,6.8-11,14.7-15.9,25.1
		c-1.5,3.1-3.2,6.1-4.9,9c-0.8,1.3-1.5,2.6-2.3,4c-1.6,2.9-3.2,5.8-4.8,8.6l-1.7,3c0,0,0-0.1,0-0.1c0-0.2,0-0.4,0-0.6
		c0-0.4,0-0.7,0-1.1c-0.4-4.7,0.9-9.4,4.3-14.7c4.8-7.6,8.7-14.6,12.2-21.3c3-5.9,5.3-12.3,7.2-19.7c0.3-1.3,0.6-2.5,0.9-3.8
		c0.8-3.7,1.7-7.6,3.3-11.1c2-4.4,3.9-9,5.5-12.9c0.2-0.4,0.1-0.9,0-1.3c0-0.2-0.1-0.4-0.1-0.5c0-0.1,0-0.1-0.1-0.2
		c-0.1,0-0.1-0.1-0.2-0.1c-0.2,0-0.4,0-0.5,0c-0.4,0-0.9,0-1.3,0.2c-0.7,0.4-1.4,1-2,1.5l-0.2,0.2c-4.7,4.1-8.3,9.2-11.7,14.2
		l-1.1,1.6c-2.2,3.2-5.3,7.4-8.6,11.1c-4.2,4.6-7.5,9.3-10,14.2c-0.1,0.3-0.3,0.5-0.4,0.8c-0.3-1.5-0.5-3-0.8-4.4
		c-0.6-3.5-1.2-6.9-1.8-10.4c-1.4-8.7-4.2-17.1-7-25.3c-0.7-2.1-1.4-4.2-2.1-6.2c-1.4-4.4-3.1-7.7-5.4-10.4c-0.5-0.5-1.3-1.1-2-1
		c-0.7,0.1-1.2,1.2-1.3,1.6c-0.3,0.9-0.4,1.9-0.6,2.9l-0.4,3.3c-0.5,3.8-1,7.7-1.5,11.6c-0.8,6.6-1.4,12.6-1.9,18.1
		c-0.2,2.2-0.3,4.4-0.4,6.7c0,0.8-0.1,1.6-0.1,2.4l-0.6-1.1c-0.9-1.7-1.8-3.4-2.7-5c-0.2-0.3-0.5-0.5-0.8-0.7
		c-0.1-0.1-0.2-0.2-0.4-0.2c-0.1-0.1-0.1-0.1-0.2,0c-0.1,0-0.1,0.1-0.2,0.2c0,0.1-0.1,0.3-0.2,0.4c-0.2,0.4-0.3,0.7-0.3,1.1
		c0.3,2.1,0.7,4.2,1.1,6.2c0.6,3.1,1.2,6.4,1.6,9.6c0.6,4.3,1.2,8.8,1.7,13c0.2,1.7,0.4,3.4,0.6,5.1c0.1,0.5,0.1,0.9,0.2,1.4
		c0.4,2.9,0.8,5.6-1.4,8.1c-0.4,0.4-0.5,0.9-0.6,1.4c0,0.2-0.1,0.4-0.2,0.5c-0.5,1.4-1,2.9-1.5,4.4l-0.3,1c-0.4-1.3-0.8-2.5-1.2-3.8
		c-1.1-3.3-2.1-6.4-3.1-9.6l-0.3-0.8c-3.1-9.8-6.3-20-10.6-29.6c-0.6-1.2-1.1-2.5-1.7-3.7c-2.7-6-5.5-12.2-7.6-18.5
		c-2.3-6.9-4.2-14-6.1-20.9c-0.8-3-1.6-6.1-2.5-9.2c0-0.1,0-0.2-0.1-0.3c-0.2-0.7-0.4-1.7-1.6-1.4c-0.6,0.1-1,1.4-1,2
		c-0.3,6,0.7,11.9,1.7,17.4c0.2,1.2,0.5,2.4,0.7,3.6c0.8,4.3,1.7,8.8,2.4,13.2c0.2,1.6,0.2,3.2,0.1,4.9c0,0.4,0,0.8,0,1.2
		c-0.6-1.2-1.1-2.5-1.7-4.2c-0.5-1.4-0.9-2.8-1.4-4.1c-0.7-2.2-1.5-4.4-2.3-6.6c-0.2-0.6-0.9-1.4-1.5-1.5c-0.5,0-1,0.4-1.7,1.2
		c-0.3,0.4-0.5,1-0.7,1.5l0,0.1c-0.8,2.9-0.9,6.1-0.2,9.7c1.7,8.1,5,14.4,10.2,19.3c0.3,0.3,0.5,0.8,0.5,1.1
		c-0.2,0.9-0.4,1.9-0.7,2.8c-0.2,0.7-0.4,1.4-0.6,2.2c-2.3,10.1-3.3,18.3-3,25.9c0.2,5.8,0.8,11.6,1.3,17.3c0.2,2.4,0.5,4.9,0.7,7.3
		c0.2,2.2,0.4,4.4,0.6,6.6c0.4,4,0.7,8.2,1,12.3c0.2,3.1,0.4,6.3,0.5,9.4c0.1,1,0.1,2,0.2,3.1l-3.3-5.7c-2.9-5.1-5.9-10.2-8.8-15.4
		c-3.8-6.6-6-13.8-7.9-20.5c-1.2-4.1-2.6-8.3-4-12.2c-0.9-2.5-1.8-5.2-2.7-7.8c-2.6-7.9-5-15.9-7.4-23.7l-0.2-0.6
		c-0.5-1.8-1-3.6-1.4-5.4c-0.1-0.5-0.2-1-0.4-1.5c-0.1-0.4-0.2-0.8-0.2-1.1c-0.1-0.6-0.2-1.2-0.4-1.7c-0.1-0.4-0.5-0.6-0.8-0.8
		c-0.1-0.1-0.3-0.2-0.4-0.2c-0.1,0-0.1-0.1-0.2,0c-0.1,0-0.1,0-0.2,0.1c-0.1,0.1-0.2,0.2-0.3,0.3c-0.2,0.3-0.5,0.6-0.6,0.9
		c-0.1,0.3,0,0.7,0,1c0,0.1,0,0.2,0.1,0.2c0.1,0.6,0.2,1.2,0.4,1.8c0.2,1.1,0.5,2.3,0.6,3.5c0.4,2.8,0.7,6.1,1,9.4
		c0.1,1.6,0.2,3.2,0.4,4.9c0.4,4.5,0.7,9.2,0.6,13.8c-0.3,10.8,1.2,21.7,4.7,33.4c2.7,9,7.2,17.4,11.5,25.5c0.6,1.1,1.2,2.3,1.8,3.4
		c8.9,16.7,18.1,35.2,28,56.5c1,2.3,2,4.5,3.1,6.9c0.4,1,0.9,2,1.3,3c-0.3,0.1-0.7,0.1-1,0.2c-0.9,0.1-1.7,0.3-2.5,0.4
		c-3.7,0.5-7.5,1.1-11.2,2.7c-1.2,0.5-2.6,1.4-3.2,3.1c-1.2,3.5-1.7,6.5-1.7,9.3l0,1c0,3.2,0.1,6.6,0.2,9.9c0.2,4.1,0.5,8.7,1,13.1
		c0.7,5.7,1.6,11.7,2.9,18.9c1,5.6,2.1,11.6,3.5,18.5c0.9,4.3,2.6,7.1,5.5,9c4.4,2.8,9.6,4.4,16.3,4.9c2,0.2,4,0.2,6,0.2
		c1.4,0,2.8,0,4.2,0c0.7,0,1.4,0,2.1,0c7.3-0.1,13.3-0.2,18.9-0.4c2.5-0.1,4.9-0.2,7.3-0.8c4.5-1.1,7.7-4.2,9.8-9.7
		c4.6-11.9,7-24.9,7.7-41c0.4-9.1,0-19-1.2-31c-0.4-4-1.8-5.8-5.2-6.6c-3.9-0.9-7.8-1.5-12.2-2.2c-1.3-0.2-2.5-0.3-3.9-0.3
		c-0.5,0-1,0-1.5-0.1c0.1-0.3,0.2-0.5,0.3-0.7c2.3-5.4,4.6-11.2,5.3-17.4c0.6-6.1,1.9-11.2,4-15.8c2.6-5.9,4.7-12.1,6.3-19.1
		c1.6-7.1,4.1-13.8,7.4-20.7l0.8-1.7c3.3-6.9,6.8-13.9,8.9-21.5c0.3-1.3,0.7-2.5,1.1-3.8c1.2-4.3,2.5-8.7,3-13.2
		c1.1-10.9,1.6-22,2.1-32.8l0-0.9c0.2-3.5,0.9-6.5,2.5-9.9c3.3-7.1,6.2-14.5,9-21.7l0.8-2.1C616.6,45.7,617.7,38.3,617.2,30.8z
		 M611.8,51.2c-2.3,5.9-4.8,11.9-7.1,17.7c-0.9,2.2-1.8,4.5-2.7,6.7c0-0.8,0.1-1.5,0.1-2.3c0.1-2.2,0.2-4.3,0.5-6.4
		c1.2-10.3,2.5-21.3,3.9-32c0.7-5.4,2-12.3,6-18.4c0.3-0.4,0.5-0.8,0.8-1.2l0.1-0.1c0.1,1.6,0.3,3.2,0.4,4.8c0.4,4.1,0.8,8,1,11.9
		C615.3,38.5,614.2,45,611.8,51.2z M507.6,77.5c-7.2-5.4-11.9-19.5-9.9-25.6L507.6,77.5z M570.7,195.7c0.5-2,1-4.1,1.5-6.2
		c0.5-1.8,1-3.5,1.5-5.3c1.9-7.1,4-14.4,6.2-21.5c1.1-3.6,2.9-7,4.7-10.2c3.4-6,5.7-11.9,7.2-17.8c1.6-6.5,3.1-13.1,4.6-19.5
		c0.6-2.5,1.2-5,1.7-7.5c0,0.5-0.1,1-0.1,1.5c-0.2,2.9-0.4,6-0.8,9c-1.5,11.7-5.2,23.6-11.9,37.3c-3.5,7.1-6.7,14.1-8.7,21.6
		c-1.2,4.7-2.7,9.5-4.1,14.1c-0.4,1.3-0.8,2.7-1.2,4c-0.2,0.8-0.6,1.6-0.9,2.3c-0.1,0.2-0.2,0.5-0.3,0.7
		C570.4,197.4,570.5,196.5,570.7,195.7z M597.6,96.3c-0.4,3.1-0.9,6.2-1.5,9.3c-0.5,2.9-1.2,5.8-1.8,8.7c-0.5,2.3-1,4.6-1.5,7
		c-1.6,7.8-3.6,14.8-6.1,21.3c-1.2,3-2.4,5.5-3.8,7.8c-3.4,5.8-6,12.3-8.2,20.7l-0.5,1.7c-2.2,8.4-4.5,17.1-6.4,25.8
		c-0.8,3.8-1.2,7.7-1.5,11.5c-0.1,1.3-0.2,2.6-0.4,3.8c-0.5,5.1-2,10.3-4.5,16.4c0.3-1.5,0.5-2.9,0.8-4.4c0.9-4.7,1.8-9.7,2.5-14.5
		c0.9-6.2,1.6-12.7,2-19.3c0.2-3,0.2-6.1,0.2-9.1c0-2.2,0-4.5,0.1-6.7l0.1-3.3c0.3-7.2,0.5-14.7,1.1-22c0.3-3.1,1.3-6.3,2.4-9.3
		l0.4-1c2.8-8.1,6.5-15.7,10.2-22.6c4.3-8.1,8.4-16.5,12.4-24.5c1.8-3.5,3.5-7.1,5.3-10.6c0.1-0.2,0.2-0.4,0.4-0.7l0.1-0.2l0.2,0
		l-0.4,3.2c-0.4,2.5-0.7,5-1.1,7.5C597.9,94,597.8,95.1,597.6,96.3z M506.4,241L506.4,241c3-1.7,6.4-2.2,9.7-2.7
		c1.2-0.2,2.4-0.4,3.5-0.6c1.6-0.3,2.2,0.1,2.8,1.6c0.5,1.4,1.1,2.8,1.7,4.5c0.2,0.6,0.5,1.2,0.7,1.9c-1.2-0.1-2.3-0.2-3.4-0.3
		c-2.8-0.2-5.5-0.4-8.2-0.7c-2-0.2-4-0.8-6-1.2l-1.2-0.3c-0.3-0.1-0.5-0.3-0.8-0.5c-0.1-0.1-0.1-0.1-0.2-0.2
		c0.1-0.1,0.2-0.3,0.3-0.4C505.8,241.6,506.1,241.2,506.4,241z M472.6,98.9c0-0.3,0-0.6,0-1c0.1,0.2,0.1,0.5,0.2,0.7
		c0.5,1.8,1.1,3.7,1.4,5.6c1,5.3,2,10.5,2.6,15.6c0.8,6.8,2.9,13.3,6.5,19.9c0.9,1.7,1.8,3.4,2.7,5.1c1.7,3.4,3.5,6.8,5.5,10.1
		c3.2,5.2,6.6,10.4,9.9,15.4c1,1.5,2,3,2.9,4.5c2.4,3.7,3.7,7.8,4.7,12.9c1.6,7.6,3.5,15.3,5.3,22.7c0.5,2.1,1,4.2,1.5,6.3
		c0.2,1,0.5,2,0.8,3c0.3,1.1,0.6,2.2,0.8,3.2c-0.2-0.5-0.5-1-0.7-1.5c-1.2-2.4-2.4-4.9-3.5-7.4c-7.2-15.7-15.3-31.4-23.2-46.4
		l-1.9-3.7c-3.2-6.1-6.8-13-9.5-20c-4.9-12.6-7-25.7-6.2-38.9C472.6,102.9,472.6,100.9,472.6,98.9z M538.6,78.3
		c-0.1-0.5-0.2-1-0.2-1.5l0,0c0.3,1,0.6,2,0.9,3c0.7,2.3,1.5,4.7,2.1,7.1l0.3,1.2c2.5,10.3,5,21,8.1,31.3c1,3.5,1.6,7.2,2.2,10.7
		c0.3,2.2,0.7,4.4,1.2,6.5c0.6,2.9,1.3,5.9,2,8.8c0.9,3.9,1.8,8,2.6,12c0.9,5,1.9,10.2,1.9,15.4c0.1,6.1-0.2,12.4-0.4,18.4
		c-0.1,3.1-0.2,6.3-0.3,9.5c-0.2,6.4-1.1,12.8-2,19.1c-0.3,2.2-0.6,4.5-0.9,6.7c-0.8,6.1-1.4,12.1-1.8,16.7
		c-0.1,1.3-0.5,1.6-1.7,1.6c-1.4,0-2.7,0-4.1,0c-0.9,0-1.9,0-2.8,0c-0.9,0-1.8,0-2.8,0c-1.6-2.3-2-5.2-2.3-8
		c-0.1-0.5-0.1-0.9-0.2-1.4l-0.3-2.3c-1.1-8.9-2.3-18.2-2.9-27.3c-0.6-8.5-0.8-16.8-0.5-24.7c0.3-7.8,1.3-15.8,2.2-23.5l0.2-1.3
		c0.5-4.4,1.2-8.9,1.8-13.3c0.7-5.3,1.5-10.8,2.1-16.3c0.8-7.5-0.1-15.4-0.9-21.8c-0.8-6.7-1.7-13.6-2.5-20.2l-0.4-2.8v0
		C539,80.9,538.8,79.6,538.6,78.3z M542,76.2l0.1-1.1c0.4-7.1,0.9-14.4,1.6-21.6c0.4-4,0.9-8.1,1.5-12c0.2-1.7,0.5-3.5,0.7-5.2
		c0.1-0.6,0.2-1.2,0.2-1.8c0.7,2.4,1.4,4.8,2.1,7.3c2,7.1,4.1,14.4,6.2,21.6c1.4,4.8,2.1,9.7,2.1,14.6c0,5.2,0.8,10.4,1.6,15.4
		c0.1,0.8,0.2,1.6,0.4,2.4c0.7,4.7,1.2,9.2,1.6,13.5c0.5,5.3,0.8,10.1,0.9,14.9c0.1,1.9,0,3.8-0.1,5.7c-0.1,1.4-0.1,2.8-0.2,4.2
		c0,2.9,0.1,5.8,0.1,8.6l0.1,2.2c0,0.6,0.1,1.1,0.1,1.7c0.1,0.7,0.1,1.5,0.1,2.2c-0.1,5.7,0.8,11.5,1.7,17l0.2,1.2
		c0.2,1.3,0.4,2.7,0.5,4c0.2,1.5,0.4,3,0.6,4.5c0.8,4.7,1,9.6,0.6,14.5c-0.6,7.1-1.2,14.5-2.3,21.9c-0.8,5.6-2,11.2-3.1,16.7
		c-0.4,1.9-0.8,3.9-1.2,5.8c-0.2,0.9-0.5,1.8-0.8,2.7c-0.1,0.2-0.1,0.3-0.2,0.5c0.2-1.3,0.3-2.7,0.5-4c0.4-3.5,0.9-7.2,1.4-10.7
		c1.7-11.4,2.5-20.7,2.6-29.3c0-2.6,0.2-5.3,0.3-7.8c0.1-1.7,0.2-3.5,0.2-5.3c0.3-9.3-0.8-19-3.7-30.5c-1.1-4.7-2-9.5-2.9-14.2
		c-0.6-3.4-1.3-6.9-2-10.4c-0.7-3.1-1.6-6.3-2.4-9.3c-0.5-2-1.1-4-1.6-6c-0.9-3.7-1.8-7.4-2.7-11c-0.7-2.8-1.3-5.6-2-8.4
		c-0.3-1.3-0.7-2.6-1-3.8c-0.5-1.8-1-3.7-1.4-5.6C542,79.5,541.9,77.9,542,76.2L542,76.2z M565.2,132.7c-0.1,3-0.3,6.1-0.5,9
		c-0.2,3.5-0.4,7-0.5,10.5c-0.1,2.1-0.1,4.3,0,6.4c0,0.6,0,1.1,0,1.7c-0.1-0.5-0.1-1-0.2-1.5c-0.2-2-0.5-4.1-0.7-6.2
		c-0.3-4.5-0.5-8.2-0.6-11.5c0-1.8,0-3.7,0.1-5.5c0.1-1.6,0.1-3.3,0.1-5c0-4.7-0.1-9.7-0.3-15.2c-0.3-9.7-1.9-19.4-3.3-28.7
		c-0.4-2.7-0.5-5.6-0.6-8.3c0-1.2-0.1-2.5-0.1-3.8c-0.3-5.8-1.8-11.2-3.7-17.6c-1.6-5.4-3.1-11-4.5-16.4c-0.6-2.2-1.2-4.5-1.8-6.7
		c0.3,0.8,0.6,1.7,1,2.5c0.8,2,1.6,4.1,2.3,6.2c0.5,1.5,1,3,1.5,4.4c1.6,4.7,3.2,9.6,4.4,14.6c1.8,7.7,3.1,15.6,4.3,23.3l0.3,1.9
		c0.9,5.6,1.9,12.3,2.5,18.9c0.4,4.5,0.4,9.2,0.5,13.7c0,1.3,0,2.6,0,4C565.4,126.5,565.3,129.6,565.2,132.7z M539.8,114.4
		C539.8,114.4,539.8,114.4,539.8,114.4c0.1-0.4,0.3-0.8,0.6-1.3c0,0,0,0,0-0.1l0.2,2.4c0.7,8.3-0.4,16.3-1.6,23
		c-0.7,4.1-1.2,8.2-1.7,12.3c-0.1,1.2-0.3,2.4-0.5,3.7l-0.3,2.3c-0.6,4.4-1.1,9-1.6,13.5c-0.5,5.1-0.7,9.1-0.7,12.8
		c0,6.1-0.1,13.7,0.3,20.9c0.4,6.3,1.1,12.8,1.8,19l0.3,2.4c0.6,5.4,1.4,10.8,2.2,16c0.1,1,0.4,2,0.7,2.9c0.1,0.4,0.2,0.8,0.4,1.2
		l0,0c-0.1-0.1-0.2-0.1-0.3-0.2c-0.3-0.2-0.6-0.4-0.7-0.6c-0.7-2.1-1.4-4.2-2.1-6.3c-1.8-5.3-3.7-10.8-4.8-16.4
		c-1.5-6.8-1.7-14.1-2-20.6c-0.3-6.4-0.2-13.3,0.1-22.4c0.1-3.3,0.5-6.7,0.9-9.9c0.2-1.7,0.4-3.4,0.6-5.1l0.3-3.6
		c0.4-4.6,0.9-9.3,1.3-14C534.2,134.4,536.4,123.9,539.8,114.4z M534.1,125.1c-0.3,2-0.6,3.9-1,5.9c-0.6,3.8-1.3,7.8-1.8,11.7
		c-1.1,9.1-2,18.4-2.9,28.6c-0.5,5.4-0.6,10.9-0.7,16.1c-0.1,4.9-0.2,11.3,0.1,17.7c0.4,12.4,2.3,22.3,6,31.1
		c0.9,2.1,1.6,4.2,2.3,6.5c0.3,1,0.6,2,1,3l-2.3,0c-2.2,0-4.3,0-6.4,0c0,0,0,0,0,0c-0.8,0-1.1-0.5-1.4-1.3c0-0.1-0.1-0.3-0.1-0.4
		c-1.5-3.5-2.2-7.4-2.8-11c-0.2-1.3-0.5-2.6-0.7-3.9c-1.2-5.9-2.5-11.9-3.7-17.7c-0.9-4.1-1.8-8.3-2.6-12.4
		c-1.1-5.2-1.6-10.7-1.5-16.4l0-1.7c0.1-3.9,0.1-7.9,0.3-11.9c0.2-3.8,0.4-7.7,0.6-11.4c0.2-3.3,0.4-6.7,0.5-10
		c0.1-1.6,0.1-3.2,0.1-4.7c0-2.2,0.1-4.6,0.2-6.8c0.4-4.4,1-8.8,1.7-14c0.9-6.1,0.4-12.2-0.2-17.8c-0.7-6.3-1.9-12.5-3.6-18.2
		c0.4,0.6,0.7,1.2,1.1,1.8c1,1.6,1.9,3.2,2.7,4.8c4.9,9.6,9.7,19.3,13.3,26.6c0.7,1.5,1.3,3,1.7,4.4
		C534.2,124,534.2,124.6,534.1,125.1z M517.1,117c-0.1,2.3-0.5,4.7-0.9,7c-0.3,1.7-0.6,3.4-0.7,5.1c-0.3,2.8-0.4,5.7-0.5,8.4
		c0,0.8-0.1,1.7-0.1,2.5c-0.4,7.7-0.8,15.8-1.1,23.6c-0.2,3.8-0.3,7.6-0.4,11.3c0,1.1-0.1,2.2-0.1,3.3c-0.1-0.7-0.1-1.4-0.2-2.1
		c-0.3-2.8-0.6-5.8-0.7-8.6c-0.3-11.4-0.6-21.6-0.6-32c0-5.2,0.2-10.4,0.5-15.5c0.2-3.7,0.3-7.6,0.4-11.4c0.2-9.1,0.2-18.7-2-28.1v0
		c0-0.1,0-0.2,0-0.3l0,0l0.1,0c0.1,0.3,0.3,0.5,0.5,0.8c0.4,0.7,0.8,1.4,1,2.1l0.3,1c1.2,4.6,2.4,9.5,3.3,14.2
		C516.9,105.2,517.4,111.3,517.1,117z M527.2,103c-1.3-2.5-2.6-5-3.9-7.5c-2.7-5.3-5.5-10.8-9.6-15.3l-0.1-0.1
		c-0.7-0.7-1.3-1.5-2.1-2c-1.4-1-2.2-2.3-2.5-4c-0.1-0.3-0.2-0.6-0.3-0.8c0-0.1-0.1-0.2-0.1-0.3c-1.1-2.8-1.5-5-1.3-7.4
		c0.6-7.5-0.9-14.9-2.7-22.4c-0.6-2.7-1.1-5.5-1.5-8.2c-0.2-1-0.3-2.1-0.5-3.1c0.1,0.5,0.3,1.1,0.5,1.6c0.4,1.6,0.9,3.2,1.3,4.8
		c3.1,14,8.9,27.3,14.6,40.2l0.4,0.9c2.6,6,4.7,12.3,6.7,18.4c0.8,2.4,1.6,4.9,2.5,7.4C528,104.5,527.6,103.7,527.2,103z
		 M508.1,82.2C508.1,82.2,508.1,82.1,508.1,82.2c0.1,0,0.1,0.1,0.2,0.2c0.2,0.4,0.4,0.8,0.5,1.1c0.1,1.4,0.3,2.9,0.5,4.3
		c0.4,4,0.9,8.1,1,12.1c0.1,5.3,0,10.7-0.1,15.9c-0.1,2.3-0.1,4.5-0.1,6.8c-0.1,3.2-0.1,6.3-0.2,9.5c-0.2,7.1-0.4,14.5-0.2,21.8
		c0.2,10.7,0.8,19.2,1.8,27c0.8,6.1,2.2,12.2,3.5,18.1c0.6,2.6,1.2,5.3,1.7,8c0.7,3.4,1.4,6.8,2.1,10.2l0.4,2.1
		c-0.1-0.3-0.2-0.5-0.2-0.8c-0.7-2.6-1.5-5.3-2.1-8c-0.4-1.7-0.8-3.4-1.2-5.1c-1.5-6.1-3-12.4-4.2-18.6c-1.3-7.1-2.2-14.4-2.8-21.7
		c-0.2-2.6-0.4-5.1-0.6-7.7c-0.7-10.4-1.5-21.2-2.9-31.7c-1.8-13.8-0.8-28.3,2.8-42.9C508,82.5,508,82.4,508.1,82.2z M507,174.5
		l-0.1,0.1c-0.8-1.3-1.6-2.5-2.4-3.8c-1.8-2.9-3.7-5.9-5.7-8.8c-3.8-5.5-7-11.6-10.1-17.4c-1.2-2.2-2.4-4.5-3.6-6.8
		c-3.4-6.3-5.5-13.1-6.2-21c-0.2-2.8-0.7-5.6-1.2-8.4c-0.1-0.6-0.2-1.3-0.3-1.9c0.5,1.5,1.1,3.1,1.6,4.6c1.7,4.7,3.5,9.7,4.7,14.6
		c2.4,9.4,6.1,18.3,11.3,27.1c2.6,4.4,5.1,9.1,7.5,13.6c1.1,2,2.2,4.1,3.3,6.1c0.3,0.5,0.6,1,0.8,1.5L507,174.5z M545,247.7
		c5.4-0.1,10.7-0.2,16.1-0.6c1.5-0.1,3-0.2,4.4-0.3c4.3-0.2,8.8-0.4,13-1.8c1.1-0.3,2.1-0.8,3.1-1.4c0.4-0.2,0.8-0.4,1.2-0.6
		l0.1,0.7c0.1,0.8,0.2,1.6,0.3,2.4c1,9.9,1.3,19.5,0.9,28.6c-0.6,13.9-2.7,26.1-6.7,37.4c-0.7,1.9-1.7,3.9-3.1,6.2
		c-1.9,3.1-4.8,4.7-8.7,4.8c-6.8,0.3-13.9,0.4-21.5,0.6c-4.2,0.1-8.4,0.2-12.7,0c-4.9-0.2-9.7-1.4-14.2-3.5
		c-3.7-1.7-5.7-4.8-6.6-9.9c-1.8-10.4-3.7-21.2-5.6-32.9c-1.4-8.6-1.7-17.4-1.7-24.9c0-1.7,0.1-3.5,0.3-5.3c0.1-0.8,0.1-1.5,0.2-2.3
		c4.9,2.8,10,2.8,14.9,2.8c0.5,0,1,0,1.4,0C528.9,247.9,537.6,247.8,545,247.7z M581.1,241c-0.7,0.5-1.3,1-2,1.1l-0.4,0.1
		c-3.2,0.8-6.4,1.6-9.7,1.9c-2.5,0.2-5.1,0.2-7.7,0.1c-1.1,0-2.2,0-3.3,0c0.2-0.5,0.4-1,0.6-1.5c0.8-1.9,1.6-4,2.5-5.9
		c0.1-0.2,0.9-0.5,1.4-0.4c3.6,0.5,7.5,1.1,11.3,1.8c1.8,0.3,3.5,0.8,5.3,1.3c0.7,0.2,1.3,0.4,2,0.5c0.1,0,0.3,0.1,0.5,0.3
		c0.1,0,0.2,0.1,0.2,0.1C581.6,240.6,581.4,240.8,581.1,241z M594.3,87.4c-1.1,2.3-2.2,4.6-3.4,6.9c-1.9,3.7-3.9,7.5-5.8,11.1
		c-3.5,6.6-7.1,13.5-10.5,20.3c-3.5,7.1-6,13.7-7.7,20c-0.3-10.1,4.1-18.7,8.8-26.6c3.5-5.8,6.6-11.9,9.6-17.8l1.5-2.9
		c2.4-4.6,5-8.6,8-12.3C594.7,86.5,594.5,87,594.3,87.4z M565.4,88.5c0.8-1.2,1.5-2.3,2.2-3.5c2.3-3.5,4.6-7.2,7.1-10.6
		c1.5-2,3.2-4,4.8-5.8c1.5-1.7,3-3.4,4.3-5.2c1.7-2.3,3.4-4.6,4.9-6.9c1.3-1.8,2.6-3.8,3.9-5.6c1-1.3,2.1-2.5,3.2-3.7
		c0.4-0.5,0.9-0.9,1.3-1.4c-0.2,0.6-0.4,1.1-0.7,1.7c-0.6,1.4-1.1,2.9-1.8,4.3c-3,6.2-4.5,13.2-5.8,18.8c-1.5,6.8-3.9,13.3-7,19.5
		c-4,7.9-8,14.8-12,21c-0.6,0.9-1.1,1.8-1.6,2.8c-0.1,0.2-0.3,0.5-0.4,0.7c-0.1-0.9-0.1-1.8-0.2-2.7c-0.2-2.6-0.4-5-0.7-7.5
		c-0.3-2.9-0.7-5.8-1.1-8.7c-0.3-1.9-0.5-3.9-0.7-5.8C565.2,89.4,565.2,88.9,565.4,88.5z"/>
	<path d="M171.9,73c-1.5,0.2-2.9,0.9-4.2,1.6l-0.1,0.1c-0.9,0.4-1.4,0.5-1.9-0.3c-0.7-1.1-1.8-1.6-3.2-1.4c-2.4,0.4-5.5,1.2-7.8,3.6
		c-0.9,1-2,2.1-3.1,3.1c-0.2,0.1-0.8,0.1-0.9,0c-1.2-1.4-2.6-1.5-4.4-0.6l-1.2,0.6c-1.2,0.7-2.5,1.3-3.7,2c-1.4,0.8-2.8,1.6-4.2,2.4
		c-3.9,2.2-8,4.5-12,6.9c-1.3,0.8-2.4,1.8-3.5,2.9c-0.6,0.5-1.2,1.1-1.8,1.6c-0.6,0.5-1,0.7-1.5,0.8c-3.2,0.7-5.5,2.2-7.1,4.8
		c-0.3,0.5-0.6,1-0.9,1.5l-0.2,0.3c-0.7-1.3-1.4-2-2.1-2.2c-0.9-0.2-1.9,0.1-3.3,1.1l-0.1,0.1c-0.5,0.4-1.1,0.8-1.6,1.2
		c-3.5,3.3-6.9,6.7-10.4,10l-3.6,3.5c-0.2,0.2-0.4,0.4-0.7,0.7l0,0l0.1-0.7c0.1-0.8,0.2-1.5,0.2-2.1c0.4-4.2,0.4-4.2,4.4-5.7
		l0.3-0.1c0.5-0.2,0.9-0.3,1.4-0.5c3-1.4,5.2-3.3,6.5-5.8c0.5-1,1.2-2.1,2.3-3c3-2.6,4.9-5.8,5.5-9.4c0.6-3.6,1-7.3,1.3-10.9
		c0.1-1.1,0.2-2.2,0.3-3.3c0.9-8.8,0.6-17.7-0.9-26.4c-0.7-3.8-1.1-6.9-0.4-10.2c0.2-1.1,0.2-2.5-0.1-3.7
		c-1.2-4.7-2.6-10.1-4.1-15.2c-0.9-2.8-2-5.4-3.2-8.1l-0.4-1c-0.3-0.7-1.2-1.6-1.9-1.6c-1.8-0.1-2.3-1.3-2.9-2.7l-0.1-0.3
		c-0.5-1.2-1.2-2.6-2.1-3.9C94.3,2,93.7,1.6,93,1.5c-0.6-0.1-1.2,0.1-1.8,0.6c-0.4,0.3-0.7,0.5-1,0.5c-0.3-0.1-0.6-0.4-1-1
		c-0.7-1.1-1.3-1.6-2.1-1.8c-0.8-0.2-1.7,0.1-2.7,0.8l-0.1,0.1c-0.2,0.1-0.5,0.3-0.6,0.5c-0.8,0.8-1.6,1.6-2.5,2.4
		c-2.1,2-4.4,4.2-6.4,6.3c-1.5,1.6-3.1,3.5-3.2,6.1c0,0.4-0.1,0.9-0.1,1.4l0,0.4l-0.4-0.3c-0.5-0.3-0.9-0.6-1.3-0.9
		c-0.9-0.6-1.5-0.7-2.1-0.6c-0.6,0.2-1.1,0.7-1.5,1.6c-0.3,0.6-0.5,1.4-0.7,2.1c-0.3,1.2-0.5,2.4-0.8,3.6l-0.3,1.2
		c-2.5-0.2-4.7,0.4-6.8,1.6c-2.4,1.4-3.2,3.8-3.6,6c-3.1-0.7-4.1,1.6-5,3.7c-1.3,2.8-2.5,5.8-1.5,9.1c0.1,0.4,0.1,0.7,0,0.9
		c-0.1,0.1-0.3,0.2-0.6,0.2c-1.8,0-3,1-3.3,2.8l-0.1,0.4c-0.4,2.7-0.9,5.4-0.9,8.1c0,3.4,0.1,6.7,0.2,10.2c0,1.3,0.1,2.6,0.1,4
		c-1.3-1-2.6-2-3.9-2.9c-3.4-2.5-6.9-5.2-10.4-7.6c-2.3-1.6-4.9-3.1-8.4-4.9c-0.7-0.4-1.4-0.4-2-0.1c-0.7,0.3-1.1,1.1-1.3,2
		c0,0.2-0.1,0.4-0.1,0.7c-0.2-0.2-0.3-0.3-0.5-0.5c-0.5-0.6-1-1.1-1.5-1.5L14,56c-1.7-1.4-3.5-2.9-5.4-4.1c-0.6-0.4-1.4-0.3-2.1-0.3
		c-0.3,0-0.7,0-1,0c-0.3,0-0.5,0-0.8,0c-0.7,0-1.3-0.1-1.9-0.3c-1-0.3-1.7-0.3-2.3,0.1c-0.3,0.2-0.7,0.7-0.6,1.7
		c0,1.1,0.2,2.7,0.9,4.2c0.8,1.7,1.7,3.4,2.6,4.9c0.3,0.5,0.6,1,0.8,1.5c-0.1,0-0.1,0-0.2,0c-0.6,0-1.3,0.1-1.6,0.5
		c-0.5,0.6-0.3,1.9,0,2.5c3.8,8.8,7.5,15.7,11.8,21.6c3.4,4.8,6.1,9.3,8.1,13.9c3.3,7.5,7.6,13.3,13.1,17.6c1.6,1.2,3,2.8,4.4,4.2
		c0.4,0.4,0.8,0.8,1.2,1.2l-10.7-3.8c-0.6-0.2-1.3-0.4-1.9-0.7c-1.6-0.6-3.3-1.2-5-1.7c-0.5-0.2-1.1-0.1-1.7,0
		c-0.2,0-0.5,0.1-0.7,0.1c-0.1,0-0.1,0-0.2,0.1c0,0.1-0.1,0.1,0,0.2c0,0.2,0.1,0.4,0.1,0.7c0.1,0.5,0.1,1.1,0.4,1.5
		c1.1,1.6,2.3,3.2,3.5,4.8c0.9,1.2,1.8,2.4,2.6,3.6c0.2,0.3,0.3,0.9,0.4,1.4l0,0.1c0.1,0.3,0.1,0.7,0.1,1.1c0,0.7,0.1,1.4,0.4,2
		c0.9,1.7,2,3.2,3.3,4.5c4.6,4.9,8.4,9.6,11.6,14.4c4,6.1,9.4,11.2,15.8,15.1c0.6,0.4,1.2,0.8,1.8,1.2c-3.2-2-6.9-3-11.2-3
		c-4,0-7.6-0.1-11-0.3c-4.3-0.2-7.8,0.2-11,1.3c-2.2,0.8-4.4,1.3-6.6,1.9c-1.6,0.4-3.2,0.8-4.7,1.3c-1.1,0.3-1.8,0.9-2,1.6
		c-0.2,0.7,0,1.5,0.6,2.4c0.9,1.2,2,2.2,3,3.3l0.4,0.4c1.4,1.3,2.8,2.6,4.2,3.9c1.1,1.1,2.3,2.1,3.4,3.2c0.6,0.5,1.1,1.1,1.6,1.7
		c1,1.1,2,2.2,3.3,3c5.9,4,12.1,8.1,19,12.3c1.9,1.2,3.9,2.3,5.8,3.4c2.1,1.2,4.3,2.4,6.4,3.8c1.1,0.7,2.1,1.7,3,2.7
		c0.6,0.6,1.1,1.2,1.8,1.8c1.1,1,2.3,1.4,3.3,1.1c1-0.3,1.8-1.2,2.2-2.7c0.1-0.3,0.1-0.7,0.2-1c0.1-0.3,0.1-0.6,0.2-0.9
		c0.2-0.8,0.4-1.6,0.7-2.4l0.2-0.8l0.1,0c1.3,5.9,1.9,12,2.5,17.8c0.3,2.8,0.5,5.6,0.9,8.4c-0.2,0-0.3,0.1-0.5,0.1
		c-0.4,0.1-0.7,0.2-1.1,0.2c-4,0.2-8.1,1.3-12.4,3.2c-5.8,2.6-9.6,6.6-11.6,12.1c-2.9,7.7-4,15.1-3.5,22.5
		c0.5,7.6,2.9,14.3,7.1,20.7l0.2,0.4c4.2,6.3,8.6,12.7,10.6,20.3c1.5,5.6,5.3,9.1,11.8,10.7c3,0.7,6.1,0.9,9.2,0.9
		c1.2,0,2.4,0,3.5,0c1,0,1.9,0,2.9,0c4.6,0,8.1-2.1,11-6.5c0.9-1.3,1.6-2.8,2.3-4.3c0.2-0.4,0.4-0.9,0.6-1.3c0.7-1.4,1.4-2.9,2-4.3
		c1.2-2.7,2.5-5.5,4-8.1c7.9-14.4,11.4-27.3,11-40.6c-0.2-6.1-1.7-10.6-4.8-14.1c-0.4-0.4-0.8-0.8-1.2-1.2c-0.5-0.5-1.1-1-1.5-1.6
		c-3.7-5-8.2-7.5-13.9-7.8c-0.9,0-1.1-0.2-1.1-1.1c0.1-3,0.1-6,0.1-8.9c0-1.8,0-3.7,0.1-5.5c0-1.1,0-2.2,0.1-3.3
		c0-1.1,0.1-2.3,0.1-3.4c0-0.8,0.3-1.2,1.1-1.7c2.2-1.5,4.1-2.9,5.9-4.4c0.5-0.5,1.1-0.9,1.6-1.4c3.5-3,6.8-5.9,11.4-7.3l1.5-0.4
		c5.6-1.7,11.3-3.4,17.3-3.8c4.1-0.2,8.5-0.7,13.5-1.4c3.5-0.5,6.2-1.9,8.2-4.1c1.4-1.6,1.8-3.8,1.1-5.7c-0.7-1.9-2.2-3.2-4.2-3.5
		c-1.3-0.2-2.8-0.2-4.1-0.1c-0.5,0-1,0-1.5,0c0.5-1.4,0.7-2.2,0.4-2.9c-0.3-0.7-1.2-1.1-2.9-1.7c-1.3-0.5-2.6-0.9-3.9-1.4
		c-1.6-0.6-3.2-1.1-4.8-1.7c-9.9-3.3-18.6-3.1-26.6,0.8c-5.5,2.7-8.7,6.3-9.8,11.2c-0.4,1.6-0.6,3.3-0.8,5c-0.2,1.2-0.3,2.4-0.6,3.5
		l-0.1,0.7c-0.7,3.7-1.3,7.1-3.9,10c-1.4,1.5-2.4,3.6-3,5c-0.6,1.4-0.5,3.2,1.1,4.1c1,0.6,1,1.1,0.9,2c-0.1,0.5-0.1,1-0.1,1.5
		c0,0.1,0,0.3,0,0.4l-0.1,11.3c-0.1,6.6-0.2,13.2-0.2,19.7c0,0.3,0,0.6-0.1,0.9c0,0.1,0,0.2,0,0.3l-1.2-0.1l-0.1-1.2
		c-0.1-1-0.1-2-0.2-3c-0.1-1.3-0.2-2.6-0.3-4c-0.2-2.5-0.4-5.1-0.6-7.7c-0.1-1.1-0.1-2.3-0.1-3.4c0-1.1,0-2.3-0.1-3.5
		c-0.6-9.1,0.1-17.4,1.9-25.3c0.4-1.7,0.8-3.3,1.2-5c0.9-3.7,1.8-7.6,2.6-11.4c0.9-4.2,1.6-8.4,2.4-12.5c0.2-1.3,0.5-2.6,0.7-4
		c0.2-0.9,0.6-1.4,1.4-1.7c2.7-0.9,4.9-2.7,6.3-5c2.1-3.5,4.1-7.3,5.9-10.9l0.9-1.7c0.5-0.9,0.7-1.3,1.7-1.2
		c4.4,0.5,8.3-0.7,11.5-3.6c5.5-5,10.1-10.2,14.1-15.7l1.4-2c3.9-5.5,8-11.3,12.8-16.3c1.7-1.7,3-3.8,4.3-5.8
		c0.5-0.9,0.8-2.2,0.5-3.1c-0.1-0.4-0.8-0.5-1.8-0.7c-0.3,0-0.5-0.1-0.8-0.1c0.1-0.1,0.3-0.2,0.4-0.3c0.6-0.5,1.1-1,1.7-1.4
		c5.8-4.6,8.3-10.9,10.2-17.1c0.3-0.9,0.4-2,0.4-3.2c0-1.1-0.5-2.2-1.4-2.9C173.9,73.1,172.9,72.8,171.9,73z M25.3,181.8
		c0.8,0.1,1.6,0.2,2.4,0.4c1.9,0.3,3.8,0.6,5.8,0.8l0.1,0c5.1,0.6,10.4,1.2,15.4,2.9c5.2,1.8,10.1,3.7,13.9,7.4
		c1.5,1.5,2.8,3.2,4,4.9l0.6,0.8c0.7,0.9,1.4,2,2,2.9c0.5,0.8,1,1.6,1.6,2.3c0.5,0.7,0.6,1.3,0.2,2.2c-0.5,1-0.8,2.1-1.1,3.2
		c-0.1,0.4-0.2,0.7-0.3,1.1c-0.2,0.6-0.4,1.2-0.6,1.9l-0.2,0.8c-0.2-0.1-0.4-0.3-0.6-0.4c-0.5-0.3-0.9-0.6-1.2-1
		c-2.8-3.4-6.5-6.1-11.7-8.6c-7.3-3.5-14.5-8-23.3-14.5c-1.8-1.4-3.5-3.1-5.1-4.7c-0.7-0.7-1.4-1.4-2.1-2.1L25.3,181.8z M70.7,199.3
		c-3.6-6.6-9.1-11.2-16.8-14.2c-5.7-2.2-11.5-3.6-17.7-4.1c-3.2-0.3-6.4-0.8-9.5-1.2c-1.2-0.2-2.3-0.3-3.5-0.5
		c-0.4-0.1-0.8-0.2-1.1-0.4c-1.6-1.3-3.2-2.7-4.8-4.1c-0.2-0.2-0.4-0.5-0.6-0.8c-0.1-0.1-0.1-0.2-0.2-0.4c0.3-0.1,0.6-0.2,0.9-0.3
		c0.8-0.3,1.6-0.5,2.3-0.7c1-0.3,1.9-0.6,2.9-0.8c2.5-0.7,5.1-1.5,7.8-2c2.5-0.5,5.2-0.5,7.7-0.5l0.6,0c1.4,0,2.8,0.1,4.2,0.1
		c1.7,0.1,3.4,0.2,5.1,0.1c6.9-0.2,12.5,2.3,16.5,7.4c2,2.6,3.7,5.2,5.2,7.9c1.2,2.2,1.9,4.3,2.1,6.2c0.2,2.5,0.2,5,0.1,7.4
		c0,1,0,1.9,0,2.9c-0.1-0.1-0.2-0.2-0.2-0.4C71.3,200.3,70.9,199.8,70.7,199.3z M151.5,177.4c-0.3,0.4-0.5,0.7-0.7,1.1
		c-0.3,0.7-0.6,1.4-0.3,1.8c0.3,0.5,1.1,1,1.7,1c0.9,0,1.8,0,2.7-0.1c0.8,0,1.6-0.1,2.4-0.1c0,0,0,0,0,0c1.5,0,2.6,0.2,3.4,1.3
		c-2.1,1.2-4.5,1.5-6.8,1.8l-0.5,0.1c-5.9,0.8-11.8-0.3-17.4-1.3c-1-0.2-2.1-0.4-3.1-0.6c-5.6-1-12.1-1.4-18,2.1
		c-2.4,1.5-4.6,3.5-6.6,6.2c-0.3,0.4-0.7,0.9-1,1.3l-0.3,0.4c0.1-0.8,0.2-1.6,0.3-2.4c0.4-3.1,0.7-6.3,2.1-9.2
		c1.3-2.8,3.6-4.9,7.4-6.7c4-1.9,8.2-2.9,12.6-2.9c3.9,0,8,0.7,12.3,2.2c2.3,0.8,4.6,1.6,7,2.5c1,0.4,2.1,0.7,3.1,1.1
		C151.6,177.2,151.5,177.3,151.5,177.4z M119.5,184.9c4.5-1.4,8.9-1,14.2,0l0.4,0.1c5.1,1,10.4,2,15.7,1.8c3.5-0.1,7.6-0.4,11.5-2
		c-0.3,1.5-1.3,2.4-2.6,3.3c-2.9,1.8-6.2,2.2-9.4,2.6c-1.9,0.2-3.8,0.4-5.6,0.6c-4.2,0.4-8.4,0.8-12.6,1.6c-3.8,0.7-7.5,2-11.1,3.3
		c-0.7,0.3-1.4,0.5-2.1,0.8c-3.3,1.2-5.8,3.5-8.2,5.7c-0.9,0.9-1.9,1.8-2.9,2.6c-1.8,1.5-3.7,2.8-5.5,4c-0.4,0.3-1.1,0.3-1.2,0.3
		c-0.3-0.3-0.4-1.1-0.3-1.4c0.4-1,1-2,1.6-3l0.2-0.3c0.3-0.4,0.5-0.8,0.8-1.3c0.9-1.5,1.8-3,2.8-4.4c0.7-0.9,1.3-1.9,2-2.8
		C110.2,191.6,113.5,186.8,119.5,184.9z M161.1,98c-0.4,0.6-1,1.7-0.7,2.4c0.2,0.5,0.9,0.7,1.6,0.9c0.2,0.1,0.4,0.1,0.6,0.2
		c0.2,0.1,0.4,0.1,0.7,0c0,0,0,0,0.1,0c-0.1,0.2-0.2,0.4-0.4,0.6c-0.4,0.6-0.7,1.2-1.1,1.7c-1.3,1.5-2.6,3.1-3.9,4.6
		c-2.3,2.7-4.7,5.5-6.9,8.3c-1.3,1.7-2.6,3.5-3.8,5.3c-1.5,2.1-3,4.4-4.7,6.4c-4,4.8-8.4,9.2-11.7,12.6c-2.5,2.4-5.8,3.4-10.3,2.9
		c-1.2-0.1-2.5-0.4-4.1-0.8c-0.5-0.1-0.9-0.3-1-0.6c-0.2-0.3-0.2-0.8,0.1-1.5c2.5-7.7,6.5-15.2,12.4-23.1c5.1-6.8,11-13,17.6-18.2
		c5.1-4,10.3-7.9,15.5-11.7c2.6-1.9,5.1-3.8,7.6-5.7c1.2-0.9,2.4-1.9,3.6-2.9c0.4-0.3,0.8-0.7,1.2-1c-0.1,0.3-0.1,0.6-0.2,0.8
		c-1.7,5.6-4,11.8-9.5,16.2C162.9,96,161.9,96.9,161.1,98z M93.8,224.5c0.1,1.8,0.1,3.6,0.1,5.2c0,5.9,0.4,10.8,1.2,15.3
		c0.1,0.7,0.2,1.4,0.2,2.1c0,0.3,0,0.6,0,0.8l-1.3,0.8c-0.1-1.3-0.3-2.5-0.4-3.7c-0.4-3.1-0.7-6-0.9-9.1c-0.4-4.4-0.7-9-0.7-13.7
		c0-2.6,0.1-5.2,0.3-7.7c0.1-1.4,0.2-2.9,0.2-4.4c0.1-1.5,0.1-3.1,0.1-4.6c0-2.2,0.1-4.5,0.2-6.7c0.4-7.6,0.9-15.3,1.4-22.8l0.4-6.9
		c0.1-0.9,0.1-1.8,0.2-2.7l0.1-1.1c0-0.3,0.1-1,0.3-1.1c0,0,0.1,0,0.1,0c0.3,0,0.8,0.2,1,0.4c0.2,0.1,0.3,0.2,0.5,0.2
		c0.3,0.2,0.7,0.4,1,0.5c1.1,0.3,2.2,0.6,3.4,0.8c0.4,0.1,0.7,0.2,1.1,0.3c-0.4,2.2-0.8,4.5-1.2,6.8c-1,5.5-2.1,11.2-3.2,16.9
		c-0.5,2.3-1,4.6-1.5,6.8c-0.7,3.2-1.5,6.4-2,9.7C93.6,212.2,93.4,218.1,93.8,224.5z M100.4,252.3c0.3,0.3,0.7,0.4,1.1,0.6
		c0.2,0.1,0.3,0.1,0.5,0.2c0.1,0,0.2,0,0.2,0c0.1,0,0.1-0.1,0.1-0.2c0-0.2,0-0.3,0.1-0.5c0.1-0.5,0.1-0.9-0.1-1.3
		c-0.6-0.9-0.7-1.8-0.4-2.8l0-0.1c0.2-0.6,0.5-1.2,0.9-1.4c0.3-0.1,0.7,0,1.2,0.2c0.5,0.2,0.9,0.2,1.2,0c0.2-0.2,0.4-0.5,0.1-1.4
		c-0.2-0.5-0.2-0.9,0-1.1c0.2-0.2,0.6-0.2,1.2-0.1c0.3,0.1,0.6,0.2,0.9,0.3c0.5,0.2,1.1,0.4,1.6,0.4c0.4,0,0.7-0.2,1.1-0.3
		c0.1-0.1,0.3-0.2,0.4-0.2c0.1,0,0.1-0.1,0.1-0.2c0-0.1,0-0.1,0-0.2c-0.1-0.1-0.2-0.3-0.2-0.4c-0.2-0.4-0.4-0.7-0.7-0.8
		c-1.2-0.5-2.4-0.7-3.4-0.9c-1.3-0.2-2.3,0.4-3,1.8c-0.3,0.5-0.9,0.8-1.6,1.2c-0.2,0.1-0.4,0.2-0.6,0.4l0.4-8.1
		c3.7-0.1,6.8,1,9.5,3.2l0.1,0.1c1.7,1.3,3.2,2.6,3.8,4.7c0.4,1.6,0,3.1-1.5,4.7c-2.9,3.2-6.8,4.4-9.8,5.1
		c-13.3,3-26.2,2.4-38.4-1.9c-2-0.7-4.1-2-6.1-3.7c-1.2-1-1.8-2.1-1.8-3.3c0-1.3,0.7-2.7,2-3.8c3.1-2.6,6.8-4,10.5-5
		c1.6-0.5,3.2-0.7,5-1c0.7-0.1,1.4-0.2,2.1-0.4v5c-0.3,0-0.6-0.1-0.8-0.1c-0.9-0.1-1.8-0.3-2.7-0.2c-0.9,0.1-1.6,0.7-2.4,1.3
		c-0.1,0.1-0.3,0.2-0.4,0.3c-0.2,0.2-0.2,0.5-0.2,0.9c0,0.1,0,0.3,0,0.4c0,0.1,0,0.1,0.1,0.2c0.1,0.1,0.1,0.1,0.2,0.1
		c0.1,0,0.2,0,0.4,0c0.3,0,0.6,0,0.9-0.2c1.6-1.2,3.8-1,5.2,0.3c0.2,0.2,0.2,0.8,0.2,1c0,0.9,0,1.8,0,2.7l0,1.1l-1,0.8
		c-0.3-0.1-0.6-0.2-0.9-0.4c-0.8-0.3-1.5-0.6-2.2-1c-0.4-0.2-1-0.5-1.1-0.8c-0.4-1.4-1.5-1.9-2.5-2.4c-0.2-0.1-0.5-0.2-0.7-0.3
		c-0.8-0.4-1.8-0.4-2.7,0c-0.9,0.4-1.5,1.1-1.7,2c-0.1,0.3,0.1,0.6,0.2,0.9c0,0.1,0.1,0.2,0.1,0.3c0,0.1,0.1,0.1,0.1,0.2
		c0.1,0,0.1,0,0.2,0c0.1,0,0.2,0,0.3-0.1c0.2-0.1,0.5-0.1,0.7-0.3c1.3-1.4,1.3-1.4,2.9-0.3c0.4,0.2,0.7,0.5,1.1,0.9
		c0.1,0.1,0.2,0.2,0.3,0.3c-0.1,0-0.1,0.1-0.2,0.1c-0.4,0.2-0.7,0.3-1,0.6c-0.3,0.3-0.5,0.6-0.6,1c-0.1,0.1-0.1,0.3-0.2,0.4
		c0,0.1,0,0.2,0,0.2s0.1,0.1,0.2,0.1c0.2,0,0.3,0.1,0.5,0.1c0.4,0.1,0.8,0.2,1.2,0.2c0.4,0,0.7-0.2,1-0.4c0.1-0.1,0.2-0.1,0.3-0.2
		c1.1-0.5,2-0.4,3.2,0.3c-0.1,0.1-0.1,0.1-0.2,0.2c-0.4,0.3-0.7,0.5-0.9,0.9c-0.2,0.4-0.3,0.8-0.3,1.2c0,0.2,0,0.3-0.1,0.5
		c0,0.1,0,0.2,0.1,0.2c0.1,0.1,0.1,0.1,0.2,0.1c0.2,0,0.3,0,0.5-0.1c0.4,0,0.9-0.1,1.2-0.3c0.7-0.5,1.3-1,2-1.6
		c0.7-0.5,1.3-1.1,2-1.6c0.7-0.5,1.5-0.5,1.9-0.2c0.2,0.1,0.4,0.3,0.3,0.6c-0.1,1.4,0,2,0.4,2.2c0.5,0.2,1.1-0.2,2-1.1
		c0.1-0.1,0.4-0.1,0.6-0.1c0.1,0,0.2,0,0.2,0c0,0.1,0.1,0.2,0.1,0.4c0.1,0.4,0.2,0.8,0.4,1.1c0.2,0.3,0.4,0.4,0.7,0.6
		c0.1,0.1,0.2,0.1,0.3,0.2c0.1,0,0.1,0.1,0.2,0c0.1,0,0.1-0.1,0.2-0.1c0.1-0.1,0.1-0.2,0.2-0.3c0.1-0.2,0.3-0.5,0.3-0.8
		c0.1-0.2,0.1-0.5,0.1-0.8c0-0.3,0-0.7,0.2-0.8c0.4-0.4,1.2-0.6,1.7-0.5c0.3,0.1,0.7,0.7,0.8,1.3c0.1,0.3,0,0.6,0,0.9
		c0,0.4-0.1,0.7,0,1.1c0.1,0.4,0.4,0.8,0.6,1.1c0.1,0.1,0.2,0.3,0.3,0.4c0,0.1,0.1,0.1,0.2,0.1c0.1,0,0.2,0,0.2-0.1
		c0.1-0.1,0.2-0.3,0.3-0.4c0.2-0.3,0.5-0.6,0.7-1c0.1-0.2,0.1-0.5,0.1-0.8c0-0.1,0-0.1,0-0.2c0.1,0.1,0.2,0.2,0.3,0.2
		c0.4,0.4,0.7,0.7,1,1c0.1,0.1,0.2,0.3,0.3,0.5c0.1,0.3,0.3,0.5,0.5,0.7c0.3,0.3,1,0.3,1.3,0c0.3-0.2,0.4-0.9,0.4-1.3
		c-0.1-0.4-0.3-0.7-0.5-1c-0.1-0.1-0.1-0.2-0.2-0.2c-0.7-1.2-0.6-2.2,0.4-2.9c1.6-1.1,2.9-1,3.8,0.2c0.1,0.2,0.2,0.4,0.3,0.6
		C99.9,251.7,100.1,252.1,100.4,252.3z M104.9,257.3c3-0.7,6.8-2,9.6-5c0.9-1,1.6-2.2,2.3-3.3c0.3-0.4,0.5-0.9,0.8-1.3
		c1.6,1.8,2.7,4.5,3.3,7.8c1.5,8.6-0.1,16.8-1.9,23.7c-1.9,7.4-5.2,14.2-8.5,20.3c-1.4,2.6-2.6,5.3-3.8,7.9c-0.9,2-1.8,4.1-2.8,6.1
		c-1,2-2.2,3.9-3.6,5.7c-1.7,2.1-4.1,3.2-7.2,3.4l-1.1,0c-4.7,0.2-9.5,0.3-14.1-0.8c-5.6-1.3-8.9-4.3-10.1-9.2
		c-1.9-7.4-6-13.9-10.1-19.7c-8.4-11.9-10-25-5.1-40.1c0.5-1.4,1-2.8,1.6-4.1c0.2-0.6,0.5-1.2,0.7-1.7l0.1,0c0.5,3.3,2.8,5.1,5,6.5
		c4.4,2.7,9.3,3.9,14,4.7C84.6,260,95,259.8,104.9,257.3z M29.6,129.2c-0.4-0.7-0.9-1.3-1.3-2c-0.5-0.7-1-1.5-1.5-2.3
		c0.1,0.1,0.2,0.2,0.3,0.2c1.7,1.5,3.4,2.9,5.2,4.4c3.3,2.8,6.6,5.7,10,8.5c2.1,1.8,4.3,3.6,6.5,5.4c3.5,2.9,7.1,5.8,10.6,8.9
		c6.6,5.7,11.6,12,16.1,20.2c-0.2,0.2-0.3,0.4-0.5,0.6c-0.4,0.5-0.8,0.9-1.1,1.4c-0.3,0.6-0.7,0.9-1.1,1c-0.4,0.1-0.8,0-1.3-0.3
		c-1-0.6-2.1-1.3-3-2.2c-2.6-2.6-5.3-4.7-8.4-6.4c-5.8-3.3-10.7-7.8-14.5-13.6c-3.6-5.3-7.6-10.5-12.5-15.6
		c-0.7-0.7-1.2-1.6-1.8-2.4c-0.2-0.3-0.3-0.5-0.5-0.8c-0.6-0.8-0.7-1.6-0.4-2.5C30.4,130.9,30,129.9,29.6,129.2z M56.2,134.1l-3-1.9
		l2.7,0.3L56.2,134.1z M19.2,58.6c0-0.1,0-0.3,0-0.4c0.2,0.1,0.4,0.1,0.6,0.2c0.6,0.2,1.1,0.3,1.5,0.6c2.6,1.8,5.4,3.7,8.7,6.1
		c1.6,1.2,3.2,2.3,4.9,3.5c2.4,1.8,4.9,3.6,7.4,5.4c0.9,0.6,1.1,1.4,1.3,2.4c0.3,1.4,0.6,2.7,0.9,4.1c0.8,3.7,1.6,7.5,2.7,11.2
		c1.6,5.6,5.1,10.7,10.6,15.6c3.5,3.2,8,3.8,11.8,4c1.3,0.1,1.7,0.5,1.8,1.6c0.3,4.5,0,8.2-2.4,11.4c-2.3,3-5.4,5.1-9.6,6.4
		c-1,0.3-1.5,0-1.9-0.9c-0.8-2.2-1.7-4.5-2.5-6.7c-1.2-3.2-2.5-6.4-3.6-9.6c-4.6-13-12.5-24.4-24.1-35.1c-1.9-1.8-3.9-3.5-5.9-5.1
		c-2.5-2.1-5.1-4.3-7.5-6.6c-2.5-2.4-4.8-5.1-7-7.7c-0.9-1-1.7-2-2.6-3h0c-0.3-0.3-0.5-0.7-0.7-1.1c-0.1-0.1-0.1-0.2-0.2-0.4
		c0.1,0,0.1,0,0.2,0c0.4,0,0.7,0.1,1-0.1c2.8-1.1,4.6,0.5,6.5,2.2l0.2,0.2c0.9,0.8,1.7,1.6,2.5,2.5c0.5,0.6,1.1,1.1,1.6,1.6
		c0.4,0.4,0.9,0.7,1.4,0.9c0.9,0.4,1.5,0.3,1.8,0.1c0.5-0.3,0.7-0.9,0.7-1.7C19.3,59.5,19.3,59.1,19.2,58.6z M49.5,44.2
		c-0.7-3.1,0.6-5.8,2-8.4l0.3-0.6c0.2-0.3,0.8-0.7,1.3-0.7c2.2-0.1,2.7-0.5,3.3-2.7c0.2-0.8,0.6-1.6,0.9-2.4
		c0.1-0.3,0.3-0.6,0.4-0.9l0.2,0l20.6,79.1c-0.6,0.1-1.3,0.3-2,0.4c-1.8,0.4-3.6,0.8-5.4,0.9c-5.9,0.3-10.7-1.7-14.6-6
		c-5.9-6.4-8.1-14.3-9.5-20.4c-1.6-7.3-2.4-15.3-2.4-25c0-1.9,0.3-3.9,0.6-5.8c0.1-0.8,0.2-1.5,0.4-2.3c0.1-0.8,0.5-1.3,1.3-1.3
		c0.1,0,0.1,0,0.2,0c0.7,0,1.3-0.1,1.7-0.5c0.4-0.4,0.7-1,0.7-1.8c0-0.1,0-0.3,0-0.4C49.6,45.1,49.6,44.6,49.5,44.2z M107.6,49
		c0.1,0.4,0.1,0.8,0.2,1.2c1.4,8.6,1.7,17.3,0.8,25.7c-0.1,1.1-0.2,2.2-0.4,3.4c-0.3,3.3-0.7,6.8-1.2,10.1c-0.3,2.1-1.3,4.2-3.1,6.2
		l0-0.2c0.1-0.7,0.3-1.4,0.4-2.1c1.5-8.6-0.3-17-5.5-25.5c-3.1-5.1-5.9-10.4-8.7-15.5c-0.6-1.1-1-2.3-1.4-3.5
		c-0.2-0.7-0.5-1.5-0.8-2.2l0-0.1c-0.3-0.8-0.7-1.8-1.4-2.4c-1-0.9-1-1.8-0.9-2.9c0.3-3.7,0.6-7.4,0.9-11.1c0.5-6.4,1-12.7,1.5-19.1
		c0.1-1.5,0.3-2.9,0.5-4.5c0.1-0.6,0.1-1.2,0.2-1.8c1.5,0.7,2.7,0.2,4-0.9c0.1,0.2,0.3,0.5,0.4,0.7c0.4,0.7,0.8,1.3,1.1,2
		c0.2,0.4,0.4,0.8,0.5,1.2c0.3,0.8,0.6,1.5,1.1,2.2c0.6,0.8,1.6,1.5,2.4,1.7c0.9,0.2,1.4,0.6,1.7,1.4c0.3,0.8,0.6,1.6,0.9,2.4
		c0.9,2.4,1.9,4.9,2.7,7.4c1.3,4.2,2.5,8.6,3.5,13.2c0.3,1.4,0.1,3-0.1,4.4C106.6,43.3,107.1,46.2,107.6,49z M83.4,41
		c-1.4-3-3.9-4.9-6.6-6.7c-1.9-1.3-3.8-2.8-5.6-4.3l-0.5-0.4c-1.4-1.1-2.7-2.4-3.9-3.5c-0.3-0.3-0.5-0.7-0.5-1
		c0.4-1.7,0.8-3.4,1.3-5.2c0.1-0.5,0.3-1,0.4-1.5c0.2,0.2,0.4,0.3,0.6,0.5c0.6,0.4,1.1,0.8,1.6,1.1c0.7,0.5,1.4,0.7,2,0.5
		c0.6-0.2,1-0.8,1.3-1.6c0.1-0.4,0.2-0.8,0.2-1.1c0-2.2,0.8-4.2,2.4-5.9C79,8.9,82,6,84.9,3.2l0.4-0.3c0.2-0.2,0.6-0.4,0.9-0.6
		c0.1,0,0.1-0.1,0.2-0.1L83.4,41z M81.3,42.1c0.4,0.7,1,1.2,1.6,1.7c0.3,0.3,0.7,0.6,1,0.9l0.3,0.3c0.6,0.7,1.2,1.3,1.6,2.1
		c0.6,1.4,1.2,2.8,1.7,4.2c0.8,2.1,1.7,4.2,2.7,6.3c1.3,2.6,2.8,5,4.3,7.5c0.8,1.4,1.7,2.8,2.5,4.2c2.2,3.8,4.7,8.2,5.3,13.1
		c0.8,7.2,0,13.2-2.5,18.6c-1.1,2.4-3,4.2-5.6,5.2c-0.5,0.2-1,0.4-1.5,0.6c-1.5,0.6-3.1,1.3-4.7,1.8c-1.7,0.5-3.5,0.6-5.3,0.7
		l-0.2,0c0,0,0,0,0,0c-0.2,0-0.7-0.5-0.8-0.9l-0.4-1.3c-1.1-3.4-2.2-6.8-3.1-10.3c-3-11.1-6.9-25.7-10.7-40.7
		c-1.3-5.2-2.6-10.4-3.8-15.5c-0.7-3-1.5-6-2.2-9c-0.2-1-0.6-2-0.9-3c-0.1-0.4-0.2-0.8-0.4-1.2c2.4-1.1,4.2-0.8,5.7,0.9
		c0.2,0.2,0.4,0.4,0.6,0.5c0.2,0.1,0.3,0.3,0.5,0.4c2.9,2.9,6.1,5.8,9.9,8C78.6,38.3,80,39.8,81.3,42.1z M128.7,91.7
		c4.3-2.3,8.5-4.8,12.7-7.1c1.8-1,3.7-2.1,5.5-3.1c1.1-0.6,1.7-0.7,2.5,0.2c0.5,0.6,1,0.9,1.6,0.9c0.6,0,1.3-0.3,2.1-0.9
		c1.2-1.1,2.4-2.3,3.3-3.3c1.8-1.9,4.2-2.6,6.3-3c0.3-0.1,0.9,0.3,1.2,0.6c1.7,1.8,2.8,1.9,4.9,0.6l0.2-0.1c1.2-0.7,2.3-1.4,3.7-1.1
		l0.1,0.2c-0.6,0.5-1.1,0.9-1.7,1.4c-1.3,1.1-2.7,2.3-4.1,3.3c-2.3,1.7-4.6,3.3-6.9,4.9c-3.7,2.6-7.5,5.3-11.1,8.1
		c-13.4,10.3-23.3,21.5-30.3,34c-0.8,1.4-1.4,2.9-2.1,4.3l-0.3,0.6c-0.5,1.1-0.9,2.2-1.5,3.5c-0.2,0.4-0.4,0.9-0.6,1.4
		c-0.6-1.3-1.2-2.6-1.8-3.9c-1.6-3.4-3.1-6.6-4.4-9.9c-1.1-2.8-0.4-5.9,1.9-8.3c3.2-3.4,5.4-7.4,7.5-11.4l0.3-0.6
		C120.6,97.9,124.2,94.2,128.7,91.7z M85.5,152.8v3.2C85.3,154.9,85.4,153.8,85.5,152.8z M89.1,214c-0.4,7-0.6,14.6-0.6,24
		c0,2.3,0.4,4.6,0.8,6.8c0.2,1,0.3,2,0.5,3c0,0.3,0.1,0.5,0.1,0.8l0,0.1l-2-0.2c0-0.9-0.1-1.7-0.1-2.6c-0.1-2-0.1-4.1-0.3-6.2
		c-0.6-6.9-0.7-13.9-0.7-20.6c0-4.2,0-8.6-0.2-12.9c-0.1-3.7-0.6-7.4-1-11c-0.2-2-0.4-4-0.6-6c-0.7-7.8-0.7-16.1-0.1-25.4
		c0.1-1.2,0.1-2.5,0.2-3.7c0-0.5,0-1,0.1-1.6l0,0c0,0.1,0.1,0.2,0.1,0.3c0.2,0.3,0.3,0.6,0.3,0.9c0.1,1.4,0.1,2.8,0.1,4.1
		c0.1,2.1,0.1,4.4,0.3,6.5c0.4,4.6,0.9,9.4,1.6,15.1C88.7,193.3,89.7,203.5,89.1,214z M83.6,127.7c1.2,5.5,0.7,10.9,0.1,16.2
		c-0.3,3-0.6,6.1-0.6,9.1c-1.8-1.4-3-4.1-3.6-7.6C78.7,139.1,80.4,131.9,83.6,127.7z M82.9,247.5L82.9,247.5c0.5-0.5,1.1-1,1.8-1.4
		c0.2-0.1,0.4-0.3,0.7-0.5l0.1,0.7c0.2,1.1,0.3,2.1,0.4,3c0,0.1-0.1,0.2-0.1,0.3c-0.3,0-0.6,0.1-0.9,0.1c-0.7,0.1-1.5,0.3-2,0
		c-0.4-0.2-0.6-0.4-0.6-0.8C82.3,248.5,82.5,247.9,82.9,247.5z M80.1,174.2c0.5-0.7,1-1.4,1.7-2.2c0.1-0.2,0.3-0.4,0.5-0.6
		c0,1.1,0,2.3,0,3.4c0,3-0.1,5.7,0.1,8.5c0.2,3.3,0.5,6.6,0.7,9.8c0.2,1.7,0.3,3.4,0.4,5.1l0.1,1.7c0.3,3.1,0.5,6.4,0.7,9.6
		c0.1,1.4,0,2.9,0,4.3c0,1.2,0,2.5,0,3.8c0.2,7.2,0.5,15,0.9,24.5l0,0.1c0,0.4,0,0.7-0.1,0.8c0,0-0.1,0.1-0.2,0.1l-0.2-4.2
		c-0.2-3.2-0.3-6.4-0.5-9.5c-0.2-3.6-0.3-7.2-0.5-10.8c-0.4-8.1-0.7-16.6-1.4-24.8c-0.3-4.1-1-8.3-1.7-12.3c-0.3-2-0.7-4.1-1-6.2
		C79.7,175.2,79.9,174.6,80.1,174.2z M92.8,164.9c0,0.2,0,0.4-0.1,0.6c-0.4,5.4-0.8,10.9-1.2,16.3l-0.6,7.9
		c-0.1,0.9-0.1,1.7-0.2,2.6c-1.6-9.7-3.1-27.6-2.6-32.6c2,0.2,3.9,0.6,4.5,2.7C92.9,163.2,92.8,164.1,92.8,164.9z M84.9,121.9
		l-2.3-10.1c0,0,0.1,0,0.1,0c0,0,0.1-0.1,0.1-0.1c1.1-0.2,2.3-0.4,3.6-0.7l0.8-0.1c-0.3,1.4-0.4,2.9-0.5,4.3
		c-0.2,2.4-0.4,4.6-1.4,6.7L84.9,121.9z M74.2,177.4c0.6-0.7,1-1.3,1.6-1.9c0.3-0.4,0.7-0.6,0.8-0.6c0.2,0,0.6,0.4,0.6,0.7
		c0.2,1,0.4,1.9,0.6,2.9c0.6,2.8,1.2,5.7,1.4,8.5c0.6,6.4,1.1,12.8,1.5,19.1l0.2,3.3c0,0.5,0,1-0.1,1.5c-0.1-1-0.3-2.1-0.4-3.1
		c-1.4-10-2.8-20.4-7-29.7C73.8,177.9,74,177.6,74.2,177.4z M58.3,133.2c5.3-1,9.5-3.5,12.6-7.6c3-4,3.7-8.6,2.3-14.6
		c0.5-0.1,1-0.2,1.5-0.3c1.3-0.2,2.6-0.5,3.8-0.6c1.1-0.1,1.6,0.3,1.8,1.5c0.6,3.2,1.4,6.7,2.4,10.9c0.3,1.3,0.2,2.1-0.6,3
		c-7.9,9.5-6,23.1,0.3,30.7c0.2,0.3,0.4,0.8,0.4,1.3c0,1.5-0.1,2.8-0.3,4c-0.2-0.4-0.4-0.8-0.6-1.2c-0.6-1.1-1.1-2.1-1.7-3.2
		c-1.3-2.5-2.6-5.1-4.1-7.6c-1.9-3.1-4.8-5.2-7.7-7.3c-0.4-0.3-0.9-0.6-1.3-0.9c-2.4-1.8-5-3.5-7.1-4.9l-0.1-0.1
		C58.3,135.3,58.2,135.3,58.3,133.2z M114.4,104.3c-1.6,2.9-3.2,5.9-5.6,8.4c-2.9,3-4,6.6-3.1,10.4c0.3,1.3-0.3,2.2-1,3.1l-0.2,0.3
		c-2.4,3.4-5.2,8-6.2,13.6c-0.5,2.7-1.2,5.4-1.8,8.1c-0.2,0.7-0.4,1.4-0.5,2.1c-0.5,2.2-1.1,4.4-1.7,6.6c-0.2,0.8-0.4,1.7-0.7,2.5
		c-1.2-1.4-2.9-2-5.3-2c-0.1,0-0.1,0-0.2,0c0-0.2,0-0.3-0.1-0.5c-0.1-0.5-0.1-1-0.1-1.6c-0.1-2-0.2-4-0.3-6
		c-0.3-5-0.5-10.1-0.6-15.1c0-3.4,0.5-6.9,0.9-10.3c0.1-0.6,0.2-1.2,0.3-1.9c0.1-0.7,0.8-1.4,1.4-1.9l0.1-0.1
		c4.9-4.8,10-9.7,14.9-14.4l0.9-0.8c0.2-0.2,0.5-0.4,0.8-0.6l0.2-0.1c0.6-0.4,1.1-0.7,1.3-0.7c0.2,0.1,0.5,0.5,0.8,1.3
		c0.3,0.6,1.1,1.5,1.8,1.6c0,0,0,0,0.1,0c0.7,0,1.5-0.8,1.9-1.3c0.5-0.6,0.9-1.3,1.3-1.9c0.5-0.8,1-1.6,1.6-2.3
		c0.4-0.5,0.9-0.8,1.6-1.1c0.2-0.1,0.4-0.2,0.6-0.4l0,0C116.2,100.9,115.3,102.6,114.4,104.3z M7.4,66.9c0.1,0,0.1,0,0.2-0.1
		c0-0.1,0.1-0.1,0-0.2c-0.1-0.3-0.1-0.6-0.2-0.9c-0.1-0.7-0.3-1.4-0.5-2c-0.3-0.6-0.6-1.1-0.9-1.6C6,62,6,62,6,61.9
		c0.1,0.2,0.3,0.3,0.4,0.5c2.8,3.4,6.2,6.2,9.5,8.9c1.6,1.3,3.2,2.7,4.7,4.1c10.1,9.1,18.9,17.7,24.2,29.3c2.1,4.7,4,9.6,5.9,14.4
		c0.8,2.1,1.7,4.3,2.5,6.5c0.5,1.1,0.9,2.3,1.4,3.5l0.5,1.3c-0.5-0.2-1.1-0.3-1.6-0.5c-3.5-1.1-6.9-2.1-9.5-4.7
		c-1.8-1.7-3.5-3.4-5.3-5.1c-2-1.9-4-3.9-6-5.9c-4-4-6.5-9-8.7-13.8c-2.1-4.6-4.4-8.6-7.2-12.5c-4.2-5.8-7.9-12.4-11.6-20.8
		c0-0.1-0.1-0.1-0.1-0.2H7.4z M78,158.1c0.7,1.4,1.4,2.9,2.2,4.3c2,3.4,0.6,8-2,10.2c-0.2-0.3-0.4-0.6-0.6-0.9
		c-0.5-0.8-1-1.6-1.5-2.4c-4.1-7.4-9.7-14.1-17.3-20.5c-5.7-4.9-11.7-9.7-17.4-14.4c-3-2.5-6.1-5-9.1-7.4c-0.9-0.8-1.8-1.6-2.7-2.4
		c-0.4-0.3-0.7-0.7-1.1-1l0.1-0.2c1,0.4,2,0.7,3.1,1.1c2.4,0.8,4.8,1.7,7.1,2.8c9,4.3,17.3,9.2,24.7,14.5c2.5,1.8,5.4,3.9,7.9,6.4
		c1.9,1.8,3.3,4.1,4.2,5.6C76.6,155.1,77.3,156.6,78,158.1z M95.4,162.1l0.4-1.5c0.4-1.8,0.9-3.6,1.3-5.4c0.4-1.6,0.8-3.3,1.2-4.9
		c1-3.9,1.9-7.9,2.9-11.9c0.8-3.6,2.8-6.6,4.8-9.7c0.3-0.4,0.5-0.8,0.8-1.2c0.5,1,1.1,2,1.6,2.9c1.6,2.9,3,5.6,4.6,8.3
		c0.5,0.9,0.5,1.6-0.1,2.6c-3.4,6.4-7.3,13.6-9.3,21.5c-0.1,0.4-0.3,0.8-0.7,1c-0.5,0.3-1.2,0.3-2.1,0.1c-1.2-0.3-2.5-0.7-3.8-1.2
		C96.5,162.4,96,162.3,95.4,162.1z M113.5,145l0.4-0.8l3.4,1.5c-1,4.3-6.6,15.1-11.1,16.6C107.8,156.2,110.7,150.5,113.5,145z
		 M64.3,172.9c0.8,0.7,1.6,1.4,2.5,2c0.2,0.2,0.5,0.4,0.7,0.6c0.6,0.5,1.3,1.1,2,1.4c1,0.5,1.5,1.2,1.9,2.3
		c3.8,8.6,5.3,17.7,6.3,26.2c0.9,6.9,1.4,14,1.9,20.9c0.2,2,0.3,4.1,0.5,6.1c0.3,3.5,0.4,7.1,0.6,10.6l0.1,1.5c0,0.8,0,1.7-0.1,2.5
		c0,0.3,0,0.6,0,0.9h-1.6v0c0-0.2,0-0.3,0-0.5c0-1.1,0.1-2.3,0.1-3.4c0.1-2.4,0.2-5,0-7.4c-0.7-8.9-1.8-17.7-2.6-24.4
		c-0.2-1.6-0.7-3.2-1.2-4.8c-0.2-0.7-0.4-1.3-0.6-2c-0.1-0.3-0.2-0.6-0.3-0.9c-0.2-0.5-0.4-1.1-0.4-1.6c0-1.6,0-3.1,0.1-4.7
		c0.1-2.2,0.1-4.4,0.1-6.6c-0.1-2.3-0.5-4.2-1.2-5.6c-2-3.7-4.2-7.6-6.9-11.2c-0.6-0.8-1.3-1.6-2-2.3
		C64.2,172.8,64.3,172.8,64.3,172.9z"/>
	<g>
		<path d="M427.4,67.1c-0.4-2.1-0.9-4.5-3.5-4.5c-0.2-0.5-0.5-0.9-0.7-1.4c-0.6-1.1-1.1-2.1-1.7-3c-0.3-0.5-0.8-0.8-1.3-0.8
			c-0.5,0-1.1,0.2-1.5,0.7c-0.7,0.9-1.5,1.9-2,3.1c-1.5,3.8-2.8,7.7-3.8,10.7c-1.1,3.2-2.2,6-4.8,8.1c0.1-0.3,0.2-0.6,0.4-0.8
			c0.5-1.2,1-2.3,1.3-3.5c1.3-4.7,2.7-9.7,4.1-15.3c0.3-1.2,0.3-2.6,0.3-3.8c0-1.8-1.1-3.3-2.6-3.5c-1.3-0.2-2.2,0.7-2.8,2.7
			c0,0.2-0.1,0.3-0.1,0.5c0,0.2-0.1,0.4-0.2,0.6c-0.2,0.7-0.4,1.4-0.6,2c-0.5,1.7-1.1,3.5-1.7,5.3c-0.8,2.3-1.7,4.6-2.6,6.9
			c-0.4,1-0.8,2.1-1.2,3.1l-3.6,9.5c0.1-0.5,0.3-1,0.4-1.5c0.4-1.5,0.8-3.1,1.1-4.6c0.6-2.7,1.2-5.9,1.7-9.1
			c0.1-0.5-0.2-0.9-0.5-1.4c-0.1-0.2-0.2-0.4-0.3-0.6c0-0.1-0.1-0.1-0.2-0.1c-0.1,0-0.1,0-0.2,0c-0.2,0.1-0.4,0.2-0.6,0.3
			c-0.5,0.3-1,0.5-1.2,1c-0.7,1.3-1.2,2.8-1.7,4.4c-1.9,6.7-5.4,12-10.7,16.4c-2.3,1.9-3.9,4-4.7,6.4c-0.8,2.2-1.5,4.4-2.3,6.6
			c-0.7,2-1.4,4.2-2.1,6.2c-1.4,4.1-2,7.3-1.8,10.5c0,0,0,0,0,0c-0.7-1.1-1.3-1.6-2-1.7c-0.8-0.1-1.6,0.4-2.6,1.6
			c-0.5,0.5-1.1,1.4-1.3,2.4c-0.5,2.2-1.7,4.3-3.5,6.5c-4.1,4.9-6.2,10.9-6.5,18.8c0,0.6-0.1,1.1-0.3,1.4c-0.4,0.6-0.9,1.3-1.4,1.9
			c-0.4,0.5-0.7,0.9-1.1,1.4c-1.3,1.8-2.5,3.5-3.8,5.3c-3.5,4.9-7.2,10-10.6,15c-1.4,2.1-2.6,4.3-3.9,6.7c-0.4,0.8-0.8,1.6-1.3,2.4
			c0-0.6,0-1.3-0.2-1.9c-0.6-2.6,0.3-4.7,2.7-6.8c4.1-3.6,7.3-8.1,10.1-12c1.9-2.7,4.2-6,3.7-10.1c-0.3-2.9-1.5-5.7-3.9-9.2
			c-1.4-2.1-3.8-4.7-7.8-3.9l0-0.3c0-0.4,0.1-0.7,0.1-1.1c0.1-0.7,0.2-1.5,0.2-2.2c0.2-1.6,0.4-3.2,0.3-4.8c-0.3-3.4-0.6-6.9-1-10.3
			c-0.3-3.3-0.7-6.7-0.9-10.1c-0.2-2.4-0.1-4.8-0.1-7.1c0-1,0-1.9,0-2.8c0.3,0,0.6,0,1,0c0.9,0,1.8,0.1,2.7-0.1
			c3.1-0.4,5-2.6,6.8-4.8c1-1.2,1.9-2.5,2.8-3.7c1.9-2.5,3.8-5.2,6.1-7.4c3.9-3.8,6.4-8.4,7.7-14.1c1.2-5.3,2.9-9.5,5.5-13.1
			c1.9-2.7,2.9-5.6,3-8.6c0.2-5.8,1.9-10.6,5.3-14.6c1.4-1.7,2.1-4,1.8-6.7c-0.1-1.5-0.3-3.6-2.4-4.3c-2.1-0.6-3.4,0.9-4.3,2.1
			c-1.4,2.1-2.8,4.3-4.3,6.9c-1.7,3-3.4,5.1-5.6,6.7c-1.4,1.1-2.9,2.3-4.3,3.4c-0.8,0.7-1.7,1.3-2.5,2c-0.3,0.2-0.5,0.4-0.8,0.6
			c0,0-0.1,0.1-0.1,0.1c0.2-0.2,0.3-0.5,0.4-0.7c0.4-0.7,0.8-1.4,1.3-2c2.1-2.5,4.2-5.1,6.4-7.6c1.9-2.3,3.9-4.6,5.8-7l0.5-0.6
			c1.9-2.2,3.8-4.5,4.6-7.5c0.6-2.2,0-3.9-1.7-5.2c-1.2-0.9-2.4-1.6-3.6-2.3l-0.1-0.1c-2-1.2-3.9-2.6-4.4-5.2
			c-0.2-0.9-0.7-1.6-1.4-2c-0.8-0.4-1.9-0.4-3,0.2c-0.8,0.4-1.5,0.9-2.2,1.3c-2.6,1.8-5.3,3.7-8.6,4.3c-2.4,0.4-4.8,0.6-7.6,0.7
			c-3.9,0.2-6.5,2.8-6.3,6.5c0.1,1.6,0.5,3.2,0.9,4.7l0.2,0.8c0.4,1.5,0.8,3,1.2,4.5c0.6,2.2,1.2,4.5,1.7,6.7
			c0.3,1.6,0.7,3.2-0.1,4.8c-0.1-0.1-0.2-0.1-0.3-0.2c-0.3-0.2-0.6-0.5-0.9-0.7c-2.8-3.1-4.5-6.7-5.1-10.6c-0.1-0.8-0.2-1.7-0.3-2.5
			c-0.1-0.7-0.1-1.4-0.2-2.1c-0.2-1.8-0.9-3-2-3.6c-1.1-0.6-2.5-0.5-4.2,0.2c-1,0.4-2,0.9-3,1.3c-1.9,0.8-3.7,1.6-5.6,2.4
			c-1.5,0.6-2.4,1.6-2.7,2.9c-0.8,3.1-0.2,5.8,1.7,8c1.7,1.9,2.9,3.6,4,5.2c2.4,3.8,4.8,7.7,7,11.5l1,1.7c0.5,0.8,0.9,1.6,1.4,2.5
			c0.2,0.3,0.3,0.7,0.5,1c-2.8-0.2-4.7-1-6.1-2.5c-2.9-3-5.2-5.7-7.2-8.2c-1-1.3-1.9-2.8-2.7-4.3c-0.6-1-1.2-2-1.8-3
			c-2.1-3.1-4.9-4-7.7-2.4c-3.9,2.2-6.4,5-7.6,8.6c-1.1,3.5-0.6,5.4,2.2,7.4c3.1,2.2,5.5,4.6,7.5,7.2c0.5,0.7,1.1,1.3,1.8,1.8
			c1.8,1.3,3.6,2.5,5.3,3.7l1.8,1.2c1.1,0.8,2,1.5,2.3,2.8c-1.6,0.3-2.8-0.4-4.1-1.5c-0.7-0.6-1.3-1.1-2-1.6
			c-1.1-0.9-2.1-1.7-3.2-2.7l-0.1-0.1c-2.3-2.1-4.7-4.2-7-6.4c-0.9-0.9-1.8-2-2.7-3c-1-1.1-2-2.2-3-3.3c-1.2-1.1-2.6-1.7-4-1.5
			c-1.4,0.1-2.7,1-3.7,2.4c-0.8,1.2-1.4,2.4-1.9,3.7c-2.1,5.7-2.2,11.8-0.3,18.3c1.6,5.7,3.9,11.3,6.1,16.8l0,0.1
			c2.7,6.7,7.9,11.2,15.6,13.3c7.7,2.2,15.3,0.5,21.7-1.4c1.1-0.3,2.2-0.9,3.3-1.5c0.4-0.2,0.8-0.5,1.3-0.7l0,0.4c0,0.6,0,1.1,0,1.7
			c0,0.4,0,0.8-0.1,1.2c-0.1,0.7-0.1,1.5,0,2.2c0.3,3.4,0.7,6.7,1,10.1c0.4,3.5,0.7,7,1.1,10.5c0.4,3.7,0.6,7.6-0.4,11.5
			c-0.3,1.4-0.6,2.9-0.9,4.4c-0.1,0.5-0.2,1-0.3,1.5c-1.4-2.9-3.9-3.6-6-3.8c-2.3-0.2-4.9-0.5-7.4-1.2c-4-1.1-7.1-0.1-9.5,3.1
			c-3.2,4.2-7.4,7-11.5,9.5l-11.4-14.4c0.9-3.7-1.4-5.5-3.6-7.3c-0.6-0.5-1.1-0.9-1.7-1.4c1.2-0.2,2.3-0.3,3.5-0.4
			c2.9-0.4,6-0.8,9-1.2c3.8-0.6,5.9-2.8,6.2-6.5c0.1-1.2,0-2.6-0.3-4c-1.2-5.2-4.4-9.3-9.8-12.6c-4.4-2.7-7.8-5.8-10.4-9.5
			c-3.8-5.4-9.1-8.2-16.1-8.7c-5.9-0.4-10.7-2.1-14.6-5.1c-1.4-1.1-3.1-2.2-5-3.3c-0.7-0.4-1.4-0.5-2-0.1c-0.6,0.3-0.9,1-0.9,1.9
			c0,1.8,1.1,2.9,2.1,3.7l1.6,1.3c2.4,2,4.9,4.1,7.5,6.1c4,3.2,6,6.2,6.5,10c0.1,0.5,0,1,0,1.5c0,0.2,0,0.4,0,0.5l-0.2,0.1
			c-0.2-0.2-0.4-0.4-0.7-0.6c-0.5-0.5-1.1-1.1-1.5-1.7c-1.1-1.6-2.1-3.2-3.1-4.8c-0.9-1.4-1.9-2.9-2.9-4.4c-3.1-4.7-7-7.6-11.6-8.6
			c-3.3-0.8-6.4-1.8-8.7-2.7c-2.5-0.9-5.7-1.8-9-0.6c-1.1,0.4-2.4,1.1-2.3,2.9c0.1,1.6,1.4,2,2.5,2.3c0.3,0.1,0.6,0.2,0.9,0.2
			c5.5,0.4,10.7,2.5,16.3,6.6c1,0.7,1.8,1.9,2.5,2.9c0.2,0.3,0.4,0.5,0.5,0.8c0.1,0.1,0,0.5-0.1,0.7c0,0.1,0,0.2-0.1,0.3
			c-0.1,0-0.1,0-0.2,0c-0.3,0-0.6-0.1-0.8-0.2c-0.4-0.3-0.8-0.7-1.2-1.1c-0.1-0.1-0.2-0.3-0.3-0.4c-1.9-2-4-4.3-7-5.4
			c-1.3-0.4-2.6-0.9-3.9-1.4c-4.7-1.8-9.6-3.6-14.9-3.6c0,0,0,0-0.1,0c-2.7,0-5.3,0.1-7.8,1.3c-1.1,0.5-2.3,1.1-3.4,1.6
			c-1.1,0.5-2.1,1-3.2,1.5c-0.3,0.2-1.1,0.8-1,1.2c0.1,0.5,0.6,1.1,1.1,1.3c1,0.3,2.1,0.5,2.9,0.6c5.5,0.7,9.2,3.1,11.7,7.5
			c2.5,4.5,5.6,5.7,10.9,4.1c4.4-1.3,8.7-0.4,13.4,2.7c-0.1,0-0.2,0-0.3,0l-0.2,0c-0.5-0.1-1.1-0.2-1.6-0.2
			c-1.3-0.2-2.6-0.4-3.9-0.4c-1.4,0-2.6,0.8-3,2.2c-0.5,1.6,0.6,2.6,1.7,3.1c1.6,0.7,3.4,1.5,5.3,1.6c4.1,0.3,8.2,1.4,12,3.1
			c2.7,1.2,4.7,3.5,6.1,6.9c1.9,4.5,4.8,7.4,9,8.8c4.1,1.4,8.2,3,12.2,4.6c1.6,0.6,3.2,1.3,4.8,1.9c1,0.4,2.3,0.9,3.5,1.4
			c0.1,0.1,0.3,0.1,0.4,0.2c0.6,0.2,1.1,0.5,1.5,0.9c2.7,3.1,5.2,6.2,7.5,9.1c0.9,1.2,1.8,2.5,2.7,3.7c0.4,0.5,0.7,1,1.1,1.5
			c-3.4,2.4-4.7,5.4-3.9,8.9c0.5,2.3,1.4,4.4,2.6,6.2c1.5,2.2,3.3,4.3,5,6.3c0.9,1.1,1.8,2.2,2.7,3.3l0.4,0.5
			c1.1,1.3,2.2,2.7,2.6,4.4c0,0-0.1,0-0.1,0c-0.2,0.1-0.3,0.1-0.4,0.1c-1.1-0.2-2.1-0.5-3-1.6c-1.5-1.8-3.1-3.5-4.8-5.2
			c-0.5-0.5-1-1-1.5-1.6c-0.6-0.6-1.3-1.3-1.9-1.9c-0.7-0.7-1.5-1.5-2.2-2.2c-0.5-0.5-0.7-1.1-0.9-1.6c-0.3-0.8-0.6-1.7-0.9-2.5
			c-0.5-1.7-1.1-3.4-1.9-5c-0.4-1-1.9-1.8-3-1.9c-1.3-0.2-1.9,1-2.2,2c-0.6-0.3-1.2-0.6-1.7-0.9c-1.4-0.8-2.9-1.6-4.4-1.9
			c-3.9-0.7-7-2.3-9.8-5.2c-1.1-1.1-2.6-1.8-4-2.5l-0.1,0c-1.6-0.8-3-0.5-3.8,0.6c-0.9,1.2-0.1,2.3,0.5,3.2c0.1,0.1,0.2,0.3,0.3,0.4
			c0.4,0.6,0.8,1.2,1.3,1.8l0.4,0.6l-0.1,0.1c-0.1-0.1-0.3-0.2-0.4-0.3c-0.4-0.3-0.9-0.5-1.2-0.9c-1.2-1.1-2.7-2.4-4.1-3.7
			c-4-3.9-8.4-6.4-13.4-7.6c-3.8-0.9-6.5-2.5-8.3-4.8c-2-2.6-4.5-4.4-7.8-5.6c-0.7-0.2-2.1-0.5-2.6,0.1c-0.5,0.6-0.9,2-0.5,2.8
			c0.7,1.5,1.8,2.8,2.8,3.9c0.7,0.8,1.5,1.5,2.3,2.2c0.3,0.3,0.6,0.5,0.9,0.8l-0.1,0.1c-2.5-0.1-4.5-0.6-6.2-1.7l-0.4-0.3
			c-3.1-2-6.2-4.1-9-6.6c-5.3-4.6-11.1-4.7-16.3-0.2c-1.4,1.2-2.9,2.5-4.3,3.7c-1.4,1.2-2.8,2.3-4.2,3.5c-0.3,0.2-0.4,0.6-0.5,1
			c0,0.2-0.1,0.3-0.1,0.4c0,0.1,0,0.1,0,0.2c0,0.1,0.1,0.1,0.1,0.1c0.1,0.1,0.3,0.1,0.4,0.2c0.3,0.2,0.7,0.4,1.1,0.3l0.1,0
			c1.5-0.2,3-0.3,4.5-0.7c4.3-1.2,7.5-0.4,10.4,2.5c3.6,3.7,7.5,6,11.7,6.8c0.5,0.1,1.1,0.2,1.7,0.2c0.9,0.1,1.7,0.2,2.5,0.5
			c5.6,2.1,10.8,4.8,15.3,8c4,2.8,8.8,5.8,14.5,6.3c3.7,0.3,6.6,2,9.8,5.8c1.1,1.3,2.6,2.3,4,3.2c1.8,1.2,3.7,2.5,5.5,3.7
			c1.6,1.1,3.3,2.1,4.9,3.2c0.2,0.1,0.4,0.7,0.3,1c-1,5.5-0.9,10.9,0.2,16.2c1.7,7.9,5.5,14.2,11.4,18.6c3.7,2.8,7.9,4.5,12.4,5
			c0.6,0.1,1.4,0.4,1.6,0.7c1.5,2.4,2.8,5,4.1,7.5c0.2,0.4,0.3,0.9,0.2,1.3c-1.1,4.5-1.1,9.3,0.3,14.6c0.3,1.3,0.5,2.7,0.7,4.2
			c0.1,0.6,0.2,1.1,0.3,1.7c-0.3,0-0.7,0-1,0c-0.8,0-1.5,0-2.2,0c-0.9,0-1.7,0.1-2.6,0.1c-2.6,0.1-5.3,0.2-7.9,0.5
			c-2.1,0.2-4.4,0.8-5.5,2.8c-1.1,2.2-1.8,4.2-1.9,6c-0.4,4.3-0.4,8.7-0.4,12.6c0,5.1,0,10.2,0,15.3c0,7.2,0,14.6,0,22
			c0,5,2,8.9,6.4,11.7c4.7,3,10.1,4,14.3,4.4c3.2,0.4,6.5,0.4,9.6,0.5l0.3,0c1.2,0,2.5,0,3.7,0.1c3,0.1,6,0.1,9,0.1
			c2.1,0,4.2,0,6.3-0.1c3.4-0.1,6.6-0.8,9.3-1.9c6.9-2.8,10.8-8.7,11.3-17c0.2-4.4,0.2-8.9,0.1-13.2c0-1.4,0-2.8-0.1-4.2
			c-0.1-7.9-0.2-15-0.3-21.8c-0.1-3.4-0.2-6.9-0.5-10.7c-0.1-0.8-0.5-1.9-1.2-2.3c-1.6-1-3.4-2.2-5.3-2.8c-2.3-0.7-4.8-0.9-7.1-1
			c-1.8-0.1-3.6-0.1-5.4-0.1c-0.7,0-1.4,0-2,0c0-0.8,0.1-1.5,0.2-2.3c0.1-1.8,0.3-3.6,0.3-5.3c0-6.1,0.4-11.2,2.4-16.1
			c0.3-0.8,0.3-2-0.1-2.6c-0.3-0.4-0.9-0.4-1.6-0.3c-0.2,0-0.5,0-0.6,0c0,0-0.1,0-0.1,0c0,0,0-0.1,0-0.1c0.1-0.2,0.1-0.4,0.2-0.6
			c0.5-2.7,1.9-4.1,4.9-4.7c5.9-1.1,10.3-3.9,13.1-8.4c1.7-2.7,3.4-5.6,4.9-8.4c0.9-1.6,1.8-3.3,2.8-4.9c1-1.7,2.1-3.3,3-4.6
			c1.3-1.9,3.2-2.6,5.3-3.3c0.5-0.2,1-0.3,1.4-0.5c4.5-1.8,8.9-3.7,11.8-8c0.3-0.4,0.7-1,1.4-1.4l0.1-0.1c0.7-0.4,1.4-1,2.2-1
			c6.8-0.7,13.3-2.9,19.4-6.6c0.4-0.2,0.8-0.4,1.3-0.5c0.3-0.1,0.6-0.2,0.9-0.3c0.4-0.1,0.7-0.3,1-0.5c0.1-0.1,0.3-0.2,0.4-0.2
			c0.1,0,0.1-0.1,0.1-0.2c0-0.1,0-0.2-0.1-0.2c-0.1-0.1-0.3-0.2-0.4-0.3c-0.3-0.3-0.6-0.5-1-0.8c-0.2-0.1-0.5-0.2-0.7-0.2
			c-0.1,0-0.2,0-0.2,0l-5.1-1.2c0-0.1,0.1-0.1,0.1-0.2c0.2-0.2,0.3-0.4,0.5-0.6c2-2,3.4-4.4,4.4-7.3c0.6-1.8,1.6-3.4,2.6-5
			c0.9-1.4,1.8-2.7,2.8-4c0.7-0.9,1.3-1.9,2-2.8c3.1-4.6,4.6-8.5,4.9-12.8c0.1-2.2,0.5-4.5,1.2-6.7c1.7-5.7,2.4-10.1,2.5-14.4
			c0-2.8-0.5-5.6-1.2-8.2c-0.2-1-1.5-2.1-2.6-2.4c-0.9-0.2-2.2,1.1-2.7,1.6c-0.6,0.6-1,1.3-1.5,1.9c-0.4,0.5-0.7,1.1-1.1,1.6
			c-3.1,3.7-6.3,5.3-10,5.2c-0.7,0-1.2-0.2-1.3-0.6c-0.1-0.3,0-0.7,0.4-1.2c0.9-1.1,2-2.1,3.1-2.7h0c1.8-1,3.6-1.9,5.4-2.8
			c0.5-0.2,1-0.5,1.5-0.7c4.2-2,8.3-4.7,9.4-9.9c0.4-1.8,0.5-3.8,0.6-5.6c0-0.7,0.1-1.3,0.1-1.9c0.1-0.8,0.1-1.5,0.1-2.3
			c0-1.4,0-2.8,0.3-4C428.4,78,428.5,72.6,427.4,67.1L427.4,67.1z M246.7,103.8c0.2,0,0.4,0,0.6,0c0.9,0,1.9-0.1,2.2-1.3
			c0.3-1.3-0.7-1.7-1.4-2c-0.2-0.1-0.3-0.1-0.5-0.2c-0.7-0.4-1.5-0.7-2.2-1.1c-2.1-1.1-4.3-2.2-6.6-3c-2.9-1.1-6.1-1.1-9.5-0.1
			c-4.1,1.2-5.9,0.5-8.2-3.2c-1.5-2.5-3.4-5.1-6.3-6.7l0.1,0c0.5,0.1,1,0.2,1.5,0.3c7.2,2,12.9,4.1,17.9,6.7
			c3.5,1.7,7.1,3.2,10.7,4.6c0.8,0.3,1.6,0.6,2.5,1c7.7,3.1,14.8,7.8,22.6,14.9c3.5,3.2,7.7,6.9,12.7,10.1c2,1.3,3.9,3,5.7,4.6
			l0.9,0.8c0.5,0.4,0.8,1,1.1,1.6c0.1,0.2,0.3,0.5,0.4,0.7l-0.1,0.2c-0.1,0-0.3,0-0.4-0.1c-0.4,0-0.7-0.1-1-0.2
			c-3.8-1.5-7.5-2.9-11.3-4.4c-3.5-1.4-6.9-2.7-10.4-4c-1.9-0.7-3.3-2-4.3-3.7c-0.4-0.7-0.8-1.4-1.1-2.1c-0.8-1.5-1.6-3.1-2.6-4.5
			c-1.8-2.8-4.7-4.7-8.6-5.7c-2.7-0.7-5.7-1.3-9.4-1.9c-2.3-0.4-3.7-0.8-4.8-1.9c0.8-0.7,1.7-0.5,2.6-0.3l0.1,0
			c2.1,0.4,4.2,0.7,6.3,1.1C246.1,103.8,246.4,103.8,246.7,103.8z M248.6,93.5c1.3-0.9,1.7-2.6,1-4c-0.8-1.4-1.6-3-2.9-4
			c-4.9-3.9-9.1-6-13.6-7c-1-0.2-2-0.4-2.9-0.5c-0.6-0.1-1.2-0.2-1.8-0.3c-0.3-0.1-0.6-0.2-1-0.3c-0.1,0-0.1,0-0.2-0.1
			c1.5-1,3-0.9,4.1-0.7c1.5,0.3,3,0.8,4.4,1.2c0.6,0.2,1.2,0.4,1.8,0.6c0.5,0.1,0.9,0.3,1.4,0.5c1,0.3,2,0.7,3.1,0.9
			c4.9,0.8,8.8,3.3,11.8,7.5c1.2,1.7,2.4,3.6,3.6,5.3c1,1.6,2.1,3.3,3.2,4.9c0.6,0.9,1.5,1.7,2.7,2.5c0.7,0.4,1.4,0.6,2.1,0.3
			c0.7-0.3,1.2-0.9,1.4-1.6c0.3-1,0.3-2.1,0.2-3.3c-0.6-4.1-2.8-7.6-6.9-11c-3.4-2.7-6.6-5.4-9.4-7.7c-0.3-0.3-0.6-0.6-0.9-0.9
			c-0.1-0.1-0.1-0.2-0.2-0.2c0.1,0.1,0.3,0.2,0.4,0.3c0.5,0.3,1,0.7,1.5,1c3.8,2.7,7.8,5.5,12.8,6.2c1.5,0.2,2.9,0.4,4.3,0.6
			c1.3,0.2,2.7,0.4,4,0.6c4.1,0.6,7.5,2.6,10.1,6.2c3.6,4.8,7.7,8.6,12.6,11.6c4.5,2.8,7.3,6.4,8.2,10.8c0.2,1.1,0.3,2.3,0.2,3.7
			c-0.1,1.9-1.3,3.2-3.3,3.5c-2.3,0.4-4.7,0.8-7,1.1c-1,0.1-1.9,0.3-2.9,0.4c-0.4,0.1-0.8,0.1-1.2,0.2l-0.9,0.1
			c-3.1,0.4-5.6-0.3-7.7-2.2c-3.4-3.1-6.9-6.1-10.3-8.9l-0.4-0.3c-8.5-7.2-16.2-11.9-24.4-15c-3.2-1.2-6.3-2.6-9.3-4
			c-2.6-1.2-5.2-2.4-7.9-3.5c-4.9-2-10.7-4-17.1-4.7c0,0-0.1,0-0.1,0c2.7-1.5,5.5-1.6,8.2-1.6c5.1,0.1,9.8,1.9,14.3,3.7
			c1.1,0.4,2.2,0.9,3.3,1.3c1.4,0.5,2.6,1.6,3.8,2.6c0.3,0.2,0.6,0.5,0.9,0.7c0.7,0.5,1.3,1.2,1.9,1.8c0.4,0.5,0.9,0.9,1.3,1.4
			C245.9,94.2,247.3,94.4,248.6,93.5z M366,4.2c0.5,3.3,2.9,5.1,5.4,6.6c1.2,0.7,2.2,1.3,3.1,1.9c1.7,1.1,1.9,2.1,1,3.7
			c-1.6,2.7-3.3,5.3-5.2,7.6c-2.2,2.7-4.5,5.5-6.7,8.1c-1.7,2-3.4,4.1-5.1,6.1c-0.7,0.8-1.3,1.9-1.8,3.2c-0.3,0.9-0.2,1.7,0.3,2.3
			c0.5,0.6,1.3,0.7,2.2,0.5c0.9-0.3,1.8-0.8,2.5-1.4c0.9-0.7,1.9-1.5,2.8-2.2c1.1-0.9,2.2-1.8,3.4-2.7c2.8-2.1,5.1-4.8,6.9-8.2
			c1.2-2.2,2.6-4.4,3.8-6.2c0.3-0.4,0.7-0.8,1.2-1.2c0.2-0.1,0.3-0.3,0.5-0.4c1,1.2,1.2,2.7,0.7,4.5c-0.4,1.4-1.2,2.8-2.3,4.4
			c-1.8,2.5-3.8,5.9-4.2,10.1c0,0.5-0.1,0.9-0.1,1.4c-0.1,1.4-0.2,2.9-0.6,4.3c-0.4,1.8-1,3.8-2,5.3c-3,4.3-5,9.2-6.4,15.5
			c-1.2,5.2-3.4,9.1-6.8,11.9c-2.5,2.1-4.4,4.8-6.2,7.5c-0.8,1.2-1.6,2.4-2.5,3.5c-0.9,1.1-1.9,2.1-2.8,3c-1.7,1.6-3.8,1.9-6.2,0.9
			c0.4-7.9,2.4-15.5,4.4-22.8c0.2-0.9,0.5-1.7,0.7-2.6c1.1-4.3,2.2-8.7,3.2-12.9c1.2-5.1,2.5-10.3,3.9-15.4
			c3.2-11.7,7.4-23.6,12.5-35.3c0.1-0.3,0.3-0.6,0.4-0.9C365.8,4.2,365.9,4.1,366,4.2C365.9,4.1,366,4.2,366,4.2z M324,66.8
			c0.5-0.7,0.4-2.2,0-3.1c-0.6-1.2-1.7-2.2-2.5-2.8c-0.9-0.7-1.8-1.3-2.8-1.8c-0.9-0.6-1.9-1.2-2.8-1.9c-1.1-0.9-2.6-2-3.6-3.4
			c-1.9-2.5-4.3-4.8-7.5-7.1c-1.8-1.3-2.1-2.2-1.5-4.4c1-3.2,3.1-5.7,6.6-7.6c1.5-0.9,2.7-0.6,3.8,0.8c0.9,1.1,1.6,2.3,2.3,3.5
			l0.2,0.4c3.4,5.8,7.1,10.2,11.2,13.7c1.7,1.4,4,2.2,6.5,2.3c1,0,1.7-0.2,2.1-0.7c0.4-0.5,0.5-1.2,0.3-2.1
			c-0.3-1.2-0.8-2.4-1.6-3.8c-2.7-4.5-5.5-9.3-8.6-14.1c-1.2-1.9-2.6-3.6-4.1-5.3l-0.1-0.2c-1.3-1.6-1.7-3.4-1-5.5
			c0.2-0.6,0.9-1.2,1.4-1.4c2-1,4.1-1.9,6.1-2.7c0.8-0.3,1.6-0.7,2.4-1c1.1-0.5,1.7-0.6,2.1-0.4c0.4,0.2,0.6,0.8,0.8,1.9
			c0.1,0.7,0.2,1.5,0.3,2.2c0.1,0.9,0.2,1.8,0.3,2.7c0.7,4.5,2.7,8.5,6,11.9c0.4,0.4,0.9,0.8,1.5,1.1c0.7,0.4,1.4,0.4,2,0.1
			c0.7-0.3,1.2-1.1,1.3-2c0.9-5-0.5-9.7-1.9-14.2l-0.3-1.1c-0.5-1.8-1.1-3.7-1.4-5.6c-0.2-1.5,0-2.8,0.8-3.6
			c0.7-0.9,1.9-1.3,3.3-1.2c6.5,0.2,12.1-1.5,16.9-5.2c-0.5,1.2-1,2.4-1.4,3.7c-1.3,3.2-2.6,6.4-3.7,9.7c-2.7,7.5-5.8,16.3-8,25.4
			c-1.5,6.1-3.1,12.4-4.7,18.4c-1.2,4.4-2.4,9-3.5,13.6l-0.2,0.9c-1.3,5-2.6,10.3-2.6,15.6c0,1-0.7,1.3-1.4,1.7
			c-0.2,0.1-0.4,0.2-0.6,0.4c-2.8,1.8-5.9,2.6-9.8,3.2c-4.5,0.7-9.8,1.4-15-0.4c-6.1-2.1-10.1-5.3-12-9.7c-3.2-7.4-5.7-13.9-7.4-20
			c-1.6-5.6-1.3-11.2,0.9-16.2c1-2.3,2-3.5,3-3.7c0.1,0,0.2,0,0.3,0c0.9,0,2,0.7,3.5,2.2c0.9,0.9,1.7,1.9,2.5,2.9
			c0.7,0.9,1.5,1.9,2.4,2.8c1.7,1.8,3.6,3.5,5.2,4.9c1.1,0.9,2.3,1.9,3.4,2.8c1,0.8,2,1.6,3,2.4c1.3,1.1,2.8,2.1,4.7,2.1
			C322.1,67.8,323.5,67.5,324,66.8z M338.2,154.1c0-2.6,0.7-5.1,1.5-7.5c0.6-1.9,1.2-3.9,1.4-5.9C343,145.2,342.1,149.4,338.2,154.1
			z M404.4,112.6c-0.6,1.1-0.6,2.3-0.1,3.2c0.5,1,1.5,1.6,2.8,1.7c3.6,0.3,6.7-0.7,9.1-2.9c1.5-1.3,2.8-2.8,4-4.3
			c0.5-0.6,1-1.2,1.6-1.8c0.3-0.3,0.5-0.6,0.8-1c0.1-0.1,0.2-0.2,0.3-0.3c1.1,1.3,1.3,2.8,1.4,4.2l0,0.3c0.6,5.5-0.6,10.9-1.8,16
			c-0.7,2.9-1.4,5.9-1.7,9c-0.4,3.7-1.8,7.1-4.3,10.9c-0.6,1-1.3,1.9-2,2.9c-1,1.3-1.9,2.7-2.8,4.1c-1.2,2-2.6,4.3-3.3,6.7
			c-0.6,1.9-1.8,3.4-3,4.8c-0.6,0.7-1.2,1.5-1.8,2.3c-0.1,0.1-0.4,0.2-0.7,0.1c-5.2-0.6-10.3,0.6-15.2,1.8c-0.6,0.1-1.2,0.3-1.8,0.4
			c-1.4,0.3-2.8,0.7-4.1,1.1c-1,0.3-2.1,0.6-3.2,0.9c-0.4,0.1-0.9,0-1.3-0.2c-4.6-2.4-6.6-6.7-7.9-10.6c-1.6-4.8-1.7-9.7-1.4-15.5
			c0.2-3.8,1.5-7.1,4-10.2c3.1-3.9,6.3-7.8,9.3-11.6c2.3-2.9,4.7-5.9,7-8.8c6.7-8.3,13.6-16.8,19.1-26.4c2.3-4,5.7-7.3,8.9-10.4
			l0.6-0.6c2.7-2.6,5.3-5.5,6.1-9.6c0.2-1,0.3-1.9,0.4-2.9c0-0.4,0.1-0.8,0.1-1.1c0.6,0,0.8,0.4,1,1.2l0,0.2
			c1.2,5.6,1.3,10.4,0.4,15.1c-0.4,1.8-0.4,3.6-0.5,5.4c0,0.9-0.1,1.8-0.1,2.7c-0.1,0.7-0.1,1.3-0.1,2c-0.1,1.7-0.2,3.4-0.5,5.1
			c-0.9,4.5-4.3,6.6-8.4,8.7c-3.1,1.6-6.1,3.3-9.1,5.1C405.4,110.8,404.8,111.9,404.4,112.6z M311.9,259.2c-1.7-0.1-3.2-0.1-4.8-0.3
			c-2.5-0.3-5.1-0.6-7.5-1c-0.9-0.1-1.9-0.3-2.8-0.4c-0.2,0-0.4-0.1-0.6-0.2c-0.3-0.2-0.6-0.5-1-0.8c-0.1-0.1-0.1-0.1-0.2-0.2
			c0.1-0.1,0.2-0.2,0.2-0.3c0.3-0.3,0.5-0.6,0.8-0.7l0.8-0.2c2.3-0.5,4.6-1,6.9-1.2c2-0.2,3.9-0.1,6-0.1c0.8,0,1.7,0,2.5,0l1.7,5.3
			C313.2,259.2,312.5,259.2,311.9,259.2z M199.4,138.2c0.9-0.8,1.7-1.6,2.5-2.4c1.8-1.7,3.5-3.4,5.7-4.4c3.9-1.8,7.4,0.1,9.7,2
			c3.4,2.8,7,5.4,10.5,7.5c1.5,0.9,3.3,1.3,5,1.6c0.4,0.1,0.8,0.2,1.3,0.3c1.2,0.3,2.7,0.1,3-1.3c0.2-1-0.2-2.2-0.8-2.9
			c-0.8-1-1.7-1.9-2.6-2.7c-0.6-0.5-1.1-1.1-1.7-1.7c-0.3-0.3-0.5-0.8-0.7-1.2c2.1,0.7,4.4,1.7,6,3.8c2.5,3.3,5.9,5.5,10.6,6.6
			c4.4,1.1,8.4,3.4,12.2,7.1l0.1,0.1c1.3,1.3,2.6,2.6,4.1,3.7c0.9,0.7,1.9,1.3,3,1.6c0.8,0.3,1.7,0.1,2.2-0.5
			c0.5-0.5,0.7-1.3,0.4-2.1c-0.3-0.9-0.9-1.8-1.4-2.6c-0.2-0.4-0.4-0.7-0.6-1.1c-0.1-0.2-0.2-0.4-0.4-0.6l-0.1-0.1l0.1-0.1
			c0.3,0.1,0.5,0.3,0.8,0.4c0.7,0.4,1.5,0.7,2.2,1.2c0.8,0.5,1.5,1.2,2.1,1.9c2.1,2.4,4.8,3.8,8.1,4.3c3,0.4,5.5,1.9,7.9,4.9
			c1.2,1.4,2.6,2.7,4,3.9c0.6,0.6,1.3,1.2,1.9,1.8c1.9,1.8,4,3.8,6.1,5.9c1.2,1.1,2.3,2.3,3.4,3.5l1,1c0.3,0.3,0.6,0.6,0.8,0.9
			c-3.2-1.1-6.5-1.3-9.8-1.3c-0.4,0-0.8,0-1.1,0l-0.5,0c0,0-0.1,0-0.1,0c-7.1,0-13.5-2.8-19.4-8.4c-2.5-2.4-4.9-4.1-7.6-5.2
			c-1.2-0.5-2.3-1.2-3.3-1.9c-0.8-0.5-1.6-1-2.4-1.5l-0.4-0.2c-1.7-0.9-3.5-1.9-5.4-2.4c-3.1-0.9-5.7-2.3-7.9-4.5
			c-3.2-3.1-7.1-4.5-12.9-4.6c-1,0-1.9,0-2.9,0c-2.5,0-5-0.1-7.5-0.3c-5-0.5-8.9-3.3-12-6.1c-0.1-0.1-0.2-0.1-0.2-0.2
			c-0.2-0.2-0.4-0.3-0.5-0.5c-3.8-4.3-8.8-3.7-12.2-2.9C199.6,138.2,199.5,138.2,199.4,138.2z M234.5,150.5c2.1,0.2,4.3,0.5,6.3,1
			c1.4,0.3,3,1.2,4.4,2.4c2.8,2.4,6.1,4.8,10.2,5.9c1.5,0.4,2.9,1.2,4.2,2c0.5,0.3,1,0.6,1.6,0.9l0.8,0.4c1.8,1,3.7,2,5.5,3.1
			c2,1.3,3.6,2.5,5,3.7c4.1,3.7,8.6,7.4,14.4,8.6c2.5,0.5,5.1,0.7,7.6,0.8c1.1,0.1,2.3,0.1,3.4,0.3l3.7,0.3c-0.3,0-0.6,0-0.9,0
			c-2,0-4,0-6,0c-2,0.1-4,0.3-6,0.5l-0.9,0.1c-3,0.3-5.3-1.1-7.6-2.8c-1.5-1.1-3.2-2.1-4.7-3.1c-1.3-0.8-2.6-1.7-3.9-2.6l-0.2-0.2
			c-1.4-1-2.9-2-4-3.2c-3.4-3.9-6.8-5.8-10.9-6.2c-4.9-0.4-9.1-2.9-12.6-5.1c-2.7-1.8-5.5-3.5-8.3-5.1c-1-0.6-2.1-1.2-3.1-1.9
			C233.3,150.4,233.9,150.4,234.5,150.5z M291,182.7c1.1-0.1,2.2-0.3,3.3-0.4c2.9-0.4,6.7-0.7,10.5,0.4c0.7,0.2,1.3,0.5,1.9,0.9
			c0.5,0.3,0.9,0.5,1.4,0.7c0.5,0.2,1,0.3,1.5,0.4c0.2,0,0.4,0.1,0.6,0.1c0.1,0,0.1,0,0.2,0c0.1,0,0.1-0.1,0.1-0.2
			c0-0.2,0.1-0.4,0.1-0.6c0.1-0.5,0.2-0.9,0.1-1.4c-0.1-0.5-0.3-1-0.5-1.5c0-0.1-0.1-0.2-0.1-0.3c0.2,0,0.3,0.1,0.5,0.1
			c1.3,0.2,2.4-0.1,3-0.9c0.6-0.8,0.6-1.8,0-2.9c-0.9-1.8-2.1-3.4-3.5-5.2c-1.1-1.4-2.2-2.7-3.2-4c-1.4-1.7-2.8-3.4-4.2-5.2
			c-0.8-1-1.4-2.4-1.9-4.1c-0.9-3-0.1-5.3,2.7-7.2c6.6,8.1,14.5,32.6,13.3,41.1c-0.6-0.2-1.2-0.5-1.7-0.7c-1.6-0.7-3.1-1.3-4.7-1.9
			c-1.3-0.4-2.7-0.7-4.5-0.8c-1.6-0.1-3.1,0.9-3.5,2.2c-0.4,1.5,0.2,2.8,1.5,3.5c1.6,0.9,3.3,1.6,5,2.3c0.5,0.2,0.9,0.4,1.4,0.6
			c0.3,0.1,0.7,0.2,1,0.3c0.2,0,0.4,0.1,0.5,0.1c1.3,0.4,2.2,0.8,3,2.1c0.7,1.2,2.3,2,3.5,2.6c0.7,0.4,1.1,0.7,1.2,1.4
			c0.1,1.2,0.2,2.4,0.3,3.6c0.2,2,0.3,4.1,0.5,6.1c0,0.2-0.1,0.5-0.1,0.6l-0.8,0.6c-3.2,2.3-6.2,4.5-10.3,4.4c-1,0-1.4-0.3-1.8-1.1
			c-4.2-8.7-8.8-18.1-14-28.8c-0.7-1.5-1.5-3-2.4-4.6c-0.3-0.6-0.7-1.3-1-1.9L291,182.7z M320.7,168.1l0.1-0.3
			c1.1-7,1-13.9,0.7-19.9c-0.1-2.4-0.2-4.8-0.2-7.2c0-0.9,0-1.9,0-2.8c0-0.5,0.1-0.8,0.3-1c0.2-0.2,0.6-0.3,1.2-0.2
			c1.1,0.2,2.2,0.4,3.3,0.6c2.7,0.4,5.5,0.9,8.3,1.5c2.1,0.5,2.6,2.5,3,4.5l0,0.1c0.4,1.6,0.1,3.2-0.9,4.5c-1.2,1.7-2.4,3.4-3.7,5
			c-0.7,0.9-1.4,1.8-2,2.8l-0.3,0.4c-1.9,2.6-3.8,5.2-4.4,8.5l0,0.1c-0.1,0.6-0.2,1.3,0,1.8c0.6,1.2,1.2,1.8,1.8,2
			c0.8,0.2,2.1-0.1,2.7-0.8l1.6-2.1c3.5-4.4,7.1-9,10.4-13.8c2.3-3.4,2.6-7.5,0.8-12.1c-0.1-0.4-0.2-0.8-0.2-1.2c0-0.1,0-0.2,0-0.3
			c0.2,0,0.3,0,0.5,0c0.5,0,1.1,0,1.4,0.2c0.9,0.6,2.2,1.7,3,2.9c1.1,1.8,2,3.7,2.8,5.6c0.9,2.3,0.8,4.6-0.5,6.8
			c-2.7,4.8-6.2,9.6-10.9,14.5c-2.7,2.8-5.2,5.9-7.7,8.9l-1.3,1.6c-0.4,0.5-0.6,1.1-0.9,1.8c-0.1,0.3-0.2,0.6-0.3,0.9
			c-3.3,0.4-5.7,1.7-7.5,3.9c-0.2-0.8-0.4-1.6-0.6-2.4c-0.5-2.2-1-4.3-1.2-6.5C319.8,173.6,320.3,170.8,320.7,168.1z M328.6,166.3
			C328.6,166.3,328.6,166.3,328.6,166.3c-0.4-1.1-0.2-2.2,0.5-3.4c1.6-2.5,3.2-5,4.9-7.4c0.6-0.9,1.2-1.8,1.8-2.7l0.1,0.1
			c0,0.3,0,0.7,0,1c0,1,0,2,0,3c0,0,0,0,0,0c0,0.3-0.2,0.7-0.4,1c-2.1,2.7-4.2,5.3-6.5,8.1C328.9,166.1,328.8,166.2,328.6,166.3z
			 M313.8,196.6l-1.5-0.6c-2.2-0.9-4.4-1.8-6.6-2.7c-0.2-0.1-0.5-0.3-0.6-0.4l-0.1-0.1c-0.1-0.2-0.5-0.7-0.4-0.8
			c0.1-0.2,0.6-0.6,0.9-0.6c0.2,0,0.4,0,0.6,0c0.8,0,1.5,0.1,2.2,0.3c1.6,0.6,3.3,1.3,4.9,1.9c0.6,0.2,1.2,0.5,1.8,0.7L313.8,196.6z
			 M314.6,227l0.5,6.5C313.5,231.1,313.3,229.1,314.6,227z M329.6,217.2c-0.9,4.2-1.9,8.7-3,13.1v-17.9c0.2,0.2,0.4,0.4,0.5,0.7
			c0.9,1.1,1.7,2.2,2.5,3.2C329.8,216.5,329.7,217,329.6,217.2z M329.8,212.7c-1.1-1-2.2-2-3.2-2.9c-0.2-0.2-0.3-0.3-0.3-0.5
			c-0.4-1.5-0.8-3.1-1.2-4.7l-0.3-1.3h7.7l-1.9,10L329.8,212.7z M322.9,217c-0.2-1.3,0.2-2,1.3-2.6c0,0.5-0.1,1.1-0.1,1.6
			c-0.1,1.5-0.2,2.8-0.1,4.2c0.1,3.2,0.3,6.4,0.5,9.5c0.2,3.7,0.4,7.6,0.6,11.4c0.1,3.7,0.2,7.5,0.2,11.2c0,1.8,0,3.5,0,5.3
			c0,0.2,0,0.3,0.1,0.5c0,0.2,0.1,0.4,0,0.6c0,0.2-0.1,0.4-0.3,0.7c0,0,0,0,0,0c0,0,0,0-0.1-0.1c-0.2-0.2-0.4-0.4-0.4-0.5
			c-0.2-2-0.4-3.9-0.5-5.6c-0.1-1.2-0.1-2.5-0.2-3.7c-0.3-4.6-0.6-9.3-0.7-14c-0.1-2.3,0-4.7,0.1-6.9c0-1.6,0.1-3.2,0.1-4.7
			C323.3,221.3,323.2,219.1,322.9,217z M321.7,203.2c0.1,0.1,0.1,0.1,0.2,0.2c0.2,0.2,0.5,0.4,0.5,0.6l0.3,0.9
			c0.5,1.9,1.1,3.8,1.3,5.7c0.1,0.4-0.4,0.9-0.8,1.4c-0.2,0.2-0.4,0.4-0.5,0.6l-0.1,0l-1.1-9.2L321.7,203.2z M330.7,237.5
			c0,0.7,0.1,1.5,0.1,2.2c0,0.8-0.1,1.7-0.1,2.6c-0.1,1.1-0.2,2.3-0.1,3.4c0.2,2.1,0,4.2-0.3,6.2c-0.3,2.5-0.7,5-0.1,7.6H328
			c0-0.7,0-1.3,0-2c0-1.6,0-3.2,0-4.7c-0.3-6.9-0.2-12.6,0.5-17.9c0.3-2.3,1.2-4.3,2.8-6.1C330.4,231.7,330.6,234.7,330.7,237.5z
			 M312.5,234.7c0.1-0.3,0.1-0.7,0.1-1h0c3.8,8.1,7.7,16.4,9,25.7l-0.4,0c-0.4,0-0.7,0-1.1,0c-0.5,0-0.9,0-1.2,0c-0.3,0-0.5,0-0.7,0
			c-2.4,0-2.4,0-2.9-2.5c-0.1-0.4-0.2-1-0.3-1.6c-1-4.9-1.7-9.9-2.3-14.8c-0.1-1.1-0.3-2.1-0.4-3.2
			C312.2,236.4,312.3,235.6,312.5,234.7z M334.1,228.6c0.1-0.2,0.1-0.3,0.2-0.5c0.3-0.7,0.5-1.4,0.6-2.1c0.1-0.6-0.1-1.7-0.6-2
			c-0.5-0.3-1.6,0-2.1,0.3c-0.8,0.6-1.5,1.2-2.1,1.8c0,0-0.1,0.1-0.1,0.1l1.8-7.6l6.2,3.1l-4.9,15.8
			C332.6,234.5,333,231.5,334.1,228.6z M320.6,216.7c0,0.4,0.1,0.7,0.1,1c0.1,1,0.2,1.8,0.2,2.6c0,1.9,0,3.9-0.1,5.8
			c-0.1,3.1-0.1,6.2-0.1,9.4c0.1,2.9,0.3,5.8,0.5,8.6c0.1,1.3,0.2,2.6,0.3,3.9c0,0.1,0,0.3,0,0.4c-1.2-3-2.3-5.8-3.4-8.6
			c-0.1-0.2-0.1-0.3-0.1-0.5c-0.1-0.9-0.2-1.9-0.3-2.8c-0.3-2.5-0.5-5-0.7-7.5c-0.1-1,0-1.9,0-2.9c0-0.9,0.1-1.8,0-2.6
			c0-0.5-0.3-1-0.6-1.4c-0.1-0.2-0.2-0.4-0.3-0.6c0-0.1-0.1-0.1-0.2-0.1c0,0,0,0-0.1,0c0,0-0.1,0-0.1,0c-0.2,0.1-0.4,0.2-0.6,0.3
			c-0.5,0.3-1,0.5-1.2,1c-0.6,1.1-1.1,2.2-1.6,3.4c-0.1,0.3-0.3,0.7-0.4,1l-3-5.5C313.4,221.5,317.1,219.9,320.6,216.7z M343.8,259
			c-2.2,0.1-4.5,0.3-6.8,0.6l1.1-4.5c1,0,2,0,2.9,0c5.1-0.1,9.9-0.1,14.4,2.5C351.6,258.6,347.8,258.8,343.8,259z M337.1,240.6
			c-0.1,1.6-0.2,3.1-0.2,4.7c-0.1,2.1-0.2,4.4-0.4,6.5c-0.2,1.8-0.7,3.5-1.2,5.3c-0.2,0.8-0.5,1.6-0.7,2.4h-2.6
			c0.1-0.8,0.2-1.6,0.2-2.4c0.2-1.9,0.3-3.8,0.6-5.6c0.9-6.4,2.5-13.2,5.1-21.5c0.3-0.9,0.7-1.5,1.6-1.7c-0.1,0.4-0.2,0.7-0.3,1.1
			c-0.3,1.1-0.7,2.2-0.9,3.3C337.7,235.6,337.3,238.2,337.1,240.6z M338.7,219.1c-0.3,0.1-0.7,0.1-1.2-0.2c-1.5-0.7-2.8-1.7-4.2-2.6
			l-0.7-0.5c-0.1-0.1-0.2-0.5-0.1-0.7c0.3-1.8,0.7-3.7,1-5.5c0.4-2.1,0.8-4.2,1.1-6.2c0.1-0.7,0.5-0.7,1-0.8c0.1,0,0.2,0,0.3,0
			c0.9-0.1,1.8-0.2,2.7-0.2c2.6,0,5.1,0.4,7.8,0.9c0.4,0.1,0.9,0.1,1.3,0.2c-0.3,0.5-0.7,1-1,1.4c-0.9,1.2-1.7,2.4-2.4,3.7
			c-1.9,3.4-3.4,6.4-4.7,9.2C339.5,218.6,339.2,219,338.7,219.1z M349,206.3c2.5-2.9,5.5-5.4,8.4-7.8c4.4-3.7,9-7.6,14-11.3
			c3.3-2.5,6.9-4.5,10-6.2c0.9-0.5,2.1-0.7,3.2-0.8c0.3-0.1,0.7-0.1,1-0.2c-2.4,3.9-5.8,6.4-11.2,8.4c-0.2,0.1-0.4,0.1-0.6,0.2
			c-0.3,0.1-0.6,0.3-0.9,0.3c-5.1,1.2-7.7,5.1-9.7,8.7c-2.5,4.5-5,8.9-7.7,13.2c-2.9,4.8-7.9,6.6-11.9,7.7c-0.4,0.1-0.8,0.2-1.2,0.2
			c-0.1,0-0.2,0-0.3,0.1C344,213.8,346.1,209.7,349,206.3z M364.1,190c-2.2,1.9-4.5,3.7-6.7,5.4c-1.2,0.9-2.4,1.9-3.6,2.9
			c-0.5,0.4-1.1,0.9-1.6,1.3c-0.6,0.6-1.3,1.1-2,1.7c-0.3,0.3-0.9,0.4-1.3,0.3c-3.4-1-6.8-1.4-10-1.4c-2.6,0-5,0.2-7.3,0.5
			c-2.9,0.3-5.9,0.2-8.8,0c-1-0.1-2.1-0.1-3.1-0.1c-0.6,0-1.3-0.4-1.9-0.7c-0.9-0.5-1.4-1.2-1.5-2c-0.1-0.7,0.2-1.4,0.8-2
			c2.5-2.5,4.3-5.4,5.9-8.2c2.5-4.4,8.4-4.9,12.7-3.1c0.4,0.2,0.9,0.9,1,1.4c0.4,2.2,1.6,3.9,3.9,5.5c2,1.4,4.2,2.7,6,3.8
			c0.8,0.5,1.7,0.9,2.4,1.1c1.5,0.4,2.6,0.1,3-0.9c0.4-0.9,0.4-2,0.4-3c0-0.5-0.5-1-0.9-1.5l-0.3-0.3c-2.4-2.6-4.8-5.2-8.3-6.5
			c-0.2-0.1-0.3-0.2-0.4-0.3c0,0-0.1-0.1-0.1-0.1l0-0.1c0.2,0,0.3-0.1,0.5-0.1c0.5-0.1,1-0.3,1.4-0.3c0.8,0,1.6,0,2.4,0
			c0.5,0,1,0,1.4,0c2,0,3.8-0.7,5.7-1.8c1.8-1,3.5-1.7,5.6-1.9c-0.1,0.1-0.1,0.2-0.2,0.3c-0.3,0.4-0.5,0.7-0.6,1.1
			c-0.1,0.2-0.2,0.4-0.3,0.7c-0.4,0.8-0.8,1.6-0.9,2.5c-0.1,0.8,0.2,1.5,0.7,1.9c0.6,0.5,1.4,0.6,2.2,0.3c1.8-0.6,3.2-2,4.2-4
			c1.1-2.3,2.9-3.5,5.7-4.1c1.9-0.4,4.2-0.8,6-1.8c4.2-2.2,8.5-3.3,11.9-3.9c1-0.2,1.9-0.4,2.9-0.6c3.3-0.7,6.7-1.5,10.1-1.2
			c1,0.1,2,0.2,3,0.3c0.2,0,0.5,0.1,0.7,0.1c-0.3,0-0.6,0-0.8,0.1c-1.1,0.1-2.3,0.2-3.4,0.4l-0.8,0.2c-2.2,0.4-4.6,0.9-6.7,1.7
			c-4,1.5-9.2,3.6-14.2,6C373.3,182.1,368.7,186,364.1,190z M378.1,117.4c-0.1-2.7,0.3-5.3,1.3-8.1c0.6-1.7,1.2-3.5,1.7-5.2
			c0.9-2.7,1.8-5.5,2.9-8.1c0.9-2.2,2.5-4.4,4.2-5.9c4.1-3.5,7.3-7.6,9.5-12.3c-0.3,1-0.5,2.1-0.7,3.1c-0.3,2.1-0.2,4.3,0,6.4l0,0.4
			c0,0.5,0.5,0.9,0.9,1.3c0.2,0.2,0.3,0.3,0.5,0.5c0,0.1,0.1,0.1,0.2,0.1c0.1,0,0.1,0,0.2-0.1c0.1-0.2,0.3-0.3,0.5-0.4
			c0.4-0.3,0.8-0.7,0.9-1.1c0.9-2.5,1.7-5,2.6-7.5c1-2.9,2-5.9,3.1-8.9c0.6-1.7,1.3-3.4,2-5c0.6-1.5,1.3-3.1,1.9-4.7
			c0.5-1.3,0.8-2.7,1.2-4c0.2-0.6,0.3-1.3,0.5-1.9c0-0.1,0.1-0.3,0.2-0.4c0.7,0.9,0.6,1.9,0.4,2.8c-0.2,1-0.6,2.1-0.8,3.1
			c-0.4,1.5-0.9,3-1.1,4.5c-0.8,4.1-2.1,8-3.5,11.8c-0.6,1.7-1.2,3.5-1.8,5.2c-0.2,0.5-0.1,1.2,0,1.7c0.3,0.8,0.7,1,1,1
			c0.3,0.1,0.8,0,1.3-0.6c4.3-4.9,7.7-9,8.9-14.9c0.4-2.1,1.3-4.1,2.1-6.1c0.3-0.8,0.7-1.6,1-2.4c0.2-0.5,0.4-0.9,0.7-1.4
			c0.1-0.1,0.2-0.3,0.3-0.4c1,1.2,1.2,2.6,1.3,4.2c0.2,4.5-1.5,8.3-5.2,11.8c-5.9,5.5-10.4,11.9-13.6,16.8
			c-3.9,5.9-8.3,11.6-12.6,17.1l-1.9,2.5c-3.2,4.1-6.4,8.2-9.6,12.1c-2.3,2.8-4.6,5.7-6.9,8.6c-1.8,2.3-3.2,4.2-4.4,6.4
			c-0.9,1.7-1.7,3.5-2.4,5.3c-0.3,0.7-0.6,1.5-0.9,2.2c-0.2,0.5-0.4,1.1-0.7,1.7l-0.2,0.6l-0.1,0c-0.1-0.2-0.1-0.4-0.2-0.7
			c-0.2-0.6-0.4-1.2-0.4-1.8c0-7.4,1.8-13.2,5.6-18c2.1-2.7,3.7-5,4.4-8c0.1-0.5,0.5-0.9,0.8-1.4c0.1-0.2,0.3-0.3,0.4-0.5
			c0.1,0.1,0.1,0.3,0.2,0.4c0.3,0.5,0.5,1,0.8,1.4c0.4,0.4,1.3,1,1.9,0.9c0.6-0.1,1.3-0.9,1.5-1.5
			C378.2,119.3,378.1,118.3,378.1,117.4z M340.7,188.5c2.9-1.7,3.2-1.7,5.8,1c-0.9,0.8-1.8,1.2-2.6,1.1
			C342.8,190.5,341.8,189.8,340.7,188.5z M348.3,190.9c0.1,0.2,0.3,0.4,0.4,0.5c0.5,0.6,1,1.2,1.4,1.9c0.1,0.1,0.1,0.5-0.1,0.7
			c-0.1,0-0.4,0-0.6,0c-0.8-0.4-1.6-0.8-2.5-1.3c-0.2-0.1-0.5-0.3-0.7-0.4L348.3,190.9z M365.5,149.1c-0.2,8.7,1,18.3,10,25.3
			l-7.8,2.2c-0.3-1-0.7-2.1-1-3.1c-0.9-2.7-1.7-5.3-2.6-7.9c-0.3-0.8-0.5-1.7-0.7-2.6c-0.2-0.9-0.4-1.8-0.7-2.7
			c-0.5-1.7-1.6-3-3.1-4c-0.8-0.5-1.5-0.7-2.1-0.7c-0.2,0-0.5,0-0.7,0.1c-0.8,0.2-1.5,0.9-2,2c-1.4,2.8-2.9,5.5-4.3,8.3
			c-1.5,2.9-3.4,4.8-6,5.9c3.5-6.1,7.8-11.7,12-17.1c1.3-1.6,2.5-3.3,3.8-5c0.9,1.3,1.7,2.1,2.5,2
			C363.8,151.8,364.5,150.8,365.5,149.1z M352.4,167.5c1.4-2.5,2.7-5.1,3.9-7.6l0.3-0.7c0.4-0.7,0.7-1.1,0.9-1.1
			c0.3,0,0.6,0.2,1.2,0.6c0.8,0.8,1.5,1.7,1.8,2.6c1.1,3.6,2.2,7.3,3.2,10.8c0.4,1.4,0.8,2.7,1.2,4.1c0.3,1,0.1,1.7-0.7,2.4
			c-0.6,0.5-1.1,1.3-1.5,2c-0.1,0.2-0.3,0.4-0.4,0.6l-0.1,0.1c-0.6,1-1.3,2-2.5,2.4c0-0.1,0.1-0.2,0.1-0.3c0.3-0.6,0.6-1.1,1-1.7
			c0.5-0.7,1.4-2.3,0.3-3.4c-0.7-0.7-2.1-1.1-3.1-0.9c-2.1,0.4-3.8,1-5.3,1.8c-2.4,1.4-4.9,1.9-7.7,1.7c-1-0.1-2.1,0-3,0.3
			c-1.3,0.4-2.2,1-2.4,1.9c-0.2,0.8,0.1,1.8,0.9,2.7l-1.6,0.7c-0.6-1.9-1.1-3.7,0.1-5.5c0.2-0.3,0.4-0.6,0.5-0.9
			c1.4-3.7,3.5-5.8,6.8-6.8C349.4,172.5,351.1,170,352.4,167.5z M331.7,181.2l3.2-4.4l0.3,5L331.7,181.2z M313.5,161.8
			c0.4-0.5,1.1-0.8,1.6-0.8c0,0,0,0,0,0c0.6,0,1.1,0.2,1.5,0.6c0.6,0.6,1,1.6,1,2.7c0,0.7-0.2,1.3-0.5,1.6c-0.3,0.3-0.6,0.4-1.1,0.4
			c-1.3,0-2.8-2-2.9-3.8C313.1,162.4,313.2,162.1,313.5,161.8z M318.4,160.1c-1-0.6-1.9-1.1-2.9-1.3c-1.4-0.3-2.7,0.3-3.9,2
			l-6.2-11.2c5.4-3,9.9-6.9,13.4-11.6l0.6,22.7C319,160.5,318.7,160.3,318.4,160.1z M318.2,168.4c0,0.4-0.1,0.8-0.1,1.2
			c-0.1,1.2-0.2,2.5-0.4,3.7c-0.4,2.8,0.2,5.4,0.8,8l0,0.1c0.5,2.2,0.7,4.5,1,6.6c0,0.3-0.1,0.5-0.2,0.8l-4.3-20.2L318.2,168.4z
			 M282.6,182.2c0.4,0.1,0.8,0.1,1.1,0.2c1.2,0.2,2.2,0.3,3.2,0.5c0.3,0,0.6,0.3,0.7,0.6c5.3,11,10.7,22,16,33l0.7,1.5
			c0.1,0.3,0.3,0.6,0.4,0.9l0.1,0.3l-0.1,0.2c-0.7-0.2-1.3-0.4-2-0.6c-1.6-0.5-3.2-1-4.7-1.7c-6.4-2.8-10.9-8.1-13.8-15.9
			c-1.2-3.3-1.8-6.9-1.7-11.2c0-1.8,0-3.7,0-5.5L282.6,182.2z M348.9,261c1.6-0.1,3.1-0.3,4.7-0.4c1-0.1,1.9-0.4,2.9-0.8
			c0.4-0.1,0.7-0.3,1.1-0.4c0,0,0,0,0,0c0.1,0.3,0.1,0.7,0.1,1.1l0,0.6c0.1,5.1,0.3,10.3,0.4,15.4c0.1,4.5,0.1,9.4,0.2,15.8
			c0,1.4,0,2.8,0.1,4.1c0.1,3.6,0.1,7.4,0,11c-0.3,6.3-2.3,10.7-6.2,13.7c-3.3,2.5-7.1,3.3-10.4,3.7c-5.3,0.7-10.7,0.4-16,0.2
			c-2.6-0.1-5.3-0.2-8-0.2c-0.1,0-0.2,0-0.3,0c-4.6,0-9.4-0.7-14-2.1c-3.2-1-5.7-2.3-7.6-4.2c-2-1.9-3-4.2-3-6.8c0-15,0-27.3,0-38.6
			c0-4.1,0.2-8.3,0.3-11.8c0-0.7,0.2-1.3,0.3-2c0.1-0.2,0.1-0.5,0.2-0.7c3,1.5,6,1.9,8.9,2.1c3.7,0.2,7.5,0.4,11.2,0.5
			c3.5,0.1,7.1,0.3,10.7,0.5C332.6,262.3,340.9,261.7,348.9,261z M404,173.6c0.2,0,0.4,0,0.5,0c-4.5,2.1-9.8,4.1-16,4.2
			C394,175.4,398.8,173.6,404,173.6z M293.7,163.5c-0.3-0.3-0.5-0.6-0.8-0.9c-0.8-0.8-1.6-1.6-2.1-2.5c-0.2-0.3,0-0.9,0.1-1.5
			c0.1-0.2,0.1-0.4,0.1-0.6c0.1,0,0.1,0,0.2,0.1c0.2,0.1,0.6,0.1,0.6,0.2c0.6,1.3,1.2,2.6,1.7,3.9c0.2,0.4,0.3,0.7,0.5,1.1
			L293.7,163.5z"/>
		<path d="M395.9,130.3c-0.3,1.5,0.3,3.9,2.5,4.5c1.3,0.4,2.7,0.7,4,1c0.6,0.1,1.2,0.2,1.8,0.4c0,0,0,0,0.1,0c0.1,0,0.2-0.1,0.2-0.2
			l0,0l0.7-0.1c0.6-0.1,1.3-0.1,1.9-0.2c1-0.1,2.3-0.5,2.6-2c0.3-1.3-0.2-2.4-1.4-3.1c-2.9-1.7-5.7-2.6-8.5-2.6
			C397.8,127.9,396.3,128.9,395.9,130.3z M407.4,132.8l0,0.4c-0.3,0-0.6,0.1-0.9,0.1c-0.8,0.1-1.6,0.2-2.3,0.1c-2-0.3-4-0.8-5.4-1.2
			c-0.3-0.1-0.7-0.8-0.7-1c0-0.3,0.6-0.8,1-0.8c0.3,0,0.6,0,0.9,0C402.8,130.4,405.3,131.6,407.4,132.8z"/>
		<path d="M387.9,126.3c-0.3-0.1-0.6-0.1-0.9-0.2c-0.5-0.1-0.9-0.1-1.3-0.3c-1.4-0.8-2.2-0.1-2.8,0.6c-0.9,1.1-1,2.3-0.2,3.1
			c1,1.1,2.1,1.8,3.1,2.2c0.3,0.1,0.5,0.1,0.8,0.1c0.6,0,1.1-0.2,1.6-0.5c0.9-0.6,1.5-1.7,1.5-2.9
			C389.7,127.4,389,126.6,387.9,126.3z M387.5,128.6c-0.1,0.1-0.2,0.2-0.3,0.3c-0.3,0.2-0.5,0.5-0.8,0.5c-0.5-0.1-1-0.4-1.4-0.8
			l-0.1-0.1c0.1-0.2,0.2-0.5,0.3-0.6c0.6,0.1,1.2,0.3,1.8,0.5c0.2,0,0.3,0.1,0.5,0.1L387.5,128.6z"/>
		<path d="M307.3,73.6c-1.4,0.1-2.7,0.6-3.5,1c-0.6,0.3-1,0.7-1.2,1.2c-0.2,0.6,0,1.3,0.4,2.1c1.1,1.9,2.9,3.2,5.5,4.1
			c5,1.6,9.2,2.4,13.1,2.4c0.3,0,0.6,0,1,0c0.3,0,0.6,0,0.9,0c0.4,0,0.8,0,1.1-0.1c1.8-0.3,2.9-1.1,3.2-2.5c0.5-1.7-0.1-3-1.6-4
			c-0.8-0.5-1.8-1.1-2.8-1.4C318.7,74.9,313.1,73.3,307.3,73.6z M322.5,78.5c0.8,0.2,1.6,0.6,2.4,1.2c0.4,0.3,0.8,1,0.7,1.4
			c-0.1,0.4-0.8,0.9-1.3,0.9c-1.2,0.2-2.7,0.3-4,0l-0.4-0.1c-3.5-0.6-7.1-1.3-10.5-2.3c-1.2-0.4-2.3-1.1-3.5-1.9
			c-0.5-0.3-0.9-0.6-1.5-1c2.5-1.2,4.8-1,6.7-0.7c3.3,0.5,6.6,1.3,9.8,2.1L322.5,78.5z"/>
		<path d="M352.1,58.3c0.2,0.6,0.9,0.9,2,1.2c0.3,0.1,0.7,0.1,0.9,0.1c0.1,0,0.1,0,0.2,0c2.2,0,4.3-1,5.8-2.7
			c1.7-1.9,2.4-4.4,2.1-6.9c-0.1-0.9-0.6-2.1-1.4-2.6c-1.1-0.7-2.2,0-3.2,0.8c-2.6,2.2-4.4,5.1-6,7.8C352,57,351.9,57.8,352.1,58.3z
			 M354.3,57l6.1-7.6l0.3,0.2c0.4,2.3-0.2,4.3-1.8,6C357.5,57.1,356.1,57.5,354.3,57z"/>
		<path d="M275.9,104.5c0.1,1.1,0.1,2.3,0.5,3.3c0.7,2,2.5,2.6,4.2,3c0.2,0.1,0.5,0.1,0.7,0.2c0,0,0.1,0,0.1,0c0.3,0,0.6-0.2,1-0.6
			c3.1-2.7,4.3-6.4,3.5-11.1c-0.4-2.7-1.9-5-4.2-6.5c-1.5-1-2.9-1.2-4.3-0.5c-1.5,0.7-1.7,2.2-1.7,3.6c0,1.1,0,2.2,0,3.3l0,1.2
			c0,0-0.1,0.1-0.1,0.2c0,0.3,0,0.6,0,0.9c0,0.7,0,1.4,0,2C275.9,103.9,275.9,104.2,275.9,104.5z M278.3,99.1c0-1.1,0-2.2,0-3.2
			c0-0.5,0.1-1.2,0.5-1.4c0.3-0.2,0.8-0.1,1.5,0.3c1.7,0.9,2.8,2.5,3.3,4.9c0.7,3.2,0.1,6-1.9,8.2c-0.5,0.5-1,0.8-1.6,0.7
			c-0.5-0.1-1-0.4-1.2-1c-0.4-0.9-0.6-1.9-0.7-2.9l-0.1-0.5c-0.1-0.4,0-0.8,0-1.2c0-0.2,0-0.4,0.1-0.6c0-0.4,0-0.8,0.1-1.2l0-0.4
			c0,0,0-0.1,0-0.1C278.3,100,278.3,99.6,278.3,99.1z"/>
	</g>
</g>
</svg>
