<?xml version="1.0" encoding="utf-8"?>
<!-- Generator: Adobe Illustrator 23.0.2, SVG Export Plug-In . SVG Version: 6.00 Build 0)  -->
<svg version="1.1" id="Layer_1" xmlns="http://www.w3.org/2000/svg" xmlns:xlink="http://www.w3.org/1999/xlink" x="0px" y="0px"
	 viewBox="0 0 500 500" style="enable-background:new 0 0 500 500;" xml:space="preserve">
<style type="text/css">
	.st0{fill:#6C9E4C;}
	.st1{fill:#FFFFFF;}
</style>
<g>
	<path d="M183.5,251.1c48.7-21.9,73.8-82.4,63.5-123.1c-7-27.5-30.6-31.2-43.4-13.4c-12.4,17.2-4.6,40.8-21,57.8
		c-3.2-2.8,3.4-23.8-11.6-72.5c-15-48.5-53.4-53.3-73-25.1C62.8,125.3,83.5,196,77.4,193.5C51.8,183,57,153,30.6,147.9
		c-24.2-4.7-31.8,28.1-20.5,51.1c15.3,31.1,46.8,53.4,76.9,59.2c4.3,0.8,3.7,0.5,4.7,3.5c3.3,9.3,4.7,18.5,7.5,26.7
		c0.9,2.6-1.7,0-44.5,0.4c-5.3,0.1-9.2,1.5-8.7,6.7c0,0.1,3.3,24,4.5,30.6c20,111.6,20.3,120.7,112.9,115.2
		c34.3-2,39.1-42.4,44.8-82.9c11.5-82.9,13.4-68.8-42.1-70c2.2-5.1,5.6-18.5,6.7-24.8C175,252,173.2,255.7,183.5,251.1z"/>
	<path d="M261.8,350.4c-5.6,4.7-2.6-1-8.6-0.5c-6.1,0.5-2.1,5.8,4.8,5.8c12.7,0,26-22.4,21.5-36.3c-3.8-12-15-17.9-26.5-17.9
		c-26.3,0-51.6,34.7-25.7,64.9c7.1,8.8,30.5,27.1,30.5,40.6c0,13.6-25,11-25-1.6c0-3.9,2.9-5.3-0.1-5.3c-9,0-10.3,18.4,8.1,20.5
		c11.4,1.4,28.4-3.9,28.4-16c0-12.4-13.4-26.8-21.5-35.8c-25.6-28.2-13-57.3,5.4-62.6C267.4,302.3,287.2,329.1,261.8,350.4z"/>
	<path d="M492.8,383.2c-6-4.1-4.8,9.3-19.4,24c-3,3.1-2.7,3.1-3.2,0.7c-0.6-2.7-0.7-5.2-0.7-8c0-24.3,7.2-27.3,2.3-30.9
		c-2.1-1.4-5.4-2.2-7.2-1.4c-1.4,0.7-2.7,3.2-3.4,4.6c-0.3,0-10.7-11.7-21.6-2.6c-10.3,9.2-5.3,14.3-19.7,31
		c-3.1,3.6-11.5,12.3-14.9,12.3c-3.5,0-6.4-31.1,4.9-48.1c1.1-1.6,1.6-2.8,2.5,2.7c0.9,5.1-0.8,6.7,3.4,6.7c2.1,0,1.9-3.3,1.9-6.4
		c0-4.3,0-7.1-4.2-9.3c-14.8-7.8-27.9,12.5-29.5,28.4c-19.2,28-28,35.4-28,10.3c0-14.8,4.1-26.5,8.1-32.4c1.1-1.6,1.6-2.8,2.5,2.7
		c0.9,5.1-0.8,6.7,3.4,6.7c2.1,0,1.9-3.3,1.9-6.4c0-4.3,0-7.1-4.2-9.3c-15.9-8.4-29.8,14.9-29.8,33.4c0,0.1-7.3,23.4-13,28.6
		c-8.2-9.6,1.9-44.9,1.9-55.9c0-6-10.6-7.3-14.2-1.1c-5.1,9.1-2.2,22.8-19.7,44.9c-4.9-11.7,1.6-35.4,1.6-38.1
		c0-3.1-17.3-11.2-17.3,18.9c0,10.4,2.4,24.9,12.7,24.9c14.7,0,16.9-27.1,17.4-16.5c0.7,12.1,5.8,27.9,17.8,26.3
		c7.8-1,11.3-13.1,14-20.8c3.5,13.5,18.1,18.4,27.8,11.7c4-2.8,9.6-9.6,16.8-20.5c0.6,16.6,9.3,23.4,19.4,23.4
		c9.3,0,15-6.6,25.2-21.8c0.1,4.9,0.2,10.8,4.2,14.3c2.7,2.6,6.5,3.9,9.7,3.9c6.1,0,10.6-10.1,13.5-16.7c3.8-8.5-1.5,12.3,12.2,16.4
		c5.7,1.6,8.1-0.7,11.2-5c6.4-8.7,14-24.4,14.2-25.3C493.5,383.7,493.3,383.5,492.8,383.2z M443,404.4c0-7.8,1.5-14.6,4.4-20.3
		c2.7-5.4,6.9-9.2,7.4-9.2c0.9,0,1.8,3.2,3.4,4.6C454.5,386.8,448.7,399.2,443,404.4z"/>
	<path d="M311.7,252.5c3.2-0.1,5.6,0.6,8.3-1c2.2-1.7,0.3-3.8-2.2-4.7c-3.7-1.3-24.4-0.1-24.5-0.1c-0.3-2.2-1.3,0-3.2-0.3
		c-2.7-0.3-9.5,0.7-11.3,0.2c-4.7-1.2-5,4.7,3.1,5.6c14.5,1.5,7-5.2,8.9,23.3c0,44.3-4.2,55.5,3.5,55.3c12.8-0.3,10.9,1.7,10.9-12.4
		c0-3.2,0.7-6,0.3-23.7C305.6,246.8,301.2,252.7,311.7,252.5z"/>
	<path d="M332.1,329.5c5.7,1.3,6.8,2.5,8.8,1.5c3.4-1.6,5.6,1.1,10.4-3.1c11.9-11.9,11.2-31.8,10.6-49.3c-0.3-7.7-1-24.9-7.6-28.8
		c-1.1-0.6-2.4-2.4-3.2-2.4c-1.1,0-18.7-7.9-26.9,12C321.6,265.1,309.8,324.3,332.1,329.5z M339.5,257.8
		c14.5-27.2,10.5,56.7,3.8,65.5c-1.6,2-1.7,1.8-4.4,0.4C331.4,319.2,335,265.9,339.5,257.8z"/>
	<path d="M381,331.3c2.9,0,4-1,6.6-2.1c1-0.5,4.6-0.9,7.2-3.6c7.1-7.8,6,0.5,13.8-27.6c1.3-5.3,0.7-26.4-4.7-40.3
		c-3.3-5.6-11.9-11-12.7-11c-7.4-0.4-8.3-0.2-9.2-1.3c-19.1,3.8-9.4-20.5-12.3,75.8C369.8,327.6,367.5,329.8,381,331.3z M385,323.9
		c0-55.7-1.2-63.3-1.2-71.3C408.1,250.4,406.4,315.3,385,323.9z"/>
	<path d="M445.6,297.2c-6.5-37.7-3.3-50.6-8.8-51c-1.7-0.1-3.4-0.3-4.9,0.7c-1.4-1.6,0.1,0-9.2-1.5c-1.4,4.3-0.5,1.7-1.9,14.6
		c-0.4,3-0.6,1.2-3.2,19.5c-7,54.4-8.8,51.8-1.5,51.8c4.6-0.4,2.5-1.4,5.6-22.6c0-1.5,1.3-0.6,4.7-0.6c4,0.3,5-0.7,5,1.1
		c2.7,15.8,0.4,9.8,3.1,20c0.6,2.6,14.1,1.4,15.3,1c2.3-0.8-1.8-11-2.8-22.4C446.9,304.1,446.2,300.6,445.6,297.2z M422.8,302.9
		c0.3-1.9,5.2-47.4,5.2-37.3c0,32.5,1.2,16.9,2.6,37.3C427.9,303.1,425.4,303.3,422.8,302.9z M436.3,287c-0.1-0.2-0.2-0.9,0-0.9
		C436.3,286.6,436.6,287,436.3,287z"/>
	<path d="M470.9,263.4c-0.3-0.3-1.2-3.7-2.4-6.4c-0.5-1.2-2.6-5.1-4.2-8.9c-1.9-3.8-7.5-4.1-8.7-2.9c-7.4,0.5-7.3-1.1-3.6,8.4
		c16.5,41.2,14,36.5,13.4,52.1c-0.3,8.9,1.2,12.5,0.6,17.3c-0.9,6.4-0.8,7.2,1.1,7.7c14.1,3.5,11.6-2.1,11.6-11.5
		c0-18.3,0.8-6.6,0.6-30.8c0-1.2,17.8-41.1,15.8-46.3c-3.5,0.3-5.8-0.3-6.6,2.1c-0.5,1.4-4.6,13.9-5.4,15.2
		C472.7,287.4,478.2,272.6,470.9,263.4z"/>
	<path d="M271.3,220.4c9.1,0,4.5-3.4,8.5-30.8c2.5-17.4,13.3-63.8,27.1-78.9c4.2-4.7,3.7-4.2,4.5-0.2c5.4,27.1-17,104.8,12,111.2
		c12.1,2.7,17.7-8.6,22.7-19.3c0.4,2.2,1.2,4.3,2.4,6.4c5.5,9.7,11.8,9.6,16.5,9.6c16.5,0,18-23,21.1-23.8
		c19.7-1.5,14.6-14.3,16.6,3c1.4,12.3,4.6,36.9,16.6,36.9c7.5,0,10.7-6,14.4-13.2c6.5-12.8,14-38.3,14-38.4c0-1.7-3.6-1.7-4.3-1.1
		c-1.7,1.3-8.1,29.5-21.7,46.9c-11.4-23.9,0-93.1,2.2-95.2c0.2-0.1,22.8-5.6,35.2-5.6c8.5,0,13.9,0.4,18.5,6.4
		c3.2,4.4,7-11.1-13.4-12.3c-17.6-0.9-30.7,4.1-38.7,4.1c-0.9,0,3-12.3,1.8-16.8c-0.8-3-5.9-5.8-9.1-4.8c-2.8,0.9-8.5,24.8-9.6,26
		c-0.6,0.6-28.9,4.7-42.1-2.9c-11.8-8.8-6,7.4,7.2,9.5c7.5,1.2,13.7,2,33-0.7c0.9,0-5.5,17.2-4.8,47.3c-2.8,2.9-6.3,5.6-10.1,6.7
		c-8.4,2.3-5.1,2-5.1-7.9c0-34.2-40.2-30.3-31.5-4.3c0,0.7-8.4,0.4-9.3,12.2c-3.3,6.9-10.8,23.8-17.6,27.3
		C311,198.5,348.6,100,309.3,100c-15.1,0-24.2,30.5-28.5,43.8c-1.1,3.7,3.1-30.1-2.9-35.7c-3-2.7-8-2.4-9.4-0.9
		C262.5,113.7,256.6,220.4,271.3,220.4z M377.6,197.5c-1.4,5.1-7.7,19.3-11.1,15.2c-4.3-5.1-5.1-16.2-4.7-22.8c0.5-6.1,1,1.8,14.8,4
		C378.7,194.3,378.6,194.1,377.6,197.5z M374.2,164.9c8.6,6.6,6.3,25,5.3,25.5c-1.4,0-6.2-1.4-10.8-4.9
		C352.2,171.6,364.3,157.2,374.2,164.9z"/>
</g>
<g>
	<path class="st0" d="M190.6,240.2c25.3-6.7,64-70.4,48.8-113.4c-0.6-1.8-2-5-4.1-7c9,92.1-46.9,118-45.3,121
		C190.2,240.6,190.4,240.4,190.6,240.2z"/>
	<path class="st0" d="M137,284.9c13-38.2,11-155.3-11.1-210.2C116.3,50.6,125.2,284.9,137,284.9z"/>
	<path class="st0" d="M144.1,285c15.7-0.3,13.5,1.7,14.5-5.8c12-84.6-8-173.4-16.3-180.2C142.7,103.1,162,201.8,144.1,285z"/>
	<path class="st0" d="M127.5,284.7c-19.4-125.8-11.4-192.2-12.1-195.2c-8.9,15.1-10,111.6-7.5,139.4c2.5,27.4,7.3,40.4,12,56.1
		C122.5,285.1,124.9,285.3,127.5,284.7z"/>
	<path class="st0" d="M167.7,251.5c5.1-9.9,16.9-119.8-11.5-168.1c-7.7-13.1-21-18.8-24-18.3C171,133.5,167.7,174.2,167.7,251.5z"/>
	<path class="st0" d="M115.8,68.2c-20.1,5.7-30.3,47.7-32.7,70.9c-2.2,20.6,2.9,82.8,6.9,90.7c0.1-1.2-2.8-55.7,2.3-87.5
		C100.5,91.1,113.3,74.8,115.8,68.2z"/>
	<path class="st0" d="M225.3,110.7c-0.5,1,6.2,43.3-14.7,81.2c-13.5,24.4-29.1,31.7-31.3,33.6c-2.1,14.4-1.8,13.2-1.9,13.3
		c-0.5,5-5.3,10.9,21.6-14.6c27.8-26.2,33.1-62.9,30.9-96.8C229,111.4,227.9,110.8,225.3,110.7z"/>
	<path class="st0" d="M180.2,218.1c2.6,0,41.5-22.3,39-106.9c-6.4,0.4-6.4,2.8-6.8,6.9c-1.2,14.1-2.1,63.4-30.2,85.3
		C180.1,204.9,179.9,216.8,180.2,218.1z"/>
	<path class="st0" d="M83,228c-55.8-18.6-66.8-53-71.5-61.5c-0.8,3.2-2.1,11.1-0.4,13.9c3.8,6.3,9.6,19.3,30.4,35.5
		c22.8,17.8,31,21.8,42.7,26C87,242.9,86.2,242.4,83,228z"/>
	<path class="st0" d="M17.3,157c-2.5,2.4-2.6,2.9-1.4,6c11.6,30.2,43.6,51.1,65.4,58.3c0.1-2.9-0.5-6.9-1.5-9.6
		c-17.3-6.4-31.6-15.1-44-29.4C17.4,161.3,23.7,150.9,17.3,157z"/>
	<path class="st0" d="M25.8,153.9c11.8,35.3,52.2,51,53.3,50.8c1.2-12.7-5.3,6.7-30.4-34.2C43.2,161.6,39.9,153.9,25.8,153.9z"/>
	<path class="st0" d="M101,134.7c-3.1,0.2-11.8,72.7,5.4,150.1c10.1,1.5,4.4-1,0-19.5C94.6,214.9,101,150.5,101,134.7z"/>
	<path class="st0" d="M88.3,249.7c-57.1-23.4-68.6-51.2-71.5-49.8c2.3,14.4,43.6,50.7,71.7,53.7C89.6,253.7,88.9,251.9,88.3,249.7z"
		/>
	<path class="st0" d="M182.4,195.3c20.7-20.9,24.7-72.4,23.9-75.5c-11.7,17.7,1.4,29.6-24.2,59.9
		C181.7,196.6,181.6,193.8,182.4,195.3z"/>
</g>
<path class="st1" d="M188.3,313.2c-15.1,0-15.1,22.9,0,22.9C203.4,336.1,203.4,313.2,188.3,313.2z"/>
<path class="st1" d="M85.9,346c-15.1,0-15.1,22.9,0,22.9C101,368.9,101.1,346,85.9,346z"/>
<path class="st1" d="M142.3,343.7c-15.1,0-15.1,22.9,0,22.9C157.4,366.5,157.4,343.7,142.3,343.7z"/>
<path class="st1" d="M108.8,309.8c0-15.1-22.9-15.1-22.9,0C85.9,325,108.8,325,108.8,309.8z"/>
<path class="st1" d="M168.7,390c-15.1,0-15.1,22.9,0,22.9C183.8,412.9,183.8,390,168.7,390z"/>
<path class="st1" d="M106.7,393.6c-15.1,0-15.1,22.9,0,22.9C121.8,416.5,121.9,393.6,106.7,393.6z"/>
</svg>
