<?xml version="1.0" encoding="utf-8"?>
<!-- Generator: Adobe Illustrator 25.2.0, SVG Export Plug-In . SVG Version: 6.00 Build 0)  -->
<svg version="1.1" id="Layer_1" xmlns="http://www.w3.org/2000/svg" xmlns:xlink="http://www.w3.org/1999/xlink" x="0px" y="0px"
	 width="300px" height="300px" viewBox="0 0 300 300" style="enable-background:new 0 0 300 300;" xml:space="preserve">
<g>
	<g>
		<path d="M126.9,105.9c0,6.2-2.9,11.8-9.2,11.8c-1.4,0-2.5-0.4-3.3-0.9c-1.1-0.7-1.7-1.1-1.7,0v10.8h-10.2v-0.5
			c0.9-0.3,2.7-2.2,2.7-6.9l0-12.5c0-3.4-1.1-4.7-3.2-5.4v-0.5c3.4-0.6,7.3-5,9.2-5c1.4,0,1.5,1.3,1.5,2.5c1.3-1.5,3.2-2.5,5.5-2.5
			C122.1,96.7,126.9,99.7,126.9,105.9z M118.7,107.5c0-6.1-0.9-8.5-3-8.5c-1.5,0-3.1,1.2-3.1,7.2v0.7c0,6,0.8,9.1,3.1,9.1
			C117.8,116,118.7,113.5,118.7,107.5z"/>
		<path d="M138,99.6v9.8c0,4.8,1.8,6.6,2.7,6.9v0.5h-12.8v-0.5c0.9-0.3,2.7-2.2,2.7-6.9v-1.7c0-3.4-1.1-4.7-3.2-5.4v-0.5
			c3.4-0.6,7.3-5,9.2-5C137.9,96.7,138,98.4,138,99.6z M130.2,91.9c0-2.2,1.8-4,4.1-4c2.2,0,4,1.8,4,4c0,2.3-1.8,4.1-4,4.1
			C132,95.9,130.2,94.1,130.2,91.9z"/>
		<path d="M159.6,112.1c-1,2.6-3.9,5.6-9.3,5.6c-5.9,0-10.5-4.7-10.5-10.5s4.6-10.5,10.5-10.5c4.6,0,8.6,2.3,8.6,5.8
			c0,1.4-1.2,2.6-2.7,2.6c-1.5,0-2.6-1.2-2.5-2.6c0-4-1.3-4.2-2.8-4.2c-2.2,0-3.6,3.2-3.6,8.9c0,5.7,2.4,8.4,4.9,8.4
			c1.1,0,2.9-1.1,3.4-3.5H159.6z"/>
		<path d="M191.5,91.7c0,2.3-1.1,4.2-3.6,4.2c-2.2,0-2.7-1.2-4.3-1.2c-3.4,0-7.5,3.9-11.6,8.1c0.9-0.2,1.8-0.2,2.9-0.2
			c3.5,0,5.9,3.7,5.9,7.3v2.6c0,1.6,0.2,3.6,1.3,3.9v0.4c-0.7,0.6-2.4,1-3.7,1c-4.1,0-5-2.4-5-6.2s-0.7-6.7-2.3-6.7
			c-1.2,0-2.1,0.9-2.3,3.9v0.6c0,4.8,1.8,6.6,2.7,6.9v0.5h-12.8v-0.5c0.9-0.3,2.7-2.2,2.7-6.9l0-13.4c0-3.4-1.1-4.7-3.2-5.4V90
			c3.4-0.6,7.3-5,9.2-5c1.6,0,1.5,1.7,1.5,2.9v15.4c5.3-5,13.7-15.6,18.2-15.6C189.8,87.7,191.5,89.1,191.5,91.7z"/>
	</g>
	<g>
		<path d="M63.8,122c0,1.5-1.2,2.7-2.6,2.7c-1.5,0-2.7-1.2-2.7-2.7c0-1.5,1.4-1.7,1.4-2.3c0-0.4-0.4-0.6-1.1-0.6
			c-2.8,0-3.8,2.7-3.8,7.3l0,3.7l4.3,0c0.2,0,0.2,1.6,0,1.6l-3.1,0c-1.2,0-1.2,0.4-1.2,1.2l0,9c0,4.8,1.7,6.6,2.7,6.9l0,0.5l-12.8,0
			l0-0.5c0.9-0.3,2.7-2.2,2.7-6.9l0-9c0-0.8,0-1.2-1.2-1.2l-1.3,0c-0.2,0-0.2-1.6,0-1.6l2.5,0l0-1.4c0-5.7,3.5-11.3,10.6-11.3
			C61.7,117.4,63.8,119.1,63.8,122z"/>
		<path d="M72.7,120.6l0,21.4c0,4.8,1.7,6.6,2.7,6.9l0,0.5l-12.8,0l0-0.5c0.9-0.3,2.7-2.2,2.7-6.9l0.1-13.4c0-3.4-1.1-4.7-3.2-5.5
			l0-0.5c3.4-0.6,7.3-4.9,9.2-4.9C72.8,117.7,72.7,119.4,72.7,120.6z"/>
		<path d="M74.2,139.8c0-5.8,4.6-10.5,10.5-10.5c5.9,0,10.5,4.7,10.5,10.5c0,5.8-4.6,10.5-10.5,10.5
			C78.8,150.3,74.2,145.7,74.2,139.8z M88,139.4c-0.8-5.6-2.4-8.6-4.5-8.4c-2,0.3-2.8,3.7-2.1,9.3c0.8,5.6,2.5,8.6,4.5,8.3
			C87.9,148.3,88.7,145,88,139.4z"/>
		<path d="M139.5,122.4c0,2.3-1.1,4.2-3.6,4.2c-1.4,0-2-1.2-3.1-1.2c-2.4,0-4.4,2.8-5.5,5.4l-6.9,18.6l-5.2,0l-3.9-12.3
			c-0.2-0.5-0.4-1-0.5-1.5l-5.1,13.8l-5.2,0l-3.9-12.3c-1.5-4.5-3.6-6.3-4.4-6.6l0-0.5l13.1,0l0,0.5c-0.9,0.3-1.9,2-0.4,6.6l1.5,4.8
			l2.6-7.2c0.4-1.1,0.3-2-0.4-3.1c-0.4-0.7-0.8-1-1-1.1l0-0.5l12.3,0l0,0.5c-0.9,0.3-1.9,2-0.4,6.6l1.5,4.8l5.4-14.7
			c1.7-4.7,4-8.9,8.3-8.9C137.8,118.4,139.5,119.9,139.5,122.4z"/>
		<path d="M146.6,144.9c-1,2.6-4.2,5.6-8.4,5.6c-6.8,0-11.3-4.7-11.3-10.5c0-5.8,4.6-10.5,10.5-10.5c5.8,0,8.6,3.4,9.4,8.7
			c0.2,1.4-0.4,2.5-3.1,2.5c-6.7,0.1-11.2,1.4-7.9,5.7c2.5,3.2,5.6,2.5,6.9-1.5L146.6,144.9z M134.4,139.9l0,0.3
			c4.2-2,5.5-0.8,5.5-4.3c0-3.6-1.1-4.9-2.9-4.9C135.1,131.1,134.4,134.3,134.4,139.9z"/>
		<path d="M169.6,133.3c0,2.7-2.2,4.9-4.9,4.9c-2.5,0-4.1-2.2-4-4.3c0-0.5,0.1-0.9,0.2-1.4c0.2-0.7,0.3-1.1-0.5-0.5
			c-1.1,0.9-2,2.4-2,4.6l0,5.7c0,4.8,1.8,6.6,2.7,6.9l0,0.5l-12.8,0l0-0.5c0.9-0.3,2.7-2.2,2.7-6.9l0-1.7c0-3.4-1.1-4.7-3.2-5.5
			l0-0.5c3.4-0.6,7.3-5,9.2-5c1.3,0,1.5,1.6,1.5,2.8c1.2-1.8,2.8-3.8,6.3-3.8C167.4,128.4,169.6,130.6,169.6,133.3z"/>
		<path d="M172.9,141.9c1.5,0,3.2,0.8,3.2,2.1c0,1.3-1.2,1.9-1.2,2.7c0,1,1.3,2.1,4.1,2.1c2.3,0,3.6-0.7,3.6-2.2
			c0-3.9-12.2-4.4-12.2-11.4c0-3.2,4.8-5.7,9.7-5.7c4.6,0,7.8,1.8,7.8,3.5c0,0.9-0.9,2.1-1.9,2.3l-0.4-0.2c0-1.9-1.8-4-4.3-4
			c-1.4,0-3.2,0.6-3.2,2c0,2.9,11,4.5,11,10.8c0,4.3-4.8,6.5-9.9,6.5c-3.6,0-9.7-1.6-9.7-5.2C169.5,143.4,171,141.9,172.9,141.9z"/>
	</g>
	<g>
		<path d="M101.1,180.2c0,3.9-4.1,5.2-7.3,5.2c-7,0-9.5-5.3-9.5-12.5v-11.5c0-2.4-0.7-4.4-2.3-4.4c-1.6,0-2.4,1.6-2.4,4.8v4.7
			c0,4.8,1.2,6.6,1.9,6.9v0.5h-12v-0.5c0.9-0.3,2.7-2.2,2.7-6.9v-1.7c0-3.4-1.1-4.7-3.2-5.4v-0.5c3.4-0.6,7.3-5,9.2-5
			c1.4,0,1.5,1.7,1.5,2.9v0.1c1.4-1.6,3.4-2.9,6.2-2.9c4.4,0,5.9,3.7,5.9,7.1v3.7l0,13.6c0,2.5,0.8,5.5,2.5,5.5
			c0.7,0,1.1-0.1,1.1-0.4c0-0.7-1.6-1.1-1.6-3.4c0-2,1.8-3.6,3.8-3.6C99.6,176.4,101.1,178.2,101.1,180.2z"/>
		<path d="M94.1,165.6c0-5.8,4.6-10.5,10.5-10.5c5.9,0,10.5,4.7,10.5,10.5c0,5.8-4.6,10.5-10.5,10.5
			C98.7,176.1,94.1,171.4,94.1,165.6z M107.9,165.2c-0.8-5.6-2.5-8.6-4.5-8.4c-2,0.3-2.8,3.7-2.1,9.3c0.8,5.6,2.5,8.6,4.5,8.3
			C107.8,174.1,108.7,170.7,107.9,165.2z"/>
		<path d="M129.5,156.4c0.2,0,0.2,1.6,0,1.6h-2.9c-0.8,0-1.1,0.2-1.2,0.6v12c0,2,0.8,2.5,1.4,3.3v0.4c-0.5,1.1-1.7,2.3-3.5,2.3
			c-3.5,0-5.4-2.1-5.4-5.4v-11.9c0-0.8,0-1.2-1.2-1.2h-1.5c-0.2,0-0.2-1.6,0-1.6h0c4.5,0,7-5.2,9.3-9.4h0.8v9.4H129.5z"/>
	</g>
	<g>
		<path d="M71.2,190.3c0.2,0,0.2,1.6,0,1.6h-3.1c-1.2,0-1.2,0.4-1.2,1.2v9c0,4.8,1.8,6.6,2.7,6.9v0.5H56.8v-0.5
			c0.9-0.3,2.7-2.2,2.7-6.9v-9c0-0.8,0-1.2-1.2-1.2h-1.3c-0.2,0-0.2-1.6,0-1.6h2.5v-1.4c0-5.7,3.6-11.3,11.3-11.3
			c6.8,0,11,2.3,11,5.3c0,2.1-1.4,3.7-3.6,3.7c-5.6,0-1.1-7.4-6.6-7.4c-3.6,0-4.6,2.7-4.6,7.3v3.7H71.2z M82.1,202.1
			c0,4.8,1.8,6.6,2.7,6.9v0.5H72v-0.5c0.9-0.3,2.7-2.2,2.7-6.9v-1.7c0-3.4-1.1-4.7-3.2-5.4v-0.5c3.4-0.6,7.3-5,9.2-5
			c1.4,0,1.5,1.7,1.5,2.9V202.1z"/>
		<path d="M107.8,216.7c0,6.6-5.7,9.6-12.3,9.6c-5.1,0-8.4-2.9-8.4-7.4c0-2.1,1.4-4.1,3.2-5.1c-1.6-0.2-3.3-1.2-3.3-2.9
			c0-2.2,3.4-3.6,2.1-4.9c-2.4-1.7-3.9-4.3-3.9-7.2c0-5.2,4.8-9.4,11-9.4c1,0,1.9,0.1,2.8,0.3c1.6-2.4,3.6-3.7,5.7-3.7
			c1.7,0,2.9,1,2.9,2.8c0,1.4-1,2.3-2,2.3c-1,0-1.9-0.8-1.9-1.9c0-1,1-1.2,1-1.6c0-0.3-0.3-0.5-0.8-0.5c-1.2,0-3.6,2.5-1.8,3.6
			c3.1,1.7,5.2,4.6,5.2,8c0,5.2-4.8,9.4-11,9.4c-2.7,0-6.6,0.7-6.6,2.1c0,2.2,4.1-0.9,9.7-0.9C104.8,209.5,107.8,212.7,107.8,216.7z
			 M100.5,218.9c0-3.3-2.2-5.1-5.2-5.1h-0.4c0.9,0.5,1.3,1.4,1.3,2.4c0,2-1.5,3.4-3.3,3.4c-1.2,0-2.1-0.5-2.5-1.1
			c-0.4,0.6-0.5,1.6-0.5,2c0,2.5,2.8,4.1,5,4.1C98.7,224.7,100.5,222.2,100.5,218.9z M92.7,198.9c0,5.1,1.3,7.9,3.4,7.9
			c2.1,0,3.4-2.8,3.4-7.9c0-5-1.3-7.8-3.4-7.8C94,191.1,92.7,193.8,92.7,198.9z"/>
		<path d="M131.2,209.1v0.4c-0.7,0.6-2.4,1-3.7,1c-4.1,0-5-2.4-5-6.2c0-1.8,0-4.9,0-7.3c0-2.4-0.7-4.4-2.3-4.4c-1.6,0-3.4,3.2-3.4,7
			v2.5c0,4.8,1.8,6.6,2.7,6.9v0.5h-12.8v-0.5c0.9-0.3,2.7-2.2,2.7-6.9l0-13.4c0-3.4-1.1-4.7-3.2-5.4v-0.5c3.4-0.6,7.3-5,9.2-5
			c1.6,0,1.5,1.7,1.5,2.9v13c1.4-2.1,3.6-4.2,7.1-4.2c4.4,0,5.9,3.7,5.9,7.1v8.6C129.9,206.5,130.1,208.7,131.2,209.1z"/>
		<path d="M150.5,216c0,3.9-4.1,5.2-7.3,5.2c-7,0-9.5-5.3-9.5-12.5v-15.4c0-0.8,0-1.2-1.2-1.2H131c-0.2,0-0.2-1.6,0-1.6h0
			c4.5,0,7-5.2,9.3-9.4h0.8v9.4h4.1c0.2,0,0.2,1.6,0,1.6h-2.9c-0.8,0-1.1,0.2-1.2,0.6v7.9c0,2.2,0,3.8,0,4.1v9.5
			c0,2.5,0.8,5.5,2.5,5.5c0.7,0,1.1-0.1,1.1-0.4c0-0.7-1.6-1.1-1.6-3.4c0-2,1.8-3.6,3.8-3.6S150.5,213.9,150.5,216z"/>
		<path d="M147.4,201.9c1.5,0,3.2,0.8,3.2,2.1c0,1.3-1.2,1.9-1.2,2.7c0,1,1.4,2.1,4.1,2.1c2.3,0,3.6-0.7,3.6-2.3
			c0-3.9-12.2-4.4-12.2-11.3c0-3.2,4.8-5.7,9.7-5.7c4.6,0,7.8,1.8,7.8,3.5c0,0.9-0.9,2.1-1.9,2.3l-0.4-0.2c0-1.9-1.8-4-4.3-4
			c-1.4,0-3.2,0.7-3.2,2c0,2.9,11,4.5,11,10.8c0,4.3-4.8,6.6-9.9,6.6c-3.6,0-9.7-1.6-9.7-5.2C144.1,203.4,145.5,201.9,147.4,201.9z"
			/>
	</g>
	<path d="M234.3,153.4c-0.3-0.3-0.4-0.6-0.5-1c-0.2-0.4-0.5-0.8-0.8-1.1c-1-0.7-2.1-0.9-3.2-0.4c-0.1,0.1-0.3,0.1-0.5,0.2
		c-0.1,0-0.2,0-0.2,0.1c0.1-0.1,0.1-0.2,0.2-0.3l0,0c0.1-0.3,0.3-0.5,0.4-0.7c0.2-0.4,0.5-0.9,0.7-1.3l0,0c0.4-0.6,0.7-1.3,1.1-2
		c0.3-0.5,0.5-1,0.2-1.6c-0.2-0.3-0.3-0.6-0.4-0.9c-0.3-0.6-0.5-1.3-1.1-1.8c0,0-0.1-0.1-0.2-0.1l0,0c-0.4-0.2-0.7-0.4-0.8-0.8
		c0-0.2-0.2-0.3-0.3-0.4c-0.2-0.1-0.4-0.1-0.6,0c-0.3,0.1-0.5,0.2-0.7,0.4l-0.2,0.1c-0.5,0.2-0.9,0.5-1.4,0.7l-0.6,0.3
		c-0.1-0.2-0.3-0.3-0.4-0.4l0,0c-0.3-0.3-0.5-0.6-0.8-0.9c-1.1-1.5-2.9-2.1-4.5-1.5c-0.3,0.1-0.7,0.3-1.1,0.4l0,0
		c-0.1,0.1-0.3,0.1-0.4,0.2c0-0.1,0-0.1,0-0.2c0-0.2,0-0.3,0-0.5c0-0.3,0-0.5,0.1-0.8c0.1-0.6,0.1-1.1,0.1-1.7
		c-0.1-0.8-0.2-1.9,0-2.9c0.2-1.4-0.3-2.1-1.7-2.5c-0.1,0-0.3-0.1-0.5-0.2c-0.6-0.3-1.2-0.2-1.8,0.4c-0.2,0.2-0.4,0.5-0.6,0.8
		c-0.1,0.1-0.1,0.2-0.2,0.3l-0.1,0.1c-0.6,1-1.3,2-2.3,2.9c0-0.2-0.1-0.3-0.1-0.4l0,0c-0.1-0.3-0.1-0.6-0.2-0.9l0-0.1
		c-0.6-2.1-1.3-4.3-3.2-5.8c-0.6-0.5-1-0.6-1.3-0.6c-0.3,0.1-0.6,0.3-1,0.9c-0.3,0.5-0.7,1-1,1.5c-0.9,1.2-1.7,2.4-2.3,3.9
		c-0.1-0.2-0.2-0.3-0.2-0.5c-0.2-0.4-0.4-0.8-0.6-1.1c-0.6-0.9-1.7-1.1-2.7-1c-0.7,0-1,0.5-1.3,1.1c-0.1,0.1-0.1,0.2-0.2,0.3
		c-0.6,1-1.1,1.8-1.7,2.7c-0.7,1-1.1,2.1-1,3.3c0.1,1.3,0.5,2.4,1.5,3.6c0.6,0.8,1.2,1.8,1.6,2.6c0.2,0.4,0.3,0.9,0.5,1.3l0,0
		c0.1,0.2,0.1,0.4,0.2,0.6c0.1,0.4,0.3,0.9,0.5,1.3c0.3,0.9,0.7,1.9,0.9,2.8c0.4,1.7,0.8,3.5,1.1,5.2c0.1,0.7,0.3,1.4,0.4,2
		c-0.2,0.2-0.3,0.3-0.5,0.5c-0.4,0.3-0.7,0.6-1,1c-0.6,0.9-0.9,1.9-0.9,2.9c0,0.5-0.2,1.1-0.3,1.4c-0.3,0.6-0.5,1.1-0.8,1.7
		c-0.3,0.6-0.6,1.1-0.8,1.7c-0.4,0.9-0.8,1.9-1.2,2.9c-0.5,1.1-1,2.3-1.5,3.4c-0.4,0.9-0.9,1.7-1.5,2.6c-0.2,0.4-0.5,0.8-0.8,1.1
		c-0.4,0.6-0.9,1.2-1.2,1.9c-1.1,2.2-2.1,4.4-3,6.5c-0.2,0.5-0.4,0.9-0.6,1.4c-0.7,1.6-1.7,3-2.8,4.5c-0.3,0.4-0.5,0.7-0.8,1.1
		c0,0,0-0.1-0.1-0.1c0-0.1-0.1-0.1-0.1-0.1c0.2-1.4,0.5-2.8,1.1-4.2c0.2-0.4,0.4-0.8,0.6-1.2c0.2-0.4,0.4-0.8,0.6-1.2
		c0.4-0.8,0.4-1.7,0.3-2.6c0-0.6,0-1.2,0.1-1.7c0,0,0,0,0,0c-0.1-0.3-0.2-0.6-0.3-0.9l0,0c-0.5-1.2-0.9-2.3-1.7-3.4
		c-0.5-0.6-0.9-1.3-1.3-2c-0.2-0.3-0.4-0.6-0.5-0.9c-0.1-0.1-0.1-0.2-0.2-0.3c-0.1-0.1-0.1-0.2-0.2-0.3c0.4-0.7,0.8-1.4,1.1-2.2
		c0.2-0.6,0.6-1.1,1-1.6c0.1-0.1,0.2-0.2,0.3-0.3c0.2-0.2,0.4-0.4,0.6-0.7c0.2-0.2,0.4-0.4,0.6-0.6c0.2-0.3,0.3-0.6,0.2-0.8
		c-0.1-0.2-0.4-0.4-0.7-0.4c-0.3,0-0.5,0-0.8,0.1l0,0c-0.1,0-0.1,0-0.2,0.1c-0.2,0-0.3,0.1-0.5,0.1c-0.5,0.1-1.1,0.3-1.7,0.1
		c0-0.1,0.1-0.2,0.1-0.3c0.1-0.3,0.2-0.5,0.2-0.8c0.2-1.5,0.3-3-0.2-4.5c-0.4-1.2-0.7-2.3-0.8-3.5c-0.1-0.7-0.3-1.5-1.2-1.6
		c-0.1-0.3-0.2-0.6-0.3-0.8l0-0.1c-0.3-0.8-0.5-1.5-0.8-2.3c-0.2-0.5-2.1-1.6-2.6-1.5c-0.4,0.1-0.7,0-1.1,0c-0.4-0.1-0.9,0-1.3,0.1
		c-1.1,0.4-1.7,1.2-1.9,2.4c0,0.1-0.1,0.3-0.1,0.5c0,0.1,0,0.1-0.1,0.2c-0.1-0.1-0.1-0.2-0.2-0.3c-0.2-0.2-0.3-0.5-0.4-0.7
		c-0.2-0.4-0.5-0.8-0.7-1.2l0,0c-0.4-0.6-0.7-1.2-1.1-1.9c-0.3-0.4-0.6-0.9-1.2-0.9c-0.3,0-0.7-0.1-1-0.1c-0.7-0.1-1.3-0.2-2,0
		c-0.1,0-0.1,0.1-0.2,0.1l0,0c-0.3,0.3-0.6,0.4-1.1,0.3c-0.2-0.1-0.3,0-0.5,0c-0.2,0.1-0.3,0.3-0.3,0.5c0,0.3-0.1,0.5-0.1,0.8l0,0.2
		c0,0.5-0.1,0.9-0.1,1.4l0,0.7c-0.2,0-0.4,0.1-0.6,0.1c-0.4,0.1-0.8,0.1-1.1,0.2c-1.8,0.1-3.2,1.3-3.4,2.9c-0.1,0.3-0.1,0.7-0.2,1.1
		l0,0c0,0.2-0.1,0.3-0.1,0.5c-0.1,0-0.1-0.1-0.1-0.1c-0.1-0.1-0.3-0.2-0.4-0.2c-0.2-0.1-0.4-0.3-0.6-0.4c-0.4-0.3-0.9-0.6-1.3-0.9
		c-0.7-0.3-1.6-0.8-2.4-1.4c-1-0.9-1.8-0.8-2.9,0.2c-0.1,0.1-0.2,0.2-0.4,0.3c-0.5,0.4-0.7,0.9-0.6,1.6c0.1,0.3,0.2,0.6,0.4,0.8
		c0,0.1,0.1,0.2,0.1,0.3l0.1,0.1c0.5,1,1,2,1.2,3.3c-0.1,0-0.3-0.1-0.4-0.1c-0.3-0.1-0.6-0.2-0.9-0.3l-0.1,0c-2-0.5-4.1-1-6.2-0.2
		c-0.7,0.3-1,0.5-1.1,0.8c-0.1,0.3,0,0.7,0.2,1.2c0.3,0.5,0.5,1,0.7,1.6c0.6,1.3,1.1,2.6,2.1,3.7c-0.2,0-0.3,0-0.5,0
		c-0.4,0-0.8-0.1-1.2-0.1c-1.1,0.1-1.7,0.8-2.2,1.7c-0.3,0.6,0,1.1,0.2,1.5c0.1,0.1,0.1,0.2,0.2,0.3c0.5,0.9,1,1.8,1.3,2.7
		c0.5,1.1,1.2,1.9,2.2,2.4c1.1,0.6,2.2,0.8,3.7,0.6c1-0.1,2-0.1,2.9,0c0.4,0,0.9,0.1,1.3,0.3c0.2,0.1,0.4,0.1,0.6,0.2
		c0.4,0.1,0.9,0.2,1.3,0.3c0.9,0.2,1.9,0.4,2.7,0.6c1.6,0.5,3.2,1.1,4.8,1.7l0.1,0c0.6,0.2,1.2,0.4,1.8,0.6c0,0.2,0.1,0.4,0.1,0.6
		c0.1,0.5,0.2,0.9,0.3,1.3c0.5,0.9,1.1,1.7,1.9,2.2c0.4,0.3,0.8,0.7,1,1c0.3,0.5,0.6,1,0.9,1.5l0,0c0.3,0.5,0.6,1,1,1.5
		c0.6,0.8,1.1,1.6,1.7,2.4c0.7,0.9,1.4,1.9,2,2.9c0.5,0.8,1,1.6,1.4,2.4c0.2,0.4,0.4,0.8,0.5,1.2c0.3,0.7,0.6,1.3,1,1.9
		c0.1,0.2,0.3,0.5,0.4,0.7l0.1,0.1l0,0.2c0,0.3-0.1,0.7-0.1,1.1c-0.1,0.4-0.1,0.7-0.2,0.9c-0.1,0.4-0.3,0.7-0.5,1.1l0,0
		c-0.1,0.3-0.3,0.6-0.4,0.9c-0.1,0-0.3,0-0.4-0.1l0,0c-1.2-0.2-2.4-0.4-3.6-0.3c-0.7,0.1-1.5,0.1-2.2,0.1l0,0l0,0l0,0
		c-0.3,0-0.6,0-1,0c-0.1,0-0.2,0-0.4,0c-0.2,0-0.5,0-0.7,0c0,0-0.1,0-0.1,0c-0.3,0-0.8,0.1-0.8,0.5c0,0.3,0.2,0.5,0.5,0.8l0.1,0.1
		c0.2,0.3,0.5,0.5,0.8,0.7c0.4,0.3,0.8,0.6,1.2,0.9c1,0.8,2,1.6,3.2,1.9c0.2,0.1,0.4,0.2,0.6,0.4c0.3,0.3,0.5,0.5,0.8,0.6
		c-0.3,0.7-0.6,1.4-1,2c-0.3,0.7-0.7,1.4-1,2.1c-0.2,0.5-0.4,1-0.7,1.5c-0.8,1.7-1.5,3.5-2.6,5.2c-0.3,0.4-0.5,0.9-0.7,1.4l0,0
		c0,0.1-0.1,0.1-0.1,0.2c-0.2,0.5,0,1,0.4,1.4c0.2,0.2,0.5,0.3,0.7,0.3c0.2,0,0.4-0.1,0.6-0.3l0.2-0.2c0.5-0.4,1-0.9,1.4-1.4
		c0.6-0.9,1.2-1.8,1.7-2.8l0-0.1c0.9-1.5,1.9-3.3,2.8-5.1c0.7-1.4,1.3-2.9,2-4.9c1.5,0.5,2.9,1.3,4.2,2.3c1.3,0.9,2.4,2.1,3.5,3.4
		c1,1.2,1.1,2.2,0.6,3.5c-0.4,1-0.2,2,0.7,2.8c0.4,0.4,0.9,0.7,1.3,1.1c0.3,0.2,0.5,0.4,0.8,0.6l0,0c0,0,0,0,0,0
		c1.6,0.4,2.9,0.2,4-0.6c0,0,0,0,0,0l0.3-0.6c0.4-0.7,0.7-1.4,1-2.1c0.1-0.1,0.1-0.3,0.2-0.4l0,0c0.2-0.5,0.5-0.9,0.8-1.4
		c0.8-1.1,1.1-2.2,0.8-3.4c-0.3-1-0.2-1.9,0.1-3c0.4-1.2,0.3-2.3-0.1-3.4c-0.4-1-0.3-1.9,0.2-2.9c0.2-0.5,0.4-0.9,0.5-1.2
		c0-0.2,0-0.6-0.2-0.7c-0.2-0.1-0.6-0.1-0.8,0c-0.3,0.2-0.5,0.4-0.8,0.6c-0.1,0.1-0.3,0.2-0.4,0.3c-0.3,0.2-0.5,0.4-0.8,0.6l0,0
		c-0.6,0.5-1.2,1-1.9,1.3c-1.6,0.7-2.4,1.7-2.8,3.1c-0.2,0.8-0.8,1.3-1.5,1.8c0-0.1-0.1-0.2-0.1-0.3c-0.1-0.2-0.2-0.4-0.3-0.6
		c-0.1-0.4-0.3-0.7-0.4-1.1c-0.3-0.8-0.6-1.6-1-2.3c-0.5-0.8-1.1-1.7-1.6-2.4c0.4,0,0.7,0,1,0c1.5,0.2,2.6-0.2,3.5-1.1
		c0.7-0.7,1.6-1.3,2.8-1.6c1.3-0.3,2.3-1,3-1.9c0.6-0.9,1.5-1.3,2.7-1.5c0.5,0,1-0.1,1.4-0.3c0.2-0.1,0.6-0.3,0.6-0.5
		c0-0.3-0.2-0.6-0.5-0.7c-0.3-0.2-0.6-0.3-0.9-0.4c-0.2-0.1-0.4-0.1-0.5-0.2c-0.3-0.1-0.7-0.3-1-0.4c-0.8-0.3-1.6-0.6-2.3-1
		c-1.5-1-2.8-1.3-4.3-0.8c-0.8,0.3-1.6,0-2.4-0.4c0.1-0.1,0.1-0.2,0.2-0.3l0,0c0.1-0.2,0.2-0.4,0.4-0.6c0.2-0.3,0.5-0.7,0.8-1
		c0.5-0.7,1.1-1.4,1.5-2.2c1.3-2.7,2.3-4.9,3-6.9c0.4-1.1,0.9-2.2,1.4-3.2c0.2-0.4,0.4-0.9,0.6-1.3c0.4-0.8,0.8-1.5,1.2-2.3l0,0
		c0.4-0.7,0.8-1.4,1.1-2.2c0.8-1.6,1.5-3.3,2.3-4.9c0.4-0.8,0.8-1.7,1.2-2.6c0.1-0.1,0.2-0.3,0.2-0.4c0-0.1,0.1-0.1,0.1-0.2
		c0.2-0.3,0.5-0.4,0.8-0.4c1.2,0.2,2.3-0.3,3.1-0.7c0.3-0.2,0.8-0.3,1.2-0.2c0.6,0.1,1.2,0.1,1.7,0.2c0.4,0.1,0.9,0.1,1.3,0.2
		c0.4,0,0.7,0.1,1,0.4c0.6,0.7,1.4,1.2,2.3,1.5c0.5,0.2,1,0.3,1.4,0.5l0.1,0c0.2,0,0.3,0.1,0.5,0.1c2.8,0.9,5.2,1.1,7.4,0.7
		c0.6-0.1,1.3,0,2,0.1l0,0c0.1,0,0.3,0,0.4,0.1c0.3,0,0.6,0.1,0.9,0.2c0.3,0.1,0.6,0.2,0.9,0.2c0.4,0,0.7,0,0.9-0.3
		c0.2-0.2,0.2-0.5,0-0.9c-0.1-0.2-0.3-0.4-0.5-0.6c-0.1-0.1-0.1-0.1-0.2-0.2c-0.1-0.1-0.2-0.2-0.4-0.4c-0.4-0.4-0.8-0.8-1-1.5
		c0.1,0,0.2-0.1,0.3-0.1c0.3-0.1,0.6-0.2,0.8-0.3c1.4-0.6,2.9-1.4,3.9-2.7c0.8-1,1.7-1.9,2.8-2.7c0.6-0.4,1.2-1,0.8-1.9
		c0.2-0.3,0.5-0.5,0.7-0.8c0.6-0.7,1.1-1.3,1.6-1.9C234.7,156.1,234.6,153.8,234.3,153.4z M198.9,132.9c0.8,0.1,1.3,0.4,1.6,1.1
		c0.4,0.9,0.8,1.8,1.2,2.7l0,0.1c0.1,0.3,0.3,0.6,0.4,0.9C200.1,137,198.6,134.8,198.9,132.9z M217,133.7c-0.2,1.2-0.1,2.3,0,3.5
		c0,0.4,0.1,0.8,0.1,1.2c0,0.6-0.1,1.2-0.1,1.8l0,0c0,0,0,0,0,0l0,0c0,0.2-0.1,0.5-0.1,0.7c0,0.1-0.1,0.3-0.2,0.4
		c-0.6,0.7-1.2,1.5-1.9,2.5c0,0-0.1,0.1-0.1,0.1c0,0,0,0,0,0c-0.3-2.1-0.3-4-0.1-5.7c0.2-2,0.7-3.8,1.6-5.4c0,0,0,0,0,0
		C216.8,132.7,216.9,132.9,217,133.7C217,133.6,217,133.6,217,133.7z M202.3,157.4c0.1-0.7,0.1-1.5,0.2-2.2c0-0.5,0.1-1,0.1-1.5
		c0-0.5,0.2-0.9,0.3-1.4c0.8-2.3,0.6-4.7,0.3-6.8v0c-0.2-1.8-0.1-3.5,0.5-5.2c0.1-0.3,0.2-0.6,0.2-1l0,0l0,0c0.3-1.6,1-2.3,2.8-2.6
		c0.1,0.3,0.2,0.6,0.3,0.9c0.6,1.6,1.3,3.2,0.8,5c-0.2,0.9-0.6,1.8-1,2.7l0,0.1c-0.2,0.6-0.5,1.2-0.7,1.7c-0.3,0.7-0.6,1.5-0.9,2.2
		c-0.2,0.6-0.3,1.2-0.3,1.7c0,0.9,0,2.1,0.2,3.2c0.3,1.4,0.1,2.7-0.5,3.9c-0.3,0.7-0.7,1.3-1,2l0,0c-0.2,0.3-0.3,0.6-0.5,0.9
		c0-0.1-0.1-0.2-0.1-0.3C202.6,159.6,202.2,158.6,202.3,157.4z M204.1,161.8c0.1-0.1,0.2-0.2,0.3-0.3c0.2-0.2,0.5-0.5,0.7-0.7
		c0.5-0.5,1-1,1.5-1.6c0.1-0.1,0.3-0.3,0.4-0.4c1.5-1.7,3.1-3.6,5.3-4.7c1.8-1,4.8-1.2,7.1,0.7c0.1,0.1,0.1,0.1,0.2,0.2l0,0
		c0,0,0,0,0,0c-0.3,0.1-0.6,0.1-0.9,0.2c-0.7,0.1-1.4,0.2-2.1,0.4c-1.3,0.3-2.5,1-3.6,2.1c-1.2,1.1-2.6,1.9-4,2.7
		c-0.4,0.2-0.8,0.5-1.2,0.7c-1.2,0.7-2.5,0.8-3.7,0.7L204.1,161.8z M206.7,152.4c0,0.9,0.1,1.8-0.3,2.6c-0.4-1.9-0.9-4.1,0.1-6.3
		c0.2-0.4,0.4-0.9,0.6-1.3c0.3-0.5,0.5-1,0.7-1.5c0.3-0.8,0.6-1.6,0.8-2.4c0.1-0.3,0.2-0.7,0.4-1.1c0-0.1,0.1-0.2,0.1-0.4l0-0.1
		c0.2,0.9,0,1.6-0.1,2.3c0,0.1,0,0.2,0,0.3c-0.2,1.3-0.7,2.6-1.4,3.8C206.9,149.5,206.6,150.8,206.7,152.4z M205.1,162.9
		c0.1,0,0.2-0.1,0.3-0.1c0.8,0,1.9-0.2,3.7-1.3l0,0c1.7-1,3.4-2.1,4.9-3.4c0.9-0.8,1.9-1.3,3.3-1.6c-2,2.5-4.6,4.4-7.8,5.9
		c-1.2,0.6-2.6,0.8-4,0.7C205.3,163.1,205.1,163,205.1,162.9C205,162.9,205,162.9,205.1,162.9z M232.5,153.3
		c-0.3,0.3-0.5,0.7-0.7,0.9c-0.4,0.5-0.7,1-1.1,1.5c-0.3,0.3-0.6,0.6-0.9,0.9c-2,1.4-4.3,2.3-6.7,3.3c-0.8,0.3-1.7,0.7-2.6,1.1
		c0-0.2,0-0.4,0-0.6c0-0.4,0-0.8-0.1-1.1c0-0.8-0.2-1.7-1.5-1.9l0-0.2c0.2-0.1,0.4-0.1,0.6-0.2c0.4-0.1,0.8-0.3,1.3-0.3
		c2-0.3,3.9-1.2,5.9-2.7c1.1-0.8,2.1-1.4,3-1.9l0,0c0.7-0.4,1.7-0.8,2.7,0.1C232.8,152.6,232.9,152.8,232.5,153.3z M224.2,154.4
		c-0.4,0.2-0.8,0.4-1.2,0.6c-0.2,0.1-0.3,0.2-0.5,0.2l-0.1-0.1c0.1-0.1,0.2-0.1,0.3-0.2l0,0c0.2-0.2,0.5-0.3,0.7-0.5
		c1.9-1.2,3.2-2.9,4.3-5.7c0.3-0.7,0.8-1.4,1.2-1.9c0.3-0.4,0.7-0.8,1.1-1.2c0.2-0.2,0.3-0.3,0.5-0.5c0.4,0.6,0.2,1.1,0,1.6
		c-0.3,0.6-0.6,1.2-1,1.7l0,0c-0.4,0.8-0.9,1.5-1.3,2.3C227.2,152.5,225.7,153.5,224.2,154.4z M214.5,152.4c-1.8,0.2-3.4,1.1-5,2.1
		c0.1-0.1,0.1-0.2,0.2-0.4c0.2-0.4,0.3-0.8,0.5-1.1c0.3-0.5,0.6-1.1,0.8-1.6c0.5-0.9,1-1.8,1.4-2.7c0.5-1.2,1.3-2.2,2.1-3.1l0.2-0.3
		c0.4-0.5,0.8-1.1,1.2-1.6l0,0c0.3-0.4,0.6-0.8,0.9-1.2c0.8-1,1.8-1.6,3.4-2c0.2,0,0.4-0.1,0.5-0.1c0.9,0,1.6,0.6,2.2,1.1
		c0.3,0.3,0.6,0.6,0.8,1c0.1,0.2,0.3,0.3,0.4,0.5C218.9,144.4,215.7,147.5,214.5,152.4z M214.7,133.1c0,0.2-0.1,0.4-0.1,0.5
		c-1.4,2.9-1.4,6-1.2,8.5c0.1,1,0,2-0.1,3l0,0.2c0,0.2-0.1,0.3-0.3,0.5c-0.1,0.1-0.1,0.2-0.2,0.2c-0.2,0.3-0.3,0.6-0.5,0.8
		c-0.3,0.6-0.7,1.1-1,1.7c-0.9,1.7-1.8,3.4-2.6,5.1c-0.3,0.6-0.6,1.1-0.9,1.7c0,0,0,0.1,0,0.1c-0.1,0.1-0.2,0.3-0.2,0.5
		c-0.1,0.7-0.5,1.3-1.2,1.7c0,0,0-0.1,0.1-0.1c0.1-0.2,0.2-0.4,0.3-0.6c0.7-1.3,1-2.7,0.9-4.3c-0.1-1.6,0.2-2.8,0.9-4
		c1-1.8,1.6-3.7,1.6-5.7c0-0.1,0-0.2,0-0.2c0-0.5,0-0.9-0.1-1.3c-0.4-1.2-0.2-2.4,0.8-3.5c0.2-0.3,0.4-0.5,0.7-0.8l0,0
		c1.1-1.3,2.3-2.6,3.1-4.2l0.1,0.1C214.8,132.9,214.7,133,214.7,133.1z M209.9,137.6c-0.2,0.4-0.3,0.7-0.5,1.1l0,0
		c-0.1,0.1-0.1,0.3-0.2,0.5c-0.6-0.5-0.8-1.1-0.9-1.9c-0.2-0.7-0.5-1.2-0.9-1.4c-0.2-0.1-0.5-0.2-0.7-0.2c-0.3,0-0.6,0.1-0.9,0.2
		c-0.7,0.3-1.5,0.6-2,1.4c-0.1,0.1-0.1,0.1-0.2,0.2c0,0-0.1,0.1-0.1,0.1c-0.4-0.4-0.5-0.9-0.5-1.3l0,0c0-0.1,0-0.2-0.1-0.3
		c-0.1-0.8,0-1.5,0.4-2.2c0.7-1.1,1.5-2.2,2.2-3.3l0-0.1c0.2-0.3,0.5-0.7,0.7-1c0,0,0.1-0.1,0.1-0.1c0,0,0.1,0,0.1-0.1
		c0.1,0.1,0.3,0.2,0.4,0.4c0.7,0.6,1.4,1.2,1.8,2.2c0.8,1.7,1.2,3.2,1.5,4.6C210.1,136.8,210.1,137.2,209.9,137.6z M201,160
		c0.1,0,0.2,0.2,0.2,0.5c0.1,0.8,0.4,1.6,1.1,2.4l0.2,0.2c0.7,0.8,1.4,1.7,2.6,1.8c0.9,0.1,1.6,0.5,2.4,0.9c0.1,0,0.1,0.1,0.2,0.1
		l0,0.2c-0.2,0-0.4,0-0.6,0c-0.5,0-1-0.1-1.5-0.2c-1.1-0.4-2-0.3-2.9,0.3c-1,0.7-2.1,0.6-3,0.4c-0.2,0-0.3-0.1-0.5-0.2l0,0
		c-0.1,0-0.1-0.1-0.2-0.1c0.1-0.4,0.1-0.8,0.2-1.2l0-0.1c0.1-1,0.3-2,0.4-3c0.1-0.7,0.5-1.2,1-1.7C200.7,160,200.9,159.9,201,160z
		 M207,164.1L207,164.1c0.2,0,0.3-0.1,0.4-0.1c1.5-0.2,2.9-0.8,4.5-1.8l0.2-0.1c1.7-1.1,3.5-2.2,4.9-3.8c0.4-0.5,1-0.3,1.6-0.2
		c0.1,0,0.2,0.1,0.3,0.1c0.5,0.1,0.5,0.5,0.5,0.9l0,0.1c0.1,1.2,0.1,1.9-0.2,2.3c-0.3,0.4-0.9,0.7-2,1.2c-1.6,0.7-3.2,1.5-4.8,2.2
		l-0.4,0.2c-1.9,0.9-2.2,0.9-3.9-0.3c-0.3-0.2-0.5-0.3-0.9-0.5c-0.1-0.1-0.3-0.1-0.4-0.2C206.9,164.1,206.9,164.1,207,164.1z
		 M210.2,167.1c0.3-0.1,0.5-0.3,0.8-0.3c0.6-0.1,1.2-0.1,1.8,0c0.5,0.1,1.1,0.2,1.6,0.4c0.5,0.1,0.9,0.3,1.4,0.3
		c1.8,0.4,3.6,0.1,5.3-0.1c0.2,0,0.4-0.1,0.6-0.1l0.2,0c0.1,0,0.3,0,0.4-0.1l1.9,2.2c-0.2,0-0.3-0.1-0.5-0.1l0,0
		c-0.4-0.1-0.8-0.2-1.2-0.2l-0.2,0c-0.4,0-0.7-0.1-1.1-0.1c-0.2,0-0.5,0-0.7,0.1c-2.3,0.4-4.5,0.2-6.9-0.5c-0.4-0.1-0.8-0.2-1.2-0.3
		c-0.2,0-0.4-0.1-0.7-0.2c-0.7-0.2-1.3-0.4-1.8-0.9C210,167.2,210.1,167.2,210.2,167.1z M228.1,160.2c-2,1.5-4.3,2.4-7,2.9
		c-0.5,0.1-1,0.2-1.5,0.3c-0.4,0.1-0.8,0.2-1.3,0.2c-0.1,0-0.2,0-0.3,0l0,0c0,0,0,0,0,0c1.8-1.5,3.9-2.4,6-3.2
		c0.4-0.2,0.8-0.3,1.1-0.5c1.5-0.6,2.9-1.4,4.3-2.1l0.5-0.3c0.9-0.5,1.5-1.3,2-2.1c0.1-0.1,0.2-0.3,0.3-0.4c0.5-0.7,0.7-0.9,1.3-1.1
		c0,0.2,0,0.3,0,0.5c0,0.4,0,0.8,0,1.2c0,0.2-0.1,0.5-0.2,0.6c-0.9,1.2-2.1,2.6-3.8,3.3C229.1,159.6,228.6,159.9,228.1,160.2z
		 M227.7,142.3C227.8,142.3,227.8,142.3,227.7,142.3c0.2,0.1,0.4,0.2,0.6,0.3l0,0c0.4,0.2,0.7,0.5,1.1,0.7c0.2,0.2,0.3,0.4,0.4,0.6
		c0,0.1,0.1,0.2,0.2,0.3c-0.1,0.2-0.3,0.3-0.4,0.5c-0.3,0.3-0.6,0.7-0.9,0.9c-0.8,0.6-1.3,1.5-1.8,2.5c-0.5,1.1-1,2.1-1.5,3
		c-0.7,1.3-1.8,2-3.2,2.9c-0.3,0.2-0.6,0.4-0.9,0.6l-0.5,0.3c-1.5-1.5-3.2-2.3-5.3-2.5c-0.1-0.9,0.2-1.5,0.6-2.1
		c1.4-2.4,3.1-4,5.1-5.1l0,0c0.5-0.2,0.9-0.5,1.4-0.6c1.7-0.4,3.3-1.2,4.6-2C227.5,142.4,227.6,142.4,227.7,142.3L227.7,142.3z
		 M198.7,146.9c-0.3-0.7-0.5-1.5-0.8-2.2c-0.3-0.9-0.9-1.6-1.4-2.4c-0.1-0.1-0.2-0.2-0.2-0.3c-0.7-0.9-1-1.7-1.1-2.7
		c-0.1-1,0.2-2,0.8-2.9c0.5-0.7,1-1.4,1.4-2.1l0.1-0.1c0.2-0.3,0.4-0.5,0.6-0.8c0,0,0,0,0,0c0.1,2.3,1.3,3.9,3.8,5.2
		c0.3,0.1,0.5,0.3,0.8,0.5c0.1,0.1,0.2,0.2,0.4,0.2c-0.1,0.2-0.1,0.5-0.2,0.7c-0.1,0.5-0.2,1-0.4,1.5c-0.3,1-0.3,2.1-0.2,3.2
		c0.1,0.6,0.1,1.2,0.2,1.9c0,0.4,0.1,0.7,0.1,1.1c0.2,1.7-0.3,3.4-0.7,5.1c0,0.1-0.1,0.3-0.1,0.4c-0.1,0.6-0.2,1.3-0.3,2
		c0,0.3-0.1,0.5-0.1,0.8l0-0.1c-0.1-0.2-0.1-0.3-0.2-0.4c0,0,0-0.1,0-0.1c0,0,0,0,0,0C200.8,152.5,199.7,149.6,198.7,146.9
		L198.7,146.9L198.7,146.9L198.7,146.9z M227.7,142.3L227.7,142.3L227.7,142.3L227.7,142.3z M231,160c0,0.1-0.1,0.2-0.2,0.3
		c-1.1,0.8-2.2,1.8-3.3,3.1c-0.9,1-2.1,1.8-3.7,2.4c-2.7,1-5.2,1.3-7.5,1c-0.7-0.1-1.5-0.3-2.2-0.5c-0.3-0.1-0.7-0.2-1.1-0.3
		c0.2-0.1,0.4-0.2,0.6-0.3c0.5-0.3,0.9-0.5,1.4-0.7c0.2-0.1,0.4-0.1,0.7,0c0.1,0,0.3,0,0.4,0c2-0.1,4.1-0.5,5.8-0.9
		c2.5-0.5,4.7-1.5,6.7-2.9c0.5-0.4,1.1-0.7,1.7-0.9c0.2-0.1,0.5-0.2,0.8-0.4l0.1,0.1C231.1,159.9,231.1,160,231,160L231,160L231,160
		z M185.6,199.6l0.6-2.2c0.3,0,0.5-0.1,0.8-0.1c0.6-0.1,1.2-0.1,1.8-0.2c1-0.2,1.7-0.1,2.5,0.5c0.4,0.4,0.9,0.6,1.4,0.9
		c0.2,0.1,0.3,0.2,0.5,0.2L185.6,199.6z M176.8,206.4c-0.1,0.3-0.2,0.6-0.3,0.9l0,0c-0.2,0.7-0.5,1.5-0.7,2.3
		c-0.2,0.5-0.3,1-0.5,1.5c-0.4,1.2-0.8,2.4-1.3,3.6c-0.7,1.5-1.5,3-2.3,4.4c-0.2,0.3-0.4,0.6-0.6,1c-0.8,1.4-1.6,2.7-2.4,4
		c-0.2,0.3-0.5,0.6-0.8,0.8c-0.1,0.1-0.3,0.2-0.4,0.4c-0.4-0.5-0.2-0.8,0-1.2c0.2-0.3,0.4-0.6,0.5-0.9c0.3-0.5,0.6-1,0.9-1.6
		c0.7-1.3,1.3-2.6,1.8-3.7c0.2-0.4,0.4-0.9,0.6-1.3c0.8-1.6,1.5-3.3,2.2-4.9c0.4-1.1,0.8-2.2,1.1-3.2c0.1-0.5,0.3-1,0.5-1.4l0.6-1.7
		L176.8,206.4z M146.8,171.2c-1.5,1.3-4,1.4-5.4,0.2c0.5-0.6,1-0.8,1.6-0.7c0.9,0.1,1.9,0.3,2.8,0.4
		C146.2,171.1,146.5,171.2,146.8,171.2z M185.9,200.7L185.9,200.7c0.2,0,0.4-0.1,0.6-0.1c1.5-0.4,2.7-0.1,3.7,1.1
		c0.2,0.2,0.3,0.3,0.5,0.5c0.1,0.1,0.2,0.2,0.2,0.3c-0.5,0.3-1.1,0.5-1.7,0.7c-0.9,0.3-1.7,0.5-2.4,1.3c-0.9-1.1-2-2.3-3.5-2.9
		c0.2-0.1,0.3-0.1,0.5-0.2l0,0c0.5-0.2,1.1-0.3,1.6-0.5C185.5,200.8,185.7,200.8,185.9,200.7C185.8,200.7,185.9,200.7,185.9,200.7z
		 M169,154.4c0.4,0.7,0.8,1.5,1.3,2.2c0.9,1.5,1,3.2,1,5c0,0.4,0,0.8-0.1,1.3c0,0.2,0,0.3-0.1,0.5l-0.2,0c0-0.1,0-0.2,0-0.3l0,0
		c0-0.3,0-0.5,0-0.8c0-2.1-0.8-4-2.5-6.3c-0.4-0.6-0.8-1.3-1-1.9c-0.2-0.5-0.3-1-0.4-1.5c0-0.2-0.1-0.4-0.2-0.6
		c0.7-0.1,1,0.4,1.3,0.8v0C168.4,153.3,168.7,153.8,169,154.4z M172.1,155.9c0-0.8,0.2-1.8,1.4-2.2c0.6-0.2,0.8-0.1,1,0.5
		c0.1,0.3,0.3,0.7,0.4,1l0,0c0.2,0.5,0.4,1.1,0.6,1.7c0.1,0.4,0.2,0.8,0.2,1.2c0.1,2.4-0.2,4.6-0.6,7l0,0c-0.1,0.8-0.3,1.7-0.4,2.6
		c-0.1-0.1-0.3-0.1-0.4-0.2l-0.1,0c-0.3-0.2-0.7-0.3-1-0.5c-0.3-0.1-0.7-0.3-1.1-0.3c-0.4,0-0.8,0.2-1.1,0.6c0,0-0.1-0.1-0.1-0.1
		c0-0.2,0.1-0.4,0.1-0.5c0.1-0.4,0.2-0.8,0.4-1.2c0.7-1.8,1-3.7,0.7-6.1c0,0,0,0,0,0C172.1,157.9,172.1,156.9,172.1,155.9z
		 M176.9,154.4c0.2,0.1,0.3,0.3,0.4,0.5c0.5,1.4,1.1,3,0.8,4.7c-0.1,0.5-0.1,1-0.1,1.6c0.2,2.4-0.1,4.7-1.1,7.1
		c-0.2,0.4-0.3,0.9-0.5,1.3l0,0c-0.1,0.4-0.3,0.8-0.4,1.1c0,0.1-0.1,0.2-0.1,0.2c0,0,0,0,0,0c-0.3-2.2,0-4.4,0.3-6.4
		c0.1-0.4,0.1-0.8,0.2-1.2c0.2-1.5,0.3-3,0.4-4.5l0-0.6c0.1-1-0.4-1.9-0.8-2.7c-0.1-0.1-0.1-0.3-0.2-0.4c-0.3-0.7-0.4-1-0.3-1.6
		c0.1,0.1,0.3,0.1,0.4,0.2l0,0l0,0C176.2,154,176.6,154.2,176.9,154.4z M179,159.4c0-0.3,0-0.5,0.1-0.8l0.1,0c0,0,0,0.1,0.1,0.1
		c0.1,0.1,0.1,0.2,0.1,0.3c0.1,1.3,0.4,2.7,0.9,4.2c0.4,1.2,0.4,2.6,0.1,4.2c-0.5,2.7-1.5,4.8-2.9,6.6c-0.4,0.5-1,1-1.5,1.6
		c-0.2,0.2-0.5,0.5-0.7,0.7c0-0.2,0-0.5,0-0.7c0-0.5,0-1,0.1-1.5c0-0.2,0.2-0.4,0.3-0.6c0.1-0.1,0.2-0.2,0.2-0.3
		c0.9-1.7,1.6-3.5,2.1-5.1c0.8-2.3,1.1-4.5,0.9-6.9c0,0,0,0,0,0C178.9,160.6,178.9,160,179,159.4z M170.8,180.2
		c0-0.1,0.1-0.2,0.1-0.3c0.6-1.3,0.8-2.7,0.8-4.5l0-0.2c0-1.9,0-3.9-0.7-5.9c-0.2-0.6,0.2-1,0.6-1.4c0.1-0.1,0.2-0.1,0.2-0.2
		c0.1-0.1,0.3-0.2,0.4-0.2c0.2,0,0.4,0.1,0.6,0.2c0,0,0.1,0,0.1,0.1c2.1,1.1,2.1,1.3,1.8,3.5c-0.2,1.6-0.4,3.3-0.5,5l0,0.5
		c-0.2,2-0.3,2.3-2.2,3.1c-0.3,0.1-0.5,0.3-0.9,0.4l0,0c-0.1,0.1-0.2,0.1-0.4,0.2C170.7,180.3,170.7,180.3,170.8,180.2L170.8,180.2
		L170.8,180.2z M168.9,181.2C168.9,181.2,168.9,181.2,168.9,181.2c0-0.1,0.1-0.2,0.1-0.3c0.4-0.7,0.8-1.7,0.8-3.7l0,0
		c0-1.9,0-3.8-0.4-5.7c-0.2-1.1-0.1-2.2,0.3-3.5c1,2.9,1.3,5.9,0.9,9.3c-0.1,1.3-0.6,2.5-1.4,3.6C169.1,181.1,169,181.2,168.9,181.2
		C168.8,181.2,168.8,181.2,168.9,181.2L168.9,181.2L168.9,181.2z M169.3,165.7c0.1,0,0.1,0,0.2,0c0,0,0,0,0,0
		c-0.1,0.3-0.2,0.6-0.3,0.8c-0.3,0.6-0.5,1.3-0.7,1.9c-0.4,1.2-0.4,2.5-0.1,3.9c0.3,1.5,0.3,3.1,0.3,4.6c0,0.4,0,0.9,0,1.3
		c0,1.3-0.6,2.4-1.3,3.3l0-0.1c0-0.1-0.1-0.2-0.1-0.3c-0.1-0.3-0.1-0.6-0.2-0.9l0,0c-0.2-0.7-0.3-1.3-0.5-2
		c-0.1-0.2-0.1-0.3-0.2-0.5c-0.7-2.1-1.4-4.3-1.2-6.6C165.3,169.1,166.7,166.5,169.3,165.7z M179.5,199.3c0.2,0.7,0.1,1.3-0.1,2l0,0
		c0,0.2-0.1,0.3-0.1,0.5c0,0.1-0.1,0.2-0.2,0.2c-0.6,0.3-1.3,0.7-2,1l0,0l-0.5,0.3C176.2,201.1,177.2,199.8,179.5,199.3z
		 M178.8,204.3c0.4,0.3,0.9,0.6,1.3,0.9l0,0c0.2,0.1,0.3,0.3,0.5,0.4l-0.1,0.2c-1.2,0.3-2.2,0.3-3-0.1c-0.5-0.3-0.8-0.6-0.9-1.1
		C177.5,203.8,178,203.7,178.8,204.3z M182,191.2c-0.1,1.7-0.5,3.3-1.1,5c-0.6,1.5-1.4,2.3-2.8,2.4c-0.3,0-0.7,0.2-0.9,0.3
		c-0.4-0.6-0.7-1.1-1-1.7c-0.4-0.7-0.8-1.3-1.2-2c-0.9-1.4-1.9-2.9-2.8-4.2l0,0c-0.5-0.7-1-1.5-1.5-2.2c-0.1-0.1-0.1-0.3-0.2-0.4
		c0-0.1-0.1-0.1-0.1-0.2c-0.2-0.3-0.1-0.6,0.1-0.8c0.8-0.9,0.9-2,0.9-2.9c0-0.3,0.2-0.8,0.4-1.1c0.3-0.4,0.7-0.9,1-1.3
		c0.3-0.3,0.5-0.6,0.8-1c0.2-0.3,0.4-0.5,0.8-0.6c0.8-0.2,1.6-0.6,2.4-1.2c0.4-0.3,0.7-0.6,1.1-0.9c0.1-0.1,0.3-0.2,0.4-0.4
		c0.4-0.3,0.8-0.7,1.1-1.1l0,0.2c-0.2,1.3-0.4,2.6,0,4c0.1,0.2,0.1,0.5,0,0.8c-0.4,1.1,0,2,1.2,2.6c0.8,0.4,1.2,0.9,1.4,1.6
		C182,187.7,182.1,189.5,182,191.2z M163,176.3c-1.8-0.6-3.8-1.3-5.1-3.2c-0.3-0.4-0.5-0.8-0.8-1.2c-0.3-0.5-0.6-0.9-0.9-1.4
		c-0.5-0.6-1-1.3-1.5-1.9l0,0c-0.2-0.3-0.4-0.5-0.7-0.8c-0.1-0.1-0.1-0.2-0.2-0.3l-0.1-0.1c0.8,0.3,1.3,0.8,1.8,1.2
		c0.1,0.1,0.1,0.1,0.2,0.2c1,0.8,1.8,1.9,2.4,3c0.6,1.2,1.6,2.1,2.9,2.8C161.8,175.1,162.6,175.5,163,176.3z M185,198.6
		c0,0,0,0.1,0,0.1c0,0,0,0.1,0,0.1c0,0.1-0.1,0.1-0.1,0.2c-0.3,0.9-0.8,1.3-1.7,1.5c-0.6,0.1-1.3,0.3-1.9,0.6l0,0
		c-0.3,0.1-0.5,0.2-0.8,0.3l0-2.5c0.3-0.2,0.5-0.3,0.8-0.5c0.7-0.4,1.4-0.9,2.2-1.3c0.8-0.4,1.4-0.5,1.7-0.1
		C185.5,197.4,185.2,198,185,198.6L185,198.6z M181.7,184.5c-0.3-0.3-0.7-0.7-1-1c-0.4-0.4-0.6-0.7-0.5-1.2c0.1-0.7,0-1.4-0.1-2.1
		c-0.1-0.8,0-1.6,0.2-2.3c0.3,0.9,0.6,1.9,1,2.8c0.6,1.5,1.1,3,1.3,4.6c-0.1,0-0.1-0.1-0.1-0.1c-0.1-0.1-0.2-0.1-0.2-0.2l0,0l0,0
		C182,184.9,181.8,184.7,181.7,184.5z M180.6,173.7c-0.2-0.2-0.4-0.2-0.6-0.1c-0.2,0.1-0.3,0.5-0.4,0.8c0,0,0,0.1,0,0.1
		c-0.1,0.3-0.1,0.6-0.1,0.9c-0.5,0.6-1.1,1.2-1.7,1.7c-0.3,0.2-0.6,0.5-0.8,0.8c-0.1,0.2-0.3,0.3-0.5,0.5c-0.5,0.4-1,0.9-1.6,1
		c0-0.1,0-0.2,0-0.3c0-0.3,0-0.6,0.1-0.8c0.2-0.5,0.6-1,0.9-1.4c0.3-0.4,0.7-0.7,1.1-1.1c0.3-0.3,0.7-0.6,1-1
		c1.2-1.3,1.9-2.9,2.5-4.4c0.1-0.2,0.1-0.3,0.2-0.5c0-0.1,0-0.1,0.1-0.2c0-0.1,0.1-0.2,0.1-0.3l2.7-0.4c-0.1,0.1-0.2,0.2-0.3,0.3
		c-0.3,0.3-0.5,0.6-0.8,0.9l-0.1,0.2c-0.3,0.4-0.7,0.9-0.9,1.4C181.2,172.5,180.9,173.1,180.6,173.7z M170,163.8l0,0.6
		c-1.9,0.5-3.4,1.5-4.6,3c-0.7-0.3-1.1-0.9-1.5-1.5c-1.2-2.3-1.8-4.5-1.6-6.7c0,0,0,0,0,0l0,0c0-0.5,0.1-1,0.2-1.4
		c0.6-1.6,0.7-3.2,0.7-4.7c0-0.1,0-0.3,0-0.4c0,0,0-0.1,0-0.1c0.2-0.1,0.3-0.2,0.5-0.2c0.4-0.2,0.7-0.4,1.1-0.5c0.2-0.1,0.5,0,0.7,0
		c0.1,0,0.2,0,0.3,0c0.1,0.2,0.1,0.4,0.2,0.6c0.1,0.4,0.3,0.8,0.3,1.2c0.1,1,0.6,1.8,1.2,2.6c0.6,0.9,1.2,1.9,1.7,2.7
		c0.7,1.2,0.7,2.5,0.8,4C170,163.2,170,163.5,170,163.8z M164.2,173.4c-0.1-0.1-0.1-0.2-0.2-0.3l0,0c-0.2-0.3-0.5-0.6-0.7-1
		c-0.3-0.5-0.6-1-0.9-1.5c-0.5-0.8-1-1.6-1.5-2.4c-0.7-1-1.1-2.2-1.5-3.3l-0.1-0.3c-0.2-0.6-0.5-1.2-0.7-1.8l0,0
		c-0.2-0.4-0.4-0.9-0.5-1.4c-0.4-1.1-0.4-2.3,0.1-3.7c0.3-1.1,1.3-1.5,2.2-1.7c0.4-0.1,0.8-0.1,1.2-0.2c0.2,0,0.4,0,0.6-0.1
		c-1.5,5-0.6,9.1,2.9,12.5C164.2,169.9,164.2,171.6,164.2,173.4z M158,164.1C158,164.1,158,164.1,158,164.1
		c-1.9-0.8-3.4-1.6-4.7-2.6c-1.5-1.1-2.7-2.4-3.6-4c0.4-0.6,0.5-0.7,1.2-0.4c0,0,0,0,0.1,0c0.8,0.7,1.8,1.2,2.8,1.7
		c0.3,0.2,0.7,0.3,1,0.5c0.5,0.3,1,0.7,1.4,1c0.2,0.1,0.3,0.3,0.5,0.4c0.1,0.1,0.2,0.2,0.2,0.3c0.3,0.8,0.7,1.7,1.1,2.8
		C158,163.9,158,164,158,164.1z M158.4,165.7l0.2,0.1c0.1,0.1,0.2,0.3,0.3,0.5c0,0.1,0.1,0.2,0.1,0.2c0.1,0.3,0.3,0.6,0.4,0.8
		c0.3,0.6,0.6,1.1,0.9,1.7c0.9,1.5,1.9,3.1,2.8,4.6l0,0c0.3,0.5,0.6,1,1,1.5c0,0,0,0.1,0.1,0.1c0.1,0.1,0.2,0.3,0.3,0.4
		c0.5,0.4,0.8,1,0.8,1.8c0,0,0-0.1-0.1-0.1l0,0c-0.1-0.2-0.3-0.3-0.4-0.5c-0.7-1.2-1.7-2.1-3.1-2.9c-1.3-0.7-2.2-1.6-2.8-2.7
		c-0.9-1.7-2.2-3.1-3.8-4.1c-0.1,0-0.1-0.1-0.2-0.1l0,0c-0.4-0.2-0.7-0.5-1.2-0.6c-1.2-0.2-2-1-2.5-2.4c-0.1-0.3-0.2-0.6-0.3-0.9
		c-0.5-1.5-1-3.1-1.9-4.6l0.1-0.1c0.1,0,0.1,0.1,0.2,0.1c0.1,0.1,0.3,0.2,0.4,0.4c1.7,2.6,4.2,4.1,6.3,5.2
		C156.9,164.6,157.7,165.2,158.4,165.7z M151.6,166.2c-0.7,0.2-1.3,0.1-2-0.2c-0.6-0.2-1.2-0.2-1.6,0c-0.4,0.2-0.7,0.7-0.8,1.3
		c-0.1,0.7-0.2,1.5,0.1,2.3c0,0.1,0,0.2,0.1,0.3c0,0,0,0.1,0,0.1c-0.5,0.1-0.9,0-1.3-0.2c-0.1,0-0.2-0.1-0.3-0.1
		c-0.7-0.3-1.3-0.7-1.6-1.4c-0.6-1.1-1.1-2.3-1.6-3.4l0-0.1c-0.2-0.4-0.3-0.7-0.5-1.1c0,0,0-0.1,0-0.2c0,0,0-0.1,0-0.1
		c0.2,0,0.3-0.1,0.5-0.1c0.9-0.3,1.7-0.5,2.6-0.4c1.8,0.2,3.2,0.6,4.5,1c0.5,0.2,0.8,0.4,1,0.7c0.2,0.3,0.4,0.6,0.7,1
		C151.4,165.9,151.5,166.1,151.6,166.2z M141.5,172.5c1.9,1,3.8,0.8,6.1-0.5c0.2-0.1,0.5-0.3,0.8-0.4l0,0c0.1-0.1,0.2-0.1,0.4-0.2
		c0.2,0.2,0.3,0.3,0.5,0.5c0.4,0.4,0.7,0.7,1,1.1c0.7,0.8,1.6,1.2,2.5,1.7c0.5,0.3,1.1,0.5,1.6,0.8c0.3,0.2,0.6,0.3,0.9,0.5
		c1.5,0.7,2.7,1.9,3.8,3l0.3,0.3c0.4,0.4,0.9,0.8,1.4,1.2c0.2,0.2,0.4,0.3,0.6,0.5l0,0c-0.1,0-0.3,0-0.4-0.1c0,0-0.1,0-0.1,0l0,0
		c-2.6-1.2-5.4-1.8-8.1-2.3c-0.7-0.1-1.5-0.3-2.2-0.5c-0.8-0.2-1.7-0.1-2.6,0l0,0c-0.1,0-0.2,0-0.3,0c-1.1,0.1-1.9,0-2.7-0.4
		c-0.9-0.4-1.5-1.1-1.9-2c-0.3-0.7-0.7-1.5-1-2.2C141.8,173.1,141.6,172.8,141.5,172.5C141.5,172.5,141.5,172.5,141.5,172.5z
		 M159.2,177.7c-1.5-1.8-3.5-2.8-5.3-3.6c-1.6-0.7-2.9-1.6-4-2.9c-0.2-0.2-0.4-0.4-0.7-0.6l0,0c-1.2-1-1.4-1.9-0.7-3.5
		c0.3,0.1,0.6,0.1,0.9,0.1l0,0c1.6,0.3,3.2,0.5,4.4,1.8c0.6,0.7,1.2,1.4,1.7,2.1l0,0c0.4,0.5,0.7,1,1,1.5c0.4,0.6,0.9,1.2,1.3,1.8
		c0.4,0.5,0.8,0.9,1.3,1.1c0.8,0.5,1.7,1,2.7,1.4c1.3,0.5,2.2,1.3,2.9,2.3c0.4,0.6,0.7,1.2,1.1,1.8l0,0c0.2,0.3,0.3,0.6,0.5,0.9
		c-0.1,0-0.2,0-0.3-0.1c-1.2-0.2-2.2-0.4-3-1.1c-0.5-0.4-1.1-0.8-1.7-1.2c-0.4-0.3-0.8-0.6-1.2-0.8
		C159.8,178.4,159.5,178,159.2,177.7z M164.5,183c0,0,0.1-0.1,0.2-0.1c0.1,0,0.2,0,0.3,0.1c0.7,0.3,1.5,0.4,2.5,0.3
		c0.1,0,0.1,0,0.2,0l0,0c1-0.2,2-0.3,2.7-1.2c0.5-0.7,1.2-1.1,1.9-1.5c0.1,0,0.1-0.1,0.2-0.1l0.2,0.2c-0.1,0.2-0.2,0.3-0.3,0.5
		c-0.3,0.4-0.5,0.8-0.9,1.1c-0.8,0.7-1.2,1.5-1.2,2.5c0,1.1-0.6,2-1.2,2.6c-0.1,0.1-0.2,0.2-0.4,0.3c-0.1,0-0.1,0.1-0.2,0.1
		c-0.3-0.3-0.6-0.5-0.9-0.8c-0.8-0.6-1.5-1.2-2.3-1.8c-0.5-0.4-0.7-1-0.9-1.7C164.3,183.3,164.3,183.1,164.5,183z M169.4,188.5
		c0.3,0.4,0.5,0.8,0.8,1.2l0,0.1c0.6,1,1.2,2,1.9,2.9c0.4,0.6,0.8,1.2,1.3,1.9c0.8,1.1,1.6,2.3,2.3,3.6c0.2,0.4,0.5,0.9,0.8,1.4
		c-0.2,0.3-0.4,0.8-0.5,1.2c0,0,0,0.1,0,0.1c-0.4-0.8-0.9-1.7-1.2-2.6c0,0,0,0,0,0l0-0.1c-0.1-0.2-0.2-0.4-0.3-0.6
		c-0.4-0.9-0.9-1.7-1.4-2.4c-1-1.4-2-2.9-3-4.3l-0.1-0.1c-0.4-0.6-0.8-1.2-1.2-1.7c-0.1-0.1-0.1-0.2-0.2-0.3l0,0c0,0,0-0.1-0.1-0.1
		L169.4,188.5z M177.3,208.1c0.1-0.3,0.3-0.7,0.4-0.9c0-0.1,0.1-0.2,0.1-0.2c0.3,0,0.7-0.1,1-0.1l0.2,0.3c0.3,0.4,0.6,0.8,0.9,1.3
		c1,1.4,1.6,2.9,2.3,4.5c0.2,0.4,0.3,0.8,0.5,1.2c0,0-0.1,0-0.1,0l0,0l0,0c-0.1,0-0.1,0-0.1,0c-1-0.9-2.1-1.8-2.9-2.9
		c-0.2-0.4-0.5-0.7-0.7-1.1c-0.2-0.4-0.4-0.7-0.7-1.1C178,208.8,177.7,208.5,177.3,208.1L177.3,208.1z M180.6,207.9
		c0,0-0.1-0.1-0.1-0.1c-0.2-0.3-0.4-0.6-0.7-0.9c0.6-0.1,1.1-0.1,1.5-0.1c0,0,0.1,0,0.1,0l0,0c0,0.1,0.1,0.1,0.1,0.2
		c1.4,1.7,2.2,3.7,2.9,5.4c0,0,0,0,0,0c0,0,0,0,0,0.1c0,0,0,0.1,0,0.1c0.7,1.1,0.8,2.2,0.2,3.5c-0.5-0.5-0.8-1.1-1.1-1.8
		c-0.1-0.1-0.1-0.3-0.2-0.4c-0.5-1-1-2-1.4-3l0,0c-0.3-0.7-0.7-1.5-1.1-2.3C180.9,208.3,180.8,208.1,180.6,207.9L180.6,207.9z
		 M179.2,203.5c-0.2-0.1-0.3-0.2-0.5-0.3c0.3-0.1,0.5-0.3,0.8-0.4c0.6-0.3,1.2-0.6,1.8-0.7c0.4-0.1,1,0.1,1.4,0.2
		c1.3,0.5,2.3,1.4,3.2,2.7c-0.8,0.7-1.7,0.6-2.5,0.5c0,0,0,0,0,0c-0.3,0-0.6-0.1-0.9-0.1c-0.2,0-0.5,0-0.7,0.1
		C181.2,204.6,180.3,204.1,179.2,203.5z M185.5,194.1C185.5,194.1,185.4,194.2,185.5,194.1c-0.7,1.3-1.7,2-3.1,2.2
		c0.1-0.7,0.6-1.4,1-2c0.1-0.1,0.2-0.3,0.3-0.4c0.7-1,1.3-2,2-3c0.5-0.7,1-1.5,1.5-2.2c0.1-0.2,0.2-0.4,0.3-0.6
		c0-0.1,0.1-0.1,0.1-0.2c0.3-0.6,0.6-1.3,0.8-1.9l0-0.1c0.5-1.2,1.1-2.5,1.6-3.7c0.7-1.7,1.8-3.2,2.8-4.7c0.1-0.2,0.3-0.4,0.4-0.6
		c0.6-0.8,1-1.7,1.4-2.6c0.8-1.7,1.5-3.4,2.2-5c0.3-0.7,0.6-1.4,0.9-2.2c0-0.1,0.1-0.2,0.2-0.3c0,0,0-0.1,0.1-0.1l0.8,0.7
		c-0.2,0.5-0.5,1-0.7,1.5l0,0c-0.5,1.1-1.1,2.2-1.6,3.3c-0.3,0.7-0.7,1.4-1,2.1c-0.6,1.3-1.2,2.7-2,4c-1.4,2.5-2.4,4.6-3.2,6.6
		c-0.6,1.5-1,2.6-1.4,3.6C188.1,190.7,186.8,192.5,185.5,194.1C185.6,194.1,185.5,194.1,185.5,194.1z M184.3,182.2
		c0.2,0.9,0.1,1.9,0.1,2.8l0,0c0,0.2,0,0.5,0,0.7c0,0.1-0.1,0.3-0.3,0.5c-0.1,0.1-0.2,0.2-0.3,0.3c0-0.1-0.1-0.2-0.1-0.4
		c-0.1-0.2-0.1-0.4-0.1-0.6c-0.1-1.6-0.6-3.2-1.1-4.6c-0.4-1.2-0.8-2.4-1.2-3.6c-0.2-0.5-0.3-1-0.5-1.5l0.1-0.1
		c0.4,0.6,0.8,1.2,1.2,1.8l0,0l0,0C182.9,179.1,184,180.5,184.3,182.2z M168.9,207.7c-0.5-0.1-1-0.2-1.5-0.3l0-0.1c0,0,0,0,0.1,0
		c0.6,0,1.3,0,1.9-0.1l0,0c1.5-0.1,3.1-0.2,4.6,0.3c-0.2,0.4-0.3,0.9-0.4,1.3c-0.4-0.1-0.7-0.2-1.2-0.3
		C171.3,208.3,170.1,208,168.9,207.7z M171.6,209.3c0.6,0.1,1.2,0.2,1.8,0.3c-0.2,0.6-0.4,1-0.5,1.4c0,0,0,0,0,0.1l0,0
		c-0.1,0-0.3-0.1-0.4-0.2c-0.5-0.4-1.1-0.7-1.7-0.9c-0.7-0.3-1.3-0.7-1.8-1.3C169.7,209,170.7,209.2,171.6,209.3z M177.3,210.1
		c-0.2-0.1-0.4-0.1-0.5-0.2c0.1-0.3,0.2-0.5,0.2-0.8c0.1,0.1,0.2,0.1,0.3,0.2c0.1,0.1,0.2,0.3,0.2,0.5c0,0.1,0.1,0.2,0.1,0.4
		C177.5,210.2,177.4,210.1,177.3,210.1L177.3,210.1L177.3,210.1L177.3,210.1z M189.5,199.9l4.1-0.1l-2,1.9L189.5,199.9z
		 M187.8,221.3c0.1,0.1,0.1,0.2,0.1,0.3c0,0.7-0.1,1.4-0.2,2.1l0,0.6c-1.9-0.9-2.5-2.3-1.7-4.4c0.7,0.2,1.1,0.6,1.5,1.1
		C187.5,221.1,187.6,221.2,187.8,221.3z M187.5,213.5c0.1-0.2,0.2-0.4,0.3-0.7c0.2-0.5,0.5-1,0.7-1.6c0.3-0.9,0.7-1.5,1.6-1.8
		c0.5-0.2,1-0.5,1.4-0.7c0.1-0.1,0.3-0.2,0.4-0.2l-2.9,6.5L187.5,213.5z M188.7,222.4c0-0.3,0.1-0.5,0.1-0.8l0,0
		c0.1-0.7,0.1-1.3,0.3-1.8c0.1-0.4,0.5-0.7,0.9-1c1-0.8,2.2-1.2,3.8-1.2c0.1,1-0.4,1.6-0.8,2.3l0,0c-0.3,0.4-0.6,0.8-0.8,1.3l0,0
		c-1.1,0-1.9,0.5-2.9,1.1C189,222.2,188.8,222.3,188.7,222.4z M191.6,222.2c-0.3,1.1-0.9,1.9-1.6,2.3c-0.4,0.2-0.9,0.3-1.4,0.2
		c-0.2-1,0-1.4,0.9-1.8c0.5-0.2,0.9-0.4,1.4-0.6c0.2-0.1,0.4-0.2,0.6-0.2L191.6,222.2z M193.7,213.9c-0.2,0.9-0.4,1.7-0.1,2.6
		c-1.4,0.2-2.8,0.5-4.1,1.4c0-0.2,0.1-0.3,0.1-0.5c0.1-0.5,0.3-1,0.4-1.5c0-0.2,0.1-0.3,0.1-0.5c0.1-0.2,0.1-0.3,0.2-0.5
		c0.4-1.4,1.2-2.2,2.7-2.5c0.2,0,0.4-0.1,0.7-0.1l0,0c0.1,0,0.2,0,0.3-0.1C193.9,212.8,193.8,213.4,193.7,213.9L193.7,213.9
		L193.7,213.9z M191.3,212l1.9-3.4l0.5,2.6L191.3,212z M185.9,215.6c0-0.9,0.3-1.3,0.7-1.4c0.5-0.1,0.9,0.4,1.2,0.8
		c0,0,0.1,0.1,0.1,0.1c0,0,0,0.1,0.1,0.1c0,0,0.1,0.1,0.1,0.1c0.6,0.7,0.7,1.3,0.4,2.1c-0.2,0.6-0.3,1.2-0.5,1.8
		c-0.1,0.2-0.1,0.5-0.2,0.8l-2-1.2c0-0.3,0-0.6,0-0.9l0,0h0C185.9,217.2,185.9,216.4,185.9,215.6z"/>
	<path d="M193.8,122.3c-1.4-3.9-0.5-2.9-4.4-4.4c3.9-1.4,2.9-0.5,4.4-4.4c1.4,3.9,0.5,2.9,4.4,4.4
		C194.3,119.4,195.3,118.5,193.8,122.3z"/>
	<path d="M87.5,118.4c-1.4-3.9-0.5-2.9-4.4-4.4c3.9-1.4,2.9-0.5,4.4-4.4c1.4,3.9,0.5,2.9,4.4,4.4C88,115.5,88.9,114.6,87.5,118.4z"
		/>
	<path d="M55.4,173.1c-1.4-3.9-0.5-2.9-4.4-4.4c3.9-1.4,2.9-0.5,4.4-4.4c1.4,3.9,0.5,2.9,4.4,4.4C55.9,170.1,56.8,169.2,55.4,173.1z
		"/>
	<path d="M124.6,229.6c-1.4-3.9-0.5-2.9-4.4-4.4c3.9-1.4,2.9-0.5,4.4-4.4c1.4,3.9,0.5,2.9,4.4,4.4
		C125.1,226.6,126,225.7,124.6,229.6z"/>
	<path d="M205.2,190.4c-1.4-3.9-0.5-2.9-4.4-4.4c3.9-1.4,2.9-0.5,4.4-4.4c1.4,3.9,0.5,2.9,4.4,4.4
		C205.7,187.4,206.6,186.5,205.2,190.4z"/>
</g>
</svg>
