<?xml version="1.0" encoding="utf-8"?>
<!-- Generator: Adobe Illustrator 28.0.0, SVG Export Plug-In . SVG Version: 6.00 Build 0)  -->
<svg version="1.1" id="Layer_1" xmlns="http://www.w3.org/2000/svg" xmlns:xlink="http://www.w3.org/1999/xlink" x="0px" y="0px"
	 viewBox="0 0 300 300" style="enable-background:new 0 0 300 300;" xml:space="preserve">
<style type="text/css">
	.st0{fill:#FDE2A8;}
	.st1{fill:#F6B1BE;}
	.st2{fill:#FFFFFF;}
	.st3{fill:#FFF2D5;}
	.st4{fill:#FEC038;}
	.st5{fill:#F48278;}
	.st6{fill:#F1B675;}
	.st7{fill:#B57D69;}
	.st8{fill:#97BE9D;}
	.st9{fill:#F3E3CE;}
</style>
<g>
	<path class="st0" d="M209.21,123.09c-0.38-1.36-0.76-2.73-0.9-4.15c-0.33-3.52,0.24-6.97,0.88-10.39c0.54-2.9,1.3-5.76,1.96-8.63
		c0.39-2.44,1.1-4.8,1.78-7.17c0.51-1.79,0.84-3.62,1.42-5.39c0.38-1.16,0.58-2.36,0.95-3.53c-4.59-2.56-9.36-5.21-13.48-6.83
		c-0.66,1.42-1.15,2.9-1.49,4.43c-1.05,4.83-2.61,9.52-3.67,14.34c-0.47,2.12-1.26,4.15-1.61,6.3c-0.59,3.62-2.04,6.97-3.31,10.36
		c-1.32,3.55-3.32,6.75-5.68,9.74c-1.75,2.21-3,4.74-3.84,7.42c-1.08,3.43-1.11,6.86,0.41,10.24c0.71,1.59,1.68,2.78,3.32,3.4
		c1.52,0.57,2.8,1.43,3.67,2.85c0.35,0.56,0.78,1.08,1.25,1.55c1,1.02,2.09,2.03,3.57,2.13c2.32,0.15,4.42-0.62,6.27-2.04
		c1.32-1.01,2.57-2.12,4.01-2.97c1.95-1.15,3.13-2.84,3.63-5.05c0.52-2.3,0.96-4.61,1.27-6.96
		C210.06,129.49,210.1,126.28,209.21,123.09z"/>
	<path class="st1" d="M244.45,94.89c0.05-0.07,0.1-0.15,0.16-0.23c3.63-8.31-4.98-16.57-9.82-22.29
		c-3.89-4.59-6.05-13.28-9.95-17.88c-10.83-12.75-26.52-6.11-38.02,3.3c-4.07,3.33-8.84,5.69-13.16,8.69
		c-3.17,2.2-6.71,5.85-6.9,9.95c-0.02,0.35,0.3,0.4,0.63,0.5c10.54,3.26,12.88-3.3,27.83-1.47c7.12-0.17,20.77,9.35,29.81,13.53
		C232.8,92.58,243.47,95.69,244.45,94.89z"/>
	<g>
		<path class="st2" d="M229.92,77.07c1.89-0.67,3.09-2.05,3.52-4.03c0.15-0.68,0.18-1.39,0.27-2.1c-2.76-4.08-4.7-10.1-7.39-14.37
			c-0.11,0.73-0.13,1.49-0.04,2.32c-0.97-0.77-1.78-1.39-2.7-1.87c-1.2-0.62-2.4-0.78-3.52,0.08c-1.04,0.8-1.28,1.96-1.1,3.22
			c0.2,1.47,0.93,2.64,2.05,3.57c0.55,0.46,1.15,0.86,1.8,1.35c-1.44,0.67-2.6,1.53-3.42,2.8c-0.83,1.27-0.91,2.95-0.1,3.98
			c0.93,1.18,2.2,1.22,3.55,0.93c0.87-0.19,1.61-0.64,2.36-1.06c0.49-0.28,0.63-0.13,0.57,0.38c-0.09,0.79-0.02,1.57,0.14,2.34
			C226.35,76.59,228.08,77.72,229.92,77.07z"/>
		<path class="st2" d="M195.21,75.46c4.04-0.09,10.17,2.92,16.37,6.31c1.67-0.56,2.55-2.1,2.05-3.91c-0.22-0.81-0.78-1.4-1.35-1.99
			c-0.68-0.7-1.66-0.96-2.45-1.61c0.73-0.37,1.35-0.75,1.92-1.22c1.42-1.18,1.9-2.98,1.16-4.34c-0.68-1.26-2.4-1.84-4.15-1.42
			c-1.13,0.27-2.09,0.91-3.11,1.57c-0.02-0.47-0.02-0.85-0.04-1.22c-0.07-1.26-0.37-2.45-1.05-3.54c-0.84-1.35-2.14-1.94-3.51-1.45
			c-1.03,0.37-1.57,1.26-1.95,2.25c-0.45,1.18-0.57,2.4-0.42,3.82c-0.97-0.77-1.78-1.39-2.7-1.87c-1.2-0.62-2.4-0.78-3.52,0.08
			c-1.04,0.8-1.28,1.96-1.1,3.22c0.2,1.47,0.93,2.64,2.05,3.57c0.55,0.46,1.15,0.86,1.8,1.35c-0.22,0.1-0.43,0.22-0.64,0.34
			C194.78,75.41,194.99,75.43,195.21,75.46z"/>
		<path class="st2" d="M228.54,90.5c2.42,0.98,4.92,1.88,7.21,2.61c0.03-0.23,0.05-0.46,0.08-0.69c1.32,0.63,1.66,0.73,2.35,0.68
			c1.24-0.09,1.96-1.04,1.64-2.19c-0.12-0.43-0.41-0.74-0.72-1.05c-0.36-0.37-0.88-0.51-1.3-0.86c0.39-0.2,0.72-0.4,1.02-0.65
			c0.75-0.63,1.01-1.58,0.62-2.3c-0.36-0.67-1.27-0.98-2.2-0.75c-0.6,0.14-1.11,0.48-1.65,0.84c-0.01-0.25-0.01-0.45-0.02-0.65
			c-0.04-0.67-0.2-1.3-0.56-1.88c-0.44-0.72-1.13-1.03-1.86-0.77c-0.55,0.2-0.84,0.67-1.04,1.19c-0.24,0.62-0.3,1.27-0.22,2.02
			c-0.52-0.41-0.95-0.74-1.43-0.99c-0.64-0.33-1.27-0.42-1.86,0.04c-0.55,0.43-0.68,1.04-0.59,1.71c0.11,0.78,0.49,1.4,1.09,1.89
			c0.29,0.24,0.61,0.46,0.95,0.72C229.45,89.7,228.94,90.04,228.54,90.5z"/>
		<path class="st2" d="M202.6,57.46c-0.05,0.42-0.01,0.83,0.08,1.24c0.23,1.06,1.15,1.66,2.13,1.31c1-0.36,1.64-1.09,1.87-2.14
			c0.08-0.37,0.1-0.75,0.15-1.13c1.32,0.63,1.66,0.73,2.35,0.68c1.24-0.09,1.96-1.04,1.64-2.19c-0.12-0.43-0.41-0.74-0.72-1.05
			c-0.36-0.37-0.88-0.51-1.3-0.86c0.39-0.2,0.72-0.4,1.02-0.65c0.75-0.63,1.01-1.58,0.62-2.3c-0.36-0.67-1.27-0.98-2.2-0.75
			c-0.6,0.14-1.11,0.48-1.65,0.84c-0.01-0.25-0.01-0.45-0.02-0.65c-0.04-0.67-0.2-1.3-0.56-1.88c-0.01-0.02-0.03-0.04-0.05-0.06
			c-0.97,0.18-1.94,0.43-2.91,0.72c-0.17,0.55-0.24,1.12-0.17,1.78c-0.52-0.41-0.95-0.74-1.43-0.99c-0.11-0.06-0.23-0.1-0.34-0.14
			c-0.67,0.25-1.33,0.52-2,0.82c-0.13,0.32-0.17,0.69-0.11,1.07c0.11,0.78,0.49,1.4,1.09,1.89c0.29,0.24,0.61,0.46,0.95,0.72
			c-0.76,0.36-1.38,0.81-1.81,1.48c-0.44,0.68-0.48,1.57-0.05,2.11c0.49,0.63,1.17,0.65,1.88,0.49c0.46-0.1,0.85-0.34,1.25-0.56
			C202.56,57.11,202.63,57.19,202.6,57.46z"/>
		<path class="st2" d="M175,70.97c0.46-0.1,0.85-0.34,1.25-0.56c0.26-0.15,0.33-0.07,0.3,0.2c-0.05,0.42-0.01,0.83,0.08,1.24
			c0.23,1.06,1.15,1.66,2.13,1.31c1-0.36,1.64-1.09,1.87-2.14c0.08-0.37,0.1-0.75,0.15-1.13c1.32,0.63,1.66,0.73,2.35,0.68
			c1.24-0.09,1.96-1.04,1.64-2.19c-0.12-0.43-0.41-0.74-0.72-1.05c-0.36-0.37-0.88-0.51-1.3-0.86c0.39-0.2,0.72-0.4,1.02-0.65
			c0.75-0.63,1.01-1.58,0.62-2.3c-0.36-0.67-1.27-0.98-2.2-0.75c-0.6,0.14-1.11,0.48-1.65,0.84c-0.01-0.25-0.01-0.45-0.02-0.65
			c-0.01-0.25-0.07-0.49-0.12-0.72c-2.12,1.31-4.26,2.58-6.31,3.98c0.28,0.23,0.58,0.44,0.91,0.68c-0.76,0.36-1.38,0.81-1.81,1.48
			c-0.44,0.68-0.48,1.57-0.05,2.11C173.61,71.11,174.29,71.13,175,70.97z"/>
	</g>
	<path class="st3" d="M195.36,75.47c-0.05,0-0.1-0.01-0.14-0.01c-2.98-0.36-5.46-0.39-7.6-0.23c-0.04,0-0.08,0.01-0.11,0.01
		c-8.31,0.65-11.56,4.12-19.53,1.87c2.37,2.41,9.84,6.67,15.78,9.55c4.17,2.12,9.51,3.21,13.93,4.72c0.94-4.32,1.84-6.13,2.77-10.45
		c0.29-1.35,0.74-2.66,1.36-3.91c-0.82-0.32-1.61-0.59-2.38-0.82C198.1,75.94,196.73,75.68,195.36,75.47z M225.02,88.99
		c-2.9-1.34-6.27-3.23-9.75-5.17c-0.26,0.92-0.43,1.86-0.73,2.77c-0.54,1.58-0.82,3.23-1.29,4.82c-0.62,2.12-0.73,1.84-1.06,4.03
		c-0.06,0.43,20.86,2.08,23.36,1.51c1.96-0.45,5.2-0.45,7.07-1.13c0.71-0.26,1.27-0.32,1.62-0.85
		C242.5,95.4,232.45,92.42,225.02,88.99z"/>
	<g>
		<path class="st4" d="M231.51,67.06c-0.76-1.53-1.48-3.15-2.21-4.74c-0.26,0.04-0.52,0.1-0.76,0.23c-1.26,0.66-1.85,2.54-1.2,3.82
			c0.58,1.15,2.49,1.72,3.63,1.1C231.18,67.36,231.35,67.22,231.51,67.06z"/>
		<path class="st4" d="M203.37,77.29c1.24-0.67,1.73-2.45,1.04-3.77c-0.65-1.25-2.26-1.79-3.47-1.16c-1.26,0.66-1.85,2.54-1.2,3.82
			c0.02,0.03,0.05,0.06,0.07,0.1c0.99,0.32,2.04,0.72,3.12,1.18C203.08,77.42,203.23,77.36,203.37,77.29z"/>
		<path class="st4" d="M233.09,87.99c0.64-0.33,1.49-0.05,1.84,0.61c0.37,0.7,0.11,1.64-0.55,2c-0.61,0.33-1.62,0.02-1.92-0.59
			C232.11,89.34,232.42,88.34,233.09,87.99z"/>
		<path class="st4" d="M204.07,52.31c0.64-0.33,1.49-0.05,1.84,0.61c0.37,0.7,0.11,1.64-0.55,2c-0.61,0.33-1.62,0.02-1.92-0.59
			C203.09,53.66,203.4,52.66,204.07,52.31z"/>
		<path class="st4" d="M178.03,65.46c0.64-0.33,1.49-0.05,1.84,0.61c0.37,0.7,0.11,1.64-0.55,2c-0.61,0.33-1.62,0.02-1.92-0.59
			C177.05,66.8,177.37,65.8,178.03,65.46z"/>
	</g>
	<path class="st5" d="M184.63,196.68c8.34-1.18,17.02-1.52,24.49-5.65c2.59-1.43,4.47-5.22,2.43-8.77c-2-3.47-5.11-4.55-8.22-6.83
		c-5.08-3.72-8.36-9.07-13.12-13.05c-12.02-10.06-30.97-11.7-43.19-1.16c-4.94,4.26-8.4,9.95-13.35,14.2
		c-5.38,4.61-10.25,6.83-11.65,14.38c-1.09,5.9,0.73,12.52,5.75,16.13c6.82,4.91,15.54,1.8,22.74-0.19
		c9.01-2.49,17.94-5.38,26.99-7.72C179.83,197.43,182.22,197.02,184.63,196.68z"/>
	<path class="st0" d="M155.22,222.06c1.05-1.71,1.77-3.6,2.15-5.56c0.72-3.61,0.37-7.18-0.79-10.67c-0.17-0.52-0.42-1.04-0.34-1.62
		c0.24-0.1,0.48-0.22,0.73-0.31c6.79-1.99,13.56-4.07,20.41-5.84c1.3-0.25,2.6-0.49,3.9-0.71c1.12-0.19,2.25-0.3,3.38-0.45
		c-1.31,0.89-2.49,1.94-3.69,2.97c-0.78,0.67-1.38,1.43-1.84,2.34c-1.35,2.7-1.7,5.67-2.22,8.57c-0.66,3.64-0.8,7.33-0.59,11.03
		c0.23,4.03,0.38,8.07-0.35,12.07c-0.41,2.23-0.81,4.46-1.91,6.5c-1.65,3.06-4.06,5.06-7.59,5.42c-3.73,0.38-7.22-0.5-10.5-2.23
		c-2.62-1.38-4.13-3.55-4.41-6.53c-0.19-2.02-0.07-4.01,0.29-6.02C152.44,227.81,153.51,224.84,155.22,222.06z"/>
	<g>
		<path class="st2" d="M189.93,176.63c0.88-0.43,1.88-0.35,2.84-0.71c-0.57-0.59-1.03-1.15-1.41-1.78
			c-0.95-1.58-0.81-3.44,0.34-4.48c1.06-0.96,2.87-0.94,4.39,0.03c0.98,0.63,1.67,1.55,2.41,2.52c0.12-0.31,0.22-0.57,0.32-0.82
			c1.39,1.45,2.84,2.84,4.5,4.05c2.34,1.71,4.68,2.75,6.55,4.64c-0.43,0.3-0.89,0.57-1.42,0.76c-0.67,0.25-1.37,0.43-2.14,0.68
			c1.13,1.11,1.94,2.31,2.3,3.77c0.36,1.48-0.12,3.09-1.22,3.79c-1.27,0.81-2.48,0.42-3.66-0.3c-0.76-0.46-1.3-1.14-1.88-1.79
			c-0.38-0.42-0.55-0.33-0.66,0.16c-0.18,0.77-0.5,1.49-0.91,2.16c-1.08,1.74-3.08,2.22-4.61,1c-1.56-1.26-2.24-2.96-1.98-4.97
			c0.09-0.7,0.29-1.39,0.45-2.11c-2.75,0.3-3.4,0.26-4.61-0.26c-2.15-0.93-2.83-3.08-1.55-4.91
			C188.48,177.37,189.2,176.99,189.93,176.63z"/>
		<path class="st2" d="M173.5,182.45c-0.36-1.46-1.17-2.66-2.3-3.77c0.77-0.24,1.47-0.43,2.14-0.68c1.37-0.51,2.44-1.37,3.12-2.69
			c0.58-1.13,0.74-2.3,0.03-3.4c-0.77-1.18-1.95-1.43-3.29-1.24c-1.02,0.14-1.99,0.46-3.17,0.87c0.61-1.29,0.9-2.48,0.86-3.74
			c-0.03-1.06-0.24-2.07-1.1-2.77c-1.13-0.92-2.56-0.79-3.8,0.2c-1,0.8-1.67,1.83-2.16,3c-0.15,0.35-0.28,0.7-0.45,1.14
			c-0.75-0.96-1.44-1.89-2.41-2.52c-1.51-0.98-3.32-0.99-4.39-0.03c-1.15,1.04-1.29,2.9-0.34,4.48c0.38,0.63,0.84,1.19,1.41,1.78
			c-0.96,0.36-1.97,0.28-2.84,0.71c-0.74,0.36-1.46,0.74-1.93,1.43c-1.28,1.84-0.6,3.98,1.55,4.91c1.21,0.53,1.86,0.57,4.61,0.26
			c-0.16,0.72-0.36,1.4-0.45,2.11c-0.26,2.01,0.42,3.71,1.98,4.97c1.52,1.23,3.53,0.74,4.61-1c0.42-0.67,0.74-1.39,0.91-2.16
			c0.11-0.49,0.29-0.59,0.66-0.16c0.57,0.65,1.12,1.32,1.88,1.79c1.17,0.72,2.39,1.11,3.66,0.3
			C173.38,185.54,173.86,183.93,173.5,182.45z"/>
		<path class="st2" d="M133.67,175.42c3.01-2.58,5.47-5.7,8.05-8.7c1.13-0.39,2.08-0.7,3.07-0.84c1.34-0.19,2.52,0.06,3.29,1.24
			c0.71,1.1,0.56,2.27-0.03,3.4c-0.68,1.32-1.75,2.18-3.12,2.69c-0.67,0.25-1.37,0.43-2.14,0.68c1.13,1.11,1.94,2.31,2.3,3.77
			c0.36,1.48-0.12,3.09-1.22,3.79c-1.27,0.81-2.48,0.42-3.66-0.3c-0.76-0.46-1.3-1.14-1.88-1.79c-0.38-0.42-0.55-0.33-0.66,0.16
			c-0.18,0.78-0.5,1.49-0.91,2.16c-1.08,1.74-3.08,2.22-4.61,1c-1.42-1.14-2.1-2.65-2.02-4.43
			C131.27,177.38,132.45,176.46,133.67,175.42z"/>
		<path class="st2" d="M144.81,207.17c-2.15-0.93-2.83-3.08-1.55-4.91c0.48-0.69,1.2-1.07,1.93-1.43c0.88-0.43,1.88-0.35,2.84-0.71
			c-0.57-0.59-1.03-1.15-1.41-1.78c-0.95-1.58-0.81-3.44,0.34-4.48c1.06-0.96,2.87-0.94,4.39,0.03c0.98,0.63,1.67,1.55,2.41,2.52
			c0.17-0.44,0.3-0.79,0.45-1.14c0.49-1.17,1.16-2.19,2.16-3c1.24-1,2.66-1.13,3.8-0.2c0.85,0.69,1.07,1.71,1.1,2.77
			c0.03,1.26-0.26,2.45-0.86,3.74c1.17-0.41,2.15-0.72,3.17-0.87c1.34-0.19,2.52,0.06,3.29,1.24c0.4,0.62,0.52,1.27,0.45,1.92
			c-5.6,1.63-11.19,3.33-16.81,4.88c-1.75,0.48-3.6,1.03-5.48,1.52C144.96,207.24,144.89,207.21,144.81,207.17z"/>
		<path class="st2" d="M176.95,197.13c-1.14-0.5-1.5-1.63-0.82-2.61c0.25-0.37,0.64-0.57,1.03-0.76c0.46-0.23,1-0.19,1.51-0.38
			c-0.3-0.31-0.55-0.61-0.75-0.95c-0.5-0.84-0.43-1.83,0.18-2.38c0.56-0.51,1.52-0.5,2.33,0.02c0.52,0.33,0.88,0.82,1.28,1.34
			c0.09-0.23,0.16-0.42,0.24-0.61c0.26-0.62,0.62-1.16,1.15-1.59c0.66-0.53,1.41-0.6,2.01-0.11c0.45,0.37,0.57,0.91,0.58,1.47
			c0.02,0.67-0.14,1.3-0.46,1.98c0.62-0.22,1.14-0.38,1.68-0.46c0.71-0.1,1.34,0.03,1.75,0.66c0.38,0.58,0.29,1.21-0.01,1.81
			c-0.36,0.7-0.93,1.16-1.66,1.43c-0.36,0.13-0.73,0.23-1.14,0.36c0.05,0.05,0.09,0.09,0.13,0.14c-0.45,0.06-0.9,0.12-1.35,0.18
			c-1.8,0.26-3.57,0.58-5.32,0.96c0.03-0.12,0.06-0.24,0.09-0.37C177.94,197.43,177.59,197.41,176.95,197.13z"/>
		<path class="st2" d="M179.78,162.51c0.05-0.37,0.15-0.74,0.24-1.12c-1.46,0.16-1.8,0.14-2.45-0.14c-1.14-0.5-1.5-1.63-0.82-2.61
			c0.25-0.37,0.64-0.57,1.03-0.76c0.46-0.23,1-0.19,1.51-0.38c-0.3-0.31-0.55-0.61-0.75-0.95c-0.14-0.23-0.22-0.47-0.27-0.71
			c3.19,1.03,6.24,2.5,9.02,4.37c-0.26,0.08-0.52,0.16-0.81,0.26c0.6,0.59,1.03,1.22,1.22,2c0.19,0.78-0.06,1.64-0.65,2.01
			c-0.67,0.43-1.32,0.22-1.94-0.16c-0.4-0.25-0.69-0.6-0.99-0.95c-0.2-0.23-0.29-0.17-0.35,0.09c-0.09,0.41-0.26,0.79-0.48,1.15
			c-0.57,0.92-1.64,1.18-2.44,0.53C180,164.48,179.65,163.58,179.78,162.51z"/>
		<path class="st2" d="M136.51,199.72c-0.19-0.78-0.62-1.41-1.22-2c0.41-0.13,0.78-0.23,1.14-0.36c0.73-0.27,1.3-0.73,1.66-1.43
			c0.31-0.6,0.39-1.22,0.01-1.81c-0.41-0.63-1.04-0.76-1.75-0.66c-0.54,0.08-1.06,0.24-1.68,0.46c0.32-0.68,0.48-1.32,0.46-1.98
			c-0.01-0.56-0.13-1.1-0.58-1.47c-0.6-0.49-1.36-0.42-2.01,0.11c-0.53,0.43-0.89,0.97-1.15,1.59c-0.08,0.18-0.15,0.37-0.24,0.61
			c-0.4-0.51-0.76-1-1.28-1.34c-0.8-0.52-1.76-0.53-2.33-0.02c-0.61,0.55-0.68,1.54-0.18,2.38c0.2,0.33,0.45,0.63,0.75,0.95
			c-0.51,0.19-1.04,0.15-1.51,0.38c-0.39,0.19-0.77,0.39-1.03,0.76c-0.68,0.98-0.32,2.11,0.82,2.61c0.64,0.28,0.99,0.3,2.45,0.14
			c-0.08,0.38-0.19,0.74-0.24,1.12c-0.14,1.07,0.22,1.97,1.05,2.64c0.81,0.65,1.87,0.39,2.44-0.53c0.22-0.36,0.39-0.74,0.48-1.15
			c0.06-0.26,0.15-0.31,0.35-0.09c0.3,0.34,0.59,0.7,0.99,0.95c0.62,0.38,1.27,0.59,1.94,0.16
			C136.45,201.36,136.71,200.5,136.51,199.72z"/>
		<path class="st2" d="M153.6,158c-0.35-0.15-0.61-0.37-0.81-0.61c3.96-2.01,8.3-3.09,12.71-3.3c0.12,0.45,0.01,0.9-0.22,1.35
			c-0.36,0.7-0.93,1.16-1.66,1.43c-0.36,0.13-0.73,0.23-1.14,0.36c0.6,0.59,1.03,1.22,1.22,2c0.19,0.78-0.06,1.64-0.65,2.01
			c-0.67,0.43-1.32,0.22-1.94-0.16c-0.4-0.25-0.69-0.6-0.99-0.95c-0.2-0.23-0.29-0.17-0.35,0.09c-0.09,0.41-0.26,0.79-0.48,1.15
			c-0.57,0.92-1.64,1.18-2.44,0.53c-0.83-0.67-1.19-1.57-1.05-2.64c0.05-0.37,0.15-0.74,0.24-1.12
			C154.59,158.3,154.24,158.28,153.6,158z"/>
	</g>
	<g>
		<path class="st4" d="M201.8,177.07c-0.93-1-2.63-1.02-3.66-0.06c-1.09,1.02-1.22,2.85-0.27,3.9c0.87,0.96,2.86,1.05,3.79,0.16
			C202.7,180.08,202.77,178.11,201.8,177.07z"/>
		<path class="st4" d="M166.67,174.24c-0.93-1-2.63-1.02-3.66-0.06c-1.09,1.02-1.22,2.85-0.27,3.9c0.87,0.96,2.86,1.05,3.79,0.16
			C167.58,177.25,167.64,175.28,166.67,174.24z"/>
		<path class="st4" d="M135.32,173.9c1.2-1.17,2.32-2.41,3.41-3.68c0.42,1.06,0.22,2.45-0.6,3.24
			C137.47,174.09,136.27,174.22,135.32,173.9z"/>
		<path class="st4" d="M157.06,201.27c0.57,0.61,0.77,1.55,0.64,2.42c-1.54,0.45-3.09,0.89-4.63,1.33c-0.86-1.06-0.72-2.81,0.34-3.8
			C154.44,200.25,156.13,200.28,157.06,201.27z"/>
		<path class="st4" d="M183.45,194c-0.49-0.53-1.39-0.54-1.94-0.03c-0.58,0.54-0.64,1.51-0.14,2.07c0.46,0.51,1.52,0.56,2.01,0.09
			C183.93,195.59,183.97,194.55,183.45,194z"/>
		<path class="st4" d="M182.13,158.09c0.24-0.22,0.55-0.33,0.86-0.35c0.42,0.2,0.83,0.44,1.24,0.66c0.31,0.58,0.24,1.4-0.23,1.85
			c-0.49,0.47-1.55,0.43-2.01-0.09C181.49,159.61,181.56,158.63,182.13,158.09z"/>
		<path class="st4" d="M132.89,195.36c-0.49-0.53-1.39-0.54-1.94-0.03c-0.58,0.54-0.64,1.51-0.14,2.07
			c0.46,0.51,1.52,0.56,2.01,0.09C133.37,196.96,133.41,195.91,132.89,195.36z"/>
		<path class="st4" d="M160.1,154.87c0.51,0.55,0.48,1.6-0.07,2.12c-0.49,0.47-1.55,0.43-2.01-0.09c-0.36-0.4-0.42-1.01-0.21-1.52
			c0.73-0.22,1.45-0.42,2.19-0.59C160.03,154.83,160.07,154.84,160.1,154.87z"/>
	</g>
	<path class="st6" d="M35.05,77.24c-1.18-0.5-2.29-1.14-3.38-1.82c-2.32-1.45-2.66-3.6-0.86-5.7c2.96-3.46,6.77-6,10.3-8.82
		c3.81-3.05,6.96-6.66,10.11-10.36c6.81-8.01,15.22-12.31,25.98-11.75c5.55,0.29,8.45,2.57,13.05,5.27
		c6.37,3.74,13.9,3.26,20.71,5.5c3.45,1.13,6.7,2.7,9.44,5.2c1.56,1.42,2.41,3.03,1.94,5.17c-0.09,0.14-0.18,0.28-0.26,0.42
		c-1.11,1.95-2.31,3.84-4.3,5.01c-3.06,1.81-6.13,3.62-9.4,5.04c-6.9,2.98-14.16,4.7-21.52,6.02c-2.52,0.45-5.09,0.7-7.58,1.27
		c-3.38,0.77-6.82,0.98-10.25,1.32c-3.75,0.37-7.52,0.68-11.29,0.81c-3.23,0.1-6.43-0.01-9.62-0.6c-2.02-0.37-4.02-0.84-6.07-1.07
		c-2.26-0.25-4.52-0.53-6.79-0.8C35.2,77.31,35.13,77.28,35.05,77.24z"/>
	<path class="st6" d="M35.05,77.24c-1.18-0.5-2.29-1.14-3.38-1.82c-2.32-1.45-2.66-3.6-0.86-5.7c2.96-3.46,6.77-6,10.3-8.82
		c3.81-3.05,6.96-6.66,10.11-10.36c6.81-8.01,15.22-12.31,25.98-11.75c5.55,0.29,8.45,2.57,13.05,5.27
		c6.37,3.74,13.9,3.26,20.71,5.5c3.45,1.13,6.7,2.7,9.44,5.2c1.56,1.42,2.41,3.03,1.94,5.17c-0.09,0.14-0.18,0.28-0.26,0.42
		c-1.11,1.95-2.31,3.84-4.3,5.01c-3.06,1.81-6.13,3.62-9.4,5.04c-6.9,2.98-14.16,4.7-21.52,6.02c-2.52,0.45-5.09,0.7-7.58,1.27
		c-3.38,0.77-6.82,0.98-10.25,1.32c-3.75,0.37-7.52,0.68-11.29,0.81c-3.23,0.1-6.43-0.01-9.62-0.6c-2.02-0.37-4.02-0.84-6.07-1.07
		c-2.26-0.25-4.52-0.53-6.79-0.8C35.2,77.31,35.13,77.28,35.05,77.24z"/>
	<path class="st6" d="M35.05,77.24c-1.18-0.5-2.29-1.14-3.38-1.82c-2.32-1.45-2.66-3.6-0.86-5.7c2.96-3.46,6.77-6,10.3-8.82
		c3.81-3.05,6.96-6.66,10.11-10.36c6.81-8.01,15.22-12.31,25.98-11.75c5.55,0.29,8.45,2.57,13.05,5.27
		c6.37,3.74,13.9,3.26,20.71,5.5c3.45,1.13,6.7,2.7,9.44,5.2c1.56,1.42,2.41,3.03,1.94,5.17c-0.09,0.14-0.18,0.28-0.26,0.42
		c-1.11,1.95-2.31,3.84-4.3,5.01c-3.06,1.81-6.13,3.62-9.4,5.04c-6.9,2.98-14.16,4.7-21.52,6.02c-2.52,0.45-5.09,0.7-7.58,1.27
		c-3.38,0.77-6.82,0.98-10.25,1.32c-3.75,0.37-7.52,0.68-11.29,0.81c-3.23,0.1-6.43-0.01-9.62-0.6c-2.02-0.37-4.02-0.84-6.07-1.07
		c-2.26-0.25-4.52-0.53-6.79-0.8C35.2,77.31,35.13,77.28,35.05,77.24z"/>
	<path class="st6" d="M35.05,77.24c-1.18-0.5-2.29-1.14-3.38-1.82c-2.32-1.45-2.66-3.6-0.86-5.7c2.96-3.46,6.77-6,10.3-8.82
		c3.81-3.05,6.96-6.66,10.11-10.36c6.81-8.01,15.22-12.31,25.98-11.75c5.55,0.29,8.45,2.57,13.05,5.27
		c6.37,3.74,13.9,3.26,20.71,5.5c3.45,1.13,6.7,2.7,9.44,5.2c1.56,1.42,2.41,3.03,1.94,5.17c-0.09,0.14-0.18,0.28-0.26,0.42
		c-1.11,1.95-2.31,3.84-4.3,5.01c-3.06,1.81-6.13,3.62-9.4,5.04c-6.9,2.98-14.16,4.7-21.52,6.02c-2.52,0.45-5.09,0.7-7.58,1.27
		c-3.38,0.77-6.82,0.98-10.25,1.32c-3.75,0.37-7.52,0.68-11.29,0.81c-3.23,0.1-6.43-0.01-9.62-0.6c-2.02-0.37-4.02-0.84-6.07-1.07
		c-2.26-0.25-4.52-0.53-6.79-0.8C35.2,77.31,35.13,77.28,35.05,77.24z"/>
	<path class="st0" d="M87.87,79.55c0.4,1.76,1.01,3.42,2.3,4.75c0.21,0.22,0.43,0.43,0.74,0.51c0.06,0.12,0.09,0.27,0.18,0.35
		c1.16,1.08,1.73,2.48,2.14,3.97c0.44,1.61-0.17,2.74-1.76,3.2c-0.24,0.07-0.48,0.14-0.73,0.16c-0.5,0.04-0.56,0.25-0.44,0.71
		c0.4,1.5,0.75,3.01,1.11,4.51c0.5,2.3,1,4.59,1.5,6.89c0.33-0.5,0.53-0.99,0.69-1.48c0.61-1.86,1.5-3.63,1.95-5.55
		c0.36,0.01,0.72,0,1.07,0.02c2.13,0.15,4.12,0.77,6.05,1.67c1.02,0.47,2.16,0.72,3.04,1.48c-0.24,0.22-0.16,0.53-0.17,0.78
		c-0.09,2.22-0.58,4.37-1.07,6.53c-0.17,0.75-0.87,3.05-0.94,3.46c-0.77,4.62-2.63,8.82-5.04,12.78c-0.52,0.85,0.07,1.53,0.27,2.21
		c0.84,2.78,1.82,5.52,2.72,8.28c0.53,1.62-0.74,3.69-2.43,4.05c-1.32,0.28-2.64,0.43-3.92-0.18c-0.79-0.38-1.5-0.09-2.21,0.29
		c-1.52,0.81-3.06,0.85-4.64,0.14c-1-0.45-1.44-1.26-1.67-2.24c-0.34-1.45-0.32-2.92-0.28-4.39c0.07-2.58-0.03-5.14-0.21-7.71
		c-0.12-1.67-0.3-3.34-0.66-4.95c-1.4-6.17-2.16-12.44-3.25-18.66c-0.37-2.12-0.88-4.23-1.9-6.17c-0.23-0.44-0.43-0.72-1.02-0.8
		c-0.96-0.12-1.65-0.82-2.14-1.61c-1.2-1.94-1.84-3.95-0.77-6.22c0.76-1.6,0.81-3.32,0.56-5.06c0.75-0.28,1.54-0.17,2.31-0.26
		C82.16,80.67,84.97,79.85,87.87,79.55z"/>
	<path class="st7" d="M57.15,73.15c0.07,0.04,0.14,0.07,0.22,0.11C57.26,73.29,57.2,73.25,57.15,73.15z"/>
	<g>
		<path class="st3" d="M118.11,107.33c-1.04,0.43-3.17-0.89-5.18-1.79c-1.74-0.78-6.79-4.64-7.22-4.87
			c-0.22,0.22-0.15,0.51-0.16,0.77c-0.09,2.22-0.58,4.37-1.07,6.53c-0.03,0.13-0.08,0.26-0.13,0.39c-0.14,0.54-0.37,1.34-0.56,1.99
			c2.07,0.01,4.39-0.25,6.38-0.86c1.31-0.41,7.82-1.87,8.1-2.12c0.02-0.02,0.03-0.04,0.05-0.07
			C118.26,107.32,118.18,107.32,118.11,107.33z"/>
		<g>
			<path class="st3" d="M87.87,79.55c-2.9,0.31-5.71,1.13-8.61,1.46c-0.77,0.09-1.56-0.02-2.31,0.26c-3.59,0.37-7.18,0.78-10.78,1.1
				c-7.63,0.68-15.15,0.1-22.52-2.09c-2.29-0.68-4.59-1.34-6.84-2.16c-0.54-0.2-1.12-0.32-1.54-0.77c2.26,0.27,4.52,0.54,6.78,0.79
				c2.05,0.23,4.05,0.7,6.07,1.07c3.19,0.59,6.39,0.71,9.62,0.6c3.77-0.12,7.54-0.43,11.29-0.81c3.42-0.34,6.86-0.55,10.25-1.32
				c2.49-0.57,5.06-0.82,7.58-1.27c7.37-1.32,14.62-3.04,21.52-6.02c3.27-1.42,6.34-3.23,9.4-5.04c1.98-1.17,3.19-3.06,4.3-5.01
				c0.08-0.14,0.17-0.28,0.26-0.42c0.19,0.52-0.01,1-0.24,1.43c-1.31,2.41-2.87,4.59-4.96,6.43c-4.41,3.89-9.67,6.17-15.08,8.13
				c-3.26,1.19-6.66,1.92-10.02,2.8C90.66,79.08,89.26,79.26,87.87,79.55z"/>
			<path class="st3" d="M91.42,97.71c1.38-0.14,2.76-0.29,4.15-0.15c-0.46,1.92-1.34,3.69-1.95,5.55c-0.16,0.49-0.36,0.98-0.69,1.48
				C92.43,102.3,91.93,100,91.42,97.71z"/>
		</g>
	</g>
	<path class="st8" d="M114.71,84.92c-1.76-2.93-4.54-4.53-7.77-5.57c-3.47-1.12-6.99-0.66-10.38,0.6c-2.47,0.92-4.25,2.67-5.65,4.86
		c0.06,0.12,0.09,0.27,0.18,0.35c1.16,1.08,1.73,2.48,2.14,3.97c0.44,1.61-0.17,2.74-1.76,3.2c-0.24,0.07-0.48,0.14-0.73,0.16
		c-0.5,0.04-0.56,0.25-0.44,0.71c0.4,1.5,0.75,3.01,1.11,4.51c1.38-0.14,2.76-0.29,4.15-0.15c0.36,0.01,0.72,0,1.07,0.02
		c2.13,0.15,4.12,0.77,6.05,1.67c1.02,0.47,2.16,0.72,3.04,1.48c0.33,0.15,5.47,4.09,7.24,4.88c2.04,0.91,4.22,2.27,5.23,1.78
		c0.02-0.04,0.05-0.07,0.06-0.1c1.23-2.52,3.57-5.6,0.7-10.19C115.82,92.07,117.04,88.79,114.71,84.92z"/>
	<g>
		<path class="st2" d="M68.95,46.14c-0.89-0.39-1.9-0.27-2.87-0.59c0.54-0.62,0.98-1.2,1.33-1.84c0.74-1.37,0.69-2.89-0.05-3.93
			c-6.25,1.68-11.55,5.38-16.12,10.76c-0.18,0.21-0.36,0.41-0.54,0.62c0.66,0.21,1.34,0.36,2.09,0.56
			c-1.09,1.16-1.84,2.39-2.14,3.87c-0.3,1.49,0.25,3.08,1.38,3.74c1.3,0.75,2.5,0.32,3.64-0.46c0.73-0.5,1.25-1.19,1.8-1.86
			c0.36-0.44,0.54-0.35,0.67,0.14c0.21,0.77,0.56,1.47,1,2.12c1.15,1.69,3.18,2.09,4.64,0.8c1.51-1.32,2.11-3.05,1.77-5.05
			c-0.12-0.7-0.35-1.38-0.54-2.08c2.76,0.18,3.41,0.12,4.59-0.46c2.1-1.03,2.69-3.19,1.34-4.98C70.43,46.81,69.7,46.47,68.95,46.14z
			"/>
		<path class="st2" d="M80.97,72.16c-0.89-0.39-1.9-0.27-2.87-0.59c0.54-0.62,0.98-1.2,1.33-1.84c0.88-1.62,0.66-3.47-0.54-4.46
			c-1.1-0.91-2.91-0.82-4.38,0.22c-0.95,0.67-1.6,1.62-2.3,2.62c-0.19-0.43-0.34-0.78-0.5-1.12c-0.54-1.14-1.26-2.14-2.29-2.9
			c-1.28-0.94-2.71-1.01-3.8-0.04c-0.82,0.73-0.99,1.75-0.98,2.81c0.02,1.26,0.36,2.44,1.02,3.7c-1.19-0.36-2.17-0.63-3.2-0.73
			c-1.35-0.13-2.52,0.16-3.23,1.38c-0.67,1.13-0.46,2.29,0.17,3.4c0.73,1.29,1.84,2.11,3.23,2.55c0.68,0.22,1.39,0.38,2.17,0.58
			c-0.53,0.56-0.98,1.15-1.33,1.77c1.86-0.14,3.72-0.31,5.57-0.49c3.42-0.34,6.86-0.55,10.25-1.32c1.32-0.3,2.66-0.51,4.01-0.71
			c0.6-1.05,0.53-2.34-0.33-3.48C82.46,72.84,81.72,72.49,80.97,72.16z"/>
		<path class="st2" d="M110.97,49.56c-4.23-1.39-8.74-1.73-13.07-2.68c-0.51,0.22-0.95,0.58-1.29,1.15
			c-0.67,1.13-0.46,2.29,0.17,3.4c0.73,1.29,1.84,2.11,3.23,2.55c0.68,0.22,1.39,0.38,2.17,0.58c-1.09,1.16-1.84,2.39-2.14,3.87
			c-0.3,1.49,0.25,3.08,1.38,3.74c1.3,0.75,2.5,0.32,3.64-0.46c0.73-0.5,1.25-1.19,1.8-1.86c0.36-0.44,0.54-0.35,0.67,0.14
			c0.21,0.77,0.56,1.47,1,2.12c1.15,1.69,3.18,2.09,4.64,0.8c1.51-1.32,2.11-3.05,1.77-5.05c-0.12-0.7-0.35-1.38-0.54-2.08
			c2.76,0.18,3.41,0.12,4.59-0.46c0.44-0.22,0.8-0.49,1.11-0.8C117.44,52.16,114.29,50.65,110.97,49.56z"/>
		<path class="st2" d="M78.15,54.96c0.69,0.4,1.32,0.17,1.93-0.24c0.39-0.26,0.66-0.63,0.95-0.99c0.19-0.23,0.29-0.19,0.36,0.07
			c0.11,0.41,0.3,0.78,0.53,1.12c0.61,0.9,1.69,1.11,2.46,0.42c0.8-0.7,1.12-1.62,0.94-2.68c-0.06-0.37-0.19-0.73-0.29-1.11
			c1.46,0.1,1.81,0.06,2.44-0.24c1.12-0.54,1.43-1.69,0.71-2.64c-0.27-0.35-0.66-0.54-1.06-0.71c-0.47-0.21-1.01-0.14-1.52-0.31
			c0.29-0.33,0.52-0.63,0.71-0.98c0.46-0.86,0.35-1.84-0.28-2.37c-0.59-0.48-1.54-0.43-2.32,0.12c-0.5,0.36-0.85,0.86-1.22,1.39
			c-0.1-0.23-0.18-0.41-0.26-0.59c-0.29-0.61-0.67-1.13-1.21-1.54c-0.68-0.5-1.44-0.54-2.02-0.02c-0.44,0.39-0.53,0.93-0.52,1.49
			c0.01,0.67,0.19,1.3,0.54,1.96c-0.63-0.19-1.15-0.33-1.7-0.39c-0.71-0.07-1.34,0.09-1.72,0.73c-0.35,0.6-0.24,1.22,0.09,1.8
			c0.39,0.68,0.98,1.12,1.72,1.35c0.36,0.12,0.73,0.2,1.15,0.31c-0.58,0.61-0.98,1.27-1.13,2.05
			C77.26,53.77,77.55,54.61,78.15,54.96z"/>
		<path class="st2" d="M41.45,75.19c0.69,0.4,1.32,0.17,1.93-0.24c0.39-0.26,0.66-0.63,0.95-0.99c0.19-0.23,0.29-0.19,0.36,0.07
			c0.11,0.41,0.3,0.78,0.53,1.12c0.61,0.9,1.69,1.11,2.46,0.42c0.8-0.7,1.12-1.62,0.94-2.68c-0.06-0.37-0.19-0.73-0.29-1.11
			c1.46,0.1,1.81,0.06,2.44-0.24c1.12-0.54,1.43-1.69,0.71-2.64c-0.27-0.35-0.66-0.54-1.06-0.71c-0.47-0.21-1.01-0.14-1.52-0.31
			c0.29-0.33,0.52-0.63,0.71-0.98c0.46-0.86,0.35-1.84-0.28-2.37c-0.59-0.48-1.54-0.43-2.32,0.12c-0.5,0.36-0.85,0.86-1.22,1.39
			c-0.1-0.23-0.18-0.41-0.26-0.59c-0.29-0.61-0.67-1.13-1.21-1.54c-0.68-0.5-1.44-0.54-2.02-0.02c-0.44,0.39-0.53,0.93-0.52,1.49
			c0.01,0.67,0.19,1.3,0.54,1.96c-0.63-0.19-1.15-0.33-1.7-0.39c-0.71-0.07-1.34,0.09-1.72,0.73c-0.35,0.6-0.24,1.22,0.09,1.8
			c0.39,0.68,0.98,1.12,1.72,1.35c0.36,0.12,0.73,0.2,1.15,0.31c-0.58,0.61-0.98,1.27-1.13,2.05C40.56,74,40.85,74.84,41.45,75.19z"
			/>
		<path class="st2" d="M86.88,72.67c0.69,0.4,1.32,0.17,1.93-0.24c0.39-0.26,0.66-0.63,0.95-0.99c0.19-0.23,0.29-0.19,0.36,0.07
			c0.11,0.41,0.3,0.78,0.53,1.12c0.61,0.9,1.69,1.11,2.46,0.42c0.8-0.7,1.12-1.62,0.94-2.68c-0.06-0.37-0.19-0.73-0.29-1.11
			c1.46,0.1,1.81,0.06,2.44-0.24c1.12-0.54,1.43-1.69,0.71-2.64c-0.27-0.35-0.66-0.54-1.06-0.71c-0.47-0.21-1.01-0.14-1.52-0.31
			c0.29-0.33,0.52-0.63,0.71-0.98c0.46-0.86,0.35-1.84-0.28-2.37c-0.59-0.48-1.54-0.43-2.32,0.12c-0.5,0.36-0.85,0.86-1.22,1.39
			c-0.1-0.23-0.18-0.41-0.26-0.59c-0.29-0.61-0.67-1.13-1.21-1.54c-0.68-0.5-1.44-0.54-2.02-0.02c-0.44,0.39-0.53,0.93-0.52,1.49
			c0.01,0.67,0.19,1.3,0.54,1.96c-0.63-0.19-1.15-0.33-1.7-0.39c-0.71-0.07-1.34,0.09-1.72,0.73c-0.35,0.6-0.24,1.22,0.09,1.8
			c0.39,0.68,0.98,1.12,1.72,1.35c0.36,0.12,0.73,0.2,1.15,0.31c-0.58,0.61-0.98,1.27-1.13,2.05
			C85.99,71.48,86.28,72.32,86.88,72.67z"/>
		<path class="st2" d="M119.58,98.24c-0.17-0.37-0.37-0.75-0.62-1.14c-1.46-2.34-1.98-4.29-2.35-6.11c-0.1,0.05-0.21,0.09-0.31,0.16
			c-0.5,0.36-0.85,0.86-1.22,1.39c-0.1-0.23-0.18-0.41-0.26-0.59c-0.29-0.61-0.67-1.13-1.21-1.54c-0.68-0.5-1.44-0.54-2.02-0.02
			c-0.44,0.39-0.53,0.93-0.52,1.49c0.01,0.67,0.19,1.3,0.54,1.96c-0.63-0.19-1.15-0.33-1.7-0.39c-0.71-0.07-1.34,0.09-1.72,0.73
			c-0.35,0.6-0.24,1.22,0.09,1.8c0.39,0.68,0.98,1.12,1.72,1.35c0.36,0.12,0.73,0.2,1.15,0.31c-0.58,0.61-0.98,1.27-1.13,2.05
			c-0.16,0.79,0.13,1.63,0.73,1.98c0.69,0.4,1.32,0.17,1.93-0.24c0.39-0.26,0.66-0.63,0.95-0.99c0.19-0.23,0.29-0.19,0.36,0.07
			c0.11,0.41,0.3,0.78,0.53,1.12c0.61,0.9,1.69,1.11,2.46,0.42c0.8-0.7,1.12-1.62,0.94-2.68c-0.06-0.37-0.19-0.73-0.29-1.11
			C118.69,98.36,119.17,98.36,119.58,98.24z"/>
		<path class="st2" d="M97.12,92.71c0.69,0.4,1.32,0.17,1.93-0.24c0.39-0.26,0.66-0.63,0.95-0.99c0.19-0.23,0.29-0.19,0.36,0.07
			c0.11,0.41,0.3,0.78,0.53,1.12c0.61,0.9,1.69,1.11,2.46,0.42c0.8-0.7,1.12-1.62,0.94-2.68c-0.06-0.37-0.19-0.73-0.29-1.11
			c1.46,0.1,1.81,0.06,2.44-0.24c1.12-0.54,1.43-1.69,0.71-2.64c-0.27-0.35-0.66-0.54-1.06-0.71c-0.47-0.21-1.01-0.14-1.52-0.31
			c0.29-0.33,0.52-0.63,0.71-0.98c0.46-0.86,0.35-1.84-0.28-2.37c-0.59-0.48-1.54-0.43-2.32,0.12c-0.5,0.36-0.85,0.86-1.22,1.39
			c-0.1-0.23-0.18-0.41-0.26-0.59c-0.29-0.61-0.67-1.13-1.21-1.54c-0.68-0.5-1.44-0.54-2.02-0.02c-0.44,0.39-0.53,0.93-0.52,1.49
			c0.01,0.67,0.19,1.3,0.54,1.96c-0.63-0.19-1.15-0.33-1.7-0.39c-0.71-0.07-1.34,0.09-1.72,0.73c-0.35,0.6-0.24,1.22,0.09,1.8
			c0.39,0.68,0.98,1.12,1.72,1.35c0.36,0.12,0.73,0.2,1.15,0.31c-0.58,0.61-0.98,1.27-1.13,2.05
			C96.23,91.52,96.52,92.36,97.12,92.71z"/>
	</g>
	<g>
		<path class="st4" d="M57.11,47.09c0.89-1.03,2.58-1.13,3.65-0.21c1.13,0.97,1.34,2.8,0.44,3.88c-0.83,1-2.81,1.17-3.78,0.32
			C56.33,50.13,56.18,48.17,57.11,47.09z"/>
		<path class="st4" d="M69.13,73.11c0.89-1.03,2.58-1.13,3.65-0.21c1.13,0.97,1.34,2.8,0.44,3.88c-0.83,1-2.81,1.17-3.78,0.32
			C68.36,76.16,68.2,74.19,69.13,73.11z"/>
		<path class="st4" d="M106.51,49.93c0.89-1.03,2.58-1.13,3.65-0.21c1.13,0.97,1.34,2.8,0.44,3.88c-0.83,1-2.81,1.17-3.78,0.32
			C105.73,52.97,105.58,51.01,106.51,49.93z"/>
		<path class="st4" d="M80.84,48.47c0.47-0.55,1.37-0.6,1.94-0.11c0.6,0.51,0.71,1.48,0.23,2.06c-0.44,0.53-1.49,0.62-2,0.17
			C80.43,50.09,80.35,49.04,80.84,48.47z"/>
		<path class="st4" d="M44.14,68.7c0.47-0.55,1.37-0.6,1.94-0.11c0.6,0.51,0.71,1.48,0.23,2.06c-0.44,0.53-1.49,0.62-2,0.17
			C43.73,70.32,43.65,69.27,44.14,68.7z"/>
		<path class="st4" d="M89.58,66.18c0.47-0.55,1.37-0.6,1.94-0.11c0.6,0.51,0.71,1.48,0.23,2.06c-0.44,0.53-1.49,0.62-2,0.17
			C89.17,67.8,89.09,66.75,89.58,66.18z"/>
		<path class="st4" d="M113.45,95.2c0.47-0.55,1.37-0.6,1.94-0.11c0.6,0.51,0.71,1.48,0.23,2.06c-0.44,0.53-1.49,0.62-2,0.17
			C113.04,96.81,112.96,95.77,113.45,95.2z"/>
		<path class="st4" d="M99.81,86.22c0.47-0.55,1.37-0.6,1.94-0.11c0.6,0.51,0.71,1.48,0.23,2.06c-0.44,0.53-1.49,0.62-2,0.17
			C99.4,87.84,99.32,86.79,99.81,86.22z"/>
	</g>
	<g>
		<path class="st5" d="M249.49,212.69c0.7,0.59,1.03,1.44,1.19,2.37c0.02,0.1,0,0.23,0.1,0.27c0.13,0.05,0.2-0.09,0.27-0.17
			c0.82-1.08,2.01-1.22,3.22-1.22c0.58,0,0.94,0.44,1.3,0.84c0.66,0.74,0.81,1.62,0.78,2.58c-0.02,0.6,0.06,0.66,0.59,0.37
			c1.81-0.96,3.62-0.72,5.43-0.01c0.34,0.14,0.62,0.36,0.87,0.63c0.27,0.3,0.22,0.57-0.15,0.71c-0.72,0.27-1.36,0.69-2.04,1.03
			c-1.24,0.63-1.92,1.75-2.44,2.98c-0.74,1.74-1.47,3.47-2.41,5.12c-1.7,3-4.28,4.68-7.7,4.91c-1.62,0.11-3.1-0.53-4.46-1.42
			c-1.84-1.2-2.8-2.95-3.08-5.07c-0.27-2.03,0.14-3.95,1.04-5.79c0.78-1.6,1.86-3.01,2.82-4.5c0.82-1.27,1.33-2.61,1.19-4.15
			c-0.03-0.37,0-0.75,0.01-1.12c0.01-0.49,0.13-0.55,0.59-0.41C247.75,211.02,248.73,211.65,249.49,212.69z"/>
		<path class="st5" d="M221.27,164.87c0.83,0.39,1.37,1.13,1.77,1.98c0.04,0.09,0.06,0.22,0.17,0.23c0.14,0.01,0.17-0.14,0.21-0.23
			c0.51-1.26,1.62-1.7,2.8-2.01c0.56-0.15,1.03,0.18,1.48,0.47c0.83,0.54,1.21,1.36,1.42,2.29c0.14,0.59,0.22,0.62,0.67,0.21
			c1.5-1.4,3.31-1.64,5.24-1.42c0.37,0.04,0.7,0.19,1,0.38c0.34,0.22,0.36,0.49,0.04,0.72c-0.62,0.45-1.13,1.02-1.7,1.53
			c-1.03,0.93-1.4,2.19-1.59,3.51c-0.27,1.87-0.52,3.74-1,5.57c-0.87,3.34-2.92,5.63-6.16,6.74c-1.53,0.53-3.13,0.29-4.67-0.22
			c-2.09-0.69-3.47-2.12-4.29-4.1c-0.78-1.89-0.89-3.85-0.5-5.86c0.34-1.75,1.02-3.39,1.55-5.08c0.46-1.44,0.61-2.86,0.07-4.32
			c-0.13-0.35-0.2-0.72-0.28-1.09c-0.11-0.47-0.02-0.57,0.46-0.54C219.17,163.71,220.27,164.07,221.27,164.87z"/>
		<path class="st5" d="M198.37,213.96c0.91-0.17,1.77,0.11,2.59,0.57c0.08,0.05,0.18,0.14,0.27,0.09c0.12-0.07,0.06-0.21,0.04-0.31
			c-0.32-1.32,0.32-2.32,1.09-3.27c0.37-0.45,0.94-0.46,1.47-0.48c0.99-0.04,1.77,0.39,2.49,1.02c0.45,0.39,0.54,0.37,0.66-0.22
			c0.4-2.02,1.72-3.26,3.42-4.22c0.32-0.18,0.67-0.26,1.04-0.27c0.4-0.02,0.58,0.19,0.45,0.57c-0.24,0.73-0.32,1.49-0.48,2.23
			c-0.29,1.36,0.15,2.6,0.77,3.77c0.88,1.67,1.77,3.34,2.45,5.1c1.25,3.21,0.93,6.27-1.05,9.07c-0.93,1.33-2.37,2.07-3.92,2.56
			c-2.09,0.67-4.05,0.31-5.88-0.81c-1.74-1.07-2.97-2.6-3.84-4.45c-0.75-1.62-1.16-3.35-1.72-5.03c-0.47-1.44-1.18-2.68-2.47-3.54
			c-0.31-0.21-0.58-0.47-0.86-0.71c-0.37-0.32-0.35-0.45,0.06-0.71C195.99,214.26,197.09,213.9,198.37,213.96z"/>
		<path class="st5" d="M227.35,197.29c0.78,0.48,1.23,1.27,1.53,2.17c0.03,0.09,0.04,0.23,0.14,0.25c0.14,0.03,0.19-0.12,0.24-0.21
			c0.65-1.19,1.8-1.5,3.01-1.68c0.57-0.09,1,0.29,1.41,0.64c0.76,0.63,1.04,1.49,1.16,2.43c0.07,0.6,0.15,0.64,0.64,0.28
			c1.65-1.22,3.47-1.25,5.37-0.81c0.36,0.08,0.67,0.26,0.95,0.5c0.31,0.26,0.3,0.53-0.05,0.72c-0.67,0.38-1.24,0.88-1.86,1.32
			c-1.13,0.8-1.64,2.02-1.98,3.3c-0.48,1.83-0.94,3.65-1.62,5.42c-1.24,3.22-3.54,5.26-6.89,6c-1.58,0.35-3.14-0.07-4.62-0.75
			c-1.99-0.92-3.2-2.5-3.8-4.56c-0.56-1.96-0.44-3.93,0.17-5.87c0.53-1.7,1.4-3.26,2.12-4.87c0.62-1.38,0.93-2.78,0.56-4.28
			c-0.09-0.36-0.11-0.74-0.16-1.11c-0.06-0.48,0.05-0.57,0.52-0.49C225.39,195.9,226.45,196.38,227.35,197.29z"/>
		<path class="st5" d="M221.87,239.46c0.88,0.27,1.51,0.92,2.03,1.72c0.05,0.08,0.09,0.21,0.2,0.21c0.14-0.01,0.15-0.16,0.18-0.26
			c0.33-1.32,1.37-1.91,2.49-2.38c0.53-0.23,1.04,0.03,1.53,0.26c0.9,0.42,1.38,1.18,1.73,2.06c0.22,0.56,0.31,0.58,0.69,0.11
			c1.29-1.6,3.05-2.08,4.99-2.14c0.37-0.01,0.72,0.09,1.04,0.24c0.36,0.17,0.42,0.44,0.14,0.71c-0.55,0.53-0.98,1.17-1.47,1.75
			c-0.89,1.06-1.08,2.37-1.08,3.7c0,1.89,0.01,3.77-0.21,5.65c-0.39,3.43-2.1,5.98-5.16,7.54c-1.45,0.74-3.06,0.72-4.66,0.44
			c-2.16-0.39-3.73-1.61-4.82-3.46c-1.04-1.76-1.42-3.69-1.31-5.73c0.09-1.78,0.53-3.5,0.83-5.25c0.25-1.49,0.2-2.92-0.54-4.28
			c-0.18-0.33-0.3-0.69-0.43-1.04c-0.18-0.45-0.09-0.56,0.38-0.6C219.63,238.61,220.77,238.81,221.87,239.46z"/>
	</g>
	<g>
		<g>
			<path class="st6" d="M253.31,208.33c0.17-0.05,0.33-0.11,0.46-0.23c0.48-0.45,0.5-1.18,0.18-1.74c-0.35-0.61-0.89-0.71-1.5-0.8
				c-0.68-0.1-1.29,0.53-1.3,1.19c0,0.2,0.02,0.36,0.09,0.55c0.06,0.16,0.16,0.31,0.27,0.43c0.09,0.09,0.19,0.17,0.29,0.24
				c-0.01,0.29-0.03,0.59-0.07,0.88c-0.15,1.04-0.51,2.07-1.05,2.98c-0.2,0.34-0.19,0.83,0.18,1.07c0.32,0.21,0.85,0.19,1.07-0.18
				C252.72,211.36,253.2,209.87,253.31,208.33z"/>
			<path class="st6" d="M257.74,210.42c0.24-0.01,0.47-0.08,0.67-0.22c0.27-0.2,0.42-0.51,0.48-0.83c0.1-0.6-0.27-1.22-0.83-1.42
				c-0.24-0.09-0.53-0.12-0.78-0.05c-0.6,0.15-1.08,0.65-1.13,1.3c-0.02,0.25,0.02,0.52,0.13,0.76c-0.49,0.9-0.98,1.8-1.48,2.71
				c-0.1,0.18-0.17,0.35-0.13,0.56c0.03,0.19,0.15,0.4,0.31,0.51c0.31,0.2,0.86,0.2,1.07-0.18
				C256.6,212.51,257.17,211.46,257.74,210.42z"/>
			<path class="st6" d="M258.56,216.06c0.86-1.02,1.72-2.04,2.57-3.06c0.07,0.02,0.15,0.04,0.23,0.05c0.71,0.03,1.34-0.53,1.35-1.25
				c0.01-0.62-0.46-1.14-1.05-1.27c-0.29-0.07-0.66-0.07-0.94,0.01c-0.38,0.12-0.58,0.58-0.71,0.93c-0.03,0.1-0.05,0.2-0.07,0.3
				c-0.01,0.08,0,0.16,0.03,0.24c-0.88,1.05-1.77,2.11-2.65,3.16c-0.26,0.31-0.15,0.86,0.18,1.07
				C257.87,216.48,258.29,216.39,258.56,216.06z"/>
		</g>
		<g>
			<path class="st6" d="M223.83,159.67c0.15-0.09,0.29-0.2,0.38-0.35c0.35-0.56,0.18-1.27-0.28-1.73c-0.5-0.5-1.04-0.46-1.65-0.39
				c-0.68,0.08-1.11,0.84-0.94,1.48c0.05,0.2,0.11,0.34,0.23,0.51c0.1,0.14,0.23,0.26,0.38,0.34c0.11,0.07,0.22,0.11,0.34,0.15
				c0.06,0.29,0.12,0.57,0.16,0.86c0.13,1.05,0.05,2.13-0.24,3.15c-0.11,0.38,0.03,0.85,0.45,0.99c0.37,0.12,0.87-0.04,0.99-0.45
				C224.05,162.75,224.12,161.19,223.83,159.67z"/>
			<path class="st6" d="M228.66,160.53c0.23-0.07,0.44-0.2,0.59-0.38c0.21-0.26,0.27-0.6,0.24-0.93c-0.06-0.6-0.57-1.11-1.17-1.15
				c-0.26-0.02-0.54,0.03-0.77,0.15c-0.54,0.31-0.87,0.91-0.76,1.55c0.05,0.25,0.16,0.5,0.32,0.7c-0.24,1-0.48,2-0.72,3
				c-0.05,0.2-0.07,0.38,0.02,0.58c0.08,0.17,0.25,0.35,0.43,0.41c0.36,0.12,0.89-0.03,0.99-0.45
				C228.1,162.85,228.38,161.69,228.66,160.53z"/>
			<path class="st6" d="M230.91,165.77c0.56-1.21,1.13-2.42,1.69-3.62c0.08,0,0.16,0,0.23-0.01c0.69-0.15,1.16-0.85,0.98-1.55
				c-0.15-0.6-0.74-0.98-1.34-0.96c-0.29,0.01-0.66,0.1-0.9,0.26c-0.33,0.21-0.41,0.71-0.44,1.08c-0.01,0.1,0,0.21,0.01,0.31
				c0.01,0.08,0.05,0.16,0.09,0.23c-0.58,1.25-1.16,2.49-1.74,3.74c-0.17,0.36,0.08,0.87,0.45,0.99
				C230.35,166.35,230.73,166.16,230.91,165.77z"/>
		</g>
		<g>
			<path class="st6" d="M197.4,208.25c0.07-0.16,0.12-0.33,0.11-0.5c-0.05-0.66-0.6-1.13-1.24-1.24c-0.7-0.11-1.11,0.24-1.57,0.66
				c-0.5,0.47-0.4,1.33,0.1,1.75c0.16,0.13,0.29,0.21,0.48,0.28c0.16,0.05,0.34,0.07,0.5,0.06c0.13-0.01,0.25-0.04,0.37-0.07
				c0.22,0.19,0.44,0.39,0.63,0.61c0.72,0.78,1.29,1.7,1.65,2.69c0.14,0.38,0.53,0.67,0.94,0.54c0.37-0.12,0.68-0.54,0.54-0.94
				C199.39,210.62,198.53,209.31,197.4,208.25z"/>
			<path class="st6" d="M201.82,206.12c0.14-0.19,0.24-0.42,0.25-0.65c0.02-0.34-0.13-0.65-0.35-0.9c-0.4-0.46-1.11-0.56-1.63-0.25
				c-0.22,0.13-0.42,0.34-0.53,0.58c-0.26,0.56-0.18,1.25,0.29,1.7c0.18,0.18,0.42,0.31,0.67,0.38c0.39,0.95,0.78,1.9,1.17,2.85
				c0.08,0.19,0.17,0.35,0.35,0.46c0.16,0.1,0.41,0.14,0.59,0.08c0.36-0.12,0.7-0.55,0.54-0.94
				C202.72,208.33,202.27,207.23,201.82,206.12z"/>
			<path class="st6" d="M206.72,209.04c-0.25-1.31-0.5-2.62-0.75-3.93c0.06-0.04,0.13-0.09,0.18-0.15c0.47-0.53,0.44-1.37-0.12-1.83
				c-0.48-0.39-1.17-0.36-1.65,0.01c-0.23,0.18-0.47,0.47-0.58,0.74c-0.15,0.37,0.08,0.82,0.28,1.13c0.05,0.09,0.12,0.17,0.19,0.25
				c0.06,0.06,0.13,0.1,0.2,0.13c0.26,1.35,0.52,2.7,0.78,4.05c0.08,0.39,0.57,0.66,0.94,0.54
				C206.6,209.85,206.8,209.47,206.72,209.04z"/>
		</g>
		<g>
			<path class="st6" d="M230.49,192.41c0.16-0.07,0.31-0.16,0.42-0.3c0.41-0.52,0.32-1.24-0.08-1.75c-0.44-0.56-0.98-0.58-1.6-0.57
				c-0.68,0-1.19,0.71-1.11,1.37c0.03,0.2,0.07,0.35,0.17,0.53c0.08,0.15,0.2,0.28,0.33,0.38c0.1,0.08,0.21,0.14,0.32,0.19
				c0.03,0.29,0.06,0.58,0.06,0.88c0.01,1.06-0.2,2.12-0.6,3.1c-0.15,0.37-0.06,0.85,0.34,1.03c0.35,0.16,0.87,0.06,1.03-0.34
				C230.36,195.5,230.6,193.95,230.49,192.41z"/>
			<path class="st6" d="M235.18,193.82c0.23-0.05,0.45-0.15,0.63-0.31c0.24-0.23,0.34-0.57,0.35-0.9c0.01-0.6-0.44-1.17-1.04-1.28
				c-0.25-0.05-0.54-0.04-0.78,0.07c-0.57,0.24-0.97,0.81-0.93,1.45c0.02,0.25,0.1,0.51,0.24,0.73c-0.35,0.97-0.71,1.93-1.06,2.9
				c-0.07,0.2-0.11,0.37-0.05,0.58c0.06,0.18,0.21,0.37,0.38,0.45c0.34,0.15,0.88,0.07,1.03-0.34
				C234.37,196.05,234.77,194.94,235.18,193.82z"/>
			<path class="st6" d="M236.83,199.27c0.7-1.14,1.39-2.27,2.09-3.41c0.08,0.01,0.16,0.02,0.23,0.01c0.7-0.07,1.25-0.72,1.15-1.43
				c-0.09-0.61-0.62-1.06-1.22-1.1c-0.29-0.02-0.66,0.02-0.93,0.15c-0.36,0.17-0.49,0.66-0.56,1.02c-0.02,0.1-0.02,0.2-0.03,0.31
				c0,0.08,0.03,0.16,0.06,0.24c-0.72,1.17-1.44,2.34-2.16,3.52c-0.21,0.34-0.02,0.87,0.34,1.03
				C236.2,199.79,236.6,199.64,236.83,199.27z"/>
		</g>
		<g>
			<path class="st6" d="M223.68,233.95c0.14-0.11,0.26-0.23,0.33-0.4c0.27-0.6,0-1.28-0.52-1.67c-0.57-0.43-1.1-0.31-1.69-0.15
				c-0.66,0.18-0.98,0.99-0.73,1.6c0.08,0.19,0.16,0.32,0.3,0.47c0.11,0.12,0.27,0.22,0.42,0.29c0.12,0.05,0.24,0.08,0.36,0.11
				c0.1,0.27,0.2,0.55,0.28,0.83c0.27,1.02,0.34,2.11,0.2,3.15c-0.05,0.4,0.15,0.84,0.58,0.91c0.38,0.07,0.86-0.16,0.91-0.58
				C224.33,236.98,224.18,235.42,223.68,233.95z"/>
			<path class="st6" d="M228.58,234.14c0.22-0.1,0.4-0.26,0.53-0.46c0.18-0.29,0.19-0.64,0.11-0.95c-0.14-0.59-0.72-1.02-1.32-0.98
				c-0.26,0.02-0.53,0.1-0.74,0.26c-0.49,0.38-0.74,1.02-0.53,1.64c0.08,0.24,0.23,0.47,0.41,0.65c-0.1,1.02-0.2,2.05-0.3,3.07
				c-0.02,0.21-0.02,0.39,0.1,0.57c0.1,0.16,0.3,0.31,0.49,0.34c0.37,0.06,0.87-0.16,0.91-0.58
				C228.35,236.5,228.46,235.32,228.58,234.14z"/>
			<path class="st6" d="M231.55,239c0.39-1.27,0.78-2.55,1.17-3.82c0.08-0.01,0.16-0.02,0.23-0.05c0.66-0.25,1.02-1.01,0.75-1.67
				c-0.24-0.57-0.87-0.86-1.46-0.76c-0.29,0.05-0.64,0.19-0.86,0.38c-0.3,0.26-0.31,0.76-0.28,1.13c0.01,0.1,0.03,0.2,0.05,0.3
				c0.02,0.08,0.07,0.15,0.12,0.21c-0.4,1.32-0.8,2.63-1.2,3.95c-0.12,0.38,0.2,0.85,0.58,0.91
				C231.07,239.66,231.42,239.41,231.55,239z"/>
		</g>
	</g>
	<g>
		<path class="st6" d="M116.37,166.04c2.56,6.92,0.91,5.26,7.82,7.82c-6.92,2.56-5.26,0.91-7.82,7.82
			c-2.56-6.92-0.91-5.26-7.82-7.82C115.46,171.3,113.8,172.96,116.37,166.04z"/>
		<path class="st6" d="M133,147.1c1.84,4.96,0.65,3.77,5.61,5.61c-4.96,1.84-3.77,0.65-5.61,5.61c-1.84-4.96-0.65-3.77-5.61-5.61
			C132.35,150.87,131.16,152.06,133,147.1z"/>
		<path class="st6" d="M106.75,142.58c2.59,7,0.92,5.32,7.92,7.92c-7,2.59-5.32,0.92-7.92,7.92c-2.59-7-0.92-5.32-7.92-7.92
			C105.84,147.9,104.16,149.58,106.75,142.58z"/>
		<path class="st6" d="M86.02,157.56c1.91,5.17,0.68,3.93,5.84,5.84c-5.17,1.91-3.93,0.68-5.84,5.84c-1.91-5.17-0.68-3.93-5.84-5.84
			C85.34,161.49,84.11,162.73,86.02,157.56z"/>
		<path class="st6" d="M140.3,215.43c2.25,6.08,0.8,4.63,6.88,6.88c-6.08,2.25-4.63,0.8-6.88,6.88c-2.25-6.08-0.8-4.63-6.88-6.88
			C139.51,220.05,138.05,221.51,140.3,215.43z"/>
		<path class="st6" d="M145.96,261.37c1.84,4.96,0.65,3.77,5.61,5.61c-4.96,1.84-3.77,0.65-5.61,5.61
			c-1.84-4.96-0.65-3.77-5.61-5.61C145.31,265.14,144.12,266.33,145.96,261.37z"/>
		<path class="st6" d="M246.8,123.96c1.84,4.96,0.65,3.77,5.61,5.61c-4.96,1.84-3.77,0.65-5.61,5.61c-1.84-4.96-0.65-3.77-5.61-5.61
			C246.15,127.74,244.96,128.92,246.8,123.96z"/>
		<path class="st6" d="M202.93,154.07c1.84,4.96,0.65,3.77,5.61,5.61c-4.96,1.84-3.77,0.65-5.61,5.61
			c-1.84-4.96-0.65-3.77-5.61-5.61C202.28,157.85,201.09,159.03,202.93,154.07z"/>
		<path class="st6" d="M144.45,239.17c2.59,7,0.92,5.32,7.92,7.92c-7,2.59-5.32,0.92-7.92,7.92c-2.59-7-0.92-5.32-7.92-7.92
			C143.53,244.5,141.86,246.17,144.45,239.17z"/>
		<path class="st6" d="M223.24,113.55c2.56,6.92,0.91,5.26,7.82,7.82c-6.92,2.56-5.26,0.91-7.82,7.82
			c-2.56-6.92-0.91-5.26-7.82-7.82C222.33,118.81,220.67,120.47,223.24,113.55z"/>
		<path class="st6" d="M220.27,137.21c1.84,4.96,0.65,3.77,5.61,5.61c-4.96,1.84-3.77,0.65-5.61,5.61
			c-1.84-4.96-0.65-3.77-5.61-5.61C219.62,140.98,218.43,142.16,220.27,137.21z"/>
		<path class="st6" d="M242.84,142.58c2.59,7,0.92,5.32,7.92,7.92c-7,2.59-5.32,0.92-7.92,7.92c-2.59-7-0.92-5.32-7.92-7.92
			C241.92,147.9,240.25,149.58,242.84,142.58z"/>
		<path class="st6" d="M264.32,112.37c1.84,4.96,0.65,3.77,5.61,5.61c-4.96,1.84-3.77,0.65-5.61,5.61
			c-1.84-4.96-0.65-3.77-5.61-5.61C263.67,116.14,262.49,117.33,264.32,112.37z"/>
		<path class="st6" d="M246.23,101.44c1.84,4.96,0.65,3.77,5.61,5.61c-4.96,1.84-3.77,0.65-5.61,5.61
			c-1.84-4.96-0.65-3.77-5.61-5.61C245.58,105.21,244.39,106.4,246.23,101.44z"/>
	</g>
	<g>
		<path class="st1" d="M172.79,104.04c-0.51-0.38-1.13-0.66-1.82-0.81c-1.98-0.42-4,0.39-5.22,1.98c-0.11,0.14-0.21,0.28-0.32,0.42
			c-0.09-0.13-0.18-0.25-0.28-0.38c-1.69-2.32-5.68-2.94-7.61-0.57c-0.63,0.78-0.95,1.78-1.01,2.77c-0.13,1.94,0.57,3.81,1.33,5.56
			c0.81,1.85,1.78,3.62,2.74,5.39c1.21,2.23,2.42,4.45,3.63,6.68c0.19,0.34,0.57,1.02,1.04,0.87c0.34-0.11,0.6-0.79,0.79-1.07
			c2.16-3.13,3.98-6.55,5.9-9.85C173.7,112.02,176.5,106.78,172.79,104.04z"/>
		<path class="st1" d="M175.61,132.35c-0.43-0.08-0.88-0.06-1.35,0.05c-1.33,0.33-2.31,1.43-2.58,2.76
			c-0.02,0.12-0.05,0.23-0.07,0.35c-0.09-0.05-0.19-0.1-0.28-0.15c-1.72-0.91-4.33-0.09-4.79,1.93c-0.15,0.66-0.05,1.36,0.21,1.99
			c0.5,1.22,1.48,2.15,2.47,2.98c1.05,0.88,2.16,1.67,3.27,2.46c1.4,0.99,2.8,1.98,4.2,2.97c0.22,0.15,0.65,0.45,0.89,0.22
			c0.17-0.17,0.13-0.66,0.16-0.88c0.38-2.55,0.46-5.17,0.65-7.75C178.54,136.93,178.68,132.91,175.61,132.35z"/>
		<path class="st1" d="M152.46,123.63c-0.64,0-1.3,0.14-1.94,0.43c-1.85,0.83-2.99,2.68-3.04,4.68c0,0.18-0.01,0.35-0.01,0.53
			c-0.15-0.05-0.3-0.09-0.45-0.14c-2.74-0.87-6.32,0.99-6.47,4.05c-0.05,1,0.29,1.99,0.82,2.84c1.04,1.64,2.71,2.74,4.36,3.69
			c1.75,1.01,3.57,1.87,5.4,2.73c2.29,1.08,4.58,2.16,6.87,3.24c0.35,0.17,1.06,0.49,1.35,0.08c0.21-0.29,0.01-0.99,0-1.33
			c-0.11-3.8-0.67-7.64-1.07-11.44C157.92,129.52,157.08,123.64,152.46,123.63z"/>
		<path class="st1" d="M145.41,94.18c-0.43-0.08-0.88-0.06-1.35,0.05c-1.33,0.33-2.31,1.43-2.58,2.76
			c-0.02,0.12-0.05,0.23-0.07,0.35c-0.09-0.05-0.19-0.1-0.28-0.15c-1.72-0.91-4.33-0.09-4.79,1.93c-0.15,0.66-0.05,1.36,0.21,1.99
			c0.5,1.22,1.48,2.15,2.47,2.98c1.05,0.88,2.16,1.67,3.27,2.46c1.4,0.99,2.8,1.98,4.2,2.97c0.22,0.15,0.65,0.45,0.89,0.22
			c0.17-0.17,0.13-0.66,0.16-0.88c0.38-2.55,0.46-5.17,0.65-7.75C148.35,98.76,148.49,94.74,145.41,94.18z"/>
		<path class="st1" d="M190.84,97.05c-0.19-0.39-0.46-0.75-0.83-1.06c-1.05-0.88-2.51-1.04-3.75-0.48c-0.11,0.05-0.22,0.1-0.32,0.15
			c-0.01-0.1-0.03-0.21-0.04-0.31c-0.27-1.93-2.46-3.57-4.37-2.76c-0.62,0.26-1.13,0.76-1.49,1.33c-0.7,1.12-0.88,2.46-0.97,3.75
			c-0.1,1.36-0.09,2.73-0.08,4.09c0.01,1.71,0.03,3.43,0.04,5.14c0,0.26,0.01,0.79,0.35,0.85c0.24,0.04,0.61-0.28,0.81-0.39
			c2.29-1.18,4.46-2.65,6.66-4.01C188.85,102.11,192.19,99.87,190.84,97.05z"/>
	</g>
	<g>
		<path class="st9" d="M59.33,195.46c1.31,1.06,2.71,0.78,4.11,0.12c0.9-0.42,1.59-1.11,2.31-1.75c0.47-0.43,0.65-0.3,0.72,0.27
			c0.1,0.88,0.37,1.72,0.75,2.52c0.98,2.07,3.16,2.86,5,1.68c1.9-1.21,2.86-3.01,2.82-5.28c-0.01-0.79-0.15-1.58-0.24-2.4
			c3.02,0.68,3.75,0.72,5.16,0.28c2.5-0.77,3.53-3.07,2.34-5.28c-0.45-0.83-1.2-1.34-1.97-1.83c-0.92-0.59-2.05-0.63-3.08-1.15
			c0.71-0.59,1.29-1.16,1.79-1.81c1.25-1.64,1.33-3.73,0.18-5.03c-1.06-1.2-3.08-1.41-4.88-0.51c-1.17,0.58-2.05,1.52-3,2.5
			c-0.14-0.51-0.24-0.92-0.36-1.32c-0.4-1.36-1.02-2.58-2.03-3.6c-1.25-1.26-2.82-1.58-4.2-0.7c-1.04,0.67-1.4,1.77-1.57,2.94
			c-0.19,1.4-0.02,2.76,0.5,4.27c-1.26-0.6-2.3-1.07-3.42-1.36c-1.47-0.38-2.82-0.25-3.82,0.97c-0.93,1.14-0.9,2.46-0.4,3.79
			c0.59,1.55,1.68,2.65,3.14,3.38c0.72,0.36,1.47,0.65,2.3,1.02c-1.4,1.09-2.45,2.33-3.03,3.91
			C57.85,192.69,58.18,194.54,59.33,195.46z"/>
		<path class="st9" d="M22.97,178.95c2.09,1.69,4.34,1.25,6.58,0.19c1.44-0.68,2.55-1.77,3.7-2.81c0.75-0.68,1.05-0.47,1.15,0.43
			c0.16,1.42,0.59,2.75,1.2,4.03c1.57,3.31,5.06,4.58,8.01,2.7c3.04-1.93,4.58-4.83,4.52-8.47c-0.02-1.27-0.24-2.54-0.38-3.84
			c4.83,1.09,6.01,1.15,8.27,0.45c4.01-1.24,5.65-4.92,3.74-8.45c-0.71-1.32-1.92-2.14-3.16-2.93c-1.48-0.94-3.29-1-4.93-1.84
			c1.13-0.94,2.07-1.85,2.86-2.9c2-2.63,2.13-5.97,0.28-8.06c-1.7-1.92-4.93-2.25-7.83-0.82c-1.87,0.93-3.28,2.43-4.81,4
			c-0.22-0.82-0.38-1.47-0.57-2.12c-0.64-2.18-1.64-4.14-3.26-5.77c-2.01-2.02-4.52-2.54-6.73-1.12c-1.66,1.07-2.25,2.83-2.51,4.71
			c-0.31,2.24-0.03,4.43,0.79,6.84c-2.01-0.96-3.68-1.72-5.48-2.18c-2.35-0.6-4.51-0.4-6.11,1.55c-1.49,1.82-1.44,3.94-0.63,6.07
			c0.94,2.48,2.69,4.24,5.03,5.42c1.15,0.58,2.35,1.05,3.68,1.63c-2.24,1.75-3.93,3.73-4.86,6.26
			C20.6,174.51,21.13,177.47,22.97,178.95z"/>
		<path class="st9" d="M50.77,234.49c1.31,1.06,2.71,0.78,4.11,0.12c0.9-0.42,1.59-1.11,2.31-1.75c0.47-0.43,0.65-0.3,0.72,0.27
			c0.1,0.88,0.37,1.72,0.75,2.52c0.98,2.07,3.16,2.86,5,1.68c1.9-1.21,2.86-3.01,2.82-5.28c-0.01-0.79-0.15-1.58-0.24-2.4
			c3.02,0.68,3.75,0.72,5.16,0.28c2.5-0.77,3.53-3.07,2.34-5.28c-0.45-0.83-1.2-1.34-1.97-1.83c-0.92-0.59-2.05-0.63-3.08-1.15
			c0.71-0.59,1.29-1.16,1.79-1.81c1.25-1.64,1.33-3.73,0.18-5.03c-1.06-1.2-3.08-1.41-4.88-0.51c-1.17,0.58-2.05,1.52-3,2.5
			c-0.14-0.51-0.24-0.92-0.36-1.32c-0.4-1.36-1.02-2.58-2.03-3.6c-1.25-1.26-2.82-1.58-4.2-0.7c-1.04,0.67-1.4,1.77-1.57,2.94
			c-0.19,1.4-0.02,2.76,0.5,4.27c-1.26-0.6-2.3-1.07-3.42-1.36c-1.47-0.38-2.82-0.25-3.82,0.97c-0.93,1.14-0.9,2.46-0.4,3.79
			c0.59,1.55,1.68,2.65,3.14,3.38c0.72,0.36,1.47,0.65,2.3,1.02c-1.4,1.09-2.45,2.33-3.03,3.91
			C49.3,231.72,49.63,233.57,50.77,234.49z"/>
		<path class="st9" d="M87.72,228.11c1.91,1.54,3.96,1.14,6.01,0.18c1.31-0.62,2.33-1.62,3.38-2.57c0.69-0.62,0.96-0.43,1.05,0.39
			c0.14,1.29,0.54,2.51,1.09,3.69c1.43,3.03,4.62,4.18,7.32,2.47c2.77-1.77,4.19-4.41,4.13-7.73c-0.02-1.16-0.22-2.32-0.34-3.51
			c4.42,0.99,5.49,1.05,7.56,0.41c3.66-1.13,5.16-4.49,3.42-7.72c-0.65-1.21-1.76-1.95-2.89-2.68c-1.35-0.86-3-0.92-4.5-1.68
			c1.03-0.86,1.89-1.69,2.62-2.65c1.83-2.4,1.94-5.46,0.26-7.36c-1.56-1.76-4.5-2.06-7.15-0.75c-1.71,0.85-3,2.22-4.39,3.66
			c-0.2-0.75-0.35-1.35-0.52-1.94c-0.58-1.99-1.49-3.78-2.98-5.27c-1.83-1.85-4.13-2.32-6.14-1.02c-1.52,0.97-2.05,2.59-2.29,4.31
			c-0.28,2.04-0.03,4.04,0.73,6.25c-1.84-0.88-3.36-1.57-5-1.99c-2.15-0.55-4.12-0.37-5.58,1.42c-1.36,1.66-1.32,3.6-0.58,5.55
			c0.86,2.27,2.45,3.87,4.59,4.95c1.05,0.53,2.15,0.96,3.36,1.49c-2.05,1.6-3.59,3.4-4.44,5.72
			C85.56,224.05,86.04,226.76,87.72,228.11z"/>
		<path class="st9" d="M89.62,281.24c2.38,1.92,4.92,1.42,7.46,0.22c1.63-0.77,2.89-2.01,4.2-3.19c0.86-0.77,1.19-0.54,1.3,0.48
			c0.18,1.61,0.67,3.12,1.36,4.58c1.78,3.76,5.73,5.19,9.08,3.06c3.44-2.19,5.2-5.48,5.13-9.6c-0.02-1.44-0.28-2.88-0.43-4.36
			c5.48,1.23,6.82,1.3,9.38,0.51c4.55-1.4,6.41-5.58,4.24-9.59c-0.81-1.5-2.18-2.43-3.59-3.32c-1.67-1.07-3.73-1.14-5.59-2.08
			c1.28-1.07,2.34-2.1,3.25-3.29c2.27-2.98,2.41-6.78,0.32-9.14c-1.93-2.18-5.59-2.56-8.88-0.93c-2.12,1.05-3.72,2.76-5.45,4.54
			c-0.25-0.93-0.43-1.67-0.65-2.41c-0.72-2.47-1.85-4.69-3.69-6.55c-2.28-2.29-5.13-2.88-7.63-1.27c-1.88,1.21-2.55,3.21-2.84,5.35
			c-0.35,2.54-0.04,5.02,0.9,7.76c-2.28-1.09-4.17-1.95-6.21-2.47c-2.67-0.68-5.12-0.46-6.93,1.76c-1.69,2.07-1.64,4.47-0.72,6.89
			c1.07,2.82,3.05,4.81,5.7,6.14c1.3,0.65,2.67,1.19,4.18,1.85c-2.54,1.99-4.45,4.23-5.51,7.1
			C86.94,276.2,87.55,279.56,89.62,281.24z"/>
		<path class="st9" d="M16.48,134.19c1.31,1.06,2.71,0.78,4.11,0.12c0.9-0.42,1.59-1.11,2.31-1.75c0.47-0.43,0.65-0.3,0.72,0.27
			c0.1,0.88,0.37,1.72,0.75,2.52c0.98,2.07,3.16,2.86,5,1.68c1.9-1.21,2.86-3.01,2.82-5.28c-0.01-0.79-0.15-1.58-0.24-2.4
			c3.02,0.68,3.75,0.72,5.16,0.28c2.5-0.77,3.53-3.07,2.34-5.28c-0.45-0.83-1.2-1.34-1.97-1.83c-0.92-0.59-2.05-0.63-3.08-1.15
			c0.71-0.59,1.29-1.16,1.79-1.81c1.25-1.64,1.33-3.73,0.18-5.03c-1.06-1.2-3.08-1.41-4.88-0.51c-1.17,0.58-2.05,1.52-3,2.5
			c-0.14-0.51-0.24-0.92-0.36-1.32c-0.4-1.36-1.02-2.58-2.03-3.6c-1.25-1.26-2.82-1.58-4.2-0.7c-1.04,0.67-1.4,1.77-1.57,2.94
			c-0.19,1.4-0.02,2.76,0.5,4.27c-1.26-0.6-2.3-1.07-3.42-1.36c-1.47-0.38-2.82-0.25-3.82,0.97c-0.93,1.14-0.9,2.46-0.4,3.79
			c0.59,1.55,1.68,2.65,3.14,3.38c0.72,0.36,1.47,0.65,2.3,1.02c-1.4,1.09-2.45,2.33-3.03,3.91
			C15.01,131.41,15.34,133.27,16.48,134.19z"/>
	</g>
	<g>
		<path class="st4" d="M67.05,182.8c1.16-0.99,3.05-0.81,4.08,0.39c1.08,1.27,1,3.33-0.19,4.37c-1.09,0.96-3.31,0.81-4.24-0.29
			C65.67,186.04,65.84,183.84,67.05,182.8z"/>
		<path class="st4" d="M35.35,158.67c1.86-1.59,4.88-1.3,6.53,0.63c1.74,2.03,1.6,5.33-0.3,7.01c-1.75,1.54-5.31,1.3-6.79-0.47
			C33.14,163.86,33.41,160.33,35.35,158.67z"/>
		<path class="st4" d="M58.5,221.83c1.16-0.99,3.05-0.81,4.08,0.39c1.08,1.27,1,3.33-0.19,4.37c-1.09,0.96-3.31,0.81-4.24-0.29
			C57.12,225.07,57.29,222.87,58.5,221.83z"/>
		<path class="st4" d="M99.02,209.58c1.7-1.45,4.46-1.19,5.97,0.57c1.59,1.86,1.46,4.87-0.27,6.4c-1.59,1.41-4.85,1.19-6.2-0.43
			C97.01,214.32,97.26,211.1,99.02,209.58z"/>
		<path class="st4" d="M103.66,258.24c2.11-1.8,5.54-1.47,7.41,0.71c1.97,2.31,1.81,6.04-0.34,7.95c-1.98,1.75-6.02,1.47-7.7-0.53
			C101.16,264.12,101.47,260.12,103.66,258.24z"/>
		<path class="st4" d="M24.21,121.53c1.16-0.99,3.05-0.81,4.08,0.39c1.08,1.27,1,3.33-0.19,4.37c-1.09,0.96-3.31,0.81-4.24-0.29
			C22.83,124.77,23,122.56,24.21,121.53z"/>
	</g>
	<path class="st6" d="M279.23,103.36c1.43-0.5,2.42-1.61,3.5-2.57c1.73-1.54,3.15-3.32,3.77-5.63c0.36-1.35,0.31-2.67-0.21-3.96
		c-0.73-1.79-2.65-2.55-4.41-1.76c-1.25,0.56-2.18,1.46-2.86,2.63c-0.18,0.31-0.34,0.64-0.7,0.91c-0.26-0.93-0.15-1.82-0.22-2.7
		c-0.08-1.12-0.53-2.04-1.42-2.74c-1.25-0.98-2.8-0.65-3.57,0.75c-0.32,0.59-0.48,1.22-0.57,1.88c-0.07,0.53-0.13,1.07-0.42,1.53
		c-0.36-0.06-0.33-0.34-0.41-0.53c-0.25-0.58-0.44-1.19-0.75-1.74c-1.1-2-3.52-2.09-4.84-0.2c-1.53,2.19-1.9,4.57-1.19,7.12
		c0.63,2.25,1.71,4.24,3.54,5.76c0.54-2.16,2.16-2.9,4.09-1.83c0.47,0.26,0.95,0.58,1.29,0.99c0.46,0.55,0.67,0.63,1.12-0.04
		c0.54-0.81,1.35-1.39,2.4-1.21c0.95,0.16,1.54,0.82,1.86,1.73C279.4,102.29,279.21,102.83,279.23,103.36z"/>
	<path class="st8" d="M279.23,103.36c-0.02-0.54,0.16-1.08-0.03-1.62c-0.32-0.9-0.91-1.56-1.86-1.73c-1.05-0.18-1.86,0.4-2.4,1.21
		c-0.45,0.67-0.66,0.59-1.12,0.04c-0.34-0.41-0.82-0.73-1.29-0.99c-1.93-1.07-3.55-0.33-4.09,1.83c0.24,1.16,1,1.9,1.97,2.47
		c0.96,0.57,1.92,1.15,2.91,1.64c0.44,0.22,0.6,0.49,0.71,0.95c0.72,2.92,1.46,5.84,3.38,8.27c0.52,0.66,1.12,1.23,1.92,1.52
		c0.5,0.18,0.92,0.07,1.19-0.39c0.27-0.46,0.18-0.93-0.26-1.21c-1.64-1.07-2.39-2.71-2.99-4.47c-0.44-1.3-0.9-2.6-1.14-3.95
		c-0.05-0.29-0.12-0.56,0.26-0.7C277.79,105.72,278.54,104.57,279.23,103.36z"/>
	<path class="st5" d="M254.94,74.97c-1.31-0.75-2.08-2.03-2.96-3.17c-1.41-1.83-2.48-3.85-2.66-6.23c-0.1-1.39,0.19-2.68,0.94-3.85
		c1.05-1.62,3.08-2.02,4.66-0.92c1.12,0.78,1.87,1.84,2.33,3.12c0.12,0.34,0.22,0.69,0.52,1.02c0.42-0.86,0.48-1.76,0.71-2.61
		c0.29-1.08,0.9-1.9,1.9-2.43c1.41-0.73,2.88-0.12,3.37,1.4c0.21,0.64,0.25,1.29,0.21,1.95c-0.03,0.53-0.07,1.07,0.13,1.58
		c0.36,0.01,0.38-0.28,0.5-0.45c0.36-0.52,0.65-1.08,1.05-1.57c1.45-1.77,3.85-1.4,4.8,0.7c1.1,2.43,1.03,4.84-0.14,7.22
		c-1.03,2.1-2.46,3.86-4.55,5.01c-0.13-2.22-1.59-3.25-3.68-2.56c-0.51,0.17-1.04,0.4-1.45,0.73c-0.55,0.46-0.78,0.5-1.09-0.25
		c-0.38-0.89-1.07-1.62-2.14-1.63c-0.96-0.01-1.67,0.53-2.15,1.36C254.98,73.88,255.06,74.44,254.94,74.97z"/>
	<path class="st8" d="M254.94,74.97c0.12-0.53,0.04-1.09,0.32-1.58c0.48-0.83,1.18-1.37,2.15-1.36c1.07,0.01,1.75,0.74,2.14,1.63
		c0.32,0.74,0.54,0.7,1.09,0.25c0.41-0.34,0.94-0.56,1.45-0.73c2.09-0.7,3.55,0.33,3.68,2.56c-0.45,1.09-1.34,1.68-2.39,2.06
		c-1.05,0.38-2.1,0.77-3.17,1.07c-0.48,0.13-0.68,0.38-0.87,0.8c-1.25,2.74-2.52,5.47-4.86,7.5c-0.63,0.55-1.33,1-2.17,1.14
		c-0.52,0.09-0.91-0.1-1.09-0.6c-0.18-0.51,0-0.95,0.48-1.14c1.81-0.74,2.85-2.22,3.76-3.84c0.68-1.2,1.36-2.39,1.86-3.67
		c0.1-0.27,0.23-0.53-0.12-0.74C255.92,77.55,255.4,76.28,254.94,74.97z"/>
	<g>
		<path class="st5" d="M141.37,71.64c-0.64,0.64-1.26,1.29-1.94,1.88c-0.91,0.79-1.84,1.57-2.99,1.98c-1.47,0.52-3,0.86-4.57,0.79
			c-1.47-0.07-2.78-0.58-3.85-1.69c-0.75-0.78-1.35-1.61-1.64-2.67c-0.48-1.78-0.18-3.4,0.89-4.9c0.77-1.08,1.7-1.91,2.92-2.47
			c0.92-0.42,1.84-0.81,2.83-1c0.98-0.19,1.97-0.17,2.94,0.16c1.47,0.51,2.91,1.09,4.2,1.98c0.55,0.38,1.02,0.85,1.51,1.3
			c0.18,0.16,0.27,0.19,0.43-0.01c0.25-0.31,0.64-0.27,0.98-0.3c0.37-0.03,0.71-0.13,1.06-0.25c0.84-0.29,1.71-0.39,2.53,0.09
			c0.2,0.12,0.25-0.02,0.33-0.13c0.49-0.65,0.89-1.35,1.3-2.05c1.27-2.19,2.75-4.23,4.82-5.75c1.11-0.82,2.37-1.29,3.71-1.58
			c0.96-0.21,1.88-0.11,2.78,0.13c1.12,0.3,1.99,1.01,2.65,1.97c1.13,1.66,1.45,3.53,1.28,5.49c-0.12,1.28-0.19,2.59-0.54,3.83
			c-0.45,1.61-1.41,2.82-2.94,3.63c-1.52,0.8-3.07,0.92-4.71,0.57c-0.87-0.19-1.73-0.4-2.6-0.58c-1.54-0.33-2.83-1.19-4.19-1.91
			c-0.44-0.24-0.84-0.52-1.25-0.81c-0.13-0.09-0.3-0.28-0.44-0.09c-0.12,0.16,0.11,0.26,0.21,0.35c0.97,0.79,1.85,1.67,2.54,2.7
			c1.44,2.14,2.94,4.26,3.64,6.8c0.29,1.05,0.86,1.98,1.32,2.97c0.13,0.29,0.35,0.51,0.59,0.73c0.28,0.25,0.29,0.52,0.06,0.83
			c-0.41,0.58-0.95,1-1.52,1.4c-0.61,0.44-1.02,1.03-1.22,1.77c-0.06,0.22-0.16,0.4-0.42,0.38c-0.24-0.02-0.32-0.21-0.33-0.42
			c-0.04-0.54-0.29-0.99-0.58-1.43c-0.52-0.78-0.79-1.61-0.84-2.56c-0.13-2.6-0.51-5.17-1.45-7.62c-0.6-1.55-1.4-3-2.37-4.35
			c-0.11-0.15-0.19-0.31-0.29-0.47c-0.37-0.61-0.92-0.78-1.55-0.42c-0.47,0.26-0.91,0.56-1.48,0.52c-0.19-0.01-0.2,0.17-0.23,0.31
			c-0.47,2.34-1.13,4.64-1.77,6.94c-0.25,0.88-0.67,1.7-0.88,2.6c-0.46,2.04-0.25,3.99,0.76,5.84c0.39,0.72,0.81,1.4,1.42,1.96
			c0.16,0.15,0.21,0.33,0.12,0.53c-0.1,0.23-0.29,0.21-0.5,0.18c-0.88-0.11-1.57-0.55-2.13-1.21c-0.27-0.32-0.54-0.64-0.8-0.97
			c-0.71-0.92-1.63-1.52-2.74-1.83c-0.52-0.15-0.63-0.26-0.7-0.8c-0.15-1.05,0.19-2.01,0.54-2.97c0.71-1.96,1.83-3.68,3.04-5.37
			c0.63-0.88,1.08-1.88,1.57-2.85c0.18-0.36,0.45-0.68,0.54-1.08c0.02-0.03,0.06-0.06,0-0.09
			C141.41,71.59,141.38,71.62,141.37,71.64z M147.47,68.36c0.55,0.26,1.1,0.5,1.63,0.77c0.43,0.22,0.87,0.36,1.34,0.42
			c1.98,0.26,3.92,0.74,5.93,0.76c0.78,0.01,1.56,0.21,2.32-0.08c0.59-0.23,1.25-0.35,1.59-0.98c0.28-0.52,0.52-1.06,0.66-1.63
			c0.54-2.3,0.64-4.63,0.16-6.95c-0.25-1.22-0.94-2.21-2.3-2.49c-0.54-0.11-1.08-0.05-1.59,0.08c-1.31,0.34-2.49,0.85-3.1,2.24
			c-0.9,2.05-2.18,3.87-3.66,5.54c-0.73,0.82-1.45,1.69-2.54,2.1C147.77,68.18,147.59,68.2,147.47,68.36z M134.29,73.94
			c0.42-0.03,0.83-0.14,1.22-0.27c2.48-0.8,4.56-2.21,6.32-4.13c0.27-0.3,0.25-0.37-0.12-0.57c-0.76-0.4-1.54-0.78-2.28-1.23
			c-2.24-1.37-4.58-2.39-7.26-2.43c-0.79-0.01-1.48,0.11-1.98,0.83c-0.36,0.51-0.7,1.01-0.92,1.59c-0.42,1.1-0.82,2.22-0.46,3.42
			c0.27,0.91,0.75,1.64,1.61,2.12C131.65,73.95,132.94,74.08,134.29,73.94z"/>
		<path class="st5" d="M119.94,122.88c-0.72,0.54-1.43,1.09-2.19,1.58c-1.02,0.65-2.04,1.29-3.24,1.53c-1.53,0.3-3.1,0.42-4.63,0.13
			c-1.44-0.28-2.67-0.98-3.56-2.23c-0.63-0.88-1.1-1.79-1.23-2.87c-0.22-1.83,0.31-3.39,1.58-4.72c0.91-0.96,1.96-1.64,3.24-2.02
			c0.97-0.28,1.94-0.54,2.94-0.59c1-0.05,1.98,0.11,2.89,0.58c1.39,0.71,2.72,1.5,3.87,2.57c0.49,0.45,0.89,0.99,1.31,1.51
			c0.15,0.19,0.24,0.22,0.43,0.06c0.3-0.27,0.67-0.18,1.01-0.16c0.37,0.03,0.72-0.03,1.08-0.1c0.88-0.17,1.75-0.14,2.49,0.45
			c0.18,0.15,0.25,0.01,0.35-0.08c0.58-0.57,1.08-1.2,1.58-1.84c1.58-1.99,3.33-3.78,5.6-5c1.22-0.65,2.53-0.93,3.9-1.03
			c0.98-0.07,1.88,0.16,2.74,0.53c1.06,0.46,1.83,1.29,2.33,2.33c0.88,1.8,0.93,3.7,0.47,5.61c-0.3,1.25-0.56,2.53-1.08,3.72
			c-0.68,1.53-1.81,2.59-3.43,3.17c-1.62,0.57-3.18,0.47-4.74-0.11c-0.83-0.31-1.65-0.64-2.49-0.95c-1.47-0.55-2.63-1.58-3.87-2.5
			c-0.4-0.3-0.76-0.64-1.12-0.98c-0.11-0.11-0.26-0.32-0.42-0.16c-0.14,0.14,0.07,0.27,0.16,0.37c0.84,0.92,1.59,1.92,2.13,3.04
			c1.12,2.33,2.3,4.64,2.62,7.26c0.14,1.08,0.57,2.09,0.87,3.13c0.09,0.3,0.28,0.56,0.48,0.81c0.24,0.29,0.21,0.55-0.06,0.83
			c-0.49,0.51-1.09,0.85-1.7,1.17c-0.67,0.35-1.16,0.88-1.47,1.57c-0.09,0.21-0.22,0.37-0.47,0.31c-0.24-0.06-0.28-0.25-0.27-0.46
			c0.04-0.54-0.14-1.02-0.37-1.5c-0.4-0.84-0.55-1.71-0.46-2.66c0.25-2.6,0.24-5.19-0.34-7.75c-0.37-1.62-0.95-3.17-1.72-4.65
			c-0.08-0.16-0.15-0.33-0.22-0.5c-0.28-0.66-0.8-0.9-1.48-0.64c-0.5,0.19-0.98,0.43-1.54,0.3c-0.19-0.04-0.22,0.14-0.27,0.28
			c-0.8,2.25-1.79,4.43-2.76,6.61c-0.37,0.83-0.91,1.58-1.24,2.44c-0.75,1.95-0.83,3.91-0.09,5.89c0.28,0.76,0.6,1.5,1.12,2.14
			c0.14,0.17,0.16,0.35,0.04,0.54c-0.14,0.21-0.32,0.16-0.52,0.11c-0.85-0.23-1.47-0.77-1.94-1.5c-0.22-0.35-0.44-0.71-0.65-1.07
			c-0.57-1.01-1.39-1.74-2.45-2.21c-0.49-0.22-0.58-0.35-0.58-0.89c0-1.06,0.48-1.97,0.96-2.86c0.99-1.83,2.35-3.38,3.78-4.88
			c0.75-0.78,1.34-1.71,1.96-2.59c0.23-0.33,0.54-0.61,0.69-0.99c0.03-0.02,0.07-0.05,0.01-0.08
			C119.99,122.84,119.96,122.87,119.94,122.88z M126.46,120.51c0.5,0.33,1.01,0.65,1.5,1c0.39,0.28,0.81,0.48,1.26,0.61
			c1.92,0.54,3.77,1.3,5.76,1.61c0.77,0.12,1.51,0.44,2.31,0.25c0.62-0.14,1.29-0.16,1.71-0.74c0.35-0.47,0.67-0.97,0.88-1.52
			c0.87-2.2,1.3-4.49,1.16-6.85c-0.07-1.24-0.61-2.32-1.91-2.8c-0.52-0.19-1.06-0.21-1.59-0.15c-1.35,0.15-2.58,0.48-3.39,1.77
			c-1.19,1.89-2.71,3.51-4.42,4.95c-0.84,0.71-1.68,1.46-2.82,1.71C126.78,120.38,126.59,120.37,126.46,120.51z M112.61,124.13
			c0.42,0.03,0.84-0.02,1.25-0.09c2.57-0.43,4.84-1.53,6.85-3.17c0.31-0.26,0.3-0.33-0.04-0.58c-0.7-0.51-1.41-0.99-2.08-1.54
			c-2.02-1.67-4.19-3.03-6.83-3.45c-0.78-0.13-1.48-0.11-2.08,0.53c-0.43,0.45-0.83,0.9-1.14,1.44c-0.58,1.03-1.13,2.07-0.95,3.32
			c0.13,0.94,0.5,1.73,1.29,2.33C109.99,123.77,111.26,124.08,112.61,124.13z"/>
		<path class="st5" d="M170.68,40.5c-0.87,0.22-1.74,0.47-2.62,0.63c-1.19,0.21-2.38,0.42-3.58,0.18c-1.53-0.3-3.02-0.78-4.33-1.64
			c-1.23-0.81-2.1-1.92-2.45-3.41c-0.25-1.06-0.34-2.08-0.05-3.13c0.49-1.78,1.57-3.02,3.26-3.77c1.21-0.54,2.43-0.78,3.77-0.64
			c1.01,0.1,2,0.24,2.94,0.57c0.94,0.34,1.79,0.85,2.45,1.63c1.01,1.19,1.95,2.42,2.61,3.85c0.28,0.61,0.45,1.25,0.64,1.89
			c0.07,0.23,0.14,0.3,0.37,0.21c0.38-0.14,0.69,0.09,1,0.24c0.33,0.16,0.68,0.25,1.04,0.32c0.87,0.18,1.67,0.53,2.13,1.36
			c0.11,0.21,0.23,0.11,0.36,0.06c0.75-0.31,1.45-0.71,2.16-1.1c2.21-1.24,4.52-2.24,7.08-2.5c1.38-0.14,2.69,0.1,4,0.53
			c0.93,0.3,1.68,0.86,2.33,1.53c0.81,0.83,1.2,1.89,1.28,3.04c0.13,2-0.54,3.78-1.69,5.37c-0.75,1.05-1.48,2.13-2.41,3.03
			c-1.21,1.16-2.65,1.71-4.38,1.63c-1.72-0.09-3.12-0.77-4.34-1.9c-0.65-0.6-1.29-1.22-1.94-1.82c-1.15-1.07-1.84-2.46-2.63-3.78
			c-0.26-0.43-0.46-0.88-0.66-1.33c-0.06-0.14-0.12-0.39-0.33-0.3c-0.18,0.08-0.04,0.28,0.01,0.41c0.43,1.17,0.74,2.38,0.82,3.62
			c0.15,2.58,0.37,5.16-0.33,7.71c-0.28,1.05-0.27,2.15-0.38,3.22c-0.03,0.31,0.04,0.62,0.13,0.93c0.11,0.36-0.02,0.59-0.37,0.75
			c-0.65,0.29-1.33,0.37-2.02,0.43c-0.75,0.07-1.41,0.37-1.95,0.9c-0.16,0.16-0.34,0.26-0.56,0.11c-0.2-0.14-0.17-0.34-0.07-0.53
			c0.24-0.49,0.26-1,0.23-1.53c-0.05-0.93,0.14-1.79,0.58-2.64c1.21-2.31,2.19-4.71,2.63-7.3c0.28-1.64,0.33-3.3,0.17-4.96
			c-0.02-0.18-0.01-0.37-0.01-0.55c-0.01-0.72-0.4-1.14-1.12-1.15c-0.54-0.01-1.07,0.02-1.54-0.31c-0.16-0.11-0.26,0.05-0.35,0.15
			c-1.6,1.78-3.33,3.42-5.06,5.07c-0.66,0.63-1.44,1.12-2.07,1.79c-1.44,1.52-2.25,3.3-2.32,5.41c-0.03,0.81-0.01,1.62,0.22,2.41
			c0.06,0.21,0.02,0.39-0.17,0.52c-0.21,0.14-0.36,0.03-0.52-0.1c-0.7-0.54-1.07-1.27-1.22-2.12c-0.07-0.41-0.14-0.82-0.19-1.24
			c-0.14-1.15-0.63-2.14-1.43-2.97c-0.37-0.39-0.41-0.55-0.2-1.05c0.4-0.98,1.19-1.64,1.98-2.28c1.61-1.32,3.45-2.24,5.35-3.08
			c0.99-0.44,1.88-1.07,2.8-1.65c0.34-0.22,0.73-0.36,1.02-0.65c0.03-0.01,0.08-0.02,0.04-0.07
			C170.74,40.47,170.71,40.49,170.68,40.5z M177.61,40.78c0.34,0.5,0.69,0.99,1.01,1.49c0.26,0.4,0.57,0.75,0.94,1.04
			c1.57,1.23,3,2.64,4.72,3.68c0.67,0.4,1.23,0.98,2.04,1.11c0.62,0.1,1.25,0.34,1.87-0.03c0.5-0.31,0.98-0.64,1.4-1.07
			c1.64-1.71,2.91-3.67,3.68-5.9c0.41-1.18,0.32-2.38-0.71-3.32c-0.41-0.37-0.9-0.6-1.41-0.74c-1.3-0.37-2.57-0.54-3.81,0.35
			c-1.82,1.3-3.84,2.22-5.97,2.9c-1.05,0.34-2.11,0.72-3.26,0.52C177.95,40.78,177.79,40.7,177.61,40.78z M163.42,38.87
			c0.38,0.19,0.78,0.3,1.19,0.39c2.54,0.58,5.06,0.42,7.54-0.34c0.39-0.12,0.4-0.19,0.18-0.55c-0.45-0.73-0.93-1.45-1.34-2.21
			c-1.23-2.31-2.72-4.39-5.01-5.79c-0.67-0.41-1.32-0.66-2.13-0.3c-0.57,0.25-1.11,0.52-1.6,0.9c-0.93,0.73-1.83,1.49-2.14,2.71
			c-0.23,0.92-0.19,1.79,0.31,2.64C161.14,37.54,162.19,38.31,163.42,38.87z"/>
		<path class="st5" d="M131.03,37.73c-0.64,0.64-1.26,1.29-1.94,1.88c-0.91,0.79-1.84,1.57-2.99,1.98c-1.47,0.52-3,0.86-4.57,0.79
			c-1.47-0.07-2.78-0.58-3.85-1.69c-0.75-0.78-1.35-1.61-1.64-2.67c-0.48-1.78-0.18-3.4,0.89-4.9c0.77-1.08,1.7-1.91,2.92-2.47
			c0.92-0.42,1.84-0.81,2.83-1c0.98-0.19,1.97-0.17,2.94,0.16c1.47,0.51,2.91,1.09,4.2,1.98c0.55,0.38,1.02,0.85,1.51,1.3
			c0.18,0.16,0.27,0.19,0.43-0.01c0.25-0.31,0.64-0.27,0.98-0.3c0.37-0.03,0.71-0.13,1.06-0.25c0.84-0.29,1.71-0.39,2.53,0.09
			c0.2,0.12,0.25-0.02,0.33-0.13c0.49-0.65,0.89-1.35,1.3-2.05c1.27-2.19,2.75-4.23,4.82-5.75c1.11-0.82,2.37-1.29,3.71-1.58
			c0.96-0.21,1.88-0.11,2.78,0.13c1.12,0.3,1.99,1.01,2.65,1.97c1.13,1.66,1.45,3.53,1.28,5.49c-0.12,1.28-0.19,2.59-0.54,3.83
			c-0.45,1.61-1.41,2.82-2.94,3.63c-1.52,0.8-3.07,0.92-4.71,0.57c-0.87-0.19-1.73-0.4-2.6-0.58c-1.54-0.33-2.83-1.19-4.19-1.91
			c-0.44-0.24-0.84-0.52-1.25-0.81c-0.13-0.09-0.3-0.28-0.44-0.09c-0.12,0.16,0.11,0.26,0.21,0.35c0.97,0.79,1.85,1.67,2.54,2.7
			c1.44,2.14,2.94,4.26,3.64,6.8c0.29,1.05,0.86,1.98,1.32,2.97c0.13,0.29,0.35,0.51,0.59,0.73c0.28,0.25,0.29,0.52,0.06,0.83
			c-0.41,0.58-0.95,1-1.52,1.4c-0.61,0.44-1.02,1.03-1.22,1.77c-0.06,0.22-0.16,0.4-0.42,0.38c-0.24-0.02-0.32-0.21-0.33-0.42
			c-0.04-0.54-0.29-0.99-0.58-1.43c-0.52-0.78-0.79-1.61-0.84-2.56c-0.13-2.6-0.51-5.17-1.45-7.62c-0.6-1.55-1.4-3-2.37-4.35
			c-0.11-0.15-0.19-0.31-0.29-0.47c-0.37-0.61-0.92-0.78-1.55-0.42c-0.47,0.26-0.91,0.56-1.48,0.52c-0.19-0.01-0.2,0.17-0.23,0.31
			c-0.47,2.34-1.13,4.64-1.77,6.94c-0.25,0.88-0.67,1.7-0.88,2.6c-0.46,2.04-0.25,3.99,0.76,5.84c0.39,0.72,0.81,1.4,1.42,1.96
			c0.16,0.15,0.21,0.33,0.12,0.53c-0.1,0.23-0.29,0.21-0.5,0.18c-0.88-0.11-1.57-0.55-2.13-1.21c-0.27-0.32-0.54-0.64-0.8-0.97
			c-0.71-0.92-1.63-1.52-2.74-1.83c-0.52-0.15-0.63-0.26-0.7-0.8c-0.15-1.05,0.19-2.01,0.54-2.97c0.71-1.96,1.83-3.68,3.04-5.37
			c0.63-0.88,1.08-1.88,1.57-2.85c0.18-0.36,0.45-0.68,0.54-1.08c0.02-0.03,0.06-0.06,0-0.09
			C131.07,37.68,131.04,37.72,131.03,37.73z M137.14,34.45c0.55,0.26,1.1,0.5,1.63,0.77c0.43,0.22,0.87,0.36,1.34,0.42
			c1.98,0.26,3.92,0.74,5.93,0.76c0.78,0.01,1.56,0.21,2.32-0.08c0.59-0.23,1.25-0.35,1.59-0.98c0.28-0.52,0.52-1.06,0.66-1.63
			c0.54-2.3,0.64-4.63,0.16-6.95c-0.25-1.22-0.94-2.21-2.3-2.49c-0.54-0.11-1.08-0.05-1.59,0.08c-1.31,0.34-2.49,0.85-3.1,2.24
			c-0.9,2.05-2.18,3.87-3.66,5.54c-0.73,0.82-1.45,1.69-2.54,2.1C137.43,34.27,137.25,34.29,137.14,34.45z M123.95,40.03
			c0.42-0.03,0.83-0.14,1.22-0.27c2.48-0.8,4.56-2.21,6.32-4.13c0.27-0.3,0.25-0.37-0.12-0.57c-0.76-0.4-1.54-0.78-2.28-1.23
			c-2.24-1.37-4.58-2.39-7.26-2.43c-0.79-0.01-1.48,0.11-1.98,0.83c-0.36,0.51-0.7,1.01-0.92,1.59c-0.42,1.1-0.82,2.22-0.46,3.42
			c0.27,0.91,0.75,1.64,1.61,2.12C121.31,40.04,122.6,40.17,123.95,40.03z"/>
	</g>
	<g>
		<path class="st8" d="M254.81,191.48c-1.29,1.33-2.58,2.67-3.77,4.09c-0.75,0.89-3.03,3.77-4.42,1.95
			c-1.21-1.59,1.23-2.73,2.56-4.04c1.42-1.39,2.78-2.84,4.16-4.26c0.45-0.46,0.51-0.93,0.62-1.54c0.54-2.89-0.47-5.53-1.07-8.24
			c-0.53-2.41-0.33-4.77,0.46-7.09c0.62-1.8,1.81-2.75,3.32-2.71c1.59,0.04,2.99,1.15,3.54,2.85c0.49,1.52,0.52,3.09,0.48,4.67
			c-0.01,0.51-0.03,1.02,0.05,1.56c1.38-2.22,2.42-4.58,3.6-6.88c0.53-1.04,0.45-1.56-0.5-2.45c-2.74-2.54-5.13-5.39-5.58-9.35
			c-0.28-2.43,0.35-4.03,1.9-4.75c1.5-0.7,3.45-0.05,5,1.64c0.87,0.95,1.22,2.13,1.5,3.35c0.28,1.26,0.57,2.52,0.97,3.78
			c1.1-2.33,1.92-4.72,2.68-7.14c0.2-0.63-0.33-0.69-0.65-0.84c-4.34-1.98-6.33-5.65-7.26-10.07c-0.14-0.67-0.12-1.34,0.03-2.01
			c0.28-1.3,0.76-2.5,2.17-2.9c1.42-0.4,2.68,0.09,3.68,1.13c1.19,1.24,1.93,2.76,2.51,4.36c0.33,0.91,0.56,1.86,0.84,2.79
			c0.05,0.13,0.09,0.26,0.14,0.39c0.17-0.13,0.17-0.32,0.14-0.51c0.6-3.43,1.18-6.81,0.26-10.34c-0.83-3.17-0.77-6.46,0.09-9.68
			c0.37-1.38,1.01-2.58,2.23-3.4c1.36-0.92,2.94-0.84,4.14,0.28c1.65,1.54,1.94,3.47,1.5,5.59c-0.67,3.19-2.08,6.1-3.42,9.03
			c-0.24,0.54-0.48,1.07-0.54,1.75c0.6-0.58,1.19-1.17,1.81-1.73c1.49-1.35,3.19-2.23,5.26-2.2c2.41,0.03,3.77,1.57,3.39,3.95
			c-0.45,2.82-1.82,5.14-4.05,6.92c-2.44,1.96-5.19,3.43-8.01,4.76c-0.37,0.17-0.75,0.26-0.85,0.78c-0.43,2.22-1.25,4.32-1.96,6.58
			c0.74-0.17,1.18-0.7,1.73-1.03c1.32-0.8,2.64-1.58,4.26-1.59c2.37-0.01,3.59,1.36,3.17,3.67c-0.74,4.09-3.4,6.37-7.25,7.44
			c-1.6,0.44-3.23,0.65-4.88,0.68c-0.6,0.01-0.97,0.16-1.21,0.73c-1.36,3.17-2.98,6.22-4.66,9.24c-0.12,0.21-0.4,0.43-0.16,0.69
			c0.24,0.26,0.48-0.02,0.71-0.1c0.99-0.34,1.98-0.7,2.98-1.02c1.05-0.33,2.13-0.39,3.22-0.17c2.46,0.51,3.59,2.33,2.89,4.76
			c-0.75,2.59-2.62,4.02-5.1,4.79c-1.95,0.61-3.96,0.97-5.99,0.76c-2.16-0.22-4.13,0.65-6.21,0.8
			C255.11,191.2,254.94,191.35,254.81,191.48z"/>
		<path class="st8" d="M88.32,187.03c-0.01,1.93,0.31,3.85,0.25,5.79c-0.01,0.26,0.25,0.41,0.48,0.31c1.24-0.52,2.14-1.55,2.95-2.59
			c0.85-1.11,1.61-2.29,2.25-3.53c1.26-2.44,2.11-5.07,2.5-7.79c0.23-1.57,0.29-3.15,0.2-4.73c-0.02-0.33-0.42-0.42-0.58-0.25
			c-0.05,0-0.09,0.01-0.15,0.04C91.48,176.67,88.33,181.73,88.32,187.03z"/>
		<path class="st8" d="M121.18,230.75c-1.91,0.29-3.76,0.9-5.68,1.14c-0.26,0.03-0.37,0.31-0.24,0.52c0.71,1.14,1.86,1.88,3.01,2.51
			c1.23,0.67,2.51,1.23,3.84,1.68c2.6,0.87,5.34,1.3,8.08,1.27c1.58-0.02,3.16-0.2,4.7-0.53c0.32-0.07,0.35-0.48,0.15-0.61
			c-0.01-0.05-0.02-0.09-0.06-0.14C131.91,232.28,126.41,229.95,121.18,230.75z"/>
		<path class="st8" d="M75.18,146.35c1.49,1.11,2.98,2.21,4.39,3.42c0.89,0.76,3.6,3.23,4.68,1.21c0.94-1.77-1.65-2.5-3.19-3.57
			c-1.63-1.14-3.2-2.35-4.8-3.53c-0.52-0.38-0.65-0.83-0.87-1.41c-1-2.76-0.44-5.53-0.29-8.31c0.14-2.47-0.45-4.76-1.61-6.92
			c-0.9-1.67-2.23-2.41-3.72-2.13c-1.56,0.3-2.76,1.62-3.02,3.38c-0.23,1.58-0.01,3.14,0.28,4.69c0.1,0.5,0.19,1.01,0.2,1.55
			c-1.72-1.96-3.14-4.13-4.67-6.21c-0.69-0.94-0.7-1.47,0.1-2.5c2.29-2.95,4.18-6.16,3.99-10.13c-0.12-2.45-1-3.92-2.65-4.38
			c-1.59-0.44-3.42,0.52-4.66,2.44c-0.71,1.08-0.86,2.3-0.93,3.55c-0.07,1.29-0.16,2.58-0.34,3.88c-1.47-2.12-2.66-4.34-3.8-6.61
			c-0.3-0.59,0.21-0.74,0.51-0.93c3.96-2.66,5.32-6.6,5.52-11.12c0.03-0.68-0.1-1.34-0.35-1.98c-0.48-1.24-1.16-2.35-2.61-2.5
			c-1.47-0.16-2.63,0.53-3.45,1.72c-0.98,1.41-1.45,3.04-1.77,4.71c-0.18,0.95-0.25,1.93-0.37,2.89c-0.02,0.13-0.05,0.27-0.07,0.4
			c-0.19-0.1-0.22-0.29-0.22-0.48c-1.15-3.29-2.27-6.52-1.94-10.16c0.3-3.26-0.29-6.5-1.67-9.54c-0.59-1.3-1.41-2.38-2.75-2.99
			c-1.49-0.68-3.03-0.35-4.04,0.94c-1.38,1.79-1.35,3.74-0.57,5.76c1.18,3.04,3.05,5.68,4.85,8.36c0.33,0.49,0.65,0.98,0.82,1.64
			c-0.69-0.47-1.36-0.96-2.06-1.42c-1.69-1.09-3.51-1.68-5.55-1.31c-2.38,0.43-3.46,2.16-2.7,4.45c0.9,2.71,2.63,4.77,5.12,6.17
			c2.73,1.54,5.68,2.54,8.68,3.4c0.39,0.11,0.79,0.14,0.97,0.63c0.79,2.12,1.94,4.06,3,6.17c-0.76-0.05-1.28-0.5-1.87-0.74
			c-1.44-0.57-2.86-1.13-4.46-0.88c-2.34,0.38-3.32,1.92-2.53,4.13c1.4,3.92,4.39,5.73,8.36,6.16c1.65,0.18,3.3,0.11,4.93-0.12
			c0.59-0.08,0.98,0,1.31,0.52c1.86,2.91,3.95,5.65,6.1,8.35c0.15,0.19,0.47,0.36,0.27,0.65c-0.2,0.29-0.48,0.06-0.71,0.02
			c-1.04-0.17-2.07-0.37-3.11-0.52c-1.09-0.16-2.16-0.04-3.2,0.36c-2.35,0.9-3.16,2.88-2.07,5.17c1.16,2.43,3.24,3.54,5.81,3.9
			c2.02,0.28,4.06,0.31,6.03-0.23c2.09-0.57,4.18-0.03,6.26-0.22C74.84,146.12,75.04,146.24,75.18,146.35z"/>
		<path class="st8" d="M150.13,279.56c-1.82,0.34-3.65,0.68-5.44,1.14c-1.13,0.29-4.66,1.32-4.73-0.97c-0.07-2,2.58-1.52,4.43-1.8
			c1.96-0.31,3.91-0.7,5.86-1.06c0.63-0.12,0.95-0.46,1.4-0.89c2.11-2.04,2.83-4.78,3.91-7.33c0.96-2.27,2.5-4.08,4.49-5.51
			c1.55-1.11,3.07-1.19,4.28-0.28c1.27,0.96,1.77,2.67,1.23,4.37c-0.48,1.52-1.37,2.82-2.31,4.09c-0.31,0.41-0.62,0.82-0.86,1.3
			c2.41-1,4.63-2.33,6.92-3.52c1.03-0.54,1.28-1.01,1.01-2.28c-0.76-3.66-1.05-7.37,0.87-10.85c1.19-2.15,2.62-3.08,4.31-2.77
			c1.63,0.3,2.84,1.96,3.12,4.24c0.16,1.28-0.24,2.45-0.72,3.6c-0.5,1.19-0.99,2.38-1.4,3.64c2.25-1.26,4.3-2.73,6.32-4.26
			c0.53-0.4,0.13-0.76-0.05-1.06c-2.39-4.13-1.88-8.27-0.07-12.41c0.27-0.62,0.68-1.16,1.19-1.62c0.98-0.9,2.07-1.6,3.45-1.1
			c1.39,0.5,2.13,1.63,2.34,3.06c0.26,1.7-0.03,3.37-0.48,5.01c-0.26,0.94-0.62,1.84-0.93,2.76c-0.04,0.13-0.08,0.26-0.11,0.39
			c0.22-0.01,0.32-0.16,0.41-0.33c2.48-2.45,4.91-4.86,6.2-8.27c1.17-3.06,3.12-5.71,5.69-7.84c1.1-0.91,2.32-1.52,3.79-1.48
			c1.64,0.04,2.88,1.02,3.21,2.62c0.45,2.21-0.43,3.95-2.02,5.42c-2.39,2.21-5.23,3.76-8.03,5.38c-0.51,0.29-1.02,0.59-1.45,1.11
			c0.83-0.12,1.65-0.27,2.48-0.36c2-0.24,3.89,0.03,5.56,1.26c1.95,1.43,2.16,3.46,0.47,5.18c-2,2.04-4.46,3.13-7.31,3.3
			c-3.13,0.18-6.22-0.21-9.29-0.77c-0.4-0.07-0.77-0.22-1.15,0.14c-1.64,1.56-3.52,2.8-5.41,4.22c0.71,0.29,1.37,0.11,2,0.16
			c1.54,0.12,3.07,0.24,4.39,1.18c1.94,1.37,2.14,3.19,0.46,4.83c-2.98,2.9-6.46,3.22-10.22,1.86c-1.56-0.56-3.01-1.35-4.38-2.27
			c-0.49-0.34-0.88-0.43-1.41-0.11c-2.95,1.8-6.04,3.34-9.15,4.82c-0.22,0.1-0.58,0.11-0.53,0.47c0.05,0.35,0.4,0.26,0.63,0.33
			c1,0.3,2.02,0.57,3.02,0.9c1.05,0.34,1.96,0.92,2.72,1.73c1.71,1.84,1.58,3.98-0.41,5.55c-2.11,1.68-4.47,1.75-6.93,0.95
			c-1.94-0.63-3.79-1.51-5.32-2.85c-1.63-1.43-3.74-1.86-5.53-2.95C150.53,279.51,150.3,279.53,150.13,279.56z"/>
		<path class="st8" d="M81.04,234.26c-0.43-1.88-1.17-3.68-1.55-5.58c-0.05-0.25-0.33-0.34-0.53-0.2c-1.09,0.79-1.74,1.99-2.29,3.19
			c-0.58,1.27-1.05,2.6-1.39,3.95c-0.68,2.66-0.91,5.42-0.67,8.15c0.13,1.58,0.43,3.13,0.88,4.65c0.09,0.31,0.5,0.31,0.62,0.11
			c0.04-0.01,0.09-0.03,0.13-0.07C80.3,245.07,82.22,239.42,81.04,234.26z"/>
		<path class="st8" d="M45.44,194.22c-1.83-0.64-3.74-0.96-5.55-1.65c-0.24-0.09-0.47,0.1-0.45,0.35c0.09,1.34,0.76,2.53,1.49,3.63
			c0.77,1.17,1.64,2.27,2.61,3.28c1.89,1.99,4.11,3.65,6.55,4.9c1.41,0.72,2.88,1.3,4.41,1.73c0.31,0.09,0.53-0.26,0.42-0.47
			c0.01-0.04,0.02-0.09,0.01-0.15C54.21,200.59,50.44,195.96,45.44,194.22z"/>
		<path class="st8" d="M20.7,98.45c-0.44,1.88-0.57,3.82-1.07,5.69c-0.07,0.25,0.15,0.45,0.39,0.41c1.33-0.23,2.44-1.02,3.46-1.85
			c1.08-0.88,2.08-1.87,2.99-2.93c1.78-2.09,3.2-4.46,4.2-7.02c0.57-1.47,1-3,1.27-4.56c0.06-0.32-0.31-0.5-0.51-0.37
			c-0.05-0.01-0.09-0.01-0.15,0C26.13,89.08,21.91,93.3,20.7,98.45z"/>
		<path class="st8" d="M285.34,71.91c0.34-1.9,0.36-3.85,0.76-5.74c0.05-0.25-0.17-0.45-0.41-0.39c-1.31,0.3-2.38,1.15-3.35,2.04
			c-1.03,0.94-1.98,1.98-2.83,3.09c-1.67,2.18-2.96,4.63-3.81,7.23c-0.49,1.5-0.83,3.05-1.02,4.62c-0.04,0.32,0.34,0.49,0.53,0.34
			c0.05,0.01,0.1,0.01,0.15-0.01C280.42,81.56,284.4,77.12,285.34,71.91z"/>
		<path class="st8" d="M238.12,52.7c-1.52-1.19-3.23-2.12-4.72-3.36c-0.2-0.17-0.47-0.06-0.54,0.18c-0.35,1.3-0.09,2.64,0.24,3.92
			c0.35,1.35,0.82,2.67,1.41,3.94c1.15,2.49,2.71,4.78,4.62,6.75c1.1,1.14,2.31,2.16,3.61,3.06c0.27,0.18,0.59-0.07,0.55-0.31
			c0.03-0.04,0.05-0.08,0.06-0.14C244.36,61.56,242.3,55.96,238.12,52.7z"/>
	</g>
</g>
</svg>
