<?xml version="1.0" encoding="utf-8"?>
<!-- Generator: Adobe Illustrator 26.3.1, SVG Export Plug-In . SVG Version: 6.00 Build 0)  -->
<svg version="1.1" id="Layer_1" xmlns="http://www.w3.org/2000/svg" xmlns:xlink="http://www.w3.org/1999/xlink" x="0px" y="0px"
	 width="300px" height="300px" viewBox="0 0 300 300" enable-background="new 0 0 300 300" xml:space="preserve">
<g>
	<path fill="#010101" d="M91.13,193.42c-1.82-0.66-3.39,1.21-5.5,4.65c-1.49,2.44-3.21,5.71-4.59,8.75
		c-1.49,3.3-2.58,6.38-3.45,8.86c-1.11,3.15-2.37,6.73-3.38,6.73c-0.11,0-0.25,0-0.47-0.29c-2.63-3.39-0.13-20.38,1.21-25.65
		c0.23-0.91-0.32-1.84-1.23-2.07c-0.91-0.23-1.84,0.32-2.07,1.23c-0.03,0.1-1.17,5.22-1.89,11.19c-3.46,1.89-8.75,5.76-13.29,10.03
		c-0.68-0.69-1.44-1.26-2.24-1.71c-1.14-0.63-2.67-1.1-4.3-1.6c-1.83-0.56-5.23-1.61-5.53-2.61c-0.78-2.61,5.73-13.71,11.01-16.17
		c1.4-0.65,1.71-0.19,1.92,0.12c0.52,0.79,1.58,1,2.36,0.48c0.79-0.52,1-1.58,0.48-2.36c-0.64-0.97-2.53-3.05-6.2-1.34
		c-2.83,1.32-6.25,4.76-9.15,9.2c-1.44,2.2-4.68,7.69-3.69,11.04c0.82,2.75,4.37,3.84,7.8,4.9c1.45,0.45,2.82,0.86,3.64,1.32
		c0.53,0.3,1.03,0.68,1.48,1.13c-1.41,1.48-2.69,2.98-3.72,4.43c-4.14,5.83-6.09,11.31-5.24,14.65c0.36,1.41,1.19,2.46,2.4,3.05
		c0.55,0.27,1.16,0.41,1.83,0.41c2.68,0,6.11-2.34,9.02-8.12c2.6-5.15,2.18-10.32,0.16-14.06c3.55-3.38,7.66-6.55,10.84-8.58
		c-0.39,5.42-0.18,10.75,1.7,13.17c0.81,1.05,1.91,1.6,3.16,1.6c3.43,0,4.76-3.78,6.59-9.01c0.89-2.54,1.91-5.43,3.34-8.59
		c1.52-3.36,3.24-6.53,4.6-8.72c-0.11,0.88-0.23,1.82-0.35,2.72c-1.1,8.4-2.61,19.9,0.14,25.45c0.3,0.6,0.9,0.95,1.53,0.95
		c0.25,0,0.51-0.06,0.76-0.18c0.84-0.42,1.19-1.44,0.77-2.28c-2.29-4.62-0.74-16.43,0.19-23.49
		C92.69,195.71,92.9,194.06,91.13,193.42z M55.3,232.15c-1.99,3.96-4.94,6.85-6.31,6.18c-0.2-0.1-0.45-0.28-0.59-0.82
		c-0.49-1.9,0.78-6.3,4.71-11.84c0.8-1.12,1.76-2.29,2.84-3.45C57.06,224.99,57.07,228.62,55.3,232.15z"/>
	<path fill="#010101" d="M199.59,195.16c0.95,0.39,2.53-0.91,3.1-3.05c0.66-2.49,0.27-5.03-0.8-5.16
		C199.1,186.61,197.02,194.11,199.59,195.16z"/>
	<path fill="#010101" d="M269.48,206.51c-0.84-0.42-1.87-0.09-2.29,0.75c-1.91,3.77-7.43,12.32-12.36,14.69
		c-2.5,1.2-4.37,0.46-5.7-2.27c-1.29-2.63-1.41-6.19-0.66-9.77c7.31-1.51,13.22-8.1,13.76-12.17c0.24-1.85-0.43-3.46-1.8-4.31
		c-1.63-1.01-3.87-0.76-5.99,0.67c-4.32,2.9-7.53,8.18-8.98,13.68c-0.08,0.14-0.15,0.27-0.24,0.42c-2.05,3.71-6.33,11.42-9.68,11.42
		c-1.68,0-2.4-1.94-2.62-2.77c-0.6-2.19-0.66-4.59-0.66-6.87c0-1.86,0.07-3.77,0.14-5.62c0.03-0.71,0.06-1.43,0.08-2.14
		c0.08-2.42-0.75-4.22-2.23-4.82c-0.58-0.23-2.12-0.58-3.75,1.25c-3.64,4.08-7.07,10.56-9.52,17.68
		c-0.03-6.72,0.25-15.22,1.21-21.32c0.15-0.93-0.49-1.8-1.42-1.95c-0.93-0.15-1.8,0.49-1.95,1.42c-0.59,3.75-0.94,8.36-1.12,12.95
		c-0.25,0.44-0.5,0.9-0.77,1.38c-3.16,5.66-9.05,16.2-12.98,14.71c-2.25-0.85-4.13-9.58,0.29-23.24c0.29-0.9-0.2-1.86-1.1-2.15
		c-0.89-0.29-1.86,0.2-2.15,1.1c-0.88,2.71-1.55,5.35-2.02,7.86c-0.04,0.07-0.09,0.13-0.13,0.21l-0.14,0.3
		c-7.51,15.78-11.18,18.21-12.72,18.21c-0.02,0-0.04,0-0.06,0c-0.75-0.03-1.28-0.3-1.71-0.86c-1.62-2.1-1.63-7.7-0.05-14.99
		c0.39-1.79,0.71-4.3-1.04-5.43c-1.34-0.86-3.04-0.26-4.19,0.59c-5.34,3.98-10.86,14.94-14.07,21.49
		c-0.35-4.1-0.62-10.35-0.16-17.34c0.01-0.09,0.01-0.18,0.02-0.26c10.32-6.62,16.05-14.84,19.06-20.64
		c3.78-7.28,5.33-14.88,4.17-20.33c-0.9-4.22-3.44-6.91-6.95-7.38c-2.08-0.28-4.09,0.36-5.97,1.9
		c-7.47,6.11-12.19,26.95-13.58,44.52c-3.46,1.97-8.49,5.68-12.83,9.77c-0.68-0.69-1.44-1.26-2.24-1.71c-1.14-0.63-2.67-1.1-4.3-1.6
		c-1.83-0.56-5.23-1.61-5.53-2.61c-0.78-2.61,5.73-13.71,11.01-16.17c1.4-0.65,1.71-0.19,1.92,0.12c0.52,0.79,1.58,1,2.36,0.48
		c0.79-0.52,1-1.58,0.48-2.36c-0.64-0.97-2.53-3.05-6.2-1.34c-2.83,1.32-6.25,4.76-9.15,9.2c-0.86,1.31-2.34,3.78-3.2,6.26
		c-0.01,0.02-0.03,0.04-0.04,0.06c-0.18,0.31-0.36,0.65-0.56,1.01c-2.06,3.71-6.33,11.42-9.68,11.42c-1.68,0-2.4-1.94-2.62-2.77
		c-0.6-2.19-0.66-4.59-0.66-6.87c0-1.86,0.07-3.77,0.14-5.62c0.03-0.71,0.06-1.43,0.08-2.14c0.08-2.42-0.75-4.22-2.23-4.82
		c-0.58-0.23-2.12-0.58-3.75,1.25c-3.64,4.08-7.07,10.56-9.52,17.68c-0.03-6.72,0.26-15.22,1.21-21.32c0.15-0.93-0.49-1.8-1.42-1.95
		c-0.93-0.15-1.8,0.49-1.95,1.42c-1.78,11.3-1.39,30.42-0.61,33.28c0.2,0.75,0.88,1.26,1.64,1.26c0.02,0,0.05,0,0.07,0
		c0.8-0.03,1.46-0.62,1.6-1.4c1.81-10.13,6.52-21.07,11.45-26.64c0.06,0.27,0.1,0.64,0.08,1.12c-0.02,0.71-0.05,1.41-0.08,2.12
		c-0.07,1.88-0.15,3.83-0.14,5.76c0.01,2.51,0.07,5.17,0.79,7.76c0.91,3.31,3.12,5.28,5.91,5.28c4.23,0,7.86-4.95,10.63-9.61
		c1.45,1.69,4.24,2.56,6.96,3.39c1.45,0.45,2.82,0.86,3.64,1.32c0.53,0.3,1.03,0.68,1.48,1.13c-1.41,1.48-2.69,2.98-3.72,4.43
		c-4.14,5.83-6.09,11.31-5.24,14.65c0.36,1.41,1.19,2.46,2.4,3.05c0.55,0.27,1.16,0.41,1.83,0.41c2.68,0,6.11-2.34,9.02-8.12
		c2.6-5.15,2.18-10.32,0.16-14.06c3.43-3.27,7.39-6.34,10.52-8.38c-0.27,5.83-0.07,10.86,0.17,14.19c0.56,7.86,1.05,8.03,2.02,8.37
		c0.18,0.06,0.37,0.09,0.55,0.09c0.56,0,1.11-0.27,1.43-0.75c0.4-0.59,1-1.8,2.1-4.07c2.78-5.69,8.56-17.53,13.51-21.21
		c0.03-0.02,0.05-0.04,0.08-0.06c-0.02,0.32-0.08,0.79-0.22,1.43c-1.31,6.01-2.26,13.98,0.68,17.79c1.04,1.36,2.52,2.11,4.27,2.19
		c2.62,0.11,6.14-1.52,12.37-12.96c0.15,5.47,1.71,9.37,4.6,10.46c0.67,0.25,1.34,0.37,2,0.37c4.79,0,9.2-6.29,12.82-12.46
		c-0.02,6.4,0.27,11.74,0.65,13.15c0.2,0.75,0.88,1.26,1.65,1.26c0.02,0,0.05,0,0.07,0c0.8-0.03,1.46-0.62,1.6-1.4
		c1.81-10.13,6.52-21.07,11.45-26.64c0.06,0.27,0.1,0.64,0.08,1.12c-0.02,0.71-0.05,1.41-0.08,2.12c-0.07,1.88-0.15,3.83-0.14,5.76
		c0.01,2.51,0.07,5.17,0.79,7.76c0.91,3.31,3.12,5.28,5.91,5.28c3.51,0,6.6-3.4,9.13-7.22c0.17,1.94,0.62,3.77,1.4,5.36
		c1.52,3.11,3.86,4.75,6.58,4.75c1.16,0,2.39-0.3,3.66-0.91c6.18-2.96,12.28-12.95,13.93-16.22
		C270.66,207.96,270.32,206.93,269.48,206.51z M143.45,232.15c-1.99,3.96-4.94,6.85-6.31,6.18c-0.2-0.1-0.45-0.28-0.59-0.82
		c-0.49-1.9,0.78-6.3,4.71-11.84c0.8-1.12,1.76-2.29,2.84-3.45C145.21,224.99,145.23,228.62,143.45,232.15z M173.18,165.2
		c0.97-0.8,1.92-1.19,2.88-1.19c0.16,0,0.32,0.01,0.48,0.03c2.61,0.35,3.65,2.76,4.07,4.71c1.79,8.34-4.11,24.89-19.54,35.9
		C163.03,183.63,168.48,169.04,173.18,165.2z M256.34,196.93c0.81-0.54,1.43-0.7,1.84-0.7c0.21,0,0.37,0.04,0.46,0.1
		c0.3,0.18,0.24,0.79,0.22,0.97c-0.27,2.05-3.97,6.89-9.23,8.76C251.08,202.3,253.44,198.88,256.34,196.93z"/>
	<path fill="#010101" d="M36.47,135.27c-1.2,0.05-2.26-0.42-3.19-1.44c-1.25-1.34-2.04-3.5-2.37-6.49l-7.35,0.53
		c0.16,2.72,0.73,5.14,1.7,7.25c0.97,2.11,2.28,3.78,3.94,5c1.99,1.5,4.49,2.25,7.52,2.25c1.63,0,3.06-0.19,4.29-0.57
		c2.29-0.71,4.06-1.92,5.31-3.64c1.91-2.53,2.83-5.58,2.78-9.15c-0.03-1.44-0.41-3.08-1.14-4.9c-0.3-0.74-0.69-1.54-1.18-2.41
		c-1.04-1.85-2.51-3.73-4.41-5.64c-0.57-0.6-1.76-1.65-3.55-3.15c-1.53-1.25-2.67-2.34-3.43-3.27c-2.02-2.42-3.02-4.81-3.02-7.15
		c0-1.5,0.3-2.75,0.9-3.76c0.74-1.25,1.81-1.88,3.23-1.88c1.33,0,2.36,0.42,3.06,1.27c0.98,1.17,1.58,2.81,1.8,4.9l7.39-1.35
		c-0.19-2.23-0.76-4.21-1.7-5.92c-0.94-1.72-2.17-3.05-3.7-4c-1.96-1.23-4.32-1.84-7.07-1.84c-2.86,0-5.26,0.72-7.19,2.17
		c-3.13,2.4-4.7,5.93-4.7,10.59c0,2.59,0.57,4.99,1.72,7.2c1.06,1.96,2.87,4.18,5.43,6.67c3.05,2.89,5.34,5.06,6.86,6.5
		c1.93,2.1,2.9,4.21,2.9,6.34c0,1.47-0.26,2.6-0.78,3.39C39.5,134.38,38.16,135.21,36.47,135.27z"/>
	<path fill="#010101" d="M72.2,142.38c3.38,0,6.26-1.19,8.66-3.57c2.4-2.38,3.59-5.28,3.59-8.68v-27.94c0-3.38-1.19-6.26-3.57-8.66
		c-2.38-2.4-5.28-3.6-8.68-3.6c-3.35,0-6.22,1.19-8.62,3.57c-2.4,2.38-3.6,5.28-3.6,8.68v27.94c0,3.38,1.18,6.26,3.55,8.66
		C65.91,141.18,68.79,142.38,72.2,142.38z M67.54,102.01c0-1.23,0.44-2.27,1.31-3.12c0.87-0.86,1.92-1.29,3.15-1.29
		c1.23,0,2.27,0.43,3.13,1.29c0.86,0.86,1.29,1.9,1.29,3.12v28.02c0,1.23-0.43,2.27-1.29,3.13c-0.86,0.86-1.9,1.29-3.13,1.29
		c-1.23,0-2.27-0.43-3.15-1.29c-0.87-0.86-1.31-1.9-1.31-3.13V102.01z"/>
	<path fill="#010101" d="M108.01,142.34c3.38,0,6.26-1.17,8.66-3.51c2.4-2.34,3.6-5.23,3.6-8.66V90.58h-8.05v39.5
		c0,1.23-0.43,2.27-1.29,3.13c-0.86,0.86-1.9,1.29-3.13,1.29c-1.23,0-2.27-0.43-3.15-1.29c-0.87-0.86-1.31-1.9-1.31-3.13v-39.5H95.8
		v39.59c0,3.38,1.18,6.25,3.55,8.62C101.72,141.15,104.61,142.34,108.01,142.34z"/>
	<polygon fill="#010101" points="152.77,134.08 139.45,134.08 139.45,90.58 131.73,90.58 131.73,141.76 152.77,141.76 	"/>
	<polygon fill="#010101" points="40.05,155.39 40.05,149.82 25.03,149.82 25.03,184.29 30.57,184.29 30.57,169.84 37.5,169.84 
		37.5,164.26 30.57,164.26 30.57,155.39 	"/>
	<path fill="#010101" d="M46.22,149.85v26.52c0,2.29,0.82,4.27,2.42,5.88c1.61,1.61,3.59,2.42,5.9,2.42c2.29,0,4.28-0.81,5.9-2.4
		c1.63-1.59,2.45-3.58,2.45-5.91v-26.52h-5.77v26.47c0,0.76-0.26,1.4-0.79,1.93c-0.53,0.53-1.17,0.79-1.93,0.79
		c-0.76,0-1.4-0.26-1.95-0.79c-0.54-0.53-0.81-1.17-0.81-1.93v-26.47H46.22z"/>
	<polygon fill="#010101" points="70.11,149.85 70.11,184.29 84.51,184.29 84.51,178.77 75.66,178.77 75.66,149.85 	"/>
	<polygon fill="#010101" points="105.08,178.77 96.23,178.77 96.23,149.85 90.68,149.85 90.68,184.29 105.08,184.29 	"/>
	<path fill="#010101" d="M117.84,176.34c0,2.29,0.82,4.28,2.42,5.9c1.61,1.63,3.6,2.45,5.9,2.45c2.29,0,4.28-0.82,5.9-2.44
		c1.63-1.62,2.45-3.61,2.45-5.92v-18.57c0-2.29-0.82-4.28-2.44-5.9c-1.62-1.63-3.61-2.45-5.92-2.45c-2.27,0-4.25,0.82-5.88,2.44
		c-1.63,1.62-2.45,3.61-2.45,5.92V176.34z M123.28,157.66c0-0.76,0.26-1.39,0.81-1.93c0.54-0.54,1.18-0.79,1.95-0.79
		c0.76,0,1.4,0.26,1.93,0.79c0.53,0.53,0.79,1.17,0.79,1.93v18.63c0,0.76-0.26,1.4-0.79,1.93c-0.53,0.53-1.17,0.79-1.93,0.79
		c-0.76,0-1.4-0.26-1.95-0.8c-0.54-0.53-0.81-1.16-0.81-1.93V157.66z"/>
	<polygon fill="#010101" points="156.7,155.39 156.7,149.82 141.67,149.82 141.67,184.29 147.22,184.29 147.22,169.84 
		154.15,169.84 154.15,164.26 147.22,164.26 147.22,155.39 	"/>
	<path fill="#010101" d="M281.58,159.99l-0.39-0.23c-0.5-0.29-1.07-0.63-1.64-0.91c-4.14-2.04-6.93-4.87-8.55-8.67
		c-0.37-0.88-0.93-1.66-1.48-2.42l-0.06-0.08c-1.11-1.56-2.74-2.41-4.97-2.6c-0.75-0.06-1.53-0.05-2.22-0.05
		c-0.98,0.01-1.99,0.01-2.96-0.15c-1.06-0.18-2.1-0.17-3.18,0.05c-0.56,0.11-1.09,0.22-1.55,0.03c-0.77-0.32-1.59-0.41-2.59-0.26
		l-0.08,0.01c-0.01,0-0.02,0-0.04,0.01c-0.49-2.08-1.48-3.88-2.52-5.43c0.22,0.19,0.44,0.39,0.64,0.58l0.47,0.44
		c1.23,1.17,2.5,2.37,3.63,3.67c0.52,0.6,1.03,0.85,1.53,0.75c0.5-0.11,0.88-0.55,1.13-1.34c0.06-0.18,0.13-0.4,0.13-0.65
		c0.02-2.65-0.21-5.72-2.09-8.38c-1.3-1.84-2.78-3.46-4.4-4.8c0.23-0.03,0.47-0.06,0.7-0.08c1.2-0.15,2.33-0.28,3.49-0.31
		c2.6-0.06,5.17,0.71,7.42,1.39c0.06,0.02,0.12,0.04,0.18,0.06c0.32,0.12,0.98,0.36,1.44-0.28c0.45-0.63,0.09-1.23-0.16-1.64
		c-0.99-1.65-2.41-3.04-4.48-4.37c-0.7-0.45-1.42-0.85-2.16-1.23c1.24,0.09,2.49,0.24,3.71,0.39c0.83,0.1,1.7,0.2,2.54,0.29
		l0.14,0.02c0.41,0.05,1.02,0.12,1.41-0.49c0.32-0.5,0.3-1.08-0.07-1.72c-2.47-4.33-5.24-6.59-9-7.33c-0.1-0.02-0.22-0.03-0.34-0.04
		c-0.05,0-0.1-0.01-0.14-0.01c0.09-0.02,0.19-0.02,0.24-0.03c0.09-0.01,0.18-0.02,0.26-0.03c1.27-0.21,2.58-0.39,3.83-0.57
		l0.13-0.02c0.72-0.1,1.44-0.2,2.16-0.31c0.06-0.01,0.13-0.02,0.22-0.02c0.44-0.04,1.19-0.12,1.37-0.98
		c0.17-0.81-0.42-1.22-0.78-1.46c-0.07-0.04-0.13-0.09-0.19-0.14c-1.81-1.38-3.93-1.63-6.12-1.79c-0.64-0.05-1.27-0.04-1.93-0.03
		c0.12-0.04,0.25-0.07,0.39-0.1c2.2-0.51,4.47-0.52,6.94-0.05c0.84,0.16,1.69,0.31,2.53,0.45l0.8,0.14c0.67,0.11,1.14-0.07,1.4-0.54
		c0.36-0.64-0.04-1.22-0.21-1.46c-0.26-0.37-0.5-0.65-0.75-0.88c-2.93-2.72-6-4.35-9.4-4.99c-1.11-0.21-2.19-0.24-3.41-0.2
		c0.95-0.98,1.9-1.64,2.97-2.05c1.18-0.46,2.38-0.94,3.53-1.41l0.1-0.04c0.22-0.09,0.88-0.36,0.89-1.09
		c0.01-0.56-0.34-0.99-0.95-1.19l-0.1-0.03c-1.14-0.38-2.33-0.77-3.6-0.9c-2.41-0.24-4.78,0.01-7.27,0.76
		c1.13-1.46,2.31-3.15,3.17-5.06c0.2-0.45,0.39-0.9,0.6-1.38c0.68-1.6,1.39-3.26,2.47-4.68c0.15-0.2,0.62-0.82,0.18-1.49
		c-0.37-0.57-1.01-0.49-1.31-0.45c-3.29,0.41-5.78,1.36-7.82,2.97c-1.27,1-2.38,2.01-3.37,3.05c0.72-1.42,1.46-2.64,2.42-3.78
		c0.41-0.49,0.84-1,1.17-1.57c0.4-0.69,0.29-1.15,0.12-1.42c-0.23-0.38-0.71-0.57-1.32-0.54c-0.63,0.03-1.27,0.1-1.93,0.17
		c-0.47,0.05-0.95,0.1-1.42,0.13c-1.45,0.1-2.76,0.64-4,1.63c0.45-0.82,0.78-1.73,0.84-2.77c0.09-1.84,0.34-3.33,0.76-4.69
		c0.16-0.5,0.14-0.91-0.07-1.25c-0.22-0.37-0.63-0.59-1.28-0.72c-1.33-0.24-2.53,0.16-3.77,1.26c-0.53,0.47-1,0.98-1.51,1.6
		c0.4-1.81,0.82-3.67,1.24-5.53c0.07-0.32,0.16-0.64,0.26-1.01c0.08-0.29,0.16-0.59,0.23-0.88l0.02-0.09
		c0.1-0.4,0.26-1.08-0.41-1.52c-0.67-0.44-1.27,0.02-1.56,0.23c-0.46,0.35-1.03,0.78-1.55,1.25c-1.67,1.51-3.09,3.27-4.46,4.97
		l-0.52,0.65c-1.31,1.62-2.27,3.49-2.85,5.57c-0.25,0.9-0.39,1.82-0.53,2.72c-0.17,1.11-0.35,2.26-0.74,3.33
		c-0.08,0.22-0.16,0.44-0.24,0.66c-0.45,1.22-0.92,2.47-0.94,3.88c-0.23-0.1-0.52-0.21-0.83-0.08c-0.14,0.06-0.34,0.19-0.47,0.49
		c-0.32,0.76,0.38,1.14,0.64,1.28l0.09,0.05c0.23,0.13,0.46,0.27,0.71,0.41l-1.07,0.08c-0.05,0-0.11,0.01-0.16,0.02l-0.1-0.01
		c-0.49-0.86-0.48-1.56,0.05-2.2c1.08-1.3,1.69-2.86,1.86-4.8c0.45-5.08,1.22-9.23,2.42-13.06c0.42-1.32,0.8-2.68,1.18-3.99
		l0.02-0.09c0.18-0.63,0.36-1.27,0.57-1.97c0.11-0.37,0.3-1-0.27-1.47c-0.63-0.53-1.23-0.13-1.55,0.07l-0.1,0.06
		c-0.69,0.43-1.19,1-1.64,1.56c-0.49,0.6-0.98,1.18-1.51,1.8l-0.25,0.3c-0.3-0.48-0.6-0.85-0.86-1.15
		c-0.36-0.42-0.76-0.82-1.14-1.21c-1.16-1.18-2.36-2.39-2.66-4.14c-0.08-0.46-0.47-0.77-1.02-0.8c-0.28-0.02-0.77,0.07-1.02,0.76
		c-0.17,0.48-0.25,0.97-0.33,1.45l-0.07,0.44c-0.12,0.69-0.23,1.4-0.33,2.08l-0.01,0.09c-0.26,1.83-0.54,3.72-1.22,5.47
		c-0.29,0.74-0.63,1.48-0.99,2.27l-0.06,0.14l-0.06-0.18c-0.26-0.82-0.54-1.66-0.76-2.48c-0.28-1.07-0.36-2.23-0.22-3.53
		c0.06-0.62-0.3-1.12-0.87-1.22c-0.31-0.05-0.87-0.01-1.2,0.82l-0.15,0.39c-0.76,1.91-1.54,3.88-1.62,6.06c0,0.05,0,0.1,0,0.15
		c-1.57-2.29-2.38-4.56-2.48-6.93c-0.01-0.33-0.04-0.76-0.1-1.2c-0.08-0.56-0.34-0.94-0.72-1.08c-0.21-0.08-0.65-0.14-1.18,0.33
		c-1.11,0.99-1.86,1.98-2.33,3.1c-0.77,1.82-0.82,3.65-0.75,5.53c-0.86-1.28-1.86-2.46-2.83-3.61c-1.5-1.77-3.05-3.6-4.05-5.76
		c-0.25-0.54-0.66-0.88-1.16-0.94c-0.54-0.07-1.1,0.19-1.53,0.71c-1,1.2-1.62,2.6-1.82,4.15c-0.36,2.68-0.01,5.4,1.09,8.57
		c0,0.01,0.01,0.02,0.01,0.02l-0.04-0.01c-0.55-0.11-1.06-0.22-1.58-0.36c-3.34-0.85-5.75-2.14-7.57-4.05
		c-0.22-0.23-0.48-0.41-0.76-0.61c-0.48-0.34-0.88-0.45-1.26-0.37c-0.39,0.09-0.71,0.36-1.02,0.9c-0.29,0.49-0.42,1-0.42,1.58
		c0,1.21,0.43,2.37,1.26,3.47c0.65,0.85,1.12,1.8,1.62,2.81c0.5,1.01,1.02,2.05,1.74,3.01c-0.05,0-0.11-0.01-0.16-0.01
		c-0.81-0.06-1.58-0.11-2.32-0.25c-1.77-0.34-3.56-0.74-5.29-1.13l-1.81-0.4c-0.71-0.16-1.3-0.2-1.9-0.14l-0.09,0.01
		c-0.31,0.03-0.88,0.08-1.1,0.7c-0.24,0.68,0.25,1.07,0.54,1.3l0.08,0.06c0.13,0.1,0.26,0.21,0.41,0.29
		c1.62,0.92,3.03,2.18,4.39,3.4c0.48,0.43,0.98,0.87,1.48,1.3c-0.83-0.19-1.61-0.41-2.29-0.88c-0.46-0.32-0.99-0.39-1.51-0.42
		c-0.93-0.05-1.86-0.22-2.77-0.39c-0.69-0.13-1.41-0.26-2.12-0.33c-1.72-0.19-3.28-0.52-4.75-1.01c-0.16-0.05-0.3-0.04-0.45-0.02
		c-0.74-0.08-1.51-0.18-2.18-0.6c-0.51-0.32-1.05-0.55-1.58-0.79c-0.51-0.22-1.03-0.46-1.5-0.75c-0.46-0.29-0.94-0.32-1.31-0.08
		c-0.39,0.25-0.57,0.74-0.49,1.34c0.07,0.51,0.21,1.01,0.36,1.52l0.1,0.34c0.02,0.06,0.04,0.13,0.06,0.2
		c0.04,0.12,0.11,0.33,0.09,0.39c-0.51,0.82-0.27,1.55-0.06,2.19l0.07,0.21c0.34,1.06,0.8,2.15,1.42,3.33
		c0.45,0.86,0.86,1.78,0.58,2.81c-0.16,0.58,0.04,1.17,0.17,1.56l0.07,0.2c0.31,0.92,0.63,1.87,1.11,2.75
		c0.43,0.79,0.6,1.54,0.52,2.29c-0.14,1.34,0.09,2.63,0.71,3.94c0.36,0.76,0.5,1.64,0.42,2.63c-0.14,1.75,0.13,3.42,0.81,4.98
		c0.7,1.6,1.02,3.11,0.98,4.62c-0.03,1.06,0.35,2.04,1.1,2.82c1.03,1.08,1.73,2.41,2.13,4.06c0.25,1,0.74,1.9,1.52,2.73
		c0.71,0.77,1.41,1.56,2,2.24c0.36,0.41,0.54,0.78,0.59,1.17c0.15,1.36,0.85,2.36,2.13,3.05c0.96,0.51,1.53,1.15,1.79,2
		c0.17,0.56,0.56,1.05,1.15,1.46l0.43,0.31c0.6,0.42,1.22,0.86,1.86,1.25c0.48,0.29,0.67,0.51,0.72,0.88
		c0.1,0.67,0.52,1.14,1.15,1.31c1.46,0.38,2.79,0.65,4.05,0.82c1.63,0.22,3.23,0.01,4.78-0.19c0.44-0.06,0.88-0.12,1.32-0.16
		l0.17-0.02c1.11-0.12,2.26-0.25,3.35,0.07c0.55,0.16,0.81,0.42,0.92,0.91c0.82,3.79,1.75,8.09,1.4,12.39
		c-0.04,0.52-0.08,1.03-0.12,1.55l-0.03,0.43c-0.16,2.12-0.32,4.32-0.62,6.46c-0.43,3.05-0.96,6.14-1.47,9.13l0.31,0.05l-0.33,0.05
		c-0.23,1.33-0.45,2.66-0.67,3.99c-0.43,2.62-0.8,5.28-1.16,7.88c-0.5,3.58-1.01,7.29-1.7,10.92c-0.05,0.26-0.11,0.59,0.08,0.87
		c0.12,0.18,0.32,0.3,0.6,0.36l0.09,0.02c0.3,0.05,0.54,0.01,0.72-0.13c0.26-0.19,0.29-0.48,0.32-0.68c0-0.04,0.01-0.07,0.02-0.11
		c0.61-2.86,1.1-5.76,1.46-8.62c0.74-5.91,1.65-11.96,2.73-17.97c0.91-5.12,1.44-9.92,1.62-14.68c0.01-0.18,0.03-0.25,0.12-0.34
		c0.67-0.7,1.41-1.29,2.27-1.78l-0.02,0.09c-0.06,0.36-0.12,0.73-0.14,1.1c-0.25,3.57-0.69,7.27-1.34,11.32
		c-0.08,0.48-0.12,0.9,0.12,1.23c0.24,0.33,0.67,0.43,1.17,0.5c2.11,0.33,3.93-0.35,5.57-2.07c1.83-1.93,4.07-3.47,6.83-4.7
		l1.07-0.48c3.02-1.34,6.13-2.72,8.92-4.7c0.65-0.46,1.29-0.89,2.04-1.06l0.16-0.04c0.15-0.04,0.43-0.11,0.46-0.13
		c0,0,0.04,0.09,0,0.41c-0.06,0.48,0.19,1.03,0.81,1.18c0.33,0.07,0.8,0.03,1.18-0.59l0.09-0.14c0.12-0.19,0.26-0.4,0.34-0.65
		c0.33-1,1.12-1.48,2.13-1.99c2.49-1.28,4.78-2.14,7.01-2.65c0.35-0.08,0.37-0.06,0.52,0.16c0.8,1.21,1.66,2.4,2.5,3.55
		c0.26,0.36,0.69,0.96,1.51,0.75c0.68-0.18,0.82-0.76,0.91-1.16l0.03-0.15c0.31-1.19,0.42-2.46,0.33-4.02
		c0-0.05-0.01-0.11-0.02-0.16c-0.01-0.06-0.01-0.13-0.02-0.13c0,0,0.02-0.02,0.08-0.04c1.02-0.39,2.11-0.63,3.16-0.86l0.09-0.02
		c0.46-0.1,0.94-0.21,1.4-0.34c0.38,0.36,0.76,0.51,1.11,0.44c0.33-0.06,0.6-0.3,0.8-0.71c0.01,0,0.02,0,0.03,0l0.12-0.01
		c0.22-0.03,0.44-0.06,0.71-0.09c0.54-0.07,1.09-0.14,1.63-0.17c0.14-0.01,0.29-0.02,0.43-0.03c0.93-0.07,1.48-0.08,1.86,0.66
		c0.25,0.48,0.82,0.66,1.36,0.43c0.48-0.21,0.74-0.71,0.61-1.18c-0.04-0.14-0.04-0.21-0.05-0.22c0.07-0.04,0.3-0.05,0.47-0.07
		c0.37-0.03,0.77-0.05,1.12,0.09c0.91,0.35,1.88,0.41,2.88,0.17c1.04-0.25,2.1-0.14,2.91-0.02c1.19,0.18,2.18,0.23,3.11,0.15
		c3.11-0.28,5.22,0.9,6.47,3.59c0.08,0.17,0.17,0.34,0.25,0.5c0.09,0.17,0.18,0.35,0.26,0.52c1.64,3.63,4.34,6.42,8.24,8.53
		c0.17,0.09,0.35,0.18,0.54,0.27c0.02,0.01,0.03,0.01,0.05,0.02c-0.13-0.02-0.27-0.04-0.4-0.07l-2-0.39
		c-1.51-0.3-3.08-0.61-4.62-0.93c-2.38-0.51-4.78-0.53-7.13-0.06c-3.18,0.63-6.16,0.44-9.1-0.58c-2.1-0.73-4.37-1.39-6.73-1.39
		c-2.82,0.02-5.79,0.56-9.07,1.66c-1.97,0.66-3.82,1.79-5.5,3.37l-0.24,0.22c-1.11,1.04-2.25,2.12-3.39,3.16
		c-1.25,1.14-2.73,1.81-4.53,2.07c-1.94,0.28-3.95,0.12-6.14-0.48c-2.55-0.7-5.23-0.53-8.44,0.54c-1.33,0.44-2.43,0.79-3.6,0.96
		l-0.64,0.1c-1.44,0.22-2.93,0.45-4.32-0.05c-2.05-0.74-4.01-0.88-6-0.42c-0.09,0.02-0.19,0.04-0.32,0.06
		c-0.43,0.07-0.96,0.15-1.2,0.6c-0.16,0.31-0.14,0.71,0.09,1.21c-0.01,0.04-0.03,0.09-0.04,0.12c-0.03,0.09-0.06,0.19-0.08,0.28
		c-0.06,0.33-0.12,0.67-0.19,1.06c-0.11,0.65-0.23,1.32-0.38,1.98c-0.27,1.18-0.45,2.4-0.64,3.59c-0.25,1.6-0.51,3.26-0.96,4.84
		l-0.18,0.64c-0.63,2.17-1.28,4.42-1.63,6.73c-0.27,1.78-0.65,3.58-1.02,5.34l-0.04,0.21c-0.16,0.76-0.32,1.52-0.47,2.29l0.31,0.06
		c0,0,0,0,0,0l-0.33,0.04c-0.05,0.2-0.13,0.53,0.08,0.8c0.14,0.18,0.36,0.27,0.64,0.27c0.04,0,0.08,0,0.13,0.01
		c0.04,0,0.1,0.01,0.17,0.01c0.29,0,0.74-0.09,0.86-0.78c0.18-1.1,0.42-2.2,0.66-3.32c0.28-1.31,0.58-2.66,0.77-4.02
		c0.23-1.63,0.58-3.76,1.27-5.82c0.68-2.05,1.1-3.74,1.32-5.33c0.32-2.31,0.75-4.64,1.17-6.89l0.32-1.76
		c0.07-0.4,0.15-0.48,0.49-0.53c1.61-0.22,2.89-0.12,4.05,0.34c0.76,0.3,1.66,0.6,2.67,0.57c2.74-0.07,5.2-0.5,7.52-1.33
		c2.87-1.02,5.3-1.17,7.63-0.49c1.2,0.35,2.49,0.47,3.6,0.56c3.8,0.3,6.81-0.72,9.21-3.11c0.29-0.29,0.6-0.57,0.9-0.85
		c0.41-0.37,0.84-0.76,1.23-1.18c4.23-4.5,9.82-5.25,14.73-5.4c1.86-0.06,3.66,0.56,5.41,1.16l0.9,0.31
		c2.9,0.96,5.95,1.11,9.32,0.45c1.95-0.38,3.65-0.43,5.21-0.17c1.37,0.23,2.78,0.53,4.03,0.79c0.9,0.19,1.84,0.38,2.76,0.56
		c1.42,0.27,3.03,0.58,4.67,0.19c0.28-0.07,0.95-0.22,1.06-0.93C282.34,160.74,282.09,160.29,281.58,159.99z M253.09,135.26
		c1.58,2.14,1.86,4.64,1.88,6.86c-0.42-0.46-0.85-0.88-1.27-1.3c-0.4-0.4-0.78-0.77-1.14-1.17c-1.97-2.15-4.4-3.78-7.65-5.15
		c-2.12-0.89-4.26-2.06-6.75-3.68c-1.98-1.29-3.34-3.15-4.31-4.63c0,0,0,0,0-0.01c0.88-0.49,1.65-1.17,2.28-2.05
		c0.08-0.12,0.11-0.11,0.14-0.1c0.04,0.01,0.12,0.04,0.25,0.12l0.65,0.43c0.56,0.37,1.15,0.76,1.73,1.11
		c2.45,1.48,5.02,2.66,7.63,3.51c1.02,0.33,1.86,1.06,2.67,1.77l0.3,0.26C250.68,132.27,251.82,133.54,253.09,135.26z M222.58,108.6
		c0,0-0.01,0-0.01,0c0,0,0,0,0-0.01c-0.21-1.27-0.39-2.33-0.61-3.41c0-0.02-0.01-0.04-0.01-0.05c0.01,0,0.02,0,0.03,0
		c1.12-0.16,2.22-0.31,3.32-0.49c0.19,0.85,0.39,1.7,0.6,2.55l0.23,0.97c-0.44,0.06-0.88,0.11-1.38,0.17
		C224.03,108.4,223.3,108.49,222.58,108.6z M222.72,110.51c0,0-0.01,0-0.01,0l-0.03-0.31L222.72,110.51z M217.43,94.81
		c0.11-0.02,0.16-0.02,0.16-0.03c0.01,0.01,0.02,0.04,0.04,0.11c0.25,1.05,0.52,2.08,0.83,3.06c-0.02,0-0.03,0-0.04,0.01l0,0
		c-0.79,0.11-1.57,0.23-2.35,0.34l-0.47,0.07l-0.14-0.6c-0.19-0.8-0.39-1.64-0.61-2.45c-0.01-0.05-0.02-0.1-0.03-0.13
		c0.02,0,0.04-0.01,0.07-0.01c0.71-0.07,1.42-0.19,2.1-0.31L217.43,94.81z M217.05,92.96L217.05,92.96L217.05,92.96
		C217.05,92.96,217.05,92.96,217.05,92.96z M215.23,120.55c-0.94,0.27-1.87,0.55-2.81,0.84l-0.76,0.23c-0.01,0-0.02,0.01-0.04,0.01
		c-0.08-0.21-0.19-0.4-0.29-0.58c-0.21-0.37-0.38-0.66-0.31-1.08l0.04-0.25c0.23-1.57,0.23-1.57,1.89-2.02
		c0.69-0.19,1.38-0.36,2.12-0.54l0.44-0.11l-0.03,0.72c-0.04,0.91-0.07,1.79-0.09,2.72C215.39,120.5,215.36,120.52,215.23,120.55z
		 M215.27,122.47c0,0.75-0.11,1.49-0.22,2.21c-0.07,0.46-0.14,0.94-0.2,1.47c-0.25,0.11-0.51,0.04-0.91-0.1
		c-0.16-0.06-0.33-0.11-0.5-0.15c-0.15-0.03-0.29-0.05-0.45-0.05c0,0-0.01,0-0.01,0c-0.01-0.04-0.01-0.1-0.02-0.19
		c-0.04-0.82-0.21-1.6-0.53-2.37C213.36,122.97,214.29,122.72,215.27,122.47z M214.62,104.89c-0.97,0.28-1.95,0.58-2.9,0.88
		l-0.76,0.24l-0.11-0.8c-0.15-1.12-0.31-2.29-0.48-3.43c-0.01-0.06-0.01-0.09-0.01-0.1c0.01-0.01,0.04-0.02,0.1-0.03l0.8-0.22
		c0.89-0.24,1.81-0.5,2.71-0.76c0.03-0.01,0.05-0.01,0.07-0.02c0,0.01,0,0.03,0.01,0.05c0.14,0.98,0.3,1.97,0.45,2.94l0.17,1.1
		c0.01,0.08,0.02,0.12,0.03,0.13C214.68,104.87,214.66,104.88,214.62,104.89z M214.94,106.77c0.06,0.81,0.14,1.75,0.24,2.7
		c0,0.03,0.01,0.06,0.01,0.08c-0.01,0-0.01,0-0.02,0c-1.05,0.24-2.13,0.51-3.19,0.78l-0.69,0.17l-0.02-0.34
		c-0.03-0.69-0.07-1.4-0.13-2.15c0.01,0,0.02-0.01,0.04-0.01l0.91-0.29C213.03,107.4,213.99,107.09,214.94,106.77z M215.51,115.08
		c0,0-0.03,0.03-0.16,0.06c-1.48,0.34-2.75,0.65-4.03,1.07l-0.01-0.79c-0.01-0.93-0.01-1.83-0.02-2.73c0-0.2,0-0.2,0.16-0.24
		c1.15-0.27,2.31-0.59,3.42-0.89l0.35-0.1c0.04-0.01,0.08-0.02,0.11-0.03c0,0.01,0,0.03,0,0.04c0.03,0.9,0.08,1.81,0.14,2.7
		l0.04,0.67C215.53,115.03,215.51,115.07,215.51,115.08z M216.72,93.01c-0.19,0-0.37,0.03-0.55,0.06c-0.14,0.02-0.28,0.05-0.41,0.05
		c-0.28,0-0.55,0.09-0.82,0.17c-0.15,0.04-0.48,0.15-0.56,0.12c-0.28-0.38-0.42-0.91-0.57-1.48c-0.04-0.18-0.09-0.35-0.14-0.53
		l0.16-0.03c0.68-0.11,1.37-0.23,1.69-0.21c0.86,0.11,0.98,0.47,1.17,1.01c0.06,0.17,0.12,0.35,0.21,0.51
		c0.08,0.15,0.1,0.24,0.11,0.29C216.96,92.99,216.87,93.01,216.72,93.01z M213.71,98.77C213.71,98.77,213.71,98.77,213.71,98.77
		l-0.54,0.15c-1.03,0.28-2.1,0.58-3.14,0.9c0,0-0.01,0-0.01,0c-0.17-0.97-0.37-1.97-0.63-3.05c-0.01-0.04-0.02-0.07-0.02-0.09
		c0.02-0.01,0.05-0.02,0.09-0.03l0.49-0.16c0.95-0.32,1.94-0.65,2.94-0.86c0.02,0,0.03-0.01,0.05-0.01c0.21,0.79,0.4,1.59,0.59,2.37
		L213.71,98.77z M206.17,110.95c-0.03-0.43-0.06-0.88,0.13-1.03c0.74-0.58,1.73-0.89,2.69-1.2l0.3-0.1
		c0.03,0.58,0.06,1.16,0.09,1.82l0.03,0.63c-0.01,0-0.02,0.01-0.03,0.01l-0.09,0.02c-1.03,0.27-2.05,0.62-3.14,1.08
		c0.01-0.05,0.01-0.1,0.02-0.15l0.02-0.14C206.21,111.59,206.19,111.26,206.17,110.95z M208.99,106.74
		c-0.77,0.28-1.53,0.58-2.34,0.9l-0.37,0.15c-0.03-1.38-0.17-2.7-0.42-4.01c-0.1-0.5-0.04-0.6,0.44-0.73
		c0.61-0.17,1.24-0.4,2.05-0.74c0.11-0.04,0.17-0.07,0.22-0.08c0.01,0.04,0.02,0.09,0.03,0.17c0.14,1.51,0.34,3.01,0.5,4.15
		c0.01,0.09,0.01,0.13,0.01,0.13C209.09,106.7,209.06,106.71,208.99,106.74z M205.97,114.64c0.02-0.38,0.11-0.5,0.45-0.61v0
		c0.83-0.26,1.69-0.57,2.45-0.84l0.5-0.18c0.02-0.01,0.03-0.01,0.04-0.01c0,0.01,0,0.01,0,0.02c-0.03,1.44-0.03,2.63,0.02,3.74
		c0.01,0.15,0.01,0.15-0.26,0.24l-0.17,0.07c-1.07,0.41-2.17,0.83-3.26,1.44l0.04-0.55C205.85,116.82,205.92,115.73,205.97,114.64z
		 M211.75,93.96c-0.24,0.05-0.48,0.09-0.69,0.16c-0.6,0.19-1.19,0.38-1.79,0.57l-0.15,0.05c-0.07,0.02-0.13,0.04-0.2,0.07
		c-0.01-0.02-0.01-0.05-0.02-0.08c-0.06-0.24-0.14-0.49-0.23-0.73c-0.14-0.41-0.33-0.93-0.24-1.14c0.1-0.11,0.65-0.21,0.95-0.27
		c0.27-0.05,0.55-0.1,0.78-0.17c0.12-0.04,0.25-0.07,0.38-0.11c0.34-0.09,0.7-0.19,1.04-0.36c0.21-0.1,0.29-0.1,0.29-0.1
		c0.01,0.01,0.07,0.07,0.14,0.38l0,0c0.06,0.25,0.15,0.5,0.24,0.73c0.11,0.29,0.24,0.62,0.21,0.81
		C212.32,93.84,211.92,93.92,211.75,93.96z M211.23,90.07c-0.55,0.17-1.11,0.33-1.66,0.49l-0.33,0.1c-0.47,0.14-0.94,0.27-1.41,0.41
		c-0.01,0-0.03,0.01-0.04,0.01c-0.09-0.29-0.19-0.56-0.3-0.83c0.01,0,0.03-0.01,0.04-0.01c0.32-0.06,1.03-0.2,1.01-0.95
		c0.17,0.17,0.46,0.3,0.95,0.21l0.29-0.06c0.16-0.03,0.31-0.06,0.47-0.08c0.68-0.08,0.89,0.05,1,0.7L211.23,90.07z M207.82,97.01
		l-0.07,0.02l0,0L207.82,97.01z M207.55,97.28l0.64,3.03c0,0.07,0,0.09-0.03,0.07l-0.08,0.03c-0.36,0.13-0.73,0.26-1.12,0.4
		c-0.48,0.17-0.96,0.34-1.44,0.52c-0.16-0.97-0.37-1.9-0.6-2.93c-0.03-0.15-0.03-0.21-0.04-0.21c0,0,0,0,0,0
		c0.01-0.01,0.04-0.03,0.13-0.05c0.59-0.17,1.18-0.38,1.79-0.59C207.04,97.46,207.3,97.37,207.55,97.28z M205.32,121.48
		c0.08-0.48,0.33-0.8,0.86-1.12c1.03-0.62,2.14-1.06,3.07-1.38c-0.01,0.17-0.02,0.33-0.01,0.49c0,0.12-0.01,0.16-0.01,0.16
		c-0.04,0.04-0.27,0.09-0.37,0.12c-1.62,0.37-2.78,1.02-3.58,2.02C205.28,121.67,205.3,121.58,205.32,121.48z M206.59,122.93
		L206.59,122.93c0.8-0.56,1.47-0.97,2.13-1.32c0.2-0.1,0.41-0.13,0.56-0.08c0.12,0.04,0.21,0.13,0.28,0.27
		c0.16,0.36,0.35,0.72,0.54,1.08c0.34,0.63,0.68,1.29,0.85,1.98c0.06,0.23,0.09,0.4,0.11,0.52c-0.11-0.01-0.28-0.03-0.5-0.07
		c-0.1-0.02-0.19-0.04-0.33-0.07l-0.18-0.04c-1.39-0.27-2.51-0.87-3.42-1.85c-0.18-0.19-0.18-0.28-0.18-0.28
		C206.44,123.07,206.46,123.02,206.59,122.93z M211.85,127.81l0.08-0.02c0.19-0.05,0.38-0.1,0.56-0.12
		c-0.62,1.03-0.56,2.17,0.17,3.39c0.15,0.26,0.3,0.51,0.45,0.77c0.5,0.86,1.02,1.75,1.65,2.57c0.49,0.64,0.76,1.39,0.84,2.31
		c0.1,1.13,0.28,2.42,1.21,3.47c0.04,0.04,0.04,0.05-0.01,0.25c-0.02,0.07-0.04,0.14-0.05,0.21c-0.28,1.46-0.75,2.89-1.2,4.29
		c-0.39,1.2-0.8,2.44-1.08,3.71c-0.02,0.09-0.04,0.18-0.07,0.27c-0.67-1.46-1.28-2.74-2.09-3.96c-0.09-0.14-0.18-0.28-0.26-0.42
		c-0.2-0.33-0.43-0.71-0.73-1.03c-1.08-1.15-1.6-2.46-1.58-4.01c0.02-1.85-0.35-3.56-1.12-5.09c-0.48-0.97-0.39-2.42,0.24-3.79
		C209.51,129.15,210.63,128.11,211.85,127.81z M215.65,132.33c-0.57-0.74-1.04-1.57-1.46-2.35c-0.35-0.65-0.39-1.01-0.13-1.36
		c0.24-0.32,0.52-0.48,0.9-0.48c0.12,0,0.24,0.02,0.38,0.05c0.11,0.02,0.23,0.03,0.44,0.02c1.24-0.03,1.29,0.03,1.39,1.29
		c0.03,0.38,0.01,0.77-0.01,1.16l-0.01,0.11c-0.04,0.83,0.44,1.03,0.73,1.07c0.29,0.04,0.81,0,1.03-0.79
		c0.14-0.48,0.17-0.99,0.1-1.58c-0.03-0.22-0.06-0.43-0.1-0.68c0.75,0.38,1.5,0.54,2.32,0.52c0.1-0.01,0.14,0,0.26,0.42l0.03,0.12
		c0.18,0.64,0,1.31-0.48,1.8c-1.83,1.89-2.59,4.24-3.13,6.5l-0.02,0.07c-0.01,0.02-0.01,0.06-0.03,0.11c0-0.01-0.01-0.02-0.01-0.03
		c-0.02-0.07-0.04-0.15-0.06-0.21l-0.04-0.11c-0.09-0.27-0.18-0.55-0.19-0.79C217.55,135.54,216.95,134.04,215.65,132.33z
		 M221.87,105.15L221.87,105.15C221.87,105.15,221.87,105.15,221.87,105.15L221.87,105.15z M221.98,119.25
		c0.01,0.09,0.01,0.14,0.02,0.16c-0.02,0-0.04,0.01-0.08,0.01c-1.22,0.16-2.42,0.33-3.69,0.52l-0.93,0.14l0.03-0.59
		c0.05-0.95,0.09-1.84,0.1-2.76c0-0.19,0.01-0.2,0.17-0.23l0.69-0.15c1.08-0.23,2.2-0.47,3.3-0.73c0.01,0,0.02-0.01,0.03-0.01
		c0,0.02,0.01,0.06,0.01,0.09C221.72,116.86,221.84,117.99,221.98,119.25z M221.58,103.28l-0.12-0.55c-0.22-1.03-0.44-2.07-0.67-3.1
		c1-0.11,2.08-0.15,3.3-0.15c0,0,0,0,0,0l0.26,1.13c0.16,0.69,0.32,1.4,0.51,2.16l-0.36,0.05
		C223.55,102.96,222.55,103.1,221.58,103.28z M220.91,110.69l0.05-0.01c0.12,0.76,0.23,1.52,0.34,2.26l0.12,0.79
		c-0.02,0-0.04,0.01-0.06,0.01h0c-1.33,0.28-2.66,0.57-3.95,0.86c-0.06-1.32-0.12-2.42-0.19-3.47c0-0.01,0-0.02,0-0.03
		c0,0,0.01,0,0.02,0c0.71-0.07,1.41-0.16,2.15-0.24C219.88,110.81,220.4,110.75,220.91,110.69z M220.63,108.8
		c-0.37,0.04-0.75,0.09-1.12,0.13l-0.11,0.01c-0.77,0.09-1.56,0.17-2.34,0.28c-0.08-1.14-0.17-2.06-0.28-2.9c0,0,0-0.01,0-0.01
		c0.02,0,0.03-0.01,0.06-0.01c0.63-0.14,1.27-0.29,1.95-0.45l1.28-0.3c0.17,0.83,0.32,1.68,0.48,2.51l0.14,0.73
		C220.67,108.79,220.65,108.79,220.63,108.8z M221.59,127.68l-0.02-0.31c-0.58,0.05-1.09,0.09-1.53-0.16
		c-0.4-0.22-0.87-0.45-1.46-0.64c0.88-0.31,1.75-0.5,2.6-0.68c0.27-0.06,0.55-0.12,0.83-0.19c-0.02,0.34-0.04,0.67-0.07,1.01
		l-0.05,0.63c-0.11,0.01-0.21,0.02-0.32,0.02L221.59,127.68z M220.72,124.11c-0.26,0.04-0.53,0.07-0.77,0.13
		c-0.95,0.22-1.9,0.53-3.04,1l0.04-0.37c0.08-0.82,0.17-1.67,0.21-2.5c0.02-0.36,0.07-0.36,0.3-0.39c1.86-0.25,3.26-0.45,4.57-0.66
		c0.03-0.01,0.06-0.01,0.09-0.01c0,0.03,0,0.06-0.01,0.1l-0.01,0.1c-0.01,0.28,0.01,0.57,0.03,0.86c0.03,0.52,0.07,1.11-0.13,1.37
		C221.84,123.95,221.22,124.04,220.72,124.11z M226.07,99.54l0.13,0c0.46-0.01,0.89-0.01,1.32,0c0.71,0.03,1.43,0.39,1.99,1
		c0.53,0.58,0.83,1.3,0.83,2.02l-1.25,0.03c-0.76,0.02-1.51,0.03-2.29,0.05c0,0,0-0.01,0-0.02L226.07,99.54z M225.57,110.15
		l0.96-0.12c0,0.04,0.01,0.07,0.02,0.1c0.09,0.48,0.17,0.95,0.25,1.44l0.01,0.09c0.07,0.42,0.14,0.84,0.22,1.26
		c0,0.01,0,0.02,0.01,0.03c-0.01,0-0.03,0-0.05,0.01c-1.2,0.13-2.41,0.28-3.61,0.46c-0.04,0.01-0.07,0.01-0.1,0.01
		c0-0.01,0-0.03-0.01-0.05c-0.06-0.59-0.15-1.17-0.24-1.75c-0.06-0.36-0.11-0.71-0.16-1.07l-0.01-0.07
		C223.74,110.38,224.62,110.27,225.57,110.15z M223.65,115.29l1.06-0.14c0.81-0.1,1.64-0.21,2.46-0.33c0.04-0.01,0.08-0.01,0.1-0.01
		c0,0.02,0.01,0.05,0.01,0.09c0.06,0.69,0.14,1.38,0.21,2.06c0.06,0.52,0.12,1.04,0.17,1.62c0,0.02,0.01,0.05,0.01,0.09
		c-0.9,0.1-1.82,0.22-2.71,0.34l-1.1,0.15l-0.1-1.09c-0.08-0.88-0.16-1.79-0.27-2.68c0-0.03,0-0.05-0.01-0.06
		C223.52,115.31,223.57,115.3,223.65,115.29z M227.92,121.48c0.07,0.48,0.14,0.93,0.01,1.19c-0.09,0.16-0.56,0.17-0.94,0.18
		c-0.3,0.01-0.61,0.02-0.9,0.08c-0.59,0.13-1.17,0.23-1.79,0.33l-0.31,0.05v-0.45c0-0.58,0-1.15-0.01-1.72c0-0.05,0-0.08,0-0.09
		c0.02-0.01,0.05-0.01,0.11-0.02c1.11-0.13,2.24-0.28,3.34-0.43l0.35-0.05c0.01,0,0.03,0,0.04,0c0,0,0,0,0,0
		C227.82,120.86,227.87,121.17,227.92,121.48z M223.82,119.21l0.03,0.26h0l-0.14-0.31C223.76,119.17,223.79,119.19,223.82,119.21z
		 M223.89,125.87l0.04-0.58c0.02,0,0.03-0.01,0.05-0.01c1.55-0.25,2.91-0.49,4.15-0.71c0,0.06,0,0.11,0,0.17
		c0.09,0.74,0.16,1.38,0.05,1.52c-0.12,0.14-0.77,0.21-1.52,0.28c-1.11,0.11-2.01,0.26-2.87,0.46
		C223.84,126.64,223.86,126.27,223.89,125.87z M228.16,107.9c-0.08,0.01-0.13,0.01-0.14,0.01c-0.01-0.02-0.02-0.06-0.04-0.14
		c-0.19-0.94-0.43-1.97-0.75-3.25c0,0,0.01,0,0.01,0c0.81,0,1.64-0.02,2.45-0.04l1-0.02c0.01,0,0.02,0,0.03,0c0.03,0,0.06,0,0.06,0
		c0.19,0.77,0.38,1.54,0.57,2.31l0.21,0.83l-0.9,0.08C229.83,107.74,228.99,107.81,228.16,107.9z M230.79,109.57l1.11-0.1
		c0.07-0.01,0.11,0,0.1,0.03c0.1,0.52,0.2,1.04,0.31,1.56c0.1,0.49,0.19,0.97,0.29,1.46c-0.93,0.06-1.86,0.1-2.79,0.15l-0.89,0.04
		l-0.11-0.71c-0.12-0.73-0.24-1.49-0.4-2.23C229.2,109.71,229.99,109.64,230.79,109.57z M232.7,100.59c0.3-0.2,0.6-0.39,0.91-0.58
		c-0.23,0.35-0.49,0.76-0.59,1.24c-0.04,0.18-0.13,0.36-0.22,0.56c-0.08,0.17-0.17,0.35-0.23,0.54c-0.04,0.13-0.06,0.17-0.4,0.18
		c-0.01-0.03-0.01-0.06-0.02-0.08c-0.01-0.07-0.03-0.13-0.05-0.2C231.77,101.2,231.77,101.2,232.7,100.59z M229.21,114.62
		c0.92-0.02,1.84-0.08,2.72-0.14l0.87-0.06c0.02,0,0.04,0,0.07,0c0.06,1,0.12,2.01,0.18,3.02l0.05,0.87l-0.7,0.02
		c-0.92,0.03-1.87,0.06-2.81,0.14c-0.02,0-0.03,0-0.04,0c0-0.02-0.01-0.05-0.01-0.08l-0.09-0.96c-0.09-0.9-0.18-1.82-0.29-2.73
		c0-0.03-0.01-0.05-0.01-0.07C229.17,114.63,229.19,114.62,229.21,114.62z M229.74,120.37L229.74,120.37L229.74,120.37
		C229.74,120.38,229.74,120.38,229.74,120.37z M229.74,120.37c0.01-0.01,0.1-0.06,0.47-0.05c0.74,0.02,1.49-0.03,2.21-0.08
		c0.25-0.02,0.5-0.03,0.71-0.05c0,0.02,0,0.05,0,0.07c0.1,0.93,0.17,1.67,0.02,1.85c-0.15,0.17-0.88,0.21-1.8,0.24
		c-1.44,0.06-1.44,0.06-1.6-1.34l-0.02-0.15C229.69,120.49,229.73,120.39,229.74,120.37z M232.73,104.52
		c0.86,0.19,1.78,1.02,2.01,1.89l0.06,0.2c0.06,0.22,0.22,0.79,0.18,0.97c-0.21,0.1-0.63,0.06-1,0.03
		c-0.16-0.02-0.32-0.03-0.48-0.04c0,0,0,0,0,0L232.73,104.52z M235.1,122.19l-0.02-0.36c-0.02-0.54-0.05-1.09-0.01-1.62
		c0-0.05,0.01-0.08,0.01-0.11c0.06,0.01,0.15,0.03,0.21,0.04c0.13,0.03,0.28,0.06,0.43,0.06c-0.04,0.13-0.07,0.27-0.1,0.43
		l-0.04,0.17C235.47,121.23,235.33,121.73,235.1,122.19z M235.33,122.41L235.33,122.41l-0.23-0.08c0-0.01,0-0.03,0-0.05
		L235.33,122.41z M235.07,118.29c-0.03,0-0.05,0-0.07-0.01c0-0.02,0-0.05,0-0.09c-0.03-0.98-0.1-1.97-0.17-2.93l-0.06-0.86
		c0.7,0.04,1.4,0.04,2.09,0.05l0.29,0c0.05,0,0.09,0,0.11-0.03c0,0,0.01,0.05-0.01,0.19c-0.07,0.4-0.13,0.8-0.19,1.23l-0.09,0.65
		l-0.06,0.16c-0.05,0.15-0.12,0.33-0.18,0.51C236.34,118.36,236.34,118.36,235.07,118.29z M234.54,112.52
		c-0.01-0.07-0.02-0.13-0.03-0.17l-0.55-2.86c1.24-0.06,1.29,0.05,1.89,1.44c0.22,0.5,0.46,0.98,0.72,1.51l0.05,0.09L234.54,112.52z
		 M257.99,125.96c1.05,0.68,1.88,1.38,2.56,2.14c-1.58-0.36-3.37-0.71-5.23-0.85c-0.2-0.02-0.4-0.02-0.61-0.02
		c-0.89,0-1.78,0.14-2.67,0.29c-2.62,0.45-5.23,0.02-8.24-1.37c-1.79-0.83-3.51-1.88-5.16-2.89c-0.49-0.3-0.98-0.6-1.48-0.9
		c-0.08-0.05-0.11-0.08-0.12-0.08c0.01-0.06,0.09-0.18,0.14-0.26c0.12-0.2,0.27-0.44,0.27-0.77c0,0.01-0.01,0.04-0.05,0.08
		l0.04-0.21c0,0,0,0,0,0l0.02,0.32l0.13,0.03c1.02,0.18,2.03,0.45,3.03,0.72c1.38,0.37,2.81,0.75,4.28,0.89l0.58,0.06
		c0.99,0.1,2.01,0.21,3.04,0.1C251.64,122.92,254.64,123.78,257.99,125.96z M262.45,121.79l-0.95-0.1c-1.24-0.14-2.46-0.27-3.69-0.4
		c-1.49-0.15-2.94-0.23-4.35-0.23c-1.27,0-2.5,0.06-3.69,0.18c-2.32,0.24-4.54,0.1-6.8-0.43c-0.55-0.13-1.1-0.25-1.65-0.37
		c-0.99-0.22-2.01-0.45-3.02-0.71c-0.1-0.02-0.21-0.03-0.33-0.04c-0.02,0-0.06,0-0.09,0c0.09-0.53,0.15-0.65,0.52-0.66
		c1.58-0.02,2.88,0.08,4.06,0.29c0.29,0.05,0.59,0.1,0.89,0.15c0.26,0.04,0.52,0.08,0.78,0.13c0.79,0.14,1.27-0.08,1.41-0.66
		c0.08-0.32-0.01-0.54-0.09-0.67c-0.17-0.26-0.45-0.35-0.68-0.4l-0.26-0.05c-1.9-0.44-3.65-0.65-5.41-0.64
		c1.39-0.66,2.93-0.98,4.42-1.29l0.14-0.03c3.75-0.77,7.28-0.78,10.72-0.03l0.07,0.03C257.93,116.63,260.56,118.58,262.45,121.79z
		 M260.07,111.55c-0.8,0.12-1.56,0.24-2.31,0.3c-1.9,0.16-3.7,0.62-5.35,1.37c-0.43,0.19-0.88,0.26-1.5,0.21
		c-3.66-0.28-7.39,0.28-11.74,1.74c-0.03,0.01-0.05,0.02-0.08,0.03c0.01-0.09,0.02-0.18,0.03-0.27c0.06-0.57,0.11-1.16-0.05-1.75
		c1.48-0.17,2.96-0.18,4.4-0.04c2.62,0.26,5.03-0.35,7.4-1.9c0.11-0.08,0.24-0.16,0.33-0.18
		C254.43,110.4,257.34,110.56,260.07,111.55z M253.87,103.01c0.72,0.05,1.43,0.15,2.13,0.3c2.51,0.55,4.88,1.77,7.2,3.71
		c-1.92-0.37-3.93-0.67-6.03-0.57c-2.76,0.13-4.73,0.85-6.38,2.34c-2.14,1.93-4.56,2.76-7.21,2.47c-0.71-0.08-1.43-0.11-2.13-0.11
		c-1.05,0-2.07,0.07-3,0.14c-0.33,0.03-0.41-0.04-0.51-0.28c-0.16-0.4-0.33-0.79-0.51-1.18c-0.12-0.26-0.23-0.52-0.35-0.78
		c-0.05-0.12-0.06-0.18-0.06-0.18c0.01-0.01,0.07-0.06,0.25-0.12c0.94-0.32,1.93-0.55,2.89-0.78c1.39-0.33,2.84-0.68,4.2-1.28
		c1.73-0.77,3.55-1.61,5.25-2.73C250.75,103.2,252.14,102.9,253.87,103.01z M256.39,96.73c-0.45,0.18-0.89,0.36-1.34,0.53
		c-1.63,0.63-2.88,1.47-3.83,2.57v0c-2.58,2.99-6.06,4.91-11.3,6.23c-0.96,0.24-1.98,0.5-3.01,0.81c-0.05,0.01-0.13,0.04-0.2,0.05
		c0-0.03,0-0.06,0-0.11c-0.01-0.84-0.35-1.55-0.71-2.11c2.57-1.41,4.92-3.11,7.2-4.77l0.88-0.64
		C247.79,96.64,251.93,95.77,256.39,96.73z M243.65,89.24c2.17-2.17,4.64-4.27,8.04-4.89c0.07-0.01,0.14-0.02,0.21-0.04
		c-0.64,1.09-1.13,2.24-1.61,3.37c-0.43,1.01-0.88,2.06-1.42,3.02c-1.33,2.38-2.83,4.3-4.57,5.87c-2.89,2.6-6.06,4.8-9.42,6.56
		c-0.39,0.21-0.47,0.2-0.63,0.06c-0.04-0.04-0.06-0.06-0.06-0.06c0-0.04,0.07-0.17,0.11-0.22c0.04-0.08,0.08-0.15,0.12-0.23
		c0.76-1.74,1.72-3.76,3.16-5.57c0.76-0.95,1.47-1.96,2.15-2.93C240.92,92.49,242.16,90.74,243.65,89.24z M237.28,85.12
		c0.2-0.18,0.39-0.36,0.58-0.53c1.04-0.96,2.29-1.49,3.73-1.55c0.52-0.02,1.03-0.07,1.61-0.13c-1.47,1.77-2.65,3.74-3.77,6.27
		L239.07,90c-0.66,1.51-1.34,3.08-2.27,4.47c-1.35,2.02-3.39,3.36-5.36,4.67l-0.4,0.26c-0.04-0.05-0.08-0.1-0.12-0.14
		c-0.18-0.18-0.37-0.38-0.46-0.5c0.1-0.1,0.33-0.25,0.53-0.4c1.38-0.97,2.36-2.3,3.22-3.46c0.65-0.89,0.2-1.39-0.03-1.57
		c-0.13-0.1-0.26-0.17-0.4-0.2c-0.09-0.02-0.18-0.02-0.28-0.01c-0.35,0.06-0.54,0.34-0.68,0.57c-0.02,0.04-0.05,0.07-0.07,0.11
		c-0.98,1.3-1.99,2.65-3.5,3.42c-0.38,0.19-1.11-0.02-1.43-0.39c0.01-0.02,0.02-0.04,0.03-0.06c0.12-0.25,0.35-0.43,0.58-0.6
		c2.13-1.57,4.45-3.59,5.44-6.6C234.5,87.65,235.85,86.42,237.28,85.12z M234.62,76.21c0.65-0.56,1.21-1,1.96-1
		c0.05,0,0.1,0,0.15,0.01c0.02,0,0.03,0,0.05,0c-0.55,1.38-0.64,2.83-0.73,4.22l-0.01,0.14c-0.02,0.24-0.03,0.48-0.05,0.72
		c-0.04,0.59-0.23,1.11-0.53,1.49c-1.48,1.84-2.24,4.02-2.97,6.13l-0.21,0.6c-0.97,2.78-3.07,4.67-4.8,6
		c-0.07,0.05-0.14,0.1-0.25,0.18c-0.17,0.12-0.34,0.24-0.49,0.38c-0.06,0.06-0.12,0.12-0.17,0.19c-0.63-0.78-0.54-0.88,0.32-1.85
		c2.55-2.84,3.99-6.21,4.3-10.02C231.43,80.32,232.52,78.03,234.62,76.21z M221.85,90.07c0.12-0.93,0.44-1.81,0.79-2.7
		c0.64-1.64,1.06-3.42,1.25-5.29c0.17-1.74,0.81-3.42,1.93-5.16c1.5-2.31,3.32-4.46,5.54-6.55c-0.12,0.53-0.24,1.06-0.36,1.58
		c-0.5,2.16-1.02,4.39-1.17,6.66c-0.17,2.61-0.45,4.71-0.88,6.61c-0.69,3.04-2.14,5.67-4.45,8.07c0,0-0.01,0.01-0.01,0.01
		c-0.58-0.63-1.27-1.09-1.93-1.53l-0.14-0.09C221.96,91.38,221.76,90.8,221.85,90.07z M221.4,94.46l0.66-0.02
		c0.12,0,0.12-0.01,0.19,0.13l0.12,0.25c0.44,0.89,0.89,1.82,1.21,2.77c-1.14,0.03-2.18,0.09-3.18,0.16c-0.02,0-0.04,0-0.06,0
		c-0.23-0.89-0.47-1.77-0.71-2.67l-0.13-0.5C220.13,94.5,220.77,94.48,221.4,94.46z M218.87,99.83
		C218.88,99.83,218.88,99.83,218.87,99.83c0.2,0.94,0.41,1.89,0.62,2.85l0.22,0.99c-0.41,0.1-0.82,0.19-1.24,0.29
		c-0.64,0.14-1.29,0.29-1.94,0.46c0-0.01,0-0.01,0-0.02c-0.2-1.41-0.41-2.8-0.65-4.12c0,0,0-0.01,0-0.01h0
		C217,100.11,217.93,99.98,218.87,99.83z M218.86,72.56c1.21-1.16,2.29-2.43,3.49-3.9c-0.02,0.09-0.05,0.18-0.07,0.26L221.94,70
		c-0.78,2.58-1.59,5.24-2.13,7.94c-0.37,1.87-0.57,3.76-0.76,5.6c-0.1,0.91-0.19,1.86-0.31,2.78c-0.16,1.28-0.82,2.3-1.44,3.12
		c-0.15,0.19-0.21,0.19-0.62,0.07l-0.08-0.02c-0.14-0.04-0.18-0.05-0.17-0.36c0.04-1.41,0.26-2.87,0.67-4.45l0.03-0.12
		c0.07-0.26,0.18-0.62,0-0.94c-0.07-0.13-0.22-0.31-0.6-0.41c-0.08-0.02-0.16-0.03-0.23-0.03c-0.67,0-0.88,0.72-0.97,1.05
		c-0.4,1.38-0.57,2.8-0.7,4.15c-0.05-0.11-0.09-0.26-0.13-0.48c-0.48-2.56-0.83-5.6,0.22-8.69
		C215.61,76.54,216.97,74.37,218.86,72.56z M210.95,76.72c0.47-1.17,0.98-2.31,1.51-3.48c0.87-1.93,1.18-3.99,1.49-5.99v0l0.26-1.64
		c0.53,0.82,1.19,1.45,1.83,2.08c0.37,0.36,0.72,0.7,1.04,1.07c1.38,1.59,1.38,1.59-0.01,2.9c-2.2,2.07-3.67,4.81-4.62,8.61
		c-0.6,2.38-0.32,4.74,0.09,7.35c-0.32-0.07-0.43-0.11-0.51-0.3C210.36,83.48,209.54,80.2,210.95,76.72z M207.21,72.15
		c0,0.02,0.01,0.05,0.02,0.07c0.05,0.23,0.11,0.47,0.19,0.7c0.55,1.46,0.91,3,1.23,4.46c0.06,0.28,0,0.57-0.08,0.9
		c-0.03,0.14-0.06,0.27-0.09,0.4v0c-0.32,1.82-0.18,3.65,0.42,5.46c0.11,0.33,0.21,0.65,0.31,0.98c0.24,0.8,0.49,1.62,0.85,2.42
		c-0.32,0.06-0.63,0.12-0.94,0.19c-0.34,0.08-0.59,0.24-0.72,0.47c-0.07,0.12-0.1,0.24-0.11,0.38c-0.03-0.03-0.07-0.07-0.11-0.09
		c-0.15-0.1-0.31-0.13-0.46-0.13c-0.12,0-0.23,0.02-0.34,0.04c0.49-1.57,0.73-3.04,0.71-4.46c-0.01-1.38-0.21-2.67-0.59-3.95
		C206.7,77.29,206.6,74.71,207.21,72.15z M207.03,94.99l0.12,0.42l-0.91,0.31c-0.57,0.19-1.16,0.39-1.74,0.6c0-0.01,0-0.02,0-0.03
		c-0.01-0.05-0.02-0.1-0.03-0.16c-0.04-0.33-0.18-0.66-0.31-0.99c-0.09-0.21-0.24-0.57-0.25-0.63c0.52-0.41,1.25-0.63,1.96-0.85
		c0.24-0.07,0.48-0.15,0.72-0.23C206.74,93.96,206.89,94.48,207.03,94.99z M190.27,120.06c-4.19,0.65-7.73,1.05-11.36,0.91
		c-0.81-0.04-1.6,0.05-2.38,0.13c-0.95,0.1-1.93,0.2-2.88,0.07c-0.74-0.1-1.45-0.31-2.21-0.54c-0.25-0.07-0.51-0.15-0.77-0.22
		c0.16-0.12,0.31-0.24,0.46-0.36c0.8-0.62,1.56-1.21,2.3-1.83c2.62-2.21,6.19-4.92,10.59-6.31c3.51-1.11,6.7-0.44,10.03,2.12
		c0.67,0.51,1.19,0.92,1.13,1.8c-0.07,0.93,0.58,1.64,1.19,2.24c0.27,0.26,0.55,0.52,0.84,0.8c-1.58-0.07-3.07,0.31-4.53,0.67
		C191.89,119.73,191.07,119.93,190.27,120.06z M191.65,121.77c-1.29,1.82-2.18,3.83-3.12,6.05c-0.13,0.3-0.19,0.36-0.34,0.4
		c-2.53,0.75-4.67,2.27-6.55,3.61l-0.15,0.11c-1.49,1.06-3.02,2.16-4.67,3.08l0.08-0.46c0.46-2.82,0.93-5.74,2.28-8.33
		c0.18-0.35,0.42-0.7,0.66-1.04c0.11-0.16,0.22-0.32,0.33-0.48c1.11-1.69,2.89-2.01,4.66-2.1
		C186.92,122.51,189.16,122.23,191.65,121.77z M188.24,108.58c0.17,0.32,0.5,0.53,1.02,0.64c0.74,0.16,1.37,0.5,2.04,1.1
		c-0.53-0.19-1.04-0.36-1.58-0.51c-2.05-0.56-3.99-0.5-5.93,0.18c-0.26,0.09-0.53,0.18-0.8,0.27c-0.84,0.27-1.7,0.55-2.5,1
		c-2.23,1.27-4.65,1.28-6.5,1.16c-1.18-0.08-2.31,0.12-3.42,0.33c1.09-1.12,2.03-2.31,2.82-3.54c1.19-1.88,2.99-3.03,5.5-3.52
		c1.34-0.26,2.63-0.4,3.88-0.4c1.24,0,2.44,0.13,3.62,0.39c0.69,0.15,1.38,0.35,2.05,0.59c0.16,0.06,0.23,0.1,0.24,0.1
		c0,0.03-0.02,0.09-0.09,0.23c-0.12,0.24-0.24,0.5-0.34,0.77C188.07,107.85,188.07,108.25,188.24,108.58z M190.28,107.4
		c0.43-0.8,0.87-1.63,1.54-2.29c0.32-0.32,0.75-0.33,1.11-0.34c1.62,0.35,3.96,3.18,4.25,5.13c0.03,0.21,0.04,0.43,0.05,0.64
		c0.01,0.27,0.03,0.58,0.09,0.88v0c0.13,0.68-0.15,1.1-0.82,1.69c-0.01-0.01-0.02-0.02-0.03-0.03l-0.64-0.68
		c-0.9-0.96-1.83-1.96-2.72-2.96c-0.87-0.96-1.74-1.55-2.73-1.85c-0.08-0.02-0.13-0.04-0.15-0.05
		C190.22,107.51,190.24,107.46,190.28,107.4z M184.21,100.82c-1.23-0.08-2.47-0.36-3.7-0.63c-0.29-0.06-0.57-0.13-0.86-0.19
		c-0.51-0.11-1-0.16-1.47-0.16c-0.85,0-1.66,0.17-2.43,0.53c-2.32,1.05-4.42,1.03-6.43-0.05c-0.48-0.26-0.87-0.53-1.2-0.85
		l0.08-0.03c0.49-0.16,0.95-0.31,1.4-0.47c1.45-0.53,2.6-1.34,3.42-2.43c1.31-1.73,3.16-2.44,5.53-2.98
		c0.07-0.02,0.08-0.02,0.25,0.12l0.08,0.06c2.07,1.62,4.34,2.71,6.75,3.24c1.51,0.33,2.7,1.33,3.85,2.3l0.44,0.37
		c1.05,0.87,1.98,1.93,2.82,3.24c0,0,0,0,0,0c-0.72,0-1.37,0.19-1.97,0.58C188.9,101.87,186.69,100.98,184.21,100.82z M196.02,98.86
		c0.42,0.94,0.43,1.9,0.04,2.93c-0.23,0.61-0.38,1.18-0.47,1.76c-0.58-0.49-0.91-1.07-0.98-1.73c-0.22-2.15-0.69-4.24-1.39-6.21
		c-0.04-0.11-0.07-0.23-0.1-0.36c-0.1-0.51-0.1-0.68-0.13-0.68c0.02-0.01,0.08-0.02,0.21-0.02c0.1,0,0.24,0.01,0.45,0.03
		c0.65,0.06,1.24-0.06,1.89-0.24C194.92,95.95,195.39,97.46,196.02,98.86z M197.54,114.67c0.23-0.29,0.55-0.56,0.85-0.81l0.11-0.1
		c0.64-0.54,1.4-1.32,1.62-2.51c0.04-0.2,0.14-0.43,0.58-0.68c0.5-0.28,0.68-0.27,0.73-0.26c0,0,0.12,0.08,0.18,0.67
		c0.17,1.65,0.69,2.95,1.65,4.1c0.54,0.65,0.54,1.55,0.48,2.58c-0.04,0.78-0.13,1.56-0.22,2.39l-0.04,0.4
		c-0.59-0.36-1.2-0.61-1.79-0.84c-0.38-0.15-0.73-0.29-1.08-0.46c-1.36-0.67-2.4-1.86-3.26-2.91
		C197.04,115.85,197.12,115.2,197.54,114.67z M202.84,90.88l0.25,0.04c0.7,0.11,1.5,0.15,2.2-0.48c0.11-0.1,0.16-0.11,0.17-0.12
		c0.01,0.01,0.07,0.05,0.18,0.24c0.18,0.34,0.43,0.81,0.43,0.91c-0.07,0.1-0.56,0.28-0.88,0.4c-0.48,0.18-0.97,0.37-1.47,0.57
		l-0.29,0.12L202.84,90.88z M203.26,98.55L203.26,98.55l-0.01-0.02L203.26,98.55z M203.09,98.93l0.15,0.78
		c0.14,0.73,0.29,1.49,0.45,2.23c0.01,0.04,0.01,0.07,0.02,0.08c-0.02,0.01-0.05,0.03-0.12,0.05c-1.03,0.39-2.1,0.8-3.15,1.26
		l-0.17-1.22c-0.08-0.58-0.16-1.15-0.25-1.73c0-0.03-0.01-0.08-0.02-0.12c0.6-0.26,1.2-0.52,1.8-0.78L203.09,98.93z M202.11,97.32
		c-0.61,0.2-1.19,0.47-1.77,0.74c-0.24,0.11-0.47,0.22-0.72,0.33c-0.01,0-0.01,0.01-0.02,0.01c-0.1-0.53-0.2-0.94-0.27-1.27
		c-0.19-0.8-0.19-0.8,0.58-1.12c0.3-0.12,0.66-0.27,1.13-0.48c0.39-0.18,0.92-0.42,1.07-0.42c0.01,0,0.01,0,0.02,0
		c0.1,0.08,0.25,0.59,0.4,1.08l0.04,0.14C202.79,97.02,202.68,97.13,202.11,97.32z M200.21,93.83l-0.11,0.05
		c-0.06,0.03-0.12,0.05-0.18,0.07c-0.25,0.08-0.51,0.23-0.76,0.38c-0.08,0.05-0.29,0.17-0.44,0.24c-0.33-0.5-0.68-1.21-0.49-1.95
		c0-0.01,0.01-0.03,0.01-0.04c0.2,0.16,0.41,0.23,0.63,0.2c0.32-0.04,0.57-0.28,0.75-0.7c0.04-0.09,0.07-0.19,0.1-0.29
		c0.03-0.09,0.05-0.17,0.08-0.22c0.16-0.25,0.59-0.8,1.07-0.81c0.06,0.05,0.14,0.36,0.18,0.5c0.03,0.13,0.07,0.26,0.11,0.37
		C201.75,93.18,201.75,93.18,200.21,93.83z M198.26,101.43l0.4,2.67c0,0-0.02,0.02-0.08,0.05c-0.34,0.18-0.67,0.36-1,0.55
		C197.32,103.6,197.62,102.22,198.26,101.43z M203.2,109.38c-0.23-0.47-0.59-0.77-1.08-0.88c-0.16-0.03-0.32-0.05-0.49-0.05
		c-0.21,0-0.43,0.02-0.62,0.05c-0.08-0.97-0.18-1.97-0.31-3.06c-0.02-0.21,0-0.25,0.21-0.32c0.67-0.24,1.34-0.51,1.98-0.76
		c0.34-0.13,0.68-0.27,1.08-0.42l0.08,0.59c0.17,1.3,0.35,2.65,0.32,3.98C204.19,108.7,203.53,109.18,203.2,109.38z M199.31,72.22
		c0.06-1.69,0.5-3.03,1.37-4.15l0.01,0.08c0.09,0.64,0.18,1.25,0.28,1.84c0.27,1.56,0.82,2.94,1.65,4.1
		c1.54,2.17,2.46,4.7,3.22,7.11c0.69,2.19,0.53,4.54-0.48,7.18l0,0c0,0.01,0,0.01-0.01,0.02c-0.53,0.03-0.93,0.32-1.28,0.57
		c-0.2,0.14-0.46,0.17-0.72,0.07c-0.29-0.11-0.51-0.37-0.57-0.66c-0.77-3.7-1.75-6.94-3-9.89c-0.29-0.69-0.43-1.36-0.43-2.05
		c0-0.57-0.01-1.15-0.03-1.74C199.3,73.93,199.28,73.05,199.31,72.22z M188.16,67.85c0.16-0.66,0.52-1.22,0.91-1.81l0.04-0.06
		c1.08,2.2,2.64,4.06,4.16,5.87c0.58,0.69,1.18,1.41,1.75,2.13c2.11,2.7,3.6,5.97,4.83,10.58c0.36,1.35,0.71,2.67,1.02,3.94
		l0.02,0.09c0.02,0.07,0.05,0.18,0.05,0.24c-0.03,0.01-0.09,0.03-0.18,0.05c-0.02,0-0.04,0.01-0.06,0.01c0-0.01,0-0.02,0-0.03
		c0-0.1-0.01-0.2-0.03-0.3c-0.53-2.41-1.21-4.5-2.07-6.4c-0.03-0.06-0.06-0.13-0.09-0.22c-0.15-0.38-0.34-0.86-0.78-1.04
		c-0.17-0.07-0.44-0.12-0.79,0.05c-0.3,0.14-0.49,0.34-0.56,0.59c-0.12,0.42,0.14,0.79,0.34,1.08c0.06,0.09,0.12,0.17,0.15,0.25
		c0.81,1.88,1.48,3.89,2,5.98c0.16,0.62,0.12,0.97-0.16,1.23c-0.28-0.41-0.56-0.89-0.71-1.48c-0.68-2.6-2.11-4.91-4.36-7.06
		c-1.13-1.08-2.3-2.2-3.75-2.99c-0.17-0.09-0.29-0.23-0.38-0.44C187.82,74.32,187.39,71.07,188.16,67.85z M176.9,76.04
		c-0.44-0.7-0.61-1.34-0.5-1.96c0-0.03,0.01-0.05,0.01-0.08c0.02,0.02,0.04,0.03,0.06,0.05c1.24,1.18,2.77,2.49,4.63,3.33
		c0.96,0.43,1.98,0.7,2.97,0.96c0.93,0.24,1.89,0.5,2.77,0.88c5.5,2.45,8.63,6.11,9.57,11.18c0.05,0.28,0.05,0.59,0.06,0.9l0,0.08
		c0,0.13-0.01,0.26-0.03,0.45l-0.03,0.28c-0.04-0.02-0.08-0.05-0.12-0.09c-1.32-1-2.74-1.87-4.12-2.71
		c-0.79-0.48-1.68-1.02-2.51-1.57c-2-1.33-4.36-2.5-7.2-3.59c-0.95-0.36-1.85-1.26-2.41-2.4C178.93,79.47,177.93,77.66,176.9,76.04z
		 M170.82,84.06c1.89,0.49,3.8,0.78,5.66,1.05c1.98,0.29,4.02,0.59,5.95,1.15c2.44,0.7,4.88,2.01,7.71,4.12
		c0.59,0.45,1.24,0.79,1.87,1.13c0.65,0.35,1.31,0.71,1.89,1.17c-0.24,0.01-0.55-0.07-0.95-0.23c-0.38-0.15-0.82-0.27-1.2-0.04
		c-0.38,0.22-0.48,0.66-0.53,1.06c-0.16,1.2,0.01,2.4,0.52,3.77c0.28,0.76,0.48,1.46,0.62,2.16c-0.9-0.95-1.86-1.8-2.96-2.62
		c-0.83-0.62-1.86-1.29-3.2-1.58c-3.85-0.84-6.75-3.27-8.84-5.29C174.96,87.61,172.85,85.72,170.82,84.06z M187.73,131.44
		c-0.22,1.76-0.43,3.41-1,5.01c-0.41,1.16-0.63,2.07-0.7,2.95c-0.03,0.29-0.07,0.86,0.35,1.23c-0.4,0.05-0.8,0.1-1.19,0.16
		l-0.09,0.01c-0.5,0.07-1.02,0.14-1.53,0.19c-1.85,0.18-3.78-0.01-6.26-0.62c-0.27-0.07-0.29-0.14-0.31-0.27
		c-0.15-0.97-0.86-1.49-1.46-1.84c-1.25-0.72-2.67-1.54-3.24-3.15c-0.32-0.89-1.11-1.34-1.81-1.73l-0.21-0.12
		c-0.81-0.47-1.21-1.02-1.29-1.81c-0.12-1.17-0.84-2.01-1.59-2.75c-1.67-1.63-2.63-3.23-3.02-5.01c-0.21-0.98-0.76-1.92-1.62-2.8
		c-0.81-0.83-1.16-1.71-1.1-2.77c0.09-1.65-0.47-3.16-1.04-4.56c-0.61-1.5-0.84-2.83-0.71-4.19c0.13-1.34-0.1-2.61-0.67-3.78
		c-0.41-0.85-0.58-1.75-0.48-2.69c0.11-1.11-0.12-2.21-0.71-3.48l-0.18-0.38c-0.59-1.24-1.2-2.53-0.89-3.97
		c0.17-0.76-0.16-1.45-0.45-2.06l-0.08-0.17c-0.14-0.31-0.29-0.61-0.45-0.94c-0.48-0.98-0.97-2-1.25-3.06
		c-0.02-0.09-0.06-0.19-0.11-0.29c-0.01-0.02-0.02-0.05-0.03-0.07c0.47-0.85,0.25-1.66,0.06-2.38c-0.01-0.05-0.02-0.09-0.04-0.14
		c0.03,0.01,0.06,0.02,0.09,0.03c0.4,0.15,0.81,0.31,1.16,0.51c0.94,0.54,2.22,1.16,3.76,1.08c0.23-0.01,0.51,0.05,0.69,0.16
		c1.09,0.65,2.19,0.86,3.39,0.66c0.04-0.01,0.14-0.02,0.11-0.05c0.88,0.53,1.83,0.6,2.77,0.67c0.33,0.03,0.68,0.05,1.01,0.1
		c1.09,0.17,2.14,0.51,3.18,0.85c0.56,0.18,1.14,0.37,1.73,0.53c0.72,0.2,1.33,0.61,1.91,1c0.43,0.29,0.87,0.59,1.37,0.82
		c-0.29,0.11-0.58,0.22-0.87,0.35c-1.36,0.61-2.36,1.36-3.06,2.3c-0.96,1.27-2.28,2.1-4.18,2.6l-0.24,0.06
		c-0.22,0.05-0.44,0.11-0.66,0.19c-0.59,0.22-0.94,0.54-1.05,0.95c-0.11,0.4,0.03,0.84,0.42,1.31c1.63,1.96,3.91,2.95,6.71,2.91
		c1.24-0.01,2.37-0.28,3.29-0.77c1.08-0.58,2.27-0.67,3.63-0.29c1.24,0.35,2.49,0.51,3.7,0.66c0.7,0.09,1.41,0.18,2.12,0.31
		c1.3,0.23,2.54,0.81,3.84,1.79c-0.03-0.01-0.06-0.03-0.09-0.04c-4.04-1.53-8.17-1.69-12.28-0.47c-2.13,0.63-3.65,1.67-4.64,3.16
		c-1.54,2.32-3.52,4.33-5.43,6.28l-0.38,0.39c-0.14,0.14-0.27,0.28-0.4,0.44c-0.29,0.39-0.29,0.84-0.01,1.2
		c0.31,0.38,0.78,0.47,1.21,0.23c2.17-1.25,4.65-1.73,7.79-1.52c0.01,0,0.01,0,0.02,0l-6,4.67c-0.04,0.03-0.09,0.06-0.14,0.1
		c-0.08,0.05-0.16,0.11-0.24,0.17c-0.06,0.05-0.12,0.09-0.2,0.14c-0.3,0.21-0.81,0.56-0.7,1.27c0.12,0.77,0.78,1,1.26,1.17
		c2.35,0.83,4.91,1.54,7.69,1.08c0.86-0.14,1.75-0.16,2.48-0.14c-2.57,2.62-3.38,6.07-3.94,9.12c-0.05,0.28-0.11,0.57-0.18,0.87
		c-0.2,0.94-0.41,1.91-0.33,2.93c0.06,0.77,0.29,1.25,0.7,1.47c0.55,0.3,1.21,0.01,1.65-0.23c1.58-0.86,3.05-1.91,4.47-2.92
		c1.26-0.89,2.56-1.82,3.91-2.6l0.38-0.22c0.58-0.34,1.17-0.69,1.85-0.93C187.83,130.69,187.78,131.06,187.73,131.44z
		 M191.53,137.83c-0.34,0.95-0.67,1.97-0.72,3.11c-0.9-0.32-1.79-0.43-2.67-0.43c-0.07,0-0.14,0-0.22,0
		c0.07-0.06,0.13-0.12,0.17-0.16c1.24-1.25,2.53-2.55,3.94-3.65C191.85,137.08,191.67,137.44,191.53,137.83z M188.51,137.15
		c0.03-0.1,0.07-0.2,0.1-0.3c0.08-0.25,0.16-0.49,0.23-0.74c0.34-1.18,0.5-2.39,0.65-3.57c0.07-0.51,0.14-1.04,0.22-1.55
		c0.48-3.03,1.79-5.88,4.01-8.72c0.99-1.27,2.41-1.53,3.97-1.53c0.33,0,0.67,0.01,1.02,0.03c0.32,0.01,0.63,0.06,0.96,0.13
		c0.7,0.15,1.37,0.43,2,0.74c-2.52,0.94-4.3,2.75-5.6,4.26l-0.1,0.11c-0.13,0.14-0.3,0.32-0.38,0.55c-0.12,0.33-0.02,0.66,0.26,0.92
		c0.68,0.64,1.32-0.01,1.6-0.29c0.29-0.3,0.58-0.6,0.87-0.9l0.07-0.07c0.26-0.27,0.52-0.54,0.78-0.81c1.23-1.25,2.76-2.04,4.57-2.37
		c0.38-0.07,0.69-0.2,0.94-0.39c-0.01,0.02-0.02,0.04-0.03,0.06c-0.28,0.56-0.26,1.13,0.07,1.68c0.52,0.88,0.4,1.7-0.4,2.66
		c-1.61,1.95-3.63,3.36-5.98,4.18C194.49,132.57,191.26,134.52,188.51,137.15z M195.31,151.62c-0.36,0.2-0.71,0.41-1.07,0.61
		c0.01-0.1,0.01-0.21,0.01-0.31c-0.08-2.69-0.68-5.31-1.26-7.86c-0.61-2.66-0.2-5.15,1.22-7.41c1.02-1.62,2.55-2.79,4.68-3.58
		c2.62-0.97,4.67-2.31,6.33-4.16c0.97-1.09,1.21-1.35,1.68-2.89c0.73,0.4,1.54,0.7,2.6,0.94c-0.79,0.53-1.37,1.14-1.79,1.86
		c-1.51,2.61-1.71,4.71-0.62,6.82c0.4,0.77,0.36,1.42-0.11,2.12c-1.07,1.57-1.95,3.26-2.81,4.9l-0.05,0.1
		c-0.36,0.68-0.72,1.38-1.1,2.06c-1.11,2.02-2.67,3.69-4.64,4.98C197.39,150.43,196.35,151.03,195.31,151.62z M221.14,152.54
		c-1.44,0.08-2.61,0.85-3.6,1.56c-2.31,1.67-4.94,2.85-7.51,4c-1.03,0.46-2.1,0.94-3.14,1.45c-2.43,1.19-4.44,2.64-6.14,4.42
		c-1.09,1.15-2.12,1.89-3.56,1.79c-0.11-0.01-0.17-0.02-0.21-0.03c0-0.04,0-0.1,0.02-0.19c0.76-4.06,1.08-8.19,1.28-11.32
		c0.01-0.1,0.02-0.19,0.03-0.31l0.02-0.2c0.14-1.32,0.57-2.07,1.55-2.69c2.91-1.84,4.58-4.66,5.84-7.18
		c0.61-1.22,1.28-2.53,2.13-3.92c0.03,0.4,0.07,0.77,0.11,1.14c0.13,1.03,0.5,1.92,1.07,2.59c1.87,2.17,3.07,4.8,4.24,7.34
		l0.06,0.14c0.03,0.06,0.05,0.12,0.07,0.18c0.14,0.35,0.41,1.03,1.22,0.96c0.93-0.06,1.11-0.88,1.21-1.38
		c0.36-1.64,0.87-3.28,1.37-4.86c0.33-1.03,0.66-2.1,0.95-3.17l0.03,0.07c1.41,2.96,2.86,6.02,3.05,9.49c0,0.04,0,0.08,0.01,0.12
		C221.21,152.53,221.18,152.54,221.14,152.54z M224.02,147.2c-0.05,1.11-0.46,2.89-0.97,4.32c-0.17-1.28-0.43-2.76-0.89-4.23
		c-0.43-1.39-0.94-2.56-1.55-3.59c-0.49-0.82-0.78-1.75-1.07-2.66l-0.03-0.08c-0.1-0.3-0.19-0.6-0.29-0.9L219.2,140
		c-0.01-0.02-0.02-0.07-0.03-0.1c0.56-0.81,0.76-1.72,0.96-2.59c0.09-0.39,0.19-0.83,0.32-1.24l0.1-0.33
		c0.13-0.43,0.28-0.91,0.52-1.04c0.11,0.16,0.27,0.58,0.33,0.76c0.06,0.16,0.11,0.31,0.17,0.43
		C223.39,140.05,224.17,143.64,224.02,147.2z M225.24,150.89c1.08-3.52,0.75-6.87,0.14-9.81c0.73,0.77,1.49,1.5,2.22,2.22
		c1.56,1.52,3.16,3.09,4.53,4.89C229.59,148.73,227.33,149.79,225.24,150.89z M236.8,151.53c-0.07-0.09-0.13-0.19-0.19-0.28
		c-2.33-3.68-5.2-7.12-8.53-10.2c-2.43-2.25-4.07-5.14-5.54-7.91c-0.06-0.11-0.06-0.15-0.06-0.15c0,0,0-0.01,0.02-0.03
		c0.4-0.55,0.63-1.15,0.78-1.74c1.28,1.72,2.9,2.87,4.49,3.99c0.51,0.36,1.03,0.73,1.53,1.11c1.59,1.22,3.08,2.6,4.54,4.22
		c2.4,2.66,2.89,5.96,3.05,8.83C236.93,150.16,236.9,150.86,236.8,151.53z M238.57,146.88c0-0.02,0-0.04-0.01-0.06v0
		c-0.52-3.16-1.46-5.39-3.05-7.23c-0.66-0.76-1.32-1.47-2-2.13c3.56,1.95,6.14,4.98,8.81,8.42
		C241.05,146.15,239.8,146.44,238.57,146.88z M239.2,139.38c-2.25-2.26-5.02-3.95-8.7-5.34c-2.17-0.81-4.84-2.11-6.3-4.92v0
		c-0.05-0.1-0.11-0.18-0.18-0.27c2.77-0.94,5,0.55,7,2.32c2.06,1.82,4.01,3.11,6.12,4.03c2.27,0.99,3.8,2.19,4.83,3.77
		c1.06,1.64,1.38,3.51,1.53,5.36C242.22,142.49,240.68,140.87,239.2,139.38z M247.84,145.11c-0.79,0.1-1.55,0.19-2.36,0.29
		c0-0.04-0.01-0.08-0.01-0.1c-0.08-0.86-0.16-1.73-0.24-2.59l-0.01-0.11c1.01,0.67,1.87,1.56,2.74,2.5L247.84,145.11z M244.6,139.67
		c-0.14-0.11-0.22-0.21-0.25-0.28c-1.37-3.31-4.21-4.94-6.8-6.11c-1.71-0.77-3.49-1.69-4.89-3.23c-0.84-0.92-1.88-1.52-3.02-2.07
		c0.27-0.06,0.45-0.15,0.58-0.33c0.2-0.29,0.13-0.6,0.02-1.13l-0.03-0.15c-0.1-0.46-0.12-0.96-0.14-1.44
		c-0.01-0.19-0.01-0.37-0.02-0.57l0.6-0.03c0.77-0.04,1.57-0.08,2.35-0.1c0.06,0,0.12-0.01,0.19-0.02
		c-0.01,0.08-0.04,0.16-0.12,0.21l-0.14,0.1c-0.17,0.12-0.34,0.24-0.5,0.3c-0.29,0.1-0.69,0.27-0.84,0.67
		c-0.17,0.45,0.1,0.91,0.29,1.24c2.02,3.44,5.03,6.01,9.76,8.31c0.17,0.08,0.34,0.18,0.51,0.27c0.33,0.18,0.67,0.36,1.04,0.5
		c1.57,0.56,2.61,1.75,3.42,2.84c1.15,1.55,2.39,3.38,3.11,5.5C248.29,142.63,246.6,141.16,244.6,139.67z"/>
	<path fill="#010101" d="M31.49,215.02c-2.83,8.45-0.9,6.39-9.15,9.75c8.45,2.83,6.39,0.9,9.75,9.16c2.83-8.45,0.9-6.39,9.16-9.75
		C32.79,221.34,34.85,223.27,31.49,215.02z"/>
	<path fill="#010101" d="M26.99,208.37c1.5-4.46,0.47-3.37,4.83-5.14c-4.46-1.5-3.37-0.47-5.14-4.83c-1.5,4.46-0.47,3.37-4.83,5.14
		C26.31,205.03,25.22,204.01,26.99,208.37z"/>
	<path fill="#010101" d="M241.02,200.3c2.83-8.45,0.9-6.39,9.16-9.75c-8.45-2.83-6.39-0.9-9.75-9.15c-2.83,8.45-0.9,6.39-9.15,9.75
		C239.72,193.98,237.66,192.04,241.02,200.3z"/>
	<path fill="#010101" d="M173.51,151.51c-4.46-1.5-3.37-0.47-5.14-4.83c-1.5,4.46-0.47,3.37-4.83,5.14c4.46,1.5,3.37,0.47,5.14,4.83
		C170.17,152.19,169.15,153.28,173.51,151.51z"/>
	<path fill="#010101" d="M168.22,71.31c1.5-4.46,0.47-3.37,4.83-5.14c-4.46-1.5-3.37-0.47-5.14-4.83c-1.5,4.46-0.47,3.37-4.83,5.14
		C167.54,67.97,166.45,66.95,168.22,71.31z"/>
	<path fill="#010101" d="M145.66,87.12c2.83-8.45,0.9-6.39,9.16-9.75c-8.45-2.83-6.39-0.9-9.75-9.15c-2.83,8.45-0.9,6.39-9.15,9.75
		C144.37,80.8,142.31,78.86,145.66,87.12z"/>
</g>
</svg>
