<?xml version="1.0" encoding="utf-8"?>
<!-- Generator: Adobe Illustrator 28.0.0, SVG Export Plug-In . SVG Version: 6.00 Build 0)  -->
<svg version="1.1" id="Layer_1" xmlns="http://www.w3.org/2000/svg" xmlns:xlink="http://www.w3.org/1999/xlink" x="0px" y="0px"
	 viewBox="0 0 300 300" style="enable-background:new 0 0 300 300;" xml:space="preserve">
<style type="text/css">
	.st0{fill:#B0BFB0;}
	.st1{fill:#638066;}
</style>
<g>
	<g>
		<path d="M260.08,210.57c-1.31-8.75-4.51-16.69-9.84-23.81c-1.79-2.39-3.24-5.08-4.49-7.81c-2.17-4.75-4.56-9.37-8.13-13.18
			c-6.34-6.75-14.32-9.88-23.54-9.84c-3.74,0.02-7.41,0.7-10.75,2.38c-6.05,3.04-8.12,8.57-8.7,14.88c-0.2,2.13-0.25,4.27-0.36,6.4
			c-1.47-0.95-2.9-1.84-4.28-2.79c-5.64-3.92-11.88-5.14-18.58-4.05c-5.44,0.89-9.01,4.29-11.56,8.98c-0.57,1.06-1.18,2.1-1.73,3.17
			c-1.2,2.35-2.64,4.63-3.52,7.1c-1.9,5.33-2.08,10.95-2.21,16.54c-0.07,3.18,0.67,6.26,2.17,9.05c0.66,1.23,1.75,2.28,2.83,3.2
			c1.03,0.88,1.99,0.45,2.33-0.86c0.84-3.3,1.91-6.52,4.04-9.2c1.64-2.06,3.59-3.87,5.41-5.78c0.14-0.15,0.42-0.17,0.64-0.25
			c0.1,0.06,0.2,0.12,0.3,0.18c-0.17,0.51-0.31,1.03-0.52,1.52c-1.42,3.45-2.86,6.89-4.28,10.34c-2.03,4.89-2.81,9.96-2.07,15.22
			c0.55,3.9,1.69,7.5,4.81,10.24c1.47,1.29,2.79,2.78,4.04,4.28c1.26,1.5,2.3,3.19,3.56,4.69c0.35,0.42,1.23,0.76,1.72,0.62
			c0.85-0.24,0.6-1.09,0.39-1.75c-1.8-5.61-1.29-11.24,0.27-16.75c1.61-5.67,3.48-11.28,5.46-16.83c0.63-1.77,1.84-3.39,3.02-4.88
			c1.2-1.51,3.37-1,3.89,0.84c0.18,0.64,0.14,1.52-0.17,2.09c-0.98,1.88-2.05,3.72-3.24,5.47c-3.78,5.54-6.87,11.36-7.46,18.19
			c-0.4,4.63-0.07,9.17,1.83,13.48c0.86,1.94,2.1,3.62,3.94,4.76c1.61,0.99,3.21,2,4.87,2.89c1.87,1.01,3.78,1.96,5.73,2.78
			c0.56,0.23,1.51,0.16,1.95-0.19c0.3-0.24,0.18-1.24,0-1.83c-0.78-2.61-1.87-5.15-2.45-7.8c-1.17-5.4-1.04-10.86-0.01-16.29
			c0.96-5.06,2.36-9.87,6.93-13.02c1.33-0.92,1.87-0.78,2.22,0.82c0.08,0.39,0.18,0.82,0.09,1.19c-0.4,1.63-0.7,3.31-1.35,4.84
			c-2.48,5.88-5.13,11.64-5.47,18.24c-0.36,6.85,1.82,12.31,7.4,16.3c1.49,1.06,3.16,1.94,4.86,2.61c3.1,1.23,6.27,2.28,9.44,3.32
			c0.5,0.16,1.16-0.17,1.74-0.27c-0.15-0.57-0.21-1.17-0.46-1.69c-0.2-0.42-0.68-0.69-0.94-1.09c-3.23-4.92-5.17-10.34-5.87-16.17
			c-0.47-3.95,0.24-7.86,0.78-11.76c0.3-2.2,1.36-4.02,2.83-5.62c0.28-0.3,0.7-0.47,1.06-0.7c0.23,0.36,0.52,0.69,0.66,1.08
			c0.13,0.37,0.16,0.79,0.14,1.19c-0.09,1.52-0.15,3.06-0.36,4.56c-0.8,5.63-1.2,11.27-0.34,16.93c0.65,4.27,2.04,8.26,4.6,11.79
			c1.43,1.97,3.42,2.99,5.81,2.86c1.7-0.1,3.38-0.66,5.08-0.89c1.04-0.14,2.19-0.28,3.16,0.01c1.17,0.34,2.3,0.63,3.4,0.14
			c2.15-0.96,4.21-1.17,6.24,0.26c0.12,0.09,0.31,0.09,0.47,0.11c1.21,0.18,1.9-0.42,1.99-1.64c0.14-1.84,0.36-3.67,0.47-5.51
			c0.24-4.3,1.4-8.3,3.73-11.94c0.3-0.47,0.48-1.02,0.71-1.53c1.18-2.59,1.85-5.31,1.97-8.15c0.14-3.46-2.05-5.78-4.02-8.23
			c-2.28-2.83-5.09-5.03-8.11-6.95c-2.74-1.74-5.69-3.13-8.48-4.79c-1.64-0.98-3.19-2.12-4.67-3.33c-0.38-0.3-0.64-1.28-0.43-1.65
			c0.37-0.66,1.08-1.21,1.77-1.57c0.38-0.2,1.05-0.04,1.52,0.14c2.17,0.84,4.3,1.77,6.46,2.62c3.47,1.38,6.18,3.73,8.48,6.58
			c2.09,2.6,4.04,5.3,6.09,7.94c0.54,0.69,1.12,1.39,1.8,1.92c0.87,0.68,1.79,0.21,1.85-0.9c0.26-4.77,0.45-9.55,0.74-14.32
			c0.15-2.41-0.83-4.19-2.69-5.59c-0.35-0.27-0.68-0.57-1.03-0.83c-3.58-2.7-6.7-5.98-10.92-7.86c-3.19-1.42-6.3-2.74-9.89-2.66
			c-3.8,0.09-7.51-0.67-11.13-1.85c-1.52-0.5-2.61-1.37-3.2-2.86c-0.66-1.66-0.09-2.86,1.62-3.34c1.81-0.51,3.58-0.3,5.34,0.25
			c4.62,1.43,9.1,3.15,13.31,5.56c2.51,1.44,5.14,2.66,7.69,4.03c2.78,1.5,5.28,3.37,7.27,5.86c0.83,1.04,1.63,2.1,2.56,3.04
			c0.32,0.33,1.03,0.53,1.47,0.42c0.29-0.07,0.56-0.8,0.58-1.25C260.38,211.92,260.18,211.25,260.08,210.57z M190.04,198.75
			c-0.56,2.7-2.09,4.61-4.43,5.99c-1.47,0.87-2.88,1.85-4.31,2.77c-0.14-0.1-0.27-0.21-0.41-0.31c0.23-3.38,0.45-6.79,2.82-9.54
			c1.63-1.89,3.87-1.98,5.82-0.46C190.08,197.63,190.18,198.05,190.04,198.75z M189.98,187.98c-1.04,0.36-2.17,0.54-3.27,0.66
			c-3.15,0.33-6.31,0.58-9.81,0.89c-1.48,0.02-2.8-0.85-3.74-2.34c-0.8-1.27-0.45-2.53,0.96-3.05c3.73-1.36,7.57-2.16,11.56-1.77
			c2.3,0.23,3.84,1.73,5,3.6C191.31,187.01,191.13,187.58,189.98,187.98z M212.58,191.91c-1.13-0.63-2.22-1.34-3.33-2.01
			c0.04-0.2,0.08-0.41,0.13-0.61c2.14-0.71,4.16-1.91,6.61-1.29c0.92,0.23,1.22,0.8,1,1.72
			C216.47,191.83,214.83,193.17,212.58,191.91z M221.41,206.97c0.2,0,0.4-0.01,0.6,0c3.11,0.19,4.07,1.36,3.53,4.41
			c-0.17,0.98-0.47,1.94-0.79,2.88c-0.28,0.82-0.91,1.04-1.74,0.78c-1.6-0.5-2.76-1.57-3.82-2.81c-0.56-0.66-1.21-1.25-1.88-1.79
			c-0.89-0.71-0.89-2.14,0.16-2.57C218.72,207.38,221.39,206.89,221.41,206.97z"/>
		<path class="st0" d="M237.83,254.94c-3.27-5.26-6.75-10.38-10.18-15.53c-2.81-4.22-5.63-8.42-8.53-12.57
			c-1.73-2.47-3.68-4.78-5.41-7.25c-6.42-9.19-11.3-19.16-14.88-29.78c-0.89-2.65-2.16-5.13-4.41-6.93
			c-1.84-1.48-3.68-2.97-5.6-4.33c-5.03-3.57-10.64-4.75-16.7-3.85c-4.91,0.73-8.14,3.73-10.43,7.94c-0.58,1.06-1.04,2.19-1.73,3.17
			c-1.98,2.8-3.54,5.83-4.08,9.19c-0.71,4.43-1.18,8.92-1.46,13.4c-0.18,2.87,0.67,5.66,1.93,8.26c0.33,0.69,0.88,1.27,1.47,2.09
			c0.64-1.81,1.07-3.37,1.73-4.83c0.66-1.45,1.57-2.8,2.36-4.19c1.53-2.68,4.06-4.41,6.18-6.54c0.21-0.22,0.55-0.33,0.85-0.43
			c1.7-0.61,3.38,0.66,3.15,2.45c-0.1,0.78-0.42,1.54-0.72,2.28c-1.51,3.72-3.09,7.41-4.56,11.14c-1.64,4.15-2.22,8.47-1.57,12.9
			c0.41,2.8,0.95,5.62,2.91,7.8c2.17,2.43,4.52,4.7,6.65,6.9c0,0.02,0.03-0.3-0.01-0.6c-0.45-3.48-0.05-6.92,0.66-10.3
			c1.47-7.02,3.82-13.78,6.44-20.44c0.7-1.78,1.99-3.41,3.28-4.87c1.84-2.08,4.65-1.83,6.42,0.29c1.33,1.59,1.38,3.4,0.54,5.1
			c-1.05,2.11-2.34,4.11-3.65,6.07c-3.7,5.51-6.67,11.29-6.99,18.09c-0.18,3.85,0.07,7.69,1.83,11.18c0.73,1.45,1.85,2.87,3.14,3.84
			c2.04,1.54,4.37,2.7,6.6,3.99c0.74,0.43,1.52,0.76,2.62,1.31c-2.29-5.24-3.05-10.37-3.02-15.65c0.04-6.09,0.91-12,3.59-17.56
			c1.32-2.74,3.6-4.5,6.03-6.06c1.44-0.93,3.08-0.41,3.71,1.19c0.48,1.22,0.68,2.65,0.61,3.96c-0.17,3.34-1.93,6.19-3.26,9.14
			c-2.19,4.84-3.5,9.83-3.51,15.15c-0.01,3.28,0.9,6.25,2.81,8.93c3.58,5.02,9.15,6.47,14.54,8.22c-0.99-2.24-2.07-4.4-2.91-6.64
			c-1.78-4.74-2.96-9.6-2.31-14.75c0.23-1.83,0.38-3.68,0.56-5.51c0.32-3.28,1.57-6.14,3.93-8.46c1.76-1.74,3.92-1.22,4.7,1.12
			c0.19,0.56,0.31,1.18,0.28,1.77c-0.07,1.89-0.09,3.79-0.36,5.65c-0.65,4.59-1.04,9.18-0.59,13.82c0.44,4.64,1.68,9,4.36,12.87
			c0.89,1.29,2.08,2.28,3.68,2.18c1.82-0.11,3.61-0.62,5.43-0.82c1.29-0.14,2.68-0.32,3.89,0.01c1.22,0.33,2.24,0.29,3.38-0.08
			c1.2-0.39,2.43-0.65,3.7-0.98C242.65,263.35,240.39,259.06,237.83,254.94z M192.08,199.16c-0.75,3.48-2.81,5.86-5.79,7.59
			c-1.38,0.81-2.69,1.78-4.13,2.43c-2,0.9-2.9,0.26-3.07-1.95c-0.01-0.16-0.04-0.32-0.09-0.78c0.31-2.9,0.59-6.12,2.32-8.94
			c2.33-3.78,6.71-4.45,9.88-1.59C192.21,196.83,192.37,197.81,192.08,199.16z M189.97,190.25c-1.86,0.3-3.74,0.52-5.61,0.69
			c-2.48,0.23-4.95,0.46-7.44,0.54c-2.7,0.09-4.57-1.39-5.76-3.67c-1.18-2.26-0.15-4.73,2.35-5.66c3.22-1.21,6.57-1.78,10.92-1.89
			c2.58-0.27,5.29,1.09,7.32,3.86c0.44,0.6,0.81,1.32,0.98,2.03C193.24,188.36,192.21,189.89,189.97,190.25z"/>
		<path class="st1" d="M254.18,214.64c-3.92-2.93-7.47-6.32-12.11-8.23c-2.39-0.98-4.75-1.68-7.33-1.64
			c-4.19,0.06-8.23-0.78-12.18-2.12c-2.16-0.74-3.47-2.27-4.14-4.38c-0.8-2.57,0.31-4.9,2.92-5.42c1.88-0.38,4.01-0.55,5.81-0.04
			c3.77,1.07,7.42,2.58,11.06,4.07c2.07,0.85,4.02,2.03,6,3.09c4.76,2.56,9.83,4.7,13.45,9.17c-0.02-0.31-0.01-0.63-0.07-0.94
			c-1.43-7.25-4.36-13.82-8.7-19.82c-1.83-2.52-3.29-5.31-4.81-8.04c-1.73-3.08-3.2-6.31-5.03-9.32
			c-5.92-9.74-18.62-14.7-29.37-12.59c-4.84,0.95-8.98,2.85-11.15,7.64c-2.22,4.91-2.58,10.07-1.92,15.34
			c0.05,0.37,0.31,0.72,0.5,1.07c1.27,2.31,2.89,4.5,3.75,6.95c4.15,11.81,9.72,22.84,17.39,32.77c2.06,2.67,4.16,5.33,6.04,8.14
			c3.68,5.52,7.1,11.21,10.83,16.69c3.47,5.09,6.71,10.3,9.57,15.76c0.77,1.47,1.69,2.87,2.71,4.59c0.23-1.56,0.49-2.76,0.58-3.98
			c0.29-3.85,1.16-7.51,3.02-10.95c1.05-1.93,2.02-3.96,2.66-6.05c0.7-2.29,1.3-4.76,0.03-7.04c-0.83-1.49-2-2.8-3.04-4.18
			c-2.02-2.68-4.71-4.62-7.47-6.39c-2.59-1.67-5.3-3.18-8.07-4.54c-2.13-1.04-4.08-2.26-5.64-4.04c-1.39-1.59-1.35-3.38-0.04-5.03
			c1.24-1.56,2.87-1.94,4.66-1.44c4.44,1.23,8.66,3.04,12.3,5.91c3.38,2.66,6,6.04,8.46,9.53c0.57,0.81,1.14,1.62,1.91,2.7
			c0.08-0.76,0.15-1.19,0.17-1.61c0.12-2.85-0.01-5.73,0.39-8.54C257.72,218.59,256.69,216.51,254.18,214.64z M212.21,193.96
			c-1.5-0.67-2.9-1.67-4.2-2.71c-1.28-1.03-1.07-3.08,0.43-3.69c1.88-0.77,3.95-1.68,6.06-1.7c0.06,0,0.13,0,0.19,0
			c1.78,0.03,4.24,0.78,4.31,2.93C219.13,192.51,216.01,195.66,212.21,193.96z M226.28,215.68c-0.56,1.33-1.79,1.73-3.23,1.46
			c-2.36-0.44-4.03-1.88-5.48-3.67c-0.43-0.53-0.82-1.13-1.36-1.52c-1-0.72-1.24-1.7-1.34-2.82c-0.13-1.43,0.49-2.39,1.74-3.01
			c2.53-1.24,5.17-1.46,7.86-0.72c2.27,0.23,3.76,2.7,3.59,4.84C227.47,212.07,227.01,213.93,226.28,215.68z"/>
	</g>
	<g>
		<path d="M104.44,42.8c3.93,0.18,7.75-0.43,11.55-1.45c4.84-1.3,9.72-2.5,14.61-3.59c3.57-0.79,4.63,0.38,4.1,4.03
			c-0.47,3.27-0.6,6.42,0.77,9.68c1.67,3.98,2.8,8.2,3.93,12.38c0.5,1.83,0.47,3.82,0.61,5.74c0.79,10.67-0.49,21.07-3.92,31.24
			c-1.9,5.63-3.51,11.36-5.21,17.06c-2.17,7.28-6.09,13.52-11.19,19.07c-1.57,1.71-3.2,3.38-4.86,5.01
			c-3.63,3.56-8.01,6.08-12.47,8.39c-6.89,3.56-13.92,3.31-20.69-0.35c-4.74-2.57-6.52-7.14-7.54-12.18
			c-1.35-6.66,0.63-12.54,3.82-18.21c1.5-2.66,3-5.32,4.4-8.04c0.58-1.13,1.01-2.37,1.29-3.61c0.14-0.61-0.06-1.47-0.45-1.95
			c-0.19-0.23-1.24-0.01-1.74,0.28c-1.78,1.02-3.14,2.55-3.97,4.39c-1.07,2.37-1.94,4.83-2.81,7.29c-0.97,2.74-2.02,5.4-4.14,7.52
			c-0.63,0.63-1.06,1.51-1.45,2.33c-1.05,2.17-2.42,4.08-4.21,5.68c-0.47,0.43-1,0.9-1.58,1.07c-3.35,0.96-6.68,2.28-10.1,2.63
			c-4.08,0.43-7.58-1.59-10.34-4.57c-2.21-2.39-4.1-5.05-5.4-8.09c-1.12-2.62-2.39-5.18-3.49-7.8c-2.36-5.65-2.09-11.37-0.79-17.27
			c2.25-10.23,6.63-19.45,12.58-27.96c4.09-5.86,9.27-10.67,14.96-14.95c3.24-2.44,6.51-4.85,9.82-7.21
			c4.35-3.1,9.21-4.85,14.56-5.25c5.77-0.43,11.54-0.88,17.31-1.3C103.07,42.76,103.76,42.8,104.44,42.8z"/>
		<g>
			<path class="st1" d="M86.25,105.4c1.17,1.05,2.15,1.93,3.12,2.81c1.87,1.69,3.81,3.33,5.6,5.1c2.27,2.25,4.01,5.01,7,6.55
				c3.16,1.63,6.39,3.08,9.86,3.83c2.42,0.52,4.92,0.98,7.38,0.98c2.13,0,4.26-0.74,6.4-1.07c0.74-0.12,1.15-0.44,1.38-1.11
				c1.06-3.08,2.13-6.15,3.18-9.22c0.44-1.28,0.83-2.58,1.33-4.12c-1.76,0.3-3.29,0.55-4.82,0.83c-2.45,0.46-4.89,1.23-7.39,0.74
				c-5.16-1.01-10.31-2.08-15.45-3.22c-3.56-0.79-7.06-1.88-10.63-2.55C91.02,104.52,88.73,104.54,86.25,105.4z"/>
			<path class="st1" d="M65.83,55.42c-4.2,3-8.13,6.09-11.81,9.52c-2.08,1.94-2.97,3.96-2.54,6.77c0.44,2.86,0.42,5.83,1.76,8.44
				c3.01,5.84,7.18,10.73,13.01,13.86c5.08,2.73,10.39,5.04,15.46,7.47c-0.06-0.08-0.24-0.34-0.43-0.59c-1.75-2.2-3.63-4.3-5.23-6.6
				c-2.91-4.18-5.84-8.37-8.44-12.75c-3.27-5.5-4.15-11.62-3.43-17.91C64.49,60.93,65.24,58.29,65.83,55.42z"/>
			<path class="st1" d="M91.94,97.92c3.74-0.18,7.21-0.19,10.63-0.55c4.46-0.47,8.9-0.53,13.35-0.01
				c6.35,0.75,12.58,0.57,18.56-2.06c0.86-0.38,1.51-0.77,1.65-1.82c0.14-1.11,0.5-2.19,0.68-3.3c0.46-2.88,0.88-5.76,1.35-8.82
				c-0.67,0.15-1.06,0.24-1.44,0.32c-2.23,0.46-4.45,1.11-6.71,1.34c-4.04,0.43-8.1,0.63-11.98,1.92
				c-4.99,1.67-9.98,3.33-14.93,5.12C98.77,91.62,95.31,94.48,91.94,97.92z"/>
			<path class="st1" d="M134.82,56.07c-0.76,0.32-1.45,0.55-2.07,0.89c-3.59,1.95-7.47,2.85-11.48,3.43
				c-3.81,0.56-7.69,0.85-11.26,2.46c-0.8,0.36-1.63,0.94-2.1,1.66c-3,4.57-5.91,9.19-8.83,13.81c-0.44,0.69-0.78,1.45-1.31,2.44
				c14.12-2.94,27-8.5,39.94-14.25C137.57,63.02,136.36,59.59,134.82,56.07z"/>
			<path class="st1" d="M95.36,45.2c-3.84,0.37-7.35,0.68-10.85,1.08c-0.3,0.03-0.71,0.61-0.79,0.99
				c-1.45,6.74-2.15,13.55-0.41,20.31c1.5,5.86,2.25,11.94,4.87,17.5c0.24,0.5,0.33,1.07,0.46,1.62c0.57,2.42,1.13,4.84,1.72,7.41
				c0.22-0.53,0.41-0.93,0.56-1.34c1.17-3.21,2.2-6.47,3.54-9.61c0.79-1.86,0.92-3.6,0.35-5.48c-1.72-5.72-1.89-11.53-1.12-17.43
				C94.32,55.36,94.78,50.45,95.36,45.2z"/>
			<path class="st1" d="M116.64,137.42c-2.21,0-4.17,0.16-6.1-0.03c-3.87-0.39-7.07-2.54-10.37-4.34
				c-5.45-2.98-8.91-7.59-10.83-13.45c-0.72-2.21-1.65-4.36-2.49-6.54c-0.13,0.04-0.26,0.08-0.39,0.12c0,0.3,0,0.61,0,0.91
				c0.02,3.94,0.05,7.87,0.04,11.81c0,1.12-0.24,2.26-0.13,3.37c0.27,2.82,0.97,5.58,2.6,7.93c1.74,2.5,3.65,4.88,5.52,7.29
				c1.68,2.18,4.04,3.24,6.63,3.86c0.28,0.07,0.64-0.01,0.9-0.14c4.89-2.58,9.44-5.65,13.45-9.48
				C115.83,138.38,116.15,137.97,116.64,137.42z"/>
			<path class="st1" d="M38.48,89.02c-0.22,0.61-0.38,0.98-0.49,1.36c-1.07,3.83-2.19,7.64-3.17,11.49c-0.92,3.6-0.49,4.3,3.04,5.61
				c0.38,0.14,0.75,0.28,1.14,0.38c2.6,0.7,5.17,1.51,7.8,2.04c1.67,0.33,3.46,0.48,5.14,0.28c6.99-0.85,13.81-2.51,20.53-4.6
				c0.26-0.08,0.5-0.22,0.75-0.33c-2.27-0.32-4.49-0.28-6.67-0.56c-6.85-0.88-13.26-3.2-19.33-6.41c-3.62-1.92-6.7-4.44-8.27-8.42
				C38.86,89.62,38.71,89.43,38.48,89.02z"/>
			<path class="st1" d="M39.48,123.82c0.95,2.72,2.74,4.79,4.41,6.93c0.11,0.14,0.32,0.28,0.5,0.29c2.03,0.13,4.12,0.57,6.09,0.26
				c2.09-0.34,4.14-1.24,6.08-2.18c4.37-2.13,8.26-4.93,11.36-8.74c2-2.46,4.14-4.81,6.05-7.33c0.88-1.16,1.34-2.63,2-3.96
				c-0.11-0.1-0.21-0.2-0.32-0.3c-2.87,1.98-5.81,3.86-8.6,5.95c-5.44,4.09-11.32,7.32-17.78,9.47c-1.75,0.58-3.52,0.8-5.34,0.45
				C42.47,124.37,41.02,124.11,39.48,123.82z"/>
			<path class="st1" d="M84.84,149.27c-1.54-3.02-2.98-5.76-4.34-8.53c-0.99-2.01-1.57-4.14-1.29-6.41c0.26-2.07,0.49-4.15,0.9-6.19
				c0.86-4.24,1.83-8.45,2.75-12.68c-2.43,4.36-5.36,8.43-6.53,13.38c-1.21,5.09-0.43,9.88,1.78,14.51
				C79.45,146.16,81.67,148.03,84.84,149.27z"/>
			<path class="st1" d="M130.15,40.22c-0.03-0.09-0.06-0.19-0.09-0.28c-0.23,0.04-0.46,0.06-0.69,0.12
				c-5.29,1.34-10.59,2.67-15.87,4.06c-0.36,0.09-0.77,0.57-0.88,0.95c-0.48,1.62-0.96,3.24-1.27,4.9c-0.47,2.49-0.79,5-1.18,7.51
				c0.14,0.04,0.27,0.08,0.41,0.12c0.27-0.28,0.54-0.56,0.81-0.85c3.29-3.47,6.55-6.97,9.89-10.4
				C123.82,43.74,126.69,41.55,130.15,40.22z"/>
		</g>
		<g>
			<path class="st0" d="M81.85,46.63c-0.39,0.08-0.65,0.13-0.91,0.19c-4.52,1.07-8.39,3.39-12,6.21c-0.23,0.18-0.44,0.49-0.52,0.77
				c-1.34,4.88-2.79,9.75-2.4,14.92c0.31,4.1,1.21,8.06,3.27,11.62c1.81,3.13,3.83,6.13,5.85,9.13c1.19,1.76,2.53,3.42,3.83,5.11
				c1.99,2.6,3.99,5.19,5.94,7.74c3.04-3.38,3.85-4.28,2.97-9.48c-0.57-3.38-1.78-6.65-2.73-9.97c-0.56-1.96-1.24-3.9-1.76-5.87
				c-0.59-2.25-1.13-4.52-1.55-6.81c-0.54-2.99-1.11-6-1.37-9.02C80.03,56.33,80.9,51.56,81.85,46.63z"/>
			<path class="st0" d="M49.5,70.41c-0.1-0.06-0.2-0.13-0.3-0.19c-0.12,0.2-0.25,0.4-0.37,0.6c-2.98,4.9-5.98,9.79-8.91,14.73
				c-0.26,0.43-0.21,1.22-0.01,1.71c1.04,2.53,2.19,4.97,4.46,6.74c3.22,2.5,6.88,4.1,10.65,5.51c4.95,1.86,9.96,3.28,15.33,3.35
				c2.91,0.04,5.82,0.59,8.73,0.94c0.6,0.07,1.18,0.29,1.77,0.43c0.07-0.13,0.13-0.26,0.2-0.39c-1.25-0.81-2.44-1.77-3.78-2.41
				c-2.36-1.12-4.82-1.99-7.21-3.04c-6.29-2.79-11.63-6.81-15.68-12.43c-2.08-2.89-3.84-5.95-4.27-9.58
				C49.87,74.4,49.7,72.4,49.5,70.41z"/>
			<path class="st0" d="M138.06,68.84c-0.98,0.31-1.62,0.43-2.19,0.69c-3.43,1.56-6.84,3.17-10.27,4.74
				c-0.84,0.38-1.71,0.7-2.58,0.99c-1.33,0.44-2.72,0.75-4.02,1.25c-6.8,2.63-13.72,4.8-20.91,6.07c-0.97,0.17-1.57,0.64-1.91,1.58
				c-1.12,3.18-2.3,6.34-3.45,9.51c-0.1,0.27-0.17,0.54-0.25,0.82c2.87-2.67,6.01-4.83,9.6-6.23c3.74-1.46,7.52-2.84,11.35-4.04
				c3.25-1.01,6.57-1.83,9.91-2.51c2.11-0.43,4.33-0.33,6.46-0.68c2.8-0.46,5.56-1.12,8.25-1.68
				C138.06,75.87,138.06,72.52,138.06,68.84z"/>
			<path class="st0" d="M97.16,45.1c-0.18,1.71-0.37,3.25-0.49,4.81c-0.17,2.28-0.12,4.59-0.47,6.85c-0.74,4.75-1.21,9.5-0.71,14.29
				c0.23,2.2,0.85,4.36,1.3,6.53c0.37-0.07,0.42-0.17,0.49-0.27c3.52-5.47,7.05-10.94,10.55-16.43c0.24-0.38,0.33-0.89,0.35-1.35
				c0.23-3.82,0.55-7.62,1.62-11.31c0.33-1.13,0.56-2.29,0.85-3.47C106.09,44.85,101.69,44.97,97.16,45.1z"/>
			<path class="st0" d="M135.06,97.28c-0.51,0.15-0.83,0.21-1.12,0.34c-4.97,2.2-10.19,2.36-15.5,1.99
				c-3.56-0.25-7.14-0.61-10.7-0.57c-4.86,0.05-9.71,0.44-14.57,0.69c-2.58,0.13-4.88,0.78-6.21,3.39c0.19-0.01,0.34-0.02,0.48-0.03
				c3.95-0.3,7.84-0.18,11.72,0.84c6.21,1.63,12.45,3.15,18.73,4.52c1.75,0.38,3.67,0.23,5.49,0.04c2.35-0.25,4.66-0.85,7-1.16
				c1.26-0.17,1.8-0.72,2.13-1.95C133.22,102.72,134.15,100.11,135.06,97.28z"/>
			<path class="st0" d="M87.21,109.08c0.19,0.5,0.27,0.76,0.38,1.01c1.27,3.12,2.44,6.29,3.86,9.34c1.11,2.38,2.31,4.79,3.86,6.88
				c3.19,4.29,8.02,6.32,12.75,8.33c3,1.27,6.18,1.35,9.32,0.35c0.76-0.24,1.72-0.47,2.16-1.04c1.83-2.33,3.51-4.79,5.22-7.21
				c0.17-0.24,0.26-0.54,0.43-0.91c-1.99,0.32-3.84,0.8-5.7,0.88c-4.27,0.19-8.38-0.82-12.36-2.27c-4.84-1.77-9.32-4.05-12.48-8.42
				C92.71,113.32,90.28,111,87.21,109.08z"/>
			<path class="st0" d="M34.08,107.71c0.07,0.86,0.01,1.56,0.19,2.21c0.7,2.59,1.53,5.14,2.21,7.74c0.73,2.84,2.41,4.38,5.39,4.74
				c2.24,0.27,4.43,0.75,6.65-0.05c4.93-1.78,9.67-3.93,13.97-6.96c2.95-2.08,5.91-4.17,8.87-6.24c0.81-0.56,1.64-1.09,2.65-1.75
				c-0.39,0.04-0.56,0.02-0.7,0.07c-5.83,1.65-11.63,3.38-17.66,4.22c-2.63,0.36-5.26,0.93-7.89,0.4
				C43.13,111.15,38.47,110.24,34.08,107.71z"/>
			<path class="st0" d="M134.33,53.76c-2.36-3.87-2.38-8.19-1.58-12.69c-3.49,1.8-6.82,3.41-9.42,6.13
				c-3.19,3.34-6.39,6.68-9.58,10.03c-0.9,0.95-1.76,1.95-2.73,3.02c2.07-0.42,3.93-0.88,5.83-1.16
				C122.83,58.23,128.78,57.26,134.33,53.76z"/>
			<path class="st0" d="M84.46,117.33c-0.07,0.14-0.13,0.24-0.15,0.35c-0.86,4.25-1.72,8.5-2.58,12.75
				c-0.7,3.45-0.89,6.83,0.92,10.08c1.45,2.6,2.7,5.3,4.15,7.89c0.41,0.73,1.1,1.6,1.83,1.81c3.17,0.91,6.36,0.94,9.38-0.42
				c-1.37-0.97-2.91-1.76-4.08-2.93c-2.84-2.85-5.43-5.97-7.29-9.56c-1.74-3.36-2.6-6.92-2.23-10.82
				C84.69,123.48,84.46,120.42,84.46,117.33z"/>
			<path class="st0" d="M47.22,133.4c1.85,1.24,3.87,2.15,6.06,1.79c2.64-0.44,5.25-1.16,7.79-1.99c1.16-0.38,2.39-1.11,3.16-2.03
				c1.32-1.58,2.29-3.46,3.44-5.19c0.39-0.59,0.8-1.21,1.33-1.66c2.02-1.73,2.72-4.16,3.79-6.59c-0.27,0.11-0.36,0.11-0.4,0.16
				c-0.21,0.24-0.42,0.49-0.6,0.75c-2.94,4.31-6.54,7.9-11.11,10.5C56.51,131.52,52.36,133.94,47.22,133.4z"/>
		</g>
	</g>
	<g>
		<path d="M83.32,179.9c0.58-1.96,1.03-3.91,0.52-6.01c-0.41-1.67-0.61-3.4-0.86-5.1c-0.16-1.06,0.3-1.85,1.15-2.49
			c3.29-2.48,4.85-2.38,7.41,0.84c2.12,2.67,4.07,5.49,6.05,8.27c1.82,2.56,3.98,4.69,6.88,6.07c2.86,1.36,4.45,3.61,4.22,6.93
			c-0.3,4.33-0.57,8.66-0.86,12.99c-0.18,2.66,0.32,5.21,1.34,7.64c0.27,0.63,0.77,1.25,1.32,1.67c1.67,1.25,3.41,0.54,3.94-1.46
			c1.16-4.37,0.65-8.66-0.3-13c-0.59-2.69-0.83-5.46-1.12-8.21c-0.09-0.82,0.1-1.68,0.28-2.5c0.36-1.66,1.65-2.35,3.07-1.41
			c1.46,0.96,2.76,2.19,4,3.44c1.39,1.39,2.6,2.96,3.96,4.38c1.96,2.04,4.22,3.68,6.72,5.04c3.44,1.88,6.23,4.53,8.44,7.77
			c0.38,0.55,0.66,1.21,0.82,1.86c1.38,5.75,1.86,11.57,1.31,17.48c-0.25,2.67-0.16,5.4-0.67,8.02c-0.4,2.05-1.21,4.12-2.31,5.9
			c-1.81,2.94-3.5,2.89-5.73,1.49c-1.09-0.68-2.15-1.41-3.26-2.05c-1.91-1.09-3.83-2.16-5.79-3.16c-1.39-0.71-2.84-1.32-4.29-1.92
			c-1.75-0.71-3.53-1.3-5.64-0.41c1.11,1.36,2.03,2.72,3.18,3.84c4.86,4.75,8.14,10.47,10.63,16.72c0.68,1.7,1.51,3.35,2.11,5.08
			c1.68,4.81,2.9,9.73,2.86,14.88c-0.01,1.57-0.44,2.18-1.55,2.2c-1.24,0.02-2.61-1.3-2.65-2.52c-0.06-1.62-0.1-3.25-0.26-4.86
			c-0.4-4.05-1.3-7.97-2.79-11.79c-2.22-5.67-5.46-10.74-8.72-15.81c-1.34-2.09-2.88-4.05-4.47-5.96c-0.54-0.65-1.48-0.96-2.23-1.42
			c-0.27,0.89-0.86,1.82-0.77,2.68c0.38,3.67,1.05,7.31,1.44,10.98c0.45,4.25,1.32,8.46,0.51,12.82c-0.77,4.15-3.26,6.62-7.53,6.34
			c-2.14-0.14-4.34-0.5-6.36-1.21c-7.25-2.55-13.52-6.78-18.21-12.82c-6.16-7.93-11.85-16.23-17.7-24.4
			c-0.84-1.17-1.55-2.45-2.18-3.75c-0.45-0.92-0.85-1.94-0.96-2.95c-0.25-2.29,0.83-3.05,2.98-2.22c1.76,0.69,3.47,1.5,5.27,2.07
			c1.75,0.55,3.55,0.99,5.37,1.23c2.26,0.3,4.56,0.41,6.85,0.48c0.69,0.02,1.72,0.33,1.94-0.89c0.18-1.02-0.4-2.11-1.41-2.54
			c-0.63-0.26-1.28-0.56-1.94-0.63c-5.59-0.61-10.27-3.46-15.19-5.84c-3.83-1.86-5.66-4.75-6.33-8.72
			c-0.36-2.14-0.97-4.24-1.19-6.39c-0.15-1.49,0.05-3.04,0.3-4.54c0.25-1.52,1.42-2.21,2.86-1.64c1.1,0.43,2.2,1.05,3.05,1.85
			c2.6,2.41,5.82,3.39,9.13,4.08c0.98,0.21,2.18-0.12,3.15-0.5c1.01-0.4,1.47-1.4,1.11-2.5c-0.24-0.75-0.61-1.5-1.09-2.11
			c-1.89-2.38-4.19-4.12-7.24-4.92c-3.21-0.85-6.38-1.9-9.49-3.07c-1.09-0.41-2.19-1.29-2.85-2.25c-1.22-1.78-2.18-3.74-3.13-5.69
			c-1.88-3.89-4-7.63-6.9-10.86c-1.14-1.27-2.48-2.41-3.85-3.44c-1.54-1.16-3.26-0.92-4.92-0.17c-0.34,0.16-0.67,0.47-0.88,0.79
			c-1.34,2.04-0.8,5.01,1.15,6.42c0.56,0.4,1.08,0.84,0.72,1.58c-0.36,0.74-1,0.61-1.67,0.39c-4.25-1.38-4.95-2.59-3.98-6.95
			c1.05-4.75,4.01-7.66,8.52-9.32c4.05-1.48,8.13-1.14,12.26-0.75c5.96,0.55,11.69,2.08,17.34,3.94c5.68,1.87,9.53,5.73,11.4,11.4
			c0.62,1.89,0.7,3.95,1.13,5.91c0.29,1.33,0.71,2.64,1.18,3.92c0.25,0.68,0.73,1.28,1.11,1.92
			C83.09,179.99,83.21,179.94,83.32,179.9z"/>
		<g>
			<path class="st0" d="M102.66,221.86c0.09-0.07,0.17-0.14,0.26-0.21c-1.06-1.29-1.95-2.78-3.2-3.84
				c-4.48-3.82-8.31-8.18-11.37-13.2c-6.07-9.98-13.28-19.05-21.56-27.28c-4.92-4.88-10.02-9.54-16.19-12.85
				c-2.21-1.19-4.34-2.56-6.9-3.16c0.06,0.19,0.06,0.28,0.1,0.33c3.67,3.87,6.37,8.36,8.63,13.15c0.75,1.6,1.59,3.16,2.48,4.68
				c0.67,1.16,1.73,1.72,3.06,2.12c3.77,1.12,7.48,2.4,11.18,3.71c0.88,0.31,1.72,0.9,2.44,1.52c1.98,1.7,4.01,3.4,4.63,6.14
				c0.45,1.96-0.62,4.12-2.49,4.84c-1.6,0.61-3.26,0.85-4.97,0.41c-3.57-0.92-7.01-2.08-9.73-4.77c-0.54-0.53-1.29-0.84-2.02-1.3
				c-0.15,0.39-0.21,0.54-0.25,0.68c-0.71,2.9,0.07,5.67,0.77,8.43c0.08,0.32,0.49,0.61,0.82,0.81c4.17,2.6,8.72,4.1,13.61,4.46
				c6.19,0.47,11.85,2.35,16.95,5.94C93.45,215.67,98.07,218.73,102.66,221.86z"/>
			<path class="st0" d="M62.32,224.32c0.16,0.27,0.43,0.81,0.77,1.29c4.78,6.76,9.6,13.49,14.35,20.26c1.34,1.91,3.13,3.15,5.1,4.3
				c5.8,3.41,11.53,2.02,17.27-0.11c0.11-0.04,0.21-0.11,0.31-0.18c2.93-2.08,5.17-4.63,5.93-8.29c0.28-1.33,0.78-2.61,1.18-3.91
				c0.08-0.26,0.22-0.56,0.17-0.81c-0.45-2.22-0.12-4.29,1.23-6.11c-1.17-1.33-2.5-1.98-4.15-1.53c-1.62,0.44-3.21,0.95-4.79,1.51
				c-1.85,0.65-3.65,1.47-5.52,2.07c-3.55,1.13-7.23,0.91-10.89,0.84c-3.87-0.07-7.65-0.8-10.99-2.76
				C68.8,228.85,65.53,226.45,62.32,224.32z"/>
			<path class="st0" d="M115,187.62c-0.01,0.23-0.07,0.46-0.03,0.68c0.42,2.73,0.72,5.49,1.3,8.19c0.97,4.47,1.23,8.9,0.12,13.37
				c-0.67,2.72-2.72,4.01-5.44,3.31c-2.17-0.55-3.3-2.13-4.04-4.11c-1.49-3.97-1.19-8.05-0.83-12.15c0.25-2.92,0.51-5.85,0.55-8.77
				c0.04-2.81-1.81-4.83-4.58-5.42c-0.12,2.11-0.24,4.23-0.36,6.35c-0.19,3.29-0.53,6.58-0.53,9.86c0,2.79,0.04,5.67,0.71,8.35
				c1.51,6.11,4.31,11.74,7.32,17.25c0.37,0.68,0.87,1.28,1.35,1.97c0.87-1.35,1.55-2.59,2.4-3.7c2.47-3.27,4.37-6.86,5.87-10.63
				c0.76-1.91,1.24-4.02,1.37-6.06C120.59,199.41,118.18,193.42,115,187.62z"/>
			<path class="st0" d="M43.65,154.53c-0.01,0.11-0.02,0.21-0.02,0.32c5.19,1.27,10.38,2.57,14.89,5.62
				c2.5,1.69,5.15,3.22,7.37,5.22c3.24,2.93,6.33,6.07,9.16,9.39c5.14,6.02,10.25,12.09,14.19,19.01c1.41,2.47,2.79,4.95,4.18,7.43
				c-2.38-7.72-3.38-15.7-4.72-23.61c-0.49-2.92-0.7-5.93-2.53-8.46c-0.3-0.42-0.63-0.83-0.95-1.24c-0.11,0.05-0.22,0.11-0.34,0.16
				c0.25,1.37,0.39,2.77,0.76,4.11c0.77,2.74,0.5,5.41-0.34,8.07c-0.48,1.53-1.78,2.16-3.07,1.24c-0.9-0.64-1.77-1.62-2.14-2.64
				c-0.8-2.22-1.54-4.52-1.82-6.84c-0.79-6.46-4.13-10.93-10.15-13.18c-5.73-2.14-11.66-3.61-17.78-4.15
				C48.13,154.77,45.89,154.67,43.65,154.53z"/>
			<path class="st0" d="M139.32,211.71c-0.13-0.02-0.26-0.04-0.38-0.06c-0.19,0.51-0.38,1.02-0.58,1.53
				c-1.34,3.36-3.09,6.46-6.01,8.72c-3.65,2.83-7.59,5.11-12.12,6.23c-1.52,0.38-3.02,0.79-4.26,1.12c1.49,0.44,3.19,0.76,4.75,1.43
				c4.01,1.71,8.17,3.18,11.55,6.12c0.42,0.36,0.96,0.58,1.46,0.84c1.76,0.96,2.43,0.93,3.27-0.88c0.97-2.09,1.97-4.31,2.21-6.56
				c0.46-4.34,0.46-8.73,0.53-13.1C139.76,215.3,139.47,213.5,139.32,211.71z"/>
		</g>
		<g>
			<path class="st1" d="M106.1,227.07c-0.5-0.4-0.71-0.58-0.93-0.74c-5.56-3.89-11.16-7.74-16.69-11.68
				c-4.58-3.27-9.6-5.25-15.19-5.98c-3.33-0.44-6.63-1.16-9.88-2.02c-1.74-0.46-3.34-1.47-5.09-2.28c0.4,2.04,1.18,3.64,3.12,4.51
				c0.95,0.42,1.8,1.06,2.74,1.52c3.52,1.71,6.79,4.01,10.82,4.58c1.5,0.22,3,0.59,4.44,1.06c2.36,0.76,3.33,2.3,3.2,4.76
				c-0.09,1.71-0.87,2.69-2.6,2.7c-2.92,0.01-5.86-0.06-8.75-0.4c-2.05-0.24-4.05-0.91-6.05-1.49c-1.18-0.34-2.31-0.86-3.69-1.39
				c5.26,5.79,13.58,11.35,22.07,11.47c5,0.07,9.9-0.22,14.45-2.5C100.51,227.98,103,227.08,106.1,227.07z"/>
			<path class="st1" d="M112.01,228.16c1.6-0.43,2.82-0.82,4.06-1.08c5.1-1.04,9.81-2.97,14.06-6.02c2.52-1.81,4.38-4.13,5.68-6.9
				c1.03-2.21,2.13-4.44,1.72-7.02c-0.1-0.63,0.07-1.41-0.25-1.86c-1.9-2.7-4.3-4.92-7.21-6.46c-3.76-2-6.84-4.76-9.58-7.96
				c-0.89-1.04-1.8-2.04-2.71-3.06c-0.1,0.41,0.01,0.65,0.1,0.9c1.15,3.03,2.5,6.01,3.4,9.12c1.51,5.18,1.55,10.41-0.66,15.45
				c-1.65,3.76-3.52,7.4-5.99,10.7C113.72,225.19,113,226.57,112.01,228.16z"/>
			<path class="st1" d="M95.93,211.73c0.13-0.09,0.27-0.19,0.4-0.28c-0.97-1.83-1.94-3.67-2.92-5.5c-3.49-6.52-6.82-13.14-11.4-19
				c-3.37-4.31-6.75-8.61-10.34-12.73c-7.23-8.31-15.86-14.47-26.8-17.02c-3.13-0.73-6.11-0.54-9.12,0.36
				c-0.22,0.07-0.39,0.33-0.86,0.73c3.47-0.52,6.47,0.22,9.4,1.15c6.46,2.05,12.06,5.68,17.12,10.09
				c10.97,9.59,20.38,20.51,28.03,32.94C91.41,205.68,93.76,208.65,95.93,211.73z"/>
			<path class="st1" d="M108.21,243.1c-1.1,1.7-2.19,3.48-3.38,5.2c-1.48,2.16-3.53,3.64-6.03,4.38c-1.81,0.53-3.66,0.89-5.51,1.25
				c-2.85,0.56-5.67,0.48-8.42-0.6c-0.34-0.13-0.68-0.25-1.03-0.37c-0.06,0.1-0.13,0.2-0.19,0.29c0.18,0.1,0.38,0.18,0.52,0.31
				c4.05,3.71,8.58,6.66,13.78,8.44c1.91,0.65,3.99,0.94,6.01,1.08c2.46,0.16,4.25-1.01,4.74-3.07c0.47-1.98,0.91-4.06,0.79-6.06
				C109.29,250.25,108.65,246.57,108.21,243.1z"/>
			<path class="st1" d="M101.5,214.31c0.14-0.06,0.29-0.13,0.43-0.19c-0.14-0.4-0.31-0.8-0.43-1.2c-0.69-2.26-1.51-4.5-2.03-6.8
				c-0.88-3.93-0.37-7.93-0.18-11.9c0.13-2.77,0.42-5.53,0.65-8.29c0.24-2.85-0.19-5.3-2.49-7.5c-2-1.91-3.32-4.52-5-6.77
				c-1.1-1.48-2.29-2.9-3.5-4.3c-0.48-0.55-1.12-1.08-1.94-0.36c1.54,2.02,2.65,4.18,3.06,6.64c0.72,4.36,1.32,8.74,2.1,13.09
				c1.21,6.74,2.75,13.39,5.6,19.66C98.98,209.04,100.26,211.67,101.5,214.31z"/>
		</g>
	</g>
	<g>
		<path d="M222.43,141.24c-1.02-1.32-1.95-2.93-3.26-4.14c-1.58-1.46-3.63-2.09-5.83-2.28c-6.12-0.52-12.29-0.81-18.34-1.8
			c-6.87-1.12-12.97-4.42-18.8-8.15c-6.13-3.93-11.53-8.62-15.5-14.79c-0.89-1.38-1.72-2.81-2.41-4.3
			c-0.24-0.53-0.23-1.55,0.12-1.91c0.58-0.6,1.28-0.04,1.89,0.42c4.52,3.42,8.81,7.21,13.64,10.12
			c9.75,5.88,19.85,11.09,31.18,13.46c3.15,0.66,6.12,2.16,9.17,3.27c0.25,0.09,0.49,0.19,0.83,0.33
			c-2.54-4.87-6.21-8.07-11.57-9.23c-4.99-1.07-9.97-2.19-14.91-3.46c-5.85-1.5-10.86-4.78-15.93-7.89
			c-6.5-3.99-11.75-9.38-16.58-15.16c-1.86-2.22-3.07-4.98-4.55-7.51c-0.34-0.58-0.54-1.37,0.23-1.66c0.45-0.17,1.3,0.05,1.66,0.41
			c0.97,0.95,1.76,2.08,2.64,3.13c7.55,9.08,16.56,16.1,27.82,20.07c7.71,2.72,14.95,6.51,22.23,10.19
			c0.95,0.48,1.89,0.97,2.95,1.51c-0.66-2.71-2.37-4.33-4.57-5.4c-3.5-1.71-7.09-3.23-10.63-4.86c-8.62-3.97-17.39-7.69-24.99-13.5
			c-9.05-6.91-14.7-16.14-17.56-27.1c-0.11-0.44,0.32-1.02,0.5-1.54c0.56,0.28,1.32,0.41,1.63,0.86c1.88,2.7,3.58,5.53,5.47,8.23
			c4.49,6.37,10.48,11.07,17.11,15.01c9.65,5.73,19.39,11.31,27.73,18.95c0.12,0.11,0.26,0.18,0.57,0.39
			c-0.12-0.4-0.16-0.64-0.26-0.86c-1.33-2.84-2.65-5.68-4-8.51c-0.16-0.34-0.4-0.71-0.7-0.93c-3.89-2.85-8.17-4.93-12.65-6.69
			c-3.4-1.34-6.73-2.85-10.11-4.25c-3.65-1.51-6.71-3.88-9.27-6.8c-3.43-3.93-6.76-7.97-9.86-12.17c-1.46-1.97-2.32-4.38-3.41-6.62
			c-0.35-0.72-0.71-1.63,0.19-2.16c0.86-0.51,1.49,0.17,2.05,0.79c5.53,6.15,11.56,11.77,18.43,16.41c3.96,2.68,7.97,5.3,12.04,7.8
			c4.01,2.46,7.56,5.43,10.72,9.01c-0.01-1.63-1.25-4.16-2.36-5.13c-1-0.87-1.93-1.82-2.86-2.77c-2.47-2.54-5.36-4.48-8.5-6.07
			c-4.12-2.09-7.88-4.67-11.18-7.91c-0.89-0.87-1.81-1.74-2.55-2.73c-2.74-3.67-5.64-7.26-8.03-11.15
			c-1.76-2.88-2.86-6.17-4.15-9.33c-0.19-0.47-0.04-1.41,0.31-1.69c0.67-0.55,1.37-0.04,1.84,0.57c0.91,1.17,1.67,2.48,2.69,3.56
			c3.48,3.69,6.94,7.4,10.6,10.89c2.11,2.02,4.59,3.65,6.92,5.44c4.33,3.32,7.59,7.62,10.97,11.82c0.12,0.16,0.26,0.31,0.57,0.36
			c-0.52-0.94-1.04-1.88-1.58-2.82c-3.4-5.97-8.01-11.04-12.21-16.42c-2.4-3.08-4.71-6.22-7.05-9.34
			c-3.81-5.09-5.55-11.11-7.61-16.99c-0.2-0.57-0.46-1.14-0.51-1.73c-0.03-0.41,0.13-1.05,0.43-1.23c0.3-0.19,0.99-0.1,1.29,0.14
			c0.76,0.59,1.4,1.33,2.07,2.02c3.65,3.74,7.29,7.49,11.15,11.08c-0.86-1.46-1.74-2.9-2.58-4.38c-1.3-2.31-2.61-4.62-3.82-6.98
			c-0.21-0.41,0.07-1.07,0.12-1.62c0.55,0.06,1.29-0.09,1.63,0.21c4.27,3.84,8.57,7.66,12.68,11.67c3.74,3.64,5.35,8.41,6.46,13.39
			c1.32,5.94,2.27,11.92,2.13,18.03c-0.09,3.96,1.23,8.97,3.31,11.83c-0.41-6.43-0.5-12.9-1.32-19.28
			c-0.99-7.73-3.93-14.89-7.78-21.66c-0.83-1.47-1.64-2.96-2.32-4.5c-0.21-0.48,0.05-1.16,0.09-1.75c0.57,0.12,1.36,0.03,1.69,0.38
			c4.2,4.43,8.68,8.61,12.09,13.75c2.44,3.68,3.67,7.75,4.38,12.02c0.67,4.01,1.39,8.06,0.79,12.11c-0.65,4.4-1.75,8.74-2.46,13.13
			c-0.66,4.08-1.21,8.2,1.07,12.07c0.73,1.24,1.26,2.6,2.02,4.19c0.1-1.46,0.11-2.63,0.26-3.78c0.69-5.3,1.57-10.57,2.08-15.89
			c0.28-2.94,0.03-5.95-0.06-8.92c-0.22-7.17-1.77-14.13-4.04-20.88c-1.35-4.01-3.48-7.76-5.27-11.63
			c-0.13-0.29-0.41-0.57-0.41-0.86c0-0.47,0.18-0.94,0.28-1.41c0.5,0.12,1.02,0.18,1.48,0.38c0.22,0.09,0.33,0.44,0.48,0.68
			c3.64,6.16,7.33,12.29,10.89,18.5c3.34,5.84,5.24,12.15,5.78,18.87c0.51,6.48,0.21,12.86-2,19.04c-0.54,1.51-1.4,2.9-1.93,4.41
			c-1.23,3.52-2.56,7.05-2.12,10.9c0.04,0.39,0.06,0.83,0.24,1.16c1.2,2.13,2.43,4.23,3.66,6.34c0.1-0.03,0.2-0.06,0.3-0.09
			c0.03-0.28,0.1-0.57,0.09-0.85c-0.26-7.35,0.99-14.47,2.85-21.55c0.65-2.48,0.56-5.18,0.61-7.78c0.04-2.32-0.16-4.66-0.31-6.98
			c-0.23-3.73-0.47-7.46-0.75-11.18c-0.38-5.01-0.74-10.02-1.22-15.02c-0.16-1.67-0.69-3.3-1.03-4.95c-0.13-0.62-0.27-1.27-0.2-1.89
			c0.04-0.32,0.5-0.74,0.85-0.82c0.28-0.07,0.68,0.28,0.98,0.51c0.13,0.1,0.17,0.35,0.22,0.55c1.41,6.09,4.38,11.55,6.88,17.2
			c1.84,4.17,3.49,8.39,4.28,12.9c1.1,6.31,0.58,12.46-1.73,18.48c-2.34,6.07-4.55,12.19-6.74,18.32c-1.07,2.99-1.2,6.15-0.36,9.15
			c0.47,1.67,1.88,3.08,2.87,4.6c0.08-0.05,0.17-0.11,0.25-0.16c-0.31-1.4-0.6-2.82-0.95-4.21c-0.93-3.79-0.61-7.55,0.59-11.18
			c1.16-3.5,2.55-6.94,4-10.33c2.66-6.19,4.56-12.52,4.37-19.35c-0.06-2.05-0.07-4.1,0.02-6.15c0.2-4.43-0.68-8.72-1.56-13.01
			c-0.16-0.78-0.39-1.62,0.6-1.92c0.94-0.28,1.41,0.48,1.67,1.21c1.18,3.25,2.39,6.48,3.44,9.77c1.22,3.83,2.22,7.7,2.7,11.72
			c0.71,5.97-0.04,11.71-2.08,17.31c-1.93,5.32-3.94,10.62-5.93,15.92c-0.34,0.9-0.7,1.81-1.19,2.64c-1.48,2.47-1.79,5.21-1.98,7.99
			c-0.12,1.69,0.47,3.13,1.59,4.62c-0.56-3.67,0.12-7.1,0.99-10.37c0.7-2.62,2.1-5.14,3.63-7.42c3.1-4.63,5.23-9.6,6.09-15.07
			c0.32-2.01,0.24-4.09,0.22-6.13c-0.02-2.73-0.21-5.47-0.21-8.2c0-0.55,0.42-1.42,0.86-1.58c0.85-0.33,1.29,0.47,1.46,1.21
			c0.94,4.23,2.09,8.43,2.72,12.71c0.89,6.03-0.4,11.73-3.42,17.05c-2.36,4.16-4.71,8.33-6.87,12.59c-0.97,1.91-1.51,4.05-2.14,6.12
			c-0.34,1.12,0.03,2.08,1.03,2.86c2.79,2.17,5.44,4.54,8.75,5.94c0.22,0.09,0.51,0.2,0.6,0.38c0.19,0.39,0.26,0.83,0.38,1.25
			c-0.42,0.11-0.93,0.42-1.25,0.28c-1.29-0.55-2.6-1.11-3.76-1.9c-2.06-1.4-4.02-2.94-6-4.46c-2.86-2.21-5.97-3.61-9.66-3.89
			c-6.42-0.49-12.75,0.11-19.11,0.88c-5.95,0.72-11.88,1.27-17.78-0.74c-8.17-2.78-15.08-7.31-20.58-13.97
			c-1.36-1.64-2.77-3.24-4.13-4.88c-0.46-0.56-0.94-1.23-0.28-1.93c0.66-0.7,1.33-0.21,1.96,0.15c3.7,2.1,7.26,4.51,11.12,6.25
			c6.68,3.01,13.64,5.33,20.93,6.34c2.81,0.39,5.7,0.21,8.54,0.43c4.08,0.32,8.18,0.56,12.21,1.26
			C217.39,139.18,219.91,140.38,222.43,141.24z M189.48,76.19c0.21-0.09,0.41-0.17,0.62-0.26c-0.82-1.93-1.63-3.85-2.45-5.78
			c-0.16,0.07-0.32,0.13-0.48,0.2C187.94,72.29,188.71,74.24,189.48,76.19z"/>
		<g>
			<path class="st0" d="M207.32,63.82c-0.06,0.02-0.11,0.05-0.17,0.07c0.09,0.38,0.2,0.76,0.27,1.14c0.88,4.65,1.96,9.27,2.58,13.96
				c0.9,6.73,0.47,13.45-0.64,20.16c-0.62,3.75-1.04,7.56-1.28,11.35c-0.13,2.03,0.02,4.16,1.05,5.87c1.19-3.29,2.39-6.63,3.6-9.97
				c0.52-1.43,1.08-2.85,1.53-4.3c0.93-2.98,1.15-6.05,1.3-9.15c0.42-8.43-1.31-16.36-5.26-23.81
				C209.35,67.34,208.32,65.59,207.32,63.82z"/>
			<path class="st0" d="M225.01,136.82c0.07-0.67,0.02-1.38,0.24-2c0.65-1.85,1.42-3.66,2.11-5.49c2.34-6.2,4.75-12.38,6.97-18.62
				c1.38-3.88,2.14-7.89,1.91-12.07c-0.23-4.28-0.88-8.47-2.25-12.53c-0.23-0.68-0.42-1.38-0.63-2.07c-0.21,3.23-0.29,6.41-0.2,9.58
				c0.2,7.29-1.84,14.02-4.74,20.6c-1.55,3.52-2.85,7.16-4.03,10.83C223.11,128.99,223.55,132.96,225.01,136.82z"/>
			<path class="st0" d="M212.52,132.87c0.03-0.1,0.06-0.19,0.09-0.29c-0.49-0.23-0.96-0.51-1.48-0.68c-2.48-0.8-4.93-1.75-7.46-2.33
				c-12.74-2.91-24.02-8.94-34.78-16.09c-2.06-1.37-4.03-2.86-6.16-4.39c0.06,0.25,0.05,0.33,0.09,0.38
				c0.18,0.27,0.37,0.53,0.55,0.79c3.62,5.31,8.48,9.3,13.81,12.75c5.98,3.87,12.28,7.07,19.38,8.23c3.67,0.6,7.42,0.75,11.13,1.11
				C209.3,132.52,210.9,132.7,212.52,132.87z"/>
			<path class="st0" d="M156.5,78.77c-0.05,0.02-0.1,0.05-0.14,0.07c0.11,0.28,0.2,0.58,0.33,0.85c3.86,7.8,9.03,14.55,16.61,18.97
				c6.45,3.75,13.2,6.99,19.85,10.39c1.95,1,4.02,1.75,6.03,2.62c-0.22-0.49-0.56-0.76-0.88-1.04c-6.9-6.02-15-10.22-22.75-14.95
				c-6.75-4.11-13-8.77-17.74-15.21C157.39,79.89,156.94,79.33,156.5,78.77z"/>
			<path class="st0" d="M175.96,41.35c0.19,0.34,0.38,0.68,0.57,1.03c1.54,2.82,3.31,5.53,4.58,8.47c1.76,4.08,3.14,8.32,4.69,12.49
				c0.12,0.33,0.22,0.69,0.4,0.99c1.4,2.38,2.96,4.68,4.18,7.14c0.88,1.78,1.33,3.78,1.95,5.65c0.01-0.14,0.03-0.33,0.03-0.53
				c0.05-4.61-0.73-9.12-1.7-13.59c-0.81-3.72-1.56-7.49-3.7-10.76C184.07,47.85,180.2,44.42,175.96,41.35z"/>
			<path class="st0" d="M189.86,85c-1.94-2.35-3.73-4.84-5.86-7.02c-2.26-2.32-4.66-4.58-7.31-6.44c-4.06-2.85-7.36-6.45-10.75-9.98
				c-0.64-0.67-1.31-1.3-1.97-1.94c-0.63-0.61-1.26-1.23-1.88-1.84c2.64,5.58,6.4,10.35,10.25,15.02
				C176.99,78.43,183.58,81.49,189.86,85z"/>
		</g>
		<g>
			<path class="st1" d="M219.6,69.89c0.11,2.24,0.2,4.48,0.35,6.72c0.28,4.17,0.62,8.33,0.88,12.5c0.13,2.04,0.04,4.1,0.2,6.14
				c0.34,4.31,0.22,8.56-0.93,12.78c-1.64,6.03-2.79,12.15-2.37,18.14c2.42-6.61,4.85-13.53,7.49-20.37
				c2.13-5.52,2.63-11.16,1.68-16.94C225.78,82.08,222.65,76.02,219.6,69.89z"/>
			<path class="st1" d="M165.97,129.72c2.05,2.07,3.93,4.37,6.2,6.17c8.8,6.98,18.71,9.99,29.97,8c5.31-0.94,10.68-1.33,16.08-1.14
				c0.52,0.02,1.05,0,1.57,0c0.02-0.1,0.03-0.19,0.05-0.29c-1.54-0.54-3.05-1.21-4.63-1.59c-4.95-1.18-9.99-1.45-15.07-1.48
				c-2.76-0.02-5.56-0.14-8.26-0.65C182.82,137.05,174.22,133.96,165.97,129.72z"/>
			<path class="st1" d="M191.42,50.59c0.83,1.68,1.73,3.32,2.47,5.04c2.93,6.85,4.87,13.94,5.16,21.42c0.13,3.32,0.19,6.65,0.3,9.98
				c0.11,3.09,0.06,6.2,1.03,9.32c0.27-1.04,0.51-1.93,0.72-2.82c1.16-4.8,2.49-9.59,2.29-14.58c-0.13-3.24-0.56-6.47-0.99-9.68
				C201.36,61.52,196.84,55.79,191.42,50.59z"/>
			<path class="st1" d="M166.2,40.18c1.4,3.85,2.33,7.73,4.61,10.96c3.84,5.44,7.92,10.71,11.91,16.04c0.68,0.91,1.44,1.76,2.3,2.79
				c-0.05-2.16-1.53-7.19-2.52-9.5C178.96,52.26,172.61,46.34,166.2,40.18z"/>
			<path class="st1" d="M192.87,96.37c-2.3-2.6-5.15-4.39-8.02-6.18c-9.18-5.73-18.23-11.65-25.73-19.6
				c-0.27-0.29-0.57-0.54-0.86-0.81c-0.11,0.1-0.22,0.21-0.32,0.31c2.41,3.11,4.76,6.26,7.24,9.31c4.31,5.33,9.24,9.86,16.01,11.91
				c0.54,0.16,1.04,0.43,1.55,0.65C186.11,93.43,189.49,94.9,192.87,96.37z"/>
			<path class="st1" d="M230.19,141.02c2.81-5.22,5.65-10.61,8.59-15.93c1.45-2.63,2.63-5.3,3.14-8.29
				c0.72-4.27,0.66-8.29-0.37-11.31c-0.14,2.03-0.11,3.97-0.42,5.86c-0.97,5.88-3.26,11.24-6.76,16.08
				C231.39,131.55,230.46,136.31,230.19,141.02z"/>
			<path class="st1" d="M198.53,118.91c-0.14-0.09-0.3-0.21-0.48-0.29c-4.24-1.91-8.4-4.05-12.75-5.68
				c-6.92-2.61-13.58-5.61-19.35-10.33c-0.1-0.08-0.25-0.11-0.37-0.16c-0.05,0.1-0.1,0.21-0.15,0.31
				C175.04,110.99,185.66,117.2,198.53,118.91z"/>
		</g>
	</g>
</g>
</svg>
