<?xml version="1.0" encoding="utf-8"?>
<!-- Generator: Adobe Illustrator 25.2.0, SVG Export Plug-In . SVG Version: 6.00 Build 0)  -->
<svg version="1.1" id="Layer_2" xmlns="http://www.w3.org/2000/svg" xmlns:xlink="http://www.w3.org/1999/xlink" x="0px" y="0px"
	 viewBox="0 0 300 300" style="enable-background:new 0 0 300 300;" xml:space="preserve">
<style type="text/css">
	.st0{fill:#2D513E;}
</style>
<g>
	<path class="st0" d="M189.25,177.96c0.27,0.51,0.68,0.5,1.03,0.51c0.89,0.01,1.77-0.01,2.66-0.06c1.93-0.1,3.87-0.36,5.79-0.32
		c1.99,0.04,3.97-0.13,5.96-0.15c3.59-0.02,6.2,1.66,8.02,4.68c0.77,1.28,1.19,2.71,1.63,4.12c0.81,2.57,1.09,5.2,0.99,7.89
		c-0.05,1.26,0.02,2.53,0.04,3.79c0,0.16,0.02,0.33-0.01,0.48c-0.09,0.42-0.44,0.56-0.78,0.3c-0.15-0.11-0.27-0.26-0.39-0.41
		c-0.22-0.27-0.45-0.54-0.65-0.83c-0.93-1.33-2.03-2.43-3.57-3.04c-0.27-0.11-0.5-0.32-0.73-0.5c-2.17-1.73-4.6-2.98-7.21-3.87
		c-0.56-0.19-1.13-0.36-1.71-0.46c-3.13-0.52-6.27-1.02-9.41-1.52c-0.71-0.11-1.43-0.12-2.28,0.18c0.37,0.32,0.63,0.58,0.93,0.77
		c0.38,0.24,0.8,0.45,1.22,0.63c2.45,1.09,4.81,2.38,7.34,3.32c2.6,0.97,4.98,2.41,7.19,4.1c0.15,0.11,0.29,0.25,0.45,0.35
		c1.81,1.14,3.07,2.81,4.12,4.59c1.1,1.86,2.33,3.62,3.51,5.42c1.2,1.85,1.81,3.83,1.46,6.05c-0.28,1.78-0.35,3.6-0.91,5.33
		c-0.02,0.05-0.02,0.11-0.05,0.15c-1.25,2.54-1.76,5.36-2.92,7.93c-0.74,1.64-1.54,3.26-2.32,4.88c-0.27,0.56-0.55,1.11-0.81,1.67
		c-0.11,0.25-0.17,0.57-0.52,0.49c-0.41-0.09-0.3-0.44-0.27-0.73c0.12-1.26,0.29-2.52,0.35-3.78c0.04-0.88,0.01-1.78-0.14-2.65
		c-0.25-1.46-0.53-2.92-0.94-4.34c-1.2-4.09-3.59-7.3-7.22-9.57c-1.79-1.13-3.73-1.92-5.74-2.53c-0.66-0.2-1.37-0.29-2.07-0.33
		c-0.71-0.05-0.93,0.34-0.49,0.88c0.62,0.77,1.31,1.5,2.05,2.16c0.89,0.78,1.87,1.45,2.8,2.19c2.39,1.91,4.41,4.18,6.3,6.57
		c1.62,2.04,2.64,4.37,3.45,6.8c0.54,1.62,0.61,3.33,0.75,5.02c0.08,1.06-0.26,2.03-0.98,2.82c-0.54,0.59-1.11,1.18-1.73,1.69
		c-3.16,2.55-6.36,5.06-9.52,7.62c-0.64,0.52-1.17,1.18-1.69,1.84c-0.22,0.28-0.28,0.68-0.37,1.04c-0.07,0.28-0.09,0.57-0.12,0.82
		c-0.56,0.2-0.7-0.17-0.83-0.49c-0.47-1.11-1.13-2.08-1.91-2.98c-0.88-1-1.89-1.84-3.07-2.46c-2.51-1.3-5.04-2.55-7.53-3.87
		c-2.6-1.37-5.25-2.6-7.99-3.64c-0.4-0.15-0.8-0.32-1.18-0.52c-2.29-1.15-3.53-3.59-3.24-6.15c0.42-3.75,1.41-7.33,2.96-10.77
		c1.21-2.7,2.32-5.44,3.46-8.18c0.6-1.44,1.16-2.9,1.73-4.34c0.3-0.76,0.53-1.53,0.44-2.36c-0.08-0.76-0.41-0.95-1.07-0.54
		c-1.59,1-2.95,2.25-4.02,3.8c-1.85,2.66-3.13,5.57-3.92,8.71c-0.37,1.49-0.88,2.95-0.95,4.49c-0.09,2.1-0.15,4.2-0.16,6.29
		c-0.01,1.09,0.33,2.12,0.75,3.12c0.18,0.42,0.31,0.86,0.42,1.3c0.03,0.12-0.06,0.34-0.17,0.41c-0.1,0.06-0.34,0.04-0.44-0.04
		c-2.3-1.85-5.09-2.91-7.43-4.68c-1.09-0.83-2.21-1.63-3.21-2.57c-1.72-1.61-2.41-3.71-2.49-6.03c-0.06-1.77,0.32-3.46,0.94-5.13
		c0.79-2.16,1.84-4.18,3.03-6.14c1.42-2.35,2.81-4.71,4.28-7.03c0.5-0.79,1.18-1.46,1.78-2.18c1.14-1.36,2.3-2.7,3.48-4.09
		c-0.25-0.34-0.59-0.45-1.02-0.42c-1.1,0.08-1.88,0.76-2.67,1.4c-1.12,0.9-1.99,2.04-2.86,3.17c-0.64,0.83-1.29,1.65-1.89,2.52
		c-1.97,2.83-3.5,5.89-4.39,9.21c-0.74,2.74-1.08,5.55-0.9,8.4c0.01,0.24,0.02,0.49-0.03,0.72c-0.07,0.35-0.42,0.44-0.66,0.18
		c-0.14-0.15-0.24-0.36-0.33-0.55c-0.69-1.61-1.74-2.94-3-4.16c-1.6-1.56-3.05-3.26-4.16-5.22c-0.88-1.54-1.22-3.21-1.21-4.96
		c0.01-1.21,0-2.43,0.49-3.57c0.16-0.37,0.3-0.77,0.53-1.08c0.39-0.52,0.26-0.96,0.01-1.48c-0.64-1.34-1.26-2.68-1.81-4.05
		c-1.4-3.52-1.64-7.17-1.03-10.88c0.28-1.7,0.74-3.37,1.48-4.94c2.05-4.39,5.56-6.88,10.29-7.67c1.59-0.26,3.15,0.11,4.71,0.43
		c2.26,0.46,3.9,1.86,5.5,3.36c1.79,1.69,3.32,3.6,4.51,5.77c0.32,0.58,0.53,1.23,0.83,1.96c-0.25-0.06-0.38-0.08-0.52-0.12
		c-1.21-0.37-2.4-0.82-3.63-1.08c-2-0.42-4.02-0.81-6.05-1.04c-1.87-0.21-3.76-0.19-5.64-0.24c-0.64-0.02-0.93,0.18-0.94,0.53
		c-0.02,0.38,0.26,0.56,0.97,0.59c1.72,0.07,3.45,0.05,5.16,0.21c2.92,0.29,5.8,0.86,8.63,1.66c0.57,0.16,1.11,0.42,1.65,0.65
		c0.86,0.37,1.53,0.91,1.95,1.82c0.3,0.65,0.82,1.19,1.25,1.78c0.17,0.24,0.34,0.47,0.58,0.81c-0.32,0.04-0.55,0.09-0.77,0.08
		c-1.93-0.04-3.8,0.4-5.62,0.95c-2.17,0.66-4.21,1.65-6.09,2.94c-2.19,1.49-4.3,3.07-6,5.13c-0.44,0.54-0.84,1.12-1.24,1.69
		c-0.14,0.2-0.25,0.42-0.34,0.64c-0.11,0.29-0.14,0.59,0.17,0.79c0.27,0.17,0.57,0.07,0.81-0.29c3.1-4.88,7.65-7.87,12.96-9.79
		c1.81-0.65,3.73-0.95,5.69-1c0.89-0.02,1.36,0.26,1.81,0.94c0.8,1.21,1.67,2.37,2.51,3.56c0.21,0.31,0.39,0.64,0.61,1
		c-0.19,0.11-0.34,0.21-0.5,0.29c-3.66,1.75-6.86,4.16-9.73,6.98c-1.72,1.69-3.06,3.68-3.98,5.93c-0.12,0.3-0.25,0.6-0.34,0.91
		c-0.13,0.47-0.01,0.78,0.3,0.89c0.33,0.11,0.58-0.04,0.75-0.53c0.78-2.19,1.98-4.11,3.53-5.83c1.68-1.88,3.66-3.42,5.72-4.84
		c1.28-0.88,2.66-1.63,4-2.43c0.22-0.13,0.49-0.2,0.83-0.33c2.02,3.9,3.41,8,5.02,12.08c-0.49,0.5-0.98,0.99-1.47,1.49
		c-3.2,3.31-5.52,7.15-6.79,11.58c-0.34,1.18-0.41,2.44-0.55,3.67c-0.05,0.41,0.05,0.86,0.18,1.26c0.05,0.16,0.35,0.31,0.56,0.33
		c0.27,0.02,0.41-0.22,0.43-0.49c0.01-0.08,0.02-0.16,0.01-0.24c-0.23-2.27,0.38-4.38,1.21-6.44c1.47-3.68,3.63-6.89,6.47-9.65
		c0.11-0.11,0.24-0.19,0.39-0.32c0.09,0.18,0.17,0.32,0.22,0.47c0.88,2.51,1.81,5.01,2.63,7.55c1.09,3.39,1.65,6.9,2.17,10.42
		c0.25,1.68,0.68,3.32,1.23,4.93c0.18,0.53,0.42,1.05,0.67,1.56c0.12,0.23,0.31,0.44,0.5,0.63c0.21,0.21,0.48,0.26,0.73,0.06
		c0.25-0.2,0.27-0.47,0.09-0.72c-1.05-1.5-1.37-3.26-1.79-4.98c-0.29-1.2-0.45-2.43-0.63-3.66c-0.47-3.12-1.14-6.19-2.08-9.2
		c-0.06-0.18-0.09-0.36-0.13-0.55c0-0.02,0.02-0.04,0.07-0.13c0.88,0.42,1.77,0.84,2.64,1.28c2.04,1.03,3.83,2.39,5.41,4.03
		c0.88,0.91,1.76,1.82,2.64,2.73c0.48,0.5,0.81,0.6,1.08,0.33c0.24-0.25,0.19-0.61-0.23-1.06c-1.79-1.9-3.53-3.86-5.69-5.37
		c-1.12-0.78-2.35-1.41-3.55-2.06c-0.82-0.45-1.69-0.83-2.54-1.23c-0.33-0.16-0.55-0.39-0.68-0.74c-1.29-3.48-2.6-6.96-3.9-10.44
		c-0.02-0.05-0.01-0.1-0.02-0.24c0.77,0.29,1.54,0.51,2.23,0.87c1.47,0.77,3.04,1.22,4.61,1.71c3.81,1.19,7.37,2.85,10.52,5.32
		c0.23,0.18,0.48,0.36,0.73,0.5c0.25,0.14,0.53,0.16,0.73-0.1c0.22-0.29,0.12-0.56-0.11-0.79c-0.09-0.09-0.21-0.17-0.31-0.25
		c-1.82-1.35-3.65-2.68-5.72-3.62c-1.78-0.81-3.62-1.52-5.49-2.12c-2.29-0.73-4.48-1.66-6.69-2.58c-0.86-0.36-1.45-0.92-1.77-1.84
		c-0.7-1.98-1.64-3.87-2.7-5.68c-0.38-0.65-0.8-1.27-1.27-2c0.47-0.01,0.88-0.06,1.29-0.02c2.07,0.19,4.1,0.55,6.12,1.04
		c0.88,0.21,1.8,0.35,2.71,0.4c1.12,0.06,2.2,0.25,3.24,0.62c1.8,0.63,3.58,1.33,5.36,2c0.15,0.06,0.3,0.13,0.45,0.18
		c0.29,0.07,0.55,0.03,0.68-0.27c0.14-0.33,0-0.58-0.28-0.75c-0.11-0.07-0.24-0.11-0.37-0.16c-1.93-0.73-3.85-1.52-5.81-2.17
		c-0.96-0.32-2-0.38-3.01-0.54c-0.98-0.16-1.97-0.28-2.95-0.45c-1.86-0.32-3.71-0.68-5.57-0.97c-0.63-0.1-1.29-0.03-1.93-0.01
		c-0.55,0.02-0.95-0.15-1.26-0.66c-0.65-1.05-1.37-2.06-2.06-3.09c-0.07-0.11-0.13-0.23-0.23-0.41c0.53-0.07,1-0.12,1.47-0.19
		c2.03-0.28,4-0.84,5.95-1.43c4.3-1.3,8.72-1.89,13.19-2.02c1.94-0.06,3.87,0.2,5.77,0.65c1.65,0.39,3.28,0.84,4.92,1.27
		c0.13,0.03,0.28,0.1,0.39,0.07c0.16-0.05,0.37-0.15,0.44-0.28c0.07-0.14,0.04-0.41-0.06-0.51c-0.18-0.19-0.42-0.35-0.66-0.42
		c-3.4-1.08-6.87-1.86-10.45-1.9c-2.26-0.03-4.5,0.26-6.75,0.54c-2.79,0.35-5.48,1.07-8.18,1.83c-1.65,0.46-3.34,0.79-5.02,1.18
		c-0.16,0.04-0.32,0.06-0.48,0.06c-1.46-0.01-1.74,0.1-2.3-1.59c0.29-0.1,0.58-0.21,0.87-0.31c1.51-0.51,2.73-1.49,3.93-2.49
		c1.71-1.43,3.4-2.9,5.18-4.25c2.23-1.69,4.67-3.06,7.53-3.27c1.74-0.13,3.49-0.03,5.24-0.01c0.59,0.01,1.18,0.09,1.77,0.1
		c0.52,0,0.75-0.19,0.73-0.54c-0.03-0.42-0.35-0.52-0.68-0.54c-1.75-0.1-3.49-0.21-5.24-0.25c-4.5-0.1-8.12,1.96-11.45,4.73
		c-1.64,1.36-3.27,2.72-4.9,4.08c-0.75,0.63-1.6,1.09-2.51,1.44c-0.87,0.34-1.41,0.02-1.32-0.93c0.16-1.84,0.13-3.72,0.71-5.51
		c0.68-2.1,1.39-4.18,2.45-6.13c1.17-2.16,3.04-3.42,5.23-4.34c1.41-0.59,2.91-0.79,4.4-0.96c0.91-0.1,1.87,0.1,2.8,0.26
		c1.62,0.28,3.22,0.65,4.83,0.96c1.75,0.34,3.43,0.84,5.03,1.66c1.26,0.65,2.6,1.15,3.92,1.7c1.44,0.6,2.89,1.16,4.32,1.78
		c0.75,0.32,1.37,0.83,1.94,1.42c1.13,1.15,2.31,2.26,3.46,3.39c0.48,0.47,0.94,0.97,1.36,1.49c0.1,0.13,0.14,0.42,0.06,0.56
		c-0.13,0.22-0.37,0.16-0.55-0.01c-0.97-0.89-2.25-0.99-3.44-1.28c-2.27-0.54-4.58-0.47-6.9-0.45c-2.26,0.01-4.43,0.47-6.61,0.91
		c-0.71,0.14-1.39,0.43-2.06,0.69C189.74,177.56,189.51,177.78,189.25,177.96z M209.67,213.04c0.03-0.02,0.07-0.03,0.1-0.05
		c-0.08-0.21-0.15-0.42-0.24-0.62c-1.04-2.2-2.32-4.26-3.85-6.14c-1.56-1.92-3.19-3.78-4.82-5.64c-1.65-1.88-3.86-2.78-6.23-3.29
		c-2.01-0.43-3.95,0.04-5.87,0.58c-0.67,0.19-0.79,0.66-0.25,1.1c0.37,0.3,0.81,0.52,1.25,0.71c1.55,0.68,3.11,1.34,4.67,1.98
		c3.45,1.4,6.56,3.31,9.32,5.81c1.05,0.96,2.19,1.82,3.25,2.77c0.78,0.7,1.49,1.47,2.22,2.22
		C209.38,212.65,209.52,212.85,209.67,213.04z M145.3,196.33c0.07,0.07,0.15,0.14,0.22,0.21c0.05-0.1,0.07-0.22,0.15-0.29
		c1-1.01,2-2.02,3.02-3.03c1.72-1.7,3.43-3.41,5.17-5.09c0.69-0.67,1.46-1.27,2.15-1.95c0.3-0.29,0.57-0.66,0.74-1.04
		c0.32-0.7-0.06-1.15-0.82-1.07c-1.04,0.12-1.97,0.54-2.82,1.12c-2.48,1.68-4.51,3.82-6.15,6.31
		C145.99,192.96,145.49,194.6,145.3,196.33z"/>
	<path class="st0" d="M128.55,69.1c1.21-1.62,2.35-3.15,3.51-4.7c0.11,0.01,0.21,0.01,0.31,0.03c1.24,0.23,2.48,0.49,3.73,0.67
		c2.16,0.32,4.3,0.71,6.37,1.42c0.33,0.11,0.64,0.18,0.85-0.18c0.17-0.29,0.02-0.63-0.4-0.85c-0.28-0.15-0.6-0.24-0.91-0.33
		c-1.92-0.53-3.87-0.95-5.85-1.18c-0.78-0.09-1.55-0.2-2.32-0.33c-0.31-0.05-0.61-0.15-1.08-0.27c0.25-0.17,0.35-0.26,0.46-0.29
		c2.07-0.69,4.14-1.36,6.32-1.66c2.11-0.3,4.14,0.05,6.12,0.7c0.86,0.28,1.71,0.65,2.49,1.1c0.51,0.3,0.88,0.84,1.32,1.27
		c1.3,1.25,2.39,2.69,3.54,4.07c0.76,0.91,1.36,1.93,1.72,3.08c0.42,1.33,0.42,2.64-0.02,3.96c-0.25,0.74-0.41,1.5-0.57,2.26
		c-0.07,0.33,0.03,0.65,0.16,1c0.18,0.51,0.21,1.11,0.16,1.65c-0.07,0.72-0.28,1.43-0.46,2.13c-0.09,0.33-0.22,0.67-0.39,0.97
		c-0.93,1.67-1.87,3.33-2.81,4.99c-0.43,0.75-0.9,1.47-1.32,2.22c-0.12,0.22-0.2,0.49-0.21,0.74c-0.05,1.53-0.47,2.9-1.53,4.06
		c-0.52,0.57-0.92,1.26-1.43,1.85c-0.46,0.52-0.95,1.03-1.49,1.46c-1.58,1.26-3.2,2.46-4.77,3.72c-0.65,0.52-1.23,1.12-1.85,1.68
		c-0.12,0.11-0.21,0.25-0.35,0.33c-0.31,0.2-0.6,0.05-0.64-0.31c-0.01-0.13,0.01-0.27,0.03-0.4c0.15-1.34,0.27-2.68,0.45-4.01
		c0.2-1.48,0.19-2.96-0.06-4.43c-0.22-1.3-0.5-2.59-0.77-3.88c-0.15-0.71-0.36-1.41-0.48-2.13c-0.35-2.23-1.08-4.33-2.03-6.36
		c-0.63-1.34-1.52-2.48-2.74-3.32c-0.77-0.53-1.62-0.84-2.58-0.71c-0.66,0.09-0.79,0.21-0.75,0.89c0.08,1.29,0.48,2.51,1.22,3.54
		c1.5,2.1,2.48,4.39,2.92,6.92c0.3,1.78,0.59,3.56,0.86,5.34c0.31,2.1,0.61,4.21,0.88,6.32c0.08,0.64,0.12,1.29,0.11,1.93
		c-0.01,1.4-0.54,2.55-1.69,3.41c-1.71,1.27-3.52,2.26-5.69,2.49c-1.12,0.12-2.24,0.31-3.35,0.52c-0.66,0.12-1.3,0.34-1.95,0.52
		c-0.21,0.06-0.41,0.14-0.62,0.17c-0.51,0.07-0.72-0.19-0.54-0.66c0.07-0.17,0.16-0.34,0.26-0.5c0.9-1.44,1.38-3,1.62-4.69
		c0.47-3.2,0.7-6.42,1-9.64c0.24-2.62-0.31-5.04-1.65-7.27c-0.3-0.51-0.85-0.87-1.31-1.28c-0.75-0.67-2.2-0.11-2.52,0.87
		c-0.18,0.56-0.36,1.15-0.37,1.73c-0.04,2.04-0.07,4.09,0.01,6.13c0.05,1.42,0.28,2.84,0.43,4.26c0.04,0.35,0.08,0.7,0.06,1.05
		c-0.11,1.88-0.16,3.77-0.38,5.64c-0.11,0.88-0.45,1.79-0.89,2.57c-0.78,1.42-2.17,2.14-3.71,2.27c-2.25,0.2-4.52,0.18-6.76-0.21
		c-2.81-0.49-5.62-0.52-8.45-0.23c-0.37,0.04-0.75,0.1-1.11,0.21c-0.55,0.16-1.05,0.41-1.27,1.02c-0.08,0.23-0.22,0.48-0.52,0.39
		c-0.34-0.1-0.31-0.4-0.29-0.67c0.2-1.96-0.1-3.88-0.51-5.77c-0.31-1.42-0.73-2.81-1.11-4.22c-1.22-4.49-2.51-8.97-3.46-13.53
		c-0.26-1.24-0.45-2.51-0.13-3.76c0.42-1.64,1.46-2.74,3.07-3.25c1.02-0.32,2.08-0.56,3.14-0.74c3.19-0.53,6.38-1.03,9.57-1.51
		c0.77-0.12,1.56-0.13,2.33-0.21c1.45-0.15,2.89-0.3,4.34-0.46c0.16-0.02,0.32-0.05,0.47-0.12c0.64-0.32,0.67-0.81,0.08-1.23
		c-0.54-0.38-1.12-0.61-1.79-0.67c-1.07-0.09-2.15-0.18-3.21-0.35c-3.53-0.55-7.02-0.42-10.51,0.34c-1.66,0.36-3.33,0.62-5,0.92
		c-0.45,0.08-0.95,0.22-1.26-0.25c-0.31-0.48-0.04-0.94,0.24-1.34c0.86-1.25,1.51-2.59,1.96-4.05c0.46-1.52,1.02-3.01,1.62-4.47
		c0.62-1.51,1.75-2.36,3.44-2.29c0.59,0.02,1.19,0.05,1.76,0.18c2.24,0.5,4.5,0.77,6.79,0.92c1.82,0.12,3.63,0.46,5.43,0.73
		c1.89,0.29,3.77,0.63,5.66,0.9c0.63,0.09,1.29,0.05,1.93-0.01c0.58-0.05,0.87-0.57,0.66-1.12c-0.16-0.43-0.41-0.8-0.87-1
		c-1.4-0.61-2.77-1.32-4.2-1.86c-1.71-0.64-3.46-1.17-5.28-1.48c-1.51-0.26-3.01-0.6-4.51-0.89c-1.19-0.23-2.39-0.35-3.61-0.15
		c-1.25,0.2-2.39,0.63-3.38,1.43c-0.17,0.13-0.34,0.3-0.53,0.36c-0.18,0.06-0.47,0.06-0.57-0.04c-0.1-0.1-0.08-0.41,0.01-0.57
		c0.39-0.74,0.79-1.47,1.24-2.17c1.23-1.95,2.77-3.63,4.48-5.17c0.76-0.68,1.5-1.39,2.27-2.06c0.85-0.74,1.77-1.33,2.98-1.19
		c0.17,0.02,0.37-0.06,0.54-0.13c1.17-0.49,2.32-0.99,3.49-1.47c3.58-1.49,7.12-1.47,10.61,0.28c0.53,0.26,1.04,0.58,1.59,0.79
		c0.85,0.31,1.72,0.61,2.61,0.8c2.19,0.47,3.69,1.81,4.74,3.7c0.53,0.95,0.52,2.03,0.4,3.08c-0.1,0.91-0.35,1.79-0.5,2.69
		c-0.07,0.38-0.3,0.75-0.02,1.16c0.05,0.07-0.12,0.3-0.24,0.59c-0.26-0.3-0.45-0.51-0.63-0.73c-1.27-1.56-2.53-3.14-3.82-4.68
		c-0.77-0.93-1.79-1.54-2.9-1.98c-0.26-0.1-0.6-0.15-0.85-0.06c-0.19,0.07-0.39,0.38-0.41,0.6c-0.01,0.14,0.27,0.42,0.45,0.45
		c1.16,0.19,1.99,0.9,2.79,1.67c0.4,0.39,0.74,0.85,1.09,1.29c0.95,1.16,1.9,2.33,2.84,3.5c0.23,0.29,0.44,0.6,0.7,0.97
		c-0.55,0.65-1.09,1.28-1.65,1.95c-1.53-0.18-2.96-0.86-4.29-1.73c-1.67-1.08-3.3-2.23-4.97-3.32c-2.85-1.86-5.84-3.36-9.35-3.36
		c-0.38,0-0.75,0.02-1.12,0.09c-0.2,0.04-0.44,0.14-0.55,0.29c-0.12,0.17-0.18,0.46-0.12,0.64c0.04,0.13,0.35,0.24,0.53,0.24
		c0.56-0.01,1.12-0.14,1.68-0.12c2.06,0.06,3.94,0.76,5.76,1.67c1.38,0.69,2.65,1.54,3.88,2.45c1.61,1.19,3.3,2.23,5.07,3.15
		c0.71,0.37,1.5,0.57,2.26,0.85c0.17,0.06,0.35,0.1,0.57,0.17c-1.49,2.15-2.96,4.22-4.64,6.15c-0.61-0.21-1.17-0.42-1.73-0.6
		c-4.76-1.51-9.6-2.41-14.62-2.08c-0.54,0.04-1.07,0.12-1.6,0.22c-0.34,0.07-0.6,0.27-0.55,0.67c0.04,0.3,0.34,0.47,0.76,0.4
		c3.48-0.52,6.92-0.19,10.35,0.5c2.03,0.41,4.07,0.78,6.01,1.55c0.17,0.07,0.34,0.13,0.62,0.24c-0.2,0.27-0.34,0.52-0.53,0.73
		c-0.92,1.05-1.87,2.08-2.78,3.15c-1.1,1.29-2.16,2.61-3.24,3.92c-0.24,0.29-0.47,0.59-0.72,0.88c-2.92,3.32-5.52,6.89-8.19,10.41
		c-1.04,1.37-2.09,2.74-3.1,4.13c-0.46,0.63-0.84,1.31-1.22,2c-0.3,0.55-0.24,0.91,0.08,1.07c0.32,0.15,0.62-0.01,0.92-0.57
		c0.84-1.58,1.93-2.97,3.05-4.36c1.1-1.36,2.08-2.81,3.15-4.2c1.43-1.86,2.86-3.71,4.33-5.54c1.6-1.99,3.24-3.96,4.87-5.93
		c0.7-0.84,1.46-1.65,2.22-2.51c0.14,0.16,0.24,0.24,0.3,0.34c0.77,1.45,1.58,2.88,2.28,4.36c1.65,3.48,2.32,7.21,2.54,11.03
		c0.07,1.26,0.13,2.53,0.19,3.79c0.01,0.13-0.02,0.3,0.06,0.39c0.12,0.15,0.3,0.35,0.47,0.36c0.16,0.01,0.4-0.16,0.49-0.32
		c0.11-0.2,0.12-0.47,0.12-0.71c-0.09-2.88-0.26-5.76-0.79-8.6c-0.74-4.02-2.4-7.69-4.57-11.13c-0.07-0.11-0.14-0.23-0.24-0.4
		c1.77-2.22,3.53-4.45,5.27-6.64c1.55,1.56,3.09,3.06,4.57,4.61c2.07,2.16,3.96,4.46,5.3,7.17c0.73,1.47,1.58,2.88,2.37,4.31
		c0.06,0.12,0.13,0.27,0.23,0.32c0.2,0.08,0.49,0.2,0.64,0.12c0.15-0.08,0.2-0.38,0.26-0.6c0.02-0.08-0.06-0.2-0.11-0.3
		c-1.36-2.41-2.63-4.88-4.11-7.21c-1.22-1.93-2.76-3.64-4.43-5.22c-1.21-1.15-2.35-2.37-3.5-3.57
		C128.87,69.64,128.73,69.37,128.55,69.1z M144.04,83.06c0.04-0.03,0.07-0.07,0.11-0.1c-0.02-0.07-0.03-0.15-0.06-0.22
		c-1.14-2.56-2.61-4.93-4.27-7.19c-0.71-0.97-1.52-1.81-2.58-2.38c-0.19-0.1-0.38-0.21-0.59-0.25c-0.66-0.15-1.04,0.21-0.84,0.84
		c0.12,0.4,0.34,0.8,0.62,1.11c1.17,1.33,2.38,2.63,3.59,3.92c1.08,1.16,2.2,2.28,3.29,3.43C143.57,82.49,143.8,82.78,144.04,83.06z
		 M152.88,77.5c-0.16-0.94-0.48-1.76-0.87-2.55c-0.7-1.42-1.83-2.42-3.19-3.2c-1.41-0.82-3-1.14-4.5-1.74
		c-0.05-0.02-0.13,0.04-0.29,0.1c0.33,0.28,0.59,0.55,0.9,0.75c1.94,1.29,3.58,2.89,5.09,4.66
		C150.76,76.39,151.68,77.11,152.88,77.5z M110.83,53.26c0.09,0.06,0.17,0.12,0.26,0.17c1.38,0.78,2.78,1.52,4.14,2.34
		c1.85,1.11,3.79,2.03,5.81,2.78c0.28,0.1,0.59,0.31,0.98,0c-0.68-1.06-1.79-1.59-2.74-2.28C116.77,54.46,113.95,53.45,110.83,53.26
		z M131.55,70.15c0.4,0.21,0.79,0.44,1.2,0.62c0.45,0.2,0.89,0.12,1.32-0.1c0.42-0.22,0.52-0.41,0.32-0.84
		c-0.28-0.61-0.57-1.22-0.94-1.77c-0.31-0.46-0.72-0.86-1.14-1.22c-0.41-0.35-1.01-0.3-1.42,0.01c-0.34,0.26-0.62,0.99-0.49,1.36
		C130.65,68.93,130.98,69.6,131.55,70.15z M131.08,77.07c0.06-0.05,0.12-0.11,0.18-0.16c-0.07-0.3-0.09-0.63-0.22-0.9
		c-0.47-0.96-0.97-1.91-1.49-2.84c-0.18-0.32-0.47-0.58-0.72-0.85c-0.4-0.44-0.94-0.36-1.43-0.33c-0.33,0.02-0.56,0.38-0.46,0.72
		c0.14,0.46,0.3,0.93,0.56,1.33c0.76,1.2,1.82,2.1,3.03,2.83C130.68,76.96,130.89,77,131.08,77.07z"/>
	<path class="st0" d="M100.43,194.64c0.26,2.54,0.25,4.97-0.56,7.35c-0.3,0.89-0.6,1.79-0.89,2.68c-0.04,0.13-0.14,0.27-0.12,0.38
		c0.04,0.19,0.11,0.45,0.26,0.53c0.14,0.08,0.43,0.04,0.58-0.06c0.16-0.11,0.29-0.32,0.36-0.52c0.83-2.36,1.67-4.73,1.64-7.29
		c-0.01-0.7-0.06-1.4-0.09-2.1c-0.01-0.23-0.01-0.46-0.02-0.85c0.67,0.42,1.26,0.73,1.78,1.13c1.11,0.85,2.18,1.75,3.27,2.63
		c1.29,1.05,2.34,2.31,3.1,3.78c0.26,0.49,0.47,1.05,0.52,1.6c0.17,1.68,0.02,3.37-0.67,4.91c-1.09,2.44-2.9,4.15-5.53,4.94
		c-1.87,0.56-3.77,0.96-5.7,0.97c-2.12,0.02-4.24-0.15-6.36-0.34c-1.52-0.14-3.04-0.41-4.55-0.69c-1.75-0.33-3.46-0.81-5.08-1.57
		c-0.28-0.13-0.55-0.28-0.5-0.64c0.05-0.37,0.36-0.45,0.67-0.46c1.28-0.03,2.4-0.56,3.52-1.1c2.14-1.02,4.16-2.24,6.02-3.72
		c1.55-1.24,2.88-2.66,3.88-4.39c0.04-0.07,0.08-0.14,0.12-0.21c0.14-0.27,0.3-0.56,0.02-0.81c-0.25-0.22-0.51-0.06-0.73,0.1
		c-1.39,0.96-2.81,1.89-4.17,2.9c-1.86,1.39-3.83,2.6-5.97,3.5c-1.11,0.47-2.24,0.9-3.36,1.37c-1.28,0.54-2.54,0.38-3.77-0.13
		c-0.59-0.25-1.17-0.58-1.66-0.98c-1.96-1.59-3.89-3.23-5.84-4.85c-0.08-0.07-0.16-0.14-0.24-0.21c-0.22-0.19-0.37-0.41-0.25-0.71
		c0.14-0.33,0.44-0.37,0.74-0.35c0.35,0.03,0.7,0.06,1.04,0.15c1.56,0.4,3.1,0.22,4.62-0.21c2.12-0.6,4.23-1.25,6.36-1.84
		c0.83-0.23,1.68-0.38,2.52-0.54c1.77-0.33,3.03-1.44,4.16-2.74c0.13-0.14,0.18-0.5,0.09-0.64c-0.1-0.16-0.43-0.29-0.62-0.24
		c-0.62,0.14-1.24,0.34-1.84,0.57c-1,0.38-1.99,0.8-2.99,1.21c-0.75,0.3-1.51,0.58-2.24,0.92c-1.34,0.64-2.73,1.13-4.2,1.41
		c-1.08,0.21-2.13,0.61-3.22,0.73c-1.33,0.15-2.68,0.13-4.02,0.14c-0.51,0.01-0.93-0.29-1.23-0.68c-0.4-0.51-0.76-1.04-1.13-1.57
		c-0.54-0.77-1.08-1.54-1.62-2.31c-0.46-0.66-0.91-1.33-1.36-2c-0.1-0.16-0.2-0.32-0.28-0.49c-0.15-0.35-0.32-0.72,0.03-1.04
		c0.31-0.29,0.65-0.18,0.98-0.02c2.97,1.43,6.09,1.42,9.24,0.84c2.22-0.41,4.44-0.85,6.63-1.38c1.16-0.28,2.38-0.5,3.38-1.32
		c-0.24-0.3-0.54-0.18-0.81-0.14c-1.36,0.18-2.71,0.4-4.07,0.57c-1.65,0.21-3.31,0.4-4.96,0.56c-1.91,0.18-3.82-0.03-5.72-0.17
		c-0.86-0.06-1.72-0.16-2.57-0.29c-1.34-0.21-1.83-0.71-1.99-2.04c-0.22-1.73-0.41-3.47-0.59-5.21c-0.05-0.45-0.06-0.92-0.02-1.37
		c0.12-1.12,0.87-1.49,1.81-0.88c0.38,0.25,0.74,0.54,1.08,0.85c1.15,1.02,2.42,1.73,3.98,1.99c1.72,0.28,3.4,0.84,5.17,0.81
		c0.7-0.01,1.39-0.08,2.09-0.17c0.39-0.05,0.77-0.2,1.08-0.5c-0.15-0.36-0.43-0.35-0.68-0.4c-1.91-0.34-3.82-0.65-5.72-1.02
		c-0.65-0.13-1.29-0.38-1.92-0.6c-0.91-0.32-1.84-0.62-2.72-1.02c-0.53-0.24-1.02-0.6-1.45-1c-0.66-0.62-0.97-1.45-0.79-2.35
		c0.16-0.81,0.39-1.62,0.69-2.39c0.34-0.88,0.84-1.69,1.2-2.56c0.26-0.64,0.44-1.32,0.59-2c0.15-0.68,0.44-0.9,1.07-0.56
		c1.04,0.55,2.08,0.51,3.12,0.08c0.84-0.35,1.69-0.72,2.47-1.19c1.43-0.85,2.97-1.23,4.61-1.29c0.65-0.03,1.21,0.19,1.72,0.57
		c1.09,0.8,1.83,1.88,2.53,3.01c1.44,2.32,2.51,4.81,3.35,7.42c0.16,0.5,0.39,0.98,0.65,1.64c0.34-0.67,0.49-1.19,0.35-1.76
		c-0.81-3.28-2.02-6.37-4.3-8.93c-0.52-0.58-1.12-1.09-1.68-1.62c-0.16-0.15-0.37-0.25-0.48-0.43c-0.11-0.19-0.23-0.48-0.16-0.64
		c0.07-0.17,0.37-0.37,0.56-0.35c0.64,0.05,1.27,0.18,1.91,0.28c0.58,0.09,1.16,0.22,1.74,0.24c1.68,0.05,3.04,0.69,3.9,2.16
		c1.23,2.1,2.15,4.33,2.81,6.68c0.5,1.79,1.17,3.52,1.79,5.28c0.11,0.31,0.32,0.58,0.62,0.83c0.02-0.18,0.06-0.36,0.04-0.54
		c-0.26-3.07-0.71-6.09-1.93-8.96c-0.58-1.37-1.3-2.66-2.25-3.81c-0.39-0.47-0.89-0.86-1.35-1.27c-0.24-0.21-0.42-0.44-0.29-0.76
		c0.13-0.32,0.41-0.43,0.73-0.37c0.4,0.07,0.81,0.12,1.17,0.27c1.36,0.57,2.76,0.85,4.24,0.93c1.14,0.06,2.23,0.37,3.24,0.91
		c1.49,0.8,2.3,2.14,2.89,3.66c0.93,2.37,1,4.77,0.35,7.21c-0.35,1.33-0.69,2.66-1.36,3.88c-0.4,0.73-0.54,1.52-0.23,2.34
		c0.21,0.57,0.42,0.65,0.88,0.26c0.71-0.59,1.31-1.25,1.56-2.19c0.62-2.41,1.15-4.83,0.82-7.33c-0.12-0.93-0.38-1.84-0.62-2.75
		c-0.2-0.75-0.45-1.49-0.7-2.24c-0.11-0.33-0.15-0.65,0.14-0.89c0.3-0.25,0.62-0.11,0.9,0.05c0.3,0.17,0.59,0.38,0.89,0.55
		c0.28,0.15,0.57,0.3,0.88,0.39c1.98,0.63,3.77,1.57,5.14,3.18c1.31,1.54,2.67,3.03,3.91,4.62c1.28,1.63,2.14,3.48,2.56,5.52
		c0.27,1.29,0.47,2.59,0.43,3.92c-0.06,2.22-0.78,4.15-2.29,5.79c-1.16,1.26-2.51,1.86-4.29,1.77c-1.94-0.1-3.77-0.63-5.62-1.06
		c-1.09-0.25-2-0.98-2.98-1.71c0.29-0.16,0.49-0.29,0.7-0.38c0.85-0.35,1.69-0.71,2.55-1.03c1.31-0.5,2.58-1.08,3.76-1.84
		c1.1-0.7,2.06-1.55,2.83-2.61c0.47-0.65,0.98-1.29,1.43-1.95c0.17-0.26,0.31-0.58,0.33-0.88c0.01-0.18-0.2-0.48-0.37-0.53
		c-0.17-0.05-0.48,0.09-0.6,0.25c-0.51,0.69-0.98,1.41-1.46,2.12c-1.17,1.78-2.89,2.87-4.77,3.73c-0.83,0.38-1.7,0.67-2.54,1.04
		c-0.81,0.35-1.63,0.72-2.4,1.15c-0.44,0.24-0.78,0.25-1.18-0.03c-0.46-0.32-0.94-0.64-1.43-0.92c-0.93-0.53-1.23-1.38-1.17-2.38
		c0.06-1.18,0.15-2.36,0.27-3.54c0.17-1.71,0.32-3.43,0.57-5.14c0.43-2.86-0.17-5.51-1.44-8.05c-0.15-0.31-0.37-0.6-0.6-0.85
		c-0.22-0.24-0.52-0.31-0.8-0.08c-0.28,0.24-0.2,0.52-0.03,0.8c0.96,1.53,1.61,3.18,1.79,4.97c0.1,0.98,0.04,1.99-0.04,2.98
		c-0.23,2.76-0.51,5.52-0.77,8.28c-0.04,0.45-0.05,0.91-0.07,1.44c-0.17-0.08-0.34-0.14-0.47-0.23c-0.88-0.58-1.72-1.21-2.63-1.73
		c-0.79-0.45-0.99-1.13-1.04-1.94c-0.06-0.94-0.15-1.88-0.2-2.82c-0.09-1.95-0.57-3.83-1.07-5.7c-0.24-0.91-0.45-1.83-0.72-2.73
		c-0.33-1.09-0.87-2.09-1.58-2.98c-0.2-0.25-0.45-0.47-0.71-0.65c-0.24-0.17-0.53-0.13-0.73,0.1c-0.2,0.24-0.17,0.5,0.06,0.72
		c1.49,1.44,2.01,3.33,2.46,5.26c0.17,0.73,0.36,1.46,0.55,2.19c0.54,2.04,0.68,4.14,0.83,6.23c0.01,0.18-0.02,0.37-0.03,0.57
		c-0.12-0.04-0.2-0.06-0.26-0.1c-1.83-1.24-3.65-2.49-5.49-3.7c-0.6-0.4-0.91-0.9-0.84-1.61c0.27-2.93-1.23-5.22-2.76-7.48
		c-0.18-0.26-0.45-0.47-0.71-0.65c-0.25-0.17-0.57-0.13-0.7,0.14c-0.09,0.17-0.08,0.52,0.04,0.65c1.01,1.04,1.61,2.35,2.3,3.59
		c0.65,1.17,0.83,2.42,0.68,3.84c-0.47-0.32-0.87-0.58-1.26-0.85c-1.61-1.12-3.21-2.27-4.85-3.35c-0.58-0.38-1.24-0.65-1.88-0.92
		c-0.19-0.08-0.49-0.03-0.67,0.07c-0.3,0.18-0.26,0.59,0.02,0.82c0.04,0.03,0.09,0.06,0.14,0.08c2.47,1.07,4.51,2.82,6.71,4.31
		c1.78,1.21,3.53,2.46,5.29,3.7c0.06,0.04,0.11,0.11,0.25,0.26c-0.55,0.18-1.04,0.34-1.53,0.49c-1.9,0.58-3.8,1.17-5.72,1.72
		c-1.29,0.37-2.61,0.28-3.93,0.17c-0.88-0.07-1.76-0.21-2.64-0.32c-0.13-0.02-0.27-0.04-0.4-0.05c-0.28-0.03-0.52,0.11-0.54,0.37
		c-0.01,0.2,0.13,0.44,0.26,0.62c0.08,0.11,0.29,0.14,0.44,0.17c1.97,0.25,3.94,0.61,5.94,0.35c0.56-0.07,1.1-0.22,1.64-0.37
		c1.7-0.5,3.4-1.01,5.1-1.53c0.69-0.21,1.38-0.47,2.07-0.7c0.29-0.1,0.55-0.11,0.83,0.09c1.57,1.12,3.16,2.23,4.85,3.41
		c-0.33,0.17-0.56,0.29-0.79,0.4c-1.83,0.85-3.66,1.7-5.5,2.53c-2.07,0.94-4.2,1.67-6.48,1.88c-0.91,0.08-1.82,0.19-2.73,0.28
		c-0.11,0.01-0.24-0.01-0.31,0.05c-0.15,0.13-0.39,0.31-0.38,0.45c0.02,0.19,0.19,0.48,0.36,0.53c0.29,0.1,0.64,0.09,0.95,0.05
		c1.79-0.2,3.59-0.31,5.33-0.84c1.55-0.47,3.07-1.01,4.51-1.76c1.84-0.96,3.72-1.83,5.67-2.55c0.31-0.11,0.61-0.2,0.92,0.01
		c1.35,0.89,2.7,1.76,4.2,2.74c-0.38,0.17-0.63,0.3-0.89,0.38c-1.49,0.48-2.71,1.39-3.9,2.38c-1.98,1.65-3.97,3.32-6.27,4.53
		c-1.13,0.6-2.4,0.95-3.62,1.37c-0.29,0.1-0.64,0.05-0.96,0.05c-0.28,0-0.47,0.13-0.54,0.39c-0.09,0.32,0.09,0.57,0.36,0.63
		c0.36,0.08,0.76,0.15,1.1,0.06c1.97-0.48,3.9-1.09,5.55-2.31c1.84-1.35,3.66-2.73,5.43-4.17
		C97.29,195.89,98.74,195.14,100.43,194.64z"/>
	<g>
		<path d="M82.93,118.89c-2.14-0.77-3.98,1.41-6.46,5.46c-1.75,2.86-3.76,6.7-5.38,10.27c-1.75,3.87-3.03,7.49-4.05,10.4
			c-1.3,3.7-2.78,7.9-3.96,7.9c-0.12,0-0.29,0-0.55-0.34c-3.09-3.98-0.15-23.92,1.42-30.1c0.27-1.07-0.37-2.16-1.44-2.43
			c-1.07-0.27-2.16,0.37-2.43,1.44c-0.01,0.05-0.23,1.04-0.55,2.65c-0.75,1.94-2.32,3.81-4.55,5.32c-2.84,1.93-6.19,3.16-9.21,3.38
			c-1.05,0.08-1.85,0.88-1.85,1.87c0,0.51,0.24,1.03,0.63,1.4c0.33,0.31,0.74,0.48,1.15,0.48c0.04,0,0.08,0,0.11,0
			c4.35-0.32,8.95-2.08,12.42-4.87c-1.19,8.3-2,19.27,1.13,23.31c0.96,1.23,2.24,1.88,3.71,1.88c4.02,0,5.58-4.43,7.74-10.57
			c1.05-2.99,2.24-6.37,3.92-10.08c1.79-3.94,3.8-7.67,5.4-10.24c-0.13,1.03-0.27,2.13-0.41,3.19c-1.29,9.86-3.07,23.36,0.17,29.87
			c0.35,0.7,1.06,1.11,1.79,1.11c0.3,0,0.6-0.07,0.89-0.21c0.99-0.49,1.39-1.69,0.9-2.68c-2.69-5.42-0.87-19.29,0.22-27.57
			C84.76,121.59,85.01,119.65,82.93,118.89z"/>
		<path d="M152.59,112.4c-1.59-1.06-3.68-1.27-5.91-0.59c-4.71,1.44-10.04,8.78-14.07,18.01c0.11-1.22,0.22-2.44,0.34-3.66
			c0.15-1.57,0.31-3.15,0.47-4.73c0.11-1.1-0.68-2.08-1.78-2.2c-1.1-0.11-2.08,0.68-2.2,1.78c-0.17,1.58-0.32,3.17-0.48,4.75
			c-0.31,3.18-0.58,6.33-0.83,9.47c-0.18,0.32-0.37,0.66-0.57,1.02c-2.41,4.35-7.43,13.4-11.36,13.4c-1.97,0-2.81-2.28-3.08-3.26
			c-0.71-2.57-0.77-5.39-0.78-8.06c0-2.18,0.08-4.42,0.17-6.59c0.03-0.84,0.07-1.67,0.09-2.51c0.09-2.85-0.88-4.96-2.62-5.65
			c-0.68-0.27-2.48-0.68-4.4,1.47c-4.27,4.79-8.3,12.4-11.17,20.75c-0.04-7.88,0.3-17.86,1.42-25.02c0.17-1.09-0.57-2.12-1.67-2.29
			s-2.11,0.57-2.29,1.67c-2.09,13.26-1.63,35.7-0.72,39.06c0.24,0.88,1.03,1.48,1.93,1.48c0.03,0,0.06,0,0.09,0
			c0.93-0.04,1.72-0.72,1.88-1.65c2.13-11.89,7.65-24.73,13.44-31.27c0.07,0.31,0.12,0.75,0.1,1.31c-0.03,0.83-0.06,1.66-0.09,2.49
			c-0.09,2.21-0.18,4.49-0.17,6.76c0.01,2.94,0.08,6.07,0.92,9.11c1.07,3.88,3.66,6.2,6.94,6.2c4.37,0,8.19-4.49,11.26-9.3
			c-0.06,0.89-0.13,1.8-0.19,2.69c-0.42,2.31-0.72,4.6-0.87,6.82c0,0.04,0,0.08,0,0.13c-0.53,0.09-1.05,0.14-1.56,0.15
			c-1.1,0.01-1.99,0.92-1.97,2.03c0.01,1.1,0.91,1.97,2,1.97c0.01,0,0.02,0,0.03,0c0.61-0.01,1.21-0.07,1.81-0.16
			c-0.63,14.91-0.66,29.5-0.08,44.04c0.04,1.08,0.93,1.92,2,1.92c0.03,0,0.05,0,0.08,0c1.1-0.04,1.96-0.98,1.92-2.08
			c-0.59-14.85-0.55-29.75,0.14-45.01c4.36-1.82,8.15-5.25,10.86-8.27c8.41-9.36,14.4-23.12,13.63-31.33
			C155.07,115.14,154.12,113.42,152.59,112.4z M138.65,145.9c-2.55,2.84-5.15,4.99-7.66,6.38c0.08-1.56,0.17-3.13,0.27-4.71
			c2.78-14.76,11.11-30.27,16.59-31.94c0.48-0.15,0.93-0.22,1.33-0.22c0.47,0,0.88,0.1,1.19,0.31c0.65,0.44,0.86,1.27,0.91,1.9
			C151.93,124.6,146.15,137.55,138.65,145.9z"/>
		<path d="M207.27,118.89c-2.14-0.77-3.99,1.41-6.46,5.46c-1.75,2.86-3.76,6.7-5.38,10.27c-1.75,3.87-3.03,7.49-4.05,10.4
			c-1.3,3.7-2.78,7.9-3.96,7.9c-0.12,0-0.29,0-0.55-0.34c-3.09-3.98-0.15-23.92,1.42-30.1c0.27-1.07-0.37-2.16-1.44-2.43
			c-1.07-0.27-2.16,0.37-2.43,1.44c-0.03,0.12-1.42,6.35-2.27,13.52c-0.02,0.03-0.04,0.06-0.06,0.09c-1.34,2.55-2.71,5.91-4.16,9.47
			c-3,7.36-7.52,18.47-11.48,18.47c-0.01,0-0.03,0-0.04,0c-0.49-0.01-1.02-0.35-1.56-1c-2.55-3.06-4.4-11.32-4.14-23.88
			c0.04-0.05,0.08-0.1,0.12-0.16c17.98-26.8,23.93-50.66,20.41-59.51c-1.03-2.58-2.67-3.44-3.87-3.71c-0.98-0.22-2.49-0.24-4.19,0.9
			c-8.43,5.68-13.66,36.14-14.23,39.6c-3.83,23.29-2.72,42.65,2.83,49.32c1.65,1.98,3.39,2.42,4.56,2.44c0.04,0,0.08,0,0.12,0
			c6.61,0,10.94-10.52,15.11-20.77c0.14,3.73,0.75,6.94,2.16,8.76c0.96,1.23,2.24,1.88,3.71,1.88c4.02,0,5.58-4.43,7.74-10.57
			c1.05-2.99,2.24-6.37,3.92-10.08c1.79-3.94,3.8-7.67,5.4-10.24c-0.13,1.03-0.27,2.13-0.41,3.19c-1.29,9.86-3.07,23.36,0.17,29.87
			c0.35,0.7,1.06,1.11,1.79,1.11c0.3,0,0.6-0.07,0.89-0.21c0.99-0.49,1.39-1.69,0.9-2.68c-2.69-5.42-0.87-19.29,0.22-27.57
			C209.1,121.59,209.36,119.65,207.27,118.89z M162.87,115.94c2.56-15.54,7.81-33.76,12.52-36.93c0.42-0.28,0.7-0.34,0.88-0.34
			c0.09,0,0.15,0.02,0.19,0.02c0.5,0.11,0.86,0.86,1.03,1.29c2.51,6.29-1.15,25.59-16.4,50.19
			C161.46,125.81,162.03,121.06,162.87,115.94z"/>
		<path d="M259.4,134.93c-0.65-0.93-1.93-1.17-2.86-0.52c-4.88,3.38-9.2,6.82-12.99,10.27c-0.82-8.34-2.9-17.8-7.3-27.44
			c-0.02-0.04-0.04-0.07-0.07-0.11c-0.04-0.07-0.07-0.13-0.11-0.19c-0.04-0.06-0.08-0.1-0.12-0.15c-0.04-0.05-0.08-0.1-0.13-0.15
			c-0.05-0.05-0.1-0.09-0.15-0.13c-0.05-0.04-0.1-0.08-0.16-0.12c-0.06-0.04-0.11-0.07-0.17-0.1c-0.06-0.03-0.12-0.06-0.18-0.09
			c-0.06-0.03-0.13-0.04-0.19-0.06c-0.06-0.02-0.12-0.04-0.19-0.05c-0.07-0.01-0.15-0.02-0.22-0.03c-0.04,0-0.08-0.02-0.13-0.02
			c-0.01,0-0.03,0-0.04,0c-0.11,0-0.21,0.01-0.32,0.03c-0.02,0-0.05,0-0.07,0.01c-0.1,0.02-0.21,0.05-0.31,0.09
			c-0.03,0.01-0.06,0.02-0.09,0.03c-0.02,0.01-0.05,0.01-0.07,0.02c-0.06,0.03-0.12,0.07-0.17,0.1c-0.04,0.02-0.08,0.05-0.12,0.07
			c-0.06,0.04-0.12,0.09-0.18,0.14c-0.04,0.04-0.09,0.08-0.13,0.12c-0.05,0.05-0.09,0.1-0.13,0.15c-0.04,0.06-0.09,0.11-0.13,0.17
			c-0.03,0.05-0.06,0.1-0.08,0.14c-0.04,0.07-0.07,0.14-0.1,0.21c-0.02,0.05-0.04,0.11-0.05,0.16c-0.02,0.07-0.04,0.14-0.06,0.21
			c-0.01,0.07-0.02,0.14-0.03,0.22c0,0.05-0.02,0.09-0.02,0.13c-0.03,1.35-0.14,2.75-0.32,4.18c-2.58,0.13-5.19,1.1-7.72,2.88
			c-6.79,4.77-12.28,15.11-12.5,23.54c-0.07,2.81,0.9,5.1,2.67,6.27c0.8,0.53,1.7,0.79,2.66,0.79c0.84,0,1.73-0.2,2.62-0.61
			c7.1-3.25,13.32-16.32,15.69-28.28c0.05,0.01,0.11,0.01,0.16,0.01c2.38,7.2,3.67,14.51,4.11,21.53
			c-17.24,17.27-21.81,33.95-20.01,41.96c0.79,3.52,2.88,5.8,5.73,6.27c0.3,0.05,0.63,0.08,0.99,0.08c2.02,0,4.78-0.99,7.78-4.92
			c4.87-6.37,8.51-18.1,9.51-30.6c0.26-3.25,0.39-7.02,0.22-11.17c4.18-4.04,9.13-8.13,14.97-12.17
			C259.82,137.15,260.05,135.86,259.4,134.93z M218.02,151.35c-0.4,0.18-0.96,0.36-1.3,0.13c-0.44-0.29-0.86-1.24-0.82-2.73
			c0.19-7.15,5.01-16.24,10.75-20.28c1.58-1.11,3.13-1.79,4.65-2.04C228.99,137.51,223.21,148.97,218.02,151.35z M230.91,189.24
			c-1.76,2.3-3.52,3.49-4.83,3.28c-1.44-0.24-2.09-1.82-2.38-3.11c-1.29-5.72,1.88-19.76,16.16-35.29
			C239.84,169.45,235.89,182.72,230.91,189.24z"/>
	</g>
</g>
</svg>
