<?xml version="1.0" encoding="utf-8"?>
<!-- Generator: Adobe Illustrator 25.2.0, SVG Export Plug-In . SVG Version: 6.00 Build 0)  -->
<svg version="1.1" id="Layer_1" xmlns="http://www.w3.org/2000/svg" xmlns:xlink="http://www.w3.org/1999/xlink" x="0px" y="0px"
	 width="300px" height="300px" viewBox="0 0 300 300" style="enable-background:new 0 0 300 300;" xml:space="preserve">
<g>
	<path d="M159.3,196.2c0-4.3,0-8.6,0-12.9c0-6.6,0.1-13.3,0.1-19.9c0.1-8.2,0.3-16.4,0.3-24.6c0-4.2-0.5-8.5-0.8-12.7
		c-0.1-1.5-1.9-2.6-3.3-2.1c-1.5,0.6-3.1,0.6-4.6,0.4c-2.6-0.4-5.2-0.9-7.7-1.4c-1.5-0.3-2.6-1.2-3.1-2.6c-0.8-2-1.1-4-0.5-6.1
		c0.1-0.4,0-0.9-0.1-1.3c-0.2-0.8-0.4-1.6-0.6-2.4c-0.2-1,0-2.1,0.8-2.8c1.7-1.5,2.6-3.6,4-5.3c0.6-0.7,1.2-1.4,1.9-2
		c1.3-1.1,1.9-1.9,5.1-1c0.2-0.3,0.4-0.6,0.6-0.8c0.8-1.1,1.8-1.9,3.2-2.1c0.9-0.1,1.7-0.3,2.6-0.6c2.1-0.6,3.8-0.2,5,1.7
		c0.7-0.4,1.3-0.8,1.9-1.2c1.2-0.7,2.5-0.7,3.7,0c0.5,0.3,1.1,0.6,1.6,0.7c3.6,0.8,6.8,3.4,7.2,8.4c0.1,0.9,0,1.8,0,2.7
		c0,0.2,0.2,0.5,0.4,0.7c0.5,0.7,1.1,1.3,1.5,2c1.1,1.8,0.9,3.4-0.7,4.8c-0.6,0.6-1.4,1-2,1.5c-1,0.8-2.2,1.4-2.9,2.4
		c-2.3,3-5.4,4.1-9,3.8c-1.2-0.1-2,0.5-2.9,0.9c-0.2,0.1-0.3,0.6-0.2,0.9c0.8,6.3,1,12.7,0.9,19.1c-0.1,7.7-0.2,15.4-0.3,23
		c-0.1,3.9-0.1,7.7-0.1,11.6c0,0.3,0,0.5,0.1,0.8c1.7-2.8,3.4-5.7,3.9-9c0.6-3.9,1.1-7.8,1.4-11.7c0.4-5,2.3-9.3,5.3-13.2
		c0.1-0.2,0.2-0.4,0.4-0.4c0.4-0.2,0.8-0.4,1.2-0.3c0.3,0.1,0.6,0.6,0.6,0.9c0.7,5,1.4,10,1.9,15c0.5,4.9-0.8,9.6-3,14
		c-1.7,3.5-4,6.4-6.9,9.1c-1.6,1.5-3,3.1-4.4,4.7c-0.3,0.3-0.3,0.8-0.4,1.2c-0.1,2.9,0.1,5.9-0.1,8.8c-0.3,5-0.8,10-1.2,15
		c0,0.3-0.4,0.7-0.6,0.8c-0.6,0.1-0.6-0.5-0.6-0.9c0.1-2.7,0.2-5.3,0.4-8c0.1-1.4,0.2-2.9,0.3-4.3c0.1-1.4-0.8-2.1-1.8-2.7
		c-2.8-1.8-5.1-4-6.8-6.8c-1-1.8-2-3.7-2.6-5.7c-1.4-4.9-2.9-9.7-3.9-14.7c-1.2-6.1-1.7-12.2-0.7-18.4c0.7-4.5,2.9-8.5,5.4-12.2
		c0.3-0.5,0.8-0.8,1.4-0.6c0.7,0.2,0.7,0.8,0.7,1.4c0.1,3-0.1,6.1,0.2,9.1c0.3,2.6,1.1,5.2,1.6,7.8c0.9,5.3,1.7,10.6,2.7,15.9
		c0.5,2.7,1.1,5.3,1.7,7.9c0.8,3.7,1.2,7.5,1.4,11.3c0.1,0.9,0.3,1.9,0.5,2.8C159.1,196.2,159.2,196.2,159.3,196.2z M160.7,118.3
		c2.4-3.3,3.4-7.1,3.6-11c0.1-1.1-0.3-2-1.2-2.7c-0.8-0.7-1.6-1.4-2.4-2c-0.6-0.4-1.3-0.8-2-0.9c-2.9-0.3-5.2,1.1-7.1,3.1
		c-0.6,0.7-0.5,3.1-0.1,3.7c0.7,1,1.4,2.1,2,3.2c1.1,2.3,2,4.6,3,6.8c0.5,1.1,0.5,1,1.7,0.8c-0.1-0.2-0.2-0.4-0.3-0.7
		c-0.5-1.6-1-3.2-1.5-4.8c-0.2-0.6-0.3-1.5,0.7-1.6c0.9-0.1,0.9,0.7,1,1.3c0.3,1.3,0.6,2.5,1,3.8c0.2-0.4,0.3-0.8,0.4-1.2
		c0.2-0.6,0.4-1.5,1.2-1.3c0.9,0.2,0.5,1,0.4,1.6C161,117.2,160.8,117.7,160.7,118.3z M164,121.3c0.1,0.1,0.1,0.2,0.2,0.3
		c2.1,0.2,4.1-0.2,5.7-1.8c1.9-2,4-3.7,6.3-5.2c1.4-0.9,1.5-1.8,0.5-3.1c-1.2-1.5-2.5-2.9-3.8-4.4c-1.1-1.3-2.4-2-4-2
		c-0.6,0-1.1,0.1-1.7,0.1c-1.2,0.1-1.1,0.1-1.2,1.2c-0.1,3.6-0.6,7.2-2.4,10.4c-0.3,0.6-0.6,1.3-0.9,1.9c0.1,0.1,0.2,0.1,0.3,0.2
		c0.3-0.2,0.7-0.5,1-0.7c1-0.9,2-1.8,3-2.7c0.4-0.3,1-0.7,1.3-0.1c0.2,0.3,0,1-0.2,1.4c-0.1,0.3-0.5,0.5-0.8,0.7
		c-0.4,0.4-0.8,0.7-1.3,1c0,0.1,0.1,0.1,0.1,0.2c0.7-0.3,1.4-0.7,2.1-0.9c0.3-0.1,1,0.1,1,0.2c0.1,0.3,0,0.9-0.2,1.1
		c-0.3,0.3-0.7,0.5-1.1,0.6c-1,0.3-2.1,0.5-3.1,0.8C164.5,120.9,164.3,121.1,164,121.3z M154.6,119c-0.2-0.6-0.5-1.3-0.8-2
		c-0.9-2-1.8-4.1-2.8-6.1c-0.9-1.8-2-2.1-3.9-1.3c-1.2,0.5-2.3,1-3.5,1.5c-0.3,0.2-0.7,0.4-0.9,0.7c-1.7,2.4-2.2,5-1,7.8
		c0.4,0.9,1,1.5,2,1.7c2.5,0.5,5,1,7.5,1.3c1.2,0.2,2.4,0,3.5,0c0-0.1,0-0.2,0-0.3c-1-0.5-2.1-0.9-3.1-1.4c-0.6-0.3-1.1-0.6-1.6-1
		c-0.2-0.2-0.3-0.8-0.2-1c0.1-0.2,0.7-0.3,1-0.3c0.5,0.1,1,0.4,1.3,0.6c0.3-0.4,0.6-1.1,0.7-1.1C153.5,118.3,154.1,118.7,154.6,119z
		 M156.1,195.4c-1.1-3.2-2.2-6.5-3.3-9.8c-0.8-2.5-1.4-5.1-2.3-7.6c-1.5-3.9-2.5-7.8-3.1-11.9c-0.9-6.6-1-13.1,0.3-19.8
		c-1.9,3.4-2.8,7-2.9,10.8c-0.2,4.9,0.2,9.8,1.2,14.6c1.1,5.6,2.7,11.1,4.7,16.4C151.8,191,153.7,193.5,156.1,195.4z M149,148.8
		c-0.1,0.4-0.2,1-0.2,1.7c-0.3,4.1-0.5,8.2,0,12.3c0.5,4.1,1,8.1,2.4,12c1.6,4,2.7,8.2,3.8,12.4c0.3,1.4,0.9,2.7,1.4,4
		c0.1,0,0.2-0.1,0.4-0.1c-0.3-2.1-0.5-4.3-0.9-6.4c-0.6-3.3-1.4-6.6-2-9.9c-0.9-4.8-1.5-9.7-2.4-14.5
		C150.7,156.3,149.8,152.4,149,148.8z M164.6,182.5c4.5-3.7,7.3-8.7,8.8-14.3c1-3.8,0.7-7.6,0.2-11.4c-0.3-1.7-0.6-3.4-0.8-5.1
		c-0.1,0-0.2,0-0.3,0c-0.1,2.4-0.3,4.9-0.4,7.3c-0.1,5.7-1.6,11-3.9,16.1C167,177.6,165.8,180,164.6,182.5z M174.6,106.5
		c0.1-0.1,0.1-0.2,0.2-0.3c-0.1-0.4-0.1-0.8-0.2-1.2c-0.3-3.3-2.3-5.2-5.4-6.2c-0.9-0.3-1.7-0.7-2.5-1c-0.6-0.2-1.3-0.3-1.9-0.1
		c-0.8,0.2-1.4,0.8-2.1,1.1c0.7,2,0.6,4.2,2.7,5.3C168.9,102.9,172.1,103.1,174.6,106.5z M152,102c-0.8-0.3-1.4-0.6-1.9-0.8
		c-1.3-0.7-2.5-0.4-3.4,0.7c-0.8,0.9-1.6,1.9-2.4,2.9c-1,1.2-1.9,2.5-2.9,3.8c-0.7,0.8-0.8,1.7-0.6,2.7c2.5-2.3,5.6-3.3,8.9-4
		C149,105,150.1,103.4,152,102z M171.4,149.5c-1.5,2-2.4,4.2-2.7,6.6c-0.5,3.5-0.8,7.1-1.2,10.6c-0.5,4.2-1.5,8.2-3.7,11.9
		c-0.8,1.4-1.3,2.9-2,4.4c0.1,0,0.2,0.1,0.3,0.1c0.2-0.3,0.4-0.6,0.5-0.9c1.4-2.8,2.9-5.6,4.2-8.5c2.2-5,3.5-10.2,3.6-15.7
		C170.4,155.3,170.3,152.3,171.4,149.5z M161.3,100.8c0-0.3,0-0.5-0.1-0.7c-0.1-0.4-0.3-0.7-0.4-1.1c-0.7-1.5-1.4-1.8-3-1.4
		c-1.1,0.3-2.2,0.5-3.4,0.8c-1,0.2-1.6,0.8-2.2,1.6c1.2,1,1.3,1.1,2.1,0.7C156.6,99.7,158.9,99.6,161.3,100.8z"/>
	<path d="M253.7,130.1c1.6,0.6,3.2,1.2,4.7,1.9c0.8,0.4,1.6,1,1.8,2c0.4,1.9-1,3.3-3.1,3c-2.5-0.4-4.6-1.6-6.6-3.2
		c-0.4-0.3-0.8-0.7-1.3-1.2c-0.2,2.1-1.1,3.5-2.6,4.6c-0.3,0.2-0.3,0.8-0.3,1.3c0,3.5,0.1,6.9,0,10.4c0,2.3-0.1,4.7-0.3,7
		c-0.4,4.2-1,8.4-1.6,12.5c-0.6,4.6-1.2,9.2-1.8,13.8c-0.1,0.4,0,0.9,0,1.6c0.5-0.8,0.8-1.4,1.2-1.9c0.4-0.6,0.8-1.3,1.4-1.8
		c0.4-0.3,1-0.6,1.4-0.5c0.3,0.1,0.5,0.8,0.7,1.2c0.1,0.1,0,0.2,0.3,0.4c0.4-1.1,0.8-2.2,1.1-3.3c0.5-1.6,0.9-3.2,1.5-4.8
		c0.3-0.9,0.9-1.7,1.6-2.4c0.3-0.3,1-0.7,1.3-0.6c0.4,0.2,0.5,0.8,0.7,1.3c0.1,0.2,0,0.4,0.2,0.6c0.3-0.8,0.7-1.6,1-2.4
		c0.8-2.2,1.8-4.3,3.4-6.1c0.6-0.7,1.4-1.2,2.1-1.7c0.5-0.3,1.1-0.6,1.5-0.1c0.3,0.4,0.4,1,0.2,1.5c-0.6,2.1-1.3,4.1-1.9,6.1
		c-0.1,0.3-0.2,0.5-0.3,0.8c-0.4,1.3-0.2,1.4,1,1.7c0.3,0.1,0.8,0.3,0.9,0.6c0.1,0.3-0.1,0.9-0.4,1.1c-0.3,0.4-0.8,0.7-1.3,0.9
		c-1.4,0.8-2.5,1.8-2.8,3.6c0.2,0,0.5,0,0.7,0.1c0.4,0.2,1,0.4,1.1,0.7c0.1,0.4,0,1.1-0.3,1.4c-1,0.7-2,1.7-3.1,1.8
		c-2.7,0.5-3.7,2.5-4.9,4.6c0.4-0.1,0.6-0.2,0.8-0.2c0.4,0.1,1,0.2,1.2,0.5c0.1,0.3-0.1,1-0.3,1.2c-1.8,1.6-3.8,3-6.1,3.8
		c-0.8,0.3-1.6,0.6-2.4,1c-1.2,0.6-1.6,1.3-1.4,2.7c0.5,3.4,1.1,6.7,1.6,10.1c0.1,0.5,0.3,1-0.3,1.2c-0.7,0.2-0.9-0.4-1-0.9
		c-0.6-3.1-1.4-6.3-1.9-9.5c-1.1-8.1-0.4-16.1,0.8-24.1c0.1-0.9-0.1-1.4-0.9-1.8c-3-1.6-5.6-4-7.9-6.5c-0.4-0.4-0.8-0.9-0.9-1.5
		c-0.3-1.2,0.4-1.9,1.6-1.7c0.5,0.1,1,0.3,1.7,0.4c-0.3-0.4-0.7-0.8-1-1.2c-0.8-0.9-1.6-1.7-2.3-2.6c-1.1-1.3-1.6-2.7-1.7-4.4
		c0-0.7-0.2-1.5,0.5-1.8c0.5-0.2,1.1,0.1,1.8,0.2c-0.2-0.9-0.5-1.9-0.8-3c-0.6-1.9-1.3-3.9-1.1-5.9c0.1-1.1,0.3-2.1,0.6-3.1
		c0.1-0.6,0.4-1.1,1.1-1.1c0.7,0,0.8,0.6,1,1.2c1,2.9,2,5.8,2.9,8.6c0.1,0,0.2,0,0.2,0c0.6-0.4,1.1-0.9,1.9-0.5
		c0.9,0.4,0.9,1.2,0.8,1.9c-0.1,1.1-0.4,2.1-0.6,3.1c-0.2,0.7-0.3,1.4-0.6,2.4c0.6-0.4,0.9-0.7,1.2-0.8c1-0.5,1.8-0.1,1.8,1
		c0,1.1-0.1,2.2-0.3,3.3c-0.2,1,0,1.9,0.4,2.8c0.5,1.2,1,2.4,1.5,3.8c0.3-2.4,0.7-4.7,0.9-7c0.6-5.6,0.7-11.2,0.6-16.8
		c0-1.5-0.4-3.1-0.6-4.6c0-0.1-0.1-0.4-0.2-0.4c-1.3-0.8-2-2.1-2.6-3.4c-3.1,1.4-6.2,2.1-9.5,2.3c-0.9,0.1-1.9-0.1-2.8-0.4
		c-1.5-0.5-1.9-2-0.8-3.2c0.6-0.7,1.4-1.3,2.2-1.9c-0.5-0.2-1.1-0.4-1.6-0.6c-1.6-0.6-2.2-1.5-2.1-2.7c0.1-1.2,1.3-2.4,2.7-2.7
		c0.5-0.1,1-0.2,1.5-0.2c0.5,0,1,0.1,1.7,0.1c-0.8-0.9-1.5-1.7-2.1-2.5c-0.6-0.8-1.1-1.5-1.6-2.4c-0.6-1.1-0.5-2.3,0.3-3.4
		c0.8-1,2-1.2,3.1-0.9c0.8,0.2,1.5,0.6,2,0.8c0-1-0.1-2.1,0-3.1c0.3-2.6,2.4-3.7,4.7-2.5c1.6,0.9,2.4,1.8,3.5,4.1
		c0.4-0.6,0.8-1.2,1.2-1.8c1.7-2.2,3.3-2.1,4.8,0.2c1.1-2,2.4-4.1,5.1-3.2c2.8,0.9,2.6,3.4,2.2,5.7c3.1,0.9,3.8,2.8,2.1,5.5
		c-0.5,0.8-1.1,1.4-1.7,2.1c1-0.3,2.1-0.7,3.2-0.9c0.8-0.1,1.8,0,2.5,0.3c1.5,0.6,1.8,2.2,0.7,3.4c-0.2,0.3-0.5,0.5-0.8,0.7
		c-2.3,1.5-4.7,2.9-7.5,3.5C254.2,129.9,253.9,130,253.7,130.1z M241.9,128.8c-1.5-3.7-3.4-7.1-6.4-9.7c-1.1-0.9-2.3-1.6-3.6-2.2
		c-0.3-0.2-1,0-1.2,0.3c-0.3,0.3-0.3,0.9-0.2,1.3c0.1,0.4,0.4,0.9,0.7,1.2C233.9,123.7,237.9,126.2,241.9,128.8z M244.6,128.6
		c0.1,0,0.2,0,0.3,0c1.4-3.1,2.4-6.4,2.8-9.8c0.2-1.7-0.1-3.3-0.6-4.9c-0.4-1.3-0.9-1.3-1.7-0.3c-1.5,1.8-2.2,3.9-2,6.2
		C243.6,122.7,244.2,125.6,244.6,128.6z M242.1,124.9c-0.1-2-0.4-3.7-0.4-5.5c0-1.7-0.4-3.4-1-5c-0.4-1.2-1.3-2-2.4-2.5
		c-1.3-0.6-2.1-0.3-2.1,1.1c0,1,0.1,2.2,0.6,3.1C238.4,119,240.3,121.9,242.1,124.9z M247.4,128.7c0.4-0.2,0.5-0.2,0.6-0.3
		c2.8-2.3,5.5-4.8,7.9-7.6c0.5-0.5,0.9-1.1,1.1-1.8c0.2-0.4,0.1-1.1-0.1-1.4c-0.3-0.3-0.9-0.4-1.4-0.3c-1.7,0.3-3,1.5-4,2.8
		C249.7,122.6,248.7,125.5,247.4,128.7z M240.5,130.3c-2-1.6-4.1-3.1-6.5-3.9c-1.3-0.5-2.7-0.8-4.1-0.5c-0.7,0.2-1.4,0.5-1.4,1.2
		c0,0.3,0.7,0.8,1.2,0.9C233.2,129.2,236.8,130.1,240.5,130.3z M249.5,119.6c1.2-1.5,2.5-2.9,4.3-3.7c0.2-0.1,0.3-0.3,0.3-0.5
		c0.1-0.9,0.2-1.7,0.2-2.6c0-0.7-0.4-1.3-1.1-1.6c-0.8-0.3-1.4,0-1.9,0.7c-0.5,0.6-0.8,1.3-1.2,2
		C249.2,115.7,249.6,117.6,249.5,119.6z M229.3,133.8c3.9,0.7,7.3-0.5,10.7-1.5c-0.1-0.1-0.3-0.2-0.4-0.2c-2.3-0.1-4.7-0.3-7-0.3
		C231.3,131.8,230.2,132.4,229.3,133.8z M261.7,124.3c-1.1-0.8-2-0.9-3.5-0.2c-2.2,1-4,2.6-5.7,4.2C256,128,259,126.4,261.7,124.3z
		 M250.3,130.9c-0.1,0.1-0.1,0.2-0.2,0.4c2,1.6,4,3.1,6.6,3.8c0.6,0.1,1.4,0.5,1.7-0.3c0.3-0.8-0.5-1.2-1.1-1.4
		C255,132.5,252.7,131.7,250.3,130.9z"/>
	<path d="M65.5,186.1c-1.3-19.7-1-39.2-1-58.7c-0.3,0.6-0.6,1.2-0.8,1.9c-1.1,2.9-2.5,5.6-4.2,8.2c-0.2,0.4-0.8,0.8-1.2,0.8
		c-0.7,0.1-0.8-0.7-0.9-1.2c-0.3-2.5-0.7-5,0.2-7.5c-1.9,1.7-4.5,2.4-6,4.5c-0.2,0.3-0.9,0.7-1.1,0.6c-0.4-0.2-0.7-0.8-0.7-1.2
		c-0.2-1.7,0.2-3.2,0.9-4.9c-1.4,0.5-2.7,1-4.1,1.6c-0.2,0.1-0.3,0.3-0.5,0.3c-0.5,0.1-1.1,0.2-1.4,0c-0.2-0.1-0.4-0.9-0.2-1.3
		c0.9-2.1,1.7-4.3,3-6.2c2.5-3.8,6.2-5.9,10.6-6.7c0.9-0.2,1.6-0.5,2-1.4c0.5-1,1.1-1.8,1.8-2.7c2-2.5,5.9-2.8,8.3-0.7
		c0.4,0.3,0.8,0.6,1,1c0.8,1.2,2,1.8,3.4,2.2c2.7,0.8,4.6,2.6,6.3,4.8c1.8,2.2,3.4,4.4,4.3,7.1c0.2,0.5,0.5,1.1,0,1.5
		c-0.4,0.3-1,0.3-1.4,0.3c-1.8-0.2-3.4-1-4.6-2.4c-1-1.1-2.4-2-3.6-3c-0.1,0.1-0.1,0.1-0.2,0.2c0.6,0.9,1.3,1.9,1.9,2.8
		c1.5,2.4,2.1,5,2.4,7.8c0,0.5-0.1,1.1-0.4,1.4c-0.5,0.5-1,0.1-1.5-0.2c-2-1.2-4-2.5-5.2-5c-0.5,2.8-1,5.2-1.5,7.7
		c-0.1,0.3,0,0.6-0.2,0.8c-0.2,0.3-0.6,0.7-0.9,0.7c-0.3,0-0.9-0.3-1-0.6c-0.3-1-0.6-2-0.8-3.1c-0.2-1.4-0.5-2.7-1.6-3.9
		c0,12.1,0,24.1,0,36c0.1,0,0.1,0,0.2,0.1c0.4-1.3,0.9-2.5,1.1-3.8c1.1-5.3,2.1-10.6,3.1-15.9c0.7-3.8,1.3-7.7,1.9-11.5
		c0.1-0.6,0.3-1.2,1-1.2c0.7,0,0.9,0.6,1,1.1c0.8,3.5,1.7,7.1,2.5,10.6c1,4.4,0.5,8.8-0.6,13.1c-1,4.1-2.9,7.9-5,11.5
		c-1.6,2.7-2.9,5.4-3.9,8.4c-0.8,2.5-0.7,4.9-0.5,7.4c0.3,3.7,0.6,7.4,0.9,11.2c0.1,1.9,0.3,3.9,0.3,5.8c0,1.6-0.1,3.2-0.2,4.8
		c0,0.3-0.4,0.5-0.6,0.8c-0.3-0.3-0.7-0.5-0.7-0.8c-0.1-1.3-0.1-2.5-0.2-3.8c-0.2-3.8-0.4-7.6-0.7-11.4c-0.2-2.3-1.2-4.2-2.3-6.2
		c-2.4-4.4-5.7-8.2-8.9-11.9c-4.4-5.1-6.5-11-6.9-17.7c-0.2-3.9-0.4-7.7-0.6-11.6c0-1.2,0.3-2.4,0.4-3.7c0.1-0.5,0.3-1,1-1
		c0.7,0,0.9,0.5,1,1c0.5,1.7,0.8,3.6,1.5,5.2c0.7,1.7,1.5,3.4,2.7,4.7c3.2,3.6,5,7.8,6,12.4c0.6,3,1,6,1.5,9
		c0.5,3.9,1.4,7.6,3.3,11.1C65.2,185.7,65.4,185.8,65.5,186.1z M59.6,178.3c-0.1-0.2-0.2-0.4-0.3-0.7c-0.8-2.1-1.7-4.2-2.5-6.3
		c-0.8-2.2-1.6-4.4-2.5-6.6c-1.4-3.4-2.9-6.9-4.4-10.3c0-0.1-0.1-0.2-0.1-0.1C49.3,163.8,52.6,171.9,59.6,178.3z M47,127.9
		c1.2-0.4,2.2-0.7,3.1-1.1c1.2-0.5,2.4-1.2,3-2.4c1.1-2,2.8-3.3,4.9-4.1c1.4-0.6,2.5-1.4,3.5-2.7C54.7,118,48.9,121.5,47,127.9z
		 M59.9,174.6c0.1,0,0.1,0,0.2,0c-0.2-1.4-0.4-2.8-0.5-4.1c-0.8-7.1-3.2-13.5-8.6-18.7c0.8,2.1,1.4,4.1,2.2,6
		c2.1,4.8,4.4,9.6,5.9,14.7C59.2,173.2,59.6,173.9,59.9,174.6z M66.7,175.6c0.1,0,0.1,0,0.2,0c1.1-3.3,2-6.6,3.2-9.9
		c1.9-5.6,3.7-11.2,3.8-17.2c0-2,0-4-0.1-6c-0.1,0-0.2,0-0.3,0c-0.1,0.6-0.2,1.2-0.3,1.8c-0.8,4.8-1.5,9.7-2.5,14.4
		c-0.8,4-2.1,7.9-3.1,11.8C67.3,172.2,67,173.9,66.7,175.6z M66.7,118.1c0,0.7,0.1,1.3,0.1,1.9c0.1,2.1,0.1,4.2,0.3,6.3
		c0.2,1.5,0.5,3,1,4.4c0.4,1.1,1.1,2.1,1.6,3.2c0.7-2.1,1.2-4.2,0.6-6.5c-0.7-3.1-1.3-6.3-2-9.4C67.9,118,67.4,118,66.7,118.1z
		 M82.8,126.5c0.1-0.1,0.2-0.2,0.3-0.3c-0.9-2.6-2.7-4.5-4.3-6.6c-1.7-2.3-4.2-3.2-6.8-4c1.6,4,1.9,4.4,4.8,6.2
		c1.6,1,2.9,2.4,4.3,3.5C81.5,125.8,82.2,126.1,82.8,126.5z M62,120c-4.4,2.9-8.2,6.3-10.3,11.2C56.5,128.7,60.1,125.2,62,120z
		 M77.6,132.7c-0.3-4.4-3-7.5-5.6-10.8C72.5,126.6,74.5,131.7,77.6,132.7z M59,134.6c2.2-2.4,5.8-12.2,5.5-14.3
		c-1.3,2.4-2.8,5-4.1,7.7C59.4,130,58.6,132.1,59,134.6z M75.8,148.5c-0.3,2.4-0.5,4.7-0.9,7.1c-0.5,2.4-1.2,4.7-1.9,7
		c-0.7,2.2-1.4,4.4-2.2,6.6c0.1,0,0.2,0.1,0.3,0.1C74.8,162.8,76.8,155.9,75.8,148.5z"/>
	<path d="M203.1,194.4c0.8-2,1.3-3.8,2.2-5.5c1.6-3.1,3.2-6.2,5-9.2c2-3.6,3.7-7.3,5-11.2c0.2-0.6,0.4-1.1,0.7-1.6
		c0.2-0.3,0.6-0.6,0.9-0.5c0.3,0,0.6,0.4,0.8,0.7c0.2,0.2,0.2,0.6,0.2,0.9c0.1,3.8,0.3,7.6,0.2,11.3c-0.1,7.1-3,12.9-8.6,17.2
		c-2.4,1.8-4.3,4-5.8,6.6c-0.3,0.5-0.3,1.2-0.3,1.8c0.3,4.6,0.6,9.3,0.9,13.9c0,0.3,0.2,0.6,0.1,0.8c-0.1,0.3-0.3,0.7-0.5,0.8
		c-0.3,0-0.7-0.2-0.8-0.4c-0.2-0.5-0.3-1-0.3-1.5c-0.5-6.3-1-12.5-1.3-18.8c-0.2-3.7-0.2-7.5-0.3-11.2c0-0.5-0.3-1.2-0.6-1.6
		c-5.2-5.9-9.3-12.4-10.8-20.2c-0.7-3.5-0.7-7-0.4-10.5c0-0.6,0.2-1.2,0.9-1.2c0.4,0,0.9,0.4,1.1,0.7c2,4.1,4,8.3,6,12.4
		c1.9,4.2,3,8.6,3.9,13.1c0,0.1,0.1,0.2,0.2,0.5c0.2-3.5,0.3-6.9,0.5-10.2c0.2-3,0.4-6,0.6-9c0.1-1.3,0.1-1.4-1.2-1.8
		c-1.5-0.5-2.9-1.1-3.9-2.4c-1.7-2.2-0.9-5.1,1.7-5.7c0.9-0.2,1.4-0.1,2.8,0.8c0.4-1.5,1.1-2.8,2.7-3.3c0.1-1.1,0.1-2.1,0.2-3.3
		c-1,0.7-1.8,1.3-2.7,1.7c-0.6,0.3-1.3,0.5-1.9,0.5c-1.4,0-2.2-1.1-1.6-2.4c0.4-0.8,1.1-1.6,1.6-2.3c0.2-0.3,0.5-0.5,0.9-0.8
		c-2-0.5-3.6-1.2-5.1-2.4c-1-0.8-1.4-1.7-1.3-2.9c0.2-2.6,2.7-4,4.9-2.7c1.1,0.6,2,1.5,3,2.3c0.2-1.9,1-3.2,3-3.8
		c-0.1-1-0.1-2.1-0.2-3.1c-2.1-0.1-3.9-0.6-5.4-1.9c-1.2-1.1-2.1-2.4-2.1-4.1c0-2.1,2-3.3,3.7-2.1c1.1,0.8,1.9,1.9,2.8,2.9
		c0.1,0.1,0.2,0.2,0.4,0.5c0-0.4,0.1-0.6,0.1-0.9c-0.1-1.5-0.3-2.9-0.3-4.4c0-0.8-0.3-1.3-1.3-1.2c-2.1,0-3.8-0.9-5.1-2.4
		c-1.1-1.2-1.2-2.9-0.3-4c1.1-1.3,2.9-1.6,4.3-0.7c0.6,0.4,1,0.8,1.7,1.4c-0.1-1.2-0.3-2.2-0.3-3.2c0-1.1-0.6-1.9-1.2-2.8
		c-0.7-1.2-1.4-2.5-1.8-3.8c-0.6-2.1,0.6-4.1,2.6-4.7c1.5-0.5,2.8,0,3.2,1.6c0.3,1.5,0.4,3.2,0.2,4.7c-0.2,1.6-0.9,3.1-1.1,4.7
		c-0.2,1.2,0.1,2.5,0.2,4c0.7-0.7,1.1-1.3,1.7-1.8c1-0.9,2.2-1.5,3.6-1c1.3,0.4,2.1,1.3,2.3,2.6c0.2,1.5-0.3,2.7-1.6,3.3
		c-1.3,0.6-2.7,1-4,1.5c-0.4,0.1-0.8,0.2-1.4,0.4c0.1,1.6,0.2,3.3,0.4,5.1c0.3-0.3,0.5-0.5,0.8-0.7c0.8-0.5,1.5-1.2,2.4-1.6
		c1.2-0.5,2.7-0.1,3.4,0.8c0.8,1,0.7,2.2,0.1,3.2c-0.5,0.8-1.2,1.5-2,2c-1.1,0.8-2.3,1.4-3.5,2c-0.4,0.2-0.7,0.5-0.6,1
		c0,0.4,0,0.9,0,1.3c-0.1,0.9,0,1.6,0.9,2.2c1,0.6,1.2,1.8,1.1,3c0.7-0.4,1.3-0.8,1.9-1.1c1.6-0.7,3.2-0.4,4.1,0.9
		c1,1.3,0.9,3-0.2,4.3c-0.9,1.1-1.9,1.6-4.4,2.4c0.8,0.7,1.3,1.5,1.2,2.6c-0.2,1.6-1.5,2.5-3,1.8c-0.8-0.4-1.6-1-2.4-1.6
		c-0.1,0.8-0.3,1.7-0.4,2.6c0,0.2,0.1,0.5,0.3,0.6c2.2,1.1,2.1,3,1.7,5c0.4-0.1,0.7-0.2,1-0.3c1.2-0.3,2.3-0.3,3.2,0.6
		c0.9,1,0.9,2.3,0.5,3.5c-0.6,1.9-2.5,3.1-4.8,3.1c-1.3,0-2.5-0.2-4-0.4C203.4,172.8,202.8,183.5,203.1,194.4z M191.1,159.9
		c-0.5,2.2,0.5,8.5,2.1,12.3c1.4,3.3,5.2,9.7,6.3,10.6C198.7,174.6,195.1,167.2,191.1,159.9z M206.8,196.4c7-4,10.7-13.4,9.3-19.9
		C214.3,183.8,210.7,190,206.8,196.4z M204.6,196.4c4.1-6.5,8.1-13.1,9.8-20.7C211,182.5,206.3,188.7,204.6,196.4z M203.3,142.2
		c-1.1-2-2.3-3.7-4.1-4.9c-1-0.7-1.8-0.5-2.3,0.4c-0.5,0.8-0.3,1.6,0.4,2.2C198.9,141.3,201,141.9,203.3,142.2z M207.6,142.7
		c0.1,0.1,0.2,0.3,0.2,0.4c1-0.2,2.1-0.2,3.1-0.5c1-0.3,1.9-0.9,2.7-1.5c0.7-0.5,0.6-1.6,0.1-2.2c-0.5-0.7-1.2-0.6-1.9-0.3
		c-0.4,0.2-0.8,0.4-1.1,0.7C209.7,140.4,208.7,141.6,207.6,142.7z M204.8,160.3c1.5,0.4,2.9,0.7,4.3,0.4c1.1-0.3,1.9-0.8,2.2-1.9
		c0.1-0.5,0-1.2-0.3-1.5c-0.2-0.3-0.9-0.2-1.4-0.1C207.7,157.4,206.5,159.2,204.8,160.3z M203.5,158.5c0.1,0,0.3,0.1,0.4,0.1
		c0.8-1.1,1.6-2.1,2.2-3.2c0.3-0.6,0.4-1.3,0.5-2c0.1-0.7-0.5-1.3-1.1-1.3c-0.5,0-1,0.5-1.4,0.8c-0.2,0.1-0.3,0.5-0.3,0.8
		C203.7,155.3,203.6,156.9,203.5,158.5z M204.5,108.1c0.5-1.9,0.9-3.7,0.6-5.4c-0.1-0.5-0.4-1.3-0.8-1.4c-0.6-0.2-1.3,0.3-1.6,1
		c-0.2,0.4-0.4,0.8-0.3,1.2C202.6,105.2,203.5,106.6,204.5,108.1z M206.3,117.5c0.1,0.1,0.2,0.2,0.3,0.3c1.4-0.5,2.9-1,4.3-1.6
		c0.8-0.3,1-1.2,0.7-1.9c-0.3-0.7-1.2-1.1-2-0.8c-0.4,0.2-0.8,0.4-1.1,0.7C207.7,115.3,207,116.4,206.3,117.5z M205.5,142.4
		c1.3-1.4,1.8-3,2-4.7c0.1-0.7-0.2-1.3-0.9-1.6c-0.7-0.2-1.4,0.2-1.7,0.9c-0.1,0.3-0.3,0.7-0.2,1
		C204.9,139.5,205.2,140.9,205.5,142.4z M203.9,118.4c0.1-0.1,0.2-0.1,0.2-0.2c-0.6-1.1-1.2-2.3-1.9-3.3c-0.3-0.4-0.8-0.8-1.2-0.8
		c-0.5,0-1.2,0.2-1.5,0.5c-0.2,0.3-0.1,1.1,0.1,1.5C200.7,117.5,202.2,118.1,203.9,118.4z M207.2,128.9c1.3-0.8,2.5-1.5,3.7-2.2
		c0.3-0.2,0.5-0.4,0.7-0.6c0.4-0.5,0.8-1.2,0.2-1.7c-0.3-0.3-1.2-0.3-1.6-0.1c-1.6,0.7-2.5,2.1-3,3.7
		C207.1,128.2,207.2,128.5,207.2,128.9z M201.6,159.5c0.1-0.1,0.2-0.1,0.4-0.2c-0.3-1.3-0.6-2.6-1.1-3.8c-0.3-0.8-1-1.1-1.7-0.8
		c-0.7,0.3-1.1,1-0.8,1.7c0.2,0.5,0.5,1,0.9,1.4C199.9,158.4,200.8,158.9,201.6,159.5z M204.7,129.3c-0.5-0.8-0.9-1.5-1.5-2.2
		c-0.7-0.8-1.3-1.7-2.1-2.4c-0.2-0.2-0.8-0.2-1.2-0.3c-0.1,0.4-0.2,0.8-0.1,1.2C200.3,127.4,202.7,129.2,204.7,129.3z M204.1,144.4
		c-1.4,0.2-3.1,1.5-3.8,3.1C202.1,147.1,203.3,146.2,204.1,144.4z M207.9,145.6c0,0.1-0.1,0.2-0.1,0.3c0.7,0.5,1.4,1.1,2.1,1.7
		C210.4,146.2,209.7,145.6,207.9,145.6z"/>
	<path d="M110.7,195.9c1.8-6.8,2.4-13.7,2-20.6c-0.4-5.7-0.7-11.4-1.1-17.1c-0.2-2.1,0.4-2.7-2.6-2.8c-1.6,0-3.2-0.7-4.8-1.3
		c-1.6-0.6-2.6-1.9-3.2-3.5c-0.5-1.4-1.1-2.7-2-3.9c-1.2-1.6-0.8-3.7,0.9-5.1c1.3-1.1,3.8-1.3,5.1,0.1c1.3,1.4,2.7,2.5,4.1,3.8
		c0.7,0.6,1.2,1.3,1.9,2c0-2.6,0-5.1,0-7.5c0-0.3-0.4-0.8-0.7-0.9c-3.3-1-5.1-3.6-6.9-6.3c-0.6-1-1.3-1.9-1.8-2.9
		c-1.1-2.2,0-4.3,2.5-4.3c2.3,0,4.6,0.6,6.3,2.4c0.1,0.1,0.2,0.2,0.4,0.4c-0.1-1.1-0.1-2-0.2-3.1c-0.3-0.1-0.6-0.2-1-0.3
		c-2.5-0.5-4.5-2-6.1-3.9c-0.9-1-1.3-2.2-1.1-3.5c0.2-1.9,1.9-3,3.8-2.5c0.4,0.1,0.7,0.2,1.3,0.4c-0.8-2.6-0.4-5.1-0.2-7.6
		c0.1-1.9,1.4-3.1,2.6-4.2c0.2-0.2,0.7-0.2,1-0.2c1.9,0.2,3.5,1.6,4,3.4c0.3,1.2,0.7,2.4,1.1,3.5c0.5,1.4,0.6,2.9,0.1,4.5
		c0.6,0,1.2,0,1.7,0c1.4,0.1,2.7,0.5,3.3,2c0.6,1.5,0.2,2.9-0.9,3.9c-1.2,1.1-2.5,2-3.8,2.9c-1,0.8-2.1,1.6-3.1,2.4
		c-0.6,0.4-0.8,0.9-0.7,1.6c0.1,0.8,0,1.6,0.2,2.5c0.2-0.2,0.3-0.5,0.5-0.7c0.4-0.6,0.8-1.1,1.2-1.7c1.1-1.5,2.5-2.2,4.4-1.9
		c0.5,0.1,1,0.2,1.5,0.2c2.7,0.1,3.8,2.4,2.6,4.9c-1.1,2.3-2.9,3.9-5.1,5.2c-1.4,0.9-2.8,1.7-4.1,2.6c-0.7,0.4-0.9,0.9-0.9,1.8
		c0.1,2.7,0,5.4,0,8.3c0.5-0.7,0.9-1.2,1.3-1.6c0.9-0.8,1.8-1.6,2.7-2.3c0.8-0.6,1.6-1.1,2.5-1.7c2.4-1.5,3.4-0.8,4.7,0.6
		c1.2,1.3,1.7,2.7,1.5,4.5c-0.5,4.5-3.4,6.9-7.1,8.6c-1.6,0.8-3.3,1.5-5,2.3c0.1,1.5,0.2,2.9,0.3,4.2c1.2-1.2,2.3-2.4,3.6-3.5
		c1.2-1.1,2.8-1.5,4.5-1.4c0.6,0,1.1,0.2,1.3,0.9c0.3,1.2,0.7,2.3,0.7,3.5c0.2,3.1-1.7,4.9-4.1,6.3c-1.5,0.9-3,1.9-4.6,2.8
		c-0.5,0.3-0.7,0.7-0.7,1.4c0.1,1.8,0.2,3.6,0.3,5.4c0.1,6.5-0.8,12.9-2.2,19.3c-0.8,3.4-1.3,6.9-1.2,10.4c0,1.7,0.3,3.3,0.5,5
		c0,0.2,0.1,0.4,0.1,0.6c-0.1,0.3-0.3,0.6-0.4,0.9c-0.3-0.2-0.8-0.3-0.9-0.6c-0.4-1.4-0.9-2.9-1-4.4c-0.2-2.3-0.2-4.6-0.1-6.9
		c0-1.7-0.3-3.3-1.1-4.7c-1-1.6-2-3.2-3.1-4.7c-4.7-6.3-7.8-13.3-8.8-21.2c-0.6-4.6-0.2-9.2,0.7-13.8c0.1-0.7,0.2-1.4,0.5-2.1
		c0.1-0.3,0.6-0.7,0.9-0.7c0.3,0,0.8,0.4,0.9,0.7c1,4.8,3.3,9.1,5.4,13.4c2.2,4.7,4,9.6,4.8,14.8c0.4,2.7,0.6,5.4,0.9,8.1
		C110.4,193.7,110.5,194.8,110.7,195.9z M113.8,156.9c1-0.5,1.8-1,2.6-1.2c2.8-0.6,4.7-2.5,6.3-4.7c1.4-1.8,1.2-4.5-0.4-6.2
		c-0.8-0.8-1.1-0.9-2.1-0.3c-1.2,0.7-2.4,1.4-3.5,2.3c-1.7,1.2-3,2.8-3.1,5C113.8,153.4,113.8,155.1,113.8,156.9z M110.5,153.7
		c-0.2-1.1-0.4-2.2-0.6-3.4c-0.3-1.5-1-2.7-2.2-3.7c-1.3-1.1-2.6-2.3-3.9-3.5c-1-0.9-2-1-2.9-0.1c-1,0.9-1.1,1.9-0.3,3
		c0.6,0.9,1.3,1.9,1.7,3C103.4,152.1,106.9,154.2,110.5,153.7z M111.5,118.4c0.6-0.8,1.1-1.5,1.7-2.2c1.3-1.7,1.8-3.5,1-5.5
		c-0.4-1.1-0.8-2.2-1.1-3.4c-0.3-1.1-0.9-1.8-2-2.1c-0.2-0.1-0.6-0.1-0.7,0.1c-0.7,0.7-1.5,1.4-1.5,2.5c-0.1,1.8-0.2,3.6-0.3,5.5
		c0,1,0.4,1.9,1.2,2.5C110.7,116.4,111.3,117.2,111.5,118.4z M99.5,163.6c0,0.4-0.1,0.7,0,0.9c0.8,3.3,1.5,6.7,2.5,10
		c1.4,4.3,3.2,8.5,4.8,12.8c0.4,0.9,0.8,1.9,1.2,2.8C107.8,180.5,104.1,172,99.5,163.6z M113,136.9c2.1-1.4,4.1-2.6,6-4.1
		c1-0.8,1.8-2,2.4-3.2c0.6-1.1,0.1-1.8-1.1-2c-0.7-0.1-1.4-0.1-2.1-0.2c-1-0.1-1.7,0.2-2.2,1c-0.8,1.3-1.7,2.5-2.3,3.9
		C113,133.7,112.3,135.1,113,136.9z M110.9,137.6c-0.1-2.3-0.2-4.6-0.9-6.7c-0.9-2.4-2.9-3.8-5.5-3.8c-1.6,0-2.1,0.8-1.3,2.2
		c1.2,1.9,2.6,3.8,3.9,5.7C108.1,136.2,109.4,136.9,110.9,137.6z M97.9,165.9c-0.6,10.4,3.2,19.3,9.4,27.5c0-0.3,0-0.5,0-0.6
		c-1.6-4.2-3.1-8.5-4.9-12.6C100.4,175.6,98.8,170.9,97.9,165.9z M114.5,169.9c1.5-0.8,2.8-1.6,4.2-2.4c2.9-1.6,3.8-3.5,2.8-6.6
		c-0.1-0.2-0.1-0.4-0.2-0.6C117.2,160.3,114.2,164.4,114.5,169.9z M112.7,123.8c1.8-1.3,3.7-2.6,5.5-3.9c0.3-0.3,0.6-0.6,0.9-1
		c0.8-1.3,0.2-2.3-1.2-2.6c-2.2-0.3-3.6,0.8-4.6,2.4C112.2,120.4,111.8,122,112.7,123.8z M110.6,123.6c-0.3-1.9-0.6-3.6-0.9-5.3
		c-0.1-0.7-0.7-1-1.4-1.1c-0.9-0.2-1.8-0.3-2.7-0.5c-0.9-0.2-1.7,0.1-1.6,1.1c0.1,0.7,0.3,1.6,0.8,2.2
		C106.3,121.6,108.2,122.8,110.6,123.6z"/>
</g>
</svg>
