<?xml version="1.0" encoding="iso-8859-1"?>
<!-- Generator: Adobe Illustrator 25.2.0, SVG Export Plug-In . SVG Version: 6.00 Build 0)  -->
<svg version="1.1" id="Layer_1" xmlns="http://www.w3.org/2000/svg" xmlns:xlink="http://www.w3.org/1999/xlink" x="0px" y="0px"
	 width="300px" height="300px" viewBox="0 0 300 300" enable-background="new 0 0 300 300" xml:space="preserve">
<g>
	<path d="M79.316,171.21c-1.048-0.471-2.072-0.931-3.343-1.503c-0.474,1.842-0.947,3.64-1.394,5.445
		c-0.129,0.52-0.121,1.079-0.289,1.582c-0.405,1.21-1.357,1.437-2.25,0.527c-0.56-0.571-1.025-1.235-1.652-2.005
		c-0.48,0.607-0.864,1.171-1.325,1.662c-1.173,1.25-2.456,1.367-3.818,0.323c-0.491-0.376-0.9-0.87-1.306-1.345
		c-0.384-0.451-0.715-0.948-1.208-1.612c-0.414,0.862-0.736,1.484-1.014,2.125c-0.308,0.711-0.782,1.271-1.573,1.282
		c-0.972,0.013-1.805-0.477-2.104-1.401c-0.382-1.183-0.575-2.429-0.815-3.655c-0.144-0.736-0.223-1.485-0.697-2.207
		c-0.221,1.014-0.354,2.057-0.681,3.035c-0.803,2.398-2.405,2.762-4.247,1.036c-1.745-1.636-2.76-3.724-3.73-6.278
		c-0.535,1.095-0.885,1.936-1.342,2.716c-0.562,0.958-1.447,1.06-2.22,0.28c-1.131-1.141-1.565-2.595-1.697-4.146
		c-0.269-3.152-0.025-6.272,0.675-9.357c0.113-0.497,0.203-0.998,0.352-1.741c-0.673,0.258-1.124,0.341-1.47,0.578
		c-2.529,1.732-5.531,2.008-8.382,2.727c-0.427,0.108-1.186-0.065-1.386-0.372c-0.21-0.323-0.11-1.1,0.158-1.443
		c3.137-4.025,5.579-8.592,9.426-12.065c3.117-2.814,6.736-4.728,10.674-6.094c0.833-0.289,1.659-0.598,2.641-0.952
		c-0.325-5.026-0.227-9.939,1.996-15.031c-0.483-0.336-1.123-0.68-1.64-1.157c-8.063-7.45-14.614-16.026-19.242-26.014
		c-0.639-1.379-1.139-2.826-1.658-4.257c-0.225-0.621-0.257-1.364,0.504-1.574c0.402-0.111,1.087,0.12,1.387,0.438
		c2.064,2.189,4.553,3.816,7.166,5.188c2.687,1.41,5.486,2.65,8.335,3.696c4.202,1.543,8.51,2.791,12.737,4.269
		c5.529,1.932,10.097,5.39,14.31,9.351c2.807,2.638,5.554,5.341,8.411,8.095c-0.13,0.03-0.039,0.025,0.035-0.013
		c0.069-0.035,0.164-0.102,0.17-0.162c0.058-0.533,0.126-1.067,0.139-1.602c0.184-7.526,0.359-15.052,0.545-22.933
		c-2.516,1.088-3.117,3.2-4.01,4.943c-1.102-0.002-1.322-0.707-1.489-1.415c-0.575-2.439-1.159-4.877-1.673-7.33
		c-0.217-1.039-0.268-2.113-0.455-3.677c-1.329,2.45-2.399,4.49-3.533,6.494c-1.091,1.926-1.591,4.17-3.101,5.966
		c-2.024-0.511-2.684-2.13-3.099-3.737c-0.328-1.272-0.277-2.661-0.257-3.997c0.02-1.321,0.214-2.638,0.364-4.327
		c-1.512,0.845-2.34,1.905-3.324,2.765c-0.809,0.707-1.545,1.522-2.432,2.109c-2.049,1.355-3.803,0.556-3.944-1.884
		c-0.102-1.771,0.177-3.564,0.288-5.347c0.022-0.351,0.058-0.701,0.117-1.41c-1.802,0.846-3.226,1.834-4.666,2.798
		c-0.893,0.597-1.775,1.229-2.73,1.709c-0.877,0.441-1.591-0.031-1.723-1.002c-0.036-0.264-0.072-0.553-0.004-0.802
		c0.702-2.586,1.234-5.241,2.197-7.728c0.994-2.567,2.412-4.969,3.897-7.949c-2.907,0.77-5.329,1.254-7.626,2.085
		c-1.21,0.438-2.181,1.511-3.298,2.239c-0.401,0.261-1.041,0.615-1.352,0.466c-0.765-0.367-0.334-1.057-0.112-1.631
		c0.032-0.083,0.084-0.158,0.125-0.238c3.969-7.76,9.795-13.197,18.621-14.866c1.319-0.249,2.654-0.414,3.982-0.619
		c1.052-0.163,2.104-0.328,3.181-0.496c0.296-1.741,0.552-3.322,0.836-4.898c0.619-3.434,2.173-6.464,4.244-9.206
		c2.718-3.598,6.592-4.508,10.812-4.021c2.996,0.346,5.716,1.499,7.707,3.958c0.733,0.906,1.526,1.765,2.311,2.626
		c2.621,2.873,4.173,6.236,4.663,10.093c0.045,0.355,0.121,0.707,0.2,1.056c0.017,0.075,0.106,0.133,0.304,0.364
		c0.271,0.029,0.706,0.145,1.128,0.11c5.704-0.476,10.598,1.322,14.735,5.235c2.477,2.342,5.066,4.616,6.6,7.737
		c0.704,1.434,1.144,3.002,1.643,4.529c0.132,0.403,0.125,0.897,0.036,1.318c-0.216,1.025-1.257,1.489-2.051,0.813
		c-1.016-0.865-1.937-1.865-2.784-2.9c-1.356-1.658-3.174-2.418-5.573-3.294c0.581,0.962,0.842,1.507,1.205,1.975
		c2.204,2.848,3.16,6.212,3.952,9.629c0.211,0.91,0.634,2.096-0.456,2.692c-1.119,0.612-1.771-0.482-2.468-1.121
		c-0.793-0.727-1.524-1.521-2.293-2.275c-2.159-2.117-4.787-3.358-7.749-4.226c-0.028,0.386-0.124,0.661-0.053,0.882
		c0.842,2.619,0.65,5.32,0.712,8.009c0.054,2.324,0.252,4.645,0.381,6.967c0.025,0.446,0.078,0.9,0.018,1.337
		c-0.109,0.803-0.924,1.329-1.577,0.887c-1.1-0.745-2.195-1.573-3.07-2.562c-2.073-2.345-4.016-4.806-6.231-7.486
		c-0.208,0.667-0.379,1.103-0.48,1.555c-0.615,2.756-0.578,5.515-0.031,8.281c0.186,0.939,0.635,1.905-0.03,2.838
		c-1.299,0.716-2.192-0.435-3.446-0.713c-0.15,0.557-0.425,1.12-0.435,1.686c-0.099,5.831-0.158,11.663-0.216,17.495
		c-0.002,0.257,0.122,0.515,0.249,1.011c0.95-0.247,1.88-0.474,2.802-0.731c2.072-0.577,4.12-1.25,6.213-1.73
		c2.122-0.487,4.284-0.5,6.369,0.255c0.542,0.196,1,0.621,1.482,0.931c-0.864,1.644-3.947,4.239-7.109,5.66
		c-2.677,1.203-5.498,2.086-8.275,3.447c0.442,0.054,0.883,0.126,1.327,0.157c0.895,0.063,1.794,0.075,2.687,0.157
		c6.119,0.56,10.171,4.063,13.038,9.218c0.695,1.25,0.088,2.175-1.371,1.943c-2.119-0.338-4.216-0.832-6.304-1.336
		c-2.002-0.483-3.963-1.152-5.977-1.568c-1.277-0.264-2.618-0.216-4.128,0.14c1.099,0.993,2.27,1.918,3.279,2.996
		c1.098,1.172,2.167,2.409,3.024,3.759c0.809,1.274,1.397,2.706,1.956,4.119c0.592,1.498,1.098,3.037,1.526,4.59
		c0.397,1.439,1.054,2.883,0.392,4.647c-0.492-0.171-0.981-0.262-1.378-0.504c-0.285-0.174-0.464-0.539-0.662-0.837
		c-2.367-3.574-5.87-5.43-9.872-6.524c-0.839-0.229-1.696-0.39-2.858-0.653c0.474,0.878,0.787,1.484,1.124,2.076
		c1.641,2.884,3.307,5.753,4.92,8.652c0.418,0.752,1.093,1.561,0.446,2.483c-0.758,1.079-1.762,0.5-2.693,0.267
		c-0.59-0.148-1.178-0.3-1.958-0.5c-0.093,0.625-0.245,1.127-0.23,1.624c0.115,3.699-0.459,7.332-0.964,10.976
		c-0.295,2.131-0.5,4.276-0.694,6.419c-0.056,0.612-0.017,1.26,0.124,1.858c0.623,2.65,5.682,12.841,7.684,15.493
		c0.242-0.536,0.537-0.968,0.633-1.441c0.375-1.845,0.745-3.694,1.009-5.556c0.578-4.069,2.101-7.776,4.191-11.271
		c2.306-3.857,5.772-6.321,9.831-8.037c3.737-1.58,7.675-2.459,11.638-3.234c8.004-1.566,16.008-3.129,24.016-4.669
		c1.004-0.193,2.059-0.682,3.242,0.2c-0.291,0.465-0.462,0.992-0.823,1.274c-3.641,2.841-6.597,6.324-9.453,9.911
		c-4.026,5.055-8.006,10.152-13.04,14.291c-2.498,2.054-5.01,4.077-8.008,5.389c-2.154,0.942-4.392,1.567-6.732,1.768
		c-4.963,0.426-9.618,2.089-14.332,3.519c-0.328,0.1-0.613,0.343-1.155,0.658c0.627,1.748,1.247,3.479,1.853,5.167
		c0.492,0.037,0.768,0.126,1.006,0.065c5.06-1.314,9.731-0.308,14.252,2.146c3.837,2.082,7.117,4.824,10.143,7.911
		c4.648,4.742,9.269,9.511,13.919,14.251c1.445,1.473,2.959,2.878,4.411,4.345c0.435,0.439,0.851,0.938,1.125,1.485
		c0.29,0.58-0.042,1.122-0.634,1.222c-0.594,0.1-1.252,0.041-1.844-0.103c-6.045-1.464-12.172-2.313-18.389-1.995
		c-5.973,0.306-11.367-1.101-16.2-4.642c-0.548-0.402-1.192-0.673-2.125-1.189c0.792,3.496,1.503,6.623,2.209,9.751
		c1.186,5.254,1.996,10.563,2.489,15.93c0.575,6.251,1.201,12.5,1.971,18.729c0.397,3.208-0.231,4.539-3.942,3.956
		c-0.354-0.056-0.707-0.125-1.056-0.206c-2.059-0.477-2.387-0.733-2.553-2.839c-0.428-5.453-0.778-10.913-1.138-16.371
		c-0.307-4.653-0.519-9.313-0.891-13.961c-0.516-6.455-1.957-12.747-3.742-19.372c-2.125-1.067-4.496-2.304-6.908-3.454
		c-2.265-1.079-4.203,0.013-6.022,1.195c-0.403,0.262-0.553,1.087-0.613,1.674c-0.36,3.479-0.65,6.966-0.98,10.448
		c-0.389,4.106-0.929,8.202-1.16,12.317c-0.308,5.461-0.424,10.933-0.539,16.403c-0.083,3.948-0.115,7.9-0.011,11.846
		c0.071,2.692-0.934,3.56-3.842,3.419c-0.089-0.004-0.182-0.007-0.267-0.031c-2.783-0.775-3.939-0.132-3.565-4.313
		c0.632-7.056,1.31-14.109,1.96-21.164c0.585-6.342,1.144-12.687,1.743-19.028c0.606-6.429,1.203-12.86,1.886-19.281
		c0.522-4.905,1.177-9.796,1.762-14.694c0.031-0.258-0.037-0.527-0.074-0.986c-2.525-0.487-5.015,0.015-7.335,0.82
		c-6.424,2.23-12.352,0.999-18.108-2.1c-0.237-0.127-0.476-0.257-0.692-0.415c-4.154-3.049-8.975-4.012-13.955-4.209
		c-2.213-0.087-4.508,0.154-6.663,0.672c-5.227,1.256-10.377,2.801-15.381,4.817c-3.28,1.322-6.255,3.107-9.049,5.238
		c-0.496,0.378-0.99,0.777-1.539,1.062c-0.604,0.312-1.403-0.192-1.271-0.858c0.224-1.126,0.398-2.387,1.029-3.285
		c2.421-3.444,4.84-6.917,7.594-10.09c2.822-3.251,6.633-5.16,10.745-6.378c3.273-0.969,6.603-1.653,10.025-1.883
		c4.027-0.27,8.055-0.554,12.069-0.971c6.941-0.721,13.6,0.536,20.045,2.927c4.049,1.502,7.715,3.797,11.036,6.593
		c0.671,0.565,1.331,1.143,2.255,1.938c0.646-2.871,0.622-5.47,0.622-8.041c0-0.821-0.616-1.659-1.007-2.461
		C83.019,178.728,81.197,175.037,79.316,171.21z M68.964,119.533c-6.751-0.167-9.76,2.112-11.3,7.991
		c-0.758,2.891-0.958,5.831-0.73,8.787c0.148,1.914,1.065,3.501,3.02,4.02c2.323,0.616,4.692,1.124,7.073,1.435
		c2.377,0.31,4.469-0.64,5.917-2.505c1.878-2.419,3.897-4.648,6.311-6.549c0.719-0.566,1.369-1.508,1.573-2.389
		c0.766-3.302-1.424-7.52-4.487-8.987C73.8,120.118,71.137,119.444,68.964,119.533z M141.033,232.412
		c-0.208-0.282-0.385-0.593-0.627-0.841c-5.123-5.264-10.235-10.538-15.387-15.772c-3.367-3.421-7.235-6.147-11.728-7.884
		c-4.313-1.667-8.645-1.668-12.675,0.737c-3.552,2.12-6.251,5.231-8.929,8.407c0.237,0.105,0.321,0.179,0.386,0.164
		c0.173-0.039,0.346-0.1,0.506-0.178c3.523-1.732,7.203-1.831,11.015-1.257c4.487,0.676,8.696,2.168,12.672,4.243
		c4.997,2.607,9.881,5.431,14.792,8.199C134.166,229.98,137.318,231.619,141.033,232.412z M100.754,59.217
		c-0.11-3.07-0.992-5.564-2.658-7.75c-1.138-1.492-2.443-2.856-3.612-4.326c-1.289-1.621-3.011-2.502-4.932-3.067
		c-3.921-1.153-8.294,0.128-10.439,3.039c-2.737,3.715-4.106,7.911-4.366,12.489c-0.019,0.33,0.153,0.671,0.27,1.143
		c0.677-0.104,1.291-0.135,1.867-0.3c1.885-0.539,3.59-0.601,5.307,0.733c1.333,1.035,3.05,0.96,4.63,0.348
		c1.984-0.769,3.97-1.012,6.009-0.284c1.043,0.373,1.888,0.173,2.656-0.662c0.832-0.904,1.935-1.236,3.157-1.23
		C99.252,59.354,99.862,59.277,100.754,59.217z M40.647,96.211c1.498,2.544,4.963,6.391,7.614,8.786
		c4.498,4.063,9.587,7.226,14.993,9.876c2.399,1.176,4.946,2.07,7.472,2.96c1.93,0.68,3.962,1.071,5.899,1.735
		c2.535,0.868,4.137,2.746,5.114,5.192c0.291,0.729,0.558,1.469,0.906,2.387c1.385-1.267,2.613-2.391,3.931-3.597
		c-0.668-0.833-1.212-1.661-1.901-2.344c-2.991-2.967-5.901-6.031-9.075-8.791c-3.109-2.703-6.492-5.117-10.423-6.542
		c-2.437-0.883-4.977-1.484-7.416-2.364c-4.625-1.668-9.41-2.941-13.737-5.374C42.956,97.532,41.893,96.92,40.647,96.211z
		 M144.458,166.895c-0.05-0.129-0.099-0.258-0.149-0.386c-0.439,0.038-0.886,0.037-1.316,0.121
		c-5.798,1.128-11.597,2.253-17.389,3.41c-3.515,0.702-6.982,1.574-10.299,2.98c-4.094,1.736-7.315,4.408-9.49,8.351
		c-2.295,4.161-3.435,8.626-3.837,13.315c-0.01,0.111,0.184,0.239,0.284,0.359c0.166-0.051,0.366-0.06,0.493-0.16
		c5.53-4.418,11.014-8.894,16.587-13.256c6.718-5.259,13.739-10.045,21.744-13.201C142.234,167.975,143.336,167.408,144.458,166.895
		z M146.078,168.484c-3.336,0.889-10.175,4.007-13.808,6.27c-9.832,6.125-18.671,13.568-27.658,20.816
		c-0.458,0.369-0.814,0.864-1.447,1.548c0.69-0.063,1.058-0.022,1.369-0.135c3.809-1.388,7.76-2.071,11.765-2.597
		c1.662-0.218,3.301-0.78,4.89-1.353c3.173-1.145,5.704-3.317,8.247-5.441c6.518-5.445,11.271-12.451,16.67-18.886
		C146.138,168.666,146.089,168.559,146.078,168.484z M82.26,193.028c-0.777-0.869-1.062-1.333-1.471-1.621
		c-3.008-2.114-6.084-4.142-9.552-5.418c-6.298-2.318-12.787-3.386-19.519-2.74c-3.83,0.367-7.667,0.689-11.507,0.93
		c-3.875,0.243-7.622,1.049-11.284,2.286c-6.157,2.079-10.317,6.412-13.39,11.982c0.513-0.118,0.917-0.384,1.328-0.64
		c2.201-1.368,4.279-3.016,6.627-4.049c8.548-3.76,17.607-5.402,26.891-5.757c4.65-0.178,9.324-0.244,13.947,0.538
		c4.493,0.761,9.052,1.215,13.314,3.033C78.93,192.12,80.319,192.425,82.26,193.028z M137.221,233.512
		c-2.738-1.495-5.488-2.968-8.21-4.491c-3.203-1.793-6.326-3.739-9.588-5.415c-3.179-1.633-6.441-3.132-9.758-4.464
		c-3.428-1.377-7.049-2.016-10.767-1.938c-1.981,0.042-3.857,0.463-5.732,1.623c1.841,0.881,3.566,1.558,5.142,2.488
		c4.624,2.73,9.214,5.521,13.768,8.366c3.257,2.035,6.71,3.395,10.58,3.463C127.482,233.229,132.321,232.912,137.221,233.512z
		 M82.886,276.471c0.042-0.794,0.124-1.667,0.129-2.54c0.017-3.052-0.049-6.105,0.02-9.156c0.137-6.009,0.227-12.022,0.559-18.022
		c0.248-4.473,0.887-8.922,1.279-13.389c0.814-9.294,1.616-18.589,2.354-27.889c0.966-12.163,2.149-24.301,3.721-36.402
		c0.334-2.571,0.304-5.19,0.402-7.789c0.045-1.186-0.404-2.038-1.991-2.233c-0.078,0.99-0.18,1.851-0.207,2.714
		c-0.057,1.884,0.051,3.782-0.147,5.65c-0.192,1.81-0.256,3.55,0.684,5.319c-1.567,0.885-1.441,2.384-1.523,3.795
		c-0.283,4.837-0.371,9.693-0.861,14.508c-0.78,7.673-1.88,15.313-2.735,22.979c-0.736,6.596-1.339,13.207-1.965,19.815
		c-0.491,5.18-0.895,10.367-1.393,15.546c-0.713,7.41-1.501,14.813-2.199,22.225c-0.141,1.494-0.02,3.013-0.02,4.483
		C80.236,276.666,81.383,277.148,82.886,276.471z M81.539,63.708c-2.46,4.111-4.799,7.916-7.03,11.783
		c-1.704,2.953-2.231,6.134-1.846,9.566c0.277,2.468,0.102,4.989,0.08,7.486c-0.01,1.16-0.23,2.322-0.183,3.476
		c0.041,1.004,0.124,2.089,1.199,2.861c1.006-1.946,1.936-3.769,2.887-5.581c3.207-6.109,6.082-12.359,8.142-18.96
		c1.013-3.247,1.526-6.565,1.609-10.041C84.678,64.09,83.106,63.899,81.539,63.708z M54.598,88.182
		c0.868-0.528,1.331-0.775,1.757-1.075c2.856-2.011,5.631-4.149,8.571-6.029c6.589-4.214,10.934-10.242,14.261-17.139
		c0.219-0.453,0.319-0.963,0.561-1.715c-0.771,0.108-1.272,0.164-1.768,0.25c-0.969,0.169-2.007,0.672-2.889,0.472
		c-2.492-0.564-4.348,0.565-6.184,1.883c-2.94,2.112-5.399,4.731-7.579,7.59c-0.912,1.196-1.54,2.618-2.234,3.969
		c-0.774,1.508-1.409,3.089-2.226,4.572C55.69,83.102,55.301,85.439,54.598,88.182z M97.281,98.399
		c-0.083-0.758-0.147-1.277-0.195-1.798c-0.224-2.421-0.233-4.824,0.292-7.225c1.087-4.971,1.072-9.964,0.124-14.958
		c-0.667-3.516-1.244-7.056-2.815-10.427c-1.768-0.223-3.426-1.52-5.376-0.646c-0.101,0.344-0.23,0.592-0.24,0.845
		c-0.169,4.21-0.417,8.421-0.431,12.632c-0.005,1.479,0.316,3.075,0.93,4.416c1.464,3.202,2.459,6.522,3.318,9.919
		c0.434,1.716,1.217,3.357,1.966,4.975C95.291,97.082,95.973,97.919,97.281,98.399z M21.779,196.533
		c0.038,0.099,0.077,0.199,0.115,0.298c0.388-0.118,0.777-0.234,1.165-0.355c4.61-1.432,9.156-3.139,13.845-4.232
		c7.386-1.722,14.586-1.083,21.227,2.997c0.839,0.516,1.667,1.065,2.551,1.49c4.998,2.405,10.123,3.528,15.568,1.521
		c0.912-0.336,1.905-0.458,2.867-0.647c0.878-0.173,1.761-0.339,2.649-0.441c0.927-0.106,1.863-0.132,2.854-0.196
		c-0.312-1.194-1.184-1.386-1.871-1.664c-1.906-0.77-3.869-1.398-5.795-2.121c-5.931-2.227-12.134-3.042-18.395-3.407
		c-6.364-0.37-12.699,0.06-19.002,1.086c-5.424,0.883-10.612,2.513-15.683,4.568C23.146,195.726,22.475,196.162,21.779,196.533z
		 M120.543,84.895c-0.669-3.202-1.56-5.756-3.14-8.074c-3.784-5.552-8.427-10.245-14.043-13.927
		c-1.805-1.184-3.839-1.847-6.307-0.872c0.112,0.896,0.08,1.801,0.352,2.603c1.047,3.079,2.514,5.98,4.622,8.452
		c1.29,1.512,2.558,3.306,4.964,3.237c0.235-0.007,0.6,0.138,0.696,0.321c0.72,1.383,2.176,1.515,3.392,1.953
		c3.18,1.146,6.006,2.79,8.307,5.292C119.616,84.129,119.898,84.332,120.543,84.895z M78.972,135.61
		c0.459,0.418,0.915,0.831,1.369,1.247c2.044,1.873,4.408,3.505,6.051,5.68c2.066,2.735,4.78,3.844,7.854,4.588
		c0.435,0.105,0.865,0.23,1.295,0.354c2.435,0.7,4.657,1.826,6.693,3.329c0.442,0.326,0.889,0.644,1.502,1.088
		c-1.302-6.251-4.523-10.831-9.503-14.165c-3.297-2.207-6.788-3.939-10.88-4.19C81.477,133.424,80.05,133.927,78.972,135.61z
		 M72.7,174.847c0.703-2.511,1.465-4.866,2.014-7.271c1.291-5.658,1.415-11.36,0.166-17.039c-0.322-1.465-0.911-2.907-1.598-4.246
		c-0.688-1.342-1.725-2.454-3.329-2.859c-1.088,1.434-1.095,3.087-1.279,4.659c-0.545,4.652,0.122,9.292,0.275,13.935
		c0.112,3.408,0.717,6.764,1.938,9.973C71.26,172.981,71.535,174.051,72.7,174.847z M45.074,169.028
		c0.083-0.032,0.206-0.041,0.244-0.101c0.184-0.3,0.396-0.597,0.507-0.926c1.601-4.722,4.289-8.817,7.176-12.834
		c2.083-2.899,3.937-5.969,5.771-9.036c0.661-1.105,1.367-2.327,0.999-3.809c-1.035-0.558-2.042-1.102-2.989-1.612
		C47.318,147.718,41.744,161.301,45.074,169.028z M77.466,136.943c-2.074,1.783-2.439,2.192-2.496,3.397
		c-0.139,2.903,0.33,5.574,3.079,7.273c0.457,0.282,0.864,0.643,1.312,0.94c3.743,2.483,7.334,5.153,10.703,8.139
		c1.325,1.174,2.948,2.015,4.457,2.974c0.259,0.164,0.629,0.154,1.201,0.28C91.367,150.642,85.781,142.707,77.466,136.943z
		 M59.863,175.686c0.361-0.582,0.634-0.911,0.788-1.289c0.679-1.654,1.213-3.377,2.004-4.974c1.452-2.93,2.265-6.005,2.667-9.235
		c0.651-5.238,1.393-10.465,2.077-15.699c0.03-0.229-0.132-0.483-0.243-0.85c-0.782-0.073-1.555-0.146-2.549-0.239
		c-0.472,1.236-0.93,2.38-1.346,3.54c-0.843,2.35-1.585,4.739-2.514,7.053c-0.866,2.157-1.93,4.234-2.892,6.354
		c-0.572,1.26-0.643,2.52-0.346,3.916c0.614,2.882,1.042,5.805,1.506,8.717C59.152,173.838,59.229,174.69,59.863,175.686z
		 M112.743,275.897c-0.266-2.41-0.485-4.271-0.676-6.135c-0.693-6.779-1.325-13.565-2.08-20.337
		c-0.687-6.158-2.141-12.175-3.645-18.173c-0.304-1.211-0.803-2.373-1.231-3.551c-0.262-0.721-0.811-1.005-1.773-1.149
		c0.289,1.291,0.472,2.342,0.763,3.362c1.262,4.415,1.95,8.939,2.322,13.493c0.526,6.432,0.84,12.881,1.25,19.322
		c0.262,4.107,0.177,8.246,1.193,12.576C109.957,275.472,111.138,275.652,112.743,275.897z M99.093,72.279
		c0.38,3.892,0.822,7.61,1.067,11.34c0.093,1.419,0.455,2.642,1.308,3.713c1.951,2.45,3.939,4.871,5.938,7.283
		c0.173,0.208,0.538,0.257,0.928,0.43c0-3.168,0.103-6.123-0.039-9.066c-0.085-1.766-0.533-3.517-0.854-5.268
		c-0.243-1.323-1.018-2.208-2.241-2.816c-1.951-0.97-3.557-2.393-4.896-4.114C99.931,73.3,99.54,72.832,99.093,72.279z
		 M40.418,99.483c2.449,6,12.299,18.766,17.637,22.227c1.012-0.823,1.968-1.784,3.094-2.461c1.094-0.658,2.364-1.026,3.779-1.614
		C55.384,113.22,46.974,107.588,40.418,99.483z M111.315,137.253c-1.905-3.587-4.559-5.923-8.407-6.745
		c-5.153-1.1-10.354-0.795-15.537-0.326c-1.149,0.104-2.469,0.311-3.185,1.293c2.484,0.898,4.936,1.687,7.303,2.681
		c1.128,0.473,2.178,0.726,3.37,0.49c1.879-0.373,3.767-0.239,5.611,0.171c2.01,0.447,3.979,1.075,5.978,1.576
		C107.977,136.776,109.46,137.486,111.315,137.253z M61.332,145.49c-0.31,0.417-0.561,0.659-0.7,0.954
		c-1.724,3.668-4.122,6.902-6.458,10.185c-1.554,2.184-2.977,4.462-4.417,6.725c-0.475,0.747-0.879,1.535-0.623,2.518
		c0.637,2.438,1.354,4.836,3.119,6.739c0.39,0.421,0.932,0.702,1.625,1.209c0.251-0.944,0.511-1.607,0.592-2.29
		c0.21-1.777,0.442-3.56,0.482-5.345c0.064-2.923,0.788-5.64,2.048-8.261c1.24-2.579,2.439-5.18,3.558-7.813
		C61.144,148.733,61.774,147.312,61.332,145.49z M84.344,97.834c1.331-1.569,2.419-2.743,3.383-4.011
		c2.341-3.078,3.248-6.343,1.073-9.931c-0.277-0.457-0.467-0.965-0.695-1.451c-0.809-1.725-1.236-3.539-1.262-5.445
		c-0.008-0.594-0.001-1.188-0.001-1.783c-1.13,1.999-1.846,4.087-2.665,6.133c-1.224,3.059-1.528,6.267-1.361,9.486
		C82.93,93.022,83.174,95.263,84.344,97.834z M90.983,92.061c-1.085,1.98-1.07,1.979-1.024,3.477
		c0.064,2.062,0.168,4.126,0.138,6.188c-0.085,5.742-0.237,11.483-0.345,17.224c-0.016,0.861,0.063,1.723,0.111,2.911
		c1.272-0.45,2.24-0.793,3.116-1.104c0.082-0.504,0.155-0.766,0.162-1.029c0.197-6.905,0.397-13.809,0.563-20.715
		c0.014-0.599-0.102-1.249-0.337-1.799C92.667,95.576,91.878,93.976,90.983,92.061z M83.853,129.018
		c2.606-0.322,4.901-0.58,7.186-0.905c0.687-0.098,1.435-0.245,2.004-0.607c2.145-1.365,4.482-2.232,6.914-2.88
		c2.99-0.797,5.667-2.203,8.078-4.122c0.358-0.285,0.621-0.69,1.103-1.239c-1.594,0-2.913-0.27-4.074,0.047
		c-5.005,1.364-10.021,2.734-14.915,4.441C87.544,124.661,85.301,126.402,83.853,129.018z M89.789,200.529
		c-0.772,2.038-1.706,14.388-1.357,17.454c2.779-2.999,5.554-5.994,8.313-8.971c-0.114-0.668-0.266-1.279-0.316-1.899
		c-0.244-3.018-1.891-4.897-4.687-5.872C91.087,201.012,90.438,200.766,89.789,200.529z M105.284,61.643
		c0.124,0.333,0.134,0.561,0.247,0.638c3.135,2.112,5.955,4.573,8.442,7.426c0.321,0.368,0.886,0.556,1.37,0.743
		c3.59,1.385,7.216,2.703,9.715,5.891c0.049,0.063,0.262-0.003,0.509-0.014c-0.596-2.053-1.593-3.83-2.925-5.407
		c-2.203-2.608-4.63-5.016-7.464-6.917C112.229,62.025,108.917,61.241,105.284,61.643z M52.806,141.639
		c-4.243,0.896-7.587,3.017-10.5,5.861c-2.768,2.702-4.63,6.068-7.291,9.612c1.489-0.298,2.509-0.304,3.335-0.707
		c1.837-0.896,3.621-1.924,5.334-3.039c0.702-0.457,1.321-1.2,1.711-1.951c1.5-2.89,3.49-5.401,5.676-7.781
		C51.666,142.985,52.228,142.305,52.806,141.639z M76.527,148.737c0.957,8.513,3.381,15.878,9.824,21.382
		c-0.015-0.45-0.154-0.848-0.362-1.206c-1.378-2.375-2.07-4.95-2.269-7.671c-0.066-0.895-0.098-1.792-0.185-2.685
		c-0.347-3.537-1.395-6.667-4.872-8.406C78.035,149.837,77.481,149.375,76.527,148.737z M50.405,73.105
		c1.321-0.333,2.245-0.626,3.191-0.793c4.08-0.722,7.59-2.452,10.451-5.522c1.152-1.236,2.556-2.238,3.84-3.352
		c0.426-0.37,0.834-0.761,1.657-1.515C61.289,62.952,54.814,65.856,50.405,73.105z M70.88,78.806
		c-1.883,1.456-3.673,2.662-5.231,4.117c-0.804,0.751-1.47,1.879-1.716,2.948c-0.438,1.901-0.543,3.884-0.713,5.839
		c-0.04,0.466,0.213,0.958,0.34,1.469c0.458-0.09,0.796-0.053,0.956-0.204c2.016-1.905,4.03-3.815,5.983-5.784
		c0.333-0.336,0.533-0.956,0.533-1.445C71.035,83.524,70.944,81.303,70.88,78.806z M67.083,176.239
		c1.569-1.398,2.229-2.939,1.702-4.991c-0.531-2.064-0.917-4.166-1.351-6.254c-0.118-0.569-0.18-1.149-0.28-1.804
		c-0.301,0.195-0.513,0.253-0.556,0.372c-0.821,2.251-1.631,4.505-2.418,6.767c-0.171,0.491-0.455,1.083-0.32,1.514
		C64.416,173.614,65.089,175.36,67.083,176.239z M90.978,186.384c-0.447,1.273-0.241,2.126,0.148,3.065
		c2.488,6.011,5.978,11.615,7.284,18.324c0.751-0.469,1.322-0.826,1.971-1.231C98.21,199.351,94.517,193.05,90.978,186.384z
		 M85.895,180.377c0.596-1.901,0.604-3.632-0.484-5.384c-1.03-1.659-1.683-3.55-2.54-5.32c-0.369-0.762-0.798-1.514-1.853-2.001
		c-0.073,0.741-0.287,1.297-0.145,1.738C82.109,173.241,83.702,176.918,85.895,180.377z M87.702,156.937
		c-0.879-0.697-1.746-1.384-2.849-2.258c0.283,2.874,0.489,5.345,0.787,7.805c0.117,0.963,0.398,1.914,0.688,2.844
		c0.126,0.403,0.465,0.739,0.895,1.391C87.392,163.294,87.539,160.281,87.702,156.937z M78.493,168.999
		c1.671-3.474,1.536-4.377-1.046-7.295c-0.206,1.556-0.458,3.021-0.575,4.496C76.781,167.355,77.379,168.224,78.493,168.999z
		 M90.625,192.433c-0.158,0.042-0.315,0.083-0.473,0.125c-0.156,1.307-0.312,2.615-0.462,3.875c1.172,0.825,2.165,1.524,3.158,2.223
		c0.111-0.089,0.222-0.179,0.333-0.268C92.329,196.403,91.477,194.418,90.625,192.433z"/>
	<g>
		<path d="M163.893,65.39c0.027,0.055,0.16,0.229,0.396,0.522c0.237,0.292,0.528,0.667,0.876,1.126
			c0.348,0.459,0.661,0.869,0.939,1.231c2.001-2.253,4.366-5.103,7.09-8.551c0.251-0.333,0.578-0.521,0.98-0.563
			c0.404-0.042,0.765,0.062,1.086,0.313c0.319,0.25,0.507,0.577,0.563,0.98c0.056,0.403-0.041,0.758-0.292,1.064
			c-3.087,3.893-5.729,7.063-7.925,9.51c0,0.028-0.014,0.07-0.042,0.125c0.111,3.393,0.194,8.037,0.251,13.932
			c0.027,2.002,0.041,4.325,0.041,6.966c0,0.445,0.008,1.161,0.022,2.148c0.014,0.987,0.021,1.926,0.021,2.816v1.335
			c0,0.5,0.007,0.952,0.021,1.355s-0.125,0.751-0.418,1.042c-0.292,0.292-0.639,0.438-1.042,0.438c-0.404,0-0.752-0.139-1.043-0.417
			c-0.292-0.278-0.438-0.619-0.438-1.022v-1.397V97.05c-0.027-0.89-0.041-1.836-0.041-2.837v-2.127
			c-0.029-2.641-0.056-4.964-0.083-6.966c-0.056-5.923-0.126-10.567-0.209-13.932c-0.389-0.5-1.001-1.293-1.834-2.377
			c-0.835-1.085-1.251-1.641-1.251-1.669c-1.725-2.225-3.073-4.115-4.047-5.672c-0.222-0.361-0.285-0.737-0.188-1.127
			c0.097-0.389,0.32-0.688,0.668-0.897c0.348-0.208,0.716-0.271,1.105-0.188s0.695,0.292,0.917,0.626
			C160.932,61.386,162.224,63.221,163.893,65.39z"/>
		<path d="M191.632,69.52c1.558-5.896,3.435-9.58,5.631-11.054c1.28-0.89,2.601-1.042,3.963-0.459c1.084,0.5,2.058,1.474,2.92,2.92
			c1.613,2.613,2.724,6.368,3.336,11.262c0.641,5.144,0.585,10.525-0.167,16.142c-0.361,2.808-0.861,5.102-1.5,6.882
			c-0.474,1.335-1.029,2.447-1.669,3.337c-0.835,1.14-1.808,1.919-2.92,2.336c-3.087,1.084-5.631,0.57-7.633-1.544
			c-1.613-1.724-2.724-4.394-3.336-8.009c-0.501-3.086-0.626-6.555-0.376-10.407c0.251-3.851,0.821-7.571,1.711-11.158
			C191.59,69.686,191.604,69.603,191.632,69.52z M192.842,80.949c-0.251,3.698-0.14,6.993,0.334,9.885
			c0.5,3.059,1.348,5.214,2.544,6.465c1.14,1.196,2.642,1.46,4.505,0.793c1.112-0.389,2.058-1.682,2.837-3.879
			c0.556-1.585,1.001-3.671,1.335-6.257c0.723-5.367,0.778-10.511,0.167-15.433c-0.557-4.449-1.531-7.813-2.92-10.094
			c-0.557-0.917-1.099-1.487-1.628-1.71c-0.333-0.167-0.709-0.112-1.125,0.167c-0.668,0.472-1.364,1.418-2.086,2.836
			c-0.806,1.613-1.57,3.726-2.293,6.34v0.167C193.648,73.677,193.092,77.25,192.842,80.949z"/>
		<path d="M229.881,62.637c-0.027,0.139-0.041,0.334-0.041,0.584v0.292v0.292c-0.027,0.501-0.041,0.932-0.041,1.293
			c-0.167,5.367-0.196,9.872-0.084,13.515c0.166,5.256,0.611,9.455,1.335,12.597c0.834,3.559,1.932,5.631,3.295,6.215
			c0.75,0.306,1.613,0.264,2.586-0.125c1.557-0.584,2.794-2.67,3.711-6.257c0.835-3.17,1.364-7.41,1.585-12.721
			c0.14-3.393,0.153-7.828,0.042-13.306c-0.029-2.559-0.042-4.158-0.042-4.797c0-0.418,0.14-0.772,0.418-1.064
			c0.278-0.292,0.626-0.438,1.043-0.438c0.416,0,0.764,0.146,1.042,0.438c0.278,0.292,0.418,0.646,0.418,1.064
			c0,0.611,0.027,2.197,0.083,4.755c0.111,5.533,0.097,10.024-0.042,13.472c-0.249,5.534-0.806,9.983-1.667,13.348
			c-0.557,2.086-1.238,3.782-2.044,5.089c-0.973,1.613-2.155,2.683-3.546,3.212c-0.752,0.278-1.551,0.424-2.398,0.438
			c-0.849,0.014-1.62-0.118-2.315-0.396c-1.279-0.528-2.364-1.599-3.254-3.212c-0.694-1.307-1.292-2.989-1.793-5.047
			c-0.75-3.337-1.224-7.73-1.418-13.181c-0.111-3.671-0.084-8.231,0.083-13.681c0.029-0.362,0.042-0.793,0.042-1.294v-0.333
			c0.027-0.112,0.041-0.209,0.041-0.292v-0.584c0.027-0.862,0.056-1.515,0.084-1.96c0-0.417,0.146-0.765,0.438-1.042
			s0.639-0.41,1.043-0.396c0.402,0.014,0.743,0.167,1.021,0.459c0.278,0.292,0.418,0.632,0.418,1.022
			C229.924,61.066,229.91,61.747,229.881,62.637z"/>
	</g>
	<g>
		<path d="M130.334,113.927c-1.335,0.918-2.405,2.406-3.212,4.464c-1.585,3.976-2.086,9.19-1.502,15.641
			c0.278,2.781,0.73,5.423,1.355,7.925c0.626,2.503,1.37,4.533,2.231,6.09c0.724,1.391,1.377,2.169,1.96,2.336
			c0.14,0.027,0.278,0,0.418-0.084c0.305-0.167,0.626-0.515,0.96-1.042c0.055-0.056,0.111-0.167,0.167-0.334
			c0.055-0.194,0.125-0.445,0.208-0.751c0.138-0.639,0.264-1.446,0.375-2.419c0.194-1.752,0.348-3.977,0.459-6.674
			c0.112-3.476,0.14-6.744,0.084-9.803c-0.723,0.028-1.766,0.042-3.128,0.042c-0.389,0-0.73-0.146-1.022-0.437
			c-0.292-0.292-0.438-0.64-0.438-1.043s0.146-0.751,0.438-1.042c0.292-0.292,0.632-0.438,1.022-0.438
			c1.78,0,3.171-0.028,4.171-0.084c0.305-0.028,0.583,0.028,0.834,0.167c0.639,0.194,0.973,0.639,1.002,1.335
			c0.138,2.808,0.125,6.604-0.042,11.387c-0.111,2.78-0.264,5.089-0.459,6.924c-0.278,2.392-0.668,3.978-1.168,4.755
			c-0.639,0.946-1.321,1.628-2.044,2.044c-0.862,0.474-1.752,0.571-2.67,0.293c-1.363-0.39-2.614-1.628-3.754-3.713
			c-0.917-1.752-1.724-3.976-2.419-6.674c-0.695-2.697-1.182-5.533-1.46-8.509c-0.639-6.896-0.084-12.555,1.669-16.977
			c1.029-2.613,2.461-4.546,4.296-5.798c2.03-1.446,4.463-1.932,7.299-1.46c0.389,0.056,0.702,0.244,0.939,0.563
			c0.235,0.32,0.326,0.681,0.271,1.084c-0.056,0.403-0.251,0.724-0.585,0.96c-0.334,0.236-0.695,0.326-1.084,0.271
			C133.448,112.592,131.723,112.926,130.334,113.927z"/>
		<path d="M168.375,115.721c2.058,3.003,3.017,6.646,2.878,10.928c-0.167,4.143-1.321,7.759-3.462,10.845
			c-1.557,2.28-3.462,3.907-5.714,4.88c0.472,0.222,1.029,0.5,1.669,0.834c0.167,0.083,0.375,0.194,0.626,0.333
			c2.642,1.335,4.436,2.28,5.38,2.837c0.361,0.222,0.591,0.528,0.689,0.917c0.097,0.389,0.042,0.758-0.167,1.105
			c-0.208,0.348-0.515,0.577-0.917,0.689c-0.404,0.111-0.772,0.055-1.105-0.167c-0.89-0.528-2.628-1.446-5.214-2.753
			c-0.251-0.111-0.459-0.222-0.626-0.333c-1.113-0.557-2.017-1.015-2.712-1.377c0.029,2.141,0.07,4.352,0.126,6.632
			c0,0.39-0.146,0.73-0.438,1.023c-0.292,0.292-0.639,0.445-1.043,0.459c-0.402,0.014-0.75-0.119-1.043-0.397
			c-0.292-0.278-0.437-0.626-0.437-1.042c-0.112-8.454-0.196-21.51-0.251-39.168c-0.112-0.222-0.153-0.445-0.126-0.667
			c0.029-0.417,0.203-0.758,0.522-1.022c0.32-0.264,0.675-0.382,1.064-0.355C162.549,110.285,165.984,112.217,168.375,115.721z
			 M165.372,135.826c1.807-2.614,2.78-5.715,2.92-9.302c0.14-3.616-0.639-6.674-2.335-9.177c-1.558-2.225-3.699-3.643-6.423-4.254
			c0.055,12.207,0.097,21.203,0.125,26.987C161.938,139.469,163.842,138.051,165.372,135.826z"/>
		<path d="M190.816,121.06c1.558-5.896,3.435-9.58,5.631-11.054c1.28-0.89,2.601-1.042,3.963-0.459c1.084,0.5,2.058,1.474,2.92,2.92
			c1.613,2.613,2.724,6.368,3.336,11.262c0.639,5.144,0.585,10.525-0.167,16.142c-0.361,2.808-0.861,5.102-1.5,6.882
			c-0.474,1.335-1.029,2.447-1.669,3.338c-0.835,1.14-1.807,1.918-2.92,2.335c-3.087,1.084-5.631,0.571-7.633-1.543
			c-1.613-1.725-2.724-4.394-3.336-8.009c-0.501-3.086-0.626-6.555-0.375-10.407c0.249-3.851,0.82-7.571,1.71-11.158
			C190.775,121.227,190.788,121.144,190.816,121.06z M192.026,132.489c-0.251,3.698-0.14,6.993,0.334,9.885
			c0.5,3.059,1.348,5.214,2.544,6.465c1.14,1.196,2.642,1.46,4.505,0.793c1.112-0.389,2.058-1.682,2.837-3.879
			c0.556-1.585,1.001-3.671,1.335-6.257c0.723-5.366,0.778-10.511,0.166-15.433c-0.556-4.449-1.529-7.813-2.919-10.094
			c-0.557-0.917-1.099-1.487-1.628-1.71c-0.333-0.167-0.709-0.112-1.125,0.167c-0.668,0.472-1.364,1.418-2.086,2.836
			c-0.806,1.613-1.57,3.726-2.293,6.34v0.167C192.832,125.217,192.276,128.791,192.026,132.489z"/>
		<path d="M225.685,110.924c0-0.389,0.146-0.73,0.438-1.022c0.293-0.292,0.641-0.445,1.043-0.459
			c0.404-0.014,0.752,0.125,1.043,0.417c0.292,0.292,0.438,0.632,0.438,1.022c0.084,8.482,0.167,19.451,0.251,32.91
			c2.53-6.563,4.824-12.875,6.882-18.937c0.111-0.389,0.348-0.674,0.709-0.855c0.361-0.181,0.737-0.216,1.127-0.104l0.041,0.041
			c0.528,0.14,0.876,0.473,1.043,1.001c1.084,3.615,2.864,8.634,5.339,15.058c0.278,0.724,0.583,1.515,0.917,2.378
			c0.084,0.25,0.208,0.57,0.375,0.959c-0.027-3.309-0.07-7.341-0.125-12.096c-0.14-9.093-0.278-15.683-0.418-19.771
			c0-0.389,0.14-0.73,0.418-1.022c0.278-0.292,0.619-0.445,1.021-0.459c0.404-0.014,0.752,0.118,1.043,0.396
			s0.452,0.612,0.479,1.001c0.112,4.116,0.237,10.72,0.376,19.813c0.167,10.122,0.208,16.601,0.125,19.438
			c0,0.251-0.056,0.472-0.167,0.667c-0.138,0.474-0.431,0.793-0.876,0.96c-0.389,0.14-0.764,0.126-1.125-0.041
			s-0.626-0.445-0.793-0.835c-0.445-1.139-1.474-3.796-3.087-7.967c-0.334-0.862-0.639-1.654-0.917-2.377
			c-1.752-4.561-3.128-8.301-4.13-11.22c-2.308,6.674-5.032,13.932-8.174,21.774c-0.14,0.361-0.383,0.626-0.731,0.793
			c-0.348,0.167-0.702,0.194-1.064,0.083c-0.361-0.056-0.653-0.223-0.875-0.501c-0.223-0.278-0.334-0.598-0.334-0.96
			C225.895,133.323,225.797,119.962,225.685,110.924z"/>
	</g>
	<g>
		<path d="M189.124,163.509c1.03,0.189,2.188-1.248,2.127-2.234c-0.365-3.393-4.98-1.201-3.083,1.49
			C188.45,163.19,188.77,163.439,189.124,163.509z"/>
		<path d="M287.597,179.034c-0.035-0.294-0.763-0.343-1.17-0.318c-0.745-0.141-1.512,0.931-1.808,1.275
			c-1.986,2.34-3.971,5.105-5.955,8.295c-2.681,3.852-6.3,9.348-8.932,11.804c-1.064,0.92-2.127,1.772-3.19,2.553
			c-7.717,4.324-6.291-18.625-6.7-23.715c-0.018-5.679,0.567-21.387,1.17-28.075c0.119-3.918,1.395-7.88,1.382-11.804
			c-0.15-1.413-1.695-1.508-2.127-0.32c-2.363,11.337-2.338,20.295-2.978,33.818c-0.005,0.64-0.008,1.302-0.01,1.973
			c-5.671,4.597-20.586,18.863-24.981,10.095c-2.451-4.834-0.636-10.755,0.745-14.994c0.287-1.81-0.965-2.44-2.446-2.02
			c-0.957,0.381-1.932,0.667-2.978,1.277c-2.507,1.244-5.407-0.393-7.018-2.553c-1.36-1.062-3.439-0.564-3.723,1.488
			c-0.382,2.02-0.453,4.094-0.515,6.144c-0.043,1.431,0.721,3.9-5.014,9.33c-5.545,5.251-10.103,7.549-13.081,7.549
			c-7.317-0.449-7.409-12.248-7.443-18.503c0.02-0.862-0.182-1.63-1.063-1.702c-0.329-0.165-0.84,0.33-1.064,0.532
			c-0.425,0.85-0.638,1.56-0.638,2.127c-0.179,1.992-0.145,4.047,0.087,6.107c-4.338,2.944-12.581,5.806-16.677,7.717
			c-1.665,0.951-1.992-1.288-2.446-2.34l-4.678-13.824c-0.397-1.067-1.567-1.302-2.127-0.425c-0.404,0.464-1.465,1.637-2.34,1.808
			c-4.218,1.543-8.206,10.483-2.978,12.761c1.571,0.647,2.914-0.513,3.723-2.02c0.548-0.821,1.897-4.04,2.553-5.425
			c1.925,3.236,2.504,5.505,3.616,9.358c0.263,1.165,0.638,1.64-0.107,2.447c-3.032,2.133-6.513,4.32-8.719,6.699
			c-3.475,3.472-5.318,7.514-5.53,12.123c-0.825,7.883,0.965,21.026,10.846,21.375c4.422,0.094,8.584-3.543,9.358-8.083
			c1.546-11.14-0.121-18.211-1.701-29.456c-0.213-1.205,0.247-2.02,1.383-2.445c4.259-1.92,12.321-4.871,16.282-7.446
			c0.516,2.553,1.323,5.073,2.433,7.446c1.772,2.764,3.935,4.146,6.488,4.146c3.997-0.063,9.305-3.064,12.547-5.636
			c2.039-1.617,4.478-3.05,6.082-5.097c2.612-3.332,2.927-6.066,2.956-9.526c0.006-0.68-0.15-2.431,0.745-2.978
			c1.024,0.361,2.704,1.215,3.723,1.49c0.851,0.216,4.019,0.004,4.998,0c-0.032,2.155-0.337,6.711-0.32,8.081
			c-0.245,4.552,2.873,10.486,8.083,10.316c0.92,0,1.808-0.142,2.658-0.425c3.748-1.137,8.266-3.664,11.538-6.222
			c1.931-1.516,4.194-3.441,6.75-5.73c0.047,6.997,0.28,14.506,0.746,17.962c0.782,5.071,1.853,9.826,6.7,10.209
			c0.92,0,1.877-0.25,2.871-0.745c1.346-0.781,2.553-1.702,3.616-2.765c3.924-3.529,6.862-8.258,9.996-12.974
			c2.409-3.685,4.395-6.344,5.955-7.976c0.425-0.425,0.709-0.957,0.85-1.595C288.182,179.959,287.861,179.134,287.597,179.034z
			 M158.392,181.269c-2.578,1.276,0.134-4.178,1.383-5.318C159.92,178.173,159.43,179.426,158.392,181.269z M170.196,218.063
			c0.049,5.4-4.208,10.27-9.411,7.869c-0.888-0.425-1.686-1.028-2.393-1.808c-1.631-2.057-2.623-4.573-2.978-7.551
			c-0.267-3.758-0.217-5.509-0.107-8.614c-0.146-7.138,6.876-12.796,12.549-15.739C169.793,201.246,170.625,209.828,170.196,218.063
			z"/>
	</g>
</g>
</svg>
