<?xml version="1.0" encoding="utf-8"?>
<!-- Generator: Adobe Illustrator 25.2.0, SVG Export Plug-In . SVG Version: 6.00 Build 0)  -->
<svg version="1.1" id="Layer_1" xmlns="http://www.w3.org/2000/svg" xmlns:xlink="http://www.w3.org/1999/xlink" x="0px" y="0px"
	 viewBox="0 0 300 300" style="enable-background:new 0 0 300 300;" xml:space="preserve">
<style type="text/css">
	.st0{fill:#D18933;}
	.st1{fill:#133F3D;}
	.st2{fill:#D4826A;}
	.st3{fill:#231F20;}
</style>
<g>
	<g>
		<path class="st0" d="M128.21,73.55c9.46,14,1.72,20.82-4.08,20.64c-5.8-0.19-14.77-20.4-16.99-19.25
			c-2.23,1.15,9.54,15.48,11.18,18.36c1.64,2.88,0.41,5.35-2.14,6.75c-2.55,1.4-7.9,3.87-12.92-0.09
			C98.24,96,89.68,83.89,85.83,67.76c-3.86-16.13,2.65-24.61,2.65-24.61C90.55,39.02,118.75,59.55,128.21,73.55z"/>
		<path class="st0" d="M207.48,40.02c0,0-10.72-1.8-23.37,9.38s-19.44,24.64-20.59,31.04c-1.15,6.4,3.62,10.03,6.09,11.65
			c2.47,1.62,5.28,1.56,7.08-1.3c1.81-2.86,9.05-20.26,11.15-18.82s-11.78,19.16-9.17,24.46c2.6,5.3,12.43,8.99,20.49-6.19
			C207.22,75.05,212.2,39.92,207.48,40.02L207.48,40.02z"/>
		<path class="st0" d="M45.56,96.61c0,0,6.37,14.4,16.98,20.7c10.62,6.3,29.02,15.12,36.5,11.98c7.48-3.14,5.51-9.05,1.1-9.68
			c-4.41-0.63-13.61-7.01-14.16-9.06c-0.55-2.05,14,6.22,17.78,5.36c3.78-0.86,5.83-7.32,1.43-11.87s-10.94-8.03-19.18-11.19
			C77.77,89.69,45.72,87.64,45.56,96.61z"/>
		<path class="st0" d="M211.96,86.31c-7.69,4.36-13.62,8.78-17.27,13.97s-0.67,11.23,3.21,11.52s16.99-10.1,16.76-7.99
			c-0.23,2.11-8.36,9.81-12.62,11.1c-4.26,1.29-5.3,7.42,2.56,9.39c7.86,1.97,24.73-9.55,34.26-17.38
			c9.53-7.83,13.65-23.04,13.65-23.04C250.99,75.04,219.65,81.94,211.96,86.31z"/>
		<path class="st0" d="M151.09,66.54c2.44,0.58,1.43,20.73,5.59,20.19c4.17-0.53,7.25-15.17,8.21-28.72
			c0.95-13.54-5.61-31.75-6.7-33.89s-19.97,2.31-23.64,19.38s-2.15,42.34,2.25,44.3c4.4,1.96,11.2-1.28,11.2-1.28
			C152.54,86.83,148.64,65.93,151.09,66.54z"/>
		<path class="st0" d="M128.76,70.32c-1.86-5.16-3.28-9.97-1.94-10.25c0.96-0.2,2.06,2.76,3.35,6.75
			c-0.12-8.37,0.63-16.97,2.09-23.82c0.39-1.81,0.96-3.58,1.71-5.27c-7.82-10.53-15.81-18.54-17.66-16.48c0,0-9.28,7.05-9.86,25.14
			c-0.03,0.96-0.04,1.92-0.04,2.87C114.58,55.31,123.53,63.42,128.76,70.32z"/>
		<path class="st0" d="M86.82,90.68c3.05,1.16,5.79,2.35,8.22,3.55c-4.3-6.08-8.89-14.98-11.5-25.91c-1.07-4.29-1.48-8.72-1.2-13.13
			c-7.06-4.08-13.37-6.73-14.73-7.13c-2.47-0.72-12.87,17.29-2.24,32.7c1.66,2.41,3.57,4.86,5.62,7.28
			C77.74,88.48,83.86,89.54,86.82,90.68z"/>
		<path class="st0" d="M167.21,58.16c-0.11,1.51-0.4,5.23-1.02,9.57c4.31-7.55,9.85-14.34,16.38-20.08c1.02-0.9,2.07-1.76,3.12-2.54
			c1.86-1.4,3.82-2.64,5.87-3.72c-0.97-11.77-7.91-23.05-7.91-23.05c-4.84-3.2-13.16,6.26-19.52,16.3
			C166.02,41.68,167.73,50.65,167.21,58.16z"/>
		<path class="st0" d="M245.78,60.73c0,0-9.43-6.13-26.28-0.61c-3.35,1.09-6.61,2.4-9.8,3.91c-1.77,9.4-4.59,19.34-7.8,25.96
			c1.32-0.99,2.78-1.97,4.35-2.97c3.29-2.59,6.15-4.5,6.94-3.86c5.81-2.42,16.97-5.27,26.18-5.77
			C244.75,68.77,247.87,61.58,245.78,60.73z"/>
		<path class="st1" d="M198.77,132.28c0.51-1.52,1.2-2.98,2.05-4.34c-4.98-2.11-6.26-5.7-6.58-7.3c-0.33-1.65-0.17-3.35,0.47-4.91
			c-2.3-1.03-4.14-2.87-5.19-5.17c-0.75-1.57-1.16-3.28-1.2-5.03c-5.67,0.96-11.29-1.9-13.86-7.04c-0.13-0.25-0.24-0.51-0.33-0.78
			c-2.5,0.32-5.03-0.29-7.1-1.73c-3-1.95-4.98-4.07-6.27-6.18l-0.2,0.15c-0.96,0.74-2.11,1.21-3.31,1.37
			c-1.58,0.2-3.18-0.25-4.43-1.24c-0.22-0.17-0.43-0.36-0.62-0.56c-0.17,0.16-0.35,0.32-0.55,0.46c-0.72,0.54-1.55,0.92-2.44,1.08
			c-2.39,1.01-8.49,3.15-13.68,1.24c-2.37,4.13-6.81,6.63-11.57,6.52c-0.26-0.01-0.52-0.03-0.77-0.06
			c-0.65,1.78-1.82,3.33-3.36,4.44c-0.45,0.34-0.94,0.65-1.44,0.92c-2.03,1.15-4.24,1.96-6.53,2.4c0.4,1.43,0.54,2.92,0.42,4.39
			c-0.19,3.14-1.71,6.04-4.18,7.98c-0.2,0.15-0.41,0.29-0.62,0.42c0.44,0.71,0.77,1.48,0.99,2.28c0.7,2.76,0,5.57-1.88,7.9
			c28.94,2.82,57.19,4.81,88.14,3.11C196.1,132.55,197.45,132.44,198.77,132.28z"/>
	</g>
	<g>
		<g>
			<path class="st2" d="M74.17,140.49c-4.02,2.5-3.88,2.53-5.15,6.6c-2.03,6.79-4.06,13.59-6.05,20.39
				c-0.42,1.48-0.64,2.22-1.06,3.7c0.03,6.49-0.37,14.47,2.77,20.39c0.74,0.83,0.75,2.7-0.66,2.8c-5.41,0.39-8.09,0.78-13.41,1.79
				c-1.45,0.28-1.4-1.68-0.74-2.71c2.96-6.44,2.63-14.5,2.61-21.42c-2.17-7.23-4.31-14.46-6.42-21.71
				c-1.24-4.11-3.55-7.56-4.74-8.36c-0.34-0.26,0.74-1.42,1.28-1.86c4.88-3.95,9.45-1.33,16.03-1.33c0.73,0,0.13,0.95-0.58,1.74
				c-2.45,2.56-1.53,5.4-0.31,9.38c0,0.22,1.98,6.75,4.16,13.86c1.62-5.56,3.27-11.11,4.92-16.66c1.2-4.08,0.12-4.1-0.4-6.61
				c-0.2-0.77,0.68-1.71,1.41-1.71c2.86,0,4.29,0,7.15,0C75.63,138.77,75.36,139.72,74.17,140.49z"/>
			<path class="st2" d="M105.04,167.85c0.13,9.28-4.04,29.53-18.08,27.51c-12.71-1.83-18.49-17.86-18.53-29.25
				c-0.04-11.53,5.28-27.11,19-27.33C100.74,138.56,104.92,159.12,105.04,167.85z M93.97,167.17c-0.07-6.46-3.03-24.8-7.51-24.73
				c-4.63,0.07-7.03,17.08-6.99,23.83c0.04,6.78,2.41,24.46,7.45,24.82C91.74,191.43,94.04,173.04,93.97,167.17z"/>
			<path class="st2" d="M140.04,169.72c0.19,9.08-0.4,20.28,3.33,28.8c0.77,1.06,0.81,3.18-0.62,3.06c-2.25-0.2-3.38-0.3-5.63-0.51
				c-2.37-0.22-5.06-2.7-6.04-8.04c-1.42,3.79-4.17,7.12-8.9,6.52c-12.03-1.52-13.28-17.53-13.88-26.92
				c-0.03-1.83-0.04-2.75-0.07-4.59c-0.12-8.55,0.47-18.99-3.08-26.99c-0.63-0.86-0.17-2.28,1.22-2.28c5.48,0,8.23,0,13.71,0
				c1.39,0,1.03,1.49,0.3,2.36c-3.9,7.61-2.5,19.17-2.33,27.47c0.03,1.87,0.05,2.8,0.08,4.67c0.03,6.28,0.15,21.52,6.36,23.14
				c1.9,0.5,6.17-3.55,6.01-12.48c-0.11-5.87-0.16-8.81-0.27-14.68c-0.15-8.79,0.58-19.92-3.28-28.08c-0.63-0.9-0.45-2.4,0.94-2.4
				c5.48,0,8.23,0,13.71,0c1.39,0,1.31,1.56,0.58,2.47C138.54,149.48,139.86,160.95,140.04,169.72z"/>
			<path class="st2" d="M192.02,204.07c-6.03-0.04-9.04-0.11-15.05-0.33c-0.68-0.02-1.12-1.58-0.74-2.73
				c1.54-5.53,0.59-11.94,0.16-17.5c-4.71-0.12-7.06-0.19-11.76-0.38c-0.84,6.05,0.41,12.2,3.41,17.53c0.56,1.05,0.33,2.7-0.35,2.67
				c-4.09-0.21-6.14-0.34-10.23-0.61c-0.68-0.05-1.18-1.72-0.32-2.68c1.99-2.02,3.56-4.6,4.52-10.41
				c1.76-12.24,3.51-24.49,5.24-36.73c0.64-4.73,0.74-9.07-1.25-12.04c-0.61-0.91-0.25-2.09,0.48-2.09c2.57,0,3.86,0,6.43,0
				c4.11,0,7.4,7.41,8.32,12.19c2.34,13.13,4.67,26.26,7.17,39.36c0.85,4.8,1.12,7.65,4.05,11.03
				C192.99,202.39,192.69,204.07,192.02,204.07z M175.97,179.9c-1.46-10.36-2.72-21.35-6.47-31.2c-1.44,10.3-2.89,20.59-4.34,30.88
				C169.48,179.74,171.64,179.8,175.97,179.9z"/>
			<path class="st2" d="M225.44,200.01c-4.99,1.49-7.51,2.12-12.66,2.96c-0.73,0.12-1.04-1.5-0.53-2.6
				c1.64-3.58,1.32-6.37,0.59-10.94c-0.85-5.32-1.72-13.05-5.35-12.82c-0.47,0.03-1.07,0.32-1.67,0.74
				c0.23,7.32-0.3,16.15,2.88,22.97c0.76,0.94,0.82,3.13-0.59,3.28c-5.4,0.58-8.19,0.48-13.65,0.47c-0.68,0-0.99-1.69-0.34-2.72
				c2.3-3.36,2.64-6.22,2.52-11.01c-0.31-12.86-0.61-25.72-0.92-38.58c-0.11-4.66-0.47-7.87-3.35-10.87
				c-0.83-0.92-0.88-2.13-0.22-2.13c6.54,0,9.82,0,16.36,0c8.84,0.59,12.91,9.94,12.93,17.76c0.02,6.57-1.88,14.52-7.7,18.53
				c4.94,6.67,5.94,15.91,12.01,21.8C226.62,197.59,226.79,199.6,225.44,200.01z M206.46,142.81c-1.73,9.16-1.07,18.82-0.79,28.09
				c0.02,0.72,0.03,1.08,0.05,1.8c5.32-2.67,6.35-10.34,6.2-15.58C211.71,150.55,209.64,144.92,206.46,142.81z"/>
			<path class="st2" d="M253.6,178c0,3.36,0,5.04,0,8.4c0,1.93-0.57,2.95-1.76,3.47c-7.79,3.34-15.57,6.48-23.58,9.26
				c-0.64,0.21-0.93-1.28-0.3-2.43c2.19-3.81,2.54-6.51,2.47-10.88c-0.18-11.74-0.37-23.48-0.55-35.22
				c-0.07-4.26-0.21-7.15-3.43-9.87c-0.94-0.84-1.23-1.95-0.57-1.95c6.2,0,12.41,0,18.61,0c3.44,0,8.87,2.4,8.87,7.27
				c-0.01,7.3-5.92,7.23-8.38,0.4c-1.6-4.52-3.19-5.04-5.36-5.1c0.48,7.82-0.25,15.81-0.31,23.65c0.52-0.09,0.78-0.14,1.31-0.24
				c4.05-0.74,3.71-3,5.42-6.88c0.53-1.25,1.38-1.05,1.38,0.32c-0.01,5.4-0.02,8.09-0.04,13.49c0,1.37-0.84,1.92-1.36,0.99
				c-1.67-3.29-1.36-5.66-5.39-4.83c-0.52,0.11-0.78,0.16-1.3,0.27c0.12,7.84,0.41,15.67,0.99,23.49c1.9-0.72,2.85-1.09,4.74-1.84
				c3.92-1.55,5.69-8.2,7.29-11.92C252.83,176.76,253.6,176.94,253.6,178z"/>
		</g>
	</g>
	<g>
		<g>
			<path class="st3" d="M73.7,271.29c-5.45,0-8.17,0-13.61,0c-0.61,0-1.76-1.2-1.75-2.34c0.22-6.37,0.51-12.6,0.06-18.98
				c-4.34,0.19-6.5,0.32-10.82,0.64c-0.9,6.29-0.27,12.95,3.25,18.4c0.84,0.98,1.48,2.29,0.87,2.29c-3.7,0-6.04,1.02-8.85-1.28
				c-0.46-0.38-1.78-1.85-1.56-2.28c0.57-0.83,2.36-3.67,3.39-9.91c1.96-13.29,3.86-26.6,5.74-39.9c0.7-5.19,0.91-9.66-0.67-12.87
				c-0.49-0.99-0.05-2.72,0.63-2.87c2.38-0.52,3.58-0.75,5.98-1.14c3.83-0.62,6.24,7.91,6.98,13.07
				c1.86,14.28,3.68,28.56,5.68,42.82c0.67,5.24,0.42,8.66,3.9,11.99C73.97,269.94,74.32,271.29,73.7,271.29z M58.1,246.06
				c-1.08-10.95-1.86-22.53-5.2-33.1c-1.56,11.26-3.14,22.53-4.74,33.78C52.12,246.41,54.11,246.27,58.1,246.06z"/>
			<path class="st3" d="M108.71,257.87c-0.08,4.91,0.16,8.15,2.64,11.25c0.8,0.95,0.8,2.17,0.19,2.17c-5.1,0-7.65,0-12.76,0
				c-1.35,0-1.8-1.73-1.32-2.75c2.89-9.85,2.59-20.92,2.73-31.07c0.1-7.36,0.1-14.77-0.48-22.12c-2.02,11.14-4.01,22.29-5.96,33.45
				c-1.14,6.52-2.26,13-3.17,19.56c-0.1,4.55-1.46,4.61-2.95-0.15c-3.38-18.41-5.86-37.02-8.69-55.52
				c-0.08,15.9-0.17,31.79-0.25,47.69c-0.03,5.22,0.05,5.25,2.92,8.57c0.92,1.02,1.24,2.35,0.62,2.35c-2.53,0-3.79,0-6.32,0
				c-0.61,0-1.51-1.35-1.15-2.38c1.34-3.32,2.15-3.33,2.18-8.56c0.08-16.31,0.16-32.61,0.23-48.92c0.03-5.23-0.36-4.99-2.56-8.76
				c-0.63-1.16-0.37-2.85,0.27-2.82c3.12,0.13,4.69,0.27,7.84,0.72c2.69,0.38,4.09,2.57,4.88,7.95c1.76,11.49,3.52,22.98,5.27,34.48
				c1.93-10.98,3.9-21.95,5.89-32.92c0.96-5.31,2.19-6.89,4.43-6.59c3.52,0.48,5.27,0.72,8.78,1.18c0.64,0.08,0.86,1.7,0.15,2.67
				c-2.22,3.16-2.71,6.17-2.78,10.95C109.12,231.49,108.92,244.68,108.71,257.87z"/>
			<path class="st3" d="M145.33,271.29c-5.45,0-8.17,0-13.62,0c-0.61,0-1.03-1.04-0.7-2.06c1.35-5.56,0.88-11.61,0.71-17.25
				c-4.37-0.15-6.55-0.23-10.92-0.4c-0.99,5.98-0.27,12.24,2.67,17.61c0.56,0.93,0.44,2.1-0.17,2.1c-3.7,0-5.56,0-9.26,0
				c-0.61,0-1.29-1.21-0.58-2.16c1.65-2,3.22-4.91,4.33-10.89c2.07-12.39,4.18-24.77,6.31-37.15c0.79-4.71,1.06-8.8-0.52-12.35
				c-0.49-1.09-0.01-2.59,0.68-2.51c2.46,0.3,3.69,0.44,6.14,0.73c3.92,0.45,6.21,8.54,6.87,13.27c1.61,12.83,3.2,25.66,4.96,38.47
				c0.58,4.63,0.79,7.69,3.33,10.59C146.36,270.19,145.94,271.29,145.33,271.29z M131.49,248.41c-0.94-10.38-1.68-21.29-4.77-31.32
				c-1.78,10.29-3.53,20.58-5.27,30.88C125.46,248.15,127.47,248.24,131.49,248.41z"/>
			<path class="st3" d="M175.55,250.91c-0.33,5.75-1.02,11.95-1.64,17.69c-0.25,2.28-1.1,2.69-2.27,2.69c-7.3,0-14.6,0-21.9,0
				c-1.41,0-2.13-1.91-1-4.16c8.36-16.35,11.74-35.83,15.61-53.64c-0.28-0.02-0.42-0.03-0.69-0.04c-2.78-0.17-4.74,4.41-6.53,10.48
				c-2.77,9.36-8.99,0.07-8.89-5.05c0.12-6.17,3.85-9.71,7.19-9.44c6.34,0.52,12.7,0.94,19.06,1.22c1.39,0.06,1.72,1.76,1.06,4.62
				c-4.03,18.03-8.09,36.07-14.93,53.28c1.22,0,1.83,0.01,3.06,0.01c5.83-2.71,8.35-12.59,10.57-18.16
				C174.78,249.21,175.62,249.62,175.55,250.91z"/>
			<path class="st3" d="M188.77,241.47c-0.28,8.53-1.65,19.38,1.61,27.5c0.47,0.9-0.17,2.33-1.45,2.33c-4.96,0-7.43,0-12.39,0
				c-1.29,0-0.72-1.44,0.01-2.34c3.75-8.07,3.16-18.92,3.43-27.58c0.27-8.67,1.48-19.38-1.73-27.67c-0.6-0.98-0.61-2.91,0.72-2.86
				c5.1,0.19,7.65,0.25,12.77,0.29c1.33,0.01,1.2,1.92,0.54,2.87C188.33,221.81,189.05,232.97,188.77,241.47z"/>
			<path class="st3" d="M220.36,218.18c-0.4,14.49-0.79,28.98-1.19,43.46c-0.13,4.65,0.93,4.64,2.07,7.61
				c0.38,0.91-0.74,2.04-1.41,2.04c-2.75,0-4.12,0-6.87,0c-3.37,0-4.04-2.03-5.34-7.81c-3.04-14.27-6.1-28.54-9.21-42.8
				c-0.48,13.82-0.95,27.64-1.43,41.46c-0.15,4.42,0.76,4.47,2.14,7.26c0.46,0.86-0.45,1.89-1.07,1.89c-2.53,0-3.79,0-6.32,0
				c-0.61,0-0.28-1.03,0.54-1.89c2.83-2.78,2.8-2.84,2.95-7.26c0.47-13.78,0.94-27.56,1.41-41.33c0.15-4.42-0.24-4.17-2.35-7.28
				c-0.6-0.96-0.3-2.39,0.33-2.39c2.84,0,4.27,0.03,7.09-0.05c3.53-0.1,5.28,2.16,6.57,7.78c3.08,14.32,6.12,28.64,9.15,42.98
				c0.41-14.43,0.83-28.85,1.24-43.28c0.13-4.61-0.3-4.26-2.25-7.01c-0.57-0.85-0.35-2.37,0.32-2.53c2.46-0.59,3.68-0.93,6.1-1.69
				c0.65-0.2,0.85,1.25,0.17,2.47C220.91,213.73,220.49,213.53,220.36,218.18z"/>
			<path class="st3" d="M251.11,251.76c0.01,1.62,0.01,2.43,0.02,4.05c0.02,5.54,1.42,9.31,1.76,11.49c0.07,0.7-1.22,2.24-1.72,2.67
				c-4.38,3.68-8.33,1.32-14.17,1.33c-12.55-1.48-13.74-23.27-13.76-31.9c-0.03-12.13,4.47-33.04,16.53-38.67
				c8.92-4.16,12.45,9.98,11.94,16.37c-0.69,8.68-10.61,18.14-9.9,5.48c0.17-2.98,1.25-17.84-5.59-14.01
				c-5.29,8.3-6.39,57.19,5.13,58.14c3.52-6.79,2.22-18.16-0.42-25.12c-0.66-1.01-0.64-3.25,0.62-3.52
				c4.71-0.99,7.46-0.62,11.53-3.26c0.57-0.37,0.72,1.31,0.21,2.86C251.51,242.95,251.09,246.21,251.11,251.76z"/>
		</g>
	</g>
</g>
</svg>
