<?xml version="1.0" encoding="iso-8859-1"?>
<!-- Generator: Adobe Illustrator 25.2.0, SVG Export Plug-In . SVG Version: 6.00 Build 0)  -->
<svg version="1.1" id="Layer_1" xmlns="http://www.w3.org/2000/svg" xmlns:xlink="http://www.w3.org/1999/xlink" x="0px" y="0px"
	 width="300px" height="300px" viewBox="0 0 300 300" enable-background="new 0 0 300 300" xml:space="preserve">
<g>
	<g>
		<path d="M139.08,194.635c-2.147-0.646-4.21-1.138-6.175-1.887c-3.057-1.166-6.13-2.347-9.03-3.843
			c-1.399-0.722-2.657-2.014-3.568-3.332c-2.708-3.919-4.785-8.181-5.876-12.85c-0.187-0.803,0.098-1.716,0.172-2.67
			c0.413,0.157,0.572,0.182,0.576,0.223c0.523,5.371,3.483,9.68,6.321,13.969c1.965,2.969,5.193,4.431,8.49,5.552
			c3.109,1.057,6.261,1.99,9.38,3.019c0.583,0.192,1.202,0.478,1.629,0.899c0.716,0.705,0.555,1.581-0.162,2.164
			c-1.075,0.876-0.674,1.476,0.149,2.191c1.658,1.443,3.717,1.791,5.758,2.172c6.781,1.268,13.608,1.899,20.512,1.443
			c0.371-0.025,0.749,0.056,1.137,0.089c-0.28,1.23-0.28,1.23-5.641,2.222c0.535,2.374,1.23,4.725,1.57,7.127
			c0.609,4.303,0.981,8.64,1.506,12.956c0.124,1.02,0.367,2.048,0.716,3.014c4.128,11.411,10.328,21.846,15.466,32.782
			c3.228,6.869,6.261,13.828,9.383,20.747c0.095,0.21,0.2,0.415,0.567,0.599c0-2.19,0.037-4.38-0.006-6.569
			c-0.278-14.028-1.662-27.896-6.185-41.284c-2.43-7.192-5.589-14.049-10.334-20.024c-1.947-2.452-4.348-4.546-6.586-6.759
			c-0.329-0.325-0.901-0.403-1.361-0.596c0.222-0.291,0.445-0.582,0.667-0.873c0.625,0.281,1.344,0.445,1.86,0.861
			c3.824,3.086,7.308,6.485,9.958,10.687c6.135,9.73,9.615,20.385,11.449,31.681c1.839,11.328,2.194,22.722,1.924,34.155
			c-0.02,0.864-0.403,2.351-0.863,2.454c-1.294,0.291-1.436-1.124-1.786-2.013c-4.596-11.68-10.373-22.799-16.098-33.943
			c-0.064-0.124-0.145-0.238-0.388-0.632c0.225,2.753,0.366,5.144,0.627,7.521c0.635,5.778,0.289,11.534-0.782,17.202
			c-0.849,4.494-2.173,8.902-3.362,13.327c-0.285,1.061-0.816,2.072-1.35,3.041c-0.219,0.397-0.747,0.623-1.135,0.927
			c-0.177-0.45-0.512-0.904-0.501-1.349c0.038-1.595,0.241-3.186,0.295-4.781c0.182-5.455-1.03-10.645-2.979-15.706
			c-1.401-3.64-2.704-7.317-4.025-10.908c-0.199,0.581-0.48,1.383-0.75,2.188c-3.002,8.938-8.278,16.464-14.522,23.387
			c-0.451,0.5-0.977,0.948-1.526,1.34c-1.028,0.734-1.726,0.372-1.78-0.918c-0.036-0.87-0.033-1.748,0.034-2.615
			c0.59-7.669-0.439-15.255-1.118-22.862c-0.331-3.71-0.484-7.436-0.706-11.156c-0.097-1.623-0.164-3.247-0.266-5.292
			c-0.67,2.192-1.2,3.986-1.766,5.768c-2.137,6.731-6.347,12.262-10.47,17.816c-4.315,5.813-9.175,11.145-14.8,15.741
			c-0.188,0.153-0.346,0.378-0.559,0.456c-0.287,0.104-0.614,0.097-0.924,0.138c-0.007-0.305-0.079-0.628-0.001-0.91
			c0.074-0.265,0.307-0.486,0.469-0.728c6.911-10.323,11.312-21.626,13.269-33.892c0.318-1.996,0.789-3.968,0.966-6.061
			c-0.26,0.316-0.526,0.627-0.779,0.949c-7.51,9.599-16.363,17.841-25.858,25.411c-2.87,2.288-5.947,4.32-8.981,6.394
			c-0.471,0.322-1.218,0.24-1.837,0.344c0.067-0.627-0.091-1.423,0.235-1.857c4.46-5.936,5.087-13.039,6.266-19.996
			c0.919-5.419,1.369-10.961,3.907-16.354c-0.677,0.349-1.119,0.567-1.553,0.801c-8.92,4.821-18.14,8.923-27.985,11.473
			c-1.957,0.507-3.984,0.758-5.992,1.036c-0.444,0.061-0.942-0.265-1.415-0.412c0.232-0.44,0.352-1.04,0.714-1.297
			c8.124-5.76,13.392-13.74,17.521-22.578c2.837-6.071,6.712-11.422,11.032-16.486c0.349-0.409,0.822-0.712,1.237-1.064
			c0.15,0.085,0.299,0.169,0.449,0.254c-0.21,0.627-0.313,1.319-0.65,1.868c-1.141,1.855-2.425,3.622-3.544,5.49
			c-2.658,4.437-5.377,8.844-7.843,13.387c-3.953,7.282-8.795,13.784-15.457,18.815c-0.15,0.114-0.366,0.141-0.552,0.208
			c0.095,0.163,0.191,0.326,0.286,0.488c1.657-0.39,3.345-0.683,4.967-1.186c11.058-3.427,21.472-8.303,31.307-14.37
			c12.068-7.445,19.237-18.382,22.297-32.123c0.186-0.834,0.289-1.686,0.43-2.53c0.162-0.029,0.323-0.058,0.485-0.087
			c0.138,0.462,0.452,0.952,0.386,1.383c-0.375,2.422-0.618,4.896-1.314,7.231c-3.577,11.991-10.95,21.089-21.505,27.688
			c-0.369,0.231-0.742,0.456-1.109,0.689c-0.079,0.05-0.141,0.128-0.045,0.039c0,0.849,0.123,1.559-0.019,2.212
			c-1.854,8.551-3.65,17.117-5.684,25.626c-0.608,2.542-1.9,4.921-2.904,7.364c-0.19,0.463-0.505,0.874-0.762,1.309
			c0.086,0.089,0.173,0.178,0.259,0.267c1.959-1.532,3.943-3.033,5.873-4.6c8.671-7.044,16.755-14.706,23.921-23.285
			c6.527-7.814,10.769-16.725,12.223-26.871c0.809-5.642,1.583-11.289,2.379-16.934c0.146-1.032,0.137-2.108,1.259-2.746
			C138.551,195.785,138.709,195.224,139.08,194.635z M144.267,282.272c0.131,0.101,0.262,0.202,0.392,0.302
			c0.222-0.363,0.406-0.757,0.671-1.085c6.204-7.657,11.317-15.869,14.084-25.475c2.45-8.506,4.345-17.099,4.406-25.943
			c0.041-5.931-0.607-11.874-1.113-17.798c-0.233-2.721-0.867-5.408-1.292-7.947c-3.763-0.38-7.316-0.738-10.883-1.098
			c-0.235,0.614-0.441,1.305-0.753,1.944c-4.298,8.809-5.933,18.233-6.696,27.906c-0.596,7.56-0.272,15.08,0.268,22.615
			c0.47,6.563,0.909,13.129,1.225,19.7C144.685,277.676,144.382,279.978,144.267,282.272z M148.867,202.81
			c-3.715-0.878-7.674-1.15-10.482-4.579c-0.096,0.744-0.154,1.166-0.206,1.589c-0.694,5.655-1.206,11.341-2.131,16.958
			c-0.927,5.627-2.283,11.161-5.106,16.247c-0.962,1.734-1.525,3.732-2.018,5.673c-0.569,2.241-0.876,4.55-1.268,6.834
			c-1.008,5.87-2.368,11.67-4.672,17.158c-1.924,4.582-4.3,8.974-6.471,13.452c-0.066,0.135-0.077,0.297-0.113,0.446
			c0.703-0.327,1.114-0.87,1.585-1.354c5.4-5.547,9.799-11.842,14.005-18.315c4.853-7.469,6.999-15.884,8.781-24.398
			c0.997-4.761,1.189-9.686,1.984-14.497C143.655,212.583,145.491,207.456,148.867,202.81z M166.034,228.202
			c0.045,8.68-1.613,17.046-3.749,25.348c-0.146,0.569-0.088,1.262,0.089,1.831c0.946,3.044,1.973,6.063,2.947,9.099
			c1.149,3.581,2.441,7.127,3.36,10.767c0.892,3.532,1.198,7.176,0.669,10.85c0.207-0.254,0.327-0.511,0.421-0.777
			c3.319-9.389,4.497-19.095,4.016-28.99c-0.22-4.526-0.601-9.082-2.295-13.382c-1.328-3.371-2.699-6.726-3.985-10.112
			C166.933,231.323,166.52,229.749,166.034,228.202z"/>
		<path d="M48.062,93.167c5.394,3.402,9.472,8.09,13.312,13.048c1.986,2.564,4.039,5.096,6.266,7.449
			c8.146,8.608,17.99,14.425,29.454,17.443c3.535,0.931,7.093,0.67,10.628-0.18c1.374-0.33,2.774-0.548,4.163-0.817
			c0.069,0.181,0.138,0.363,0.208,0.544c-0.673,0.354-1.321,0.769-2.022,1.053c-6.393,2.588-12.773,2.217-19.112-0.19
			c-11.142-4.231-20.676-10.691-27.998-20.225c-2.035-2.65-4.174-5.221-6.253-7.838c-2.992-3.766-6.681-6.72-10.734-9.252
			c-0.205-0.128-0.433-0.227-0.618-0.38c-0.765-0.633-2.331-0.935-1.714-2.274c0.576-1.251,1.967-0.679,3.006-0.462
			c3.922,0.821,7.816,1.787,11.75,2.545c2.639,0.508,5.328,0.757,8.144,1.143c-6.916-6.333-12.05-13.825-17.056-21.42
			c-0.266-0.404-0.574-0.799-0.741-1.244c-0.118-0.313-0.029-0.704-0.033-1.06c0.358-0.002,0.781-0.131,1.061,0.016
			c0.942,0.492,1.82,1.104,2.744,1.632c4.702,2.688,9.72,4.17,15.177,4.284c9.452,0.196,18.69,1.541,27.348,5.645
			c0.48,0.228,0.978,0.417,1.473,0.614c0.078,0.031,0.178,0.004,0.426,0.004c-0.299-0.498-0.557-0.926-0.812-1.356
			c-8.928-15.031-17.732-30.125-23.94-46.555c-0.325-0.859-0.743-1.709-0.889-2.601c-0.096-0.583,0.026-1.515,0.405-1.776
			c0.389-0.268,1.359-0.116,1.813,0.213c1.528,1.105,2.846,2.51,4.411,3.55c6.688,4.448,13.387,8.885,20.176,13.176
			c7.089,4.48,14.137,8.975,20.376,14.651c5.52,5.021,9.347,11.192,12.663,17.75c0.252,0.499,0.238,1.133,0.348,1.705
			c-0.159,0.102-0.319,0.204-0.478,0.305c-0.468-0.396-1.027-0.723-1.385-1.202c-0.782-1.045-1.543-2.122-2.17-3.264
			c-4.263-7.772-10.313-13.94-17.487-18.968c-6.379-4.471-13.032-8.548-19.512-12.876c-5.108-3.412-10.138-6.941-15.204-10.415
			c-0.11-0.076-0.242-0.12-0.668-0.325c1.375,3.153,2.61,6.072,3.914,8.958C83.995,56.37,90.714,67.868,97.564,79.28
			c6.643,11.067,16.083,18.974,28.038,23.89c1.27,0.522,2.402,1.402,3.55,2.187c0.236,0.161,0.255,0.638,0.374,0.969
			c-0.347,0.039-0.734,0.199-1.035,0.099c-11.758-3.926-21.898-10.192-29.383-20.314c-0.4-0.541-1.065-1.008-1.704-1.232
			c-8.11-2.845-16.41-4.831-24.999-5.555c-5.682-0.479-11.403-0.843-16.66-3.424c-1.339-0.658-2.679-1.313-4.401-2.158
			c0.808,1.165,1.367,2.082,2.033,2.914c3.812,4.765,7.643,9.516,11.487,14.256c0.547,0.675,1.205,1.259,1.8,1.896
			c1.901,2.031,4.383,2.612,7.017,3.003c12.662,1.876,23.316,8.008,33.043,15.943c3.219,2.626,6.139,5.622,9.143,8.503
			c0.433,0.415,0.573,1.137,0.848,1.717c-0.15,0.119-0.3,0.239-0.45,0.358c-0.487-0.324-1.016-0.6-1.454-0.979
			c-3.661-3.173-7.147-6.572-10.986-9.511c-10.897-8.34-23.051-13.627-36.847-15.123c-5.936-0.644-11.777-2.162-17.66-3.286
			C48.897,93.353,48.48,93.256,48.062,93.167z"/>
		<path d="M113.243,186.7c-0.434,0.798-0.793,1.65-1.316,2.385c-2.931,4.119-6.63,7.45-10.83,10.216
			c-7.092,4.671-14.59,8.528-23.136,9.544c-5.122,0.609-10.321,0.714-15.489,0.769c-6.538,0.069-13.079-0.129-19.618-0.259
			c-0.539-0.011-1.071-0.381-1.606-0.585c0.384-0.426,0.687-1.043,1.166-1.249c6.277-2.693,11.873-6.451,17.313-10.545
			c5.219-3.928,10.692-7.52,16.053-11.258c0.424-0.295,0.851-0.586,1.233-1.016c-5.101,1.825-10.37,1.842-15.645,1.678
			c-8.188-0.254-16.09-2.011-23.791-4.728c-0.465-0.164-0.796-0.704-1.19-1.069c0.479-0.227,0.948-0.628,1.438-0.655
			c5.132-0.29,9.973-1.688,14.992-3.793c-0.485-0.097-0.675-0.174-0.861-0.166c-11.749,0.502-23.263-0.881-34.511-4.338
			c-0.936-0.288-2.472-0.242-2.349-1.654c0.114-1.316,1.558-0.992,2.492-1.153c9.111-1.564,17.759-4.441,26.095-8.479
			c8.479-4.107,16.918-8.364,25.987-11.12c7.052-2.143,14.273-3.465,21.552-4.521c1.721-0.25,3.438-0.535,5.164-0.743
			c0.713-0.086,1.446-0.014,2.17-0.014c0.044,0.228,0.088,0.456,0.132,0.683c-0.654,0.242-1.29,0.564-1.964,0.714
			c-5.098,1.132-10.194,2.275-15.308,3.329c-10.642,2.195-20.633,6.184-30.436,10.766c-7.178,3.355-14.294,6.916-22.076,8.755
			c-3.227,0.762-6.482,1.405-9.79,2.421c3.021,0.65,6.025,1.4,9.066,1.931c8.086,1.412,16.263,2.007,24.436,1.441
			c6.834-0.473,13.632-1.52,20.43-2.434c5.952-0.8,11.798-2.133,17.379-4.404c4.662-1.897,8.879-4.511,12.374-8.2
			c0.525-0.554,1.158-1.005,1.74-1.504c0.135,0.114,0.27,0.227,0.405,0.341c-0.24,0.42-0.441,0.87-0.727,1.256
			c-3.955,5.347-9.42,8.531-15.552,10.692c-7.201,2.538-14.698,3.791-22.24,4.698c-4.87,0.586-9.624,1.401-14.188,3.313
			c-4.153,1.74-8.522,2.786-13.087,3.411c3.132,0.733,6.259,1.493,9.398,2.194c6.756,1.508,13.623,1.974,20.488,1.384
			c3.525-0.303,6.993-1.404,10.452-2.279c1.382-0.35,2.71-0.985,3.996-1.624c5.372-2.671,10.707-5.417,16.086-8.073
			c0.789-0.39,1.992-1.311,2.567-0.228c0.571,1.077-0.779,1.701-1.601,2.203c-1.651,1.007-3.317,2.019-5.068,2.83
			c-9.441,4.373-18.088,10.08-26.738,15.786c-7.739,5.104-14.897,11.146-23.664,14.836c0.584,0.06,1.168,0.175,1.751,0.171
			c3.342-0.027,6.684-0.09,10.026-0.126c4.309-0.046,8.622,0.014,12.927-0.132c16.938-0.575,30.733-7.606,41.641-20.468
			c0.395-0.465,0.624-1.071,0.93-1.611C112.643,186.244,112.943,186.472,113.243,186.7z"/>
		<path d="M137.701,90.066c-0.413-0.61-0.878-1.193-1.232-1.835c-2.198-3.99-3.309-8.365-4.183-12.769
			c-1.297-6.531-2.34-13.112-3.503-19.67c-0.074-0.415-0.171-0.855-0.378-1.214c-3.569-6.17-5.103-13.006-6.512-19.881
			c-0.088-0.429,0.07-0.909,0.421-1.395c1.899,6.007,3.798,12.015,5.697,18.022c0.152-0.021,0.303-0.042,0.455-0.064
			c0.089-1.052,0.146-2.108,0.273-3.156c0.419-3.448,0.898-6.89,1.271-10.343c0.076-0.703-0.02-1.552-0.358-2.153
			c-2.369-4.208-4.933-8.31-7.204-12.568c-1.149-2.154-1.823-4.561-2.703-6.857c-0.136-0.355-0.218-0.729-0.429-1.449
			c-3.367,14.297-4.669,28.311-1.6,42.513c-0.152,0.059-0.303,0.118-0.455,0.177c-0.331-0.568-0.815-1.097-0.967-1.71
			c-0.729-2.948-1.724-5.888-1.971-8.885c-0.699-8.466-0.412-16.925,1.351-25.276c0.499-2.363,1.116-4.705,1.782-7.027
			c0.289-1.01,0.776-1.982,1.3-2.898c0.194-0.34,0.786-0.686,1.138-0.634c0.329,0.05,0.715,0.579,0.842,0.973
			c0.794,2.479,1.206,5.134,2.337,7.44c2.372,4.835,5.111,9.49,7.759,14.329c0.573-2.496,1.124-4.966,1.712-7.427
			c0.258-1.079,0.501-2.178,0.924-3.196c0.249-0.601,0.837-1.061,1.273-1.584c0.398,0.537,0.973,1.019,1.162,1.622
			c0.795,2.529,1.4,5.119,2.214,7.641c1.445,4.476,4.743,7.823,7.235,11.665c1.44,2.22,2.626,4.606,3.879,6.943
			c0.191,0.355,0.125,0.847,0.178,1.276c-0.141,0.08-0.283,0.16-0.424,0.24c-0.411-0.398-0.902-0.741-1.221-1.202
			c-2.941-4.261-5.85-8.543-8.771-12.817c-2.2-3.22-3.167-6.916-4.112-10.621c-0.105-0.413-0.197-0.83-0.558-1.259
			c-0.727,3.382-1.446,6.765-2.183,10.145c-1.439,6.594-2.532,13.262-1.771,20c0.692,6.131,1.774,12.231,2.958,18.291
			c1.064,5.447,2.253,10.894,4.699,15.952c0.054,0.112,0.007,0.273,0.007,0.412C137.922,89.9,137.811,89.983,137.701,90.066z"/>
		<path d="M224.248,32.003c-12.603,4.663-23.307,12.197-32.116,22.309c-8.855,10.165-13.77,22.354-16.931,35.327
			c-0.119-0.006-0.238-0.011-0.358-0.017c0-1.232-0.101-2.473,0.017-3.693c0.517-5.329,2.734-10.154,4.663-15.044
			c4.58-11.616,12.153-20.931,22.076-28.429c6.062-4.58,12.534-8.4,19.67-11.043c1.17-0.433,2.402-0.765,3.635-0.942
			c1.426-0.205,1.927,0.566,1.255,1.823c-0.615,1.151-1.312,2.262-2.012,3.365c-4.24,6.679-6.613,14.078-7.113,21.857
			c-0.72,11.187-3.956,21.545-8.886,31.464c-2.22,4.467-5.326,8.31-9.092,11.593c-0.653,0.57-1.417,1.54-2.305,0.652
			c-0.227-0.227,0.32-1.594,0.832-2.134c2.87-3.027,5.932-5.93,7.812-9.7c4.309-8.642,8.078-17.516,9.128-27.231
			c0.716-6.623,1.876-13.121,4.391-19.296c1.106-2.716,2.641-5.26,4.017-7.863c0.488-0.923,1.082-1.791,1.627-2.684
			C224.455,32.212,224.351,32.107,224.248,32.003z"/>
		<path d="M161.903,21.75c-3.061,5.409-4.727,10.999-5.741,16.858c-0.731,4.223-1.754,8.41-2.889,12.547
			c-2.404,8.765-1.477,17.239,1.912,25.534c1.04,2.546,2.253,5.021,3.38,7.531c0.267,0.594,0.506,1.2,0.758,1.8
			c-0.134,0.124-0.267,0.247-0.401,0.371c-0.521-0.436-1.224-0.771-1.533-1.325c-1.503-2.693-3.176-5.339-4.275-8.2
			c-2.015-5.246-3.683-10.65-3.091-16.393c0.296-2.874,0.649-5.794,1.454-8.554c1.694-5.808,3.002-11.685,4.043-17.636
			c0.963-5.502,3.543-10.41,5.914-15.379c0.253-0.531,1.036-0.809,1.572-1.205c0.241,0.58,0.712,1.172,0.686,1.74
			c-0.303,6.57-0.802,13.134-1.011,19.706c-0.28,8.8-0.573,17.604,0.937,26.36c1.051,6.091,1.799,12.234,2.751,18.343
			c0.244,1.568,0.748,3.095,1.123,4.643c0.103,0.427,0.171,0.862,0.255,1.293c-0.152,0.067-0.305,0.134-0.457,0.201
			c-0.416-0.708-1.018-1.367-1.217-2.132c-0.864-3.309-1.77-6.62-2.362-9.983c-0.98-5.564-1.98-11.145-2.505-16.763
			c-0.516-5.526-0.513-11.106-0.611-16.664c-0.041-2.314,0.243-4.634,0.384-6.951c0.306-5.02,0.615-10.04,0.922-15.06
			C161.911,22.287,161.903,22.143,161.903,21.75z"/>
		<path d="M38.462,151.14c2.385-1.803,4.754-3.626,7.158-5.404c3.198-2.365,6.421-4.882,10.447-5.446
			c3.37-0.472,6.85-0.517,10.253-0.299c4.129,0.264,8.177,0.613,12.15-0.99c2.565-1.035,5.17-0.728,7.825-0.013
			c2.968,0.799,6.011,1.711,9.043,1.792c4.906,0.132,9.546-1.324,13.741-3.986c0.326-0.207,0.642-0.451,0.997-0.586
			c0.233-0.088,0.692-0.107,0.762,0.012c0.146,0.248,0.241,0.7,0.107,0.905c-0.366,0.56-0.808,1.097-1.315,1.533
			c-2.895,2.49-6.404,3.478-10.072,4.129c-4.59,0.815-8.98,0.09-13.212-1.662c-2.786-1.154-5.49-1.262-8.327-0.227
			c-3.891,1.421-7.92,1.166-11.916,0.61c-6.732-0.937-12.764,0.552-18.096,4.829c-2.38,1.909-4.818,3.748-7.266,5.568
			c-0.77,0.572-1.616,1.106-2.511,1.421c-0.559,0.197-1.497,0.183-1.855-0.162c-0.349-0.336-0.395-1.298-0.187-1.836
			c0.485-1.255,1.136-2.461,1.836-3.616c5.852-9.662,14.021-16.422,24.902-19.743c3.233-0.987,6.468-1.971,9.728-2.861
			c0.914-0.25,1.921-0.199,2.885-0.204c0.264-0.001,0.529,0.297,0.793,0.458c-0.188,0.256-0.327,0.659-0.574,0.743
			c-1.004,0.341-2.033,0.618-3.068,0.857c-7.314,1.69-14.23,4.356-20.628,8.32c-3.986,2.47-7.036,5.905-9.856,9.558
			c-1.469,1.903-2.764,3.941-4.138,5.918C38.202,150.885,38.332,151.013,38.462,151.14z"/>
		<path d="M171.235,75.475c-1.466-1.521-1.597-3.323-1.745-5.046c-0.912-10.57,1.548-20.438,6.356-29.8
			c5.324-10.368,12.179-19.539,21.135-27.067c0.961-0.808,1.982-1.558,3.042-2.23c0.395-0.25,1.243-0.432,1.422-0.232
			c0.309,0.346,0.438,1.056,0.326,1.541c-0.5,2.163-1.403,4.272-1.622,6.454c-0.429,4.273-0.49,8.583-0.722,12.877
			c-0.149,2.744-0.32,5.487-0.511,8.228c-0.033,0.475-0.125,0.99-0.353,1.395c-0.227,0.403-0.659,0.691-1.001,1.03
			c-0.124-0.428-0.326-0.852-0.351-1.286c-0.027-0.473,0.156-0.954,0.169-1.434c0.103-3.771,0.223-7.543,0.269-11.315
			c0.06-4.913,0.627-9.739,2.198-14.418c0.076-0.227,0.134-0.462,0.177-0.698c0.014-0.076-0.048-0.165-0.126-0.405
			c-9.585,7.617-16.715,17.083-22.169,27.886C172.25,51.804,169.96,63.274,171.235,75.475z"/>
		<path d="M132.064,108.691c-2.228,0.902-4.523,1.669-6.662,2.748c-1.747,0.881-3.391,2.029-4.921,3.257
			c-1.214,0.973-1.512,2.411-1.087,3.965c0.229,0.836,0.329,1.707,0.535,2.55c0.538,2.205,0.255,4.35-1.191,6.044
			c-2.982,3.494-4.078,7.665-5.084,11.991c-0.523,2.246-1.513,4.53-2.838,6.413c-2.635,3.742-2.908,7.274-0.428,11.162
			c0.914,1.433,1.377,3.166,1.947,4.796c0.125,0.358-0.169,0.863-0.27,1.301c-0.388-0.208-0.947-0.316-1.135-0.64
			c-1.357-2.34-2.797-4.653-3.904-7.112c-1.393-3.095-1.023-6.291,0.96-8.966c2.527-3.409,3.863-7.202,4.649-11.271
			c0.534-2.768,1.678-5.262,3.502-7.388c1.911-2.228,2.405-4.653,1.503-7.415c-1.09-3.336-0.799-5.768,3.449-8.553
			c2.947-1.932,6.291-2.93,9.712-3.646c0.427-0.089,0.927,0.175,1.394,0.275C132.15,108.366,132.107,108.528,132.064,108.691z"/>
		<path d="M139.265,99.212c0.909,1.996,0.653,2.885-1.056,3.768c-1.281,0.662-2.628,1.197-4.087,1.62
			c0.779-1.815,3.026-2.049,4.05-3.554c-0.01-0.13,0.017-0.247-0.029-0.313c-1.378-1.996-1.265-2.495,0.947-3.556
			c4.356-2.091,9.031-3.077,13.745-3.942c1.707-0.313,3.442-0.61,5.071-1.181c5.959-2.088,11.045-0.445,15.562,3.537
			c1.81,1.595,3.493,3.355,5.095,5.162c1.92,2.164,4.254,2.904,7.032,2.483c3.725-0.564,6.96,0.093,9.058,3.597
			c0.169,0.283,0.21,0.642,0.31,0.966c-0.388-0.035-0.791-0.018-1.156-0.127c-0.199-0.06-0.354-0.32-0.495-0.514
			c-1.651-2.277-3.968-2.839-6.568-2.398c-4.146,0.702-7.487-0.293-10.365-3.615c-2.059-2.376-4.655-4.355-7.241-6.186
			c-2.673-1.892-5.725-2.269-9.003-1.409c-5.324,1.397-10.72,2.518-16.058,3.863C142.454,97.822,140.92,98.582,139.265,99.212z"/>
		<path d="M97.867,61.715c0.369,0.475,0.758,0.936,1.102,1.427c3.555,5.072,6.89,10.316,10.704,15.185
			c5.667,7.236,12.198,13.636,20.034,18.585c0.743,0.469,1.401,1.072,2.098,1.613c-0.081,0.184-0.161,0.369-0.242,0.553
			c-0.564-0.164-1.168-0.248-1.686-0.505c-4.291-2.128-7.957-5.137-11.513-8.288c-8.636-7.652-15.176-16.891-20.457-27.078
			c-0.205-0.395-0.336-0.828-0.502-1.243C97.559,61.882,97.713,61.799,97.867,61.715z"/>
		<path d="M103.674,148.107c-1.386,1.677-46.4,16.301-48.586,15.709c0.702-0.384,1.368-0.874,2.113-1.135
			c5.702-1.998,11.382-4.076,17.143-5.892c9.168-2.89,18.393-5.6,27.598-8.375C102.376,148.282,102.84,148.251,103.674,148.107z"/>
		<path d="M74.159,109.08c0.782,0.619,1.556,1.249,2.347,1.856c8.968,6.882,18.765,12.051,29.916,14.387
			c1.224,0.256,2.491,0.3,3.724,0.516c0.414,0.073,0.787,0.376,1.179,0.573c-0.416,0.211-0.858,0.643-1.245,0.599
			c-2.819-0.323-5.705-0.451-8.425-1.181c-10.074-2.703-19.026-7.518-26.551-14.831c-0.488-0.474-0.896-1.03-1.341-1.547
			C73.895,109.328,74.027,109.204,74.159,109.08z"/>
		<path d="M205.839,55.647c-0.118,0.685-0.113,1.42-0.371,2.047c-2.673,6.473-5.315,12.96-8.116,19.377
			c-1.991,4.561-4.211,9.022-6.336,13.525c-0.248,0.524-0.492,1.064-0.835,1.524c-0.189,0.254-0.58,0.359-0.879,0.532
			c-0.041-0.342-0.209-0.731-0.103-1.018c0.606-1.631,1.228-3.259,1.936-4.847c4.075-9.137,8.177-18.261,12.267-27.392
			c0.582-1.298,1.146-2.605,1.718-3.907C205.36,55.54,205.6,55.593,205.839,55.647z"/>
		<path d="M112.442,173.627c-2.282,1.038-0.61,3.358-1.739,4.784c-0.124,0.156,0.364,0.957,0.718,1.306
			c2.726,2.684,5.407,5.424,8.267,7.959c2.424,2.149,5.073,4.044,7.612,6.064c0.318,0.253,0.572,0.587,0.96,0.993
			c-1.22,0.709-2.061,0.091-2.783-0.432c-2.979-2.158-5.993-4.283-8.824-6.625c-2.234-1.848-4.245-3.972-6.305-6.022
			c-1.364-1.358-2.414-2.84-1.162-4.877c0.176-0.286,0.047-0.756,0.066-1.141C109.331,174.037,110.533,173.162,112.442,173.627z"/>
		<path d="M95.978,228.959c10.284-9.593,17.138-21.416,22.355-34.303c0.173,0.041,0.345,0.081,0.518,0.122
			c-0.063,0.589-0.044,1.201-0.203,1.762c-1.528,5.391-4.068,10.332-6.945,15.095c-3.643,6.031-7.878,11.608-13.219,16.268
			c-0.636,0.555-1.39,0.973-2.09,1.454C96.255,229.224,96.117,229.092,95.978,228.959z"/>
		<path d="M183.168,90.838c-0.129-1.182-0.428-2.374-0.36-3.544c0.373-6.405,2.198-12.429,5.075-18.137
			c1.064-2.112,2.233-4.174,3.424-6.218c0.331-0.567,0.913-0.988,1.379-1.475c0.161,0.102,0.322,0.205,0.483,0.307
			c-0.199,0.529-0.343,1.086-0.605,1.582c-3.604,6.815-6.627,13.849-8.004,21.487c-0.298,1.655-0.386,3.349-0.575,5.024
			c-0.035,0.307-0.09,0.612-0.136,0.918C183.622,90.8,183.395,90.819,183.168,90.838z"/>
		<path d="M168.633,213.501c0.434,0.224,0.946,0.365,1.284,0.688c0.731,0.699,1.487,1.418,2.034,2.258
			c5.055,7.768,8.645,16.19,11.029,25.132c0.157,0.588,0.093,1.235-0.123,1.918c-4.056-10.293-7.683-20.734-14.434-29.66
			C168.493,213.725,168.563,213.613,168.633,213.501z"/>
		<path d="M78.036,199.699c10.368-4.349,19.691-10.274,27.892-18.581c-0.108,0.761-0.027,1.327-0.266,1.675
			c-0.839,1.223-1.616,2.573-2.723,3.515c-6.159,5.242-13.022,9.386-20.458,12.556c-1.381,0.589-2.889,0.876-4.339,1.303
			C78.106,200.01,78.071,199.855,78.036,199.699z"/>
		<path d="M114.887,75.161c3.27,4.283,6.438,8.432,9.622,12.602C121.894,87.883,114.198,78.038,114.887,75.161z"/>
		<path d="M126.516,217.721c0.221-0.825,0.349-1.502,0.582-2.14c1.238-3.396,2.484-6.79,3.78-10.164
			c0.183-0.477,0.657-0.842,0.996-1.259c0.179,0.529,0.58,1.094,0.501,1.581c-0.663,4.072-2.484,7.685-4.617,11.159
			c-0.149,0.242-0.37,0.446-0.585,0.637C127.083,217.615,126.921,217.613,126.516,217.721z"/>
		<path d="M92.247,171.955c5.524-3.147,11.048-6.294,16.573-9.441c0.075,0.049,0.149,0.097,0.224,0.146
			c-0.34,0.451-0.597,1.02-1.036,1.33c-1.574,1.111-3.146,2.255-4.837,3.165c-2.93,1.576-5.941,3-8.935,4.453
			c-0.59,0.286-1.258,0.411-1.89,0.611C92.312,172.13,92.28,172.042,92.247,171.955z"/>
		<path d="M175.613,92.189c1.188,1.197,2.648,2.229,3.501,3.63c1.266,2.082,2.815,3.015,5.215,2.662
			c0.544-0.08,1.192,0.011,1.675,0.256c0.304,0.154,0.39,0.739,0.574,1.131c-0.373,0.096-0.756,0.297-1.118,0.267
			c-0.907-0.076-1.822-0.438-2.704-0.359c-1.824,0.164-2.958-0.544-3.916-2.079c-0.883-1.415-2.12-2.606-3.167-3.922
			c-0.268-0.337-0.408-0.775-0.606-1.166C175.248,92.469,175.43,92.329,175.613,92.189z"/>
		<path d="M93.663,115.792c3.105,1.418,6.21,2.835,9.371,4.279c-0.655,1.264-1.555,0.795-2.229,0.538
			c-2.716-1.032-5.587-1.847-7.566-4.12C93.38,116.258,93.521,116.025,93.663,115.792z"/>
		<path d="M92.281,186.662c0.426-0.355,0.642-0.589,0.904-0.745c1.903-1.135,3.81-2.262,5.73-3.367
			c0.261-0.15,0.6-0.163,0.903-0.239c0.037,0.311,0.191,0.665,0.093,0.926C99.344,184.757,94.29,187.148,92.281,186.662z"/>
		<path d="M191.933,75.614c0.879,2.127-1.191,7.695-3.238,8.736C189.774,81.438,190.853,78.526,191.933,75.614z"/>
		<path d="M111.392,200.418c0.724,1.637-2.927,6.801-5.298,7.408C107.831,205.397,109.569,202.968,111.392,200.418z"/>
		<path d="M175.407,234.891c-1.075-2.899-2.054-5.537-3.094-8.34C174.277,227.302,176.301,232.763,175.407,234.891z"/>
		<path d="M144.627,93.424c-0.582,0-1.219-0.154-1.735,0.03c-1.295,0.463-2.525,1.104-3.803,1.618
			c-0.438,0.176-0.941,0.188-1.415,0.275c0.226-0.452,0.344-1.161,0.698-1.31c1.518-0.642,3.086-1.193,4.679-1.611
			c0.489-0.129,1.117,0.269,1.681,0.426C144.698,93.044,144.663,93.234,144.627,93.424z"/>
		<path d="M90.888,156.167c-0.406,1.693-4.614,3.674-6.726,3.344C86.635,158.281,88.761,157.224,90.888,156.167z"/>
		<path d="M155.96,206.81c0.248,0.415,0.626,0.801,0.721,1.248c0.363,1.695,0.785,3.398,0.914,5.118
			c0.71,9.446-1.164,18.548-3.845,27.527c-0.168,0.564-0.531,1.069-0.803,1.602c-0.162-0.024-0.325-0.049-0.487-0.073
			c0-0.694-0.109-1.407,0.017-2.077c0.909-4.835,1.988-9.64,2.775-14.494c0.952-5.878,1.344-11.799,0.278-17.726
			c-0.055-0.307-0.007-0.632-0.007-0.948C155.668,206.929,155.814,206.87,155.96,206.81z"/>
		<path d="M151.604,217.927c1.906,1.106,1.139,6.949-1.186,8.646C150.811,223.704,151.21,220.799,151.604,217.927z"/>
	</g>
	<g>
		<path d="M144.311,123.49c-1.201,0.913-1.753,1.97-2.281,3.146c-1.177,2.931-5.789,13.981-9.249,13.981
			c-1.897,0-3.194-1.298-2.474-3.003l2.57,0.433c-0.648,0.504-0.432,1.706,0.121,1.706c0.047,0,0.12-0.024,0.192-0.049
			c0.528-0.24,1.154-0.769,1.802-1.513c0.481-0.553,1.25-1.729,1.85-2.666l-4.06-8.648c-0.72-1.658-1.201-2.666-2.426-3.387h5.885
			c-0.721,0.721-0.745,1.585-0.145,3.003l2.474,5.765c0.721-1.537,1.682-3.675,2.57-5.693c0.553-1.25,0.36-2.21-0.552-3.075H144.311
			z"/>
		<path d="M155.988,129.52c0,3.291-2.522,6.006-5.596,6.006c-3.1,0-5.621-2.715-5.621-6.006c0-3.363,2.522-6.054,5.621-6.054
			C153.466,123.466,155.988,126.156,155.988,129.52z M151.689,124.475c-0.072-0.024-0.145-0.024-0.24-0.024
			c-1.25,0-2.762,1.946-3.411,4.564c-0.696,2.763-0.24,5.237,1.057,5.477c0.097,0.024,0.193,0.024,0.265,0.024
			c1.272,0,2.762-1.946,3.41-4.516C153.466,127.238,152.985,124.763,151.689,124.475z"/>
		<path d="M165.647,134.011c-0.792,0.961-2.066,1.489-3.315,1.489c-1.729,0-3.435-1.057-3.675-3.579l0.025-5.092
			c0.024-1.393-0.145-2.618-1.009-3.339h3.891v3.363l-0.024,4.757c0.024,1.897,0.865,2.763,1.825,2.763
			c0.841,0,1.754-0.673,2.282-1.898v-5.621c0-1.633-0.384-2.378-0.888-3.363h4.876c-0.673,1.033-0.792,1.754-0.937,3.363v5.982
			c-0.024,0.888,0.288,2.354,0.961,2.666h-4.012V134.011z"/>
		<path d="M186.694,135.501c-0.792,0-1.537-0.432-2.162-0.985v0.985h-3.988c0.816-0.648,0.984-1.946,0.961-3.387v-10.113
			c-0.047-1.321,0-2.522-0.961-3.387h3.988v6.318c0.552-0.889,1.802-1.418,2.882-1.418c2.619,0,5.453,1.418,5.453,5.862
			C192.867,134.18,190.153,135.501,186.694,135.501z M189.816,129.495c0-2.45-1.344-5.092-3.122-5.092
			c-1.058,0-1.658,0.648-2.162,1.585v7.663c0.528,0.576,1.272,1.033,2.162,1.033C188.519,134.684,189.816,131.657,189.816,129.495z"
			/>
		<path d="M203.727,131.585h1.562c-0.168,2.306-2.883,3.916-4.973,3.916c-3.723-0.024-5.765-2.042-5.765-5.957
			c0-3.46,2.57-6.078,5.765-6.078c4.324,0,5.14,3.7,5.14,5.861h-7.519c0,0.072-0.432,5.429,2.378,5.429
			C202.07,134.756,203.704,133.651,203.727,131.585z M197.963,128.583h3.963c0.121-1.537-0.12-4.372-1.61-4.396
			C198.611,124.187,198.082,126.757,197.963,128.583z"/>
		<path d="M207.142,135.501c0.577-0.744,0.888-1.369,0.961-3.363v-11.026c0.049-1.177-0.528-1.874-0.961-2.498h3.988v13.524
			c0.024,1.585,0.192,2.594,0.961,3.363H207.142z"/>
		<path d="M225.015,129.52c0,3.291-2.522,6.006-5.596,6.006c-3.1,0-5.621-2.715-5.621-6.006c0-3.363,2.522-6.054,5.621-6.054
			C222.493,123.466,225.015,126.156,225.015,129.52z M220.716,124.475c-0.072-0.024-0.144-0.024-0.24-0.024
			c-1.25,0-2.762,1.946-3.411,4.564c-0.696,2.763-0.24,5.237,1.057,5.477c0.097,0.024,0.193,0.024,0.265,0.024
			c1.272,0,2.762-1.946,3.41-4.516C222.493,127.238,222.013,124.763,220.716,124.475z"/>
		<path d="M230.711,124.932c0.769-0.913,2.114-1.441,3.411-1.441c1.849,0,3.627,1.057,3.627,3.579v5.068
			c-0.047,1.369,0.096,2.667,0.961,3.363h-3.939l0.049-3.411l0.024-4.756c-0.024-1.874-0.841-2.738-1.802-2.738
			c-0.865,0-1.778,0.672-2.33,1.922v5.573c0,1.658,0.409,2.474,0.961,3.411h-4.972c0.696-1.009,0.841-1.778,0.961-3.411v-5.909
			c0.049-0.961-0.264-2.354-0.961-2.69h4.012V124.932z"/>
		<path d="M242.315,133.82c1.177,0,3.604-1.081,5.525-1.081c1.514,0,2.715,0.673,2.715,3.051c0,2.979-2.57,4.636-4.997,4.636
			c-2.378,0-4.587-1.561-4.155-4.972c-0.481-0.336-0.817-0.985-0.817-1.874c0-1.081,0.888-2.066,1.922-2.354
			c-1.298-0.769-2.114-2.042-2.114-3.483c0-2.354,2.185-4.251,4.853-4.251c0.505,0,1.008,0.072,1.512,0.216
			c0.313-1.057,1.682-2.186,2.907-2.186c0.096,0,0.193,0,0.289,0.024v1.514c-0.145-0.024-0.264-0.024-0.385-0.024
			c-0.888,0-1.706,0.336-2.185,0.913c1.61,0.673,2.69,2.114,2.69,3.795c0,2.33-2.138,4.252-4.828,4.252
			c-0.721,0-1.081-0.048-1.658-0.288c-0.12-0.048-0.24-0.072-0.36-0.072c-0.769,0-1.729,0.841-1.633,1.706
			C241.642,133.675,241.907,133.82,242.315,133.82z M247.936,135.789c-1.033,0-2.666,0.48-4.131,0.48
			c-0.673,0-1.322-0.096-1.826-0.409c-0.216,2.258,1.105,3.051,2.642,3.051c1.369,0,4.301-0.985,4.301-2.426
			C248.897,135.957,248.513,135.789,247.936,135.789z M243.3,127.742c0,1.994,0.816,3.627,1.897,3.627
			c1.057,0,1.922-1.633,1.922-3.627c0-2.018-0.866-3.627-1.922-3.627C244.116,124.114,243.3,125.724,243.3,127.742z"/>
		<path d="M142.077,158.509c-0.528,0.792-1.441,1.201-2.33,1.201c-1.177,0-2.33-0.648-2.738-2.018
			c-1.25,1.465-2.547,2.041-3.652,2.041c-1.874,0-3.267-1.609-3.267-3.387c0-3.867,5.285-3.387,6.774-4.42v-0.769
			c0-1.898-1.177-2.763-2.306-2.763c-0.528,0-1.057,0.192-1.441,0.553c-0.696,0.817,0.289,2.33,1.201,2.33h0.072l-2.547,0.937
			c-1.201-1.321-0.456-2.738,0.361-3.483c0.648-0.648,1.777-0.985,2.93-0.985c2.042,0,4.204,1.057,4.204,3.531v5.069
			c-0.072,1.346,0.528,2.234,1.225,2.234c0.313,0,0.673-0.192,0.985-0.624L142.077,158.509z M134.654,157.812
			c0.696,0,1.514-0.384,2.186-1.129v-0.072l0.024-3.771c-1.393,0.721-3.723,1.177-3.627,3.507
			C133.285,157.332,133.885,157.812,134.654,157.812z"/>
		<path d="M158.582,159.758l0.049-8.119c-0.024-1.898-0.865-2.763-1.825-2.763c-0.866,0-1.85,0.721-2.378,2.09
			c0.024,0.12,0.024,0.24,0.024,0.336l-0.024,5.069c-0.049,1.273,0.216,2.354,0.576,3.387h-3.819c0.6-0.937,0.624-2.042,0.673-3.387
			l0.024-4.732c-0.024-1.898-0.865-2.763-1.826-2.763c-0.84,0-1.753,0.673-2.281,1.898v5.597c0,1.633,0.384,2.402,0.937,3.387
			h-4.949c0.673-1.033,0.841-1.778,0.961-3.387v-5.91c0.024-0.937-0.288-2.354-0.961-2.714h4.012v1.489
			c0.816-0.985,1.97-1.466,3.098-1.466c1.369,0,2.691,0.697,3.292,1.994c0.816-1.369,2.162-2.018,3.482-2.018
			c1.85,0,3.604,1.273,3.604,3.555l-0.025,5.069c-0.047,1.417,0.264,2.738,1.201,3.387H158.582z"/>
		<path d="M175.33,153.777c0,3.291-2.522,6.006-5.596,6.006c-3.1,0-5.621-2.715-5.621-6.006c0-3.363,2.522-6.054,5.621-6.054
			C172.808,147.723,175.33,150.413,175.33,153.777z M171.03,148.732c-0.072-0.024-0.145-0.024-0.24-0.024
			c-1.25,0-2.762,1.946-3.411,4.564c-0.696,2.763-0.24,5.237,1.057,5.477c0.097,0.024,0.193,0.024,0.265,0.024
			c1.272,0,2.762-1.946,3.41-4.516C172.808,151.495,172.327,149.02,171.03,148.732z"/>
		<path d="M181.026,149.189c0.769-0.913,2.114-1.441,3.411-1.441c1.849,0,3.627,1.057,3.627,3.579v5.068
			c-0.047,1.369,0.096,2.667,0.961,3.363h-3.939l0.049-3.411l0.024-4.756c-0.024-1.874-0.841-2.738-1.802-2.738
			c-0.865,0-1.778,0.672-2.33,1.922v5.573c0,1.658,0.409,2.474,0.961,3.411h-4.972c0.696-1.009,0.841-1.778,0.961-3.411v-5.909
			c0.049-0.961-0.264-2.354-0.961-2.69h4.012V149.189z"/>
		<path d="M192.629,158.077c1.177,0,3.603-1.081,5.525-1.081c1.514,0,2.715,0.673,2.715,3.051c0,2.979-2.57,4.636-4.997,4.636
			c-2.378,0-4.587-1.561-4.155-4.972c-0.481-0.336-0.817-0.985-0.817-1.874c0-1.081,0.888-2.066,1.922-2.354
			c-1.298-0.769-2.114-2.042-2.114-3.483c0-2.354,2.185-4.251,4.853-4.251c0.505,0,1.008,0.072,1.513,0.216
			c0.313-1.057,1.682-2.186,2.907-2.186c0.097,0,0.193,0,0.289,0.024v1.514c-0.144-0.024-0.264-0.024-0.385-0.024
			c-0.888,0-1.706,0.336-2.185,0.913c1.608,0.673,2.69,2.114,2.69,3.795c0,2.33-2.138,4.252-4.828,4.252
			c-0.721,0-1.081-0.048-1.658-0.288c-0.12-0.048-0.24-0.072-0.36-0.072c-0.769,0-1.729,0.841-1.633,1.706
			C191.957,157.932,192.222,158.077,192.629,158.077z M198.251,160.046c-1.033,0-2.666,0.48-4.131,0.48
			c-0.673,0-1.322-0.096-1.826-0.409c-0.216,2.258,1.105,3.051,2.642,3.051c1.369,0,4.301-0.985,4.301-2.426
			C199.211,160.214,198.827,160.046,198.251,160.046z M193.615,151.999c0,1.994,0.816,3.627,1.897,3.627
			c1.057,0,1.922-1.633,1.922-3.627c0-2.018-0.866-3.627-1.922-3.627C194.431,148.371,193.615,149.981,193.615,151.999z"/>
		<path d="M221.411,156.347c-0.217,2.402-1.826,3.411-3.603,3.411c-0.889,0-1.826-0.264-2.642-0.721
			c-1.514-0.937-1.514-2.426-1.514-4.084v-6.462h-1.897v-0.744h1.897v-2.642c1.057-0.048,2.091-0.673,3.026-1.417v4.06h1.73v0.744
			h-1.73v6.462c0,2.306,1.154,3.531,2.235,3.531c0.816,0,1.585-0.696,1.802-2.138H221.411z"/>
		<path d="M231.502,159.758l-0.024-7.375c0.024-2.162-0.888-2.955-1.993-2.955c-0.817,0-1.73,0.432-2.403,1.081v5.885
			c0.072,1.658,0.361,2.619,0.985,3.363h-4.972c0.745-0.769,0.841-1.754,0.937-3.363V146.21c0-1.441-0.025-2.594-0.937-3.339h3.987
			v6.606c0.794-1.009,2.355-1.754,3.845-1.754c1.897,0,3.675,1.225,3.627,4.732v3.939c0,1.273,0.216,2.667,0.961,3.363H231.502z"/>
		<path d="M246.374,155.842h1.562c-0.168,2.306-2.883,3.916-4.973,3.916c-3.723-0.024-5.765-2.042-5.765-5.957
			c0-3.46,2.57-6.078,5.765-6.078c4.324,0,5.14,3.7,5.14,5.861h-7.519c0,0.072-0.432,5.429,2.378,5.429
			C244.717,159.013,246.35,157.908,246.374,155.842z M240.609,152.84h3.963c0.121-1.537-0.12-4.372-1.61-4.396
			C241.257,148.444,240.729,151.014,240.609,152.84z"/>
		<path d="M149.308,172.004c-0.913,0.553-1.418,1.681-1.874,2.714l-4.42,9.297l-3.483-7.134l-3.363,7.134l-4.131-9.272
			c-0.649-1.225-1.226-2.234-1.946-2.738h5.477c-0.577,0.601-0.745,1.177-0.264,2.45l2.185,5.309l3.34-7.759l3.482,7.759
			l2.427-5.309c0.48-1.033,0.576-1.826,0.047-2.45H149.308z"/>
		<path d="M150.993,183.991c0.745-0.672,0.816-1.609,0.913-3.098l0.024-6.126c0-1.104-0.217-2.186-0.937-2.762h3.963v8.6
			c0,1.706,0.289,2.715,0.985,3.387H150.993z M153.444,170.299c-0.889,0-1.658-0.745-1.658-1.585c0-0.913,0.769-1.61,1.658-1.61
			c0.888,0,1.633,0.696,1.633,1.61C155.077,169.554,154.332,170.299,153.444,170.299z"/>
		<path d="M157.624,184.015c0.577-0.744,0.888-1.369,0.961-3.363v-11.026c0.049-1.177-0.528-1.874-0.961-2.498h3.988v13.524
			c0.024,1.585,0.192,2.594,0.961,3.363H157.624z"/>
		<path d="M172.686,184.015v-0.961c-0.648,0.529-1.417,0.961-2.21,0.961c-2.618,0.024-6.197-1.297-6.197-6.125
			c0.024-4.468,2.883-5.885,5.477-5.885c1.105,0,2.33,0.528,2.93,1.417v-2.907c0-1.826-0.24-2.738-1.321-3.387h4.348v13.5
			c-0.049,1.441,0.12,2.738,0.937,3.387H172.686z M172.686,182.189v-7.687c-0.505-0.961-1.129-1.609-2.21-1.609
			c-1.777,0-3.122,2.69-3.122,5.116c0,2.162,1.297,5.213,3.122,5.213C171.389,183.222,172.11,182.742,172.686,182.189z"/>
		<path d="M184.868,170.827c0.361-1.465,0.217-3.411-0.961-3.483c-1.273,0.096-1.225,2.594-1.273,4.636h1.561v0.769h-1.561v7.879
			c-0.024,1.489,0.432,2.57,1.346,3.387h-5.429c0.577-0.696,1.105-2.018,1.154-3.387v-7.879h-1.369v-0.769h1.369
			c0-3.243,1.369-4.804,4.323-5.044c0.168-0.024,0.336-0.024,0.481-0.024c1.514,0,2.955,0.697,2.955,3.531L184.868,170.827z"/>
		<path d="M189.146,184.015c0.577-0.744,0.888-1.369,0.961-3.363v-11.026c0.049-1.177-0.528-1.874-0.961-2.498h3.988v13.524
			c0.024,1.585,0.192,2.594,0.961,3.363H189.146z"/>
		<path d="M207.019,178.034c0,3.291-2.522,6.006-5.596,6.006c-3.1,0-5.621-2.715-5.621-6.006c0-3.363,2.522-6.054,5.621-6.054
			C204.497,171.98,207.019,174.67,207.019,178.034z M202.719,172.989c-0.072-0.024-0.145-0.024-0.24-0.024
			c-1.25,0-2.762,1.946-3.411,4.564c-0.696,2.763-0.24,5.237,1.057,5.477c0.097,0.024,0.193,0.024,0.265,0.024
			c1.272,0,2.762-1.946,3.41-4.516C204.497,175.752,204.016,173.277,202.719,172.989z"/>
		<path d="M226.526,172.004c-0.913,0.553-1.418,1.681-1.874,2.714l-4.42,9.297l-3.483-7.134l-3.363,7.134l-4.131-9.272
			c-0.649-1.225-1.226-2.234-1.946-2.738h5.477c-0.577,0.601-0.745,1.177-0.264,2.45l2.185,5.309l3.34-7.759l3.482,7.759
			l2.427-5.309c0.48-1.033,0.576-1.826,0.047-2.45H226.526z"/>
		<path d="M235.802,180.099h1.562c-0.168,2.306-2.883,3.916-4.973,3.916c-3.723-0.024-5.765-2.042-5.765-5.957
			c0-3.46,2.57-6.078,5.765-6.078c4.324,0,5.14,3.7,5.14,5.861h-7.519c0,0.072-0.432,5.429,2.378,5.429
			C234.145,183.27,235.778,182.165,235.802,180.099z M230.037,177.097H234c0.121-1.537-0.12-4.372-1.61-4.396
			C230.685,172.701,230.157,175.271,230.037,177.097z"/>
		<path d="M248.777,176.232l-2.883-0.553c0.552-0.769,0.769-2.835-0.24-2.835c-0.48,0-1.273,0.529-2.474,1.97v5.861
			c0,1.369,0.336,2.618,0.937,3.339h-4.9c0.673-0.721,0.937-1.922,0.961-3.339v-5.213c0-1.201-0.12-2.594-0.961-3.459h3.963v1.658
			c0.817-0.841,2.21-1.706,3.411-1.706c0.168,0,0.313,0.024,0.481,0.048C248.441,172.196,249.761,173.998,248.777,176.232z"/>
		<path d="M259.876,180.388c0,2.066-2.498,3.7-5.021,3.7c-0.648,0-1.321-0.12-1.945-0.361c-1.514-0.696-2.883-2.811-1.177-4.108
			l1.874,1.033c-1.658,0.384-1.201,2.186-0.193,2.57c0.385,0.12,0.745,0.168,1.081,0.168c1.154,0,1.97-0.672,2.234-1.585
			c0.601-3.123-5.933-2.042-5.933-6.63c0-1.922,1.921-3.267,4.348-3.267c0.505,0,1.033,0.072,1.585,0.192
			c2.163,0.6,2.642,1.849,2.715,2.066l-1.897,0.793c0.145-1.346-0.336-2.042-1.25-2.258c-0.192-0.048-0.384-0.072-0.577-0.072
			c-1.201,0-2.066,1.081-2.017,1.97C253.895,177.601,259.876,175.632,259.876,180.388z"/>
	</g>
</g>
<g>
</g>
<g>
</g>
<g>
</g>
<g>
</g>
<g>
</g>
<g>
</g>
</svg>
