<?xml version="1.0" encoding="utf-8"?>
<!-- Generator: Adobe Illustrator 24.2.3, SVG Export Plug-In . SVG Version: 6.00 Build 0)  -->
<svg version="1.1" xmlns="http://www.w3.org/2000/svg" xmlns:xlink="http://www.w3.org/1999/xlink" x="0px" y="0px" width="716.4px"
	 height="705.4px" viewBox="0 0 716.4 705.4" style="enable-background:new 0 0 716.4 705.4;" xml:space="preserve">
<style type="text/css">
	.st0{fill:#83B3B8;}
	.st1{fill:#E79079;}
	.st2{fill:#0E2436;}
</style>
<g id="Layer_2">
	<g>
		<path class="st0" d="M277.5,655.5c-1.7-0.6-3.3-1.3-5-1.8c-4.9-1.5-9.8-2.9-14.6-4.3c-3.2-0.9-6.3-1.7-9.5-2.7
			c-4.3-1.3-8.7-2.8-13-4.1c-2.3-0.7-4.6-1.3-6.9-2c-3-0.9-5.9-1.9-8.9-2.8c-3.1-1-6.3-1.9-9.4-2.9c-3.4-1-6.7-2.2-10.1-3.2
			c-3.9-1.2-7.8-2.2-11.7-3.4c-3-0.9-5.9-1.9-8.8-2.8c-5.1-1.6-10.3-3.1-15.5-4.6c-3.5-1.1-7-2.2-10.4-3.3c-3.6-1.2-7.3-2.4-11-3.4
			c-1.7-0.4-2.4-1.4-3-2.7c-2.2-5.9-4.4-11.8-6.7-17.6c-1.9-5-3.9-10-5.8-15.1c-1.6-4.1-3.1-8.3-4.6-12.4c-1-2.6-2-5.2-3-7.8
			c-0.3-0.8-0.7-1.2-1.6-1.5c-4.2-1.2-8.4-2.6-12.7-3.9c-0.1-1.5,1.3-1.9,1.9-2.9c0.4-0.6,1-1.1,1.6-1.7c2.6-2.9,5.2-5.7,7.8-8.7
			c1.3-1.5,2.5-3,3.8-4.6c4.4-5.6,8.8-11.2,13.1-16.9c3.1-4.1,6.2-8.2,9.1-12.4c3.8-5.4,7.4-10.9,11.1-16.4
			c3.5-5.2,6.9-10.5,10.3-15.8c3-4.8,6-9.7,8.9-14.5c1.9-3.1,3.7-6.2,5.4-9.3c2.4-4.3,4.8-8.7,7.1-13.1c2-3.9,3.9-7.8,5.6-11.8
			c1.3-3.1,2.3-6.4,3.5-9.6c0.5-1.3,1-2.6,1.4-3.9c1.5-4.7,2.8-9.4,4.3-14.1c0.5-1.5,0.7-1.8,2.3-1.7c3.4,0.1,6.8,0.4,10.2,0.6
			c3.6,0.2,7.2,0.5,10.8,0.8c3.1,0.3,6.2,0.6,9.3,0.8c2.6,0.2,5.1,0.4,7.7,0.6c2.4,0.2,4.9,0.5,7.3,0.7c5.2,0.5,10.4,0.9,15.6,1.3
			c3.7,0.3,7.4,0.5,11.1,0.8c3.6,0.3,7.3,0.5,10.9,0.8c5.5,0.4,11,0.9,16.5,1.4c4.8,0.4,9.5,0.7,14.3,1.2c2.4,0.2,4.9,0.6,7.3,0.9
			c1.9,0.2,3.8,0.3,5.7,0.4c2.7,0.2,5.5,0.5,8.2,0.7c1,0.1,1.6,0.6,2.1,1.4c1.8,3.1,3.5,6.1,5.3,9.2c2,3.3,4.1,6.7,6,10
			c2.8,4.6,5.4,9.3,8.2,13.9c2.6,4.4,5.3,8.7,8,13c2.2,3.4,4.7,6.6,7,10c2.6,3.6,5.1,7.2,7.8,10.8c1.6,2.2,3.2,4.3,5,6.4
			c2.6,3.2,5.3,6.3,8,9.3c1.1,1.3,2.4,2.5,3.5,3.8c2.2,2.5,4.4,5.1,6.7,7.5c2.3,2.4,4.6,4.8,7.1,7.1c3.9,3.6,7.8,7.2,11.9,10.7
			c3,2.6,6.2,5.1,9.5,7.4c4.1,2.9,8.2,5.6,12.4,8.2c5.2,3.2,10.5,6.2,16.2,8.6c0.5,0.2,1,0.5,1.4,0.8c0.6,0.4,0.9,0.9,0.6,1.8
			c-0.9,3.3-1.5,6.8-2.4,10.1c-0.8,3.1-1.8,6.2-2.6,9.3c-1.3,4.8-2.5,9.6-3.8,14.4c-2.2,8.5-4.4,17-6.6,25.6
			c-1,3.8-2.1,7.6-3.1,11.4c-0.1,0.2-0.1,0.5-0.2,0.7c-0.5,1.1-1.2,1.3-2.1,0.6c-1.3-1-2.5-2-3.6-3.2c-4.1-4.4-8.2-8.7-12.2-13.2
			c-3.8-4.2-7.5-8.5-11.2-12.8c-3.7-4.3-7.2-8.7-10.1-13.5c-3.9-6.3-7.6-12.6-11.5-18.9c-2.1-3.5-4.3-6.9-6.4-10.4
			c-3.2-5.4-6.5-10.9-9.7-16.4c-1.5-2.6-2.9-5.3-4.2-7.9c-2.1-4.1-4.3-8.3-6.3-12.5c-2.2-4.7-4.2-9.5-6.3-14.3
			c-2-4.4-4.1-8.8-6-13.2c-1.8-4.2-3.3-8.6-5.1-12.8c-2.1-5.1-3.3-10.5-5-15.7c-0.2-0.6-0.4-1.1-0.7-1.9c-0.2,2.7-0.6,5.2-0.6,7.6
			c0.1,3.7-0.8,7.2-1.3,10.8c-0.3,2.6-0.6,5.2-0.9,7.8c-0.3,2.1-0.6,4.1-0.9,6.2c-0.4,2.8-0.8,5.6-1.2,8.3c-0.2,1.5-0.6,2.9-1,4.4
			c-1.2,5.2-2.5,10.5-3.7,15.7c-0.5,2-1,4-1.5,5.9c-1.2,4.3-2.4,8.6-3.6,12.9c-1.1,4.1-2.1,8.2-3.3,12.3c-1.6,5.3-3.4,10.5-5.1,15.7
			c-0.6,1.8-1,3.7-1.7,5.5c-1.9,5.6-3.9,11.2-5.9,16.8c-2.3,6.2-4.6,12.5-7,18.7c-2,5.1-3.9,10.3-6,15.3c-2.3,5.5-4.5,10.9-7.1,16.2
			c-2.6,5.3-5.4,10.5-9.1,15.2c-0.8,1-1.3,2.3-2.1,3.3c-1.3,1.6-2.7,3.2-4.1,4.8C278.5,655.5,278,655.5,277.5,655.5z"/>
		<path class="st0" d="M282.7,179.3c-4.2,3.3-8.1,6.8-11.3,11c-1.5,2-2.8,4.2-4,6.4c-1.1,1.9-2.2,3.9-3,5.9c-1.2,3-2.3,6-3.2,9.1
			c-0.9,3-1.6,6.2-2,9.3c-0.6,3.9-0.8,7.9-0.4,11.8c0.5,6.2,1.8,12.2,4.3,17.9c1.2,2.6,2.6,5.1,4,7.6c1.7,3.2,3.9,6,6.3,8.7
			c2,2.3,4.6,4.1,7.1,5.8c3.7,2.6,7.8,4.5,12.1,5.8c5.5,1.7,11.2,2.2,17,1.8c3.7-0.3,7.5-0.6,11.1-1.3c1.8-0.3,3.6-0.8,5.3-1.5
			c3.9-1.5,7.7-3,11.5-4.7c5-2.3,9.9-4.8,14.3-8.2c2.5-1.9,5-3.6,7.5-5.5c0.8-0.6,1.4-1.3,2.1-2c0.8,0.8,0.6,1.7,0.3,2.5
			c-1,2.6-2.1,5.2-3.3,7.7c-0.8,1.7-1.8,3.2-2.9,4.7c-1.6,2.2-3.2,4.4-4.9,6.4c-4.2,4.9-9,9.1-14.5,12.6c-3.2,2-6.5,3.7-10,5.2
			c-4.2,1.8-8.5,3-13,4c-4.2,0.9-8.4,1.2-12.6,1.4c-6.4,0.4-12.7-0.8-18.9-2c-1.4-0.3-2.7-0.8-4.1-1.3c-4.9-1.7-9.7-3.7-14.2-6.4
			c-3.3-2-6.3-4.3-9.3-6.8c-4.5-3.7-8.2-8.1-11.4-12.9c-1.9-2.9-3.5-6.1-5-9.3c-1-2.1-1.8-4.3-2.5-6.5c-0.8-3-1.6-6-2.1-9.1
			c-0.5-3.3-0.8-6.7-0.7-10c0.1-3.2,0.7-6.4,1.1-9.6c0.6-4.3,2.2-8.3,3.8-12.3c1.9-4.6,4.7-8.8,7.5-12.8c2.3-3.2,5-6,7.8-8.6
			c2.4-2.3,5.3-4.1,8-6.1c1.7-1.2,3.5-2.2,5.4-3.3c3.3-1.9,6.9-3.4,10.5-4.6c1.5-0.5,3-0.9,4.5-1.3c0.5-0.1,1-0.1,1.4-0.1
			C282.7,179,282.7,179.1,282.7,179.3z"/>
	</g>
	<g>
		<path class="st1" d="M144.5,127.7c7.8,7.8,15.6,15.5,23.4,23.3c-1.8,2.5-3.8,4.4-5.9,6.3c-2.6,2.3-5.2,4.7-7.7,7
			c-1.1,1.1-1.8,1.2-2.9,0.1c-2-2-4-4.2-6-6.2c-0.8-0.8-0.8-1.5-0.1-2.3c1.2-1.3,2.4-2.5,3.6-3.8c1.5-1.6,1.6-1.8,0.2-3.4
			c-3.1-3.6-6.2-7.2-9.2-10.9c-3.2-3.9-6.1-8-9.2-12.1c-1.1-1.4-2.2-2.8-3.4-4.2c-0.9-1.1-0.9-1.4,0.2-2.4c2.1-2,4.2-4,6.3-6
			c0.7-0.7,1.5-0.9,2.4-0.4c6.7,3,13.4,6,20.1,9c4.2,1.9,8.3,3.7,12.5,5.6c0.3,0.1,0.5,0.1,1.1-0.1c-0.7-1-1.4-2.1-2.2-3.1
			c-5.5-7.2-11-14.3-16.4-21.5c-1.2-1.6-1.2-1.9,0.6-2.8c9.2-5.1,18.4-10.2,27.6-15.3c6.7-3.7,13.4-7.4,20.1-11.1
			c0.1-0.1,0.2,0,0.7-0.1c2.2,4,4.4,8.1,6.7,12.4c-1.8,0.9-3.5,1.8-5.2,2.7c-3.2,1.6-6.3,3.2-9.5,4.9c-1.7,0.9-1.8,1-0.7,2.7
			c2.5,4,5.1,8,7.6,12c2.4,3.7,4.8,7.5,7.2,11.2c0.6,1,1.3,1.8,2.1,2.9c-2.9,2.4-6.3,4.2-9.6,6.6c-6.4-11.5-12.3-23-18.6-34.5
			c-1.1,0.6-2,1-2.9,1.5c-2.3,1.2-4.7,2.5-7,3.8c-1.8,1-1.8,1-0.9,2.7c1.9,3.5,3.9,6.9,5.8,10.4c3.2,5.8,6.4,11.7,9.7,17.5
			c0.7,1.3,1.6,2.5,2.4,3.8c0.7,1.1,0.7,1.3-0.4,2.1c-2.6,2-5.2,3.9-7.7,5.9c-0.8,0.6-1.4,0.7-2.3,0.3c-3.6-1.7-7.2-3.4-10.8-5.1
			c-6.6-3.1-13.3-6.2-19.9-9.3c-0.5-0.2-1-0.4-1.6-0.6C144.7,127.5,144.6,127.6,144.5,127.7z"/>
		<path class="st1" d="M266.7,76c5,4.4,10.3,7.9,15.8,11.7c-3.1,3.2-6.2,6-9.7,8.2c-0.8-0.9-1.5-1.7-2.2-2.5
			c-3.5-3.7-7-7.4-10.6-11.1c-1-1.1-2.2-2-3.3-3.1c-0.7-0.7-1.4-0.5-2.1-0.1c-0.9,0.5-0.5,1.3-0.2,1.9c0.9,1.9,1.7,3.7,2.7,5.5
			c1.6,3.2,3.2,6.3,4.8,9.5c0.2,0.4,0.3,0.8,0.5,1.4c-2.1,0.7-4.2,1.4-6.2,2.1c-2.1,0.7-4.2,1.5-6.4,2.3c-0.5-1.4-1.1-2.7-1.5-4
			c-1.8-5.5-3.5-11-5.4-16.5c-2.3-6.5-4.7-13-7.1-19.5c-0.5-1.3-0.7-1.4-2-1c-3.4,1.1-6.8,2.1-10.1,3.2c-0.4,0.1-0.8,0.3-1.2,0.4
			c-1.6,0.5-1.7,0.4-2.3-1.2c-0.8-2.2-1.6-4.4-2.4-6.6c-0.2-0.6-0.3-1.3-0.5-2c0.5-0.2,0.8-0.5,1.2-0.6c7.1-2,14.2-4.1,21.3-6
			c2.7-0.7,5.5-1,8.1-1.9c2.4-0.8,4.8-1,7.3-0.8c6.3,0.6,11.8,3,15.6,8.2c1.7,2.3,2.5,4.9,2.6,7.8c0.3,5.3-2,9.5-5.5,13.3
			C267.5,75.1,267.2,75.5,266.7,76z M252.7,70.9c2-0.1,3.5-0.1,5.1-0.3c0.5-0.1,1.2-0.4,1.5-0.8c1.1-1.5,2.1-3.1,3.1-4.7
			c0.2-0.4,0.3-1.1,0.2-1.5c-0.9-2.5-1.9-4.9-2.9-7.4c-0.2-0.5-0.7-1-1.2-1.2c-1-0.6-2.2-1-3.2-1.6c-0.6-0.3-1.1-0.2-1.6,0.2
			c-1.6,1.2-3.2,2.3-4.7,3.6c-0.3,0.3-0.7,1-0.6,1.3c1.2,3.8,2.5,7.6,3.8,11.4C252.1,70.5,252.6,70.8,252.7,70.9z"/>
		<path class="st1" d="M612.2,240c0.9-0.4,1.6-0.7,2.3-1c6.1-2.9,12.2-5.8,18.3-8.5c8.8-4,17.7-7.9,26.5-11.9
			c1.9-0.8,3.7-1.8,5.5-2.7c1.4-0.7,1.7-0.7,2.5,0.6c2.8,4.3,4.7,8.9,5.3,14c0.5,4,0,7.8-1.9,11.3c-2.6,4.7-9.2,8.3-15.2,7.2
			c-1.9-0.4-3.7-1.1-5.5-1.7c-1.6-0.6-1.6-0.6-2.7,0.8c-3.6,4.7-7.4,9.3-10.9,14.1c-3.7,5-3.2,3.6-1.3,8.7c1.8,4.8,3.7,9.7,5.5,14.5
			c0.6,1.5,0.5,1.6-0.9,2c-1.8,0.5-3.7,1-5.6,1.5c-1.6,0.4-1.8,0.3-2.4-1.3c-1.2-3.5-2.3-7.1-3.7-10.6c-1.5-3.9-3.2-7.8-4.8-11.7
			c-0.4-1-0.6-1.9,0.3-2.8c3.7-3.9,7.3-7.8,11-11.7c2.1-2.2,4.1-4.4,6.2-6.6c1.2-1.3,0.9-3.1-0.7-3.9c-0.4-0.2-1,0-1.4,0.2
			c-2.5,1.4-4.9,2.8-7.3,4.3c-3,1.8-6,3.6-8.9,5.5c-0.8,0.5-1.5,1.4-2.4,2.2C617.2,248.4,614.8,244.3,612.2,240z M661.5,228.5
			c-3.4,1.9-6.3,3.6-9.2,5.3c-0.3,0.2-0.5,0.8-0.5,1.2c0.3,1.8,1.6,3.1,3.5,3.3c1,0.1,1.9,0.3,2.9,0.4c1.4,0.2,4.7-2.5,4.9-3.9
			c0-0.1,0-0.2,0-0.4C662.6,232.6,662.1,230.8,661.5,228.5z"/>
		<path class="st1" d="M99.5,233.7c-0.1,0.3-0.2,0.8-0.4,1.2c-2.6,6.1-5.2,12.3-7.8,18.4c-1.9,4.7-3.7,9.4-5.5,14.1
			c-0.5,1.2-1,2.5-1.5,3.7c-0.4,1-1,1.4-2.1,0.9c-3.4-1.3-6.9-2.6-10.3-3.8c-1.2-0.4-2.4-0.7-3.7-1.2c-0.5,2.8-0.8,5.3-0.7,7.9
			c0,0.4,0.5,0.9,0.9,1.2c2.9,1.5,5.7,3,8.6,4.5c0.7,0.4,1.6,0.6,2.6,1c-0.9,3.5-1.7,7-2.7,10.9c-2.2-1.3-4-2.3-5.8-3.5
			c-6.9-4.5-13.8-9-20.6-13.5c-2.7-1.7-5.3-3.5-8-5.2c-1.8-1.2-2.1-1-2.7,1c-0.2,0.6-0.3,1.2-0.5,1.7c-0.5,1.3-1,1.6-2.2,1.1
			c-1.6-0.7-3.1-1.6-4.6-2.4c-0.8-0.4-0.7-1.1-0.6-1.9c0.6-4.8,1.1-9.5,1.7-14.3c0.3-2.4,0.7-4.9,1-7.3c0.1-1.1,0.7-1.4,1.8-1.2
			c3.1,0.6,6.3,1.2,9.4,1.8c3.7,0.7,7.4,1.1,11,1.9c4.3,1,8.6,2.2,12.9,3.3c3.3,0.8,6.6,1.5,9.8,2.2c1.6,0.3,1.7,0.3,2.3-1.2
			c1.2-3,2.3-5.9,3.5-8.9c0.9-2.1,1.9-4.2,2.8-6.2c1.1-2.5,2.2-4.9,3.2-7.4c0.8-1.9,0.9-1.9,2.8-1.1
			C95.9,232.1,97.6,232.9,99.5,233.7z M61.3,272c0.2-0.3,0.3-0.4,0.3-0.6c0-2.4,0-4.8,0-7.2c0-0.8-0.6-1.1-1.3-1.3
			c-1.8-0.5-3.6-1.1-5.3-1.6c-3-0.9-6.1-1.9-9.1-2.7c-0.5-0.1-1.4,0.1-1.5,0.4c-0.2,0.5,0,1.3,0.3,1.7c0.5,0.6,1.3,1.1,2,1.6
			c4.5,3,8.9,6.1,13.4,9.1C60.5,271.7,60.9,271.8,61.3,272z"/>
		<path class="st1" d="M316.4,87.2c-9.4,2.1-18.9,2.1-28.6,3.3c-0.4-2.7-0.9-5.1-1.2-7.5c-0.8-5.7-1.4-11.4-2.2-17.1
			c-0.5-3.6-1.1-7.2-1.8-10.8c-0.2-1.3-0.6-1.5-2-1.4c-1.1,0.1-2.2,0.1-3.2,0.2c-0.9,0.1-1.4-0.4-1.5-1.2c-0.6-3.9-1.2-7.8-1.9-11.9
			c2.2-0.3,4.1-0.6,6.1-0.8c5.7-0.6,11.5-1.2,17.2-1.9c5.5-0.6,11.1-1.2,16.7-1.8c2-0.2,2.3,0.1,2.3,2.1c0,4,0,8,0,12
			c0,0.2-0.1,0.5-0.1,0.7c-4.4,0.3-8.7,0.5-13,0.9c-2.6,0.2-5.3,0.5-7.9,0.8c-1.6,0.2-1.8,0.4-1.6,1.9c0.3,2,0.6,4,0.9,6
			c0.3,1.4,0.6,1.6,2,1.3c1.8-0.3,3.5-0.7,5.3-1c2-0.3,2.2-0.1,2.3,1.9c0.1,1.1,0.3,2.3,0.3,3.4c0,1.4-0.3,1.7-1.7,1.8
			c-1.7,0.2-3.4,0.3-5,0.5c-1.5,0.2-1.7,0.5-1.5,2c0.1,0.9,0.2,1.8,0.4,2.7c0.3,1.3,0.5,1.5,1.9,1.1c4.1-1.1,8.1-2.3,12.1-3.4
			c2-0.6,4-1.1,6.2-1.7C317.2,75.3,315.5,81.1,316.4,87.2z"/>
		<path class="st1" d="M95.1,149.1c1.9-1.9,3.6-3.7,5.4-5.5c4.7-4.8,9.4-9.6,14.2-14.4c1.4-1.5,2.1-1.5,3.3,0.2
			c2.4,3.4,4.8,6.9,7.2,10.4c0.5,0.8,0.4,1.3-0.3,1.8c-1.6,1.3-3.3,2.7-4.9,4c-2.9,2.3-5.8,4.5-8.7,6.8c-1.3,1-1.3,1.1-0.2,2.4
			c1.4,1.7,2.9,3.4,4.4,5c1.3,1.4,1.4,1.4,2.7,0.1c2.5-2.5,4.9-4.9,7.4-7.4c3.2-3.2,6.3-6.4,9.5-9.6c1-1,1.5-1.1,2.3,0.1
			c1.2,1.8,2.3,3.6,3.5,5.5c0.7,1.1,1.3,2.2,2.1,3.6c-0.8,0.7-1.7,1.4-2.5,2.1c-5,4.6-10.1,9.1-15.1,13.7c-1.4,1.3-1.5,1.6-0.1,3
			c0.6,0.7,1.3,1.4,2.1,2.3c4-3.7,7.9-7.4,12-11.1c0.6,0.6,1.2,1.1,1.7,1.7c1.8,2.2,3.7,4.4,5.6,6.8c-6,5.8-12.1,11.8-18.5,17.9
			c-1.4-1.7-2.8-3.3-4.1-4.8c-2-2.3-3.9-4.6-5.9-6.8c-1.1-1.2-1.4-1.2-2.6,0c-1.1,1.1-2.3,2.1-3.4,3.2c-1,0.9-1.3,1-2.3,0.1
			c-2-2-3.8-4.1-5.7-6.1c1.9-1.9,3.8-3.8,5.6-5.6c0.6-0.6,0.3-1.2-0.1-1.8c-0.7-0.9-1.5-1.7-2.2-2.6c-3.9-4.6-7.7-9.2-11.6-13.8
			C95.6,149.9,95.5,149.6,95.1,149.1z"/>
		<path class="st1" d="M117.2,202.2c-1.5,2.2-2.9,4.2-4.2,6.3c-0.4,0.6-0.8,0.8-1.5,0.6c-5.1-1-10.3-1.9-15.4-2.8
			c-3.4-0.6-6.7-1.1-10.1-1.7c-4.4-0.7-8.8-1.5-13.1-2.2c-4-0.7-8.1-1.4-12.1-2.1c-0.9-0.2-1.5,0.4-2,0.9c-1,1-1.9,2-3,3.1
			c-1.4-1.3-2.7-2.5-4-3.6c-0.7-0.6-0.6-1.2,0-1.9c1.2-1.3,2.5-2.6,3.7-3.9c2.2-2.4,4.5-4.7,6.7-7.1c0.8-1,1.7-1.2,2.9-1
			c5.5,1.2,10.9,2.3,16.4,3.4c4.1,0.9,8.1,1.7,12.2,2.6c0.5,0.1,1.1,0.1,2,0.2c-0.4-0.7-0.5-1.1-0.7-1.4
			c-4.6-5.6-9.3-11.2-13.9-16.8c-0.2-0.3-0.4-0.6-0.6-0.9c-1.4-1.9-1.4-1.9,0-4c2.9-4.4,5.9-8.8,8.8-13.2c0.2-0.3,0.5-0.6,0.8-1
			c0.7-0.7,1.4-0.8,2.2-0.1c2.8,2.8,5.5,5.5,8.3,8.3c0.8,0.7,0.7,1.4,0.2,2.2c-1.7,2.6-3.2,5.3-4.9,8c-0.6,0.9-0.7,1.6,0.1,2.6
			c5.7,6.8,11.3,13.6,16.9,20.4C114,198.8,115.6,200.4,117.2,202.2z"/>
		<path class="st1" d="M458.4,103.2c-7-0.4-12.4-3.3-15.5-9.9c-1.2-2.5-2-5.1-3-7.7c-0.3-0.9-0.6-2-0.5-3c0.2-5.5,0.5-11,3-16
			c0.9-1.8,1.9-3.5,3.2-5c2.2-2.4,4.4-4.9,7.1-6.6c6-4,13.7-3.4,19.2,0.5c1.9,1.3,3.4,3.1,4.6,5c2.7,4.1,4.5,8.6,5.5,13.4
			c0.8,4.1-0.2,8-1.7,11.8c-2.3,5.6-6.3,10-10.8,14C466.3,102.5,462.5,103.4,458.4,103.2z M453.1,79c-0.1,0-0.1,0-0.2,0
			c0,2.2,0,4.3,0,6.5c0.1,2.6,1.7,4.5,3.2,6.5c0.1,0.1,0.3,0.3,0.5,0.3c1.6,0,3.5,0.4,4.7-0.2c2.1-1.1,4-2.7,5-5
			c1.4-3.3,2.6-6.6,3.9-9.9c0.4-0.9,0.3-1.7-0.2-2.6c-0.8-1.7-1.5-3.4-2.4-5.1c-2.4-4.5-0.9-3.5-5.9-4.2c-0.5-0.1-1-0.3-1.4-0.2
			c-0.6,0.1-1.3,0.2-1.8,0.6c-1.5,1.2-2.8,2.6-4.2,3.9c-0.9,0.8-1.3,1.7-1.3,2.8C453.1,74.6,453.1,76.8,453.1,79z"/>
		<path class="st1" d="M84.9,228.2c-0.4,3.1-0.8,6.3-1.4,9.4c-0.2,1.3-0.9,2.5-1.4,3.7c-0.7,1.8-1.5,3.6-2.1,5.4
			c-0.4,1.2-1.1,1.5-2.2,1.3c-0.4-0.1-0.8-0.2-1.2-0.3c-3.6-1.1-7.1-2.3-10.7-3.4c-6-1.8-12.1-3.5-18.2-5.3c-3.5-1-7-2.1-10.5-3.2
			c-1.5-0.5-1.9-1.1-1.4-2.8c1.4-4.5,2.7-9.1,5.4-13.1c3.1-4.7,7.1-8.1,12.1-10.5c5.6-2.6,11.4-3.3,17.4-1.5
			c4.7,1.4,8.2,4.3,10.9,8.4C84,219.9,84.7,223.9,84.9,228.2z M72.8,233.9c0.2-0.3,0.3-0.4,0.3-0.5c-0.4-3.1-0.7-6.2-1.2-9.3
			c-0.1-0.5-0.6-1.1-1.1-1.3c-2.4-1.3-4.8-2.4-7.3-3.6c-0.8-0.4-1.5-0.3-2.4,0.2c-2.3,1.5-4.8,2.8-7.1,4.2c-1.1,0.6-2.1,1.3-3.5,2.2
			C58.2,228.9,65.5,231.5,72.8,233.9z"/>
		<path class="st1" d="M586.8,201.8c-1.4-1.9-2.7-3.6-3.9-5.3c-1.1-1.5-1-1.8,0.7-2.7c3-1.7,6-3.3,9-5c0.6-0.3,1.1-0.7,1.8-1.2
			c-0.8-0.9-1.4-1.6-2-2.3c-1.3-1.4-2.7-2.7-4.1-4.1c-1.2-1.1-1.3-1.1-2.5-0.1c-3.2,2.6-6.3,5.2-9.6,7.8c-0.3-0.3-0.6-0.6-0.9-0.9
			c-1-1.1-1.9-2.3-2.9-3.4c-1.2-1.4-1.3-1.9,0.1-3.1c1.9-1.6,3.9-3.2,5.9-4.8c3.6-3,7.1-5.9,10.6-8.9c3.9-3.4,7.8-7,11.6-10.5
			c1-0.9,1.4-1,2.3,0.1c1.7,2,3.4,4,5,6.1c1,1.4,0.8,1.6-0.5,2.6c-2.7,2.1-5.5,4.1-8.2,6.2c-0.3,0.3-0.6,0.5-1,0.8
			c-0.8,0.7-0.8,1.3-0.1,2.1c1.7,1.9,3.4,3.9,5.1,5.8c0.6,0.7,1.2,0.5,1.8,0.1c3-2,6-4,8.9-6.1c3.2-2.3,6.3-4.6,9.4-6.9
			c1.8-1.4,3.6-2.7,5.6-4.2c0.6,0.4,1.2,0.8,1.8,1.3c5,4.4,9.6,9,13.9,14.1c1.3,1.5,2.6,3,3.9,4.5c0.9,1,0.8,1.4-0.4,2
			c-2.1,1.1-4.2,2.3-6.3,3.4c-1.2,0.6-1.4,0.6-2.4-0.7c-2.2-2.8-4.3-5.6-6.4-8.5c-1.9-2.6-1.9-2.5-4.7-0.9
			c-6.1,3.4-12.3,6.8-18.5,10.2c-6.1,3.4-12.2,6.8-18.3,10.1C589.9,200.2,588.4,200.9,586.8,201.8z"/>
		<path class="st1" d="M590.3,138.7c-4.9-4.2-9.9-8.1-14.2-13c3.2-3.6,6.1-7.3,10.2-10.3c0.7,0.7,1.4,1.3,2,2
			c3.5,3.7,7,7.3,10.3,11.1c5.7,6.3,11.3,12.7,16.9,19c2,2.2,3.9,4.4,5.8,6.6c1.4,1.7,1.3,2.2-0.4,3.5c-1.4,1-2.8,2.1-4.2,3.1
			c-0.8,0.6-1.5,0.6-2.2-0.2c-3.2-3.5-6.5-7-9.8-10.6c-1.2-1.3-2.4-2.7-3.7-4.1c-1.4,0.6-2.3,1.8-3.3,2.7c-3.2,2.9-6.3,5.9-9.5,8.9
			c-5.5,5.3-11.1,10.5-16.5,15.8c-2.4,2.3-2.2,2.4-4.5,0.1c-2-2-4-4-6-6c-0.7-0.7-1.4-1.5-2.1-2.2c-1.6-1.8-1.5-2.3,0.6-3.5
			c2.2-1.4,4.3-3,6.5-4.6c7-5.3,14-10.6,21-15.8C588.1,140.5,589.1,139.7,590.3,138.7z"/>
		<path class="st1" d="M534.7,117.3c0.2,1.6,0.5,2.8,0.6,4c0.2,2,0.3,4.1,0.6,6.1c0.1,0.9-0.1,1.4-1.1,1.7c-3.4,1-6.8,2-10.2,3
			c-1.2,0.4-2.2,0.3-3.2-0.6c-2.2-2.1-4.4-4.1-6.5-6.2c-0.4-0.4-0.5-1.1-0.5-1.7c0-3.7,0-7.3,0.1-11c0-0.7,0.4-1.4,0.8-1.9
			c4.1-6.1,8.3-12.1,12.4-18.2c1-1.5,1-1.6-0.5-2.5c-2.4-1.5-4.9-3-7.4-4.5c-1.7-1.1-1.7-1.7-0.6-3.3c1-1.6,1.8-3.4,2.8-5.1
			c0.5-0.9,0.9-1.8,1.5-2.8c0.8,0.3,1.6,0.6,2.3,0.8c2.7,1.1,5.4,2.1,8,3.2c2.1,0.8,2.1,0.8,3-1.1c0.6-1.2,1.2-2.3,1.8-3.5
			c0.4-0.9,1.1-1.1,1.9-0.6c2.4,1.4,4.7,2.9,7,4.4c1,0.6,0.9,1.4,0.4,2.3c-0.7,1.1-1.4,2.3-2.3,3.7c6.3,2.9,12.4,5.5,18.4,8.7
			c-3.6,4.7-7.2,9.2-10.7,13.8c-3.2-1.9-6.3-3.8-9.4-5.6c-1.8-1.1-3.6-2.2-5.4-3.3c-1.4-0.8-1.7-0.8-2.6,0.6
			c-3.8,5.6-7.6,11.1-11.3,16.7c-1.2,1.7-0.8,3.6-0.6,5.4c0.1,1.1,2.3,1.7,3.7,1c1.7-0.8,3.3-1.7,5-2.5
			C533.2,118.1,533.8,117.8,534.7,117.3z"/>
		<path class="st1" d="M692.3,272.5c-0.3,0.2-0.5,0.4-0.7,0.5c-2.9,1.5-5.9,3.1-8.8,4.6c-1.8,0.9-1.9,0.9-2.8-1
			c-2.2-4.7-4.4-9.4-6.6-14c-0.8-1.8-0.9-1.8-2.7-1c-1.1,0.5-2.2,0.9-3.3,1.4c-1.5,0.7-1.6,1.1-1,2.5c2.6,5.9,5.2,11.8,7.8,17.6
			c0.6,1.4,0.9,1.5,2.4,0.9c0.7-0.3,1.3-0.6,2-0.8c0.1,0,0.2,0,0.6,0c-1.6,4.3-3.2,8.5-5.1,12.8c-4.2-1.8-8.1-3.4-12-5.1
			c0-0.1,0-0.3,0-0.4c0.6-0.3,1.3-0.7,1.9-1c1.7-0.7,1.8-0.9,1.1-2.5c-2.1-4.9-4.2-9.7-6.2-14.6c-0.4-0.9-0.8-1.9-1.2-2.8
			c-0.7-1.6-0.9-1.7-2.4-1.1c-3.3,1.2-3.3,1.2-1.9,4.4c1.9,4.4,3.7,8.7,5.6,13.1c0.2,0.4,0.2,0.8,0.4,1.4c-3.5,1.3-6.9,2.6-10.5,4
			c-2.9-8.5-5.7-16.7-8.6-25.2c2.1-0.9,4.1-1.9,6.2-2.7c1.8-0.8,3.7-1.4,5.6-2.1c1.8-0.7,1.9-0.9,1.2-2.6c-0.3-0.8-0.6-1.6-0.9-2.4
			c0-0.1,0-0.2,0.1-0.6c2.3-0.8,4.8-1.8,7.2-2.7c0.6-0.2,1,0,1.3,0.6c0.1,0.2,0.2,0.3,0.2,0.5c1.5,3,1.5,3.1,4.6,2
			c4.3-1.5,8.5-3.2,12.8-4.9c1.6-0.6,1.9-0.7,2.8,0.9c1.6,2.9,3.2,5.9,4.7,8.9C688.2,264.9,690.2,268.6,692.3,272.5z"/>
		<path class="st1" d="M509.9,85.7c2.8,1.3,5.5,2.5,8,3.8c1.8,0.9,1.8,1.5,0.8,3.2c-1.4,2.2-2.9,4.3-4.2,6.5
			c-1.7,2.7-3.6,5.4-4.9,8.4c-0.8,1.9-2.7,3.1-4.5,4.1c-5.1,2.9-10.5,3.3-16,1c-2.1-0.8-4.2-1.6-5.4-3.7c-0.9-1.6-1.8-3.3-2.4-5
			c-0.6-1.7-0.8-3.5-1.1-5.3c-0.3-1.5,0-2.9,0.7-4.3c3.1-5.7,6.1-11.5,9.1-17.2c1-1.9,2.2-3.7,3.3-5.6c0.1-0.2,0.1-0.4,0.3-0.9
			c-3.3-1.6-6.5-3.2-9.9-4.9c1.9-3.3,3.7-6.4,5.6-9.6c2.6,1.4,5.1,2.7,7.5,4c4.2,2.2,8,4.9,11.7,7.8c2,1.6,2.2,2.1,0.6,4.2
			c-2.1,2.8-4.6,5.5-6.6,8.4c-2.8,4.2-5.4,8.5-8.1,12.8c-0.6,1-0.7,2-0.4,3.1c0.3,1.3,0.6,2.7,0.8,4.1c0.2,0.9,0.7,1.4,1.7,1.3
			c2-0.2,3.9-0.3,5.9-0.6c1.1-0.1,1.7-0.8,2-2C505.6,94.7,507.3,90.2,509.9,85.7z"/>
		<path class="st1" d="M629.2,189c6.1,8.2,12,16.2,18.1,24.5c-3.2,1.5-6.2,3-9.5,4.6c-0.7-1.1-1.5-2.1-2-3.1
			c-2-3.6-3.8-7.2-5.8-10.8c-0.3-0.5-0.6-1-0.9-1.6c-0.5,0.2-1,0.3-1.4,0.5c-2.2,1.1-4.4,2.2-6.6,3.3c-1.2,0.6-1.2,0.8-0.5,1.9
			c1.1,1.6,2.3,3.2,3.1,5.2c-1.3,0.8-2.6,1.7-3.8,2.4c-0.8,0.5-1.5,0.2-1.9-0.6c-0.8-1.3-1.5-2.6-2.3-3.9c-0.9-1.4-1.1-1.5-2.6-0.9
			c-1.4,0.6-2.8,1.4-4.2,2.1c-0.2,0.1-0.3,0.3-0.7,0.7c1.5,1.6,3,3.3,4.5,4.9c2.7,2.9,5.3,5.9,8,8.8c0.9,1,0.9,1.5-0.3,2.1
			c-3.8,2-7.6,4-11.7,6.1c-1-1.6-2-3-2.8-4.5c-3.6-6.9-7.8-13.4-12-19.9c-1.2-1.8-1.2-2,0.7-3c6.3-3.4,12.7-6.8,19.1-10.2
			c4.6-2.5,9.1-5.1,13.7-7.7C627.9,189.7,628.5,189.4,629.2,189z"/>
		<path class="st1" d="M227.5,69c0.3,0.5,0.6,0.9,0.8,1.4c3.5,8.4,7.1,16.8,10.6,25.2c0.1,0.3,0.3,0.7,0.3,1c0.8,9.9-5,17.6-13.2,20
			c-4.5,1.3-8.8,0.8-12.7-1.9c-1.3-0.9-2.2-2-3-3.3c-3.1-5.3-6.2-10.6-9.4-15.8c-0.1-0.3-0.3-0.5-0.5-1.1c3.3-1.6,6.6-3.2,10-4.8
			c0.8,1.5,1.6,2.8,2.3,4.1c1.3,2.4,2.7,4.8,4,7.3c0.6,1.2,1.5,2,2.9,2.2c0.3,0.1,0.6,0.1,0.9,0.2c2.3,1,3.9,0.1,5.3-1.7
			c0.1-0.2,0.4-0.4,0.4-0.6c0.5-2.4,1-4.8,0-7.1c-2.4-5-4.9-10-7.4-15c-0.7-1.4-1.3-2.8-2.1-4.5C220.2,72.7,223.8,70.9,227.5,69z"/>
		<path class="st1" d="M417.1,49.6c-2.8,1.6-5.4,3.1-8.2,4.6c-1-1.6-1.9-2.9-2.8-4.3c-0.8-1.3-1-1.3-2.2-0.4
			c-0.3,0.3-0.6,0.7-0.9,0.8c-1.9,1-2.2,2.5-1.7,4.4c0.1,0.5,0.2,0.9,0.2,1.4c0,1.6,0.8,2.3,2.3,3c3.6,1.8,6.4,4.6,7.6,8.5
			c0.5,1.5,0.4,3.4,0.2,5c-0.7,4.1-2.9,7.4-6.1,10.1c-2.3,2-5.1,2.3-8,1.9c-4.1-0.6-7.9-2-10.8-5.3c-0.8-0.9-1.3-1.9-1.2-3.1
			c0-1.4,0-2.9,0.1-4.3c0-1-0.4-1.4-1.4-1.4c-0.1,0-0.1,0-0.2,0c-2.8-0.1-2.8-0.1-2.7-3c0-1,0-2,0-3.1c0-1,0.4-1.5,1.4-1.4
			c2.7,0.3,5.4,0.6,8.1,0.8c1.1,0.1,1.4,0.8,1.4,1.7c0.1,1.3,0.3,2.6,0.6,3.9c0.1,0.5,0.5,1.2,1,1.4c1.7,0.8,3.4,1.5,5.1,2.1
			c0.9,0.3,1.6,0,2.2-0.8c0.9-1.2,1.8-2.3,0.9-3.9c-0.2-0.4-0.3-0.9-0.4-1.4c-0.4-1.6-1.2-2.5-2.9-2.9c-5.7-1.6-9.8-8-8.7-13.7
			c1.2-6.3,6.7-10.6,13-10.2c2.4,0.2,4.8,0.8,6.8,2.3c2.1,1.6,4.1,3.4,6.1,5.1C416.2,48.1,416.5,48.7,417.1,49.6z"/>
		<path class="st1" d="M381.4,82.8c-6.5,0.5-12.8-0.7-19,0.4c-1.2-3.1-2.4-6.1-3.7-9.3c2.3-0.2,4.3-0.4,6.6-0.6
			c-0.2-1.3-0.4-2.4-0.6-3.5c-0.4-2.4-0.8-4.9-1.3-7.3c-0.3-1.4-0.5-1.6-1.9-1.5c-2.6,0-2.6,0-3.4-2.5c-0.2-0.8-0.5-1.6-0.5-2.5
			c-0.1-1.7,0.4-2.2,2.1-2.1c3.2,0.1,6.5,0.1,9.7,0.2c3.8,0.2,7.7,0.5,11.5,0.8c0.3,0,0.6,0.1,1.1,0.2c-0.3,1.7-0.6,3.3-1,4.9
			c-0.1,0.3-0.6,0.7-1,0.8c-0.4,0.1-0.9-0.1-1.4-0.1c-0.9-0.1-1.4,0.3-1.4,1.2c-0.1,1.8-0.1,3.6-0.2,5.4c0,1.4-0.1,2.8-0.1,4.1
			c0,1.3,0.3,1.6,1.6,1.5c0.4,0,0.9-0.1,1.2-0.2c1.1-0.5,1.7,0.1,1.8,1.3C381.5,76.9,381.4,79.7,381.4,82.8z"/>
		<path class="st1" d="M373.3,51.5c-2.6-0.3-5.5-0.7-8.5-1.1c-0.6-0.1-1.2-0.6-1.6-1.1c-1.5-2.3-3-4.7-4.4-7
			c-0.5-0.8-0.2-1.5,0.2-2.2c1.3-2.1,2.7-4.1,4.1-6.2c0.3-0.4,0.6-0.8,0.9-1.2c1.6-2.4,1.1-2.1,3.7-1.2c3.8,1.3,7.5,2.7,11.2,4.1
			c1.2,0.5,2.2,1.2,2.6,2.5c0.4,1.1,1.1,2,1.6,3c0.5,0.9,0.4,1.8-0.2,2.7c-1.5,2.1-2.9,4.1-4.2,6.3c-0.6,1-1.3,1.5-2.5,1.4
			C375.3,51.4,374.5,51.5,373.3,51.5z"/>
	</g>
	<g>
		<path class="st1" d="M379.2,556.3c0.1,2.7-0.9,5.2-1.4,7.7c-0.7,3.3-2.5,6-4.5,8.5c-0.1,0.2-0.3,0.3-0.3,0.5
			c-1.3,2.8-3.9,4-6.4,5.2c-2.7,1.2-5.5,2-8.2,3.1c-2.2,0.9-4.5,0.8-6.6,0.4c-3.6-0.7-7.2-1.7-10.6-3.3c-2.7-1.3-4.5-3.4-5.9-5.9
			c-1.9-3.3-3.5-6.7-3.7-10.6c-0.1-2.5-0.3-5,0.1-7.4c0.4-2.3,1.4-4.4,2.2-6.6c0.4-1.1,0.9-2.2,1.4-3.2c1.2-2.6,3.4-4.4,5.8-6
			c1.4-0.9,2.9-1.8,4.4-2.6c4.4-2.2,9-2.7,13.9-2.1c2.9,0.4,5.7,0.7,8.1,2.3c5,3.3,8.9,7.6,10.8,13.4
			C379,551.9,378.9,554.2,379.2,556.3z"/>
		<path class="st1" d="M335.5,172.5c1.2,0,2.3-0.2,3.4,0c6.6,0.7,13.3,1.4,19.9,2.1c1.7,0.2,2.7-0.2,3.7-1.7c3-4.5,6.1-8.9,9.2-13.3
			c0.5-0.7,1.2-1.4,1.8-2c0.1-0.1,0.3-0.1,0.8-0.2c0,0.7,0,1.3,0,1.9c-0.5,5.6-1.1,11.2-1.6,16.9c-0.2,1.8-0.1,1.8,1.7,2.3
			c5.6,1.3,11.2,2.6,16.8,4c0.4,0.1,0.8,0.4,1.6,0.7c-1.2,0.6-2,1.2-2.9,1.6c-2.7,1-5.4,2-8.1,3c-1.7,0.6-3.5,1.3-5.2,2
			c-0.9,0.4-1.1,1-0.8,1.9c0.7,2.5,1.4,5.1,2.1,7.6c1,3.8,2,7.7,3,11.5c0.1,0.3,0,0.7,0.1,1.5c-0.8-0.7-1.4-1-1.9-1.5
			c-3.4-3.8-6.7-7.7-10-11.6c-1.3-1.5-2.6-2.9-4.1-4.6c-0.6,0.5-1.1,0.8-1.5,1.3c-3.6,4.3-7.1,8.6-10.7,12.9
			c-0.9,1.1-1.7,2.2-2.6,3.3c-0.3,0.4-0.8,0.7-1.1,1.1c-0.9-0.7-0.6-1.3-0.4-2c1.9-8.2,3.7-16.4,5.5-24.6c0.4-1.9,0.3-1.9-1.4-3
			c-2.5-1.6-5-3.3-7.6-4.8c-3.1-1.9-6.3-3.7-9.5-5.5C335.7,173,335.7,172.9,335.5,172.5z M366.6,179.5c-2.1,0-3.7,0.3-4.7,2
			c-1.1,1.9-1.1,3.8,0.1,5.5c0.8,1.3,2,2.3,3.7,2c1.9-0.3,3.2-1.5,4-3.2c0.7-1.6-0.5-5.1-2.1-6C367.2,179.6,366.7,179.6,366.6,179.5
			z"/>
		<path class="st1" d="M457.3,239c0.8,0.3,1.6,0.6,2.4,0.9c1.8,0.9,3.6,1.8,5.5,2.7c1.2,0.6,1.3,0.5,1.9-0.7
			c1.3-2.6,2.5-5.2,3.8-7.7c0.3-0.7,0.7-1.3,1.3-2.4c0.2,0.7,0.3,1.1,0.3,1.4c0.1,3.2,0.3,6.3,0.4,9.5c0,1.1,0.3,1.6,1.5,1.8
			c2.5,0.5,5,1.1,7.5,1.7c0.3,0.1,0.5,0.2,1.1,0.5c-0.6,0.2-0.9,0.3-1.2,0.4c-2.4,0.7-4.8,1.5-7.2,2.1c-0.8,0.2-1,0.7-0.7,1.5
			c0.7,2,1.4,4.1,2.1,6.1c0.3,0.9,0.5,1.8,0.5,2.8c-2.7-2.2-4.9-4.7-7.4-7.2c-3.5,1.6-7,3.2-10.5,4.8c-0.1-0.1-0.2-0.2-0.3-0.4
			c0.7-1.2,1.5-2.4,2.2-3.5c1-1.5,2-3,3.2-4.4c0.7-0.8,0.5-1.3-0.1-2c-1.7-1.9-3.4-3.8-5-5.7c-0.5-0.6-0.9-1.4-1.3-2
			C457.1,239.2,457.2,239.1,457.3,239z"/>
		<path class="st1" d="M188,231.6c-2.7-1.4-5.4-2.8-8.2-4.3c-1.6,3.1-3.1,6.1-4.7,9.1c-0.1,0-0.2,0-0.4,0c-0.3-3.9-0.5-7.9-0.8-11.8
			c-3.4-0.8-6.7-1.6-9.9-2.4c0-0.1,0-0.3,0-0.4c0.4-0.3,0.8-0.6,1.3-0.7c2-0.7,4-1.3,6-1.9c1.6-0.5,1.6-0.6,1.6-2.3
			c0-2.5,0-5.1,0.2-7.7c2.3,2.6,3.1,5.9,5.1,8.9c0.4-0.1,0.9-0.1,1.4-0.3c3-0.9,5.9-1.9,8.9-2.8c0.4-0.1,0.9-0.1,1.5,0
			c-2.1,2.7-4.8,4.7-7.1,7.2c1.9,3.1,3.7,6.1,5.5,9.1C188.2,231.4,188.1,231.5,188,231.6z"/>
	</g>
</g>
<g id="Layer_1">
	<g id="_x39_llxm0.tif_2_">
		<g>
			<path class="st2" d="M362.5,95c5.7,0.3,11.8,0.4,17.9,1c15.3,1.4,30.3,4.4,45.1,8.7c11,3.2,22.2,6.2,32.8,10.5
				c12.3,5,24.4,10.5,35.8,17.5c10.1,6.3,19.7,13.2,28.9,20.7c7.4,6,14.3,12.6,21.1,19.4c5.3,5.2,10.6,10.5,15.7,15.8
				c2.6,2.7,4.8,5.8,7.2,8.7c6.6,7.6,12.9,15.5,18.4,23.9c4,6,7.8,12.3,10.9,18.8c5.4,11.2,10.3,22.7,15.3,34.1
				c0.7,1.5,0.6,1.6-1,1.4c-0.4,0-0.8-0.1-1.2-0.3c-7-2.5-14-5-20.9-7.5c-4.1-1.5-8.1-3-12.1-4.6c-2.9-1.2-5.6-2.7-8.5-3.9
				c-2.9-1.2-5.9-2.1-8.9-3.1c-2.3-0.8-4.6-1.6-6.9-2.4c-3.4-1.2-6.9-2.4-10.3-3.6c-2.8-1-5.5-2-8.2-3.1c-1.1-0.4-1.9-0.3-2.8,0.7
				c-7.8,9.4-15.7,18.8-23.6,28.2c-4.4,5.2-8.9,10.4-13.3,15.6c-7,8.4-14,16.9-21.1,25.3c-1.9,2.3-3.8,4.6-5.8,6.9
				c-0.7,0.8-1.5,0.9-2.7,0.5c-7.4-2.7-13.4-7.6-20-11.5c-6.2-3.7-12.2-7.6-18.3-11.4c-1.6-1-3.1-2.3-4.6-3.3
				c-0.5-0.3-1.1-0.5-1.6-0.8c-3.4-2.1-6.8-4.2-10.2-6.3c-4.2-2.6-3.6-2.6-7.4,0.4c-4.5,3.7-9.1,7.3-13.6,10.9
				c-6.7,5.5-13.4,11-20.1,16.5c-4.2,3.4-8.5,6.8-12.7,10.2c-2.9,2.4-5.9,4.7-8.8,7.1c-3.1,2.6-6.1,5.2-9.2,7.8
				c-1.5,1.2-3,2.4-4.5,3.6c-1,0.9-2,1.9-3,2.8c-7.9,6.6-15.9,13.1-23.8,19.7c-5,4.1-9.9,8.2-14.9,12.2
				c-7.2,5.9-14.5,11.7-21.6,17.7c-2.2,1.8-4.1,3.1-7,2.2c-0.8-0.3-1.8-0.2-2.6-0.3c-0.3,0-0.5-0.2-0.8-0.3c0.2-0.2,0.3-0.5,0.5-0.7
				c2.5-2.1,5-4.1,7.5-6.2c3.2-2.6,6.5-5.2,9.7-7.8c1.3-1,1.4-1.8,0.3-3.6c-0.9-1.5-2-2.9-3.1-4.4c-0.3-0.4-0.7-0.8-0.7-1.2
				c-0.2-2.8-1.9-4.6-3.9-6.3c-0.6-0.5-0.7-1.5-1-2.3c-0.5-1.3-1-2.6-1.6-3.8c-0.2-0.5-0.6-1-1.1-1.1c-1.4-0.4-1.7-1.3-1.5-2.6
				c0-0.3,0.1-0.7-0.1-0.9c-1.9-2.3-1.6-5.7-3.6-7.9c-0.3-0.3-0.8-0.5-1.2-0.8c-1.1-0.7-2.4-1.2-3.3-2.1c-0.6-0.5-0.8-1.6-0.8-2.5
				c0.1-2.2-0.5-3.9-2.7-5c-1.6-0.8-2.1-2.7-2.7-4.3c-0.4-1-0.9-2-1.4-3c-0.6-1.1-1-2.4-1.9-3.2c-1.8-1.7-2.4-4-3.5-6
				c-0.6-1.1-1.6-1.9-2.4-2.9c-0.1-0.2-0.2-0.4-0.2-0.6c0.2,0.1,0.4,0.1,0.6,0.2c3,2,5.9,4.1,8.9,6.1c10.2,7.2,20.4,14.3,30.6,21.5
				c6.9,4.9,13.8,9.8,20.7,14.6c0.5,0.4,1.3,0.9,1.7,0.8c0.9-0.5,1.7-1.3,2.5-2c0.1-0.1-0.1-0.7-0.3-0.9c-1.2-1-2.4-1.9-3.7-2.8
				c-3.1-2.1-6.3-4-9.2-6.3c-3.7-3-7.6-5.5-11.6-8.1c-2.9-1.8-5.5-4-8.3-5.9c-2.8-1.9-5.6-3.7-8.3-5.6c-4.3-3-8.5-6-12.8-9.1
				c-2.4-1.7-4.6-3.5-7-5.3c-2.7-2-5.6-3.9-8.3-5.9c-1.1-0.8-1.9-0.4-2.8,0.3c-2.5,2.1-5,4.1-7.5,6.2c-4.8,4-9.7,8-14.5,12.1
				c-6.8,5.7-13.5,11.3-20.3,17c-4,3.3-8,6.7-12,10c-0.7,0.6-1.3,1-2.1,0.1c-1.1-1.2-1.2-1.2,0-2.4c3.3-3,6.6-5.9,10-8.9
				c1-0.9,1.3-1.6,0.4-2.9c-0.9-1.3-1.4-2.9-2-4.4c-0.5-1.2-1.2-2.3-2.5-2.6c-0.8-0.2-1.1-0.7-1.3-1.5c-0.5-2.1-1.6-3.9-2.7-5.7
				c-1.2-1.9-2.6-3.3-4-4.9c-2-2.3-3.4-5-3.7-8.2c-0.1-0.8-0.8-1.7-1.4-2.4c-0.7-0.9-1.6-1.6-2.5-2.3c-0.2-0.2-0.3-0.4-0.4-0.6
				c-0.4-3-2.3-5.2-3.7-7.7c-0.7-1.3-1.2-2.7-1.8-4.1c-0.3-0.7-0.5-1.4-1-1.9c-1.1-1.3-2-2.7-2.6-4.4c-1.1-3.1-2.7-6.1-4.3-9
				c-0.7-1.3-2-2.2-3.1-3.3c-0.3-0.3-0.7-0.6-0.8-0.9c-0.1-0.3,0-0.8,0-1.2c0.4,0.1,0.8,0.1,1,0.4c7.4,6.1,14.8,12.2,22.2,18.3
				c6.5,5.3,12.9,10.5,19.4,15.8c5.5,4.5,11.1,9,16.5,13.7c1.1,1,1.8,0.8,2.7-0.1c1.7-1.6,1.8-2.1-0.1-3.6c-2.3-1.8-4.6-3.4-6.9-5.1
				c-0.1-0.1-0.2-0.1-0.3-0.2c-3.5-3.4-7.5-6-11.2-9.2c-2.5-2.1-4.8-4.4-7.3-6.5c-2.8-2.4-5.7-4.8-8.7-7c-3.5-2.5-6.7-5.3-9.8-8.3
				c-0.7-0.7-1.6-1.2-2.4-1.9c-1.8-1.5-3.5-3-5.3-4.4c-2.4-2-4.8-4-7.2-6c-1.8-1.5-3.6-3.1-5.5-4.5c-1-0.8-2.3-1.3-3.5-1.9
				c-0.3-0.1-0.8,0.1-1.1,0.3c-0.8,0.6-1.5,1.2-2.2,1.9c-9.5,9.1-19.1,18.3-28.6,27.5c-6.5,6.2-13,12.5-19.5,18.7
				c-3.3,3.1-6.6,6.2-9.8,9.3c-0.3,0.2-0.6,0.4-0.8,0.6c-0.1-0.4-0.3-0.8-0.2-1.2c0.5-2.4,1-4.8,1.7-7.2c3-10,6-20,9.2-29.9
				c3.4-10.4,8-20.3,12.7-30.1c2.5-5.2,5-10.4,7.7-15.5c3.4-6.3,6.7-12.6,10.5-18.6c3.5-5.5,7.3-10.7,11.4-15.7
				c6.7-8.1,13.6-16,20.7-23.8c4.2-4.6,8.8-8.9,13.1-13.4c8.9-9.1,18.7-17.1,29.2-24.2c8.1-5.5,16.4-10.8,25.2-15.3
				c5.3-2.7,10.2-6,15.6-8.6c7.2-3.5,14.6-6.6,22.1-9.6c7.3-2.9,14.8-5.7,22.3-8.1c5.7-1.9,11.7-3.2,17.6-4.5
				c4.5-1,9.2-1.7,13.8-2.3c7.1-1,14.2-2,21.4-2.8c5.2-0.6,10.5-0.8,15.8-1.1C354.8,95.4,358.4,95.2,362.5,95z M308.9,274.3
				c-4.5-0.8-9.1-1.6-13.6-2.4c-1.1-0.2-2.1-0.4-3.1-0.8c-3.8-1.7-7.3-4-10.8-6.4c-3.8-2.7-6.3-6.3-8.7-10c-1.8-2.8-3.4-5.9-4.8-9
				c-1.7-3.8-2.7-7.8-3.1-11.9c-0.3-2.9,0-5.9,0.2-8.8c0.2-2.7,0.3-5.5,1-8.2c1-3.7,2-7.5,3.9-10.9c1.6-2.8,2.8-5.8,4.4-8.6
				c1.5-2.7,3.4-5.1,5.1-7.7c1.7-2.5,3.7-4.7,6.1-6.5c1.7-1.3,3.4-2.7,5-4.1c1-0.8,1.6-1.9,1.1-3.2c-0.5-1.2-1.6-1.7-2.9-1.9
				c-2.8-0.3-5.6-0.2-8.5,0.2c-5.2,0.7-10,2.3-14.7,4.5c-3.6,1.7-7.2,3.5-10.2,6.3c-3.3,3-6.8,5.8-9.9,9c-2.6,2.7-4.9,5.8-7.2,8.9
				c-1.9,2.7-3.8,5.5-5.2,8.6c-1.6,3.5-2.8,7.2-4,10.9c-2.1,6.6-2.2,13.4-2,20.2c0.1,3.6,0.4,7.2,0.9,10.7c0.4,2.9,1.1,5.9,2.1,8.7
				c0.9,2.6,2.7,4.9,3.5,7.5c1.2,4,4.1,6.6,6.6,9.7c1.5,1.8,3.3,3.3,4.8,5c3.9,4.6,8.6,8.4,13.3,12.1c1,0.8,2,1.5,3.1,2
				c2.2,1,4.4,1.8,6.6,2.7c0.6,0.2,1.2,0.6,1.8,0.8c1.4,0.5,2.9,0.8,4.4,1.2c2.1,0.7,4.2,1.7,6.4,2.4c2.2,0.6,4.4,1.2,6.7,1.4
				c5.5,0.3,11,0.6,16.5,0.5c4.1-0.1,8.3-0.8,12.4-1.2c0.2,0,0.3-0.1,0.5-0.2c2.3-0.8,4.6-1.8,6.9-2.3c3.4-0.7,6.4-2.2,9.5-3.6
				c7.7-3.5,13.9-8.9,19.3-15.2c4.1-4.8,7.7-9.9,10.5-15.6c1.2-2.4,2.2-5,3.2-7.5c0.6-1.5,0.9-3.1,1.1-4.7c0.3-1.8,0.4-3.6,0.4-5.3
				c0-1.6-1-2.6-2.2-2.2c-2.3,0.8-4.6,1.3-6.6,3.1c-2.9,2.7-6.2,5-9.4,7.4c-2,1.5-4,3-6.2,4.1c-3.6,1.7-7.3,3-11,4.4
				c-5.5,2.1-10.9,4.2-16.8,5.3C314.2,274.1,309.7,274.4,308.9,274.3z M341.7,168.6c-1.3,0-2.6-0.1-4,0c-2.1,0.2-4.3,0.3-6.4,0.7
				c-1.7,0.3-1.9,1.1-0.6,2.4c1.2,1.2,2.5,2.2,3.8,3.3c4.5,4,9,7.9,13.4,11.9c0.2,0.2,0.4,0.6,0.4,0.9c-0.5,2.7-1.2,5.3-1.7,8
				c-0.7,4.5-1.3,9-1.8,13.5c-0.3,2.2-0.1,4.4-0.4,6.6c-0.2,1.3,0.2,2,1.1,2.6c1,0.6,1.9,0.2,2.7-0.6c2.8-2.8,5.7-5.4,8.6-8.2
				c2.6-2.5,5.3-5.1,7.8-7.6c0.8-0.8,1.4-0.8,2.1,0c0.4,0.4,0.8,0.9,1.2,1.3c1.7,1.7,3.6,3.2,5.1,5.1c2.7,3.3,5.6,6.2,9.2,8.4
				c0.8,0.5,1.8,0.7,2.7,1c0.1-1,0.5-2.1,0.3-3.1c-1-6.4-2.2-12.9-3.2-19.3c-0.7-4.5-0.7-3.2,2.7-4.9c4.7-2.3,9.4-4.5,14.1-6.8
				c1.2-0.6,1.2-1,0.3-1.8c-0.3-0.3-0.7-0.7-1.2-0.8c-3.2-1.2-6.5-2.3-9.8-3.5c-3.3-1.2-6.6-2.4-9.9-3.6c-0.5-0.2-1.1-0.7-1.1-1.2
				c0-1.4,0.1-2.8,0.3-4.3c0.7-5.1,0-10.1-0.5-15.2c0-0.5-0.5-1.2-1-1.3c-0.4-0.1-1.2,0.1-1.6,0.5c-1.5,1.4-2.9,2.9-4.2,4.4
				c-3.2,3.6-6.4,7.3-9.7,10.9c-0.4,0.4-0.9,0.8-1.4,0.9c-2.1,0.1-4.2,0.2-6.2,0.2C349.1,168.9,341.7,168.7,341.7,168.6z
				 M477.1,229.2C477,229.1,477,229.1,477.1,229.2c-0.1-0.8,0-1.7-0.1-2.5c-0.1-0.7-0.4-1.6-0.9-2c-0.8-0.5-1.7-0.2-2.4,0.6
				c-1.1,1.4-2.4,2.7-3.4,4.1c-1.8,2.4-3.4,4.9-5.1,7.3c-0.4,0.5-0.7,0.9-1.4,0.5c-1.6-0.7-3.2-1.3-4.8-1.8
				c-1.5-0.5-3.1-0.8-4.6-1.3c-1-0.3-2-0.2-2.6,0.7c-0.5,0.9-0.6,1.9,0.4,2.8c0.4,0.3,0.6,0.9,0.9,1.3c1.4,2.1,2.7,4.3,4.2,6.4
				c1.1,1.5,2,2.6,0.6,4.6c-1.4,2-2.4,4.4-3.6,6.6c-0.6,1.1-1.5,2.1-1.9,3.2c-0.3,0.8-0.3,1.8-0.4,2.7c1,0,2.2,0.3,3.1,0
				c4.2-1.6,8.3-3.4,12.4-5.1c0.8-0.3,1.1-0.2,1.6,0.4c2.2,2.4,4.5,4.7,6.8,6.9c0.8,0.8,1.8,1.7,2.8,2.2c0.6,0.3,1.6,0.3,2.2-0.1
				c0.5-0.3,0.7-1.3,0.7-2c0-0.8-0.3-1.6-0.6-2.4c-0.9-3.1-1.7-6.1-2.6-9.1c-0.2-0.7-0.4-1.3,0.5-1.6c1.7-0.6,3.5-1.2,5.2-1.9
				c1.9-0.7,3.9-1.4,5.7-2.4c0.6-0.3,1-1.5,1-2.2c0-0.4-0.9-1.1-1.5-1.3c-3.6-0.9-7.3-1.7-10.9-2.6c-1.8-0.4-2.2-1-2-2.7
				C476.6,235.4,476.8,232.3,477.1,229.2z M170.2,242.2c0.2,0.3,0.5,1.1,1,1.2c0.5,0.1,1.5-0.1,1.8-0.5c2.2-2.5,4.3-5.1,6.4-7.8
				c1.9-2.5,2.5-2.6,5.3-1.1c2.3,1.3,4.6,2.5,6.9,3.8c0.9,0.5,1.9,0.9,2.8,0.1c0.9-0.8,0.2-1.8,0-2.7c0-0.2-0.2-0.3-0.2-0.5
				c-1.9-3.8-3.8-7.6-5.6-11.4c-1-2-0.9-1.9,0.6-3.5c2.4-2.5,4.9-5,7.2-7.5c0.4-0.5,0.4-1.4,0.5-2.1c-0.7-0.1-1.4-0.3-2-0.1
				c-4.5,0.8-8.9,1.7-13.4,2.6c-0.4,0.1-0.9,0.1-1.1-0.1c-1.1-1.3-2.2-2.6-3.3-4c-1.7-2.2-3.3-4.4-5-6.5c-0.3-0.4-1.1-0.5-1.6-0.8
				c-0.2,0.6-0.7,1.1-0.7,1.7c-0.2,3.7-0.3,7.3-0.4,11c-0.1,2-0.3,2.3-2.3,3.1c-3.5,1.4-7,2.9-10.4,4.4c-0.6,0.2-1.3,1-1.2,1.5
				c0,0.5,0.9,0.9,1.4,1.3c0.2,0.1,0.4,0.2,0.7,0.2c2.7,0.6,5.5,1.3,8.2,1.9c1,0.3,2,0.7,3.1,0.9c1.8,0.3,2.1,0.6,2,2.4
				C170.7,233.7,170.4,237.8,170.2,242.2z M378.1,131.8c-0.8,1.6,0.9,2.9,1.7,4.4c0.8,1.6,2.3,2.6,4,3.1c2.2,0.8,4.4,0.2,6.3-0.7
				c1.7-0.9,3.3-2.4,4.4-4c0.8-1.1,0.9-2.8,1-4.3c0.2-2.4-0.7-4.5-2.8-5.8c-1.8-1.1-3.5-2.9-6-1.9c-0.1,0.1-0.3-0.1-0.5-0.1
				c-2.8,0.1-5.3,0.6-6.8,3.7C378.4,127.9,378.4,129.6,378.1,131.8z M557.6,211.5c-2.6-0.1-5,1.4-6.2,3.8c-1.4,2.7-1.5,5.4-0.9,8.2
				c0.2,1.3,0.8,2.7,1.6,3.7c0.9,1,2,2.6,3.7,2.2c4.9-1.1,7.5-2.4,8.9-8.3C566,215.6,562.8,212.1,557.6,211.5z M469.6,151.5
				c-0.8,0.2-1.5,0.2-2.3,0.5c-5,1.7-6.4,8.4-3.7,12.3c1.9,2.7,4.4,3.9,7,3.4c4.5-0.8,6.7-5.1,6-9.4
				C476.1,154.2,473.2,151.6,469.6,151.5z M418.9,238.4c0.9-0.3,2.1-0.4,2.8-1c3.1-2.8,5.4-9.2,0.7-13.7c-2-1.9-6.8-2.6-8.2-0.3
				c-0.9,1.4-1.9,2.7-2.8,4.2c-0.3,0.5-0.3,1.2-0.3,1.8c0.1,1.3,0.3,2.6,0.6,3.9c0.2,0.6,0.4,1.4,0.9,1.8c0.7,0.6,1.6,1,2.3,1.6
				C416.1,237.7,417.2,238.5,418.9,238.4z M239.5,142.8c-1,0.5-2.3,0.9-3.1,1.7c-1.2,1.2-2.3,2.6-2.9,4.1c-1,2.4-0.8,2.5,0.3,5
				c0.6,1.2,1.4,2.5,2.3,3.4c1.6,1.6,3.5,1.6,5.6,1.2c3-0.6,6.4-4.2,6.2-7.1C247.6,147.4,243.6,143,239.5,142.8z M214.9,281.8
				c0.2-3.5-3.3-6-6.2-5.9c-3.9,0.2-6.3,2.7-6.5,7.1c-0.1,2.8,3.3,6,6.1,6C211.1,289.1,215.3,286.3,214.9,281.8z M315.4,345.6
				c2-0.1,3.3-1.5,4.3-3c0.6-0.8,1.1-2,1-2.9c-0.2-2.1-0.9-4-3-5.2c-2.2-1.2-4.9-1.5-6.7-0.1c-1.8,1.5-2.7,5-1.8,7.1
				C310.5,344.1,312.1,346.1,315.4,345.6z M317.3,147c-3.1,0-5.9,2.5-5.9,5.1c0.1,3.1,2.9,6,5.6,5.9c2.8-0.1,5.9-3.2,5.8-5.7
				C322.6,150.3,319.2,147,317.3,147z M128.3,259.6c0.4-3.3-2.5-5.4-5.5-5.5c-2.3,0-4.1,1.9-4.1,4.5c0,3.5,1.9,5.6,5.3,5.8
				C126.6,264.7,128.2,262.7,128.3,259.6z M500.9,200.7c-0.1,2.1,0.8,3.6,2.9,4.4c2.3,0.9,2.7,0.8,4.4-1.3c0.6-0.7,1.1-1.4,1.6-2.1
				c1.3-2-0.3-5.5-2.6-6C503.4,194.9,501.1,196.8,500.9,200.7z M296,231.3c1.9,0,3.3-0.2,4.3-1.5c1.7-2.3,1.4-5.2-0.8-7
				c-1.2-1-2.9-1.7-4.3-0.7c-1.2,0.8-2.7,2.3-2.7,3.6c-0.1,1.8,0.6,3.9,2.4,5.1C295.2,231,295.8,231.2,296,231.3z M460.8,297
				c0.3,3,1.8,4.7,4.1,4.6c2.4-0.2,5-2.9,4.8-5.2c-0.1-2-2.7-4-4.9-3.9C462,292.6,460.5,294.3,460.8,297z M331.5,321
				c0,1.8,1.6,3.4,3.3,3.4c1.7,0,3.3-1.8,3.3-3.7c0-1.7-1.6-3.3-3.4-3.3C333.2,317.4,331.5,319.3,331.5,321z"/>
			<path class="st2" d="M281.5,633.1c-0.3-8.7-0.9-17.2-4.4-25.3c-0.9-2.1-2.1-4-3.2-6c-0.4-0.8-0.7-1.3,0.2-1.9
				c5.8-4.2,10.6-9.4,14.8-15c5.8-7.7,10.9-15.8,15.4-24.3c2-3.8,4.2-7.5,6-11.4c2.5-5.3,4.7-10.8,6.8-16.2
				c1.8-4.7,3.4-9.5,5.1-14.2c1.8-5,3.8-9.8,5.3-14.9c2.5-8,4.6-16,6.9-24c1.2-4.3,2.6-8.6,3.8-12.9c1-3.8,1.8-7.7,2.8-11.5
				c0.9-3.5,1.9-6.9,2.8-10.4c0.1-0.5,0.6-0.8,0.9-1.2c0.4,0.4,0.8,0.7,1,1.1c1.3,2.9,2.4,6,4,8.9c2.7,5.1,5.7,10.1,8.5,15.2
				c5.5,9.7,11.8,18.8,18.3,27.8c2.4,3.3,5.1,6.4,8,9.3c4.9,4.9,9.8,9.9,15,14.4c6,5.3,12.3,10.3,18.7,15.2
				c7.3,5.5,15.2,9.9,23.6,13.6c1.6,0.7,3.3,1.3,5,2c0.7,0.3,0.7,0.6,0.4,1.2c-1.1,2.9-2.2,5.8-3.1,8.8c-1.6,5.1-2.3,10.4-2.4,15.8
				c-0.2,7.7,0,15.5,2,23c0.6,2.2,0.8,4.5,1.6,6.6c1,2.6,2.4,5.1,3.6,7.6c0.3,0.7,0.9,0.7,1.7,0.5c3.6-1.3,7.3-2.6,11-3.8
				c0.4-0.1,0.7-0.4,1.1-0.6c-0.3-0.2-0.7-0.4-1-0.5c-2.3-0.7-4.6-0.8-6.9-0.3c-0.5,0.1-1,0.1-1.4,0.1c-0.4,0-0.8,0-1.2,0.1
				c0.3-0.3,0.6-0.8,1-1c5.1-2.2,10.2-4.2,15.8-1.7c0.2,0.1,0.4,0.1,0.7,0.2c0-0.3,0.2-0.7,0.1-0.8c-0.8-0.9-1.5-2-2.4-2.5
				c-2.9-1.4-6-1.5-9.1-1c-1.7,0.2-3.3,0.9-5,1.3c-0.2,0-0.3,0.1-0.5,0.1c0.1-0.2,0.1-0.4,0.3-0.5c2.6-2.8,5.2-5.5,7.7-8.3
				c0.3-0.3,0.5-0.8,0.7-1.2c-0.5,0-1.1-0.1-1.5,0.2c-2.1,1.4-4.2,2.7-6.2,4.2c-1.8,1.4-3.3,3.2-4.9,4.8c-0.2,0.2-0.6,0.4-0.8,0.6
				c0-0.3-0.1-0.7,0-1c1-4.1,2.1-8.2,3.1-12.4c1.7-6.6,3.3-13.2,5.1-19.8c2.1-7.7,4.3-15.4,6.4-23.2c0.3-1.2,0.7-1,1.6-0.7
				c4.6,1.7,9.2,3.5,13.8,5c3.7,1.2,7.6,2.1,11.4,3.1c1.9,0.5,1.7,0.4,2,2.3c0.5,3.7,1.2,7.3,1.8,10.9c0.3,1.6,0.6,3.3,1,4.9
				c0.1,0.5,0.8,1.1,1.3,1.2c1.2,0.2,2.5,0.1,3.8,0.1c1.2,0,1.6-0.7,1.7-1.8c0.4-4.7,0.8-9.4,1.1-14.1c0.1-1,0.4-1.3,1.5-1.1
				c1.7,0.2,3.5,0.1,5.2,0c0.9-0.1,2-0.2,1.9-1.5c-0.1-1.2-1-1.5-2-1.5c-1.4-0.1-2.9-0.2-4.3-0.5c-1.5-0.3-1.8-0.7-1.5-2.2
				c0.4-2.2,0.9-4.5,1.2-6.7c0.2-1.2,0-2.3,0-3.5c-1,0.3-2,0.5-3,0.9c-3,1.1-5.9,2.3-8.9,3.4c-0.9,0.3-1.1,0.8-1.2,1.7
				c-0.1,3.4-0.2,3.6-3.2,2.4c-6.6-2.4-13.1-4.9-19.5-7.8c-4.9-2.2-9.4-5-14.1-7.5c-4.1-2.2-8.3-4.2-12.3-6.6
				c-4.6-2.7-9.1-5.8-13-9.6c-1.6-1.6-3.4-3-5.1-4.5c-0.2-0.2-0.3-0.3-0.5-0.5c0.3,0,0.5-0.1,0.8,0c2.6,0.6,5.1,1.5,7.7,1.9
				c3.1,0.5,6.2,0.6,9.3,0.9c2,0.1,3.9,0.2,5.9,0.2c1.7,0,3.4-0.1,5.2-0.2c1.8-0.1,3.7-0.2,5.5-0.4c1.3-0.2,2.5-0.6,3.8-0.8
				c2.8-0.6,5.7-1.1,8.5-1.6c2.1-0.4,4.2-1,6.2-1.3c2.2-0.4,4.5-0.6,6.7-1.1c3-0.8,6-1.1,9.1-0.5c0.1,0,0.5-0.5,0.4-0.7
				c-0.4-1.3-0.9-2.5-1.3-3.7c-0.1-0.3-0.1-0.5-0.1-0.8c0.3,0.1,0.7,0.1,0.9,0.2c2.3,1.9,4.3,4,5.6,6.7c0.2,0.4,0.6,0.6,0.9,0.9
				c0.1-0.4,0.3-0.7,0.4-1.1c0.7-4.6-0.1-9.1-2.2-13.2c-0.1-0.3-0.3-0.5-0.4-0.8c-0.1-0.2-0.1-0.4-0.1-0.6c0.3,0.1,0.6,0.1,0.7,0.2
				c1.4,1.5,3,2.8,4.2,4.5c1.2,1.7,2.1,3.7,3.1,5.6c0.2,0.3,0.4,0.5,0.6,0.8c0.1-0.3,0.4-0.7,0.4-1c-0.2-2.1-0.2-4.2-0.7-6.2
				c-0.7-2.8-1.8-5.5-2.8-8.3c-0.1-0.3-0.2-0.5-0.3-0.8c-0.1-0.2,0-0.4-0.1-0.7c0.2,0.1,0.5,0.1,0.6,0.3c1.3,1.7,3,3.2,3.9,5.1
				c1.6,3.1,2.7,6.5,4,9.8c0.1,0.3,0.2,0.5,0.3,0.8c0.2-0.3,0.5-0.5,0.6-0.8c0.2-2.1,0.6-4.2,0.4-6.3c-0.2-3.1-0.8-6.2-1.4-9.2
				c-0.3-1.4-1.1-2.6-1.7-3.9c-0.1-0.2-0.1-0.4-0.2-0.6c0.2,0.1,0.4,0.1,0.6,0.2c2.7,1.7,4.1,4.4,5.4,7c1.6,3.2,3,6.5,3.5,10.1
				c0,0.3,0.2,0.6,0.2,0.8c0.3-0.2,0.6-0.4,0.8-0.6c4.4-5.2,9.9-7.8,16.7-7.5c0.2,0,0.5,0,0.7,0c0.5,0.2,1,0.5,1.5,0.7
				c-0.4,0.2-0.8,0.5-1.2,0.6c-3.9,1.4-7.5,3.3-10.5,6.2c-0.3,0.3-0.6,0.6-0.9,0.9c-0.2,0.2-0.2,0.5-0.3,0.7c0.3,0,0.6,0,0.8-0.1
				c2.1-0.8,4.2-1.7,6.4-2.4c0.9-0.3,2-0.3,3-0.3c0.3,0,0.7,0.3,1,0.5c-0.2,0.2-0.4,0.6-0.7,0.7c-0.9,0.4-1.8,0.7-2.6,1.2
				c-4.2,2.2-8,4.8-9.8,9.6c-0.1,0.2-0.2,0.4-0.2,0.7c-0.1,0.4-0.1,0.8-0.2,1.2c0.3-0.2,0.7-0.5,1-0.7c1.8-1.6,3.5-3.3,5.5-4.6
				c1.5-1,3.4-1.3,5.2-1.9c0.3-0.1,0.7,0.1,1,0.2c-0.2,0.3-0.2,0.8-0.5,1c-1.5,1.3-3,2.6-4.5,3.9c-0.6,0.5-0.8,0.7,0.2,1.5
				c2.3,1.9,5.1,2.3,7.7,3.3c2.2,0.9,4.5,1.2,6.6,2.7c2.4,1.7,5.5,2.5,8.3,3.8c1.5,0.7,3,1.5,4.4,2.5c3.5,2.3,6.9,4.7,10.5,6.9
				c2.3,1.4,4.2,3.1,6.3,4.8c1.5,1.3,3.2,2.3,4.9,3.3c1.3,0.8,1.2,1.6,0.5,2.8c-2.3,4.3-5.5,8-8.2,12c-5.5,8.5-12.5,15.6-19.2,23.1
				c-3.9,4.3-7.8,8.7-12.1,12.6c-4.8,4.5-10,8.7-14.9,13c-9.1,7.9-19.3,14.4-29.1,21.4c-5,3.6-10.6,6.5-16.1,9.4
				c-6,3.3-12.1,6.4-18.3,9.3c-5.3,2.5-10.8,4.6-16.3,6.7c-6.3,2.4-12.6,4.6-19,6.7c-7.3,2.5-14.6,4.6-22.2,6
				c-8.2,1.5-16.3,3.1-24.5,4.6c-3,0.5-6.1,0.6-9.1,0.8c-0.2,0-0.3-0.1-0.5-0.1c0.2-0.1,0.4-0.2,0.6-0.3c3.5-0.4,6.8-1.4,10-2.8
				c1.9-0.9,4-1.4,6-2.2c2.4-1,4.9-2.1,7.2-3.2c1.7-0.8,3.3-1.8,5-2.6c1.4-0.7,2.9-1.5,4.3-2.2c1.6-0.8,3.2-1.5,4.7-2.5
				c1.5-1,2.8-2.3,4.2-3.4c1.3-1,2.7-1.8,3.9-2.9c1.4-1.2,2.7-2.6,4.1-4c2.3-2.3,4.5-4.7,6.7-7.1c0.2-0.2,0.4-0.5,0.5-0.7
				c2.7-4.1,6.4-7.6,8.6-12.1c1.6-3.2,3.5-6.2,5.1-9.4c0.3-0.7,0.3-1.8,0-2.5c-2.6-5.5-3.9-11.3-4.9-17.2c-0.6-3.6-1.2-7.3-1.4-11
				c-0.2-3,0.1-6,0.2-9c0.1-1.5,0.3-3,0.3-4.5c0.2-5.1,1.9-9.8,3.1-14.7c0.3-1.2,0.2-1.7-1-2.2c-6.2-2.6-11.7-6.3-16.9-10.4
				c-5.5-4.3-11.2-8.3-16.5-12.7c-5.7-4.7-11.2-9.6-16.3-15c-5.5-5.9-10.5-12.1-15.2-18.7c-3.6-5-7.1-10.1-10.7-15.1
				c-0.4-0.6-1.3-1.1-2.1-1.3c-3.3-0.7-6.5-1.4-9.9-1.2c-2.8,0.2-5.6,0.3-8.3,1.2c-1.6,0.5-2.4,1.3-2.9,3
				c-3.1,11.2-6.2,22.3-9.5,33.4c-3.2,10.9-7.4,21.5-12.2,31.8c-3.9,8.3-8.1,16.4-12.4,24.5c-3.6,6.6-7.4,13.2-11.4,19.6
				c-2.2,3.4-5,6.4-7.6,9.5c-0.8,1-1.1,1.6-0.5,2.8c1.9,3.6,2.2,7.6,2.3,11.5c0.1,4,0.1,8.1-0.4,12c-0.6,4.7-1.6,9.4-2.5,14.1
				c0,0.1,0,0.1-0.1,0.2c-2,2-0.1,3.3,1,4.6c2.2,2.6,5.3,4.2,8.1,6.2c3.2,2.2,6.4,4.4,9.7,6.4c1.7,1,3.5,1.8,5.3,2.7
				c0.8,0.4,1.6,0.7,2.4,1.2c1.4,0.9,2.8,1.6,4.5,1.8c0.9,0.1,1.8,0.7,2.7,1c2.2,0.8,4.4,1.6,6.6,2.4c0.2,0.1,0.4,0.3,0.5,0.4
				c-0.2,0-0.4,0.1-0.6,0.1c-2.1-0.1-4.2-0.1-6.3-0.4c-4.9-0.6-9.8-1.1-14.6-2c-5.7-1-11.4-2.3-17.1-3.5c-8.1-1.6-16.1-3.8-23.8-6.8
				c-7.3-2.8-14.6-5.9-21.8-9c-5.6-2.4-11.1-5.1-16.7-7.6c-1.2-0.6-2.3-1.2-3.5-1.8c-2.2-1.2-2.2-1.1-4.1,0.4
				c-2.2,1.8-4.5,3.5-6.9,5c-3.2,2-6.6,3.9-10,5.8c-1.1,0.6-1.9,1.3-1.7,2.8c0.5,5.3,0.9,10.6,1.5,15.9c0.2,1.7,0.1,2-1.7,2
				c-1.4,0-2.8,0-4.2,0c-0.9,0-1.2-0.4-1.4-1.2c-1-4.1-2.1-8.2-3.3-12.3c-0.1-0.3-0.8-0.7-1.1-0.6c-1.1,0.1-2.1,0.5-3.2,0.7
				c-0.6,0.1-1.3,0-1.9-0.2c-1.2-0.5-1.4-1.8-0.4-2.6c1.1-0.9,2.4-1.7,3.7-2.1c1.3-0.4,1.4-1.1,1-2.1c-0.8-2.3-1.5-4.7-2.3-7
				c-0.4-1.1-0.4-1.6,0.9-2c3.2-1.1,6.4-2.4,9.5-3.7c2-0.8,2.4-0.5,2.5,1.7c0,1.9,0,3.9,0,5.8c0,1.1,0.5,1.1,1.2,0.6
				c2.2-1.4,4.6-2.8,6.8-4.3c2.7-1.8,5.2-3.8,7.8-5.7c0.7-0.5,0.5-0.9-0.1-1.4c-0.5-0.4-1-1-1.4-1.5c0.7,0.1,1.5-0.1,2.2,0.2
				c2.3,0.9,3.6-0.8,5-2c1.2-1.1,2.3-2.2,3.5-3.3c4-3.9,8.1-7.6,11.4-12.1c0.1-0.2,0.3-0.4,0.5-0.6c1.6-1.6,3.2-3.2,4.8-4.8
				c1.7-1.8,3.4-3.6,5.1-5.5c1.7-1.9,3.4-4,5.1-5.9c1.7-1.8,3.5-3.6,5-5.5c2.6-3.1,5-6.3,7.5-9.4c1.3-1.7,2.8-3.2,4-4.9
				c1.5-1.9,2.8-4,4.1-6c1.7-2.5,3.5-5,5.1-7.6c1.3-2,2.2-4.2,3.5-6.3c1.7-2.8,3.6-5.5,5.5-8.2c0.8-1.2,1.6-2.4,2.4-3.6
				c4.5-7.2,8.1-14.9,11.9-22.5c2-4.1,4.3-8,6.2-12.1c2.8-6.1,5.3-12.2,7.9-18.4c1.4-3.4,2.9-6.7,4.2-10.1c1-2.7,1.6-5.5,2.4-8.3
				c1.2-3.7,2.6-7.3,3.6-11.1c1-3.9,1.6-7.8,2.6-11.7c1.3-4.9,2.1-9.8,2.8-14.8c0.7-4.6,1.6-9.2,2.4-13.8c0.8-4.7,1.5-9.5,2.3-14.2
				c0.3-1.8,1-3.5,1.6-5.3c1.8-4.8,3.7-9.6,5.5-14.4c0.5-1.4,0.4-1.4-1.2-1.5c-2.7-0.1-2.7-0.1-1.5-2.5c2.6-5.2,5.2-10.4,7.9-15.6
				c0.2-0.3,0.5-0.6,0.8-0.9c0.2,0.3,0.5,0.6,0.7,1c2,4.9,4,9.9,6,14.8c0.5,1.2,0.9,2.3,1.3,3.5c-1.2,0-2.4,0.1-3.6,0
				c-1.5,0-0.9,0.9-0.6,1.5c1.6,4.2,3.2,8.4,4.9,12.6c3.1,8,6.2,16,9.4,23.9c0.2,0.5,0.6,1,0.8,1.5c0.3-0.5,0.8-1,1-1.6
				c2.2-5.8,4.4-11.5,6.6-17.3c0.7-1.8,0.7-1.9-1.3-1.9c-0.4,0-0.8,0-1.3,0c-1.1,0-1.4-0.4-0.9-1.5c2.6-5.8,5.2-11.7,7.8-17.6
				c0.1-0.3,0.3-0.6,0.5-0.9c0.3,0.3,0.6,0.6,0.8,0.9c2.9,5.2,5.8,10.3,8.7,15.5c0.5,0.9,1,1.8,1.5,2.7c0.8,1.5,0.7,1.5-1,1.5
				c-0.7,0-1.3,0-2,0c-0.9,0-1.2,0.3-0.8,1.2c1.1,2.3,2.1,4.7,3.1,7.1c2,4.6,4,9.1,6,13.7c0.2,0.4,0.5,0.7,0.8,1
				c0.2-0.3,0.5-0.7,0.6-1c1-3,1.9-5.9,2.9-8.9c0.4-1.1,0.2-1.5-1-1.5c-3.2-0.1-3.2-0.2-2.2-3.2c2.7-8.1,5.5-16.3,8.3-24.4
				c0.3-1,0.6-1.9,0.9-2.9c0.3-1,0-1.6-1.2-1.6c-1.4,0-2.8-0.1-4.1-0.1c-1.7,0-1.7,0-1-1.6c1.3-2.9,2.6-5.8,4-8.7
				c2.8-5.9,5.5-11.7,8.3-17.5c0.2-0.4,0.4-0.7,0.7-1c0.3,0.3,0.6,0.6,0.7,1c4.4,8.8,8.8,17.7,13.2,26.5c0.1,0.2,0.2,0.3,0.2,0.5
				c0.7,1.5,0.7,1.6-1,1.6c-1.3,0-2.5,0.1-3.8,0c-1.2-0.1-1.5,0.4-1,1.5c1.2,3.1,2.4,6.1,3.5,9.2c1,2.8,1.8,5.6,2.7,8.4
				c0.1,0.4,0.5,0.8,0.7,1.1c0.2-0.3,0.6-0.6,0.7-0.9c2-4,3.9-8.1,5.8-12.1c0.7-1.5,0.7-1.6-0.9-1.9c-1.2-0.2-1.4-0.5-0.7-1.5
				c2.5-4.1,4.9-8.2,7.3-12.3c0.2-0.3,0.4-0.6,0.5-0.9c0.5-0.9,0.8-0.6,1.1,0.1c1.2,2.4,2.4,4.8,3.6,7.2c1.1,2.2,2.2,4.5,3.4,6.7
				c0.4,0.7,0.3,0.9-0.5,1c-2.3,0.2-2.3,0.3-1.4,2.4c2.6,6.2,5.3,12.3,7.9,18.5c0.7,1.7,0.7,1.8-1.1,1.8c-1.5,0.1-1.6,0.2-1,1.6
				c0.7,1.9,1.5,3.8,2.3,5.7c0.2,0.4,0.5,0.6,0.8,0.9c0.3-0.3,0.6-0.5,0.7-0.9c1.8-4.1,3.5-8.3,5.2-12.4c0.6-1.4,0.4-1.6-1.2-1.7
				c-1.9-0.1-2-0.2-1.4-1.9c1.5-4.7,3-9.5,4.5-14.2c1.2-4,2.4-8,3.6-12.1c0.5-1.7,0.2-2-1.6-1.8c-3.1,0.4-3.1,0.4-1.9-2.6
				c3.7-9.1,7.3-18.1,11-27.1c0.1-0.3,0.2-0.6,0.4-0.8c0.2-0.3,0.5-0.4,0.7-0.7c0.1,0.3,0.3,0.5,0.4,0.8c2.3,8.3,4.5,16.5,6.8,24.8
				c0.6,2.1,1.1,4.2,1.7,6.2c0.3,1,0,1.2-0.9,1c-0.8-0.2-1.6-0.3-2.5-0.4c-1.5-0.2-1.7,0-1.3,1.5c1.7,5.5,3.5,11.1,5.2,16.6
				c1.2,4,2.5,8,3.7,12c0.4,1.4,0.2,1.7-1.3,1.6c-1.5-0.1-3-0.2-4.5-0.4c-0.9-0.1-1.3,0-0.9,1c3.6,9.4,7.1,18.8,10.7,28.2
				c0,0.1,0.1,0.2,0.1,0.3c0.1,0.3,0.3,0.5,0.5,0.7c0.3-0.2,0.6-0.4,0.7-0.6c1-1.9,2-3.8,3-5.7c1.6-3.3,3.2-6.6,4.8-9.9
				c1-2,0.9-2.1-1.2-2.1c-0.3,0-0.6,0-0.9,0c-2-0.1-2.4-0.8-1.6-2.5c2.1-4,4.3-8.1,6.4-12.1c0.9-1.7,1.8-3.4,2.7-5.1
				c0.6-1,0.2-1.4-0.8-1.6c-0.4-0.1-0.7-0.1-1.1-0.1c-1.8-0.1-1.8-0.2-1-1.7c3.4-6.2,6.9-12.5,10.4-18.7c0.2-0.4,0.7-0.7,1.1-1.1
				c0.3,0.3,0.7,0.6,0.9,1c3.6,6.7,7.1,13.5,10.7,20.2c0.2,0.3,0.4,0.6,0.4,1c0,0.3-0.3,0.7-0.5,0.7c-0.8,0-1.7-0.2-2.5-0.3
				c-1.3-0.1-1.5,0.2-1,1.4c1.4,3.2,2.8,6.4,4.1,9.6c1.1,2.8,2.1,5.6,3.2,8.4c0.5,1.2,0.1,1.5-1.1,1.5c-1.7,0-3.5,0.1-5.2,0.1
				c-1,0-1.5,0.3-0.9,1.4c1.8,3.8,3.5,7.6,5.3,11.4c0.1,0.3,0.4,0.6,0.6,0.9c0.5,0.7,0.7,0.6,1.1-0.2c1.4-3,2.8-6,4.2-9
				c3.8-8.3,7.6-16.5,11.4-24.8c0.1-0.3,0.2-0.6,0.3-0.8c0.6-1.1,0.3-1.5-0.9-1.5c-2.2,0.1-4.3,0.2-6.5,0.2c-0.5,0-1.1,0.1-1.6,0.1
				c-1.2,0.1-1.3-0.4-0.9-1.4c2.7-5.7,5.4-11.4,8.1-17c1.5-3.3,3.1-6.5,4.6-9.8c0.7-1.5,0.6-1.7-1.2-1.7c-1.9,0-3.8,0-5.8,0.1
				c-1.8,0-2-0.2-1.3-1.8c4.8-11.5,9.5-23,14.3-34.5c0.8-1.9,1.5-3.8,2.4-5.6c0.3-0.6,1-1.1,1.5-1.2c0.4-0.1,1.1,0.6,1.4,1.1
				c5.3,8.8,10.6,17.7,15.9,26.5c2.9,4.9,5.9,9.7,8.8,14.6c0.3,0.4,0.4,1,0.6,1.5c-0.6,0.1-1.1,0.3-1.7,0.3c-1.6,0-3.2-0.1-4.9-0.1
				c-2,0-2.1,0-1.2,1.8c3,5.6,6.1,11.3,9.1,16.9c1.4,2.5,2.6,5.1,4.1,7.6c0.5,1,0.3,1.1-0.6,1.1c-2.1-0.1-4.2-0.1-6.3-0.2
				c-0.5,0-1,0.2-1.5,0.3c0.2,0.4,0.3,0.9,0.5,1.3c2.8,4.7,5.6,9.3,8.5,14c0.5,0.7,1.2,1.3,1.7,2c0.3-0.8,0.7-1.5,0.9-2.3
				c1.9-6.1,3.8-12.2,5.7-18.3c0.5-1.5,0.3-1.8-1.3-1.8c-0.9,0-1.8,0-2.7,0c-2,0-2.1-0.1-1.3-1.9c1.3-2.9,2.6-5.7,3.9-8.5
				c0.7-1.5,1.4-2.9,2-4.4c0.5-1.3,0.4-1.4-1-1.4c-1.7,0-3.4,0.2-5,0.3c-1.8,0.1-2.1-0.2-1.3-1.8c2.8-6,5.6-11.9,8.4-17.9
				c0.6-1.4,1.1-2.8,1.8-4.1c0.3-0.6,0.7-1,1.1-1.6c0.4,0.4,0.9,0.8,1.2,1.2c2.2,3.2,4.4,6.4,6.6,9.7c2.6,4.1,5.2,8.2,7.7,12.3
				c0.8,1.2,0.6,1.5-0.9,1.5c-1.9,0-3.7,0-5.6,0c-0.4,0-0.8,0.1-1.2,0.2c0.2,0.4,0.2,0.9,0.5,1.3c2.6,3.8,5.2,7.5,7.8,11.2
				c0.8,1.1,1.6,2.3,2.3,3.4c0.2,0.2,0.3,0.5,0.4,0.7c-0.3,0-0.5,0.1-0.8,0.1c-1.9,0-3.9,0-5.8-0.1c-1.2-0.1-1.3,0.3-0.9,1.4
				c3.3,8.7,6.6,17.4,10,26c2,5.1,4.2,10.1,6.3,15.1c0.6,1.4,1.1,2.8,1.7,4.2c0.4,1,0.1,1.3-0.9,1.4c-2.5,0.2-5,0.5-7.5,0.7
				c-0.9,0.1-1.4,0.4-1.4,1.3c-0.5,5.4-2.1,10.5-4,15.6c-3.9,10.9-7.8,21.7-11.7,32.6c-0.7,1.9-1.8,3.6-2.7,5.5
				c-0.5,0.9-1.1,1-1.9,0.5c-1.8-1.2-3.5-2.3-5.3-3.4c-1.8-1.1-3.5-2.3-5.5-3.1c-1.2-0.5-2.8-0.3-4.2-0.5c-0.4,0-0.9-0.1-1.3-0.2
				c0.2-0.4,0.3-0.8,0.6-1.1c1.7-1.9,3.8-3.3,6.2-4.2c1.4-0.6,2.8-0.9,4.3-1.4c0.3-0.1,0.5-0.4,0.8-0.6c-0.2-0.1-0.5-0.3-0.7-0.4
				c-3.2-1.2-6.3-0.6-9.3,0.6c-2,0.8-4,1.7-5.3,3.5c-0.1,0.2-0.4,0.2-0.6,0.3c0-0.3,0-0.5,0.2-0.7c3-5.1,7.8-8,12.8-10.7
				c0.9-0.5,2-0.9,2.9-1.3c0.2-0.1,0.4-0.4,0.6-0.6c-0.3-0.1-0.5-0.3-0.8-0.3c-4.2-0.3-8.1,1-11.5,3.5c-1.5,1.1-2.8,2.5-4.3,3.8
				c-0.4,0.4-0.9,0.7-1.3,1.1c0.2-0.6,0.2-1.2,0.5-1.7c1.9-3.5,3.1-7.1,3.8-11c0-0.3,0-0.6,0-0.8c-0.2,0.2-0.5,0.3-0.5,0.6
				c-1.4,3.6-4,6.4-6.5,9.2c-0.2,0.2-0.4,0.5-0.6,0.6c-0.3,0.2-0.8,0.5-1.1,0.4c-0.3-0.1-0.5-0.7-0.4-1.1c0.8-3,0.3-6-0.5-8.9
				c-0.7-2.4-1.9-4.7-2.9-7.1c-0.1-0.2-0.4-0.4-0.6-0.5c-0.1,0.3-0.2,0.5-0.2,0.8c0.1,2.6,0.3,5.3,0.3,7.9c0,2-0.4,4-0.7,6.1
				c0,0.2-0.2,0.4-0.3,0.6c-0.2-0.2-0.4-0.4-0.5-0.6c-1-2.8-2.7-5.2-4.9-7.2c-0.3-0.3-0.8-0.5-1.2-0.7c0.1,0.4,0.1,0.8,0.2,1.2
				c1.1,3.9,0.6,7.7-0.9,11.4c-0.1,0.2-0.2,0.4-0.4,0.6c-0.1-0.1-0.3-0.2-0.4-0.4c-1.3-4.2-4.9-5.8-8.4-7.2
				c-5.7-2.3-11.6-3.7-17.7-4.5c-2-0.3-4-0.5-6.1-0.7c-0.4-0.1-0.9-0.4-1.3-0.5c-0.7-0.1-1.5-0.3-2.2-0.3c-1.5,0-3.1,0.2-4.6,0.1
				c-1.2-0.1-2.3-0.6-3.7,0c-0.8,0.4-1.9,0.1-2.9,0c-1-0.1-2-0.4-2.9-0.3c-2.9,0.3-5.9,1.1-8.7,0.9c-3-0.2-5.8,0.3-8.6,0.9
				c-2.3,0.5-4.4,1.2-6.8,0.8c-0.8-0.1-1.6,0.7-2.5,0.8c-2.9,0.5-5.8,1-8.7,1.4c-0.1,0-0.2,0-0.3,0.1c-3.1,1.5-6.6,2.2-9.7,3.9
				c-2.7,1.5-5.3,3.2-8,4.7c-0.6,0.4-1.3,0.6-2,0.8c-4.1,1.2-8,3-12.1,4.3c-3.9,1.2-7.5,3.3-11.8,3.4c-2,0-4,0.1-6.1,0.2
				c-0.4,0-0.9-0.2-1.2-0.1c-3.3,1.5-6.5,0.4-9.8,0.1c-0.7-0.1-1.4,0.2-2.1,0.2c-1.3-0.1-2.7-0.3-4-0.5c-0.2,0-0.5-0.1-0.7,0
				c-3.7,1.5-7.3-0.4-11-0.5c-2.7-0.1-4-2-5.4-3.7c-3.7-4.6-7.2-9.4-11-14c-4.3-5.2-8-10.9-11.8-16.5c-3-4.5-6.2-9-9.1-13.6
				c-2-3.2-3.9-6.4-5.8-9.7c-2.4-4.2-4.7-8.5-7.1-12.7c-1.7-3.1-3.5-6.2-5.3-9.3c-0.9-1.5-1.8-2.9-2.8-4.4c-0.1-0.2-0.4-0.4-0.6-0.6
				c-0.2,0.3-0.5,0.5-0.5,0.8c-0.4,2.7-0.9,5.4-1.3,8.1c-0.6,4.4-1.1,8.7-1.7,13.1c-0.3,2.4-0.5,4.8-0.9,7.1c-0.4,2.4-0.9,4.7-1.5,7
				c-1.4,5.2-3,10.4-4.4,15.7c-1.5,5.6-2.8,11.3-4.3,16.9c-0.8,2.8-1.8,5.6-2.8,8.3c-1.5,4.5-2.9,9.1-4.6,13.6
				c-1.1,3-2.4,5.8-3.6,8.7c-1.3,3-2.6,5.9-3.9,8.8c-0.3,0.8-0.8,1.5-1.2,2.2c-2.6,5.1-5.2,10.2-7.9,15.3c-1.6,3.2-3.2,6.4-5,9.5
				c-2,3.5-4.1,7-6.3,10.5c-4.7,7.3-9.3,14.7-14.2,21.8c-3.7,5.3-8,10.3-12,15.4c-1,1.2-1.2,2.4-0.6,4c1.9,5.2,3.6,10.5,5.3,15.8
				c0.9,2.6,1.8,5.2,2.6,7.8c1.3,4.1,2.4,8.2,3.7,12.3c1.4,4.7,2.9,9.4,4.4,14c0.1,0.3,0.4,0.5,0.7,0.8c0.2-0.3,0.5-0.5,0.6-0.8
				c0.5-1.9,1.1-3.8,1.4-5.7C281.2,638.1,281.3,635.6,281.5,633.1z M271.3,637c-0.2-0.7-0.4-1.4-0.6-2.1c-3-9.1-6-18.1-9-27.2
				c-0.9-2.7-1.7-5.5-2.6-8.2c-0.4-1.3-0.9-1.5-1.7-0.7c-1,1.2-2,2.5-3,3.8c-2.3,2.7-4.7,5.5-7.1,8.1c-1.6,1.8-3.3,3.5-5,5.3
				c-1.5,1.6-3.1,3.2-4.7,4.7c-2.1,1.9-4.3,3.7-6.3,5.6c-3.2,3-6.4,6-9.6,9c-0.8,0.7-0.9,1.1,0.2,1.4c0.7,0.3,1.5,0.5,2.2,0.7
				c6.4,1.9,12.7,3.8,19.1,5.6c3.3,1,6.7,1.9,10,2.9c0.3,0.1,0.7,0,1,0c-0.1-0.3-0.1-0.7-0.2-1c-0.5-1-0.8-2-1.5-2.8
				c-1.1-1.4-2.4-2.6-3.7-3.9c-0.2-0.2-0.3-0.6-0.4-0.9c0.3,0,0.6-0.1,0.8,0c0.9,0.3,1.8,0.6,2.7,1.1c4,1.9,7.2,4.9,10.3,8
				c0.3,0.3,0.7,0.6,1.1,0.8c0-0.5,0-1-0.1-1.5c-1.1-4.1-3.1-7.6-6.1-10.7c-1.2-1.2-2.4-2.5-3.6-3.8c-0.2-0.2-0.3-0.6-0.4-0.9
				c0.3,0.1,0.7,0.1,0.9,0.3c2.5,2.1,5.2,3.9,7.4,6.3c2.3,2.5,4.2,5.4,6.3,8.1c0.4,0.5,0.9,0.8,1.3,1.2c0-0.6,0-1.3-0.1-1.9
				c-0.2-0.8-0.4-1.5-0.7-2.2c-1.3-2.7-2.8-5.4-4.1-8.1c-0.1-0.2-0.2-0.5-0.3-0.8c0.3,0.1,0.6,0.1,0.8,0.2c2.3,0.7,4.1,2.1,5.8,3.9
				c0.2,0.2,0.4,0.3,0.7,0.5C271.1,637.6,271.2,637.3,271.3,637z M495.8,582.2c0.4,0,0.8,0,1.3,0c2.9-0.1,5.9-0.2,8.4-1.9
				c1.8-1.2,2.1-2,1.6-4.1c-0.1-0.6-0.1-1.3,0.2-1.8c3.4-4.6,8.2-7,13.6-8.5c0.4-0.1,0.8-0.4,1.2-0.6c-0.4-0.3-0.8-0.8-1.2-0.9
				c-1-0.1-2.1,0-3.2,0.1c-3.5,0.3-6.6,1.4-9.3,3.8c-0.2,0.1-0.3,0.3-0.5,0.4c0.1-0.2,0.1-0.5,0.2-0.7c1.2-2.4,2.9-4.4,5-6
				c0.4-0.3,0.5-0.8,0.8-1.2c-0.5,0.1-1,0-1.5,0.2c-2.3,1.1-4.3,2.6-6,4.5c-1.9,2.2-3.3,4.5-3.6,7.5c-0.1,1-0.9,2.1-1.6,2.8
				c-1.9,1.6-4.3,1.2-6.5,0.7c-1.7-0.4-2.8-1.2-3.6-2.9c-1.5-3.4-7.3-6.1-10.9-5.4c-0.4,0.1-0.7,0.4-1,0.6c0.3,0.3,0.6,0.6,1,0.8
				c1.5,0.8,3,1.6,4.6,2.5c0.2,0.1,0.3,0.5,0.4,0.7c-0.2,0-0.4-0.1-0.7-0.1c-1.8-0.1-3.6-0.5-5.2,0.7c-0.3,0.2-0.5,0.5-0.8,0.8
				c0.4,0.2,0.8,0.4,1.2,0.4c1.4,0.2,2.7,0.3,4.1,0.5c0.4,0.1,1,0.7,1,1c-0.3,2.2,1.1,3.4,2.7,4.4
				C490,582.1,492.9,582.3,495.8,582.2z"/>
			<path class="st2" d="M139.3,457.5c0.2-2.1,0.3-3.5,0.3-4.9c0-0.3-0.2-0.6-0.3-0.9c-0.2,0.1-0.6,0.2-0.7,0.4
				c-0.5,0.9-1,1.8-1.2,2.8c-0.5,1.8-0.8,3.6-1.1,5.4c0,0.2-0.2,0.4-0.3,0.6c-0.1-0.2-0.1-0.3-0.2-0.5c-1.6-3.3-4-5.9-6.6-8.5
				c-0.3-0.3-0.7-0.5-1.1-0.7c-0.2-0.1-0.6,0-0.6,0.1c-0.1,0.2-0.2,0.6-0.1,0.8c0.2,0.5,0.6,0.9,0.9,1.4c2,3.2,4.1,6.5,5.1,10.2
				c0.1,0.3,0.2,0.6,0.2,0.9c0,0.2-0.1,0.4-0.1,0.7c-0.2-0.1-0.4-0.2-0.6-0.3c-1.4-1.1-2.7-2.2-4.1-3.2c-0.9-0.6-1.9-1-2.9-1.4
				c-0.3-0.1-0.7,0-1.1-0.1c0.2,0.4,0.3,0.9,0.7,1.1c2.2,1.4,3.9,3.3,5.1,5.7c0.1,0.3,0.3,0.5,0.4,0.8c1.1,2.4,1.4,2.6,4,2.5
				c5.5-0.1,11.1-0.2,16.6-0.3c2.2,0,4.5,0,6.7,0c0.3,0,0.7,0.1,1,0.2c-0.1,0.3-0.2,0.7-0.4,0.9c-3.7,4.6-7.3,9.3-11.1,13.9
				c-3,3.7-6.2,7.2-9.2,10.8c-4.5,5.3-8.9,10.7-13.2,16.1c-4.5,5.6-9.5,10.7-14.6,15.6c-1.4,1.4-1.5,1.4-2.4-0.3
				c-2.5-5.1-5.2-10.2-7.5-15.3c-2.6-5.5-4.9-11.2-7.3-16.8c-0.6-1.5-1.2-3-1.6-4.6c-0.3-1-0.7-1.5-1.7-1.5c-0.2,0-0.4-0.2-0.7-0.2
				c-2.8-0.6-2.6-0.6-2.5-3.3c0.1-2.4-0.9-4.7-2.9-6.3c-2.4-1.9-4.8-3.8-7.9-4.5c-0.3-0.1-0.6-0.3-0.9-0.5c0.3-0.2,0.7-0.5,1-0.5
				c3-0.3,5.9-0.3,8.6,1.1c0.2,0.1,0.3,0.2,0.5,0.2c0.5,0.2,1,0.3,1.5,0.4c0-0.5,0-0.9-0.1-1.4c-1.3-5-2.6-10.1-3.8-15.1
				c-0.9-3.8-1.8-7.7-2.6-11.5c-0.3-1.2-0.7-1.8-2-1.8c-0.9,0-1.8,0-2.7-0.1c-1.5-0.1-1.7-0.4-1.3-1.8c0.6-1.8,1.4-3.5,2-5.2
				c1.4-3.7,2.9-7.4,4.3-11.1c0.5-1.5,0.5-1.6-1-1.5c-1.3,0-2.6,0.3-3.9,0.3c-1.6,0.1-1.9-0.3-1.3-1.8c1.3-3,2.7-5.9,4.1-8.8
				c1-2.1,1.9-4.1,2.8-6.2c0.6-1.5,0.4-1.7-1.3-1.6c-0.5,0-1,0.1-1.4,0c-1.6-0.1-2-0.6-1.4-2c0.7-1.8,1.4-3.6,2.2-5.3
				c3.1-6.3,6.3-12.7,9.5-19c0.2-0.4,0.8-0.6,1.1-1c0.3,0.4,0.6,0.7,0.8,1.1c2.2,7.9,4.4,15.8,6.6,23.7c0.3,0.9,0.5,1.8,0.8,2.8
				c0.3,0.9-0.2,1.3-1,1.2c-1,0-2.1,0-3.1-0.2c-0.9-0.1-1,0.3-0.7,0.9c0.7,1.4,1.5,2.8,2.2,4.1c1.8,3.4,3.7,6.7,5.5,10.1
				c0.7,1.3,0.5,1.5-1,1.6c-1.1,0-2.2,0.1-3.3,0.2c0.5,0.9,1.1,1.9,1.6,2.8c0.9,1.5,1.8,3,2.7,4.5c0.1,0.2,0.4,0.4,0.6,0.6
				c0.2-0.3,0.4-0.5,0.5-0.8c1.7-5.7,3.3-11.4,5-17.1c1.2-4.1,2.4-8.2,3.7-12.2c0.9-2.8,0.8-2.9-2.2-2.6c-2,0.2-4,0.1-5.9,0.1
				c-1.2,0-1.3-0.4-0.8-1.4c2.4-4.6,4.7-9.2,7-13.8c2-3.8,4-7.6,6-11.5c0.7-1.4,0.6-1.6-1-1.6c-1.5,0-3,0-4.5,0
				c-1.6,0-1.8-0.3-1.1-1.8c2.6-5.3,5.2-10.6,7.8-15.8c2.7-5.4,5.4-10.7,8.1-16.1c0.5-0.9,0.9-1.8,1.4-2.7c0.2-0.3,0.6-0.5,0.9-0.8
				c0.2,0.3,0.6,0.6,0.7,1c0.7,2.6,1.4,5.2,2.1,7.8c1.7,6.4,3.3,12.7,5,19.1c0.7,2.7,1.5,5.4,2.2,8.2c0.5,1.8,0.2,2.2-1.6,1.9
				c-3.4-0.5-3.6-0.3-2.5,2.9c2.5,6.9,5.1,13.7,7.6,20.6c1.1,3.1,1.4,3.6-2.2,3.5c-0.8,0-1.6,0-2.3,0c-2.2,0-2.3,0.1-1.5,2.3
				c1.1,3,2.2,6,3.3,8.9c3.3,9.2,6.6,18.4,10,27.6c0.1,0.3,0.3,0.6,0.5,0.9c0.3-0.3,0.6-0.5,0.8-0.9c2.7-5.3,5.4-10.6,8.1-15.9
				c0.5-1.1,0.2-1.4-0.9-1.4c-1.1,0-2.2,0-3.2,0c-1.6-0.1-1.8-0.3-1.2-1.7c3-7.2,6-14.4,9-21.6c0.7-1.6,0.5-1.9-1.2-1.8
				c-1.1,0-2.3,0-3.4-0.2c-1.2-0.2-0.6-1-0.3-1.5c1.6-2.7,3.3-5.5,4.9-8.2c2.3-3.8,4.6-7.6,6.9-11.4c0.2-0.4,0.7-0.6,1-0.9
				c0.3,0.3,0.6,0.6,0.8,1c3.4,6.8,6.7,13.5,10.1,20.3c0.3,0.6,0.4,1.2,0.6,1.8c-0.6,0-1.3,0-1.9,0c-1.1-0.1-2.1-0.2-3.2-0.3
				c-0.9-0.1-1,0.3-0.6,1c1.9,4,3.7,7.9,5.6,11.9c0.9,2,1.8,3.9,2.7,5.9c0.4,0.9,0.8,1.1,1.4,0.1c1.5-2.8,3.1-5.6,4.6-8.3
				c1.3-2.4,2.7-4.8,4-7.2c0.7-1.3,0.7-1.3-0.8-1.6c-0.9-0.1-1.9-0.2-2.9-0.3c-1.5-0.3-1.7-0.6-1.1-2.1c1.7-4.1,3.5-8.3,5.3-12.4
				c1-2.3,1.9-4.5,2.9-6.8c0.5-1.3,0.3-1.6-1.1-1.7c-0.1,0-0.2,0-0.4,0c-1-0.1-2.1-0.2-3.1-0.3c0.5-1,0.9-1.9,1.4-2.9
				c2.6-5.2,5.3-10.4,8-15.5c0.4-0.7,1.1-1.3,1.7-1.9c0.5,0.7,1.1,1.3,1.5,2.1c2.7,6.1,5.4,12.1,8.1,18.2c0.8,1.8,0.6,2.1-1.4,2
				c-1,0-1.9-0.1-2.8-0.3c-1.3-0.2-1.3,0.4-0.8,1.3c1.2,2.3,2.4,4.7,3.6,7c1.7,3.3,3.3,6.7,4.9,10c0.4,0.7,0.5,1-0.6,0.9
				c-3.2-0.3-6.4-0.3-9.5-0.6c-1.3-0.1-1.9,0.2-2.3,1.6c-2.3,7.6-4.4,15.3-7,22.8c-2.2,6.4-4.9,12.7-7.4,19.1
				c-2.3,5.9-5.4,11.5-8.7,16.9c-0.6,1-1,2.1-1.5,3c-2.1,3.6-4.1,7.3-6.4,10.8c-3.7,5.6-7.7,11.1-11.5,16.7c-2.4,3.5-4.7,7-7.1,10.4
				c-1.4,2-2.9,3.9-4.4,5.9c-4.1,5.6-8,11.2-12.2,16.7c-3.6,4.8-7.6,9.3-11.4,13.9c-2.8,3.4-5.5,6.8-8.3,10.2
				c-1.5,1.8-3.2,3.5-4.8,5.2c-1.3,1.4-1.3,1.6,0.5,2.2c6.9,2.1,13.8,4.2,20.8,6.4c7.1,2.2,14.2,4.4,21.2,6.6
				c7.6,2.4,15.3,4.8,22.9,7.2c8.6,2.7,17.1,5.3,25.7,8c0.8,0.2,1.6,0.5,2.4,0.7c0.2,0,0.3,0.2,0.4,0.3c-0.2,0-0.4,0-0.5,0
				c-2.8-0.4-5.6-0.6-8.3-1.2c-7.5-1.6-15-3.4-22.5-5.2c-7.3-1.7-14.6-3.5-21.9-5.3c-2-0.5-2.1-0.3-1.5,1.7c0.9,2.9,1.7,5.7,2.6,8.6
				c0.3,0.8,0,1-0.7,0.9c-1.5-0.2-3-0.3-4.4-0.6c-0.4-0.1-1-0.7-1.1-1.2c-1.2-3.5-2.2-7.1-3.4-10.6c-0.1-0.3-0.5-0.7-0.8-0.8
				c-1.2-0.3-2.5-0.5-3.7-0.9c-0.8-0.2-0.9,0.1-0.7,0.7c0.4,1.3,0.8,2.6,1.3,3.9c1.5,4.2,3.1,8.3,4.6,12.5c0.5,1.3,0.3,1.5-1,1.4
				c-2.6-0.2-5.2-0.5-7.8-0.8c-0.9-0.1-1.6-0.5-2-1.5c-1.6-4.8-3.3-9.5-5-14.2c-0.2-0.7-0.7-1.3-0.8-2c-0.3-2.5-2-3.3-4.2-3.7
				c-3.6-0.7-7.3-1.5-10.9-2.3c-2.6-0.6-5.3-1.2-7.9-1.6c-0.5-0.1-1.3,0.2-1.7,0.6c-2.2,2-4.2,4.1-6.4,6.1c-2.5,2.3-4.9,4.5-7.5,6.7
				c-2.6,2.2-5.2,4.4-7.8,6.6c-0.8,0.7-1.6,1.5-2.5,2c-1.1,0.7-1.1,1.7-0.9,2.8c1,5,2,10.1,3,15.1c0.1,0.4-0.3,1.1-0.6,1.2
				c-1,0.5-2.1,0.8-3.2,1.1c-1.1,0.3-1.9,0-2.3-1.3c-1.2-3.8-2.6-7.4-3.9-11.2c-0.4-1.1-0.9-1.4-1.9-0.7c-0.6,0.4-1.3,0.7-2,0.7
				c-0.5,0.1-1.2-0.2-1.5-0.5c-0.3-0.4-0.3-1.2-0.1-1.6c0.7-1.1,1.4-2.1,2.3-3c0.8-0.8,0.8-1.5,0.4-2.4c-0.8-1.7-1.4-3.5-2.3-5.3
				c-0.5-0.9-0.4-1.5,0.5-2.1c2.6-1.6,5.2-3.3,7.8-4.8c1.5-0.9,2-0.6,2.3,1.1c0.2,1.2,0.2,2.4,0.3,3.6c0,0.9,0.3,1.3,1.2,0.6
				c1.2-0.9,2.5-1.7,3.5-2.7c2.9-2.8,5.8-5.5,8.6-8.4c2.5-2.5,4.8-5.2,7.2-7.8c2.7-3,5.5-6,8.1-9.1c7-8.6,14-17.3,20.9-26.1
				c4.2-5.4,8.3-11,12.3-16.6c6.2-8.8,12.3-17.7,18.6-26.4c5.8-8.1,10.9-16.6,15.3-25.5c0.3-0.5,0.2-1.2,0.3-1.8
				c-0.4,0.4-1,0.8-1.3,1.3c-2.9,4.4-5.7,8.7-8.5,13.1c-0.5,0.8-1.2,1.2-2.2,1.2c-4.8-0.1-9.5-0.1-14.3,0c-1.2,0-1.8-0.4-1.5-1.6
				c0.7-3.4,1.8-6.7,3.7-9.6c0.3-0.5,0.9-0.9,1.4-1.4c0.2-0.2,0.4-0.5,0.6-0.8c-0.3-0.2-0.6-0.5-0.9-0.5c-0.8,0.1-1.6,0.3-2.3,0.6
				c-3,1.6-4.7,4.4-6.3,7.2c-0.5,0.9-1,1.9-1.5,2.9c-0.1,0.2-0.2,0.4-0.3,0.6c-0.1-0.2-0.3-0.4-0.3-0.6
				C139.7,460.7,139.5,458.8,139.3,457.5z M89,474c-0.5,2,0.5,3.8,2.3,5.3c0.6,0.5,1.2,1.2,1.7,1.8c1,1.2,1.1,1.2,2.4,0.1
				c1.2-1,2.4-2,3.7-2.8c1.9-1.2,3.9-2.3,5.9-3.5c0.4-0.2,0.6-0.6,0.9-1c-0.4-0.2-0.9-0.6-1.3-0.7c-2.6-0.2-5.2,0-7.4,1.5
				c-0.2,0.1-0.4,0.1-0.6,0.2c0.1-0.2,0.1-0.5,0.2-0.7c1.4-1.7,2.9-3.4,4.3-5.1c0.3-0.4,0.6-0.8,0.8-1.2c-0.6-0.1-1.2-0.5-1.7-0.4
				c-2.6,0.7-4.8,2-6.6,4.1c-0.2,0.2-0.5,0.4-0.7,0.7c-0.1-0.3-0.2-0.7-0.2-1c-0.2-2.3,0.4-4.4,1.6-6.3c0.4-0.7,0.9-1.2,1.3-1.9
				c0.1-0.2,0.1-0.5,0.2-0.8c-0.3,0-0.6-0.2-0.8-0.1c-1.3,0.5-2.6,1.1-3.4,2.5C89.7,467.5,88.8,470.4,89,474z"/>
			<path class="st2" d="M569.4,282.3c0.4-1.2-1.4-3.9-2.5-4.4c-2.4-1-4.7-2.2-6.2-4.6c-0.7-1.1-1.9-1.7-2.9-2.6
				c-0.3-0.2-0.7-0.4-0.8-0.7c-1.1-2.3-3.2-3.8-4.9-5.6c-0.4-0.5-1.1-0.7-1.6-1.1c-0.3-0.2-0.8-0.5-0.9-0.8
				c-0.7-2.3-2.9-3.1-4.4-4.5c-0.6-0.6-1.4-0.9-1.3-1.9c0-0.2-0.1-0.4-0.2-0.5c-0.3-0.4-0.7-0.8-1-1.1c0.6,0.2,1.3,0.3,1.9,0.6
				c9.9,3.7,19.7,7.5,29.6,11.2c10.9,4.1,21.8,8.1,32.7,12.1c2.1,0.8,4.1,1.6,6.2,2.4c1.5,0.5,2.4,1.5,2.8,2.9
				c2.2,7,4.8,13.9,6.2,21.2c1.2,5.9,2.7,11.7,3.8,17.5c0.8,4.3,1.2,8.6,1.8,13c0,0.2,0,0.3,0,0.5c-0.2-0.1-0.4-0.2-0.6-0.3
				c-2.2-1.1-4-2.6-5.7-4.2c-0.9-0.9-2.3-1.3-2.9-2.7c-0.2-0.6-0.6-1.1-0.8-1.7c-0.7-2.2-1.6-2.9-3.9-3.2c-1.4-0.2-2.8-0.4-3.2-2.1
				c-0.1-0.4-0.5-1-0.9-1.1c-2.2-0.6-2.8-2.9-4.4-4.1c-1.4-1.1-2.4-2.8-3.6-4.2c-0.2-0.2-0.3-0.5-0.5-0.5c-2.9-0.8-3.6-3.8-5.6-5.5
				c-1.4-1.2-2.5-2.4-3.3-4c-0.2-0.4-0.8-0.5-1.2-0.8c-0.7-0.5-1.5-0.9-2.2-1.4c-0.6-0.3-1.2-0.8-1.9-0.9c-1.1-0.2-1.7-0.8-1.7-1.9
				c0-1.6-0.8-2.6-2.2-3.2c-1.2-0.5-2-1.2-2.3-2.5c-0.4-1.4-1.4-2.2-2.9-2.2c-1.1,0-1.5-0.6-1.9-1.5c-0.4-0.8-1.1-1.5-1.9-2
				c-1.2-0.8-2.5-1.4-3.7-2.2C569.8,283.4,569.6,282.8,569.4,282.3z"/>
			<path class="st2" d="M368.3,592.8c1.4-0.8,1.6-0.7,2.2,0.9c1.2,3.4,2.4,6.8,3.6,10.2c0.2,0.6,0.5,1.3,0.9,1.8
				c0.8,1,0.7,1.6-0.4,2.3c-3.9,2.5-8.1,4.2-12.6,5.1c-7.2,1.5-13.5,0.1-20.6-2.4c-2.1-0.8-3.9-1.5-6-2.9c-1.4-0.9-1.2-1.9-0.8-2.9
				c1.8-4.7,3.7-10,5.4-14.8c0.4-0.9,0.9-1.4,2-1.5c1.6-0.2,3.2-1,3.2-1s0-1,0-1.6c-0.2-3.1-0.8-6-1.2-9c-0.8-5.4-1-7.9-1.8-13.2
				c-0.1-0.6-0.5-3.3-0.5-3.3s-2.8,0-4.9-1.1c-1.4-0.7-3.7-2.8-3.7-2.8s1.3-1.9,1.8-2.3c2.1-2.3,3-3.2,5.4-4.5
				c2.2-1.3,2.9-1.1,2.9-1.1s0.3-1.8,0.4-2.4c0.1-1,0.2-1.9,0.1-2.9c-0.2-2,0.9-3.1,2.5-4c4.6-2.8,9.3-2.3,14-0.3
				c1.7,0.8,3,2.2,2.9,4.4c0,0.8,0.1,1.7,0,2.5c0,0.7,0.1,2.6,0.1,2.6s1.8,0.3,3.8,1.3c3.1,1.6,4.1,2.8,6.6,5.5
				c0.5,0.5,0.8,1.3,0.8,1.3s-0.9,1.4-2.8,2.5c-1.9,1-3.8,1.4-3.8,1.4s-0.1,1.4-0.1,1.8c-0.4,3.8-0.7,7.7-1,11.5
				c-0.4,4.4-0.7,8.3-1,12.7c-0.1,0.8,0,2.9,0,2.9s-0.4,0.7-1,1.1c-2.3,1.6-4.8,2.4-7.8,2.6c-1.1,0.1-3.3-0.3-3.3,0.2
				c0,0.4,0.6,0.6,1,0.6c1.5,0.5,3.8,0.8,5.7,0.8C362.1,594.9,365.8,594.1,368.3,592.8z M351.9,565.7c0.2-2.1-0.1-2.5-2.2-2.9
				c-0.7-0.2-1.4-0.3-2.1-0.5c-1.8-0.4-2.3,0-2.1,1.9c0.6,5.7,1.2,10.6,1.8,16.3c0.1,1.2,0.2,2.4,0.5,3.6c0.2,1.1,2,2,3.5,1.7
				c1.4-0.2,1.2-1.3,1.2-2.2c-0.1-3.2-0.3-6.5-0.5-9.7C351.8,571.2,351.9,566,351.9,565.7z M363.1,565.7c0.4-3.3-0.3-3.9-3.9-3.5
				c-1.7,0.2-2,0.6-2.2,2.3c0,0.5,0,1.1,0,1.6c0.1,3,0.3,6,0.3,9c0,2.8-0.3,5.5-0.4,8.2c-0.1,1.1-0.3,2.2,1.1,2.7
				c1.7,0.6,3.8-0.6,3.9-2.4C362.2,580.4,362.8,568.5,363.1,565.7z"/>
			<path class="st2" d="M368.1,663.6c-1.6,0.3-3.3,0.7-4.9,0.9c-2.4,0.3-4.9,0.7-7.3,0.9c-2.5,0.2-5,0.4-7.5,0.5
				c-2.8,0.1-5.6,0.7-8.3-0.5c-2.7,1-5.1-1.1-7.7-0.8c-0.1,0-0.2,0-0.4,0c-3.4-1.2-6.8-2.4-10.2-3.6c-1.2-0.4-2.5-0.8-3.7-1.2
				c-0.3-0.1-0.6-0.1-0.9-0.3c-3.6-1.5-7.2-2.9-10.7-4.6c-2.6-1.3-5.1-2.9-7.6-4.4c-2.5-1.4-5-2.7-7.4-4.3c-1.3-0.9-2.4-2.3-3.5-3.6
				c-0.3-0.4-0.4-1.2-0.2-1.6c1.1-2.2,2.3-4.3,3.4-6.5c0.4-0.7,0.6-0.7,1.3-0.2c2.7,2,5.4,3.9,8.1,5.8c1.8,1.3,3.7,2.5,5.7,3.5
				c2.1,1.1,4.3,1.9,6.5,2.9c2.1,0.9,4.1,2,6.2,2.7c5,1.6,9.8,3.9,15.1,4.5c2.4,0.2,4.9,0.2,7.3,0.4c2.1,0.2,4.1,0.6,6.2,0.7
				c2.9,0.2,5.8,0.4,8.7,0.4c4.1-0.1,8.3-0.3,12.4-0.8c1.9-0.2,3.8-0.9,5.7-1.5c1.5-0.4,2.9-0.8,4.4-1.4c1.9-0.7,3.9-1.5,5.8-2.4
				c1.1-0.5,2-1.5,3.1-2.1c1.8-1.2,3.7-2.3,5.5-3.5c3-2,6.1-3.8,8.9-6c2-1.6,3.5-3.7,5.2-5.6c0.9-1,1.8-2,2.7-3.1
				c1.5-2,3.1-3.9,4.5-6c2-2.9,3.9-5.9,5.8-9c1.1-1.7,2.2-3.4,3-5.3c1.2-2.6,2.2-5.4,3.2-8.1c0.1-0.4,0.3-0.7,0.5-1.1
				c0.3,0.2,0.7,0.4,0.9,0.7c2.1,2.3,4.1,4.7,6.1,7.1c0.4,0.5,0.6,1.4,0.5,2c-0.5,1.9-1.2,3.8-1.9,5.6c-1.3,3.3-3.4,6.2-5.7,8.9
				c-1.5,1.8-2.6,3.9-4,5.9c-0.5,0.7-0.9,1.5-1.5,2c-4.2,3.9-7.9,8.4-12.8,11.7c-2.5,1.7-4.7,3.9-7.2,5.7c-1.7,1.2-3.5,2.2-5.3,3.2
				c-1.5,0.9-3.2,1.6-4.7,2.6c-3.7,2.4-7.8,4-11.9,5.5c-3.3,1.2-6.7,2.2-10,3.2c-0.5,0.2-1,0.2-1.5,0.3
				C368.1,663.7,368.1,663.6,368.1,663.6z"/>
			<path class="st2" d="M351.8,649.2c-4.7-0.7-9.4-1.2-14-2.2c-5.5-1.2-10.9-2.6-16.3-4.1c-2.7-0.8-5.2-2.1-7.7-3.3
				c-5.6-2.8-10.5-6.7-15.4-10.5c-4-3.2-3.3-1.8-1.3-6.2c0.2-0.4,0.4-0.7,0.6-1.1c0.7-1.3,1.4-1.3,2.5-0.2c2,1.9,4,3.8,6.2,5.4
				c1.9,1.4,4.2,2,6.1,3.5c1.9,1.5,4.4,1.7,6.4,3.1c0.5,0.4,1.2,0.4,1.9,0.5c0.5,0.1,1.3,0.1,1.5,0.4c1.1,1.5,3,1.1,4.4,2
				c1.4,0.8,2.9,1.4,4.4,2c1.3,0.5,2.7,0.7,4,1c1.1,0.3,2.3,0.7,3.4,1c0.4,0.1,0.9,0.1,1.4,0.2c1.2,0.3,2.3,0.5,3.5,0.8
				c0.9,0.2,1.8,0.8,2.7,0.8c2,0.1,4.1,0.1,6.1-0.1c1-0.1,1.9-0.7,3-0.7c2.8-0.1,5.6-0.8,8.4-1.2c1.4-0.2,2.9-0.2,4.2-0.5
				c5.5-1.4,10.8-3.4,15.8-6.1c1.2-0.7,2.5-1.5,3.4-2.5c1.7-1.9,4.2-2.7,5.9-4.9c1.6-2.1,4.1-3.6,6.2-5.3c0.6-0.5,1.2-1.2,1.6-1.9
				c1.7-2.9,3.3-5.9,5-8.9c1-1.7,2-3.4,3-5.1c0.1-0.2,0.2-0.3,0.2-0.5c0.8-3.1,2.4-6,2.6-9.3c0-0.7,0.5-1.3,0.7-1.9
				c0.1-0.4,0.3-0.8,0.4-1.1c0.3-2,0.6-4,1-6c0.1-0.5,0.5-0.9,0.7-1.4c0.4,0.3,0.8,0.6,1.1,0.9c1.5,1.6,3,3.3,4.4,5
				c0.3,0.4,0.5,1.2,0.4,1.7c-1.5,8.4-4.8,16-9.2,23.2c-2.8,4.5-6.6,8.1-10,12c-6.6,7.7-15.2,12.3-24.4,16.1
				c-5.9,2.4-11.9,4-18.1,4.9c-2.1,0.3-4.3,0.3-6.5,0.4C351.8,649.1,351.8,649.2,351.8,649.2z"/>
			<path class="st2" d="M411.2,297c0.5,0.3,0.9,0.5,1.3,0.7c6.3,4.1,12.6,8.1,18.9,12.2c7.8,5,15.7,10,23.5,15.1
				c2.1,1.4,4.2,2.7,6.4,4.1c0.8,0.5,1.1,1,0.3,1.8c-2.9,3.3-5.6,6.7-8.5,10c-4,4.7-8.1,9.3-12.2,14c-2.7,3.1-5.4,6.1-8.1,9.2
				c-0.2,0.2-0.7,0.1-1,0.1c-0.1,0-0.2-0.2-0.4-0.4c-2-2-2.1-2-0.2-4.2c2.4-2.7,4.8-5.4,7.2-8.1c0.5-0.6,0.5-0.9,0.1-1.6
				c-0.9-1.5-2.3-2.9-1.3-4.9c0-0.1,0.1-0.3,0-0.4c-0.8-2.1-1.4-4.3-2.3-6.4c-0.6-1.5-1.6-2.8-2.5-4.1c-0.6-0.9-1.2-1.8-2.4-1.9
				c-0.3,0-0.7-0.1-0.8-0.3c-0.9-2.1-3.2-3.5-2.9-6.3c0.1-1.1-0.7-2.4-1.3-3.5c-0.6-1.3-1.4-2.5-2.3-3.6c-1-1.3-1.8-2.5-1.7-4.2
				c0-0.6-0.6-1.3-1.1-1.8c-1.8-1.6-3.3-3.3-4.2-5.5c-0.5-1.2-1-2.6-1-4c-0.1-1.7-0.8-2.6-2.1-3.5c-0.7-0.4-1.1-1.2-1.6-1.8
				C410.8,297.5,411.1,297.2,411.2,297z"/>
			<path class="st2" d="M322.8,597c3,0,5.9,0.4,8.8,0.7c1.4,0.1,1.4,0.8,0.9,1.8c-0.9,2-1.7,4.1-2.6,6.1c-0.4,0.8-0.4,1.3,0.4,1.8
				c1.3,1.2,2,1.7,3.4,2.7c1.4,1,3.5,2.1,4.8,3c0.4,0.3,1.2,0.7,1.1,1c-0.1,0.3-1,0.3-1.5,0.3c-5.8,0-11.5-0.4-17.2-1.5
				c-3.8-0.7-7.5-1.7-11-3.4c-1.7-0.9-3.4-2-4.9-3.2c0.5-1.2,1-3.1,1.4-4.1c0.8-1.8,1.3-3.3,1.3-3.3s1.4-0.6,3.2-0.8
				C314.8,597.6,318.8,597,322.8,597z"/>
			<path class="st2" d="M222.2,389.5c-0.1,0-0.2,0-0.4,0c-2.2,0-2.5-0.5-1.4-2.4c3.2-5.5,6.4-11,9.5-16.5c0.2-0.3,0.5-0.6,0.8-0.9
				c0.3,0.3,0.7,0.6,0.9,1c2.3,4.7,4.5,9.4,6.8,14.1c0.7,1.4,1.3,2.8,2,4.2c0.5,1.2,0.2,1.6-1,1.5c-1,0-1.9-0.2-2.9-0.3
				c-1.1-0.1-1.4,0.3-1,1.4c0.9,2.3,1.7,4.7,2.6,7.1c0.5,1.4,0.5,1.4-0.9,1.3c-4.8-0.4-9.7-0.7-14.5-1c-1.8-0.1-1.9-0.1-1.2-1.8
				c0.7-1.8,1.5-3.5,2.3-5.3C224.7,389.6,224.6,389.5,222.2,389.5z"/>
			<path class="st2" d="M197.7,681.2c-3.1-0.4-6.8-1.6-9.9-4.2c-0.3-0.3-0.4-0.8-0.6-1.2c0.4,0,0.8,0,1.2,0.1
				c4.2,0.1,8.5,0.8,12.5-1.2c2.1-1,3.4-2.5,3.9-4.8c0.1-0.4-0.1-0.9-0.2-1.3c-0.4,0.1-0.8,0.1-1.1,0.3c-1,0.7-1.2,0.2-1.1-0.7
				c0.2-1.2,0.3-2.4,0.8-3.4c3-5.6,7.1-10.1,13.1-12.5c1.2-0.5,2.4-0.7,3.6-1c0.2-0.1,0.4,0.1,0.6,0.1c-0.2,0.2-0.3,0.3-0.5,0.5
				c-3.6,2.5-7.1,4.9-9.6,8.6c-0.7,1-1.2,2.1-1.7,3.1c-0.1,0.2,0,0.5,0,0.8c0.2-0.1,0.5-0.2,0.7-0.4c1.6-1.2,3.2-2.4,4.8-3.6
				c0.3-0.2,0.6-0.4,1-0.5c1.1-0.3,2.2-0.5,3.3-0.7c-0.7,0.7-1.5,1.3-2.2,2c-1.3,1.3-2.6,2.5-3.8,3.8c-0.7,0.7-0.4,1.2,0.6,1.2
				c1.1,0,2.2-0.1,3.2,0.2c2.9,0.7,5.2,2.3,6.9,4.8c0.2,0.3,0.2,0.6,0.2,1c-0.3-0.1-0.7-0.1-1-0.3c-3.6-2.3-7.3-2.3-11.2-0.8
				c-0.9,0.4-1.3,0.8-1,1.9c0.7,2.6-0.6,5.1-3.1,6.4C204.7,680.4,201.4,681.2,197.7,681.2z"/>
			<path class="st2" d="M350.5,485.6c2.1,0.3,5.1,0.7,8.2,1.3c0.6,0.1,1.3,0.6,1.6,1.1c1.5,3,2.9,6,4.4,9c0.4,0.9,0.2,1.3-0.8,1
				c-5.6-1.6-11.4-1.1-17.1-1.9c-2.3-0.3-4.8,0.2-7.1,0.6c-1,0.1-1.4,0.1-1.1-1c0.6-2.9,1.2-5.7,1.9-8.6c0.1-0.4,0.7-0.9,1.2-1
				C344.1,486,346.8,485.8,350.5,485.6z"/>
			<path class="st2" d="M342.2,501.7c8.3,0.1,16.4,1,24.4,3.4c1.2,0.4,2.1,0.9,2.5,2.2c0.4,1.3,1,2.4,1.5,3.6
				c0.1,0.2,0.1,0.5,0.2,0.8c-0.3,0-0.6,0.1-0.8,0.1c-2.6-0.7-5.2-1.5-7.8-2.3c-0.4-0.1-0.8-0.2-1.2-0.1c-2.9,0.3-5.6-0.5-8.5-0.8
				c-2.6-0.3-5.1-1-7.7-1.2c-1.8-0.1-3.7,0.3-5.5,0.6c-0.4,0.1-0.8,0.2-1.2,0.3c-1.7,0.3-1.9,0-1.7-1.6c0.1-0.5,0.2-0.9,0.3-1.4
				c0.6-3.4,0.6-3.4,4-3.5C341.1,501.7,341.6,501.7,342.2,501.7z"/>
			<path class="st2" d="M78.2,605c2.7-0.8,5.5-1.7,8.2-2.5c0.4-0.1,0.7-0.1,1.1-0.2c-0.1,0.3-0.1,0.7-0.3,1c-2.4,3-5.3,5.4-9.3,6.1
				c-1.7,0.3-3.6,0.2-5.4,0.1c-2.4-0.2-4-1.7-4.3-4.1c-0.1-1.1-0.6-1.4-1.6-1.5c-3.2-0.2-6.1,0.7-8.4,3c-0.2,0.2-0.5,0.4-0.8,0.5
				c0-0.3,0-0.7,0.1-1c0.9-2.2,2.3-4.1,4.6-5.1c0.4-0.2,0.9-0.3,1.4-0.5c0.5-0.2,0.8-0.6,1.3-0.9c-0.3-0.3-0.6-0.8-1-1
				c-1.4-0.8-2.8-1.4-4.2-2.1c-0.3-0.2-0.6-0.3-0.9-0.5c0.4-0.1,0.8-0.4,1.1-0.3c2,0.4,4,0.9,6.1,1.5c0.3,0.1,0.5,0.4,0.8,0.5
				c0.3,0.1,0.6,0.1,0.9,0.1c-0.1-0.3-0.2-0.6-0.4-0.8c-1.8-2.1-4-3.8-6.7-4.8c-1.6-0.6-3.1-1.2-4.7-1.8c-0.2-0.1-0.4-0.2-0.5-0.4
				c0.2-0.1,0.4-0.2,0.6-0.2c4.3-0.3,8.1,1.1,11.6,3.3c1.5,0.9,2.8,2.1,4,3.3c0.7,0.7,1.1,1.7,1.6,2.6c0.1,0.1-0.2,0.7-0.5,0.8
				c-1.4,0.3-1.6,0.8-0.7,1.9c1.1,1.4,2.5,2.3,4.2,2.5c0.6,0.1,1.2,0.1,1.8,0.1C78.1,604.7,78.2,604.8,78.2,605z"/>
		</g>
	</g>
</g>
</svg>
