<?xml version="1.0" encoding="utf-8"?>
<!-- Generator: Adobe Illustrator 25.2.0, SVG Export Plug-In . SVG Version: 6.00 Build 0)  -->
<svg version="1.1" id="Layer_1" xmlns="http://www.w3.org/2000/svg" xmlns:xlink="http://www.w3.org/1999/xlink" x="0px" y="0px"
	 viewBox="0 0 500 500" style="enable-background:new 0 0 500 500;" xml:space="preserve">
<g>
	<path d="M459.99,257.8c-0.03,117.5-95.33,212.79-212.76,212.73C129.69,470.47,34.5,375.27,34.52,257.77
		c0.02-117.52,95.26-212.76,212.73-212.73C364.77,45.07,460.02,140.34,459.99,257.8z M107.69,210.51c-0.11,0.02-0.22,0.04-0.33,0.06
		c0.17,1.15,0.26,2.32,0.51,3.45c2.19,9.88,7.14,18.15,14.64,24.9c2.2,1.98,4.67,3.61,7.5,4.58c2.16,0.74,4.33,1.04,6.49,0
		c0.25-0.12,0.53-0.19,0.8-0.21c0.83-0.08,1.56,0.35,1.9,1.07c0.36,0.75,0.19,1.44-0.33,2.01c-0.29,0.31-0.69,0.57-1.09,0.73
		c-1.72,0.7-3.51,1.03-5.38,0.8c-4.17-0.52-7.71-2.44-10.95-4.98c-4.76-3.72-8.48-8.33-11.54-13.5c-0.3-0.51-0.62-1-1.12-1.79
		c0,0.85-0.06,1.33,0.01,1.78c0.52,3.13,0.93,6.28,1.62,9.36c1.33,5.89,3.41,11.52,6.59,16.69c1.93,3.15,4.2,6.03,7.19,8.27
		c2.32,1.74,4.86,2.91,7.79,3.09c2.47,0.15,4.72-0.52,6.86-1.72c1.06-0.59,2.05-0.29,2.61,0.62c0.55,0.9,0.33,2.01-0.68,2.6
		c-2.85,1.67-5.91,2.57-9.24,2.29c-3.36-0.28-6.35-1.56-9.07-3.51c-2.84-2.03-5.16-4.56-7.16-7.41c-2.35-3.34-4.18-6.95-5.68-10.75
		c-0.16-0.42-0.39-0.81-0.59-1.22c-0.26,0.43-0.27,0.75-0.26,1.07c0.2,5.43,1.1,10.73,2.89,15.86c1.26,3.59,2.84,7.02,5.27,9.99
		c2.06,2.51,4.36,4.62,7.96,4.49c1.08-0.04,1.82,0.83,1.87,1.78c0.05,1.03-0.67,1.79-1.87,1.95c-0.33,0.04-0.68,0.1-1,0.03
		c-1.34-0.3-2.74-0.5-4-1.02c-2.31-0.95-4.08-2.67-5.66-4.57c-2.19-2.63-3.79-5.62-5.14-8.75c-0.15-0.35-0.36-0.68-0.54-1.02
		c0.01,9.07,0.11,18.03,0.49,27.22c0.75-0.45,1.22-0.72,1.68-1.02c10.8-6.97,21.6-13.94,32.4-20.91c4.54-2.93,9.07-5.85,13.6-8.79
		c0.49-0.32,1.2-0.5,1.15-1.28c-0.13-2.41-0.29-4.82-0.44-7.23c-0.57,0.45-0.88,0.96-1.2,1.46c-0.88,1.37-1.87,2.64-3.34,3.43
		c-1.16,0.62-2.29,0.47-2.86-0.35c-0.6-0.86-0.33-1.83,0.77-2.72c0.09-0.07,0.18-0.13,0.27-0.2c3.08-2.47,4.17-6,5.1-9.62
		c-0.46,0.34-0.73,0.83-1.12,1.19c-1.18,1.09-2.31,2.26-3.63,3.14c-1.34,0.89-2.67,0.56-3.2-0.49c-0.47-0.94-0.05-1.88,1.3-2.68
		c1.48-0.88,2.57-2.1,3.45-3.56c1.51-2.52,2.31-5.29,2.88-8.14c0.08-0.38,0.09-0.77,0.18-1.54c-0.59,0.75-0.91,1.2-1.28,1.61
		c-0.85,0.96-1.64,1.98-2.61,2.8c-0.55,0.47-1.37,0.79-2.09,0.84c-1.34,0.09-2.1-1.24-1.49-2.43c0.17-0.34,0.48-0.6,0.73-0.9
		c1.29-1.52,2.7-2.96,3.83-4.59c1.67-2.4,1.88-5.21,1.81-8.07c-0.39,0.29-0.59,0.66-0.85,0.98c-0.93,1.17-1.8,2.41-2.86,3.45
		c-0.65,0.64-1.55,1.08-2.42,1.42c-0.96,0.37-2.02-0.15-2.4-0.98c-0.4-0.87-0.1-1.84,0.96-2.35c1.81-0.88,2.9-2.38,3.87-4.02
		c1.63-2.74,2.47-5.71,2.55-8.89c0.03-1.25,0.43-2.26,1.47-3.01c1.34-0.98,2.83-0.43,3.14,1.22c0.08,0.43,0.1,0.89,0.1,1.33
		c0,2.26,0.92,4.16,2.54,5.62c1.22,1.1,2.69,1.94,4.06,2.88c0.55,0.38,1.17,0.66,1.65,1.11c0.56,0.52,0.78,1.21,0.4,1.97
		c-0.37,0.74-1.02,1.02-1.8,0.93c-0.49-0.06-1-0.19-1.43-0.42c-1.07-0.58-2.1-1.24-3.15-1.87c-0.3-0.18-0.6-0.34-1.19-0.68
		c0.67,2.85,1.5,5.23,3.57,6.96c1.41,1.18,2.89,2.26,4.3,3.44c0.54,0.46,1.09,0.99,1.43,1.6c0.65,1.2-0.2,2.48-1.55,2.33
		c-0.63-0.07-1.3-0.37-1.81-0.75c-1.56-1.16-3.05-2.42-4.57-3.63c-0.32-0.26-0.65-0.51-1.12-0.87c-0.12,1.96,0.09,3.61,0.95,5.18
		c1.4,2.55,3.52,4.25,6.12,5.45c0.6,0.28,1.21,0.57,1.73,0.98c0.62,0.48,0.82,1.19,0.51,1.95c-0.28,0.7-0.88,1.02-1.58,1.02
		c-0.49,0-1.03-0.05-1.46-0.26c-1.38-0.71-2.72-1.48-4.06-2.27c-0.5-0.3-0.93-0.73-1.67-1.33c0.31,2.05,0.95,3.56,1.88,4.96
		c0.91,1.36,2.08,2.31,3.82,2.33c0.33,0,0.66,0.08,0.98,0.17c1.17,0.33,1.81,1.08,1.68,1.95c-0.12,0.83-0.85,1.4-1.96,1.5
		c-1.6,0.15-3.1-0.18-4.47-1.04c-0.35-0.22-0.72-0.4-1.31-0.73c0.2,2.94,0.39,5.62,0.59,8.56c1.68-1.08,3.08-1.97,4.48-2.87
		c9.82-6.33,19.63-12.68,29.47-18.99c0.88-0.56,1.3-1.14,1.29-2.26c-0.08-6.73-0.07-13.47-0.09-20.21c0-0.29-0.08-0.59-0.18-1.23
		c-0.45,0.86-0.73,1.39-1,1.92c-1.6,3.15-3.54,6.05-6.07,8.53c-1.6,1.57-3.38,2.89-5.51,3.68c-1.38,0.52-2.8,0.75-4.26,0.53
		c-1.23-0.18-2-1.13-1.87-2.16c0.13-1.05,1.1-1.83,2.33-1.63c1.5,0.25,2.81-0.19,3.94-1c1.43-1.03,2.85-2.17,4-3.5
		c3.65-4.2,5.86-9.15,7.09-14.55c0.53-2.31,0.86-4.65,0.59-7.09c-0.18,0.11-0.31,0.14-0.34,0.21c-0.19,0.4-0.37,0.81-0.54,1.22
		c-1.76,4.19-4.01,8.07-7.06,11.45c-2.11,2.34-4.51,4.3-7.4,5.61c-0.6,0.27-1.26,0.46-1.91,0.51c-0.79,0.06-1.39-0.39-1.65-1.16
		c-0.26-0.75-0.11-1.45,0.49-1.97c0.29-0.25,0.64-0.44,1-0.59c2.65-1.06,4.79-2.8,6.67-4.9c4.2-4.71,6.73-10.3,8.43-16.32
		c0.05-0.19,0.01-0.4,0.01-0.89c-0.48,0.66-0.77,1.12-1.13,1.53c-1.76,2.07-3.44,4.23-5.35,6.17c-1.81,1.83-4,3.24-6.56,3.8
		c-1.17,0.25-2.44,0.26-3.63,0.13c-1.14-0.13-1.79-1.17-1.63-2.15c0.16-0.99,1.1-1.77,2.21-1.55c1.87,0.36,3.46-0.27,4.85-1.29
		c1.52-1.11,2.98-2.35,4.25-3.73c3.5-3.83,5.93-8.32,7.66-13.19c0.53-1.51,0.94-3.06,1.41-4.58c-0.55,0.26-0.8,0.65-1.1,1.02
		c-1.58,1.94-3.09,3.94-4.77,5.78c-1.43,1.57-3.19,2.77-5.17,3.61c-1.36,0.58-2.77,0.84-4.24,0.52c-1.33-0.29-2.04-1.23-1.82-2.36
		c0.2-1.05,1.05-1.58,2.44-1.38c1.06,0.15,2.02-0.04,2.87-0.6c1.11-0.74,2.24-1.48,3.19-2.4c4.01-3.86,6.78-8.5,8.36-13.84
		c0.17-0.56,0.24-1.15,0.35-1.73c-0.94,0.65-1.62,1.44-2.36,2.16c-2.23,2.15-4.7,3.92-7.81,4.57c-1.46,0.31-2.88,0.22-4.23-0.47
		c-1.07-0.55-1.48-1.5-1.12-2.47c0.35-0.96,1.32-1.42,2.47-1.01c1.18,0.43,2.31,0.38,3.4-0.14c4.69-2.21,7.78-5.82,9.26-10.79
		c0.13-0.42,0.22-0.89,0.18-1.32c-0.14-1.32,0.5-2.19,1.43-3.01c0.65-0.57,1.3-0.88,2.11-0.59c0.89,0.32,1.25,1.06,1.28,1.97
		c0.02,0.78,0.05,1.56-0.02,2.34c-0.13,1.49,0.37,2.76,1.29,3.86c2.94,3.5,6.26,6.19,11.31,5.16c1-0.21,1.82,0.41,2.06,1.29
		c0.24,0.89-0.13,1.82-1.05,2.21c-0.7,0.29-1.49,0.47-2.25,0.53c-3.52,0.26-6.51-1.13-9.29-3.12c-0.44-0.31-0.87-0.63-1.48-1.08
		c-0.05,0.55-0.21,0.95-0.11,1.26c0.42,1.26,0.79,2.57,1.43,3.71c1.85,3.26,4.47,5.82,7.67,7.76c1.85,1.12,3.76,2.16,6.12,1.52
		c0.89-0.24,1.78,0.48,2.03,1.36c0.25,0.89-0.13,1.81-1.04,2.2c-0.55,0.24-1.17,0.35-1.77,0.4c-1.83,0.15-3.53-0.38-5.16-1.13
		c-3.13-1.44-5.76-3.57-8.08-6.09c-0.32-0.34-0.66-0.66-1.2-1.22c0,0.71-0.04,1.08,0.01,1.45c0.92,6.78,4.34,12.06,9.74,16.1
		c1.9,1.42,4,2.39,6.54,1.64c0.91-0.27,1.82,0.4,2.1,1.24c0.28,0.85-0.09,1.81-1,2.23c-0.59,0.27-1.27,0.42-1.92,0.5
		c-2.88,0.32-5.35-0.79-7.65-2.34c-2.76-1.85-5-4.24-6.89-6.96c-0.3-0.43-0.63-0.84-0.94-1.26c-0.12,0.04-0.24,0.07-0.36,0.11
		c0.08,1.14-0.03,2.33,0.28,3.4c1.51,5.3,4.14,9.96,8.29,13.65c2.26,2,4.74,3.49,7.99,3.06c1.14-0.15,1.89,0.55,2.04,1.52
		c0.14,0.98-0.41,1.88-1.48,2.1c-0.91,0.19-1.88,0.27-2.81,0.19c-2.32-0.21-4.39-1.18-6.28-2.5c-2.73-1.91-4.91-4.34-6.79-7.07
		c-0.26-0.38-0.57-0.73-0.85-1.09c-0.23,1.21-0.41,2.38-0.08,3.38c1.97,5.89,5.51,10.5,11.24,13.2c1.81,0.85,3.72,1.14,5.68,0.45
		c0.21-0.07,0.43-0.13,0.65-0.15c0.85-0.07,1.59,0.36,1.9,1.07c0.34,0.78,0.13,1.72-0.63,2.22c-0.5,0.33-1.09,0.56-1.67,0.71
		c-3.16,0.81-6.07-0.04-8.83-1.5c-2.9-1.53-5.28-3.69-7.33-6.23c-0.29-0.36-0.62-0.7-1.18-1.32c0.03,7.19-0.01,13.98,0.08,20.98
		c0.56-0.29,0.86-0.41,1.13-0.58c8.46-5.46,16.92-10.93,25.4-16.36c0.81-0.52,1.13-1.09,1.01-2.05c-0.11-0.88-0.05-1.78-0.05-2.67
		c0-24.99,0-49.99,0-74.98c0-0.5-0.04-1.01,0.01-1.5c0.09-0.94-0.26-1.56-1.13-2.01c-5.09-2.62-10.39-5.33-15.81-7.42
		c-2.84-1.1-5.83-2.23-8.83-2.79c-2.84-0.53-4.79,1.54-7.45,2.21c0.84,0.43,1.25,0.71,1.7,0.86c3.31,1.13,6.61,4.2,9.55,6.13
		c2.27,1.5,4.64,3.06,6.33,5.23c1.85,2.37,2.19,5.41,2.21,8.34c0.02,3.64,1.38,6.59,4.04,9.17c5.78,5.59,5.03,14.23,4.47,21.56
		c-0.11,1.41-1.02,2.24-2.09,2.12c-2.55-0.29-1.94-5.81-1.85-7.43c0.24-4.24,0.86-8.06-1.72-11.81c-1.05-1.53-2.43-2.79-3.62-4.2
		c-1.54-1.83-2.45-3.91-2.68-6.29c-0.16-1.66-0.27-3.32-0.4-4.98c-0.29-3.84-2.33-5.62-5.46-7.45c-4.75-2.77-8.53-7.25-13.72-9.07
		c-0.15-0.05-0.31-0.1-0.46-0.07c-0.21,0.04-0.36,0.21-0.49,0.37c-1.74,2.09-3.3,4.25-4.84,6.48c-1.59,2.3-3.85,4.67-5.1,7.16
		c-6.62,8.65-10.88,18.79-17.2,27.67c-1.24,1.75-2.53,3.47-3.78,5.21c-1.42,1.98-2.8,4-4.17,6.02c-1.99,2.93-3.99,5.85-5.98,8.78
		c-1.11,1.62-3.88,7.72-6.18,7c-0.8-0.25-1.31-1-1.3-1.93c0-0.22,0.05-0.44,0.09-0.66c0.3-1.86,0.59-3.73,0.91-5.59
		c0.65-3.81,0.62-7.65,0.53-11.49c-0.06-2.78,0.45-5.43,1.7-7.91c0.67-1.33,0.51-2.58-0.19-3.81c-0.19-0.34-0.42-0.66-0.62-0.99
		c-1.19-1.92-1.58-3.99-1.32-6.23c0.42-3.63,2.28-6.32,5.21-8.36c1.46-1.01,2.98-1.96,4.39-3.04c0.74-0.56,1.41-1.27,1.94-2.03
		c0.92-1.32,1.72-2.73,2.54-4.11c0.74-1.25,0.65-3.32-0.25-4.42c-1.12-1.36-2.31-2.67-3.54-4.1c-1.21,0.7-2.47,1.52-3.8,2.2
		c-3.08,1.56-5.85,3.68-8.2,6.2c-2.55,2.72-4.53,5.84-7.42,8.25c-2,1.66-4.17,3.02-6.02,4.87c-1.82,1.83-3.4,3.86-5.32,5.6
		c-1.91,1.73-4.02,3.12-6.23,4.44c-6.14,3.68-12.17,7.54-18.24,11.33c-3.36,2.09-6.17,5.77-8.51,8.92
		c-4.24,5.71-6.22,12.41-8.59,19.01c-0.12,0.34-0.13,0.71-0.21,1.21c0.49-0.07,0.81-0.1,1.11-0.17c2.64-0.68,4.93-2.05,7-3.76
		c5.43-4.46,9.22-10.06,11.31-16.78c0.39-1.27,0.62-2.59,0.88-3.9c0.15-0.75,0.42-1.39,1.15-1.72c1.79-0.79,3.65,0.29,4,2.21
		c1.47,8.12,6.42,13.37,13.87,16.4c2.15,0.88,4.43,0.97,6.56-0.45c1.01-0.67,2.06-0.37,2.63,0.51c0.56,0.88,0.38,1.93-0.64,2.61
		c-0.87,0.58-1.84,1.06-2.83,1.36c-2.38,0.71-4.74,0.3-7.04-0.48c-3.89-1.32-7.07-3.71-9.88-6.63c-0.32-0.33-0.67-0.64-1.01-0.96
		c-0.11,0.05-0.23,0.1-0.34,0.16c0.33,2.4,0.54,4.83,1.02,7.21c1.11,5.54,3.22,10.65,7.07,14.89c3.99,4.41,8.95,6.68,14.94,6.52
		c0.39-0.01,0.79-0.04,1.16,0.03c0.82,0.14,1.42,0.8,1.49,1.58c0.07,0.8-0.25,1.45-0.97,1.78c-0.49,0.22-1.06,0.32-1.61,0.34
		c-4.95,0.21-9.46-1.14-13.53-3.95c-3.75-2.59-6.5-6.04-8.62-10.03C108.35,211.77,108.02,211.14,107.69,210.51z M395.15,350.43
		c-42.98-27.73-85.72-55.31-128.55-82.94c-0.34,2.13-0.23,162.26,0.11,163.55c0.51-0.04,1.06-0.05,1.6-0.13
		c4.12-0.63,8.27-1.15,12.36-1.93c14.55-2.79,28.53-7.39,41.87-13.84c12.78-6.17,24.65-13.74,35.65-22.74
		c5.35-4.38,10.14-9.32,15.27-13.93c0.29-0.26,0.54-0.57,0.81-0.84c4.11-4,7.94-8.25,11.57-12.7c0.41-0.51,0.93-1.08,1.02-1.68
		c0.19-1.24,0.92-2.12,1.58-3.08C390.61,357.02,392.78,353.86,395.15,350.43z M228.37,266.4c-2.58,1.26-128.15,82.42-129.22,83.5
		c0.61,0.96,1.21,1.97,1.86,2.93c2.3,3.41,4.6,6.83,6.95,10.21c1.43,2.05,2.74,4.24,4.46,6.01c3.95,4.07,7.59,8.41,11.69,12.35
		c5.91,5.67,11.89,11.18,18.55,16c9.68,7,19.77,13.26,30.59,18.33c11.83,5.55,24.12,9.8,36.92,12.44
		c5.44,1.12,10.96,1.86,16.45,2.75c0.41,0.07,0.84,0.01,1.46,0.01c0-0.93,0-1.69,0-2.46c0-28.55-0.01-57.1,0.01-85.65
		c0-5.39,0.26-10.78,0.31-16.16c0.18-19.36,0.01-38.73-0.02-58.1C228.37,267.91,228.37,267.26,228.37,266.4z M420.31,278.98
		c0.12-0.9,0.25-1.67,0.33-2.44c0.82-7.82,1.24-15.66,0.9-23.51c-0.24-5.61-0.8-11.21-1.21-16.81c-0.06-0.78-0.2-1.38-1.17-1.52
		c-4.52-0.64-9.05-1.33-13.61-0.59c-9.17,1.48-18.87,4.78-25.95,11.01c-3.96,3.49-7.58,9.11-6.45,14.61
		c0.51,2.49,1.92,4.73,3.64,6.61c3.13,3.43,7.65,5.89,12.27,5.45c2.05-0.19,4.2-1.08,5.2-2.89c0.86-1.56,0.7-3.47,0.29-5.2
		c-0.27-1.18-0.67-2.36-1.46-3.27c-0.79-0.91-2.07-1.49-3.23-1.17c-1.41,0.39-2.64,1.99-3.99,1.44c-0.74-0.3-1.11-1.21-0.97-2
		c0.14-0.79,0.68-1.46,1.31-1.96c2.19-1.75,5.49-1.69,7.88-0.23c2.39,1.46,3.9,4.1,4.44,6.85c0.65,3.33-0.12,7.06-2.57,9.4
		c-2.19,2.1-5.39,2.82-8.42,2.72c-4.3-0.15-8.53-1.85-11.74-4.72c-6.1-5.46-7.83-14.52-4.25-21.88c2.62-5.4,8.8-9.25,13.93-11.96
		c4.85-2.56,10-4.61,15.36-5.79c5.71-1.25,10.98-0.9,16.74-0.49c0.63,0.04,1.3,0.4,1.94-0.1c-0.03-0.29-0.06-0.57-0.1-0.84
		c-1.05-6.54-2.46-13.01-4.29-19.38c-0.37-1.28-0.8-2.54-1.2-3.81c-1.33-0.36-2.66-0.76-4-1.07c-7.26-1.65-14.26-0.84-20.98,2.33
		c-2.21,1.04-4.46,2.04-6.57,3.26c-2.06,1.19-4.05,2.54-5.95,3.98c-2.97,2.25-5.86,4.61-8.76,6.95c-1.08,0.87-2.19,1.72-3.18,2.7
		c-4.16,4.1-9.33,6.21-14.9,7.36c-3.86,0.79-7.81,1.11-11.72,1.7c-3.96,0.6-7.86,1.44-11.65,2.83c-6.13,2.24-11.11,6.26-16.21,10.11
		c-0.07,0.05-0.07,0.19-0.13,0.38c26.18,16.89,52.39,33.8,78.53,50.67c2.66-2.52,5.17-4.89,7.67-7.25c3.36-3.17,7.21-5.56,11.43-7.4
		C411.55,281.25,415.75,279.84,420.31,278.98z M404.41,182.71c-1.67-6.92-17.61-30.79-28.19-42.32
		c-20.76-22.61-45.66-38.83-74.83-48.44c-11.31-3.72-22.89-6.26-34.74-7.45c-0.42,2.23-0.32,74.41,0.1,75.67
		c6.23-3.74,12.69-6.95,19.64-9.01c7.01-2.08,14.24-2.28,21.46-2.14c1.35-2.01,2.17-5.44,2.06-8.47
		c-0.43-11.28-10.77-19.24-21.76-16.66c-2.63,0.62-5.34,1.19-7.38,3.22c-0.16,0.16-0.44,0.19-1.02,0.41
		c0.42-1.69,0.62-3.13,1.15-4.45c1.68-4.19,4.18-7.86,7.48-10.94c6.76-6.31,14.74-9.34,23.97-8.19c9.43,1.18,16.58,6.15,21.41,14.3
		c6.68,11.27,5.68,25.78-2.37,36.45c-0.35,0.46-0.68,0.94-1.08,1.48c0.46,0.23,0.75,0.39,1.05,0.52c7.6,3.3,15.12,6.79,22.33,10.88
		c2.46,1.4,4.81,2.99,7.21,4.5c1.27,0.8,2.5,1.68,3.81,2.39c2.49,1.36,5.01,2.66,7.56,3.9c1.39,0.68,2.82,1.44,4.32,1.72
		c4.42,0.84,8.86,1.65,13.33,2.12c3.92,0.41,7.89,0.36,11.84,0.49C402.63,182.74,403.5,182.71,404.41,182.71z M408.62,191.42
		c-0.49,0.17-0.81,0.24-1.1,0.38c-11.58,5.76-24.77,7.39-37.55,7.79c-13.1,0.41-26.67,0.35-39.41-3.02
		c-8.26-2.18-15.98-6.02-24.07-8.74c-13.04-4.38-27.13-4-38.9,3.68c-0.82,0.53-1.21,1.14-1.21,2.17
		c-0.01,7.96-0.08,15.91-0.12,23.87c0,0.46,0.09,0.92,0.16,1.61c0.61-0.44,1-0.73,1.39-1.01c8.47-6.16,18-10.84,28.4-12.64
		c6.05-1.05,12.42-0.87,18.14,1.35c4.19,1.63,8.22,4.72,9.2,9.1c0.73,3.27-0.39,6.76-2.43,9.42c-3.21,4.19-8.75,6.46-13.98,5.75
		c-3.11-0.43-6.13-1.91-8.1-4.36s-2.74-5.9-1.68-8.86s4.1-5.18,7.23-4.98c3.13,0.2,5.96,3.06,5.82,6.19
		c-0.06,1.46-1.43,3.16-2.71,2.45c-1.08-0.6-0.85-2.2-1.37-3.32c-0.66-1.42-2.68-1.86-4.03-1.07c-1.35,0.8-1.96,2.52-1.73,4.07
		s1.2,2.91,2.38,3.94c2.75,2.4,6.85,3.14,10.28,1.86c3.42-1.28,6.02-4.54,6.52-8.16c0.18-1.28,0.1-2.63-0.46-3.8
		c-0.77-1.62-2.34-2.69-3.92-3.52c-6.04-3.17-12.56-2.91-19.09-1.9c-9.09,1.41-17.26,5-24.69,10.35c-0.52,0.37-1,0.78-1.65,1.28
		c12.19,7.86,24.19,15.61,36.24,23.39c2.7-1.99,5.33-3.94,7.97-5.88c4.81-3.55,10.12-6.13,15.93-7.39
		c5.47-1.19,11.06-1.13,16.46-2.36c5.55-1.26,10.73-3.93,15.35-7.21c12.25-8.69,22.24-19.59,38.17-20.97
		c3.65-0.31,7.21,0.29,10.77,0.9c0.47,0.08,0.95,0.13,1.74,0.23C411.21,198.32,409.93,194.9,408.62,191.42z M406.88,187.91
		c-0.11-1.12-0.62-1.34-1.41-1.36c-2.61-0.05-5.23-0.22-7.84-0.21c-7.24,0.02-15.21-0.39-22.13-2.69
		c-7.35-2.44-13.89-6.78-20.48-10.73c-7.68-4.61-15.61-8.8-23.75-12.54c-7.22-3.31-14.71-6.3-22.58-7.32
		c-15.29-1.98-28.08,3.99-41.11,11.04c-0.88,0.48-1.2,1.15-1.19,2.16c0.04,6.68,0.02,13.36,0.03,20.04c0,0.41,0.1,0.82,0.16,1.37
		c0.54-0.3,0.93-0.49,1.31-0.71c10.39-5.95,23.15-7.05,34.71-4.45c12.16,2.73,23.19,9.14,35.47,11.5
		c11.17,2.15,22.62,2.03,33.92,1.2c10.61-0.77,21.4-1.34,31.29-5.61C404.49,189.09,405.67,188.48,406.88,187.91z M94.24,174.62
		c0.4-0.25,0.81-0.5,1.21-0.75c6.16-3.89,12.22-7.95,18.52-11.6c3.93-2.28,7.27-5.05,10.21-8.46c1.33-1.55,2.86-2.98,4.51-4.18
		c2.72-1.99,5.15-4.23,7.29-6.83c1.1-1.33,2.16-2.7,3.32-3.97c0.9-0.98,1.8-2.04,2.91-2.73c3.87-2.4,7.8-4.72,11.79-6.92
		c1.08-0.6,2.42-0.87,3.67-0.96c4.76-0.33,9.03,0.97,12.64,4.16c1.59,1.4,3.11,2.87,4.66,4.31c1.21,1.12,2.43,2.22,3.94,3.04
		c0.42-0.58,0.78-1.07,1.13-1.56c1.91-2.74,3.82-5.47,5.73-8.21c1.46-2.1,3.29-3.75,5.64-4.82c1.97-0.89,3.97-1.75,5.86-2.81
		c1.7-0.95,3.42-1.33,5.29-0.92c1.35,0.29,2.69,0.65,4.01,1.07c1.69,0.54,3.33,1.25,5.03,1.75c5.1,1.49,10.01,3.37,14.44,6.37
		c0.53,0.36,1.13,0.63,1.73,0.96c0.44-1.59,0.42-16.54,0.03-17.84c-0.11-0.01-0.22-0.03-0.33-0.02c-0.27,0.05-0.55,0.1-0.82,0.17
		c-4.39,1.15-8.8,1.21-13.22,0.24c-6.26-1.37-11.71-4.22-15.91-9.16c-2.85-3.35-4.66-7.17-4.81-11.65c-0.01-0.31-0.11-0.62-0.2-1.13
		c-20.69,6.87-39.31,17.16-56.02,30.92C119.03,137.45,104.89,154.57,94.24,174.62z M102.41,205.73c-0.09,0-0.17-0.01-0.26-0.01
		c-0.17,0.52-0.34,1.04-0.5,1.56c-1.7,5.56-3.94,10.87-7.3,15.66c-1.67,2.38-3.6,4.53-5.97,6.24c-1.55,1.12-3.23,2.04-5.12,2.32
		c-1.36,0.2-2.77,0.2-4.14,0.05c-1.17-0.13-1.81-1.17-1.64-2.14c0.18-1.01,1.05-1.63,2.22-1.56c0.11,0.01,0.22,0.04,0.33,0.06
		c1.61,0.3,3.15-0.02,4.5-0.84c1.37-0.83,2.7-1.78,3.86-2.87c2.38-2.23,4.09-4.98,5.58-7.86c3.33-6.44,5.25-13.32,6.33-20.46
		c0.05-0.33,0.01-0.68,0.01-1.4c-0.57,0.82-0.89,1.26-1.19,1.71c-2.03,3.02-4.41,5.73-7.21,8.06c-2.42,2.01-5.04,3.68-8.06,4.6
		c-1.37,0.42-2.8,0.63-4.35,0.97c-7.93,28.33-8.75,56.89-2.51,86.05c0.76-1.11,1.4-1.69,2.47-1.77c3.78-0.26,6.89-1.98,9.61-4.53
		c2.92-2.74,5.08-6.03,6.83-9.6c3.19-6.52,4.88-13.46,5.78-20.63c0.05-0.39,0.01-0.79,0.01-1.18c-0.51,0.58-0.77,1.18-1.02,1.78
		c-1.67,3.97-3.66,7.75-6.53,11c-1.75,1.98-3.75,3.63-6.24,4.63c-2.98,1.19-5.88,0.98-8.69-0.49c-1.33-0.7-1.77-1.65-1.3-2.67
		c0.5-1.09,1.52-1.33,2.99-0.68c0.05,0.02,0.1,0.04,0.15,0.07c2.29,1.15,4.58,1,6.67-0.36c1.38-0.89,2.66-2.01,3.79-3.22
		c2.1-2.26,3.57-4.96,4.83-7.76c3.58-7.96,5.3-16.37,6.05-25.01c0.13-1.51,0.19-3.02,0.29-4.7c-0.28,0.24-0.4,0.29-0.44,0.38
		c-0.18,0.4-0.35,0.81-0.52,1.23c-2,4.92-4.52,9.55-7.96,13.63c-1.77,2.1-3.73,3.97-6.08,5.42c-2.02,1.25-4.2,2.06-6.58,2.19
		c-0.82,0.04-1.67-0.06-2.46-0.27c-0.88-0.24-1.37-1.1-1.3-1.92c0.08-0.91,0.77-1.57,1.78-1.67c0.38-0.04,0.78-0.02,1.17,0.02
		c1.37,0.14,2.72-0.09,3.87-0.77c1.57-0.92,3.13-1.93,4.5-3.12c2.38-2.05,4.2-4.59,5.78-7.3c5.61-9.65,8.36-20.06,8.15-31.23
		C102.57,206.79,102.47,206.26,102.41,205.73z M176.6,142.49c-2.29-1.93-4.49-3.88-6.8-5.7c-1.65-1.31-3.36-2.57-5.17-3.63
		c-2.35-1.36-4.97-1.26-7.65-1.11c0.56,1.33,0.5,1.4,2.09,2.72c2.54,2.12,2.94,6.71,1.74,8.74c-1.1,1.87-2.2,3.74-3.43,5.52
		c-0.59,0.85-1.42,1.57-2.26,2.2c-1.56,1.17-3.18,2.24-4.8,3.32c-3.55,2.37-4.33,7.24-2.17,10.1c1.76,2.33,1.94,5.02,0.57,7.72
		c-0.94,1.87-1.34,3.87-1.31,5.97c0.04,2.56,0,5.12,0,7.68c0,0.35,0,0.7,0,1.04c0.11,0.04,0.23,0.08,0.34,0.11
		c1.93-2.5,4.13-4.83,5.72-7.53c2.74-4.66,5.81-9.08,8.96-13.45c2.16-2.98,4.14-6.05,5.74-9.37c0.89-1.85,1.89-3.66,2.94-5.42
		C172.9,148.39,174.77,145.44,176.6,142.49z M227.97,84.5c-10.83,1.1-21.17,3.29-31.34,6.38c-0.05,0.47-0.11,0.8-0.12,1.12
		c-0.21,4.52,1.54,8.31,4.67,11.38c7.1,6.95,15.61,8.97,25.2,6.66c1.7-0.41,1.7-0.5,1.7-2.3c0-7.12,0-14.23,0-21.35
		C228.08,85.84,228.02,85.3,227.97,84.5z M391.82,299.93c6.9,4.45,13.75,8.87,20.76,13.4c3.35-9.94,5.74-19.88,7.2-30.3
		C408.21,285.21,399.29,291.2,391.82,299.93z M104.53,267.3c-0.12,0.01-0.23,0.01-0.35,0.02c-0.06,0.21-0.12,0.42-0.16,0.63
		c-1.19,5.17-2.86,10.17-5.35,14.87c-1.96,3.71-4.35,7.12-7.51,9.93c-2.84,2.53-6.07,4.3-9.85,4.96c-1.31,0.23-2.63,0.39-4.03-0.76
		c1.2,5.4,2.58,10.39,4.34,15.48c0.63-0.37,1.11-0.62,1.56-0.91c6.83-4.4,13.63-8.83,20.49-13.18c1.17-0.74,1.65-1.51,1.61-2.92
		c-0.27-7.78-0.43-15.57-0.63-23.35C104.61,270.48,104.57,268.89,104.53,267.3z"/>
	<path d="M373.13,353.8c-0.22,9.84-3.15,17.53-8.56,24.21c-8.06,9.96-18.54,15.57-31.3,16.76c-8.46,0.79-16.35-1.02-23.57-5.57
		c-0.33-0.21-0.67-0.4-0.97-0.65c-1.63-1.36-1.63-2.53-0.05-3.92c16.71-14.69,33.41-29.39,50.11-44.08c1.79-1.58,3.6-3.15,5.37-4.76
		c1.21-1.1,1.69-1.1,2.68,0.2c2.59,3.41,4.44,7.2,5.33,11.39C372.7,349.87,372.93,352.43,373.13,353.8z M318.31,385.86
		c0.67,0.23,1.02,0.38,1.39,0.49c6.72,1.94,13.43,1.71,20.04-0.38c9.64-3.04,17.18-8.8,21.92-17.83c3.42-6.52,4.29-13.39,1.94-20.5
		c-0.18-0.55-0.44-1.07-0.72-1.76C347.96,359.27,333.23,372.48,318.31,385.86z"/>
	<path d="M289.6,300.67c-1.03,0.52-1.78,0.88-2.51,1.26c-5.03,2.62-10.06,5.24-15.09,7.86c-0.2,0.1-0.39,0.21-0.59,0.31
		c-0.65,0.33-1.36,0.75-2.03,0.25c-0.63-0.48-0.31-1.23-0.2-1.87c1.51-9.22,3.03-18.44,4.53-27.65c0.29-1.75,0.53-1.95,2.31-1.66
		c0.88,0.14,1.75,0.32,2.61,0.53c1.15,0.28,1.26,0.42,1.07,1.62c-0.35,2.2-0.76,4.38-1.15,6.57c-0.6,3.39-1.22,6.79-1.82,10.18
		c-0.08,0.43-0.11,0.87-0.2,1.64c0.7-0.31,1.18-0.51,1.64-0.73c5.63-2.66,11.27-5.3,16.87-8.02c1.24-0.6,2.26-0.69,3.38,0.16
		c0.66,0.5,1.43,0.85,2.13,1.3c0.99,0.63,1.11,1.01,0.69,2.02c-2.58,6.33-5.17,12.66-7.74,18.99c-1.3,3.19-2.56,6.4-3.83,9.6
		c-0.08,0.2-0.13,0.4-0.3,0.96c0.75-0.45,1.25-0.72,1.72-1.03c8.44-5.48,16.88-10.97,25.32-16.46c2.49-1.62,2.49-1.62,4.04,0.83
		c0.57,0.89,1.12,1.79,1.69,2.68c0.41,0.64,0.29,1.16-0.32,1.57c-0.37,0.25-0.75,0.48-1.12,0.72c-12.04,7.61-24.06,15.24-36.12,22.8
		c-2.45,1.53-5.05,2.8-7.61,4.16c-0.35,0.18-1.05,0.32-1.18,0.15c-0.26-0.33-0.41-0.93-0.3-1.34c0.52-1.93,1.02-3.87,1.75-5.72
		c4.01-10.25,8.08-20.48,12.12-30.72C289.44,301.44,289.47,301.22,289.6,300.67z"/>
	<path d="M285.29,415.92c-0.51,1.86-0.91,3.76-1.55,5.58c-0.49,1.4-1.16,2.77-1.98,4c-1.31,1.98-3,1.95-4.42,0.02
		c-1.17-1.59-1.94-3.4-2.25-5.33c-0.35-2.13-0.58-4.3-0.67-6.46c-0.26-6.19,0.49-12.31,1.13-18.46c0.56-5.39,1.7-10.64,3.05-15.86
		c1.16-4.5,3.28-8.61,5.24-12.78c0.29-0.62,0.72-1.33,1.46-1.07c0.45,0.16,0.85,0.83,1.02,1.36c2.71,8.4,5.32,16.84,8.07,25.22
		c1.32,4.02,2.41,8.09,3.28,12.22c0.97,4.63,0.89,9.19-1.41,13.47c-0.57,1.06-1.32,2.06-2.13,2.96c-1.41,1.55-2.9,1.51-4.56,0.29
		c-1.86-1.36-3.06-3.18-3.92-5.28C285.51,415.84,285.4,415.88,285.29,415.92z"/>
	<path d="M303.49,361.08c2.33,3.65,4.57,7.16,6.82,10.67c0.6,0.94,1.22,1.86,1.82,2.8c0.55,0.86,0.54,1.13-0.23,1.65
		c-2.03,1.37-4.08,2.7-6.12,4.05c-0.67,0.44-1.23,0.43-1.7-0.29c-0.37-0.56-0.77-1.09-1.12-1.66c-3.35-5.45-6.7-10.9-10.04-16.36
		c-1.16-1.9-1.11-2.2,0.63-3.6c15.16-12.14,30.33-24.27,45.5-36.4c0.35-0.28,0.7-0.56,1.09-0.76c0.97-0.48,1.63-0.34,2.35,0.51
		c1.07,1.28,2.12,2.58,3.15,3.9c0.7,0.89,0.65,1.33-0.17,2.15c-0.31,0.31-0.68,0.57-1.03,0.84c-13.17,10.44-26.34,20.87-39.52,31.31
		C304.48,360.26,304.06,360.61,303.49,361.08z"/>
	<path d="M333.67,318.16c-0.59,0.58-0.99,1.03-1.44,1.4c-13.86,11.25-27.72,22.49-41.59,33.73c-0.3,0.24-0.61,0.48-0.93,0.7
		c-0.49,0.34-0.96,0.26-1.34-0.18c-1.3-1.52-2.6-3.05-3.87-4.59c-0.45-0.56-0.36-1.14,0.16-1.64c0.2-0.19,0.42-0.36,0.63-0.54
		c13.33-11.27,26.67-22.55,40-33.82c0.25-0.22,0.52-0.42,0.78-0.63c0.56-0.45,1.12-0.45,1.65,0.04
		C329.63,314.4,331.53,316.17,333.67,318.16z"/>
	<path d="M314.17,408.44c0,1.41,0.07,2.51-0.02,3.6c-0.12,1.5-0.77,2.23-2.01,2.51c-1.09,0.24-1.99-0.19-2.71-1.46
		c-0.51-0.91-0.99-1.88-1.28-2.88c-1.38-4.8-2.71-9.62-3.99-14.44c-0.14-0.51-0.01-1.28,0.31-1.66c0.23-0.26,1.09-0.24,1.51-0.03
		c5.54,2.76,10.35,6.31,12.8,12.28c0.3,0.74,0.45,1.62,0.4,2.43c-0.09,1.53-1.46,2.18-2.78,1.38
		C315.7,409.73,315.09,409.15,314.17,408.44z"/>
	<path d="M273.4,364.87c-0.39,0.33-0.66,0.62-0.98,0.82c-1.3,0.82-2.87,0.35-3.47-1.05c-0.54-1.25-0.49-2.49,0.25-3.67
		c2.03-3.25,4.06-6.5,6.1-9.75c0.23-0.37,0.49-0.72,0.76-1.11c0.98,0.01,1.22,0.72,1.35,1.42c0.34,1.86,0.69,3.72,0.91,5.59
		c0.21,1.77,0.27,3.55,0.35,5.33c0.08,1.85-0.1,3.69-0.98,5.35c-0.33,0.62-0.8,1.23-1.36,1.64c-0.93,0.68-1.85,0.37-2.27-0.71
		c-0.22-0.55-0.26-1.18-0.33-1.79c-0.06-0.55-0.05-1.11-0.09-1.67C273.63,365.19,273.54,365.11,273.4,364.87z"/>
	<path d="M198.23,375.44c-0.03,6.4-3.47,9.73-9,9.52c-2.69-0.1-5.27-0.79-7.78-1.75c-3.29-1.25-6.4-2.86-9.35-4.76
		c-11.31-7.25-20.7-16.47-28.07-27.71c-2.7-4.11-4.96-8.45-6.06-13.29c-0.48-2.12-0.81-4.26-0.27-6.44c0.77-3.11,2.7-5.02,5.79-5.81
		c2.28-0.58,4.54-0.3,6.78,0.21c4,0.9,7.68,2.62,11.2,4.67c9.78,5.71,18,13.22,25.13,21.96c3.74,4.59,7.02,9.48,9.36,14.95
		C197.23,369.98,198.21,373.04,198.23,375.44z M147.91,332.28c-1.8-0.1-2.27,0.27-2.12,1.59c0.12,1.09,0.42,2.18,0.82,3.21
		c1.14,2.92,2.8,5.56,4.63,8.09c7.25,10.05,15.86,18.77,25.84,26.11c2.14,1.57,4.46,2.93,6.8,4.21c1.35,0.74,2.86,1.24,4.35,1.62
		c1.91,0.48,2.6-0.28,2.19-2.24c-0.17-0.81-0.41-1.63-0.77-2.37c-0.73-1.56-1.48-3.12-2.35-4.6c-2.7-4.57-6.01-8.69-9.54-12.63
		c-6.34-7.06-13.2-13.55-21.15-18.79c-1.94-1.28-4.05-2.32-6.13-3.36C149.55,332.66,148.48,332.46,147.91,332.28z"/>
	<path d="M167.72,411.48c-1.41-1.22-2.79-2.35-4.09-3.55c-2.54-2.34-4.98-4.78-7.56-7.07c-4.4-3.93-8.87-7.78-13.3-11.66
		c-8.84-7.74-17.3-15.88-25.33-24.46c-2.32-2.47-4.84-4.76-7.28-7.12c-1.3-1.26-1.37-1.65-0.3-3.1c2.57-3.49,6.08-5.47,10.29-6.25
		c4.57-0.85,9.05-0.23,13.26,1.52c13.78,5.74,22.77,15.77,26.51,30.31c0.78,3.05,0.8,6.17,0.37,9.29c-0.03,0.2,0,0.42,0,0.65
		c1.3-0.38,2.5-0.84,3.74-1.08c4.14-0.8,7.97,1.19,9.74,5.01c0.86,1.85,1.21,3.82,1.02,5.86c-0.41,4.22-2.2,7.77-5.34,10.63
		c-0.25,0.22-0.51,0.44-0.79,0.61C168.42,411.21,168.16,411.29,167.72,411.48z M120.55,357.6c1.46,1.93,31.95,31.06,33.06,31.57
		c0.37-2.14,0.1-4.24-0.33-6.28c-1.84-8.86-6.66-15.76-14.01-20.93c-3.89-2.73-8.19-4.42-12.95-4.85
		C124.39,356.94,122.48,357.04,120.55,357.6z M168.68,404.12c1.13-2.32,1.48-4.32,0.51-6.52c-0.72-1.65-1.82-2.68-3.58-2.8
		c-1.79-0.12-3.33,0.51-4.48,2.07C163.64,399.28,166.08,401.62,168.68,404.12z"/>
	<path d="M192.6,340.3c3.21,0.87,6.37,1.74,9.53,2.59c4.93,1.34,9.87,2.66,14.81,4c0.85,0.23,1.99,0.33,2.06,1.39
		c0.08,1.18-0.09,2.44-0.48,3.55c-0.3,0.87-1.3,0.64-2.07,0.45c-2.97-0.73-5.93-1.47-8.9-2.2c-3.77-0.93-7.54-1.85-11.5-2.58
		c0.38,0.4,0.75,0.81,1.14,1.2c4.27,4.15,8.54,8.3,12.81,12.45c0.36,0.35,0.74,0.69,1.02,1.09c0.49,0.69,0.35,1.32-0.25,1.92
		c-0.74,0.74-1.53,1.45-2.13,2.3c-0.99,1.42-1.96,1.75-3.48,0.23c-10.31-10.3-20.68-20.55-31.03-30.81
		c-5.41-5.37-10.82-10.73-16.24-16.1c-1.35-1.34-1.39-1.66-0.4-3.29c3.55-5.81,10.51-8.37,17.48-6.43
		c4.12,1.15,7.63,3.34,10.56,6.43c4.95,5.22,7.68,11.4,7.64,18.66C193.16,336.79,192.81,338.44,192.6,340.3z M165.17,317.3
		c1.17,1.66,19.42,19.26,20.59,19.86c0.06-0.46,0.14-0.89,0.16-1.31c0.47-9.8-6.54-16.3-12.42-18.27
		C170.81,316.68,168.08,316.48,165.17,317.3z"/>
	<path d="M195.65,309.78c0.69,0.76,1.09,1.21,1.5,1.65c8.27,8.8,16.54,17.6,24.8,26.4c0.27,0.28,0.54,0.56,0.8,0.85
		c1.04,1.21,0.99,1.7-0.24,2.73c-0.55,0.46-1.09,0.95-1.57,1.49c-1.66,1.87-2.22,1.88-3.96-0.02c-6.72-7.35-13.43-14.71-20.15-22.07
		c-4.58-5.01-9.15-10.03-13.73-15.04c-0.34-0.37-0.72-0.69-1.08-1.04c-0.82-0.78-0.99-1.41-0.35-2.36c0.75-1.1,1.62-2.11,2.49-3.12
		c0.81-0.95,1.77-0.84,2.87-0.43c9.8,3.63,19.61,7.21,29.42,10.8c0.52,0.19,1.03,0.37,1.73,0.61c0.03-0.6,0.09-1.06,0.07-1.52
		c-0.31-8.01-0.63-16.01-0.95-24.02c-0.09-2.34-0.19-4.67-0.27-7.01c-0.02-0.44-0.02-0.89,0.05-1.33c0.13-0.78,0.55-1.3,1.41-1.39
		c1.16-0.12,2.31-0.33,3.46-0.46c0.86-0.1,1.39,0.26,1.58,1.11c0.14,0.65,0.18,1.32,0.22,1.99c0.38,6.11,0.76,12.22,1.13,18.33
		c0.41,6.72,0.82,13.44,1.22,20.16c0.03,0.5,0.09,1,0.1,1.5c0.02,1.64-1.17,2.55-2.76,2.12c-0.37-0.1-0.73-0.26-1.1-0.39
		c-8.26-2.97-16.52-5.95-24.79-8.92C197.07,310.23,196.55,310.08,195.65,309.78z"/>
	<path d="M216.27,412.28c-1.04,1.77-7.5,6.27-11.48,8.09c-0.9-0.27-1.19-1.1-1.56-1.83c-1.81-3.57-3.61-7.15-5.36-10.75
		c-1.46-3-2.86-6.03-4.26-9.05c-0.42-0.9-0.75-1.84-1.17-2.88c0.57-0.5,1.09-0.96,1.67-1.48
		C201.84,399.94,208.81,406.34,216.27,412.28z"/>
	<path d="M204.16,294.56c-0.14-1.11-0.38-2.08-0.36-3.05c0.01-0.86,0.17-1.77,0.49-2.57c0.36-0.9,1.28-1.11,2.06-0.52
		c0.47,0.35,0.92,0.85,1.16,1.37c0.72,1.55,1.37,3.14,2,4.74c0.52,1.34,0.95,2.72,1.45,4.07c0.46,1.26,0.3,1.58-1.09,1.59
		c-1.15,0.01-2.34-0.06-3.43-0.36c-1.6-0.43-3.19-0.98-4.67-1.71c-0.95-0.47-1.86-1.24-2.5-2.09c-0.83-1.1-0.1-2.25,1.3-2.17
		c0.77,0.04,1.52,0.28,2.28,0.43C203.25,294.36,203.66,294.45,204.16,294.56z"/>
	<path d="M196.74,391.06c0.21-0.59,0.39-1.09,0.62-1.74c3.4,0.19,6.76,0.38,10.13,0.58c0.66,0.04,1.33,0.07,1.99,0.18
		c0.89,0.15,1.36,0.63,1.15,1.5c-0.56,2.42-1.25,4.81-1.9,7.21c-0.02,0.08-0.17,0.13-0.41,0.31
		C204.51,396.45,200.66,393.78,196.74,391.06z"/>
	<path d="M213.97,373.19c-0.46-0.74-0.86-1.27-1.14-1.87c-0.44-0.96-0.25-2.04,0.42-2.62c0.74-0.65,1.58-0.55,2.33-0.11
		c2.1,1.24,4.19,2.51,6.23,3.85c0.79,0.51,0.63,1.58-0.38,2.17c-1.29,0.75-2.63,1.46-4.04,1.95c-1.24,0.43-2.59,0.61-3.91,0.75
		c-0.63,0.07-1.31-0.15-1.93-0.37c-0.61-0.22-0.97-0.73-0.96-1.42c0.01-0.75,0.38-1.26,1.09-1.51
		C212.41,373.74,213.14,373.49,213.97,373.19z"/>
	<path d="M189.46,397.38c0.79,5.3,1.55,10.4,2.34,15.76c-2.25-0.16-4.37-0.31-6.75-0.48c0.98-5.18,1.94-10.22,2.9-15.28
		C188.48,397.38,188.9,397.38,189.46,397.38z"/>
	<path d="M281.02,97.56c0.62,1.67,1.2,3.22,1.78,4.78c0.18,0.48,0.42,1.08-0.18,1.3c-0.34,0.13-0.95-0.11-1.29-0.37
		c-0.69-0.55-1.24-1.28-1.92-1.85c-0.97-0.81-1.38-0.72-2.22,0.24c-0.54,0.62-1.07,1.29-1.73,1.76c-0.69,0.5-1.3,0.08-1.32-0.78
		c0-0.22,0.03-0.45,0.1-0.66c0.27-0.85,0-1.42-0.72-1.98c-0.83-0.64-1.53-1.45-2.21-2.26c-0.61-0.73-0.42-1.16,0.49-1.43
		c0.26-0.08,0.54-0.14,0.82-0.15c0.77-0.03,1.06-0.51,1.17-1.17c0.16-0.93,0.3-1.86,0.46-2.79c0.05-0.27,0.04-0.58,0.17-0.81
		c0.2-0.37,0.48-0.69,0.72-1.03c0.35,0.3,0.96,0.55,1.01,0.9c0.38,2.39,2.14,2.66,4.03,2.81c0.83,0.07,1.67,0.08,2.48,0.26
		c0.96,0.21,1.1,0.87,0.37,1.55C282.4,96.47,281.69,97,281.02,97.56z"/>
	<path d="M281.29,141.66c0.48,0.91,0.99,1.89,1.5,2.87c0.18,0.35,0.41,0.69,0.47,1.06c0.07,0.4,0.11,1.11-0.07,1.19
		c-0.38,0.17-0.92,0.11-1.35-0.01c-0.36-0.1-0.65-0.42-0.98-0.62c-0.38-0.23-0.76-0.46-1.15-0.65c-0.77-0.36-1.36-0.22-1.8,0.58
		c-0.37,0.68-0.82,1.32-1.29,1.94c-0.14,0.19-0.54,0.38-0.7,0.3c-0.24-0.12-0.5-0.44-0.54-0.71c-0.08-0.54-0.02-1.1-0.02-1.51
		c-1.13-0.87-2.19-1.59-3.14-2.43c-0.85-0.76-0.71-1.28,0.31-1.7c0.61-0.25,1.23-0.49,1.86-0.74c0.15-1.33,0.22-2.61,0.45-3.85
		c0.22-1.2,0.02-2.56,1.12-3.63c1.36,1.06,1.06,2.8,1.96,4.2c0.7,0,1.53,0,2.35,0c0.67,0,1.35-0.07,2,0.06
		c0.43,0.09,0.94,0.42,1.13,0.78c0.11,0.22-0.28,0.76-0.53,1.09C282.41,140.45,281.91,140.97,281.29,141.66z"/>
	<path d="M361.88,146.21c0.8,0.26,1.5,0.45,2.16,0.72c0.56,0.23,1.13,0.49,1.61,0.84c0.27,0.2,0.57,0.64,0.52,0.93
		c-0.04,0.25-0.5,0.57-0.82,0.63c-1.08,0.22-2.17,0.35-3.35,0.52c-0.08,1.86,0.94,3.58,0.42,5.64c-1.86-0.82-1.89-2.97-3.37-3.9
		c-0.85,0.52-1.73,1.07-2.63,1.6c-0.33,0.2-0.69,0.43-1.05,0.48c-0.33,0.04-0.76-0.05-1-0.26c-0.14-0.12-0.07-0.65,0.08-0.88
		c0.45-0.7,0.99-1.34,1.48-2.01c0.19-0.27,0.34-0.56,0.58-0.95c-0.48-0.51-0.99-1-1.43-1.54c-0.39-0.47-0.76-0.97-1.04-1.5
		c-0.3-0.56-0.05-0.98,0.57-1.06c0.22-0.03,0.45-0.02,0.66,0.04c1.8,0.45,3.12-0.32,4.24-1.63c0.65-0.76,1.28-1.54,1.96-2.27
		c0.31-0.33,0.71-0.57,1.31-1.04C363.14,142.73,362.12,144.32,361.88,146.21z"/>
	<path d="M378.94,168.37c-0.2-1.26-0.44-2.34-0.52-3.43c-0.03-0.35,0.33-0.73,0.52-1.1c0.34,0.23,0.67,0.46,1,0.69
		c0.04,0.03,0.05,0.1,0.08,0.15c1.24,2.71,1.24,2.13,3.64,1.45c0.75-0.21,1.46-0.54,2.21-0.74c0.51-0.14,1.04-0.16,1.81-0.27
		c-0.18,1.9-1.74,2.8-2.09,4.06c0.76,1.51,1.51,2.85,2.14,4.25c0.48,1.08,0.02,1.66-1.11,1.38c-1.12-0.27-2.18-0.76-3.41-1.2
		c-0.37,0.77-0.69,1.52-1.07,2.24c-0.25,0.47-0.44,1.21-1.13,0.95c-0.28-0.1-0.42-0.81-0.48-1.26c-0.12-0.88-0.12-1.77-0.19-2.66
		c-0.06-0.76-0.49-1.14-1.24-1.35c-0.95-0.26-1.9-0.62-2.77-1.08c-0.71-0.38-0.59-1.04,0.19-1.32
		C377.35,168.84,378.19,168.61,378.94,168.37z"/>
	<path d="M169.73,109.76c-0.46-0.34-1.12-0.66-1.53-1.17c-0.48-0.6-0.27-1.55,0.35-2.12c0.4-0.36,0.9-0.64,1.4-0.87
		c5.35-2.45,10.71-4.88,16.08-7.31c0.55-0.25,1.12-0.51,1.71-0.63c0.85-0.18,1.61,0.24,1.96,0.94c0.38,0.76,0.2,1.67-0.52,2.24
		c-0.39,0.3-0.85,0.52-1.3,0.72c-5.49,2.54-10.99,5.08-16.49,7.6C170.94,109.38,170.45,109.51,169.73,109.76z"/>
	<path d="M181.8,124.17c-1.35,0.02-2.24-1.3-1.67-2.54c0.18-0.4,0.47-0.75,0.76-1.08c3.61-4.08,7.23-8.16,10.85-12.23
		c0.26-0.29,0.52-0.58,0.83-0.82c0.81-0.6,1.78-0.56,2.44,0.06c0.63,0.6,0.75,1.45,0.27,2.29c-0.22,0.38-0.52,0.72-0.81,1.06
		c-3.58,4.04-7.16,8.07-10.74,12.11C183.2,123.6,182.69,124.19,181.8,124.17z"/>
	<path d="M219.35,122.92c0.41-1.43,0.76-2.88,1.26-4.27c0.32-0.87,1.13-1.2,1.86-1c0.83,0.24,1.25,0.93,1.1,1.96
		c-0.21,1.42-0.45,2.83-0.71,4.23c-0.17,0.92-0.91,1.56-1.7,1.55c-0.8-0.01-1.46-0.66-1.61-1.61c-0.04-0.27-0.04-0.55-0.05-0.83
		C219.45,122.95,219.4,122.93,219.35,122.92z"/>
	<path d="M207.32,119.76c0.69-1.31,1.3-2.67,2.09-3.92c0.39-0.62,1.17-0.63,1.82-0.29c0.68,0.35,0.94,1.02,0.71,1.7
		c-0.4,1.21-0.88,2.4-1.44,3.54c-0.35,0.7-1.04,0.99-1.84,0.74C207.85,121.28,207.55,120.67,207.32,119.76z"/>
</g>
</svg>
