<?xml version="1.0" encoding="utf-8"?>
<!-- Generator: Adobe Illustrator 26.3.1, SVG Export Plug-In . SVG Version: 6.00 Build 0)  -->
<svg version="1.1" id="Layer_1" xmlns="http://www.w3.org/2000/svg" xmlns:xlink="http://www.w3.org/1999/xlink" x="0px" y="0px"
	 width="300px" height="300px" viewBox="0 0 300 300" style="enable-background:new 0 0 300 300;" xml:space="preserve">
<g>
	<path d="M276,24.6H56.7V72c-1.2-0.3-2.4-0.6-3.7-0.8c-1.1-0.2-2.1,0-3,0.2c-0.5,0.1-1.1,0.2-1.7,0.3c-0.1,0-0.1,0-0.2,0
		c0,0-0.1,0-0.1,0c-1.1,0.2-1.8,0.8-2.4,1.9l0,0.1c-0.2,0.3-0.3,0.6-0.4,0.9c-0.4,2.4-1.4,3.7-3.4,4.3c-0.8,0.2-1.3,1-1.3,2.1
		c0,1.8,0.3,3.9,1.7,5.5c1.7,1.9,3.1,3.9,4.2,6c0.1,0.3,0.3,0.5,0.5,0.7c0.1,0.1,0.2,0.3,0.3,0.4c0.2,0.3,0.2,0.5,0,0.6
		c-0.2,0.1-0.3,0.2-0.5,0.4c-0.3,0.2-0.6,0.4-0.8,0.6c-0.6,0.5-0.6,1.4-0.3,2c0.5,1,1.3,1.7,2,2.3c3.2,2.7,6.9,5.9,11.1,8.3
		c1,0.6,1.4,1.3,1.5,2.3c0,0.3,0.1,0.5,0.2,0.8c0.1,0.4,0.3,0.7,0.1,1.1c0,0,0,0-0.1,0.1c-0.1,0-0.1-0.1-0.2-0.1
		c-0.3-0.2-0.6-0.3-0.8-0.5c-2.7-2.5-4.9-4.2-7.3-5.4c-4.1-2.2-8.7-3.8-13.7-4.8c-1.9-0.4-3.7-0.4-5.4-0.1c-2.9,0.6-5.4,1.2-7.6,1.9
		c-2.4,0.8-4.9,1.4-7,1.8c-2.9,0.7-5.8,1.6-8.6,2.6c-0.8,0.3-1.6,0.5-2.4,0.8c-0.2,0.1-0.5,0.2-0.7,0.4c-0.1,0.1-0.1,0.1-0.2,0.2
		c-0.3,0.2-0.3,0.6-0.3,0.7c0,0.3,0.1,0.6,0.3,0.7c0.1,0,0.1,0.1,0.2,0.1c0.2,0.2,0.4,0.3,0.7,0.4c1.3,0.4,2.7,0.7,4,1.1
		c0.5,0.1,1,0.3,1.5,0.4c0.4,0.1,0.8,0.2,1.2,0.3c0.9,0.2,1.8,0.4,2.7,0.7c2.3,0.7,4.6,1.7,6.8,2.9c1.3,0.8,2.8,1.5,4.5,1.4
		c1.5-0.1,2.9,0.3,4.4,1.3c1.6,1,3.2,2.1,4.7,3.2c2.1,1.5,4.8,3.1,8,3.3c1.3,0.1,2.6,0.5,4,1.3c1.9,1.1,3.8,2,5.6,2.7
		c0.8,0.3,1.6,0.6,2.4,1.1c1.7,0.9,3.7,1.9,6,2.3c0.1,0,0.2,0.1,0.4,0.1c0.1,0,0.2,0.1,0.2,0.1c0.1,0,0.2,0.1,0.2,0.2
		c0,0,0,0.1,0,0.1c-0.1,0.1-0.3,0.2-0.4,0.2c-1.3-0.1-2.6-0.1-3.9-0.2c-1.1-0.1-2.1-0.1-3.2-0.2c-0.5,0-1.1,0-1.6,0
		c-0.2,0-0.4,0-0.6,0v0c0-0.1-0.1-0.2-0.2-0.2c-0.7,0-1.4,0-2.1-0.1c-1.6,0-3.3-0.1-4.9-0.1c-4.4,0.1-7.5,1.7-9.5,5
		c-1.3,2.1-3.1,3.8-5.5,5.2c-2.8,1.6-5.6,3.6-8.2,5.9c-0.9,0.8-1.8,1.7-2.7,2.6c-0.9,0.9-1.5,2-2,3.3c-0.4,1.2,0,2.5,1,3.2
		c0.5,0.3,0.9,0.6,1.4,0.8c3.1,1.3,6.1,2.2,9.1,2.5c0.8,0.1,1.6,0.1,2.4,0.1c0.4,0,0.9,0,1.3,0c5.9,0.2,11.2-0.4,16.4-1.7
		c2.3-0.6,4.2-0.6,5.9-0.1c0.1,0,0.1,0,0.2,0.1v95.6h40.3c0,0.4,0,0.8,0,1.2c0,0.2,0,0.4,0,0.6c0,0.7,0.1,1.5,0.1,2.2
		c0.1,1.2,0.2,2.4,0.2,3.5c0,3.4,0.2,6.8,0.4,10.3c0.1,1.1-0.1,4.3,0.7,4.8c0.5,0.3,2.3,0,3,0.1c1,0,2,0,3,0.1c1.6,0,1.1-0.9,1-2
		c-0.2-3-0.4-6-0.6-9c-0.2-3.5-0.1-6.2,0.5-8.7c0.3-1.3,0.6-2.6,1.2-3.8c0-0.1,0.2-0.2,0.4-0.2c0,0,0.1,0.1,0.1,0.1
		c0.2,0.5,0.4,1,0.5,1.5c0.3,0.8,0.5,1.5,0.8,2.3c0.1,0.4,0.4,0.8,0.6,1.2c0.1,0.2,0.5,0.4,0.7,0.4c0.3-0.1,0.7-0.2,0.9-0.6
		c0.2-0.3,0.2-0.8,0.3-1.2l0-0.2c0.1-0.6,0.2-1.1,0.2-1.7c0.1-1.1,0.3-2.2,0.5-3.3c0.8-3.4,1.9-6.8,3.4-10.6
		c0.7-1.8,1.8-3.6,3.3-5.4c1.1-1.3,2.4-2.3,3.9-3c0,0,0.1,0,0.2,0c0,0,0.1,0.1,0.1,0.1c0,0,0,0.1-0.1,0.2c-0.2,0.3-0.5,0.5-0.7,0.8
		c-0.3,0.4-0.7,0.8-1.1,1.2c-2,2.2-3.3,4.6-4.4,6.8c-0.3,0.6-0.7,1.6-1,2.5c-0.7,3.2-0.7,6.2,0,9.1c0.4,1.7,1,3.6,2.2,5.3
		c1.6,2.3,3.1,4,4.6,5.4c0.7,0.6,1.5,1.3,2.2,1.9c1.2,1,2.5,2.1,3.6,3.3c0.2,0.3,0.7,0.7,1,0.9c2.2,1.4,4.3,2.8,6.5,4.2
		c0.9,0.6,1.8,1.2,2.7,1.8c1.8,1.2,3.7,2.4,5.5,3.6c0.4,0.3,0.8,0.6,1.1,0.9c1.9,1.8,4,3.2,6.2,4.6c0.8,0.5,1.8,0.9,2.9,1.1
		c0.1,0,0.3,0,0.4,0c0.5,0,0.9-0.2,1.2-0.5c0.4-0.4,0.6-0.9,0.5-1.4c-0.1-0.6-0.2-1.2-0.4-1.7c-0.7-2-1.7-3.8-2.9-5.3
		c-1.8-2.3-3.3-5-4.4-8.2c-0.2-0.5-0.4-1.1-0.6-1.6c-0.4-1.1-0.8-2.3-1.2-3.5c-0.9-2.8-1.6-5.5-2-8.1c-0.1-0.7-0.2-1.3-0.3-1.9h132
		V24.6z M44.4,85.6C44.4,85.6,44.4,85.6,44.4,85.6c-1-1.2-1.5-2.4-1.5-3.9c0-0.3,0.1-0.8,0.5-1c2.1-0.9,3.4-2.5,3.9-4.9
		c0.1-0.4,0.2-0.8,0.5-1.2c0.1-0.2,0.4-0.5,0.7-0.6c1-0.2,2-0.4,2.8-0.5c0.2,0,0.4-0.1,0.6-0.1c3.6,0.3,6.3,1.1,8.6,2.6
		c0.6,0.4,0.9,0.9,1,1.5l0.1,0.7c0.1,0.6,0.2,1.3,0.2,2c0,0.5-0.1,0.8-0.4,1c-2.3,1.6-3.3,4.2-4.1,6.5c-0.8,2.2-1.2,4.5-1.3,7
		c0,0.2-0.1,0.5-0.2,0.7c0,0.1,0,0.1-0.1,0.2c0,0-0.1,0-0.1,0.1c-0.1,0-0.2,0-0.3-0.1c-0.3-0.1-0.7-0.1-0.9-0.2
		c-1.8-1-3.5-1.9-4.9-2.8c-0.7-0.4-1.3-1.1-1.7-1.9C46.9,88.6,45.6,87,44.4,85.6z M59,105.1C59,105.1,59,105.2,59,105.1
		c-0.1,0.1-0.4,0.3-0.4,0.2c-0.2-0.2-0.5-0.3-0.7-0.5c-1.1-0.7-2.1-1.4-3.1-2.2c-1.6-1.3-3.2-2.6-4.8-4c-0.5-0.4-0.9-0.8-1.4-1.2
		c-0.2-0.2-0.4-0.4-0.5-0.7L48,96.8c0-0.1-0.1-0.2,0.1-0.4c0.5-0.4,1-0.6,1.5-0.6c0.4,0,0.7,0.1,1.1,0.3c0.3,0.2,0.7,0.3,1,0.5
		c0.9,0.4,1.7,0.8,2.6,1.3c0.8,0.4,1.6,1,2.2,1.5c0.3,0.3,0.6,0.6,0.8,1c0.8,1.8,1.4,3.2,1.7,4.6C59,105,59,105,59,105.1z
		 M58.7,96.3c-0.2-0.2-0.3-0.6-0.4-0.8c0-0.4,0-0.8,0-1.1c0-0.2,0-0.3,0-0.5c0.1-2.1,0.4-4.5,1.5-6.7c0-0.1,0.3-0.1,0.4-0.1l0.1,0
		c0,0,0.1,0.1,0.1,0.1c0.1,0.1,0.1,0.2,0.2,0.3c0.2,0.4,0.4,0.8,0.5,1.2c0.2,0.7,0.2,1.3-0.1,1.9c-0.1,0.3-0.3,0.7-0.4,1
		c-0.1,0.2-0.1,0.3-0.2,0.5c-0.4,1-0.5,2-0.1,3c0.1,0.3,0.2,0.6,0.3,0.9c0.2,0.5,0.3,1.1,0.5,1.6c0,0,0,0.1-0.1,0.1
		c0,0-0.1,0.1-0.1,0.1C60,97.5,59.3,97.1,58.7,96.3z M60.5,100.8c0.1-0.1,0.3-0.2,0.5-0.2c2.4,0.8,4,2.3,4.8,4.5
		c0.5,1.4,1,3,1.4,4.5c0.4,1.4,1,2.8,1.6,4.1l0.3,0.6c1.3,2.8,2.7,5.1,4.5,7.1c0.3,0.3,0.6,0.7,0.8,1c0.1,0.1,0,0.3,0,0.4
		c0,0-0.1,0-0.2,0c-0.2,0-0.5,0-0.7,0.1l-0.2,0c-2.2,0.2-3.8-0.8-4.6-2.9c-0.9-2.2-2.2-4.2-4.1-6.2c-1.2-1.3-1.9-2.8-2.2-4.4
		c-0.5-3.3-1.1-6-1.9-8.5C60.3,101,60.3,100.9,60.5,100.8z M63.3,87.6c0,0.1-0.1,0.2-0.2,0.2c-0.1,0-0.2,0.1-0.3,0c0,0,0,0,0,0
		c0,0,0,0,0,0l0,0c-0.9-0.9-1.1-1.9-0.6-2.9c0.1-0.1,0.2-0.1,0.3-0.1c0.1,0,0.2,0.2,0.2,0.3c0,0,0,0.1,0,0.1c0,0,0,0,0,0.1
		c0.1,0.4,0.2,0.7,0.3,1.1c0.1,0.4,0.2,0.7,0.3,1.1c0,0,0,0,0,0C63.3,87.6,63.3,87.6,63.3,87.6L63.3,87.6z M63.6,94.9
		C63.5,94.9,63.5,94.9,63.6,94.9c-0.7-0.2-1.2-0.9-1.2-1.6c0-0.5,0.2-1,0.6-1.3c0,0,0.1,0,0.1,0C63.2,92.9,63.4,93.9,63.6,94.9z
		 M85.6,53.6c0.3,0.2,0.5,0.4,0.8,0.6c0.3,0.3,0.4,0.7,0.3,1c-0.3,0.4-0.5,0.8-0.8,1.3c-0.6,1-1.2,2.1-2,2.9c-0.7,0.7-1.3,1.5-2,2.2
		c-0.9,1-1.9,2-2.8,3.1c-0.1,0.2-0.4,0.1-0.7,0c-0.1-0.1-0.1-0.1-0.2-0.2c-0.1-0.1-0.2-0.2-0.3-0.3c-0.9-0.6-1.8-0.6-2.7,0
		c-0.5,0.3-0.9,0.7-1.3,1c-0.8,0.6-1.5,1.3-2.4,1.7c0,0,0,0,0,0c0,0-0.1,0-0.1-0.1c-0.1-0.1-0.1-0.1-0.1-0.2c0-0.2,0.1-0.4,0.1-0.6
		c1.2-2.4,1.7-4.8,1.5-7.1c0-0.3,0-0.5,0-0.7c0-0.4,0-0.8,0-1.1c0.1-2.8,1.5-4.8,4.5-6.4c0.5-0.2,0.9-0.4,1.4-0.4
		c0.3,0,0.5,0,0.8,0.1c0.3,0.1,0.6,0.1,0.9,0.2c0.2,0,0.5,0.1,0.7,0.2c1.2,0.3,2.1,0.8,2.9,1.5c0,0,0,0,0,0
		C84.6,52.7,85.1,53.2,85.6,53.6z M155.2,172.4c0.3,1.8-0.1,3.5-1.2,5l-0.5,0.6c-0.9,1.3-1.9,2.7-3,3.9c-3,3.3-5,7.2-6.2,11.9
		c-0.3,1.1-0.4,2.1-0.1,3.1c0.1,0.3,0.5,0.6,0.7,0.8c0.2,0.1,0.5,0.2,0.8,0.1l0.1,0c0.5-0.2,1-0.4,1.4-0.8c1.3-1.1,2.7-2,4.1-2.9
		c0.4-0.3,0.8-0.5,1.2-0.8c4-2.6,8.6-4.3,13.8-4.9c4-0.5,7.5-0.7,10.7-0.7c1.6,0,3,0.4,4.4,1.1c1.5,0.7,3,1.3,4.5,1.9
		c0.8,0.3,1.6,0.6,2.4,0.9l0.2,0.1c1.2,0.5,2.5,1,3.8,1.6c3.7,1.7,7,4.2,9.8,7.5c1.4,1.6,2.8,3.2,4.4,4.6c0.2,0.1,0.3,0.4,0.4,0.6
		c0,0.1,0.1,0.1,0.1,0.2c0,0,0,0.1,0,0.1c-0.1,0.1-0.2,0.3-0.4,0.3c-0.3,0-0.7,0-1,0c-0.5-0.1-1-0.1-1.7-0.2
		c-2.2-0.4-4.4-0.3-6.7,0.3c-2.3,0.5-4.7,1.2-6.9,2.7c-3.4,2.2-7.3,3.3-12.1,3.5c-3.3,0.1-6.6,0.1-9.1,0.1c-4,0-8.7,0-13.5-0.2
		c-1.9-0.1-3.7-0.3-5.6-0.5l-0.4-0.1c-2.6-0.3-5.1-1.2-7.8-2.9c-0.4-0.2-0.7-0.6-1-0.9l-0.2-0.2c-0.2-0.2-0.3-0.4-0.3-0.6
		c0-0.2,0.1-0.5,0.3-0.6c2.7-2.5,6.5-5.4,11.7-6c0.7-0.1,1.4-0.2,2.1-0.2c1.8-0.2,3.5-0.4,4.8-0.4c0.1,0,0.2,0,0.3,0
		c3.2,0,5.5,0.2,7.6,0.5l1,0.1c3.5,0.4,7.2,0.8,10.8,0.8c0.5,0,1,0,1.5,0c0.7,0,1.5,0,2.2,0c3.7-0.1,7.5,0.3,11.6,1.2
		c0.4,0.1,0.9,0.1,1.4,0c0.3,0,0.6-0.2,0.8-0.8c0.1-0.4-0.1-0.9-0.4-1c-0.1,0-0.2-0.1-0.2-0.1c-0.2-0.1-0.5-0.2-0.7-0.3
		c-3.6-0.8-7.4-1.5-11.4-1.4c-2.1,0-4.1,0-6.1,0c-2,0-4.1-0.2-6.7-0.4c-1.1-0.1-2.2-0.2-3.3-0.4c-1.9-0.2-3.8-0.5-5.8-0.5
		c-2.2,0-4.5,0-6.7,0.4c-0.5,0.1-1,0.1-1.5,0.2c-0.3,0-0.6,0-0.9,0.1c-3.6,0.4-6.5,1.4-8.9,3.1c-0.3,0.2-0.7,0.4-1,0.7
		c-0.2,0.2-0.5,0.3-0.7,0.5c-0.1,0.1-0.2,0.1-0.2,0.1c0,0-0.1,0-0.1-0.1c0-0.1-0.1-0.2-0.1-0.2c0.1-0.5,0.2-1,0.3-1.5
		c0.2-0.7,0.3-1.4,0.5-2.1c0.2-0.8,0.3-1.6,0.4-2.3c0.1-1.1,0.2-2.1,0.3-3.2c0.1-1.5,0.3-3,0.4-4.6c0.5-4.6,1.4-8.7,2.7-12.4
		c1-2.9,2.6-5.8,4.9-8.7c1.2-1.5,2.6-2.9,4.7-4.2c0.7-0.4,1.3-0.9,1.9-1.4c0.2-0.2,0.3-0.5,0.3-0.7c0-0.2-0.1-0.4-0.2-0.5
		c-0.3-0.2-0.6-0.4-0.9-0.4c-0.2,0-0.5,0.1-0.7,0.2c-3.4,1.9-6.2,4.4-8.4,7.7c-3,4.4-4.8,9.5-5.9,16c-0.4,2.5-0.6,5.1-0.9,7.5
		c-0.1,1.6-0.3,3.2-0.5,4.8c-0.2,1.6-0.5,3.6-1.3,5.5c0,0.1-0.1,0.1-0.2,0.2c0,0,0,0,0,0c0,0,0,0,0,0c-0.1-0.1-0.2-0.2-0.2-0.3
		c-0.1-0.3-0.2-0.7-0.3-1c-0.1-0.2-0.1-0.4-0.2-0.6c-0.2-0.5-0.3-1-0.4-1.6c-0.3-1.2-0.7-2.4-1.1-3.6c-0.7-2-1.2-4.1-1.8-6.1
		c-0.1-0.4-0.2-0.9-0.3-1.3c-0.4-1.4-0.3-2.8-0.3-4.2c0-0.6,0-1.2,0-1.7c0-0.4,0.2-0.9,0.5-1.3l0.1-0.2c0.9-1.8,1.5-3.6,1.8-5.4
		c0.2-1,0.5-1.9,1.2-3.1c0.3-0.5,0.5-1.1,0.7-1.5c0.2-0.5-0.1-1.3-0.6-1.7c-0.4-0.3-0.9-0.4-1.4-0.5c-0.2,0-0.4-0.1-0.6-0.1
		c-0.1,0-0.3-0.2-0.4-0.3c-0.1-0.2-0.1-0.4-0.1-0.6c0-0.1,0.1-0.2,0.1-0.3c0.1-0.4,0.2-0.9,0.5-1.2c1-1.5,2.5-2.6,4.4-3.3
		c0.5-0.2,1-0.3,1.5-0.4c0.3-0.1,0.5-0.1,0.8-0.2c1.1-0.3,2.1-0.8,3-1.5c0.6-0.5,0.9-1.5,0.6-2.3c-0.3-0.7-0.7-1.3-1.2-1.7
		c-0.8-0.6-1.7-1.2-2.6-1.6c-2-1-3.3-2.4-4-4.2c-0.6-1.5-1.6-2.6-2.7-3.9c-0.9-1-1.4-2.2-1.5-3.5c0-0.1,0.1-0.3,0.1-0.4
		c0,0,0-0.1,0.1-0.1c0-0.1,0.1-0.1,0.1-0.1c0.2,0,0.4,0,0.5,0.1l0.1,0c0.1,0,0.1,0.1,0.2,0.1c0.8,0.7,1.5,1,2.1,0.9
		c0.6-0.2,1-0.7,1.4-1.7c0.2-0.6,0.7-0.9,1.4-0.9c0.2,0,0.3,0,0.5,0c0.3,0,0.6,0,0.9,0c0.3,0.1,0.6,0.2,0.7,0.4
		c0.8,1.4,1.8,3.4,2.5,5.5c0.7,2.2,1.4,4.3,2.1,6.4c0.4,1.1,0.8,2.1,1.3,3.1c0.3,0.7,1,1.1,1.8,1.1c1.6,0,2.9-0.2,4-0.7
		c1-0.5,1.7-0.8,2.4-1.2c3.6-2.2,7.5-3.8,11.8-5.6c0.3-0.1,0.7-0.2,1-0.4l0.2-0.1c0.7-0.2,1.5,0.1,1.7,0.8c0.4,1.2,0.6,2.3,0.7,3.2
		c0,0.9-0.3,1.3-1.2,1.4c-0.3,0-0.6,0-0.9,0.1c-0.5,0-1,0.1-1.5,0.1c-1.2,0.2-2,0.8-2.5,1.8c0,0,0,0.1-0.1,0.1
		c0,0.1-0.1,0.1-0.1,0.2c-0.6,2.2-2,3.6-4,5.1c-1.4,1.1-2.7,2.1-4,3.1C155.7,167.2,154.8,169.6,155.2,172.4z M219,168.7
		c-0.3-0.4-1.1-0.6-1.7-0.4c0,0-0.1,0-0.1,0c-0.1,0-0.1,0-0.2,0.1c-3.9,1.8-8.3,3.1-13.7,4.4c-2,0.4-4,0.9-6.6,1.5
		c-6.1,1.4-11.9,4-17.2,7.6l-0.4,0.3c-1,0.7-2,1.4-2.7,2.4c-0.4,0.5-0.9,0.7-1.6,0.8c-0.2,0-0.3,0-0.5,0.1c-0.6,0.1-1.2,0.2-1.8,0.1
		c-7.2-0.1-14,1.6-20.1,5c0,0-0.1,0-0.1,0c0,0,0-0.1,0-0.1c0.1-0.2,0.3-0.3,0.4-0.5c0.5-0.7,1.1-1.4,1.7-2.1c0.9-1,1.8-2,2.7-2.9
		c0.4-0.4,0.8-0.9,1.2-1.3c5.4-5.8,11.4-10.6,17.8-14.1c2.8-1.5,5.7-2.7,8.7-3.5c3.5-1,7-1.7,10.5-2.2c4.7-0.7,9.5-1,14.4-1.3
		c6.2,0,11.5,0.9,16,2.7c0.9,0.4,1.8,0.6,2.8,0.9c0.6,0.2,1.2,0.3,1.7,0.5c0.8,0.3,1.7,0.6,2.5,1c0,0,0.1,0.3,0.1,0.3
		c-0.2,0.2-0.4,0.4-0.6,0.6l-0.1,0c-0.4,0.4-0.9,0.7-1.3,1c-0.9,0.7-1.8,1.4-2.6,2.1c-2.2,1.9-4.6,2.6-7.3,2.1
		c-1-0.2-2.1-0.2-3.1-0.2c-0.2,0-0.4,0-0.6,0c-1.4-0.1-2.8,0.4-4.2,1.2c-2.2,1.4-4.5,2.8-6.7,4.2l-0.1,0.1c-1.1,0.7-2.3,1.1-3.7,1.3
		c-0.8,0.1-1.7,0.2-2.5,0.3c-3.2,0.4-6.6,0.8-9.9,1.2c-2,0.3-3.7,0.6-5.3,1.2c-1.5,0.5-3,1.1-4.1,2.3c-0.4,0.4-0.8,0.3-1.1,0.2
		c-0.1,0-0.1-0.1-0.2-0.1c0-0.1,0-0.2-0.1-0.2c0.7-0.9,1.7-1.5,2.7-2.1l0.2-0.1c5.1-3.2,10.2-5.2,15.4-6.4c1.7-0.4,3.4-0.8,5-1.2
		c1-0.3,2.1-0.5,3.2-0.8c4-0.9,7.3-2,10.3-3.2c0.7-0.3,1.6-0.7,2.5-1.1c0.4-0.2,0.7-0.6,0.8-1C219.2,169.1,219.2,168.8,219,168.7z
		 M126.7,217.7c-0.2,0-0.3-0.1-0.4-0.2c-0.6-0.9-0.7-1.6-0.3-2.4c0.5-0.8,0.4-1.7-0.2-2.7c-0.2-0.3-0.4-0.6-0.6-0.9l-0.1-0.1
		c-0.2-0.3-0.4-0.5-0.6-0.7c-0.8-0.7-1.1-1.6-1-3c0.1-1.1,0.2-1.9,0.4-2.6c0.7-2.5,1.5-4.2,2.7-5.7c0.6-0.8,1.2-1.6,1.7-2.4
		c0.2-0.4,0.5-0.8,0.8-1.2c0.9-1.3,1.2-2.7,1-4.3c-0.1-0.6-0.1-1.3-0.1-2c0.1-1.3,0.6-2.3,1.5-3.1c0.1-0.1,0.2-0.1,0.2-0.1
		c0,0,0,0,0,0c0,0,0.1,0,0.1,0.1l0.1,0.3c0.2,0.4,0.3,0.8,0.4,1.3c0.7,3.2,1.7,6.4,2.8,9.4c0.4,1.1,0.7,2.2,1,3.3
		c0.1,0.4,0.2,0.8,0.3,1.3c0.1,0.2,0.1,0.4,0.1,0.7c0,0.1,0,0.2,0,0.3c0,0.1,0,0.1-0.1,0.2c-0.1,0.2-0.1,0.4-0.3,0.6
		c-0.2,0.3-0.4,0.6-0.6,0.8c-0.1,0.1-0.1,0.1-0.2,0.2c-0.9,1.1-1.4,2.1-1.7,3.3c-0.1,0.3-0.2,0.7-0.3,1c-0.1,0.2-0.1,0.4-0.2,0.6
		c-0.2,0.6-0.5,1-0.8,1.4c-1.5,1.7-3,3.5-4.4,5.2l-1,1.2C127,217.6,126.8,217.7,126.7,217.7z M126.5,224.6c-0.1,0.1-0.2,0.1-0.3,0.1
		c0,0-0.1-0.1-0.1-0.1c0,0-0.1-0.1-0.1-0.1c0.1-0.3,0.2-0.5,0.4-0.8c0,0,0.1,0,0.1-0.1l0,0c0.1,0.1,0.2,0.2,0.2,0.3
		C126.7,224.3,126.6,224.5,126.5,224.6z M102,212.7c0.1,0,0.1-0.1,0.1-0.1v-8.8c0-0.4,0-0.7,0-1.1l0-0.3c0-0.5,0.5-0.8,1-0.8
		c0.2,0,0.5,0,0.7,0c1,0,2,0.1,2.9,0.2c1,0.2,2.1,0.4,3.1,0.6c0.7,0.1,1.4,0.3,2.2,0.4c0.4,0.1,0.8,0,1-0.1c0.4-0.1,0.8-0.5,0.9-0.9
		c0.2-0.4,0.2-0.9,0-1.2l-0.1-0.2c-0.2-0.5-0.5-0.9-0.8-1.3c-1.5-1.6-2.8-2.8-4.4-3.7c-0.4-0.2-0.8-0.4-1.2-0.7
		c-0.9-0.5-1.8-1-2.6-1.5c-0.8-0.4-1.5-0.9-2.2-1.5c-0.9-0.8-1.3-1.7-1.2-2.8v0c0.1-0.6,0.1-1.3,0.1-2c-0.2-3,0.9-5.7,3.4-8.4
		c1.6-1.7,2.6-3.3,3.2-5.1c0.7-2,2.1-3.7,4.1-5c1.4-0.9,2.5-1,3.6-0.4c0.4,0.2,0.8,0.3,1.3,0.5c0.2,0.1,0.4,0.1,0.7,0.2
		c0.5,0.2,0.7,0.6,0.6,1.2c-0.1,0.4-0.2,0.9-0.3,1.3c-0.1,0.3-0.2,0.6-0.2,1c-0.4,1.8-0.8,3.5-1.2,5.3c0,0.1,0,0.1,0,0.2
		c-0.1,0.3-0.1,0.5-0.1,0.8c-0.1,1.8-0.3,3.5-0.5,5.2c-0.1,1.1-0.3,2.3-0.4,3.4c-0.3,3.1,0,5.9,0.8,8.4c0.3,1,0.6,1.9,0.9,2.9
		c0.3,0.9,0.6,1.9,0.9,2.9c0.7,2,1.3,3.9,1.9,5.8l0.1,0.4c0.4,1.1,0.8,2.3,1.4,3.4c0.3,0.7,0.8,1.3,1.2,1.8c0.2,0.3,0.4,0.6,0.6,0.9
		c0,0,0,0.1-0.1,0.1c0,0-0.1,0.1-0.1,0.1c-1.3-0.5-2.4-1.3-3.4-2c-0.2-0.2-0.5-0.4-0.7-0.6c-0.4-0.3-0.8-0.6-1.1-0.9
		c-2-1.4-4-1.8-6.2-1.2c-2.2,0.6-4,1.4-5.5,2.6c-1,0.8-1.6,1.8-1.6,3c0,0.3,0,0.7,0,1c0,0.5,0,1.1-0.1,1.7c-0.1,1.4-0.3,2.9-0.6,4.3
		c-0.2,0.8-0.8,1.4-1.7,1.7c-0.2,0.1-0.5,0-0.7-0.1c-0.1,0-0.2-0.1-0.2-0.3c0-0.4,0-0.8,0-1.1c0-1.5,0-3,0-4.6c0-1,0.1-2.1,0.2-3.1
		C101.9,213.6,102,213.1,102,212.7z M101.9,195.8c0-0.1,0-0.2,0-0.3c0-0.2,0-0.4,0.1-0.7c0-0.1,0.1-0.2,0.1-0.2c0,0,0.1,0,0.1,0
		c2.7,1.2,5.6,2.5,7.8,4.9c0,0,0,0.1,0,0.1c0,0,0,0.1,0,0.1c0,0.1,0,0.1,0,0.1c0,0-0.1,0.1-0.2,0.1l-0.1,0c-0.1,0-0.2,0-0.2,0
		c-2.3-0.3-4.5-0.5-6.6-0.8c-0.3,0-0.7-0.4-0.7-0.8c-0.1-0.6-0.2-1.3-0.2-1.9L101.9,195.8z M100.8,163.4c0-0.2,0-0.4,0-0.5
		c0-0.3,0.4-0.8,0.7-0.8c0.4-0.1,0.8-0.1,1.1-0.1c0.2,0,0.3,0,0.3,0c1.5-0.1,2.4,0.1,3.4,0.6c1.1,0.7,2.2,1.3,3.3,2
		c0.5,0.3,1.1,0.6,1.6,1c0.3,0.2,0.4,0.3,0.5,0.5c0,0.1-0.1,0.3-0.3,0.5c-0.2,0.2-0.5,0.4-0.7,0.6c-0.7,0.6-1.4,1.2-2.1,1.8
		c-1.2,1.2-2,2.6-2.5,4c-0.6,2.1-2,3.5-3.4,4.8c-0.1,0.1-0.3,0-0.4,0c0,0,0-0.1-0.1-0.1c0-0.5-0.1-1-0.1-1.5
		c-0.1-1.7-0.3-3.5-0.4-5.2c-0.1-1.9-0.2-4-0.6-6v0C100.8,164.4,100.8,163.9,100.8,163.4z M124.8,164.4c0-0.2-0.1-0.4-0.2-0.7
		c-0.1-0.2-0.1-0.4-0.2-0.6c-0.2-1,0.1-1.5,1.2-1.7c0.6-0.1,1.1-0.2,1.7-0.3l0.2,0c0,0,0.1,0.1,0.1,0.1c0.1,0.1,0.1,0.2,0.1,0.2
		c0.1,3.1-0.4,5.6-1.4,7.8c-1,2.2-1.8,4.5-2.5,6.6c-0.7,2-1.8,3.9-2.8,5.8l-0.1,0.2c-1.2,2.1-1.8,4.3-2.2,6c-0.4,1.6-0.3,3,0.2,4.4
		c0.2,0.6,0.7,1,1.2,1.1c0.5,0.1,1-0.1,1.5-0.5c0.4-0.4,0.9-1,1.2-1.7c0.5-1.3,0.8-2.6,1-3.6c0.1-0.6,0.3-1.2,0.4-1.9
		c0.4-1.7,0.8-3.6,1.3-5.3c0.5-1.7,1.1-2.8,2-3.8c0.3-0.3,0.6-0.7,0.9-1c0.7-0.8,1.3-1.5,2.1-2.2c1.4-1.4,3.1-2.2,4.9-2.5
		c0.1,0,0.2,0,0.3,0.2c0.1,0.1,0.1,0.2,0.1,0.3c0,0,0,0.1,0,0.1c0,0.1,0,0.1,0,0.2c-0.5,1.1-0.9,2.4-1.2,3.9
		c-0.2,0.8-0.5,1.6-0.8,2.4c-0.1,0.3-0.2,0.5-0.3,0.8c-0.1,0.3-0.3,0.7-0.4,1c-0.3,0.6-0.5,1.2-0.7,1.8c-0.3,1.1-0.8,1.9-1.7,2.7
		c-0.5,0.4-0.9,1-1.3,1.5c-0.1,0.1-0.2,0.2-0.2,0.3c-1,1.4-1.4,2.9-1.3,4.5c0.3,3,0.1,3.3-0.9,4.7c-0.2,0.3-0.5,0.7-0.7,1.1
		c-0.1,0.2-0.2,0.3-0.3,0.5c-0.2,0.4-0.5,0.8-0.8,1.2c-1.5,1.8-2.4,3.5-2.9,5.3c0,0.1-0.2,0.3-0.4,0.3c-0.1,0-0.2-0.2-0.3-0.3
		c-1.2-2.8-2-5.4-2.7-7.9c-0.4-1.4-0.7-2.8-1-4.2c-0.1-0.5-0.1-1-0.2-1.6c0-0.3,0-0.5-0.1-0.8c0.1-0.7,0.2-1.4,0.3-2.1
		c0.2-1.2,0.3-2.5,0.5-3.8c0.2-1.4,0.3-2.6,0.4-3.7c0.2-2.9,1.1-5.8,1.8-8.6l0.1-0.2c0,0,0,0,0,0c0.3-0.9,0.5-1.6,1.5-1.7
		c0.2,0,0.3-0.1,0.5-0.2c0.1,0,0.1-0.1,0.2-0.1C124.5,167.6,125.1,165.8,124.8,164.4z M127.4,153.2c0.3-0.1,0.7-0.1,0.9-0.3
		c0.3-0.3,0.7-0.5,1.1-0.8c0.9-0.6,1.8-1.3,2.6-2.2c0.7-0.8,0.9-1.8,1.2-2.7l0-0.1c0-0.1,0.1-0.1,0.1-0.2c0,0,0,0,0,0
		c0,0,0.1,0,0.1,0.1c0.2,0.2,0.4,0.4,0.5,0.6c1.2,1.3,2.5,2.7,3.1,4.5c0.7,1.7,1.9,3.2,3.8,4.2c0.2,0.1,0.5,0.3,0.8,0.4
		c0.8,0.4,1.7,0.9,2.3,1.6c0,0.1,0.1,0.2,0.1,0.4c0,0.2-0.1,0.3-0.1,0.3c-0.1,0-0.1,0.1-0.2,0.2c-0.1,0.1-0.2,0.2-0.3,0.2
		c-0.2,0.1-0.3,0.1-0.5,0.2c-0.7,0.2-1.3,0.5-2,0.6c-0.9,0.2-1.8,0.6-2.8,1.2c-2.8,1.7-4.3,3.8-4.5,6.4c-0.1,0.8-0.4,1.3-1.2,1.7
		c-1.6,0.7-2.9,1.8-3.9,2.7c-0.1,0.1-0.2,0.1-0.3,0.2c0,0-0.1,0-0.1,0.1c0,0-0.1-0.1-0.1-0.1c0-0.2,0-0.4,0-0.6
		c0.1-0.4,0.3-0.7,0.5-1.1c0.2-0.5,0.4-0.9,0.6-1.4c0.4-1,0.8-2.2,0.9-3.6c0-0.7,0.1-1.3,0.2-1.9c0-0.4,0.1-0.7,0.1-1.1
		c0.1-1,0-2-0.3-3c0,0,0,0,0,0c-0.2-0.6-0.4-1.4-1.1-1.8c-0.9-0.6-1.6-1.4-2-2.5c-0.1-0.3-0.3-0.5-0.5-0.8c-0.1-0.1-0.2-0.2-0.3-0.4
		c-0.2-0.3-0.4-0.7-0.4-0.8c0-0.1,0.4-0.1,0.7-0.1c0.1,0,0.3,0,0.4,0C126.9,153.2,127.1,153.2,127.4,153.2L127.4,153.2z M126,142.8
		L126,142.8c-0.3-0.4-0.5-0.8-0.7-1.2c0-0.1,0.1-0.3,0.1-0.3c1.2-0.3,2.4-0.5,3.7-0.7l1-0.2c0.1,0,0.3,0.1,0.4,0.1
		c0.5,0.1,1,0.3,1.6,0.4c0.3,0.1,0.5,0.5,0.5,0.9c0,0.1,0,0.2-0.1,0.3c-0.1,0.3-0.1,0.6-0.3,0.9c-0.8,1.4-1.4,2.9-1.6,4.8
		c0,0.2-0.2,0.4-0.3,0.6c0,0.1-0.1,0.1-0.1,0.2c0,0.1-0.1,0.1-0.1,0.1l0,0c-0.1,0-0.3,0-0.4-0.1C128.8,146.4,127.3,144.6,126,142.8z
		 M121.4,188.3c0,0.1-0.1,0.3-0.1,0.4c0,0,0,0,0,0c-0.1,0.2-0.2,0.4-0.3,0.5c0-0.1,0-0.2-0.1-0.3c0-0.1,0-0.2-0.1-0.2
		c0-1.2,0.5-2.3,0.8-3.1c0,0,0,0,0,0c0,0,0,0.1,0,0.1C121.9,186.5,121.6,187.4,121.4,188.3z M142.5,136.5c-0.2,0-0.4,0-0.6,0
		c-2.8-0.2-3.6-0.2-5.8,1.4c-0.6,0.5-1.4,0.7-2.5,0.6c-0.8-0.1-1.6-0.2-2.3-0.3c-1-0.2-2-0.3-3.1,0.1c-1.2,0.5-2.2,0.4-3.4-0.2
		c-0.4-0.2-0.7-0.2-1.1,0c-0.4,0.2-0.8,0.6-0.9,1.1c-0.2,0.8-0.2,1.5,0,2.4c0.2,0.9,0.7,1.8,1.4,2.7c0.8,1.1,1.6,2.1,2.4,3.3
		c0.5,0.8,0.8,1.6,0.7,2.4c0,0.2-0.2,0.5-0.4,0.7c-0.2,0.1-0.4,0.2-0.6,0.2c-0.1,0-0.2,0-0.3,0c-0.3,0-0.7-0.1-1-0.3
		c-2.8-1.7-5.8-3.8-7.8-7.1c-0.3-0.6-0.8-1.1-1.2-1.6c-0.3-0.4-0.6-0.7-0.8-1.1c-1-1.4-1.9-2.8-2.8-4.2c-0.2-0.4-0.3-0.8-0.3-1.3
		c0-0.1,0-0.2,0-0.2c0-0.1,0.1-0.3,0.2-0.4c0.3-0.2,0.6-0.3,0.9-0.4c0.1,0,0.2-0.1,0.3-0.1c0.4-0.2,0.9-0.4,1.3-0.6
		c0.9-0.4,1.8-0.8,2.7-1.2c2.3-1.1,4.3-2.6,6-4.3c0.6-0.6,1.3-1.2,1.9-1.8c1.6-1.4,3.1-2.7,4.9-3.4c0.5-0.2,0.8-0.6,0.8-1.2
		c0-0.2-0.1-0.4-0.2-0.5c-0.3-0.3-0.8-0.5-1.2-0.5c-0.6,0-1.1,0-1.7,0c-0.6,0-1.1,0-1.7,0c0,0,0,0-0.1,0c0,0,0,0,0-0.1
		c0.1-0.1,0.1-0.2,0.2-0.3c1.1-0.7,2.2-1.1,3.4-1.2c2.2-0.2,4.4-0.4,6.6-0.7l2.1-0.2c0.5,0,0.9,0,1.4,0.1c1.1,0,2.2,0.1,3.4,0.1
		c1.2,0.1,2.2,0.6,2.9,1.7c1.5,2.2,2.2,4.6,2,7.2l0,0.4c-0.1,0.7-0.1,1.5-0.1,2.3c0,1.2-0.4,2.3-1,3.8
		C146.3,135.5,144.7,136.5,142.5,136.5z M122.5,151.9C122.6,151.9,122.5,151.9,122.5,151.9c-0.3,0.1-0.6,0.1-0.9,0.1l-1.7,0.1
		c-1.1,0.1-2.2,0.1-3.3,0.2c-0.4,0-0.8,0.1-1.2,0.1c-0.2,0-0.3,0-0.5,0.1l-0.5-0.1c-0.5-0.1-0.9-0.2-1.4-0.3c0,0-0.1,0-0.1-0.1
		c0-0.1,0-0.1,0-0.1c0,0,0.1-0.1,0.2-0.1c1-0.1,1.9-0.3,2.9-0.4c0.5-0.1,1-0.1,1.4-0.2c0.2,0,0.4,0,0.6-0.1c0.5,0,0.9-0.1,1.4-0.2
		c0.4-0.2,0.7-0.2,1-0.2c0.8,0,1.4,0.4,2.1,1.1C122.5,151.7,122.5,151.8,122.5,151.9z M102.3,133.2c-2.4,0.6-4.8,0.2-7.3-1.2
		c-1.4-0.8-2.9-1.7-4.3-2.6c-0.4-0.3-0.8-0.7-1.1-1.1c-0.2-0.2-0.3-0.4-0.5-0.5c0,0,0-0.1,0-0.2c0-0.2,0.2-0.3,0.3-0.4
		c2.1-0.8,4.4-1.2,7.2-1.3c0.5,0.1,0.9,0.1,1.4,0.1c1.1,0.1,2.2,0.2,3.2,0.4c1.2,0.2,2.4,0.5,3.6,0.7c0.4,0.1,0.9,0.2,1.3,0.3
		c2.1,0.4,3.9,0.2,5.7-0.6c0.5-0.3,1.1-0.5,1.6-0.7c0.5-0.2,1-0.4,1.4-0.7c2-1,4.2-1.6,6.7-2c0.5-0.1,1-0.2,1.5-0.2
		c0.5-0.1,1-0.2,1.5-0.2c0.1,0,0.2,0,0.4,0.1c0,0,0.1,0,0.1,0c0,0,0,0,0,0.1c0,0.1,0,0.3-0.1,0.3c-0.4,0.4-0.8,0.8-1.1,1.1
		c-1,1-2.1,2.1-3.2,3c-3.7,3-7.5,4.6-11.5,4.8c0,0,0,0,0,0C106.9,132.5,104.5,132.7,102.3,133.2z M106.2,135.5
		c-0.2,0.6-0.4,1.2-0.7,1.8c-0.5,1.3-0.9,2.6-1.4,3.8c-0.4,0.9-0.8,1.8-1.2,2.6c-0.2,0.3-0.3,0.6-0.5,1c0,0-0.1,0-0.1,0
		c-0.1-0.1-0.3-0.2-0.3-0.3c0-0.2,0-0.5,0-0.6c0,0,0-0.1,0-0.1c0.1-2.3,0.5-4.6,1.3-7.1c0.4-1.2,0.8-1.7,2.2-1.7c0.1,0,0.2,0,0.4,0
		c0.1,0,0.2,0.1,0.3,0.2C106.2,135.3,106.2,135.5,106.2,135.5z M95.3,175.2c0.1,1.1,0.2,2.2,0.3,3.3c0,0.6,0.1,1.3,0.2,1.9
		c0.1,0.4,0.1,0.7,0.2,1.1c0.1,0.7,0.2,1.3,0.2,1.9l0.1,0.7c0,0.2,0,0.4,0,0.5c0,0.4,0,0.8-0.1,1.2c-0.1,0.3-0.3,0.6-0.5,0.9
		c0,0.1-0.1,0.1-0.1,0.2c-0.1,0.1-0.2,0.2-0.4,0.2c-0.1,0-0.3,0-0.3-0.1c-2.2-2-3.6-4.4-4.3-7c-0.3-1-0.5-2.1-0.7-3.1l-0.1-0.5
		c-0.2-0.8-0.1-1.6,0.3-2.2c1.5-2.5,3-5,4.4-7.5c0,0,0.1,0,0.1,0c0,0,0.1,0.1,0.1,0.1c0,0.2,0.1,0.4,0.1,0.6
		C94.8,170,95.1,172.7,95.3,175.2z M94.2,160.4c0,0.4,0,0.7-0.2,1c-1.1,2.9-2.3,6.1-4.4,8.9c0,0-0.1,0.1-0.1,0.1
		c-0.3-0.1-0.3-0.2-0.4-0.2c-0.2-0.6-0.5-1.2-0.6-1.9c-0.5-2.3-1.3-4.6-2.5-7c-0.9-1.9-1.4-3.7-1.5-5.4c0-0.1,0.1-0.3,0.2-0.4
		c0,0,0.1-0.1,0.2-0.1c0,0,0,0,0.1,0c2.3,0.5,4.1-0.5,5.4-1.5c0.4-0.3,0.8-0.6,1.2-0.9l0.4-0.3c0,0,0.1,0,0.2,0
		c0.2,0,0.3,0.1,0.4,0.3c0,0.1,0.1,0.2,0.1,0.3c0.1,0.2,0.2,0.4,0.3,0.6c0.7,2,1,4.1,1.2,5.9C94.2,160,94.2,160.2,94.2,160.4z
		 M92.9,146.2c-0.3,0.8-0.6,1.7-1,2.5c-0.8,1.8-2.2,3.2-4.1,4.2c-0.9,0.5-1.8,0.6-2.8,0.2c-1-0.4-1.8-0.9-2.5-1.6
		c-1.4-1.4-3.2-2.1-5.3-2.2c-1.4-0.1-2.6-0.5-3.6-1.3c-0.4-0.3-1-0.5-1.5-0.8c-0.2-0.1-0.4-0.2-0.6-0.3c-1.6-0.7-2.5-1.9-2.5-3.5
		c0-1.9-0.6-3.7-1.2-5.3c-1.1-3.1-1.6-5.7-1.5-8c0-1.7,0-3.2,0.8-4.7c0.3-0.5,0.8-0.9,1.3-0.9c0,0,0.1,0,0.1,0
		c0.4,0,0.7,0.1,1.1,0.2c0.3,0.1,0.6,0.1,0.9,0.2c0.2,0,0.5,0.1,0.7,0.1c0.6,0.1,1.3,0.2,2,0.2c1.7,0,3.4,0.3,5.5,1.1
		c1.6,0.6,3.3,1.1,4.9,1.6l0.9,0.3c1.4,0.4,2.6,1.1,3.7,2.1c2.1,2,4.8,3.4,7.1,4.5c0.1,0,0.2,0.1,0.2,0.1c0.2,0.1,0.4,0.2,0.6,0.3
		c0.1,0.1,0.2,0.3,0.2,0.5l0,0c0,0,0,0.1,0,0.2l-0.6,1.8C94.9,140.5,93.9,143.4,92.9,146.2z M70.7,71.7c0,0,0.2,0.2,0.1,0.4
		c0,0,0,0,0,0c-1.1,1.9-1.7,4-2.2,6c-0.1,0.4-0.2,0.7-0.3,1.1c-0.2,0.7-0.5,1.5-0.7,2.2c-0.6,1.7-1.2,3.4-1.3,5.2
		c0,0.2-0.2,0.3-0.3,0.3c-0.1,0-0.2,0-0.2-0.2c0.1-1.9,0.7-3.7,1.3-5.4c0.2-0.7,0.5-1.5,0.7-2.2c0.1-0.3,0.2-0.7,0.3-1
		c0.6-2,1.2-4.1,2.2-6c0,0,0-0.1,0.1-0.1c0,0,0,0,0-0.1c0,0,0,0,0-0.1c0,0,0,0,0,0c0,0,0,0,0,0c0.1-0.1,0.2-0.2,0.2-0.4c0,0,0,0,0,0
		c0.1,0.1,0.1,0.1,0.1,0.1v0.1C70.6,71.6,70.7,71.7,70.7,71.7z M76.9,73.5L76.9,73.5c0.1,0.1,0.2,0.1,0.3,0.2
		c1.6,0.6,2.4,1.9,2.8,4.1c0.4,2,0.8,4.3,0.6,6.6c-0.1,1.1-0.1,2.3-0.1,3.4c0,1.1-0.1,2.2-0.1,3.3c-0.1,1.4,0.1,2.7,0.3,4
		c0.1,0.7,0.2,1.3,0.3,2c0.1,1.2,0.3,2.3,0.5,3.5c0,0.3,0.1,0.6,0.1,0.9c0.3,1.7,0.6,3.5,1.2,5.3c0.1,0.2,0.2,0.3,0.3,0.5
		c0.3,0.5,0.4,0.8,0.1,1.1c-0.2,0.2-0.5,0.1-1-0.1c-0.1-0.1-0.3-0.1-0.4-0.2c-0.6-0.2-1.2-0.4-1.8-0.6c-0.7-0.2-1.3-0.4-2-0.6
		c-1.5-0.4-2.7-1.2-3.6-2.2c-0.2-0.2-0.4-0.4-0.6-0.6c-0.2-0.2-0.4-0.4-0.5-0.6c-1.1-1.3-2.3-2.7-3.8-3.9c-0.5-0.4-0.9-0.9-1-1.6
		c-0.1-0.4-0.3-0.9-0.4-1.3c-0.2-0.4-0.3-0.8-0.4-1.2c-0.1-0.5-0.2-1-0.3-1.6c0-0.2-0.1-0.5-0.1-0.7c0.1-0.5,0.2-1.1,0.3-1.6
		c0.2-1.2,0.4-2.4,0.7-3.6c1.1-3.9,2.2-7.8,3.4-11.6c0.5-1.5,1.1-3,1.7-4.5c0.2-0.6,0.5-1.2,0.7-1.7c0.4-1.1,1.2-2.2,2.3-3.2
		c0,0,0.1,0,0.1-0.1c0.1,0.1,0.2,0.2,0.2,0.3c-0.1,0.5-0.2,1.1-0.3,1.6c-0.1,0.8-0.3,1.6-0.4,2.3C75.6,72.1,76,72.9,76.9,73.5z
		 M135.4,102.3c0.1,3.3-1,6.5-3.3,9.5c-1.9,2.5-3.6,4-5.7,5c-1.5,0.7-2.7,1.8-3.5,3.2c-0.4,0.7-1,1-1.8,1.1c-0.1,0-0.2,0-0.3,0
		l-0.1,0c-2.8,0.5-5.8,1.5-8.9,3c-1.1,0.5-2,1-3.1,1.1c-0.5,0.1-1,0.1-1.5-0.2c-0.1-0.1-0.3-0.3-0.3-0.4c0-0.4,0-0.9,0.2-1.2
		c0,0,0,0,0,0c0.9-2.3,1.9-4.1,2.9-5.7l0.5-0.7c0.7-1.1,1.4-2.2,2-3.3c0.6-1,1.4-1.7,2.3-2.2l0.2-0.1c0.7-0.4,1.4-0.7,2.2-1
		c1.2-0.5,2.1-1.3,2.8-2.5l0-0.1c0.1-0.2,0.2-0.4,0.3-0.5c0.7-1.7,2-2.9,4.3-3.8c0.2-0.1,0.3-0.1,0.5-0.2c0.1,0,0.3-0.1,0.4-0.1
		c1.2-0.4,2.2-1.2,2.9-2.3c0.9-1.4,2.1-2.6,3.3-3.7c0.4-0.4,0.8-0.8,1.2-1.2c0.3-0.3,0.7-0.6,1.1-0.9c0.2-0.1,0.3-0.2,0.5-0.3
		c0.1-0.1,0.2-0.1,0.2-0.1c0.1,0,0.1,0,0.2,0c0,0,0.1,0.1,0.1,0.2c0,0.9,0.1,1.7,0.1,2.7c0,0.8,0.1,1.7,0.1,2.7
		C135.4,100.6,135.4,101.5,135.4,102.3z M101.1,104.4c0.6,0.2,1.3,0.5,1.9,0.7c0.4,0.2,0.8,0.3,1.2,0.5c0.7,0.2,1.5,0.5,2.4,0.2
		c1-0.3,2-0.4,3-0.5c0.7-0.1,1.3-0.1,2-0.2c0.5-0.1,1-0.2,1.5-0.2c1.1-0.2,2.3-0.3,3.5-0.7c0.8-0.3,1.5-0.3,2.2-0.1
		c0.1,0,0.2,0.1,0.3,0.2c0,0,0,0.1,0,0.1c-0.6,2-1.4,3.5-3.3,4.2c-0.4,0.1-0.8,0.3-1.1,0.5c-0.1,0.1-0.3,0.2-0.4,0.2
		c-1.7,0.9-3,2.1-3.9,3.7c-0.5,0.8-0.9,1.6-1.4,2.3c-1.3,2.1-2.5,4.2-3.5,6.5c-0.1,0.2-0.1,0.3-0.2,0.5c-0.3,0.6-0.4,1-0.6,1.1
		c-0.3,0.1-0.8-0.3-1.7-1c-1.4-1.1-2.9-2.2-4.2-3.3c-0.7-0.5-1.4-1.1-2.1-1.6c0,0,0,0,0,0c-2.5-1.9-5.2-3.8-8.3-5.8
		c-0.6-0.4-1.1-0.8-1.5-1.2c-0.1-0.1-0.1-0.3-0.1-0.5c0.1-0.3,0.2-0.6,0.4-0.8c1.7-2.2,3.5-3.7,5.7-4.5c0.5-0.2,1-0.4,1.5-0.7
		c0.6-0.3,1.2-0.4,1.5-0.4c0.1,0,0.1,0,0.1,0c0,0,0,0,0,0C97.9,103.5,99.4,103.8,101.1,104.4z M98.8,102.3c0.3,0,1.1,0,3,0.4
		c0,0,3.2,0.5,3.4,0.4c0.3-0.1,0.7-0.1,1,0c0.2,0,0.4,0,0.6,0c1-0.1,1.9-0.3,2.8-0.6l0.4-0.1c0.2-0.1,0.5-0.1,0.7-0.2
		c1.8-0.5,3.7-0.9,5.5-0.9c0.1,0,0.2,0.1,0.2,0.1c0,0,0,0,0,0c0,0,0,0.1,0,0.1c0,0.1-0.1,0.2-0.2,0.2c-0.9,0.3-1.7,0.5-2.5,0.7
		c-0.6,0.1-1.2,0.3-1.8,0.5c-0.7,0.2-1.4,0.4-2.2,0.5c-1.8,0.3-3.3,0.4-4.8,0.2C101.7,103.4,99.4,102.7,98.8,102.3z M119.5,97.8
		C119.5,97.8,119.4,97.8,119.5,97.8c-1.6-2.4-4.3-3.9-7.1-4.7c-1.9-0.5-3.8-0.8-5.7-1.3c-2-0.5-3.9-1.3-5.6-2.4
		c-3.4-2.1-6.5-4.1-10.5-4.6c-0.8-0.1-1.6-0.2-2.4-0.1c0.2-0.1,0.3-0.1,0.5-0.1c0.1,0,0.3,0,0.4,0c0.4,0,0.8-0.1,1.2-0.1
		c0.2,0,0.5,0,0.7,0c0.9,0.1,1.6-0.2,2.3-0.5c1.3-0.7,2-1.8,2.1-3.4c0-0.3,0-0.5,0.1-0.8c0-0.2,0-0.4,0-0.5c0.1,0.1,0.2,0.2,0.2,0.3
		c0.9,2.4,1.2,2.6,3.4,2.7c0.9,0.4,1.7,0.3,2.6,0.3c0.1,0,0.3,0,0.4,0c0.3,0,0.6,0,0.9,0.1c0.6,0.1,1.2,0.2,1.8-0.1l2.2,0.4
		c0,0,0,0,0.1,0c0.9-0.2,1.7-0.1,2.9,0.2l0.4,0.1c0.8,0.2,1.6,0.5,2.4,1c0.4,0.3,1,0.3,1.8,0.1c0.2-0.1,0.4-0.1,0.5-0.2
		c0.2-0.1,0.5-0.2,0.7-0.2c0.3-0.1,0.8,0.2,1,0.5c0,0,0.1,0.1,0.1,0.1c0,0,0.1,0.1,0.1,0.1c0.2,0.6,0.5,1.3,0.8,1.9
		c0.5,1,0.9,2,1.1,3.1c0,0.3,0.2,0.5,0.3,0.7c0,0.1,0.1,0.2,0.1,0.3c0.1,0.1,0.1,0.3,0.2,0.4c0,0,0,0.1,0.1,0.1
		c0.3,0.2,0.5,0.6,0.5,1.1c0,0.3,0,0.6,0,0.9c0,1,0,2.1,0.3,3.1C120.2,96.7,120,97.3,119.5,97.8z M91.7,87c3.6,0.8,6.4,3,9.5,4.8
		c3,1.7,6.3,2.2,9.6,3c1.9,0.5,3.9,1.2,5.4,2.4c-2.1-0.5-4.3-0.8-6.5-0.8c-1.9,0-3.8,0.1-5.6-0.3c-1.6-0.3-3.2-1-4.6-1.8
		c-5.1-2.8-10.4-7-16.4-5c0.1-0.3,0.3-0.5,0.4-0.7c0.1-0.2,0.3-0.4,0.5-0.6C86,86.4,89.1,86.5,91.7,87z M83.2,91.4
		c5.9-2.5,11.7,3.2,16.7,5.5c2.8,1.3,5.7,1.6,8.8,1.6c2.4,0,4.7,0.1,6.9,0.7c-2.1,0-4.3,0.4-6.4,1.2c0,0,0,0,0,0
		c-1.5,0.6-3,0.7-4.5,0.3c-1.7-0.5-3.4-0.5-5.1-0.2c-0.7,0.2-1.4,0.2-2.1,0.2c-0.2,0-0.3,0-0.5,0c-1.5,0-2.9,0.4-4.2,1.1
		c-2.4,1.3-4.4,2.5-6,4.3c-0.3,0.3-0.6,0.6-1,0.8c-0.1,0-0.3,0-0.3,0c-0.2-0.3-0.5-0.7-0.6-1.1c-0.3-1.2-0.6-2.6-0.9-3.9
		c-0.2-1.3-0.4-2.6-0.6-3.8c-0.2-1.3-0.4-2.5-0.6-3.8c-0.2-1-0.2-1.9-0.1-2.9C82.8,91.5,83,91.4,83.2,91.4z M66.4,100.1
		c1.4,0.9,2.6,2,3.9,3.5c0.3,0.3,0.6,0.7,0.8,0.9c0.1,0.1,0.2,0.2,0.2,0.3l0.4,0.5c0.5,0.5,0.9,1,1.2,1.4c0,0,0,0,0,0
		c1.7,1.4,4.1,2.4,7.5,3.2c0.1,0,0.1,0.1,0.2,0.1c0,0,0,0.1,0.1,0.1c1.3,0.5,2.7,1.1,4.2,2c3.5,2.2,6.7,4.3,9.7,6.6
		c1.3,1,2.7,2.1,4,3.1l1,0.8c0,0,0,0.1,0.1,0.1c0,0,0,0-0.1,0c-0.1,0-0.2,0.1-0.2,0.1c-1.4-0.3-2.8-0.9-4.1-2
		c-2-1.5-4.1-3.1-6.1-4.7c-0.7-0.6-1.4-1.2-2.1-1.8c-0.4-0.4-0.8-0.7-1.2-1c-1.5-1.2-3-2.1-4.7-2.6c-0.7-0.2-1.4-0.5-2-0.7
		c-3.6-0.9-6.1-2.3-7.7-4.2c0,0,0,0,0,0c0,0,0,0,0,0c0,0,0,0,0,0c-1.9-1.6-3.7-3.4-5.3-5.4c0,0,0-0.2-0.1-0.3c0,0,0,0,0-0.1
		C66.2,100.2,66.4,100.1,66.4,100.1z M69,107C69,107,69,107,69,107C69,107,69,107,69,107c0.1,0,0.2,0,0.2,0c0.3,0.3,0.6,0.5,1,0.8
		c0.4,0.3,0.7,0.6,1.1,0.9c1.3,1.1,2.8,1.9,4.4,2.5l0.6,0.2c1.5,0.6,3.1,1.2,4.7,1.8c1.2,0.4,2.2,0.9,3.2,1.7
		c0.4,0.3,0.8,0.7,1.3,1.1c3.2,2.8,5.9,5.1,8.9,7.1c0.1,0.1,0.2,0.3,0.2,0.4c0,0.1-0.2,0.1-0.4,0.2c-0.5,0.1-1,0.2-1.5,0.3
		c-0.5,0.1-1,0.2-1.5,0.3c-1.5,0.4-2.9,0.7-4.2,1.4c-0.7,0.4-1.4,0.5-2.1,0.2c-0.9-0.3-1.7-0.6-2.6-0.8c-0.2-0.1-0.4-0.1-0.6-0.2
		c-1.8-0.5-3.4-1.5-4.7-2.9c-1.9-2-4.2-4.8-5.7-8.2c-0.1-0.2-0.2-0.5-0.3-0.7C70.1,111.3,69.2,109.2,69,107
		C68.9,107.1,69,107.1,69,107z M112.2,141.3c0-0.1,0.1-0.2,0.1-0.3c0,0,0.1,0,0.1,0.1c0.2,0.1,0.4,0.3,0.5,0.4
		c0.1,0.1,0.2,0.3,0.3,0.4l0.1,0.1c0,0,0,0,0,0.1c0,0,0.1,0.1,0.1,0.1c0,0,0,0,0,0c0,0.1-0.1,0.3-0.2,0.4c0,0,0,0,0,0
		c-0.3,0.2-0.6,0.3-0.8,0.2c-0.2-0.1-0.2-0.3-0.3-0.4c0-0.1,0-0.3,0-0.5c0-0.1,0-0.2,0-0.3C112.1,141.5,112.1,141.4,112.2,141.3z
		 M132.2,116.2c-0.1,0-0.3,0-0.4,0c0,0-0.1,0-0.1,0c0,0,0,0,0,0c0-0.1,0-0.3,0.3-0.5l0.1-0.1c0.1-0.1,0.2-0.3,0.3-0.4
		c1.4-1.4,2.5-2.9,3.5-4.6c1-1.7,2.4-3.3,3.7-4.7c0.4-0.4,0.8-0.8,1.1-1.2c1.5-1.7,3.3-3.7,5.1-5.8c0.4-0.5,0.7-0.9,1-1.4
		c0.7-1.2,1.4-2.3,2.2-3.5c1.2-1.9,2.5-3.9,3.6-6c0.2-0.3,0.3-0.6,0.5-0.8c0.1-0.1,0.2-0.1,0.3-0.2c0,0,0,0,0.1,0
		c0.1,0.1,0.1,0.3,0.2,0.4c-0.1,0.8-0.2,1.6-0.4,2.4c-0.2,1.7-0.5,3.4-0.9,5.1c-0.6,2.2-1.4,4-2.5,5.4l-0.7,1
		c-1.9,2.6-3.8,5.3-6.1,7.7c-1.7,1.8-3.4,3.2-5.1,4.2C135.9,114.1,134.1,115.2,132.2,116.2z M145.7,109.3c0.4-0.6,0.9-1.1,1.3-1.7
		c1.1-1.5,2.2-3,3.4-4.4c2.6-3.3,4.2-7.3,4.9-12.4l0.1-0.6c0.2-1.5,0.4-3.1,0.7-4.7c0.1-0.7,0.4-1.4,0.6-2c0.1-0.3,0.2-0.5,0.3-0.8
		c0,0,0.1-0.1,0.2-0.1c0.2-0.1,0.4-0.1,0.5,0c0.9,0.4,1.5,1,2.1,1.6c1,1.1,1.7,2.3,2.4,3.6c0.6,1.1,1.3,2.3,1.9,3.4l0.7,1.3
		c0.2,0.4,0.2,0.8-0.1,1c-1.7,1.7-3,3.7-4.2,5.7c-0.2,0.4-0.5,0.8-0.8,1.2c-0.3,0.4-0.6,0.8-0.9,1.3c-1.4,2.4-3.5,4.2-6.7,5.8
		c-2,1-4,1.7-6.1,2.2c0,0-0.1,0-0.1-0.1c-0.1,0-0.1-0.1-0.1-0.1C145.7,109.4,145.7,109.3,145.7,109.3z M154.9,68
		c0,1.2-0.1,2.3-0.2,3.3c-0.1,0.7-0.2,1.4-0.3,2.1c-0.3,2.2-0.7,4.6-0.8,6.9c0,0.8-0.4,1.5-0.7,2.1l-0.8,1.4
		c-1.2,2.1-2.5,4.3-3.7,6.5l-0.2,0.4c-0.9,1.6-1.9,3.2-2.9,4.8c-1.8,2.6-4.1,5.6-6.9,8.2c0,0-0.1,0-0.2,0l0,0c-0.1,0-0.1,0-0.1,0
		c0,0-0.1-0.1-0.1-0.2c-0.1-1.2-0.1-2.4-0.2-3.7l-0.1-1.1l0-0.9c0-0.9,0.1-1.9,0.1-2.9c0-0.8,0.2-1.5,0.4-2.3c0.7-2.6,1.1-5.3,1.2-8
		c0.1-2.9-0.6-5.3-2-7.5c-0.1-0.1-0.1-0.2-0.2-0.3c-0.1-0.2-0.2-0.4-0.3-0.5c-0.5-0.7-0.6-1.5-0.6-2.5v0c0-0.4,0.1-0.8,0.1-1.2
		c0-0.7,0.1-1.4,0.2-2.2c0.4-2.3,0.6-4.7,0.6-7.1c0-0.8,0.3-1.4,1-1.8l0.4-0.3c0.8-0.5,1.6-1,2.5-1.5c0.6-0.3,1.3-0.5,2.1-0.5
		c0.1,0,0.3,0,0.4,0c0.8,0.1,1.5,0.4,2,0.9c0.8,0.8,1.3,1.8,1.8,2.8c0.1,0.3,0.3,0.5,0.4,0.8c0.3,0.6,0.6,1.3,1,1.9
		c0.5,0.8,1.2,1.2,2.1,1.2c0.9,0,1.9-0.1,2.7-0.2c0.6-0.1,0.9-0.1,1.1,0.1C154.9,67,154.9,67.3,154.9,68z M137.2,84.6l-0.2,1.1
		c-0.2,1.3-0.4,2.9-0.7,4.4c-0.1,0.3-0.2,0.6-0.4,0.8c-1.1,0.8-2.3,1.7-3.4,2.5c-0.4,0.3-0.8,0.6-1.2,0.9c-0.1,0-0.1,0-0.2,0
		c-0.2,0-0.3-0.2-0.3-0.3c-0.6-1.7-0.6-3.1,0.1-4.4c1.2-2.5,1.4-5.2,0.5-7.9c-0.3-1-0.2-1.9,0.4-2.7c0.1-0.2,0.3-0.4,0.4-0.6
		c0.5-1,0.4-2-0.2-3c-0.1-0.2-0.3-0.4-0.4-0.7c-0.3-0.4-0.6-0.9-0.8-1.3c-0.1-0.2-0.1-0.6-0.2-0.9c0-0.1,0-0.2,0-0.4
		c0,0,0-0.1,0.1-0.2c0,0,0,0,0,0c0,0,0.1,0,0.1,0l0,0c0.2,0.1,0.3,0.2,0.5,0.3c1.7,2.1,3.3,4.3,4.6,6.6
		C136.6,80.4,137.1,82.2,137.2,84.6z M134.8,66.5c-0.1,1.6-0.2,3.1-0.6,4.6c0,0.1-0.1,0.3-0.2,0.4c-0.3-0.1-0.5-0.2-0.7-0.4
		c-0.6-0.7-1.2-1.5-1.8-2.2l-0.3-0.4c-0.2-0.2-0.3-0.4-0.5-0.7c-0.2-0.2-0.3-0.5-0.5-0.7c-0.3-0.4-0.9-0.6-1.4-0.4
		c-0.6,0.2-0.8,0.7-0.9,1.1c-0.1,0.2-0.1,0.5-0.1,0.7c-0.1,1.5,0,3.1,0.5,5.1c0.2,0.9,0.7,1.6,1.2,2.3c0.1,0.1,0.2,0.3,0.3,0.4
		c0.3,0.5,0.3,1,0,1.4c-0.1,0.1-0.1,0.3-0.2,0.4c-0.1,0.3-0.3,0.5-0.4,0.8c-0.4,0.7-0.5,1.5-0.3,2.4c0.1,0.3,0.2,0.7,0.3,1
		c0.1,0.3,0.2,0.6,0.2,1c0.4,1.9,0.3,3.7-0.5,5.2c-0.9,1.8-1,3.7-0.4,5.7c0.1,0.2,0.1,0.4,0.1,0.5c0,0.1,0,0.3,0.1,0.4
		c0.3,1.3,0.1,2.2-0.8,2.9c-0.2,0.2-0.3,0.4-0.5,0.5l-0.2,0.3c-1.2,1.7-1.2,1.7-2.6,2.3c-0.4,0.2-0.9,0.4-1.6,0.7
		c-0.9,0.4-1.5,0.2-2.2-0.5c-0.1-0.1-0.2-0.2-0.3-0.3c0-0.1-0.1-0.1-0.1-0.2c-0.1-0.1-0.1-0.3-0.1-0.4c0-0.1,0.1-0.2,0.1-0.3
		c1.7-1.3,2.3-3.1,1.6-5.3c-0.2-0.6-0.1-1.1,0-1.7c0-0.2,0-0.4,0.1-0.5c0.1-1-0.1-1.9-0.7-2.7c-0.5-0.7-0.9-1.6-1.2-2.7
		c-0.2-0.9-0.6-1.8-1-2.6c-0.1-0.3-0.3-0.6-0.4-0.9c-0.3-0.8-0.3-1.4,0.1-2.1c0.7-1.3,1.4-2.6,2-3.9c0.1-0.3,0.2-0.6,0.3-0.9
		c0-0.1,0.1-0.2,0.1-0.3c0.1-0.3-0.3-0.8-0.6-1c-0.1,0-0.2-0.1-0.3-0.1c-0.2,0-0.5,0.1-0.7,0.3c-0.2,0.2-0.4,0.5-0.6,0.9
		c-0.2,0.4-0.4,0.8-0.6,1.2c-0.2,0.4-0.4,0.8-0.6,1.2c-1.1,2.1-1.1,2.1-3.2,2.7l-0.1,0c-0.6,0.2-1,0.2-1.5,0
		c-0.6-0.2-1.2-0.4-1.7-0.5c-0.8-0.2-1.6-0.4-2.4-0.9c-0.2-0.1-0.5-0.1-0.8-0.1c-0.1,0-0.2,0-0.3,0c-0.1,0-0.2,0-0.3,0
		c-0.1,0-0.3,0-0.3,0c-1.1-0.7-2.2-0.7-3.6-0.3c-0.6,0.2-1.4,0.2-2.1,0.1c-0.3,0-0.6,0-0.9,0c-0.4,0-0.7-0.1-0.9-0.4
		c-0.2-0.2-0.3-0.6-0.2-1c0.1-0.7,0.3-1.3,0.4-2c0.2-0.8,0.4-1.7,0.5-2.6c0.7-3.5,1.3-6.7,2.1-9.8c0.4-1.5,0.6-3.1,0.6-5
		c0-0.6,0-1.2,0-1.7c0-1.4,0.1-2.9,0-4.3c0-1.3,0.4-2.5,1.3-3.6c0.1-0.1,0.1-0.2,0.2-0.3c0.2-0.3,0.4-0.5,0.7-0.7
		c1.6-1.7,3-3,4.3-4.3c0,0,0,0,0,0c1-0.9,1.8-1.5,2.7-1.9c1.6-0.7,3-0.5,4.2,0.5c0.4,0.4,0.8,0.8,1.1,1.2c0.7,0.8,1.5,1.4,2.7,2.1
		c1.5,0.9,3,0.6,4.1-0.7c0.3-0.4,0.6-0.8,0.8-1.2c0.2-0.3,0.3-0.5,0.5-0.8c0.1-0.2,0.4-0.3,0.6-0.3c0.2,0,0.5,0,0.7,0.2
		c0.3,0.3,0.7,0.6,1,0.9c1,0.9,2,1.7,2.9,2.7c1.5,1.7,2.4,3.7,2.5,6c0.1,1.5,0.3,3.1,0.4,4.6c0.1,0.9,0.2,1.9,0.3,2.8
		c0.1,0.9,0.1,1.9,0.2,2.7c0,0.4,0,0.7,0.1,1C134.8,64.9,134.8,65.7,134.8,66.5z M107.9,42.9c-0.5,0.6-1.1,1.3-1.7,1.8L106,45
		c-1.8,1.8-3.7,3.6-4.8,6.1c-0.2,0.6-0.8,0.9-1.8,1.1c-0.3,0.1-0.7,0.1-1,0.2c-0.7,0.2-1.5,0.3-2.3,0.5c-0.7,0.2-1.4,0.4-1.7,0.6
		c-0.1,0-0.2,0.1-0.2,0.1L93.5,54c-0.5,0.3-0.8,0.4-1.1,0.6c-0.1,0.1-0.2,0.1-0.3,0c0,0-0.1,0-0.1-0.1c0-0.1,0-0.4,0.1-0.5
		c0,0,0,0,0,0c0.3-0.3,0.6-0.7,0.9-0.9l0.4-0.3c0.7-0.5,1.4-1,2.2-1.4c3-1.4,5.4-3.3,7.3-5.8c1.2-1.5,2.6-2.6,4.1-3.3
		c0.3-0.1,0.6-0.1,0.9-0.2c0.1,0,0.2,0,0.3,0c0,0,0.1,0,0.1,0.1c0,0,0,0.1,0,0.1C108.3,42.5,108.1,42.7,107.9,42.9z M92.1,57.7
		c1.3-1.4,3-2.3,5.2-2.8c0.7-0.2,1.5-0.3,2.2-0.4c0.3,0,0.5-0.1,0.8-0.1c0.1,0,0.1,0,0.2,0c0.2,0,0.4,0.1,0.5,0.2
		c0.2,0.1,0.3,0.3,0.3,0.6c0,0.7,0,1.5,0,2.2c0,0.3,0,0.6,0,0.9c0,2.6-0.4,5-1,7.6c-0.3,1.2-0.6,2.5-0.8,3.7
		c-0.1,0.6-0.3,1.3-0.4,1.9l-0.2,0.7c-0.3,1.3-0.5,2.6-0.9,3.9c-0.1,0.3-0.2,0.8-0.3,0.9c-0.1,0-0.6-0.4-0.7-0.5
		c0,0-0.1-0.1-0.1-0.1c-0.2-0.2-0.4-0.4-0.6-0.5c-0.5-0.4-1.3-0.4-2-0.1C93.4,75.8,93,76.4,93,77c0,0.7,0,1.4,0,2c0,0.4,0,0.9,0,1.3
		c0,0.5-0.4,0.9-0.9,1.1c-0.4,0.1-0.8,0.3-1.3,0.3c-0.7,0.1-1.5,0.2-2.3,0.3c-0.8,0.1-1.6,0.3-2.2,0.9c-0.5,0.6-1.2,0.8-2,1
		c-0.2,0.1-0.5,0.1-0.7,0.2c-0.1,0-0.2,0-0.3-0.1c-0.1-0.1-0.2-0.2-0.2-0.3c0-0.3-0.1-0.6-0.1-0.9c0-0.6-0.1-1.2-0.2-1.8
		c-0.5-2.4-0.1-4.4,1.3-6.2c0.7-1,1.3-2.1,1.8-3.2c0.2-0.4,0.4-0.8,0.6-1.2c0.9-1.8,1.6-3.4,2.1-5c0.3-0.9,0.6-1.8,0.9-2.7
		c0.4-1,0.7-2,1.1-3.1c0,0,0,0,0,0C91,59.1,91.4,58.4,92.1,57.7z M88.9,57.3c-0.1,0.7-0.2,1.4-0.4,2c-0.2,0.7-0.5,1.3-0.7,2
		c-0.3,0.8-0.6,1.6-0.8,2.4c-1,3.4-2.7,6.5-4.4,9.5l-0.3,0.5c-0.1,0.2-0.2,0.3-0.4,0.4c-0.1,0-0.1,0.1-0.2,0.1c-0.1,0-0.1,0-0.1,0
		c0,0-0.1,0-0.1,0L81.2,74c-0.7-0.7-1.5-1.4-2.1-2c-0.3-0.3-0.4-0.6-0.2-1.1c0.2-1.1,0.6-2.5,1.5-3.6c0.3-0.3,0.5-0.7,0.8-1.1
		c0.7-1,1.4-2,2.3-2.9c1.9-1.7,3.5-3.8,5.3-6.5c0,0,0.1,0,0.1-0.1l0,0c0.1,0.1,0.2,0.2,0.2,0.3L88.9,57.3z M81.6,48.2
		c-0.1,0.1-0.3,0.2-0.5,0.2c-0.3,0-0.7,0-1-0.1c-0.4,0-0.9-0.1-1.3-0.1c-1-0.1-2,0.2-3,0.8c-1.7,1-3.1,2.3-4.1,4
		c-0.8,1.3-1.1,2.6-1.1,3.9c0,0.5,0,1,0,1.5c0,0.5,0,1,0,1.5c0,1.4-0.2,2.7-0.7,3.9c-0.3,0.7-0.6,1.5-0.8,2.2
		c-0.1,0.4-0.3,1-0.2,1.4c0.4,1,0,1.9-0.4,2.7c0,0.1-0.1,0.2-0.1,0.3c-1.3,2.9-2.1,6-3.1,9.6c-0.2,0.7-0.4,1.3-0.6,2l-0.1,0.3
		c0,0.1-0.1,0.1-0.1,0.2c0,0,0,0,0,0c0,0,0-0.1-0.1-0.2c-0.5-2.2-0.7-4.5-0.7-6.5c-0.1-2.1,0-3.9,0.4-5.7v0c0.6-3,1.3-6.4,2.4-9.8
		c0.3-0.9,0.5-1.8,0.8-2.7c0.1-0.5,0.3-1,0.4-1.5c0.1-0.3,0.2-0.6,0.3-1c0.1-0.4,0.3-0.9,0.4-1.3c0.6-2.2,1.8-4.2,3.8-6.1
		c1.6-1.5,3.6-2.4,5.9-2.7c0.2,0,0.3,0,0.5,0c0.9,0,2.2,0.3,2.9,1.9c0.1,0.1,0.1,0.2,0.1,0.4c0,0.1,0.1,0.2,0.1,0.3
		C81.8,47.7,81.8,48,81.6,48.2z M59.6,129c-0.3-0.1-0.7-0.2-1-0.4v0c-1.8-0.8-3.4-1.5-4.9-2.2c-1-0.5-2-1-3-1.6
		c-1.7-1-3.6-1.9-5.8-1.9c-1.1,0-2.2-0.3-3.4-1c-1.2-0.7-2.4-1.5-3.7-2.4c-3.3-2.3-6.7-4.6-10.9-4.4c-0.1,0-0.2,0-0.2-0.1
		c0,0,0-0.1-0.1-0.1c0,0,0,0-0.1,0c0.2-0.3,0.6-0.4,1.2-0.3c4.9,0.9,9.6,2.5,13.8,4.7c1,0.6,2.1,1.1,3.2,1.6
		c0.8,0.4,1.7,0.8,2.6,1.2c3.2,1.7,7,3.6,10.7,5.6c0.1,0.1,0.2,0.1,0.3,0.2c0.5,0.3,1.1,0.6,1.4,1.1C59.7,129,59.6,129,59.6,129z
		 M63.6,128.6c-0.6-0.3-1.3-0.7-2-1.2c-1.6-1.1-3.4-2.1-5-3l-0.2-0.1c-2.8-1.5-5.7-3-8.5-4.3c-1.9-1-4-1.9-5.9-3
		c-2.3-1.2-4.7-2.1-7.6-2.9c-3.2-0.9-6.8-1.6-10.8-2.4c-0.4-0.1-0.9-0.2-1.3-0.2c-3.2-0.2-6.2-1-9.2-1.8c-0.4-0.1-0.9-0.2-1.3-0.3
		c0,0-0.1,0-0.1-0.1c0,0,0,0,0-0.1c0-0.1,0.1-0.2,0.2-0.2c0.4-0.1,0.8-0.3,1.2-0.5c1.2-0.5,2.5-0.9,3.8-1.3l0.5-0.1
		c3.2-0.8,6.6-1.6,9.8-2.6c1.6-0.5,3.2-0.9,4.5-1.1c0.8-0.2,1.7-0.2,2.5-0.3c0.4,0,0.7-0.1,1.1-0.1c0.4,0.1,0.8,0.1,1.1,0.1
		c0.8,0.1,1.5,0.2,2.2,0.3c2.3,0.5,4.7,1.3,7.7,2.4c3.8,1.4,7.4,3.7,10.9,6.9c0.3,0.2,0.5,0.5,0.8,0.7c1.5,1.4,3.1,2.8,4.5,4.4
		c0.1,0.2,0.3,0.3,0.4,0.5c0.6,0.7,1.2,1.3,1.7,2c0.1,0.1,0.2,0.2,0.3,0.4c0.9,1.2,1.2,1.5,0,3.3c-0.5,0.8-0.7,1.7-0.8,2.5
		c-0.1,0.6-0.2,1.1-0.4,1.7C63.9,128.5,63.7,128.6,63.6,128.6z M50.1,157.1c-4.4,1.2-9.1,1.7-13.9,1.7c-1,0-1.9,0-2.9,0
		c-0.5,0-1,0-1.5,0c-3.6,0-6.9-1.2-9.7-2.4c-0.4-0.2-0.7-0.4-0.8-0.8c-0.1-0.3,0-0.8,0.3-1.2c0-0.1,0.1-0.1,0.1-0.2
		c0.2-0.3,0.4-0.6,0.6-0.9l0.3-0.4c0.7-0.8,1.4-1.6,2.2-2.3c2.6-2.3,5.4-4.3,8.5-6c1.6-0.9,2.8-1.8,3.8-2.9c0.6-0.7,1.2-1.4,1.7-2.1
		c0.2-0.2,0.3-0.5,0.5-0.7c0.1-0.2,0.2-0.3,0.3-0.5c1.5-2.1,3.6-3.3,6.4-3.5c0.2,0,0.4,0,0.7,0c0.1,0,0.1,0,0.2,0l0.2,0
		c5.8-0.1,10.4,0.1,14.8,0.6c0.7,0.1,1.4,0.2,2,0.3c0.3,0.1,0.9,0.3,1.2,0.9c0.5,1.4,1,2.9,1.4,4.3l0.1,0.5c0.1,0.2,0,0.4-0.1,0.6
		c-0.1,0.2-0.2,0.3-0.4,0.3l-0.4,0c-0.6,0.1-1.3,0.2-2,0.2c-0.8,0.1-1.7,0.1-2.5,0.2c-1.5,0.1-3,0.2-4.5,0.3
		c-3.9,0.4-8,0.9-11.9,2.1c-2,0.6-3.8,1.5-5.4,2.7c-0.2,0.1-0.3,0.4-0.3,0.7c0,0.2,0,0.4,0.1,0.5c0.4,0.3,0.7,0.5,0.9,0.5
		c0.4,0,0.9-0.1,1.3-0.4c2.6-1.5,5.6-2.4,9.5-3c1.1-0.1,2.2-0.3,3.2-0.5c0.9-0.1,1.8-0.3,2.7-0.4c0.9-0.1,1.8-0.2,2.7-0.2
		c0.5,0,0.9,0,1.4,0c1.6,0,3.3-0.1,5-0.4c0.3-0.1,0.7,0.1,1,0.5c0,0.1,0.1,0.1,0.1,0.2c0.6,2,2.1,3,3.5,3.6c0.2,0.1,0.4,0.2,0.6,0.3
		c0.3,0.1,0.6,0.2,0.9,0.4c0.5,0.3,0.9,0.6,1.3,1c0.1,0.1,0.2,0.2,0.3,0.2c0.2,0.2,0.2,0.5,0.1,0.7c0,0,0,0,0,0
		c-0.5,0.7-1.2,1.4-2.2,2c-2.4,1.4-4.9,2.6-7.2,3.6c-1,0.4-2.1,0.5-3.8,0.4c-0.2,0-0.4-0.1-0.7-0.1c-0.8-0.1-1.8-0.3-2.7-0.5
		C54.8,156.5,52.5,156.5,50.1,157.1z M59,159.7c0.9,0.1,1.7,0.2,2.5,0.2c1.4,0.1,2.7-0.2,4-0.8c0.4-0.2,0.9-0.4,1.3-0.6
		c1.2-0.6,2.4-1.2,3.5-1.8c2-1,4.3-2.3,5.8-4.6c0.1-0.2,0.5-0.4,0.7-0.4c1.3-0.1,2.7,0.3,3.7,1.1c0.9,0.7,1.4,1.7,1.5,2.7
		c0.2,2.4,0.8,4.7,1.8,6.9c1.8,3.9,2.9,7.7,3.2,11.4c0.1,0.9,0.2,1.8,0.3,2.8c0.5,2.9,1.2,6.2,3.4,9.1c0.6,0.8,1.1,1.5,1.7,2.1
		c0.7,0.7,0.9,1.5,0.6,2.6c-0.2,0.7-0.2,1.6,0,2.7c0.1,0.3,0.1,0.6,0.2,0.9c0.4,2.2,0.9,4.5,1.9,6.6c0.1,0.1,0.1,0.3,0.1,0.4
		c0,0.1,0,0.1,0.1,0.2c0.1,0.3-0.1,0.8-0.4,1c-1.4,0.8-2.6,1.9-3.8,3c-0.5,0.5-1.1,1-1.7,1.5c-1.7,1.4-2.9,3.1-4.2,4.9
		c-1.1,1.6-1.3,3.3-0.4,4.9l0.1,0.2c0.2,0.3,0.4,0.7,0.4,1c0.1,0.4,0.1,0.9,0.1,1.2c-0.1,0.3-0.2,0.7-0.3,1
		c-0.1,0.2-0.1,0.4-0.2,0.6c-0.3,0.9-0.3,1.7-0.1,2.7c0.3,1.3,1.3,2.4,2.6,2.6c1.2,0.2,2.3,0.3,3.4,0.2c1-0.1,2-0.1,3-0.1
		c0.3,0,0.7,0,1,0c0.2,0,0.5,0.3,0.5,0.5c0,0.1,0,0.2,0,0.3c0,0.2,0.1,0.4,0,0.7c-0.1,3.3,0.3,6.6,0.6,9.8c0.1,0.9,0.2,1.7,0.3,2.6
		c0.3,3.1,0.5,6.2,0.7,9c0.1,1.2,0.2,2.4,0.1,3.7H59V159.7z M95.8,206.1c0.1,0.9,0.2,1.8,0.2,2.7c0,1.6,0,3.1,0,4.3
		c0,0.3,0,0.6,0,0.8l-0.1,2c-0.1,2.6-0.2,4.6-0.3,6.7c0,0.6-0.3,0.9-0.8,1c-1.9,0.5-3.8,0.6-5.9,0.4c-0.1,0-0.3-0.1-0.4-0.1
		c-0.1,0-0.1,0-0.2-0.1c-0.4-0.1-0.9-0.7-0.9-1.1l0-0.1c0-0.4,0-0.8,0-1.2c0.1-0.3,0.2-0.7,0.3-1c0-0.1,0.1-0.2,0.1-0.3
		c0.6-1.5,0.5-2.8-0.4-4c-0.9-1.3-0.8-2.5,0.4-4.1c1.5-1.9,2.9-3.7,4.8-5.1c0.6-0.4,1.1-0.9,1.6-1.3c0.3-0.3,0.6-0.5,1-0.8
		c0,0,0.1,0,0.2,0c0.1,0,0.1,0,0.2,0c0.1,0,0.2,0.1,0.2,0.2v0C95.7,205.4,95.8,205.7,95.8,206.1z M105.9,250.9l-0.1,0.2
		c-0.6,0.9-1.1,1.7-1.5,2.7c-0.8,2.3-1.3,4.5-1.3,6.6c-0.1,4.7-0.2,10,0.4,15.1c-0.9-0.1-1.9-0.1-2.8,0.1c-0.3-3.3-0.6-6.6-0.6-9.9
		c0-2.2-0.1-4.3-0.3-6.4c-0.3-3-0.2-6-0.2-8.9l0-0.3c0.1-2.8-0.1-5.7-0.5-8.6c-0.9-6.9-1.2-12.9-1-18.4c0.1-4,0.2-8.2,0.3-12.1l0-1
		c0-1,0-2,0-3c0-0.8,0-1.6,0-2.4c0-2.2-0.4-4.2-1.2-6c-0.6-1.4-0.9-2.8-1.2-4.3c-0.1-0.6-0.2-1.3-0.4-1.9c-0.1-0.4-0.1-0.9,0-1.3
		c0.1-0.4,0.2-0.8,0.5-1.2c0.2-0.3,0.4-0.5,0.7-0.8c0.1-0.1,0.1-0.1,0.2-0.2c1.6-1.5,2.1-3.4,1.8-5.7c0-0.2-0.1-0.5-0.1-0.7
		c-0.1-0.4-0.2-0.8-0.2-1.3c0-1.8-0.2-3.5-0.4-5.3c-0.2-1.4-0.3-2.9-0.4-4.3c-0.1-2.8-0.3-5.8-0.6-8.7l0-0.4
		c-0.2-1.9-0.4-3.8-0.7-5.8c-0.2-1.6-0.5-3.4-1.5-4.9c-0.8-1.2-0.8-2.1-0.1-3.7c0.9-1.9,1.7-4.1,2.4-6.9c0.4-1.5,1-3,1.8-5
		c0.2-0.6,1.1-0.8,1.9-0.6c0.1,0,0.3,0.2,0.3,0.3c0,0.4,0,0.9-0.1,1.3c-0.4,1.3-0.6,2.7-0.8,4c-0.1,0.6-0.2,1.1-0.3,1.7
		c-0.2,0.9-0.1,1.8-0.1,2.7c0,0.4,0.2,0.9,0.4,1.3c0.3,0.6,0.8,0.9,1.4,1c0.5,0.1,1-0.1,1.4-0.4c0.5-0.4,1-1,1.3-1.6
		c1-1.8,1.9-3.7,2.6-6.2c0.4-1.3,1-3,2.2-4.4c0.1-0.1,0.3-0.1,0.4-0.1l0,0c0,0,0.1,0.1,0.1,0.1c0.1,0.2,0.1,0.4,0.2,0.6
		c0.1,0.8,0.1,1.6,0,2.3c-0.2,1.7-0.1,3.1,0,4.3c0.1,1-0.1,1.6-0.7,2.1c-3.2,2.6-5.8,5.8-8.2,9l-0.2,0.2c-1.1,1.3-1.7,2.6-2.2,3.8
		c-0.2,0.5-0.1,1,0.3,1.4c0.2,0.2,0.5,0.2,0.7,0.2c0.2,0,0.4-0.1,0.4-0.2c0-0.1,0.1-0.1,0.1-0.2c0.1-0.1,0.2-0.2,0.3-0.4
		c0.8-2,2.1-3.6,3.4-5.2l0.3-0.3c2.3-2.8,4.5-5.4,7.5-7.4c0.6-0.4,1.2-0.7,1.9-0.9l0.1,0c1.1-0.4,1.4-0.5,2.4,1
		c0.4,0.5,0.8,1.1,1.2,1.5c0.2,0.3,0.5,0.5,0.7,0.8c0.1,0.1,0.1,0.1,0.1,0.2c0,0.1-0.1,0.1-0.1,0.1c-1.2,0.5-2.5,0.6-3.9,0.7
		c-1.2,0.1-2.3,0.4-3.3,1c-0.8,0.5-1.2,1.2-1.2,2.1c0,0.5,0.2,1,0.6,1.3c0.7,0.4,1.4,0.7,2.3,0.7c1.1,0.1,2.2,0.1,3.2,0.1
		c0.4,0,0.8,0,1.1,0l0.8-0.1c0.7-0.1,1.3-0.1,1.9-0.2c0.4,0,0.9,0,1.3,0c2.3,0.1,3.5,1,4.1,3.4c0.2,0.8,0,1.2-0.9,1.7
		c-0.1,0.1-0.2,0.1-0.3,0.2c-0.3,0.1-0.6,0.3-0.9,0.5c-1.1,0.9-1.4,1.9-1.1,3.1c0.1,0.2,0.1,0.4,0.2,0.6c0.1,0.3,0.2,0.7,0.3,1
		c0.1,0.3,0,0.7-0.2,0.9c-0.2,0.3-0.5,0.5-0.9,0.5c-0.6,0.1-1.3,0.2-2,0.1c-1.7-0.1-3.3-0.6-4.7-1.5c-1-0.6-2-1.2-3-1.7
		c-1.4-0.8-2.9-1.6-4.3-2.6c-1.4-1-3.1-1.4-4.9-1.1c-0.8,0.1-1.8,0.3-2.6,0.5c-1,0.2-1.7,1.1-1.6,2.1c0,0.4,0.1,0.9,0.2,1.3
		c0.8,4.7,1.2,9.8,1.2,16.1c0,1.8,0,3.6,0,5.4c0,2.5,0,5.2,0,7.8c0,1.3,0.1,2.6,0.1,3.9c0.1,1,0.1,2.1,0.1,3.2
		c0.1,5.1,0,10.5-0.2,16.5c-0.1,2.8-0.2,5.3-0.3,7.7c0,0.5,0,1.1,0.1,1.6c0,0.1,0,0.3,0,0.4c0,0.3,0.1,0.7,0.1,1
		c0.1,0.9,0.2,1.8,0.1,2.7c-0.2,3.3,0.1,6.6,0.9,9.9c0.4,1.6,0.4,3.3,0.5,4.9c0,0.5,0,1,0.1,1.6c0.1,1,0.2,2.2,0.6,3.3
		c0.1,0.2,0.2,0.4,0.3,0.6c0.1,0.3,0.6,0.5,0.9,0.6c0.2,0,0.6,0.1,0.8-0.1c0.4-0.4,0.8-0.7,1.2-1.1c0.2-0.2,0.3-0.3,0.5-0.5
		c0.2-0.2,0.6-0.2,0.7-0.2l0,0.1c0.1,0.2,0.3,0.5,0.3,0.8C106.2,250.2,106.1,250.6,105.9,250.9z M106.9,238c-0.5,1.8-1.1,3.8-1.1,6
		c0,1.6-0.9,2.5-1.9,3.2c-0.1,0.1-0.2,0.1-0.4,0c0,0-0.1-0.1-0.1-0.2c-0.1-0.7-0.1-1.3-0.2-2c-0.1-1.3-0.2-2.7-0.4-4.1
		c-0.1-0.9-0.2-1.8-0.3-2.6c-0.1-1-0.2-2-0.3-3c-0.1-0.9-0.1-1.9-0.2-2.8c0-0.5-0.1-0.9-0.1-1.4c0,0,0,0,0,0c0,0,0-0.1,0-0.1
		c0-0.3-0.1-0.5-0.1-0.8c-0.1-0.6-0.1-1.2-0.2-1.9c-0.3-2.3-0.3-2.3,1.7-3c1.3-0.5,2.2-1.4,2.8-2.9c0.3-0.9,0.5-1.9,0.6-3
		c0-1.2,0.1-2.5,0.1-3.7c0-1.2,0.5-2,1.5-2.7c2-1.2,3.6-1.8,5.2-1.8c1,0,1.8,0.2,2.5,0.6c0.4,0.3,0.9,0.6,1.3,0.9
		c0.2,0.1,0.4,0.3,0.6,0.4c0.4,0.2,0.7,0.5,1.1,0.7c0.8,0.6,1.7,1.2,2.6,1.7c1.1,0.6,1.8,1.4,2.4,2.6c0.1,0.3,0.3,0.6,0.4,0.8
		c0.8,1.7,0.8,1.7-0.1,3.6c-0.1,0.2-0.2,0.4-0.4,0.7c-0.3,0.5-0.6,1.1-1,1.7c-0.1,0.2-0.3,0.3-0.5,0.4c-0.1,0-0.2,0.1-0.2,0.1
		c-0.1,0-0.2,0.1-0.3,0.1c-3.4,0.5-6.2,2.2-8.6,3.8C110.2,231.3,108.1,234.1,106.9,238z M120.1,232.1c-3.2,2.2-5.6,5.2-7.2,9.2
		c-1.2,3.1-2.3,6.4-3.3,9.9c0,0.1-0.2,0.2-0.4,0.3l0,0c0,0-0.1,0-0.1,0c-0.6-1.7-0.9-3.5-1-5.2c0-0.3,0-0.6,0-0.9c0-0.1,0-0.3,0-0.4
		c0-2.9,0.6-5.9,2-8.7c0.9-2,2.1-3.4,3.8-4.6c0.2-0.2,0.5-0.3,0.7-0.5c0.8-0.5,1.5-1.1,2.3-1.6c2.5-1.5,5.2-2.2,8.2-2.3h0
		c0.2,0,0.4,0.1,0.5,0.2c0.1,0.1,0.2,0.3,0.1,0.4c-0.1,0.9-0.3,1.6-0.4,2.3c0,0.2-0.1,0.4-0.3,0.4c-0.1,0-0.2,0.1-0.2,0
		C123,230.3,121.5,231.1,120.1,232.1z M144.4,266.4c0.7,2.3,1.6,4.5,2.4,6.3c1,2.4,2.1,4.4,3.5,6.2c1.1,1.4,2.3,3.1,3,5.2
		c0,0.1,0,0.1,0,0.2c0,0.1-0.1,0.1-0.1,0.1c-0.1,0-0.2,0-0.2,0c-2.4-1.2-4.5-2.9-6-4.2c-1-0.9-2.2-1.7-3.5-2.6
		c-3.1-2-6.4-4.1-9.6-6.2c-2.2-1.4-4.3-2.8-6-4.8c-0.4-0.5-1-0.9-1.6-1.3c-2.2-1.6-4-3.6-5.5-5.4c-1.2-1.5-2.1-3.2-2.8-5.3
		c-0.9-2.9-1-5.8-0.3-8.9c0.1-0.4,0.2-0.9,0.4-1.2c1.8-3.9,4-7,6.7-9.5c0,0,0.1,0,0.1,0c0,0,0.1,0,0.1,0c0.1,0,0.2,0.1,0.3,0.2
		c0,0.1,0.1,0.3,0.1,0.4c0.1,0.3,0.1,0.6,0.2,0.9c0.1,0.5,0.1,1,0.2,1.7c0.3,4.6,1.5,9.1,2.7,12.8c0.6,1.8,1.4,3.6,2.6,5.5
		c0.4,0.7,0.9,1.4,1.3,2.2c1.3,2.1,2.6,4.3,4,6.5c1,1.6,2.2,3.1,3.3,4.6c0.4,0.6,0.8,1.1,1.2,1.7c0.1,0.2,0.4,0.5,0.8,0.7
		c0.3,0.1,0.8,0.2,1.1,0c0.2-0.1,0.4-0.5,0.4-1c0-0.2-0.1-0.5-0.3-0.7c-0.1-0.1-0.2-0.3-0.3-0.4c-0.3-0.5-0.7-1-1-1.5
		c-2.2-2.8-4.1-5.8-5.8-8.8c-0.8-1.3-1.6-2.6-2.4-3.9c-2-3.1-3-6.6-3.7-9.3c-1.3-5.2-2-9.8-1.9-14.3l0-0.3c0-0.6,0-1.2,0.1-1.7
		c0.3-3.6,0.7-4.1,3.1-6.6c2.2-2.2,4.7-3.7,7.6-4.5c0.2-0.1,0.5-0.1,0.7-0.2c1.9-0.5,3.8-1.1,6-1c0.9-0.1,1.9,0.2,3,0.8
		c2.7,1.5,4.8,3.6,6.2,6.3c0.8,1.5,1.4,2.9,1.9,4.3c1.5,4.1,2.9,8.6,3.6,13.3c0,0.1-0.2,0.3-0.3,0.3c0,0-0.1,0-0.2,0
		c-0.1,0-0.1-0.1-0.2-0.1l-0.1,0c-0.3-0.2-0.7-0.4-1.1-0.6c-0.8-0.5-1.6-0.9-2.3-1.5c-1.2-1-2.6-1.8-3.9-2.5
		c-0.8-0.4-1.6-0.9-2.4-1.4c-0.6-0.4-1.4-0.6-2.1-0.8c-0.2,0-0.3-0.1-0.5-0.1c-0.6-0.2-1.3-0.4-1.9-0.6c-0.6-0.2-1.3-0.4-1.9-0.6
		c-1.5-0.4-2.5-1.1-3.4-1.9c-0.5-0.5-1-0.9-1.6-1.3c-0.3-0.2-0.6-0.4-0.9-0.5c-1.4-0.8-2.9-1.7-4.1-2.9c-0.7-0.6-1.5-0.8-2.7-0.5
		c-0.8,0.2-1.4,0.7-1.6,1.3c-0.2,0.7-0.1,1.4,0.4,2c0.9,1,1.7,1.7,2.7,2.1c1.4,0.6,2.5,1.5,3.5,2.9l0.1,0.1c0.2,0.2,0.3,0.5,0.5,0.7
		c2.3,2.5,3.1,5.7,3.5,8.1l0,0.2c0.1,0.8,0.3,1.6,0.3,2.4c0.2,1.7,0.7,3.4,1.1,4.9c0.4,1.2,0.8,2.7,1.1,4.2
		C142.5,260.2,143.5,263.5,144.4,266.4z M273.7,252.6H143.4c-0.1-0.5-0.3-0.9-0.5-1.4c-0.6-1.5-0.9-3.3-1.2-5.6
		c-0.1-0.6-0.1-1-0.2-1.4c-0.7-3.9-1.9-6.8-4-9.1c-0.2-0.3-0.4-0.6-0.6-0.9c-0.1-0.2-0.2-0.3-0.3-0.5c0-0.1-0.1-0.1-0.1-0.2
		c0,0,0.1-0.1,0.2-0.1c0,0,0.1,0,0.2,0c0.4,0.3,0.9,0.7,1.3,1c0.8,0.7,1.6,1.4,2.6,1.7c1.1,0.3,2.2,0.7,3.2,1l1.3,0.4
		c0.1,0,0.1,0,0.2,0.1c0.2,0.1,0.3,0.1,0.5,0.1c1.2,0.3,2.3,0.9,3.3,1.5c2.2,1.3,4.2,2.6,6.1,3.9c1.1,0.8,2.3,1.5,3.4,2.1
		c0.4,0.2,0.9,0.5,1.3,0.7c0.1,0.1,0.3,0.1,0.5,0.2c0.1,0,0.1,0,0.2,0.1c0.3,0.1,0.7,0,1.1-0.2c0.3-0.3,0.6-0.6,0.5-1
		c0-0.7,0-1.4-0.2-2c-0.9-5.5-2.5-11.2-4.8-16.8c-0.4-1-1-2.1-1.7-3.3c-1.7-2.9-4.1-5.1-7.1-6.6c-1.3-0.7-2.6-1-4-0.9
		c-0.1,0-0.3,0-0.4,0c-0.5,0-1.1,0.1-1.6,0.2c-2.6,0.5-4.8,1.1-6.8,1.8c-2,0.7-3.7,1.7-5.2,3.1c-0.5,0.4-1,0.9-1.5,1.3
		c-0.1,0.1-0.2,0.1-0.3,0.1c-0.1,0-0.2-0.1-0.3-0.2c-0.5-0.8-0.5-1.5-0.1-2.1c0.9-1.2,1.8-2.5,3.1-4l0,0c0.6-0.8,1.3-1.6,2-2.2
		c0.3-0.3,0.8-0.4,1.2-0.6c0.3-0.1,0.6-0.2,0.9-0.4c0.4-0.2,0.9-0.5,1.3-0.8c0.2-0.1,0.3-0.2,0.5-0.3c0.2-0.1,0.3-0.2,0.5-0.3
		c0.3-0.2,0.6-0.4,0.9-0.6c0.2-0.1,0.6-0.1,0.8,0c0.3,0.1,0.5,0.3,0.8,0.4c0.1,0.1,0.2,0.2,0.4,0.2c3.9,2.3,7.5,3.4,11.2,3.4
		c0.3,0,0.6,0,0.9,0.1c0.2,0,0.5,0.1,0.7,0.1c0.5,0,0.9,0.1,1.4,0.1c1.3,0.1,2.7,0.2,4,0.2c4.8,0.1,9.6,0.1,13.8,0.1
		c1.5,0,3,0,5.1-0.1c5.8-0.3,10.6-1.7,14.6-4.3c0.6-0.4,1.3-0.7,1.9-1c3.6-1.3,7.3-1.7,10.8-1.1c0.8,0.1,1.8,0.3,2.7,0.4
		c0.4,0,0.7,0,1.1,0c0.1,0,0.2,0,0.3,0c0.3,0,0.7-0.3,0.9-0.6c0.2-0.4,0.3-0.8,0.2-1.1c-0.5-1.6-1.3-2.8-2.4-3.7
		c-1.3-1.1-2.5-2.3-3.6-3.7c-3.7-4.6-8.5-8-14.3-10.1l0,0c-1.8-0.7-3.8-1.4-5.6-2.1c-0.5-0.2-1-0.5-1.4-0.8c0-0.1-0.1-0.3,0-0.4
		c0.2-0.2,0.4-0.5,0.7-0.6c2-0.9,3.8-1.3,5.5-1.5c1.7-0.2,3.5-0.4,5.2-0.7c2.4-0.4,5-0.7,7.5-0.9c1.8-0.1,3.5-0.6,4.9-1.4
		c2.3-1.4,4.6-2.8,6.8-4.3c1.1-0.7,2.2-1.1,3.4-1.1c0.6,0,1.1,0,1.7,0.1c0.3,0,0.7,0,1,0.1l0.4,0c1,0,1.9,0.1,2.9,0.1
		c1.9,0,3.7-0.6,5.4-1.8c0.5-0.3,0.9-0.7,1.3-1.1c0.3-0.2,0.5-0.4,0.8-0.6l0,0c1.6-1.3,3.3-2.6,5.3-3.3c0.5-0.2,0.8-0.5,0.9-1.1
		c0.2-0.5-0.2-1.3-0.7-1.6l-0.3-0.1c-0.6-0.3-1.2-0.7-1.9-0.9c-1.3-0.5-2.8-0.9-4.5-1.4c-1.3-0.4-2.9-0.9-4.4-1.5
		c-1.2-0.5-2.1-0.8-3-1c-1.7-0.4-3.5-0.6-5.3-0.9c-0.5-0.1-1.1-0.1-1.6-0.2c-2.7-0.4-5.6-0.4-8.8-0.1c-1.2,0.1-3.1,0.3-4.2,0.3
		c-5.3,0.3-10.5,1.3-14.7,2.2c-4.8,1.1-8.8,2.5-12.3,4.5c-6.9,3.8-12.9,8.6-18,14.1c-0.6,0.6-1.1,1.2-1.7,1.8
		c-2.3,2.5-4.7,5-6.6,7.9c-0.2,0.4-0.6,0.7-0.9,1c-0.1,0.1-0.3,0.3-0.4,0.4c0,0,0,0,0,0c-0.1-0.1-0.1-0.2-0.1-0.2c0-0.1,0-0.2,0-0.2
		c0-0.4,0.1-0.7,0.2-1c1.1-3,2.5-5.4,4.4-7.4c1.3-1.4,2.5-3,3.6-4.5l0.2-0.2c1.4-1.9,2-3.9,1.8-6.1c-0.1-0.7-0.1-1.4-0.1-2
		c0-1.2,0.5-2.3,1.4-3.2c0.7-0.7,1.4-1.3,2.2-1.9l0.2-0.1c0.7-0.6,1.4-1.1,2-1.5c1.9-1.4,4-3.2,4.9-6c0.2-0.6,0.7-0.9,1.5-0.9
		c0.3,0,0.5,0,0.8,0c0.6,0,1.3,0,1.9-0.1c1-0.2,1.7-0.8,2-1.8l0-0.2c0.1-0.4,0.2-0.8,0.2-1.2c-0.1-1.1-0.2-2.2-0.4-3.4
		c-0.1-0.6-0.4-1.2-0.8-1.9c-0.7-1.2-2-1.8-3.3-1.5c-1.3,0.3-2.3,0.6-3.2,1c-4,1.7-7.8,3.4-11.5,5.7c-0.7,0.4-1.5,0.8-2.3,1.1
		c-0.2,0.1-0.5,0.2-0.7,0.3c-0.3,0.1-0.6,0.2-0.9,0.1c-0.3,0-0.6-0.1-0.8-0.3c-0.2-0.3-0.4-0.6-0.6-1.1c-0.2-0.4-0.3-0.9-0.5-1.3
		c-0.5-1.2-1-2.5-1.3-3.8c-0.8-3-2-5.8-3.6-8.7c-0.1-0.1-0.1-0.2-0.2-0.3c0-0.1-0.1-0.2-0.1-0.3c-0.1-0.2,0-0.5,0.2-0.7l0.2-0.1
		c0.3-0.2,0.6-0.3,1-0.5c1.9-0.9,3.2-2.3,4-4.5c1.4-3.6,1.2-7.3,0.8-10.4c-0.1-0.6-0.3-1.3-0.7-2c-0.6-1.1-1.2-2.2-2.1-3.5
		c-0.5-0.7-1.2-1.3-2.2-1.6c-1.3-0.4-2.6-0.6-4-0.6c-0.8,0-1.6,0-2.3-0.1c-0.2,0-0.4,0-0.6,0c0,0,0,0,0,0c0-0.1,0.1-0.2,0.1-0.2
		c0.2-0.1,0.4-0.3,0.7-0.4c0.5-0.3,1.1-0.7,1.7-0.9c1-0.4,2-0.8,3-1.2c2.1-0.8,4.2-1.7,6.4-2.3c1.3-0.4,2.5-1,3.7-1.6l0,0
		c2.8-1.5,4.9-3.3,6.3-5.6c0.4-0.6,0.8-1.1,1.1-1.7c0.4-0.6,0.9-1.3,1.3-1.9c1.2-1.9,2.4-3.8,4.2-5.2c0.1-0.1,0.1-0.1,0.2-0.2l0,0
		c0.5-0.5,0.6-1.5,0.2-2.1c-1.1-1.4-1.9-2.9-2.7-4.4c-0.4-0.8-0.9-1.7-1.4-2.5c-0.9-1.4-1.9-3-3.6-4.1c-0.9-0.6-1.3-1.3-1.2-2.4
		c0-0.3,0-0.6-0.2-0.8c-0.3-0.3-0.7-0.5-1.3-0.5c-0.1,0-0.2,0-0.2,0c0,0-0.1,0-0.1,0c-0.2,0-0.4-0.1-0.5-0.2
		c-0.1-0.1-0.1-0.2-0.1-0.5c0.1-0.6,0.2-1.3,0.3-1.9c0.2-1.4,0.5-2.9,0.7-4.4c0.1-1.1,0.2-2.3,0.1-3.7c0-0.6-0.3-1.3-0.6-2
		c-0.3-0.8-1.3-1.2-2.2-1c-0.3,0.1-0.5,0.1-0.8,0.2c-0.4,0.1-0.8,0.2-1.2,0.3c-1.2,0.3-1.8,0-2.3-1c-0.2-0.3-0.3-0.6-0.5-1
		c-0.3-0.6-0.6-1.2-0.9-1.7c-0.4-0.6-0.8-1.2-1.4-1.9c-1.4-1.7-3.2-2.2-5.6-1.7c-0.7,0.2-1.3,0.5-1.9,0.7c-0.6,0.3-1.3,0.7-1.9,1
		l-0.5,0.3c-0.1,0-0.2,0-0.3,0c-0.1-0.1-0.2-0.2-0.2-0.3c0-0.2-0.1-0.4-0.1-0.6c-0.1-0.8-0.3-1.6-0.3-2.4c-0.1-0.6-0.1-1.2-0.1-1.8
		c0-0.4,0-0.8-0.1-1.3c-0.2-2.9-1.4-5.6-3.6-7.9c-0.8-0.9-1.8-1.7-2.7-2.5c-0.3-0.3-0.6-0.5-0.9-0.8c-0.4-0.4-0.8-0.6-1.3-0.8
		c-1.3-0.6-2.3-0.4-3,0.4c-0.3,0.3-0.5,0.7-0.7,1c-0.1,0.2-0.3,0.5-0.4,0.7l0,0.1c-0.2,0.3-0.5,0.7-0.8,0.9
		c-0.2,0.2-0.6,0.2-0.8,0.2c-0.5-0.2-1-0.5-1.4-0.8c-0.4-0.3-0.7-0.7-1-1c-0.4-0.4-0.7-0.8-1.1-1.1c-1.8-1.5-3.6-2-5.4-1.4
		c-1.3,0.4-2.6,0.4-3.9,0.1c-1.3-0.3-2.6-0.1-4,0.7c-0.8,0.4-1.5,1-2.2,1.6c-0.9,0.8-1.7,1.7-2.6,2.7c-0.9,1.1-1.8,2.1-2.9,2.8
		c-1.8,1.1-3.6,2.2-5.5,3.2c-0.1,0.1-0.4-0.1-0.6-0.1c-0.1,0-0.1,0-0.2-0.1c-0.1,0-0.2-0.1-0.3-0.2c-0.1-0.1-0.2-0.1-0.3-0.2
		c-0.5-0.3-1.1-0.2-1.4,0.2c-0.3,0.3-0.5,0.6-0.8,0.9c-0.2,0.2-0.3,0.4-0.5,0.6c-0.2,0.2-0.6,0.2-0.7,0.1c-1.2-0.7-2.1-1.7-2.6-2.9
		c-0.2-0.4-0.4-0.9-0.5-1.4c-0.1-0.4-0.3-0.8-0.4-1.2c-0.2-0.6-0.5-1.3-0.9-1.8c-0.7-1.1-1.6-1.8-2.8-2c-2.9-0.5-5.6,0.1-7.8,1.7
		c-3.4,2.4-5.5,5.2-6.3,8.6c-0.2,0.9-0.5,1.8-0.7,2.5c-0.2,0.6-0.3,1.1-0.5,1.7c-0.2,0.7-0.4,1.5-0.6,2.2c-1.1,3.3-1.9,6.9-2.6,10.7
		c-0.1,0.8-0.3,1.7-0.5,2.8c0,0.2-0.1,0.3-0.2,0.3c-0.1,0-0.2,0.1-0.3,0c-0.5-0.2-1-0.4-1.6-0.6c-0.1,0-0.1,0-0.2-0.1V26.9h214.6
		V252.6z"/>
	<g>
		<path d="M188.9,45.4c0.1,0,0.3,0,0.4,0c0.3,0,0.5,0.3,0.5,0.5c0,0.3-0.2,0.5-0.5,0.5c-0.6,0-1.5,0-2.4,0c-0.8,0-1.6,0-2.2,0
			c-0.3,0-0.4-0.3-0.4-0.5c0-0.3,0.1-0.5,0.4-0.5c0.1,0,0.3,0,0.4,0c0.2,0,0.3-0.4,0.3-0.7c0-1.4,0-2.5,0-3.5c0-0.8,0-1.5,0-2.3
			c0-0.6-0.1-0.7-0.4-0.7c-0.1,0-0.2,0-0.3,0c-0.3,0-0.4-0.2-0.4-0.5c0-0.3,0.2-0.6,0.5-0.6c0.3,0,0.8,0.1,1.3,0.1
			c0.4,0,0.8-0.1,1.3-0.1c0.5,0,0.6,0.2,0.6,0.7c0,0.5-0.1,1-0.1,1.5c0,0.2,0.1,0.3,0.3,0.3c0.1,0,0.2-0.1,0.3-0.3
			c0.3-1.6,1.3-2.4,3-2.4c2.2,0,2.8,1.2,2.8,3.3c0,1.1-0.2,3.1-0.2,4c0,0.6,0.2,0.9,0.6,0.9c0.1,0,0.2,0,0.3,0
			c0.3,0,0.4,0.3,0.4,0.5c0,0.2-0.1,0.5-0.4,0.5c-0.5,0-1.2-0.1-1.9-0.1c-0.4,0-0.9,0.1-1.4,0.1c-0.6,0-0.8-0.4-0.8-1.2
			c0-1.5,0.1-3.7,0.1-4.9c0-0.6-0.2-1.2-0.9-1.2c-0.8,0-1.3,0.6-1.4,2.1c-0.1,1-0.1,1.8-0.1,2.6v0.8
			C188.5,45.3,188.7,45.4,188.9,45.4z"/>
		<path d="M200.8,46.6c-3.5,0-4.7-1.7-4.7-4.3c0-3.8,1.9-5.2,4.7-5.2c2.8,0,4.7,1.5,4.7,5.2C205.6,44.9,204.3,46.6,200.8,46.6z
			 M200.9,38.1c-0.8,0-1.3,0.6-1.3,3.8c0,2.6,0.4,3.4,1.3,3.4c0.9,0,1.2-0.7,1.2-3.4C202.1,38.6,201.6,38.1,200.9,38.1z"/>
		<path d="M225.8,45.5h0.4c0.3,0,0.4,0.2,0.4,0.5c0,0.3-0.1,0.5-0.4,0.5c-0.4,0-0.9-0.1-1.4-0.1c-0.6,0-1.2,0.1-1.9,0.1
			c-0.6,0-0.8-0.4-0.8-1.1c0-1.5,0.2-3.3,0.1-4.9c0-0.7-0.3-1.1-0.8-1.1c-0.8,0-1.3,0.4-1.5,1.7c-0.1,0.7-0.1,1.5-0.1,2.2
			c0,0.4,0,0.9,0,1.4c0,0.6,0.1,0.8,0.4,0.8c0.2,0,0.4,0,0.5,0c0.4,0,0.5,0.2,0.5,0.5c0,0.4-0.2,0.5-0.5,0.5c-0.6,0-2-0.1-2.8-0.1
			c-0.5,0-1.2,0.1-1.6,0.1c-0.2,0-0.4-0.1-0.4-0.5c0-0.2,0.1-0.5,0.4-0.5s0.3-0.3,0.4-1c0-0.5,0.1-0.9,0.1-1.5c0-0.9,0-1.8-0.1-2.7
			c0-0.7-0.4-0.9-0.9-0.9c-0.8,0-1.3,0.5-1.5,2.1c-0.1,0.6-0.1,1.2-0.1,1.8c0,0.4,0,0.8,0,1.2c0,0.7,0.1,1,0.6,1
			c0.4,0,0.5,0.2,0.5,0.5c0,0.4-0.2,0.5-0.5,0.5c-0.4,0-1.8-0.1-2.7-0.1c-0.6,0-1.3,0.1-1.7,0.1c-0.4,0-0.5-0.3-0.5-0.5
			c0-0.3,0.2-0.5,0.5-0.5c0.1,0,0.2,0,0.3,0c0.2,0,0.3-0.4,0.3-0.7c0-1.2,0-2.5,0-3.6c0-0.7,0-1.4,0-1.9c0-0.7-0.1-0.8-0.4-0.8
			c-0.2,0-0.2,0-0.3,0c-0.4,0-0.4-0.3-0.4-0.6s0.2-0.5,0.5-0.5c0.4,0,1.1,0.1,1.5,0.1c0.5,0,0.8-0.1,1.2-0.1c0.4,0,0.5,0.2,0.5,0.6
			c0,0.5-0.1,1-0.1,1.6c0,0.2,0.1,0.3,0.3,0.3c0.2,0,0.3-0.1,0.3-0.2c0.5-2,1.5-2.5,2.8-2.5c1.6,0,2,0.9,2.2,2.4
			c0,0.2,0.2,0.3,0.3,0.3c0.2,0,0.3-0.1,0.3-0.3c0.4-1.5,1-2.4,2.9-2.4c2.1,0,2.8,0.9,2.8,3.1c0,1-0.2,2.9-0.2,4
			C225.3,45.1,225.3,45.5,225.8,45.5z"/>
		<path d="M235.8,40.2c0,1.4-0.1,2.9-0.1,3.4c0,0.6,0.2,0.8,0.5,0.8c0.4,0,0.6-0.3,0.6-0.8c0-0.4-0.3-1-0.3-1.4
			c0-0.3,0.2-0.5,0.5-0.5c0.5,0,0.6,0.3,0.6,1.7c0,2.5-0.7,3.3-2.3,3.3c-1.4,0-1.8-0.8-2-1.8c-0.1-0.3-0.1-0.4-0.3-0.4
			c-0.2,0-0.3,0.1-0.3,0.4c-0.1,1-1,1.8-2.8,1.8c-1.8,0-2.5-0.9-2.5-2.3c0-1.9,1.4-2.3,3-2.6c2.3-0.3,2.5-0.5,2.5-2
			c0-1.2-0.7-1.6-1.9-1.6c-0.7,0-0.8,0.2-0.8,0.4c0,0.2,0.1,0.3,0.4,0.4c0.5,0.1,0.8,0.3,0.8,0.9c0,0.8-0.7,1.3-1.8,1.3
			c-1.2,0-1.9-0.5-1.9-1.6c0-1.3,1.3-2.4,4.4-2.4C235.2,37.2,235.8,38.4,235.8,40.2z M230.2,43.6c0,0.7,0.5,0.8,1.1,0.8
			c0.9,0,1.7-0.7,1.7-1.6c0-0.3-0.1-0.5-0.4-0.5C231.2,42.3,230.2,42.8,230.2,43.6z"/>
		<path d="M241.6,46.6c-2,0-2.6-1-2.6-2.8c0-0.8,0.1-2.1,0.1-3.3c0-0.5,0-1.1,0-1.7c0-0.4-0.2-0.6-0.4-0.6c-0.2,0-0.3,0-0.4,0
			c-0.3,0-0.4-0.3-0.4-0.5c0-0.3,0.1-0.5,0.4-0.5c1.1-0.2,2.2-1.1,2.8-1.9c0.2-0.2,0.3-0.3,0.6-0.3c0.3,0,0.5,0.2,0.5,0.4
			c0,0.2-0.1,0.8-0.1,1.4c0,0.4,0.3,0.5,0.7,0.5c0.2,0,0.7-0.1,1-0.1c0.4,0,0.5,0.3,0.5,0.6c0,0.3-0.2,0.6-0.5,0.6
			c-0.4,0-1-0.1-1.3-0.1c-0.4,0-0.5,0.2-0.5,0.5c0,1.6-0.1,3.2-0.1,4.3c0,1.2,0.4,1.4,0.8,1.4c0.5,0,0.6-0.5,0.6-0.9
			c0-0.4-0.3-0.9-0.3-1.4c0-0.4,0.2-0.6,0.5-0.6c0.5,0,0.7,0.3,0.7,1.6C244.2,45.6,243.5,46.6,241.6,46.6z"/>
		<path d="M248.8,46.6c-2,0-2.6-1-2.6-2.8c0-0.8,0.1-2.1,0.1-3.3c0-0.5,0-1.1,0-1.7c0-0.4-0.2-0.6-0.4-0.6c-0.2,0-0.3,0-0.4,0
			c-0.3,0-0.4-0.3-0.4-0.5c0-0.3,0.1-0.5,0.4-0.5c1.1-0.2,2.2-1.1,2.8-1.9c0.2-0.2,0.3-0.3,0.6-0.3c0.3,0,0.5,0.2,0.5,0.4
			c0,0.2-0.1,0.8-0.1,1.4c0,0.4,0.3,0.5,0.7,0.5c0.2,0,0.7-0.1,1-0.1c0.4,0,0.5,0.3,0.5,0.6c0,0.3-0.2,0.6-0.5,0.6
			c-0.4,0-1-0.1-1.3-0.1c-0.4,0-0.5,0.2-0.5,0.5c0,1.6-0.1,3.2-0.1,4.3c0,1.2,0.4,1.4,0.8,1.4c0.5,0,0.6-0.5,0.6-0.9
			c0-0.4-0.3-0.9-0.3-1.4c0-0.4,0.2-0.6,0.5-0.6c0.5,0,0.7,0.3,0.7,1.6C251.4,45.6,250.7,46.6,248.8,46.6z"/>
		<path d="M257.4,46.7c-2.4,0-4.6-1-4.6-4.6c0-3.7,2-5,4.7-5c2.9,0,3.8,1.4,3.8,2.9c0,1.5-0.7,2.4-4.1,2.4c-0.6,0-1.1,0.1-1.1,0.6
			c0,0.8,0.7,1.3,2.2,1.3c1.3,0,2.2-0.4,2.2-1.4c0-0.3,0.2-0.5,0.4-0.5c0.2,0,0.4,0.1,0.4,0.5C261.3,45.7,260.3,46.7,257.4,46.7z
			 M255.9,40.5c0,0.3,0,0.5,0.1,0.6c0.1,0.3,0.4,0.4,0.7,0.4c0.6,0,1.9-0.3,1.9-2c0-0.7-0.3-1.4-1.1-1.4
			C256.4,38.2,255.9,38.9,255.9,40.5z"/>
		<path d="M263.6,41.9c0-1,0-1.9-0.1-2.7c0-0.7-0.1-0.8-0.3-0.8c-0.2,0-0.2,0-0.3,0c-0.4,0-0.5-0.3-0.5-0.5c0-0.3,0.1-0.5,0.5-0.5
			c0.5,0,1,0.1,1.7,0.1c0.4,0,0.7-0.1,1.1-0.1c0.4,0,0.5,0.3,0.5,0.6c0,0.8-0.2,1.4-0.2,2.2c0,0.3,0.1,0.4,0.2,0.4
			c0.2,0,0.2-0.1,0.4-0.8c0.4-1.7,1.2-2.6,2.3-2.6c0.8,0,1.4,0.4,1.4,1.8c0,1.1-0.3,2.1-1.3,2.1c-0.6,0-0.9-0.1-1.1-0.7
			c-0.1-0.3-0.1-0.4-0.3-0.4c-0.4,0-0.9,1.1-0.9,3.8c0,1.5,0.2,1.8,0.7,1.8c0.5,0,0.7-0.1,0.8-0.1c0.3,0,0.5,0.2,0.5,0.5
			c0,0.3-0.2,0.6-0.5,0.6c-0.5,0-2.2-0.1-3.1-0.1c-0.8,0-1.5,0-2.1,0c-0.3,0-0.5-0.3-0.5-0.5s0.1-0.5,0.5-0.5c0,0,0.2,0,0.3,0
			c0.3,0,0.3-0.5,0.3-1C263.5,43.6,263.6,42.7,263.6,41.9z"/>
		<path d="M172.9,64.8c0.1,0,0.3,0,0.4,0c0.3,0,0.5,0.3,0.5,0.5c0,0.3-0.2,0.5-0.5,0.5c-0.6,0-1.5,0-2.4,0c-0.8,0-1.6,0-2.2,0
			c-0.3,0-0.4-0.3-0.4-0.5c0-0.3,0.1-0.5,0.4-0.5c0.1,0,0.3,0,0.4,0c0.2,0,0.3-0.4,0.3-0.7c0-1.4,0-2.5,0-3.5c0-1.5,0-2.8-0.1-4.3
			c0-0.6-0.1-0.7-0.4-0.7c-0.1,0-0.2,0-0.3,0c-0.3,0-0.4-0.2-0.4-0.5c0-0.3,0.2-0.6,0.5-0.6c1.5,0,2.7-0.5,3.4-0.5
			c0.5,0,0.6,0.2,0.6,0.7c0,1.2-0.8,2.5-0.8,4.1c0,0.2,0.1,0.3,0.3,0.3c0.1,0,0.2-0.1,0.3-0.3c0.3-1.6,1.3-2.4,3-2.4
			c2.2,0,2.8,1.2,2.8,3.3c0,1.1-0.2,3.1-0.2,4c0,0.6,0.2,0.9,0.6,0.9c0.1,0,0.2,0,0.3,0c0.3,0,0.4,0.3,0.4,0.5
			c0,0.2-0.1,0.5-0.4,0.5c-0.5,0-1.2-0.1-1.9-0.1c-0.4,0-0.9,0.1-1.4,0.1c-0.6,0-0.8-0.4-0.8-1.2c0-1.5,0.1-3.7,0.1-4.9
			c0-0.6-0.2-1.2-0.9-1.2c-0.8,0-1.3,0.6-1.4,2.1c-0.1,1-0.1,1.8-0.1,2.6v0.8C172.5,64.7,172.7,64.8,172.9,64.8z"/>
		<path d="M184.9,66c-3.5,0-4.7-1.7-4.7-4.3c0-3.8,1.9-5.2,4.7-5.2c2.8,0,4.7,1.5,4.7,5.2C189.7,64.3,188.4,66,184.9,66z M185,57.5
			c-0.8,0-1.3,0.6-1.3,3.8c0,2.6,0.4,3.4,1.3,3.4c0.9,0,1.2-0.7,1.2-3.4C186.2,58,185.7,57.5,185,57.5z"/>
		<path d="M190.5,56.7c0.8,0,2.9,0.1,4.8,0.1c2.1,0,4.3-0.1,6-0.1c0.3,0,0.5,0.2,0.5,0.5c0,0.3-0.2,0.5-0.5,0.5c-0.1,0-0.2,0-0.4,0
			c-0.5,0-0.7,0.4-0.7,1c0,1.1,0.9,3.7,1.5,5.4c0.2,0.5,0.3,0.6,0.7,0.6c0.2,0,0.4-0.1,0.6-0.6c0.2-0.5,0.3-1.4,0.3-3
			c0-2-0.2-2.7-0.5-3.2c-0.2-0.3-0.3-0.5-0.3-0.7c0-0.3,0.1-0.5,0.6-0.5c0.2,0,0.8,0,1.2,0c0.7,0,1.2,0,1.7,0c0.3,0,0.4,0.1,0.4,0.4
			c0,0.6-1,1-1.7,3.9c-0.1,0.5-0.5,2.1-0.9,4c-0.1,0.7-0.3,0.8-0.8,0.8c-0.6,0-1.1-0.1-1.7-0.1c-0.6,0-1.1,0.1-1.8,0.1
			c-0.5,0-0.7-0.3-0.8-1.1c-0.1-1-0.1-2.1-0.2-3.3c0-0.3-0.2-0.4-0.3-0.4c-0.2,0-0.3,0.2-0.3,0.4c-0.1,1.1-0.4,2.5-0.5,3.3
			c-0.2,0.9-0.4,1.1-1,1.1c-0.6,0-1.1-0.1-1.7-0.1c-0.5,0-0.9,0.1-1.4,0.1c-0.6,0-0.9-0.3-1-1c-0.3-1.9-0.7-3.6-1.2-5.6
			c-0.3-1.1-1-1.5-1-2.1C190.1,56.9,190.2,56.7,190.5,56.7z M195.8,64.7c0.3,0,0.5-0.2,0.6-0.7c0.2-1.4,0.6-3.1,0.6-4.5
			c0-1.4-0.5-1.7-1.5-1.7c-1,0-1.3,0.4-1.3,1c0,0.9,0.6,3.4,1.2,5.5C195.4,64.5,195.5,64.7,195.8,64.7z"/>
		<path d="M209.7,58.9c0-0.3,0.2-0.6,0.5-0.6c0.3,0,0.6,0.1,0.9,0.1c0.3,0,0.4-0.1,0.4-0.3c0-0.2-0.1-0.2-0.4-0.4
			c-0.8-0.4-1.3-1-1.3-2c0-1.4,1.2-2.4,3.1-2.4c2.2,0,3,1,3,2.3c0,1.2-0.6,1.6-1.3,1.6c-0.9,0-1.4-0.5-1.4-1.2c0-0.5,0.2-0.8,0.4-1
			c0.2-0.2,0.2-0.2,0.2-0.4c0-0.2-0.1-0.3-0.4-0.3c-1,0-1.3,0.6-1.3,1.5c0,1.7,1.1,2.5,2.3,2.5c0.4,0,0.7-0.1,0.9-0.1
			c0.4,0,0.6,0.3,0.6,0.6c0,0.4-0.2,0.6-0.6,0.6c-0.1,0-0.5-0.1-0.6-0.1c-0.4,0-0.5,0.2-0.6,1.2c0,0.5,0,1.2,0,1.8
			c0,0.6,0,1.1,0.1,1.4c0,0.6,0.2,0.9,0.6,0.9c0.1,0,0.2,0,0.3,0c0.3,0,0.5,0.3,0.5,0.5c0,0.3-0.1,0.5-0.5,0.5c-0.8,0-1.5,0-2.3,0
			c-0.8,0-1.6,0-2.5,0c-0.3,0-0.5-0.2-0.5-0.5c0-0.3,0.1-0.5,0.4-0.5c0.2,0,0.3,0,0.4,0c0.2,0,0.3-0.1,0.4-1c0-0.5,0.1-1.1,0.1-1.8
			c0-0.8,0-1.7,0-2.3c0-0.2-0.1-0.4-0.4-0.4c-0.2,0-0.3,0-0.4,0C209.9,59.5,209.7,59.3,209.7,58.9z"/>
		<path d="M225.1,59.6c0,1.4-0.1,2.9-0.1,3.4c0,0.6,0.2,0.8,0.5,0.8c0.4,0,0.6-0.3,0.6-0.8c0-0.4-0.3-1-0.3-1.4
			c0-0.3,0.2-0.5,0.5-0.5c0.5,0,0.6,0.3,0.6,1.7c0,2.5-0.7,3.3-2.3,3.3c-1.4,0-1.8-0.8-2-1.8c-0.1-0.3-0.1-0.4-0.3-0.4
			c-0.2,0-0.3,0.1-0.3,0.4c-0.1,1-1,1.8-2.8,1.8c-1.8,0-2.5-0.9-2.5-2.3c0-1.9,1.4-2.3,3-2.6c2.3-0.3,2.5-0.5,2.5-2
			c0-1.2-0.7-1.6-1.9-1.6c-0.7,0-0.8,0.2-0.8,0.4c0,0.2,0.1,0.3,0.4,0.4c0.5,0.1,0.8,0.3,0.8,0.9c0,0.8-0.7,1.3-1.8,1.3
			c-1.2,0-1.9-0.5-1.9-1.6c0-1.3,1.3-2.4,4.4-2.4C224.5,56.5,225.1,57.8,225.1,59.6z M219.5,63c0,0.7,0.5,0.8,1.1,0.8
			c0.9,0,1.7-0.7,1.7-1.6c0-0.3-0.1-0.5-0.4-0.5C220.5,61.7,219.5,62.2,219.5,63z"/>
		<path d="M228.6,61.3c0-1,0-1.9-0.1-2.7c0-0.7-0.1-0.8-0.3-0.8c-0.2,0-0.2,0-0.3,0c-0.4,0-0.5-0.3-0.5-0.5c0-0.3,0.1-0.5,0.5-0.5
			c0.5,0,1,0.1,1.7,0.1c0.4,0,0.7-0.1,1.1-0.1c0.4,0,0.5,0.3,0.5,0.6c0,0.8-0.2,1.4-0.2,2.2c0,0.3,0.1,0.4,0.2,0.4
			c0.2,0,0.2-0.1,0.4-0.8c0.4-1.7,1.2-2.6,2.3-2.6c0.8,0,1.4,0.4,1.4,1.8c0,1.1-0.3,2.1-1.3,2.1c-0.6,0-0.9-0.1-1.1-0.7
			c-0.1-0.3-0.1-0.4-0.3-0.4c-0.4,0-0.9,1.1-0.9,3.8c0,1.5,0.2,1.8,0.7,1.8c0.5,0,0.7-0.1,0.8-0.1c0.3,0,0.5,0.2,0.5,0.5
			c0,0.3-0.2,0.6-0.5,0.6c-0.5,0-2.2-0.1-3.1-0.1c-0.8,0-1.5,0-2.1,0c-0.3,0-0.5-0.3-0.5-0.5c0-0.3,0.1-0.5,0.5-0.5c0,0,0.2,0,0.3,0
			c0.3,0,0.3-0.5,0.3-1C228.6,63,228.6,62.1,228.6,61.3z"/>
		<path d="M238.7,57.2c0-0.3,0.2-0.5,0.4-0.5c0.5,0,1.3,0.1,2.3,0.1c0.7,0,1.3-0.1,2-0.1c0.3,0,0.5,0.2,0.5,0.5
			c0,0.2-0.2,0.5-0.5,0.5c-0.2,0-0.3,0.1-0.3,0.4c0,1,0.7,3.1,1.1,4.2c0.2,0.5,0.4,0.8,0.8,0.8c0.3,0,0.6-0.2,0.6-1.1
			c0-2.3-0.8-4.2-0.8-4.8c0-0.3,0.1-0.5,0.4-0.5c0.3,0,1.1,0.1,1.6,0.1c0.6,0,1.1-0.1,1.4-0.1c0.2,0,0.4,0.1,0.4,0.4
			c0,0.4-1.5,2.3-2.1,7c-0.4,3-1.6,4.1-4.2,4.1c-1.9,0-2.6-0.8-2.6-1.9c0-0.9,0.7-1.6,1.8-1.6c1.2,0,1.7,0.4,1.7,1.2
			c0,0.3-0.1,0.6-0.3,0.7c-0.2,0.1-0.3,0.2-0.3,0.4c0,0.1,0.1,0.2,0.3,0.2c1.1,0,2.2-1.9,2.2-2.6c0-0.5-0.1-0.6-0.8-0.6
			c-0.8,0-1.6,0.1-2.4,0.1c-0.5,0-0.7-0.1-0.8-0.8c-1.1-4.4-1.3-5.2-1.9-5.5C238.7,57.6,238.7,57.4,238.7,57.2z"/>
		<path d="M253.5,66c-3.5,0-4.7-1.7-4.7-4.3c0-3.8,1.9-5.2,4.7-5.2c2.8,0,4.7,1.5,4.7,5.2C258.2,64.3,257,66,253.5,66z M253.5,57.5
			c-0.8,0-1.3,0.6-1.3,3.8c0,2.6,0.4,3.4,1.3,3.4c0.9,0,1.2-0.7,1.2-3.4C254.8,58,254.3,57.5,253.5,57.5z"/>
		<path d="M267.9,65.8c-0.4,0-0.8,0.1-1.2,0.1c-0.3,0-0.5-0.2-0.5-0.5c0-0.5,0.1-1.2,0.1-1.8c0-0.2-0.1-0.3-0.3-0.3
			c-0.2,0-0.3,0.1-0.3,0.3c-0.3,1.6-1.4,2.5-3.2,2.5c-2,0-2.7-0.9-2.7-3.2c0-1.1,0.4-2.7,0.4-4.1c0-0.9-0.1-1-0.3-1
			c-0.2,0-0.3,0-0.4,0c-0.4,0-0.5-0.3-0.5-0.5c0-0.3,0.1-0.5,0.5-0.5c0.3,0,1.1,0.1,1.8,0.1c0.5,0,0.9-0.1,1.4-0.1
			c0.4,0,0.7,0.1,0.7,0.7c0,0.9-0.3,3-0.3,5c0,1,0.2,1.5,1,1.5c0.9,0,1.6-1.2,1.6-3.2v-2c0-0.7-0.1-1-0.5-1c-0.1,0-0.2,0-0.3,0
			c-0.3,0-0.5-0.3-0.5-0.5c0-0.4,0.1-0.5,0.5-0.5c0.6,0,1.2,0.1,1.8,0.1c0.6,0,1.2-0.1,1.9-0.1c0.3,0,0.5,0.1,0.5,0.4
			c0,0.6-0.1,2.3-0.1,4.2c0,0.8,0,1.7,0,2.6c0,0.7,0,1,0.4,1c0.1,0,0.2,0,0.2,0c0.3,0,0.5,0.3,0.5,0.6c0,0.3-0.1,0.5-0.5,0.5
			C269.5,65.9,268.6,65.8,267.9,65.8z"/>
		<path d="M182.4,85.4c-2,0-2.6-1-2.6-2.8c0-0.8,0.1-2.1,0.1-3.3c0-0.5,0-1.1,0-1.7c0-0.4-0.2-0.6-0.4-0.6c-0.2,0-0.3,0-0.4,0
			c-0.3,0-0.4-0.3-0.4-0.5c0-0.3,0.1-0.5,0.4-0.5c1.1-0.2,2.2-1.1,2.8-1.9c0.2-0.2,0.3-0.3,0.6-0.3c0.3,0,0.5,0.2,0.5,0.4
			c0,0.2-0.1,0.8-0.1,1.4c0,0.4,0.3,0.5,0.7,0.5c0.2,0,0.7-0.1,1-0.1c0.4,0,0.5,0.3,0.5,0.6c0,0.3-0.2,0.6-0.5,0.6
			c-0.4,0-1-0.1-1.3-0.1c-0.4,0-0.5,0.2-0.5,0.5c0,1.6-0.1,3.2-0.1,4.3c0,1.2,0.4,1.4,0.8,1.4c0.5,0,0.6-0.5,0.6-0.9
			c0-0.4-0.3-0.9-0.3-1.4c0-0.4,0.2-0.6,0.5-0.6c0.5,0,0.7,0.3,0.7,1.6C185,84.4,184.3,85.4,182.4,85.4z"/>
		<path d="M187.2,80.7c0-1,0-1.9-0.1-2.7c0-0.7-0.1-0.8-0.3-0.8c-0.2,0-0.2,0-0.3,0c-0.4,0-0.5-0.3-0.5-0.5c0-0.3,0.1-0.5,0.5-0.5
			c0.5,0,1,0.1,1.7,0.1c0.4,0,0.7-0.1,1.1-0.1c0.4,0,0.5,0.3,0.5,0.6c0,0.8-0.2,1.4-0.2,2.2c0,0.3,0.1,0.4,0.2,0.4
			c0.2,0,0.2-0.1,0.4-0.8c0.4-1.7,1.2-2.6,2.3-2.6c0.8,0,1.4,0.4,1.4,1.8c0,1.1-0.3,2.1-1.3,2.1c-0.6,0-0.9-0.1-1.1-0.7
			c-0.1-0.3-0.1-0.4-0.3-0.4c-0.4,0-0.9,1.1-0.9,3.8c0,1.5,0.2,1.8,0.7,1.8c0.5,0,0.7-0.1,0.8-0.1c0.3,0,0.5,0.2,0.5,0.5
			c0,0.3-0.2,0.6-0.5,0.6c-0.5,0-2.2-0.1-3.1-0.1c-0.8,0-1.5,0-2.1,0c-0.3,0-0.5-0.3-0.5-0.5c0-0.3,0.1-0.5,0.5-0.5c0,0,0.2,0,0.3,0
			c0.3,0,0.3-0.5,0.3-1C187.2,82.4,187.2,81.5,187.2,80.7z"/>
		<path d="M202.9,79c0,1.4-0.1,2.9-0.1,3.4c0,0.6,0.2,0.8,0.5,0.8c0.4,0,0.6-0.3,0.6-0.8c0-0.4-0.3-1-0.3-1.4c0-0.3,0.2-0.5,0.5-0.5
			c0.5,0,0.6,0.3,0.6,1.7c0,2.5-0.7,3.3-2.3,3.3c-1.4,0-1.8-0.8-2-1.8c-0.1-0.3-0.1-0.4-0.3-0.4c-0.2,0-0.3,0.1-0.3,0.4
			c-0.1,1-1,1.8-2.8,1.8c-1.8,0-2.5-0.9-2.5-2.3c0-1.9,1.4-2.3,3-2.6c2.3-0.3,2.5-0.5,2.5-2c0-1.2-0.7-1.6-1.9-1.6
			c-0.7,0-0.8,0.2-0.8,0.4c0,0.2,0.1,0.3,0.4,0.4c0.5,0.1,0.8,0.3,0.8,0.9c0,0.8-0.7,1.3-1.8,1.3c-1.2,0-1.9-0.5-1.9-1.6
			c0-1.3,1.3-2.4,4.4-2.4C202.3,75.9,202.9,77.2,202.9,79z M197.3,82.4c0,0.7,0.5,0.8,1.1,0.8c0.9,0,1.7-0.7,1.7-1.6
			c0-0.3-0.1-0.5-0.4-0.5C198.3,81,197.3,81.6,197.3,82.4z"/>
		<path d="M204.4,76.6c0-0.3,0.2-0.5,0.5-0.5c0.5,0,1.4,0.1,2.6,0.1c0.8,0,1.6-0.1,1.9-0.1c0.3,0,0.5,0.2,0.5,0.5
			c0,0.3-0.2,0.5-0.5,0.5c-0.1,0-0.2,0-0.4,0c-0.3,0-0.4,0.3-0.4,0.6c0,1.1,0.7,3.9,1.2,5.8c0.1,0.5,0.4,0.6,0.7,0.6
			c0.5,0,0.8-0.6,0.8-3.6c0-3.4-0.8-3.4-0.8-4c0-0.3,0.1-0.5,0.6-0.5c0.2,0,0.8,0,1.2,0c0.7,0,1.2,0,1.7,0c0.3,0,0.6,0.1,0.6,0.5
			c0,0.5-1.1,1-1.8,3.8c-0.1,0.5-0.5,2.1-0.9,4c-0.1,0.7-0.3,0.8-0.8,0.8c-0.6,0-1.1-0.1-1.6-0.1c-0.6,0-1.1,0.1-1.8,0.1
			c-0.6,0-0.8-0.4-0.9-0.9c-0.4-1.9-0.4-2.7-1.2-5.4C205,76.9,204.4,77.4,204.4,76.6z"/>
		<path d="M219.3,85.5c-2.4,0-4.6-1-4.6-4.6c0-3.7,2-5,4.7-5c2.9,0,3.8,1.4,3.8,2.9c0,1.5-0.7,2.4-4.1,2.4c-0.6,0-1.1,0.1-1.1,0.6
			c0,0.8,0.7,1.3,2.2,1.3c1.3,0,2.2-0.4,2.2-1.4c0-0.3,0.2-0.5,0.4-0.5c0.2,0,0.4,0.1,0.4,0.5C223.2,84.5,222.2,85.5,219.3,85.5z
			 M217.8,79.3c0,0.3,0,0.5,0.1,0.6c0.1,0.3,0.4,0.4,0.7,0.4c0.6,0,1.9-0.3,1.9-2c0-0.7-0.3-1.4-1.1-1.4
			C218.3,77,217.8,77.7,217.8,79.3z"/>
		<path d="M224.4,84.8c0-0.3,0.1-0.5,0.4-0.5c0,0,0.2,0,0.3,0c0.3,0,0.3-0.3,0.3-0.8c0-1.3,0.1-2.6,0.1-3.9c0-1.2,0-2.3-0.1-3.5
			c0-0.7-0.1-1-0.4-1c-0.1,0-0.3,0-0.4,0c-0.2,0-0.4-0.2-0.4-0.5c0-0.4,0.2-0.6,0.5-0.6c1.6,0,2.7-0.5,3.6-0.5
			c0.4,0,0.5,0.2,0.5,0.5c0,0.7-0.1,2.7-0.1,5.5c0,1.3,0,3,0.1,3.9c0,0.5,0.1,0.7,0.3,0.7c0.1,0,0.2,0,0.3,0c0.3,0,0.5,0.2,0.5,0.5
			c0,0.3-0.1,0.5-0.5,0.5c-0.4,0-1.7,0-2.5,0c-0.9,0-1.7,0-2,0C224.5,85.3,224.4,85,224.4,84.8z"/>
		<path d="M230.8,86.6c0.2,0,0.5,0.1,0.8,0.1c1.5,0,2.3-1,2.3-1.9c0-0.3-0.1-0.5-0.4-0.5c-0.6,0-0.7,0.9-1.8,0.9
			c-0.8,0-1.4-0.5-1.4-1.5c0-1.2,0.7-2.2,2.2-2.2c1.6,0,2.5,0.9,2.5,2.9c0,1.8-1.5,3.5-4.3,3.5c-0.4,0-0.7-0.2-0.7-0.6
			S230.4,86.6,230.8,86.6z"/>
		<path d="M238.7,76.6c0-0.3,0.2-0.5,0.4-0.5c0.5,0,1.3,0.1,2.3,0.1c0.7,0,1.3-0.1,2-0.1c0.3,0,0.5,0.2,0.5,0.5
			c0,0.2-0.2,0.5-0.5,0.5c-0.2,0-0.3,0.1-0.3,0.4c0,1,0.7,3.1,1.1,4.2c0.2,0.5,0.4,0.8,0.8,0.8c0.3,0,0.6-0.2,0.6-1.1
			c0-2.3-0.8-4.2-0.8-4.8c0-0.3,0.1-0.5,0.4-0.5c0.3,0,1.1,0.1,1.6,0.1c0.6,0,1.1-0.1,1.4-0.1c0.2,0,0.4,0.1,0.4,0.4
			c0,0.4-1.5,2.3-2.1,7c-0.4,3-1.6,4.1-4.2,4.1c-1.9,0-2.6-0.8-2.6-1.9c0-0.9,0.7-1.6,1.8-1.6c1.2,0,1.7,0.4,1.7,1.2
			c0,0.3-0.1,0.6-0.3,0.7c-0.2,0.1-0.3,0.2-0.3,0.4c0,0.1,0.1,0.2,0.3,0.2c1.1,0,2.2-1.9,2.2-2.6c0-0.5-0.1-0.6-0.8-0.6
			c-0.8,0-1.6,0.1-2.4,0.1c-0.5,0-0.7-0.1-0.8-0.8c-1.1-4.4-1.3-5.2-1.9-5.5C238.7,77,238.7,76.8,238.7,76.6z"/>
		<path d="M253.5,85.4c-3.5,0-4.7-1.7-4.7-4.3c0-3.8,1.9-5.2,4.7-5.2c2.8,0,4.7,1.5,4.7,5.2C258.2,83.7,257,85.4,253.5,85.4z
			 M253.5,76.9c-0.8,0-1.3,0.6-1.3,3.8c0,2.6,0.4,3.4,1.3,3.4c0.9,0,1.2-0.7,1.2-3.4C254.8,77.4,254.3,76.9,253.5,76.9z"/>
		<path d="M267.9,85.2c-0.4,0-0.8,0.1-1.2,0.1c-0.3,0-0.5-0.2-0.5-0.5c0-0.5,0.1-1.2,0.1-1.8c0-0.2-0.1-0.3-0.3-0.3
			c-0.2,0-0.3,0.1-0.3,0.3c-0.3,1.6-1.4,2.5-3.2,2.5c-2,0-2.7-0.9-2.7-3.2c0-1.1,0.4-2.7,0.4-4.1c0-0.9-0.1-1-0.3-1
			c-0.2,0-0.3,0-0.4,0c-0.4,0-0.5-0.3-0.5-0.5c0-0.3,0.1-0.5,0.5-0.5c0.3,0,1.1,0.1,1.8,0.1c0.5,0,0.9-0.1,1.4-0.1
			c0.4,0,0.7,0.1,0.7,0.7c0,0.9-0.3,3-0.3,5c0,1,0.2,1.5,1,1.5c0.9,0,1.6-1.2,1.6-3.2v-2c0-0.7-0.1-1-0.5-1c-0.1,0-0.2,0-0.3,0
			c-0.3,0-0.5-0.3-0.5-0.5c0-0.4,0.1-0.5,0.5-0.5c0.6,0,1.2,0.1,1.8,0.1c0.6,0,1.2-0.1,1.9-0.1c0.3,0,0.5,0.1,0.5,0.4
			c0,0.6-0.1,2.3-0.1,4.2c0,0.8,0,1.7,0,2.6c0,0.7,0,1,0.4,1c0.1,0,0.2,0,0.2,0c0.3,0,0.5,0.3,0.5,0.6c0,0.3-0.1,0.5-0.5,0.5
			C269.5,85.3,268.6,85.2,267.9,85.2z"/>
		<path d="M191.9,102.8c1.2,0,1.6-0.4,1.6-0.8c0-0.3-0.1-0.5-0.1-0.7c0-0.3,0.1-0.6,0.5-0.6c0.4,0,0.6,0.3,0.6,0.7
			c0,2-0.9,3.4-4,3.4c-2.6,0-4.7-0.9-4.7-4.9c0-3.4,1.9-4.8,4.8-4.8c3,0,3.9,1.4,3.9,2.8c0,1-0.5,2-1.8,2c-1.1,0-1.6-0.6-1.6-1.4
			c0-0.8,0.3-1.1,0.8-1.4c0.3-0.1,0.4-0.3,0.4-0.5c0-0.3-0.4-0.5-1.3-0.5c-1,0-2,0.4-2,3.4C189,101.8,189.8,102.8,191.9,102.8z"/>
		<path d="M204.1,98.4c0,1.4-0.1,2.9-0.1,3.4c0,0.6,0.2,0.8,0.5,0.8c0.4,0,0.6-0.3,0.6-0.8c0-0.4-0.3-1-0.3-1.4
			c0-0.3,0.2-0.5,0.5-0.5c0.5,0,0.6,0.3,0.6,1.7c0,2.5-0.7,3.3-2.3,3.3c-1.4,0-1.8-0.8-2-1.8c-0.1-0.3-0.1-0.4-0.3-0.4
			c-0.2,0-0.3,0.1-0.3,0.4c-0.1,1-1,1.8-2.8,1.8c-1.8,0-2.5-0.9-2.5-2.3c0-1.9,1.4-2.3,3-2.6c2.3-0.3,2.5-0.5,2.5-2
			c0-1.2-0.7-1.6-1.9-1.6c-0.7,0-0.8,0.2-0.8,0.4c0,0.2,0.1,0.3,0.4,0.4c0.5,0.1,0.8,0.3,0.8,0.9c0,0.8-0.7,1.3-1.8,1.3
			c-1.2,0-1.9-0.5-1.9-1.6c0-1.3,1.3-2.4,4.4-2.4C203.5,95.3,204.1,96.6,204.1,98.4z M198.5,101.8c0,0.7,0.5,0.8,1.1,0.8
			c0.9,0,1.7-0.7,1.7-1.6c0-0.3-0.1-0.5-0.4-0.5C199.5,100.4,198.5,101,198.5,101.8z"/>
		<path d="M211.2,103.6c0.1,0,0.3,0,0.4,0c0.3,0,0.5,0.3,0.5,0.5c0,0.3-0.2,0.5-0.5,0.5c-0.6,0-1.5,0-2.4,0c-0.8,0-1.6,0-2.2,0
			c-0.3,0-0.4-0.3-0.4-0.5c0-0.3,0.1-0.5,0.4-0.5c0.1,0,0.3,0,0.4,0c0.2,0,0.3-0.4,0.3-0.7c0-1.4,0-2.5,0-3.5c0-0.8,0-1.5,0-2.3
			c0-0.6-0.1-0.7-0.4-0.7c-0.1,0-0.2,0-0.3,0c-0.3,0-0.4-0.2-0.4-0.5c0-0.3,0.2-0.6,0.5-0.6c0.3,0,0.8,0.1,1.3,0.1
			c0.4,0,0.8-0.1,1.3-0.1c0.5,0,0.6,0.2,0.6,0.7c0,0.5-0.1,1-0.1,1.5c0,0.2,0.1,0.3,0.3,0.3c0.1,0,0.2-0.1,0.3-0.3
			c0.3-1.6,1.3-2.4,3-2.4c2.2,0,2.8,1.2,2.8,3.3c0,1.1-0.2,3.1-0.2,4c0,0.6,0.2,0.9,0.6,0.9c0.1,0,0.2,0,0.3,0
			c0.3,0,0.4,0.3,0.4,0.5c0,0.2-0.1,0.5-0.4,0.5c-0.5,0-1.2-0.1-1.9-0.1c-0.4,0-0.9,0.1-1.4,0.1c-0.6,0-0.8-0.4-0.8-1.2
			c0-1.5,0.1-3.7,0.1-4.9c0-0.6-0.2-1.2-0.9-1.2c-0.8,0-1.3,0.6-1.4,2.1c-0.1,1-0.1,1.8-0.1,2.6v0.8
			C210.8,103.4,211,103.6,211.2,103.6z"/>
		<path d="M226.2,103.6c0.1,0,0.3,0,0.4,0c0.3,0,0.5,0.3,0.5,0.5c0,0.3-0.2,0.5-0.5,0.5c-0.6,0-1.5,0-2.4,0c-0.8,0-1.6,0-2.2,0
			c-0.3,0-0.4-0.3-0.4-0.5c0-0.3,0.1-0.5,0.4-0.5c0.1,0,0.3,0,0.4,0c0.2,0,0.3-0.4,0.3-0.7c0-1.4,0-2.5,0-3.5c0-0.8,0-1.5,0-2.3
			c0-0.6-0.1-0.7-0.4-0.7c-0.1,0-0.2,0-0.3,0c-0.3,0-0.4-0.2-0.4-0.5c0-0.3,0.2-0.6,0.5-0.6c0.3,0,0.8,0.1,1.3,0.1
			c0.4,0,0.8-0.1,1.3-0.1c0.5,0,0.6,0.2,0.6,0.7c0,0.5-0.1,1-0.1,1.5c0,0.2,0.1,0.3,0.3,0.3c0.1,0,0.2-0.1,0.3-0.3
			c0.3-1.6,1.3-2.4,3-2.4c2.2,0,2.8,1.2,2.8,3.3c0,1.1-0.2,3.1-0.2,4c0,0.6,0.2,0.9,0.6,0.9c0.1,0,0.2,0,0.3,0
			c0.3,0,0.4,0.3,0.4,0.5c0,0.2-0.1,0.5-0.4,0.5c-0.5,0-1.2-0.1-1.9-0.1c-0.4,0-0.9,0.1-1.4,0.1c-0.6,0-0.8-0.4-0.8-1.2
			c0-1.5,0.1-3.7,0.1-4.9c0-0.6-0.2-1.2-0.9-1.2c-0.8,0-1.3,0.6-1.4,2.1c-0.1,1-0.1,1.8-0.1,2.6v0.8
			C225.8,103.4,226,103.6,226.2,103.6z"/>
		<path d="M238,104.9c-2.4,0-4.6-1-4.6-4.6c0-3.7,2-5,4.7-5c2.9,0,3.8,1.4,3.8,2.9c0,1.5-0.7,2.4-4.1,2.4c-0.6,0-1.1,0.1-1.1,0.6
			c0,0.8,0.7,1.3,2.2,1.3c1.3,0,2.2-0.4,2.2-1.4c0-0.3,0.2-0.5,0.4-0.5c0.2,0,0.4,0.1,0.4,0.5C242,103.9,240.9,104.9,238,104.9z
			 M236.6,98.6c0,0.3,0,0.5,0.1,0.6c0.1,0.3,0.4,0.4,0.7,0.4c0.6,0,1.9-0.3,1.9-2c0-0.7-0.3-1.4-1.1-1.4
			C237,96.3,236.6,97.1,236.6,98.6z"/>
		<path d="M242.5,96c0-0.3,0.2-0.5,0.5-0.5c0.5,0,1.4,0.1,2.6,0.1c0.8,0,1.6-0.1,1.9-0.1c0.3,0,0.5,0.2,0.5,0.5
			c0,0.3-0.2,0.5-0.5,0.5c-0.1,0-0.2,0-0.4,0c-0.3,0-0.4,0.3-0.4,0.6c0,1.1,0.7,3.9,1.2,5.8c0.1,0.5,0.4,0.6,0.7,0.6
			c0.5,0,0.8-0.6,0.8-3.6c0-3.4-0.8-3.4-0.8-4c0-0.3,0.1-0.5,0.6-0.5c0.2,0,0.8,0,1.2,0c0.7,0,1.2,0,1.7,0c0.3,0,0.6,0.1,0.6,0.5
			c0,0.5-1.1,1-1.8,3.8c-0.1,0.5-0.5,2.1-0.9,4c-0.1,0.7-0.3,0.8-0.8,0.8c-0.6,0-1.1-0.1-1.6-0.1c-0.6,0-1.1,0.1-1.8,0.1
			c-0.6,0-0.8-0.4-0.9-0.9c-0.4-1.9-0.4-2.7-1.2-5.4C243.1,96.3,242.5,96.8,242.5,96z"/>
		<path d="M257.4,104.9c-2.4,0-4.6-1-4.6-4.6c0-3.7,2-5,4.7-5c2.9,0,3.8,1.4,3.8,2.9c0,1.5-0.7,2.4-4.1,2.4c-0.6,0-1.1,0.1-1.1,0.6
			c0,0.8,0.7,1.3,2.2,1.3c1.3,0,2.2-0.4,2.2-1.4c0-0.3,0.2-0.5,0.4-0.5c0.2,0,0.4,0.1,0.4,0.5C261.3,103.9,260.3,104.9,257.4,104.9z
			 M255.9,98.6c0,0.3,0,0.5,0.1,0.6c0.1,0.3,0.4,0.4,0.7,0.4c0.6,0,1.9-0.3,1.9-2c0-0.7-0.3-1.4-1.1-1.4
			C256.4,96.3,255.9,97.1,255.9,98.6z"/>
		<path d="M263.6,100.1c0-1,0-1.9-0.1-2.7c0-0.7-0.1-0.8-0.3-0.8c-0.2,0-0.2,0-0.3,0c-0.4,0-0.5-0.3-0.5-0.5c0-0.3,0.1-0.5,0.5-0.5
			c0.5,0,1,0.1,1.7,0.1c0.4,0,0.7-0.1,1.1-0.1c0.4,0,0.5,0.3,0.5,0.6c0,0.8-0.2,1.4-0.2,2.2c0,0.3,0.1,0.4,0.2,0.4
			c0.2,0,0.2-0.1,0.4-0.8c0.4-1.7,1.2-2.6,2.3-2.6c0.8,0,1.4,0.4,1.4,1.8c0,1.1-0.3,2.1-1.3,2.1c-0.6,0-0.9-0.1-1.1-0.7
			c-0.1-0.3-0.1-0.4-0.3-0.4c-0.4,0-0.9,1.1-0.9,3.8c0,1.5,0.2,1.8,0.7,1.8c0.5,0,0.7-0.1,0.8-0.1c0.3,0,0.5,0.2,0.5,0.5
			c0,0.3-0.2,0.6-0.5,0.6c-0.5,0-2.2-0.1-3.1-0.1c-0.8,0-1.5,0-2.1,0c-0.3,0-0.5-0.3-0.5-0.5c0-0.3,0.1-0.5,0.5-0.5c0,0,0.2,0,0.3,0
			c0.3,0,0.3-0.5,0.3-1C263.5,101.8,263.6,100.9,263.6,100.1z"/>
		<path d="M199.6,125.9c0-0.2,0.2-0.4,0.5-0.4c0.5,0,0.9,0.4,1.4,0.4c0.3,0,0.5-0.2,0.5-0.4c0-0.4-0.5-0.6-1.3-0.6c-1.4,0-3,1-4.7,1
			c-1.5,0-2.2-0.7-2.2-2.4c0-1.5,0.8-2.4,2.1-2.4h0.4c0.2,0,0.4-0.2,0.4-0.3c0-0.2-0.1-0.3-0.4-0.4c-1.1-0.2-1.8-1-1.8-2.6
			c0-2.2,1.6-3.1,4.1-3.1c0.9,0,1.7,0.1,2.1,0.1c0.3,0,0.4-0.1,0.4-0.3c0-0.2-0.1-0.2-0.4-0.3c-0.7-0.1-1.3-0.5-1.3-1.2
			c0-0.7,0.6-1.1,1.8-1.1c1.3,0,2.1,0.8,2.1,1.9c0,0.8-0.4,1.4-1.1,1.4c-0.2,0-0.5-0.1-0.5-0.1c-0.3,0-0.3,0.1-0.3,0.3
			s0.1,0.3,0.4,0.4c0.6,0.2,1.3,0.8,1.3,2.3c0,2.2-1.1,3.3-4.3,3.3c-2.2,0-2.8,0.4-2.8,1c0,0.3,0.2,0.6,0.7,0.6
			c1.1,0,3.2-0.9,4.6-0.9c1.6,0,2.4,0.8,2.4,2.1c0,1.6-0.6,2.4-2.3,2.4C200.1,126.6,199.6,126.3,199.6,125.9z M197.4,117.5
			c0,1.5,0.1,2.8,1.3,2.8c0.9,0,1.2-0.4,1.2-2.3c0-1.8-0.4-2.3-1.3-2.3C197.9,115.7,197.4,115.9,197.4,117.5z"/>
		<path d="M209.1,124.3c-2.4,0-4.6-1-4.6-4.6c0-3.7,2-5,4.7-5c2.9,0,3.8,1.4,3.8,2.9c0,1.5-0.7,2.4-4.1,2.4c-0.6,0-1.1,0.1-1.1,0.6
			c0,0.8,0.7,1.3,2.2,1.3c1.3,0,2.2-0.4,2.2-1.4c0-0.3,0.2-0.5,0.4-0.5c0.2,0,0.4,0.1,0.4,0.5C213.1,123.2,212,124.3,209.1,124.3z
			 M207.7,118c0,0.3,0,0.5,0.1,0.6c0.1,0.3,0.4,0.4,0.7,0.4c0.6,0,1.9-0.3,1.9-2c0-0.7-0.3-1.4-1.1-1.4
			C208.1,115.7,207.7,116.5,207.7,118z"/>
		<path d="M217.7,124.2c-2,0-2.6-1-2.6-2.8c0-0.8,0.1-2.1,0.1-3.3c0-0.5,0-1.1,0-1.7c0-0.4-0.2-0.6-0.4-0.6c-0.2,0-0.3,0-0.4,0
			c-0.3,0-0.4-0.3-0.4-0.5c0-0.3,0.1-0.5,0.4-0.5c1.1-0.2,2.2-1.1,2.8-1.9c0.2-0.2,0.3-0.3,0.6-0.3c0.3,0,0.5,0.2,0.5,0.4
			c0,0.2-0.1,0.8-0.1,1.4c0,0.4,0.3,0.5,0.7,0.5c0.2,0,0.7-0.1,1-0.1c0.4,0,0.5,0.3,0.5,0.6c0,0.3-0.2,0.6-0.5,0.6
			c-0.4,0-1-0.1-1.3-0.1c-0.4,0-0.5,0.2-0.5,0.5c0,1.6-0.1,3.2-0.1,4.3c0,1.2,0.4,1.4,0.8,1.4c0.5,0,0.6-0.5,0.6-0.9
			c0-0.4-0.3-0.9-0.3-1.4c0-0.4,0.2-0.6,0.5-0.6c0.5,0,0.7,0.3,0.7,1.6C220.4,123.2,219.6,124.2,217.7,124.2z"/>
		<path d="M233.4,117.8c0,1.4-0.1,2.9-0.1,3.4c0,0.6,0.2,0.8,0.5,0.8c0.4,0,0.6-0.3,0.6-0.8c0-0.4-0.3-1-0.3-1.4
			c0-0.3,0.2-0.5,0.5-0.5c0.5,0,0.6,0.3,0.6,1.7c0,2.5-0.7,3.3-2.3,3.3c-1.4,0-1.8-0.8-2-1.8c-0.1-0.3-0.1-0.4-0.3-0.4
			c-0.2,0-0.3,0.1-0.3,0.4c-0.1,1-1,1.8-2.8,1.8c-1.8,0-2.5-0.9-2.5-2.3c0-1.9,1.4-2.3,3-2.6c2.3-0.3,2.5-0.5,2.5-2
			c0-1.2-0.7-1.6-1.9-1.6c-0.7,0-0.8,0.2-0.8,0.4c0,0.2,0.1,0.3,0.4,0.4c0.5,0.1,0.8,0.3,0.8,0.9c0,0.8-0.7,1.3-1.8,1.3
			c-1.2,0-1.9-0.5-1.9-1.6c0-1.3,1.3-2.4,4.4-2.4C232.8,114.7,233.4,116,233.4,117.8z M227.8,121.2c0,0.7,0.5,0.8,1.1,0.8
			c0.9,0,1.7-0.7,1.7-1.6c0-0.3-0.1-0.5-0.4-0.5C228.8,119.8,227.8,120.4,227.8,121.2z"/>
		<path d="M235.2,114.9c0.8,0,2.9,0.1,4.8,0.1c2.1,0,4.3-0.1,6-0.1c0.3,0,0.5,0.2,0.5,0.5c0,0.3-0.2,0.5-0.5,0.5c-0.1,0-0.2,0-0.4,0
			c-0.5,0-0.7,0.4-0.7,1c0,1.1,0.9,3.7,1.5,5.4c0.2,0.5,0.3,0.6,0.7,0.6c0.2,0,0.4-0.1,0.6-0.6c0.2-0.5,0.3-1.4,0.3-3
			c0-2-0.2-2.7-0.5-3.2c-0.2-0.3-0.3-0.5-0.3-0.7c0-0.3,0.1-0.5,0.6-0.5c0.2,0,0.8,0,1.2,0c0.7,0,1.2,0,1.7,0c0.3,0,0.4,0.1,0.4,0.4
			c0,0.6-1,1-1.7,3.9c-0.1,0.5-0.5,2.1-0.9,4c-0.1,0.7-0.3,0.8-0.8,0.8c-0.6,0-1.1-0.1-1.7-0.1c-0.6,0-1.1,0.1-1.8,0.1
			c-0.5,0-0.7-0.3-0.8-1.1c-0.1-1-0.1-2.1-0.2-3.3c0-0.3-0.2-0.4-0.3-0.4c-0.2,0-0.3,0.2-0.3,0.4c-0.1,1.1-0.4,2.5-0.5,3.3
			c-0.2,0.9-0.4,1.1-1,1.1c-0.6,0-1.1-0.1-1.7-0.1c-0.5,0-0.9,0.1-1.4,0.1c-0.6,0-0.9-0.3-1-1c-0.3-1.9-0.7-3.6-1.2-5.6
			c-0.3-1.1-1-1.5-1-2.1C234.8,115.1,234.9,114.9,235.2,114.9z M240.4,122.8c0.3,0,0.5-0.2,0.6-0.7c0.2-1.4,0.6-3.1,0.6-4.5
			c0-1.4-0.5-1.7-1.5-1.7c-1,0-1.3,0.4-1.3,1c0,0.9,0.6,3.4,1.2,5.5C240.1,122.7,240.2,122.8,240.4,122.8z"/>
		<path d="M259.6,117.8c0,1.4-0.1,2.9-0.1,3.4c0,0.6,0.2,0.8,0.5,0.8c0.4,0,0.6-0.3,0.6-0.8c0-0.4-0.3-1-0.3-1.4
			c0-0.3,0.2-0.5,0.5-0.5c0.5,0,0.6,0.3,0.6,1.7c0,2.5-0.7,3.3-2.3,3.3c-1.4,0-1.8-0.8-2-1.8c-0.1-0.3-0.1-0.4-0.3-0.4
			c-0.2,0-0.3,0.1-0.3,0.4c-0.1,1-1,1.8-2.8,1.8c-1.8,0-2.5-0.9-2.5-2.3c0-1.9,1.4-2.3,3-2.6c2.3-0.3,2.5-0.5,2.5-2
			c0-1.2-0.7-1.6-1.9-1.6c-0.7,0-0.8,0.2-0.8,0.4c0,0.2,0.1,0.3,0.4,0.4c0.5,0.1,0.8,0.3,0.8,0.9c0,0.8-0.7,1.3-1.8,1.3
			c-1.2,0-1.9-0.5-1.9-1.6c0-1.3,1.3-2.4,4.4-2.4C259,114.7,259.6,116,259.6,117.8z M254,121.2c0,0.7,0.5,0.8,1.1,0.8
			c0.9,0,1.7-0.7,1.7-1.6c0-0.3-0.1-0.5-0.4-0.5C255,119.8,254,120.4,254,121.2z"/>
		<path d="M260.9,115.4c0-0.3,0.2-0.5,0.4-0.5c0.5,0,1.3,0.1,2.3,0.1c0.7,0,1.3-0.1,2-0.1c0.3,0,0.5,0.2,0.5,0.5
			c0,0.2-0.2,0.5-0.5,0.5c-0.2,0-0.3,0.1-0.3,0.4c0,1,0.7,3.1,1.1,4.2c0.2,0.5,0.4,0.8,0.8,0.8c0.3,0,0.6-0.2,0.6-1.1
			c0-2.3-0.8-4.2-0.8-4.8c0-0.3,0.1-0.5,0.4-0.5c0.3,0,1.1,0.1,1.6,0.1c0.6,0,1.1-0.1,1.4-0.1c0.2,0,0.4,0.1,0.4,0.4
			c0,0.4-1.5,2.3-2.1,7c-0.4,3-1.6,4.1-4.2,4.1c-1.9,0-2.6-0.8-2.6-1.9c0-0.9,0.7-1.6,1.8-1.6c1.2,0,1.7,0.4,1.7,1.2
			c0,0.3-0.1,0.6-0.3,0.7c-0.2,0.1-0.3,0.2-0.3,0.4c0,0.1,0.1,0.2,0.3,0.2c1.1,0,2.2-1.9,2.2-2.6c0-0.5-0.1-0.6-0.8-0.6
			c-0.8,0-1.6,0.1-2.4,0.1c-0.5,0-0.7-0.1-0.8-0.8c-1.1-4.4-1.3-5.2-1.9-5.5C260.9,115.8,260.9,115.6,260.9,115.4z"/>
		<path d="M184.6,136.5c0-0.3,0.2-0.6,0.5-0.6c0.3,0,0.6,0.1,0.9,0.1c0.3,0,0.4-0.1,0.4-0.3c0-0.2-0.1-0.2-0.4-0.4
			c-0.8-0.4-1.3-1-1.3-2c0-1.4,1.2-2.4,3.1-2.4c2.2,0,3,1,3,2.3c0,1.2-0.6,1.6-1.3,1.6c-0.9,0-1.4-0.5-1.4-1.2c0-0.5,0.2-0.8,0.4-1
			c0.2-0.2,0.2-0.2,0.2-0.4c0-0.2-0.1-0.3-0.4-0.3c-1,0-1.3,0.6-1.3,1.5c0,1.7,1.1,2.5,2.3,2.5c0.4,0,0.7-0.1,0.9-0.1
			c0.4,0,0.6,0.3,0.6,0.6c0,0.4-0.2,0.6-0.6,0.6c-0.1,0-0.5-0.1-0.6-0.1c-0.4,0-0.5,0.2-0.6,1.2c0,0.5,0,1.2,0,1.8
			c0,0.6,0,1.1,0.1,1.4c0,0.6,0.2,0.9,0.6,0.9c0.1,0,0.2,0,0.3,0c0.3,0,0.5,0.3,0.5,0.5c0,0.3-0.1,0.5-0.5,0.5c-0.8,0-1.5,0-2.3,0
			c-0.8,0-1.6,0-2.5,0c-0.3,0-0.5-0.2-0.5-0.5c0-0.3,0.1-0.5,0.4-0.5c0.2,0,0.3,0,0.4,0c0.2,0,0.3-0.1,0.4-1c0-0.5,0.1-1.1,0.1-1.8
			c0-0.8,0-1.7,0-2.3c0-0.2-0.1-0.4-0.4-0.4c-0.2,0-0.3,0-0.4,0C184.8,137.1,184.6,136.9,184.6,136.5z"/>
		<path d="M192.4,138.9c0-1,0-1.9-0.1-2.7c0-0.7-0.1-0.8-0.3-0.8c-0.2,0-0.2,0-0.3,0c-0.4,0-0.5-0.3-0.5-0.5c0-0.3,0.1-0.5,0.5-0.5
			c0.5,0,1,0.1,1.7,0.1c0.4,0,0.7-0.1,1.1-0.1c0.4,0,0.5,0.3,0.5,0.6c0,0.8-0.2,1.4-0.2,2.2c0,0.3,0.1,0.4,0.2,0.4
			c0.2,0,0.2-0.1,0.4-0.8c0.4-1.7,1.2-2.6,2.3-2.6c0.8,0,1.4,0.4,1.4,1.8c0,1.1-0.3,2.1-1.3,2.1c-0.6,0-0.9-0.1-1.1-0.7
			c-0.1-0.3-0.1-0.4-0.3-0.4c-0.4,0-0.9,1.1-0.9,3.8c0,1.5,0.2,1.8,0.7,1.8c0.5,0,0.7-0.1,0.8-0.1c0.3,0,0.5,0.2,0.5,0.5
			c0,0.3-0.2,0.6-0.5,0.6c-0.5,0-2.2-0.1-3.1-0.1c-0.8,0-1.5,0-2.1,0c-0.3,0-0.5-0.3-0.5-0.5s0.1-0.5,0.5-0.5c0,0,0.2,0,0.3,0
			c0.3,0,0.3-0.5,0.3-1C192.4,140.5,192.4,139.7,192.4,138.9z"/>
		<path d="M204.6,143.6c-3.5,0-4.7-1.7-4.7-4.3c0-3.8,1.9-5.2,4.7-5.2c2.8,0,4.7,1.5,4.7,5.2C209.3,141.9,208,143.6,204.6,143.6z
			 M204.6,135.1c-0.8,0-1.3,0.6-1.3,3.8c0,2.6,0.4,3.4,1.3,3.4c0.9,0,1.2-0.7,1.2-3.4C205.8,135.6,205.4,135.1,204.6,135.1z"/>
		<path d="M226.2,142.5h0.4c0.3,0,0.4,0.2,0.4,0.5c0,0.3-0.1,0.5-0.4,0.5c-0.4,0-0.9-0.1-1.4-0.1c-0.6,0-1.2,0.1-1.9,0.1
			c-0.6,0-0.8-0.4-0.8-1.1c0-1.5,0.2-3.3,0.1-4.9c0-0.7-0.3-1.1-0.8-1.1c-0.8,0-1.3,0.4-1.5,1.7c-0.1,0.7-0.1,1.5-0.1,2.2
			c0,0.4,0,0.9,0,1.4c0,0.6,0.1,0.8,0.4,0.8c0.2,0,0.4,0,0.5,0c0.4,0,0.5,0.2,0.5,0.5c0,0.4-0.2,0.5-0.5,0.5c-0.6,0-2-0.1-2.8-0.1
			c-0.5,0-1.2,0.1-1.6,0.1c-0.2,0-0.4-0.1-0.4-0.5c0-0.2,0.1-0.5,0.4-0.5s0.3-0.3,0.4-1c0-0.5,0.1-0.9,0.1-1.5c0-0.9,0-1.8-0.1-2.7
			c0-0.7-0.4-0.9-0.9-0.9c-0.8,0-1.3,0.5-1.5,2.1c-0.1,0.6-0.1,1.2-0.1,1.8c0,0.4,0,0.8,0,1.2c0,0.7,0.1,1,0.6,1
			c0.4,0,0.5,0.2,0.5,0.5c0,0.4-0.2,0.5-0.5,0.5c-0.4,0-1.8-0.1-2.7-0.1c-0.6,0-1.3,0.1-1.7,0.1c-0.4,0-0.5-0.3-0.5-0.5
			c0-0.3,0.2-0.5,0.5-0.5c0.1,0,0.2,0,0.3,0c0.2,0,0.3-0.4,0.3-0.7c0-1.2,0-2.5,0-3.6c0-0.7,0-1.4,0-1.9c0-0.7-0.1-0.8-0.4-0.8
			c-0.2,0-0.2,0-0.3,0c-0.4,0-0.4-0.3-0.4-0.6c0-0.3,0.2-0.5,0.5-0.5c0.4,0,1.1,0.1,1.5,0.1c0.5,0,0.8-0.1,1.2-0.1
			c0.4,0,0.5,0.2,0.5,0.6c0,0.5-0.1,1-0.1,1.6c0,0.2,0.1,0.3,0.3,0.3c0.2,0,0.3-0.1,0.3-0.2c0.5-2,1.5-2.5,2.8-2.5
			c1.6,0,2,0.9,2.2,2.4c0,0.2,0.2,0.3,0.3,0.3c0.2,0,0.3-0.1,0.3-0.3c0.4-1.5,1-2.4,2.9-2.4c2.1,0,2.8,0.9,2.8,3.1
			c0,1-0.2,2.9-0.2,4C225.6,142.1,225.7,142.5,226.2,142.5z"/>
		<path d="M230.3,134.8c0-0.3,0.2-0.5,0.4-0.5c0.5,0,1.3,0.1,2.3,0.1c0.7,0,1.3-0.1,2-0.1c0.3,0,0.5,0.2,0.5,0.5
			c0,0.2-0.2,0.5-0.5,0.5c-0.2,0-0.3,0.1-0.3,0.4c0,1,0.7,3.1,1.1,4.2c0.2,0.5,0.4,0.8,0.8,0.8c0.3,0,0.6-0.2,0.6-1.1
			c0-2.3-0.8-4.2-0.8-4.8c0-0.3,0.1-0.5,0.4-0.5c0.3,0,1.1,0.1,1.6,0.1c0.6,0,1.1-0.1,1.4-0.1c0.2,0,0.4,0.1,0.4,0.4
			c0,0.4-1.5,2.3-2.1,7c-0.4,3-1.6,4.1-4.2,4.1c-1.9,0-2.6-0.8-2.6-1.9c0-0.9,0.7-1.6,1.8-1.6c1.2,0,1.7,0.4,1.7,1.2
			c0,0.3-0.1,0.6-0.3,0.7c-0.2,0.1-0.3,0.2-0.3,0.4c0,0.1,0.1,0.2,0.3,0.2c1.1,0,2.2-1.9,2.2-2.6c0-0.5-0.1-0.6-0.8-0.6
			c-0.8,0-1.6,0.1-2.4,0.1c-0.5,0-0.7-0.1-0.8-0.8c-1.1-4.4-1.3-5.2-1.9-5.5C230.4,135.2,230.3,135,230.3,134.8z"/>
		<path d="M245.2,143.6c-3.5,0-4.7-1.7-4.7-4.3c0-3.8,1.9-5.2,4.7-5.2c2.8,0,4.7,1.5,4.7,5.2C249.9,141.9,248.6,143.6,245.2,143.6z
			 M245.2,135.1c-0.8,0-1.3,0.6-1.3,3.8c0,2.6,0.4,3.4,1.3,3.4c0.9,0,1.2-0.7,1.2-3.4C246.4,135.6,246,135.1,245.2,135.1z"/>
		<path d="M259.6,143.4c-0.4,0-0.8,0.1-1.2,0.1c-0.3,0-0.5-0.2-0.5-0.5c0-0.5,0.1-1.2,0.1-1.8c0-0.2-0.1-0.3-0.3-0.3
			c-0.2,0-0.3,0.1-0.3,0.3c-0.3,1.6-1.4,2.5-3.2,2.5c-2,0-2.7-0.9-2.7-3.2c0-1.1,0.4-2.7,0.4-4.1c0-0.9-0.1-1-0.3-1
			c-0.2,0-0.3,0-0.4,0c-0.4,0-0.5-0.3-0.5-0.5c0-0.3,0.1-0.5,0.5-0.5c0.3,0,1.1,0.1,1.8,0.1c0.5,0,0.9-0.1,1.4-0.1
			c0.4,0,0.7,0.1,0.7,0.7c0,0.9-0.3,3-0.3,5c0,1,0.2,1.5,1,1.5c0.9,0,1.6-1.2,1.6-3.2v-2c0-0.7-0.1-1-0.5-1c-0.1,0-0.2,0-0.3,0
			c-0.3,0-0.5-0.3-0.5-0.5c0-0.4,0.1-0.5,0.5-0.5c0.6,0,1.2,0.1,1.8,0.1c0.6,0,1.2-0.1,1.9-0.1c0.3,0,0.5,0.1,0.5,0.4
			c0,0.6-0.1,2.3-0.1,4.2c0,0.8,0,1.7,0,2.6c0,0.7,0,1,0.4,1c0.1,0,0.2,0,0.2,0c0.3,0,0.5,0.3,0.5,0.6c0,0.3-0.1,0.5-0.5,0.5
			C261.1,143.5,260.2,143.4,259.6,143.4z"/>
		<path d="M263.6,138.9c0-1,0-1.9-0.1-2.7c0-0.7-0.1-0.8-0.3-0.8c-0.2,0-0.2,0-0.3,0c-0.4,0-0.5-0.3-0.5-0.5c0-0.3,0.1-0.5,0.5-0.5
			c0.5,0,1,0.1,1.7,0.1c0.4,0,0.7-0.1,1.1-0.1c0.4,0,0.5,0.3,0.5,0.6c0,0.8-0.2,1.4-0.2,2.2c0,0.3,0.1,0.4,0.2,0.4
			c0.2,0,0.2-0.1,0.4-0.8c0.4-1.7,1.2-2.6,2.3-2.6c0.8,0,1.4,0.4,1.4,1.8c0,1.1-0.3,2.1-1.3,2.1c-0.6,0-0.9-0.1-1.1-0.7
			c-0.1-0.3-0.1-0.4-0.3-0.4c-0.4,0-0.9,1.1-0.9,3.8c0,1.5,0.2,1.8,0.7,1.8c0.5,0,0.7-0.1,0.8-0.1c0.3,0,0.5,0.2,0.5,0.5
			c0,0.3-0.2,0.6-0.5,0.6c-0.5,0-2.2-0.1-3.1-0.1c-0.8,0-1.5,0-2.1,0c-0.3,0-0.5-0.3-0.5-0.5s0.1-0.5,0.5-0.5c0,0,0.2,0,0.3,0
			c0.3,0,0.3-0.5,0.3-1C263.5,140.5,263.6,139.7,263.6,138.9z"/>
		<path d="M240,161c0-0.9-0.7-1.2-2.7-1.8c-1.6-0.5-2.7-1.2-2.7-2.9c0-1.6,1.1-2.9,3.9-2.9c2.6,0,3.9,0.8,3.9,2.1
			c0,0.8-0.5,1.2-1.5,1.2c-1,0-1.7-0.3-1.7-0.9c0-0.3,0.2-0.5,0.4-0.6c0.2-0.1,0.2-0.2,0.2-0.3c0-0.3-0.3-0.5-1.2-0.5
			c-1.2,0-1.6,0.4-1.6,1c0,0.6,0.4,1.1,2.8,1.7c2.4,0.6,2.9,1.7,2.9,3.1c0,1.9-1.4,2.9-4.2,2.9c-3.3,0-4.3-1-4.3-2.2
			c0-0.8,0.6-1.3,1.7-1.3c1,0,1.6,0.4,1.6,1c0,0.4-0.1,0.6-0.3,0.7c-0.2,0.1-0.3,0.2-0.3,0.3c0,0.3,0.4,0.4,1.3,0.4
			C239.4,162,240,161.7,240,161z"/>
		<path d="M248.6,163.1c-2.4,0-4.6-1-4.6-4.6c0-3.7,2-5,4.7-5c2.9,0,3.8,1.4,3.8,2.9c0,1.5-0.7,2.4-4.1,2.4c-0.6,0-1.1,0.1-1.1,0.6
			c0,0.8,0.7,1.3,2.2,1.3c1.3,0,2.2-0.4,2.2-1.4c0-0.3,0.2-0.5,0.4-0.5c0.2,0,0.4,0.1,0.4,0.5C252.5,162,251.5,163.1,248.6,163.1z
			 M247.1,156.8c0,0.3,0,0.5,0.1,0.6c0.1,0.3,0.4,0.4,0.7,0.4c0.6,0,1.9-0.3,1.9-2c0-0.7-0.3-1.4-1.1-1.4
			C247.6,154.5,247.1,155.2,247.1,156.8z"/>
		<path d="M253.7,162.3c0-0.3,0.1-0.5,0.4-0.5c0,0,0.2,0,0.3,0c0.3,0,0.3-0.3,0.3-0.8c0-1.3,0.1-2.6,0.1-3.9c0-1.2,0-2.3-0.1-3.5
			c0-0.7-0.1-1-0.4-1c-0.1,0-0.3,0-0.4,0c-0.2,0-0.4-0.2-0.4-0.5c0-0.4,0.2-0.6,0.5-0.6c1.6,0,2.7-0.5,3.6-0.5
			c0.4,0,0.5,0.2,0.5,0.5c0,0.7-0.1,2.7-0.1,5.5c0,1.3,0,3,0.1,3.9c0,0.5,0.1,0.7,0.3,0.7c0.1,0,0.2,0,0.3,0c0.3,0,0.5,0.2,0.5,0.5
			c0,0.3-0.1,0.5-0.5,0.5c-0.4,0-1.7,0-2.5,0c-0.9,0-1.7,0-2,0C253.8,162.8,253.7,162.6,253.7,162.3z"/>
		<path d="M259.6,155.9c0-0.3,0.2-0.6,0.5-0.6c0.3,0,0.6,0.1,0.9,0.1s0.4-0.1,0.4-0.3c0-0.2-0.1-0.2-0.4-0.4c-0.8-0.4-1.3-1-1.3-2
			c0-1.4,1.2-2.4,3.1-2.4c2.2,0,3,1,3,2.3c0,1.2-0.6,1.6-1.3,1.6c-0.9,0-1.4-0.5-1.4-1.2c0-0.5,0.2-0.8,0.4-1
			c0.2-0.2,0.2-0.2,0.2-0.4c0-0.2-0.1-0.3-0.4-0.3c-1,0-1.3,0.6-1.3,1.5c0,1.7,1.1,2.5,2.3,2.5c0.4,0,0.7-0.1,0.9-0.1
			c0.4,0,0.6,0.3,0.6,0.6c0,0.4-0.2,0.6-0.6,0.6c-0.1,0-0.5-0.1-0.6-0.1c-0.4,0-0.5,0.2-0.6,1.2c0,0.5,0,1.2,0,1.8
			c0,0.6,0,1.1,0.1,1.4c0,0.6,0.2,0.9,0.6,0.9c0.1,0,0.2,0,0.3,0c0.3,0,0.5,0.3,0.5,0.5c0,0.3-0.1,0.5-0.5,0.5c-0.8,0-1.5,0-2.3,0
			c-0.8,0-1.6,0-2.5,0c-0.3,0-0.5-0.2-0.5-0.5c0-0.3,0.1-0.5,0.4-0.5c0.2,0,0.3,0,0.4,0c0.2,0,0.3-0.1,0.4-1c0-0.5,0.1-1.1,0.1-1.8
			c0-0.8,0-1.7,0-2.3c0-0.2-0.1-0.4-0.4-0.4c-0.2,0-0.3,0-0.4,0C259.8,156.5,259.6,156.3,259.6,155.9z"/>
		<path d="M270.1,161.2c0,1.1-0.7,1.8-2,1.8c-1.4,0-2-0.7-2-1.8c0-1.3,0.8-2.1,2-2.1C269.4,159,270.1,159.8,270.1,161.2z"/>
	</g>
	<path d="M237.4,233.7c7.7-3.5,11.1-12.6,7.6-20.3c-2.1-4.5-6-7.6-10.5-8.6c0.1,0.2,0.2,0.3,0.3,0.5c3.6,7.9,0.1,17.3-7.8,20.9
		c-2.9,1.3-6.1,1.7-9,1.2C221.7,234.2,230.1,237,237.4,233.7z"/>
	<path d="M254.5,194.1c-1.4-3.9-0.5-2.9-4.4-4.4c3.9-1.4,2.9-0.5,4.4-4.4c1.4,3.9,0.5,2.9,4.4,4.4
		C255,191.2,255.9,190.2,254.5,194.1z"/>
	<path d="M183.9,236.5c-1.8-4.9-0.6-3.7-5.6-5.6c4.9-1.8,3.7-0.6,5.6-5.6c1.8,4.9,0.6,3.7,5.6,5.6
		C184.5,232.8,185.7,231.6,183.9,236.5z"/>
	<path d="M168.9,127.8c-1.5-4.2-0.5-3.2-4.7-4.7c4.2-1.5,3.2-0.5,4.7-4.7c1.5,4.2,0.5,3.2,4.7,4.7
		C169.4,124.6,170.4,123.6,168.9,127.8z"/>
	<path d="M72.6,237.4c-1.5-4.2-0.5-3.2-4.7-4.7c4.2-1.5,3.2-0.5,4.7-4.7c1.5,4.2,0.5,3.2,4.7,4.7C73.2,234.2,74.2,233.2,72.6,237.4z
		"/>
	<path d="M155.5,48.2c-1.5-4.2-0.5-3.2-4.7-4.7c4.2-1.5,3.2-0.5,4.7-4.7c1.5,4.2,0.5,3.2,4.7,4.7C156.1,45.1,157.1,44.1,155.5,48.2z
		"/>
	<path d="M261.5,247c-1.4-3.9-0.5-2.9-4.4-4.4c3.9-1.4,2.9-0.5,4.4-4.4c1.4,3.9,0.5,2.9,4.4,4.4C262,244,262.9,243.1,261.5,247z"/>
	<path d="M77.6,188.1c-1.4-3.9-0.5-2.9-4.4-4.4c3.9-1.4,2.9-0.5,4.4-4.4c1.4,3.9,0.5,2.9,4.4,4.4C78.1,185.1,79.1,184.2,77.6,188.1z
		"/>
</g>
</svg>
