<?xml version="1.0" encoding="utf-8"?>
<!-- Generator: Adobe Illustrator 27.8.1, SVG Export Plug-In . SVG Version: 6.00 Build 0)  -->
<svg version="1.1" id="Layer_1" xmlns="http://www.w3.org/2000/svg" xmlns:xlink="http://www.w3.org/1999/xlink" x="0px" y="0px"
	 viewBox="0 0 864 864" style="enable-background:new 0 0 864 864;" xml:space="preserve">
<style type="text/css">
	.st0{fill:#00AEEF;}
</style>
<g>
	<path class="st0" d="M709.5,499.3h-0.2c-18.8,77.5-70.4,141.8-139.4,178.9c0,0.3-15.8,8-16,7.8c-181.1,88.2-410.3-51.4-405.3-250.2
		c-0.5-154.1,130.7-277.4,284-276.7C617.7,159.1,750.7,327.3,709.5,499.3z"/>
	<g>
		<path d="M609.4,422.5c1.6,0.4,2.8,0.7,2.8,0.7c-1.1,0.3-19.4,5.5-21.1,6v-4.3h-38.2c0.1,0.3-0.2,37.7,0.1,37.9
			c1.2-0.1,2.2,0.7,2.3,1.9c0,0,2.4,19.6,2.4,19.6l-5.9-4.6l-6.2,4.6l2.7-19.3c0.2-1.1,1-2,2-2.2c0.3-0.6,0-37.3,0.1-37.9
			c-0.3,0.1-37.7-0.2-37.9,0.1c0.1,1.2-0.7,2.2-1.9,2.3c0,0-19.6,2.4-19.6,2.4l4.6-5.9l-4.6-6.2l19.3,2.7c1.1,0.2,2,1,2.2,2
			c0.6,0.3,37.3,0,37.9,0.1v-38.2h-4.3c0.4-1.8,4.8-19.9,5.1-21.1c0.3,1.1,5.5,19.4,6,21.1h-4.3v38.2h38.2v-4.3L609.4,422.5z
			 M540.7,361.2c1.1-0.3,3.6,0.8,3.5-1c-0.1-7.4,0.2-14.6,0.1-22c4,7,8,14,12,21.1c0.9,1.6,2.8,0.7,4.3,1.1c0.5,0.1,0.7-0.2,0.7-0.7
			c0.4-9.6,0.5-19.1,1-28.7c0-0.6-0.2-0.8-0.7-0.8c-1.3,0.4-3.9-1-3.6,1.2c-0.2,6.9-0.5,13.6-0.7,20.4c-4.3-6.9-8.2-14.3-12.2-21.3
			c-0.8-1.1-2.9,0-4.2-0.4c-0.5,0-0.7,0.2-0.7,0.7c-0.1,9.8,0,19.6-0.2,29.4C539.8,361,540.1,361.2,540.7,361.2z M557.8,506.9
			c-1.8-2.1-4.1-3.7-6.2-5.5c-6.4-5.5,2.7-9,4.7-2.9c0.6,1.1,2.6,0.2,3.7,0.4c1.7-1.2-0.6-4.8-1.8-5.8c-12.7-8.3-18.3,7.5-6.4,14.2
			c12,8-1.7,17.9-5.4,8.4c-0.4-1.6-0.1-2.3,0.9-2.7c1.6-0.9,3.1,1.3,3.1,2.9c0.2,1.7,2.5,0.3,3.6,0.4c1.9-0.8-0.5-4.4-1.1-5.7
			c-7.5-8.1-15.3,4.4-8.2,10.9C554.2,530.2,567.3,515.9,557.8,506.9z M623.1,411.4c3,0.1,5.9-0.3,8.9-0.3c0.8-0.1,1-0.2,0.8-1.1
			c-0.4-1.1,0.7-3.7-1-3.6c-4.3,0.1-8.7,0.3-13,0.6c-1.9,0-0.7,5.2-1.1,6.7c0,7.8-0.1,15.7-0.2,23.5c0,1.4,0,1.3,1.2,1.4
			c4.5,0,8.9-0.2,13.4-0.3c0.4,0,0.6-0.2,0.6-0.7c-0.3-1.1,0.8-4.1-0.9-3.9c-3,0-6.1-0.1-9.1,0.2c-1.8,0.1-0.3-6.9-0.7-8.5
			c0.3-1.3,4.9-0.3,6.3-0.7c1.7-0.1,0.3-2.6,0.7-3.8c0.6-2.1-6.7,0.3-7.1-1.1C622.4,417.8,620.7,412,623.1,411.4z M486.7,406.6
			c-1,0.1-3.2-1.6-3.5-0.1c-1.7,7.3-3.3,14.4-5,21.8c-2.2-6.4-4.1-12.9-6.3-19.3c-0.5-1.5-0.7-1.6-2.2-1.3c-1.3,0.2-2.4,0.4-2.9,2.1
			c-2.3,6.9-4.9,13.4-7.5,20.2c-2.3-7.2-4.4-14.6-6.6-21.9c-0.4-1.7-2.6,0.2-3.7,0.3c-0.7,0.2-0.4,1-0.2,1.5
			c2.8,9.3,5.3,18.5,8.2,27.7c0.2,0.5,0.5,0.8,1,0.7c1.1-0.5,2.8,0.5,3.3-0.9c2.7-7.2,5.3-14.3,8-21.5c0.1,0.2,0.1,0.3,0.2,0.3
			c2.3,7,4.5,13.9,6.8,20.9c0.4,1.3,2.2,0.4,3.2,0.8c0.7,0.1,1-0.2,1.1-0.9c2.3-9.6,4.3-19.3,6.6-28.9
			C487.6,406.9,487.5,406.8,486.7,406.6z"/>
		<path d="M486.6,333.3c2.3,7.7-12.2,4.9-14.7,4.7c-8.3-0.6-10.9,1.5-9.2-4c1.1-3.6,4.2-12.3,6.4-14.9c0.7-0.8,0.9,0,1.3,0.7
			C471.3,321.2,484,325,486.6,333.3z M610.8,254c-2.4-1.4-4.9-1.7-8-3.6c-3.1-2-7-5.3-10.9-7.7c-9.6-5.7-12-1.8-6.6,6
			c2.3,3.2,5.6,6.1,7.3,8.8c2.6,3.9,1.9,10.2,6.3,18c3.6,6.3,4.7,2.5,7.3,1.7c5.3-1.7,9.6,2.4,11.5,1
			C621.4,275.2,622.9,259.7,610.8,254z M533,216.9c-4.7-4-5.6-3.8-9.9,0.3c-4.4,4.2-6.3,2.5-7.7,3.8c-1.6,1.5,6.3,13.1,16,11.9
			c4.9-0.6,8.2-6.7,6.7-10.5C537.3,220.4,535,218.5,533,216.9z M710.3,500L710.3,500c-18.9,77.5-70.5,141.8-139.5,178.9
			c0,0.3-15.8,8-16,7.8C373.6,775,144.4,635.3,149.4,436.5c-0.5-154.1,130.7-277.4,284-276.7C618.6,159.8,751.6,328,710.3,500z
			 M293.6,207.9c2.4,1.7,5,3.5,7.7,5.2c6.4-6.5,8.8-6.9,0.7-9.9C299.2,204.7,296.3,206.3,293.6,207.9z M386.1,638.2
			c-5.4-7.1-16-13.8-17.9-22.3c-3.3-18.9,24.9-43.3,19.8-58.2c-9.4-15.2-9.3-2.6-26.1-8.4c-24.1-7.4-19.8-20.8-31.6-24.8
			c-11.2-1.6-22-13.4-32.1-17.7c-6.3-2.4-5.6,1.5-17.2-2.8c-14.5-5.7-44.8-17.2-39.7-36.5c-1.6-9.8-8.7-15.3-11-19.4
			c-3.1-11.5-6.2-12.1-10.3-28c-0.9-3.9-1.1-7.1-2.6-8.9c-15.8-12.3,10.8,46.9,4,48c-2.1,1-9.3-19.7-9.4-19.9
			c-4-5.5-7.4-8.3-4.4-15.9l-6.6-24c-22.3-35.4-3.3-45.5,8.3-81.7c1.9-8.4,1.9-25.7,3.6-38.2C82.5,444.1,209.5,701,425,702.6
			C436.9,650.2,409.4,690.2,386.1,638.2z M698.9,501.1c-26-13.7-33-47.6-36.9-73.9c-2.3-19.8,6.4-31.1,5.4-45.9
			c-0.6-9.3-3.9-10.5-3.2-19.8c3.8-30.3-6.3-3-22.9-31c-6.6-13.8,6.3-23.3,7-27.5c0.9-4-8.7-5.2-15.2-10.2c-8.4-6.8-4.2-11.4-4.3-18
			l-6.7-31.2c-6-5.6-12.3-10.9-18.8-15.9c-2.4-0.7-2.6,2.9-16.6-5.2c-9.7-5.6-13.9-11.3-18.8-18.1c-31.5-17-66.7-28.5-104.2-32.5
			c13.2,8.4,27.3,16.7,31.9,26.2c3.1,6.6-1.1,9.8-2.4,17.6c-0.6,3.9-0.6,9.1-1.3,12.8c-1.9,7-2.7,7.5-2.1,14.2
			c-4.3,14,15.1,29.3-9.6,22.2c-32.4-10.2-34.4-52.1-58.8-71.1c-9.3-9.2-11.2-2.4-19.8-4.5c-11.8-4.1,0.5-12.8,0.9-17.4
			c-14.7,0.8-11,15.3-32.4,20.6c-10.9,3.1-31.6,5.3-38.5-3.2c-2.9,1.1-5.6,2.2-8.3,3.5c4,7.5,5.6,0.8,12.2,16.7
			c1.7,4,3.3,7.8,2.1,12.6c8.4-2.4,13.2-8.8,22.3-1.5c5,3.9,11.6,14.2,11.5,0c-1.6-11.6,0.9-24,15.7-22c8.6,1.4,14.6,12.3,21.9,19.2
			c5.9,5.6,17.9,12.1,18.6,16c0.4,2.4-2,4.5-2.9,6.8c-0.9,2.2,0.1,4.7-0.4,7c-0.6,2.2-2.4,4.5-3,6.8c-0.6,2.4,0.3,5.2-1.3,6
			c-4.2,2.1-16.5-5-21.2-6.8c-8.8-3.2-15-2.9-4-7.1c2.9-1.8,3.7-12.9,2.3-16.9c-2.4-6.3-12.3-14.1-17.8-4.5
			c-5.3,25-69.9,35.9-32.2,62.9c4.2,4,5.9,6.4,8.7,7.8c2.9,1.4,7.2,1.5,8.9,3.6c3.3,3.8-1.9,8.2,12.5,20.6c7.9,6.8,2.7-5.4,5.2-11.4
			c8.8-10.1-0.7-39.3,16.2-45.6c8.6-2.2,16,11,22.5,12.7c3.4,0.8,6.7-1.5,9-1.8c4.9-0.7,8.3,12,19.6,21.1
			c9.6,7.7,25.3,10.2,11.5,22.3c-35.8,23.5,8.5,18.2-7.4,37c-3.6,3.5-9.4,6.7-11.9,6.7c-3.3,0-0.1-10.5-19.6,6.1
			c-32.8,28-20,36.3-34.9,49.8c-7.6,6.8-17.9,8.6-16.2,19.8c0.9,6.1,7.6,15.9,4.2,23.3c-2.3,4.7-6.3,4.2-8.2,0.7
			c-1.4-4-2.7-9-5.2-12.3c-1.7-4.9,3.4-6.4-13.3-11.3c-22-6.6-12.5,4.9-23.3,3.3c-6.3-1-9.9-5.3-21-4.2c-8.4,0.6-18.6,7-17.6,16
			c-1.8,4.9-1.7,9-1.9,15.1c-2.8,13.2,11.8,28.6,25.9,25.4c6-1.4,9.9-9.3,17.9-13.1c14.9-6.8,3.3,20.5,3.9,25
			c0.6,4.6,10.3,0.6,20.5,5c12.7,5.6-1.1,18.4,7.6,27.8c5.6,6,10.7,3.8,12.7,3.8c4.4,0.1,15.9,3.9,21,3.1c4-0.7,7.6-9.2,23.3-10
			c7.6-0.4,16.9,1.5,23,1.7c6.2,0,9.4-1.8,16.8-0.4c14.2,4.3,46.6,15.3,60.4,21.1c11.2,6,9.2,14.5,21,20.8
			c13.1,5.9,33.7,9.6,48.4,11.3c32.4,7.3,8.4,25,1.6,42.1c-5,12.3-2.7,19.4-18.5,36.3C634,631.2,680.9,571.5,698.9,501.1z"/>
		<path d="M456.2,745.7c-4,0.1-4.2-6.3-0.2-6.4c4.3,0.7,13.3-3.8,14.9,1.8c-0.3,6-10.2,3.4-14.4,4.5
			C456.4,745.7,456.3,745.7,456.2,745.7z M436.6,743.3c0-1.8-1.4-3.2-3.2-3.2c-7.5,0-15.2-0.3-22.6-0.8c-1.8-0.1-3.3,1.2-3.4,3
			c-0.5,6.4,21.1,3.3,26.1,4.3C435.1,746.5,436.6,745,436.6,743.3z M391,740.4c0.3-1.8-1-3.4-2.7-3.6c-5,0.4-25.9-7.5-26.1-1.7
			c-1.5,6.3,20.4,6.4,25.1,8C388.9,743.3,390.6,742.2,391,740.4z M346.2,730.9c0.5-1.7-0.5-3.5-2.1-4c-5.1-0.3-24.5-11.2-25.5-5.4
			c-2.5,5.8,19.4,9.2,23.8,11.6C343.9,733.6,345.6,732.7,346.2,730.9z M303.3,715c3.5-4.8-17.9-11.2-21.6-14.7
			c-1.5-0.9-3.5-0.3-4.4,1.2c-3.3,5.6,17.7,12,21.8,15C300.5,717.2,302.5,716.8,303.3,715z M263.2,693c1-1.5,0.6-3.5-0.9-4.4
			c-4.9-1.8-20.2-17.8-22.9-12.6c-4,5,15.8,14.4,19.4,18C260.2,695,262.2,694.6,263.2,693z M226.8,665.4
			c4.6-3.7-13.9-15.8-16.5-20.2c-1.2-1.3-3.3-1.3-4.5-0.1c-4.7,4.3,13.5,16.5,16.5,20.6C223.6,667,225.6,666.7,226.8,665.4z
			 M194.8,632.7c5.2-2.6-11.5-17.8-13.4-22.5c-1-1.4-3-1.8-4.5-0.8c-5.3,4,10.8,18.3,13.3,22.8C191.3,633.6,193.4,633.9,194.8,632.7
			z M168,595.7c1.5-0.9,2-2.9,1.1-4.4c-3.9-6.4-7.6-13.1-10.9-19.8c-0.8-1.6-2.7-2.2-4.3-1.4s-2.2,2.7-1.4,4.3
			C155.5,578.3,162.6,599.1,168,595.7z M147,555.1c1.6-0.7,2.4-2.6,1.7-4.2c-2.9-6.9-5.5-14.1-7.8-21.2c-0.5-1.7-2.4-2.6-4-2.1
			c-6.2,1.8,4.9,20.8,5.9,25.7C143.4,554.9,145.4,555.8,147,555.1z M132.3,511.7c5.5-2.4-0.2-10.6-0.1-15.1c-0.4-1.7-2-2.9-3.8-2.5
			c-1.7,0.4-2.9,2-2.5,3.8C127.7,502,126.1,512,132.3,511.7z M588.4,171.1c1.9-5.9-8.2-7-11.6-9.8c-1.6-0.8-3.5-0.2-4.3,1.4
			c-1.8,5.7,8.3,6.7,11.5,9.6C585.5,173.2,587.7,172.7,588.4,171.1z M739.7,381.4c1.7-0.3,2.9-2,2.5-3.8c-1.8-4.5-3-25.9-9.1-24.1
			c-1.7,0.5-2.7,2.2-2.2,3.9C733.3,362,734.2,383,739.7,381.4z M728.3,338.3c6-2-5.3-20.3-6.4-25c-0.7-1.6-2.6-2.4-4.2-1.6
			c-1.6,0.7-2.4,2.6-1.6,4.2C719.2,319.9,723.1,340.9,728.3,338.3z M710.7,297.5c1.6-0.8,2.2-2.8,1.3-4.3
			c-3.1-3.8-10.3-23.9-15.7-20.5c-5.3,2.5,8.8,18.6,10.1,23.5C707.2,297.9,709.2,298.3,710.7,297.5z M687.4,259.6
			c5.1-4.1-10.8-17.6-13.3-22.1c-1.2-1.3-3.2-1.5-4.5-0.4c-4.9,3,11.5,17.2,13.4,21.8C684,260.4,685.8,260.6,687.4,259.6z
			 M658.8,225.4c4.7-4.2-13.5-16.1-16.4-19.9c-1.3-1.2-3.4-1-4.5,0.3c-4.4,3.8,13.8,15.3,16.4,19.6
			C655.6,226.7,657.3,226.7,658.8,225.4z M625.5,195.8c3.9-5.2-15.5-14-19-17.4c-1.5-1-3.5-0.5-4.4,0.9c-1,1.5-0.5,3.5,0.9,4.4
			C607.7,185.4,622.4,200.7,625.5,195.8z M744,415c1.8-0.1,3.1-1.7,2.9-3.5c-1.2-4.2,1.3-14.2-4.8-14.4c-5.7,1.6-1,10.7-1.6,15
			C740.5,413.9,742.2,415.1,744,415z M142.2,482.4c-0.2-1-0.3-1.1-1.4-1c-12.4,1.9-24.8,3.8-37.2,5.6c-2.2,0.4-0.3,3.3-0.4,4.8
			c1.3,2,12.9-1.3,15.8-1.4c7.9-1.2,15.1-2.1,22.8-3.4C143.9,486.6,142,483.8,142.2,482.4z M128.5,466.3c-9,0.5-18,0.6-27,1.2
			c-2.2,0.1-0.9-3.2-1.4-4.6c0-0.6,0.2-0.9,0.9-1c22.7-2.7,19.5,6.2,19-16.7c-0.4-2.4-16,0.4-19.3-0.2c-1.9,0-0.7-3.2-1.2-4.5
			c-0.4-2,10.7-1,12.7-1.5c9-0.3,17.8-0.8,26.8-1c0.7-0.1,0.9,0.2,0.9,0.8c-0.4,1.8,1.6,5.2-1.5,4.8c-2.1,0.5-13.8-0.9-12.6,2
			c0.7,2.4-1,16.3,1.9,15.1c2.4,0.5,11.9-2,12.2,0.5c-0.3,1.5,1.3,4.4-0.9,4.5C135.4,465.9,132,466.1,128.5,466.3z M128.2,431.8
			c2.7-0.2,9,2.1,10.3-0.4c-0.1-1.1-0.1-2.2,0-3.3c-0.1-2.4-7.5-0.9-9.7-1.8c-2-1.6,0-9.1-0.5-12.1c0-0.8,0.4-1.1,1.2-1
			c3.3,0.2,6.7,0.3,10,0.7c2-0.1,0.9-3.3,1.6-4.6c-2-2.5-15-1.3-18.6-1.6C79.2,409.9,96.7,430.3,128.2,431.8z M103.6,417
			c5.4-3.2,11.9-3.2,18-3.8c1.9,0.1,0.1,9,0.6,11.1C122.2,427.2,98.7,419.7,103.6,417z M143.1,386.8c-0.6,1.4-0.1,4.1-1.9,4.5
			c-4.9,0.7-9.8,1.5-14.6,2.3c-3.4-0.2-24.4,5.5-23.7,2.2c0.1-1.3-1.7-4.1,0.4-4.3c10-1.8,20.6-2.8,30.4-5
			c-9.2-5.7-18.4-11.3-27.6-17.1c-1.5-1.2,1.5-3.1,2-4.4c0.4-0.6,0.8-0.6,1.4-0.2C120.1,372.5,134,378,143.1,386.8z M151.8,350.2
			c-1.2,5.7-2.7,11.1-4.2,16.7c-0.5,1.5-0.4,1.5-2.1,1.1c-12-3.4-24.1-6.7-36.1-10.2c-1.1-0.3-1.2-0.6-1.1-1.6
			c1.1-2.5,2.5-18.7,5.3-17.1c5.9,1,4.2,1.3,3.2,6.3c0.2,2.5-3.3,7-0.8,8.6c3,0.5,7.2,3,9.8,2.2c0.8-1.7,0.9-8.6,3.1-7.9
			c1.1,0.4,2.3,0.5,3.5,0.8c2.4,1.2-0.8,6.2-0.9,8.4c-0.1,0.5-0.1,0.9,0.6,1.1c2.7,0.2,9.2,4.2,10.8,2.1c0.8-1.9,2.1-13.6,4.4-12.2
			C148.3,349.2,151.8,349,151.8,350.2z M161.6,319.1c-1.1,1.5-0.9,4.5-3.3,4.7c-10.4,1.5-20.6,3.1-31,4.7c8.8,3.4,17.5,7,26.4,10.3
			c1.1,0.4,1.1,0.5,0.8,1.5c-0.8,1.3-0.7,4.3-2.7,3.7c-8.6-3.3-17.2-6.8-25.9-10.1c-3.2-1.2-6.2-2.7-9.5-3.8c-1.8-1.2,1.1-3.9,1-5.6
			c10.2-2.7,21.8-3.1,32.2-5.4c-2.7-2.1-29.3-10.1-25.2-12.6c0.9-0.9,0.6-3.8,2.4-3.1c2.8,1.1,5.6,2.3,8.3,3.6
			c8.7,3.7,17.2,7,25.9,10.9C161.6,318.2,161.9,318.6,161.6,319.1z M138.9,297.8c0.4-1.4-1.2-4.4,0.7-4.7c3.6,0.1,6.9,2.2,9.4,4.9
			c1.4,0.7-4.3,4.9-4.6,3.3c-1.3-1.4-2.8-2.4-4.8-2.7C139.1,298.5,138.9,298.2,138.9,297.8z M177.9,290.4c-0.9,1.2-1.4,4.3-3.3,3.2
			c-9.3-5.5-18.9-10.9-28.2-16.5c-1.1-0.7-1.1-0.7-1.7,0.4c-3.1,4.3-2.1,8.3-8,4.1c-0.6-0.3-0.8-0.8-0.4-1.4
			c3.7-6.4,7.7-12.9,11.3-19.4c0.8-1.3,0.9-1.3,2.3-0.5c1,0.9,4.1,1.4,3.1,3.1c-1.4,2.4-2.8,4.9-4.2,7.3c-0.4,0.7-0.3,1.1,0.4,1.5
			c9.6,5.6,18.9,11,28.1,16.4C178.4,289.2,178.4,289.5,177.9,290.4z M197.6,240.7c-4.1-2.9-9.1-2.3-13.3-0.1
			c1.3-19.8-22.5-10.8-27.2,1.3c-0.7,1.1,1,1.4,1.7,2.1c10.9,7.4,21.5,18,32.5,23.9C196.7,260.9,206.3,248.6,197.6,240.7z
			 M176.4,245.1c-2.4,5.4-3.7,1.7-7.1-0.3l0,0c-1-1.3-4.8-2.4-4.2-4.1C171.9,232.4,183.5,231.7,176.4,245.1z M193.3,254
			c-1.1,1.5-2.4,6.9-4.6,5.6c-2.7-2.1-5.5-4.1-8.2-6.2c-0.4-0.3-0.6-0.5-0.3-1C184.7,244.2,200.6,239.7,193.3,254z M222.4,229.9
			c0.4,0.4,0.5,0.7,0.1,1.2c-3.7,4.4-7.6,8.7-11.4,13c-1.1,1.1-1.1,1.2-2.4,0c-9.1-8.7-18.4-16.9-27.4-25.6
			c-0.8-0.8-0.8-1.1-0.2-1.9c2.2-1.7,10.7-15.4,12.5-12.9c4.8,3.6,3.2,3.1,0,7.1c-8.1,8.7-4.8,6.4,2.3,13.8c1.7,0.9,5.5-8,7.2-5.7
			c0.8,0.9,1.8,1.5,2.8,2.3c1.6,2.2-3.4,5.2-4.6,7.1c-0.8,2,5.7,6.1,7.2,8.1c1.6,1.6,7.3-7.6,9.3-8.9
			C219.1,225.7,221,229.1,222.4,229.9z M240.2,213.1c0.4,0.4,0.4,0.7,0,1.2c-3.9,4.1-8.3,8.1-12.4,12c-1.2,1.1-1.2,1.1-2.4-0.2
			c-8.4-9.3-16.9-18.5-25.2-27.8c-0.8-0.9-0.8-1.1-0.1-1.9c2.3-1.6,12-14.4,13.6-11.8c4.5,3.8,2.6,3.6-0.7,7.1
			c-1.1,2-6.6,4.5-5.1,6.9c2.3,2,4.6,6.4,7.2,7c1.6-0.9,5.4-6.8,6.8-5c0.6,1.4,4.1,2.4,2.7,4.2c-1,1.9-6.1,4.4-5.3,6.2
			c2.2,1.5,5.6,8.4,8.1,7.5c2.7-2.9,5.6-5.5,8.5-8.1C237.4,208.7,238.9,212.2,240.2,213.1z M265.1,191.7c0.4,0.5,0.4,1-0.2,1.3
			c-1.8,0.7-3,3.2-5.2,2.2c-9.5-4.1-19.2-8.3-28.8-12.4c5.9,7.4,11.2,15.2,17,22.7c0.7,0.9,0.7,1.1-0.2,1.7c-1.3,0.6-3,3.4-4.3,1.7
			c-5.5-7.4-11-14.9-16.6-22.2c-2.1-2.7-3.9-5.6-6-8.3c-1-1.9,2.9-2.7,3.8-4.2c10.1,3,20.1,8.9,30.2,12.4
			c-5.1-7.2-10.2-14.3-15.2-21.6c-2-2.2,1.6-2.6,2.8-4.1c0.5-0.4,0.9-0.4,1.4,0.2C250.9,171.1,258.1,181.6,265.1,191.7z M296,174.9
			c0.3,0.5,0.2,0.8-0.2,1.1c-4.9,3.1-9.9,5.9-14.8,8.8c-1.4,0.8-1.4,0.8-2.3-0.7c-5.9-10.9-12.5-21.7-18.3-32.7
			c-0.6-1-0.5-1.3,0.4-1.9c2.6-1,15-11.3,15.9-8.4c3.5,4.7,1.9,4.1-2.2,6.8c-1.5,1.8-7.4,2.9-6.6,5.5c1.6,2.1,3.3,7.8,5.4,8.5
			c1.7-0.5,6.9-5.4,7.8-3.4c0.3,1.5,3.3,3.3,1.6,4.6c-1.6,1.6-6.6,2.7-6.6,4.9c1.7,2,3.7,9.6,6.2,9.1c3.3-2.2,6.7-4,10.1-6
			C294.3,169.7,294.9,174,296,174.9z M316.2,147c0.2,6,0.3,12,0.5,17.9c-0.1,2-2.9,2-4.3,2.8c-4.5-1.9-7.4-8-11.3-11.4
			c-1.7-3-17.9-17.2-14.8-18.6c1.1-0.7,2.4-3.6,3.7-2c7,7.5,13.6,15.6,20.8,22.8c-0.3-10.8-0.6-21.7-0.8-32.5
			c0.3-1.9,3.3-0.4,4.7-0.8c0.7,0,0.9,0.4,1,1.1C315.8,133.1,316,140.1,316.2,147z M351.7,152.4c-0.4,2.6-13.6,5.1-16.8,6.8
			c-1.5,0.5-1.5,0.5-2.1-1.2c-3.7-11.9-7.6-23.8-11.2-35.7c-0.7-2.9,6.4-3.3,8.3-4.7c2.7-1,5.4-2.1,8.2-3c2.1-0.9,1.7,2.8,2.8,4
			c0.4,1,0.3,1.3-0.6,1.6c-2.1,1.5-12.5,3-11.7,5.6c1.1,2.5,1.6,8.2,3.5,9.3c1.8-0.2,7.6-3.9,8.3-1.8c0,1.5,2.6,4,0.7,4.9
			c-1.7,1.3-7.2,1.3-7.4,3.5c1.3,2.2,1.6,10.2,4.2,10.2c3.6-1.5,7.4-2.6,11.1-3.8C351.1,147.2,350.8,151.3,351.7,152.4z
			 M371.2,132.9c12-16.8-3.5-26.4-20.3-22.5c-1.1,0.3-3.9,0.4-3.6,2c0.7,2.9,1.2,5.8,1.9,8.7c2.2,9.8,4.4,19.8,6.5,29.7
			c0.3,1.1,0.4,1.2,1.5,1c1.4-0.6,4.8-0.1,3.9-2.4c-0.8-3.4-1.5-6.7-2.3-10.1c0-2.1,4.8-1.9,6.1-3.3c0.8-0.4,1.2-0.4,1.8,0.4
			c2.1,1.8,7.3,12.3,9.4,11c1-1.3,4.4-2.2,2.7-4C376.5,140,373.9,136.5,371.2,132.9z M369.2,125c-1,2.5-11.8,10.7-12.1,5.5
			c-0.9-4.3-2.2-9-3-13.8c-0.1-0.5-0.1-0.8,0.5-0.9C360.3,114.5,373.5,116.5,369.2,125z M405.7,116.9c3.9,48-31.1,23.1-16.7,19
			c0.7-0.3,0.9,0.2,1.2,0.7c7.5,11.9,11.2-8.5,10.1-14.3c-10.6,16-21.3-5.2-21.2-16.3c-0.1-1.1,0-1.2,1-1.3
			c8.5-2.5,2.2,7.4,9.6,15.8c4.2,4.6,7.2-3.9,8-7.2c1.5-2.3,0.3-10.8,2.5-10.8c1.3,0.4,3.5-0.5,4.2,0.8
			C405.4,107.7,405.4,112.5,405.7,116.9z M464.4,103c-3,12.4-6.2,24.9-9.1,37.2c-0.4,2.3-3.2,0.6-4.8,1c-4.4-8.3-5.9-19.3-9.5-28.3
			c-3.7,9.2-7.1,18.3-10.7,27.5c-0.6,1.8-2.9,0.7-4.3,1.2c-0.7,0.2-1.1-0.2-1.3-0.9c-3.6-11.9-6.7-23.9-10.1-35.9
			c-0.2-0.7-0.6-1.7,0.4-2c1.4-0.1,4.3-2.5,4.8-0.3c2.7,9.5,5.2,19.1,8,28.5c3.4-8.7,6.8-17,10-25.8c0.7-2.2,2-2.4,3.7-2.6
			c2-0.4,2.1-0.3,2.8,1.7c2.7,8.3,4.9,16.6,7.8,24.9c2.4-9.6,4.5-18.6,6.9-28.1c0.2-0.7,0.4-1,1.2-0.8
			C461.6,101.2,465.2,100.6,464.4,103z M502,111.4c-1.9,12.4-4.2,24.6-6.3,36.9c-0.4,1.6-2.9,0.1-4.1,0.2c-3.2,0.9,1-10.7,0.7-12.9
			c0.9-2.5-2.2-1.7-3.7-2.2c-2.4,0.3-12.7-3.9-12.6-0.9c-1.1,2.5-0.5,11.7-3,11.7c-1.3-0.6-4.5,0.2-4.3-1.9
			c2-12.3,4.3-24.6,6.2-36.9c0.1-0.8,0.4-1.2,1.2-1c1.3,0.6,4.4-0.2,4.4,1.7c-2.1,22.7-10.2,17.8,12.3,21.9
			c2.2,0.5,3.2-15.9,4.3-18.8c0.5-2,3.2-0.1,4.7-0.3C503.5,109,501.9,110.7,502,111.4z M512.5,127.7c0.8,1.5,5.6,1.8,7.5,2.4
			c2,0.5-0.1,3.4,0.1,4.9c-0.2,0.8-0.5,1.1-1.4,0.9c-2.2,0.1-6.8-2.8-8.1-1.1c-0.2,2.7-4.1,9.2-2,10.8c2.1,0.8,13.4,1.9,12.3,4.3
			c-0.7,1.2-0.2,4.3-1.9,4.2c-5.6-1.2-11.1-2.7-16.7-4.1c-1.5-0.5-1.5-0.4-1.1-2.1c2.7-9.8,5.3-19.5,8-29.2c1.1-1.9,1.1-8.4,3.6-8
			c5.4,1.1,11,2.3,16.4,3.6c1.1,0.3,1.1,0.4,0.8,1.6c-0.8,1.3,0.1,4.7-2.1,4.2C515,118.2,515.9,113.2,512.5,127.7z M546.9,147.8
			c19.2-7.4,11.3-24-4.8-29.9c-1.1-0.3-3.4-1.7-4.1-0.3c-1,2.8-2.1,5.5-3.2,8.3c-3.5,9.5-7.1,19-10.7,28.5c-0.4,1.1-0.3,1.3,0.7,1.7
			c1.5,0.3,4,2.5,4.6,0.1c1.2-3.2,2.4-6.5,3.5-9.7c1-1.7,4.9,1.1,7,0.6c0.9,0.1,1.2,0.4,1.3,1.4c0.7,2.7-0.6,14.1,2,14.3
			c1.4-0.7,4.9,0.6,4.5-1.8C547.4,156.6,547.2,152.2,546.9,147.8z M537.4,140.5c-3.6-0.2,0.6-5.7,1-8.1c1-1.4,1.8-7.7,3.8-7.9
			C557.7,131.1,554.9,145.1,537.4,140.5z M585.9,138.4c-1,1.2-0.9,4.6-2.9,3.8c-3.4-1.5-7-2.9-10.5-4.5c-0.8-0.4-1.3-0.4-1.8,0.6
			c-3.6,9-7.7,8.2,2.9,12.1c0.7,0.2,1,0.8,0.5,1.5c-1,1.1-0.8,4.7-2.9,4c-2.3-0.9-4.4-1.9-6.6-3c-0.5-0.2-0.9-0.3-1.2,0.4
			c-0.5,2.4-5.9,8.8-3.9,10.3c3.7,1.4,7.2,3.2,10.7,4.9c2.3,0.8-0.7,3.5-1,5c-2.7,1.4-13-5.5-16.9-6.6c-1.4-0.7-1.4-0.7-0.7-2.3
			c5.5-11.2,10.8-22.4,16.4-33.6c1.6-2.6,6.8,1.8,9.2,2.3C578.8,134.5,587.5,136.2,585.9,138.4z M510.4,747.8
			c1.5,11.7-14.3,14.4-22.9,15.9c-4.3-11.8-5-26.7-8.1-39.5c-0.1-0.8-1.1-2.4,0.1-2.6c11.6-5.9,35.1,3.6,21,17.3
			C505,740.2,509.4,742.9,510.4,747.8z M488.6,737.6c15.8-3.1,12.6-13.4-2.3-11.7c-1.6,0.8,0.4,4.2,0.3,5.8l0,0
			C487.3,733.4,486.5,737.3,488.6,737.6z M504.1,747.3c-2.5-3.3-12.6-4.5-14.8-1.6c1,2.3,0.7,10.9,3.1,11
			C496.3,755.3,507.6,753.2,504.1,747.3z M538.7,716c-0.9-1.7-0.5-6.3-2.9-6.1c-1.4,0.9-4.9,0.3-3.9,2.8c4.4,8.8,7.6,53-8.8,28.5
			c-4.2-7-6.7-14.9-8.5-22.9c-0.2-0.7-0.5-1-1.2-0.9c-1.2,0.5-4.3-0.1-4.3,1.7c0.5,3,1.3,6,2.2,9C525.8,773.4,549.8,754.6,538.7,716
			z M559.4,718.2c-3.8-10.3-7-9.1,4.7-13.6c1.9-0.7-0.3-3.1-0.6-4.4c-0.6-1.5-0.7-1.5-2.1-0.9c-6.8,3-13.8,5.8-20.7,8.6
			c-0.6,0.2-0.8,0.7-0.5,1.3c2.1,7,3.8,3.1,8.8,1.5c1.7-1.2,1.7,1.9,2.4,2.9c3.9,9.3,7.8,18.7,11.7,28c0.4,0.8,0.8,1,1.6,0.7
			c1.2-0.9,4.8-0.9,3.6-3.1C565.2,732.6,562.6,725.6,559.4,718.2z M585.6,701.2c-1.8-3.1-3.5-6.6-5.2-9.8c-1.1-1.9-3.2,0.9-4.6,1.2
			c-0.7,0.3-0.7,0.7-0.3,1.4c6.1,11.3,11.8,22.3,17.9,33.3c1.1,1.9,3-0.7,4.5-1.1c0.9-0.5,1-0.7,0.4-1.7
			C593.8,716.8,589.9,708.9,585.6,701.2z M604.1,694.3c-5.5-9.7-8.6-7.6,2.4-14.1c1.7-1-0.9-2.9-1.3-4.1c-0.9-1.4-1-1.4-2.3-0.6
			c-6.3,4.1-12.7,8-19,12c-0.5,0.3-0.6,0.8-0.2,1.4c1.1,1.1,2,5.1,3.9,3.3c1.7-0.6,5.9-5.2,6.8-2.7c5.5,9.4,11.6,18.4,17.3,27.7
			c1.3,1.9,3-0.9,4.5-1.4c0.9-0.6,1-0.9,0.3-1.9C612.2,707.5,608.5,701,604.1,694.3z M620.9,678.1c-1.1-1.2-3.2-4.3-4.7-2.9
			c-0.2,1.5-2.4,3.3-1.5,4.7c1.6,1.2,2.5,2.8,3,4.6c0.7,1.8,3.5,0.1,5,0.2C624.5,683.4,621.6,679.6,620.9,678.1z M646.2,666
			c-3.6-0.5-7.1-0.1-10.6-0.1c-10.8,0.1-4.6-11.2,2.3-6.7c0.4,0.4,0.7,0.2,1-0.1c6.1-4.2,0.9-6.1-3.9-6.9
			c-7.8-0.4-15.1,8.5-9.1,15.2c5.9,7.1,15.3,2.4,22.8,5c9.2,2.8,1.6,17.9-6.2,12c-3.4-1.9-1-5.9,2.2-4.4c3.7,2.6,3.3,1.5,5.9-1.5
			c1.4-2.3-4.3-3.9-5.9-4.5c-14.2-1.6-11.2,17.4,1.2,17.5C662.5,691.8,663,666.8,646.2,666z M691.1,641.3
			c0.4,25.3-36.2,20.5-37.4-2.1C652.9,613,690.3,618.2,691.1,641.3z M680.5,631.4c-13.1-12.5-29.6,5.2-16.4,17.2
			C677,660.9,693.7,643.6,680.5,631.4z M717.8,608.1c-10.1-7.3-20.2-14.3-30.3-21.6c-1.6-1-2,1.9-3,2.5c-1.2,1.2-1,1.4,0.3,2.4
			c7.2,5.1,14.3,10.3,21.5,15.3c-10.7,0-22.1-2.2-32.6-1.7c-0.3,1.7-3.7,3.7-2.2,5.3c2.9,1.8,5.6,3.9,8.4,5.8
			c7.8,5,15.3,10.4,23.1,15.5c1.8,1.2,2.3-2.2,3.5-3.1c0.6-0.9,0.5-1-0.4-1.7c-8-5.1-15.6-10.7-23.5-15.8
			c10.5,0.6,20.8,1.4,31.3,2.1c2.4,0.2,2.7-2.6,4.1-3.9C718.5,609,718.3,608.5,717.8,608.1z M742.1,560.9
			c-11.4-5.1-22.8-10.4-34.2-15.6c-1.1-0.5-1.2-0.5-1.7,0.5c-0.7,1.8-2.5,3.6-0.3,5.2c6.7,6.7,13.1,13.4,19.7,20.3
			c-9.6-0.5-19.3-1.9-28.9-2.6c-1.1-0.8-4.3,6.3-2.6,6.2c11.4,5.4,22.7,10.7,34.2,16c1.1,0.5,1.3,0.4,1.7-0.6
			c0.3-1.5,3.1-3.8,0.5-4.6c-7.3-3.2-14.4-6.9-21.7-10.1c7.4,0.4,14.9,1.4,22.3,1.9c2.7,0.2,2.7,0.2,3.8-2.1
			c1.7-4.1-12.8-14.5-15.6-18.8c6.8,3.1,13.6,6.2,20.4,9.3c1.1,0.5,1.2,0.4,1.7-0.5C741.6,564.1,744.1,561.7,742.1,560.9z
			 M748.2,531.3c-8.5-7.7-20.1-11.7-31-15c-1.5,0-1.6,2.5-2.5,3.4c-0.4,0.7-0.3,1,0.4,1.4c5.2,2.7,10.4,6.3,13.4,11.4
			c2.5,8.4-13.6,4-17.7,2.5c-2.1-0.7-1.9,2.6-2.6,3.8c-0.3,1-0.3,1.1,0.8,1.5c10,4.7,33.8,3.9,23.6-12.4c5.7,1.5,22.6,13.3,8.6,15.1
			c-0.5,0-1.1,0-1.1,0.8c0.5,1.5-0.8,4.4,0.9,4.9C751.4,549.8,756.5,537.9,748.2,531.3z M761.7,491.6c-1.5,0.1-4.8-1.9-4.9,0.4
			c-1,2-1.5,14.4-3.9,12.9c-10.5-2.1-21-4.4-31.4-6.6c-2.1-0.2-1.3,3-2,4.3c-0.2,0.7,0,1,0.8,1.2c4.5,0.1,40.5,10.8,38.9,6
			C759.1,507.2,764.2,491.1,761.7,491.6z M762.5,482.5c-12.4-1.7-24.8-3.7-37.2-5.6c-2.2-0.2-1.1,3-1.8,4.4c-0.1,0.7,0.2,1,0.9,1.1
			c12.7,1.9,24.8,3.9,37.4,5.6c2.2,0.3,1.3-2.9,1.8-4.2C763.7,482.8,763.6,482.7,762.5,482.5z M767.4,460.7
			c-0.9-10.5-14.2-15.2-21.8-8c-4,2.1-11.1,15.1-15.1,7.7c-0.3-2.9,0.9-6.4,4.4-6.6c1.3-0.7,0.4-3.3,0.7-4.7
			c-5.4-3.5-12.2,6-11.1,11.4c0.2,7.9,10.8,9.9,16,5.2c4.1-3.1,6.6-7.9,11.5-10.1c8.6-4.5,13.8,11.4,4.1,12.7
			c-3.7,1.1-4.9-3.4-1.6-4.6c0.9-0.8,3.7,0.1,3.4-1.6c-0.1-1.2-0.3-2.3-0.3-3.5c-0.6-2.6-5.8,0.2-7.4,1
			C735.4,474.8,768.2,482.1,767.4,460.7z M725.9,435.5c0.4,2.1-1.2,8.5,1.2,8.9c7.3,0.6,4.3-2.3,4.6-7.6c0-1.2,0-1.2,1.3-1.2
			c10.9,0.2,21.7-0.4,32.7-0.5c2.1-0.1,0.9-3.1,1.1-4.5c0-1.1-0.2-1.3-1.4-1.3c-10.6,0.2-21.5,0.5-32.5,0.5c-0.9,0-1.1-0.3-1.1-1.1
			c0-2.8-0.1-5.6-0.2-8.4c0-2-2.9-0.7-4.2-1C723.8,418.1,726.4,433.1,725.9,435.5z"/>
	</g>
</g>
</svg>
