<?xml version="1.0" encoding="iso-8859-1"?>
<!-- Generator: Adobe Illustrator 22.1.0, SVG Export Plug-In . SVG Version: 6.00 Build 0)  -->
<svg version="1.1" id="Layer_1" xmlns="http://www.w3.org/2000/svg" xmlns:xlink="http://www.w3.org/1999/xlink" x="0px" y="0px"
	 width="500px" height="500px" viewBox="0 0 500 500" enable-background="new 0 0 500 500" xml:space="preserve">
<path fill="#383737" d="M482.98,125.217c-0.347-2.658-0.347-9.476-3.004-13.058s-25.422-10.631-28.658-12.133
	c-3.236-1.502-14.213-9.707-15.947-11.209c-1.733-1.502,0.578-7.742-3.004-11.209c-3.582-3.582-33.049-23.342-41.138-24.267
	c-7.973-0.924-30.391,3.236-41.947,6.24c-11.556,3.004-31.662,28.658-37.787,38.133c-6.24,9.476-18.604,31.315-23.689,37.209
	c-4.969,5.893-8.898,8.898-13.867,11.209c-4.969,2.311-13.289,10.4-16.524,12.711c-3.236,2.311-13.867,4.969-22.418,7.049
	c-8.551,2.08-16.524,4.391-20.684,4.391c-4.16,0-31.084-3.004-47.609-2.658s-23.342,0.347-26-0.578
	c-2.658-0.924-13.404-18.027-14.56-30.275c-1.156-12.249-7.858-63.093-8.32-70.142c-0.347-7.049-6.702-42.524-13.404-44.489
	S89.399,38.319,88.706,50.106c-0.693,11.787-1.156,54.426,3.929,79.618c5.084,25.191,11.787,50.844,10.631,57.546
	c-1.156,6.702-16.987,22.071-22.418,29.12c-5.431,7.049-11.787,20.107-13.058,31.893c-1.156,11.787-3.582,29.929-6.356,38.249
	c-2.773,8.32-7.858,20.453-9.013,28.773c-1.156,8.32-2.773,17.333-5.084,20.453c-2.311,3.12-8.898,12.364-10.053,15.715
	c-1.156,3.236-2.658,19.182-3.236,23.111c-0.578,3.813-2.311,9.129-2.658,11.787c-0.347,2.658-10.978,29.813-13.058,36.053
	c-2.08,6.24-1.733,19.182-1.156,22.764c0.578,3.582,5.316,2.658,5.316,2.658s3.004,3.813,8.32,3.813
	c5.316,0,8.898-2.658,8.898-2.658s2.08,2.08,6.471,0.924s5.662-7.742,5.662-13.289c0-5.662,0.578-34.32,2.311-41.947
	c1.733-7.742,5.893-19.182,9.476-25.076c3.582-5.893,26.578-33.973,32.24-41.138c5.662-7.049,22.187-30.16,25.769-30.738
	c3.582-0.578,9.707,0.347,9.707,0.347s4.16,15.369,3.582,18.951c-0.578,3.582-4.391,13.058-7.742,15.715
	c-3.236,2.658-7.396,8.898-7.396,13.289s-2.658,57.315-2.658,63.555c0,6.24-0.924,18.373,1.156,23.111s12.364,4.391,12.364,4.391
	s3.236,1.733,6.818,1.733c3.582,0,8.898-2.311,8.898-2.311s5.893,2.08,7.973,0c2.08-2.08,1.502-12.711-4.16-19.529
	c-5.662-6.818-8.32-17.68-8.32-21.031c0-3.236-0.924-16.871,0.578-23.92c1.502-7.049,6.24-15.947,11.209-19.529
	c4.969-3.582,24.267-18.951,28.08-28.08s8.898-18.951,8.898-18.951s25.307,17.218,47.262,26.578
	c-0.116,17.911-0.462,49.573-2.08,59.395c-2.311,13.867-1.502,26.347-0.924,33.973c0.578,7.627,2.658,15.947-1.502,25.422
	s-3.813,16.524-3.813,16.524s0.924,3.813,2.658,5.893c1.733,2.08,11.209,3.004,11.209,3.004s3.813,3.004,8.551,3.004
	s10.631-2.658,10.631-2.658c1.156,1.156,12.364,1.733,14.098-2.311c1.618-4.16-1.618-16.293-2.542-19.529
	c-0.924-3.236-4.738-33.049-3.582-36.631c1.156-3.582,4.16-17.102,4.16-23.689c0-6.471,1.156-25.076,2.08-30.738
	c0.578-3.467,2.773-12.711,4.391-19.413c4.507,0,8.898-0.462,13.635-1.618c18.027-4.391,27.502-10.978,27.502-10.978
	s-0.924,23.111,0.347,34.551c1.156,11.556,1.156,30.391,0,36.053c-1.156,5.662,2.08,14.213,2.08,19.529s2.08,27.155,1.733,32.818
	s0.347,10.631,4.969,13.289c4.738,2.658,11.787,0,11.787,0s2.658,0.578,9.707,1.733s13.289-2.658,13.289-2.658
	s5.316-1.156,4.969-6.818s-8.551-15.947-9.476-19.182c-0.924-3.236-9.129-18.373-9.707-32.24
	c-0.578-13.867,2.08-40.444,4.738-46.684c2.658-6.24,9.707-21.609,11.787-31.662c2.08-10.053,0.578-21.609,3.236-30.391
	c2.658-8.898,10.978-17.449,11.556-29.235c0.578-11.787-4.16-24.498-4.16-28.658s1.502-13.058,3.582-19.76
	c2.08-6.818,6.471-21.262,7.742-26s10.4-22.764,15.715-23.111c5.315-0.347,11.787,0.924,18.027,0.924
	c6.24,0,18.951-4.16,23.689-5.316c4.738-1.156,11.556-3.236,13.635-4.738c2.08-1.502,15.947-10.631,17.102-16.293
	c1.156-5.662,0.347-12.364,0.347-12.364S483.327,127.875,482.98,125.217z M299.363,291.154c-52-24.729-41.369-54.773-26.809-57.315
	c16.524-2.889,22.88,15.369,22.88,15.369s2.889-19.067,19.644-19.298C329.869,229.679,345.932,257.181,299.363,291.154z"/>
<g>
</g>
<g>
</g>
<g>
</g>
<g>
</g>
<g>
</g>
<g>
</g>
<g>
</g>
<g>
</g>
<g>
</g>
<g>
</g>
<g>
</g>
<g>
</g>
<g>
</g>
<g>
</g>
<g>
</g>
</svg>
