<?xml version="1.0" encoding="iso-8859-1"?>
<!-- Generator: Adobe Illustrator 22.1.0, SVG Export Plug-In . SVG Version: 6.00 Build 0)  -->
<svg version="1.1" id="Layer_1" xmlns="http://www.w3.org/2000/svg" xmlns:xlink="http://www.w3.org/1999/xlink" x="0px" y="0px"
	 width="500px" height="500px" viewBox="0 0 500 500" enable-background="new 0 0 500 500" xml:space="preserve">
<path fill="#383737" d="M463.5,103.2c-3.1-4-6.5-4.7-6.5-6.8s0.6-5.6,0.6-8.4s-3.4-8.7-6.8-13.6c-3.4-5-2.8-5.9-7.4-10.2
	c-4.7-4.3-11.5-9.3-11.5-9.3s-0.9-5.6,1.6-15.8s2.8-17.1,0.9-18.3c-1.9-1.2-4.3,3.4-5,7.8c-0.6,4.3-3.4,11.2-5.6,14.9
	s-5.3,10.5-5.9,12.1c0,0-7.4-0.3-9-0.3s-5.9-12.4-10.5-18c-4.7-5.6-5.9-11.2-8.1-17.7s-5.6-8.1-5.6-8.1s-1.9,0.3-1.9,3.1
	c0,2.8-3.1,16.1-4.7,20.2c-1.6,4-10.5,13-11.5,24.8c-0.9,11.8-0.6,22.9-0.6,22.9s-13.3,12.7-18.9,24.5s-17.4,47.4-19.8,49.9
	c-2.5,2.5-41.9,22.6-52.1,26.7c-10.2,4-26.4,13-42.8,17.4c-16.4,4.3-43.7,15.2-48.4,16.1s-17.1-16.1-23.6-16.4s-9.6,6.2-6.8,13
	s11.5,14.6,12.4,16.4c0.9,1.9-6.2,10.9-9.9,14.6s-14.3,11.5-18.9,18s-14.3,28.2-16.1,34.1c-1.9,5.9-15.5,22.6-18.3,28.5
	s-9.6,22-16.4,31.3s-19.5,16.1-20.5,18.9c-0.9,2.8-5.6,18.3-8.7,23.6c-3.1,5.3-20.2,27-21.7,30.1c-1.6,3.1-5,16.4-4.7,20.5
	c0.3,4,9,4.7,9,4.7s1.2,2.2,6.2,3.1c5,0.9,10.2-3.1,10.2-3.1s5,1.2,7.1-0.6c2.2-1.9,0-10.2-0.9-14.3c-0.9-4,1.2-12.1,2.2-15.8
	c0.9-3.7,9.9-21.1,19.5-30.4s29.5-24.5,34.7-28.8c5.3-4.3,15.5-10.5,19.5-16.4s26.4-30.4,29.1-29.8c2.8,0.6,0.6,11.5-9.9,21.4
	s-27,17.7-27.3,21.1s-2.2,25.4-3.7,31.6c-1.6,6.2-7.1,23.9-6.2,27.6c0.9,3.7,4,11.8,10.2,11.8s6.5-0.9,6.5-0.9s4,1.6,6.8,0.9
	c2.8-0.6,2.8-3.1,2.8-3.1s4.7,1.2,5.3-3.7c0.6-5-7.1-11.5-9.3-14s-3.7-7.1-3.7-10.9c0-3.7,14-24.5,22.6-31.3
	c8.7-6.8,29.5-18,39.7-26c10.2-8.1,18-22,20.2-27.3s5-10.2,5-10.2s3.1-5.6,24.5-3.1s31.6,10.2,47.7,13c1.4,0.2,2.9,0.5,4.5,0.7
	c0.1,7.5,0.3,21.3-0.1,29c-0.6,10.9,1.6,33.5-0.6,41.5c-2.2,8.1-4.3,28.5-5,36.3s-0.6,16.1-0.6,23.9s-3.7,17.1-4,24.5
	s2.5,14.6,9,15.8s8.1-1.9,8.1-1.9s6.8,3.1,10.5,2.8s4-3.1,4-3.1s5,0.9,7.1-1.6s-2.8-14.6-4-16.7c-1.2-2.2-5.3-20.2-5-25.7
	c0.3-5.6,2.5-18.6,2.5-25.1s2.8-30.1,4-36.6s4.7-20.2,6.8-30.1c2.2-9.9,3.7-19.8,5.3-22.3c1.1-1.7,2.3-3.3,3.3-6.2
	c3.7,0.2,7.3,0.3,10.6,0.3c16.7,0,14.6,0.9,14.6,0.9s-2.5,33.2-1.2,40.3c1.2,7.1,4.7,41.9,4.7,47.7c0,5.9,0,9.6-0.9,14.6
	s0.6,14.6,3.1,18.3c2.5,3.7,3.1,10.9,3.1,14.6s5,10.9,9.9,9.9c5-0.9,6.8-4,6.8-4s4,1.9,6.5,1.9s7.4-1.6,7.8-4.3
	c0.3-2.8,1.9-6.8-1.9-9.9c-3.7-3.1-11.8-7.4-13.3-12.7c-1.6-5.3-2.5-31.3-1.9-43.7c0.6-12.4,2.2-24.2,3.4-29.8
	c1.2-5.6,6.8-22.9,8.1-32.2s0.9-19.8,1.9-22.6c0.9-2.8,6.2-16.1,6.5-18.6s7.1-12.4,10.9-30.4s3.4-37.8,0.6-49.6
	c-2.8-11.8-5.6-22.6-6.5-28.8s-1.2-11.2,2.2-18.6c0,0,13.6-5.6,16.1-8.1s14.6,3.1,19.5,2.5s12.1-11.8,13-16.7
	S466.6,107.2,463.5,103.2z M357.5,274.4c-43.9-24.1-33.1-49.6-20.4-51c14.5-1.7,19.1,14.5,19.1,14.5s3.5-16.4,18.1-15.7
	C387.1,222.6,399.6,247.3,357.5,274.4z"/>
<g>
</g>
<g>
</g>
<g>
</g>
<g>
</g>
<g>
</g>
<g>
</g>
<g>
</g>
<g>
</g>
<g>
</g>
<g>
</g>
<g>
</g>
<g>
</g>
<g>
</g>
<g>
</g>
<g>
</g>
</svg>
