<?xml version="1.0" encoding="utf-8"?>
<!-- Generator: Adobe Illustrator 28.0.0, SVG Export Plug-In . SVG Version: 6.00 Build 0)  -->
<svg version="1.1" id="Layer_1" xmlns="http://www.w3.org/2000/svg" xmlns:xlink="http://www.w3.org/1999/xlink" x="0px" y="0px"
	 viewBox="0 0 300 300" style="enable-background:new 0 0 300 300;" xml:space="preserve">
<style type="text/css">
	.st0{fill:#F9B8AE;}
	.st1{fill:#F9BBBC;}
</style>
<g>
	<path class="st0" d="M88.43,74.14c-0.8-0.14-1.97-0.29-3.11-0.55c-0.46-0.1-0.91-0.37-1.29-0.66c-1.08-0.8-1.16-2.1-0.12-2.96
		c0.6-0.5,1.31-0.95,2.05-1.18c2.56-0.81,5.18-1.05,7.83-0.43c0.59,0.14,1.19,0.37,1.69,0.7c1.2,0.78,1.27,2.18,0.2,3.13
		c-1.27,1.12-2.87,1.45-4.47,1.7C90.41,74.01,89.61,74.03,88.43,74.14z"/>
	<path d="M76.9,51.62c-2.29-1.97-4.23-4.15-5.77-6.68c-1.59-2.6-2.53-5.35-2.03-8.44c0.74-4.53,3.71-6.99,7.89-8.12
		c5.51-1.49,10.32,0.02,14.43,3.87c1.09,1.02,2.11,2.12,3.03,3.29c0.9,1.15,1.62,2.43,2.46,3.71c4.42-1.34,8.93-2.58,13.73-1.43
		c0.31-0.94,0.57-1.85,0.91-2.73c1.45-3.82,4.27-6.19,8.09-7.34c3.46-1.04,7.34,0.89,8.89,4.17c1.46,3.09,1.7,6.29,0.97,9.57
		c-0.44,1.95-1.05,3.87-1.55,5.81c-0.07,0.29-0.04,0.77,0.15,0.94c2.27,2.13,3.24,4.87,3.9,7.81c1.11,4.94,2.33,9.86,4.31,14.55
		c0.77,1.83,1.12,3.73,1.25,5.7c0.02,0.34,0.14,0.7,0.31,1c2.48,4.41,4.5,8.97,4.69,14.13c0.07,1.82,0.12,3.65,0.04,5.47
		c-0.11,2.74-1.26,5.11-2.89,7.27c-1.78,2.37-3.73,4.53-6.46,5.84c-0.25,0.12-0.46,0.54-0.52,0.85c-0.3,1.77-0.53,3.56-0.82,5.34
		c-0.5,3.02-1.75,5.74-3.73,8.02c-1.88,2.16-4.45,3.28-7.27,3.75c-4.13,0.69-8.29,0.74-12.47,0.71c-4.19-0.03-8.39,0.04-12.58,0.04
		c-1.83,0-3.65-0.11-5.48-0.08c-5.51,0.1-11.01,0.29-16.52,0.35c-6.18,0.07-12.3-0.59-18.24-2.31c-3.76-1.09-7.19-2.98-10.15-5.67
		c-4.88-4.45-7.95-9.85-8.95-16.38c-0.69-4.54-0.03-8.98,1.24-13.34c1.4-4.79,3.78-9.08,6.55-13.21c2.84-4.25,6.67-7.22,11.13-9.52
		c2.64-1.36,5.22-2.79,7.37-4.88c0.53-0.52,1.08-1.05,1.49-1.66c2.22-3.3,5.26-5.69,8.53-7.82C74.15,53.33,75.49,52.51,76.9,51.62z
		 M130.39,111.12c-0.26,0.07-0.51,0.11-0.74,0.19c-2.35,0.82-4.77,1.05-7.23,0.88c-1-0.07-2-0.2-2.96-0.45
		c-0.62-0.16-1.15-0.68-1.78-0.87c-1.7-0.51-3.23-1.33-4.7-2.29c-2.91-1.9-5.32-4.3-6.66-7.51c-2.96-7.1-2.9-14.19,0.72-21.08
		c1.46-2.78,3.39-5.26,6.11-6.94c3.61-2.23,7.49-3.15,11.8-2.48c3.64,0.57,7.11,1.4,10.09,3.67c0.05,0.04,0.14,0.04,0.37,0.1
		c-0.25-0.77-0.44-1.46-0.68-2.13c-1-2.83-2.07-5.64-3.01-8.5c-0.64-1.96-0.56-1.93-2.68-1.91c-0.85,0.01-1.72-0.17-2.55-0.4
		c-0.65-0.18-0.97-0.77-0.87-1.46c0.11-0.74,0.57-1.25,1.33-1.29c0.66-0.04,1.33,0.07,1.99,0.14c0.49,0.05,0.98,0.15,1.52,0.23
		c-0.29-1.27-0.57-2.42-0.8-3.58c-0.62-3.06-2.26-5.42-4.87-7.12c-3.42-2.24-6.8-4.54-10.29-6.68c-2.33-1.43-4.94-2.23-7.7-2.16
		c-4.68,0.12-9.15,1.26-13.19,3.58c-3.45,1.98-6.68,4.34-10,6.54c-2.36,1.56-4.68,3.18-7.06,4.7c-2.69,1.72-5.44,3.36-7.7,5.64
		c-1.23,1.23-2.23,2.68-3.38,4c-2.42,2.79-5.51,4.68-8.77,6.31c-4.42,2.22-8.12,5.21-10.91,9.39c-3.55,5.3-6.17,10.92-7.08,17.26
		c-1.18,8.21,1.18,15.28,6.93,21.26c3.09,3.22,6.82,5.45,11.08,6.57c6.35,1.67,12.84,2.23,19.42,2.06
		c8.25-0.21,16.51-0.25,24.77-0.35c4.99-0.06,9.98-0.03,14.97-0.12c2.26-0.04,4.52-0.3,6.69-1.04c2.1-0.72,3.77-1.96,5.03-3.87
		C129.65,118.32,130,114.76,130.39,111.12z M127.84,87.08c0.37-0.15,0.64-0.24,0.89-0.36c2.03-0.94,3.55-2.35,4.14-4.59
		c0.23-0.86-0.03-1.47-0.66-1.66c-0.64-0.19-1.15,0.19-1.39,1.09c-0.26,0.98-0.8,1.77-1.59,2.4c-2.91,2.28-6.54,1.71-8.57-1.35
		c-0.35-0.53-0.84-0.71-1.4-0.45c-0.55,0.25-0.7,0.78-0.49,1.31c0.19,0.5,0.45,0.99,0.78,1.41c1.23,1.57,2.91,2.32,4.86,2.52
		c1.35,0.14,1.34,0.13,1.61,1.5c0.88,4.49,1.77,8.98,2.67,13.47c0.17,0.84,0.7,1.3,1.35,1.16c0.66-0.14,0.96-0.74,0.79-1.59
		c-0.61-3.02-1.23-6.05-1.84-9.07C128.6,90.95,128.23,89.03,127.84,87.08z M66.02,91.35c1.2,1.08,2.64,1.35,3.74,0.57
		c1.34-0.94,2.15-2.27,2.41-3.89c0.1-0.6-0.06-1.15-0.75-1.33c-0.58-0.15-1.04,0.21-1.3,0.92c-0.22,0.57-0.44,1.15-0.75,1.68
		c-0.87,1.5-1.69,0.88-2.46-0.12c-0.11-0.14-0.16-0.32-0.23-0.48c-0.6-1.34-1.36-1.43-2.36-0.33c-0.22,0.24-0.58,0.35-0.87,0.53
		c-0.15-0.28-0.38-0.55-0.44-0.85c-0.39-2.18,0.25-4.06,1.72-5.68c0.4-0.44,0.62-0.87,0.22-1.35c-0.41-0.5-0.95-0.45-1.46-0.14
		c-0.17,0.1-0.32,0.26-0.45,0.42c-1.08,1.29-1.85,2.76-2.03,4.42c-0.12,1.13-0.08,2.33,0.19,3.42c0.42,1.76,1.98,2.36,3.62,1.58
		c0.11-0.05,0.23-0.11,0.46-0.22C65.52,90.77,65.74,91.09,66.02,91.35z M98.21,61.56c1.21,0,2.41,0.05,3.62-0.02
		c0.62-0.04,1.26-0.22,1.84-0.45c0.61-0.23,0.9-0.77,0.82-1.42c-0.09-0.7-0.52-1.21-1.23-1.29c-0.6-0.06-1.22,0.02-1.83,0.08
		c-2.09,0.21-4.18,0.44-6.27,0.67c-0.28,0.03-0.57,0.03-0.84,0.08c-0.84,0.16-1.29,0.71-1.21,1.42c0.08,0.67,0.49,0.95,1.42,0.95
		c1.23,0,2.46,0,3.69,0C98.21,61.57,98.21,61.56,98.21,61.56z M82.59,110.9c0.2,0.29,0.75,0.56,1.06,0.48
		c0.29-0.07,0.61-0.58,0.67-0.94c0.21-1.28,0.3-2.57,0.47-3.85c0.07-0.55-0.28-1.19-0.85-1.26c-0.58-0.08-1.03,0.18-1.15,0.77
		c-0.22,1.13-0.38,2.27-0.58,3.5C82.31,110,82.33,110.53,82.59,110.9z M92.21,107.55c0.56,0.97,1.14,1.93,1.73,2.88
		c0.27,0.43,0.67,0.67,1.18,0.46c0.54-0.22,0.69-0.7,0.53-1.21c-0.36-1.16-0.86-2.27-1.8-3.09c-0.24-0.21-0.55-0.34-0.69-0.42
		C92.27,106.17,91.84,106.91,92.21,107.55z M51.62,100.61c-0.18-0.53-0.62-0.77-1.17-0.6c-0.58,0.18-0.7,0.66-0.58,1.18
		c0.23,1.02,0.5,2.04,0.77,3.05c0.14,0.55,0.52,0.83,1.09,0.74c0.58-0.09,0.79-0.5,0.93-1.09C52.32,102.8,52,101.69,51.62,100.61z
		 M47,99.52c-0.37,0.02-0.97,0.28-1.03,0.53c-0.25,1.09-0.38,2.21-0.46,3.33c-0.03,0.54,0.35,0.92,0.93,0.92
		c0.56,0,0.84-0.39,0.91-0.88c0.13-0.94,0.22-1.88,0.32-2.82C47.75,100,47.48,99.49,47,99.52z M64.66,121.86
		c0.41,0.73,0.84,1.47,1.38,2.11c0.21,0.25,0.84,0.41,1.11,0.28c0.28-0.13,0.6-0.8,0.48-1.02c-0.44-0.88-1.03-1.68-1.59-2.48
		c-0.1-0.14-0.36-0.17-0.43-0.2C64.78,120.5,64.3,121.22,64.66,121.86z M87.86,108.47c0,0.33-0.02,0.67,0.01,1
		c0.05,0.61,0.35,1.05,1.01,1.03c0.67-0.02,0.9-0.5,0.92-1.1c0.02-0.66,0.04-1.33,0.08-1.99c0.03-0.54-0.11-0.99-0.7-1.11
		c-0.6-0.13-1.01,0.18-1.16,0.74c-0.13,0.46-0.15,0.95-0.21,1.43C87.82,108.46,87.84,108.47,87.86,108.47z M61.39,122.73
		c0.67,0.03,0.96-0.36,1.06-0.97c0.08-0.5,0.15-1.01,0.24-1.51c0.1-0.57-0.01-1.05-0.62-1.23c-0.59-0.17-1.03,0.13-1.2,0.68
		c-0.18,0.58-0.25,1.2-0.32,1.53C60.5,122.24,60.81,122.7,61.39,122.73z"/>
	<path class="st0" d="M116.8,178.73c-2.25-0.25-4.4-0.61-6.35-1.7c-0.48-0.27-0.94-0.65-1.29-1.07c-0.82-1.02-0.56-2.28,0.62-2.84
		c0.68-0.32,1.46-0.55,2.2-0.61c2.4-0.19,4.72,0.2,6.9,1.23c0.61,0.29,1.21,0.71,1.66,1.21c0.92,1.01,0.67,2.41-0.59,2.94
		C118.97,178.32,117.86,178.46,116.8,178.73z"/>
	<path d="M112.63,150.26c0.22-1.02,0.37-2.05,0.66-3.05c0.52-1.81,1.92-2.65,3.65-2.88c3.28-0.42,5.95,1.51,6.7,4.8
		c0.26,1.15,0.34,2.34,0.56,3.5c0.05,0.28,0.25,0.64,0.49,0.75c2.66,1.28,5.3,2.63,8.03,3.74c7.22,2.94,13.63,7.02,18.68,13.01
		c1.25,1.48,2.19,3.23,3.28,4.84c0.15,0.23,0.3,0.5,0.52,0.64c2.72,1.71,4.19,4.27,4.63,7.34c1.06,7.4-1.34,13.52-7.19,18.22
		c-1.36,1.09-2.76,2.14-4.18,3.16c-2.92,2.08-6.28,2.95-9.79,3.18c-3.72,0.25-7.45,0.33-11.17,0.4c-3.73,0.07-7.46-0.06-11.19,0.1
		c-2.34,0.1-4.62,0.81-6.73,1.85c-3.49,1.72-5.36,4.76-6.46,8.35c-1.28,4.17-1.63,8.47-1.68,12.81c-0.03,1.95-0.06,3.92-0.35,5.84
		c-0.56,3.66-2.36,6.59-5.57,8.58c-1.14,0.7-2.39,1.22-3.71,1.13c-2.3-0.15-4.63-0.32-6.87-0.81c-2.69-0.59-4.64-2.35-5.71-4.89
		c-0.96-2.29-1.65-4.7-2.53-7.03c-0.52-1.36-1-2.79-1.81-3.97c-1.55-2.29-3.88-3.43-6.6-3.82c-1.11-0.16-2.21-0.43-3.32-0.65
		c-0.31,1.08-0.61,2.08-0.9,3.09c-0.61,2.14-1.68,4.05-3.05,5.76c-0.66,0.82-1.54,1.52-2.45,2.07c-2.03,1.22-4.67,0.93-6.47-0.63
		c-0.9-0.78-1.74-1.63-2.65-2.5c-0.9,1.22-2.33,1.97-3.8,2.68c-1.91,0.92-3.77,0.84-5.75,0.13c-4.95-1.79-8.02-5.48-10.42-9.91
		c-0.06-0.11-0.11-0.23-0.17-0.35c-1.62-3.14-2.57-6.43-2.8-10.01c-0.4-6.22-0.96-12.43-0.46-18.66c0.29-3.56,0.82-7.1,1.41-10.62
		c0.74-4.46,1.52-8.93,2.51-13.34c0.97-4.34,2.21-8.62,4.41-12.55c2.31-4.12,5.12-7.85,8.82-10.82c4.27-3.43,9.2-5.29,14.62-5.88
		c4.55-0.49,9.04-0.45,13.39,1.24c4.78,1.86,9.33,4.19,13.69,6.89c0.11,0.07,0.22,0.14,0.32,0.22c0.62,0.49,1.19,1.28,1.87,1.4
		c0.65,0.12,1.41-0.5,2.14-0.74c3.49-1.11,7.04-1.94,10.71-2.19c0.58-0.04,0.57-0.4,0.68-0.75c1.05-3.31,4.42-5.23,7.6-4.19
		c1.88,0.61,3.1,2.05,4.02,3.75C112.37,149.78,112.51,150.04,112.63,150.26z M152.23,174.49c-0.92-1.19-1.65-2.28-2.52-3.24
		c-4.23-4.64-9.18-8.35-14.93-10.87c-4.21-1.85-8.45-3.62-12.52-5.78c-1.94-1.03-4.06-1.6-6.26-1.82c-0.86-0.09-1.72-0.14-2.47-0.2
		c0,1.04,0.09,1.98-0.02,2.88c-0.22,1.83-0.52,3.66-0.86,5.48c-0.34,1.83-0.58,1.95-2.43,2.15c-1.71,0.19-3.42,0.4-5.1,0.76
		c-1.05,0.23-1.57,0.2-2.17-0.7c-1.33-2.02-2.27-4.21-2.65-6.61c-0.2-1.26-0.25-2.54-0.37-3.87c-0.12,0-0.27-0.02-0.41,0
		c-1.55,0.26-3.11,0.46-4.63,0.82c-2.55,0.6-5.11,1.18-7.42,2.51c-0.63,0.36-1.16,0.14-1.66-0.35c-0.6-0.6-1.18-1.26-1.88-1.7
		c-4.55-2.88-9.3-5.41-14.41-7.14c-5.2-1.76-10.48-1.31-15.69-0.03c-6.95,1.71-11.92,6.12-15.85,11.9
		c-2.67,3.93-4.36,8.28-5.42,12.87c-0.98,4.26-1.71,8.57-2.57,12.86c-1.14,5.66-2.13,11.35-2.01,17.14
		c0.09,4.42,0.39,8.84,0.64,13.26c0.15,2.59,0.25,5.2,1.47,7.59c0.23,0.44,0.48,0.72,0.96,0.89c5.75,2.02,11.48,4.07,17.22,6.11
		c0.3,0.11,0.62,0.2,0.93,0.29c0.11-0.21,0.21-0.34,0.25-0.48c0.5-1.86,0.99-3.71,1.47-5.58c0.13-0.52,0.17-1.07,0.3-1.59
		c0.15-0.61,0.57-0.93,1.2-0.82c0.64,0.11,0.92,0.58,0.83,1.19c-0.2,1.35-0.41,2.69-0.7,4.02c-0.24,1.08-0.61,2.14-0.94,3.28
		c3.31-0.39,6.5-0.78,9.69-1.13c0.45-0.05,0.61-0.27,0.72-0.65c0.36-1.24,0.7-2.47,1.1-3.7c0.35-1.07,0.78-1.28,1.86-1.02
		c1.4,0.34,2.8,0.69,4.21,0.98c4.58,0.93,7.8,3.41,9.21,7.99c0.32,1.05,0.72,2.08,1.07,3.09c0.54,0,1,0,1.46,0
		c5.82,0.01,11.63,0.01,17.45,0.05c0.68,0,0.92-0.19,0.92-0.85c-0.01-1.11,0.04-2.21,0.04-3.32c-0.02-4.47,0.4-8.89,1.63-13.2
		c1-3.51,2.76-6.54,5.68-8.79c2.06-1.59,4.51-2.31,7.01-2.89c3.37-0.78,6.8-0.64,10.22-0.55c4.66,0.11,9.31,0.3,13.96-0.24
		c2.48-0.29,4.97-0.52,7.29-1.57c0.28-0.13,0.56-0.28,1-0.5c-4.6-0.56-7.15-3.22-8.26-7.29c-1.47-5.37-0.29-10.38,2.69-14.95
		C143.2,177.1,146.77,174.31,152.23,174.49z M149.13,181.27c0.04-0.91-0.24-1.38-0.88-1.45c-0.67-0.07-1.14,0.4-1.25,1.27
		c-0.03,0.23-0.04,0.46-0.02,0.69c0.15,1.52,0.91,2.66,2.26,3.37c0.44,0.23,0.55,0.46,0.45,0.96c-0.66,3.14-1.27,6.3-1.9,9.45
		c-0.15,0.73-0.3,1.46-0.43,2.2c-0.13,0.77,0.19,1.34,0.79,1.45c0.63,0.12,1.08-0.25,1.28-1.03c0.03-0.1,0.04-0.2,0.06-0.3
		c0.76-3.78,1.52-7.56,2.26-11.34c0.1-0.49,0.26-0.72,0.79-0.82c1.5-0.28,2.66-1.07,3.28-2.51c0.42-0.98,0.27-1.76-0.38-2.03
		c-0.66-0.27-1.09,0.05-1.56,1.15c-0.44,1.04-1.67,1.57-2.93,1.27C149.74,183.28,149.07,182.43,149.13,181.27z M45.05,164.77
		c0.2,2.24,1.7,3.27,3.83,2.7c0.18-0.05,0.5,0.12,0.65,0.28c0.94,1,2.2,1.28,3.44,0.68c1.8-0.87,2.69-2.49,3.37-4.23
		c0.11-0.29-0.19-0.93-0.49-1.13c-0.25-0.17-0.84-0.03-1.16,0.16c-0.3,0.18-0.44,0.61-0.65,0.93c-0.36,0.56-0.65,1.18-1.1,1.66
		c-1.09,1.16-1.64,1.01-2.11-0.47c-0.02-0.05-0.03-0.1-0.05-0.15c-0.33-0.85-1.15-1.06-1.85-0.46c-0.21,0.18-0.39,0.42-0.6,0.59
		c-0.56,0.47-1.09,0.34-1.17-0.37c-0.07-0.58-0.07-1.29,0.21-1.77c0.43-0.76,1.09-1.4,1.69-2.06c0.38-0.42,0.52-0.85,0.17-1.31
		c-0.35-0.47-0.88-0.5-1.31-0.19c-1.62,1.18-2.8,2.64-2.9,4.67C45.03,164.52,45.04,164.64,45.05,164.77z M60.22,218.46
		c-0.12-0.43-0.18-0.89-0.38-1.28c-0.17-0.34-0.45-0.79-0.75-0.85c-0.34-0.07-0.77,0.21-1.15,0.38c-0.12,0.06-0.17,0.27-0.29,0.35
		c-0.31,0.21-0.65,0.39-0.98,0.58c-0.13-0.37-0.37-0.74-0.36-1.1c0.03-1.15,0.39-2.22,1.1-3.15c0.34-0.45,0.4-0.92-0.03-1.32
		c-0.45-0.42-0.94-0.3-1.4,0.05c-0.08,0.06-0.16,0.14-0.21,0.22c-1.03,1.54-1.66,3.2-1.43,5.08c0.19,1.54,1.48,2.53,2.92,2.31
		c0.35-0.05,0.68-0.2,1.02-0.31c1.36,1.45,2.55,1.68,3.67,0.53c0.54-0.56,0.89-1.36,1.16-2.12c0.26-0.74-0.1-1.36-0.71-1.47
		c-0.72-0.14-1.08,0.28-1.31,0.91c-0.15,0.42-0.36,0.82-0.55,1.22C60.44,218.48,60.33,218.47,60.22,218.46z M123.54,168.31
		c0.62,0,1.23,0.02,1.85,0c0.79-0.03,1.6,0,2.36-0.17c0.86-0.2,1.21-0.78,1.1-1.43c-0.12-0.72-0.72-1.15-1.62-1.07
		c-0.82,0.07-1.62,0.26-2.44,0.34c-1.48,0.15-2.97,0.23-4.45,0.38c-0.79,0.08-1.23,0.55-1.17,1.17c0.08,0.81,0.66,0.86,1.29,0.86
		c1.03-0.01,2.05,0,3.08,0C123.54,168.35,123.54,168.33,123.54,168.31z M32.31,199.02c-0.48,1.04-0.91,2.13-1.24,3.23
		c-0.21,0.7-0.24,1.47-0.27,2.21c-0.01,0.52,0.35,0.96,0.87,0.87c0.37-0.06,0.95-0.44,0.98-0.74c0.23-1.81,0.76-3.5,1.56-5.14
		c0.3-0.62-0.15-1.23-1.08-1.25C32.94,198.38,32.49,198.64,32.31,199.02z M59.99,180.82c-1.38,0.95-2.66,2.03-3.52,3.51
		c-0.35,0.61-0.22,1.23,0.29,1.49c0.58,0.29,0.99,0.02,1.4-0.43c0.95-1.03,1.97-2,2.95-3.01c0.22-0.23,0.39-0.5,0.48-0.62
		C61.58,180.79,60.7,180.32,59.99,180.82z M85.2,164.48c-0.39,0.02-0.77,0.04-1.15,0.08c-0.87,0.09-1.31,0.52-1.22,1.17
		c0.08,0.61,0.59,0.84,1.43,0.82c1.26-0.04,2.51-0.02,3.77,0.03c0.74,0.03,1.25-0.2,1.31-0.76c0.08-0.72-0.37-1.05-0.99-1.14
		c-0.79-0.12-1.58-0.16-2.15-0.21C85.71,164.47,85.45,164.46,85.2,164.48z M88.34,206.12c0-0.33,0.02-0.67-0.01-1
		c-0.05-0.56-0.35-0.93-0.93-0.93c-0.59,0-0.86,0.39-0.94,0.93c-0.18,1.24-0.34,2.49-0.51,3.73c-0.09,0.61-0.02,1.15,0.69,1.34
		c0.59,0.16,1.06-0.18,1.23-0.96c0.23-1.03,0.38-2.07,0.57-3.1C88.41,206.13,88.37,206.12,88.34,206.12z M88.63,177.53
		c0.97-1.02,1.96-2.03,2.85-3.12c0.18-0.23,0.1-0.86-0.09-1.16c-0.29-0.44-0.86-0.43-1.22-0.07c-1,0.99-2,1.99-2.9,3.07
		c-0.52,0.62-0.04,1.49,0.86,1.5C88.23,177.71,88.49,177.68,88.63,177.53z M38.81,205.74c-0.16-0.28-0.66-0.53-0.98-0.5
		c-0.27,0.02-0.69,0.44-0.72,0.72C37,206.97,36.98,208,37,209.02c0.01,0.56,0.35,0.98,0.97,0.99c0.6,0.01,0.85-0.41,0.91-0.94
		c0.07-0.63,0.12-1.27,0.19-2.13C39.03,206.67,39.04,206.14,38.81,205.74z M88.84,168.85c-0.74,0.28-1.46,0.64-2.19,0.95
		c-0.74,0.31-1.04,0.75-0.85,1.32c0.18,0.56,0.74,0.81,1.48,0.52c0.84-0.32,1.65-0.72,2.43-1.15c0.26-0.14,0.4-0.48,0.5-0.61
		C90.22,168.99,89.58,168.57,88.84,168.85z M83.68,204.92c0.37-0.58,0.64-1.22,1-1.81c0.3-0.51,0.37-0.98-0.13-1.36
		c-0.49-0.38-1.05-0.28-1.36,0.19c-0.53,0.8-1.01,1.66-1.37,2.55c-0.26,0.64,0.25,1.21,1.15,1.18
		C83.12,205.51,83.46,205.26,83.68,204.92z M61.68,184.13c-0.28,0.65-0.46,1.36-0.59,2.06c-0.1,0.51,0.16,0.92,0.7,1.03
		c0.53,0.12,0.93-0.14,1.1-0.63c0.23-0.65,0.42-1.32,0.55-2c0.11-0.59-0.29-1.03-1.07-1.06C62.21,183.67,61.81,183.84,61.68,184.13z
		 M35.93,201.29c-0.62-0.07-0.97,0.3-1.08,0.86c-0.09,0.48-0.15,0.96-0.17,1.45c-0.01,0.56,0.26,0.95,0.84,1
		c0.58,0.05,0.92-0.29,1.02-0.83c0.09-0.45,0.12-0.91,0.16-1.23C36.76,201.81,36.56,201.36,35.93,201.29z"/>
	<path class="st0" d="M233.89,59.72c-1.23-0.29-2.59-0.55-3.9-0.95c-0.74-0.22-1.29-0.8-1.32-1.64c-0.03-0.85,0.52-1.39,1.23-1.71
		c0.6-0.28,1.24-0.49,1.89-0.61c1.74-0.33,3.48-0.29,5.21,0.09c0.25,0.06,0.5,0.11,0.74,0.21c0.89,0.35,1.71,0.79,1.78,1.89
		c0.06,0.85-0.56,1.61-1.77,1.96C236.55,59.29,235.29,59.45,233.89,59.72z"/>
	<path d="M244.7,75.65c0.11,0.7,0.25,1.38,0.33,2.06c0.35,3.04-0.19,5.97-1.33,8.76c-2.85,6.98-6.05,13.79-9.59,20.45
		c-1.68,3.16-3.38,6.3-4.96,9.51c-1.83,3.72-2.37,7.8-2.96,11.85c-0.49,3.39-0.02,6.63,1.23,9.83c1.11,2.84,1.37,5.81,0.27,8.76
		c-0.9,2.41-2.68,3.91-5.1,4.65c-0.81,0.25-1.65,0.43-2.49,0.52c-4.12,0.48-7.19-1.43-9.05-5.59c-0.57-1.27-0.71-2.78-0.82-4.2
		c-0.12-1.48,0.04-2.98,0.06-4.47c0.01-0.31,0.01-0.62-0.06-0.92c-0.18-0.83-0.71-1.17-1.52-0.92c-1.47,0.45-2.67,1.28-3.58,2.53
		c-0.39,0.54-0.36,1.06,0.04,1.55c0.32,0.4,0.68,0.77,1.04,1.14c2.27,2.35,2.76,4.97,1.38,7.59c-0.64,1.21-1.55,1.93-2.87,2.24
		c-1.64,0.38-3.28,0.32-4.91,0.1c-10.01-1.34-20.07-2.02-30.17-1.95c-3.86,0.03-7.73,0.21-11.55-0.48
		c-1.73-0.31-3.44-0.85-5.08-1.49c-1.51-0.59-2.39-2-3.3-3.28c-2.98-4.2-4.65-8.93-5.41-13.98c-1.48-9.9-0.26-19.54,2.98-28.96
		c1.37-3.97,2.83-7.88,5-11.5c2.4-4,5.47-7.4,9.09-10.31c3.48-2.79,7.22-5.21,11.15-7.31c3.77-2,7.88-2.94,12.01-3.84
		c3.22-0.7,6.38-1.7,9.27-3.3c1.65-0.92,3.25-2.01,4.66-3.26c2.13-1.89,4.06-3.98,5.81-6.27c2.65-3.47,5.16-7.09,8.6-9.87
		c0.82-0.67,1.77-1.19,2.69-1.79c0.07-1.02,0.06-2.21,0.24-3.36c0.22-1.39,1.06-2.45,2.18-3.25c1.13-0.8,2.38-0.95,3.65-0.33
		c0.5,0.24,0.98,0.55,1.48,0.84c0.08-0.68,0.09-1.34,0.24-1.97c0.36-1.47,1.28-2.51,2.66-3.11c1.83-0.8,3.89-0.14,4.89,1.73
		c0.57,1.06,0.82,2.29,1.28,3.63c0.09,0,0.42,0,0.74,0c5.05-0.01,10.09,0.07,15.09,0.83c5.32,0.81,10.26,2.6,14.5,6.03
		c0.04,0.03,0.08,0.06,0.12,0.1c0.81,0.9,1.51,1.92,2.44,2.66c0.89,0.72,2.09,1.05,3.02,1.73c2.51,1.83,3.75,4.45,4.27,7.44
		c0.7,4.07,0.08,7.93-2.37,11.31c-0.79,1.1-1.98,1.91-3,2.84c-0.4,0.36-0.93,0.6-1.26,1c-1.7,2.07-4.03,3.3-6.3,4.5
		c-3.15,1.66-6.58,1.73-10,0.91C247.88,76.67,246.32,76.13,244.7,75.65z M226.03,140.72c-0.27-0.86-0.5-1.59-0.72-2.32
		c-0.39-1.28-0.88-2.53-1.15-3.83c-0.48-2.32-0.34-4.66-0.01-6.99c0.66-4.73,1.51-9.39,3.87-13.65c1.64-2.97,3.27-5.95,4.76-9
		c2.72-5.54,5.36-11.11,7.96-16.71c0.73-1.58,1.28-3.26,1.73-4.94c0.81-2.98,0.87-5.95-0.61-8.79c-0.28-0.53-0.48-1.06-0.03-1.57
		c0.45-0.51,1-0.36,1.57-0.16c2.06,0.72,4.11,1.49,6.2,2.1c4.93,1.44,9.19-0.08,13.11-3.14c-0.13-0.04-0.24-0.08-0.36-0.1
		c-2.15-0.31-3.83-1.42-5.17-3.09c-3.78-4.73-3.7-12.74,0.16-17.57c1.39-1.74,3.14-2.92,5.36-3.37c0.05-0.08,0.1-0.15,0.14-0.23
		c-0.39-0.32-0.78-0.64-1.18-0.97c-3.93-3.23-8.56-4.88-13.49-5.69c-5.89-0.97-11.84-0.98-17.79-0.86c-1.55,0.03-3.1,0.24-4.79,0.38
		c0.29,0.44,0.5,0.75,0.7,1.08c1.06,1.73,1.84,3.56,1.94,5.62c0.04,0.82-0.22,1.48-0.95,1.88c-1.42,0.78-2.85,1.53-4.28,2.3
		c-0.62,0.33-1.21,0.25-1.85-0.01c-2.18-0.9-3.39-2.71-4.4-4.67c-0.35-0.68-0.73-0.77-1.24-0.37c-1.11,0.87-2.32,1.67-3.23,2.72
		c-2.21,2.54-4.37,5.14-6.39,7.83c-1.84,2.45-3.93,4.63-6.22,6.63c-1.37,1.19-2.88,2.26-4.45,3.16c-3.1,1.76-6.49,2.86-9.96,3.65
		c-3.49,0.8-7.02,1.45-10.27,3c-4.76,2.27-9.13,5.16-13.18,8.54c-3.41,2.85-6.19,6.23-8.35,10.12c-1.84,3.33-3.1,6.89-4.31,10.47
		c-3.07,9.07-4.17,18.34-2.66,27.84c0.73,4.57,2.32,8.83,4.94,12.69c1.36,2,3.12,3.26,5.48,3.63c1.65,0.26,3.31,0.54,4.97,0.59
		c4.22,0.12,8.44,0.08,12.65,0.18c3.86,0.09,7.72,0.21,11.56,0.45c3.34,0.21,6.66,0.63,9.99,0.93c0.29,0.03,0.72-0.12,0.89-0.34
		c1.86-2.56,3.69-5.14,5.52-7.73c0.15-0.21,0.17-0.5,0.23-0.76c0.16-0.69,0.16-1.46,0.5-2.04c1.14-1.99,2.95-3.2,5.15-3.77
		c1.84-0.48,3.41,0.46,3.88,2.32c0.19,0.75,0.13,1.58,0.14,2.37c0.02,1.66,0.01,3.32,0.01,5.08
		C216.99,142.64,221.43,141.69,226.03,140.72z M267.58,53.92c0.01-0.85-0.36-1.38-0.95-1.42c-0.68-0.05-1.06,0.32-1.14,0.98
		c-0.09,0.73-0.44,1.2-1.2,1.26c-0.79,0.06-1.33-0.28-1.59-1.04c-0.22-0.65-0.67-0.98-1.36-0.78c-0.58,0.16-0.83,0.81-0.61,1.54
		c0.32,1.05,1,1.8,2.03,2.16c0.48,0.17,0.59,0.43,0.61,0.9c0.09,2.83,0.2,5.65,0.32,8.47c0.01,0.28,0.01,0.64,0.17,0.81
		c0.28,0.28,0.69,0.59,1.04,0.57c0.29-0.01,0.64-0.43,0.82-0.74c0.14-0.24,0.08-0.6,0.07-0.91c-0.1-2.75-0.2-5.5-0.33-8.24
		c-0.03-0.56,0.13-0.87,0.62-1.16C267.02,55.77,267.52,54.9,267.58,53.92z M173.74,89.82c0.83,1.63,2.3,2.53,3.73,2.28
		c1.55-0.27,2.91-1.8,3.13-3.52c0.1-0.76-0.18-1.27-0.75-1.41c-0.64-0.15-1.09,0.19-1.33,0.96c-0.13,0.41-0.22,0.89-0.5,1.18
		c-0.3,0.31-0.86,0.67-1.19,0.58c-0.44-0.11-0.82-0.6-1.11-1.01c-0.17-0.24-0.1-0.65-0.17-0.98c-0.23-1.02-1.06-1.33-1.92-0.74
		c-0.29,0.2-0.57,0.46-0.89,0.6c-0.65,0.28-1.03-0.02-0.89-0.71c0.17-0.87,0.68-1.54,1.44-2.01c0.26-0.16,0.55-0.29,0.79-0.48
		c0.39-0.33,0.53-0.78,0.25-1.24c-0.28-0.47-0.72-0.56-1.21-0.35c-1.61,0.68-2.74,1.83-3.19,3.53c-0.59,2.2,0.99,3.81,3.2,3.31
		c0.17-0.04,0.34-0.08,0.49-0.12C173.67,89.75,173.72,89.77,173.74,89.82z M185.17,134.29c-0.79,0.31-1.41-0.01-1.93-0.57
		c-1.05-1.12-1.17-1.14-2.37-0.17c-0.53,0.43-1.19,0.24-1.26-0.44c-0.05-0.45,0.12-0.94,0.26-1.39c0.09-0.29,0.41-0.55,0.4-0.81
		c-0.02-0.39-0.13-0.94-0.4-1.1c-0.26-0.15-0.91-0.03-1.13,0.2c-0.96,1.03-1.39,2.27-1.04,3.69c0.34,1.42,1.87,2.48,3.23,2.01
		c0.83-0.29,1.34-0.07,1.99,0.33c1.27,0.77,2.9,0.59,4.04-0.34c1.03-0.84,1.48-2.29,1.11-3.55c-0.16-0.57-0.52-0.89-1.12-0.84
		c-0.61,0.06-0.89,0.45-0.94,1.04c-0.01,0.13,0,0.26,0,0.38C186.11,133.47,185.89,134.01,185.17,134.29z M238.09,50.59
		c1.18,0,2.36,0.05,3.54-0.02c0.62-0.04,1.26-0.21,1.85-0.43c0.64-0.24,0.95-0.79,0.84-1.48c-0.11-0.71-0.55-1.18-1.27-1.26
		c-0.5-0.06-1.02,0-1.53,0.05c-2.27,0.23-4.54,0.48-6.8,0.72c-0.2,0.02-0.41,0.03-0.61,0.07c-0.8,0.17-1.23,0.69-1.18,1.38
		c0.06,0.68,0.47,0.98,1.39,0.98c1.26,0,2.51,0,3.77,0C238.09,50.6,238.09,50.59,238.09,50.59z M238.63,85.84
		c-0.11-0.55-0.41-0.96-1.02-0.98c-0.59-0.02-0.82,0.37-1.01,0.87c-0.26,0.65-0.53,1.33-0.94,1.89c-0.38,0.51-0.78,0.36-0.99-0.26
		c-0.06-0.17-0.09-0.35-0.11-0.53c-0.06-0.53-0.25-0.96-0.81-1.09c-0.57-0.14-0.94,0.17-1.21,0.62c-0.35,0.6-0.88,0.77-1.51,0.66
		c-0.63-0.11-0.73-0.59-0.82-1.14c-0.04-0.27-0.34-0.63-0.58-0.69c-0.29-0.07-0.81,0.03-0.94,0.25c-0.22,0.35-0.36,0.87-0.29,1.27
		c0.3,1.73,2.01,2.7,3.83,2.21c0.51-0.14,0.83-0.12,1.25,0.3c0.44,0.44,1.1,0.67,1.39,0.84C236.9,90.04,238.97,87.49,238.63,85.84z
		 M208.44,110.71c0.64,0.04,0.91-0.35,1.01-0.93c0.25-1.39,0.5-2.77,0.77-4.16c0.11-0.57,0.02-1.07-0.58-1.26
		c-0.62-0.2-1.09,0.13-1.25,0.72c-0.38,1.41-0.68,2.84-1.02,4.26C207.45,110.14,207.83,110.68,208.44,110.71z M213.64,71.65
		c0-0.18,0.01-0.36,0-0.54c-0.05-0.6-0.22-1.14-0.95-1.18c-0.58-0.04-0.9,0.42-0.96,1.23c-0.06,0.69-0.17,1.37-0.25,2.06
		c-0.06,0.51-0.15,1.01-0.15,1.52c0,0.55,0.3,0.94,0.88,0.98c0.54,0.04,0.89-0.29,0.98-0.8c0.2-1.08,0.35-2.17,0.52-3.26
		C213.68,71.66,213.66,71.65,213.64,71.65z M157.55,111.09c-0.42,0.02-1.01,0.21-1.22,0.52c-0.6,0.94-1.09,1.97-1.56,2.99
		c-0.34,0.75-0.11,1.34,0.47,1.55c0.55,0.2,1-0.1,1.34-0.82c0.45-0.95,0.94-1.87,1.41-2.81c0.1-0.2,0.17-0.42,0.32-0.77
		C158.07,111.53,157.8,111.08,157.55,111.09z M206.26,103.49c-0.42-0.01-1.02,0.16-1.24,0.47c-0.61,0.87-1.09,1.85-1.59,2.8
		c-0.29,0.56-0.28,1.11,0.32,1.47c0.51,0.31,1.06,0.06,1.43-0.62c0.51-0.92,1.01-1.84,1.51-2.76c0.08-0.15,0.13-0.33,0.25-0.65
		C206.74,103.97,206.5,103.5,206.26,103.49z M161.27,112.44c-0.14-0.32-0.63-0.69-0.94-0.67c-0.3,0.02-0.76,0.48-0.82,0.8
		c-0.16,0.98-0.17,1.99-0.22,2.99c-0.03,0.55,0.23,0.97,0.8,1.06c0.61,0.09,0.99-0.24,1.09-0.83c0.11-0.61,0.16-1.22,0.24-1.92
		C161.4,113.44,161.46,112.88,161.27,112.44z M204.15,69.35c0.91-0.45,1.79-0.99,2.64-1.56c0.45-0.3,0.59-0.8,0.27-1.28
		c-0.32-0.49-0.82-0.52-1.29-0.28c-0.77,0.4-1.54,0.82-2.26,1.3c-0.29,0.19-0.48,0.55-0.61,0.71
		C202.86,69.11,203.54,69.65,204.15,69.35z M209.71,68.41c-0.38-0.05-0.93,0-1.17,0.25c-0.5,0.53-0.85,1.2-1.26,1.82
		c-0.36,0.54-0.41,1.06,0.16,1.48c0.46,0.34,1.1,0.14,1.5-0.46c0.38-0.57,0.75-1.16,1.11-1.75c0.1-0.17,0.15-0.37,0.26-0.67
		C210.12,68.86,209.94,68.45,209.71,68.41z"/>
	<path class="st0" d="M196.9,184.91c1.08,0.18,2.18,0.3,3.24,0.56c0.93,0.23,1.48,0.91,1.46,1.58c-0.03,0.91-0.64,1.37-1.41,1.63
		c-2.17,0.73-4.37,0.82-6.59,0.27c-0.32-0.08-0.63-0.23-0.91-0.4c-1-0.64-1.09-1.89-0.06-2.45c0.89-0.49,1.95-0.71,2.95-0.98
		c0.41-0.11,0.87-0.06,1.3-0.09C196.88,184.99,196.89,184.95,196.9,184.91z"/>
	<path d="M186.1,175.97c-1.96-2.83-2.22-6.09-1.68-9.45c1.01-6.37,7.11-6.65,10.41-4.15c1.45,1.1,2.71,2.37,3.73,3.87
		c0.23,0.33,0.39,0.45,0.85,0.37c4.86-0.92,9.72-1.81,14.7-1.34c0.41,0.04,0.6-0.1,0.73-0.48c0.65-1.85,1.75-3.42,3.08-4.85
		c1.79-1.92,4.04-2.62,6.58-2.31c1.26,0.15,2.2,1,2.81,2.1c1.56,2.83,1.54,5.75,0.44,8.72c-0.08,0.21-0.17,0.42-0.17,0.42
		c1.67,1.61,3.45,2.97,4.8,4.69c2.41,3.07,4.11,6.59,5.37,10.28c1.5,4.41,2.93,8.84,3.41,13.51c0.48,4.64,0.5,9.24-1,13.74
		c-0.71,2.15-1.96,3.98-3.35,5.69c-1.85,2.28-2.5,4.94-2.8,7.71c-0.43,3.98,0.18,7.92,0.98,11.81c1.16,5.69,2.45,11.36,3.7,17.03
		c1.07,4.87,2.31,9.69,4,14.4c0.5,1.39,0.66,2.98,0.65,4.47c-0.02,2.81-1.48,4.87-3.96,6.16c-2.68,1.4-5.54,1.76-8.47,1.06
		c-2.16-0.52-3.8-1.91-5.14-3.63c-1.56-2-2.53-4.28-3.1-6.75c-0.23-1.02-0.4-2.13-1.51-2.64c-1.37-0.62-2.73-0.31-4.01,0.28
		c-0.27,0.13-0.45,0.81-0.41,1.21c0.07,0.73,0.34,1.45,0.52,2.17c0.45,1.79,0.99,3.57,1.34,5.38c0.63,3.27-0.65,6.5-3.25,7.79
		c-4.45,2.2-9.26,1.92-12.41-2.87c-1.03-1.56-1.6-3.27-2.05-5.05c-0.39-1.55-1.26-2.73-2.74-3.32c-0.82-0.33-1.73-0.55-2.61-0.6
		c-6.91-0.43-13.82-0.81-20.73-1.22c-1.67-0.1-3.33-0.27-4.99-0.46c-0.66-0.07-1.1,0.04-1.44,0.69c-2.27,4.43-6.15,5.68-10.75,5.15
		c-2.86-0.33-5.07-1.82-6.14-4.63c-1.24-3.23-1.42-6.44,0.16-9.65c0.19-0.38,0.14-1.04-0.06-1.43c-0.55-1.04-1.21-2.04-1.89-3
		c-3.24-4.58-4.32-9.68-3.88-15.21c0.47-5.87,2.19-11.37,4.53-16.74c2.56-5.87,5.4-11.59,9.34-16.64c3.05-3.91,6.43-7.56,9.82-11.18
		c3.61-3.86,6.91-7.96,9.93-12.3c1.19-1.71,2.33-3.46,3.58-5.12C183.97,178.39,185.05,177.22,186.1,175.97z M240.82,268.53
		c-0.58-1.76-1.25-3.49-1.73-5.26c-1.03-3.79-1.92-7.62-2.93-11.42c-1.85-6.92-3.31-13.91-4.15-21.02c-0.33-2.74-0.46-5.5,0.1-8.23
		c0.52-2.55,1.26-5,2.99-7.1c1.26-1.54,2.38-3.21,3.06-5.15c0.86-2.45,1.15-4.98,1.13-7.52c-0.07-9.53-2.77-18.34-7.55-26.54
		c-1.57-2.68-3.92-4.51-6.55-6.06c-2.69-1.58-5.58-2.35-8.68-2.71c-5.52-0.63-10.92-0.01-16.32,1.08c0.35,0.77,0.73,1.47,0.99,2.21
		c0.45,1.28,0.15,1.97-1.11,2.44c-3.46,1.29-6.57,3.15-9.4,5.52c-0.67,0.56-1.52,0.52-2.19-0.03c-0.2-0.16-0.4-0.33-0.55-0.54
		c-0.38-0.53-0.75-0.45-1.13-0.03c-0.5,0.55-1.03,1.09-1.46,1.69c-2.49,3.53-4.95,7.09-7.43,10.62c-3.08,4.38-7.06,7.96-10.54,11.99
		c-2.38,2.76-4.87,5.47-6.99,8.43c-3.44,4.8-6.06,10.08-8.37,15.52c-1.98,4.67-3.45,9.44-3.99,14.51c-0.6,5.63,0.41,10.8,3.9,15.37
		c0.44,0.57,0.78,1.21,1.17,1.82c0.88,1.37,1.36,2.78,0.37,4.35c4,2.89,7.95,5.75,11.95,8.64c0.36-0.56,0.7-1.04,0.99-1.55
		c0.83-1.48,1.93-2.04,3.61-1.81c0.71,0.1,1.43,0.22,2.14,0.26c2.34,0.13,4.68,0.22,7.01,0.34c5.52,0.29,11.05,0.55,16.57,0.91
		c3.48,0.23,6.35,1.84,7.27,5.66c0.11,0.44,0.27,0.87,0.42,1.35c4.27-0.86,8.47-1.7,12.76-2.57c-0.3-0.97-0.59-1.82-0.82-2.68
		c-0.28-1.04-0.62-2.08-0.73-3.14c-0.19-1.82,0.75-3.1,2.52-3.53c0.92-0.22,1.88-0.34,2.82-0.37c1.95-0.06,3.55,1.03,4.25,2.84
		c0.27,0.69,0.44,1.42,0.64,2.14c0.42,1.51,0.9,3,1.78,4.32c4.63-1.52,9.22-3.02,13.81-4.52
		C240.51,268.74,240.57,268.69,240.82,268.53z M237.22,200.55c-0.03,3.2-0.51,6.33-1.55,9.34c-2.5,7.24-7.47,10.46-14.51,10.89
		c-1.37,0.08-2.78-0.06-4.15-0.24c-5.32-0.71-10.73-6.21-11.65-11.98c-0.54-3.37-0.67-6.76-0.61-10.15
		c0.04-2.24,0.96-4.27,1.91-6.22c1.94-3.99,4.5-7.49,8.37-9.86c4.62-2.82,10.42-2.52,14.67,0.8c4.35,3.39,6.46,8.01,7.18,13.36
		C237.07,197.83,237.11,199.2,237.22,200.55z M220.48,211.16c0.01,0.9,0.35,1.46,0.98,1.54c0.66,0.08,1.07-0.37,1.19-1.3
		c0.01-0.08,0.02-0.15,0.02-0.23c0.48-4.42,0.96-8.84,1.46-13.26c0.02-0.21,0.27-0.54,0.45-0.57c2.06-0.35,3.14-1.86,4.09-3.47
		c0.45-0.76,0.7-1.65,0.95-2.51c0.17-0.58-0.1-1.08-0.72-1.26c-0.59-0.17-1,0.14-1.25,0.65c-0.12,0.25-0.15,0.55-0.29,0.79
		c-0.58,1.02-1.1,2.09-1.81,3.01c-0.66,0.86-1.73,1-2.75,0.78c-0.93-0.19-1.38-0.94-1.61-1.8c-0.15-0.57-0.23-1.16-0.3-1.74
		c-0.07-0.56-0.32-0.94-0.9-0.96c-0.59-0.02-0.96,0.38-0.96,0.9c0,1.87,0.23,3.81,1.96,4.84c1.19,0.71,1.34,1.46,1.08,2.58
		c-0.05,0.22-0.06,0.46-0.09,0.69C221.47,203.62,220.97,207.39,220.48,211.16z M172.22,240.29c2.35,1.48,5.49,0.38,6.38-2.23
		c0.34-0.99,0.32-1.97-0.03-2.95c-0.21-0.59-0.63-0.89-1.25-0.75c-0.64,0.14-0.84,0.62-0.78,1.23c0.02,0.23,0.1,0.45,0.13,0.68
		c0.15,1.18-0.34,1.98-1.52,2.46c-0.81,0.33-1.77-0.01-2.42-0.86c-0.76-1-1.46-1.02-2.23-0.05c-0.61,0.78-0.83,0.82-1.67,0.36
		c-0.71-0.39-1.09-1.21-0.9-2.11c0.11-0.52,0.32-1.03,0.55-1.51c0.26-0.55,0.35-1.04-0.2-1.43c-0.45-0.32-1.09-0.16-1.44,0.45
		c-0.33,0.57-0.62,1.2-0.76,1.84c-0.34,1.6-0.11,3.1,1.25,4.19c1.45,1.15,2.71,1.2,4.3,0.26
		C171.84,240.02,172.02,240.16,172.22,240.29z M231.06,256.51c1.41-0.87,2.62-3.76,2.26-5.35c-0.13-0.55-0.43-0.96-1.04-0.95
		c-0.67,0-0.9,0.45-1.01,1.05c-0.15,0.83-0.31,1.66-0.54,2.47c-0.23,0.8-0.88,1.21-1.67,1.28c-0.79,0.07-1.38-0.32-1.73-1.04
		c-0.08-0.16-0.16-0.33-0.26-0.47c-0.57-0.85-1.5-0.78-1.93,0.13c-0.12,0.25-0.19,0.53-0.32,0.79c-0.45,0.92-1.35,1.21-2.07,0.5
		c-0.65-0.65-1.15-1.48-1.6-2.3c-0.4-0.73-0.76-1.05-1.32-0.85c-0.53,0.19-0.8,0.79-0.51,1.5c0.32,0.78,0.71,1.55,1.2,2.22
		c1.23,1.7,3.41,2.78,5.7,0.63C227.79,257.32,229.39,257.54,231.06,256.51z M201.98,180c0.62,0,1.23,0.02,1.85,0
		c0.79-0.03,1.6,0.01,2.36-0.16c0.91-0.21,1.27-0.8,1.13-1.48c-0.14-0.72-0.73-1.12-1.64-1.04c-0.82,0.07-1.62,0.26-2.44,0.34
		c-1.46,0.14-2.92,0.23-4.37,0.37c-0.82,0.08-1.29,0.57-1.21,1.21c0.1,0.81,0.71,0.83,1.32,0.83c1,0,2,0,3,0
		C201.98,180.05,201.98,180.03,201.98,180z M186.43,256.63c-0.08,0.36-0.07,0.83,0.11,1.13c0.6,1.01,1.29,1.97,1.94,2.95
		c0.35,0.53,0.79,0.82,1.42,0.51c0.53-0.26,0.66-0.89,0.25-1.53c-0.66-1.03-1.36-2.04-2.1-3.03c-0.19-0.26-0.56-0.39-0.91-0.63
		C186.86,256.26,186.49,256.41,186.43,256.63z M180.05,209.73c-0.17-0.36-0.71-0.61-1.12-0.24c-0.29,0.26-0.7,0.75-0.61,0.99
		c0.4,1.21,0.91,2.4,1.48,3.54c0.12,0.24,0.72,0.4,1.05,0.33c0.28-0.05,0.5-0.48,0.75-0.75
		C181.06,212.23,180.61,210.95,180.05,209.73z M204.53,236.06c0.03,0.62,0.22,1.13,0.94,1.18c0.59,0.04,0.96-0.44,1.01-1.2
		c0.06-0.9,0.16-1.79,0.23-2.69c0.05-0.58-0.07-1.1-0.74-1.25c-0.55-0.13-1.01,0.24-1.14,0.97c-0.15,0.81-0.23,1.63-0.31,2.24
		C204.53,235.7,204.52,235.88,204.53,236.06z M171.5,208.82c-0.55,0.64-1.08,1.31-1.58,1.99c-0.21,0.28-0.45,0.62-0.47,0.95
		c-0.02,0.33,0.12,0.84,0.36,0.98c0.28,0.16,0.92,0.16,1.1-0.04c0.79-0.93,1.55-1.92,2.18-2.97c0.37-0.61-0.14-1.32-0.98-1.32
		C171.98,208.49,171.69,208.61,171.5,208.82z M175.24,213.6c0.72,0.09,0.99-0.41,1.1-1.02c0.12-0.71,0.22-1.42,0.31-2.13
		c0.08-0.59-0.04-1.11-0.71-1.25c-0.65-0.13-1.02,0.26-1.15,0.86c-0.16,0.75-0.27,1.51-0.39,2.16
		C174.41,212.94,174.53,213.51,175.24,213.6z M178.28,259.69c0.61,0.12,0.99-0.2,1.15-0.76c0.2-0.69,0.35-1.39,0.52-2.08
		c0.14-0.57,0.03-1.05-0.56-1.26c-0.58-0.2-1.03,0.09-1.22,0.63c-0.27,0.77-0.45,1.57-0.62,2.16
		C177.53,259.13,177.7,259.58,178.28,259.69z M183.82,256.95c-0.12-0.55-0.45-0.88-1.04-0.81c-0.6,0.07-0.84,0.54-0.79,1.06
		c0.08,0.82,0.22,1.63,0.41,2.43c0.13,0.54,0.58,0.87,1.11,0.67c0.36-0.13,0.6-0.55,0.82-0.77
		C184.14,258.51,183.99,257.73,183.82,256.95z M211.08,233.02c-0.31-0.41-0.78-0.52-1.23-0.22c-0.48,0.31-0.55,0.79-0.29,1.28
		c0.27,0.52,0.53,1.07,0.93,1.49c0.23,0.24,0.74,0.38,1.06,0.31c0.28-0.07,0.48-0.49,0.81-0.87
		C211.9,234.28,211.53,233.62,211.08,233.02z"/>
	<path class="st1" d="M130.77,225.4c-3.01-0.31-5.58,1.6-6.14,4.58c-0.03,0.18-0.07,0.37-0.1,0.55c-0.15-0.08-0.3-0.15-0.45-0.23
		c-2.53-1.28-6.07-0.28-7.28,2.38c-1.21,2.67-0.22,5.73,2.38,7.28c4.43,2.63,11.16,3.72,11.78,3.41c0.6-0.29,3.92-7.51,4.38-11.84
		C135.65,228.71,133.6,225.69,130.77,225.4z"/>
	<path class="st1" d="M258.98,158.49c-1.69-2.52-4.8-3.27-7.44-1.8c-0.16,0.09-0.33,0.18-0.49,0.27c-0.04-0.16-0.07-0.33-0.11-0.49
		c-0.63-2.77-3.66-4.85-6.48-4.08c-2.83,0.77-4.55,3.49-4.08,6.48c0.8,5.09,4.27,10.96,4.9,11.25c0.6,0.27,8.28-1.77,11.91-4.19
		C259.54,164.36,260.56,160.85,258.98,158.49z"/>
	<path class="st1" d="M171.8,42.67c-2.6-1.56-5.73-0.93-7.5,1.52c-0.11,0.15-0.22,0.3-0.33,0.46c-0.1-0.13-0.21-0.26-0.31-0.4
		c-1.74-2.24-5.37-2.84-7.6-0.95c-2.24,1.9-2.64,5.09-0.95,7.6c2.88,4.27,8.51,8.12,9.2,8.11c0.66-0.01,6.75-5.12,9.01-8.84
		C174.8,47.74,174.24,44.14,171.8,42.67z"/>
	<path class="st1" d="M35.06,123c-3.01-0.31-5.58,1.6-6.14,4.58c-0.03,0.18-0.07,0.37-0.1,0.55c-0.15-0.08-0.3-0.15-0.45-0.23
		c-2.53-1.28-6.07-0.28-7.28,2.38c-1.21,2.67-0.22,5.73,2.38,7.28c4.43,2.63,11.16,3.72,11.78,3.41c0.6-0.29,3.92-7.51,4.38-11.84
		C39.93,126.32,37.89,123.29,35.06,123z"/>
</g>
</svg>
