<?xml version="1.0" encoding="utf-8"?>
<!-- Generator: Adobe Illustrator 28.0.0, SVG Export Plug-In . SVG Version: 6.00 Build 0)  -->
<svg version="1.1" id="Layer_1" xmlns="http://www.w3.org/2000/svg" xmlns:xlink="http://www.w3.org/1999/xlink" x="0px" y="0px"
	 viewBox="0 0 300 300" style="enable-background:new 0 0 300 300;" xml:space="preserve">
<g>
	<path d="M26.96,204.85c-0.06-1.52,0.13-1.78,1.56-2.27c0-1.01,0-2.01,0-3.01c0-1.06,0.23-1.48,1.29-1.64
		c1.53-0.23,3.09-0.47,4.63-0.44c5.01,0.11,9.98,0.61,14.65,2.56c4.48,1.87,8.47,4.49,11.64,8.25c1.19,1.41,2.13,2.97,2.66,4.75
		c0.17,0.57,0.41,0.63,0.94,0.51c0.82-0.17,1.79-0.01,2.46-0.4c0.64-0.37,0.96-1.28,1.46-1.91c4.75-5.99,11.2-9.04,18.5-10.54
		c3.88-0.8,7.79-1.34,11.76-1.28c2.34,0.03,4.69,0.03,7.03-0.07c1.05-0.04,2.1-0.3,3.12-0.57c1.39-0.37,1.95,0.12,1.73,1.57
		c-0.21,1.37-0.33,2.76-0.52,4.13c-0.06,0.45,0.1,0.68,0.5,0.89c1.98,1.03,1.99,1.05,2.13,3.25c0.41,6.51,0.79,13.01,1.21,19.52
		c0.41,6.42,0.83,12.84,1.25,19.27c0,0.03,0,0.05,0.01,0.08c0.14,2.02,0.06,2.13-1.88,2.65c-11.05,2.99-22.09,5.98-33.15,8.95
		c-0.85,0.23-1.59,0.51-2.29,1.11c-1.55,1.34-3.9,1.14-5.73-0.29c-0.48-0.38-1.04-0.71-1.61-0.89c-10.23-3.24-20.47-6.47-30.72-9.65
		c-1.06-0.33-1.6-0.92-1.91-1.97c-3.98-13.49-7.99-26.96-11.99-40.44c-0.03-0.1-0.06-0.21-0.09-0.31
		C25.23,205.3,25.52,204.89,26.96,204.85z M78.97,257.6c0.36-0.09,0.6-0.14,0.84-0.2c10.86-2.93,21.72-5.87,32.6-8.77
		c0.83-0.22,0.97-0.58,0.92-1.35c-0.39-5.55-0.75-11.1-1.1-16.65c-0.41-6.5-0.8-13.01-1.2-19.52c-0.06-1-0.14-2-0.23-3.12
		c-12.7,2.88-25.33,5.74-38,8.62C74.85,230.31,76.9,243.9,78.97,257.6z M70.61,257.34c-0.05-0.31-0.07-0.52-0.12-0.72
		c-2.99-13.23-5.99-26.46-8.97-39.69c-0.14-0.6-0.4-0.85-0.97-1c-10.77-2.95-21.53-5.93-32.3-8.89c-0.25-0.07-0.5-0.11-0.82-0.18
		c0.08,0.32,0.12,0.53,0.18,0.74c3.87,13.06,7.76,26.11,11.61,39.17c0.19,0.65,0.55,0.9,1.14,1.08c8.27,2.59,16.52,5.19,24.79,7.79
		C66.94,256.2,68.72,256.75,70.61,257.34z M66.2,214.92c-0.47,0.1-1.4,0.29-2.32,0.48c-0.74,0.15-0.9,0.54-0.73,1.29
		c3.1,13.57,6.17,27.14,9.25,40.71c0.35,1.56,1.91,2.47,3.46,2.03c1.12-0.32,1.55-1.03,1.38-2.17c-0.85-5.55-1.68-11.1-2.52-16.64
		c-1.2-7.94-2.39-15.89-3.61-23.83c-0.05-0.32-0.31-0.7-0.59-0.87C69.36,215.17,68.04,214.98,66.2,214.92z M70.34,213.96
		c0.31-0.02,0.37-0.01,0.41-0.03c2.89-1.46,5.71-3.07,8.68-4.34c5.07-2.18,10.46-3.07,15.94-3.11c3.15-0.03,6.31,0.3,9.44,0.69
		c1.32,0.17,2.44-0.15,3.67-0.49c-0.29-0.31-0.59-0.57-0.94-0.71c-5.19-2.02-10.6-2.24-16.02-1.55c-7.52,0.96-14.19,4.08-20.17,8.7
		C71.05,213.35,70.77,213.6,70.34,213.96z M59.26,209.16c-0.17-0.2-0.34-0.42-0.52-0.61c-3.07-3.24-6.73-5.64-10.89-7.19
		c-4.78-1.78-9.79-2.28-14.86-2.25c-0.81,0-1.63,0.14-2.43,0.27c-0.19,0.03-0.48,0.25-0.48,0.4c-0.05,0.82-0.02,1.65-0.02,2.49
		C42.32,201.52,51.82,203.81,59.26,209.16z M108.53,200.89c-2.9,0.1-5.73,0.37-8.55,0.26c-5.68-0.23-11.18,0.64-16.62,2.17
		c-5.78,1.62-10.54,4.76-14.34,9.38c-0.17,0.21-0.33,0.43-0.49,0.65c11.69-9.83,24.74-13.36,39.68-9.11
		C108.32,203.11,108.43,201.94,108.53,200.89z M72.23,214.78c0.02,0.08,0.04,0.15,0.06,0.23c9.56-2.17,19.12-4.34,28.68-6.51
		C90.65,207.29,81.13,209.67,72.23,214.78z M59.75,212.42c-0.11-0.15-0.21-0.3-0.32-0.45c-1.8-2.28-4.27-3.63-6.87-4.73
		c-6.58-2.79-13.46-3.97-20.6-3.56c-1,0.06-2,0.27-2.99,0.45c-0.17,0.03-0.3,0.27-0.45,0.41c0.18,0.04,0.37,0.13,0.55,0.12
		c2.23-0.03,4.5-0.36,6.69-0.06c3.42,0.47,6.81,1.21,10.15,2.11C50.74,208.01,55.34,209.92,59.75,212.42z M31.79,206.27
		c8.53,2.35,17.06,4.71,25.59,7.06c-0.44-0.45-0.95-0.74-1.47-1c-5.32-2.66-10.96-4.35-16.76-5.58
		C36.72,206.23,34.3,205.8,31.79,206.27z"/>
	<path d="M58.96,83.84c1.37-1.76,2.73-3.42,4-5.15c2.02-2.74,3.92-5.58,6-8.27c1.86-2.41,4.32-4.13,7.05-5.48
		c1.51-0.75,2.93-0.77,4.28,0.32c1.42,1.15,2.87,2.26,4.2,3.5c2.45,2.29,4.81,4.67,7.21,7.02c1.75,1.71,1.9,4.13,0.32,6.05
		c-1.51,1.84-3.51,3-5.66,3.91c-3.84,1.62-7.72,3.14-11.85,3.93c-0.08,0.01-0.15,0.07-0.34,0.16c0.62,0.31,1.15,0.62,1.7,0.85
		c1.38,0.58,2.76,1.19,4.17,1.66c2.71,0.91,5.06,2.41,7.17,4.3c1.94,1.74,2.58,4.08,2.82,6.53c0.35,3.58,0.63,7.17,0.8,10.76
		c0.17,3.56,0.87,7.02,1.73,10.46c0.13,0.5,0.23,1.02,0.25,1.53c0.05,1.13-0.74,1.77-1.8,1.39c-0.67-0.24-1.35-0.64-1.87-1.12
		c-0.96-0.89-1.85-1.85-2.69-2.85c-5.29-6.31-11.07-12.12-17.53-17.24c-3.09-2.45-5.8-5.29-8.39-8.25c-0.99-1.13-2.04-2.2-3.07-3.28
		c-0.12-0.12-0.3-0.22-0.47-0.24c-0.78-0.09-1.56-0.16-2.41-0.24c-0.01,0.06-0.06,0.19-0.06,0.31c0.25,6.72-1.77,12.94-4.13,19.12
		c-1.96,5.13-4.3,10.06-6.73,14.97c-1.29,2.61-2.26,5.37-3.38,8.06c-0.26,0.62-0.44,1.37-1.26,1.46c-0.82,0.09-1.32-0.52-1.68-1.12
		c-0.54-0.88-1.03-1.8-1.41-2.76c-1.52-3.91-3.07-7.81-4.45-11.77c-0.97-2.77-1.73-5.62-2.48-8.47c-0.67-2.53-0.07-4.86,1.41-6.98
		c0.8-1.14,1.65-2.24,2.42-3.4c1.39-2.08,2.76-4.18,4.11-6.3c0.77-1.21,1.48-2.47,2.24-3.75c-0.9-0.14-1.87-0.23-2.81-0.45
		c-5.01-1.16-9.35-3.56-12.99-7.18c-1.58-1.57-2.43-3.63-2.88-5.78c-0.39-1.85,0.22-3.56,1.11-5.17c1.6-2.9,3.91-5.13,6.5-7.15
		c1.08-0.84,1.94-1.96,2.89-2.97c0.31-0.34,0.55-0.75,0.86-1.09c1.33-1.47,2.84-1.4,3.95,0.22c1.17,1.71,2.32,3.43,3.41,5.19
		c2.1,3.39,4.72,6.33,7.52,9.13c1.47,1.46,3.04,2.82,4.58,4.19c0.17,0.15,0.52,0.15,0.78,0.12c1.14-0.11,2.27-0.35,3.4-0.35
		C56.74,82.22,57.83,82.76,58.96,83.84z M47.41,92.92c-1.74,0.19-3.66,0.38-5.57,0.62c-0.34,0.04-0.76,0.24-0.96,0.5
		c-0.73,0.94-1.43,1.92-2.06,2.94c-1.14,1.86-2.16,3.79-3.35,5.61c-1.2,1.85-2.59,3.58-3.82,5.41c-0.96,1.43-1.68,3.01-1.21,4.77
		c0.82,3.13,1.62,6.28,2.66,9.34c1.32,3.87,2.85,7.66,4.32,11.47c0.33,0.85,0.77,1.65,1.25,2.65c0.22-0.51,0.33-0.78,0.45-1.05
		c1.28-3.01,2.37-6.11,3.89-9c3.3-6.27,5.85-12.84,8.09-19.53c1.28-3.83,1.92-7.77,1.81-11.82c-0.02-0.84-0.12-1.47-1.16-1.58
		c-0.46-0.05-0.89-0.39-1.36-0.54c-0.2-0.06-0.55-0.05-0.68,0.08c-1.01,1-1.96,2.05-2.44,3.44c-0.13,0.39-0.24,0.81-0.49,1.11
		c-0.18,0.22-0.61,0.39-0.87,0.34c-0.2-0.04-0.38-0.47-0.43-0.75c-0.04-0.24,0.08-0.54,0.2-0.78C46.29,95.01,46.9,93.86,47.41,92.92
		z M59.51,91.94c-1.08,1.54-1.21,1.25,0.03,2.68c0.77,0.88,1.69,1.62,2.47,2.5c2.29,2.6,4.63,5.16,7.37,7.29
		c5.7,4.44,10.81,9.5,15.66,14.83c1.47,1.61,2.84,3.31,4.29,4.94c0.49,0.55,1.1,1,1.66,1.5c0.13-0.34,0.11-0.55,0.05-0.75
		c-1.13-4.14-1.72-8.36-1.91-12.66c-0.14-3.15-0.44-6.3-0.77-9.44c-0.19-1.78-0.62-3.59-2.04-4.78c-1.54-1.28-3.19-2.5-4.97-3.4
		c-2.72-1.37-5.57-2.47-8.39-3.64c-1.1-0.46-2.23-0.71-3.48-0.65c-2.17,0.1-4.36-0.01-6.53-0.13c-0.93-0.06-1.85-0.39-2.94-0.63
		c0.09,0.46,0.04,0.89,0.23,1.07c1.3,1.24,2.62,2.46,4.34,3.13c1.77,0.7,3.51,1.48,5.26,2.24c0.5,0.22,0.81,0.65,0.53,1.19
		c-0.29,0.58-0.78,0.45-1.27,0.21c-0.9-0.44-1.79-0.95-2.73-1.29C63.81,95.22,61.38,94.09,59.51,91.94z M50.18,83.37
		c-0.3-0.26-0.63-0.55-0.96-0.82c-3.75-3.07-7.06-6.58-9.95-10.46c-1.54-2.07-2.87-4.3-4.26-6.49c-1.08-1.71-1.4-1.77-2.53-0.12
		c-1.02,1.51-2.25,2.79-3.73,3.85c-2.4,1.73-4.4,3.83-5.79,6.46c-0.71,1.34-1.3,2.73-0.84,4.3c0.59,1.98,1.36,3.9,2.98,5.27
		c4.67,3.95,9.86,6.67,16.2,6.56c2.53-0.04,5-0.28,7.32-1.39c0.26-0.12,0.61-0.39,0.63-0.61c0.07-1.05,0.03-2.11,0.03-3.21
		c-2.44-0.4-4.74-1.39-7.22-0.65c-0.23,0.07-0.79-0.21-0.83-0.4c-0.06-0.29,0.12-0.8,0.36-0.93c0.43-0.24,0.97-0.33,1.48-0.39
		c1.85-0.21,3.63,0.28,5.39,0.73c0.61,0.16,1.04,0.16,1.18-0.62C49.7,84.09,49.97,83.77,50.18,83.37z M59.89,88.04
		c0.47,0.05,0.87,0.04,1.24,0.15c2.49,0.79,5.05,0.79,7.61,0.59c0.5-0.04,1.01-0.21,1.46-0.42c1.94-0.91,3.86-1.87,5.79-2.81
		c2.54-1.24,5.12-2.42,7.62-3.73c1.05-0.55,1.99-1.32,2.93-2.06c1.33-1.05,2.76-1.9,4.5-2.29c-0.22-0.25-0.35-0.42-0.5-0.57
		c-2.61-2.55-5.21-5.12-7.84-7.64c-0.84-0.81-1.81-1.48-2.68-2.27c-1.31-1.18-2.59-1.08-4.09-0.25c-2.94,1.65-5.24,3.93-7.28,6.57
		c-2.98,3.85-5.22,8.27-8.92,11.56c-0.19,0.17-0.07,0.75,0.02,1.11c0.02,0.08,0.62,0.14,0.83,0.02c0.64-0.4,1.21-0.92,1.84-1.34
		c0.71-0.48,1.42-1.04,2.21-1.34c1.06-0.4,1.97,0.42,1.88,1.55c-0.08,0.96-0.69,1.59-1.47,2.02c-0.22,0.12-0.76,0-0.91-0.2
		c-0.15-0.2-0.08-0.67,0.05-0.94c0.14-0.3,0.46-0.52,0.7-0.78c-0.03-0.03-0.06-0.05-0.1-0.08C64.78,84.89,59.98,87.98,59.89,88.04z
		 M50.79,88.02c0.05,0.75,0.12,1.67,0.16,2.59c0.03,0.57,0.3,0.92,0.83,1.07c1.39,0.38,2.77,0.79,4.18,1.12
		c0.34,0.08,0.91-0.01,1.1-0.24c0.8-0.99,1.58-2.03,1.38-3.45c-0.14-0.97-0.27-1.94-0.33-2.91c-0.07-1.12-0.64-1.81-1.67-2.17
		c-1.65-0.57-3.22-0.28-4.73,0.47c-0.29,0.14-0.57,0.52-0.63,0.83C50.92,86.16,50.89,87.01,50.79,88.02z M91.6,79.15
		c-0.08-0.06-0.15-0.12-0.23-0.19c-0.31,0.07-0.65,0.06-0.91,0.21c-1.01,0.58-2.02,1.17-2.98,1.81c-0.77,0.51-1.44,1.17-2.21,1.67
		c-3.2,2.1-6.68,3.64-10.25,4.99c-0.24,0.09-0.48,0.21-0.71,0.31c4.6-0.84,8.94-2.44,13.07-4.52c1.26-0.63,2.32-1.68,3.38-2.65
		C91.18,80.4,91.33,79.7,91.6,79.15z"/>
	<g>
		<path d="M149.01,228.98c-0.37,1.98-0.72,3.81-1.04,5.65c-0.56,3.14-0.9,6.33-1.71,9.4c-0.63,2.43-1.71,4.76-2.78,7.05
			c-1.14,2.44-3.15,3.7-5.9,3.62c-3.2-0.1-5.02-2.5-4.09-5.58c0.43-1.41,1.12-2.78,1.89-4.05c2.27-3.74,2.91-7.79,2.66-12.09
			c-0.59-9.89-3.14-19.27-7.04-28.33c-0.85-1.97-1.59-4-2.3-6.03c-1.62-4.63-1.51-9.29-0.22-14c0.85-3.09,1.86-6.1,3.35-8.93
			c0.25-0.47,0.25-0.77-0.12-1.21c-1.32-1.64-1.42-3.63-1.35-5.6c0.11-3.02,1.28-5.71,2.8-8.27c0.08-0.14,0.19-0.34,0.31-0.37
			c0.36-0.08,0.74-0.08,1.11-0.11c0.02,0.35,0.18,0.78,0.03,1.02c-1.17,1.81-1.87,3.8-2.41,5.87c-0.38,1.46-0.3,2.91-0.04,4.38
			c0.23,1.31,0.93,2.24,1.93,3.11c0.94,0.82,1.64,1.92,2.43,2.91c1.36,1.71,3.19,2.67,5.19,3.4c0.18,0.07,0.43,0.07,0.53,0.19
			c0.24,0.31,0.42,0.67,0.62,1.02c-0.33,0.17-0.67,0.48-0.99,0.48c-0.5-0.01-1.03-0.16-1.5-0.37c-2.69-1.2-5.04-2.81-6.45-5.52
			c-0.1-0.19-0.26-0.33-0.44-0.55c-0.12,0.13-0.23,0.21-0.29,0.31c-2.38,4.76-3.85,9.78-4.06,15.12c-0.12,3.09,0.85,5.96,1.91,8.81
			c1.9,5.1,3.94,10.17,5.64,15.34c2.05,6.25,2.83,12.77,3.04,19.32c0.12,3.94-0.86,7.66-2.98,11.05c-0.66,1.05-1.23,2.2-1.61,3.38
			c-0.74,2.26,0.4,3.71,2.78,3.67c1.71-0.03,3.03-0.82,3.87-2.33c1.82-3.27,3.04-6.75,3.65-10.44c0.6-3.63,1.3-7.25,1.71-10.9
			c0.64-5.74-0.42-11.23-2.96-16.43c-0.25-0.51-0.52-1.08,0.09-1.44c0.65-0.38,1.07,0.11,1.37,0.64c1.22,2.16,1.84,4.53,2.46,6.91
			c0.6,2.28,0.94,4.6,0.82,6.96c-0.04,0.71,0.2,1.18,0.74,1.6c0.47,0.36,0.88,0.79,1.43,1.3c0.14-1.77,0.4-3.41,0.38-5.06
			c-0.02-2.28-0.24-4.57-0.38-6.85c-0.03-0.49-0.06-0.98-0.08-1.47c-0.02-0.49,0.17-0.97,0.69-0.9c0.33,0.04,0.79,0.43,0.87,0.75
			c0.19,0.73,0.18,1.51,0.27,2.27c0.81,6.37,0.04,12.63-1.5,18.8c-0.98,3.93-2.07,7.85-3.28,11.72c-0.56,1.81-1.53,3.49-2.3,5.23
			c-0.19,0.42-0.37,0.85-0.49,1.3c-0.3,1.07,0.44,2.15,1.55,2.07c3.16-0.21,5.92-1.27,7.61-4.17c1.55-2.65,2.3-5.6,2.85-8.57
			c1.35-7.19,3.26-14.23,5.12-21.29c1.33-5.04,1.2-10.14,0.18-15.24c-0.56-2.8-0.99-5.63-1.41-8.46c-0.32-2.17,0.2-4.28,0.56-6.41
			c0.59-3.51,0.08-6.95-0.71-10.37c-0.11-0.49-0.38-0.94-0.63-1.55c-2.03,2.14-4.65,2.74-7.25,3.3c-0.91,0.2-1.89,0.1-2.84,0.09
			c-0.26,0-0.59-0.09-0.75-0.27c-0.23-0.25-0.33-0.61-0.48-0.93c0.31-0.15,0.68-0.49,0.92-0.42c1.51,0.47,2.9-0.03,4.34-0.34
			c4.28-0.93,6.51-3.89,7.8-7.79c0.11-0.33,0.05-0.73,0.21-1.03c0.16-0.32,0.49-0.77,0.73-0.77c0.29,0.01,0.66,0.39,0.82,0.71
			c0.13,0.25,0.09,0.67-0.03,0.95c-0.65,1.55-1.3,3.1-2.05,4.6c-0.25,0.51-0.31,0.81-0.06,1.37c0.53,1.18,0.89,2.45,1.23,3.7
			c0.14,0.51,0.3,0.76,0.84,0.92c3.63,1.02,6.92,2.8,10.06,4.81c1.06,0.68,1.99,1.62,2.84,2.57c3.45,3.86,6.49,7.99,8.27,12.94
			c0.94,2.62,2.46,4.91,4.16,7.09c1.29,1.66,2.52,3.36,3.8,5.02c2.53,3.29,3.26,7,2.33,10.98c-0.92,3.95-0.74,7.9-0.33,11.87
			c0.03,0.3,0.21,0.61,0.4,0.86c1.08,1.44,2.66,2.12,4.28,2.73c3.5,1.33,7.19,1.77,10.85,2.3c4.64,0.66,9.35,0.96,13.92,1.92
			c4.95,1.04,9.88,1.65,14.92,1.52c3.19-0.09,6.38-0.21,9.56-0.12c1.7,0.05,3.39,0.47,5.07,0.81c0.57,0.11,1.11,0.45,1.6,0.78
			c0.78,0.52,1.04,1.32,0.88,2.22c-0.15,0.85-0.76,1.36-1.54,1.51c-2.86,0.55-5.72,1.23-8.61,1.51c-7.32,0.69-14.57,0.03-21.8-1.32
			c-5.57-1.04-11.17-1.9-16.9-1.57c-3.21,0.19-6.33-0.64-9.43-1.41c-2.43-0.6-4.84-1.29-7.26-1.91c-0.23-0.06-0.52,0.01-0.76,0.09
			c-2.03,0.69-4.04,1.45-6.1,2.07c-2.63,0.79-5.27,1.62-7.97,2.13c-1.39,0.27-2.92-0.03-4.36-0.22c-0.78-0.1-1.3-0.71-1.6-1.5
			c-0.09-0.25-0.44-0.53-0.71-0.56c-3.65-0.45-7.3-0.84-10.95-1.31c-0.88-0.11-1.34,0.05-1.68,0.96c-1.67,4.48-5.16,6.53-9.74,6.86
			c-2.5,0.18-4.09-2.07-3.31-4.46c0.18-0.54,0.38-1.08,0.65-1.59c2.31-4.43,3.75-9.17,4.8-14.03c0.4-1.84,0.83-3.67,1.32-5.48
			C150.97,231.19,150.01,230.16,149.01,228.98z M179.4,245.23c0.43,0.02,0.97,0.04,1.51,0.08c0.43,0.04,0.91,0.01,1.28,0.2
			c0.29,0.15,0.44,0.57,0.65,0.88c-0.31,0.19-0.62,0.52-0.94,0.53c-1.03,0.03-2.06-0.1-3.1-0.1c-2.26,0-4.22,0.88-5.82,2.41
			c-0.57,0.54-0.89,1.4-1.21,2.15c-0.23,0.55,0.1,1.02,0.67,1.07c1.16,0.1,2.38,0.33,3.48,0.09c2.63-0.57,5.22-1.34,7.8-2.11
			c1.87-0.56,3.74-1.17,5.56-1.89c2.13-0.83,3.65-2.3,3.95-4.69c0.14-1.1,0.22-2.24,0.12-3.34c-0.37-4.25-0.66-8.47,0.38-12.68
			c0.93-3.81-0.07-7.22-2.51-10.25c-1.25-1.55-2.42-3.16-3.63-4.74c-1.52-1.97-2.92-4.03-3.79-6.38c-1.61-4.35-3.99-8.22-7-11.73
			c-1.39-1.62-2.74-3.29-4.64-4.32c-2.13-1.15-4.31-2.21-6.5-3.26c-0.69-0.33-1.45-0.51-2.26-0.79c0.01,0.29,0,0.43,0.03,0.55
			c0.4,2.04,0.25,4.06-0.02,6.1c-0.25,1.83-0.65,3.69-0.5,5.5c0.25,2.95,0.82,5.88,1.38,8.79c0.89,4.57,1.12,9.16,0.2,13.73
			c-0.6,2.99-1.52,5.91-2.22,8.88c-1.19,5.09-2.32,10.2-3.48,15.29c-0.29,1.26-0.63,2.51-0.95,3.8c0.5,0.06,0.9,0.11,1.3,0.15
			c3.49,0.35,6.99,0.72,10.48,1.04c0.27,0.03,0.73-0.15,0.83-0.36c0.85-1.71,2.29-2.76,3.95-3.53c1.05-0.48,2.18-0.79,3.41-1.22
			c-0.09-0.57-0.17-1.21-0.3-1.84c-0.18-0.91-0.41-1.81-0.56-2.72c-0.08-0.5,0.09-0.97,0.67-1.03c0.54-0.06,0.75,0.33,0.84,0.81
			C178.74,241.94,179.06,243.54,179.4,245.23z M192.5,248.63c0.16,0.07,0.25,0.13,0.35,0.15c1.87,0.47,3.74,0.96,5.63,1.4
			c3,0.71,6,1.57,9.1,1.39c5.8-0.34,11.46,0.67,17.14,1.53c3.07,0.47,6.12,1.12,9.21,1.35c3.55,0.26,7.15,0.36,10.7,0.12
			c3.22-0.22,6.4-0.97,9.59-1.51c0.21-0.04,0.39-0.24,0.58-0.37c-0.14-0.21-0.24-0.52-0.44-0.62c-0.59-0.27-1.2-0.53-1.83-0.66
			c-3.96-0.86-7.97-0.65-11.97-0.44c-4.21,0.22-8.39,0.12-12.54-0.66c-1.93-0.37-3.82-0.91-5.76-1.19
			c-5.31-0.76-10.64-1.39-15.96-2.14c-3.97-0.56-7.8-1.56-11.13-3.95c-0.03-0.02-0.1,0.02-0.15,0.04
			C194.57,245.96,194.21,246.77,192.5,248.63z"/>
		<path d="M146.52,153.98c-0.68-4.06-2.66-7.38-5.24-10.7c-0.65,1.21-1.35,2.25-1.79,3.39c-1.09,2.85-2.11,5.73-2.24,8.84
			c-0.02,0.49-0.17,0.97-0.79,0.93c-0.63-0.03-0.73-0.53-0.67-1.01c0.2-1.56,0.31-3.15,0.7-4.67c0.7-2.71,1.42-5.44,3.09-7.78
			c1.44-2.01,2.12-1.99,3.58-0.01c2.44,3.31,4.37,6.84,5.02,10.69c2.32,0.64,4.58,0.99,6.58,1.9c1.4,0.64,2.21,0.33,3.23-0.48
			c1.76-1.38,3.57-2.7,5.38-4c0.73-0.52,1.49-1.01,2.29-1.41c1.43-0.7,2.46-0.37,3.03,1.12c0.39,1.03,0.58,2.16,0.69,3.26
			c0.32,3.42-0.55,6.6-2.13,9.6c-0.7,1.33-1.43,2.63-2.15,3.95c-0.26,0.47-0.61,0.84-1.18,0.56c-0.56-0.27-0.55-0.78-0.32-1.27
			c0.32-0.66,0.7-1.3,1.05-1.94c1.34-2.41,2.7-4.84,2.95-7.65c0.14-1.64,0.04-3.32-0.16-4.96c-0.18-1.49-0.56-1.63-1.79-0.81
			c-2.17,1.46-4.29,3-6.42,4.51c-0.55,0.39-1.1,0.79-1.7,1.23c0.29,0.41,0.6,0.79,0.84,1.2c0.31,0.51,0.4,1.07-0.18,1.44
			c-0.56,0.35-0.91-0.05-1.18-0.5c-0.84-1.37-2.08-2.2-3.58-2.7c-1.97-0.65-3.95-1.3-6.05-1.21c-0.6,0.03-1.18,0.34-1.78,0.45
			c-0.31,0.06-0.83,0.1-0.92-0.05c-0.16-0.26-0.18-0.76-0.02-1.01c0.2-0.31,0.62-0.49,0.98-0.67
			C145.92,154.09,146.22,154.06,146.52,153.98z"/>
		<path d="M145.19,171.67c0.46-1.47,0.93-2.89,1.34-4.33c0.06-0.22-0.23-0.53-0.25-0.8c-0.04-0.4,0.02-0.8,0.04-1.2
			c0.34,0.04,0.68,0.08,1.03,0.1c0.19,0.01,0.39,0.03,0.57-0.01c0.24-0.06,0.47-0.27,0.68-0.24c0.33,0.05,0.82,0.17,0.92,0.4
			c0.1,0.23-0.13,0.87-0.33,0.92c-0.98,0.27-1.14,1.06-1.37,1.84c-0.36,1.25-0.74,2.5-1.14,3.85c0.36,0.04,0.71,0.01,0.97,0.14
			c0.32,0.16,0.75,0.41,0.81,0.7c0.12,0.51-0.34,0.88-0.8,0.78c-1.23-0.27-2.45-0.63-3.64-1.03c-0.45-0.15-0.68-0.6-0.43-1.07
			c0.26-0.48,0.7-0.45,1.14-0.23C144.86,171.54,144.98,171.58,145.19,171.67z"/>
		<path d="M142.47,162.77c0.06-0.99,0.48-1.47,1.09-1.38c0.62,0.08,0.96,0.47,0.95,1.12c-0.02,0.72-0.52,1.23-1.17,1.17
			C142.63,163.61,142.46,163.15,142.47,162.77z"/>
		<path d="M155.5,165.87c0,0.61-0.52,1.16-1.12,1.18c-0.57,0.02-1.03-0.45-1.02-1.03c0.01-0.63,0.53-1.17,1.12-1.18
			C155.05,164.82,155.5,165.28,155.5,165.87z"/>
	</g>
	<g>
		<path d="M205.5,89.7c0.59,0.24,1.12,0.38,1.59,0.65c0.76,0.43,1.12,1.11,0.98,1.99c-0.13,0.83-0.81,1.03-1.49,1.17
			c-0.74,0.16-1.5,0.31-2.25,0.41c-0.45,0.06-0.6,0.26-0.61,0.69c-0.03,1.47-0.1,2.94-0.11,4.42c0,0.22,0.24,0.51,0.44,0.65
			c1.26,0.82,1.21,3.14-0.07,3.9c-0.23,0.13-0.46,0.47-0.47,0.72c-0.14,3.62-0.26,7.25-0.34,10.87c0,0.21,0.24,0.52,0.44,0.61
			c1.66,0.71,1.97,2.51,0.58,3.67c-5.57,4.64-11.16,9.27-16.74,13.91c-0.46,0.39-0.89,0.39-1.49,0.27c-1.47-0.29-2.97-0.4-4.46-0.56
			c-5.8-0.6-11.6-1.18-17.41-1.77c-5.64-0.57-11.28-1.13-16.92-1.7c-5.64-0.57-11.28-1.16-16.92-1.73
			c-4.58-0.46-9.16-0.92-13.75-1.38c-3.36-0.34-6.72-0.69-10.09-1.01c-0.68-0.07-1.16-0.36-1.56-0.91c-1.91-2.66-2.6-5.67-2.52-8.88
			c0.06-2.28,0.53-4.5,1.62-6.53c0.48-0.9,1.15-1.69,1.77-2.59c-1.06-0.12-2.17-0.3-3.3-0.34c-0.97-0.04-1.65-0.48-2.19-1.22
			c-1.36-1.86-1.56-3.98-1.36-6.17c0.18-1.92,0.8-3.72,1.82-5.37c0.45-0.73,1.06-1.21,1.89-1.46c1.75-0.51,3.49-1.06,5.28-1.6
			c-1.5-1.77-2.29-3.77-2.4-6.05c-0.16-3.33,0.51-6.46,2.41-9.24c0.81-1.19,1.73-2.05,3.41-2.29c3.77-0.54,7.48-1.48,11.21-2.25
			c6.37-1.32,12.74-2.67,19.13-3.94c0.88-0.17,1.84,0.04,2.76,0.13c6.04,0.63,12.08,1.28,18.13,1.93
			c5.36,0.58,10.73,1.16,16.09,1.74c5.36,0.57,10.73,1.13,16.1,1.7c4.01,0.42,8.02,0.81,12.03,1.28c0.65,0.08,1.31,0.39,1.89,0.72
			c0.76,0.44,0.93,1.24,0.85,2.07c-0.09,1.02-0.78,1.54-1.67,1.79c-0.57,0.16-0.76,0.44-0.84,1
			C206.52,82.58,206.01,86.13,205.5,89.7z M168.19,98.25c-1.13-3.14-1.24-6.2-0.89-9.29c0.23-2.01,0.6-4,1.74-5.73
			c0.45-0.68,1.01-1.18,1.88-1.3c3.77-0.54,7.54-1.11,11.32-1.68c6.71-1.01,13.41-2.03,20.12-3.03c1.59-0.24,3.18-0.4,4.77-0.64
			c0.42-0.06,0.99-0.23,0.78-0.79c-0.11-0.3-0.6-0.59-0.96-0.66c-0.77-0.16-1.57-0.16-2.35-0.25c-4.88-0.52-9.75-1.04-14.63-1.56
			c-4.82-0.51-9.65-1.02-14.47-1.53c-4.88-0.52-9.75-1.05-14.63-1.57c-4.93-0.53-9.86-1.07-14.79-1.57
			c-1.54-0.15-3.15-0.5-4.62-0.21c-10.1,1.99-20.18,4.11-30.25,6.23c-0.56,0.12-1.16,0.5-1.53,0.94c-1.43,1.7-2.1,3.75-2.39,5.91
			c-0.33,2.37-0.24,4.69,1.16,6.76c0.18,0.27,0.56,0.5,0.88,0.56c1.82,0.33,3.66,0.6,5.48,0.89c8.36,1.34,16.73,2.68,25.09,4.02
			c7.74,1.24,15.49,2.48,23.24,3.71C164.77,97.72,166.4,97.97,168.19,98.25z M188.23,112.42c-0.04-0.05-0.07-0.1-0.11-0.16
			c-1.26,0.69-2.51,1.4-3.78,2.07c-0.3,0.16-0.66,0.32-0.99,0.3c-1.22-0.05-2.44-0.2-3.67-0.27c-7.16-0.38-14.32-0.74-21.49-1.1
			c-5.94-0.3-11.87-0.58-17.81-0.87c-7.41-0.37-14.82-0.74-22.22-1.11c-2.83-0.14-5.66-0.3-8.5-0.46c-0.8-0.04-1.22-0.44-1.06-1
			c0.16-0.6,0.66-0.67,1.17-0.65c4.38,0.21,8.77,0.43,13.15,0.65c7.05,0.36,14.11,0.74,21.16,1.08c1.5,0.07,3.01,0.01,4.52,0.01
			c-0.27,0.06-0.54,0.05-0.8,0.02c-5.09-0.54-10.19-1.08-15.28-1.61c-4.55-0.48-9.11-0.95-13.66-1.42
			c-3.36-0.35-6.72-0.7-10.09-1.03c-0.32-0.03-0.75-0.09-0.94,0.08c-0.65,0.57-1.34,1.16-1.79,1.88c-1.2,1.89-1.84,4-1.99,6.24
			c-0.2,2.94,0.34,5.7,2,8.18c0.19,0.29,0.62,0.54,0.96,0.58c1.78,0.22,3.58,0.37,5.37,0.55c7.78,0.8,15.56,1.6,23.34,2.39
			c8.05,0.82,16.1,1.63,24.16,2.45c8.68,0.88,17.35,1.76,26.03,2.62c0.36,0.04,0.82-0.09,1.09-0.31
			c5.31-4.37,10.59-8.76,15.88-13.15c0.15-0.12,0.35-0.23,0.41-0.39c0.07-0.19,0.03-0.42,0.03-0.64c-0.18,0.05-0.38,0.06-0.52,0.16
			c-0.2,0.14-0.34,0.35-0.52,0.51c-5.05,4.3-10.09,8.59-15.15,12.88c-1.05,0.89-1.77,0.76-2.24-0.51c-1.9-5.11-2.03-10.22,0.09-15.3
			c0.19-0.46,0.64-0.85,1.04-1.17C186.72,113.4,187.49,112.92,188.23,112.42z M203.35,101.17c-0.9,0.48-1.79,0.95-2.67,1.43
			c-5.59,3.01-11.19,6.01-16.78,9.02c-1.09,0.59-1.65,0.52-2.39-0.48c-0.41-0.55-0.76-1.22-0.94-1.88c-0.79-3.1-0.29-6.06,1.21-8.85
			c0.24-0.46,0.74-0.86,1.22-1.09c1.66-0.81,3.36-1.53,5.16-2.34c-0.2-0.04-0.25-0.06-0.3-0.05c-4.91,0.89-9.81,1.8-14.72,2.66
			c-1.35,0.24-2.78,0.64-4.09,0.44c-5.55-0.85-11.1-1.65-16.72-1.84c-5.53-0.19-11.06-0.55-16.58-0.84
			c-6.94-0.37-13.89-0.74-20.83-1.11c-2.42-0.13-4.85-0.26-7.27-0.4c-0.58-0.03-1.15-0.16-1.09-0.91c0.07-0.76,0.67-0.74,1.24-0.72
			c0.82,0.03,1.64,0.06,2.45,0.1c5.77,0.31,11.54,0.62,17.32,0.93c4.47,0.24,8.93,0.47,13.4,0.7c0.65,0.03,1.3,0.08,1.95,0.12
			c-0.28-0.17-0.57-0.24-0.87-0.29c-9.5-1.52-18.99-3.04-28.49-4.55c-0.66-0.11-1.4-0.31-2.01-0.14c-2.83,0.79-5.63,1.69-8.44,2.59
			c-0.35,0.11-0.72,0.4-0.92,0.71c-0.93,1.41-1.45,2.99-1.61,4.67c-0.16,1.65-0.04,3.27,0.87,4.74c0.3,0.49,0.66,0.78,1.3,0.82
			c1.68,0.12,3.36,0.33,5.04,0.51c4.58,0.47,9.16,0.95,13.74,1.42c4.42,0.46,8.84,0.91,13.25,1.37c4.53,0.47,9.05,0.94,13.58,1.41
			c4.47,0.46,8.95,0.92,13.42,1.38c4.53,0.47,9.05,0.94,13.58,1.4c2.33,0.24,4.67,0.39,6.99,0.71c0.83,0.12,1.46-0.05,2.15-0.44
			c2.01-1.15,4.05-2.25,6.08-3.37c4.08-2.26,8.16-4.51,12.23-6.77C203.19,102.01,203.62,101.83,203.35,101.17z M169.28,96.26
			c11.55-2.06,22.99-4.1,34.48-6.14c0.04-0.35,0.07-0.65,0.11-1.03c-2.83,0.46-5.55,0.91-8.26,1.35c-1.61,0.26-3.22,0.54-4.84,0.75
			c-0.84,0.11-1.39-0.47-1.02-1.05c0.18-0.29,0.63-0.51,0.99-0.59c1.06-0.23,2.15-0.36,3.22-0.54c3.15-0.51,6.29-1.01,9.44-1.54
			c0.29-0.05,0.71-0.27,0.79-0.5c0.18-0.55,0.18-1.15,0.27-1.79c-0.23,0.02-0.36,0.03-0.49,0.05c-5.62,0.91-11.24,1.83-16.86,2.75
			c-1.37,0.22-2.74,0.46-4.11,0.67c-0.53,0.08-1.03,0-1.14-0.63c-0.11-0.61,0.26-0.9,0.82-0.99c0.13-0.02,0.27-0.06,0.4-0.08
			c3.47-0.57,6.94-1.13,10.4-1.7c3.55-0.58,7.1-1.16,10.64-1.76c0.23-0.04,0.58-0.19,0.62-0.35c0.14-0.51,0.16-1.05,0.23-1.69
			c-1.08,0.17-2.04,0.31-3.01,0.47c-1.08,0.17-2.15,0.35-3.23,0.52c-0.56,0.09-1.09,0.01-1.19-0.67c-0.09-0.61,0.32-0.87,0.87-0.95
			c0.3-0.04,0.59-0.1,0.89-0.15c1.96-0.31,3.92-0.63,5.92-0.95c0.06-0.4,0.12-0.79,0.19-1.26c-0.54,0.07-0.97,0.13-1.39,0.19
			c-7.41,1.12-14.82,2.24-22.23,3.35c-3.37,0.51-6.73,1.02-10.1,1.52c-0.82,0.12-1.43,0.45-1.59,1.38c0.18,0,0.31,0.02,0.44,0
			c3.96-0.62,7.91-1.24,11.87-1.87c3.23-0.51,6.46-1.02,9.69-1.52c0.58-0.09,1.24-0.12,1.33,0.68c0.08,0.72-0.49,0.88-1.07,0.97
			c-3.85,0.6-7.7,1.2-11.55,1.81c-3.58,0.56-7.16,1.11-10.74,1.69c-0.27,0.04-0.67,0.18-0.73,0.37c-0.2,0.62-0.28,1.28-0.43,2.03
			c2.28-0.39,4.37-0.74,6.47-1.1c1.4-0.24,2.79-0.49,4.19-0.71c0.57-0.09,1.16-0.07,1.26,0.66c0.09,0.67-0.42,0.87-0.97,0.97
			c-0.32,0.06-0.64,0.11-0.97,0.17c-3.17,0.54-6.34,1.07-9.5,1.64c-0.22,0.04-0.55,0.29-0.58,0.47c-0.07,0.58-0.03,1.18-0.03,1.87
			c0.44-0.06,0.79-0.1,1.13-0.15c1.13-0.18,2.25-0.39,3.39-0.55c0.51-0.07,1.02,0.11,1.01,0.67c-0.01,0.33-0.37,0.7-0.66,0.94
			c-0.21,0.17-0.57,0.14-0.87,0.19c-1.25,0.21-2.5,0.43-3.81,0.65C169.09,95.29,169.18,95.71,169.28,96.26z M201.45,112.77
			c-1.15,0.71-2.28,1.41-3.4,2.11c-1.67,1.03-3.33,2.08-5.03,3.06c-0.25,0.15-0.71-0.06-1.07-0.1c0.08-0.37,0.12-0.75,0.25-1.09
			c0.05-0.15,0.29-0.23,0.45-0.33c2.62-1.67,5.24-3.33,7.85-5.02c1.29-0.83,1.41-1.19,1.06-2.76c-0.17,0.1-0.34,0.18-0.49,0.28
			c-2.33,1.47-4.65,2.94-6.97,4.42c-0.47,0.3-0.97,0.59-1.34-0.01c-0.34-0.56,0.05-0.97,0.53-1.27c0.16-0.1,0.33-0.2,0.48-0.3
			c2.46-1.62,4.9-3.26,7.38-4.85c0.75-0.48,0.74-1.06,0.62-1.77c-0.1,0.01-0.13,0.01-0.15,0.02c-4.92,3.42-9.85,6.84-14.76,10.28
			c-0.34,0.24-0.49,0.72-0.74,1.09c0.06,0.04,0.12,0.08,0.18,0.12c0.22-0.15,0.45-0.3,0.67-0.45c1.38-0.93,2.75-1.87,4.13-2.8
			c0.43-0.29,0.89-0.38,1.24,0.08c0.35,0.47,0.1,0.87-0.29,1.2c-0.1,0.09-0.22,0.17-0.33,0.24c-1.73,1.14-3.39,2.4-5.21,3.38
			c-1.29,0.7-1.24,1.71-1.33,2.97c0.85-0.56,1.56-1.05,2.3-1.51c0.45-0.28,0.96-0.38,1.28,0.17c0.29,0.52-0.04,0.87-0.47,1.14
			c-0.89,0.57-1.8,1.14-2.68,1.73c-0.2,0.14-0.46,0.39-0.46,0.59c0.01,0.85,0.1,1.7,0.18,2.74c1.68-1.26,3.17-2.39,4.67-3.51
			c0.44-0.33,0.86-0.72,1.35-0.91c0.33-0.12,0.77,0.07,1.17,0.12c-0.09,0.38-0.15,0.77-0.28,1.14c-0.04,0.13-0.25,0.19-0.39,0.29
			c-1.88,1.36-3.75,2.72-5.64,4.06c-0.36,0.26-0.53,0.51-0.34,0.95c0.15,0.34,0.24,0.7,0.4,1.16c5.15-4.39,10.23-8.68,15.18-13.12
			c-0.32,0.03-0.55,0.17-0.77,0.32c-2.07,1.47-4.13,2.94-6.19,4.42c-0.43,0.31-0.88,0.6-1.27,0.06c-0.37-0.49-0.08-0.95,0.35-1.26
			c2.31-1.69,4.59-3.43,6.97-5.01C201.41,114.31,201.7,113.77,201.45,112.77z M201.55,94.58c-0.02-0.04-0.03-0.08-0.05-0.12
			c-0.27,0.04-0.53,0.08-0.8,0.13c-2.85,0.53-5.71,0.9-8.36,2.29c-2.6,1.37-5.34,2.48-8.05,3.62c-1.11,0.47-1.46,1.32-1.77,2.44
			c0.41-0.16,0.71-0.27,1-0.4c2.42-1.05,4.84-2.11,7.27-3.17c0.27-0.12,0.57-0.33,0.83-0.3c0.33,0.03,0.81,0.18,0.93,0.42
			c0.11,0.23-0.08,0.69-0.26,0.97c-0.13,0.2-0.46,0.27-0.71,0.38c-2.97,1.3-5.95,2.59-8.91,3.9c-0.29,0.13-0.67,0.41-0.71,0.66
			c-0.1,0.64-0.03,1.32-0.03,2.08c0.61-0.27,1.11-0.48,1.61-0.7c0.47-0.21,0.92-0.54,1.41-0.64c0.35-0.07,0.94,0.01,1.12,0.25
			c0.33,0.45,0.01,0.86-0.47,1.1c-0.19,0.1-0.39,0.2-0.59,0.29c-0.91,0.42-1.82,0.84-2.72,1.25c0.39,1.24,0.48,1.28,1.49,0.74
			c2.14-1.15,4.27-2.29,6.41-3.44c3.7-1.99,7.39-3.97,11.09-5.96c0.37-0.2,0.82-0.37,0.51-0.97c-0.22,0.1-0.43,0.18-0.62,0.27
			c-2.55,1.29-5.1,2.59-7.66,3.88c-1.77,0.9-3.55,1.8-5.33,2.68c-0.51,0.25-1.05,0.32-1.34-0.28c-0.27-0.56,0.1-0.92,0.57-1.18
			c0.14-0.08,0.29-0.15,0.44-0.22c4.47-2.26,8.94-4.54,13.43-6.78c0.69-0.34,0.88-0.76,0.6-1.51c-1.64,0.74-3.24,1.5-4.87,2.19
			c-0.47,0.2-1.04,0.17-1.67,0.26c-0.13,0.64-0.86,0.8-1.54,0.94c-0.24,0.05-0.72-0.16-0.78-0.35c-0.08-0.26,0.04-0.76,0.24-0.9
			c0.59-0.4,1.23-0.84,1.82-0.44c0.44-0.37,0.76-0.72,1.15-0.95c0.46-0.28,0.99-0.46,1.48-0.69
			C198.99,95.76,200.27,95.17,201.55,94.58z M170.06,97.81c-0.02,0.12-0.03,0.24-0.05,0.36c0.35,0.04,0.72,0.17,1.05,0.11
			c11.61-2.1,23.21-4.21,34.81-6.32c0.17-0.03,0.33-0.11,0.49-0.16c-0.01-0.07-0.01-0.15-0.02-0.22c-0.36-0.02-0.72-0.09-1.07-0.04
			c-0.7,0.09-1.39,0.25-2.09,0.37c-9.36,1.67-18.72,3.33-28.08,5C173.43,97.2,171.74,97.51,170.06,97.81z"/>
		<path d="M164.05,83c-2.63-0.33-4.99-0.62-7.34-0.91c-5.46-0.68-10.92-1.37-16.38-2.05c-5.92-0.74-11.84-1.48-17.76-2.22
			c-2.41-0.3-4.81-0.6-7.22-0.9c-0.32-0.04-0.7-0.01-0.96-0.17c-0.32-0.2-0.72-0.55-0.76-0.86c-0.06-0.57,0.46-0.76,0.97-0.72
			c0.87,0.07,1.73,0.19,2.6,0.3c6.92,0.86,13.84,1.73,20.75,2.6c7.62,0.96,15.24,1.92,22.86,2.88c1.03,0.13,2.06,0.24,3.08,0.38
			c0.54,0.07,1.02,0.34,0.86,0.94C164.68,82.6,164.22,82.84,164.05,83z"/>
		<path d="M176.25,93.55c-0.19-0.17-0.67-0.4-0.74-0.73c-0.17-0.71,0.43-0.91,0.99-1.01c2.36-0.4,4.73-0.78,7.09-1.17
			c0.3-0.05,0.59-0.12,0.89-0.15c0.54-0.06,1.1-0.04,1.2,0.65c0.1,0.67-0.37,0.9-0.93,1c-1.18,0.2-2.36,0.41-3.54,0.6
			C179.64,93.01,178.08,93.26,176.25,93.55z"/>
		<path d="M195.24,82.65c-0.27-0.27-0.67-0.49-0.77-0.81c-0.15-0.53,0.3-0.74,0.76-0.83c0.21-0.04,0.43-0.04,0.64-0.06
			c0.49-0.03,0.97,0.02,1.03,0.63c0.06,0.6-0.4,0.76-0.88,0.86c-0.21,0.04-0.43,0.05-0.64,0.07
			C195.35,82.56,195.3,82.6,195.24,82.65z"/>
		<path d="M187.73,91.87c-0.37-0.51-0.74-0.79-0.75-1.08c-0.03-0.61,0.51-0.76,1.02-0.8c0.48-0.04,0.89,0.21,0.75,0.69
			C188.64,91.05,188.21,91.34,187.73,91.87z"/>
		<path d="M189.67,120c-0.11-0.15-0.42-0.38-0.49-0.67c-0.11-0.48,0.86-1.26,1.51-1.18c0.28,0.04,0.66,0.36,0.73,0.63
			C191.55,119.24,190.55,119.98,189.67,120z"/>
	</g>
	<g>
		<path d="M267.49,132.42c-4.21,9.9-18.6,11.01-23.46,1.21c-5.44,2.98-10.41,2.34-14.23-2.58c-3.55-4.57-2.93-9.28,0.82-13.61
			c-4.26-4.93-5.26-10.32-2.37-16.22c1.21-2.47,3.16-4.28,5.62-5.53c2.47-1.25,5.09-1.49,7.6-1.13c0.75-1.35,1.3-2.71,2.15-3.83
			c1.93-2.53,4.63-3.82,7.74-4.29c0.72-0.11,1.41-0.1,1.84-0.92c0.34-0.64,1.14-0.64,1.66,0.02c0.62,0.8,1.44,1.05,2.33,1.33
			c3.5,1.1,5.97,3.29,7.05,6.87c6.68-1.21,11.03,0.35,13.93,4.99c1.53,2.45,2.14,5.13,1.8,7.98c-0.32,2.7-0.77,3.5-3.64,7.37
			c1.8,1.49,2.98,3.4,3.44,5.69c0.85,4.25-0.03,8.06-3.31,11.05c-2.43,2.21-5.28,2.82-8.44,1.72c-0.1-0.04-0.2-0.07-0.31-0.1
			C267.66,132.43,267.6,132.43,267.49,132.42z M264.69,121.97c-1.04,0.7-1.97,1.36-2.94,1.97c-0.49,0.31-1.07,0.47-1.43-0.15
			c-0.37-0.63,0.1-0.99,0.61-1.29c4.54-2.7,6.49-6.73,5.8-11.92c-0.63-4.7-4.18-8.71-9.34-9.37c-6.26-0.8-11.99,4.18-12.22,10.51
			c-0.16,4.4,1.5,7.9,5.17,10.4c0.48,0.32,0.81,0.74,0.46,1.29c-0.36,0.57-0.9,0.42-1.36,0.09c-0.69-0.48-1.36-0.99-2.03-1.49
			c-3.13,3.26-4.01,9.23-0.1,13.43c5.46,5.85,15.82,3.65,18.68-3.95C267.24,128.1,266.8,124.92,264.69,121.97z M248.89,101.67
			c-0.03-0.08-0.07-0.18-0.12-0.27c-2.32-4.01-7.41-6.16-11.9-5.04c-4.86,1.21-8.42,5.66-8.56,10.72
			c-0.16,5.48,3.06,10.26,7.95,11.8c2.89,0.91,5.68,0.65,8.35-0.77C242.25,111.61,243.57,106.14,248.89,101.67z M259.73,99.9
			c6.84,2.95,9.55,8.15,8.6,15.38c3.4,0.31,8.47-1.93,9.82-7.71c1.19-5.12-1.76-10.47-6.69-12.2
			C266.92,93.76,261.7,95.77,259.73,99.9z M245.43,119.6c-4.31,2.23-9.3,1.79-12.88-0.66c-0.18-0.13-0.7-0.09-0.81,0.06
			c-0.7,0.92-1.53,1.82-1.95,2.87c-1.8,4.49,0.93,9.82,5.71,11.39c2.36,0.77,4.62,0.58,6.77-0.69c0.71-0.42,1.12-0.93,0.95-1.92
			c-0.58-3.38,0.34-6.42,2.37-9.15C246.27,120.58,246.28,120.58,245.43,119.6z M265.82,120.7c2.19,2.8,2.93,5.99,2.26,9.51
			c-0.1,0.53,0.21,0.66,0.59,0.8c2.41,0.88,4.59,0.37,6.49-1.24c2.7-2.29,3.58-5.34,3.16-8.76c-0.26-2.17-1.21-4.07-2.93-5.49
			c-0.19-0.15-0.59-0.29-0.75-0.2c-2.12,1.26-4.4,1.84-6.76,1.65C267.18,118.22,266.52,119.41,265.82,120.7z M250.38,100.81
			c0.48-0.2,0.85-0.37,1.23-0.51c0.41-0.15,0.83-0.28,1.24-0.43c0.15-0.05,0.33-0.1,0.42-0.22c0.26-0.35-0.04-2.29-0.38-2.59
			c-1.14-0.99-1.72-2.28-1.68-3.76c0.04-1.3,0.26-2.59,0.44-3.88c0.06-0.44,0.2-0.87,0.31-1.32c-3.84-0.03-8.34,3.66-8.51,6.96
			C246.41,96.15,248.7,98.08,250.38,100.81z M254.87,99.53c0.9,0,1.72,0.04,2.53-0.02c0.28-0.02,0.67-0.22,0.8-0.45
			c0.99-1.7,2.26-3.14,3.95-4.17c0.43-0.27,0.51-0.53,0.36-0.99c-0.81-2.56-2.6-4.15-5.01-5.15c-0.15-0.06-0.33-0.07-0.59-0.12
			c1.24,3.29,0.72,6.15-1.65,8.63C254.66,97.91,254.82,98.66,254.87,99.53z M253.85,87.28c-0.38,1.72-0.89,3.42-1.09,5.16
			c-0.1,0.91,0.22,1.94,0.59,2.81c0.36,0.86,0.78,0.82,1.36,0.08C256.5,93.04,256.26,89.55,253.85,87.28z"/>
		<path d="M255.13,124.98c-0.39-0.05-0.87-0.05-1.29-0.2c-0.24-0.09-0.53-0.44-0.52-0.67c0.01-0.24,0.33-0.65,0.54-0.66
			c0.77-0.06,1.56-0.03,2.34,0.06c0.19,0.02,0.49,0.43,0.47,0.63c-0.02,0.26-0.27,0.59-0.51,0.72
			C255.89,125,255.52,124.94,255.13,124.98z"/>
	</g>
	<g>
		<path d="M75.32,137.18c6.23,0.12,11.18,0.28,16.02,1.53c1.1,0.28,2.16,0.75,3.2,1.22c1.19,0.54,1.69,1.56,1.68,2.85
			c-0.01,1.04,0.03,2.08-0.05,3.11c-0.07,0.93,0.45,1.12,1.17,1.17c1.01,0.06,2.01,0.08,3.02,0.15c4.49,0.32,8.52,1.69,11.39,5.39
			c2.93,3.77,3.71,7.97,2.16,12.54c-1.92,5.66-6.06,9.17-11.39,11.33c-1.8,0.73-3.88,0.74-5.84,1.07c-0.64,0.11-1.3,0.16-1.94,0.26
			c-0.57,0.09-0.82,0.41-0.82,1.02c-0.01,0.98-0.12,1.96-0.17,2.93c-0.08,1.35-0.75,2.43-1.53,3.45c-2.1,2.73-4.95,4.39-8.13,5.55
			c-4.57,1.66-9.3,2-14.11,1.56c-4.45-0.41-8.67-1.6-12.57-3.83c-1.86-1.06-3.52-2.38-4.96-3.97c-0.61-0.67-0.87-1.41-0.92-2.28
			c-0.23-4.25-0.45-8.49-0.71-12.74c-0.29-4.98-0.62-9.95-0.92-14.93c-0.21-3.48-0.41-6.97-0.56-10.45
			c-0.05-1.01,0.57-1.81,1.37-2.26c1.37-0.77,2.79-1.49,4.28-1.97c3.88-1.25,7.9-1.84,11.96-2.16
			C70.16,137.47,73.37,137.3,75.32,137.18z M92.13,182.88c0.05-0.09,0.09-0.18,0.14-0.27c0.17-1.22,0.41-2.45,0.51-3.68
			c0.1-1.29,0.52-2.02,1.71-2.36c0.62-0.17,1.3-0.13,1.94-0.23c1.77-0.27,3.66-0.25,5.3-0.89c5.01-1.94,8.93-5.13,10.9-10.37
			c1.41-3.75,1.03-7.31-1.05-10.64c-2.19-3.5-5.52-5.33-9.56-5.88c-1.59-0.22-3.2-0.26-4.8-0.38c-1.5-0.11-2.13-0.74-2.17-2.19
			c-0.02-0.66,0-1.31,0-2.05c-2.18,1.42-4.49,2.13-6.87,2.65c-7.47,1.64-15.04,2.14-22.67,1.82c-5.06-0.21-10.13-0.46-14.88-2.79
			c0.15,2.35,0.3,4.66,0.43,6.97c0.23,4.08,0.44,8.16,0.68,12.24c0.32,5.5,0.67,10.99,0.95,16.49c0.06,1.24,0.37,2.3,1.38,3.07
			c1.47,1.11,2.87,2.39,4.48,3.25c6.37,3.44,13.2,4.27,20.3,3.18c3.62-0.56,7.04-1.74,9.99-4
			C90.21,185.78,91.47,184.57,92.13,182.88z M76.67,138.4c-5.45,0.12-10.69,0.41-15.89,1.33c-2.76,0.49-5.52,1.06-8.07,2.3
			c-0.55,0.27-1.08,0.64-1.54,1.05c-0.5,0.44-0.51,0.99,0.11,1.35c0.75,0.43,1.52,0.87,2.34,1.13c3.48,1.1,7.09,1.51,10.71,1.61
			c3.89,0.1,7.79,0.01,11.68-0.14c4.44-0.18,8.85-0.78,13.14-1.97c1.69-0.47,3.33-1.18,4.89-1.99c1.17-0.61,1.1-1.42-0.09-2.04
			c-0.96-0.5-1.99-0.89-3.04-1.16C86.2,138.64,81.34,138.54,76.67,138.4z"/>
		<path d="M92.13,182.88c-0.37,0.21-0.71,0.3-0.93-0.2c-0.04-0.1-0.23-0.21-0.33-0.19c-0.77,0.16-0.91-0.34-0.75-0.85
			c0.22-0.71,0.55-1.41,0.95-2.05c0.3-0.49,0.83-0.39,0.93,0.2c0.17,0.93,0.19,1.88,0.27,2.83
			C92.22,182.7,92.17,182.79,92.13,182.88z"/>
		<path d="M95.11,173.1c-1.27-0.13-1.42-0.29-1.35-1.5c0.32-5.57,0.64-11.15,0.97-16.72c0.04-0.73,0.04-1.48,0.15-2.2
			c0.05-0.34,0.26-0.72,0.53-0.93c0.79-0.63,1.71-0.82,2.74-0.8c3.31,0.09,6.42,0.79,9.2,2.68c3.44,2.34,4.51,6.27,2.79,10.06
			c-1.12,2.47-2.8,4.42-5.12,5.77c-1.69,0.98-3.4,1.97-5.22,2.66C98.32,172.68,96.68,172.79,95.11,173.1z M95.01,171.8
			c1.18-0.17,2.22-0.25,3.22-0.48c3-0.66,5.5-2.32,7.87-4.18c1.65-1.29,2.64-3.04,3.27-4.99c0.26-0.78,0.38-1.66,0.33-2.49
			c-0.14-2.4-1.5-4.06-3.47-5.33c-2.62-1.69-5.55-2.21-8.57-2.27c-0.53-0.01-1.48-0.01-1.58,0.93c-0.11,0.97-0.12,1.96-0.18,2.94
			c-0.2,3.45-0.42,6.91-0.62,10.36C95.18,168.09,95.11,169.88,95.01,171.8z"/>
		<path d="M62.37,164.93c-0.36,0.29-0.67,0.55-0.99,0.8c-0.22,0.17-0.53,0.28-0.67,0.5c-0.52,0.8-1.36,0.87-1.69,0
			c-0.37-0.98-0.56-2.04-0.72-3.08c-0.03-0.18,0.55-0.69,0.68-0.64c0.97,0.4,1.92,0.88,2.83,1.4
			C62.04,164.04,62.11,164.45,62.37,164.93z"/>
		<path d="M55.97,153.68c-0.12,0.78-0.09,1.63-0.83,1.59c-0.82-0.05-1.7-0.39-2.38-0.86c-0.26-0.18-0.22-1.15,0-1.61
			c0.33-0.69,0.91-1.28,1.43-1.86c0.43-0.47,0.91-0.37,1.12,0.26C55.6,152.07,55.78,152.97,55.97,153.68z"/>
		<path d="M63.12,176.14c0.05,0.51-0.21,0.86-0.7,0.67c-0.99-0.39-2-0.81-2.89-1.38c-0.56-0.36-0.27-1.07,0.42-1.38
			c0.27-0.12,0.55-0.38,0.67-0.64c0.23-0.51,0.53-1.05,1.08-0.89c0.43,0.13,0.91,0.62,1.04,1.05
			C62.99,174.39,63.01,175.28,63.12,176.14z"/>
		<path d="M65.96,149.44c0.65-0.17,1.15-0.38,1.67-0.41c0.74-0.04,1.16,0.54,0.81,1.19c-0.44,0.84-0.98,1.63-1.57,2.38
			c-0.34,0.43-0.8,0.4-1.13-0.15c-0.34-0.56-0.71-1.09-1.08-1.63c-0.35-0.51-0.75-1.08-0.19-1.61
			C65.03,148.69,65.59,149.05,65.96,149.44z"/>
		<path d="M77.29,159.86c-0.94-0.33-1.74-0.58-2.51-0.89c-0.15-0.06-0.29-0.43-0.25-0.6c0.25-0.92,0.74-1.7,1.6-2.16
			c0.85-0.46,1.41-0.09,1.48,0.87c0.02,0.3,0.26,0.58,0.36,0.88c0.13,0.39,0.41,0.86,0.29,1.16
			C78.13,159.45,77.61,159.63,77.29,159.86z"/>
		<path d="M87.75,164.43c-0.16,0.25-0.33,0.79-0.68,0.96c-0.28,0.13-0.78-0.2-1.18-0.34c-0.22-0.08-0.41-0.21-0.63-0.27
			c-0.74-0.2-1.14-0.97-0.68-1.57c0.51-0.65,1.18-1.18,1.85-1.66c0.13-0.09,0.77,0.2,0.84,0.42
			C87.5,162.68,87.57,163.44,87.75,164.43z"/>
		<path d="M83.29,180.16c-0.22,0.29-0.4,0.78-0.67,0.83c-0.35,0.07-0.88-0.1-1.12-0.37c-0.41-0.46-0.66-1.06-0.97-1.6
			c0.55-0.25,1.07-0.55,1.64-0.72c0.46-0.14,0.99-0.24,1.43-0.13c0.37,0.09,0.66,0.52,0.98,0.79c-0.27,0.29-0.53,0.6-0.83,0.86
			c-0.13,0.11-0.36,0.12-0.54,0.18C83.24,180.05,83.27,180.1,83.29,180.16z"/>
		<path d="M88.3,150.2c-0.22,0.2-0.36,0.42-0.54,0.47c-0.26,0.06-0.64,0.1-0.8-0.05c-0.17-0.14-0.29-0.61-0.18-0.77
			c0.51-0.76,1.08-1.49,1.7-2.15c0.11-0.12,0.8,0.05,0.9,0.24c0.29,0.6,0.49,1.26,0.59,1.93c0.04,0.3-0.18,0.87-0.39,0.93
			c-0.3,0.08-0.7-0.18-1.05-0.32C88.45,150.44,88.4,150.31,88.3,150.2z"/>
		<path d="M70.96,183.7c0.22-0.17,0.38-0.37,0.57-0.41c0.24-0.06,0.6-0.1,0.76,0.03c0.18,0.16,0.35,0.57,0.27,0.77
			c-0.29,0.66-0.66,1.29-1.08,1.88c-0.08,0.12-0.59,0.11-0.74-0.02c-0.47-0.4-0.9-0.86-1.29-1.35c-0.36-0.45-0.59-1.06-0.1-1.45
			c0.22-0.17,0.84,0.14,1.27,0.26C70.73,183.44,70.82,183.58,70.96,183.7z"/>
		<path d="M73.48,170.91c0.47,0.26,1.21,0.42,1.35,0.81c0.26,0.7-0.53,0.94-1.02,1.25c-1.52,0.96-2.06,0.69-2.05-1.01
			c0-0.27-0.16-0.56-0.1-0.8c0.09-0.35,0.31-0.67,0.48-1c0.33,0.18,0.67,0.34,0.98,0.55c0.11,0.08,0.15,0.27,0.22,0.42
			C73.39,171.05,73.43,170.98,73.48,170.91z"/>
		<path d="M58.25,184.11c-0.53-0.18-1.11-0.23-1.18-0.44c-0.11-0.35,0.01-0.86,0.21-1.2c0.24-0.4,0.64-0.75,1.03-1.02
			c0.51-0.36,0.97-0.17,1.07,0.45c0.11,0.67,0.17,1.35,0.16,2.03c0,0.27-0.22,0.54-0.34,0.82c-0.27-0.14-0.56-0.26-0.81-0.42
			C58.28,184.24,58.22,184.06,58.25,184.11z"/>
		<path d="M91.11,173.79c-0.29,0.24-0.58,0.61-0.95,0.73c-0.54,0.18-1.21,0.42-1.63-0.19c-0.13-0.2-0.04-0.76,0.15-0.92
			c0.45-0.39,0.49-0.82,0.53-1.35c0.02-0.31,0.34-0.59,0.53-0.89c0.25,0.21,0.6,0.37,0.72,0.64
			C90.71,172.36,90.85,172.97,91.11,173.79z"/>
		<path d="M93.36,162.27c-0.28,0.55-0.43,1.28-0.73,1.34c-0.78,0.18-0.66-0.66-0.84-1.11c-0.14-0.35-0.21-0.73-0.29-1.1
			c-0.04-0.18-0.06-0.39-0.01-0.56c0.2-0.61,0.69-0.65,1.2-0.49c1.21,0.37,1.85,0.95,1.53,1.43
			C94.03,162.06,93.56,162.16,93.36,162.27z"/>
		<path d="M93.18,150.77c0.02-0.01,0.16-0.16,0.33-0.21c0.21-0.06,0.48-0.12,0.65-0.03c0.13,0.07,0.21,0.38,0.17,0.56
			c-0.11,0.58-0.25,1.16-0.44,1.72c-0.07,0.2-0.25,0.46-0.43,0.5c-0.18,0.04-0.51-0.09-0.61-0.25c-0.28-0.43-0.53-0.9-0.67-1.38
			C91.99,151.07,92.33,150.72,93.18,150.77z"/>
	</g>
	<g>
		<path d="M221.15,157.78c-0.48-2.55-0.94-5.01-1.4-7.47c-2.04-10.82-4.08-21.63-6.12-32.45c-0.21-1.11,0-1.42,1.1-1.68
			c0.95-0.22,1.91-0.42,2.87-0.63c0.81-0.17,1.17,0.3,1.33,0.98c0.37,1.59,0.76,3.18,1.07,4.78c2.35,11.89,4.69,23.79,7.01,35.69
			c0.12,0.62,0.35,0.78,0.95,0.78c4.99-0.05,9.98-0.05,14.97-0.09c2.55-0.02,4.29,1.15,5.19,3.53c0.28,0.74-0.05,1.32-0.84,1.42
			c-0.35,0.05-0.7,0.01-1.12,0.01c-0.15,1.83-0.3,3.61-0.44,5.39c-0.42,5.27-0.85,10.54-1.26,15.81c-0.35,4.46-0.69,8.91-1.05,13.37
			c-0.35,4.43-0.72,8.86-1.08,13.29c-0.29,3.64-0.57,7.28-0.87,10.92c-0.3,3.58-0.62,7.17-0.92,10.75
			c-0.07,0.84-0.19,1.69-0.15,2.53c0.06,1.43-0.82,2.21-1.9,2.78c-1.94,1.02-4.01,1.74-6.2,1.94c-2.52,0.23-5.05,0.56-7.57,0.5
			c-4.63-0.12-9.24-0.57-13.74-1.81c-0.24-0.07-0.47-0.14-0.7-0.24c-2.85-1.25-2.57-1.38-2.75-3.81c-0.31-4.18-0.67-8.36-1.06-12.54
			c-0.37-3.99-0.81-7.97-1.21-11.96c-0.47-4.61-0.94-9.22-1.41-13.83c-0.4-3.96-0.8-7.92-1.21-11.88
			c-0.42-4.09-0.84-8.19-1.26-12.28c-0.25-2.41-0.5-4.83-0.71-7.24c-0.07-0.77-0.18-1.3-1.16-1.16c-0.61,0.09-0.96-0.28-0.94-0.94
			c0.04-1.5,0.83-2.7,1.65-3.84c0.26-0.36,1.03-0.47,1.57-0.47c6.11-0.07,12.22-0.09,18.33-0.12
			C220.44,157.83,220.76,157.8,221.15,157.78z M244.56,162.68c-14.19,0.18-28.27,0.36-42.41,0.54c0.08,0.94,0.15,1.75,0.23,2.56
			c0.58,5.61,1.17,11.22,1.74,16.83c0.52,5.1,1.01,10.2,1.53,15.29c0.57,5.61,1.16,11.22,1.74,16.83c0.54,5.26,1.1,10.52,1.59,15.78
			c0.07,0.78,0.4,1.13,1.07,1.27c2.58,0.54,5.15,1.21,7.76,1.56c3.87,0.53,7.78,0.52,11.67,0.17c3.11-0.28,6.29-0.44,8.99-2.32
			c0.31-0.21,0.63-0.63,0.66-0.97c0.33-3.5,0.59-7.01,0.87-10.51c0.37-4.56,0.73-9.13,1.1-13.7c0.29-3.67,0.58-7.34,0.87-11.01
			c0.36-4.54,0.72-9.08,1.09-13.61c0.3-3.78,0.61-7.55,0.91-11.33C244.18,167.66,244.37,165.24,244.56,162.68z M225.55,157.8
			c-2.68-13.65-5.34-27.13-7.99-40.63c-0.85,0.15-1.56,0.28-2.32,0.42c0.05,0.32,0.07,0.56,0.12,0.8c1.67,8.86,3.33,17.73,5,26.59
			c0.76,4.04,1.52,8.09,2.31,12.13c0.05,0.26,0.36,0.63,0.59,0.66C223.98,157.85,224.71,157.8,225.55,157.8z M246.06,161.08
			c0.03-0.07,0.07-0.14,0.1-0.21c-0.59-0.6-0.81-1.61-1.94-1.61c-0.84,0-1.69,0-2.53,0c-6.76,0.05-13.52,0.1-20.28,0.15
			c-6.54,0.05-13.09,0.09-19.63,0.15c-0.25,0-0.62,0.05-0.72,0.21c-0.35,0.56-0.61,1.18-0.95,1.88
			C215.54,161.47,230.8,161.27,246.06,161.08z M238.94,232.88c-0.21,0.1-0.39,0.2-0.58,0.27c-1.12,0.42-2.2,0.99-3.36,1.24
			c-4.59,0.98-9.26,0.99-13.92,0.82c-1.79-0.06-3.59-0.3-5.35-0.61c-2.27-0.4-4.5-0.96-6.79-1.46c0.03,0.33,0.08,0.7,0.11,1.07
			c0.1,1.62,0.19,1.75,1.74,2.3c0.18,0.06,0.36,0.14,0.55,0.17c2.36,0.4,4.71,0.81,7.08,1.17c3.81,0.59,7.64,0.7,11.49,0.31
			c2.34-0.23,4.64-0.63,6.82-1.57C239.06,235.58,239.08,235.14,238.94,232.88z"/>
		<path d="M207.81,196.67c0.08-4.41,1.83-9.27,5.76-13.23c6.85-6.9,17.3-5.86,22.72,2.22c5.11,7.63,3.96,18.88-2.6,25.32
			c-7.42,7.29-18.52,5.58-23.52-3.62C208.55,204.37,207.81,201.17,207.81,196.67z M237.9,196.61c0-3.1-0.69-6.01-2.15-8.73
			c-4.62-8.66-15.1-9.95-21.66-2.67c-2.74,3.04-4.22,6.65-4.59,10.71c-0.48,5.18,0.8,9.85,4.31,13.78c2.09,2.34,4.75,3.79,7.86,4.16
			c3.42,0.41,6.56-0.54,9.28-2.65C235.71,207.53,237.71,202.49,237.9,196.61z"/>
		<path d="M214.22,192.83c-0.02-4.31,3.19-6.84,7.32-6.01c0.78,0.16,1.54,0.51,2.26,0.87c0.38,0.19,0.64,0.28,1.01,0
			c1.49-1.11,3.21-1.29,4.98-1.09c2.12,0.23,4.11,2.31,4.45,4.64c0.53,3.64-0.92,8.52-5.57,10.57c-1.21,0.54-2.49,0.96-3.78,1.26
			c-0.64,0.15-1.41,0.03-2.04-0.2c-3.15-1.1-5.55-3.17-7.36-5.95C214.63,195.59,214.18,194.12,214.22,192.83z M232.94,192.62
			c-0.25-0.82-0.37-1.71-0.76-2.46c-1.47-2.87-5.12-2.43-6.9-0.81c-0.64,0.58-1.13,0.57-1.78,0.05c-1.65-1.32-3.49-1.41-5.4-0.69
			c-1.22,0.46-1.94,1.33-2.19,2.63c-0.33,1.73,0.06,3.3,0.95,4.78c1,1.67,2.38,2.96,3.95,4.09c1.64,1.18,3.29,1.7,5.34,0.96
			C230.05,199.76,232.52,197.54,232.94,192.62z"/>
		<path d="M212.13,200.23c0-0.28-0.05-0.46,0.01-0.6c0.14-0.35,0.25-0.87,0.51-0.98c0.27-0.11,0.83,0.1,1.04,0.35
			c1.09,1.27,2.44,2.14,3.89,2.95c2.75,1.53,4.63,3.75,5.32,6.9c0.32,1.43-0.24,2.05-1.66,1.73c-4.62-1.06-8.35-4.93-9.03-9.39
			C212.15,200.83,212.15,200.47,212.13,200.23z M221.22,209c-0.32-1.72-1.08-3.14-2.38-4.14c-1.53-1.17-3.19-2.18-4.87-3.31
			C214.25,204.57,218.07,208.48,221.22,209z"/>
		<path d="M235.9,200.14c-0.35,4.39-2.71,7.42-6.46,9.48c-0.85,0.46-1.83,0.69-2.76,0.97c-1.42,0.44-1.78-0.48-1.56-1.62
			c0.55-2.89,2.18-5.09,4.66-6.62c1.67-1.03,3.42-1.92,4.7-3.49c0.17-0.21,0.69-0.32,0.93-0.21c0.24,0.11,0.37,0.53,0.48,0.84
			C235.96,199.69,235.9,199.92,235.9,200.14z M226.82,208.99c3.14-0.48,7.33-4.82,7.17-7.31
			C231.07,203.55,227.57,204.87,226.82,208.99z"/>
	</g>
	<path d="M187.95,149.33c1.54,4.16,0.55,3.17,4.71,4.71c-4.16,1.54-3.17,0.55-4.71,4.71c-1.54-4.16-0.55-3.17-4.71-4.71
		C187.41,152.5,186.41,153.5,187.95,149.33z"/>
	<path d="M261.22,175.5c1.54,4.16,0.55,3.17,4.71,4.71c-4.16,1.54-3.17,0.55-4.71,4.71c-1.54-4.16-0.55-3.17-4.71-4.71
		C260.68,178.67,259.68,179.66,261.22,175.5z"/>
	<path d="M33.04,167.65c1.54,4.16,0.55,3.17,4.71,4.71c-4.16,1.54-3.17,0.55-4.71,4.71c-1.54-4.16-0.55-3.17-4.71-4.71
		C32.49,170.82,31.5,171.81,33.04,167.65z"/>
	<path d="M101.6,59.31c1.54,4.16,0.55,3.17,4.71,4.71c-4.16,1.54-3.17,0.55-4.71,4.71c-1.54-4.16-0.55-3.17-4.71-4.71
		C101.05,62.48,100.06,63.48,101.6,59.31z"/>
	<path d="M123.06,254c1.54,4.16,0.55,3.17,4.71,4.71c-4.16,1.54-3.17,0.55-4.71,4.71c-1.54-4.16-0.55-3.17-4.71-4.71
		C122.51,257.17,121.51,258.17,123.06,254z"/>
	<path d="M227.73,72.92c1.54,4.16,0.55,3.17,4.71,4.71c-4.16,1.54-3.17,0.55-4.71,4.71c-1.54-4.16-0.55-3.17-4.71-4.71
		C227.18,76.09,226.19,77.09,227.73,72.92z"/>
</g>
</svg>
