<?xml version="1.0" encoding="utf-8"?>
<!-- Generator: Adobe Illustrator 28.0.0, SVG Export Plug-In . SVG Version: 6.00 Build 0)  -->
<svg version="1.1" id="Layer_1" xmlns="http://www.w3.org/2000/svg" xmlns:xlink="http://www.w3.org/1999/xlink" x="0px" y="0px"
	 viewBox="0 0 500 500" style="enable-background:new 0 0 500 500;" xml:space="preserve">
<path d="M432.7,482.7c-2.6-7.2-11.4-4.1-13.2-3.7c-3.4-4.6-8-6.1-13.5-4.9c-0.1-0.3,14-37,3.5-87.3c-5.1-24.3-10-20.3-45.1-20.2
	c-0.4,0-0.7-0.1-1.2-0.1c9.7-19.1,9.4-32.5,10.3-39.9c5.9,2.5,9.1,4.2,12.8,3.8c17.8-2.1,2.9-39-20.3-65c6-7.5,7.4-15.1,0.6-22.6
	c2-5.5,5.2-11.1-0.4-17.6c-2.5-3,12.1-22.7-8.1-66.8c1.8-4.1,5.1-5.3,3.3-21.9c-1.7-16-15.4-18.5-16.1-19.1
	c-0.8-0.7-12.8-31.1-48.3-51.3c-0.9-0.5-1.7-1.1-2.6-1.7l1.3-2.5c6-0.6,10-7.4,3.2-13.3c5.8-3.4,7.4-10.7-1.4-14.6
	c5.8-7.1,3.2-17-8-15.6c0.2-0.7,0.2-1.3,0.4-1.8c1.6-4.3-2.4-11.1-8.5-10.8c-3.6,0.2-5.7,1.4-7,2c-1.2-2-2-3.9-5.6-4.2
	c-2.8-0.3-4.7,1.8-6.9,3.8c-1.9-0.4-1.5-1.7-1.7-3.7c-0.4-3.6-5.2-5-7.5-2.4c-0.8,1-1.5,2.9-1.9,4c-13.7-4.7-13.7,0.2-17.6,5.8
	c-4.2-2.5-8.7,0.1-9.3,3.9c-0.2,1.1-0.1,4.3-0.1,5.4c-1,0-1.9-0.1-2.7,0c-3.7,0.3-5.8,3.7-4.5,7.1c0.3,0.9,0.3,1.5,3.5,0.4
	c3.4-1.2,8.7,1.9,8.7,6.5c0,0.9-0.9,2.9-2.4,1.7c-1.5-1.2-3.3-3.3-5.1-0.9c-2.8,3.6-1.1,4.7-2.8,6c-4.3-2.8-3.6-4.9-2.9-9.6
	c-4.4-0.8-9,7.1-4.3,13.3c1.6,2.1,2.7,2.6,4,3.6c-4.8,3.6-5.1,7.6-2.6,11.2c0.5,0.7,1.1,1.4,1.6,2.1C188,76.3,187.8,78.7,181.8,84
	c-10.8,9.5-21,24.7-24.2,31.5c-1.2,2.6-1.3,1.8-4.2,2.9c-13.8,5.4-13.3,15.9-13.4,28.2c0,5.8,2.1,9.4,4,11.8
	c-12.3,25.1-12.8,50.6-7.4,65.8c0.8,2.2-4.8,5.4-2,13.6c0.7,2,1.8,3.9,2.8,6c-5.1,5.4-5.8,12.9-0.2,20.6c-5.6,6.5-9.5,9.5-16.6,20.5
	c-17.2,26.3-21.1,56.2,6.6,41.5c0.8,5.4,0.1,12.1,4.3,26.2c2.7,9.1,5.9,12.8,5.5,13.9c-0.7,0.2-10.1,0-26.1,0.1
	c-16.1,0.1-19.2,5.5-22.8,37.8c-1.1,9.8-1.3,31.6,0.6,45.7c1.6,11.7,3.6,17.3,5.4,24.1c-8.2-1.1-9.4,1-13,5.1
	c-1-0.3-1.8-0.6-2.6-0.9c-12-3.7-15.1,11.2-6.7,10c5.7-0.8,7.1,1.7,8.5-0.3c4.1-6.2,13.9-6.8,19.6-1.4c1,0.9,2,1.8,3.1,2.8
	c0,0,0.2-0.1,0.3-0.2c4.8-4,11.1-2.1,14,1.9c1.2,1.7,0.4,0.9,2.5,3.5c4.2-2.2,2.4-1.5,6.8-2.5c0.1-0.8,0.3-1.6,0.4-2.4
	c1.4-7.3,9.1-10.9,16.6-5.9c4.8,3.2,5.6,7.4,7.4,8.5c6.6-4,12.9-4.5,19.1,0.9c0.3-0.4,0.5-0.8,0.8-1.1c17.7-18.6,34.4-9.5,54.6,7.6
	c6-3.5,10.7-4.9,17.9-1.5c8.1-12.9,23.5-19.7,37-14.7c6.7,2.5,10.3,6.3,13.1,8.6c10.9-12.4,25.2-13.7,38.9-7
	c8.3,4,14.1,11.3,16.7,12.7c1.4-3,2.8-6.2,7.9-6.9c3.6-0.5,6.3,1.3,9.1,3.4c5.8-9.5,14.5-11.6,22.6-1.5c3-1.2,5.1-1.3,9.1,0
	c0.4-0.3,0.1,0.1,2.6-3.6c3.3-4.8,10.6-6.9,15.8-3.6c3.3,2.1,3.7,4.2,5.5,3.4c3.3-1.5,7.2-0.7,8.4-0.9
	C432.2,488.2,433.5,485,432.7,482.7z M399.3,383.4c-4.6,0.9-6.3,0.8-7.4,1.4c-1.6,0.8-2.5,3.6,2.9,4.6c1.4,0.3,4.4,0.2,5.8,0.2
	l1,6.2c-5.6,1-33.8,2.1-38.9,2.4c-2.8,0.2-26.1,3.1-29.3,2.4l-0.1-0.3c11.7-8.5,3.6-4.2,33-6.7c3.6-0.3,13-2,19.5-3.7
	c-7.5-4-28.7-2.1-36.6-3.2c1.1-1.5-0.1-0.1,8.3-9.7c1-1.2,0.8-2.3,3.8-2.3C398.1,374.4,396.8,371.5,399.3,383.4z M299.4,370.9
	c-1.4,1-3.6,3.1-4.8,4.2c-1.3-0.4-2.6-0.7-3.8-1.1c-4.9-1.7-9.9,1.2-11.9,4.3c-4.5,6.7-4.5,12.5-5,17.9c-18.3,3.9-38.3,3.4-56.1-0.5
	c-1.8-0.4-1-1.5-1.9-6.8c-1.3-7-5.2-14.6-12.4-15.2c-1.9-0.1-4.9,0.7-6.6,1.2c-2.4,0.7-12.3-16-23.9,1.1
	c-23.9-20.8-26.6-63.9-5.1-90.9c3.7-4.7,0.1-0.4,33.1,5.2c6.4,1.1,18.7,2.5,25.1,2.7c-0.1,0,10.7,0.3,11.9,0.5
	c0.8,4.8,0.3,18.8,1.3,26.2c1.1,7.8,11.3,14.7,18.3,9.3c4.5,3.3,8.7,3.8,13.9-0.2c8.6,5.7,18.4-3,19.1-13.3
	c0.6-8.5,0.5-22.3,0.7-25.1l15.1-2.3c3.5,29.8,2.8,35.7,4.8,40.7c2.7,6.7,9.9,10.1,15.9,5.7c4.1,1.7,8.2,2.4,11.9-1.1
	c2.1,0.8,4.2,1.3,6.5,1.1c0.9,15.4-8.3,35-25.1,46.6c-0.3-1.1-0.5-2.3-0.8-3.4C316.6,368.5,306.6,365.7,299.4,370.9z M312.6,388.8
	c-0.9,12-15.9,18.3-23.6,14.7c-8.8-4.1-6.5-23.5,0.9-20c2.9,1.3,4.4,2.5,6.1,1.2c4.7-3.4,6.3-5.2,7.7-6.1
	C309.5,374.4,312.6,381,312.6,388.8z M207.1,393.7c-0.4,13.6-15.3,12.3-23.1,3.9c-10.2-11-3.5-23.2,2.3-19.4
	c0.8,0.5,5.4,4.6,6.8,5.8c4.5,3.8,9-5,12.3,1.7C206.6,388,207.2,390.4,207.1,393.7z M281.1,276.5c-0.2,1.6,0.2,2.1-7.6,2.5
	c-0.2,0-16.5,0.9-17.5,0.8c0.4-10.3,0.6-6-0.8-16.2c1.5-0.6,24-2.4,26.9-2.2c1.4,4.2-0.4,3.2,11.1,3.2l0,0.4l-11.7,3
	C281.6,268.6,281.7,272.5,281.1,276.5z M280.1,291.5c0.2,1.4,0.2,2.6,0,3.9c-0.1,0.7-0.8,0.8-3.8,0.9c-6.9,0.2-23.9,2.1-25.5,2.9
	c0.2,0.1,0.3,0.2,0.5,0.3c17.3,2.7,10.2,2.2,26,3c4.5,0.2,3-0.6,3,15.1c0,2.7-4,5.4-4.1,2.7c-0.1-1.8,0.1-5.7-0.1-7.2
	c-0.6-6-10-4.8-9.4,1.1c0.2,1.9,0,3.9,0,5.9c-0.1,2-4.1,3.2-4.1,0.4c0-2.1-0.2-4.1-0.1-6.2c0.4-6.1-10-6.4-9.5,0.2
	c0.4,6.5,0.9,8.2-2.4,7.1c-1.3-0.4-1.8-1.5-1.9-2.7c-0.9-11.2-0.6-24.9-0.5-25.6C268.3,292.5,259.9,292.9,280.1,291.5z M332.4,325.7
	c-0.6,1.2-2.1,1.1-2.3-0.3c-0.1-0.5-0.6-5.7-0.7-7.5c-0.1-5.3-9.2-5.8-9.2,0.2c0,2.8,0.2,1.5,0.2,9.5c-1.5-1.1-2-1-3.2-21.5
	c17.9-1.8,25.9-1.6,23.4-7.7c-7.9,0.2-15.7,1.8-23.9,1.8l-1.3-13.8l22.5-5.9c3.5,12.4,6.6,25.1,7.3,40.8c0.1,2-0.7,2.9-2.9,3.4
	c-0.7-3-0.2-4.8-1.1-8.4c-0.9-3.6-5.3-4.9-8.6-1.6C331,316.2,333.5,323.5,332.4,325.7z M336.5,257.1c-13,5.8-5.7,0.9-8.7,12.1
	c-0.9,3.3-1.9,2.9-16.6,5.5c-3.8,0.7-5.9,0.7-6.4,0.7c1.7-9,1.5-7.9-0.4-17.1c23.1-4.8,22.2-5.4,23.3-3.2c1.7,3.3,3.5,2.2,9.7,1.2
	C337,256.8,336.8,257,336.5,257.1z M360.6,252.6c-1,6.3-3,7.1-8.9,10c0-8.1,1.2-3.1-2.2-14.4c0.3-0.2,0.6-0.5,1-0.6
	c5.3-2,5.9-2.4,6.5-1.4C360.8,251.9,360.7,252,360.6,252.6z M280.6,11.6c3.2,1.6,2.5,4.9,0.7,5.6c-2.1-1.9-4.4-1.9-6.8-0.8
	C272.5,14.6,275.9,9.3,280.6,11.6z M259.3,23.3c1.2-2.2,4.1-3.2,6.4-2.1c4.1,1.8,1.2,7.5-3.3,7.5C259.5,28.7,257.9,25.9,259.3,23.3z
	 M243.9,9.9c2,0.7,3.9,2.8,1.7,5.2c-5.6-1.8-3.8-0.6-6.1,2.6c-1.1,1.4-2.6,1.4-3.5-0.2C233.6,13.4,238.9,8.1,243.9,9.9z M243.4,35.4
	c-2.8,0.2-4.3,1.7-5.7,3.4c-1.4-2.2-0.6-7.1,2.9-8.7C246.5,27.3,249.2,35.1,243.4,35.4z M219.2,68.5c23.5-10.6,54.4-7.1,64.6,2.1
	c-5.9-0.7-26.6-3.9-43.1-0.9c-2.3,0.4-3,0.7-2.5,2.9c0.9,3.8,2.5,2.5,11.8,2.2c12.3-0.5,24.6,1.7,36.7,4
	c17.5,3.3,23.4,11.4,23.3,11.8c-11.8-2.7-22.8-5.6-44.6-6.1c-8.2-0.2-26.7,1.4-28.1,2.9c6.2,1,39.5,1.5,67.7,9.3
	c16.7,4.7,12.6,1.4,17.6,10c-3.8,1-74.4-26.9-147.4,1.1C177.9,99.9,197.7,78.1,219.2,68.5z M150.3,133c2.2-14.2,49.4-22.8,63.5-25.1
	c40.3-6.4,71.9-0.5,111.2,11.3c25.8,7.7,26.3,11.2,26.5,21.3c0.1,5.9,0.9,10.7-4.3,11.2c-1.7,0.2-4.5-1.2-3.7-3.3
	c1.5-4.1,1.2-8.4,0.7-12.6c-0.4-3.2-3.5-5.3-6.7-4.9c-6.1,0.8,0.7,12.4-4.2,15c-2.2,1.2-7-0.3-6.4-3.4c0.7-3.7,0.5-7.4,0.5-11.1
	c0-6.6-8.7-8.3-9.4-2.8c-0.7,5.2,2,13.1-3.9,12.9c-1.1,0-2.3-0.5-3.3-1c-3.5-1.9,5.3-20.8-7.6-19.9c-6.1,0.4,2.3,19.7-8.6,16.5
	c-2.5-0.7-2.9-1.3-2.9-3.9c0-3.8-0.1-7.5,0.1-11.3c0.4-5.8-9-7.2-9.3-1.9c-0.5,7.8,1.6,14.6-4,15c-8.1,0.6-3.1-9.9-5.2-17.3
	c-0.8-2.7-3.7-3.7-6.4-3c-3.8,0.9-2,3.7-2.9,14.8c-0.3,3.8-4.4,4.9-7.1,3.6c-3.4-1.6-2.3-3.1-2.5-13.9c0-0.7-0.1-3.2-0.9-4.1
	c-2-2.5-8.6-2.7-8.7,3c-0.1,11.2,0.1,0.5-0.1,11.7c-0.1,2.9-3.5,3.8-6,3.5c-8.8-1,0.3-17.7-7.7-18.9c-3.7-0.6-5.7,1.8-5.8,3.8
	c-0.6,12.3,1.6,16.4-5.2,16.7c-6.1,0.2-3.8-8.2-4.8-15.6c-0.5-3.7-8.7-4.2-8.8,2.3c-0.1,12.8,0.8,13.9-2,14.9
	c-12.3,4-3.1-16.4-10-15.3c-0.3,0-0.5,0.4-0.9,0.7c-3-1.1-4.4,1.6-4.5,4.8c-0.2,12.9,1.6,13.2-4.2,14.3c-5.7,1.1-3.7-7.7-4.5-13.2
	c-0.4-3.1-4.2-1.9-7-0.6c-2.1,0.9-1.5,12.3-1.2,14.6c0.3,2-0.5,3-2.5,3.4c-5.9,1.2-4.5-3.7-4.5-10.5h-5.9c-1.6,7.5-0.9,9.5-0.2,12.4
	c0.8,3.1-8,5.1-8.6-0.2C149.8,142.1,149.6,137.5,150.3,133z M230.6,202.4c-6.3,2.9-8.1,3.7-11.1,6c-3.3,2.6-3.7,8-0.5,10.9
	c1.3,1.2,2.7,2.4,4.2,3.3c11,6.9,19.5,10.6,30.1,6.4c5.1-2,15-6.9,17.4-11.9c4.9-10.5-13.6-12.2-13-17.2
	c6.7-53.3,67.4-51.6,81.7-12.4c6.7,18.4,0.4,38.9-3.1,40.3c-47.6,18.7-118,21.7-178.5,0.1c-3-1.1-4.6-6.9-5.5-10.4
	c-7.5-28.5,9.6-53.8,31.5-57.7c25.6-4.5,45.1,14.5,47.2,37.1C231.6,201.1,232,201.8,230.6,202.4z M245.5,205.5
	c10,5.3,10,4.7,16.3,8.7c-5.5,3.9-14,8.5-20.5,6.9c-5-1.2-12.7-5.1-15.6-7.3c1.6-1.8,3.5-3,5.4-3.8
	C243.9,204.5,244.3,204.8,245.5,205.5z M148.7,231.1c108.1,39.9,187.9-1.3,192.8,4c2.5,2.7,4.9-0.3,15.4-3.9c1.7,1.4,1.9,2.5,1,4.3
	c-1.6,3.3-6.9,4.9-11.1,6.2c-2.7-6.5-0.4-6-14.2-2.1c-1.2,0.3-4.8,1.4-7.1,2.2c0.6,4.4,1.1,5-1.5,5.8c-5.6,1.7-14.9,3.9-19.9,4.2
	c-2.6-5.6-1.8-5.3-21-1.9c-0.6,0.1-1.1,0.3-1.8,0.5l0.3,3.9c0.1,1.2-24.3,2.4-24.5,2.3c-1.3-0.2-1.2-0.6-1.7-1.8
	c-1.4-3.7-2.8-2.8-18.4-2.8c-3.6,0-3.8,1.2-4.2,4.5c-6.9,0.5-18.6-1.3-18.7-1.3c-1.5-0.1-1.1-1.4-1.3-2.8c-0.3-2.4,0.6-2.6-17.4-4.6
	c-2.7-0.3-3.3,2-2.3,4.3c-16.4-2.5-15.3-2.7-15.6-4.9c-0.6-4.1-0.7-3.8-12.2-6.4c-5.3-1.2-7.7-0.8-5.4,4c-8.9-3.1-13.7-4.7-15.6-8.9
	C143.5,233.4,145.7,230,148.7,231.1z M146.5,247.3c0.8-0.8,1.3-0.5,3.1,0.1c9.7,3.5,8.4,3,9.7,3.6c-0.8,3.5-1.9,3.1,11.9,7.1
	c2.6,0.8,2.4,0,3.8-3.1c1.1,0.2,2.2,0.3,3.3,0.5c14.1,2.8,14.4,2.5,14.5,4c0.1,2.9,0.3,2.9,2.1,3.3c1.6,0.4,12.8,3,15.8,3.5l1.5-4.6
	c22.2,2.3,21.1,0,22,3.6c0.8,3.3,1.8,1.9,9.5,3.2l0,0.4c-12.3,1.5-8.8-2.2-10.4,8.9c-0.5,3.2,0.2,2.5-18.2,1.4
	c-2.7-0.2-2.6-0.7-2.7-2.6c-0.1-8.6,0.6-8.4-1.4-8.9c-1-0.2-11.5-1.8-16.3-2.5c-4.8-0.8-4.4,5.7-3.7,10.6c-17.8-2.8-16.8-3-17.2-7.2
	c-0.6-6.5,0.7-6.9-1.4-7.5c-15.2-4.3-14.5-4.6-15.5-2.6c-1.2,2.5-0.9,5.7-0.4,8.6C153.4,268.8,136.9,257.1,146.5,247.3z
	 M107.8,469.1c-0.7,0-1.5,0.1-1.9-0.8c1-1.5,1.8-1.8,22-0.3c0.7,0.1,1.4,0.2,2.1,0.3l0,0.3C121.5,469.6,119.7,469.5,107.8,469.1z
	 M135.1,455.2c0.1,0-33.6,0.2-35.7,0l-0.4-4.1c0.1,0,24.4-0.5,33.7,0.6c2.8,0.3,3.6,2.1,4.4,3.2C136.1,455,135.6,455.2,135.1,455.2z
	 M163.2,469.3l0-0.2h1.3l0,0.2H163.2z M143.7,444.9c-2.3-2.5-1.9-3.3-4.2-3.3c-0.3,0-38.9-0.1-42.3-0.2l-0.3-4.1
	c0.1,0,30.5-2.7,41.9-2.7l2.2-6.8c-5.4-1.7-42-1.7-44.3-1.7v-7c5-0.7,41,2.1,50.3,0c-11.1-6.3-49-7.3-50.1-7.5
	c0-2.8,0.2-5.6,0.6-8.4c6.1-0.2,27.8,0,30.3-1.6c-10.5-2.6-15.6-2.5-30-3.3l1.3-8.1c10.4-0.9,12.4-0.3,16.2-3.3
	c-3.7-2-4.3-2-14.7-3.2c0.2-3.3,1.7-8.8,5-8.9c13.1-0.6,0-0.2,34.1-0.4c2.7,0,1.7,2.5,10,11.2c5.8,6.2,5.7,5.4,6,6
	c-7.3,0.8-14.4,2.1-21.3,4.4c4.4,0.6,16.3,1.3,28.6,2.8c1.4,0.2,5.8,3.2,6.9,3.9c-22.5,2.6-17.1,1.5-37.8,6.1l0,0.3
	c29.9,1.1,34.2-1.2,56.8,3.1c40.9,7.7,57,6.8,98.5,4.5c11.9-0.6,20.2-4.3,35.1-5.6c26.4-2.4,20.3-2,34.9-4.1
	c0.6-0.1,2.8,0.3,3.3-0.2c3.1-3.4,36.9-4.3,41.5-4.3l0.8,8.7c-80.1,7-46.2,1.5-129.5,7.4c-47.8,3.4-81.6-6.8-108.2-0.3
	c0.9,0.7,2,1,3.1,1.3c51.2,14.1,139.9,4.2,143.3,5.4c-17.3,4.6-34.8,7.5-52.5,10.4c2.3,1.4,21,7.1,36.7,7.3
	c-0.1,0,30.9,0.4,32.7,0.6c-0.8,0.8-13.6,2.1-14.4,2.2c-13.2,1.4-28,0.6-41.1,0c-6.7-0.3-8.2-4-16.7-4c-6.9,0-84.9,0.4-86.2,0.4
	c-0.3,0.4-0.9,1-1.3,1.7C163.9,451.1,151.1,453.1,143.7,444.9z M283.6,468c-5.5,2-7.5,1.5-107.8,1.4c-2,0-4,0.1-5.9-1.2
	c6-1.1,111.3-1.4,113.8-0.6V468z M394.7,469.7c0.1,0-70.4,0.4-73.2-0.5c0.3-0.8,1-0.9,1.6-0.9c2.5-0.2,4.9-0.5,7.4-0.5
	c-4.3,0,63.4-0.3,66.1,0C396.4,469.5,396.2,469.7,394.7,469.7z M399.2,458.8c-138.4,3.5-53.9-3.7-225.9-3.7l-0.2-0.5
	c1.4-1.2,2.7-2.4,4.1-3.4c1.4-1.1,97,1.4,97.1,1.4c41.7-0.1,0.5,3.7,125.8,3.7L399.2,458.8z M402,445c-27.2,1.5-6.8,5.4-50.2,1.2
	l0-0.3c32.7-8.7,28.3-2.6,49.6-3c0.2,0,0.3,0,0.7,0.1L402,445z M403.5,425.5c-4.9,0.6-38.3-0.4-52.6,3.9
	c-14.4,4.3-13.5,7.9-37.5,5.5c-0.3,0-0.6-0.1-1.1-0.2c27.3-7.2,27-11.9,43.9-13.2c3-0.2,43.2-2.8,47.3-2.8V425.5z M94.8,190.4
	c1.7-0.3,3.1-2.7,5.6-1.8c2.6,0.9,3.4,4.1,1.4,6.1c-1.3,1.3-4.1,2.2-5.1,2.6c0.7,0.3,1.1,0.5,1.6,0.7c6.1,2.8,3.3,8,0.3,8.1
	c-0.8,0-1.3-0.3-5.8-3c0.2,1.6,0.4,3.1,0.6,4.5c0.5,5.4-7.3,6-7.6,1c-0.1-1.1,0-1.8,0.7-6.7c-0.4,0.3-3.7,2.5-6.3,3.5
	c-3.1,1.2-5.1-2.3-3.9-4.8c0.9-1.8,2.5-2.5,4.1-3.3c-2.1-0.9-2.7-1-3.6-1.6c-3.3-2-1.5-6.8,1.6-6.8c1.9,0,3.6,1.9,5.7,3l0.2-0.2
	c-1.7-2.6-2.1-2.9-2.6-3.9c-2.2-4.1,3-7.1,5.6-3.7c0.6,0.8,1,1.6,1.7,2.6c1.1-3.2,1.4-5.5,4.4-4.6C97.7,183.7,95.7,187.5,94.8,190.4
	z M401.9,153.2c0.8,0.6,1.3,1.3,3.4,3.5l0.3-0.1c0.1-4.5,0-4.7,0.2-5.9c0.7-4.5,7.1-3.5,7.2,0.5c0,1.7-0.2,2.7-0.5,6.1
	c3-2,6.8-5.3,8.6-0.2c1,2.9-1.5,4.2-5.5,6.1c3.1,2,3.6,2.2,4.4,2.9c3.4,3-0.7,8.1-3.2,6.4c-4.2-2.9-3.5-2.7-4-3.5l-0.5,0.3
	c0,4.6,1.2,9.3-3.3,9.5c-5.6,0.2-3.2-7.9-3.8-9.6c-0.3,0.3-0.5,0.7-0.8,1c-5.2,7.8-9.5,0.9-6.7-3.5c-3.1-0.5-4-1.4-4-3.5
	c0-2.4,1.1-3.3,4.7-3.7c-0.3-0.5-0.6-0.9-0.9-1.2C395.4,155.3,398.8,150.8,401.9,153.2z M414.3,222.9c4.1-2.2,5.6-5.5,8.5-3.5
	c2,1.4,2.6,4.4,0.2,5.8c-1,0.6-4.8,2.8-6.8,3.8c2.3,0.9,5,1.8,7.3,3.7c2.2,1.8,0.7,4.6-1.7,6c-1.6,0.9-6-2.8-7.4-3.9
	c-0.3,3.7,0.6,10.1-3,10.6c-5,0.7-4-5.4-4.2-10.5c-2.8,2.3-3.6,3.4-6.2,3.8c-2.9,0.5-5.5-4.3-1.9-6.5c1.2-0.7,4.4-2.3,6.6-3.1
	c-2.3-1.2-4.6-1.8-6.8-3.7c-3.3-2.7-0.5-6.7,2.5-6.1c2.2,0.5,4,2,5.8,3.5c0.3-2,0.5-3.8,0-5.6c-0.4-1.6,0.7-3.5,2.3-4.2
	c2.8-1.3,5.6,1.3,5.2,4.5C414.5,219.2,414.4,220.9,414.3,222.9z M72.4,252.6c2.2-3.8,5.8-0.6,9.1,2.2c0-5.5-0.3-6.1,0-7.5
	c0.9-4.3,6.5-3.6,7,0.3c0,0.3,0,7.1,0,7.2c3.4-2.5,6.6-6.1,9.3-3.1c0.6,0.6,0.6,0.9,0.2,1.9c3.3,1.8-4.1,5.2-7.7,6.8
	c1.5,0.7,9.2,4,8.3,5.4c-0.7,1.2-0.4,2.8-1.6,3.7c-2,1.5-2.7,1.1-8.7-3.1c0.1,1.9,0.1,3.5,0.3,5c0.7,4.5-3.1,6.5-5.6,4.6
	c-2.2-1.7-1.7-3.9-1.4-9.3c-1,0.2-1.6,0.9-2.2,1.5c-2.2,2.1-5.7,3.1-7.2,0.2c-2.1-4.1,3.5-6,7.6-7.7
	C72.5,256.9,70.6,255.8,72.4,252.6z M72.3,131.5c1.8-1.9,3.8-2.7,7.2-3.7c-4.6-2.4-9.9-4.4-6.8-8.4c2.3-3,6.1,0.3,8.6,2.3
	c0-3.8,0-1.8-0.2-6.3c-0.2-4.7,6.8-5.2,7.1-0.2c0.1,0.8-0.1,0-0.1,6.4c4.9-3.1,4.4-4.9,8.9-2.2c-0.4,1.1-0.2,1.9,1,2.5
	c-2,3-5,4.3-8.3,5.7c6.5,2.3,5.5,1.6,8.3,5.3c-0.7,1.5-1.8,2.6-2.9,3.6c-1.6,1.5-2.4,0.2-7-2.5c0,6.8,1.1,7.5-2.8,9.4
	c-1.6,0.8-3.9-0.9-4-2.4c-0.1-2.1-0.1-5.5-0.1-7.7c-3.1,2.3-3.5,2.9-6.1,3.5C72.7,137.4,70.8,133.1,72.3,131.5z M127.1,69.6l0.1-0.3
	c-2.6-1.8-3.1-2-4-2.7c-3.9-3.5,2.4-10.1,7.4-2.4c0.3-4-0.2-7.7,3.7-7.7c4.3,0,3.6,4.3,3.2,8.8c1.3-1.3,2.7-1.9,4.2-1.9
	c4-0.1,4.5,4.9,1.9,6c-2.3,1-4.6,1.4-5.2,1.6c2,1.1,3.7,1.9,5.7,3.6c2.9,2.4-1.4,7.5-4.8,4.9c-1-0.8-2-1.7-2.9-2.5
	c-0.1,1.3-0.2,2.9-0.4,4.4c-0.4,2.4-3.2,3.5-5.3,2.2c-2.8-1.9-1.9-3.2-1.6-6.7c-3.6,1.7-4,2.1-4.8,1.5c-3-2.2-2.9-2.4-1.6-6.3
	C123.3,69.9,124.7,70,127.1,69.6z M362.6,73.5c-3.2-2.7,1.2-6.9,4-4.3c0.3,0.3,0.6,0.7,1,1.2c0.2-2.9-0.1-5.8,2.8-5.9
	c3.1-0.1,3,2.9,3.2,5.8c0.6-0.5,0.9-0.9,1.3-1.3c1.9-1.9,4.7-0.6,4.8,1.7c0.1,2.6-2.1,3.1-3.6,3.7c2.1,1.1,4.1,1.8,3.5,4.2
	c-0.6,2.5-3.3,4.2-6.1,0.6c0,1,0,1.8,0,2.5c-0.3,4-5.1,4.1-5.6,0.7c-0.2-1,0-2.1,0-3.6c-0.5,0.7-0.8,1.1-1.2,1.4
	c-2.6,3.1-6.6-0.9-4.4-3.6c0.5-0.7,1.3-1.2,1.9-1.8C363.7,74.3,363.1,73.9,362.6,73.5z M389.5,111.2c0-8.2,12.3-7.7,12,0.1
	C401.3,119.4,389.6,119.3,389.5,111.2z M175.5,32.5c8.3,0.4,6.6,12.1-0.4,11.7C167.4,43.8,168.2,32.2,175.5,32.5z M420.3,283.3
	c0,3.2-2.7,6.1-5.7,6.1c-3,0-5.7-2.8-5.7-5.9C408.9,276,420.3,276.1,420.3,283.3z M71.2,329.5c0.1-7.3,10.7-6.7,10.6-0.1
	c-0.1,2.9-2.7,5.7-5.3,5.7C73.6,335.1,71.2,332.6,71.2,329.5z M113.1,150.5c2.6,0,4.9,2.3,4.9,4.8c0,2.7-2.4,5.2-4.9,5.1
	C107.1,160.3,106.4,150.4,113.1,150.5z M334,43.1c0-6.2,8.5-5.1,8.6-0.2c0,2.3-2.1,4.4-4.4,4.5C336.5,47.4,334,45.8,334,43.1z
	 M291.4,209.3c0.5-14.5,20.8-13.8,20.8,0.9c0,5.1-5.2,9.8-10.8,9.8C296.1,219.9,291.2,214.8,291.4,209.3z M196.6,205.3
	c0.5,1.2,0.7,2.6,1,3.8c-0.3,10.2-14.2,15.8-19.8,4.6c-2.8-5.6,0.5-14.6,9.1-15C190.3,198.6,194.8,200.8,196.6,205.3z M317.6,219.3
	c6.3,0.1,6.6,9.3-0.3,9.3C311.2,228.6,311.1,219.3,317.6,219.3z M173.2,228.8c-5.8,0-6.4-9.4,0-9.2
	C179.3,219.8,180.1,228.8,173.2,228.8z M146.1,434c0.1,6.3,5.1,9.7,9.5,9.8c5.2,0.1,10.1-4.6,10-9.5
	C165.2,420.4,145.8,420.8,146.1,434z M155.6,436.6c-3.8-0.1-3.6-6,0.3-6C159.8,430.6,159.4,436.7,155.6,436.6z M172.1,434.8
	c-0.3-2.2-0.3-4.3-1.7-6.4c12-0.6,54.5,1.6,60.3,2.7l0,0.4c-2.9,0.7-5,0.6-20.7,2.2c-4,0.4-1.9-0.5-18.8,0.1
	C182.1,434.2,175.5,434.8,172.1,434.8z M126.9,390.9c0.1,3.3-5.5,3.3-5.5,0C121.3,387.1,126.8,388,126.9,390.9z M231.2,71l1.5,5.4
	c-18.7,2.9-16.4,4-18.3-1.3C217.2,72.9,227.2,70.6,231.2,71z"/>
</svg>
