<?xml version="1.0" encoding="utf-8"?>
<!-- Generator: Adobe Illustrator 22.1.0, SVG Export Plug-In . SVG Version: 6.00 Build 0)  -->
<svg version="1.1" id="Layer_1" xmlns="http://www.w3.org/2000/svg" xmlns:xlink="http://www.w3.org/1999/xlink" x="0px" y="0px"
	 viewBox="0 0 500 500" style="enable-background:new 0 0 500 500;" xml:space="preserve">
<style type="text/css">
	.st0{fill:#5A3B00;}
</style>
<g>
	<path class="st0" d="M133.8,297c-0.7-0.2-1.7-0.7-2.2-0.5c-3.7,2.7-7.6,5.4-11,8.5c-6.8,6.3-14.4,8.8-23.4,6.3
		c-1-0.2-2-0.2-2.9-0.5c-0.2,0-0.5,0.2-1.2,0.5c0,1.7-0.2,3.7-0.2,5.9c1,14.6,1.7,29.3,2.9,43.9c1,10,2.9,19.7,6.8,29.3
		c1.2,2.9,2.2,5.9,3.2,8.5c-1.7,4.1-5.4,5.1-8.5,6.1c-3.2,1-6.6,1.2-9.8-0.2c-6.3-2.9-11.5-7.1-13.7-13.9c-1.2-3.9-2.7-7.8-3.7-11.7
		c-2-7.3-3.9-14.4-5.6-21.7c-1-3.7-1.5-7.6-1.7-11.5c-1-10.7-2-21.5-2.2-32.4c-0.5-13.2-0.5-26.3-0.2-39.5c0.2-8,2.4-15.8,3.4-23.7
		c0.2-2.4,2-4.1,4.1-5.4c2.2-1.2,4.6-2.2,7.1-3.2c3.7-1.5,7.3-2.7,10.7-3.9c1.5-0.5,2.9-1,4.4-1.2c4.4-0.2,7.3,2.7,7.1,7.1
		c-0.2,5.6-1,11.2-1.5,16.8c0,1.5,0,2.7,0.2,4.4c2.2-0.2,2.2-1.7,2.9-2.9c1.2-2.2,2.4-4.6,3.7-6.8c4.9-9.3,13.2-14.1,22.4-17.8
		c3.2-1.2,6.6-1.2,10-0.5c5.1,1.2,8.3,4.9,9.5,10.2c2,8.3,0.7,16.3-1.2,24.4c-1,3.7-2,7.3-3.4,12.4c2.2-1.5,3.2-2.2,3.9-2.9
		c3.7-3.9,8.3-6.1,13.7-5.6c1.7,0,3.7-0.2,5.4-0.5c7.8-1,12.9,2.4,14.9,9.8c2.7,10.7-2.2,23.2-11.5,29c-1.7,1-3.7,1.7-5.6,2.2
		s-4.1,0.5-6.6,0.5c-0.5,1.5-1.2,2.7-1.5,4.1c-0.7,7.8-0.5,15.4,1,23.2c1,5.1,3.4,9,7.8,11.9c3.9,2.7,8,2.2,11-1.2
		c0.7-1,1.5-2.2,2-3.4c3.7-8.3,6.8-16.6,9-25.4c2.2-9.3,3.2-18.8,2.9-28.3c0-3.4,0.7-6.6,1-10c0.2-1.2,0.5-2.7,0.5-3.9
		c-0.5-7.8,1.2-15.4,1.7-23.2c0.5-5.9,2-11.7,3.9-17.3c2.2-6.3,6.1-10.5,13.2-11.5c2.2-0.2,4.4-1.5,6.6-1.7c2-0.2,4.1,0,6.1,0.5
		c2.7,0.7,3.9,3.2,3.2,6.1c-0.7,3.4-1.7,7.1-2.7,10.5c-0.7,2.7-1.5,5.4-0.7,8.8c2.2-1.5,3.7-2.7,5.4-3.7c4.9-3.2,10.2-5.9,16.1-7.1
		c6.3-1.2,11.5,1.2,14.4,6.6c1.2,2.2,0.5,4.1-1.7,5.1c-2.2,1-4.4,1.5-6.6,0.2c-2.2-1.2-4.6-2.2-7.3-3.4c-0.7,0.2-1.7,0.7-2.2,1.5
		c-7.3,7.8-13.7,16.1-19.5,24.9c-2.4,3.7-4.1,7.8-4.1,12.2c0.2,12.7-0.5,25.4,2,37.8c0.5,2.4,1.2,5.1,1.5,7.6
		c0.7,4.6,3.4,7.8,6.6,11.5c-1.2,1.2-2.2,2.7-3.4,3.2c-9,2.9-18,4.1-26.3-2.7c-0.5-0.5-1.2-0.7-2.4-1.5c-0.7,1-1.7,1.7-2.2,2.9
		c-7.3,13.9-25.8,17.6-38.3,11.9c-7.1-3.2-12.7-7.6-17.6-13.4c-2.4-2.9-4.1-6.1-4.1-9.8c-1-14.1-0.2-28.3,4.4-41.9
		C133.1,297.8,133.5,297.3,133.8,297c0-0.5,0-1-0.2-1.2l-0.5-0.5v0.7C133.3,296.3,133.5,296.5,133.8,297z M96.2,300
		c3.9,2.7,4.9,2.7,6.8,0.7c3.9-3.7,7.3-8,9.3-13.2c2.4-7.1,4.9-14.1,6.8-21.2c1-3.4,0.7-7.1,1-10.7c0-1.2-1-2.2-1.5-3.9
		c-1.5,1-2.7,1.5-3.4,2.4C105.7,267.8,99.4,282.9,96.2,300z M161.1,285.3c-4.4,7.3-7.1,14.1-7.8,21.7c0,0.2,0,0.5,0,0.7
		c0.2,0.7,0.7,1.7,1.2,1.7c1,0.2,2.2,0.2,2.7-0.2c3.2-2.9,4.6-6.6,5.6-10.7C163.8,294.4,164,290.2,161.1,285.3z"/>
	<path class="st0" d="M267.2,328.2c3.9-2.2,12.4-8.5,13.9-11c1-1.5,1.7-3.2,2-4.9c1.7-8,6.8-13.2,13.2-17.3c1.2-0.7,2.9-1.2,4.4-1.5
		c2.7-0.5,5.6-0.2,8.5-1c6.8-1.7,13.2,0.7,19.5,2.7c3.7,1.2,5.6,3.7,6.6,7.1c3.9,13.9,4.6,27.8,2,41.9c-1.2,6.1-4.1,11.7-6.6,17.3
		c0,0.2-0.2,0.5-0.5,0.7c-4.6,7.3-20.7,11.5-28.5,7.6c-2.7-1.5-5.4-2.9-8-4.6c-5.1-3.4-8.5-8-10-14.1c-1.2-5.1-2.4-10-2.7-15.1
		c0-1.5-0.2-2.9-0.5-4.6c-3.2,0-4.4,2.2-6.1,3.7c-1,0.7-2,2-2.2,2.9c-0.2,2-0.2,4.1,0.5,6.1c1.5,5.4,3.4,10.7,4.9,16.3
		c2,6.6,4.4,13.2,4.6,20.2c0.2,13.2-1.7,26.1-11,36.1c-8.5,9.3-17.6,11.9-30.7,8c-1-0.2-2-0.7-2.9-1c-4.9-1.5-7.6-4.9-9-9.8
		c-2-6.6-2-13.2-1-20c2-12.7,5.4-25.1,13.2-35.8c2.7-3.7,2-7.1,0.7-11c-3.7-9.8-6.8-19.3-10.5-29c-2-5.1-2.4-10.5-2.9-15.8
		c-0.7-7.8,2-14.1,6.1-20.2c2.9-3.9,6.8-6.1,11.5-7.3c3.4-1,7.1-1.7,10.5-2.7c13.2-3.2,20.7,4.6,23.7,14.1c1,2.9-0.2,5.1-3.2,6.1
		c-4.4,1.2-8,0.7-11.2-2.9c-1.7-2.2-3.4-4.6-5.1-6.6c-2.9-3.7-8-2.9-9.8,1.5c-0.7,2-1.2,4.6-1,6.8c0.5,5.6,2.2,11.2,4.9,16.1
		c3.7,6.6,7.3,12.9,11,19.5C265.9,327.3,266.7,327.8,267.2,328.2z M314.2,360.7c4.1-4.9,5.6-8,7.1-14.4c2.9-13.9,1-27.6-2.9-41
		c-0.2-0.7-0.7-1.2-1.2-2c-0.7-1-2.7-1-3.2,0c-0.2,0.7-0.7,1.5-0.7,2.2c-3.7,13.4-4.4,27.3-5.4,41.2
		C307.4,352.1,309.6,357.3,314.2,360.7z M248.9,370.9c-0.2,0-0.7,0-0.7,0.2c-0.2,0.2-0.7,0.7-1,1.2c-4.6,11-6.6,22.7-5.9,34.4
		c0.2,2.7,1.5,5.4,2.9,7.8c1.7,2.7,4.1,4.9,7.6,3.9c3.4-1,4.1-4.4,4.1-7.6c0.5-12.2-1-23.9-4.6-35.6
		C250.8,373.6,250.8,371.6,248.9,370.9z"/>
	<path class="st0" d="M409.1,349.5c1-0.7,1.5-1,1.5-1c1.5-16.8,2.4-33.9,1.5-51c-0.5-9.3,0-18.5,0-27.8c0-8.3,0.2-16.6,0-24.6
		c-0.2-11.9,1.7-23.7,4.1-35.1c0.2-1.5,1-2.9,1.7-4.4c0.5-0.7,1.2-1.7,2.2-2c5.9-2.4,11.7-1.5,17.1,1c3.2,1.5,3.9,4.9,3.9,7.8
		c0,5.4,0,11-1,16.1c-1.2,7.3-2.2,14.6-2.2,22.2c0,10.5-1.2,21-2,31.5c-1.2,18.8-1.5,37.5-2.2,56.3c-0.2,4.4-0.2,8.8-0.2,13.2
		c0,2.4,0.5,5.1,0.5,7.6c0.2,3.2,0.2,6.1,0,9.3c-0.2,2.4-1.7,4.1-3.9,3.9c-8.8-0.2-17.3-2-24.9-6.6c-1.5-1-2.4-2.7-3.7-3.9
		c-6.1-7.8-11.2-16.1-15.1-25.1c-4.1-9.5-8-19-12.2-28.3c-0.7-1.7-1.5-3.2-2.2-4.6c-2,0-1.7,1.5-1.7,2.2c0.5,14.6-0.5,29.3,2.9,43.9
		c0.2,1.5,0,2.9-0.2,4.6c-0.2,2.2-1,4.4-1.5,7.1c-2.2,1.7-4.9,2.2-7.8,2c-3.9-0.5-7.8-0.2-11.2-2.7c-3.2-2.4-5.9-5.1-6.1-9.3
		c-0.5-6.8-1-13.9-1.5-20.7c-0.2-4.9-0.5-9.8-0.7-14.6c0-2-0.2-4.1-0.2-6.1c0-5.1,0-10.2,0.5-15.4c0.2-4.9,0.7-9.8,1.7-14.6
		c1.2-7.1,6.3-10.7,12.4-10c1.2,0.2,2.7-0.2,3.9,0c1.7,0.2,3.9,0,5.1,1c4.4,3.7,10.2,5.9,12.9,11.7c1.2,2.7,2.2,5.1,3.2,7.8
		c4.9,13.2,9.8,26.6,14.9,39.7C401.7,336.8,405.4,342.9,409.1,349.5z"/>
	<path class="st0" d="M350.1,190c-8.3,7.3-11.7,17.1-13.2,27.8c-0.7,5.1-2,10.5,0.2,16.3c5.9-6.3,9.5-12.9,11.9-20.2
		c3.2-9.5,4.9-19.5,6.3-29.5c1.7-12.2,3.2-24.6,3.4-36.8c0-3.9,0.5-7.6,1-12.4c-1.7,1-2.9,1.5-3.7,2.2c-3.7,4.4-7.3,8.5-10.7,12.9
		c-2.2,2.7-4.4,5.9-6.6,8.5c-4.4,5.1-10.5,7.3-17.1,8.3c-1.5,0.2-3.2,0-4.6-0.2c-5.6-1.5-10.5-4.4-14.4-8.5c-1-1-2-2.4-2.7-3.9
		c-2-5.4-3.4-10.7-2.9-16.6c1.7-16.6,6.8-32.2,14.1-47.1c2-3.9,4.4-6.8,7.8-9.5c10-7.8,23.2-4.4,27.8,7.6c2.9,7.3,2.7,15.1,2,22.9
		c-0.2,4.4-5.9,6.6-9.8,4.1c-0.7-0.5-1.5-1.5-1.7-2.4c-0.2-1.2-0.2-2.4-0.5-3.9c-0.2-1-0.5-2-0.7-3.7c-1.2,1.5-2,2.2-2.2,2.9
		c-2,5.6-3.7,11.2-5.4,16.8c-2.7,8.3-3.2,16.6-2.7,25.1c0,1,0.5,1.7,1,3.2c1.2-0.7,2.2-1,2.9-1.5c1.2-1,2.2-2.2,2.9-3.4
		c5.4-9,13.2-15.8,19.5-23.9c3.9-4.9,8.8-6.1,14.4-5.4c3.9,0.5,7.6,1,11.5,1.2c4.9,0.5,8,3.2,9.5,7.8c1.2,3.4,1.7,7.1,1.5,10.7
		c-2,15.6-3.7,31.2-6.1,46.6c-1.2,8-3.9,16.1-6.3,23.9c-2,7.1-6.1,12.9-10.2,19c-4.4,6.6-11,10.7-16.3,16.3c-1.2,1.2-3.7,2-5.6,2.2
		c-7.8,1-14.1-2.4-19.3-7.8c-1.2-1.5-2-3.7-2.2-5.6c-0.2-11.2,0.2-22.2,6.1-32.2c2-3.7,3.7-7.6,6.1-10.7c3.4-4.9,7.6-5.6,13.4-2.9
		C349.6,188.5,349.8,189.3,350.1,190z"/>
	<path class="st0" d="M146.5,93.2c6.3-0.7,11.9,2.4,17.6,5.4c2.4,1.2,3.7,3.4,4.9,5.9c4.6,9.5,6.6,19,4.6,30
		c-2.9,16.6-7.3,32.7-15.8,47.3c-7.1,12.2-17.6,20.7-31,25.1c-0.7,0.2-1.5,0.5-2.2,0.7c-9,2.2-15.1-0.2-18.8-9
		c-4.1-10-7.3-20.2-8-31.2c-0.5-9.5-1.5-19-2-28.5c-0.5-9.8-0.2-19.5,1.5-29.3c0.7-3.9,2.7-6.1,6.3-6.8c2.9-0.5,6.1-1.5,9-1.5
		c5.4-0.2,10-1.7,14.9-3.9C133.3,94.7,139.4,93,146.5,93.2z M143.8,100.8c-6.6-0.2-11.7,3.2-17.1,5.9c-0.5,5.1-1.2,10-1.2,14.9
		c-0.2,13.4,0,26.6,0,40c0,0.7,0,1.5,0.2,2.2c1,7.8,1.7,15.8,2.7,23.7c0,1,0.7,1.7,1.2,2.7c1-0.7,2-1,2.2-1.5
		c3.4-3.9,6.1-8.3,8-13.2c2.4-5.9,4.9-11.9,7.1-18c1.5-4.1,2.7-8.3,3.2-12.7c0.7-6.8,0.7-13.9,1.2-20.7
		C151.6,115.6,149.1,107.8,143.8,100.8z"/>
	<path class="st0" d="M206.9,147.6c2.4-0.7,2.9-3.4,4.4-5.1c2.4-2.9,4.4-6.3,7.1-9c10.2-10.5,27.3-9,35.6,2.9
		c2.2,3.4,3.9,7.3,5.6,11c1.7,3.2,3.2,6.3,4.6,9.5l-0.2-0.2c0.2,1.5,0,2.9,1.7,3.4l-0.2-0.2c0.5,1.5,0.7,2.9,1.2,4.4
		c1.2,4.1,2.7,8.3,4.1,12.4c1.5,4.1,1.5,8-0.2,11.9c-2.2,4.9-4.9,9-9.8,11.7c-2.9,1.7-6.3,2.4-9.8,2c-2.2-0.5-4.6-1-6.6-1.7
		c-9-3.4-18.5-4.1-28-2.9c-2,0.2-4.1,0.5-6.1,0.5c-10-0.5-16.1-6.6-17.1-16.6c-0.7-6.8,0.7-13.4,4.6-19c1.7-2.4,3.4-4.6,4.9-6.8
		c0.7-1,1-2.4,1.2-3.4l-0.2,0.2c2.2-0.7,3.4-2.7,3.4-4.9H206.9z"/>
	<path class="st0" d="M238.6,104.7c-1.2,2.7-2.2,5.4-3.4,7.8c-1.7,3.2-2.9,6.6-5.4,9.3c-5.6,6.8-13.7,6.6-19-0.5
		c-4.4-5.9-6.1-12.4-5.4-19.7c1-8,4.4-15.4,10-21.2c2.2-2.4,5.1-4.4,8.3-5.4c6.1-2,10.2,0,12.2,5.9c1,3.2,1.2,6.6,2,9.8
		c0.5,2.4-0.2,5.1,2.2,7.6c1-2.7,1.7-5.1,2.7-7.3c1.2-3.4,2.4-6.8,4.1-10c2.7-4.9,6.8-5.6,11.9-3.2c3.2,1.5,5.6,3.9,7.3,6.6
		c6.6,10.2,7.8,21.2,3.7,32.4c-1.2,3.7-3.4,6.8-6.3,9.5c-5.9,4.9-13.9,4.1-18.3-2c-2.7-3.7-3.7-7.8-4.4-12.2
		C240.6,109.8,241.1,107.1,238.6,104.7z"/>
	<path class="st0" d="M264.2,156.8c0-0.5,0-1,0-1.5c-0.5-5.1-1-10.2-1.5-15.4c3.2-6.6,5.9-13.2,9.3-19.5c2.7-4.9,7.6-5.6,11.5-1.7
		c2.2,2,4.1,4.6,5.4,7.3c3.7,8.3,3.7,16.8,0.5,25.6c-1.5,3.7-3.4,6.8-6.6,9.3c-3.7,2.9-8.8,4.6-14.1,0.5c-1-0.7-2.2-1.2-3.2-1.7
		l0.2,0.2c0.2-1.5,0-2.9-1.7-3.4L264.2,156.8z"/>
	<path class="st0" d="M204,152c-1.5,1-2.9,2-4.4,2.9c-4.4,2.4-8.3,2-12.2-1.2c-3.4-2.9-5.9-6.8-6.6-11c-2.2-11.7,1-21.9,9.3-30.2
		c1-1,2.4-2,3.7-2.7c3.4-1.7,6.6-0.7,8.8,2.4c0.5,0.7,1,1.2,1.2,2c2.9,7.6,4.1,15.4,5.4,23.2c0.2,1.7-0.5,3.4-1,5.4
		c-0.5,1.7-1,3.4-1.2,5.1l0.2-0.2c-2,1-2.9,2.9-3.4,4.9L204,152z"/>
</g>
</svg>
