<?xml version="1.0" encoding="utf-8"?>
<!-- Generator: Adobe Illustrator 25.2.0, SVG Export Plug-In . SVG Version: 6.00 Build 0)  -->
<svg version="1.1" id="Layer_1" xmlns="http://www.w3.org/2000/svg" xmlns:xlink="http://www.w3.org/1999/xlink" x="0px" y="0px"
	 width="234.6px" height="351.7px" viewBox="0 0 234.6 351.7" style="enable-background:new 0 0 234.6 351.7;" xml:space="preserve"
	>
<style type="text/css">
	.st0{display:none;}
	.st1{display:inline;fill:none;stroke:#000000;stroke-miterlimit:10;}
	.st2{display:inline;opacity:0.44;}
	.st3{fill:#231F20;}
</style>
<g id="Layer_2_1_" class="st0">
	<path class="st1" d="M-1024.5-428c-2-24.7-16.7-86.7-62-60.7s-89.3,38.7-91.3,50s6.7,27.3,14.7,40.7c0,0,6.7,14.7,0,28.7
		s7.3,6,12.7,0c3.3,9.3,4,18.7,13.3,26s15.3,10,18,13.3c-6,8.7-13.3,45.3-10,112c-9.3,21.3-37.3,110-17.3,144.7c7.3,14,22,14,26.7,0
		c8,10,28,36,70,26.7c-8.7,20.7-23.3,86.7-34,112.7c58.7,0,421.5,0,421.5,0s-40.8-112-63.5-132s-42-56.7-42-72.7
		s8.7-68.7-22.7-124.7c6.7-18.7,7.3-30.7,11.3-36.7s11.3-28.7,10-38.7c12-11.3,20.7-20,20.7-30s3.3-13.3,6.7-18.7
		c3.3-5.3-2.7-12-3.3-14.7c8-14,26.7-37.3,27.3-44c-4-6.7-99.3-54.7-142-54c-42.7,0.7-49.3,56-52,63.3c-7.3-2-50,0.7-62,9.3
		C-1003.8-424-1024.5-428-1024.5-428z"/>
	<path class="st1" d="M-1105.4-478.5c-15.8,17.5-43.3,101.6-59.5,114.5"/>
	<path class="st1" d="M-1150.5-369.4c6.3-8.7,58.3-110.7,86.3-99.7s27,35,5,60s-26.1,38.1-37.5,45.1c-11.5,6.9-18.5,24.2-22.5,33.9"
		/>
	<path class="st1" d="M-868.2-500c12.9,0.1,29-5,51,74s52,83,72,24"/>
	<path class="st1" d="M-815.8-421.2c-16.4-27.8-32.4-75.8-52.4-63.8s-31,39.2-7,54.1s18,2.1,29,0s12,17,10,31s2,52.9,29.5,59.9
		s32.7,5.9,37.5,1.3"/>
	<path class="st1" d="M-973.8-427.4c-19.3,19.3-42.3,27.3-49.3,49.3c-7,22-9,78-33,97s-59,47-73,63"/>
	<path class="st1" d="M-993.5-411c6.4,8.9,9.6,10.9,0,20.9c-9.6,10-23.6,36-27.6,73c-4,37-28.7,55-30.3,63c-1.7,8,41.3,15,43.3,28
		s57,39,68,70s43,28,43,45c14,6,19,9,29,5c8-9-1-19,0-30s3-24,8-29"/>
	<path class="st1" d="M-877.2-104.2c-9,1.8-30,30.2-35,41.2s-7,21-24,20.6s-20,5.4-32,4.4s-22-1.1-40-0.1c-18,1-33.7,0-41.7-8.7
		c0,0,18,14,20,22.7s14,39.3,27.3,52.7S-981.2,58-987.8,66"/>
	<path class="st1" d="M-912.2-63c14-8,60-20,77-33c0,18-46.7,88.3,6.2,58.2C-822.2-24-853.2,28-815.2,32c-4,17,4,34,13,34"/>
	<path class="st1" d="M-1119.8-73.4c-6.3-7.7-5.4-36.7,23.1-35.7c28.5,1,41.1,19,53.8,22c0.7,12,4.7,18.3,15.7,13.7
		c11-4.7,7,11.3,5,16.3"/>
	<path class="st1" d="M-1096.7-109c-0.5-14-3.9-51-8.7-74c1.2-24,8.7-29,8.7-29"/>
	<path class="st1" d="M-1111.2-221.4c13.8-4.6,38-9.3,55.3,0c17.3,9.3,28.7,22.7,10,41.3s-47,31.5-53.5,38.1
		c-17.1-9.4-33.8-15.4-35.8-24.1C-1137.2-174.7-1135.2-213.4-1111.2-221.4z"/>
	<path class="st1" d="M-1123-197.4c4-5.8,11.9,16.7,10.5,22.7c-8,2-12.7,6-14.7,0c5.3-4.7,10.9-6.8,7.4-9.7
		C-1123.2-187.4-1126.2-192.7-1123-197.4z"/>
	<path class="st1" d="M-1084.5-198.3c-4.8,3.3-14,19,1.4,23s19-1.7,22.7-5.3c-12.7,0.7-22.5-0.1-14.8-17.6
		C-1076.1-205.9-1084.5-198.3-1084.5-198.3z"/>
	<circle class="st1" cx="-929.2" cy="-317.4" r="21.7"/>
	<ellipse class="st1" cx="-1105.4" cy="-312.4" rx="12.2" ry="16.7"/>
	<circle class="st1" cx="-940.8" cy="-317.4" r="7.7"/>
	<circle class="st1" cx="-1107.5" cy="-312.4" r="6.5"/>
	<path class="st1" d="M-931.5-339c-21.7,2.7-29.7,24.3-31,43.3c0,0,18.6,8.7,42.3,2.7c18.1-5.3,25.3-18.1,26.4-19.3
		c-3.3-3-9.2-15.7-22.8-22.7"/>
	<path class="st1" d="M-1117.6-309.7c0.6,2.4-6.5,19,7.5,22.3s18-6.3,21.3-13.3s-1.3-15-2.8-24.3c-1.5-9.3-8.3-9.7-13.7-10
		c-5.4-0.3-13.4,7-16.2,10c0,0,5.8,2,5,6.2"/>
	<g id="LDIQEZ_1_" class="st2">
	</g>
</g>
<g>
	<path class="st3" d="M128.2,184.7l-0.4-1.2c0-0.1-0.1-0.2-0.3-0.3c-0.2-0.1-0.4-0.1-0.6-0.1c-0.7,0.2-1.1,0.7-1.1,1.7
		c0.1,0.9,0.1,1.5,0.2,1.8c0.2,0.8,0.5,1.5,1.1,2.1c0.7,0.7,1.4,1.1,2.2,1.3l0.2,0.1c-0.1-0.5-0.2-1.2-0.4-2.2
		C129,187.4,128.7,186.3,128.2,184.7z"/>
	<path class="st3" d="M105.7,252.3c-0.7-0.1-1.2,0.3-1.5,1.2c-0.2,0.8-0.3,1.4-0.4,1.7c-0.1,0.8,0,1.5,0.3,2.2
		c0.4,0.8,0.9,1.4,1.5,1.8l0.2,0.1c0.1-0.5,0.2-1.1,0.3-2c0.1-0.5,0.1-1.6,0.2-3.1l0-1.2c0-0.1,0-0.2-0.2-0.4
		C106,252.4,105.9,252.4,105.7,252.3z"/>
	<path class="st3" d="M151.9,177.2c0-1-0.1-1.8-0.1-2.2c0-0.8-0.1-1.4-0.2-1.8c-0.2-0.7-0.4-1.1-0.6-1l-0.1,0
		c-0.3,0.2-0.5,0.5-0.6,0.8c-0.1,0.3-0.2,0.6-0.2,1c-0.1,0.5,0,1.3,0.2,2.3c0.3,1.3,0.8,2.5,1.6,3.7l0-0.2
		C152,179.1,152,178.3,151.9,177.2z"/>
	<path class="st3" d="M122,285.4c-0.7,1.5-1.2,3.1-1.3,4.6c-0.3,2.3,0.2,4.5,1.3,6.5c0.8,1.2,1.3,1.6,1.8,1.2
		c0.4-0.3,0.7-1.8,1.1-4.5c0.3-2.2,0.5-4.9,0.7-8.1l0.3-5.2c-1,1-1.7,1.9-2.2,2.7C123,283.5,122.5,284.4,122,285.4z"/>
	<path class="st3" d="M171.7,170.5c0-0.2,0-0.5-0.1-0.9c-0.1-0.5-0.3-0.8-0.7-0.8c-0.2-0.1-0.4-0.1-0.6-0.1
		c-0.7,0.2-1.3,0.7-1.8,1.8c-0.9,1.7-1.2,3.7-0.9,5.9l0.2,0.8l1.2-1.6C170.7,173.2,171.6,171.5,171.7,170.5z"/>
	<path class="st3" d="M162.7,158.7c0.1,0.4,0.4,0.6,1,0.7l0.1,0l0.1,0c0.4-0.1,0.7-0.4,0.8-0.9c0.1-0.6,0.1-1.4-0.2-2.4
		c-0.5,0.5-0.9,1.1-1.4,1.7C162.7,158.1,162.6,158.4,162.7,158.7z"/>
	<path class="st3" d="M91.2,208.4c-0.2,0-0.5,0.1-1.1,0.3c-1.3,0.6-2.2,1.3-2.7,2.3c-0.6,1-0.8,2-0.7,3.1c0.1,1,0.4,1.8,0.9,2.5
		c0.5,0.7,1.2,1,2,1c0.5,0,0.9-0.2,1.2-0.4c0.5-0.4,1-1.2,1.6-2.6c0.7-1.9,1.1-3.8,1.4-5.5C92.8,208.6,91.9,208.3,91.2,208.4z"/>
	<path class="st3" d="M131.8,42.3c-0.2-1.3-0.5-2.3-0.8-2.8c-0.2-0.4-0.6-0.8-1-1c-0.4-0.2-0.8-0.3-1.2-0.3c-1.2,0.1-2,1.2-2.3,3.3
		l-2.5,13.8l9-2.7L131.8,42.3z"/>
	<path class="st3" d="M151.6,45.3c-0.1-1.4-0.6-2.5-1.3-3.2c-0.3-0.2-0.5-0.4-0.7-0.4c0.1,0.7,0,1.6-0.2,2.7
		c-0.5,2.9-0.8,6.1-0.9,9.4c1.1-1.1,1.9-2.4,2.5-3.9C151.6,48.4,151.8,46.9,151.6,45.3z"/>
	<path class="st3" d="M164.7,44.2c-0.1-1.4-0.6-2.5-1.3-3.2c-0.3-0.2-0.5-0.4-0.7-0.4c0.1,0.7,0,1.6-0.2,2.7
		c-0.5,2.9-0.8,6.1-0.9,9.4c1.1-1.1,1.9-2.4,2.5-3.9C164.7,47.3,164.9,45.8,164.7,44.2z"/>
	<path class="st3" d="M66.5,267.3c-0.9,0.3-1.6,0.6-2.3,0.9c-0.7,0.3-1.3,0.7-1.9,1.2c-1.1,0.8-1.6,1.8-1.8,2.9c0,0.2,0,0.6,0.1,1.1
		l0,0.1c0.4,1.1,1.3,1.7,2.6,1.8c0.2,0,0.5,0,1-0.1c1.1-0.4,2.4-1.4,3.8-3.3c1.4-1.8,2.7-3.8,3.7-6c0-0.1,0.1-0.3,0.2-0.5l-3.6,1.2
		C68,266.7,67.4,266.9,66.5,267.3z"/>
	<path class="st3" d="M161.3,148.1l0.3-0.3c0.7-0.8,1.1-1.8,1.1-3c0-0.1,0-0.2,0-0.3c0-0.1-0.1-0.3-0.2-0.4
		c-0.1-0.1-0.1-0.1-0.3-0.2c-0.1-0.1-0.2-0.1-0.4-0.1c-0.2,0-0.4,0.2-0.7,0.6l-0.2,0.4c-0.4,0.7-0.5,1.5-0.2,2.3
		C160.9,147.5,161.1,147.9,161.3,148.1z"/>
	<path class="st3" d="M108.9,170c1-1,1.8-2.3,2.4-3.8c0.6-1.5,0.8-3,0.7-4.4c-0.1-0.7-0.2-1.4-0.5-1.9c-0.4-0.9-0.9-1.6-1.5-2.2
		c-0.6-0.6-1.1-0.8-1.6-0.8c-0.5,0-1,0.5-1.3,1.3c-0.4,0.8-0.5,2.1-0.5,3.8c0,1.3,0,4.6-0.1,9.9C107.3,171.4,108.1,170.8,108.9,170z
		"/>
	<path class="st3" d="M149.2,102.9c-0.7,0-1.3,0.1-1.9,0.3c-0.3,0.1-0.5,0.2-0.7,0.3c-0.1,0.1-0.2,0.1-0.2,0.2c0,0,0,0,0,0
		c0,0,0,0,0,0l0,0.1l0,0l0,0c0,0,0,0,0,0l0,0.1c0,0.1-0.1,0.2-0.1,0.3c0,0,0,0,0,0c0,0,0.1,0.1,0.2,0.1c0.2,0.1,0.5,0.1,0.8,0.1
		l0.2,0c0.1,0,0.1,0,0.2,0c0.1,0,0.3,0,0.4-0.1c0.6-0.1,1.1-0.4,1.6-0.7c0.4-0.2,0.7-0.5,0.9-0.8l-0.3,0L149.2,102.9z"/>
	<path class="st3" d="M130.5,107.2c-0.1-0.8-0.2-1.9-0.3-3.3c-0.1,0-0.3,0-0.4,0.1c-0.8,1.3-1.3,2.6-1.6,3.7
		c-0.3,1.3-0.4,2.4-0.3,3.4c0.1,1.6,0.7,3,1.8,4.2c0.5,0.6,0.9,0.9,1.1,0.8c0,0,0.1-0.1,0.3-0.1c0.2-0.3,0.2-1.6,0-3.9L130.5,107.2z
		"/>
	<path class="st3" d="M167.8,123.5l-0.5-2c-0.7-2.8-1.1-4.3-1.1-4.4l0-0.1c-0.5-0.4-0.9-0.5-1.2-0.5c-0.1,0-0.3,0.1-0.4,0.3
		c-0.2,0.2-0.3,0.4-0.5,0.7c-0.5,0.8-0.8,1.9-0.9,3.2c0,0.9,0,1.8,0,2.6c0.1,0.7,0.2,1.9,0.6,3.5c0.2,1,0.6,1.6,1.1,2
		c0.5,0.5,0.9,0.7,1.2,0.6c0.2,0,0.5-0.2,0.8-0.4c0.5-0.4,1-1.4,1.5-3.1c-0.1-0.3-0.2-0.7-0.3-1.2
		C168,124.2,167.9,123.8,167.8,123.5z"/>
	<path class="st3" d="M146.1,104.2C146.1,104.3,146.1,104.3,146.1,104.2C146.1,104.2,146.1,104.2,146.1,104.2z"/>
	<path class="st3" d="M149.4,83.5l-0.1-0.8c0-0.1-0.1-0.2-0.2-0.2c-0.1-0.1-0.2-0.1-0.3-0.1c-0.5,0-0.8,0.4-0.8,1c0,0.6,0,1,0,1.2
		c0,0.5,0.2,1,0.5,1.4c0.4,0.5,0.8,0.8,1.3,1l0.1,0.1c0-0.3,0-0.8-0.1-1.4C149.7,85.3,149.6,84.6,149.4,83.5z"/>
	<path class="st3" d="M151.5,119c0-0.1,0-0.3,0-0.6c0-0.3-0.1-0.5-0.4-0.6c-0.1-0.1-0.2-0.1-0.4-0.1c-0.5,0-0.9,0.4-1.3,1
		c-0.7,1-1.1,2.2-1.1,3.7l0,0.6l0.9-0.9C150.6,120.7,151.4,119.7,151.5,119z"/>
	<path class="st3" d="M137.1,120.3c0-0.1,0-0.3,0-0.6c0-0.3-0.1-0.5-0.4-0.6c-0.1-0.1-0.2-0.1-0.4-0.1c-0.5,0-0.9,0.4-1.3,1
		c-0.7,1-1.1,2.2-1.1,3.7l0,0.6l0.9-0.9C136.2,121.9,137,120.9,137.1,120.3z"/>
	<path class="st3" d="M188,36.3c-2.3-0.6-4.6-2.6-10.6-4.3c-6-1.7-9.1-7.4-19.1-7.4c-10,0-23.4,4.6-25.4,4.9
		c-7.4,1.1-13.1,3.1-16.3,7.4c-3.1,4.3-15.4,15.4-18,17.7c0,0-2.3,1.1-2.9,5.7c-0.6,4.6,7.4,12.6,9.4,13.7c2,1.1,1.7,3.4,1.5,9.4
		c-0.2,5.7,6.1-1.2,8.5-10.5c-1.1,5.7-1.2,15.4,0.3,21.7c-18.6,21.4-17.1,31.7-16.6,38c-2.6,1.1-16.9,15.7-18.3,21.1
		c-1.4,5.4-20.6,40.6-24.3,48.9c-3.7,8.3-5.7,19.7-14.9,34c-9.1,14.3-8.6,36.9-6.6,45.7c-9.7-2.9-18.6,14.3-19.7,18.6
		c-0.6,2.3,20,7.1,24.3,8c-1.7,8.3,6.6,8.3,16,8.9c9.4,0.6,24,2.3,28.3,1.7c2.6,2.3,7.1,2.9,8.3,0.6c1.1,2.3,4.6,0.9,9.1,0.6
		c4.6-0.3,3.1-5.1,2.6-7.4c0.9-1.1,11.7-7.4,12.9-9.4c1.4,0,8.6,1.4,11.1,0.6c-0.3,2.9,0.9,5.1,2,13.1c1.1,8,3.4,6.3,9.4,6.9
		c6,0.6,12.3,0.6,18-1.7c5.7-2.3-4.3-12-5.7-12.9c-1.4-0.9-2.6-2.9-3.1-4.9c0,0,7.1,0.9,9.1,0.6c2-0.3,2-0.9,3.4-1.7
		c-0.3-2.6-5.7-10-8.3-11.1c-2.6-1.1-4.9-1.7-9.1-3.4c-1.1-1.4-0.9-10-0.9-13.4c11.1-10.3,8.3-22.3,5.8-25.4
		c0.9-0.9,7.4-7.4,10.5-9.4c0,2.9,3.7,26,3.4,28.9c-0.3,2.9-1.4,5.4-0.6,8.6c0.9,3.1,0.6,5.7-0.6,8.9c-1.1,3.1-2.6,6.9-0.3,9.4
		c2.3,2.6,1.4,15.7,4.6,18.8c3.1,3.1,7.7-1.1,9.4-0.5c1.7,0.6,5.1,0.9,8.9,0c3.7-0.9,4.6-2.3,5.1-4.9c0.6-2.6-3.7-5.1-8-10.9
		c-4.3-5.7-4.9-21.1-4.9-31.1c0-10,0.9-26.6,4.3-40c3.4-13.4,2.9-24,2.9-28c0-4,8.6-16,9.7-28.3c1.1-12.3-5.1-22.9-5.1-29.1
		s-1.4-15.4-2.6-22.3c-1.1-6.9-8-9.4-10-13.7c-2-4.3,4-19.4,4.9-23.7c0.8-3.9,2.8-12.7,1.1-20.5c2,5.3,8.2,9.6,9.6,9.6
		c1.6,0,1.3-4.6,0-6c-1.3-1.4,5.9-10.6,7.3-18C199.4,40.6,190.3,36.9,188,36.3z M167.4,41.6l0.7-0.4c0.8-0.6,1.3-1.2,1.7-1.8
		c0.3-0.5,0.7-0.9,1.2-1.4c1.4-1.3,2.7-1.9,4.5-2.1c0.4,0,0.8-0.1,1.1-0.1c2,0,3.3,0.6,4,1.7c0.6,1.1,1,2.9-0.1,3.7
		c-0.6,0.4-1.6,0.6-3.1,0.6c-0.9,0-1.8-0.1-2.7-0.1c-0.8-0.1-1.6-0.1-2.2-0.1c-0.9,0-1.8,0.1-2.7,0.2c-0.7,0.1-1.5,0.1-2.3,0.2
		c0,0,0,0,0,0c-0.1,0-0.2-0.1-0.2-0.2C167.2,41.7,167.3,41.6,167.4,41.6z M162.6,29c0.2-0.7,0.8-1.2,1.6-1.2c0.8,0,1.7,0.5,2.1,1.1
		c1.2,1.9,0.3,4.4-0.4,6.6c-0.2,0.7-0.5,1.4-0.6,2c0,0.1-0.1,0.2-0.2,0.2c0,0,0,0,0,0c-0.1,0-0.2-0.1-0.2-0.2l-0.4-2.1
		c-0.2-0.5-0.4-1-0.7-1.7C163.1,32.2,162.2,30.4,162.6,29z M144.3,42.4c0.1-0.6,0.2-1.2,0.5-1.8l0-0.1l0.2-0.2c0,0,0-0.1,0.1-0.1
		c0-0.1,0-0.1,0.1-0.1c0.5-0.6,1.1-0.9,2-1c0.6-0.1,0.9-0.1,0.9-0.1s0.3,0.1,0.8,0.3c0.7,0.2,1.3,0.6,1.8,1.1c0.5,0.5,1,1.1,1.3,1.8
		c0.4,0.8,0.6,1.7,0.7,2.6c0.2,2.1-0.1,4.1-0.8,6.1c-0.7,2-1.8,3.7-3.3,5.2c0,1,0.1,2.5,0.3,4.4c0.2,2.6,0.5,4.8,0.9,6.6
		c0.3,1.1,0.5,1.9,0.8,2.4c0.5,0.8,1.2,1.3,2,1.4l0.1,0c0.4,0,0.9-0.3,1.6-0.8c0.6-0.5,1.1-1.1,1.4-1.7c0.6-1.1,1-2.3,1.1-3.6
		c0.1-0.6,0.1-1.4,0.2-2.2c-0.2-1.3-0.4-2.7-0.5-4.2c-0.5-5.8-0.2-11.6,0.9-17.3c0.1-0.6,0.2-1.2,0.5-1.8l0-0.1l0.2-0.2
		c0,0,0-0.1,0.1-0.1c0-0.1,0-0.1,0.1-0.1c0.5-0.6,1.1-0.9,2-1c0.6-0.1,0.9-0.1,0.9-0.1s0.3,0.1,0.8,0.3c0.7,0.2,1.3,0.6,1.8,1.1
		c0.5,0.5,1,1.1,1.3,1.8c0.4,0.8,0.6,1.7,0.7,2.6c0.2,2.1-0.1,4.1-0.8,6.1c-0.7,2-1.8,3.7-3.3,5.2c0,1,0.1,2.5,0.3,4.4
		c0.2,2.6,0.5,4.8,0.9,6.6c0.3,1.1,0.5,1.9,0.8,2.4c0.5,0.8,1.2,1.3,2,1.4l0.1,0c0.4,0,0.9-0.3,1.6-0.8c0.6-0.5,1.1-1.1,1.4-1.7
		c0.6-1.1,1-2.3,1.1-3.6c0.2-1.3,0.2-3,0.2-5c0-1.1,0-1.9,0-2.4c0-0.2,0.1-0.5,0.3-0.6c0.2-0.2,0.4-0.3,0.7-0.3c0.3,0,0.5,0,0.7,0.2
		c0.2,0.2,0.2,0.4,0.2,0.7l0,2.4c0,2.5-0.1,4.5-0.5,6.2c-0.3,1.7-1.1,3.4-2.5,5.1c-0.7,0.8-1.5,1.6-2.4,2.2c-0.9,0.6-1.8,1-2.7,1.1
		c-0.9,0.1-1.8-0.1-2.6-0.6c-0.8-0.5-1.5-1.1-2.1-1.9c-0.5-0.7-1-1.8-1.4-3.2c-0.4,1.1-1.1,2.3-2,3.5c-0.7,0.8-1.5,1.6-2.4,2.2
		c-0.9,0.6-1.8,1-2.7,1.1c-0.9,0.1-1.8-0.1-2.6-0.6c-0.8-0.5-1.5-1.1-2.1-1.9c-0.7-1.1-1.3-2.7-1.9-5c-0.5-2.2-0.8-4.7-1.1-7.3
		C142.9,53.9,143.2,48.1,144.3,42.4z M118.2,74.4l2.9-15.1c-0.2,0.1-0.5,0.1-1,0.1c-0.3-0.1-0.6-0.2-0.9-0.3
		c-0.3-0.2-0.5-0.4-0.5-0.6l0-0.2c0-0.6,0.2-1,0.6-1.4c0.3-0.3,0.8-0.5,1.6-0.8l0.8-0.3l2.9-15.7c0.3-1.3,1-2.4,1.8-3.3
		c0.9-0.9,1.9-1.5,3.1-1.6c0.6-0.1,1.2,0,1.9,0.2c0.6,0.2,1.2,0.6,1.7,1c0.4,0.4,0.8,0.9,1.2,1.5s0.7,1.2,1,1.8
		c1.6,3.3,2.9,7,3.8,10.9c0.7-0.2,1.3-0.4,1.6-0.4c0.3,0,0.5,0,0.6,0c0.5,0,0.9,0.2,1.2,0.4c0.4,0.2,0.4,0.4,0.2,0.7
		c-0.2,0.3-1.3,0.8-3.2,1.5c0.6,2.6,1.1,5.3,1.4,8c0.3,2.7,0.7,6,1.1,10c0.1,1.1,0.1,2.1-0.1,3c-0.2,0.8-0.6,1.4-1.2,1.9
		c-0.3,0.2-0.7,0.3-1.1,0.3c-0.5,0-1.1-0.1-1.6-0.4c-0.6-0.3-1-0.7-1.4-1.2c-0.4-0.6-0.7-1.2-0.9-1.9c-0.2-0.7-0.3-1.6-0.5-2.6
		l-1.8-14.8l-4.5,1.5l-5.4,1.9l-2.8,16c-0.2,0.8-0.4,1.4-0.6,1.8c-0.2,0.3-0.4,0.5-0.7,0.6c-0.3,0.1-0.6,0.2-0.9,0.1
		c-0.3-0.1-0.4-0.4-0.5-1C118,75.5,118.1,75,118.2,74.4z M82.1,157.7c0.2-0.9,0.6-1.5,0.9-1.6l0.2,0c0.3,0,0.6,0.2,0.9,0.6
		c0.3,0.4,0.4,1,0.4,1.6c0,2,0.5,3.9,1.3,5.7c0.8,1.9,1.9,3.5,3.3,4.9c1.9,1.9,4,3.1,6.4,3.9l0.8-11c0-2.8,0.6-4.8,2.1-6
		c1.4-1.2,3.2-1.9,5.3-2.1c1.8-0.2,3.4,0,4.8,0.4c2.3,0.7,4,1.7,5.1,3.3c0.7,1,1.1,2.1,1.2,3.4c0.1,1.6-0.1,3.1-0.7,4.7
		c-0.6,1.9-1.6,3.7-3,5.3c-1.4,1.6-2.9,2.9-4.7,3.9l-0.6,14.2c-0.2,3.9-0.4,6.9-0.7,8.9c-0.1,3.9-0.7,7.7-2,11.6
		c2.1,1.8,4.4,3.2,6.9,4.3c2.5,1.1,5.5,1.5,8.9,1.2c4.1-0.4,8.5-1.8,13-4.4c0.3-0.2,0.7-0.4,1.1-0.4c0.8-0.1,1.4,0.2,1.6,0.8
		l0.1,0.3c0,0.4-0.1,0.8-0.5,1.4c-0.4,0.5-0.8,0.9-1.2,1c-6.1,3.1-11.8,4.8-16.9,5.3c-6,0.5-11.1-0.9-15.4-4.2
		c-0.7,1.4-1.7,2.7-2.9,3.9c-1.9,1.9-4,2.9-6.5,3.1l-0.8,0.1c-1.8,0-3.4-0.6-4.8-1.7c-1.4-1.1-2.1-2.6-2.3-4.4
		c-0.1-1.2,0.1-2.6,0.5-4.2c0.7-2.3,1.8-4.2,3.4-5.7c1.3-1.2,2.8-1.8,4.5-2c0.4,0,1,0,1.8,0c0.1,0.1,0.2,0.1,0.3,0.1
		c0.1,0,0.2,0,0.3,0.1l0.1-1.3c0.3-10.5,0.7-19.2,1.1-26.3c-3.1-0.6-5.7-2-7.9-3.9c-1.6-1.4-2.8-3.1-3.7-5c-0.9-1.9-1.5-3.9-1.6-6
		C81.9,160.1,81.9,158.8,82.1,157.7z M123.3,235.3c0.2,1.1,0.5,1.9,1,2.3c0.5,0.6,0.9,0.8,1.2,0.8c0.2,0,0.5-0.1,1-0.4
		c0.6-0.4,1.2-1.4,2-3.1c-0.1-0.5-0.2-1.4-0.2-2.6l-0.2-2.5c0-0.4-0.1-1,0-1.8c0-0.6,0.1-1.6,0.2-3l0.1-1.5c0-0.5,0.2-0.9,0.4-1.1
		c0.1-0.1,0.3-0.2,0.5-0.2c0,0,0.3,0.1,0.9,0.2c1.3,0.5,2.1,1.1,2.4,1.7c0.2,0.4,0.3,1.1,0.3,2l0,2.8l0,0.3c0,1.7,0.1,3.2,0.3,4.4
		c0.2,1.4,0.6,2.4,1.3,2.8c0.7,0.5,1.3,0.8,1.8,0.8c0.5,0,1.1-0.2,1.6-0.7c0.7-0.7,1.2-1.5,1.5-2.6c0.3-1,0.4-2,0.5-2.9
		c0.1-0.9,0.1-1.5,0.2-1.8c0-0.3,0.2-0.5,0.3-0.6c0.2-0.1,0.4-0.2,0.6-0.2c0.5,0,0.7,0.4,0.7,1c0,1.5-0.4,3.4-1.1,5.6
		c-0.7,2.2-1.8,3.7-3.2,4.5c-1.2,0.8-2.5,1.1-3.6,1.1c-0.7,0-1.4-0.2-2-0.5c-1.1-0.5-1.9-1.5-2.6-2.9l-0.6,0.7
		c-1.4,1.6-2.9,2.5-4.5,2.9c-0.2,0-0.6,0.1-1,0.1c-0.7,0-1.4-0.2-2.1-0.5c-0.7-0.3-1.3-0.8-1.7-1.3c-1.1-1.4-1.7-3.4-1.6-5.8
		c0-1.7,0.4-3.4,1-5c0.7-1.7,1.6-3.1,2.9-4.4c1-1.1,2.2-1.7,3.5-1.8l0.2,0c0.9,0,1.7,0.7,2.4,2.1l0,0.1c0,0.1-0.1,0.3-0.2,0.4
		c-0.1,0.1-0.2,0.2-0.3,0.2l-0.1-0.1c-0.5-0.5-0.9-0.7-1.2-0.7c-0.1,0-0.3,0.1-0.5,0.3c-0.2,0.2-0.4,0.4-0.6,0.7
		c-0.7,0.9-1.1,2-1.4,3.5c-0.2,1-0.2,2-0.2,2.9C123.1,232.2,123.1,233.5,123.3,235.3z M108,225c-1.5-1.6-3.4-2.8-5.3-3.9
		c-0.6-0.4-0.1-1.4,0.6-1c2,1.1,4,2.3,5.5,4C109.3,224.7,108.5,225.5,108,225z M100.9,229.4c-0.6-2.1-1.4-4.2-2.1-6.3
		c-0.3-0.7,0.9-1,1.1-0.3c0.8,2.1,1.5,4.2,2.1,6.3C102.2,229.8,101.1,230.1,100.9,229.4z M92.9,238.2c0,0.7-1.2,0.7-1.2,0
		c0-4.5-0.2-8.9-0.2-13.4c0-0.7,1.2-0.7,1.2,0C92.7,229.3,92.9,233.7,92.9,238.2z M87.3,223.8c-0.6,1.4-1.3,2.6-2,3.9
		c-0.4,0.7-1.3,0.1-1-0.6c0.7-1.3,1.4-2.6,2-3.9C86.6,222.5,87.6,223.1,87.3,223.8z M89.8,180.3c-0.1-0.7,1.1-0.7,1.2,0
		c0.6,6.5,0.5,13.1,0.5,19.6c0,0.7-1.2,0.7-1.2,0C90.2,193.4,90.3,186.9,89.8,180.3z M78.7,188.7c1,4.8,4.2,8.7,6.8,12.8
		c0.4,0.6-0.6,1.2-1,0.6c-2.6-4.2-5.8-8.2-6.9-13.1C77.4,188.3,78.5,188,78.7,188.7z M82.9,220.9c-1.2,0.6-2.2,1.5-3.2,2.3
		c-0.6,0.5-1.4-0.3-0.8-0.8c1.1-0.9,2.2-1.8,3.5-2.5C83,219.6,83.6,220.6,82.9,220.9z M74,205.9c2.3,0.5,4.6,0.8,7,0.9
		c0.7,0,0.7,1.2,0,1.2c-2.5-0.1-4.9-0.5-7.3-1C73,206.9,73.3,205.8,74,205.9z M69.9,215c3.6,0,7.2-0.6,10.7,0.1
		c0.7,0.1,0.4,1.3-0.3,1.1c-3.4-0.7-6.9-0.1-10.4-0.1C69.1,216.2,69.1,215,69.9,215z M57.1,306.1c-1.2-0.6-1.6-2.7-2.2-3.4
		c-2-2.1-7.8-1.3-6.3-5.5c1.4-3.7,9.6-4.4,11.5-2.7C62.5,296.6,62.7,308.8,57.1,306.1z M56.5,287.8c1.3,0.7,0.9,3.8-0.5,4.7
		c-1.2,0.8-2.8,0.7-3.5-0.3C51,290.3,54.3,286.6,56.5,287.8z M58.7,292.3c-2-2.1,1.2-6.4,3.7-5C64.9,288.8,61.3,295,58.7,292.3z
		 M66.6,291.1c2.2,1.6-2.3,8.1-4.3,3.8C61.4,292.7,64.8,289.7,66.6,291.1z M64.3,302.2c-1.7,0-2.9-2.8-1.1-4.5
		c0.4-0.4,2.6-1.5,3.4-1.2C68.2,297.3,66.9,302.1,64.3,302.2z M76.8,285c2.3-1,5.8,2.5,5.7,5.4c-0.1,2.4-1.9,4.4-3.9,4.4
		C74.7,294.7,72.9,286.7,76.8,285z M82,276.8c4.4-1.9,9,9,2.9,9.8C80.2,287.2,77.6,278.6,82,276.8z M101.5,302.2
		c-1.9,1-5.1-0.6-6.6-0.4c-4.7,0.6-9.4,8.9-13.4,2.9c-3.6-5.5,3.6-17,7.8-17.8C94.2,285.8,110.5,297.5,101.5,302.2z M91,274.9
		c4.2-1.4,8.4,10.9,0.8,9.3C88,283.4,87.5,276,91,274.9z M98.1,280.3c2.7-1.4,7.6,5,5.1,8.5c-1.6,2.3-6.5,1.1-6.9-3
		C96.2,284.9,96.9,281,98.1,280.3z M145.6,259.9c-0.1,0.3-0.2,0.5-0.3,0.6l-3,3.1c-3.2,3.5-5.9,6.3-8.3,8.4
		c-0.2,1.6-0.5,4.2-0.9,7.8c-0.4,3.6-0.9,6.9-1.4,9.9c-0.3,1.8-0.6,3.2-0.9,4.4c-0.3,1.2-0.8,2.2-1.4,3.2c-0.4,0.6-1,1.2-1.6,1.7
		c-0.6,0.5-1.3,0.9-2,1c-0.6,0.2-1.2,0.2-1.8,0.2c-1.4-0.2-2.5-0.8-3.3-1.9c-0.8-1.1-1.4-2.3-1.8-3.7c-0.4-1.3-0.5-2.4-0.5-3.2
		c0.1-1.7,0.4-3.4,1.1-5.1c0.6-1.7,1.5-3.3,2.5-4.8c0.4-0.7,1-1.4,1.6-2.1c0.7-0.7,1.1-1.2,1.3-1.4l1.2-1.4l0.5-4.3l0.2-3.3
		c-0.9,0.4-1.8,0.7-2.4,0.9c-1.1,0.2-2.1,0.2-3.1,0.1c-1.8-0.2-3.3-0.9-4.5-2c-1.5-1.4-2.3-3.2-2.4-5.6c0-0.3,0-0.5,0-0.7
		c-0.3,0.2-0.6,0.4-1,0.5c-1.4,0.6-2.9,0.8-4.7,0.6c-0.4,0-0.9-0.2-1.6-0.4c0,0.1-0.1,0.2-0.2,0.4c-0.8,1.4-1.9,2.6-3.1,3.6
		c-1.3,1-2.6,1.6-4.1,2c-1.2,0.3-2.2,0.4-3,0.3l-0.1,0c-0.2,0-0.5,0-1,0c-2.1-0.2-3.7-0.9-4.8-2.1c-0.3-0.3-0.6-0.6-0.7-1.1
		c-0.8-1.6-1-3.8-0.7-6.5c0.1-0.5,0.1-1,0.2-1.5c-1.8,1.2-4,2.3-6.6,3.5c-1.1,3.5-2.6,6.6-4.5,9.5c-1.9,2.8-3.8,5-6,6.6
		c-2.1,1.5-4.1,2.2-5.9,2c-4.9-0.6-7.8-1.7-8.8-3.4c-0.5-0.4-0.9-0.9-1.1-1.6c-0.2-0.6-0.3-1.3-0.1-1.9c0.2-1.5,1-2.8,2.4-3.9
		c0.8-0.7,2.1-1.5,4-2.3c2.6-1.2,6-2.6,10.2-4.1c1.5-4.2,2.5-8.3,3-12.4c0.4-3.2,0.5-6.3,0.3-9.2c-0.2-2.8-0.7-5.4-1.8-7.7
		c-1-2.3-2.5-3.8-4.6-4.5c-0.3-0.1-0.7-0.2-1.3-0.2c-1.9-0.2-3.8,0.3-5.8,1.6c-1,0.6-2.1,1.5-3.5,2.7c-1.1,8-2.8,20.1-5.1,36.1
		c0,0.1-0.1,0.5-0.2,1.3c-0.1,0.7-0.5,1.3-0.9,1.8c-0.6,0.6-1.4,0.9-2.3,0.8c-0.5-0.1-1.1-0.2-1.6-0.5c-0.5-0.3-0.9-0.7-1.2-1.1
		c-1.1-1.6-1.5-3.5-1.4-5.8c0.3-6.9,0.8-13.7,1.5-20.2c0.9-8.2,2.3-16.6,4.2-25.2c0-0.4,0.2-0.9,0.4-1.6c0.3-0.7,0.7-1.2,1.3-1.6
		c0.2-0.1,0.5-0.3,1.1-0.6c0.5-0.3,1-0.4,1.5-0.4c0.8,0.1,1.6,0.7,2.5,1.9c0.9,1.2,1.4,2.7,1.5,4.2c0.1,1.6,0,3.5-0.3,5.7l-0.1,0.9
		c1.2-1.4,2.7-2.4,4.5-3c1.8-0.6,3.6-0.8,5.6-0.5c1.1,0.1,2,0.4,2.9,0.7c2.7,0.9,4.8,2.2,6.4,4c1.6,1.7,2.9,4.1,3.8,7
		c0.9,2.7,1.4,5.4,1.5,8.2c0.1,2.8-0.1,5.9-0.4,9.3c-0.2,1.5-0.4,3-0.8,4.4c2.8-1.2,5.1-2.5,6.8-4c0.3-0.9,0.7-1.7,1.2-2.5
		c1.3-2.4,2.9-4.1,4.8-5c1.2-0.6,2.2-1,2.8-1.2c0.7-0.2,1.4-0.3,2.2-0.2l0.1,0c0.9,0.1,1.3,0.2,1.3,0.2s0.1,0.2,0.4,0.7
		c0.2,0.5,0.4,1.5,0.6,3c0,0.5-0.1,0.7-0.3,0.7c-0.2,0-0.3-0.1-0.3-0.1c-0.1-0.1-0.2-0.3-0.3-0.8c-0.2-0.4-0.4-0.7-0.9-0.7
		c-0.4,0-1,0.2-1.6,0.7c-0.6,0.5-1.1,1.1-1.5,1.8c-0.4,0.6-0.7,1.5-1.1,2.4c-0.7,1.8-1.1,3.7-1.4,5.9c-0.1,1.2-0.2,2.2-0.2,2.8
		c-0.2,1.4,0,2.4,0.6,3.2c0.6,0.7,1.4,1.1,2.5,1.3c0.8,0.1,1.4,0,1.8-0.2c0.6-0.3,1.4-0.9,2.2-1.7c0.8-0.9,1.3-1.7,1.5-2.4
		c-1.1-0.6-1.9-1.4-2.4-2.3c-0.5-1-0.8-1.9-0.9-2.7c0-0.4,0-0.9,0.1-1.5c0.1-0.8,0.2-1.4,0.4-1.8c0.3-1,0.9-1.9,1.7-2.6
		c0.7-0.6,1.6-0.8,2.5-0.7c0.3,0,0.5,0.1,0.6,0.2c0.4,0.1,0.7,0.4,1,0.8c0.3,0.5,0.4,0.9,0.4,1.4l0.2,1.4c0,0.3,0,0.5,0,0.6
		c0,1.1,0,2.3-0.1,3.4c-0.1,0.8-0.2,1.4-0.3,1.9l-0.3,0.9l0.9,0.1c0.7,0.1,1.6,0,2.6-0.1c1-0.2,1.8-0.7,2.5-1.4
		c0.3-0.4,0.7-0.8,1-1.3c0.2-0.5,0.4-1,0.6-1.5c1-2.3,2.5-4.3,4.4-6.1c0.7-0.7,1.5-1.2,2.4-1.5c0.9-0.3,1.6-0.4,2.2-0.4
		c1.7,0.2,2.7,1.4,3.1,3.7c0,0.2,0,0.3-0.1,0.4c-0.1,0.1-0.2,0.1-0.4,0c-0.5-0.4-1.1-0.7-1.9-0.8c-0.8-0.1-1.5,0.1-2.1,0.6
		c-0.5,0.5-1,1-1.3,1.6c-0.3,0.6-0.6,1.3-1,2.3c-0.6,1.6-1,3-1.1,4.2c-0.1,0.8-0.1,1.5,0,2.2c0.1,1.2,0.5,2.2,1.1,3.1
		c0.6,0.9,1.4,1.6,2.4,1.9c0.2,0.1,0.6,0.2,1,0.2c0.9,0.1,1.7,0,2.5-0.2c0-0.5,0.1-1.4,0.2-2.5l0.4-3.5l0-0.4l0.1-0.9l1-8.9
		c0.1-1.2,0.4-2,0.7-2.3c0.5-0.5,1.1-0.7,1.8-0.6c0.7,0.1,1.4,0.4,2.1,1.1c0.7,0.8,1.2,1.7,1.4,2.8c0.2,1.1,0.3,2.4,0.2,4.1
		c-0.2,3.5-0.2,6-0.3,7.7l-0.1,4.2l9.4-9.7c0.3-0.2,0.6-0.3,1.1-0.2c0.2,0.1,0.3,0.2,0.5,0.4c0.2,0.2,0.3,0.3,0.3,0.5
		C145.7,259.4,145.6,259.6,145.6,259.9z M171.3,217.5c-0.1,0.2-0.1,0.3-0.1,0.4c-0.6,1.1-1.2,2.1-1.8,2.9c-0.6,0.8-1.6,1.4-2.8,1.7
		c-0.4,1.8-0.9,3.2-1.5,4.4c-0.6,1.2-1.3,2.4-2.4,3.6c-0.8,1-1.9,1.7-3.1,2.3c-1.3,0.6-2.5,0.9-3.8,1c-1.7,0.1-3-0.1-4-0.6
		c-0.8-0.5-1.5-1.6-2-3.1c-0.3-1-0.5-1.9-0.5-2.8c-0.2-2.2,0.1-4.3,0.9-6.3c0.9-2.4,2.4-4.3,4.3-5.8c-0.4-0.2-0.9-0.7-1.4-1.4
		c-0.7-1-1-2-1.1-3.2c-0.1-1.1,0.1-2.1,0.5-3.2c0.4-1.1,1.2-2,2.2-2.7c1-0.7,2.1-1.2,3.3-1.3c0.9-0.1,1.7,0.1,2.4,0.4
		c0.5,0.2,0.9,0.6,1.2,1.1c0.3,0.5,0.4,0.9,0.4,1.4l0,0.1c0,0.2-0.1,0.3-0.2,0.4c-0.2,0.1-0.3,0.1-0.5,0.1c-0.3,0-0.6-0.2-0.8-0.7
		c-0.2-0.4-0.4-0.7-0.6-0.9c-0.2-0.3-0.6-0.4-1.2-0.4c-0.2,0-0.5,0.1-0.8,0.2c-0.5,0.3-1,0.8-1.5,1.6c-0.8,1.5-1.2,3.2-0.9,5
		c0.1,1.1,0.5,1.9,1.2,2.3c0.4,0.2,0.8,0.3,1.2,0.3c0.2,0,0.4-0.1,0.5-0.1c0.6-0.3,1.1-0.6,1.6-1.1c0.5-0.4,0.8-0.5,1-0.3
		c0.1,0,0.1,0.1,0.1,0.3c0,0.2,0,0.4-0.1,0.6c-0.2,0.5-0.6,0.9-1.1,1.4l-0.4,0.3c-0.5,0.4-0.9,0.7-1.3,1.1c-0.4,0.4-0.8,0.9-1.4,1.5
		c-1.3,1.6-2.1,3.2-2.5,4.8c-0.3,1.2-0.5,2.3-0.4,3.5c0.1,0.7,0.2,1.4,0.4,2c0.2,0.6,0.4,1.1,0.6,1.5c0.2,0.4,0.5,0.7,0.9,0.9
		c0.8,0.4,1.6,0.5,2.2,0.5c1.5-0.1,2.8-1.1,4-2.8c1.2-1.7,2-3.6,2.5-5.6l-0.7-0.1c-0.4,0-0.8,0-1.3,0.2c-0.4,0.2-0.8,0.5-1,0.8
		c-0.1,0.1-0.1,0.3-0.2,0.4c-0.1,0.1-0.1,0.3-0.2,0.4c-0.2,0.3-0.5,0.4-0.7,0.4c-0.2,0-0.4,0-0.5-0.2c-0.1-0.1-0.2-0.3-0.1-0.4
		c0.2-0.8,0.7-1.5,1.6-2.2c0.8-0.7,1.7-1.1,2.5-1.3c0.3-0.1,0.7-0.1,1.2-0.1c0.5,0,0.9,0,1.2,0c0.9-0.1,1.6-0.4,2.4-1
		c0.7-0.6,1.2-1.3,1.4-2.2c0-0.2,0.1-0.4,0.2-0.6c0.1-0.2,0.2-0.3,0.4-0.3c0.2,0,0.3,0,0.4,0.2c0.1,0.1,0.2,0.3,0.2,0.4
		C171.4,217.2,171.3,217.4,171.3,217.5z M181.7,180.6c1.2-2.9,1.9-5.3,2-7.4c0-0.7,0.3-1.1,0.8-1.3c0.2-0.1,0.5,0,0.7,0.2
		c0.2,0.2,0.4,0.5,0.5,0.9c0.1,0.3,0.1,0.6,0.1,0.8c-0.2,2.5-0.9,5.1-2.1,7.8c-1.2,2.7-2.8,5-4.9,7c-0.9,0.9-2.5,1.9-4.8,2.8
		c-0.6,0.3-1.3,0.6-2.1,0.8c-1.2,0.3-2.4,0.3-3.3,0.1c-1.7-0.5-3.1-1.5-4.2-3.2c-1-1.4-1.8-3-2.3-4.6c-0.7,1-1.7,1.7-2.9,1.9
		c-1.9,0.4-3.5,0.2-4.8-0.6c-0.3,3.2-0.9,6.3-2.1,9.2c-0.4,1.3-0.9,2-1.5,2.3c-0.1,0.1-0.3,0.2-0.5,0.2c-0.5,0.1-1,0.1-1.4,0
		c-2.5-0.3-4.7-1.6-6.5-3.9c-1.1-1.4-2-3.2-2.8-5.2c-0.4,0.7-0.9,1.3-1.4,1.8c-1.2,1.1-2.7,1.9-4.5,2.3c-0.4,0.1-0.9,0.1-1.7,0.2
		c0,0.1,0,0.2-0.1,0.5c-0.3,1.7-1,3.3-1.9,4.7c-0.9,1.4-2.1,2.6-3.4,3.5c-1.1,0.7-2.1,1.2-2.9,1.4l-0.1,0c-0.2,0.1-0.5,0.2-1,0.3
		c-2.2,0.5-4.1,0.4-5.6-0.4c-0.4-0.2-0.8-0.4-1.1-0.8c-1.4-1.4-2.4-3.5-3-6.3c-0.6-2.8-0.7-5.7-0.3-8.6c0.5-2.9,1.5-5.1,3.1-6.7
		c1-1,1.8-1.8,2.4-2.3c0.6-0.5,1.3-0.8,2.1-1l0.1,0c0.9-0.2,1.4-0.3,1.4-0.3s0.2,0.2,0.6,0.6c0.4,0.4,1,1.3,1.6,2.8
		c0.2,0.5,0.1,0.8-0.1,0.8c-0.2,0-0.3,0-0.4,0c-0.1,0-0.3-0.3-0.6-0.7c-0.3-0.4-0.7-0.5-1.1-0.4c-0.4,0.1-0.9,0.5-1.4,1.3
		c-0.4,0.8-0.7,1.5-0.9,2.3c-0.2,0.8-0.2,1.7-0.2,2.9c-0.1,2,0.2,4.2,0.7,6.4c0.3,1.3,0.6,2.3,0.8,3c0.3,1.4,0.9,2.5,1.8,3
		c0.8,0.5,1.8,0.7,2.9,0.4c0.8-0.2,1.4-0.5,1.8-0.9c0.5-0.5,1.1-1.4,1.6-2.5c0.5-1.2,0.8-2.2,0.7-3c-1.3-0.2-2.4-0.7-3.2-1.5
		c-0.9-0.8-1.5-1.6-1.9-2.4c-0.1-0.4-0.3-0.9-0.5-1.6c-0.2-0.8-0.3-1.4-0.2-1.9c-0.1-1.2,0.2-2.2,0.8-3.2c0.5-0.8,1.3-1.4,2.3-1.6
		c0.3-0.1,0.5-0.1,0.7-0.1c0.4,0,0.9,0.1,1.3,0.5c0.4,0.4,0.7,0.8,0.9,1.3l0.7,1.3c0.1,0.3,0.1,0.5,0.2,0.6c0.5,1.1,0.8,2.3,1.1,3.5
		c0.2,0.9,0.3,1.5,0.3,2l0,1l0.9-0.2c0.7-0.2,1.6-0.5,2.6-1.1c0.9-0.6,1.6-1.4,2-2.3c0.3-0.6,0.5-1.3,0.7-2.1c-0.4-1-1-2.3-1.7-3.9
		c-0.3-0.8-0.7-1.7-1.2-2.9c-0.5-1.1-0.8-1.9-0.9-2.3c-0.1-0.4,0-0.7,0.3-1c0.3-0.3,0.6-0.5,1-0.7l0.5-0.2c1.5-0.3,3.1,0.2,4.9,1.7
		c1.5,1.4,2.6,3.2,3.3,5.4c0.5,2,1.3,4.5,2.4,7.7c1.1,3.1,1.8,4.7,2.1,4.6c0.3-0.1,0.7-1.3,1.2-3.6c0.5-2.3,0.9-4.6,1.2-6.8
		c-1.7-1.7-2.8-3.6-3.3-5.9c-0.1-0.6-0.2-1.1-0.2-1.5c-0.2-1.5-0.1-2.7,0.4-3.7c0.6-1.2,1.4-1.9,2.5-2.1c0.5-0.1,1.1,0,1.7,0.2
		c0.2,0.2,0.3,0.4,0.5,0.7c0.2,0.3,0.3,0.6,0.4,0.9c0.2,0.5,0.4,2,0.5,4.4c0.2,2.4,0.3,4.5,0.4,6l-0.1,1c1.4,1.1,2.7,1.5,3.9,1.3
		c1.6-0.4,2.6-1.1,3-2.3c0,0,0,0,0,0c-0.3-1.8-0.3-3.6-0.1-5.5c0.3-2.1,1-4,2-5.8c0.5-0.8,1.3-1.7,2.4-2.5c1.1-0.8,2.1-1.4,3-1.7
		l0.2,0c1.1-0.3,2.2-0.1,3.2,0.4c1,0.5,1.6,1.3,1.9,2.3c0.3,1.4-0.3,3.1-1.8,5.3l-3.8,5.6l0.8,2.4c0.4,1.1,0.9,2,1.3,2.7
		c0.5,0.7,1,1.3,1.7,1.7c0.8,0.5,1.9,0.7,3.2,0.4c0.9-0.2,1.9-0.6,2.8-1.3C179.5,185.3,180.5,183.5,181.7,180.6z M120.4,153.9
		c0.6-1.8,2.1-3.9,4.2-3.4c1.9,0.4,3.3,1.8,4.3,3.4c1.2-2.3,1.5-5.3,4.7-5.8c2.7-0.4,4.9,0.9,5.2,3.8c0.5,4.4-2,7.9-4.6,11.2
		c-0.4,0.6-1,1.9-1.9,2c-1.6,0.1-3-0.8-4.2-1.6C124.8,161.8,119,158.2,120.4,153.9z M153.8,155.5c0,0.2,0,0.4,0.1,0.8
		c0,0.2,0.1,0.4,0.1,0.5c0.2,0.5,0.6,0.8,1,0.9c0.1,0,0.2,0,0.4,0c0.4-0.1,0.7-0.2,0.9-0.5c0.2-0.2,0.4-0.6,0.7-1.2
		c0.4-0.9,0.8-2.1,1.1-3.4c0.2-0.8,0.4-1.5,0.6-2.1c-0.3-0.6-0.5-1.1-0.6-1.8c-0.1-0.3-0.1-0.6-0.1-0.7c-0.1-0.5-0.1-1,0-1.4
		c0.3-2.4,1.5-3.8,3.5-4.1l0.1,0c0.4-0.1,0.8,0,1.1,0.1c0.4,0.3,0.7,0.6,0.8,1c0.1,0.1,0.1,0.3,0.1,0.5c0.2,1.4-0.1,2.6-1.1,3.8
		c-0.2,0.2-0.4,0.4-0.8,0.8l0.5,0.4c0.4,0.2,0.8,0.4,1.4,0.6c0.6,0.2,1,0.4,1.4,0.5c0.1,0.1,0.3,0.2,0.7,0.3c0.4,0.2,0.7,0.4,1,0.7
		c0.9-0.4,1.8-0.9,2.6-1.7c0.8-0.8,1.5-1.5,2-2.3c0.3-0.4,0.6-0.6,0.8-0.6c0.2,0,0.3,0,0.4,0.1c0.1,0.1,0.2,0.3,0.3,0.5
		c0,0.1,0,0.3-0.1,0.6c-0.6,0.9-1.3,1.7-2.1,2.5c-0.9,0.8-1.7,1.4-2.7,1.9c0.7,0.7,1.1,1.4,1.2,2.3c0.2,1.3-0.2,2.5-1.2,3.7
		c-0.4,0.4-1,0.8-1.8,1.2c-0.9,0.4-1.7,0.7-2.5,0.8c-0.3,0-0.6,0.1-0.9,0l0-0.1c-0.4,0-0.7-0.2-0.9-0.4c-0.2-0.2-0.4-0.5-0.5-0.9
		c0-0.2,0-0.4,0-0.8c0.1-0.5,0.4-1,0.7-1.6c0.5-0.8,1-1.5,1.5-2.1l-0.7-0.6c-0.3-0.2-0.7-0.4-1-0.6c-0.4-0.2-0.8-0.4-1.2-0.7
		c-0.2-0.2-0.5-0.3-0.7-0.5c-0.1,0.6-0.3,1.2-0.4,1.7c-0.2,0.7-0.5,1.4-0.8,2c-0.7,1.3-1.1,2.1-1.3,2.4c-0.3,0.5-0.8,0.9-1.5,1.3
		c-0.7,0.3-1.3,0.5-2,0.5c-0.6,0-1.2-0.1-1.8-0.4c-0.6-0.3-1.1-0.6-1.5-1.1c-0.5-0.7-0.9-1.8-1.1-3c-0.4-1.9-0.7-3.4-0.8-4.4
		c-0.3-1.7-0.5-3.4-0.6-5.2c-0.1-0.3,0-0.6,0.1-0.7c0.1-0.1,0.3-0.2,0.5-0.2c0.6-0.1,1.2-0.2,1.6-0.2c0.4,0,0.9,0.1,1.3,0.3
		c0.9,0.4,1.5,1.3,1.7,2.5c0.1,0.4,0.1,0.9,0.1,1.5c0,0.6,0,1,0,1.2L153.8,155.5z M152.6,143.3c-0.3,0.1-0.6,0.2-0.8,0.3
		c-0.6,0.1-1.2,0.1-1.8-0.1c-0.6-0.2-1.2-0.5-1.7-0.9c-0.4-0.4-0.6-0.8-0.7-1.2c-0.1-0.4,0.1-0.7,0.4-1c0.3-0.3,0.7-0.5,1.1-0.6
		c0.8-0.1,1.5,0,2.2,0.4c0.7,0.4,1.2,1,1.6,1.7c0.1,0.4,0.2,0.7,0.2,0.8C153,143,152.8,143.2,152.6,143.3z M175.2,127.2
		c0.6-0.1,1.2-0.3,1.7-0.8c1-0.9,1.4-3,1.4-6.5c0-0.4,0.2-0.6,0.6-0.7c0.2,0,0.5,0,0.6,0.2c0.2,0.2,0.3,0.3,0.2,0.6
		c0,1.4-0.1,3.1-0.5,5c-0.4,2-1.2,3.4-2.4,4.3c-1,0.8-2.1,1.2-3.2,1.3c-0.7,0.1-1.3,0-1.9-0.3c-1.1-0.4-1.9-1.2-2.5-2.4l-0.1-0.1
		c-0.1,0.2-0.2,0.3-0.3,0.5c-0.1,0.1-0.2,0.2-0.2,0.3c-1.1,1.5-2.4,2.5-3.8,3c-0.2,0.1-0.5,0.1-0.9,0.1c-0.7,0.1-1.3,0-2-0.3
		c-0.7-0.2-1.2-0.6-1.6-1c-1-1-1.6-2.4-1.9-4.2c-0.1,0.2-0.3,0.5-0.4,0.7c-1,1.6-2.2,3-3.7,4c-0.7,0.5-1.8,1-3.3,1.4
		c-0.4,0.2-0.9,0.3-1.4,0.3c-0.8,0.1-1.5,0-2.1-0.3c-1-0.4-1.8-1.2-2.4-2.4c-0.4-0.9-0.8-1.8-1-2.7c-0.2,0.3-0.3,0.6-0.5,0.8
		c-1,1.6-2.2,3-3.7,4c-0.7,0.5-1.8,1-3.3,1.4c-0.4,0.2-0.9,0.3-1.4,0.3c-0.8,0.1-1.5,0-2.1-0.3c-1-0.4-1.8-1.2-2.4-2.4
		c-0.1-0.2-0.2-0.4-0.3-0.5c-0.5,1.7-1.2,3.1-2,4.2c-0.7,1-1.6,1.7-2.7,2.1l-0.5,0.1l-0.4,0.1l-0.1,0c-0.3,0-0.7,0-1-0.1l-0.1,0
		l-0.1,0c-1.1-0.3-1.9-0.9-2.4-1.8c-0.7-1.1-1.1-2.8-1.3-5c-0.1-0.9-0.1-1.9,0-3.1l0-0.1c0-0.2,0-0.6,0.1-1.2c0-0.6,0-1.2,0-1.7
		c-0.1-1.4-0.5-2.1-1.3-2c-0.2,0-0.3,0-0.4,0.1c-0.5,0.2-1.1,0.7-1.6,1.4c-0.6,0.8-1,1.5-1.4,2.4c0.1,2.2,0.2,4.8,0.1,8
		c0,0.3,0,0.6-0.2,0.8l-0.2,0.1l-0.3,0.1l-0.4,0c-0.6-0.1-1.1-0.4-1.6-0.8c-0.5-0.4-0.9-0.9-1.1-1.4c-0.2-0.5-0.3-1-0.4-1.7l0-1.2
		l0-2.7l0-2.6l0-0.4c0-0.3-0.1-0.6-0.1-0.9c-0.1-0.3-0.1-0.6-0.2-0.9c0-0.3-0.1-0.5-0.1-0.7c0-0.2,0-0.4,0-0.5
		c0.1-0.1,0.3-0.2,0.5-0.2c0.1,0,0.2,0,0.3,0c0.7,0,1.3,0.1,1.8,0.3c0.6,0.2,1.1,0.6,1.4,1c0.2,0.3,0.4,0.6,0.4,0.9l0.1-0.1
		c0.5-0.7,1.1-1.4,1.8-2c0.7-0.6,1.4-1,2-1.3l0.1-0.1l0.1-0.1c0.4-0.2,0.7-0.2,0.9-0.3l0.1,0c0.7-0.1,1-0.1,1-0.1s0.3,0.1,0.9,0.4
		c0.6,0.2,1.1,0.6,1.5,1.1c0.3,0.4,0.5,0.8,0.6,1.2c0.1,0.4,0.2,1.1,0.3,2c0.1,1.4,0.2,2.4,0.3,3l0,0.6l0.1,1.9c0,0.4,0,0.8,0,1.3
		c0,0.2,0,0.4,0,0.8c0,0.4,0,0.7,0.1,1c0,0.2,0.1,0.4,0.1,0.5l0.2,0.4c0.3,0.6,0.6,0.9,1.1,1l0.1,0c1.7-0.1,2.8-2,3.2-5.5
		c0-0.2,0.1-0.4,0.1-0.6c-0.1-0.5-0.2-0.9-0.2-1.4c-0.1-1.4,0-2.7,0.4-4c0.4-1.3,1-2.5,1.8-3.5c0.4-0.5,1-1,1.8-1.4
		c0.8-0.4,1.5-0.7,2.1-0.8l0.1,0c0.7-0.1,1.4,0.1,2,0.5c0.6,0.4,0.9,1,1,1.7c0.1,0.9-0.4,2-1.6,3.2l-2.9,3.2l0.3,1.6
		c0.2,0.7,0.4,1.3,0.6,1.8c0.2,0.5,0.5,0.9,0.9,1.3c0.5,0.4,1.2,0.6,2,0.5c0.6-0.1,1.2-0.3,1.9-0.6c0.7-0.4,1.5-1.4,2.5-3.2
		c0.6-1,1.1-1.9,1.4-2.8c0-0.9,0.2-1.9,0.4-2.8c0.4-1.3,1-2.5,1.8-3.5c0.4-0.5,1-1,1.8-1.4c0.8-0.4,1.5-0.7,2.1-0.8l0.1,0
		c0.7-0.1,1.4,0.1,2,0.5c0.6,0.4,0.9,1,1,1.7c0.1,0.9-0.5,2-1.6,3.2l-2.9,3.2l0.3,1.6c0.2,0.7,0.4,1.3,0.6,1.8
		c0.2,0.5,0.5,0.9,0.9,1.3c0.5,0.4,1.2,0.6,2,0.5c0.6-0.1,1.2-0.3,1.9-0.6c0.7-0.4,1.5-1.4,2.5-3.2c0.7-1.1,1.2-2.2,1.5-3.2
		c0.1-0.7,0.2-1.5,0.4-2.2c0.4-1.5,1.2-3,2.2-4.2c0.8-1.1,1.8-1.7,3-1.9l0.2,0c0.5,0,1,0.2,1.5,0.7l-0.1-0.4c-0.3-1.8-0.5-3.1-0.7-4
		c-0.1-0.5-0.2-1.2-0.2-2.1c-0.3-3.9-0.1-7.4,0.6-10.5c0.1-0.8,0.4-1.4,0.8-2c0.4-0.5,0.9-0.8,1.5-0.9l0.3,0c0.4,0.1,0.7,0.2,1,0.5
		c0.3,0.3,0.5,0.6,0.6,1c0.2,0.4,0.3,0.8,0.3,1.2l0,1.1l0.9,17.4l0,1.2c0.2,2,0.7,4.2,1.5,6.6c0.4,1.3,0.8,2.1,1.4,2.4
		C174.2,127.1,174.7,127.3,175.2,127.2z M176.1,85.7c-0.5,1.5-1.1,2.8-2,4.1c-0.9,1.3-1.9,2.1-3.2,2.5c-0.4,0.1-0.7,0.2-0.9,0.2
		c-0.9,0.1-1.8-0.1-2.6-0.5c-0.9-0.4-1.6-1-2.1-1.8c-0.7,1-1.6,1.9-2.7,2.6c-1.1,0.7-2,1.1-2.7,1.1l-0.1,0c-0.6,0-1.2-0.1-1.8-0.4
		c-0.6-0.3-1-0.7-1.4-1.2c-0.3-0.5-0.5-1.2-0.6-2l0-1.1c0-0.3,0-0.7-0.1-1c0-0.3-0.1-0.5-0.1-0.7c-0.2,0.2-0.4,0.3-0.6,0.5
		c-0.9,0.6-1.9,1-3.1,1.1c-0.2,0-0.6,0-1.1,0c0,0,0,0.1-0.1,0.3c-0.4,1.1-0.9,2-1.6,2.8c-0.7,0.8-1.5,1.5-2.5,1.9
		c-0.8,0.4-1.4,0.6-2,0.6l-0.1,0c-0.1,0.1-0.3,0.1-0.7,0.1c-1.5,0.1-2.7-0.1-3.5-0.8c-0.3-0.1-0.5-0.4-0.6-0.6
		c-0.6-0.9-1.1-2-1.3-3.5c-0.2,0.4-0.4,0.7-0.5,1.1c-1.2,2.4-2.4,4.2-3.5,5.5c0,0.2,0,0.5,0,1c0,0.5,0,1.1,0.1,1.9
		c0,0.5,0,1.2,0,2.1c1.1-0.2,2.1-0.4,3.2-0.7c2.4-0.6,4.8-1.3,7.3-1.8l0,0l0.1,0c0.6-0.1,1.4-0.2,2.1-0.2c0.7-0.1,1.5-0.1,2.4,0
		c0.4,0.1,0.9,0.2,1.3,0.4c0.5,0.2,0.9,0.6,1.2,1.1c0.1,0.2,0.2,0.5,0.3,0.7c0,0.1,0.1,0.2,0.1,0.4c0.2,0,0.3,0,0.5,0
		c1.4,0.1,2.9,0.2,4.3,0.5c0.7,0.2,1.4,0.4,2.1,0.7c0.6,0.3,1.3,0.7,1.6,1.4c-0.4-0.6-1.1-0.9-1.7-1.1c-0.7-0.2-1.3-0.3-2-0.4
		c-1.4-0.1-2.8-0.1-4.2,0c-0.2,0-0.3,0-0.5,0c-0.1,0.3-0.2,0.6-0.3,0.8c-0.5,0.9-1.2,1.5-1.9,1.9c-0.7,0.4-1.5,0.7-2.3,0.9
		c-0.2,0-0.4,0.1-0.6,0.1c-0.1,0-0.2,0-0.3,0l-0.3,0c-0.4,0-0.8-0.1-1.3-0.2c-0.2-0.1-0.5-0.2-0.7-0.3c-0.3-0.2-0.5-0.4-0.7-0.8
		c-0.2-0.4-0.1-0.7-0.1-1c0.1-0.3,0.1-0.5,0.2-0.7l0.1-0.2l0-0.1l0,0l0,0l0-0.1c0,0,0.1-0.1,0.1-0.2c0.1-0.1,0.1-0.1,0.1-0.2
		c0.2-0.2,0.4-0.4,0.6-0.5c0.4-0.2,0.8-0.4,1.2-0.5c0.8-0.2,1.5-0.2,2.3-0.2l0.5,0l0.5,0l0.5,0c-0.1-0.1-0.2-0.2-0.3-0.3
		c-0.2-0.1-0.4-0.2-0.7-0.2c-0.5-0.1-1.2-0.1-1.9,0c-0.6,0.1-1.3,0.2-2,0.2c-2.4,0.4-4.7,1.1-7.2,1.6c-1.2,0.3-2.4,0.5-3.6,0.6
		c0.1,1.6,0.1,3.6,0.3,6.1c0,1.2,0,2.3-0.1,3.1c-0.1,0.8-0.3,1.6-0.6,2.3c-0.2,0.5-0.5,1-0.9,1.4c-0.4,0.4-0.8,0.7-1.2,0.9
		c-0.4,0.2-0.8,0.3-1.2,0.3c-0.9,0.1-1.8-0.2-2.5-0.9c-0.7-0.7-1.3-1.4-1.7-2.3c-0.4-0.9-0.7-1.6-0.7-2c-0.2-1.1-0.2-2.3,0.1-3.6
		c0.2-1.3,0.6-2.5,1.1-3.6c0.1-0.3,0.3-0.5,0.4-0.8c-1.4,0.2-2.8,0.4-4.2,0.6c-1.2,0.1-2.5,0.3-3.7,0.4c-1.2,0.1-2.5,0.2-3.7,0.1
		c1.2-0.2,2.4-0.4,3.7-0.7l3.6-0.8c1.8-0.4,3.6-0.8,5.4-1.2c0.5-0.7,0.8-1.2,0.9-1.4l-0.3-3.1l-0.2-2.3c-0.1-0.6-0.2-1-0.2-1.3
		c-1,0.9-2,1.5-3,1.7l-0.7,0.1c-1.1,0.1-2.1-0.2-2.9-0.8c-0.8-0.6-1.2-1.5-1.5-2.6c-0.3-1.3-0.5-2.3-0.6-2.9l0-0.7
		c-0.1-0.9-0.1-1.5-0.1-2c-0.1-1.6-0.2-3-0.2-4.1c0-1.1,0.2-2.1,0.5-2.9c0.1-0.3,0.4-0.4,0.8-0.4c0.7-0.1,1.5,0.1,2.3,0.6
		c0.8,0.5,1.3,1,1.4,1.7c0.1,0.6,0.3,1.7,0.4,3c0.2,2.1,0.2,4.1,0,6.3c0,0.2-0.1,0.4-0.1,0.6c0,0.2,0,0.5,0,0.7
		c0,0.2,0.1,0.4,0.1,0.5c0.2,0.7,0.6,1.1,1.2,1.3l0.2,0c0.6-0.1,1.3-0.6,2.2-1.5l-0.2-2.2l0-0.3c0-0.2,0-0.5,0-0.6
		c-0.2-2.7-0.4-4.8-0.5-6.2c-0.1-0.8,0-1.3,0.2-1.7c0.3-0.4,0.7-0.6,1.1-0.6c0.5,0,1.1,0.1,1.6,0.5c0.6,0.4,1,1,1.3,1.8
		c0.3,0.7,0.5,1.6,0.7,2.7l0.8,5.3c0.1,0.2,0.1,0.7,0.2,1.3c0.1,0.6,0.2,1.2,0.2,1.7c0.9-1.2,1.8-2.9,2.8-4.9c0.6-1.2,1-2.2,1.4-3.1
		c0.1-1,0.3-1.9,0.6-2.9c0.5-1.8,1.4-3.1,2.6-4c0.7-0.6,1.3-1,1.8-1.2c0.4-0.3,0.9-0.4,1.4-0.5l0.1,0c0.6-0.1,0.9-0.1,0.9-0.1
		s0.1,0.1,0.3,0.4c0.2,0.3,0.5,0.9,0.8,1.9c0.1,0.3,0,0.5-0.1,0.5c-0.1,0-0.2,0-0.3,0c0,0-0.2-0.2-0.3-0.5c-0.2-0.3-0.4-0.4-0.7-0.4
		c-0.3,0-0.6,0.3-1,0.7c-0.3,0.4-0.6,0.9-0.7,1.4c-0.2,0.5-0.3,1.1-0.4,1.8c-0.2,1.3-0.3,2.7-0.1,4.2c0.1,0.9,0.2,1.5,0.2,2
		c0.1,0.9,0.4,1.6,0.9,2.1c0.5,0.4,1.1,0.6,1.8,0.5c0.5,0,0.9-0.2,1.2-0.4c0.4-0.3,0.8-0.8,1.2-1.5c0.4-0.7,0.7-1.3,0.7-1.9
		c-0.8-0.3-1.5-0.7-1.9-1.3c-0.5-0.6-0.8-1.1-1-1.7c-0.1-0.2-0.1-0.6-0.2-1c0-0.5,0-0.9,0-1.2c0.1-0.7,0.3-1.4,0.8-2
		c0.4-0.5,0.9-0.8,1.6-0.8c0.2,0,0.3,0,0.4,0c0.3,0,0.6,0.2,0.8,0.4c0.2,0.3,0.4,0.6,0.5,0.9L151,83c0,0.2,0.1,0.3,0.1,0.4
		c0.2,0.8,0.3,1.5,0.4,2.3c0,0.6,0.1,1,0,1.3l-0.1,0.6l0.6-0.1c0.5,0,1.1-0.2,1.8-0.5c0.6-0.3,1.1-0.7,1.5-1.3
		c0.1-0.2,0.2-0.4,0.3-0.6c0-0.3-0.1-0.9-0.1-1.5c-0.1-1.1-0.1-2.1,0-3.2c0-0.2,0.1-0.6,0.1-1.2c0-0.6,0.2-1.1,0.4-1.4
		c0.2-0.3,0.6-0.5,1-0.6l0.2,0c0.8-0.1,1.4,0,2,0.3c0.5,0.2,0.9,0.7,0.9,1.3c0.1,0.7,0.1,2.1,0.1,4.2c0.1,3.1,0.1,4.9,0.2,5.4
		c0.1,1.4,0.3,2.3,0.7,2.5c0.3,0.2,0.6,0.3,0.8,0.2c0.5,0,0.9-0.3,1.4-0.7c0.5-0.4,1-0.9,1.3-1.6c-0.2-0.5-0.3-1.3-0.5-2.3
		c-0.1-0.9-0.2-2.2-0.3-3.8c-0.1-1.6-0.1-2.7-0.1-3.1c-0.1-1.1,0-1.8,0.3-2c0.6-0.4,1.2-0.7,1.9-0.7l0.4,0c1,0.1,1.7,0.3,2.1,0.8
		c0.3,0.4,0.5,0.9,0.6,1.4c0,0.3,0,0.7,0,1.2c-0.2,2-0.2,3.8,0,5.3c0.1,1.6,0.4,2.8,0.8,3.7c0.4,0.9,0.8,1.4,1.4,1.3
		c0.2,0,0.3,0,0.4-0.1c1-0.5,1.9-1.7,2.6-3.6c0.7-1.9,1.2-3.7,1.4-5.5c0-0.2,0.1-0.3,0.2-0.4c0.1-0.1,0.3-0.2,0.4-0.2
		c0.2,0,0.3,0,0.4,0c0.1,0,0.2,0.1,0.2,0.3c0.1,0.2,0.1,0.4,0.1,0.5C176.9,82.9,176.6,84.2,176.1,85.7z M184.3,56.1
		c-0.7,0.1-1.4,0.1-2.1,0.1c-1.9,0-3.4-0.3-4.6-1c-1.9-1-2.7-2.4-3.8-4.1l-0.2-0.3c-1-1.7-2.2-3.6-4.1-4.9l-0.2-0.1
		c-0.1-0.1-0.1-0.2-0.1-0.3c0-0.1,0.2-0.1,0.3-0.1c1.1,0.3,2.1,0.7,3.2,1.1c1.4,0.5,2.7,1,4.1,1.4c1,0.3,2.1,0.5,3.1,0.7
		c1.5,0.3,3,0.6,4.5,1.2c2.5,0.9,3.7,2.2,3.6,3.8C187.9,55.5,185.4,55.9,184.3,56.1z"/>
</g>
</svg>
