<?xml version="1.0" encoding="utf-8"?>
<!-- Generator: Adobe Illustrator 22.1.0, SVG Export Plug-In . SVG Version: 6.00 Build 0)  -->
<svg version="1.1" id="Layer_1" xmlns="http://www.w3.org/2000/svg" xmlns:xlink="http://www.w3.org/1999/xlink" x="0px" y="0px"
	 viewBox="0 0 500 500" style="enable-background:new 0 0 500 500;" xml:space="preserve">
<style type="text/css">
	.st0{fill:#507282;}
	.st1{fill:#5A3B00;}
</style>
<g>
	<path class="st0" d="M123.9,165.8c3.6-0.6,5.1-2.3,5.5-5.1c0.4-2.1,0.9-4.5,1.3-6.6c1.1-6,3-11.7,5.8-17.3c3.8-7.5,6-9.2,14.3-11.5
		c1.1-2.6,2.1-5.1,3.4-7.9c2.3-5.3,10-9.2,15.6-8.1c3.2,0.6,5.8,2.3,7.2,5.5c2.8,6.2,5.1,12.4,4.9,19.4c-0.6,10.7-0.6,21.1-1.7,31.7
		c-0.9,7.9-2.6,15.6-4.5,23.2c-1.5,6.2-6,10.4-10.9,14.3c-0.4,0.4-1.1,0.6-1.7,1.1c-7.5,3-19.8-0.6-24.3-7.2c-4-5.8-7.2-11.9-8.5-19
		c-0.2-1.3-0.6-2.6-1.1-4.3c-2.3,1.1-4,2.1-6.2,3c-0.9,7-2.1,13.6-2.8,20.5c-0.4,4.5-1.5,8.9-3.2,13c-1.3,3.2-2.6,6.2-3.8,9.4
		c-1.3,3.4-2.6,6.6-6.4,8.1c-2.1,0.9-3.6,3.4-5.8,4.5c-4.5,2.3-9.4,3.2-14.5,2.8c-6.6-0.4-11.5-4-13.8-10.2
		c-3-7.7-4.3-15.8-0.4-23.6c1.3-2.6,1.1-5.1,0.4-7.9c-2.3-10.2-4.7-20.7-6.6-31.1c-1.1-5.3-1.3-10.7-1.9-16
		c-0.2-1.3-0.6-2.6-0.9-3.6c-2.6-0.2-3.6,1.5-4.7,2.6c-2.6,2.8-5.1,5.5-7.7,8.5c-4.7,5.5-8.3,11.7-11.5,18.3
		c-1.5,3.2-2.8,6.6-3.8,10c-1.9,5.1-1.5,10.2,0.4,15.1c1.3,3.4,4.9,6.2,8.1,6c3.6-0.2,7.7-3.4,8.1-7c0.4-3.6,2.3-5.1,5.3-6
		c1.9-0.4,3.8,0.6,4,2.6c1.1,5.5-3,13-8.3,14.5c-1.3,0.4-2.8,0.6-3.8,1.1c-4.7,2.3-9.2,1.7-13.8,0s-7.9-4.7-9.6-9.6
		c-2.1-6.4-2.8-12.8-0.4-19.2c1.7-5.1,3.4-10.2,5.5-15.1c1.3-3.2,3-6.2,4.9-8.9c3-4.5,6.4-8.7,9.8-12.8c1.7-2.1,3.8-3.8,6-5.5
		c3.6-2.8,7.5-5.1,11.1-7.7c6-3.8,13-4.9,19.8-6c1.7-0.2,3.6-0.2,5.3-0.4c12.1-1.5,20.9,4,26.8,14.3c4.5,7.7,7.7,15.8,8.1,24.7
		C123,163.4,123.4,164.5,123.9,165.8z M105.8,174.7c0.2-0.9,0.4-1.3,0.4-1.7c-1.3-9.8-3-19.6-5.8-29.2c-1.1-4-3.4-7.2-6.2-10.4
		c-1.3-1.5-2.8-2.3-4.7-2.3c-2.3,0-4.9-0.2-7.2,1.3c0,0.9-0.2,1.7-0.2,2.6c1.3,16.2,2.8,32.2,4,48.4c0,0.2,0.2,0.4,0.2,0.6
		c0.2,0.2,0.4,0.2,1.1,0.4C93.8,181.8,99.8,177.9,105.8,174.7z M157.5,197.5c5.1-4.7,6.4-6.4,7.9-11.9c1.9-7,3-14.1,3.4-21.1
		c0-0.9-0.2-1.7-0.4-2.8c-4.5-1.5-7-4.7-9.4-8.5c-1.9-3.2-4-6.4-6.6-10c-0.6,1.7-1.5,2.8-1.7,3.8c-1.1,8.3-2.1,16.4-2.8,24.7
		c-0.4,5.1,0,10.2,1.3,15.3C150.7,191.6,152.8,195.4,157.5,197.5z M83.8,223.1c0.4,2.3,2.1,3.6,3.8,4.5c2.1,0.9,4,0,5.8-1.1
		c4.9-2.8,8.1-7.2,9.6-12.6c1.7-6.4,2.6-12.8,3.6-19.2c0.4-3.2,0.4-6.6-0.9-10c-6.6,3-12.4,6.2-16.8,11.3c-0.9,3.2,0.6,6,1.3,8.7
		c1.1,4,2.6,8.1,3.6,12.4c1.1,3.8-0.9,6.2-4.7,6.4C87.4,223.5,85.7,223.3,83.8,223.1z M169.5,149.4c0.4-7.9,1.1-14.7,0.4-21.3
		c-0.4-3.4-1.1-6.6-3-9.6C160.3,126.4,161.2,138.7,169.5,149.4z"/>
	<path class="st1" d="M364.2,307.5c-0.6,0.9-1.1,1.1-1.1,1.5c-0.6,10.2-3,20-4.5,30c-1.1,6.8-1.7,13.8-2.6,20.7
		c-0.9,6.2-1.7,12.6-2.3,18.7c-0.2,2.3-0.4,4.9-0.6,7.5c-0.2,3-1.3,5.3-4,6.4c-2.8,1.3-7.5,0-9.4-2.3c-0.6-0.9-1.1-1.9-1.1-3
		c-0.2-1.5,0-3.2,0.2-4.7c2.1-17.7,4.3-35.4,6.6-52.8c1.3-8.9,3-17.7,4.3-26.6c1.9-11.3,3.8-22.6,5.5-33.9c0.6-3.4,1.5-6.6,4.5-8.7
		c3.6-2.8,7.2-2.3,10.2,0.9c1.9,2.3,3.2,4.7,3.4,7.9c0.4,9.2,1.9,18.3,1.5,27.7c-0.2,4,0,8.1,0.2,12.1c0.4,11.5,0.9,23,1.3,34.3
		c0,1.1,0.2,2.1,0.4,4.7c1.5-3.6,1.9-6.2,2.3-8.7c3.6-19,7-38.1,10.9-57.1c1.1-5.5,3.4-10.7,5.1-16c0.4-1.1,0.9-2.1,1.5-3
		c1.9-3.6,4.5-6.2,8.9-6c4.9,0.2,9.2,3.6,10.2,8.3c0.9,3.6,1.5,7.5,1.3,11.3c-0.2,14.3-0.6,28.3-0.9,42.6c0,5.3,0.4,10.9,0.6,16.2
		c0.2,3.4,0,6.8,0.2,10.2c0.4,8.1,0.6,16.2,1.5,24.3c1.3,10,3.2,20,4.9,30c-1.5,2.6-3.8,3-6.4,2.1s-5.1-1.9-5.8-5.1
		c-0.4-3.2-0.9-6.2-1.3-9.4c-0.6-5.1-1.5-10.2-2.3-15.3c-0.2-1.1-0.4-2.1-0.4-3.4c-0.4-8.9-0.9-17.9-1.5-26.8
		c-1.1-15.8,0-31.5-0.2-47.3c0-4.7,0-9.4,0-14.5c-2.1,1.3-2.1,3-2.6,4.7c-2.3,10.9-4,21.7-5.1,32.6c-1.7,16.4-3.4,32.6-5.1,49
		c-0.2,2.1,0,4.5-0.4,6.8c-0.6,4.3-1.5,8.3-2.3,12.6c-0.6,3-2.6,4.7-5.8,4.7c-0.6,0-1.3,0.2-1.9,0.2c-5.1,0.4-7.7-1.1-9.2-6
		c-2.1-6.6-3.8-13.4-4.9-20.2c-2.6-16.2-3.4-32.6-3.6-49C364.8,312.8,364.4,310.2,364.2,307.5z"/>
	<path class="st1" d="M158.8,309.8c-0.4,0.9-0.9,1.9-1.1,2.8c-1.5,8.5-2.8,16.8-4.3,25.4c-1.1,6.6-1.9,13.4-3.2,20
		c-1.1,6.4-2.6,12.8-4,19.2c-0.6,2.6-2.1,4.5-4,6c-2.6,2.1-6,2.1-8.5-0.4c-2.1-2.1-3.2-4.7-3.2-7.9c0-6.4,0-12.6-0.4-19
		c-1.1-24.1-1.5-48.2-0.4-72.2c0-2.3,0-4.5,0-6.8s0-4.5,0.2-6.8c0.6-5.3,4.7-7.7,9.6-5.8c2.3,1.1,3.2,3,3.2,5.5
		c-0.2,9.4-0.2,19-0.6,28.3c-0.2,7.2-0.4,14.3,0.2,21.5c0.4,4.7,0.2,9.4,0.2,14.1c0,1.9,0,4,0.9,6.2c0.2-1.7,0.6-3.2,0.9-4.9
		c0.2-1.5,0.6-3,0.9-4.7c1.5-14.7,5.3-28.8,9.6-42.8c1.3-4.5,3.2-8.9,5.3-13.2c2.6-5.5,8.9-6.8,13.4-3c0.9,0.6,1.5,1.9,1.7,2.8
		c0.4,3.6,1.1,7.2,1.1,10.7c-0.2,8.9-0.9,17.9-1.3,27.1c-0.4,9.8-0.6,19.8-0.9,29.6c-0.4,8.9,0.4,17.9,1.5,28.1
		c0.9-1.9,1.5-2.6,1.7-3.4c1.3-9.8,2.3-19.6,3.4-29.4c0.4-3,0.9-5.8,1.3-8.7c1.9-11.3,4-22.6,6-33.9c0.2-1.3,0.4-2.8,1.1-3.8
		c2.6-5.8,3.6-12.1,5.1-18.1c0.2-1.1,0.6-2.1,0.9-3.2c0.6-2.3,2.1-3.8,4.5-4.7c2.6-0.9,4.9-0.6,6.8,2.1c-1.9,6.6-3.4,13.2-5.8,19.8
		c-3,8.5-4.3,17.5-6.2,26.2c-0.9,4.5-1.3,8.9-2.1,13.4c-2.6,12.8-3.4,25.8-4.9,38.8c-0.9,6-1.3,12.1-3.2,17.9
		c-1.3,3.6-3.4,6.4-7.2,7.2c-5.3,1.3-8.9-0.2-10.7-5.5c-1.7-5.3-3-10.9-3.4-16.4c-1.1-12.8-1.7-25.6-2.3-38.4
		c-0.2-5.8-0.2-11.7-0.4-17.5c0-0.9-0.2-1.5-0.2-2.3C159.5,309.8,159,309.8,158.8,309.8z"/>
	<path class="st1" d="M281.3,346.9c1.1-10.7,1.7-21.5,3.4-32.2c1.5-9.8,4.3-19.4,6.8-28.8c1.9-6.8,5.1-13,9.2-18.7
		c4-5.8,9.4-9.4,16.8-10c4.3-0.4,8.3-1.1,12.8-0.2c4,0.6,6,3,6.6,6.6c0.9,5.8,1.9,11.5,1.5,17.5c-0.4,5.5-0.2,11.3-0.9,16.8
		c-0.9,8.5-2.1,16.8-3.4,25.4c-2.1,13.8-6.4,27.1-10.4,40.3c-1.5,4.9-4,9.6-6.6,14.1c-1.5,2.6-3.6,4.7-5.8,6.6
		c-3.6,3-7.7,4.5-12.6,2.1c-1.1-0.4-2.1-0.6-3.2-1.1c-4-1.1-6.8-3.6-8.1-7.5C282.6,363.9,280.7,363.1,281.3,346.9z M304.3,379
		c3.6-2.6,3.8-2.3,4.9-4.9c2.1-4.5,4.3-8.9,6-13.6c1.9-5.1,3.4-10.2,4.7-15.6c2.8-10.4,5.3-20.9,6.4-31.7
		c1.1-10.4,1.9-21.1,2.3-31.5c0.2-5.1-0.6-10.2-1.3-15.3c0-0.9-1.1-1.9-2.1-2.3c-1.3-0.6-2.6,0-3.4,1.3c-0.2,0.4-0.4,0.9-0.6,1.1
		c-2.8,6-6,11.7-7.9,17.9c-3.4,10.4-6.6,21.1-9.2,31.7c-3.6,14.9-6,30-4.9,45.4c0.2,3.8,0.9,7.7,1.7,11.3
		C301.6,375.2,302,377.6,304.3,379z"/>
	<path class="st0" d="M216.1,124c-4,1.3-5.3,4-6.4,6.8c-3.4,9.2-5.8,18.5-6,28.1c-0.2,8.7-0.2,17.5,0,26.2
		c0.2,7.5,1.3,14.7,3.8,21.7c1.5,4.5,4.5,6.6,8.9,6.8c2.3-5.3,2.3-11.1,2.6-16.6c0.2-9.6,0-19.4-0.2-29c0-1.7-0.2-3.6-0.2-5.8
		c-1.3-0.6-2.8-1.1-4-1.7c-0.9-0.6-1.5-1.7-1.5-2.8c0-0.9,0.9-2.1,1.7-2.6c1.5-0.9,3.4-1.5,5.1-1.5c6.6-0.2,13-0.4,19.6-0.4
		c1.1,0,2.1,0.4,3.2,0.9c1.9,0.9,2.8,3.8,1.3,5.1c-4,3-4,7.7-5.1,11.9c-2.8,10.4-2.3,21.3-3.6,32.2c-0.4,4.7-2.1,8.7-4.7,12.4
		c-2.8,4-6.6,6-11.5,6c-6.8,0-13-1.5-19-5.3c-6.4-4.3-9.8-9.2-11.5-16.4c-3.6-14.5-4-28.8-1.7-43.5c1.7-10.4,5.1-20.5,9.4-30.3
		c2.8-6,7.2-9.6,13.6-10.9c1.3-0.2,2.8-0.6,4-0.6c2.3,0,4.5-0.2,6-2.3c0.2-0.4,0.6-0.6,1.1-0.9c1.7-1.3,3.6-2.1,5.8-1.1
		c2.1,1.1,2.3,3.2,2.1,5.3c-0.2,7-0.4,13.8-2.1,20.7c-0.9,2.8-2.3,4.3-5.3,4c-2.8,0-4.5-1.7-4.7-4.7c-0.2-1.7,0-3.6,0-5.3
		C216.1,128.7,216.1,126.8,216.1,124z"/>
	<path class="st1" d="M101.9,334.3c-4.7-1.3-8.3,0.6-12.4,0.9c-1.5,3.4-1.1,6.8-1.1,10c-0.2,15.3-0.4,30.7-0.6,45.8
		c0,3.4-1.7,4.9-4.9,5.3c-2.8,0.4-5.3-1.3-6.2-4c-0.6-1.9-0.9-4-1.1-6c-0.4-6.2-1.1-12.6-1.1-18.7c-0.2-16.6,0.9-33.2,3.4-49.6
		c2.3-14.3,5.8-28.1,11.3-41.5c0.4-1.3,1.1-2.6,1.7-3.6c1.5-2.8,3.8-4.5,6.6-5.3c4.3-1.3,6.8-0.2,8.7,3.8c0.6,1.5,1.3,3,1.5,4.5
		c1.1,6.2,2.1,12.4,2.6,18.7c1.1,11.7,2.3,23.2,3.8,34.7c1.3,9.8,1.9,19.6,3.2,29.4c0.9,7,1.9,14.3,3.4,21.3
		c0.4,2.8,0.4,5.3-0.6,7.9c-0.9,1.9-2.3,2.6-4.3,3c-1.9,0.4-3.8-0.6-4.5-2.3c-1.3-3.4-2.8-6.8-3.2-10.2c-1.7-10-2.8-20-4-30
		C103,343.7,102.6,339.2,101.9,334.3z M96.4,288.1c-5.1,10-8.5,29.6-7,40.9c0.6,0,1.3,0.2,1.9,0.2c3-0.6,6-1.3,8.9-2.1
		c0.2-0.9,0.4-1.5,0.4-2.1c-1.1-11.7-2.1-23.6-3.2-35.4c0-0.4-0.4-0.9-0.6-1.1L96.4,288.1z"/>
	<path class="st1" d="M49.5,335.2c0,4.3-0.4,8.7-0.2,13.2c0.4,13.4,1.1,27.1,1.7,40.5c0.4,9.4-1.5,8.5-8.5,9.2
		c-0.4,0-0.9-0.2-1.3-0.2c-5.5-3.6-7.2-9.2-8.1-15.6c-1.7-13.8-1.7-27.7-1.7-41.8c0-4,0.2-8.1,0.2-12.1c0.4-12.8,0.9-25.6,1.3-38.4
		c0.2-4.3,1.1-8.5,1.7-12.8c0.6-3.8,2.3-6.8,6.8-7.2c1.1-0.2,2.3-0.4,3.2-0.9c5.5-2.6,11.3-2.1,17.3-1.5c7.2,0.9,11.3,5.1,13,11.7
		c1.5,5.3,1.7,10.7,0.9,16c-1.7,10.2-4.9,20-11.1,28.5C60.6,330,57,333,49.5,335.2z M50.2,274.6c1.1,7.9,0.2,15.8-0.2,23.4
		c-0.4,8.3-0.4,16.6-0.6,24.9c0,1.1-0.2,2.3,1.3,2.6c2.3-1.7,3.8-4.3,5.3-6.8c5.1-8.9,7.5-18.7,8.9-28.8c0.6-4.3-0.4-8.5-1.5-12.6
		c-0.4-1.7-1.5-3.4-3.4-3.8C56.8,273.4,53.6,272.9,50.2,274.6z"/>
	<path class="st1" d="M268.8,284.7c0.6-10.2,4.3-20.9,0.2-32.2c-1.1,1.1-2.1,1.7-2.6,2.6c-2.6,5.1-3.4,10.7-3.6,16.4
		c0,7.5,0,14.9,0.6,22.2c0.4,5.3,1.5,10.7,2.3,16c1.9,11.5,4.5,23,6.2,34.5c1.3,8.7,0.6,17.5-0.2,26.2c-0.4,4.7-1.1,9.4-2.1,14.1
		c-1.3,5.3-4.5,9.2-9.6,11.5c-8.3,3.8-18.3-1.1-19.8-10.2c-1.5-8.7,0.2-17,4.7-24.7c0.9-1.5,2.3-2.8,3.6-3.8c1.5-1.3,1.9-1.1,6,0
		c-0.6,1.3-1.3,2.3-1.9,3.4c-4.5,7.9-6.6,16.2-4.5,25.1c0.2,0.9,0.4,1.7,0.9,2.6c0.9,1.9,3,2.1,4.3,0.4c2.1-2.8,3.6-5.8,4.3-9.2
		c0.6-4,1.1-8.1,1.3-12.1c0.4-11.7-1.1-23.2-3.6-34.7c-2.3-10.4-4-21.1-5.5-32c-1.1-7.5-1.7-14.7-1.5-22.2c0.2-8.1,1.7-16,5.3-23.4
		c0.6-1.3,1.3-2.3,1.9-3.6c2.1-3.8,5.5-5.8,9.8-6.2c6-0.6,10,1.9,12.1,7.5c1.5,3.8,1.9,7.9,1.5,11.9c-0.4,4.9-1.3,9.8-2.1,14.7
		c-0.2,1.3-0.6,2.8-1.3,3.8c-0.6,1.1-1.5,2.3-2.6,2.8C271.5,287.2,270.2,286.4,268.8,284.7z"/>
	<path class="st0" d="M263.4,187.5c-4.3,3.4-5.8,7-6.8,11.1c-1.3,4.5-0.4,8.5,1.7,12.4c1.9,3.4,4.5,3.6,7,1.1
		c2.6-2.8,3.8-6.2,3.8-9.8c-0.2-6.4-0.6-13-2.6-19.2c-2.3-7.7-5.8-14.7-8.5-21.9c-3.4-8.5-6.6-17.3-9.2-26
		c-1.5-5.3-2.1-11.1-1.9-16.6c0.4-5.3,2.1-10,5.3-14.5c2.6-3.6,5.8-5.8,10.2-5.8c2.3,0,4.5-0.2,6.8,0c6.2,0.4,11.1,4.3,12.8,10.4
		c0.9,3.2,1.5,6.6,0.9,10c-0.4,2.6-0.6,5.3-1.3,8.1c-0.9,3.8-2.3,4.7-6.4,4c-0.6,0-1.3-0.4-1.7-0.6c-1.5-2.1-0.6-4.5-0.6-6.6
		c0-4,0.2-8.1-0.2-12.1c-0.2-2.8-0.9-5.8-3.6-7.7c-3,1.7-3.8,4.5-4.3,7.5c-0.4,3.4-0.6,6.8-0.2,10c0.6,6,1.9,11.9,3,17.9
		c0.4,2.3,1.5,4.7,2.6,7c3.8,9.6,8.1,19,11.7,28.8c1.7,4.5,2.6,9.2,3,13.8c0.4,5.5,0.2,11.3,0,16.8c-0.2,6.6-3.8,10.9-10,13
		c-7.5,2.8-14.7,1.7-21.3-2.6c-4.7-3-6-7.9-6-12.8c0-4.3,1.5-8.3,4-11.9c1.9-2.8,4.7-4.3,7.9-4.5C260,186.2,261.1,186.9,263.4,187.5
		z"/>
	<path class="st1" d="M453.9,264.8c-1.9,3-2.6,6.4-2.8,9.6c-1.1,9.4-1.9,18.7-3,28.1c-1.5,13.4-2.6,26.8-3,40.3c0,1.9-0.6,4-0.6,6
		c0,1.3,0,2.6,0.2,4.3c5.5-1.1,10.7-0.6,15.6-2.8c3-1.3,5.1-0.2,6.8,2.8c-1.9,3.8-5.8,4.7-9.4,5.8c-1.9,0.6-4,0.4-6,0.9
		c-2.3,0.6-4.7,1.3-7,2.1c0,6.8,0,13.4,1.3,20c4.7,0.4,8.9,0.9,13.2-1.7c2.6-1.5,5.8-0.2,7.5,2.6c0.6,1.1,0.2,2.3-0.6,3
		c-0.9,0.6-1.9,1.3-3,1.5c-2.6,0.6-5.3,1.1-7.9,1.7c-5.1,1.1-10.2,0.4-15.3,2.3c-3.4,1.3-8.7-0.9-9.4-6.2
		c-0.6-6.2-1.7-12.6-1.7-18.7c-0.2-18.7,0.6-37.3,3.2-55.8c1.9-14.3,3.8-28.5,6-42.8c1.7-11.3,0.6-10,11.5-10c6.6,0,13-0.4,19.6-1.5
		c2.1-0.2,4.5-0.2,6.6,0c1.5,0.2,2.6,1.3,2.3,2.8c-0.2,0.9-0.9,2.3-1.7,2.6c-3.6,1.1-7.2,2.3-11.1,2.8
		C461.1,264.8,457.5,264.6,453.9,264.8z"/>
	<path class="st0" d="M352.9,172.4c-1.7-0.2-2.6-0.4-3.4-0.4c-1.9,0.2-4,0.4-6.4,0.6c-0.4,1.9-0.9,3.4-1.1,5.3
		c-0.9,10.4-1.7,21.1-2.6,31.5c-0.2,1.9-0.4,4-0.9,6c-0.4,2.1-1.7,3-3.8,3.2c-2.3,0-4-1.1-4.5-3.2c-0.4-1.7-0.4-3.6-0.4-5.3
		c-0.4-14.3,0.9-28.3,3.6-42.2c2.6-13,6-25.8,11.7-37.9c0.9-1.7,1.5-3.2,2.3-4.9c1.1-1.9,2.6-3,4.5-3.8c3.8-1.3,6.6,0,7.7,4
		c0.6,2.1,0.9,4.5,1.1,6.6c0.2,2.1,0.4,4.5,0.4,6.8c0.6,17.7,1.1,35.4,1.7,53.3c0.2,5.3,0.9,10.7,1.3,16.2c0,1.7-0.2,3.6-0.6,5.3
		c-0.4,1.7-1.7,2.6-3.6,2.6c-1.7,0-3.2-0.9-3.6-2.3c-0.9-2.8-1.5-5.8-1.7-8.5c-0.6-8.7-1.1-17.5-1.5-26.2
		C353.3,176.9,353.1,174.9,352.9,172.4z M352.1,137.7c-5.3,7-6.6,15.1-8.1,23c-0.4,2.3-0.9,4.9,0.4,7.5c3-0.6,5.8-0.4,8.3-1.9
		C352.5,156.4,352.3,147,352.1,137.7z"/>
	<path class="st0" d="M385.7,190.3c0.6,0.9,0.9,1.5,1.5,1.9c6,5.5,8.1,4,11.9-1.1c0.6-0.9,1.5-1.7,2.1-2.3c3.8,2.6,4.3,6,1.1,7.9
		c-5.1,3-10.2,4.7-15.8,1.3c-0.4-0.2-0.9-0.2-1.5-0.2c-1.1,3.8,0.4,7.5,0.2,11.3c1.5,1.1,3,2.1,4.3,3.2c-0.2,0.6-0.2,1.3-0.6,1.3
		c-5.1,2.8-10.4,5.3-16.6,1.5c1.1-1.1,1.9-2.1,2.8-3c-4.3-27.1-3.2-53.7,2.6-80.1c-1.1-2.1-4.9-0.9-4.5-4.7c0.9-0.2,1.9-0.6,3-0.6
		c4.7-0.6,9.4-1.3,13.8-3c2.3-0.9,4.9-1.1,7.2-1.1c4,0,6.8,2.1,8.3,5.8c0.6,1.9,1.1,3.8,1.3,6c0.6,6,0.4,12.1-0.9,18.1
		c-0.9,4-1.9,8.3-3.2,12.4C398.9,174.5,394.9,184.1,385.7,190.3z M383.4,182.4c0.4,0.2,0.9,0.4,1.5,0.4c0.9-1.1,1.7-1.9,2.6-3
		c4.3-6.2,6.8-13.2,8.9-20.2c2.3-7.7,4-15.8,3.6-23.9c0-1.9-0.2-4-0.6-6c-0.4-2.8-2.1-3.6-4.9-3.2c-1.9,0.2-3.8,0.9-5.8,2.8
		C385.7,146.6,384,164.5,383.4,182.4z"/>
	<path class="st0" d="M422.2,121.2c7.9-0.2,15.1-0.4,22.4-0.4c0.6,0,1.5,0,1.9,0.4c0.4,0.2,1.1,0.9,1.3,1.5c0,0.6-0.4,1.5-0.6,1.7
		c-2.6,0.9-5.1,1.7-7.7,1.9c-2.3,0.4-4.9,0-7,0c-2.1,2.1-2.3,4.5-2.8,6.6c-1.5,10.4-3,20.9-4.3,31.3c-0.9,6.8-1.7,13.6-2.6,20.9
		c1.3,0.2,2.1,0.4,3,0.4c2.1-0.2,4.5-0.6,6.6-0.9c3.2-0.4,5.1,0,5.1,1.5c0,2.3-2.1,2.6-3.8,3.2c-1.5,0.4-3,0.9-4.7,0.9
		c-2.3,0.2-4.5,0.6-6.6,1.9c-0.2,4.3-0.4,8.5,0,12.8c3.2,1.5,6,0.9,8.7-0.2c1.5-0.6,2.6-0.4,3.8,0.2c0.6,0.4,1.5,1.3,1.5,2.1
		c0,0.6-0.9,1.7-1.5,1.9c-2.8,0.6-5.8,1.1-8.5,1.5c-2.3,0.4-4.9,0.4-7.2,0.9c-4.5,0.6-7.2-1.1-7.2-5.5c-0.2-7.7-0.4-15.3,0.2-23
		c1.1-19.4,5.3-38.4,8.9-57.3C421.3,124,421.7,122.7,422.2,121.2z"/>
	<path class="st1" d="M208.2,337.3c-0.2,0-0.9,0-1.5,0c-2.8-0.4-4-3.4-2.3-5.5c0.6-0.9,1.5-1.7,2.6-2.1c2.1-1.1,4.5-2.1,6.8-2.6
		c3.6-0.9,7.5-1.3,11.3-1.7c1.1-0.2,2.3-0.2,3.4,0c1.9,0.2,3.6,1.7,3.8,3.2c0.4,2.3-0.9,5.3-3,6.2c-0.9,0.4-1.7,0.4-2.6,0.6
		c-1.1,0.2-2.1,0.4-3.4,0.4C218.5,336.2,213.6,336.6,208.2,337.3z"/>
</g>
</svg>
