<?xml version="1.0" encoding="utf-8"?>
<!-- Generator: Adobe Illustrator 28.0.0, SVG Export Plug-In . SVG Version: 6.00 Build 0)  -->
<svg version="1.1" id="Layer_1" xmlns="http://www.w3.org/2000/svg" xmlns:xlink="http://www.w3.org/1999/xlink" x="0px" y="0px"
	 viewBox="0 0 300 300" style="enable-background:new 0 0 300 300;" xml:space="preserve">
<style type="text/css">
	.st0{fill:#221F1F;}
	.st1{fill:#F9CCD1;}
	.st2{fill:#E9E8E9;}
	.st3{fill:#FECD86;}
</style>
<g>
	<g>
		<g>
			<g>
				<path class="st0" d="M41.98,79.52c2.9,0.08,5.79-0.16,7.01,1.92c1.06,1.79,1.02,9.95-0.08,11.83c-1.1,1.88-5.26,1.79-6.28-0.08
					c-0.45-0.82-0.9-2.85-0.69-6.08c-0.94-0.28-3.26-0.04-3.26-0.04s0.12,3.71-0.45,4.49c-0.57,0.77-1.47,1.3-3.22,1.18
					c-1.26-0.12-2.94-0.65-2.94-2.73c0-1.55,0.08-3.02,0.08-3.02s-3.1,0-3.26,0.2c-0.45,0.73,0.53,5.3-1.26,6.61
					c-1.14,0.86-5.71,1.1-6.32-2.49c-0.57-3.55-0.29-8.08-0.04-9.05c0.2-1.02,1.22-2.32,3.87-2.73
					C28.56,78.99,36.97,79.36,41.98,79.52z"/>
				<path class="st0" d="M46.97,110.59c4.53,0.67,3.72,9.12-0.65,8.73c-3.43-0.31-21.03-4.21-23.23-5.34
					c-2.62-1.41-3.22-8.06,0.72-9.3c4.11-1.29,17.02-4.66,20.69-5.33c4.56-0.8,5.56,1.76,5.57,5.03c0.02,3.26-2.88,3.77-3.94,3.85
					c-1.06,0.13-8.15,0.65-10.35,0.99C35.79,109.22,44.68,110.24,46.97,110.59z"/>
				<path class="st0" d="M41.81,125.23c2.89-0.12,5.76-0.58,7.13,1.41c1.19,1.71,1.73,9.85,0.77,11.8
					c-0.96,1.95-5.12,2.17-6.27,0.37c-0.51-0.78-1.1-2.78-1.13-6.01c-0.96-0.22-3.26,0.19-3.26,0.19s0.39,3.69-0.13,4.51
					c-0.51,0.81-1.37,1.41-3.13,1.41c-1.27-0.03-2.98-0.44-3.12-2.51c-0.11-1.54-0.14-3.02-0.14-3.02s-3.09,0.22-3.24,0.44
					c-0.39,0.77,0.91,5.25-0.79,6.68c-1.08,0.94-5.62,1.51-6.48-2.03c-0.82-3.5-0.86-8.03-0.69-9.03c0.13-1.03,1.05-2.41,3.67-3
					C28.39,125.66,36.79,125.43,41.81,125.23z"/>
				<path class="st0" d="M30.98,169.52c-3.05-0.72-4.23-2.2-3.6-4.9c0.42-1.81,2.57-4.82,5.35-7.27c-1.86,0.47-4.36,1.05-5.23,1.29
					c-1.26,0.33-2.89-0.55-3.49-3.34c-0.56-2.8-0.98-3.67,2.4-4.45c4.01-0.93,21.21-4.75,21.69-4.86c1.17-0.19,3.53,0.23,4.31,2.89
					c0.83,2.69,3.19,11.99-4.27,14.47c-3.49,0.85-6.61-0.52-8.62-2.36c-1.36,1.15-2.04,2.77-3.72,5.63
					C34.61,168.73,33.69,170.19,30.98,169.52z M46.23,155.82c1.28-0.42,0.64-2.28,0.64-2.28l-3.35,0.73
					C43.52,154.27,44.17,156.51,46.23,155.82z"/>
				<path class="st0" d="M49.57,170.07c1.86-2.16,3.61-2.77,6.02-0.85c2.75,2.26,1.44,5.19,0.61,6c-0.82,0.85-2.76,3.22-2.76,3.22
					s0.86-0.1,3.8-0.28c2.54-0.17,4.29,0.75,4.9,3.72c0.52,2.51-0.71,4.28-2.94,4.53c-3.28,0.44-11.86-0.48-11.86-0.48
					s-5.69,3.22-7.87,4.26c-1.8,0.86-4.11,1.52-5.91-2.24c-1.6-3.35,0.42-4.41,1.35-5.03c1.05-0.73,8.94-4.28,8.94-4.28
					S47.69,172.28,49.57,170.07z"/>
				<path class="st0" d="M71.82,208c-1.24-0.36-2.32-2.58-2.91-3.62c-4.8,4.25-11.33,10.18-12.08,10.68
					c-2.03,1.45-4.21,1.81-5.64,0.19c-1.44-1.56-3.86-4.64,0.1-7.67c3.58-2.77,9.18-6.88,12.57-9.5c-1.06-1.03-3.21-2.38-3.29-4.21
					c-0.07-1.89,3.1-4.65,5.06-4.57c1.68,0.05,4.82,4.02,7.08,6.96c2.14,2.68,5.15,6.54,5.07,7.87C77.73,206,74.18,208.69,71.82,208
					z"/>
				<path class="st0" d="M79.46,240.54c-1.81-1.18-4.17-2.46-2-5.88c0.99-1.55,2.16-3.28,3.75-5.44c-0.94-0.64-2.11-1.4-3.18-2.14
					c-2.09,2.97-3.54,5.09-3.8,5.51c-0.72,1.04-2.35,2.22-4.16,1.04c-1.81-1.18-4.98-2.65-1.8-7.25
					c3.28-4.73,10.15-13.59,10.85-14.55c0.82-1.12,2.96-3.75,5.58-2.43c2.19,1.16,3.66,3.35,1.99,5.62
					c-0.94,1.28-2.48,3.44-4.82,6.69c1.07,0.68,2.24,1.5,3.28,2.21c0.49-0.6,2.39-3.11,3.57-4.51c1.51-1.78,2.86-4.23,5.12-3.17
					c2.24,1.09,4.75,3.24,2.62,6.28c-1.1,1.57-11.5,15.49-12.2,16.59C83.02,241.08,81.28,241.72,79.46,240.54z"/>
				<path class="st0" d="M102.25,227.35c0.58-1.26,1.78-4.57,4.19-3.96c2.43,0.58,5.11,2.16,4.02,4.94
					c-0.69,1.79-7.99,17.74-9.11,19.96c-0.75,1.54-2.1,2.54-4.12,1.75c-2.02-0.79-4.91-1.62-3.17-5.31
					C96.16,240.26,101.76,228.43,102.25,227.35z"/>
				<path class="st0" d="M114.85,240.61c1.26-4.61,2.02-9.96,4.08-11.23c1.52-0.94,5.35-0.29,5.85,2.56
					c0.53,2.89,1.29,9.27,1.46,8.9c0.16-0.34,1.7-6.47,2.24-7.86c0.58-1.37,1.75-2.44,3.56-2.09c1.84,0.35,4.11,0.89,3.33,4.52
					c-0.82,3.66-4.75,19-4.92,19.75c-0.83,3.16-2.81,3.57-4.6,3.15c-2.94-0.69-3.47-2-5.03-12.05c-0.3,1.44-0.72,4.65-1.03,6.13
					c-0.59,2.67-0.7,5.28-4.64,4.35c-3.37-0.8-3.89-1.97-2.68-7.09C113.68,244.49,114.24,242.82,114.85,240.61z"/>
				<path class="st0" d="M149.53,247.05c0.27,4.44,1.33,6.55,2.92,6.56c1.63,0.06,1.88-2.11,1.88-2.11s-0.49,0.01-1.47-0.34
					c-1.48-0.51-1.08-3.69-1.08-3.69c0.04-2.41,1.3-2.75,4.36-2.8c3.02-0.05,4.57-0.11,5.12,3.92c0.6,4.4-1.18,12.7-8.89,12.83
					c-6.48,0.1-10.79-6.48-10.92-14.8c-0.13-8.28,3.97-14.55,9.64-14.64c5.46-0.09,8.15,4.64,8.13,8.27
					c-0.06,3.67-3.1,2.82-5.14,2.81c-2.69,0-2.06-1.15-2.16-2.58c-0.06-0.9-0.58-0.73-0.83-0.6
					C150.28,240.23,149.26,242.57,149.53,247.05z"/>
				<path class="st0" d="M180.69,234.24c-0.45-1.31-1.85-4.54,0.32-5.76c2.16-1.25,5.2-1.94,6.31,0.82
					c0.73,1.78,6.39,18.38,7.11,20.76c0.51,1.63,0.21,3.29-1.79,4.1c-2.01,0.81-4.68,2.2-5.96-1.68
					C185.14,247.81,181.07,235.36,180.69,234.24z"/>
				<path class="st0" d="M208.03,228.47c1.85,0.04,6.76,1.21,9.14,5.02c2.07,3.42,1.52,9.35-3.42,11.89
					c-4.31,2.24-9.26,0.85-11.81-2.02c-2.53-2.84-0.75-4.58,0.44-5.54c1.18-0.99,3.05-1.15,4.19-0.3c1.6,1.26,3.38,1.19,3.43,0.36
					c0.06-0.64-0.29-1.52-3.5-2.06c-3.57-0.61-6.87-1.56-9.6-5.41c-2.53-3.59-1.44-8.13,1.98-10.38c3.47-2.23,6.82-2.52,9.33-0.05
					c4.16,4.07,2.06,5.49-0.13,6.77c-2.29,1.34-2.8-0.39-3.94-0.92c-0.64-0.3-0.97,0.27-0.75,0.75
					C203.92,227.65,205.07,228.45,208.03,228.47z"/>
				<path class="st0" d="M242.08,200.9c5.94,5.17,8.02,12.72,2.91,19.09c-1.46,1.92-3.41,2.06-5.32,0.4
					c-1.88-1.63-11.45-10.08-15.04-13.36c-0.68-0.65-2.42-2.44-1.92-3.94C223.36,201.16,231.56,191.74,242.08,200.9z M237.59,206.62
					c-2.46-2.14-4.19-1.16-4.19-1.16l5.89,5.35C239.3,210.81,239.93,208.66,237.59,206.62z"/>
				<path class="st0" d="M237.08,183.87c1.23-2.16,3.96-1.93,7.45-0.15c3.49,1.78,11.35,6.64,12.23,4.34
					c0.63-1.65-9.36-6.84-12.76-8.95c-2.58-1.58-2.43-3.44-1.48-5.52c0.95-2.08,2.62-3.14,6.68-1.06
					c19.34,10.28,18.12,15.26,15.79,19.7c-2.14,4.08-6.24,6.45-12.49,4.32c-8.28-2.82-13.98-6.64-13.98-6.64
					C235.97,188.45,235.81,186.02,237.08,183.87z"/>
				<path class="st0" d="M261.03,160.94c3.93,1.1,6.62,0.94,7.15-0.53c0.43-1.2-0.66-1.55-1.23-1.82c-1.66-0.75-2.27-1.49-1.58-4.43
					c0.5-2.35,1.59-3.17,3.75-2.72c2.29,0.44,8.15,3.55,6.28,11.03c-1.56,6.25-7.82,8.43-16.7,6.13
					c-8.01-2.09-12.88-8.01-11.51-13.51c1.32-5.3,6.48-6.41,9.98-5.45c3.53,1.01,2.23,3.04,1.65,4.99
					c-0.59,1.87-1.15,1.39-2.58,1.42c-1.23,0.03-1.2,1.09-1.13,1.31C255.26,158.28,256.75,159.75,261.03,160.94z"/>
				<path class="st0" d="M276.35,123.35c2.71,1.59,3.4,3.35,2,5.75c-1.07,1.84-4.78,4.52-8.73,5.95c2.16,0.16,5.45,0.36,6.47,0.39
					c1.3,0.05,2.6,1.38,2.35,4.22c-0.29,2.84-1.37,3.7-4.79,3.46c-3.46-0.25-19.68-1.55-20.85-1.68c-1.13-0.16-3.02-1.24-2.98-4.02
					c0.07-3.8,1.93-4.03,7.37-3.51c-1.01-0.73-2.14-1.46-3.37-2.08c-3.39-1.68-3.26-3.51-3.16-4.97c0.11-1.46,1.47-4.51,3.98-4.09
					c2.18,0.4,5.44,3.34,9.13,6.63c1.59-0.54,3.9-1.97,6.85-4.86C272.13,123,273.96,121.91,276.35,123.35z"/>
				<path class="st0" d="M258.22,115.74c-2.89-0.1-5.79,0.14-7.01-1.95c-1.05-1.8-0.97-9.96,0.14-11.83
					c1.11-1.87,5.27-1.77,6.28,0.11c0.45,0.82,0.88,2.86,0.67,6.08c0.94,0.29,3.26,0.06,3.26,0.06s-0.1-3.71,0.47-4.48
					c0.58-0.77,1.47-1.3,3.23-1.17c1.26,0.13,2.93,0.67,2.92,2.75c-0.01,1.55-0.1,3.02-0.1,3.02s3.1,0.02,3.26-0.19
					c0.45-0.73-0.51-5.3,1.3-6.6c1.15-0.85,5.71-1.07,6.31,2.52c0.55,3.55,0.25,8.08,0,9.05c-0.21,1.02-1.23,2.32-3.89,2.71
					C271.64,116.34,263.24,115.93,258.22,115.74z"/>
				<path class="st0" d="M264.53,78.46c7.87,0,14.4,4.32,14.72,12.48c0.16,2.41-1.22,3.79-3.75,3.79c-2.49,0-15.25-0.08-20.11-0.2
					c-0.94-0.04-3.43-0.24-4.04-1.71C250.59,90.95,250.59,78.46,264.53,78.46z M264.9,85.73c-3.26,0-3.92,1.88-3.92,1.88l7.95,0.16
					C268.94,87.76,268,85.73,264.9,85.73z"/>
			</g>
		</g>
		<g>
			<path class="st1" d="M125.1,45.12c-1.27-0.2-2.62-0.12-4,0.26c-3.93,1.09-6.78,4.42-7.48,8.4c-0.06,0.35-0.12,0.7-0.18,1.04
				c-0.28-0.14-0.57-0.28-0.85-0.42c-5.19-2.57-12.9,0.04-14.13,6.09c-0.4,1.98-0.04,4.06,0.77,5.9c1.58,3.59,4.57,6.28,7.57,8.68
				c3.17,2.54,6.55,4.81,9.92,7.08c4.23,2.85,8.47,5.7,12.7,8.54c0.65,0.44,1.97,1.3,2.66,0.58c0.5-0.52,0.33-1.97,0.41-2.64
				c0.95-7.61,1-15.42,1.35-23.11C134.17,58.53,134.29,46.56,125.1,45.12z"/>
		</g>
	</g>
	<g>
		<path class="st2" d="M173.54,180.67c-3.06,0.9-6.07,1.98-9.2,2.63c-3.88,0.8-7.74,1.76-11.66,2.26c-2.62,0.34-5.38,0.5-7.9-0.84
			c-0.01-0.54-0.11-1.08,0.12-1.61c0.76-1.79,0.12-3.34-1.54-4.27c-1.48-0.83-2.91-0.83-4.55-0.53c-1.92,0.35-2.04,0.26-2.05,2.18
			c0,0.31,0,0.63,0,0.94c-2.5-0.46-4.9-1.23-7.27-2.13c-5.8-2.22-11.66-4.28-17.4-6.63c-4.76-1.95-9.51-4.02-13.79-6.94
			c-4.71-3.21-8.55-7.27-11.4-12.24c-0.17-0.3-0.27-0.65-0.38-0.98c-0.2-0.56-0.61-0.89-1.18-0.69c-1.61,0.56-3.09-0.11-4.58-0.49
			c-3.15-0.82-6.03-2.33-8.92-3.78c-2.09-1.05-2.69-2.57-2.05-4.85c0.12-0.44,0.06-0.73-0.24-1.05c-0.68-0.73-0.79-1.41,0.16-2.03
			c0.56-0.37,0.42-0.77-0.06-1.11c-0.6-0.43-1.19-0.89-1.82-1.27c-0.52-0.32-0.85-0.7-0.71-1.34c0.15-0.71,0.75-0.58,1.24-0.57
			c1.21,0.04,2.42-0.16,3.62,0.2c0.26,0.08,0.68,0.18,0.85-0.16c0.17-0.34-0.23-0.42-0.43-0.58c-0.57-0.44-0.93-0.99-0.63-1.71
			c0.33-0.79,1.05-0.89,1.78-0.79c0.45,0.06,0.89,0.25,1.55,0.45c-0.46-1.55-1.01-2.9-1.75-4.16c-0.65-1.11-1.43-2.14-2.15-3.21
			c-0.13-0.19-0.26-0.39-0.38-0.59c-0.27-0.48-0.34-1.01,0-1.43c0.34-0.43,0.83-0.23,1.3-0.1c1.74,0.45,2.66,2.01,4.05,2.93
			c0.59,0.39,1.14,0.82,1.71,1.23c0.27,0.19,0.44,0.69,0.83,0.47c0.33-0.19,0.17-0.65,0.15-0.99c-0.1-1.39,0.4-2.6,0.96-3.82
			c0.29-0.65,0.69-1.05,1.43-0.89c0.68,0.15,1.09,0.57,1.15,1.29c0.02,0.25-0.13,0.61,0.24,0.7c0.3,0.07,0.46-0.24,0.65-0.43
			c0.89-0.89,1.91-1.61,3-2.23c0.28-0.16,0.59-0.29,0.53-0.68c-0.05-0.36-0.41-0.31-0.64-0.42c-2.6-1.16-5.25-0.77-7.92-0.29
			c-1.8,0.32-3.6,0.62-5.41,0.85c-0.86,0.11-1.8-0.08-1.93-1.08c-0.13-0.97,0.63-1.34,1.56-1.52c5.57-1.09,11.13-2.29,16.71-3.35
			c1.94-0.37,3.94-0.46,5.92-0.62c5.08-0.42,9.75-2.12,14.43-4.08c7.17-3,14.03-6.75,21.52-8.97c3.04-0.9,6.15-1.37,9.27-1.79
			c4.05-0.54,8.16-0.52,12.21-1.13c2.87-0.43,5.76-0.2,8.64-0.01c1.86,0.12,3.25-1,3.67-2.83c0.62-2.69,1.39-5.36,1.72-8.1
			c0.25-2.05,0.16-4.15,0.06-6.23c-0.3-5.95-0.24-11.9-0.2-17.85c0.04-5.24,1.54-10.04,4.12-14.64c1.94-3.46,4.76-6,7.51-8.63
			c1.67-1.59,4.05-1.91,6.31-2.22c2.81-0.39,5.63-0.15,8.44-0.24c2.23-0.07,4.2,0.78,6.16,1.65c1.03,0.46,2.03,1,2.99,1.59
			c2.93,1.78,4.63,4.57,6.06,7.56c0.55,1.16,1.1,2.33,1.64,3.49c0.77,1.65,0.94,3.41,0.68,5.16c-0.18,1.2-0.02,2.49-0.66,3.62
			c-0.96-1.04-1.46-2.32-1.88-3.63c-0.42-1.32-1.12-1.57-2.03-0.61c-0.7,0.73-1.33,0.67-2-0.01c-0.52-0.53-1.06-1.04-1.57-1.58
			c-0.29-0.31-0.59-0.49-1.03-0.33c-0.44,0.16-0.42,0.52-0.42,0.87c0.01,0.82-0.18,1.59-0.37,2.39c-0.7,2.85-2.78,4.69-4.71,6.57
			c-1.17,1.14-1.38,1.94,0.02,2.75c1.9,1.1,3.84,2.14,5.77,3.21c-0.9,0.9-2.1,1.31-3.18,1.92c-2.1,1.18-2.83,3.21-3.7,5.29
			c-1.16,2.77-0.68,5.49-0.49,8.28c0.12,1.84,0.26,3.65,1.01,5.37c0.23,0.52,0.48,0.98,0.89,1.35c2.9,2.54,5.06,5.72,7.52,8.64
			c3.9,4.63,6.3,9.99,7.91,15.75c0.41,1.48,0.59,3.07,0.61,4.61c0.05,3.56,0.66,7.04,1.18,10.54c0.02,0.12,0.03,0.23,0.03,0.35
			c-0.16,5.11,0.36,10.24-0.43,15.34c-0.42,2.73-1.78,4.87-3.5,6.87c-1.31,1.52-3.03,2.6-4.43,4c-2.79,2.8-5.03,6.05-7.34,9.24
			c-1.42,1.96-3.48,3.23-5.21,4.85c-3.7,3.48-8.38,4.66-13.06,5.9c-1.69,0.13-3.17,1.1-4.87,1.22
			C173.98,179.89,173.63,180.2,173.54,180.67z"/>
		<path class="st3" d="M201.46,70.34c-1.92-1.07-3.86-2.11-5.77-3.21c-1.4-0.81-1.19-1.61-0.02-2.75c1.93-1.89,4.01-3.73,4.71-6.57
			c0.2-0.8,0.38-1.57,0.37-2.39c0-0.35-0.02-0.71,0.42-0.87c0.44-0.16,0.74,0.03,1.03,0.33c0.51,0.54,1.04,1.05,1.57,1.58
			c0.67,0.68,1.3,0.74,2,0.01c0.91-0.95,1.6-0.71,2.03,0.61c0.42,1.31,0.92,2.6,1.88,3.63c0.55,1.31,1.61,2.17,2.69,3.02
			c2.24,1.75,4.7,3.24,6.57,5.44c0.25,0.29,0.44,0.64,0.65,0.96c0.27,1.27,0.46,2.54-0.19,3.77c-0.78,0.72-1.68,0.83-2.67,0.57
			c-0.85-0.22-1.71-0.4-2.56-0.59c-2.09-0.48-4.25-0.01-6.34-0.46c-1.72-0.27-2.97-1.54-4.55-2.11
			C202.64,71.08,202.06,70.67,201.46,70.34z"/>
		<path class="st3" d="M194.55,197.17c-0.02-0.07-0.04-0.13-0.07-0.19c-0.35-0.83-1.2-1.32-2.04-1.65
			c-1.66-0.64-3.22-1.45-4.86-2.13c-2.89-1.19-5.43-2.82-6.48-5.92c-0.94-2.79-1.51-5.7-1.84-8.64c-1.69,0.13-3.17,1.1-4.87,1.22
			c-0.42,0.03-0.77,0.34-0.86,0.81c0.32,0.6,0.4,1.26,0.39,1.93c-0.02,2.28-0.72,4.4-1.4,6.54c-0.86,2.71-2.3,4.99-4.66,6.64
			c-2.48,1.73-3.8,4.82-3.78,7.8c0.01,1.33,1.21,1.41,2.27,0.96c0.61-0.26,1.14-0.68,1.7-1.05c1.42-0.92,4.23-2.2,5.94-1.49
			c1.47,0.61,1.91,2.68,3.19,3.57c1.01,0.7,1.6,0.72,2.43-0.19c0.85-0.93,1.65-1.89,2.34-2.97c2.39-3.77,7.01-4.51,10.87-2.98
			C194.22,200,194.88,198.29,194.55,197.17z"/>
		<path class="st3" d="M162.15,209.54c-0.13-1.37-0.95-2.43-1.74-3.46c-0.58-0.75,0.48-1.6,0.43-2.41
			c-0.06-0.93-0.91-1.81-1.65-2.27c-1.28-0.79-2.84-0.92-4.25-1.34c-1.63-0.48-3.3-0.85-4.3-2.45c-0.46-0.74-0.63-1.59-0.97-2.36
			c-0.79-1.77-2.08-3.25-2.83-5.04c-0.75-1.8-1.91-3.45-2.06-5.48c-0.01-0.54-0.11-1.08,0.12-1.61c0.76-1.79,0.12-3.34-1.54-4.27
			c-1.48-0.83-2.91-0.83-4.55-0.53c-1.92,0.35-2.04,0.26-2.05,2.18c0,0.31,0,0.63,0,0.94c-0.15,1.53,0.21,2.97,1.11,4.15
			c1.55,2.03,2.75,4.34,3.5,6.78c0.5,1.63,0.88,3.3,1.41,4.92c0.54,1.67,1.37,3.27,1.42,5.06c0.05,1.6-1.13,3.45-1.94,4.79
			c-1.04,1.72-1.69,3.58-1.72,5.61c-0.02,1.11,0.87,1.73,1.87,1.25c1.63-0.78,2.95-2.02,4.15-3.31c1.11-1.19,2.28-2.32,3.53-3.33
			c0.64-0.51,0.97-0.85,1.75-0.9c0.97-0.06,2.17,0.12,3.15,0.23c2,0.22,4.26,2.07,5.48,3.63c0.29,0.37,0.64,0.68,1.21,0.43
			C162.24,210.48,162.2,210,162.15,209.54z"/>
		<path d="M188.06,52.29c-0.98,0.06-1.88-0.38-2.68-1.05c-0.74-0.62-0.67-1.38,0.14-1.94c1.27-0.89,3.92,0.1,4.29,1.6
			C190.03,51.77,189.42,52.28,188.06,52.29z"/>
	</g>
</g>
</svg>
