<?xml version="1.0" encoding="utf-8"?>
<!-- Generator: Adobe Illustrator 25.2.0, SVG Export Plug-In . SVG Version: 6.00 Build 0)  -->
<svg version="1.1" id="Layer_1" xmlns="http://www.w3.org/2000/svg" xmlns:xlink="http://www.w3.org/1999/xlink" x="0px" y="0px"
	 width="500px" height="500px" viewBox="0 0 500 500" style="enable-background:new 0 0 500 500;" xml:space="preserve">
<style type="text/css">
	.st0{fill:#D54079;}
	.st1{fill:#EEA4AC;}
</style>
<g>
	<g>
		<g>
			<path class="st0" d="M364,149.9c-4.5-16-18.5-36-42.6-36.4c-10.7-0.1-22.6,1.3-31.7,10.5c-4.9,5.9-6.8,11.6-10.2,10.1
				c-3.3-1.5-5.1-4.5-4.2-11.4s6.6-16.7,11.9-23.1c5.1-6.3,15.6-20.3,18.5-27.1c2.9-6.6,2.6-15.3-1.9-20.6s-10-7.9-19.9-5.9
				c-10.1,1.9-12.1,10.2-12.1,10.2c-1.1,3.6-0.4,11,5.5,12.4c5.9,1.4,7.2-1,11.4-4.2c4.2-3.2,8.9,0,6.8,5.4
				c-2,5.4-4.3,13.2-15.3,24.9c-11,11.8-16.1,24.8-15.1,33.7s2.3,7.8,1.9,11.2c-0.4,3.4,3.1,19.6,19.3,22.9
				c5.8,3.3,9.5,13.3,25.3,11.2c0.4,0.4,0.9,0.8,1.3,1.1c4,6.4,9.8,16.6,10.7,23.6c0.4,2.3,0.5,7.9,0.6,14.8
				c-7.2,2.4-14.1,4.7-17.3,6c-7.9,2.9-9.7,6.3-8.9,16.7c0.8,10.5,4.1,1.7,3.8-1.7s-1.3-8.9,3.5-11c2.8-1.3,11.6-4.3,18.8-6.9
				c0.1,16.4-0.4,37.6-0.6,39.4c-0.4,2.6-7.9,4.6-11.6,4.7c-3.7,0.1-3.8,2.8-0.9,2.9c2.9,0.1,13.5,0.4,15.1,0
				c1.5-0.4,1.1-28.5,1-36.8c0-2.8,0.3-7,0.6-11.5c3.3-1.1,5.8-2,6.3-2.3c1.5-0.6,19.8-5,19.8-8.4c0-2.6-8.3-10.6-13.2-15.5
				c1,0.1,1.9,0,2.8-0.4c3.6,4.9,12.9,7.4,14.7,15.8c1.8,8.4,4.6,14.2,8.2,7.9S368.6,165.9,364,149.9z M346.9,201.1
				c1,0.5,2.8,2.4,1,3.6c-1,0.6-10.2,3.8-19.9,7c0.5-7.8,0.5-16.1-1.8-20.6c-2.9-5.5-3.8-8.6-3.8-11.1c1.4,0.3,2.8,0.4,4.6,0.4
				c0.3,0.4,0.6,0.8,1,1c2.9,3.6,7.7,9.1,9.8,10.5C341,194.4,345.9,200.6,346.9,201.1z"/>
		</g>
		<g>
			<path class="st1" d="M364,149.9c-4.5-16-18.5-36-42.6-36.4c-10.7-0.1-22.6,1.3-31.7,10.5c-2.4,2.9-4.2,5.9-5.8,7.8
				c0,0.8,0,1.7,0,1.5c0,1,0.1,2.2,0.1,3.2c0.3,3.4,0.1,1,0,0.4c0.3,1,0.4,2.2,0.6,3.2c0.6,2.8,1.5,5.6,2.7,8.4
				c0,0.1,0.1,0.3,0.3,0.5c0.6,1.2,1.1,2.3,1.8,3.4c2.3,4.2,5,8.2,7.2,12.4c1.3,2.6,2.6,5.1,3.7,7.8c2.9,1,6.5,1.4,11.1,0.8
				c3.7,3.2,7.8,7.4,15.3,6.9c4,4.5,11.5,10,16.6,8.2c3.6,4.9,12.9,7.4,14.7,15.8c1.8,8.4,4.6,14.2,8.2,7.9
				C369.9,206,368.6,165.9,364,149.9z"/>
		</g>
		<g>
			<path d="M286.1,57.1c-0.3-1.2-1.3-1.9-2.4-1.8c-0.3,0-0.5,0.1-0.8,0.3c-0.4-0.1-0.9-0.1-1.1,0.4c-0.5,0.9-0.4,2,0.3,2.9
				c0.6,0.8,1.8,1.2,2.7,0.8C285.6,59.2,286.2,58.3,286.1,57.1z"/>
		</g>
		<g>
			<path class="st1" d="M271.4,57.7c1.3-0.6,3.1,2.3,5.9,1.9c2.8-0.4,0.4,2.4,0.8,4.1c0.5,1.7,0.1,4.2,2.3,4.2
				c1.7-0.1-2.3,5.5-5.5,7c-3.1,1.5-0.9,11.9-0.8,13.3c-2.3-0.1-11.1-12.5-7.3-19.3c0.9-1.4,0.9-4,1.7-6
				C269.2,61,269.4,58.5,271.4,57.7z"/>
		</g>
		<g>
			<path d="M273.7,76.9c-0.5,0-0.9,0.1-1.4,0.1c-2.6,0-4.6-0.6-6.1-1.8c1.1,6.3,6.3,12.9,8,13C274.1,87.2,272.7,80.5,273.7,76.9z"/>
		</g>
	</g>
	<g>
		<g>
			<path d="M147.2,65.5c1.3-0.3,2.4-0.8,3.5-1c0.3,0,0.8,0.1,1,0.7c0.3,0.7,0.5,1.1,1,1.7c0.9,1.1,3.4,0.9,4-0.7
				c0.8-2.2-0.5-3.3-2-4.9c-3-3.1-4.9-4.7-6.2-7.6c-1.3-2.9-0.5-7.6,2.7-9.8c1.8-1.2,3.9-1.3,4.9-1.2c3.1,0.2,5.3,2.5,6.6,4.5
				c0.4,0.7,0.2,1.6-0.2,1.9c-0.4,0.3-0.8,0.6-1.6,1c-0.8,0.4-1.8,0.8-2.3,0.2c-1.3-1.4-2.4-1.6-3.2-1.5c-1.4,0.2-2.1,2.2-0.4,4.2
				c1.6,1.8,4.7,4,6.6,7c1.4,2.3,2,4.9,0.8,8.1c-2.4,6.4-11.2,7.2-14.8,2.3c-0.8-1.2-1.3-2.3-1.4-3.8
				C146.3,66,146.9,65.6,147.2,65.5z"/>
			<path d="M185.2,44.1c0,0.7-0.1,3.1-0.2,3.9c-0.1,0.7-0.7,1-1.1,1c-1.4,0.1-3.1,0-4.5,0.1c-0.1,1.4,0.1,20-0.2,23
				c-0.1,1.6-1.2,1.5-3.5,1.4c-1.1,0-1.5,0-2-0.2c-0.2,0-0.4-0.1-0.5-0.3c-0.4-0.6-0.3-2.2-0.3-4.4c0-1.1,0.2-14.8,0.1-19.6
				c-1.5,0-2.9-0.1-4.4-0.1c-0.7,0-1.1-0.6-1-1.2c0.1-1.4-0.1-2.8,0.1-3.9c0.1-0.4,0.4-0.7,1.4-0.7c1.9-0.1,5.1,0.1,14,0.1
				C184.8,43.1,185.2,43.3,185.2,44.1z"/>
			<path d="M206.1,73.1c-1.6,0.1-2.7,0.1-3.6,0.1c-1.1-0.1-1.6,0-2.1-1.7c-0.1-0.4-0.3-1.4-0.7-3c-1.5,0-4.2,0-6,0
				c-0.3,1.5-0.6,2.6-0.7,3c-0.5,1.7-1,1.6-2.1,1.7c-0.9,0-2,0-3.6-0.1c-1.6-0.1-1.1-1.8-0.8-3.2c0.2-1,6.9-25.5,6.9-25.5
				c0.2-0.7,0.7-1.1,1.1-1.2c0.1,0,0.4-0.1,0.5-0.1c0.3,0,3.1,0,3.4,0c0.1,0,0.4,0,0.5,0.1c0.5,0.1,0.9,0.5,1.1,1.2
				c0,0,6.6,24.5,6.9,25.5C207.2,71.3,207.7,73,206.1,73.1z M198.5,63.3c-0.6-2.8-1.3-6-1.9-9c-0.6,3-1.3,6.2-1.9,9H198.5z"/>
			<path d="M218.2,43.3c0.4,0.1,0.7,0.4,0.9,0.7c1.7,2.8,9.1,15.8,9.3,16.3c0.1-0.4-0.5-13.7-0.1-15.5c0.2-0.8,0.6-1.3,1.4-1.3
				c1.4,0,2.6-0.1,4-0.1c1.2,0,1.3,1.3,1.3,1.9c0.1,4.3-0.3,22.3-0.3,24.7c0,3.4-0.7,3.3-2,3.3c-1.8,0-2.2,0-3.5-0.2
				c-0.7-0.1-1-0.5-1.3-1.1c-0.5-0.9-6.9-12.2-8.5-15.6c-0.1,0.5-0.5,15.8-0.6,16c-0.1,0.6-0.5,1-1.1,1c-0.6,0.1-1.5,0.1-2.1,0.1
				c-0.9-0.1-1.7,0-2.4-0.6c-0.8-0.7-0.5-5-0.2-28.1c0-1,0.6-1.6,1.3-1.6C215.9,43.1,216.6,43,218.2,43.3z"/>
			<path d="M244.1,72.9c-1.3-0.2-1.7-1.5-1.7-2c0-1.8,0-9.4,0.1-16.2c0.1-2.8,0-7.5,0.1-8.7c0.1-1.9,0.6-2.1,1.6-2.4
				c1.5-0.4,4-0.5,5.5-0.2c7.5,0.7,11.5,5.1,12.1,10.9c0.4,4.5,0.6,8.1-1.5,13c-1.5,3.2-3.7,4.4-6.6,5.4
				C252,73.1,247.9,73.4,244.1,72.9z M248.9,67.2c5.8,0,7.2-3.8,7.2-8.7c0-4.7-0.5-9.2-7-9.2C248.7,52.1,249,65.5,248.9,67.2z"/>
		</g>
		<g>
			<path d="M221.2,156.6c0-0.9,0.6-1.4,1.2-1.5c3.1-0.3,6.6,0,9,0.4c0.4,0.1,1.2,0.3,1.6,0.5c3,1,4.7,2.9,5,5.5
				c0.3,2.7-0.8,5.4-2.2,6.9c0,0,0.7,0.1,2.3,1.6c3.8,3.6,3.5,13.8-4.7,15.1c-3.8,0.5-6.1,0.5-10.7,0.2c-2-0.2-1.8-0.9-2-5.1
				C220.9,169.5,221.1,167.7,221.2,156.6z M227.2,166.3c5.1,0.4,5.7-4.5,3-5.5c-0.9-0.4-2-0.4-2.8-0.4
				C227.3,161.7,227.3,164.4,227.2,166.3z M227.3,179.3c1.7,0.1,2.8,0.1,3.9-0.1c0.6-0.1,1.1-0.4,1.6-0.8c1.7-1.3,1.5-3.9-0.3-5
				c-1.3-0.9-3.8-0.8-5.1-0.6C227.3,175.1,227.3,177.3,227.3,179.3z"/>
			<path d="M252.4,178.9c1.8,0.2,6.1,0,6.8,0.2c1.5,0,1.4,1.9,1.2,4.4c-0.1,1.1-0.4,1.4-1.9,1.4c-0.4,0.1-0.9,0-3.1,0
				c-2.9-0.1-4.5-0.1-8.4-0.1c-0.4,0-0.9-0.5-0.9-1.4c-0.1-4.2,0-13.5,0-16.6c0-4.3,0-7.4,0.2-10.3c0.3-1.8-0.5-1.7,12-1.6
				c1.9,0,2.1,0,2.1,2c0,0.9,0.1,1.7,0,2.6c-0.1,0.6-0.5,0.8-1,0.9c-1.1,0.1-1.8,0.1-7,0.2c-0.1,0.9,0.1,4.4,0,6.1
				c0.9,0.1,2.3,0,5.1,0.1c0.3,0,0.5,0,0.8,0.2c0.3,0.1,0.4,0.5,0.4,0.8c0,1.3,0.1,2.9-0.1,4.3c-0.1,0.5-0.4,0.5-0.6,0.6
				c-0.6,0.2-1.5,0-5.3,0.1C252.4,173.2,252.5,177,252.4,178.9z"/>
		</g>
		<path d="M247.3,118.8c-3.8,0-10,12.7-15,12.7c-1.1,0-1.1-2.1-1.1-2.8c0-7.6,15.8-32.3,15.8-34.2c0-1.7-2-3.7-3.7-3.7
			c-1.4,0-2.3,0.9-3.1,2c-5.4,8.1-9.5,17.2-13.7,26c-0.9,1.9-1.9,3.6-3.1,5.3c-3.3,4.3-7,8.9-11.5,12.2c-0.9,0.6-1.9,1.3-3,1.3
			c-1.3,0-2-1-2-2.2c0-13,22-41.9,22-47.9c0-1.9-1.9-3.7-3.8-3.7c-1.4,0-2.5,1-3.1,2.2c-1.1,2.1-1.9,4.2-3.1,6.3
			c-4.7,8.5-9.5,17.1-14.1,25.6c-0.3,0.5-0.5,1-0.8,1.5c-3.6,3.3-7.9,11.9-11,11.9c-1.9,0-2.1-4.5-2.1-5.8c0-9,8.2-17.7,8.2-19.7
			c0-2.1-2.1-3.9-4.1-3.9c-2.3,0-3.6,2.8-4.6,2.8c-0.9,0-3-2.7-6.4-2.7c-7.7,0-15.7,11-17.6,18.9c-0.5,0.4-0.9,0.8-1.3,1.3
			c-2.8,3.6-13.4,17-17.4,17.7l-0.2-0.6c0.5-12.4,13.5-33.1,19.4-44.2c0.7-1.4,1.6-1.7,3-1.8c4.1-0.2,8.3-0.6,12.4-0.6
			c1.7,0,4.9,0.1,4.9-2.4c0-3.8-5.1-3.9-7.8-3.9c-1.9,0-3.8,0.4-5.6,0.4c-0.6,0-1.5-0.4-1.5-1.1c0-0.6,0.3-1,0.3-1.6
			c0-2.2-2.1-4-4.3-4c-3.6,0-3.3,7.3-7.6,7.8c-5.8,0.7-11.5,1.4-17.3,2.1c-1.4,0.2-2.5,0.9-2.5,2.4c0,2.1,3,3.6,4.9,3.6
			c3.8,0,7.5-1.1,11.2-1.1l1,0.1c0.1,0.2,0.1,0.3,0.1,0.5c0,0.6-17.7,29.5-17.7,43.1c0,4.5,3.6,8.4,8.3,8.4c1.6,0,3.1-0.6,4.3-1.4
			c1.1-0.8,2.2-1.5,3.3-2.3c1.8-1.5,7.9-7.7,12-12.8c1.4,1.6,3.5,2.6,6,2.6c4.6,0,6.6-3.3,9.8-5.9c1.7,5.1,4.2,10.7,10.5,10.7
			c2.2,0,4.2-1,5.8-2.5c0.7,4.6,4.3,8.5,9.2,8.5c6.3,0,11.9-5.9,15.8-10.3c0.9,0,3.3,4.7,7.8,4.7c2.6,0,5.9-1.6,7.9-3.3
			c1.9-1.6,10-10.3,10-12.2C251.2,120.6,249,118.8,247.3,118.8z M183,115.1c-1.1,1.7-7.5,11-9.3,11c-0.5,0-0.9-0.6-0.9-1.1
			c0-4.4,7-15.6,11.6-16.3l0.1,1C184.6,111.6,184,113.4,183,115.1z"/>
		<g>
			<path d="M175.2,191.4c-7.3,0-15.4-5.2-15.4-13.2c0-7.7,6.5-12.7,12.7-16.1c-0.6-2.5-0.9-5.1-0.9-7.7c0-7.3,3.6-14.5,11.8-14.5
				c5.5,0,9.8,4.2,9.8,9.8c0,8.3-7.8,12.2-14.2,15.5c1.9,5.1,4.8,9.8,8.5,13.8c5.7-5.3,8.8-11.5,11.7-18.6c0.4-1,1-1.6,2.1-1.6
				c1.6,0,3.7,1.4,3.7,3.1c0,0.2-0.1,0.5-0.1,0.7c-2.3,7.5-6.8,15-12.4,20.4c2.1,1.5,6.1,2.8,6.1,5.7c0,1.1-0.6,2.1-1.8,2.1
				c-1.6,0-6.7-3.5-8.1-4.6C184.9,189.2,180,191.4,175.2,191.4z M173.6,186.1c3.7,0,7.2-1.9,10.1-4c-4.1-4.1-7.3-9-9.5-14.4
				c-4.1,2.5-8.4,6.4-8.4,11.6C165.8,183.8,169.4,186.1,173.6,186.1z M177.1,155.3c0,1.4,0.1,2.7,0.4,4.1c3.8-2,9.7-5.6,9.7-10.4
				c0-1.9-1.2-3.7-3.3-3.7C179.2,145.3,177.1,151.6,177.1,155.3z"/>
		</g>
		<path d="M385.2,216.5c-4,0-16.7,8.4-18.7,8.4c-0.2,0-10.2-4.9-11.1-5.5c-0.4-0.2-0.9-0.6-0.9-1.1c0-3.6,11.8-10.6,15.2-10.6
			c0.7,0,2.1,0,2.1,1c0,4.6-7.3,7.5-7.3,9.6c0,1.9,2,3.1,3.8,3.1c4.3,0,9.8-7.8,9.8-11.9c0-4.7-4.3-7.5-8.7-7.5
			c-6.4,0-21.3,8.4-21.3,15.5c0,0.1,0,0.1,0,0.2c-3.4,2.9-8.2,9.5-10.8,9.5c-1.8,0-2.1-2.2-2.1-3.5c0-8.3,6.2-15.7,6.2-18.3
			c0-1.7-2-3.4-3.7-3.4c-1,0-1.9,0.6-2.5,1.4c-4.6,4.9-9.6,12.6-14.7,16.5c0-4.9,6.4-11.8,6.4-14.4c0-1.7-2-3.3-3.6-3.3
			c-1.3,0-2.4,0.9-3,1.9c-2.1,3.4-5.3,8.7-6.3,13.2c-2.5,1.4-5.4,3.8-7.7,3.8c-0.2,0-0.4-0.1-0.6-0.2v-0.4c0-0.8,4.2-5.7,4.2-10.8
			c0-4.3-3.5-7.7-7.7-7.7c-5.4,0-10.5,4.9-13.1,9.3c-1.7,2.8-3.6,5-4.9,7.6c-0.1,0.1-0.1,0.1-0.2,0.2c-2.4,3.3-10.4,13.8-14.5,13.8
			c-1.3,0-1.5-1.3-1.5-2.3c0-10.8,19.1-36.3,19.1-41.7c0-1.7-1.9-3-3.5-3c-1.1,0-1.9,0.9-2.4,1.8c-0.6,1.2-1.1,2.4-1.7,3.6
			c-3.4,6.3-6.9,12.6-10.4,18.9c-1.2,2.2-2.4,4.4-3.5,6.7c-3.4,2.3-8.9,10.2-11.7,10.2c-1.8,0-2.1-2.2-2.1-3.5
			c0-8.3,6.2-15.7,6.2-18.3c0-1.7-2-3.4-3.7-3.4c-1,0-1.9,0.6-2.5,1.4c-4.6,4.9-9.6,12.6-14.7,16.5c0-4.9,6.4-11.8,6.4-14.4
			c0-1.7-2-3.3-3.6-3.3c-1.3,0-2.4,0.9-3,1.9c-2,3.2-5,8.3-6.1,12.6c-2.5,0.7-5.2,2.1-7.2,2.1c-0.2,0-0.5-0.1-0.7-0.1
			c0.4-1.9,0.8-3.7,0.8-5.6c0-5.2-3.3-10.9-9-10.9c-6.4,0-10,4.4-14.7,7.9c1.8-3.8,11.5-20.7,11.5-22.6c0-1.8-1.7-3.3-3.5-3.3
			c-1.1,0-1.9,1-2.4,1.9c-2.5,4.7-12.1,22-17.5,33.4c-2.7,3.4-5.6,8.4-7.8,8.4c-1.7,0-1.9-3.9-1.9-5.1c0-7.8,7.1-15.3,7.1-17.1
			s-1.8-3.4-3.5-3.4c-2,0-3.2,2.5-4,2.5c-0.8,0-2.6-2.4-5.6-2.4c-6.1,0-12.3,7.8-14.7,14.4c-1.1,0.1-2.2,0.4-3.3,0.4
			c-2.7,0-10.4-1.3-10.4-5.1c0-1.8,12.6-22.8,12.6-24.9c0-1.6-1.9-3.3-3.4-3.3c-1.2,0-2.1,0.9-2.7,1.9c-2,3.3-3.6,6.8-5.5,10.1
			c-4.3,7.7-10.6,19.1-13,27.6c-0.7,2.7-1.3,5.5-1.3,8.4c0,5.2,2,10.9,8.2,10.9c4.9,0,7.6-6.9,8.6-10.9c0.7-2.7,0.7-5.6,0.7-8.4
			c0-0.7-0.1-1.7,0.9-1.7c1.9,0,3.8,0.7,5.8,0.7c0.5,0,1.2,0,2,0c0.4,3.7,3.1,6.8,7.1,6.8c4,0,5.8-2.9,8.5-5.1
			c1.5,4.4,3.6,9.3,9.1,9.3c1.6,0,3-0.6,4.3-1.5c0.7,0.7,1.7,1.1,2.7,1.1c1.3,0,1.9-1.4,2.4-2.4c2.7-5.6,17.9-22.9,24.6-22.9
			c2.1,0,2.1,2.5,2.1,4.1c0,2.9-0.8,5.9-2.3,8.4c-2.3,4-15,5.3-15,9.7c0,2.3,3.2,3.5,5.1,3.5c7.4,0,9.9-5.4,14.5-6.9
			c3.6-1.1,7.1-2.6,10.7-3.7c0.8,2.6,2.9,4.6,6,4.6c4.6,0,6.4-4.8,8.7-5.6c0.6,0.6,0.8,11.4,9.1,11.4c1.5,0,3-0.4,4.4-1.1
			c0.7-0.3,1.9-1.3,3.4-2.5c0.1,4.6,3.4,8.8,8.2,8.8c2.5,0,5.3-1.2,7.2-2.8c1.2-1,3.8-3.6,6.4-6.4c1.4,2.3,4,4,6.9,4
			c5,0,8.1-5.8,10.5-5.8c4.6,0,9.2-1,13.3-3.1c1.1,1.9,2.9,3.1,5.4,3.1c4.6,0,6.4-4.8,8.7-5.6c0.6,0.6,0.8,11.4,9.1,11.4
			c1.5,0,3-0.4,4.4-1.1c1.7-0.9,7-5.4,9.9-8.8c3.1,2.1,7.2,3.6,9.5,4.8c-0.9,1.9-19.5,11.3-19.5,18.1c0,3.7,4.5,5.2,7.6,5.2
			c8.2,0,23.3-5.6,23.3-15.6c0-1.9-1-3.6-1-5.4c0-1.7,12.7-7.2,14.9-8c1.2-0.4,2-1.1,2-2.4C388.9,218,386.8,216.5,385.2,216.5z
			 M137.5,236.5c-0.9,0-0.8-3-0.8-3.6c0-5.2,1.9-10.5,4.5-14.9c0.6,1.7,0.8,3.5,0.8,5.3C142.1,225.5,140.1,236.5,137.5,236.5z
			 M171.4,213.7c-0.9,1.5-6.5,9.5-8,9.5c-0.4,0-0.7-0.5-0.7-0.9c0-3.8,6.1-13.5,10.1-14.2l0.1,0.9
			C172.8,210.7,172.3,212.3,171.4,213.7z M289.6,227.4c-0.6,0-1.2-0.6-1.2-1.2s0.7-3.6,1.4-3.6c0.7,0,3,1.9,3,2.7
			C292.8,226.2,290.4,227.4,289.6,227.4z M296.6,221c-1.8,0-3.3-1.9-3.3-3.5c0-3.4,6.3-10,9.7-10c0.9,0,0.9,0.6,0.9,1.3
			C303.9,210.7,298.3,221,296.6,221z M350.8,245.2l-0.9-0.2c1.6-2.4,14.2-12.1,16.2-12.1c0.5,0,0.7,0.6,0.7,1
			C366.9,240.9,356.3,244.3,350.8,245.2z"/>
	</g>
	<g>
		<path class="st0" d="M213.4,37.1c-1.5-0.8-3-1.4-4.5-1.8c-0.7-0.2-1.4-0.4-2.2-0.5c-1-0.2-1.9-0.5-2.5-1.6
			c0.1-0.6,0.4-0.9,0.9-1.2c0.9-0.5,1.8-0.5,2.7-0.2c0.7,0.3,1.4,0.7,2.1,1.2c0.6,0.5,1.1,0.3,1.1-0.5c0-1.2,0.3-2.2,1-3.2
			c0.6-0.9,1.4-1.3,2.5-1.3c1,0,1.5,0.6,1.4,1.6c-0.1,1.3-0.5,2.6-1,3.9C214.5,34.6,214,35.8,213.4,37.1z"/>
		<path class="st0" d="M179.8,263.2c-1.5-2.3-3-4.2-4.8-5.9c-0.8-0.8-1.7-1.6-2.6-2.3c-1.2-1.1-2.2-2.2-2.2-4c0.6-0.7,1.3-1,2.2-1
			c1.6,0,2.9,0.6,3.9,1.8c0.8,0.9,1.5,2,1.9,3.1c0.5,1.1,1.2,1.2,1.8,0.2c0.9-1.6,2.2-2.8,3.8-3.7c1.5-0.8,3-0.7,4.4,0.1
			s1.6,2,0.7,3.3c-1.2,1.7-2.6,3.3-4.3,4.6C183.2,260.6,181.6,261.8,179.8,263.2z"/>
		<path class="st0" d="M376.2,180.8c0-2.2-0.3-4.3-0.8-6.2c-0.2-0.9-0.6-1.8-0.8-2.7c-0.4-1.3-0.6-2.5,0.2-3.7
			c0.6-0.3,1.4-0.1,1.9,0.2c1.1,0.7,1.8,1.7,2,3c0.1,1,0.2,2,0,3.1c-0.1,1,0.3,1.4,1.2,0.8c1.3-0.7,2.8-1,4.2-1
			c1.4,0.1,2.4,0.7,3.1,2c0.7,1.2,0.3,2.1-1,2.7c-1.5,0.7-3.3,1.1-5,1.4C379.7,180.4,378.1,180.6,376.2,180.8z"/>
		<path class="st0" d="M318.2,72c-0.8-1.5-1.7-2.9-2.7-4.1c-0.5-0.6-1-1.1-1.5-1.6c-0.7-0.7-1.3-1.5-1.2-2.7
			c0.4-0.4,0.9-0.5,1.5-0.5c1,0.1,1.8,0.6,2.4,1.4c0.5,0.6,0.8,1.3,1.1,2.1c0.2,0.7,0.7,0.8,1.1,0.2c0.7-1,1.5-1.7,2.6-2.1
			c1-0.4,1.9-0.3,2.8,0.3c0.8,0.6,0.9,1.4,0.3,2.2c-0.9,1-1.9,1.9-3,2.7C320.5,70.5,319.4,71.2,318.2,72z"/>
		<path class="st0" d="M311.1,121.8c-1.7-2-3.5-3.6-5.4-5c-0.9-0.6-1.8-1.2-2.8-1.9c-1.2-0.9-2.4-1.8-2.6-3.6c0.5-0.8,1.1-1.1,2-1.2
			c1.5-0.2,2.8,0.3,3.9,1.3c0.9,0.7,1.6,1.7,2.2,2.7c0.6,1,1.3,1,1.7-0.1c0.6-1.7,1.7-3,3.2-4c1.3-1,2.7-1.1,4.3-0.5
			c1.4,0.6,1.8,1.7,1.1,3c-0.9,1.8-2.1,3.5-3.5,4.9C314,119,312.6,120.3,311.1,121.8z"/>
		<path class="st0" d="M147.2,173.3c-2.4-1.2-4.9-2.1-7.2-2.7c-1.1-0.3-2.3-0.4-3.4-0.7c-1.6-0.3-3.1-0.8-3.9-2.4
			c0.1-0.9,0.7-1.6,1.4-1.9c1.4-0.8,2.9-0.9,4.4-0.4c1.2,0.5,2.3,0.9,3.4,1.8c1,0.7,1.7,0.5,1.6-0.8c-0.1-1.8,0.5-3.7,1.4-5.1
			c0.9-1.4,2.1-2.2,4-2.3c1.7,0,2.5,0.9,2.3,2.6c-0.2,2.1-0.7,4.2-1.3,6.3C148.7,169.3,148,171.2,147.2,173.3z"/>
	</g>
</g>
<g>
	<g>
		<path class="st0" d="M389.7,379.7c-4.2-14.8-17.1-33.4-39.4-33.6c-9.9-0.1-20.9,1.2-29.3,9.6c-0.3,0.3-0.6,0.7-0.8,1
			c-0.1,0.1-0.2,0.3-0.3,0.4c-0.1,0.2-0.3,0.4-0.4,0.6c-1.5,2-2.6,3.8-3.7,5.2c-1.4,1.8-2.6,2.8-4.2,2.1c-3.1-1.4-4.8-4.2-3.9-10.5
			c0.8-6.3,6.2-15.5,11-21.4c4.8-5.8,14.4-18.8,17.2-25.1c2.7-6.2,2.4-14.2-1.8-19.1c-4.2-4.9-9.2-7.3-18.5-5.5s-11.2,9.4-11.2,9.4
			c-1.1,3.3-0.4,10.1,5.1,11.5c5.5,1.3,6.6-1,10.5-3.9c3.9-3,8.2,0,6.3,5c-1.9,5-4.1,12.2-14.2,23c-10.1,10.9-14.9,22.9-14,31.3
			s2.1,7.2,1.8,10.4s2.9,18.1,17.9,21.1c3.8,2.2,6.6,7.4,13.1,9.6l0,0c0.3,0.1,0.7,0.2,1.1,0.3c0.1,0,0.3,0.1,0.4,0.1
			c0.5,0.1,0.9,0.2,1.4,0.3c0.1,0,0.2,0,0.4,0.1c0.6,0.1,1.2,0.1,1.8,0.2c0.1,0,0.3,0,0.5,0c0.6,0,1.3,0,2,0c0.1,0,0.3,0,0.4,0
			c0.8,0,1.5-0.1,2.4-0.2c0.4,0.3,0.8,0.7,1.2,1.1c3.7,5.9,9.1,15.3,10,21.8c0.3,2.2,0.5,7.4,0.5,13.7c-6.7,2.3-13,4.4-15.9,5.5
			c-7.3,2.7-8.9,5.8-8.2,15.5c0.7,9.7,3.8,1.6,3.6-1.6c-0.2-3.1-1.2-8.2,3.2-10.1c2.6-1.1,10.8-4.1,17.4-6.4
			c0.1,15.2-0.3,34.8-0.6,36.4c-0.4,2.4-7.3,4.3-10.7,4.4c-3.5,0.1-3.6,2.6-0.8,2.7c2.7,0.1,12.5,0.4,13.9,0s1-26.4,0.9-34
			c0-2.6,0.3-6.5,0.6-10.7c3-1.1,5.3-1.9,5.7-2.1c1.4-0.6,18.4-4.7,18.4-7.8c0-2.3-7.7-9.8-12.2-14.3l0,0c0.4,0,0.7,0,1.1,0
			c0.1,0,0.3,0,0.4,0s0.2,0,0.3-0.1c0.3-0.1,0.5-0.1,0.8-0.2c3.3,4.5,11.9,6.8,13.6,14.7c1.7,7.9,4.3,13.1,7.5,7.3
			C395.1,431.8,393.9,394.5,389.7,379.7z M373.8,427.2c1,0.5,2.6,2.3,1,3.3c-0.9,0.6-9.5,3.5-18.4,6.5c0.4-7.2,0.5-14.9-1.7-19.1
			c-2.7-5.1-3.6-7.9-3.6-10.2c0.3,0.1,0.6,0.1,0.9,0.2h0.1c0.3,0,0.6,0.1,0.9,0.1c0.1,0,0.3,0,0.4,0c0.2,0,0.5,0,0.7,0
			c0.4,0,0.8,0,1.2,0c0.3,0.3,0.6,0.7,0.9,1c2.7,3.3,7.1,8.4,9.1,9.7C368.3,420.9,372.9,426.7,373.8,427.2z"/>
		<g>
			<path d="M317.5,293.9c-0.2-1.1-1.2-1.8-2.3-1.7c-0.2,0-0.5,0.1-0.7,0.2c-0.4-0.2-0.8-0.1-1.1,0.4c-0.4,0.9-0.4,1.9,0.2,2.7
				c0.6,0.8,1.6,1,2.5,0.7C317.1,295.9,317.7,295,317.5,293.9z"/>
		</g>
		<g>
			<path class="st1" d="M304,294.4c1.2-0.5,2.8,2.1,5.5,1.7c2.6-0.3,0.3,2.3,0.8,3.8c0.4,1.5,0.1,3.9,2.1,3.9c1.5-0.1-2.2,5.1-5,6.6
				c-2.8,1.4-0.9,11-0.8,12.2c-2.2-0.1-10.3-11.6-6.8-17.8c0.9-1.3,0.9-3.7,1.5-5.6C301.9,297.5,302,295.3,304,294.4z"/>
		</g>
		<g>
			<path d="M306,312.3c-0.4,0-0.8,0.1-1.3,0.1c-2.3,0-4.2-0.6-5.7-1.7c1,5.8,5.8,12,7.4,12C306.4,321.8,305.1,315.5,306,312.3z"/>
		</g>
	</g>
	<g>
		<path class="st0" d="M126.1,386.3c1.7-0.8,3.4,0.8,4.3-1.9c0.4,3.7,2.4-2.2,3.8,1.7c-1.8-2.7,10.5-12.6,12-11.4
			c6.7-3.6,18-0.7,23.5,3.3c-1.7-3.9,9.1-13.6,11.6-11.6c-3.3-2.2,1.3-5.1,4.7-5.6c15.1,7.5,13.7-3.1,21.9,2.4
			c-5.7-9.3,9,4.3,2.5,2.2c1.6,1-1.2,9.8-5.3,13.6c-2.3,1.5-3.1-5-1.7,1c-2.7,7.3-12.2,18.6-22,22.1c-2.3,2.8-1.6-1.6-3.2-1.7
			c1.7,4.2-1.2,2.7-2.4-0.1c1.4,3.7,1,5.2-1.7,1.7c1.5,5.2-2.6,1.1-4.9,1.9c-9.7,0.1-16.8-0.8-21.4-5c1.9,2.7-4,0.7-4.2-1.7
			c-0.4,3.5-4.7-3.7-8.1-2.6c-2.5-0.7-6.1-1.5-5.7-7.5C129.9,394.5,129.5,393.2,126.1,386.3z M208.3,373.7c0.4-2.8-1.4-3.8-2.8-5.1
			C206.5,370.2,207.3,371.7,208.3,373.7z M171.5,397c-1.3,1.2,0.7,4.7,0.7,6.7C173.1,402.3,171.4,399.1,171.5,397z"/>
		<path class="st0" d="M132.7,344.2c-2.8,8.9,0.2-19.5,8.6-4.6c-2.8-4.5-4.4-7,1-5.6c2.5-1.3,9-4.9,10.7-2.2c2-4.4-0.8-6.6,7-4.7
			c-6.9-6.4,6.4,2.6,1.1-3.3c0.5-0.3,0.8,0.4,1.5,1c-2.1-4.9,9.5-3,8.5,2.6c0.1-1,0.1-2.1,0.3-3.8c1.2,2.7,5.6,0.9,5.6,7
			c-1.3-3.6,7.4-5.5,5.6-1.3c0.6,0.1,8.8-2.4,6.7,2.2c2.4-3.2,4.9,0.8,7,2.5c-1.7-0.8-6.2-3.1-6.5-0.4c2.4-0.9,2.5-0.2,1.7,2.2
			c3.5-0.9,9,6.3,15.3,6.8c5.8-0.8-9.2,9.7-0.3,4c-0.4,0.8-0.6,1.1-1,1.8c1.5-1.1,2.8-1.9,4.3-3.1c-4.9,7.3,0.6-1.4,2.9,1.4
			c-5.9,3.7,3.2-0.3-3.2,4.2c14.6-5.9-17.9,14.2-16.7,2.4c-0.7,2.2-7,2-4.6-1.4c-4.1,2.4-7.9-0.4-12,0.8c-0.8-5.2-10.4,8.8-8.5-3.1
			c-0.9,2.1-3.8,10.4-3.1,4.3c-0.6-0.3-0.9,1.1-1.3,1.7c0.2,1.9-3.5,3.1-5.6,2c-2.7,1.5-3.9,0.7-7.1,0.1
			c6.1,8.4-16.1,25.7-27.1,22.7c2.2-0.9-2.2-5.7,2.4-2.5c-0.7-2-2-6.3,1.8-4.6c-0.1-2.2-3.8-10.9,2.2-9.6c-1.8-1.8-3.2-4.2,0-4.9
			C124,356.2,135.7,349.3,132.7,344.2z"/>
		<path class="st0" d="M197.3,364.2c-3.1,0.7-5.4-2.1-8.2-3.2C193,359,194.3,362.9,197.3,364.2z"/>
		<path class="st0" d="M193.6,360.4c2.3-0.1,5.4-1,6.1,1.9C197.4,360.4,196,363.8,193.6,360.4z"/>
		<path class="st0" d="M211.3,361.1c-1.3-2-5.2,0.7-0.8-4C210.3,359.4,212.1,357.9,211.3,361.1z"/>
		<path class="st0" d="M126.1,386.3c0.1,1,0.1,1.9,0.3,3.5C125.3,386.4,119.9,387.3,126.1,386.3z"/>
	</g>
	<g>
		<g>
			<path d="M185.2,324.4c0-1.3,0.4-1.5,0.8-1.5c1.3-0.1,3.2-0.1,4.1,0c0.6,0.1,0.6,0.5,0.6,1.9c0,2.2-0.3,19.3-0.4,20.5
				c-0.1,1.2-1.2,1.1-3,1.1c-1.7,0-2.3-0.1-2.2-3.3C185.3,342,185.2,324.8,185.2,324.4z"/>
			<path d="M207.3,346.2c-1-0.1-1.3-1.2-1.3-1.6c0-1.4,0-7.4,0.1-12.7c0-2.2,0-5.9,0.1-6.9c0.1-1.5,0.5-1.6,1.3-1.9
				c1.2-0.3,3.1-0.4,4.4-0.2c5.9,0.5,9,4,9.5,8.6c0.4,3.6,0.5,6.4-1.2,10.2c-1.2,2.5-2.9,3.5-5.2,4.2
				C213.5,346.4,210.2,346.6,207.3,346.2z M211,341.7c4.6,0,5.7-3,5.6-6.8c0-3.7-0.4-7.2-5.5-7.2C210.8,329.9,211.1,340.4,211,341.7
				z"/>
			<path d="M241.2,331.2c0.1,3,0.7,10.3-3.5,14.4c-2.7,1.9-5.6,1.9-8.1,0.8c-3.5-1.8-4.4-7-4.2-12.4c0.4-6.6,2.3-11.3,7.9-11.4
				C239.5,322.5,241,328.6,241.2,331.2z M231.2,340.9c0.9,2.1,3.3,2,4.3-0.4c0.2-0.5,0.4-1,0.5-1.6c0.3-1.5,0.5-5.5,0.3-7.1
				c-0.4-3.4-1.4-4.7-3-4.6c-1.8,0.2-2.6,3.2-2.8,7.5C230.4,337,230.7,339.9,231.2,340.9z"/>
			<path d="M250.4,323c0.3,0.1,0.5,0.3,0.7,0.6c1.4,2.2,7.2,12.4,7.3,12.8c0.1-0.3-0.4-10.8-0.1-12.2c0.1-0.6,0.5-1,1.1-1
				c1.1,0,2-0.1,3.1-0.1c0.9,0,1,1,1,1.5c0.1,3.4-0.2,17.5-0.2,19.4c0,2.7-0.5,2.6-1.6,2.6c-1.5,0-1.7,0-2.8-0.1
				c-0.5-0.1-0.8-0.4-1-0.8c-0.4-0.7-5.4-9.6-6.7-12.3c0,0.4-0.4,12.4-0.5,12.6c-0.1,0.5-0.4,0.8-0.9,0.8c-0.5,0-1.2,0.1-1.6,0.1
				c-0.7-0.1-1.3,0-1.9-0.5c-0.6-0.6-0.4-3.9-0.2-22.1c0-0.8,0.5-1.2,1.1-1.2C248.6,322.9,249.1,322.7,250.4,323z"/>
			<path d="M270.2,324.3c0.2-0.7,0.5-1.1,1.9-1.1c1.4,0,2.6,0.2,2,1.9c-0.7,1.9-1.7,4-2,4.5s-0.6,1.5-2.2,1.4
				c-1.5,0-1.6-1.1-1.4-1.9C269.2,326.8,270,324.8,270.2,324.3z"/>
			<path d="M291.2,323.6c0,0.6,0,2.4-0.1,3c-0.1,0.5-0.5,0.8-0.8,0.8c-1.1,0.1-2.5,0-3.6,0.1c-0.1,1.1,0.1,15.7-0.1,18.1
				c-0.1,1.2-1,1.1-2.8,1.1c-0.9,0-1.2,0-1.6-0.2c-0.2,0-0.3-0.1-0.4-0.2c-0.3-0.5-0.2-1.8-0.2-3.5c0-0.8,0.1-11.6,0.1-15.4
				c-1.2,0-2.3-0.1-3.5-0.1c-0.6,0-0.8-0.5-0.8-0.9c0-1.1-0.1-2.2,0.1-3.1c0.1-0.3,0.3-0.5,1.1-0.6c1.5-0.1,4,0,11,0
				C290.8,322.9,291.2,323,291.2,323.6z"/>
		</g>
		<g>
			<path d="M217.3,362.5c-1.5,0.3-2.5,0.5-3.9,0.8c-0.3,0.1-0.6-0.1-0.7-0.4c-0.1-0.1-0.1-0.3-0.2-0.4c-0.3-0.6-1.1-0.8-1.5-0.6
				c-0.6,0.3-1.4,1.6-1.7,3.1c-1.2,6-0.3,8.8,0.3,10.5c0.5,1.2,1.4,1.9,2.7,1.4c1.4-0.6,1.9-2.4,1.8-4.1c-0.3,0-1.7-0.1-2.2-0.1
				c-0.6,0-0.8-0.3-0.8-0.9c0-0.9-0.1-1.7,0.1-2.6c0.1-0.3,0.4-0.5,0.7-0.5c2.2-0.1,4.3,0,6.3,0.2c0.3,0,0.5,0.2,0.6,0.5
				c0,0.1,0,0.2,0,0.3c0.1,2.3,0.1,4.5-0.5,6.6c-0.7,3-3.3,5.6-6.6,5.6c-5.4,0-8-5.1-8-11.7c0-5,1.1-13.2,7.5-13.2
				c1.8,0,4,0.5,5.5,2.6c0.5,0.7,0.8,1.5,1,2.4C217.7,362.2,217.5,362.5,217.3,362.5z"/>
			<path d="M223.3,359.4c0-1.3,0.4-1.5,0.8-1.5c1.3-0.1,3.2-0.1,4.1,0c0.6,0.1,0.6,0.5,0.6,1.9c0,2.2-0.3,19.3-0.4,20.5
				c-0.1,1.2-1.2,1.1-3,1.1c-1.7,0-2.3-0.1-2.2-3.3C223.4,377,223.3,359.8,223.3,359.4z"/>
			<path d="M238.8,381.4c-0.5,0-1-0.4-1.1-0.8c-0.5-1.6-2.8-12.8-3.3-15.4c-0.9-6.3-1.5-7.4-0.1-7.4c3,0,3.4,0,3.6,0
				c0.2,0,0.4,0.3,0.4,0.5c0.4,2.3,1.7,10.7,2.8,16.2c0.9-3.7,2-9.2,3.3-15.7c0.2-0.8,0.4-1,1.8-1c0.8,0,1.3,0,2.1,0.1
				c0,0,0.3,0,0.3,0c0.9,0,1.1,0.5,1,0.9c-1.1,5.2-3.9,17.4-5.1,20.8c-0.5,1.7-0.8,1.8-1.6,1.8C241.5,381.5,240.2,381.4,238.8,381.4
				z"/>
			<path d="M259,376.7c1.4,0.1,4.8,0,5.4,0.1c1.2,0,1.1,1.5,1,3.5c-0.1,0.8-0.3,1.1-1.5,1.1c-0.3,0.1-0.7,0-2.4,0
				c-2.3-0.1-3.5-0.1-6.6-0.1c-0.3,0-0.7-0.4-0.7-1.1c-0.1-3.3,0-10.6,0-13.1c0-3.3,0-5.8,0.2-8.1c0.2-1.4-0.4-1.3,9.4-1.2
				c1.5,0,1.7,0,1.6,1.6c0,0.7,0.1,1.3,0,2c-0.1,0.4-0.4,0.7-0.8,0.7c-0.9,0.1-1.4,0.1-5.5,0.1c-0.1,0.7,0,3.4,0,4.8
				c0.7,0.1,1.8,0,4,0.1c0.2,0,0.4,0,0.6,0.1c0.2,0.1,0.3,0.4,0.3,0.6c0,1,0.1,2.2-0.1,3.4c-0.1,0.4-0.3,0.4-0.5,0.5
				c-0.5,0.2-1.2,0-4.2,0.1C259,372.2,259,375.2,259,376.7z"/>
			<path d="M290.5,381.4c-1.2,0.1-2.1,0.1-2.8,0.1c-0.9,0-1.3,0-1.7-1.3c-0.1-0.3-0.3-1.1-0.5-2.3c-1.2,0-3.3,0-4.7,0
				c-0.3,1.2-0.5,2-0.5,2.3c-0.4,1.3-0.8,1.3-1.7,1.3c-0.7,0-1.6,0-2.8-0.1c-1.2-0.1-0.9-1.5-0.6-2.5c0.2-0.8,5.4-20.1,5.4-20.1
				c0.2-0.6,0.5-0.8,0.9-0.9c0.1,0,0.3-0.1,0.4-0.1c0.2,0,2.4,0,2.6,0c0.1,0,0.3,0,0.4,0.1c0.4,0.1,0.7,0.4,0.9,0.9
				c0,0,5.2,19.3,5.4,20.1C291.4,379.9,291.8,381.3,290.5,381.4z M284.6,373.6c-0.5-2.2-1-4.7-1.5-7.1c-0.5,2.3-1,4.9-1.5,7.1H284.6
				z"/>
		</g>
		<path d="M346.5,416.4c-4.7,0-21,18-31.7,18c-3.9,0-5.1-7.5-5.1-10.4c0-2.1,2.3-1.7,3.7-1.7c2.8,0,5.6-0.5,8.3-1.4
			c6.1-2.1,15.3-8.9,15.3-16c0-5.4-4.3-10.2-9.9-10.2c-7.8,0-16.8,6.2-22.8,10.8c-2.6,2-4.8,4.4-7.6,6.2c-0.2-0.3-0.4-0.8-0.4-1.1
			c0-3.5,18.3-31.4,18.3-36.9c0-2.8-2.9-4.8-5.4-4.8c-2,0-3.1,1.5-3.8,3.1c-2.8,5.8-14.4,27.3-22.8,44.5
			c-7.4,5.3-20.2,18.2-31.3,18.2c-4.1,0-6.1-3.3-6.1-7.1c0-8.2,7.8-21.7,15.7-24.7c0.3,0.4,0.6,1,0.6,1.5c0,3.7-2.5,7.4-2.5,10.9
			c0,2.9,2.7,5.1,5.4,5.1c4.9,0,6.6-10.3,6.6-14.1c0-6.5-4.8-12.6-11.6-12.6c-9.3,0-18.8,13.1-22.4,24c-4.1,2-9.3,6.6-13.3,6.6
			c-0.4,0-0.7-0.1-1-0.3v-0.6c0-1.3,6.7-9.1,6.7-17.2c0-6.8-5.5-12.2-12.3-12.2c-8.6,0-16.7,7.8-20.9,14.8
			c-2.7,4.5-5.8,7.9-7.7,12.1c-0.1,0.1-0.2,0.2-0.2,0.3c-3.7,5.2-16.6,22-23.1,22c-2.1,0-2.5-2.1-2.5-3.6
			c0-17.2,30.4-57.8,30.4-66.4c0-2.7-3-4.7-5.5-4.7c-1.8,0-3,1.4-3.7,2.9c-1,1.9-1.7,3.8-2.7,5.7c-5.4,10-11,20-16.6,30
			c-1.8,3.3-3.6,6.6-5.2,10c-2.1,0.1-4.1,0.7-6.2,0.7c-4.3,0-16.6-2.1-16.6-8.1c0-2.9,20-36.4,20-39.7c0-2.6-3-5.2-5.4-5.2
			c-2,0-3.4,1.4-4.3,3c-3.2,5.2-5.7,10.8-8.8,16.2c-6.9,12.2-16.9,30.4-20.7,43.9c-1.2,4.3-2.1,8.8-2.1,13.3c0,8.3,3.2,17.4,13,17.4
			c7.8,0,12.1-10.9,13.7-17.3c1.1-4.3,1.2-9,1.2-13.4c0-1.1-0.1-2.8,1.4-2.8c3,0,6.1,1.2,9.3,1.2c0.5,0,1.1,0,1.8,0
			c-0.9,2.9-1.7,5.9-2,9c-0.1,0.7-0.1,1.4-0.1,2c0,7.5,5.2,14.4,13,14.4c3.9,0,8.5-2,11.4-4.4c1.9-1.5,6.1-5.7,10.2-10.2
			c2.3,3.7,6.3,6.3,11,6.3c8,0,12.9-9.2,16.7-9.2c6.9,0,13.9-1.4,20.1-4.4c2,8.2,9.8,13.6,18.5,13.6c4.2,0,8.4-1.3,12.1-3.2
			c1.3-0.7,4.2-2.4,7.5-4.5c-0.4,1.3-0.7,2.3-0.7,2.9c0,2.9,2.7,4.9,5.3,4.9c1.5,0,2.7-0.8,3.6-1.9c2.1-2.5,16.1-18.5,17.7-18.5
			c0.4,0,0.6,1.1,0.6,1.3c0.4,3.6,1.3,6.6,3,10c2.6,5.1,7.8,8.4,13.5,8.4c10.1,0,25.8-11.9,33.1-18.5c0.8-0.8,1.5-1.7,1.5-2.9
			C351.8,418.6,348.8,416.4,346.5,416.4z M310.4,413.2c2.6-2.3,12.5-9.7,15.7-9.7c0.7,0,1,0.6,1,1.2c0,0.3-0.3,0.7-0.5,0.9
			c-3,4.7-9.4,8.7-15.1,8.7l-1.4-0.1L310.4,413.2z M126.5,448.9c-1.4,0-1.3-4.7-1.3-5.7c0-8.3,3.1-16.7,7.2-23.7
			c0.9,2.8,1.3,5.6,1.3,8.5C133.6,431.2,130.6,448.9,126.5,448.9z M197.3,434.4c-1,0-1.9-1-1.9-2s1.1-5.8,2.2-5.8
			c1.2,0,4.7,3.1,4.7,4.3C202.3,432.4,198.6,434.4,197.3,434.4z M208.4,424.1c-2.9,0-5.2-3-5.2-5.6c0-5.4,10-16,15.5-16
			c1.4,0,1.5,1,1.5,2.1C220.1,407.8,211.1,424.1,208.4,424.1z"/>
	</g>
</g>
</svg>
