<?xml version="1.0" encoding="iso-8859-1"?>
<!-- Generator: Adobe Illustrator 22.1.0, SVG Export Plug-In . SVG Version: 6.00 Build 0)  -->
<svg version="1.1" id="Layer_1" xmlns="http://www.w3.org/2000/svg" xmlns:xlink="http://www.w3.org/1999/xlink" x="0px" y="0px"
	 width="500px" height="500px" viewBox="0 0 500 500" enable-background="new 0 0 500 500" xml:space="preserve">
<path fill="#383737" d="M454.973,170.551c0-7.991-2.862-14.908-4.651-19.082c-1.789-4.293-3.22-17.054-3.22-19.797
	s-1.431-5.844-1.431-7.156c0-1.193,0-6.917,0-6.917s2.027-0.596,2.266-1.789c0.239-1.193,0.835-5.486-2.385-10.376
	c-3.22-4.89-12.165-10.614-13.834-12.642c-1.67-2.027-7.275-10.137-7.275-10.137s0.358-1.193,2.027-2.862
	c1.67-1.67-3.22-11.807-2.862-16.697c0.358-4.89,2.027-15.862,3.22-24.449c1.193-8.587-2.385-25.999-12.642-25.641
	c-10.257,0.358-20.394,31.724-21.109,35.779c-0.835,4.055-3.697,10.972-5.725,15.504c-2.027,4.532-19.559,7.156-19.559,7.156
	l-9.183-7.991c0,0-6.679-6.679-10.376-20.155c-3.697-13.477-14.073-21.944-17.651-22.541c-3.697-0.596-7.991,1.789-12.88,9.183
	s-12.165,29.935-12.165,36.613s-1.789,23.852-3.697,28.146c-1.789,4.293,6.679,12.88,6.679,12.88s-5.486,7.991-15.266,17.054
	c-9.78,9.183-21.348,29.935-21.348,29.935c-1.312,1.67-2.624,3.22-3.697,4.89c-4.174,1.67-13.715,4.174-15.504,4.413
	c-5.367,0.835-14.55,3.697-34.347,4.89c-19.797,1.193-55.576-5.248-73.823-7.275c-18.247-2.027-33.99,6.082-58.796,26.715
	c-24.687,20.632-38.522,47.824-40.072,62.374c-1.67,14.55,3.22,36.852,3.22,51.521c0,14.55,4.413,60.347,4.413,72.511
	s-4.89,19.917-5.725,25.522c-0.835,5.725,2.027,10.137,5.248,19.082c3.22,8.945,4.413,45.439,5.248,52.237
	c0.835,6.917,10.137,7.275,10.137,7.275s2.027,1.193,7.275,1.67c5.248,0.358,9.302-3.697,9.302-3.697s8.11,2.385,10.972-1.193
	c2.862-3.697-8.945-16.22-10.972-20.275s-6.917-26.715-6.44-33.99c0.358-7.275,2.862-15.385,7.275-25.164
	c4.413-9.78,8.468-19.917,12.165-32.797c3.697-13,6.082-15.385,6.082-15.385s1.67,7.752,2.027,12.523
	c0.358,4.89-8.468,17.412-10.137,22.66c-1.67,5.248,0,6.082,0.358,14.55c0.358,8.468-0.358,19.917-1.193,29.219
	c-0.835,9.302-2.862,24.329-1.193,30.412s8.11,13.834,12.165,13.834s17.054-2.027,17.054-2.027s10.972,2.385,13.357-0.358
	c2.385-2.862,0.835-5.248-0.835-9.78c-1.67-4.532-13-6.44-15.862-8.945c-2.862-2.385-4.89-25.164,2.862-41.384
	c7.752-16.22,15.385-14.55,27.55-36.852c12.165-22.302,12.523-38.522,12.523-38.522s23.972,2.027,37.329,9.78
	c13.357,7.752,38.879,12.165,38.879,12.165s2.385,12.522,2.862,23.137c0.358,10.495,4.413,35.302,8.11,55.099
	c3.697,19.917,8.945,19.44,9.302,28.384c0.358,8.945,4.413,19.44,4.413,19.44s5.725,4.89,14.192,3.697
	c8.468-1.193,8.11-2.027,8.11-2.027s5.725,4.055,11.33,2.862c5.725-1.193,8.468-2.385,8.468-2.385s5.248,2.027,6.44-1.193
	c1.193-3.22-2.027-9.302-5.248-13c-3.22-3.697-9.302-3.697-11.33-4.89s-12.165-14.55-11.33-23.972
	c0.835-9.302,0.835-43.411,2.862-51.521c2.027-8.11,4.89-30.77,4.89-30.77s6.917-3.697,16.577-6.082
	c9.78-2.385,15.862-6.082,15.862-6.082s0.835,47.824,1.67,59.154s2.385,44.962,4.413,49.852s4.413,15.027,9.302,17.889
	c4.89,2.862,20.632-0.835,20.632-0.835s15.385,2.862,19.44,2.027c4.055-0.835,3.22-2.862,3.22-2.862l2.385-0.358
	c0.835-8.11-12.165-13.834-18.605-19.082c-6.44-5.248-9.302-11.33-10.495-14.55c-1.193-3.22-3.22-9.302-0.835-22.66
	c2.385-13.357,13.357-44.604,15.385-50.209s1.67-26.715,4.055-42.934c2.385-16.22,10.972-31.247,12.165-37.687
	c1.193-6.44-2.385-18.247-2.027-20.632c0.358-2.385,0.358-10.137,1.67-14.192c1.193-4.055,1.55-10.137,0.358-15.385l0,0
	c-0.119-4.055,2.982-13.119,3.459-13.477c1.431-1.073,9.541-5.009,14.311-5.725c4.651-0.596,12.642-7.514,16.577-10.137
	c3.816-2.624,5.486,0.358,10.614-0.596c5.128-0.954,11.211-7.156,11.807-8.706c0.596-1.67,3.22,2.862,7.752,0
	C456.046,191.421,454.973,178.422,454.973,170.551z M305.537,298.399c-54.861-22.302-45.677-53.787-30.889-57.246
	c16.816-3.936,24.449,14.431,24.449,14.431s1.908-19.797,19.082-20.99C333.325,233.64,351.334,260.951,305.537,298.399z"/>
<g>
</g>
<g>
</g>
<g>
</g>
<g>
</g>
<g>
</g>
<g>
</g>
<g>
</g>
<g>
</g>
<g>
</g>
<g>
</g>
<g>
</g>
<g>
</g>
<g>
</g>
<g>
</g>
<g>
</g>
</svg>
