<?xml version="1.0" encoding="iso-8859-1"?>
<!-- Generator: Adobe Illustrator 22.1.0, SVG Export Plug-In . SVG Version: 6.00 Build 0)  -->
<svg version="1.1" id="Layer_1" xmlns="http://www.w3.org/2000/svg" xmlns:xlink="http://www.w3.org/1999/xlink" x="0px" y="0px"
	 width="500px" height="500px" viewBox="0 0 500 500" enable-background="new 0 0 500 500" xml:space="preserve">
<path fill="#383737" d="M442.9,241c-1-6.2-7.4-14-7.4-14l1.6,4.9c0,0-7-10.3-21.2-13.2c-14.2-2.9-23.3,0.4-17.9,1.6
	c5.3,1.2,6.2,2.3,6.2,2.3l-10.9,1.2l6.8,2.1l-8.2,2.1l7.6,0.8l-6.8,1.2l11.1,2.3l-5.1,0.2c0,0,10.9,2.3,12.6,6
	c1.6,3.7-2.1,6.6-6,11.3s-11.9,4.9-24.3,6.4c-12.3,1.4-9.7,0-16-1c-6.4-1-31.7-13.2-36.6-16.7c-4.9-3.5-28-15.6-34.8-19.1
	s-28.4-20-37.7-23.7s-35-12.6-40.5-15.2c-5.6-2.7-16.5-3.9-23-6c-6.6-2.1-15.2-2.3-16.3-4.1c-1-1.9-0.4-4.9-1-8.4s-3.1-9.7-1.9-8
	c1.2,1.6,1.2,1.9,1.2,1.9c-0.6-5.3-2.5-8.8-2.5-8.8s2.9,4.3,2.7,1.6s-5.3-13.2-5.1-17.3s2.7-7.6,3.5-11.3s0.6-9.5,0.6-11.7
	c0-2.3,2.9-6.4,3.1-9.1c0.2-2.7,0.2-9.9,0-13.8s1.9-10.3,1.9-15.4S178,44.8,172,42.9c-6-1.9-14,6-21.4,20.2s-7.2,17.1-7.4,18.7
	c-0.2,1.6-5.3,2.1-6.6,2.1s-7.8,0.4-9.1-2.5c-1.2-2.9-2.1-9.1-3.1-12.8s-2.7-15-4.5-20.2c-1.9-5.1-7.8-14.4-11.3-14
	s-8.8,7.4-9.7,10.7c-0.8,3.3-4.1,12.6-4.7,14.4c-0.6,1.9-2.1,8.2-2.3,9.7s-3.5,7.4-3.5,9.5s-3.1,6.8-3.3,9.1S87,96.2,87,98.1
	s-4.3,6.6-4.3,6.6s4.5-2.5,2.7-0.6c-1.9,1.9-3.5,4.7-3.5,4.7l2.5-1l-3.5,4.3c0,0,2.5-1.9,2.7,0s-2.7,9.5-7.8,16.9
	s-9.1,16.9-9.7,20.4S64,177.8,61,185.2c-3.1,7.4-3.9,12.8-3.9,12.8s5.3-0.2,3.7,1.2c-1.6,1.4-3.9,5.3-3.9,5.3s4.5,0.8,2.9,1.9
	c-1.6,1-5.1,4.9-5.3,5.6s7-3.3,4.7-1.9s-4.9,8-4.9,8s4.9-2.9,2.9-0.6c-2.1,2.3-2.9,9.7-2.9,9.7s4.3-0.6,3.5,1.6
	c-0.8,2.3-2.7,8.4-2.7,8.4s2.9-2.3,2.1-1.4s-3.1,10.1-2.5,9.1s2.1-0.8,2.1-0.8s-2.1,3.7-0.4,4.5s-0.6,10.1-0.6,20.2s5.6,29,7.2,34.6
	c1.6,5.6,1,23.9-0.6,27.8s-3.9,15-3.9,22.6s3.7,26.5,3.7,31.7s6,18.9,6,22.4s5.1,7.6,6.4,10.1c1.2,2.5,6.8,4.3,8.4,4.5
	c1.6,0.2,6-1.9,6-1.9s5.6-3.9,6.4-7.2c0.8-3.3-0.4-5.1-0.4-5.1s1.6-1.2,2.1-5.6c0.4-4.3,0-5.6-2.5-9.7s-4.1-10.7-4.1-10.7
	s0.4-1.6,0.4-4.5s-2.1-3.7-4.5-10.3c-2.5-6.6-2.9-15.2-2.9-15.2s3.7-2.9,7.4-4.9s7.4-14.2,7.4-14.2l0.8,4.3l1.6-8.6
	c-0.2,1.4,2.9,5.8,2.9,5.8s1.9-6.6,1.9-3.5s1.2,7.2,1.2,7.2s4.1-5.8,4.3-3.5s3.5,7.2,3.5,7.2s2.9-5.6,2.9-3.3c0,2.3,1.9,8.6,1.9,8.6
	s2.9-7.2,2.9-5.1s2.5,6.4,2.5,6.4s1.4-6.4,1.4-3.7c0,2.7,1.6,6.6,1.6,6.6l1.4-3.7c0,0,0,7.2-3.5,12.8c-3.5,5.6-11.9,24.9-18.9,33.1
	s-7,11.7-7,14s-5.6,17.3-7,20.2c-1.4,2.9-16,18.7-17.3,21c-1.2,2.3-7.8,6.6-8,9.7c-0.2,3.1,3.3,7.2,8,7.2s11.1-2.5,11.1-2.5
	s2.3,0.8,5.8,1.4c3.5,0.6,8.4,0,10.3-3.5c1.9-3.5,5.6-13.8,6.4-17.5c0.8-3.7,4.5-12.3,7.8-15s7-10.1,7.4-13.2s7.4-11.3,9.1-14.8
	c1.6-3.5,10.9-22.2,14.4-26.7s15.4-19.8,18.9-25.7c3.5-6,15-20.2,15-20.2s0.6,7.6,1.2,5.1c0.6-2.5,3.9-8.2,3.9-8.2l0.2,4.3
	c0,0,1.4-4.9,3.5-5.1s18.7,14.4,20,21s14.2,22,14.2,22s-3.5-8,0.4-2.5c3.9,5.6,13.6,11.7,13.6,11.7s-2.3-3.5-1.6-2.9
	c0.6,0.6,19.1,7.4,24.1,14.4s8.6,18.3,6.6,25.5c-2.1,7.2-18.5,21-22,22.2s-5.3,2.9-12.6,4.5c-7.2,1.6-14.6,7.4-15.2,9.9
	s3.1,4.7,3.1,4.7s0.4,1,1.6,2.3s9.1,0.2,9.1,0.2c0.8,1.2,15.4,0.6,18.7,0s7-4.9,8-7.6c1-2.7,9.3-8.8,10.7-10.5s25.7-22,26.7-24.3
	s10.5-8.6,9.7-14.2s-11.5-14.6-17.7-20.2s-11.7-16.7-12.6-22.2s4.9-8.2,4.9-8.2l0.6,5.1c0,0,2.5-8,2.9-5.6c0.4,2.5,4.1,7,4.1,7
	s-0.6-7.4-0.2-4.9c0.4,2.5,5.8,10.3,5.8,10.3l-0.8-2.9c0,0,8.8,11.1,22,15.6s23.9,4.1,31.1,7.2c7.2,3.1,15.4,14.8,17.1,21.6
	s-6,26.1-6.8,29.6s-7,3.3-12.6,5.6c-5.6,2.3-8.4,13.4-8.2,14.4s2.9,1,2.9,1s0,0,2.3,1.2s12.8-0.4,12.8-0.4c0,1,9.3,1.2,11.1,0.4
	s6.2-5.8,7.4-8.6c1.2-2.9,1.9-4.7,2.5-9.3s2.3-5.6,3.9-11.1s6.8-26.3,7.4-31.5c0.6-5.1,6-14,4.5-17.7c-1.4-3.7-13.4-8-19.8-11.9
	c-6.4-3.9-14.4-13.8-19.5-20.2s-5.6-14.4-4.5-13.6c1,0.8,1.9,3.5,1.9,3.5s-2.5-12.1-1.2-11.3c1.2,0.8,2.1,2.9,2.1,2.9
	c-0.2-5.1-3.3-10.5-3.1-11.5s3.1,2.3,3.1,2.3c-0.2-2.9-2.7-13.2-3.7-20.4c-1-7.2,0-13.6,0-13.6s1.9,1.6,9.1,7.6s14.8,8.2,14.8,8.2
	l-1.9-2.9c6,4.7,13.8,3.1,13.8,3.1c-4.5-1.4-7.8-3.5-7.8-3.5s19.1,5.8,39.5-1.4s24.9-18.7,24.9-18.7s-1.2,5.1,0.2,3.1
	c1.4-2.1,1.2-7.8,1.9-6.4s0,3.7,0,3.7c2.1-2.1,2.5-9.9,2.5-9.9l0.8,2.9c0,0,0.2-5.8,1-9.3S443.9,247.1,442.9,241z M129.1,276.7
	c-35.6-35-18.4-56.6-5.7-54.6c14.4,2.3,14.4,19.1,14.4,19.1s7.8-14.8,21.6-10.2C171.5,235,176.9,262.1,129.1,276.7z"/>
<g>
</g>
<g>
</g>
<g>
</g>
<g>
</g>
<g>
</g>
<g>
</g>
<g>
</g>
<g>
</g>
<g>
</g>
<g>
</g>
<g>
</g>
<g>
</g>
<g>
</g>
<g>
</g>
<g>
</g>
</svg>
