<?xml version="1.0" encoding="utf-8"?>
<!-- Generator: Adobe Illustrator 25.2.0, SVG Export Plug-In . SVG Version: 6.00 Build 0)  -->
<svg version="1.1" id="Layer_1" xmlns="http://www.w3.org/2000/svg" xmlns:xlink="http://www.w3.org/1999/xlink" x="0px" y="0px"
	 width="300px" height="300px" viewBox="0 0 300 300" style="enable-background:new 0 0 300 300;" xml:space="preserve">
<style type="text/css">
	.st0{fill:#E59779;}
</style>
<g>
	<g>
		<g>
			<path d="M145,261.8c-1-0.5-1.5-1-2.4-1.7c-0.3-0.2-0.5-0.6-0.2-1c0.3-0.4,0.3-0.4,0.4-0.7c0.2-0.3,0.4-0.7,0.4-1.2
				c0-0.7-0.7-1.5-1.4-1.5c-1,0-1.8,0.3-4.7,4.2c-4.1,5.3-4.4,5.9-6.4,8.5c-0.3,0.5-0.9,0.5-1.4,0.2c-0.9-0.6-1.7-1.1-2.5-1.8
				c-0.2-0.2-0.3-0.4-0.2-0.7c0.1-0.3,0.6-1.1,0.8-1.3c2.6-3.4,4.4-6,6-7.9c2.6-3.3,3.7-4.7,6.5-5.9c3.5-1.4,8.2,2,8,5.8
				c-0.2,1.5-0.8,2.8-2.2,4.7C145.7,261.8,145.3,261.9,145,261.8z"/>
			<path d="M107.7,251.1c-0.3-0.3-0.2-0.7,0.1-1c1.8-2,1.9-2.3,3.8-4.4c2.7-3.2,3.4-4.1,5.6-6.2c1.3-1.3,2.4-2.1,4-2.7
				c3.5-1.1,8.3,1.7,8.3,5.9c0,3.9-2.4,6.3-5.3,9.7c-1.8,2.2-2.8,3.2-5.2,6.1c-0.7,0.9-1.2,1-1.8,0.7c-1.2-0.8-1.5-1.1-2.4-2
				c-0.4-0.4-0.5-0.8-0.2-1.2c2.2-2.4,7.6-8.7,9.1-10.9c0.6-0.9,1.2-1.5,1.2-2.6c0-0.4-0.4-1-0.8-1.2c-0.7-0.6-2-0.6-4.4,2.2
				c-2.6,3-3.2,3.7-7.1,8.3c-0.4,0.5-0.9,1.1-1.3,1.3c-0.5,0.4-1.1,0.2-1.5-0.2C108.2,251.7,107.9,251.4,107.7,251.1z"/>
			<path d="M110.9,232.2c-0.9-0.5-1.8-0.8-2.5-1.3c-0.2-0.1-0.4-0.4-0.2-0.9c0.2-0.5,0.3-0.8,0.3-1.5c0-1-1.4-2.3-2.6-1.7
				c-1.6,0.8-1.4,2-1.4,3.7c0.1,3.2,0.3,5.1-0.5,7.4c-0.8,2.2-3.6,4.4-6.5,4c-1.6-0.3-2.8-1.3-3.3-1.9c-1.6-1.7-1.7-4.1-1.3-5.8
				c0.1-0.6,0.7-1,1.1-1c0.4,0,0.7,0.1,1.4,0.3c0.7,0.2,1.4,0.5,1.4,1.1c0,1.4,0.5,2.1,1,2.4c0.8,0.6,2.3-0.1,2.4-2.2
				c0.1-1.8-0.6-4.6,0-7.3c0.4-2,1.4-3.7,3.7-4.9c4.6-2.3,9.9,1.8,9.3,6.3c-0.2,1.1-0.5,1.9-1.1,2.8
				C111.7,232.5,111.2,232.4,110.9,232.2z"/>
			<path d="M75.9,220c0.4-0.4,1.7-1.5,2.2-1.9c0.4-0.3,0.9-0.1,1.1,0.1c0.8,0.8,1.6,1.7,2.4,2.4c0.8-0.7,10.9-10.3,12.7-11.8
				c0.9-0.7,1.4-0.1,2.6,1.2c0.6,0.6,0.8,0.9,0.9,1.2c0.1,0.1,0.1,0.3,0.1,0.4c-0.1,0.5-1.1,1.3-2.3,2.4c-0.6,0.6-8.2,7.5-10.7,10
				c0.8,0.9,1.4,1.6,2.2,2.5c0.4,0.4,0.2,0.9-0.1,1.2c-0.8,0.7-1.4,1.5-2.2,2c-0.3,0.2-0.6,0.1-1.1-0.4c-1-1-2.6-2.8-7.1-7.7
				C75.6,220.7,75.5,220.4,75.9,220z"/>
			<path d="M69.6,175.9c0.7,1,1.2,1.6,1.6,2.2c0.4,0.7,0.7,1-0.1,2c-0.2,0.2-0.8,0.8-1.6,1.7c0.6,0.9,1.8,2.6,2.5,3.8
				c1.1-0.4,1.9-0.7,2.1-0.8c1.2-0.4,1.4-0.1,1.9,0.6c0.4,0.5,0.9,1.3,1.5,2.3c0.6,1-0.7,1.5-1.7,1.8c-0.7,0.3-18.8,6.5-18.8,6.5
				c-0.5,0.1-0.9,0-1.2-0.2c-0.1-0.1-0.2-0.2-0.3-0.3c-0.1-0.2-1.3-1.9-1.4-2.1c0-0.1-0.1-0.3-0.2-0.4c-0.1-0.3-0.1-0.8,0.3-1.2
				c0,0,12.5-14.4,13-15C68,176,68.9,174.9,69.6,175.9z M66.7,184.7c-1.5,1.6-3.2,3.3-4.8,5c2.1-0.9,4.4-1.8,6.4-2.6L66.7,184.7z"/>
			<path d="M37.7,148.9c0.7,1.2,1.3,2.1,2,3.3c0.1,0.3,0.1,0.6-0.1,0.8c-0.1,0.1-0.2,0.2-0.3,0.3c-0.4,0.5-0.4,1.2-0.1,1.5
				c0.4,0.5,1.8,0.8,3.3,0.6c5.8-0.8,8.1-2.4,9.4-3.6c1-0.8,1.3-1.9,0.4-2.9c-0.9-1.1-2.8-1-4.3-0.4c0.1,0.3,0.4,1.6,0.6,2
				c0.1,0.6,0,0.8-0.6,1c-0.8,0.3-1.5,0.6-2.4,0.7c-0.3,0-0.6-0.2-0.7-0.5c-0.7-2-1.3-3.9-1.8-5.8c-0.1-0.3,0.1-0.6,0.3-0.7
				c0.1,0,0.1-0.1,0.2-0.1c2.1-0.8,4-1.4,6.1-1.6c3-0.3,6.1,1.3,7.1,4.3c1.7,4.9-2.2,8.8-8.1,10.8c-4.5,1.5-12.3,3.1-14.3-2.7
				c-0.6-1.6-0.8-3.7,0.6-5.7c0.5-0.6,1.1-1.2,1.8-1.6C37.3,148.6,37.6,148.7,37.7,148.9z"/>
			<path d="M32,137.1c-1.2,0.2-1.5-0.2-1.6-0.6c-0.3-1.2-0.5-3-0.5-3.9c0-0.6,0.4-0.7,1.7-0.8c2.1-0.3,18.3-2.4,19.5-2.4
				c1.2,0,1.2,0.9,1.5,2.7c0.2,1.6,0.2,2.2-2.9,2.5C48.7,134.6,32.4,137.1,32,137.1z"/>
			<path d="M42.9,108.7c6.2-1.9,8-2.8,9-2.9c0.3-0.1,0.6,0.2,0.6,0.5c-0.1,1.3-0.1,2.9-0.5,4.2c0,0.2-0.3,0.4-0.4,0.5
				c-2.5,0.9-4.9,1.5-7.5,2.3c-0.1,0.4-0.2,1.3-0.2,1.6c3.6,0.4,6.5,0.7,6.5,0.7c0.9,0.2,1.3,0.2,0.9,3.6c0,0.2-0.1,0.5-0.2,0.7
				c-0.1,0.3-0.4,0.4-0.7,0.4c-1.8-0.1-17.4-1.5-21-2c-1-0.3-1-1.3-0.8-2.6c0.2-1.6,0.3-3.6,0.7-5.2c0.8-3.6,3.4-5.7,7.6-5.2
				C40.3,105.3,41.9,107,42.9,108.7z M39.3,114.2c0-0.3,0.1-0.8,0.1-1.4c0-1.5-0.4-2.8-3.3-3.1c-1.3-0.1-2,0.1-2.6,1.2
				c-0.4,1-0.4,1.8-0.5,2.7C33.5,113.8,35.8,114,39.3,114.2z"/>
			<path d="M52.6,92.5c0.7-1.2,1.9-4.2,2.2-4.6c0.5-1.1,1.8-0.4,3.4,0.5c0.7,0.4,0.8,0.7,0.3,1.7c0,0.3-0.3,0.6-0.9,2.1
				c-0.6,1.4-1.3,3-2.5,5.7c-0.1,0.3-0.6,0.5-1.2,0.2c-2.9-1.2-9.3-4.1-11.4-5c-2.9-1.3-5.1-2.2-7-3.3c-1.2-0.8-0.8-1.2,0.3-3.5
				c0.6-1.3,0.8-1.4,2.2-0.8C38.3,85.9,51.3,91.9,52.6,92.5z"/>
			<path d="M83.6,67.3c-1.7-1.7-4.2-4-6.1-5.9c-0.1,0.2-0.1,5.5-0.3,8.5c-0.1,1-0.4,1.4-1.3,1.7c-0.5,0.2-1.2,0.5-1.4,0.5
				c-0.3,0-0.7-0.1-0.9-0.4c-0.3-0.4-9.8-14.8-11.2-17.8c-0.2-0.3,0-0.7,0.3-0.9c0.4-0.3,1.2-0.6,3-1.3c0.6-0.2,0.7,0,1.1,0.6
				c3.8,6.5,6,10.3,6.2,10.5c0.1-0.8,0.4-6.9,0.5-7.7c0.1-0.9,1.5-1.5,2.3-0.8c1,0.9,3.9,3.4,5.7,5.2c0,0-1.2-4.5-2.2-8.9
				c-0.7-3.2-1.1-4.1-0.9-4.6c0.2-0.7,1.2-1,2.8-1.6c1.1-0.4,1.2,0.2,1.8,2.2c0.4,1.5,3.4,12.8,4.5,18.5c0.2,1.1-0.5,1.4-1.2,1.7
				c-0.5,0.2-0.9,0.5-1.8,0.8C84.2,67.9,83.8,67.6,83.6,67.3z"/>
			<path d="M103.6,50.8c1.6,0,3.6,0.2,4.8,0.1c0.1-1.2,0.3-4.7,0.4-7.9c0.1-0.8,0.3-1,0.9-1c1.1,0,2.2,0.1,3.3,0.1
				c0.7,0,0.7,0.8,0.6,1.3c-0.4,11-0.6,18.1-0.7,19.7c-0.1,1.5-0.6,1.4-4.1,1.2c-0.5-0.1-0.9-0.3-0.8-1c0.1-1.9,0.2-6.6,0.3-7.9
				c-0.8,0-3.8-0.1-4.6,0c-0.1,0.9-0.1,2.7-0.4,6.8c-0.1,1.1,0,2-1,2c-1.2,0-2.4,0-3.6-0.1c-0.4,0-0.3-0.6-0.4-1.1
				c0-3.7,0.3-17.1,0.5-20.3c0-0.6,0.3-0.9,0.9-0.9c0.9,0,1.8,0,2.7,0.1c1,0,1.5,0,1.4,1.1C103.8,47.9,103.7,50.6,103.6,50.8z"/>
			<path d="M139.5,59.2c-1.2,2.7-3.5,9.2-8.8,11c-3.1,0.6-5.6-0.6-7.3-2.6c-2.3-2.9-0.9-7.8,1.4-12.4c3-5.5,6.6-8.9,11.4-6.7
				C141.6,51,140.5,56.8,139.5,59.2z M127,63.5c-0.1,2.2,2.1,3,3.8,1.4c0.4-0.4,0.8-0.8,1.1-1.2c0.9-1.2,2.7-4.6,3.1-6
				c1-3.1,0.7-4.7-0.8-5.2c-1.6-0.6-3.6,1.7-5.5,5.4C127.8,59.8,127,62.5,127,63.5z"/>
			<path d="M160.7,76.5c1-0.9,3.1-3.4,3.5-3.7c0.8-0.9,1.8,0.2,3.1,1.6c0.6,0.6,0.5,0.9-0.3,1.7c-0.1,0.3-0.5,0.5-1.6,1.7
				c-1.1,1.2-2.2,2.4-4.2,4.6c-0.2,0.2-0.8,0.2-1.2-0.2c-2.4-2.1-7.5-6.8-9.3-8.4c-2.4-2.1-4.1-3.7-5.6-5.3
				c-0.9-1.1-0.4-1.3,1.4-3.2c0.9-1,1.2-1,2.3,0C149.3,65.8,159.7,75.6,160.7,76.5z"/>
			<path d="M180.6,52.2c1.2,2.6,4.5,8.7,2.4,13.9c-1.6,2.7-4.2,3.8-6.8,3.7c-3.7-0.2-6.5-4.5-8.4-9.3c-2.1-5.9-2.3-10.8,2.6-13
				C175.9,45.2,179.5,50,180.6,52.2z M175.5,64.5c1.6,1.5,3.7,0.4,3.6-1.9c0-0.5-0.1-1.1-0.1-1.6c-0.3-1.5-1.6-5-2.4-6.4
				c-1.7-2.8-3-3.6-4.4-2.9c-1.5,0.8-1.1,3.8,0.4,7.7C173.4,61.5,174.8,63.8,175.5,64.5z"/>
			<path d="M197.4,64.3c-0.5,0-0.9-0.4-1-0.7c-0.5-1.6-2.9-12.2-3.3-14.7c-1-6-1.5-7.1-0.2-7.1c2.9-0.1,3.2-0.1,3.5,0
				c0.2,0,0.4,0.3,0.4,0.5c0.4,2.2,1.8,10.2,2.8,15.4c0.8-3.6,1.8-8.8,2.9-15c0.2-0.8,0.3-1,1.7-0.9c0.7,0,1.2,0,2,0.1
				c0,0,0.3,0,0.3,0c0.9,0,1,0.5,0.9,0.9c-1,4.9-3.5,16.7-4.6,19.9c-0.5,1.6-0.8,1.7-1.5,1.7C200,64.4,198.8,64.4,197.4,64.3z"/>
			<path d="M220.4,63.2c1.2,0.6,4.3,1.6,4.8,1.8c1.1,0.4,0.5,1.7-0.3,3.4c-0.3,0.7-0.6,0.9-1.7,0.5c-0.3,0-0.6-0.2-2.2-0.8
				c-2-0.8-3.1-1.2-5.9-2.2c-0.3-0.1-0.5-0.6-0.3-1.2c1-3,3.4-9.5,4.2-11.8c1.1-3,1.8-5.2,2.8-7.3c0.7-1.2,0.1-1.3,8.9,1.9
				c1.3,0.5,1.5,0.6,1,2c-0.2,0.6-0.3,1.2-0.7,1.8c-0.2,0.4-0.6,0.5-1,0.4c-0.8-0.2-1.3-0.4-5-1.6c-0.3,0.6-1.1,3.1-1.5,4.3
				c0.6,0.3,1.6,0.6,3.5,1.4c0.2,0.1,0.4,0.2,0.5,0.3c0.2,0.2,0.1,0.4,0.1,0.6c-0.3,0.9-0.6,2.1-1.1,3c-0.2,0.3-0.4,0.3-0.6,0.3
				c-0.5,0-1.1-0.4-3.8-1.3C221.8,59.2,220.9,61.8,220.4,63.2z"/>
			<path d="M234.4,68.5c0.9,0.4,1.8,0.7,2.5,1.2c0.2,0.1,0.4,0.4,0.2,0.9c-0.2,0.5-0.2,0.9-0.2,1.5c0,1,1.5,2.2,2.7,1.6
				c1.6-0.8,1.3-2.1,1.2-3.8c-0.2-3.2-0.5-5.1,0.2-7.4c0.7-2.3,3.4-4.6,6.3-4.3c1.6,0.2,2.8,1.2,3.4,1.7c1.7,1.7,1.8,4,1.5,5.8
				c-0.1,0.6-0.7,1-1,1c-0.4,0-0.7,0-1.4-0.2c-0.7-0.2-1.4-0.4-1.4-1c0-1.4-0.6-2.1-1.1-2.4c-0.9-0.6-2.3,0.2-2.3,2.3
				c0,1.8,0.8,4.6,0.4,7.3c-0.3,2-1.3,3.8-3.5,5c-4.5,2.5-9.9-1.4-9.6-5.9c0.2-1.1,0.4-1.9,1-2.8C233.7,68.3,234.2,68.4,234.4,68.5z
				"/>
			<path d="M250.9,100.3c-0.1-1,0.8-1.4,1.3-1.5c1.3-0.3,6.9-1.4,12-2.3c2-0.4,5.5-1.1,6.4-1.2c1.4-0.2,1.6,0.1,2,0.8
				c0.5,1.1,0.9,2.9,1,4c0.6,5.6-2.1,9.2-6.2,10.5c-3.3,1-5.9,1.7-9.8,0.8c-2.6-0.6-3.8-2.1-4.9-4
				C251.9,106.2,251.1,103.2,250.9,100.3z M255.8,103c0.9,4.3,3.8,4.7,7.5,4c3.4-0.7,6.7-1.8,5.7-6.5
				C266.9,100.6,257.1,102.8,255.8,103z"/>
			<path d="M266.5,136.8c-2.9-0.2-9.8-0.3-13.3-4.7c-1.6-2.7-1.3-5.5,0.1-7.8c2-3.1,7.1-3.5,12.2-2.8c6.2,1.1,10.5,3.3,10.1,8.6
				C275,136,269,136.9,266.5,136.8z M258.3,126.3c-2.1,0.7-2.2,3-0.1,4.1c0.5,0.2,1,0.5,1.5,0.7c1.4,0.5,5.2,1,6.7,1
				c3.3-0.1,4.6-0.8,4.6-2.4c0-1.7-2.8-2.8-6.9-3.4C262,125.9,259.3,126,258.3,126.3z"/>
			<path d="M263,160.8c0.2-1.4,0.3-2.5,0.5-3.8c0-0.3,0.3-0.5,0.6-0.5c0.2,0,0.3,0,0.5,0c0.6-0.1,1-0.7,1-1.2c0-0.6-1-1.8-2.2-2.5
				c-5-2.9-7.8-3-9.6-3c-1.3,0-2.2,0.7-2.1,2c0.1,1.4,1.6,2.5,3.1,2.9c0.1-0.3,0.6-1.5,0.8-2c0.2-0.5,0.5-0.6,1.1-0.4
				c0.8,0.3,1.6,0.5,2.3,0.9c0.3,0.1,0.3,0.5,0.2,0.8c-0.6,2-1.4,3.9-2.1,5.6c-0.1,0.3-0.4,0.4-0.7,0.4c-0.1,0-0.2,0-0.2-0.1
				c-2.1-0.7-4.1-1.3-5.8-2.5c-2.5-1.6-4-4.8-3-7.7c1.7-4.9,7.1-5.6,13-3.5c4.5,1.6,11.6,5.1,9.6,11c-0.6,1.6-1.7,3.4-4,4.1
				c-0.8,0.2-1.6,0.3-2.4,0.1C263.1,161.3,263,161,263,160.8z"/>
			<path d="M247.2,166.2c-0.2,1-0.3,1.9-0.6,2.7c-0.1,0.2-0.3,0.5-0.8,0.4c-0.6-0.1-0.9-0.1-1.5,0.1c-1,0.2-1.8,1.9-1,2.9
				c1.1,1.3,2.3,0.9,3.9,0.4c3.1-0.9,4.9-1.6,7.2-1.4c2.4,0.2,5.2,2.4,5.5,5.3c0.1,1.6-0.6,3-1,3.7c-1.3,2-3.5,2.6-5.3,2.7
				c-0.6,0-1.1-0.5-1.2-0.8c-0.1-0.4-0.1-0.7-0.1-1.4c0-0.7,0.1-1.5,0.7-1.6c1.4-0.3,1.9-1,2.1-1.6c0.4-1-0.7-2.2-2.7-1.8
				c-1.8,0.4-4.3,1.7-7,1.8c-2,0.1-4-0.5-5.6-2.4c-3.4-3.9-0.7-10,3.8-10.6c1.1-0.1,2,0,3,0.4C247.2,165.4,247.2,165.9,247.2,166.2z
				"/>
		</g>
	</g>
	<g>
		<path class="st0" d="M152.4,115.9c0-59-92.2-59-92.2,7.3c0,66.3,92.2,125.9,92.2,125.9v0v0l0,0v0c0,0,92.2-59.7,92.2-125.9
			C244.6,56.9,152.4,56.9,152.4,115.9z"/>
	</g>
	<g id="_x38_spKVL.tif">
		<g>
			<g>
				<path d="M220.1,247.2c-5.8,1-11.6,2-17.4,3.1c-1.2,0.2-2.3,0.6-3.5,1c-4.5,1-8.7,0.5-12.2-2.6c-3.3-2.9-4.6-10.2-0.3-14.6
					c1.5-1.6,3.1-3.2,4.5-5c2.3-2.9,4.1-6.1,5.4-9.6c0.9-2.1,2.3-3.9,4.3-4.9c3-1.7,7.8-0.8,10.1,2c2.6,3.1,5.6,5.9,8.8,8.5
					c1,0.8,2.1,1.5,3.2,2.1c3.2,1.8,6.1,3.9,7.4,7.5c1,2.8,0.5,7.8-2.9,10.1C225.1,246.2,222.7,247.1,220.1,247.2z"/>
				<path d="M186.4,219.9c0,1.4,0.1,2.8-0.1,4.1c-0.5,3.6-3.6,5.5-7.2,4.6c-3.1-0.7-5.5-2.6-7.5-5c-1.8-2.2-3.2-4.7-3.9-7.5
					c-0.7-2.4-0.8-4.9,0.6-7.1c1.4-2.3,3.4-3.1,6.1-2.6c2.4,0.5,4.4,1.8,6.2,3.4C183.5,212.6,185.6,215.8,186.4,219.9z"/>
				<path d="M236.2,203.3c0.8,5.6-0.8,10.5-4.5,14.7c-0.6,0.7-1.3,1.3-2.1,1.7c-3.2,1.8-6.5,0.9-8.2-2.3c-0.6-1.2-1.1-2.4-1.2-3.7
					c-0.6-5.8,0.8-11,4.9-15.3c0.7-0.7,1.7-1.4,2.6-1.8c2.3-1.1,4.8-0.4,6.4,1.6C235.3,199.7,236,201.3,236.2,203.3z"/>
				<path d="M202.4,201.3c-0.7-4.5-0.1-8.8,2.2-12.6c0.9-1.5,2.1-2.7,3.7-3.3c2.8-0.9,5.6,0.2,7.3,3c2,3.3,2.5,6.9,2.1,10.6
					c-0.3,3.1-1.2,5.9-3.1,8.3c-2.8,3.6-6.9,3.5-9.7-0.1C203.6,205.4,202.8,203.5,202.4,201.3z"/>
				<path d="M198.5,202.1c0.6,2.4,0.4,4.9-0.7,7.3c-1.4,3.1-4.2,4.2-7.4,2.9c-3.1-1.2-5.1-3.8-6.6-6.5c-1.6-2.9-2.7-6-2.3-9.5
					c0.2-1.4,0.5-2.9,1-4.2c1.4-2.8,4.2-3.8,7.2-2.7c2.5,1,4.2,2.8,5.7,4.9C197.1,196.9,198.1,199,198.5,202.1z"/>
			</g>
		</g>
	</g>
</g>
</svg>
