<?xml version="1.0" encoding="utf-8"?>
<!-- Generator: Adobe Illustrator 24.2.3, SVG Export Plug-In . SVG Version: 6.00 Build 0)  -->
<svg version="1.1" id="Layer_1" xmlns="http://www.w3.org/2000/svg" xmlns:xlink="http://www.w3.org/1999/xlink" x="0px" y="0px"
	 width="864px" height="864px" viewBox="0 0 864 864" style="enable-background:new 0 0 864 864;" xml:space="preserve">
<g>
	<g>
		<path d="M231.5,447.6c0.9,0,1.1,1.2,1.1,3.4l0,1.7c0,2.2-0.6,3.7-2.5,4.7c-0.9,0.5-1.4,0.3-3.9,1.6c-3.3,1.5-3.8,3.1-3.8,5.3l0,1
			l5,0c1.6,0,2.5-1.8,3.5-1.8h0.2c0.9,0,1.4,1.1,1.4,3.2l0,4.2c0,2.2-0.5,3.1-1.4,3.2h-0.2c-1,0-1.8-1.8-3.5-1.9l-14.1,0
			c-1.6,0-2.5,1.8-3.5,1.8h-0.2c-0.9,0-1.4-1-1.4-3.2l0-4.2c0-2.2,0.5-3.2,1.4-3.2h0.2c1,0,1.8,1.8,3.5,1.8l6.1,0l-6.7-6.4
			c-1.2-1.2-2.4,0.5-3.3,0.5c-0.8,0-1.2-1-1.2-3.1l0-4.4c0-2.1,0.4-2.7,1.1-2.7s1.1,1,1.6,2.4c0.6,1.8,1.2,2.4,3.2,4.4
			c0,0,1.7,1.6,3.7,3.5c0.1-2.6,1-4.3,5.9-6.9c3.8-2,5.2-2.5,6.1-3.2C230.9,448.6,230.8,447.6,231.5,447.6z"/>
		<path d="M208.3,434.2c0-2.4,0.1-2.5,4.1-3.7c1.5-0.5,13.1-4.3,15.1-4.9c1.6-0.5,2.5-2.4,3.4-2.4h0.2c0.9,0,1.4,0.9,1.4,3.1l0,4.3
			c0,2.2-0.5,3.2-1.4,3.2h-0.2c-1,0-1.3-1.5-2.9-1.1l-1.6,0.4l0,8.1l1.9,0.5c1.6,0.4,1.6-1.3,2.6-1.3l0.2,0c0.9,0,1.4,1,1.4,3.2
			l0,1.4c0,2.2-0.5,3.1-1.4,3.1c0,0-0.2,0-0.2,0c-1,0-1.3-1.8-2.9-2.3l-15.4-5c-1.6-0.5-1.7,1.2-2.7,1.1h-0.2
			c-0.9,0-1.4-1.5-1.4-3.7L208.3,434.2z M223.5,440.4l0-6.5c-4,1.2-9.2,2.6-10.5,3c-0.3,0.1-0.3,0.2-0.3,0.3c0,0.1,0.1,0.2,0.3,0.3
			C214,437.8,219.3,439.3,223.5,440.4z"/>
		<path d="M229.8,400.1c1-0.9,1-1.7,1.8-1.7c0.9,0,1.1,1.2,1.1,3.4l0,1.8c0,2.5-0.3,4-2.8,5c-0.6,0.2-0.8,0.3-3.5,1.2
			c-2.1,0.7-2.5,1.3-2.6,3l0,1.1l3.7,0c1.6,0,2.5-1.8,3.5-1.8h0.2c0.9,0,1.4,1,1.4,3.2l0,4.1c0,2.2-0.5,3.2-1.4,3.2H231
			c-1,0-1.8-1.8-3.5-1.9l-14.1,0c-1.6,0-2.5,1.8-3.5,1.8h-0.2c-0.9,0-1.4-1-1.4-3.2l0-7.4c0-6.8,2.8-11.7,7.6-11.7
			c3.1,0,5.5,2.2,6.8,5.5c0.6-1.7,1.6-3,3.4-3.7C228.4,401,229.3,400.5,229.8,400.1z M218.8,413.8c1.2,0,1.6-0.4,1.6-1.5
			c0-3.5-1.6-5.3-4.6-5.3c-2.5,0-4.7,1.4-4.7,4.9v0c0,1.3,0.5,1.9,2.2,1.9L218.8,413.8z"/>
		<path d="M227.5,381.1L219,381c3.7,1.4,7.7,2.9,9.7,3.8c1.5,0.7,1.8,1.1,1.7,1.9l0,0.2c0,0.9-0.3,1.2-1.8,1.9
			c-1.1,0.5-6.1,2.5-9.8,3.9l8.6,0.1c1.6,0,2.5-2,3.5-2l0.2,0c0.9,0.1,1.4,1.2,1.4,3.4l0,1.4c0,2.2-0.5,3.3-1.5,3.3l-0.2,0
			c-1,0-1.8-2-3.5-2.1l-14.1-0.1c-1.6,0-2.5,1.8-3.5,1.8l-0.2,0c-0.9-0.1-1.4-1-1.4-3.2l0-2.7c0-2.5,0.4-2.9,3.2-3.9
			c1.2-0.5,6.6-2.4,9.5-3.5c-3.4-1.3-7.7-3-9.3-3.7c-3.3-1.5-3.3-1.6-3.3-4l0-2c0-2.2,0.5-2.7,1.4-2.8l0.2,0c1,0,1.8,1.5,3.5,1.5
			l14.1,0.1c1.6,0,2.5-1.9,3.5-1.9c0,0,0.2,0,0.2,0c0.9,0,1.4,1,1.4,3.2l0,4.1c0,2.1-0.5,3.1-1.4,3.2l-0.2,0
			C230,383,229.2,381.1,227.5,381.1z"/>
		<path d="M209.6,356.2c0.2-2.4,0.3-2.4,4.4-3.3c1.5-0.3,13.4-3,15.6-3.4c1.6-0.4,2.7-2.1,3.7-2.1l0.2,0c0.9,0.1,1.3,1.1,1.1,3.3
			l-0.4,4.3c-0.2,2.1-0.8,3.1-1.7,3.1l-0.2,0c-1-0.1-1.2-1.7-2.8-1.4l-1.6,0.3l-0.8,8l1.8,0.7c1.5,0.6,1.8-1.1,2.7-1l0.2,0.1
			c0.9,0.1,1.3,1.2,1.1,3.4l-0.1,1.4c-0.2,2.1-0.8,3.1-1.7,3c0,0-0.2,0-0.2-0.1c-1-0.1-1.1-1.9-2.7-2.6l-14.8-6.5
			c-1.5-0.7-1.8,1-2.8,0.8l-0.2,0c-0.9-0.1-1.3-1.6-1-3.8L209.6,356.2z M224.1,363.9l0.6-6.4c-4.1,0.8-9.4,1.7-10.7,1.9
			c-0.3,0.1-0.4,0.1-0.4,0.2c-0.1,0.1,0.1,0.2,0.3,0.3C214.9,360.3,220.1,362.3,224.1,363.9z"/>
		<path d="M214.2,336.3c0,0-0.2,0-0.2-0.1c-0.9-0.2-1.2-1.3-0.7-3.4l0.9-4c0.5-2.1,1.1-3,2.1-2.8l0.2,0c1,0.2,1.4,2.2,3,2.6l13.7,3
			c1.6,0.4,2.8-1.3,3.8-1.1l0.2,0c0.9,0.2,1.2,1.3,0.7,3.4l-0.9,4c-0.5,2.1-1.1,3-2.1,2.8l-0.2,0c-1-0.2-1.4-2.2-3-2.6l-13.7-3
			C216.4,334.9,215.2,336.5,214.2,336.3z"/>
		<path d="M241.6,320.6c-1.2,4.1-3.9,8.2-7.1,8.9c-2.3,0.4-4.6-1.6-3.8-4.2c0.6-2.1,1.9-2.4,3.2-2.5c3.3-0.2,4.9-1.8,5.5-3.9
			c0.7-2.2,0.2-3.9-1.8-4.5c-1.6-0.5-3.5,0.9-5.2,4.2c-2.7,5-5.8,8.2-10.1,6.9c-4.8-1.5-5.8-7.4-3.9-13.4c1.3-4.1,4.3-8,7.1-7.2
			c1.7,0.5,2.9,1.7,2.9,3.1c0.1,1.5-1,2.4-2.7,2.7c-3.1,0.6-4.7,1.3-5.4,3.4c-0.5,1.6-0.2,3.5,1.5,4c1.9,0.6,3.6-0.8,5.4-4.1
			c3.5-6.5,6.5-7.7,10.2-6.5C241.8,308.7,243.6,314,241.6,320.6z"/>
		<path d="M230.9,280.9c1-2.1,1.1-2.2,5.3-1.7c1.5,0.2,13.7,1.7,15.8,2c1.7,0.2,3.2-1.1,4.2-0.8l0.2,0.1c0.9,0.4,0.9,1.5,0,3.4
			l-1.8,3.9c-0.9,1.9-1.8,2.7-2.7,2.3l-0.2-0.1c-0.9-0.4-0.5-2-2.2-2.3l-1.6-0.3l-3.4,7.3l1.5,1.2c1.3,1.1,2-0.5,2.9-0.1l0.2,0.1
			c0.8,0.4,0.8,1.5-0.1,3.5l-0.6,1.2c-0.9,1.9-1.8,2.6-2.6,2.2c0,0-0.2-0.1-0.2-0.1c-0.9-0.4-0.5-2.2-1.7-3.3L232,288.8
			c-1.2-1.1-2.1,0.3-2.9-0.1l-0.2-0.1c-0.8-0.4-0.7-1.9,0.3-3.9L230.9,280.9z M242.1,293l2.7-5.8c-4.1-0.6-9.4-1.5-10.8-1.8
			c-0.3,0-0.4,0-0.4,0.1c-0.1,0.1,0,0.2,0.2,0.4C234.6,286.6,238.8,290.2,242.1,293z"/>
		<path d="M256.7,246.6c2.1,0.2,4.1,2.2,3.2,4.5c-0.9,2.3-3,2.6-4.3,2.3c-3.3-0.8-5.9-0.8-7.3,1.2c-1.5,2.3,0.2,5.6,3.6,7.8
			c4.9,3.2,10.7,2.4,13.1-1.3c1.6-2.4,1.4-4.9,0.7-7c-0.3-1,1.3-1.4,2.3-0.4c2.3,2.4,2.3,7.7-0.5,11.9c-3.8,5.8-10.8,7.6-16.6,3.7
			c-6.7-4.4-7.3-12.1-4-17.1C249.3,248.7,253.5,246.3,256.7,246.6z"/>
		<path d="M262.5,231.5c1.5-1.8,1.6-1.8,5.5-0.3c1.4,0.6,12.8,5,14.8,5.8c1.6,0.6,3.4-0.3,4.2,0.3l0.2,0.1c0.7,0.6,0.5,1.6-0.9,3.3
			l-2.8,3.4c-1.4,1.7-2.4,2.2-3.1,1.6l-0.2-0.1c-0.8-0.6,0-2-1.6-2.7l-1.5-0.7l-5.1,6.3l1.2,1.6c1,1.3,2.1,0,2.8,0.7l0.1,0.2
			c0.7,0.6,0.4,1.7-0.9,3.4l-0.9,1.1c-1.4,1.7-2.4,2.1-3.1,1.5c0,0-0.2-0.1-0.1-0.2c-0.8-0.6,0.1-2.2-0.8-3.6l-8.7-13.6
			c-0.9-1.4-2.1-0.2-2.8-0.9l-0.2-0.1c-0.7-0.6-0.2-2,1.2-3.7L262.5,231.5z M270.4,245.9l4.1-5c-3.8-1.6-8.7-3.8-10-4.4
			c-0.3-0.1-0.4-0.1-0.4,0c-0.1,0,0,0.2,0.1,0.5C264.7,237.9,267.9,242.4,270.4,245.9z"/>
		<path d="M292.6,227.1c1.2,1.1,3.1,0.4,3.8,1.1l0.2,0.2c0.7,0.7,0.3,1.7-1.2,3.3l-2.9,2.9c-1.5,1.5-2.5,1.9-3.2,1.3l-0.2-0.2
			c-0.7-0.7,0-2.6-1.2-3.8l-10-9.9c-1.2-1.1-1.7-1.4-2.4-0.7l-0.1,0.1c-0.7,0.8-0.8,1.3-0.2,3.5c0.5,2.1,0.6,3,0,3.5
			c0,0-0.1,0-0.1,0.1c-0.8,0.6-1.9-0.3-3.3-2l-0.7-0.8c-1.3-1.6-1.5-2.5-0.2-3.8l11.5-11.7c1.3-1.3,2.2-1.1,3.8,0.2l0.9,0.7
			c1.7,1.3,2.6,2.5,2,3.3c0,0-0.1,0.1-0.1,0.1c-0.5,0.6-1.5,0.6-3.5,0.1c-2.2-0.5-2.8-0.4-3.5,0.3l-0.1,0.1
			c-0.7,0.7-0.4,1.2,0.7,2.4L292.6,227.1z"/>
		<path d="M295.9,204.8c-1-1.3-3-0.8-3.6-1.6l-0.1-0.2c-0.6-0.7-0.1-1.7,1.6-3.1l5.8-4.5c6.3-4.9,11-5,14-1.2c3.1,4,1.9,9-2.3,12.2
			c-1.8,1.4-3.6,1.3-4.6,0.2c-0.3-0.4-0.1-0.5,0.1-0.8c3-2.4,3.2-5.2,1.4-7.5c-1.5-2-4.1-2.9-6.8-0.8l-0.1,0.1
			c-1,0.8-1.2,1.5-0.1,2.9l8.7,11.1c1,1.3,3,0.8,3.6,1.6l0.1,0.2c0.6,0.8,0.1,1.8-1.6,3.1l-3.2,2.6c-1.7,1.4-2.8,1.6-3.4,0.8
			l-0.1-0.2c-0.6-0.8,0.3-2.6-0.7-3.9L295.9,204.8z"/>
		<path d="M327.8,182c-0.9-1.4-3-1-3.6-1.9l-0.1-0.2c-0.5-0.8,0.3-1.8,2.1-3l1.2-0.7c1.9-1.2,3.1-1.4,3.6-0.6l0.1,0.1
			c0.5,0.8-0.7,2.6,0.2,4l5.9,9.3c2.1,3.2,2.1,8.5-3.5,12.1c-5.3,3.4-10.1,3.4-13.4-1.8l-5.7-9c-0.9-1.4-2.9-1.1-3.4-1.9l-0.1-0.2
			c-0.5-0.8,0.1-1.8,1.9-2.9l3.5-2.2c1.9-1.2,2.9-1.3,3.5-0.5l0.1,0.1c0.5,0.8-0.6,2.6,0.3,3.9l5.2,8.2c2.1,3.3,4.5,3.8,6.8,2.4
			c2.3-1.5,3-3.7,1.2-6.5L327.8,182z"/>
		<path d="M361.6,182.6c1.2,0.5,2,0.2,2.3,0.8c0.4,0.8-0.6,1.5-2.6,2.5l-1.6,0.8c-2.3,1.1-3.7,1.5-5.7-0.2c-0.5-0.4-0.6-0.6-2.7-2.6
			c-1.6-1.5-2.3-1.6-3.8-1l-1,0.5l1.7,3.3c0.7,1.5,2.8,1.4,3.2,2.3l0.1,0.2c0.4,0.9-0.3,1.7-2.2,2.7l-3.7,1.8c-2,1-3.1,1-3.5,0.2
			l-0.1-0.2c-0.4-0.9,0.8-2.5,0.1-3.9l-6.3-12.6c-0.7-1.5-2.8-1.4-3.2-2.3l-0.1-0.2c-0.4-0.8,0.3-1.7,2.2-2.7l6.6-3.3
			c6.1-3.1,11.7-2.8,13.9,1.6c1.4,2.7,0.5,5.9-1.9,8.6c1.8-0.3,3.4,0.1,4.8,1.4C360.1,181.8,361.1,182.4,361.6,182.6z M344.4,179
			c0.5,1.1,1.1,1.3,2.1,0.8c3.1-1.6,4-3.8,2.7-6.5c-1.1-2.2-3.4-3.6-6.5-2l0,0c-1.2,0.6-1.5,1.3-0.7,2.8L344.4,179z"/>
		<path d="M383.2,174.4c1.2,0.7,2,0.4,2.2,1c0.3,0.8-0.8,1.4-2.8,2.2l-1.6,0.6c-2.4,0.9-3.8,1.1-5.6-0.8c-0.4-0.5-0.5-0.7-2.4-2.8
			c-1.4-1.7-2.1-1.9-3.7-1.4l-1,0.4l1.3,3.5c0.6,1.5,2.6,1.7,3,2.6l0.1,0.2c0.3,0.9-0.5,1.7-2.5,2.5l-3.9,1.5
			c-2.1,0.8-3.1,0.7-3.5-0.2l-0.1-0.2c-0.3-0.9,1.1-2.4,0.5-3.9l-5-13.2c-0.6-1.5-2.6-1.7-3-2.6l-0.1-0.2c-0.3-0.9,0.4-1.7,2.5-2.5
			l6.9-2.6c6.4-2.4,12-1.6,13.7,3c1.1,2.9-0.1,5.9-2.8,8.3c1.8-0.1,3.3,0.4,4.6,1.8C381.8,173.4,382.7,174.1,383.2,174.4z
			 M366.5,169c0.4,1.1,0.9,1.4,2,1c3.3-1.2,4.4-3.4,3.4-6.1c-0.9-2.3-3-3.9-6.2-2.7l0,0c-1.2,0.5-1.6,1.1-1,2.7L366.5,169z"/>
		<path d="M378.9,155.1c0,0-0.1-0.2,0-0.2c-0.3-0.9,0.5-1.6,2.6-2.2l4-1.2c2.1-0.6,3.2-0.4,3.5,0.5l0.1,0.2c0.3,0.9-1.2,2.3-0.8,3.9
			l4,13.5c0.5,1.6,2.5,1.9,2.8,2.8l0.1,0.2c0.3,0.9-0.5,1.6-2.7,2.3l-4,1.2c-2.1,0.6-3.1,0.4-3.5-0.5l-0.1-0.2
			c-0.3-0.9,1.2-2.3,0.8-3.9l-4-13.5C381.2,156.4,379.1,156.1,378.9,155.1z"/>
		<path d="M399.2,158.8l1.8,8.3c0.3,1.6,2.5,2,2.7,3l0,0.2c0.2,0.9-0.9,1.6-3,2.1l-1.3,0.3c-2.1,0.4-3.3,0.2-3.6-0.7l0-0.2
			c-0.2-1,1.6-2.2,1.3-3.8l-2.9-13.8c-0.3-1.6-2.7-2-3-2.9l0-0.2c-0.2-0.9,1.1-1.7,3.2-2.1l1.3-0.3c3.2-0.7,3.9,1.1,6.1,3.2l9.6,9
			l-2.1-9.9c-0.3-1.6-2.5-2-2.7-3l0-0.2c-0.2-0.9,0.9-1.6,3-2.1l1.3-0.3c2.1-0.5,3.4-0.2,3.6,0.7l0,0.2c0.2,1-1.6,2.2-1.3,3.8
			l3.6,16.7c0.3,1.4-0.4,2.2-1.7,2.5l-0.5,0.1c-4.1,0.9-5.2-1.3-7.2-3C406.3,165.6,401.9,161.5,399.2,158.8z"/>
		<path d="M439.8,163.5c-1.6,2-5.1,3.5-8.9,3.9c-6.9,0.8-12.8-3.5-13.5-10.5c-0.9-8,4.6-13.3,10.7-14c4.2-0.5,8.7,0.9,10.5,3.5
			c1.2,1.7,0.9,4.1-1.4,5c-2.4,0.8-3.9-0.7-4.5-1.9c-1.4-2.9-3.1-4.2-5.4-4c-2.8,0.3-4.2,3.7-3.8,7.7c0.7,6.2,5.1,10.2,9.4,9.7
			c0.7-0.1,1.6-0.3,2.3-0.6l-0.1-0.5c-0.3-2.8-1.3-4.2-3.1-4c-1.4,0.2-2.1-0.3-2.2-1.2l0-0.2c-0.1-1.1,0.3-1.5,2.3-1.7l6.3-0.7
			c2.1-0.2,2.8,0.3,2.9,1.1l0,0.2c0.1,1.3-1.3,1.1-1,4.2l0,0.3C440.6,161.2,440.7,162.4,439.8,163.5z"/>
		<path d="M449.1,143.3c0,0,0-0.2,0-0.2c0-0.9,1-1.4,3.1-1.4l4.1,0c2.2,0,3.2,0.4,3.2,1.4l0,0.2c0,1-1.8,1.9-1.8,3.5l0.1,14.1
			c0,1.6,1.9,2.5,1.9,3.5l0,0.2c0,0.9-1,1.4-3.2,1.4l-4.1,0c-2.1,0-3.1-0.4-3.2-1.4l0-0.2c0-1,1.8-1.9,1.8-3.5l-0.1-14.1
			C451,145.1,449.2,144.3,449.1,143.3z"/>
		<path d="M467.6,152.5L467,161c-0.1,1.6,1.8,2.6,1.8,3.6l0,0.2c-0.1,0.9-1.3,1.3-3.4,1.2l-1.4-0.1c-2.1-0.1-3.3-0.7-3.2-1.6l0-0.2
			c0.1-1,2.1-1.7,2.3-3.3l1-14c0.1-1.6-2.1-2.6-2-3.6l0-0.2c0.1-0.9,1.6-1.3,3.7-1.2l1.4,0.1c3.2,0.2,3.4,2.2,5,4.8l6.7,11.3
			l0.7-10.1c0.1-1.6-1.8-2.6-1.8-3.6l0-0.2c0.1-0.9,1.3-1.3,3.4-1.2l1.4,0.1c2.2,0.2,3.3,0.7,3.2,1.6l0,0.2c-0.1,1-2.1,1.7-2.3,3.3
			l-1.2,17c-0.1,1.4-1,2-2.3,2l-0.5,0c-4.2-0.3-4.6-2.6-6.1-4.9C472.6,161,469.6,155.8,467.6,152.5z"/>
		<path d="M508.8,166.6l1.7-8.4c-2.1,3.3-4.3,7-5.6,8.8c-1,1.3-1.4,1.5-2.2,1.4l-0.2,0c-0.8-0.2-1.1-0.5-1.5-2.1
			c-0.3-1.2-1.3-6.5-1.9-10.3l-1.7,8.4c-0.3,1.6,1.5,2.9,1.3,3.8l0,0.2c-0.2,0.9-1.5,1.1-3.6,0.7l-1.3-0.3c-2.1-0.4-3.1-1.1-3-2.1
			l0-0.2c0.2-1,2.4-1.4,2.7-3l2.8-13.8c0.3-1.6-1.3-2.8-1.1-3.8l0-0.2c0.2-0.9,1.3-1.2,3.4-0.7l2.6,0.5c2.4,0.5,2.8,0.9,3.2,3.9
			c0.2,1.3,1.1,7,1.6,10c2-3.1,4.4-7,5.4-8.4c2-2.9,2.2-2.9,4.6-2.4l2,0.4c2.1,0.4,2.6,1,2.5,2l0,0.2c-0.2,1-1.8,1.5-2.1,3.1
			l-2.8,13.8c-0.3,1.6,1.3,2.8,1.1,3.8c0,0,0,0.2-0.1,0.2c-0.2,0.9-1.3,1.2-3.4,0.7l-4-0.8c-2.1-0.4-3-1.1-2.8-2l0-0.2
			C506.4,168.7,508.4,168.2,508.8,166.6z"/>
		<path d="M543.6,158.2l-0.1,0.2c-0.3,0.9-2.7,1.2-3.9,2.3l-7.3,6.6l-1.7,5.5c-0.5,1.6,1,2.9,0.7,3.9l-0.1,0.2
			c-0.3,0.9-1.4,1-3.5,0.4l-3.9-1.2c-2.1-0.7-2.9-1.4-2.6-2.3l0.1-0.2c0.3-0.9,2.3-1.2,2.8-2.8l2-6.2c-0.4-1.8-1.8-6.1-2.2-8.1
			c-0.3-1.6-1.9-3.7-1.6-4.7l0.1-0.2c0.3-0.9,1.4-1.1,3.4-0.4l3.9,1.2c2.1,0.7,2.9,1.4,2.7,2.4l-0.1,0.2c-0.3,0.9-1.6,0.1-1.5,1.7
			c0.2,2.4,0.8,4.2,1.3,6.2c1.8-1.6,3.6-3.2,4.4-4.1c1.1-1.2-0.3-1.5,0-2.4l0.1-0.2c0.4-0.9,1.5-1,3.5-0.4l1,0.3
			C543.1,156.6,543.9,157.3,543.6,158.2z"/>
		<path d="M545.1,183.5c-2-0.9-2.7-1.7-2.3-2.6l0.1-0.2c0.4-0.9,2.4-0.9,3.1-2.4l5.8-12.8c0.7-1.5-0.7-3-0.2-3.9l0.1-0.2
			c0.4-0.9,1.5-0.9,3.5,0l3.8,1.7c2,0.9,2.7,1.7,2.3,2.6l-0.1,0.2c-0.4,0.9-2.4,0.9-3.1,2.4l-5.8,12.8c-0.7,1.5-0.6,2.1,0.7,2.7
			l1.5,0.7c1.8,0.8,2.5,0.7,5.2-0.8c1.9-1.1,2.7-1.4,3.4-0.9l0.1,0.1c0.8,0.6,0.2,1.9-1,3.7l-0.9,1.2c-1.2,1.7-1.9,2.1-3.5,1.4
			L545.1,183.5z"/>
		<path d="M584,175.9c2,1.2,2.1,1.3,1.2,5.4c-0.3,1.5-2.8,13.5-3.3,15.6c-0.3,1.6,0.9,3.3,0.4,4.2l-0.1,0.2
			c-0.5,0.8-1.5,0.8-3.4-0.3l-3.8-2.2c-1.9-1.1-2.5-2-2.1-2.8l0.1-0.2c0.5-0.9,2-0.4,2.4-2l0.4-1.6l-7-4l-1.4,1.4
			c-1.2,1.2,0.3,2.1-0.2,2.9l-0.1,0.2c-0.5,0.8-1.6,0.7-3.5-0.4l-1.2-0.7c-1.9-1.1-2.5-2-2-2.8c0,0,0.1-0.2,0.1-0.2
			c0.5-0.9,2.2-0.3,3.4-1.4l12-10.8c1.2-1.1-0.1-2.1,0.4-2.9l0.1-0.2c0.5-0.8,2-0.5,3.9,0.6L584,175.9z M571,186l5.6,3.2
			c1-4,2.3-9.2,2.7-10.6c0.1-0.3,0-0.4-0.1-0.4c-0.1-0.1-0.3,0-0.4,0.1C578.1,179.1,574.1,182.9,571,186z"/>
		<path d="M594.1,188.1c1-1.3,0-3.1,0.5-3.9l0.1-0.2c0.6-0.8,1.6-0.6,3.4,0.7l6,4.3c6.5,4.7,7.8,9.2,5,13.1c-3,4.1-8.1,4.2-12.4,1.1
			c-1.9-1.4-2.3-3.1-1.5-4.3c0.3-0.4,0.5-0.3,0.8-0.1c3.1,2.2,5.9,1.6,7.6-0.7c1.5-2,1.7-4.7-1.1-6.7l-0.1-0.1
			c-1.1-0.8-1.8-0.7-2.8,0.7l-8.3,11.4c-1,1.3,0,3.1-0.5,3.9l-0.1,0.2c-0.6,0.7-1.7,0.5-3.4-0.7l-3.3-2.4c-1.8-1.3-2.3-2.3-1.7-3
			l0.1-0.2c0.6-0.8,2.6-0.4,3.5-1.7L594.1,188.1z"/>
		<path d="M633.9,221c-0.5,2-2.9,3.7-5.1,2.4c-2.1-1.3-2-3.4-1.4-4.7c1.3-3.1,1.9-5.7,0.1-7.4c-2-1.9-5.5-0.8-8.3,2.1
			c-4,4.2-4.3,10.1-1.1,13.1c2.1,2,4.5,2.3,6.8,1.9c1.1-0.1,1.2,1.5,0,2.3c-2.7,1.8-8,0.9-11.6-2.6c-5-4.8-5.5-12-0.7-17
			c5.5-5.8,13.2-5,17.5-0.9C633.2,213.3,634.8,217.9,633.9,221z"/>
		<path d="M646.6,235.7c1.2-1.1,0.6-3.2,1.3-3.8l0.2-0.1c0.7-0.6,1.9,0,3.3,1.6l0.9,1c1.4,1.7,1.8,2.8,1.1,3.5l-0.1,0.1
			c-0.7,0.6-2.7-0.3-4,0.7l-8.3,7.2c-2.9,2.5-8.1,3.3-12.5-1.7c-4.1-4.8-4.8-9.5-0.2-13.5l8-6.9c1.2-1.1,0.7-3,1.4-3.7l0.2-0.1
			c0.7-0.6,1.7-0.1,3.2,1.5l2.7,3.1c1.4,1.7,1.7,2.7,1,3.4l-0.1,0.1c-0.7,0.6-2.6-0.2-3.8,0.9l-7.4,6.4c-3,2.6-3.1,5-1.3,7.1
			c1.8,2.1,4.1,2.4,6.6,0.2L646.6,235.7z"/>
		<path d="M660.2,250.3l-2.5-3.6c-1.1-1.6-1.7-2-4.1-1.5c-2.1,0.5-2.9,0.3-3.3-0.2l-0.1-0.1c-0.5-0.7,0-1.5,1.8-3l1.2-0.9
			c2.2-1.5,3-1.4,4,0l8.1,11.6c1.3,1.8,1.4,2.9,0.7,3.4l-0.2,0.1c-0.8,0.6-1.7,0.7-4,0.8l-16.6,0.5c-1.2,0.1-2.2,0.5-1.1,2l0.9,1.3
			c1.2,1.6,1.8,1.9,4.9,2c2.2,0,3.1,0.2,3.4,0.9l0.1,0.1c0.4,0.9-0.8,1.8-2.8,2.7l-1.4,0.6c-1.9,0.8-2.7,0.9-3.8-0.7l-7.9-11.2
			c-1.2-1.8-1.4-2.8-0.6-3.4l0.2-0.1c0.8-0.6,4.1-0.8,5.7-0.9c1.5-0.1,9.4-0.3,14.6-0.5L660.2,250.3z"/>
		<path d="M670.8,264.4c0,0,0.2-0.1,0.2-0.1c0.8-0.5,1.7,0.2,2.8,2.1l2,3.6c1.1,1.9,1.1,3,0.3,3.5l-0.2,0.1
			c-0.9,0.5-2.5-0.7-3.9,0.1l-12.3,6.8c-1.4,0.8-1.3,2.8-2.2,3.3l-0.2,0.1c-0.8,0.5-1.7-0.2-2.8-2.1l-2-3.6c-1-1.9-1.1-3-0.3-3.5
			l0.2-0.1c0.9-0.5,2.5,0.7,3.9-0.1l12.3-6.8C670.1,266.9,669.9,264.9,670.8,264.4z"/>
		<path d="M666.8,295.2c-1.5,0.7-1.5,2.7-2.4,3.1l-0.2,0.1c-0.9,0.4-1.7-0.3-2.6-2.3l-1.7-3.8c-0.9-2-0.9-3.1,0-3.5l0.2-0.1
			c0.9-0.4,2.5,0.9,3.9,0.2l12.8-5.9c1.5-0.7,1.9-1.1,1.5-2l-0.1-0.1c-0.5-0.9-1-1.2-3.2-1.5c-2.1-0.3-3-0.5-3.3-1.3
			c0,0,0-0.1,0-0.1c-0.3-0.9,1-1.7,3-2.4l1-0.3c1.9-0.6,2.9-0.5,3.7,1.2l6.8,14.9c0.8,1.7,0.2,2.5-1.5,3.5l-0.9,0.6
			c-1.8,1.1-3.3,1.5-3.8,0.7c0,0,0-0.1-0.1-0.1c-0.4-0.7,0-1.6,1.2-3.3c1.3-1.9,1.4-2.4,1-3.4l0-0.1c-0.4-0.9-1-0.9-2.5-0.2
			L666.8,295.2z"/>
		<path d="M668.4,313.2c-0.6-2.1-0.5-3.2,0.4-3.5l0.2-0.1c0.9-0.3,2.3,1.2,3.9,0.7l13.4-4.1c1.6-0.5,1.8-2.5,2.8-2.8l0.2-0.1
			c0.9-0.3,1.6,0.5,2.3,2.6l1.2,3.9c0.6,2.1,0.5,3.1-0.4,3.5l-0.2,0.1c-0.9,0.3-2.3-1.2-3.9-0.7l-13.4,4.1c-1.6,0.5-2,1-1.6,2.3
			l0.5,1.6c0.6,1.8,1.1,2.3,4,3.3c2.1,0.7,2.9,1.1,2.9,1.9l0,0.1c0.1,1-1.3,1.4-3.5,1.7l-1.5,0.1c-2.1,0.2-2.8,0-3.4-1.8
			L668.4,313.2z"/>
		<path d="M690.6,351.2c-7.9,1.5-13.6-3.4-14.9-9.9c-1.4-7.4,2.4-13.3,9.2-14.6c7.9-1.5,13.6,3.4,14.9,9.9
			C701.3,343.9,697.5,349.8,690.6,351.2z M686.3,344.9c5.5-1.1,10.6-5.9,9.9-9.5c-0.5-2.5-3.4-3.2-7.1-2.5
			c-5.5,1.1-10.6,5.9-9.9,9.6C679.8,345,682.8,345.6,686.3,344.9z"/>
		<path d="M678.8,362.7c-0.2-1.8,0.1-2.3,3.7-3.8c1.5-0.6,12.6-5.7,14.7-6.5c1.5-0.6,2.3-2.2,3.3-2.3c0,0,0.2-0.1,0.2-0.1
			c0.9-0.1,1.5,0.9,1.7,3.1l0.3,4c0.2,2.2-0.2,3.3-1.2,3.4l-0.2,0c-1,0.1-1.4-1.8-3-1.3c-2.1,0.7-8.7,3.4-11.8,4.8
			c3.2,0.8,10.2,2.7,12.7,3.2c1.6,0.3,1.5-1.6,2.5-1.6l0.2,0c0.9,0,1.5,1,1.7,3.1l0.1,1.1c0.2,2.1-0.2,3.2-1.2,3.2l-0.2,0
			c-1,0-1.5-1.6-3.1-2l-15.8-4c-4-1-4.4-1.4-4.6-3.1L678.8,362.7z"/>
		<path d="M688.3,391.2L688.3,391.2c0-0.4,0.2-0.5,0.8-1c0.9-0.7,1.1-1.5,1-2.5l0-4.7l-4.9,0.1c-1.8,0-2.6,0.7-2.6,2.2l0,1.7
			c0.1,1.9-0.1,2.5,2.4,4.2c1.8,1.3,2.4,1.9,2.3,2.7l0,0.1c-0.2,1-1.7,1-3.8,0.6l-0.9-0.2c-2.1-0.4-2.7-0.7-2.7-2.6l-0.2-14.2
			c0-2.2,0.4-3.1,1.4-3.2l0.2,0c1,0,1.9,1.8,3.5,1.8l14.1-0.1c1.6,0,2.5-1.9,3.5-1.9l0.2,0c0.9,0,1.4,1,1.5,3.2l0.2,14.2
			c0,1.9-0.5,2.5-2.6,2.5l-1.2,0c-2.1,0-3.6-0.4-3.6-1.4l0-0.1c0-0.8,1.4-1.5,2.7-2.2c1.4-0.7,1.7-1.8,1.7-3.2l0-2.1
			c0-1.5-0.9-2.2-2.6-2.2L693,383l0,4.7c0,1,0.1,1.8,1.1,2.5c0.7,0.5,0.8,0.7,0.8,1.1l0,0c0,0.6-0.8,0.9-2.2,0.9l-2.2,0
			C689.1,392.2,688.3,391.8,688.3,391.2z"/>
		<path d="M679.5,406.2c0-4.3,1.3-9,4.2-10.5c2.1-1.1,4.8,0.2,4.8,2.9c0,2.2-1.1,2.8-2.4,3.4c-3.1,1.2-4.1,3.2-4.1,5.4
			c0,2.3,1,3.8,3,3.8c1.7,0,3.1-1.9,3.8-5.5c1.1-5.6,3.2-9.5,7.6-9.6c5,0,7.7,5.4,7.7,11.6c0,4.3-1.8,8.9-4.7,8.9
			c-1.8,0-3.3-0.8-3.7-2.1c-0.5-1.4,0.3-2.6,1.8-3.4c2.8-1.5,4.1-2.6,4.1-4.9c0-1.7-0.8-3.4-2.6-3.4c-1.9,0-3.2,1.9-4,5.5
			c-1.4,7.2-3.9,9.2-7.9,9.2C682.8,417.6,679.5,413.1,679.5,406.2z"/>
		<path d="M684.8,442.7l8.6,0c-3.7-1.4-7.7-2.8-9.7-3.7c-1.5-0.7-1.8-1.1-1.8-1.8v-0.2c0-0.9,0.3-1.2,1.8-1.9c1.1-0.6,6.1-2.5,9.7-4
			l-8.6,0c-1.6,0-2.5,2-3.5,2h-0.2c-0.9,0-1.4-1.2-1.4-3.4l0-1.4c0-2.2,0.5-3.3,1.4-3.4h0.2c1,0,1.8,2,3.5,2l14.1,0
			c1.6,0,2.5-1.8,3.5-1.9h0.2c0.9,0,1.4,1,1.4,3.2l0,2.7c0,2.5-0.3,2.9-3.2,3.9c-1.2,0.5-6.6,2.5-9.5,3.6c3.4,1.3,7.7,2.9,9.3,3.6
			c3.3,1.4,3.3,1.5,3.3,4l0,2c0,2.2-0.5,2.8-1.4,2.8h-0.2c-1,0-1.8-1.5-3.5-1.5l-14.1,0c-1.6,0-2.5,1.9-3.5,1.9c0,0-0.2,0-0.2,0
			c-0.9,0-1.4-1-1.4-3.2l0-4.1c0-2.1,0.5-3.1,1.4-3.2h0.2C682.3,440.8,683.1,442.7,684.8,442.7z"/>
		<path d="M688.3,469L688.3,469c0-0.4,0.2-0.5,0.8-1c0.9-0.7,1.1-1.5,1.1-2.5l0-4.7l-4.9,0c-1.8,0-2.6,0.7-2.6,2.2l0,1.7
			c0,1.9-0.2,2.5,2.3,4.3c1.8,1.3,2.4,1.9,2.2,2.8l0,0.1c-0.2,1-1.7,1-3.8,0.6l-0.9-0.2c-2.1-0.4-2.7-0.8-2.7-2.7l0-14.2
			c0-2.2,0.5-3.1,1.4-3.2h0.2c1,0,1.8,1.8,3.5,1.8l14.1,0c1.6,0,2.5-1.8,3.5-1.9h0.2c0.9,0,1.4,1,1.4,3.2l0,14.2
			c0,1.9-0.5,2.5-2.6,2.5h-1.2c-2.1,0-3.6-0.5-3.6-1.5v-0.1c0-0.8,1.4-1.5,2.7-2.2c1.4-0.7,1.7-1.8,1.7-3.2l0-2.1
			c0-1.5-0.9-2.2-2.6-2.2l-5.3,0l0,4.7c0,1,0.1,1.8,1,2.5c0.6,0.5,0.8,0.7,0.8,1.1v0c0,0.6-0.8,0.9-2.2,0.9h-2.2
			C689.1,470,688.3,469.6,688.3,469z"/>
	</g>
	<g>
		<path d="M326.3,247l-1.2-9.5c-3.4,2.9-6.7,5.9-9.9,9l10,1.5C325.9,248,326.3,247.6,326.3,247z"/>
		<path d="M654.3,375.5c-2.5-103-90.2-185.8-197.9-185.8c-49.1,0-94,17.2-128.6,45.6l6.2,9.4c0.3,0.4,1,0.5,1.4,0.2l8.5-9.4
			c0.8-0.5,1.8,0.1,1.6,1l-4.9,12.3c-0.1,0.5,0.2,1,0.7,1.2l13.2,1.3c0.9,0.3,1,1.5,0.2,1.9l-11.7,4.1c-0.5,0.2-0.7,0.8-0.5,1.3
			l6.1,10.9c0.4,0.9-0.5,1.7-1.4,1.3l-10.7-6.4c-0.5-0.2-1.1,0-1.3,0.4l-4.6,11.4c-0.5,0.8-1.7,0.7-1.9-0.2l-1.5-12.1
			c-0.1-0.5-0.6-0.9-1.2-0.8l-12,3.4c-0.9,0.2-1.6-0.9-1-1.6l9.5-8.6c0.3-0.4,0.3-1-0.1-1.4l-9.3-6.2
			c-32.8,33.1-53.3,77.6-54.5,126.7c0,0.2,0,50.9,0,108.4c1.9-2.4,3.8-4.7,5.7-6.8c5.4-6.3,11.2-12.1,17.2-17.4
			c0.9-0.8,1.1-1.3,0.9-2.4c-1-5.2-1.6-10.8-2.1-18.2c-0.1-2.4-0.5-4.8-0.8-7.2c-0.2-1.4-0.4-2.8-0.6-4.2c-0.5-4.5-1-9.2-1.5-13.6
			l-0.2-1.8c-0.1-1.1-0.2-2.3-0.4-3.4c-0.3-3.1-0.7-6.3-0.9-9.4c-0.4-5.8-0.6-10.7,0.6-15.7c0.7-2.7,1.7-4.9,3.2-6.7
			c1.9-2.3,4.4-3.4,7.6-3.4c0.5,0,1.1,0,1.6,0.1c7.5,0.7,14.6,3.1,21.8,7.2c8.2,4.7,16,10.8,24.4,19.3c7.9,7.9,14.3,15.5,19.6,23.3
			l0.5,0.7c2.1,3,4.2,6.2,5.7,9.6c0.2,0.3,0.3,0.5,0.9,0.7c5.4,1.6,10.6,3.3,15.1,4.7c5.8,1.8,11.6,4.8,18.5,9.2
			c0.5,0.4,0.9,0.5,1.4,0.5c0.2,0,0.5,0,0.8-0.1c10.6-3,21.2-7.5,32.4-13.7c5.2-2.9,10.8-5.9,16.7-9c-0.8-0.1-1.6-0.1-2.4-0.2
			c-49.5-5.2-88.4-45.1-92.4-94.7c-4.3-52.4,30.3-97.4,78-109.5c1.1-0.3,1.7,1.1,0.8,1.8c-21.7,15.1-36.3,39.9-37.3,68.1
			c-2,51.5,39.2,92.5,90.6,90.4c31.4-1.3,58.6-19.2,72.8-45.3c0.5-1,2-0.5,1.9,0.6c-3.8,26.8-17.8,50.2-37.9,66.4
			c3.8-0.3,7.7-0.5,11.5-0.5c0.5,0,1,0,1.5,0c4.5,0,9.3,0.2,15.5,0.7c7.5,0.6,15,1.8,22.3,3.7c8.8,2.2,17.6,5.4,26.1,9.3
			c7,3.2,14,6.7,20.2,9.7c2,1,3.9,2.2,5.8,3.4l1.6,1c3.6,2.3,7.4,4.7,11,7.2c6,4.1,11.4,8.9,16.3,13.4c0.7,0.6,1.3,1.2,1.9,1.8
			C654.4,409.5,654.3,375.6,654.3,375.5z M292.6,338.1c-4.4,0-8-3.6-8-8s3.6-8,8-8c4.4,0,8,3.6,8,8S297,338.1,292.6,338.1z
			 M341,356.8l-7.5,2.9l-3.2,17.3c-0.1,0.3-0.5,0.3-0.6,0l-3.8-17.1l-8.9-3.3c-0.5-0.1-0.5-0.8,0-0.9l9.2-2l2.9-11.2
			c0.1-0.3,0.5-0.3,0.6,0l3.3,11.4l8.1,2.4C341.3,356.3,341.3,356.7,341,356.8z M371.3,234.3c-2.7,0-4.9-2.2-4.9-4.9
			s2.2-4.9,4.9-4.9s4.9,2.2,4.9,4.9S374,234.3,371.3,234.3z M463.6,200c4.4,0,8,3.6,8,8c0,4.4-3.6,8-8,8s-8-3.6-8-8
			C455.5,203.5,459.1,200,463.6,200z M491.7,318.6l-21.4-0.8c-0.4,0-0.7,0.4-0.6,0.9l7.8,21.5c0.2,0.7-0.5,1.2-1.1,0.7L461,325.2
			c-0.3-0.3-0.9-0.2-1,0.3l-6.9,21.2c-0.3,0.6-1.1,0.5-1.3-0.2l-1.9-22.5c-0.1-0.5-0.6-0.7-1-0.5l-19,11.4c-0.6,0.3-1.2-0.4-0.9-1
			l11.7-18.8c0.2-0.4,0-0.9-0.4-1l-21.3-3.6c-0.6-0.2-0.7-1.1-0.1-1.3l20.4-6c0.4-0.2,0.5-0.7,0.3-1.1l-14.2-17.2
			c-0.4-0.6,0.1-1.3,0.7-1.1l20.8,10.7c0.4,0.2,0.9-0.1,0.9-0.6l-1.7-23.9c0-0.7,0.9-0.9,1.2-0.3l11.5,22.9c0.2,0.4,0.8,0.5,1.1,0.1
			l11.5-19.9c0.4-0.5,1.2-0.1,1.2,0.6l-4.1,21c-0.1,0.5,0.3,0.9,0.7,0.8l20.3-3.3c0.6-0.1,1,0.8,0.5,1.2l-17.5,12.7
			c-0.3,0.3-0.3,0.9,0.1,1.1l19.4,10.4C492.5,317.7,492.3,318.6,491.7,318.6z M500.8,357.6c-3.3,0-6-2.7-6-6c0-3.3,2.7-6,6-6
			c3.3,0,6,2.7,6,6C506.8,354.9,504.1,357.6,500.8,357.6z M539.9,251l-15.8,4.3l-4.6,24.8c-0.1,0.5-0.8,0.5-1,0l-6.2-24.6l-16.1-5.5
			c-0.7-0.2-0.7-1.2,0-1.4l16.6-4.4l4.9-23.2c0.1-0.5,0.8-0.4,0.9,0l4.7,23.5l16.6,5.5C540.3,250.3,540.3,250.9,539.9,251z
			 M552.1,279.1c-2.7,0-4.9-2.2-4.9-4.9c0-2.7,2.2-4.9,4.9-4.9c2.7,0,4.9,2.2,4.9,4.9C557,276.9,554.8,279.1,552.1,279.1z
			 M600.3,298.7c4.6,0,8.3,3.7,8.3,8.3s-3.7,8.3-8.3,8.3c-4.6,0-8.3-3.7-8.3-8.3S595.7,298.7,600.3,298.7z M619.4,362.1
			c-0.5,0.1-0.9,0.6-0.8,1.1l4.3,13.3c0.1,1-0.9,1.5-1.7,0.8l-8.7-10c-0.4-0.4-1-0.4-1.4,0l-7.5,9.6c-0.6,0.6-1.8,0.1-1.8-0.9
			l1.4-12.6c0-0.6-0.4-1.1-1-1.2l-12.5-0.6c-0.9-0.2-1.3-1.4-0.6-1.9l10.6-5.5c0.4-0.3,0.5-0.9,0.2-1.4l-8.2-10.5
			c-0.5-0.9,0.2-1.8,1.1-1.5l11.9,6.3c0.5,0.2,1.1-0.1,1.2-0.6l2.2-13.1c0.3-0.9,1.5-0.9,1.9,0l3.7,13.6c0.2,0.5,0.8,0.8,1.3,0.7
			l11.5-6.1c0.9-0.3,1.7,0.8,1.3,1.6l-7.4,11.1c-0.2,0.5-0.1,1.1,0.4,1.4l12.2,5.1c0.8,0.6,0.6,1.8-0.3,1.9L619.4,362.1z
			 M633.8,406.3c-3.1,0-5.6-2.5-5.6-5.6c0-3.1,2.5-5.6,5.6-5.6c3.1,0,5.6,2.5,5.6,5.6C639.5,403.8,636.9,406.3,633.8,406.3z"/>
	</g>
	<g>
		<path d="M700.6,545.8c-1.1-7.9-2.9-15.8-5.5-23.3c-2.9-8.3-6.9-16.5-12.3-25.1c-4.6-7.3-9.2-13.9-13.8-19.8
			c-0.1-55.4-0.5-99.8-0.5-102.4l0,0c-1.3-53.5-24-103.6-63.8-141.1c-39.9-37.5-92.6-58.2-148.4-58.2s-108.5,20.7-148.4,58.2
			c-39.8,37.5-62.5,87.6-63.8,141.1l0,0c0,3.2,0.3,57.1,0.4,137.3c-2.3,3.7-4.3,7.5-6.1,11.3c-0.9,1.8-2.3,2.9-4.4,3.4l-0.6,0.2
			c-4.5,1.1-9.2,2.1-13.8,2.9c-5.2,0.9-10.6,1.7-15.4,2.5c-4.8,0.8-9.8,1.5-14.7,2.4c-8.5,1.4-15.4,3.2-21.8,5.5
			c-1.8,0.7-3.6,1.6-5.7,2.9c-2,1.3-2.6,3.2-1.7,5.5c0.4,1.1,0.9,2.4,1.5,3.6c2.5,4.7,5.8,9.3,10.7,14.7c2.4,2.7,5.4,5.2,9,7.9
			l1.6,1.2c3.8,2.7,7.6,5.6,12,7.6c6.8,3.1,13.8,6,20.3,8.7c4.4,1.9,8.5,3.2,12.3,4c0.1,0,0.2,0,0.3,0c0.4,0,0.8-0.2,1.1-0.5
			c0.4-0.4,0.5-1,0.3-1.5c-1-3.1-1.6-6.1-1.7-9.1c-0.1-1.7-0.8-2.6-2.3-2.9c-1.6-0.3-3.3-0.6-4.9-0.8l-0.4-0.1
			c-0.4-0.1-0.8-0.1-1.2-0.1c-0.7,0-1.2-0.1-1.8-0.2c-1.3-0.3-2-1-2.2-2.1c-0.2-1.2,0.2-2.1,1.3-2.9c0.6-0.4,0.8-1.1,0.5-1.8
			c-0.2-0.6-0.8-1-1.4-1c-0.1,0-0.1,0-0.2,0c-0.8,0.1-1.7,0.2-2.5,0.3l-2.1,0.3c-0.4,0.1-0.8,0.1-1.2,0.2l-0.1,0
			c-1,0.2-2,0.3-2.9,0.3c-1.5,0-2.6-0.6-3.2-1.9c-0.7-1.3-0.5-2.5,0.5-3.8c0.6-0.7,1.3-1.4,2-2c3.5-3,7.8-5.5,13.5-7.9
			c0.6-0.3,1-0.9,0.9-1.5s-0.6-1.2-1.2-1.3c-3.4-0.7-7-1-10.6-1c-2.9,0-5.9,0.2-8.9,0.6c-5.2,0.7-10.5,2-16,4
			c-1,0.3-2.1,0.6-3.3,0.7c-0.1,0-0.1,0-0.2,0c-1,0-1.7-0.5-2-1.4c-0.3-1,0.1-1.9,1.1-2.6c0.2-0.2,0.5-0.3,0.9-0.5
			c7.1-3.1,14.7-5,22.6-5.7c1.9-0.2,3.9-0.3,5.8-0.3c7,0,13.9,1.2,20.5,3.6c0.8,0.3,1.4,0.6,1.9,0.9c0.9,0.7,1.4,1.6,1.4,2.6
			c0,1-0.6,1.9-1.5,2.5c-0.5,0.3-1.1,0.7-1.8,0.9c-0.7,0.3-1.4,0.6-2.1,0.9c-1,0.4-2,0.8-3,1.2c-2.2,0.9-4.3,1.9-6.3,2.8
			c-0.6,0.3-1,1-0.8,1.7c0.2,0.7,0.8,1.2,1.5,1.2c0,0,0.6,0,0.6,0c2.4,0,4.4,0.2,6.1,0.7c1.9,0.5,3.6,1,5,1.6c1,0.4,1.5,1.3,1.5,2.5
			c0,1.1-0.6,1.9-1.7,2.4c-0.2,0.1-0.5,0.2-0.7,0.3c-0.6,0.2-1,0.7-1,1.3s0.3,1.2,0.9,1.4c2.4,1.1,3.7,2.8,4.1,5.2
			c0.3,2.2,0.7,4.2,1.2,6c1.2,4.7,2.5,9.6,4.8,14.1c1.1,2.1,2.4,4.1,3.6,6.1l0.9,1.5c2.6,4.1,5.6,8.1,9.4,12.3
			c1.7,1.9,3.7,3.5,5.7,5.1c0.8,0.6,1.5,1.2,2.2,1.8c3.7,3.1,8,6.1,13.2,8.9c5.1,2.8,10,4.6,15.1,5.5c3.2,0.6,6.3,1.1,9.4,1.2
			c0.6,0,1.2,0,1.8,0c2.7,0,5.4-0.1,8-0.3c0,0,0.1,0,0.1,0c0.8,0,1.7-0.1,2.5-0.1c1.1-0.1,2.4-0.2,3.9-0.6c2.9-0.6,6.8-1.5,10.6-2.4
			l0.6-0.2c2.5-0.6,5-1.2,7.5-2c9-3,17.8-6,26.6-9.2c2.9-1,5.8-2.2,8.6-3.3c3.2-1.3,6.4-2.6,9.7-3.7c5.6-2,10.6-5,15.1-7.9
			c3.3-2.2,6.3-4.8,9.3-7.3c0.6-0.5,1.2-1,1.8-1.6c2.7-2.3,5-5,6.7-8c2.5-4.3,4.3-8.9,5.2-13.6c1-5,1.9-9.9,2.7-14.6
			c0.9-5.5,2-12.7,1.9-20.1c0-2.7,0.1-5.4,0.1-8c0-1.2,0.1-2.4,0.1-3.6c0-0.1,0-0.2,0-0.3l0-1.4c0-1.1,0-2.2,0-3.3
			c-0.4-12.8-1.6-24.3-3.5-35c-1.9-10.6-4.2-18.5-7.4-25.6c-4.7-10.2-11.2-17.8-19.9-23.3c-9.7-6.1-19.5-9.7-29.7-11.1
			c-1.8-0.2-3.3-0.4-4.8-0.4c-1.7,0-3.2,0.2-4.5,0.6c-0.8,0.2-1.6,0.3-2.3,0.3c-1.8,0-3.4-0.7-5-2c-0.3-0.2-0.6-0.4-1-0.4
			c-0.1,0-0.2,0-0.4,0c-0.5,0.1-0.9,0.4-1,0.9c-0.6,1.4-1.6,2.2-2.8,2.2c-0.8,0-1.6-0.4-2.4-1.1c-0.8-0.7-1.6-1.6-2.2-2.6
			c-0.8-1.4-1.7-2.9-2.4-4.3c-0.3-0.5-0.8-0.8-1.3-0.8c-0.2,0-0.4,0-0.6,0.1c-0.7,0.3-1.1,1.1-0.9,1.8l0.3,1.1
			c0.3,1,0.6,2.1,0.8,3.1c0.2,0.7,0,1.4-0.4,1.9c-0.4,0.5-1,0.7-1.6,0.7c-0.2,0-0.5,0-0.7-0.1c-0.4-0.1-0.9-0.3-1.3-0.6
			c-0.7-0.5-1.3-0.9-2-1.4c-0.3-0.2-0.6-0.3-0.9-0.3c-0.3,0-0.5,0.1-0.7,0.2c-0.6,0.3-0.9,1-0.7,1.7l0.4,1.4
			c0.1,0.5,0.3,0.9,0.4,1.4c0.3,1,0.6,2,0.8,2.9c0.2,0.8,0.1,2-1.1,2.8c-0.5,0.3-1,0.5-1.6,0.5c-0.5,0-1-0.1-1.6-0.4
			c-0.3-0.2-0.7-0.4-1-0.6c-0.3-0.2-0.5-0.5-0.8-0.7c-0.8-0.7-1.6-1.4-2.3-2.2c-9.3-10.6-13.9-23.4-13.9-39.1c0-2.9,0.3-5.1,1-7.1
			c0.3-0.8,0.9-2.1,2.2-2.1c0.2,0,0.4,0,0.6,0.1c1.4,0.4,1.4,2.1,1.3,2.9l0,0.1c-0.2,2-0.4,4-0.4,6c0,8.1,1.6,16,4.8,23.4
			c0.8,1.7,1.7,3.4,2.6,5l0.1,0.1c0.3,0.5,0.8,0.7,1.3,0.7c0.1,0,0.2,0,0.4,0c0.6-0.2,1.1-0.7,1.1-1.4c0-0.6,0.1-1.1,0.2-1.6
			c0.3-1.6,1.4-2.6,2.8-2.6c0.6,0,1.3,0.2,2,0.6c0.1,0.1,0.2,0.1,0.2,0.2c0.3,0.2,0.6,0.3,0.9,0.3c0.3,0,0.5-0.1,0.8-0.2
			c0.5-0.3,0.8-0.9,0.7-1.5c0-0.2-0.1-0.5-0.1-0.7c-0.3-2.5-0.2-5.1,0.4-7.7c0.4-1.6,1.2-2.5,2.5-2.8c0.3-0.1,0.5-0.1,0.7-0.1
			c1.1,0,2,0.5,2.9,1.6c0.6,0.8,1.1,1.5,1.6,2.3c0.8,1.5,1.5,3,2.3,4.5l0.7,1.5c0.3,0.6,0.5,1.1,0.8,1.7c0,0,0.6,1.2,0.9,1.8
			c0.2,0.4,0.6,0.8,1.1,0.8c0.1,0,0.1,0,0.2,0c0.4,0,0.8-0.2,1.1-0.5c0.9-1,1.8-1.5,2.8-1.5c1,0,2.1,0.6,3.2,1.7
			c0.2,0.2,0.5,0.5,0.7,0.7c0.4,0.4,0.8,0.8,1.2,1.3c0.7,0.7,1.5,1.1,2.4,1.1c0.3,0,0.7,0,1-0.1c0.5-0.1,1-0.3,1.3-0.4
			c0.4-0.1,0.7-0.4,0.9-0.8s0.2-0.8,0-1.2c-0.2-0.3-0.5-0.8-0.6-1.1c-2.2-3.7-4.2-6.9-6.2-9.9c-3.4-5-7.6-10-12.8-15.2
			c-3.3-3.3-6.7-6.4-10.4-9.9c-1.8-1.7-3.6-3.3-5.6-4.7c-3.6-2.6-7.4-5.2-11.2-7.5c-4.2-2.5-9.4-5.1-15.3-6c-0.8-0.1-1.4-0.2-2-0.2
			c-1.9,0-2.7,0.9-3.9,2.9c-1.3,2.3-1.9,4.8-1.9,7.5c0.1,3.4,0.1,6.9,0.4,10.5c0.4,5.9,0.8,11.1,1.4,16.1c0.6,5.4,1.2,10.9,1.9,16.3
			l0.4,3.5c0.3,2.1,0.5,4.3,0.8,6.4c0.3,2.3,0.6,4.6,0.9,6.9c0.2,1.3,0.3,2.6,0.4,3.9c0.1,1.4,0.3,3,0.5,4.6c0.2,2-0.7,3.1-1.8,4.1
			c-8.3,7.3-15.3,14.5-21.3,22.1c-5,6.4-10.3,13.5-16.1,21.5c-0.1-76.3-0.4-126.6-0.4-129.7c0-0.2,0-0.3,0-0.5
			c1.4-51.9,23.5-100.6,62.2-137c39-36.7,90.5-56.8,145-56.8c54.5,0,106,20.2,145,56.8c38.7,36.4,60.8,85,62.2,137
			c0,0.2,0,0.3,0,0.5c0,2.4,0.3,43.2,0.5,96.2c-4-4.8-8.1-9.1-12.3-13.2c-0.9-0.8-1.7-1.7-2.6-2.5l-0.1-0.1c-3.4-3.4-7-6.9-11.3-9.4
			c-1.6-0.9-3.1-2.1-4.6-3.3L633,443c-0.5-0.4-1.1-0.8-1.6-1.3c-4.4-3.3-9.6-7-15.3-10.3c-7.2-4.1-14.9-7.5-22.2-10.8
			c-13.9-6.2-26.9-9.9-39.8-11.4c-5.9-0.7-12.3-1.3-18.8-1.3c-0.4,0-0.8,0-1.2,0c-12.3,0.2-23.4,1.3-33.9,3.5
			c-11.9,2.5-22.1,5.6-31.2,9.5c-11.5,5-22.6,11-34,17.2c-7.3,4-15.8,8.5-24.7,11.6c-2,0.7-4.2,1.4-7,2.2c-0.5,0.1-0.9,0.6-1,1.1
			c-0.1,0.5,0,1.1,0.4,1.4c0.4,0.4,0.8,0.8,1.2,1.2c0.5,0.6,1,1.2,1.6,1.9c1.4,1.7,2.9,3.4,4.2,5.3c4.6,6.6,8.1,14.6,10.8,25.2
			c2.9,11.2,4.6,23.3,5.6,39.1c0.6,9.1,0.5,18.4,0.3,27.2c0,0.7,0.4,1.3,1,1.5c0.2,0,0.3,0.1,0.5,0.1c0.5,0,0.9-0.2,1.2-0.6
			c1.4-2.1,2.8-4.1,4.3-6.2l0.3-0.5c3.4-5,6.9-10.1,10.5-15c8.2-11.3,16.3-20.4,24.6-27.7c10-8.7,19.9-14.9,30.3-19
			c7.7-3,15.7-4.6,23.6-4.6c0.7,0,1.3,0,2,0c2,0.1,4.7,0.3,7.1,1.3c0.9,0.4,1.5,1.3,1.3,2.1c-0.2,0.9-1,1.4-2.1,1.4l-0.1,0
			c-0.5,0-1-0.1-1.5-0.1c-0.3,0-0.6-0.1-0.9-0.1c-0.5,0-1-0.1-1.5-0.1c-1.1-0.1-2.1-0.2-3.1-0.2l-0.3,0c-8.2,0.1-16.1,1.8-23.3,4.8
			c-12.1,5.1-23,12.6-33.4,23c-8.3,8.2-16.1,17.9-24.6,30.4l-1.2,1.8c-4.2,6.1-8.4,12.4-12.9,18.4c-1.8,2.4-3.4,5-3.5,8.5
			c0,0.2,0,0.4-0.1,0.6c-0.3,1.6-0.5,3.2-0.8,4.8l0,0.1c-0.6,3.7-1.2,7.6-2.1,11.4c-1,4.6-3,9.4-5.9,14.4c-1.6,2.7-3.1,5.1-5.2,7.1
			c-4,3.7-7.7,6.7-11.2,9.2c-0.6,0.4-0.8,1.1-0.5,1.8c0.2,0.6,0.8,0.9,1.4,0.9c0.1,0,0.2,0,0.2,0l1.1-0.2c3-0.5,6.1-1,9.2-1.2
			c6.7-0.5,13.6-0.9,21.2-1.1c4.3-0.1,8.6-0.1,12.8-0.1c3.2,0,6.8,0,10.3-0.1c10-0.2,20.5-0.4,33.1-0.8c9.9-0.3,22.9-0.8,36.1-2.4
			c13.8-1.7,25.4-3.5,36.8-6.9c12.6-3.7,22.3-8,30.6-13.4c7.5-4.9,12.8-9.8,16.5-15.2c1.5-2.1,2.9-4.3,4.2-6.4
			c0.9-1.4,1.8-2.8,2.7-4.1c0.6-1,1.2-1.7,1.8-2.3c0.3-0.3,0.7-0.4,1-0.4c0.3,0,0.6,0.1,0.9,0.2c0.6,0.3,0.9,0.9,0.9,1.8
			c0,0.5-0.2,1-0.3,1.4l-0.2,0.4c-1,2.1-2.1,4.2-3.2,6.3c-4.9,9.1-12.2,16.6-22.3,23.1c-6.8,4.4-14.5,8-23.4,11.1
			c-9.9,3.4-20.5,6-32.6,7.8c-12.7,1.9-22.6,2.9-31.9,3.4c-10.3,0.5-20.8,0.8-30.9,1.2l-1.7,0.1c-4.1,0.1-8.1,0.3-12.2,0.4
			c-0.2-0.1-0.5-0.2-0.7-0.2c0,0-7.2,0.1-7.2,0.1c-4.9,0.1-9.8,0.1-14.7,0.2l-0.7,0c-8.5,0.1-17.2,0.2-25.7,1
			c-6.8,0.7-15.7,1.8-24.3,4.6c-10.8,3.5-18.2,7.7-24.2,13.6c-3.2,3.2-7.3,7.6-9.6,13.3c-3.5,8.3-4.7,16.1-3.8,23.9
			c1.7,14.9,8.9,26.2,21.3,33.6c6.8,4.1,14,6.2,21.2,6.2c3.1,0,6.2-0.4,9.3-1.1c4.8-1.2,8.6-3.1,11.4-6.1c1.8-1.8,2.8-3.6,3.2-5.6
			c0.6-3-0.1-5.9-2.2-9.1c-1.9-2.9-4.5-5.5-8.2-8.4l-0.1-0.1c-2.6-2.1-5.4-4.2-7.7-6.7c-2.3-2.5-3.5-5.2-3.7-8.3
			c-0.2-2.9,0.4-5.3,1.9-7.3c1.2-1.6,2.7-3,4.4-4.2c3.5-2.4,7.7-3.9,13.3-4.8c4.1-0.6,8.3-0.9,12.7-0.9c1.3,0,2.5,0,3.8,0.1
			c8.9,0.4,15.8,0.8,22.2,1.3c6.8,0.6,13.9,1.4,21.1,2.5c11.2,1.7,23.3,3,36.9,4.2c8,0.7,16.1,1.2,25,1.6c4.1,0.2,8.3,0.3,12.3,0.3
			c10.1,0,20.3-0.6,30.3-1.7c9-1,17.9-2.8,24.7-4.3c11.8-2.6,23-6.5,31.5-9.7c12.3-4.6,22.7-10.3,31.8-17.5
			c8.2-6.5,13.9-12.6,18.1-19.1c4.9-7.8,9.2-16.4,12.6-25.5c3.2-8.6,5-17.5,5.3-26.5C702,559.5,701.6,553.1,700.6,545.8z M350,517.4
			c0.4-2.5,1.5-5,3.1-7.8c2.3-3.8,5.6-6.9,9-10c0.4-0.3,0.8-0.7,1.1-1c1.1-0.9,2.2-1.9,3.1-3.2c1.1-1.6,1.9-3.6,2.3-5.8
			c0-0.2,0.1-0.5,0.1-0.7c0.1-0.7,0.2-1.3,0.4-2c0.1-0.2,0.2-0.5,0.4-0.6c0.1-0.1,0.2-0.1,0.4-0.1c0.6,0,0.9,0.6,1,1
			c0.9,2.8,0.8,5.8-0.3,8.8c-0.6,1.7-1.5,3.3-2.6,4.6c-0.7,0.8-1.4,1.7-2.1,2.5c-2.4,2.8-4.9,5.7-6.3,9.1c-1.1,2.7-1.5,5.8-1.2,9.2
			c0.2,2.7,0.8,5.5,2,9.2c0.4,1.3-0.1,1.7-0.2,1.9c-0.3,0.3-0.7,0.3-0.9,0.3c-0.1,0-0.2,0-0.3,0c-0.2,0-0.4,0-0.6,0
			c-2-0.2-3.9-1.3-5.4-3.2C350.4,526.2,349.4,520.7,350,517.4z M356.2,558.7c2.4-2,4.4-3.2,7.5-3.2c2.7,0,5.2,1.3,7.1,3.8
			c1.5,1.8,2.5,4.1,3.5,7.2c1,3.3,2.2,7.1,2.4,11c0,0.8,0.2,1.7,1.5,2c0.9,0.2,1.8,0.3,2.7,0.3c3.1,0,6.1-1.2,8.5-3.3
			c1.5-1.3,2.8-3,3.7-4.8c0.7-1.5,1.2-3.2,1.3-4.8c0-0.4,0-0.7,0-1.1c0-1,0-2,0.5-2.9c0.4-0.7,1.1-1.1,1.8-1.1c0.2,0,0.4,0,0.6,0.1
			c0.8,0.4,1,1.7,1.1,2.2c0.5,3.3,0.2,6.7-1.1,9.9c-2.4,6.1-8.5,10.4-14.8,10.4c-0.4,0-0.7,0-1.1,0c-0.4,0-0.7,0-1.1-0.1
			c0,0-0.6,0-0.8,0c0,0-0.1,0-0.1,0c-0.5,0-0.9,0.2-1.2,0.6c-0.3,0.4-0.4,0.9-0.3,1.3c1.2,4.3,1.1,8.8-0.1,13.9
			c-1.3,5.5-5,9.3-11.3,11.5c-0.3,0.1-0.6,0.1-0.9,0.1h0c-0.9,0-1.7-0.5-2-1.3c-0.3-0.8-0.1-1.6,0.6-2.2c0.3-0.3,0.7-0.5,1.1-0.7
			c0.2-0.1,0.4-0.3,0.6-0.4c0.3-0.2,0.6-0.4,1-0.6l0.1-0.1c0.9-0.5,1.8-1.1,2.6-1.7c1.6-1.3,2.6-2.7,3.1-4.3
			c1.3-4.7,1.5-8.8,0.6-12.7c0-0.1-0.1-0.3-0.1-0.4c-0.1-0.2-0.1-0.3-0.1-0.5c0-0.1,0-0.2-0.1-0.2c-0.2-0.7-0.8-1.1-1.4-1.1
			c-0.1,0-0.2,0-0.3,0c-0.1,0-0.2,0-0.4,0.1c-4.6,1.4-8.9,2.2-13,2.6c-0.9,0.1-1.7,0.1-2.5,0.1c-2.2,0-4.1-0.3-5.8-1.1
			c-3.4-1.4-5.2-3.5-5.7-6.4C342.6,573,351.8,562.4,356.2,558.7z M281.1,600.1c0.1-0.3,0.3-0.4,0.5-0.6c0.6-0.3,1.1-0.6,1.7-0.9
			c0,0,0.5-0.2,0.7-0.3c2-0.9,3.7-2.2,5-3.6c1-1.1,1.7-2.5,2.3-3.8c0.2-0.5,0.4-0.9,0.7-1.3c2.1-4.1,4.3-8,7.4-11.2
			c2.2-2.3,4.5-3.9,6.8-5c1.7-0.8,4.1-1.2,6.5-1.2c2.3,0,4.4,0.4,6.1,1.1c2.2,1,3.8,2.5,4.4,4.4c0.1,0.3,0.2,0.6,0.2,0.9
			c0,0.2,0.1,0.6,0,1c-0.1,0.2-0.3,0.7-1.5,0.7c-0.1,0-0.2,0-0.2,0c-1.4-0.1-2.6-0.1-3.7-0.1c-2.1,0-4,0.1-5.8,0.4
			c-3.4,0.6-6.3,1.7-8.6,3.4c-3,2.2-5.2,5.3-7.3,8.3c-0.6,0.9-1.3,1.8-1.9,2.7c-1.1,1.4-2.4,2.7-3.9,3.7c-2.4,1.6-5.1,2.5-7.7,2.5
			c-0.2,0-0.5,0-0.7,0c-0.3,0-1-0.2-1.2-0.7C281.1,600.4,281.1,600.3,281.1,600.1z"/>
		<path d="M278.1,648.4c-7.8-2.7-15.3-7.1-22.1-12.9c-2.7-2.3-5.1-4.9-7.5-7.3l-0.1-0.1c-0.9-1-1.9-2-2.8-2.9l-0.2-0.2
			c-0.4-0.5-1-1-1.9-1c-0.1,0-0.1,0-0.2,0c-0.6,0.1-1.1,0.1-1.6,0.1c-1.1,0.1-2.2,0.2-3.4,0.4c-1.4,0.3-3.2,1.2-3.7,3.9
			c-0.5,3.2-0.1,6.4,1.3,10.1c1.5,3.9,3.8,7.6,7.3,11.9c3,3.7,6.7,5.5,11.2,5.5c0.4,0,0.9,0,1.3-0.1c0.2,0.1,0.5,0.2,0.7,0.2
			c0.1,0,0.2,0,0.3,0l2.1-0.4c1.9-0.3,4.1-0.7,6.2-1.2c3.5-0.8,7-1.7,10.5-2.5l2.5-0.6c0.6-0.2,1.1-0.7,1.1-1.4
			S278.7,648.6,278.1,648.4z"/>
		<path d="M353.7,647.9c1.8-2.4,3.7-4.4,5.6-6.3c0.5-0.5,0.6-1.3,0.2-1.9c-0.3-0.5-0.8-0.7-1.3-0.7c-0.2,0-0.3,0-0.5,0.1l-4.7,1.6
			c-5.3,1.8-11.4,3.8-17.3,5.7c-0.8,0.3-1.6,0.5-2.4,0.7c-0.7,0.2-1.2,0.9-1.1,1.7c0.1,0.7,0.7,1.3,1.5,1.3c0,0,0,0,0.1,0
			c4.5-0.2,9.1-0.5,13.4-0.9l0.9-0.1c1.2-0.1,2.4-0.2,3.7-0.3C352.5,648.8,353.3,648.4,353.7,647.9z"/>
		<path d="M355.6,583.4c0.3,0,0.5,0,0.7,0c0.8,0,1.6-0.1,2.5-0.3c2-0.3,4.3-0.6,6.5-1c0.3-0.1,0.7-0.1,1-0.2
			c1.4-0.2,2.9-0.5,4.1-1.8c1.9-2,1-5.6,0.5-7.9l-0.1-0.5c-0.9-3.6-2.1-6.4-3.7-8.5c-0.8-1.1-1.8-1.8-2.9-2
			c-0.3-0.1-0.7-0.1-1.1-0.1c-0.9,0-1.9,0.3-2.8,0.8c-3.1,1.6-5.8,4.5-8.1,8.4c-0.2,0.3-0.3,0.5-0.5,0.8c-1.7,2.8-4.3,7-1.5,10.3
			C351.3,582.6,353.1,583.4,355.6,583.4z"/>
	</g>
</g>
</svg>
