<?xml version="1.0" encoding="utf-8"?>
<!-- Generator: Adobe Illustrator 24.2.3, SVG Export Plug-In . SVG Version: 6.00 Build 0)  -->
<svg version="1.1" id="Layer_1" xmlns="http://www.w3.org/2000/svg" xmlns:xlink="http://www.w3.org/1999/xlink" x="0px" y="0px"
	 width="864px" height="864px" viewBox="0 0 864 864" style="enable-background:new 0 0 864 864;" xml:space="preserve">
<g>
	<g>
		<path d="M228.2,442.7c0.9,0,1.1,1.2,1.1,3.4l0,1.7c0,2.2-0.6,3.7-2.5,4.7c-0.9,0.5-1.4,0.3-3.9,1.6c-3.3,1.5-3.8,3.1-3.8,5.3l0,1
			l5,0c1.6,0,2.5-1.8,3.5-1.8h0.2c0.9,0,1.4,1.1,1.4,3.2l0,4.2c0,2.2-0.5,3.1-1.4,3.2h-0.2c-1,0-1.8-1.8-3.5-1.9l-14.1,0
			c-1.6,0-2.5,1.8-3.5,1.8h-0.2c-0.9,0-1.4-1-1.4-3.2l0-4.2c0-2.2,0.5-3.2,1.4-3.2h0.2c1,0,1.8,1.8,3.5,1.8l6.1,0l-6.7-6.4
			c-1.2-1.2-2.4,0.5-3.3,0.5c-0.8,0-1.2-1-1.2-3.1l0-4.4c0-2.1,0.4-2.7,1.1-2.7s1.1,1,1.6,2.4c0.6,1.8,1.2,2.4,3.2,4.4
			c0,0,1.7,1.6,3.7,3.5c0.1-2.6,1-4.3,5.9-6.9c3.8-2,5.2-2.5,6.1-3.2C227.6,443.7,227.5,442.7,228.2,442.7z"/>
		<path d="M204.9,429.3c0-2.4,0.1-2.5,4.1-3.7c1.5-0.5,13.1-4.3,15.1-4.9c1.6-0.5,2.5-2.4,3.4-2.4h0.2c0.9,0,1.4,0.9,1.4,3.1l0,4.3
			c0,2.2-0.5,3.2-1.4,3.2h-0.2c-1,0-1.3-1.5-2.9-1.1l-1.6,0.4l0,8.1l1.9,0.5c1.6,0.4,1.6-1.3,2.6-1.3l0.2,0c0.9,0,1.4,1,1.4,3.2
			l0,1.4c0,2.2-0.5,3.1-1.4,3.1c0,0-0.2,0-0.2,0c-1,0-1.3-1.8-2.9-2.3l-15.4-5c-1.6-0.5-1.7,1.2-2.7,1.1h-0.2
			c-0.9,0-1.4-1.5-1.4-3.7L204.9,429.3z M220.2,435.5l0-6.5c-4,1.2-9.2,2.6-10.5,3c-0.3,0.1-0.3,0.2-0.3,0.3c0,0.1,0.1,0.2,0.3,0.3
			C210.7,432.8,216,434.4,220.2,435.5z"/>
		<path d="M226.4,395.2c1-0.9,1-1.7,1.8-1.7c0.9,0,1.1,1.2,1.1,3.4l0,1.8c0,2.5-0.3,4-2.8,5c-0.6,0.2-0.8,0.3-3.5,1.2
			c-2.1,0.7-2.5,1.3-2.6,3l0,1.1l3.7,0c1.6,0,2.5-1.8,3.5-1.8h0.2c0.9,0,1.4,1,1.4,3.2l0,4.1c0,2.2-0.5,3.2-1.4,3.2h-0.2
			c-1,0-1.8-1.8-3.5-1.9l-14.1,0c-1.6,0-2.5,1.8-3.5,1.8h-0.2c-0.9,0-1.4-1-1.4-3.2l0-7.4c0-6.8,2.8-11.7,7.6-11.7
			c3.1,0,5.5,2.2,6.8,5.5c0.6-1.7,1.6-3,3.4-3.7C225,396.1,226,395.6,226.4,395.2z M215.5,408.9c1.2,0,1.6-0.4,1.6-1.5
			c0-3.5-1.6-5.3-4.6-5.3c-2.5,0-4.7,1.4-4.7,4.9v0c0,1.3,0.5,1.9,2.2,1.9L215.5,408.9z"/>
		<path d="M224.2,376.2l-8.6-0.1c3.7,1.4,7.7,2.9,9.7,3.8c1.5,0.7,1.8,1.1,1.7,1.9l0,0.2c0,0.9-0.3,1.2-1.8,1.9
			c-1.1,0.5-6.1,2.5-9.8,3.9l8.6,0.1c1.6,0,2.5-2,3.5-2l0.2,0c0.9,0.1,1.4,1.2,1.4,3.4l0,1.4c0,2.2-0.5,3.3-1.5,3.3l-0.2,0
			c-1,0-1.8-2-3.5-2.1l-14.1-0.1c-1.6,0-2.5,1.8-3.5,1.8l-0.2,0c-0.9-0.1-1.4-1-1.4-3.2l0-2.7c0-2.5,0.4-2.9,3.2-3.9
			c1.2-0.5,6.6-2.4,9.5-3.5c-3.4-1.3-7.7-3-9.3-3.7c-3.3-1.5-3.3-1.6-3.3-4l0-2c0-2.2,0.5-2.7,1.4-2.8l0.2,0c1,0,1.8,1.5,3.5,1.5
			l14.1,0.1c1.6,0,2.5-1.9,3.5-1.9c0,0,0.2,0,0.2,0c0.9,0,1.4,1,1.4,3.2l0,4.1c0,2.1-0.5,3.1-1.4,3.2l-0.2,0
			C226.7,378.1,225.8,376.2,224.2,376.2z"/>
		<path d="M206.2,351.3c0.2-2.4,0.3-2.4,4.4-3.3c1.5-0.3,13.4-3,15.6-3.4c1.6-0.4,2.7-2.1,3.7-2.1l0.2,0c0.9,0.1,1.3,1.1,1.1,3.3
			l-0.4,4.3c-0.2,2.1-0.8,3.1-1.7,3.1l-0.2,0c-1-0.1-1.2-1.7-2.8-1.4l-1.6,0.3l-0.8,8l1.8,0.7c1.5,0.6,1.8-1.1,2.7-1l0.2,0.1
			c0.9,0.1,1.3,1.2,1.1,3.4l-0.1,1.4c-0.2,2.1-0.8,3.1-1.7,3c0,0-0.2,0-0.2-0.1c-1-0.1-1.1-1.9-2.7-2.6l-14.8-6.5
			c-1.5-0.7-1.8,1-2.8,0.8l-0.2,0c-0.9-0.1-1.3-1.6-1-3.8L206.2,351.3z M220.8,359l0.6-6.4c-4.1,0.8-9.4,1.7-10.7,1.9
			c-0.3,0.1-0.4,0.1-0.4,0.2c-0.1,0.1,0.1,0.2,0.3,0.3C211.6,355.4,216.7,357.4,220.8,359z"/>
		<path d="M210.8,331.4c0,0-0.2,0-0.2-0.1c-0.9-0.2-1.2-1.3-0.7-3.4l0.9-4c0.5-2.1,1.1-3,2.1-2.8l0.2,0c1,0.2,1.4,2.2,3,2.6l13.7,3
			c1.6,0.4,2.8-1.3,3.8-1.1l0.2,0c0.9,0.2,1.2,1.3,0.7,3.4l-0.9,4c-0.5,2.1-1.1,3-2.1,2.8l-0.2,0c-1-0.2-1.4-2.2-3-2.6l-13.7-3
			C213.1,330,211.8,331.6,210.8,331.4z"/>
		<path d="M238.3,315.7c-1.2,4.1-3.9,8.2-7.1,8.9c-2.3,0.4-4.6-1.6-3.8-4.2c0.6-2.1,1.9-2.4,3.2-2.5c3.3-0.2,4.9-1.8,5.5-3.9
			c0.7-2.2,0.2-3.9-1.8-4.5c-1.6-0.5-3.5,0.9-5.2,4.2c-2.7,5-5.8,8.2-10.1,6.9c-4.8-1.5-5.8-7.4-3.9-13.4c1.3-4.1,4.3-8,7.1-7.2
			c1.7,0.5,2.9,1.7,2.9,3.1c0.1,1.5-1,2.4-2.7,2.7c-3.1,0.6-4.7,1.3-5.4,3.4c-0.5,1.6-0.2,3.5,1.5,4c1.9,0.6,3.6-0.8,5.4-4.1
			c3.5-6.5,6.5-7.7,10.2-6.5C238.5,303.8,240.3,309.1,238.3,315.7z"/>
		<path d="M227.5,276c1-2.1,1.1-2.2,5.3-1.7c1.5,0.2,13.7,1.7,15.8,2c1.7,0.2,3.2-1.1,4.2-0.8l0.2,0.1c0.9,0.4,0.9,1.5,0,3.4
			l-1.8,3.9c-0.9,1.9-1.8,2.7-2.7,2.3l-0.2-0.1c-0.9-0.4-0.5-2-2.2-2.3l-1.6-0.3L241,290l1.5,1.2c1.3,1.1,2-0.5,2.9-0.1l0.2,0.1
			c0.8,0.4,0.8,1.5-0.1,3.5l-0.6,1.2c-0.9,1.9-1.8,2.6-2.6,2.2c0,0-0.2-0.1-0.2-0.1c-0.9-0.4-0.5-2.2-1.7-3.3l-11.8-11.1
			c-1.2-1.1-2.1,0.3-2.9-0.1l-0.2-0.1c-0.8-0.4-0.7-1.9,0.3-3.9L227.5,276z M238.7,288.1l2.7-5.8c-4.1-0.6-9.4-1.5-10.8-1.8
			c-0.3,0-0.4,0-0.4,0.1c-0.1,0.1,0,0.2,0.2,0.4C231.2,281.6,235.4,285.3,238.7,288.1z"/>
		<path d="M253.4,241.6c2.1,0.2,4.1,2.2,3.2,4.5c-0.9,2.3-3,2.6-4.3,2.3c-3.3-0.8-5.9-0.8-7.3,1.2c-1.5,2.3,0.2,5.6,3.6,7.8
			c4.9,3.2,10.7,2.4,13.1-1.3c1.6-2.4,1.4-4.9,0.7-7c-0.3-1,1.3-1.4,2.3-0.4c2.3,2.4,2.3,7.7-0.5,11.9c-3.8,5.8-10.8,7.6-16.6,3.7
			c-6.7-4.4-7.3-12.1-4-17.1C245.9,243.7,250.2,241.4,253.4,241.6z"/>
		<path d="M259.2,226.6c1.5-1.8,1.6-1.8,5.5-0.3c1.4,0.6,12.8,5,14.8,5.8c1.6,0.6,3.4-0.3,4.2,0.3l0.2,0.1c0.7,0.6,0.5,1.6-0.9,3.3
			l-2.8,3.4c-1.4,1.7-2.4,2.2-3.1,1.6l-0.2-0.1c-0.8-0.6,0-2-1.6-2.7l-1.5-0.7l-5.1,6.3l1.2,1.6c1,1.3,2.1,0,2.8,0.7l0.1,0.2
			c0.7,0.6,0.4,1.7-0.9,3.4l-0.9,1.1c-1.4,1.7-2.4,2.1-3.1,1.5c0,0-0.2-0.1-0.1-0.2c-0.8-0.6,0.1-2.2-0.8-3.6l-8.7-13.6
			c-0.9-1.4-2.1-0.2-2.8-0.9l-0.2-0.1c-0.7-0.6-0.2-2,1.2-3.7L259.2,226.6z M267.1,241l4.1-5c-3.8-1.6-8.7-3.8-10-4.4
			c-0.3-0.1-0.4-0.1-0.4,0c-0.1,0,0,0.2,0.1,0.5C261.4,233,264.5,237.5,267.1,241z"/>
		<path d="M289.3,222.2c1.2,1.1,3.1,0.4,3.8,1.1l0.2,0.2c0.7,0.7,0.3,1.7-1.2,3.3l-2.9,2.9c-1.5,1.5-2.5,1.9-3.2,1.3l-0.2-0.2
			c-0.7-0.7,0-2.6-1.2-3.8l-10-9.9c-1.2-1.1-1.7-1.4-2.4-0.7l-0.1,0.1c-0.7,0.8-0.8,1.3-0.2,3.5c0.5,2.1,0.6,3,0,3.5
			c0,0-0.1,0-0.1,0.1c-0.8,0.6-1.9-0.3-3.3-2l-0.7-0.8c-1.3-1.6-1.5-2.5-0.2-3.8l11.5-11.7c1.3-1.3,2.2-1.1,3.8,0.2l0.9,0.7
			c1.7,1.3,2.6,2.5,2,3.3c0,0-0.1,0.1-0.1,0.1c-0.5,0.6-1.5,0.6-3.5,0.1c-2.2-0.5-2.8-0.4-3.5,0.3l-0.1,0.1
			c-0.7,0.7-0.4,1.2,0.7,2.4L289.3,222.2z"/>
		<path d="M292.6,199.9c-1-1.3-3-0.8-3.6-1.6l-0.1-0.2c-0.6-0.7-0.1-1.7,1.6-3.1l5.8-4.5c6.3-4.9,11-5,14-1.2c3.1,4,1.9,9-2.3,12.2
			c-1.8,1.4-3.6,1.3-4.6,0.2c-0.3-0.4-0.1-0.5,0.1-0.8c3-2.4,3.2-5.2,1.4-7.5c-1.5-2-4.1-2.9-6.8-0.8l-0.1,0.1
			c-1,0.8-1.2,1.5-0.1,2.9l8.7,11.1c1,1.3,3,0.8,3.6,1.6l0.1,0.2c0.6,0.8,0.1,1.8-1.6,3.1l-3.2,2.6c-1.7,1.4-2.8,1.6-3.4,0.8
			l-0.1-0.2c-0.6-0.8,0.3-2.6-0.7-3.9L292.6,199.9z"/>
		<path d="M324.4,177.1c-0.9-1.4-3-1-3.6-1.9l-0.1-0.2c-0.5-0.8,0.3-1.8,2.1-3l1.2-0.7c1.9-1.2,3.1-1.4,3.6-0.6l0.1,0.1
			c0.5,0.8-0.7,2.6,0.2,4l5.9,9.3c2.1,3.2,2.1,8.5-3.5,12.1c-5.3,3.4-10.1,3.4-13.4-1.8l-5.7-9c-0.9-1.4-2.9-1.1-3.4-1.9l-0.1-0.2
			c-0.5-0.8,0.1-1.8,1.9-2.9l3.5-2.2c1.9-1.2,2.9-1.3,3.5-0.5l0.1,0.1c0.5,0.8-0.6,2.6,0.3,3.9l5.2,8.2c2.1,3.3,4.5,3.8,6.8,2.4
			c2.3-1.5,3-3.7,1.2-6.5L324.4,177.1z"/>
		<path d="M358.2,177.7c1.2,0.5,2,0.2,2.3,0.8c0.4,0.8-0.6,1.5-2.6,2.5l-1.6,0.8c-2.3,1.1-3.7,1.5-5.7-0.2c-0.5-0.4-0.6-0.6-2.7-2.6
			c-1.6-1.5-2.3-1.6-3.8-1l-1,0.5l1.7,3.3c0.7,1.5,2.8,1.4,3.2,2.3l0.1,0.2c0.4,0.9-0.3,1.7-2.2,2.7l-3.7,1.8c-2,1-3.1,1-3.5,0.2
			l-0.1-0.2c-0.4-0.9,0.8-2.5,0.1-3.9l-6.3-12.6c-0.7-1.5-2.8-1.4-3.2-2.3l-0.1-0.2c-0.4-0.8,0.3-1.7,2.2-2.7l6.6-3.3
			c6.1-3.1,11.7-2.8,13.9,1.6c1.4,2.7,0.5,5.9-1.9,8.6c1.8-0.3,3.4,0.1,4.8,1.4C356.8,176.9,357.7,177.5,358.2,177.7z M341.1,174.1
			c0.5,1.1,1.1,1.3,2.1,0.8c3.1-1.6,4-3.8,2.7-6.5c-1.1-2.2-3.4-3.6-6.5-2l0,0c-1.2,0.6-1.5,1.3-0.7,2.8L341.1,174.1z"/>
		<path d="M379.9,169.4c1.2,0.7,2,0.4,2.2,1c0.3,0.8-0.8,1.4-2.8,2.2l-1.6,0.6c-2.4,0.9-3.8,1.1-5.6-0.8c-0.4-0.5-0.5-0.7-2.4-2.8
			c-1.4-1.7-2.1-1.9-3.7-1.4l-1,0.4l1.3,3.5c0.6,1.5,2.6,1.7,3,2.6l0.1,0.2c0.3,0.9-0.5,1.7-2.5,2.5l-3.9,1.5
			c-2.1,0.8-3.1,0.7-3.5-0.2l-0.1-0.2c-0.3-0.9,1.1-2.4,0.5-3.9l-5-13.2c-0.6-1.5-2.6-1.7-3-2.6l-0.1-0.2c-0.3-0.9,0.4-1.7,2.5-2.5
			l6.9-2.6c6.4-2.4,12-1.6,13.7,3c1.1,2.9-0.1,5.9-2.8,8.3c1.8-0.1,3.3,0.4,4.6,1.8C378.5,168.5,379.4,169.2,379.9,169.4z
			 M363.2,164.1c0.4,1.1,0.9,1.4,2,1c3.3-1.2,4.4-3.4,3.4-6.1c-0.9-2.3-3-3.9-6.2-2.7l0,0c-1.2,0.5-1.6,1.1-1,2.7L363.2,164.1z"/>
		<path d="M375.5,150.2c0,0-0.1-0.2,0-0.2c-0.3-0.9,0.5-1.6,2.6-2.2l4-1.2c2.1-0.6,3.2-0.4,3.5,0.5l0.1,0.2c0.3,0.9-1.2,2.3-0.8,3.9
			l4,13.5c0.5,1.6,2.5,1.9,2.8,2.8l0.1,0.2c0.3,0.9-0.5,1.6-2.7,2.3l-4,1.2c-2.1,0.6-3.1,0.4-3.5-0.5l-0.1-0.2
			c-0.3-0.9,1.2-2.3,0.8-3.9l-4-13.5C377.8,151.5,375.8,151.2,375.5,150.2z"/>
		<path d="M395.8,153.9l1.8,8.3c0.3,1.6,2.5,2,2.7,3l0,0.2c0.2,0.9-0.9,1.6-3,2.1l-1.3,0.3c-2.1,0.4-3.3,0.2-3.6-0.7l0-0.2
			c-0.2-1,1.6-2.2,1.3-3.8l-2.9-13.8c-0.3-1.6-2.7-2-3-2.9l0-0.2c-0.2-0.9,1.1-1.7,3.2-2.1l1.3-0.3c3.2-0.7,3.9,1.1,6.1,3.2l9.6,9
			l-2.1-9.9c-0.3-1.6-2.5-2-2.7-3l0-0.2c-0.2-0.9,0.9-1.6,3-2.1l1.3-0.3c2.1-0.5,3.4-0.2,3.6,0.7l0,0.2c0.2,1-1.6,2.2-1.3,3.8
			l3.6,16.7c0.3,1.4-0.4,2.2-1.7,2.5l-0.5,0.1c-4.1,0.9-5.2-1.3-7.2-3C403,160.7,398.6,156.6,395.8,153.9z"/>
		<path d="M436.4,158.6c-1.6,2-5.1,3.5-8.9,3.9c-6.9,0.8-12.8-3.5-13.5-10.5c-0.9-8,4.6-13.3,10.7-14c4.2-0.5,8.7,0.9,10.5,3.5
			c1.2,1.7,0.9,4.1-1.4,5c-2.4,0.8-3.9-0.7-4.5-1.9c-1.4-2.9-3.1-4.2-5.4-4c-2.8,0.3-4.2,3.7-3.8,7.7c0.7,6.2,5.1,10.2,9.4,9.7
			c0.7-0.1,1.6-0.3,2.3-0.6l-0.1-0.5c-0.3-2.8-1.3-4.2-3.1-4c-1.4,0.2-2.1-0.3-2.2-1.2l0-0.2c-0.1-1.1,0.3-1.5,2.3-1.7l6.3-0.7
			c2.1-0.2,2.8,0.3,2.9,1.1l0,0.2c0.1,1.3-1.3,1.1-1,4.2l0,0.3C437.2,156.3,437.3,157.4,436.4,158.6z"/>
		<path d="M445.8,138.4c0,0,0-0.2,0-0.2c0-0.9,1-1.4,3.1-1.4l4.1,0c2.2,0,3.2,0.4,3.2,1.4l0,0.2c0,1-1.8,1.9-1.8,3.5l0.1,14.1
			c0,1.6,1.9,2.5,1.9,3.5l0,0.2c0,0.9-1,1.4-3.2,1.4l-4.1,0c-2.1,0-3.1-0.4-3.2-1.4l0-0.2c0-1,1.8-1.9,1.8-3.5l-0.1-14.1
			C447.7,140.2,445.8,139.4,445.8,138.4z"/>
		<path d="M464.3,147.6l-0.6,8.5c-0.1,1.6,1.8,2.6,1.8,3.6l0,0.2c-0.1,0.9-1.3,1.3-3.4,1.2l-1.4-0.1c-2.1-0.1-3.3-0.7-3.2-1.6l0-0.2
			c0.1-1,2.1-1.7,2.3-3.3l1-14c0.1-1.6-2.1-2.6-2-3.6l0-0.2c0.1-0.9,1.6-1.3,3.7-1.2l1.4,0.1c3.2,0.2,3.4,2.2,5,4.8l6.7,11.3
			l0.7-10.1c0.1-1.6-1.8-2.6-1.8-3.6l0-0.2c0.1-0.9,1.3-1.3,3.4-1.2l1.4,0.1c2.2,0.2,3.3,0.7,3.2,1.6l0,0.2c-0.1,1-2.1,1.7-2.3,3.3
			l-1.2,17c-0.1,1.4-1,2-2.3,2l-0.5,0c-4.2-0.3-4.6-2.6-6.1-4.9C469.3,156.1,466.2,150.9,464.3,147.6z"/>
		<path d="M505.4,161.7l1.7-8.4c-2.1,3.3-4.3,7-5.6,8.8c-1,1.3-1.4,1.5-2.2,1.4l-0.2,0c-0.8-0.2-1.1-0.5-1.5-2.1
			c-0.3-1.2-1.3-6.5-1.9-10.3l-1.7,8.4c-0.3,1.6,1.5,2.9,1.3,3.8l0,0.2c-0.2,0.9-1.5,1.1-3.6,0.7l-1.3-0.3c-2.1-0.4-3.1-1.1-3-2.1
			l0-0.2c0.2-1,2.4-1.4,2.7-3l2.8-13.8c0.3-1.6-1.3-2.8-1.1-3.8l0-0.2c0.2-0.9,1.3-1.2,3.4-0.7l2.6,0.5c2.4,0.5,2.8,0.9,3.2,3.9
			c0.2,1.3,1.1,7,1.6,10c2-3.1,4.4-7,5.4-8.4c2-2.9,2.2-2.9,4.6-2.4l2,0.4c2.1,0.4,2.6,1,2.5,2l0,0.2c-0.2,1-1.8,1.5-2.1,3.1
			l-2.8,13.8c-0.3,1.6,1.3,2.8,1.1,3.8c0,0,0,0.2-0.1,0.2c-0.2,0.9-1.3,1.2-3.4,0.7l-4-0.8c-2.1-0.4-3-1.1-2.8-2l0-0.2
			C503,163.8,505.1,163.3,505.4,161.7z"/>
		<path d="M540.2,153.3l-0.1,0.2c-0.3,0.9-2.7,1.2-3.9,2.3l-7.3,6.6l-1.7,5.5c-0.5,1.6,1,2.9,0.7,3.9l-0.1,0.2
			c-0.3,0.9-1.4,1-3.5,0.4l-3.9-1.2c-2.1-0.7-2.9-1.4-2.6-2.3l0.1-0.2c0.3-0.9,2.3-1.2,2.8-2.8l2-6.2c-0.4-1.8-1.8-6.1-2.2-8.1
			c-0.3-1.6-1.9-3.7-1.6-4.7l0.1-0.2c0.3-0.9,1.4-1.1,3.4-0.4l3.9,1.2c2.1,0.7,2.9,1.4,2.7,2.4l-0.1,0.2c-0.3,0.9-1.6,0.1-1.5,1.7
			c0.2,2.4,0.8,4.2,1.3,6.2c1.8-1.6,3.6-3.2,4.4-4.1c1.1-1.2-0.3-1.5,0-2.4l0.1-0.2c0.4-0.9,1.5-1,3.5-0.4l1,0.3
			C539.8,151.6,540.5,152.4,540.2,153.3z"/>
		<path d="M541.7,178.6c-2-0.9-2.7-1.7-2.3-2.6l0.1-0.2c0.4-0.9,2.4-0.9,3.1-2.4l5.8-12.8c0.7-1.5-0.7-3-0.2-3.9l0.1-0.2
			c0.4-0.9,1.5-0.9,3.5,0l3.8,1.7c2,0.9,2.7,1.7,2.3,2.6l-0.1,0.2c-0.4,0.9-2.4,0.9-3.1,2.4l-5.8,12.8c-0.7,1.5-0.6,2.1,0.7,2.7
			l1.5,0.7c1.8,0.8,2.5,0.7,5.2-0.8c1.9-1.1,2.7-1.4,3.4-0.9l0.1,0.1c0.8,0.6,0.2,1.9-1,3.7l-0.9,1.2c-1.2,1.7-1.9,2.1-3.5,1.4
			L541.7,178.6z"/>
		<path d="M580.6,171c2,1.2,2.1,1.3,1.2,5.4c-0.3,1.5-2.8,13.5-3.3,15.6c-0.3,1.6,0.9,3.3,0.4,4.2l-0.1,0.2
			c-0.5,0.8-1.5,0.8-3.4-0.3l-3.8-2.2c-1.9-1.1-2.5-2-2.1-2.8l0.1-0.2c0.5-0.9,2-0.4,2.4-2l0.4-1.6l-7-4l-1.4,1.4
			c-1.2,1.2,0.3,2.1-0.2,2.9l-0.1,0.2c-0.5,0.8-1.6,0.7-3.5-0.4l-1.2-0.7c-1.9-1.1-2.5-2-2-2.8c0,0,0.1-0.2,0.1-0.2
			c0.5-0.9,2.2-0.3,3.4-1.4l12-10.8c1.2-1.1-0.1-2.1,0.4-2.9l0.1-0.2c0.5-0.8,2-0.5,3.9,0.6L580.6,171z M567.7,181.1l5.6,3.2
			c1-4,2.3-9.2,2.7-10.6c0.1-0.3,0-0.4-0.1-0.4c-0.1-0.1-0.3,0-0.4,0.1C574.7,174.2,570.7,178,567.7,181.1z"/>
		<path d="M590.8,183.2c1-1.3,0-3.1,0.5-3.9l0.1-0.2c0.6-0.8,1.6-0.6,3.4,0.7l6,4.3c6.5,4.7,7.8,9.2,5,13.1c-3,4.1-8.1,4.2-12.4,1.1
			c-1.9-1.4-2.3-3.1-1.5-4.3c0.3-0.4,0.5-0.3,0.8-0.1c3.1,2.2,5.9,1.6,7.6-0.7c1.5-2,1.7-4.7-1.1-6.7l-0.1-0.1
			c-1.1-0.8-1.8-0.7-2.8,0.7l-8.3,11.4c-1,1.3,0,3.1-0.5,3.9l-0.1,0.2c-0.6,0.7-1.7,0.5-3.4-0.7l-3.3-2.4c-1.8-1.3-2.3-2.3-1.7-3
			l0.1-0.2c0.6-0.8,2.6-0.4,3.5-1.7L590.8,183.2z"/>
		<path d="M630.6,216.1c-0.5,2-2.9,3.7-5.1,2.4c-2.1-1.3-2-3.4-1.4-4.7c1.3-3.1,1.9-5.7,0.1-7.4c-2-1.9-5.5-0.8-8.3,2.1
			c-4,4.2-4.3,10.1-1.1,13.1c2.1,2,4.5,2.3,6.8,1.9c1.1-0.1,1.2,1.5,0,2.3c-2.7,1.8-8,0.9-11.6-2.6c-5-4.8-5.5-12-0.7-17
			c5.5-5.8,13.2-5,17.5-0.9C629.9,208.4,631.4,213,630.6,216.1z"/>
		<path d="M643.3,230.8c1.2-1.1,0.6-3.2,1.3-3.8l0.2-0.1c0.7-0.6,1.9,0,3.3,1.6l0.9,1c1.4,1.7,1.8,2.8,1.1,3.5l-0.1,0.1
			c-0.7,0.6-2.7-0.3-4,0.7l-8.3,7.2c-2.9,2.5-8.1,3.3-12.5-1.7c-4.1-4.8-4.8-9.5-0.2-13.5l8-6.9c1.2-1.1,0.7-3,1.4-3.7l0.2-0.1
			c0.7-0.6,1.7-0.1,3.2,1.5l2.7,3.1c1.4,1.7,1.7,2.7,1,3.4l-0.1,0.1c-0.7,0.6-2.6-0.2-3.8,0.9l-7.4,6.4c-3,2.6-3.1,5-1.3,7.1
			c1.8,2.1,4.1,2.4,6.6,0.2L643.3,230.8z"/>
		<path d="M656.9,245.4l-2.5-3.6c-1.1-1.6-1.7-2-4.1-1.5c-2.1,0.5-2.9,0.3-3.3-0.2l-0.1-0.1c-0.5-0.7,0-1.5,1.8-3l1.2-0.9
			c2.2-1.5,3-1.4,4,0l8.1,11.6c1.3,1.8,1.4,2.9,0.7,3.4l-0.2,0.1c-0.8,0.6-1.7,0.7-4,0.8l-16.6,0.5c-1.2,0.1-2.2,0.5-1.1,2l0.9,1.3
			c1.2,1.6,1.8,1.9,4.9,2c2.2,0,3.1,0.2,3.4,0.9l0.1,0.1c0.4,0.9-0.8,1.8-2.8,2.7l-1.4,0.6c-1.9,0.8-2.7,0.9-3.8-0.7l-7.9-11.2
			c-1.2-1.8-1.4-2.8-0.6-3.4l0.2-0.1c0.8-0.6,4.1-0.8,5.7-0.9c1.5-0.1,9.4-0.3,14.6-0.5L656.9,245.4z"/>
		<path d="M667.4,259.5c0,0,0.2-0.1,0.2-0.1c0.8-0.5,1.7,0.2,2.8,2.1l2,3.6c1.1,1.9,1.1,3,0.3,3.5l-0.2,0.1
			c-0.9,0.5-2.5-0.7-3.9,0.1l-12.3,6.8c-1.4,0.8-1.3,2.8-2.2,3.3l-0.2,0.1c-0.8,0.5-1.7-0.2-2.8-2.1l-2-3.6c-1-1.9-1.1-3-0.3-3.5
			l0.2-0.1c0.9-0.5,2.5,0.7,3.9-0.1l12.3-6.8C666.7,262,666.6,260,667.4,259.5z"/>
		<path d="M663.4,290.3c-1.5,0.7-1.5,2.7-2.4,3.1l-0.2,0.1c-0.9,0.4-1.7-0.3-2.6-2.3l-1.7-3.8c-0.9-2-0.9-3.1,0-3.5l0.2-0.1
			c0.9-0.4,2.5,0.9,3.9,0.2l12.8-5.9c1.5-0.7,1.9-1.1,1.5-2l-0.1-0.1c-0.5-0.9-1-1.2-3.2-1.5c-2.1-0.3-3-0.5-3.3-1.3
			c0,0,0-0.1,0-0.1c-0.3-0.9,1-1.7,3-2.4l1-0.3c1.9-0.6,2.9-0.5,3.7,1.2l6.8,14.9c0.8,1.7,0.2,2.5-1.5,3.5l-0.9,0.6
			c-1.8,1.1-3.3,1.5-3.8,0.7c0,0,0-0.1-0.1-0.1c-0.4-0.7,0-1.6,1.2-3.3c1.3-1.9,1.4-2.4,1-3.4l0-0.1c-0.4-0.9-1-0.9-2.5-0.2
			L663.4,290.3z"/>
		<path d="M665.1,308.3c-0.6-2.1-0.5-3.2,0.4-3.5l0.2-0.1c0.9-0.3,2.3,1.2,3.9,0.7l13.4-4.1c1.6-0.5,1.8-2.5,2.8-2.8l0.2-0.1
			c0.9-0.3,1.6,0.5,2.3,2.6l1.2,3.9c0.6,2.1,0.5,3.1-0.4,3.5l-0.2,0.1c-0.9,0.3-2.3-1.2-3.9-0.7l-13.4,4.1c-1.6,0.5-2,1-1.6,2.3
			l0.5,1.6c0.6,1.8,1.1,2.3,4,3.3c2.1,0.7,2.9,1.1,2.9,1.9l0,0.1c0.1,1-1.3,1.4-3.5,1.7l-1.5,0.1c-2.1,0.2-2.8,0-3.4-1.8
			L665.1,308.3z"/>
		<path d="M687.2,346.2c-7.9,1.5-13.6-3.4-14.9-9.9c-1.4-7.4,2.4-13.3,9.2-14.6c7.9-1.5,13.6,3.4,14.9,9.9
			C697.9,339,694.1,344.9,687.2,346.2z M683,340c5.5-1.1,10.6-5.9,9.9-9.5c-0.5-2.5-3.4-3.2-7.1-2.5c-5.5,1.1-10.6,5.9-9.9,9.6
			C676.4,340.1,679.5,340.7,683,340z"/>
		<path d="M675.5,357.8c-0.2-1.8,0.1-2.3,3.7-3.8c1.5-0.6,12.6-5.7,14.7-6.5c1.5-0.6,2.3-2.2,3.3-2.3c0,0,0.2-0.1,0.2-0.1
			c0.9-0.1,1.5,0.9,1.7,3.1l0.3,4c0.2,2.2-0.2,3.3-1.2,3.4l-0.2,0c-1,0.1-1.4-1.8-3-1.3c-2.1,0.7-8.7,3.4-11.8,4.8
			c3.2,0.8,10.2,2.7,12.7,3.2c1.6,0.3,1.5-1.6,2.5-1.6l0.2,0c0.9,0,1.5,1,1.7,3.1l0.1,1.1c0.2,2.1-0.2,3.2-1.2,3.2l-0.2,0
			c-1,0-1.5-1.6-3.1-2l-15.8-4c-4-1-4.4-1.4-4.6-3.1L675.5,357.8z"/>
		<path d="M685,386.3L685,386.3c0-0.4,0.2-0.5,0.8-1c0.9-0.7,1.1-1.5,1-2.5l0-4.7l-4.9,0.1c-1.8,0-2.6,0.7-2.6,2.2l0,1.7
			c0.1,1.9-0.1,2.5,2.4,4.2c1.8,1.3,2.4,1.9,2.3,2.7l0,0.1c-0.2,1-1.7,1-3.8,0.6l-0.9-0.2c-2.1-0.4-2.7-0.7-2.7-2.6l-0.2-14.2
			c0-2.2,0.4-3.1,1.4-3.2l0.2,0c1,0,1.9,1.8,3.5,1.8l14.1-0.1c1.6,0,2.5-1.9,3.5-1.9l0.2,0c0.9,0,1.4,1,1.5,3.2l0.2,14.2
			c0,1.9-0.5,2.5-2.6,2.5l-1.2,0c-2.1,0-3.6-0.4-3.6-1.4l0-0.1c0-0.8,1.4-1.5,2.7-2.2c1.4-0.7,1.7-1.8,1.7-3.2l0-2.1
			c0-1.5-0.9-2.2-2.6-2.2l-5.3,0.1l0,4.7c0,1,0.1,1.8,1.1,2.5c0.7,0.5,0.8,0.7,0.8,1.1l0,0c0,0.6-0.8,0.9-2.2,0.9l-2.2,0
			C685.8,387.3,685,386.9,685,386.3z"/>
		<path d="M676.1,401.3c0-4.3,1.3-9,4.2-10.5c2.1-1.1,4.8,0.2,4.8,2.9c0,2.2-1.1,2.8-2.4,3.4c-3.1,1.2-4.1,3.2-4.1,5.4
			c0,2.3,1,3.8,3,3.8c1.7,0,3.1-1.9,3.8-5.5c1.1-5.6,3.2-9.5,7.6-9.6c5,0,7.7,5.4,7.7,11.6c0,4.3-1.8,8.9-4.7,8.9
			c-1.8,0-3.3-0.8-3.7-2.1c-0.5-1.4,0.3-2.6,1.8-3.4c2.8-1.5,4.1-2.6,4.1-4.9c0-1.7-0.8-3.4-2.6-3.4c-1.9,0-3.2,1.9-4,5.5
			c-1.4,7.2-3.9,9.2-7.9,9.2C679.4,412.7,676.2,408.1,676.1,401.3z"/>
		<path d="M681.4,437.8l8.6,0c-3.7-1.4-7.7-2.8-9.7-3.7c-1.5-0.7-1.8-1.1-1.8-1.8V432c0-0.9,0.3-1.2,1.8-1.9c1.1-0.6,6.1-2.5,9.7-4
			l-8.6,0c-1.6,0-2.5,2-3.5,2h-0.2c-0.9,0-1.4-1.2-1.4-3.4l0-1.4c0-2.2,0.5-3.3,1.4-3.4h0.2c1,0,1.8,2,3.5,2l14.1,0
			c1.6,0,2.5-1.8,3.5-1.9h0.2c0.9,0,1.4,1,1.4,3.2l0,2.7c0,2.5-0.3,2.9-3.2,3.9c-1.2,0.5-6.6,2.5-9.5,3.6c3.4,1.3,7.7,2.9,9.3,3.6
			c3.3,1.4,3.3,1.5,3.3,4l0,2c0,2.2-0.5,2.8-1.4,2.8H699c-1,0-1.8-1.5-3.5-1.5l-14.1,0c-1.6,0-2.5,1.9-3.5,1.9c0,0-0.2,0-0.2,0
			c-0.9,0-1.4-1-1.4-3.2l0-4.1c0-2.1,0.5-3.1,1.4-3.2h0.2C678.9,435.9,679.8,437.8,681.4,437.8z"/>
		<path d="M684.9,464.1L684.9,464.1c0-0.4,0.2-0.5,0.8-1c0.9-0.7,1.1-1.5,1.1-2.5l0-4.7l-4.9,0c-1.8,0-2.6,0.7-2.6,2.2l0,1.7
			c0,1.9-0.2,2.5,2.3,4.3c1.8,1.3,2.4,1.9,2.2,2.8l0,0.1c-0.2,1-1.7,1-3.8,0.6l-0.9-0.2c-2.1-0.4-2.7-0.8-2.7-2.7l0-14.2
			c0-2.2,0.5-3.1,1.4-3.2h0.2c1,0,1.8,1.8,3.5,1.8l14.1,0c1.6,0,2.5-1.8,3.5-1.9h0.2c0.9,0,1.4,1,1.4,3.2l0,14.2
			c0,1.9-0.5,2.5-2.6,2.5h-1.2c-2.1,0-3.6-0.5-3.6-1.5v-0.1c0-0.8,1.4-1.5,2.7-2.2c1.4-0.7,1.7-1.8,1.7-3.2l0-2.1
			c0-1.5-0.9-2.2-2.6-2.2l-5.3,0l0,4.7c0,1,0.1,1.8,1,2.5c0.6,0.5,0.8,0.7,0.8,1.1v0c0,0.6-0.8,0.9-2.2,0.9h-2.2
			C685.8,465.1,684.9,464.7,684.9,464.1z"/>
	</g>
	<g>
		<path d="M443.3,290.9l-20.8-10.7c-0.6-0.2-1.1,0.5-0.7,1.1l14.2,17.2c0.3,0.4,0.1,0.9-0.3,1.1l-20.4,6c-0.6,0.2-0.5,1.2,0.1,1.3
			l21.3,3.6c0.4,0.1,0.6,0.6,0.4,1l-11.7,18.8c-0.3,0.6,0.3,1.3,0.9,1l19-11.4c0.4-0.2,0.9,0.1,1,0.5l1.9,22.5
			c0.1,0.7,1,0.8,1.3,0.2l6.9-21.2c0.2-0.4,0.7-0.5,1-0.3l15.5,15.7c0.5,0.4,1.2-0.1,1.1-0.7l-7.8-21.5c-0.1-0.4,0.2-0.9,0.6-0.9
			L488,315c0.7,0,0.9-0.9,0.3-1.3L469,303.4c-0.4-0.3-0.4-0.8-0.1-1.1l17.5-12.7c0.5-0.4,0.1-1.3-0.5-1.2l-20.3,3.3
			c-0.4,0-0.8-0.4-0.7-0.8l4.1-21c0.1-0.7-0.7-1.1-1.2-0.6L456.3,289c-0.3,0.3-0.8,0.3-1.1-0.1L443.7,266c-0.4-0.6-1.2-0.4-1.2,0.3
			l1.7,23.9C444.1,290.7,443.7,291,443.3,290.9z"/>
		<path d="M492.5,246.4l16.1,5.5l6.2,24.6c0.2,0.5,0.9,0.5,1,0l4.6-24.8l15.8-4.3c0.5-0.1,0.5-0.8,0-0.9l-16.6-5.5l-4.7-23.5
			c-0.1-0.5-0.8-0.5-0.9,0l-4.9,23.2l-16.6,4.4C491.8,245.2,491.8,246.2,492.5,246.4z"/>
		<path d="M313.3,353l8.9,3.3l3.8,17.1c0.1,0.3,0.6,0.3,0.6,0l3.2-17.3l7.5-2.9c0.3-0.1,0.3-0.5,0-0.6l-8.1-2.4l-3.3-11.4
			c-0.1-0.3-0.5-0.3-0.6,0l-2.9,11.2l-9.2,2C312.9,352.2,312.9,352.9,313.3,353z"/>
		<path d="M586,358l12.5,0.6c0.5,0.1,1,0.6,1,1.2l-1.4,12.6c0,1,1.2,1.5,1.8,0.9l7.5-9.6c0.4-0.4,1-0.4,1.4,0l8.7,10
			c0.7,0.7,1.8,0.2,1.7-0.8l-4.3-13.3c-0.1-0.6,0.3-1,0.8-1.1l13.4,0.6c0.9-0.1,1.1-1.4,0.3-1.9l-12.2-5.1c-0.5-0.3-0.7-0.9-0.4-1.4
			l7.4-11.1c0.4-0.8-0.4-1.8-1.3-1.6l-11.5,6.1c-0.5,0.2-1.1-0.1-1.3-0.7l-3.7-13.6c-0.4-0.9-1.7-0.9-1.9,0l-2.2,13.1
			c-0.2,0.5-0.7,0.8-1.2,0.6l-11.9-6.3c-0.9-0.3-1.6,0.7-1.1,1.5l8.2,10.5c0.3,0.5,0.2,1.1-0.2,1.4l-10.6,5.5
			C584.7,356.6,585.1,357.9,586,358z"/>
		<circle cx="548.4" cy="270.6" r="4.9"/>
		<circle cx="367.7" cy="225.7" r="4.9"/>
		<path d="M596.6,311.8c4.6,0,8.3-3.7,8.3-8.3s-3.7-8.3-8.3-8.3c-4.6,0-8.3,3.7-8.3,8.3S592,311.8,596.6,311.8z"/>
		<path d="M460,212.4c4.4,0,8-3.6,8-8c0-4.4-3.6-8-8-8s-8,3.6-8,8C451.9,208.8,455.5,212.4,460,212.4z"/>
		<path d="M624.6,397.1c0,3.1,2.5,5.6,5.6,5.6c3.1,0,5.6-2.5,5.6-5.6c0-3.1-2.5-5.6-5.6-5.6C627.1,391.4,624.6,394,624.6,397.1z"/>
		<circle cx="497.2" cy="348" r="6"/>
		<circle cx="289" cy="326.5" r="8"/>
		<path d="M702.4,534.6c-2.3-11-5.9-21.3-10.7-30.6c-5.4-10.5-12.4-21.1-21.9-33.4c-1.3-1.7-2.7-3.4-4.1-5.1c0-75.6,0-90.6-0.1-94
			l0,0c-1.3-53.7-24-103.9-64-141.5c-40-37.6-92.9-58.4-148.9-58.4S343.9,192.4,303.8,230c-40,37.6-62.7,87.8-64,141.5l0,0
			c-0.1,3.8-0.1,22.8-0.1,129.1c-3.9,5.7-7.6,11.8-10.4,18.3c-0.2,0.3-0.3,0.5-0.8,0.6c-2.2,0.3-4.2,0.6-6.2,1
			c-1.6,0.3-3.2,0.7-4.9,1c-2.6,0.5-5.3,1.1-7.9,1.5c-2.9,0.5-5.9,0.9-8.8,1.4c-3.9,0.6-8,1.2-11.9,1.9c-5.5,1-11,2.3-16.3,3.5
			l-2.5,0.6c-4.4,1-8.2,2.4-11.7,4.3c-2.8,1.5-4.7,3.1-6,5.1c-1.1,1.7-2.1,3.4-1.9,5.5c0.2,1.8,0.5,3.3,0.9,4.6
			c2.1,6.2,5.5,11.9,10.4,17.3c8.4,9.2,18,16.7,28.5,22.4c13.3,7.2,25,11.2,36.7,12.7c0.5,0.1,0.6,0.1,0.8,0.6
			c0.8,2,1.9,4.1,3.1,6.4c1.1,1.9,2.2,3.9,3.3,5.7l0.5,0.9c-0.1,0-0.3,0-0.4,0.1c-5.2,0.9-8.6,4.2-9.6,8.8c-0.6,3-0.6,6.2,0.1,9.5
			c1.1,5,3.4,9.9,7.1,15c1.9,2.6,3.7,4.7,5.6,6.4c2.3,2.2,5.1,3.6,8.3,4.3c5,5.7,12.4,9.4,20.7,9.4h72.4c-0.3,3-0.4,6-0.2,9.3
			c0.2,4.6,1.3,9.3,3.6,15.3c3.7,9.7,9.6,17.6,17.4,23.4c7.3,5.3,15.7,8.6,25,9.5c1.5,0.2,3.1,0.2,4.6,0.2c6.1,0,11.9-1.3,17.5-4
			c3.1-1.5,5.7-3.5,7.8-6c5.5-6.4,6-14,1.6-21.3c-2.7-4.5-6.7-7.9-10.6-11c-0.6-0.5-1.2-0.9-1.8-1.3c-0.9-0.7-1.7-1.3-2.5-2
			c-2-1.8-3.1-4.1-2.9-6.4c0.1-2.2,1.3-4.2,3.3-5.8h73.4c9.1,1.1,16.8,2,23.9,2.7c16.4,1.7,31.7,2.5,51,2.6h0.2
			c6.3,0,18.9-0.8,31.5-2.6c4.7-0.7,9.6-1.6,14.8-2.7h42c14.9,0,27-11.6,27-26c0-0.9,0-1.8,0-2.7c1.7-1.3,3.4-2.7,5.1-4.2
			c6.1-5.3,11-10.6,14.8-16.5c4.7-7.3,8.9-15.5,12.8-25.1c4.6-11.4,6.8-23.3,6.7-35.3C705.1,551.4,704.1,542.9,702.4,534.6z
			 M322.7,243.4c0,0.5-0.5,1-1,1l-10-1.5c3.2-3.1,6.5-6.1,9.9-9L322.7,243.4z M254.8,371.9c1.2-49.1,21.7-93.5,54.5-126.7l9.3,6.2
			c0.4,0.4,0.5,1,0.1,1.4l-9.5,8.6c-0.6,0.7,0.1,1.8,1,1.6l12-3.4c0.5-0.1,1,0.2,1.2,0.8l1.5,12.1c0.2,0.9,1.5,1.1,1.9,0.2l4.6-11.4
			c0.3-0.5,0.8-0.7,1.3-0.4l10.7,6.4c0.9,0.4,1.8-0.5,1.4-1.3l-6.1-10.9c-0.2-0.5,0-1.1,0.5-1.3l11.7-4.1c0.8-0.4,0.7-1.6-0.2-1.9
			l-13.2-1.3c-0.5-0.1-0.8-0.7-0.7-1.2l4.9-12.3c0.2-0.9-0.8-1.6-1.6-1l-8.5,9.4c-0.4,0.3-1.1,0.2-1.4-0.2l-6.2-9.4
			c34.6-28.4,79.5-45.6,128.6-45.6c107.8,0,195.4,82.8,197.9,185.8c0,0.1,0,34,0,77.9c-0.6-0.6-1.3-1.2-1.9-1.8
			c-4.9-4.5-10.3-9.3-16.3-13.4c-3.6-2.5-7.4-4.9-11-7.2l-1.6-1c-1.9-1.2-3.8-2.4-5.8-3.4c-6.2-3-13.2-6.5-20.2-9.7
			c-8.5-3.9-17.3-7-26.1-9.3c-7.3-1.8-14.8-3.1-22.3-3.7c-6.3-0.5-11-0.7-15.5-0.7c-0.5,0-1,0-1.5,0c-3.8,0-7.7,0.2-11.5,0.5
			c20.1-16.2,34.1-39.6,37.9-66.4c0.2-1.1-1.3-1.6-1.9-0.6c-14.2,26-41.4,44-72.8,45.3c-51.5,2.1-92.6-38.9-90.6-90.4
			c1.1-28.2,15.6-53,37.3-68.1c0.9-0.6,0.3-2-0.8-1.8c-47.7,12.1-82.2,57.2-78,109.5c4,49.6,42.9,89.5,92.4,94.7
			c0.8,0.1,1.6,0.2,2.4,0.2c-5.9,3-11.5,6.1-16.7,9c-11.2,6.2-21.8,10.6-32.4,13.7c-0.3,0.1-0.5,0.1-0.8,0.1c-0.4,0-0.8-0.1-1.4-0.5
			c-6.9-4.5-12.8-7.4-18.5-9.2c-4.5-1.4-9.7-3.1-15.1-4.7c-0.6-0.2-0.7-0.4-0.9-0.7c-1.5-3.5-3.7-6.6-5.7-9.6l-0.5-0.7
			c-5.3-7.8-11.7-15.4-19.6-23.3c-8.5-8.5-16.2-14.6-24.4-19.3c-7.2-4.1-14.3-6.5-21.8-7.2c-0.6-0.1-1.1-0.1-1.6-0.1
			c-3.3,0-5.8,1.1-7.6,3.4c-1.5,1.8-2.6,4-3.2,6.7c-1.2,5-1,9.9-0.6,15.7c0.2,3.2,0.6,6.4,0.9,9.4c0.1,1.1,0.3,2.3,0.4,3.4l0.2,1.8
			c0.5,4.5,1,9.1,1.5,13.6c0.2,1.4,0.4,2.8,0.6,4.2c0.3,2.4,0.7,4.8,0.8,7.2c0.4,7.4,1.1,13,2.1,18.2c0.2,1.1,0,1.6-0.9,2.4
			c-6,5.3-11.8,11.2-17.2,17.4c-1.9,2.2-3.8,4.5-5.7,6.8C254.8,422.7,254.8,372,254.8,371.9z M271.8,648.7c-3.5,0.9-7,1.8-10.6,2.6
			c-2,0.5-4.1,0.8-6.2,1.2c-0.7,0.1-1.4,0.2-2.1,0.4c-0.2-0.1-0.4-0.2-0.6-0.2c0,0-0.1,0-0.1,0c-0.5,0-0.9,0.1-1.4,0.1
			c-4,0-7.3-1.6-10-5c-3.4-4.1-5.6-7.8-7.1-11.5c-1.3-3.4-1.7-6.3-1.2-9.3c0.3-1.6,1.1-2.4,2.5-2.7c1-0.2,2.1-0.3,3.2-0.4
			c0.5,0,1-0.1,1.6-0.1c0.2,0,0.4,0.2,0.8,0.6l0.2,0.2c1,1,2,2,3,3.1c2.4,2.5,4.9,5.1,7.6,7.4c7,6,14.6,10.4,22.6,13.2
			C273.4,648.3,272.6,648.5,271.8,648.7z M321.9,639.8l-0.6,0.2c-3.8,0.9-7.7,1.8-10.6,2.4c-1.4,0.3-2.6,0.5-3.6,0.5
			c-0.9,0-1.7,0.1-2.6,0.1c-2.6,0.1-5.4,0.3-8,0.3c-0.6,0-1.1,0-1.7,0c-3-0.1-6.1-0.6-9.2-1.1c-4.9-0.9-9.6-2.6-14.6-5.4
			c-5.1-2.8-9.3-5.6-12.9-8.7c-0.7-0.6-1.5-1.2-2.3-1.9c-1.9-1.5-3.9-3.1-5.5-4.9c-3.7-4.1-6.8-8-9.3-12l-0.9-1.5
			c-1.2-1.9-2.5-3.9-3.5-6c-2.3-4.3-3.5-9.1-4.7-13.8c-0.5-1.8-0.8-3.7-1.2-5.9c-0.5-2.9-2.1-5-4.9-6.3c0.3-0.1,0.6-0.2,0.8-0.3
			c2.1-1,2.6-2.5,2.6-3.7c0.1-1.8-0.8-3.3-2.4-3.9c-1.5-0.6-3.2-1.2-5.2-1.7c-1.9-0.5-4-0.7-6.5-0.7c-0.2,0-0.4,0-0.6,0
			c2-0.9,4.1-1.9,6.3-2.8c0.9-0.4,1.9-0.8,2.8-1.1c0.8-0.3,1.5-0.6,2.3-0.9c0.7-0.3,1.4-0.7,2-1.1c1.4-0.9,2.2-2.2,2.2-3.7
			c0-1.4-0.7-2.8-2-3.8c-0.6-0.4-1.3-0.8-2.2-1.2c-6.7-2.5-13.8-3.7-21-3.7c-2,0-4,0.1-5.9,0.3c-8,0.7-15.8,2.7-23,5.8
			c-0.5,0.2-0.8,0.4-1.2,0.6c-1.5,1-2.2,2.6-1.7,4.3c0.5,1.5,1.8,2.5,3.4,2.5c0.1,0,0.2,0,0.3,0c1.4-0.1,2.6-0.4,3.7-0.8
			c5.5-1.9,10.6-3.2,15.7-3.9c3-0.4,5.9-0.6,8.7-0.6c3.5,0,7,0.3,10.4,1c-5.8,2.4-10.2,5-13.9,8.1c-0.7,0.6-1.5,1.3-2.2,2.2
			c-1.4,1.8-1.6,3.6-0.7,5.4c0.9,1.7,2.5,2.7,4.6,2.7c1.1,0,2.1-0.2,3.1-0.3c0.4-0.1,0.9-0.1,1.3-0.2l1.8-0.2
			c0.9-0.1,1.9-0.2,2.8-0.4c-1.5,1.1-2.2,2.6-1.9,4.4c0.3,1.7,1.5,2.8,3.3,3.3c0.7,0.2,1.4,0.2,2,0.3c0.4,0,0.8,0.1,1.1,0.1l0.3,0
			c1.6,0.2,3.3,0.5,4.9,0.8c0.7,0.1,1,0.4,1.1,1.5c0.1,3.1,0.7,6.3,1.8,9.5c-3.7-0.8-7.7-2.1-12-3.9c-6.5-2.7-13.5-5.7-20.3-8.7
			c-4.2-1.9-8-4.7-11.7-7.4l-1.6-1.2c-3.6-2.6-6.4-5.1-8.8-7.7c-4.8-5.3-8.1-9.7-10.5-14.3c-0.6-1.1-1.1-2.4-1.5-3.4
			c-0.6-1.7-0.3-2.8,1.1-3.7c1.9-1.3,3.7-2.2,5.3-2.8c6.3-2.3,13.1-4,21.5-5.5c4.9-0.8,9.9-1.6,14.7-2.4c5.1-0.8,10.3-1.6,15.4-2.5
			c4.7-0.8,9.4-1.9,13.9-3l0.6-0.2c2.5-0.6,4.3-2,5.4-4.2c3-6.3,6.6-12.5,10.7-18.3c5.9-8.2,11.2-15.3,16.3-21.8
			c5.9-7.5,12.8-14.7,21.1-21.9c1.3-1.1,2.7-2.7,2.3-5.4c-0.2-1.5-0.3-3-0.5-4.5c-0.1-1.3-0.2-2.6-0.4-3.9c-0.3-2.3-0.6-4.6-0.9-6.9
			c-0.3-2.1-0.5-4.2-0.8-6.4l-0.4-3.4c-0.6-5.3-1.3-10.9-1.9-16.3c-0.5-5-1-10.2-1.4-16c-0.2-3.5-0.3-7-0.4-10.4
			c0-2.5,0.5-4.8,1.7-6.8c1.1-2,1.6-2.1,2.5-2.1c0.5,0,1.1,0.1,1.8,0.2c5.7,0.8,10.6,3.4,14.7,5.8c3.8,2.2,7.5,4.8,11.1,7.4
			c1.9,1.3,3.6,2.9,5.4,4.6c3.7,3.4,7.1,6.6,10.4,9.8c5.1,5.1,9.3,10,12.6,14.9c2,2.9,4,6.2,6.2,9.8c0.1,0.2,0.4,0.6,0.5,0.9
			c-0.3,0.1-0.8,0.2-1.1,0.3c-0.2,0.1-0.4,0.1-0.6,0.1c-0.5,0-0.9-0.2-1.4-0.6c-0.4-0.4-0.8-0.8-1.2-1.2c-0.2-0.3-0.5-0.5-0.7-0.8
			c-1.4-1.5-2.8-2.2-4.2-2.2c-1.4,0-2.7,0.7-3.9,2c-0.3-0.5-0.5-1.1-0.8-1.6c-0.3-0.6-0.6-1.2-0.9-1.8l-0.7-1.4
			c-0.7-1.5-1.5-3.1-2.3-4.7c-0.5-0.9-1-1.7-1.7-2.6c-1.1-1.4-2.5-2.1-4-2.1c-0.3,0-0.7,0-1,0.1c-1.3,0.3-3,1.2-3.6,3.9
			c-0.6,2.7-0.8,5.5-0.5,8.2c0,0.2,0.1,0.5,0.1,0.7c-0.1-0.1-0.2-0.1-0.3-0.2c-0.9-0.5-1.8-0.8-2.8-0.8c-2.1,0-3.8,1.5-4.3,3.8
			c-0.1,0.6-0.2,1.2-0.2,1.8c0,0,0-0.1-0.1-0.1c-0.9-1.6-1.8-3.2-2.6-4.9c-3.1-7.2-4.7-14.9-4.7-22.8c0-1.9,0.2-4,0.4-5.9l0-0.1
			c0.2-2.3-0.7-4-2.4-4.5c-0.3-0.1-0.7-0.1-1-0.1c-1.6,0-3,1.1-3.7,3.1c-0.8,2.2-1.1,4.6-1.1,7.6c0,16.1,4.7,29.2,14.3,40.1
			c0.8,0.9,1.6,1.6,2.5,2.3c0.3,0.2,0.5,0.5,0.8,0.7c0.4,0.4,0.9,0.6,1.3,0.8c0.8,0.4,1.5,0.6,2.3,0.6c0.8,0,1.6-0.2,2.4-0.7
			c1.5-1,2.1-2.6,1.8-4.4c-0.2-1-0.5-2.1-0.8-3.1c-0.1-0.5-0.3-0.9-0.4-1.4c-0.1-0.5-0.2-0.9-0.4-1.4c0,0,0,0,0,0
			c0.7,0.5,1.4,1,2,1.5c0.6,0.4,1.2,0.7,1.7,0.8c0.4,0.1,0.7,0.1,1.1,0.1c1.1,0,2.1-0.5,2.8-1.3c0.7-0.9,0.9-2,0.6-3.2
			c-0.3-1.1-0.6-2.1-0.8-3.2c-0.1-0.4-0.2-0.7-0.3-1.1c0.8,1.5,1.6,2.9,2.4,4.4c0.7,1.1,1.6,2.1,2.5,2.9c1,1,2.2,1.5,3.4,1.5
			c1.8,0,3.4-1.2,4.2-3.1c1.9,1.6,3.8,2.4,6,2.4c0.9,0,1.8-0.1,2.7-0.4c1.2-0.4,2.6-0.5,4.1-0.5c1.4,0,2.9,0.1,4.6,0.4
			c10.1,1.3,19.6,4.8,29.1,10.8c8.5,5.3,14.8,12.7,19.3,22.7c3.2,7,5.4,14.8,7.3,25.3c1.9,10.7,3,22.1,3.4,34.8c0,1.1,0,2.3,0,3.4
			l0,1.3c0,0.1,0,0.1,0,0.2c0,1.2-0.1,2.4-0.1,3.6c-0.1,2.6-0.2,5.3-0.1,8c0.1,7.3-1,14.4-1.9,19.9c-0.8,4.7-1.7,9.6-2.7,14.5
			c-0.9,4.6-2.6,9-5,13.2c-1.7,2.9-3.8,5.4-6.4,7.6c-0.6,0.5-1.2,1-1.8,1.5c-2.9,2.5-5.9,5.1-9.1,7.2c-4.4,2.9-9.3,5.8-14.8,7.7
			c-3.3,1.2-6.6,2.5-9.8,3.7c-2.8,1.1-5.7,2.3-8.6,3.3c-8.8,3.2-17.6,6.1-26.6,9.2C326.8,638.6,324.3,639.3,321.9,639.8z
			 M330.4,646.8c0.8-0.2,1.6-0.5,2.4-0.7c5.8-1.9,11.6-3.9,17.3-5.8c0,0,4.7-1.6,4.7-1.6c-2,1.9-3.9,4.1-5.7,6.5
			c-0.1,0.2-0.5,0.4-0.8,0.4c-1.5,0.1-3,0.2-4.5,0.3C339.4,646.3,334.9,646.7,330.4,646.8z M696.9,563.9c-0.3,8.8-2,17.5-5.2,26
			c-3.4,9-7.6,17.5-12.5,25.2c-4.1,6.4-9.7,12.4-17.8,18.8c-9,7.1-19.3,12.8-31.4,17.3c-8.4,3.1-19.6,7.1-31.3,9.6
			c-6.7,1.5-15.6,3.3-24.5,4.3c-10,1.1-20.1,1.7-30.1,1.7c-4.1,0-8.2-0.1-12.3-0.3c-8.8-0.4-17-0.9-24.9-1.6
			c-13.6-1.2-25.6-2.5-36.8-4.2c-7.2-1.1-14.4-1.9-21.2-2.5c-6.4-0.6-13.3-1-22.3-1.3c-1.3-0.1-2.6-0.1-3.9-0.1
			c-4.4,0-8.7,0.3-12.9,0.9c-5.8,0.9-10.2,2.5-13.9,5c-1.9,1.3-3.5,2.8-4.8,4.5c-1.7,2.3-2.4,5-2.2,8.3c0.3,3.4,1.6,6.4,4.1,9.1
			c2.4,2.6,5.2,4.8,7.9,6.9l0.1,0.1c3.6,2.8,6.1,5.3,7.9,8c1.9,2.8,2.5,5.4,2,7.9c-0.4,1.7-1.3,3.3-2.8,4.9
			c-2.6,2.7-6.1,4.5-10.6,5.6c-3,0.7-6,1.1-9,1.1c-7,0-13.8-2-20.4-6c-12-7.2-18.9-18.1-20.6-32.5c-0.9-7.5,0.3-15,3.7-23.1
			c2.3-5.5,6.2-9.7,9.3-12.8c5.8-5.7,13-9.8,23.6-13.2c8.5-2.8,17.3-3.9,24-4.5c8.5-0.8,17.2-0.9,25.6-1l0.7,0
			c5.3-0.1,10.6-0.1,15.9-0.2l5.9-0.1c0.2,0.1,0.4,0.2,0.6,0.2c0,0,0,0,0,0c4.5-0.2,9-0.3,13.5-0.5c10.3-0.4,21-0.7,31.5-1.2
			c9.4-0.4,19.2-1.5,32-3.4c12.2-1.8,23-4.4,32.9-7.9c9-3.2,16.8-6.8,23.8-11.3c10.3-6.6,17.8-14.3,22.8-23.6
			c1.1-2.1,2.2-4.3,3.2-6.4l0.2-0.4c0.3-0.7,0.4-1.4,0.5-1.9c0.1-1.5-0.5-2.6-1.7-3.2c-0.5-0.3-1.1-0.4-1.6-0.4
			c-0.8,0-1.5,0.3-2.1,0.8c-0.7,0.6-1.4,1.4-2.1,2.5c-0.9,1.4-1.8,2.7-2.7,4.1c-1.4,2.1-2.8,4.3-4.2,6.4c-3.7,5.3-8.8,10-16.1,14.8
			c-8.2,5.4-17.8,9.6-30.2,13.3c-11.3,3.4-22.8,5.2-36.6,6.8c-13.1,1.6-26.1,2.1-36,2.4c-12.6,0.4-23.1,0.6-33.1,0.8
			c-3.4,0.1-6.8,0.1-10.2,0.1c-4.2,0-8.6,0-12.9,0.1c-7.6,0.2-14.6,0.6-21.3,1.1c-3.1,0.2-6.3,0.7-9.3,1.2c-0.4,0.1-0.8,0.1-1.1,0.2
			c3.6-2.5,7.3-5.5,11.4-9.3c2.3-2.1,3.8-4.6,5.5-7.4c3.1-5.2,5.1-10,6.1-14.8c0.8-3.8,1.5-7.7,2.1-11.5c0.3-1.6,0.5-3.3,0.8-4.9
			c0-0.3,0.1-0.5,0.1-0.8c0.1-2.9,1.3-5.1,3.2-7.6c4.5-6,8.8-12.3,13-18.5l1.2-1.8c8.4-12.4,16.2-22,24.4-30.2
			c10.3-10.3,21.1-17.7,33-22.7c7.1-3,14.7-4.6,22.7-4.7l0.2,0c1,0,2,0.1,3,0.2c0.5,0,1,0.1,1.5,0.1c0.3,0,0.6,0,0.9,0.1
			c0.5,0.1,1.1,0.1,1.6,0.1l0.1,0c1.8,0,3.2-1,3.6-2.6c0.3-1.5-0.6-3.1-2.2-3.8c-2.6-1.1-5.4-1.3-7.6-1.4c-0.7,0-1.4,0-2.1,0
			c-8.2,0-16.3,1.6-24.2,4.7c-10.6,4.2-20.6,10.5-30.7,19.3c-8.5,7.4-16.6,16.5-24.9,27.9c-3.6,5-7.1,10.1-10.5,15.1
			c-1.5,2.2-3,4.4-4.6,6.6c0.2-8.3,0.3-17.9-0.3-27.3c-1-15.9-2.8-28.1-5.7-39.4c-2.8-10.8-6.3-18.9-11-25.7
			c-1.3-1.9-2.8-3.6-4.2-5.4c-0.5-0.6-1-1.2-1.5-1.9c-0.4-0.5-0.8-0.9-1.3-1.4c2.8-0.8,5.1-1.5,7.1-2.2c9-3.2,17.6-7.7,24.9-11.7
			c11.3-6.2,22.4-12.1,33.9-17.1c9-3.9,19.1-7,30.9-9.5c10.4-2.2,21.4-3.3,33.6-3.4c0.4,0,0.8,0,1.2,0c6.4,0,12.7,0.6,18.6,1.3
			c12.8,1.5,25.7,5.2,39.4,11.3c7.3,3.3,14.9,6.6,22.1,10.7c5.6,3.2,10.8,6.9,15.2,10.2c0.6,0.4,1.1,0.9,1.7,1.3
			c1.5,1.2,3.1,2.4,4.8,3.4c4.2,2.4,7.7,5.9,11,9.2c0.9,0.9,1.8,1.8,2.7,2.6c10.7,10.2,20.5,22.6,30.9,38.9
			c5.3,8.4,9.3,16.5,12.2,24.8c2.6,7.4,4.4,15.1,5.5,23C696.7,551.4,697.1,557.9,696.9,563.9z"/>
		<path d="M368.1,585.2c0,0,0,0.1,0,0.1c0,0.2,0.1,0.4,0.2,0.6c0,0.1,0.1,0.2,0.1,0.3c0.8,3.6,0.7,7.5-0.5,12
			c-0.3,1.3-1.2,2.4-2.5,3.5c-0.8,0.6-1.6,1.1-2.5,1.7c-0.4,0.2-0.7,0.5-1.1,0.7c-0.2,0.1-0.4,0.2-0.6,0.3c-0.4,0.2-0.9,0.5-1.3,0.9
			c-1.2,1-1.6,2.4-1.1,3.8c0.5,1.4,1.9,2.3,3.4,2.3c0,0,0,0,0,0c0.6,0,1-0.1,1.4-0.2c6.8-2.4,10.8-6.5,12.3-12.5
			c1.3-5.3,1.3-10.1,0.1-14.6c0.3,0,0.5,0,0.8,0c0.4,0,0.7,0,1.1,0.1c0.4,0,0.8,0,1.2,0c6.9,0,13.6-4.7,16.2-11.3
			c1.3-3.4,1.7-7.1,1.1-10.7c-0.1-0.6-0.4-2.5-1.9-3.3c-0.4-0.2-0.8-0.3-1.2-0.3c-1.2,0-2.4,0.8-3.1,1.9c-0.7,1.2-0.7,2.5-0.7,3.6
			c0,0.3,0,0.7,0,1c-0.1,1.4-0.5,2.9-1.1,4.2c-0.8,1.6-1.9,3.1-3.3,4.3c-2.2,1.9-4.8,2.9-7.5,2.9c-0.8,0-1.6-0.1-2.3-0.3
			c-0.3-0.1-0.3-0.1-0.4-0.6c-0.2-4.1-1.4-8-2.5-11.4c-1-3.3-2.2-5.7-3.8-7.7c-2.2-2.8-5.1-4.3-8.3-4.3c-3.5,0-5.8,1.4-8.4,3.6
			c-4.8,4-14.2,14.9-12.9,23.5c0.5,3.5,2.8,6,6.6,7.6c1.9,0.8,4,1.2,6.4,1.2c0,0,0,0,0,0c0.8,0,1.7,0,2.6-0.1
			c4.2-0.4,8.5-1.3,13.3-2.7C368,585.2,368.1,585.2,368.1,585.2z M365.9,577.4c-0.9,0.9-1.9,1.1-3.2,1.3c-0.4,0.1-0.7,0.1-1.1,0.2
			c-2.1,0.4-4.3,0.7-6.4,1c-0.8,0.1-1.6,0.2-2.3,0.3c-0.2,0-0.4,0-0.6,0c0,0,0,0,0,0c-2,0-3.4-0.6-4.4-1.6c-2.1-2.5,0-5.8,1.6-8.5
			c0.2-0.3,0.4-0.6,0.5-0.8c2.2-3.7,4.7-6.3,7.6-7.8c0.7-0.4,1.4-0.6,2.1-0.6c0.2,0,0.5,0,0.7,0.1c0.7,0.2,1.5,0.7,2.1,1.5
			c1.5,2,2.6,4.6,3.4,8l0.1,0.5C366.5,572.9,367.2,575.9,365.9,577.4z"/>
		<path d="M354.9,532.6c0.2,0,0.5,0,0.7,0c0.1,0,0.3,0,0.4,0c0.3,0,1.1-0.1,1.8-0.6c0.7-0.5,1.3-1.6,0.7-3.5
			c-1.1-3.6-1.7-6.3-1.9-8.9c-0.3-3.2,0.1-6.1,1.1-8.5c1.3-3.2,3.7-6,6-8.7c0.7-0.9,1.5-1.7,2.2-2.6c1.2-1.5,2.2-3.3,2.9-5.1
			c1.2-3.3,1.3-6.7,0.3-9.7c-0.3-0.9-1-1.9-2.3-2c-0.1,0-0.1,0-0.2,0c-0.4,0-0.8,0.1-1.1,0.3c-0.8,0.5-1,1.2-1.1,1.5
			c-0.2,0.7-0.3,1.4-0.5,2.1c0,0.2-0.1,0.5-0.1,0.7c-0.4,1.9-1.1,3.7-2.1,5.2c-0.7,1.1-1.7,2-2.8,2.9c-0.4,0.3-0.8,0.7-1.2,1
			c-3.5,3.2-6.9,6.3-9.3,10.3c-1.8,2.9-2.9,5.6-3.3,8.3c-0.6,3.6,0.3,9.6,3.3,13.5C350.2,531.1,352.4,532.4,354.9,532.6z"/>
		<path d="M321.4,575.6c-0.8-2.3-2.6-4.2-5.2-5.3c-1.9-0.8-4.2-1.3-6.7-1.3c-2.6,0-5.2,0.5-7.2,1.4c-2.5,1.1-4.8,2.8-7.2,5.3
			c-3.3,3.3-5.5,7.4-7.7,11.5c-0.2,0.5-0.5,0.9-0.7,1.4c-0.6,1.3-1.2,2.4-2.1,3.4c-1.2,1.3-2.8,2.5-4.6,3.3
			c-0.2,0.1-0.7,0.3-0.7,0.3c-0.6,0.3-1.3,0.6-1.9,1c-0.2,0.1-0.9,0.6-1.2,1.4c-0.1,0.4-0.1,0.9,0,1.3c0.4,1.2,1.6,1.6,2.5,1.7
			c0.3,0,0.5,0,0.8,0c2.9,0,5.9-0.9,8.5-2.7c1.6-1.1,3.1-2.5,4.2-4c0.7-0.9,1.3-1.8,2-2.7c2-2.9,4.2-5.9,6.9-7.9
			c2.1-1.6,4.8-2.6,8-3.2c1.7-0.3,3.4-0.4,5.5-0.4c1.1,0,2.3,0,3.6,0.1c0.1,0,0.2,0,0.3,0c1.8,0,2.5-0.9,2.9-1.6
			c0.4-0.8,0.2-1.6,0.2-1.9C321.6,576.3,321.5,575.9,321.4,575.6z"/>
	</g>
</g>
</svg>
