<?xml version="1.0" encoding="utf-8"?>
<!-- Generator: Adobe Illustrator 28.0.0, SVG Export Plug-In . SVG Version: 6.00 Build 0)  -->
<svg version="1.1" id="Layer_1" xmlns="http://www.w3.org/2000/svg" xmlns:xlink="http://www.w3.org/1999/xlink" x="0px" y="0px"
	 viewBox="0 0 300 300" style="enable-background:new 0 0 300 300;" xml:space="preserve">
<style type="text/css">
	.st0{fill:#99B7CC;}
	.st1{fill:#F8B978;}
	.st2{fill:#D0AECB;}
	.st3{fill:#DFB4BE;}
</style>
<g>
	<g>
		<path class="st0" d="M86.29,106.08c-5.67-0.07-7.6-1.88-7.6-4.56c0-1.71,0.86-2.94,2.57-4.57c1.61-1.53,2.57-3.65,3-7.28
			c0.3-2.39,0.45-3.58,0.75-5.98c0.21-1.6,0.48-3.25,0.48-4.81c0-1.39-0.43-2.58-1.18-3.34c-0.91-0.93-1.44-1.86-1.44-3.47
			c0-3.42,2.78-5.77,11.24-6.05c7.6-0.25,9.31,1.88,9.31,4.45c0,2.03-0.91,3.4-2.52,4.89c-1.49,1.38-2.25,3.03-2.68,5.94
			c-0.43,3.04-0.64,4.56-1.07,7.6c-0.32,2.37-0.8,5.34-0.8,7.15c0,1.93,0.59,2.65,1.98,2.58c0.15-0.01,0.22-0.01,0.37-0.02
			c4.28-0.24,5.78-10.86,10.06-11.29c2.09-0.21,3,1.34,3,5.08c0,7.6-3.26,12.67-8.56,13.08C96.43,106.02,93.05,106.17,86.29,106.08z
			"/>
		<path class="st0" d="M197.01,142.14c-5.67,0.49-7.6-0.83-7.6-3.5c0-1.71,0.86-3.1,2.57-5c1.61-1.78,2.57-4.01,3-7.69
			c0.3-2.43,0.45-3.64,0.75-6.06c0.21-1.63,0.48-3.31,0.48-4.86c0-1.39-0.43-2.53-1.18-3.21c-0.91-0.82-1.44-1.68-1.44-3.28
			c0-3.42,2.78-6.48,11.24-6.9c7.6-0.38,9.31,2.18,9.31,4.75c0,2.03-0.91,3.32-2.52,4.72c-1.49,1.3-2.25,2.93-2.68,5.83
			c-0.43,3.03-0.64,4.55-1.07,7.58c-0.32,2.37-0.8,5.33-0.8,7.15c0,1.93,0.59,2.65,1.98,2.61c0.15,0,0.22-0.01,0.37-0.01
			c4.28-0.11,5.78-10.6,10.06-10.44c2.09,0.07,3,1.8,3,5.54c0,7.6-3.26,12.02-8.56,12.02C207.16,141.37,203.78,141.55,197.01,142.14
			z"/>
		<path class="st0" d="M116.07,166.62c3.64-0.47,5.19,1.32,5.19,3.84c0,2.03-0.91,3.14-2.51,4.85c-1.38,1.47-2.19,2.81-2.68,6.13
			c-0.43,3.07-0.64,4.61-1.07,7.68c-0.21,1.63-0.37,2.94-0.37,3.95c0,1.82,0.22,2.92,1.07,4.04c0.96,1.27,1.39,2.17,1.39,3.67
			c0,3.21-2.78,6.17-11.34,6.94c-7.28,0.65-9.2-1.62-9.2-4.3c0-1.71,0.86-3.03,2.57-4.84c1.6-1.7,2.52-3.91,3-7.58
			c0.28-2.03,0.42-3.05,0.7-5.08c-3.72,5.34-5.59,7.97-9.31,13.13c-0.43,0.6-0.91,0.83-1.34,0.84c-0.37,0.01-0.91-0.46-1.12-0.89
			c-2.18-4.91-3.27-7.38-5.46-12.36c-0.24,1.71-0.35,2.56-0.59,4.27c-0.21,1.6-0.37,2.88-0.37,3.9c0,1.82,0.22,2.95,1.07,4.2
			c0.96,1.4,1.39,2.37,1.39,3.87c0,3.21-2.78,5.82-10.27,5.25c-6.74-0.51-8.67-3.18-8.67-5.85c0-1.71,0.86-2.87,2.57-4.38
			c1.61-1.41,2.52-3.47,3-7.06c0.32-2.37,0.48-3.55,0.8-5.92c0.21-1.59,0.48-3.76,0.48-4.77c0-1.34-0.59-2.14-1.28-3.01
			c-1.07-1.34-1.34-2.28-1.34-3.67c0-2.94,2.67-5.39,7.22-5.14c2.61,0.15,3.92,0.19,6.53,0.22c3.32,0.05,5.03,1.01,6.21,3.88
			c1.63,3.99,2.44,5.97,4.07,9.92c2.48-3.71,3.72-5.58,6.21-9.36c2.3-3.54,4.17-5.3,7.71-5.69
			C112.6,167.06,113.76,166.92,116.07,166.62z"/>
		<path class="st0" d="M114.97,241.59c0.03-13.54,9.43-25.63,22.8-28.12c9.98-1.85,15.98,2.98,15.95,13.11
			c-0.05,13.54-9.29,26.27-22.8,28.69C121.04,257.05,114.95,251.68,114.97,241.59z M139.79,230.34c0-6.42-1.71-9.11-4.23-8.66
			c-3.48,0.61-6.69,8.74-6.69,16.98c0,6.42,1.66,8.88,4.23,8.44C136.64,246.48,139.79,238.58,139.79,230.34z"/>
		<g>
			<path class="st0" d="M261.15,187.03c-0.25-0.57-0.49-1.15-0.67-1.79c-0.52-1.97-0.86-3.97-0.96-6c-0.09-1.77-1.77-3.56-3.45-3.81
				c-1.12-0.18-2.2,0.11-3.18,0.72c-1.59,1-3.26,1.76-5.04,2.2c-1.09,0.29-2.19,0.41-3.3,0.63c-3.04,0.49-4.7,3.8-4.26,5.94
				c0.47,2.34,1.97,3.75,4.1,4.68c0.57,0.24,1.16,0.43,1.69,0.68c2.66,1.31,5.28,2.64,7.86,3.98c1.1,0.76,2.33,1.12,3.67,1.18
				c2.05,0.07,3.73-1.79,4.17-3.18C262.46,190.4,261.91,188.7,261.15,187.03z"/>
			<path class="st0" d="M247.48,174.89c0.47-0.43,0.81-1.08,1.25-1.58c0.89-1.85,1.01-3.78,0.67-5.74c-0.23-1.15-0.67-2.27-1.43-3.2
				c-0.92-1-1.95-1.3-3.18-0.78c-1.19,0.5-1.89,1.5-2.36,2.68c-0.52,1.28-0.72,2.72-0.66,4.15c0.1,1.55,0.52,2.99,1.52,4.22
				C244.39,176.01,246.21,176.17,247.48,174.89z"/>
			<path class="st0" d="M274.26,178.87c-0.06-1.3-0.85-2.3-2.11-2.52c-0.49-0.14-1.07-0.15-1.56-0.07
				c-2.91,0.49-5.01,2.15-6.51,4.66c-0.33,0.56-0.51,1.19-0.63,1.85c-0.3,1.78,0.74,3.13,2.55,3.38c0.46,0.06,0.95,0.06,1.39-0.05
				c2.7-0.59,4.81-2.08,6.15-4.53C274.05,180.66,274.28,179.79,274.26,178.87z"/>
			<path class="st0" d="M263.72,176.67c1.49-0.39,2.69-1.25,3.73-2.41c1.28-1.37,2.17-2.96,2.34-4.87c0.19-1.6-0.61-2.87-2.01-3.34
				c-0.83-0.24-1.67-0.12-2.44,0.2c-2.07,0.86-3.56,2.39-4.66,4.41c-0.48,1.01-0.74,2.02-0.77,3.08
				C259.88,176,261.51,177.27,263.72,176.67z"/>
			<path class="st0" d="M252.53,171.49c0.92,1.48,2.33,1.87,3.85,1.07c1.15-0.62,1.96-1.57,2.44-2.7c0.79-1.38,1-2.55,1.09-4.04
				c0.05-1.25-0.13-2.51-0.83-3.62c-0.86-1.33-2.3-1.79-3.67-1.05c-0.62,0.35-1.19,0.86-1.67,1.38c-1.19,1.25-1.69,2.84-1.91,4.45
				C251.65,168.45,251.68,170.07,252.53,171.49z"/>
		</g>
		<path class="st0" d="M249.93,61.6c5.05-1.99,7.02-8.4-0.31-5.14c2.42-6-3.14-6.21-5.06-1.01c-1.89-7.99-6.78-6.45-4.37,1.03
			c-4.68-3.7-9.45-1.15-3.26,3.24c-7.71,0.29-6.55,5.47,0.7,4.68c-4.89,3.8-2.25,7.85,2.61,3.43c-0.09,1.66-0.3,4.68,1.86,4.94
			c1.67-0.09,2.27-2.2,2.62-3.62c2.88,5.91,6.03,1.85,3.58-2.79C256.36,70.14,257.61,64.23,249.93,61.6z M243.87,64.25
			c-1.41,0-2.55-1.17-2.55-2.62c0-1.45,1.14-2.62,2.55-2.62c1.41,0,2.55,1.17,2.55,2.62C246.42,63.08,245.28,64.25,243.87,64.25z"/>
		<path class="st0" d="M47.03,190.95c5.05-1.99,7.02-8.4-0.31-5.14c2.42-6-3.14-6.21-5.06-1.01c-1.89-7.99-6.78-6.45-4.37,1.03
			c-4.68-3.7-9.45-1.15-3.26,3.24c-7.71,0.29-6.55,5.47,0.7,4.68c-4.89,3.8-2.25,7.85,2.61,3.43c-0.09,1.66-0.3,4.68,1.86,4.94
			c1.67-0.09,2.27-2.2,2.62-3.62c2.88,5.91,6.03,1.85,3.58-2.79C53.45,199.48,54.71,193.58,47.03,190.95z M40.96,193.59
			c-1.41,0-2.55-1.17-2.55-2.62s1.14-2.62,2.55-2.62c1.41,0,2.55,1.17,2.55,2.62S42.37,193.59,40.96,193.59z"/>
		<path class="st0" d="M38.55,124.05c-1.59-0.38-3.04,0.12-3.94,1.5c-0.21,0.31-0.36,0.84-0.54,0.92c-0.31,0.13-0.66-0.35-1.12-0.62
			c-1.39-0.78-2.86-0.79-4.09,0.18c-1.19,0.94-1.56,2.41-1.26,3.92c0.28,1.4,1.11,2.41,2.17,3.28c1.79,1.47,3.86,2.48,5.89,3.56
			c0.27,0.14,0.66,0.31,0.84,0.23c0.15-0.06,0.28-0.23,0.45-0.46c1.26-1.75,2.57-3.43,3.54-5.37c0.65-1.3,1.17-2.64,0.81-4.14
			C40.98,125.5,39.89,124.33,38.55,124.05z"/>
	</g>
	<g>
		<path class="st1" d="M119.57,103.67c-5.67,0.79-7.6-0.64-7.6-3.31c0-1.71,0.86-3.09,2.57-5.01c1.61-1.8,2.52-3.91,3-7.77
			c0.3-2.44,0.45-3.66,0.75-6.09c0.21-1.63,0.48-3.76,0.48-4.88c0-1.39-0.43-2.51-1.18-3.16c-0.91-0.79-1.44-1.63-1.44-3.23
			c0-3.42,2.78-5.74,7.81-6.51c7.47-1.14,11.21-1.81,18.68-3.18c4.71-0.86,6.31,2.2,6.31,6c0,3.69-1.98,10.32-4.23,10.74
			c-0.86,0.16-1.28-0.3-1.82-1.81c-1.39-3.92-4.23-6.18-7.06-5.68c-0.09,0.02-0.13,0.02-0.21,0.04c-1.82,0.32-3,1.86-3.32,3.52
			c-0.04,0.22-0.06,0.33-0.11,0.55c-0.11,0.66-0.21,1.53-0.21,2.07c0,1.93,0.64,2.62,1.5,2.47c0.04-0.01,0.06-0.01,0.11-0.02
			c2.03-0.35,2.94-3.78,5.14-4.17c1.55-0.28,2.14,0.95,2.14,3.09c0,3.8-1.98,9.94-4.39,10.37c-0.86,0.15-1.29-0.31-1.71-1.3
			c-0.38-0.89-1.07-1.9-2.25-1.7c-0.04,0.01-0.06,0.01-0.11,0.02c-1.07,0.18-1.93,1.18-2.25,2.57c-0.04,0.18-0.06,0.27-0.11,0.45
			c-0.16,0.67-0.32,1.98-0.32,3.16c0,2.14,1.39,3.04,3.32,2.71c0.04-0.01,0.06-0.01,0.11-0.02c5.56-0.96,8.88-11.53,12.63-12.22
			c1.71-0.32,2.57,1.07,2.57,3.75c0,6.74-3.64,14.4-10.06,15.55C130.81,101.98,127.06,102.63,119.57,103.67z"/>
		<path class="st1" d="M42.44,144.91c0-1.71,0.86-2.67,2.57-3.78c1.61-1.05,2.57-2.88,3-6.39c0.3-2.3,0.45-3.45,0.75-5.76
			c0.21-1.54,0.48-3.12,0.48-4.67c0-1.39-0.43-2.7-1.18-3.68c-0.91-1.2-1.44-2.29-1.44-3.89c0-3.42,3-4.96,8.35-3.62
			c3.91,0.98,6.96,2.25,8.99,3.62c2.73-0.7,4.98-0.93,7.28-0.66c4.71,0.55,9.2,3.81,9.2,10.66c0,10.06-5.67,17.53-13.16,16.43
			c-3.53-0.52-4.66-2.85-5.89-3.09c-0.43-0.08-0.64,0.03-0.75,0.39c-0.06,0.24-0.1,0.37-0.16,0.61c-0.11,0.41-0.16,0.88-0.16,1.36
			c0,0.64,0.43,1.86,1.28,3.25c0.96,1.57,1.39,2.62,1.39,4.11c0,3.21-2.78,5.47-11.34,3.05C44.37,150.79,42.44,147.58,42.44,144.91z
			 M66.63,127.07c0-3-0.8-5.04-2.03-5.25c-0.96-0.16-1.71,1.47-1.93,3.19c-0.39,2.84-0.58,4.26-0.96,7.1
			c-0.11,0.78-0.21,1.67-0.21,2.42c0,0.96,0.32,1.46,1.18,1.61C65.02,136.58,66.63,130.71,66.63,127.07z"/>
		<path class="st1" d="M197.77,179.38c0,7.49-4.92,14.64-10.43,15.33c-3.91,0.49-6.21-2.44-8.67-11.06
			c-0.32-1.29-0.64-2.47-1.02-3.48c-0.16-0.51-0.48-0.73-1.12-0.63c-0.54,0.08-1.07,0.54-1.18,1.42c-0.04,0.37-0.06,0.56-0.11,0.93
			c-0.05,0.44-0.11,0.93-0.11,1.62c0,1.07,0.38,2.13,1.23,3.23c0.96,1.24,1.39,2.14,1.39,3.64c0,3.21-2.78,6.04-11.34,7.55
			c-7.28,1.28-9.2-0.58-9.2-3.26c0-1.71,0.86-3.16,2.57-5.18c1.61-1.9,2.52-3.99,3-7.93c0.3-2.45,0.45-3.68,0.75-6.13
			c0.21-1.54,0.48-3.46,0.48-4.9c0-1.28-0.43-2.49-1.18-3.11c-1.07-0.82-1.44-1.88-1.44-3.16c0-3.59,3.37-6.67,8.29-7.51
			c3.48-0.59,6.9-0.49,9.04,0.26c2.46-1.55,4.92-2.43,7.38-2.75c6.42-0.83,10.17,2.9,10.17,8.25c0,5.78-3.05,10.04-7.87,12.82
			c0.64,1.53,1.55,2.49,2.52,2.38c0.91-0.1,1.87-0.58,2.94-1.43c0.75-0.61,1.39-0.94,1.93-0.99
			C197.07,175.16,197.77,176.17,197.77,179.38z M183.1,165.51c0-2.73-1.6-3.95-3.37-3.69c-1.28,0.19-1.66,0.84-1.77,1.6
			c-0.41,2.91-0.61,4.36-1.02,7.27c-0.16,1.1-0.32,2.3-0.32,2.83c0,0.59,0.43,0.79,0.96,0.71
			C180.27,173.83,183.1,168.67,183.1,165.51z"/>
		<path class="st1" d="M194.79,235.59c0-5.3,2.25-9.54,5.19-9.75c1.61-0.12,2.54,0.97,3.75,4.47c1.79,5.21,3.96,7.17,7.81,7.12
			c2.94-0.04,5.19-1.75,5.19-4.16c0-1.87-1.61-3.25-6.64-5.44c-7.81-3.31-10.7-6.16-10.7-11.19c0-7.38,6.15-13.43,14.72-13.41
			c3.75,0.01,7.06,1.45,8.29,3.44c2.46-2.17,4.07-2.94,5.56-2.8c2.41,0.23,4.17,3.72,4.17,8.06c0,4.39-1.71,7.1-4.23,6.87
			c-2.03-0.19-3.59-1.61-6.26-5.8c-2.37-3.71-3.8-5.13-5.62-5.15c-1.77-0.02-3,1.27-3,3.09c0,2.09,1.56,3.83,7.12,6.65
			c7.79,3.96,10.6,7.45,10.6,12.21c0,8.19-7.44,14.08-16.43,14.05c-2.78-0.01-5.35-1.56-8.24-1.44c-3.1,0.13-3.91,1.8-6.37,1.98
			C196.83,244.58,194.79,240.94,194.79,235.59z"/>
		<path class="st1" d="M237.74,81.41c-1.53-1.47-3.66-1.96-5.43-1.25c-2.1,0.79-3.34,2.56-3.31,4.74c0,0.08,0.01,0.16,0.01,0.24
			c-0.12,0-0.25,0-0.38,0.01c-2.22,0.18-3.86,1.41-4.49,3.38c-0.6,1.86-0.04,3.82,1.52,5.37c1.15,1.13,2.61,1.75,4.6,1.93
			c2.31,0.21,4.59-0.04,6.79-0.28l0.92-0.1c0.86-0.09,1.39-0.34,1.66-0.78c0.03-0.04,0.05-0.09,0.07-0.13
			c0.18-0.35,0.2-0.73,0.21-1.09l0.04-1.09c0.07-1.98,0.14-4.02-0.12-6.09C239.62,84.55,239.21,82.77,237.74,81.41z M237.79,86.53
			c0.24,1.89,0.18,3.77,0.11,5.75l-0.04,1.09c-0.03,0-0.06,0.01-0.1,0.01l-0.93,0.1c-2.19,0.24-4.27,0.47-6.36,0.28
			c-1.51-0.14-2.54-0.56-3.34-1.34c-0.58-0.58-1.48-1.76-1-3.26c0.05-0.16,0.11-0.31,0.18-0.45c0.56-1.11,1.65-1.43,2.5-1.5
			c0.12-0.01,0.28,0,0.44,0.02c0.45,0.04,1.29,0.11,1.75-0.63c0.28-0.44,0.2-0.93,0.13-1.36c-0.02-0.13-0.04-0.26-0.05-0.37
			c-0.02-1.31,0.68-2.29,1.98-2.78l0.03-0.01c1.01-0.41,2.27-0.09,3.23,0.83C237.26,83.79,237.59,85,237.79,86.53z"/>
		<g>
			<path class="st1" d="M49.4,220.12c0.25,0.57,0.5,1.14,0.69,1.78c0.54,1.97,0.91,3.95,1.03,5.99c0.11,1.77,1.82,3.54,3.49,3.77
				c1.12,0.17,2.2-0.14,3.17-0.76c1.57-1.02,3.23-1.8,5.01-2.27c1.08-0.31,2.18-0.44,3.29-0.67c3.03-0.53,4.65-3.86,4.18-5.99
				c-0.5-2.34-2.02-3.73-4.16-4.63c-0.57-0.23-1.17-0.41-1.7-0.66c-2.68-1.28-5.31-2.57-7.91-3.88c-1.11-0.74-2.34-1.09-3.68-1.13
				c-2.05-0.05-3.71,1.84-4.13,3.23C48.04,216.76,48.61,218.46,49.4,220.12z"/>
			<path class="st1" d="M63.22,232.1c-0.46,0.43-0.8,1.09-1.23,1.6c-0.87,1.86-0.96,3.8-0.6,5.74c0.24,1.15,0.69,2.27,1.47,3.18
				c0.93,0.99,1.97,1.27,3.19,0.74c1.18-0.52,1.88-1.52,2.33-2.7c0.5-1.29,0.69-2.72,0.61-4.15c-0.12-1.55-0.55-2.98-1.57-4.2
				C66.28,230.94,64.47,230.8,63.22,232.1z"/>
			<path class="st1" d="M36.38,228.43c0.08,1.3,0.88,2.29,2.14,2.49c0.49,0.13,1.07,0.14,1.56,0.05c2.9-0.53,4.98-2.21,6.45-4.74
				c0.33-0.56,0.49-1.2,0.61-1.86c0.28-1.78-0.78-3.12-2.59-3.34c-0.46-0.05-0.95-0.05-1.39,0.06c-2.69,0.63-4.79,2.14-6.1,4.61
				C36.57,226.64,36.36,227.52,36.38,228.43z"/>
			<path class="st1" d="M46.95,230.51c-1.49,0.41-2.67,1.28-3.7,2.45c-1.26,1.39-2.14,2.99-2.28,4.9c-0.17,1.61,0.64,2.86,2.05,3.32
				c0.83,0.23,1.67,0.1,2.44-0.22c2.06-0.88,3.53-2.44,4.61-4.46c0.47-1.01,0.72-2.03,0.73-3.09
				C50.8,231.14,49.15,229.88,46.95,230.51z"/>
			<path class="st1" d="M58.2,235.56c-0.93-1.47-2.35-1.84-3.86-1.02c-1.14,0.64-1.94,1.59-2.41,2.73
				c-0.78,1.39-0.97,2.56-1.04,4.05c-0.03,1.25,0.16,2.5,0.87,3.61c0.88,1.32,2.32,1.76,3.68,1c0.62-0.36,1.18-0.87,1.66-1.4
				c1.17-1.27,1.66-2.86,1.86-4.48C59.12,238.58,59.07,236.97,58.2,235.56z"/>
		</g>
		<path class="st1" d="M269.67,217.21c0.52-2.06-0.11-4.15-1.6-5.33c-1.73-1.43-3.88-1.63-5.76-0.52c-0.07,0.04-0.14,0.08-0.2,0.13
			c-0.06-0.11-0.12-0.21-0.19-0.32c-1.26-1.84-3.14-2.65-5.16-2.23c-1.91,0.41-3.34,1.86-3.91,3.98c-0.41,1.56-0.22,3.13,0.6,4.96
			c0.96,2.11,2.31,3.96,3.61,5.75l0.54,0.75c0.51,0.7,0.99,1.03,1.5,1.06c0.05,0,0.1,0,0.15,0c0.39-0.02,0.73-0.18,1.05-0.36
			l0.97-0.51c1.75-0.92,3.57-1.87,5.23-3.13C267.88,220.4,269.22,219.16,269.67,217.21z M265.25,219.79
			c-1.52,1.15-3.18,2.02-4.94,2.94l-0.97,0.51c-0.02-0.02-0.04-0.05-0.06-0.08l-0.55-0.76c-1.3-1.78-2.53-3.47-3.4-5.39
			c-0.63-1.38-0.78-2.48-0.49-3.56c0.21-0.79,0.8-2.16,2.34-2.49c0.17-0.04,0.33-0.06,0.48-0.06c1.24-0.06,2.06,0.72,2.54,1.43
			c0.07,0.1,0.14,0.25,0.2,0.39c0.19,0.41,0.54,1.17,1.41,1.21c0.52,0.03,0.91-0.29,1.25-0.56c0.1-0.08,0.2-0.17,0.3-0.22
			c1.13-0.66,2.33-0.54,3.39,0.34l0.02,0.02c0.86,0.67,1.21,1.93,0.88,3.22C267.36,217.98,266.48,218.86,265.25,219.79z"/>
		<path class="st1" d="M40.79,157.72c-0.6-2.04-2.21-3.51-4.1-3.77c-2.22-0.35-4.17,0.58-5.22,2.49c-0.04,0.07-0.07,0.14-0.11,0.21
			c-0.1-0.06-0.21-0.12-0.33-0.18c-2.02-0.94-4.06-0.68-5.58,0.72c-1.44,1.32-1.93,3.3-1.33,5.42c0.44,1.55,1.4,2.81,3.04,3.96
			c1.9,1.33,4.01,2.23,6.04,3.11l0.85,0.37c0.79,0.34,1.38,0.39,1.83,0.14c0.04-0.02,0.09-0.05,0.13-0.08
			c0.33-0.22,0.54-0.53,0.72-0.84l0.57-0.93c1.04-1.68,2.11-3.43,2.9-5.35C40.88,161.37,41.4,159.62,40.79,157.72z M38.31,162.19
			c-0.73,1.77-1.71,3.36-2.75,5.05l-0.57,0.93c-0.03-0.01-0.06-0.02-0.09-0.04l-0.86-0.37c-2.03-0.87-3.94-1.7-5.67-2.9
			c-1.24-0.87-1.93-1.74-2.24-2.82c-0.22-0.79-0.42-2.27,0.74-3.33c0.13-0.12,0.25-0.21,0.38-0.3c1.03-0.68,2.14-0.43,2.92-0.07
			c0.11,0.05,0.24,0.14,0.37,0.23c0.37,0.26,1.06,0.73,1.83,0.32c0.46-0.24,0.64-0.71,0.79-1.12c0.04-0.12,0.09-0.24,0.14-0.34
			c0.63-1.15,1.73-1.66,3.09-1.44l0.03,0c1.08,0.14,2.02,1.05,2.4,2.32C39.2,159.55,38.89,160.76,38.31,162.19z"/>
	</g>
	<g>
		<path class="st2" d="M149.85,89.95c0-5.3,2.25-9.73,5.19-10.28c1.61-0.3,2.55,0.67,3.75,4.02c1.79,4.98,3.96,6.65,7.81,5.98
			c2.94-0.52,5.19-2.65,5.19-5.06c0-1.87-1.61-2.91-6.64-4.31c-7.81-2.09-10.7-4.73-10.7-9.76c0-7.38,6.15-14.03,14.72-15.5
			c3.75-0.64,7.06,0.12,8.29,1.86c2.46-2.68,4.07-3.82,5.56-4.02c2.41-0.33,4.17,2.71,4.17,7.05c0,4.39-1.71,7.54-4.23,7.89
			c-2.03,0.28-3.59-0.8-6.26-4.43c-2.36-3.22-3.8-4.37-5.62-4.07c-1.77,0.3-3,1.8-3,3.61c0,2.09,1.56,3.62,7.12,5.34
			c7.79,2.41,10.6,5.1,10.6,9.86c0,8.19-7.44,15.95-16.43,17.49c-2.78,0.48-5.35-0.67-8.24-0.15c-3.1,0.57-3.91,2.32-6.37,2.78
			C151.88,98.77,149.85,95.3,149.85,89.95z"/>
		<path class="st2" d="M85.83,156.98c-5.67-0.09-7.6-1.91-7.6-4.58c0-1.71,0.86-2.93,2.57-4.56c1.61-1.53,2.52-3.49,3-7.27
			c0.3-2.39,0.45-3.58,0.75-5.97c0.21-1.6,0.48-3.68,0.48-4.81c0-1.39-0.43-2.58-1.18-3.35c-0.91-0.93-1.44-1.87-1.44-3.47
			c0-3.42,2.78-5.25,7.81-5.31c7.47-0.08,11.21-0.35,18.68-1.11c4.71-0.48,6.31,2.65,6.31,6.45c0,3.69-1.98,10.2-4.23,10.45
			c-0.86,0.09-1.28-0.4-1.82-1.95c-1.39-4.03-4.23-6.54-7.06-6.33c-0.09,0.01-0.13,0.01-0.21,0.02c-1.82,0.13-3,1.53-3.32,3.16
			c-0.04,0.22-0.06,0.32-0.11,0.54c-0.11,0.65-0.21,1.51-0.21,2.05c0,1.93,0.64,2.69,1.5,2.64c0.04,0,0.06,0,0.11-0.01
			c2.03-0.13,2.94-3.46,5.14-3.65c1.55-0.13,2.14,1.14,2.14,3.28c0,3.8-1.98,9.77-4.39,9.95c-0.86,0.07-1.29-0.44-1.71-1.48
			c-0.38-0.93-1.07-2.01-2.25-1.95c-0.04,0-0.06,0-0.11,0.01c-1.07,0.06-1.93,0.96-2.25,2.31c-0.04,0.17-0.06,0.26-0.11,0.43
			c-0.16,0.65-0.32,1.94-0.32,3.12c0,2.14,1.39,3.21,3.32,3.09c0.04,0,0.06,0,0.11-0.01c5.56-0.34,8.88-10.64,12.63-11.07
			c1.71-0.2,2.57,1.25,2.57,3.92c0,6.74-3.64,14.21-10.06,14.75C97.07,156.92,93.32,157.1,85.83,156.98z"/>
		<path class="st2" d="M153.62,144.43c0-1.71,0.86-3.16,2.57-5.19c1.61-1.9,2.57-4.22,3-7.94c0.3-2.45,0.45-3.68,0.75-6.13
			c0.21-1.64,0.48-3.35,0.48-4.9c0-1.39-0.43-2.49-1.18-3.1c-0.91-0.74-1.44-1.55-1.44-3.16c0-3.42,3-6.62,8.35-7.56
			c3.91-0.69,6.96-0.49,8.99,0.2c2.73-1.61,4.98-2.48,7.28-2.81c4.71-0.66,9.2,1.9,9.2,8.75c0,10.06-5.67,18.31-13.16,19.44
			c-3.53,0.53-4.66-1.36-5.89-1.15c-0.43,0.07-0.64,0.27-0.75,0.66c-0.06,0.27-0.1,0.4-0.16,0.67c-0.11,0.45-0.16,0.94-0.16,1.42
			c0,0.64,0.43,1.69,1.28,2.78c0.96,1.23,1.39,2.13,1.39,3.63c0,3.21-2.78,6.08-11.34,7.62
			C155.55,148.97,153.62,147.1,153.62,144.43z M177.81,116.13c0-3-0.8-4.8-2.03-4.61c-0.96,0.15-1.71,2.04-1.93,3.84
			c-0.39,2.97-0.58,4.46-0.96,7.43c-0.11,0.82-0.21,1.75-0.21,2.5c0,0.96,0.32,1.34,1.18,1.2
			C176.2,126.11,177.81,119.77,177.81,116.13z"/>
		<path class="st2" d="M119.86,190.03c0.03-13.56,9.41-25.78,22.8-28.35c9.97-1.91,15.98,2.96,15.95,13.09
			c-0.05,13.56-9.31,26.23-22.8,28.76C125.93,205.38,119.84,200.12,119.86,190.03z M144.69,178.53c0-6.42-1.71-9.1-4.23-8.64
			c-3.48,0.63-6.69,8.79-6.69,17.03c0,6.42,1.66,8.87,4.23,8.41C141.53,194.69,144.69,186.78,144.69,178.53z"/>
		<path class="st2" d="M190.3,222.95c2.3-0.26,3.32,1.09,3.32,2.91c0,1.18-0.32,3.14-0.54,4.44c-0.88,4.84-1.32,7.27-2.19,12.11
			c-0.32,1.91-1.66,2.96-4.44,3.31c-2.57,0.33-4.17-0.67-4.49-3.25c-0.13-0.99-0.19-1.48-0.32-2.47c-3.1,4.46-7.6,7.51-12.2,8.29
			c-8.35,1.43-13.48-3.73-13.48-13.84c0-14.02,8.08-25.94,19.1-27.7c4.6-0.73,7.49,0.48,8.72,3.58c2.03-3.27,4.71-5.48,6.9-5.73
			c2.73-0.31,4.49,2.32,4.49,6.65c0,5.35-2.3,9.95-5.08,10.27c-1.98,0.23-3.52-1.01-5.73-4.58c-1.79-2.91-4.28-4.33-6.9-3.93
			c-4.44,0.68-7.6,6.8-7.6,14.67c0,7.44,2.03,10.99,5.89,10.38c2.62-0.41,4.71-2.59,4.71-5c0-1.23-0.7-1.88-2.03-2
			c-0.17-0.02-0.26-0.03-0.43-0.04c-1.12-0.1-1.71-0.81-1.71-2.14c0-2.46,1.61-4.27,4.28-4.66
			C184.46,223.65,186.41,223.39,190.3,222.95z"/>
		<path class="st2" d="M247.06,199.08c-1.63-0.16-3,0.54-3.7,2.02c-0.16,0.34-0.24,0.88-0.41,0.99c-0.29,0.18-0.7-0.26-1.19-0.46
			c-1.48-0.58-2.94-0.39-4.03,0.74c-1.05,1.09-1.21,2.6-0.71,4.06c0.47,1.35,1.43,2.24,2.6,2.95c1.98,1.21,4.17,1.93,6.32,2.72
			c0.29,0.1,0.7,0.22,0.87,0.11c0.14-0.08,0.25-0.26,0.38-0.52c1.01-1.9,2.07-3.75,2.77-5.81c0.47-1.37,0.79-2.77,0.24-4.21
			C249.66,200.19,248.42,199.17,247.06,199.08z"/>
		<path class="st2" d="M77.28,63.01c0.71,0.23,1.28,0.81,1.69,1.41c0.45,0.65,0.62,1.45,0.55,2.23c-0.11,1.26-1.19,2.57-2.57,2.88
			c-0.9,0.2-1.24,0.69-1.44,1.53c-0.68,2.89-1.41,5.77-2.16,8.64c-0.2,0.76-0.08,1.31,0.49,1.87c1.18,1.17,1.38,2.93,0.59,4.38
			c-1.02,1.88-3.49,2.17-4.99,0.59c-0.16-0.17-0.31-0.36-0.48-0.57c-0.89,0.44-1.82,0.61-2.77,0.27c-1.98-0.71-2.69-2.87-1.59-4.79
			c0.5-0.87,1.23-1.47,2.2-1.72c0.66-0.17,0.99-0.57,1.15-1.22c0.74-3.05,1.51-6.09,2.29-9.13c0.15-0.59,0.08-1.04-0.4-1.47
			c-1.27-1.13-1.64-2.61-1.06-4.08c0.53-1.36,2.37-2.3,3.8-1.94c0.44,0.11,0.83,0.37,1.18,0.66c0.16,0.13,0.66,0.73,0.89,0.69
			c0.75-0.13,1.55-0.42,2.33-0.29C77.09,62.95,77.19,62.98,77.28,63.01z"/>
	</g>
	<g>
		<path class="st3" d="M252.47,235.46c5.05-2,7.02-8.4-0.31-5.14c2.42-6-3.14-6.21-5.06-1.01c-1.89-7.99-6.78-6.45-4.37,1.03
			c-4.68-3.7-9.45-1.15-3.26,3.24c-7.71,0.29-6.55,5.47,0.7,4.68c-4.89,3.8-2.25,7.85,2.61,3.43c-0.09,1.66-0.3,4.68,1.86,4.94
			c1.67-0.09,2.27-2.2,2.62-3.62c2.88,5.91,6.03,1.85,3.58-2.79C258.89,244,260.15,238.09,252.47,235.46z M246.4,238.11
			c-1.41,0-2.55-1.17-2.55-2.62c0-1.45,1.14-2.62,2.55-2.62c1.41,0,2.55,1.17,2.55,2.62C248.96,236.94,247.81,238.11,246.4,238.11z"
			/>
		<path class="st3" d="M186.93,83.75c0-5.3,2.25-9.6,5.19-9.92c1.61-0.17,2.54,0.88,3.75,4.34c1.79,5.15,3.96,7.02,7.81,6.81
			c2.94-0.16,5.19-1.98,5.19-4.39c0-1.87-1.61-3.17-6.64-5.16c-7.81-2.99-10.7-5.76-10.7-10.79c0-7.38,6.15-13.62,14.72-13.98
			c3.75-0.16,7.06,1.12,8.29,3.05c2.46-2.29,4.07-3.15,5.57-3.09c2.41,0.1,4.17,3.49,4.17,7.82c0,4.39-1.71,7.2-4.23,7.1
			c-2.03-0.08-3.59-1.42-6.26-5.47c-2.36-3.59-3.8-4.94-5.62-4.89c-1.77,0.06-3,1.4-3,3.22c0,2.09,1.56,3.77,7.12,6.32
			c7.79,3.58,10.6,6.89,10.6,11.65c0,8.19-7.44,14.51-16.43,14.88c-2.78,0.11-5.35-1.33-8.24-1.1c-3.1,0.25-3.91,1.94-6.37,2.21
			C188.96,92.69,186.93,89.1,186.93,83.75z"/>
		<path class="st3" d="M116.28,139.61c0.03-13.54,9.42-25.67,22.8-28.18c9.97-1.87,15.98,2.97,15.95,13.1
			c-0.05,13.54-9.3,26.26-22.8,28.71C122.35,155.04,116.25,149.7,116.28,139.61z M141.1,128.29c0-6.42-1.71-9.1-4.23-8.66
			c-3.48,0.62-6.69,8.75-6.69,16.99c0,6.42,1.66,8.88,4.23,8.43C137.95,144.44,141.1,136.53,141.1,128.29z"/>
		<path class="st3" d="M230.29,142.26c-5.67-0.63-7.6-2.24-7.6-4.92c0-1.71,0.86-2.96,2.57-4.54c1.61-1.49,2.52-3.38,3-7.13
			c0.3-2.37,0.45-3.55,0.75-5.92c0.21-1.58,0.48-3.64,0.48-4.77c0-1.39-0.43-2.62-1.18-3.44c-0.91-1-1.44-1.95-1.44-3.56
			c0-3.42,2.78-5.23,7.81-4.5c7.47,1.09,11.21,1.89,18.68,4.21c4.71,1.46,6.31,5.53,6.31,9.33c0,3.69-1.98,9.21-4.23,8.46
			c-0.86-0.28-1.28-0.95-1.82-2.73c-1.39-4.61-4.23-8.23-7.06-8.93c-0.09-0.02-0.13-0.03-0.21-0.05c-1.82-0.45-3,0.64-3.32,2.18
			c-0.04,0.2-0.06,0.31-0.11,0.51c-0.11,0.62-0.21,1.45-0.21,1.99c0,1.93,0.64,2.86,1.5,3.06c0.04,0.01,0.06,0.01,0.11,0.02
			c2.03,0.46,2.94-2.58,5.14-1.98c1.55,0.42,2.14,1.94,2.14,4.08c0,3.8-1.98,8.99-4.39,8.38c-0.86-0.22-1.29-0.86-1.71-2.02
			c-0.38-1.05-1.07-2.34-2.25-2.6c-0.04-0.01-0.06-0.01-0.11-0.02c-1.07-0.23-1.93,0.46-2.25,1.73c-0.04,0.16-0.06,0.24-0.11,0.41
			c-0.16,0.61-0.32,1.86-0.32,3.04c0,2.14,1.39,3.52,3.32,3.95c0.04,0.01,0.06,0.01,0.11,0.02c5.56,1.24,8.88-7.69,12.63-6.41
			c1.71,0.59,2.57,2.46,2.57,5.14c0,6.74-3.64,12.23-10.06,10.5C241.53,143.76,237.78,143.1,230.29,142.26z"/>
		<path class="st3" d="M204.61,192.52c-5.67,0.29-7.6-1.08-7.6-3.76c0-1.71,0.86-3.08,2.57-4.92c1.61-1.73,2.52-3.76,3-7.59
			c0.3-2.42,0.45-3.62,0.75-6.04c0.21-1.62,0.48-3.72,0.48-4.84c0-1.39-0.43-2.55-1.18-3.25c-0.91-0.85-1.44-1.73-1.44-3.33
			c0-3.42,2.78-5.64,7.81-5.78c7.47-0.2,11.21-0.13,18.68,0.55c4.71,0.43,6.31,4.1,6.31,7.9c0,3.69-1.98,9.67-4.23,9.43
			c-0.86-0.09-1.28-0.67-1.82-2.32c-1.39-4.3-4.23-7.32-7.06-7.44c-0.09,0-0.13-0.01-0.21-0.01c-1.82-0.08-3,1.24-3.32,2.83
			c-0.04,0.21-0.06,0.32-0.11,0.53c-0.11,0.64-0.21,1.49-0.21,2.03c0,1.93,0.64,2.74,1.5,2.77c0.04,0,0.06,0,0.11,0
			c2.03,0.06,2.94-3.16,5.14-3.02c1.55,0.1,2.14,1.49,2.14,3.63c0,3.8-1.98,9.42-4.39,9.3c-0.86-0.04-1.29-0.6-1.71-1.68
			c-0.38-0.97-1.07-2.13-2.25-2.16c-0.04,0-0.06,0-0.11,0c-1.07-0.02-1.93,0.82-2.25,2.16c-0.04,0.17-0.06,0.26-0.11,0.43
			c-0.16,0.64-0.32,1.92-0.32,3.1c0,2.14,1.39,3.27,3.32,3.32c0.04,0,0.06,0,0.11,0c5.56,0.15,8.88-9.5,12.63-9.07
			c1.71,0.2,2.57,1.87,2.57,4.55c0,6.74-3.64,13.11-10.06,12.72C215.85,192.11,212.1,192.14,204.61,192.52z"/>
		<path class="st3" d="M85.49,257.5c-1.98,1.25-4.55,1.81-7.49,1.61c-4.39-0.29-7.17-2.59-7.17-5.59c0-1.55,0.37-2.19,2.57-4.43
			c0.96-0.97,2.41-2.46,3-7.12c0.3-2.37,0.45-3.56,0.75-5.94c0.32-2.33,0.48-3.71,0.48-4.78c0-1.5-0.48-3.1-1.18-3.83
			c-0.94-0.98-1.5-1.94-1.5-3.55c0-3.32,2.46-5.33,7.71-5.14c2.52,0.09,5.89,0.65,7.81,1.37c1.6-0.66,4.28-1.37,7.06-1.51
			c9.95-0.5,15.14,4.7,15.14,15.67c0,13.75-8.03,24.78-19.21,25.11C89.66,259.49,87.52,258.93,85.49,257.5z M98.76,235.6
			c0-6.74-1.39-10.24-4.01-10.14c-2.25,0.08-3.37,1.97-4.07,6.74c-0.66,4.7-1,7.04-1.66,11.73c-0.37,2.52-0.48,3.75-0.48,4.76
			c0,2.46,0.86,3.86,2.46,3.83C95.55,252.46,98.76,245.34,98.76,235.6z"/>
		<path class="st3" d="M65.32,188.62c-0.59,0.44-1.41,0.57-2.13,0.56c-0.79-0.01-1.54-0.33-2.14-0.84c-0.96-0.82-1.4-2.46-0.85-3.76
			c0.36-0.85,0.15-1.41-0.41-2.06c-1.96-2.23-3.88-4.5-5.78-6.77c-0.5-0.6-1.02-0.82-1.8-0.69c-1.64,0.28-3.19-0.58-3.91-2.06
			c-0.94-1.92,0.26-4.1,2.41-4.41c0.23-0.03,0.47-0.04,0.74-0.06c0.16-0.98,0.56-1.84,1.39-2.41c1.72-1.2,3.9-0.53,4.82,1.48
			c0.42,0.91,0.48,1.85,0.13,2.79c-0.24,0.64-0.11,1.13,0.33,1.64c2.05,2.37,4.08,4.76,6.11,7.16c0.39,0.46,0.8,0.67,1.43,0.52
			c1.66-0.38,3.08,0.18,3.94,1.51c0.8,1.22,0.5,3.27-0.62,4.22c-0.35,0.3-0.78,0.46-1.22,0.58c-0.2,0.05-0.98,0.11-1.08,0.33
			c-0.33,0.69-0.56,1.5-1.11,2.07C65.48,188.49,65.41,188.56,65.32,188.62z"/>
		<g>
			<path class="st3" d="M55.84,88.94c-0.62-0.03-1.25-0.06-1.9-0.18c-2-0.4-3.94-0.96-5.81-1.77c-1.63-0.69-3.98,0.04-4.93,1.43
				c-0.65,0.93-0.86,2.03-0.75,3.17c0.2,1.86,0.15,3.7-0.22,5.49c-0.21,1.1-0.58,2.15-0.88,3.24c-0.89,2.95,1.36,5.89,3.47,6.42
				c2.31,0.6,4.24-0.13,6-1.64c0.47-0.41,0.89-0.86,1.35-1.22c2.34-1.82,4.68-3.59,7.02-5.33c1.16-0.66,2.03-1.6,2.67-2.78
				c0.96-1.81,0.02-4.14-1.03-5.14C59.44,89.24,57.67,88.99,55.84,88.94z"/>
			<path class="st3" d="M38.93,95.92c-0.18-0.61-0.61-1.2-0.87-1.82c-1.28-1.61-2.96-2.56-4.86-3.12c-1.14-0.3-2.34-0.4-3.5-0.12
				c-1.3,0.39-2.02,1.19-2.09,2.52c-0.07,1.29,0.52,2.36,1.37,3.3c0.93,1.03,2.13,1.84,3.44,2.41c1.44,0.59,2.91,0.84,4.46,0.48
				C38.59,99.18,39.52,97.62,38.93,95.92z"/>
			<path class="st3" d="M54.24,73.58c-1.19-0.52-2.44-0.24-3.19,0.8c-0.34,0.38-0.61,0.89-0.75,1.38c-0.83,2.83-0.26,5.45,1.34,7.89
				c0.35,0.54,0.85,0.98,1.39,1.37c1.47,1.05,3.14,0.7,4.15-0.81c0.25-0.39,0.47-0.82,0.57-1.27c0.65-2.68,0.24-5.24-1.38-7.52
				C55.76,74.55,55.07,73.97,54.24,73.58z"/>
			<path class="st3" d="M47.65,82.09c0.3-1.51,0.05-2.96-0.53-4.41c-0.67-1.75-1.71-3.25-3.35-4.24c-1.36-0.87-2.84-0.71-3.89,0.34
				c-0.58,0.64-0.84,1.45-0.89,2.28c-0.14,2.24,0.59,4.25,1.92,6.12c0.69,0.88,1.49,1.55,2.44,2.04
				C45.36,85.25,47.22,84.34,47.65,82.09z"/>
			<path class="st3" d="M38.09,89.88c1.73-0.17,2.7-1.27,2.65-2.99c-0.06-1.3-0.55-2.45-1.36-3.38c-0.89-1.32-1.86-2.01-3.15-2.75
				c-1.1-0.59-2.31-0.98-3.62-0.84c-1.57,0.19-2.62,1.28-2.55,2.84c0.04,0.72,0.25,1.45,0.51,2.11c0.61,1.62,1.81,2.76,3.17,3.67
				C34.97,89.35,36.44,90.02,38.09,89.88z"/>
		</g>
		<path class="st3" d="M246.84,94.86c-0.54-0.51-0.81-1.29-0.92-2c-0.12-0.78,0.06-1.58,0.46-2.25c0.64-1.09,2.18-1.8,3.56-1.49
			c0.9,0.21,1.42-0.09,1.95-0.76c1.86-2.31,3.76-4.6,5.68-6.86c0.51-0.6,0.64-1.15,0.37-1.9c-0.56-1.56,0.02-3.24,1.35-4.21
			c1.73-1.25,4.09-0.45,4.75,1.62c0.07,0.23,0.12,0.46,0.19,0.72c0.99-0.01,1.9,0.24,2.62,0.95c1.48,1.49,1.19,3.75-0.63,5.01
			c-0.83,0.57-1.74,0.79-2.73,0.6c-0.67-0.13-1.14,0.08-1.56,0.6c-1.99,2.43-3.99,4.84-6,7.25c-0.39,0.47-0.52,0.9-0.27,1.5
			c0.66,1.57,0.35,3.06-0.8,4.14c-1.07,1-3.13,1.05-4.27,0.11c-0.35-0.29-0.59-0.69-0.78-1.1c-0.09-0.19-0.28-0.95-0.51-1.01
			c-0.74-0.21-1.58-0.29-2.23-0.74C246.99,94.99,246.91,94.93,246.84,94.86z"/>
		<path class="st3" d="M208.72,252.05c-0.03-0.74,0.32-1.49,0.74-2.07c0.46-0.65,1.15-1.08,1.91-1.29c1.22-0.33,2.82,0.24,3.58,1.42
			c0.5,0.78,1.08,0.93,1.93,0.83c2.95-0.35,5.9-0.65,8.86-0.93c0.78-0.07,1.26-0.37,1.59-1.1c0.69-1.51,2.28-2.3,3.91-2.06
			c2.11,0.31,3.24,2.54,2.27,4.48c-0.11,0.21-0.24,0.41-0.37,0.65c0.72,0.69,1.2,1.5,1.2,2.51c0.02,2.1-1.77,3.51-3.95,3.14
			c-0.99-0.17-1.8-0.65-2.37-1.47c-0.39-0.56-0.87-0.73-1.54-0.66c-3.12,0.35-6.24,0.67-9.36,0.99c-0.61,0.06-1.01,0.28-1.24,0.88
			c-0.62,1.58-1.89,2.43-3.47,2.4c-1.46-0.03-2.98-1.44-3.13-2.9c-0.05-0.46,0.06-0.91,0.22-1.33c0.07-0.2,0.46-0.87,0.34-1.08
			c-0.38-0.66-0.93-1.31-1.08-2.09C208.73,252.26,208.72,252.15,208.72,252.05z"/>
	</g>
</g>
</svg>
