<?xml version="1.0" encoding="utf-8"?>
<!-- Generator: Adobe Illustrator 25.2.0, SVG Export Plug-In . SVG Version: 6.00 Build 0)  -->
<svg version="1.1" id="Layer_1" xmlns="http://www.w3.org/2000/svg" xmlns:xlink="http://www.w3.org/1999/xlink" x="0px" y="0px"
	 width="300px" height="300px" viewBox="0 0 300 300" style="enable-background:new 0 0 300 300;" xml:space="preserve">
<g>
	<g id="_x38_spKVL.tif_1_">
		<g>
			<g>
				<path d="M261.9,179.8c-6.6,1.1-13.1,2.2-19.7,3.4c-1.3,0.3-2.6,0.7-4,1.1c-5.1,1.2-9.8,0.6-13.8-2.9c-3.7-3.3-5.2-11.5-0.3-16.5
					c1.7-1.8,3.5-3.6,5.1-5.6c2.6-3.3,4.6-6.9,6.1-10.8c1-2.4,2.6-4.4,4.8-5.6c3.4-1.9,8.8-0.9,11.4,2.2c3,3.5,6.3,6.7,9.9,9.6
					c1.1,0.9,2.4,1.7,3.6,2.4c3.6,2,6.9,4.4,8.3,8.5c1.1,3.1,0.6,8.8-3.2,11.4C267.6,178.7,264.9,179.7,261.9,179.8z"/>
				<path d="M223.9,149c0,1.5,0.2,3.1-0.1,4.6c-0.6,4-4.1,6.2-8.1,5.2c-3.5-0.8-6.2-2.9-8.4-5.6c-2.1-2.5-3.6-5.3-4.4-8.4
					c-0.7-2.7-0.8-5.5,0.7-8c1.6-2.6,3.9-3.5,6.8-2.9c2.7,0.6,5,2,7,3.8C220.6,140.8,223,144.5,223.9,149z"/>
				<path d="M280,130.3c0.9,6.3-0.9,11.8-5,16.5c-0.6,0.7-1.5,1.5-2.4,1.9c-3.6,2-7.3,1-9.2-2.6c-0.6-1.3-1.2-2.7-1.3-4.2
					c-0.7-6.5,0.9-12.4,5.5-17.2c0.8-0.8,1.9-1.5,3-2c2.6-1.3,5.4-0.5,7.2,1.8C279,126.3,279.8,128.1,280,130.3z"/>
				<path d="M242,128.1c-0.8-5.1-0.1-9.9,2.5-14.2c1-1.6,2.3-3,4.2-3.7c3.2-1,6.3,0.2,8.2,3.4c2.3,3.7,2.8,7.7,2.4,12
					c-0.4,3.5-1.4,6.6-3.5,9.4c-3.2,4-7.8,4-10.9-0.1C243.3,132.7,242.4,130.5,242,128.1z"/>
				<path d="M237.5,129c0.7,2.8,0.5,5.6-0.8,8.3c-1.6,3.5-4.8,4.7-8.4,3.3c-3.5-1.4-5.7-4.3-7.5-7.3c-1.8-3.2-3.1-6.8-2.6-10.7
					c0.2-1.6,0.6-3.3,1.2-4.7c1.5-3.2,4.8-4.3,8.1-3c2.8,1.1,4.8,3.1,6.4,5.5C235.9,123.1,237.1,125.5,237.5,129z"/>
			</g>
		</g>
	</g>
	<g>
		<g>
			<path d="M141.9,21c2.1,2.6,5.6,6.9,5.6,13.6c0,11.3-9.3,23.4-28.8,23.4c-29,0-44.8-15.2-61.6-20.7c-3.5-0.9-5.3-0.2-5.3,2.4v58.3
				c0,13.4,5,18.7,7.5,19.5v1.3H23.2v-1.3c2.5-0.8,7.5-6.1,7.5-19.5l0.1-37.6c0-9.4-3-13.2-9.1-15.3v-1.5
				c9.6-1.7,17.7-13.9,29.4-13.9c27,0,36.9,6,57.1,6c12.9,0,24.7-2.4,31.3-13.8L141.9,21z"/>
			<path d="M89.8,70.5v27.4c0,13.4,5,18.7,7.5,19.5v1.3H61.4v-1.3c2.5-0.8,7.5-6.1,7.5-19.5v-4.8c0-9.4-3-13.2-9.1-15.3v-1.5
				c9.6-1.7,20.5-14.1,25.9-14.1C89.5,62.2,89.8,67.1,89.8,70.5z"/>
			<path d="M155.8,65.8c-2.5,0.8-10,5.6-14.6,18.2l-12.7,34.7H114l-10.9-34.4c-4.1-12.7-10.3-17.6-12.3-18.4v-1.3h36.9v1.3
				c-2.5,0.8-5.3,5.8-1.2,18.5l4.3,13.5l5.1-13.8c4.6-12.6,2.2-17.4-0.3-18.2v-1.3h20.4V65.8z"/>
			<path d="M219.6,81.1c0,19.7-13.7,40.2-38.8,40.2c-19,0-31.9-13.1-31.9-29.5s12.9-29.6,29.6-29.6c16.4,0,24.2,9.6,26.6,24.3
				c0.6,3.8-1,7.1-8.8,7.1c-18.9,0.3-31.6,3.9-22.2,16.1c10.7,13.9,39.3-0.8,39.3-26.6c0-13.9-7.7-31.4-19.7-31.4
				c-5.1,0-4.5,3.1-11.2,3.1c-5.1,0-9-4.8-9-10.6c0-7.3,6.5-11.9,12.6-11.9C210.7,32.4,219.6,64.5,219.6,81.1z M170.3,92.7
				c11.9-5.5,15.6-2.2,15.6-12.2c0-10.1-3.2-13.7-8.2-13.7c-5.5,0-7.4,9.1-7.4,25V92.7z"/>
		</g>
	</g>
	<g>
		<g>
			<path d="M132.1,124.3c1.9,2.5,5.2,6.4,5.2,12.6c0,10.5-8.6,21.6-26.7,21.6c-26.9,0-41.5-14.1-57.1-19.2c-3.2-0.9-4.9-0.2-4.9,2.2
				v54c0,12.4,4.6,17.3,6.9,18v1.2H22.3v-1.2c2.3-0.7,6.9-5.7,6.9-18l0.1-34.8c0-8.7-2.8-12.3-8.4-14.2v-1.4
				c8.9-1.6,16.4-12.9,27.2-12.9c25,0,34.1,5.5,52.9,5.5c11.9,0,22.8-2.2,29-12.8L132.1,124.3z"/>
			<path d="M51.5,189.8c0-15.1,11.9-27.4,27.4-27.4c15.4,0,27.3,12.3,27.3,27.4c0,15.1-11.9,27.3-27.3,27.3
				C63.5,217.1,51.5,205,51.5,189.8z M87.4,189.8c0-14.7-3.3-23.1-8.5-23.1c-5.3,0-8.6,8.4-8.6,23.1c0,14.7,3.3,23,8.6,23
				C84.1,212.9,87.4,204.6,87.4,189.8z"/>
			<path d="M187.5,144.2c0,6.1-2.9,10.9-9.4,10.9c-3.7,0-5.2-3.1-8.1-3.1c-6.2,0-11.4,7.3-14.4,14.2l-17.8,48.5h-13.4l-10.1-31.9
				c-3.8-11.7-9.5-16.3-11.4-17.1v-1.2h34.1v1.2c-2.3,0.7-4.9,5.3-1.1,17.2l3.9,12.6l14.1-38.4c4.5-12.4,10.3-23.2,21.5-23.2
				C183.1,133.9,187.5,137.6,187.5,144.2z"/>
			<path d="M207,202.6c-2.6,6.7-10.9,14.5-22,14.5c-17.6,0-29.5-12.2-29.5-27.3c0-15.1,11.9-27.4,27.4-27.4
				c15.1,0,22.4,8.9,24.6,22.5c0.5,3.5-1,6.6-8.1,6.6c-17.5,0.3-29.2,3.6-20.6,14.9c6.5,8.4,14.7,6.4,17.9-3.8H207z M175.3,189.8
				v0.9c11-5.1,14.4-2,14.4-11.3c0-9.4-3-12.7-7.6-12.7C177,166.7,175.3,175.1,175.3,189.8z"/>
		</g>
	</g>
	<g>
		<g>
			<path d="M113.3,229.8c-2.3,0.7-9,5.1-13.1,16.3l-11.4,31.1h-13l-9.8-30.9c-0.4-1.3-0.9-2.6-1.3-3.8L52,277.1H39l-9.8-30.9
				c-3.7-11.4-9.2-15.8-11-16.5v-1.1h33v1.1c-2.3,0.7-4.7,5.2-1,16.6l3.8,12.1l6.6-18.1c1-2.9,0.7-5.2-1-7.8
				c-1.1-1.7-2.1-2.5-2.5-2.8v-1.1h31v1.1c-2.3,0.7-4.7,5.2-1,16.6l3.8,12.1l4.5-12.4c4.1-11.2,2-15.6-0.3-16.3v-1.1h18.3V229.8z"/>
			<path d="M104.6,253.1c0-14.7,11.6-26.5,26.5-26.5c14.9,0,26.4,11.9,26.4,26.5c0,14.7-11.6,26.4-26.4,26.4
				C116.1,279.5,104.6,267.8,104.6,253.1z M139.3,253.1c0-14.2-3.2-22.4-8.3-22.4c-5.2,0-8.4,8.2-8.4,22.4c0,14.2,3.2,22.3,8.4,22.3
				C136.1,275.4,139.3,267.3,139.3,253.1z"/>
			<path d="M160.1,253.1c0-14.7,11.6-26.5,26.5-26.5c14.9,0,26.4,11.9,26.4,26.5c0,14.7-11.6,26.4-26.4,26.4
				C171.6,279.5,160.1,267.8,160.1,253.1z M194.9,253.1c0-14.2-3.2-22.4-8.3-22.4c-5.2,0-8.4,8.2-8.4,22.4c0,14.2,3.2,22.3,8.4,22.3
				C191.7,275.4,194.9,267.3,194.9,253.1z"/>
			<path d="M274.3,210c0,5.3-3.5,9.4-9.1,9.4c-14,0-2.8-18.6-16.5-18.6c-9.2,0-11.7,6.8-11.7,18.5v9.4H248c0.5,0,0.5,4.1,0,4.1h-7.8
				c-3.1,0-3.1,1-3.1,3.1v22.7c0,12,4.4,16.7,6.7,17.4v1.1h-32.2V276c2.3-0.7,6.7-5.5,6.7-17.4v-22.7c0-2.1,0-3.1-3.1-3.1h-3.3
				c-0.5,0-0.5-4.1,0-4.1h6.4v-3.5c0-14.2,9.2-28.6,28.4-28.6C263.9,196.5,274.3,202.3,274.3,210z"/>
		</g>
	</g>
</g>
</svg>
