<?xml version="1.0" encoding="utf-8"?>
<!-- Generator: Adobe Illustrator 28.0.0, SVG Export Plug-In . SVG Version: 6.00 Build 0)  -->
<svg version="1.1" id="Layer_1" xmlns="http://www.w3.org/2000/svg" xmlns:xlink="http://www.w3.org/1999/xlink" x="0px" y="0px"
	 viewBox="0 0 300 300" style="enable-background:new 0 0 300 300;" xml:space="preserve">
<style type="text/css">
	.st0{fill:#010101;}
	.st1{fill:#FFFFFF;}
	.st2{fill:#F08088;}
	.st3{fill:#EAB874;}
	.st4{fill:#F9BFC0;}
	.st5{fill:#A7D7CB;}
	.st6{fill:#FEF0EE;}
	.st7{fill:#F8B978;}
	.st8{fill:#A3A96B;}
</style>
<g>
	<g>
		<path class="st0" d="M102.71,112.76c0.15,0.02,0.23,0.06,0.3,0.04c2.71-0.65,5.22,0.01,7.61,1.22c1.45,0.73,2.28,2.11,3.18,3.39
			c0.37,0.52-0.06,1.07-0.75,1.03c-0.62-0.03-1.25-0.15-1.87-0.16c-0.81-0.02-1.63,0-2.44,0.03c-1.94,0.08-3.83-0.22-5.71-0.65
			c-0.96-0.22-1.93-0.35-2.92-0.29c-0.33,0.02-0.53,0.1-0.67,0.42c-0.15,0.36-0.36,0.8-0.87,0.52c-0.51-0.27-0.24-0.69-0.07-1.03
			c0.36-0.73,0.68-1.48,1.12-2.16c0.78-1.21,0.74-2.43,0.2-3.7c-0.66-1.53-1.36-3.05-1.67-4.71c-0.82-4.37,0.47-7.94,3.96-10.71
			c0.25-0.2,0.51-0.38,0.85-0.2c0.33,0.18,0.36,0.47,0.33,0.81c-0.21,2.03,0.24,3.98,0.73,5.93c0.63,2.48,0.52,4.92-0.36,7.32
			c-0.04,0.12-0.08,0.23-0.13,0.35c0.23,0.06,0.31-0.12,0.42-0.22c1.63-1.38,3.41-2.48,5.49-3.05c0.33-0.09,0.48-0.27,0.53-0.59
			c0.13-0.7,0.41-1.32,1.09-1.66c-1.56-2.42-1.54-4.66,0.05-6.38c1.19-1.28,3.18-1.32,5.47-0.08c0.12-1.64,0.58-3.1,2.07-4
			c0.92-0.55,1.94-0.79,3.01-0.67c1.77,0.2,3.71,1.69,3.8,4.09c0.34-0.21,0.64-0.41,0.95-0.6c1.91-1.25,5.65-0.28,6.28,2.34
			c0.43,1.82-0.23,3.36-1.41,4.73c-0.11,0.12-0.22,0.24-0.34,0.37c1.43,1,2.14,2.32,2.01,4.06c-0.15,2.1-1.56,3.34-3.68,3.21
			c-0.27-0.02-0.53-0.04-0.84-0.07c0.33,1.68-0.23,3-1.4,4.15c-1.76,1.73-4.33,1.41-5.91-0.44c-0.32-0.37-0.42-0.4-0.73,0.01
			c-0.92,1.23-2.21,1.44-3.65,1.24c-1.57-0.21-2.45-1.15-2.89-2.59c-0.25-0.84-0.49-1.7-0.24-2.58c0.1-0.36-0.09-0.36-0.34-0.39
			c-1.16-0.18-2.14-0.68-2.82-1.68c-0.2-0.3-0.41-0.61-0.44-0.96c-0.05-0.64-0.37-0.6-0.83-0.43c-2.19,0.82-4.05,2.13-5.65,3.84
			C103.27,112.18,103.01,112.45,102.71,112.76z"/>
		<path class="st0" d="M182.99,115.45c-0.46,0.19-0.91,0.41-1.38,0.57c-2.3,0.79-4.36,0.33-6.19-1.24
			c-0.68-0.58-1.05-1.36-1.04-2.27c0-0.43-0.12-0.57-0.57-0.56c-1.09,0.04-2.18,0.06-3.25-0.17c-2.47-0.53-3.95-2.28-5.24-4.27
			c-0.22-0.33-0.41-0.68-0.62-1.01c-0.16-0.24-0.16-0.47,0.02-0.69c0.17-0.2,0.39-0.23,0.63-0.14c0.2,0.07,0.4,0.13,0.58,0.23
			c1.32,0.73,2.68,0.71,4.06,0.2c0.82-0.3,1.64-0.63,2.44-0.99c1.19-0.52,2.41-0.83,3.71-0.51c0.29,0.07,0.4,0.03,0.41-0.31
			c0.16-3.51,2.87-4.13,5.34-3.13c0.48,0.19,0.93,0.48,1.36,0.78c0.3,0.21,0.41,0.23,0.55-0.17c0.48-1.34,1.18-2.48,2.78-2.62
			c1.81-0.16,3.28,0.49,4.3,2.02c0.38,0.58,0.66,1.21,0.85,1.88c0.12,0.4,0.26,0.41,0.61,0.21c1.72-0.97,3.1-0.57,4.09,1.16
			c0.1,0.17,0.17,0.25,0.38,0.18c1.77-0.59,3.28,0.05,4.7,1.04c1.29,0.9,2.67,1.63,4.14,2.2c0.77,0.3,1.57,0.43,2.4,0.26
			c0.35-0.07,0.68-0.06,0.91,0.24c0.25,0.32,0.11,0.62-0.06,0.93c-1.17,2.13-2.99,3.31-5.37,3.64c-0.88,0.12-1.71-0.09-2.5-0.44
			c-0.28-0.12-0.43-0.1-0.62,0.16c-0.4,0.54-0.85,1.04-1.47,1.34c-0.29,0.14-0.24,0.29-0.05,0.46c0.11,0.1,0.22,0.19,0.33,0.29
			c1.12,1.11,1.31,2.44,0.69,3.84c-1.44,3.28-4.85,3.11-6.96,2.02c-0.69-0.36-1.3-0.84-1.74-1.5c-0.25-0.38-0.46-0.34-0.71,0
			c-1.72,2.27-5.51,1.34-6.91-0.13c-0.5-0.53-0.72-1.17-0.68-1.89c0.03-0.48,0.12-0.95,0.18-1.42
			C183.14,115.56,183.22,115.44,182.99,115.45z"/>
		<path class="st0" d="M241.64,156.6c-1.46-1.83-2.85-3.7-4.01-5.74c-2.01-3.52-4.92-6.17-8.32-8.25c-2.79-1.71-5.72-3.2-8.62-4.73
			c-4.22-2.23-8.12-4.97-12.04-7.67c-1.6-1.1-3.3-1.92-5.21-2.36c-1.68-0.39-3.37-0.54-5.08-0.67c-2.6-0.19-5.19-0.5-7.78-0.76
			c-0.77-0.08-1.54-0.19-2.24-0.54c-2.34-1.16-4.84-1.95-7.26-2.89c-1.75-0.68-3.6-0.91-5.47-0.89c-1.73,0.02-3.47-0.01-5.17-0.28
			c-3.95-0.62-7.81-1.74-11.78-2.3c-3.83-0.53-7.58-1.59-11.51-1.57c-2.24,0.01-4.42,0.31-6.56,0.84c-2.24,0.56-4.48,1.18-6.73,1.72
			c-3.82,0.91-7.72,1.43-11.61,1.91c-3.05,0.37-6.09,0.78-9.15,1.09c-1.33,0.13-2.67,0.25-3.98,0.49c-2.28,0.42-4.53,0.96-6.79,1.45
			c-2.98,0.64-5.29,2.27-7.05,4.72c-0.11,0.15-0.22,0.18-0.36,0.18c-1.76,0.11-3.35,0.87-5,1.35c-2.04,0.6-3.95,1.61-5.97,2.22
			c-1.85,0.55-3.57,1.27-5.13,2.38c-2.68,1.91-4.81,4.38-6.91,6.87c-1.45,1.72-2.79,3.55-4.15,5.34c-1.24,1.63-2.48,3.26-3.73,4.88
			c-1.59,2.04-3.04,4.19-4.64,6.23c-2.14,2.73-4.29,5.44-6.15,8.37c-0.25,0.39-0.48,0.81-0.5,1.27c-0.02,0.53-0.18,0.98-0.45,1.4
			c-0.48,0.75-0.51,1.57-0.34,2.42c0.27,1.36,1.06,1.97,2.42,1.9c0.25-0.01,0.49-0.07,0.71,0.13c0.37,0.33,0.83,0.36,1.3,0.36
			c0.63,0.01,1.24-0.15,1.85-0.27c2.26-0.44,3.18-1.33,3.68-3.6c0.04-0.2,0.08-0.37,0.28-0.52c1.06-0.82,1.98-1.78,2.69-2.93
			c0.89-1.44,1.89-2.8,2.93-4.14c1.78-2.3,3.72-4.46,5.57-6.7c0.65-0.78,1.33-1.54,2.02-2.34c0.03,0.12,0.06,0.18,0.06,0.24
			c-0.02,2.1-1.11,3.69-2.51,5.07c-0.81,0.8-1.58,1.61-2.19,2.56c-0.6,0.94-0.42,1.98,0.43,2.55c0.63,0.42,1.31,0.69,2.1,0.75
			c1.3,0.09,2.59-0.03,3.88-0.17c0.38-0.04,0.76-0.09,1.12,0.04c1.32,0.46,2.67,0.9,3.8,1.72c1.2,0.87,2.47,1.55,3.85,2.04
			c0.51,0.18,0.96,0.47,1.19,0.96c0.55,1.15,1.52,1.87,2.54,2.54c0.76,0.5,1.36,0.44,2.03-0.18c0.64-0.6,1.27-1.24,1.63-2.05
			c0.79-1.77,2.28-2.57,4.02-3.09c1.42-0.43,3.01-0.36,4.22-1.45c0.87,1.83,0.29,3.39-0.82,4.76c-1.4,1.72-2.64,3.55-3.99,5.31
			c-0.96,1.26-1.87,2.58-3.02,3.68c-1.36,1.29-2.98,2.3-4.19,3.76c-0.13,0.16-0.32,0.26-0.5,0.37c-0.53,0.32-0.88,0.79-1.24,1.3
			c-0.38,0.54-0.53,1.17-0.87,1.72c-0.74,1.16-1.71,2.09-2.75,2.98c-0.82,0.71-1.32,1.59-1.08,2.71c0.08,0.4-0.01,0.61-0.26,0.92
			c-0.66,0.82-0.93,1.77-0.48,2.8c0.41,0.92,1.29,1.41,2.39,1.37c0.23-0.01,0.45-0.06,0.68,0.05c1.87,0.96,3.6,0.45,5.17-0.66
			c1.47-1.04,2.62-2.38,3.18-4.16c0.08-0.25,0.09-0.6,0.5-0.63c0.53-0.04,0.86-0.4,1.16-0.78c0.32-0.42,0.66-0.81,1.09-1.12
			c1.36-1,2.49-2.22,3.64-3.43c1.2-1.28,2.44-2.51,3.86-3.56c3.14-2.32,6.39-4.47,9.42-6.95c2.7-2.21,4.99-4.73,6.82-7.7
			c0.96-1.56,1.89-3.15,3.09-4.56c0.9-1.05,2.08-1.66,3.37-1.72c1.38-0.06,2.75-0.31,4.11-0.3c2.31,0.02,4.65-0.13,6.94,0.2
			c3.59,0.52,7.16,1.1,10.81,1.23c2.59,0.09,5.18-0.03,7.76,0.01c4.68,0.07,9.34,0.38,13.88,1.68c1.45,0.41,2.95,0.48,4.47,0.46
			c2.34-0.03,4.62,0.3,6.74,1.4c0.83,0.43,1.7,0.8,2.57,1.15c2.91,1.17,5.98,1.82,8.99,2.68c2.57,0.73,5.13,1.48,7.81,1.72
			c3.54,0.31,6.86,1.28,9.94,3.13c3.44,2.07,6.68,4.35,9.18,7.56c0.59,0.76,1.01,1.57,1.07,2.55c0.05,0.73,0.09,1.47,0.23,2.18
			c0.22,1.12,0.49,2.26,1.72,2.72c1.6,0.6,3.22,0.65,4.84,0.03c0.34-0.13,0.68-0.32,0.82-0.65c0.19-0.44,0.56-0.64,0.91-0.89
			c1.52-1.05,2.07-2.67,1.42-4.1c-0.02-0.05-0.07-0.12-0.06-0.13c0.06-0.07,0.13-0.04,0.19,0.01c0.12,0.02,0.25,0.04,0.37,0.06
			c1.44,0.26,2.09-0.05,2.77-1.34c0.08-0.14,0.16-0.22,0.32-0.25c1.2-0.26,1.91-1.11,2.16-2.2c0.23-1.05,0.06-2.18,0.45-3.23
			c0.01-0.04-0.01-0.08-0.01-0.12c0.01-1.97-1.03-3.32-2.58-4.38c-0.95-0.65-1.99-1.14-2.99-1.7c-0.46-0.26-0.93-0.52-1.3-0.97
			c0.12-0.06,0.18-0.1,0.23-0.1c2.14-0.25,4.24-0.7,6.28-1.42c1.83-0.64,3.63-1.34,4.79-3.02
			C244.27,162.87,244.35,159.99,241.64,156.6z M225.57,165.51c-0.18,0.24-0.43,0.02-0.61-0.09c-0.62-0.36-1.1-0.89-1.6-1.4
			c-3.06-3.16-5.98-6.45-9.18-9.5c-2.11-2.01-3.74-4.5-4.44-7.44c-0.23-0.95-0.34-1.94,0.07-2.91c2.16,1.4,4.01,3.17,6.12,4.61
			c2.14,1.46,4.37,2.77,6.63,4.05c1.87,1.06,3.75,2.12,5.5,3.36c1.19,0.85,2.21,1.9,2.69,3.37c0.57,1.74-0.39,3.72-2.1,4.3
			C227.53,164.23,226.33,164.46,225.57,165.51z"/>
		<g>
			<path class="st0" d="M43.82,186.88c-1.38,0.98-2.92,1.81-4.44,2.58c-1.07,0.56-2.83,1.24-3.71-0.01
				c-0.39-0.56-0.45-1.35-0.1-1.93c-1.19-0.12-2.31-0.76-3-1.74c-1.24-1.75-1.01-4.15,0.79-5.43c2.38-1.68,5.6-1.13,7.28,1.24
				c0.22,0.31,0.43,0.66,0.57,1.03c0.6-0.42,0.53-0.91,0.13-1.46c-0.79-1.11-1.98-2.6-0.42-3.7c1.78-1.26,3.74,0.01,4.83,1.55
				C47.89,182.03,46.58,184.93,43.82,186.88z M37.72,184.43c0.4-0.28,0.69-0.62,0.36-1.09c-0.38-0.53-0.97-0.28-1.39,0.02
				c-0.44,0.31-0.68,0.65-0.31,1.16C36.76,185.05,37.3,184.73,37.72,184.43z"/>
			<path class="st0" d="M55.62,195.61c-0.38,0.58-0.83,1.09-1.29,1.56c-2.45,2.52-5.67,3.6-8.5,0.84c-0.47-0.46-0.86-0.99-1.14-1.6
				l-2.36,2.15c-0.87,0.82-1.79,1.26-2.81,0.27c-0.47-0.46-1.17-1.37-1.22-2.06c-0.09-1.31,2.91-4.31,3.88-5.31
				c1.69-1.74,3.52-3.38,5.4-4.88c1.14-0.9,2.7-1.21,3.83-0.11c0.64,0.63,0.94,1.49,0.26,2.23c1.19-0.29,2.49,0.41,3.33,1.23
				C56.59,191.46,56.75,193.75,55.62,195.61z M50.48,194.37c0.38-0.39,0.91-1.36,0.4-1.85c-0.55-0.53-1.73,0.06-2.17,0.51
				c-0.4,0.41-0.93,1.3-0.42,1.8C48.92,195.43,49.99,194.87,50.48,194.37z"/>
			<path class="st0" d="M67.12,203.88c-0.28,0.63-0.66,1.2-1.03,1.74c-2.03,2.86-5.05,4.43-8.27,2.14c-0.53-0.38-1-0.85-1.37-1.41
				l-2,2.49c-0.74,0.94-1.58,1.52-2.73,0.7c-0.53-0.38-1.37-1.17-1.52-1.85c-0.29-1.28,2.21-4.71,3.01-5.84
				c1.4-1.98,2.96-3.88,4.59-5.66c0.99-1.07,2.48-1.61,3.77-0.7c0.73,0.52,1.16,1.33,0.6,2.16c1.13-0.46,2.52,0.02,3.48,0.7
				C67.44,199.63,67.96,201.87,67.12,203.88z M61.86,203.45c0.32-0.44,0.69-1.48,0.11-1.89c-0.62-0.44-1.7,0.33-2.06,0.84
				c-0.33,0.47-0.71,1.43-0.14,1.84C60.48,204.73,61.45,204.02,61.86,203.45z"/>
			<path class="st0" d="M78.49,209.57c-0.64,1.17-2.21,1.89-3.45,1.22c-0.81-0.44-1.13-1.39-1.9-1.81
				c-0.72-0.39-1.25-0.03-1.68,0.57c-1.06,1.5-1.95,3.12-2.94,4.66c-0.73,1.12-1.82,1.64-3.07,0.96c-0.41-0.22-0.93-0.69-1.03-1.18
				c-0.25-1.25,1.41-4.19,2.05-5.36c0.99-1.82,2.11-3.59,3.4-5.21c0.8-1.02,1.61-1.36,2.78-0.72c1.22,0.66,1.26,1.21,0.62,2.38
				l-0.09,0.17c1.19-0.37,2.55-0.19,3.65,0.41C78.2,206.4,79.33,208.04,78.49,209.57z"/>
			<path class="st0" d="M89.14,218.59c-1.37,3.26-4.92,5.73-8.45,4.24s-4.35-5.81-2.96-9.1c1.33-3.16,5.01-5.8,8.5-4.34
				C89.86,210.92,90.54,215.28,89.14,218.59z M84.25,216.27c0.17-0.4,0.6-1.64,0-1.89c-0.75-0.32-1.4,1.09-1.63,1.62
				c-0.2,0.48-0.6,1.49,0.1,1.79C83.45,218.09,84.03,216.79,84.25,216.27z"/>
			<path class="st0" d="M101.78,221.08c-0.51,1.61-1.25,3.2-1.99,4.74c-0.52,1.09-1.51,2.69-2.96,2.23
				c-0.65-0.21-1.17-0.8-1.24-1.48c-1.02,0.62-2.3,0.78-3.45,0.42c-2.05-0.65-3.31-2.71-2.64-4.81c0.88-2.78,3.79-4.28,6.56-3.4
				c0.36,0.12,0.74,0.27,1.07,0.48c0.22-0.7-0.13-1.04-0.77-1.25c-1.3-0.41-3.15-0.89-2.57-2.7c0.66-2.07,3-2.24,4.79-1.68
				C102.1,214.75,102.8,217.86,101.78,221.08z M95.43,222.8c0.15-0.47,0.18-0.92-0.37-1.09c-0.62-0.2-0.94,0.36-1.1,0.85
				c-0.17,0.52-0.15,0.92,0.45,1.11C95.03,223.87,95.27,223.29,95.43,222.8z"/>
			<path class="st0" d="M113.2,228.08c-0.68,2.94-4.15,3.42-6.61,2.85c-3.66-0.85-4.56-3.8-3.77-7.19c0.85-3.66,4.46-7.29,8.49-6.35
				c2.52,0.59,3.8,2.9,3.22,5.36c-0.27,1.14-1.07,1.85-2.29,1.56c-1.33-0.31-0.9-1.55-1.82-1.77c-1.27-0.3-2.33,1.86-2.56,2.84
				c-0.13,0.56-0.16,1.3,0.55,1.47c1.17,0.27,1.9-1.57,3.68-1.16C113.19,225.95,113.43,227.1,113.2,228.08z"/>
			<path class="st0" d="M126.28,222.22c1.31,1.52,0.63,6.65,0.32,8.62c-0.3,1.94-1.31,3.65-3.57,3.3c-1-0.15-1.51-0.73-1.41-1.76
				c0.1-1.03,0.24-2.08,0.4-3.13c0.1-0.65,0.56-2.94-0.4-3.09c-0.97-0.15-1.28,1.84-1.38,2.49c-0.27,1.78-0.14,5.02-2.86,4.6
				c-0.94-0.15-1.57-0.68-1.82-1.6c-0.38-1.46,0.63-8.16,0.9-9.94c0.22-1.4,0.43-2.8,0.73-4.18c0.24-1.2,1.28-1.48,2.35-1.32
				c0.32,0.05,0.64,0.15,0.92,0.28c1.59,0.74,0.89,4.6,0.71,5.95c0.97-0.73,2.18-1.26,3.41-1.07
				C125.25,221.46,125.87,221.72,126.28,222.22z"/>
			<path class="st0" d="M155.38,225.65c-0.06,3.16-1.23,10.4-5.51,10.32c-3.16-0.06-2.91-4.63-3.97-4.65
				c-1.39-0.03-0.99,4.69-4.23,4.63c-0.73-0.01-1.55-0.3-2-0.88c-1.73-2.21-2.67-7.18-2.61-9.98c0.03-1.41,0.21-3.94,2.2-3.9
				c3.37,0.06,2.41,6.2,3.91,6.23c1.06,0.02,0.86-5.1,3.58-5.05c2.42,0.05,2.05,5.07,3.28,5.1c1.17,0.02,1.04-5.91,3.57-5.86
				C155.43,221.62,155.4,224.37,155.38,225.65z"/>
			<path class="st0" d="M161.35,222.17c0.49,1.04,0.64,3.46,0.7,4.65c0.07,1.33,0.03,2.67,0.01,4c-0.03,1.47-0.22,4.75-2.29,4.86
				c-2.15,0.11-2.39-3.56-2.46-5.02c-0.09-1.77-0.23-6.58,0.27-8.14c0.28-0.83,1.05-1.28,1.89-1.32
				C160.21,221.17,161.01,221.46,161.35,222.17z M157.23,217.94c-0.06-1.14,0.59-2.29,1.84-2.36c1.25-0.06,2.2,0.98,2.26,2.17
				c0.06,1.17-0.78,2.3-2.01,2.36C158.08,220.19,157.29,219.11,157.23,217.94z"/>
			<path class="st0" d="M173.39,231.6c0.18,1.84-1.53,3.08-3.18,3.24c-4.2,0.41-4.58-3.74-4.88-6.83c-0.09-0.89-0.15-1.79-0.18-2.66
				c-0.93-0.02-1.81-0.04-1.92-1.18c-0.09-0.89,0.2-1.58,1.17-1.75c0.89-0.14,0.99,0.01,0.89-1.02c-0.15-1.54-0.49-3.29,1.65-3.5
				c2.25-0.22,2.3,1.72,2.48,3.51l0.02,0.24c0.08,0.79,2.21-0.38,2.39,1.49c0.12,1.19-0.91,1.57-1.88,1.72
				c-0.57,0.08-0.51,0.1-0.48,0.68c0.07,0.7,0.11,1.38,0.18,2.09c0.05,0.54,0.23,2.9,0.96,2.83c0.35-0.03,0.68-0.34,1.08-0.38
				C172.63,229.98,173.3,230.68,173.39,231.6z"/>
			<path class="st0" d="M183.47,220.63c1.72,1.04,2.66,6.13,2.99,8.09c0.32,1.93-0.11,3.88-2.36,4.25
				c-0.99,0.16-1.66-0.22-1.89-1.23c-0.22-1.01-0.42-2.05-0.59-3.1c-0.11-0.64-0.38-2.97-1.35-2.81c-0.97,0.16-0.64,2.15-0.53,2.79
				c0.29,1.77,1.43,4.81-1.28,5.26c-0.94,0.15-1.71-0.16-2.23-0.96c-0.82-1.27-1.95-7.95-2.24-9.73c-0.23-1.4-0.46-2.79-0.61-4.2
				c-0.15-1.22,0.75-1.81,1.82-1.98c0.32-0.05,0.65-0.05,0.96-0.02c1.74,0.21,2.27,4.09,2.52,5.43c0.69-1,1.68-1.88,2.91-2.08
				C182.25,220.23,182.92,220.28,183.47,220.63z"/>
			<path class="st0" d="M206.92,222.69c0.86,2.89-1.91,5.03-4.33,5.75c-3.6,1.07-5.85-1.04-6.84-4.38c-1.07-3.6,0.27-8.54,4.23-9.72
				c2.48-0.74,4.73,0.63,5.46,3.06c0.33,1.12-0.02,2.13-1.22,2.49c-1.3,0.39-1.55-0.9-2.46-0.63c-1.25,0.37-1.1,2.77-0.82,3.74
				c0.16,0.55,0.5,1.21,1.21,1c1.15-0.34,0.87-2.3,2.62-2.83C205.86,220.84,206.63,221.72,206.92,222.69z"/>
			<path class="st0" d="M217.73,214.08c0.62,1.57,1.05,3.27,1.44,4.93c0.29,1.17,0.52,3.04-0.9,3.6c-0.63,0.25-1.42,0.12-1.9-0.37
				c-0.41,1.12-1.3,2.06-2.41,2.5c-2,0.79-4.28-0.02-5.08-2.07c-1.06-2.71,0.24-5.71,2.96-6.77c0.35-0.14,0.74-0.26,1.14-0.3
				c-0.27-0.68-0.75-0.73-1.39-0.48c-1.27,0.5-3,1.29-3.7-0.48c-0.8-2.03,0.91-3.63,2.66-4.32
				C213.99,208.97,216.49,210.94,217.73,214.08z M213.89,219.42c-0.18-0.46-0.44-0.82-0.97-0.61c-0.61,0.24-0.51,0.87-0.32,1.35
				c0.2,0.51,0.46,0.81,1.05,0.58C214.25,220.51,214.08,219.9,213.89,219.42z"/>
			<path class="st0" d="M229.86,207.04c0.69,1.36,3.51,7.1,3.1,8.38c-0.16,0.57-0.67,0.96-1.18,1.22c-0.68,0.35-1.81,0.47-2.23-0.36
				l-0.06-0.12c0,1.13-0.78,2.05-1.75,2.55c-3.68,1.89-6.68-1.93-8.15-4.81c-1.03-2.01-2.63-5.84,0.09-7.23
				c1.53-0.78,2.32-0.12,3.01,1.21c0.55,1.07,0.95,2.21,1.51,3.29c0.3,0.58,0.96,1.99,1.8,1.55c0.17-0.09,0.31-0.22,0.36-0.43
				c0.32-1.35-4.11-7.01-0.82-8.69C227.83,202.42,229.06,205.49,229.86,207.04z"/>
			<path class="st0" d="M242.47,206.54c1.01,1.55,0.06,3.44-1.33,4.34c-3.53,2.3-5.79-1.2-7.48-3.8c-0.49-0.75-0.96-1.52-1.39-2.28
				c-0.83,0.41-1.62,0.8-2.25-0.16c-0.49-0.75-0.55-1.49,0.22-2.1c0.72-0.54,0.88-0.44,0.32-1.31c-0.85-1.3-1.95-2.69-0.15-3.87
				c1.89-1.23,2.83,0.46,3.82,1.97l0.13,0.21c0.43,0.66,1.78-1.36,2.81,0.22c0.65,1-0.09,1.81-0.88,2.39
				c-0.46,0.34-0.4,0.33-0.11,0.82c0.39,0.59,0.74,1.18,1.12,1.77c0.3,0.46,1.54,2.47,2.16,2.07c0.3-0.19,0.44-0.62,0.79-0.84
				C241.05,205.46,241.97,205.77,242.47,206.54z"/>
			<path class="st0" d="M235.37,193.21c-0.7-0.9-0.83-2.22,0.16-2.99c0.99-0.77,2.36-0.46,3.1,0.48c0.72,0.92,0.68,2.33-0.29,3.09
				C237.36,194.56,236.09,194.13,235.37,193.21z M241.17,194.32c0.99,0.57,2.5,2.46,3.24,3.41c0.82,1.05,1.55,2.17,2.31,3.27
				c0.82,1.23,2.54,4.02,0.91,5.29c-1.7,1.32-3.99-1.55-4.9-2.71c-1.09-1.4-3.96-5.26-4.44-6.82c-0.24-0.84,0.13-1.65,0.79-2.17
				C239.66,194.15,240.48,193.92,241.17,194.32z"/>
			<path class="st0" d="M255.88,189.29c2.48,2.53,3.38,6.75,0.64,9.44c-2.74,2.69-7.04,1.76-9.54-0.79
				c-2.4-2.45-3.42-6.87-0.71-9.52C249.08,185.67,253.37,186.73,255.88,189.29z M251.84,192.91c-0.31-0.31-1.28-1.19-1.74-0.73
				c-0.58,0.57,0.46,1.72,0.86,2.13c0.36,0.37,1.14,1.13,1.69,0.59C253.21,194.35,252.24,193.32,251.84,192.91z"/>
			<path class="st0" d="M259.09,175.4c2.1,0.07,4.31,1.67,6.01,2.85c1.54,1.07,5.09,3.17,3.47,5.49c-1.04,1.5-2.13,1.54-3.67,0.56
				c-1.08-0.65-2.09-1.42-3.19-2.08c-0.42-0.26-1-0.46-1.36,0.05c-1.26,1.81,7.04,3.27,4.31,7.2c-1.51,2.17-2.31,1.71-4.35,0.3
				c-1.43-0.99-2.82-2.05-4.21-3.05c-1.71-1.22-4.02-3.13-3.13-5.52c0.05-0.16,0.14-0.34,0.24-0.49c0.84-1.21,1.93-0.39,2.91,0.06
				c-0.58-1.36-1.08-2.6-0.13-3.97C256.68,175.82,257.93,175.36,259.09,175.4z"/>
		</g>
		<g>
			<path class="st0" d="M48.72,119.66c1.37,0.88,1.33,1.96,0.51,3.24c-1.03,1.6-2.2,3.12-3.28,4.69c-0.65,0.91-1.43,1.41-2.48,0.74
				c-0.94-0.6-1.21-1.85-0.6-2.78l0.13-0.21c-3-2.03-6-4.05-9.05-6.01c-0.48-0.31-0.76,0.32-1.09,0.53
				c-0.53,0.37-1.79-0.08-2.27-0.39c-0.96-0.62-0.63-1.54-0.1-2.36c0.82-1.38,1.6-2.79,2.47-4.14c0.65-1.01,1.69-1.92,2.9-1.14
				c0.64,0.41,0.92,1.24,0.68,1.96c-0.07,0.15-0.15,0.29-0.14,0.46c0.01,0.29,0.29,0.51,0.52,0.66c3.07,1.97,6.14,3.95,9.1,6.08
				C46.65,120.01,47.48,118.86,48.72,119.66z"/>
			<path class="st0" d="M41.49,107.4c0.77,0.65,2.7,2.83,1.83,3.88c-0.91,1.08-4.5-0.4-5.39-1.15c-0.92-0.77-1.04-1.94-0.27-2.86
				C38.74,105.98,40.37,106.46,41.49,107.4z"/>
			<path class="st0" d="M58.37,95.41c1.2,0.4,4.12,3.75,5,4.78c0.87,1.01,1.74,2.02,2.52,3.11c0.96,1.33,0.49,2.45-0.69,3.46
				c-1.28,1.1-2.39,0.94-3.47-0.32c-1.05-1.22-1.89-2.58-2.93-3.79c-0.28-0.33-0.68-0.42-1.03-0.12c-0.27,0.23-0.37,0.61-0.21,0.93
				c0.92,1.58,2.23,2.97,3.25,4.45c0.68,1,0.53,1.95-0.38,2.73c-1.55,1.33-2.78,0.73-3.95-0.63c-0.51-0.6-2.94-3.97-3.68-3.33
				c-0.64,0.55,0.86,2.21,1.19,2.6c0.87,1.01,2.52,2.6,2.63,3.98c0.06,0.7-0.7,1.39-1.2,1.82c-1.18,1.01-1.95,1.32-3.31,0.15
				c-0.94-0.81-1.84-1.72-2.65-2.67c-1.29-1.51-3.7-4.68-3.7-6.69c-0.01-0.64,0.17-1.47,0.67-1.9c1.3-1.12,1.9-0.34,3.08,0.41
				c-0.45-1.23-0.15-3.1,0.88-3.99c1.05-0.9,2.63-1.07,3.85-0.36c-0.21-1.54-0.17-2.79,1.11-3.89
				C56.19,95.42,57.29,95.08,58.37,95.41z"/>
			<path class="st0" d="M78.34,84.75c1.82,1.06,3.01,3.51,3.95,5.35c0.85,1.67,2.99,5.2,0.47,6.48c-1.62,0.83-2.6,0.35-3.5-1.24
				c-0.64-1.08-1.17-2.24-1.83-3.35c-0.25-0.42-0.66-0.88-1.22-0.6c-1.96,1,4.66,6.21,0.4,8.38c-2.35,1.2-2.85,0.41-3.97-1.79
				c-0.79-1.55-1.51-3.14-2.27-4.68c-0.93-1.88-2.07-4.66-0.15-6.34c0.12-0.12,0.28-0.23,0.45-0.32c1.31-0.67,1.88,0.57,2.53,1.43
				c0.13-1.47,0.28-2.8,1.76-3.56C76.02,83.98,77.34,84.16,78.34,84.75z"/>
			<path class="st0" d="M94.63,84.18c1.27,3.3,0.43,7.54-3.16,8.92c-3.58,1.38-7.16-1.18-8.44-4.5c-1.23-3.2-0.41-7.66,3.12-9.02
				C89.83,78.15,93.34,80.83,94.63,84.18z M89.49,85.9c-0.16-0.41-0.7-1.6-1.31-1.36c-0.76,0.29-0.26,1.76-0.05,2.29
				c0.19,0.48,0.6,1.49,1.31,1.21C90.18,87.76,89.7,86.43,89.49,85.9z"/>
			<path class="st0" d="M105.69,85.2c0.52,1.78-0.92,3.31-2.52,3.78c-4.05,1.2-5.2-2.81-6.08-5.78c-0.25-0.86-0.48-1.73-0.68-2.58
				c-0.92,0.16-1.78,0.3-2.11-0.8c-0.25-0.86-0.1-1.59,0.82-1.94c0.85-0.31,0.97-0.17,0.68-1.17c-0.44-1.49-1.1-3.14,0.96-3.75
				c2.17-0.64,2.58,1.25,3.09,2.97l0.07,0.23c0.22,0.76,2.09-0.79,2.63,1.01c0.34,1.15-0.6,1.71-1.53,2.04
				c-0.54,0.19-0.48,0.2-0.34,0.75c0.2,0.68,0.37,1.34,0.57,2.02c0.15,0.52,0.77,2.81,1.48,2.6c0.34-0.1,0.6-0.46,0.99-0.58
				C104.64,83.75,105.43,84.31,105.69,85.2z"/>
			<path class="st0" d="M112.12,68.5c-0.21-1.12,0.28-2.35,1.51-2.58c1.23-0.23,2.31,0.67,2.54,1.85c0.22,1.15-0.47,2.39-1.67,2.61
				C113.27,70.62,112.34,69.65,112.12,68.5z M116.77,72.15c0.62,0.96,1.1,3.34,1.32,4.52c0.25,1.31,0.39,2.64,0.55,3.97
				c0.16,1.46,0.42,4.74-1.61,5.12c-2.11,0.4-2.85-3.2-3.12-4.65c-0.33-1.74-1.11-6.49-0.83-8.1c0.17-0.86,0.87-1.41,1.7-1.57
				C115.5,71.3,116.34,71.48,116.77,72.15z"/>
			<path class="st0" d="M130.45,71.06c1.36,1.61,1.65,4.32,1.91,6.37c0.24,1.86,1.05,5.9-1.76,6.26c-1.81,0.23-2.57-0.55-2.88-2.35
				c-0.24-1.23-0.35-2.51-0.59-3.77c-0.09-0.48-0.33-1.06-0.95-0.98c-2.19,0.28,2.29,7.42-2.47,8.02c-2.62,0.33-2.82-0.58-3.13-3.03
				c-0.22-1.73-0.36-3.47-0.55-5.17c-0.24-2.08-0.37-5.08,2.01-6.02c0.16-0.07,0.34-0.13,0.53-0.15c1.46-0.19,1.58,1.17,1.9,2.2
				c0.63-1.34,1.21-2.54,2.86-2.75C128.53,69.55,129.71,70.17,130.45,71.06z"/>
			<path class="st0" d="M150.82,79.76c0.03,1.85-1.78,2.94-3.44,2.97c-4.22,0.07-4.26-4.09-4.31-7.2c-0.01-0.9,0-1.8,0.04-2.67
				c-0.93-0.09-1.8-0.19-1.82-1.33c-0.01-0.9,0.33-1.56,1.31-1.65c0.9-0.07,0.98,0.09,0.96-0.94c-0.03-1.55-0.22-3.32,1.93-3.35
				c2.26-0.04,2.15,1.9,2.18,3.69l0,0.24c0.01,0.79,2.23-0.2,2.26,1.68c0.02,1.2-1.04,1.49-2.02,1.56
				c-0.57,0.04-0.52,0.06-0.53,0.63c0.01,0.71,0,1.39,0.01,2.1c0.01,0.54-0.01,2.91,0.73,2.9c0.35-0.01,0.7-0.28,1.11-0.29
				C150.19,78.09,150.8,78.84,150.82,79.76z"/>
			<path class="st0" d="M162.11,70.92c1.46,1.37,1.34,6.54,1.25,8.53c-0.09,1.96-0.91,3.77-3.19,3.67c-1.01-0.05-1.58-0.56-1.59-1.6
				c-0.01-1.04,0.01-2.1,0.06-3.16c0.03-0.65,0.24-2.99-0.73-3.03c-0.98-0.04-1.07,1.97-1.1,2.62c-0.08,1.79,0.4,5-2.35,4.88
				c-0.95-0.04-1.64-0.51-1.98-1.4c-0.53-1.41-0.25-8.18-0.17-9.98c0.06-1.41,0.13-2.83,0.27-4.24c0.11-1.22,1.11-1.61,2.2-1.56
				c0.33,0.01,0.65,0.08,0.95,0.18c1.66,0.57,1.38,4.48,1.34,5.84c0.88-0.83,2.03-1.49,3.28-1.43
				C161,70.27,161.64,70.47,162.11,70.92z"/>
			<path class="st0" d="M175.05,80.58c-0.01,0.11-0.02,0.22-0.06,0.32c-0.92,2.3-2.99,3.36-5.37,3.08c-3.7-0.42-5.29-3.54-4.9-7
				c0.42-3.68,3.08-7.73,7.24-7.25c2.46,0.28,3.91,2.2,3.63,4.66c-0.28,2.43-2.39,4.57-4.93,4.28c-0.57-0.07-1-0.33-1.1,0.5
				c-0.07,0.62,0.18,1.53,0.94,1.61c1.6,0.18,1.38-1.98,3.05-1.79C174.37,79.1,175.15,79.69,175.05,80.58z M170.18,74.57
				c-0.04,0.32,0.01,0.88,0.41,0.92c0.57,0.07,1.05-1.06,1.1-1.49c0.03-0.3,0.01-0.82-0.39-0.87
				C170.71,73.07,170.23,74.08,170.18,74.57z"/>
			<path class="st0" d="M203.54,77.63c0.36,1.22-0.73,5.52-1.08,6.83c-0.34,1.29-0.67,2.58-1.11,3.84c-0.54,1.55-1.73,1.8-3.23,1.41
				c-1.63-0.42-2.13-1.43-1.71-3.03c0.4-1.55,1.04-3.02,1.44-4.57c0.11-0.42-0.04-0.8-0.49-0.92c-0.34-0.09-0.71,0.04-0.88,0.36
				c-0.77,1.66-1.17,3.52-1.81,5.21c-0.43,1.12-1.3,1.55-2.46,1.24c-1.98-0.51-2.19-1.86-1.73-3.6c0.2-0.76,1.58-4.68,0.63-4.92
				c-0.82-0.21-1.33,1.96-1.46,2.46c-0.34,1.29-0.7,3.56-1.77,4.43c-0.54,0.45-1.55,0.22-2.18,0.05c-1.5-0.39-2.2-0.85-2.01-2.63
				c0.12-1.23,0.37-2.49,0.68-3.7c0.5-1.92,1.74-5.71,3.39-6.85c0.52-0.37,1.31-0.7,1.94-0.54c1.66,0.43,1.36,1.37,1.42,2.76
				c0.76-1.07,2.46-1.89,3.78-1.55c1.34,0.35,2.38,1.55,2.49,2.95c1.15-1.05,2.19-1.73,3.83-1.31
				C202.29,75.84,203.2,76.55,203.54,77.63z"/>
			<path class="st0" d="M215.51,88.61c-1.26,3.3-4.73,5.88-8.31,4.51c-3.58-1.37-4.53-5.67-3.26-9c1.22-3.2,4.82-5.97,8.35-4.61
				C215.98,80.92,216.8,85.25,215.51,88.61z M210.54,86.44c0.16-0.41,0.55-1.66-0.06-1.89c-0.76-0.29-1.37,1.14-1.57,1.67
				c-0.18,0.48-0.55,1.51,0.16,1.78C209.81,88.29,210.34,86.98,210.54,86.44z"/>
			<path class="st0" d="M227.62,94.61c-1.59,3.16-5.3,5.38-8.73,3.66c-3.43-1.72-3.94-6.1-2.34-9.28c1.54-3.06,5.39-5.45,8.77-3.75
				C228.86,87.01,229.24,91.4,227.62,94.61z M222.89,91.96c0.2-0.39,0.71-1.59,0.13-1.89c-0.73-0.37-1.48,1-1.73,1.51
				c-0.23,0.46-0.7,1.45-0.02,1.79C221.98,93.72,222.64,92.47,222.89,91.96z"/>
			<path class="st0" d="M242.3,95.82c-0.67,1.22-1.39,2.41-2.15,3.57c-1.09,1.66-2.27,3.26-3.57,4.79
				c-1.13,1.37-2.71,2.84-4.56,1.63c-0.64-0.42-1.3-1.34-0.85-2.12c-0.84,0.23-1.74,0.03-2.47-0.45c-2.66-1.75-1.81-5.52-0.33-7.77
				c1.58-2.41,4.98-4.71,7.8-2.85c0.52,0.34,0.96,0.82,1.21,1.38c1.04-1.14,3.26-3.03,4.9-1.96
				C243.65,92.93,242.9,94.72,242.3,95.82z M234.43,98.63c0.36-0.55,0.7-1.56,0.02-2.01c-0.73-0.48-1.76,0.6-2.12,1.15
				c-0.36,0.55-0.65,1.33,0.03,1.78C233.11,100.04,234.04,99.22,234.43,98.63z"/>
			<path class="st0" d="M256.51,112.8c-0.96,0.92-2.68,1.14-3.66,0.12c-0.64-0.67-0.66-1.67-1.26-2.3
				c-0.57-0.59-1.19-0.41-1.77,0.04c-1.47,1.11-2.8,2.39-4.21,3.55c-1.04,0.85-2.23,1.01-3.21-0.01c-0.32-0.33-0.67-0.94-0.63-1.44
				c0.14-1.27,2.61-3.57,3.57-4.49c1.49-1.43,3.1-2.79,4.81-3.94c1.07-0.73,1.94-0.81,2.86,0.15c0.96,1,0.83,1.54-0.13,2.46
				l-0.14,0.13c1.25,0.01,2.49,0.59,3.36,1.49C257.18,109.7,257.76,111.6,256.51,112.8z"/>
			<path class="st0" d="M264.88,122.6c-0.85,1.93-3.15,3.38-4.88,4.51c-1.57,1.03-4.84,3.54-6.39,1.17c-1-1.52-0.63-2.55,0.85-3.62
				c1-0.76,2.1-1.41,3.12-2.18c0.39-0.29,0.81-0.76,0.46-1.28c-1.21-1.84-5.66,5.32-8.29,1.31c-1.45-2.21-0.72-2.78,1.35-4.14
				c1.46-0.96,2.96-1.85,4.4-2.77c1.77-1.13,4.4-2.57,6.29-0.84c0.14,0.11,0.26,0.25,0.37,0.41c0.81,1.23-0.36,1.93-1.14,2.67
				c1.48-0.03,2.82-0.03,3.73,1.36C265.4,120.21,265.36,121.54,264.88,122.6z"/>
		</g>
		<path class="st0" d="M269.89,152.93c0.65-1.37,0.8-2.89,1.2-4.33c0.26-0.92,0.75-1.83,0.15-2.8c-0.01-0.02-0.01-0.04-0.01-0.06
			c-0.02-0.26,0.07-0.64-0.07-0.77c-0.2-0.18-0.54,0.06-0.83,0.06c-0.08,0-0.17,0.02-0.25,0.03c-2.48,0.17-3.68-1.46-2.76-3.76
			c0.05-0.14,0.11-0.27,0.2-0.39c0.23-0.32,0.19-0.49-0.18-0.72c-1.18-0.73-2.18-1.76-2.16-3.18c0.02-1.12-0.24-2.03-0.67-3.01
			c-0.63-1.45-0.14-3.07,1-3.8c0.35-0.23,0.46-0.44,0.42-0.85c-0.2-1.91,0.79-2.54,2.47-2.72c1.01-0.11,1.92,0.3,2.82,0.71
			c1.34,0.62,2.18,1.79,3.15,2.82c0.84,0.88,1.7,1.67,3.05,1.73c0.74,0.03,1.45,0.36,2.22,0.23c1.49-0.26,2.83,0.27,4.05,1
			c2.17,1.3,2.89,3.37,2.19,5.96c-0.12,0.44-0.07,0.73,0.29,1.03c1.38,1.18,2.76,2.36,3.86,3.82c1.37,1.82,1.75,3.86,1.15,6.04
			c-0.36,1.3-1.53,1.69-2.67,0.98c-0.15-0.1-0.3-0.2-0.49-0.33c-0.12,0.42-0.2,0.81-0.33,1.17c-0.46,1.26-1.65,1.88-2.84,1.46
			c-0.61-0.21-1.08-0.63-1.38-1.21c-0.11-0.22-0.17-0.38-0.49-0.19c-0.73,0.43-1.45,0.3-2.1-0.2c-0.59-0.45-1.09-1-1.41-1.68
			c-1.51,0.77-2.31,0.4-3.54-1.6c-0.32,0.53-0.51,1.1-0.7,1.67c-1.01,3.09-1.78,6.28-3.48,9.1c-1.1,1.82-2.43,3.45-4.42,4.37
			c-0.15,0.07-0.24,0.14-0.27,0.3c-0.1,0.44-0.21,0.88-0.32,1.32c0.23,0.11,0.43,0.01,0.63-0.02c1.19-0.18,2.38-0.15,3.56-0.03
			c2.43,0.24,4.7-0.13,6.73-1.57c0.32-0.23,0.68-0.4,1.03-0.11c0.38,0.31,0.15,0.69,0.01,1.03c-0.66,1.63-1.67,3.04-2.91,4.27
			c-2.36,2.34-5.12,3.84-8.53,3.96c-2.18,0.07-4.34-0.1-6.5-0.28c-0.54-0.04-1.03-0.02-1.52,0.22c-0.39,0.19-0.81,0.33-1.24,0.44
			c-0.47,0.12-0.92-0.09-1.27-0.37c-0.26-0.21-0.06-0.51,0.12-0.72c1.58-1.79,2.14-4,2.41-6.27c0.32-2.67,0.04-5.34-0.21-8
			c-0.26-2.68-0.08-5.3,1.04-7.79c0.72-1.61,1.7-3.07,2.69-4.51c0.45-0.66,0.78-1.37,1.03-2.13c0.21-0.64,0.25-1.31,0.44-1.95
			c0.09-0.32,0.25-0.66,0.68-0.6c0.36,0.06,0.47,0.34,0.52,0.69c0.34,2.88,0.61,5.77,1.17,8.63c0.39,2,0.67,4.03,1.01,6.14
			C268.73,155.24,269.33,154.1,269.89,152.93z"/>
		<path class="st0" d="M32.34,156.16c0.34-2.11,0.62-4.13,1.01-6.14c0.56-2.85,0.83-5.74,1.17-8.63c0.04-0.35,0.15-0.63,0.52-0.69
			c0.43-0.07,0.59,0.28,0.68,0.6c0.18,0.64,0.22,1.31,0.44,1.95c0.25,0.76,0.58,1.47,1.03,2.13c1,1.45,1.97,2.91,2.69,4.51
			c1.12,2.49,1.3,5.11,1.04,7.79c-0.25,2.66-0.53,5.33-0.21,8c0.27,2.28,0.83,4.48,2.41,6.27c0.18,0.2,0.38,0.51,0.12,0.72
			c-0.35,0.28-0.79,0.48-1.27,0.37c-0.42-0.1-0.85-0.25-1.24-0.44c-0.49-0.24-0.98-0.26-1.52-0.22c-2.16,0.18-4.33,0.35-6.5,0.28
			c-3.41-0.11-6.18-1.61-8.53-3.96c-1.24-1.23-2.25-2.64-2.91-4.27c-0.14-0.35-0.36-0.72,0.01-1.03c0.35-0.29,0.71-0.12,1.03,0.11
			c2.03,1.45,4.3,1.81,6.73,1.57c1.18-0.11,2.38-0.15,3.56,0.03c0.2,0.03,0.4,0.12,0.63,0.02c-0.11-0.44-0.22-0.88-0.32-1.32
			c-0.04-0.16-0.12-0.23-0.27-0.3c-2-0.93-3.33-2.56-4.42-4.37c-1.7-2.82-2.47-6.01-3.48-9.1c-0.19-0.57-0.37-1.14-0.7-1.67
			c-1.22,2-2.03,2.37-3.54,1.6c-0.32,0.68-0.82,1.23-1.41,1.68c-0.65,0.5-1.38,0.63-2.1,0.2c-0.32-0.19-0.38-0.03-0.49,0.19
			c-0.3,0.58-0.77,1-1.38,1.21c-1.19,0.41-2.39-0.2-2.84-1.46c-0.13-0.37-0.21-0.75-0.33-1.17c-0.19,0.13-0.34,0.23-0.49,0.33
			c-1.14,0.71-2.31,0.32-2.67-0.98c-0.6-2.19-0.22-4.23,1.15-6.04c1.1-1.46,2.49-2.64,3.86-3.82c0.36-0.3,0.41-0.59,0.29-1.03
			c-0.7-2.59,0.02-4.66,2.19-5.96c1.22-0.73,2.56-1.25,4.05-1c0.77,0.13,1.49-0.2,2.22-0.23c1.35-0.06,2.21-0.85,3.05-1.73
			c0.97-1.02,1.81-2.2,3.15-2.82c0.9-0.41,1.81-0.82,2.82-0.71c1.68,0.18,2.67,0.81,2.47,2.72c-0.04,0.41,0.06,0.62,0.42,0.85
			c1.14,0.73,1.63,2.35,1,3.8c-0.43,0.99-0.69,1.9-0.67,3.01c0.02,1.41-0.97,2.45-2.16,3.18c-0.37,0.23-0.4,0.4-0.18,0.72
			c0.08,0.12,0.14,0.26,0.2,0.39c0.92,2.3-0.28,3.93-2.76,3.76c-0.08-0.01-0.17-0.03-0.25-0.03c-0.29,0-0.63-0.24-0.83-0.06
			c-0.14,0.13-0.05,0.5-0.07,0.77c0,0.02,0,0.05-0.01,0.06c-0.6,0.97-0.1,1.88,0.15,2.8c0.4,1.44,0.55,2.96,1.2,4.33
			C30.67,154.1,31.27,155.24,32.34,156.16z"/>
		<path class="st0" d="M228.79,123.01c-0.11,0.7-0.22,1.51-0.23,2.32c-0.01,1.24,0.21,1.56,1.37,2.01c0.21,0.08,0.44,0.13,0.66,0.21
			c0.23,0.09,0.38,0.25,0.37,0.52c0,0.27-0.13,0.47-0.37,0.52c-1.14,0.2-1.5,1.09-1.82,2.01c-0.17,0.51-0.32,1.04-0.45,1.56
			c-0.08,0.32-0.23,0.54-0.59,0.53c-0.34,0-0.47-0.24-0.55-0.51c-0.16-0.52-0.33-1.03-0.47-1.56c-0.24-0.9-0.84-1.47-1.65-1.86
			c-0.35-0.17-0.76-0.35-0.62-0.8c0.12-0.4,0.45-0.69,0.95-0.63c0.43,0.05,0.7-0.21,0.93-0.52c0.65-0.9,1.01-1.91,1.21-2.99
			c0.07-0.37,0.14-0.74,0.21-1.11c0.07-0.35,0.24-0.61,0.63-0.54C228.74,122.25,228.83,122.55,228.79,123.01z"/>
		<path class="st0" d="M164.31,181.06c0,0.29-0.16,0.48-0.39,0.6c-1.54,0.76-1.99,2.09-1.91,3.69c0.02,0.37,0.01,0.76-0.44,0.84
			c-0.45,0.08-0.6-0.28-0.72-0.63c-0.07-0.2-0.14-0.39-0.21-0.59c-0.44-1.34-1.38-2.04-2.78-2.12c-0.36-0.02-0.76-0.06-0.83-0.5
			c-0.07-0.45,0.29-0.56,0.66-0.68c1.09-0.35,1.72-1.1,1.9-2.24c0.1-0.62,0.19-1.24,0.31-1.85c0.06-0.33,0.17-0.68,0.62-0.64
			c0.4,0.04,0.48,0.34,0.51,0.67c0.02,0.25,0.07,0.5,0.1,0.75c0.14,1.47,0.96,2.23,2.42,2.2
			C163.92,180.55,164.27,180.56,164.31,181.06z"/>
		<path class="st0" d="M69.38,123.73c0.38,0.25,0.52-0.08,0.68-0.31c0.4-0.61,0.52-1.31,0.58-2.02c0.06-0.64,0.12-1.29,0.2-1.93
			c0.04-0.35,0.18-0.69,0.61-0.64c0.41,0.05,0.49,0.39,0.49,0.75c0,0.67-0.04,1.34,0.04,2c0.14,1.14,0.93,1.79,2.08,1.81
			c0.34,0.01,0.71-0.03,0.8,0.4c0.09,0.42-0.24,0.56-0.55,0.72c-1.27,0.66-1.87,1.78-2.1,3.14c-0.02,0.14,0,0.29-0.02,0.44
			c-0.03,0.35-0.19,0.61-0.57,0.61c-0.41,0.01-0.54-0.3-0.54-0.63c0.01-0.86-0.36-1.57-0.81-2.26c-0.26-0.41-0.55-0.77-1.07-0.9
			c-0.37-0.09-0.53-0.39-0.45-0.78C68.84,123.82,69.06,123.71,69.38,123.73z"/>
		<path class="st0" d="M129.96,197.72c0.07,0.47,0.18,0.94,0.22,1.42c0.06,0.72-0.14,1.36-0.63,1.91c-1.36,1.51-5.13,2.53-6.91,0.31
			c-0.26-0.32-0.47-0.36-0.71,0.02c-0.42,0.67-1.02,1.16-1.7,1.54c-2.08,1.15-5.49,1.41-7.01-1.83c-0.65-1.38-0.5-2.72,0.59-3.86
			c0.1-0.11,0.21-0.2,0.32-0.3c0.19-0.18,0.23-0.32-0.06-0.46c-0.62-0.29-1.09-0.77-1.5-1.3c-0.2-0.25-0.35-0.27-0.62-0.15
			c-0.79,0.37-1.61,0.61-2.49,0.51c-2.39-0.27-4.24-1.4-5.47-3.5c-0.18-0.3-0.33-0.6-0.09-0.93c0.23-0.31,0.56-0.33,0.91-0.27
			c0.83,0.15,1.63-0.01,2.39-0.32c1.45-0.6,2.81-1.37,4.08-2.3c1.4-1.03,2.88-1.7,4.67-1.16c0.21,0.06,0.28-0.01,0.38-0.19
			c0.94-1.76,2.31-2.19,4.05-1.27c0.36,0.19,0.5,0.17,0.6-0.23c0.17-0.67,0.43-1.31,0.8-1.9c0.98-1.56,2.43-2.24,4.25-2.13
			c1.6,0.1,2.34,1.23,2.85,2.55c0.15,0.39,0.25,0.37,0.55,0.15c0.42-0.31,0.86-0.61,1.33-0.81c2.45-1.07,5.17-0.51,5.42,2.99
			c0.02,0.34,0.13,0.38,0.42,0.3c1.29-0.36,2.52-0.08,3.73,0.41c0.81,0.33,1.63,0.64,2.46,0.92c1.39,0.47,2.75,0.45,4.05-0.31
			c0.18-0.1,0.38-0.17,0.57-0.25c0.23-0.1,0.45-0.07,0.63,0.12c0.19,0.21,0.2,0.44,0.04,0.69c-0.21,0.34-0.39,0.69-0.6,1.03
			c-1.24,2.02-2.67,3.81-5.13,4.4c-1.07,0.26-2.16,0.27-3.24,0.26c-0.45-0.01-0.57,0.14-0.55,0.57c0.03,0.9-0.31,1.69-0.98,2.29
			c-1.78,1.61-3.83,2.13-6.15,1.4c-0.47-0.15-0.93-0.35-1.4-0.53C129.8,197.5,129.88,197.61,129.96,197.72z"/>
		<path class="st0" d="M203.31,198.25c-1.86-1.41-3.91-2.39-6.21-2.84c-0.48-0.09-0.8-0.08-0.74,0.56c0.03,0.35-0.12,0.69-0.28,1.02
			c-0.51,1.09-1.38,1.76-2.5,2.13c-0.24,0.08-0.43,0.11-0.27,0.45c0.4,0.83,0.31,1.71,0.2,2.58c-0.19,1.49-0.9,2.56-2.41,3.03
			c-1.39,0.43-2.69,0.44-3.8-0.61c-0.37-0.35-0.47-0.31-0.72,0.12c-1.25,2.09-3.72,2.83-5.75,1.42c-1.34-0.93-2.12-2.15-2.07-3.86
			c-0.3,0.08-0.56,0.15-0.82,0.21c-2.07,0.48-3.67-0.51-4.16-2.55c-0.41-1.7,0.06-3.12,1.3-4.34c-0.14-0.11-0.27-0.2-0.4-0.31
			c-1.39-1.15-2.3-2.56-2.18-4.42c0.18-2.69,3.7-4.27,5.79-3.36c0.33,0.14,0.67,0.28,1.03,0.44c-0.31-2.38,1.34-4.18,3.06-4.67
			c1.03-0.29,2.07-0.23,3.08,0.16c1.62,0.63,2.31,2,2.71,3.59c2.05-1.61,4.02-1.9,5.4-0.84c1.86,1.43,2.26,3.63,1.12,6.28
			c0.72,0.23,1.11,0.78,1.35,1.46c0.11,0.31,0.28,0.46,0.63,0.49c2.14,0.21,4.08,1,5.92,2.08c0.13,0.08,0.24,0.25,0.45,0.15
			c-0.06-0.11-0.12-0.22-0.19-0.33c-1.28-2.22-1.79-4.61-1.59-7.16c0.16-2,0.27-4-0.27-5.97c-0.09-0.33-0.11-0.62,0.19-0.85
			c0.3-0.24,0.59-0.1,0.87,0.05c3.91,2.14,5.78,5.45,5.7,9.89c-0.03,1.69-0.46,3.3-0.86,4.92c-0.32,1.34-0.16,2.54,0.81,3.61
			c0.54,0.6,1,1.29,1.47,1.95c0.22,0.31,0.55,0.68,0.1,1.03c-0.46,0.36-0.74-0.03-0.95-0.37c-0.19-0.3-0.4-0.34-0.73-0.31
			c-0.99,0.1-1.92,0.39-2.83,0.77c-1.78,0.74-3.6,1.34-5.52,1.59c-0.81,0.1-1.61,0.22-2.41,0.37c-0.61,0.12-1.21,0.34-1.82,0.47
			c-0.68,0.15-1.19-0.31-0.91-0.89c0.67-1.41,1.26-2.91,2.57-3.88c2.16-1.6,4.52-2.67,7.3-2.48c0.07,0,0.15-0.05,0.29-0.09
			C203.92,198.7,203.61,198.48,203.31,198.25z"/>
	</g>
	<path class="st1" d="M240.99,157.51c-1.23-1.63-2.51-3.23-3.59-4.98c-0.67-1.08-1.24-2.23-2.03-3.23c-1.71-2.18-3.76-4-6.09-5.45
		c-3.15-1.96-6.48-3.64-9.76-5.39c-3.69-1.97-7.17-4.3-10.54-6.76c-2.83-2.06-5.91-3.15-9.33-3.39c-2.98-0.21-5.95-0.47-8.92-0.78
		c-1.3-0.13-2.53-0.5-3.71-1.07c-1.97-0.95-4.06-1.63-6.12-2.37c-1.56-0.77-3.26-0.9-4.93-0.96c-2.31-0.09-4.61,0.05-6.9-0.47
		c-1.8-0.41-3.65-0.65-5.42-1.18c-1.85-0.55-3.78-0.61-5.66-1c-2.67-0.55-5.36-1.09-8.07-1.39c-3.04-0.34-6.09-0.13-9.06,0.69
		c-2.23,0.62-4.47,1.21-6.72,1.72c-3.36,0.76-6.75,1.37-10.18,1.7c-1.82,0.38-3.68,0.5-5.52,0.73c-4.68,0.59-9.38,0.99-13.99,2.07
		c-2.12,0.5-4.23,0.94-5.99,2.35c-0.66,0.52-1.25,1.1-1.89,1.84c0.99-0.1,1.79-0.18,2.6-0.26c0.32-0.03,0.6,0.06,0.65,0.42
		c0.05,0.35-0.16,0.53-0.49,0.6c-0.39,0.08-0.78,0.15-1.18,0.15c-3.55,0.03-6.85,1.14-10.12,2.37c-0.2,0.05-0.41,0.09-0.6,0.14
		c-1.01,0.29-1.88,0.91-2.89,1.19c-0.76,0.21-1.56,0.36-2.27,0.68c-2.45,1.1-4.51,2.75-6.3,4.74c-0.3,0.34-0.59,0.7-0.91,1.02
		c-3.06,3.07-5.46,6.68-8.13,10.07c-1.47,1.87-2.87,3.79-4.3,5.69c-1.39,1.84-2.79,3.68-4.19,5.52c-0.29,0.4-0.55,0.84-0.89,1.2
		c-1.35,1.44-2.28,3.16-3.39,4.77c-0.62,0.89-0.56,1.55,0.17,2.38c0.17,0.19,0.21,0.4,0.14,0.63l-0.04,0.02l0,0.04
		c-0.57,0.46-0.94-0.07-1.35-0.33c-0.31,0.5-0.29,1.02-0.19,1.53c0.23,1.22,1.36,1.65,2.33,0.87c0.2-0.16,0.34-0.41,0.51-0.61
		c0.07-0.02,0.13-0.05,0.14-0.14l-0.01,0.02c0.25-0.05,0.53-0.1,0.67,0.17c0.32,0.61-0.34,0.89-0.52,1.37
		c0.67,0.11,1.28-0.05,1.88-0.16c1.61-0.3,2.79-1.06,2.99-2.87c0.05-0.4,0.22-0.8,0.6-1.05c0.97-0.67,1.77-1.51,2.39-2.52
		c0.96-1.54,1.98-3.04,3.09-4.48c1.75-2.29,3.66-4.45,5.53-6.64c1.19-1.4,2.23-2.93,3.51-4.25c1.76-1.81,3.26-3.86,5.55-5.18
		c1.93-1.11,3.84-1.85,6.05-1.88c0.71-0.01,1.33,0.18,1.86,0.6c1,0.8,1.8,1.8,2.52,2.85c0.17,0.25,0.16,0.52-0.11,0.72
		c-0.25,0.18-0.52,0.17-0.74-0.05c-0.1-0.1-0.18-0.23-0.25-0.36c-0.51-0.85-1.2-1.54-1.92-2.21c-0.28-0.26-0.61-0.48-0.99-0.49
		c-1.78-0.06-3.49,0.27-5.03,1.22c-0.75,0.46-1.46,0.96-2.21,1.42c-0.49,0.3-0.91,0.65-1.27,1.1c-0.82,1.04-1.74,1.97-2.66,2.91
		c-0.34,0.27-0.44,0.62-0.39,1.04c0.29,2.95-0.96,5.26-3.07,7.18c-0.62,0.57-1.11,1.25-1.63,1.9c-0.46,0.59-0.31,1.07,0.35,1.43
		c0.43,0.23,0.88,0.37,1.37,0.41c1.57,0.15,3.12-0.16,4.68-0.23c0.44,0.07,0.87,0.12,1.29,0.34c1.72,0.92,3.5,1.73,5.11,2.84
		c0.32,0.22,0.72,0.34,1.09,0.47c0.8,0.27,1.56,0.6,2.18,1.18c0.49,1.07,1.23,1.89,2.23,2.53c0.45,0.29,0.72,0.3,1.13-0.07
		c0.89-0.82,1.37-1.92,2.05-2.89c0.47-0.7,1.11-1.17,1.85-1.54c1.25-0.62,2.55-1.01,3.93-1.22c0.84-0.13,1.6-0.45,2.2-1.1
		c0.17-0.19,0.23-0.36,0.19-0.62c-0.2-1.22-0.54-2.39-1.12-3.5c-0.93-1.77-1.45-3.68-1.88-5.63c-0.06-0.29-0.09-0.62,0.31-0.71
		c0.41-0.09,0.51,0.19,0.61,0.54c0.28,1.03,0.56,2.05,0.89,3.06c0.42,1.3,1.16,2.45,1.65,3.71c0.52,1.36,0.52,2.84,0.95,4.21
		c0.67,2.12,0.06,3.93-1.27,5.54c-1.35,1.63-2.53,3.37-3.8,5.06c-0.95,1.27-1.92,2.54-3.02,3.68c-1.43,1.49-3.22,2.59-4.59,4.15
		c-0.04,0.05-0.09,0.09-0.15,0.12c-1.17,0.62-1.56,1.6-1.43,2.87c0.06,0.59-0.29,0.81-0.81,0.55c-0.13-0.07-0.22-0.2-0.34,0
		c-0.72,1.18-1.84,1.98-2.79,2.95c-0.36,0.37-0.56,0.83-0.47,1.37c0.12,0.79,0.71,1.1,1.4,0.69c0.25-0.15,0.49-0.22,0.77-0.16
		c0.38,0.44,0.22,0.77-0.2,1.07c-0.35,0.25-0.75,0.31-1.16,0.37c-0.29-0.02-0.58-0.07-0.83-0.23c-0.18-0.11-0.32-0.14-0.49,0.03
		c-0.35,0.35-0.57,1.28-0.37,1.75c0.23,0.56,0.8,0.9,1.51,0.9c0.65,0,1.03-0.34,1.19-0.96c0.22-0.36,0.5-0.45,0.87-0.24
		c0.37,0.63-0.13,1.05-0.38,1.53c0.48,0.21,0.48,0.2,0.84,0.19c1.41-0.06,2.53-0.68,3.55-1.63c1.31-1.22,1.93-2.79,2.47-4.42
		c0.09-0.27,0.21-0.51,0.54-0.53c0.36-0.02,0.46,0.24,0.56,0.61c0.55-0.75,1.11-1.36,1.77-1.87c1.57-1.2,2.84-2.69,4.13-4.16
		c0.91-0.7,1.63-1.6,2.55-2.29c3.13-2.35,6.45-4.45,9.47-6.97c1.83-1.52,3.66-3.04,5.1-4.95c1.14-1.51,2.14-3.13,3.15-4.73
		c0.58-0.99,1.28-1.91,2.01-2.79c1.91-2.32,5.51-2.1,6.74-2.15c2.52-0.1,5-0.12,7.5-0.13c1.97,0,3.88,0.5,5.81,0.86
		c2.1,0.39,4.24,0.24,6.36,0.43c1.32,0.12,2.64,0.26,3.97,0.08c1.44-0.01,2.88-0.05,4.32-0.02c4.45,0.07,8.87,0.43,13.18,1.66
		c1.14,0.33,2.33,0.49,3.53,0.45c2.57-0.08,5.08,0.17,7.46,1.24c1.82,0.99,3.72,1.75,5.71,2.31c2.13,0.61,4.27,1.17,6.41,1.75
		c0.08,0.03,0.15,0.07,0.23,0.1c2.84,0.82,5.72,1.42,8.68,1.72c2.22,0.22,4.36,0.86,6.42,1.74c0.02,0.04,0.03,0.09,0.06,0.11
		c2.04,1.01,3.99,2.17,5.87,3.45c0.51,0.43,0.99,0.91,1.54,1.27c1.88,1.24,3.31,2.93,4.68,4.67c0.57,0.73,0.92,1.58,0.99,2.53
		c0.05,0.75,0.11,1.5,0.23,2.24c0.12,0.72,0.23,1.55,0.93,1.9c1.02,0.51,2.15,0.66,3.38,0.37c-0.36-0.25-0.69-0.29-1-0.39
		c-0.49-0.15-0.92-0.39-1.28-0.76c-0.2-0.21-0.34-0.46-0.11-0.72c0.22-0.26,0.51-0.21,0.72-0.01c0.48,0.46,1.09,0.61,1.69,0.77
		c1.54,0.4,3.39-0.85,3.62-2.41c0.12-0.85-0.79-1.6-1.6-1.32c-1.14,0.4-2.31,0.55-3.51,0.48c-0.25-0.01-0.5-0.07-0.73-0.16
		c-0.28-0.1-0.47-0.32-0.37-0.63c0.09-0.29,0.37-0.35,0.62-0.27c0.82,0.26,1.62,0.06,2.42-0.04c0.54-0.07,1.24-0.04,1.48-0.62
		c0.26-0.64-0.35-1.07-0.72-1.48c-0.55-0.61-1.04-1.24-1.24-2.06c-0.17-0.69-0.38-1.37-0.57-2.05c-0.41-1.46-1.55-2.4-2.48-3.49
		c-1.26-1.5-2.83-2.75-3.87-4.43c-0.98-1.58-2.35-2.62-4.01-3.35c-0.05-0.03-0.1-0.07-0.16-0.1c-1.7-0.84-3.56-1.18-5.36-1.68
		c-2.57-0.72-5.16-1.39-7.65-2.36c-2.75-1.07-5.3-2.55-7.82-4.09c-1.08-0.66-2.12-1.35-3.49-1.01c-0.35,0.09-0.65-0.08-0.68-0.47
		c-0.03-0.39,0.26-0.54,0.61-0.56c0.52-0.03,1.04-0.15,1.56-0.07c0.3,0.05,0.34-0.1,0.21-0.31c-0.23-0.37-0.49-0.72-0.74-1.08
		c-0.18-0.26-0.28-0.55,0.05-0.76c0.31-0.19,0.57-0.05,0.75,0.23c0.35,0.54,0.79,1.01,1.03,1.63c0.23,0.57,0.66,1.1,1.16,1.42
		c2.24,1.42,4.56,2.72,7,3.76c3.58,1.53,7.39,2.35,11.11,3.43c2.99,0.87,5.74,2.08,7.4,4.94c0.1,0.18,0.24,0.34,0.38,0.49
		c1.47,1.63,2.93,3.26,4.41,4.88c0.85,0.93,1.45,1.98,1.74,3.21c0.31,1.3,0.65,2.59,1.72,3.53c0.28,0.24,0.47,0.59,0.6,0.94
		c0.04,0.09,0.08,0.23,0.15,0.25c0.9,0.33,1.74,0.85,2.73,0.85c0.64,0,1-0.46,0.84-1.09c-0.2-0.8-0.75-1.38-1.31-1.94
		c-0.39-0.38-0.81-0.72-1.19-1.11c-0.21-0.21-0.25-0.49,0-0.72c0.24-0.21,0.47-0.11,0.67,0.07c1,0.89,2.05,1.73,2.66,2.96
		c0.14,0.29,0.3,0.29,0.55,0.19c1.04-0.43,1.54-1.79,1-2.78c-0.56-1.05-1.61-1.47-2.59-1.98c-0.31-0.16-0.65-0.28-0.96-0.45
		c-0.25-0.14-0.3-0.4-0.18-0.66c0.11-0.25,0.34-0.3,0.58-0.25c0.16,0.03,0.31,0.11,0.47,0.18c1.15,0.48,2.22,1.1,3.17,1.97
		c0.15-0.29,0.15-0.53,0.14-0.78c-0.09-1.53-1.01-2.51-2.18-3.32c-1.36-0.94-2.99-1.43-4.25-2.52c-1.02-0.89-2.06-1.73-3.23-2.42
		c-0.79-0.47-1.2-1.26-1.37-2.16c-0.15-0.78-0.51-1.36-1.16-1.85c-1.08-0.81-1.86-1.91-2.8-2.86c-1.17-1.15-2.32-2.34-3.39-3.58
		c-0.53-0.62-1.05-1.25-1.67-1.78c-2-1.72-3.85-3.56-5.25-5.82c-1-1.46-1.71-3.05-2.08-4.78c-0.3-1.4-0.24-2.77,0.43-4.07
		c0.37-0.04,0.77-0.16,1.08,0.12c0.94,0.84,2.07,1.41,3.02,2.24c2.12,1.85,4.49,3.34,6.9,4.76c2.72,1.6,5.51,3.07,8.13,4.84
		c1.51,1.02,2.73,2.29,3.41,4.05c0.79,2.05-0.51,5.34-2.86,5.78c-0.49,0.09-0.94,0.33-1.42,0.49c-1.37,0.45-1.88,2.22-0.76,3.39
		c0.93,0.97,2.08,1.66,3.56,1.52c2.37-0.21,4.64-0.86,6.86-1.65c1.65-0.59,3.14-1.47,4.04-3.09
		C243.04,162.17,243.08,160.27,240.99,157.51z M80.57,163.17c-0.04,0.24-0.19,0.41-0.42,0.5c-0.23,0.09-0.46,0.06-0.68-0.01
		c-0.53-0.18-1.06-0.37-1.59-0.56c-0.29-0.11-0.45-0.32-0.41-0.63c0.03-0.32,0.28-0.38,0.59-0.4c0.76,0.04,1.52,0.2,2.24,0.58
		C80.5,162.76,80.6,162.94,80.57,163.17z M90.24,168.18c-0.09,0.25-0.3,0.39-0.71,0.44c-0.71-0.38-1.68-0.53-2.29-1.31
		c-0.34-0.44-0.74-0.78-1.24-1.01c-0.25-0.12-0.43-0.28-0.37-0.57c0.07-0.31,0.34-0.32,0.59-0.34c0.26-0.02,0.51,0.04,0.7,0.21
		c0.78,0.73,1.76,1.07,2.69,1.53c0.17,0.08,0.32,0.19,0.47,0.31C90.31,167.64,90.33,167.92,90.24,168.18z M90.57,161.43
		c-0.42,0.04-0.83,0.08-1.25,0.13c-1.25,0.13-2.47,0.4-3.66,0.83c-0.4,0.15-0.81,0.17-1.23,0.19c-0.18,0.01-0.46-0.21-0.53,0.11
		c-0.09,0.38-0.43,0.75-0.14,1.17c0.13,0.19,0.28,0.37,0.31,0.61c0.04,0.31-0.04,0.6-0.31,0.77c-0.28,0.18-0.59,0.15-0.79-0.11
		c-0.18-0.23-0.37-0.2-0.6-0.19c-0.39,0.02-0.71-0.14-0.8-0.55c-0.09-0.42,0.15-0.74,0.51-0.82c0.77-0.15,0.73-0.81,0.96-1.32
		c0.05-0.12,0.02-0.19-0.05-0.27c-0.9-1.04-1.02-2.39-1.4-3.64c-0.23-0.76-0.41-1.53-0.75-2.25c-0.06-0.13-0.13-0.27-0.16-0.41
		c-0.06-0.28-0.08-0.57,0.25-0.68c0.32-0.11,0.49,0.08,0.63,0.36c0.45,0.9,0.73,1.86,1,2.83c0.21,0.74,0.43,1.48,0.66,2.22
		c0.32,1,0.97,1.34,1.98,1.04c0.44-0.13,0.86-0.33,1.3-0.44c1.32-0.33,2.67-0.46,4.02-0.6c0.33-0.03,0.73-0.06,0.75,0.43
		C91.31,161.3,90.95,161.4,90.57,161.43z"/>
	<path class="st2" d="M197.67,113.22c0.97-0.07,1.54-0.68,1.98-1.45c0.38-0.68,0.26-1.47-0.29-2.02c-1.2-1.21-2.64-1.71-4.34-1.38
		c-0.26,0.05-0.5,0.08-0.72-0.07c-0.35-0.22-0.39-0.72-0.02-0.86c0.89-0.33,1.11-1.02,1.23-1.85c0.09-0.64-0.14-1.21-0.71-1.53
		c-0.81-0.45-1.59-0.28-2.43,0.53c-0.27,0.26-0.51,0.61-0.95,0.44c-0.41-0.15-0.47-0.55-0.55-0.92c-0.17-0.83-0.47-1.6-0.91-2.32
		c-0.67-1.09-2.06-1.75-3.32-1.56c-0.55,0.08-0.95,0.36-1.29,0.8c-0.49,0.65-0.61,1.41-0.71,2.17c-0.04,0.33-0.07,0.7-0.46,0.82
		c-0.42,0.12-0.65-0.18-0.87-0.47c-0.8-1.03-1.86-1.52-3.15-1.71c-1.9-0.28-2.83,1.62-2.47,2.94c0.33,1.19,0.93,2.18,2,2.85
		c0.21,0.13,0.43,0.26,0.62,0.42c0.2,0.15,0.28,0.36,0.2,0.61c-0.08,0.25-0.29,0.35-0.53,0.37c-0.16,0.01-0.33-0.02-0.5-0.03
		c-1.34-0.08-2.63,0.61-3.48,1.86c-0.94,1.39-0.71,2.72,0.72,3.59c1.51,0.92,3.12,1.15,4.79,0.41c0.75-0.33,1.47-0.7,2.12-1.2
		c0.28-0.21,0.58-0.4,0.91-0.15c0.35,0.26,0.27,0.62,0.14,0.97c-0.21,0.61-0.47,1.21-0.62,1.84c-0.15,0.61-0.22,1.24,0.21,1.8
		c1.24,1.58,4.3,1.63,5.55,0.08c0.25-0.31,0.42-0.67,0.56-1.05c0.1-0.27,0.28-0.48,0.61-0.44c0.31,0.03,0.49,0.24,0.55,0.53
		c0.1,0.5,0.31,0.94,0.63,1.35c0.95,1.21,2.25,1.6,3.71,1.61c1.77,0.01,2.79-1.14,3.23-2.7c0.2-0.7-0.05-1.32-0.54-1.84
		c-0.39-0.41-0.83-0.76-1.27-1.11c-0.26-0.2-0.58-0.4-0.47-0.81C196.95,113.35,197.3,113.25,197.67,113.22z M191.33,110.5
		c-0.4,0.82-1.16,1.02-1.98,1.08c-0.12,0.01-0.25,0-0.38,0c-1,0.05-1.89-0.25-2.69-0.84c-0.77-0.57-1.21-1.32-1.14-2.3
		c0.09-1.32,0.96-2.12,2.28-2.01c1.47,0.12,2.76,0.67,3.65,1.89C191.56,108.98,191.71,109.72,191.33,110.5z"/>
	<g>
		<path class="st3" d="M209.19,143.11c-0.36-0.28-0.51-0.7-0.72-1.08c-0.43-0.76-0.85-1.53-1.24-2.32
			c-0.95-1.89-2.47-3.12-4.41-3.87c-0.97-0.38-1.97-0.68-2.9-1.18c-0.48-0.26-1.07-0.16-1.6-0.19c-1.24-0.08-2.31-0.53-3.23-1.35
			c-0.33-0.29-0.66-0.58-0.98-0.88c-1.48-1.39-3.29-1.81-5.26-2.04c-3.65-0.42-6.35-2.26-7.84-5.7c-0.06-0.13-0.07-0.28-0.1-0.42
			c2.06,0.74,4.15,1.41,6.12,2.37c1.19,0.57,2.41,0.93,3.71,1.07c2.97,0.31,5.94,0.57,8.92,0.78c3.42,0.24,6.5,1.33,9.33,3.39
			c3.37,2.46,6.85,4.79,10.54,6.76c3.28,1.75,6.6,3.43,9.76,5.39c2.33,1.45,4.38,3.27,6.09,5.45c0.79,1.01,1.37,2.15,2.03,3.23
			c1.07,1.75,2.35,3.35,3.59,4.98c2.09,2.76,2.05,4.66,0.16,8.04c-0.9,1.62-2.39,2.5-4.04,3.09c-2.22,0.8-4.49,1.44-6.86,1.65
			c-1.48,0.13-2.62-0.56-3.56-1.52c-1.12-1.16-0.61-2.93,0.76-3.39c0.48-0.16,0.93-0.4,1.42-0.49c2.36-0.44,3.66-3.73,2.86-5.78
			c-0.68-1.76-1.9-3.03-3.41-4.05c-2.62-1.77-5.41-3.24-8.13-4.84c-2.41-1.42-4.78-2.91-6.9-4.76c-0.95-0.82-2.08-1.4-3.02-2.24
			C209.96,142.96,209.56,143.07,209.19,143.11z"/>
		<path class="st3" d="M123.95,123.2c0.94,0.73,1.68,1.62,2.06,2.76c0.63,1.93,0.49,3.86-0.04,5.78c-0.21,0.77-0.8,1.25-1.53,1.45
			c-1.76,0.47-2.86,1.68-3.83,3.13c-1.39,2.08-2.62,4.27-4.11,6.28c-2.13,2.88-4.92,4.28-8.54,3.95c-1.82-0.17-3.59-0.44-5.2-1.41
			c-0.89-0.53-1.89-0.92-2.89-1.18c-2.41-0.63-4.28-2-5.52-4.13c-0.94-1.61-2.26-2.76-3.84-3.67c-0.77-0.44-1.41-1.04-2.06-1.63
			c-0.32-0.29-0.45-0.64-0.42-1.06c3.27-1.22,6.57-2.34,10.12-2.37c0.4,0,0.79-0.07,1.18-0.15c0.33-0.07,0.54-0.25,0.49-0.6
			c-0.05-0.37-0.33-0.46-0.65-0.42c-0.81,0.08-1.62,0.16-2.6,0.26c0.64-0.75,1.24-1.32,1.89-1.84c1.76-1.4,3.87-1.85,5.99-2.35
			c4.61-1.08,9.31-1.48,13.99-2.07C120.27,123.7,122.13,123.59,123.95,123.2z"/>
		<path class="st3" d="M152.9,163.06c0.25-4.69,1.6-8.78,6.11-11.14c1.7-0.89,3.39-1.81,5.33-2.08c1.54-0.21,2.94,0.19,4.2,1.09
			c1.41,1.01,2.82,2.02,4.13,3.15c0.34,0.29,0.71,0.51,1.13,0.66c0.25,0.1,0.5,0.21,0.77,0.27c2.28,0.6,3.77,1.98,4.52,4.25
			c0.38,1.14,1.04,2.18,1.89,3.07c0.3,0.31,0.54,0.7,0.74,1.08c0.3,0.56,0.35,1.16-0.02,1.72c-0.25,0.38-0.36,0.79-0.31,1.25
			c-2.38-1.07-4.89-1.33-7.46-1.24c-1.2,0.04-2.39-0.12-3.53-0.45c-4.31-1.23-8.73-1.59-13.18-1.66
			C155.78,163.02,154.34,163.05,152.9,163.06z"/>
		<path class="st3" d="M100.24,185.7c-1.35-2.85-1.07-4.27,0.74-6.82c0.99-1.39,2.17-2.64,3.5-3.73c0.47-0.38,0.87-0.86,1.13-1.41
			c1.09-2.26,2.84-3.71,5.19-4.6c1.35-0.51,2.77-0.74,4.13-1.2c0.77-0.26,1.54-0.5,2.21-0.99c0.53-0.4,1.17-0.53,1.8-0.67
			c0.59-0.12,1.1,0.14,1.56,0.47c-1.01,1.6-2.01,3.22-3.15,4.73c-1.44,1.91-3.27,3.43-5.1,4.95c-3.02,2.51-6.34,4.61-9.47,6.97
			C101.87,184.1,101.15,185,100.24,185.7z"/>
		<path class="st3" d="M214.76,177.58c0.34-0.79,0.77-1.52,1.24-2.23c0.86-1.28,1.06-2.8,1.38-4.25c0.18-0.81-0.34-1.51-0.98-2.05
			c-0.44-0.38-0.92-0.74-0.85-1.43c1.66,0.73,3.03,1.77,4.01,3.35c1.04,1.68,2.61,2.93,3.87,4.43c0.92,1.1,2.06,2.04,2.48,3.49
			c0.19,0.68,0.4,1.36,0.57,2.05c0.21,0.82,0.69,1.45,1.24,2.06c0.38,0.42,0.99,0.84,0.72,1.48c-0.24,0.58-0.94,0.55-1.48,0.62
			c-0.8,0.11-1.61,0.3-2.42,0.04c-0.25-0.08-0.53-0.02-0.62,0.27c-0.1,0.31,0.09,0.53,0.37,0.63c0.23,0.08,0.48,0.15,0.73,0.16
			c1.2,0.07,2.38-0.07,3.51-0.48c0.81-0.29,1.72,0.47,1.6,1.32c-0.23,1.56-2.08,2.81-3.62,2.41c-0.6-0.16-1.21-0.31-1.69-0.77
			c-0.21-0.21-0.5-0.25-0.72,0.01c-0.23,0.26-0.08,0.51,0.11,0.72c0.35,0.37,0.79,0.61,1.28,0.76c0.31,0.1,0.65,0.14,1,0.39
			c-1.23,0.28-2.36,0.13-3.38-0.37c-0.7-0.35-0.81-1.18-0.93-1.9c-0.12-0.74-0.18-1.49-0.23-2.24c-0.07-0.95-0.41-1.8-0.99-2.53
			c-1.37-1.74-2.79-3.43-4.68-4.67C215.75,178.48,215.27,178,214.76,177.58z"/>
		<path class="st3" d="M75.95,140.22c0.51,0.84,0.34,1.73,0.11,2.59c-0.22,0.83-0.61,1.6-1.07,2.33c-0.67,1.07-1.23,2.19-1.48,3.43
			c-0.45,2.24-1.8,3.98-3.15,5.71c-1.15,1.47-2.27,2.93-2.77,4.78c-0.23,0.87-0.86,1.48-1.68,1.83c-1.32,0.56-2.58,1.36-4.08,1.31
			c-1.16-0.04-2.29,0.04-3.41,0.32c1.4-1.84,2.79-3.68,4.19-5.52c1.43-1.9,2.83-3.82,4.3-5.69c2.67-3.39,5.07-7,8.13-10.07
			C75.36,140.92,75.65,140.57,75.95,140.22z"/>
		<path class="st3" d="M193.5,170.46c-0.18-0.39-0.3-0.79,0.01-1.18c0.15-0.19,0.07-0.4,0.06-0.61c-0.05-0.56-0.12-1.12-0.03-1.68
			c0.33-2.01,1.67-3.06,3.7-2.91c0.73,0.06,1.41,0.29,1.99,0.7c0.67,0.48,1.39,0.55,2.14,0.46c0.68-0.08,1.22,0.12,1.75,0.5
			c0.52,0.38,1.04,0.79,1.61,1.08c1.46,0.72,2.28,1.92,2.72,3.42c0.27,0.89,0.66,1.71,1.16,2.49c0.24,0.38,0.49,0.8,0.21,1.28
			c-2.06-0.87-4.2-1.52-6.42-1.74c-2.96-0.3-5.84-0.9-8.68-1.72C193.65,170.53,193.58,170.49,193.5,170.46z"/>
		<path class="st3" d="M221.14,163.15c-0.25,0.11-0.18,0.35-0.22,0.55c-0.24,1.18-0.92,1.69-2.11,1.51
			c-1.74-0.25-3.24-1.07-4.62-2.11c-0.55-0.41-1.1-0.83-1.67-1.21c-2.64-1.73-3.83-5.46-2.7-8.41c0.06-0.16,0.16-0.31,0.18-0.47
			c0.05-0.55,0.32-0.9,0.85-1.05c1.39,2.26,3.25,4.1,5.25,5.82c0.62,0.53,1.13,1.17,1.67,1.78
			C218.82,160.81,219.96,162,221.14,163.15z"/>
		<path class="st3" d="M76.76,153.13c0.1,1.31,0.26,2.61,0.35,3.92c0.09,1.49-0.37,2.74-1.13,3.94c-0.4,0.64-0.37,0.85,0.2,1.32
			c0.39,0.32,0.75,0.65,0.9,1.17c0.08,0.27,0.33,0.43,0.53,0.6c0.24,0.21,0.46,0.43,0.46,0.78c-1.56,0.07-3.11,0.37-4.68,0.23
			c-0.49-0.05-0.94-0.18-1.37-0.41c-0.66-0.36-0.81-0.84-0.35-1.43c0.51-0.65,1-1.33,1.63-1.9c2.11-1.92,3.36-4.23,3.07-7.18
			C76.33,153.75,76.42,153.4,76.76,153.13z"/>
		<path class="st3" d="M87.74,169.7c0.92,0.36,1.8,0.09,2.69-0.16c0.88-0.25,1.83,0.08,2.71-0.27c-0.68,0.97-1.15,2.06-2.05,2.89
			c-0.4,0.37-0.67,0.36-1.13,0.07C88.98,171.59,88.23,170.77,87.74,169.7z"/>
		<path class="st3" d="M136.15,157.4c-2.7,0.24-4.82-0.39-6.93-1.05c-1.34-0.42-1.76-1.55-1.98-2.8c-0.09-0.53-0.22-1.06-0.39-1.57
			c-0.31-0.94-0.44-1.85,0-2.8c0.25-0.53,0.17-1.15,0.23-1.73c0.03-0.29,0.09-0.55,0.36-0.69c1.25-0.61,2.46-1.34,3.97-1.07
			c0.64,0.12,1.27,0.24,1.84,0.56c0.4,0.23,0.82,0.41,1.21,0.66c1.53,0.98,3.2,1.27,4.98,0.99c1-0.15,1.84,0.16,2.64,0.73
			c0.7,0.5,1.38,1.02,1.86,1.75c0.66,1,0.58,1.8-0.28,2.63c-1.48,1.41-3.18,2.49-4.98,3.45
			C137.74,156.99,136.78,157.39,136.15,157.4z"/>
		<path class="st3" d="M154.05,134.3c0.72-0.09,1.41,0.05,2.1-0.01c1.28-0.11,2.52-0.37,3.72-0.79c3.38-1.18,6.67-0.67,9.89,0.6
			c0.97,0.38,1.75,1.06,2.14,2.08c0.51,1.35,0.21,2.07-1.44,2.69c-0.48,0.18-1.03,0.14-1.55,0.2c-0.19,0.02-0.36-0.05-0.53-0.15
			c-1.55-0.87-3.21-1.17-4.97-0.95c-0.52,0.06-1.02,0.26-1.41,0.63c-0.38,0.37-0.84,0.56-1.34,0.61c-3.03,0.29-5.47,1.79-7.69,3.74
			c-0.82,0.72-1.68,1.38-2.76,1.68c-1.19,0.33-2.35,0.04-2.97-0.75c-0.72-0.93-0.83-2.34-0.24-3.36c0.42-0.73,1.07-1.28,1.54-1.97
			c0.14-0.21,0.33-0.4,0.42-0.62C149.88,135.57,152,134.98,154.05,134.3z"/>
	</g>
	<g>
		<path class="st4" d="M86.23,193.3c0.28-0.08,0.55-0.18,0.83-0.24c0.79-0.15,1.08,0.07,1.13,0.85c0.02,0.26-0.01,0.53-0.01,0.86
			c0.31-0.24,0.58-0.48,0.93-0.6c0.53-0.18,0.99-0.12,1.31,0.37c0.3,0.45,0.2,1.11-0.24,1.47c-0.46,0.37-0.99,0.61-1.58,0.68
			c-0.83,0.1-1.16-0.34-0.86-1.13c0.04-0.1,0.1-0.18,0.03-0.35c-0.31,0.32-0.85,0.27-1.02,0.77c-0.37-0.21-0.66-0.12-0.87,0.24
			c-0.27,0-0.45,0.19-0.68,0.29c-0.48,0.19-0.97,0-1.16-0.43c-0.19-0.45,0.01-0.88,0.52-1.09c0.14-0.06,0.28-0.07,0.32-0.25
			c0.41-0.05,0.81-0.12,1.16-0.37C86.46,194.07,86.61,193.74,86.23,193.3z"/>
		<path class="st4" d="M54.46,171.52c0.32,0,0.43-0.29,0.64-0.45c0.41-0.33,0.85-0.67,1.39-0.38c0.34,0.18,0.21,1.03-0.16,1.53
			c-0.17,0.23-0.43,0.4-0.48,0.71c0,0,0.01-0.02,0.01-0.02c-0.05,0.05-0.1,0.1-0.14,0.15c0,0,0.01-0.01,0.01-0.01
			c-1.37,0.12-1.48,0.01-1.29-1.33c0.01-0.04,0-0.08,0-0.12l0-0.04L54.46,171.52z"/>
		<path class="st4" d="M57.48,168.17c0.04-0.74,0.36-1.72,0.7-2.67c0.19-0.52,0.75-0.47,1.13-0.2c0.7,0.49,1.37,1.04,1.99,1.62
			c0.46,0.42,0.47,1.34,0.04,1.78c-0.56,0.58-1.26,0.99-2.03,1.18C58.26,170.13,57.62,169.58,57.48,168.17z"/>
		<path class="st4" d="M88.33,191.57c-0.09-0.84,0.76-2.43,1.43-2.75c0.27-0.13,0.49,0.02,0.69,0.17c0.69,0.47,1.17,1.13,1.58,1.84
			c0.4,0.7,0.02,1.72-0.81,2.33c-0.71,0.52-1.54,0.47-2.15-0.17C88.68,192.57,88.29,192.14,88.33,191.57z"/>
		<path class="st4" d="M86.59,192.74c-0.85,0.08-1.47-0.34-1.52-1.01c-0.04-0.58,0.6-1.19,1.3-1.24c0.54-0.04,1.16,0.59,1.23,1.26
			C87.66,192.29,87.27,192.68,86.59,192.74z"/>
		<path class="st4" d="M57.53,172.48c-0.07-0.68,0.52-1.45,1.17-1.52c0.41-0.04,0.99,0.47,1.02,0.88c0.04,0.58-0.65,1.34-1.28,1.41
			C57.93,173.31,57.59,173.01,57.53,172.48z"/>
		<path class="st4" d="M56.29,168.81c0.08,0.65-0.33,1.18-0.95,1.25c-0.46,0.05-0.72-0.12-0.76-0.6c-0.05-0.56,0.39-1.01,1.06-1.09
			C56.11,168.31,56.25,168.4,56.29,168.81z"/>
	</g>
	<path class="st5" d="M116.14,196.18c0.12,0.4-0.2,0.61-0.45,0.82c-0.43,0.36-0.87,0.72-1.24,1.14c-0.47,0.53-0.71,1.16-0.49,1.85
		c0.48,1.54,1.53,2.67,3.3,2.61c1.46-0.05,2.75-0.47,3.66-1.71c0.3-0.41,0.51-0.86,0.59-1.36c0.05-0.29,0.23-0.5,0.53-0.54
		c0.33-0.05,0.51,0.16,0.62,0.43c0.15,0.37,0.33,0.73,0.59,1.03c1.28,1.51,4.35,1.38,5.54-0.23c0.42-0.57,0.33-1.2,0.17-1.8
		c-0.17-0.62-0.44-1.22-0.67-1.82c-0.13-0.35-0.22-0.7,0.12-0.97c0.32-0.26,0.63-0.08,0.91,0.12c0.66,0.48,1.4,0.83,2.15,1.14
		c1.69,0.7,3.3,0.41,4.78-0.54c1.41-0.91,1.6-2.25,0.62-3.61c-0.88-1.23-2.19-1.89-3.53-1.77c-0.17,0.01-0.33,0.05-0.5,0.04
		c-0.24-0.01-0.45-0.1-0.54-0.35c-0.09-0.25-0.01-0.46,0.18-0.62c0.19-0.16,0.4-0.29,0.61-0.43c1.05-0.7,1.63-1.7,1.93-2.9
		c0.33-1.33-0.65-3.21-2.54-2.88c-1.28,0.22-2.33,0.74-3.1,1.79c-0.21,0.29-0.43,0.61-0.86,0.49c-0.4-0.11-0.43-0.47-0.48-0.8
		c-0.12-0.76-0.26-1.52-0.77-2.15c-0.35-0.43-0.76-0.7-1.31-0.77c-1.27-0.15-2.64,0.53-3.28,1.64c-0.42,0.73-0.7,1.51-0.85,2.34
		c-0.07,0.38-0.12,0.77-0.52,0.94c-0.44,0.17-0.68-0.17-0.96-0.42c-0.86-0.79-1.65-0.93-2.44-0.46c-0.57,0.33-0.78,0.91-0.67,1.55
		c0.14,0.82,0.39,1.51,1.28,1.81c0.38,0.13,0.35,0.63,0.01,0.86c-0.22,0.15-0.46,0.13-0.72,0.08c-1.7-0.28-3.13,0.25-4.3,1.49
		c-0.53,0.57-0.63,1.36-0.23,2.03c0.45,0.76,1.04,1.36,2.01,1.4C115.67,195.68,116.02,195.77,116.14,196.18z M121.76,190.58
		c0.87-1.25,2.14-1.83,3.6-1.99c1.31-0.14,2.2,0.64,2.33,1.95c0.09,0.98-0.33,1.74-1.08,2.33c-0.78,0.62-1.67,0.93-2.67,0.91
		c-0.13,0-0.25,0.02-0.38,0.01c-0.82-0.04-1.58-0.22-2-1.03C121.16,192,121.3,191.26,121.76,190.58z"/>
	<g>
		<g>
			<path class="st1" d="M272.48,144.58c-0.31,0.82-0.18,1.55,0.34,1.96c0.53,0.43,1.32,0.39,2.05-0.05
				c0.78-0.47,1.16-1.29,1.69-1.96c1.05-1.33,1.77-2.88,2.49-4.41c0.06-0.13,0.12-0.27,0.2-0.39c0.53-0.93,0.28-1.62-0.7-2.03
				c-0.27-0.12-0.43,0.03-0.62,0.17c-1.5,1.11-2.93,2.3-3.79,3.84C273.44,142.68,272.86,143.58,272.48,144.58z"/>
			<path class="st1" d="M268.13,142.18c-0.27,0.98-0.02,1.46,0.94,1.76c0.87,0.27,1.69,0.06,2.5-0.24c0.21-0.08,0.24-0.27,0.33-0.43
				c1.22-2.34,2.82-4.37,4.93-5.98c0.16-0.12,0.54-0.23,0.39-0.43c-0.18-0.25-0.52-0.61-0.89-0.42c-2.36,1.21-4.96,2-6.99,3.82
				c-0.12,0.11-0.25,0.22-0.36,0.35c-0.12,0.14-0.23,0.3-0.34,0.45C268.41,141.4,268.24,141.78,268.13,142.18z"/>
			<path class="st1" d="M269.04,139.12c1.38-1.19,3.04-1.95,4.7-2.67c0.25-0.11,0.5-0.21,0.74-0.32c0.97-0.44,0.97-0.43,0.36-1.29
				c-0.12-0.18-0.24-0.25-0.46-0.23c-1.39,0.13-2.79-0.05-4.18,0.02c-1.09,0.05-2.16,0.18-3.14,0.72c-0.76,0.42-1.06,1.12-0.78,1.95
				c0.25,0.75,0.78,1.32,1.31,1.83C268.1,139.42,268.48,139.61,269.04,139.12z"/>
			<path class="st1" d="M285.33,142.19c0.6,1.87,1.17,3.75,2.01,5.53c0.37,0.78,0.84,1.49,1.46,2.09c0.69,0.65,1.22,0.51,1.42-0.4
				c0.34-1.53,0.16-3.03-0.68-4.35c-1.08-1.7-2.59-3.03-4.14-4.31C285,141.26,285.17,141.7,285.33,142.19z"/>
			<path class="st1" d="M286.75,149.03c-0.97-2.02-1.72-4.11-2.36-6.25c-0.05-0.17-0.04-0.43-0.29-0.42
				c-0.29,0.01-0.18,0.28-0.21,0.44c-0.38,2.21-0.51,4.43-0.17,6.66c0.13,0.83,0.37,1.64,0.85,2.33c0.56,0.79,1.5,0.75,2.1-0.18
				C287.03,150.85,287.18,149.93,286.75,149.03z"/>
			<path class="st1" d="M268.33,130.71c-0.24-0.05-0.5-0.12-0.74-0.09c-0.85,0.08-1.7,0.28-2.05,1.17
				c-0.36,0.93-0.18,1.84,0.37,2.67c0.12,0.18,0.24,0.18,0.41,0.08c1.84-1.09,3.88-0.96,5.9-0.91c0.56,0.01,1.12,0.03,1.68,0.03
				c0.17,0,0.42,0.07,0.49-0.16c0.08-0.24-0.16-0.3-0.44-0.48C272.15,132.34,270.39,131.17,268.33,130.71z"/>
			<path class="st1" d="M277.07,145.67c-0.44,0.62-0.08,2.75,0.48,3.25c0.55,0.5,1.14,0.42,1.5-0.22c0.25-0.46,0.44-0.94,0.58-1.45
				c0.45-1.76,0.87-3.52,1.39-5.26c0.28-0.93,0.09-1.6-0.71-2.22C279.36,141.85,278.37,143.85,277.07,145.67z"/>
			<path class="st1" d="M280.49,147.97c-0.33,1.23-0.06,2.14,0.99,2.86c0.31,0.22,0.64,0.37,0.98,0.15
				c0.34-0.22,0.32-0.56,0.26-0.95c-0.29-1.86-0.45-3.73-0.16-5.61c0.09-0.58,0.11-1.17,0.24-1.74c0.14-0.6-0.07-0.95-0.66-1.17
				C281.59,143.7,281.07,145.84,280.49,147.97z"/>
			<path class="st1" d="M267.02,129.44c0.01,0.14,0.13,0.13,0.24,0.12c1.69-0.09,3.1,0.72,4.56,1.39c0.95,0.44,1.89,0.88,2.83,1.33
				c0.15,0.07,0.29,0.11,0.38-0.05c0.08-0.15-0.09-0.21-0.18-0.28c-0.98-0.79-1.79-1.75-2.66-2.65c-0.93-0.96-2.12-1.47-3.45-1.61
				c-0.59-0.06-1.16,0.1-1.65,0.54C266.95,128.61,266.99,129.02,267.02,129.44z"/>
		</g>
		<g>
			<path class="st1" d="M25.86,141.7c-0.86-1.55-2.29-2.73-3.79-3.84c-0.18-0.14-0.35-0.28-0.62-0.17c-0.98,0.41-1.22,1.11-0.7,2.03
				c0.07,0.13,0.13,0.26,0.2,0.39c0.72,1.53,1.43,3.08,2.49,4.41c0.53,0.67,0.9,1.49,1.69,1.96c0.73,0.44,1.52,0.48,2.05,0.05
				c0.51-0.41,0.65-1.13,0.34-1.96C27.14,143.58,26.56,142.68,25.86,141.7z"/>
			<path class="st1" d="M31.36,141.05c-0.11-0.15-0.22-0.3-0.34-0.45c-0.11-0.12-0.23-0.24-0.36-0.35
				c-2.03-1.82-4.63-2.61-6.99-3.82c-0.37-0.19-0.7,0.16-0.89,0.42c-0.14,0.2,0.23,0.31,0.39,0.43c2.1,1.61,3.71,3.64,4.93,5.98
				c0.09,0.16,0.12,0.35,0.33,0.43c0.81,0.3,1.63,0.51,2.5,0.24c0.96-0.3,1.21-0.78,0.94-1.76
				C31.76,141.78,31.59,141.4,31.36,141.05z"/>
			<path class="st1" d="M32.41,139.12c0.53-0.51,1.06-1.08,1.31-1.83c0.28-0.82-0.02-1.53-0.78-1.95c-0.98-0.54-2.05-0.67-3.14-0.72
				c-1.39-0.06-2.79,0.12-4.18-0.02c-0.21-0.02-0.33,0.05-0.46,0.23c-0.61,0.86-0.61,0.85,0.36,1.29c0.25,0.11,0.5,0.22,0.74,0.32
				c1.67,0.72,3.32,1.48,4.7,2.67C31.52,139.61,31.9,139.42,32.41,139.12z"/>
			<path class="st1" d="M14.6,140.76c-1.55,1.28-3.05,2.6-4.14,4.31c-0.84,1.32-1.02,2.82-0.68,4.35c0.2,0.91,0.74,1.05,1.42,0.4
				c0.63-0.59,1.1-1.3,1.46-2.09c0.84-1.78,1.41-3.66,2.01-5.53C14.83,141.7,15,141.26,14.6,140.76z"/>
			<path class="st1" d="M13.33,151.6c0.6,0.93,1.54,0.97,2.1,0.18c0.49-0.69,0.73-1.5,0.85-2.33c0.34-2.23,0.21-4.45-0.17-6.66
				c-0.03-0.16,0.08-0.44-0.21-0.44c-0.25-0.01-0.24,0.25-0.29,0.42c-0.64,2.14-1.39,4.24-2.36,6.25
				C12.82,149.93,12.97,150.85,13.33,151.6z"/>
			<path class="st1" d="M26.04,133.02c-0.27,0.18-0.52,0.23-0.44,0.48c0.07,0.23,0.32,0.16,0.49,0.16c0.56,0,1.12-0.02,1.68-0.03
				c2.02-0.05,4.06-0.17,5.9,0.91c0.17,0.1,0.29,0.11,0.41-0.08c0.56-0.83,0.73-1.75,0.37-2.67c-0.35-0.89-1.2-1.09-2.05-1.17
				c-0.24-0.02-0.5,0.04-0.74,0.09C29.61,131.17,27.85,132.34,26.04,133.02z"/>
			<path class="st1" d="M19.69,139.78c-0.79,0.62-0.99,1.29-0.71,2.22c0.53,1.73,0.94,3.5,1.39,5.26c0.13,0.51,0.32,0.99,0.58,1.45
				c0.36,0.65,0.95,0.72,1.5,0.22c0.56-0.51,0.91-2.64,0.48-3.25C21.63,143.85,20.64,141.85,19.69,139.78z"/>
			<path class="st1" d="M17.85,141.53c-0.59,0.22-0.8,0.56-0.66,1.17c0.13,0.57,0.15,1.16,0.24,1.74c0.29,1.88,0.13,3.75-0.16,5.61
				c-0.06,0.39-0.08,0.73,0.26,0.95c0.34,0.22,0.67,0.06,0.98-0.15c1.05-0.73,1.32-1.63,0.99-2.86
				C18.93,145.84,18.41,143.7,17.85,141.53z"/>
			<path class="st1" d="M32.89,128.23c-0.49-0.43-1.06-0.6-1.65-0.54c-1.33,0.13-2.52,0.64-3.45,1.61c-0.87,0.9-1.68,1.86-2.66,2.65
				c-0.08,0.07-0.26,0.12-0.18,0.28c0.09,0.16,0.24,0.12,0.38,0.05c0.94-0.45,1.89-0.89,2.83-1.33c1.46-0.67,2.87-1.47,4.56-1.39
				c0.11,0.01,0.23,0.02,0.24-0.12C33.01,129.02,33.05,128.61,32.89,128.23z"/>
		</g>
	</g>
	<g>
		<path class="st6" d="M131.87,108.31c0.06-1.5-0.73-2.58-2.33-3.16c-0.27-0.1-0.5-0.22-0.53-0.54c-0.03-0.33,0.18-0.5,0.46-0.59
			c1-0.31,1.5-1.12,1.88-1.98c1.06-2.35-0.27-4.39-2.86-4.43c-1.27-0.02-2.14,0.71-2.95,1.55c-0.29,0.3-0.57,0.6-1.02,0.37
			c-0.45-0.23-0.35-0.65-0.28-1.05c0.01-0.06,0.03-0.12,0.04-0.18c0.25-1.68-0.76-3.22-2.38-3.6c-1.7-0.41-3.5,0.59-3.99,2.21
			c-0.2,0.67-0.23,1.36-0.3,2.04c-0.03,0.33-0.1,0.63-0.43,0.78c-0.34,0.15-0.6-0.05-0.84-0.25c-0.53-0.45-1.12-0.8-1.81-0.94
			c-1.58-0.4-2.56,0.06-3.26,1.53c-0.2,0.42-0.32,0.87-0.37,1.32c-0.14,1.18,0.6,2.61,1.48,2.94c0.32,0.12,0.69,0.21,0.65,0.63
			c-0.04,0.42-0.42,0.45-0.76,0.51c-0.58,0.1-1.09,0.3-1.25,0.96c-0.58,2.48,1.18,3.72,2.98,3.62c0.93-0.05,1.22,0.23,0.87,1.07
			c-0.45,1.06-0.25,2.05,0.14,3.04c0.36,0.92,1.02,1.43,2.04,1.48c1.6,0.09,2.24-0.25,2.95-1.67c0.06-0.11,0.11-0.23,0.17-0.33
			c0.31-0.48,0.78-0.49,1.09,0c0.17,0.26,0.29,0.56,0.45,0.82c0.83,1.35,2.7,1.88,3.93,1.1c1.5-0.94,2.03-2.33,1.54-4.02
			c-0.03-0.1-0.07-0.2-0.09-0.3c-0.11-0.56,0.17-0.84,0.72-0.75c0.43,0.07,0.86,0.16,1.3,0.2
			C130.87,110.86,131.8,110.04,131.87,108.31z M124.07,107.96c-0.25,0.45-0.59,0.8-1.08,0.99c-1.58,0.63-3.14,0.57-4.54-0.39
			c-0.87-0.59-1.01-1.64-1.11-2.62c-0.05-0.48,0.07-0.96,0.19-1.42c0.55-2.24,2.17-2.99,4.39-2.31
			C124.32,102.95,125.21,105.87,124.07,107.96z"/>
		<path class="st6" d="M177.86,201.36c0.42-0.11,0.83-0.27,1.25-0.42c0.53-0.18,0.85,0.05,0.84,0.62c0,0.1-0.02,0.21-0.03,0.31
			c-0.2,1.75,0.56,3.03,2.19,3.7c1.35,0.56,3.11-0.27,3.69-1.74c0.12-0.29,0.18-0.6,0.31-0.89c0.23-0.53,0.69-0.61,1.08-0.18
			c0.08,0.09,0.15,0.2,0.23,0.3c0.93,1.27,1.62,1.5,3.18,1.15c1-0.23,1.56-0.84,1.77-1.8c0.22-1.04,0.25-2.05-0.37-3.02
			c-0.49-0.77-0.25-1.1,0.67-1.2c1.8-0.21,3.32-1.72,2.33-4.07c-0.26-0.63-0.8-0.74-1.39-0.74c-0.34,0-0.72,0.04-0.83-0.38
			c-0.11-0.42,0.25-0.56,0.54-0.73c0.82-0.48,1.3-2.01,0.97-3.15c-0.13-0.44-0.32-0.86-0.59-1.24c-0.94-1.32-1.98-1.62-3.47-0.96
			c-0.66,0.26-1.18,0.7-1.63,1.23c-0.21,0.24-0.43,0.48-0.79,0.39c-0.35-0.09-0.46-0.37-0.55-0.69c-0.18-0.66-0.32-1.34-0.63-1.96
			c-0.75-1.52-2.69-2.2-4.31-1.51c-1.53,0.65-2.27,2.33-1.74,3.95c0.02,0.06,0.05,0.12,0.07,0.18c0.14,0.38,0.31,0.78-0.1,1.08
			c-0.4,0.3-0.73,0.05-1.06-0.2c-0.94-0.69-1.92-1.27-3.17-1.03c-2.54,0.48-3.52,2.71-2.08,4.85c0.53,0.78,1.15,1.49,2.19,1.63
			c0.28,0.04,0.52,0.17,0.55,0.5c0.02,0.32-0.18,0.48-0.43,0.62c-1.48,0.84-2.07,2.03-1.76,3.51
			C175.13,201.16,176.19,201.81,177.86,201.36z M183.57,191.78c2.07-1.04,3.8-0.57,4.71,1.54c0.19,0.44,0.39,0.89,0.42,1.37
			c0.06,0.99,0.1,2.04-0.66,2.77c-1.23,1.17-2.75,1.5-4.42,1.14c-0.52-0.11-0.91-0.39-1.23-0.8
			C180.93,195.94,181.32,192.91,183.57,191.78z"/>
	</g>
	<g>
		<path class="st7" d="M72.76,124.24c-0.55-0.3-1.03-0.61-1.42-1.05c-0.21,0.34-0.39,0.67-0.61,0.97c-0.11,0.15-0.16,0.25-0.03,0.43
			c0.31,0.4,0.6,0.82,0.91,1.25C71.97,125.28,72.31,124.75,72.76,124.24z"/>
		<path class="st7" d="M227.71,130.26c0.28-0.75,0.56-1.38,1.04-1.88c0.18-0.18,0.19-0.29-0.04-0.41c-0.52-0.27-0.86-0.72-1.11-1.26
			c-0.37,0.58-0.74,1.14-1.36,1.5C226.91,128.73,227.44,129.32,227.71,130.26z"/>
		<path class="st7" d="M162.24,181.52c-0.41-0.19-0.77-0.33-1.03-0.62c-0.24-0.28-0.46-0.57-0.72-0.89
			c-0.37,0.71-0.45,1.54-1.18,2.05c0.75,0.28,1.26,0.77,1.78,1.32C161.36,182.68,161.6,182.02,162.24,181.52z"/>
		<path class="st7" d="M281.42,139.33c0.48,0.8,1.25,1.27,2.01,1.75c0.39,0.25,0.72,0.27,0.87-0.31c0.26-0.96,0.66-1.88,0.78-2.89
			c0.21-1.81-0.71-3.4-2.4-4.11c-1.09-0.46-2.19-0.81-3.4-0.56c-0.45,0.09-0.91,0-1.36-0.12c-0.26-0.07-0.52-0.14-0.79-0.19
			c-0.59-0.12-1.19-0.21-1.57,0.41c-0.22,0.35,0.21,1.2,0.76,1.59c0.27,0.2,0.55,0.38,0.83,0.57c0.28,0.19,0.55,0.38,0.83,0.56
			C279.44,136.81,280.57,137.92,281.42,139.33z"/>
		<path class="st7" d="M189.1,110.48c0.08,0,0.17,0,0.25,0c0.42,0.02,0.86,0.08,1.08-0.4c0.22-0.48,0.02-0.9-0.27-1.27
			c-0.64-0.84-1.57-1.13-2.55-1.3c-0.45-0.08-0.94-0.11-1.21,0.4c-0.28,0.54-0.27,1.08,0.12,1.58
			C187.2,110.32,188.1,110.52,189.1,110.48z"/>
		<path class="st7" d="M126.33,191.63c0.38-0.51,0.38-1.04,0.08-1.58c-0.28-0.51-0.77-0.46-1.22-0.37c-0.97,0.2-1.9,0.51-2.51,1.37
			c-0.28,0.39-0.47,0.81-0.23,1.28c0.23,0.47,0.68,0.4,1.09,0.37c0.08-0.01,0.17,0,0.25-0.01
			C124.79,192.71,125.69,192.48,126.33,191.63z"/>
		<path class="st7" d="M121.29,103.17c-1.2-0.37-1.92-0.15-2.48,0.81c-0.43,0.73-0.57,1.54-0.41,2.36c0.1,0.52,0.14,1.17,0.65,1.44
			c0.84,0.44,1.75,0.64,2.72,0.43c1.12-0.25,1.44-0.54,1.66-1.66C123.74,104.9,122.97,103.69,121.29,103.17z"/>
		<path class="st7" d="M22.02,136.03c0.28-0.19,0.55-0.38,0.83-0.56c0.28-0.19,0.56-0.37,0.83-0.57c0.55-0.4,0.97-1.24,0.76-1.59
			c-0.38-0.62-0.98-0.53-1.57-0.41c-0.26,0.06-0.53,0.13-0.79,0.19c-0.45,0.12-0.91,0.21-1.36,0.12c-1.21-0.25-2.31,0.1-3.4,0.56
			c-1.68,0.71-2.6,2.3-2.4,4.11c0.11,1.01,0.52,1.93,0.78,2.89c0.16,0.58,0.48,0.55,0.87,0.31c0.76-0.48,1.53-0.96,2.01-1.75
			C19.43,137.92,20.56,136.81,22.02,136.03z"/>
		<path class="st7" d="M182.8,196.29c0.4,1.07,0.76,1.3,1.91,1.36c0.99,0.05,1.86-0.3,2.61-0.88c0.46-0.35,0.39-1,0.4-1.52
			c0.02-0.83-0.26-1.61-0.8-2.25c-0.71-0.85-1.46-0.95-2.58-0.38C182.77,193.42,182.22,194.74,182.8,196.29z"/>
	</g>
	<g>
		<g>
			<path class="st8" d="M261.39,149.71c-1.18,2.35-1.52,4.84-1.27,7.42c0.22,2.29,0.4,4.58,0.37,6.87c-0.03,2.48-0.48,4.9-1.71,7.1
				c-0.05,0.09-0.09,0.19-0.15,0.32c0.48-0.01,0.89-0.05,1.3-0.26c3.27-1.75,5.37-4.36,6.2-8.03c0.69-3.05,0.6-6.06,0.12-9.13
				c-0.49-3.17-1.31-6.3-1.46-9.53c0-0.08-0.04-0.15-0.07-0.26C263.7,146.14,262.35,147.81,261.39,149.71z"/>
			<path class="st8" d="M271.6,166.22c-1.69-0.11-3.37-0.18-5.05,0.1c-0.25,0.04-0.42,0.08-0.54,0.31
				c-1.04,1.92-2.47,3.49-4.42,4.77c1.92,0.16,3.69,0.26,5.47,0.18c4.52-0.2,7.66-2.58,9.99-6.27c0.02-0.02,0-0.07-0.01-0.17
				C275.33,166.08,273.49,166.34,271.6,166.22z"/>
			<path class="st8" d="M272.64,147.69c-0.31-0.14-0.29,0.15-0.33,0.29c-0.35,1.05-0.53,2.15-0.77,3.22
				c-0.47,2.1-1.37,4.02-2.93,5.5c-0.67,0.64-0.85,1.23-0.86,2.07c0,1.14-0.1,2.29-0.37,3.51c1.07-0.65,1.83-1.49,2.55-2.38
				c1.27-1.59,2.02-3.45,2.71-5.33c0.84-2.27,1.43-4.62,2.44-6.92C274.21,147.97,273.42,148.05,272.64,147.69z"/>
		</g>
		<g>
			<path class="st8" d="M166.68,107.48c0.61,0.98,1.33,1.84,2.27,2.47c1.74,1.16,3.69,1,5.63,0.82c0.28-0.03,0.36-0.26,0.49-0.44
				c0.75-1,1.64-1.84,2.87-2.22c0.35-0.11,0.34-0.23,0.11-0.45c-0.38-0.36-0.67-0.8-0.89-1.28c-0.2-0.44-0.55-0.64-1-0.75
				c-1.23-0.31-2.34,0-3.45,0.51C170.8,107,168.91,107.95,166.68,107.48z"/>
			<path class="st8" d="M203.08,111.88c1.81-0.03,3.14-1,4.34-2.21c0.19-0.2,0.2-0.37-0.15-0.38c-1.73-0.08-3.21-0.85-4.66-1.7
				c-0.88-0.52-1.73-1.1-2.6-1.62c-1.66-1-3.12-0.65-3.75,0.86c-0.11,0.27-0.09,0.37,0.21,0.4c0.59,0.05,1.17,0.16,1.69,0.42
				c1.25,0.62,2.53,1.31,2.71,2.87c0.1,0.82,0.53,1.04,1.16,1.22C202.37,111.81,202.72,111.88,203.08,111.88z"/>
		</g>
		<g>
			<path class="st8" d="M140.08,187.92c-1.12-0.47-2.25-0.76-3.46-0.42c-0.45,0.13-0.79,0.33-0.98,0.78
				c-0.21,0.48-0.48,0.93-0.85,1.3c-0.23,0.23-0.23,0.34,0.12,0.44c1.24,0.35,2.15,1.16,2.92,2.14c0.14,0.17,0.22,0.41,0.5,0.43
				c1.95,0.13,3.9,0.24,5.6-0.97c0.93-0.65,1.62-1.53,2.2-2.53C143.91,189.63,142,188.73,140.08,187.92z"/>
			<path class="st8" d="M110.91,194.27c0.62-0.19,1.05-0.42,1.12-1.25c0.14-1.56,1.4-2.28,2.63-2.94c0.52-0.27,1.1-0.4,1.68-0.47
				c0.3-0.03,0.33-0.13,0.2-0.4c-0.67-1.49-2.14-1.8-3.77-0.76c-0.86,0.55-1.69,1.15-2.56,1.69c-1.42,0.89-2.88,1.7-4.61,1.82
				c-0.35,0.02-0.34,0.2-0.14,0.39c1.23,1.19,2.59,2.12,4.4,2.1C110.22,194.44,110.57,194.37,110.91,194.27z"/>
		</g>
		<g>
			<path class="st8" d="M101.22,112.43c0.23-0.43,0.44-0.82,0.64-1.2c1.4-2.55,1.86-5.25,1.17-8.1c-0.44-1.84-0.87-3.68-0.91-5.58
				c-0.05,0-0.09,0-0.12,0.01c-0.07,0.05-0.13,0.11-0.19,0.16c-2.42,2.31-3.15,5.14-2.69,8.38
				C99.44,108.33,100.58,110.26,101.22,112.43z"/>
			<path class="st8" d="M112.25,117.15c-1.13-2.02-3.12-2.79-5.31-3.34c-2.57-0.65-4.63,0.09-6.34,2.01
				c-0.11,0.12-0.2,0.27-0.21,0.29C104.29,117,108.24,117.5,112.25,117.15z"/>
		</g>
		<g>
			<path class="st8" d="M35.3,144.22c-0.03,0.11-0.07,0.18-0.07,0.26c-0.15,3.23-0.97,6.35-1.46,9.53
				c-0.48,3.07-0.56,6.07,0.12,9.13c0.83,3.68,2.93,6.28,6.2,8.03c0.4,0.21,0.82,0.25,1.3,0.26c-0.06-0.14-0.1-0.23-0.15-0.32
				c-1.24-2.21-1.68-4.62-1.71-7.1c-0.03-2.29,0.15-4.59,0.37-6.87c0.25-2.58-0.09-5.07-1.27-7.42
				C37.65,147.81,36.3,146.14,35.3,144.22z"/>
			<path class="st8" d="M22.96,165.15c-0.01,0.1-0.02,0.14-0.01,0.17c2.33,3.69,5.47,6.07,9.99,6.27c1.78,0.08,3.55-0.02,5.47-0.18
				c-1.95-1.28-3.38-2.85-4.42-4.77c-0.12-0.23-0.29-0.27-0.54-0.31c-1.68-0.29-3.36-0.21-5.05-0.1
				C26.51,166.34,24.67,166.08,22.96,165.15z"/>
			<path class="st8" d="M24.91,147.66c1.02,2.3,1.6,4.65,2.44,6.92c0.7,1.88,1.44,3.74,2.71,5.33c0.71,0.89,1.48,1.73,2.55,2.38
				c-0.27-1.22-0.36-2.37-0.37-3.51c0-0.83-0.18-1.43-0.86-2.07c-1.56-1.48-2.46-3.4-2.93-5.5c-0.24-1.08-0.42-2.17-0.77-3.22
				c-0.05-0.14-0.02-0.43-0.33-0.29C26.58,148.05,25.79,147.97,24.91,147.66z"/>
		</g>
		<g>
			<path class="st8" d="M206.68,191.8c-0.09-3.27-1.29-5.95-4.06-7.81c-0.07-0.05-0.14-0.09-0.21-0.13c-0.03-0.01-0.07,0-0.12,0.01
				c0.28,1.88,0.16,3.77,0.04,5.65c-0.2,2.93,0.71,5.5,2.51,7.79c0.27,0.34,0.54,0.69,0.84,1.07
				C205.95,196.14,206.75,194.04,206.68,191.8z"/>
			<path class="st8" d="M207.12,201.88c-0.02-0.02-0.13-0.15-0.26-0.25c-2.01-1.61-4.16-2-6.59-0.92c-2.06,0.91-3.89,2-4.67,4.19
				C199.61,204.56,203.42,203.4,207.12,201.88z"/>
		</g>
	</g>
</g>
</svg>
