<?xml version="1.0" encoding="iso-8859-1"?>
<!-- Generator: Adobe Illustrator 22.1.0, SVG Export Plug-In . SVG Version: 6.00 Build 0)  -->
<svg version="1.1" id="Layer_1" xmlns="http://www.w3.org/2000/svg" xmlns:xlink="http://www.w3.org/1999/xlink" x="0px" y="0px"
	 width="500px" height="500px" viewBox="0 0 500 500" enable-background="new 0 0 500 500" xml:space="preserve">
<path fill="#383737" d="M466.524,396.354c-2.265-7.363-4.984-25.826-6.57-30.81c-1.586-4.984-0.793-6.91-3.058-9.628
	c-2.265-2.719-10.761-9.628-14.612-17.67c-3.851-8.042-3.058-9.628-6.909-18.916c-3.851-9.288-4.644-25.826-9.288-37.719
	c-4.644-11.893-10.421-24.24-10.761-33.528c-0.34-9.288-2.265-36.586-7.702-51.198c-0.906-2.605-2.152-5.55-3.398-8.722
	c3.964,1.019,7.589,1.926,10.421,2.718c11.554,3.285,26.392-7.929,33.415-11.44c7.023-3.625,12.8-19.596,11.78-20.842
	c-1.133-1.359-3.511-2.152-9.628-1.473c-6.117,0.68-23.56,7.249-33.415,4.191c-9.741-3.058-24.58-11.554-45.082-27.525
	c-3.058-2.379-6.456-4.531-9.854-6.23c-1.926-1.133-3.964-2.039-6.003-2.945c-0.34-0.113-0.68-0.227-0.906-0.453
	c-4.531-1.926-25.599-10.194-56.862-9.175c-31.829,1.019-66.716,6.456-77.704,8.382c-5.324-2.945-11.667-6.343-15.178-8.722
	c-5.89-4.078-26.958-26.619-27.978-29.79c-1.019-3.058,10.987-12.573,9.968-17.897c-1.019-5.437-10.761-23.9-14.838-27.185
	c-4.078-3.285-10.761-10.308-13.366-12.8c-2.605-2.605-5.89-3.625-10.987-3.625s-18.69-5.097-26.619-5.89
	c-7.929-0.793-26.958-0.793-32.849,1.812c-5.89,2.605-16.424,9.515-20.729,12.007c-4.304,2.605-5.097,10.987-6.683,13.819
	c-1.586,2.832-4.304,2.605-9.968,3.851c-5.664,1.246-23.107,1.586-26.166,6.117c-3.058,4.644,0,9.968,0,9.968
	S24.202,78.63,28.28,87.805c4.078,9.175,8.155,11.554,8.155,11.554c-2.265,9.741,2.832,13.026,4.871,16.651
	c2.039,3.625,3.285,8.722,8.948,11.327c5.664,2.605,21.068,2.605,24.127,6.117c3.058,3.625,11.554,17.67,12.573,25.373
	c1.019,7.702,0.226,36.247,0.226,36.247l0,0c-4.191,15.971-1.359,61.733,1.926,70.568c3.511,9.288,11.554,26.619,12.12,35.794
	c0.566,9.288,1.699,28.884,3.511,37.606c1.699,8.722,7.476,41.57,8.042,53.69c0.566,12.12-1.699,39.871-1.699,47.347
	c0,7.476-12.12,24.806-12.12,24.806s-12.8,2.945-12.8,9.288c0,4.871,5.89,7.023,8.495,6.683c1.133,0.793,2.719,1.586,4.871,1.926
	c2.492,0.453,4.984-0.793,7.136-2.492c1.133,0.34,2.492,0.566,3.964,0.566c5.437,0,7.702-2.379,13.819-6.23
	c6.117-3.851,9.288-13.819,9.288-13.819s2.265-16.991,6.117-26.166c3.851-9.288-2.265-18.916-1.133-35.794
	c1.133-16.991,9.288-62.072,7.702-68.982c-1.586-6.91,1.133-9.968,1.133-9.968s6.23,5.097,20.842,5.097s24.693-0.34,24.693-0.34
	s1.133,26.845,1.133,35.34c0,8.495-3.058,35.114-3.511,44.289c-0.34,9.288-3.058,12.346-3.511,16.198s-3.511,13.139-2.719,17.67
	c0.793,4.644,0.34,11.893-0.793,15.745s-6.57,9.628-4.984,13.479c0.453,1.019,0.793,1.926,1.133,2.492l0,0
	c0,0,1.586,11.101,7.929,10.534c6.343-0.566,6.343-0.566,6.343-0.566s2.265,1.699,4.078,1.699c1.699,0,6.909-2.945,6.909-2.945
	s0.566,1.699,5.21,1.133c4.644-0.566,4.191-8.948,4.191-8.948s-1.133-17.33,0-20.842c1.133-3.511,3.511-12.686,2.265-21.521
	c-1.133-8.835,9.968-62.412,11.214-72.38c1.133-9.968,8.495-40.438,9.628-45.875s0.793-6.91,0.793-6.91s28.884-21.521,33.188-21.521
	c4.191,0,0.34,12.346,27.411,40.098c26.958,27.751,37.379,31.603,45.875,51.991s-0.34,48.593-1.586,50.859
	c-1.133,2.265-18.463,10.421-18.463,14.612s2.265,8.835,5.777,9.288c3.511,0.34,8.042-0.793,8.042-0.793s3.398,2.265,5.89,2.265
	s9.062-3.511,9.062-3.511s3.851,0.793,6.57-1.133c2.719-1.926,11.214-28.884,14.272-45.875c3.058-16.991,4.191-46.668,3.511-49.273
	c-0.793-2.718-12.347-12.346-23.107-26.958c-10.761-14.612-7.363-51.198-6.117-53.917c1.133-2.718,16.991,19.596,22.314,26.958
	c5.437,7.363,16.198,26.166,25.373,35.794c9.288,9.628,26.165,25.373,34.321,35.454c8.042,9.968,14.272,40.891,14.272,50.519
	c0,9.628-2.265,18.916-1.586,26.166c0.793,7.363,4.191,6.57,6.117,6.57c1.926,0,3.851,2.265,10.421,1.586
	c6.57-0.793,6.57-3.851,6.57-3.851s6.57,2.718,8.495-1.926C477.285,441.776,468.79,403.603,466.524,396.354z M174.965,257.144
	c-46.894-30.583-32.622-58.108-18.35-58.674c16.311-0.566,20.049,17.784,20.049,17.784s5.324-18.01,21.521-15.971
	C212.345,201.982,224.238,230.639,174.965,257.144z"/>
<g>
</g>
<g>
</g>
<g>
</g>
<g>
</g>
<g>
</g>
<g>
</g>
<g>
</g>
<g>
</g>
<g>
</g>
<g>
</g>
<g>
</g>
<g>
</g>
<g>
</g>
<g>
</g>
<g>
</g>
</svg>
