<?xml version="1.0" encoding="utf-8"?>
<!-- Generator: Adobe Illustrator 25.2.0, SVG Export Plug-In . SVG Version: 6.00 Build 0)  -->
<svg version="1.1" id="Layer_1" xmlns="http://www.w3.org/2000/svg" xmlns:xlink="http://www.w3.org/1999/xlink" x="0px" y="0px"
	 width="300px" height="300px" viewBox="0 0 300 300" style="enable-background:new 0 0 300 300;" xml:space="preserve">
<style type="text/css">
	.st0{fill:#69A0A3;}
	.st1{fill:#B57044;}
	.st2{fill:#EE9754;}
</style>
<g>
	<path d="M26.7,111.2c-1.2,0.1-1.9,0.7-1.9,2.2c0,3.5,10.8,7.8,10.8,16c0,5.4-3.7,9.8-9,9.8c-5.9,0-9.2-4.3-9.2-4.3s1.9-2.5,3.7-5
		c2,1.7,3.3,2.5,4.6,2.5c1.9,0,2.6-0.9,2.6-2.8c0-4.5-10.4-6.9-10.4-16.7c0-5,3.9-8.3,7.8-8.3c5.8,0,7.4,3.2,7.4,3.2
		s-3.4,4.8-3.5,4.7C28.8,111.7,28,111.1,26.7,111.2z"/>
	<path d="M56,130.8h-8.3l-1.9,8.3l-6.7,0l8-34.4h9.6l7.9,34.4h-6.7L56,130.8z M54.6,124.6l-2.8-12.4L49,124.6H54.6z"/>
	<path d="M78.3,126.3v12.8h-6.7v-12.8l-7.8-21.8h7.1l4,12.3H75l4-12.3h7.1L78.3,126.3z"/>
	<path d="M114.4,126.3v12.8h-6.7v-12.8l-7.8-21.8h7.1l4,12.3h0.2l4-12.3h7.1L114.4,126.3z"/>
	<path d="M133.6,111v7.6h5.6v5.8h-5.6v9h8.9v5.8h-11.2v0h-4.5v-34.4h4.5v0h11.2v6.3H133.6z"/>
	<path d="M156.3,111.2c-1.2,0.1-1.9,0.7-1.9,2.2c0,3.5,10.8,7.8,10.8,16c0,5.4-3.7,9.8-9,9.8c-5.9,0-9.2-4.3-9.2-4.3s1.9-2.5,3.7-5
		c2,1.7,3.3,2.5,4.6,2.5c1.9,0,2.6-0.9,2.6-2.8c0-4.5-10.4-6.9-10.4-16.7c0-5,3.9-8.3,7.8-8.3c5.8,0,7.4,3.2,7.4,3.2
		s-3.4,4.8-3.5,4.7C158.5,111.7,157.7,111.1,156.3,111.2z"/>
	<path d="M200.5,111.5H194v27.7h-6.7v-27.7h-6.5v-6.7h19.7V111.5z"/>
	<path d="M226.5,121.3c0,8.2-2.1,17.8-10.8,17.8c-8.2,0-10.9-9.1-10.9-17.6c0-10.1,4.7-16.9,10.9-16.9
		C222.1,104.7,226.5,110.8,226.5,121.3z M219.9,121.4c0-1.1-0.3-10.6-4.2-10.6c-3.9,0-3.9,8.3-3.9,10.7c0,1.6,0,11.4,3.9,11.4
		C219.6,132.9,219.9,122.5,219.9,121.4z"/>
	<g>
		<path class="st0" d="M25.7,154.5v10.2h7.5v7.8h-7.5v20h-9.1V146h6v0h15.1v8.5H25.7z"/>
		<path class="st0" d="M117.4,173.5v-8.8h23.3v8.8H117.4z"/>
		<path class="st0" d="M229.2,155.1h-8.8v37.4h-9.1v-37.4h-8.8V146h26.7V155.1z"/>
	</g>
	<g>
		<path class="st1" d="M74.2,171.1c0,11.4-3.9,21.4-15.1,21.4c-10,0-14.8-8.5-14.8-22.5c0-0.2,0-24.5,0-24.5c0,0,9.5,0,9.5,0
			c0,0,0,18.6,0,18.8c0,4.1-0.2,18.9,5.3,18.9c5.9,0,5.5-14.5,5.8-18.6c0-0.3,0-19.1,0-19.1c0,0,9.6,0.1,9.6,0
			C74.3,145.6,74.2,170.6,74.2,171.1z"/>
		<path class="st1" d="M157.4,154.5v10.2h7.5v7.8h-7.5v20h-9.1V146h6v0h15.1v8.5H157.4z"/>
		<path class="st1" d="M258.8,155.1H250v37.4h-9.1v-37.4h-8.8V146h26.7V155.1z"/>
	</g>
	<g>
		<path class="st2" d="M113,187.3l-6.3,6c0,0-7-4.4-11.4-16c-0.8,0.2-1.6,0.4-2.3,0.5v14.8h-9.1v-46.5H93v0
			c5.5,0.3,16.4,2.2,16.4,12.7c0,6.7-2.9,11.3-6.5,14.4C107.1,182.4,113,187.3,113,187.3z M93,168.3c3-0.9,7.3-4.8,7.3-9.4
			c0-3.8-4.2-4.5-7.3-4.5V168.3z"/>
		<path class="st2" d="M185.7,154.5v10.2h7.5v7.8h-7.5v12.1h12v7.8h-15.1v0h-6.1V146h6.1v0h15.1v8.5H185.7z"/>
		<path class="st2" d="M265.6,192.5V146h9.1v46.5H265.6z"/>
	</g>
	<g>
		<g>
			<path d="M266.9,127.2c-0.6-0.5-1.2-1-1.7-1.6c-1.8-2.1-3.2-4-4.3-6c-0.5-0.9-1.5-1.7-2.6-2.2c-1.1-0.4-2.4-0.5-3.4-0.2
				c-1.3,0.4-2.3,1.3-3.2,2.5l0,0c-1.2,2-2.7,3.7-4.3,5.1c-0.7,0.6-1.5,1.2-2.3,1.8c-0.3,0.2-0.6,0.4-0.9,0.6
				c-1.4,1-2.2,2.5-2.5,4.3c-0.3,1.8,0.2,3.6,1.1,4.7c1.6,2,3.7,3,6.6,3c0.2,0,0.4,0,0.5,0l0,0c0.2,0,0.5,0,0.7-0.1
				c0.5-0.1,1-0.1,1.5-0.1c3.4,0,7,0,10.7,0.1c1.5,0.2,3.1,0,4.7-0.7c1.4-0.6,2.1-1.8,2.5-2.7c0.4-1.1,0.6-2.3,0.5-3.2
				C270.2,130.1,268.5,128.5,266.9,127.2z"/>
			<path d="M243.6,123.7c0.9-0.4,1.6-1.2,1.9-2.2c0.2-0.5,0.3-1.1,0.4-1.6c0-0.3,0.1-0.5,0.1-0.8l0,0l0,0c0-2.4-0.8-4.6-2.4-6.7
				c-1-1.3-2.1-2.2-3.4-2.8l0,0c-0.8-0.3-1.5-0.4-2.2-0.3c-0.7,0.1-1.3,0.5-1.9,1.2c-0.9,1.1-1.3,2.5-1.2,4.3
				c0.1,1.7,0.6,3.4,1.5,4.9c1,1.9,2.4,3.1,4,3.8c0.6,0.3,1.1,0.4,1.7,0.4C242.7,123.9,243.2,123.8,243.6,123.7z"/>
			<path d="M276.9,111.2L276.9,111.2c-0.8-1.5-2.3-2.1-3.8-1.7c-0.6,0.1-1.3,0.4-1.8,0.8c-1.4,1-2.6,2.3-3.3,3.8
				c-0.7,1.4-1.2,3.1-1.3,4.9c-0.1,0.8,0.1,1.6,0.3,2.4l0,0c0.3,1.1,0.9,1.9,1.8,2.3c0.5,0.2,1,0.4,1.6,0.4c0.5,0,1-0.1,1.5-0.3
				c0.6-0.2,1.2-0.6,1.5-0.8c2.7-2.2,4.2-5,4.3-8.4C277.6,113.4,277.4,112.3,276.9,111.2z"/>
			<path d="M258.1,113.5c0.6,1.2,1.6,2.1,2.7,2.3c0.2,0,0.4,0.1,0.6,0.1c0.9,0,1.9-0.4,2.7-1.1l0,0c1.3-1.2,2.2-2.7,2.8-4.7
				c0.7-2.5,0.7-4.7-0.1-6.7c-0.3-0.9-0.9-1.7-1.7-2.1c-0.7-0.5-1.6-0.7-2.5-0.5l0,0c-0.9,0.2-1.8,0.7-2.6,1.6l0,0
				c-1.7,2-2.6,4.5-2.7,7.4l0,0C257.3,111.1,257.6,112.3,258.1,113.5L258.1,113.5z"/>
			<path d="M249,115.1L249,115.1c0.7,0.4,1.4,0.7,2.1,0.7c0.2,0,0.4,0,0.6-0.1c0.9-0.2,1.7-0.7,2.3-1.6c0.9-1.3,1.3-2.7,1.2-4.4
				c0.1-2-0.3-3.4-1-5c-0.8-1.7-1.7-2.8-2.9-3.6c-0.8-0.5-1.7-0.7-2.6-0.6c-0.9,0.2-1.6,0.6-2.2,1.4l0,0c-0.4,0.7-0.8,1.5-1.1,2.4
				c-0.6,1.8-0.5,3.7,0.3,6C246.2,112,247.1,113.9,249,115.1z"/>
		</g>
	</g>
</g>
</svg>
