<?xml version="1.0" encoding="iso-8859-1"?>
<!-- Generator: Adobe Illustrator 25.2.0, SVG Export Plug-In . SVG Version: 6.00 Build 0)  -->
<svg version="1.1" id="Layer_1" xmlns="http://www.w3.org/2000/svg" xmlns:xlink="http://www.w3.org/1999/xlink" x="0px" y="0px"
	 width="300px" height="300px" viewBox="0 0 300 300" enable-background="new 0 0 300 300" xml:space="preserve">
<g>
	<g>
		<path fill="#297489" d="M168.575,164.798c-0.084,0-0.169-0.003-0.254-0.008c-2.205-0.139-3.881-2.038-3.742-4.242
			c0.302-4.945-0.158-19.118-5.836-25.194c-1.77-1.894-3.92-2.823-6.574-2.841c-2.661-0.052-4.754,0.852-6.556,2.738
			c-5.78,6.055-6.355,20.34-6.089,25.334c0.118,2.206-1.575,4.09-3.781,4.207c-2.204,0.119-4.09-1.575-4.207-3.781
			c-0.047-0.874-1.034-21.517,8.292-31.284c3.303-3.46,7.428-5.214,12.259-5.214c0.046,0,0.092,0,0.138,0
			c4.907,0.034,9.071,1.848,12.376,5.391c9.188,9.849,8.019,30.28,7.964,31.145C172.431,163.168,170.67,164.798,168.575,164.798z"/>
	</g>
	<g>
		<path fill="#F5BB00" d="M184.318,166.128c-0.108,0-0.218-0.004-0.327-0.013c-2.202-0.179-3.843-2.108-3.665-4.31
			c0.02-0.24,1.793-24.524-9.784-37.118c-4.582-4.986-10.549-7.429-18.239-7.47c-0.064,0-0.129,0-0.193,0
			c-7.568,0-13.483,2.381-18.079,7.278c-11.828,12.601-10.291,37.113-10.274,37.359c0.151,2.204-1.513,4.113-3.717,4.265
			c-2.199,0.157-4.113-1.513-4.265-3.716c-0.079-1.147-1.767-28.267,12.422-43.383c6.155-6.557,14.231-9.85,24.148-9.802
			c9.909,0.053,18.02,3.444,24.107,10.079c13.936,15.189,11.939,42.02,11.848,43.154
			C188.131,164.543,186.381,166.128,184.318,166.128z"/>
	</g>
	<g>
		<path d="M93.084,144.492c-4.327,0.011-11.018,0.333-19.876,0.954c-0.255,0.007-0.482,0.114-0.658,0.31
			c-0.165,0.185-0.246,0.408-0.234,0.647c-0.048,0.212-0.024,0.42,0.072,0.619c0.105,0.217,0.276,0.368,0.496,0.445
			c2.488,1.006,5.499,2.016,8.949,3c0,0,0,0,0,0c3.445,0.982,6.958,1.846,10.443,2.566c0.067,0.012,0.133,0.019,0.197,0.019
			c0.186,0,0.359-0.052,0.517-0.154c0.216-0.139,0.354-0.339,0.41-0.594c0.057-0.256,0.012-0.5-0.134-0.723
			c-0.145-0.225-0.347-0.363-0.596-0.411c-0.922-0.191-1.854-0.397-2.796-0.615c0.08-0.794,0.146-1.421,0.199-1.882
			c0.004-0.037,0.021-0.121,0.051-0.274l0.223-1.945c1.037-0.028,1.949-0.046,2.724-0.057c0.276,0.018,0.51-0.08,0.694-0.268
			c0.183-0.185,0.277-0.411,0.279-0.67c0.003-0.26-0.093-0.494-0.279-0.677C93.584,144.603,93.358,144.504,93.084,144.492z
			 M88.418,146.507c-0.062,0.62-0.127,1.17-0.194,1.654l-0.031,0.271c-0.061,0.429-0.122,0.996-0.183,1.689
			c-3.921-0.943-7.504-1.964-10.674-3.042C81.563,146.81,85.285,146.618,88.418,146.507z"/>
		<path d="M95.931,132.032c-0.254-0.062-0.497-0.021-0.723,0.118c-0.226,0.139-0.37,0.335-0.429,0.582
			c-0.065,0.273-0.154,0.671-0.27,1.235c-0.002,0.045-0.003,0.078-0.008,0.102c-0.05,0.25-0.096,0.464-0.136,0.645l-3.398-0.813
			c-1.42-0.353-2.486-0.615-3.198-0.785c-4.421-1.057-8.104-1.904-10.942-2.515c-0.246-0.058-0.486-0.019-0.713,0.12
			c-0.226,0.139-0.372,0.347-0.423,0.602c-0.052,0.255-0.006,0.495,0.135,0.712c0.14,0.217,0.342,0.358,0.605,0.421
			c2.825,0.608,6.49,1.457,10.893,2.523l7.345,1.757c0.039,0.023,0.081,0.04,0.12,0.048c0.089,0.028,0.18,0.042,0.271,0.042
			c0.153,0,0.306-0.041,0.451-0.12c0.233-0.128,0.39-0.334,0.448-0.58c0.124-0.401,0.258-0.964,0.398-1.664l0.039-0.161
			c0.104-0.492,0.187-0.866,0.248-1.123c0.06-0.247,0.019-0.487-0.12-0.713C96.384,132.238,96.185,132.093,95.931,132.032z"/>
		<path d="M101.658,115.076c-1.238-0.559-4.134-1.745-8.609-3.526c-4.092-1.634-6.975-2.772-8.823-3.484
			c-0.238-0.08-0.477-0.067-0.71,0.035c-0.24,0.106-0.408,0.284-0.5,0.528c-0.092,0.243-0.085,0.487,0.019,0.724
			c0.104,0.236,0.275,0.405,0.515,0.505c1.819,0.687,4.778,1.849,8.794,3.452c1.533,0.618,2.897,1.17,4.09,1.654l-0.34-0.009
			c-3.27-0.09-5.829-0.229-7.61-0.414c-0.328-0.028-0.607,0.083-0.815,0.323c-0.024,0.015-0.045,0.034-0.062,0.056
			c-0.161,0.202-0.233,0.434-0.215,0.689c0.018,0.261,0.136,0.485,0.331,0.641c1.982,1.747,4.036,3.626,6.119,5.598
			c-5.396-2.21-9.841-4.024-13.334-5.44c-0.234-0.099-0.478-0.097-0.723,0.004c-0.245,0.101-0.423,0.283-0.515,0.526
			c-0.091,0.241-0.087,0.486,0.013,0.729c0.101,0.245,0.271,0.418,0.504,0.517c0.001,0,0.002,0.001,0.003,0.001
			c3.981,1.603,9.948,4.041,17.735,7.245c0.125,0.052,0.251,0.079,0.379,0.079c0.09,0,0.181-0.013,0.271-0.04
			c0.225-0.064,0.402-0.2,0.505-0.375c0.156-0.188,0.229-0.409,0.216-0.658c-0.013-0.249-0.112-0.463-0.29-0.633
			c-2.673-2.625-5.219-5.025-7.575-7.142c1.362,0.077,3.04,0.144,5.001,0.2l1.219,0.033c2.137,0.056,3.498,0.091,4.091,0.104
			c0.266-0.002,0.495-0.091,0.681-0.262c0.189-0.174,0.292-0.396,0.307-0.664c0.011-0.304-0.112-0.569-0.314-0.725
			C101.924,115.229,101.801,115.136,101.658,115.076z"/>
		<path d="M110.237,102.377c-3.693-2.248-9.566-5.465-17.448-9.56c-0.223-0.129-0.466-0.156-0.722-0.079
			c-0.237,0.071-0.422,0.219-0.538,0.43c-0.152,0.156-0.24,0.345-0.262,0.565c-0.023,0.24,0.043,0.458,0.19,0.639
			c1.598,2.158,3.639,4.59,6.066,7.229c2.424,2.634,4.968,5.203,7.567,7.639c0.19,0.171,0.411,0.257,0.654,0.257
			c0.008,0,0.016,0,0.024,0c0.256-0.005,0.478-0.104,0.659-0.292c0.183-0.189,0.271-0.42,0.264-0.688
			c-0.007-0.269-0.108-0.492-0.294-0.66c-0.686-0.646-1.374-1.307-2.063-1.985c0.482-0.636,0.866-1.136,1.152-1.502
			c0.022-0.029,0.08-0.092,0.186-0.207l1.206-1.542c0.898,0.517,1.686,0.977,2.353,1.374c0.222,0.151,0.475,0.198,0.731,0.134
			c0.252-0.063,0.45-0.206,0.588-0.426c0.14-0.223,0.179-0.466,0.115-0.722C110.606,102.733,110.465,102.532,110.237,102.377z
			 M105.207,101.66c-0.377,0.497-0.719,0.932-1.029,1.31l-0.168,0.214c-0.278,0.336-0.626,0.789-1.037,1.345
			c-2.85-2.848-5.373-5.588-7.516-8.164C99.204,98.342,102.478,100.12,105.207,101.66z"/>
		<path d="M117.393,95.532l-0.379-0.514c-0.253-0.344-0.523-0.704-0.81-1.081c-0.285-0.375-0.49-0.648-0.616-0.818
			c-0.751-1.018-1.416-1.908-1.995-2.671c-1.671-2.222-3.022-3.986-4.015-5.245c0.147-1.553,0.263-3.522,0.344-5.853
			c0.013-0.256-0.077-0.491-0.26-0.679c-0.183-0.187-0.407-0.285-0.667-0.292c-0.248,0.003-0.489,0.078-0.682,0.253
			c-0.193,0.176-0.297,0.411-0.299,0.671c-0.064,1.938-0.156,3.613-0.273,4.987l-0.418-0.122c-0.267-0.079-0.489-0.141-0.665-0.187
			c-0.135-0.036-0.221-0.059-0.256-0.073c-0.012-0.006-0.025-0.01-0.038-0.014c-1.242-0.356-2.262-0.696-3.04-1.012
			c-0.242-0.088-0.484-0.08-0.719,0.026c-0.232,0.105-0.401,0.28-0.5,0.518c-0.101,0.242-0.102,0.486-0.002,0.727
			c0.1,0.241,0.278,0.415,0.531,0.517c0.818,0.324,1.891,0.675,3.188,1.042c0.119,0.047,0.37,0.119,0.958,0.288l1.302,0.372
			c0.976,1.257,2.315,3.017,3.983,5.235c0.579,0.762,1.249,1.648,2.008,2.654l0.604,0.819c0.286,0.387,0.561,0.75,0.821,1.08
			l0.764,1.035c0.156,0.212,0.368,0.336,0.628,0.369c0.045,0.006,0.089,0.008,0.132,0.008c0.205,0,0.396-0.063,0.567-0.19
			c0.209-0.155,0.336-0.366,0.376-0.629c0.04-0.265-0.023-0.504-0.187-0.711C117.662,95.892,117.533,95.722,117.393,95.532z"/>
		<path d="M128.882,82.621c-0.54-0.453-1.301-1.027-2.3-1.728c-0.028-0.014-0.076-0.044-0.144-0.09
			c-0.077-0.052-0.147-0.104-0.209-0.153c-0.047-0.038-0.103-0.083-0.167-0.109c-0.17-0.122-0.317-0.227-0.444-0.319
			c-0.36-0.247-0.668-0.476-0.924-0.685c-1.432-1.083-2.314-2.146-2.623-3.157c-0.322-1.089-0.298-1.987,0.073-2.668
			c0.309-0.574,0.789-0.917,1.471-1.049c0.732-0.147,1.435-0.012,2.147,0.414c0,0,0.001,0.001,0.002,0.001
			c0.808,0.473,1.416,1.23,1.805,2.244c0.086,0.254,0.262,0.443,0.507,0.549c0.243,0.105,0.489,0.112,0.731,0.018
			c0.245-0.093,0.422-0.265,0.527-0.51c0.106-0.246,0.109-0.491,0.013-0.716c-0.541-1.444-1.425-2.53-2.627-3.226
			c-1.111-0.663-2.276-0.882-3.469-0.649c-1.253,0.252-2.191,0.931-2.789,2.019c-0.612,1.141-0.683,2.525-0.21,4.113
			c0.24,0.824,0.68,1.611,1.306,2.337c0.486,0.579,1.153,1.191,1.98,1.817c0.27,0.206,0.6,0.441,0.983,0.701
			c0.132,0.096,0.3,0.215,0.497,0.351l0.105,0.08c0.067,0.057,0.147,0.114,0.239,0.171c0.087,0.054,0.151,0.09,0.157,0.09h0
			c0.92,0.656,1.642,1.197,2.144,1.607c0.715,0.604,1.292,1.215,1.715,1.815c0.379,0.541,0.563,1.067,0.545,1.566
			c-0.011,0.386-0.127,0.673-0.354,0.877c-0.199,0.177-0.405,0.233-0.659,0.176c-0.361-0.063-0.714-0.348-1.051-0.851
			c-0.147-0.211-0.351-0.346-0.604-0.4c-0.256-0.053-0.504-0.003-0.717,0.146c-0.212,0.148-0.347,0.352-0.4,0.604
			c-0.055,0.255-0.004,0.504,0.144,0.715c0.632,0.93,1.391,1.488,2.251,1.661c0.201,0.042,0.396,0.063,0.587,0.063
			c0.632,0,1.207-0.231,1.714-0.69c0.628-0.567,0.966-1.314,1.003-2.221c0.036-0.937-0.275-1.867-0.922-2.763
			C130.409,84.053,129.726,83.331,128.882,82.621z"/>
		<path d="M156.568,66.44c-0.25-0.043-0.485,0.008-0.705,0.154c-0.222,0.147-0.362,0.364-0.403,0.612
			c-0.031,0.134-0.026,0.271,0.016,0.409c-0.843,8.366-1.451,14.62-1.811,18.584c-0.027,0.268,0.045,0.505,0.216,0.707
			c0.171,0.199,0.389,0.308,0.648,0.326c0.025,0.001,0.05,0.002,0.075,0.002c0.227,0,0.435-0.075,0.618-0.225
			c0.206-0.167,0.323-0.379,0.351-0.637c0.104-1.239,0.209-2.442,0.317-3.609c1.564-0.193,2.938-0.974,4.084-2.322
			c1.196-1.393,1.95-3.114,2.24-5.116c0.283-2.074-0.005-3.922-0.857-5.492C160.36,67.988,158.75,66.847,156.568,66.44z
			 M160.317,75.05c-0.235,1.643-0.838,3.04-1.79,4.152c-0.001,0-0.001,0-0.001,0c-0.712,0.835-1.537,1.37-2.455,1.592l1.208-12.183
			c1.054,0.422,1.862,1.132,2.407,2.112C160.341,71.945,160.553,73.401,160.317,75.05z"/>
		<path d="M179.764,71.222c-0.577-0.551-1.279-0.727-2.082-0.52c-1.303,0.31-2.778,1.651-4.512,4.101
			c-0.038,0.049-0.068,0.102-0.066,0.114c-1.002,1.462-1.894,3.06-2.653,4.749c-0.761,1.695-1.295,3.302-1.588,4.778
			c-0.34,1.762-0.282,3.205,0.17,4.289c0.583,1.374,1.722,2.087,3.39,2.12c0.615-0.001,1.232-0.203,1.838-0.6
			c0.453-0.304,0.909-0.729,1.355-1.261c0.593-0.7,1.216-1.667,1.854-2.875c1.278-2.395,2.219-4.838,2.796-7.26
			c0.55-2.319,0.682-4.239,0.392-5.703C180.503,72.315,180.204,71.667,179.764,71.222z M178.415,78.402
			c-0.542,2.276-1.428,4.571-2.633,6.824c-0.57,1.082-1.113,1.934-1.614,2.534c-0.661,0.789-1.229,1.173-1.724,1.174
			c-0.845-0.011-1.388-0.324-1.658-0.957c-0.304-0.709-0.318-1.777-0.043-3.173c0.267-1.349,0.767-2.838,1.485-4.427
			c0.721-1.591,1.567-3.1,2.545-4.536l0.017-0.043c0.742-1.021,1.427-1.825,2.034-2.391c0.529-0.485,0.968-0.775,1.297-0.862
			c0.207-0.049,0.269,0.016,0.303,0.052c0.109,0.104,0.263,0.344,0.369,0.903C179.025,74.711,178.898,76.36,178.415,78.402z"/>
		<path d="M195.836,82.472c0.521,0.537,0.788,1.2,0.815,2.03c0,0.001,0,0.001,0,0.002c0.04,0.936-0.268,1.857-0.909,2.733
			c-0.166,0.211-0.23,0.462-0.187,0.723s0.172,0.472,0.381,0.624c0.211,0.156,0.454,0.211,0.715,0.168
			c0.264-0.044,0.471-0.174,0.609-0.378c0.921-1.237,1.354-2.569,1.289-3.956c-0.045-1.293-0.494-2.393-1.334-3.269
			c-0.893-0.917-1.979-1.346-3.208-1.251c-1.292,0.104-2.494,0.794-3.572,2.051c-0.563,0.649-0.987,1.446-1.258,2.365
			c-0.223,0.723-0.376,1.614-0.455,2.649c-0.027,0.339-0.046,0.743-0.057,1.205c-0.01,0.164-0.019,0.371-0.025,0.608l-0.011,0.133
			c-0.011,0.088-0.016,0.186-0.014,0.291c0.001,0.108,0.005,0.184,0.009,0.184c-0.053,1.137-0.117,2.038-0.189,2.673
			c-0.121,0.929-0.322,1.745-0.598,2.426c-0.248,0.611-0.591,1.05-1.021,1.306c-0.33,0.201-0.637,0.26-0.929,0.178
			c-0.257-0.071-0.415-0.213-0.505-0.459c-0.144-0.338-0.096-0.789,0.145-1.345c0.098-0.24,0.101-0.484,0.01-0.724
			c-0.093-0.245-0.27-0.426-0.512-0.525c-0.238-0.098-0.481-0.103-0.724-0.009c-0.247,0.094-0.424,0.266-0.524,0.508
			c-0.438,1.035-0.497,1.975-0.176,2.793c0.317,0.828,0.914,1.364,1.773,1.595c0.265,0.072,0.528,0.107,0.791,0.107
			c0.549,0,1.091-0.156,1.62-0.468c0.808-0.478,1.422-1.243,1.824-2.272c0.329-0.811,0.566-1.777,0.706-2.872
			c0.088-0.692,0.158-1.644,0.206-2.872c-0.004-0.03-0.004-0.085-0.001-0.168c0.002-0.092,0.007-0.179,0.016-0.259
			c0.006-0.06,0.013-0.131,0-0.2c0.01-0.208,0.019-0.388,0.028-0.546c0.013-0.434,0.037-0.817,0.074-1.148
			c0.136-1.792,0.551-3.109,1.233-3.916c0.742-0.861,1.511-1.327,2.284-1.384C194.811,81.752,195.355,81.971,195.836,82.472z"/>
		<path d="M202.004,100.255c0.001,0,0.001-0.001,0.002-0.001c2.822-2.215,5.202-4.153,7.079-5.767
			c0.195-0.179,0.305-0.398,0.327-0.651c0.023-0.261-0.058-0.5-0.235-0.694c-0.174-0.189-0.391-0.296-0.646-0.319
			c-0.265-0.02-0.5,0.059-0.694,0.236c-1.865,1.604-4.222,3.515-7.008,5.683c-0.57,0.455-1.446,1.135-2.627,2.042
			c-2.169,1.694-3.805,2.98-4.908,3.858c-0.208,0.167-0.328,0.379-0.357,0.634c-0.028,0.254,0.039,0.486,0.201,0.689
			c0.16,0.202,0.372,0.322,0.628,0.357c0.044,0.006,0.088,0.009,0.131,0.009c0.209,0,0.407-0.071,0.579-0.208
			c1.101-0.876,2.749-2.163,4.901-3.827C200.549,101.38,201.424,100.7,202.004,100.255z"/>
		<path d="M207.972,111.857c3.661-1.932,6.347-3.363,8.197-4.367c0.349,0.639,0.644,1.185,0.882,1.638
			c0.124,0.236,0.312,0.395,0.557,0.471c0.242,0.074,0.487,0.051,0.726-0.074c0.236-0.125,0.394-0.312,0.47-0.556
			c0.075-0.246,0.051-0.49-0.075-0.726c-0.794-1.506-1.653-3.106-2.575-4.796c-0.124-0.236-0.322-0.397-0.572-0.468
			c-0.25-0.071-0.492-0.041-0.722,0.089c-0.223,0.128-0.375,0.32-0.453,0.571c-0.077,0.254-0.057,0.496,0.064,0.725
			c0.234,0.419,0.501,0.898,0.798,1.437c-1.864,1.025-4.617,2.491-8.189,4.361l-2.822,1.489c-1.862,0.982-3.501,1.863-4.867,2.614
			c-0.225,0.118-0.379,0.307-0.458,0.562c-0.078,0.256-0.052,0.502,0.079,0.731c0.127,0.223,0.319,0.375,0.57,0.454
			c0.1,0.031,0.198,0.046,0.295,0.046c0.147,0,0.291-0.036,0.429-0.109c1.363-0.75,2.994-1.625,4.846-2.603L207.972,111.857z"/>
		<path d="M214.311,123.627c0.001,0,0.002,0,0.002-0.001c3.381-1.165,6.264-2.219,8.575-3.134c0.241-0.104,0.417-0.275,0.522-0.509
			c0.107-0.239,0.109-0.492,0.005-0.731c-0.102-0.236-0.271-0.409-0.506-0.514c-0.239-0.106-0.493-0.108-0.733-0.004
			c-2.283,0.905-5.136,1.94-8.48,3.079c-0.688,0.244-1.738,0.6-3.15,1.07c-2.604,0.891-4.57,1.572-5.899,2.041
			c-0.252,0.089-0.436,0.251-0.546,0.482c-0.11,0.231-0.122,0.473-0.035,0.718c0.086,0.244,0.246,0.427,0.476,0.543
			c0.134,0.068,0.271,0.102,0.413,0.102c0.106,0,0.214-0.019,0.323-0.058c1.331-0.47,3.31-1.147,5.883-2.014
			C212.566,124.215,213.616,123.858,214.311,123.627z"/>
		<path d="M221.073,139.03c3.453-0.06,5.639-0.099,6.556-0.116c0.272-0.002,0.503-0.098,0.684-0.284
			c0.182-0.186,0.272-0.413,0.271-0.675c0-0.265-0.103-0.499-0.296-0.678c-0.19-0.176-0.416-0.266-0.676-0.267
			c-0.934,0.02-3.122,0.059-6.566,0.118c-4.409,0.076-5.181,0.093-5.25,0.085c-1.176,0.019-2.268,0.037-3.276,0.054
			c3.856-1.666,8.611-3.556,14.155-5.629c0.24-0.088,0.42-0.255,0.532-0.496c0.114-0.245,0.123-0.494,0.024-0.743
			c-0.097-0.243-0.264-0.419-0.496-0.526c-0.233-0.106-0.48-0.116-0.736-0.024c-7.162,2.684-13.305,5.19-18.26,7.451
			c-0.216,0.1-0.374,0.255-0.468,0.459c-0.094,0.2-0.117,0.414-0.074,0.617c0.03,0.231,0.137,0.43,0.315,0.593
			c0.17,0.153,0.375,0.233,0.586,0.233c0.016,0,0.03,0,0.046-0.001c2.174-0.009,4.736-0.031,7.714-0.07
			C215.977,139.123,217.731,139.089,221.073,139.03z"/>
		<path d="M230.345,151.376l-0.019-0.199c0-0.001,0-0.002-0.001-0.004c-0.088-0.806-0.156-1.396-0.204-1.769
			c0.008-0.053,0.008-0.113,0.001-0.187c-0.041-0.26-0.165-0.473-0.367-0.632c-0.202-0.16-0.435-0.229-0.691-0.205
			c-2.304,0.295-5.25,0.605-8.753,0.921c-0.929,0.074-2.286,0.188-4.074,0.342c-2.691,0.226-4.678,0.399-5.982,0.521
			c-0.248,0.023-0.463,0.133-0.639,0.325c-0.179,0.196-0.261,0.434-0.239,0.675c0.015,0.446,0.07,1.032,0.167,1.781l0.016,0.165
			c0.062,0.524,0.106,0.919,0.131,1.183c0.025,0.267,0.142,0.487,0.346,0.656c0.179,0.148,0.38,0.223,0.6,0.223
			c0.032,0,0.065-0.002,0.098-0.005c0.261-0.023,0.479-0.14,0.647-0.345c0.169-0.204,0.241-0.442,0.217-0.707
			c-0.025-0.28-0.07-0.691-0.142-1.271c-0.017-0.061-0.027-0.106-0.031-0.145c-0.035-0.277-0.063-0.516-0.084-0.714
			c1.077-0.099,2.76-0.244,5.051-0.434c1.789-0.154,3.152-0.275,4.094-0.363l1.702-0.16c0.006,0.108,0.015,0.225,0.026,0.348
			c0.01,0.096,0.029,0.24,0.059,0.415l0.047,0.496c0.024,0.254,0.14,0.468,0.344,0.636c0.203,0.169,0.432,0.246,0.699,0.219
			c0.261-0.025,0.478-0.142,0.645-0.345c0.17-0.204,0.243-0.437,0.22-0.688c-0.011-0.122-0.035-0.306-0.07-0.535l-0.035-0.376
			c-0.012-0.124-0.021-0.24-0.026-0.349c1.514-0.143,2.937-0.294,4.237-0.45c0.026,0.256,0.063,0.581,0.109,0.974l0.019,0.199
			c0.078,0.825,0.139,1.396,0.183,1.721c0.041,0.261,0.165,0.473,0.367,0.632c0.206,0.162,0.443,0.229,0.701,0.194
			c0.257-0.034,0.469-0.155,0.629-0.357s0.229-0.438,0.203-0.713C230.499,152.734,230.433,152.175,230.345,151.376z"/>
	</g>
	<g>
		<path fill="#FF7786" d="M198.154,166.656c-0.095,0-0.19-0.003-0.287-0.01c-2.204-0.157-3.863-2.07-3.707-4.273
			c0.022-0.316,2.03-32.156-14.288-49.741c-7.086-7.636-16.774-11.54-28.798-11.604c-11.901-0.078-21.459,3.703-28.36,11.195
			c-16.104,17.485-13.479,49.756-13.45,50.081c0.193,2.199-1.433,4.141-3.632,4.335c-2.204,0.196-4.141-1.428-4.337-3.627
			c-0.13-1.463-2.986-36.069,15.512-56.184c8.422-9.158,19.85-13.801,33.964-13.801c0.116,0,0.229,0,0.346,0.001
			c14.336,0.077,25.992,4.851,34.644,14.189c7.902,8.529,13.059,20.524,15.325,35.655c1.663,11.099,1.08,19.707,1.055,20.067
			C201.99,165.047,200.234,166.656,198.154,166.656z"/>
	</g>
	<g>
		<path fill="#F5BB00" d="M100.7,171.124c0.662,27.584,23.214,49.745,50.957,49.745c27.743,0,50.295-22.161,50.957-49.745H100.7z"/>
		<g>
			<path fill="#F5BB00" d="M61.63,178.547c-0.809,0-1.475-0.644-1.499-1.457c-0.023-0.828,0.628-1.519,1.457-1.542l34.904-0.998
				c0.821-0.044,1.519,0.628,1.542,1.456c0.023,0.828-0.628,1.519-1.457,1.542l-34.904,0.998
				C61.66,178.547,61.645,178.547,61.63,178.547z"/>
		</g>
		<g>
			<path fill="#F5BB00" d="M241.598,179.552c-0.039,0-0.078-0.001-0.117-0.005l-34.816-2.675c-0.825-0.062-1.443-0.784-1.38-1.61
				c0.062-0.825,0.8-1.459,1.61-1.38l34.816,2.675c0.825,0.062,1.443,0.784,1.38,1.61
				C243.031,178.953,242.373,179.552,241.598,179.552z"/>
		</g>
		<g>
			<path fill="#F5BB00" d="M230.76,217.072c-0.229,0-0.463-0.053-0.682-0.164l-31.098-15.885c-0.737-0.377-1.03-1.28-0.653-2.019
				c0.378-0.736,1.28-1.028,2.019-0.653l31.098,15.885c0.737,0.377,1.03,1.28,0.653,2.019
				C231.831,216.773,231.305,217.072,230.76,217.072z"/>
		</g>
		<g>
			<path fill="#F5BB00" d="M151.417,261.482c-0.019,0-0.037,0-0.056-0.001c-0.828-0.03-1.475-0.726-1.444-1.554l1.271-34.896
				c0.03-0.828,0.745-1.474,1.554-1.444c0.828,0.03,1.475,0.726,1.444,1.554l-1.271,34.896
				C152.886,260.847,152.22,261.482,151.417,261.482z"/>
		</g>
		<g>
			<path fill="#F5BB00" d="M202.293,246.075c-0.384,0-0.768-0.146-1.061-0.439l-24.691-24.691c-0.586-0.586-0.586-1.535,0-2.121
				s1.535-0.586,2.121,0l24.691,24.691c0.586,0.586,0.586,1.535,0,2.121C203.061,245.929,202.677,246.075,202.293,246.075z"/>
		</g>
		<g>
			<path fill="#F5BB00" d="M100.626,246.729c-0.327,0-0.657-0.106-0.933-0.326c-0.648-0.516-0.756-1.459-0.24-2.107l21.735-27.329
				c0.516-0.647,1.46-0.756,2.107-0.24c0.648,0.516,0.756,1.459,0.24,2.107l-21.735,27.329
				C101.505,246.534,101.068,246.729,100.626,246.729z"/>
		</g>
		<g>
			<path fill="#F5BB00" d="M77.919,194.835c-0.66,0-1.264-0.438-1.446-1.105c-0.218-0.799,0.253-1.624,1.053-1.842l19.471-5.312
				c0.795-0.22,1.623,0.253,1.842,1.053c0.218,0.799-0.253,1.624-1.053,1.842l-19.471,5.312
				C78.183,194.818,78.05,194.835,77.919,194.835z"/>
		</g>
		<g>
			<path fill="#F5BB00" d="M69.752,213.776c-0.59,0-1.149-0.35-1.388-0.93c-0.315-0.766,0.05-1.643,0.816-1.958l32.294-13.283
				c0.768-0.313,1.644,0.051,1.958,0.817c0.315,0.766-0.05,1.643-0.816,1.958l-32.294,13.283
				C70.135,213.74,69.942,213.776,69.752,213.776z"/>
		</g>
		<g>
			<path fill="#F5BB00" d="M92.795,225.588c-0.428,0-0.854-0.183-1.15-0.536c-0.533-0.635-0.45-1.581,0.185-2.113l15.462-12.972
				c0.634-0.532,1.581-0.448,2.113,0.186c0.533,0.635,0.45,1.581-0.185,2.113l-15.462,12.972
				C93.477,225.473,93.135,225.588,92.795,225.588z"/>
		</g>
		<g>
			<path fill="#F5BB00" d="M129.915,245.299c-0.157,0-0.316-0.024-0.474-0.077c-0.786-0.262-1.211-1.11-0.95-1.896l6.375-19.15
				c0.262-0.785,1.11-1.214,1.897-0.949c0.786,0.262,1.211,1.11,0.95,1.896l-6.375,19.15
				C131.129,244.901,130.543,245.299,129.915,245.299z"/>
		</g>
		<g>
			<path fill="#F5BB00" d="M172.629,246.88c-0.682,0-1.298-0.467-1.46-1.159l-4.591-19.653c-0.188-0.807,0.313-1.613,1.12-1.802
				c0.808-0.188,1.613,0.313,1.802,1.12l4.591,19.653c0.188,0.807-0.313,1.613-1.12,1.802
				C172.856,246.867,172.741,246.88,172.629,246.88z"/>
		</g>
		<g>
			<path fill="#F5BB00" d="M208.625,226.197c-0.316,0-0.635-0.1-0.905-0.305l-16.082-12.194c-0.66-0.501-0.789-1.441-0.289-2.102
				c0.501-0.66,1.443-0.788,2.102-0.289l16.082,12.194c0.66,0.501,0.789,1.441,0.289,2.102
				C209.526,225.992,209.078,226.197,208.625,226.197z"/>
		</g>
		<g>
			<path fill="#F5BB00" d="M226.021,196.3c-0.171,0-0.345-0.029-0.514-0.091l-18.96-6.918c-0.778-0.284-1.18-1.146-0.896-1.923
				c0.283-0.779,1.147-1.178,1.923-0.896l18.96,6.918c0.778,0.284,1.18,1.146,0.896,1.923
				C227.209,195.923,226.634,196.3,226.021,196.3z"/>
		</g>
	</g>
</g>
</svg>
