<?xml version="1.0" encoding="utf-8"?>
<!-- Generator: Adobe Illustrator 26.3.1, SVG Export Plug-In . SVG Version: 6.00 Build 0)  -->
<svg version="1.1" id="Layer_1" xmlns="http://www.w3.org/2000/svg" xmlns:xlink="http://www.w3.org/1999/xlink" x="0px" y="0px"
	 width="300px" height="300px" viewBox="0 0 300 300" style="enable-background:new 0 0 300 300;" xml:space="preserve">
<style type="text/css">
	.st0{fill:none;}
	.st1{fill:#010101;}
	.st2{fill:#F9BE7C;}
	.st3{fill:#FFFFFF;}
	.st4{fill:#F8A07D;}
	.st5{fill:#F4B5D1;}
	.st6{fill:#DFB1D2;}
	.st7{fill:#A1CBD7;}
</style>
<g>
	<path class="st0" d="M234.9,183.3c0.3-2,0.5-4.1,0.5-6.1c0-1.6-0.2-3.5-0.4-5.5c-0.1-1.1-0.2-2.2-0.3-3.3c-0.3,0.6-0.6,1.1-1,1.5
		c-0.8,0.8-1.9,1.2-3.2,1.1c-0.5,0-1-0.1-1.4-0.2c0.2,0.3,0.3,0.6,0.4,0.9c3.7,0.5,4.3,2.9,4.3,5.6l0,0.5c0,1.7,0,3.5-1.3,4.7
		c-0.3,0.3-0.7,0.5-1.1,0.7c0.6,0.5,0.9,1.3,1.1,2c0.2,0,0.4,0,0.5,0c0.7,0,1.3,0.2,1.7,0.5C234.7,184.9,234.8,184.1,234.9,183.3z"
		/>
	<path class="st0" d="M225.5,153.3C225.5,153.3,225.5,153.3,225.5,153.3c0.1,0,0.2,0,0.4,0c0-0.1,0-0.2,0-0.3
		C225.7,153.2,225.6,153.2,225.5,153.3z"/>
	<path class="st0" d="M171.9,117.2c1.8,0.4,3,1.4,3.9,2.8c1.2-3.2,3.2-6.4,7.2-7.6c-0.8,0.1-1.5,0.1-2.2,0.1c-1.6,0-2.8-0.3-3.7-1.1
		c-0.5-0.5-0.9-1.1-1.2-1.8c-1.1-0.1-2-0.4-2.7-1.1c-1.2-1-1.8-2.8-1.9-5.8c-0.1-2.3,0.3-4.7,0.6-6.9c0.2-1.2,0.4-2.3,0.5-3.5
		c0.1-1.4,0.1-2.8,0-4.2c-1.5,1-3.3,0.6-4.7,0.2c-0.7-0.2-1.8-0.4-2-0.2c-0.1,0.1-0.2,0.3-0.3,0.9c-0.2,3.2,0,6.9,0.2,10.5
		c0.2,2.5,0.3,5.2,0.3,7.6c0,3.9-0.2,6-2.6,7.3c0.4-0.1,0.7-0.1,1-0.2C168.4,113.6,170.6,115,171.9,117.2z"/>
	<path class="st0" d="M191.9,114.3c0.1,0.2,0.2,0.4,0.2,0.6c1.8,0.3,3.1,1,3.7,2.3c1.7,3.5-1.8,9.4-5.1,14.1
		c-0.5,0.8-1.1,1.5-1.6,2.2c-1.5,2-2.9,3.8-4.1,7.2c-0.6,1.7-0.8,3.6-1,5.4c-0.4,3.4-0.8,7.1-3.6,9.4c2.3-0.1,3.9,0.3,5.1,1.3
		c0.5,0.5,0.9,1,1.1,1.6c0.9,0.1,1.7,0.4,2.4,0.9c0.1-1.1,0.5-2.2,1.3-3.1c0.7-0.8,1.7-1.4,3.1-1.9c-0.2-0.4-0.2-0.9-0.1-1.4
		c-0.3,0.1-0.7,0.2-0.9,0.2c-0.2,0-0.3,0-0.4,0c-1.2-0.2-2-0.7-2.4-1.6c-0.7-1.6,0.5-3.4,1.5-5c-1-0.2-1.9-0.6-2.6-1.2
		c-1.2-1-1.8-2.4-1.8-3.9c0-3,2.2-5.2,5.4-5.5c3.1-0.3,4.6,1.1,5.4,2.4c0.1,0.2,0.2,0.4,0.3,0.6c2,0.3,3.1,1.4,3.6,2.3
		c2.1,3.5,0.4,9.5-1.6,12.4c2.1,0,4.2,0.5,5.1,3c1,0.1,2,0.4,2.8,1.1c0.4-1.1,1.1-2.1,2-2.8c1.4-1.3,3.4-1.9,5.5-2.2
		c-0.1-0.2-0.2-0.4-0.3-0.7c-0.9-2.4-0.1-5.3,2-8.2c-6.9-0.2-10.1-3.4-10.2-6.5c-0.1-2.8,2.1-5.9,8.2-7.4c-3.9-3.6-4-6.4-3.5-7.9
		c0.7-2.3,3-3.7,6.2-3.7c1.8,0,3.8,0.4,5.8,1.3c-0.7-3.2-0.6-6,0.2-8c-0.5,0-0.9,0-1.4,0c-3.5,0-6.7-0.3-8.8-2.4
		c-0.4-0.4-0.7-0.8-1-1.2c-1.1-0.4-2.1-0.9-3-1.7c-0.2-0.2-0.4-0.4-0.5-0.6c-0.5,3.3-2.1,4.8-6.8,5.1c-5.2,0.2-7.3-0.4-8.2-3
		c-1.1-0.2-1.9-0.5-2.5-0.9c-0.5,2.9-1.9,4.3-5.1,5c0.4,0,0.8,0,1.2,0C189.6,112,191.1,112.8,191.9,114.3z"/>
	<path class="st0" d="M112.6,227.7c-0.2,0-0.4,0-0.6,0c1.1,0.6,2.1,1.3,2.8,2.4c1.5,0.6,2.7,1.3,3.6,2.5c0.1-1.2,0.2-2.4,0.2-3.8
		c0-1.5-0.1-2.9-0.3-4.3C117.2,226.2,115.1,227.4,112.6,227.7z"/>
	<path class="st0" d="M105.2,224.8c0,0-0.1,0.1-0.1,0.3c0,0.1,0,0.2,0,0.4c0.4,0.1,0.7,0.2,0.9,0.3l0.2,0.1c0.6,0.1,1.1,0.3,1.7,0.4
		c-0.3-0.2-0.5-0.3-0.8-0.5C106.4,225.4,105.5,224.9,105.2,224.8z"/>
	<path class="st0" d="M69.2,153.1c0.8-0.2,1.8-0.3,3-0.2c-1.7-6.1-5.5-14.5-13.4-14.5c-3.2,0-6.3,1.4-8.6,4c-1.8,2-3.1,4.7-3.8,8
		c-0.2,1-0.4,2.1-0.6,3.2c1,0.2,2,0.5,2.8,1c3.2,1.8,5,5.3,4.8,9c-0.1,1.1-0.4,2.2-0.8,3.1c1.8,0.7,3.5,1.9,4.8,3.3
		c2.2,1.1,4.3,2.9,5.3,4.8c1.4,2.5,1.9,5.1,2.4,7.6c0.2,0.9,0.4,1.8,0.6,2.7c0.8,3.1,2.1,6.3,3,8.4c0.2,0.4,0.4,0.8,0.6,1.2
		c0.2,0.5,0.5,1,0.7,1.5c0-0.1,0-0.2,0-0.3c0.2-1.6,0.4-3.1,0.4-4.6c0-2-0.2-4.1-0.4-6.1c-0.2-2.1-0.4-4.3-0.4-6.4
		c0-1.1,0.1-2.2,0.3-3.3c-0.9-0.3-1.7-0.7-2.5-1.3c-4.1-2.8-6.5-8-5.8-12.8C62.2,157.3,64.9,154.4,69.2,153.1z"/>
	<path class="st0" d="M230.5,87.5c-0.3,0-0.7,0-1-0.1c0,0.1,0.1,0.2,0.1,0.3c1.4,0.1,2.3,0.5,3,1.2c1,1,1.1,2.3,1.1,3.5l0,0.4
		c0,1.3,0,2.8-1.1,3.9c-0.2,0.2-0.5,0.4-0.7,0.5c0.3,0.5,0.5,1,0.6,1.5c0.2,0,0.3,0,0.4,0c0.7,0,1.3,0.2,1.7,0.4
		c0.1-0.8,0.2-1.6,0.3-2.4c0.3-1.7,0.5-3.5,0.5-5.1c0-1.3-0.2-2.9-0.4-4.5c-0.1-0.7-0.2-1.4-0.3-2.1c-0.2,0.4-0.5,0.9-0.9,1.2
		C233,87.2,231.9,87.5,230.5,87.5z"/>
	<path class="st0" d="M241.2,111.5c-0.8-0.5-1.4-1.2-1.9-2c-1.5-0.5-2.6-1.2-3.4-2.1c-0.4,0.9-0.9,1.7-1.5,2.4
		c-0.4,0.4-0.8,0.7-1.2,0.9c1.2,1.3,2.2,3.1,3.2,5.2C237.6,114.1,239.3,112.4,241.2,111.5z"/>
	<path class="st0" d="M169.5,159.1c0.7,0.5,0.9,1.3,1.1,2.3c0.5,0,1,0,1.4,0c0.2-1.5,0.8-2.8,2-3.8c0,0-0.1,0-0.1,0
		c-2.1,0-3.9-0.6-5.1-1.6c-0.5-0.5-1-1-1.3-1.6c-1-0.3-2-0.7-2.7-1.3c-0.1-0.1-0.1-0.1-0.2-0.2c-0.1,1.6-0.6,3.2-1.9,4.6
		c0,0,0,0,0,0c-0.8,0.8-2.8,1.8-4.6,2.5c1.5-0.3,3-0.6,4.6-0.9C166.5,158.4,168.3,158.2,169.5,159.1z"/>
	<path class="st1" d="M254.5,110.6c0.6,0.5,1.4,0.9,2.3,1.1c1,1.5,2.4,2.6,4.7,3.1c2.2,4.9,6.1,9.9,7.3,10.3c0.1,0,0.1,0,0.2,0
		c2,0,10.3-4.1,13.6-7.1c1.5-1.3,2.4-3.4,2.5-5.4c0.1-1.9-0.5-3.6-1.7-4.8c-2.6-2.8-6.5-3.3-9.7-1.3c-0.7-1.4-1.9-2.5-3.4-3.2
		c-0.3-0.6-0.7-1.1-1-1.5c-1.2-1.6-2.7-2.6-4.2-3.6c-0.5-0.4-1-0.7-1.5-1.1c-0.2-0.2-0.4-0.3-0.6-0.5c3.3-2.4,5.2-6.4,5.2-10.8
		c0-4.4-2.2-7.7-6.2-9.6c-2.6-3.1-7.5-4.8-14.1-4.8c-2.4,0-8.4,1-10.6,2.8c-1.1,0.9-1.8,2-2.2,3.2c-0.5-1.1-1.5-2.1-3.6-2.2
		c0,0,0,0,0,0c-0.4-1.4-1.3-2.8-3.9-2.9c-1,0-2.2-0.1-3.4-0.3c-5.3-0.5-12-1-15.3,2c-0.6,0.6-1.1,1.3-1.4,2.1
		c-0.7-0.6-1.6-0.9-2.6-1c-0.8-2.4-3-2.9-5.3-3.1c-4.9-0.4-8,0.2-9.5,1.9c-0.6,0.6-0.9,1.3-1,2.1c-0.7-0.5-1.5-0.9-2.5-1.1
		c-0.2-0.4-0.4-0.8-0.7-1.2c-1.4-1.5-3.8-2.2-7.4-2.1c-4.2,0.1-5.8,1.8-6.3,3.9c-0.4-0.1-1-0.2-1.6-0.3c-0.1-0.8-0.4-1.4-0.9-1.8
		c-1.1-1.1-2.9-1.2-6.7-1.1c-4.3,0.1-8,0.1-11.9,0.1c-0.5,0-1,0-1.5,0c0.7-1.1,1.7-1.5,4.4-2.4c1.1-0.4,2.3-0.8,3.9-1.4
		c0.4-0.2,0.7-0.5,0.7-1c0-0.4-0.3-0.8-0.7-1c-1.6-0.6-2.9-1-3.9-1.4c-4.3-1.5-4.3-1.5-5.8-5.8c-0.4-1.1-0.8-2.3-1.4-3.9
		c-0.2-0.4-0.5-0.7-1-0.7c-0.4,0-0.8,0.3-1,0.7c-0.6,1.6-1,2.9-1.4,3.9c-1.5,4.3-1.5,4.3-5.8,5.8c-1.1,0.4-2.3,0.8-3.9,1.4
		c-0.4,0.2-0.7,0.5-0.7,1c0,0.4,0.3,0.8,0.7,1c1.6,0.6,2.9,1,3.9,1.4c2.8,1,3.8,1.3,4.5,2.6c-2.2,0.5-4.2,2-4.2,6
		c0,4.7,0.8,7.4,2.6,8.6c0.7,0.4,1.4,0.6,2.2,0.6c0.4,1.1,1,1.8,1.8,2.3c1.1,0.7,2.4,0.7,3.6,0.3c-0.1,2.3-0.3,4.5-0.4,6.7
		c-0.2,3-0.5,6-0.5,9.1c0,2.5,0.6,4.2,1.8,5.3c0.7,0.6,1.6,1,2.7,1.2c0.3,0.7,0.7,1.3,1.2,1.7c0.9,0.8,2.2,1.2,3.9,1.2
		c0.5,0,1,0,1.6-0.1c0.6-0.1,1.2-0.2,1.7-0.3c-1.9,0.9-3.5,2.5-3.5,5.6c0,4.6,3.1,7.3,5.8,9.7c2.9,2.5,5.3,4.7,4.7,8.5
		c-0.2,1.3-1,2.5-1.9,3.9c-0.8,1.2-1.5,2.3-2,3.6c-0.6-1.5-1.3-2.8-1.8-3.9c-0.2-0.4-0.4-0.8-0.5-1.1c-1-2-2.3-5.1-3-8.1
		c-0.2-0.9-0.4-1.8-0.6-2.7c-0.5-2.6-1-5.2-2.4-7.5c-0.9-1.4-2.4-2.5-4.1-3.1c-1.7-2.4-5.1-3.9-8.3-3.3c-2.3,0.4-4.8,1.7-6.4,3.4
		c-1.3,1.4-2.3,3.1-3.1,5.4c-0.8,2.2-1.3,4.3-1.9,6.5c-0.7,2.7-1.4,5.4-2.5,8l-0.4,1c-0.5,1.2-1.1,2.6-1.7,4.1c0-1.5-0.1-3-0.4-4.4
		c-1-5.4-4.1-11.1-9.7-14.1c-3.1-3-7.4-5.1-13.1-5.2c-2.8,0-5.4,1-7.3,2.8c-1.8,1.7-2.7,4.1-2.7,6.7c0,2.1,0,4.5,0,7
		c0,2.7,0,5.4,0,8.1l0,1.6c0,0.4,0,0.9,0,1.3c-0.7-0.2-1.4-0.3-2.1-0.3c-0.3-1.6-0.7-3.2-1.1-4.7c-2.1-7.7-6.3-15-11.3-19.4
		c-2.9-2.5-6.2-4.4-9.9-5.6c0.5-0.2,1-0.4,1.3-0.7c0,0,0,0,0,0c0.7-0.6,1.2-1.4,1.5-2.2c0.7,0.7,1.6,1.1,2.7,1.4
		c1.2,2.1,3.4,3.2,6.7,3.3c0.3,0,0.5,0,0.7,0c1.8,0,3.2-0.3,4.3-1.3c1-1,1.4-2.4,1.4-4.6c0,0,0,0,0,0c0.9,1.4,2,2.2,3.7,2.5
		c1.5,2.6,3.4,3.3,7.4,3c8.2-0.6,8-5.3,7.6-17.7c0-1.5-0.1-3.2-0.1-5c0-1.7-0.1-4.4,0.2-6.8l0-0.2c0.2-1.7,0.3-3.2,0.3-4.9
		c0-7.4-1-10.1-4.9-10.7c-1-2.4-3-3.1-6.6-3.1c0,0,0,0,0,0c-2.3,0-4,0.6-5.1,1.8c-1.2,1.3-1.8,3.2-1.8,6.1c-0.9-1.7-1.9-3.1-3.1-4
		c-0.7-0.5-1.3-0.8-2-0.9c-0.6-0.8-1.2-1.5-1.9-2c-1-0.7-1.9-1-3.1-1c-3.4,0-5.7,1-7.1,3.2c-1.1,1.7-1.6,4.1-1.6,7.9
		c0,2.6,0.2,5.2,0.4,7.7c0.2,2.4,0.4,5,0.4,7.4c0,1.9-0.2,3.8-0.4,5.7c0,0.1,0,0.1,0,0.2c-0.3-0.7-0.5-1.3-0.8-1.9
		c-0.2-0.5-0.4-0.9-0.5-1.3c-1-2.5-2.3-6.2-3.1-9.8c-0.2-1-0.4-2-0.6-3.1c-0.5-2.9-1-5.9-2.4-8.6c-1-2-2.9-3.6-5-4.5
		c-0.9-1.1-2-1.9-3.2-2.5c0.6-1.8,1.1-3.5,1.3-4.8c0.3-2-0.3-4.1-1.6-5.8c-1.1-1.5-2.7-2.4-4.4-2.6c-3.8-0.5-7.1,1.7-8.2,5.2
		c-1.6-0.6-3.4-0.7-5.1-0.1c-1.9,0.6-3.3,1.8-4.1,3.5c-1.7,3.5-0.5,7.7,2.9,9.8c1.5,1,3.4,1.8,5.3,2.5c-0.6,1.7-1,3.4-1.5,5.1
		c-0.7,2.7-1.4,5.2-2.5,7.6c-0.2,0.4-0.4,0.9-0.7,1.4c-1.9,4-4.8,10.1-4.8,14.1c0.1,3,2.5,4.9,4.9,5.8c1.4,2.1,4.2,3.2,6.3,3.5
		c5,0.7,8.4-0.9,9.3-4.6c0.1-0.3,0.1-0.6,0.2-0.9c0.7,2.4,2.3,4,4.7,4.7c0.2,0.3,0.4,0.5,0.5,0.8c-2.8,0.1-5.6,0.6-8.5,1.4
		c-13.3,3.7-23,16.7-23.7,31.3c-2.3,0.6-4.1,1.9-5.6,3.9c-2.7,3.7-3.1,8.7-2.7,10.5c0.6,2.9,2.5,5.4,5.3,6.9c1.9,1,4,1.5,6.2,1.5
		c2.5,0,4.9-0.7,6.9-1.9c1.1,0.6,2.2,0.9,3.4,0.8c0.8-0.1,1.6-0.3,2.3-0.7c-0.7,1.6-1.2,3.3-1.7,4.9c-0.7,2.3-1.4,4.5-2.4,6.5
		l-0.3,0.5c-2,3.7-5.3,9.8-5.2,14.1c0.1,3,2.5,5,5,5.9c1.5,2.1,4.2,3.2,6.2,3.5c5,0.8,8.4-0.6,9.3-3.9c0.1-0.3,0.1-0.5,0.2-0.8
		c0.7,2.1,2.2,3.5,4.5,4.2c1.2,2.1,3.5,3.2,7,3.4c0.1,0,0.2,0,0.3,0c1.7,0,5.5-0.6,6.6-1.4c0,0,0,0,0,0c0.8-0.6,1.4-1.4,1.7-2.2
		c0.6,0.5,1.4,0.8,2.4,1.1c1.1,2.1,3.4,3.2,7,3.3c0.3,0,0.6,0,0.9,0c1.9,0,3.3-0.3,4.3-1.2c0.8-0.8,1.3-2,1.3-3.7c0-0.1,0-0.3,0-0.4
		c0.9,1.1,1.9,1.8,3.4,2.1c1.4,2.3,3,3.1,6.3,3.1c-2.2,0.6-4.3,1.6-6,2.9c-3.5,2.6-5.2,6.3-4.7,10.2c0.4,3.2,2.5,5.6,5,7.6
		c-0.5-0.1-1.1-0.1-1.7,0c-2,0.2-3.7,1-4.8,2.4c-0.8,1-1.2,2.1-1.4,3.4c-2.2-0.9-2.4-1.6-3.6-5c-0.4-1.1-0.8-2.3-1.4-3.9
		c-0.2-0.4-0.5-0.7-1-0.7c-0.4,0-0.8,0.3-1,0.7c-0.6,1.6-1,2.9-1.4,3.9c-1.5,4.3-1.5,4.3-5.8,5.8c-1.1,0.4-2.3,0.8-3.9,1.4
		c-0.4,0.2-0.7,0.5-0.7,1c0,0.4,0.3,0.8,0.7,1c1.6,0.6,2.9,1,3.9,1.4c4.3,1.5,4.3,1.5,5.8,5.8c0.4,1.1,0.8,2.3,1.4,3.9
		c0.2,0.4,0.5,0.7,1,0.7c0.4,0,0.8-0.3,1-0.7c0.6-1.6,1-2.9,1.4-3.9c1.4-4.2,1.5-4.3,5.4-5.6c1.1,1.4,2.6,2.6,4.4,3.5
		c2.7,3,7.5,4.8,12.1,4.8c0.5,0,1.1,0,1.6-0.1c5.7-0.5,10.8-2.8,13.6-6.2c0.5-0.6,0.9-1.2,1.3-1.9c0.4,0.7,0.9,1.4,1.5,1.9
		c0.8,0.7,1.7,1.2,2.8,1.6c0.3,0.5,0.7,0.9,1.2,1.3c2.3,2,5.8,2.6,9.7,2.6c2.8,0,5.7-0.3,8.4-0.7c2.7-0.4,4.8-1.6,6-3.6
		c0.8,0.6,1.7,1,2.6,1.3c0.2,0.5,0.6,0.9,1,1.3c1.5,1.5,3.9,2,5.7,2c0.1,0,0.2,0,0.3,0c5-0.1,8.3-2.2,9.1-5.8
		c0.1-0.5,0.2-0.9,0.3-1.4c0.4,1,0.9,1.8,1.6,2.5c0.8,0.7,1.7,1.2,2.9,1.5c0.3,0.5,0.6,1,1.1,1.4c1.4,1.3,3.3,1.9,6.1,1.8
		c1.5,0,5.8-1.3,7-2.4c0,0,0,0,0,0c1-1,1.5-2.2,1.8-3.5c1,1.2,2.3,2.1,3.8,2.7c1.7,2.3,4.6,3.5,7.5,3.5c7.2,0,7.8-6.2,8.3-11.7
		c0.2-2.1,0.4-4.3,1-6.2c1.1-3.7,2.5-5.6,4-7.7c0.5-0.7,1.1-1.5,1.6-2.3c1.1-1.7,2-3.3,2.8-4.8c4.1,1.4,4.2,1.5,5.6,5.7
		c0.4,1.1,0.8,2.3,1.4,3.9c0.2,0.4,0.5,0.7,1,0.7s0.8-0.3,1-0.7c0.6-1.6,1-2.9,1.4-3.9c1.5-4.3,1.5-4.3,5.8-5.8
		c1.1-0.4,2.3-0.8,3.9-1.4c0.4-0.2,0.7-0.5,0.7-1c0-0.4-0.3-0.8-0.7-1c-1.6-0.6-2.9-1-3.9-1.4c-4.3-1.5-4.3-1.5-5.8-5.8
		c-0.4-1.1-0.8-2.3-1.4-3.9c-0.2-0.4-0.5-0.7-1-0.7s-0.8,0.3-1,0.7c-0.6,1.6-1,2.9-1.4,3.9c-1.1,3.2-1.4,4-3.3,4.9
		c0.5-2.1,0.5-3.9-0.1-5.3c-0.7-1.6-2-2.6-4-3.1c-0.8-1.6-2.2-2.6-4.4-3c-6.6-1.2-9.6,2.7-11.3,7c-1-2-2.3-3.6-4.6-4.1
		c-1.4-2.2-3.4-3.5-7.1-3c-2.5,0.4-7.7,1.1-7.7,7c0,4.8,2.9,8,5.7,11.1c2.8,3.2,5.5,6.1,4.9,10.6c-0.2,1.4-1,2.7-1.9,4.2
		c-0.6,1-1.3,2-1.7,3.1c-0.6-2-1.4-3.9-2.1-5.4c-0.2-0.4-0.3-0.8-0.5-1.1c-1.4-3.5-2.5-6.6-3.1-9.3c-0.2-0.9-0.4-1.9-0.6-2.9
		c-0.5-2.8-1-5.7-2.4-8.1c-0.9-1.6-2.5-2.8-4.3-3.5c-1.7-2.4-5-3.8-8-3.4c-2.3,0.3-4.8,1.6-6.4,3.3c-1.3,1.4-2.3,3.1-3.1,5.3
		c-0.8,2.1-1.3,4.2-1.8,6.2c-0.7,2.7-1.4,5.3-2.5,7.8l-0.6,1.3c-1,2.3-2.3,5.1-3.3,7.9c-0.1-0.1-0.2-0.3-0.4-0.4
		c-0.8-0.7-1.7-1.2-2.8-1.4c-0.3-0.6-0.7-1.1-1.1-1.5c-1.2-1.1-2.8-1.6-4.8-1.5c-1.3,0.1-2.5,0.6-3.6,1.3c0-0.4,0.1-0.8,0.2-1.3
		c0-0.3,0.1-0.6,0.1-0.8c0.1-1.3,0.4-2.6,0.6-3.8c0.4-2.1,0.8-4.2,0.8-6.6l0-0.5c0-2.6,0-4.8-1.6-6.1c-0.7-0.6-1.6-0.9-2.7-1
		c-0.2-0.7-0.6-1.3-1.2-1.8c-0.5-0.4-1.2-0.8-2-0.9c4.7-1.6,8.3-5.4,10.3-11.1c2.9-8.4,1.5-18.9-3.4-24.4c-1.2-1.3-2.6-2.3-4-3
		c-3.1-3.4-7.1-4.6-11.8-3.5c-4.4,1-9.1,5-11.7,11.2c-0.8,1.9-1.5,4-1.9,6c0.1-0.9,0.1-1.8,0.1-2.7c0-3.7-0.3-6.3-1.8-7.7
		c-0.7-0.7-1.7-1-2.8-1.2c-0.3-0.7-0.6-1.3-1.1-1.7c-1.3-1.2-3.1-1.3-5.8-1.2c-4.9,0.3-7,2.5-6.9,7.5c-0.9-1.5-1.9-2.7-3.2-3.5
		c-0.5-0.3-1-0.5-1.5-0.7c-0.1-0.2-0.3-0.4-0.5-0.6c1.5,0.6,3.2,0.7,4.7,0.1c2-0.7,3.5-2.1,4.6-4.2c1.3,0.5,2.7,0.6,4.1,0.3
		c1.5-0.3,2.8-1.2,3.8-2.2c0.4,0.4,0.8,0.8,1.2,1.1c1.2,0.8,2.6,1.2,4.4,1.2c2,0,4.5-0.6,7.3-1.7c4.7-1.9,8-5.1,10.2-8.9
		c0.1,1.2,0.6,2.2,1.5,2.9c0.7,0.6,1.7,0.9,2.7,1.1c0.2,0.7,0.7,1.3,1.3,1.8c1.1,0.9,2.7,1.2,4.1,1.2c0.7,0,1.4-0.1,2-0.2
		c4.9-1,8.1-3.5,8.9-7c0.2-0.7,0.3-1.4,0.4-2.2c0,0,0,0,0,0c0.3,0.7,0.8,1.3,1.3,1.8c0.7,0.5,1.5,0.9,2.5,1c0.3,0.8,0.8,1.4,1.4,1.9
		c0.7,0.6,1.6,0.9,2.7,1c-0.4,0.1-0.8,0.1-1.1,0.2c-2.1,0.4-4.3,0.8-6.6,1.2c-3,0.6-6.5,1.9-6.5,7.1c0,4.4,0.8,6.8,2.5,7.8
		c0.7,0.4,1.4,0.5,2.1,0.4c0.4,1.2,1,2,1.8,2.5c1.2,0.7,2.5,0.5,3.7,0c-0.1,2.1-0.3,4.1-0.4,6.2c-0.2,3-0.5,6.1-0.5,9.1
		c0,2.5,0.6,4.2,1.8,5.2c0.7,0.6,1.6,1,2.7,1.1c0.3,0.7,0.7,1.3,1.2,1.8c0.9,0.8,2.2,1.2,3.8,1.2c0.5,0,1.1,0,1.7-0.1c0,0,0,0,0,0
		c7.1-1,7.4-3.1,7.4-9c0-2.6-0.2-5.3-0.3-8c-0.2-3.8-0.5-7.7-0.2-11c0-0.5,0.2-0.9,0.3-1.1c0.3-0.2,1.2-0.1,2,0
		c1.4,0.2,3.2,0.4,4.7-0.8c0.1,1.5,0.1,3,0,4.5c-0.1,1.3-0.3,2.6-0.5,3.9c-0.3,2.5-0.7,5.1-0.6,7.6c0.1,3.4,0.7,5.3,2,6.4
		c0.7,0.6,1.7,0.9,2.7,1c0.3,0.8,0.7,1.4,1.2,1.9c1,0.9,2.3,1.1,3.7,1.1c0.8,0,1.5-0.1,2.3-0.2c5.3-0.6,7.3-2.3,7.9-5.9
		c0.7,0.6,1.6,1,2.7,1.1c0.3,0.7,0.6,1.3,1.1,1.7c1.4,1.3,3.7,1.4,7,1.3c4.5-0.2,6.2-2,6.7-5.6c0.3,0.5,0.6,0.9,1,1.2
		c0.9,0.8,1.9,1.4,3,1.7c0.3,0.4,0.6,0.8,1,1.2c2.1,2,4.9,2.4,8.1,2.4c0.9,0,1.8,0,2.7-0.1c1.4,0,2.9-0.1,4.3,0
		c2.2,0.1,4-0.5,5.3-1.8c0.8-0.7,1.4-1.7,1.8-2.8c0.9,1.3,2.1,2.2,3.8,2.8c1.3,2.1,3.6,3.2,7,3.5c2.5,0.3,5,0.3,6.6-1.2
		c0.4-0.4,0.8-0.9,1-1.5c0.7,0.6,1.6,1.1,2.6,1.4c1,1.5,2.5,2.7,4.9,3.1c0.5,0.1,0.9,0.1,1.4,0.1c0.8,0,1.5-0.1,2.4-0.3c0,0,0,0,0,0
		c3.2-0.8,6.2-2.2,6.2-6.8c0-2.7-1.8-5.5-2.4-6.3c-1.2-1.7-2.6-2.9-4-4.1c-0.9-0.7-1.7-1.4-2.4-2.2c3.4-2.2,5.2-5.9,5.2-10.4
		c0-5.8-3.7-10.3-8.5-13c-2.9-2.7-6.8-4.6-10.7-5.6c0.6-2,0.6-4.5-0.1-7c2,0.6,3.9,0.8,5.6,0.8c5,0,7.1-2.5,7.4-4.9
		c0.5-3.3-2.1-7.5-8.8-10.5c4.4-3.3,7.2-8,6.5-11.5c-0.5-2.3-2.4-3.6-5.1-3.6c-1.2,0-2.7,0.3-4.4,0.8c0.4-3.1-0.3-5-1.1-6.2
		c1.7,0,3.2-0.3,4.4-1.3C253.9,111.6,254.2,111.1,254.5,110.6z M70.1,195.9c0,0.1,0,0.2,0,0.3c-0.2-0.5-0.5-1-0.7-1.5
		c-0.2-0.5-0.4-0.9-0.6-1.2c-1-2.1-2.3-5.3-3-8.4c-0.2-0.9-0.4-1.8-0.6-2.7c-0.5-2.5-1-5.2-2.4-7.6c-1.1-1.9-3.1-3.7-5.3-4.8
		c-1.3-1.4-3-2.6-4.8-3.3c0.5-1,0.8-2,0.8-3.1c0.2-3.7-1.6-7.2-4.8-9c-0.8-0.5-1.8-0.8-2.8-1c0.1-1.1,0.3-2.1,0.6-3.2
		c0.8-3.3,2.1-6,3.8-8c2.3-2.5,5.4-4,8.6-4c7.9,0,11.7,8.4,13.4,14.5c-1.1-0.1-2.2-0.1-3,0.2c-4.3,1.3-7.1,4.2-7.7,8.3
		c-0.7,4.8,1.7,10,5.8,12.8c0.8,0.5,1.7,1,2.5,1.3c-0.2,1.1-0.3,2.2-0.3,3.3c0,2.2,0.2,4.3,0.4,6.4c0.2,2,0.4,4.1,0.4,6.1
		C70.5,192.8,70.3,194.3,70.1,195.9z M118.4,232.5c-0.9-1.1-2.1-1.9-3.6-2.5c-0.7-1.1-1.6-1.8-2.8-2.4c0.2,0,0.4,0,0.6,0
		c2.5-0.3,4.5-1.5,5.7-3.1c0.2,1.4,0.3,2.7,0.3,4.3C118.6,230.2,118.5,231.4,118.4,232.5z M106.6,196.2c1.1,4.6,4.1,7.9,7.7,9.4
		c1.9,2.2,4.5,3.5,7.7,3.9c-3.5,1.3-4.1,4-4.2,6.8c-0.9-0.9-2.1-1.5-3.1-1.9c-1-1.4-2.6-2.3-4-2.9c-2.5-1.1-5.3-1.5-8-1.5
		C106.9,208.4,106.9,204.2,106.6,196.2z M230.5,87.5c1.4,0,2.5-0.4,3.4-1.2c0.4-0.4,0.7-0.8,0.9-1.2c0.1,0.7,0.2,1.4,0.3,2.1
		c0.2,1.6,0.4,3.2,0.4,4.5c0,1.6-0.3,3.4-0.5,5.1c-0.1,0.8-0.2,1.6-0.3,2.4c-0.5-0.2-1-0.4-1.7-0.4c-0.1,0-0.2,0-0.4,0
		c-0.1-0.5-0.3-1-0.6-1.5c0.3-0.2,0.5-0.3,0.7-0.5c1.1-1.1,1.1-2.6,1.1-3.9l0-0.4c0-1.2-0.1-2.5-1.1-3.5c-0.7-0.7-1.6-1-3-1.2
		c0-0.1-0.1-0.2-0.1-0.3C229.8,87.5,230.2,87.5,230.5,87.5z M235.9,107.5c0.8,1,1.9,1.7,3.4,2.1c0.5,0.8,1.1,1.4,1.9,2
		c-1.9,0.9-3.6,2.5-4.9,4.4c-0.9-2.2-2-3.9-3.2-5.2c0.5-0.3,0.9-0.5,1.2-0.9C235.1,109.2,235.6,108.4,235.9,107.5z M172.4,88.2
		c0.1,1.4,0.1,2.9,0,4.2c-0.1,1.1-0.3,2.3-0.5,3.5c-0.3,2.3-0.7,4.6-0.6,6.9c0.1,2.9,0.7,4.7,1.9,5.8c0.7,0.6,1.6,0.9,2.7,1.1
		c0.3,0.8,0.7,1.4,1.2,1.8c0.9,0.8,2.1,1.1,3.7,1.1c0.7,0,1.4-0.1,2.2-0.1c-4,1.2-6,4.4-7.2,7.6c-0.9-1.4-2.1-2.4-3.9-2.8
		c-1.4-2.2-3.5-3.6-7.6-2.9c-0.3,0.1-0.7,0.1-1,0.2c2.4-1.3,2.6-3.4,2.6-7.3c0-2.5-0.2-5.1-0.3-7.6c-0.2-3.6-0.5-7.3-0.2-10.5
		c0-0.5,0.2-0.8,0.3-0.9c0.3-0.2,1.3,0,2,0.2C169.1,88.7,170.9,89.1,172.4,88.2z M172,161.4c-0.4-0.1-0.9-0.1-1.4,0
		c-0.1-1-0.4-1.8-1.1-2.3c-1.2-1-3-0.8-6.7,0c-1.6,0.3-3.1,0.6-4.6,0.9c1.8-0.7,3.8-1.8,4.6-2.5c0,0,0,0,0,0
		c1.3-1.3,1.8-2.9,1.9-4.6c0.1,0.1,0.1,0.1,0.2,0.2c0.7,0.6,1.6,1,2.7,1.3c0.3,0.6,0.7,1.2,1.3,1.6c1.2,1,3.1,1.6,5.1,1.6
		c0,0,0.1,0,0.1,0C172.8,158.6,172.2,160,172,161.4z M207.6,157.8c-0.8-0.7-1.8-1-2.8-1.1c-0.8-2.5-3-2.9-5.1-3
		c2-2.9,3.7-8.9,1.6-12.4c-0.6-1-1.7-2.1-3.6-2.3c-0.1-0.2-0.2-0.4-0.3-0.6c-0.7-1.3-2.3-2.7-5.4-2.4c-3.3,0.3-5.4,2.5-5.4,5.5
		c0,1.6,0.6,3,1.8,3.9c0.7,0.6,1.6,1,2.6,1.2c-1,1.5-2.2,3.4-1.5,5c0.4,0.8,1.2,1.4,2.4,1.6c0.1,0,0.3,0,0.4,0
		c0.3,0,0.6-0.1,0.9-0.2c-0.1,0.5,0,0.9,0.1,1.4c-1.3,0.4-2.3,1-3.1,1.9c-0.8,0.9-1.2,2-1.3,3.1c-0.6-0.4-1.4-0.7-2.4-0.9
		c-0.2-0.6-0.6-1.2-1.1-1.6c-1.1-1-2.8-1.5-5.1-1.3c2.7-2.3,3.2-6,3.6-9.4c0.2-1.8,0.4-3.8,1-5.4c1.1-3.4,2.6-5.2,4.1-7.2
		c0.5-0.7,1.1-1.4,1.6-2.2c3.3-4.7,6.8-10.6,5.1-14.1c-0.6-1.3-1.9-2-3.7-2.3c-0.1-0.2-0.1-0.4-0.2-0.6c-0.7-1.5-2.3-2.3-4.7-2.4
		c-0.4,0-0.8,0-1.2,0c3.2-0.7,4.6-2.2,5.1-5c0.6,0.5,1.5,0.8,2.5,0.9c1,2.6,3.1,3.3,8.2,3c4.7-0.2,6.4-1.8,6.8-5.1
		c0.2,0.2,0.3,0.4,0.5,0.6c0.8,0.8,1.8,1.3,3,1.7c0.3,0.4,0.6,0.8,1,1.2c2.1,2,5.3,2.4,8.8,2.4c0.5,0,0.9,0,1.4,0
		c-0.8,2.1-0.8,4.8-0.2,8c-2-0.8-4-1.3-5.8-1.3c-3.2,0-5.6,1.4-6.2,3.7c-0.4,1.5-0.4,4.3,3.5,7.9c-6.1,1.5-8.3,4.6-8.2,7.4
		c0.1,3.1,3.3,6.2,10.2,6.5c-2.1,2.9-2.8,5.9-2,8.2c0.1,0.2,0.2,0.4,0.3,0.7c-2.1,0.3-4,0.9-5.5,2.2
		C208.7,155.7,208,156.6,207.6,157.8z M234.9,183.3c-0.1,0.8-0.2,1.6-0.3,2.4c-0.5-0.3-1-0.5-1.7-0.5c-0.1,0-0.3,0-0.5,0
		c-0.2-0.7-0.5-1.4-1.1-2c0.4-0.2,0.8-0.4,1.1-0.7c1.3-1.2,1.3-3,1.3-4.7l0-0.5c0-2.7-0.6-5.1-4.3-5.6c-0.1-0.3-0.2-0.6-0.4-0.9
		c0.5,0.1,0.9,0.2,1.4,0.2c1.3,0.1,2.4-0.3,3.2-1.1c0.4-0.4,0.8-0.9,1-1.5c0.1,1.1,0.2,2.2,0.3,3.3c0.2,2,0.4,3.9,0.4,5.5
		C235.5,179.2,235.2,181.3,234.9,183.3z"/>
	<path class="st1" d="M115.8,116.1c2.3,2.6,5.3,3.9,8.9,3.9c0.7,0,1.5-0.1,2.2-0.2c11.1-1.6,14.7-14.3,13.2-25.4
		c-1-7.7-4.5-15.5-10.3-18.2c-2.5-2.7-5.7-4.2-9.4-3.8c-4.1,0.5-7.7,4-10.2,10c-3.8,9.1-4.5,22.8,1.1,30
		C112.6,114.1,114.1,115.3,115.8,116.1z"/>
	<path class="st1" d="M239.3,123.9c-1.2-0.4-2.4-0.6-3.7-0.6c-1.2,0-2.4,0.2-3.6,0.6c-3.7,1.3-6.7,4.4-7.9,8.2
		c-1.1,3.6-0.5,7.4,1.7,10.5c2.2,3,5.7,4.8,9.3,4.8c1,0,1.9-0.1,2.9-0.4c4.3-1.1,8.1-4.4,9.3-8.3C249,133.4,246.5,126.3,239.3,123.9
		z"/>
	<path class="st1" d="M258.5,228.3c-2.6-2.8-6.5-3.3-9.7-1.3c-0.8-1.5-2.2-2.7-3.8-3.4c-1.8-0.7-3.7-0.7-5.4,0
		c-3.6,1.6-5.3,5.5-4.1,9.4c1.8,5.5,6.8,12.3,8.3,12.7c0.1,0,0.1,0,0.2,0c2,0,10.3-4.1,13.6-7.1c1.5-1.3,2.4-3.4,2.5-5.4
		C260.2,231.3,259.6,229.5,258.5,228.3L258.5,228.3z"/>
	<path class="st1" d="M283.6,154.7c-1.6-0.6-2.9-1-3.9-1.4c-4.3-1.5-4.3-1.5-5.8-5.8c-0.4-1.1-0.8-2.3-1.4-3.9
		c-0.2-0.4-0.5-0.7-1-0.7s-0.8,0.3-1,0.7c-0.6,1.6-1,2.9-1.4,3.9c-1.5,4.3-1.5,4.3-5.8,5.8c-1.1,0.4-2.3,0.8-3.9,1.4
		c-0.4,0.2-0.7,0.5-0.7,1s0.3,0.8,0.7,1c1.6,0.6,2.9,1,3.9,1.4c4.3,1.5,4.3,1.5,5.8,5.8c0.4,1.1,0.8,2.3,1.4,3.9
		c0.2,0.4,0.5,0.7,1,0.7s0.8-0.3,1-0.7c0.6-1.6,1-2.9,1.4-3.9c1.5-4.3,1.5-4.3,5.8-5.8c1.1-0.4,2.3-0.8,3.9-1.4
		c0.4-0.2,0.7-0.5,0.7-1S284,154.8,283.6,154.7z"/>
	<path class="st1" d="M66.8,215.4c-1-1.6-2.5-2.6-4.2-3c-3.7-0.8-7.2,1.1-8.6,4.5c-1.5-0.8-3.3-1-5.1-0.6c-1.9,0.4-3.5,1.5-4.4,3.1
		c-2,3.4-1.1,7.6,2.1,10c4.3,3.2,11.4,5.6,13.6,5.6c0.2,0,0.4,0,0.5-0.1c1.4-0.5,6.2-9.3,7.2-13.8C68.4,219.4,67.9,217.2,66.8,215.4
		z"/>
	<g>
		<path class="st2" d="M102.7,160.8c-0.1,0.9-0.3,1.9-0.7,2.8c1.8,0,3.9-0.5,6.5-1.6c9.9-4,13.5-14.9,11.9-23.4
			c-1.3-7-6.4-14.5-16.9-14.7c-0.1,0-0.1,0-0.2,0c-2.2,0-4.2,0.8-5.6,2.2c-1.4,1.3-2.1,3.2-2.1,5.3c0,2.1,0,4.5,0,7c0,2.7,0,5.4,0,8
			l0,1.6c0,0.7,0,1.3,0,2c0.8,0.4,1.6,0.8,2.4,1.4C101.1,153.7,103,157.4,102.7,160.8z M107.3,150.4c-0.1,0-0.2,0.1-0.4,0.1
			c-0.2,0-0.4-0.1-0.5-0.1c-0.3-0.2-0.5-0.4-0.5-0.8c-0.3-2.1-0.3-6.2-0.4-9.4c0-1.2,0-2.4-0.1-3.2c0-0.3,0.1-0.6,0.4-0.8
			c0.2-0.2,0.5-0.3,0.8-0.2c3.5,0.5,5.9,2.9,6.2,6.2C113.1,145.1,111.5,148.8,107.3,150.4z"/>
		<path class="st2" d="M151.5,155.9c1.3-0.3,5.1-2,5.8-2.7c3-3.2,0.2-8.8-1.5-12.2c-0.2-0.4-0.4-0.8-0.6-1.1c-1-2.1-2.4-5.3-3.2-8.5
			c-0.2-0.9-0.4-1.8-0.6-2.8c-0.5-2.4-0.9-4.9-2.1-6.8c-1-1.6-3.2-2.7-5.4-2.7c-0.3,0-0.7,0-1,0.1c-1.8,0.3-3.9,1.4-5.2,2.8
			c-1.1,1.2-1.9,2.7-2.6,4.7c-0.7,2.1-1.3,4.2-1.8,6.3c-0.7,2.7-1.4,5.5-2.6,8.3l-0.4,1c-1.8,4.3-4.9,11.6-4.8,15.3
			c0,0.7,0.3,1.3,0.7,1.6c0.9,0.7,2.6,1,4.4,0.6c2.4-0.5,6.5-1.8,7.3-5.5c0.1-0.6,0.3-1.3,0.4-2c0.4-2.5,0.8-5.3,3.4-5.8
			c1.2-0.2,2,0.1,2.4,0.5c1,0.8,1.4,2.2,1.5,4.7c0,2,0.5,3.3,1.3,4C147.8,156.3,149.3,156.4,151.5,155.9z M141.2,138.4
			c-0.9,0-1.8-0.2-2.2-0.9c-0.8-1.3,0.2-3.7,1-4.8c1.1-1.5,2.2-1.5,2.8-1.4c1.7,0.4,2.3,2.8,2.6,4.6c0.1,0.5-0.1,1.5-1.8,2.1
			C143.3,138.1,142.2,138.4,141.2,138.4z"/>
		<path class="st2" d="M171.7,152.5c5.4-0.9,5.9-4.7,6.4-9.5c0.2-2,0.5-4,1.1-5.8c1.2-3.7,2.8-5.8,4.4-7.8c0.5-0.7,1-1.3,1.5-2.1
			c0,0,0,0,0,0c5.2-7.6,5.6-10.7,4.9-12c-0.4-0.8-1.4-1.2-2.9-1.3c-7.7-0.3-9.3,6-10.5,10.6c-0.3,1.1-0.5,2-0.8,2.8
			c-0.2,0.4-0.5,0.6-0.9,0.6c-0.4,0-0.8-0.2-1-0.5c-0.9-1.6-1.4-3.3-2-5c-1.3-4-2.2-6.4-5.5-6.4c-0.5,0-1,0.1-1.7,0.2
			c-3.9,0.7-6,1.6-6,4.7c0,3.6,2.5,5.8,5.1,8.2c3,2.7,6.2,5.5,5.4,10.4c-0.3,1.7-1.3,3.2-2.2,4.7c-1,1.6-2,3.1-2,4.5
			c0,1.1,0.4,2,1.1,2.7C167.3,152.5,169.4,152.9,171.7,152.5z"/>
		<path class="st2" d="M191.4,150.7c0.1,0.1,0.3,0.3,0.8,0.4c0.3,0.1,1-0.3,1.8-1.4c1.9-2.8,3-7.8,1.6-10.3
			c-0.6-1.1-1.7-1.5-3.4-1.4c-1.7,0.2-3.6,1.2-3.6,3.4c0,0.9,0.4,1.8,1.1,2.3c0.8,0.6,1.8,0.9,2.9,0.7c0.4-0.1,0.7,0.1,1,0.3
			c0.2,0.3,0.3,0.7,0.2,1c-0.2,0.5-0.5,1-0.9,1.7C192.3,148.4,191.2,150.1,191.4,150.7z"/>
		<path class="st2" d="M215.7,215.7c0.4,0.1,0.8,0.3,1.2,0.4c5.1,1.7,5.3,2,7.1,7.1c0.1,0.4,0.3,0.7,0.4,1.2
			c0.1-0.4,0.3-0.8,0.4-1.2c1.7-5.1,2-5.3,7.1-7.1c0.4-0.1,0.7-0.3,1.2-0.4c-0.4-0.1-0.8-0.3-1.2-0.4c-5.1-1.7-5.3-2-7.1-7.1
			c-0.1-0.4-0.3-0.7-0.4-1.2c-0.1,0.4-0.3,0.8-0.4,1.2c-1.7,5.1-2,5.3-7.1,7.1C216.5,215.4,216.1,215.5,215.7,215.7z"/>
		<path class="st2" d="M145.4,75.2c0.1,0.4,0.3,0.7,0.4,1.2c0.1-0.4,0.3-0.8,0.4-1.2c1.7-5.1,2-5.3,7.1-7.1c0.4-0.1,0.7-0.3,1.2-0.4
			c-0.4-0.1-0.8-0.3-1.2-0.4c-5.1-1.7-5.3-2-7.1-7.1c-0.1-0.4-0.3-0.7-0.4-1.2c-0.1,0.4-0.3,0.8-0.4,1.2c-1.7,5.1-2,5.3-7.1,7.1
			c-0.4,0.1-0.7,0.3-1.2,0.4c0.4,0.1,0.8,0.3,1.2,0.4C143.4,69.8,143.7,70.1,145.4,75.2z"/>
		<path class="st2" d="M86.5,240.2c-0.4-0.1-0.8-0.3-1.2-0.4c-5.1-1.7-5.3-2-7.1-7.1c-0.1-0.4-0.3-0.7-0.4-1.2
			c-0.1,0.4-0.3,0.8-0.4,1.2c-1.7,5.1-2,5.3-7.1,7.1c-0.4,0.1-0.7,0.3-1.2,0.4c0.4,0.1,0.8,0.3,1.2,0.4c5.1,1.7,5.3,2,7.1,7.1
			c0.1,0.4,0.3,0.7,0.4,1.2c0.1-0.4,0.3-0.8,0.4-1.2c1.7-5.1,2-5.3,7.1-7.1C85.7,240.5,86.1,240.3,86.5,240.2z"/>
		<path class="st2" d="M271.9,148.2c-0.1-0.4-0.3-0.7-0.4-1.2c-0.1,0.4-0.3,0.8-0.4,1.2c-1.7,5.1-2,5.3-7.1,7.1
			c-0.4,0.1-0.7,0.3-1.2,0.4c0.4,0.1,0.8,0.3,1.2,0.4c5.1,1.7,5.3,2,7.1,7.1c0.1,0.4,0.3,0.7,0.4,1.2c0.1-0.4,0.3-0.8,0.4-1.2
			c1.7-5.1,2-5.3,7.1-7.1c0.4-0.1,0.7-0.3,1.2-0.4c-0.4-0.1-0.8-0.3-1.2-0.4C273.9,153.5,273.6,153.3,271.9,148.2z"/>
		<path class="st2" d="M238.7,125.9c-1-0.3-2-0.5-3-0.5c-1,0-2,0.2-2.9,0.5c-3.1,1.1-5.6,3.7-6.6,6.9c-2,6.3,2.8,12.5,9,12.5
			c0.8,0,1.6-0.1,2.4-0.3c3.4-0.9,6.8-3.5,7.9-6.9C247.1,132.7,243.5,127.5,238.7,125.9z M237.5,132.4c0.1-0.5,0.3-0.8,0.6-1.1
			c0.2-0.2,0.5-0.2,0.8-0.2c0.6,0.1,1.1,0.9,0.9,1.7c-0.1,0.5-0.3,0.8-0.6,1.1c-0.2,0.1-0.4,0.2-0.6,0.2c-0.1,0-0.1,0-0.2,0
			C237.8,134,237.4,133.2,237.5,132.4z M232.7,131.5c0.1-0.5,0.3-0.8,0.6-1.1c0.2-0.2,0.5-0.2,0.8-0.2c0.6,0.1,1.1,0.9,0.9,1.7
			c-0.1,0.5-0.3,0.8-0.6,1.1c-0.2,0.1-0.4,0.2-0.6,0.2c-0.1,0-0.1,0-0.2,0C232.9,133,232.5,132.3,232.7,131.5z M241.3,137.5
			c-0.3,1.1-1.1,2.2-2.1,3c-0.9,0.7-2.1,1.1-3.4,1.1c0,0-0.1,0-0.1,0c-0.2,0-0.5,0-0.7,0c-2.3-0.3-4.2-1.8-4.8-3.9
			c-0.4-1.5-0.2-3,0.1-4.4c0-0.2,0.1-0.5,0.3-0.7c0.1-0.2,0.4-0.3,0.6-0.3c0.2,0,0.4,0.1,0.5,0.2c0.2,0.2,0.2,0.6,0.1,0.7
			c0,0.2-0.1,0.5-0.1,0.8c-0.1,0.8-0.2,1.6-0.2,2.4c0,0.1,0,0.3,0,0.4c0.3,1.7,1.9,3.4,4.5,3.4c1.9,0,3.5-1.4,4-3.4
			c0.2-0.7,0.3-1.4,0.4-2c0-0.3,0.2-0.5,0.4-0.6c0.2-0.1,0.6-0.1,0.8,0.1l0,0c0.2,0.2,0.3,0.4,0.3,0.7
			C241.7,135.8,241.5,136.6,241.3,137.5z"/>
	</g>
	<g>
		<path class="st3" d="M100.7,160.6c0.2-3.2-1.9-6.1-4-7.6v0c-2.2-1.7-5.1-2.3-7.9-1.8c-2.3,0.4-4.5,1.8-5.9,3.8l-0.4,0.6l-0.7-0.2
			c-1.5-0.4-3.3-0.1-4.7,0.9l-0.7,0.4l-0.6-0.5c-0.8-0.7-3.1-1.2-4.7-1.2c-0.5,0-0.9,0-1.2,0.1c-3.5,1-5.7,3.4-6.2,6.6
			c-0.6,3.9,1.5,8.4,4.9,10.7c3.1,2.1,6.8,2,10.3-0.1c0.9-0.5,1.7-1.3,2.6-2.5l0.7-0.9l0.8,0.7c0.1,0.1,0.1,0.1,0.2,0.2
			c1.1,0.9,2.6,1.1,4,0.6c1.7-0.6,2.9-1.9,3.8-4l0.5-1.1l1,0.6c1.1,0.6,2.4,0.8,3.7,0.6C98.9,165.8,100.5,163.1,100.7,160.6z"/>
		<path class="st3" d="M41.4,168.4l0.7,0.3c1.5,0.7,3.3,0.9,5,0.3c2.4-0.8,4.1-3,4.3-5.7c0.2-2.9-1.2-5.7-3.7-7.1
			c-1.1-0.6-2.5-1-4.1-1c-0.6,0-1.3,0.1-2.1,0.3c-0.3,0.1-0.6,0.2-1,0.3l-0.2,0.1c-0.1,0-0.3,0.1-0.4,0.2l-0.6,0.2l-0.5-0.4
			c-0.2-0.2-0.4-0.3-0.7-0.5c-0.6-0.3-1.3-0.5-2.2-0.5c-0.6,0-1.2,0.1-1.7,0.3l-0.7,0.3l-0.5-0.6c-1.4-1.7-3.4-2.6-5.2-2.6
			c-0.2,0-0.3,0-0.5,0c-2.7,0.2-4.8,1.4-6.3,3.5c-2.3,3.2-2.6,7.6-2.3,8.9c0.5,2.4,2,4.3,4.3,5.5c3.5,1.9,8.5,1.6,11.4-0.7l0.6-0.5
			l0.6,0.5c0.8,0.6,1.8,0.9,2.7,0.8c0.9-0.1,1.9-0.5,2.6-1.2L41.4,168.4z"/>
		<path class="st3" d="M244.4,112.9c-2.9,0-6.6,2.9-8.4,8.5c-2.2-7.8-5.6-11.3-8-11.3c-3,0-4.7,5.1-1.4,13.9
			c-3.4-2.4-6.7-3.5-9.2-3.5c-5.4,0-7,4.7,2.4,10.8c-15.2,1.2-14.2,10.5-2.2,10.5c1.3,0,2.7-0.1,4.2-0.3c-7,5.9-6.4,11.8-2.1,11.8
			c2,0,4.9-1.3,8.1-4.6c0,3.6-0.2,10.2,4.5,10.6c3.6-0.4,4.7-5,5.4-8.1c2.4,4.4,4.7,6.1,6.5,6.1c3.4,0,4.8-6.1,1-12.6
			c3.8,1.6,6.9,2.2,9.3,2.2c8.7,0,7.2-8.9-6.2-12.8c8.6-3.8,12.7-13.5,6.2-13.5c-1.7,0-4.1,0.7-7.4,2.3
			C249.6,116.2,247.5,112.9,244.4,112.9z M247.3,138.7c-1.3,3.8-5,7.2-9.3,8.3c-1,0.2-1.9,0.4-2.9,0.4c-3.6,0-7.1-1.8-9.3-4.8
			c-2.2-3-2.9-6.9-1.7-10.5c1.2-3.8,4.2-6.9,7.9-8.2c1.2-0.4,2.4-0.6,3.6-0.6c1.2,0,2.5,0.2,3.7,0.6
			C246.5,126.3,249,133.4,247.3,138.7z"/>
	</g>
	<g>
		<path class="st4" d="M59.5,115.5c1.3,0.1,5-0.8,5.6-1.3c3-2.6,0-10-1.7-13.9c-0.2-0.5-0.4-0.9-0.5-1.3c-1-2.6-2.4-6.4-3.2-10.1
			c-0.2-1-0.4-2.1-0.6-3.2c-0.5-2.8-1-5.6-2.2-8c-0.7-1.3-1.8-2.4-3.1-3.1c-1.4,3.7-3.2,7.1-4.1,7.5c-0.2,0.1-0.5,0.1-0.8,0.1
			c-1.3,0-3.8-0.5-6.4-1.3c-0.6,1.6-1,3.3-1.5,5c-0.7,2.7-1.4,5.4-2.6,7.9c-0.2,0.4-0.4,0.9-0.7,1.4c-1.8,3.8-4.6,9.7-4.6,13.2
			c0.1,2.7,3.4,4.1,5.5,4.4c2.3,0.3,6.2,0.4,7-3c0.1-0.6,0.3-1.3,0.4-2c0.4-2.4,0.8-5.3,3.5-5.3c0.1,0,0.2,0,0.3,0
			c3.5,0.2,3.6,4.6,3.6,6.2C53.5,113.4,55.2,115.3,59.5,115.5z M46.7,92.4c-0.6-1.3,0-3.5,1.1-4.8c1-1.3,2.1-1.2,2.6-1.1
			c1.4,0.4,2.3,2.1,2.8,5.4c0.1,0.7-0.2,1.5-1.4,1.8c-0.4,0.1-0.8,0.2-1.4,0.2C49,93.9,47.2,93.5,46.7,92.4z"/>
		<path class="st4" d="M71.7,109.9c0,4.5,1.5,6.2,5.8,6.3c1.9,0.1,2.9-0.1,3.5-0.7c0.5-0.5,0.8-1.5,0.8-3.1c0-2.7-0.1-5.6-0.2-8.5
			c-0.1-2.1-0.2-4.1-0.2-6.2c0-0.5,0.3-0.9,0.8-1c0.5-0.1,1,0.2,1.2,0.7c1.4,3.7,2.4,6.7,3.2,9.1c3,9,3.4,9.7,8.3,9.3
			c6-0.5,6.1-2.6,5.7-15.5c0-1.5-0.1-3.2-0.1-5c-0.1-2.9,0-5.1,0.2-7l0-0.2c0.1-1.6,0.3-3.2,0.3-4.7c0-8.5-1.2-8.9-5.5-8.9
			c0,0,0,0,0,0c-1.7,0-2.9,0.4-3.6,1.1c-1,1-1.4,3.1-1.2,6.3c0.1,1.9,0.2,3.8,0.2,5.8c0.1,3.7,0.2,7.4,0.6,10.8
			c0.1,0.5-0.3,1-0.8,1.1c-0.5,0.1-1-0.1-1.2-0.6c-1.4-3.4-2.4-7-3.3-10.6c-1.6-5.9-3.1-11.4-5.9-13.4c-0.7-0.5-1.1-0.6-1.8-0.6
			c-3.5,0-4.7,1.3-5.3,2.2c-0.9,1.4-1.3,3.5-1.3,6.8c0,2.5,0.2,5,0.4,7.5c0.2,2.5,0.4,5,0.4,7.6c0,2-0.2,4-0.4,5.9
			C71.9,106.2,71.7,108,71.7,109.9z"/>
		<path class="st4" d="M113,111.2c2.3,3,5.6,4.3,9.8,3.7c9.7-1.4,12.8-12.9,11.4-23.1c-1.6-12-7.5-17.3-12.6-17.3
			c-0.3,0-0.6,0-0.9,0c-3.3,0.4-6.4,3.6-8.6,8.7C108.6,91.6,107.9,104.7,113,111.2z M122,98.9c-1.5,0-3.1-1.1-3.5-3.8
			c-0.5-3.6,0.3-6.6,2.1-8c1-0.8,2.2-0.9,3.2-0.5c1.5,0.6,2.5,2.3,2.7,4.6c0.5,4.4-1.7,7.3-4.2,7.6C122.3,98.9,122.2,98.9,122,98.9z
			"/>
		<path class="st4" d="M154.3,110.8c5.6-0.7,5.6-1.5,5.6-6.5c0-2.4-0.2-5-0.3-7.5c-0.2-3.7-0.5-7.5-0.2-10.8
			c0.1-1.1,0.4-1.9,1.1-2.4c1-0.8,2.4-0.4,3.7-0.1c1.2,0.3,2.5,0.6,3.2,0c0.6-0.5,1.2-1.7,1.2-5.2l0-0.2c0-1.6,0-2.7-0.4-3.1
			c-0.5-0.5-2.5-0.6-5.2-0.5c-4.4,0.1-8,0.1-11.9,0.1c-0.8,0-1.6,0-2.4,0c-0.1,0.4-0.3,0.8-0.5,1.3c-0.4,1.1-0.8,2.3-1.4,3.9
			c-0.2,0.4-0.5,0.7-1,0.7c-0.4,0-0.8-0.3-1-0.7c-0.6-1.6-1-2.9-1.4-3.9c-0.1-0.4-0.3-0.8-0.4-1.2c-2.1,0.4-2.9,1.6-2.9,4.1
			c0,4.7,0.9,6.3,1.7,6.8c1,0.6,2.7-0.1,4.1-0.8c1-0.4,1.8-0.8,2.6-0.8c0.3,0,0.7,0.1,1,0.3c0.5,0.3,0.8,0.9,0.9,1.7
			c0.1,4-0.2,7.8-0.5,11.5c-0.3,3.1-0.5,5.9-0.5,9c0,1.9,0.4,3.1,1.1,3.7C151.2,110.8,152.4,111,154.3,110.8z"/>
		<path class="st4" d="M173.9,79.7c0,0.3,0,0.6,0,1c0,0.5,0.1,1.1,0.2,1.6c0.1,0.6,0.2,1.3,0.2,2c0,0.9,0.1,1.9,0.1,2.8
			c0.1,1.8,0.2,3.6,0,5.5c-0.1,1.2-0.3,2.4-0.5,3.6c-0.3,2.2-0.7,4.4-0.6,6.6c0.1,2.3,0.4,3.6,1.1,4.3c0.8,0.7,2.3,0.7,4.5,0.5
			c6-0.6,6.5-1.8,6.5-8.3c0-0.5-0.1-1.1-0.2-1.7c-0.3-1.3-0.5-2.8,0.4-4.3c0.6-0.9,1.8-1.4,2.9-1.4c0.9,0,1.6,0.4,2.1,1.1
			c0.8,1.3,0.6,2.8,0.5,4.4c-0.1,0.7-0.1,1.4-0.1,2.1c0.3,6.1,0.4,6.8,6.9,6.6c4.4-0.2,5.1-1.2,5-6.6c-0.1-1.7-0.3-3.3-0.5-4.9
			c-0.2-1.7-0.4-3.5-0.5-5.4c0-2.1,0.3-4.2,0.6-6.2c0.3-2,0.6-3.9,0.6-5.7c0-1.9-0.6-2.6-3.6-2.9c-4.1-0.3-6.8,0.1-7.8,1.2
			c-0.9,1-0.6,2.8-0.3,4.7c0.4,2.1,0.7,4.2-0.4,5.9c-0.7,1.1-1.8,1.7-2.9,1.8c-1.1,0-2-0.5-2.6-1.4c-1.1-1.5-0.8-3.6-0.5-5.7
			c0.3-2.1,0.6-4.2-0.5-5.5c-0.9-0.9-2.6-1.4-5.2-1.4c-0.2,0-0.4,0-0.7,0C173.8,73.9,173.8,75.9,173.9,79.7z"/>
		<path class="st4" d="M209.1,79c0,2.1,0.2,4.2,0.4,6.4c0.2,2.2,0.4,4.4,0.4,6.8c0,1.4-0.2,2.7-0.4,4c-0.2,1.2-0.4,2.4-0.4,3.7
			c0,2.4,0.5,4,1.6,5.1c1.9,1.9,5.7,1.8,9.7,1.7c1.5,0,3-0.1,4.4,0c1.8,0.1,3.2-0.3,4.1-1.2c1-1,1.5-2.6,1.5-4.7
			c0-2-0.4-2.7-1.7-2.7c-0.1,0-0.4,0-0.9,0.1c-4.8,0.3-7.9,0.2-8.9-1.4c-0.2-0.4-0.5-1.2,0.2-2.4c0.9-1.3,3-1.2,4.3-1.2l0.2,0
			c1.7,0,2.8-0.2,3.3-0.7c0.5-0.5,0.5-1.4,0.5-2.4l0-0.4c0-1.1-0.1-1.7-0.5-2c-0.4-0.4-1.3-0.6-2.7-0.6c0,0,0,0,0,0
			c-0.7,0-1.3,0.1-1.9,0.1c-1.2,0.1-2.4,0.3-3.3-0.7c-0.7-0.7-1-1.6-0.6-2.4c0.5-1.1,2-1.8,4-1.8c0.8,0,1.5,0.1,2.2,0.2
			c0.6,0.1,1.3,0.2,1.9,0.2c0.8,0,1.5-0.2,1.9-0.6c1.1-1.1,1.1-3.5,1.1-4.3c0-2.4-0.3-3.1-2.1-3.2c-1,0-2.2-0.2-3.5-0.3
			c-2-0.2-4.2-0.4-6.3-0.4c-3,0-5.8,0.4-7.3,1.8C209.5,76.4,209.1,77.5,209.1,79z"/>
		<path class="st4" d="M237.1,86.9c0.2,1.7,0.4,3.3,0.4,4.8c0,1.8-0.3,3.6-0.6,5.4c-0.3,1.8-0.5,3.4-0.5,5.1c0,4.1,1.6,5.6,6.5,6.1
			c2.8,0.3,4.4,0.1,5.2-0.7c0.7-0.6,1-1.6,1-3.2c0-1.6-0.3-3.6-0.7-5.4c-0.1-0.7-0.2-1.4-0.3-2c-0.1-0.5,0.2-1,0.7-1.1
			c0.1,0,0.2-0.1,0.4-0.1c0.4,0,0.7,0.2,0.9,0.5c0.9,1.5,1.6,3.4,2.1,5.1l0.3,0.9c0.1,0.4,0.3,0.8,0.4,1.3c1,3.2,1.8,5.9,5.4,6.5
			c0.6,0.1,1.2,0.1,1.9,0c0-3,1.6-5.7,4.5-6.9c0.2-0.1,0.5-0.2,0.7-0.3c-0.3-0.9-0.9-1.8-1.5-2.7c-1-1.4-2.4-2.3-3.7-3.2
			c-1.2-0.8-2.4-1.6-3.4-2.8c-0.2-0.2-0.3-0.5-0.2-0.8c0.1-0.3,0.2-0.6,0.5-0.7c3.3-1.9,5.3-5.6,5.3-9.7c0-8.2-9-9.4-14.4-9.4
			c-2.5,0-7.7,1.1-9.2,2.3C235.9,78.1,236.5,82.6,237.1,86.9z M248.8,87.6c-0.1,0-0.2,0-0.2,0c-1-0.1-1.4-0.6-1.5-1c0,0,0-0.1,0-0.1
			c0-0.1-0.6-5.5,0.5-6.8c0.3-0.3,0.6-0.5,1-0.5c1.4,0,2.6,0.8,3.3,2.1c0.8,1.5,0.8,3.4-0.1,4.7C251.2,87,250.1,87.6,248.8,87.6z"/>
		<path class="st4" d="M76.4,154.1c0.8-0.4,1.6-0.7,2.5-0.9c-0.8-3.5-1.8-6.7-3.2-9.6c-2.4-5.1-8.1-13.5-19.2-11.9
			c-7.3,1.1-13.2,5.5-15.7,11.9c-1.1,2.9-1.8,6.2-1.9,9.9c0,0,0.1,0,0.2,0.1c0.2,0.1,0.4,0.2,0.5,0.3l0.1,0c0.4-0.2,0.9-0.3,1.2-0.4
			c1-0.2,1.8-0.3,2.6-0.3c0.1,0,0.1,0,0.2,0c0.2-1.2,0.3-2.3,0.6-3.4c0.9-3.6,2.3-6.6,4.3-8.9c2.6-3,6.3-4.7,10.1-4.7c0,0,0,0,0.1,0
			c9.7,0,13.9,10.3,15.7,17C75.2,153.6,75.9,153.8,76.4,154.1z"/>
		<path class="st4" d="M62.2,214.5c-2.9-0.6-5.6,0.9-6.4,3.8l-0.6,2l-1.6-1.1c-0.8-0.5-1.8-0.8-2.9-0.8c-0.4,0-0.9,0-1.3,0.1
			c-1.3,0.3-2.4,1.1-3.1,2.1c-1.5,2.5-0.8,5.5,1.5,7.3c4.2,3.2,10.5,5.1,12.1,5.2c1.1-1.3,5-7.9,5.9-12.2c0.3-1.4,0-3-0.8-4.3
			C64.4,215.5,63.3,214.7,62.2,214.5z"/>
	</g>
	<g>
		<path class="st5" d="M249.5,229l-1.6,1.3l-0.7-1.8c-0.5-1.3-1.6-2.4-3-2.9c-0.6-0.3-1.3-0.4-2-0.4c-0.6,0-1.2,0.1-1.8,0.4
			c-2.6,1.2-3.8,4-3,6.9c1.6,5,5.7,10.2,6.8,11.2c1.6-0.4,8.6-3.6,11.9-6.6c1.1-1,1.7-2.5,1.8-4c0.1-1.3-0.3-2.5-1.1-3.4
			C254.9,227.5,251.9,227.2,249.5,229z"/>
		<path class="st5" d="M48.9,80.2c1-1.3,4.3-8.3,4.9-12.7c0.2-1.4-0.3-3-1.2-4.2c-0.8-1-1.9-1.7-3-1.8c-3-0.4-5.5,1.4-6.1,4.3
			l-0.4,2l-1.7-0.9c-0.7-0.4-1.6-0.6-2.4-0.6c-0.6,0-1.2,0.1-1.7,0.3c-1.3,0.4-2.3,1.3-2.9,2.4c-1.2,2.6-0.3,5.6,2.1,7.1
			C40.9,78.8,47.3,80.2,48.9,80.2z"/>
	</g>
	<g>
		<path class="st6" d="M59.5,205.1c1.3,0.1,5-0.6,5.6-1c2.8-2-0.1-8.1-1.7-11.3c-0.2-0.5-0.4-0.9-0.6-1.3c-1-2.2-2.4-5.6-3.2-8.8
			c-0.2-0.9-0.4-1.8-0.6-2.8c-0.5-2.4-0.9-4.8-2.2-7c-1.1-1.9-3.3-3.7-5.5-4.4c-1,1.2-2.3,2.1-3.8,2.6c-1.5,0.5-3.1,0.6-4.5,0.2
			c-0.1,0.2-0.2,0.4-0.3,0.6c-0.7,1.6-1.2,3.4-1.8,5.2c-0.7,2.3-1.4,4.7-2.6,6.9l-0.3,0.5c-1.8,3.2-5,9.3-4.9,13.1
			c0.1,2.7,3.4,4.2,5.5,4.6c1.8,0.3,6.1,0.6,7-2.4c0.1-0.5,0.3-1.2,0.4-1.8c0.4-2,0.8-4.7,3.3-4.7c0.2,0,0.3,0,0.5,0
			c3.4,0.5,3.5,4.3,3.5,5.7C53.5,203.1,55.2,204.8,59.5,205.1z M46.7,184.3c-0.6-1.2-0.1-2.9,0.8-3.9c0.8-1,1.8-1.4,2.8-1.1
			c1.4,0.4,2.4,2.1,2.9,5.1c0.1,0.6-0.2,1.3-1.1,1.6c-0.3,0.1-0.6,0.1-0.9,0.1C49.6,186,47.2,185.3,46.7,184.3z"/>
		<path class="st6" d="M71.9,175.9c-0.1,0.8-0.2,1.7-0.2,2.8c0,2.1,0.2,4.2,0.4,6.2c0.2,2.1,0.4,4.2,0.4,6.3c0,1.7-0.2,3.3-0.4,4.9
			c-0.2,1.6-0.4,3.1-0.4,4.6c0,3.6,1.5,5,5.8,5.1c1.5,0.1,3,0,3.7-0.6c0.4-0.4,0.6-1.1,0.6-2.2c0-2.2-0.1-4.6-0.2-6.9
			c-0.1-1.7-0.2-3.4-0.2-5.1c0-0.5,0.3-0.9,0.8-1c0.5-0.1,1,0.1,1.2,0.6c1.3,3,2.4,5.5,3.2,7.5c2.9,7.2,3.2,7.9,8.4,7.6
			c6-0.4,6.1-2.2,5.7-12.9c0-1.3-0.1-2.7-0.1-4.3c-0.1-2.4,0-4.3,0.2-6l0-0.2c0.1-1.4,0.3-2.7,0.3-4c0-3.6-0.4-5.5-1.2-6.2
			c-0.6-0.6-1.8-0.8-4.3-0.6c-4,0.3-5.2,1.7-4.9,6.3c0.1,1.5,0.2,3.2,0.2,4.8c0.1,3,0.2,6.1,0.6,8.9c0.1,0.5-0.3,1-0.7,1.1
			c-0.5,0.1-1-0.1-1.2-0.5c-1.4-2.8-2.4-5.8-3.3-8.7c-1.4-4.1-2.7-8.1-4.8-10.1c-0.4,0.3-0.8,0.7-1.3,1c-2.2,1.3-4.4,2-6.5,2
			C72.9,176.1,72.4,176,71.9,175.9z"/>
		<path class="st6" d="M122.8,204.3c6.8-1.2,9.7-7,10.9-10.3c2.7-7.8,1.4-17.4-3-22.3c-2-2.2-4.4-3.3-7.2-3.3
			c-0.9,0-1.7,0.1-2.6,0.3c-8.2,1.9-13.7,16.7-11.7,26.5C109.9,199.3,112.8,206,122.8,204.3z M121.8,190.3c-1.5,0-2.9-1-3.3-3.3
			c-0.5-3.2,0.3-6,2.1-7.4c1.1-0.8,2.4-1.1,3.5-0.6c0.8,0.3,2.2,1.3,2.5,4c0.5,4.1-1.8,7-4.3,7.3C122.2,190.3,122,190.3,121.8,190.3
			z"/>
		<path class="st6" d="M154.3,199.9c5.6-0.8,5.6-1.6,5.6-6.9c0-2.5-0.2-5.2-0.3-7.8c-0.2-3.8-0.5-7.8-0.2-11.3
			c0.1-1.2,0.4-2,1.1-2.5c1-0.8,2.3-0.6,3.6-0.5c1.2,0.2,2.4,0.3,3.2-0.4c0.7-0.6,1.4-2.1,1.4-6.2l0-0.2c0-1.6,0-3-0.4-3.3
			c-0.6-0.5-3.6,0.1-5,0.4c-4.3,0.9-7.9,1.5-11.6,2.2c-2.1,0.4-4.3,0.8-6.6,1.2c-3.5,0.7-4.8,2-4.8,5c0,4.5,0.9,5.7,1.5,6
			c1,0.6,2.8-0.5,4.2-1.2c1.1-0.6,2-1.1,2.8-1.1c0.3,0,0.6,0.1,0.8,0.2c0.4,0.2,0.8,0.7,0.9,1.7c0.1,4-0.2,7.8-0.5,11.5
			c-0.3,3.1-0.5,6-0.5,9c0,1.8,0.4,3,1.1,3.7C151.2,200,152.4,200.1,154.3,199.9z"/>
		<path class="st6" d="M192.4,193.7c0.8,0.7,2.3,0.9,5.5,0.7c4.1-0.2,5.2-1.2,5-8.3c-0.1-2-0.3-4.1-0.5-6c-0.2-2.1-0.4-4.3-0.5-6.5
			c0-2.5,0.3-5.1,0.6-7.5c0.3-2.5,0.6-4.8,0.6-7.1c-0.1-2.8-1-3.4-3.6-3.4c-3.9,0-6.4,0.6-7.6,1.9c-1.3,1.4-0.9,3.7-0.6,6.2
			c0.3,2.4,0.7,4.8-0.4,6.8c-0.7,1.3-1.9,2.2-3.1,2.2c-1,0-1.9-0.5-2.6-1.5c-1-1.6-0.8-4-0.5-6.5c0.3-2.6,0.6-5.4-0.7-6.6
			c-0.6-0.5-1.5-0.8-2.8-0.8c-0.8,0-1.7,0.1-2.7,0.3c-4.9,0.9-4.8,3.6-4.8,7.6c0,0.4,0,0.7,0,1.1c0,0.6,0.1,1.2,0.2,1.8
			c0.1,0.7,0.2,1.4,0.2,2.2c0,1,0.1,2.1,0.1,3.2c0.1,2,0.2,4,0,6c-0.1,1.3-0.3,2.7-0.5,4c-0.3,2.4-0.7,4.9-0.6,7.3
			c0.1,2.7,0.5,4.2,1.3,4.9c0.8,0.7,2.3,0.7,4.4,0.4c5.7-0.6,6.5-1.8,6.5-9.7c0-0.7-0.1-1.3-0.2-2c-0.2-1.5-0.5-3.2,0.4-4.8
			c0.6-1.1,1.8-1.7,2.9-1.7c0.9,0,1.6,0.5,2,1.2c0.7,1.4,0.6,3.2,0.5,4.9c-0.1,0.8-0.1,1.7-0.1,2.5
			C191.2,190.3,191.4,192.8,192.4,193.7z"/>
		<path class="st6" d="M209.1,186.9c0,3.3,0.7,5.5,2,6.8c2,1.9,5.6,1.8,9.3,1.7c1.5,0,3-0.1,4.4,0c1.6,0.1,2.9-0.3,3.8-1.2
			c1.2-1.2,1.9-3.3,1.9-6.2c0-2.5-0.4-3.4-1.7-3.5c-0.1,0-0.4,0-0.9,0.1c-3.6,0.3-7.5,0.4-8.8-1.5c-0.4-0.5-0.6-1.5,0.1-2.8
			c0.9-1.6,3.1-1.5,4.4-1.4l0.1,0c1.6,0.1,2.6-0.2,3.2-0.7c0.6-0.6,0.6-1.8,0.6-3.2l0-0.5c0-2.6-0.5-3.5-3.3-3.6
			c-0.7,0-1.3,0.1-1.9,0.1c-1.2,0.1-2.4,0.3-3.4-0.9c-0.7-0.9-0.9-2-0.5-2.9c0.6-1.2,2.1-1.8,3.9-1.8c0.8,0,1.6,0.2,2.3,0.3
			c0.6,0.1,1.2,0.3,1.8,0.3c0.7,0,1.3-0.1,1.7-0.5c1.1-1,1.3-3.4,1.3-4.8c-1.9-1-2.9-3-3.4-5.2c-0.3,0-0.6-0.1-1-0.1
			c-1-0.1-2.1-0.3-3.2-0.4c-1.4-0.1-4-0.1-5.1-0.3c-2.4,0.1-4.6,0.5-6,1.8c-1.3,1.1-1.9,2.7-1.9,5c0,2.6,0.2,5.3,0.4,7.9
			c0.2,2.7,0.4,5.4,0.4,8.2c0,1.7-0.2,3.3-0.4,4.8C209.3,183.8,209.1,185.3,209.1,186.9z"/>
		<path class="st6" d="M258.3,198.9c0.9,0.2,1.8,0.1,2.9-0.2c3-0.8,4.6-1.7,4.6-4.8c0-1.6-1-3.7-2-5.1c-1-1.5-2.3-2.6-3.6-3.7
			c-1.2-1-2.5-2.1-3.5-3.5c-0.2-0.2-0.2-0.6-0.2-0.9c0.1-0.3,0.3-0.5,0.5-0.7c3.3-1.6,5.2-5,5.2-9.2c0-7.4-7-12.2-14.2-13.8
			c-1,1.4-2.4,2.2-4,2.2c-1.1,0-2.6-0.4-4.2-1.8c-0.5,0.2-1,0.4-1.2,0.6c-2.8,2.5-2.2,8.2-1.6,13.2c0.2,2.1,0.4,4,0.4,5.7
			c0,2.1-0.3,4.3-0.6,6.4c-0.3,2-0.5,4.1-0.5,6.1c0,5,1.6,6.8,6.5,7.3c2.7,0.3,4.2,0.1,5-0.7c0.8-0.7,1.1-1.9,1.1-3.8
			c0-1.9-0.3-4-0.7-6.1c-0.1-0.8-0.3-1.6-0.4-2.3c-0.1-0.5,0.2-1,0.7-1.1c0.1,0,0.2,0,0.3,0c0.4,0,0.7,0.2,0.9,0.6
			c0.9,1.7,1.5,3.9,2.1,5.8l0.3,1.1c0.1,0.5,0.3,0.9,0.4,1.4C253.8,195,254.6,198.3,258.3,198.9z M249.2,173.4c-0.2,0-0.5,0-0.7-0.1
			c-0.9-0.2-1.2-0.7-1.3-1.1c0,0,0-0.1,0-0.1c0-0.1-0.7-6.5,0.6-7.7c0.3-0.3,0.7-0.4,1.1-0.3c2.7,0.5,4.1,3.8,3.6,6.4
			C252,172.3,250.8,173.4,249.2,173.4z"/>
		<path class="st6" d="M30.3,150.6c0.6-4.2,2.1-9.1,2.1-9.2c1.8-4.7,4.2-8.3,7.3-11.1c4.3-3.8,9.8-6.3,15.8-7.2
			c6.7-1,12.9,0.5,18.1,4.1c4.7,3.4,8.5,8.3,10.8,14.1c1,2.5,1.9,5.2,2.5,8.1c0.5-0.2,1-0.3,1.5-0.4c0.3-0.1,0.6-0.1,0.8-0.1
			c-0.3-1.4-0.6-2.8-1-4.2c-2-7.4-6-14.2-10.7-18.3c-7.2-6.3-17.6-8.2-28.5-5.2c-12.3,3.4-21.3,15.4-22.2,28.9c0.1,0,0.1,0,0.2,0
			C28.2,150.1,29.2,150.2,30.3,150.6z"/>
	</g>
	<g>
		<path class="st7" d="M92.7,215.2c-2,1.5-4.4,4.2-3.9,8.3c0.5,4.2,5,6.9,8.6,9.1c2.7,1.6,4.6,2.8,4.8,4.4c0.1,0.5,0,1.2-0.8,2
			c-0.6,0.6-1.2,0.9-1.9,0.8c-1.3-0.1-2.2-1.2-3.2-2.6c-1.5-2-3.2-4.2-6.2-3.9c-1.5,0.1-2.6,0.7-3.4,1.6c-0.6,0.8-0.9,1.8-0.9,2.8
			c0,0,0,0,0.1,0c1.1,0.4,2.3,0.8,3.9,1.4c0.4,0.2,0.7,0.5,0.7,1c0,0.4-0.3,0.8-0.7,1c-0.8,0.3-1.6,0.6-2.2,0.8
			c2.6,2.8,7.5,4.3,11.9,3.9c5.2-0.5,9.7-2.5,12.2-5.5c1.6-2,2.3-4.3,2-6.9c-0.4-3.7-2.9-4.4-8.1-5.7l-0.2-0.1c-0.1,0-4.5-1.2-6-3.7
			c-0.5-0.8-0.6-1.6-0.4-2.5c0.2-0.9,0.7-1.5,1.3-1.7c1.1-0.5,2.4,0.3,3.8,1.1c1.4,0.8,2.9,1.7,4.3,1.6c3.3-0.4,5.4-2.6,5-5.5
			c-0.2-1.7-1.3-2.9-3.7-3.9C104.4,211,97.2,211.8,92.7,215.2z"/>
		<path class="st7" d="M120.2,222.7c0.2,1.9,0.5,3.8,0.5,6.1c0,2.1-0.2,3.8-0.4,5.5c-0.2,1.7-0.4,3.2-0.4,5.1c0,1.6,0.5,2.8,1.6,3.7
			c3.7,3.2,12.9,1.9,16.4,1.4c3.7-0.5,5.6-2.9,5.6-7c0-1.3-0.2-3.1-1.3-4.2c-0.7-0.7-1.8-1-3.3-0.9c-1.4,0.1-2.6,1-3.9,1.8
			c-1.5,1-3,2.1-4.6,1.5c-1.7-0.6-1.7-3.5-1-8.6c0-0.3,0.1-0.6,0.1-0.7c0.2-1.4,0.4-2.7,0.6-4c0.4-2.1,0.7-4,0.7-6.2l0-0.5
			c0-2.1,0-3.8-0.8-4.5c-0.5-0.4-1.3-0.6-2.5-0.6c-0.8,0-1.7,0.1-2.7,0.3c-4.6,0.7-4.9,2.9-4.9,6.4
			C119.8,219.2,120,220.9,120.2,222.7z"/>
		<path class="st7" d="M148.3,242.2c0,0.7,0.3,1.3,0.8,1.8c1.1,1.1,3.1,1.4,4.5,1.4c2.8-0.1,6.4-0.9,7.1-4.2c0.1-0.6,0.3-1.3,0.4-2
			c0.4-2.4,0.8-5.5,3.6-5.7c0.9-0.1,1.7,0.2,2.3,0.7c1,0.9,1.4,2.4,1.5,5.1c0,2.3,0.5,3.9,1.5,4.9c0.9,0.9,2.4,1.3,4.6,1.2
			c1.2,0,4.9-1.2,5.6-1.8c3.1-3,0-10.3-1.7-14.2c-0.2-0.4-0.3-0.8-0.5-1.1c-1.5-3.6-2.5-6.8-3.2-9.6c-0.2-1-0.4-2-0.6-3
			c-0.5-2.6-1-5.3-2.2-7.4c-1-1.8-3.3-3-5.5-3c-0.3,0-0.6,0-0.8,0.1c-1.8,0.3-3.9,1.4-5.2,2.7c-1.1,1.1-1.9,2.6-2.6,4.6
			c-0.7,2-1.3,4.1-1.8,6.1c-0.7,2.7-1.4,5.5-2.6,8.1l-0.6,1.3C151.2,232.1,148.3,238.7,148.3,242.2z M164.6,225
			c-1.1,0-2.3-0.3-2.8-1.1c-0.7-1.4,0.2-3.7,1.1-4.9c1.1-1.4,2.1-1.4,2.7-1.2c1.3,0.4,2.2,1.9,2.7,5c0,0.3,0.1,1.4-1.6,2
			C166.2,224.9,165.4,225,164.6,225z"/>
		<path class="st7" d="M194.6,245.7c5,0,5.6-3.7,6.3-9.8c0.2-2.2,0.5-4.5,1.1-6.6c1.2-4,2.8-6.2,4.4-8.3c0.5-0.7,1.1-1.4,1.6-2.2
			c0,0,0,0,0,0c5.4-8.3,5.6-12.1,4.9-13.8c-0.4-1-1.4-1.7-3-2c-7-1.3-8.9,4.4-10.4,10.8c-0.3,1.2-0.5,2.3-0.8,3.1
			c-0.1,0.4-0.5,0.7-0.9,0.7c-0.4,0-0.8-0.2-1-0.6c-0.9-1.9-1.4-4-1.9-6c-1.3-5.1-2.3-8.1-6-8.1c-0.4,0-0.8,0-1.2,0.1
			c-3.9,0.6-5.9,1.5-5.9,4.9c0,4,2.5,6.8,5.1,9.7c3,3.4,6.2,6.9,5.4,12.3c-0.3,1.9-1.3,3.4-2.2,5c-1,1.6-2,3.2-2,4.9
			C187.8,243.9,191.4,245.7,194.6,245.7z"/>
		<path class="st7" d="M81.6,153.2c0.9-1.1,2.1-2.1,3.4-2.8c-0.7-2.9-1.5-5.7-2.5-8.2c-2.2-5.5-5.7-10.1-10.1-13.2
			c-4.7-3.4-10.4-4.7-16.5-3.8c-5.6,0.8-10.7,3.1-14.7,6.7c-2.8,2.5-5,5.9-6.8,10.3c-0.4,1.1-1.6,6-2,9.3c0.7,0.4,1.3,0.9,1.8,1.5
			c0.6-0.2,1.2-0.2,1.8-0.2c0.4,0,0.7,0,1,0.1c0.2-3.7,0.9-7,2-10c2.8-7.1,9.2-12,17.3-13.2c9.2-1.3,16.7,3.3,21.4,13
			c1.5,3.1,2.6,6.5,3.4,10.4C81.2,153.2,81.4,153.2,81.6,153.2z"/>
		<path class="st7" d="M269.2,104.9c-0.6-0.3-1.3-0.4-2-0.4c-0.6,0-1.2,0.1-1.8,0.4c-2.6,1.2-3.8,4-3,6.9c1.6,5,5.7,10.2,6.8,11.2
			c1.6-0.4,8.6-3.6,11.9-6.6c1.1-1,1.7-2.5,1.8-4c0.1-1.3-0.3-2.5-1.1-3.4c-2-2.2-5.1-2.5-7.4-0.6l-1.6,1.2l-0.7-1.8
			C271.7,106.6,270.6,105.5,269.2,104.9z"/>
	</g>
</g>
</svg>
