<?xml version="1.0" encoding="utf-8"?>
<!-- Generator: Adobe Illustrator 26.3.1, SVG Export Plug-In . SVG Version: 6.00 Build 0)  -->
<svg version="1.1" id="Layer_1" xmlns="http://www.w3.org/2000/svg" xmlns:xlink="http://www.w3.org/1999/xlink" x="0px" y="0px"
	 width="300px" height="300px" viewBox="0 0 300 300" style="enable-background:new 0 0 300 300;" xml:space="preserve">
<g>
	<g>
		<path d="M54.1,125.8h-6.8V80.9h6.8V125.8z"/>
		<path d="M93.9,114.6c0,3.1-0.8,5.8-2.4,8c-1.1,1.5-2.7,2.6-4.7,3.2c-1.1,0.3-2.3,0.5-3.8,0.5c-2.7,0-4.9-0.7-6.6-2
			c-1.5-1.1-2.6-2.5-3.5-4.4c-0.8-1.8-1.3-4-1.5-6.4l6.5-0.5c0.3,2.6,1,4.5,2.1,5.7c0.8,0.9,1.7,1.3,2.8,1.3c1.5,0,2.7-0.8,3.5-2.2
			c0.5-0.7,0.7-1.7,0.7-3c0-1.9-0.8-3.7-2.5-5.6c-1.3-1.3-3.3-3.2-6-5.7c-2.2-2.2-3.8-4.1-4.8-5.8c-1-1.9-1.5-4-1.5-6.3
			c0-4.1,1.4-7.2,4.1-9.3c1.7-1.3,3.8-1.9,6.3-1.9c2.4,0,4.5,0.5,6.2,1.6c1.3,0.8,2.4,2,3.2,3.5c0.8,1.5,1.3,3.2,1.5,5.2l-6.5,1.2
			c-0.2-1.8-0.7-3.3-1.6-4.3c-0.6-0.7-1.5-1.1-2.7-1.1c-1.2,0-2.2,0.6-2.8,1.7c-0.5,0.9-0.8,2-0.8,3.3c0,2.1,0.9,4.1,2.7,6.3
			c0.7,0.8,1.7,1.8,3,2.9c1.6,1.3,2.6,2.2,3.1,2.8c1.7,1.7,3,3.3,3.9,4.9c0.4,0.8,0.8,1.5,1,2.1C93.5,111.9,93.8,113.3,93.9,114.6z"
			/>
		<path d="M110.5,115.5l-1.6,10.3h-7.1l7.6-44.9h9.3l7.5,44.9h-7.1l-1.6-10.3H110.5z M114.1,91.2l-2.5,17.7h5L114.1,91.2z"/>
		<path d="M156.8,80.9h7.1l-7,44.9h-6.5l-3.9-24.7l-3.6,24.7h-6.5L129,80.9h7.1l3.5,24.1l3.3-24.1h7.1l3.5,24L156.8,80.9z"/>
		<path d="M172.6,119h6.8v6.8h-6.8V119z"/>
	</g>
	<g>
		<path d="M53.6,182.2h-7.6v-50.7h7.6V182.2z"/>
		<path d="M80.8,160.7v21.5h-7.6v-50.7h7.6V153H90v-21.5h7.6v50.7H90v-21.5H80.8z"/>
		<path d="M118.4,170.5l-1.9,11.6h-8l8.6-50.7h10.5l8.5,50.7h-8l-1.8-11.6H118.4z M122.4,143.1l-2.8,20h5.7L122.4,143.1z"/>
		<path d="M171.2,170.1c0,3.3-1.2,6.2-3.5,8.6c-2.3,2.4-5.2,3.6-8.5,3.6h-12v-50.7h12c3.3,0,6.2,1.2,8.5,3.6
			c2.3,2.4,3.5,5.2,3.5,8.5V170.1z M154.8,174.6h4.6c1.2,0,2.2-0.4,3.1-1.3c0.8-0.9,1.3-1.9,1.3-3.1v-26.5c0-1.2-0.4-2.2-1.3-3.1
			c-0.8-0.9-1.9-1.3-3.1-1.3h-4.6V174.6z"/>
	</g>
	<g>
		<path d="M120.4,194.5c1.6,0,2.5-0.8,2.5-2.3c0-1.4-1-2.2-2.6-2.2c-1.3,0-2.3,1.2-2.3,2.6C118.1,193.8,118.8,194.5,120.4,194.5z"/>
		<path d="M198.7,216.3c0.5-0.9-0.3-1.3-0.6-1.9c-0.3-0.5-0.7,0-1,0.2c-0.7,0.8-1.4,1.5-2.2,2.3c-1.2,1.2-2.5,2.4-4.1,3.4
			c0-1,0-1.7,0-2.3c0.4-5.2,0.5-10.4,0.5-15.6c0-0.6-0.1-1.2-0.1-1.9c-0.1-0.8-0.4-1.1-1.1-1c-0.9,0.1-1.7,0.3-2.6,0.2
			c-1.2,0-1.8,0.5-2.1,1.8c-0.1,0.4-0.3,0.8-0.4,1.2c-2.1,5.2-3.8,10.6-6.6,15.4c-0.5,0.8-0.9,1.6-1.4,2.3c-0.7,0.9-1.2,0.8-1.5-0.3
			c-0.5-1.3-0.5-2.8-0.5-4.2c-0.1-4.8,0.3-9.5,1-14.3c0.2-1,0.3-2.1,0.5-3.1c0.1-0.8-0.2-1.2-0.9-1.1c-0.9,0.1-1.7,0.2-2.6,0.2
			c-1.8,0.2-1.9,0.2-2.3,2.2c-0.9,4.1-1.4,8.2-1.6,12.4c-0.8,1.8-1.5,3.5-2.3,5.3c-1.1,2.3-2,4.7-3.5,6.8c-0.3,0.4-0.7,0.9-1.1,1.3
			c-1.2,1-1.9,0.9-2.6-0.4c-0.2-0.4-0.4-0.8-0.5-1.3c-0.5-2.1-1-4.3-1-6.4c0-3.8,0.1-7.6,0.5-11.4c0.3-3.4,0.6-6.8,1.1-10.2
			c0.2-1.4,0.2-1.4,1.8-1.4c4.3-0.1,8.7-0.2,13-0.4c0.5,0,0.9-0.1,1.4-0.1c0.4,0,0.5-0.2,0.6-0.5c0.2-1-0.1-1.3-1.3-1.4
			c-1.4-0.1-2.7-0.1-4.1-0.2c-3.1-0.1-6.3,0.1-9.4,0.1c-1.5,0-1.5-0.1-1.4-1.3c0.1-0.8,0.1-1.6,0.1-2.4c0-1-0.1-1.1-1.2-1.2
			c-1-0.1-2,0-3-0.1c-0.8,0-1.3,0.2-1.5,0.9c-0.5,1.1-1,2.2-1.2,3.4c-0.2,0.7-0.5,1-1.4,1c-1.4,0.1-2.8,0.2-4.2,0.4
			c-1,0.1-1.1,0.3-1.2,1.1c0,0.8,0.7,0.8,1.3,0.8c1,0.1,2.1,0,3.1,0.1c1.4,0,1.4,0,1.2,1.2c-0.6,3.5-1.1,7-1.1,10.8
			c-0.1,1.6-0.2,3.3-0.1,5c-0.1,0.1-0.1,0.1-0.2,0.2c-2.5,3.3-5,6.6-7.8,9.7c-0.5,0.5-0.9,1-1.5,1.4c-0.9,0.6-1.6,0.5-2.3-0.3
			c-0.5-0.5-0.8-1.1-1-1.8c-0.9-3.1-1.6-6.2-1.6-9.5c0-0.8,0.3-1.1,1-1.3c4.4-1.2,6.9-4.3,7.7-8.7c0.4-2.5-0.3-4.6-2.4-6.1
			c-2.1-1.5-4.3-1.2-6.4-0.1c-1.9,1.1-3.3,2.7-4.4,4.6c-1.8,3.3-2.5,6.8-2.8,10.5c0,0.4,0,0.9,0,1.3c-1.7,3.3-3.5,6.6-5.3,9.9
			c-0.4,0.7-0.7,1.3-1.1,1.9c-0.6,0.8-1.1,0.8-1.6-0.1c-0.5-0.9-0.7-1.8-0.9-2.8c-0.4-2.4-0.3-4.9-0.4-7.4c-0.1-4.5,0.4-9,0.8-13.5
			c0.2-2.2,0.2-2.3-2.1-2.4c-0.2,0-0.3,0-0.5,0c-0.6,0-0.9,0.2-1.1,0.7c-0.2,0.5-0.4,0.9-0.5,1.4c-1.2,4.2-2,8.5-2,13.2
			c-0.1,1.2,0,2.4,0.1,3.7c-0.5,1.1-0.9,2.2-1.4,3.3c-1,2.4-2.5,4.5-4.4,6.3c-1.2,1.2-1.9,1.2-3.1-0.1c-1-1.1-1.7-2.4-2.2-3.7
			c-1.6-3.8-3.1-7.6-4.6-11.3c-0.3-0.8-0.2-1.5,0.2-2.3c2.5-4.9,5.1-9.7,7.9-14.4c0.3-0.5,0.7-0.9,0.8-1.7c-1.1-0.3-2.1-0.1-3-0.2
			c-1.3-0.2-2.1,0.4-2.8,1.4c-1.9,2.7-3.4,5.6-4.9,8.5c-0.2,0.4-0.3,1-0.9,1.3c-0.2-0.6-0.4-1-0.5-1.5c-1.1-3-2.1-6.1-3.3-9.1
			c-1.1-2.9-0.5-2.3-3.4-2.1c-1.8,0.1-1.8,0.2-1.6,2c0,0.4,0.1,0.7,0.1,1.1c0.9,5.6,2.3,11.1,4.4,16.4c-1.2,3.4-2.6,6.7-4.3,9.9
			c-0.6,1.1-1.2,2.2-2,3.1c-0.5,0.6-1,1.3-1.8,1.1c-0.9-0.2-0.9-1.1-1.1-1.8c-0.1-0.2-0.1-0.4-0.1-0.6c-0.8-4.1-0.4-8.2,0.1-12.3
			c0.3-2.2,0.4-4.4,0.2-6.6c-0.1-1.6-0.4-3.1-1.1-4.5c-1.1-2-2.9-2.8-5.1-2.4c-2.1,0.4-3.6,1.6-4.9,3.2c-1.7,2-2.9,4.3-4,6.6
			c-0.2,0.5-0.3,1-1,1.5c0-0.7,0-1.2,0-1.7c0.1-2.8,0.1-5.7,0.2-8.5c0-0.4,0-0.9,0-1.3c0-0.7-0.4-1.1-1.1-1.1c-1,0-1.9,0-2.9,0
			c-0.8,0-1.2,0.3-1.3,1.1c0,0.3-0.1,0.6-0.2,0.9c-0.9,4.7-1.4,9.4-1.6,14.1c-0.7,1.4-1.4,2.8-2.1,4.1c-1.5,2.8-3,5.7-4.9,8.3
			c-0.3,0.4-0.6,1-1.2,1.2c-0.3-0.7-0.3-1.3-0.3-2c0-2.3,0.1-4.5,0.3-6.8c0.5-6.1,0.9-12.1,1.1-18.2c0-0.7,0-1.4-0.2-2.1
			c-0.1-0.3-0.2-0.7-0.6-0.7c-1.6-0.1-3.2-0.3-4.8,0.3c-0.5,0.2-0.9,0.2-1.4,0.1c-1.2-0.3-2.5-0.5-3.8-0.3c-4,0.7-6.5,3.2-8.1,6.7
			c-1.3,2.9-1.8,6.1-1.7,9.3c0.1,1.6,0.3,3.1,0.9,4.6c0.6,1.5,1.7,2.2,3.2,2.2c1.3,0,2.3-0.4,3.2-1.3c0.9-0.9,1.6-1.9,2.2-3
			c0.7-1.1,1.3-2.2,2-3.3c0.4,0.3,0.2,0.6,0.3,0.9c0.1,2.3,0.1,4.5,0.5,6.8c0.3,2.5,0.7,4.9,1.9,7.1c1.5,3,5.7,3.6,8,1.1
			c0.9-0.9,1.5-1.9,2.1-3c1.1-2.1,2.2-4.1,3.2-6.2c0,0.5,0,1,0,1.5c0.1,2,0.3,4,0.6,5.9c0.2,1.6,0.4,1.7,2.1,1.7
			c0.5,0,1.1,0,1.6-0.1c1.4,0,1.5,0,1.8-1.5c1.1-5.4,2.5-10.8,4.5-16c1.2-3.3,2.9-6.2,5.2-8.9c0.4-0.5,0.8-1.1,1.6-1
			c0.8,0.2,0.9,1,1,1.7c0.4,2.1,0.5,4.1,0.4,6.2c-0.3,3.9-0.7,7.7-0.6,11.6c0.1,1.9,0.3,3.8,1,5.5c0.4,1,0.9,1.9,2,2.4
			c1.7,0.8,4.4,0.6,6-0.6c-0.3,1.2,0.3,1.3,2.3,1.4c1.4,0,1.4,0,2-1.3c1.1-2.4,2.2-4.8,3.3-7.2c0.2-0.4,0.2-0.9,0.8-0.9
			c0.3,0.5,0.6,1,0.9,1.5c1,1.8,2.1,3.5,3.4,5.1c1.6,2,3.5,3.7,6,4.4c2.8,0.9,4,0.6,5.8-1.7c1.8-2.1,3.1-4.4,4.2-6.9
			c0.3,1.4,0.8,2.8,1.7,4c2.3,3.1,7.3,2.9,9.3-0.4c0.6-0.9,1-1.9,1.5-2.9c0.7-1.6,1.5-3.2,2.2-4.8c0.6,2.5,1.6,4.8,3.2,6.9
			c2.6,3.2,9.1,4.4,12.4,0c1.9-2.4,3.7-4.9,5.5-7.3c0.1,0.9,0.2,1.7,0.4,2.6c0.4,2.5,1.2,4.9,2.5,7.1c0.6,1,1.5,1.9,2.8,2.3
			c3.4,0.9,6.5,0.5,8.7-2c0.3-0.4,0.6-0.7,0.8-1.1c1.1-1.6,1.9-3.3,2.6-5c0.2,0.8,0.4,1.5,0.7,2.3c0.7,1.6,1.7,2.5,3.2,2.9
			c2.7,0.6,5,0,6.7-2.6c1.5-2.2,2.7-4.5,3.8-6.9c0.2-0.4,0.2-1,0.9-1.2c-0.4,3.6-0.8,7-1.1,10.4c-0.1,0.8-0.4,1.2-1,1.5
			c-1.1,0.5-2.1,1.1-3.1,1.7c-2.6,1.5-5,3.2-7,5.5c-1.1,1.3-2,2.8-2.5,4.5c-1.1,3.8,0.4,6.9,3.8,7.8c3.5,0.9,6.6,0.2,9.3-2.6
			c1.6-1.7,2.8-3.6,3.8-5.8c1.8-3.6,2.8-7.6,3.4-11.6c0.1-0.9,0.4-1.4,1.1-1.9c2.5-1.6,4.7-3.7,6.6-6.1
			C198.2,216.9,198.5,216.6,198.7,216.3z M137.9,202.7c0.4-1.5,0.9-2.8,1.5-4.2c0.2-0.4,0.4-0.9,1-0.9c0.5,0,0.7,0.5,0.9,1
			c0,0.1,0.1,0.2,0.1,0.3c0.9,3-0.9,7.7-3.7,9.3c-0.2,0.1-0.5,0.3-0.9,0.1C136.9,206.4,137.4,204.6,137.9,202.7z M46.1,199.4
			c-0.1,0.6-0.2,1.3-0.5,1.9c-2,4.5-4.2,8.9-6.9,13.1c-0.4,0.6-0.7,1.6-1.6,1.4c-0.9-0.3-0.5-1.3-0.5-2c0-0.3,0-0.6,0-1
			c0.2-4.1,1.1-8.1,3.3-11.6c0.6-1,1.3-2,2.2-2.8c0.5-0.4,1-0.8,1.7-1C45.3,197.1,46.3,197.8,46.1,199.4z M178.8,240.5
			c-0.3,0.6-0.7,1.1-1.2,1.5c-1.5,1.3-3,0.8-3.6-1.2c-0.4-1.3-0.2-2.6,0.2-3.8c0.5-1.5,1.4-2.8,2.4-3.9c1.7-1.8,3.6-3.1,5.7-4.4
			c0.1,0.3,0.2,0.4,0.2,0.4C181.8,233.1,180.8,237.1,178.8,240.5z"/>
		<path d="M197.1,225.5c-1.1,0-2,0.8-1.9,1.8c0,1,1,1.7,2.2,1.7c1,0,1.6-0.7,1.6-1.7C198.9,226.3,198.1,225.5,197.1,225.5z"/>
	</g>
	<g>
		<rect x="47.8" y="38.7" width="6.6" height="36.9"/>
		<path d="M76.2,38.3c-2.5,0-4.7,0.9-6.5,2.7c-1.8,1.8-2.7,4-2.7,6.5v19.4c0,2.5,0.9,4.7,2.7,6.5c1.8,1.8,4,2.7,6.5,2.7
			c2.5,0,4.7-0.9,6.4-2.7c1.8-1.8,2.7-3.9,2.7-6.5v-5.6h-6.8v5.6c0,0.7-0.2,1.2-0.7,1.7c-1,0.9-2.5,0.9-3.5,0
			c-0.5-0.5-0.7-1-0.7-1.7V47.3c0-0.7,0.2-1.2,0.7-1.7c0.5-0.5,1-0.7,1.7-0.7c0.7,0,1.3,0.2,1.7,0.7c0.5,0.5,0.7,1,0.7,1.7v4.8h6.8
			v-4.7c0-2.5-0.9-4.7-2.7-6.5C80.9,39.2,78.7,38.3,76.2,38.3z"/>
		<path d="M104.9,38.7h-8.5l-6.3,36.9h6.9l1.3-8.2h4.5l1.3,8.2h6.9L105,39.2L104.9,38.7z M101.9,60.9h-2.5l1.3-8.8L101.9,60.9z"/>
		<polygon points="130.7,61.5 126.3,38.6 117.4,38.6 117.4,75.5 124.1,75.5 124.1,58.1 128.1,75.5 133.5,75.5 137,58.7 137,75.5 
			143.6,75.5 143.6,38.6 135,38.6 		"/>
		<polygon points="150.3,75.5 166.9,75.5 166.9,68.9 157,68.9 157,60.4 164.2,60.4 164.2,53.7 157,53.7 157,45.3 166.9,45.3 
			166.9,38.6 150.3,38.6 		"/>
		<rect x="172.5" y="68.9" width="6.6" height="6.6"/>
	</g>
	<g>
		<rect x="48.2" y="236.9" width="6.2" height="35.5"/>
		<polygon points="72.9,236.9 66.8,236.9 66.8,272.4 81.9,272.4 81.9,266.2 72.9,266.2 		"/>
		<polygon points="87.6,272.4 103.4,272.4 103.4,266.2 93.8,266.2 93.8,257.7 100.8,257.7 100.8,251.5 93.8,251.5 93.8,243 
			103.4,243 103.4,236.9 87.6,236.9 		"/>
		<polygon points="109.2,272.4 115.3,272.4 115.3,257.7 122.4,257.7 122.4,251.5 115.3,251.5 115.3,243 125,243 125,236.9 
			109.2,236.9 		"/>
		<polygon points="130.7,243.1 136.2,243.1 136.2,272.4 142.4,272.4 142.4,243.1 147.9,243.1 147.9,236.9 130.7,236.9 		"/>
		<rect x="153.6" y="266.2" width="6.2" height="6.2"/>
	</g>
	<path d="M276,72.8c-1.6-1.9-3.3-3.1-5.1-3.8c-0.6-0.2-1.2-0.5-1.8-0.7c-0.1,0-0.2-0.1-0.3-0.1l0.1,0c0.4-0.2,0.8-0.3,1.1-0.5
		c0.9-0.4,1.5-1.2,1.6-2.3c0.1-1.1,0.2-2.3-0.1-3.4c-1-3.9-2.6-5.3-6.2-5.6c-0.6-0.1-1.2-0.1-1.8-0.2l-0.5,0
		c0.5-1.1,1.5-1.8,2.7-2.4c1.5-0.8,2.8-1.7,3.9-2.7c0.8-0.8,1-1.9,0.7-3c-0.4-1.1-1.4-1.3-2.3-1.4c-2.2-0.3-4.2,0.2-6.1,1.6
		c-1.5,1.2-3.2,1.6-4.9,1.5c-1.8-0.2-4.2-0.3-6.6,0.3c1.1-1.6,2-3.3,2.8-5l0.4-0.8c0.3-0.5,0.5-1.1,0.7-1.6c0.3-0.9,0.6-1.7,1.2-2.4
		c0.7-0.9,0.8-1.9,0.3-2.8c-0.5-0.9-1.4-1.3-2.5-1.2c-2,0.1-3.9,0.7-5.6,1.6c0.4-0.9,0.8-1.8,1.1-2.9c0.8-2.7,0.1-4.7-2-6.6
		c-2.4-2-4.9-2.1-7.6-0.3c-1.5,1-2.6,2.5-3.2,4.5c-0.2,0.6-0.4,1.3-0.6,1.9c0-0.1-0.1-0.3-0.1-0.4c-1-3.3-2.8-5.5-5.5-6.6
		c-1.7-0.7-3.6-0.7-5.2,0.1c-1.6,0.8-2.8,2.2-3.3,4c-0.7,2.4-0.8,4.7-0.4,7c0.3,1.9,0.2,3.9-0.5,6.3c0,0.1-0.1,0.2-0.1,0.2
		c0,0-0.1,0-0.2-0.1c-0.7-0.4-1.4-0.7-2.1-1l-0.1,0c-1.8-0.8-3.8-1.6-5.5-3.1l-0.1-0.1c-0.8-0.7-1.6-1.4-2.5-2
		c-1.8-1.2-3.7-0.6-5.1,0.1c-1.1,0.6-1.7,1.6-1.6,3l-0.2-0.1c-1.1-0.6-2.3-1.2-3.2-2.1c-1.1-1.1-2.4-1.7-3.9-1.9
		c-0.9-0.1-1.6,0.1-2.1,0.5c-0.4,0.4-0.7,1.1-0.6,1.9c0.1,3,0.9,5.8,2.3,8.2c1,1.6,2,3.3,3,4.9c0.4,0.6,0.8,1.2,1.1,1.8
		c0,0-0.1,0-0.1,0c-2,0.3-3.7,1-5.3,2.1c-0.4,0.3-1,0.5-1.5,0.6c-2.2,0.3-4,1.4-5.5,2.5c-1,0.8-1.6,1.7-1.7,2.7
		c-0.1,1,0.3,2,1.1,2.9l-0.5,0.2c-0.7,0.3-1.3,0.5-2,0.8c-1,0.4-1.3,1.1-1.1,2.1c0.2,1,0.7,1.7,1.6,2.3c0.8,0.6,1.8,1,2.8,1.2
		c0.9,0.2,1.7,0.4,2.5,0.7c1.5,0.7,3,0.9,4.5,1.2l0.2,0c1.2,0.2,2.4,0.4,3.6,0.6l1.1,0.2c-0.1,0.1-0.3,0.2-0.5,0.3
		c-2.7,1.7-5,3.5-7,5.6c-1.4,1.4-2.5,3.1-3.4,5.1c-0.3,0.8-0.5,1.5-0.4,2.1c0.1,0.6,0.3,1.1,0.7,1.5c0.4,0.3,0.9,0.4,1.5,0.4
		c2.8-0.4,5.9-1.1,8.1-3.9c0.4-0.5,1-0.9,1.7-1.2c-0.1,0.2-0.3,0.3-0.4,0.5c-0.2,0.3-0.5,0.6-0.7,0.9c-1.7,2.4-3.5,5.6-2.4,9.6
		c0.5,1.8,1.4,2.8,2.9,3.1c1.4,0.3,2.6-0.3,3.6-1.8c0.8-1.3,1.5-2.4,2-3.5l0.1-0.1c0.1-0.3,0.2-0.5,0.4-0.7c-0.3,3.3-0.5,6.8,0,10.4
		c0.2,1.1,0.5,2.2,1.7,2.7c1.1,0.5,2-0.1,2.7-0.7l0.2-0.2c0.2-0.2,0.4-0.4,0.6-0.6c1.2-1.3,2.2-2.7,3-4.2c1.3-2.3,2.5-4.4,4.3-6.1
		c1-0.9,1.9-1.9,2.7-2.9l0.1-0.1c0,0.1,0.1,0.2,0.1,0.3c0.2,0.4,0.3,0.7,0.2,1.1c-0.5,1.5-1.1,2.9-1.7,4.3c-0.8,2-1.6,4-2.2,6.1
		c-0.3,1.1-0.7,2.4-1.2,3.6c-2,4.8-3.2,9.8-4.2,14.6c-0.6,2.8-1.1,5.7-1.5,8.5c-0.7,4-1.3,8.1-2.3,12c-0.2,0.8-0.3,1.6-0.4,2.4
		c0,0.1,0,0.2,0,0.3c0,0,0,0,0,0c-0.3-0.6-0.5-1.1-0.8-1.6c-1-1.6-2-3.1-2.9-4.7c-1.6-2.6-3.3-5.2-4.9-7.9c-2.2-3.7-4-6.8-5.2-10.3
		c-0.2-0.6-0.5-1.1-0.7-1.6c-0.4-0.9-1.1-1-1.6-1c-0.9,0.1-1.1,0.9-1.2,1.4c-0.6,3-0.4,5.6,0.7,8c0.7,1.5,1.3,3,1.9,4.5
		c2,4.9,4.2,9.9,7,14.5l0.6,1c1.6,2.7,3.3,5.4,6.1,7.3c0.1,0,0.1,0.1,0.1,0.3c-0.1,0.9-0.2,1.9-0.2,2.8c-0.1,1.5-0.2,3-0.4,4.5
		c-0.4,4.3-0.7,8.9-0.2,13.5c0.2,1.8,0.2,3.6,0.2,5.1c0,4,0,8-0.1,11.9l0,4.8c0,0.3,0,0.6-0.1,0.9c-1-1.2-1.9-2.4-2.6-3.6
		c-1.6-2.8-3.4-5.8-5.7-8.4c-2.5-2.9-4.1-6.4-5.6-9.8c-0.2-0.5-0.4-1-0.7-1.5c-0.1-0.3-0.2-0.7-0.3-1.1c0-0.3-0.1-0.5-0.2-0.8
		c-0.2-0.6-0.7-1-1.3-0.9c-0.6,0-1,0.4-1.1,1c-0.1,0.2-0.1,0.5-0.2,0.8c-0.3,3.4,0.2,6.9,1.5,10.6c0.9,2.6,2.2,5.2,3.8,8
		c1.7,3,3.8,5.1,6.3,6.4c1.5,0.8,3.2,1.8,5.2,3c0.4,0.3,0.6,0.5,0.5,1c0,1-0.1,2.1-0.1,3.1c-0.1,3.2-0.2,6.6-0.6,9.9
		c-0.2,1.6-0.3,3.3-0.4,4.8c-0.1,1.3-0.1,2.7-0.3,4c-0.1,0.8-0.2,1.6-0.3,2.5c-0.3,2.5-0.6,5-0.6,7.6c0,2.6-0.2,5.3-0.4,7.9
		c-0.1,0.6-0.1,1.2-0.2,1.8c-0.2,2.9-0.5,6.3-0.1,9.5c0.1,0.8,0.1,1.6,0.1,2.2c-0.1,2.9-0.2,5.9-0.3,8.8l0,0.7
		c-0.2-0.4-0.4-0.8-0.6-1.2c-0.9-1.7-1.7-3.5-3.2-4.8c-1.4-1.3-2.8-2.6-4.2-3.9c-1-1-2.2-1.6-3.5-1.7c-1.4-0.2-2.6-0.7-3.8-1.3
		c-2.1-1-4.1-2.1-6.5-3.4c-1.1-0.6-2.2-0.8-3.5-0.5c-3.4,0.8-7,0.6-11-0.6c-2.7-0.8-4.8-0.8-6.8,0c-0.9,0.4-1.8,0.8-2.7,1.1
		c-2,0.9-4.1,1.8-6.3,2.4c-0.8,0.3-1,0.8-1.1,1.3c-0.1,0.6,0.3,1.1,1,1.5c0.9,0.4,1.9,0.8,3.1,1c1.9,0.5,4,0.8,5.9,1.1
		c2,0.3,4.1,0.7,6.1,1.2c6.1,1.5,11.7,2,17.1,1.6c0.8-0.1,1.6,0.1,2.5,0.3l0.2,0c1.7,0.4,3.4,1.2,5,1.9c0.7,0.3,1.3,0.6,2,0.9
		c2.1,0.9,4,2.2,5.7,4.1c1.4,1.4,2.6,3,3.7,4.6c0.1,0.1,0.2,0.2,0.3,0.3c0.2,0.2,0.4,0.4,0.4,0.7c0,4,0.4,8,0.8,11.9l0.1,1
		c0.1,0.9,0.5,1.5,1.3,1.7c0.4,0.1,1,0.2,1.5,0.3c0.1,0,0.2,0,0.3,0c0.7,0,1.1-0.1,1.4-0.4c0.4-0.4,0.5-0.9,0.5-1.9
		c0-0.2,0-0.4,0-0.5c-0.1-0.9-0.1-1.6,0.8-2.2c4.3-2.8,9.1-5.6,14.8-8.9c5.6-3.2,12.1-4.9,20.4-5.5c2.9-0.2,6.1-0.5,10-0.9
		c0.8-0.1,1.3-0.5,1.4-1.2c0.2-1-0.7-1.4-1.1-1.5c-0.8-0.3-1.5-0.7-2.2-1c-0.4-0.2-0.8-0.4-1.2-0.6c-1.5-0.7-3.2-1.5-5.1-1.8
		c-2.6-0.4-5.5-0.2-8.6,0.6c-1.5,0.4-3,0.8-4.4,1.3c-2.1,0.6-4.3,1.3-6.5,1.7c-4.7,1-8.9,3.2-12.7,6.9c-0.7,0.6-1.4,1.3-2,1.9
		c-1.5,1.3-3,2.7-4.2,4.3c0,0,0,0,0-0.1c-0.3-2.1-0.1-4.2,0.1-6.2c0-0.5,0.1-0.9,0.1-1.4c0.3-3.3,0.4-6.2,0.5-9c0-0.8,0-1.5,0-2.3
		c0-2.4,0-4.8,0.3-7.1c0.1-0.5,0.1-1,0.1-1.5c0-1,0.1-1.9,0.5-2.8c0.2-0.5,0.6-1.1,0.9-1.6c0.2-0.3,0.4-0.7,0.6-1.1
		c1.3-2.4,3.1-4.6,4.8-6.7c0.7-0.9,1.5-1.8,2.2-2.7c1.4-1.8,2.8-3.6,4.2-5.3c1.5-1.8,3.1-3.8,4.5-5.7c2.8-3.7,4.9-7.8,6.2-12.2
		c0.4-1.5,0.8-3,1.2-4.5c0.2-0.8,0.4-1.7,0.7-2.5c0.9-3.2,1.9-6,3-8.6c0.2-0.4,0.6-1.3-0.3-2c-0.8-0.6-1.4,0-1.9,0.3
		c-1.2,1-2.2,2.1-3,3.4l-0.7,1.1c-2.2,3.5-4.3,7-6.4,10.6c-0.6,1-1.2,2-1.8,3.1c-0.4,0.8-0.9,1.5-1.3,2.3c-2,3.4-4.4,6.6-6.8,9.7
		c-0.6,0.9-1.3,1.7-1.9,2.6c-0.5,0.6-1,1.1-1.6,1.7c-0.6,0.6-1.2,1.2-1.8,1.9c-0.1-2.8,0.3-5.4,0.7-7.9l0-0.2c0.1-0.4,0.2-0.7,0.4-1
		c1.5-1.3,2.4-3.1,2.9-4.5c1.8-4.4,2.7-9.2,2.4-14.3c0-0.6-0.1-1.3-0.1-1.9c-0.2-2.7-0.3-5.4,0.2-8.1c0.4-1.8,0.6-3.6,0.9-5.3
		c0.2-1.6,0.5-3.3,0.8-4.9c0.2-1-0.2-1.5-0.7-1.8c-0.8-0.5-1.4,0.1-1.8,0.4c-0.9,0.7-1.8,1.6-2.7,2.7c-0.3,0.4-0.6,0.7-0.9,1.1
		c0-0.1,0-0.3,0-0.4c0.3-3,0.4-6.2,0.4-9.4c0-1.6,0-3.7,0.1-5.8l0-0.4c0.1-1.3,0.2-2.6,1.4-3.5c2.7-1.9,5.9-3.9,9.9-4.1
		c3.8-0.2,7.6-1.2,11.2-2l0.5-0.1c0.6-0.1,1.2-0.3,1.8-0.5c1.4-0.4,2.8-0.8,4.3-0.9c0.4,0,0.9-0.1,1.3-0.1c0.5,0,1-0.1,1.5-0.1
		c0.7-0.1,1.1-0.5,1.3-1.1c0.1-0.7-0.2-1.2-0.9-1.5c-0.4-0.2-0.9-0.3-1.3-0.5c-1.3-0.5-2.7-1.1-4.1-1.3l-1.7-0.2
		c-1.6-0.2-3.3-0.5-5-0.7c-3.8-0.4-6.8-0.1-9.6,1c-3.6,1.5-6.8,3.6-9.5,6.1c-0.1,0.1-0.1,0.1-0.2,0.2c0,0-0.1,0.1-0.1,0.1
		c0-0.8,0.1-1.5,0.2-2.3c0-0.4,0.1-0.9,0.1-1.3c0.1-1.1,0.2-2.2,0.2-3.4c0.1-1.9,0.2-3.9,0.5-5.8c0.3-2.8,0.8-5.6,1.2-8.3
		c0.2-1,0.3-2.1,0.5-3.1c0.7-4.5,1.6-9,2.5-13.4l0.6-2.7c1.1-5.2,2.4-9.6,4.1-13.6c1.3-2.9,2-5.9,2.4-9.3l0-0.2
		c0-0.4,0.1-0.8,0.2-1.2c0.1,1.5,0.4,2.9,0.6,4.3l0,0.2c0.5,3.4,2.3,5.8,5.5,7.5c1,0.5,2,0.8,3,1c0.6,0.1,1.2,0.3,1.8,0.5
		c1.7,0.6,3.3,0.5,4.9-0.2c1.5-0.7,1.9-1.6,1.4-3.1c-0.1-0.2-0.1-0.3-0.2-0.5c0-0.1-0.1-0.2-0.1-0.2c0.9,0.4,1.7,0.9,2.4,1.5
		c0.5,0.4,1,0.7,1.5,1.1c1.6,1,3.4,1.3,5.5,0.9c0.9-0.2,1.6-0.6,2-1.3c0.6-1,0.7-2.4,0.3-4.2c-0.3-1.1-0.8-2.2-1.3-3.2l-0.1-0.2
		c-0.6-1.3-0.8-2.7-0.9-4.1c0.7,0.4,1.4,0.9,2,1.3l0.3,0.2c3.4,2.4,6.4,2.7,9.3,1c0.2-0.1,0.4-0.2,0.5-0.2c1.2-0.2,2.2-0.6,3.2-1.1
		c0.3-0.1,0.6-0.3,1-0.4c1.1-0.5,1.6-1.4,1.6-2.6c-0.1-1.5-0.6-2.8-1.5-4c-0.6-0.8-1.2-1.5-1.8-2.3l-0.6-0.8c1.3-0.5,2-1.4,2.3-2.8
		c0.2-1.4-0.6-2.4-1.4-3.2l0.1,0c1.5-0.4,2.9-0.8,4.4-0.8c0.6,0,1.2-0.1,1.8-0.2l0.1,0c1.6-0.3,2.9-1.4,3.4-2.8
		C277.1,75.2,276.9,73.8,276,72.8z M213.9,162.7c0.1-0.1,0.2-0.2,0.3-0.4c3.7-3.7,7.7-6,12.1-7.1c1.1-0.3,2.3-0.4,3.4-0.4
		c1.9,0,3.8,0.3,5.7,0.6c0.6,0.1,1.1,0.2,1.7,0.2c0.6,0.1,1.3,0.2,1.9,0.3c0,0,0,0,0,0c-4.5,1.2-9.1,2.3-13.7,3
		c-0.8,0.1-1.7,0.2-2.5,0.3c-0.5,0.1-1,0.1-1.6,0.2c-2.6,0.3-4.8,1.6-6.8,2.9C214.3,162.5,214.1,162.6,213.9,162.7z M205.6,259
		c0,2.4-0.1,5-0.2,7.4c-0.2,2.5-0.3,5.1-0.5,7.6c-0.1,1.6,0.1,3.1,0.2,4.6c0.1,0.8,0.2,1.7,0.2,2.5c0,0.6,0.1,1.1,0.1,1.7
		c0,0.6,0.1,1.1,0.1,1.7l0,0.1c0,0,0,0.1,0,0.1l-0.1,0c-0.2,0-0.2,0-0.3-0.2c-0.8-6.4-1.1-11.8-0.8-16.8c0.1-1.3,0.1-2.7,0.1-4
		c0-1.6,0.1-3.2,0.2-4.7c0.1-1.8,0-3.7-0.1-5.5c-0.1-1.3-0.1-2.6-0.1-3.9c0-2.1,0.2-4.3,0.4-6.4c0.1-1.6,0.3-3.2,0.4-4.8
		c0.1-2.1,0.2-4.4,0.2-6.6c0-1.2,0.2-2.4,0.3-3.5c0.2-1.1,0.3-2.2,0.4-3.3c0-1.1,0.4-1.6,1.3-1.7c0.1,0,0.2,0,0.2-0.1c0,0,0,0,0,0
		c0,0.2,0,0.3-0.1,0.5c-0.1,0.6-0.1,1.2-0.3,1.9c-0.3,1.5-0.3,3.1-0.3,4.5c0,1.1,0,2.2-0.1,3.4c-0.1,1-0.2,2-0.2,3l0,0.7
		c0,0,0,0.1,0,0.1c0,0.2-0.1,0.6,0.3,0.8c0.4,0.2,0.8,0,1-0.5c0.4-0.8,0.9-1.5,1.4-2.2c0.5-0.7,1.1-1.4,1.5-2.2
		c0.3-0.7,0.7-1.2,1.1-1.5c2.4-2.1,4.3-4.7,6.1-7.2c0.6-0.8,1.2-1.6,1.7-2.4c2.4-3.1,4.4-6.6,6.3-9.9c0.6-1,1.1-2,1.7-3
		c0.7-1.1,1.3-2.2,2-3.3c0.7-1.1,1.4-2.3,2.1-3.5c-0.3,1.2-0.6,2.4-0.9,3.6c-0.6,2.4-1.2,4.9-2.1,7.3c-1.4,3.7-3.5,7.3-6.6,11.3
		c-2.2,2.8-4.5,5.8-6.9,8.5l-0.1,0.1c-0.1,0.1-0.2,0.2-0.3,0.4c-0.9,1.5-2,2.8-3,4.1c-1.1,1.3-2.1,2.6-3,4c-0.3,0.4-0.6,0.9-0.9,1.3
		c-0.9,1.3-1.8,2.7-2.1,4.4c-0.3,2.1-0.5,4.3-0.6,6.5C205.6,255.6,205.6,257.3,205.6,259z M238.3,106.8c-0.6-0.2-1.3-0.4-1.9-0.5
		c-1.3-0.3-2.5-0.6-3.7-1.2c-2.1-1.2-3.4-2.9-3.8-5.1c-0.3-1.6-0.7-3.7-0.8-5.9c0-0.4,0.1-0.5,0.3-0.6c0.3-0.1,0.6-0.3,0.9-0.6
		c0.7-0.9,1.5-1.5,2.5-2.1c0.6-0.5,1.3-0.9,1.9-1.5c0.1,1.6,0.7,2.9,1.6,4.3c0.7,1.1,1.1,2.3,1.6,3.5c0.2,0.6,0.5,1.3,0.8,1.9
		c0,0.1,0.1,0.2,0.1,0.3c0.1,0.2,0.1,0.5,0.3,0.7c1,1,1.3,2.2,1.7,3.5c0.3,0.9,0.5,1.9,1,2.8c0.1,0.1,0.1,0.2,0.1,0.2
		c0,0,0,0.1-0.2,0.2C239.7,106.9,239,107,238.3,106.8z M213.6,198.8l0,0.5c0.2,3.6,0.4,7.4-0.3,11c-0.6,3.3-1.6,6-3.1,8.3
		c-0.8,1.2-2,1.8-3.4,2.3c0.2-1,0.5-1.8,0.9-2.6c1.2-2.4,1.6-5.1,1.9-7.6c0.1-0.8,0.2-1.6,0.4-2.4c0.4-1.9,0.5-3.9,0.6-5.8
		c0.1-2.1,0.3-4.3,0.7-6.4l0-0.1c0.4-2.1,0.9-4.3,1.2-6.5c0.2-1.8,1.3-3.2,2.5-4.4c-0.2,2.1-0.5,4.1-0.9,6l-0.1,0.4
		C213.6,194,213.4,196.4,213.6,198.8z M211.2,155.6c-0.1,1-0.1,2-0.2,3c-0.1,2.3-0.2,4.7-0.6,7c-0.6,3.2-0.6,6.4-0.6,9.5
		c0,1.4,0,2.9-0.1,4.4c0,1.2-0.1,2.3-0.2,3.5c-0.1,2.4-0.3,4.9-0.2,7.3c0,0.2,0,0.4,0,0.7c0,0.7,0,1.3,0.1,2c0,0.2,0,0.3,0,0.4
		c-0.8,2.9-1,5.8-1.2,8.7c0,0.6-0.1,1.3-0.1,1.9c-0.1,1.6-0.3,3.3-0.6,5.1c0-0.2,0-0.4,0-0.6c0-3.4,0.1-6.9,0.3-10.3
		c0.2-3.8,0.3-7.7,0.2-11.6c0-1.1,0-2.1,0-3.2c0-3.7-0.1-7.5-0.4-11.2c-0.2-2.6-0.2-5,0.3-7.2c0.2-1.3,0.3-2.6,0.3-3.9
		c0-0.8,0.1-1.6,0.1-2.4c0.1-0.7,0.1-1.4,0.2-2.2c0.1-0.6,0.1-1.3,0.2-1.9c0-0.4,0-0.9-0.4-1.4c-5.4-4.9-8.4-11.4-11.3-17.8
		c-0.9-2.1-1.8-4.2-2.7-6.2c-0.4-0.9-0.8-1.9-1.2-2.8c-0.4-0.8-0.7-1.7-0.9-2.5c1.3,2.9,3,5.6,4.6,8.3c0.5,0.9,1.1,1.8,1.6,2.7
		c1.3,2.2,2.8,4.4,4.1,6.5c0.4,0.7,0.9,1.4,1.3,2c0.6,0.9,1,1.7,1.3,2.6c0.9,2.3,1.3,2.8,3.2,4.6l0.4,0.3l0.2-0.5
		c0.3-0.9,0.4-1.8,0.4-2.6l0-0.5c0.2-2.9,0.8-5.7,1.4-8.5c0.2-0.9,0.4-1.7,0.5-2.6c0.4-1.9,0.7-3.9,1-5.8c0.3-1.9,0.6-3.8,1-5.7
		c0.2-0.8,0.3-1.5,0.4-2.3c0.6-3.3,1.3-6.7,2.3-9.9c0.4-1.3,0.9-2.7,1.4-4c0.7-2,1.5-4,2-6.1c0.4-1.5,1-2.9,1.5-4.3
		c0.6-1.4,1.2-2.9,1.6-4.4c0.9,0.4,1,0.9,0.8,2c-0.1,0.6-0.2,1.2-0.3,1.8c-0.3,1.8-0.5,3.7-1.2,5.4c-0.4,1.1-0.8,2.1-1.2,3.2
		c-0.4,1.1-0.8,2.2-1.3,3.2c-1,2.4-1.6,5-2.1,7.5c-0.2,0.9-0.4,1.7-0.6,2.6c-1.1,4.9-2.1,10-3.1,15.8c-0.2,1-0.3,2-0.5,3.1
		c-0.5,2.8-0.9,5.7-1.3,8.6c-0.2,1.9-0.4,3.9-0.5,5.9C211.4,153.7,211.3,154.7,211.2,155.6z M222.9,36.8c-0.3-1.8,0.1-3.6,0.5-4.9
		c0.3-1.2,1.1-2.1,2.1-2.6c0.5-0.2,1-0.3,1.5-0.3c0.6,0,1.2,0.1,1.8,0.4c1.8,0.8,3,2.3,3.8,4.5c0.5,1.5,0.8,3.1,0.9,5
		c-0.2,3.8-0.9,7.7-1.9,11.6l-0.1,0.3c-0.2,0.8-0.4,1.6-0.6,2.4c0,0,0,0.1,0,0.1c0,0,0,0-0.1,0c-1.2-0.5-2.3-0.3-3.2,0.1
		c-2.3,0.8-2.7,0.7-4.1-1.2c-1.5-2.1-1.9-4.3-1.2-6.6C223.2,42.8,223.4,39.9,222.9,36.8z M253.4,38.4c0.1,0,0.2,0,0.2,0
		c0,0,0,0,0,0.1c-0.9,1.4-1.5,2.9-2.2,4.4c-0.8,1.9-1.7,3.8-2.9,5.5l-0.2,0.3c-0.2,0.3-0.5,0.7-0.7,0.9c-1.2,1.2-2.1,2.4-2.9,3.6
		c-0.8,1.2-1.9,2.2-2.9,3.2c-0.4,0.3-0.7,0.7-1.1,1c0,0,0,0-0.1,0c-0.6-0.1-2.4-2-2.4-2.8c0.1-1.1,0.5-2.3,0.9-3.5
		c1.1-3.1,2.5-5.5,4.2-7.5c0.4-0.5,1-1.1,1.6-1.5l0.8-0.5c1.8-1.2,3.6-2.4,5.7-3C251.9,38.5,252.6,38.4,253.4,38.4
		C253.4,38.4,253.4,38.4,253.4,38.4z M224.5,56.3l0.4,0c1.5,0,2.7-0.3,3.9-0.8c0.5-0.2,1-0.2,1.5,0.2c1,0.8,2.3,1,3.6,0.8
		c1.2-0.2,2.3,0.2,3.2,1.3c1.1,1.4,2.3,2.1,3.8,2.1c0.3,0,0.4,0.1,0.6,0.5c0.4,1,0.6,2.1,0.7,3.2c0.1,0.9,0.5,1.6,1.2,2.1
		c0.4,0.3,0.6,0.8,0.6,1.2c0,0.4-0.2,0.8-0.6,1.1c-1,0.7-1.6,1.6-1.8,2.8c-0.2,0.9-1.1,1.4-2,1.7c-1,0.4-2,0.8-2.8,1.7
		c-0.2,0.2-0.5,0.3-0.9,0.1c-0.9-0.3-1.7-0.2-2.5,0.3c-0.4,0.2-0.7,0.3-0.9,0.3c-0.5-0.1-0.6-0.1-0.7-0.5c0-0.5-0.2-0.8-0.5-1
		c-0.2-0.1-0.4-0.2-0.6-0.2c-0.2,0-0.4,0-0.6,0.1l-0.2,0c-0.8,0.2-1.5,0.5-2.1,1.2c-0.2,0.2-0.3,0.2-0.4,0.1
		c-0.8-0.6-1.7-0.7-2.9-0.4c-0.4,0.1-0.7,0.1-0.8-0.1c-0.2-0.1-0.3-0.3-0.4-0.7c-0.3-1.3-1.1-2.3-2.4-2.8c-1-0.4-1.5-1-1.6-2.1
		c-0.1-1-0.7-1.8-1.5-2.6c-0.4-0.3-0.4-0.5-0.2-0.8c0.6-0.9,1.1-2.1,0.3-3.4c-0.1-0.2,0-0.4,0.2-0.9c0.4-1,1.2-1.7,2.5-2.3l0.3-0.1
		c0.9-0.5,1.9-0.9,2.5-2c0.1-0.2,0.3-0.2,0.7-0.2C223.9,56.3,224.2,56.3,224.5,56.3z M261.5,83.9c-0.5-0.2-1-0.3-1.5-0.5
		c-0.9-0.3-1.9-0.6-2.8-0.9c-1.5-0.5-2.7-1.2-3.5-2.3c-1.1-1.4-2.7-1.9-3.8-2c-2.4-0.3-4.4-1.6-6.5-2.9c-0.6-0.4-1.2-0.8-1.9-1.1
		c0.1-0.1,0.3-0.2,0.4-0.3c0.4-0.3,0.6-0.5,1-0.4c2,0.2,3.4,0.6,4.6,1.5c0.6,0.4,1.1,0.9,1.7,1.3l0.5,0.4c2.4,1.8,5.3,2.8,9.2,3.2
		c1.1,0.1,2.2,0.3,3.3,0.5l0.6,0.1c1.3,0.3,2.2,1.1,3.1,2.1c0.1,0.2,0.2,0.3,0.2,0.5c-0.1,0.3-0.3,0.7-0.8,1
		c-1.1,0.7-2.2,0.3-3.3-0.1L261.5,83.9z M267.3,66.2c-2.8,1.1-5.5,0.8-8,0.3c-1.3-0.3-2.6-0.1-3.8,0c-0.3,0-0.6,0.1-1,0.1
		c-2.5,0.2-5.3,0.5-8,0.2c-0.3,0-0.3,0-0.3-0.2c0-1-0.4-1.8-1.3-2.5c-0.1-0.1-0.2-0.2-0.3-0.3c-0.3-0.4-0.4-0.7-0.3-0.9
		c0.1-0.2,0.4-0.3,0.7-0.3c2.5-0.1,4.9-0.9,7.2-1.8c0.6-0.2,1.3-0.5,1.9-0.7c2.3-0.7,4.8-1.3,7.8-1.6c1.3,0,2.5,0.1,4,0.3
		c1.2,0.2,2,0.8,2.5,1.8c0.4,0.9,0.7,1.7,0.8,2.5C269.5,65.3,269.5,65.3,267.3,66.2z M261,54.7c-0.7,1.1-1.6,1.7-2.7,1.9
		c-2.6,0.4-5,1.2-7.3,2.1c-0.6,0.2-1.3,0.5-1.9,0.7c-1.3,0.5-2.8,0.7-4.2,0.8l-0.7,0.1c-0.3,0-0.3,0-0.4-0.3l-0.1-0.2
		c-0.2-0.5-0.3-1-0.7-1.5c0,0,0.1,0,0.1-0.1c1-0.8,1.9-1.9,2.7-2.8c0.2-0.3,0.4-0.5,0.7-0.8c1.4-1.6,3-2.5,5-2.6
		c0.3,0,0.6-0.1,0.9-0.1c0.4-0.1,0.8-0.1,1.2-0.1l1.3,0.1c0.9,0.1,1.9,0.1,2.8,0.2c1.9,0.1,3.7-0.5,5.4-1.7c1.6-1.2,2.8-1.6,4.2-1.4
		c0.1,0,0.2,0,0.3,0c0.4,0,0.4,0,0.4,0.1c0,0.1,0.1,0.3-0.4,0.7c-0.2,0.1-0.4,0.3-0.6,0.4c-0.7,0.6-1.5,1.1-2.3,1.5
		C263.1,52.3,261.9,53.3,261,54.7z M243.5,39.4c-0.5,0.7-1.1,1.3-1.6,2c-1.7,2-3.4,4.1-4.4,6.7c-0.1,0.3-0.2,0.6-0.4,0.9
		c-0.6,1.5-1.2,3.1-1.4,4.8c0,0.3-0.1,0.3-0.1,0.3c0,0-0.1,0-0.2,0c-0.7-0.2-1.4-0.1-2,0l-0.2,0c0,0-0.1,0-0.1,0c0,0,0,0,0-0.1
		c0-0.1,0.1-0.3,0.1-0.4c0-0.1,0.1-0.3,0.1-0.4c0.7-2.3,1.1-4.8,1.6-7.1c0.2-1.1,0.4-2.3,0.7-3.4c0.2-0.9,0.4-1.7,0.5-2.6
		c0.5-2.5,1-5.1,2-7.5c0.9-2.2,2.3-3.4,4.2-3.8c0.2,0,0.3,0,0.5,0c0.3,0,0.5,0.1,0.7,0.2c1.1,0.6,2,1.5,2.8,2.4
		c0.2,0.2,0.2,0.5,0.2,0.8C246.4,34.6,245.4,36.9,243.5,39.4z M220.6,55.6c-0.2,0.3-0.5,0.4-0.9,0.6c-0.2,0.1-0.4,0.1-0.5,0.2
		c0,0,0,0,0,0l-0.1-0.1c-3.4-4-6.8-7.8-11.1-10.9c-0.9-0.7-1.6-1.6-2.2-2.6c-0.1-0.2-0.3-0.4-0.4-0.6c-0.3-0.4-0.4-0.8-0.3-1.1
		c0.1-0.4,0.6-0.7,1-0.9c0.4-0.2,0.8-0.2,1.1-0.2c0.6,0,1.1,0.2,1.6,0.7c2.2,2.2,4.9,3.9,8.1,5.1c0.2,0.1,0.4,0.2,0.6,0.3l0.3,0.1
		c1.3,0.6,2,1.2,2.1,2.6c0.1,2,0.9,3.8,2.3,5.4C221.6,54.5,221.1,54.9,220.6,55.6z M213.5,53.7c0.8,0.9,1.6,1.7,2.5,2.5
		c0.1,0.1,0.3,0.3,0.4,0.4l0.1,0.1c0.7,0.9,0.7,0.9,0,1.7c-0.7,0.8-1,1.6-1.2,2.4c0,0.1-0.1,0.2-0.1,0.2c0,0-0.1,0-0.2-0.1l-0.1,0
		c0,0-0.1,0-0.1,0c-1.1-0.6-2.2-1.1-3.4-1.6c-1.7-0.7-3.4-1.5-5-2.6c-0.9-0.6-1.6-1-2.3-1.3c-1.6-0.6-2.9-1.8-3.8-3.6
		c-0.6-1-1.2-2-1.8-3c-0.4-0.6-0.8-1.2-1.1-1.8c-1.2-2-2-4.4-2.2-7.1l0,0c0-0.2,0-0.2,0-0.2c0,0,0.1,0,0.3,0
		c0.9,0.2,1.6,0.5,2.2,1.1c1,1,2.2,1.7,3.5,2.4c1.4,0.6,2.5,1.6,3.7,2.6c0.6,0.5,1.2,1,1.8,1.5C209.2,49.1,211.4,51.5,213.5,53.7z
		 M203.1,57.6c0.1,0.1,0.2,0.1,0.4,0.2c0.1,0.1,0.3,0.1,0.4,0.2c1.9,1.4,4.1,2.3,6.1,3.3c1,0.4,2,0.9,2.9,1.4
		c-1.2,0.3-2.4,0.5-3.8,0.4c-3.6-0.1-7.1,0.5-10.7,1.3c-1.5,0.3-2.9,0.3-4.1,0c-0.7-0.2-1.4-0.3-2.1-0.3c-0.8,0-1.7,0.1-2.6,0.4
		c-0.8,0.2-1.6-0.1-2-0.8c-0.2-0.4-0.1-1.2,0.6-1.6l0.1,0c1.3-0.9,2.6-1.8,4.2-2c1.2-0.2,2.3-0.6,3.4-1.3c1.3-0.9,2.9-1.3,4.5-1.5
		C201.4,56.7,202.3,57.2,203.1,57.6z M185.3,68.5c1.6-0.7,3.3-1.3,5.3-1.9c0.9-0.3,1.9-0.3,2.9,0c2.2,0.6,4.4,0.3,6.9-0.2
		c3.4-0.8,6.7-1.1,10-0.9c1,0.1,1.9-0.2,2.7-0.4c0.5-0.2,1.1-0.3,1.8-0.4c-0.5,1.2-0.2,2.2,1,3.2c0.1,0.1,0.1,0.1,0.2,0.2
		c0,0,0.1,0.1,0.1,0.1c0.1,0.1,0.2,0.2,0.2,0.2c0,0-0.2,0-0.3,0l-0.1,0c-2.6,0.1-5.2,1.1-8,2.9c-1.8,1.2-4,1.8-6.5,1.6
		c-0.8-0.1-1.7-0.3-2.5-0.5c-0.8-0.2-1.5-0.4-2.3-0.5c-2.3-0.2-4.5-0.9-6.6-1.6c-1.1-0.3-2.2-0.7-3.3-0.9c-0.7-0.2-1.3-0.5-1.7-1
		c-0.1-0.1-0.1-0.1-0.1-0.1C185.2,68.5,185.2,68.5,185.3,68.5z M204.6,75.2c1.6-0.2,3-0.7,4.2-1.5c0.3-0.2,0.6-0.4,0.9-0.5
		c1.6-1,3-1.9,4.8-2.1c0.5-0.1,1-0.2,1.6-0.3l1-0.2l0,0l0,0c0,0,0.1,0.1,0.2,0.3c0,0,0,0,0,0.1c0,0-0.1,0-0.2,0c-0.1,0-0.1,0-0.2,0
		c-3.5,1.1-6.6,3.1-10,6.5c-0.8,0.8-1.7,1.5-2.5,2.2c-0.3,0.2-0.6,0.5-0.8,0.7c-0.2,0.2-0.4,0.2-0.7,0.3c-0.2,0-0.5,0.1-0.7,0.2
		l-0.7,0.3c-2.1,0.9-4.3,1.9-5.9,3.8c-1.3,1.6-3.3,1.9-5.3,2.2l-0.1,0c0,0,0,0,0,0l0-0.1c0.6-1.6,1.4-3.1,2.6-4.4
		c2.3-2.5,5.1-4.4,7.9-6.3C202,75.6,203.4,75.4,204.6,75.2z M207.5,80.3c0.8-0.7,1.6-1.4,2.4-2.1c0.9-0.8,1.8-1.7,2.9-2.5
		c1.4-1.1,3.1-1.7,4.7-2.3c0.6-0.2,1.1-0.4,1.7-0.7c0.2-0.1,0.3,0,0.6,0.2c0.1,0.1,0.2,0.1,0.3,0.2c0.4,0.2,0.8,0.7,0.9,1.4
		c0.1,0.6,0,1.1-0.2,1.5c-1,1.3-1.9,2.4-3,3.3c-3.4,2.8-6.8,5.4-10.3,7.7c-2.5,1.7-4.2,3.6-5.3,6c-0.4,1-1,2-1.8,3
		c-0.2,0.2-0.4,0.5-0.8,0.5c0,0,0,0,0,0c-0.3,0-0.6-0.3-0.8-0.6c-0.4-0.5-0.5-1.2-0.6-1.8c0-0.2-0.1-0.5-0.1-0.7
		c0-2,0.7-3.8,2.2-5.7C202.6,84.7,205,82.3,207.5,80.3z M207.2,94.2c0.1-1.4,0.2-2.9,1.2-4.2c0.6-0.8,1.2-1.6,2.1-2.2
		c3.6-2.5,6.4-4.7,8.9-6.8c1.4-1.2,2.6-2.6,3.6-4.1c0.1-0.2,0.2-0.2,0.3-0.2c0.1,0,0.1,0,0.2,0c0,0,0,0,0,0
		c-0.4,2.3-1.1,4.1-2.1,5.7c-0.2,0.4-0.4,0.8-0.4,1.2c-0.1,3.2-2,5.6-3.7,7.3c-2.6,2.5-4.6,5.3-6.4,8.7c-0.7,1.3-1.7,2.4-2.7,3.4
		l-0.1,0.1c-0.2,0.2-0.4,0.4-0.5,0.3c-0.1,0-0.1-0.2-0.2-0.5l0-0.1C207.1,100.2,207,97.5,207.2,94.2z M223.3,84.1
		c0-0.6,0.4-1.2,0.7-1.8l0.2-0.3c0.7-1.2,1.1-2.2,1.2-3.3c0-0.5,0.1-0.8,0.4-1.1c0.3-0.4,0.5-0.6,0.8-0.6c0.1,0,0.2,0,0.4,0.1
		c0.4,0.2,1.1,0.3,2-0.5c0.3-0.3,0.7-0.5,0.9-0.5c0.1,0,0.3,0.1,0.5,0.4c0,0,0.1,0.2,0.3,0.2c1.2,0.2,1.4,1,1.7,2.1
		c0,0.2,0.1,0.3,0.1,0.5c0.2,0.8,0.6,1.7,0.9,2.5c0.2,0.4,0.3,0.8,0.5,1.2c0.1,0.2,0.1,0.4,0.1,0.5c0,0,0,0.1,0,0.1
		c0,0.6-0.1,1-0.2,1.3l-0.3,0.5c-0.8,1.3-1.5,2.5-2.9,3.2c-0.6,0.3-1.2,0.8-1.8,1.5c-0.7,0.9-1.7,1.5-3.1,1.8
		c-0.7,0.2-1.5,0-2.1-0.5c-0.5-0.4-0.7-1-0.7-1.6C223,88.1,223.2,86.3,223.3,84.1z M238.2,94.1c-0.3-0.7-0.6-1.4-1-2
		c-0.9-1.1-1.3-2.5-1.3-3.9v0c-0.1-1.1,0-2,0.2-3c0.3-1.8-0.3-3.4-1-4.9c-0.5-1-0.8-2-1-3.1c0-0.2,0-0.3,0.3-0.5
		c0.2-0.1,0.3-0.1,0.3-0.1c0.1,0,0.1,0,0.1,0.1c0.8,0.9,1.8,1.5,2.8,2c0.5,0.3,1.1,0.6,1.6,0.9c1.3,0.9,2.1,2,2.6,3.4
		c1.1,3,2.9,5.8,5.5,8.6c1.7,1.8,2.5,3.5,2.5,5.5c0,1.2,0.4,2.2,0.9,3.2l0.3,0.6c0.4,0.9,0.8,1.8,1.1,2.7c0.2,0.6,0.2,1.2-0.1,2.1
		c-0.1,0.2-0.3,0.3-0.7,0.4c-1.9,0.2-3.4-0.3-4.7-1.4c-0.9-0.8-1.9-1.4-2.9-2c-0.7-0.4-1.4-0.8-2.1-1.3c-0.1-0.1-0.2-0.1-0.2-0.2
		C240.1,98.9,239.2,96.5,238.2,94.1L238.2,94.1z M248.8,89.5c-2.3-2.5-3.8-4.9-4.7-7.3c-0.9-2.4-2.5-4.2-5.3-5.6
		c-0.1-0.1-0.2-0.1-0.3-0.2c-0.1-0.1-0.3-0.1-0.4-0.2c1-0.9,1.1-0.8,2.4,0c1,0.7,2.1,1.3,3.1,1.9l1.7,1c1,0.6,2,0.8,3,1.1
		c0.2,0,0.4,0.1,0.6,0.1c1.5,0.4,2.6,1,3.4,2c1.3,1.6,3.2,2.2,4.5,2.5c0.9,0.2,1.7,0.5,2.5,0.8c1.1,0.4,2.2,0.8,3.3,1
		c0.5,0.1,0.8,0.4,1,0.7l0.5,0.6c0.9,1.1,1.8,2.2,2.5,3.3c0.2,0.3,0.4,0.6,0.5,1c0.5,1.3,0.4,1.4-0.9,2c-0.8,0.4-1.8,0.7-2.6,1
		c-0.8,0.3-1.6,0.5-2.3,0.9c-1.5,0.7-3.2,0.4-5.2-1c-1.6-1.1-3.1-2.1-4.7-2.9c-0.9-0.4-1.4-1.1-2-1.9
		C249.3,90,249.1,89.7,248.8,89.5z M264.2,78.3c-0.4,0.1-0.9,0-1.4-0.2c-0.3-0.1-0.7-0.2-1.1-0.2c-2-0.3-4.1-0.6-5.6-0.8
		c-2.7-0.5-4.9-2-6.7-3.4c-1.5-1.2-3.2-2-5-2.2c-0.1,0-0.1,0-0.2,0c0,0-0.1,0-0.1,0c-0.1,0-0.2,0-0.3,0c-0.1-0.3,0-0.7,0.3-0.9
		c0.1-0.1,0.2-0.2,0.4-0.3c0.4-0.3,0.9-0.7,1.2-1.2c0,0,0-0.1,0.3,0l0.1,0c3,0.5,6,0.2,8.9-0.1l0.5,0c1.5-0.1,2.8-0.2,4.2,0.1
		c1.1,0.3,2.3,0.3,3.3,0.2c1.5-0.1,2.7,0.2,3.9,0.7c1,0.5,2.1,0.9,3.6,1.5c1.6,0.6,2.8,1.8,3.8,2.9c0.3,0.4,0.4,0.9,0.3,1.3
		c-0.2,0.6-0.7,1.1-1.4,1.3c-0.7,0.2-1.5,0.3-2.3,0.3c-1.2,0-2.4,0.2-3.4,0.6c-0.7,0.2-1.3,0.3-2.1,0.4
		C264.9,78.2,264.6,78.2,264.2,78.3L264.2,78.3z M201.8,197.2C201.7,197.2,201.7,197.2,201.8,197.2c-1.3-0.7-2.4-1.3-3.3-2.2
		c-3.2-3.1-4.9-7.1-6.6-11l-0.1-0.2c-0.4-1-0.7-2-1-3.2c1.4,2.5,3,5.2,5.1,7.7C198.2,191,200.1,194.3,201.8,197.2z M198.5,264.2
		C198.5,264.2,198.4,264.1,198.5,264.2c-0.9-0.9-1.7-1.7-2.8-2.3l-0.4-0.2c-3.6-2-7.3-4-11.6-4.6c-0.5-0.1-1-0.1-1.5-0.1
		c-0.6,0-1.3,0-1.9,0.1c-0.3,0-0.5,0-0.8,0c-4,0.2-8.1-0.3-12.6-1.5c-1.7-0.4-3.5-0.7-5.2-1c-1.3-0.2-2.7-0.4-4-0.7
		c-1.1-0.2-2.2-0.5-3.3-0.7l-0.7-0.2c1.2-0.4,2.3-0.9,3.3-1.4c1.1-0.5,2.1-1,3.2-1.3c1.8-0.6,3.6-0.2,5.1,0.2
		c4.3,1.3,8.3,1.5,12.1,0.6c0.6-0.1,1.2,0,1.8,0.3c2.1,1.1,4.2,2.3,6.5,3.4c1.4,0.6,2.8,1.3,4.5,1.5c0.9,0.1,1.6,0.5,2.2,1.1
		c1.4,1.4,2.9,2.8,4.4,4.1C197.5,262.3,198.1,263.2,198.5,264.2z M208.6,279.7L208.6,279.7L208.6,279.7L208.6,279.7z M209.1,279
		c0.1-0.1,0.2-0.3,0.3-0.4c3.3-3.4,6.6-6.7,10.6-9.2c2-1.2,4.2-2.1,6.8-2.6c2.1-0.4,4.3-1.1,6.3-1.7c1.5-0.5,3-0.9,4.6-1.3
		c1.9-0.5,3.7-0.8,5.3-0.8c1.1,0,2.2,0.1,3.3,0.5c1.3,0.4,2.4,0.9,3.5,1.4c-0.4,0-0.9,0.1-1.3,0.1c-1.6,0.1-3.1,0.3-4.6,0.3
		c-9.2,0.4-17.7,3-25.3,7.8c-1.5,0.9-3,1.8-4.4,2.7C212.5,276.8,210.8,277.9,209.1,279z"/>
</g>
</svg>
