<?xml version="1.0" encoding="utf-8"?>
<!-- Generator: Adobe Illustrator 25.2.0, SVG Export Plug-In . SVG Version: 6.00 Build 0)  -->
<svg version="1.1" id="Layer_1" xmlns="http://www.w3.org/2000/svg" xmlns:xlink="http://www.w3.org/1999/xlink" x="0px" y="0px"
	 width="300px" height="300px" viewBox="0 0 300 300" style="enable-background:new 0 0 300 300;" xml:space="preserve">
<style type="text/css">
	.st0{fill:#E59779;}
	.st1{fill:#B66428;}
	.st2{fill:#798981;}
</style>
<g>
	<g>
		<path class="st0" d="M59.4,104.3c0,11.4-5.3,21.5-16.8,21.5c-2.5,0-4.5-0.7-6.1-1.6c-2.1-1.3-2.5-1.3-3.1-0.1H14.8v-0.8
			c1.6-0.5,4.9-4,4.9-12.6l0.1-24.4c0-6.1-1.9-8.6-5.9-10v-1c6.2-1.1,13.3-9.1,16.8-9.1c2.8,0,2.7,3.1,2.7,5.3v20.4
			c2.4-2.8,5.8-4.6,10.1-4.6C50.6,87.4,59.4,92.9,59.4,104.3z M44.5,107.1c0-11.1-1.6-15.6-5.5-15.6c-2.8,0-5.6,2.2-5.6,13.2v1.3
			c0,11,1.5,16.5,5.6,16.5C42.9,122.6,44.5,118.1,44.5,107.1z"/>
		<path class="st0" d="M98.2,115.6c-1.8,4.7-7.6,10.2-15.4,10.2c-12.3,0-20.7-8.5-20.7-19.2s8.4-19.2,19.2-19.2
			c10.6,0,15.7,6.2,17.3,15.8c0.4,2.5-0.7,4.6-5.7,4.6c-12.3,0.2-20.5,2.5-14.4,10.5c4.6,5.9,10.3,4.5,12.6-2.7H98.2z M75.9,106.6
			v0.6c7.7-3.6,10.1-1.4,10.1-7.9c0-6.6-2.1-8.9-5.3-8.9C77.1,90.4,75.9,96.3,75.9,106.6z"/>
		<path class="st0" d="M158.5,123.3v0.7c-1.3,1.1-4.4,1.8-6.8,1.8c-7.4,0-9.2-4.3-9.2-11.3c0-7-1.2-12.2-4.3-12.2
			c-2.2,0-3.8,1.6-4.2,7.2v1c0,8.7,3.2,12.1,4.9,12.6v0.8h-23.4v-0.8c1.6-0.5,4.9-4,4.9-12.6l0.1-24.4c0-6.1-1.9-8.6-5.9-10v-1
			c6.2-1.1,13.3-9.1,16.8-9.1c2.8,0,2.7,3.1,2.7,5.3v28.1c9.7-9.2,25-28.6,33.2-28.6c5.4,0,8.5,2.6,8.5,7.3c0,4.3-2,7.6-6.6,7.6
			c-4,0-4.9-2.2-7.9-2.2c-6.1,0-13.8,7.2-21.2,14.7c1.6-0.3,3.4-0.4,5.4-0.4c6.4,0,10.8,6.8,10.8,13.3v4.8
			C156.1,118.9,156.5,122.6,158.5,123.3z M178,110.6c0,8.7,3.2,12.1,4.9,12.6v0.8h-23.3v-0.8c1.6-0.5,4.9-4,4.9-12.6v-3.1
			c0-6.1-1.9-8.6-5.9-10v-1c6.2-1.1,13.3-9.1,16.8-9.1c2.5,0,2.7,3.1,2.7,5.4V110.6z"/>
		<path class="st0" d="M225.3,110.6c0,8.7,2.2,12.1,3.4,12.6v0.8h-20.4v-0.8c1.1-0.5,3.4-4,3.4-12.6v-9.3c0-4.3-1.3-8-4.1-8
			c-3,0-4.4,3-4.4,8.8v8.5c0,8.7,2.2,12.1,3.4,12.6v0.8h-21.9v-0.8c1.6-0.5,4.9-4,4.9-12.6v-3.1c0-6.1-1.9-8.6-5.9-10v-1
			c6.2-1.1,13.3-9.1,16.8-9.1c2.5,0,2.7,3.1,2.7,5.4v0.1c2.5-2.9,6.1-5.4,11.3-5.4c8.1,0,10.8,6.8,10.8,12.9V110.6z"/>
		<path class="st0" d="M268,110.6c0,8.7,3.2,12.1,4.9,12.6v0.8h-18.6c-0.6-1.2-1-1.3-3.1,0.1c-1.6,1-3.6,1.6-6.1,1.6
			c-11.5,0-16.8-10.1-16.8-21.5c0-11.4,8.8-16.9,15.9-16.9c4.3,0,7.7,1.8,10.1,4.6v-5.8c0-6.1-1.9-8.6-5.9-10v-1
			c6.2-1.1,13.3-9.1,16.8-9.1c2.8,0,2.7,3.1,2.7,5.3V110.6z M248.8,122.6c3.7,0,5.3-4.5,5.5-13.4l0.1-6.4c-0.4-9.4-3-11.2-5.6-11.2
			c-3.9,0-5.5,4.5-5.5,15.6C243.2,118.1,244.9,122.6,248.8,122.6z"/>
	</g>
	<g>
		<path class="st1" d="M59.4,145.6c0,11.4-5.3,21.5-16.8,21.5c-2.5,0-4.5-0.7-6.1-1.6c-2.1-1.3-2.5-1.3-3.1-0.1H14.8v-0.8
			c1.6-0.5,4.9-4,4.9-12.6l0.1-24.4c0-6.1-1.9-8.6-5.9-10v-1c6.2-1.1,13.3-9.1,16.8-9.1c2.8,0,2.7,3.1,2.7,5.3v20.4
			c2.4-2.8,5.8-4.6,10.1-4.6C50.6,128.7,59.4,134.3,59.4,145.6z M44.5,148.5c0-11.1-1.6-15.6-5.5-15.6c-2.8,0-5.6,2.2-5.6,13.2v1.3
			c0,11,1.5,16.5,5.6,16.5C42.9,164,44.5,159.5,44.5,148.5z"/>
		<path class="st1" d="M98.2,156.9c-1.8,4.7-7.6,10.2-15.4,10.2c-12.3,0-20.7-8.5-20.7-19.2c0-10.6,8.4-19.2,19.2-19.2
			c10.6,0,15.7,6.2,17.3,15.8c0.4,2.5-0.7,4.6-5.7,4.6c-12.3,0.2-20.5,2.5-14.4,10.5c4.6,5.9,10.3,4.5,12.6-2.7H98.2z M75.9,148v0.6
			c7.7-3.6,10.1-1.4,10.1-7.9c0-6.6-2.1-8.9-5.3-8.9C77.1,131.7,75.9,137.6,75.9,148z"/>
		<path class="st1" d="M158.5,164.7v0.7c-1.3,1.1-4.4,1.8-6.8,1.8c-7.4,0-9.2-4.3-9.2-11.3c0-7-1.2-12.2-4.3-12.2
			c-2.2,0-3.8,1.6-4.2,7.2v1c0,8.7,3.2,12.1,4.9,12.6v0.8h-23.4v-0.8c1.6-0.5,4.9-4,4.9-12.6l0.1-24.4c0-6.1-1.9-8.6-5.9-10v-1
			c6.2-1.1,13.3-9.1,16.8-9.1c2.8,0,2.7,3.1,2.7,5.3v28.1c9.7-9.2,25-28.6,33.2-28.6c5.4,0,8.5,2.6,8.5,7.3c0,4.3-2,7.6-6.6,7.6
			c-4,0-4.9-2.2-7.9-2.2c-6.1,0-13.8,7.2-21.2,14.7c1.6-0.3,3.4-0.4,5.4-0.4c6.4,0,10.8,6.8,10.8,13.3v4.8
			C156.1,160.3,156.5,164,158.5,164.7z M178,151.9c0,8.7,3.2,12.1,4.9,12.6v0.8h-23.3v-0.8c1.6-0.5,4.9-4,4.9-12.6v-3.1
			c0-6.1-1.9-8.6-5.9-10v-1c6.2-1.1,13.3-9.1,16.8-9.1c2.5,0,2.7,3.1,2.7,5.4V151.9z"/>
		<path class="st1" d="M225.3,151.9c0,8.7,2.2,12.1,3.4,12.6v0.8h-20.4v-0.8c1.1-0.5,3.4-4,3.4-12.6v-9.3c0-4.3-1.3-8-4.1-8
			c-3,0-4.4,3-4.4,8.8v8.5c0,8.7,2.2,12.1,3.4,12.6v0.8h-21.9v-0.8c1.6-0.5,4.9-4,4.9-12.6v-3.1c0-6.1-1.9-8.6-5.9-10v-1
			c6.2-1.1,13.3-9.1,16.8-9.1c2.5,0,2.7,3.1,2.7,5.4v0.1c2.5-2.9,6.1-5.4,11.3-5.4c8.1,0,10.8,6.8,10.8,12.9V151.9z"/>
		<path class="st1" d="M268,151.9c0,8.7,3.2,12.1,4.9,12.6v0.8h-18.6c-0.6-1.2-1-1.3-3.1,0.1c-1.6,1-3.6,1.6-6.1,1.6
			c-11.5,0-16.8-10.1-16.8-21.5c0-11.4,8.8-16.9,15.9-16.9c4.3,0,7.7,1.8,10.1,4.6v-5.8c0-6.1-1.9-8.6-5.9-10v-1
			c6.2-1.1,13.3-9.1,16.8-9.1c2.8,0,2.7,3.1,2.7,5.3V151.9z M248.8,164c3.7,0,5.3-4.5,5.5-13.4l0.1-6.4c-0.4-9.4-3-11.2-5.6-11.2
			c-3.9,0-5.5,4.5-5.5,15.6C243.2,159.5,244.9,164,248.8,164z"/>
	</g>
	<g>
		<path class="st2" d="M92.5,150.4c1.3,1.7,3.7,4.5,3.7,8.8c0,7.3-6.1,15.2-18.7,15.2c-18.9,0-29.1-9.9-40-13.5
			c-2.2-0.6-3.4-0.1-3.4,1.6v19.2c2.4-2.8,5.8-4.6,10.1-4.6c7.2,0,15.9,5.5,15.9,16.9c0,11.4-5.3,21.5-16.8,21.5
			c-2.5,0-4.5-0.7-6.1-1.6c0-0.1,0-0.1-0.1-0.1H15.5V213c1.6-0.5,4.9-4,4.9-12.6l0.1-24.4c0-6.1-1.9-8.6-5.9-10v-1
			c6.2-1.1,11.5-9.1,19.1-9.1c17.5,0,23.9,3.9,37.1,3.9c8.4,0,16-1.6,20.3-9L92.5,150.4z M34,194.5v1.3c0,11,1.5,16.5,5.6,16.5
			c3.9,0,5.5-4.5,5.5-15.5c0-11.1-1.6-15.6-5.5-15.6C36.9,181.3,34,183.5,34,194.5z"/>
		<path class="st2" d="M98.5,205.4c-1.8,4.7-7.6,10.2-15.4,10.2c-12.3,0-20.7-8.5-20.7-19.2s8.4-19.2,19.2-19.2
			c10.6,0,15.7,6.2,17.3,15.8c0.4,2.5-0.7,4.6-5.7,4.6c-12.3,0.2-20.5,2.5-14.4,10.5c4.6,5.9,10.3,4.5,12.6-2.7H98.5z M76.2,196.4
			v0.6c7.7-3.6,10.1-1.4,10.1-7.9c0-6.6-2.1-8.9-5.3-8.9C77.4,180.1,76.2,186.1,76.2,196.4z"/>
		<path class="st2" d="M158.8,213.1v0.7c-1.3,1.1-4.4,1.8-6.8,1.8c-7.4,0-9.2-4.3-9.2-11.3c0-7-1.2-12.2-4.3-12.2
			c-2.2,0-3.8,1.6-4.2,7.2v1c0,8.7,3.2,12.1,4.9,12.6v0.8h-23.4V213c1.6-0.5,4.9-4,4.9-12.6l0.1-24.4c0-6.1-1.9-8.6-5.9-10v-1
			c6.2-1.1,13.3-9.1,16.8-9.1c2.8,0,2.7,3.1,2.7,5.3v28.1c9.7-9.2,25-28.6,33.2-28.6c5.4,0,8.5,2.6,8.5,7.3c0,4.3-2,7.6-6.6,7.6
			c-4,0-4.9-2.2-7.9-2.2c-6.1,0-13.8,7.2-21.2,14.7c1.6-0.3,3.4-0.4,5.4-0.4c6.4,0,10.8,6.8,10.8,13.3v4.8
			C156.4,208.7,156.8,212.4,158.8,213.1z M178.3,200.3c0,8.7,3.2,12.1,4.9,12.6v0.8h-23.3V213c1.6-0.5,4.9-4,4.9-12.6v-3.1
			c0-6.1-1.9-8.6-5.9-10v-1c6.2-1.1,13.3-9.1,16.8-9.1c2.5,0,2.7,3.1,2.7,5.4V200.3z"/>
		<path class="st2" d="M225.6,200.3c0,8.7,2.2,12.1,3.4,12.6v0.8h-20.4V213c1.1-0.5,3.4-4,3.4-12.6v-9.3c0-4.3-1.3-8-4.1-8
			c-3,0-4.4,3-4.4,8.8v8.5c0,8.7,2.2,12.1,3.4,12.6v0.8h-21.9V213c1.6-0.5,4.9-4,4.9-12.6v-3.1c0-6.1-1.9-8.6-5.9-10v-1
			c6.2-1.1,13.3-9.1,16.8-9.1c2.5,0,2.7,3.1,2.7,5.4v0.1c2.5-2.9,6.1-5.4,11.3-5.4c8.1,0,10.8,6.8,10.8,12.9V200.3z"/>
		<path class="st2" d="M286.2,225.6c0,7.2-7.5,9.4-13.4,9.4c-12.1,0-16.9-8.7-17.4-20.9c-0.1-1.6-1.2-1.4-3.1-0.1
			c-1.6,1-3.6,1.6-6.1,1.6c-11.5,0-16.8-10.1-16.8-21.5c0-11.4,8.8-16.9,15.9-16.9c4.4,0,7.8,1.8,10.2,4.6l-0.1-5.8
			c-0.1-6.1-1.9-8.6-5.9-10v-1c6.2-1.1,13.3-9.1,16.8-9.1c2.8,0,2.7,3.1,2.7,5.3V197l0.1,24.8c0,4.6,1.4,10.1,4.6,10.1
			c1.2,0,1.9-0.2,1.9-0.7c0-1.3-2.8-2-2.8-6.1c0-3.7,3.2-6.5,6.9-6.5S286.2,221.9,286.2,225.6z M249.8,212.4c4.1,0,5.6-5.5,5.6-16.5
			v-1.3c0-11-2.8-13.2-5.6-13.2c-3.9,0-5.5,4.5-5.5,15.6C244.3,207.9,245.9,212.4,249.8,212.4z"/>
	</g>
</g>
</svg>
