<?xml version="1.0" encoding="utf-8"?>
<!-- Generator: Adobe Illustrator 25.2.0, SVG Export Plug-In . SVG Version: 6.00 Build 0)  -->
<svg version="1.1" id="Layer_1" xmlns="http://www.w3.org/2000/svg" xmlns:xlink="http://www.w3.org/1999/xlink" x="0px" y="0px"
	 width="300px" height="300px" viewBox="0 0 300 300" style="enable-background:new 0 0 300 300;" xml:space="preserve">
<style type="text/css">
	.st0{fill:#CF8832;}
</style>
<g>
	<path class="st0" d="M196.7,60.6c0.7-2.1-2.8-3.3-2.8-3.3l-2.2,4.7C192.7,62.6,195.7,63.5,196.7,60.6z M151.1,53.3
		c0.1-6-5.4-5.7-5.4-5.7l0,11.6C148.9,58.7,151,56.6,151.1,53.3z M226.6,219.1c-4.5-4-7.8,0.4-7.8,0.4l8.8,7.5
		C229.3,224.3,229,221.3,226.6,219.1z M55.8,207.5l1.2,2l4.3-3.8L55.8,207.5z M74,77.7c-1.9-1.6-4,1.5-4,1.5l3,3.1
		C74,81.5,75.7,79.1,74,77.7z M125.7,61.8c0.6,0.1,3.9,0.3,2.6-6.3c-1-5.4-2.7-6.3-4.6-5.9c-1.7,0.4-2,3.6-1.4,6.2
		C123.6,61.7,125.1,61.7,125.7,61.8z M183.4,243.8c-1.6,0.7-1.3,3.9-0.3,6.4c2.3,5.5,3.8,5.3,4.4,5.3c0.6,0,3.8-0.4,1.5-6.7
		C187,243.5,185.2,243,183.4,243.8z M47.5,133.8c-5.9-1.2-6.5,4.3-6.5,4.3l11.4,2.1C52.5,136.9,50.8,134.4,47.5,133.8z M147.2,35.4
		C81.3,35.4,27.8,89,27.8,154.8s53.6,119.6,119.5,119.6c65.9,0,119.5-53.6,119.5-119.5S213,35.4,147.2,35.4z M253.3,114.4
		c2.1,1.9,2.3,5.1,2.1,6.7c-0.2,1.6-0.9,1.8-1.8,1.7c-0.8-0.1-2.1-0.3-2.8-0.4c-0.6-0.1-1.2-0.4-1-1.5c0.2-1,0-3.1-1.6-2.6
		c-1.6,0.5-1.8,2.7-2.8,5.5c-1.1,3.1-3.9,5.1-7.4,5.2c-3.5,0.1-6.4-3.4-6.7-6.8c-0.4-4.6,1.5-4.1,2.2-4.3c0.7-0.1,2.1,0.1,3.4,0.5
		c0.7,0.2,0.6,1.3,0.6,1.3s-0.2,2.9,0.8,3.2c1.4,0.4,1.8-1.9,2.5-4.3c0.6-2.1,1.6-3.9,4.7-5.5C248.2,111.7,251.2,112.5,253.3,114.4z
		 M244.8,96.5c0.9,1.6,1.6,2.1-0.8,4.9c-2.3,2.8-9.6,10.4-13.2,13.9c-0.5,0.5-1.8,1-3-0.9c-1.3-2-2.1-3.1-0.9-4.3
		c1.3-1.2,1.6-1.5,1.6-1.5l-2.3-3.7l-2,0.6c0,0-1.5,0.6-2.4-0.9c-0.8-1.5-2.7-3.9,0.1-4.7c5.1-1.4,17.5-4.9,18.9-5.3
		C242.6,94.2,243.8,94.9,244.8,96.5z M227.6,74.8c1.4,1.1,7,7.4,7,7.4s0.9,0.9-0.2,1.9c-1.2,1.1-2.3,2.1-2.3,2.1s-0.8,0.9-2.5-0.7
		c-1.7-1.5-3.5-3.6-3.5-3.6l-2.2,2.1l3.2,3.6c0,0,1.2,1-0.1,2.3c-1.3,1.4-2.3,1.9-2.3,1.9s-0.9,0.7-2.3-0.7c-1.3-1.5-2.7-3-2.7-3
		l-2.3,2.1l3.4,3.9c0,0,1.6,1.3,0,2.8c-1.1,1.1-1.2,1.2-1.8,1.6c-0.7,0.4-1.1,1-2.8-0.9c-1.7-1.8-5.9-6.5-5.9-6.5s-1.2-1.1,0.3-2.4
		c1.5-1.3,14.5-13.4,14.5-13.4S226.2,73.7,227.6,74.8z M210.6,61.6c0,0,0.5-0.9,1.5-0.2c1,0.8,3.4,2.6,3.4,2.6s1,0.7-0.1,2
		c-1.1,1.3-9.6,12.9-9.6,12.9s3.2,2.3,3.8,2.9c0.6,0.5,1.1,0.9,0.4,1.7c-0.6,0.8-1.9,2.5-1.9,2.5s-1,1.7-2.7,0.4
		c-2-1.6-7.7-5.6-7.7-5.6s-1.3-0.7-0.2-2.2c1.1-1.5,5.4-7,5.4-7L210.6,61.6z M181,69.9c0,0,6.3-13.2,8.8-17.7c0.5-1,1.2-2,2.9-1.3
		c1.7,0.7,11,4.1,9.1,10.6c-1.2,4.2-3.8,6.5-7.5,6.9c-2.6,0.1-5.1-1.1-5.1-1.1s-1.7,3.1-2.5,4.8c-0.2,0.4-0.7,1.9-2.1,1.3
		C183.1,72.8,180.2,71.5,181,69.9z M162.5,59.8c1.1-0.2,3.4,0,4.3,2.4c0.6,4.2-4.5,7.9-4.5,7.9s-0.5,0.3-1.1-0.7
		c0.4-0.7,1.3-2.2,1.4-2.8c-1.5-0.4-2.7-1.8-2.6-2.9C159.9,62.3,160.2,60.5,162.5,59.8z M140,52.5c0-1,0.1-9.3,0.1-9.3
		c0.1-0.7-0.1-1.6,1.7-1.7c2.7-0.2,6.7-0.4,10.2,1.5c3,1.7,6.9,8.3,3.6,16c-2.9,6.8-9.5,6.4-13.1,6.3c-3,0-2.5-2.4-2.6-3.1
		C139.8,61.5,140,53.6,140,52.5z M122.1,44.1c5.4-1.6,10,2.5,11.7,10.3c1.6,7.6-1,12.1-5.8,13.3c-5.4,1.4-8.9-2.3-10.8-8.6
		C115.8,54.5,114.9,45.7,122.1,44.1z M97.9,52.2c2.7-2,5.6-1.2,7.1-0.6c1.5,0.6,1.4,1.6,1.4,1.6l-0.6,2.4c-0.5,1.4-0.9,1.6-1.3,1.5
		c-0.4-0.1-1.5-0.5-2.7,0c-2.5,1.1-2.1,4.1-0.4,7.6c1.4,2.9,3.5,4.4,4.5,4.3c1.2-0.1,2.4-1,2.6-2.6c0.1-0.6-0.2-1.6-0.3-2.2
		c-0.8,0.4-1.9,0.9-2.1,1c-0.8,0.3-1.3-0.6-1.4-0.9c-0.2-0.5-1.2-2.6-1.2-2.6c-0.4-1,0.5-1.5,0.5-1.5l5.6-2.5c0.5-0.2,1.2,0,1.5,0.5
		c2.6,4.9,3.9,8.8,1.6,12.9c-1.1,2.1-4.5,4-8.1,3.6c-5.9-1.4-9.2-7.8-9.9-12.5C93.9,57.3,95.2,54.2,97.9,52.2z M63.5,78.2
		c1.2-1.3,6.5-9,13-5.1c3.7,2.3,3.8,6,3.3,8c0,0.2-0.1,0.4-0.2,0.6c1.2,0.2,2.9,0.6,3.9,0.8c1.7,0.3,3.9,0.5,4.3,0.5
		c0.6,0,1.2,0.4,1.1,1.5c-0.1,1.1-0.4,3-0.4,3s-0.3,1.2-2.1,1c-1.6-0.1-5.5-0.5-8.7-1.5c1.1,1.1,2.8,3,3.7,4
		c0.3,0.3,1.6,1.3,0.6,2.4c-1.1,1.2-3.1,3.4-4.4,2.1c0,0-10.4-10.4-13.8-14.2C63.1,80.5,62.3,79.6,63.5,78.2z M52.7,92.1
		c1-1.5,1.2-2.3,4.8-1.4C61,91.6,71,95,75.7,96.8c0.7,0.3,1.7,1.2,0.5,3.1c-1.3,2-1.9,3.3-3.5,2.6c-1.6-0.7-2.1-0.8-2.1-0.8
		l-2.4,3.6l1.3,1.5c0,0,1.2,1.1,0.2,2.5c-1,1.4-2.4,4.1-4.3,1.9c-3.4-4-11.9-13.8-12.8-14.8C51.5,95,51.7,93.6,52.7,92.1z
		 M40.3,116.8c0.4-1.7,3.7-9.5,3.7-9.5s0.5-1.2,1.8-0.6c1.4,0.6,2.9,1.2,2.9,1.2s1.2,0.4,0.5,2.5c-0.7,2.1-1.8,4.7-1.8,4.7l2.8,1.1
		l1.9-4.4c0,0,0.3-1.5,2.1-0.9c1.8,0.6,2.7,1.3,2.7,1.3s1,0.5,0.3,2.4c-0.8,1.8-1.6,3.8-1.6,3.8l2.9,1.2l2.1-4.7c0,0,0.6-2,2.5-1.2
		c1.4,0.6,1.6,0.6,2.2,1c0.7,0.4,1.4,0.6,0.4,2.9c-0.9,2.3-3.4,8.1-3.4,8.1s-0.5,1.6-2.3,0.8c-1.8-0.8-18.3-7.5-18.3-7.5
		S39.9,118.5,40.3,116.8z M34.3,140.9c0.2-2.7,0.7-6.6,3.3-9.7c2.2-2.7,9.3-5.4,16.3-0.8c6.2,4,4.6,10.4,4,14c-0.5,3-2.8,2-3.5,2
		c-0.7,0-8.5-1.6-9.5-1.8c-1-0.2-9.1-1.7-9.1-1.7C35.1,142.7,34.2,142.7,34.3,140.9z M45.1,152.7c3.2,8.7,1.1,6.6,9.9,9.9
		c-8.7,3.2-6.6,1.1-9.9,9.9c-3.2-8.7-1.1-6.6-9.9-9.9C43.9,159.4,41.9,161.5,45.1,152.7z M44,197.5c0,0-1,0-2.7-1.5
		c-1.8-1.5-3.4-4.7-2.5-8.2c2.1-5.7,9.2-8.3,14-8.4c4.7-0.2,7.3,0.9,9,3.9c1.7,2.9,0.8,6,0,7.4c-0.8,1.4-1.6,1.2-1.6,1.2l-2.3-0.9
		c-1.4-0.6-1.5-1.1-1.3-1.5c0.2-0.4,0.4-1.3,0-2.6c-0.8-2.5-4.3-1.8-7.5-0.9c-3.1,0.8-4.1,2.7-4.2,3.7c0,1.2,0.5,1.8,1.7,2.6
		c1.5,1.1,0.5,2.1,0.5,2.1s-0.3,0.5-1,1.6C44.9,197.8,44,197.5,44,197.5z M52.4,218.7c-1.3-2-2.1-3.2-0.8-4.3
		c1.3-1.2,1.7-1.5,1.7-1.5l-2.3-3.7l-2,0.5c0,0-1.6,0.6-2.4-0.9c-0.8-1.5-2.6-4,0.2-4.7c5.1-1.3,17.6-4.7,18.9-5.1
		c1.8-0.5,3,0.3,3.9,1.8c0.9,1.6,1.5,2.1-0.8,4.9c-2.4,2.8-9.7,10.3-13.4,13.8C54.9,220.1,53.6,220.6,52.4,218.7z M67.5,236.6
		c-0.8-0.9-1.8-1.4-1.2-3.7c0.7-2.8,4-10.3,4-10.3l-6.8,6.6c0,0-1.4,1.7-2.6,0.4c-1.2-1.3-3.5-2.8-1.7-4.6c1.8-1.7,5-4.8,5-4.8
		l10.3-9.5c0,0,0.7-0.6,1.6,0.1c0.9,0.7,1.1,1.1,2,2.1c0.7,0.7,1.3,0.9-0.1,4.1c-1.2,2.8-4.7,11.2-4.7,11.2s6.8-6.4,9-8.5
		c0.3-0.3,1-1,1.9-0.2c0.9,0.8,2.2,2.3,2.8,2.9c0.3,0.4,0.7,1-0.5,2.1c-1.2,1.1-10.6,9.9-13.9,12.9
		C70.6,239.1,69.2,238.4,67.5,236.6z M96,237.4c-0.1-0.4-0.5-1.3-1.5-2c-2.1-1.5-4.5,1.2-6.5,3.8c-2,2.6-1.7,4.7-1,5.5
		c0.7,1,1.5,1.1,3,1.1c1.8-0.1,1.7,1.3,1.7,1.3s0.1,0.6,0.2,1.9c0.2,2.2-0.7,2.5-0.7,2.5s-0.8,0.6-3.1,0.5c-2.4-0.1-5.5-1.7-6.9-5
		c-1.8-5.8,2.3-12.2,6-15.2c3.7-3,6.4-3.7,9.5-2.4c3.1,1.3,4.2,4.3,4.5,5.9c0.3,1.6-0.5,1.9-0.5,1.9l-2.4,0.7
		C96.5,238.1,96.1,237.9,96,237.4z M113.5,245.3c-2.1-0.7-4.6-1.9-4.6-1.9l-1.2,2.8l4.4,2c0,0,1.5,0.4,0.9,2.2
		c-0.7,1.8-1.3,2.6-1.3,2.6s-0.5,1-2.4,0.2c-1.8-0.8-3.7-1.6-3.7-1.6l-1.2,2.9l4.7,2.2c0,0,2,0.6,1.1,2.5c-0.6,1.4-0.6,1.6-1,2.2
		c-0.4,0.7-0.6,1.3-2.9,0.4c-2.3-1-8-3.5-8-3.5s-1.6-0.5-0.7-2.3c0.9-1.8,7.8-18.1,7.8-18.1s0.4-1.8,2.1-1.4
		c1.7,0.4,9.4,3.9,9.4,3.9s1.2,0.5,0.6,1.9c-0.6,1.4-1.3,2.9-1.3,2.9S115.7,246,113.5,245.3z M130.5,263c-0.2,1-0.7,3-0.7,3
		s-0.2,2-2.3,1.4c-2.4-0.6-9.3-2-9.3-2s-1.5-0.1-1.1-1.9c0.4-1.9,2-8.6,2-8.6l2.8-12.2c0,0,0.1-1.1,1.3-0.8c1.3,0.3,4.2,1,4.2,1
		s1.2,0.2,0.8,1.9c-0.5,1.7-3.5,15.7-3.5,15.7s3.9,0.8,4.6,1C130.2,261.9,130.8,262,130.5,263z M147.1,239.1
		c-46.5,0-84.2-37.8-84.2-84.2s37.7-84.2,84.2-84.2c46.5,0,84.2,37.7,84.2,84.2C231.3,201.3,193.6,239.1,147.1,239.1z M172.6,266.8
		c0,0-1.6,0.3-3.2,0.4c-1.6,0.2-1.5-0.9-1.6-1.5c-0.4-1.7-1.1-5.2-1.6-7.7l-1.1,8.5c-0.1,0.7-0.7,1.3-1.5,1.4l-2.3,0.3
		c-0.8,0.1-1.6-0.3-2-1.1l-3.5-7.7c0.2,2.5,0.5,6,0.6,7.7c0,0.5,0.4,1.6-1.2,1.8c-1.6,0.3-3.2,0.4-3.2,0.4s-1.3,0.4-1.5-2
		c-0.2-2.7-1.5-14.9-1.5-19.4c0-0.5-0.2-2.4,1-2.6l3.5-0.5c0,0,0.9-0.2,1.2,0.6l0,0l0,0c0,0,0,0,0,0.1l6.4,13.2l2.2-13.5
		c0.3-1.9,1.3-1.9,1.3-1.9l3.7-0.5c1-0.1,1.4,1.2,1.5,1.6c1.1,4.4,3.2,17.2,3.6,19.7C173.9,266.9,172.6,266.8,172.6,266.8z
		 M190.8,260.8c-5.1,2.3-9.1-0.7-12.1-6.6c-2.2-4.3-4.6-12.9,2.3-15.7c5.1-2.5,10.3,0.7,13.3,8.2
		C197.1,253.9,195.3,258.8,190.8,260.8z M218,244.5c-1,0.7-1.6,1.6-3.8,0.7c-2.7-1-9.7-5.2-9.7-5.2l5.7,7.6c0,0,1.5,1.6,0.1,2.6
		c-1.5,1-3.2,3.2-4.8,1.1c-1.4-1.9-4.2-5.6-4.2-5.6l-8.1-11.4c0,0-0.5-0.8,0.3-1.6c0.8-0.8,1.3-0.9,2.3-1.7c0.8-0.6,1.1-1.2,4.1,0.6
		c2.7,1.6,10.5,6.1,10.5,6.1s-5.5-7.5-7.3-10c-0.3-0.4-0.9-1.1,0-1.9c0.9-0.8,2.5-2,3.2-2.4c0.5-0.3,1-0.6,2,0.8
		c1,1.4,8.5,11.8,11.1,15.4C220.9,241.7,220.1,243,218,244.5z M230.1,233.6c-2,2.3-3.5,0.3-4.1-0.1c-0.6-0.4-6.5-5.7-7.3-6.4
		c-0.8-0.7-7-6.1-7-6.1c-0.5-0.5-1.2-1-0.2-2.4c1.6-2.2,4-5.4,7.8-6.7c3.3-1.2,10.8,0.1,14.5,7.6
		C237.1,226.1,232.5,230.8,230.1,233.6z M250.2,204.5c-1.1,2.1-1.7,3.4-3.3,2.9c-1.7-0.5-2.1-0.7-2.1-0.7l-2,3.8l1.5,1.4
		c0,0,1.3,1,0.4,2.5c-0.9,1.5-2.1,4.3-4.1,2.2c-3.7-3.7-13-12.7-14-13.7c-1.3-1.3-1.3-2.7-0.4-4.3c0.9-1.6,1-2.4,4.7-1.8
		c3.6,0.6,13.8,3.1,18.7,4.5C250.1,201.6,251.2,202.5,250.2,204.5z M255.9,189c-0.2,1.2-0.6,2.9-1.2,3.7c-0.4,0.5-0.8,0.6-2.6,0.1
		c-2.6-0.7-8-2.4-8-2.4l-12.6,1.7c0,0-1.5,0.2-1.2-1.1c0.3-1.3,0.9-3.3,1.3-4.3c0.2-0.4,0.3-0.7,1.6-0.7c1,0,5.7-0.5,5.7-0.5
		l-4.6-4.3c0,0-0.8-0.5-0.4-1.7l1.1-3.5c0,0,0.7-1.8,1.9-0.6c1.2,1.3,9.2,8.7,9.2,8.7s8.4,2.9,8.6,3
		C255.5,187.4,256.1,187.8,255.9,189z M250.1,172.5c-3.2-8.7-1.1-6.6-9.9-9.9c8.7-3.2,6.6-1.1,9.9-9.9c3.2,8.7,1.1,6.6,9.9,9.9
		C251.3,165.8,253.4,163.7,250.1,172.5z M259.2,143.8c-1.6,0.2-3.1,0.5-3.1,0.5s-1.2,0.3-1.7-1.9c-0.5-2.2-0.9-4.9-0.9-4.9l-3,0.5
		l0.7,4.8c0,0,0.5,1.5-1.4,1.9c-1.9,0.4-2.9,0.3-2.9,0.3s-1.2,0.1-1.5-1.9c-0.3-2-0.6-4-0.6-4l-3.1,0.5l0.7,5.1c0,0,0.6,2-1.5,2.3
		c-1.5,0.2-1.7,0.3-2.4,0.3c-0.8,0-1.5,0.2-1.9-2.3c-0.4-2.5-1.3-8.7-1.3-8.7s-0.4-1.6,1.5-1.8c2-0.2,19.5-3.1,19.5-3.1
		s1.7-0.6,2.3,1c0.5,1.7,1.8,10,1.8,10S260.7,143.6,259.2,143.8z M238.9,207.2l1.1-2.1l-5.5-1.8L238.9,207.2z M147.2,26.7
		C76.5,26.7,19,84.2,19,154.9s57.5,128.2,128.2,128.2c70.6,0,128.2-57.5,128.2-128.2S217.9,26.7,147.2,26.7z M147.2,278.8
		c-68.4,0-123.9-55.5-123.9-123.9S79,31,147.2,31S271,86.6,271,154.9S215.6,278.8,147.2,278.8z M236.5,101.4l-5.5,1.9l1.3,2
		L236.5,101.4z M66,99.7l-5.3-2.2l4.1,4.2L66,99.7z"/>
</g>
</svg>
