<?xml version="1.0" encoding="utf-8"?>
<!-- Generator: Adobe Illustrator 28.0.0, SVG Export Plug-In . SVG Version: 6.00 Build 0)  -->
<svg version="1.1" id="Layer_1" xmlns="http://www.w3.org/2000/svg" xmlns:xlink="http://www.w3.org/1999/xlink" x="0px" y="0px"
	 viewBox="0 0 300 300" style="enable-background:new 0 0 300 300;" xml:space="preserve">
<style type="text/css">
	.st0{fill:#231F20;}
</style>
<g>
	<g>
		<g>
			<g>
				<path class="st0" d="M97.96,135.99c-1.04,1.07-2.6,1.9-4.54,2.48c-2.89,0.87-5.1,0.43-5.71-1.31c-0.31-0.9-0.2-1.4,0.72-3.3
					c0.41-0.83,1.03-2.05,0.34-4.91c-0.35-1.45-0.53-2.18-0.92-3.64c-0.36-1.44-0.61-2.28-0.89-2.91c-0.38-0.88-1.09-1.7-1.71-1.96
					c-0.83-0.34-1.41-0.76-1.83-1.7c-0.88-1.95-0.06-3.86,3.14-4.87c1.53-0.48,3.77-0.77,5.19-0.65c0.79-0.66,2.23-1.5,3.95-1.93
					c6.16-1.56,11.83,1.69,14.88,8.33c3.82,8.33,0.25,14.63-7.03,16.22C101.07,136.4,99.57,136.44,97.96,135.99z M101.62,121.39
					c-1.81-4-3.86-5.99-5.51-5.58c-1.42,0.35-1.53,1.67-0.68,4.59c0.85,2.88,1.22,4.3,1.89,7.14c0.35,1.52,0.55,2.25,0.77,2.84
					c0.55,1.43,1.4,2.09,2.44,1.85C103.51,131.55,104.23,127.18,101.62,121.39z"/>
				<path class="st0" d="M114.05,123.97c-3.45-8.45-1.41-16.33,6.89-17.63c6.36-0.99,12.38,2.62,15.09,9.21
					c3.77,9.16-0.61,15.79-8.63,16.66C121.27,132.88,116.51,130.02,114.05,123.97z M127.71,117.35c-1.74-4.06-3.87-5.89-5.44-5.67
					c-2.18,0.32-1.68,5.48,0.34,10.51c1.58,3.92,3.08,5.4,4.65,5.22C129.43,127.17,129.95,122.56,127.71,117.35z"/>
				<path class="st0" d="M160.34,104.21c0.57,1.45,0.34,2.46-0.29,3.59c-0.59,1.05-0.77,2.26-0.36,4.27
					c1.12,5.23,1.51,7.74,2.1,12.63c0.34,2.77-0.7,4.2-2.87,4.45c-2.23,0.26-3.47-0.46-4.95-2.19c-3.52-4.09-5.39-6.18-9.52-10.43
					c0.25,1.08,0.37,1.61,0.59,2.68c0.23,1.05,0.4,1.88,0.62,2.52c0.38,1.16,0.73,1.85,1.48,2.57c0.85,0.81,1.28,1.39,1.55,2.32
					c0.56,2-0.4,3.63-4.04,3.96c-3.09,0.28-4.62-0.97-5.11-2.6c-0.31-1.05-0.04-1.88,0.66-3.05c0.66-1.09,0.79-2.48,0.26-4.82
					c-0.35-1.55-0.54-2.33-0.95-3.91c-0.28-1.06-0.7-2.52-0.99-3.19c-0.37-0.88-0.96-1.34-1.63-1.82c-1.03-0.74-1.48-1.32-1.92-2.26
					c-0.93-1.98-0.21-4.14,2.67-4.55c1.24-0.17,1.85-0.26,3.09-0.44c1.83-0.26,3.59,0.51,5.54,2.52c4.26,4.38,6.18,6.52,9.76,10.68
					c-0.24-1.16-0.37-1.75-0.64-2.93c-0.24-1.09-0.48-2.24-0.87-3.3c-0.35-0.95-0.93-1.72-1.6-2.17c-0.81-0.55-1.46-1.19-1.99-2.47
					c-0.94-2.25-0.34-4.26,3.3-4.86C157.67,100.85,159.62,102.38,160.34,104.21z"/>
				<path class="st0" d="M164.15,114.15c-0.58-1.84,2.29-3.3,2.06-5.2c-1.97,0.41-3.62-0.65-4.44-2.84c-1.19-3.18-0.54-5.9,2.47-6.5
					c2.54-0.51,4.51,0.89,5.67,4.18c1.84,5.25-0.19,10.78-3.76,11.39C165.11,115.36,164.43,115.02,164.15,114.15z"/>
				<path class="st0" d="M179.55,122.17c-0.25-1.11,0.06-2.08,0.79-3.49c0.69-1.32,0.85-2.87,0.53-5.4
					c-0.34-2.72-0.54-4.1-0.99-6.89c-0.3-1.83-0.52-2.77-0.73-3.44c-0.22-0.71-0.6-1.01-1.11-0.86c-1.93,0.53-0.77,8.88-2.96,9.43
					c-1.08,0.27-2.16-1.2-3.08-4.05c-1.56-4.86-1.23-9.9,1.05-10.44c1.36-0.33,2.77,0.5,5.23-0.17c2.91-0.79,4.36-1.22,7.23-2.15
					c1.71-0.55,3.52-2.32,4.61-2.72c1.71-0.61,2.88,0.4,3.68,3.17c1.41,4.9,0.99,9.88-0.69,10.56c-2.15,0.87-3.72-7.21-5.53-6.58
					c-0.6,0.21-0.74,1.15-0.43,3.09c0.52,3.33,0.75,4.98,1.16,8.25c0.15,1.12,0.26,2,0.43,2.68c0.29,1.21,0.59,1.91,1.28,2.54
					c0.77,0.71,1.17,1.25,1.39,2.24c0.47,2.11-0.81,4.41-5.8,5.93C181.36,125.14,179.94,123.91,179.55,122.17z"/>
				<path class="st0" d="M79.83,171.44c-0.28-1.05,0.07-2.2,0.93-3.92c0.8-1.61,1.03-3.23,0.82-5.64c-0.23-2.6-0.34-3.89-0.57-6.47
					c-0.15-1.69-0.35-2.49-0.53-3.06c-0.18-0.6-0.57-0.77-1.14-0.48c-2.16,1.12-1.65,8.95-4.14,10.55
					c-1.23,0.79-2.37-0.19-3.07-2.72c-1.2-4.3-0.01-9.62,2.46-10.99c1.47-0.82,2.85-0.54,5.54-1.83c3.18-1.52,4.76-2.19,7.92-3.38
					c1.88-0.71,3.93-2.36,5.13-2.75c1.87-0.6,3.09,0.28,3.85,2.64c1.33,4.17,0.5,8.54-1.39,9.2c-2.41,0.83-3.6-6.22-5.63-5.46
					c-0.67,0.25-0.89,1.1-0.65,2.78c0.4,2.89,0.43,4.45,0.66,7.45c0.09,1.02,0.17,1.84,0.31,2.46c0.26,1.1,0.56,1.71,1.28,2.21
					c0.82,0.56,1.22,1.03,1.43,1.93c0.44,1.93-0.98,3.97-6.48,6.96C81.89,173.47,80.27,173.08,79.83,171.44z"/>
				<path class="st0" d="M105.12,162.5c-3.54,1.08-4.96,0.61-5.3-0.98c-0.21-1.02,0.17-1.98,1.05-3.35c0.82-1.28,1.17-2.63,1-4.97
					c-0.11-1.47-0.17-2.21-0.29-3.68c-0.07-0.99-0.15-2.28-0.34-2.93c-0.24-0.8-0.72-1.39-1.34-1.69c-0.75-0.35-1.27-0.77-1.56-1.69
					c-0.62-1.96,0.83-3.65,4.11-4.43c4.87-1.17,7.29-1.62,12.08-2.38c3.02-0.48,4.61,1.35,5.17,3.53c0.55,2.12,0.08,5.88-1.32,6.1
					c-0.53,0.08-0.86-0.18-1.39-1.06c-1.38-2.27-3.65-3.56-5.46-3.22c-0.05,0.01-0.08,0.02-0.14,0.03
					c-1.16,0.22-1.69,1.13-1.64,2.09c0.01,0.13,0.01,0.19,0.02,0.32c0.03,0.38,0.08,0.89,0.15,1.2c0.25,1.12,0.75,1.51,1.3,1.4
					c0.03-0.01,0.04-0.01,0.07-0.01c1.29-0.26,1.45-2.26,2.84-2.5c0.98-0.17,1.52,0.54,1.78,1.78c0.46,2.2-0.16,5.75-1.66,6.05
					c-0.54,0.11-0.87-0.15-1.25-0.72c-0.34-0.51-0.91-1.08-1.65-0.92c-0.03,0.01-0.04,0.01-0.07,0.01
					c-0.68,0.14-1.12,0.76-1.17,1.59c-0.01,0.11-0.01,0.16-0.02,0.26c-0.03,0.4,0.02,1.17,0.15,1.86c0.24,1.25,1.23,1.7,2.43,1.44
					c0.03-0.01,0.04-0.01,0.07-0.01c3.47-0.76,4.48-6.85,6.8-7.22c1.06-0.17,1.76,0.65,2.04,2.19c0.69,3.87-0.91,8.2-4.85,9
					C112.12,160.51,109.8,161.07,105.12,162.5z"/>
				<path class="st0" d="M127.94,157.98c-3.43,0.47-4.75-0.24-4.99-1.78c-0.16-0.99,0.25-1.81,1.14-2.94
					c0.83-1.06,1.23-2.36,1.11-4.48c-0.06-1.39-0.1-2.09-0.19-3.48c-0.05-0.93-0.08-1.9-0.28-2.79c-0.18-0.8-0.6-1.44-1.17-1.81
					c-0.69-0.45-1.16-0.93-1.39-1.85c-0.51-1.97,0.85-3.76,6.02-4.32c4.65-0.5,6.06,0.84,6.43,2.35c0.29,1.19-0.08,1.99-0.87,2.88
					c-0.73,0.83-0.98,1.8-0.92,3.48c0.07,1.75,0.1,2.63,0.13,4.37c0.03,1.36,0.01,3.06,0.17,4.1c0.17,1.1,0.58,1.49,1.41,1.41
					c0.09-0.01,0.13-0.01,0.22-0.02c2.55-0.24,2.54-6.28,5.09-6.48c1.24-0.1,1.94,0.81,2.25,2.94c0.63,4.33-0.97,7.1-4.11,7.38
					C133.99,157.28,132.03,157.42,127.94,157.98z"/>
				<path class="st0" d="M147.54,155.86c-3.33,0.23-4.59-0.59-4.79-2.11c-0.13-0.97,0.28-1.74,1.15-2.79
					c0.82-0.98,1.23-2.24,1.17-4.33c-0.03-1.38-0.05-2.08-0.1-3.47c-0.03-0.93-0.01-1.89-0.2-2.8c-0.17-0.81-0.57-1.49-1.11-1.89
					c-0.66-0.49-1.1-1-1.32-1.95c-0.47-2.02,0.81-3.73,5.87-4.17c4.55-0.4,5.9,0.96,6.23,2.51c0.26,1.22-0.12,2.05-0.9,2.95
					c-0.73,0.84-0.98,1.83-0.95,3.53c0.03,1.77,0.04,2.65,0.04,4.4c0.01,1.37-0.04,3.07,0.09,4.11c0.15,1.1,0.55,1.5,1.36,1.44
					c0.09-0.01,0.13-0.01,0.22-0.02c2.51-0.18,2.57-6.26,5.09-6.47c1.23-0.11,1.9,0.81,2.19,2.97c0.59,4.37-1,7.17-4.12,7.4
					C153.5,155.45,151.51,155.58,147.54,155.86z"/>
				<path class="st0" d="M191.64,124.36c2.13-0.81,3.32,0.1,3.65,1.72c0.27,1.31-0.14,2.16-0.9,3.49c-0.66,1.15-0.99,2.14-0.87,4.23
					c0.12,1.93,0.17,2.89,0.28,4.79c0.06,1.01,0.11,1.82,0.23,2.43c0.21,1.09,0.48,1.72,1.14,2.28c0.75,0.63,1.13,1.11,1.31,2.01
					c0.38,1.92-1.08,4.11-6.37,5.54c-4.49,1.22-5.88,0.07-6.14-1.5c-0.17-1.01,0.23-1.88,1.09-3.14c0.81-1.19,1.14-2.6,1.04-4.85
					c-0.05-1.25-0.07-1.87-0.13-3.13c-1.66,3.66-2.52,5.43-4.28,8.9c-0.2,0.4-0.47,0.59-0.73,0.64c-0.23,0.05-0.59-0.17-0.76-0.39
					c-1.77-2.64-2.64-3.96-4.41-6.67c0.03,1.05,0.04,1.57,0.06,2.61c0.02,0.97,0.04,1.75,0.13,2.35c0.16,1.07,0.39,1.71,1.01,2.33
					c0.7,0.71,1.04,1.22,1.18,2.1c0.29,1.87-1.19,3.65-5.71,4.3c-4.06,0.58-5.33-0.66-5.54-2.2c-0.13-0.99,0.27-1.78,1.15-2.9
					c0.82-1.05,1.19-2.36,1.16-4.54c-0.02-1.44-0.03-2.16-0.06-3.61c-0.02-0.97-0.07-2.31-0.18-2.93c-0.13-0.81-0.56-1.21-1.05-1.63
					c-0.76-0.65-1.01-1.18-1.17-2.03c-0.33-1.8,0.91-3.74,3.56-4.26c1.52-0.3,2.28-0.45,3.81-0.79c1.93-0.43,3.06-0.03,4.09,1.63
					c1.43,2.31,2.11,3.51,3.51,5.7c1.07-2.53,1.6-3.9,2.63-6.62c0.94-2.55,1.82-3.92,3.88-4.63
					C189.61,125.12,190.29,124.88,191.64,124.36z"/>
				<path class="st0" d="M203.61,146.22c-3.57,1.49-4.96,0.89-5.28-0.72c-0.21-1.03,0.17-1.98,1.01-3.43
					c0.79-1.35,1.1-2.78,0.89-5.21c-0.13-1.53-0.2-2.3-0.33-3.84c-0.09-1.03-0.21-2.35-0.36-3.07c-0.18-0.89-0.59-1.53-1.14-1.81
					c-0.66-0.34-1.1-0.79-1.31-1.83c-0.46-2.21,0.9-4.15,3.85-5.62c4.38-2.18,6.58-3.43,10.97-6.41c2.77-1.88,4.29-0.59,4.93,1.74
					c0.63,2.27,0.49,7.04-0.89,8.01c-0.52,0.37-0.87,0.22-1.46-0.54c-1.53-1.97-3.65-2.6-5.35-1.56c-0.05,0.03-0.08,0.05-0.13,0.08
					c-1.09,0.66-1.59,1.91-1.54,3.05c0.01,0.15,0.01,0.23,0.01,0.38c0.03,0.44,0.09,1.01,0.17,1.34c0.29,1.18,0.8,1.45,1.32,1.15
					c0.03-0.02,0.04-0.02,0.06-0.04c1.23-0.72,1.28-3.06,2.6-3.91c0.94-0.61,1.51-0.03,1.85,1.28c0.61,2.33,0.3,6.67-1.2,7.57
					c-0.53,0.32-0.88,0.15-1.3-0.35c-0.38-0.45-0.97-0.89-1.69-0.48c-0.03,0.01-0.04,0.02-0.07,0.04c-0.66,0.37-1.06,1.18-1.06,2.1
					c0,0.12,0,0.18,0,0.3c-0.01,0.45,0.08,1.28,0.25,2c0.31,1.3,1.34,1.54,2.54,0.87c0.03-0.01,0.04-0.02,0.07-0.04
					c3.48-1.94,3.97-9.41,6.29-11.06c1.06-0.76,1.85-0.21,2.3,1.43c1.15,4.14-0.02,10.18-4.13,12.63
					C210.7,143.11,208.33,144.26,203.61,146.22z"/>
				<path class="st0" d="M105.24,186.95c-1.97-4.67-2.94-6.81-4.92-11.15c-0.4-0.89-1.21-1.68-1.93-2.09
					c-0.57-0.32-1.09-0.71-1.3-1.71c-0.52-2.45,1.69-4.72,6.24-6.2c3.89-1.27,5.93-0.79,6.3,1.3c0.21,1.21-0.15,1.84-0.7,2.6
					c-0.43,0.6-0.66,1.27-0.56,1.78c0.07,0.38,0.35,1.18,0.65,2.03c0.92,2.62,1.38,3.93,2.32,6.59c0.62-3.6,0.96-5.37,1.67-8.85
					c0.21-1.09,0.43-2.2,0.35-2.67c-0.08-0.44-0.26-0.73-0.72-1.07c-0.39-0.29-0.73-0.67-0.82-1.24c-0.28-1.64,1.47-3.26,5.22-4.02
					c3.45-0.7,5.05-0.14,5.29,1.41c0.12,0.78-0.17,1.32-0.58,1.83c-0.49,0.6-0.74,1.23-0.65,1.8c0.08,0.53,0.29,1.24,0.55,2.07
					c0.95,3.03,1.43,4.55,2.44,7.65c0.62-3.24,0.96-4.83,1.67-7.96c0.19-0.9,0.36-1.54,0.31-1.91c-0.07-0.5-0.52-0.88-0.88-1.14
					c-0.47-0.34-0.83-0.73-0.96-1.63c-0.32-2.18,2.11-3.75,5.29-4.12c3.68-0.43,5.14,0.5,5.39,2.35c0.15,1.17-0.14,1.94-1.09,2.86
					c-0.79,0.77-1.84,2.2-2.22,3.39c-1.62,5.02-2.4,7.59-3.74,13.03c-0.65,2.59-1.66,3.79-4.09,4.35c-2.21,0.51-3.66-0.07-5.19-3.57
					c-0.95-2.19-1.41-3.3-2.34-5.39c-0.75,2.91-1.11,4.47-1.79,7.59c-0.8,3.63-2.16,4.52-4.09,5.2
					C108.01,190.85,106.68,190.4,105.24,186.95z"/>
				<path class="st0" d="M160.63,160.58c0.16,1.15-0.28,1.93-1.12,2.79c-0.78,0.8-1.1,1.74-1.11,3.41c0,1.74,0.01,2.61,0.05,4.37
					c0.03,0.93,0.05,1.68,0.17,2.27c0.22,1.06,0.49,1.71,1.16,2.4c0.76,0.77,1.14,1.32,1.36,2.2c0.45,1.9-0.84,3.51-5.97,3.96
					c-4.36,0.38-5.83-0.87-6.19-2.48c-0.23-1.03,0.12-1.85,0.92-2.95c0.75-1.04,1.06-2.35,0.96-4.48c-0.01-0.28-0.01-0.41-0.01-0.69
					c-0.71,0.74-1.72,1.2-2.83,1.29c-0.88,0.07-1.83-0.26-2.65-0.85c0,0.14-0.01,0.21-0.01,0.35c0.02,0.95,0.04,1.7,0.15,2.3
					c0.2,1.08,0.46,1.74,1.11,2.43c0.74,0.78,1.11,1.33,1.3,2.24c0.42,1.93-0.89,3.56-5.97,4.14c-4.32,0.49-5.76-0.73-6.08-2.37
					c-0.21-1.05,0.15-1.9,0.97-3.06c0.76-1.09,1.09-2.44,1-4.61c-0.04-1.43-0.06-2.14-0.09-3.56c-0.01-0.95,0.01-1.93-0.11-2.82
					c-0.11-0.8-0.45-1.46-0.95-1.85c-0.6-0.47-0.99-0.96-1.11-1.89c-0.26-1.97,1.19-3.64,6.16-4.03c4.47-0.35,5.64,0.96,5.83,2.43
					c0.15,1.16-0.29,1.93-1.13,2.79c-0.78,0.8-1.1,1.75-1.12,3.43c0,0.25,0,0.37-0.01,0.62c2.17-0.17,3.26-0.26,5.44-0.41
					c-0.01-0.74-0.02-1.46-0.12-2.16c-0.11-0.8-0.45-1.45-0.95-1.84c-0.6-0.48-0.99-0.98-1.1-1.89c-0.25-1.95,1.19-3.54,6.16-3.89
					C159.25,157.84,160.44,159.12,160.63,160.58z"/>
				<path class="st0" d="M188.71,174.79c0.7,2.39-1.56,3.79-6.34,4.43c-4.91,0.66-6.5,0.09-6.99-1.78
					c-0.27-1.02-0.05-1.78,0.85-2.51c0.51-0.41,0.77-0.85,0.62-1.53c-0.11-0.49-0.33-0.88-0.77-1.17c-0.4,0.61-1.29,1.15-2.53,1.28
					c-1.11,0.12-1.97-0.15-2.7-0.74c-0.49,0.49-0.61,1.13-0.5,1.63c0.11,0.46,0.36,0.68,0.98,1.05c0.83,0.49,1.3,0.95,1.58,2.07
					c0.46,1.81-1.04,2.95-5.39,3.36c-3.25,0.3-5.23-0.71-5.65-2.41c-0.27-1.11,0.03-1.93,1.27-2.99c0.99-0.84,1.47-1.69,2.02-3.79
					c0.91-3.46,1.41-5.17,2.44-8.61c-0.09-0.02-0.14-0.02-0.23-0.04c-1.56-0.23-2.06-0.84-2.24-2.08c-0.31-2.19,0.95-3.31,3.62-3.58
					c3.15-0.32,4.72-0.48,7.94-0.96c2.27-0.34,3.25,0.57,3.95,2.57c1.55,4.55,2.36,6.82,4.19,11.39c0.44,1.05,1.3,1.96,2,2.33
					C187.83,173.24,188.46,173.93,188.71,174.79z M171.67,169.19c1.28-0.13,1.93-0.19,3.22-0.34c-0.82-2.52-1.2-3.77-1.93-6.29
					C172.42,165.22,172.15,166.54,171.67,169.19z"/>
				<path class="st0" d="M190.77,174.94c-0.29-0.98,0.04-1.81,0.86-3c0.76-1.11,0.94-2.44,0.83-4.64c-0.13-2.36-0.17-3.54-0.26-5.91
					c-0.06-1.55-0.14-2.35-0.24-2.92c-0.11-0.59-0.44-0.84-0.97-0.72c-2.01,0.47-2.07,7.49-4.38,7.91c-1.14,0.2-2.09-1.08-2.51-3.45
					c-0.73-4.04,0.76-8.09,3.03-8.58c1.35-0.3,2.52,0.36,5.01-0.28c2.95-0.76,4.43-1.19,7.42-2.17c1.78-0.59,3.83-2.31,4.98-2.76
					c1.79-0.7,2.86,0.09,3.42,2.57c0.98,4.37,0.18,8.96-1.71,9.62c-2.41,0.85-3.25-6.29-5.19-5.65c-0.65,0.21-0.91,1.04-0.82,2.73
					c0.16,2.91,0.24,4.35,0.43,7.24c0.08,0.99,0.12,1.79,0.29,2.37c0.31,1.04,0.65,1.65,1.42,2.19c0.87,0.62,1.33,1.09,1.6,1.95
					c0.59,1.84-0.78,3.88-6.35,5.13C192.87,177.62,191.23,176.48,190.77,174.94z"/>
				<path class="st0" d="M113.61,217.58c-0.36-1.18-0.11-2.24,0.56-3.76c0.63-1.42,0.7-3.06,0.34-5.63
					c-0.39-2.77-0.56-4.14-0.86-6.87c-0.2-1.78-0.35-2.69-0.49-3.33c-0.16-0.67-0.49-0.94-0.98-0.77c-1.87,0.65-1.24,8.82-3.39,9.66
					c-1.06,0.42-2.1-0.93-2.75-3.65c-1.12-4.63-0.04-9.57,2.11-10.38c1.28-0.48,2.45,0.13,4.79-0.64c2.77-0.91,4.15-1.32,6.92-2.06
					c1.65-0.44,3.51-1.91,4.56-2.15c1.65-0.38,2.64,0.68,3.26,3.34c1.09,4.71,0.82,9.47-0.89,9.89c-2.18,0.54-3.56-7.34-5.34-6.86
					c-0.59,0.16-0.8,1.03-0.57,2.9c0.37,3.21,0.59,4.84,1.12,8.15c0.19,1.13,0.35,2.04,0.56,2.74c0.38,1.25,0.75,2,1.54,2.72
					c0.89,0.81,1.37,1.42,1.73,2.48c0.77,2.27-0.32,4.38-5.56,5.89C115.83,220.54,114.17,219.42,113.61,217.58z"/>
				<path class="st0" d="M130.62,204.39c-3.05-9.71,1.4-17.5,9.21-18.48c5.99-0.75,10.29,2.5,12.49,9.07
					c3.06,9.13,0.61,17.45-7.66,18.87C138.35,214.94,132.81,211.35,130.62,204.39z M144.09,196.81c-1.34-4.23-2.83-5.98-4.34-5.78
					c-2.09,0.28-2.81,5.45-0.93,11.08c1.46,4.38,3.31,6.18,4.91,5.92C145.93,207.67,145.81,202.25,144.09,196.81z"/>
				<path class="st0" d="M176.65,207.65c-0.79,1.05-2.18,1.73-4.05,2.01c-2.79,0.41-5.26-0.69-6.25-2.73
					c-0.51-1.06-0.5-1.57,0.12-3.38c0.28-0.79,0.65-1.99-0.25-5.07c-0.46-1.57-0.67-2.35-1.06-3.88c-0.37-1.51-0.57-2.39-0.81-3.06
					c-0.33-0.93-0.94-1.87-1.51-2.25c-0.76-0.51-1.28-1.03-1.58-2.02c-0.62-2.03,0.48-3.55,3.66-3.85c1.53-0.14,3.67-0.02,4.98,0.31
					c0.86-0.48,2.38-1.03,4.09-1.21c6.09-0.67,10.36,2.27,13.13,8.86c3.47,8.26,2.35,15.64-4.73,16.78
					C180,208.55,178.44,208.39,176.65,207.65z M178.38,192.67c-1.69-4.13-3.19-6.14-4.8-5.96c-1.38,0.15-1.73,1.34-1.07,4.31
					c0.66,2.92,1.05,4.41,1.98,7.44c0.48,1.63,0.8,2.44,1.12,3.1c0.76,1.59,1.78,2.43,2.79,2.28
					C181.25,203.43,180.82,198.64,178.38,192.67z"/>
				<path class="st0" d="M190.66,195.73c-4.05-8.6,0.47-15.31,9.04-17.31c6.57-1.53,11.56,0.49,13.85,6.39
					c3.18,8.2,0.38,16.52-7.71,18.6C199.67,205,193.56,201.89,190.66,195.73z M204.8,188.08c-1.55-3.75-3.27-5.19-4.91-4.82
					c-2.27,0.51-2.74,5.32-0.5,10.23c1.75,3.82,3.71,5.25,5.33,4.85C206.94,197.79,206.78,192.89,204.8,188.08z"/>
			</g>
		</g>
	</g>
	<path class="st0" d="M278.68,229.59c0.06-0.14,0.12-0.27,0.15-0.42c0.02-0.1,0.01-0.2,0.01-0.31c0-0.14,0-0.28-0.03-0.43
		c-0.01-0.03,0-0.07-0.01-0.1L224.07,40.29c-0.27-0.93-1.22-1.5-2.15-1.31L163.74,50.4l-0.54-0.3l1.24-4.17
		c0.24-0.82-0.1-1.7-0.84-2.14l-3.17-1.88l0.91-4.06c0.14-0.63-0.05-1.3-0.52-1.75c-0.46-0.45-1.13-0.63-1.76-0.47L70.21,58.3
		c-0.56,0.14-1.03,0.54-1.26,1.08c-0.23,0.54-0.19,1.15,0.09,1.65l3.43,6.05l-0.54,0.94L19.06,78.48c-0.04,0.01-0.08,0.04-0.12,0.05
		c-0.14,0.04-0.27,0.1-0.4,0.17c-0.09,0.05-0.18,0.09-0.26,0.16c-0.11,0.09-0.2,0.19-0.28,0.29c-0.05,0.06-0.12,0.1-0.16,0.16
		c-0.02,0.03-0.02,0.07-0.04,0.1c-0.06,0.11-0.1,0.23-0.14,0.36c-0.04,0.12-0.08,0.23-0.09,0.35c0,0.04-0.03,0.07-0.03,0.11
		c-0.03,0.64-0.67,16.1,4.91,47.93c5.13,29.27,16.74,78.47,42.94,146.62c0.28,0.73,0.98,1.2,1.74,1.2c0.09,0,0.17-0.01,0.26-0.02
		c10.71-1.49,188.32-31.4,210.59-45.53c0.02-0.01,0.02-0.03,0.04-0.04c0.09-0.06,0.15-0.15,0.23-0.22c0.11-0.1,0.22-0.2,0.29-0.32
		c0.01-0.02,0.03-0.02,0.04-0.04C278.64,229.74,278.65,229.66,278.68,229.59z M157.03,40l-0.54,2.41c-0.18,0.79,0.17,1.6,0.87,2.01
		l3.08,1.83l-1.25,4.21c-0.25,0.84,0.12,1.74,0.88,2.17l3.24,1.8l-3.09,4.47c-0.53,0.77-0.41,1.82,0.29,2.45l1.94,1.74L79.87,84.17
		l0.51-2.59c0.16-0.83-0.25-1.67-1.01-2.04l-2.33-1.14l1.43-2.39c0.42-0.71,0.33-1.62-0.23-2.23l-3.27-3.52L76.24,68
		c0.33-0.57,0.33-1.27,0-1.85l-2.74-4.84L157.03,40z M71.41,71.93l3.12,3.37l-1.75,2.93c-0.27,0.45-0.33,0.99-0.19,1.49
		c0.15,0.5,0.5,0.92,0.97,1.15l2.86,1.4l-0.81,4.08c-0.12,0.63,0.08,1.28,0.55,1.72c0.35,0.33,0.81,0.51,1.28,0.51
		c0.15,0,0.31-0.02,0.46-0.06l88.85-22.67c0.67-0.17,1.19-0.7,1.35-1.37c0.16-0.67-0.05-1.38-0.57-1.84l-3.32-2.98l3.32-4.81
		c0.29-0.43,0.39-0.95,0.28-1.46l53.12-10.43l53.68,184.45c-14.87,3.05-108.85,21.9-128.72,15.28
		c-22.78-7.59-52.98-29.22-57.01-35.82c-0.26-0.43-0.68-0.73-1.17-0.85c-0.49-0.11-1-0.02-1.42,0.24c-0.77,0.49-1.73,1.18-2.84,1.97
		c-5.05,3.63-13.5,9.7-19.77,7.32c-7.54-2.87-14.05-18.76-15.71-26.23c-1.53-6.87-22.74-93.17-26.29-107.59L71.41,71.93z
		 M117.84,233.45L73,218.65c4.83-1.74,9.38-5,12.66-7.35c0.43-0.31,0.84-0.61,1.22-0.88C91.42,215.87,103.96,225.3,117.84,233.45z
		 M26.19,127.73c-2-11.37-3.19-20.65-3.9-27.92c7.35,29.91,20.87,85.03,22.05,90.35c1.75,7.86,8.45,25.26,18.03,28.91
		c0.38,0.15,0.77,0.25,1.16,0.35c0.05,0.02,0.09,0.07,0.15,0.09l81.06,26.74c0,0,0,0,0,0c3.24,1.08,8.2,1.54,14.35,1.54
		c23.97,0,65.87-7.05,92.86-12.11c-51.83,14.03-164.47,33.48-183.59,36.35C42.7,205.02,31.27,156.61,26.19,127.73z"/>
	<g>
		<path class="st0" d="M252.3,189.48c-2.41-3.85-6.18-6.53-10.61-7.55c-4.43-1.02-8.99-0.25-12.84,2.16
			c-3.85,2.41-6.53,6.18-7.55,10.61c-1.02,4.43-0.25,8.99,2.16,12.84c2.41,3.85,6.18,6.53,10.61,7.55c1.72,0.4,3.47,0.52,5.21,0.38
			c2.68-0.22,5.32-1.1,7.63-2.54c3.85-2.41,6.53-6.18,7.55-10.61C255.47,197.9,254.71,193.34,252.3,189.48z M251.76,201.71
			c-0.85,3.71-3.1,6.86-6.32,8.88c-3.23,2.02-7.05,2.66-10.75,1.81c-3.71-0.85-6.86-3.1-8.88-6.32c-2.02-3.23-2.66-7.05-1.81-10.75
			c0.85-3.71,3.1-6.86,6.32-8.88c1.96-1.23,4.11-1.95,6.39-2.13c1.45-0.12,2.92-0.01,4.36,0.32c3.71,0.85,6.86,3.1,8.89,6.32
			C251.98,194.18,252.62,198,251.76,201.71z"/>
		<path class="st0" d="M234.44,194.9c0.16,0.03,0.33,0.04,0.49,0.03c0.31-0.03,0.62-0.14,0.9-0.32c0.56-0.38,0.96-1.04,1.09-1.81
			c0.24-1.4-0.45-2.69-1.58-2.93l0,0c-0.47-0.1-0.96,0.01-1.39,0.29c-0.56,0.38-0.96,1.04-1.09,1.81
			C232.63,193.37,233.32,194.66,234.44,194.9z"/>
		<path class="st0" d="M247.61,196.46c-0.38-0.29-0.91-0.36-1.36-0.17c-0.42,0.18-0.7,0.55-0.76,1.02
			c-0.13,1.02-0.33,2.08-0.62,3.25c-0.8,3.25-3.45,5.54-6.47,5.61c-4.2,0.07-6.92-2.76-7.35-5.47c-0.03-0.2-0.06-0.42-0.07-0.63
			c-0.09-1.26,0.11-2.59,0.3-3.88c0.06-0.43,0.13-0.85,0.18-1.28c0.03-0.27,0.1-0.82-0.26-1.25c-0.22-0.26-0.55-0.4-0.9-0.39
			c-0.41,0.01-0.81,0.21-1.06,0.52c-0.3,0.38-0.37,0.83-0.42,1.16c-0.37,2.27-0.78,4.85-0.05,7.3c1.03,3.43,4.19,5.95,8.04,6.43
			c0.37,0.04,0.75,0.07,1.13,0.08c0.33,0,0.66-0.01,0.98-0.03c1.86-0.15,3.56-0.81,4.88-1.89c1.61-1.33,2.89-3.21,3.42-5.02
			c0.4-1.36,0.69-2.76,0.87-4.16C248.15,197.17,247.97,196.74,247.61,196.46L247.61,196.46z"/>
		<path class="st0" d="M242.42,196.41c0.16,0.03,0.33,0.04,0.49,0.03c0.31-0.03,0.62-0.13,0.9-0.32c0.56-0.38,0.96-1.04,1.09-1.81
			c0.24-1.4-0.45-2.69-1.58-2.93l0,0c-0.47-0.1-0.96,0-1.39,0.29c-0.56,0.38-0.96,1.04-1.09,1.81
			C240.6,194.88,241.3,196.17,242.42,196.41z"/>
	</g>
	<g>
		<path class="st0" d="M207.47,88.09c-2.3,0-8.12-1.73-11.6-4.04c-2.97-1.97-3.97-5.66-2.37-8.76c0.75-1.45,2.07-2.51,3.74-3.01
			c1.36-0.4,2.8-0.38,4.09,0.06c1.16-2.87,4.05-4.53,7.23-4.05c1.52,0.23,2.9,1.1,3.88,2.44c1.1,1.5,1.57,3.37,1.3,5.13
			c-0.54,3.5-3.99,11.46-5.53,12.11C208.04,88.06,207.79,88.09,207.47,88.09z M206.87,85.79L206.87,85.79L206.87,85.79z
			 M199.19,74.62c-0.4,0-0.81,0.06-1.21,0.17c-0.98,0.29-1.74,0.89-2.16,1.7c-0.98,1.89-0.35,4.16,1.49,5.38
			c3.29,2.19,8.22,3.44,9.77,3.62c0.93-1.41,3.53-6.6,4.06-10.02c0.17-1.07-0.14-2.26-0.82-3.19c-0.57-0.78-1.34-1.28-2.17-1.41l0,0
			c-2.21-0.33-4.1,0.94-4.62,3.1l-0.12,0.52c-0.09,0.4-0.37,0.73-0.75,0.9c-0.38,0.17-0.81,0.14-1.17-0.06l-0.42-0.24
			C200.53,74.78,199.87,74.62,199.19,74.62z"/>
	</g>
	<g>
		<path class="st0" d="M229.64,169.29c-0.03,0-0.06,0-0.08,0c-0.55-0.04-1.01-0.41-1.17-0.93c-0.4-1.33-0.69-2.4-0.93-3.28
			c-0.91-3.35-0.91-3.35-4.11-4.68c-0.84-0.35-1.87-0.78-3.14-1.34c-0.5-0.22-0.81-0.73-0.77-1.28c0.04-0.55,0.41-1.01,0.93-1.17
			c1.33-0.4,2.4-0.69,3.28-0.93c3.35-0.91,3.35-0.91,4.68-4.11c0.35-0.84,0.78-1.87,1.34-3.14c0.22-0.5,0.7-0.81,1.28-0.77
			c0.55,0.04,1.01,0.41,1.17,0.93c0.4,1.33,0.69,2.4,0.93,3.28c0.91,3.35,0.91,3.35,4.11,4.68c0.84,0.35,1.87,0.78,3.14,1.34
			c0.5,0.22,0.81,0.73,0.77,1.28c-0.04,0.55-0.41,1.01-0.93,1.17c-1.33,0.4-2.4,0.69-3.28,0.93c-3.35,0.91-3.35,0.91-4.68,4.11
			c-0.35,0.84-0.78,1.87-1.34,3.14C230.62,168.99,230.15,169.29,229.64,169.29z M224.67,158.11c3.78,1.58,4.14,2,5.22,5.95
			c1.58-3.78,2-4.14,5.95-5.22c-3.78-1.58-4.14-2-5.22-5.95C229.03,156.66,228.62,157.03,224.67,158.11z"/>
	</g>
	<g>
		<path class="st0" d="M64.38,123.81c-0.34,0-0.67-0.13-0.92-0.38c-0.99-0.97-1.76-1.78-2.39-2.43c-2.41-2.5-2.41-2.5-5.86-2.12
			c-0.91,0.1-2.02,0.22-3.4,0.33c-0.54,0.04-1.06-0.25-1.29-0.75c-0.23-0.5-0.13-1.08,0.25-1.47c0.97-0.99,1.77-1.76,2.43-2.39
			c2.5-2.41,2.5-2.41,2.12-5.86c-0.1-0.91-0.22-2.01-0.33-3.4c-0.04-0.55,0.25-1.06,0.75-1.29c0.5-0.23,1.08-0.13,1.47,0.25
			c0.99,0.97,1.76,1.77,2.39,2.43c2.41,2.5,2.4,2.5,5.86,2.12c0.91-0.1,2.02-0.22,3.4-0.33c0.56-0.04,1.06,0.25,1.29,0.75
			c0.23,0.5,0.13,1.08-0.25,1.47c-0.97,0.99-1.77,1.76-2.43,2.39c-2.5,2.41-2.5,2.41-2.12,5.86c0.1,0.91,0.22,2.02,0.33,3.4
			c0.04,0.55-0.25,1.06-0.75,1.29C64.76,123.77,64.57,123.81,64.38,123.81z M57.71,116.07c2.03,0,2.85,0.65,5,2.87
			c-0.43-4.07-0.24-4.59,2.7-7.44c-4.07,0.43-4.59,0.24-7.44-2.7c0.43,4.07,0.24,4.59-2.7,7.44
			C56.27,116.14,57.05,116.07,57.71,116.07z"/>
	</g>
	<g>
		<path class="st0" d="M78.1,202.64c-0.05,0-0.09,0-0.13-0.01c-1.46-0.22-6.45-5.5-8.44-9.82c-1.49-3.24-0.41-6.9,2.57-8.7
			c1.39-0.84,3.09-1.05,4.76-0.6c1.38,0.37,2.58,1.15,3.45,2.2c2.49-1.83,5.82-1.74,8.28,0.34c1.17,0.99,1.89,2.46,2.02,4.12
			c0.15,1.85-0.43,3.69-1.59,5.05C86.79,197.84,79.96,202.64,78.1,202.64z M77.99,200.05L77.99,200.05L77.99,200.05z M75.15,185.89
			c-0.61,0-1.19,0.15-1.69,0.46c-1.82,1.1-2.48,3.36-1.55,5.37c1.66,3.59,5.19,7.23,6.42,8.2c1.54-0.71,6.47-3.77,8.71-6.4
			c0.7-0.82,1.06-2,0.97-3.14c-0.08-0.97-0.47-1.79-1.11-2.33c0,0,0,0,0,0c-1.7-1.44-3.98-1.35-5.55,0.22l-0.38,0.38
			c-0.29,0.29-0.71,0.43-1.11,0.37c-0.41-0.06-0.76-0.31-0.96-0.67l-0.23-0.42c-0.49-0.9-1.42-1.6-2.48-1.89
			C75.84,185.93,75.49,185.89,75.15,185.89z"/>
	</g>
</g>
</svg>
