<?xml version="1.0" encoding="utf-8"?>
<!-- Generator: Adobe Illustrator 28.0.0, SVG Export Plug-In . SVG Version: 6.00 Build 0)  -->
<svg version="1.1" id="Layer_1" xmlns="http://www.w3.org/2000/svg" xmlns:xlink="http://www.w3.org/1999/xlink" x="0px" y="0px"
	 viewBox="0 0 300 300" style="enable-background:new 0 0 300 300;" xml:space="preserve">
<style type="text/css">
	.st0{fill:#E8522F;}
	.st1{fill:#F09E89;}
	.st2{fill:#FF8F46;}
	.st3{fill:#FB850D;}
	.st4{fill:#FBB834;}
	.st5{fill:#FC9A0B;}
	.st6{fill:#D7AF12;}
	.st7{fill:#81B37E;}
	.st8{fill:#F5CEC7;}
	.st9{fill:#B0AD50;}
	.st10{fill:#7AB3AD;}
	.st11{fill:#B1D0D5;}
	.st12{fill:#4A70A1;}
	.st13{fill:#9BA0E2;}
	.st14{fill:#CC7683;}
	.st15{fill:#F5CCA7;}
</style>
<g>
	<path class="st0" d="M64.23,95.92c0.32,4.22-3.66,6.95-7.45,7.24c-9.62,0.72-10.27-8.78-10.8-15.86c-0.15-2.05-0.24-4.1-0.27-6.1
		c-2.13-0.09-4.13-0.19-4.33-2.8c-0.15-2.05,0.54-3.6,2.76-3.95c2.04-0.28,2.25,0.08,2.08-2.28c-0.26-3.54-0.94-7.54,3.96-7.91
		c5.15-0.39,5.17,4.04,5.48,8.14l0.04,0.56c0.13,1.8,5.06-0.75,5.38,3.53c0.2,2.73-2.17,3.53-4.39,3.82
		c-1.3,0.16-1.17,0.21-1.13,1.52c0.12,1.61,0.17,3.17,0.3,4.78c0.09,1.24,0.37,6.65,2.05,6.52c0.81-0.06,1.57-0.74,2.5-0.81
		C62.58,92.18,64.08,93.81,64.23,95.92z"/>
	<path class="st1" d="M85.84,65.62c3.49,2.99,3.73,14.81,3.73,19.36c0,4.48-1.68,8.71-6.91,8.71c-2.3,0-3.67-1.12-3.8-3.49
		c-0.12-2.37-0.19-4.79-0.19-7.22c0-1.49,0.25-6.85-1.99-6.85c-2.24,0-2.24,4.61-2.24,6.1c0,4.11,1.43,11.39-4.85,11.39
		c-2.18,0-3.8-1-4.67-2.99c-1.37-3.17-1.43-18.67-1.43-22.78c0-3.24,0-6.47,0.19-9.71c0.12-2.8,2.36-3.8,4.85-3.8
		c0.75,0,1.49,0.12,2.18,0.31c3.86,1.12,3.61,10.08,3.67,13.19c1.93-1.99,4.48-3.61,7.34-3.61C83.23,64.25,84.72,64.63,85.84,65.62z
		"/>
	<path class="st2" d="M103.32,69.56c1,2.43,1.06,7.97,1.06,10.7c0,3.05-0.25,6.1-0.44,9.15c-0.25,3.36-1.06,10.83-5.79,10.83
		c-4.92,0-5.04-8.4-5.04-11.76c0-4.04,0.25-15.06,1.56-18.55c0.75-1.87,2.55-2.8,4.48-2.8C100.83,67.13,102.63,67.88,103.32,69.56z
		 M94.42,59.41c0-2.61,1.62-5.17,4.48-5.17s4.92,2.49,4.92,5.23c0,2.68-2.05,5.17-4.85,5.17C96.1,64.64,94.42,62.09,94.42,59.41z"/>
	<path class="st3" d="M120.03,82.55c2.37,4.74,8.52,5.7,7.44,12.27c-0.91,5.53-6.88,8.07-11.98,7.23c-4.24-0.7-9.94-4.35-9.12-9.33
		c0.32-1.96,2.11-4.38,4.38-4.01c1.72,0.28,2.79,2.61,4.63,2.91c0.37,0.06,1.08-0.07,1.15-0.44c0.26-1.6-8.04-5.55-6.91-12.37
		c0.96-5.83,6.79-10.17,12.62-9.21c4.3,0.71,9.01,4.64,8.23,9.37c-0.41,2.46-2.45,4.52-5.09,4.08c-2.27-0.38-2.62-2.45-3.97-2.68
		c-0.8-0.13-1.41,0.52-1.52,1.2C119.81,81.95,119.89,82.28,120.03,82.55z"/>
	<path class="st4" d="M148.89,71.61c1.17,2.35,1.62,7.87,1.82,10.6c0.22,3.04,0.19,6.1,0.22,9.16c-0.01,3.37-0.28,10.88-5,11.21
		c-4.9,0.35-5.63-8.02-5.87-11.37c-0.29-4.03-0.83-15.04,0.23-18.61c0.61-1.92,2.35-2.98,4.27-3.11
		C146.24,69.37,148.09,69.98,148.89,71.61z M139.29,62.13c-0.19-2.61,1.25-5.27,4.1-5.47c2.86-0.2,5.08,2.13,5.28,4.86
		c0.19,2.67-1.68,5.3-4.47,5.5C141.34,67.22,139.48,64.8,139.29,62.13z"/>
	<path class="st5" d="M165.29,77.19c2.92,4.42,9.15,4.63,8.86,11.28c-0.24,5.6-5.86,8.84-11.02,8.62
		c-4.29-0.18-10.39-3.12-10.18-8.16c0.09-1.99,1.57-4.6,3.87-4.51c1.74,0.07,3.08,2.25,4.95,2.33c0.37,0.02,1.07-0.2,1.08-0.58
		c0.07-1.62-8.65-4.54-8.35-11.45c0.25-5.91,5.51-10.91,11.42-10.66c4.35,0.19,9.5,3.52,9.3,8.31c-0.11,2.49-1.89,4.78-4.56,4.66
		c-2.3-0.1-2.9-2.12-4.27-2.18c-0.81-0.03-1.34,0.69-1.37,1.37C165.01,76.62,165.12,76.93,165.29,77.19z"/>
	<path class="st6" d="M222.83,68.74c1.88,2.21,3.6,12.21,4.1,15.28c0.5,3.01,0.99,6.02,1.25,9.07c0.3,3.73-1.95,5.37-5.45,5.95
		c-3.81,0.63-5.78-1-6.4-4.75c-0.6-3.62-0.63-7.28-1.23-10.9c-0.16-0.98-0.84-1.63-1.88-1.46c-0.8,0.13-1.45,0.74-1.51,1.57
		c-0.07,4.17,0.83,8.44,1.07,12.57c0.14,2.75-1.28,4.44-3.99,4.89c-4.61,0.76-6.3-1.86-6.97-5.91c-0.29-1.78-1.04-11.25-3.25-10.88
		c-1.9,0.31-0.95,5.33-0.76,6.5c0.5,3.01,1.84,8.09,0.41,10.91c-0.71,1.44-3.03,1.89-4.5,2.13c-3.5,0.58-5.38,0.26-6.66-3.63
		c-0.89-2.69-1.55-5.55-2.01-8.37c-0.74-4.48-1.67-13.54,0.71-17.46c0.74-1.26,2.08-2.68,3.55-2.92c3.87-0.64,4.11,1.59,5.53,4.45
		c0.59-2.94,3.38-6.24,6.46-6.74c3.13-0.52,6.41,1.02,7.96,3.86c1.42-3.26,2.97-5.66,6.78-6.29
		C218.55,66.17,221.12,66.82,222.83,68.74z"/>
	<path class="st7" d="M253.26,69.8c2.51,0.89,4.31,1.99,4.15,4.97c-0.08,1.43-0.6,2.83-1.17,4.17c-4.21,9.42-9.88,18.14-16.8,25.79
		c-1.07,1.25-2.44,2.36-4.14,2.63c-0.69,0.15-1.38,0.23-2.07,0.19c-3.11-0.18-5.44-3.05-5.26-6.1c0.26-4.66,7.15-10.69,7.21-11.81
		c0.08-1.37-8.26-10.5-7.95-15.85c0.17-2.98,3.24-5.55,6.23-5.38c5.78,0.33,6.69,11.72,8.43,11.82c0.99,0.06,4.19-10.23,7.54-11.04
		c0.38-0.1,0.82-0.14,1.19-0.12C251.55,69.14,252.41,69.44,253.26,69.8z"/>
	<g>
		<g>
			<path class="st8" d="M156.82,217.49c-0.64-0.3-1.24-0.14-1.79,0.29c-0.52,0.4-0.66,1-0.81,1.59c-0.79,3.07-1.55,6.16-2.51,9.18
				c-0.57,1.79-1.17,3.58-2.23,5.15c-0.33,0.49-0.63,1.22-1.28,1.17c-0.7-0.06-0.93-0.83-1.19-1.42c-0.64-1.49-0.87-3.09-0.91-4.68
				c-0.09-3.06,0.31-6.08,0.98-9.06c0.61-2.72,1.52-5.34,2.43-7.97c0.58-1.68-0.14-2.83-1.83-3.03c-1.56-0.18-3.11-0.38-4.68-0.52
				c-1.56-0.14-3.11-0.43-4.68-0.43c-1.19,0-1.87,0.62-2.11,1.85c-0.43,2.19-0.82,4.39-1.37,6.56c-0.82,3.27-1.62,6.55-3.11,9.6
				c-0.82,1.68-1.79,3.25-3.36,4.31c-0.87,0.59-1.81,1.05-2.87,0.66c-2.08-0.75-3.25-2.44-4.13-4.41c-0.14-0.32,0.1-0.34,0.32-0.41
				c3.64-1.12,6.11-3.6,7.43-7.2c1.02-2.79,1.01-5.61-0.96-8.09c-1.57-1.98-3.91-2.43-6.05-1.18c-2.18,1.28-3.45,3.33-4.33,5.67
				c-0.57,1.53-0.87,3.08-0.98,4.66c-0.01,0.02-0.03,0.04-0.04,0.06c-0.15,0.35-0.23,0.72-0.32,1.08c-0.72,2.99-1.58,5.93-2.85,8.74
				c-0.67,1.48-1.41,2.93-2.63,4.06c-0.69,0.64-0.99,0.61-1.56-0.15c-0.69-0.92-1.09-1.98-1.42-3.07
				c-1.08-3.56-1.44-7.23-1.57-10.91c-0.16-4.29-0.02-8.57,0.48-12.84c0.05-0.47,0.23-0.59,0.67-0.59c1.76,0.02,3.51,0.01,5.27,0.01
				c1.76,0,3.51,0.02,5.27-0.01c1.19-0.02,1.98-0.93,1.88-2.12c-0.08-1.03-0.86-1.7-2.02-1.7c-3.22-0.01-6.45,0-9.67,0
				c-0.82,0-0.82,0-0.71-0.78c0.09-0.68,0.24-1.36,0.27-2.04c0.04-1.17-0.67-1.98-1.73-2.07c-0.98-0.08-1.87,0.63-2.08,1.69
				c-0.14,0.72-0.25,1.44-0.37,2.17c-0.16,0.96-0.16,0.96-1.11,0.95c-1.73-0.01-3.47-0.04-5.2-0.01c-1.55,0.03-2.53,1.47-1.9,2.76
				c0.37,0.76,1.02,1.15,1.88,1.16c1.67,0,3.34,0.02,5,0c0.49-0.01,0.7,0.06,0.65,0.65c-0.2,2.37-0.45,4.73-0.42,7.11
				c0.02,1.83-0.03,3.67,0.01,5.5c-0.14,0.28-0.27,0.57-0.38,0.86c-0.98,2.55-2.04,5.07-3.32,7.49c-0.43,0.81-0.89,1.59-1.49,2.29
				c-0.11,0.13-0.18,0.35-0.4,0.29c-0.16-0.05-0.18-0.24-0.21-0.39c-0.09-0.48-0.19-0.96-0.26-1.44c-0.43-2.92-0.22-5.85-0.1-8.78
				c0.04-0.88,0.1-1.77,0.16-2.66c0.13-1.64,0.28-3.28,0.2-4.92c-0.05-1.06-0.97-1.94-2-1.79c-0.67,0.09-1.21-0.04-1.77-0.33
				c-0.33-0.17-0.7-0.31-1.06-0.38c-4.03-0.85-7.32,0.48-9.94,3.53c-1.15,1.33-1.91,2.8-2.36,4.37c-1.47,0.28-2.97,0.23-4.47,0.05
				c-0.58-0.07-0.73-0.34-0.71-0.88c0.06-1.34-0.12-2.67-0.42-3.97c-0.56-2.5-1.54-4.8-3.69-6.38c-2.03-1.5-4.43-1-5.74,1.15
				c-0.68,1.12-0.95,2.37-0.87,3.64c0.21,3.49,1.72,6.25,4.78,8.07c0.52,0.31,1.05,0.58,1.58,0.86c0.27,0.14,0.4,0.29,0.35,0.63
				c-0.19,1.34-0.33,2.69-0.62,4.01c-0.38,1.74-0.85,3.46-1.7,5.04c-0.66,1.24-1.04,1.25-1.88,0.15c-0.08-0.11-0.16-0.21-0.24-0.32
				c-0.91-1.38-1.36-2.94-1.71-4.53c-0.79-3.56-0.86-7.18-0.8-10.8c0.02-1.26-0.81-2.26-1.94-2.41c-1.05-0.14-1.87,0.51-2.23,1.76
				c-0.42,1.45-0.81,2.91-1.27,4.35c-0.94,2.97-1.89,5.93-3.27,8.73c-0.37,0.76-0.77,1.5-1.31,2.16c-0.24,0.3-0.43,0.29-0.57-0.07
				c-0.17-0.43-0.35-0.87-0.48-1.31c-0.49-1.65-0.71-3.35-0.78-5.06c-0.07-1.48-0.19-2.96-0.11-4.46c0.13-2.35,0.29-4.7,0.34-7.05
				c0.02-1.15-0.77-1.96-1.82-1.98c-1.03-0.02-1.92,0.79-1.98,1.86c-0.14,2.3-0.31,4.61-0.39,6.91c-0.11,2.91,0.05,5.82,0.53,8.7
				c0.31,1.85,0.75,3.67,1.87,5.23c0.75,1.05,1.71,1.71,3.09,1.65c1.51-0.07,2.5-0.96,3.37-2.03c1.05-1.29,1.75-2.78,2.42-4.29
				c0.4-0.9,0.75-1.83,1.19-2.9c0.28,1.65,0.59,3.12,1.1,4.54c0.64,1.8,1.49,3.47,2.93,4.79c1.88,1.73,4.35,1.68,6.15-0.11
				c0.84-0.83,1.37-1.86,1.82-2.93c1.13-2.66,1.71-5.46,2.02-8.33c0.05-0.48,0.18-0.64,0.7-0.56c1.43,0.22,2.87,0.22,4.3,0.07
				c0,0.14,0,0.28,0.01,0.43c0.13,2.18,0.79,4.15,2.19,5.82c2.02,2.4,4.78,2.67,7.28,0.77c1.12-0.85,1.96-1.93,2.68-3.12
				c0.33-0.54,0.63-1.1,0.95-1.65c0.1,1.35,0.12,2.68,0.24,4c0.14,1.55,0.31,3.1,0.95,4.54c0.41,0.92,0.99,1.69,1.95,2.09
				c1.51,0.63,2.79,0.12,3.94-0.85c1.13-0.96,1.95-2.18,2.65-3.48c0.45-0.84,0.88-1.69,1.29-2.55c0.09,0.55,0.19,1.1,0.31,1.64
				c0.49,2.31,1.14,4.58,2.53,6.55c2.03,2.89,5.1,3.16,7.63,0.7c1.22-1.18,2.08-2.6,2.83-4.1c0.63-1.24,1.16-2.52,1.63-3.82
				c0.72,1.53,1.72,2.9,3.06,4.1c1.99,1.78,4.28,2.58,6.91,1.76c1.96-0.61,3.48-1.9,4.75-3.5c1.48-1.87,2.5-4.02,3.3-6.28
				c1.39-3.95,2.38-8.01,3.15-12.13c0.11-0.57,0.32-0.79,0.88-0.72c1.49,0.19,2.99,0.36,4.48,0.5c0.45,0.04,0.53,0.19,0.39,0.61
				c-0.32,0.93-0.6,1.88-0.89,2.82c-1.29,4.15-1.87,8.41-1.89,12.76c-0.03,0.89,0.08,1.76,0.21,2.63c0.28,1.97,0.72,3.88,1.87,5.54
				c1.9,2.76,4.83,2.98,7.09,0.52c1.34-1.46,2.16-3.24,2.87-5.09c1.47-3.87,2.37-7.92,3.43-11.92c0.09-0.35,0.1-0.7,0.07-1.04
				C157.86,218.32,157.47,217.79,156.82,217.49z M70.43,215.69c-0.22,0.13-0.4-0.12-0.56-0.25c-1.44-1.12-2.13-2.63-2.21-4.43
				c0.01-0.38,0.01-0.76,0.14-1.12c0.13-0.35,0.3-0.41,0.58-0.15c0.41,0.38,0.74,0.83,1,1.32c0.66,1.26,0.98,2.61,1.14,4.01
				C70.54,215.28,70.64,215.57,70.43,215.69z M92.04,214.45c-1.11,3.08-2.31,6.11-3.98,8.94c-0.42,0.71-0.92,1.37-1.54,1.91
				c-0.96,0.83-1.55,0.78-2.31-0.25c-0.88-1.19-1.16-2.57-1.16-4.02c0.01-3.62,2.25-6.74,5.45-7.6c1.12-0.3,2.19-0.27,3.23,0.29
				C92.03,213.89,92.17,214.07,92.04,214.45z M120.41,221.02c0.07-2.06,0.46-4.24,1.63-6.21c0.47-0.8,1.07-1.47,1.83-1.99
				c0.55-0.37,0.99-0.25,1.4,0.21c0.7,0.79,0.89,1.75,0.76,2.76c-0.38,2.93-2.04,4.89-4.53,6.16
				C120.55,222.43,120.44,222.31,120.41,221.02z"/>
			<path class="st8" d="M271.23,219.08c-0.7-0.44-1.56-0.39-2.25,0.13c-0.37,0.28-0.55,0.69-0.76,1.08
				c-1.55,2.97-3.24,5.84-5.69,8.18c-1.68,1.6-3.26,1.48-4.75-0.3c-0.97-1.17-1.57-2.52-1.95-3.98c-0.14-0.55-0.01-0.79,0.57-0.81
				c0.26-0.01,0.52-0.09,0.78-0.17c4.11-1.21,8.03-5,7.39-10.96c-0.29-2.75-2.78-4.52-5.47-3.89c-2.39,0.56-3.97,2.2-5.19,4.21
				c-1.6,2.66-2.29,5.58-2.23,8.68c-0.12,0.23-0.22,0.47-0.31,0.71c-0.74,1.98-1.48,3.96-2.36,5.88c-0.55,1.19-1.16,2.36-2.15,3.26
				c-0.66,0.6-1.21,0.61-1.89,0.02c-0.37-0.32-0.67-0.71-0.92-1.14c-1.48-2.61-2.19-5.47-2.75-8.39c-0.06-0.29,0.03-0.44,0.32-0.55
				c1.89-0.68,3.33-1.97,4.5-3.53c3.18-4.24,4.51-9.1,4.7-14.33c0.01-1.33-0.11-2.63-0.54-3.88c-1.31-3.78-5.24-4.72-8.14-1.96
				c-1.2,1.14-2.06,2.5-2.75,3.98c-0.16,0.34-0.29,0.69-0.43,1.04c-0.12-0.02-0.25-0.03-0.38-0.03c-3.22-0.01-6.45,0-9.67,0
				c-0.82,0-0.82,0-0.71-0.78c0.09-0.68,0.24-1.36,0.27-2.04c0.04-1.17-0.67-1.98-1.73-2.07c-0.98-0.08-1.87,0.63-2.08,1.69
				c-0.14,0.72-0.25,1.44-0.37,2.17c-0.16,0.96-0.16,0.96-1.11,0.95c-1.73-0.01-3.47-0.04-5.2-0.01c-0.22,0-0.42,0.04-0.61,0.1
				c-0.87,0-1.74,0-2.61,0c-0.82,0-0.82,0-0.71-0.78c0.09-0.68,0.24-1.36,0.27-2.04c0.04-1.17-0.67-1.98-1.73-2.07
				c-0.98-0.08-1.87,0.63-2.08,1.69c-0.14,0.72-0.25,1.44-0.37,2.17c-0.16,0.96-0.16,0.96-1.11,0.95c-1.73-0.01-3.47-0.04-5.2-0.01
				c-1.55,0.03-2.53,1.47-1.9,2.76c0.37,0.76,1.02,1.15,1.88,1.16c1.67,0,3.34,0.02,5,0c0.49-0.01,0.7,0.06,0.65,0.65
				c-0.2,2.37-0.45,4.73-0.42,7.11c0,0.3,0,0.61,0,0.91c-2.38,0.77-4.7,0.65-6.93-0.62c-1.02-0.58-2.08-1.12-2.99-1.88
				c-2.14-1.79-4.65-1.06-6.21,0.25c-0.69,0.57-1.26,1.25-1.73,2.01c-0.19,0.31-0.36,0.62-0.52,0.93c-1.37,0.02-2.72,0.31-4.05,0.6
				c-0.57,0.12-0.8-0.02-0.95-0.57c-0.29-1.03-0.75-2-1.4-2.86c-1.5-2.01-3.43-3.1-6.02-2.81c-1.99,0.22-3.44,1.32-4.68,2.8
				c-0.58,0.69-1.04,1.46-1.61,2.4c0.11-2.23,0.18-4.27,0.31-6.3c0.08-1.24,0.23-2.47,0.35-3.71c0.14-1.5,0.34-3,0.41-4.51
				c0.06-1.13-0.69-1.89-1.76-1.96c-1.01-0.06-1.93,0.73-2.05,1.79c-0.21,1.78-0.4,3.57-0.56,5.36c-0.4,4.29-0.52,8.6-0.63,12.9
				c-0.09,3.47,0.11,6.93,0.42,10.38c0.16,1.74,0.4,3.48,0.66,5.22c0.19,1.25,1.13,1.98,2.28,1.85c1.59-0.18,2.23-0.83,2.19-2.27
				c-0.02-0.64-0.13-1.28-0.2-1.99c2.08,0.97,2.92,1.13,4.28,0.88c2.3-0.42,3.99-1.78,5.45-3.48c2.09-2.44,3.11-5.3,3.27-8.49
				c0.02-0.37,0.08-0.65,0.5-0.73c0.8-0.16,1.59-0.32,2.39-0.46c-0.27,1.32-0.4,2.68-0.42,4.07c-0.01,2.32,0.34,4.56,1.35,6.67
				c0.22,0.46,0.48,0.91,0.77,1.32c2.24,3.16,5.89,3.33,8.42,0.39c1.63-1.9,2.44-4.16,2.9-6.57c0.39-2.04,0.38-4.11,0.16-6.17
				c-0.04-0.33-0.11-0.73,0.48-0.53c1.37,0.48,2.8,0.46,4.22,0.38c0.65-0.04,1.29-0.11,1.92-0.23c0.01,0.88,0.03,1.75,0.1,2.63
				c0.18,2.57,0.43,5.13,0.97,7.66c0.49,2.31,1.14,4.58,2.53,6.55c2.03,2.89,5.1,3.16,7.63,0.7c1.22-1.18,2.08-2.6,2.83-4.1
				c0.46-0.92,0.87-1.85,1.25-2.8c0.49,2.19,1.13,4.33,2.45,6.19c2.03,2.89,5.1,3.16,7.63,0.7c1.22-1.18,2.08-2.6,2.83-4.1
				c0.68-1.34,1.25-2.72,1.75-4.13c0.59,1.75,1.35,3.43,2.52,4.92c2.42,3.07,5.98,3.17,8.58,0.26c0.53-0.6,1.01-1.24,1.42-1.93
				c0.63-1.06,1.15-2.18,1.62-3.31c0.67,1.36,1.58,2.59,2.79,3.66c1.85,1.63,4,2.05,6.35,1.34c1.24-0.37,2.26-1.15,3.16-2.05
				c2.7-2.71,4.67-5.93,6.38-9.32c0.1-0.2,0.16-0.41,0.21-0.63C272.2,220.29,271.88,219.49,271.23,219.08z M176.33,215.46
				c0.3-0.42,0.65-0.79,1.05-1.12c1.12-0.94,2.55-0.82,3.49,0.3c0.52,0.62,0.86,1.34,1.11,2.11c0.12,0.37,0.07,0.63-0.36,0.78
				c-3.05,1.02-5.67,2.72-7.95,4.96C174.1,219.97,174.82,217.56,176.33,215.46z M182.37,221.93c-0.43,2.36-1.52,4.35-3.35,5.91
				c-0.67,0.57-1.4,1.03-2.16,1.06c-1.17,0.01-1.64-0.6-1.44-1.6c0.18-0.89,0.67-1.59,1.26-2.23c1.47-1.57,3.26-2.67,5.23-3.49
				C182.31,221.4,182.47,221.39,182.37,221.93z M197.08,228.59c-0.29,0.5-0.64,0.96-1.11,1.32c-0.57,0.43-0.97,0.4-1.48-0.1
				c-0.78-0.76-1.12-1.76-1.37-2.78c-0.79-3.19-0.48-6.3,0.79-9.32c0.36-0.84,0.82-1.63,1.58-2.19c0.43-0.32,0.83-0.32,1.28-0.01
				c0.5,0.35,0.8,0.83,1.04,1.36c0.63,1.38,0.93,3,0.92,5.81C198.7,224.19,198.29,226.49,197.08,228.59z M222.93,220.94
				c-0.72,2.99-1.58,5.93-2.85,8.74c-0.67,1.48-1.41,2.93-2.63,4.06c-0.69,0.64-0.99,0.61-1.56-0.15c-0.69-0.92-1.09-1.98-1.42-3.07
				c-1.08-3.56-1.44-7.23-1.57-10.91c-0.16-4.29-0.02-8.57,0.48-12.84c0.05-0.47,0.23-0.59,0.67-0.59c1.76,0.02,3.51,0.01,5.27,0.01
				c1.29,0,2.58,0,3.86,0c0.34,0.02,0.49,0.15,0.45,0.64c-0.2,2.37-0.45,4.73-0.42,7.11c0.02,1.99-0.03,3.98,0.03,5.97
				C223.1,220.22,223.02,220.58,222.93,220.94z M234.24,229.67c-0.67,1.48-1.41,2.93-2.63,4.06c-0.69,0.64-0.99,0.61-1.56-0.15
				c-0.69-0.92-1.09-1.98-1.42-3.07c-1.08-3.56-1.44-7.23-1.57-10.91c-0.16-4.29-0.02-8.57,0.48-12.84
				c0.05-0.47,0.23-0.59,0.67-0.59c1.76,0.02,3.51,0.01,5.27,0.01c1.44,0,2.89,0.01,4.33,0c-0.56,2.45-0.82,4.96-0.93,7.49
				c-0.11,2.3,0.01,4.58,0.33,6.84c-0.04,0.15-0.08,0.3-0.11,0.44C236.37,223.93,235.51,226.87,234.24,229.67z M240.71,216.62
				c-0.03-0.46-0.01-0.93-0.01-1.4c0.14-3.96,0.45-7.89,1.97-11.62c0.43-1.05,0.95-2.06,1.69-2.93c0.12-0.14,0.23-0.27,0.36-0.39
				c0.98-0.91,1.64-0.73,1.99,0.55c0.47,1.71,0.3,3.44,0.02,5.15c-0.55,3.37-1.61,6.55-3.74,9.3c-0.48,0.62-1.06,1.14-1.68,1.61
				C240.93,217.18,240.73,217.04,240.71,216.62z M255.69,219.02c0.35-1.92,0.94-3.74,2.15-5.31c0.43-0.55,0.93-1.02,1.54-1.34
				c0.87-0.46,1.34-0.18,1.39,0.82c0.01,0.15,0,0.31,0,0.47c-0.01,2.57-2.03,5.14-4.52,5.79
				C255.88,219.54,255.59,219.58,255.69,219.02z"/>
		</g>
		<g>
			<path class="st8" d="M153.53,115.34c1.43-0.01,2.57-1.1,2.57-2.46c0-1.25-1.07-2.36-2.27-2.37c-1.44-0.02-2.72,1.18-2.72,2.55
				C151.12,114.36,152.17,115.35,153.53,115.34z"/>
			<path class="st8" d="M266.41,129.48c-1.07-0.41-2.24,0.06-2.86,1.17c-0.17,0.31-0.3,0.65-0.43,0.98
				c-0.92,2.44-1.83,4.89-2.92,7.26c-0.68,1.48-1.44,2.91-2.66,4.03c-0.82,0.74-1.5,0.75-2.33,0.02c-0.46-0.4-0.83-0.88-1.13-1.41
				c-1.83-3.22-2.7-6.76-3.4-10.36c-0.07-0.36,0.03-0.55,0.39-0.68c2.33-0.84,4.11-2.43,5.56-4.37c3.93-5.24,5.58-11.25,5.8-17.7
				c0.02-1.64-0.13-3.25-0.67-4.8c-1.61-4.67-6.47-5.83-10.06-2.42c-1.48,1.41-2.55,3.08-3.39,4.92c-2.21,4.83-2.9,9.99-3.14,15.23
				c-0.12,2.62-0.01,5.22,0.31,7.8c-0.05,0.13-0.1,0.25-0.15,0.38c-1.21,3.16-2.52,6.27-4.1,9.26c-0.53,1-1.1,1.97-1.84,2.83
				c-0.13,0.15-0.23,0.44-0.49,0.35c-0.19-0.06-0.22-0.3-0.25-0.49c-0.11-0.59-0.24-1.18-0.33-1.78c-0.54-3.61-0.27-7.23-0.13-10.85
				c0.04-1.09,0.12-2.19,0.2-3.28c0.16-2.02,0.35-4.05,0.25-6.08c-0.06-1.31-1.2-2.4-2.47-2.22c-0.82,0.12-1.49-0.05-2.19-0.41
				c-0.41-0.21-0.86-0.38-1.31-0.48c-4.98-1.05-9.04,0.59-12.28,4.36c-2.2,2.56-3.28,5.51-3.46,8.75c-0.02,0.04-0.05,0.08-0.08,0.13
				c-0.16,0.32-0.27,0.66-0.38,1c-0.85,2.61-1.83,5.18-3.05,7.65c-0.43,0.88-0.9,1.74-1.62,2.6c-0.44-1.27-0.51-2.47-0.58-3.66
				c-0.22-3.64-0.11-7.3-0.52-10.93c-0.27-2.35-0.65-4.69-1.87-6.78c-2.16-3.71-5.8-4.4-9.2-1.78c-1.62,1.24-2.86,2.8-3.9,4.53
				c-1.02,1.69-1.81,3.5-2.58,5.32c-0.03-1.1-0.05-2.16,0-3.23c0.13-2.49,0.4-4.97,0.57-7.46c0.1-1.44-0.83-2.45-2.14-2.54
				c-1.38-0.1-2.38,0.75-2.58,2.21c-0.28,2.07-0.46,4.14-0.56,6.22c-3,1.01-5.91,0.88-8.72-0.72c-1.26-0.72-2.57-1.39-3.69-2.32
				c-2.64-2.22-5.74-1.31-7.67,0.31c-0.85,0.71-1.56,1.54-2.14,2.49c-1.32,2.15-2.11,4.44-2.52,6.82c-0.56,1.55-1.09,3.12-1.76,4.63
				c-1.08,2.45-2.26,4.84-4.12,6.81c-1.19,1.26-1.66,1.14-2.26-0.47c-0.8-2.14-0.99-4.39-1.06-6.64c-0.13-3.72,0.31-7.4,0.89-11.06
				c0.13-0.81,0.02-1.54-0.53-2.16c-0.63-0.71-1.43-1.04-2.37-0.77c-1.14,0.33-1.69,1.21-1.86,2.3c-0.34,2.23-0.61,4.48-0.76,6.8
				c-0.05,0.08-0.09,0.15-0.13,0.23c-0.18,0.43-0.28,0.89-0.39,1.34c-0.89,3.69-1.95,7.33-3.52,10.79
				c-0.83,1.83-1.75,3.62-3.26,5.01c-0.85,0.79-1.22,0.75-1.92-0.19c-0.85-1.14-1.34-2.45-1.75-3.8c-1.34-4.4-1.78-8.94-1.94-13.49
				c-0.2-5.29-0.02-10.59,0.59-15.87c0.07-0.59,0.29-0.73,0.82-0.72c2.17,0.02,4.34,0.01,6.51,0.01c2.17,0,2.13,0.02,4.3-0.01
				c1.47-0.02,2.44-1.15,2.33-2.61c-0.1-1.27-1.06-2.1-2.5-2.1c-3.98-0.01-5.76,0-9.74,0c-1.01,0-1.01,0-0.88-0.96
				c0.11-0.84,0.3-1.68,0.33-2.53c0.05-1.44-0.82-2.44-2.13-2.56c-1.21-0.1-2.31,0.78-2.56,2.09c-0.17,0.89-0.31,1.78-0.46,2.68
				c-0.2,1.18-0.2,1.18-1.37,1.18c-2.14-0.01-4.29-0.05-6.43-0.01c-1.91,0.03-3.12,1.82-2.34,3.41c0.46,0.94,1.26,1.43,2.32,1.43
				c2.06,0,4.12,0.02,6.18,0c0.6-0.01,0.87,0.08,0.8,0.81c-0.25,2.92-0.55,5.85-0.52,8.79c0,0.38,0,0.75,0,1.13
				c-2.94,0.95-5.8,0.8-8.56-0.77c-1.26-0.72-2.57-1.39-3.69-2.32c-2.64-2.22-5.74-1.31-7.67,0.31c-0.85,0.71-1.56,1.54-2.14,2.49
				c-1.77,2.89-2.58,6.02-2.82,9.31c-0.05,0.13-0.1,0.26-0.15,0.38c-0.99,2.35-1.89,4.76-3.54,6.76c-0.84,1.02-1.23,0.99-1.87-0.12
				c-0.26-0.45-0.48-0.93-0.67-1.41c-0.51-1.31-0.78-2.69-1.11-4.05c-0.42-1.74-0.82-3.48-1.73-5.04c-1.47-2.52-4.05-3.11-6.47-1.49
				c-1,0.67-1.76,1.56-2.48,2.5c-0.13,0.17-0.2,0.44-0.5,0.49c-0.17-1.34-0.3-2.65-0.51-3.95c-0.42-2.53-0.93-5.03-2.45-7.19
				c-1.72-2.43-4.47-3.02-7.03-1.48c-1.41,0.85-2.54,2-3.5,3.33c-1.05,1.46-1.77,3.09-2.46,4.74c0.19-2.14,0.15-4.29,0.56-6.4
				c0.27-1.39-0.44-2.55-1.7-2.88c-1.2-0.32-2.38,0.34-2.89,1.6c-0.27,0.67-0.34,1.39-0.39,2.1c-0.2,2.87-0.41,5.74-0.44,8.61
				c-0.37,0.34-0.59,0.79-0.82,1.23c-1.91,3.67-4,7.22-7.03,10.1c-2.07,1.98-4.03,1.83-5.86-0.37c-1.2-1.44-1.94-3.11-2.41-4.92
				c-0.17-0.67-0.01-0.98,0.71-1c0.32-0.01,0.65-0.11,0.96-0.21c5.08-1.5,9.92-6.18,9.14-13.54c-0.36-3.4-3.44-5.59-6.76-4.81
				c-2.96,0.7-4.91,2.71-6.41,5.21c-1.99,3.31-2.84,6.94-2.75,10.79c0.02,1.1-0.02,2.19,0.17,3.29c0.66,3.77,2.16,7.09,5.07,9.66
				c2.29,2.01,4.95,2.53,7.85,1.66c1.53-0.46,2.79-1.42,3.91-2.54c1.79-1.8,3.32-3.79,4.69-5.89c0.2,1.93,0.47,3.85,0.83,5.76
				c0.16,0.85,0.43,1.63,1.04,2.29c0.8,0.86,1.74,1.18,2.73,0.83c1-0.35,1.57-1.18,1.57-2.37c0-0.74-0.17-1.48-0.12-2.21
				c0.15-2.16,0.35-4.32,0.79-6.45c0.64-3.1,1.45-6.15,2.63-9.08c0.66-1.62,1.56-3.08,3.01-4.15c0.55-0.41,0.93-0.34,1.26,0.26
				c0.43,0.78,0.69,1.62,0.9,2.47c1.01,4.13,1.13,8.36,1.32,12.58c0.1,2.28,0.11,4.56,0.18,6.83c0.06,1.79,1.85,2.81,3.44,2
				c0.94-0.47,1.27-1.33,1.41-2.28c0.27-1.82,0.66-3.62,1.2-5.38c0.69-2.23,1.42-4.45,2.91-6.32c0.18-0.23,0.36-0.59,0.67-0.55
				c0.33,0.05,0.34,0.47,0.41,0.74c0.52,1.94,0.97,3.89,1.53,5.81c0.59,2.05,1.44,3.95,3.04,5.48c1.53,1.46,3.8,1.66,5.51,0.88
				c1.2-0.55,2.15-1.41,2.94-2.45c0.26-0.34,0.5-0.68,0.73-1.03c0.16,0.44,0.34,0.87,0.54,1.3c0.27,0.57,0.59,1.12,0.95,1.63
				c2.77,3.9,7.28,4.11,10.4,0.48c2.01-2.34,3.02-5.14,3.58-8.12c0.48-2.53,0.47-5.07,0.2-7.62c-0.04-0.41-0.14-0.91,0.59-0.65
				c1.7,0.6,3.46,0.57,5.22,0.47c0.8-0.05,1.59-0.13,2.37-0.29c0.01,1.08,0.04,2.16,0.12,3.25c0.22,3.18,0.54,6.34,1.2,9.46
				c0.61,2.86,1.41,5.66,3.12,8.09c2.51,3.57,6.3,3.9,9.43,0.87c1.5-1.46,2.57-3.21,3.5-5.06c0.48-0.95,0.91-1.92,1.31-2.89
				c0.38,1.12,0.92,2.17,1.72,3.12c1.02,1.21,2.31,1.91,3.95,1.86c2-0.06,3.51-1.09,4.77-2.47c1.14-1.24,2.09-2.58,2.92-3.98
				c0.21,0.62,0.45,1.24,0.74,1.85c0.27,0.57,0.59,1.12,0.95,1.63c2.77,3.9,7.28,4.11,10.4,0.48c2.01-2.34,3.02-5.14,3.58-8.12
				c0.48-2.53,0.47-5.07,0.2-7.62c-0.04-0.41-0.14-0.91,0.59-0.65c1.7,0.6,3.46,0.57,5.22,0.47c0.81-0.05,1.62-0.13,2.41-0.29
				c-0.03,3.15,0,6.29,0.36,9.43c0.2,1.8,0.31,3.61,0.7,5.38c0.33,1.47,1.24,2.2,2.5,2.15c1.19-0.05,2.1-0.9,2.33-2.28
				c0.48-2.9,1.13-5.76,1.98-8.58c1.02-3.37,2.05-6.73,3.97-9.73c0.7-1.1,1.54-2.08,2.62-2.81c0.85-0.57,1.29-0.45,1.81,0.43
				c0.34,0.57,0.56,1.19,0.74,1.83c0.74,2.67,0.84,5.42,0.93,8.16c0.09,2.63,0.08,5.27,0.38,7.89c0.21,1.84,0.58,3.65,1.7,5.18
				c1.29,1.75,3.43,2.12,5.26,0.92c0.82-0.54,1.46-1.24,2.04-2.01c1.38-1.83,2.37-3.86,3.25-5.95c0.22,0.33,0.46,0.66,0.73,0.98
				c2.5,2.97,5.91,3.3,9,0.95c1.38-1.05,2.42-2.38,3.31-3.85c0.41-0.67,0.78-1.36,1.17-2.03c0.13,1.67,0.15,3.31,0.3,4.94
				c0.17,1.92,0.38,3.82,1.17,5.61c0.5,1.14,1.22,2.09,2.41,2.59c1.86,0.78,3.45,0.15,4.87-1.06c1.4-1.19,2.42-2.7,3.28-4.3
				c0.74-1.38,1.44-2.79,2.09-4.21c0.84,2.83,1.84,5.6,3.7,7.96c2.99,3.79,7.39,3.92,10.6,0.32c0.66-0.74,1.24-1.54,1.75-2.39
				c1.49-2.49,2.45-5.21,3.52-7.89c0.4-1.02,0.8-2.05,1.1-3.11C268.26,131.09,267.61,129.94,266.41,129.48z M51.67,127.99
				c0.43-2.37,1.16-4.62,2.66-6.56c0.53-0.68,1.14-1.26,1.91-1.66c1.08-0.57,1.66-0.22,1.72,1.01c0.01,0.19,0,0.38,0,0.57
				c-0.01,3.18-2.5,6.36-5.58,7.15C51.9,128.62,51.55,128.67,51.67,127.99z M117.4,139.8c-0.36,0.62-0.79,1.19-1.37,1.63
				c-0.7,0.53-1.2,0.5-1.83-0.12c-0.96-0.94-1.38-2.18-1.69-3.43c-0.42-1.68-0.57-3.34-0.51-4.98c0.1-0.27,0.2-0.55,0.3-0.82
				c0.21-0.59,0.18-1.17-0.03-1.67c0.25-1.36,0.65-2.71,1.21-4.04c0.44-1.04,1.02-2.01,1.95-2.71c0.53-0.4,1.02-0.4,1.58-0.01
				c0.61,0.43,0.98,1.02,1.28,1.68c0.77,1.71,1.14,3.7,1.14,7.18C119.4,134.37,118.89,137.21,117.4,139.8z M173.49,139.8
				c-0.36,0.62-0.79,1.19-1.37,1.63c-0.7,0.53-1.2,0.5-1.83-0.12c-0.96-0.94-1.38-2.18-1.69-3.43c-0.98-3.94-0.59-7.79,0.98-11.52
				c0.44-1.04,1.02-2.01,1.95-2.71c0.53-0.4,1.02-0.4,1.58-0.01c0.61,0.43,0.98,1.02,1.28,1.68c0.77,1.71,1.14,3.7,1.14,7.18
				C175.49,134.37,174.98,137.21,173.49,139.8z M232.78,122.34c-1.37,3.8-2.86,7.55-4.91,11.04c-0.52,0.88-1.13,1.69-1.91,2.36
				c-1.19,1.03-1.91,0.96-2.85-0.31c-1.09-1.47-1.44-3.17-1.43-4.97c0.01-4.48,2.78-8.33,6.73-9.4c1.38-0.37,2.7-0.34,3.99,0.36
				C232.78,121.64,232.95,121.87,232.78,122.34z M249.92,125.01c-0.03-0.57-0.01-1.15-0.01-1.73c0.17-4.89,0.56-9.75,2.43-14.35
				c0.53-1.3,1.17-2.55,2.08-3.63c0.14-0.17,0.28-0.34,0.44-0.49c1.21-1.13,2.03-0.9,2.46,0.69c0.58,2.12,0.37,4.25,0.03,6.37
				c-0.69,4.17-2,8.09-4.62,11.49c-0.59,0.77-1.31,1.41-2.08,1.99C250.19,125.7,249.96,125.54,249.92,125.01z"/>
		</g>
	</g>
	<path class="st9" d="M64.57,167.93c3.63,3.87,9.79,3.03,10.63,9.63c0.7,5.56-4.29,9.7-9.42,10.35c-4.26,0.54-10.77-1.33-11.4-6.33
		c-0.25-1.98,0.77-4.8,3.06-5.09c1.73-0.22,3.41,1.7,5.27,1.47c0.37-0.05,1.02-0.38,0.97-0.75c-0.2-1.6-9.29-3.03-10.16-9.88
		c-0.74-5.87,3.6-11.69,9.47-12.43c4.32-0.55,9.96,1.88,10.56,6.63c0.31,2.47-1.06,5.03-3.71,5.36c-2.28,0.29-3.21-1.6-4.57-1.43
		c-0.8,0.1-1.2,0.91-1.12,1.58C64.19,167.41,64.35,167.7,64.57,167.93z"/>
	<path class="st7" d="M105.77,169.53c0.26,3.48,1.08,18.08-0.93,20.41c-0.86,1.06-2.27,1.41-3.57,1.51
		c-1.74,0.13-4.23-0.62-4.38-2.74l-0.02-0.31c-1.01,2.38-3.48,3.62-5.96,3.81c-9.43,0.69-12.34-10.01-12.89-17.4
		c-0.38-5.15-0.33-14.64,6.62-15.15c3.91-0.29,5,1.82,5.25,5.23c0.2,2.73,0.03,5.49,0.23,8.28c0.11,1.49,0.25,5.04,2.42,4.88
		c0.43-0.03,0.86-0.19,1.14-0.58c1.87-2.57-2.41-18.42,6.03-19.04C105.61,157.99,105.48,165.55,105.77,169.53z"/>
	<path class="st10" d="M140.2,165.39c0.16,1.58,0.08,3.13-0.06,4.62c-0.76,7.99-4.94,14.54-13.92,13.69
		c-1.49-0.14-2.95-0.53-4.32-1.22l-1.12,7.21c-0.38,2.71-1.39,4.81-4.61,4.5c-1.49-0.14-4.05-0.76-5.13-1.92
		c-2.04-2.19-1.01-11.85-0.71-15.01c0.52-5.51,1.42-11.06,2.62-16.44c0.74-3.24,3.07-6.02,6.66-5.68c2.04,0.19,3.82,1.3,3.66,3.6
		c1.71-2.21,5.02-2.84,7.68-2.59C135.96,156.61,139.54,160.45,140.2,165.39z M129.27,170.55c0.12-1.24-0.34-3.72-1.95-3.87
		c-1.73-0.16-3,2.59-3.13,4.02c-0.12,1.3,0.22,3.65,1.83,3.8C128,174.68,129.12,172.16,129.27,170.55z"/>
	<path class="st11" d="M169.2,168.62c0.56,1.49,0.87,3.01,1.11,4.49c1.29,7.93-1.11,15.31-10.02,16.76
		c-1.47,0.24-2.99,0.23-4.49-0.09l0.74,7.26c0.32,2.72-0.13,5-3.33,5.52c-1.47,0.24-4.11,0.29-5.45-0.57
		c-2.53-1.61-3.96-11.21-4.47-14.34c-0.89-5.47-1.42-11.06-1.62-16.57c-0.1-3.33,1.45-6.6,5.01-7.18c2.03-0.33,4.02,0.29,4.45,2.56
		c1.1-2.57,4.14-4.01,6.78-4.44C162.89,161.2,167.32,164.01,169.2,168.62z M159.93,176.37c-0.2-1.23-1.26-3.51-2.86-3.26
		c-1.72,0.28-2.24,3.26-2.01,4.68c0.21,1.29,1.13,3.47,2.73,3.21C159.75,180.69,160.19,177.97,159.93,176.37z"/>
	<path class="st12" d="M200.07,171.71c0,8.09-5.29,16.43-14.07,16.43c-8.78,0-14.31-8.4-14.31-16.55c0-7.84,5.41-16.68,14.07-16.68
		C194.78,154.9,200.07,163.49,200.07,171.71z M187.68,171.14c0-1-0.19-3.98-1.68-3.98c-1.87,0-1.99,3.55-1.99,4.85
		c0,1.18,0.06,3.67,1.81,3.67C187.62,175.69,187.68,172.45,187.68,171.14z"/>
	<path class="st13" d="M227.5,169.68c0,3.05-2.36,6.22-5.6,6.22c-2.12,0-3.8-1.56-5.79-1.56c-1.87,0-2.55,1.31-2.74,2.99
		c-0.5,4.17-0.5,8.4-0.81,12.57c-0.25,3.05-1.87,5.29-5.1,5.29c-1.06,0-2.61-0.37-3.36-1.24c-1.87-2.24-1.74-9.96-1.74-13.01
		c0-4.73,0.31-9.52,1.12-14.19c0.5-2.93,1.74-4.48,4.79-4.48c3.17,0,3.86,1.06,3.86,4.11v0.44c1.99-2.05,4.92-3.17,7.78-3.17
		C223.45,163.64,227.5,165.7,227.5,169.68z"/>
	<path class="st14" d="M249.97,183.18c0.09,4.23-4.03,6.74-7.83,6.82c-9.65,0.2-9.78-9.32-9.93-16.41c-0.04-2.05-0.02-4.11,0.06-6.1
		c-2.12-0.21-4.12-0.41-4.17-3.03c-0.04-2.05,0.73-3.56,2.97-3.8c2.05-0.17,2.24,0.2,2.2-2.16c-0.07-3.55-0.53-7.58,4.38-7.69
		c5.16-0.11,4.95,4.32,5.03,8.42l0.01,0.56c0.04,1.8,5.09-0.48,5.18,3.81c0.06,2.74-2.36,3.41-4.59,3.58
		c-1.31,0.09-1.18,0.15-1.21,1.46c0.03,1.62,0,3.18,0.04,4.79c0.03,1.24,0.01,6.66,1.69,6.63c0.81-0.02,1.6-0.66,2.54-0.68
		C248.52,179.35,249.93,181.07,249.97,183.18z"/>
	<g>
		<path class="st15" d="M94.01,251.71c-2.62-0.16-5.07-0.83-7.61-1.96c0.28,3.3,0.95,6.4,0.97,9.52c-0.73,0.28-0.88-0.21-1.06-0.58
			c-0.79-1.59-1.57-3.2-2.35-4.8c-0.25-0.52-0.46-1.05-0.78-1.79c-1.6,2.55-2.98,5.07-4.91,7.1c-0.7-0.2-0.61-0.58-0.51-0.96
			c0.58-2.18,1.17-4.37,1.74-6.55c0.08-0.32,0.12-0.65,0.21-1.13c-0.35,0.05-0.63,0.04-0.86,0.13c-2.15,0.83-4.29,1.69-6.44,2.53
			c-0.42,0.16-0.86,0.27-1.31,0.4c-0.21-0.8,0.29-1.03,0.64-1.32c1.71-1.4,3.45-2.79,5.17-4.18c0.37-0.3,0.7-0.64,1.09-0.99
			c-0.76-1.02-1.84-1.31-2.86-1.68c-1.35-0.49-2.72-0.96-4.08-1.45c-0.38-0.14-0.87-0.22-0.88-0.95c3.07-0.56,6.16,0.32,9.35,0.1
			c-0.93-3.17-1.68-6.26-2.23-9.7c1.35,0.74,1.52,1.85,2.04,2.71c0.52,0.87,0.94,1.79,1.43,2.68c0.51,0.93,1.04,1.84,1.68,2.96
			c0.89-1.48,1.67-2.84,2.51-4.17c0.81-1.27,1.38-2.73,2.62-3.78c0.56,0.61,0.38,1.18,0.26,1.72c-0.38,1.74-0.78,3.47-1.18,5.21
			c-0.09,0.41-0.19,0.82-0.34,1.48c2.52-0.81,4.87-1.55,7.18-2.29c0.55,0.69,0.21,1.14-0.2,1.47c-1.07,0.89-2.18,1.73-3.29,2.59
			c-0.9,0.7-1.81,1.38-2.85,2.17C89.44,248.25,92.34,249.18,94.01,251.71z"/>
		<path class="st15" d="M196.27,66.63c-0.67-2.54-0.8-5.08-0.52-7.84c-3.05,1.3-5.78,2.91-8.74,3.9c-0.49-0.61-0.08-0.9,0.22-1.19
			c1.27-1.25,2.54-2.49,3.82-3.73c0.41-0.4,0.85-0.77,1.45-1.31c-2.93-0.72-5.75-1.25-8.28-2.43c-0.03-0.72,0.36-0.76,0.76-0.78
			c2.26-0.13,4.51-0.26,6.77-0.4c0.33-0.02,0.66-0.09,1.14-0.16c-0.16-0.32-0.23-0.58-0.39-0.78c-1.46-1.78-2.95-3.55-4.42-5.33
			c-0.29-0.35-0.52-0.73-0.79-1.12c0.69-0.45,1.07-0.05,1.45,0.2c1.87,1.19,3.72,2.4,5.59,3.6c0.4,0.25,0.82,0.47,1.28,0.72
			c0.73-1.04,0.67-2.15,0.7-3.24c0.04-1.44,0.06-2.88,0.1-4.33c0.01-0.41-0.07-0.89,0.63-1.14c1.49,2.74,1.62,5.95,2.83,8.91
			c2.72-1.87,5.42-3.55,8.52-5.16c-0.28,1.51-1.28,2.03-1.94,2.79c-0.66,0.76-1.41,1.45-2.1,2.19c-0.72,0.77-1.42,1.56-2.29,2.52
			c1.68,0.38,3.22,0.7,4.75,1.08c1.46,0.37,3.02,0.46,4.41,1.31c-0.4,0.72-1.01,0.73-1.56,0.79c-1.77,0.18-3.54,0.34-5.31,0.51
			c-0.42,0.04-0.84,0.08-1.51,0.14c1.55,2.14,3,4.14,4.43,6.1c-0.49,0.74-1.01,0.56-1.46,0.27c-1.18-0.74-2.33-1.53-3.48-2.31
			c-0.94-0.64-1.88-1.29-2.96-2.03C198.12,61.21,198.15,64.25,196.27,66.63z"/>
		<path class="st15" d="M276.03,190.86c-2.62-0.16-5.07-0.83-7.61-1.96c0.28,3.3,0.95,6.4,0.97,9.52c-0.73,0.28-0.88-0.21-1.06-0.58
			c-0.79-1.59-1.57-3.2-2.35-4.8c-0.25-0.52-0.46-1.05-0.78-1.79c-1.6,2.55-2.98,5.07-4.91,7.1c-0.7-0.2-0.61-0.58-0.51-0.96
			c0.58-2.18,1.17-4.37,1.74-6.55c0.08-0.32,0.12-0.65,0.21-1.13c-0.35,0.05-0.63,0.04-0.86,0.13c-2.15,0.83-4.29,1.69-6.44,2.53
			c-0.42,0.16-0.86,0.27-1.31,0.4c-0.21-0.8,0.29-1.03,0.64-1.32c1.71-1.4,3.45-2.79,5.16-4.18c0.37-0.3,0.7-0.64,1.09-0.99
			c-0.76-1.02-1.84-1.31-2.86-1.68c-1.35-0.49-2.72-0.96-4.08-1.45c-0.38-0.14-0.87-0.22-0.88-0.95c3.07-0.56,6.16,0.32,9.35,0.1
			c-0.93-3.17-1.68-6.26-2.23-9.7c1.35,0.74,1.52,1.85,2.04,2.71c0.52,0.87,0.94,1.79,1.43,2.68c0.51,0.93,1.04,1.84,1.68,2.96
			c0.89-1.48,1.67-2.84,2.51-4.17c0.81-1.27,1.38-2.73,2.62-3.78c0.56,0.61,0.38,1.18,0.26,1.72c-0.38,1.74-0.78,3.47-1.18,5.21
			c-0.09,0.41-0.19,0.82-0.34,1.48c2.52-0.81,4.87-1.55,7.18-2.29c0.55,0.69,0.21,1.14-0.2,1.47c-1.07,0.89-2.18,1.73-3.29,2.59
			c-0.9,0.7-1.81,1.38-2.85,2.17C271.46,187.41,274.36,188.33,276.03,190.86z"/>
		<path class="st15" d="M72.93,99.66c1.84,4.96,0.65,3.77,5.6,5.6c-4.95,1.84-3.77,0.65-5.6,5.6c-1.84-4.95-0.65-3.77-5.6-5.6
			C72.28,103.43,71.1,104.62,72.93,99.66z"/>
		<path class="st15" d="M222.6,51.5c1.84,4.96,0.65,3.77,5.6,5.6c-4.95,1.84-3.77,0.65-5.6,5.6c-1.84-4.95-0.65-3.77-5.6-5.6
			C221.95,55.27,220.76,56.46,222.6,51.5z"/>
		<path class="st15" d="M260.84,152.55c1.84,4.96,0.65,3.77,5.6,5.6c-4.95,1.84-3.77,0.65-5.6,5.6c-1.84-4.95-0.65-3.77-5.6-5.6
			C260.19,156.31,259.01,157.5,260.84,152.55z"/>
		<path class="st15" d="M53.25,191.93c1.84,4.96,0.65,3.77,5.6,5.6c-4.95,1.84-3.77,0.65-5.6,5.6c-1.84-4.95-0.65-3.77-5.6-5.6
			C52.6,195.7,51.42,196.88,53.25,191.93z"/>
		<path class="st15" d="M223.9,184.77c1.84,4.96,0.65,3.77,5.6,5.6c-4.95,1.84-3.77,0.65-5.6,5.6c-1.84-4.95-0.65-3.77-5.6-5.6
			C223.25,188.54,222.06,189.73,223.9,184.77z"/>
		<path class="st15" d="M203.59,235.76c1.84,4.96,0.65,3.77,5.6,5.6c-4.95,1.84-3.77,0.65-5.6,5.6c-1.84-4.95-0.65-3.77-5.6-5.6
			C202.94,239.53,201.76,240.72,203.59,235.76z"/>
		<path class="st15" d="M49.11,149.9c-1.93,1.78-4.12,3.08-6.68,4.13c2.58,2.09,5.27,3.75,7.53,5.9c-0.31,0.72-0.76,0.49-1.15,0.36
			c-1.7-0.53-3.39-1.08-5.08-1.64c-0.54-0.18-1.07-0.39-1.83-0.68c0.73,2.92,1.58,5.66,1.72,8.46c-0.62,0.37-0.84,0.04-1.05-0.3
			c-1.17-1.93-2.34-3.87-3.51-5.8c-0.17-0.28-0.39-0.54-0.67-0.94c-0.21,0.29-0.41,0.48-0.5,0.71c-0.89,2.13-1.76,4.27-2.65,6.4
			c-0.17,0.41-0.4,0.81-0.62,1.22c-0.72-0.4-0.54-0.93-0.51-1.38c0.18-2.21,0.38-4.42,0.56-6.62c0.04-0.47,0.03-0.95,0.04-1.47
			c-1.26-0.16-2.21,0.42-3.19,0.89c-1.3,0.63-2.58,1.3-3.87,1.93c-0.37,0.18-0.76,0.48-1.3-0.02c1.73-2.6,4.5-4.21,6.56-6.67
			c-2.93-1.53-5.67-3.13-8.54-5.12c1.47-0.46,2.39,0.19,3.37,0.41c0.98,0.23,1.94,0.56,2.92,0.83c1.02,0.28,2.05,0.52,3.3,0.84
			c-0.45-1.66-0.89-3.17-1.26-4.7c-0.36-1.46-1.01-2.88-0.9-4.51c0.83,0.02,1.11,0.55,1.42,1.01c0.99,1.48,1.96,2.97,2.93,4.46
			c0.23,0.35,0.46,0.71,0.83,1.27c1.17-2.38,2.25-4.59,3.33-6.77c0.88,0.08,0.96,0.64,0.92,1.16c-0.1,1.39-0.26,2.77-0.41,4.16
			c-0.12,1.13-0.26,2.26-0.41,3.56C43.46,150.8,46.14,149.35,49.11,149.9z"/>
		<path class="st15" d="M114.78,55.05c1.84,4.96,0.65,3.77,5.6,5.6c-4.95,1.84-3.77,0.65-5.6,5.6c-1.84-4.95-0.65-3.77-5.6-5.6
			C114.13,58.82,112.94,60,114.78,55.05z"/>
		<path class="st15" d="M177.08,101.78c1.84,4.96,0.65,3.77,5.6,5.6c-4.95,1.84-3.77,0.65-5.6,5.6c-1.84-4.95-0.65-3.77-5.6-5.6
			C176.43,105.55,175.25,106.73,177.08,101.78z"/>
		<path class="st15" d="M137.17,193.29c1.84,4.96,0.65,3.77,5.6,5.6c-4.95,1.84-3.77,0.65-5.6,5.6c-1.84-4.95-0.65-3.77-5.6-5.6
			C136.52,197.06,135.33,198.25,137.17,193.29z"/>
		<path class="st15" d="M264.64,85.98c1.84,4.96,0.65,3.77,5.6,5.6c-4.95,1.84-3.77,0.65-5.6,5.6c-1.84-4.95-0.65-3.77-5.6-5.6
			C263.99,89.75,262.81,90.94,264.64,85.98z"/>
		<path class="st15" d="M29.8,72.77c1.84,4.96,0.65,3.77,5.6,5.6c-4.95,1.84-3.77,0.65-5.6,5.6c-1.84-4.95-0.65-3.77-5.6-5.6
			C29.15,76.54,27.96,77.73,29.8,72.77z"/>
		<path class="st15" d="M34.76,118.1c1.84,4.96,0.65,3.77,5.6,5.6c-4.95,1.84-3.77,0.65-5.6,5.6c-1.84-4.95-0.65-3.77-5.6-5.6
			C34.11,121.87,32.92,123.06,34.76,118.1z"/>
	</g>
</g>
</svg>
