<?xml version="1.0" encoding="utf-8"?>
<!-- Generator: Adobe Illustrator 26.3.1, SVG Export Plug-In . SVG Version: 6.00 Build 0)  -->
<svg version="1.1" id="Layer_1" xmlns="http://www.w3.org/2000/svg" xmlns:xlink="http://www.w3.org/1999/xlink" x="0px" y="0px"
	 width="300px" height="300px" viewBox="0 0 300 300" enable-background="new 0 0 300 300" xml:space="preserve">
<g>
	<path fill="#E15765" d="M240.95,63.04c-30.06-19.12-67.09-12.6-88.62,15.76c-1.33,1.75-2.66,3.5-3.99,5.26
		c-1.17-1.58-2.34-3.16-3.51-4.74C125,52.51,82.55,44.39,55.81,66.01c-26.82,21.68-32.47,59.05-13.3,89.02
		c32.63,51.01,97.69,97.87,105.81,97.96c7.79,0.09,80.79-58.2,108.38-101.34C274.69,123.54,269.16,80.99,240.95,63.04z"/>
	<g>
		<path fill="#FFFFFF" d="M41.4,130.69c-4.88,1.19-7.63,1.46-9.36-6.43c-1.27-5.73-0.3-9.19-1.79-15.27
			c-1.32-5.38-4.3-10.16-5.6-15.48c-1.5-6.14-0.94-9.03,5.4-10.58c3.23-0.79,5.53-1.29,8.76-2.08c6.27-1.53,12.79-4.81,15.02,4.85
			c1.72,7.57-7.14,7.32-12.71,8.95c-3.44,1.04-1.5,5.4,0.34,4.41c2.01-1.1,3.99-1.78,6.21-2.33c3.42-0.84,6.78,0.82,7.62,4.24
			c0.98,3.99,0.17,7.54-4.46,8.68c-1.9,0.47-6,0.73-5.39,3.2c0.57,2.34,1.53,4.06,2.1,6.4C49.55,127.75,48.18,129.03,41.4,130.69z"
			/>
		<path fill="#FFFFFF" d="M93.23,103.88c-1.37,0.59-2.74,0.98-4.24,0.98c-6.06,0-6.91-5.48-8.35-9.98c-0.78-2.35-1.63-5.35-2.93-7.5
			c0.46,3.13,1.5,13.12,1.5,16.31c0,6.46-3.52,7.69-9.19,7.69c-6.52,0-9.39-2.15-9.39-8.93c0-4.69,1.18-16.12,1.18-20.88
			c0-7.24-3.65-18.26,1.96-23.6c2.28-2.15,9.26-3.65,12.45-3.65c9.19,0,19.43,2.87,19.43,13.37c0,5.67-2.67,11.08-7.3,14.34
			c2.48,2.74,6.26,3.59,8.93,6.72c1.43,1.69,2.74,4.17,2.74,6.46C100.01,99.97,97.21,102.12,93.23,103.88z M76.41,73.37
			c0.07,0.26,0.46,0.26,0.65,0.26c5.02,0,4.5-8.61,0-8.61C75.89,65.02,76.22,72.13,76.41,73.37z"/>
		<path fill="#FFFFFF" d="M140.33,118.49c-1.17,0.98-6.26,2.28-7.95,2.35c-6.32,0.13-8.87-2.35-9-8.35
			c-0.07-3.46-0.78-5.87-3.33-5.8c-3.13,0.07-2.93,4.69-3.78,8.15c-1.11,4.5-5.8,5.87-10.24,6c-3.39,0.06-7.95-1.37-8.02-5.41
			c-0.13-5.35,4.43-14.67,6.72-19.63c2.54-5.48,3.26-14.19,5.41-19.79c0.78-2.09,1.89-4.11,3.59-5.67c1.89-1.7,4.83-2.74,7.3-2.8
			c3.59-0.07,7.56,2.09,9.32,5.22c2.28,3.91,2.61,11.45,3.65,15.75c0.85,3.72,2.35,7.69,3.91,11.22
			C139.81,104.08,145.29,114.18,140.33,118.49z M117.45,93.12c0.59,1.11,5.87,1.24,5.67-0.2C121.42,82.36,116.21,90.84,117.45,93.12
			z"/>
		<path fill="#FFFFFF" d="M163.78,112.75c-3.44,0.34-9.37-0.06-12.43-1.79c-11.71-6.51-13.58-24.08-7.1-36.78
			c7.97-15.53,29.91-15.59,31.51,0.63c0.49,5-1.29,7.47-6.29,7.96c-7.92,0.78-5.61-4.43-8.63-4.46
			c-9.97-0.07-10.18,21.05,0.64,21.75c3.56,0.24,3.89-1.76,1.98-1.9c-3.63-0.23-5.3-2.56-5.62-5.87c-0.48-4.87,0.94-7.1,5.8-7.58
			c5.78-0.57,15.38-2.83,16.14,4.89C180.87,100.65,175.72,111.57,163.78,112.75z"/>
		<path fill="#FFFFFF" d="M192.37,122.74c-5.44-0.67-8.2-3.31-7.51-8.87c0.73-5.89,2.4-10.94,3.12-16.83
			c0.59-4.79,1.26-14.38,1.2-19.18c-0.06-4.34-1.27-12.05,9.34-10.74c9.9,1.22,6.99,4.61,5.59,12.25
			c-0.83,4.56-1.54,13.95-1.9,18.51c-0.49,6.11,0.22,11.59-0.53,17.67C200.89,121.88,198.45,123.49,192.37,122.74z"/>
		<path fill="#FFFFFF" d="M233.61,105.89c-8.52,0.82-24.23,1.93-23.73-9.93c0.23-5.54,1.34-14.58,1.57-20.12
			c0.24-5.86-0.74-10.54-0.51-16.01c0.2-4.82,0.82-8.78,7.68-8.82c9.53-0.06,8.97,3.96,8.72,10.02c-0.2,4.82-1.54,8.75-2.26,13.48
			c-0.28,1.95-1.84,15.67-0.11,16.46c2.75,1.29,6.16-3.72,10.39-3.55c5.41,0.22,7.01,4.08,6.82,8.57
			C241.96,101.34,239.51,105.29,233.61,105.89z"/>
		<path fill="#FFFFFF" d="M261.62,134c-9.81-2.16-24.96-2.56-21.93-16.31c0.83-3.76,2.97-10.94,3.8-14.69
			c1.39-6.3,1.71-12.58,3.1-18.88c2.73-12.35,17.51-5.22,25.88-2.9c3.65,1.01,3.13,3.96,2.5,6.83c-0.73,3.31-2.31,8.37-6.9,7.36
			c-1.66-0.37-3.2-1.24-4.92-1.62c-3.31-0.73-5.07,0.88-3.96,2.8c0.87,1.53,2.6,0.91,5.48,1.48c4.61,0.88,4.89,2.95,4.17,6.2
			c-0.72,3.25-0.97,6.53-7.42,5.17c-1.34-0.3-3.74-0.89-4.71,0.16c-6.07,8.1,12.08,10.31,13.23,10.56c3.12,0.69,2.71,3.47,2.22,5.7
			C270.99,131.19,267.93,135.39,261.62,134z"/>
		<path fill="#FFFFFF" d="M77.6,178.24c-8.56,0.04-24.3-0.29-22.73-12.05c0.73-5.49,2.26-9.04,3-14.53
			c0.78-5.82,1.02-17.12,1.75-22.55c0.64-4.78,1.62-8.66,8.45-8.08c9.5,0.81,8.57,4.76,7.77,10.78c-0.64,4.78-3.13,15.13-4.27,19.78
			c-0.45,1.91-2.86,10.08-1.21,11.02c2.62,1.53,6.47-3.15,10.67-2.59c5.36,0.72,6.61,4.7,6.01,9.16
			C86.33,174.47,83.53,178.18,77.6,178.24z"/>
		<path fill="#FFFFFF" d="M99.74,180.72c-5.48,0-8.54-2.28-8.54-7.89c0-5.93,1.79-14.17,1.79-20.11c0-4.83,0.26-8.15-0.39-12.91
			c-0.59-4.3-2.74-11.8,7.95-11.8c9.98,0,7.5,3.72,7.04,11.48c-0.26,4.63-0.59,7.76-0.39,12.32c0.26,6.13,0.88,14.5,0.88,20.63
			C108.08,178.83,105.87,180.72,99.74,180.72z"/>
		<path fill="#FFFFFF" d="M138.54,171.4c-1.08-2.57-2.51-5.29-4.9-9.61c1.15,10.11,4.41,21.49-4.21,22.41
			c-6.94,0.73-8.44,0.83-9.53-7.58c-0.65-5.11-1.02-17.02-1.6-22.14c-0.69-6.09-1.83-10.29-2.72-16.36
			c-1.2-8.26,1.41-8.95,8.03-9.58c7.85-0.76,6.73,5.53,7.85,13.02c2.07-4.3,6.74-13.43,12.18-14.06c5.77-0.66,11.72,7.26,7.16,12.11
			c-2.87,3.02-6.01,7.18-12.81,11.96c4.11,2.09,16.05,7.23,16.93,14.93C155.75,173.84,142.48,180.67,138.54,171.4z"/>
		<path fill="#FFFFFF" d="M181.31,177.19c-9.89-1.71-24.7-0.2-22.3-14.08c0.66-3.79,2.16-6.77,2.82-10.56
			c1.1-6.36,1.13-12.64,2.23-19c2.16-12.46,24.02-5.23,32.49-3.3c3.69,0.84,3.31,3.82,2.81,6.71c-0.58,3.34-1.93,8.47-6.56,7.67
			c-1.67-0.29-10.02-1.87-11.76-2.17c-3.34-0.58-5.02,1.12-3.82,2.98c0.93,1.49,2.64,0.79,5.54,1.23c4.65,0.67,5.02,2.72,4.45,6
			c-0.57,3.28-0.67,6.57-7.17,5.51c-1.35-0.23-3.78-0.72-4.7,0.38c-3.52,4.29,12.49,4.24,13.64,4.44c3.15,0.55,2.86,3.34,2.47,5.59
			C190.54,173.95,187.67,178.29,181.31,177.19z"/>
		<path fill="#FFFFFF" d="M243.36,186.25c-1.33,0.75-6.57,1.1-8.25,0.85c-6.24-1.03-8.29-3.93-7.32-9.85
			c0.57-3.41-1.45-12.53-3.96-12.93c-3.09-0.51-3.74,4.08-5.21,7.32c-1.91,4.22-6.78,4.71-11.16,4.03c-3.34-0.56-7.57-2.8-6.9-6.79
			c0.85-5.28,7.04-13.61,10.19-18.07c3.5-4.92,5.35-10.61,8.49-15.73c1.15-1.91,2.61-3.69,4.56-4.92c2.17-1.32,5.24-1.81,7.69-1.42
			c3.54,0.59,7.05,3.43,8.21,6.83c1.53,4.26,0.91,8.99,1.15,13.41c0.15,3.81,2.65,14.61,3.55,18.36
			C245.48,171.99,249.02,182.93,243.36,186.25z M223.75,150.52c0.37,1.2,5.54,2.29,5.61,0.84
			C229.62,140.67,222.95,148.05,223.75,150.52z"/>
		<path fill="#FFFFFF" d="M87.91,231.54c-10.7,2.11-13.76-2.07-15.6-11.4c-1.04-5.26-0.67-10.67-1.72-15.99
			c-2.07-10.52-7.23-17.14,9.39-20.42c7.95-1.57,17.95,0.63,19.75,9.77c0.81,4.12-1.48,7.93-3.99,10.97
			c4.93,0.15,9.23,1.78,10.28,7.1C108.13,222.28,97.23,229.7,87.91,231.54z M81.7,193.39c0.41,2.09,1.34,6.19,1.58,7.39
			C86.21,200.52,87.61,193.16,81.7,193.39z M85.82,212.76c0.47,2.7,0.99,5.33,1.52,8.02C94.21,217.82,89.39,210.38,85.82,212.76z"/>
		<path fill="#FFFFFF" d="M128.51,243.39c-29.61,0-22.65-52.35-2.12-52.96C154.6,189.57,152.39,243.39,128.51,243.39z
			 M125.17,213.21c0.85,5.79,7.92,3.78,7.07-3.47C131.38,202.67,123.77,203.95,125.17,213.21z"/>
		<path fill="#FFFFFF" d="M185.9,233.49c-4.12-0.43-7.56-0.91-7.07-5.69c0.26-2.54,1.39-9.9,1.65-12.44
			c0.17-1.64,1.87-13.34,1.92-14.99c-3.26,9.03-5,18.65-8.1,19.68c-0.95,0.33-2.1,0.21-3.07,0.11c-4.3-0.45-4.14-6.13-6.77-20.92
			c0.06,3.56,0.21,20.91-0.16,24.49c-0.62,5.94-0.81,7.21-7.43,6.7c-5.9-0.43-7.22-1.85-6.55-8.28c0.45-4.36,1.72-14.22,2.18-18.64
			c0.99-9.57-1.29-24.76,9.33-23.78c11.89,1.11,9.99,3.49,12.19,17.74c3.7-13.21,5.88-15.93,15.21-14.96
			c12.54,1.3,7.02,12.61,6.12,21.34c-0.62,6-1.43,17.36-2.04,23.3C192.79,232.06,191.6,234.08,185.9,233.49z"/>
		<path fill="#FFFFFF" d="M205.38,242.35c-10.77-1.7-12.21-6.67-10.73-16.06c0.83-5.3,3.03-10.25,3.88-15.61
			c1.67-10.59-0.9-18.58,15.83-15.95c8,1.26,16.64,6.75,15.19,15.96c-0.65,4.15-4.11,6.94-7.51,8.93c4.58,1.83,8.06,4.85,7.21,10.2
			C227.55,240.6,214.77,243.83,205.38,242.35z M212.65,204.4c-0.33,2.11-0.86,6.28-1.05,7.48
			C214.44,212.63,218.28,206.21,212.65,204.4z M209.87,224c-0.49,2.7-0.9,5.35-1.33,8.06C216.01,231.63,214.04,222.99,209.87,224z"
			/>
	</g>
</g>
</svg>
