<?xml version="1.0" encoding="utf-8"?>
<!-- Generator: Adobe Illustrator 24.2.1, SVG Export Plug-In . SVG Version: 6.00 Build 0)  -->
<svg version="1.1" id="Layer_1" xmlns="http://www.w3.org/2000/svg" xmlns:xlink="http://www.w3.org/1999/xlink" x="0px" y="0px"
	 viewBox="0 0 300 300" style="enable-background:new 0 0 300 300;" xml:space="preserve">
<style type="text/css">
	.st0{fill:#231F20;}
	.st1{fill:#F69C7C;}
	.st2{fill:#CC87B9;}
	.st3{fill:#91D3CB;}
</style>
<g>
	<g>
		<path class="st0" d="M57.1,100.9c1.1,1.7,2.1,3,3.4,4c2.1,1.7,4.2,2.5,6.7,2.5c1.2,0,2.5-0.2,3.9-0.6c1.8-0.7,3.5-1.7,5.3-3
			c2.9-2.1,5.4-4.5,8.3-7.5c2.9-3,5.8-6.4,8.8-10.3c0.7-0.8,1.5-1.6,2.3-2.5c1.4-1.5,2.8-3.1,4.3-4.6c0.1-0.1,0.1-0.1,0.2-0.2
			c0.1-0.1,0.2-0.3,0.4-0.3c0,0,0,0,0,0c0,0.2-0.1,0.4-0.1,0.6c-0.3,2.4-0.6,4.4-1.2,7c-2.7,14.2-3.1,28-3.2,39.9v2
			c0,3.4,0.2,6.1,0.6,8.7c0.2,0.9,0.4,1.9,0.7,2.8c0.1,0.5,0.3,0.9,0.4,1.4c0,0,0,0.1,0,0.1c0.2,0.5,0.7,0.8,1.3,0.9
			c0.5,0,0.9-0.3,1-0.9c0-0.5,0-1.1-0.1-1.6c-0.4-3.1-0.7-6.3-0.7-9.9c0-0.5,0-0.9,0-1.4c0-0.5,0-0.9,0-1.4l0.1-3.2
			c0.3-10,0.5-17.9,3.4-35.1l0.3-1.6c0.7-3.4,1.3-6.6,1.3-10.3c0.1,0,0.1,0,0.2,0c0.1,0,0.2,0,0.3,0c3.3-0.5,8-1,14.9-1.4
			c0.2,0,0.3,0,0.5-0.1c0.2-0.2,0.4-0.4,0.4-0.7l0-0.1c0.1-0.6-0.4-1.1-1-1.2l-8.9,0.1c-6.5,0-34.4,1.8-35.8,2.2
			c-0.3,0.1-0.6,0.3-0.6,0.9c0,0.3,0.1,0.6,0.2,0.9c0.3,0.5,0.8,0.8,1.3,0.8h0.2c1.4,0,2.8-0.1,4.2-0.1l0.4,0
			c1.3-0.1,4.2-0.2,7.3-0.3c3.7-0.1,7.5-0.3,9.1-0.4c0,0,0,0,0,0c-2.2,2.1-3.9,4.1-5.5,6.2c-2.8,3.4-5.7,6.5-9.6,10.5
			c-2.5,2.7-5.1,5-7.6,6.9c-1.4,1-3,2.1-4.9,2.8c-1,0.4-2,0.5-3.1,0.5c-1.7,0-3.1-0.6-4.4-1.9c-0.8-0.8-1.5-1.8-2-2.7
			c-1.5-2.8-2.1-5.6-2.5-8c-0.4-2-0.5-4.2-0.5-6.7c0-0.8,0-1.7,0.1-2.5c0.3-6,1.5-12.2,3.5-18.9c2.5-8,5.8-14.9,10.3-21.1
			c3-4.1,5.9-7.1,9.2-9.3c1.8-1.3,3.5-2.2,5.2-2.9c1.4-0.5,2.7-0.8,4-0.8c0.3,0,0.6,0,0.9,0.1c0.9,0.1,1.9,0.2,2.7,0.5
			c0.9,0.3,1.2,0.7,1.2,1.5c0,0.2,0,0.3-0.1,0.5c-0.1,0.3-0.1,0.7-0.1,0.9C94,32.5,94,32.8,94,33.1c0,0.2,0,0.4,0.1,0.6
			c0.1,0.5,0.5,0.9,0.8,1.1c0.5,0.3,1.2,0.3,1.5-0.1c0.2-0.2,0.4-0.4,0.5-0.7l0.2-0.4c0.1-0.3,0.3-0.6,0.3-0.9
			c0.3-0.6,0.3-1.2,0.3-1.8c0-2.4-1.7-4.4-4.6-5.4c-1.7-0.6-3.3-0.9-4.8-0.9c-0.8,0-1.6,0.1-2.4,0.2c-2.3,0.4-4.4,1.2-6.4,2.3
			c-2.2,1.2-4.3,2.7-6.4,4.7c-3.2,2.9-6.1,6.5-8.7,10.7c-4.4,7.3-7.5,15.2-9.6,24.1c-1.3,5.6-1.9,10.9-2,16.3
			c0,4.9,0.7,9.3,2.2,13.7C55.6,98.1,56.2,99.5,57.1,100.9z"/>
		<path class="st0" d="M128,103.2c0.7,0.9,1.7,1.5,2.6,1.5c0.4,0,0.7-0.1,1-0.2c4-2.5,8.1-16.7,10.6-26.2c0.3,2.2,0.7,4.1,1.8,6
			c0.9,1.5,2.2,2.3,3.8,2.3c1,0,2.1-0.4,2.9-1.2c2.6-2.5,5.7-12.7,10.1-28.1c-0.4,4.2-0.5,8.1-0.5,11.7c0,6.8,0.6,12.1,1.7,15.9
			c0.3,0.9,0.6,1.9,1.2,2.7c0.8,1.2,2,1.9,3.4,1.9c0.3,0,0.5,0,0.8-0.1c1-0.3,1.7-0.8,2.3-1.4c5.1-5.7,7.2-13.8,9.7-24
			c0.6-2.3,1.1-4.6,1.8-7c-0.4,6.4-0.7,15.9-0.7,24.3c0,3.1,0.1,6,0.1,8.2c0.1,3.2,0.3,7.3,1,11.5c0.4,1.7,0.9,3.4,1.6,5.1
			c0.1,0.3,0.2,0.6,0.4,0.8c0.3,0.2,0.6,0.4,1,0.4c0.4,0,0.8-0.4,0.8-0.8c0-0.4-0.1-0.9-0.1-1.2c-0.1-0.9-0.2-1.8-0.4-2.7
			c-0.3-1.9-0.5-3.8-0.7-5.7c-0.3-3.5-0.4-7-0.4-10.4c0-0.9,0-1.7,0-2.6c0.2-13.1,1-25.9,2.4-38.2l2.6-0.1l0.5,0
			c1.3-0.1,2.5-0.1,3.8-0.1c0.6,0,1.3,0,1.9,0c1.2-0.1,2.5-0.1,3.8-0.2c0.4,0,0.7-0.1,1-0.1c0.3,0,0.5-0.1,0.8-0.1
			c0.4-0.1,0.6-0.2,0.8-0.3l0.1-0.1c0,0,0.1,0,0.1-0.1c0.2-0.2,0.3-0.6,0.2-0.9c-0.1-0.5-0.4-0.9-0.9-0.9c-0.4-0.1-0.8-0.1-1.2-0.1
			c0,0,0,0,0,0c-1.9-0.1-3.7-0.1-5.5,0c-1.4,0-2.8,0.1-4.1,0c-1.2-0.1-2.5,0-3.5,0.1h0c0.1-1,0.2-2,0.4-3c0.6-3.4,1.2-5.4,2.5-8.7
			l0.9-2.7c0.1-0.5,0.2-0.9,0.2-1.4c0.1-0.6-0.2-1.1-1-1.7c-0.4-0.2-0.7-0.3-1-0.3c-0.2,0-0.5,0-0.7,0.2c-0.3,0.3-0.7,0.5-0.9,0.9
			c-0.4,0.7-0.7,1.5-1.1,2.2c-0.9,2.5-2.3,7.7-3.9,14.2l0,0.2h-7.4c-1.9,0-3.8,0-5.8-0.1c-0.3,0-0.6,0-0.9,0c-0.1,0-0.3,0-0.4,0
			c1.2-5.3,2.3-10.1,3.4-14c0.2-0.5,0.3-1.1,0.4-1.7c0-0.7-0.4-1.3-1-1.7c-0.6-0.5-1.5-0.6-2.2,0c-0.4,0.4-0.8,0.9-1,1.5
			c-1.3,2.9-2.6,7.2-3.7,12.4c-0.2,0.6-0.3,1.3-0.5,1.9c-0.1,0.5-0.3,1.1-0.4,1.6l-0.1,0c-2.5,0.1-5,0.4-7.6,0.7
			c-1.3,0.2-2.8,0.5-4.2,1c-0.4,0.1-0.8,0.3-1.2,0.5l-0.2,0.1c-0.5,0.3-0.9,0.7-0.9,1.1c-0.1,0.2-0.1,0.4-0.1,0.7c0,1,0.8,2,2.1,2.2
			c0.4,0.1,0.8-0.1,1.1-0.2c0,0,0.1,0,0.2-0.1c1.1-0.6,2.2-0.9,3.3-1.1c2.2-0.4,4.4-0.7,6.6-0.9l-0.2,0.7
			c-4.6,17-9.8,36.3-13.8,36.3c-1.2,0-1.9-2.1-1.9-5.9c0-3.8,0.7-8.1,1-9.8c0-0.2,0.1-0.3,0.1-0.5c0.1-0.3,0.1-0.6,0.1-0.9
			c0-0.9-0.5-1.7-1.2-2c-0.3-0.2-0.7-0.3-1.3-0.3c-0.4,0-1.2,0.1-1.5,0.5c-0.3,0.3-0.6,0.7-0.7,1.1c-0.2,0.5-0.4,1.1-0.5,1.7
			c-0.1,0.3-0.1,0.7-0.1,1.1c0,0.7,0.1,1.4,0.2,2.2c0,0.3,0.1,0.5,0.1,0.8c-0.3,0.7-0.6,1.5-0.9,2.5l-1.6,5
			c-2.3,7.3-5.8,18.4-8.3,20.8l-0.2,0.2c-0.1-0.1-0.2-0.3-0.2-0.4c0,0,0-0.1,0-0.1c-0.2-0.8-0.4-1.6-0.5-2.3
			c-0.1-0.9-0.2-1.9-0.3-2.8c-0.2-1.1-0.3-2.2-0.4-3.3c-0.2-2.3-0.4-4.5-0.5-6.7c-0.2-2.6-0.2-5.4-0.2-8.7c0-4.9,0.2-9.8,0.7-14.6
			c0.3-4.1,0.9-8.3,1.5-12.3l0.6-4.2c0.5-3.4,1-6.9,1.3-10.4c0.2-1.5,0.3-3,0.4-4.5l0-0.3c0.1-0.9-0.1-1.7-0.4-2.5
			c-0.1-0.5-0.4-1.1-1.6-1.4c-0.6-0.2-1.3,0.1-1.5,0.6c-0.5,0.6-0.7,1.4-0.9,2c-0.3,1.3-0.6,2.7-1,4.2c-0.1,0.4-0.1,0.8-0.2,1.1
			c-0.1,0.4-0.2,0.8-0.2,1.2c-1.3,8.4-1.8,17.2-2.4,25c-0.2,2.6-0.3,5.1-0.5,7.4c-0.1,0.8-0.1,2.7-0.1,5.1
			C124.2,74.9,124.3,95.8,128,103.2C127.9,103.2,127.9,103.2,128,103.2z M166,86.5c-0.1,0-0.1-0.1-0.2-0.2c-0.3-0.9-0.6-1.7-0.8-2.3
			c-0.4-1.6-0.5-5.5-0.6-8.4c0-1-0.1-1.8-0.1-2.4c-0.1-1.4-0.1-2.8-0.1-4.2c0-3.1,0.1-6.3,0.4-9.3c0.3-3.3,1-7.5,2.2-13.2
			c4.2-0.3,10.9-0.5,14.5-0.6c-3.7,14.4-9.3,35.7-14.1,40.1c-0.2,0.2-0.5,0.4-1,0.5C166.2,86.6,166.1,86.6,166,86.5z"/>
		<path class="st0" d="M144,60.5h0.3c0.3,0,0.5,0,0.6,0c0.1,0,0.2,0,0.2,0c0.1,0,0.2,0,0.3,0c1-0.1,1.6-0.6,1.6-1.4
			c0-0.1,0-0.2-0.1-0.3c0-0.8-0.8-1.6-1.5-2c-0.3-0.2-0.7-0.3-1.1-0.3c-0.5,0-1.1,0.3-1.4,0.8c-0.2,0.3-0.2,0.6-0.2,0.7
			c0,0.1-0.1,0.2-0.1,0.3c-0.1,0.2-0.2,0.5-0.2,0.8c0,0.2,0,0.5,0.2,0.7C143,60.2,143.5,60.5,144,60.5z"/>
		<path class="st0" d="M202.5,67.1c0-2.1-1.8-3.4-3.2-3.6c-0.8,0-1.5,0.2-2.2,0.5c-0.5,0.3-1.1,0.8-1.5,1.2c-0.5,0.5-0.9,1-1.3,1.6
			c-2.2,3-3.5,6.6-4.1,10.6c-0.1,0.8-0.2,1.6-0.2,2.5c0,0.7,0.1,1.5,0.2,2.3c0.1,0.3,0.2,0.5,0.2,0.8c0.1,0.3,0.2,0.6,0.3,0.9
			c0.6,1.2,1.4,2.1,2.7,2.4c0.8,0.2,1.5,0.3,2.3,0.1c0.8-0.2,1.6-0.4,2.4-0.8c6-3.1,11.8-8.8,15.8-15.6c0.4-0.7,0.7-1.1,0.9-1.3
			c0,0,0,0,0,0.1c0.1,1.6,0.1,3,0.1,4.3c0,3.4-0.3,5.8-0.6,7.9c-0.1,1.2-0.3,2.2-0.3,3.4c0.1,0.3,0.2,0.8,0.6,1.3c0,0,0,0,0,0
			c0.4,0.5,1,0.8,1.5,0.8c0.4,0,0.9-0.2,1.1-0.5c0.1-0.1,0.1-0.2,0.2-0.4c0-0.1,0.1-0.2,0.1-0.2c0,0,0-0.1,0-0.1
			c0.1-0.2,0.1-0.4,0.1-0.6c0-0.2,0.1-0.3,0.1-0.5c0.7-4.4,2.4-8.7,5-12.3c1.2-1.8,2.6-2.9,3.6-2.9c0.4,0,0.7,0.1,1,0.3
			c2.5,1.9,5.3,3.6,8.3,3.6c0.4,0,0.8-0.1,1.3-0.1c0.7-0.2,1.2-0.6,1.2-1.2c0-0.1,0-0.3-0.1-0.5c0-0.1-0.1-0.1-0.1-0.2
			c-0.4-0.3-0.9-0.3-1.4-0.1c-0.1,0-0.2,0.1-0.3,0.1c-0.1,0-0.3,0-0.5,0c-2,0-5.3-2.1-7.5-3.8c-0.6-0.5-1.3-0.7-2-0.7
			c-0.5,0-0.9,0.1-1.3,0.3c-2.6,0.9-4.9,4.2-5.7,5.6l-0.5,0.7c0-0.1,0-0.2,0-0.3c0.1-1.1,0.1-2.3,0.1-3.4c0.1-1.5-0.5-3.1-1.6-3.9
			c-0.7-0.6-1.5-0.8-2.2-0.5c-1,0.3-2.5,2.5-2.8,3c-0.3,0.5-0.6,1-0.9,1.4c-2.8,4.4-6,9.4-13.1,12.9l-0.7,0.3c-1.2,0.5-2.3,1-2.9,1
			c-0.4,0-0.6-0.1-0.8-0.5c-0.1-0.1-0.1-0.1-0.1-0.3c-0.1-0.9-0.1-1.6-0.1-2.3c0-2.2,0.3-4.1,0.6-4.7C199,73.6,202.5,70,202.5,67.1z
			 M198.7,67.4c0,1.1-2.4,3.4-3.7,4.1c0.4-1.1,2.2-3.8,3.3-4.3c0.1,0,0.2-0.1,0.2-0.1c0.1,0,0.1,0,0.1,0
			C198.7,67.2,198.7,67.3,198.7,67.4z"/>
		<path class="st0" d="M150.1,104.7c0.5,0,1-0.1,1.4-0.7c0.1-0.2,0.2-0.5,0.3-0.7c0.2-0.4,0.4-0.9,0.6-1.3c0.1-0.1,0.1-0.3,0.1-0.4
			c0.1-0.3,0-0.6-0.2-0.9l-0.1-0.2c-0.4-0.7-1.1-1.1-1.8-1.1c0,0,0,0,0,0c-0.6-0.1-1.1,0.2-1.5,0.7c-0.5,0.8-0.8,1.5-0.8,2.2
			c-0.1,0.5,0.1,1,0.5,1.5C149,104.3,149.5,104.6,150.1,104.7z"/>
		<path class="st0" d="M183.6,116.7c0.2-0.1,0.3-0.3,0.3-0.5c0-0.3,0-0.6-0.2-0.7c-0.2-0.3-0.4-0.5-0.8-0.6c-0.4-0.1-0.8,0-1.1,0.1
			c-1.6,0.5-3,1.1-4.2,1.8c-2,1.2-4.1,2.7-6.5,4.9l-0.8,0.7c-1-1.3-1.9-2.5-2.7-3.8c-0.2-0.3-0.4-0.7-0.6-1
			c-0.3-0.7-0.5-1.3-0.5-1.9c0-0.6,0.2-1.3,0.6-1.8c0.5-0.7,1-1.3,1.6-1.7c0.8-0.4,1.4-0.7,2.3-0.7l0.7,0c0.8-0.1,1.3-0.8,1.3-1.6
			c0-0.5-0.2-1-0.6-1.4c-0.5-0.6-1.1-0.9-1.7-1c-0.3-0.1-0.7-0.1-1-0.1c-0.7,0-1.3,0.1-1.9,0.3c-2.3,0.8-4,2.4-5,4.5
			c-0.2,0.5-0.6,1.4-0.6,2.3c0,0.2,0,0.3,0,0.5c-0.8,0.6-1.9,2.1-3.2,4c-2.4,3.4-5.6,7.9-8.4,8.4c0-0.1,0-0.3,0-0.5
			c0-1.3,0.4-4.2,1-8.1l0.4-2.9c0-0.4,0.1-0.7,0.1-1.1c0.1-1.1,0.3-2.2,0.3-3.3c0-0.2,0-0.4,0-0.6c0-0.1,0-0.3,0-0.4l-0.1-0.5
			c-0.3-1-1.3-1.9-2.2-1.9c-0.4,0-0.7,0.1-1,0.3c-0.4,0.2-0.7,0.5-0.9,0.9c-0.9,0.9-1,2.2-1,2.8c0,0.7,0.1,1.7,0.7,2.1l0.1,0.1
			c0,0.1,0,0.1,0,0.2c0,0,0,0.1,0,0.1c0,0.6-0.1,2.3-0.2,4c-0.1,1.7-0.2,3.5-0.2,4.2c0,1.7,0.1,3.3,0.2,4.6c0.1,0.5,0.2,1,0.5,1.6
			c0.4,0.7,1,1.1,1.7,1.1l0.2,0c4.1-0.4,8.1-5.1,12.6-12.1c0.1,0.4,0.3,0.7,0.5,1.1c0.8,1.5,1.7,2.8,2.6,3.9
			c0.3,0.3,0.5,0.6,0.7,0.9c0.2,0.3,0.5,0.6,0.7,0.9c0.1,0.2,0.1,0.2,0.1,0.3l0,0.1c-0.7,0.8-1.5,1.6-2.2,2.6
			c-0.9,1.1-1.8,2.4-2.6,3.6c-0.9,1.3-1.6,2.7-2,4.3c-0.3,1.1-0.4,2.1-0.3,3.1c0.1,1.6,1.3,3.7,3.6,4.7c0.8,0.3,1.6,0.5,2.6,0.5
			c1,0,1.8-0.1,2.7-0.4c2.5-1,4.4-2.7,5.6-5.1c0.6-1.1,0.8-2.3,0.8-3.8c0-1.6-0.5-3.5-1.4-5.4c-0.6-1.5-1.5-2.8-2.3-4
			c-0.2-0.3-0.2-0.5-0.2-0.5c0,0,0-0.1,0.2-0.3c0.8-0.8,1.7-1.6,2.6-2.3c1.2-1.1,2.5-2.1,4-3c1.3-0.8,2.6-1.4,3.8-1.9
			c0.3-0.1,0.6-0.3,0.8-0.4L183.6,116.7z M172.9,134.9c0,0.6-0.1,1.1-0.3,1.7c-0.8,2.3-2.4,3.8-4.9,4.7c-0.1,0.1-0.4,0.1-0.6,0.1
			c-0.1,0-0.3,0-0.4,0.1c-0.2,0-0.3,0-0.4,0.1c-0.7-0.1-1.1-0.1-1.6-0.4c-0.9-0.4-1.5-1.3-1.6-2.2c0-0.2,0-0.4,0-0.6
			c0-0.6,0.1-1.2,0.3-1.8c0.4-1.3,1-2.5,1.9-3.7c1.1-1.7,2.4-3.4,4-5.2c0,0,0.1-0.1,0.1-0.1c0.1-0.1,0.1-0.1,0.2-0.2
			c0,0.1,0.1,0.1,0.1,0.1c0.9,1.1,1.5,2.2,2.1,3.3C172.6,132.2,172.9,133.6,172.9,134.9z"/>
		<path class="st0" d="M266.4,107.1c-0.1,0-0.3,0-0.4,0.1c-1.3,0.5-2.2,1.3-4.1,2.9c-1.9,1.5-4.7,3.9-9.6,7.4
			c-0.1,0.1-0.2,0.2-0.3,0.3c-0.1,0-0.1,0.1-0.2,0.1c-0.1-0.7-0.1-1.7-0.1-2.8c0-1.2-0.1-2.5-0.1-3.8c-0.1-2-0.3-3.9-0.6-5.8
			c-0.1-0.4-0.2-0.8-0.3-1.2c-0.1-0.7-0.9-1-1.1-1c-0.3-0.1-0.6-0.2-0.8-0.1c-0.2,0.1-0.4,0.2-0.4,0.4l-0.2,0.3
			c-0.2,0.3-0.5,0.7-0.8,1l-0.1,0.2c-1.8,1.9-3.5,3.7-5.3,5.7l-2,2.1c-0.6,0.5-1.1,0.9-1.6,1.1c-0.2,0.1-0.3,0.1-0.5,0.2l-0.1,0
			c-0.1,0-0.3-0.1-0.4-0.3c0-0.2-0.1-0.5-0.1-0.8c-0.1-0.5-0.1-1-0.1-1.6c0-0.8,0.1-1.5,0.3-2c0.2-0.6,0.4-1.2,0.6-1.7
			c0,0,0-0.1,0-0.1c0.2-0.9-0.2-1.9-1.1-2.5c-0.1,0-0.2-0.1-0.2-0.1l-0.1,0c-0.3-0.2-0.5-0.2-0.8-0.2c-0.1,0-0.4,0-0.6,0.1
			c-0.6,0.3-1.1,0.7-1.3,1.3c0,0.3-0.1,0.5-0.2,0.8c-0.1,0.5-0.2,0.9-0.3,1.4c-0.1,0.6-0.1,1.4-0.1,2c-0.1,0.5-0.1,1.1-0.1,1.6v0
			c-0.7,1-1.3,2-2,3c-2.3,3.6-4.7,7.2-5.8,7.4c-0.1,0-0.2,0-0.2-0.1c-0.2-0.1-0.2-0.2-0.3-0.3c0-0.2,0-0.4-0.1-0.5
			c0-0.1,0-0.2,0-0.3c-0.3-3.9-0.9-6.5-1.7-7.8c-0.4-0.7-1-1-1.7-1c-1,0-2,0.8-2.7,1.6l-0.2,0.4c-0.5,0.8-1.1,1.6-1.6,2.5
			c-0.3,0.5-0.5,1-0.8,1.4c0-0.3,0-0.5,0-0.8c-0.1-1.2-0.2-2.3-0.2-3.5c0-0.8-0.1-1.6-0.1-2.4c0-0.3-0.1-0.5-0.1-0.8
			c-0.1-0.8-0.1-1.7-0.4-2.6c-0.1-0.2-0.1-0.4-0.2-0.6c-0.1-0.3-0.2-0.6-0.3-0.8c-0.8-1.6-2.2-2.2-3.2-2.2c-0.2,0-0.4,0-0.6,0.1
			c-0.9,0.1-1.6,0.6-2.2,1c-0.9,0.7-1.8,1.6-2.6,2.7c-1.2,1.6-2.1,3.3-3,5c0,0,0,0,0,0c0.3-2,0.6-4.1,0.9-6.2l0.2-1.1
			c0.2-1.7,0.5-3.5,1.1-5.2c0.2-0.5,0.3-0.9,0.3-1.3c0.2-0.6,0-1.1-0.1-1.4c-0.2-0.9-0.9-1.6-1.7-1.9c-0.3-0.1-0.6-0.2-1-0.2
			c-0.6,0-1,0.2-1.2,0.6c-0.3,0.4-0.6,0.8-0.8,1.4c-0.1,0.3-0.2,0.6-0.3,0.9c-0.1,0.4-0.2,0.8-0.3,1.3c-0.4,1.4-0.6,2.9-0.8,4.3
			l-0.1,0.8c-0.3,1.2-0.4,2.4-0.5,3.5c-0.1,1.2-0.2,2.5-0.3,3.7c-0.4,3.4-0.6,6.8-0.7,9.7c-0.1,0.7-0.1,1.5-0.1,2.2
			c0,0.7,0.2,1.3,0.4,2.1c0,0,0,0,0,0c0.5,1.2,1.8,1.9,2.8,1.9c0.8,0,1.3-0.3,1.7-0.7c0.3-0.4,0.5-0.8,0.7-1.2
			c0.4-1,0.7-1.8,0.8-2.6c0.4-1,0.7-2.1,0.9-3.1l0.1-0.4c0.5-1.9,1.3-4.4,2.3-6.7c0.6-1.4,1.3-2.8,2.3-4.1c0.3-0.4,0.6-0.7,0.9-1.1
			c0.2-0.2,0.4-0.5,0.6-0.7c0.2-0.2,0.4-0.3,0.6-0.4c0,0,0.1,0,0.2,0c0,0,0,0,0,0c0.4,0.8,0.6,1.6,0.7,2.2c0,0.6,0.1,1.2,0.1,1.8
			c0,0.6,0.1,1.2,0.1,1.8l0.2,5c0,0.5,0.1,1,0.1,1.6c0,0.2,0,0.5,0.1,0.7c0,0.6,0.3,1.2,0.8,1.7c0.3,0.3,0.7,0.6,1.1,0.6
			c0,0,0,0,0,0c0.4,0.1,0.9,0,1.2-0.3c0.3-0.2,0.5-0.5,0.8-0.8c0.3-0.6,0.7-1.2,1-1.8c0.2-0.4,0.4-0.7,0.6-1.1c0.5-1,1-1.8,1.7-2.7
			c0.1-0.1,0.2-0.2,0.3-0.3c0.2,0.5,0.3,1.6,0.5,2.7c0.2,1.3,0.4,2.7,0.7,3.9c0.2,0.5,0.5,1,0.9,1.6c0.5,0.7,1.2,1.1,1.9,1.1
			c2.6,0,5.4-4.4,8.3-9c0.1-0.2,0.3-0.5,0.4-0.7c0,0.1,0.1,0.2,0.1,0.3c0.8,1.4,2.2,2.2,3.7,2.2c1.4,0,2.4-0.7,3.1-1.2
			c0.5-0.4,1.2-1,1.7-1.6c0.3-0.4,0.7-0.8,1-1.2c0.4-0.4,0.7-0.9,1.1-1.3l3.1-3.6l0.1-0.1c0,0.7,0,1.4,0.1,2.2c0,1.5,0,3,0,4.5
			c0,1.5,0,3,0,4.5c0,0.6-0.2,0.8-0.5,1c-0.8,0.8-1.7,1.5-2.6,2.2c-2.8,2.2-6,5-9.2,8c-2.2,2.2-3.9,4.1-5.3,6.2
			c-1.5,2-2.8,4.2-3.8,6.6c-1.2,3.2-1.9,6-2.1,8.9c-0.1,0.6-0.1,1.2-0.1,1.9c0,0.8,0,2,0.4,3.2l0.1,0.3c0.1,0.4,0.2,0.7,0.3,1.1
			c0.5,1.6,1.4,3,2.7,4.2c1.7,1.7,3.8,2.6,6.1,2.6c1,0,2-0.2,2.9-0.6c0.9-0.4,1.7-1,2.5-1.6l0.4-0.3c1.8-1.6,3.3-3.6,4.9-6.3
			c1.9-3.2,3.3-6.8,4.2-10.7c1.5-5.9,2.5-12.3,2.8-19.1c0-0.9,0-1.8,0-2.6c0-0.9,0-1.8,0-2.7c0-0.6,0.2-1,0.6-1.2
			c0.7-0.5,1.4-1.1,2.2-1.7c0.6-0.4,1.1-0.9,1.7-1.3c2.7-2,8-6.3,11.1-9.2c0.1-0.2,0.2-0.4,0.2-0.7
			C267.6,107.5,266.9,107.1,266.4,107.1z M248.1,124.6c0.1,2.2-0.1,4.3-0.3,6.5c-0.4,4.6-0.9,9.5-2,14.4c-0.9,4.1-2.2,7.7-4.1,10.9
			c-1.3,2.1-2.4,3.6-3.8,4.8c-0.5,0.5-1.1,0.9-1.7,1.3c-0.5,0.3-1.1,0.5-1.8,0.7l-0.1,0c-0.3,0-0.5,0.1-0.8,0.1
			c-1.4,0-2.8-0.7-3.9-1.9l-0.2-0.3c-0.3-0.5-0.7-1-0.9-1.6c-0.2-0.4-0.3-0.9-0.5-1.2l0-0.1c-0.2-1.2-0.3-2.3-0.3-3.2
			c0-0.6,0.1-1.2,0.1-1.8c0.3-3.1,1.1-6.1,2.5-9c0.9-1.7,1.9-3.5,3.1-5.1c2-2.7,4.1-5.1,6.6-7.3
			C242.9,128.9,245.5,126.6,248.1,124.6C248,124.6,248,124.6,248.1,124.6z"/>
		<path class="st0" d="M78.3,184.7c0.3,0,0.6-0.1,0.9-0.1c0.8-0.3,1.5-0.6,1.9-0.9c0.5-0.3,0.8-0.7,1.2-1l0.4-0.4
			c1.3-1.3,2.5-2.9,3.7-4.8c1-1.5,2-3,2.9-4.5l0.7-1.2l0.3-0.3c0,0.1,0,0.2,0.1,0.3c0,0.2,0.1,0.3,0.1,0.4c0.1,1.1,0.4,2.3,0.6,3.4
			l0.2,0.8c0,0.2,0.1,0.4,0.1,0.6c0.1,0.4,0.2,0.7,0.2,1.1c0.3,1.3,0.8,2.5,1.3,3.7c0.2,0.6,0.5,1.1,0.8,1.5c0.7,1,1.9,1.5,3,1
			c0,0,0.1,0,0.1-0.1c0.1-0.1,0.2-0.1,0.3-0.2c0.1-0.1,0.3-0.2,0.4-0.3c0.4-0.4,0.7-0.7,1-1.1c0.7-1,1.3-1.9,1.9-2.9
			c1.3-2.1,2.4-4.2,3.6-6.3c0,0.8,0.1,1.6,0.2,2.5c0.1,1.7,0.3,3.2,0.7,4.8l0.4,1.4c0.1,0.7,0.5,1.3,0.9,1.9c0,0,0,0,0,0
			c0.8,1.2,1.9,1.9,3,1.9c0.2,0,0.5,0,0.7-0.1c0.5-0.1,0.9-0.3,1.1-0.5c0.5-0.3,0.8-0.8,1.1-1.3c0.4-0.6,0.7-1.3,1-2.3
			c0.1-0.3,0.2-0.6,0.3-1c0.2-0.8,0.5-1.5,0.6-2.3c0.3-1,0.6-2,0.9-3c0.3-1,0.6-2,0.9-3c0.7-2.3,1.6-4.6,2.5-6.7l0.3-0.4l0.5,1.2
			c0.5,0.9,1,1.7,1.5,2.3c0.8,1,1.7,1.6,2.8,1.9c0.5,0.2,1,0.3,1.4,0.3c1,0.2,2,0.3,3,0.4c0,0.3-0.1,0.7-0.1,1c0,2.1,1,4.2,2.7,5.9
			c0.4,3,2.7,6.4,5.3,6.4c0.3,0,0.5,0,0.7-0.1c0.7-0.1,1.3-0.4,1.9-0.8c1-0.6,1.9-1.6,2.6-2.9c0.1-0.1,0.1-0.3,0.2-0.4
			c0.1-0.3,0.3-0.5,0.3-0.8c0.1-0.4,0.3-0.5,0.8-0.7c3.7-1.4,7-4.6,10.4-10.1c0.4-0.7,0.7-1.1,0.9-1.3c0,0,0,0,0,0.1
			c0.1,1.6,0.1,3,0.1,4.3c0,3.4-0.3,5.8-0.6,7.9c-0.1,1.2-0.3,2.2-0.3,3.4c0.1,0.5,0.2,0.9,0.5,1.2c0,0,0,0,0,0
			c0.4,0.5,1,0.8,1.6,0.8c0.4,0,0.9-0.2,1.1-0.5c0.1-0.1,0.1-0.2,0.2-0.4c0-0.1,0.1-0.2,0.1-0.2c0,0,0-0.1,0-0.1
			c0.1-0.2,0.1-0.4,0.1-0.6c0-0.2,0.1-0.3,0.1-0.5c0.6-4,2.3-8.3,5-12.3c1.2-1.8,2.6-2.9,3.6-2.9c0.4,0,0.7,0.1,1,0.3
			c2.5,1.9,5.3,3.6,8.3,3.6c0.4,0,0.8-0.1,1.3-0.1c0.7-0.2,1.2-0.6,1.2-1.2c0-0.1,0-0.3-0.1-0.5c0-0.1-0.1-0.1-0.1-0.2
			c-0.4-0.3-0.9-0.3-1.4-0.1c-0.1,0-0.2,0.1-0.4,0.1c-0.1,0-0.3,0-0.5,0c-2.6,0-6.4-2.9-7.5-3.8c-0.6-0.5-1.3-0.7-2-0.7
			c-0.5,0-0.9,0.1-1.3,0.3c-1.7,0.6-3.6,2.4-5.7,5.6l-0.5,0.7c0-0.1,0-0.2,0-0.3c0.1-1.3,0.1-2.5,0.1-3.7c0-2.1-1.6-4.2-3.2-4.2
			c-0.2,0-0.4,0-0.6,0.1c-1,0.3-2.5,2.5-2.8,3c-2.7,4.2-4.9,7.6-8.4,9.5c0-0.2,0.1-0.4,0.2-0.7l0-0.2c0.1-1,0.2-2,0.2-3
			c0-0.7,0-1.4-0.1-2.1c-0.3-1.5-0.8-2.9-1.8-4.2c-0.3-0.4-0.7-0.9-1.1-1.3c-1.3-1.1-2.6-1.6-4.1-1.6c-1.4,0-2.7,0.4-3.8,1.2
			c-1.6,1.2-2.8,2.6-3.6,4.5c0,0,0,0.1,0,0.1c-0.5-0.1-0.9-0.1-1.4-0.2c-0.4,0-0.9-0.1-1.4-0.2c-0.2,0-0.5-0.1-0.7-0.1
			c-1.1-0.2-2-0.8-2.6-1.9c-0.3-0.5-0.5-0.9-0.6-1.3l-0.1-0.3c-0.2-0.6-0.5-1.1-0.6-1.7c0,0,0-0.1,0-0.1c-0.1-0.1-0.1-0.2-0.2-0.3
			c-0.1-0.2-0.2-0.4-0.4-0.7c-0.7-0.9-1.7-1.2-2.7-0.7c-0.4,0.3-0.8,0.6-1.1,1.2c-0.1,0.2-0.2,0.4-0.4,0.6c-0.3,0.5-0.6,1.1-0.9,1.6
			c-1.2,2.2-2.3,4.7-3.4,7.6c-0.2,0.6-0.4,1.2-0.6,1.9c-0.4,1.2-0.8,2.5-1.2,3.7c-0.2,0.7-0.5,1.5-0.9,2.4c0,0,0,0,0,0
			c-0.2-0.8-0.3-1.5-0.4-2.2c0-0.5-0.1-0.9-0.2-1.4c-0.1-1.4-0.2-2.6-0.2-3.9c0-2.5,0-5,0.1-7.5c0-0.4,0-0.8,0-1.2
			c0-0.4,0-0.8,0-1.2c0-0.1,0-0.3,0-0.4c0-0.1,0-0.2,0-0.2c0-0.1,0-0.1,0-0.1c-0.3-0.8-0.8-1.2-1.5-1.5c-0.5-0.2-1.3,0-1.7,0.5
			c0,0,0,0.1,0,0.1c0,0,0,0.1-0.1,0.2c-0.1,0.1-0.1,0.2-0.2,0.3c-0.1,0.3-0.2,0.6-0.2,0.9l0,0.2c0,0.4-0.1,0.8-0.1,1.2
			c-0.1,0.7-0.2,1.5-0.2,2.2c-0.1,1-0.1,1.9-0.1,2.9c-0.1,0-0.2,0.1-0.3,0.2c-0.1,0.1-0.1,0.1-0.2,0.2c-0.1,0.1-0.3,0.2-0.4,0.4
			c-0.4,0.5-0.8,1.1-1.1,1.6l-2.9,5l-2.6,4.1c-0.2,0.2-0.4,0.5-0.6,0.7c-0.1,0.1-0.2,0.2-0.2,0.2c-0.8-1.9-1.3-3.8-1.6-5.4
			c-0.1-0.5-0.1-1-0.2-1.4c-0.1-0.4-0.1-0.8-0.2-1.2l-0.4-2.1c-0.1-0.8-0.2-1.6-0.4-2.3c0-0.3-0.2-0.6-0.3-0.8
			c-0.4-0.8-1.3-1.4-2.1-1.4c-0.3,0-0.6,0.1-0.9,0.3c-0.4,0.3-0.7,0.6-1.1,1c0,0,0,0,0-0.1v-0.2c0,0,0-0.1,0-0.1
			c-0.2-0.6-0.3-1-0.3-1.4c0-0.5-0.2-1.1-0.5-1.5c-0.5-1-1.6-1.6-2.8-1.6c-0.5,0-0.9,0.1-1.5,0.4c-0.1,0.1-0.2,0.1-0.3,0.2
			c-0.2,0.2-0.5,0.3-0.8,0.5c-0.5,0.5-1.1,1.1-1.6,1.7c-0.9,1-1.6,2.1-2.4,3.3c-0.1,0-0.2,0.1-0.3,0.1c-1.2,0.6-2.4,1-3.6,1.4
			l-9.8,3.2c-1.4,0.5-2.6,0.9-3.7,1.2c-0.1,0-0.2,0.1-0.3,0.1c-0.1,0-0.2,0.1-0.3,0.1c0,0,0-0.1,0-0.3c0-0.1,0-0.2,0-0.4
			c0-0.4,0-0.7,0-1.1c0-0.2,0-0.4,0-0.6c0.2-5.5,0.6-10.8,1.1-15.7c0.7-6.3,1.7-12.6,3-18.6c0.1-0.1,0.1-0.3,0.2-0.4
			c0.2,0.4,0.5,0.7,0.8,0.9c0.4,0.3,0.8,0.4,1.3,0.4c0.3,0,0.6-0.1,0.8-0.2c0.6-0.3,1-0.8,1.1-1.4c0.2-0.6,0.4-1.2,0.5-1.8
			c0.5-2.3,0.8-4.6,1.1-6.9c0.1-0.7,0.2-1.4,0.2-2.1c0-0.6,0-1.4-0.3-2.2c-0.3-1-1.4-2-2.8-2c-0.6,0-1.1,0.2-1.6,0.6
			c-0.4,0.3-0.9,0.7-1.2,1.3c-0.2,0.3-0.3,0.7-0.5,1.1l-0.3,0.6c-0.5,1.2-1,2.5-1.4,3.8c-1.4,4.6-2.5,9.5-3.4,15.2
			c-0.6,4.1-1,8.4-1.3,12c-0.5,6.3-0.8,12-0.7,17.1l0,1.5c0,0.3-0.1,0.3-0.2,0.4c-0.1,0-0.2,0.1-0.3,0.1c-0.2,0.1-0.3,0.1-0.4,0.2
			c-1,0.4-2,0.7-3,1.1c-1.3,0.5-2.5,0.9-3.7,1.4c-0.2,0.1-0.4,0.1-0.5,0.2c-0.4,0.1-0.7,0.3-1.1,0.5c-0.3,0.1-0.5,0.3-0.8,0.6
			c-0.3,0.4-0.2,1,0,1.4c0.2,0.5,0.7,0.7,1.1,0.9c0.3,0.1,0.7,0.1,0.9,0.1c1,0,2,0.1,3,0.4c1.7,0.4,3.2,1,4.6,1.9
			c0.7,0.5,0.9,0.8,0.9,1.3c0,0.3,0.1,0.6,0.1,1c0,0.2,0.1,0.4,0.1,0.5c0.2,2.3,0.6,4.7,1.1,7.1c0.1,0.4,0.2,0.8,0.3,1.3
			c0.1,0.4,0.2,0.9,0.3,1.3c0,0.1,0.1,0.1,0.1,0.1l0.9,3.5c0.2,0.9,0.5,1.8,0.8,2.7c0.1,0.4,0.3,0.7,0.4,1.1c0.1,0.3,0.3,0.7,0.5,1
			c0.1,0.1,0.1,0.3,0.3,0.5l0.8,1c0,0,0,0,0,0c0.6,0.6,1.2,0.8,2,0.8c0.6,0,1.1-0.2,1.4-0.5c0.3-0.3,0.5-0.8,0.6-1.1
			c0.2-0.7,0.4-1.4,0.4-2.3c0-1.5-0.2-3-0.5-4.5c-0.5-2.7-1.2-5.2-2.1-7.5c-0.8-2.1-1.9-4.4-3.8-6.6c-0.4-0.4-0.6-0.9-0.6-1.4
			c-0.1-1.2-0.1-2.4-0.1-3.6c0-0.7,0-1.4-0.1-2c0,0,0-0.1,0.1-0.1c0.1,0,0.2-0.1,0.3-0.1c0.1,0,0.2-0.1,0.4-0.1
			c0.7-0.3,1.5-0.5,2.2-0.8c1.1-0.4,2.2-0.8,3.3-1.2c3.1-1.1,6.4-2.2,9.5-3.4c-0.2,0.5-0.5,1.1-0.7,1.6c-0.4,0.9-0.7,1.9-0.9,2.9
			c-0.2,1-0.2,2-0.2,3c0,0.6,0.2,1.2,0.6,1.9c0.6,1.1,1.6,1.8,2.8,2C77.8,184.7,78.1,184.7,78.3,184.7z M82.5,176.2
			c-0.6,1-1.5,1.9-2.6,2.9c-0.5,0.5-1,0.9-1.5,1.2h0c0.1-1.2,0.5-2.2,0.8-3.2c0.8-2.1,1.6-3.6,2.5-5c1-1.5,1.9-2.8,2.9-3.9l0.6-0.5
			c0.1,0.1,0.1,0.1,0.2,0.2c0.1,0.2,0.3,0.3,0.5,0.5c0.2,0.2,0.5,0.4,0.8,0.5c0.4,0.1,0.7,0.2,1,0.1L82.5,176.2z M134.9,180.1
			c0.3,0,0.7,0,1,0h0.3c-0.2,0.2-0.5,0.5-0.8,0.6c-0.1,0-0.2,0-0.2,0C135.1,180.6,135,180.3,134.9,180.1z M133,168.9
			c-0.3-0.1-0.5-0.2-0.8-0.2c-0.4,0-0.7,0.2-1,0.4c0,0-0.1,0-0.1,0c0,0,0,0-0.1,0c0.6-1.1,1.4-2.1,2.5-2.9c0.5-0.3,1-0.5,1.4-0.6
			c0.5-0.1,1-0.2,1.6,0.1c0.6,0.1,1.1,0.5,1.5,1c0.4,0.7,0.6,1.2,0.8,1.8c0.3,1.1,0.5,2,0.4,2.9c0,2.1-0.3,3.9-1,5.7
			c0,0.1-0.1,0.2-0.2,0.2c0,0,0,0,0,0c-0.7,0.2-1.6,0.3-2.4,0.3c-0.9,0-1.3-0.2-1.3-0.2c-0.3-2.1-0.3-3.7-0.2-4.8c0-0.3,0-0.5,0-0.8
			C134.1,170.5,134,169.5,133,168.9z M130.2,171.7c0-0.1,0-0.2,0.1-0.3c0,0,0,0,0.1,0c-0.1,0.3-0.1,0.6-0.1,0.9
			C130.1,172.2,130.1,171.9,130.2,171.7z M64.5,204.3C64.5,204.4,64.5,204.4,64.5,204.3c0,0-0.1-0.1-0.1-0.2l-0.3-0.8
			c-0.5-1.4-1-2.9-1.3-4.4c-0.1-0.4-0.2-0.8-0.3-1.3c-0.1-0.4-0.2-0.8-0.3-1.2l-0.9-4.8c0-0.2-0.1-0.4-0.1-0.6
			c0.1,0.2,0.2,0.5,0.3,0.7c0.1,0.2,0.2,0.4,0.3,0.6c0.4,0.9,0.8,2,1.1,3.2c0.5,1.5,0.9,3.2,1.3,5C64.4,201.8,64.6,203.1,64.5,204.3
			z M56.9,180.1c0.2,0.8,0.2,1.7,0.1,2.4c-1.1-0.6-2.1-1-3-1.3c0,0,0.1,0,0.1,0l2.6-0.9C56.7,180.1,56.8,180.1,56.9,180.1z"/>
		<path class="st0" d="M181.8,160.1c-0.4-0.2-0.8-0.3-1-0.3c-0.6,0-1.1,0.3-1.4,0.7c-0.3,0.3-0.3,0.7-0.3,0.7c0,0.1-0.1,0.2-0.1,0.3
			c-0.1,0.2-0.2,0.5-0.2,0.8c0,0.3,0.1,0.5,0.2,0.8c0.3,0.5,0.7,0.7,1.3,0.7h0.3c0.3,0,0.5,0,0.6,0c0.1,0,0.2,0,0.2,0
			c0.1,0,0.2,0,0.3,0c1-0.1,1.6-0.6,1.6-1.5l0-0.3C183.2,161.3,182.6,160.4,181.8,160.1z"/>
		<path class="st0" d="M217.7,151.3l0.1,0c0.3,0,0.6-0.1,0.8-0.2c0.3-0.1,0.6-0.4,0.6-0.8c0-0.1,0-0.3-0.1-0.5
			c-0.1-0.1-0.4-0.7-0.9-0.8c-0.7-0.2-1.4-0.4-2-0.4c0,0,0,0,0,0c-2.3-0.2-4.8-0.1-7,0.1c-0.9,0.1-1.9,0.1-2.8,0.2
			c-0.1,0-0.3,0-0.4,0c-0.1,0-0.2,0-0.3,0l0.1-1.2c0.3-3.1,0.7-6,1.4-8.7c0.4-1.6,0.8-3.2,1.2-4.7c0.4-1.6,0.8-3.2,1.2-4.7
			c0.1-0.2,0.1-0.6,0.1-1c0-0.2,0-0.4-0.1-0.6c-0.1-0.9-1-1.7-1.9-1.7c-0.3,0-0.5,0.1-0.8,0.3c-0.4,0.3-0.7,0.7-1,1.2
			c-0.9,1.6-1.4,3.4-1.8,5c-1,3.5-1.7,7.2-2.2,11.2c-0.2,1.6-0.7,3.1-1.3,4.5c-0.2,0.4-0.3,0.8-0.5,1.2c-0.3,0.1-0.5,0.1-0.7,0.1
			l-4.9,0.8c-2.6,0.4-5,1.1-7.2,1.9c-0.1,0-0.2,0.1-0.2,0.1c-0.3,0.1-0.6,0.3-0.8,0.6c-0.2,0.2-0.3,0.4-0.3,0.8
			c0,0.7,0.6,1.4,1.3,1.6c0.2,0.1,0.5,0.1,0.7,0.1c0.6,0,1.2-0.1,1.6-0.2l8.9-1.7c0.1,0,0.3,0,0.5,0l-0.1,0.2
			c-3.6,11.1-11,34.2-15.7,33.1c-0.9-0.2-1.4-2.3-1.4-5.7c0-3.5,0.5-7.8,1-9.9c0-0.1,0-0.3,0.1-0.4c0.1-0.3,0.1-0.6,0.1-0.9
			c0-0.9-0.5-1.7-1.2-2c-0.3-0.2-0.8-0.3-1.3-0.3c-0.4,0-1.2,0.1-1.5,0.5c-0.3,0.3-0.6,0.7-0.7,1.1c-0.2,0.6-0.4,1.1-0.4,1.7
			c-0.1,0.4-0.1,0.8-0.1,1.2c0,0.8,0.1,1.7,0.2,2.5c0.1,0.5,0.1,1,0.2,1.5l0.1,1c0.3,4.2,0.4,7.2,2.2,10.2c0.9,1.5,2.2,2.3,3.8,2.3
			c1,0,2.1-0.4,2.9-1.2c2.3-2.5,7.2-10.1,13.9-33.5c-0.1,2-0.2,5.2-0.3,8.2c-0.2,5.8-0.3,9.4-0.3,9.7c-0.1,2.5-0.1,5-0.1,7.5
			c0,6,0.2,11.1,0.5,15.9c0,0.8,0.1,1.7,0.2,2.5c0.1,0.5,0.1,1.1,0.2,1.6c0,0,0,0.1,0,0.1c0.2,0.8,0.4,1.8,1.1,2.6
			c0.2,0.3,0.6,0.5,0.9,0.5c0.4,0,0.9-0.2,1-0.6c0.1-0.3,0.1-0.6,0.1-0.9v-0.4c0-0.8-0.1-1.5-0.1-2.3c-0.1-1.5-0.2-2.8-0.2-4.3
			l0-0.2c-0.1-3-0.1-5.8-0.1-8.7c0-12.1,0.7-24.1,1.4-33.1c0-0.2,0.1-0.4,0.1-0.6c0-0.1,0-0.1,0-0.2c0.1,0,0.2,0,0.3-0.1
			c0.3-0.1,0.6-0.1,1-0.2c0.7-0.1,1.5-0.2,2.2-0.2c2.1-0.2,4.4-0.5,6.6-0.5C216.2,151.6,216.9,151.5,217.7,151.3z"/>
		<path class="st0" d="M237,174.7c-0.1,0-0.3,0-0.5,0.1c-0.1,0-0.1,0.1-0.2,0.1c-0.1,0.1-0.3,0.1-0.4,0.3l-1.9,1.7
			c-2.6,2.3-4.4,3.5-6.7,5c-1,0.6-2,1.3-3.3,2.2c-1.5,1-3,1.8-4.3,2.5c-0.3,0.1-0.7,0.3-1,0.4c-1.1,0.5-2.1,0.9-2.7,0.9
			c-0.4,0-0.6-0.1-0.8-0.5c-0.1-0.1-0.1-0.1-0.1-0.3c-0.1-0.9-0.1-1.6-0.1-2.3c0-2.2,0.3-4.1,0.6-4.7c4.9-2,8.4-5.6,8.4-8.5
			c0-2.1-1.8-3.4-3.2-3.6c-0.8,0-1.5,0.2-2.2,0.5c-0.5,0.3-1.1,0.8-1.5,1.2c-0.5,0.5-0.9,1-1.3,1.6c-2.2,3-3.5,6.6-4.1,10.6
			c-0.1,0.8-0.2,1.6-0.2,2.5c0,0.7,0.1,1.5,0.2,2.3c0.1,0.3,0.2,0.5,0.2,0.8c0.1,0.3,0.2,0.6,0.3,0.9c0.5,1.2,1.4,2.1,2.6,2.4
			c0,0,0,0,0,0c0.4,0.1,0.9,0.2,1.3,0.2c0.3,0,0.6,0,1-0.1c0.8-0.2,1.6-0.4,2.4-0.8l0.7-0.3c0.9-0.4,1.8-0.9,2.6-1.4
			c5.1-3.1,8-4.9,12.4-8.9c1-0.9,1.8-1.8,2.5-2.7c0.1-0.1,0.3-0.4,0.4-0.7c0.1-0.4-0.1-0.9-0.4-1.1
			C237.5,174.8,237.2,174.7,237,174.7z M216.7,175.9c0.5-1.1,2.3-3.9,3.4-4.3c0.1,0,0.1,0,0.2,0c0,0,0.1,0,0.1,0
			c0.1,0.1,0.1,0.2,0.1,0.3C220.4,172.9,218,175.2,216.7,175.9z"/>
		<path class="st0" d="M163,198c0.1-0.4,0.1-0.9,0.1-1.3c0-0.3,0-0.6-0.1-0.9c-0.1-0.8-0.5-1.5-1.3-2c-0.4-0.2-0.8-0.4-1.3-0.4
			c-0.3,0-0.7,0-1,0.3c-0.4,0.3-0.9,0.7-1.1,1.1l-0.2,0.3c-0.6,0.9-1.2,1.9-1.7,2.9c-1.9,4.2-3,8.6-3.7,12.3
			c-0.9,4.1-1.5,8.6-2,13.9c-0.1,0.7-0.1,1.4-0.5,2c-1.9,4.9-4.7,8.6-8.4,11.2c-1.3-3.5-3.9-7.3-8.8-7.3c-2.1-0.1-3.8,0.6-5,1.9
			c-1.7,1.6-2.5,3.7-2.5,6.1c0,2.2,0.6,4,1.9,5.4c-8.5,13-15.3,22-20.3,26.8c-6.5,6-12.8,11.4-17.6,11.4c-1.6,0-2.9-0.6-3.9-1.7
			c-2.1-2.3-3.7-5.4-5-9.6c-1.3-4.7-1.9-9.7-1.8-15.3c-0.1-10.3,1.3-20.5,4.1-30.3c1.9-6.9,4-12.6,6.5-17.5c1.7-3.3,3.4-5.9,5.2-8
			c1.2-1.4,2.3-2.4,3.4-3.1c0.8-0.6,1.7-1,2.7-1.2c0.3-0.1,0.6-0.1,0.8-0.1c1,0,1.7,0.6,2.3,1.8c0.6,1.2,0.8,2.5,0.9,3.7
			c0.3,2.1,0.4,4.3,0.5,7.2c0.1,2.8,0.2,5.6,0.3,8.4l0,0.3c0,0.6,0.1,1.2,0.5,1.8c0.5,0.6,1.2,1,1.9,1c0.6,0,1.2-0.4,1.4-1
			c0.1-0.3,0.1-0.6,0.1-0.8v-0.3c0-2.6-0.1-5.3-0.2-7.9c0-1.3-0.1-2.6-0.1-3.9c-0.1-2.6-0.3-5.2-1.2-7.9c-0.3-0.8-0.7-1.8-1.1-2.7
			c-1.4-2.3-3.5-3.6-5.9-3.6c-1.6,0-3,0.5-4,1c-1.3,0.7-2.4,1.6-3.2,2.3c-1.7,1.6-3.4,3.5-4.8,5.8c-2.3,3.4-4.2,7.4-6,12
			c-4.8,12.6-7.2,26.5-7.2,41.5v2.2c0.1,4.1,0.6,8.3,1.5,12.4c0.4,2.1,1.2,4.4,2.2,6.9c1.1,2.6,2.4,4.7,4.1,6.5
			c1.9,2.1,4.3,3.4,6.7,3.4c0.7,0,1.3-0.1,1.9-0.3c12.4-3.8,29.8-25.3,37.8-39.4c0,0,0,0,0.1,0.1c0,0.2,0,0.4,0,0.5
			c0,0.3,0,0.6,0,0.9c0,0.3,0,0.6,0,0.8c0,0.3,0,0.5,0,0.8c0.1,1.1,0.4,2.1,0.8,3c0.8,1.9,2.5,3.1,4.3,3.1c0.3,0,0.5,0,0.8-0.1
			c0.7-0.2,1.2-0.5,1.8-0.8c0.9-0.6,1.5-1.4,2.1-2.2l0.3-0.5c1.5-2.4,2.4-6,2.4-9.1c0-0.4,0-0.7,0-1.1c3.8-2.8,6-4.6,7.5-7.5
			c-0.1,6.6-0.2,13.7-0.3,20.1c-0.1,1.2-0.1,2.3-0.1,3.5c0,3.4,0.2,6.4,0.5,9.2l0.6,2.6c0.1,0.4,0.3,0.8,0.6,1.2
			c0.2,0.3,0.8,1.1,1.6,1.1c0,0,0.1,0,0.1,0c0.8-0.2,0.8-1,0.8-1.4c0-0.2,0-0.3-0.1-0.5c0-0.2,0-0.4-0.1-0.5c0-1.3-0.1-2.6-0.1-3.8
			c-0.1-1.7-0.2-3.4-0.2-5c0-6.3,0.3-12.6,0.7-18.3c0.2-2.9,0.4-5.7,0.6-8.6c0.2-2.9,0.4-5.7,0.6-8.6c0.1-0.7,0.2-1.4,0.4-2
			c2.7-6.8,5.1-13.9,6.9-21.2C162.6,200,162.8,199,163,198z M133.3,238.1c-0.4-0.2-0.9-0.3-1.3-0.3c-0.4,0-0.9,0.2-1.2,0.4
			c-0.1,0-0.1,0.1-0.2,0.2c0,0.1,0,0.1-0.1,0.2c0,0,0,0,0,0c-0.1,0.1-0.2,0.3-0.9,1.3c-0.2,0.2-0.3,0.5-0.5,0.7c0,0,0,0,0-0.1
			c-0.3-0.9-0.3-1.7-0.2-2.4c0.3-1.4,0.6-2.4,1.2-3.2c0.9-1.1,2-1.6,3.3-1.6c1.9,0,3.7,1.3,4.6,3.1c0,0,0,0,0,0
			c0.5,1.1,0.7,2.2,0.6,3.4c0,0.6-3,2.5-4.7,2.7c0-0.4,0-0.9,0.1-1.4c0.1-0.4,0.1-0.9,0.1-1.3C134.1,239.4,134,238.6,133.3,238.1z
			 M138.2,244.1c-0.5,1.8-1.2,3.8-2,4.7c-0.3,0.5-0.9,0.9-1.4,1.3l-0.2,0.2c0,0-0.2,0-0.3,0c0,0,0,0-0.1,0c-0.2-0.8-0.3-1.6-0.3-2.3
			c0-0.4,0-0.9,0.1-1.3c0-0.3,0-0.6,0.1-0.9c0.3-0.1,0.6-0.2,0.8-0.3C136,245.1,137.2,244.7,138.2,244.1z"/>
		<path class="st0" d="M206.7,238.5c-0.4-0.3-0.9-0.3-1.4-0.1c-0.1,0-0.2,0.1-0.3,0.1c-0.1,0-0.3,0-0.5,0c-2.6,0-6.4-2.9-7.5-3.8
			c-0.6-0.5-1.3-0.7-2-0.7c-0.5,0-0.9,0.1-1.3,0.3c-1.7,0.6-3.6,2.4-5.7,5.6l-0.5,0.7c0-0.1,0-0.2,0-0.3c0.1-1.3,0.1-2.5,0.1-3.7
			c0-2.1-1.6-4.2-3.2-4.2c-0.2,0-0.4,0-0.6,0.1c-1,0.3-2.5,2.5-2.8,3c-2.7,4.2-4.9,7.6-8.4,9.5c0-0.2,0.1-0.4,0.2-0.7l0-0.2
			c0.1-1,0.2-2,0.2-3c0-0.7,0-1.4-0.1-2.1c-0.2-1.5-0.8-2.9-1.8-4.2c-0.3-0.4-0.7-0.9-1.1-1.3c-1.3-1.1-2.6-1.6-4.1-1.6
			c-1.4,0-2.7,0.4-3.8,1.2c-1.6,1.2-2.8,2.6-3.6,4.5c-0.5,1.2-0.7,2.4-0.7,3.7c0,2.1,1,4.2,2.7,5.9c0.4,3,2.7,6.4,5.3,6.4
			c0.2,0,0.5,0,0.7-0.1c0.7-0.1,1.3-0.4,1.9-0.8c1-0.6,1.9-1.6,2.6-2.9c0.1-0.2,0.1-0.3,0.2-0.4c0.1-0.3,0.3-0.5,0.3-0.8
			c0.1-0.4,0.3-0.5,0.8-0.7c3.7-1.4,7-4.6,10.4-10.1c0.4-0.7,0.7-1.1,0.9-1.3c0,0,0,0,0,0.1c0.1,1.6,0.1,3,0.1,4.3
			c0,3.4-0.3,5.8-0.6,7.9c-0.1,1.2-0.3,2.2-0.3,3.4c0.1,0.5,0.2,0.9,0.5,1.2c0,0,0,0,0,0c0.4,0.5,1,0.8,1.6,0.8
			c0.4,0,0.9-0.2,1.1-0.5c0.1-0.1,0.1-0.2,0.2-0.4c0-0.1,0.1-0.2,0.1-0.2c0,0,0-0.1,0-0.1c0.1-0.2,0.1-0.4,0.1-0.6
			c0-0.2,0.1-0.3,0.1-0.5c0.6-4,2.3-8.3,5-12.3c1.2-1.8,2.6-2.9,3.6-2.9c0.4,0,0.7,0.1,1,0.3c2.5,1.9,5.3,3.6,8.3,3.6
			c0.4,0,0.8-0.1,1.3-0.1c0.7-0.2,1.2-0.6,1.2-1.2c0-0.1,0-0.3-0.1-0.5C206.9,238.6,206.8,238.6,206.7,238.5z M163.4,237.7
			c-0.3-0.1-0.5-0.2-0.8-0.2c-0.5,0-1,0.3-1.2,0.7c-0.4,0.5-0.7,1.8-0.8,3.1c0-0.2,0-0.5,0-0.7c0.3-2.4,1.4-4.2,3.4-5.6
			c0.5-0.3,1-0.5,1.5-0.6c0.5-0.1,1-0.2,1.6,0.1c0.6,0.1,1.1,0.5,1.5,1c0.4,0.7,0.6,1.2,0.8,1.8c0.3,1.1,0.5,2,0.4,2.9
			c0,2.1-0.3,3.9-1,5.7c0,0.1-0.1,0.2-0.2,0.2c0,0,0,0,0,0c-0.7,0.2-1.6,0.3-2.4,0.3c-0.9,0-1.3-0.2-1.3-0.2
			c-0.3-2.1-0.3-3.7-0.2-4.8c0-0.3,0-0.5,0-0.8C164.5,239.3,164.4,238.3,163.4,237.7z M166.6,248.9c-0.2,0.2-0.5,0.5-0.8,0.6
			c-0.1,0-0.2,0-0.2,0c-0.1-0.1-0.1-0.4-0.2-0.6c0.3,0,0.7,0,1,0H166.6z"/>
	</g>
	<path class="st1" d="M134.4,116.5c-0.1-0.1-0.3-0.3-0.4-0.4c-0.1-0.1-0.3-0.2-0.4-0.3c-0.1,0-0.3-0.1-0.4-0.1c0,0-0.1,0-0.1,0
		c-0.1,0-0.3,0-0.4,0c-0.1,0-0.3,0-0.4,0.1c-0.4,0.2-0.8,0.5-1.1,0.8c-0.2,0.2-0.4,0.4-0.6,0.6c-0.6,0.6-1.2,1.3-1.8,2
		c-0.8,0.9-1.5,1.9-2.1,2.9c-0.6,1.1-1.1,2.3-1.6,3.5c-0.4,1.2-0.7,2.4-1.1,3.6c-0.2-0.5-0.5-1.1-0.7-1.6c0-0.1-0.1-0.2-0.1-0.3
		c-0.2-0.5-0.3-1-0.5-1.6c-0.2-0.6-0.4-1.1-0.6-1.7c-0.8-2.1-1.8-4.1-2.9-6c-0.4-0.6-0.8-1.2-1.2-1.7c-0.4-0.5-0.8-1.1-1.3-1.5
		c-0.2-0.2-0.5-0.4-0.8-0.6c-0.1-0.1-0.3-0.2-0.5-0.2c-0.2-0.1-0.3-0.1-0.5-0.1c-0.3-0.1-0.6,0.1-0.9,0.2c-1.7,0.8-1.5,4.6-1.6,6.1
		c-0.2,2.4-0.1,4.9,0.2,7.3c0.6,4.8,2.1,9.4,4.6,13.5c2.2,3.4,5.1,6.4,8,9.3c2.1,2.1,3.3-3.3,3.9-4.7c1.9-4.4,3.8-8.8,5.1-13.5
		c0.6-2,1.1-4.2,1.4-6.3c0.3-2.5,0.3-5-0.4-7.4C135.1,117.6,134.9,117.1,134.4,116.5z"/>
	<path class="st2" d="M214.4,214c-5.1,0-5.1,7.9,0,7.9C219.5,221.9,219.5,214,214.4,214z"/>
	<path class="st3" d="M82.2,146c-5.1,0-5.1,7.9,0,7.9C87.2,153.9,87.3,146,82.2,146z"/>
	<path class="st3" d="M106.3,234.5c-5.1,0-5.1,7.9,0,7.9C111.4,242.4,111.4,234.5,106.3,234.5z"/>
	<path class="st2" d="M141.9,195.4c-5.1,0-5.1,7.9,0,7.9C146.9,203.3,147,195.4,141.9,195.4z"/>
	<path class="st2" d="M107.4,50.3c-5.1,0-5.1,7.9,0,7.9C112.5,58.2,112.5,50.3,107.4,50.3z"/>
	<path class="st2" d="M251,79.6c-5.1,0-5.1,7.9,0,7.9C256.1,87.5,256.1,79.6,251,79.6z"/>
	<path class="st3" d="M218.5,48.3c-3,0-3.1,4.7,0,4.7C221.6,53,221.6,48.3,218.5,48.3z"/>
	<path class="st3" d="M179.4,215c-3,0-3.1,4.7,0,4.7C182.5,219.8,182.5,215,179.4,215z"/>
	<path class="st3" d="M210.6,257.2c-3,0-3.1,4.7,0,4.7C213.7,261.9,213.7,257.2,210.6,257.2z"/>
	<path class="st2" d="M57.5,227.9c-3,0-3.1,4.7,0,4.7C60.5,232.6,60.5,227.9,57.5,227.9z"/>
	<path class="st2" d="M136.2,262.8c-3,0-3.1,4.7,0,4.7C139.3,267.5,139.3,262.8,136.2,262.8z"/>
	<path class="st3" d="M75.5,53.9c-3,0-3.1,4.7,0,4.7C78.5,58.7,78.5,53.9,75.5,53.9z"/>
	<path class="st2" d="M45.6,127.5c-3,0-3.1,4.7,0,4.7C48.7,132.3,48.7,127.5,45.6,127.5z"/>
	<path class="st2" d="M160.9,149.7c-3,0-3.1,4.7,0,4.7C164,154.4,164,149.7,160.9,149.7z"/>
	<path class="st3" d="M190.2,132.7c-3,0-3.1,4.7,0,4.7C193.3,137.4,193.3,132.7,190.2,132.7z"/>
	<path class="st2" d="M260.8,146.6c-3,0-3.1,4.7,0,4.7C263.8,151.3,263.8,146.6,260.8,146.6z"/>
</g>
</svg>
