<?xml version="1.0" encoding="utf-8"?>
<!-- Generator: Adobe Illustrator 28.0.0, SVG Export Plug-In . SVG Version: 6.00 Build 0)  -->
<svg version="1.1" id="Layer_1" xmlns="http://www.w3.org/2000/svg" xmlns:xlink="http://www.w3.org/1999/xlink" x="0px" y="0px"
	 viewBox="0 0 300 300" style="enable-background:new 0 0 300 300;" xml:space="preserve">
<style type="text/css">
	.st0{fill:#020202;}
	.st1{fill:#F9CDD2;}
	.st2{fill:#A4D5CA;}
</style>
<g>
	<path class="st0" d="M263.52,116.54c-1.47-0.7-1.88-1.78-1.94-3.23c-0.02-0.53-0.24-1.04-0.34-1.57c-0.45-2.33-0.83-4.69-0.29-7.05
		c0.6-2.62,0.43-5.25,0.23-7.88c-0.12-1.63-0.37-3.46-1.7-4.39c-1.81-1.27-2.28-2.97-2.81-4.88c-0.71-2.54-0.81-5.01-0.01-7.5
		c0.33-1.01,0.38-2-0.23-2.83c-1.35-1.82-2.08-3.94-3.12-5.91c-0.86-1.63-2.04-3.04-3.25-4.43c-0.62-0.71-1.39-1.4-2.34-1.47
		c-0.99-0.07-1.25-0.56-1.46-1.36c-0.63-2.35-1.8-4.33-4.17-5.25c-2.4-0.94-4.48-2.38-6.57-3.85c-1.65-1.15-3.26-2.4-4.96-3.41
		c-1.93-1.15-3.91-2.21-5.84-3.39c-1.52-0.94-3.53-1.13-5-2.37c-0.18-0.16-0.5-0.2-0.76-0.21c-1.4-0.09-2.57-0.7-3.63-1.56
		c-1.64-1.34-3.44-2.37-5.47-3.05c-3.01-1-5.95-2.17-8.61-3.97c-3.05-2.05-6.31-2.35-9.86-1.32c-2.66,0.78-5.43,0.92-8.2,0.14
		c-1.27-0.36-2.66-0.53-3.97-0.05c-0.99,0.36-1.89,0.33-2.86-0.03c-1.34-0.5-2.69-0.58-4.04,0.03c-3.83,1.72-7.75,3.2-11.77,4.4
		c-1.2,0.36-2.32,0.93-3.39,1.59c-0.54,0.33-1.26,0.73-1.22,1.34c0.1,1.94-1.44,2.16-2.62,2.82c-0.7,0.39-1.4,0.82-2,1.34
		c-1.78,1.57-3.14,3.34-2.48,5.95c0.07,0.3,0.17,0.65-0.36,0.62c-1.44-0.09-2.98,0.23-4.13-1.08c-0.35-0.39-0.82-0.72-1.29-0.95
		c-0.73-0.34-0.99-0.83-1.07-1.64c-0.3-3.06-1.82-5.02-4.57-5.58c-2.1-0.43-3.82-1.41-5.43-2.74c-1.52-1.25-3.04-2.55-4.94-3.16
		c-4.47-1.43-8.97-2.76-13.7-2.98c-1.02-0.05-1.76-0.49-2.35-1.32c-1.16-1.64-3.07-2.32-4.95-1.63c-1.54,0.57-3,1.09-4.64,0.36
		c-0.36-0.16-0.93-0.1-1.31,0.06c-2.56,1.12-5.25,1.2-7.98,1.31c-2.28,0.09-4.08,1.78-6.23,2.47c-1.81,0.58-3.54,1.04-5.49,0.66
		c-1.87-0.36-4.01-0.73-5.31,1.15c-0.8,1.15-1.71,1.38-2.87,1.35c-2.49-0.05-4.42,0.89-5.7,3.08c-1.18,2.03-2.96,3.44-4.92,4.65
		c-0.91,0.56-1.79,1.19-2.64,1.84c-1.52,1.16-1.95,2.68-1.37,4.52c0.39,1.25,1.21,2.16,2.2,2.97c0.28,0.23,0.87,0.39,0.67,0.84
		c-0.13,0.29-0.63,0.54-0.99,0.6c-2.03,0.34-3.6,1.51-5.15,2.74c-2.21,1.75-4.31,3.63-6.24,5.7c-1.32,1.41-2.3,3-2.49,4.94
		c-0.37,3.76-1.92,6.91-4.57,9.6c-1.83,1.87-2.42,4.27-2.18,6.81c0.17,1.82-0.05,3.57-0.53,5.3c-0.37,1.33-0.81,2.65-1.18,3.98
		c-0.94,3.41-0.99,6.74,1.17,9.76c1.17,1.64,2.43,3.21,3.72,4.75c1,1.2,1.05,1.39-0.37,2.2c-1.66,0.95-3.41,1.76-4.91,3
		c-1.43,1.19-1.86,2.31-1.35,4.14c0.33,1.17,0.8,2.28,1.41,3.32c1.17,2.01,2.35,4.01,3.57,5.99c1.76,2.85,3.59,5.65,4.53,8.93
		c0.74,2.59,0.83,4.87-0.81,7.34c-2.89,4.37-1.01,8.91,3.99,10.32c1.75,0.49,3.34,1.24,4.74,2.41c0.69,0.58,0.88,0.94,0.11,1.82
		c-2.87,3.27-3.07,6.16,0.37,8.66c0.51,0.37,1,0.75,1.53,1.09c2.35,1.5,4.29,3.51,6.49,5.19c0.61,0.46,0.42,0.78-0.02,1.24
		c-1.03,1.07-1.13,2.37-0.81,3.75c0.37,1.6,1.35,2.8,2.55,3.84c1.77,1.53,3.4,3.2,4.49,5.29c0.79,1.53,1.89,2.71,3.35,3.56
		c2.8,1.63,5,4.25,8.34,4.97c1.79,0.38,3.59,0.76,5.32,1.37c1.88,0.67,3.82,0.9,5.81,0.84c1.34-0.07,2.68-0.01,4,0.3
		c0.7,0.16,0.91,0.42,0.3,1.04c-1.01,1.02-1.96,2.16-2.06,3.66c-0.2,2.78,1.38,4.62,3.55,6.01c1.16,0.75,2.43,1.32,3.63,2.01
		c1.87,1.08,3.43,2.4,3.91,4.68c0.19,0.88,0.75,1.61,1.31,2.32c2,2.52,4.76,4.19,7.11,6.3c0.33,0.3,0.68,0.58,1.04,0.87
		c-0.06,0.53-0.11,1.05-0.18,1.58c-0.06,0.54-0.5,1.21-0.96,1.48c-1.14,0.68-2.39,1.17-3.6,1.72c-4.07,1.88-8.45,1.9-12.77,1.97
		c-2.83,0.05-4.61,1.26-5.9,3.66c-2.38,4.43-4.89,8.8-7.27,13.22c-0.28,0.53-0.42,1.45-0.14,1.88c0.28,0.43,1.15,0.6,1.78,0.65
		c0.56,0.05,1.15-0.23,1.73-0.33c3.69-0.63,7.36-1.55,11.08-1.8c6.11-0.41,11.56-2.78,16.89-5.34c3.35-1.61,6.45-3.72,9.59-5.76
		c1.21,1.02,2.45,2.02,3.7,2.99c1.64,1.28,3.14,2.81,5.29,3.34c4.77,1.16,9.45,1.02,14.13-0.56c3.4-1.15,6.67-2.86,10.28-3.17
		c0.59-0.05,1.17-0.14,1.74-0.25c-1.7,3.62-3.29,7.29-4.94,10.94c-0.4,0.89-0.68,1.88-0.75,2.84c-0.04,0.49,0.39,1.24,0.82,1.49
		c2.04,1.16,4.23,2.08,6.24,3.28c2.29,1.36,4.45,2.92,6.67,4.39c1.46,0.97,3.32,0.81,4.24-0.5c1.82-2.58,3.68-5.14,5.26-7.87
		c1.92-3.32,3.67-6.76,5.28-10.24c0.64-1.38,1.18-3.1,0.94-4.53c-0.69-4.07-1.42-8.2-2.79-12.07c3.03-1.63,5.85-3.58,8.23-6.14
		c1.49-1.6,3.17-2.94,2.84-5.66c-0.2-1.63,0.21-3.34-0.36-5.01c-0.17-0.5-0.38-1.15,0.19-1.62c2.18-1.79,4.36-3.58,6.81-4.98
		c3.52-2.02,7.29-3.57,10.59-6c3.94-2.9,4.88-4.41,3.51-8.89c-0.18-0.59-0.02-0.79,0.52-0.93c1.35-0.33,2.41-1.15,3.4-2.07
		c0.96-0.88,1.99-1.67,3.15-2.26c3.19-1.62,6.38-3.22,9.57-4.82c2.18-1.09,4.36-2.31,5.74-4.32c2.29-3.33,5.28-5.75,8.59-7.95
		c3.43-2.29,3.81-6.24,1.09-9.31c-0.35-0.39-0.4-0.6,0-0.93c2.26-1.89,4.29-4.04,6.54-5.95c3.71-3.15,6.36-7.08,7.71-11.81
		c0.16-0.57,0.27-1.14,0.73-1.55c0.95-0.84,1.47-1.93,1.7-3.13c0.32-1.62,0.55-3.26,0.72-4.9c0.28-2.68,0.66-5.3,1.96-7.74
		c0.99-1.85,1.75-3.81,2.05-5.92C264.96,118.47,264.8,117.15,263.52,116.54z M254,79.95c0.28-0.28,0.49-0.63,0.51-1.08
		c0.02-0.32-0.1-0.61-0.26-0.86c0.16,0.25,0.28,0.53,0.26,0.86C254.49,79.32,254.28,79.68,254,79.95z"/>
	<path class="st1" d="M140.93,71.3c2.89,1.16,5.86,1.9,8.98,1.97c0.49,0.02,0.98,0.07,1.48,0.06c3.37-0.11,6.55-0.6,9.04-3.28
		c1.3-1.4,2.88-2.56,4.54-3.54c0.5-0.29,0.66-0.56,0.53-1.16c-1.34-6.2-3.39-12.04-7.98-16.69c-1.53-1.55-1.45-1.63-3.4-0.53
		c-0.27,0.15-0.55,0.31-0.8,0.49c-2.39,1.73-2.79,3-1.73,5.74c0.92,2.38,1.73,4.79,2.42,7.25c0.66,2.33,1.07,4.71,0.93,7.15
		c-0.04,0.74-0.26,1.4-1.11,1.38c-0.8-0.01-1.03-0.68-1-1.34c0.17-3.62-1.01-6.96-2.13-10.31c-0.84-2.5-0.83-2.53-3.46-2.47
		c-1.54,0.03-2.92-0.31-4.06-1.42c-0.31-0.3-0.67-0.84-1.08-0.69c-0.55,0.19-0.21,0.87-0.32,1.31c-0.09,0.34-0.15,0.7-0.18,1.06
		c-0.23,2.31-0.94,4.62-0.66,6.92c0.28,2.26,0.05,4.37-0.8,6.43C139.76,70.58,140.06,70.95,140.93,71.3z M92.43,40.55
		c2.36,5.98,5.15,11.82,5.73,18.35c0.07,0.74,0.37,0.96,1.1,0.95c2.06-0.03,4.12-0.07,6.17,0.04c1.61,0.09,3.2,0.4,4.93,0.63
		c-0.86-1.94-1.55-3.78-2-5.69c-0.18-0.77-0.07-1.52,0.82-1.7c0.84-0.16,1.17,0.51,1.32,1.21c0.17,0.78,0.32,1.56,0.78,2.51
		c0.22-1.05,0.34-1.89,0.57-2.7c0.16-0.59,0.54-1.07,1.26-0.95c0.76,0.13,0.82,0.73,0.76,1.34c-0.04,0.4-0.13,0.79-0.19,1.19
		c-0.25,1.6-0.3,3.2-0.19,4.81c0.05,0.71,0.36,1,1.01,1.18c3.27,0.93,6.53,1.88,9.78,2.86c0.75,0.23,0.92-0.02,1-0.7
		c0.15-1.43,0.31-2.84,0.17-4.28c-0.06-0.63,0.13-1.19,0.88-1.28c0.73-0.09,1.04,0.41,1.21,1.01c0.07,0.25,0.1,0.53,0.09,0.8
		c-0.07,1.52,0.02,3.05-0.34,4.54c-0.15,0.61-0.01,0.92,0.58,1.1c3.09,0.95,5.97,2.39,8.92,3.68c0.6,0.26,0.94,0.29,1.17-0.45
		c0.56-1.75,1.23-3.46,0.68-5.36c-0.24-0.84-0.06-1.68,0.03-2.53c0.33-3.25,1.02-6.45,1.1-9.73c0.06-2.56-0.84-4.15-3.02-4.58
		c-2.57-0.51-4.62-1.81-6.56-3.44c-1.8-1.51-3.82-2.51-6.11-3.2c-3.79-1.14-7.63-1.89-11.55-2.27c-1.27-0.12-2.28-0.73-3.07-1.72
		c-1.19-1.49-1.74-1.65-3.56-0.91c-1.37,0.56-2.72,0.83-4.17,0.28c-0.55-0.21-1.15-0.24-1.71,0.03c-2.2,1.06-4.53,1.23-6.94,1.13
		c-1.92-0.08-2.07,0.2-1.4,1.96C91.91,39.31,92.18,39.92,92.43,40.55z M183.87,168.94c2.72,0.26,4.17,2.43,5.28,4.57
		c1.23,2.38,2.03,4.89,2.49,7.47c10.6-9.06,20.65-18.7,29.88-29.19c4.93-5.6,9.07-11.74,12.17-18.55
		c2.49-5.48,4.64-11.05,4.94-17.41c0.12-6.66-0.99-13.4-3.17-19.92c-1.33-3.98-2.82-7.93-5.36-11.36
		c-2.86-3.84-5.88-7.56-9.23-10.99c-4.16-4.26-9.12-7.13-14.94-8.53c-2.44-0.59-4.94-0.91-7.4-1.12c-5.86-0.5-11.74-1.2-17.64-0.01
		c-7.57,1.52-14.93,3.32-20.63,9.09c-1.32,1.34-3.01,2.16-5.08,2.38c-4.8,0.52-9.51,0.32-13.98-1.52
		c-7.06-2.9-13.95-6.25-21.39-8.18c-4.18-1.09-8.25-2.79-12.55-3.21c-7.74-0.75-15.44-0.39-22.94,2.08
		c-4.14,1.36-8.21,2.73-11.54,5.74c-3.02,2.73-5.51,5.84-7.52,9.37c-3.13,5.51-4.7,11.57-6.35,17.61
		c-2.07,7.55-2.94,15.16-1.37,22.94c1.17,5.77,3.55,11.04,6.28,16.19c6.91,13.07,14.8,25.43,25.71,35.61
		c3.62,3.38,7.24,6.77,10.72,10.28c0.24-2.12,0.58-4.24,0.96-6.34c0.3-1.66,0.88-3.39,1.8-4.78c0.7-1.05,2.03-1.92,3.26-2.33
		c4.4-1.46,8.77-0.91,13.02,0.79c4.39,1.76,8.84,3.41,13.11,5.43c2.46,1.16,4.62,2.97,6.94,4.44c0.42,0.27,1,0.44,1.49,0.43
		c3.48-0.09,6.97-0.23,10.45-0.37c0.51-0.02,1.13,0.05,1.52-0.2c7.85-5,16.55-7.9,25.49-10.13
		C180.08,168.79,182.03,168.76,183.87,168.94z M218.64,82.05c0.15-0.41,0.49-0.61,1.04-0.63c0.12,0.06,0.35,0.11,0.5,0.25
		c3.04,2.7,6.02,5.45,7.92,9.13c0.18,0.35,0.37,0.72,0.47,1.11c0.14,0.56,0.05,1.1-0.53,1.37c-0.61,0.27-1.21,0.11-1.48-0.5
		c-1.64-3.63-4.26-6.44-7.25-8.96C218.78,83.36,218.37,82.8,218.64,82.05z M197.1,67.24c5.51,0.81,10.67,2.55,15.22,5.86
		c0.73,0.53,1.35,1.18,1.78,1.98c0.28,0.52,0.26,1.04-0.23,1.45c-0.49,0.41-1.04,0.36-1.45-0.07c-4.19-4.43-9.71-5.96-15.41-7.1
		c-0.09-0.02-0.18-0.03-0.26-0.05c-0.66-0.16-1.38-0.27-1.3-1.21C195.51,67.4,196.03,67.13,197.1,67.24z M65.89,95.1
		c-0.6,1.73-1.12,3.58-1.41,5.48c-0.88,5.68-1.46,11.35,0.65,16.92c0.24,0.63,0.25,1.3-0.49,1.59c-0.74,0.3-1.33-0.07-1.65-0.75
		c-0.73-1.55-1.22-3.2-1.34-4.89c-0.42-6.06-0.01-12.06,1.85-17.89c0.14-0.42,0.29-0.85,0.51-1.23c0.27-0.48,0.71-0.67,1.26-0.49
		C65.84,94.02,65.97,94.46,65.89,95.1z M90.04,69.21c-3.83,1.62-7.59,3.39-11.01,5.8c-3,2.11-5.4,4.67-6.64,8.19
		c-0.25,0.72-0.6,1.36-1.51,1.18c-0.63-0.13-0.82-0.63-0.75-1.51c0.27-1.28,0.91-2.68,1.79-4c2.9-4.35,7.24-6.84,11.71-9.14
		c1.83-0.94,3.75-1.69,5.64-2.49c0.74-0.31,1.58-0.47,1.91,0.51C91.5,68.67,90.74,68.91,90.04,69.21z M163.45,52.78
		c1.71,3.6,3.31,7.24,3.91,11.23c0.13,0.86,0.28,1.22,1.32,0.8c1.78-0.72,3.65-1.19,5.48-1.77c2.56-0.82,5.21-1.25,7.86-1.64
		c0.38-0.06,1.08,0.14,0.99-0.7c-0.4-3.9,0.11-7.89-1.19-11.69c-0.19-0.56-0.06-1.11,0.54-1.35c0.6-0.24,1.05,0.08,1.36,0.57
		c0.43,0.69,0.56,1.5,0.72,2.29c0.44,2.16,0.37,4.37,0.65,6.66c0.9-1.26,1.66-2.41,2.51-3.51c0.93-1.21,2-2.3,3.22-3.21
		c0.55-0.41,1.18-0.51,1.67,0.11c0.45,0.56,0.23,1.11-0.19,1.57c-0.52,0.55-1.1,1.05-1.63,1.59c-1.97,2.04-3.55,4.33-4.63,7.09
		c5.99,0.33,11.77,0.33,17.47,1.36c0.53,0.1,0.81-0.08,1.13-0.45c1.13-1.32,2.65-2.11,4.19-2.82c0.71-0.32,1.56-0.5,2.18,0.03
		c1.13,0.96,2.09,0.43,3.02-0.19c3.4-2.23,6.78-4.49,10.15-6.77c1.12-0.76,1.07-1.18-0.12-1.84c-0.31-0.17-0.65-0.32-0.99-0.4
		c-1.5-0.34-3.13-0.34-4.19-1.75c-0.13-0.17-0.49-0.19-0.76-0.22c-1.57-0.16-2.89-0.86-4.11-1.82c-1.33-1.06-2.72-2.02-4.37-2.57
		c-3.44-1.15-6.81-2.46-9.84-4.51c-2.38-1.61-4.91-1.83-7.68-1.04c-3.04,0.87-6.17,0.96-9.27,0.12c-1.43-0.39-2.79-0.44-4.16,0.26
		c-0.87,0.45-1.78,0.45-2.69-0.06c-1.09-0.61-2.18-0.59-3.32,0.03c-0.93,0.51-1.94,0.92-2.96,1.24c-2.98,0.94-5.84,2.2-8.83,3.14
		c-3.48,1.09-3.68,2.28-1.24,5.03C161.08,49.21,162.52,50.81,163.45,52.78z M145.92,213.59c1.55-0.78,2.94-1.79,4.31-2.82
		c-1.88-4.76-2.88-9.81-3.41-15.14c-0.36,0.41-0.61,0.66-0.83,0.94c-3.24,4.23-6.46,8.47-9.71,12.7c-0.42,0.55-0.85,1.2-1.44,1.48
		c-2.85,1.38-2.46,3.93-2.35,6.34c0,0.11,0.01,0.22,0.02,0.33c3.33,2.04,7.1,3.24,11.52,3.18c2.42-0.04,4.61-0.77,6.58-2.29
		c0.79-0.61,1.54-1.25,2.28-1.91c-0.35-0.68-0.7-1.36-1.05-2.04c-0.26-0.51-0.5-1.04-0.74-1.56c-1.22,0.87-2.45,1.74-3.71,2.55
		c-0.3,0.19-0.61,0.35-0.88,0.5c-0.54-0.17-0.96-0.35-1.13-0.91C145.19,214.31,145.45,213.83,145.92,213.59z M118.1,202.63
		c1.22-1.89,2.87-3.46,4.85-4.78c0.53-0.35,1.06-0.71,1.41-0.94c-3.39,0.3-6.86,0.6-10.33,0.9
		C115.38,199.42,116.75,201.02,118.1,202.63z M225.94,73.56c-1.04,0.51-1.15,0.86-0.35,1.77c2.89,3.29,5.74,6.63,8.04,10.38
		c0.6,0.98,0.74,2.59,1.7,2.89c0.93,0.29,2.18-0.55,3.31-0.78c2.84-0.58,5.53-1.46,7.79-3.35c1.59-1.34,3.36-2.35,5.28-3.13
		c0.7-0.28,1.35-0.69,1.97-1.12c0.44-0.3,0.79-0.74,0.82-1.33c0.02-0.43-0.19-0.79-0.44-1.1c-0.98-1.25-1.62-2.65-2.2-4.12
		c-0.78-1.98-2.15-3.6-3.53-5.19c-0.5-0.58-1.1-1.09-1.95-0.44c-3.98,3.07-8.78,3.57-13.51,4.25
		C230.55,72.62,228.15,72.46,225.94,73.56z M164.12,198.05c-0.23-0.07-0.48-0.08-0.72-0.13c-0.14,0.12-0.27,0.25-0.41,0.37
		c0.56,0.52,1.28,0.95,1.66,1.58c0.74,1.22,1.5,2.43,2.25,3.64c1.47-1.33,2.88-2.71,4.28-4.11
		C168.82,199.21,166.47,198.75,164.12,198.05z M111.06,202.24c-0.54,0.34-1.09,0.53-1.57-0.01c-0.55-0.61-0.21-1.21,0.28-1.64
		c0.66-0.59,1.4-1.08,2.13-1.63c-0.25-0.3-0.5-0.6-0.75-0.9c-0.55,0.05-1.09,0.1-1.64,0.14c-2.28,0.19-4.34-0.48-6.29-1.46
		c-2.26,2.61-4.65,5.1-6.98,7.64c-2.05,2.23-1.95,3.53,0.74,5.9c0.29,0.26,0.69,0.4,1.04,0.6c1.06,0.58,2.15,1.1,3.16,1.75
		c1.7,1.08,3.52,2.2,4.1,4.25c0.81,2.86,2.79,4.71,4.96,6.47c1.04,0.84,2.13,1.63,3.19,2.46c0.44-4.03,0.86-8.07,1.38-12.09
		c0.31-2.38,0.86-4.75,1.5-7.08c0.17-0.63,0.4-1.23,0.64-1.81c-0.53-0.62-1.07-1.23-1.6-1.86
		C113.48,200.72,113.48,200.71,111.06,202.24z M213.45,61.49c-1.02,0.34-2.01,0.46-2.91-0.3c-0.44-0.38-0.89-0.31-1.37-0.08
		c-0.82,0.39-1.57,0.85-2.11,1.78c6.18,1.65,11.36,4.75,15.68,9.28c0.42,0.44,0.72,0.46,1.23,0.12c1.71-1.12,3.59-1.78,5.65-1.88
		c3.41-0.17,6.73-0.87,10.03-1.67c1.53-0.37,2.97-0.98,4.27-1.87c0.29-0.2,0.7-0.34,0.54-0.8c-0.67-2.02-1.05-4.24-3.38-5.18
		c-4.28-1.73-7.82-4.63-11.51-7.28c-1.51-1.09-2.1-1.21-3.57-0.06c-2.89,2.28-6.23,3.86-9.15,6.08
		C215.84,60.41,214.69,61.07,213.45,61.49z M187.86,215.51c-0.2-0.2-2,1.99-1.86,2.42c0.29,0.9,1.16,1.02,1.93,1.11
		c0.96,0.11,0.42-0.74,0.64-1.09C188.57,217.04,188.51,216.16,187.86,215.51z M205.99,188.48c-0.95-0.96-1.66-2.1-2.37-3.24
		c-1.41-2.28-2.92-4.5-4.02-6.96c-0.27-0.61-0.51-0.83-1.12-0.25c-2.08,1.99-4.27,3.86-6.48,5.71c0.1,1.21,0.13,2.43,0.09,3.65
		c-0.17,5.95-4.11,8.91-9.18,10.59c-1.32,0.44-2.64,0.75-3.97,1c0.04,2.44-0.27,4.92,0.63,7.29c0.2,0.54-0.04,1.1-0.65,1.3
		c-0.66,0.22-1.19-0.11-1.38-0.73c-0.48-1.57-1.12-3.11-0.75-4.84c0.19-0.9,0.15-1.8,0.05-2.72c-0.81,0.09-1.61,0.15-2.42,0.17
		c-2.06,2.06-4.13,4.11-6.29,6.06c1.05,1.74,2.04,3.5,2.87,5.33c2.76,6.11,5.31,12.32,7.64,18.61c3.15-1.75,6.03-3.88,8.45-6.65
		c1.08-1.24,1.12-1.2-0.49-1.67c-2.91-0.85-3.69-2.89-2.04-5.38c0.37-0.56,0.75-1.14,1.25-1.57c4.62-4.05,9.46-7.79,15.03-10.48
		c2.63-1.27,5.07-2.83,7.32-4.69c1.17-0.96,1.67-2.12,1.27-3.67C208.76,192.82,207.89,190.4,205.99,188.48z M153.99,218.55
		c-1.72,1.55-3.53,2.98-5.86,3.69c-0.75,0.23-0.61,0.83-0.56,1.32c0.32,3.57,0.93,7.11,2.27,10.44c1.11,2.77,2.58,5.41,2.52,8.61
		c1.33-0.38,2.55-0.68,3.79-0.71c1.28-0.04,2.49-0.26,3.63-0.62c0.52-1.05,1.03-2.1,1.58-3.14c1.49-2.8,1.25-4.66-0.44-7.31
		C158.4,226.87,156.16,222.73,153.99,218.55z M261.8,118.11c-1.55-0.99-3.2-1.57-5.06-1.47c-2.06,0.11-4.11-0.15-6.14-0.49
		c-2.39-0.4-4.57-1.58-7-1.83c-0.69-0.07-1.45-0.12-1.39-1.06c0.07-1.04,0.89-1.16,1.68-1.02c1.27,0.22,2.59,0.4,3.78,0.86
		c3.78,1.45,7.71,1.31,11.76,1.36c-0.13-0.63-0.25-1.19-0.36-1.75c-0.58-2.86-1.1-5.72-0.36-8.63c0.66-2.58,0.33-5.16,0.04-7.73
		c-0.31-2.71-2.09-3.93-4.76-3.64c-4.57,0.5-9.15,0.91-13.73,1.35c-0.54,0.05-1-0.11-1.16-0.68c-0.17-0.61,0.1-1.07,0.65-1.31
		c0.27-0.12,0.61-0.12,0.91-0.17c4.41-0.75,8.9-0.71,13.32-1.43c1.02-0.17,1.2-0.52,0.89-1.37c-0.64-1.78-1.03-3.6-0.93-5.51
		c0.04-0.76-0.4-0.51-0.77-0.35c-1.81,0.77-3.56,1.63-5.12,2.88c-1.89,1.52-3.94,2.79-6.35,3.35c-1.48,0.35-2.92,0.83-4.41,1.15
		c-0.97,0.21-1.25,0.53-0.78,1.52c1.26,2.68,2.1,5.52,2.63,8.43c0.24,1.31,0.94,1.83,2.16,1.89c0.98,0.05,1.97,0.07,2.95,0.17
		c0.67,0.06,1.27,0.37,1.25,1.14c-0.03,0.77-0.6,1.04-1.32,1.01c-0.94-0.03-1.9,0.04-2.81-0.15c-1.25-0.26-1.37,0.2-1.19,1.27
		c1.21,7.21,1.05,14.35-1.53,21.29c-0.33,0.89,0.03,0.93,0.73,0.95c1.65,0.05,3.31,0.13,4.86,0.83c0.64,0.29,1.28,0.66,0.93,1.5
		c-0.33,0.8-1.06,0.75-1.73,0.49c-1.01-0.4-2.06-0.57-3.38-0.65c0.64,0.77,1.15,1.32,1.59,1.93c0.4,0.56,0.51,1.19-0.13,1.66
		c-0.59,0.44-1.09,0.14-1.52-0.34c-0.66-0.73-1.32-1.46-1.96-2.2c-0.52-0.61-0.77-0.47-1.07,0.22c-2.51,5.81-5.46,11.36-9.37,16.36
		c-0.46,0.58-0.24,0.76,0.28,1.08c1.33,0.83,2.64,1.68,3.9,2.61c2.95,2.19,5.63,4.7,8.2,7.32c0.83,0.85,1.3,1.07,2.24-0.03
		c1.35-1.59,2.83-3.11,4.52-4.38c4.38-3.28,7.54-7.43,9.02-12.77c0.16-0.57,0.45-1.07,0.81-1.53c1.06-1.35,1.49-2.91,1.65-4.6
		c0.39-4.19,0.8-8.37,2.95-12.15c0.7-1.23,1.17-2.6,1.29-4.06C262.5,118.82,262.33,118.44,261.8,118.11z M85.92,60.81
		c0.13,0.43,0.22,0.77,0.79,0.61c2.81-0.8,5.68-1.2,8.59-1.34c0.72-0.04,0.91-0.38,0.8-1.04c-0.42-2.56-0.86-5.12-1.8-7.55
		c-1.62-4.16-3.17-8.35-4.97-12.45c-0.32-0.74-0.64-0.83-1.28-0.53c-1.22,0.56-2.44,1.1-3.76,1.39c-1.84,0.39-3.65,0.14-5.34-0.22
		c-0.78,0.02-1.58-0.12-1.97,0.5c-0.36,0.57,0.32,1.03,0.57,1.52C80.75,47.88,83.9,54.1,85.92,60.81z M145.32,224.37
		c-0.19-1.53-0.73-1.98-2.14-1.31c-1.02,0.49-1.95,0.43-2.95-0.01c-1.17-0.52-2.37-0.96-3.79-1.52c0.25,0.88,0.45,1.43,0.56,2
		c0.12,0.58-0.07,1.09-0.69,1.28c-0.61,0.19-1.04-0.13-1.3-0.67c-0.17-0.36-0.29-0.75-0.41-1.13c-0.35-1.17-1.04-2.01-1.94-2.74
		c0.17,3.32,0.34,6.64,0.53,9.95c0.18,3.06-1.25,5.33-3.53,7.13c-1.33,1.05-2.77,1.98-4.21,2.89c1.54,1.28,3.11,2.53,4.67,3.8
		c1.88,1.52,3.99,2.07,6.29,2.33c4.64,0.52,8.93-0.82,13.19-2.39c0.5-0.18,0.64-0.4,0.64-0.96c0.03-2.16-0.54-4.15-1.51-6.05
		C146.71,233.01,145.86,228.73,145.32,224.37z M241.18,162.95c-1.94-1.53-3.67-3.27-5.44-4.98c-2.71-2.61-5.55-5.06-8.78-7.02
		c-0.82-0.5-1.31-0.47-1.99,0.34c-3.09,3.65-6.18,7.31-9.62,10.65c-2.22,2.15-4.32,4.41-6.55,6.55c-0.84,0.81-0.69,1.09,0.3,1.48
		c1.08,0.43,2.09,1.01,3.12,1.54c0.66,0.33,1.39,0.72,0.98,1.61c-0.4,0.86-1.17,0.62-1.86,0.33c-1.1-0.46-2.09-1.19-3.38-1.51
		c0.05,1.44,0.11,2.81,0.15,4.18c0.02,0.75-0.24,1.42-1.07,1.43c-0.92,0.02-1.13-0.69-1.12-1.5c0.03-1.39-0.09-2.77-0.35-4.44
		c-1.48,1.38-2.75,2.62-4.1,3.79c-0.56,0.48-0.58,0.86-0.24,1.46c0.99,1.8,2,3.59,3.06,5.36c1.48,2.47,3.38,4.61,5.08,6.91
		c1.05,1.42,1.36,1.6,2.91,0.64c0.57-0.35,1.08-0.8,1.57-1.25c0.97-0.87,2-1.67,3.15-2.26c3.18-1.63,6.36-3.27,9.56-4.85
		c2.57-1.26,4.83-2.85,6.45-5.29c1.38-2.07,3.14-3.77,5.26-5.11c0.94-0.6,1.87-1.22,2.76-1.9
		C243.42,167.29,243.51,164.78,241.18,162.95z M97.22,199.97c1.4-1.48,2.82-2.92,4.18-4.43c-0.34-0.41-0.6-0.95-0.66-1.41
		c-0.37-2.77-0.85-5.58-0.75-8.36c0-0.12,0.02-0.24,0.02-0.35c-2.01-2.08-4.05-4.15-6.16-6.13c-1.43-1.34-1.81-1.31-3.03,0.3
		c-1.41,1.86-2.18,3.98-2.62,6.24c-0.17,0.85-0.41,1.72-1.49,1.41c-1.04-0.3-0.79-1.21-0.63-2.03c0.54-2.72,1.59-5.21,3.41-7.35
		c-0.08-0.07-0.16-0.15-0.24-0.22c-0.6,0.26-1.22,0.5-1.81,0.79c-0.68,0.34-1.42,0.65-1.85-0.22c-0.39-0.79,0.15-1.39,0.85-1.71
		c0.96-0.45,1.96-0.82,2.94-1.22c-0.02-0.1-0.01-0.2-0.06-0.25c-3.38-3.33-6.92-6.49-9.86-10.23c-0.36-0.46-0.6-0.3-0.96,0
		c-2.75,2.22-5.42,4.5-7.55,7.37c-1.84,2.47-3.85,4.8-6.67,6.31c-2.03,1.09-2.19,2.45-0.67,4.24c0.37,0.44,0.83,0.81,1.25,1.21
		c1.35,1.25,2.84,2.43,3.66,4.07c1.4,2.78,3.64,4.56,6.21,6.08c0.42,0.25,0.83,0.54,1.18,0.88c1.18,1.1,2.57,1.79,4.12,2.14
		c2.1,0.46,4.16,1.05,6.19,1.72c1.29,0.43,2.62,0.53,3.97,0.49c1.93-0.06,3.84,0,5.67,0.75C96.27,200.22,96.77,200.45,97.22,199.97z
		 M60.96,55.16c4.3,3.29,7.96,7.17,10.77,11.81c0.35,0.57,0.65,0.68,1.23,0.21c2.39-1.95,5.18-3.12,8.1-4.03
		c3.32-1.04,3.4-1.09,1.99-4.39c-2.05-4.8-4.19-9.56-6.59-14.2c-0.91-1.76-1.76-2.58-3.87-2.25c-1.89,0.29-3.41,0.74-4.4,2.5
		c-0.86,1.54-2.11,2.76-3.57,3.76c-1.36,0.94-2.74,1.85-4.1,2.79c-0.48,0.33-0.95,0.7-0.89,1.21C59.7,53.77,60.2,54.57,60.96,55.16z
		 M47.37,139.87c0.25-0.12,0.17-0.38,0.2-0.57c0.68-4.35,1.62-8.61,3.8-12.5c0.87-1.57,1.96-2.9,3.72-3.5
		c0.54-0.18,0.66-0.43,0.53-0.98c-1.05-4.52-1.39-9.1-1.09-13.72c0.05-0.74-0.24-0.87-0.85-0.63c-1.29,0.52-2.52,1.11-3.65,1.95
		c-3.79,2.8-6.61,6.82-11.09,8.74c-0.32,0.14-0.56,0.45-0.85,0.65c-0.62,0.42-0.71,0.94-0.48,1.63c0.44,1.32,1.09,2.54,1.75,3.76
		c2.66,4.99,6.37,9.44,7.8,15.07C47.17,139.81,47.29,139.83,47.37,139.87z M43.33,110.51c0.64,0.87,1.16,1.07,2.1,0.22
		c2.62-2.37,5.32-4.69,8.98-5.35c0.27-0.05,0.48-0.2,0.53-0.52c0.48-3.28,1.29-6.48,2.11-9.69c0.21-0.82-0.2-0.82-0.79-0.67
		c-1.05,0.26-2.04,0.67-2.88,1.37c-0.57,0.47-1.22,0.76-1.77,0.1c-0.61-0.74-0.12-1.36,0.49-1.81c0.7-0.52,1.47-0.95,2.23-1.44
		c-0.49-0.34-0.97-0.66-1.43-1.01c-0.54-0.43-0.86-0.98-0.41-1.62c0.47-0.67,1.1-0.45,1.67-0.1c1.18,0.72,2.34,1.46,3.69,2.31
		c0.86-2.85,1.67-5.59,2.73-8.25c0.21-0.53-0.07-0.72-0.41-0.96c-1.18-0.85-2.5-1.36-3.93-1.64c-1.23-0.24-2.44-0.6-3.5-1.29
		c-0.48-0.31-0.78-0.77-0.52-1.37c0.23-0.53,0.76-0.77,1.22-0.54c2.3,1.11,5.01,1.1,7.14,2.61c0.82,0.57,1.18,0.54,1.66-0.42
		c1.97-4,4.45-7.66,7.75-10.7c0.47-0.43,0.6-0.73,0.19-1.32c-2.09-3.02-4.23-5.99-7.01-8.45c-0.7-0.62-1.12-0.48-1.66,0.02
		c-0.45,0.41-0.77,1.03-1.5,1.02c-1.24-0.01-2.23,0.62-3.16,1.32c-2.65,2-5.15,4.15-7.37,6.63c-0.93,1.03-1.55,2.21-1.68,3.58
		c-0.38,4.04-2.02,7.47-4.86,10.35c-1.15,1.16-1.86,2.58-1.76,4.21c0.24,3.97-0.64,7.71-1.92,11.42c-0.94,2.74-0.8,5.48,1,7.93
		C41.25,107.82,42.32,109.14,43.33,110.51z M66.56,173.8c0.03-0.03,0.06-0.07,0.09-0.1c3.1-3.81,6.1-7.72,10.21-10.56
		c0.58-0.4,0.66-0.76,0.19-1.39c-1.57-2.12-3.09-4.27-4.56-6.46c-0.41-0.61-0.74-0.68-1.41-0.46c-2.17,0.71-4.05,1.85-5.71,3.39
		c-0.59,0.55-1.37,1.13-2.08,0.23c-0.64-0.81,0.02-1.36,0.63-1.89c1.76-1.55,3.66-2.86,5.94-3.54c0.63-0.19,0.94-0.35,0.43-1.05
		c-0.94-1.3-1.81-2.66-2.68-4.01c-0.27-0.42-0.51-0.55-0.95-0.22c-2.67,1.97-5.31,3.94-6.8,7.06c-1.52,3.18-2.98,6.4-5.68,8.84
		c-0.66,0.6-0.79,1.58-1.15,2.38c-0.01,0.91,0.44,1.55,1.11,2.05c2.62,1.95,5.18,3.96,7.63,6.11
		C64.08,176.23,64.43,176.17,66.56,173.8z M56.33,156.66c1.76-4.47,4.67-8,8.71-10.58c0.89-0.57,0.81-1,0.34-1.78
		c-0.83-1.37-1.55-2.81-2.3-4.24c-0.86-1.64-1.7-3.29-2.61-5.06c-0.76,0.98-1.39,1.83-2.08,2.64c-0.41,0.47-0.96,0.72-1.54,0.28
		c-0.57-0.43-0.51-1.03-0.18-1.56c0.39-0.64,0.86-1.22,1.3-1.82c-0.06-0.07-0.12-0.13-0.18-0.2c-0.76,0.36-1.52,0.73-2.28,1.08
		c-0.72,0.33-1.54,0.65-1.98-0.27c-0.41-0.85,0.31-1.28,0.98-1.62c1.15-0.59,2.29-1.22,3.47-1.75c0.63-0.28,0.75-0.55,0.46-1.19
		c-0.53-1.18-0.98-2.4-1.42-3.61c-0.66-1.81-1.33-1.95-2.64-0.46c-0.35,0.4-0.63,0.87-0.89,1.33c-1.5,2.72-2.61,5.6-3.02,8.68
		c-0.56,4.18-1.65,8.13-4.32,11.5c-0.22,0.28-0.39,0.6-0.54,0.93c-1.33,2.86-0.22,5.42,2.79,6.27c2.5,0.7,4.74,1.83,6.57,3.74
		C55.63,158.29,56.01,157.48,56.33,156.66z"/>
	<path class="st2" d="M188.34,191.51c-1.63,1.33-3.25,2.94-5.16,3.61c-8.33,2.91-16.46,2.79-23.99-2.51
		c-0.2-0.14-0.37-0.31-0.8-0.68c7.2,0.47,13.67-2.16,20.42-2.71c2.39-0.19,4.81-0.14,7.22-0.12c0.62,0,1.24,0.29,1.85,0.47
		C189.14,189.94,189.19,190.82,188.34,191.51z M124.9,237.64c1.36-0.88,2.65-1.89,3.89-2.94c1.58-1.35,2.04-3.1,1.91-5.18
		c-0.32-5.26-0.84-10.55-0.62-15.8c0.28-6.52,0.67-13.11,3.58-19.55c-3.12,1.93-5.91,3.69-8.74,5.39c-4.31,2.6-6.41,6.61-7.15,11.39
		c-0.55,3.61-0.72,7.27-1.23,10.89c-1.07,7.61-1.26,15.37-3.32,23.03c0.84-0.5,1.69-0.98,2.52-1.49
		C118.8,241.47,121.88,239.6,124.9,237.64z M98.62,249.88c-4.2,0.52-8.38,1.2-12.65,1.82c2.11-4,4.22-7.9,6.24-11.85
		c0.77-1.49,1.97-1.91,3.51-1.96c2.07-0.07,4.2,0.07,6.18-0.38c3.2-0.73,6.3-1.87,9.44-2.84c0.32-0.1,0.62-0.24,1.17-0.47
		c-0.4,3.97-1.12,7.66-2.6,11.16c-0.22,0.52-0.88,0.9-1.41,1.23C105.48,248.48,102.15,249.45,98.62,249.88z M137.22,189
		c-5.79,4.09-12.49,5.13-19.25,5.97c-2.93,0.36-5.89,0.47-8.83,0.68c-0.24,0.02-0.49-0.01-0.74-0.03c-4.32-0.39-5.5-1.42-5.89-5.7
		c-0.42-4.59-0.17-9.16,1.03-13.64c0.12-0.46,0.36-0.9,0.56-1.36c4.36,1.47,8.65,1.45,12.94,1.4c3.69-0.04,7.4-0.26,11.06,0.06
		c4.02,0.35,7.33,2.52,10.13,5.36C140.22,183.78,139.54,187.36,137.22,189z M154.09,183.1c-0.37-1.59,0.6-2.11,1.71-2.78
		c7.33-4.39,15.47-6.61,23.62-8.8c4.01-1.08,6.62,0.15,7.9,4.12c1.11,3.43,1.55,7.07,2.26,10.62c0.06,0.31-0.09,0.66-0.16,1.07
		c-5.65-2.08-11.17-0.64-16.69,0.29c-3.2,0.54-6.38,1.26-9.57,1.86c-2.18,0.41-4.39,0.36-6.35-0.71c-1.15-0.63-2.05-1.73-3-2.68
		c-0.16-0.16-0.03-0.64,0.02-0.96C153.91,184.45,154.23,183.72,154.09,183.1z M152.56,189.73c0.08-0.23,0.12-0.47,0.22-0.85
		c0.24,0.21,0.43,0.34,0.57,0.51c2.89,3.69,5.75,7.39,8.67,11.06c2.7,3.4,4.8,7.11,6.14,11.25c1.03,3.17,0.75,6.39,0.09,9.53
		c-0.66,3.12-1.74,6.15-2.67,9.2c-0.15,0.49-0.51,0.91-1.03,1.81c-2.07-3.65-3.95-6.89-5.75-10.17c-1.66-3.03-3.3-6.08-4.84-9.17
		c-2.75-5.49-4.14-11.38-4.79-17.46c-0.04-0.41,0.13-1.15,0.39-1.25C151.63,193.42,151.93,191.48,152.56,189.73z M141.52,187.55
		c0.07-1.75,0.31-3.5,0.52-5.72c2.67-0.01,5.51-0.05,8.34-0.02c1.15,0.01,1.57,0.74,1.27,1.81c-0.66,2.32-1.37,4.62-2.05,6.92
		c-0.36,1.21-1.26,1.56-2.3,1.17c-1.79-0.67-3.55-1.43-5.22-2.35C141.67,189.13,141.49,188.16,141.52,187.55z M139.43,190.84
		c1.87,0.98,3.72,1.95,5.89,3.1c-4.04,5.13-7.96,10.11-11.88,15.09c-0.14-0.1-0.29-0.21-0.43-0.31
		C133.16,201.69,135.32,193.45,139.43,190.84z M155.8,256.08c4.27-7.66,6.66-16.23,11.55-23.61c2-3.02,2.68-6.65,3.28-10.21
		c0.23-1.39,0.47-2.77,0.78-4.56c0.4,0.78,0.65,1.18,0.83,1.61c2.99,6.89,5.3,14.01,7.18,21.28c0.73,2.82,0.48,5.47-1.11,8.09
		c-1.73,2.85-2.97,6-4.63,8.89c-1.49,2.59-3.27,5.02-4.97,7.6c-2.44-1.53-4.58-2.92-6.77-4.23c-1.81-1.09-3.64-2.17-5.53-3.11
		C155.47,257.37,155.39,256.82,155.8,256.08z M105.5,172.41c2.15-2.82,10.07-2.31,15.57,0.91
		C117.94,174.51,107.81,173.96,105.5,172.41z"/>
	<g>
		<path class="st0" d="M107.17,104.69c0.21-0.58,0.4-1.54,0.58-2.52c0.08-0.48,0.5-0.61,0.98-0.61c0.27,0,0.5,0.03,0.74,0.08
			c0.56,0.13,1.25,0.42,1.14,1.11c-0.27,1.25-0.61,3.34-0.74,4.88c-0.11,1.22,0.13,2.18,0.74,2.84c0.35,0.37,0.98,0.8,2.04,0.8
			c1.69,0,2.89-1.19,3.75-2.68c0.52,1.53,1.67,2.65,3.54,2.65c1.79,0,3.42-0.86,4.74-2.52c0.23,1.33,0.92,2.46,2.55,2.55
			c1.71,0,2.91-0.91,3.79-2.17c0.29,1.16,1,2.1,2.47,2.17c1.67,0,2.86-0.88,3.73-2.09c0.14,0.52,0.37,1.01,0.73,1.43
			c0.42,0.45,1.17,1.01,2.44,1.01c0.61,0,1.17-0.16,1.7-0.53c0.11-0.05,0.19-0.11,0.27-0.11c0.13,0,0.21,0.16,0.16,0.61
			c-1.59,1.03-3.13,2.23-3.74,4.46c-0.37,1.41-0.11,2.26,0.16,2.73c0.4,0.58,0.93,0.85,1.62,0.85c2.36,0,3.16-3.18,3.4-5.02
			c0.21-1.75,0.37-1.91,0.85-2.28c0.98-0.61,2.04-1.3,2.97-2.23c1.27-1.3,2.39-3.69,2.92-5.57c0.13-0.5-0.19-0.98-0.64-1.11
			c-0.5-0.16-0.98,0.13-1.11,0.61c-0.61,2.28-1.99,4.48-3.26,5.52c-0.19,0.13-0.34,0.19-0.5,0.19c-0.32,0-0.53-0.27-0.4-0.8
			c0.24-1.46,0.5-2.76,0.74-3.87c0.88-3,1.25-5.94,1.27-6.08c0.05-0.48-0.29-0.96-0.8-1.01c-0.35-0.05-0.66,0.11-0.85,0.37
			c-0.08,0.13-0.16,0.29-0.19,0.45c-0.08,0.72-0.29,1.62-0.56,2.84c-0.19,0.85-0.42,1.83-0.66,3.03c-0.37,1.25-1.67,5.15-3.34,5.15
			c-0.48,0-0.82-0.13-1.06-0.42c-0.42-0.45-0.58-1.46-0.42-2.68c0.21-1.75,0.88-5.68,1.3-7.64c0.11-0.48-0.21-0.98-0.69-1.09
			c-0.5-0.08-0.98,0.21-1.09,0.72c-0.29,1.41-0.71,3.72-1.01,5.62c-0.01,0.03-0.04,0.05-0.05,0.08c-0.5,1.67-1.62,5.04-3.77,5.04
			c-0.35,0-0.96-0.05-0.96-1.88c0-0.58,0.56-4.09,1.14-7.91c0.05-0.35,0.37-0.61,0.74-0.61c0.48,0,0.77,0,1.25,0
			c0.48,0,0.9-0.4,0.9-0.9c0-0.5-0.42-0.9-0.9-0.9c-0.42,0-0.64,0-1.06,0c-0.37,0-0.48-0.27-0.42-0.48c0.19-1.25,0.4-2.44,0.58-3.5
			c0.08-0.48-0.27-0.96-0.74-1.03c-0.5-0.08-0.98,0.24-1.06,0.74c-0.08,0.45-0.32,1.91-0.64,3.77c-0.03,0.27-0.4,0.5-0.66,0.5
			c-0.42,0-0.69,0-1.11,0c-0.21,0-0.41,0.09-0.57,0.22c-0.16-0.13-0.36-0.22-0.57-0.22c-0.42,0-0.64,0-1.06,0
			c-0.37,0-0.48-0.27-0.42-0.48c0.19-1.25,0.4-2.44,0.58-3.5c0.08-0.48-0.27-0.96-0.74-1.03c-0.5-0.08-0.98,0.24-1.06,0.74
			c-0.08,0.45-0.32,1.91-0.64,3.77c-0.03,0.27-0.4,0.5-0.66,0.5c-0.42,0-0.69,0-1.11,0c-0.48,0-0.9,0.4-0.9,0.9
			c0,0.5,0.42,0.9,0.9,0.9h0.8c0.58,0,0.53,0.4,0.5,0.61c-0.23,1.47-0.46,2.96-0.66,4.26c-0.02,0.04-0.05,0.08-0.06,0.12
			c0,0-0.34,1.54-1.22,2.89c-1.09,1.67-2.36,2.52-3.82,2.52c-1.3,0-1.88-1.09-2.02-2.23c-0.11-0.88,0.21-1.33,0.98-1.59
			c2.31-0.69,4.56-3.1,4.56-5.6c0-1.3-0.8-2.28-2.15-2.28c-1.35,0-3.93,1.25-4.99,6.02c-0.02,0.08-0.02,0.15-0.03,0.23
			c-1.32,4.52-2.73,5.48-3.66,5.48c-0.5,0-0.66-0.19-0.72-0.24c-0.24-0.24-0.32-0.77-0.27-1.46c0.16-1.8,0.66-4.51,0.85-5.28
			c0.16-0.74,0.05-1.41-0.32-1.88c-0.32-0.4-0.8-0.61-1.35-0.61c-0.88,0-1.51-0.21-1.86-0.61c-0.45-0.5-0.37-1.25-0.34-1.33
			c0.08-0.48-0.24-0.93-0.72-1.03c-0.48-0.11-0.96,0.21-1.06,0.69c-0.02,0.05-0.84,4.03-1.33,6.02c-0.06,0.08-0.12,0.17-0.15,0.27
			c-0.29,0.85-1.09,2.28-2.28,2.49c-0.77,0.16-0.88-0.72-0.66-1.72c0.34-2.49,0-4.51-0.96-5.71c-0.56-0.69-1.3-1.06-2.12-1.11
			c-0.85-0.08-1.59,0.11-2.28,0.48c-0.29,0.13-0.53,0-0.66-0.29c-0.13-0.29-0.37-0.53-0.72-0.58c-0.5-0.08-0.96,0.27-1.03,0.77
			l-3.1,20.62c-0.08,0.48,0.27,0.96,0.77,1.01c0.03,0.03,0.08,0.03,0.13,0.03c0.42,0,0.82-0.32,0.9-0.77
			c0.11-0.8,0.21-1.49,0.32-2.15l0.56-3.82c0.11-0.66,0.21-1.35,0.32-2.15c0.03-0.27,0.19-0.53,0.53-0.53
			c0.13,0,0.32,0.05,0.53,0.19c0.56,0.37,1.19,0.56,1.86,0.56c1.3,0,2.47-0.61,3.32-1.8c0.64-0.82,0.82-1.11,1.8-1.11
			c2.15,0,3.57-1.44,4.31-3.27C107.02,104.99,107.12,104.86,107.17,104.69z M142.18,114.38c-0.32,2.39-0.98,3.1-1.25,3.32
			c-0.16,0.11-0.29,0.13-0.4,0.13c-0.08-0.08-0.19-0.45,0.03-1.3c0.29-1.09,0.88-1.83,1.67-2.47
			C142.2,114.16,142.18,114.27,142.18,114.38z M127.55,99.65c0.05-0.35,0.37-0.61,0.74-0.61c0.48,0,0.77,0,1.25,0
			c0.21,0,0.41-0.09,0.57-0.22c0.16,0.13,0.36,0.22,0.57,0.22h0.8c0.58,0,0.53,0.4,0.5,0.61c-0.25,1.55-0.49,3.12-0.69,4.46
			c-0.07,0.08-0.13,0.18-0.16,0.29c-0.5,1.67-1.62,5.04-3.77,5.04c-0.34,0-0.96-0.05-0.96-1.88
			C126.41,106.97,126.97,103.47,127.55,99.65z M118.4,103.15c0.45-1.46,1.03-2.31,1.51-2.79c0.58-0.61,1.14-0.82,1.43-0.82
			c0.08,0,0.19,0,0.24,0.05c0.03,0.05,0.08,0.21,0.08,0.42c0,1.38-1.3,2.95-2.52,3.58c-0.19,0.08-0.32,0.13-0.45,0.13
			C118.42,103.74,118.29,103.55,118.4,103.15z M100.54,103.66c-0.61,0.64-0.85,1.8-0.61,2.79c0.05,0.24,0.16,0.56-0.05,1.06
			c-0.5,1.06-1.19,1.99-2.47,1.99c-0.42-0.03-0.77-0.19-1.06-0.53c-0.56-0.66-0.8-1.94-0.58-3.26c0.21-1.46,0.53-3.29,1.19-4.51
			c0.56-1.06,1.27-1.51,2.28-1.43c0.35,0.03,0.61,0.16,0.82,0.45c0.48,0.58,0.72,1.57,0.72,2.84
			C100.78,103.23,100.75,103.47,100.54,103.66z"/>
		<path class="st0" d="M205.74,103.39c-0.48-0.13-1.01,0.13-1.14,0.61c-0.5,1.67-1.8,5.57-3.98,5.57c-0.34-0.03-0.96-0.05-0.96-1.88
			c0-0.93,1.43-9.1,2.36-14.04c0.08-0.5-0.24-0.96-0.74-1.06c-0.48-0.08-0.96,0.24-1.06,0.74c0,0.03-0.32,1.67-0.69,3.79
			c-0.13,0.82-0.5,1.03-0.98,1.03c-0.37,0-0.77-0.13-1.14-0.16c-0.66-0.11-1.96-0.08-3.24,1.09c-1.11,1.03-1.91,2.71-2.36,4.99
			c-0.04,0.19-0.06,0.37-0.09,0.56c-0.16,0.37-0.39,0.84-0.68,1.22c-0.32,0.42-0.66,0.72-1.06,0.88c-0.64,0.19-1.11-0.13-0.85-1.11
			c0.13-0.61,0.21-1.22,0.27-1.83c0.13-1.46-0.03-2.68-0.45-3.64c-0.58-1.27-1.59-1.99-2.97-2.12c-0.66-0.05-1.94,0-3.18,1.11
			c-1.14,1.03-1.94,2.71-2.39,4.99c-0.03,0.17-0.03,0.33-0.06,0.5c-0.16,0.37-0.39,0.85-0.68,1.23c-0.32,0.42-0.66,0.72-1.06,0.88
			c-0.64,0.19-1.11-0.13-0.85-1.11c0.13-0.61,0.21-1.22,0.27-1.83c0.13-1.46-0.03-2.68-0.45-3.64c-0.58-1.27-1.59-1.99-2.97-2.12
			c-0.66-0.05-1.94,0-3.18,1.11c-1.13,1.03-1.93,2.69-2.38,4.95c-0.67,2.37-1.98,4.21-3.41,5.39c-0.11,0.08-0.21,0.13-0.32,0.13
			c-0.24,0-0.4-0.24-0.35-0.61c0.45-2.52,0.96-4.7,1.41-6.47c0.37-1.59,0.66-2.87,0.77-3.74c0.08-0.48-0.29-0.93-0.8-1.01
			c-0.48-0.05-0.93,0.29-1.01,0.8c-0.03,0.16-0.11,0.21-0.21,0.21c-0.21,0-0.5-0.21-0.74-0.35c-0.37-0.27-0.82-0.42-1.35-0.48
			c-0.66-0.11-1.96-0.08-3.21,1.09c-1.14,1.03-1.94,2.71-2.39,4.99c-0.56,2.84-0.29,5.07,0.72,6.24c0.66,0.74,1.41,0.98,2.36,0.98
			c0.69-0.05,1.33-0.24,1.91-0.58c0.21-0.08,0.37,0.03,0.29,0.74c-1.62,1.01-3.13,2.2-3.74,4.43c-0.37,1.41-0.11,2.26,0.16,2.71
			c0.29,0.45,0.72,0.74,1.19,0.85c0.16,0.03,0.29,0.03,0.42,0.03c0.5,0,1.01-0.16,1.43-0.5c1.57-1.11,1.96-3.82,2.1-5.68
			c0.05-0.37,0.24-0.77,0.8-1.17c0.96-0.58,1.99-1.27,2.89-2.18c0.4-0.41,0.76-0.92,1.11-1.46c0.18,0.64,0.42,1.23,0.78,1.67
			c0.64,0.77,1.51,1.17,2.52,1.17c1.62,0,3-0.82,3.87-2.15c0.34-0.42,0.93-0.5,1.59-0.48c0.92,0,1.75-0.31,2.45-0.87
			c0.15,0.93,0.46,1.73,0.95,2.33c0.64,0.77,1.51,1.17,2.52,1.17c1.62,0,3-0.82,3.87-2.15c0.35-0.42,0.93-0.5,1.59-0.48
			c0.89,0,1.69-0.29,2.37-0.81c0.12,1.04,0.44,1.88,0.95,2.46c0.64,0.74,1.38,0.98,2.34,0.98c0.85-0.05,1.59-0.32,2.23-0.8
			c0.37-0.27,0.64-0.37,0.85-0.37c0.27,0,0.45,0.16,0.66,0.35c0.53,0.48,1.11,0.85,1.91,0.9c1.46,0,2.47-0.56,3.4-1.67
			c0.88-1.03,1.78-2.95,2.44-5.17C206.48,104.05,206.21,103.55,205.74,103.39z M161.1,117.48c-0.19,0.16-0.35,0.16-0.42,0.16
			c-0.08-0.08-0.19-0.45,0.03-1.3c0.24-0.88,0.64-1.51,0.96-1.83c0.19-0.21,0.4-0.34,0.53-0.34c0.08,0,0.13,0.05,0.11,0.21
			C162.03,116.58,161.36,117.3,161.1,117.48z M163.88,103.36c-0.27,1.86-0.98,6-3.5,6.08c-0.37,0.03-0.66-0.08-0.88-0.32
			c-0.48-0.58-0.82-2.1-0.32-4.7c0.32-1.62,1.25-4.67,3.34-4.67c0.08,0,0.16,0,0.24,0c0.53,0.08,0.74,0.29,0.88,0.45
			C164.02,100.71,164.1,101.77,163.88,103.36z M176.22,103.07c-0.03,0.24-0.16,0.58-0.5,0.88c-0.61,0.66-0.85,1.83-0.58,2.79
			c0.05,0.16,0.05,0.74-0.16,1.03c-0.72,1.14-1.59,1.72-2.63,1.72c-0.48,0-0.85-0.19-1.11-0.53c-0.68-0.81-0.84-2.45-0.46-4.4
			c0-0.01,0.01-0.02,0.01-0.03c0.01-0.02,0-0.05,0-0.07c0.35-1.67,1.28-4.63,3.42-4.63c0.08,0,0.13,0,0.19,0
			C175.96,99.97,176.28,101.56,176.22,103.07z M187.61,103.07c-0.03,0.24-0.16,0.58-0.5,0.88c-0.61,0.66-0.85,1.83-0.58,2.79
			c0.05,0.16,0.05,0.74-0.16,1.03c-0.72,1.14-1.59,1.72-2.63,1.72c-0.48,0-0.85-0.19-1.11-0.53c-0.62-0.74-0.78-2.17-0.53-3.88
			c0.09-0.23,0.16-0.43,0.19-0.55c0.04-0.15,0.02-0.31-0.01-0.46c0.4-1.7,1.34-4.24,3.33-4.24c0.08,0,0.13,0,0.19,0
			C187.34,99.97,187.66,101.56,187.61,103.07z M198.25,103.39c-0.27,1.86-0.96,6-3.48,6.08c-0.4,0.03-0.66-0.08-0.88-0.32
			c-0.46-0.53-0.78-1.87-0.43-4.06c0.09-0.23,0.16-0.44,0.19-0.56c0.03-0.14,0.02-0.28,0-0.43c0.37-1.67,1.31-4.32,3.27-4.32
			c0.08,0,0.16,0,0.24,0c0.53,0.08,0.74,0.29,0.88,0.45C198.41,100.74,198.49,101.8,198.25,103.39z"/>
		<path class="st0" d="M126.15,122.36c-0.48-0.11-0.85,0.21-1.06,0.72c-0.19,0.27-0.32,0.37-0.5,0.37c-0.34,0-0.77-0.4-1.59-0.5
			c-0.66-0.08-1.96-0.05-3.21,1.09c-1.14,1.03-1.94,2.73-2.39,5.02c-0.56,2.81-0.29,5.04,0.72,6.24c0.64,0.74,1.41,0.96,2.36,0.96
			c1.62,0,2.57-1.25,3.26-1.25c0.19,0,0.37,0.11,0.53,0.37c0.48,0.61,1.11,0.98,1.96,1.03c1.46,0,2.47-0.56,3.37-1.67
			c0.12-0.15,0.25-0.33,0.37-0.51c0.31,1.11,1.02,1.98,2.44,2.05c3.4,0,4.8-3.61,5.63-6.34c0.13-0.48-0.13-0.98-0.61-1.11
			c-0.48-0.16-0.98,0.11-1.14,0.58c-0.5,1.67-1.62,5.04-3.77,5.04c-0.35,0-0.96-0.05-0.96-1.88c0-0.3,0.14-1.34,0.36-2.79
			c0.02-0.07,0.04-0.14,0.06-0.21c0.04-0.14,0.05-0.28,0.03-0.41c0.2-1.31,0.44-2.87,0.69-4.5c0.05-0.35,0.37-0.61,0.74-0.61
			c0.48,0,0.77,0,1.25,0c0.48,0,0.9-0.4,0.9-0.9c0-0.5-0.42-0.9-0.9-0.9c-0.42,0-0.64,0-1.06,0c-0.37,0-0.48-0.27-0.42-0.48
			c0.19-1.25,0.4-2.44,0.58-3.5c0.08-0.48-0.27-0.96-0.74-1.03c-0.5-0.08-0.98,0.24-1.06,0.74c-0.08,0.45-0.32,1.91-0.64,3.77
			c-0.03,0.27-0.4,0.5-0.66,0.5c-0.42,0-0.69,0-1.11,0c-0.48,0-0.9,0.4-0.9,0.9c0,0.5,0.42,0.9,0.9,0.9h0.8
			c0.58,0,0.53,0.4,0.5,0.61c-0.26,1.65-0.52,3.34-0.73,4.74c-0.72,2.27-2.04,5.21-3.73,5.21c-0.32-0.03-1.03-0.05-1.03-1.88
			c0-0.93,0.9-6.08,1.51-9.29C126.97,122.91,126.65,122.43,126.15,122.36z M123.87,128.35c-0.29,1.91-0.98,5.94-3.5,6.08
			c-0.37,0.03-0.66-0.08-0.88-0.35c-0.48-0.56-0.82-2.1-0.32-4.7c0.34-1.67,1.27-4.67,3.4-4.67l0.13,0.03c0.03,0,0.03,0,0.05,0
			c0.53,0.08,0.74,0.29,0.88,0.42C124,125.7,124.08,126.76,123.87,128.35z"/>
		<path class="st0" d="M148.52,123.07c-0.42,0.16-0.74-0.21-0.72-0.58c0.21-1.57,0.37-2.44,0.61-3.98c0.08-0.5-0.27-0.96-0.74-1.03
			c-0.5-0.08-0.98,0.27-1.03,0.77l-2.63,16.96c-0.08,0.5,0.27,0.98,0.74,1.03c0.05,0.03,0.11,0.03,0.16,0.03
			c0.34,0,0.69-0.21,0.82-0.56c0.05-0.21,0.16-0.32,0.29-0.32c0.11,0,0.21,0.05,0.35,0.16c0.58,0.45,1.27,0.66,2.02,0.66
			c1.3,0,2.47-0.61,3.32-1.8c0.61-0.93,0.58-1.17,1.8-1.14c0.88,0,1.61-0.25,2.23-0.66c0.11,1.13,0.43,2.05,0.96,2.68
			c0.64,0.74,1.41,0.96,2.36,0.96c1.62,0,2.57-1.25,3.26-1.25c0.19,0,0.37,0.11,0.53,0.37c0.48,0.61,1.11,0.98,1.96,1.03
			c1.46,0,2.47-0.56,3.37-1.67c0.18-0.22,0.37-0.5,0.55-0.8c0.17,0.55,0.4,1.02,0.72,1.38c0.64,0.74,1.38,0.98,2.34,0.98
			c0.85-0.05,1.59-0.32,2.23-0.8c0.37-0.27,0.64-0.37,0.85-0.37c0.27,0,0.45,0.16,0.66,0.35c0.53,0.48,1.11,0.85,1.91,0.9
			c1.46,0,2.47-0.56,3.4-1.67c0.88-1.03,1.78-2.95,2.44-5.17c0.13-0.48-0.13-0.98-0.61-1.14c-0.48-0.13-1.01,0.13-1.14,0.61
			c-0.5,1.67-1.8,5.57-3.98,5.57c-0.35-0.03-0.96-0.05-0.96-1.88c0-0.93,1.43-9.1,2.36-14.04c0.08-0.5-0.24-0.96-0.74-1.06
			c-0.48-0.08-0.96,0.24-1.06,0.74c0,0.03-0.32,1.67-0.69,3.79c-0.13,0.82-0.5,1.03-0.98,1.03c-0.37,0-0.77-0.13-1.14-0.16
			c-0.66-0.11-1.96-0.08-3.24,1.09c-1.11,1.03-1.91,2.71-2.36,4.99c-0.04,0.19-0.06,0.38-0.09,0.57c-0.74,2.23-2.02,4.95-3.65,4.95
			c-0.32-0.03-1.03-0.05-1.03-1.88c0-0.93,0.9-6.08,1.51-9.29c0.08-0.5-0.24-0.98-0.74-1.06c-0.48-0.11-0.85,0.21-1.06,0.72
			c-0.19,0.27-0.32,0.37-0.5,0.37c-0.34,0-0.77-0.4-1.59-0.5c-0.66-0.08-1.96-0.05-3.21,1.09c-1.14,1.03-1.94,2.73-2.39,5.02
			c-0.03,0.15-0.05,0.29-0.07,0.43c-0.14,0.29-0.34,0.67-0.57,0.98c-0.42,0.61-0.9,0.93-1.51,0.93c-0.85,0-0.58-0.98-0.48-1.7
			c0.35-2.49,0-4.54-0.96-5.73c-0.56-0.66-1.3-1.06-2.12-1.11C149.63,122.81,149.05,122.89,148.52,123.07z M173.86,124.77
			c0.08,0,0.16,0,0.24,0c0.53,0.08,0.74,0.29,0.88,0.45c0.37,0.5,0.45,1.57,0.21,3.16c-0.27,1.86-0.96,6-3.48,6.08
			c-0.4,0.03-0.66-0.08-0.88-0.32c-0.46-0.53-0.78-1.88-0.43-4.08c0.05-0.17,0.11-0.34,0.16-0.51c0.05-0.15,0.04-0.29,0.02-0.43
			C170.96,127.45,171.9,124.77,173.86,124.77z M161.15,124.72l0.13,0.03c0.03,0,0.03,0,0.05,0c0.53,0.08,0.74,0.29,0.88,0.42
			c0.37,0.53,0.45,1.59,0.24,3.18c-0.29,1.91-0.98,5.94-3.5,6.08c-0.37,0.03-0.66-0.08-0.88-0.35c-0.43-0.51-0.75-1.83-0.43-4.02
			c0.07-0.16,0.13-0.32,0.19-0.49c0.06-0.16,0.04-0.33-0.01-0.49C158.22,127.38,159.15,124.72,161.15,124.72z M151.68,127.72
			c0,0.37-0.11,0.64-0.45,1.11c-0.48,0.69-0.61,1.7-0.37,2.55l-0.05,0.98c-0.48,1.09-1.19,2.04-2.49,2.04
			c-0.42-0.03-0.77-0.19-1.06-0.53c-0.56-0.66-0.8-1.94-0.58-3.26c0.21-1.46,0.53-3.29,1.19-4.51c0.56-1.06,1.27-1.51,2.28-1.43
			c0.34,0,0.61,0.16,0.85,0.42C151.41,125.62,151.65,126.55,151.68,127.72z"/>
		<path class="st0" d="M137.13,140.93l-0.05,0.34c-0.08,0.5,0.24,0.96,0.74,1.04c0.05,0,0.11,0.03,0.13,0.03
			c0.45,0,0.82-0.32,0.9-0.77l0.05-0.35c0.08-0.5-0.27-0.96-0.74-1.03C137.66,140.11,137.21,140.45,137.13,140.93z"/>
		<path class="st0" d="M152.39,140.93l-0.05,0.34c-0.08,0.5,0.24,0.96,0.74,1.04c0.05,0,0.11,0.03,0.13,0.03
			c0.45,0,0.82-0.32,0.9-0.77l0.05-0.35c0.08-0.5-0.27-0.96-0.74-1.03C152.92,140.11,152.47,140.45,152.39,140.93z"/>
		<path class="st0" d="M191.14,149.31c-0.48-0.08-0.96,0.27-1.03,0.77c0,0-0.13,1.33-0.9,2.6c-0.24,0.42-0.5,0.66-0.74,0.66
			c-0.27,0-0.48-0.29-0.53-0.9c-0.24-1.99-1.49-3.26-2.52-4.33c-0.4-0.37-0.77-0.74-1.03-1.09c-0.35-0.48-0.05-1.54,0.74-2.68
			c0.27-0.4,0.19-0.98-0.24-1.25c-0.16-0.11-0.35-0.16-0.53-0.16c-0.96,0-1.67,1.99-1.83,2.73l-1.24,3.87
			c-0.1,0.12-0.17,0.25-0.2,0.4c0,0.03-0.29,1.46-0.96,2.87c-0.53,1.17-1.46,2.57-2.76,2.57c-0.5,0-0.66-0.16-0.69-0.24
			c-0.16-0.16-0.4-0.69-0.16-2.15c0.16-1.09,0.29-1.7,0.4-2.28c0.08-0.53,0.19-1.01,0.29-1.75c0.29-1.94,0.08-3.32-0.72-4.22
			c-0.58-0.66-1.41-1.01-2.49-1.01c-0.61,0.03-1.19,0.24-1.75,0.61c-0.16,0.11-0.58,0.37-0.8,0.37c-0.11,0-0.16-0.05-0.16-0.19
			c0.08-0.5-0.24-0.96-0.74-1.06c-0.5-0.08-0.96,0.24-1.06,0.74l-1.09,6.2c-0.15,0.39-0.41,0.94-0.74,1.36
			c-0.32,0.42-0.66,0.72-1.06,0.88c-0.64,0.19-1.11-0.13-0.85-1.11c0.13-0.61,0.21-1.22,0.27-1.83c0.13-1.46-0.03-2.68-0.45-3.64
			c-0.58-1.27-1.59-1.99-2.97-2.12c-0.66-0.05-1.94,0-3.18,1.11c-1.12,1.02-1.91,2.66-2.36,4.88c0,0,0,0,0,0
			c-0.5,1.65-1.78,5.49-3.9,5.49c-0.32-0.03-0.96-0.05-0.96-1.91c0-0.9,0.9-6.05,1.51-9.26c0.11-0.5-0.21-0.98-0.72-1.06
			c-0.5-0.11-0.96,0.21-1.06,0.72c-0.1,0.5-0.66,3.49-1.07,6.04c-0.01,0.04-0.04,0.07-0.04,0.11c0,0-0.13,1.33-0.9,2.6
			c-0.24,0.42-0.5,0.66-0.74,0.66c-0.27,0-0.48-0.29-0.53-0.9c-0.24-1.99-1.49-3.26-2.52-4.33c-0.4-0.37-0.77-0.74-1.03-1.09
			c-0.35-0.48-0.05-1.54,0.74-2.68c0.27-0.4,0.19-0.98-0.24-1.25c-0.16-0.11-0.35-0.16-0.53-0.16c-0.96,0-1.67,1.99-1.83,2.73
			l-1.26,3.95c-0.08,0.09-0.14,0.2-0.17,0.32c-0.5,1.65-1.78,5.49-3.9,5.49c-0.32-0.03-0.96-0.05-0.96-1.91
			c0-0.39,0.17-1.56,0.41-3.03c0.01-0.02,0.01-0.03,0.02-0.05c0.01-0.04,0-0.08,0.01-0.12c0.31-1.92,0.74-4.29,1.08-6.06
			c0.11-0.5-0.21-0.98-0.72-1.06c-0.5-0.11-0.96,0.21-1.06,0.72c-0.1,0.51-0.67,3.57-1.09,6.14c-0.22,0.7-1.87,5.43-5.15,5.43
			c-0.61,0-1.09-0.21-1.41-0.64c-0.72-0.88-0.88-2.63-0.42-4.64c0.45-2.1,1.22-3.21,1.78-3.79c0.61-0.64,1.17-0.82,1.43-0.82
			c0.24,0,0.29,0.08,0.35,0.16c0.32,0.45,0.27,1.7-0.11,2.79c-0.16,0.48,0.08,1.01,0.56,1.17c0.48,0.16,0.98-0.08,1.17-0.56
			c0.21-0.66,0.37-1.43,0.4-2.12c0.05-0.98-0.13-1.75-0.53-2.31c-0.42-0.66-1.09-0.93-1.86-0.93c-0.9,0-1.88,0.5-2.73,1.35
			c-1.03,1.09-1.78,2.65-2.23,4.67c-0.01,0.04-0.01,0.07-0.02,0.11c0,0.01-0.01,0.01-0.01,0.02c0,0-0.34,1.54-1.22,2.89
			c-1.09,1.67-2.36,2.52-3.82,2.52c-1.3,0-1.88-1.09-2.02-2.23c-0.11-0.88,0.21-1.33,0.98-1.59c2.31-0.69,4.56-3.1,4.56-5.6
			c0-1.3-0.8-2.28-2.15-2.28c-1.35,0-3.93,1.25-4.99,6.02c0,0.02,0,0.03-0.01,0.05c-0.04,0.06-0.08,0.12-0.1,0.19
			c-0.5,1.67-1.8,5.57-3.98,5.57c-0.35-0.03-0.96-0.05-0.96-1.88c0-0.93,1.43-9.1,2.36-14.04c0.08-0.5-0.24-0.96-0.74-1.06
			c-0.48-0.08-0.96,0.24-1.06,0.74c0,0.03-0.32,1.67-0.69,3.79c-0.13,0.82-0.5,1.03-0.98,1.03c-0.37,0-0.77-0.13-1.14-0.16
			c-0.66-0.11-1.96-0.08-3.24,1.09c-1.11,1.04-1.91,2.71-2.36,4.99c-0.56,2.84-0.32,5.07,0.72,6.24c0.64,0.74,1.38,0.98,2.34,0.98
			c0.85-0.05,1.59-0.32,2.23-0.8c0.37-0.27,0.64-0.37,0.85-0.37c0.27,0,0.45,0.16,0.66,0.35c0.53,0.48,1.11,0.85,1.91,0.9
			c1.46,0,2.47-0.56,3.4-1.67c0.28-0.33,0.55-0.76,0.82-1.24c0.5,1.6,1.66,2.78,3.58,2.78c1.92,0,3.66-1,5.02-2.9
			c0.45,1.72,1.63,3.03,3.66,3.03c2.1,0,3.64-1.11,4.79-2.62c0.23,1.34,0.92,2.48,2.56,2.57c1.46,0,2.47-0.56,3.4-1.67
			c0.03-0.03,0.05-0.09,0.08-0.12c0.59,1.09,1.73,1.71,3.08,1.71c0.24,0,0.45,0,0.66-0.03c2.67-0.02,4.41-1.11,5.51-2.28
			c0.26,1.26,0.96,2.3,2.53,2.38c1.46,0,2.47-0.56,3.4-1.67c0.23-0.28,0.45-0.62,0.68-1.01c0.18,0.56,0.4,1.08,0.73,1.48
			c0.64,0.77,1.51,1.17,2.52,1.17c1.62,0,3-0.82,3.87-2.15c0.35-0.42,0.93-0.5,1.59-0.48c0.69,0,1.34-0.18,1.92-0.5l-0.38,2.15
			c-0.08,0.48,0.21,0.9,0.64,1.03c0.08,0.03,0.13,0.05,0.21,0.05c0.5,0,0.93-0.21,1.04-0.74c0-0.03,0.45-2.92,1.38-5.76
			c1.03-3.29,2.31-5.25,3.4-5.25c0.77,0,1.03,0.27,1.11,0.37c0.27,0.32,0.53,1.06,0.29,2.76c-0.13,0.72-0.21,1.17-0.29,1.67
			c-0.13,0.58-0.24,1.22-0.42,2.36c-0.27,1.7-0.08,2.84,0.58,3.61c0.48,0.56,1.19,0.85,2.07,0.85c0.91,0,2.1-0.34,3.22-1.68
			c0.6,1.06,1.72,1.65,3.05,1.65c0.24,0,0.45,0,0.66-0.03c3.4-0.03,5.31-1.78,6.29-3.24c1.03-1.57,1.33-3.5,1.33-3.56
			C191.98,149.84,191.64,149.39,191.14,149.31z M111.68,149.31c-0.27,1.86-0.96,6-3.48,6.08c-0.4,0.03-0.66-0.08-0.88-0.32
			c-0.5-0.58-0.85-2.12-0.32-4.7c0.32-1.62,1.25-4.67,3.34-4.67c0.08,0,0.16,0,0.24,0c0.53,0.08,0.74,0.29,0.88,0.45
			C111.84,146.66,111.92,147.72,111.68,149.31z M120.17,149.08c0.45-1.46,1.03-2.31,1.51-2.79c0.58-0.61,1.14-0.82,1.43-0.82
			c0.08,0,0.19,0,0.24,0.05c0.03,0.05,0.08,0.21,0.08,0.42c0,1.38-1.3,2.95-2.52,3.58c-0.19,0.08-0.32,0.13-0.45,0.13
			C120.2,149.66,120.07,149.47,120.17,149.08z M144.88,155.34c-0.03,0-0.08,0-0.11,0c-0.13,0.03-0.29,0.03-0.45,0.03
			c-0.53,0-1.46-0.19-1.67-1.33c-0.03-0.2-0.14-0.37-0.28-0.5c0.3-0.64,0.58-1.36,0.83-2.11c0.07-0.08,0.13-0.17,0.17-0.28
			l0.48-1.43c0.13-0.34,0.35-0.48,0.53-0.48c0.16,0,0.32,0.08,0.42,0.19c1.06,1.06,2.07,2.07,2.07,3.72
			C146.87,154.46,146.21,155.18,144.88,155.34z M164.23,149c-0.03,0.24-0.16,0.58-0.5,0.88c-0.61,0.66-0.85,1.83-0.58,2.79
			c0.05,0.16,0.05,0.74-0.16,1.03c-0.72,1.14-1.59,1.72-2.63,1.72c-0.48,0-0.85-0.19-1.11-0.53c-0.68-0.81-0.84-2.45-0.46-4.4
			c0-0.01,0.01-0.02,0.01-0.04c0.01-0.03,0-0.05,0.01-0.08c0.35-1.68,1.28-4.62,3.42-4.62c0.08,0,0.13,0,0.19,0
			C163.96,145.89,164.28,147.48,164.23,149z M184.18,155.34c-0.03,0-0.08,0-0.11,0c-0.13,0.03-0.29,0.03-0.45,0.03
			c-0.53,0-1.46-0.19-1.67-1.33c-0.03-0.16-0.11-0.3-0.21-0.42c0.01-0.01,0.01-0.02,0.02-0.04c0.43-0.9,0.71-1.77,0.88-2.4
			c0.01-0.01,0.02-0.02,0.02-0.04l0.48-1.43c0.13-0.34,0.34-0.48,0.53-0.48c0.16,0,0.32,0.08,0.42,0.19
			c1.06,1.06,2.07,2.07,2.07,3.72C186.17,154.46,185.51,155.18,184.18,155.34z"/>
	</g>
</g>
</svg>
