<?xml version="1.0" encoding="utf-8"?>
<!-- Generator: Adobe Illustrator 28.0.0, SVG Export Plug-In . SVG Version: 6.00 Build 0)  -->
<svg version="1.1" id="Layer_1" xmlns="http://www.w3.org/2000/svg" xmlns:xlink="http://www.w3.org/1999/xlink" x="0px" y="0px"
	 viewBox="0 0 300 300" style="enable-background:new 0 0 300 300;" xml:space="preserve">
<style type="text/css">
	.st0{fill:#FBDBE7;}
	.st1{fill:#F38DAE;}
	.st2{fill:#B8E1D9;}
	.st3{fill:#FED798;}
	.st4{fill:#FBE8C4;}
	.st5{fill:#241F20;}
</style>
<g>
	<g>
		<path d="M230.02,55.7c-0.96,3.89-0.25,5.77,2.77,7.54c2.67,1.56,4.95,1.18,7.71-1.35c0.37,0.33,0.67,0.69,1.04,0.91
			c1.08,0.62,2.14,1.44,3.31,1.74c3.51,0.89,9.28-2.12,10.62-5.5c0.87-2.18,0.43-4.34-0.8-6.28c-0.69-1.08-1.61-2.02-2.49-3.09
			c0.78-1.32,1.15-2.86,0.78-4.5c-0.93-4.12-3.24-7.19-7.07-9.03c-1.45-0.7-3-0.96-4.6-0.69c-3.94,0.68-6.73,2.82-8.22,6.62
			c-0.09,0.01-0.23,0.03-0.36,0.04c-4.69,0.17-7.29,3.59-6.17,8.15C227.1,52.46,228.11,54.4,230.02,55.7z"/>
		<path d="M255.58,81.91c-0.56-4.51-3.92-7.3-8.18-6.72c-1.8,0.25-3.4,0.97-4.81,2.14c-2.77,2.3-4.59,5.13-5.14,8.72
			c-0.04,0.27-0.21,0.6-0.42,0.75c-1.7,1.23-2.92,2.7-2.65,4.92c-5.06,1.91-7.34,5.13-6.37,9.98c0.52,2.59,1.65,4.86,3.77,6.52
			c1.89,1.48,3.48,1.53,5.44,0.15c0.83-0.58,1.6-1.24,2.15-1.66c1.11,0.51,2.03,1.27,2.98,1.32c3.82,0.2,7.05-1.16,9.29-4.36
			c1.76-2.5,2.36-5.44,2.72-8.41c0.25-2.06,0.03-4.04-1.35-5.84C255.37,87.36,255.94,84.8,255.58,81.91z"/>
		<path d="M221.05,156.54c2.42,2.65,5.39,3.08,8.27,1.13c0.44-0.3,0.74-0.33,1.18-0.04c0.83,0.54,1.68,1.05,2.57,1.49
			c2.67,1.32,5.78,0.57,7.62-1.8c2.31-2.97,2.5-7.68,0.4-10.8c-0.98-1.46-2.29-2.45-4.11-2.56c-0.97-0.06-1.94-0.01-2.94-0.01
			c-0.02-0.42-0.03-0.69-0.04-0.96c-0.13-2.35-1.78-3.94-4.11-3.73c-2.52,0.23-4.52,1.32-5.25,4.02c-2.92,0.27-3.72,1.31-3.36,4.13
			c0.04,0.34-0.12,0.78-0.34,1.07C219.25,150.73,219.29,154.61,221.05,156.54z"/>
		<path d="M258.28,229.76c-1.17-4.29-2.07-8.66-4.17-12.64c-0.11-0.2-0.08-0.53-0.01-0.76c0.64-2.16,1.2-4.35,2-6.46
			c0.98-2.59,2.09-5.18,4.01-7.23c0.97-1.04,0.95-2.11-0.13-3.11c-1.62-1.51-3.33-2.98-5.23-4.1c-2.22-1.3-4.68-2.21-7.13-3.33
			c0-0.49-0.03-1.17,0-1.85c0.1-2.15,0.14-4.32,0.35-6.46c0.17-1.72-0.51-3.02-1.69-4.09c-4.71-4.24-10.01-7.52-16.06-9.45
			c-3.54-1.13-7.05-2.44-10.8-2.81c-0.8-0.08-1.58-0.28-2.41-0.44c1.04-10.73,2.07-21.31,3.11-31.99c2.7,0.28,4.38-1.43,6.17-2.93
			c1.89,1.69,4.08,2.16,6.38,1.56c3.02-0.79,5.53-2.55,7.54-4.92c2.85-3.34,1.4-9.84-3.64-10.93c-0.53-0.11-1.05-0.26-1.61-0.4
			c0.12-0.5,0.22-0.93,0.31-1.36c0.55-2.53-0.38-4.38-2.75-5.38c-0.75-0.32-1.54-0.62-2.34-0.72c-1.96-0.27-3.99-0.34-5.49,1.22
			c-0.71,0.74-1.37,0.84-2.32,0.69c0.63-6.52,1.26-13,1.86-19.17c1.8-0.32,3.52-0.27,4.9-0.93c3.41-1.63,5.46-4.8,4.57-9.13
			c-0.5-2.43-2.01-3.55-4.49-3.37c-0.3,0.02-0.6,0.05-0.97,0.08c-0.16-1.47-0.62-2.77-1.79-3.64c2.15-2.75,2.28-6.29,0.39-8.75
			c-2.17-2.83-6-3.62-9.75-2.03c-0.45-0.8-0.89-1.6-1.37-2.46c1.7-2.4,1.45-5.1,0.84-7.89c2.47-1.16,3.44-3.41,4.04-5.85
			c0.66-2.67-0.12-5.05-1.98-6.99c-2.33-2.44-4.67-2.57-7.41-0.61c-0.08,0.06-0.17,0.09-0.3,0.16c-0.22-0.31-0.43-0.62-0.66-0.91
			c-0.74-0.92-1.65-1.55-2.86-1.6c-2.1-0.09-3.92,0.54-5.22,2.29c-0.64,0.87-1.24,1.77-1.84,2.63c-0.89-0.48-1.75-0.94-2.63-1.42
			c0.15-0.24,0.29-0.47,0.43-0.7c1.73-2.74,1.78-6.53-0.32-8.96c-2.29-2.65-5.2-4.35-8.94-3.82c-2.88,0.41-5.41,1.49-7.12,3.99
			c-0.37,0.54-0.66,1.15-1.11,1.92c-0.23-0.48-0.34-0.78-0.51-1.05c-0.42-0.65-0.76-1.42-1.33-1.91c-3.93-3.37-10.76-1.7-12.72,3.08
			c-0.23,0.55-0.51,0.86-1.08,1.07c-3.08,1.17-4.31,3.2-4.06,6.44c0.15,1.97,0.57,3.84,1.64,5.39c-1.06,1.15-2.07,2.24-2.94,3.18
			c-1.43-0.54-2.81-1.07-4.3-1.63c0.01-1.87-0.28-3.82-1.87-5.29c-1.61-1.5-3.48-1.75-5.61-1.03c-0.05-0.73-0.09-1.34-0.14-1.94
			c-0.36-3.98-3.59-7.29-7.37-7.42c-2.63-0.09-4.8,1.08-6.53,2.95c-1.98,2.14-3.51,4.56-3.44,7.75c-3.67-1.17-7.2-1.39-10.24,1.27
			c-3.06,2.68-3.37,6.16-2.45,9.86c-0.86,0.46-1.73,0.81-2.46,1.35c-0.76,0.55-1.39,1.29-2.07,1.94c-1.73-0.89-3.45-0.91-7.19-0.05
			c-0.51-1.51-1.82-2.27-3.25-3.05c1.35-1.15,2.75-2.13,3.1-3.86c0.34-1.68,0.11-3.31-0.98-4.67c-1.48-1.83-4.21-1.85-7.08-0.1
			c-0.28-0.42-0.51-0.8-0.76-1.16c-1.41-1.96-3.32-2.8-5.71-2.44c-2.29,0.35-4.18,1.47-5.72,3.18c-1.04,1.16-1.66,2.56-1.57,4.12
			c0.11,1.79,0.39,3.56,0.6,5.35c0.16,0.01,0.15,0.05,0.13,0.06c-0.28,0.12-0.57,0.23-0.85,0.34c-2.48,1.01-3.95,2.79-4.04,5.52
			c-0.12,3.84,1.72,8.6,6.36,10.14c0.08,0.03,0.14,0.11,0.24,0.19c-1.52,2.23-2.29,4.6-1.6,6.93c-1.39,0.94-2.75,1.55-3.68,2.57
			c-1.97,2.15-0.97,4.99,1.84,5.68c0.23,0.06,0.46,0.1,0.78,0.16c-1,2.95-0.99,5.83,1.69,7.74c2.72,1.94,5.32,0.64,7.67-1.23
			c2.38,17.99,4.76,35.87,7.14,53.83c-0.53,0.05-0.9,0.11-1.27,0.12c-7.11,0.24-13.87-1.18-20.29-4.23
			c-2.39-1.14-4.63-2.52-6.44-4.5c-0.86-0.94-1.64-1.95-1.76-3.29c-0.06-0.64-0.24-1.17-0.95-1.26c-0.7-0.09-1.07,0.38-1.29,0.95
			c-0.31,0.76-0.62,1.52-0.85,2.31c-1.6,5.28-2,10.69-1.64,16.15c0.19,2.94,0.64,5.85,2.11,8.5c0.16,0.28,0.05,0.82-0.11,1.14
			c-0.63,1.21-1.27,2.43-2.03,3.56c-2.25,3.35-5.06,6.1-8.86,7.68c-0.28,0.12-0.55,0.28-0.79,0.46c-0.77,0.57-0.93,1.08-0.33,1.82
			c0.71,0.86,1.48,1.77,2.43,2.31c2.04,1.17,4.16,2.2,6.33,3.12c1.49,0.63,3.1,0.97,4.7,1.46c-0.58,1.7-1.15,3.38-1.72,5.06
			c-0.42,1.23-0.83,2.46-1.27,3.68c-0.19,0.52-0.65,1.03-0.6,1.51c0.06,0.56,0.45,1.15,0.84,1.6c0.88,1,1.79,1.99,2.79,2.86
			c3.32,2.92,7.42,4.51,11.4,6.19c4.25,1.79,8.73,2.93,13.37,3.39c4.56,0.45,9.1,1.07,13.65,1.58c0.66,0.07,0.92,0.26,1,0.96
			c0.63,4.95,1.32,9.9,1.98,14.85c0.19,1.41,0.35,2.82,0.51,4.18c-1.28,0-2.41,0-3.63,0c-0.18-2.34-1.29-4.23-2.6-6.06
			c-2.59-3.61-8.3-3.73-10.63-1.16c-0.06,0.06-0.18,0.08-0.32,0.13c-0.96-2.35-2.78-3.88-4.82-5.18c-3.76-2.4-8.11-1.8-11.03,1.55
			c-2.37,2.72-3.4,5.97-3.4,9.55c0,1.12,0.1,2.23,0.15,3.41c-0.38,0-0.71,0-1.04,0c-2.77,0.03-4.36,1.31-4.77,3.96
			c-0.26,1.64-0.21,3.3,0.53,4.83c0.58,1.18,1.29,2.29,1.89,3.36c-1.43,0.71-2.93,1.47-4.49,2.25c0-0.86,0.09-1.69-0.02-2.5
			c-0.41-3.18-1.76-5.68-5.07-6.66c-4.03-1.19-7.48-0.16-10.41,2.79c-0.25,0.25-0.49,0.52-0.75,0.8c-0.37-0.39-0.65-0.69-0.94-0.98
			c-1.34-1.33-2.85-2.37-4.79-2.55c-3.07-0.28-5.83,0.58-8.28,2.4c-3.27,2.42-4.37,5.63-3.4,9.59c0.71,2.88,2.22,5.18,4.74,6.88
			c-0.15,0.19-0.27,0.35-0.4,0.49c-2.44,2.71-2.66,5.25-0.49,8.14c0.71,0.95,1.71,1.8,2.75,2.37c1.33,0.72,2.84,1.11,4.42,1.71
			c0.98,2.3,2.47,3.17,5.16,3.07c3.09-0.12,4.19-2.01,4.37-4.83c0.94,0.15,1.76,0.28,2.56,0.4c0.08,2.67,0.24,3.15,1.18,4.7
			c1.7,2.81,4.37,3.93,7.45,4.3c3.88,0.46,7.37-0.26,9.93-3.56c0.33-0.43,0.72-0.8,1.06-1.17c1.2,0.63,2.31,1.23,3.43,1.8
			c2.43,1.21,4.73,1,6.96-0.56c1.69-1.18,3.22-2.49,4.13-4.19c1.14,0.77,2.17,1.46,3.32,2.25c-0.51,2.26,0.16,4.36,1.66,6.27
			c1.48,1.9,3.31,3.25,5.66,3.85c2.18,0.56,4.3,0.21,6.32-0.63c3.23-1.36,4.86-4.04,5.56-6.97c2.6-0.56,4.91-1.06,7.23-1.56
			c1.11,3.82,3.47,6.56,7.58,7.52c4,0.94,7.52,0.1,10.28-3.06c2.23,2.1,4.59,2.12,7.11,1.13c2.99-1.18,3.45-3.57,2.95-6.38
			c1.57,1.17,2.98,2.37,4.53,3.35c2.73,1.72,6.54,1.45,9.1-0.44c2.09-1.54,3.02-3.68,3.17-6.18c0.05-0.88,0.44-1.09,1.2-1.29
			c1.05-0.27,2.27-0.5,3.01-1.19c1.18-1.1,2.47-1.12,3.87-1.11c0.62,0,1.23-0.03,1.85-0.04c10.1-0.13,20.2-0.25,30.29-0.39
			c1.71-0.02,2.27-0.52,2.46-2.22c0.32-2.86,0.58-5.72,0.86-8.58c0.6-6.13,1.19-12.26,1.79-18.39c0.21-2.17,0.44-4.34,0.66-6.53
			c2.26,0.15,4.43,0.37,6.61,0.43c8.14,0.25,16.28,0.43,24.3,2.09c2.68,0.56,5.4,1.07,7.79,2.47c3.94,2.31,7.33,5.17,8.72,9.79
			c0.19,0.64,0.62,1.1,1.38,0.92c0.72-0.17,0.81-0.75,0.77-1.37C260.34,238.48,259.46,234.1,258.28,229.76z"/>
	</g>
	<path class="st0" d="M145.83,168.2c0.02-0.01-0.07,0.05-0.16,0.05c-5.2,0.13-10.39,0.3-15.59,0.36c-2.05,0.02-4.1-0.21-6.15-0.29
		c-0.6-0.02-0.79-0.27-0.85-0.86c-1.13-10.33-2.29-20.66-3.43-30.99c-1.06-9.62-2.1-19.24-3.16-28.86c-0.3-2.75-0.67-5.5-0.92-8.26
		c-0.05-0.6,0.11-1.31,0.42-1.82c1.56-2.56,3.92-4.2,6.67-5.21c5.8-2.11,11.47-1.95,16.84,1.38c0.78,0.48,1.47,1.12,2.11,1.78
		c1.17,1.18,1.75,2.55,1.81,4.3c0.33,10.09,0.78,20.17,1.18,30.26c0.41,10.33,0.84,20.65,1.23,30.98
		C145.9,163.35,145.83,165.71,145.83,168.2z M195.13,162.04c0.37-5.05,0.73-10.1,1.1-15.15c0.46-6.24,0.92-12.49,1.39-18.73
		c0.38-5.08,0.76-10.17,1.14-15.25c0.38-5.08,0.74-10.17,1.12-15.25c0.05-0.67-0.12-1.17-0.58-1.66c-3.45-3.61-7.68-5.5-12.65-5.77
		c-1.79-0.1-3.46,0.4-5.19,0.82c-2.81,0.69-4.91,2.18-6.52,4.45c-0.4,0.57-0.64,1.37-0.66,2.08c-0.13,5.75-0.19,11.5-0.28,17.25
		c-0.27,16.87-0.56,33.74-0.83,50.62c-0.01,0.36,0,0.73,0,1.24c7.26-1.3,14.45-1.74,21.75-1.98
		C194.99,163.74,195.07,162.89,195.13,162.04z M187.74,262.39c1.35-18.33,2.68-36.48,4.03-54.84c-6.55,0.56-12.92,1.1-19.33,1.64
		c-0.02,0.32-0.05,0.52-0.05,0.72c-0.27,15.81-0.54,31.63-0.8,47.44c-0.01,0.34,0.03,0.68,0.06,1.02c0.15,1.34,0.3,2.68,0.46,4.02
		C177.21,262.39,182.45,262.39,187.74,262.39z M128.31,214.71c0.65,5.88,1.31,11.76,1.96,17.64c0.51,4.59,1.02,9.18,1.5,13.77
		c0.08,0.77,0.36,1.22,1.12,1.49c1.47,0.53,2.8,1.3,3.75,2.59c0.46,0.62,0.82,1.31,1.24,1.97c4.24-4.93,5.01-5.14,11.48-3.02
		c-0.52-13.08-1.05-26.1-1.58-39.27c-6.71,0.27-13.25,0.53-19.89,0.8C128.04,212.08,128.17,213.4,128.31,214.71z"/>
	<path class="st1" d="M170.9,167.02c-7.53,0.72-14.98,1.21-22.55,1.21c-0.06-0.59-0.13-1.1-0.15-1.6
		c-0.3-7.73-0.58-15.46-0.89-23.19c-0.37-9.34-0.78-18.67-1.16-28.01c-0.22-5.44-0.45-10.88-0.62-16.32
		c-0.02-0.71,0.18-1.51,0.51-2.14c1.84-3.42,4.82-5.39,8.54-6.16c6.35-1.32,11.85,0.32,16.33,5.09c0.86,0.92,1.23,1.94,1.21,3.24
		c-0.37,20.64-0.7,41.28-1.05,61.93C171.03,163.02,170.96,164.96,170.9,167.02z M215.27,162.68c0.52-5.31,1.04-10.62,1.56-15.93
		c0.37-3.74,0.71-7.49,1.11-11.23c0.07-0.69-0.16-1-0.77-1.31c-0.91-0.46-1.81-1.01-2.54-1.7c-1.95-1.86-3.13-4.08-2.46-6.89
		c0.55-2.28,2.08-3.88,3.82-5.31c0.34-0.28,0.54-0.49,0.46-1c-0.48-2.95,0.45-4.85,3.07-6.28c0.55-0.3,0.65-0.68,0.71-1.22
		c0.44-4.63,0.91-9.26,1.36-13.89c0.22-2.24,0.42-4.48,0.63-6.76c-2.48-0.95-4.98-1.15-7.51-0.81c-5.11,0.68-9.15,3.24-12.37,7.18
		c-0.18,0.22-0.29,0.54-0.32,0.82c-0.22,2.66-0.41,5.32-0.61,7.98c-0.68,9.28-1.37,18.56-2.05,27.84
		c-0.69,9.31-1.37,18.63-2.05,27.94c-0.06,0.87-0.08,1.75-0.12,2.5c5.92,0.68,11.72,1.35,17.7,2.03
		C215,165.25,215.14,163.97,215.27,162.68z M95.95,98.72c0.99,7.49,1.96,14.98,2.96,22.47c0.99,7.46,2.01,14.91,3,22.36
		c0.95,7.12,1.91,14.23,2.81,21.35c0.11,0.85,0.42,1.18,1.21,1.29c3.49,0.47,6.97,0.98,10.46,1.43c1.48,0.19,2.97,0.29,4.5,0.43
		c0-0.33,0.02-0.53,0-0.72c-0.37-3.3-0.75-6.59-1.11-9.89c-1.05-9.59-2.1-19.17-3.15-28.76c-1.08-9.82-2.18-19.64-3.26-29.47
		c-0.1-0.88-0.39-1.61-1.02-2.27c-2.08-2.15-4.58-3.56-7.43-4.36c-3.24-0.91-6.47-0.87-9.75,0.2C95.44,94.86,95.7,96.79,95.95,98.72
		z M189.94,262.18c5.31,0,10.45,0,15.66,0c1.74-17.88,3.46-35.6,5.18-53.35c-5.61-1.21-11.16-1.3-16.83-1.28
		C192.61,225.86,191.27,244.05,189.94,262.18z M170.24,209.41c-6.84,0.14-13.52,0.28-20.29,0.42c0.49,12.16,0.97,24.13,1.46,36.24
		c3.07-2.71,6.42-3.69,10.23-3.04c3.49,0.6,6.86,4.1,5.48,8.63c-0.28,0.9-0.57,1.79-0.84,2.63c1.06,0.36,2.05,0.69,3.21,1.08
		C169.74,240.04,169.99,224.74,170.24,209.41z M124.1,246.51c1.84-0.14,3.62-0.28,5.51-0.42c-1.3-11.7-2.6-23.49-3.89-35.13
		c-5.07-0.12-9.96-0.24-14.91-0.36c0.93,7.01,1.87,14.04,2.8,21.04c5.32,0.64,7.23,2.8,6.44,7.24
		C124.05,240.13,125,242.95,124.1,246.51z"/>
	<path class="st2" d="M244.08,219.83c-3.35-3.21-7.15-5.45-11.24-7.15c-4.61-1.92-9.38-3.4-14.24-4.58
		c-7.99-1.95-16.08-2.96-24.3-2.67c-4.41,0.16-8.81,0.51-13.2,0.88c-7.98,0.66-15.96,1.16-23.98,1.22
		c-7.42,0.06-14.84,0.48-22.26,0.74c-5.06,0.17-10.13,0.57-15.18,0.42c-5.49-0.16-10.98-0.78-16.46-1.32
		c-4.25-0.42-8.49-0.98-12.73-1.55c-1.25-0.17-2.49-0.46-3.69-0.84c-3.79-1.18-7.45-2.67-11.02-4.43c-2.82-1.39-5.3-3.1-7.32-5.48
		c-0.21-0.24-0.31-0.76-0.2-1.06c4.04-11.99,8.12-23.97,12.19-35.95c0.06-0.19,0.15-0.36,0.23-0.55c1.37,1.09,2.62,2.26,4.04,3.17
		c1.94,1.26,3.94,2.48,6.05,3.42c3.11,1.4,6.24,2.83,9.66,3.35c4.19,0.63,8.38,1.24,12.57,1.87c7.19,1.08,14.42,1.57,21.69,1.44
		c6.5-0.12,13-0.18,19.49-0.43c7.76-0.3,15.5-0.79,23.18-2.08c3.33-0.56,6.73-0.68,10.1-0.99c0.95-0.09,1.91-0.14,2.87-0.19
		c6.83-0.39,13.59,0.23,20.33,1.32c3.78,0.61,7.61,0.95,11.34,1.79c8.19,1.84,15.84,4.95,22.35,10.47c1.12,0.95,1.56,1.95,1.46,3.45
		c-0.34,5.19-0.51,10.39-0.75,15.59c-0.29,6.46-0.58,12.93-0.87,19.39C244.17,219.27,244.13,219.47,244.08,219.83z M212.93,226.59
		c4.3,0.21,8.61,0.38,12.91,0.63c5.63,0.33,11.27,0.6,16.8,1.84c4.06,0.91,8.06,1.95,11.32,4.75c1.34,1.15,2.61,2.39,3.95,3.62
		c-0.08-0.42-0.13-0.85-0.23-1.26c-0.9-3.47-1.71-6.98-2.74-10.41c-0.79-2.61-1.87-5.12-2.81-7.69c-0.13-0.37-0.26-0.8-0.21-1.17
		c0.17-1.14,0.33-2.3,0.66-3.41c1.32-4.41,3.17-8.58,6.02-12.29c-3.1-3.24-6.75-5.47-11.1-6.68c-0.05,0.35-0.1,0.55-0.1,0.75
		c-0.22,5.06-0.43,10.12-0.67,15.17c-0.2,4.17-0.4,8.34-0.65,12.5c-0.1,1.65-0.9,2.38-2.54,2.22c-1.52-0.15-3.06-0.41-4.51-0.87
		c-3.42-1.08-6.78-2.34-10.18-3.46c-5.19-1.71-10.48-2.58-15.95-1.84c-0.51,0.07-0.95,0.1-1.01,0.76c-0.19,2.17-0.4,4.34-0.62,6.63
		C211.87,226.46,212.4,226.56,212.93,226.59z M58.89,177.78c3.17,2.13,6.68,3.41,10.4,4.19c0.65,0.14,0.81-0.22,0.99-0.72
		c2.84-8.39,5.69-16.77,8.53-25.16c0.16-0.48,0.24-0.99,0.26-1.5c0.05-1.19,0.57-1.96,1.76-2.18c0.72-0.13,1.52-0.2,2.23-0.05
		c3.84,0.82,7.68,1.68,11.49,2.62c2.21,0.55,4.41,1.12,6.83,1.27c-0.27-2.05-0.52-4-0.77-5.9c-0.15-0.07-0.21-0.12-0.27-0.12
		c-0.38,0-0.75-0.01-1.13,0.01c-6.39,0.3-12.54-0.8-18.48-3.12c-4.31-1.69-8.33-3.85-11.21-7.66c-0.03-0.03-0.12-0.01-0.25-0.02
		c-1.48,5.84-1.96,11.73-0.87,17.69c0.27,1.49,0.87,2.94,1.48,4.33c0.27,0.61,0.45,1.1,0.25,1.73c-1.01,3.15-2.72,5.89-4.88,8.35
		c-2,2.27-4.3,4.19-7.22,5.55C58.41,177.4,58.64,177.61,58.89,177.78z M240.86,219.7c-2.69-2.02-5.6-3.66-8.71-4.95
		c-5.54-2.3-11.29-3.91-17.11-5.29c-0.67-0.16-1.37-0.23-2.11-0.36c-0.25,2.66-0.49,5.13-0.72,7.61c0.88,0,1.64,0.08,2.37-0.01
		c3.31-0.45,6.56-0.02,9.77,0.68c5.08,1.11,10.01,2.74,14.8,4.77c1.45,0.61,2.96,0.99,4.74,1
		C243.05,221.71,242.07,220.6,240.86,219.7z M81.56,154.49c0.42,0.63,0.72,1.39,1.28,1.85c1.71,1.42,3.36,3.02,5.31,4
		c3.44,1.72,7.06,3.09,10.66,4.49c1.14,0.44,2.43,0.51,3.83,0.78c-0.31-2.34-0.57-4.47-0.91-6.59c-0.04-0.23-0.48-0.5-0.77-0.56
		c-1.21-0.23-2.45-0.29-3.64-0.58c-3.72-0.9-7.41-1.91-11.13-2.82c-1.45-0.36-2.93-0.58-4.39-0.87
		C81.7,154.29,81.63,154.39,81.56,154.49z"/>
	<path class="st3" d="M60.5,258.8c1.33-1.52,2.07-3.16,2-5.12c-0.01-0.16,0.02-0.37,0.12-0.47c0.92-0.96,1.82-1.94,2.82-2.82
		c0.57-0.51,1.35-0.78,1.96-1.24c1.89-1.41,3.96-2.38,6.27-2.92c3.55-0.82,7.71,2.35,7.21,6.16c-0.44,0.12-0.93,0.23-1.4,0.4
		c-0.74,0.25-1.08,0.87-0.84,1.49c0.26,0.67,0.82,0.85,1.61,0.51c2.63-1.13,6.17-0.24,7.99,2.03c1.52,1.89,2.2,4.1,2.13,6.5
		c-0.11,3.58-3.24,7.82-6.6,9.08c-0.93,0.35-1.81,0.2-2.7-0.14c-1.74-0.68-3.34-1.58-4.69-2.88c-0.17-0.17-0.33-0.42-0.54-0.46
		c-0.4-0.08-0.91-0.19-1.22-0.02c-0.26,0.15-0.49,0.77-0.38,1.04c0.32,0.75-0.05,1.16-0.51,1.59c-0.82,0.77-1.56,1.65-2.48,2.28
		c-1.63,1.13-3.55,1.17-5.44,1.02c-2.94-0.23-5.5-1.18-6.87-4.08c-0.21-0.46-0.39-0.96-0.44-1.46c-0.13-1.16,0.11-1.47,1.21-1.87
		c2.22-0.79,3.11-2.35,2.68-4.64C62.11,261.32,61.57,259.98,60.5,258.8z M77.68,264.46c0.26-0.23,0.75-0.46,0.81-0.78
		c0.07-0.32-0.18-0.91-0.46-1.08c-1.23-0.72-2.56-1.08-4.03-0.76c-3.25,0.71-6.12,3.96-6.34,7.26c-0.02,0.23,0.01,0.48,0.07,0.71
		c0.18,0.62,0.57,1.04,1.26,0.97c0.68-0.08,0.82-0.6,0.85-1.2c0.1-2.55,1.46-4.28,3.64-5.42c0.98-0.51,2.03-0.56,3.07-0.09
		C76.84,264.21,77.18,264.29,77.68,264.46z M68.96,253.16c0.09,0.13,0.24,0.52,0.51,0.66c0.24,0.12,0.66,0.04,0.94-0.09
		c0.39-0.18,0.78-0.43,1.08-0.75c0.21-0.22,0.39-0.61,0.34-0.88c-0.05-0.27-0.35-0.59-0.62-0.7C70.32,251.05,69,251.97,68.96,253.16
		z M158.04,59.46c-2.03,0.52-3.88,1.56-3.89,4.21c0,2.13,0.1,4.28,2.15,5.75c-0.71,0.39-1.32,0.73-1.9,1.05
		c-0.09-0.07-0.14-0.09-0.14-0.11c-0.29-3.02-2.42-4.72-4.6-6.35c-3.5-2.62-8.81-1.71-11.31,1.88c-0.19,0.27-0.38,0.55-0.56,0.82
		c-0.64-0.82-1.22-1.62-1.86-2.37c-0.78-0.91-1.76-1.5-2.95-1.72c-0.26-0.05-0.53-0.17-0.73-0.33c-1.56-1.33-2.42-4.95-1.47-6.71
		c0.35-0.64,0.99-1.21,1.63-1.59c0.62-0.37,1.33-0.32,1.95,0.33c0.46,0.48,1.07,0.86,1.68,1.15c0.5,0.24,1.12,0.22,1.42-0.4
		c0.3-0.62-0.02-1.04-0.57-1.34c-1.22-0.67-2.01-1.76-2.48-2.99c-0.69-1.78-1.28-3.6-1.73-5.45c-0.21-0.86-0.18-1.88,0.09-2.72
		c0.88-2.76,2.44-5.04,5.21-6.26c2.26-1,4.62-0.41,6.16,1.54c1.51,1.91,1.76,4.11,1.31,6.42c-0.07,0.35-0.44,0.66-0.71,0.95
		c-1.02,1.08-1.73,2.28-1.6,3.85c0.05,0.62,0.23,1.11,0.92,1.12c0.68,0.01,0.94-0.44,1.01-1.06c0.25-2.14,2.67-4.38,4.8-4.45
		c1.43-0.05,2.83,1.14,3.13,2.74c0.15,0.8,0.16,1.63,0.23,2.44c-0.88,0.45-1.7,0.85-2.51,1.29c-0.33,0.18-0.75,0.37-0.88,0.67
		c-0.18,0.41-0.11,0.92-0.15,1.39c0.44,0.04,0.93,0.22,1.3,0.08c0.92-0.36,1.75-0.93,2.66-1.31c1.69-0.72,3.23-0.29,4.56,0.87
		c0.24,0.21,0.39,0.69,0.36,1.03C158.44,55.64,158.24,57.43,158.04,59.46z M145.04,57.43c0,1.57,1.08,3.29,2.37,3.74
		c0.48,0.17,1.11,0.2,1.57,0.03c0.34-0.13,0.67-0.69,0.71-1.08c0.05-0.54-0.43-0.82-0.98-0.79c-0.89,0.05-1.28-0.56-1.55-1.24
		c-0.12-0.3,0.03-0.71-0.11-1c-0.18-0.38-0.49-0.92-0.8-0.96c-0.32-0.04-0.76,0.39-1.05,0.7C145.03,56.99,145.06,57.34,145.04,57.43
		z M117.38,254.67c-0.19-0.48-0.38-0.95-0.6-1.51c0.65-0.3,1.32-0.54,1.92-0.91c1.13-0.7,2.17-1.55,3.32-2.2
		c2.54-1.43,5.16-2.58,8.15-1.35c1.04,0.43,2.07,0.89,3.07,1.41c2.09,1.08,2.76,3.02,2.96,5.18c0.02,0.2-0.26,0.53-0.47,0.65
		c-4.48,2.57-6.53,6.73-7.53,11.56c-0.34,1.66,0.58,2.97,1.46,4.22c0.17,0.24,0.85,0.31,1.16,0.18c0.24-0.11,0.41-0.68,0.39-1.03
		c-0.02-0.38-0.25-0.79-0.49-1.11c-0.62-0.86-0.63-1.78-0.39-2.74c0.7-2.82,2.02-5.32,4.03-7.39c1.84-1.9,4.13-2.94,6.78-2.2
		c2.64,0.74,4.54,2.44,5.32,5.2c0.58,2.07,0.83,4.15,0.47,6.29c-0.29,1.69-1.19,2.8-2.95,3.09c-0.37,0.06-0.74,0.15-1.1,0.23
		c-0.6,0.13-1.02,0.44-0.96,1.12c0.07,0.71,0.59,1.04,1.22,0.97c0.84-0.09,1.67-0.34,2.5-0.53c0.17-0.04,0.33-0.09,0.57-0.16
		c0.2,0.73-0.04,1.35-0.55,1.74c-1.26,0.97-2.68,1.54-4.3,1.11c-1.62-0.43-2.35-1.69-2.04-3.36c0.1-0.56,0.05-1.07-0.56-1.26
		c-0.61-0.19-1.12,0.1-1.31,0.68c-0.17,0.5-0.11,1.08-0.24,1.6c-0.1,0.43-0.22,0.92-0.5,1.23c-2.69,3.04-6.06,3.47-9.62,2.1
		c-2.59-1-4.28-3.02-4.7-5.88c-0.06-0.38,0.23-0.91,0.52-1.21c1.37-1.43,2.54-2.94,2.95-4.95c0.79-3.85-1.27-8.41-4.74-10.2
		c-0.72-0.37-1.63-0.4-2.46-0.54C118.24,254.62,117.83,254.67,117.38,254.67z M127,256.88c0.34,0.38,0.56,0.85,0.85,0.9
		c0.35,0.06,0.87-0.15,1.12-0.42c0.28-0.3,0.33-0.8,0.48-1.22c0.25-0.66,0.42-1.39,0.79-1.97c0.37-0.58,0.69-1.05,0.08-1.6
		c-0.45-0.41-1.33-0.28-1.68,0.4C128.01,254.2,127.56,255.52,127,256.88z M114.34,95.92c-2.31-2.57-5.14-4.12-8.24-5.35
		c-2.21-0.88-3.38-2.83-3.71-5.17c-0.14-1,0.23-1.89,1.35-2.34c0.21,0.59,0.4,1.16,0.6,1.73c0.75,2.15,2.75,2.82,4.75,2.92
		c0.69,0.03,1.31-0.3,1.33-1.13c0.02-0.82-0.58-1.01-1.26-1.01c-2.76,0-3.67-2.27-3.12-4.26c0.18-0.66,0.33-1.33,0.55-1.97
		c0.34-0.94,1-1.54,2.03-1.64c0.6-0.05,1-0.32,0.99-0.94c-0.01-0.67-0.48-1-1.08-1c-1.63,0-2.81,0.86-3.54,2.24
		c-0.49,0.92-0.74,1.97-1.1,2.96c-2.07-0.13-3.13-1.58-4.06-3.18c-1.48-2.53-1.09-7.42,1.49-9.44c1.12-0.88,2.28-1.35,3.68-1.19
		c0.67,0.08,1.26,0.05,1.42-0.76c0.14-0.7-0.3-1.29-1.15-1.41c-0.6-0.08-1.22-0.02-1.83-0.02c0.3-3.47,4.68-5.66,8.48-4.48
		c-0.08,1.25-0.29,2.46-0.19,3.65c0.13,1.62,0.87,2.99,2.24,3.99c0.24,0.17,0.41,0.61,0.4,0.92c-0.12,3.49,1.72,5.41,5.26,5.37
		c1.22-0.01,2.44-0.11,3.56-0.17c0.37,1.48,0.74,2.95,1.16,4.63c-1.44,1.16-1.95,2.96-1.71,5.03c0.22,1.95,0.46,3.89,2.12,5.41
		C120.52,90.44,116.95,92.38,114.34,95.92z M120.67,83.16c0.03-1.85-1.17-3.28-2.76-3.31c-0.56-0.01-1.13,0.14-1.13,0.75
		c0,0.36,0.35,0.89,0.69,1.06c1.46,0.76,1.68,1.92,0.42,2.99c-0.53,0.45-0.87,0.9-0.45,1.56c0.33,0.52,1.2,0.52,1.83,0
		C120.23,85.43,120.68,84.39,120.67,83.16z M188.05,55.08c-0.6,0.5-1.12,0.94-1.73,1.45c-2.24-1.4-4.68-1.64-6.97-0.81
		c-0.92-0.83-1.65-1.64-2.52-2.22c-0.97-0.64-2.08-0.52-3.1-0.03c-0.37-1.03-0.64-2.05-1.09-2.99c-1.12-2.32-2.9-3.72-5.6-3.51
		c-3.04,0.24-3.33-0.71-3.86-3.41c-0.15-0.76-0.19-1.56-0.18-2.35c0.02-1.41,0.82-2.31,2.04-2.88c0.25,1.07,0.46,2.1,0.73,3.11
		c0.09,0.35,0.27,0.71,0.5,1c0.35,0.45,0.91,0.68,1.34,0.27c0.26-0.25,0.45-0.92,0.3-1.22c-0.97-1.92-0.67-3.79,0.04-5.66
		c0.58-1.52,1.65-2.54,3.2-3.11c1.93-0.71,3.81-0.78,5.63,0.26c0.43,0.24,0.84,0.6,1.12,1c0.5,0.71,0.57,1.27-0.16,2.11
		c-1.06,1.21-1.8,2.71-2.58,4.14c-0.24,0.44-0.28,1.09-0.15,1.58c0.1,0.34,0.62,0.74,0.98,0.78c0.26,0.03,0.79-0.48,0.83-0.8
		c0.19-1.51,1.01-2.66,1.89-3.81c0.62-0.81,1.42-1.24,2.41-1.42c1.35-0.25,2.21,0.2,2.57,1.53c0.2,0.75,0.28,1.55,0.37,2.32
		c0.08,0.7,0.38,1.2,1.14,1.17c0.78-0.03,1.02-0.57,1-1.28c-0.09-2.42-0.58-4.64-3.03-5.82c1.8-3.6,8.05-4.7,10.54-2.51
		c0.74,0.65,1.77,1.05,2.34,1.81c2.35,3.15,1.14,7.38-2.22,8.77c-0.35,0.14-0.7,0.29-1.06,0.37c-3.19,0.69-4.74,2.89-5.39,5.9
		C186.87,50.97,187.23,53.03,188.05,55.08z M180.91,50.46c-0.03,1.14,0.35,2.09,1.22,2.82c0.44,0.37,1.01,0.49,1.36,0.02
		c0.22-0.3,0.3-0.99,0.1-1.26c-0.87-1.19-0.77-2.3-0.1-3.52c0.15-0.27,0.08-0.91-0.12-1.07c-0.28-0.22-0.91-0.33-1.18-0.15
		c-0.42,0.27-0.77,0.77-0.95,1.25C181.01,49.15,181.01,49.82,180.91,50.46z M201.85,76.18c-0.1-5.97-5.63-7.69-10.28-4.86
		c-0.16-0.57-0.33-1.1-0.45-1.65c-0.46-1.97-1.5-3.51-3.35-4.42c-0.55-0.27-0.77-0.67-0.91-1.25c-0.48-2.06-0.35-4.02,0.9-5.79
		c1.18-1.67,3.55-1.98,5.17-0.72c0.42,0.33,0.58,0.67,0.43,1.23c-0.23,0.86-0.36,1.74-0.48,2.62c-0.08,0.64,0.12,1.21,0.87,1.26
		c0.67,0.05,0.97-0.41,1.05-1.02c0.21-1.76,0.71-3.44,1.83-4.83c0.74-0.92,1.57-1.89,2.57-2.45c3.02-1.66,6.28-2.82,9.77-2.68
		c5.48,0.22,6.69,4.9,5.46,8.71c-0.25,0.76-0.68,1.13-1.6,0.9c-2.01-0.5-4.01-0.18-5.97,0.37c-0.29,0.08-0.58,0.2-0.85,0.35
		c-0.55,0.31-0.96,0.74-0.66,1.41c0.31,0.69,0.87,0.62,1.48,0.38c1.93-0.76,3.92-0.93,5.93-0.42c0.48,0.12,0.98,0.37,1.34,0.71
		c2.05,1.9,1.18,6.29-1.43,7.25c-0.54,0.2-1.12,0.31-1.69,0.39c-1.19,0.18-1.5,0.65-1.14,1.84c0.51,1.71-0.2,3.31-1.81,4.12
		c-0.67,0.33-1.18,0.29-1.83-0.26c-0.66-0.56-1.57-0.9-2.43-1.15C203.17,76.04,202.49,76.18,201.85,76.18z M196.23,68.85
		c1.09-0.09,2.02-0.44,2.74-1.18c1.54-1.59,2.24-3.57,2.39-5.74c0.02-0.32-0.38-0.87-0.68-0.95c-0.32-0.09-0.81,0.19-1.12,0.44
		c-0.2,0.16-0.22,0.55-0.31,0.84c-0.22,0.75-0.37,1.53-0.67,2.25c-0.92,2.22-1.42,2.45-3.73,1.87c-0.07-0.02-0.15-0.06-0.2-0.04
		c-0.4,0.17-0.96,0.25-1.17,0.56c-0.34,0.51,0.01,1.01,0.54,1.23C194.74,68.41,195.49,68.61,196.23,68.85z M139.1,254.9
		c0.65-4.23,5.68-6.37,8.89-3.84c0.19,0.15,0.21,0.57,0.21,0.87c-0.02,1.36-0.1,2.72-0.12,4.08c0,0.26,0.05,0.61,0.22,0.76
		c0.27,0.25,0.69,0.54,0.99,0.48c0.29-0.06,0.66-0.5,0.71-0.82c0.09-0.67-0.05-1.36-0.01-2.05c0.19-3.86,3.29-8.82,7.94-9.22
		c1.3-0.11,2.69-0.1,3.94,0.22c2.55,0.64,3.82,3.02,3.18,5.57c-0.13,0.53-0.32,1.05-0.49,1.56c-0.42,1.25-1,2.21-2.5,2.49
		c-1.28,0.24-2.37,1.06-3.17,2.14c-0.26,0.35-0.56,0.77-0.57,1.17c-0.01,0.4,0.21,1.01,0.5,1.15c0.28,0.13,0.99-0.12,1.17-0.41
		c0.94-1.55,2.24-2.31,4.05-2.31c0.8,0,1.62-0.29,2.39-0.18c1.87,0.28,3.33,1.93,3.45,3.69c0.14,2.01-0.9,3.6-2.75,4.33
		c-1.84,0.72-3.58,0.8-5.21-0.53c-0.2-0.16-0.51-0.32-0.74-0.29c-0.4,0.07-0.99,0.19-1.11,0.46c-0.14,0.34-0.02,1,0.24,1.24
		c0.63,0.56,1.37,1.02,2.14,1.38c0.52,0.25,0.7,0.53,0.67,1.08c-0.22,5.51-5.38,7.1-8.73,5.39c-1.44-0.74-2.71-1.84-3.94-2.91
		c-0.87-0.76-1.16-1.86-1.23-3.05c-0.09-1.63-0.26-3.27-0.53-4.88c-0.68-4.08-5.22-7.69-9.21-7.53
		C139.38,254.97,139.28,254.94,139.1,254.9z M150.94,262.69c0.07,0.02,0.14,0.05,0.21,0.07c-0.08,1.88,0.65,3.32,2.32,4.23
		c0.48,0.26,0.97,0.5,1.46,0.75c0.51,0.26,1.12,0.32,1.32-0.25c0.15-0.41,0-1.08-0.26-1.44c-0.27-0.37-0.85-0.53-1.3-0.77
		c-1.86-0.98-2.17-3.69-0.56-5.06c0.51-0.43,0.56-0.95,0.25-1.46c-0.33-0.54-0.9-0.68-1.43-0.34c-0.38,0.24-0.79,0.61-0.95,1.02
		C151.57,260.48,151.28,261.6,150.94,262.69z M156.06,251.14c0.93-0.2,1.69-0.28,2.38-0.54c0.3-0.11,0.61-0.57,0.63-0.9
		c0.02-0.26-0.32-0.67-0.6-0.82c-0.6-0.33-2.49,0.06-2.87,0.59c-0.2,0.29-0.31,0.78-0.21,1.1
		C155.45,250.85,155.89,251.02,156.06,251.14z M97.43,70.23c-0.26-0.18-0.42-0.29-0.58-0.41c-1.58-1.21-3.33-1.53-5.22-0.9
		c-0.68,0.22-1.38,0.47-1.96,0.87c-1.33,0.92-2.59,0.63-3.86-0.04c-3.25-1.71-4.18-6.21-3.73-8.4c0.33-1.59,1.83-2.94,3.44-3.1
		c0.3-0.03,0.66,0.22,0.95,0.41c1.04,0.71,2.04,1.47,3.1,2.15c0.56,0.36,1.23,0.42,1.58-0.3c0.35-0.71-0.13-1.15-0.72-1.46
		c-3.52-1.85-4.52-4.97-4.26-8.65c0.06-0.79,0.48-1.67,1-2.3c1.18-1.44,2.76-2.33,4.64-2.57c2.26-0.29,4.26,1.61,4.11,3.9
		c0,0.07-0.01,0.14-0.02,0.2c-0.11,0.76-0.11,1.52,0.81,1.72c0.86,0.19,1.15-0.48,1.41-1.17c0.51-1.34,1.58-2.04,2.92-2.3
		c0.83-0.16,1.72-0.02,2.21,0.74c0.6,0.92,0.88,2.09,0.26,3.01c-0.72,1.09-1.77,1.96-2.7,2.9c-0.1,0.1-0.39,0.03-0.59,0.03
		c-0.95,0.03-1.91,0.02-2.86,0.1c-0.61,0.05-1.19,0.31-1.14,1.06c0.05,0.75,0.64,0.89,1.27,0.89c0.2,0,0.41-0.02,0.61-0.05
		c2.15-0.41,3.74,0.77,5.3,1.95c0.4,0.31,0.61,0.88,0.88,1.28c-0.67,0.82-1.31,1.54-1.88,2.3c-0.63,0.84-1,1.77-0.97,2.86
		c0.01,0.29-0.15,0.69-0.37,0.86C99.5,66.97,98.13,68.28,97.43,70.23z M89.18,65.98c2.13-0.33,3.89-1.7,5.29-3.61
		c0.4-0.55,0.68-1.17,0.04-1.74c-0.48-0.43-1.07-0.22-1.71,0.57c-0.15,0.19-0.28,0.39-0.44,0.57c-0.99,1.13-2.13,2.03-3.66,2.27
		c-0.64,0.1-1.19,0.29-1.14,1.03C87.6,65.87,88.22,66,89.18,65.98z M176.08,77.16c-3.52,4.34-2.68,10.18,1.27,13.02
		c-0.82,0.66-1.68,1.27-2.43,1.98c-0.76,0.73-1.42,1.56-2.12,2.34c-7.6-7.14-15.92-8.45-25.18-3.02c0.06,0.03-0.04,0.02-0.05-0.03
		c-1.4-3.25-1.01-6.7,2.72-8.04c0.76-0.27,1.3-0.26,1.58,0.64c0.12,0.39,0.34,0.75,0.56,1.09c0.36,0.55,0.88,0.83,1.48,0.46
		c0.58-0.36,0.5-0.92,0.21-1.45c-1.12-2.05-1.4-4.25-1.26-6.54c0.24-3.96,2.51-5.99,6.12-6.54c2.29-0.34,4.37,0.84,5.39,2.92
		c0.2,0.4,0.35,0.82,0.52,1.23c0.46,1.08,0.56,1.96-0.44,2.99c-0.68,0.7-0.86,1.95-1.11,3c-0.15,0.62,0.17,1.28,0.94,1.35
		c0.82,0.07,1.02-0.55,1.04-1.23c0.04-1.43,0.79-2.34,2.05-2.92c1.81-0.84,3.66-1.58,5.68-1.62
		C174.02,76.76,174.99,77.02,176.08,77.16z M166.69,89.05c0.45-0.06,0.8-0.08,1.13-0.16c1.94-0.49,3.53-2.98,3.1-4.94
		c-0.07-0.33-0.47-0.78-0.76-0.8c-0.35-0.03-0.9,0.23-1.06,0.53c-0.32,0.58-0.42,1.28-0.61,1.94c-0.41,1.37-2.05,1.85-2.99,0.79
		c-0.73-0.83-1.43-1.06-2.51-0.79c-1.32,0.34-1.73-0.02-1.91-1.29c-0.08-0.6-0.31-1.09-1-1.07c-0.69,0.02-0.88,0.53-0.95,1.12
		c-0.2,1.71,0.58,2.9,2.28,3.19c1.36,0.24,2.78,0.13,3.93,1.18C165.64,89.02,166.29,88.96,166.69,89.05z M220.79,118.42
		c1.19-0.15,2.33,0.04,3.33,0.74c0.51,0.36,0.86,0.86,0.46,1.48c-0.37,0.57-0.88,0.4-1.45,0.24c-0.83-0.23-1.75-0.49-2.56-0.35
		c-2.76,0.45-4.7,2.16-5.95,4.59c-0.38,0.74-0.54,1.76-0.38,2.56c0.52,2.54,2.29,3.99,4.64,4.91c2.23,0.87,3.8-0.17,5.36-1.54
		c0.58-0.51,0.72-0.9,0.37-1.64c-0.41-0.85-0.67-1.79-0.85-2.72c-0.13-0.64,0.13-1.27,0.9-1.37c0.71-0.09,1,0.39,1.18,1.02
		c0.26,0.88,0.55,1.77,0.93,2.6c1.11,2.43,3.36,3.4,5.86,2.52c2.17-0.76,4.01-2.06,5.61-3.69c2.3-2.34,1.35-7.13-2.2-7.92
		c-2.06-0.46-4.07-0.36-6.03,0.46c-0.56,0.23-1.1,0.33-1.45-0.25c-0.38-0.63-0.05-1.17,0.51-1.45c0.67-0.33,1.39-0.69,2.11-0.72
		c1.21-0.05,1.64-0.73,1.87-1.74c0.08-0.33,0.27-0.68,0.22-0.99c-0.11-0.65-0.19-1.42-0.58-1.89c-1.11-1.33-4.49-1.77-6.18-0.88
		c0.69,0.37,1.43,0.61,1.98,1.08c0.73,0.63,1.4,1.38,1.94,2.17c0.31,0.46,0.23,1.1-0.4,1.39c-0.58,0.27-0.95-0.07-1.3-0.51
		c-0.35-0.45-0.69-0.97-1.15-1.27c-2.51-1.63-5.08-1.63-7.62-0.04c-1.18,0.73-1.7,2.15-1.33,3.67
		C219.39,118.7,220.08,118.51,220.79,118.42z M213.93,88.18c-0.08-3.72-2.59-6.74-5.93-6.1c-0.1-0.66-0.2-1.31-0.27-1.8
		c0.95-0.61,1.82-1.07,2.59-1.67c1.24-0.95,1.85-2.3,1.85-3.84c0-0.84,0.29-1.14,1.07-1.41c2.17-0.76,3.67-2.17,4-4.6
		c0.26-1.88,1.57-2.89,3.47-2.78c3.15,0.18,5.26,2.32,5.31,5.4c0.01,0.92-0.21,1.75-0.86,2.45c-0.53,0.56-1.07,0.8-1.9,0.66
		c-2.19-0.38-4.11,0.34-5.81,1.72c-0.05,0.04-0.1,0.09-0.15,0.14c-0.45,0.47-0.65,1.03-0.2,1.56c0.48,0.58,1.01,0.34,1.52-0.08
		c1.69-1.4,3.53-1.79,5.64-0.96c1.26,0.5,1.77,1.4,1.87,2.66c0.2,2.59,0.27,2.63,2.72,2.02c1.69-0.43,2.43,0.07,2.79,1.76
		c0.77,3.64-2.29,7.39-6.27,6.94c-0.29-0.03-0.57-0.25-0.84-0.41c-0.26-0.15-0.49-0.36-0.77-0.47c-2.44-1.02-4.99-1.43-7.62-1.33
		C215.42,88.08,214.71,88.13,213.93,88.18z M215.65,81.93c0.13-0.68,0.01-1.25-0.73-1.36c-0.77-0.11-1.08,0.45-1.25,1.09
		c-0.05,0.19-0.07,0.41-0.05,0.61c0.18,1.87,1.27,3.07,2.93,3.75c1.6,0.65,3.1,0.24,4.45-0.72c0.52-0.37,0.65-1,0.25-1.55
		c-0.4-0.54-0.9-0.41-1.46-0.14c-0.6,0.29-1.26,0.57-1.91,0.59C216.62,84.25,215.58,83.08,215.65,81.93z M107.51,248.13
		c2.95-0.49,5.56,0.09,7.69,2.35c0.27,0.28,0.95,0.47,1.3,0.33c2.68-1.05,5.09-2.42,5.64-5.65c0.22-1.31,0.01-2.42-0.99-3.36
		c-0.96-0.9-1.92-0.52-2.96-0.17c-0.42,0.14-1.19,0.15-1.37-0.1c-0.25-0.35-0.22-1.02-0.07-1.49c0.16-0.5,0.61-0.9,0.88-1.37
		c1.13-2,0.09-4.3-2.16-4.75c-1.24-0.25-2.45-0.07-3.61,0.44c-0.97,0.43-1.8,0.97-1.97,2.16c-0.08,0.56-0.43,0.96-1.06,0.89
		c-0.69-0.08-0.86-0.59-0.85-1.2c0.04-1.27,0.74-2.17,1.68-2.92c0.34-0.27,0.7-0.5,1.22-0.88c-0.65-0.17-1.09-0.37-1.55-0.4
		c-1.22-0.08-1.49,0.26-1.65,1.46c-0.12,0.98-0.21,2.05-0.68,2.86c-0.79,1.35-0.52,2.63-0.09,3.89c0.88,2.58,1.55,5.13,0.21,7.81
		C107.38,248.1,107.44,248.14,107.51,248.13z M200.68,94.34c0.56,0.74,1,0.57,1.56,0c2.45-2.53,5.35-4.33,8.69-5.42
		c0.29-0.1,0.63-0.43,0.72-0.72c0.41-1.32-0.51-3.32-1.75-3.94c-0.92-0.46-1.92-0.24-2.29,0.56c-0.94,2.02-2.65,2.97-4.72,3.36
		c-0.74,0.14-1.53,0.02-2.38,0.02c0.2,1.77-0.05,3.31-1.39,4.43C199.72,93.28,200.25,93.77,200.68,94.34z M250.17,48.63
		c-0.81-0.29-1.55-0.57-2.29-0.82c-1.38-0.47-2.76-0.39-4.12,0.09c-0.87,0.31-1.25,0.79-1,1.38c0.31,0.74,0.9,0.69,1.55,0.53
		c3.7-0.94,8.39,2,9.25,5.75c0.38,1.68,0.12,3.18-1.33,4.21c-1.22,0.86-2.48,1.74-3.85,2.27c-2.64,1.03-4.63,0.43-6.32-1.85
		c-0.79-1.07-1.23-2.4-1.88-3.59c-0.19-0.35-0.58-0.83-0.85-0.82c-0.37,0.02-0.83,0.39-1.04,0.74c-0.18,0.3-0.17,0.81-0.06,1.18
		c0.23,0.78,0.58,1.52,0.88,2.3c-1.89,2.71-5.68,2.44-7.28-0.55c-0.91-1.7,0.61-5.01,2.44-5.43c0.35-0.08,0.82-0.5,0.86-0.81
		c0.05-0.32-0.29-0.94-0.58-1.02c-0.5-0.15-1.17-0.15-1.63,0.08c-0.71,0.36-1.31,0.97-2.01,1.51c-0.04-0.02-0.19-0.05-0.27-0.14
		c-1.7-1.74-2.52-3.83-2.18-6.24c0.29-2.07,2.7-3.54,4.74-3.02c1.83,0.46,2.05,0.23,2.26-1.7c0.08-0.73,0.43-1.54,0.92-2.09
		c3.53-3.94,8.34-4.38,12.36,0.49c1.13,1.37,1.93,2.99,2.15,4.81C250.99,46.86,250.85,47.79,250.17,48.63z M237.92,48.46
		c0.1,1.93,0.69,3.22,2.02,4.1c0.51,0.34,1.12,0.5,1.56-0.08c0.44-0.57,0.16-1.06-0.32-1.51c-1.5-1.39-1.58-2.31-0.45-3.96
		c0.17-0.24,0.26-0.71,0.14-0.92c-0.15-0.27-0.62-0.6-0.86-0.54c-0.48,0.12-1.08,0.39-1.3,0.79
		C238.28,47.08,238.09,47.96,237.92,48.46z"/>
	<path class="st4" d="M104.38,239.68c0.3,0.88,0.57,1.76,0.9,2.62c0.84,2.2,0.44,4.28-0.79,6.17c-0.8,1.22-1.77,2.35-2.82,3.37
		c-1.43,1.39-3.48,1.51-5.23,0.53c-0.51-0.29-0.76-0.59-0.55-1.23c0.19-0.58,0.24-1.21,0.29-1.82c0.06-0.65-0.04-1.29-0.85-1.4
		c-0.87-0.11-1.08,0.55-1.22,1.22c-0.16,0.73-0.23,1.49-0.44,2.21c-0.57,1.96-1.96,3.03-4,3.04c-0.48,0-1.02-0.19-1.43-0.45
		c-1.3-0.82-2.67-1.38-4.21-1.5c-0.61-0.05-0.88-0.33-0.96-0.95c-0.14-0.98-0.43-1.93-0.58-2.91c-0.22-1.43,0.01-2.81,0.75-4.06
		c1.58-2.67,4.57-3.99,7.62-3.5c1.69,0.27,2.86,1.21,3.75,2.59c0.07,0.11,0.14,0.24,0.19,0.36c0.3,0.65,0.78,1.03,1.47,0.68
		c0.71-0.37,0.59-1.03,0.28-1.61c-1.03-1.91-2.45-3.36-4.65-3.9c-5.19-1.27-9.87,1.41-11.44,6.55c-0.02,0.06-0.08,0.1-0.07,0.08
		c-1.69-0.75-3.34-1.49-5-2.22c-0.21-0.09-0.47-0.14-0.7-0.12c-1.11,0.1-1.81-0.5-2.36-1.35c-1.04-1.61-1.51-3.35-1.2-5.28
		c0.25-1.54,0.9-2.14,2.46-2.2c0.31-0.01,0.62,0.05,0.92,0.02c0.74-0.08,1.02,0.31,1.34,0.93c0.51,0.98,1.14,1.95,1.91,2.74
		c0.37,0.38,1.17,0.43,1.78,0.46c0.22,0.01,0.59-0.46,0.65-0.76c0.05-0.25-0.18-0.77-0.39-0.84c-1.55-0.5-1.99-1.83-2.35-3.14
		c-1.02-3.75-0.97-7.48,0.9-10.98c0.61-1.15,1.46-2.26,2.45-3.11c1.74-1.5,3.87-1.79,5.97-0.85c2.53,1.13,4.64,2.82,5.51,5.61
		c0.4,1.27,0.65,2.58,0.97,3.87c0.12,0.5,0.2,1.02,0.4,1.48c0.29,0.66,1.03,0.9,1.64,0.61c0.6-0.28,0.72-0.97,0.49-1.67
		c-0.33-1.03-0.69-2.09-0.72-3.15c-0.02-0.56,0.5-1.27,0.97-1.68c1.75-1.51,4.97-1.26,6.64,0.58c2.71,2.98,3.51,6.49,2.49,10.39
		c-0.44,1.7-1.49,2.72-3.34,2.78c-0.54,0.02-1.08,0.14-1.62,0.23c-1.01,0.16-1.49,0.62-1.39,1.3c0.1,0.7,0.69,1.02,1.69,0.86
		C101.77,240.11,103.05,239.9,104.38,239.68z M92.39,236.33c1.13,0.03,1.79-0.37,1.74-1.1c-0.07-0.99-0.81-0.88-1.51-0.9
		c-1.61-0.04-2.36-0.79-2.63-2.41c-0.05-0.3-0.38-0.72-0.65-0.77c-0.33-0.06-0.88,0.09-1.06,0.34c-0.24,0.35-0.35,0.89-0.3,1.32
		C88.24,234.78,90.16,236.28,92.39,236.33z M94.27,269.1c-1.92-0.58-2.54-1.7-2.04-3.74c0.67-2.71,0.21-5.29-0.98-7.77
		c-0.18-0.37-0.39-0.72-0.66-1.2c1.75-0.36,3.24-1.11,4.31-2.6c1.85,1.17,3.76,1.57,5.83,0.96c1.73-0.51,3.01-1.68,4.02-3.06
		c1.36-1.84,3.25-1.67,5.1-1.62c1.77,0.05,3.31,0.82,4.11,2.47c0.68,1.4,1.12,2.91,1.66,4.38c0.1,0.29,0.05,0.69,0.23,0.87
		c0.3,0.3,0.75,0.65,1.12,0.63c0.29-0.02,0.6-0.53,0.81-0.87c0.12-0.21,0.06-0.53,0.08-0.82c1.06-0.23,1.96-0.04,2.82,0.59
		c4.48,3.31,4.39,10.2-1.52,12.93c-1.37,0.63-2.94,0.84-4.44,1.18c-0.76,0.17-1.13-0.17-1.1-1.01c0.02-0.71-0.05-1.44-0.22-2.13
		c-0.16-0.63-0.61-1.12-1.36-0.95c-0.73,0.17-0.81,0.78-0.7,1.39c0.37,1.99-0.04,3.87-0.67,5.74c-1,2.97-3.09,4.6-6.12,5.07
		c-2.96,0.47-5.3-0.72-7.13-2.96c-2.15-2.64-1.95-6.68,0.4-9.18c0.27-0.29,0.73-0.41,0.98-0.71c0.26-0.3,0.61-0.83,0.51-1.06
		c-0.16-0.33-0.73-0.7-1.06-0.65c-0.57,0.09-1.22,0.38-1.59,0.8C95.82,266.8,95.11,267.92,94.27,269.1z M107.71,257.16
		c-1.19,0.37-2.41,0.67-3.56,1.15c-0.52,0.22-0.98,0.74-1.32,1.23c-0.37,0.54-0.26,1.16,0.34,1.5c0.55,0.31,1.05,0.17,1.4-0.4
		c0.14-0.22,0.31-0.47,0.52-0.6c2.36-1.48,6.23-0.26,7.36,2.33c0.27,0.63,0.57,1.15,1.33,0.93c0.76-0.22,0.76-0.89,0.67-1.52
		c-0.04-0.29-0.13-0.63-0.31-0.85C112.49,258.93,110.59,257.32,107.71,257.16z M94.23,260.27c0.53,0.47,0.87,0.99,1.32,1.13
		c0.63,0.19,0.97-0.27,1.06-0.93c0.04-0.27,0.2-0.63,0.41-0.74c0.69-0.36,1.06-0.79,0.6-1.53c-0.34-0.55-1.38-0.66-1.92-0.09
		C95.16,258.67,94.79,259.41,94.23,260.27z M136.38,70.78c-0.64-0.18-1.29-0.33-1.92-0.55c-0.64-0.23-1.25-0.36-1.56,0.41
		c-0.29,0.74,0.18,1.19,0.81,1.42c3.91,1.46,7.33,0.99,10.29-1.97c0.45-0.45,0.68-0.99,0.19-1.55c-0.49-0.56-1.04-0.38-1.56-0.01
		c-0.75,0.54-1.44,1.16-2.23,1.63c-0.52,0.31-1.16,0.42-1.83,0.64c0.31-3.43,3.06-6.35,6.51-6.15c2.85,0.17,4.61,2.02,6.3,3.97
		c0.37,0.43,0.42,1.13,0.6,1.72c0.17,0.58,0.32,1.16,0.5,1.81c-1.46,2.34-1.7,3.63-1.62,8.86c-1.75,0.39-3.3,1.18-4.51,2.57
		c-1.04,1.18-1.6,2.53-1.55,4.12c0.07,1.85,0.13,3.7,1.33,5.28c-0.59,0.77-1.17,1.53-1.6,2.08c-0.92-0.81-1.81-1.65-2.76-2.41
		c-3.78-2.99-8.17-3.99-12.89-3.87c-1.79,0.05-3.4-1.03-3.81-2.76c-0.23-0.99-0.3-2.02-0.38-3.04c-0.11-1.45,0.67-2.39,1.87-3.03
		c1.21-0.64,1.2-1.32,0.11-2.18c-0.49-0.39-0.93-1.05-1.06-1.66c-0.48-2.21-0.34-4.45,0.41-6.57c0.81-2.29,2.62-3.7,4.8-4.63
		c1.17-0.5,2.29-0.04,3.17,0.63c1.62,1.22,2.08,3.12,2.56,4.96C136.52,70.59,136.45,70.69,136.38,70.78z M144.64,81.9
		c-0.46-1.12-0.8-2.24-1.38-3.21c-0.29-0.48-0.99-0.85-1.58-0.98c-0.34-0.08-0.98,0.3-1.18,0.65c-0.29,0.5,0.07,0.91,0.6,1.2
		c0.38,0.21,0.73,0.59,0.93,0.98c0.53,1.04,0.31,2.04-0.33,2.99c-0.33,0.49-0.4,1.08,0.13,1.47c0.57,0.41,1.19,0.21,1.51-0.35
		C143.84,83.81,144.19,82.9,144.64,81.9z M185.11,58.39c-0.17,1.02-0.38,1.95-0.46,2.9c-0.08,0.94-0.02,1.89-0.02,2.86
		c-2.67,0.41-5.34,1.19-6.65,3.95c-1.23,2.57-0.8,5.24,0.5,7.94c-3.86-1.9-5.83-1.88-11.01,0c-0.15-0.47-0.31-0.94-0.46-1.41
		c-1.13-3.53-3.48-5.52-7.24-5.83c-2.61-0.22-4.51-3.62-3.37-5.96c0.5-1.02,1.55-1.19,2.51-1.37c1.66-0.3,1.87-0.57,1.61-2.23
		c-0.43-2.8-0.1-5.46,1.59-7.84c1.54-2.16,3.62-2.71,6.29-2.12c1.83,0.41,2.49,2.15,2.86,3.82c0.22,0.99,0.18,2.04,0.23,3.06
		c0.03,0.65,0.11,1.26,0.86,1.45c0.7,0.17,1.06-0.28,1.37-0.82c0.21-0.35,0.46-0.68,0.71-1c0.5-0.66,1.09-0.61,1.72-0.21
		c0.87,0.57,0.88,1.1-0.02,1.61c-1.54,0.88-2.31,2.28-2.74,3.93c-0.04,0.16-0.05,0.34-0.05,0.51c-0.02,0.62,0.19,1.11,0.86,1.19
		c0.61,0.07,0.9-0.32,1.06-0.89C176.36,58.06,181.66,56.15,185.11,58.39z M162.49,61.62c-0.07,0.03-0.14,0.06-0.2,0.09
		c0.45,1.31,0.83,2.65,1.39,3.9c0.25,0.55,0.82,1,1.33,1.38c0.56,0.41,1.2,0.35,1.62-0.26c0.42-0.61,0.08-1.02-0.43-1.45
		c-0.48-0.4-0.89-0.94-1.17-1.5c-0.56-1.14-0.58-2.37-0.33-3.61c0.11-0.55,0-1.06-0.63-1.22c-0.64-0.17-1.09,0.15-1.25,0.76
		C162.66,60.33,162.6,60.98,162.49,61.62z M171.3,72.72c1.46-0.12,3.32-1.96,3.23-3.35c-0.02-0.29-0.24-0.72-0.48-0.81
		c-0.28-0.12-0.76-0.05-1.02,0.12c-0.32,0.22-0.52,0.62-0.73,0.97c-0.67,1.11-0.68,1.13-1.82,0.59c-0.53-0.25-1.02-0.3-1.35,0.23
		c-0.34,0.54-0.19,1.12,0.33,1.44C170.03,72.25,170.68,72.45,171.3,72.72z M197.26,91.42c-2.23-1.4-4.62-2.47-7.24-2.97
		c-3.17-0.61-6.33-0.58-9.43,0.43c-0.7,0.23-1.24,0.13-1.82-0.25c-3.04-1.97-3.79-6.48-1.54-9.32c0.77-0.98,1.83-1.4,3.01-1.6
		c0.6-0.1,1.28-0.24,1.31-0.91c0.02-0.45-0.3-1.03-0.65-1.36c-2.42-2.36-1.67-7.03,1.39-8.4c3.02-1.36,5.84-0.04,6.71,3.15
		c0.1,0.36,0.16,0.74,0.27,1.09c0.33,1.05,0.32,2.01-0.27,3.03c-0.36,0.62-0.47,1.43-0.55,2.16c-0.09,0.84,0.37,1.43,0.99,1.42
		c0.83-0.01,0.94-0.6,0.99-1.27c0.26-3.19,4.67-5.6,7.42-4.06c1.24,0.69,2.07,2.65,1.66,4c-0.06,0.2-0.26,0.4-0.44,0.52
		c-1.64,1.17-2.21,2.99-2.88,4.74c-0.09,0.24-0.13,0.61-0.01,0.8c0.22,0.33,0.56,0.77,0.88,0.79c0.31,0.02,0.78-0.36,0.95-0.69
		c0.48-0.93,0.77-1.97,1.28-2.89c0.79-1.43,3.48-2.14,4.92-1.37c0.29,0.15,0.57,0.42,0.72,0.7c0.9,1.63,1.21,3.33,0.45,5.11
		c-0.5,1.18-2.59,2.06-4.18,1.76c-0.6-0.11-1.19-0.3-1.78-0.48c-0.65-0.2-1.22-0.07-1.7,0.41c-0.46,0.47-0.49,0.96-0.03,1.44
		C199.05,88.82,198.9,90.31,197.26,91.42z M186.46,85.16c2.79,1.35,4.08,0.87,5.31-1.91c0.18-0.41,0.35-0.82,0.47-1.25
		c0.17-0.61,0.14-1.21-0.57-1.44c-0.68-0.22-1.11,0.19-1.37,0.77c-0.24,0.53-0.37,1.12-0.67,1.6c-0.22,0.36-0.68,0.86-0.97,0.83
		c-0.45-0.06-0.99-0.43-1.25-0.82c-0.65-0.99-1.62-1.06-2.24-0.03c-0.18,0.29-0.27,0.63-0.43,0.93c-0.54,0.97-1.43,1.04-1.99,0.08
		c-0.29-0.5-0.41-1.15-0.46-1.74c-0.06-0.62-0.19-1.13-0.88-1.15c-0.71-0.02-1,0.48-1.08,1.12c-0.19,1.66,0.72,3.46,2.09,4.16
		C183.75,86.97,185,86.63,186.46,85.16z M44.62,265.88c0.24-0.64,0.67-1.1,1.4-0.85c0.72,0.24,0.7,0.83,0.5,1.44
		c-0.04,0.13-0.07,0.26-0.1,0.4c-0.52,2.72,0.64,3.37,2.93,3.43c0.13,0,0.27-0.04,0.4-0.07c1.34-0.24,1.61-0.48,1.84-1.81
		c0.16-0.91,0.16-1.84,0.34-2.74c0.08-0.38,0.36-0.89,0.68-1.01c0.31-0.12,0.79,0.16,1.17,0.31c0.24,0.09,0.43,0.37,0.67,0.39
		c1.01,0.12,2.04,0.3,3.05,0.25c2.64-0.12,3.34-1.22,2.39-3.67c-0.37-0.97-0.79-1.9-2.12-1.89c-0.28,0-0.76-0.46-0.81-0.76
		c-0.05-0.35,0.21-0.8,0.45-1.14c0.13-0.2,0.47-0.25,0.72-0.37c1.4-0.65,2.6-3.2,1.97-4.83c-1.04-2.72-4.93-4.96-8.1-4.5
		c-2.56,0.37-4.64,1.62-6.36,3.46c-1.36,1.45-1.88,3.3-2.06,5.25c-0.14,1.54,0.52,2.69,1.74,3.6c0.2,0.15,0.29,0.77,0.15,0.99
		c-0.18,0.28-0.64,0.48-1,0.5c-0.29,0.02-0.64-0.22-0.9-0.43c-1.15-0.87-1.79-2.05-1.95-3.48c-0.07-0.59-0.29-0.85-0.93-0.71
		c-1.65,0.36-3.17,2.87-2.71,4.5c0.88,3.12,3.37,4.16,6.28,4.89C44.41,266.59,44.49,266.22,44.62,265.88z M129.87,62.62
		c-1.32,1.05-2.67,2.02-3.9,3.14c-1.39,1.26-2.13,2.93-2.32,4.79c-0.1,1-0.61,1.46-1.52,1.58c-1.42,0.19-2.84,0.4-4.23-0.24
		c-1.52-0.7-1.9-2.05-0.93-3.43c0.61-0.87,0.38-1.62-0.59-1.88c-1.74-0.46-2.44-1.25-2.56-3.04c-0.14-2.12,0.97-3.72,2.49-4.93
		c1.42-1.13,3.1-1.89,5.05-1.46c0.36,0.08,0.73,0.17,1.06,0.35c0.55,0.3,1.08,0.39,1.43-0.21c0.38-0.64,0.12-1.28-0.5-1.55
		c-0.73-0.33-1.55-0.62-2.34-0.63c-0.99-0.02-1.29-0.48-1.42-1.33c-0.45-2.81,0.09-5.3,2.51-7c2.55-1.79,5.28-1.53,7.98-0.26
		c0.31,0.15,0.64,0.47,0.76,0.78c0.57,1.41,1.08,2.86,1.6,4.29C128.54,52.78,126.58,57.13,129.87,62.62z M122.72,61.88
		c0-0.04-0.01-0.08-0.01-0.13c-0.27,0-0.58-0.08-0.8,0.02c-0.3,0.14-0.7,0.39-0.77,0.66c-0.07,0.28,0.11,0.74,0.34,0.96
		c0.6,0.58,2.91,0.54,3.46-0.08c0.25-0.28,0.44-0.85,0.32-1.15c-0.11-0.27-0.67-0.48-1.04-0.51
		C123.72,61.63,123.22,61.8,122.72,61.88z M64.86,244.9c-0.18-1.84-0.6-3.64-2.47-4.69c-4.09-2.28-9.49-0.21-11.45,4.76
		c-0.23,0.6-0.42,1.14-1.17,0.98c-0.76-0.17-0.92-0.77-0.79-1.44c0.1-0.49,0.3-0.96,0.46-1.43c-1.6-2.01-3.4-3.61-6.16-3.27
		c-2.7,0.34-5.13,1.35-6.79,3.6c-0.62,0.84-1.15,1.92-1.27,2.95c-0.28,2.35,0.39,4.53,1.8,6.47c0.83,1.14,1.85,1.98,3.23,2.39
		c1.2,0.36,1.47,0.26,1.82-0.94c1.15-4,4.03-6.22,7.76-7.54c1.57-0.55,3.22-0.69,4.86-0.3c2.87,0.68,5.47,1.81,7.05,4.69
		C63.59,249.37,65.13,247.54,64.86,244.9z M101.02,82.44c-1.39,2.58-0.63,4.93,1.02,7.41c-1.25,0-2.3-0.11-3.32,0.02
		c-1.72,0.23-3.43,0.57-5.12,0.96c-0.42,0.1-0.76,0.54-1.13,0.83c-0.86,0.67-1.63,1.48-2.58,1.98c-2.32,1.23-4.47-0.1-4.6-2.73
		c-0.09-1.81,0.64-3.33,1.76-4.66c0.28-0.33,0.81-0.46,1.25-0.63c0.53-0.21,0.9-0.53,0.78-1.15c-0.12-0.64-0.66-0.86-1.17-0.7
		c-0.79,0.25-1.63,0.54-2.26,1.05c-0.7,0.57-1.35,0.72-2.17,0.52c-1.12-0.27-1.55-1.24-0.73-2.04c0.7-0.68,1.71-1.04,2.6-1.5
		c0.2-0.1,0.47-0.06,0.71-0.09c1.4-0.2,1.78-0.83,1.26-2.12c-1.01-2.52-0.25-5.45,1.96-7.04c0.93-0.67,1.98-1.23,3.05-1.64
		c1.6-0.61,3.29,0.03,4.22,1.45c0.15,0.23,0.23,0.57,0.22,0.86C96.57,77.02,98.04,80.06,101.02,82.44z M94.75,83.09
		c0-0.2,0.02-0.41,0-0.61c-0.15-1.4-1.41-2.79-2.72-2.97c-0.66-0.09-1.27,0.05-1.45,0.79c-0.17,0.72,0.25,1.01,0.93,1.16
		c1,0.22,1.52,1.03,1.19,1.99c-0.35,1.02-0.87,1.99-1.38,2.94c-0.29,0.55-0.57,1.08,0.01,1.55c0.6,0.49,1.2,0.22,1.61-0.29
		C94,86.33,94.64,84.81,94.75,83.09z M215.64,52.58c-2.66-2.98-6.05-3.64-9.81-2.87c-3.23,0.66-6.4,1.55-9,3.73
		c-0.83,0.7-1.49,1.59-2.31,2.47c-1.19-0.83-2.54-1.42-4.12-1.32c-0.18,0.01-0.46-0.28-0.55-0.5c-1.07-2.62-0.92-5.15,0.69-7.52
		c0.8-1.18,2.13-1.43,3.4-1.7c0.73-0.16,1.49-0.19,2.24-0.31c1.33-0.21,2.3,0.48,3.19,1.32c0.15,0.14,0.17,0.48,0.17,0.73
		c0,0.65-0.09,1.3-0.08,1.94c0.01,0.63,0.33,1.05,1.02,1.02c0.64-0.03,0.89-0.45,0.89-1.04c0.01-2.41,0.98-4.43,2.5-6.25
		c0.63-0.76,1.4-1.18,2.34-1.35c1.47-0.26,2.36,0.28,2.83,1.71c0.61,1.84,1.41,2.07,2.87,0.8c0.1-0.09,0.21-0.18,0.31-0.27
		c1.95-1.73,3.4-1.64,5.11,0.29C219.59,46.04,218.7,50.91,215.64,52.58z M216.82,47.77c-0.52-0.8-0.85-1.52-1.39-2.01
		c-0.25-0.22-1.02-0.15-1.36,0.08c-0.48,0.33-0.32,0.89,0.05,1.34c0.16,0.2,0.31,0.45,0.35,0.7c0.1,0.62,0.41,1.13,1.04,0.96
		C215.94,48.73,216.28,48.24,216.82,47.77z M239.51,85.77c0.27-0.76,0.46-1.64,0.87-2.4c1.53-2.92,3.61-5.24,7.01-5.97
		c2.59-0.56,4.98,0.89,5.73,3.43c1.03,3.51,0.24,5.82-2.76,7.92c-0.98,0.68-2.03,1.26-3.06,1.87c-0.51,0.3-0.95,0.64-0.74,1.29
		c0.22,0.66,0.79,0.84,1.41,0.72c0.43-0.09,0.84-0.29,1.22-0.51c0.68-0.39,1.33-0.82,2.05-1.27c0.7,0.62,0.96,1.43,0.98,2.28
		c0.1,3.51-0.59,6.87-2.67,9.71c-1.6,2.18-4.03,3.1-6.71,3.15c-1.27,0.02-1.95-0.92-1.79-2.21c0.01-0.1,0.05-0.2,0.06-0.3
		c0.03-0.59-0.08-1.13-0.73-1.31c-0.65-0.17-1.09,0.19-1.26,0.77c-0.52,1.79-1.98,2.73-3.31,3.78c-0.79,0.62-1.55,0.53-2.36,0.02
		c-2.62-1.66-4.24-6.32-3.16-9.21c0.75-2,2.48-2.95,4.29-3.71c0.38-0.16,0.99,0.08,1.45,0.25c0.56,0.2,1.09,0.31,1.48-0.22
		c0.44-0.59,0.14-1.07-0.31-1.53c-0.97-0.98-0.99-1.85-0.07-2.86c0.32-0.35,0.68-0.68,1.08-0.94c0.71-0.47,1.42-0.71,2.3-0.26
		c0.33,0.17,1.07,0.04,1.33-0.23c0.45-0.47,0.16-1.08-0.36-1.38C240.91,86.3,240.26,86.09,239.51,85.77z M245.65,100.93
		c-0.04-1.77-0.33-3.47-1.3-5c-0.61-0.95-1.45-1.54-2.52-1.79c-0.61-0.15-1.22-0.04-1.42,0.65c-0.21,0.71,0.23,1.07,0.88,1.24
		c0.79,0.2,1.38,0.69,1.59,1.46c0.3,1.14,0.54,2.31,0.72,3.48c0.11,0.7,0.21,1.32,1.06,1.36
		C245.27,102.36,245.65,101.8,245.65,100.93z M225.82,146.37c0.63,0.03,1.11,0.42,1.02,1.16c-0.1,0.75-0.62,0.87-1.28,0.82
		c-1.3-0.1-3.04,0.98-3.42,2.22c-0.23,0.77-0.28,1.61-0.29,2.42c0,1.85,1.24,2.82,2.74,3.48c1.47,0.64,2.73,0.04,3.87-0.89
		c0.4-0.32,0.75-0.71,1.18-0.98c0.73-0.48,1.28-0.25,1.63,0.53c0.14,0.31,0.37,0.64,0.64,0.84c0.59,0.41,1.22,0.77,1.85,1.09
		c2.17,1.12,4.37,0.43,5.61-1.7c0.94-1.61,1.22-3.34,0.88-5.15c-0.32-1.69-0.9-3.37-2.68-3.98c-2.04-0.7-4.14-0.44-6.05,0.57
		c-0.64,0.33-1.1,0.73-1.67,0.06c-0.42-0.5-0.2-1.29,0.51-1.76c0.45-0.3,0.97-0.5,1.51-0.77c0-0.45,0.04-0.93-0.01-1.4
		c-0.08-0.88-0.57-1.45-1.45-1.63c-1.31-0.26-3.29,0.9-3.74,2.15c-0.17,0.48-0.44,0.91-0.62,1.39c-0.3,0.77-0.78,0.92-1.54,0.64
		c-0.94-0.34-1.35,0.07-1.21,1.05C224.15,146.46,224.99,146.33,225.82,146.37z"/>
	<path class="st5" d="M92.45,184.99c0.71-0.07,0.83-0.49,0.84-0.74c0.02-0.4-0.24-0.69-0.73-0.8c-0.21-0.05-0.43-0.08-0.65-0.12
		c-0.06-0.01-0.13-0.02-0.2-0.03c0.05-0.12,0.13-0.21,0.21-0.31l0.21-0.27c0.88-1.11,1.75-2.23,2.64-3.33
		c0.24-0.3,0.49-0.6,0.74-0.9c0.24-0.29,0.48-0.57,0.71-0.86c0.32-0.39,0.31-0.84-0.01-1.13c-0.32-0.29-0.74-0.25-1.12,0.12
		c-0.04,0.04-0.08,0.08-0.12,0.13c-1.59,1.79-3.39,3.83-4.91,6.02c-0.17,0.25-0.32,0.31-0.59,0.26c-0.79-0.14-1.6-0.27-2.38-0.39
		c-0.43-0.07-0.86-0.14-1.29-0.21l-0.08-0.01c-0.11-0.02-0.22-0.03-0.32-0.09l0.28-0.38c0.23-0.32,0.45-0.62,0.67-0.93
		c0.67-0.96,1.43-2.12,1.91-3.46c0.17-0.48,0.24-0.91,0.19-1.34c-0.08-0.77-0.49-1.3-1.22-1.59c-0.44-0.17-0.92-0.23-1.51-0.18
		c-1.48,0.13-2.93,0.68-4.42,1.7c-0.2,0.13-0.34,0.28-0.43,0.45c-0.2,0.36-0.11,0.85,0.21,1.08c0.32,0.23,0.72,0.17,1.01-0.16
		c0.12-0.13,0.23-0.23,0.36-0.31c0.84-0.49,1.65-0.81,2.5-1c0.48-0.1,0.98-0.19,1.48-0.09c0.37,0.08,0.41,0.14,0.35,0.5
		c-0.04,0.26-0.12,0.53-0.26,0.84c-0.64,1.42-1.58,2.69-2.48,3.92l-0.21,0.28c-0.11,0.15-0.19,0.15-0.3,0.11
		c-0.08-0.04-0.17-0.07-0.26-0.1l-0.12-0.04c-0.74-0.28-1.58-0.59-2.49-0.52c-3.26,0.25-5.74,1.86-7.37,4.77
		c-0.2,0.36-0.33,0.77-0.38,1.24c-0.15,1.33,0.53,2.34,1.81,2.72c0.56,0.17,1.15,0.2,1.75,0.1c0.81-0.14,1.58-0.47,2.44-1.05
		c1.14-0.78,2.26-1.74,3.43-2.95c0.62-0.64,1.21-1.33,1.72-1.92c0.15-0.17,0.26-0.21,0.47-0.15c0.71,0.2,1.44,0.31,2.15,0.42
		c0.19,0.03,0.37,0.06,0.55,0.09h0c0.37,0.06,0.75,0.13,1.12,0.2l0.42,0.08c-0.01,0.07-0.06,0.13-0.11,0.2
		c-0.02,0.03-0.04,0.05-0.05,0.08c-0.59,0.9-1.08,1.83-1.44,2.54c-0.81,1.61-1.38,3.01-1.48,4.57l-0.01,0.08
		c-0.01,0.19-0.03,0.38,0.03,0.58c0.12,0.45,0.47,0.74,0.85,0.74c0.03,0,0.06,0,0.09-0.01c0.45-0.05,0.71-0.41,0.7-0.95
		c-0.02-0.65,0.09-1.31,0.34-2.03c0.57-1.64,1.42-3.28,2.75-5.33c0.12-0.18,0.24-0.24,0.45-0.21c0.1,0.01,0.21,0.03,0.31,0.04
		C91.61,184.97,92.03,185.03,92.45,184.99z M82.56,183.17c-0.12,0.19-0.27,0.35-0.41,0.5c-0.06,0.06-0.12,0.13-0.18,0.19
		c-1.04,1.19-2.18,2.26-3.38,3.19c-0.65,0.5-1.22,0.84-1.78,1.06c-0.57,0.22-1.1,0.26-1.6,0.12c-0.5-0.14-0.69-0.42-0.63-0.94
		c0.04-0.38,0.17-0.73,0.39-1.07c1.27-1.97,3.07-3.14,5.34-3.47c0.15-0.02,0.3-0.03,0.46-0.03
		C81.31,182.73,81.89,182.87,82.56,183.17z M117.09,187.99c-0.24,0.11-0.42,0.3-0.61,0.49l-0.24,0.25
		c-0.61,0.65-1.23,1.29-1.84,1.94c-0.65,0.69-1.38,1.4-2.29,1.9c-0.32,0.18-0.6,0.28-0.87,0.32c-0.42,0.07-0.8-0.02-1.06-0.26
		c-0.28-0.25-0.42-0.66-0.4-1.15c0.01-0.34,0.11-0.75,0.27-1.12c0.11-0.27,0.11-0.27,0.39-0.17c0.45,0.16,0.93,0.19,1.41,0.1
		c1.02-0.2,1.89-0.74,2.57-1.62c0.3-0.38,0.47-0.85,0.51-1.38c0.04-0.51-0.12-0.97-0.43-1.32c-0.32-0.35-0.77-0.54-1.29-0.55
		c-0.36-0.01-0.72,0.08-1.15,0.26c-0.47,0.2-0.9,0.48-1.28,0.81c-0.54,0.48-1,1-1.39,1.56c-0.17,0.02-0.32,0.07-0.45,0.12
		c-0.36,0.15-0.75,0.3-1.17,0.4c-0.76,0.18-0.86,0.13-1.17-0.6c-0.06-0.14-0.11-0.28-0.17-0.42c-0.1-0.25-0.19-0.5-0.31-0.74
		c-0.42-0.85-1.07-1.19-2.04-1.04c-0.57,0.08-1.12,0.31-1.72,0.72l-0.53,0.36c0.02-0.05,0.05-0.1,0.07-0.14
		c0.14-0.28,0.29-0.56,0.42-0.85c0.19-0.41,0.08-0.8-0.27-0.99c-0.34-0.19-0.73-0.1-1,0.24c-0.11,0.15-0.21,0.31-0.28,0.45
		c-0.26,0.48-0.52,0.96-0.78,1.43c-0.77,0.58-1.54,1.16-2.3,1.74c-0.76,0.58-1.59,1.16-2.57,1.49c-0.35,0.12-0.63,0.17-0.9,0.17
		c0,0-0.01,0-0.01,0c-0.43,0-0.78-0.16-1-0.43c-0.24-0.3-0.31-0.72-0.2-1.2c0.07-0.33,0.23-0.72,0.45-1.06
		c0.16-0.25,0.16-0.25,0.41-0.11c0.43,0.24,0.88,0.34,1.37,0.33c1.04-0.03,1.98-0.42,2.8-1.17c0.36-0.33,0.61-0.76,0.73-1.28
		c0.12-0.49,0.05-0.98-0.21-1.37c-0.25-0.39-0.67-0.66-1.18-0.75c-0.35-0.07-0.73-0.04-1.18,0.07c-0.5,0.12-0.97,0.32-1.39,0.59
		c-1.67,1.04-2.81,2.47-3.39,4.25c-0.47,1.44,0.08,2.78,1.45,3.5c0.44,0.23,0.88,0.31,1.3,0.31c0.49,0,0.94-0.11,1.33-0.23
		c0.87-0.27,1.72-0.71,2.59-1.35c-0.08,0.14-0.15,0.28-0.23,0.42l-0.66,1.22l-0.02,0.04c-0.02,0.04-0.05,0.08-0.06,0.12
		c-0.14,0.35-0.05,0.74,0.22,0.96c0.15,0.12,0.33,0.18,0.51,0.18c0.19,0,0.37-0.06,0.53-0.19c0.15-0.12,0.27-0.27,0.36-0.4
		c0.25-0.32,0.5-0.64,0.74-0.97l0.44-0.57c0.84-1.1,1.78-2.24,2.98-3.17c0.32-0.25,0.68-0.5,1.09-0.64
		c0.53-0.18,0.55-0.17,0.77,0.34c0.06,0.14,0.12,0.29,0.17,0.44c0.13,0.35,0.27,0.71,0.48,1.04c0.37,0.59,0.84,0.92,1.39,0.98
		c0.56,0.06,1.09,0,1.58-0.14c-0.11,0.36-0.2,0.73-0.26,1.11c-0.23,1.5,0.54,2.73,2.01,3.21c0.29,0.1,0.58,0.13,0.85,0.13
		c0.68,0,1.28-0.25,1.76-0.49c0.81-0.41,1.58-0.99,2.34-1.77c0.71-0.73,1.42-1.48,2.11-2.21l0.64-0.68c0.08-0.09,0.18-0.2,0.26-0.33
		c0.19-0.32,0.16-0.66-0.07-0.93C117.81,187.88,117.45,187.82,117.09,187.99z M110.98,188.71c-0.01-0.03,0-0.05,0.07-0.12
		c0.02-0.02,0.03-0.03,0.04-0.05c0.54-0.67,1.07-1.1,1.66-1.35l0.07-0.03c0.12-0.05,0.21-0.09,0.29-0.09c0.05,0,0.1,0.02,0.14,0.06
		c0.1,0.12,0.04,0.26-0.11,0.49c-0.46,0.69-1.1,1.09-1.83,1.17c-0.05-0.01-0.09-0.01-0.14-0.01
		C111.02,188.76,110.99,188.75,110.98,188.71z M94.65,186.2c-0.01-0.03,0.01-0.05,0.09-0.11c0.02-0.01,0.04-0.03,0.05-0.04
		c0.64-0.57,1.23-0.91,1.86-1.06l0.08-0.02c0.21-0.06,0.35-0.08,0.42,0.04c0.08,0.13,0,0.26-0.19,0.46c-0.57,0.6-1.27,0.89-2,0.85
		c-0.05-0.01-0.09-0.02-0.13-0.03C94.69,186.26,94.66,186.25,94.65,186.2z M135.14,188.51c0.21-0.04,0.43-0.09,0.63-0.21
		c0.3-0.19,0.43-0.47,0.37-0.8c-0.06-0.31-0.25-0.51-0.56-0.6c-0.23-0.07-0.46-0.05-0.67-0.01l-0.1,0.01
		c-0.43,0.07-0.87,0.14-1.31,0.18c-0.97,0.11-1.96,0.1-2.89,0.08c0,0,0-0.01,0-0.01c0.17-0.34,0.33-0.68,0.5-1.02
		c0.25-0.51,0.5-1.01,0.75-1.52c0.07-0.14,0.17-0.16,0.38-0.17c1.16-0.04,2.29-0.16,3.25-0.27c1.26-0.15,2.53-0.31,3.79-0.47
		c0.41-0.05,0.74-0.19,1-0.41c0.25-0.21,0.34-0.49,0.24-0.79c-0.1-0.3-0.33-0.49-0.64-0.52c-0.14-0.01-0.29-0.01-0.43,0.02
		c-1.6,0.26-3.23,0.43-4.82,0.6l-0.44,0.05c-1.22,0.13-2.41,0.23-3.62,0.1c-1.1-0.12-2.09-0.17-3.03-0.15
		c-1.14,0.02-2.26,0.39-3.43,1.13c-0.16,0.1-0.33,0.23-0.45,0.42c-0.21,0.35-0.17,0.79,0.09,1.04c0.28,0.26,0.68,0.25,1.02-0.03
		c0.62-0.5,1.37-0.8,2.23-0.9c0.75-0.08,1.49-0.02,2.29,0.05c0.3,0.03,0.61,0.05,0.93,0.07l-0.32,0.59
		c-0.34,0.63-0.66,1.22-0.98,1.81c-0.08,0.14-0.17,0.15-0.37,0.15c-0.93-0.03-1.73,0.04-2.47,0.21c-4.5,1.09-7.65,5.24-7.49,9.86
		c0.02,0.61,0.13,1.15,0.35,1.65c0.28,0.66,0.67,1.08,1.15,1.27c0.18,0.07,0.37,0.1,0.58,0.1c0.34,0,0.7-0.09,1.1-0.28
		c0.68-0.32,1.32-0.82,2.01-1.56c0.61-0.65,1.11-1.39,1.61-2.1l0.03-0.04c1.38-2.02,2.59-4.19,3.75-6.29l0.3-0.53
		c0.21-0.39,0.4-0.49,0.81-0.44C131.77,188.92,133.36,188.84,135.14,188.51z M127.93,188.56c-0.05,0.17-0.14,0.31-0.22,0.44
		c-0.04,0.06-0.07,0.12-0.1,0.17l-0.07,0.12c-1.21,2.16-2.45,4.39-3.91,6.44c-0.5,0.71-1.07,1.44-1.78,2.02
		c-0.22,0.18-0.49,0.37-0.79,0.51c-0.34,0.15-0.42,0.12-0.57-0.21c-0.19-0.42-0.22-0.87-0.23-1.29c-0.06-3.77,2.67-7.23,6.34-8.04
		c0.29-0.06,0.59-0.1,0.89-0.13l0.12-0.01c0.07-0.01,0.13-0.02,0.19-0.02C127.84,188.55,127.89,188.55,127.93,188.56z M148.89,191.5
		c-0.24,0.02-0.42,0.13-0.63,0.25c-0.31,0.2-0.69,0.42-1.09,0.59c-0.72,0.31-0.83,0.28-1.26-0.39c-0.08-0.13-0.16-0.26-0.24-0.39
		c-0.14-0.23-0.28-0.46-0.44-0.68c-0.56-0.77-1.26-0.99-2.19-0.68c-0.55,0.18-1.05,0.5-1.57,1l-0.46,0.44
		c0.01-0.04,0.03-0.09,0.04-0.13c0.09-0.3,0.19-0.61,0.28-0.93c0.12-0.43-0.05-0.8-0.43-0.93c-0.37-0.13-0.74,0.03-0.95,0.41
		c-0.09,0.16-0.15,0.34-0.2,0.49c-0.17,0.5-0.34,0.99-0.5,1.49l-0.01,0.01c-0.37,0.23-0.75,0.46-1.13,0.68l-0.1,0.06
		c-0.17,0.1-0.32,0.19-0.49,0.21l0-0.2c0-0.23-0.01-0.45-0.02-0.67c-0.08-1.22-0.93-2.25-2.01-2.44c-1.24-0.22-2.64,0.68-3.04,1.96
		c-0.08,0.25-0.19,0.41-0.4,0.55c-0.84,0.58-1.44,1.38-1.79,2.39c-0.25,0.72-0.28,1.43-0.08,2.09c0.24,0.8,0.8,1.42,1.54,1.7
		c0.28,0.11,0.57,0.16,0.87,0.16c0.46,0,0.93-0.13,1.37-0.4c1.21-0.73,2.12-1.71,2.73-2.92c0.14-0.27,0.31-0.4,0.59-0.45
		c0.42-0.07,0.81-0.21,1.19-0.38c-0.21,0.61-0.41,1.21-0.62,1.82l-0.48,1.41l-0.02,0.05c-0.02,0.04-0.03,0.09-0.04,0.13
		c-0.07,0.37,0.08,0.74,0.38,0.91c0.12,0.07,0.26,0.1,0.39,0.1c0.23,0,0.47-0.1,0.63-0.29c0.12-0.14,0.22-0.31,0.29-0.45
		c0.2-0.38,0.4-0.76,0.6-1.15l0.3-0.57c0.64-1.22,1.38-2.51,2.4-3.63c0.27-0.3,0.58-0.61,0.97-0.82c0.49-0.27,0.51-0.26,0.81,0.2
		c0.08,0.13,0.16,0.27,0.24,0.4c0.19,0.32,0.39,0.65,0.65,0.94c0.46,0.52,0.97,0.76,1.54,0.73c1.24-0.07,2.23-0.72,3.03-1.36
		c0.03-0.02,0.04-0.04,0.06-0.07c0.2-0.29,0.23-0.59,0.07-0.87C149.52,191.59,149.25,191.47,148.89,191.5z M135.85,192.42
		c-0.02,0.41-0.04,0.74-0.14,0.81c-0.11,0.08-0.43-0.03-0.84-0.16c-0.22-0.07-0.42-0.21-0.62-0.4c-0.29-0.29-0.31-0.48-0.07-0.8
		c0.24-0.34,0.61-0.54,0.93-0.54c0.07,0,0.14,0.01,0.21,0.03C135.64,191.47,135.84,191.87,135.85,192.42z M134.99,194.84
		c0,0,0.01,0.04-0.07,0.15c-0.51,0.78-1.11,1.35-1.84,1.74c-0.29,0.16-0.59,0.18-0.84,0.07c-0.26-0.12-0.44-0.37-0.51-0.7
		c-0.05-0.21-0.05-0.45-0.01-0.7c0.1-0.66,0.51-1.34,1.09-1.83c0.64,0.68,1.3,1.07,2.07,1.23
		C134.97,194.82,134.99,194.84,134.99,194.84z M153.99,198.05c0.22,0.27,0.2,0.65-0.04,0.94c-0.15,0.18-0.37,0.28-0.59,0.28
		c-0.12,0-0.25-0.03-0.37-0.08c-0.42-0.2-0.7-0.55-0.87-1.13c-0.34-1.13-0.48-2.19-0.43-3.24c0.06-1.35,0.38-2.75,1.01-4.41
		c0.89-2.31,1.96-4.58,3.2-6.76c0.03-0.05,0.05-0.09,0.08-0.13c0.08-0.13,0.16-0.25,0.21-0.42c-2.03-0.05-3.92,0.02-5.75,0.23
		c-0.75,0.08-1.48,0.33-2.15,0.73c-0.16,0.1-0.33,0.21-0.44,0.42c-0.21,0.38-0.6,0.53-0.96,0.37c-0.37-0.17-0.55-0.66-0.4-1.08
		c0.14-0.37,0.42-0.61,0.7-0.82c0.85-0.62,1.83-1.02,2.92-1.22c1.29-0.23,2.6-0.27,3.83-0.29c0.43,0,0.86,0,1.28,0
		c0.93,0,1.88,0,2.82-0.06c1.94-0.14,3.99-0.64,6.42-1.58c0.1-0.04,0.19-0.09,0.29-0.15c0.07-0.04,0.14-0.08,0.21-0.12
		c0.38-0.18,0.73-0.14,0.97,0.13c0.25,0.27,0.26,0.7,0.03,1.04c-0.22,0.34-0.57,0.5-0.88,0.62c-1.32,0.54-2.7,0.92-3.87,1.22
		c-0.85,0.21-1.79,0.37-2.89,0.46c-0.25,0.02-0.38,0.11-0.48,0.31l-0.26,0.52c-1.24,2.43-2.51,4.93-3.47,7.54
		c-0.69,1.87-0.9,3.44-0.67,4.92l0.02,0.15C153.53,197.03,153.61,197.58,153.99,198.05z M177.26,188.53
		c-0.23,0.14-0.39,0.34-0.56,0.55c-0.62,0.79-1.25,1.58-1.87,2.38c-0.58,0.75-1.24,1.52-2.11,2.1c-0.31,0.2-0.57,0.33-0.83,0.4
		c-0.41,0.11-0.8,0.05-1.08-0.16c-0.3-0.23-0.48-0.62-0.5-1.11c-0.02-0.34,0.04-0.76,0.16-1.14c0.09-0.28,0.09-0.28,0.37-0.21
		c0.47,0.12,0.94,0.11,1.41-0.03c1-0.29,1.81-0.91,2.41-1.85c0.26-0.41,0.39-0.89,0.38-1.42c-0.01-0.51-0.2-0.96-0.55-1.27
		c-0.35-0.32-0.82-0.46-1.33-0.43c-0.36,0.03-0.71,0.14-1.12,0.37c-0.45,0.25-0.85,0.56-1.2,0.92c-0.45,0.48-0.82,0.98-1.13,1.51
		c-0.18,0.14-0.31,0.31-0.43,0.49l-0.03,0.04c-0.74,1.02-1.47,2.03-2.21,3.05c-0.41,0.57-0.76,0.99-1.11,1.35l-0.05,0.05
		c-0.13,0.13-0.25,0.25-0.45,0.31c-0.03-0.42,0.08-0.8,0.2-1.2c0.03-0.09,0.05-0.18,0.08-0.27c0.09-0.33,0.19-0.66,0.3-0.98
		c0.2-0.64,0.41-1.31,0.54-1.99c0.08-0.43,0.16-0.94,0.05-1.46c-0.12-0.56-0.39-0.98-0.8-1.22c-0.4-0.24-0.9-0.27-1.44-0.11
		c-0.42,0.13-0.84,0.35-1.29,0.67c-0.41,0.29-0.81,0.65-1.3,1.15c-0.02,0.02-0.04,0.05-0.06,0.07c0.46-1.07,0.93-2.14,1.39-3.21
		c0.16-0.36,0.31-0.71,0.47-1.07c0.23-0.53,0.47-1.06,0.7-1.6c0.18-0.42,0.09-0.79-0.24-1c-0.35-0.22-0.78-0.11-1.05,0.26
		c-0.11,0.15-0.19,0.32-0.29,0.52c-0.16,0.34-0.32,0.67-0.48,1.01c-0.42,0.87-0.84,1.76-1.24,2.66c-1.12,2.52-2.27,5.24-3.63,8.58
		c-0.06,0.14-0.12,0.29-0.12,0.46c-0.01,0.37,0.16,0.66,0.47,0.8c0.11,0.05,0.22,0.07,0.33,0.07c0.21,0,0.43-0.09,0.59-0.25
		c0.11-0.11,0.19-0.24,0.25-0.35c0.73-1.3,1.61-2.55,2.37-3.62c0.51-0.71,1.2-1.64,2.01-2.46c0.46-0.47,0.89-0.79,1.33-1
		c0.26-0.13,0.34-0.12,0.37-0.11c0.02,0.02,0.07,0.09,0.06,0.39c0,0.16-0.02,0.3-0.05,0.43c-0.09,0.39-0.2,0.8-0.31,1.21
		c-0.09,0.35-0.21,0.7-0.31,1.05c-0.18,0.57-0.36,1.16-0.48,1.76c-0.1,0.49-0.1,0.91-0.01,1.29c0.11,0.47,0.38,0.85,0.77,1.06
		c0.39,0.21,0.85,0.24,1.31,0.07c0.35-0.13,0.67-0.33,0.96-0.58c0.4-0.37,0.73-0.74,1.01-1.11c0.27-0.37,0.54-0.73,0.8-1.1
		c0.16,1.19,0.98,2.08,2.26,2.37c0.21,0.05,0.41,0.07,0.61,0.07c0.78,0,1.45-0.34,1.96-0.66c0.77-0.48,1.48-1.13,2.17-1.98
		c0.67-0.83,1.33-1.67,1.97-2.49l0.5-0.64c0.07-0.09,0.17-0.22,0.23-0.36c0.16-0.34,0.1-0.67-0.15-0.92
		C177.97,188.36,177.6,188.33,177.26,188.53z M171.24,189.81c-0.01-0.02,0-0.05,0.06-0.13c0.01-0.02,0.03-0.04,0.04-0.05
		c0.47-0.72,0.96-1.19,1.53-1.5l0.07-0.04c0.12-0.07,0.22-0.12,0.3-0.12c0.04,0,0.08,0.02,0.12,0.05c0.11,0.11,0.06,0.26-0.07,0.49
		c-0.4,0.73-0.99,1.19-1.72,1.34c-0.05,0-0.09,0-0.14,0C171.3,189.85,171.27,189.85,171.24,189.81z M243.55,197.78l-0.03-0.03
		c-0.23-0.28-0.63-0.37-0.97-0.21c-0.2,0.09-0.37,0.23-0.54,0.36c-1.08,0.81-2.25,1.66-3.52,2.4c-0.26,0.15-0.57,0.31-0.91,0.37
		c-0.18,0.03-0.22,0-0.22-0.01c0,0-0.03-0.04,0.02-0.22c0.11-0.39,0.35-0.7,0.61-1.02l0.11-0.14c0.87-1.12,1.91-2.07,3.07-3.1
		l0.02-0.02c0.17-0.15,0.34-0.3,0.46-0.51c0.17-0.29,0.14-0.68-0.08-0.93c-0.22-0.27-0.59-0.36-0.91-0.23
		c-0.16,0.06-0.31,0.17-0.46,0.27c-0.21,0.15-0.42,0.3-0.63,0.45l-0.18,0.13c-0.02-0.03-0.03-0.05-0.03-0.09l-0.01-0.04
		c-0.21-0.87-0.64-1.51-1.23-1.85c-0.6-0.34-1.37-0.37-2.23-0.1c-0.14,0.04-0.29,0.1-0.44,0.16c-0.34,0.15-0.66,0.32-0.97,0.51
		c-0.2,0-0.43,0.08-0.71,0.32c-0.03,0.03-0.06,0.05-0.09,0.08l-0.48,0.43c-0.32,0.29-0.64,0.58-0.96,0.86
		c-0.97,0.87-1.82,1.5-2.68,1.98l-0.1,0.06c-0.16,0.09-0.31,0.18-0.5,0.2c0.19-0.52,0.5-0.97,0.8-1.4l0.02-0.03
		c0.26-0.38,0.55-0.75,0.82-1.11c0.4-0.53,0.82-1.09,1.19-1.66c0.19-0.3,0.39-0.63,0.46-1.02c0.08-0.42,0.01-0.8-0.2-1.09
		c-0.21-0.29-0.55-0.48-0.97-0.55c-0.26-0.04-0.52-0.02-0.83,0.03c-0.9,0.13-1.69,0.51-2.43,0.89c-0.03,0.02-0.07,0.04-0.1,0.06
		c-0.06,0.04-0.08,0.08-0.13,0.06l0.01-0.03c0.03-0.1,0.06-0.21,0.08-0.32c0.14-0.84-0.27-1.5-1.08-1.75
		c-0.38-0.12-0.78-0.13-1.19-0.03c-0.45,0.11-0.92,0.28-1.47,0.53c-0.11,0.05-0.22,0.1-0.33,0.15c0.02-0.02,0.03-0.05,0.05-0.07
		c0.02-0.03,0.05-0.06,0.07-0.09c0.33-0.5,0.32-0.95-0.03-1.22c-0.25-0.2-0.66-0.31-1.17,0.3c-1.24,1.5-2.44,3-3.59,4.49
		c-0.33,0.33-0.66,0.67-1.02,0.99c-0.22,0.2-0.49,0.42-0.82,0.54c-0.17,0.06-0.21,0.04-0.21,0.04c0,0-0.04-0.04-0.03-0.22
		c0.03-0.4,0.2-0.75,0.39-1.12l0.08-0.17c0.63-1.28,1.46-2.41,2.41-3.67c0.14-0.18,0.28-0.37,0.36-0.6c0.11-0.32,0-0.69-0.26-0.9
		c-0.27-0.22-0.65-0.24-0.94-0.05c-0.15,0.1-0.28,0.23-0.4,0.36c-0.17,0.18-0.34,0.37-0.52,0.56l-0.16,0.17
		c-0.02-0.02-0.03-0.05-0.05-0.08l-0.02-0.03c-0.38-0.81-0.92-1.35-1.57-1.57c-0.65-0.21-1.41-0.1-2.2,0.34
		c-0.13,0.07-0.26,0.16-0.4,0.25c-0.45,0.31-0.86,0.67-1.23,1.06c-0.21,0.01-0.39,0.06-0.59,0.14c-0.34,0.14-0.74,0.3-1.16,0.41
		c-0.76,0.19-0.86,0.14-1.18-0.59c-0.06-0.14-0.12-0.28-0.17-0.42c-0.1-0.25-0.2-0.5-0.32-0.74c-0.43-0.85-1.08-1.17-2.05-1.02
		c-0.57,0.09-1.12,0.33-1.71,0.73l-0.52,0.36c0.02-0.04,0.04-0.08,0.06-0.12c0.14-0.29,0.29-0.58,0.42-0.88
		c0.18-0.41,0.07-0.8-0.28-0.99c-0.34-0.19-0.73-0.09-1,0.25c-0.11,0.14-0.2,0.3-0.28,0.45c-0.1,0.19-0.2,0.38-0.3,0.56
		c-0.23,0.06-0.45,0.16-0.65,0.26c-1.14,0.6-2.34,0.98-3.78,1.37c0-0.06,0.02-0.1,0.05-0.16l0.02-0.03
		c0.33-0.69,0.55-1.46,0.66-2.27c0.26-1.92-0.13-3.47-1.2-4.76c-0.68-0.81-1.53-1.45-2.54-1.88c-1.48-0.64-3.12-0.97-4.88-0.98
		c-0.03,0-0.05,0-0.08,0c-1.88,0-3.67,0.43-5.31,1.27c-0.64,0.33-1.15,0.7-1.54,1.13c-0.19,0.2-0.39,0.45-0.46,0.78
		c-0.11,0.46,0.19,0.93,0.66,1.05c0.24,0.06,0.46,0.03,0.64-0.09c0.17-0.12,0.29-0.31,0.33-0.55c0.03-0.2,0.13-0.31,0.28-0.42
		c0.26-0.19,0.53-0.35,0.81-0.48c2.08-0.93,4.2-1.23,6.28-0.91c0.99,0.15,2.27,0.42,3.39,1.14c1.27,0.82,1.93,1.87,2.02,3.21
		c0.09,1.41-0.28,2.77-1.17,4.27c-0.09,0.16-0.22,0.2-0.44,0.21c-1.19,0.1-2.28,0.06-3.33-0.09c-0.94-0.14-1.89-0.35-2.8-0.56
		c-0.97-0.22-1.96-0.44-2.97-0.58c-0.11-0.01-0.15-0.03-0.15-0.02c0-0.03,0.03-0.09,0.08-0.19c0.03-0.05,0.05-0.09,0.08-0.14
		l0.55-0.93c0.84-1.42,1.69-2.85,2.53-4.27c0.09-0.15,0.2-0.34,0.26-0.53c0.11-0.33,0-0.64-0.28-0.83
		c-0.28-0.19-0.59-0.17-0.88,0.04c-0.15,0.11-0.23,0.25-0.32,0.39l-0.46,0.72c-1.08,1.7-2.19,3.47-3.22,5.24
		c-0.17,0.29-0.34,0.4-0.66,0.4c-0.64,0.01-1.29,0.13-1.99,0.35c-1.43,0.46-2.43,1.17-3.06,2.19c-0.73,1.17-0.72,2.37,0.03,3.57
		c0.33,0.53,0.81,1,1.5,1.46c1.27,0.85,2.69,1.35,4.21,1.48c0.37,0.03,0.74,0.05,1.11,0.05c2.36,0,4.56-0.65,6.58-1.93
		c1.71-1.09,3.16-2.44,4.3-4.03c0.18-0.25,0.37-0.37,0.66-0.44c0.55-0.12,1.13-0.27,1.77-0.46c0.73-0.22,1.44-0.45,2.14-0.72
		c-0.33,0.63-0.67,1.26-1,1.89l-0.95,1.81l-0.02,0.04c-0.02,0.04-0.05,0.08-0.06,0.13c-0.13,0.36-0.04,0.74,0.23,0.96
		c0.15,0.12,0.32,0.18,0.5,0.18c0.19,0,0.38-0.07,0.54-0.19c0.14-0.11,0.25-0.25,0.36-0.4c0.25-0.33,0.49-0.65,0.74-0.98l0.43-0.57
		c0.83-1.11,1.76-2.26,2.94-3.2c0.32-0.25,0.67-0.51,1.08-0.65c0.53-0.18,0.55-0.18,0.77,0.33c0.06,0.14,0.12,0.29,0.18,0.43
		c0.14,0.35,0.28,0.71,0.49,1.03c0.37,0.58,0.85,0.91,1.4,0.97c0.39,0.04,0.75,0.02,1.11-0.05c-0.18,0.34-0.35,0.69-0.5,1.06
		c-0.15,0.39-0.32,0.92-0.28,1.5c0.04,0.63,0.31,1.16,0.76,1.5c0.44,0.34,1.02,0.46,1.63,0.34c0.28-0.06,0.55-0.15,0.84-0.28
		c0.6-0.28,1.13-0.67,1.64-1.05l0.06-0.04c0.04-0.03,0.08-0.07,0.12-0.1c0.06-0.05,0.11-0.1,0.17-0.14c0,0.03,0,0.05,0,0.07
		c-0.01,0.18-0.02,0.34-0.01,0.52c0.02,0.67,0.27,1.21,0.72,1.51c0.25,0.17,0.56,0.26,0.89,0.26c0.24,0,0.5-0.05,0.77-0.14
		c0.3-0.11,0.59-0.26,0.89-0.47c0.16,0.01,0.32-0.01,0.47-0.08c0.2-0.1,0.36-0.26,0.5-0.41l0.05-0.05c0.75-0.77,1.65-1.66,2.6-2.47
		c1.03-0.88,1.97-1.47,2.94-1.87c0.29-0.12,0.53-0.21,0.79-0.25c0.08-0.01,0.13-0.01,0.16-0.01c0.03,0,0.04,0,0.04,0
		c0,0.01,0.01,0.05-0.05,0.19c-0.18,0.47-0.44,0.94-0.84,1.52c-0.65,0.95-1.32,1.9-1.98,2.83l-0.21,0.29
		c-0.09,0.13-0.19,0.27-0.24,0.44c-0.12,0.38-0.01,0.72,0.3,0.93c0.29,0.21,0.63,0.2,0.93-0.01c0.13-0.09,0.24-0.21,0.35-0.32
		l0.04-0.04c0.23-0.24,0.46-0.49,0.69-0.74c0.61-0.66,1.25-1.35,1.91-1.97c0.9-0.85,1.93-1.47,3.06-1.84l0.06-0.02
		c0.15-0.05,0.29-0.09,0.43-0.09c-0.03,0.1-0.09,0.18-0.15,0.26c-0.02,0.03-0.05,0.06-0.07,0.09c-0.3,0.42-0.61,0.84-0.92,1.26
		c-0.38,0.52-0.75,1.03-1.13,1.55c-0.41,0.57-0.7,1.12-0.89,1.69c-0.17,0.51-0.12,1.02,0.15,1.41c0.27,0.39,0.74,0.63,1.28,0.64
		c0.02,0,0.04,0,0.06,0c0.25,0,0.47-0.04,0.66-0.12l0.16-0.06c0.23-0.09,0.47-0.19,0.69-0.31c0.16-0.09,0.31-0.19,0.47-0.29
		c0.01,0.48,0.16,0.92,0.46,1.25c0.37,0.42,0.91,0.65,1.53,0.65c0.01,0,0.01,0,0.02,0c0.28,0,0.56-0.03,0.86-0.1
		c0.63-0.15,1.22-0.43,1.8-0.7l0.08-0.04c0.05-0.02,0.09-0.05,0.14-0.08c0.07-0.04,0.13-0.08,0.2-0.1
		c-0.01,0.02-0.01,0.04-0.02,0.07c-0.04,0.17-0.09,0.34-0.12,0.51c-0.11,0.66,0.03,1.24,0.4,1.63c0.3,0.31,0.73,0.47,1.24,0.47
		c0.12,0,0.24-0.01,0.36-0.03c0.55-0.08,1.08-0.29,1.73-0.67c1.15-0.69,2.32-1.5,3.67-2.53c0.12-0.09,0.25-0.19,0.36-0.32
		C243.75,198.49,243.77,198.08,243.55,197.78z M236.05,194.95c0.16-0.07,0.29-0.12,0.41-0.15c0.21-0.06,0.4-0.11,0.58-0.11
		c0.21,0,0.4,0.07,0.56,0.27c0.31,0.41,0.38,0.88,0.19,1.4c-0.04,0.1-0.1,0.18-0.2,0.25l-0.05,0.04v0
		c-1.15,0.79-2.33,1.59-3.66,2.12c-0.31,0.12-0.55,0.2-0.79,0.23c-0.31,0.05-0.51,0.02-0.59-0.07c-0.08-0.1-0.06-0.34,0.07-0.67
		c0.33-0.76,0.94-1.41,1.55-2.01C234.67,195.71,235.32,195.27,236.05,194.95z M214.85,189.99c0.25-0.13,0.48-0.24,0.7-0.24
		c0.15,0,0.3,0.05,0.44,0.17c0.39,0.34,0.55,0.79,0.46,1.34c-0.02,0.1-0.06,0.19-0.15,0.28c-0.98,1.01-1.99,2.06-3.21,2.85
		c-0.28,0.18-0.51,0.3-0.73,0.38c-0.3,0.11-0.5,0.12-0.59,0.05c-0.1-0.08-0.12-0.32-0.06-0.67c0.17-0.81,0.64-1.57,1.12-2.27
		c0.44-0.64,0.99-1.2,1.65-1.66C214.61,190.13,214.73,190.05,214.85,189.99z M184.07,190.78c-0.04,0.05-0.08,0.11-0.11,0.16
		c-0.23,0.4-0.18,0.81,0.13,1.07c0.33,0.29,0.78,0.26,1.14-0.06c0.29-0.26,0.46-0.6,0.63-0.92l0.05-0.1
		c0.17-0.33,0.36-0.43,0.74-0.38c1.07,0.13,2.13,0.37,3.17,0.61l0.4,0.09c1.63,0.37,3.4,0.69,5.21,0.67
		c-0.01,0.02-0.02,0.03-0.02,0.04c-2.43,2.72-5.12,4.14-8.22,4.32c-1.79,0.11-3.3-0.23-4.65-1.02c-0.51-0.3-0.88-0.6-1.17-0.93
		c-0.63-0.75-0.62-1.6,0.02-2.34c0.57-0.66,1.35-1.08,2.45-1.32c0.04-0.01,0.07-0.02,0.11-0.03c0.07-0.02,0.13-0.04,0.19-0.04
		c0.02,0,0.04,0,0.06,0.01C184.15,190.66,184.11,190.72,184.07,190.78z"/>
</g>
</svg>
