<?xml version="1.0" encoding="utf-8"?>
<!-- Generator: Adobe Illustrator 26.3.1, SVG Export Plug-In . SVG Version: 6.00 Build 0)  -->
<svg version="1.1" id="Layer_1" xmlns="http://www.w3.org/2000/svg" xmlns:xlink="http://www.w3.org/1999/xlink" x="0px" y="0px"
	 width="300px" height="300px" viewBox="0 0 300 300" enable-background="new 0 0 300 300" xml:space="preserve">
<g>
	<path fill="#010101" d="M129.5,91.52c0.46,0,0.92-0.02,1.37-0.11c1.18-0.24,1.99-1.25,1.92-2.34c-0.07-1.08-0.9-1.93-2.09-2.08
		c-0.51-0.06-1.04-0.06-1.55-0.04c-0.72,0.03-0.95-0.28-0.94-0.99c0.03-4.99-0.39-9.94-1.14-14.87c-0.12-0.8,0.13-1.02,0.89-1.02
		c1.31,0.01,2.63,0.1,3.93-0.1c0.9-0.14,1.6-0.57,1.93-1.48c0.3-0.82,0.15-1.57-0.41-2.22c-0.56-0.65-1.34-0.81-2.16-0.81
		c-2.29,0-4.58,0-6.87,0c0,0.08,0,0.16,0,0.24c-2.35,0-4.7-0.03-7.05,0.01c-1.89,0.03-2.95,0.93-2.91,2.34
		c0.04,1.39,1.09,2.18,2.94,2.21c0.46,0.01,0.92,0,1.37,0c0.92,0,1.83,0.01,2.75-0.02c0.58-0.02,0.89,0.19,0.98,0.8
		c0.75,5.02,1.15,10.07,1.18,15.15c0,0.67-0.2,1.02-0.91,1.08c-0.63,0.06-1.26,0.21-1.89,0.36c-5.06,1.19-9.68,3.23-13.26,7.14
		c-3.18,3.47-4.73,7.59-3.98,12.29c0.65,4.07,2.87,7.11,6.91,8.51c4.01,1.39,7.32,0,10.14-2.85c2.74-2.77,4.58-6.08,5.61-9.84
		c0.88-3.22,1.23-6.54,1.56-9.85C127.98,91.53,127.94,91.54,129.5,91.52z M121.57,102.73c-0.84,2.56-2.2,4.83-4.08,6.77
		c-1.65,1.71-3.57,2.65-5.93,1.62c-2.34-1.02-3.36-2.98-3.53-5.45c-0.01-0.21,0-0.43,0-0.64c0.02-3.14,1.27-5.74,3.53-7.87
		c3.08-2.9,6.86-4.38,10.93-5.23c0.63-0.13,0.85,0.09,0.78,0.71C122.9,96.03,122.64,99.45,121.57,102.73z"/>
	<path fill="#010101" d="M133.07,87.46c-0.43,3.33-0.89,6.67-0.62,10.04c0.16,2.01,0.44,4.02,1.42,5.83
		c1.17,2.17,3.3,2.77,5.44,1.57c1.06-0.6,1.89-1.44,2.62-2.4c0.33-0.43,0.64-0.87,1.13-1.53c0,0.8-0.02,1.33,0,1.87
		c0.08,1.99,0.26,3.97,1.09,5.82c1.22,2.7,3.83,3.35,6.19,1.58c0.57-0.43,1.04-0.94,1.48-1.49c0.82-1.03,1.5-2.15,2.11-3.32
		c1.26-2.4,2.18-4.92,2.99-7.48c1.03,1.32,2.08,2.62,3.15,3.91c0.41,0.49,0.49,0.88,0.07,1.44c-0.58,0.78-1.09,1.63-1.56,2.48
		c-1.53,2.78-2.65,5.69-2.89,8.89c-0.03,1.44,0.29,2.8,0.94,4.07c1.7,3.35,5.4,4.32,8.42,2.1c3.18-2.33,4.42-5.57,4.08-9.45
		c-0.24-2.75-1.07-5.32-2.38-7.74c-0.36-0.67-0.27-1.08,0.24-1.59c1.56-1.55,3.21-3,4.9-4.41c0.06-0.05,0.11-0.09,0.17-0.14
		c0.06,2.49,0.26,4.98,0.65,7.45c0.32,2.09,0.76,4.15,1.78,6.03c2.43,4.49,6.79,4.89,9.99,0.91c1.26-1.56,2.17-3.32,2.97-5.14
		c1.79-4.11,2.8-8.46,3.86-12.79c0.06-0.23,0.06-0.49,0.05-0.73c-0.04-1.1-0.75-1.94-1.78-2.16c-0.9-0.19-1.88,0.31-2.36,1.2
		c-0.29,0.54-0.44,1.14-0.59,1.73c-0.89,3.56-1.74,7.12-3.16,10.52c-0.67,1.61-1.42,3.18-2.54,4.54c-1.06,1.28-1.66,1.23-2.44-0.2
		c-0.76-1.39-1.03-2.93-1.26-4.47c-1.2-7.94-0.41-15.84,0.47-23.75c0.07-0.66,0.45-0.77,1-0.77c2.35,0.01,4.7,0.01,7.06,0
		c0.79,0,1.59,0.06,2.37-0.13c0.93-0.22,1.61-0.97,1.73-1.9c0.11-0.89-0.43-1.83-1.3-2.23c-0.63-0.29-1.3-0.32-1.97-0.32
		c-2.41,0-4.83-0.01-7.24,0.01c-0.65,0-0.88-0.22-0.75-0.88c0.19-0.96,0.32-1.93,0.45-2.9c0.15-1.2-0.33-2.2-1.22-2.65
		c-1.51-0.76-3.07,0.19-3.35,2.06c-0.17,1.15-0.34,2.3-0.46,3.45c-0.07,0.7-0.41,0.94-1.08,0.91c-1.04-0.03-2.08-0.01-3.12-0.01
		c-0.82,0-1.65-0.03-2.44,0.3c-1.59,0.67-1.89,2.67-0.56,3.73c0.56,0.44,1.23,0.53,1.9,0.55c1.07,0.02,2.14,0.01,3.21,0.01
		c1.25,0,1.26,0.01,1.12,1.23c-0.4,3.49-0.71,6.98-0.88,10.49c-0.05,0.03-0.1,0.07-0.14,0.1c-2.71,2.04-5.31,4.22-7.72,6.6
		c-0.51,0.5-0.82,0.58-1.28-0.05c-0.89-1.2-1.88-2.33-2.79-3.51c-0.81-1.05-1.43-2.19-1.72-3.51c-0.75-3.45,1.98-6.92,5.52-6.99
		c1.45-0.03,2.48-0.87,2.57-2.09c0.09-1.23-0.89-2.23-2.36-2.43c-2.35-0.32-4.35,0.55-6.09,1.98c-3.12,2.55-4.95,5.69-4.23,9.91
		c0.02,0.11,0.05,0.22,0.07,0.32c-0.06,0.21-0.13,0.41-0.19,0.62c-1.07,3.6-2.05,7.23-3.78,10.59c-0.52,1-1.06,1.97-1.85,2.89
		c-0.31-0.41-0.29-0.76-0.33-1.09c-0.31-2.22-0.23-4.45-0.1-6.68c0.18-2.96,0.58-5.9,0.9-8.84c0.17-1.57-0.47-2.72-1.69-3.07
		c-1.21-0.35-2.29,0.32-2.96,1.83c-0.52,1.17-1.02,2.35-1.54,3.53c-1.14,2.57-2.14,5.2-3.74,7.54c-0.28,0.41-0.54,1.11-1.05,0.98
		c-0.41-0.1-0.35-0.85-0.42-1.32c-0.45-2.83-0.24-5.66,0.08-8.49c0.11-0.97,0.34-1.93,0.18-2.92c-0.2-1.27-1.03-2.06-2.18-2.08
		C134.18,85.42,133.24,86.19,133.07,87.46z M162.82,107.58c0.1-0.18,0.16-0.44,0.42-0.42c0.21,0.02,0.24,0.26,0.3,0.42
		c0.59,1.58,1.05,3.18,1.04,4.88c0,1.72-0.47,3.25-1.83,4.4c-1.04,0.88-1.81,0.64-2.25-0.67c-0.33-0.97-0.19-1.92,0-2.88
		C160.92,111.26,161.78,109.38,162.82,107.58z"/>
	<g>
		<path fill="#010101" d="M127.73,117.19c-3.05,0-5.69,1.22-5.69,4.27c0,2.85,1.47,3.96,5.69,3.91c4.22-0.05,5.69-1.07,5.69-3.91
			C133.42,118.36,130.78,117.19,127.73,117.19z"/>
		<g>
			<path fill="#010101" d="M65.83,155.46c5.13,0,7.62-3.2,8.74-7.67c0.1-0.46,0.41-0.66,0.76-0.66c0.51,0,0.76,0.25,0.76,0.91
				c0.05,5.59,0.05,6.91,1.52,6.91c1.17,0,2.29-0.15,3.46-0.15c1.52,0,3.91,0.15,4.68,0.15c0.97,0,1.42-0.76,1.42-1.53
				c0-0.81-0.46-1.63-1.42-1.63c-1.17,0-1.98-0.76-2.03-2.9c-0.1-2.95-0.1-6.86-0.1-10.93c0.05-5.79,0-12.6,0-16.92
				c0-1.12-0.31-1.52-1.22-1.52c-1.42,0-7.57,1.58-10.87,1.58c-1.02,0-1.52,0.66-1.52,1.58c0,0.81,0.25,1.68,1.12,1.68
				c0.41,0,1.07-0.1,1.58-0.1c1.42,0,1.93,0.41,1.93,2.13c0,0.86-0.15,1.27-0.91,1.27c-0.97,0-1.98-0.41-4.68-0.41
				c-6.15,0-11.94,3.71-11.94,15.7C57.09,149.77,58.92,155.51,65.83,155.46z M70.76,130.61c2.13,0,3.35,1.02,3.35,3.25v5.95
				c0,3.91-0.86,8.94-4.52,8.94c-2.08,0-3.3-1.22-3.3-7.67C66.29,134.12,67.61,130.61,70.76,130.61z"/>
			<path fill="#010101" d="M103.54,126.75c-8.44,0-14.33,4.27-14.33,15.75c0,7.93,3.81,12.96,14.33,12.96s14.33-5.29,14.33-12.96
				C117.87,131.27,111.97,126.75,103.54,126.75z M103.64,151.6c-2.64,0-3.91-2.34-3.91-10.21c0-9.96,1.42-11.64,3.91-11.64
				c2.34,0,3.71,1.47,3.71,11.64C107.35,149.62,106.23,151.6,103.64,151.6z"/>
			<path fill="#010101" d="M122.4,151.85c-0.41,0-0.76-0.1-1.02-0.1c-0.86,0-1.37,0.51-1.37,1.58c0,1.17,0.51,1.63,1.37,1.63
				c1.88,0,3.66-0.2,5.74-0.2c2.74,0,6.71,0.2,8.08,0.2c1.07,0,1.47-0.71,1.47-1.63c0-0.81-0.41-1.58-1.47-1.58
				c-0.41,0-0.81,0.1-1.32,0.1c-0.71,0-0.86-0.71-0.91-3.25c-0.05-2.24-0.05-5.74-0.05-7.06c0-4.27,0.36-11.84,0.36-12.86
				c0-0.97-0.25-1.42-1.12-1.42c-1.78,0-3.46,0.31-5.28,0.31c-2.24,0-4.01-0.31-5.89-0.31c-0.97,0-1.22,0.76-1.22,1.58
				s0.25,1.68,1.22,1.68c0.15,0,0.46-0.05,0.86-0.05c0.91,0,1.27,0.41,1.37,2.34c0.1,1.63,0.15,3.61,0.15,5.44
				c0,3.96-0.15,7.98-0.31,11.59C123.01,150.94,122.95,151.85,122.4,151.85z"/>
			<path fill="#010101" d="M152.74,151.8c-0.2,0-0.97,0.05-1.12,0.05c-0.66,0-1.22-0.56-1.22-1.93v-2.29c0-2.54,0.05-5.03,0.31-7.93
				c0.41-4.83,1.83-6.5,4.32-6.5c1.98,0,2.69,1.73,2.69,3.51c0,3.66-0.36,10.16-0.36,14.74c0,2.19,0.56,3.51,2.39,3.51
				c1.47-0.05,2.85-0.2,4.17-0.2c1.88,0,4.17,0.15,5.64,0.2c0.81,0,1.22-0.76,1.22-1.42c0-0.86-0.41-1.63-1.22-1.63
				c-0.15,0-0.61,0.05-0.76,0.05c-1.32,0-1.93-1.02-1.93-2.85c0-2.79,0.61-8.79,0.61-12.25c0-6.56-1.73-10.11-8.44-10.11
				c-5.13,0-8.23,2.49-9.1,7.32c-0.1,0.56-0.36,0.86-0.76,0.86c-0.51,0-0.86-0.25-0.86-0.86c0-1.78,0.36-3.25,0.36-4.67
				c0-1.63-0.36-2.13-1.88-2.13c-1.37,0-2.59,0.15-3.91,0.15c-1.47,0-3.25-0.15-4.01-0.15c-1.07,0-1.58,0.86-1.58,1.73
				c0,0.86,0.46,1.52,1.32,1.52c0.31,0,0.61-0.05,0.86-0.05c0.86,0,1.02,0.3,1.12,1.98c0.1,2.34,0.1,4.57,0.1,6.91
				c0,3.05-0.05,6.35-0.1,10.52c-0.05,0.91-0.15,1.98-0.81,1.98c-0.15,0-0.92-0.05-1.07-0.05c-0.86,0-1.27,0.76-1.27,1.58
				c0,0.76,0.41,1.58,1.27,1.58c1.88,0,4.22-0.1,6.71-0.1c2.69,0,5.49,0.05,7.32,0.1c0.91,0,1.42-0.81,1.42-1.58
				C154.16,152.56,153.65,151.8,152.74,151.8z"/>
			<path fill="#010101" d="M192.12,127.21c-1.37,0-3.91-0.41-6.5-0.41c-7.67,0-12.4,2.79-12.4,9.45c0,4.88,2.29,7.32,5.59,7.83
				c0.71,0.1,1.12,0.61,1.12,1.12c0,0.46-0.36,0.91-1.07,0.91h-1.12c-3.91,0-6.4,2.59-6.4,7.22c0,4.98,2.08,7.17,6.71,7.17
				c5.18,0,9.91-3.15,14.28-3.15c2.54,0,3.96,0.81,3.96,1.88c0,0.51-0.41,1.07-1.42,1.07c-1.47,0-2.85-1.07-4.22-1.07
				c-0.86,0-1.37,0.56-1.37,1.27c0,1.32,1.42,2.24,4.93,2.24c5.13,0,7.01-2.44,7.01-7.32c0-3.86-2.39-6.3-7.17-6.3
				c-4.32,0-10.52,2.79-13.87,2.79c-1.47,0-1.98-0.81-1.98-1.73c0-1.98,1.83-3.15,8.39-3.15c9.45,0,12.91-3.15,12.91-9.91
				c0-4.62-2.39-6.3-4.07-6.91c-0.81-0.31-1.17-0.66-1.17-1.12s0.2-0.76,0.97-0.76c0.15,0,0.92,0.15,1.52,0.15
				c2.14,0,3.35-1.83,3.35-4.22c0-3.46-2.64-5.89-6.45-5.89c-3.71,0-5.54,1.37-5.54,3.35c0,2.34,1.58,3.3,3.81,3.71
				c0.97,0.2,1.32,0.46,1.32,0.91C193.24,126.85,193.04,127.21,192.12,127.21z M186.63,143.82c-3.81,0-4.07-4.17-4.07-8.59
				c0-5.03,1.58-5.54,3.91-5.54c2.69,0,3.91,1.63,3.91,7.01C190.39,142.6,189.48,143.82,186.63,143.82z"/>
		</g>
	</g>
	<path fill="#010101" d="M125.27,192.18c-1.58-1.24-3.36-2.12-5.25-2.75c-0.68-0.23-0.81-0.52-0.64-1.21
		c0.65-2.58,1.06-5.21,1.39-7.84c0.47-3.7,0.62-7.42,0.61-11.15c0-1.39-0.64-2.26-1.79-2.56c-0.96-0.25-1.81,0.2-2.55,1.34
		c-0.92,1.41-1.58,2.96-2.33,4.47c-1.47,2.95-2.93,5.92-5.05,8.48c-0.43,0.52-0.87,1.42-1.55,1.22c-0.59-0.17-0.53-1.15-0.64-1.8
		c-0.48-2.78-0.12-5.54,0.24-8.3c0.2-1.51,0.46-3.02,0.65-4.53c0.17-1.37-0.63-2.48-1.89-2.72c-1.1-0.21-2.22,0.59-2.55,1.88
		c-0.14,0.56-0.23,1.14-0.31,1.71c-0.17,1.23-0.36,2.46-0.52,3.69c-0.08,0.12-0.16,0.25-0.22,0.39c-0.3,0.66-0.5,1.38-0.7,2.08
		c-0.86,2.91-1.98,5.71-3.53,8.33c-0.6,1.01-1.31,1.91-2.16,2.71c-0.49,0.46-0.85,0.38-1.14-0.2c-0.36-0.71-0.57-1.48-0.76-2.25
		c-0.68-2.76-0.94-5.6-1.46-8.39c-0.32-1.71-0.62-3.44-1.53-4.96c-1.39-2.33-3.9-2.78-6.03-1.11c-0.2,0.16-0.34,0.45-0.71,0.44
		c-0.06-0.42-0.1-0.84-0.17-1.25c-0.2-1.3-0.45-2.59-1.13-3.75c-1.06-1.83-2.88-2.49-4.86-1.77c-0.99,0.36-1.85,0.93-2.65,1.61
		c-1.4,1.21-2.55,2.64-3.49,4.22c-0.71,1.2-1.36,2.44-2.15,3.87c0.06-1.11,0.18-2,0.15-2.87c-0.04-0.98-0.51-1.77-1.49-2.11
		c-0.85-0.3-1.63-0.11-2.29,0.51c-0.49,0.47-0.66,1.1-0.73,1.74c-0.58,5.14-0.64,10.3-0.24,15.46c0.12,1.52,1.28,2.66,2.62,2.73
		c1.18,0.06,2.07-0.82,2.41-2.42c0.01-0.06,0.03-0.12,0.04-0.18c0.41-2.26,1.06-4.45,1.91-6.59c1.25-3.18,2.48-6.38,4.56-9.16
		c0.55-0.74,1.17-1.41,1.89-1.98c0.41-0.32,0.65-0.25,0.75,0.27c0.16,0.75,0.23,1.51,0.25,2.27c0.1,3.43-0.15,6.84-0.48,10.24
		c-0.19,1.91-0.35,3.83-0.49,5.75c-0.1,1.31,0.62,2.36,1.7,2.59c1.25,0.26,2.29-0.37,2.73-1.72c0.18-0.55,0.28-1.13,0.39-1.69
		c0.74-3.56,1.69-7.07,2.99-10.47c0.2-0.53,0.49-1.02,0.73-1.53c0.33,0.49,0.49,0.94,0.57,1.4c0.44,2.56,0.82,5.13,1.28,7.68
		c0.38,2.1,0.82,4.21,1.97,6.06c1.78,2.85,4.84,3.37,7.44,1.25c1.19-0.97,2.18-2.14,3-3.43c0.52-0.83,1-1.67,1.45-2.53
		c0.14,0.38,0.3,0.75,0.48,1.12c1.27,2.47,3.63,3.21,6.1,1.97c1.37-0.69,2.38-1.79,3.32-2.96c0.95-1.19,1.76-2.47,2.66-3.73
		c-0.2,2.7-0.65,5.34-1.28,7.95c-0.14,0.6-0.59,0.5-1.02,0.47c-4.63-0.31-9.16,0.25-13.51,1.88c-4.82,1.81-8.63,4.81-10.65,9.71
		c-2.07,5.03-0.62,10.51,3.64,13.28c4.1,2.66,8.3,2.29,12.37-0.13c2.51-1.49,4.38-3.69,6.03-6.07c2.6-3.75,4.35-7.91,5.82-12.2
		c0.41-1.19,0.42-1.2,1.61-0.72c1.2,0.47,2.34,1.04,3.37,1.83c0.63,0.48,1.31,0.78,2.13,0.51c0.82-0.27,1.37-0.8,1.55-1.65
		C126.41,193.6,126.04,192.79,125.27,192.18z M112.6,194.96c-1.26,3.48-2.8,6.83-4.99,9.84c-1.1,1.51-2.33,2.9-3.87,3.99
		c-1.61,1.14-3.4,1.62-5.36,1.41c-2.67-0.29-4.69-2.25-4.98-4.93c-0.36-3.3,1.09-5.86,3.43-8c2.67-2.43,5.93-3.55,9.41-4.16
		c1.56-0.28,3.14-0.45,4.39-0.47C113.81,192.66,113.52,192.44,112.6,194.96z"/>
	<g>
		<path fill="#010101" d="M154.18,166.43c-6.05,0-8.28,2.59-9.45,7.47c-0.1,0.41-0.2,0.71-0.81,0.71c-0.56,0-0.81-0.36-0.81-0.92
			c0-4.67,2.29-9.6,2.29-12.4c0-1.37-0.36-2.08-1.63-2.08c-2.74,0-5.64,1.58-10.47,1.58c-0.92,0-1.58,0.46-1.58,1.63
			c0,1.22,0.46,1.63,1.37,1.63c0.31,0,0.76-0.05,0.97-0.05c0.97,0,1.17,0.71,1.22,2.24c0.15,3.91,0.15,7.78,0.15,11.28
			c0,7.83-0.41,15.24-0.41,15.85c0,0.76,0.61,1.37,1.68,1.37s1.73-0.41,1.73-1.37c0-0.25-0.1-0.86-0.1-1.42
			c0-0.76,0.61-1.22,1.73-1.22c2.19,0,5.34,4.12,12.04,4.12c6.66,0,10.72-4.07,10.72-14.33
			C162.82,170.44,160.84,166.43,154.18,166.43z M148.85,191.08c-2.9,0-3.66-2.24-3.66-5.13v-4.22c0-6.3,1.68-9.1,4.62-9.1
			c2.69,0,3.3,2.18,3.3,7.42C153.11,189.45,152.05,191.08,148.85,191.08z"/>
		<path fill="#010101" d="M190.98,182.69c-0.56,0-1.22,0.41-1.22,1.42c0,3.05-2.85,4.17-6.81,4.17c-4.47,0-6.56-1.58-6.56-4.01
			c0-1.52,1.37-1.88,3.25-1.88c10.32,0,12.35-2.74,12.35-7.32c0-4.68-2.64-8.89-11.43-8.89c-8.18,0-14.18,4.01-14.18,15.25
			c0,10.87,6.56,13.97,13.87,13.97c8.79,0,11.94-3.2,11.94-11.28C192.2,183.1,191.64,182.69,190.98,182.69z M175.83,176.44
			c0-4.83,1.27-6.96,4.67-6.96c2.64,0,3.4,1.93,3.4,4.12c0,5.28-4.07,6.1-5.84,6.1c-0.97,0-1.78-0.31-2.03-1.32
			C175.93,177.97,175.83,177.25,175.83,176.44z"/>
		<path fill="#010101" d="M211.56,177.41c-7.17-1.78-8.33-3.46-8.33-5.23c0-1.93,1.42-3.05,4.93-3.05c2.85,0,3.61,0.56,3.61,1.42
			c0,0.36-0.25,0.61-0.71,0.86c-0.76,0.41-1.22,1.02-1.22,1.93c0,1.98,2.13,2.85,5.13,2.85c3,0,4.57-1.37,4.57-3.71
			c0-3.81-4.07-6.3-11.94-6.3c-8.74,0-11.94,4.01-11.94,8.79c0,5.29,3.3,7.27,8.08,8.79c5.95,1.88,8.18,2.69,8.18,5.39
			c0,2.03-1.78,2.85-5.08,2.85c-2.8,0-3.86-0.51-3.86-1.27c0-0.36,0.2-0.56,0.81-0.92c0.61-0.36,0.91-0.97,0.91-2.03
			c0-1.73-2.03-2.95-4.93-2.95c-3.3,0-5.03,1.42-5.03,3.86c0,3.61,2.85,6.71,12.96,6.71c8.38,0,12.76-3.05,12.76-8.74
			C220.45,182.54,218.78,179.19,211.56,177.41z"/>
		<path fill="#010101" d="M238.55,180.2c-0.86,0-1.52,0.61-1.52,1.68c0,1.37,0.91,2.85,0.91,4.12c0,1.32-0.36,2.85-1.73,2.85
			c-1.32,0-2.34-0.56-2.39-4.27c-0.05-3.25,0.05-8.08,0.15-13.01c0-0.91,0.31-1.37,1.47-1.37c1.12,0,2.74,0.2,4.01,0.2
			c1.07,0,1.52-0.81,1.52-1.78c0-0.86-0.46-1.68-1.52-1.68c-0.92,0-2.44,0.15-3,0.15c-1.37,0-2.13-0.25-2.13-1.53
			c0-2.08,0.15-3.81,0.15-4.37c0-0.66-0.56-1.17-1.37-1.17c-0.76,0-1.22,0.31-1.78,1.02c-2.03,2.64-5.23,5.23-8.59,5.9
			c-1.02,0.2-1.27,0.81-1.27,1.63c0,0.76,0.25,1.57,1.17,1.57c0.25,0,0.76-0.1,1.22-0.1c0.61,0,1.07,0.56,1.12,1.78
			c0.1,1.88,0.1,3.51,0.1,5.08c0,3.51-0.36,7.57-0.36,9.91c0,5.39,1.88,8.33,7.83,8.33c5.89,0,8.08-3.1,8.08-10.06
			C240.63,181.12,239.92,180.2,238.55,180.2z"/>
	</g>
	<g>
		<path fill="#F1E8DB" d="M76.18,93.38c1.22,1.36,14.74,18.97,5.38,22.04c-9.19,3.02-10.72-19.11-10.45-20.42
			c0.17,0.46-2.46,25.83-12.69,20.21c-8.48-4.66,5.22-20.03,6.53-20.75c-2.23,1.16-18.68,15.22-22.56,4.89
			c-3.28-8.75,18.89-10,19.84-10.13c-0.97-0.46-26.62-1.44-23.48-12.1c3.78-12.81,24.86,5.2,25.1,5.7
			C63.25,81.53,46.44,64.91,57,59.79c11.36-5.51,13.88,19.47,14.24,19.89c0.11-0.6-1.89-23.99,8.85-22.54
			c11.37,2.24-2.2,23.43-2.22,23.99c9.41-4.1,22.12-12.89,24.85-1.69c1.91,7.86-11.82,7.36-20.87,8.32
			c3.6,1.1,22.72,6.36,16.23,16.6C94.18,110.53,78.77,95.63,76.18,93.38z"/>
		<path fill="#E2AE56" d="M71.75,93.62c-0.72-0.1-2.11-0.09-3.41-0.52c-3.54-1.17-4.92-5.34-2.95-9.16c0.67-1.3,2.33-2.59,3.61-2.94
			c2.3-0.63,4.64-0.58,6.93,0.65c1.7,0.91,2.65,3.1,2.29,5.16C77.57,90.54,75.58,92.7,71.75,93.62z"/>
	</g>
	<g>
		<path fill="#F1E8DB" d="M240.76,115.08c1.22,1.36,14.74,18.97,5.38,22.04c-9.19,3.02-10.72-19.11-10.45-20.42
			c0.17,0.46-2.46,25.83-12.69,20.21c-8.48-4.66,5.22-20.03,6.53-20.75c-2.23,1.16-18.68,15.22-22.56,4.89
			c-3.28-8.75,18.89-10,19.84-10.13c-0.97-0.46-26.62-1.44-23.48-12.1c3.78-12.81,24.86,5.2,25.1,5.7
			c-0.63-1.29-17.44-17.91-6.88-23.03c11.36-5.51,13.88,19.47,14.24,19.89c0.11-0.6-1.89-23.99,8.85-22.54
			c11.37,2.24-2.2,23.43-2.22,23.99c9.41-4.1,22.12-12.89,24.85-1.69c1.91,7.86-11.82,7.36-20.87,8.32
			c3.6,1.1,22.72,6.36,16.23,16.6C258.76,132.24,243.35,117.33,240.76,115.08z"/>
		<path fill="#E2AE56" d="M236.33,115.32c-0.72-0.1-2.11-0.09-3.41-0.52c-3.54-1.17-4.92-5.34-2.95-9.16
			c0.67-1.3,2.33-2.59,3.61-2.94c2.3-0.63,4.64-0.58,6.93,0.65c1.7,0.91,2.65,3.1,2.29,5.16
			C242.15,112.24,240.16,114.41,236.33,115.32z"/>
	</g>
	<path fill="#4E8879" d="M211.55,73.69c-0.05-3.41-0.67-6.78-0.63-10.19c0.01-0.46-0.45-0.71-0.85-0.54
		c-2.17,0.96-3.72,2.8-5.11,4.66c-1.47,1.98-2.75,4.09-3.84,6.3c-2.14,4.33-3.55,9-4.15,13.8c-0.35,2.77-0.41,5.56-0.19,8.34
		c0.04,0.57,0.75,0.73,1.04,0.42c0.08,0,0.17-0.02,0.25-0.07C206.32,92.04,211.7,83.02,211.55,73.69z"/>
	<path fill="#4E8879" d="M237.5,154.23c3.34-0.68,6.54-1.91,9.9-2.5c0.45-0.08,0.62-0.57,0.37-0.93c-1.34-1.95-3.43-3.15-5.52-4.16
		c-2.21-1.08-4.53-1.95-6.9-2.62c-4.65-1.31-9.5-1.83-14.33-1.53c-2.78,0.17-5.54,0.62-8.23,1.34c-0.55,0.15-0.57,0.87-0.22,1.09
		c0.02,0.08,0.05,0.16,0.11,0.24C218.49,152.46,228.35,156.09,237.5,154.23z"/>
	<path fill="#4E8879" d="M39.35,120.63c-3.02,1.58-5.75,3.66-8.81,5.16c-0.41,0.2-0.44,0.72-0.1,1c1.83,1.5,4.17,2.06,6.46,2.46
		c2.43,0.42,4.89,0.61,7.35,0.59c4.83-0.04,9.63-0.9,14.19-2.52c2.62-0.94,5.15-2.14,7.53-3.59c0.49-0.3,0.31-1-0.1-1.11
		c-0.04-0.07-0.09-0.14-0.18-0.2C58.1,117.02,47.61,116.29,39.35,120.63z"/>
	<path fill="#4E8879" d="M101.54,47.05c-2.11-2.67-4.65-4.97-6.69-7.71c-0.27-0.37-0.79-0.3-1,0.09c-1.14,2.08-1.26,4.48-1.22,6.8
		c0.04,2.46,0.3,4.92,0.77,7.34c0.93,4.74,2.66,9.3,5.09,13.48c1.41,2.41,3.06,4.66,4.91,6.74c0.38,0.43,1.04,0.12,1.07-0.3
		c0.06-0.05,0.12-0.12,0.16-0.21C108.54,64.81,107.33,54.37,101.54,47.05z"/>
	<path fill="#E2AE56" d="M62.98,171.88c-4.47,0.48-6.62,2.51-7.22,6.88c-0.28,2.07-0.5,4.14-0.74,6.22c-0.09,0-0.17,0-0.26,0
		c-0.26-2.46-0.42-4.93-0.82-7.36c-0.46-2.77-2.13-4.59-4.91-5.28c-0.66-0.16-1.31-0.36-2.2-0.61c0.95-0.23,1.67-0.41,2.4-0.58
		c2.49-0.61,4.05-2.16,4.51-4.67c0.46-2.54,0.78-5.11,1.19-7.89c0.36,2.58,0.67,4.94,1.01,7.29c0.49,3.35,2.57,5.04,5.79,5.54
		c0.42,0.06,0.84,0.15,1.26,0.22C62.98,171.71,62.98,171.79,62.98,171.88z"/>
	<path fill="#E2AE56" d="M157.77,64.61c-4.47,0.48-6.62,2.51-7.22,6.88c-0.28,2.07-0.5,4.14-0.74,6.22c-0.09,0-0.17,0-0.26,0
		c-0.26-2.46-0.42-4.93-0.82-7.36c-0.46-2.77-2.13-4.59-4.91-5.28c-0.66-0.16-1.31-0.36-2.2-0.61c0.95-0.23,1.67-0.41,2.4-0.58
		c2.49-0.61,4.05-2.16,4.51-4.67c0.46-2.54,0.78-5.11,1.19-7.89c0.36,2.58,0.67,4.94,1.01,7.29c0.49,3.35,2.57,5.04,5.79,5.54
		c0.42,0.06,0.84,0.15,1.26,0.22C157.77,64.44,157.77,64.53,157.77,64.61z"/>
	<path fill="#E2AE56" d="M261.26,172.49c-4.47,0.48-6.62,2.51-7.22,6.88c-0.28,2.07-0.5,4.14-0.74,6.22c-0.09,0-0.17,0-0.26,0
		c-0.26-2.46-0.42-4.93-0.82-7.36c-0.46-2.77-2.13-4.59-4.91-5.28c-0.66-0.16-1.31-0.36-2.2-0.61c0.95-0.23,1.67-0.41,2.4-0.58
		c2.49-0.61,4.05-2.16,4.51-4.67c0.46-2.54,0.78-5.11,1.19-7.89c0.36,2.58,0.67,4.94,1.01,7.29c0.49,3.35,2.57,5.04,5.79,5.54
		c0.42,0.06,0.84,0.15,1.26,0.22C261.26,172.32,261.26,172.41,261.26,172.49z"/>
	<g>
		<path fill="#F1E8DB" d="M159.83,229.94c-1.72,0.61-23.15,6.4-22.43-3.41c0.71-9.64,21.75-2.63,22.86-1.89
			c-0.49-0.02-22.95-12.11-13.86-19.43c7.54-6.06,16.54,12.45,16.7,13.94c-0.23-2.51-6.97-23.07,4.07-22.72
			c9.34,0.3,2.06,21.27,1.82,22.21c0.79-0.72,11.46-24.07,20.12-17.1c10.41,8.37-14.27,21.01-14.83,21.04
			c1.44-0.09,23.2-9.31,23.92,2.4c0.77,12.6-23.29,5.43-23.82,5.6c0.51,0.33,22.9,7.39,17.47,16.77
			c-6.4,9.67-20.83-10.96-21.34-11.18c0.21,10.26,3.5,25.36-7.9,23.62c-7.99-1.22-2.3-13.73,0.25-22.47
			c-2.39,2.91-14.53,18.59-21.53,8.69C137.12,240.05,156.77,231.48,159.83,229.94z"/>
		<path fill="#E2AE56" d="M161.3,225.75c0.37-0.63,0.89-1.91,1.78-2.95c2.43-2.83,6.81-2.51,9.59,0.76
			c0.95,1.11,1.51,3.14,1.35,4.46c-0.29,2.36-1.23,4.51-3.24,6.16c-1.49,1.23-3.87,1.27-5.64,0.15
			C161.93,232.31,160.68,229.64,161.3,225.75z"/>
	</g>
	<path fill="#4E8879" d="M212.75,223.22c3.17,1.25,6.52,1.96,9.66,3.3c0.42,0.18,0.83-0.14,0.82-0.58c-0.06-2.37-1.17-4.51-2.36-6.5
		c-1.27-2.11-2.73-4.1-4.36-5.95c-3.19-3.63-6.97-6.71-11.18-9.09c-2.43-1.37-4.99-2.49-7.64-3.35c-0.55-0.18-0.96,0.42-0.78,0.8
		c-0.03,0.08-0.04,0.16-0.03,0.26C197.77,211.39,204.07,219.81,212.75,223.22z"/>
	<path fill="#4E8879" d="M119.84,218.07c-0.64,3.35-0.72,6.77-1.46,10.1c-0.1,0.45,0.29,0.79,0.72,0.7c2.32-0.5,4.22-1.98,5.95-3.52
		c1.84-1.64,3.53-3.44,5.05-5.38c2.98-3.81,5.31-8.09,6.87-12.66c0.9-2.64,1.53-5.36,1.89-8.12c0.07-0.57-0.59-0.86-0.93-0.62
		c-0.08-0.01-0.17-0.01-0.26,0.01C128.71,201.16,121.6,208.9,119.84,218.07z"/>
</g>
</svg>
