<?xml version="1.0" encoding="utf-8"?>
<!-- Generator: Adobe Illustrator 28.0.0, SVG Export Plug-In . SVG Version: 6.00 Build 0)  -->
<svg version="1.1" id="Layer_1" xmlns="http://www.w3.org/2000/svg" xmlns:xlink="http://www.w3.org/1999/xlink" x="0px" y="0px"
	 viewBox="0 0 300 300" style="enable-background:new 0 0 300 300;" xml:space="preserve">
<style type="text/css">
	.st0{fill:#231F20;}
	.st1{fill:#CFC0DF;}
	.st2{fill:#F1BF86;}
	.st3{fill:#ECB8D0;}
</style>
<g>
	<g>
		<g>
			<path class="st0" d="M82.8,88.99c-6.77,0-10.83-2.19-11.02-8.08c-0.2-6.24,0.87-11.75,0.56-18.06
				c-0.25-5.13-0.16-8.68-1.21-13.81c-0.95-4.63-3.8-12.77,7.78-12.77c10.8,0,8.78,4.25,9.28,12.7c0.3,5.04,0.27,8.39,0.94,13.25
				c0.91,6.52,2.95,12.17,3.34,18.48C92.88,87.27,90.38,88.99,82.8,88.99z"/>
			<path class="st0" d="M117.14,89.78c-16.53,2.53-21.83-10.03-22.28-23.75c-0.2-5.99-1.35-13.47-2.11-19.1
				c-0.96-7.13,4.47-11.07,10.61-10.81C127.64,37.12,149.57,84.82,117.14,89.78z M113.15,71.99c9.32-1.8,7.47-14.05-2.58-16.52
				C111.33,59.77,112.3,68.2,113.15,71.99z"/>
			<path class="st0" d="M157.97,90.23c-0.78-3.01-1.89-6.29-3.99-11.64c0.44,11.51,2.13,16.95-6.44,15.77
				c-6.9-0.95-8.32-1.09-8.79-10.17c-0.29-5.51,0.42-11.17-0.13-17.04c-0.65-6.99-1.95-12.11-3.32-19.64
				c-1.87-10.26,0.74-10.96,7.94-10.79c8.54,0.2,7.87,8.38,9.14,17.78c2.13-4.91,6.79-16.09,12.69-16.06
				c6.25,0.03,12.63,11.77,7.68,17.15c-3.11,3.34-6.56,7.98-13.75,12.23c4.12,3.3,15.8,11.88,15.67,20.69
				C174.53,96.88,160.82,101.11,157.97,90.23z"/>
			<path class="st0" d="M183.03,99.59c-4.93-1.69,0.72-6.89,1.39-8.84c-3.4,0.36-6.32-2.99-6.22-6.95c0.1-3.82,2.6-5.78,5.81-5.73
				C195.84,78.21,187.98,101.29,183.03,99.59z"/>
			<path class="st0" d="M220.66,95.13c-5.9,1.02-8.92-1.21-8.68-7.72c0.25-6.89,1.5-13.18,1.6-20.33c0.08-5.82,0.37-9.9-0.37-15.8
				c-0.66-5.34-3.23-14.98,8.33-14.99c10.79-0.01,8.15,4.43,7.64,13.55c-0.3,5.44-0.68,9.14-0.54,14.39
				c0.19,7.05,1.55,12.87,1.39,19.79C229.87,91.22,227.26,93.98,220.66,95.13z"/>
			<path class="st0" d="M88.76,145c-14,0.58-19.11-4.62-18.89-18.18c0.09-5.92,2.85-9.9,10.01-10.36c5.02-0.32,8.76,0.9,8.38,6.19
				c-0.16,2.25-0.06,7.87,2.84,7.61c2.37-0.21,3.54-2.94,4.1-7.76c0.35-3.06,0.13-6.17-0.07-9.26c-0.29-4.34-2.32-8.44-2.45-12.83
				c-0.18-5.96,4.33-6.47,10.48-6.09c5.48,0.34,8.2,1.93,8.27,6.45c0.06,3.68-1,7.44-0.99,10.94
				C110.51,127.41,108.53,144.19,88.76,145z"/>
			<path class="st0" d="M149.79,127.08c-2.1,14.72-1.71,20.76-18.42,18.56c-11.92-1.57-17.77-9.08-17.27-20.91
				c0.25-5.95,1.58-7.63,1.39-13.56c-0.43-13.51-4.02-16.52,8.83-15.24c13.62,1.36,6.7,7.75,5.34,26.87
				c-0.2,2.8,0.34,6.34,2.84,6.67c5,0.65,3.83-8.49,3.89-11.98c0.27-17.7-2.77-19.83,8.68-18.51
				C157.8,100.45,152.18,110.37,149.79,127.08z"/>
			<path class="st0" d="M166.77,152.47c-7.69-0.43-16.4-6.47-16.3-15c0.05-4.27,2.67-7.65,7.14-7.38
				c7.95,0.48,8.04,13.86,11.85,10.38c4.51-4.12-13.32-10.83-13.51-22.97c-0.24-15.08,16.96-19.64,28.24-13.1
				c2.77,1.66,4.79,4.09,4.87,7.73c0.11,5.24-3.33,8.64-8.06,8.83c-4.73,0.19-8.65-8.51-10.08-3.75c-1.15,3.85,4.69,7.2,6.15,7.81
				c5.87,2.37,10.31,3.99,10.33,10.61C187.45,147.24,176.6,153.02,166.77,152.47z M181.1,127.55c0.01-0.07,0.01-0.07-0.06-0.07
				C181.1,127.48,181.1,127.48,181.1,127.55z"/>
			<path class="st0" d="M207.67,153.83c-5.93,0.33-8.39-1.91-7.96-7.43c0.66-8.51,2.78-16.11,3.17-25.97
				c0.25-6.17-13.67,10.94-12.23-9.87c0.37-5.31,3.01-6.95,7.54-7.21c8.41-0.48,14.97-0.99,24.09-2.92
				c9.27-1.96,9.26-1.17,9.16,5.37c-0.27,19.24-12.59,5.71-13.55,13.79c-0.91,7.59-0.01,16.65-0.38,24.56
				C217.18,151.21,216.68,153.34,207.67,153.83z M212.31,148.44c-0.03,0.03-0.05,0.04-0.08,0.07c0.07-0.01,0.39-0.37,0.39-0.43
				C212.5,148.23,212.44,148.3,212.31,148.44z"/>
			<path class="st0" d="M109.18,171.8c-1.37,6.1-2.11,12.54-3.31,19.19c-1.19,6.56-3.58,7.51-10.01,8.23
				c-10.23,1.16-8.69-0.44-11.16-14.46c-2.18,11.17-0.47,15.95-11.97,18.49c-14.33,3.16-9.83-6.77-10.55-16.97
				c-0.52-7.26-3.65-13.67-3.72-20.68c-0.11-10.6,1-12.11,10.32-14.04c9.32-1.93,10.52,0.29,10.4,7.63
				c-0.06,3.37-0.42,15.11-0.47,18.58c2.92-15.36,2.69-18.75,8.68-19.39c5.18-0.56,4.14,4.34,5.79,17.4
				c1.65-17.31,1.78-28.46,11.17-27.85c5.29,0.34,9.35,1.22,8.93,6.68C112.84,160.24,110.46,166.09,109.18,171.8z"/>
			<path class="st0" d="M131.25,200.05c-25.95-1.96-23.33-52,1.57-49.61C157.42,152.79,156.35,201.94,131.25,200.05z M129.01,173.82
				c0.28,6.22,7.67,5.02,7.57-2.64C136.49,163.71,128.57,163.86,129.01,173.82z"/>
			<path class="st0" d="M185.68,205.76c-1.5,0.44-2.99,0.67-4.63,0.49c-6.61-0.73-7.41-6.36-8.75-10.99
				c-0.73-2.42-1.48-5.48-2.68-7.76c0.29,3.1,1.02,6.95,0.96,10.12c-0.13,6.41-3.67,7.28-9.32,6.52c-6.5-0.87-9.3-3.57-9.04-10.47
				c0.18-4.78,1.83-9.72,2.23-14.32c0.61-6.99-1.71-18.03,4.19-22.13c2.4-1.65,9.22-1.95,12.31-1.49c8.9,1.32,19.32,4.6,18.55,14.8
				c-0.42,5.51-3.66,10.61-8.69,13.23c2.43,2.94,6.32,4.2,9.22,7.49c1.56,1.78,3.02,4.32,3.05,6.57
				C193.13,202.52,190.03,204.44,185.68,205.76z M169.31,173.84c0.04,0.26,0.43,0.32,0.62,0.35c4.95,0.75,5.16-7.52,0.76-8.18
				C169.55,165.83,169.22,172.63,169.31,173.84z"/>
			<path class="st0" d="M219.33,203.04c-1.06-2.71-2.54-5.6-4.96-10.15c0.22,10.23,2.57,15.56-7.72,15.14
				c-8.28-0.34-9.98-0.7-10.27-9.08c-0.18-5.09,1.1-10.19,1.36-15.3c0.31-6.08-0.16-10.35,0.05-16.38
				c0.28-8.22,3.14-8.47,10.69-8.74c8.95-0.32,6.7,5.88,6.69,13.57c3.23-4.31,10.37-13.83,17.38-15.07
				c7.43-1.31,14.34,6.48,7.42,12.34c-4.35,3.65-9.29,8.53-18.59,13.29c4.77,2.3,19.97,7.4,20,15.75
				C241.4,206.35,223.22,212.83,219.33,203.04z"/>
			<path class="st0" d="M79.76,264.94c-6.33-0.04-9-1.19-9.24-10.12c-0.14-5.37,1.06-10.73,1.58-16.04c0.42-4.31-0.05-8.64,0-12.83
				c0.02-1.91-0.4-3.78-0.38-5.61c0.07-6.4-0.51-12.13,8.04-13.95c17.37-3.7,6.44,14.44,9.62,20.36c1.3,2.41,3.67,1.8,5-0.89
				c3.85-7.6-6.72-23.01,12.82-21.8c3.75,0.2,5.58,1.41,5.48,6.31c-0.13,6.69-1.96,13.59-1.82,20.77c0.12,6.14,1.22,12.1,1.68,18.68
				c0.73,10.61-0.15,14.22-7.19,14.48c-9.63,0.35-10.51-2.01-11.19-13.86c-0.21-3.7,0.77-7.96-0.41-10.52
				c-0.82-1.77-3.19-1.19-4.15,0.56c-1.51,2.92-0.08,6.11-0.05,9.46C89.64,261.87,88.76,265,79.76,264.94z"/>
			<path class="st0" d="M139.92,265.38c-10.85-0.01-22.82,4.18-23.86-14.51c-0.28-5.11,0.56-9.26,0.43-14.1
				c-0.21-8.12-1.23-15.51-1.03-22.95c0.39-14.58,16.09-9,24.58-7.5c3.7,0.65,3.8,3.9,3.82,7.13c0.02,3.73-0.27,9.65-4.99,9.24
				c-1.7-0.15-3.42-0.89-5.18-1.04c-3.4-0.28-4.75,1.92-3.21,3.95c1.22,1.61,2.79,0.59,5.74,0.72c4.73,0.22,5.54,2.53,5.76,6.48
				c0.22,3.95,0.96,7.99-5.81,7.7c-1.41-0.06-3.99-0.28-4.64,1.25c-2.47,5.95,10.42,3.71,11.65,3.76c3.33,0.14,3.88,3.63,4.21,6.53
				C148.18,259,146.9,265.39,139.92,265.38z"/>
			<path class="st0" d="M187.48,264.33c-1.34,0.7-2.72,1.18-4.35,1.18c-6.56-0.01-8.85-6.86-11.25-12.32
				c-1.29-2.85-2.7-6.44-4.39-9.03c0.95,3.69,2.51,8.24,3.17,12.15c1.33,7.91-2.05,9.61-8.18,9.61c-7.05,0-10.71-3-11.8-11.63
				c-0.75-5.97,0.03-12.29-0.42-17.92c-0.67-8.56-4.66-21.28,0.87-26.32c2.25-2.02,9.17-2.68,12.38-2.28
				c9.23,1.16,20.29,5.1,21.08,16.1c0.43,5.94-1.96,11.55-6.65,14.8c3.12,3.27,7.46,4.5,10.95,8.17c1.87,1.99,3.74,4.84,4.16,7.45
				C193.94,259.73,191.36,262.22,187.48,264.33z M164.54,228.12c0.09,0.29,0.49,0.33,0.69,0.35c5.16,0.43,4.01-8.89-0.56-9.36
				C163.47,218.98,164.23,226.73,164.54,228.12z"/>
			<path class="st0" d="M220.32,265.48c-10.88-0.01-22.52,3.64-24.99-12.3c-0.68-4.35-0.06-7.84-0.57-12.03
				c-0.85-7.03-2.63-13.65-3.07-20.31c-0.86-13.05,17.89-7.81,28.7-7.4c4.71,0.18,5.02,3.25,5.14,6.32
				c0.14,3.54-0.22,9.12-5.91,9.03c-2.06-0.03-4.13-0.62-6.23-0.69c-4.05-0.12-5.47,1.83-3.59,3.61c1.49,1.41,3.26,0.48,6.75,0.49
				c5.59,0.02,6.62,2.04,6.85,5.55c0.22,3.52,0.93,7.08-6.68,6.92c-1.58-0.03-4.47-0.21-5.15,1.1c-2.6,5.09,11.55,3.08,12.91,3.1
				c3.71,0.06,4.13,3.06,4.3,5.52C229.17,260.29,227.32,265.49,220.32,265.48z"/>
		</g>
	</g>
	<g>
		<path class="st1" d="M65.92,107.18c-0.11-0.16-0.23-0.32-0.36-0.46c0.02-0.03,0.03-0.07,0.05-0.1c0.02-0.03,0.03-0.07,0.05-0.1
			c0.19,0.01,0.39,0,0.59-0.01c2.97-0.24,5.19-2.84,4.95-5.81c-0.24-2.97-2.84-5.19-5.81-4.95c-0.2,0.02-0.39,0.04-0.58,0.08
			c-0.02-0.03-0.04-0.06-0.07-0.09c-0.02-0.03-0.04-0.06-0.07-0.1c0.1-0.16,0.2-0.34,0.28-0.51c1.28-2.69,0.14-5.91-2.56-7.19
			c-2.69-1.28-5.91-0.14-7.19,2.56c-0.09,0.18-0.16,0.36-0.22,0.54c-0.04,0-0.08,0.01-0.11,0.01c-0.04,0-0.08,0.01-0.11,0.01
			c-0.09-0.17-0.19-0.34-0.31-0.5c-1.69-2.46-5.05-3.07-7.51-1.38c-2.46,1.69-3.07,5.05-1.38,7.51c0.11,0.16,0.23,0.32,0.36,0.46
			c-0.02,0.03-0.03,0.07-0.05,0.1c-0.02,0.04-0.03,0.07-0.05,0.11c-0.19-0.01-0.39,0-0.59,0.01c-2.97,0.24-5.19,2.84-4.95,5.81
			c0.24,2.97,2.84,5.19,5.81,4.95c0.2-0.02,0.39-0.04,0.58-0.08c0.02,0.03,0.05,0.06,0.07,0.1c0.02,0.03,0.04,0.06,0.06,0.09
			c-0.1,0.16-0.2,0.34-0.28,0.51c-1.28,2.69-0.14,5.91,2.56,7.19c2.69,1.28,5.91,0.14,7.19-2.56c0.09-0.18,0.16-0.36,0.22-0.54
			c0.04,0,0.08-0.01,0.11-0.01c0.04,0,0.08-0.01,0.11-0.01c0.09,0.17,0.19,0.34,0.31,0.5c1.69,2.46,5.05,3.07,7.51,1.38
			C66.99,113,67.61,109.63,65.92,107.18z M56.1,106.44c-2.5,0.2-4.68-1.66-4.88-4.16c-0.2-2.5,1.66-4.68,4.16-4.88
			c2.5-0.2,4.68,1.66,4.88,4.16C60.46,104.05,58.6,106.24,56.1,106.44z"/>
		<path class="st1" d="M138.83,279.48c-0.11-0.16-0.23-0.32-0.36-0.46c0.02-0.03,0.03-0.07,0.05-0.1c0.02-0.03,0.03-0.07,0.05-0.1
			c0.19,0.01,0.39,0,0.59-0.01c2.97-0.24,5.19-2.84,4.95-5.81c-0.24-2.97-2.84-5.19-5.81-4.95c-0.2,0.02-0.39,0.04-0.58,0.08
			c-0.02-0.03-0.04-0.06-0.07-0.09c-0.02-0.03-0.04-0.06-0.07-0.1c0.1-0.16,0.2-0.34,0.28-0.51c1.28-2.69,0.14-5.91-2.56-7.19
			s-5.91-0.14-7.19,2.56c-0.09,0.18-0.16,0.36-0.22,0.54c-0.04,0-0.08,0.01-0.11,0.01c-0.04,0-0.08,0.01-0.11,0.01
			c-0.09-0.17-0.19-0.34-0.31-0.5c-1.69-2.46-5.05-3.07-7.51-1.38c-2.46,1.69-3.07,5.05-1.38,7.51c0.11,0.16,0.23,0.32,0.36,0.46
			c-0.02,0.03-0.03,0.07-0.05,0.1c-0.02,0.04-0.03,0.07-0.05,0.11c-0.19-0.01-0.39,0-0.59,0.01c-2.97,0.24-5.19,2.84-4.95,5.81
			c0.24,2.97,2.84,5.19,5.81,4.95c0.2-0.02,0.39-0.04,0.58-0.08c0.02,0.03,0.05,0.06,0.07,0.1c0.02,0.03,0.04,0.06,0.06,0.09
			c-0.1,0.16-0.2,0.34-0.28,0.51c-1.28,2.69-0.14,5.91,2.56,7.19c2.69,1.28,5.91,0.14,7.19-2.56c0.09-0.18,0.16-0.36,0.22-0.54
			c0.04,0,0.08-0.01,0.11-0.01c0.04,0,0.08-0.01,0.11-0.01c0.09,0.17,0.19,0.34,0.31,0.5c1.69,2.46,5.05,3.07,7.51,1.38
			C139.91,285.3,140.53,281.94,138.83,279.48z M129.01,278.74c-2.5,0.2-4.68-1.66-4.88-4.16c-0.2-2.5,1.66-4.68,4.16-4.88
			c2.5-0.2,4.68,1.66,4.88,4.16C133.37,276.36,131.51,278.54,129.01,278.74z"/>
		<path class="st1" d="M254.38,143.57c-0.11-0.16-0.23-0.32-0.36-0.46c0.02-0.03,0.03-0.07,0.05-0.1c0.02-0.03,0.03-0.07,0.05-0.1
			c0.19,0.01,0.39,0,0.59-0.01c2.97-0.24,5.19-2.84,4.95-5.81c-0.24-2.97-2.84-5.19-5.81-4.95c-0.2,0.02-0.39,0.04-0.58,0.08
			c-0.02-0.03-0.04-0.06-0.07-0.09c-0.02-0.03-0.04-0.06-0.07-0.1c0.1-0.16,0.2-0.34,0.28-0.51c1.28-2.69,0.14-5.91-2.56-7.19
			c-2.69-1.28-5.91-0.14-7.19,2.56c-0.09,0.18-0.16,0.36-0.22,0.54c-0.04,0-0.08,0.01-0.11,0.01c-0.04,0-0.08,0.01-0.11,0.01
			c-0.09-0.17-0.19-0.34-0.31-0.5c-1.69-2.46-5.05-3.07-7.51-1.38c-2.46,1.69-3.07,5.05-1.38,7.51c0.11,0.16,0.23,0.32,0.36,0.46
			c-0.02,0.03-0.03,0.07-0.05,0.1c-0.02,0.04-0.03,0.07-0.05,0.11c-0.19-0.01-0.39,0-0.59,0.01c-2.97,0.24-5.19,2.84-4.95,5.81
			c0.24,2.97,2.84,5.19,5.81,4.95c0.2-0.02,0.39-0.04,0.58-0.08c0.02,0.03,0.05,0.06,0.07,0.1c0.02,0.03,0.04,0.06,0.06,0.09
			c-0.1,0.16-0.2,0.34-0.28,0.51c-1.28,2.69-0.14,5.91,2.56,7.19c2.69,1.28,5.91,0.14,7.19-2.56c0.09-0.18,0.16-0.36,0.22-0.54
			c0.04,0,0.08-0.01,0.11-0.01c0.04,0,0.08-0.01,0.11-0.01c0.09,0.17,0.19,0.34,0.31,0.5c1.69,2.46,5.05,3.07,7.51,1.38
			C255.46,149.38,256.08,146.02,254.38,143.57z M244.56,142.83c-2.5,0.2-4.68-1.66-4.88-4.16c-0.2-2.5,1.66-4.68,4.16-4.88
			c2.5-0.2,4.68,1.66,4.88,4.16C248.93,140.44,247.06,142.63,244.56,142.83z"/>
	</g>
	<g>
		<path class="st2" d="M249.95,90.85c0.19,0.57,0.4,1.17,0.63,1.83c0.23-0.66,0.44-1.26,0.63-1.83c2.73-7.97,3.14-8.38,11.11-11.11
			c0.57-0.19,1.17-0.4,1.83-0.63c-0.66-0.23-1.26-0.44-1.83-0.63c-7.97-2.73-8.38-3.14-11.11-11.11c-0.19-0.57-0.4-1.17-0.63-1.83
			c-0.23,0.66-0.44,1.26-0.63,1.83c-2.72,7.97-3.14,8.38-11.11,11.11c-0.57,0.19-1.17,0.4-1.83,0.63c0.66,0.23,1.26,0.44,1.83,0.63
			C246.81,82.46,247.23,82.88,249.95,90.85z"/>
		<path class="st2" d="M51.33,244.04c0.19,0.57,0.4,1.17,0.63,1.83c0.23-0.66,0.44-1.26,0.63-1.83c2.73-7.97,3.14-8.38,11.11-11.11
			c0.57-0.19,1.17-0.4,1.83-0.63c-0.66-0.23-1.26-0.44-1.83-0.63c-7.97-2.73-8.38-3.14-11.11-11.11c-0.19-0.57-0.4-1.17-0.63-1.83
			c-0.23,0.66-0.44,1.26-0.63,1.83c-2.72,7.97-3.14,8.38-11.11,11.11c-0.57,0.19-1.17,0.4-1.83,0.63c0.66,0.23,1.26,0.44,1.83,0.63
			C48.19,235.66,48.6,236.07,51.33,244.04z"/>
		<path class="st2" d="M90.57,35.36c0.19,0.57,0.4,1.17,0.63,1.83c0.23-0.66,0.44-1.26,0.63-1.83c2.73-7.97,3.14-8.38,11.11-11.11
			c0.57-0.19,1.17-0.4,1.83-0.63c-0.66-0.23-1.26-0.44-1.83-0.63c-7.97-2.73-8.38-3.14-11.11-11.11c-0.19-0.57-0.4-1.17-0.63-1.83
			c-0.23,0.66-0.44,1.26-0.63,1.83c-2.72,7.97-3.14,8.38-11.11,11.11c-0.57,0.19-1.17,0.4-1.83,0.63c0.66,0.23,1.26,0.44,1.83,0.63
			C87.43,26.98,87.84,27.39,90.57,35.36z"/>
	</g>
	<g>
		<path class="st3" d="M249.62,240.72c1.36-1.91,6.11-11.73,6.95-18.01c0.27-2.03-0.36-4.27-1.68-5.99
			c-1.14-1.48-2.66-2.41-4.28-2.62c-4.2-0.54-7.75,1.96-8.64,6.08l-0.61,2.83l-2.46-1.33c-1.03-0.56-2.23-0.84-3.47-0.84
			c-0.82,0-1.66,0.13-2.46,0.38c-1.86,0.6-3.31,1.8-4.09,3.39c-1.77,3.64-0.49,7.91,3.05,10.15
			C238.21,238.72,247.42,240.67,249.62,240.72z"/>
		<path class="st3" d="M182.77,48.26c2.31-0.4,12.6-4.03,17.61-7.91c1.62-1.26,2.75-3.29,3.02-5.44c0.23-1.85-0.19-3.58-1.2-4.87
			c-2.6-3.34-6.89-4.07-10.42-1.76l-2.42,1.59l-0.81-2.68c-0.34-1.12-1-2.17-1.87-3.04c-0.59-0.58-1.27-1.08-2.02-1.46
			c-1.74-0.89-3.62-1.05-5.29-0.47c-3.82,1.34-5.92,5.27-4.98,9.36C176.07,38.82,181.24,46.68,182.77,48.26z"/>
		<path class="st3" d="M56.86,190.39c1.47-1.82,6.81-11.34,8.01-17.56c0.39-2.01-0.1-4.29-1.32-6.09c-1.05-1.54-2.51-2.57-4.12-2.87
			c-4.16-0.79-7.86,1.49-8.99,5.55l-0.77,2.79l-2.37-1.48c-0.99-0.62-2.18-0.97-3.41-1.05c-0.82-0.05-1.66,0.03-2.48,0.24
			c-1.89,0.48-3.41,1.6-4.28,3.14c-1.99,3.53-0.97,7.87,2.43,10.31C45.59,187.71,54.66,190.2,56.86,190.39z"/>
	</g>
</g>
</svg>
