<?xml version="1.0" encoding="utf-8"?>
<!-- Generator: Adobe Illustrator 28.0.0, SVG Export Plug-In . SVG Version: 6.00 Build 0)  -->
<svg version="1.1" id="Layer_1" xmlns="http://www.w3.org/2000/svg" xmlns:xlink="http://www.w3.org/1999/xlink" x="0px" y="0px"
	 viewBox="0 0 300 300" style="enable-background:new 0 0 300 300;" xml:space="preserve">
<style type="text/css">
	.st0{fill:#231F20;}
	.st1{fill:#D13E27;}
	.st2{fill:#FCE8BA;}
	.st3{fill:#FFF7E7;}
	.st4{fill:#62735F;}
	.st5{fill:#FFFFFF;}
	.st6{fill:#F9AA8C;}
</style>
<g>
	<g>
		<path class="st0" d="M103.41,74.54c3.02-0.53,5.75-1.36,7.82-3.84c0.42-0.47,0.84-0.94,1.33-1.42c1.14-0.93,2.38-1.06,3.6-0.28
			c0.68,0.37,1.25,0.92,1.61,1.51c1.62,2.55,2.54,5.34,2.47,8.35c-0.06,1.73-0.37,3.37-1.22,4.91c-1.36,2.62-3.6,4.32-6.4,5.17
			c-2.89,0.8-5.81,1.45-8.64,2.16c-2.49,0.56-4.96,0.89-7.53,0.79c-1.59-0.09-3.18-0.49-4.72-1.04c-0.49-0.19-1-0.45-1.43-0.73
			c-1.06-0.73-1.59-1.74-1.59-3.08c-0.01-1.05,0.14-2.05,0.52-3.03c0.3-0.67,0.51-1.39,0.81-2.05c0.79-1.82,1.17-3.78,1.03-5.77
			c-0.09-2.07-0.09-4.09-0.33-6.13c-0.26-3.16-1.03-6.28-2.56-9.08c-0.67-1.35-1.55-2.57-2.74-3.57c-0.56-0.47-1.18-0.93-1.66-1.42
			c-0.57-0.55-1.14-1.09-1.64-1.65c-0.65-0.9-0.66-1.95-0.3-3c0.32-0.89,0.89-1.7,1.74-2.26c1.89-1.25,3.92-2.22,6.09-2.86
			c1.91-0.5,3.79-0.77,5.74-0.76c1.2,0.03,2.44,0.2,3.6,0.69c0.81,0.27,1.43,0.73,1.89,1.45c0.53,0.7,0.64,1.5,0.14,2.29l-0.81,1.38
			c-1.04,1.36-1.51,2.96-1.58,4.62c-0.02,1.58,0.08,3.05,0.42,4.54c0.34,1.87,0.83,3.7,1.31,5.54c0.18,0.78,0.44,1.62,0.61,2.41
			c0.52,1.98,1.3,3.82,2.16,5.65C103.17,74.14,103.28,74.27,103.41,74.54z"/>
		<path class="st0" d="M132.65,85.66c-2.76-0.31-5.18-0.95-7.52-2.32c-0.76-0.45-1.43-0.97-1.94-1.69
			c-0.69-1.03-0.94-2.09-0.43-3.35c0.49-1.05,1.12-2.08,1.82-3.1c1.71-2.16,2.79-4.53,3.46-7.25c0.6-2.72,1.34-5.36,1.94-8.08
			c0.61-2.8,1.22-5.59,1.47-8.5c0.07-0.65,0.07-1.31,0.08-1.98c0.03-0.88-0.32-1.72-0.98-2.39c-0.39-0.41-0.79-0.82-1.02-1.36
			c-1-1.58-0.75-3.1,0.64-4.41c0.9-0.78,1.98-1.32,3.12-1.63c1.81-0.46,3.66-0.54,5.56-0.47c1.39,0.08,2.84,0.25,4.18,0.69
			c1,0.26,1.84,0.65,2.65,1.25c0.61,0.44,1.14,0.94,1.51,1.57c0.68,1.11,0.63,2.27,0.06,3.39c-0.39,0.84-0.9,1.51-1.61,1.95
			c-1.26,0.74-1.83,1.92-2.19,3.13c-1.06,3.55-1.53,7.1-1.36,10.79c0.11,3.61,0.59,7.19,1.14,10.71c0.27,1.5,0.7,2.94,1.27,4.33
			c0.4,1,0.66,1.98,0.69,3.02c0.08,1.26-0.26,2.32-1.17,3.17c-0.58,0.6-1.15,1.12-1.93,1.47c-0.85,0.35-1.77,0.68-2.66,0.8
			C137.19,85.81,134.82,85.98,132.65,85.66z"/>
		<path class="st0" d="M161.1,48.98c2.16,0.34,4.29,0.89,6.38,1.73c0.9,0.36,1.79,0.87,2.48,1.64c0.24,0.33,0.49,0.67,0.72,1.07
			c0.38,0.87,0.19,1.65-0.58,2.27c-0.26,0.26-0.65,0.42-0.98,0.59c-1.22,0.7-1.83,1.78-2.03,3.08c-0.19,1.23-0.15,2.41-0.04,3.61
			c0.15,1.87,0.45,3.76,0.98,5.55c0.3,0.93,0.69,1.73,1.07,2.61c0.28,0.56,0.73,1,1.19,1.37c0.72,0.63,1.53,0.61,2.16-0.11
			c0.34-0.32,0.64-0.79,0.92-1.19c1.55-2.34,2.74-4.82,3.67-7.48l0.6-1.98c0.23-0.55,0.1-1.09-0.28-1.52l-1.36-1.25
			c-0.51-0.52-0.94-1.11-1.05-1.79c-0.17-1.28,0.29-2.32,1.23-3.13c0.67-0.49,1.46-0.81,2.37-0.96c1.59-0.27,3.23-0.31,4.82-0.14
			c1.67,0.19,3.38,0.6,4.99,1.15c0.98,0.37,1.91,1.03,2.68,1.75c1.02,1.04,1.33,2.35,0.97,3.77c-0.1,0.65-0.47,1.11-1.04,1.46
			c-0.42,0.3-0.91,0.6-1.38,0.82c-1.34,0.53-2.29,1.42-3,2.64c-1.27,2.02-2.41,4.13-3.42,6.34c-2.42,5.09-4.77,10.26-7.13,15.44
			c-0.94,2.22-2.08,4.33-3.15,6.45c-0.42,0.82-0.98,1.55-1.52,2.2c-0.84,1.13-1.9,1.77-3.33,1.92c-2.55,0.27-4.9-0.32-6.94-1.89
			c-1.39-1.03-2.21-2.41-2.55-4.02c-0.31-1.3-0.63-2.61-0.8-3.89c-0.47-3.62-0.94-7.24-1.34-10.85c-0.56-4.96-1.04-9.91-1.69-14.81
			c-0.06-1.04-0.36-1.98-0.57-2.97c-0.18-0.77-0.66-1.43-1.26-1.89l-1.19-0.92c-0.59-0.46-0.95-1.03-1.21-1.74
			c-0.38-1.39-0.04-2.59,0.99-3.54c0.52-0.51,1.24-0.84,1.94-1.1c1.66-0.7,3.45-0.79,5.2-0.67
			C159.45,48.65,160.31,48.86,161.1,48.98z"/>
		<path class="st0" d="M208.92,37.02c2.88-0.49,5.79-0.76,8.73-0.82c1.39-0.05,2.62,0.29,3.81,0.85c1.12,0.58,1.97,1.41,2.5,2.52
			c0.8,1.95,1.22,3.88,1,5.9c-0.06,0.6-0.19,1.21-0.4,1.83c-0.47,1.32-1.71,1.94-3.09,1.55c-0.39-0.17-0.77-0.26-1.18-0.49
			c-1.34-0.62-2.71-0.86-4.18-0.87c-1.92-0.02-3.81,0.18-5.75,0.54c-0.86,0.2-1.62,0.53-2.28,1.07c-0.59,0.53-0.79,1.15-0.61,1.93
			c0.18,0.71,0.68,1.16,1.51,1.26c1.49,0.08,3.01-0.07,4.42-0.56c0.71-0.18,1.31-0.63,1.99-1.03c0.54-0.37,1.08-0.67,1.71-0.91
			c0.71-0.18,1.33,0.03,1.78,0.56c0.19,0.27,0.37,0.54,0.49,0.81c0.7,1.82,0.74,3.58,0.28,5.49c-0.04,0.23-0.15,0.46-0.27,0.7
			c-0.51,1.03-1.63,1.49-2.79,1.14c-0.32-0.18-0.64-0.35-1.03-0.51c-1.42-0.61-2.8-0.48-4.18,0.16c-0.68,0.39-1.11,0.97-1.15,1.72
			c-0.02,0.89,0.11,1.75,0.51,2.51c0.92,1.78,2.49,2.44,4.39,2.32c1.32-0.04,2.59-0.45,3.86-0.85c1.56-0.45,3.01-1.1,4.43-2.04
			c0.8-0.56,1.7-0.98,2.59-1.48c1.77-0.99,3.19-0.39,4.24,0.79c0.79,0.84,1.15,1.83,1.38,2.9c0.8,3.5,0.71,6.98-0.13,10.34
			c-0.71,2.76-2.32,4.91-4.67,6.5c-1.81,1.22-3.75,2.09-5.88,2.69c-1.57,0.37-3.2,0.83-4.83,1.29c-2.28,0.55-4.65,0.97-7.03,1.38
			c-1.73,0.25-3.47,0.5-5.23,0.53c-0.95,0.06-1.92-0.02-2.89-0.1c-0.52,0-1.14-0.21-1.67-0.35c-2.18-0.79-3-2.37-2.73-4.62
			c0.12-0.68,0.33-1.3,0.53-1.92c0.31-0.93,0.69-1.87,1.07-2.81c0.92-2.34,1.23-4.75,1.08-7.31c-0.25-3.28-0.59-6.63-1.06-9.88
			l-0.75-5.2c-0.21-1.45-0.77-2.77-1.25-4.1c-0.22-0.48-0.64-0.87-1.07-1.25l-1.41-1.05c-1.58-1.25-1.88-2.83-0.9-4.74
			c0.35-0.64,0.78-1.22,1.38-1.67c1.84-1.59,3.98-2.57,6.27-3.04C203.24,38.06,206.12,37.57,208.92,37.02z"/>
		<path class="st0" d="M103.87,146.82c-1.15,0.21-2.17,0.26-3.21,0.17c-0.82-0.12-1.64-0.17-2.45-0.22
			c-1.33-0.06-2.63-0.49-3.87-1.01c-2.78-1.14-2.94-3.69-2.21-5.54c0.24-0.47,0.48-0.94,0.72-1.34c0.29-0.62,0.67-1.18,0.97-1.73
			c0.81-1.2,1.24-2.58,1.66-3.95l0.24-1.65c0.19-2.67-0.06-5.36-0.59-8.01c-0.18-0.86-0.43-1.71-1.22-2.21
			c-1.81-1.03-2.83-2.75-3.92-4.46c-0.2-0.42-0.47-0.83-0.66-1.24c-0.47-0.83-1.13-1.41-1.93-1.97c-1.04-0.68-2.12-1.14-3.21-1.6
			c-0.61-0.15-1.15-0.38-1.76-0.6c-0.7-0.36-1.26-0.73-1.77-1.26c-1.34-1.38-1.29-3.37,0.02-4.71c0.58-0.66,1.26-1.11,2.02-1.57
			c2.41-1.39,5.02-2.29,7.84-2.7c2.17-0.33,4.32-0.15,6.39,0.56c0.53,0.16,1.08,0.46,1.56,0.77c1.13,0.82,1.24,2.35,0.55,3.32
			c-0.31,0.48-0.63,0.88-1.02,1.3c-0.25,0.4-0.57,0.73-0.88,1.21c-0.57,0.8-0.67,1.77-0.33,2.76c0.45,1.34,1.18,2.5,2.18,3.49
			c0.09,0.14,0.25,0.26,0.41,0.39c0.63,0.37,1.29,0.36,1.81-0.22c0.26-0.25,0.52-0.58,0.7-0.89c0.77-1.56,1.08-3.22,1.1-4.91
			c-0.06-0.51-0.26-0.93-0.53-1.33c-0.26-0.34-0.52-0.67-0.71-1.02c-0.79-1.08-0.86-2.25-0.11-3.37c0.73-1.26,1.8-2.13,3.14-2.66
			c1.89-0.81,3.96-1.28,6.08-1.39c1.31-0.08,2.64-0.02,3.99,0.18c0.82,0.12,1.57,0.25,2.21,0.62c1.81,1.03,2.36,3.1,1.16,4.79
			c-0.38,0.49-0.85,0.91-1.31,1.33c-0.67,0.52-1.5,0.99-2.25,1.45l-2.41,1.39c-1.09,0.72-1.93,1.7-2.68,2.82
			c-1.89,2.65-2.55,5.67-2.83,8.87c-0.23,2.97-0.09,5.97,0.56,8.98c0.34,1.65,1.03,3.11,2.01,4.54c0.72,1.09,1.57,2.09,2.49,3.01
			l0.86,1.07c0.91,1.44,0.89,3.13-0.12,4.5c-1.08,1.38-2.5,2.43-4.2,3C106.88,146.23,105.4,146.71,103.87,146.82z"/>
		<path class="st0" d="M153.42,130.13c-0.07,0.73-0.15,2.19-0.29,3.65c-0.22,1.82-0.44,3.65-0.95,5.4
			c-1.17,4.01-3.28,7.37-6.72,9.85c-1.97,1.46-4.16,2.34-6.5,2.85c-2.34,0.51-4.67,0.66-7.08,0.29c-0.66-0.07-1.31-0.22-1.9-0.44
			c-5.77-2.04-9.85-5.69-11.9-11.53c-0.95-2.92-1.53-5.91-1.68-8.98c-0.22-4.09,0.15-8.18,1.17-12.19c0.8-2.85,2.04-5.4,3.8-7.74
			c2.55-3.36,5.77-5.55,9.85-6.5c1.53-0.29,3.07-0.51,4.67-0.29c0.58,0.07,1.24,0.07,1.9,0.15c3.43,0.58,6.2,2.48,8.54,4.89
			c2.77,2.85,4.67,6.2,5.69,10.07C152.84,122.83,153.35,126.12,153.42,130.13z M139.26,121.96c0.07-1.31-0.07-2.7-0.37-4.16
			c-0.22-1.09-0.51-2.26-0.88-3.36c-0.15-0.51-0.44-0.95-0.8-1.39c-0.51-0.44-1.09-0.66-1.82-0.51c-0.58,0.07-1.09,0.29-1.61,0.66
			c-1.24,0.95-1.97,2.26-2.48,3.72c-1.02,3.21-1.09,6.5-0.37,9.85c0.29,1.31,0.8,2.63,1.53,3.8c0.44,0.66,0.88,1.17,1.53,1.61
			c1.24,0.8,2.12,0.66,2.99-0.51l0.36-0.58c0.51-0.95,0.88-1.9,1.17-2.92C139.04,126.19,139.26,124.15,139.26,121.96z"/>
		<path class="st0" d="M182.38,148.91c-0.53,0.16-0.99,0.33-1.44,0.43c-5.52,1.54-10.74,0.9-15.44-2.46
			c-0.55-0.35-1.1-0.71-1.56-1.2c-2.65-2.71-4.59-5.85-5.12-9.72c-0.21-1.42-0.28-2.82-0.27-4.29c0.03-3.74,0.43-7.44,0.76-11.22
			c0.06-1.24,0.13-2.56,0.11-3.8c-0.04-2.35-0.91-4.5-2.31-6.49c-0.13-0.16-0.26-0.32-0.38-0.55c-0.19-0.31-0.37-0.63-0.55-1.01
			c-0.45-1.3-0.1-2.51,1.01-3.27c1.13-0.91,2.49-1.35,3.92-1.64c2.39-0.4,4.73-0.3,7.04,0.09c1.52,0.24,3.02,0.62,4.41,1.28
			c0.56,0.28,1.04,0.55,1.51,0.97c1.21,1.01,1.64,2.52,1.05,3.93c-0.2,0.49-0.46,0.91-0.79,1.24c-0.42,0.47-0.91,0.93-1.39,1.32
			c-0.96,0.78-1.66,1.8-2.15,2.93c-1.1,2.74-1.62,5.55-1.86,8.46c-0.09,0.87-0.12,1.82,0,2.72c0.28,2.16,1.44,3.68,3.56,4.49
			c1.55,0.61,3.23,0.71,4.85,0.67c0.81-0.06,1.56-0.2,2.31-0.34c0.82-0.13,1.46-0.58,1.82-1.27c0.44-0.69,0.81-1.38,1.03-2.09
			c0.73-1.98,1.1-4.07,1.26-6.25c0.03-0.95,0.13-1.89,0.23-2.84c0.06-1.24,0.12-2.48-0.04-3.75c-0.17-1.19-0.55-2.41-1.4-3.38
			c-0.45-0.56-0.83-1.19-0.89-2c-0.13-0.82,0.17-1.6,0.75-2.2c0.64-0.52,1.34-0.88,2.11-1.17c1.14-0.32,2.25-0.49,3.36-0.52
			c2.2,0.02,4.36,0.39,6.39,1.35c0.99,0.4,1.8,1,2.37,1.87c0.76,1.11,1.07,2.32,0.42,3.57c-0.21,0.57-0.48,1.05-0.75,1.53
			c-1.33,2.13-2.3,4.31-2.85,6.74c-0.32,1.58-0.49,3.18-0.52,4.86c-0.02,2.27-0.05,4.55,0,6.83c0.04,3.09,0.66,6.16,1.98,8.95
			c0.36,0.77,0.87,1.49,1.3,2.27c0.24,0.47,0.57,0.87,0.88,1.34c0.87,1.49,0.71,2.94-0.1,4.39c-0.55,1.04-1.45,1.9-2.61,2.44
			c-3.95,1.93-9.1,0.64-11.54-2.56C182.7,149.31,182.57,149.15,182.38,148.91z"/>
		<path class="st0" d="M230.54,117.33c-0.51,2.52-0.35,4.88,0.55,7.23c0.36,0.98,0.79,1.9,1.3,2.82c1.6,2.7,3.36,5.27,5.58,7.51
			c1.01,1.04,2.01,2.15,3.02,3.26c0.33,0.47,0.73,0.87,1.05,1.41c0.83,1.39,0.56,2.83-0.63,3.97c-0.56,0.54-1.17,0.85-1.93,1.08
			c-1.28,0.4-2.53,0.51-3.86,0.55c-1.76,0-3.58-0.09-5.33-0.16c-0.44-0.04-0.79-0.14-1.15-0.25c-1.14-0.32-2.05-0.91-2.61-1.98
			c-0.57-1.07-1.05-2.22-1.32-3.41c-0.55-2.1-0.73-4.24-0.92-6.31c-0.28-2.66-0.64-5.33-1.37-7.88c-0.34-1.13-0.84-2.2-1.41-3.2
			c-0.33-0.47-0.65-0.93-1.22-1.2c-0.85-0.37-1.75-0.15-2.18,0.62c-0.17,0.28-0.27,0.56-0.37,0.85c-0.61,1.93-0.54,3.76-0.12,5.63
			c0.37,1.72,0.96,3.31,1.79,4.77l1.5,2.99c0.37,0.77,0.54,1.44,0.68,2.26c0.14,0.96-0.08,1.82-0.6,2.66
			c-0.6,0.97-1.39,1.71-2.46,2.21c-1.15,0.56-2.41,0.74-3.66,0.86c-2.58,0.22-5.14,0.14-7.69,0c-2.33-0.2-4.54-0.83-6.74-1.68
			c-0.78-0.29-1.47-0.79-2.08-1.42c-0.74-0.8-1.1-1.71-1.22-2.82c-0.05-0.3,0.06-0.65,0.16-1.01c0.2-0.57,0.54-1.13,0.94-1.6
			l1.2-1.22c1.1-0.93,1.94-2.1,2.63-3.36c1.22-2.24,2.08-4.58,2.73-7.02l1.59-5.72c0.12-0.58,0.32-1.14,0.37-1.8
			c0.35-2.39,0.85-4.76,0.69-7.12c0.01-0.95-0.21-1.85-0.35-2.74c-0.16-0.75-0.54-1.44-1-1.99c-0.39-0.55-0.85-1.17-1.32-1.73
			c-1.06-1.26-0.73-2.55,0.45-3.48c0.4-0.33,0.94-0.65,1.46-0.83c1.07-0.49,2.26-0.68,3.43-0.73c3.96-0.1,8.06,0.03,12.04,0.59
			c2.61,0.37,5.2,0.89,7.61,1.75c1.28,0.48,2.4,1.08,3.42,1.98c2.74,2.21,3.81,5.09,3.29,8.56c-0.26,1.3-0.79,2.42-1.61,3.45
			C233.66,115.18,232.3,116.46,230.54,117.33z M218.7,113.6l0.8,0.07c0.82-0.15,1.44-0.54,1.93-1.15c0.9-1.09,1.59-2.28,1.93-3.64
			c0.23-0.93,0.38-1.87,0.24-2.76c-0.15-0.82-0.6-1.52-1.37-1.95c-1.33-0.7-2.24-0.41-2.72,1.01c-0.37,0.85-0.59,1.78-0.74,2.65
			c-0.22,1.67-0.15,3.43-0.15,5.12C218.6,113.08,218.65,113.31,218.7,113.6z"/>
		<path class="st0" d="M93.56,180.22c0.34,0.2,0.46,0.37,0.67,0.41c1.39,0.53,2.69,1.18,3.87,2.12c2.17,1.61,3.76,3.65,4.67,6.24
			c0.7,2.04,0.64,4.17-0.06,6.2c-0.6,1.83-1.39,3.47-2.45,5c-1.74,2.45-3.94,4.16-6.64,5.27c-3.11,1.34-6.39,1.98-9.82,2.15
			c-1.72,0.09-3.41,0.03-5.06-0.24c-3.02-0.5-5.79-1.69-8.21-3.57c-0.99-0.75-1.89-1.57-2.6-2.65c-0.23-0.41-0.52-0.9-0.67-1.29
			c-0.36-0.95-0.29-1.82,0.27-2.54c0.37-0.46,0.74-0.91,1.18-1.36c1.75-1.64,2.81-3.61,3.55-5.85c0.76-2.39,1.4-4.87,1.94-7.3
			c0.7-2.92,1.26-5.86,1.59-8.76c0.18-1.08,0.14-2.2,0.09-3.24c0.01-0.96-0.36-1.83-0.91-2.59c-0.24-0.33-0.55-0.68-0.78-1.09
			l-0.64-1.07c-0.48-1.11-0.33-2.05,0.56-2.94c0.98-1.02,2.21-1.71,3.54-2.15c1.63-0.47,3.23-0.73,4.94-0.81
			c3.74-0.27,7.51,0.2,11.09,1.38c2.59,0.87,4.97,2.15,6.85,4.24c1.14,1.15,1.8,2.52,2.13,4.12c0.3,1.75-0.19,3.37-1.03,4.93
			c-1.26,2.23-3.2,3.69-5.49,4.57c-0.55,0.21-1.16,0.33-1.72,0.53C94.19,180.03,93.95,180.13,93.56,180.22z M88.93,185
			c0.01-0.07,0.06-0.36,0.03-0.66c0.08-0.95-0.34-1.53-1.17-1.89c-0.48-0.23-0.94-0.15-1.31,0.3c-0.19,0.26-0.31,0.54-0.51,0.88
			c-0.9,1.85-1.23,3.87-1.78,5.85c-0.17,0.57,0.15,0.91,0.76,0.79c0.76-0.1,1.34-0.52,1.87-1.02C87.97,188.1,88.56,186.79,88.93,185
			z M87.52,172.93c-0.05,0.29-0.17,0.57-0.23,0.93c-0.05,0.29-0.09,0.58-0.07,0.87c-0.05,0.29,0.2,0.55,0.52,0.46
			c0.3-0.03,0.61-0.12,0.86-0.3c0.82-0.46,1.44-1.09,1.8-1.92c0.33-0.69,0.54-1.47,0.73-2.17c0.29-0.84,0.27-1.66,0.2-2.55
			c-0.13-0.54-0.27-1.08-0.91-1.19s-1.01,0.28-1.22,0.69c-0.32,0.61-0.66,1.3-0.84,1.93C88.03,170.73,87.76,171.87,87.52,172.93z"/>
		<path class="st0" d="M124.96,159.03c2.89-0.46,5.8-0.69,8.74-0.71c1.39-0.04,2.62,0.32,3.8,0.9c1.11,0.59,1.96,1.44,2.47,2.55
			c0.77,1.96,1.18,3.89,0.93,5.91c-0.07,0.6-0.21,1.21-0.42,1.82c-0.49,1.32-1.73,1.92-3.11,1.52c-0.39-0.17-0.77-0.27-1.17-0.51
			c-1.34-0.63-2.69-0.9-4.17-0.92c-1.92-0.04-3.81,0.13-5.76,0.46c-0.86,0.19-1.63,0.51-2.29,1.04c-0.59,0.52-0.81,1.14-0.63,1.92
			c0.17,0.71,0.67,1.16,1.49,1.27c1.48,0.1,3.01-0.03,4.42-0.51c0.71-0.17,1.32-0.62,2-1c0.54-0.37,1.09-0.66,1.72-0.89
			c0.71-0.17,1.33,0.05,1.77,0.58c0.18,0.27,0.37,0.54,0.48,0.82c0.68,1.82,0.69,3.59,0.21,5.49c-0.04,0.23-0.16,0.46-0.28,0.7
			c-0.53,1.03-1.65,1.47-2.8,1.11c-0.32-0.18-0.64-0.36-1.03-0.53c-1.41-0.62-2.79-0.52-4.18,0.11c-0.69,0.38-1.13,0.96-1.17,1.7
			c-0.03,0.89,0.09,1.76,0.48,2.51c0.9,1.8,2.46,2.47,4.36,2.37c1.32-0.03,2.6-0.42,3.87-0.81c1.56-0.43,3.03-1.06,4.45-1.99
			c0.81-0.55,1.71-0.96,2.61-1.45c1.79-0.97,3.19-0.35,4.23,0.84c0.78,0.85,1.13,1.84,1.34,2.91c0.76,3.51,0.63,6.99-0.25,10.34
			c-0.74,2.75-2.38,4.88-4.74,6.44c-1.83,1.2-3.78,2.04-5.91,2.62c-1.57,0.35-3.21,0.79-4.84,1.23c-2.29,0.52-4.67,0.91-7.04,1.3
			c-1.74,0.23-3.47,0.46-5.24,0.47c-0.95,0.05-1.92-0.04-2.89-0.13c-0.52,0-1.13-0.22-1.67-0.37c-2.17-0.82-2.97-2.41-2.68-4.65
			c0.13-0.68,0.34-1.3,0.56-1.91c0.32-0.93,0.71-1.86,1.1-2.8c0.94-2.33,1.29-4.74,1.17-7.3c-0.21-3.29-0.51-6.63-0.94-9.89
			l-0.69-5.21c-0.19-1.45-0.73-2.77-1.21-4.11c-0.21-0.49-0.63-0.87-1.05-1.26l-1.39-1.07c-1.57-1.27-1.85-2.85-0.85-4.75
			c0.36-0.64,0.8-1.21,1.4-1.66c1.85-1.57,4.01-2.52,6.31-2.97C119.27,160,122.16,159.55,124.96,159.03z"/>
		<path class="st0" d="M174.48,161.79c0.45,1.16,0.97,2.29,1.07,3.57c0.05,0.53,0.1,1.06,0.08,1.61c-0.01,0.79-0.37,1.47-0.91,2.08
			c-0.84,0.87-1.84,1.11-2.97,0.61c-0.47-0.21-1-0.55-1.5-0.83c-0.46-0.37-0.96-0.65-1.41-1.02c-1.2-0.86-2.54-1.29-4-1.42
			c-0.81-0.08-1.61,0.08-2.39,0.3c-1.25,0.41-1.98,1.55-1.85,2.91c0.09,0.43,0.22,0.77,0.59,1.1c0.58,0.48,1.33,0.81,2.12,0.82
			c1.21,0.08,2.39,0.09,3.56,0.1c1.34,0.03,2.72-0.04,4.12,0.12c5.82,0.48,10.3,3.12,13.3,8.22c1.53,2.54,2.29,5.29,2.55,8.17
			c0.24,3.04-0.38,5.87-2.2,8.45c-1.55,2.25-3.32,4.35-5.56,5.84c-2.7,1.91-5.76,3.1-9.06,3.29c-3.36,0.21-6.35-0.82-8.99-2.77
			c-2.09-1.54-3.75-3.4-4.99-5.58c-0.81-1.49-1.22-3.13-1.09-4.82c0.06-0.65,0.28-1.28,0.7-1.84c0.51-0.9,1.26-1.19,2.25-0.87
			l1.55,0.57c1.18,0.41,2.3,0.67,3.49,0.52c1.59-0.15,2.87-0.88,3.84-2.2c0.71-0.98,0.59-2.11-0.17-3.07
			c-0.49-0.67-1.21-1.1-1.9-1.45c-1.3-0.52-2.54-0.89-3.92-1.22s-2.79-0.72-4.12-1.14c-1.66-0.45-3.25-1.32-4.6-2.36
			c-1.41-1.02-2.54-2.3-3.1-3.96c-0.69-1.77-0.85-3.59-0.41-5.48c0.72-3.18,2.4-5.71,5.1-7.62c1.52-1.14,3.19-1.87,5.01-2.42
			c1.69-0.5,3.48-0.72,5.17-0.99l0.96-0.14c1.1-0.19,2.09-0.66,2.93-1.53c0.15-0.22,0.4-0.39,0.62-0.63
			c1.27-0.96,2.92-0.74,3.82,0.55c0.62,0.78,1.05,1.7,1.49,2.63C173.97,160.49,174.24,161.18,174.48,161.79z"/>
		<path class="st0" d="M209.02,178.89l-0.33,2.46c-0.52,3.91-0.53,7.88-0.18,11.9c0.26,2.47,0.99,4.77,2.1,6.91l1.04,2.13
			c0.44,1.09,0.52,2.2,0.36,3.43c-0.26,1.36-0.99,2.44-2.24,3.02c-0.71,0.35-1.55,0.6-2.31,0.8c-1.3,0.34-2.69,0.31-4.02,0.35
			c-2.89,0.13-5.7-0.31-8.48-1.05c-1.84-0.54-3.57-1.36-4.85-2.85c-1.01-1.24-1.49-2.63-1.14-4.2c0.12-0.94,0.53-1.77,1.2-2.42
			c0.59-0.58,1.1-1.1,1.69-1.62c0.84-0.77,1.48-1.72,2.05-2.67c1.23-2.05,2.11-4.28,2.87-6.62c0.51-1.63,0.87-3.27,1.17-4.93
			c0.29-1.65,0.67-3.37,0.96-5.03c0.32-1.87,0.57-3.75,0.82-5.63c0.06-0.43,0.03-0.81,0.02-1.25c-0.09-0.45-0.36-0.64-0.79-0.69
			c-0.82,0.04-1.51,0.31-2.11,0.9c-0.5,0.45-0.93,0.91-1.36,1.37c-0.51,0.52-0.88,1.06-1.39,1.58c-0.42,0.39-0.84,0.77-1.33,1.15
			c-1.06,0.74-2.13,0.53-2.96-0.47c-0.63-0.82-1.1-1.69-1.34-2.68c-0.29-1.73-0.2-3.49,0.32-5.19c0.38-1.2,0.83-2.39,1.49-3.48
			c0.39-0.69,0.91-1.28,1.43-1.87c0.96-1.12,2.28-1.61,3.81-1.56c0.95,0.05,1.96,0.19,2.78,0.66c2.67,1.53,5.62,2.07,8.47,2.74
			c1.86,0.39,3.71,0.34,5.53-0.08c0.91-0.17,1.76-0.5,2.69-0.82c0.45-0.09,0.85-0.33,1.31-0.42c1.15-0.36,2.22-0.07,3.05,0.85
			c0.39,0.42,0.61,0.96,0.84,1.44c0.57,1.25,0.76,2.6,0.79,4.01c0.05,2.44-0.27,4.82-1.31,7.12c-0.42,0.97-0.92,1.94-1.76,2.71
			c-1.08,0.89-2.26,0.95-3.4,0.07c-0.46-0.43-0.84-0.92-1.06-1.47l-0.47-1.46c-0.31-1-0.77-1.94-1.4-2.76l-0.57-0.74
			c-0.54-0.37-1.22-0.23-1.45,0.4c-0.11,0.28-0.16,0.64-0.21,1c-0.15,1.67-0.37,3.34-0.51,4.94L209.02,178.89z"/>
		<path class="st0" d="M87.91,244.49c3.06-0.23,5.86-0.8,8.15-3.07c0.46-0.43,0.92-0.85,1.46-1.28c1.22-0.81,2.47-0.82,3.61,0.07
			c0.64,0.44,1.16,1.03,1.45,1.66c1.36,2.7,2.01,5.56,1.64,8.55c-0.23,1.72-0.69,3.32-1.69,4.77c-1.61,2.48-4,3.95-6.87,4.52
			c-2.95,0.51-5.92,0.88-8.81,1.31c-2.54,0.31-5.02,0.4-7.57,0.05c-1.58-0.25-3.11-0.79-4.6-1.49c-0.47-0.24-0.95-0.54-1.36-0.86
			c-0.99-0.84-1.41-1.89-1.28-3.23c0.09-1.04,0.34-2.03,0.81-2.97c0.36-0.63,0.65-1.33,1.01-1.96c0.96-1.74,1.54-3.65,1.58-5.64
			c0.11-2.07,0.31-4.08,0.27-6.14c0.05-3.17-0.42-6.35-1.66-9.28c-0.54-1.4-1.29-2.71-2.38-3.83c-0.51-0.52-1.09-1.04-1.52-1.58
			c-0.52-0.6-1.03-1.2-1.47-1.8c-0.56-0.96-0.47-2-0.01-3.01c0.41-0.86,1.05-1.6,1.95-2.08c2-1.06,4.11-1.83,6.34-2.26
			c1.95-0.31,3.85-0.4,5.79-0.2c1.2,0.15,2.41,0.44,3.51,1.04c0.78,0.35,1.36,0.86,1.75,1.62c0.46,0.75,0.49,1.56-0.09,2.29
			L86.99,221c-1.17,1.25-1.79,2.8-2.03,4.44c-0.17,1.57-0.21,3.04-0.03,4.56c0.16,1.89,0.46,3.77,0.77,5.64
			c0.1,0.8,0.28,1.66,0.38,2.45c0.32,2.02,0.93,3.93,1.6,5.83C87.71,244.08,87.8,244.21,87.91,244.49z"/>
		<path class="st0" d="M115.2,271.64c-2.77,0-5.26-0.37-7.74-1.46c-0.8-0.37-1.53-0.8-2.12-1.46c-0.8-0.95-1.17-1.97-0.8-3.28
			c0.36-1.09,0.88-2.19,1.46-3.28c1.46-2.34,2.26-4.82,2.63-7.59c0.29-2.77,0.73-5.47,1.02-8.25c0.29-2.85,0.58-5.69,0.51-8.61
			c0-0.66-0.07-1.31-0.15-1.97c-0.07-0.87-0.51-1.68-1.24-2.26c-0.44-0.37-0.88-0.73-1.17-1.24c-1.17-1.46-1.09-2.99,0.15-4.45
			c0.8-0.88,1.82-1.53,2.92-1.97c1.75-0.66,3.58-0.95,5.47-1.1c1.39-0.07,2.85-0.07,4.23,0.22c1.02,0.15,1.9,0.44,2.77,0.95
			c0.66,0.37,1.24,0.8,1.68,1.39c0.8,1.02,0.88,2.19,0.44,3.36c-0.29,0.88-0.73,1.61-1.39,2.12c-1.17,0.88-1.61,2.12-1.82,3.36
			c-0.66,3.65-0.73,7.23-0.15,10.88c0.51,3.58,1.39,7.08,2.34,10.51c0.44,1.46,1.02,2.85,1.75,4.16c0.51,0.95,0.88,1.9,1.02,2.92
			c0.22,1.24,0,2.34-0.8,3.29c-0.51,0.66-1.02,1.24-1.75,1.68c-0.8,0.44-1.68,0.87-2.56,1.09
			C119.72,271.27,117.39,271.71,115.2,271.64z"/>
		<path class="st0" d="M155.71,213.79c1.53,0.1,3.13,0.21,4.66,0.38c1.82,0.19,3.61,0.68,5.31,1.52c1.56,0.76,2.8,1.94,3.57,3.53
			c0.33,0.61,0.57,1.28,0.68,1.95c0.25,1.77,0.36,3.46-0.12,5.19c-0.28,0.86-0.69,1.57-1.31,2.18c-0.78,0.75-1.67,0.91-2.66,0.34
			c-0.35-0.17-0.7-0.49-0.97-0.8c-0.83-0.78-1.74-1.36-2.81-1.72c-1.92-0.78-3.95-1.14-5.99-1.27c-1.31-0.09-2.5,0.27-3.57,0.94
			c-0.08,0.07-0.15,0.14-0.31,0.2c-1,0.74-0.92,1.77,0.06,2.49c0.56,0.33,1.14,0.51,1.79,0.63c1.89,0.2,3.87,0.18,5.61-0.73
			l0.45-0.19c1.12-0.36,2.12-0.01,2.71,1.06c0.39,0.68,0.49,1.42,0.51,2.23c0.07,1.17-0.15,2.26-0.44,3.41
			c-0.26,0.64-0.6,1.28-1,1.84c-0.95,1.03-1.98,1.11-3.01,0.17c-0.14-0.08-0.28-0.24-0.41-0.39c-0.96-1.01-2.11-1.31-3.5-1.25
			c-1.54,0.12-2.55,0.93-2.87,2.44c-0.43,2.17-0.94,4.33-0.87,6.53c0.06,3.59,1.07,7.02,2.92,10.14c0.4,0.61,0.88,1.16,1.35,1.7
			c0.13,0.23,0.35,0.31,0.48,0.54c1.02,1.16,0.99,2.7-0.39,3.7c-0.69,0.54-1.45,0.93-2.34,1.09c-0.96,0.16-1.99,0.31-3.02,0.39
			c-1.92,0.24-3.75,0.34-5.57,0.22c-1.24-0.08-2.4-0.23-3.55-0.45c-1.66-0.26-3.34-0.44-4.9-1.05c-0.43-0.1-0.86-0.28-1.28-0.52
			c-1.27-0.67-1.57-1.71-0.9-2.98c0.18-0.5,0.57-0.91,0.89-1.33c0.32-0.42,0.64-0.76,1.03-1.17c0.79-0.9,1.45-1.95,1.74-3.18
			c0.57-1.94,1.07-3.95,1.42-5.98c0.3-2.32,0.67-4.57,1.04-6.88c0.24-1.45,0.41-2.9,0.65-4.35c0.3-2.39,0.24-4.81-0.26-7.19
			c-0.34-1.56-0.97-2.99-1.98-4.3c-0.4-0.54-0.81-1.08-1.21-1.69c-1.13-1.76-0.44-3.25,0.57-4.21c0.71-0.76,1.62-1.21,2.51-1.52
			c1.58-0.63,3.14-1.04,4.69-1.3c2.22-0.37,4.43-0.59,6.69-0.51c1.32,0.01,2.63,0.03,3.94,0.11L155.71,213.79z"/>
		<path class="st0" d="M186.96,226.51c2.88-0.47,5.79-0.73,8.74-0.76c1.39-0.04,2.62,0.3,3.8,0.88c1.11,0.58,1.96,1.42,2.48,2.53
			c0.79,1.96,1.2,3.89,0.96,5.91c-0.07,0.6-0.2,1.21-0.41,1.82c-0.48,1.32-1.72,1.93-3.1,1.53c-0.39-0.17-0.77-0.26-1.17-0.5
			c-1.34-0.63-2.7-0.88-4.18-0.9c-1.92-0.03-3.81,0.16-5.75,0.5c-0.86,0.19-1.62,0.52-2.29,1.05c-0.59,0.52-0.8,1.14-0.62,1.93
			c0.17,0.71,0.68,1.16,1.5,1.27c1.49,0.09,3.01-0.05,4.42-0.53c0.71-0.17,1.31-0.62,2-1.01c0.54-0.37,1.09-0.67,1.72-0.9
			c0.71-0.17,1.33,0.04,1.77,0.57c0.18,0.27,0.37,0.54,0.48,0.82c0.69,1.82,0.71,3.59,0.24,5.49c-0.04,0.23-0.16,0.46-0.27,0.7
			c-0.52,1.03-1.64,1.48-2.79,1.12c-0.32-0.18-0.64-0.35-1.03-0.52c-1.41-0.62-2.8-0.5-4.18,0.13c-0.68,0.39-1.12,0.96-1.17,1.71
			c-0.02,0.89,0.09,1.76,0.49,2.51c0.91,1.79,2.48,2.46,4.38,2.35c1.32-0.03,2.59-0.43,3.86-0.83c1.56-0.43,3.02-1.08,4.44-2.01
			c0.81-0.55,1.71-0.97,2.6-1.46c1.78-0.98,3.19-0.36,4.24,0.82c0.78,0.85,1.14,1.83,1.36,2.91c0.78,3.5,0.67,6.98-0.2,10.34
			c-0.73,2.75-2.35,4.89-4.71,6.47c-1.82,1.21-3.77,2.06-5.9,2.65c-1.57,0.36-3.2,0.81-4.84,1.25c-2.28,0.54-4.66,0.94-7.04,1.34
			c-1.74,0.24-3.47,0.48-5.24,0.5c-0.95,0.06-1.92-0.03-2.89-0.12c-0.52,0-1.13-0.21-1.67-0.36c-2.17-0.81-2.98-2.39-2.7-4.64
			c0.13-0.68,0.34-1.3,0.55-1.92c0.31-0.93,0.7-1.87,1.09-2.8c0.93-2.34,1.26-4.74,1.13-7.3c-0.23-3.29-0.54-6.63-0.99-9.88
			l-0.72-5.21c-0.2-1.45-0.75-2.77-1.23-4.11c-0.22-0.49-0.64-0.87-1.06-1.25l-1.4-1.06c-1.57-1.26-1.86-2.84-0.87-4.74
			c0.35-0.64,0.79-1.22,1.39-1.66c1.85-1.58,4-2.54,6.29-3C181.28,227.52,184.16,227.05,186.96,226.51z"/>
	</g>
	<path class="st1" d="M10.1,99.37c-0.03-0.06-0.07-0.13-0.1-0.19c-2.17-6.82,5.27-12.61,9.54-16.7c3.43-3.28,5.84-9.94,9.29-13.23
		c9.56-9.13,21.33-2.62,29.6,5.72c2.92,2.95,6.48,5.2,9.62,7.91c2.31,1.99,4.79,5.15,4.6,8.38c-0.02,0.27-0.27,0.29-0.54,0.34
		c-8.55,1.69-9.85-3.65-21.74-3.45c-5.58-0.72-17.09,5.64-24.53,8.18C19.44,98.51,10.8,100.07,10.1,99.37z"/>
	<path class="st2" d="M38.1,123.49c-0.56-3.47-1.14-7.03-1.42-10.49c-0.19-2.32-0.55-4.63-0.83-6.94c-0.1-1.95-0.47-3.86-0.81-5.78
		c-0.25-1.45-0.36-2.91-0.67-4.35c-0.2-0.94-0.27-1.9-0.46-2.85c3.82-1.64,7.78-3.33,11.15-4.26c0.4,1.17,0.68,2.37,0.81,3.6
		c0.43,3.88,1.27,7.69,1.7,11.57c0.58,5.15,0.59,10.46,2.29,15.41c1.36,3.97,3.59,8.63,7.19,11.01c2.06,1.36,4.56,1.94,7.02,2.05
		c3.5,0.16,8-1.61,11.23,0.15c1.73,0.94,3,2.68,3.38,4.61c0.39,2.02-0.19,4.16-1.35,5.86c-1.22,1.79-3.03,3.11-4.94,4.13
		c-2.92,1.56-6.22,2.52-9.53,2.39c-4.07-0.15-7.91-1.9-11.39-4c-3.55-2.14-6.93-4.75-9.16-8.25c-2.27-3.57-3.27-7.78-3.91-11.92
		C38.3,124.78,38.2,124.14,38.1,123.49z"/>
	<path class="st3" d="M47.01,88.36c-0.62,0.12-1.26,0.27-1.94,0.45c0.38,1.03,0.63,2.1,0.74,3.19c0.38,3.47,0.94,4.97,1.32,8.44
		c3.6-0.82,7.88-1.24,11.33-2.56c4.91-1.77,11.13-4.51,13.18-6.2c-6.44,1.11-8.71-1.88-15.19-3.07c-0.03-0.01-0.06-0.01-0.09-0.02
		c-1.67-0.3-3.62-0.48-5.99-0.44c-0.04,0-0.08,0-0.11-0.01C49.17,88.2,48.07,88.29,47.01,88.36z M10.26,99.44
		c0.23,0.44,0.67,0.54,1.2,0.8c1.41,0.69,3.96,0.95,5.46,1.47c1.92,0.66,18.49,1.08,18.48,0.74c-0.08-1.75-0.19-1.54-0.5-3.25
		c-0.23-1.29-0.32-2.61-0.62-3.9c-0.17-0.73-0.22-1.49-0.35-2.23c-2.89,1.24-5.7,2.45-8.09,3.26
		C19.73,98.41,11.59,99.93,10.26,99.44z"/>
	<path class="st4" d="M246.32,103.71c2.24,3.83,5.23,6.64,9.89,7.13c0.35,0.04,0.86-0.07,0.87,0.58c0.05,2.49-0.08,6-0.39,8.52
		c-0.76-1.05-1.32-3.16-1.97-4.25c-0.63-1.05-1.33-2.04-2.44-2.65c-1.96-1.09-3.99-1.09-5.17,0.02c-1.22,1.16-1.31,2.84-0.3,5.02
		c1.65,3.55,4.76,5.47,8.11,6.98c1.16,0.53,1.21,0.98,1.23,2.12c0.04,3.61-1.39,10.92-1.98,13.41c-0.11,0.33-0.44,0.8-0.41,0.11
		c0.1-2.27,0.74-8.42-1.25-11.63c-0.92-1.49-2.68-2.01-4.18-1.55c-1.42,0.43-2.24,1.69-2.25,3.55c-0.02,2.41,0.52,4.67,1.77,6.75
		c1.4,2.34,3.16,4.49,3.56,7.35c0.08,0.6,0.17,1.06-0.1,1.62c-0.52,1.07-1.05,2.13-1.58,3.2c-0.27,0.56-0.79,1.28-0.68,1.95
		c0.12,0.74,1.33,1.39,2.01,1.04c0.2-0.1,0.35-0.29,0.47-0.48c0.75-1.22,1.22-2.75,1.84-4.05c0.08-0.16,0.24-0.51,0.31-0.65
		c0.72-1.39,1.76-1.96,3.78-2.14c1.99-0.18,5.5-1.69,7.12-2.86c2.06-1.49,3.36-3.4,3.26-6.05c-0.1-2.49-1.72-3.83-4.17-3.54
		c-1.09,0.13-2.06,0.53-2.95,1.16c-1.99,1.39-3.35,5.07-4,6.64c-0.52,1.26-0.52,0.61-0.47,0.47c0.82-2.41,2.5-12.28,2.79-15.66
		c0.05-0.61,0.35-0.86,0.9-1.06c1.53-0.55,2.99-1.24,4.34-2.16c3.25-2.2,5.02-5.14,4.44-9.18c-0.33-2.28-1.88-3.14-4.09-2.43
		c-5.03,1.62-3.94,8.03-5.14,8.36c-0.09-1.82,0.25-6.82,0.15-10.79c-0.01-0.51,0.26-0.71,0.55-0.99c2.22-2.12,4.64-4.2,6.3-6.79
		c1.52-2.36,1.76-5.08,1.3-7.85c-0.39-2.34-2.13-3.34-4.38-2.63c-1.94,0.62-3.32,2.62-3.7,4.56c-0.8,4-0.61,7.16-0.99,7.89
		c-0.16-0.64-0.78-7.81-0.71-8.38c0.34-3.15,0.75-6.3,0.38-9.48c-0.25-2.11-1.11-3.82-3.13-4.74c-1.46-0.67-2.95-0.25-3.94,1.03
		c-0.88,1.15-1.1,2.46-1.02,3.86c0.19,3.27,1.17,6.35,2.92,9.05c1.95,3,2.47,6.33,2.97,9.71c0.08,0.17,0.14,0.34,0.02,0.52
		c-0.08-0.11-0.16-0.21-0.25-0.32c-0.55-0.78-1.06-1.59-1.65-2.34c-1.04-1.3-2.2-2.5-3.7-3.28c-1.26-0.66-2.58-0.72-3.78,0.09
		c-1.19,0.8-1.27,2.07-1.12,3.37C245.8,102.49,245.99,103.13,246.32,103.71z"/>
	<path class="st4" d="M57.19,217.81c-2.24-3.83-5.23-6.64-9.89-7.13c-0.35-0.04-0.86,0.07-0.87-0.58c-0.05-2.49,0.08-6,0.39-8.52
		c0.76,1.05,1.32,3.16,1.97,4.25c0.63,1.05,1.33,2.04,2.44,2.65c1.96,1.09,3.99,1.09,5.17-0.02c1.22-1.16,1.31-2.84,0.3-5.02
		c-1.65-3.55-4.76-5.47-8.11-6.98c-1.16-0.53-1.21-0.98-1.23-2.12c-0.04-3.61,1.39-10.92,1.98-13.41c0.11-0.33,0.44-0.8,0.41-0.11
		c-0.1,2.27-0.74,8.42,1.25,11.63c0.92,1.49,2.68,2.01,4.18,1.55c1.42-0.43,2.24-1.69,2.25-3.55c0.02-2.41-0.52-4.67-1.77-6.75
		c-1.4-2.34-3.16-4.49-3.56-7.35c-0.08-0.6-0.17-1.06,0.1-1.62c0.52-1.07,1.05-2.13,1.58-3.2c0.27-0.56,0.79-1.28,0.68-1.95
		c-0.12-0.74-1.33-1.39-2.01-1.04c-0.2,0.1-0.35,0.29-0.47,0.48c-0.75,1.22-1.22,2.75-1.84,4.05c-0.08,0.16-0.24,0.51-0.31,0.65
		c-0.72,1.39-1.76,1.96-3.78,2.14c-1.99,0.18-5.5,1.69-7.12,2.86c-2.06,1.49-3.36,3.4-3.26,6.05c0.1,2.49,1.72,3.83,4.17,3.54
		c1.09-0.13,2.06-0.53,2.95-1.16c1.99-1.39,3.35-5.07,4-6.64c0.52-1.26,0.52-0.61,0.47-0.47c-0.82,2.41-2.5,12.28-2.79,15.66
		c-0.05,0.61-0.35,0.86-0.9,1.06c-1.53,0.55-2.99,1.24-4.34,2.16c-3.25,2.2-5.02,5.14-4.44,9.18c0.33,2.28,1.88,3.14,4.09,2.43
		c5.03-1.62,3.94-8.03,5.14-8.36c0.09,1.82-0.25,6.82-0.15,10.79c0.01,0.51-0.26,0.71-0.55,0.99c-2.22,2.12-4.64,4.2-6.3,6.79
		c-1.52,2.36-1.76,5.08-1.3,7.85c0.39,2.34,2.13,3.34,4.38,2.63c1.94-0.62,3.32-2.62,3.7-4.56c0.8-4,0.61-7.16,0.99-7.89
		c0.16,0.64,0.78,7.81,0.71,8.38c-0.34,3.15-0.75,6.3-0.38,9.48c0.25,2.11,1.11,3.82,3.13,4.74c1.46,0.67,2.95,0.25,3.94-1.03
		c0.88-1.15,1.1-2.46,1.02-3.86c-0.19-3.27-1.17-6.35-2.92-9.05c-1.95-3-2.47-6.33-2.97-9.71c-0.08-0.17-0.14-0.34-0.02-0.52
		c0.08,0.11,0.16,0.21,0.25,0.32c0.55,0.78,1.06,1.59,1.65,2.34c1.04,1.3,2.2,2.5,3.7,3.28c1.26,0.66,2.58,0.72,3.78-0.09
		c1.19-0.8,1.27-2.07,1.12-3.37C57.72,219.03,57.53,218.39,57.19,217.81z"/>
	<path class="st5" d="M28.24,79.89c0.22-0.65,0.3-1.33,0.42-2.01c0.13-0.71,0.39-1.38,0.67-2.04c0.47-1.1,1.42-2.56,0.39-3.62
		c-0.72-0.75-1.83-0.85-2.82-0.66c-2.29,3.2-4.27,7.45-6.7,10.18c0.66,0.64,1.5,1.08,2.39,1.3C24.94,83.59,27.46,82.15,28.24,79.89z
		 M18.68,91.02c-0.18-0.12-1.34-0.72-1.55-0.66c-0.92-0.2-2-0.31-2.74,0.37c-0.82,0.74-0.71,1.84-0.39,2.79
		c0.17,0.52,0.38,1.06,0.87,1.37c0.49,0.31,1.14,0.3,1.69,0.22c1.01-0.14,3.73,0.11,3.99-0.91C20.82,93.14,19.62,91.62,18.68,91.02z
		 M54.27,86.63c-0.47-1.08-1.02-2.11-1.66-3.1c-0.28-0.43-0.58-0.88-1.04-1.15c-0.5-0.3-1.08-0.34-1.65-0.33
		c-1.25,0.02-2.5,0.16-3.72,0.4c-1.15,0.23-2.13,0.53-2.68,1.65c-0.49,0.99-1,2.08-1.27,3.16c-0.2,0.8-0.2,1.67,0.21,2.38
		c3.1-1.08,5.89-1.75,7.91-1.49c1.42-0.02,2.68,0.03,3.83,0.15c0.14-0.36,0.22-0.73,0.15-1.12C54.37,87,54.35,86.81,54.27,86.63z
		 M36.39,89.63c-0.41-0.26-0.9-0.29-1.36-0.35c-0.63-0.09-1.25-0.17-1.88-0.24c-1.17-0.14-2.34-0.23-3.52-0.23
		c-1.07,0-2.22,0.07-3.05,0.84c-0.63,0.59-0.94,1.46-0.93,2.31c0.01,1.67,1.1,2.83,2.46,3.54c2.82-1.1,5.99-2.52,9.14-3.83
		C37.25,90.89,37.04,90.05,36.39,89.63z M65.34,84.08c-0.17-0.15-1.27-1-1.49-0.98c-0.92-0.39-2.02-0.7-2.93-0.13
		c-1,0.62-1.08,1.79-0.93,2.84c0.08,0.57,0.2,1.18,0.65,1.59c0.45,0.41,1.13,0.53,1.72,0.55c1.08,0.04,3.87,0.82,4.34-0.2
		C67.17,86.7,66.2,84.89,65.34,84.08z M58.43,74.96c-0.84-0.85-1.73-1.67-2.64-2.47c-1.19-0.12-2.31,0.03-3.06,0.74
		c-0.89,0.84-0.47,2.14,0.38,2.81c1.49,1.18,2.83,2.68,4.63,3.39c1.56,0.61,3.56,0.34,4.58-1.09
		C60.97,77.28,59.64,76.18,58.43,74.96z M40.27,77.15c-0.85-1.3-2.8-1.96-4.11-0.96c-0.84,0.65-1.84,1.84-1.82,2.96
		c0.03,1.74,2.35,3.16,3.97,2.97c2.07-0.24,2.98-3.18,2.05-4.82C40.33,77.25,40.3,77.2,40.27,77.15z M38.3,69.35
		c0.55,0.55,1.41,0.7,2.15,0.74c1.36,0.06,4.84,1.1,5.46-0.25c0.49-1.07-0.09-2.75-0.86-3.96c-2.42-0.84-4.89-1.21-7.33-0.95
		c-0.24,0.72-0.27,1.53-0.18,2.31C37.62,67.99,37.75,68.8,38.3,69.35z"/>
	<path class="st1" d="M283.93,200.75c0.03-0.06,0.07-0.13,0.1-0.19c2.17-6.82-5.27-12.61-9.54-16.7c-3.43-3.28-5.84-9.94-9.29-13.23
		c-9.56-9.13-21.33-2.62-29.6,5.72c-2.92,2.95-6.48,5.2-9.62,7.91c-2.31,1.99-4.79,5.15-4.6,8.38c0.02,0.27,0.27,0.29,0.54,0.34
		c8.55,1.69,9.85-3.65,21.74-3.45c5.58-0.72,17.09,5.64,24.53,8.18C274.59,199.9,283.23,201.46,283.93,200.75z"/>
	<path class="st2" d="M255.93,224.87c0.56-3.47,1.14-7.03,1.42-10.49c0.19-2.32,0.55-4.63,0.83-6.94c0.1-1.95,0.47-3.86,0.81-5.78
		c0.25-1.45,0.36-2.91,0.67-4.35c0.2-0.94,0.27-1.9,0.46-2.85c-3.82-1.64-7.78-3.33-11.15-4.26c-0.4,1.17-0.68,2.37-0.81,3.6
		c-0.43,3.88-1.27,7.69-1.7,11.57c-0.58,5.15-0.59,10.46-2.29,15.41c-1.36,3.97-3.59,8.63-7.19,11.01
		c-2.06,1.36-4.56,1.94-7.02,2.05c-3.5,0.16-8-1.61-11.23,0.15c-1.73,0.94-3,2.68-3.38,4.61c-0.39,2.02,0.19,4.16,1.35,5.86
		c1.22,1.79,3.03,3.11,4.94,4.13c2.92,1.56,6.22,2.52,9.53,2.39c4.07-0.15,7.91-1.9,11.39-4c3.55-2.14,6.93-4.75,9.16-8.25
		c2.27-3.57,3.27-7.78,3.91-11.92C255.73,226.17,255.83,225.52,255.93,224.87z"/>
	<path class="st3" d="M243.76,189.53c-0.04,0-0.08,0-0.11,0.01c-2.37-0.04-4.32,0.14-5.99,0.44c-0.03,0.01-0.06,0.01-0.09,0.02
		c-6.48,1.19-8.75,4.18-15.19,3.07c2.06,1.7,8.28,4.43,13.18,6.2c3.45,1.32,7.73,1.74,11.33,2.56c0.38-3.47,0.94-4.97,1.32-8.44
		c0.12-1.09,0.36-2.15,0.74-3.19c-0.67-0.19-1.32-0.33-1.94-0.45C245.96,189.67,244.86,189.59,243.76,189.53z M268.18,197.71
		c-2.39-0.81-5.19-2.02-8.09-3.26c-0.13,0.74-0.18,1.5-0.35,2.23c-0.29,1.29-0.38,2.6-0.62,3.9c-0.31,1.71-0.42,1.51-0.5,3.25
		c-0.02,0.34,16.56-0.08,18.48-0.74c1.5-0.52,4.05-0.78,5.46-1.47c0.54-0.26,0.97-0.36,1.2-0.8
		C282.44,201.31,274.3,199.8,268.18,197.71z"/>
	<path class="st5" d="M271.43,184.42c0.9-0.21,1.73-0.66,2.39-1.3c-2.43-2.73-4.4-6.97-6.7-10.18c-0.99-0.19-2.1-0.09-2.82,0.66
		c-1.03,1.06-0.07,2.52,0.39,3.62c0.28,0.67,0.54,1.33,0.67,2.04c0.13,0.68,0.2,1.36,0.42,2.01
		C266.57,183.54,269.09,184.98,271.43,184.42z M273.48,195.57c0.26,1.02,2.98,0.77,3.99,0.91c0.55,0.08,1.2,0.09,1.69-0.22
		c0.48-0.31,0.69-0.85,0.87-1.37c0.32-0.95,0.44-2.05-0.39-2.79c-0.75-0.68-1.83-0.57-2.74-0.37c-0.21-0.06-1.37,0.55-1.55,0.66
		C274.41,193,273.21,194.52,273.48,195.57z M239.68,188.56c-0.07,0.38,0.01,0.76,0.15,1.12c1.15-0.11,2.41-0.17,3.83-0.15
		c2.02-0.26,4.82,0.41,7.91,1.49c0.41-0.71,0.41-1.58,0.21-2.38c-0.27-1.08-0.78-2.17-1.27-3.16c-0.55-1.12-1.53-1.43-2.68-1.65
		c-1.22-0.24-2.47-0.38-3.72-0.4c-0.57-0.01-1.15,0.03-1.65,0.33c-0.45,0.27-0.75,0.72-1.04,1.15c-0.64,0.98-1.19,2.02-1.66,3.1
		C239.68,188.19,239.66,188.38,239.68,188.56z M256.79,193.05c3.15,1.31,6.32,2.73,9.14,3.83c1.36-0.71,2.45-1.87,2.46-3.54
		c0.01-0.85-0.3-1.72-0.93-2.31c-0.82-0.77-1.98-0.84-3.05-0.84c-1.18,0-2.35,0.1-3.52,0.23c-0.63,0.07-1.26,0.16-1.88,0.24
		c-0.47,0.06-0.96,0.09-1.36,0.35C256.99,191.44,256.78,192.27,256.79,193.05z M227.34,189.13c0.47,1.02,3.26,0.24,4.34,0.2
		c0.59-0.02,1.27-0.13,1.72-0.55c0.44-0.41,0.56-1.02,0.65-1.59c0.15-1.05,0.07-2.22-0.93-2.84c-0.91-0.56-2.01-0.25-2.93,0.13
		c-0.22-0.02-1.32,0.83-1.49,0.98C227.83,186.27,226.86,188.08,227.34,189.13z M231.71,179.72c1.02,1.42,3.02,1.69,4.58,1.09
		c1.8-0.7,3.15-2.2,4.63-3.39c0.85-0.67,1.27-1.97,0.38-2.81c-0.76-0.71-1.87-0.86-3.06-0.74c-0.91,0.8-1.79,1.62-2.64,2.47
		C234.39,177.57,233.06,178.66,231.71,179.72z M253.67,178.68c-0.93,1.64-0.01,4.58,2.05,4.82c1.61,0.19,3.93-1.23,3.97-2.97
		c0.02-1.12-0.98-2.31-1.82-2.96c-1.3-1-3.26-0.34-4.11,0.96C253.73,178.58,253.7,178.63,253.67,178.68z M256.49,168.62
		c0.09-0.78,0.06-1.59-0.18-2.31c-2.44-0.26-4.9,0.11-7.33,0.95c-0.78,1.21-1.36,2.88-0.86,3.96c0.62,1.35,4.1,0.31,5.46,0.25
		c0.74-0.03,1.6-0.18,2.15-0.74C256.28,170.19,256.41,169.38,256.49,168.62z"/>
	<path class="st6" d="M37.67,149.4c2.37,6.39,0.84,4.86,7.23,7.23c-6.39,2.37-4.86,0.84-7.23,7.23c-2.37-6.39-0.84-4.86-7.23-7.23
		C36.83,154.26,35.3,155.79,37.67,149.4z"/>
	<path class="st6" d="M67.7,103.88c2.37,6.39,0.84,4.86,7.23,7.23c-6.39,2.37-4.86,0.84-7.23,7.23c-2.37-6.39-0.84-4.86-7.23-7.23
		C66.86,108.75,65.33,110.28,67.7,103.88z"/>
	<path class="st6" d="M227.21,213.63c2.37,6.39,0.84,4.86,7.23,7.23c-6.39,2.37-4.86,0.84-7.23,7.23c-2.37-6.39-0.84-4.86-7.23-7.23
		C226.38,218.49,224.85,220.02,227.21,213.63z"/>
	<path class="st6" d="M259.12,52.84c2.37,6.39,0.84,4.86,7.23,7.23c-6.39,2.37-4.86,0.84-7.23,7.23c-2.37-6.39-0.84-4.86-7.23-7.23
		C258.28,57.7,256.75,59.23,259.12,52.84z"/>
	<path class="st6" d="M283.36,155.35c2.37,6.39,0.84,4.86,7.23,7.23c-6.39,2.37-4.86,0.84-7.23,7.23c-2.37-6.39-0.84-4.86-7.23-7.23
		C282.52,160.22,280.99,161.75,283.36,155.35z"/>
	<path class="st6" d="M59.62,241.28c2.37,6.39,0.84,4.86,7.23,7.23c-6.39,2.37-4.86,0.84-7.23,7.23c-2.37-6.39-0.84-4.86-7.23-7.23
		C58.78,246.14,57.25,247.67,59.62,241.28z"/>
</g>
</svg>
