<?xml version="1.0" encoding="utf-8"?>
<!-- Generator: Adobe Illustrator 25.2.0, SVG Export Plug-In . SVG Version: 6.00 Build 0)  -->
<svg version="1.1" id="Layer_1" xmlns="http://www.w3.org/2000/svg" xmlns:xlink="http://www.w3.org/1999/xlink" x="0px" y="0px"
	 width="300px" height="300px" viewBox="0 0 300 300" style="enable-background:new 0 0 300 300;" xml:space="preserve">
<g>
	<g>
		<path d="M165.9,222.2c0.3,0.3,0.7,0.4,1.1,0.4c0.1,0,0.2,0,0.3,0c1.4-0.1,2.5-0.9,3.3-2.4c2.4-4.2,2.7-8.4,1-12.7
			c-0.3-0.7-0.8-1.5-1.5-2.1c-0.9-0.8-2.1-0.9-3.5-0.3c-1.2,0.5-1.2,1.5-1.2,2.3c0,0.1,0,0.2,0,0.2c0,1.5,0,3,0,4.5l0,1.8
			c0,0,0,0.1,0,0.1c0,0.7,0,1.3,0,2c0,1.6,0,3.3,0,5C165.5,221.5,165.6,221.9,165.9,222.2z"/>
		<path d="M149,178.5c0.6,0.2,1.3,0.4,2,0.4c0.5,0,0.9-0.1,1.4-0.2c1.5-0.3,2.4-1.3,2.4-2.6c0-1.3,0-2.6,0-3.9c0-0.6,0-1.3,0-2
			c0-0.2-0.1-0.3-0.2-0.4c-0.1-0.1-0.3-0.1-0.4,0c-2.6,1.8-4.6,3.4-5.7,6c-0.2,0.6-0.1,1.6,0.1,2.1
			C148.7,178.2,148.8,178.4,149,178.5z"/>
		<path d="M129.8,137.4c0-0.2-0.1-0.3-0.2-0.4c-0.1-0.1-0.3-0.1-0.4,0c-2.8,1.8-4.4,3.5-5.6,5.6c-0.4,0.7-0.6,1.5-0.4,2.1
			c0.1,0.4,0.4,0.8,0.8,1c0.6,0.3,1.3,0.5,2,0.5c0.4,0,0.9-0.1,1.2-0.2c0.9-0.3,2.3-1.3,2.5-2.4c0.2-1.4,0.2-2.8,0.1-4.3
			C129.8,138.7,129.8,138,129.8,137.4z"/>
		<path d="M90.7,178.5c0.6,0.3,1.3,0.4,2,0.4c0.5,0,1-0.1,1.4-0.2c1.6-0.4,2.5-1.4,2.5-2.7c0-1.3,0-2.6,0-3.9c0-0.6,0-1.3,0-1.9
			c0-0.2-0.1-0.3-0.2-0.4c-0.1-0.1-0.3-0.1-0.4,0c-2.7,1.7-4.5,3.5-5.7,5.7c-0.4,0.7-0.5,1.5-0.3,2.1C90,178,90.3,178.3,90.7,178.5z
			"/>
		<polygon points="233.6,170.9 233.6,170.9 233.6,170.9 		"/>
		<path d="M195.4,210.5l0.5,0.3c0.1,0,0.1,0.1,0.2,0.1c0,0,0.1,0,0.1,0c0.4-0.1,0.8-0.2,1.3-0.3c1.1-0.2,2.3-0.5,3.5-0.8
			c0.5-0.1,0.9-0.5,1.2-0.9c0.5-0.7,0.6-1.7,0.3-2.8c-0.2-1-0.7-1.8-1.3-2.2c-0.7-0.4-1.5-0.5-2.3-0.2c-0.9,0.3-1.6,0.9-2.1,1.7
			c-0.5,1-0.9,2.2-1.2,3.2c-0.1,0.5-0.3,0.9-0.4,1.4C195.2,210.2,195.2,210.4,195.4,210.5z"/>
	</g>
	<g>
		<path d="M279.3,172.3c-0.4-0.8-0.8-1.6-1.2-2.4c-1.5-3-3-6-4.5-9c-1.8-3.5-5.8-5.3-9.1-4.2c-1.2,0.4-2.2,0.9-3.4,1.4
			c-0.4,0.2-0.8,0.4-1.2,0.6c-0.1-0.1-0.2-0.3-0.2-0.5c-0.6-2.1-2.2-1.9-3.3-1.7c-1.5,0.2-3.1,0.3-4.7,0.4c-0.7,0-1.4,0.1-2.1,0.1
			c-0.7,0-1.1-0.2-1.4-1c-1.1-2.3-2.3-4.6-3.4-6.9l-0.6-1.3c0-0.1-0.1-0.1-0.1-0.2c-0.2-0.4-0.4-0.8-0.7-1c-2.3-1.7-4.6-2.6-7-2.6
			c-5.7,0-10.8,2.1-15.1,4.2c-1.1,0.5-2.2,1.1-3.4,1.7c-0.4,0.2-0.8,0.4-1.3,0.7c-0.1-0.1-0.1-0.2-0.2-0.3c-0.3-0.4-0.5-0.8-0.7-1.2
			c-0.6-1.5-1.6-2-3.4-1.7c-2.4,0.4-4.9,0.6-6.9,0.7c-0.4,0-1.1-0.3-1.4-0.7c-3.1-4-6.3-8-9.3-11.9c-2-2.6-4-5.1-6-7.6
			c-3.3-4.2-9-5.3-13.4-2.6c-0.3,0.2-0.6,0.4-1,0.6l0,0c-0.1-1-0.2-1.7-0.6-2c-0.5-0.3-1.1-0.2-2.3,0c-2.8,0.6-5.7,0.6-8.9-0.1
			c-0.3-0.1-0.8-0.5-1-0.9c-1.6-2.9-3-5.5-4.2-7.9c-1.3-2.6-3.5-4-6.3-4c0,0-0.1,0-0.1,0c-3,0-5.2,1.6-6.4,4.4
			c-1.1,2.7-0.6,5.2,1.4,7.6c0.3,0.4,0.6,0.7,1,1.2c0,0-0.1,0-0.1,0c-0.8-0.2-1.6-0.3-2.3-0.4c-0.5,0-1.4,0.1-1.7,0.6
			c-0.3,0.5-0.1,1.4,0.2,1.9c1.2,1.5,1.7,3.3,1.8,5.6c0.1,2.3,0.1,4.5,0.1,6.8c0,0.6,0,1.1,0,1.7c-0.4-0.7-0.7-1.4-1.1-2.1
			c-1.3-2.5-2.5-4.8-3.6-7.2c-1.5-3.2-4-5.4-7.4-6.6c-6.4-2.3-12.9-0.8-17.8,4.3c0,0,0,0,0,0c-0.2-0.8-0.4-1.6-0.7-2.4
			c-0.7-2.3-1.3-4.8-1.9-7.1c-0.4-1.5-1.2-2.1-2.7-1.8c-0.3,0.1-0.7,0.1-1,0.2c-1,0.2-2.1,0.4-3.1,0.4c-2.1,0-4.3-0.2-6.4-0.3
			c-1.5-0.1-2.9-0.2-4.4-0.2c-0.6,0-1.4,0.1-1.9,0.6c-0.3,0.3-0.1,0.8,0.1,1.3c0.1,0.2,0.1,0.4,0.2,0.5c0,0.1,0.1,0.3,0.1,0.4
			c0.1,0.2,0.2,0.6,0.1,0.7c-1.2,2.4-2.4,4.8-3.7,7.4c-0.3,0.6-0.6,1.1-0.9,1.7c-0.1-0.1-0.1-0.2-0.2-0.2c-0.5-0.9-0.9-1.8-1.4-2.7
			c-1.3-2.6-2.7-5.4-4-8.1c-0.5-1-1.3-2.1-3.2-1.6c-0.6,0.2-1.3,0.2-1.9,0.2c-1.8,0-3.6,0-5.3,0c-3.3,0-6.7,0-10,0
			c-3.4,0.1-5.8,1.4-7.1,4c-1.3,2.7-1,5.4,0.9,8.2c0.9,1.3,1.8,2.7,2.6,4.1c1,1.6,2,3.3,3.2,4.9c0.8,1.1,2,1.9,3.1,2.6
			c0.2,0.1,0.4,0.3,0.7,0.4c0.4,0.3,1,0.4,1.5,0.5c0.1,0,0.2,0,0.3,0.1c-0.2,2.8-1.2,4.8-3.3,6.3c-1.1,0.8-1.7,1.2-1.8,1.9
			c-0.1,0.6,0.4,1.2,1.3,2.3c0.9,1,1.8,1.9,2.6,2.9c0.2,0.2,0.4,0.5,0.7,0.7l-4.7,1.1c0-0.1,0-0.1-0.1-0.2c-0.7-2.9-1.2-5.4-1.8-7.7
			c-0.1-0.5-0.3-1.2-0.9-1.6c-0.4-0.3-1-0.3-1.7-0.1c-1.7,0.4-3.1,0.6-4.4,0.6c-1.3,0-2.6-0.2-3.9-0.4c-0.8-0.1-1.6-0.2-2.3-0.3
			c-0.5,0-1.2,0.1-1.6,0.4c-0.4,0.3-0.5,1.3-0.2,1.7c1.6,2.5,1.8,5.3,2,8.1c0,0.3,0,0.5,0.1,0.8c0.1,1.8,0.1,3.6,0.1,5.5
			c0,0.4,0,0.7,0,1.1c-0.2-0.4-0.4-0.8-0.6-1.1c-0.4-0.8-0.9-1.6-1.3-2.4c-1-1.8-1.9-3.6-3.2-5.3c-4-5.1-9.7-7.5-17.1-7.1
			c-6.1,0.3-11.8,3.3-15.1,7.9c-2.2,3.1-4.5,8.3-2.5,15.6c2.3,8.4,7.2,14.8,14.6,19.2c6.7,4,19.2,4.7,25.9-3.8
			c0.2,0.4,0.4,0.8,0.7,1.1c1,1.7,1.9,3.2,2.9,4.8c0.3,0.5,1.2,0.9,1.8,0.8c4.1-1,8.4-1.1,12.9-0.2c0.6,0.1,1.3,0.5,1.7,0.9
			c0.3,0.3,0.6,0.7,0.9,1c1.7,1.9,3.5,3.9,5,5.9c3,4.2,6.7,6.2,11.3,6.1c4.4-0.1,8.7-0.9,10.8-5.7c0.2-0.6,0.4-1.2,0.6-1.8
			c0.1,0.3,0.3,0.5,0.4,0.8c0.5,1,0.9,2,1.4,3.1c1.6,3.6,3.3,7.3,5,11c0.7,1.5,1.3,3.1,1.8,4.7c0.2,0.8,0.2,1.7,0.3,2.6
			c0,0.5,0,1,0.1,1.5c0,0.2,0,0.3,0,0.5c0,0.6,0.1,1.3,0.4,1.8c1.8,2.8,3.8,5.8,6.1,9.1c0.4,0.5,1.3,0.9,1.9,0.8
			c3.9-0.7,7.2-0.9,10.4-0.4c0.9,0.1,1.8,0.2,2.7,0.3c0.4,0,0.7,0.1,1.1,0.1c0.1,0,0.2,0,0.3-0.1c0.1-0.1,0.1-0.2,0.2-0.3
			c0.5-7.3,4-13.4,7.4-19.3c0.1-0.2,0.3-0.4,0.4-0.7c0,2.8-0.1,5.5-1.9,7.8c-0.9,1-0.2,2,0.2,2.6l0.9,1.3c1.8,2.5,3.6,5.2,5.3,7.8
			c0.5,0.8,1,1.2,2.1,0.9c3.4-0.8,6.4-0.9,9.4-0.5c0.9,0.1,1.8,0.3,2.7,0.4c0.4,0.1,0.8,0.1,1.2,0.2c0.2,0,0.3-0.1,0.4-0.2
			c0.1-0.1,0.1-0.3,0-0.5c-1.2-1.9-1.9-3.9-2-6c0.9,1.3,1.8,2.7,2.5,4.2c0.9,2,2.2,2.7,4.5,2.6c1.8-0.1,3.7-0.1,5.6-0.1
			c1,0,2.1,0,3.1,0c0.4,0,0.8-0.1,1.1-0.2c0.5-0.1,0.9-0.2,1.2-0.1c5.7,1.7,11.6-0.7,14.3-5.8c0.7-1.3,1.2-2.8,1.7-4.2
			c0.1-0.4,0.3-0.8,0.4-1.2c0.2,0.3,0.4,0.6,0.5,0.9c0.8,1.2,1.6,2.5,2.4,3.7c2,2.9,4.3,4.8,7.2,5.8c3.8,1.3,7.7,1.5,11.5,0.4
			c2.8-0.8,6.6-2.5,7.5-7.3c0.1,0.2,0.2,0.3,0.3,0.5c0.7,1,1.3,2,1.9,2.9c1.3,2.1,3,3.4,5,4.1c2.7,0.9,5.3,1.3,7.9,1.3
			c3.3,0,6.6-0.7,9.8-2.2c2.2-1,3.7-2.7,4.2-4.7c0.5-2.1,0-4.5-1.6-6.6c-0.7-1-1.4-2-2.1-3c-0.2-0.3-0.5-0.7-0.7-1
			c1.5-0.8,2.6-1.9,3-3.1c0.4-1.1,0.2-2.2-0.3-3.4c-0.3-0.6-0.6-1.1-0.9-1.7c-1.1-2.3-2.3-4.6-3.6-6.9c-0.6-1.1-1.3-2.2-2-3.2
			c-0.4-0.5-0.7-1.1-1.1-1.7c-0.8-1.3-1.6-2.6-2.4-3.8c-0.2-0.3-0.4-0.6-0.6-0.9c0.6-0.1,1.2-0.3,1.7-0.4c1.7-0.4,3.5-0.7,5.1-1.5
			c1.6-0.7,3-1.8,4.4-2.9c0.5-0.4,0.9-0.7,1.4-1.1c0.1,0.2,0.3,0.4,0.4,0.7c0.6,1.1,1.4,2.3,2.1,3.4c0.3,0.4,1.1,1,1.7,0.8
			c3.4-0.8,6.9-1,10.3-0.5c0.8,0.1,1.5,0.2,2.4,0.4l1.2,0.2c0.1,0,0.3,0,0.4-0.1c0.1-0.1,0.1-0.2,0.1-0.4c0-0.1,0-0.3-0.1-0.4
			c0-0.2-0.1-0.5-0.2-0.7c-2.1-3-2.1-6.4-2.1-10l0-0.3c0-2.4,0.8-4.5,2.4-6.4c0.4-0.5,1.1-1,1.6-1.1c0.7-0.1,1.6,0.1,2.1,0.6
			c0.2,0.2,0.1,1,0,1.4c0,0.2,0,0.3-0.1,0.5c0,0.1-0.1,0.3-0.2,0.5c-0.1,0.1-0.1,0.2-0.2,0.3c-0.1,0.2,0,0.4,0.1,0.6
			c2.2,1.6,5,1.5,7.1-0.3C279.7,177.5,280.5,174.7,279.3,172.3z M38.8,189.9c-0.9-2.5-0.3-1.9-2.9-2.9c2.5-0.9,1.9-0.3,2.9-2.9
			c0.9,2.5,0.3,1.9,2.9,2.9C39.1,188,39.7,187.4,38.8,189.9z M43.8,171.8c-0.2,1-0.5,2.1-0.9,3c-1.4,3.2-3.8,5.6-7,7
			c-7.6,3.2-14.6,2.4-20.8-2.4c-3.8-3-5.9-7.1-6-11.6c-0.1-4.5,1.9-9,5.6-12.1c3.2-2.8,7.5-4.4,12.1-4.5c0.2,0,0.4,0,0.5,0
			c4.4,0,8.5,1.4,11.7,3.9c2.2,1.8,4.7,4.3,4.5,8.1c-0.2,2.8-1.8,4.8-4.7,6c-2.8,1.1-5.3,0.7-7.5-1.3c-0.4-0.3-0.7-0.9-0.9-1.5
			c0-0.1,0.2-0.6,0.3-0.7c2.7-1.6,3.5-3.2,3.1-6.2c-0.2-2-1.7-3.6-3.7-4.2c-2.5-0.7-5.3,0.3-6.5,2.4c-0.9,1.5-1.6,3.3-1.9,5
			c-1,6.3,3,12.3,9,13.4c5.2,1,9.4-0.5,12.5-4.3l0.9-1.1C44,171.1,43.9,171.5,43.8,171.8z M194.9,140.7c0.9,2.5,0.3,1.9,2.9,2.9
			c-2.5,0.9-1.9,0.3-2.9,2.9c-0.9-2.5-0.3-1.9-2.9-2.9C194.6,142.6,193.9,143.2,194.9,140.7z M187.2,163.7c-0.5-1.8-2-3-3.9-3
			c0,0,0,0,0,0c-2.1,0-3.7,1-4.7,3c-2.1,4.1-0.5,10.3,3.2,12.7c4,2.6,9.8,1.5,12.8-2.3l0.5-0.6c0,0.1,0,0.2,0,0.2
			c-0.1,0.6-0.2,1.2-0.3,1.8c-0.8,2.5-2.4,4.6-4.8,6c-5.2,3.2-12.9,2.5-17.5-1.5c-3-2.6-4.6-6.1-4.5-9.8c0.1-3.7,1.9-7.1,5.1-9.6
			c2.7-2,5.9-3.1,9.2-3.1c3.8,0,7.5,1.4,10.2,4.1c2.3,2.3,3,4.6,2.2,7.1c-0.8,2.6-3.5,4.4-6.2,4c-1.7-0.2-2.8-1.1-3.5-2.6
			c-0.6-1.3-0.5-1.5,0.7-2.3C187,166.9,187.6,165.4,187.2,163.7z M175.9,188.4c-2.5,0.9-1.9,0.3-2.9,2.9c-0.9-2.5-0.3-1.9-2.9-2.9
			c2.5-0.9,1.9-0.3,2.9-2.9C174,188.1,173.4,187.5,175.9,188.4z M166.5,160.2c-0.9-2.5-0.3-1.9-2.9-2.9c2.5-0.9,1.9-0.3,2.9-2.9
			c0.9,2.5,0.3,1.9,2.9,2.9C166.8,158.2,167.5,157.6,166.5,160.2z M163.4,144c0.1-4.7,0.1-9.5-0.2-14.3c-0.1-1.2-0.6-2.3-1.2-3.5
			c-0.1-0.3-0.3-0.6-0.4-0.9c3.7,0.6,7.3,0.9,11-0.1v3.2c0,0.2,0.1,0.3,0.2,0.4c0.1,0.1,0.3,0,0.5-0.1l0.6-0.5
			c0.3-0.3,0.6-0.5,0.8-0.7c2.5-2,5.4-2.7,8-2c2.6,0.7,4.6,2.7,5.7,5.7c0.6,1.6,0.7,3.3,0.9,5c0,0.2,0,0.5,0.1,0.7
			c0.1,0.9,0.1,1.8,0.1,2.7c0,0.6,0,1.1,0,1.7c0,0.4,0,0.8,0,1.2c0,2.8,0,5.6,2.1,7.9c-1.8,0.9-4.1,0.9-6.2,0.1c-2-0.8-3.5-2.2-4-4
			c-0.6-1.8-0.7-3.9-0.9-5.8c-0.1-0.8-0.1-1.6-0.2-2.4c-0.1-0.6-0.1-1.2-0.1-1.9c0-1-0.1-2.1-0.3-3.1c-0.3-1.5-1.1-2.1-1.6-2.3
			c-0.3-0.1-0.7-0.2-1-0.2c-0.6,0-1.3,0.2-2,0.6c-1.3,0.7-2.7,1.8-2.5,4.1c0.1,1.6,0.2,3.2,0.3,4.7c0.1,2,0.2,4,0.4,6
			c0.1,1.1,0.6,2.2,1.1,3.4c0.1,0.3,0.3,0.6,0.4,0.9c-4.6-1-9-1-13.5,0C162.7,148.8,163.4,146.5,163.4,144z M145.5,118.1
			c0-3,2.4-5.5,5.4-5.6c1.4,0,2.8,0.6,3.9,1.6c1.1,1,1.7,2.4,1.7,3.9c0,3-2.5,5.5-5.5,5.6c-1.4,0-2.8-0.5-3.8-1.6
			C146.1,121,145.5,119.6,145.5,118.1z M144.3,150.5c0.4-0.6,0.8-1.2,0.9-1.8l0-0.1c0.5-2.1,0.9-4.2,1-6.3c0.1-2.7,0-5.5,0-8.2
			c0-0.8,0-1.7-0.1-2.5c0-2.5-0.7-4.5-2-6.1c0,0,0-0.1-0.1-0.1c4.6,1,9,1,13.6,0c-2,2.8-2.2,6.1-2.1,9c0,1.2,0,2.4,0,3.7
			c0,1.7,0,3.5,0,5.2c0,2.9,0.6,5.2,1.8,7.2c-4.6-0.8-8.9-0.7-13.2,0.2C144.2,150.6,144.3,150.6,144.3,150.5z M116.1,140.7
			c1.2-0.7,2.5-1.3,3.8-1.8c0.6-0.3,1.2-0.5,1.8-0.8c0.6-0.3,1.2-0.6,1.9-0.9c1.5-0.7,3.1-1.4,4.6-2.3c2-1.2,1.9-2.1,0.9-3.9
			c-0.8-1.4-2.2-2.2-3.6-2.2c-0.6,0-1.2,0.1-1.7,0.4c-0.8,0.4-1.2,1-1.4,1.7c-0.1,0.7,0.1,1.4,0.6,2.2c0.2,0.2,0.3,0.7,0.2,1
			c-0.3,1.4-1.7,2.5-3.2,2.7c-1.8,0.2-3.3-0.6-4-2.2c-0.9-2-0.5-4.1,1.1-5.8c1.8-1.9,4.1-2.9,7.4-3.4c4.4-0.6,8,0.3,11,2.6
			c2.1,1.7,3.1,3.7,3.1,6.3c-0.1,1.6-0.1,3.1,0,4.5c0,0.7,0,1.4,0,2.1c0,3.2,0,6.6,1.9,9.7c-0.4,0-0.7-0.1-1.1-0.1
			c-1.4-0.1-2.7-0.2-4.1-0.2c-1.3,0-2.7,0.1-4.1,0.2c-0.5,0-1,0.1-1.4,0.1l-0.1-2c0-0.2-0.1-0.3-0.2-0.4c-0.1-0.1-0.3-0.1-0.4,0
			l-0.5,0.3c-0.3,0.2-0.5,0.4-0.7,0.5c-2.6,1.9-5.2,2.7-8,2.5c-3.7-0.3-6.3-3-6.1-6.5C113.8,143,114.6,141.5,116.1,140.7z
			 M114.1,150.9c0.9,2.5,0.3,1.9,2.9,2.9c-2.5,0.9-1.9,0.3-2.9,2.9c-0.9-2.5-0.3-1.9-2.9-2.9C113.8,152.8,113.2,153.4,114.1,150.9z
			 M64.9,150.6C64.9,150.6,65,150.6,64.9,150.6c3.1-1.9,4.6-4.8,4.7-8.6c0.1-4.4,0.1-8.9,0.1-13.2c0-1.6,0-3.2,0-4.8
			c0-0.2-0.1-0.5-0.1-0.7c0-0.1,0-0.2-0.1-0.3c0-0.2-0.2-0.4-0.4-0.3c-1.3,0.1-2.6,0.3-3.3,1.6c-0.7,1.2-0.5,2.5,0.4,3.6
			c0.2,0.3,0.4,0.5,0.4,0.7c0,0.3-0.3,0.6-0.7,0.9c-1.5,1.3-3.3,1.6-5.7,0.8c-2.1-0.7-3.3-2.1-3.7-4.1c-0.3-1.7,0.1-3.3,1-4.6
			c1-1.3,2.5-2,4.3-2.2c2-0.2,4.1-0.2,6.1-0.1c0.8,0,1.5,0,2.3,0c1.2,0,2.3,0,3.5,0c0.7,0,1.4,0,2.1,0c1.3,0,2.6,0,3.9,0l1.3,0
			c0.1,4,2,7.4,3.9,10.7c0.7,1.2,1.4,2.5,2,3.8c0,0.1,0.1,0.2,0.2,0.2c0.1,0,0.2,0,0.3,0c0.1,0,0.2-0.1,0.2-0.1
			c0.2-0.1,0.3-0.1,0.4-0.3c0.5-0.8,1-1.7,1.5-2.5c1.5-2.6,3.1-5.2,4.6-7.9c0.6-1,1.4-2.5,0.2-4.1c0.6,0.1,1.3,0.1,1.9,0.2
			c2.1,0.2,4.1,0.4,6,0.4c2,0,3.9-0.2,5.9-0.4c0.6-0.1,1.2-0.1,1.8-0.2c-2.3,3.8-2.3,8-2.3,12.1c0,0.8,0,1.6,0,2.4
			c-0.1,2.9,0,5.8,0.2,8.6c0.2,2.9,0.5,5.7,2,8.2c-5.5-0.8-10.6-0.7-15.5,0.2c2.6-5.4,2.4-10.9,2.3-16.3c-0.1-2.1-0.1-4.3,0-6.4
			c0-0.2-0.1-0.4-0.3-0.4l-0.4-0.1c0,0-0.1,0-0.1,0c-0.1,0-0.3,0.1-0.4,0.2l-11.4,18l-9.7-16.9c-0.1-0.1-0.2-0.2-0.4-0.2l-0.4,0
			c-0.2,0-0.4,0.2-0.4,0.4c0,0.3,0,0.7,0,1c0,0.7,0,1.5,0,2.3c0,1,0,2,0.1,3c0,2.6,0.1,5.4,0.3,8.1c0.2,2.9,1.6,5.4,4,7.1
			C73,149.7,68.8,149.8,64.9,150.6z M83.9,172.7c1.1-0.6,2.3-1,3.4-1.5c1-0.4,2-0.8,3-1.2c1.4-0.7,2.8-1.5,4.2-2.3
			c0.3-0.2,0.6-0.4,1-0.6c0.8-0.5,1.1-1.3,0.8-2.3c-0.4-1.4-1.3-2.5-2.5-3c-0.5-0.2-1-0.3-1.6-0.3c-0.5,0-1,0.1-1.5,0.3
			c-1.1,0.5-1.5,1.2-1.6,1.7c-0.2,0.7,0,1.6,0.7,2.4c0.2,0.2,0.2,0.8,0.1,1.2c-0.4,1.3-2,2.4-3.5,2.4c-1.7,0-3.2-0.9-3.8-2.5
			c-0.8-2.1-0.3-4.3,1.6-6c1.9-1.8,4.4-2.8,7.7-3.1c4-0.4,7.3,0.4,10.1,2.5c2.2,1.6,3.3,3.8,3.3,6.5c0,4.9,0.2,8.6,0.4,12.2
			c0.1,1.1,0.5,2.2,1,3.2c0.1,0.3,0.2,0.5,0.3,0.8H96.6l-0.1-2c0-0.2-0.1-0.3-0.2-0.4c-0.1-0.1-0.3-0.1-0.4,0l-0.5,0.4
			c-0.3,0.2-0.6,0.4-0.8,0.6c-2.6,1.9-5.3,2.7-8,2.4c-2.9-0.3-5.4-2.3-5.9-4.9C80,176.4,81.2,174.1,83.9,172.7z M78.3,153.2
			c4.4-1.6,3.4-0.6,5-5c1.6,4.4,0.6,3.4,5,5c-4.4,1.6-3.4,0.6-5,5C81.7,153.8,82.7,154.8,78.3,153.2z M74.3,196.4
			c-3-1.1-5-3.4-5.7-6.5c-0.6-2.4-0.9-5-1-8.3c-0.1-2.3-0.1-4.6,0-6.9c0-1.6,0-3.3,0-5c0-1.4-0.2-2.7-0.6-3.9
			c-0.3-0.8-0.7-1.4-1.4-1.7c-0.3-0.2-0.7-0.2-1.1-0.2c-0.4,0-0.9,0.1-1.4,0.3c-2.4,0.9-3.8,3-3.7,5.4l0,0.5
			c0.1,2.8,0.2,5.8,0.6,8.6c0.2,1.2,0.6,2.4,1,3.7c0.1,0.4,0.3,0.7,0.4,1.1c-4.6-1-9.1-1-13.6,0c2.4-6,2.2-12.1,2.1-18
			c-0.1-1.7-0.1-3.4-0.1-5.1c0-1.7-0.1-3.3-0.4-4.8c-0.3-1.5-0.7-3-1.1-4.6c-0.1-0.5-0.2-0.9-0.4-1.4c3.1,0.7,7.1,1.2,11.4-0.1v12.4
			c0,0.2,0.1,0.3,0.3,0.4c0.2,0.1,0.3,0,0.5-0.1l0.6-0.6c0.3-0.3,0.5-0.5,0.8-0.7c2.4-2.3,5.4-3.2,8.1-2.5c2.7,0.7,4.9,2.8,5.9,5.9
			c0.6,1.6,0.9,3.6,0.9,5.8c0,3.3,0,6.7,0,9.9c0,2.5,0,5,0,7.5c0,1.6,0.2,3.2,0.6,4.6c0.3,1.4,1.6,2.1,3.2,1.9
			c1.3-0.2,2.2-1.2,2.1-2.6c0-0.6-0.4-1.1-0.7-1.7c-0.1-0.2-0.3-0.4-0.4-0.7c0.5-1.4,1.5-2.3,2.8-2.7c1.4-0.4,3,0,4.3,1
			c1.5,1.2,1.9,2.8,1.1,5c-0.6,1.8-1.9,3.1-3.9,3.9C81.8,197.7,78,197.8,74.3,196.4z M89.1,204.6c-1.3-3.4-0.5-2.6-3.9-3.9
			c3.4-1.3,2.6-0.4,3.9-3.9c1.3,3.4,0.5,2.6,3.9,3.9C89.6,202,90.4,201.2,89.1,204.6z M115.7,233c-0.8-2-0.3-1.6-2.3-2.3
			c2-0.8,1.6-0.3,2.3-2.3c0.8,2,0.3,1.6,2.3,2.3C116,231.4,116.4,230.9,115.7,233z M129.1,222c-0.9-2.5-0.3-1.9-2.9-2.9
			c2.5-0.9,1.9-0.3,2.9-2.9c0.9,2.5,0.3,1.9,2.9,2.9C129.4,220.1,130,219.5,129.1,222z M131.9,201.7c-0.5,0.9-1,1.8-1.6,2.6
			c-0.9,1.5-1.8,3-2.6,4.6c-1.8,3.8-3.5,7.6-5,11.4c-0.5,1.2-0.6,2.5-0.8,3.8c-0.1,0.5-0.1,1-0.2,1.6c-5.1-0.9-9.8-0.9-14.2,0.1
			c0.6-3-0.3-5.5-1.4-7.9c-2.5-5.6-5-11.5-7.7-17.1c-0.8-1.7-1.9-3.2-3.1-4.8c-0.3-0.5-0.7-0.9-1-1.4c4.8,0.7,9.8,1,15-0.2
			c-0.5,3.8,0.9,6.9,2.2,9.9c0.1,0.3,0.3,0.6,0.4,0.9c1.4,3.1,2.9,6.3,4.3,9.3c0.6,1.3,1.2,2.7,1.9,4c0.1,0.2,0.3,0.3,0.5,0.2
			c0.1,0,0.2,0,0.2-0.1c0.2,0,0.4-0.1,0.5-0.3c0.4-1,0.9-1.9,1.3-2.9c1.4-3,2.8-6.1,4.1-9.3c0.4-1,0.4-2.3,0.3-3.4
			c-0.1-0.7-0.6-1.7-1.2-1.9c-0.5-0.2-1.1,0.1-1.6,0.4c-0.2,0.1-0.3,0.2-0.4,0.2c-0.2,0.1-0.3,0.2-0.4,0.3c-1.3-1-2-2.5-2.1-4.2
			c0-2,0.9-3.9,2.4-5.1c2.6-2,6.7-1.9,9.1,0.3C133.2,194.6,133.7,198.6,131.9,201.7z M111.7,190.2c3.6-1.3,2.8-0.5,4.1-4.1
			c1.3,3.6,0.5,2.8,4.1,4.1c-3.6,1.3-2.8,0.5-4.1,4.1C114.4,190.7,115.3,191.6,111.7,190.2z M131.8,179.2c-0.9-2.5-0.3-1.9-2.9-2.9
			c2.5-0.9,1.9-0.3,2.9-2.9c0.9,2.5,0.3,1.9,2.9,2.9C132.2,177.3,132.8,176.7,131.8,179.2z M132.9,169c-0.8,0.1-1.6-0.1-2.5-0.3
			c-0.3-0.1-0.5-0.1-0.8-0.2c0,0,0,0,0-0.1c0.2-0.3,0.4-0.6,0.4-0.9c0-0.2,0-0.4,0-0.6c0.1-0.8,0.2-1.7-0.3-2.2
			c-0.5-0.5-1.5-0.7-2.9-0.6c-0.5,0-1.1,0.4-1.8,1.2c-1.9,2.1-2.8,4.4-2.7,6.9c0,2.1,0.1,4.5,0.5,6.9c0.2,1.1,0.6,2.1,1.1,3.1
			c0.1,0.3,0.2,0.5,0.3,0.8c-0.5-0.1-1-0.1-1.5-0.2c-1.7-0.2-3.4-0.4-5.1-0.4h0c-1.7,0-3.4,0.2-5.2,0.4c-0.5,0.1-1.1,0.1-1.6,0.2
			c0,0,0-0.1,0.1-0.1c0.2-0.5,0.4-1.1,0.6-1.6c0.5-1.2,1.1-2.4,1.1-3.7c0.2-3.7,0.2-7.4,0.2-11c0-1,0-1.9,0-2.9
			c0-2.3-0.7-4.2-2.1-5.8c0.4,0,0.8,0.1,1.2,0.2c1.5,0.2,2.9,0.4,4.3,0.4c1.4,0,2.8-0.1,4.3-0.3c0.5-0.1,1-0.1,1.5-0.2v4.3
			c0,0.2,0.1,0.3,0.3,0.4l0.4,0.2c0.2,0.1,0.4,0,0.5-0.1c0.1-0.1,0.2-0.2,0.3-0.4c0.2-0.2,0.4-0.5,0.6-0.7c2.2-2.5,4.5-3.7,7-3.8
			c3-0.1,5.9,2.3,6.3,5.3C137.8,166.1,135.8,168.7,132.9,169z M136.3,225.7c2-2.7,2.2-5.9,2.1-8.3c0-1,0-1.9,0-2.9
			c0-3.1,0-6.3-0.3-9.4c-0.1-1.2-0.6-2.4-1.1-3.6c-0.1-0.3-0.3-0.6-0.4-1c0.5,0.1,0.9,0.1,1.4,0.2c1.7,0.2,3.4,0.4,5.1,0.4
			c1.7,0,3.5-0.2,5.1-0.4c0.5-0.1,0.9-0.1,1.4-0.2c-0.1,0.4-0.3,0.8-0.4,1.1c-0.5,1.3-1.1,2.7-1.2,4.1c-0.2,3.2-0.2,6.5-0.2,9.7
			c0,0.8,0,1.7,0,2.5c0,2.5,0.2,5.1,1.8,7.5C144.7,224.7,140.3,224.8,136.3,225.7z M137.5,193.1c0-1.5,0.6-2.8,1.6-3.9
			c1-1,2.4-1.6,3.8-1.6c0,0,0,0,0,0c3.1,0,5.5,2.5,5.5,5.5c0,3-2.6,5.5-5.5,5.5c0,0,0,0,0,0c-1.5,0-2.8-0.6-3.9-1.6
			C138.1,196,137.5,194.6,137.5,193.1z M147.7,233.9c-0.9-2.5-0.3-1.9-2.9-2.9c2.5-0.9,1.9-0.3,2.9-2.9c0.9,2.5,0.3,1.9,2.9,2.9
			C148,232,148.6,231.4,147.7,233.9z M152.5,181.9c-3.3,2.2-6.2,2.8-9.2,2c-2.6-0.8-4.2-2.6-4.5-5.2c-0.3-2.6,0.8-4.6,3.3-5.9
			c1.1-0.6,2.4-1.1,3.6-1.5c1-0.4,2-0.8,3-1.3c1.5-0.7,3-1.6,4.5-2.4l0.6-0.3c1-0.6,1.3-1.6,0.8-2.9c-0.5-1.4-1.5-2.4-2.7-2.8
			c-0.4-0.1-0.8-0.2-1.2-0.2c-0.6,0-1.2,0.2-1.8,0.5c-0.7,0.4-1.2,1-1.3,1.7c-0.1,0.7,0.1,1.4,0.7,2.2c0.2,0.2,0.3,0.7,0.2,1
			c-0.4,1.4-1.9,2.7-3.5,2.7c-1.6,0.1-3.2-0.9-3.8-2.4c-0.9-2.1-0.4-4.2,1.3-5.8c3-2.9,6.9-3.9,11.7-3.3c2.2,0.3,4.2,1.2,5.5,1.9
			c2.9,1.6,4.3,4.1,4.2,7.5c-0.1,3.9,0,7.4,0.3,10.8c0.1,1.3,0.5,2.6,1,3.9c0.1,0.4,0.3,0.8,0.4,1.1c-0.3,0-0.6,0-0.9-0.1
			c-1.3-0.1-2.6-0.2-4-0.2c-1.3,0-2.7,0-4.1,0c-0.5,0-1,0-1.5,0l-0.1-1.8c0-0.2-0.1-0.3-0.2-0.4s-0.3-0.1-0.4,0
			c-0.2,0.1-0.4,0.3-0.6,0.4C153.1,181.5,152.8,181.7,152.5,181.9z M172.7,225.8l-0.2,0.1c-0.8,0.2-1.6,0.3-2.2,0.2
			c-1.1-0.3-2.1-0.4-3.2-0.4c-0.8,0-1.6,0-2.4,0.1c-0.8,0.1-1.6,0.1-2.4,0.1c-1.6,0-3.3,0-4.9,0c-1.1,0-2.2,0-3.3,0
			c-0.1,0-0.2,0-0.3,0c0.1-0.5,0.3-0.9,0.5-1.4c0.5-1.3,0.9-2.7,1.1-4.2c0.8-8,0.8-16-0.2-23.8c-0.1-1-0.4-1.9-0.7-2.7
			c-0.2-0.6-0.5-1.1-0.8-1.7c0-0.1-0.1-0.2-0.1-0.2c4.3,0.9,8.1,0.9,11.8-0.1v10.6c0,0.1,0.1,0.3,0.2,0.4c0.1,0.1,0.3,0.1,0.4,0
			l0.9-0.4c0.5-0.2,0.9-0.4,1.2-0.6c3.6-1.9,6.9-1.5,10,1.2c3.9,3.4,5.2,7.8,3.9,13.2C180.7,221.6,177.6,224.8,172.7,225.8z
			 M181.5,229.9c-1.1-3.1-0.4-2.3-3.5-3.5c3.1-1.1,2.3-0.4,3.5-3.5c1.1,3.1,0.4,2.3,3.5,3.5C181.9,227.6,182.7,226.9,181.5,229.9z
			 M184.1,201.4c-1.4-3.9-0.5-2.9-4.4-4.4c3.9-1.4,2.9-0.5,4.4-4.4c1.4,3.9,0.5,2.9,4.4,4.4C184.6,198.4,185.5,197.5,184.1,201.4z
			 M202.5,234.4c-0.8-2.1-0.3-1.6-2.4-2.4c2.1-0.8,1.6-0.3,2.4-2.4c0.8,2.1,0.3,1.6,2.4,2.4C202.8,232.8,203.3,232.3,202.5,234.4z
			 M211.5,218.9c-0.3,1.7-1.3,3.1-2.9,4.4c-5,3.7-14.6,3.2-19.1-1c-3.6-3.4-4.7-7.8-3.2-13c1.4-4.9,4.7-7.9,9.7-8.7
			c1.1-0.2,2.2-0.3,3.3-0.3c1.1,0,2.2,0.1,3.4,0.3c4.5,0.7,8.2,4.9,8.7,9.6c-1.3,0.3-2.5,0.6-3.8,0.9c-3,0.8-6.2,1.5-9.2,2.3l0,0
			c-3.5,0.9-3.6,1.1-3,4.7c0.6,3.4,2.2,5.1,4.8,5.2c2.3,0.1,3.9-1.1,4.3-3.2c0.3-1.6-0.1-2.5-1.8-3.8c0.8-2.1,2.9-3.1,5.5-2.5
			C210.5,214.3,212,216.4,211.5,218.9z M204.7,188.5c2.5-0.9,1.9-0.3,2.9-2.9c0.9,2.5,0.3,1.9,2.9,2.9c-2.5,0.9-1.9,0.3-2.9,2.9
			C206.6,188.8,207.2,189.4,204.7,188.5z M237.9,233c-0.9-2.5-0.3-1.9-2.9-2.9c2.5-0.9,1.9-0.3,2.9-2.9c0.9,2.5,0.3,1.9,2.9,2.9
			C238.3,231,238.9,230.4,237.9,233z M236.2,201.3c1.6,0.8,2.6,1.9,3,3.2c0.3,1,0.1,2-0.5,3c-0.5,0.9-1.5,1.5-2.7,1.7
			c-1.5,0.3-3,0-4.2-0.8c-0.5-0.4-0.8-0.7-0.8-0.9c0-0.3,0.1-0.6,0.5-1.1c0.7-0.9,0.6-1.6,0.5-2c-0.1-0.4-0.5-1-1.5-1.4
			c-1.7-0.7-3.5-0.6-5.1,0.3c-0.9,0.5-1.5,1.4-1.5,2.4c0,0.9,0.4,1.8,1.3,2.4c0.9,0.6,1.9,1,2.8,1.3c0.2,0.1,0.4,0.2,0.6,0.2
			c1,0.4,1.9,0.7,2.9,1.1c1.8,0.6,3.7,1.3,5.4,2.1c2.2,1.1,3.5,2.9,3.7,5.4c0.2,2-0.3,4.7-3.3,6c-2.2,0.9-4.6,1.6-7.5,2.1
			c-3,0.5-6.1,0.3-9.1-0.7c-2.3-0.7-3.9-1.8-4.8-3.5c-0.6-1-0.8-2.1-0.4-3c0.3-0.9,1-1.6,2.1-2.1c1-0.4,2-0.6,3-0.6
			c1.3,0,2.6,0.3,3.8,1c0.7,0.4,0.8,0.6,0.8,0.7c0,0.1,0,0.3-0.7,0.8c-0.5,0.4-1.2,1.2-1.2,1.9c0.1,0.7,0.8,1.6,1.5,1.9
			c1.9,0.7,3.8,0.7,5.5-0.2c1-0.5,1.7-1.5,1.7-2.5c0-1-0.5-1.9-1.4-2.4c-1.2-0.6-2.4-1.1-3.7-1.5c-0.4-0.1-0.9-0.3-1.3-0.5
			c-0.7-0.3-1.4-0.5-2.1-0.7c-1.3-0.4-2.6-0.9-3.9-1.4c-2.6-1.2-4-3.1-3.9-5.7c0.1-9.2,13.1-8.3,19.1-7.1
			C235.1,200.8,235.7,201.1,236.2,201.3z M219.3,192.6c3.6-1.3,2.7-0.5,4.1-4.1c1.3,3.6,0.5,2.7,4.1,4.1c-3.6,1.3-2.7,0.5-4.1,4.1
			C222,193.1,222.9,194,219.3,192.6z M241.3,177.2c-0.3,1.7-1.3,3.1-2.9,4.4c-5,3.7-14.6,3.2-19.1-1c-3.6-3.4-4.7-7.8-3.2-13
			c1.4-4.9,4.7-7.9,9.7-8.7c1.1-0.2,2.2-0.3,3.3-0.3c1.1,0,2.2,0.1,3.4,0.3c4.5,0.7,8.2,4.9,8.7,9.6c-1.3,0.3-2.5,0.6-3.8,0.9
			c-3,0.8-6.2,1.5-9.2,2.3l0,0c-3.5,0.9-3.6,1.1-3,4.7c0.6,3.4,2.2,5.1,4.8,5.2c2.3,0.1,3.9-1.1,4.3-3.2c0.3-1.6-0.1-2.5-1.8-3.8
			c0.8-2.1,2.9-3.1,5.5-2.5C240.3,172.6,241.7,174.7,241.3,177.2z M240.1,155.9c-1.2,0.6-2.3,0.6-3.5,0l-0.2-0.1
			c-0.7-0.4-0.9-0.5-0.6-1.3c0.2-0.5,0.2-1,0-1.5c-0.3-0.5-0.9-0.9-1.6-0.9l-0.2,0c-1.8-0.1-3.7-0.2-5.5,0.1c-5.5,1-11,3.2-16.3,6.3
			c-0.5,0.3-1.3,1.1-1.3,1.8l0,0.3c0.1,5.8,0.2,11.8,0.5,17.6c0.1,1.3,0.5,2.5,1,3.9c0.1,0.4,0.3,0.8,0.4,1.2c-4.7-1-9.4-0.9-14.1,0
			c2.2-5.3,2.2-10.7,2.1-15.9c0-2.2,0-4.5,0.1-6.7c0-0.1,0-0.2-0.1-0.3c-0.1-0.1-0.2-0.1-0.3-0.1c-0.5,0-1,0-1.5,0
			c-0.5,0-0.9,0-1.4,0c-0.6,0-1.2,0-1.9,0c-0.4,0-0.6,0-0.7-0.1c-0.1-0.1-0.2-0.4-0.1-0.7c0-0.5,0-0.9,0-1.2c0-0.5,0-1.1,0.1-1.2
			c0.1-0.1,0.6-0.1,1-0.1c0.3,0,0.8,0,1.3,0c0.6,0,1.2,0,1.9,0c0.4,0,0.8,0,1.3,0c0.1,0,0.3-0.1,0.3-0.2c0.1-0.1,0.1-0.2,0.1-0.4
			l-2-7.3c4.6,1,9.3,1,14.1,0l-1.7,5.5c-0.1,0.2,0,0.4,0.2,0.5l0.4,0.3c0.1,0.1,0.3,0.1,0.5,0l0.5-0.3c0.3-0.2,0.7-0.4,1-0.6
			c5.6-3.5,11.8-7,19-8.4c2.9-0.6,5.1-0.4,7.1,0.4c2.3,0.9,3.6,2.7,3.6,5C243.4,153.2,242.3,154.8,240.1,155.9z M256.8,191.8
			c-0.9-2.5-0.3-1.9-2.9-2.9c2.5-0.9,1.9-0.3,2.9-2.9c0.9,2.5,0.3,1.9,2.9,2.9C257.1,189.9,257.7,189.2,256.8,191.8z M267.6,169.1
			c-0.7,0-1.5-0.1-2.4-0.3c-0.3-0.1-0.5-0.1-0.8-0.2c0,0,0,0,0,0c0.1-0.2,0.1-0.3,0.2-0.4c0.4-0.6,1.3-2.2-0.1-3.5
			c-1-1-2.9-0.8-4.1,0.3c-1.9,1.8-3.1,4-3.1,6.3c-0.1,3,0.3,6,0.6,8.9c0.1,0.9,0.6,1.7,1,2.6c0.1,0.2,0.2,0.4,0.3,0.6
			c-2.3-0.5-4.6-0.7-6.8-0.7c-2.2,0-4.4,0.2-6.5,0.7c2.6-5.6,2.2-11.3,1.9-16.9c-0.1-1.4-0.2-2.8-0.2-4.2c0-0.9-0.4-1.7-0.8-2.5
			l0-0.1c-0.3-0.5-0.6-1-1-1.6c0,0,0-0.1-0.1-0.1c3.8,0.6,7.5,1.1,11.3-0.1v4.6c0,0.2,0.1,0.3,0.3,0.4l0.3,0.1
			c0.2,0.1,0.4,0,0.5-0.1c0.1-0.1,0.2-0.3,0.4-0.4c0.2-0.3,0.5-0.6,0.8-0.9c1.9-2,4.6-4.2,8.4-3.5c2.7,0.5,4.9,3.4,4.7,6.1
			C272.3,166.6,270,168.9,267.6,169.1z"/>
		<path d="M225.3,168.8C225.4,168.8,225.4,168.8,225.3,168.8c0.5-0.1,0.9-0.2,1.3-0.3c1.1-0.2,2.3-0.5,3.5-0.8
			c0.5-0.1,0.9-0.5,1.2-0.9c0.5-0.7,0.6-1.7,0.3-2.8c-0.2-1-0.7-1.8-1.3-2.2c-0.7-0.4-1.5-0.5-2.3-0.2c-0.9,0.3-1.6,0.9-2.1,1.7
			c-0.5,1-0.9,2.2-1.2,3.2c-0.1,0.5-0.3,0.9-0.4,1.4c-0.1,0.2,0,0.4,0.2,0.5l0.5,0.3C225.2,168.8,225.2,168.8,225.3,168.8z"/>
	</g>
</g>
</svg>
