<?xml version="1.0" encoding="utf-8"?>
<!-- Generator: Adobe Illustrator 28.0.0, SVG Export Plug-In . SVG Version: 6.00 Build 0)  -->
<svg version="1.1" id="Layer_1" xmlns="http://www.w3.org/2000/svg" xmlns:xlink="http://www.w3.org/1999/xlink" x="0px" y="0px"
	 viewBox="0 0 300 300" style="enable-background:new 0 0 300 300;" xml:space="preserve">
<style type="text/css">
	.st0{fill:#231F20;}
	.st1{fill:#F7ADBE;}
	.st2{fill:#BFDDDF;}
	.st3{fill:#EE708E;}
	.st4{fill:#FFFFFF;}
	.st5{fill:#010101;}
	.st6{fill:#F1BF86;}
</style>
<g>
	<path class="st0" d="M263.34,95.52c-0.01-0.37-0.09-0.78-0.31-1.22c-2.09-4.2-17.06-8.49-20.04-9.31l0,0.01
		c-2.06-2.24-4.75-3.72-7.09-4.57c3.36-3.41,5.31-6.89,5.12-10.3c-0.67-12-5.01-15.79-9.44-18.97
		c-8.14-6.59-33.09-13.67-63.53-12.42c-4.63-5.18-11.42-9.54-21.14-9.55c-0.01,0-0.03,0-0.04,0c-16.08,0-24.16,10.3-27.75,17.1
		c-27.38,5.92-49.68,13.53-60.77,27.82l-0.04-0.03c-0.05,0.05-0.36,0.44-0.83,1.18c-0.06,0.08-0.12,0.16-0.18,0.24
		c-0.29,0.42-0.52,0.87-0.71,1.35c-1.37,2.67-3.14,7.36-3.77,14.48c-0.2,2.32,1.38,5.82,4.76,9.34
		c-13.71,4.29-21.1,8.72-21.94,13.18c-0.03,0.17-0.06,0.36-0.07,0.55c-0.02,0.1-0.03,0.2-0.03,0.31c0.02,0.72,0.53,17.63,5.56,23.94
		c2.9,3.64,10.16,4.55,16.68,4.55c4.56,0,8.75-0.44,10.86-0.71c1.75,11.36,14.01,90.98,14.83,96.65c-0.05,0.14-0.11,0.29-0.17,0.45
		c-0.85,2.25-2.83,7.51,3.46,13.21c0.45,0.41,0.93,0.86,1.46,1.36c6.77,6.41,20.48,19.39,56.51,19.39c2.02,0,4.12-0.04,6.28-0.13
		c39.39-1.55,62.89-11.2,69.91-28.81c0.87-2.97,0.43-5.05,0.1-6.57c-0.18-0.83-0.32-1.49-0.21-2.08
		c0.3-1.69,11.31-75.97,16.85-113.36c0.23,0,0.49,0,0.8,0c5.12,0,19.9-0.46,22.82-5.64l0.14-0.25l0.03-0.29
		c0.47-4.39,1.92-20.72,1.94-20.89L263.34,95.52z M125.19,43.25c2.62-2.3,6.08-3.76,10.79-3.96c4.11-0.18,8.07,0.38,11.73,1.54
		c-0.95,0.15-1.9,0.3-2.84,0.47c-7.26,1.3-14.33,2.61-21.12,4.01C124.25,44.45,124.76,43.78,125.19,43.25z"/>
	<g>
		<path class="st1" d="M150.85,114.46c-4.67,0-7.72-0.06-8.39-0.07l0-0.04c-7.19,0.8-14.76,1.26-22.76,1.26
			c-11.94,0-24.83-1.03-38.81-3.53c-6.46-1.15-11.77-3.26-15.98-5.74l1.55,11.83c1.62-0.45,3.04-0.89,4.12-1.23
			c1.08-0.34,1.79-0.56,2.24-0.65c0.69-0.14,1.37,0.25,1.59,0.91c0.79,2.33,3.15,21.37,3.42,23.54c0.05,0.43-0.1,0.86-0.41,1.16
			c-0.31,0.3-0.74,0.44-1.17,0.38c-0.03-0.01-2.48-0.36-4.85-0.17c1.81,11.75,13.55,87.95,14.78,96.27
			c5.16,8.41,17.51,25.78,67.64,24.86c34.03-0.61,56.25-10.96,64.62-29.98c2.41-15.96,16.71-112.54,19.21-129.42
			C218.04,113.43,170.35,114.46,150.85,114.46z M214.86,223.54c0.01,0.07,0,0.14,0,0.21c-0.01,0.05-0.01,0.1-0.02,0.15
			c-0.02,0.07-0.05,0.13-0.09,0.19c-0.02,0.03-0.03,0.07-0.05,0.11c-0.01,0.01-0.01,0.01-0.02,0.02c-0.04,0.05-0.1,0.09-0.16,0.14
			c-0.04,0.03-0.08,0.07-0.12,0.09c-0.01,0-0.01,0.01-0.02,0.02c-11.4,5.71-98.28,11.4-103.5,11.6c-0.04,0-0.08,0-0.13,0
			c-0.37-0.04-0.68-0.3-0.78-0.66c-9.26-34.06-12.44-58.29-13.48-72.61c-1.13-15.58-0.06-22.98-0.02-23.29
			c0-0.02,0.01-0.03,0.02-0.05c0.01-0.06,0.04-0.11,0.06-0.17c0.02-0.06,0.05-0.11,0.08-0.16c0.01-0.01,0.01-0.03,0.02-0.05
			c0.02-0.03,0.06-0.04,0.08-0.07c0.05-0.05,0.09-0.09,0.15-0.13c0.04-0.03,0.09-0.04,0.13-0.06c0.06-0.03,0.13-0.05,0.2-0.06
			c0.02,0,0.04-0.02,0.06-0.02l25.94-2.44l0.3-0.43l-1.35-3.08c-0.11-0.26-0.1-0.55,0.04-0.8c0.14-0.25,0.38-0.42,0.66-0.46
			l43.84-6.55c0.31-0.05,0.62,0.07,0.82,0.31c0.2,0.24,0.26,0.57,0.17,0.87l-0.64,1.91l1.43,1.06c0.33,0.25,0.46,0.69,0.3,1.07
			l-0.8,1.94l0.25,0.17l28.54-2.65c0.46-0.04,0.89,0.28,0.97,0.74l17.12,93.11C214.86,223.5,214.86,223.52,214.86,223.54z"/>
		<path class="st1" d="M117.59,49.46c-1.94,4.48-3.06,9.6-4.12,14.47c-0.19,0.85-0.37,1.7-0.56,2.54c-0.14,0.64,0.18,1.29,0.78,1.56
			c0.19,0.08,0.38,0.12,0.57,0.12c0.43,0,0.85-0.2,1.12-0.56c0.04-0.05,3.96-5.37,5.99-7.99c0.22-0.29,0.32-0.65,0.28-1.01
			c-0.51-4.43-0.07-7.72,0.72-10.16c7.35-1.54,15.05-2.98,22.99-4.4c2.42-0.43,4.9-0.81,7.38-1.14c8.19,4.22,14.1,11.8,15.42,21
			c0.08,0.57,0.51,1.03,1.07,1.16c0.56,0.12,1.15-0.11,1.46-0.6c3.03-4.66,5.87-7.28,5.9-7.3c0.37-0.33,0.53-0.84,0.42-1.33
			c-0.03-0.14-1.74-7.46-6.8-14.38c27.38-0.78,49.42,5.32,57.85,10.58l-0.03,0.04l1.04,0.74c0.41,0.29,0.8,0.57,1.2,0.86
			c0.55,0.5,0.97,0.99,1.21,1.45c0.74,1.38,2.19,5.14-0.34,10.31c-9.29,18.95-56.1,29.39-83.17,33.93
			c-34.39,5.76-75.36,5.22-87.2-13.59c-2.13-3.39-2.26-6.13-1.65-7.8c0.25-0.48,0.48-0.88,0.67-1.19
			C69.83,62.88,91.12,55.31,117.59,49.46z"/>
		<path class="st1" d="M43.27,136.92c-2.88-3.61-4.11-11.8-4.61-17.18c9.56,7.08,26.38,1.84,32.75-0.14
			c0.23-0.07,0.46-0.14,0.67-0.21c0.66,3.57,1.92,13.07,2.79,19.97c-1.43-0.1-3.48-0.14-5.32,0.2
			C65.1,140.4,47.24,141.89,43.27,136.92z"/>
		<path class="st1" d="M238.07,119.82c1.18-7.97,2.06-13.93,2.47-16.65c3.58-0.26,14.4-1.26,19.75-4.01
			c-0.45,4.97-1.21,13.35-1.55,16.64C256.61,118.72,245.84,119.87,238.07,119.82z"/>
		<path class="st1" d="M118.85,156.74c-0.19,0-0.39,0.03-0.58,0.08c-0.47,0.14-0.84,0.43-1.04,0.82c-0.47,0.92-0.17,2.01,0.72,2.6
			c1.59,1.06,3.97,1.66,4.72,1.75c0.45-0.68,1.71-3.19,1.96-4.84c0.08-0.52-0.07-1.09-0.4-1.54c-0.28-0.38-0.65-0.62-1.05-0.68l0,0
			c-1.07-0.16-1.98,0.45-2.23,1.5l-0.06,0.25c-0.05,0.19-0.18,0.36-0.36,0.43c-0.18,0.08-0.39,0.07-0.57-0.03l-0.2-0.12
			C119.5,156.82,119.18,156.74,118.85,156.74z"/>
		<path class="st1" d="M195.42,203.65c-0.16-0.12-0.33-0.21-0.52-0.28c-0.46-0.17-0.93-0.16-1.33,0.03
			c-0.93,0.45-1.34,1.5-0.99,2.51c0.63,1.8,2.17,3.72,2.72,4.24c0.77-0.27,3.29-1.52,4.48-2.68c0.37-0.36,0.6-0.91,0.61-1.47
			c0.01-0.47-0.15-0.88-0.43-1.17l0,0c-0.76-0.77-1.86-0.83-2.68-0.15l-0.2,0.16c-0.15,0.13-0.36,0.18-0.55,0.13
			c-0.19-0.05-0.35-0.18-0.43-0.36l-0.09-0.21C195.89,204.11,195.68,203.85,195.42,203.65z"/>
	</g>
	<path class="st2" d="M165.51,126.96l-0.38,1.13c-0.12,0.37,0.01,0.78,0.32,1.01l1.39,1.03l-0.81,1.96
		c-0.16,0.39-0.03,0.84,0.32,1.09l1.47,1.02l-1.7,2c-0.29,0.35-0.29,0.86,0.02,1.19l0.85,0.93l-40.75,6.09l0.37-1.22
		c0.12-0.39-0.04-0.81-0.39-1.03l-1.06-0.66l0.8-1.08c0.24-0.32,0.24-0.76,0-1.08l-1.4-1.85l0.73-1.02c0.18-0.26,0.22-0.6,0.09-0.89
		l-1.08-2.46L165.51,126.96z"/>
	<g>
		<path class="st3" d="M153.85,266.01c-1.28,0.02-2.53,0.03-3.76,0.03c-44.42,0-58.6-14.7-64.75-23.8
			c-0.54,2.14-0.49,5.06,3.28,8.49c0.46,0.42,0.96,0.89,1.5,1.4c6.88,6.51,21.2,20.07,60.77,18.5c38.19-1.5,60.87-10.57,67.4-26.94
			c0.56-1.91,0.38-3.28,0.12-4.55C208.11,255.98,185.64,265.43,153.85,266.01z"/>
		<path class="st3" d="M146.86,31.96c0.01,0,0.03,0,0.04,0c9.06,0.01,16.41,4.08,21.85,12.1c3.3,4.87,4.87,9.8,5.37,11.63
			c-0.77,0.78-2.2,2.32-3.87,4.55c-3.62-13.93-17.01-23.75-32.76-23.75c-0.54,0-1.08,0.01-1.63,0.04c-2.34,0.1-4.41,0.47-6.25,1.06
			C133.72,34.39,139.31,31.96,146.86,31.96z"/>
		<path class="st3" d="M260.59,95.53c-0.84,2.11-11.31,4.07-17.5,4.72c1.86-1.72,2.98-3.65,3.14-5.81c0.17-2.24-0.21-4.19-0.93-5.88
			C253.47,91.05,260.3,94.14,260.59,95.53z"/>
		<path class="st3" d="M56.85,84.06c0.39,1.05,0.92,2.12,1.58,3.17c3.14,4.99,15.08,18.29,52.83,18.28c10.34,0,22.61-1,37.17-3.44
			c61.08-10.23,80.05-24.92,85.2-35.45c1.49-3.04,1.83-5.72,1.68-7.88c1.54,2.52,2.62,6.02,2.93,11.53
			c0.58,10.34-27.24,24.88-53.35,32.42c-26.56,7.68-59.62,14.47-103.53,6.64c-18.84-3.36-26.08-14.66-25.8-17.79
			C55.83,88.62,56.3,86.14,56.85,84.06z"/>
		<path class="st3" d="M38.36,114.35c0.23-1.24,2.47-5.75,21.48-11.49l0.07-0.02c0.66,0.55,1.36,1.1,2.11,1.64
			c-0.07,0.2-0.11,0.42-0.08,0.64l1.81,13.76c-7.43,1.82-17.61,3.19-23.7-1.57C38.09,115.78,38.29,114.71,38.36,114.35z"/>
	</g>
	<g>
		<path class="st4" d="M137.21,218.07l-20.84-9.31c2.41-0.6,4.76-1.95,6.45-2.92c0.22-0.13,0.43-0.25,0.63-0.36
			C125.36,208.33,130.93,213.48,137.21,218.07z"/>
		<path class="st4" d="M98.3,162.75c-0.4-5.57-0.52-10.09-0.51-13.62c2.07,14.74,5.88,41.91,6.19,44.53
			c0.46,3.86,2.83,12.56,7.26,14.78c0.18,0.09,0.36,0.16,0.54,0.23c0.02,0.01,0.04,0.04,0.07,0.05l37.67,16.83c0,0,0,0,0,0
			c1.5,0.68,3.87,1.14,6.82,1.44c11.53,1.17,32.02-0.17,45.25-1.28c-25.61,4.21-80.74,8.05-90.07,8.5
			C102.46,200.73,99.33,176.88,98.3,162.75z"/>
		<path class="st4" d="M196.11,131.52l-26.06,2.42c0.03,0.25-0.04,0.5-0.21,0.69l-1.83,2.15l1.45,1.59c0.22,0.25,0.3,0.6,0.18,0.91
			c-0.11,0.31-0.39,0.54-0.72,0.59l-43.84,6.55c-0.08,0.01-0.15,0.01-0.22,0.01c-0.23-0.02-0.44-0.13-0.59-0.31
			c-0.2-0.23-0.27-0.56-0.18-0.85l0.59-1.92l-1.31-0.81c-0.21-0.13-0.36-0.35-0.41-0.6c-0.05-0.25,0.01-0.51,0.16-0.71l0.98-1.32
			l-1.34-1.77l-24.39,2.3c1,7.11,6.98,49.65,7.38,53.03c0.43,3.67,2.79,11.63,6.27,13.38c2.9,1.45,7.26-1.05,9.87-2.55
			c0.57-0.33,1.07-0.61,1.46-0.81c0.22-0.11,0.47-0.13,0.7-0.05c0.23,0.08,0.42,0.25,0.52,0.46c1.62,3.37,15.08,15.25,25.67,20.02
			c9.23,4.16,55.35-0.31,62.65-1.05L196.11,131.52z M125.88,157.35c-0.26,1.69-1.93,5.54-2.67,5.86c-0.08,0.03-0.2,0.05-0.36,0.05
			c-1.11,0-3.92-0.84-5.61-1.95c-1.44-0.95-1.92-2.74-1.15-4.23c0.36-0.7,1-1.22,1.81-1.45c0.66-0.19,1.36-0.18,1.98,0.03
			c0.56-1.39,1.96-2.19,3.49-1.96c0.73,0.11,1.4,0.53,1.88,1.18C125.79,155.59,126.02,156.5,125.88,157.35z M144.34,208.25
			c-0.58,0.34-1.05,0.6-1.43,0.82c-1.46,0.82-1.46,0.82-1.72,2.47c-0.07,0.44-0.15,0.97-0.26,1.63c-0.04,0.25-0.23,0.44-0.47,0.5
			c-0.01,0-0.03,0.01-0.04,0.01c-0.26,0.05-0.52-0.07-0.66-0.3c-0.34-0.58-0.6-1.05-0.82-1.43c-0.82-1.46-0.82-1.46-2.47-1.72
			c-0.44-0.07-0.97-0.15-1.63-0.26c-0.26-0.05-0.46-0.25-0.51-0.51c-0.05-0.26,0.07-0.52,0.3-0.66c0.58-0.34,1.05-0.6,1.43-0.82
			c1.46-0.82,1.46-0.82,1.72-2.47c0.07-0.44,0.15-0.97,0.26-1.63c0.05-0.26,0.23-0.46,0.51-0.51c0.26-0.05,0.52,0.07,0.66,0.3
			c0.34,0.58,0.6,1.05,0.82,1.43c0.82,1.46,0.82,1.46,2.47,1.72c0.44,0.07,0.97,0.15,1.63,0.26c0.26,0.05,0.46,0.25,0.51,0.51
			C144.68,207.85,144.56,208.11,144.34,208.25z M190.32,155.93c-0.64,0.19-1.16,0.33-1.59,0.45c-1.62,0.44-1.62,0.44-2.26,1.99
			c-0.17,0.41-0.38,0.9-0.65,1.52c-0.1,0.23-0.33,0.37-0.58,0.37c-0.01,0-0.03,0-0.04,0c-0.26-0.02-0.49-0.2-0.57-0.45
			c-0.19-0.64-0.33-1.16-0.45-1.59c-0.44-1.62-0.44-1.62-1.99-2.26c-0.41-0.17-0.9-0.38-1.52-0.65c-0.24-0.11-0.39-0.35-0.37-0.62
			c0.02-0.26,0.2-0.49,0.45-0.57c0.64-0.19,1.16-0.33,1.59-0.45c1.62-0.44,1.62-0.44,2.26-1.99c0.17-0.41,0.38-0.9,0.65-1.52
			c0.11-0.24,0.34-0.39,0.62-0.37c0.26,0.02,0.49,0.2,0.57,0.45c0.19,0.64,0.33,1.16,0.45,1.59c0.44,1.62,0.44,1.62,1.99,2.26
			c0.41,0.17,0.9,0.38,1.52,0.65c0.24,0.11,0.39,0.35,0.37,0.62C190.75,155.63,190.57,155.85,190.32,155.93z M195.01,211.44
			c-0.09-0.02-0.19-0.08-0.32-0.18c-0.89-0.67-2.63-3.03-3.3-4.94c-0.57-1.63,0.12-3.34,1.64-4.07c0.71-0.34,1.53-0.37,2.32-0.07
			c0.64,0.24,1.19,0.67,1.56,1.22c1.28-0.77,2.88-0.57,3.97,0.54c0.52,0.53,0.8,1.27,0.79,2.07c-0.01,0.9-0.37,1.76-0.99,2.36
			C199.44,209.57,195.79,211.63,195.01,211.44z"/>
	</g>
	<g>
		<g>
			<path class="st5" d="M122.93,171.81c0.3,1.53,0.54,3.08,0.72,4.64c0.18,1.58,0.29,3.2,0.34,4.79c0.04,1.29-0.13,3.33-1.79,3.52
				c-2.78,0.31-4.06-6.02-5.64-5.84c-0.28,0.03-0.21,0.67-0.18,0.87c0.15,1.3,0.72,2.56,0.87,3.88c0.14,1.26-0.52,1.92-1.74,2.06
				c-2.63,0.3-2.89-3.01-3.1-4.85c-0.24-2.14-1.15-9.43,1.98-9.78c1.93-0.22,2.75,2.68,3.6,3.93c0.13,0.18,0.31,0.29,0.57,0.26
				c1.07-0.12,0.13-3.87,1-4.79c0.33-0.36,0.81-0.46,1.26-0.51C122.23,169.83,122.65,170.5,122.93,171.81z"/>
			<path class="st5" d="M135,181.05c0.19,1.71-1.55,2.36-2.91,2.64c-1.12,0.26-2.27,0.45-3.42,0.58c-0.51,0.06-1.05,0.12-1.54-0.04
				c-1.15-0.37-1.55-1.69-1.78-2.75c-0.3-1.31-0.51-2.61-0.66-3.93c-0.21-1.86-0.32-3.78-0.2-5.63c0.13-2.31,2.53-2.58,4.34-2.78
				c1.05-0.12,3.45-0.5,4.23,0.48c0.33,0.4,0.47,0.88,0.52,1.37c0.14,1.28,0.16,1.97-1.3,2.14l-2.4,0.27
				c-0.64,0.07-0.78,0.37-0.71,0.97c0.03,0.26,0.12,0.72,0.47,0.68c0.6-0.07,1.21-0.22,1.81-0.29c1.26-0.14,1.55,0.52,1.68,1.65
				c0.26,2.31-3.76,1.4-3.6,2.85c0.04,0.36,0.15,0.39,0.47,0.36c0.9-0.1,1.79-0.29,2.69-0.39C134.27,179.05,134.81,179.4,135,181.05
				z"/>
			<path class="st5" d="M145.48,176.36c0.34,2.99-1.7,6.21-4.81,6.56c-3.55,0.4-5.7-3.5-6.04-6.53c-0.38-3.36,1.2-8.04,5.05-8.47
				c1.33-0.15,3.69,0.47,3.87,2.06c0.1,0.92-0.6,2.95-1.67,3.07c-0.62,0.07-1.16-0.3-1.78-0.23c-1.56,0.18-2.17,2.11-2.02,3.46
				c0.13,1.18,1.04,2.35,2.35,2.21c0.77-0.09,1.08-0.6,0.99-1.37c-0.1-0.86-1.45,0.57-1.67-1.35c-0.05-0.47,0.02-1,0.42-1.3
				c0.63-0.55,1.72-0.84,2.54-0.93C144.61,173.3,145.29,174.7,145.48,176.36z"/>
			<path class="st5" d="M153.9,167.23c1.46,1.81,3.06,8.69,3.32,11.02c0.16,1.45-0.28,2.93-1.95,3.12
				c-1.41,0.16-2.26-0.68-2.42-2.05c-0.13-1.2,0.01-2.43-0.12-3.62c-0.05-0.43-0.23-0.88-0.77-0.82c-0.28,0.03-0.52,0.21-0.67,0.44
				c-0.55,0.88,0.29,4.47-0.57,5.72c-0.47,0.66-1.28,0.97-2.07,1.06c-1.43,0.16-2.41-0.23-2.58-1.79c-0.04-0.36-0.04-0.71-0.01-1.08
				c0.28-3.87,1.46-7.47,3.56-10.73c0.59-0.93,1.37-1.91,2.54-2.04C152.89,166.37,153.44,166.67,153.9,167.23z M152.65,172.18
				c-0.04-0.34-0.42-1.6-0.85-1.55c-0.28,0.03-0.73,1.81-0.69,2.11c0.03,0.3,0.41,0.32,0.64,0.3
				C152.16,172.99,152.71,172.67,152.65,172.18z"/>
			<path class="st5" d="M167.01,167.08c0.1,0.88-0.18,1.64-1.05,2.02c-0.6,0.26-1.37,0.31-2.01,0.44c-0.09,0.01-0.68,0.12-0.67,0.21
				c0.28,2.5,0.47,4.99,0.67,7.48c0.1,1.31-0.04,3.1-1.65,3.28c-1.88,0.21-2.34-1.38-2.52-2.95c-0.27-2.44-0.44-4.89-0.56-7.34
				c-1.51,0.02-3.5,0.46-3.74-1.66c-0.1-0.92-0.01-1.84,0.91-2.29c0.82-0.38,4.33-0.75,5.43-0.87
				C163.46,165.22,166.74,164.68,167.01,167.08z"/>
			<path class="st5" d="M176.12,177.23c0.14,1.28-0.54,1.79-1.73,1.93c-1.5,0.17-3.01,0.21-4.51,0.33
				c-0.88,0.06-1.58-0.17-1.69-1.15c-0.1-0.88,0.53-1.66,1.4-1.76l0.19-0.02c-0.26-2.85-0.51-5.7-0.83-8.55
				c-0.05-0.45-0.58-0.3-0.87-0.4c-0.49-0.14-0.84-1.14-0.89-1.59c-0.1-0.9,0.63-1.15,1.4-1.24c1.26-0.19,2.51-0.41,3.77-0.56
				c0.94-0.11,2.02,0.08,2.15,1.21c0.07,0.6-0.3,1.18-0.86,1.4c-0.13,0.04-0.25,0.05-0.35,0.15c-0.18,0.15-0.17,0.43-0.14,0.64
				c0.32,2.87,0.64,5.73,0.82,8.62C174.87,176.14,175.99,176.08,176.12,177.23z"/>
			<path class="st5" d="M185.81,164.55c0.28,2.52,0.2,5.24-0.06,7.76c-0.25,2.41-1.09,5.69-4,6.02c-1.07,0.12-2.22-0.29-2.96-1.1
				c-1.66-1.87-3.38-8.65-3.66-11.2c-0.12-1.05,0.6-2,1.65-2.11c0.43-0.05,0.85,0.04,1.22,0.27c1.42,0.86,2.18,5.28,2.84,6.92
				c0.03,0.06,0.16,0.42,0.28,0.4c0.15-0.02,0.21-0.65,0.22-0.74c0.16-1.43,0.33-2.83,0.47-4.25c0.12-1.4,0.46-3.47,2.21-3.67
				C185.17,162.72,185.69,163.5,185.81,164.55z"/>
			<path class="st5" d="M197.45,174.03c0.19,1.71-1.55,2.36-2.91,2.65c-1.12,0.25-2.27,0.45-3.42,0.58
				c-0.51,0.06-1.05,0.12-1.54-0.04c-1.15-0.37-1.56-1.69-1.78-2.75c-0.3-1.31-0.51-2.61-0.66-3.93c-0.21-1.86-0.32-3.78-0.2-5.63
				c0.13-2.31,2.53-2.58,4.34-2.78c1.05-0.12,3.45-0.5,4.23,0.48c0.33,0.4,0.47,0.88,0.52,1.37c0.14,1.28,0.16,1.97-1.3,2.14
				l-2.4,0.27c-0.64,0.07-0.78,0.37-0.71,0.97c0.03,0.26,0.12,0.72,0.47,0.68c0.6-0.07,1.21-0.22,1.81-0.29
				c1.26-0.14,1.55,0.52,1.68,1.65c0.26,2.31-3.76,1.4-3.6,2.85c0.04,0.36,0.15,0.39,0.47,0.36c0.9-0.1,1.79-0.29,2.69-0.39
				C196.73,172.03,197.26,172.39,197.45,174.03z"/>
			<path class="st5" d="M121.34,189.89c0.1,0.88-0.18,1.64-1.05,2.02c-0.6,0.26-1.37,0.31-2.01,0.44c-0.09,0.01-0.68,0.12-0.67,0.21
				c0.28,2.5,0.47,4.99,0.67,7.48c0.1,1.31-0.04,3.1-1.65,3.28c-1.88,0.21-2.34-1.38-2.52-2.94c-0.27-2.44-0.44-4.89-0.57-7.34
				c-1.51,0.02-3.5,0.46-3.74-1.66c-0.1-0.92-0.01-1.84,0.91-2.29c0.82-0.38,4.33-0.75,5.43-0.87
				C117.8,188.04,121.07,187.5,121.34,189.89z"/>
			<path class="st5" d="M132.29,187.08c0.41,0.56,0.77,4.12,0.87,5.01c0.25,2.25,0.4,4.53,0.46,6.77c0.02,1.53-0.23,2.58-1.96,2.78
				c-0.68,0.08-2.1,0.19-2.21-0.79c-0.13-1.15-0.15-2.32-0.28-3.46c-0.05-0.41-0.25-0.88-0.72-0.83c-0.53,0.06-1.27,0.29-1.26,0.94
				c-0.02,0.95,0.11,1.92,0.15,2.86c0.04,1.53-1.05,1.85-2.35,2c-0.34,0.04-0.69,0.03-0.97-0.15c-0.91-0.55-1.29-3.36-1.4-4.37
				c-0.22-1.95-0.42-3.89-0.63-5.84c-0.21-2.08-0.18-4.27,2.43-4.56c1.5-0.17,2.07,0.48,2.23,1.92c0.12,1.05,0.13,2.13,0.25,3.18
				c0.06,0.49,0.45,0.56,0.88,0.51c0.54-0.06,1.25-0.25,1.17-0.93c-0.05-0.47-0.15-0.94-0.2-1.41c-0.08-0.75-0.3-2.91,0.1-3.52
				c0.3-0.45,0.87-0.55,1.34-0.61C130.86,186.51,131.83,186.44,132.29,187.08z"/>
			<path class="st5" d="M146.02,192.02c0.41,3.62-1.47,8.16-5.51,8.61c-3.68,0.41-6.05-3.18-6.42-6.43
				c-0.4-3.55,1.47-8.16,5.47-8.61C143.26,185.18,145.65,188.74,146.02,192.02z M141.57,192.88c-0.09-0.81-0.5-2.67-1.63-2.55
				c-1.16,0.13-1.42,2.37-1.32,3.27c0.1,0.9,0.4,2.01,1.53,1.88C141.39,195.35,141.68,193.89,141.57,192.88z"/>
			<path class="st5" d="M156.15,184.94c0.87,1.03,1.06,2.72,1.21,4.02c0.36,3.23,0.5,8.65-3.34,9.97c-0.25,0.09-0.55,0.15-0.82,0.18
				c-1.41,0.16-2.84-0.42-3.88-1.36c-2.05-1.85-2.71-4.85-3.01-7.5c-0.1-0.9-0.16-1.8-0.22-2.7c-0.12-1.42,0.31-2.83,1.96-3.02
				c0.66-0.07,1.38,0.15,1.85,0.62c1.58,1.53,0.68,4.69,1.7,6.46c0.13,0.22,0.31,0.46,0.59,0.43c0.56-0.06,0.59-0.74,0.54-1.14
				c-0.11-1.01-0.25-1.99-0.36-2.99c-0.18-1.39-0.24-3.68,1.66-3.89C154.82,183.92,155.62,184.33,156.15,184.94z"/>
			<path class="st5" d="M169,191.4c0.34,2.99-1.71,6.21-4.81,6.56c-3.55,0.4-5.7-3.5-6.04-6.53c-0.38-3.36,1.2-8.04,5.05-8.47
				c1.33-0.15,3.69,0.47,3.87,2.06c0.1,0.92-0.6,2.95-1.67,3.07c-0.62,0.07-1.16-0.3-1.78-0.23c-1.56,0.18-2.17,2.11-2.02,3.45
				c0.13,1.18,1.04,2.35,2.35,2.21c0.77-0.09,1.08-0.6,0.99-1.37c-0.1-0.86-1.45,0.57-1.67-1.35c-0.05-0.47,0.02-1,0.42-1.3
				c0.63-0.55,1.72-0.84,2.54-0.93C168.14,188.34,168.82,189.74,169,191.4z"/>
			<path class="st5" d="M179.49,181.78c0.41,0.56,0.77,4.12,0.87,5.01c0.25,2.25,0.4,4.53,0.46,6.77c0.02,1.54-0.23,2.58-1.96,2.78
				c-0.68,0.08-2.1,0.19-2.21-0.79c-0.13-1.15-0.15-2.32-0.28-3.46c-0.04-0.41-0.25-0.88-0.72-0.83c-0.54,0.06-1.27,0.3-1.26,0.94
				c-0.02,0.95,0.11,1.92,0.15,2.86c0.04,1.53-1.05,1.85-2.35,2c-0.34,0.04-0.69,0.04-0.97-0.15c-0.91-0.55-1.29-3.36-1.4-4.37
				c-0.22-1.95-0.42-3.89-0.63-5.84c-0.21-2.08-0.18-4.27,2.43-4.56c1.5-0.17,2.07,0.48,2.23,1.92c0.12,1.05,0.13,2.13,0.25,3.18
				c0.06,0.49,0.45,0.56,0.88,0.51c0.54-0.06,1.25-0.25,1.17-0.93c-0.05-0.47-0.15-0.94-0.2-1.41c-0.09-0.75-0.31-2.91,0.1-3.52
				c0.3-0.44,0.87-0.55,1.34-0.6C178.06,181.2,179.03,181.14,179.49,181.78z"/>
			<path class="st5" d="M191.9,181.97c0.1,0.88-0.18,1.64-1.05,2.02c-0.6,0.26-1.37,0.31-2.01,0.44c-0.09,0.01-0.68,0.12-0.67,0.2
				c0.28,2.5,0.47,4.99,0.67,7.48c0.1,1.31-0.04,3.1-1.65,3.28c-1.88,0.21-2.34-1.38-2.52-2.94c-0.27-2.44-0.44-4.89-0.56-7.34
				c-1.51,0.02-3.5,0.46-3.74-1.66c-0.1-0.92-0.01-1.84,0.91-2.29c0.82-0.38,4.33-0.75,5.43-0.87
				C188.36,180.11,191.64,179.57,191.9,181.97z"/>
			<path class="st5" d="M197.14,184.37c0.11,1.01,4.4,1.56,4.84,5.5c0.29,2.61-1.96,4.16-4.31,4.43c-1.71,0.19-4.48-0.51-4.71-2.57
				c-0.12-1.03,0.53-2.05,1.6-2.17c0.96-0.11,1.56,0.63,2.42,0.53c0.34-0.04,0.84-0.25,0.79-0.67c-0.15-1.35-4.65-1.49-5.08-5.3
				c-0.29-2.61,1.86-4.8,4.37-5.08c1.73-0.2,4.35,0.51,4.58,2.56c0.12,1.09-0.43,2.3-1.66,2.44c-0.94,0.11-1.57-0.65-2.06-0.59
				C197.43,183.49,197.08,183.83,197.14,184.37z"/>
		</g>
		<g>
			<path class="st0" d="M110.58,166.97c0.93,0.32,1.2,0.75,1.83,2.11c0.45-1.93,0.62-2.14,2.42-2.97c-1.93-0.45-2.14-0.62-2.97-2.42
				c-0.45,1.93-0.62,2.14-2.42,2.97C109.91,166.77,110.28,166.87,110.58,166.97z"/>
		</g>
		<path class="st0" d="M177.29,146.18c-0.66-0.09-1.22,0.17-1.52,0.76c-0.07,0.13-0.11,0.35-0.18,0.39
			c-0.12,0.07-0.28-0.12-0.48-0.2c-0.59-0.26-1.18-0.2-1.64,0.24c-0.44,0.43-0.53,1.03-0.34,1.63c0.17,0.55,0.55,0.92,1.01,1.23
			c0.78,0.52,1.65,0.84,2.52,1.19c0.11,0.05,0.28,0.1,0.35,0.06c0.06-0.03,0.1-0.1,0.16-0.2c0.43-0.75,0.89-1.49,1.21-2.3
			c0.21-0.55,0.36-1.11,0.16-1.7C178.32,146.67,177.84,146.24,177.29,146.18z"/>
		<g>
			<path class="st0" d="M185.35,201.75c0.92,0.34,1.18,0.78,1.78,2.15c0.49-1.92,0.67-2.12,2.48-2.92
				c-1.92-0.49-2.12-0.67-2.92-2.48c-0.49,1.92-0.67,2.12-2.48,2.92C184.68,201.54,185.05,201.64,185.35,201.75z"/>
		</g>
		<path class="st0" d="M153.84,209.53c-0.57-0.34-1.19-0.31-1.7,0.11c-0.12,0.1-0.24,0.28-0.32,0.29c-0.13,0.02-0.21-0.21-0.36-0.37
			c-0.44-0.47-1.01-0.64-1.6-0.41c-0.57,0.22-0.89,0.75-0.95,1.37c-0.06,0.57,0.15,1.06,0.45,1.53c0.52,0.78,1.2,1.42,1.86,2.07
			c0.09,0.09,0.22,0.2,0.3,0.19c0.06-0.01,0.14-0.05,0.23-0.13c0.69-0.53,1.4-1.02,2.01-1.66c0.41-0.42,0.76-0.88,0.8-1.5
			C154.6,210.38,154.32,209.8,153.84,209.53z"/>
	</g>
	<g>
		<path class="st6" d="M182.84,154.85c1.83,0.76,2,0.97,2.53,2.87c0.76-1.83,0.97-2,2.87-2.53c-1.83-0.76-2-0.97-2.53-2.87
			C184.95,154.15,184.75,154.33,182.84,154.85z"/>
		<path class="st6" d="M136.82,209c1.96,0.3,2.18,0.45,3.14,2.18c0.3-1.96,0.45-2.18,2.18-3.14c-1.96-0.3-2.18-0.45-3.14-2.18
			C138.7,207.82,138.54,208.03,136.82,209z"/>
	</g>
</g>
</svg>
