<?xml version="1.0" encoding="utf-8"?>
<!-- Generator: Adobe Illustrator 28.0.0, SVG Export Plug-In . SVG Version: 6.00 Build 0)  -->
<svg version="1.1" id="Layer_1" xmlns="http://www.w3.org/2000/svg" xmlns:xlink="http://www.w3.org/1999/xlink" x="0px" y="0px"
	 viewBox="0 0 300 300" style="enable-background:new 0 0 300 300;" xml:space="preserve">
<style type="text/css">
	.st0{fill:#FCF1E1;}
	.st1{fill:#4A4A4A;}
	.st2{fill:#FFFFFF;}
	.st3{fill:#F1BF86;}
	.st4{fill:#010101;}
	.st5{fill:#F5C2CB;}
	.st6{fill:#95A7C8;}
</style>
<g>
	<path class="st0" d="M244.52,69.56H60.2c-25.24,0-45.7,20.46-45.7,45.7v74.08c0,25.24,19.23,44.47,44.47,44.47h184.32
		c25.24,0,45.7-20.46,45.7-45.7l1.23-72.85C290.22,90.02,269.76,69.56,244.52,69.56z M63.72,91.59c-3.82,0-6.91-3.1-6.91-6.91
		s3.1-6.91,6.91-6.91c3.82,0,6.91,3.1,6.91,6.91S67.53,91.59,63.72,91.59z M99.05,91.59c-3.82,0-6.91-3.1-6.91-6.91
		s3.1-6.91,6.91-6.91c3.82,0,6.91,3.1,6.91,6.91S102.87,91.59,99.05,91.59z M134.39,91.59c-3.82,0-6.91-3.1-6.91-6.91
		s3.1-6.91,6.91-6.91c3.82,0,6.91,3.1,6.91,6.91S138.21,91.59,134.39,91.59z M169.73,91.59c-3.82,0-6.91-3.1-6.91-6.91
		s3.1-6.91,6.91-6.91s6.91,3.1,6.91,6.91S173.55,91.59,169.73,91.59z M205.07,91.59c-3.82,0-6.91-3.1-6.91-6.91s3.1-6.91,6.91-6.91
		c3.82,0,6.91,3.1,6.91,6.91S208.89,91.59,205.07,91.59z M240.41,91.59c-3.82,0-6.91-3.1-6.91-6.91s3.1-6.91,6.91-6.91
		c3.82,0,6.91,3.1,6.91,6.91S244.23,91.59,240.41,91.59z"/>
	<g>
		<path class="st1" d="M76.78,126.43c-0.27,1.71-0.4,3.45-0.38,5.19c0.01,0.68,0.02,1.4-0.33,1.98c-0.34,0.56-0.99,0.89-1.65,0.98
			c-0.99,0.13-2.57-0.1-3.06-1.1c-0.21-0.43-0.26-0.92-0.3-1.4c-0.31-3.56-0.46-7.21,0.58-10.63c0.33-1.08,0.79-2.15,1.6-2.94
			c0.81-0.79,2.02-1.23,3.1-0.89c0.84,0.27,1.47,0.97,1.88,1.75c0.41,0.78,0.63,1.64,0.89,2.47c0.38,1.22,0.86,2.41,1.35,3.59
			c0.15-1.85,0.14-3.7-0.02-5.55c-0.06-0.68-0.1-1.46,0.4-1.92c0.36-0.33,0.88-0.37,1.36-0.41c0.73-0.05,1.54-0.07,2.09,0.42
			c0.52,0.47,0.6,1.25,0.64,1.95c0.06,1.14,0.1,2.28,0.13,3.42c0.08,2.46,0.16,4.94-0.33,7.34c-0.15,0.77-0.37,1.54-0.8,2.19
			c-0.43,0.65-1.1,1.18-1.88,1.28c-0.89,0.12-1.77-0.34-2.41-0.96c-0.89-0.86-1.43-2.02-1.81-3.2
			C77.44,128.81,77.2,127.59,76.78,126.43z"/>
		<path class="st1" d="M100.74,124.85c0.01,0.46-0.01,0.93-0.05,1.38c-0.16,1.81-0.68,3.63-1.74,5.11c-1.06,1.48-2.69,2.6-4.5,2.8
			c-5.63,0.62-7.37-6.71-6.22-10.91c0.46-1.67,1.35-3.26,2.69-4.36c1.34-1.1,3.16-1.66,4.86-1.31c1.78,0.37,3.26,1.72,4.07,3.34
			C100.45,122.13,100.72,123.49,100.74,124.85z M94.93,124.47c0-0.33-0.02-0.65-0.08-0.97c-0.05-0.3-0.13-0.59-0.3-0.84
			c-0.16-0.25-0.42-0.45-0.72-0.49c-0.28-0.03-0.56,0.08-0.77,0.26c-0.21,0.18-0.36,0.43-0.47,0.69c-0.31,0.7-0.36,1.51-0.16,2.24
			c0.16,0.6,0.57,1.37,1.31,1.26c0.35-0.05,0.66-0.3,0.84-0.61c0.19-0.31,0.27-0.67,0.31-1.02
			C94.92,124.82,94.93,124.64,94.93,124.47z"/>
		<path class="st1" d="M106.08,129.66c-0.01-2.11,0.08-4.21,0.23-6.31c0.07-0.89-1.5-0.58-2.08-0.66c-0.58-0.08-1.17-0.3-1.52-0.77
			c-0.26-0.35-0.36-0.8-0.41-1.23c-0.12-0.96-0.06-2.04,0.58-2.77c0.77-0.89,2.09-0.99,3.26-1.03c2.15-0.07,4.31-0.13,6.45,0.11
			c1.62,0.19,2.66,0.54,2.73,2.33c0.02,0.6-0.06,1.18-0.23,1.76c-0.25,0.88-0.83,1.37-1.73,1.49c-0.69,0.1-1.39,0.11-2.08,0.11
			c-0.36,0-0.51,0.07-0.47,0.49c0.24,2.96,0.15,5.99,0.23,8.96c0.01,0.46,0.02,0.96-0.25,1.34c-0.2,0.29-0.52,0.47-0.85,0.6
			c-0.56,0.23-1.16,0.35-1.76,0.36c-0.66,0.01-1.39-0.16-1.76-0.71c-0.24-0.36-0.27-0.82-0.28-1.25
			C106.1,131.54,106.08,130.6,106.08,129.66z"/>
		<path class="st1" d="M121.92,134.1c-1.1,0.04-3.01,0.14-3.54-0.97c-0.13-0.28-0.18-0.6-0.22-0.91c-0.52-3.93-0.65-7.91-0.48-11.88
			c0.04-0.84,0.13-1.77,0.77-2.32c0.4-0.34,0.94-0.46,1.46-0.53c1.83-0.27,3.75-0.19,5.47,0.51c0.82,0.33,1.69,0.95,1.72,1.83
			c0.02,0.49-0.23,0.96-0.59,1.3c-0.36,0.34-0.81,0.55-1.26,0.73c-0.73,0.28-1.5,0.47-2.28,0.55c-0.16,0.02-0.35,0.05-0.42,0.2
			c-0.03,0.07-0.02,0.15-0.01,0.22c0.05,0.46,0.09,0.92,0.14,1.38c0.01,0.08,0.02,0.16,0.06,0.22c0.1,0.15,0.33,0.14,0.51,0.12
			c0.71-0.09,1.43-0.01,2.11,0.22c0.51,0.17,1.06,0.53,1.09,1.06c0.02,0.39-0.25,0.75-0.56,0.99c-0.71,0.55-1.64,0.72-2.53,0.83
			c-0.16,0.02-0.34,0.05-0.44,0.18c-0.08,0.1-0.08,0.23-0.09,0.36c-0.02,0.64-0.04,1.28-0.06,1.91c0,0.15,0.01,0.33,0.14,0.41
			c0.08,0.05,0.19,0.03,0.28,0.02c1.03-0.14,2.08-0.1,3.09,0.14c0.44,0.1,0.88,0.25,1.2,0.56c0.32,0.31,0.48,0.83,0.26,1.22
			c-0.12,0.21-0.32,0.36-0.53,0.48c-1.51,0.91-3.35,1.1-5.11,1.16C122.04,134.1,121.98,134.1,121.92,134.1z"/>
		<path class="st1" d="M141.6,129.66c-0.01-2.11,0.08-4.21,0.23-6.31c0.07-0.89-1.5-0.58-2.08-0.66c-0.58-0.08-1.17-0.3-1.52-0.77
			c-0.26-0.35-0.36-0.8-0.41-1.23c-0.12-0.96-0.06-2.04,0.58-2.77c0.77-0.89,2.09-0.99,3.26-1.03c2.15-0.07,4.31-0.13,6.45,0.11
			c1.62,0.19,2.66,0.54,2.73,2.33c0.02,0.6-0.06,1.18-0.23,1.76c-0.25,0.88-0.83,1.37-1.73,1.49c-0.69,0.1-1.39,0.11-2.08,0.11
			c-0.36,0-0.51,0.07-0.47,0.49c0.24,2.96,0.15,5.99,0.23,8.96c0.01,0.46,0.02,0.96-0.25,1.34c-0.2,0.29-0.52,0.47-0.85,0.6
			c-0.56,0.23-1.16,0.35-1.76,0.36c-0.66,0.01-1.39-0.16-1.76-0.71c-0.24-0.36-0.27-0.82-0.28-1.25
			C141.62,131.54,141.6,130.6,141.6,129.66z"/>
		<path class="st1" d="M165.21,124.85c0.01,0.46-0.01,0.93-0.05,1.38c-0.16,1.81-0.68,3.63-1.74,5.11c-1.06,1.48-2.69,2.6-4.5,2.8
			c-5.63,0.62-7.37-6.71-6.22-10.91c0.46-1.67,1.35-3.26,2.69-4.36c1.34-1.1,3.16-1.66,4.86-1.31c1.78,0.37,3.26,1.72,4.07,3.34
			C164.92,122.13,165.18,123.49,165.21,124.85z M159.4,124.47c0-0.33-0.02-0.65-0.08-0.97c-0.05-0.3-0.13-0.59-0.3-0.84
			c-0.16-0.25-0.42-0.45-0.72-0.49c-0.28-0.03-0.56,0.08-0.77,0.26s-0.36,0.43-0.47,0.69c-0.31,0.7-0.36,1.51-0.16,2.24
			c0.16,0.6,0.57,1.37,1.31,1.26c0.35-0.05,0.66-0.3,0.84-0.61c0.19-0.31,0.27-0.67,0.31-1.02
			C159.39,124.82,159.4,124.64,159.4,124.47z"/>
		<path class="st1" d="M183.38,116.93c0.41,0.03,0.83,0.11,1.23,0.22c0.98,0.28,1.96,0.86,2.32,1.82c0.36,0.96-0.25,2.26-1.27,2.3
			c-0.41,0.01-0.8-0.16-1.21-0.21c-0.41-0.04-0.9,0.13-0.98,0.53c-0.07,0.33,0.17,0.63,0.42,0.85c0.74,0.64,1.69,0.99,2.44,1.63
			c1,0.86,1.53,2.21,1.52,3.53c-0.01,1.32-0.54,2.61-1.34,3.66c-2.31,3-9.12,4.7-10.7,0.04c-0.34-0.99-0.21-2.16,0.45-2.98
			c0.66-0.81,1.87-1.18,2.82-0.74c0.66,0.3,1.24,0.96,1.96,0.85c0.83-0.13,1.13-1.29,0.75-2.04c-0.38-0.76-1.16-1.21-1.85-1.68
			c-1.18-0.8-2.3-1.9-2.46-3.31c-0.19-1.75,1.23-3.33,2.86-3.99C181.3,117,182.35,116.85,183.38,116.93z"/>
		<path class="st1" d="M194.92,134.1c-1.1,0.04-3.01,0.14-3.54-0.97c-0.13-0.28-0.18-0.6-0.22-0.91c-0.52-3.93-0.65-7.91-0.48-11.88
			c0.04-0.84,0.13-1.77,0.77-2.32c0.4-0.34,0.94-0.46,1.46-0.53c1.83-0.27,3.75-0.19,5.47,0.51c0.82,0.33,1.69,0.95,1.72,1.83
			c0.02,0.49-0.23,0.96-0.59,1.3c-0.36,0.34-0.81,0.55-1.26,0.73c-0.73,0.28-1.5,0.47-2.28,0.55c-0.16,0.02-0.35,0.05-0.42,0.2
			c-0.03,0.07-0.02,0.15-0.01,0.22c0.05,0.46,0.09,0.92,0.14,1.38c0.01,0.08,0.02,0.16,0.06,0.22c0.1,0.15,0.33,0.14,0.51,0.12
			c0.71-0.09,1.43-0.01,2.11,0.22c0.51,0.17,1.06,0.53,1.09,1.06c0.02,0.39-0.25,0.75-0.56,0.99c-0.71,0.55-1.64,0.72-2.53,0.83
			c-0.16,0.02-0.34,0.05-0.44,0.18c-0.08,0.1-0.08,0.23-0.09,0.36c-0.02,0.64-0.04,1.28-0.06,1.91c0,0.15,0.01,0.33,0.14,0.41
			c0.08,0.05,0.19,0.03,0.28,0.02c1.03-0.14,2.08-0.1,3.09,0.14c0.44,0.1,0.88,0.25,1.2,0.56s0.48,0.83,0.26,1.22
			c-0.12,0.21-0.32,0.36-0.53,0.48c-1.51,0.91-3.35,1.1-5.11,1.16C195.04,134.1,194.98,134.1,194.92,134.1z"/>
		<path class="st1" d="M203.26,127.02c0-1.35,0.04-2.71,0.11-4.06c0.06-1.2,0.13-2.39,0.33-3.58c0.11-0.67,0.3-1.39,0.84-1.8
			c0.48-0.36,1.13-0.39,1.72-0.33c0.4,0.04,0.81,0.11,1.14,0.35c0.57,0.41,0.74,1.18,0.81,1.88c0.13,1.14,0.14,2.3,0.14,3.45
			c0,2.43-0.04,4.34-0.14,6.77c-0.01,0.15-0.01,0.31,0.09,0.41c0.12,0.13,0.33,0.12,0.51,0.11c0.7-0.07,1.41-0.1,2.09,0.08
			c0.68,0.18,1.58,0.79,1.87,1.43c0.17,0.38,0.2,0.83,0,1.19c-0.27,0.49-1.14,1.02-1.68,1.14c-1.6,0.35-3.24,0.54-4.87,0.43
			c-0.7-0.05-1.44-0.17-1.99-0.62c-0.59-0.48-0.69-1.28-0.75-1.99C203.32,130.27,203.26,128.65,203.26,127.02z"/>
		<path class="st1" d="M214.8,122.55c0.01-0.87,0.03-1.75,0.06-2.62c0.03-0.86,0.09-1.8,0.68-2.43c0.66-0.71,1.75-0.77,2.71-0.75
			c1.79,0.04,3.64,0.2,5.23,1.03c0.67,0.35,1.31,0.86,1.49,1.59c0.19,0.79-0.26,1.64-0.93,2.11c-0.67,0.47-1.51,0.62-2.33,0.65
			c-0.48,0.02-0.98,0-1.41,0.21c-0.43,0.21-0.74,0.76-0.51,1.18c0.25,0.47,0.91,0.46,1.45,0.51c0.45,0.04,0.9,0.17,1.3,0.38
			c0.38,0.2,0.75,0.52,0.81,0.95c0.08,0.56-0.39,1.05-0.88,1.34c-0.59,0.35-1.26,0.56-1.95,0.6c-0.15,0.01-0.31,0.02-0.42,0.12
			c-0.12,0.12-0.13,0.31-0.12,0.47c0.03,1.35-0.02,2.7-0.14,4.04c-0.05,0.52-0.12,1.07-0.45,1.48c-0.35,0.43-0.93,0.62-1.49,0.61
			c-0.65-0.01-1.48-0.21-1.95-0.68c-0.42-0.42-0.55-1.08-0.63-1.65C214.88,128.68,214.77,125.61,214.8,122.55z"/>
		<path class="st1" d="M227.06,124.04c0-1.31,0.82-2.17,2.07-2.17c1.34,0,2.25,0.87,2.25,2.16c0,1.21-0.87,2.04-2.15,2.04
			C227.96,126.07,227.06,125.23,227.06,124.04z M231.81,130.5c0,1.44-0.87,2.4-2.18,2.4c-1.29,0-2.31-1.08-2.3-2.44
			c0.01-1.37,0.72-2.22,1.85-2.22C230.9,128.23,231.81,129.02,231.81,130.5z"/>
	</g>
	<g>
		<path class="st1" d="M86.98,169.33c-1.23,0.02-1.81-0.29-2.26-0.74c-0.54-0.54-1.03-0.34-1.42-0.12c-0.37,0.2-0.83,0.88-0.29,1.54
			c0.54,0.66,1.4,1.69,3.7,1.74c6.64,0.15,6.3-12.72,6.4-14.66c0.1-2.11-0.86-1.84-1.59-1.76c-0.76,0.05-1.05,0.61-1.37,2.94
			c-0.37,2.62-2.04,5.39-3.53,5.27c-1.76-0.12-0.81-5.44-0.74-6.84c0.07-1.2,0.07-1.59-1.13-1.77c-1.2-0.17-1.3,0.86-1.37,1.32
			c-0.69,4.56-0.76,8.95,2.58,9.59c3.21,0.61,4.27-2.43,4.27-2.43S89.61,169.28,86.98,169.33z"/>
		<path class="st1" d="M106.11,171.04c1.64,0,2.87-0.93,3.78-2.11c0.34,1.1,1.03,1.91,2.23,1.91c3.92,0,5.1-4.34,6.01-6.54
			c0.32-0.86-1.72-1.89-2.28-0.52c-0.81,2.04-1.86,4.61-3.21,4.61c-1.08,0-0.15-5.05,0-6.23c0.15-1.03-0.42-1.4-1.27-1.45
			c-0.81-0.05-1.23,0.93-1.35,1.35c-0.02,0.15-0.27,1.27-0.39,2.7c-1,1.96-2.08,3.77-2.99,3.77c-1.28,0-0.17-5.25,0.12-6.28
			c0.27-1.03-0.59-1.37-1.5-1.37c-0.88,0-1.2,0.98-1.2,0.98c-0.05,0.13-0.31,1.09-0.5,2.35c-0.06,0.07-0.12,0.14-0.19,0.2
			c-0.22,0.22-0.96,0.76-1.45,0.83c-0.12-3.63-2.26-4.98-3.78-4.98c-0.91,0-2.08,0.42-2.67,1.59c-0.66,0.64-1.62,1.96-1.62,4.14
			c0,3.21,1.55,4.95,3.34,5.03c2.28,0.1,3.75-1.52,4.36-3.48c0.72-0.23,1.31-0.5,1.8-0.78
			C103.36,168.96,103.94,171.04,106.11,171.04z M97.48,168.74c-0.86-0.17-1.37-1.08-1.37-2.33c0-0.05,0-0.07,0-0.12
			c0.76,0.78,1.81,1.23,2.84,1.4C98.61,168.52,98.04,168.84,97.48,168.74z M97.21,163.69c0-0.66,0.22-1.13,0.78-1.15
			c0.96-0.05,1.32,1.32,1.32,2.97C97.53,165.21,97.21,164.25,97.21,163.69z"/>
		<path class="st1" d="M158.54,164.47c0.22-0.61-1.59-1.5-2.08-0.59c-1.5,3.33-3.14,4.95-5.2,4.95c-0.88,0-1.62-0.42-1.84-1.47
			c2.48-0.02,4.58-1.4,4.58-3.83c0-1.57-1.42-2.77-2.84-2.77c-2.79,0-4,2.13-4.24,4.68c-1.01,1.78-2.21,3.56-2.92,3.56
			c-1.69,0-0.32-3.09,0.07-5c0.34-1.74-0.54-1.62-2.89-1.54c-0.22,0.02-0.42,0.02-0.61,0c0.37-0.64,0.66-1.42,0.66-2.23
			c0-2.03-1.47-2.92-2.65-2.92c-1.18,0-2.84,1.2-2.84,3.04c0,1.87,0.84,3.03,1.94,3.7c-0.91,1.98-2.24,4.54-3.52,4.54
			c-1.01,0-0.29-5.49-0.02-6.5c0.25-1-0.37-1.15-1.42-1.15c-0.81,0-1.08,0.91-1.2,1.35c-0.02,0.02-0.02,0.07-0.05,0.15
			c-0.56-0.81-1.5-1.35-2.89-1.35c-3.06,0-4.14,3.19-4.14,5.79c0,2.55,1.3,4.04,3.19,4.04c1.47,0,2.6-0.51,3.65-2.45
			c0.32,1.45,1.05,2.57,2.62,2.57c3.42,0,5.25-3.88,5.99-6.24c0.78,0.12,1.29,0.06,1.29,0.06s0.02,0.02-0.15,0.86
			c-0.27,1.1-1.23,5.62,2.35,5.62c1.78,0,3.08-1.16,4.02-2.52c0.65,1.35,1.87,2.23,3.39,2.23
			C156.04,171.04,157.56,167.07,158.54,164.47z M127.79,168.69c-1.99,0-1.25-5.4,0.98-5.4c0.56,0,1.64,0.54,1.54,1.89
			C130.24,166.26,129.11,168.69,127.79,168.69z M138.46,159.45c0.39,0,0.56,0.42,0.47,1c-0.05,0.47-0.2,0.83-0.44,1.37
			c-0.34-0.22-0.59-0.81-0.61-1.32C137.87,159.96,138.06,159.45,138.46,159.45z M150.74,162.95c0.47-0.25,1.03,0.17,0.98,0.69
			c-0.1,1.2-1.37,1.37-2.21,1.35C149.81,163.66,150.42,163.1,150.74,162.95z"/>
		<path class="st1" d="M190,160.75c0.61,0,1.13-0.51,1.13-1.13c0-0.61-0.51-1.13-1.13-1.13c-0.61,0-1.13,0.51-1.13,1.13
			C188.87,160.23,189.39,160.75,190,160.75z"/>
		<path class="st1" d="M195.03,168.54c-0.01,0.25-0.02,0.49-0.03,0.69c-0.02,1.23-0.29,1.81,1.03,1.81c0.96,0,1.27-0.44,1.42-0.96
			c0.96-3.11,2.26-6.13,3.16-6.13c1.79,0-1.37,6.94,2.94,6.94c1.49,0,2.77-0.89,3.81-2.07c0.4,1.45,1.32,2.36,2.93,2.36
			c1.57,0,3.43-1.5,4.27-3.33c-0.02,0.59-0.05,1.15-0.1,1.69c-2.92,2.8-5.15,4.88-5.15,7.82c0,2.28,1.42,3.02,2.43,3.02
			c3.09,0,4.46-5.08,5-9.83c1.59-1.47,3.33-3.24,4.98-5.89c0.54-0.86-1.64-1.25-2.06-0.66c-0.88,1.1-1.76,2.08-2.62,2.97
			c0.12-2.26,0.07-4.04,0.02-4.51c-0.2-1.57-0.88-1.28-1.76-1.1c-0.86,0.2-0.76,0.69-0.74,1.25c0,0.17,0.02,0.47,0.02,0.78
			c-0.49-1.03-1.35-2.08-2.77-2.08c-2.4,0-3.71,1.53-4.29,3.29c-0.94,1.62-2.41,3.85-3.26,3.85c-0.86,0-0.61-1.81-0.47-2.82
			c0.2-1.59,0.12-4.41-2.6-4.41c-1.45,0-2.5,1.1-3.29,2.53c0.05-0.69,0.07-1.27,0.05-1.59c-0.07-1.27-1.4-1.2-1.96-0.91
			c-0.37,0.18-0.56,1.3-0.66,2.31c-0.71,1.95-3.01,5.12-3.98,5.12c-1.3,0-0.61-4.81-0.61-4.81c0-0.42,0.61-2.11-0.83-2.03
			c-1.45,0.05-1.59,1.18-1.59,1.18c-0.06,0.15-0.13,0.46-0.2,0.86c-0.16,0.19-0.33,0.38-0.51,0.57c-0.22,0.22-0.96,0.76-1.45,0.83
			c-0.12-3.63-2.26-4.98-3.78-4.98c-0.91,0-2.08,0.42-2.67,1.59c-0.56,0.53-1.31,1.56-1.54,3.16c-0.89,2.05-2.54,3.53-3.36,3.53
			c-0.83,0-1.03-0.61-1.05-3.41c1.42-1.84,3.83-5.42,3.85-8.73c0.02-3.16-2.16-3.31-2.16-3.31c-2.97,0-3.8,5.61-3.97,8.9
			c-0.44-0.56-1.05-0.98-1.91-0.98c-3.51,0-4.32,3.65-4.32,5.76c0,1.59,0.42,3.95,3.07,3.95c1.37,0,2.65-1.03,3.46-2.43
			c0.37,1.54,1.15,2.72,2.84,2.72c1.67,0,3.01-0.94,4.01-2.19c0.6,1.39,1.65,2.14,2.81,2.19c2.28,0.1,3.75-1.52,4.36-3.48
			c0.91-0.28,1.6-0.64,2.15-0.99c0.08,2.16,0.77,4.47,3.17,4.47C192.61,171.04,193.95,169.94,195.03,168.54z M212.04,177.96
			c-0.25,0-0.42-0.2-0.42-0.76c0.34-1.69,1.2-2.92,2.4-4.12C213.34,176.78,212.34,177.96,212.04,177.96z M211.53,163.69
			c1.13,0,1.47,1.37,1.55,2.18c-0.15,0.37-1.23,2.99-2.5,2.99c-1.1,0-0.98-1.91-0.93-2.38
			C209.81,165.33,210.08,163.69,211.53,163.69z M175.11,155.87c0.25,0,0.88,0.88-1.32,5.12
			C173.96,157.39,174.72,155.87,175.11,155.87z M168.49,168.42c-1.59,0-1.01-4.9,0.83-4.9c0.98,0,1.2,1.86,1.2,1.86
			C170.53,166.8,169.3,168.42,168.49,168.42z M181.74,168.74c-0.86-0.17-1.37-1.08-1.37-2.33c0-0.05,0-0.07,0-0.12
			c0.76,0.78,1.81,1.23,2.84,1.4C182.86,168.52,182.3,168.84,181.74,168.74z M181.47,163.69c0-0.66,0.22-1.13,0.78-1.15
			c0.96-0.05,1.32,1.32,1.32,2.97C181.78,165.21,181.47,164.25,181.47,163.69z"/>
		<path class="st1" d="M99.88,186.35c-1.5,3.33-3.14,4.95-5.2,4.95c-0.88,0-1.62-0.42-1.84-1.47c2.48-0.02,4.58-1.4,4.58-3.82
			c0-1.57-1.42-2.77-2.84-2.77c-2.33,0-3.56,1.49-4.04,3.47c-0.69,1.58-2.1,4.52-3.29,4.52c-1.1,0,1.86-7.04-2.6-7.04
			c-1.86,0-3.41,1.94-4.39,3.58c0.12-1.54,0.27-3.04,0.49-4.39c2.33-0.02,4-0.88,4.73-3.65c0.44-1.64-0.44-3.97-2.94-3.97
			c-2.06,0-3.24,2.18-3.9,4.98c-1.2-0.25-2.53-0.59-3.83-0.88c0.15-0.86,0.27-1.4,0.27-1.4c0-0.42,0.49-1.74-0.86-1.79
			c-1.45-0.07-1.4,1.18-1.4,1.18c-0.12,0.51-0.22,1.03-0.34,1.57c-1.62-0.22-3.07-0.15-3.97,0.66c-0.66,0.56-0.05,2.4,0.88,2.06
			c0.91-0.32,1.77-0.37,2.65-0.29c-0.96,5.79-1.15,11.62,2.53,11.62c1.35,0,2.48-0.71,3.36-1.67c0.02,0.66,0.05,1.03,0.05,1.03
			c0.05,0.51,0.49,0.61,1.3,0.61c0.25,0,0.42-0.07,0.56-0.22c0.02,0,0.05-0.02,0.07-0.07c2.62-5.13,3.53-6.2,4.39-6.2
			c0.59,0,0.49,0.96,0.39,2.11c-0.1,0.83-0.59,4.46,2.26,4.46c1,0,2.13-0.61,2.84-1.35c0.31-0.33,0.61-0.69,0.92-1.11
			c0.62,1.48,1.88,2.46,3.49,2.46c5.25,0,6.77-3.97,7.75-6.57C102.19,186.33,100.37,185.44,99.88,186.35z M94.17,185.42
			c0.47-0.25,1.03,0.17,0.98,0.69c-0.1,1.2-1.37,1.37-2.21,1.35C93.24,186.13,93.85,185.57,94.17,185.42z M82.3,178.41
			c0.61-0.22,1.32,0.44,0.47,1.72c-0.32,0.49-0.86,0.74-1.54,0.81C81.54,179.51,81.93,178.55,82.3,178.41z M77.89,187.65
			c-0.76,1.45-1.74,3.51-2.99,3.51c-1.57,0-1.08-5.15-0.49-8.88c1.01,0.25,2.04,0.54,3.16,0.76c0.22,0.02,0.44,0.07,0.66,0.1
			C78.01,184.66,77.94,186.23,77.89,187.65z"/>
		<path class="st1" d="M145.44,186.35c-0.71,1.45-2.55,4.88-3.78,4.88c-1.47,0-1.2-4.46-0.76-8.12h0.02
			c1.15,0.02,1.59,0.1,2.03-0.64c0.44-0.71,0.07-1.47-0.29-1.62c-0.51-0.17-0.69-0.15-1.42-0.15c0.2-1.32,0.37-2.21,0.37-2.21
			c0-0.39,0.47-1.91-0.81-1.86c-1.45,0.05-1.47,1.25-1.47,1.25c-0.17,0.88-0.37,1.79-0.51,2.72c-0.81-0.05-1.18-0.07-1.72,0.05
			c-0.74,0.17-0.78,1.13-0.78,1.13c-0.1,1.37,0.69,1.5,1.62,1.4c0.17,0,0.32-0.02,0.47-0.02c-0.14,1.08-0.24,2.15-0.28,3.16
			c-1.04,1.32-2.48,2.38-3.44,2.67c-0.15,0.05-0.32,0.1-0.47,0.15c-0.98-1.32-2.11-2.33-2.11-3.38c0-0.96,0.49-1.35,0.86-1.35
			c0.39,0,0.88,0.22,0.78,1.05c-0.1,0.81,0.15,1.13,0.71,1.13c0.76,0,1.28-0.37,1.37-1.42c0.1-1.05-0.61-3.14-2.72-3.14
			c-2.11,0-3.38,1.32-3.26,4.12c0,0.04,0.01,0.08,0.01,0.13c-0.02,0.03-0.05,0.04-0.06,0.07c-1.5,3.33-3.14,4.95-5.2,4.95
			c-0.88,0-1.62-0.42-1.84-1.47c2.48-0.02,4.59-1.4,4.59-3.82c0-1.57-1.42-2.77-2.84-2.77c-2.34,0-3.57,1.5-4.05,3.49
			c-0.32,0.55-0.82,0.98-1.42,1.36c-0.34-1.59-1.25-2.99-3.33-2.99c-1.69,0-3.38,1.96-4.44,3.51c0-0.17,0.02-0.37,0.02-0.54
			c1.76-2.16,4.39-5.96,4.29-9.42c-0.05-1.3-0.78-2.45-2.16-2.45c-5.2,0-4.39,17.07-4.39,17.07c0.05,0.51,0.49,0.61,1.3,0.61
			c0.32,0,0.51-0.12,0.64-0.34c0.02-0.02,0.02-0.05,0.05-0.07c1.35-3.16,3.73-5.96,4.9-5.96c0.56,0,0.86,0.71,0.93,1.64
			c-0.78,0.32-1.59,0.64-2.35,1.03c-2.67,1.4-1.96,4.71,0.2,4.83c2.87,0.2,4.22-2.4,4.46-4.49c0.39-0.18,0.77-0.4,1.14-0.64
			c0.35,2.12,1.84,3.63,3.84,3.63c3.96,0,5.8-2.26,6.88-4.49c0.31,0.41,0.64,0.81,0.94,1.2c-1.27,0.86-2.28,2.06-2.35,3.6
			c-0.05,1.67,0.91,2.52,2.33,2.72c1.54,0.2,3.73-0.93,3.73-3.51c0-0.74-0.15-1.42-0.39-2.03c0.25-0.1,0.49-0.2,0.78-0.29
			c0.82-0.29,1.53-0.79,2.14-1.36c0.28,2.46,1.18,4.15,3.15,4.15c3.04,0,5.1-3.82,6.08-6.5
			C147.75,186.13,145.93,185.37,145.44,186.35z M124.09,185.42c0.47-0.25,1.03,0.17,0.98,0.69c-0.1,1.2-1.37,1.37-2.21,1.35
			C123.15,186.13,123.77,185.57,124.09,185.42z M113.12,178.82c0.25,0,0.56,1.42-1.42,4.81
			C112.05,180.86,112.56,178.82,113.12,178.82z M115.33,193.02c-0.39,0.02-0.64-0.71,1.2-1.45
			C116.26,192.36,115.87,192.97,115.33,193.02z M132.45,194.12c-0.47,0-0.37-0.47-0.32-0.81c0.05-0.27,0.32-0.66,0.88-1.1
			c0.05,0.17,0.07,0.34,0.07,0.54C133.11,193.73,132.84,194.12,132.45,194.12z"/>
		<path class="st1" d="M188.55,186.25c-0.81,2.03-1.86,4.61-3.21,4.61c-1.08,0-0.15-5.05,0-6.23c0.15-1.03-0.42-1.4-1.27-1.45
			c-0.81-0.05-1.23,0.93-1.35,1.35c-0.02,0.15-0.27,1.27-0.39,2.7c-1,1.96-2.08,3.78-2.99,3.78c-1.28,0-0.17-5.25,0.12-6.28
			c0.27-1.03-0.59-1.37-1.5-1.37c-0.88,0-1.2,0.98-1.2,0.98c-0.05,0.13-0.31,1.09-0.5,2.35c-0.06,0.07-0.12,0.14-0.19,0.2
			c-0.22,0.22-0.96,0.76-1.45,0.83c-0.12-3.63-2.26-4.98-3.78-4.98c-0.91,0-2.08,0.42-2.67,1.59c-0.4,0.38-0.9,1.02-1.24,1.93
			c-0.77,0.94-1.54,1.8-2.29,2.58c0.1-2.28,0.07-4.04,0-4.54c-0.17-1.57-0.86-1.25-1.74-1.08c-0.51,0.12-0.69,0.32-0.74,0.59
			c-1.25,2.53-3.51,7.28-4.76,7.28c-1.27,0,0.22-5.25,0.49-6.28s-0.59-1.37-1.47-1.37c-0.91,0-1.2,0.98-1.2,0.98
			c-0.17,0.42-2.8,9.17,1.67,9.17c2.4,0,4.19-2.48,5.3-4.73c-0.02,0.91-0.07,1.76-0.12,2.52c-2.94,2.82-5.17,4.91-5.17,7.85
			c0,2.28,1.42,3.02,2.43,3.02c3.11,0,4.46-5.08,5.03-9.83c0.76-0.71,1.55-1.5,2.36-2.41c0.41,2.22,1.71,3.43,3.18,3.49
			c2.28,0.1,3.75-1.52,4.36-3.48c0.72-0.23,1.31-0.5,1.8-0.78c0.01,2.18,0.59,4.26,2.76,4.26c1.64,0,2.87-0.93,3.78-2.11
			c0.34,1.1,1.03,1.91,2.23,1.91c3.92,0,5.1-4.34,6.01-6.55C191.15,185.91,189.12,184.88,188.55,186.25z M159.64,199.84
			c-0.27,0-0.42-0.2-0.42-0.76c0.32-1.69,1.2-2.92,2.38-4.12C160.94,198.66,159.91,199.84,159.64,199.84z M170.19,191.21
			c-0.86-0.17-1.37-1.08-1.37-2.33c0-0.05,0-0.07,0-0.12c0.76,0.78,1.81,1.23,2.84,1.4C171.31,190.99,170.75,191.3,170.19,191.21z
			 M169.92,186.15c0-0.66,0.22-1.13,0.78-1.15c0.96-0.05,1.32,1.32,1.32,2.97C170.23,187.68,169.92,186.72,169.92,186.15z"/>
		<path class="st1" d="M232.69,185.54c-0.39,0.88-2.87,5.37-4.07,5.37c-0.86,0-0.61-1.81-0.47-2.82c0.2-1.59,0.12-4.41-2.6-4.41
			c-1.45,0-2.5,1.1-3.29,2.52c0.05-0.69,0.07-1.27,0.05-1.59c-0.07-1.27-1.4-1.2-1.96-0.91c-0.37,0.19-0.56,1.34-0.66,2.37
			c-0.07,0.06-0.14,0.13-0.17,0.21c-0.91,2.01-2.31,4.78-3.63,4.78c-1.01,0-0.29-5.49-0.02-6.5c0.25-1-0.37-1.15-1.42-1.15
			c-0.81,0-1.08,0.91-1.2,1.35c-0.02,0.02-0.02,0.07-0.05,0.15c-0.56-0.81-1.5-1.35-2.89-1.35c-2.2,0-3.37,1.65-3.85,3.54
			c-1.4,2.62-3.14,4.21-4.92,4.21c-1.03,0-1.89-0.59-1.89-2.13c0-2.57,0.96-3.56,1.37-3.75c0.47-0.25,1.03,0.05,1.13,0.69
			c0.1,0.51,0.49,0.91,1.23,0.81c0.69-0.1,0.88-0.54,0.91-1.05c0.05-1.4-1.4-2.62-2.84-2.62c-3.11,0-4.29,2.7-4.29,5.66
			c0,2.62,1.64,4.61,3.92,4.61c2.46,0,4.17-0.99,5.4-2.29c0.48,1.39,1.53,2.17,2.89,2.17c1.47,0,2.6-0.51,3.65-2.45
			c0.32,1.45,1.05,2.57,2.62,2.57c1.56,0,2.78-0.81,3.73-1.91c0,0.03,0,0.07,0,0.1c-0.02,1.23-0.29,1.81,1.03,1.81
			c0.96,0,1.27-0.44,1.42-0.96c0.96-3.11,2.26-6.13,3.16-6.13c1.79,0-1.37,6.94,2.94,6.94c4.17,0,6.79-6.99,6.64-7.6
			C234.38,185.15,232.96,184.98,232.69,185.54z M209.52,191.16c-1.11,0-1.37-1.69-0.99-3.18c0.19-0.42,0.35-0.82,0.49-1.2
			c0.36-0.6,0.86-1.01,1.48-1.01c0.56,0,1.64,0.54,1.54,1.89C211.97,188.73,210.84,191.16,209.52,191.16z"/>
	</g>
	<path class="st1" d="M249.33,68.79c-2.08-3.22-5.61-5.18-9.49-5.18c-3.88,0-7.31,1.96-9.35,4.94H214c-2.1-3.07-5.54-4.94-9.31-4.94
		c-3.88,0-7.31,1.96-9.35,4.94h-16.49c-2.1-3.07-5.54-4.94-9.31-4.94c-3.88,0-7.31,1.96-9.35,4.94H143.7
		c-2.1-3.07-5.54-4.94-9.31-4.94c-3.88,0-7.31,1.96-9.35,4.94h-16.49c-2.1-3.07-5.54-4.94-9.31-4.94c-3.88,0-7.31,1.96-9.35,4.94
		H73.4c-2.1-3.07-5.54-4.94-9.31-4.94c-4.03,0-7.57,2.12-9.58,5.3c-23.08,2.82-41.02,22.53-41.02,46.36v74.08
		c0,25.93,19.56,45.49,45.49,45.49h184.32c25.76,0,46.72-20.96,46.72-46.7l1.23-72.87C291.24,91.12,272.84,71.2,249.33,68.79z
		 M239.84,65.93c2.41,0,4.67,0.98,6.34,2.65c-0.55-0.02-1.1-0.04-1.66-0.04h-11.02C235.14,66.93,237.37,65.93,239.84,65.93z
		 M204.69,65.93c2.39,0,4.63,0.96,6.3,2.61h-12.63C199.98,66.93,202.22,65.93,204.69,65.93z M169.54,65.93
		c2.39,0,4.63,0.96,6.3,2.61H163.2C164.83,66.93,167.07,65.93,169.54,65.93z M134.39,65.93c2.39,0,4.63,0.96,6.3,2.61h-12.63
		C129.68,66.93,131.92,65.93,134.39,65.93z M99.24,65.93c2.39,0,4.63,0.96,6.3,2.61H92.9C94.53,66.93,96.77,65.93,99.24,65.93z
		 M64.09,65.93c2.39,0,4.63,0.96,6.3,2.61H60.2c-0.85,0-1.68,0.03-2.52,0.07C59.31,66.96,61.58,65.93,64.09,65.93z M287.97,188.11
		c0,24.63-20.04,44.68-44.68,44.68H58.97c-24.77,0-43.45-18.68-43.45-43.45v-74.08c0-22.33,16.47-40.89,37.91-44.16
		c-0.44,1.2-0.69,2.5-0.69,3.85c0,3.09,1.25,5.9,3.26,7.94c-0.13,0.58-0.22,1.17-0.22,1.79c0,4.37,3.56,7.93,7.93,7.93
		s7.93-3.56,7.93-7.93s-3.56-7.93-7.93-7.93c-2.84,0-5.31,1.51-6.72,3.75c-1.2-1.53-1.93-3.46-1.93-5.56c0-1.5,0.38-2.92,1.03-4.17
		c1.35-0.12,2.72-0.2,4.1-0.2h28.57c-0.56,1.34-0.88,2.82-0.88,4.36c0,3.16,1.31,6.03,3.4,8.09c-0.11,0.53-0.18,1.08-0.18,1.65
		c0,4.37,3.56,7.93,7.93,7.93s7.93-3.56,7.93-7.93s-3.56-7.93-7.93-7.93c-2.9,0-5.41,1.58-6.79,3.9c-1.27-1.55-2.04-3.54-2.04-5.7
		c0-1.58,0.41-3.07,1.13-4.36h32.57c-0.56,1.34-0.88,2.82-0.88,4.36c0,3.24,1.38,6.17,3.57,8.24c-0.09,0.49-0.15,0.99-0.15,1.5
		c0,4.37,3.56,7.93,7.93,7.93c4.37,0,7.93-3.56,7.93-7.93s-3.56-7.93-7.93-7.93c-2.95,0-5.5,1.64-6.87,4.03
		c-1.34-1.57-2.15-3.61-2.15-5.83c0-1.58,0.41-3.07,1.13-4.36h32.57c-0.56,1.34-0.88,2.82-0.88,4.36c0,3.33,1.45,6.32,3.74,8.39
		c-0.08,0.44-0.14,0.88-0.14,1.34c0,4.37,3.56,7.93,7.93,7.93c4.37,0,7.93-3.56,7.93-7.93s-3.56-7.93-7.93-7.93
		c-3,0-5.59,1.7-6.94,4.16c-1.41-1.59-2.27-3.68-2.27-5.96c0-1.58,0.41-3.07,1.13-4.36h32.57c-0.56,1.34-0.88,2.82-0.88,4.36
		c0,3.41,1.52,6.47,3.91,8.55c-0.06,0.39-0.12,0.78-0.12,1.19c0,4.37,3.56,7.93,7.93,7.93c4.37,0,7.93-3.56,7.93-7.93
		s-3.56-7.93-7.93-7.93c-3.06,0-5.68,1.76-7.01,4.29c-1.48-1.61-2.39-3.74-2.39-6.09c0-1.58,0.41-3.07,1.13-4.36h32.57
		c-0.56,1.34-0.88,2.82-0.88,4.36c0,3.49,1.59,6.62,4.08,8.71c-0.04,0.34-0.1,0.68-0.1,1.03c0,4.37,3.56,7.93,7.93,7.93
		s7.93-3.56,7.93-7.93s-3.56-7.93-7.93-7.93c-3.11,0-5.78,1.81-7.08,4.42c-1.55-1.62-2.51-3.81-2.51-6.22
		c0-1.58,0.41-3.07,1.13-4.36h12.56c24.64,0,44.68,20.04,44.68,44.66L287.97,188.11z M64.09,86.29c1.98,0,3.85-0.54,5.51-1.48
		c-0.07,3.19-2.68,5.76-5.88,5.76c-3.25,0-5.89-2.64-5.89-5.89c0-0.09,0.02-0.18,0.03-0.27C59.64,85.59,61.78,86.29,64.09,86.29z
		 M58.49,82c0.98-1.9,2.94-3.22,5.22-3.22c2.43,0,4.51,1.47,5.41,3.57c-1.47,1.01-3.2,1.6-5.04,1.6
		C61.97,83.96,60.03,83.22,58.49,82z M99.24,86.29c2.06,0,4-0.58,5.71-1.6c0,3.25-2.65,5.89-5.89,5.89c-3.25,0-5.89-2.64-5.89-5.89
		c0-0.06,0.01-0.11,0.02-0.16C94.93,85.63,97.01,86.29,99.24,86.29z M93.78,82.1c0.96-1.96,2.95-3.32,5.28-3.32
		c2.39,0,4.44,1.43,5.36,3.48c-1.5,1.07-3.28,1.7-5.18,1.7C97.18,83.96,95.3,83.26,93.78,82.1z M134.39,86.29
		c2.13,0,4.14-0.63,5.89-1.71c0,0.04,0.01,0.07,0.01,0.1c0,3.25-2.64,5.89-5.89,5.89c-3.25,0-5.89-2.64-5.89-5.89
		c0-0.02,0.01-0.04,0.01-0.06C130.22,85.67,132.23,86.29,134.39,86.29z M129.06,82.2c0.94-2.01,2.97-3.42,5.33-3.42
		c2.35,0,4.37,1.39,5.31,3.38c-1.52,1.13-3.36,1.79-5.32,1.79C132.4,83.96,130.56,83.3,129.06,82.2z M169.54,86.29
		c2.2,0,4.28-0.67,6.07-1.82c0,0.07,0.02,0.14,0.02,0.21c0,3.25-2.64,5.89-5.89,5.89c-3.23,0-5.86-2.61-5.89-5.83
		C165.52,85.72,167.46,86.29,169.54,86.29z M164.35,82.3c0.92-2.07,2.98-3.52,5.38-3.52c2.31,0,4.29,1.34,5.25,3.28
		c-1.55,1.19-3.43,1.9-5.45,1.9C167.61,83.96,165.82,83.34,164.35,82.3z M204.69,86.29c2.28,0,4.41-0.7,6.24-1.93
		c0.01,0.11,0.03,0.21,0.03,0.32c0,3.25-2.64,5.89-5.89,5.89c-3.19,0-5.78-2.55-5.88-5.71C200.83,85.77,202.7,86.29,204.69,86.29z
		 M199.64,82.41c0.89-2.12,2.99-3.62,5.44-3.62c2.26,0,4.2,1.29,5.19,3.17c-1.57,1.26-3.5,2.01-5.58,2.01
		C202.82,83.96,201.08,83.39,199.64,82.41z M239.84,86.29c2.35,0,4.55-0.75,6.42-2.06c0.01,0.15,0.05,0.3,0.05,0.45
		c0,3.25-2.64,5.89-5.89,5.89c-3.15,0-5.71-2.49-5.86-5.61C236.13,85.81,237.93,86.29,239.84,86.29z M234.95,82.5
		c0.87-2.17,2.99-3.72,5.47-3.72c2.23,0,4.15,1.26,5.15,3.09c-1.59,1.33-3.59,2.09-5.72,2.09C238.04,83.96,236.36,83.42,234.95,82.5
		z"/>
	<g>
		<g>
			<path class="st2" d="M47.91,188.61c-2.2,0.73-3.38-2.28-4.05-3.91c-2.66,6.47-7.05,3.77-4.08-2.12
				c-6.63,4.07-10.1-0.39-2.82-4.19c-7.97-1.4-4.53-6.03,1.65-4.61c-5.73-6.1-1.72-9.81,3.74-2.99c-0.52-5.88,4.93-8.21,5.34-1.33
				c5.56-6.48,6.59,0.58,2.64,4.8c8.6-0.98,10.08,5.29,0.61,5.34c4.48,3.35,3.3,8.7-2.17,4.32
				C49.09,185.46,49.48,187.77,47.91,188.61z"/>
		</g>
		<path class="st3" d="M44.59,174.04c-0.63,0.05-1.25,0.29-1.75,0.74c-0.78,0.7-1.2,1.81-1.1,2.85c0.22,2.37,2.97,3.64,4.88,2.19
			c0.88-0.67,1.55-1.88,1.46-3.01C47.93,174.99,46.21,173.9,44.59,174.04z"/>
	</g>
	<g>
		<path class="st3" d="M44.21,128.48c-2.19,0.18-4.33,0.99-6.07,2.56c-2.7,2.43-4.14,6.26-3.81,9.88
			c0.76,8.21,10.29,12.61,16.91,7.58c3.07-2.34,5.39-6.53,5.07-10.45C55.79,131.8,49.83,128.02,44.21,128.48z"/>
		<g>
			<g>
				<g>
					<path class="st4" d="M41.5,135.15c-0.57,0.11-0.9,0.8-0.73,1.54c0.17,0.74,0.77,1.26,1.34,1.15c0.57-0.11,0.9-0.8,0.73-1.54
						C42.67,135.56,42.07,135.05,41.5,135.15z"/>
				</g>
			</g>
			<path class="st4" d="M50.7,136.08c-0.19-0.05-0.42,0.01-0.56,0.15c-0.13,0.13-0.17,0.31-0.12,0.5c0.19,0.68,0.34,1.41,0.46,2.22
				c0.37,2.38-0.78,4.66-2.78,5.54c-2.77,1.21-5.38,0.06-6.43-1.64c-0.08-0.13-0.15-0.26-0.22-0.4c-0.4-0.8-0.62-1.7-0.84-2.56
				c-0.07-0.28-0.14-0.56-0.22-0.83c-0.05-0.19-0.12-0.4-0.31-0.5c-0.11-0.06-0.24-0.06-0.37,0c-0.16,0.07-0.28,0.21-0.33,0.38
				c-0.06,0.23-0.01,0.47,0.04,0.66c0.35,1.48,0.75,3.15,1.79,4.42c1.45,1.76,3.96,2.46,6.31,1.8c0.23-0.06,0.46-0.14,0.69-0.23
				c1.32-0.53,2.38-1.44,2.97-2.56c0.63-1.19,0.93-2.61,0.79-3.81c-0.1-0.93-0.28-1.86-0.53-2.77
				C51,136.25,50.88,136.12,50.7,136.08z"/>
			<g>
				<g>
					<path class="st4" d="M46.86,134.03c-0.57,0.11-0.9,0.8-0.73,1.54c0.17,0.74,0.77,1.26,1.34,1.15c0.57-0.11,0.9-0.8,0.73-1.54
						C48.03,134.44,47.43,133.92,46.86,134.03z"/>
				</g>
			</g>
		</g>
	</g>
	<path class="st5" d="M261.8,181.2c-1.61-1.71-4.09-1.9-5.93-0.44c-0.11,0.09-0.23,0.18-0.34,0.27c-0.05-0.12-0.1-0.24-0.15-0.36
		c-0.83-2.04-3.41-3.25-5.48-2.3c-2.07,0.95-3.04,3.25-2.3,5.48c1.25,3.8,4.65,7.85,5.17,7.99c0.5,0.13,6.12-2.4,8.59-4.71
		C262.97,185.62,263.31,182.81,261.8,181.2z"/>
	<g>
		<g>
			<path class="st5" d="M241.98,161.62c-0.52-2.15-1.03-4.31-1.37-6.51c-0.1-0.66-0.19-1.33-0.26-1.99
				c0.01,0.15,0.03,0.29,0.04,0.44c-0.12-1.19-0.17-2.38-0.13-3.57c0.02-0.59,0.06-1.18,0.14-1.77c0.02-0.13,0.03-0.27,0.05-0.4
				c0.01-0.07,0.02-0.13,0.03-0.2c0.03-0.18-0.08,0.43-0.04,0.25c0.01-0.05,0.02-0.09,0.02-0.14c0.05-0.28,0.11-0.56,0.18-0.84
				c0.13-0.55,0.3-1.09,0.5-1.62c0.05-0.13,0.1-0.26,0.16-0.39c0.03-0.06,0.05-0.12,0.08-0.18c0.09-0.22-0.2,0.43-0.06,0.13
				c0.13-0.26,0.26-0.52,0.4-0.78c0.14-0.25,0.29-0.49,0.45-0.72c0.08-0.12,0.16-0.24,0.25-0.35c0.04-0.05,0.08-0.11,0.12-0.16
				c0.05-0.07,0.24-0.3,0.03-0.04c-0.21,0.26-0.04,0.04,0.01-0.01c0.05-0.06,0.1-0.12,0.15-0.18c0.1-0.12,0.21-0.23,0.32-0.35
				c0.21-0.22,0.43-0.42,0.65-0.62c0.12-0.11,0.25-0.21,0.38-0.32c0.07-0.06,0.15-0.12,0.22-0.17c0.03-0.03,0.07-0.05,0.1-0.08
				c0.13-0.1-0.39,0.28-0.17,0.12c0.29-0.21,0.59-0.4,0.9-0.59c0.7-0.41,1.43-0.76,2.18-1.06c-0.14,0.05-0.28,0.11-0.41,0.16
				c1.44-0.55,2.96-0.94,4.49-1.1c-0.15,0.01-0.29,0.03-0.44,0.04c0.64-0.06,1.29-0.09,1.94-0.05c0.31,0.02,0.61,0.04,0.92,0.08
				c0.07,0.01,0.15,0.02,0.22,0.03c0.04,0.01,0.08,0.02,0.12,0.02c0.05,0-0.43-0.08-0.27-0.04c0.15,0.03,0.3,0.06,0.45,0.09
				c0.57,0.13,1.14,0.3,1.68,0.51c0.13,0.05,0.26,0.12,0.39,0.16c0.05,0.02-0.4-0.18-0.25-0.11c0.04,0.02,0.07,0.03,0.11,0.05
				c0.07,0.03,0.14,0.07,0.22,0.11c0.26,0.13,0.51,0.27,0.76,0.42c0.25,0.15,0.5,0.31,0.73,0.48c0.12,0.08,0.23,0.17,0.34,0.25
				c0.06,0.04,0.11,0.09,0.17,0.13c0.16,0.13-0.36-0.3-0.09-0.07c0.47,0.39,0.91,0.81,1.32,1.26c0.21,0.22,0.41,0.45,0.6,0.69
				c0.1,0.12,0.2,0.24,0.29,0.36c0.11,0.13,0.48,0.66,0.11,0.14c0.38,0.54,0.75,1.09,1.09,1.66c0.84,1.42,1.53,2.93,2.13,4.47
				c-0.05-0.14-0.11-0.28-0.16-0.41c0.88,2.29,1.54,4.66,2.07,7.06c0.19,0.85,1.14,1.47,1.99,1.23c0.88-0.25,1.43-1.09,1.23-1.99
				c-0.59-2.65-1.35-5.25-2.34-7.77c-0.82-2.07-1.82-4.08-3.14-5.89c-1.27-1.74-2.76-3.3-4.61-4.42c-1.81-1.09-3.87-1.71-5.97-1.81
				c-2.33-0.11-4.71,0.37-6.87,1.2c-2.07,0.79-4.02,1.91-5.53,3.55c-2.66,2.89-3.65,6.76-3.66,10.61c0,3.61,0.72,7.17,1.56,10.67
				c0.09,0.36,0.17,0.72,0.26,1.08c0.2,0.84,1.13,1.47,1.99,1.23C241.61,163.37,242.2,162.53,241.98,161.62L241.98,161.62z"/>
		</g>
		<g>
			<path class="st3" d="M246.52,160.45c-0.14-0.54-0.33-1.06-0.48-1.6c-0.29-1.01-0.54-2.04-0.73-3.08
				c-0.13-0.71-0.24-1.42-0.31-2.14c0.01,0.15,0.03,0.29,0.04,0.44c-0.08-0.81-0.12-1.63-0.1-2.45c0.01-0.41,0.04-0.82,0.08-1.23
				c0.02-0.19,0.04-0.37,0.07-0.56c0.01-0.05,0.02-0.1,0.02-0.15c-0.09,0.6-0.06,0.36-0.04,0.22c0.02-0.12,0.04-0.23,0.07-0.35
				c0.08-0.39,0.19-0.78,0.32-1.17c0.06-0.17,0.12-0.35,0.19-0.52c0.06-0.15,0.25-0.52-0.04,0.07c0.04-0.09,0.08-0.18,0.13-0.27
				c0.18-0.36,0.38-0.7,0.62-1.02c0.06-0.08,0.12-0.16,0.18-0.24c0.15-0.2-0.3,0.36-0.14,0.17c0.03-0.04,0.07-0.08,0.1-0.12
				c0.13-0.15,0.27-0.3,0.42-0.44c0.16-0.16,0.33-0.31,0.51-0.45c0.04-0.03,0.08-0.06,0.13-0.1c0.2-0.16-0.42,0.29-0.13,0.1
				c0.11-0.07,0.21-0.14,0.32-0.21c0.44-0.28,0.91-0.5,1.4-0.69c-0.14,0.05-0.28,0.11-0.41,0.16c0.84-0.32,1.72-0.52,2.61-0.62
				c-0.15,0.01-0.29,0.03-0.44,0.04c0.51-0.05,1.03-0.06,1.55-0.03c0.22,0.02,0.44,0.05,0.66,0.08c-0.64-0.09-0.17-0.03-0.02,0.01
				c0.12,0.03,0.25,0.06,0.37,0.09c0.21,0.06,0.42,0.12,0.63,0.2c0.1,0.04,0.19,0.07,0.29,0.11c0.04,0.02,0.09,0.04,0.13,0.05
				c0.23,0.1-0.45-0.22-0.13-0.06c0.4,0.2,0.79,0.42,1.15,0.68c0.08,0.05,0.15,0.11,0.23,0.16c0.13,0.09,0.46,0.4-0.02-0.03
				c0.17,0.15,0.34,0.29,0.5,0.44c0.33,0.31,0.64,0.64,0.92,0.99c0.13,0.16,0.26,0.33,0.39,0.49c0.16,0.21-0.27-0.38-0.12-0.16
				c0.03,0.05,0.07,0.09,0.1,0.14c0.07,0.09,0.13,0.19,0.2,0.28c0.26,0.38,0.5,0.78,0.72,1.18c0.49,0.88,0.91,1.81,1.27,2.75
				c-0.05-0.14-0.11-0.28-0.16-0.41c0.7,1.82,1.2,3.72,1.58,5.64c0.17,0.85,1.16,1.47,1.99,1.23c0.89-0.26,1.41-1.08,1.23-1.99
				c-0.57-2.89-1.42-5.78-2.79-8.4c-0.8-1.53-1.82-3.02-3.1-4.18c-0.68-0.62-1.43-1.18-2.25-1.59c-0.97-0.48-1.93-0.78-2.99-0.94
				c-2.07-0.32-4.28,0.12-6.17,0.98c-1.58,0.72-2.95,1.95-3.85,3.44c-1.71,2.84-1.78,6.31-1.39,9.51c0.25,2.07,0.77,4.07,1.39,6.06
				c0.02,0.08,0.05,0.16,0.07,0.24c0.22,0.84,1.12,1.48,1.99,1.23C246.13,162.21,246.76,161.35,246.52,160.45L246.52,160.45z"/>
		</g>
		<g>
			<path class="st6" d="M251.22,159.42c-0.69-1.95-1.3-3.95-1.51-6.02c0.01,0.15,0.03,0.29,0.04,0.44
				c-0.06-0.59-0.08-1.19-0.05-1.78c0.01-0.15,0.02-0.29,0.04-0.44c0.01-0.05,0.01-0.11,0.02-0.16c0.04-0.35-0.08,0.4-0.03,0.16
				c0.05-0.26,0.11-0.53,0.2-0.78c0.04-0.12,0.09-0.24,0.13-0.35c0.09-0.23-0.22,0.45-0.07,0.16c0.03-0.06,0.06-0.12,0.09-0.17
				c0.06-0.1,0.12-0.2,0.18-0.29c0.04-0.05,0.08-0.1,0.12-0.16c-0.33,0.48-0.21,0.26-0.11,0.14c0.09-0.1,0.18-0.19,0.28-0.28
				c0.04-0.03,0.08-0.06,0.12-0.1c0.18-0.16-0.43,0.29-0.14,0.1c0.24-0.16,0.49-0.29,0.76-0.39c-0.14,0.05-0.28,0.11-0.41,0.16
				c0.36-0.13,0.74-0.22,1.12-0.26c-0.15,0.01-0.29,0.03-0.44,0.04c0.27-0.02,0.53-0.01,0.81,0.01c0.25,0.02-0.49-0.11-0.15-0.02
				c0.05,0.01,0.11,0.03,0.16,0.04c0.12,0.03,0.24,0.08,0.35,0.12c0.23,0.08-0.45-0.22-0.14-0.06c0.05,0.03,0.09,0.05,0.14,0.08
				c0.11,0.06,0.22,0.13,0.32,0.2c0.12,0.09,0.33,0.3-0.11-0.1c0.04,0.04,0.09,0.07,0.13,0.11c0.11,0.09,0.21,0.19,0.3,0.3
				c0.09,0.1,0.18,0.2,0.27,0.31c0.04,0.05,0.09,0.11,0.13,0.16c0.17,0.21-0.27-0.39-0.09-0.13c0.17,0.24,0.32,0.49,0.47,0.75
				c0.31,0.56,0.57,1.15,0.8,1.75c-0.05-0.14-0.11-0.28-0.16-0.41c0.7,1.83,1.13,3.74,1.58,5.64c0.2,0.84,1.14,1.47,1.99,1.23
				c0.87-0.25,1.44-1.09,1.23-1.99c-0.53-2.25-1.06-4.5-1.97-6.64c-0.84-1.97-2.3-4.08-4.54-4.54c-2.28-0.47-4.86,0.56-5.91,2.7
				c-0.96,1.94-0.88,4.13-0.54,6.21c0.28,1.72,0.8,3.39,1.38,5.02c0.15,0.43,0.34,0.78,0.74,1.03c0.35,0.21,0.85,0.31,1.25,0.2
				C250.78,161.19,251.53,160.3,251.22,159.42L251.22,159.42z"/>
		</g>
	</g>
</g>
</svg>
