<?xml version="1.0" encoding="iso-8859-1"?>
<!-- Generator: Adobe Illustrator 26.0.1, SVG Export Plug-In . SVG Version: 6.00 Build 0)  -->
<svg version="1.1" id="Layer_1" xmlns="http://www.w3.org/2000/svg" xmlns:xlink="http://www.w3.org/1999/xlink" x="0px" y="0px"
	 width="500px" height="500px" viewBox="0 0 500 500" enable-background="new 0 0 500 500" xml:space="preserve">
<path d="M434.057,311.938c-7.791,13.239-7.29,15.231-9.029,18.119c-3.257,5.409-11.072,1.463-9.304-4.179
	c0.563-1.795,1.26-3.547,2.064-5.785c-7.203,5.578-11.45,10.262-18.369,10.482c-19.266,0.613-4.217-32.634-4.913-43.352
	c-26.93,13.978-30.899,48.978-39.938,36.136c-3.618,3.129-5.99,5.391-10.542,7.573c-7.393,3.545-15.489-0.193-17.362-12.587
	c-0.535,0.522-0.908,0.84-1.229,1.205c-15.813,17.965-26.358,12.502-27.576-0.587c-0.929-9.989,3.423-23.758,4.503-35.027
	c-13.686,5.371-25.969,37.274-29.851,42.134c-2.565,3.211-7.67,2.869-8.882-2.951c-4.179,2.708-27.237,22.608-33.176-1.994
	c-10.655,9.991-29.105,24.282-37.689,12.419c-8.24-11.388,1.547-27.417,6.356-38.229c-10.387,0.555-6.157,0.44-16.171,0.44
	c-3.308,11.091-7.675,15.677-15.969,23.335c-27.286,25.195-48.92,16.082-49.978-5.774c-0.448-9.247,0.722-11.7,0.57-13.543
	c-9.886-0.782-12.396-4.124-17.211-8.728c-3.656,4.494-17.581,22.846-17.491,22.728c-3.044,3.989-12.431,14.596-16.767,17.157
	c-4.71,2.782-9.12,0.424-9.303-5.049c-0.187-5.618,1.924-18.583,1.924-21.342c-27.497,7.884-9.046-1.651-24.575,15.758
	c-13.217,14.818-28.947,11.416-33.091-2.181c-6.512-21.363,18.371-55.631,36.866-44.611c9.352,5.572,8.59,13.961,8.59,23.349
	c1.406,0.301,2.595,0.085,3.77-0.318c10.071-3.454,10.603-3.038,11.064-5.348c0.214-1.072,2.777-13.808,3.686-15.789
	c3.148-6.857,10.89-4.256,9.352,3.22c-5.538,26.927-6.383,28.891-6.383,36.886c3.426-2.733,27.926-35.566,27.849-35.465
	c3.455-4.531,5.536-7.659,9.527-6.032c2.998,1.222,3.077,3.581,2.927,6.553c-0.402,7.995,7.95,10.217,12.07,8.799
	c19.421-45.138,56.755,2.164,7.344,26.998c1.386,2.892,3.073,9.052,10.466,8.139c9.58-1.184,23.211-13.16,29.726-20.363
	c4.076-4.506,4.2-7.101,5.044-10.366c-28.315-17.974,4.352-50.089,14.883-28.907c3.358,6.754,1.876,13.182-0.849,21.055
	c11.038-0.64,13.307-0.46,15.74,0.403c18.524,6.573-11.502,32.9-0.995,41.86c16.105-4.593,24.517-19.034,29.618-21.545
	c0.1-0.049,11.689-34.216,11.721-34.316c-13.096,0.589-15.619,5.468-18.599,0.902c-2.056-3.151-0.372-6.502,2.994-8.169
	c4.093-2.027,8.082-2.14,19.922-3.396c0.038-0.1,4.058-10.82,4.201-11.114c2.799-5.732,10.411-2.67,9.178,3.127
	c-0.446,2.098-0.856,2.851-1.785,6.634c13.213,0,10.617-0.243,12.041-0.121c6.156,0.527,6.324,9.085,0.037,9.693
	c-15.821,1.531-16.313,0.651-16.999,2.446c-24.099,63.065-14.171,59.526,13.99,32.402c2.095-2.018,14.643-47.336,20.397-53.467
	c3.248-3.461,9.428-0.208,8.011,4.714c-0.931,3.234-7.33,17.493-10.482,27.13l0.357,0.291c2.108-1.743,7.583-6.01,10.216-7.881
	c7.013-4.983,14.09-3.066,15.44,3.419c2.007,9.643-6.75,34.139-3.43,41.672c2.308-0.446,4.029-1.785,5.457-3.481
	c1.904-2.26,15.414-19.138,16.31-21.975c1.219-3.858,5.624-15.308,7.65-17.725c2.981-3.555,9.054-1.293,8.364,3.624
	c-1.179,8.396-12.711,25.395-8.503,40.221c1.528,5.384,23.156-20.402,24.29-23.23c6.155-15.352,6.91-18.008,8.632-20.963
	c2.478-4.252,9.076-2.839,9.04,2.222c-0.011,1.526-0.708,3.461-1.623,6.494c3.266-2.002,5.733-3.749,9.757-6.31
	c7.747-4.929,15.978-1.183,16.401,7.307c0.459,9.2-3.701,18.84-4.986,33.276c5.496,0.772,26.555-21.748,27.866-25.312
	c3.605-9.803,7.856-19.326,12.39-28.726c2.263-4.69,5.301-8.345,9.412-4.696c4.277,3.797-0.779,8.061-7.034,23.743
	c4.653-2.381,5.774-3.303,8.678-4.708c27.03-13.075,33.942,26.531-0.874,31.035c-4.195,0.543-3.696,0.553-3.951,0.754
	c2.729,6.703,10.676,10.683,18.58,8.82c19.115-4.505,26.464-25.755,33.76-19.816c2.455,1.999,2.32,5.437,0.195,7.617
	C474.073,333.707,449.632,343.375,434.057,311.938z M31.207,306.624c-10.468-5.401-10.285-5.801-16.171-12.175
	c-9.187,13.898-4.08,27.98,2.37,25.471C26.029,316.565,28.635,311.514,31.207,306.624z M128.007,305.176
	c9.742-5.258,17.563-17.729,12.247-24.619C131.716,283.918,126.369,298.645,128.007,305.176z M442.205,300.45
	c15.528,5.397,26.444-12.001,18.924-12.191C455.504,288.118,447.581,291.954,442.205,300.45z M35.354,296.814
	c2.492-5.804,2.1-13.043-4.047-14.954c-4.254,3.553-2.326,2.499-7.383,4.067C23.477,291.907,29.521,295.344,35.354,296.814z
	 M175.979,283.273c4.146-4.188,4.993-12.006,1.692-14.62C170.565,269.977,169.929,279.822,175.979,283.273z M393.519,84.479
	c-0.673,5.431-7.344,45.22-10.735,53.989c-1.499,3.878-2.861,4.985-4.775,7.453c0.9,1.603,0.427,1.051,24.119,5.447
	c0.918,0.17,1.8,0.287,2.577-0.528c-1.697-9.725-4.229-2.736,3.272-40.761c0.148-0.749,0.088-1.669,1.137-2.315
	c8.381,24.394,8.008,46.489,16.318,47.919c17.061,2.935,17.659,3.941,18.867,2.444c-2.14-11.456-4.898,3.049,7.167-61.153
	c1.857-9.883,5.304-12.189,6.871-14.631c-0.677-1.387,0.537-0.893-23.449-5.281c-5.566-1.018,0.384,3.315-1.048,11.826
	c-0.405,2.406-3.467,20.898-4.382,23.22l-0.465-0.037c-7.192-20.35-6.628-37.224-14.018-38.678
	c-21.736-4.275-21.811-4.318-22.73-3.37C391.681,71.968,394.858,73.677,393.519,84.479z M222.535,59.775
	c3.854-1.351,45.631-0.715,48.062-0.145c5.012,1.176,9.018,5.799,8.987,11.354c-0.103,18.521-0.075,37.043-0.147,55.564
	c-0.024,6.358-4.68,11.709-13.765,11.672c-43.471-0.175-40.881-0.119-41.862-0.286c-4.133-0.707,2.666-1.066,2.886-18.097
	C227.357,68.687,227.278,68.994,222.535,59.775z M261.017,98.664h0.063c0-24.014,2.451-22.43-11.158-22.305
	c-6.404,0.059-4.223,1.602-4.584,40.142c-0.053,5.677,5.123,4.223,10.707,4.485C262.658,121.296,261.017,116.393,261.017,98.664z
	 M70.636,129.686c-0.673-4.375,5.069-4.637,11.598-5.497c1.89-0.249,3.347,0.923,3.712,2.76c3.724,18.748,1.577,19.482,0.257,25.487
	c0.488-0.024,25.776-3.084,26.687-5.657c-2.809-3.677-5.253-5.752-7.647-17.451c-11.668-57.024-8.37-49.259-6.631-58.338
	c-1.209-0.711-0.763-1.034-23.8,3.606c-1.038,0.209-2.238,0.255-2.844,1.563c6.402,8.643,6.91,12.359,9.428,26.866
	c0.708,4.08-2.96,4.483-11.372,5.714c-1.92,0.281-3.543-0.895-3.9-2.79C63.2,90.413,62.255,88.31,65.135,77.483
	c-0.918-0.971,0.622-1.473-24.865,3.656c-4.436,0.893,0.973,2.412,3.539,10.42c2.287,7.137,1.222,3.491,8.957,44.038
	c2.23,11.688,2.267,14.191-0.08,22.694c1.14,0.71,2.186,0.502,3.186,0.317c23.266-4.305,22.742-3.924,23.556-5.475
	C73.92,146.441,72.366,140.935,70.636,129.686z M361.628,145.047c-47.508-5.267-41.318,3.495-32.396-71.559
	c0.71-5.975,6.526-10.502,12.895-10.079c48.901,3.249,41.697-0.486,33.237,71.645C374.648,141.164,369.126,145.456,361.628,145.047z
	 M342.457,121.441c-0.162,4.67,2.469,4.65,11.439,5.408c4.449,0.376,4.146-4.226,4.662-8.805
	c4.335-38.522,7.076-34.896-7.465-36.396C345.723,81.093,346.872,81.882,342.457,121.441z M167.968,130.812
	c0.26,5.787-4.314,10.964-10.412,11.783c-6.523,0.876-25.298,3.061-28.148,3.377c-6.96,0.771-13.087-3.456-13.917-10.597
	c-8.5-73.137-16.615-65.911,32.89-71.168c5.987-0.636,12.193,3.06,13.144,11.257C163.145,89.421,167.9,129.312,167.968,130.812z
	 M143.996,85.961c-0.593-4.832-5.045-3.595-12.472-2.437c-3.933,0.613-3.03,4.456-2.68,7.403c4.256,35.854,3.34,37.111,7.832,36.775
	C152.643,126.505,149.355,129.637,143.996,85.961z M218.019,416.841c0.097-3.766,4.474-3.373,11.999-2.909
	c1.584,0.098,2.489,1.402,2.513,3.024c0.279,18.677-2.133,18.62-4.067,23.365c2.685,0.733-1.847,0.674,23.237,0.617
	c0.839-0.002,1.705-0.071,2.225-1.026c-1.869-3.69-3.954-6.395-4.023-17.626c-0.327-53.184-0.016-44.725,4.12-54.677
	c-2.671-0.811,2.156-0.653-23.405-0.625c-0.787,0.001-1.578,0.061-2.039,0.975c3.048,7.193,3.607,2.936,3.963,25.858
	c0.07,4.532-3.743,3.868-10.783,3.739c-3.927-0.072-4.204-2.327-3.759-11.758c0.624-13.243,1.449-12.379,4.152-18.294
	c-0.97-0.212-1.694-0.504-2.418-0.508c-23.293-0.115-22.358-0.347-23.07,0.961c4.258,9.172,3.981,3.446,3.903,54.97
	c-0.018,11.967-2.922,14.39-3.975,17.53c4.01,0.774,21.583,0.764,25.592-0.049C219.568,434.828,217.604,432.952,218.019,416.841z
	 M350.659,381.783c-0.551-17.533-7.998-14.823-30.23-14.809c-6.475,0.004-19.245-1.246-19.151,10.878
	c0.195,25.204-0.671,25.493,1.516,28.869c7.693,11.873,30.329-0.834,30.462,9.589c0.065,5.147,0.685,8.438-4.147,8.522
	c-12.464,0.216-11.812,0.364-8.189-7.273c-5.141-1.085-20.839-0.974-21.867,0.356c1.802,4.314,2.212,2.992,2.229,12.231
	c0.011,5.881,5.05,10.823,12.218,10.811c-0.117,0,24.786,0.01,25.833-0.029c6.308-0.233,11.082-4.577,11.208-10.539
	c0.166-7.89,0.137-15.788,0.004-23.679c-0.329-19.486-31.748-4.296-31.898-14.707c-0.109-7.551-1.874-10.626,14.463-8.698
	c0.231,2.451-1.351,4.168-1.975,6.123c2.338,1.267,19.152,1.315,21.792,0.016C351.81,386.709,350.779,385.601,350.659,381.783z
	 M329.237,212.757c-0.512-48.5,1.16-34.529,2.937-42.521c-0.905-0.095-1.651-0.236-2.399-0.242
	c-11.563-0.089-13.196-0.733-15.455,3.272c-13.806,24.482-13.143,23.01-14.032,22.961c-2.911-0.159-12.021-26.19-17.709-26.225
	c-14.272-0.086-11.825-0.041-13.393,0.468c0.896,2.145,2.795,4.359,2.817,10.459c0.168,47.293,0.238,34.793-2.759,43.866
	c3.034,0.587,15.67,0.627,18.993-0.057c-1.09-2.473-2.807-4.544-2.897-10.059c-0.038-2.346-0.177-14.91,0.097-17.781
	c0.644,0.178,0.57-0.646,8.104,14.514c1.924,3.872,4.86,2.906,8.315,3.073c7.468,0.36,11.259-17.132,14.211-17.613
	c0.088,0.345,0.203,0.583,0.202,0.822c-0.08,30.117-1.65,21.484-2.94,27.085c3.022,0.577,15.091,0.733,19.181-0.078
	C329.803,220.833,329.28,216.808,329.237,212.757z M193.452,87.804c-1.349-24.372,1.428-21.1,2.708-26.41
	c-0.813-0.929-1.831-0.754-2.785-0.701c-23.845,1.332-23.292,0.996-24.161,2.281c0.944,2.507,3.923,4.434,4.937,14.569
	c0.01,0.101,3.742,45.778,2.383,54.44c-0.618,3.94-1.341,4.857-2.776,7.977c1.022,1.247-1.318,1.26,40.106-1.305
	c5.494-0.34,4.249-3.105,3.302-19.105c-0.054-0.909-0.158-1.817-1.275-2.487c-5.97,4.193-13.004,4.636-20.215,5.38
	C195.13,118.428,193.655,91.478,193.452,87.804z M159.292,387.163c0.082,50.396,0.229,43.357-3.888,52.852
	c0.927,1.311,0.411,0.957,22.887,0.934c0.848-0.001,1.708-0.024,2.389-0.974c-1.448-2.826-3.786-6.435-3.885-17.174
	c-0.02-2.151-0.398-35.851,0.466-39.736c17.105,1.04,15.023,11.948,14.837-12.734c-0.021-2.81-1.929-3.356-4.682-3.356
	c0.1,0-39.914-0.053-40.704,0.077c-3.837,0.636-2.756,3.86-2.74,17.539c0.001,0.801,0.087,1.579,1.171,2.028
	c4.069-2.426,8.681-3.302,13.891-3.562C159.135,384.599,159.29,385.881,159.292,387.163z M162.411,181.2
	c0.226,47.702,0.078,34.412-2.756,43.314c0.769,0.832,1.717,0.66,2.601,0.661c-1.272-0.001,30.376,0.02,30.729-0.005
	c3.394-0.241,2.889-1.24,2.804-12.542c-0.005-0.614-0.155-1.227-0.275-2.12c-8.075,3.109-8.47,2.67-17.577,2.568
	c-3.03-0.034-2.704-3.559-2.503-7.594c0.301-6.05,14.485-0.158,14.989-0.03c0.969-1.853,0.96-13.438-0.01-15.255
	c-2.608,0.677-2.873,2.224-11.87,2.622c-3.686,0.163-3.308-2.655-3.121-7.931c0.067-1.884,0.904-2.838,2.76-2.857
	c11.415-0.118,12.039,1.514,16.242,2.725c0.149-0.797,0.373-1.464,0.381-2.133c0.133-10.876,0.66-12.623-3.148-12.63
	c-34.607-0.068-29.728-0.083-32.072,0.339C160.337,172.629,162.379,174.512,162.411,181.2z M355.178,213.062
	c-1.43-0.024-2.296-1.083-2.368-2.63c-0.398-8.562-0.564-9.581,14.949-4.966c1.117-1.919,1.392-14.31-0.052-15.279
	c-15.66,4.551-15.292,3.691-14.899-5.436c0.076-1.762,0.925-2.693,2.693-2.716c10.902-0.142,11.731,1.284,16.189,2.725
	c0.189-0.564,0.475-1.026,0.48-1.492c0.111-11.031,0.717-12.974-2.491-13.258c-0.1-0.009-29.552-0.279-32.61,0.377
	c0.043,0.418,0.015,0.572,0.076,0.67c3.405,5.451,2.669,8.351,2.667,40.813c-0.001,9.839-1.995,9.807-2.798,12.956
	c3.513,0.572-2.93,0.279,32.703,0.362c2.108,0.005,3.642-0.578,3.494-3.5c-0.238-4.694,0.188-6.619-0.257-11.031
	C367.63,211.834,370.916,213.325,355.178,213.062z M285.01,386.653c0.08-11.94,1.835-13.929,4.127-19.15
	c-0.894-0.22-1.504-0.498-2.116-0.501c-23.303-0.102-22.725-0.412-23.342,1.056c4.125,7.902,4.322,5.588,3.996,53.772
	c-0.078,11.604-2.026,13.81-4.138,18.596c1.033,0.216,1.77,0.501,2.508,0.504c22.355,0.113,21.895,0.333,22.957-0.872
	C285.01,431.047,284.677,436.547,285.01,386.653z M233.257,169.988c1.945,0.003-29.652-0.014-29.952,0.009
	c-3.186,0.251-2.681,1.592-2.566,12.723c0.006,0.601,0.225,1.199,0.379,1.967c13.877-5.459,11.035-4.273,11.036,16.955
	c0,25.208-2.752,19.665-2.752,23.186c2.68,0.509,15.552,0.636,18.61-0.116c-0.987-2.574-2.777-5.429-2.852-12.495
	c-0.001-0.104-0.293-25.426,0.335-30.317c6.746,0.963,3.839,0.213,10.838,2.73C238.224,169.714,235.853,169.992,233.257,169.988z
	 M126.747,182.768c0.383,48.091-0.684,33.391-2.804,41.773c0.765,0.819,1.717,0.631,2.597,0.632
	c-1.731-0.003,25.382,0.049,26.029-0.054c2.988-0.478,2.441-2.127,2.32-13.223c-0.006-0.522-0.274-1.041-0.494-1.818
	c-4.68,2.75-9.585,2.858-14.591,3.046c-0.23-3.294-0.119-27.257-0.085-30.59c0.09-8.693,2.668-10.374,2.882-12.221
	c-4.405-0.866-17.198-0.414-18.76,0.148C124.325,172.552,126.678,174.075,126.747,182.768z M66.192,199.746
	c0.072,2.224-0.516,1.666,23.202,1.589c1.984-0.006,1.808-0.264,1.726-6.83c-0.033-2.639,0.538-2.114-12.535-2.112
	C64.571,192.396,65.895,190.608,66.192,199.746z M430.794,194.029c-0.07-2.2,0.915-1.676-22.567-1.633
	c-2.573,0.005-2.411-0.221-2.321,6.849c0.033,2.625-0.645,2.104,12.32,2.102C432.521,201.345,431.086,203.149,430.794,194.029z
	 M339.315,263.416c-0.955,7.518,8.011,8.806,9.489,2.879C350.905,257.874,340.226,256.24,339.315,263.416z"/>
</svg>
