<?xml version="1.0" encoding="utf-8"?>
<!-- Generator: Adobe Illustrator 28.0.0, SVG Export Plug-In . SVG Version: 6.00 Build 0)  -->
<svg version="1.1" id="Layer_1" xmlns="http://www.w3.org/2000/svg" xmlns:xlink="http://www.w3.org/1999/xlink" x="0px" y="0px"
	 viewBox="0 0 300 300" style="enable-background:new 0 0 300 300;" xml:space="preserve">
<style type="text/css">
	.st0{fill:#F194BA;}
	.st1{fill:#EECAB0;}
	.st2{fill:#ECA05A;}
	.st3{fill:#F4D1DE;}
	.st4{fill:#BFDEE0;}
</style>
<g>
	<path d="M214.22,122.76c0.03-0.07,0.06-0.14,0.08-0.22c0.01-0.05,0-0.11,0-0.16c0-0.08,0-0.15-0.02-0.22c0-0.02,0-0.04,0-0.05
		l-28.52-97.99c-0.14-0.48-0.63-0.78-1.12-0.68l-30.32,5.95l-0.28-0.16l0.65-2.17c0.13-0.43-0.05-0.89-0.44-1.11l-1.65-0.98
		l0.48-2.12c0.07-0.33-0.03-0.68-0.27-0.91c-0.24-0.24-0.59-0.33-0.92-0.24l-46.3,11.81c-0.29,0.07-0.54,0.28-0.66,0.56
		c-0.12,0.28-0.1,0.6,0.05,0.86l1.79,3.15l-0.28,0.49l-27.55,5.45c-0.02,0-0.04,0.02-0.06,0.03c-0.07,0.02-0.14,0.05-0.21,0.09
		c-0.05,0.03-0.09,0.05-0.13,0.08c-0.06,0.04-0.1,0.1-0.15,0.15c-0.03,0.03-0.06,0.05-0.08,0.09c-0.01,0.02-0.01,0.04-0.02,0.05
		c-0.03,0.06-0.05,0.12-0.07,0.19c-0.02,0.06-0.04,0.12-0.05,0.18c0,0.02-0.01,0.04-0.01,0.06c-0.02,0.33-0.35,8.39,2.56,24.98
		c2.67,15.25,8.72,40.89,22.38,76.4c0.15,0.38,0.51,0.62,0.91,0.62c0.04,0,0.09,0,0.13-0.01c5.58-0.78,98.13-16.36,109.74-23.73
		c0.01-0.01,0.01-0.01,0.02-0.02c0.05-0.03,0.08-0.08,0.12-0.12c0.05-0.05,0.11-0.1,0.15-0.17c0.01-0.01,0.01-0.01,0.02-0.02
		C214.21,122.85,214.21,122.8,214.22,122.76z M150.83,23.97l-0.28,1.26c-0.09,0.41,0.09,0.83,0.45,1.05l1.61,0.96l-0.65,2.19
		c-0.13,0.44,0.06,0.91,0.46,1.13l1.69,0.94l-1.61,2.33c-0.28,0.4-0.21,0.95,0.15,1.28l1.01,0.91l-43.03,10.98l0.27-1.35
		c0.09-0.43-0.13-0.87-0.53-1.06l-1.21-0.59l0.74-1.24c0.22-0.37,0.17-0.84-0.12-1.16l-1.7-1.84l0.67-1.18
		c0.17-0.3,0.17-0.66,0-0.96l-1.43-2.52L150.83,23.97z M106.22,40.61l1.63,1.75l-0.91,1.53c-0.14,0.23-0.17,0.52-0.1,0.78
		c0.08,0.26,0.26,0.48,0.51,0.6l1.49,0.73l-0.42,2.13c-0.06,0.33,0.04,0.67,0.29,0.9c0.18,0.17,0.42,0.27,0.67,0.27
		c0.08,0,0.16-0.01,0.24-0.03l46.3-11.81c0.35-0.09,0.62-0.36,0.71-0.71c0.09-0.35-0.03-0.72-0.3-0.96l-1.73-1.55l1.73-2.51
		c0.15-0.22,0.2-0.5,0.15-0.76l27.68-5.44l27.97,96.12c-7.75,1.59-56.72,11.41-67.07,7.96c-11.87-3.96-27.61-15.23-29.71-18.67
		c-0.14-0.22-0.36-0.38-0.61-0.44c-0.25-0.06-0.52-0.01-0.74,0.13c-0.4,0.26-0.9,0.62-1.48,1.03c-2.63,1.89-7.04,5.05-10.3,3.81
		c-3.93-1.49-7.32-9.77-8.19-13.67c-0.8-3.58-11.85-48.55-13.7-56.06L106.22,40.61z M130.41,124.78l-23.37-7.71
		c2.52-0.91,4.89-2.61,6.6-3.83c0.22-0.16,0.44-0.32,0.64-0.46C116.64,115.62,123.18,120.53,130.41,124.78z M82.65,69.69
		c-1.04-5.93-1.66-10.76-2.03-14.55c3.83,15.59,10.88,44.31,11.49,47.08c0.91,4.09,4.4,13.16,9.39,15.06
		c0.2,0.08,0.4,0.13,0.61,0.18c0.03,0.01,0.05,0.04,0.08,0.04l42.24,13.94c0,0,0,0,0,0c1.69,0.56,4.27,0.8,7.48,0.8
		c12.49,0,34.32-3.67,48.39-6.31c-27.01,7.31-85.71,17.45-95.67,18.94C91.26,109.96,85.3,84.74,82.65,69.69z"/>
	<path d="M100.89,85.18c0.55,0.47,1.45,0.33,2.1,0.18c0.99-0.23,1.78-0.52,1.51-1.72c-0.31-1.37-0.96-2.66-1.28-4.02
		c-0.03-0.11-0.11-0.29,0.06-0.33c0.82-0.19,2.95,4.86,4.73,4.45c0.82-0.19,2.14-0.77,1.91-1.79c-0.14-0.61-0.73-1.01-1.22-1.34
		c-0.89-0.6-1.81-1.72-2.5-2.57c1.14-0.62,1.49-2.4,1.23-3.56c-0.57-2.51-3.06-3.44-5.38-2.91c-2.2,0.5-3.31,1.87-3.32,4.11
		c0,1.66,0.21,3.31,0.58,4.92C99.51,81.52,100.27,84.66,100.89,85.18z M102.31,74.79c0.57-0.13,1.35,0.15,1.5,0.78
		c0.16,0.7-0.26,1.3-0.95,1.45c-0.38,0.09-0.41-0.33-0.48-0.61C102.33,76.18,102.03,74.85,102.31,74.79z"/>
	<path d="M111.08,80.88c0.34,0.92,0.87,2.05,1.95,2.23c0.46,0.08,0.93-0.04,1.39-0.16c1.02-0.26,2.02-0.58,2.99-0.96
		c1.18-0.43,2.66-1.23,2.27-2.74c-0.38-1.45-0.9-1.7-2.3-1.34c-0.79,0.21-1.56,0.49-2.36,0.69c-0.28,0.07-0.39,0.06-0.47-0.26
		c-0.33-1.28,3.39-0.98,2.86-3.02c-0.26-1-0.6-1.55-1.72-1.26c-0.53,0.14-1.06,0.35-1.58,0.49c-0.3,0.08-0.45-0.33-0.51-0.55
		c-0.14-0.53-0.05-0.81,0.52-0.96l2.11-0.55c1.28-0.33,1.18-0.95,0.89-2.08c-0.11-0.43-0.3-0.85-0.64-1.16
		c-0.82-0.77-2.93-0.13-3.85,0.11c-1.6,0.42-3.71,0.96-3.53,3.05c0.13,1.68,0.47,3.38,0.9,5.02
		C110.29,78.61,110.64,79.74,111.08,80.88z"/>
	<path d="M123.79,80.95c1.21-0.36,1.34-1.53,1.03-2.58c-0.2-0.67-0.58-1.29-0.79-1.98c-0.09-0.3-0.29-1.27,0.13-1.4
		c0.69-0.2,1.18,2.76,2.77,2.29c1.96-0.58-0.29-3.39,0.68-3.67c0.69-0.2,1.25,2.05,1.42,2.53c0.26,0.68,0.61,1.37,1.18,1.81
		c0.47,0.37,1.12,0.56,1.68,0.4c1.7-0.5,1.1-3.02,0.74-4.24c-0.51-1.74-2.44-6.77-3.64-8.01c-0.5-0.52-1.47-0.52-2.11-0.33
		c-0.65,0.19-1.27,0.66-1.46,1.32c-0.23,0.8,0.53,4.13-0.18,4.34c-1.14,0.34-1.37-4.79-4.31-3.93c-2.86,0.84-1.34,7.85-0.76,9.81
		C120.64,78.88,121.63,81.59,123.79,80.95z"/>
	<path d="M134.29,75.03c0.25,0.94,0.69,2.12,1.74,2.4c0.45,0.12,0.93,0.04,1.4-0.03c1.04-0.17,2.07-0.4,3.07-0.68
		c1.21-0.32,2.76-0.99,2.5-2.53c-0.24-1.48-0.75-1.77-2.17-1.54c-0.81,0.13-1.6,0.34-2.41,0.48c-0.29,0.05-0.39,0.03-0.44-0.3
		c-0.22-1.31,3.46-0.67,3.12-2.75c-0.17-1.02-0.46-1.6-1.6-1.41c-0.54,0.09-1.08,0.26-1.62,0.35c-0.31,0.05-0.42-0.37-0.45-0.6
		c-0.09-0.54,0.02-0.81,0.6-0.91l2.15-0.36c1.31-0.22,1.26-0.84,1.07-1.99c-0.07-0.44-0.22-0.87-0.54-1.21
		c-0.75-0.84-2.91-0.39-3.85-0.23c-1.63,0.27-3.79,0.63-3.8,2.72c-0.02,1.68,0.17,3.41,0.44,5.08
		C133.71,72.7,133.96,73.86,134.29,75.03z"/>
	<path d="M147.65,75.7c1.2-0.39,1.29-1.57,0.95-2.61c-0.22-0.67-0.62-1.27-0.84-1.96c-0.1-0.3-0.33-1.27,0.1-1.4
		c0.69-0.22,1.26,2.73,2.83,2.21c1.94-0.63-0.38-3.38,0.58-3.69c0.69-0.22,1.31,2.01,1.49,2.49c0.28,0.67,0.64,1.35,1.23,1.77
		c0.48,0.35,1.14,0.53,1.69,0.35c1.69-0.55,1.01-3.05,0.62-4.26c-0.56-1.72-2.64-6.7-3.87-7.9c-0.51-0.51-1.49-0.48-2.12-0.27
		c-0.65,0.21-1.25,0.69-1.42,1.36c-0.21,0.81,0.64,4.11-0.06,4.34c-1.13,0.37-1.51-4.75-4.42-3.81c-2.83,0.92-1.12,7.88-0.49,9.83
		C144.44,73.72,145.5,76.4,147.65,75.7z"/>
	<path d="M160.02,72.28c0.23,0.03,0.44,0,0.67-0.05c2.24-0.51,5.24-2.33,4.62-5.07c-0.42-1.84-2.2-2.1-2.26-2.22
		c0-0.02,0.02-0.07,0.04-0.09c0.92-1.23,2.08-2.61,1.7-4.28c-0.45-1.97-2.61-2.7-4.42-2.29c-1.31,0.3-2.72,1.14-3.33,2.38
		c-0.78,1.58-0.4,4.73-0.03,6.36C157.32,68.38,158.38,72.09,160.02,72.28z M162.15,68.21c0.13,0.55-0.35,1.08-0.88,1.2
		c-0.02,0-0.08,0-0.1-0.02c-0.15-0.06-0.35-0.92-0.39-1.11c-0.05-0.21-0.24-0.78,0.01-0.92C161.33,67.32,162.02,67.64,162.15,68.21z
		 M160.18,61.39c0.05-0.05,0.1-0.08,0.18-0.1c0.4-0.09,0.99,0.13,1.09,0.57c0.12,0.51-0.53,1.2-1,1.31
		c-0.13,0.03-0.2-0.01-0.23-0.15C160.15,62.77,160.02,61.57,160.18,61.39z"/>
	<path d="M166.85,67.65c0.19,0.96,0.54,2.16,1.57,2.51c0.44,0.15,0.93,0.11,1.39,0.06c1.05-0.1,2.09-0.26,3.1-0.47
		c1.23-0.23,2.82-0.8,2.67-2.35c-0.14-1.49-0.62-1.82-2.06-1.68c-0.81,0.08-1.62,0.23-2.44,0.31c-0.29,0.03-0.39,0-0.42-0.33
		c-0.13-1.32,3.5-0.43,3.3-2.53c-0.1-1.03-0.35-1.63-1.5-1.52c-0.54,0.05-1.1,0.18-1.64,0.23c-0.31,0.03-0.39-0.39-0.41-0.63
		c-0.05-0.54,0.08-0.81,0.66-0.86l2.17-0.21c1.32-0.13,1.32-0.75,1.21-1.92c-0.04-0.45-0.16-0.89-0.45-1.25
		c-0.69-0.89-2.87-0.59-3.82-0.5c-1.65,0.16-3.82,0.36-3.97,2.45c-0.13,1.68-0.07,3.41,0.09,5.1
		C166.43,65.29,166.6,66.46,166.85,67.65z"/>
	<path d="M178.62,68.12c0.55,0.47,1.45,0.33,2.1,0.18c0.99-0.23,1.78-0.52,1.51-1.72c-0.31-1.37-0.97-2.66-1.28-4.02
		c-0.03-0.11-0.11-0.29,0.06-0.33c0.82-0.19,2.95,4.86,4.73,4.45c0.82-0.19,2.14-0.77,1.91-1.79c-0.14-0.61-0.73-1.01-1.22-1.34
		c-0.89-0.59-1.81-1.72-2.5-2.57c1.14-0.62,1.49-2.4,1.23-3.56c-0.57-2.51-3.06-3.44-5.38-2.91c-2.2,0.5-3.31,1.87-3.32,4.11
		c0,1.66,0.21,3.31,0.58,4.92C177.24,64.46,178,67.6,178.62,68.12z M180.04,57.72c0.57-0.13,1.35,0.15,1.5,0.78
		c0.16,0.7-0.26,1.3-0.95,1.45c-0.38,0.09-0.41-0.33-0.48-0.61C180.06,59.12,179.76,57.79,180.04,57.72z"/>
	<path d="M116.09,91.27c-0.23-0.99-1.21-1.36-2.14-1.15c-0.42,0.1-0.71,0.3-0.88,0.7c-0.27,0.64-1.11,3.97-1.62,4.09
		c-0.1,0.02-0.17-0.02-0.22-0.09c-0.91-0.85-1.69-1.89-2.59-2.79c-0.31-0.31-0.73-0.37-1.14-0.28c-1.14,0.26-1.94,1.38-1.68,2.52
		c0.32,1.41,2.68,3.33,3.78,4.23c0.7,0.52,0.96,0.88,1.16,1.73c0.23,1.03,0.28,2.09,0.51,3.12c0.23,1.01,0.9,1.25,1.84,1.04
		c2.62-0.6,1.85-1.54,1.39-3.55c-0.2-0.89-0.42-1.86-0.33-2.78C114.36,95.94,116.53,93.21,116.09,91.27z"/>
	<path d="M121.27,89.26c-3.55,0.81-4.76,5.14-4.04,8.29c0.66,2.89,3.16,5.87,6.42,5.13c3.59-0.82,4.81-5.09,4.08-8.3
		C127.07,91.47,124.55,88.51,121.27,89.26z M122.8,98.1c-1.01,0.23-1.39-0.74-1.57-1.54c-0.18-0.8-0.17-2.84,0.86-3.07
		c1.01-0.23,1.56,1.4,1.72,2.12C124.02,96.5,123.9,97.85,122.8,98.1z"/>
	<path d="M136.97,86.77c-0.53-0.5-1.3-0.78-2-0.62c-1.69,0.39-1.4,2.44-1.1,3.67c0.2,0.89,0.42,1.76,0.62,2.65
		c0.08,0.36,0.12,0.97-0.37,1.08c-0.25,0.06-0.43-0.14-0.57-0.33c-1.1-1.49-0.61-4.42-2.18-5.64c-0.47-0.37-1.13-0.5-1.72-0.37
		c-1.46,0.33-1.7,1.65-1.45,2.91c0.14,0.81,0.29,1.61,0.47,2.41c0.54,2.35,1.44,4.99,3.47,6.44c1.03,0.74,2.37,1.12,3.63,0.83
		c0.25-0.06,0.51-0.14,0.72-0.24c3.32-1.58,2.65-6.44,1.99-9.31C138.2,89.11,137.86,87.61,136.97,86.77z"/>
	<path d="M149.67,93.48c-0.85-0.66-1.68-1.86-2.3-2.75c1.18-0.53,1.67-2.28,1.49-3.45c-0.38-2.54-2.79-3.66-5.14-3.31
		c-2.23,0.33-3.44,1.62-3.62,3.85c-0.13,1.65-0.04,3.31,0.21,4.95c0.14,0.93,0.66,4.12,1.23,4.68c0.51,0.51,1.42,0.44,2.08,0.34
		c1-0.15,1.81-0.39,1.63-1.6c-0.21-1.39-0.76-2.72-0.97-4.11c-0.02-0.11-0.08-0.3,0.09-0.33c0.83-0.12,2.57,5.07,4.38,4.8
		c0.83-0.12,2.19-0.6,2.04-1.65C150.7,94.3,150.14,93.85,149.67,93.48z M144.13,89.47c-0.39,0.06-0.39-0.36-0.43-0.64
		c-0.03-0.23-0.24-1.58,0.05-1.62c0.58-0.09,1.34,0.25,1.43,0.89C145.29,88.8,144.82,89.37,144.13,89.47z"/>
	<path d="M163.14,79.24c-3.38,1.07-0.71,5.64-1.99,6.04c-0.8,0.25-0.97-2.43-2.16-2.06c-1.26,0.4-0.21,2.95-1.27,3.28
		c-0.07,0.02-0.17-0.07-0.22-0.11c-0.65-0.82-1.03-2.35-1.73-3.34c-0.54-0.75-1.14-1.21-2.11-0.91c-1.21,0.38-1.94,1.35-1.54,2.63
		c0.09,0.28,0.21,0.55,0.36,0.81c1.21,2.07,2.09,4.28,3.03,6.48c0.57,1.35,1.65,3.34,3.47,2.77c2.32-0.73,0.99-4.87,2.16-5.24
		c0.95-0.3,0.97,4.19,3.52,3.38c1.75-0.55,1.88-2.47,1.86-4c-0.02-1.61-0.19-7.4-0.59-8.66C165.55,79.11,164.21,78.9,163.14,79.24z"
		/>
	<path d="M173.85,78.01c-0.35,0.56-0.07,2.51,0.03,3.19c0.06,0.42,0.17,0.84,0.23,1.27c0.09,0.62-0.55,0.81-1.03,0.88
		c-0.39,0.06-0.75,0.02-0.81-0.43c-0.14-0.94-0.19-1.92-0.34-2.86c-0.2-1.29-0.74-1.86-2.08-1.65c-2.35,0.36-2.31,2.34-2.04,4.21
		c0.27,1.75,0.51,3.51,0.78,5.26c0.14,0.91,0.58,3.44,1.42,3.9c0.26,0.16,0.57,0.15,0.88,0.1c1.17-0.18,2.15-0.5,2.06-1.89
		c-0.07-0.86-0.22-1.72-0.23-2.59c-0.03-0.59,0.62-0.82,1.1-0.9c0.42-0.06,0.63,0.36,0.68,0.72c0.15,1.02,0.22,2.08,0.37,3.12
		c0.13,0.89,1.41,0.73,2.03,0.64c1.56-0.24,1.75-1.19,1.68-2.58c-0.13-2.03-0.34-4.09-0.65-6.11c-0.12-0.81-0.57-4.01-0.96-4.5
		c-0.44-0.56-1.31-0.47-1.93-0.38C174.62,77.48,174.1,77.6,173.85,78.01z"/>
	<path d="M186.65,74.35c-0.42,0.1-0.71,0.3-0.88,0.7c-0.27,0.64-1.11,3.97-1.63,4.09c-0.1,0.02-0.17-0.02-0.22-0.09
		c-0.91-0.85-1.69-1.89-2.59-2.79c-0.31-0.31-0.72-0.37-1.14-0.28c-1.14,0.26-1.94,1.38-1.68,2.52c0.32,1.41,2.68,3.33,3.78,4.23
		c0.7,0.52,0.96,0.88,1.16,1.73c0.23,1.03,0.28,2.09,0.51,3.12c0.23,1.01,0.91,1.25,1.84,1.04c2.62-0.6,1.85-1.54,1.39-3.55
		c-0.2-0.89-0.42-1.86-0.33-2.78c0.21-2.13,2.39-4.86,1.95-6.8C188.56,74.51,187.58,74.14,186.65,74.35z"/>
	<path d="M159.87,100.63c10.1-3.02,20.2-6.04,30.3-9.07c1.2-0.36,0.69-2.24-0.52-1.88c-10.1,3.02-20.2,6.04-30.3,9.07
		C158.15,99.11,158.66,100.99,159.87,100.63z"/>
	<path d="M188,93.57c-9.98,3.66-20.05,7.04-30.21,10.15c-1.19,0.37-0.69,2.25,0.52,1.88c10.16-3.11,20.23-6.5,30.21-10.15
		C189.69,95.02,189.18,93.14,188,93.57z"/>
	<g>
		<path d="M148.93,107.65c-1.26-2.01-3.22-3.4-5.53-3.93c-2.31-0.53-4.68-0.13-6.69,1.13c-2.01,1.26-3.4,3.22-3.93,5.53
			c-0.53,2.31-0.13,4.68,1.13,6.69c1.26,2.01,3.22,3.4,5.53,3.93c0.9,0.21,1.81,0.27,2.71,0.2c1.4-0.11,2.77-0.57,3.98-1.33
			c2.01-1.26,3.4-3.22,3.93-5.53C150.59,112.03,150.19,109.66,148.93,107.65z M148.65,114.02c-0.44,1.93-1.61,3.58-3.3,4.63
			c-1.68,1.05-3.67,1.39-5.6,0.94c-1.93-0.44-3.58-1.61-4.63-3.3s-1.39-3.67-0.94-5.6c0.44-1.93,1.61-3.58,3.3-4.63
			c1.02-0.64,2.14-1.01,3.33-1.11c0.76-0.06,1.52-0.01,2.27,0.17c1.93,0.44,3.58,1.61,4.63,3.3
			C148.76,110.09,149.1,112.08,148.65,114.02z"/>
		<path d="M139.63,110.47c0.08,0.02,0.17,0.02,0.26,0.02c0.16-0.01,0.32-0.07,0.47-0.17c0.29-0.2,0.5-0.54,0.57-0.94
			c0.13-0.73-0.24-1.4-0.82-1.52l0,0c-0.24-0.05-0.5,0-0.72,0.15c-0.29,0.2-0.5,0.54-0.57,0.95
			C138.68,109.67,139.04,110.34,139.63,110.47z"/>
		<path d="M146.49,111.28c-0.2-0.15-0.48-0.19-0.71-0.09c-0.22,0.09-0.36,0.29-0.4,0.53c-0.07,0.53-0.17,1.08-0.32,1.69
			c-0.42,1.69-1.8,2.89-3.37,2.92c-2.19,0.04-3.61-1.44-3.83-2.85c-0.02-0.11-0.03-0.22-0.04-0.33c-0.05-0.66,0.06-1.35,0.16-2.02
			c0.03-0.22,0.07-0.44,0.09-0.67c0.02-0.14,0.05-0.43-0.14-0.65c-0.11-0.13-0.28-0.21-0.47-0.21c-0.21,0-0.42,0.11-0.55,0.27
			c-0.16,0.2-0.19,0.43-0.22,0.6c-0.19,1.18-0.41,2.53-0.03,3.8c0.54,1.79,2.18,3.1,4.19,3.35c0.19,0.02,0.39,0.04,0.59,0.04
			c0.17,0,0.34,0,0.51-0.02c0.97-0.08,1.86-0.42,2.54-0.98c0.84-0.69,1.51-1.67,1.78-2.61c0.21-0.71,0.36-1.44,0.45-2.17
			C146.77,111.65,146.68,111.43,146.49,111.28L146.49,111.28z"/>
		<path d="M143.78,111.26c0.08,0.02,0.17,0.02,0.25,0.02c0.16-0.01,0.32-0.07,0.47-0.17c0.29-0.2,0.5-0.54,0.57-0.95
			c0.12-0.73-0.24-1.4-0.82-1.52l0,0c-0.24-0.05-0.5,0-0.72,0.15c-0.29,0.2-0.5,0.54-0.57,0.95
			C142.83,110.46,143.2,111.13,143.78,111.26z"/>
	</g>
	<g>
		<path d="M151.09,55.29c-1.2,0-4.23-0.9-6.04-2.11c-1.55-1.03-2.07-2.95-1.24-4.56c0.39-0.75,1.08-1.31,1.95-1.57
			c0.71-0.21,1.46-0.2,2.13,0.03c0.6-1.49,2.11-2.36,3.77-2.11c0.79,0.12,1.51,0.57,2.02,1.27c0.57,0.78,0.82,1.76,0.68,2.68
			c-0.28,1.83-2.08,5.97-2.88,6.31C151.39,55.27,151.26,55.29,151.09,55.29z M150.78,54.08L150.78,54.08L150.78,54.08z
			 M146.78,48.26c-0.21,0-0.42,0.03-0.63,0.09c-0.51,0.15-0.91,0.47-1.12,0.89c-0.51,0.99-0.18,2.17,0.78,2.8
			c1.71,1.14,4.28,1.79,5.09,1.88c0.49-0.74,1.84-3.44,2.12-5.22c0.09-0.56-0.07-1.18-0.43-1.66c-0.3-0.41-0.7-0.67-1.13-0.73l0,0
			c-1.15-0.17-2.14,0.49-2.41,1.61l-0.06,0.27c-0.05,0.21-0.19,0.38-0.39,0.47c-0.2,0.09-0.42,0.07-0.61-0.03l-0.22-0.12
			C147.48,48.35,147.13,48.26,146.78,48.26z"/>
	</g>
	<g>
		<path d="M194.08,105.81c-0.01,0-0.03,0-0.04,0c-0.28-0.02-0.53-0.21-0.61-0.49c-0.21-0.69-0.36-1.25-0.48-1.71
			c-0.47-1.74-0.47-1.74-2.14-2.44c-0.44-0.18-0.97-0.41-1.63-0.7c-0.26-0.12-0.42-0.38-0.4-0.67c0.02-0.28,0.21-0.53,0.49-0.61
			c0.69-0.21,1.25-0.36,1.71-0.48c1.74-0.47,1.74-0.47,2.44-2.14c0.18-0.44,0.41-0.97,0.7-1.63c0.12-0.26,0.36-0.42,0.67-0.4
			c0.28,0.02,0.53,0.21,0.61,0.49c0.21,0.69,0.36,1.25,0.48,1.71c0.47,1.74,0.47,1.74,2.14,2.44c0.44,0.18,0.98,0.41,1.64,0.7
			c0.26,0.12,0.42,0.38,0.4,0.67c-0.02,0.28-0.21,0.53-0.49,0.61c-0.69,0.21-1.25,0.36-1.71,0.48c-1.74,0.47-1.74,0.47-2.44,2.14
			c-0.18,0.44-0.41,0.98-0.7,1.64C194.59,105.65,194.34,105.81,194.08,105.81z M191.49,99.98c1.97,0.82,2.16,1.04,2.72,3.1
			c0.82-1.97,1.04-2.16,3.1-2.72c-1.97-0.82-2.16-1.04-2.72-3.1C193.76,99.22,193.55,99.41,191.49,99.98z"/>
	</g>
	<g>
		<path d="M109.99,66.52c-0.18,0-0.35-0.07-0.48-0.2c-0.51-0.51-0.92-0.93-1.25-1.27c-1.25-1.3-1.25-1.3-3.05-1.11
			c-0.47,0.05-1.05,0.11-1.77,0.17c-0.28,0.02-0.55-0.13-0.67-0.39c-0.12-0.26-0.07-0.56,0.13-0.77c0.51-0.51,0.92-0.92,1.27-1.25
			c1.3-1.26,1.3-1.26,1.11-3.05c-0.05-0.47-0.11-1.05-0.17-1.77c-0.02-0.28,0.13-0.55,0.39-0.67c0.26-0.12,0.56-0.07,0.77,0.13
			c0.51,0.51,0.92,0.92,1.25,1.27c1.25,1.3,1.25,1.3,3.05,1.11c0.47-0.05,1.05-0.11,1.77-0.17c0.29-0.02,0.55,0.13,0.67,0.39
			c0.12,0.26,0.07,0.56-0.13,0.77c-0.51,0.51-0.92,0.92-1.27,1.25c-1.3,1.26-1.3,1.26-1.11,3.05c0.05,0.47,0.11,1.05,0.17,1.77
			c0.02,0.28-0.13,0.55-0.39,0.67C110.19,66.5,110.09,66.52,109.99,66.52z M106.52,62.48c1.06,0,1.49,0.34,2.61,1.5
			c-0.22-2.12-0.13-2.39,1.41-3.88c-2.12,0.23-2.39,0.13-3.88-1.41c0.23,2.12,0.13,2.39-1.41,3.88
			C105.77,62.52,106.18,62.48,106.52,62.48z"/>
	</g>
	<g>
		<path d="M165.45,120.67c-0.02,0-0.05,0-0.07,0c-0.76-0.11-3.36-2.87-4.4-5.12c-0.78-1.69-0.21-3.6,1.34-4.53
			c0.73-0.44,1.61-0.55,2.48-0.31c0.72,0.19,1.35,0.6,1.8,1.15c1.3-0.96,3.03-0.91,4.32,0.18c0.61,0.52,0.98,1.28,1.05,2.15
			c0.08,0.96-0.22,1.92-0.83,2.63C169.97,118.17,166.42,120.66,165.45,120.67z M165.39,119.32L165.39,119.32L165.39,119.32z
			 M163.91,111.94c-0.32,0-0.62,0.08-0.88,0.24c-0.95,0.57-1.29,1.75-0.81,2.8c0.86,1.87,2.71,3.77,3.35,4.27
			c0.8-0.37,3.37-1.96,4.54-3.33c0.37-0.43,0.55-1.04,0.51-1.64c-0.04-0.5-0.25-0.93-0.58-1.22c0,0,0,0,0,0
			c-0.88-0.75-2.07-0.7-2.89,0.11l-0.2,0.2c-0.15,0.15-0.37,0.22-0.58,0.19c-0.21-0.03-0.4-0.16-0.5-0.35l-0.12-0.22
			c-0.26-0.47-0.74-0.83-1.29-0.98C164.27,111.96,164.08,111.94,163.91,111.94z"/>
	</g>
</g>
<g>
	<path d="M221.49,257.74c0.03-0.07,0.06-0.14,0.08-0.22c0.01-0.05,0-0.11,0-0.16c0-0.08,0-0.15-0.02-0.22c0-0.02,0-0.04,0-0.05
		l-28.52-97.99c-0.14-0.48-0.63-0.78-1.12-0.68l-30.32,5.95l-0.28-0.16l0.65-2.17c0.13-0.43-0.05-0.89-0.44-1.11l-1.65-0.98
		l0.48-2.12c0.07-0.33-0.03-0.68-0.27-0.91c-0.24-0.24-0.59-0.33-0.92-0.24l-46.3,11.81c-0.29,0.07-0.54,0.28-0.66,0.56
		c-0.12,0.28-0.1,0.6,0.05,0.86l1.79,3.15l-0.28,0.49L86.2,179c-0.02,0-0.04,0.02-0.06,0.03c-0.07,0.02-0.14,0.05-0.21,0.09
		c-0.05,0.03-0.09,0.05-0.13,0.08c-0.06,0.04-0.1,0.1-0.15,0.15c-0.03,0.03-0.06,0.05-0.08,0.09c-0.01,0.02-0.01,0.04-0.02,0.05
		c-0.03,0.06-0.05,0.12-0.07,0.19c-0.02,0.06-0.04,0.12-0.05,0.18c0,0.02-0.01,0.04-0.01,0.06c-0.02,0.33-0.35,8.39,2.56,24.98
		c2.67,15.25,8.72,40.89,22.38,76.4c0.15,0.38,0.51,0.62,0.91,0.62c0.04,0,0.09,0,0.13-0.01c5.58-0.78,98.13-16.36,109.74-23.73
		c0.01-0.01,0.01-0.01,0.02-0.02c0.05-0.03,0.08-0.08,0.12-0.11c0.05-0.05,0.11-0.1,0.15-0.17c0.01-0.01,0.01-0.01,0.02-0.02
		C221.47,257.82,221.47,257.78,221.49,257.74z"/>
	<path class="st0" d="M158.1,158.95l-0.28,1.26c-0.09,0.41,0.09,0.83,0.45,1.05l1.61,0.96l-0.65,2.19
		c-0.13,0.44,0.06,0.91,0.46,1.13l1.69,0.94l-1.61,2.33c-0.28,0.4-0.21,0.95,0.15,1.28l1.01,0.91l-43.03,10.98l0.27-1.35
		c0.09-0.43-0.13-0.87-0.53-1.06l-1.21-0.59l0.74-1.24c0.22-0.37,0.17-0.84-0.12-1.16l-1.7-1.84l0.67-1.18
		c0.17-0.3,0.17-0.66,0-0.96l-1.43-2.52L158.1,158.95z"/>
	<path class="st1" d="M149.23,240.71c-0.75-0.17-1.52-0.23-2.27-0.17c-1.19,0.1-2.31,0.47-3.33,1.11c-1.68,1.05-2.85,2.7-3.3,4.63
		c-0.44,1.93-0.11,3.92,0.94,5.6c1.05,1.68,2.7,2.85,4.63,3.3c1.93,0.44,3.92,0.11,5.6-0.94c1.68-1.05,2.85-2.7,3.3-4.63
		c0.44-1.93,0.11-3.92-0.94-5.6C152.81,242.32,151.16,241.15,149.23,240.71z M149.11,245.32c0.07-0.4,0.28-0.75,0.57-0.95
		c0.22-0.15,0.48-0.2,0.72-0.15l0,0c0.59,0.12,0.95,0.79,0.82,1.52c-0.07,0.4-0.28,0.75-0.57,0.95c-0.15,0.1-0.31,0.16-0.47,0.17
		c-0.09,0.01-0.17,0-0.25-0.02C149.35,246.72,148.99,246.05,149.11,245.32z M144.95,244.53c0.07-0.4,0.28-0.75,0.57-0.95
		c0.22-0.15,0.48-0.2,0.72-0.15l0,0c0.59,0.12,0.95,0.79,0.82,1.52c-0.07,0.4-0.28,0.75-0.57,0.94c-0.15,0.1-0.31,0.16-0.47,0.17
		c-0.09,0.01-0.17,0-0.26-0.02C145.19,245.93,144.83,245.26,144.95,244.53z M152.43,249.65c-0.28,0.94-0.94,1.92-1.78,2.61
		c-0.68,0.56-1.57,0.91-2.54,0.98c-0.17,0.01-0.34,0.02-0.51,0.02c-0.2,0-0.39-0.02-0.59-0.04c-2.01-0.25-3.65-1.56-4.19-3.35
		c-0.38-1.27-0.17-2.62,0.03-3.8c0.03-0.17,0.07-0.41,0.22-0.6c0.13-0.17,0.34-0.27,0.55-0.27c0.18,0,0.36,0.07,0.47,0.21
		c0.19,0.22,0.15,0.51,0.14,0.65c-0.03,0.22-0.06,0.44-0.09,0.67c-0.1,0.67-0.2,1.36-0.16,2.02c0.01,0.11,0.02,0.22,0.04,0.33
		c0.22,1.41,1.64,2.89,3.83,2.85c1.57-0.03,2.95-1.23,3.37-2.92c0.15-0.61,0.26-1.16,0.32-1.69c0.03-0.24,0.18-0.44,0.4-0.53
		c0.23-0.1,0.51-0.06,0.71,0.09l0,0c0.19,0.14,0.28,0.37,0.25,0.61C152.79,248.21,152.64,248.94,152.43,249.65z"/>
	<g>
		<path class="st2" d="M115.28,199.57c-0.22-2.12-0.13-2.39,1.41-3.88c-2.12,0.23-2.39,0.13-3.88-1.41
			c0.23,2.12,0.13,2.39-1.41,3.88c0.52-0.06,0.93-0.09,1.27-0.09C113.73,198.07,114.16,198.41,115.28,199.57z"/>
		<path class="st2" d="M200.74,232.84c-0.82,1.97-1.04,2.16-3.1,2.72c1.97,0.82,2.16,1.04,2.72,3.1c0.82-1.97,1.04-2.16,3.1-2.72
			C201.49,235.12,201.3,234.9,200.74,232.84z"/>
	</g>
	<g>
		<path class="st3" d="M151.95,187.63c1.71,1.14,4.28,1.79,5.09,1.88c0.49-0.74,1.84-3.44,2.12-5.22c0.09-0.56-0.07-1.18-0.43-1.66
			c-0.3-0.41-0.7-0.67-1.13-0.73c-1.15-0.17-2.14,0.49-2.41,1.61l-0.06,0.27c-0.05,0.21-0.19,0.38-0.39,0.47
			c-0.2,0.09-0.42,0.07-0.61-0.03l-0.22-0.12c-0.29-0.16-0.63-0.25-0.99-0.25c-0.21,0-0.42,0.03-0.63,0.09
			c-0.51,0.15-0.91,0.47-1.12,0.89C150.67,185.82,150.99,186.99,151.95,187.63z"/>
		<path class="st3" d="M176.18,248.65c-0.88-0.75-2.07-0.7-2.89,0.11l-0.2,0.2c-0.15,0.15-0.37,0.22-0.58,0.19
			c-0.21-0.03-0.4-0.16-0.5-0.35l-0.12-0.22c-0.26-0.47-0.74-0.83-1.29-0.98c-0.18-0.05-0.36-0.07-0.54-0.07
			c-0.32,0-0.62,0.08-0.88,0.24c-0.95,0.57-1.29,1.75-0.81,2.8c0.86,1.87,2.71,3.77,3.35,4.27c0.8-0.37,3.37-1.96,4.54-3.33
			c0.37-0.43,0.55-1.04,0.51-1.64C176.72,249.36,176.52,248.93,176.18,248.65C176.18,248.65,176.18,248.65,176.18,248.65z"/>
	</g>
	<g>
		<g>
			<path class="st4" d="M137.68,259.76l-23.37-7.71c2.52-0.91,4.89-2.61,6.6-3.83c0.22-0.16,0.44-0.32,0.64-0.46
				C123.91,250.6,130.44,255.51,137.68,259.76z"/>
			<path class="st4" d="M89.92,204.67c-1.04-5.93-1.66-10.76-2.03-14.55c3.83,15.59,10.88,44.31,11.49,47.08
				c0.91,4.09,4.4,13.16,9.39,15.06c0.2,0.08,0.4,0.13,0.61,0.18c0.03,0.01,0.05,0.04,0.08,0.04l42.24,13.94c0,0,0,0,0,0
				c1.69,0.56,4.27,0.8,7.48,0.8c12.49,0,34.32-3.67,48.39-6.31c-27.01,7.31-85.71,17.45-95.67,18.94
				C98.52,244.94,92.56,219.71,89.92,204.67z"/>
		</g>
		<path class="st4" d="M151.44,223.25c-0.29,0.04-0.09,1.39-0.05,1.62c0.04,0.29,0.05,0.7,0.43,0.64c0.69-0.1,1.16-0.67,1.05-1.38
			C152.78,223.51,152.02,223.17,151.44,223.25z"/>
		<path class="st4" d="M111.5,211.61c-0.14-0.63-0.93-0.91-1.5-0.78c-0.29,0.06,0.02,1.39,0.07,1.62c0.06,0.29,0.1,0.7,0.48,0.61
			C111.24,212.91,111.67,212.32,111.5,211.61z"/>
		<path class="st4" d="M129.78,229.53c-1.03,0.23-1.04,2.27-0.86,3.07c0.18,0.8,0.56,1.77,1.57,1.54c1.1-0.25,1.21-1.6,1.01-2.49
			C131.34,230.94,130.79,229.31,129.78,229.53z"/>
		<path class="st4" d="M168.14,199.22c0.47-0.11,1.12-0.79,1-1.31c-0.1-0.44-0.69-0.66-1.09-0.57c-0.08,0.02-0.13,0.05-0.18,0.1
			c-0.16,0.18-0.02,1.38,0.03,1.63C167.93,199.21,168,199.25,168.14,199.22z"/>
		<path class="st4" d="M168.47,204.34c0.04,0.19,0.24,1.05,0.39,1.11c0.02,0.02,0.08,0.02,0.1,0.02c0.53-0.12,1.01-0.65,0.88-1.2
			c-0.13-0.57-0.82-0.89-1.37-0.85C168.23,203.55,168.42,204.13,168.47,204.34z"/>
		<path class="st4" d="M188.29,196.01c0.68-0.16,1.11-0.75,0.95-1.45c-0.14-0.63-0.93-0.91-1.5-0.78c-0.28,0.06,0.02,1.39,0.07,1.62
			C187.87,195.68,187.91,196.09,188.29,196.01z"/>
		<path class="st4" d="M191.41,160.5l-27.68,5.44c0.06,0.26,0.01,0.54-0.15,0.76l-1.73,2.51l1.73,1.55c0.27,0.24,0.38,0.61,0.3,0.96
			c-0.09,0.35-0.36,0.62-0.71,0.71l-46.3,11.81c-0.08,0.02-0.16,0.03-0.24,0.03c-0.25,0-0.49-0.09-0.67-0.27
			c-0.24-0.23-0.35-0.57-0.29-0.9l0.42-2.13l-1.49-0.73c-0.24-0.12-0.43-0.34-0.51-0.6c-0.08-0.26-0.04-0.54,0.1-0.78l0.91-1.53
			l-1.63-1.75l-25.9,5.13c1.85,7.51,12.9,52.48,13.7,56.06c0.87,3.89,4.26,12.17,8.19,13.67c3.27,1.24,7.67-1.92,10.3-3.81
			c0.58-0.41,1.08-0.77,1.48-1.03c0.22-0.14,0.49-0.19,0.74-0.13c0.25,0.06,0.48,0.22,0.61,0.44c2.1,3.44,17.84,14.71,29.71,18.67
			c10.35,3.45,59.32-6.37,67.07-7.96L191.41,160.5z M197.86,227.62c-10.1,3.02-20.2,6.04-30.3,9.07c-1.21,0.36-1.72-1.52-0.52-1.88
			c10.1-3.02,20.2-6.04,30.3-9.07C198.55,225.38,199.06,227.26,197.86,227.62z M196.48,211.55c0.44,1.94-1.73,4.67-1.95,6.8
			c-0.09,0.92,0.13,1.89,0.33,2.78c0.46,2.01,1.23,2.96-1.39,3.55c-0.93,0.21-1.61-0.03-1.84-1.04c-0.23-1.03-0.28-2.1-0.51-3.12
			c-0.19-0.86-0.46-1.21-1.16-1.73c-1.11-0.91-3.46-2.83-3.78-4.23c-0.26-1.14,0.54-2.26,1.68-2.52c0.42-0.09,0.83-0.03,1.14,0.28
			c0.9,0.89,1.68,1.94,2.59,2.79c0.06,0.07,0.13,0.11,0.22,0.09c0.51-0.12,1.35-3.44,1.63-4.09c0.17-0.4,0.46-0.61,0.88-0.7
			C195.27,210.19,196.26,210.56,196.48,211.55z M187.47,190.56c2.32-0.53,4.81,0.4,5.38,2.91c0.26,1.16-0.09,2.94-1.23,3.56
			c0.69,0.84,1.61,1.97,2.5,2.57c0.49,0.33,1.09,0.73,1.22,1.34c0.23,1.03-1.09,1.61-1.91,1.79c-1.79,0.41-3.92-4.64-4.73-4.45
			c-0.17,0.04-0.09,0.22-0.06,0.33c0.31,1.37,0.97,2.66,1.28,4.02c0.27,1.2-0.52,1.5-1.51,1.72c-0.65,0.15-1.55,0.29-2.1-0.18
			c-0.62-0.52-1.38-3.66-1.58-4.57c-0.37-1.61-0.58-3.26-0.58-4.92C184.16,192.43,185.26,191.06,187.47,190.56z M184.66,213.85
			c0.39,0.49,0.84,3.7,0.96,4.5c0.31,2.02,0.52,4.08,0.65,6.11c0.07,1.39-0.12,2.34-1.68,2.58c-0.62,0.09-1.89,0.25-2.03-0.64
			c-0.16-1.04-0.22-2.1-0.37-3.12c-0.06-0.37-0.26-0.79-0.68-0.72c-0.48,0.07-1.13,0.31-1.1,0.9c0.01,0.87,0.16,1.73,0.23,2.59
			c0.09,1.38-0.88,1.71-2.06,1.89c-0.31,0.05-0.62,0.06-0.88-0.1c-0.84-0.46-1.28-3-1.42-3.9c-0.27-1.75-0.51-3.51-0.78-5.26
			c-0.26-1.87-0.31-3.85,2.04-4.21c1.35-0.2,1.89,0.36,2.08,1.65c0.14,0.94,0.19,1.92,0.34,2.86c0.07,0.44,0.43,0.49,0.81,0.43
			c0.48-0.07,1.12-0.27,1.03-0.88c-0.06-0.42-0.17-0.84-0.23-1.27c-0.1-0.67-0.38-2.62-0.03-3.19c0.25-0.41,0.77-0.53,1.19-0.6
			C183.35,213.38,184.22,213.28,184.66,213.85z M173.91,195.04c0.15-2.09,2.32-2.3,3.97-2.45c0.95-0.09,3.13-0.4,3.82,0.5
			c0.29,0.36,0.41,0.8,0.45,1.25c0.11,1.16,0.11,1.79-1.21,1.92l-2.17,0.21c-0.58,0.06-0.71,0.32-0.66,0.86
			c0.02,0.23,0.1,0.66,0.41,0.63c0.54-0.05,1.1-0.18,1.64-0.23c1.14-0.11,1.4,0.49,1.5,1.52c0.2,2.09-3.43,1.21-3.3,2.53
			c0.03,0.33,0.13,0.36,0.42,0.33c0.81-0.08,1.62-0.23,2.44-0.31c1.43-0.14,1.92,0.19,2.06,1.68c0.15,1.55-1.44,2.11-2.67,2.35
			c-1.02,0.21-2.06,0.37-3.1,0.47c-0.47,0.04-0.95,0.09-1.39-0.06c-1.03-0.35-1.38-1.55-1.57-2.51c-0.25-1.19-0.42-2.37-0.54-3.57
			C173.85,198.45,173.78,196.71,173.91,195.04z M164.73,196.7c0.62-1.24,2.02-2.08,3.33-2.38c1.8-0.41,3.97,0.31,4.42,2.29
			c0.38,1.67-0.78,3.06-1.7,4.28c-0.02,0.02-0.04,0.07-0.04,0.09c0.07,0.12,1.84,0.38,2.26,2.22c0.62,2.73-2.38,4.56-4.62,5.07
			c-0.23,0.05-0.44,0.08-0.67,0.05c-1.64-0.19-2.71-3.9-3.02-5.27C164.33,201.43,163.95,198.28,164.73,196.7z M149.96,184.2
			c0.39-0.75,1.08-1.31,1.95-1.57c0.71-0.21,1.46-0.2,2.13,0.03c0.6-1.49,2.11-2.36,3.77-2.11c0.79,0.12,1.51,0.57,2.02,1.27
			c0.57,0.78,0.82,1.76,0.68,2.68c-0.28,1.83-2.08,5.97-2.88,6.31c-0.09,0.04-0.22,0.06-0.39,0.06c-1.2,0-4.23-0.9-6.04-2.11
			C149.65,187.74,149.13,185.82,149.96,184.2z M144.55,199.76c0.94-0.16,3.1-0.61,3.85,0.23c0.31,0.34,0.46,0.77,0.54,1.21
			c0.19,1.15,0.24,1.78-1.07,1.99l-2.15,0.36c-0.58,0.1-0.69,0.37-0.6,0.91c0.04,0.23,0.15,0.65,0.45,0.6
			c0.54-0.09,1.08-0.26,1.62-0.35c1.13-0.19,1.43,0.4,1.6,1.41c0.34,2.08-3.34,1.44-3.12,2.75c0.05,0.33,0.16,0.35,0.44,0.3
			c0.81-0.13,1.6-0.34,2.41-0.48c1.42-0.23,1.92,0.06,2.17,1.54c0.25,1.54-1.29,2.21-2.5,2.53c-1,0.28-2.03,0.51-3.07,0.68
			c-0.46,0.08-0.94,0.16-1.4,0.03c-1.05-0.28-1.48-1.45-1.74-2.4c-0.33-1.17-0.58-2.33-0.78-3.52c-0.28-1.67-0.46-3.4-0.44-5.08
			C140.77,200.39,142.92,200.03,144.55,199.76z M109.06,198.55c0.51-0.51,0.92-0.92,1.27-1.25c1.3-1.26,1.3-1.26,1.11-3.05
			c-0.05-0.47-0.11-1.05-0.17-1.77c-0.02-0.28,0.13-0.55,0.39-0.67c0.26-0.12,0.56-0.07,0.77,0.13c0.51,0.51,0.92,0.92,1.25,1.27
			c1.25,1.3,1.25,1.3,3.05,1.11c0.47-0.05,1.05-0.11,1.77-0.17c0.29-0.02,0.55,0.13,0.67,0.39c0.12,0.26,0.07,0.56-0.13,0.77
			c-0.51,0.51-0.92,0.92-1.27,1.25c-1.3,1.26-1.3,1.26-1.11,3.05c0.05,0.47,0.11,1.05,0.17,1.77c0.02,0.28-0.13,0.55-0.39,0.67
			c-0.09,0.04-0.19,0.06-0.29,0.06c-0.18,0-0.35-0.07-0.48-0.2c-0.51-0.51-0.92-0.93-1.25-1.27c-1.25-1.3-1.25-1.3-3.05-1.11
			c-0.47,0.05-1.05,0.11-1.77,0.17c-0.28,0.02-0.55-0.13-0.67-0.39C108.8,199.06,108.86,198.76,109.06,198.55z M110.68,221.41
			c-0.65,0.15-1.55,0.29-2.1-0.18c-0.62-0.52-1.38-3.66-1.58-4.57c-0.37-1.61-0.58-3.26-0.58-4.92c0.01-2.24,1.11-3.61,3.32-4.11
			c2.32-0.53,4.81,0.4,5.38,2.91c0.26,1.16-0.09,2.94-1.23,3.56c0.69,0.84,1.61,1.97,2.5,2.57c0.49,0.33,1.09,0.73,1.22,1.34
			c0.23,1.03-1.09,1.61-1.91,1.79c-1.79,0.41-3.92-4.64-4.73-4.45c-0.17,0.04-0.09,0.22-0.06,0.33c0.31,1.37,0.97,2.66,1.28,4.02
			C112.46,220.89,111.67,221.19,110.68,221.41z M122.18,236.9c0.46,2.01,1.23,2.96-1.39,3.55c-0.93,0.21-1.61-0.03-1.84-1.04
			c-0.23-1.03-0.28-2.1-0.51-3.12c-0.2-0.86-0.46-1.21-1.16-1.73c-1.11-0.91-3.46-2.83-3.78-4.23c-0.26-1.14,0.54-2.26,1.68-2.52
			c0.42-0.09,0.83-0.03,1.14,0.28c0.9,0.89,1.68,1.94,2.59,2.79c0.06,0.07,0.13,0.11,0.22,0.09c0.51-0.12,1.35-3.44,1.62-4.09
			c0.17-0.4,0.46-0.61,0.88-0.7c0.93-0.21,1.92,0.16,2.14,1.15c0.44,1.94-1.73,4.67-1.95,6.8
			C121.75,235.04,121.97,236.01,122.18,236.9z M122.11,219c-0.45,0.12-0.92,0.24-1.39,0.16c-1.07-0.18-1.61-1.31-1.95-2.23
			c-0.43-1.13-0.79-2.27-1.09-3.44c-0.43-1.64-0.77-3.34-0.9-5.02c-0.18-2.09,1.93-2.64,3.53-3.05c0.92-0.24,3.03-0.89,3.85-0.11
			c0.34,0.31,0.53,0.73,0.64,1.16c0.29,1.13,0.39,1.75-0.89,2.08l-2.11,0.55c-0.57,0.15-0.65,0.43-0.52,0.96
			c0.06,0.23,0.2,0.63,0.51,0.55c0.53-0.14,1.06-0.35,1.58-0.49c1.11-0.29,1.46,0.26,1.72,1.26c0.53,2.04-3.19,1.73-2.86,3.02
			c0.08,0.32,0.19,0.33,0.47,0.26c0.79-0.21,1.56-0.49,2.36-0.69c1.4-0.36,1.92-0.12,2.3,1.34c0.39,1.51-1.09,2.31-2.27,2.74
			C124.13,218.42,123.13,218.74,122.11,219z M131.34,238.73c-3.27,0.75-5.77-2.24-6.42-5.13c-0.72-3.15,0.49-7.48,4.04-8.29
			c3.29-0.75,5.8,2.21,6.46,5.12C136.15,233.64,134.93,237.91,131.34,238.73z M135.32,209.66c-0.97,0.29,1.28,3.1-0.68,3.67
			c-1.59,0.47-2.07-2.49-2.77-2.29c-0.43,0.13-0.22,1.1-0.13,1.4c0.2,0.69,0.59,1.31,0.79,1.98c0.31,1.05,0.19,2.22-1.03,2.58
			c-2.17,0.64-3.15-2.08-3.61-3.65c-0.58-1.96-2.09-8.97,0.76-9.81c2.93-0.86,3.17,4.27,4.31,3.93c0.71-0.21-0.05-3.54,0.18-4.34
			c0.19-0.66,0.8-1.13,1.46-1.32c0.64-0.19,1.61-0.19,2.11,0.33c1.2,1.23,3.13,6.27,3.64,8.01c0.36,1.22,0.96,3.74-0.74,4.24
			c-0.56,0.17-1.21-0.03-1.68-0.4c-0.58-0.44-0.92-1.13-1.18-1.81C136.57,211.71,136.01,209.46,135.32,209.66z M135.88,226.19
			c-0.25-1.26-0.01-2.58,1.45-2.91c0.59-0.13,1.26-0.01,1.72,0.37c1.58,1.22,1.09,4.15,2.18,5.64c0.14,0.19,0.33,0.38,0.57,0.33
			c0.49-0.11,0.45-0.72,0.37-1.08c-0.2-0.89-0.42-1.76-0.62-2.65c-0.3-1.23-0.59-3.28,1.1-3.67c0.7-0.16,1.47,0.13,2,0.62
			c0.89,0.84,1.23,2.34,1.49,3.49c0.65,2.87,1.32,7.73-1.99,9.31c-0.22,0.11-0.48,0.19-0.72,0.24c-1.25,0.29-2.6-0.09-3.63-0.83
			c-2.03-1.46-2.93-4.09-3.47-6.44C136.17,227.8,136.02,226.99,135.88,226.19z M156.21,249.93c-0.53,2.31-1.93,4.27-3.93,5.53
			c-1.2,0.75-2.58,1.21-3.98,1.33c-0.9,0.07-1.82,0.01-2.71-0.2c-2.31-0.53-4.27-1.93-5.53-3.93c-1.26-2.01-1.66-4.38-1.13-6.69
			c0.53-2.31,1.93-4.27,3.93-5.53c2.01-1.26,4.38-1.66,6.69-1.13c2.31,0.53,4.27,1.93,5.53,3.93
			C156.34,245.24,156.74,247.62,156.21,249.93z M156.45,232.61c-1.81,0.27-3.55-4.92-4.38-4.8c-0.17,0.03-0.11,0.21-0.09,0.33
			c0.21,1.39,0.76,2.72,0.97,4.11c0.18,1.21-0.63,1.45-1.63,1.6c-0.66,0.1-1.57,0.18-2.08-0.34c-0.58-0.56-1.09-3.76-1.23-4.68
			c-0.25-1.64-0.34-3.3-0.21-4.95c0.18-2.23,1.38-3.52,3.62-3.85c2.35-0.35,4.76,0.76,5.14,3.31c0.18,1.18-0.31,2.92-1.49,3.45
			c0.63,0.89,1.46,2.09,2.3,2.75c0.47,0.36,1.03,0.81,1.12,1.43C158.64,232,157.28,232.48,156.45,232.61z M158.38,208
			c-1.57,0.51-2.15-2.44-2.83-2.21c-0.43,0.14-0.19,1.11-0.1,1.4c0.22,0.69,0.63,1.29,0.84,1.96c0.34,1.04,0.25,2.21-0.95,2.61
			c-2.15,0.7-3.21-1.99-3.72-3.54c-0.63-1.94-2.35-8.9,0.49-9.83c2.91-0.95,3.29,4.17,4.42,3.81c0.7-0.23-0.15-3.54,0.06-4.34
			c0.17-0.67,0.77-1.15,1.42-1.36c0.63-0.21,1.6-0.24,2.12,0.27c1.23,1.2,3.3,6.18,3.87,7.9c0.39,1.2,1.06,3.71-0.62,4.26
			c-0.56,0.18-1.21,0-1.69-0.35c-0.59-0.42-0.95-1.1-1.23-1.77c-0.18-0.48-0.8-2.71-1.49-2.49C158,204.62,160.32,207.36,158.38,208z
			 M163.2,228.12c-0.94-2.2-1.82-4.41-3.03-6.48c-0.14-0.26-0.27-0.53-0.36-0.81c-0.4-1.28,0.33-2.25,1.54-2.63
			c0.97-0.31,1.56,0.16,2.11,0.91c0.7,0.98,1.08,2.52,1.73,3.34c0.06,0.04,0.15,0.14,0.22,0.11c1.06-0.33,0.01-2.88,1.27-3.28
			c1.19-0.38,1.36,2.31,2.16,2.06c1.28-0.4-1.39-4.98,1.99-6.04c1.08-0.34,2.41-0.13,2.79,1.08c0.4,1.26,0.57,7.05,0.59,8.66
			c0.01,1.53-0.12,3.45-1.86,4c-2.55,0.8-2.57-3.68-3.52-3.38c-1.17,0.37,0.16,4.51-2.16,5.24
			C164.85,231.46,163.77,229.47,163.2,228.12z M165.49,239.77c10.16-3.11,20.23-6.5,30.21-10.15c1.18-0.43,1.68,1.45,0.52,1.88
			c-9.98,3.66-20.05,7.04-30.21,10.15C164.8,242.02,164.3,240.14,165.49,239.77z M177.29,252.38c-1.17,1.37-4.73,3.87-5.7,3.87
			c-0.02,0-0.05,0-0.07,0c-0.76-0.11-3.36-2.87-4.4-5.12c-0.78-1.69-0.21-3.6,1.34-4.53c0.73-0.44,1.61-0.55,2.48-0.31
			c0.72,0.19,1.35,0.6,1.8,1.15c1.3-0.96,3.03-0.91,4.32,0.18c0.61,0.52,0.98,1.28,1.05,2.15
			C178.2,250.72,177.9,251.68,177.29,252.38z M205.7,236.73c-0.69,0.21-1.25,0.36-1.71,0.48c-1.74,0.47-1.74,0.47-2.44,2.14
			c-0.18,0.44-0.41,0.98-0.7,1.64c-0.11,0.25-0.35,0.4-0.62,0.4c-0.01,0-0.03,0-0.04,0c-0.28-0.02-0.53-0.21-0.61-0.49
			c-0.21-0.69-0.36-1.25-0.48-1.71c-0.47-1.74-0.47-1.74-2.14-2.44c-0.44-0.18-0.97-0.41-1.63-0.7c-0.26-0.12-0.42-0.38-0.4-0.67
			c0.02-0.28,0.21-0.53,0.49-0.61c0.69-0.21,1.25-0.36,1.71-0.48c1.74-0.47,1.74-0.47,2.44-2.14c0.18-0.44,0.41-0.97,0.7-1.63
			c0.12-0.26,0.36-0.42,0.67-0.4c0.28,0.02,0.53,0.21,0.61,0.49c0.21,0.69,0.36,1.25,0.48,1.71c0.47,1.74,0.47,1.74,2.14,2.44
			c0.44,0.18,0.98,0.41,1.64,0.7c0.26,0.12,0.42,0.38,0.4,0.67C206.17,236.4,205.97,236.65,205.7,236.73z"/>
	</g>
</g>
</svg>
