<?xml version="1.0" encoding="utf-8"?>
<!-- Generator: Adobe Illustrator 25.2.0, SVG Export Plug-In . SVG Version: 6.00 Build 0)  -->
<svg version="1.1" id="Layer_1" xmlns="http://www.w3.org/2000/svg" xmlns:xlink="http://www.w3.org/1999/xlink" x="0px" y="0px"
	 width="300px" height="300px" viewBox="0 0 300 300" style="enable-background:new 0 0 300 300;" xml:space="preserve">
<style type="text/css">
	.st0{fill:#E39C7B;}
	.st1{fill:#C49A6C;}
</style>
<g>
	<g>
		<path d="M35.9,54.9c0.2-1.2,0.1-19,0.1-19.4c0-1.3,0.4-1.5,0.9-1.6c1.4-0.1,3.3-0.1,4.2,0c0.6,0.1,0.6,0.5,0.6,2
			c0,2.3-0.3,20-0.5,21.3c-0.1,1.3-1.2,1.2-3.1,1.2C36.4,58.3,35.8,58.2,35.9,54.9L35.9,54.9z"/>
		<path d="M60.9,37.6c-0.1,0.5-0.4,0.7-0.8,0.7c-0.9,0.1-1.5,0.1-5.7,0.1c0,0.3,0,2.4,0,5c0.8,0,1.6,0,3.6,0.1c0.2,0,0.4,0,0.6,0.1
			c0.2,0.1,0.3,0.4,0.3,0.6c0,1,0.1,2.3-0.1,3.5c-0.1,0.4-0.3,0.4-0.5,0.5c-0.5,0.2-1,0-3.9,0.1c0,3.1,0,5.8,0,6.2
			c0,2.8,0.4,3.8-1.1,3.8c-1.3,0-2.1,0-3.2-0.1c-0.4,0-0.8-0.4-0.8-1.1c-0.1-3.4,0-11,0-13.6c0-3.5,0-6,0.2-8.4
			c0.2-1.5-0.4-1.4,9.8-1.3c1.5,0,1.7,0,1.7,1.7C60.9,36.3,61,36.9,60.9,37.6z"/>
		<path d="M74.7,54.9c0.2-1.2,0.1-19,0.1-19.4c0-1.3,0.4-1.5,0.9-1.6c1.4-0.1,3.3-0.1,4.2,0c0.6,0.1,0.6,0.5,0.6,2
			c0,2.3-0.3,20-0.5,21.3c-0.1,1.3-1.2,1.2-3.1,1.2C75.2,58.3,74.6,58.2,74.7,54.9L74.7,54.9z"/>
		<path d="M100.6,34.6c0,0.6-0.1,2.5-0.1,3.1c-0.1,0.5-0.6,0.8-0.9,0.8c-1.2,0.1-2.5,0-3.7,0.1c-0.1,1.2,0.1,16.3-0.1,18.8
			c-0.1,1.3-1,1.2-2.9,1.2c-0.9,0-1.3,0-1.6-0.2c-0.2,0-0.3-0.1-0.4-0.2c-0.4-0.5-0.2-1.8-0.2-3.6c0-0.9,0.2-12.1,0.1-15.9
			c-1.2,0-2.4-0.1-3.6-0.1c-0.6,0-0.9-0.5-0.8-1c0-1.1-0.1-2.2,0.1-3.2c0.1-0.3,0.4-0.6,1.2-0.6c1.6-0.1,4.1,0,11.4,0
			C100.2,33.9,100.6,34,100.6,34.6z"/>
		<path d="M47.6,80.8c2.7,6.5,3.7,8.4,4,9.4c0.1,0.3-0.1,0.7-0.5,0.7c-1.4,0.1-3.1,0.1-4.5-0.1c-0.2,0-0.5-0.2-0.5-0.4
			c-1.2-2.6-2.1-5.2-3.1-7.8c-0.4-0.1-1.4-0.1-1.8,0c-0.1,4-0.2,7.1-0.2,7.1c-0.2,1-0.1,1.4-3.8,1.3c-0.3,0-0.5-0.1-0.8-0.2
			c-0.3-0.1-0.5-0.4-0.5-0.7c0-1.9,0-19,0.2-22.9c0.3-1.1,1.3-1.2,2.8-1.1c1.8,0,4,0,5.7,0.2c4,0.5,6.5,3.2,6.4,7.7
			C50.9,77.6,49.2,79.5,47.6,80.8z M41.2,77.4c0.3,0,0.8,0,1.5-0.1c1.6-0.2,3-0.7,3.1-3.8c0-1.4-0.3-2.2-1.5-2.7
			c-1.1-0.4-1.9-0.3-3-0.3C41.1,71,41.1,73.6,41.2,77.4z"/>
		<path d="M63.4,86c1.4,0.1,5,0,5.6,0.1c1.3,0,1.1,1.6,1,3.6c-0.1,0.9-0.3,1.1-1.5,1.1c-0.3,0.1-0.7,0-2.5,0
			c-2.4-0.1-3.6-0.1-6.9-0.1c-0.4,0-0.8-0.4-0.8-1.1c-0.1-3.4,0-11,0-13.6c0-3.5,0-6,0.2-8.4c0.2-1.5-0.4-1.4,9.8-1.3
			c1.5,0,1.7,0,1.7,1.7c0,0.7,0.1,1.4,0,2.1c-0.1,0.5-0.4,0.7-0.8,0.7C68.1,71,67.6,71,63.4,71c-0.1,0.8,0,3.6,0,5
			c0.7,0.1,1.9,0,4.1,0.1c0.2,0,0.4,0,0.6,0.1c0.2,0.1,0.3,0.4,0.3,0.6c0,1,0.1,2.3-0.1,3.5c-0.1,0.4-0.3,0.4-0.5,0.5
			c-0.5,0.2-1.2,0-4.3,0.1C63.4,81.4,63.4,84.5,63.4,86z"/>
		<path d="M90.7,92.1c0.3,0.6,0.3,1.3-0.7,1.5c-0.5,0.1-1.5,0-2.2,0c-1.4,0-1.5-0.5-1.8-1c-0.2-0.3-0.5-0.9-0.8-1.5
			c-1.8,0.3-3.5,0.1-5.1-0.7c-3.6-1.8-4.5-7.2-4.3-12.9c0.5-6.8,2.4-11.7,8.2-11.8c6.4-0.1,7.9,6.2,8.1,9c0.1,3,0.7,9.9-3,14.2
			C89.4,89.7,90.2,91.2,90.7,92.1z M86.1,84.4c0.2-0.5,0.4-1.1,0.6-1.6c0.3-1.6,0.5-5.7,0.3-7.4c-0.4-3.5-1.4-4.9-3.1-4.7
			c-1.8,0.2-2.7,3.3-2.9,7.8c-0.1,2.3,0.3,5.3,0.7,6.3C82.6,86.9,85.1,86.8,86.1,84.4z"/>
		<path d="M113.3,66.9c0.4,0.1,0.7,0.5,0.6,0.9c-0.2,2.9-0.1,3.2-0.2,6.3c-0.1,4.5-0.1,5.8-0.4,9c-0.2,2-0.6,3.4-1.5,5
			c-2.2,3.3-8.1,4.3-11,0.8c-2.7-3.3-2.3-6.9-2.3-11.8c0-3.1,0.2-4.6,0.1-8.7c0-1.3,0.3-1.7,1.1-1.8c1.6-0.1,2-0.1,3.4,0
			c0.6,0.1,1,0.3,1,0.9c-0.2,3.6-0.3,12.5-0.2,15.4c0.1,1.2,0,2.1,0.8,3c0.3,0.3,1,0.5,1.5,0.5c1,0,2.1-0.9,2.2-4.9
			c0.1-4.3,0.2-5.3,0.2-11.9c0.1-0.7,0-1.6,0.1-2c0.2-0.7,0.7-0.9,1.4-0.9C112.4,66.8,113,66.9,113.3,66.9z"/>
		<path d="M121.2,68.1c0-1.3,0.4-1.5,0.9-1.6c1.4-0.1,3.3-0.1,4.2,0c0.6,0.1,0.6,0.5,0.6,2c0,2.3-0.3,20-0.5,21.3
			c-0.1,1.3-1.2,1.2-3.1,1.2c-1.7,0-2.3-0.1-2.3-3.5C121.3,86.3,121.2,68.5,121.2,68.1z"/>
		<path d="M146.1,80.8c2.7,6.5,3.7,8.4,4,9.4c0.1,0.3-0.1,0.7-0.5,0.7c-1.4,0.1-3.1,0.1-4.5-0.1c-0.2,0-0.5-0.2-0.5-0.4
			c-1.2-2.6-2.1-5.2-3.1-7.8c-0.4-0.1-1.4-0.1-1.8,0c-0.1,4-0.2,7.1-0.2,7.1c-0.2,1-0.1,1.4-3.8,1.3c-0.3,0-0.5-0.1-0.8-0.2
			c-0.3-0.1-0.5-0.4-0.5-0.7c0-1.9,0-19,0.2-22.9c0.3-1.1,1.3-1.2,2.8-1.1c1.8,0,4,0,5.7,0.2c4,0.5,6.5,3.2,6.4,7.7
			C149.4,77.6,147.7,79.5,146.1,80.8z M139.7,77.4c0.3,0,0.8,0,1.5-0.1c1.6-0.2,3-0.7,3.1-3.8c0-1.4-0.3-2.2-1.5-2.7
			c-1.1-0.4-1.9-0.3-3-0.3C139.7,71,139.6,73.6,139.7,77.4z"/>
		<path d="M161.9,86c1.4,0.1,5,0,5.6,0.1c1.3,0,1.1,1.6,1,3.6c-0.1,0.9-0.3,1.1-1.5,1.1c-0.3,0.1-0.7,0-2.5,0
			c-2.4-0.1-3.6-0.1-6.9-0.1c-0.4,0-0.8-0.4-0.8-1.1c-0.1-3.4,0-11,0-13.6c0-3.5,0-6,0.2-8.4c0.2-1.5-0.4-1.4,9.8-1.3
			c1.5,0,1.7,0,1.7,1.7c0,0.7,0.1,1.4,0,2.1c-0.1,0.5-0.4,0.7-0.8,0.7c-0.9,0.1-1.5,0.1-5.7,0.1c-0.1,0.8,0,3.6,0,5
			c0.7,0.1,1.9,0,4.1,0.1c0.2,0,0.4,0,0.6,0.1c0.2,0.1,0.3,0.4,0.3,0.6c0,1,0.1,2.3-0.1,3.5c-0.1,0.4-0.3,0.4-0.5,0.5
			c-0.5,0.2-1.2,0-4.3,0.1C161.9,81.4,162,84.5,161.9,86z"/>
		<path d="M174.9,84.6c1-0.3,2-0.7,2.9-0.8c0.3,0,0.6,0.1,0.8,0.5c0.2,0.6,0.4,0.9,0.8,1.4c0.7,0.9,2.8,0.8,3.3-0.6
			c0.7-1.8-0.4-2.7-1.6-4c-2.4-2.5-4-3.8-5.1-6.2c-1-2.3-0.4-6.2,2.2-8c1.5-1,3.2-1,4-1c2.6,0.2,4.3,2,5.4,3.7
			c0.3,0.5,0.1,1.3-0.1,1.5c-0.3,0.3-0.6,0.5-1.3,0.8c-0.7,0.4-1.5,0.7-1.9,0.2c-1-1.1-2-1.3-2.6-1.2c-1.1,0.1-1.7,1.8-0.3,3.5
			c1.3,1.5,3.9,3.2,5.4,5.7c1.1,1.8,1.6,4,0.7,6.6c-1.9,5.2-9.1,5.9-12.1,1.9c-0.6-1-1-1.8-1.2-3.1C174.1,85,174.6,84.7,174.9,84.6z
			"/>
	</g>
	<g>
		<path class="st0" d="M83.4,120.1c0,13.7-6.4,25.9-20.3,25.9c-3,0-5.4-0.8-7.3-2c-2.5-1.6-3.8-2.3-3.8-0.1v23.7H29.6v-1
			c2-0.6,5.9-4.8,5.9-15.2l0.1-27.6c0-7.4-2.3-10.4-7.1-12v-1.2c7.5-1.4,16-10.9,20.3-10.9c3.1,0,3.2,2.9,3.2,5.5
			c2.9-3.3,6.9-5.5,12.2-5.5C72.8,99.7,83.4,106.4,83.4,120.1z M65.4,123.5c0-13.3-2-18.7-6.7-18.7c-3.3,0-6.8,2.6-6.8,15.9v1.6
			c0,13.2,1.8,19.9,6.8,19.9C63.4,142.1,65.4,136.7,65.4,123.5z"/>
		<path class="st0" d="M133.8,140v0.9c-1.2,2.5-3.8,5.1-7.7,5.1c-4.7,0-8-2.2-9.9-4.5c-1.1-1.2-2-1.3-3.2-0.4
			c-3.1,2.7-6.9,4.9-10.9,4.9c-9.4,0-16.5-7.2-16.5-16.1c0-9.6,8.7-17.3,19.3-17.3c3.8,0,6.9,0.7,9.4,2.2
			c-0.5-7.1-2.6-11.4-8.1-11.4c-5.3,0-8.7,4.2-8.7,8l-2.1,0.8c-2.1-0.8-3.2-2-3.2-4.3c0-4.8,7-8.1,14.7-8.1c16.2,0,23.9,8.7,23.9,21
			v12.1C130.8,137.1,132.6,138.4,133.8,140z M106.9,140.8c1,0,2.3-0.7,3.7-2c3.5-3.7,3.8-7.8,3.8-14.1v-5.6
			c-1.4-1.1-3.3-1.8-5.1-1.8c-4.6,0-7.1,3.2-7.1,11.4C102.1,135.8,104.2,140.8,106.9,140.8z"/>
		<path class="st0" d="M205.2,158c0,8.7-9,11.4-16.1,11.4c-15.3,0-20.9-11.6-20.9-27.6v-25.3c0-5.2-1.6-9.6-5-9.6
			c-3.6,0-5.3,3.6-5.3,10.5v10.3c0,10.5,2.7,14.6,4.1,15.2v1h-26.4v-1c2-0.6,5.9-4.8,5.9-15.2v-3.8c0-7.4-2.3-10.4-7.1-12v-1.2
			c7.5-1.4,16-11,20.3-11c3,0,3.2,3.8,3.2,6.5v0.2c3.1-3.5,7.4-6.5,13.6-6.5c9.7,0,13.1,8.2,13.1,15.6v8.2l0.1,29.9
			c0,5.6,1.7,12.2,5.5,12.2c1.4,0,2.3-0.3,2.3-0.9c0-1.6-3.4-2.4-3.4-7.4c0-4.5,3.9-7.8,8.3-7.8C201.8,149.6,205.2,153.6,205.2,158z
			"/>
		<path class="st0" d="M225.2,127.1c3.2,0,6.9,1.7,6.9,4.7c0,2.8-2.7,4.1-2.7,5.9c0,2.3,3,4.7,9.1,4.7c5,0,7.8-1.6,7.8-5
			c0-8.7-26.9-9.7-26.9-25c0-7.1,10.6-12.6,21.4-12.6c10.1,0,17.2,3.9,17.2,7.8c0,2-1.9,4.6-4.2,5l-0.9-0.5c0-4.2-4-8.7-9.4-8.7
			c-3.1,0-6.9,1.4-6.9,4.3c0,6.4,24.2,9.9,24.2,23.8c0,9.5-10.6,14.4-21.7,14.4c-7.9,0-21.3-3.5-21.3-11.4
			C217.9,130.4,221.1,127.1,225.2,127.1z"/>
	</g>
	<g>
		<path d="M81.4,159.7c0,0.7-0.1,2.9-0.1,3.6c-0.1,0.6-0.6,0.9-1,0.9c-1.3,0.1-2.9,0-4.2,0.1c-0.1,1.3,0.1,18.5-0.1,21.3
			c-0.1,1.4-1.1,1.3-3.3,1.3c-1,0-1.4,0-1.9-0.2c-0.2,0-0.3-0.1-0.4-0.3c-0.4-0.6-0.2-2.1-0.3-4.1c0-1,0.2-13.7,0.1-18.1
			c-1.4,0-2.7-0.1-4.1-0.1c-0.7,0-1-0.6-1-1.1c0.1-1.3-0.1-2.6,0.1-3.7c0.1-0.4,0.4-0.6,1.3-0.7c1.8-0.1,4.7,0.1,12.9,0.1
			C81.1,158.8,81.4,159,81.4,159.7z"/>
		<path d="M93.8,170c2-0.1,4.5,0.1,5.9-0.1c0.1-1.5,0.2-5.8,0.3-9.8c0.1-1,0.4-1.2,1.1-1.2c1.4,0,2.7,0,4,0c0.8,0,0.8,0.9,0.8,1.6
			c-0.1,13.6-0.2,22.3-0.3,24.4c-0.1,1.8-0.7,1.8-5.1,1.6c-0.7-0.1-1.1-0.4-1.1-1.2c0-2.4,0-8.1,0.1-9.7c-1,0-4.7,0-5.6,0.1
			c-0.2,1.1-0.1,3.3-0.2,8.4c0,1.3,0,2.5-1.2,2.5c-1.5,0.1-2.9,0.1-4.4,0c-0.5,0-0.4-0.7-0.5-1.3c-0.1-4.5-0.2-21.2,0-25.1
			c0-0.8,0.4-1.1,1.1-1.2c1.1,0,2.3,0,3.3,0c1.3,0,1.8,0,1.8,1.3C93.9,166.4,93.9,169.7,93.8,170z"/>
		<path d="M120.4,181c1.6,0.2,5.7,0,6.3,0.2c1.4,0,1.3,1.8,1.1,4.1c-0.1,1-0.3,1.3-1.7,1.3c-0.3,0.1-0.8,0-2.9,0
			c-2.7-0.1-4.1-0.1-7.8-0.1c-0.4,0-0.9-0.5-0.9-1.3c-0.1-3.9,0-12.5,0-15.4c0-4,0-6.9,0.2-9.6c0.3-1.7-0.5-1.5,11.1-1.4
			c1.7,0,2,0,1.9,1.9c0,0.8,0.1,1.6,0,2.4c-0.1,0.5-0.5,0.8-1,0.8c-1.1,0.1-1.7,0.1-6.5,0.2c-0.1,0.9,0.1,4.1,0,5.6
			c0.8,0.1,2.1,0,4.7,0.1c0.2,0,0.5,0,0.7,0.2c0.3,0.1,0.3,0.4,0.4,0.7c0,1.2,0.1,2.7-0.1,4c-0.1,0.5-0.4,0.5-0.6,0.6
			c-0.6,0.2-1.4,0-4.9,0.1C120.4,175.8,120.5,179.3,120.4,181z"/>
		<path d="M140.8,158.6c0.4,0.1,0.6,0.3,0.8,0.7c1.6,2.6,8.5,14.7,8.7,15.1c0.1-0.4-0.5-12.7-0.1-14.4c0.2-0.7,0.5-1.2,1.3-1.2
			c1.3,0,2.4-0.1,3.7-0.1c1.1,0,1.2,1.2,1.2,1.8c0.1,4-0.2,20.7-0.3,22.9c0,3.2-0.6,3-1.8,3c-1.7,0-2.1,0-3.3-0.1
			c-0.6-0.1-0.9-0.5-1.2-1c-0.5-0.9-6.4-11.4-7.9-14.5c-0.1,0.4-0.5,14.6-0.5,14.8c-0.1,0.6-0.5,0.9-1,1c-0.6,0.1-1.4,0.1-1.9,0.1
			c-0.8-0.1-1.6,0-2.2-0.5c-0.7-0.7-0.5-4.6-0.2-26c0-0.9,0.6-1.4,1.2-1.5C138.6,158.5,139.3,158.3,140.8,158.6z"/>
		<path d="M164.6,180.7c1.5-0.2,3.7-0.1,4.8,0c0.7,0.1,0.7,0.6,0.7,2.2c0,0.5,0.1,0.9,0,2.3c-0.1,1.4-1.9,1.3-4,1.3
			c-2,0-2.5-0.3-2.4-4.1C163.7,181,164.2,180.8,164.6,180.7z"/>
		<path d="M177.2,180.7c1.5-0.2,3.7-0.1,4.8,0c0.7,0.1,0.7,0.6,0.7,2.2c0,0.5,0.1,0.9,0,2.3c-0.1,1.4-1.9,1.3-4,1.3
			c-2,0-2.5-0.3-2.4-4.1C176.3,181,176.7,180.8,177.2,180.7z"/>
		<path d="M189.7,180.7c1.5-0.2,3.7-0.1,4.8,0c0.7,0.1,0.7,0.6,0.7,2.2c0,0.5,0.1,0.9,0,2.3c-0.1,1.4-1.9,1.3-4,1.3
			c-2,0-2.5-0.3-2.4-4.1C188.8,181,189.2,180.8,189.7,180.7z"/>
	</g>
	<g>
		<path class="st0" d="M97.4,244.9v1.9c-2.3,6.1-9.5,13.3-18.3,13.3c-10.3,0-12.8-11.4-12.8-21.1l0.1-25.3c0-6-1.9-11.1-5.7-11.1
			c-2.7,0-5.5,3.5-7.2,8.6v15.4c0,12.1,3.1,16.8,4.8,17.6v1.1H27.8v-1.1c2.3-0.7,6.8-5.5,6.8-17.6v-4.4c0-8.5-2.7-12-8.2-13.8V207
			c8.6-1.6,18.5-12.7,23.4-12.7c3.4,0,3.7,4.3,3.7,7.4c2.6-4,6.2-7.2,11.9-7.2C86.4,194.5,77.9,232.9,97.4,244.9z"/>
		<path class="st0" d="M90.2,221.1c0-14.8,11.6-26.7,26.7-26.7c15,0,26.6,12,26.6,26.7c0,14.8-11.6,26.6-26.6,26.6
			C101.9,247.7,90.2,235.8,90.2,221.1z M125.2,219.9c-2-14.2-6.2-21.9-11.3-21.2c-5.2,0.7-7.2,9.4-5.3,23.5
			c2.1,14.2,6.3,21.8,11.5,21C125.1,242.6,127.1,234.1,125.2,219.9z"/>
		<path class="st0" d="M208.2,217.8c0,15.8-7.4,29.8-23.4,29.8c-3.4,0-6.2-0.9-8.4-2.3c-2.9-1.9-4.4-2.7-4.4-0.1v27.3h-25.8v-1.1
			c2.3-0.7,6.8-5.5,6.8-17.6l0.1-31.8c0-8.5-2.7-12-8.2-13.8v-1.4c8.6-1.6,18.5-12.6,23.4-12.6c3.5,0,3.7,3.3,3.7,6.3
			c3.3-3.8,8-6.3,14-6.3C196.1,194.3,208.2,202,208.2,217.8z M187.5,221.8c0-15.4-2.3-21.6-7.7-21.6c-3.8,0-7.8,3-7.8,18.3v1.9
			c0,15.3,2.1,23,7.8,23C185.3,243.3,187.5,237.1,187.5,221.8z"/>
		<path class="st0" d="M277.3,211.4c0,17.8-12.4,36.3-35,36.3c-17.2,0-28.8-11.9-28.8-26.6c0-14.8,11.6-26.7,26.7-26.7
			c14.8,0,21.8,8.6,24,21.9c0.5,3.4-0.9,6.4-7.9,6.4c-17.1,0.3-28.5,3.5-20.1,14.6c9.7,12.6,35.5-0.7,35.5-24
			c0-12.6-7-28.4-17.8-28.4c-4.6,0-4.1,2.8-10.1,2.8c-4.6,0-8.1-4.4-8.1-9.6c0-6.6,5.8-10.7,11.3-10.7
			C269.2,167.4,277.3,196.4,277.3,211.4z M232.8,221.9c10.7-5,14-2,14-11c0-9.1-2.9-12.4-7.4-12.4c-5,0-6.7,8.2-6.7,22.6V221.9z"/>
	</g>
	<path class="st1" d="M218.8,188.8c-4.3-11.6-1.5-8.8-13.1-13.1c11.6-4.3,8.8-1.5,13.1-13.1c4.3,11.6,1.5,8.8,13.1,13.1
		C220.4,180,223.1,177.2,218.8,188.8z"/>
	<path class="st1" d="M43.1,191.4c-3.2-8.6-1.1-6.6-9.7-9.7c8.6-3.2,6.6-1.1,9.7-9.7c3.2,8.6,1.1,6.6,9.7,9.7
		C44.2,184.9,46.3,182.8,43.1,191.4z"/>
	<g>
		<path class="st0" d="M242,83.1c0,5.4-2.6,9.7-8.3,9.7c-5,0-6.2-2.7-10-2.7c-2.9,0-5.9,2.7-9.8,5.7c-1.2,1-2.7,2.5-2.7,4.2v34.3
			c0,4.6,1.8,5.9,3.1,7.6v0.9c-1.2,2.7-4,5.4-8.1,5.4c-8.1,0-12.4-4.9-12.4-12.6v-27.6c0-1.9,0-2.8-2.8-2.8h-3.4h-0.1v-0.1
			c-0.4-0.4-0.4-3.7,0.1-3.7h0.2c10.3-0.1,16.1-12,21.5-21.8h1.9v13.2c8.8-8,12.3-18.8,20.2-18.8C238.1,73.9,242,77.2,242,83.1z"/>
	</g>
	<path class="st1" d="M204.7,71.7c-3-8.2-1.1-6.2-9.2-9.2c8.2-3,6.2-1.1,9.2-9.2c3,8.2,1.1,6.2,9.2,9.2
		C205.8,65.5,207.7,63.5,204.7,71.7z"/>
</g>
</svg>
