<?xml version="1.0" encoding="iso-8859-1"?>
<!-- Generator: Adobe Illustrator 25.2.0, SVG Export Plug-In . SVG Version: 6.00 Build 0)  -->
<svg version="1.1" id="Layer_1" xmlns="http://www.w3.org/2000/svg" xmlns:xlink="http://www.w3.org/1999/xlink" x="0px" y="0px"
	 width="300px" height="300px" viewBox="0 0 300 300" enable-background="new 0 0 300 300" xml:space="preserve">
<g>
	<g>
		<path d="M87.726,57.546c5.61,3.103,7.758,5.848,9.907,10.145l11.218,23.153c-0.12,8.236-0.954,19.096-4.893,22.081
			c-1.193,0.954-1.313,2.983,1.313,2.983h23.989c2.506,0,2.506-2.029,1.193-2.983c-3.819-2.985-4.655-13.844-4.773-22.199
			l1.91-3.939l10.861-21.961c2.267-4.416,2.864-4.177,8.593-7.28c1.67-0.955,1.074-2.387-0.12-2.387h-12.889
			c-1.313,0-1.672,1.431-0.836,2.387c2.506,3.103,3.46,2.864,1.313,7.28l-8.832,17.903c-3.819-7.758-7.281-14.8-7.281-15.038
			c-2.147-4.296-2.745-7.042-0.12-10.145c0.716-0.955,0.478-2.387-0.835-2.387H87.845C86.532,55.159,86.055,56.591,87.726,57.546z"
			/>
		<path d="M133.078,93.828c0,12.174,10.622,22.079,23.871,22.079c13.128,0,23.75-9.905,23.75-22.079s-10.622-22.081-23.75-22.081
			C143.699,71.748,133.078,81.655,133.078,93.828z M156.948,75.09c3.7,0,6.803,8.355,6.803,18.738
			c0,10.264-3.103,18.737-6.803,18.737c-3.819,0-6.923-8.473-6.923-18.737C150.025,83.445,153.129,75.09,156.948,75.09z"/>
		<path d="M189.406,93.232c0,17.663,8.235,22.676,18.975,22.676c5.252,0,8.953-2.983,11.458-6.565
			c1.433,18.858,9.431,31.986,20.171,35.448c16.231,5.252,36.163-7.519,30.433-20.886c-3.819-8.951-21.601-6.684-19.929,3.819
			c0.954,5.847-2.983,15.515-8.953,13.248c-6.682-2.626-6.206-28.883-6.206-37.715c0-6.683-0.118-16.232,1.79-28.405
			c0.239-1.552,1.314-3.462-1.193-2.985c-4.416,0.955-9.308,8.713-20.765,8.713c-1.193,0-1.672,1.431-0.478,2.387
			c4.177,3.223,4.894,5.848,4.894,10.264v10.145c-1.553,3.46-3.819,7.042-6.327,7.042c-8.95,0-9.428-21.364-6.445-35.566
			c0.358-1.552,1.433-3.462-1.075-2.985c-4.534,0.955-9.308,8.713-20.765,8.713c-1.193,0-1.672,1.431-0.478,2.387
			C188.689,86.19,189.406,88.816,189.406,93.232z"/>
		<path d="M99.398,167.926c-10.264-4.773-27.929,4.178-31.15,0c-1.195-1.432,0.238-2.744,1.91-4.057
			c3.341,1.074,7.16,1.79,11.218,1.79c14.441,0,26.138-7.997,26.138-17.783c0-7.4-6.802-13.726-16.35-16.352
			c2.267-1.431,6.922-0.477,11.338,0.239c6.445,0.955,7.042-10.145-0.836-10.502c-6.683-0.239-12.293,4.296-13.606,9.548
			c-2.148-0.359-4.296-0.597-6.683-0.597c-14.441,0-26.138,7.996-26.138,17.663c0,5.848,4.177,11.099,10.622,14.321
			c-2.506,1.79-4.773,4.535-3.819,6.922c1.432,4.178,7.638,3.342,14.442,4.178c19.453,2.387,23.869,21.602,11.815,26.495
			c-8.355,3.462-23.273-7.28-10.622-14.8c11.218-6.683-3.581-12.889-12.77-8.353c-0.12,0-0.239,0-0.239,0.118
			c-0.358,0-0.597,0.239-0.836,0.359c0,0,0,0.12-0.118,0.12l-1.91,1.313c-5.848,3.819-21.364,11.458-37.238,0.118
			c-11.099-7.876-24.466,9.787-8.473,16.232c11.099,4.416,29.001-1.433,41.533-9.19c-1.313,8.594,6.922,18.858,22.438,18.858
			C102.501,204.567,119.807,177.354,99.398,167.926z M81.376,133.553c3.819,0,6.922,6.445,6.922,14.323
			c0,7.996-3.103,14.441-6.922,14.441s-6.922-6.445-6.922-14.441C74.454,139.998,77.557,133.553,81.376,133.553z"/>
		<path d="M118.702,150.916c0,12.174,10.622,22.079,23.871,22.079c13.128,0,23.75-9.905,23.75-22.079s-10.622-22.079-23.75-22.079
			C129.324,128.837,118.702,138.742,118.702,150.916z M149.375,150.916c0,10.264-3.103,18.737-6.802,18.737
			c-3.819,0-6.923-8.473-6.923-18.737c0-10.384,3.104-18.738,6.923-18.738C146.272,132.177,149.375,140.532,149.375,150.916z"/>
		<path d="M179.044,172.995h24.108c2.626,0,2.505-2.029,1.312-2.983c-3.223-2.506-5.37-14.8-4.653-30.196h5.846
			c1.553,0,2.029-1.313,2.029-2.864c0-1.552-0.476-2.865-2.029-2.865h-5.488c0.358-3.939,0.954-7.996,1.669-12.174
			c0.239-1.551-0.833-3.46-3.223-2.506c-5.609,2.029-8.114,14.68-19.572,14.68h-0.715c-1.553,0-2.029,1.313-2.029,2.865
			c0,1.551,0.476,2.864,2.029,2.864h2.626c1.669,3.939,1.551,9.31,1.551,12.413c0,5.132,0.118,14.083-3.819,17.783
			C177.493,171.086,177.493,172.995,179.044,172.995z"/>
		<path d="M213.184,251.626c0.954,5.846-2.983,15.634-8.953,13.248c-6.682-2.626-5.846-28.645-5.846-37.716v-7.878
			c0-13.127-8.117-23.63-21.007-23.63c-4.655,0-8.353,2.625-10.979,5.967c0.239-6.565,0.836-13.248,2.029-19.573
			c0.239-1.552,1.312-3.581-1.193-2.983c-2.15,0.477-4.655,2.625-7.997,4.654c-13.128,7.878-27.569,3.581-29.718-8.235
			c-2.029-10.98-21.363-3.342-14.202,6.088c2.714,3.472,7.945,6.465,14.204,8.26c-3.489,4.431-7.091,11.074-15.395,11.074h-0.716
			c-1.552,0-2.029,1.313-2.029,2.866c0,1.551,0.477,2.863,2.029,2.863h2.626c1.67,3.94,1.551,9.31,1.551,12.414
			c0,5.131,0.12,14.083-3.819,17.782c-1.193,1.075-1.193,2.983,0.359,2.983h24.108c2.626,0,2.506-2.029,1.313-2.983
			c-3.223-2.505-5.371-14.798-4.655-30.196h5.848c1.551,0,2.029-1.312,2.029-2.863c0-1.553-0.478-2.866-2.029-2.866h-5.49
			c0.285-3.142,0.727-6.362,1.255-9.656c3.646,0.451,7.436,0.495,11.154-0.012c1.551,2.506,2.864,8.713,2.864,18.143v17.782
			c0,4.416-0.716,7.042-4.893,10.146c-1.193,0.954-0.716,2.505,0.477,2.505h23.751c2.505,0,2.387-2.029,1.193-2.983
			c-2.865-2.147-4.776-14.441-4.776-28.882c2.268-4.655,5.372-7.281,7.638-7.281c5.848,0,7.878,12.651,7.878,26.495
			c0,24.944,8.953,37.716,20.886,41.535c16.231,5.249,36.044-7.52,30.435-20.886C229.296,238.854,211.512,241.123,213.184,251.626z"
			/>
		<path d="M204.823,237.303c-1.193,0.954-0.715,2.505,0.478,2.505h23.273c2.508,0,2.508-2.029,1.193-2.983
			c-4.416-3.341-5.848-16.828-2.626-38.072c0.239-1.552,1.432-3.462-1.073-2.985c-4.537,0.955-9.31,8.713-20.768,8.713
			c-1.193,0-1.672,1.432-0.478,2.387c4.179,3.223,4.894,5.848,4.894,10.264v10.025C209.717,231.573,209.002,234.199,204.823,237.303
			z"/>
		<path d="M213.058,196.484c4.894,0,9.668-3.939,10.743-8.712c1.075-4.893-2.029-8.712-6.803-8.712
			c-4.894,0-9.668,3.819-10.743,8.712C205.183,192.546,208.285,196.484,213.058,196.484z"/>
		<path d="M271.539,225.607c-1.79-10.979-23.273-13.248-21.483-23.513c0.597-4.057,6.327-4.535,5.848,2.03
			c-0.954,10.503,19.214,8.711,15.038-0.478c-2.626-5.848-11.576-8.115-19.096-7.996h-0.239
			c-10.622,0.358-18.975,5.967-17.903,14.798c1.432,11.936,23.751,12.772,21.364,22.915c-0.836,3.94-6.324,4.537-5.728-2.029
			c0.833-10.501-19.335-8.711-15.158,0.478c2.626,5.73,11.458,8.117,19.096,7.996l0.239-0.118
			C263.901,239.451,272.614,232.291,271.539,225.607z"/>
	</g>
	<path fill="#CF8832" d="M228.924,159.134c0.724-0.062,1.442-0.276,2.097-0.154c3.181,0.593,5.864,2.3,8.524,4.017
		c1.284,0.828,2.498,1.765,4.013,2.845c-0.236-0.742-0.386-1.248-0.558-1.747c-1.407-4.101-2.6-8.24-2.436-12.647
		c0.036-0.965,0.195-1.787,1.518-2.174c0.47,0.439,1.185,0.869,1.556,1.5c0.875,1.49,1.768,3.013,2.326,4.636
		c1.092,3.179,1.959,6.434,2.883,9.535c0.066-0.198,0.214-0.63,0.353-1.066c1.102-3.443,2.56-6.701,5.031-9.403
		c0.562-0.614,1.217-1.192,1.933-1.605c1.227-0.707,2.076-0.309,2.589,1.023c0.574,1.487,0.186,2.961-0.227,4.351
		c-0.552,1.859-1.366,3.64-2.082,5.449c-0.184,0.464-0.425,0.905-0.444,1.535c0.742-0.444,1.479-0.897,2.227-1.331
		c2.332-1.352,4.737-2.526,7.42-3.015c0.31-0.056,0.63-0.13,0.938-0.106c1.372,0.11,2.041,1.209,1.24,2.311
		c-0.889,1.224-1.949,2.371-3.112,3.34c-2.484,2.071-5.32,3.601-8.276,4.903c-0.312,0.137-0.609,0.308-1.065,0.541
		c1.789,0.678,3.416,1.22,4.982,1.903c2.712,1.184,5.355,2.507,7.571,4.527c0.388,0.354,0.767,0.739,1.065,1.168
		c0.949,1.371,0.386,2.71-1.301,2.787c-1.349,0.061-2.747-0.104-4.067-0.41c-3.513-0.814-6.791-2.256-9.913-4.054
		c-0.17-0.098-0.358-0.166-0.778-0.358c0.188,0.531,0.263,0.861,0.415,1.151c1.472,2.814,2.647,5.743,3.282,8.859
		c0.198,0.971,0.234,1.999,0.18,2.992c-0.075,1.37-1.174,1.885-2.182,0.965c-0.963-0.878-1.884-1.897-2.514-3.027
		c-1.276-2.287-2.343-4.691-3.451-6.955c-0.446,2.168-0.857,4.478-1.417,6.751c-0.274,1.112-0.789,2.173-1.27,3.224
		c-0.213,0.466-0.558,0.906-0.937,1.255c-0.873,0.803-1.84,0.685-2.3-0.416c-0.439-1.049-0.742-2.209-0.825-3.341
		c-0.206-2.804,0.193-5.576,0.794-8.317c0.044-0.2,0.067-0.404,0.149-0.904c-1.269,1.128-2.299,2.134-3.424,3.02
		c-1.407,1.108-2.873,2.145-4.352,3.156c-0.557,0.381-1.207,0.644-1.844,0.886c-0.7,0.266-1.461,0.473-2.057-0.204
		c-0.594-0.674-0.305-1.429,0.043-2.074c0.474-0.878,0.952-1.807,1.638-2.507c2.03-2.071,4.163-4.043,6.258-6.049
		c0.224-0.214,0.47-0.405,0.737-0.633c-2.86,0.129-5.644,0.362-8.427,0.341c-1.724-0.013-3.464-0.319-5.161-0.669
		c-1.056-0.218-2.184-0.589-2.45-1.905c0.198-1.046,0.989-1.477,1.826-1.836c2.558-1.099,5.279-1.428,8.018-1.565
		c1.898-0.094,3.805-0.018,5.807-0.214c-1.125-0.688-2.264-1.357-3.373-2.07c-2.274-1.461-4.426-3.075-6.219-5.12
		C228.907,161.129,228.841,160.923,228.924,159.134z M251.608,172.001c-0.022-2.548-1.499-4.094-3.905-4.09
		c-2.237,0.004-4.09,1.892-4.049,4.123c0.04,2.152,2.079,4.276,4.105,4.274C249.881,176.306,251.628,174.351,251.608,172.001z"/>
	<path fill="#CF8832" d="M42.762,79.751c0.84-0.072,1.673-0.32,2.433-0.178c3.691,0.688,6.806,2.669,9.893,4.661
		c1.49,0.961,2.898,2.048,4.657,3.301c-0.274-0.861-0.448-1.448-0.647-2.028c-1.633-4.759-3.018-9.562-2.827-14.677
		c0.042-1.12,0.226-2.074,1.761-2.523c0.545,0.509,1.375,1.008,1.806,1.741c1.016,1.729,2.052,3.497,2.699,5.38
		c1.267,3.689,2.274,7.467,3.346,11.066c0.076-0.229,0.248-0.732,0.41-1.237c1.279-3.995,2.971-7.777,5.839-10.912
		c0.652-0.713,1.412-1.383,2.244-1.862c1.424-0.821,2.409-0.358,3.005,1.187c0.666,1.726,0.216,3.436-0.263,5.049
		c-0.641,2.157-1.585,4.225-2.417,6.324c-0.213,0.539-0.494,1.051-0.515,1.782c0.861-0.516,1.716-1.041,2.584-1.545
		c2.706-1.569,5.498-2.931,8.61-3.499c0.359-0.066,0.731-0.151,1.088-0.123c1.592,0.128,2.368,1.403,1.44,2.682
		c-1.032,1.421-2.262,2.752-3.611,3.877c-2.883,2.404-6.174,4.179-9.604,5.69c-0.362,0.159-0.707,0.357-1.236,0.628
		c2.076,0.786,3.965,1.415,5.781,2.208c3.147,1.374,6.215,2.91,8.786,5.254c0.451,0.411,0.89,0.857,1.235,1.356
		c1.101,1.591,0.448,3.145-1.51,3.234c-1.566,0.071-3.187-0.121-4.72-0.476c-4.077-0.944-7.881-2.618-11.505-4.704
		c-0.198-0.114-0.415-0.193-0.903-0.416c0.218,0.616,0.306,0.999,0.482,1.336c1.708,3.266,3.072,6.665,3.809,10.281
		c0.23,1.127,0.272,2.32,0.209,3.472c-0.087,1.59-1.363,2.188-2.533,1.12c-1.118-1.02-2.186-2.202-2.918-3.512
		c-1.481-2.654-2.719-5.444-4.005-8.071c-0.518,2.516-0.995,5.196-1.645,7.834c-0.318,1.291-0.916,2.522-1.474,3.741
		c-0.248,0.541-0.647,1.051-1.087,1.456c-1.013,0.932-2.135,0.795-2.67-0.483c-0.509-1.217-0.861-2.564-0.957-3.878
		c-0.239-3.254,0.224-6.471,0.921-9.652c0.051-0.232,0.078-0.469,0.173-1.049c-1.473,1.309-2.668,2.477-3.973,3.505
		c-1.633,1.286-3.334,2.489-5.051,3.662c-0.647,0.442-1.401,0.748-2.14,1.028c-0.812,0.309-1.695,0.549-2.387-0.237
		c-0.689-0.783-0.354-1.659,0.05-2.407c0.55-1.019,1.104-2.097,1.901-2.91c2.356-2.404,4.831-4.692,7.263-7.02
		c0.259-0.248,0.545-0.469,0.855-0.735c-3.319,0.15-6.55,0.42-9.78,0.396c-2.001-0.015-4.021-0.37-5.99-0.776
		c-1.225-0.252-2.535-0.683-2.843-2.211c0.23-1.214,1.147-1.714,2.119-2.131c2.968-1.275,6.126-1.658,9.305-1.816
		c2.203-0.11,4.416-0.021,6.739-0.249c-1.306-0.799-2.627-1.574-3.915-2.402c-2.639-1.695-5.136-3.569-7.217-5.942
		C42.742,82.066,42.666,81.828,42.762,79.751z M69.087,94.684c-0.025-2.957-1.739-4.752-4.532-4.747
		c-2.596,0.005-4.747,2.195-4.699,4.785c0.046,2.498,2.413,4.962,4.764,4.96C67.082,99.68,69.111,97.411,69.087,94.684z"/>
	<path fill="#CF8832" d="M74.471,206.659c0.667,0.681,1.482,1.229,1.905,1.993c2.055,3.713,2.567,7.854,3.05,11.978
		c0.233,1.99,0.299,4,0.471,6.435c0.553-0.858,0.94-1.432,1.302-2.022c2.975-4.846,6.167-9.508,10.763-13.021
		c1.006-0.769,1.971-1.294,3.467-0.279c-0.052,0.842,0.11,1.924-0.22,2.827c-0.777,2.129-1.573,4.304-2.75,6.223
		c-2.305,3.758-4.875,7.353-7.242,10.876c0.255-0.099,0.816-0.31,1.374-0.532c4.403-1.758,8.917-3.003,13.714-2.757
		c1.09,0.056,2.221,0.237,3.237,0.617c1.74,0.651,2.045,1.843,1.126,3.474c-1.026,1.822-2.841,2.659-4.592,3.402
		c-2.342,0.993-4.824,1.656-7.252,2.441c-0.623,0.201-1.271,0.325-1.924,0.832c1.069,0.38,2.142,0.747,3.205,1.142
		c3.314,1.231,6.51,2.685,9.244,4.991c0.316,0.266,0.658,0.529,0.89,0.861c1.033,1.48,0.48,3.074-1.303,3.184
		c-1.981,0.122-4.026,0.007-5.977-0.36c-4.169-0.785-8.083-2.378-11.869-4.282c-0.399-0.201-0.82-0.359-1.436-0.626
		c0.808,2.376,1.617,4.475,2.232,6.629c1.065,3.732,1.933,7.511,1.738,11.439c-0.034,0.688-0.107,1.393-0.294,2.052
		c-0.595,2.105-2.42,2.653-3.906,1.01c-1.188-1.314-2.187-2.866-2.98-4.457c-2.109-4.234-3.386-8.754-4.172-13.414
		c-0.043-0.254-0.131-0.501-0.287-1.086c-0.38,0.633-0.651,0.985-0.818,1.381c-1.619,3.838-3.602,7.471-6.225,10.714
		c-0.817,1.011-1.827,1.905-2.877,2.679c-1.448,1.068-2.887,0.385-2.798-1.403c0.085-1.708,0.347-3.49,0.964-5.07
		c1.249-3.2,2.791-6.286,4.157-9.297c-2.566,1.358-5.246,2.87-8.014,4.2c-1.355,0.651-2.858,1.015-4.322,1.405
		c-0.649,0.173-1.382,0.192-2.052,0.099c-1.541-0.213-2.229-1.29-1.499-2.675c0.695-1.319,1.616-2.595,2.692-3.624
		c2.666-2.549,5.803-4.459,9.078-6.139c0.239-0.123,0.465-0.269,1.039-0.604c-2.2-0.343-4.078-0.545-5.914-0.943
		c-2.296-0.499-4.568-1.117-6.825-1.77c-0.85-0.246-1.66-0.684-2.435-1.126c-0.853-0.486-1.698-1.083-1.511-2.252
		c0.187-1.164,1.192-1.501,2.134-1.688c1.284-0.254,2.622-0.545,3.904-0.435c3.79,0.325,7.565,0.838,11.345,1.284
		c0.403,0.048,0.801,0.138,1.256,0.217c-2.517-2.786-5.077-5.409-7.378-8.242c-1.426-1.755-2.569-3.772-3.631-5.781
		c-0.661-1.25-1.227-2.702-0.118-4.069c1.224-0.673,2.319-0.232,3.382,0.315c3.247,1.671,5.851,4.149,8.275,6.807
		c1.68,1.842,3.194,3.835,5.063,5.697c-0.243-1.713-0.516-3.423-0.721-5.141c-0.42-3.52-0.582-7.045-0.009-10.566
		C72.438,208.308,72.591,208.069,74.471,206.659z M80.383,240.352c2.56-2.149,2.892-4.934,0.879-7.365
		c-1.871-2.26-5.328-2.56-7.551-0.656c-2.144,1.837-2.591,5.673-0.899,7.721C74.585,242.197,78.022,242.333,80.383,240.352z"/>
</g>
<g>
</g>
<g>
</g>
<g>
</g>
<g>
</g>
<g>
</g>
<g>
</g>
</svg>
