<?xml version="1.0" encoding="utf-8"?>
<!-- Generator: Adobe Illustrator 28.0.0, SVG Export Plug-In . SVG Version: 6.00 Build 0)  -->
<svg version="1.1" id="Layer_1" xmlns="http://www.w3.org/2000/svg" xmlns:xlink="http://www.w3.org/1999/xlink" x="0px" y="0px"
	 viewBox="0 0 300 300" style="enable-background:new 0 0 300 300;" xml:space="preserve">
<style type="text/css">
	.st0{fill:#F2B342;}
	.st1{fill:#D8606C;}
	.st2{fill:#FFFFFF;}
	.st3{fill:#A4C2BA;}
	.st4{fill:#F3EBDE;}
	.st5{fill:#FECA8C;}
</style>
<g>
	<path class="st0" d="M81.99,73.16c1.22,4.68-3.85,11.49-4.21,16.68c-0.15,2.24,0.46,4.58,1.03,6.74c1.27,4.86,3.23,7.09-3.1,8.75
		c-2.25,0.59-3.91,0.04-4.55-2.39c-0.65-2.48-0.84-5.07-1.49-7.55c-0.54-2.06-1.2-2.92-2.94-4.13c-2.76-2.12-8.64-6.61-9.53-10
		c-0.72-2.75,1.15-5.54,3.9-6.26c1.01-0.26,2.02-0.14,2.8,0.59c2.27,2.1,4.24,4.58,6.52,6.57c0.14,0.16,0.31,0.26,0.54,0.2
		c1.24-0.32,3.02-8.48,3.64-10.07c0.38-0.98,1.08-1.51,2.08-1.77C78.94,69.94,81.37,70.77,81.99,73.16z M112.43,83.54
		c0,8.01-5.21,17.49-14.17,17.49c-8.15,0-12.47-8.44-12.47-15.64c0-7.87,5.21-17.49,14.08-17.49
		C108.07,67.89,112.43,76.29,112.43,83.54z M102.47,84.34c0-1.8-0.43-5.97-2.94-5.97c-2.56,0-3.7,4.84-3.7,6.83
		c0,1.99,0.38,4.5,2.89,4.5C101.48,89.7,102.47,86.57,102.47,84.34z M140.68,80.86c0.94,2.82-0.07,6.43-0.84,9.21
		c-1.92,6.9-6.12,18.08-15.04,17.61c-0.59-0.02-1.24-0.15-1.83-0.31c-3.01-0.84-5.46-3.19-6.8-5.98c-2.66-5.47-1.54-12.14,0.04-17.8
		c0.53-1.92,1.16-3.81,1.79-5.7c0.93-2.99,2.97-5.52,6.48-4.54c1.42,0.39,2.7,1.44,3.26,2.78c1.96,4.43-2.48,10.14-1.85,14.59
		c0.09,0.57,0.26,1.2,0.85,1.37c1.19,0.33,1.81-1.02,2.05-1.89c0.6-2.15,1.14-4.26,1.74-6.41c0.78-2.98,2.54-7.71,6.61-6.58
		C138.81,77.68,140.12,79.18,140.68,80.86z M164.97,73.49c3.92,3.29,10.28,17.49,11.83,22.42c0.97,3.07,0.64,6.46-2.89,7.57
		c-2.98,0.94-5.18-0.51-6.09-3.4c-0.8-2.53-1.01-5.25-1.8-7.78c-0.28-0.9-0.87-1.81-2-1.46c-0.59,0.18-1.03,0.67-1.25,1.24
		c-0.82,2.15,2.51,9.55,1.18,12.6c-0.73,1.62-2.35,2.63-4.03,3.16c-3.03,0.95-5.3,0.53-6.34-2.78c-0.24-0.77-0.38-1.52-0.49-2.33
		c-1.03-8.47,0-16.75,3.16-24.7c0.88-2.26,2.15-4.7,4.64-5.48C162.43,72.05,163.76,72.48,164.97,73.49z M164.38,84.71
		c-0.23-0.72-1.58-3.28-2.48-3c-0.59,0.18-0.81,4.23-0.61,4.86c0.2,0.63,1.01,0.53,1.51,0.37
		C163.66,86.67,164.71,85.75,164.38,84.71z M203.98,96.78c0.85,1.17,1.85,2.59,1.65,4.1c-0.34,2.54-3.86,2.73-5.88,2.46
		c-4.42-0.6-4.95-13.92-6.97-14.2c-0.42-0.06-0.39,0.42-0.43,0.71c-0.46,3.38-0.07,6.88-0.53,10.26c-0.4,2.96-2.46,2.97-4.9,2.64
		c-1.6-0.22-3.79-0.66-4.63-2.21c-0.96-1.71,0-9.52,0.3-11.78c0.54-3.99,1.46-7.94,2.88-11.71c1.93-5.1,5.63-7.27,11.08-6.54
		c5.73,0.78,10.61,5.03,9.77,11.23c-0.39,2.87-2.71,6.62-5.84,7.05C201.33,91.3,202.45,94.66,203.98,96.78z M197.16,81.12
		c0.21-1.55-1.33-2.86-2.74-3.05c-0.7-0.1-1.15,3.19-1.23,3.76c-0.1,0.7-0.37,1.67,0.57,1.8C195.45,83.86,196.92,82.86,197.16,81.12
		z M229.37,103.77c-0.65,3.74-4.74,4.03-7.78,3.79c-2.52-0.15-5.07-0.45-7.59-0.89c-1.12-0.2-2.29-0.4-3.23-1.04
		c-2.2-1.49-2.24-4.53-2.07-6.9c0.18-2.95,0.53-5.83,1.04-8.72c0.71-4.06,1.66-8.18,3.06-12.03c1.7-4.8,6.93-3.89,10.9-3.2
		c2.29,0.4,7.61,1.08,8.66,3.62c0.44,1.04,0.44,2.15,0.26,3.22c-0.49,2.8-0.89,4.27-4.06,3.72l-5.23-0.91
		c-1.4-0.24-1.88,0.3-2.11,1.61c-0.1,0.56-0.18,1.6,0.56,1.73c1.31,0.23,2.69,0.28,4,0.5c2.76,0.48,2.96,2.06,2.53,4.53
		c-0.88,5.04-8.82,0.63-9.37,3.81c-0.14,0.79,0.08,0.93,0.78,1.05c1.96,0.34,3.96,0.5,5.92,0.84
		C229.08,99.1,230,100.17,229.37,103.77z M104.36,131.18c-1.77,9.27-10.92,16.74-20.46,14.91c-1.63-0.31-3.04-0.53-3.62-2.28
		c-0.83-2.48,0.54-12.16,1.09-15.04c0.74-3.86,1.76-7.72,3.1-11.43c1.47-3.92,5.53-3.67,9.07-3
		C101.59,115.88,105.85,123.36,104.36,131.18z M95.32,130.23c0.36-1.91-0.42-4.62-2.61-5.04c-2.33-0.44-3.16,3.16-3.48,4.84
		c-0.28,1.44-0.78,3.81,1.18,4.18C92.65,134.64,94.93,132.28,95.32,130.23z M134.16,127.37c1.32,7.9-2.26,18.11-11.09,19.59
		c-8.04,1.35-13.69-6.27-14.88-13.37c-1.3-7.76,2.26-18.11,11-19.58C127.28,112.66,132.97,120.21,134.16,127.37z M124.48,129.8
		c-0.3-1.78-1.41-5.82-3.88-5.41c-2.52,0.42-2.85,5.38-2.52,7.34c0.33,1.96,1.12,4.38,3.6,3.96
		C124.38,135.25,124.84,132,124.48,129.8z M153.8,143.56c-0.09,2.84-1.72,3.74-4.38,3.66c-3.32-0.1-6.63-0.48-9.94-0.68
		c-1.94-0.15-3.39-0.86-3.32-3.04c0.06-1.94,1.67-3.46,3.61-3.4l0.43,0.01c0.33-6.3,0.66-12.6,0.85-18.9c0.03-1-1.16-0.84-1.77-1.14
		c-1.03-0.46-1.48-2.75-1.45-3.74c0.06-1.99,1.73-2.32,3.44-2.27c2.8-0.01,5.6-0.12,8.4-0.03c2.09,0.06,4.39,0.8,4.31,3.31
		c-0.04,1.33-1.02,2.48-2.31,2.78c-0.29,0.04-0.57,0.03-0.81,0.21c-0.43,0.27-0.5,0.89-0.52,1.36c-0.19,6.35-0.38,12.7-0.9,19.04
		C151.42,140.78,153.88,141,153.8,143.56z M178.98,115.34c1.24,3.19,2.37,6.47,3.35,9.79c1,3.36,1.87,6.81,2.6,10.26
		c0.58,2.79,1.02,7.26-2.53,8.32c-5.91,1.75-11.12-11.48-14.49-10.49c-0.59,0.18-0.19,1.54-0.06,1.95c0.82,2.77,2.55,5.27,3.39,8.09
		c0.8,2.68-0.39,4.37-2.98,5.14c-5.59,1.66-7.44-5.41-8.6-9.32c-1.35-4.54-6.13-19.99,0.5-21.96c4.09-1.21,7,4.75,9.33,7.12
		c0.35,0.34,0.79,0.51,1.34,0.34c2.27-0.67-1.22-8.44,0.31-10.77c0.57-0.91,1.59-1.31,2.54-1.6
		C176.7,111.32,177.87,112.61,178.98,115.34z M211.85,135.57c-0.97,6.57-7.14,12.26-13.94,11.25c-7.78-1.16-10.16-10.66-9.17-17.32
		c1.09-7.36,7.09-16.44,15.53-15.19c2.91,0.43,7.59,3.09,7.08,6.56c-0.3,2.02-2.94,5.94-5.29,5.59c-1.36-0.2-2.3-1.3-3.66-1.5
		c-3.42-0.51-5.8,3.26-6.24,6.21c-0.38,2.58,0.89,5.6,3.75,6.02c1.69,0.25,2.64-0.66,2.89-2.35c0.28-1.88-3.41,0.4-2.79-3.82
		c0.15-1.03,0.6-2.12,1.62-2.54c1.65-0.81,4.15-0.82,5.93-0.56C211.75,128.56,212.4,131.92,211.85,135.57z M66.43,154.63
		c3.51,3.72,8.19,18.56,9.16,23.63c0.61,3.17-0.11,6.49-3.74,7.18c-3.07,0.59-5.09-1.1-5.66-4.08c-0.5-2.61-0.39-5.33-0.89-7.94
		c-0.18-0.93-0.65-1.9-1.82-1.68c-0.61,0.12-1.1,0.55-1.38,1.09c-1.06,2.04,1.39,9.77-0.28,12.65c-0.91,1.53-2.64,2.34-4.36,2.67
		c-3.12,0.6-5.33-0.09-5.98-3.49c-0.15-0.79-0.2-1.55-0.21-2.37c-0.04-8.54,1.93-16.64,5.99-24.17c1.13-2.15,2.68-4.42,5.24-4.91
		C64.07,152.91,65.34,153.48,66.43,154.63z M64.54,165.7c-0.14-0.74-1.19-3.44-2.12-3.26c-0.61,0.12-1.29,4.11-1.16,4.76
		c0.13,0.65,0.94,0.64,1.46,0.54C63.6,167.57,64.75,166.77,64.54,165.7z M112.1,161.44c1.14,4.02-0.54,17.04-1.44,21.35
		c-0.63,3.01-2.26,9.12-6.48,8.23c-1.39-0.29-2.55-1.46-3.14-2.79c-0.73-1.61-0.67-3.48-0.45-5.23c0.21-1.22,1.6-6.69-0.11-7.05
		c-2.41-0.51-0.84,8.11-5.71,7.08c-3.94-0.83-1.57-7.74-3.28-8.1c-1.07-0.22-1.75,2.1-1.91,2.84c-0.36,1.72-0.25,3.48-0.6,5.15
		c-0.55,2.6-2.16,4.97-5.18,4.34c-5.38-1.13-4.35-8.09-3.53-11.98c1.03-4.87,5.86-21.63,12.96-20.14
		c7.28,1.53,1.86,12.79,4.69,13.39c1.76,0.37,3.98-7.64,5.4-9.08c1.17-1.21,3.03-1.49,4.65-1.15
		C109.54,158.62,111.63,159.74,112.1,161.44z M135.19,155.85c2.75,4.31,4.55,19.77,4.55,24.94c0,3.22-1.33,6.35-5.03,6.35
		c-3.13,0-4.79-2.04-4.79-5.07c0-2.65,0.62-5.31,0.62-7.96c0-0.95-0.28-1.99-1.47-1.99c-0.62,0-1.18,0.33-1.56,0.81
		c-1.42,1.8-0.47,9.86-2.65,12.37c-1.19,1.33-3.03,1.8-4.79,1.8c-3.18,0-5.21-1.09-5.21-4.55c0-0.81,0.1-1.56,0.24-2.37
		c1.56-8.39,5.03-15.98,10.43-22.61c1.52-1.9,3.46-3.84,6.07-3.84C133.2,153.72,134.34,154.53,135.19,155.85z M131.26,166.38
		c0-0.76-0.52-3.6-1.47-3.6c-0.62,0-2.04,3.79-2.04,4.46c0,0.66,0.81,0.81,1.33,0.81C129.98,168.04,131.26,167.47,131.26,166.38z
		 M164.84,177.82c1.57-0.05,2.2,1.54,2.37,2.86c0.41,3.25,0.01,5.4-3.52,6.22c-2,0.44-4.06,0.8-6.08,1.05
		c-1.98,0.25-3.96,0.4-5.96,0.46c-3.81,0.1-6.19-1.33-6.69-5.32c-0.63-4.99,5.42-14.68,8.05-18.83c-2.02,0.64-4.11,1.14-6.23,1.4
		c-2.54,0.32-5.06,0.01-5.45-3.04c-0.21-1.65,0.26-3.66,1.6-4.74c1.73-1.41,8.12-2.64,10.48-2.94c4.37-0.55,9.77-1.37,10.5,4.46
		c0.53,4.23-4.77,14.89-6.66,18.85C159.76,178.12,162.35,177.8,164.84,177.82z M185.84,187.49c0,2.84-1.61,3.79-4.27,3.79
		c-3.32,0-6.64-0.29-9.96-0.38c-1.94-0.1-3.41-0.76-3.41-2.94c0-1.94,1.56-3.51,3.51-3.51h0.43c0.14-6.31,0.28-12.61,0.28-18.92
		c0-1-1.19-0.81-1.8-1.09c-1.04-0.43-1.56-2.7-1.56-3.7c0-1.99,1.66-2.37,3.37-2.37c2.8-0.1,5.59-0.29,8.39-0.29
		c2.09,0,4.41,0.66,4.41,3.18c0,1.33-0.95,2.51-2.23,2.84c-0.28,0.05-0.57,0.05-0.81,0.24c-0.43,0.28-0.47,0.9-0.47,1.37
		c0,6.35,0,12.7-0.33,19.06C183.38,184.79,185.84,184.93,185.84,187.49z M216.74,161.99c-0.23,3.42-0.61,6.86-1.14,10.28
		c-0.53,3.47-1.21,6.96-2.01,10.39c-0.66,2.78-2.17,7.01-5.83,6.45c-6.09-0.93-5.18-15.13-8.64-15.66
		c-0.61-0.09-0.82,1.31-0.89,1.74c-0.44,2.86,0.07,5.86-0.38,8.77c-0.42,2.77-2.21,3.79-4.88,3.38c-5.76-0.88-4.43-8.06-3.82-12.09
		c0.71-4.69,2.96-20.7,9.8-19.65c4.22,0.64,4.31,7.27,5.41,10.42c0.17,0.46,0.5,0.8,1.06,0.88c2.34,0.36,2.49-8.16,4.87-9.62
		c0.9-0.58,2-0.51,2.98-0.36C216.38,157.38,216.9,159.04,216.74,161.99z M243.27,175.31c1.26,6.52-2.66,13.94-9.41,15.24
		c-7.73,1.49-13.12-6.68-14.4-13.29c-1.41-7.31,1.23-17.86,9.61-19.48c2.89-0.56,8.19,0.4,8.86,3.84c0.39,2-0.8,6.58-3.13,7.03
		c-1.35,0.26-2.6-0.46-3.95-0.2c-3.4,0.66-4.39,5-3.82,7.93c0.5,2.56,2.7,4.98,5.54,4.43c1.68-0.32,2.27-1.5,1.94-3.18
		c-0.36-1.86-3.09,1.51-3.9-2.67c-0.2-1.02-0.14-2.19,0.69-2.93c1.29-1.31,3.64-2.15,5.41-2.49
		C240.84,168.73,242.57,171.68,243.27,175.31z M66.16,207.85c-0.33,2.2,8.47,5.83,7.16,14.46c-0.86,5.72-6.54,7.74-11.7,6.96
		c-3.75-0.57-9.23-3.65-8.55-8.15c0.34-2.25,2.29-4.06,4.64-3.71c2.11,0.32,2.97,2.22,4.85,2.51c0.75,0.11,1.92-0.04,2.07-0.98
		c0.45-2.95-9.04-5.83-7.78-14.17c0.86-5.72,6.7-9.15,12.19-8.32c3.8,0.57,8.96,3.56,8.28,8.06c-0.36,2.39-2.24,4.65-4.91,4.24
		c-2.06-0.31-2.97-2.27-4.04-2.43C67.28,206.15,66.34,206.68,66.16,207.85z M114.67,205.24c0.57,3.17-0.81,17.2-1.27,21.08
		c-0.44,3.69-1.35,8.29-5.74,9.07c-6.39,1.15-5.06-9.69-7.44-9.26c-2.94,0.53-1.02,10.92-6.86,11.97c-4.57,0.82-6.55-4.31-7.51-7.75
		c-1.58-5.59-3.02-11.21-5.29-16.58c-0.27-0.67-0.48-1.36-0.61-2.06c-0.58-3.22,1.5-5.33,4.53-5.87c2.43-0.44,3.72,0.87,4.8,2.85
		c1.38,2.59,1.83,6.42,3.13,8.59c0.12,0.12,0.31,0.38,0.5,0.34c2.66-0.48,0.92-6.96,4.09-7.53c2.99-0.54,2.57,5.99,4.58,5.63
		c3.22-0.58-1.8-12.44,6.69-13.97C110.97,201.28,114.13,202.21,114.67,205.24z M140.31,230.18c-0.41,3.77-4.48,4.33-7.52,4.28
		c-2.53,0.01-5.09-0.12-7.63-0.4c-1.13-0.12-2.31-0.25-3.29-0.84c-2.29-1.35-2.53-4.38-2.51-6.76c-0.01-2.96,0.16-5.85,0.48-8.77
		c0.45-4.1,1.14-8.27,2.28-12.2c1.39-4.9,6.67-4.33,10.68-3.89c2.31,0.25,7.66,0.6,8.87,3.06c0.51,1.01,0.58,2.11,0.46,3.2
		c-0.31,2.83-0.61,4.32-3.82,3.97l-5.28-0.57c-1.41-0.15-1.86,0.42-2,1.74c-0.06,0.56-0.08,1.61,0.67,1.69
		c1.32,0.14,2.71,0.1,4.03,0.25c2.78,0.3,3.09,1.86,2.82,4.36c-0.55,5.09-8.76,1.19-9.11,4.4c-0.09,0.8,0.14,0.92,0.84,1
		c1.98,0.22,3.98,0.24,5.96,0.46C139.72,225.54,140.71,226.55,140.31,230.18z M170.23,228.55c0.77,3.71-2.93,5.5-5.84,6.39
		c-2.4,0.79-4.88,1.45-7.39,1.97c-1.11,0.23-2.27,0.47-3.39,0.22c-2.59-0.58-3.75-3.38-4.47-5.66c-0.92-2.81-1.65-5.61-2.25-8.49
		c-0.84-4.04-1.46-8.22-1.59-12.31c-0.19-5.09,5.01-6.17,8.96-6.99c2.27-0.47,7.47-1.79,9.38,0.18c0.8,0.8,1.2,1.83,1.43,2.9
		c0.58,2.79,0.75,4.3-2.41,4.95l-5.2,1.08c-1.39,0.29-1.64,0.97-1.37,2.27c0.12,0.56,0.42,1.56,1.16,1.4
		c1.3-0.27,2.61-0.74,3.91-1.01c2.74-0.57,3.51,0.82,4.02,3.28c1.04,5.01-7.97,3.83-7.31,6.99c0.16,0.79,0.42,0.83,1.11,0.69
		c1.95-0.4,3.86-1,5.81-1.4C168.23,224.31,169.48,224.97,170.23,228.55z M194.26,202.51c0,1.94-0.81,3.56-2.8,4.17
		c-1.37,0.43-3.08,0.33-4.5,0.47c-0.19,0-1.52,0.1-1.52,0.29c0,5.55-0.19,11.05-0.38,16.54c-0.1,2.89-0.85,6.78-4.41,6.78
		c-4.17,0-4.79-3.6-4.79-7.06c0-5.4,0.24-10.81,0.57-16.21c-3.32-0.33-7.77,0.14-7.77-4.55c0-2.04,0.43-4.03,2.56-4.79
		c1.9-0.62,9.67-0.57,12.09-0.57C186.96,197.58,194.26,197.2,194.26,202.51z M212.14,232.23c-0.19,2.84-1.86,3.68-4.5,3.51
		c-3.31-0.22-6.6-0.72-9.91-1.03c-1.93-0.22-3.36-0.98-3.21-3.16c0.13-1.94,1.79-3.4,3.73-3.27l0.43,0.03
		c0.55-6.28,1.11-12.56,1.52-18.86c0.07-0.99-1.13-0.88-1.73-1.21c-1.01-0.49-1.38-2.8-1.32-3.79c0.13-1.99,1.81-2.26,3.51-2.15
		c2.8,0.09,5.6,0.08,8.39,0.26c2.08,0.14,4.36,0.95,4.19,3.46c-0.09,1.32-1.11,2.45-2.41,2.69c-0.29,0.03-0.57,0.01-0.82,0.18
		c-0.44,0.26-0.53,0.87-0.56,1.34c-0.41,6.34-0.83,12.68-1.58,18.99C209.85,229.37,212.3,229.68,212.14,232.23z M243.31,226.08
		c0.93,3.68-2.69,5.62-5.56,6.63c-2.37,0.89-4.81,1.65-7.3,2.28c-1.1,0.28-2.25,0.57-3.38,0.36c-2.61-0.47-3.89-3.22-4.7-5.46
		c-1.04-2.77-1.88-5.54-2.6-8.39c-1.01-4-1.81-8.15-2.1-12.23c-0.4-5.08,4.75-6.38,8.65-7.36c2.25-0.57,7.39-2.11,9.38-0.21
		c0.83,0.77,1.28,1.78,1.55,2.84c0.7,2.76,0.93,4.26-2.2,5.05l-5.15,1.3c-1.38,0.35-1.6,1.04-1.27,2.33
		c0.14,0.55,0.49,1.54,1.22,1.35c1.29-0.32,2.57-0.84,3.86-1.17c2.71-0.68,3.54,0.67,4.16,3.11c1.25,4.96-7.8,4.17-7.01,7.29
		c0.2,0.78,0.45,0.82,1.14,0.64c1.93-0.49,3.82-1.16,5.75-1.64C241.14,221.94,242.42,222.54,243.31,226.08z"/>
	<g>
		<path class="st1" d="M58.09,103.24c-2.47-0.53-4.92-0.24-7.34,0.43c-1.31,0.37-3.01,1.19-4.4,2.18c-0.53,1.46-1.3,2.87-2.36,4.13
			c0.27-0.04,4.19-2.41,9.55-1.05c0.12,0.03,0.16,0.13,0.07,0.22c-2.29,2.48-6.78,5.01-9.98,4.94c-0.19,0-0.38-0.05-0.57-0.07
			c0.96,0.94,1.84,2.02,2.27,3.37c0.79,2.53-0.37,4.18-1.51,6.48c-0.03,0.07-0.11,0.05-0.16,0c-1.88-2.4-3.02-4.37-3.37-7.06
			c-0.4,1.25-1.02,2.42-2,3.42c-0.64,0.65-1.63,1.06-2.54,1.3c-1.31,0.34-2.65,0.35-4.07,0.14c-0.68,1.53-1.11,5.88-0.97,7.07
			c0.57,5.06,4.21,10.75,8.58,13.09c14.39,7.69,26.01,7.86,30.48,7.03c0.57-0.11,1.2-0.34,1.64-0.72c1.8-1.56,3.08-3.49,3.7-5.8
			c2.83-10.53-5.93-28.81-7.41-30.99C65.88,108.67,61.34,103.93,58.09,103.24z"/>
		<path class="st1" d="M177,54.87c0.29-2.51-0.22-4.93-1.12-7.26c-0.49-1.27-1.46-2.88-2.58-4.18c-1.5-0.39-2.98-1.03-4.34-1.97
			c0.07,0.27,2.79,3.94,1.94,9.41c-0.02,0.12-0.11,0.17-0.21,0.09c-2.68-2.05-5.62-6.28-5.85-9.47c-0.01-0.19,0.01-0.38,0.02-0.57
			c-0.85,1.04-1.84,2.02-3.15,2.57c-2.44,1.03-4.2,0.02-6.59-0.9c-0.07-0.03-0.07-0.11-0.01-0.16c2.21-2.09,4.06-3.41,6.72-4.02
			c-1.28-0.28-2.5-0.79-3.59-1.67c-0.71-0.57-1.21-1.53-1.53-2.41c-0.46-1.27-0.6-2.61-0.52-4.04c-1.58-0.53-5.96-0.55-7.13-0.31
			c-4.98,1.05-10.31,5.2-12.23,9.77c-6.3,15.05-5.39,26.64-4.15,31.01c0.16,0.56,0.45,1.17,0.87,1.56c1.72,1.64,3.76,2.74,6.12,3.15
			c10.75,1.83,28.13-8.6,30.16-10.28C172.32,63.14,176.61,58.18,177,54.87z"/>
		<path class="st1" d="M222.36,135.8c-0.89,2.36-0.98,4.83-0.68,7.32c0.16,1.35,0.72,3.15,1.48,4.68c1.36,0.74,2.64,1.72,3.73,2.96
			c0-0.28-1.75-4.5,0.41-9.6c0.05-0.11,0.15-0.14,0.23-0.04c2.1,2.64,3.93,7.46,3.37,10.61c-0.03,0.19-0.11,0.37-0.16,0.55
			c1.07-0.8,2.28-1.52,3.68-1.73c2.62-0.4,4.08,1,6.18,2.47c0.06,0.04,0.04,0.12-0.03,0.16c-2.65,1.49-4.77,2.32-7.49,2.26
			c1.18,0.59,2.24,1.37,3.08,2.49c0.55,0.73,0.8,1.78,0.9,2.71c0.14,1.35-0.06,2.68-0.48,4.05c1.41,0.9,5.65,1.99,6.84,2.03
			c5.09,0.2,11.26-2.54,14.24-6.5c9.77-13.06,11.71-24.52,11.56-29.07c-0.02-0.58-0.16-1.24-0.46-1.73
			c-1.27-2.01-2.98-3.58-5.17-4.54c-9.98-4.39-29.38,1.5-31.75,2.63C228.91,128.92,223.54,132.69,222.36,135.8z"/>
		<path class="st1" d="M174.84,252.91c0.43-2.49,0.04-4.93-0.72-7.31c-0.42-1.3-1.3-2.96-2.35-4.31c-1.48-0.47-2.92-1.19-4.22-2.2
			c0.05,0.27,2.58,4.09,1.43,9.5c-0.03,0.12-0.12,0.16-0.22,0.08c-2.57-2.19-5.28-6.58-5.33-9.77c0-0.19,0.04-0.38,0.05-0.57
			c-0.9,0.99-1.95,1.92-3.28,2.4c-2.49,0.89-4.19-0.2-6.53-1.25c-0.07-0.03-0.06-0.11,0-0.16c2.32-1.97,4.24-3.19,6.92-3.65
			c-1.27-0.35-2.46-0.92-3.49-1.86c-0.67-0.61-1.13-1.59-1.4-2.49c-0.39-1.3-0.46-2.64-0.3-4.06c-1.55-0.62-5.92-0.87-7.11-0.69
			c-5.03,0.78-10.58,4.64-12.74,9.1c-7.11,14.68-6.82,26.31-5.81,30.74c0.13,0.57,0.39,1.19,0.78,1.61
			c1.63,1.73,3.61,2.94,5.94,3.47c10.64,2.41,28.55-7.07,30.67-8.63C169.72,260.91,174.27,256.19,174.84,252.91z"/>
	</g>
	<path class="st2" d="M70.39,138.01c0.17-0.55,0.52-0.87,1.15-0.36c0.79,0.63,1.04,2.18,0.38,2.96c-0.63,0.75-1.35-0.12-1.56-0.78
		C70.24,139.44,70.21,138.6,70.39,138.01z M38.68,132.83c-0.02,0.64-0.68,1.2-1.34,0.92c-0.81-0.35-1.63-0.85-2.22-1.49
		c-0.65-0.69-0.27-1.48,0.68-1.72C36.82,130.28,38.7,131.78,38.68,132.83z M50.9,139.64c-1.02,0.26-2.44-0.39-2.67-1.23
		c-0.18-0.66,0.17-1.04,0.77-1.21c0.98-0.27,2.49,0.31,2.69,1.02C51.86,138.83,51.49,139.49,50.9,139.64z M53.03,127.67
		c-1.19,0.4-3.14-0.28-3.63-1.31c-0.35-0.73,0.12-1.48,0.91-1.44c0.75,0.04,4.58,1.64,3.06,2.59
		C53.26,127.58,53.15,127.63,53.03,127.67z M57.87,135.34c0.19-1.1,1.72-1.22,2.54-0.85c0.61,0.28,1.83,1.64,0.97,2.25
		c-0.2,0.14-0.44,0.18-0.68,0.2C59.82,137,57.65,136.63,57.87,135.34z M64.63,145.45c-0.75,0.16-1.96-0.02-2.57-0.34
		c-0.57-0.3-0.86-0.93-0.38-1.48c0.27-0.31,0.69-0.45,1.1-0.45c0.86,0,1.85,0.44,2.26,1.22c0.2,0.38,0.23,0.86-0.27,1.01
		C64.72,145.42,64.68,145.44,64.63,145.45z M58.17,111.74c0.6-0.48,1.28-0.21,1.76,0.31c0.59,0.63,0.99,1.52,0.91,2.39
		c-0.07,0.78-0.61,1.53-1.45,1.03c-0.35-0.21-0.59-0.57-0.79-0.93C58.18,113.76,57.22,112.51,58.17,111.74z M63.61,128.08
		c-0.39,0.58-0.92,0.56-1.3,0c-0.49-0.7-1.03-1.5-1.07-2.38c-0.03-0.73,0.3-1.58,1.18-1.28C63.58,124.81,64.3,127.05,63.61,128.08z"
		/>
	<path class="st2" d="M143.53,70.38c0.56,0.11,0.91,0.44,0.46,1.12c-0.55,0.84-2.07,1.24-2.91,0.66c-0.81-0.56-0.01-1.35,0.63-1.63
		C142.09,70.36,142.93,70.25,143.53,70.38z M145.72,38.32c-0.64,0.04-1.26-0.57-1.04-1.25c0.27-0.84,0.69-1.7,1.27-2.35
		c0.63-0.72,1.45-0.41,1.78,0.52C148.08,36.23,146.77,38.25,145.72,38.32z M140.08,51.12c-0.35-0.99,0.16-2.47,0.97-2.77
		c0.64-0.24,1.05,0.07,1.27,0.66c0.37,0.95-0.08,2.51-0.77,2.77C140.98,52.01,140.29,51.7,140.08,51.12z M152.19,52.13
		c-0.51-1.15-0.01-3.15,0.96-3.74c0.69-0.42,1.49-0.02,1.51,0.77c0.03,0.75-1.21,4.71-2.29,3.28
		C152.31,52.35,152.25,52.24,152.19,52.13z M145.02,57.66c1.11,0.08,1.38,1.6,1.08,2.45c-0.22,0.63-1.46,1.98-2.15,1.18
		c-0.16-0.18-0.22-0.43-0.26-0.66C143.54,59.77,143.71,57.57,145.02,57.66z M135.59,65.34c-0.23-0.73-0.16-1.95,0.1-2.59
		c0.24-0.6,0.84-0.94,1.44-0.52c0.34,0.24,0.52,0.65,0.55,1.06c0.08,0.85-0.26,1.88-1,2.36c-0.36,0.23-0.83,0.31-1.03-0.17
		C135.62,65.43,135.6,65.39,135.59,65.34z M168.54,55.75c0.53,0.55,0.33,1.25-0.14,1.78c-0.57,0.64-1.42,1.13-2.3,1.13
		c-0.78,0.01-1.58-0.47-1.16-1.35c0.18-0.37,0.51-0.65,0.85-0.87C166.53,55.95,167.69,54.88,168.54,55.75z M152.78,62.7
		c-0.61-0.33-0.64-0.86-0.12-1.3c0.66-0.55,1.4-1.16,2.27-1.29c0.73-0.1,1.6,0.15,1.39,1.06C156.03,62.37,153.87,63.29,152.78,62.7z
		"/>
	<path class="st2" d="M258.6,128.9c-0.52-0.25-0.78-0.64-0.18-1.2c0.74-0.68,2.31-0.7,2.98,0.07c0.65,0.74-0.32,1.32-1.01,1.42
		C259.99,129.27,259.15,129.17,258.6,128.9z M248.68,159.46c0.63,0.11,1.09,0.86,0.71,1.46c-0.47,0.75-1.09,1.48-1.81,1.97
		c-0.78,0.54-1.5,0.04-1.6-0.94C245.87,160.92,247.64,159.28,248.68,159.46z M257.25,148.42c0.1,1.04-0.75,2.35-1.62,2.45
		c-0.68,0.07-1-0.33-1.08-0.95c-0.12-1.01,0.68-2.42,1.42-2.5C256.6,147.34,257.19,147.81,257.25,148.42z M245.75,144.5
		c0.22,1.24-0.76,3.06-1.84,3.39c-0.78,0.24-1.45-0.34-1.28-1.12c0.16-0.73,2.32-4.28,3.02-2.63
		C245.69,144.25,245.73,144.37,245.75,144.5z M254.06,140.87c-1.06-0.35-0.95-1.89-0.45-2.64c0.37-0.56,1.9-1.56,2.37-0.62
		c0.11,0.22,0.11,0.47,0.09,0.71C256,139.19,255.3,141.29,254.06,140.87z M265.07,135.72c0.05,0.76-0.31,1.93-0.73,2.49
		c-0.38,0.52-1.05,0.71-1.52,0.15c-0.27-0.31-0.34-0.75-0.28-1.16c0.13-0.85,0.71-1.76,1.55-2.05c0.41-0.14,0.89-0.1,0.96,0.42
		C265.06,135.63,265.07,135.67,265.07,135.72z M230.78,137c-0.38-0.66-0.02-1.3,0.57-1.69c0.71-0.49,1.65-0.75,2.5-0.54
		c0.76,0.18,1.42,0.84,0.8,1.59c-0.26,0.32-0.65,0.5-1.04,0.64C232.77,137.3,231.39,138.06,230.78,137z M247.76,134.1
		c0.51,0.47,0.41,0.99-0.2,1.29c-0.77,0.37-1.64,0.79-2.52,0.69c-0.73-0.08-1.52-0.53-1.09-1.36
		C244.52,133.63,246.84,133.26,247.76,134.1z"/>
	<g>
		<path class="st3" d="M43.98,109.98c2.97-3.54,3.8-8.21,2.81-12.05c-3.34,1.71-6.42,8.02-6.54,12.22c-1.5-1.9-2.62-2.72-6.14-4.52
			c-1.29-0.65-1.24-0.87-2.01,0.38c-0.07,0.12-0.13,0.26-0.23,0.46c3.83,1.75,4.93,2.73,7.34,4.93c-4.06-1.47-7.88-0.28-11.87,2.45
			c1.62,0.91,5.16,1.32,7.56,0.81c0.43-0.09,0.85-0.21,1.27-0.34c-0.17,0.15-0.33,0.32-0.49,0.5c-1.78,2.12-3.43,4.34-5.22,6.62
			c1.88,0.42,3.61,0.52,5.29,0.08c0.91-0.24,1.91-0.65,2.54-1.3c0.98-1,1.6-2.17,2-3.42c0.35,2.7,1.49,4.67,3.37,7.06
			c0.05,0.06,0.13,0.07,0.16,0c1.14-2.3,2.3-3.95,1.51-6.48c-0.42-1.35-1.31-2.43-2.27-3.37c0.19,0.02,0.38,0.07,0.57,0.07
			c3.2,0.07,7.68-2.46,9.98-4.94c0.08-0.09,0.05-0.19-0.07-0.22C48.17,107.56,44.26,109.93,43.98,109.98z"/>
		<path class="st3" d="M168.97,41.46c3.8,2.62,8.53,3.02,12.26,1.67c-2.01-3.16-8.58-5.64-12.78-5.37c1.75-1.67,2.47-2.86,3.92-6.54
			c0.53-1.34,0.75-1.32-0.56-1.97c-0.13-0.06-0.27-0.1-0.48-0.18c-1.38,3.97-2.25,5.16-4.23,7.77c1.08-4.18-0.46-7.87-3.55-11.59
			c-0.76,1.7-0.83,5.26-0.1,7.61c0.13,0.42,0.29,0.83,0.46,1.23c-0.17-0.15-0.35-0.3-0.54-0.44c-2.28-1.57-4.65-3.01-7.08-4.58
			c-0.24,1.91-0.18,3.64,0.42,5.27c0.32,0.88,0.83,1.84,1.53,2.41c1.09,0.88,2.31,1.39,3.59,1.67c-2.65,0.6-4.51,1.92-6.72,4.02
			c-0.05,0.05-0.06,0.13,0.01,0.16c2.39,0.92,4.15,1.92,6.59,0.9c1.31-0.55,2.3-1.53,3.15-2.57c-0.01,0.19-0.03,0.38-0.02,0.57
			c0.23,3.19,3.17,7.42,5.85,9.47c0.1,0.07,0.19,0.03,0.21-0.09C171.76,45.41,169.03,41.73,168.97,41.46z"/>
		<path class="st3" d="M226.89,150.76c-3.05-3.47-7.54-5-11.48-4.6c1.18,3.56,6.95,7.56,11.09,8.32c-2.1,1.2-3.09,2.17-5.4,5.39
			c-0.84,1.17-1.05,1.1,0.07,2.05c0.11,0.09,0.23,0.16,0.42,0.29c2.3-3.52,3.44-4.46,5.99-6.51c-2.07,3.79-1.47,7.74,0.62,12.11
			c1.15-1.47,2.08-4.9,1.94-7.36c-0.02-0.44-0.08-0.87-0.14-1.31c0.12,0.19,0.26,0.38,0.42,0.56c1.83,2.08,3.77,4.05,5.75,6.16
			c0.7-1.79,1.06-3.49,0.88-5.22c-0.1-0.93-0.35-1.98-0.9-2.71c-0.84-1.12-1.9-1.9-3.08-2.49c2.72,0.06,4.84-0.77,7.49-2.26
			c0.06-0.04,0.09-0.11,0.03-0.16c-2.1-1.47-3.56-2.88-6.18-2.47c-1.4,0.21-2.6,0.92-3.68,1.73c0.05-0.18,0.13-0.36,0.16-0.55
			c0.55-3.15-1.27-7.97-3.37-10.61c-0.08-0.1-0.18-0.07-0.23,0.04C225.14,146.26,226.89,150.48,226.89,150.76z"/>
		<path class="st3" d="M167.54,239.08c3.65,2.82,8.36,3.47,12.15,2.32c-1.84-3.27-8.27-6.1-12.47-6.05
			c1.84-1.58,2.62-2.72,4.27-6.32c0.6-1.31,0.82-1.28-0.46-2c-0.12-0.07-0.26-0.12-0.47-0.21c-1.59,3.89-2.53,5.03-4.64,7.53
			c1.31-4.12-0.04-7.88-2.92-11.77c-0.85,1.66-1.11,5.2-0.51,7.59c0.11,0.42,0.24,0.84,0.39,1.26c-0.16-0.16-0.33-0.32-0.52-0.47
			c-2.19-1.69-4.48-3.26-6.82-4.95c-0.34,1.89-0.37,3.63,0.13,5.29c0.27,0.9,0.72,1.88,1.4,2.49c1.04,0.94,2.23,1.51,3.49,1.86
			c-2.68,0.46-4.61,1.68-6.92,3.65c-0.06,0.05-0.06,0.13,0,0.16c2.34,1.05,4.04,2.14,6.53,1.25c1.33-0.48,2.38-1.4,3.28-2.4
			c-0.02,0.19-0.06,0.38-0.05,0.57c0.06,3.2,2.77,7.58,5.33,9.77c0.09,0.08,0.19,0.04,0.22-0.08
			C170.12,243.17,167.59,239.36,167.54,239.08z"/>
	</g>
	<path class="st2" d="M140.58,266.58c0.55,0.15,0.89,0.48,0.4,1.14c-0.6,0.81-2.14,1.12-2.94,0.5c-0.77-0.6,0.07-1.35,0.72-1.59
		C139.14,266.49,139.99,266.43,140.58,266.58z M144.49,234.69c-0.64,0.01-1.23-0.64-0.97-1.3c0.32-0.82,0.78-1.66,1.4-2.28
		c0.67-0.68,1.46-0.33,1.75,0.61C146.97,232.73,145.55,234.68,144.49,234.69z M138.18,247.17c-0.3-1,0.29-2.45,1.12-2.71
		c0.66-0.2,1.04,0.13,1.24,0.72c0.31,0.97-0.21,2.5-0.91,2.73C139.03,248.1,138.35,247.76,138.18,247.17z M150.22,248.83
		c-0.45-1.17,0.16-3.14,1.16-3.68c0.72-0.38,1.49,0.06,1.47,0.85c-0.01,0.75-1.46,4.64-2.46,3.16
		C150.32,249.06,150.26,248.95,150.22,248.83z M142.75,253.97c1.11,0.14,1.29,1.67,0.95,2.51c-0.25,0.62-1.57,1.9-2.21,1.06
		c-0.15-0.19-0.2-0.44-0.23-0.68C141.16,255.99,141.45,253.8,142.75,253.97z M132.92,261.13c-0.19-0.74-0.06-1.96,0.24-2.58
		c0.28-0.58,0.89-0.89,1.46-0.44c0.32,0.25,0.48,0.68,0.49,1.09c0.03,0.86-0.36,1.86-1.13,2.3c-0.37,0.21-0.85,0.27-1.02-0.23
		C132.95,261.22,132.93,261.17,132.92,261.13z M166.34,253.33c0.5,0.58,0.26,1.27-0.23,1.77c-0.61,0.61-1.48,1.05-2.36,1.01
		c-0.78-0.04-1.55-0.55-1.09-1.41c0.2-0.36,0.55-0.62,0.9-0.83C164.33,253.42,165.54,252.41,166.34,253.33z M150.23,259.42
		c-0.59-0.36-0.59-0.9-0.05-1.3c0.68-0.51,1.46-1.09,2.34-1.16c0.73-0.06,1.59,0.23,1.33,1.13
		C153.5,259.26,151.29,260.07,150.23,259.42z"/>
	<g>
		<path class="st4" d="M218.93,47.9c0.68,0.12,1.37,0.02,2.04,0.23c1.66,0.52,3.14,1.4,4.12,2.81c1.1,1.58,1.27,3.35,0.36,5.17
			c-0.86,1.73-2.22,2.57-4.11,2.62c-0.39,0.01-0.78-0.06-1.22-0.1c0.1,0.19,0.17,0.33,0.24,0.46c0.9,1.66,0.9,3.3-0.11,4.9
			c-0.91,1.44-2.12,2.56-3.73,3.16c-3.32,1.24-5.89-1.06-6.59-3.86c-0.07-0.29-0.13-0.57-0.21-0.89c-0.42,0.34-0.86,0.69-1.33,1
			c-1.68,1.1-3.43,1.11-5.22,0.38c-1.49-0.61-2.63-1.58-3.14-3.18c-0.64-2.01,0.22-4.73,1.96-5.93c0.38-0.26,0.35-0.41,0.03-0.65
			c-0.29-0.22-0.52-0.5-0.74-0.78c-1.31-1.69-1.09-3.82,0.53-5.24c1.4-1.22,3.09-1.53,4.87-1.51c0.33,0,0.41-0.06,0.49-0.39
			c0.62-2.79,2.3-4.95,5.28-5.58c1.42-0.3,2.53,0.34,3.48,1.3c0.85,0.85,1.32,1.91,1.39,3.13c0.05,0.85,0.07,1.7,0.1,2.54
			c-0.18,0.27-0.21,0.59-0.31,0.99C217.74,48.14,218.34,48.05,218.93,47.9z"/>
		<path class="st4" d="M91.64,38.01c0.16-0.67,0.11-1.37,0.37-2.02c0.64-1.62,1.61-3.03,3.09-3.91c1.66-0.99,3.43-1.03,5.18,0
			c1.66,0.98,2.41,2.39,2.33,4.28c-0.02,0.39-0.12,0.77-0.19,1.21c0.19-0.08,0.34-0.15,0.48-0.21c1.71-0.78,3.35-0.67,4.88,0.45
			c1.38,1,2.4,2.3,2.89,3.94c1.01,3.4-1.46,5.8-4.31,6.31c-0.29,0.05-0.58,0.09-0.9,0.15c0.31,0.44,0.63,0.91,0.9,1.4
			c0.98,1.75,0.87,3.5,0.02,5.23c-0.71,1.44-1.76,2.51-3.39,2.91c-2.05,0.5-4.71-0.55-5.78-2.36c-0.23-0.4-0.38-0.37-0.64-0.08
			c-0.24,0.28-0.53,0.48-0.83,0.69c-1.77,1.19-3.89,0.82-5.19-0.89c-1.12-1.48-1.31-3.19-1.17-4.96c0.03-0.33-0.03-0.42-0.36-0.51
			c-2.74-0.82-4.78-2.64-5.2-5.66c-0.2-1.44,0.52-2.5,1.54-3.38c0.91-0.79,2-1.18,3.22-1.17c0.85,0.01,1.7,0.05,2.54,0.08
			c0.26,0.2,0.57,0.25,0.96,0.38C91.8,39.22,91.75,38.61,91.64,38.01z"/>
		<path class="st4" d="M266.44,194.67c0.65,0.22,1.35,0.23,1.98,0.55c1.56,0.78,2.88,1.88,3.63,3.42c0.84,1.74,0.73,3.51-0.46,5.16
			c-1.12,1.57-2.59,2.19-4.47,1.94c-0.39-0.05-0.76-0.18-1.19-0.29c0.07,0.2,0.12,0.35,0.17,0.5c0.63,1.78,0.37,3.4-0.88,4.82
			c-1.12,1.28-2.5,2.19-4.18,2.53c-3.48,0.71-5.65-1.97-5.9-4.85c-0.03-0.29-0.04-0.59-0.07-0.91c-0.47,0.27-0.96,0.54-1.47,0.77
			c-1.83,0.82-3.56,0.56-5.21-0.44c-1.37-0.83-2.35-1.97-2.6-3.64c-0.32-2.09,0.96-4.64,2.86-5.54c0.42-0.2,0.41-0.35,0.13-0.63
			c-0.25-0.26-0.44-0.57-0.61-0.89c-1.03-1.87-0.48-3.95,1.34-5.09c1.58-0.99,3.29-1.03,5.04-0.73c0.33,0.06,0.42,0,0.54-0.31
			c1.06-2.66,3.05-4.53,6.09-4.68c1.45-0.07,2.45,0.74,3.24,1.83c0.7,0.98,1,2.1,0.88,3.31c-0.09,0.84-0.2,1.69-0.3,2.53
			c-0.22,0.24-0.29,0.55-0.47,0.93C265.22,194.73,265.84,194.73,266.44,194.67z"/>
		<path class="st4" d="M65.6,256.78c-0.69-0.04-1.36,0.15-2.06,0.02c-1.71-0.32-3.28-1.01-4.43-2.29c-1.29-1.44-1.66-3.17-0.98-5.09
			c0.65-1.82,1.89-2.82,3.76-3.09c0.38-0.06,0.78-0.03,1.22-0.04c-0.12-0.17-0.21-0.3-0.3-0.43c-1.09-1.54-1.29-3.16-0.48-4.88
			c0.73-1.54,1.8-2.79,3.32-3.58c3.15-1.63,5.97,0.34,7.01,3.04c0.11,0.27,0.2,0.55,0.31,0.86c0.38-0.38,0.77-0.78,1.2-1.15
			c1.53-1.29,3.27-1.51,5.14-1c1.55,0.42,2.8,1.25,3.5,2.78c0.88,1.92,0.35,4.73-1.23,6.12c-0.34,0.3-0.3,0.45,0.05,0.64
			c0.32,0.18,0.58,0.43,0.83,0.69c1.5,1.52,1.54,3.66,0.1,5.26c-1.24,1.38-2.88,1.89-4.65,2.09c-0.33,0.04-0.4,0.11-0.44,0.45
			c-0.28,2.85-1.69,5.19-4.58,6.17c-1.38,0.47-2.56-0.04-3.61-0.87c-0.94-0.75-1.54-1.74-1.75-2.94c-0.15-0.84-0.27-1.68-0.4-2.51
			c0.15-0.29,0.13-0.61,0.19-1.02C66.75,256.39,66.16,256.56,65.6,256.78z"/>
		<path class="st4" d="M41.88,191.53c0.51-0.14,0.95-0.44,1.49-0.52c1.32-0.19,2.63-0.07,3.77,0.57c1.28,0.73,1.98,1.89,1.96,3.45
			c-0.02,1.48-0.68,2.51-1.96,3.17c-0.26,0.14-0.56,0.21-0.87,0.33c0.13,0.1,0.22,0.17,0.32,0.24c1.17,0.84,1.71,1.97,1.55,3.42
			c-0.15,1.29-0.62,2.47-1.52,3.41c-1.88,1.96-4.41,1.22-5.82-0.48c-0.14-0.17-0.28-0.35-0.44-0.54c-0.18,0.37-0.37,0.76-0.59,1.13
			c-0.79,1.31-2,1.9-3.47,1.99c-1.23,0.07-2.34-0.22-3.22-1.15c-1.11-1.18-1.41-3.34-0.61-4.73c0.18-0.3,0.1-0.4-0.19-0.46
			c-0.27-0.05-0.52-0.17-0.77-0.29c-1.46-0.73-2.02-2.27-1.37-3.79c0.56-1.31,1.62-2.08,2.85-2.65c0.23-0.11,0.26-0.18,0.21-0.43
			c-0.5-2.13-0.05-4.18,1.8-5.6c0.88-0.68,1.86-0.6,2.83-0.26c0.87,0.31,1.54,0.88,1.99,1.7c0.31,0.57,0.61,1.15,0.91,1.72
			c-0.04,0.25,0.05,0.47,0.11,0.79C41.13,192.09,41.52,191.83,41.88,191.53z"/>
		<path class="st4" d="M223.98,245.88c0.51-0.14,0.95-0.44,1.49-0.52c1.32-0.19,2.63-0.07,3.77,0.57c1.28,0.73,1.98,1.89,1.96,3.45
			c-0.02,1.48-0.68,2.51-1.96,3.17c-0.26,0.14-0.56,0.21-0.87,0.33c0.13,0.1,0.22,0.17,0.32,0.24c1.17,0.84,1.71,1.97,1.55,3.42
			c-0.15,1.29-0.62,2.47-1.52,3.41c-1.88,1.96-4.41,1.22-5.82-0.48c-0.14-0.17-0.28-0.35-0.44-0.54c-0.18,0.37-0.37,0.76-0.59,1.13
			c-0.79,1.31-2,1.9-3.47,1.99c-1.23,0.07-2.34-0.22-3.22-1.15c-1.11-1.18-1.41-3.34-0.61-4.73c0.18-0.3,0.1-0.4-0.19-0.46
			c-0.27-0.05-0.52-0.17-0.77-0.29c-1.46-0.73-2.02-2.27-1.37-3.79c0.56-1.31,1.62-2.08,2.85-2.65c0.23-0.11,0.26-0.18,0.21-0.43
			c-0.5-2.13-0.05-4.18,1.8-5.6c0.88-0.68,1.86-0.6,2.83-0.26c0.87,0.31,1.54,0.88,1.99,1.7c0.31,0.57,0.61,1.15,0.91,1.72
			c-0.04,0.25,0.05,0.47,0.11,0.79C223.24,246.44,223.62,246.18,223.98,245.88z"/>
		<path class="st4" d="M251.3,94.83c0.51-0.14,0.95-0.44,1.49-0.52c1.32-0.19,2.63-0.07,3.77,0.57c1.28,0.73,1.98,1.89,1.96,3.45
			c-0.02,1.48-0.68,2.51-1.96,3.17c-0.26,0.14-0.56,0.21-0.87,0.33c0.13,0.1,0.22,0.17,0.32,0.24c1.17,0.84,1.71,1.97,1.55,3.42
			c-0.15,1.29-0.62,2.47-1.52,3.41c-1.88,1.96-4.41,1.22-5.82-0.48c-0.14-0.17-0.28-0.35-0.44-0.54c-0.18,0.37-0.37,0.76-0.59,1.13
			c-0.79,1.31-2,1.9-3.47,1.99c-1.23,0.07-2.34-0.22-3.22-1.15c-1.11-1.18-1.41-3.34-0.61-4.73c0.18-0.3,0.1-0.4-0.19-0.46
			c-0.27-0.05-0.52-0.17-0.77-0.29c-1.46-0.73-2.02-2.27-1.37-3.79c0.56-1.31,1.62-2.08,2.85-2.65c0.23-0.11,0.26-0.18,0.21-0.43
			c-0.5-2.13-0.05-4.18,1.8-5.6c0.88-0.68,1.86-0.6,2.83-0.26c0.87,0.31,1.54,0.88,1.99,1.7c0.31,0.57,0.61,1.15,0.91,1.72
			c-0.04,0.25,0.05,0.47,0.11,0.79C250.56,95.39,250.94,95.13,251.3,94.83z"/>
		<path class="st4" d="M52.53,70.19c-0.27,0.45-0.39,0.97-0.73,1.39c-0.83,1.04-1.87,1.85-3.14,2.16c-1.43,0.35-2.74-0.02-3.79-1.18
			c-0.99-1.09-1.22-2.29-0.73-3.65c0.1-0.28,0.26-0.54,0.41-0.84c-0.16,0.02-0.28,0.03-0.4,0.05c-1.43,0.18-2.6-0.27-3.46-1.44
			c-0.78-1.05-1.23-2.22-1.22-3.53c0.03-2.71,2.38-3.9,4.58-3.63c0.22,0.03,0.45,0.06,0.69,0.1c-0.12-0.39-0.25-0.8-0.34-1.22
			c-0.32-1.5,0.16-2.75,1.18-3.83c0.84-0.89,1.85-1.44,3.14-1.36c1.61,0.1,3.31,1.47,3.68,3.04c0.08,0.34,0.2,0.36,0.45,0.2
			c0.24-0.15,0.5-0.23,0.76-0.31c1.57-0.47,3.03,0.28,3.59,1.83c0.48,1.34,0.24,2.62-0.27,3.89c-0.09,0.24-0.07,0.31,0.14,0.46
			c1.82,1.22,2.89,3.02,2.51,5.31c-0.18,1.1-0.95,1.71-1.89,2.12c-0.84,0.37-1.73,0.41-2.61,0.12c-0.62-0.2-1.23-0.42-1.84-0.63
			c-0.14-0.2-0.36-0.31-0.62-0.5C52.68,69.28,52.58,69.73,52.53,70.19z"/>
	</g>
	<g>
		<path class="st5" d="M215.08,51.88c0.42,0.38,0.75,0.88,0.93,1.52c0.45,1.63-0.56,3.19-1.98,3.92c-1.76,0.91-4.98,0.54-5.48-1.72
			c-0.17-0.75-0.02-1.55,0.26-2.27C209.74,50.91,213.28,50.26,215.08,51.88z"/>
		<path class="st5" d="M95.35,42.13c0.41-0.4,0.93-0.69,1.58-0.82c1.66-0.34,3.14,0.78,3.78,2.25c0.78,1.81,0.19,5-2.1,5.35
			c-0.76,0.11-1.55-0.08-2.24-0.41C94.01,47.39,93.61,43.81,95.35,42.13z"/>
		<path class="st5" d="M262.02,198c0.36,0.44,0.6,0.99,0.68,1.64c0.19,1.68-1.05,3.06-2.58,3.56c-1.88,0.62-5-0.25-5.14-2.56
			c-0.05-0.77,0.22-1.53,0.61-2.2C256.89,196.2,260.49,196.12,262.02,198z"/>
		<path class="st5" d="M68.94,252.37c-0.46-0.33-0.85-0.79-1.1-1.39c-0.65-1.57,0.17-3.23,1.5-4.13c1.63-1.11,4.88-1.13,5.65,1.05
			c0.26,0.73,0.21,1.53,0.02,2.28C74.36,252.69,70.92,253.76,68.94,252.37z"/>
		<path class="st5" d="M40.54,195.55c0.42,0.12,0.81,0.36,1.14,0.74c0.85,0.98,0.67,2.38-0.07,3.36c-0.91,1.21-3.25,2.02-4.35,0.63
			c-0.37-0.46-0.53-1.06-0.57-1.65C36.53,196.65,38.76,195.03,40.54,195.55z"/>
		<path class="st5" d="M222.64,249.9c0.42,0.12,0.81,0.36,1.14,0.74c0.85,0.98,0.67,2.38-0.07,3.36c-0.91,1.21-3.25,2.02-4.35,0.63
			c-0.37-0.46-0.53-1.06-0.57-1.65C218.64,251,220.86,249.38,222.64,249.9z"/>
		<path class="st5" d="M249.96,98.85c0.42,0.12,0.81,0.36,1.14,0.74c0.85,0.98,0.67,2.38-0.07,3.36c-0.91,1.21-3.25,2.02-4.35,0.63
			c-0.37-0.46-0.53-1.06-0.57-1.65C245.96,99.94,248.18,98.33,249.96,98.85z"/>
		<path class="st5" d="M50.76,66.35c-0.39,0.2-0.84,0.29-1.34,0.24c-1.29-0.13-2.12-1.28-2.25-2.5c-0.16-1.5,1-3.7,2.75-3.43
			c0.58,0.09,1.11,0.41,1.55,0.81C52.93,62.81,52.41,65.51,50.76,66.35z"/>
	</g>
</g>
</svg>
