<?xml version="1.0" encoding="iso-8859-1"?>
<!-- Generator: Adobe Illustrator 22.1.0, SVG Export Plug-In . SVG Version: 6.00 Build 0)  -->
<svg version="1.1" id="Layer_1" xmlns="http://www.w3.org/2000/svg" xmlns:xlink="http://www.w3.org/1999/xlink" x="0px" y="0px"
	 width="500px" height="500px" viewBox="0 0 500 500" enable-background="new 0 0 500 500" xml:space="preserve">
<path fill="#383737" d="M485.868,378.816c-1.282-8.391-3.729-24.475-7.109-33.682c-3.38-9.324-6.527-34.964-10.256-43.938
	c-3.729-8.974-3.147-25.407-4.662-45.803c-1.515-20.396-9.906-31.234-12.704-36.479c-2.797-5.245-2.797-8.391-5.827-20.978
	c-3.147-12.704-13.636-32.167-21.911-45.103s-33.682-34.031-33.682-34.031s0,0-4.662-8.042s-22.843-9.906-34.265-10.489
	c-11.422-0.583-14.568,2.447-21.328,3.38c-6.76,0.932-12.004,0.583-23.775,2.797s-36.829,10.839-42.656,12.937
	c-5.827,2.214-16.083,6.177-21.328,5.245c-5.245-0.932-10.839-2.797-13.869-3.147c-3.147-0.35-6.527-3.729-10.256-7.692
	c-3.729-3.963-5.245-5.827-13.636-13.286s-12.937-10.256-12.937-10.256c0-2.447-4.662-8.391-12.004-12.354
	c-7.459-3.963-11.771-9.906-19.114-11.188c-7.459-1.282-16.083,0.583-16.083,0.583s-7.692-3.147-13.636-3.147
	s-7.692-0.583-13.869-2.214c-6.177-1.515-24.475-1.515-24.475-1.515c-4.895,0-6.876-5.594-12.47-7.575
	c-5.594-1.981-14.801-2.681-24.475,0c-9.673,2.681-17.482,14.801-18.764,17.365c-1.282,2.447-1.865,15.501,0.233,15.267
	c2.098-0.233,4.895-5.827,5.827-9.906c0.816-4.079,4.778-9.091,6.41-9.324c1.632-0.233,5.128,4.312,5.128,4.312
	s-1.049,1.049-3.147,4.778c-2.098,3.729-1.398,8.857-2.214,11.188C47.539,88.733,37.865,98.29,37.865,98.29
	s-2.098,1.282-4.312,5.944c-2.214,4.662,1.632,15.034,1.282,16.316c-0.35,1.282-2.681,1.282-8.508,9.44
	c-5.827,8.275-5.827,16.083-5.944,17.365c-0.233,1.282-1.282,2.914-3.496,5.944c-2.214,3.147-5.827,15.034-4.895,24.358
	c0.816,9.324,2.214,14.801,7.226,17.482s15.617,0.583,15.617,0.583s3.147,1.632,6.76,2.681c3.729,1.049,9.324,2.447,12.121,2.447
	c2.797,0,8.275,4.079,10.256,6.643c2.098,2.447,6.294,3.263,6.643,4.196c0.35,0.932-2.214,5.594-2.214,10.256
	s-0.35,9.906,3.963,21.678c4.312,11.771,4.895,20.978,7.109,28.437s2.214,23.542,3.38,37.994
	c1.282,14.568,13.286,33.099,13.286,36.129c0,3.03,7.692,21.328,7.692,23.775c0,2.447-0.932,12.937-0.932,14.219
	c0,1.282-10.256,15.734-14.219,16.666c-3.963,0.932-19.813,6.76-21.328,8.624c-1.515,1.865-4.895,7.109-3.729,9.906
	c1.282,2.797,10.839,1.865,10.839,1.865s1.282,2.447,5.245,3.729c3.963,1.282,13.636-2.447,13.636-2.447s4.662,3.38,10.489,3.147
	c5.827-0.233,20.745-2.797,22.61-5.594c1.865-2.797,7.692-8.624,8.042-14.801c0.35-6.177,1.282-15.734,1.865-21.328
	c0.583-5.594,0.932-9.324-0.35-13.636c-1.282-4.312,0.583-8.974,0.932-19.813c0.35-10.839-3.963-46.968-0.35-46.735
	c3.729,0.35,12.704,13.286,18.88,17.598c6.177,4.312,46.036,20.046,70.51,19.463c5.361-0.117,11.188-1.049,17.016-2.447
	c0.699,9.906,1.398,22.96,0.816,32.633c-0.816,11.771,1.632,21.678,1.632,23.892c0,2.214,0,6.41-1.282,10.256
	c-1.282,3.963-4.079,13.752-4.778,15.501c-0.583,1.632-1.398,2.447-8.624,4.895c-7.226,2.447-7.459,11.655-6.993,12.82
	c0.466,1.282,5.944,0.816,5.944,0.816s1.865,5.944,6.643,8.042c4.778,2.098,11.305-1.398,11.305-1.398s1.865,2.914,8.042,2.681
	c6.177-0.233,11.771-3.963,11.771-3.963s3.496,4.079,12.121,1.865c8.624-2.214,6.76-11.771,5.594-14.452
	c-1.282-2.681-0.816-16.899-0.466-20.862c0.466-3.963,4.895-20.046,6.41-28.437c1.398-8.508,0.583-19.58,0.583-25.524
	c0-5.944,1.282-25.407,0.583-30.768c-0.35-2.681-0.583-6.06-0.816-8.974c8.624-6.177,20.978-13.869,20.978-13.869
	s8.624,13.286,8.624,17.016c0,3.729,6.527,13.636,5.827,18.531c-0.699,4.895-6.527,13.869-8.624,17.598
	c-2.214,3.729-4.662,3.729-6.527,3.963c-1.865,0.35-10.839,3.729-10.839,8.624c0,4.895,5.594,5.594,5.594,5.594
	C309.651,381.38,326.55,378,326.55,378c0.583,3.38,10.839,3.147,14.219,1.282c3.38-1.865,9.906-5.594,10.839-11.421
	c0.932-5.827,3.729-31.817,3.729-37.062s5.245-30.885,4.312-36.828c-0.932-5.944-7.459-12.937-8.974-16.666
	c-1.515-3.729-1.865-5.594-1.865-5.594s8.042-11.422,12.704-12.937s9.906-2.797,17.016,2.447c7.109,5.245,27.505,22.26,36.129,29.02
	c8.624,6.76,16.433,23.775,23.775,36.129c7.342,12.354,13.286,25.057,14.568,31.234c1.282,6.177-1.282,22.26-2.214,24.125
	c-0.932,1.865-4.312,3.147-6.76,6.527c-2.447,3.38-5.594,10.489-0.35,13.286s9.324,0.35,9.324,0.35
	c0,1.865,6.177,4.312,11.422,4.312s8.624-2.214,8.624-2.214s2.214,2.447,6.177,2.214c3.963-0.35,4.662-1.515,6.527-6.76
	C487.733,394.666,487.034,387.207,485.868,378.816z M200.68,286.861c-47.318-34.614-30.885-62.585-15.967-62.352
	c17.016,0.233,20.046,19.696,20.046,19.696s6.527-18.531,23.309-15.501C242.87,231.269,253.709,261.921,200.68,286.861z"/>
<g>
</g>
<g>
</g>
<g>
</g>
<g>
</g>
<g>
</g>
<g>
</g>
<g>
</g>
<g>
</g>
<g>
</g>
<g>
</g>
<g>
</g>
<g>
</g>
<g>
</g>
<g>
</g>
<g>
</g>
</svg>
