<?xml version="1.0" encoding="utf-8"?>
<!-- Generator: Adobe Illustrator 28.0.0, SVG Export Plug-In . SVG Version: 6.00 Build 0)  -->
<svg version="1.1" id="Layer_1" xmlns="http://www.w3.org/2000/svg" xmlns:xlink="http://www.w3.org/1999/xlink" x="0px" y="0px"
	 viewBox="0 0 300 300" style="enable-background:new 0 0 300 300;" xml:space="preserve">
<style type="text/css">
	.st0{fill:#939B87;}
	.st1{fill:#A06E59;}
	.st2{fill:#D29B7F;}
	.st3{fill:#6A7260;}
	.st4{fill:#EDA599;}
</style>
<g>
	<g>
		<g>
			<path class="st0" d="M93.8,184.31c-4.11,0.01-7.47,0.01-12.28-0.02v-0.86c2.88-0.74,3.8-3.76,4.04-7.02
				c0.22-2.93,0.22-4.27,0-7.21c-0.25-3.25-1.16-6.27-4.04-7.02v-0.86c4.81-0.02,8.17-0.03,12.28-0.02v6.43
				c1.91-4.91,4.84-6.95,7.45-6.72c3.05,0.27,5.3,3.12,5.86,7.22c1.91-5.28,4.94-7.46,7.64-7.22c3.65,0.32,6.16,4.36,5.99,9.8
				c0.02,1.54,0.07,4.26,0.16,5.49c0.25,3.3,1.16,6.35,4.04,7.11v0.87c-6.33,0.03-10.15,0.03-16.48,0v-0.87
				c2.88-0.75,3.8-3.81,4.04-7.11c0.22-2.99,0.24-8.18-2.86-8.98c-1.01-0.26-2.17,1.56-2.35,7.05c0,0.07,0,0.14,0.01,0.2h-0.01v9.72
				c-4.13,0.01-7.49,0.01-12.32-0.02v-0.87c2.88-0.75,3.8-3.81,4.04-7.11c0.22-2.99,0.24-8.18-2.86-8.98
				c-1.01-0.26-2.15,1.53-2.35,6.91L93.8,184.31L93.8,184.31z"/>
			<path class="st0" d="M150.74,183.43v0.86c-4.82,0.02-8.17,0.03-12.29,0.02v-2.85c-1.55,2.25-4.08,3.72-7.52,3.47
				c-5.33-0.16-7.49-6.16-3.14-9.7c2.62-1.99,6.78-2.14,10.63-2.15v-5.1c0-6.61-5.79-7.19-6.96-4.3c0.24-0.04,0.48-0.06,0.73-0.06
				c2.44,0,4.42,1.98,4.42,4.42c0,1.04-0.36,1.99-0.96,2.75c-0.76,1.07-2.01,1.8-3.68,1.78c-2.23-0.02-4.93-1.46-4.93-5.03
				c0-8.92,18.85-9.33,19.42,1.9c0.16,3.26,0.16,2.78,0.16,5.82h0c0.02,0.41,0.05,0.8,0.07,1.16
				C146.94,179.67,147.85,182.69,150.74,183.43z M138.42,173.99c-1.84,0.22-3.09,1.56-3.69,3.03c-0.79,1.94-0.07,3.81,0.94,4.49
				c1.09,0.74,2.52,0.08,2.71-3.42C138.4,177.52,138.42,174.68,138.42,173.99z"/>
			<path class="st0" d="M163.03,184.31c-4.11,0.01-7.47,0.01-12.28-0.02v-0.86c2.88-0.74,3.8-3.76,4.04-7.02
				c0.22-2.93,0.22-4.27,0-7.21c-0.25-3.25-1.16-6.27-4.04-7.02v-0.86c4.81-0.02,8.17-0.03,12.28-0.02v6.43
				c1.91-4.91,4.84-6.95,7.45-6.72c3.05,0.27,5.3,3.12,5.86,7.22c1.91-5.28,4.94-7.46,7.64-7.22c3.65,0.32,6.16,4.36,5.99,9.8
				c0.02,1.54,0.07,4.26,0.16,5.49c0.25,3.3,1.16,6.35,4.04,7.11v0.87c-6.33,0.03-10.15,0.03-16.48,0v-0.87
				c2.88-0.75,3.8-3.81,4.04-7.11c0.22-2.99,0.24-8.18-2.86-8.98c-1.01-0.26-2.17,1.56-2.35,7.05c0,0.07,0,0.14,0.01,0.2h-0.01v9.72
				c-4.13,0.01-7.49,0.01-12.32-0.02v-0.87c2.88-0.75,3.8-3.81,4.04-7.11c0.22-2.99,0.24-8.18-2.86-8.98
				c-1.01-0.26-2.15,1.53-2.35,6.91L163.03,184.31L163.03,184.31z"/>
			<path class="st0" d="M219.97,183.43v0.86c-4.82,0.02-8.17,0.03-12.29,0.02v-2.85c-1.55,2.25-4.08,3.72-7.52,3.47
				c-5.33-0.16-7.49-6.16-3.14-9.7c2.62-1.99,6.78-2.14,10.63-2.15v-5.1c0-6.61-5.79-7.19-6.96-4.3c0.24-0.04,0.48-0.06,0.73-0.06
				c2.44,0,4.42,1.98,4.42,4.42c0,1.04-0.36,1.99-0.96,2.75c-0.76,1.07-2.01,1.8-3.68,1.78c-2.23-0.02-4.93-1.46-4.93-5.03
				c0-8.92,18.85-9.33,19.42,1.9c0.16,3.26,0.16,2.78,0.16,5.82h0c0.02,0.41,0.05,0.8,0.07,1.16
				C216.17,179.67,217.09,182.69,219.97,183.43z M207.65,173.99c-1.84,0.22-3.09,1.56-3.69,3.03c-0.79,1.94-0.07,3.81,0.94,4.49
				c1.09,0.74,2.52,0.08,2.71-3.42C207.63,177.52,207.65,174.68,207.65,173.99z"/>
		</g>
		<g>
			<path class="st0" d="M235.49,48.46c0.02,0.66,0.04,1.33-0.04,2.03c-0.26,2.16-0.7,4.27-1.4,6.32c-0.6,1.79,0.36,4.22,1.92,5.12
				c1.04,0.62,2.23,0.75,3.43,0.53c1.96-0.37,3.91-0.47,5.85-0.21c1.19,0.14,2.33,0.45,3.52,0.67c3.2,0.7,6.14-1.93,6.54-4.21
				c0.45-2.51-0.49-4.49-2.23-6.24c-0.47-0.46-0.98-0.88-1.41-1.34c-2.12-2.34-4.2-4.68-6.23-7.02c-0.79-1.18-1.87-2.02-3.17-2.6
				c-2-0.88-4.4,0.31-5.37,1.51C235.51,44.61,235.39,46.51,235.49,48.46z"/>
			<path class="st0" d="M244.28,65.85c-0.63,0.24-1.22,0.75-1.86,1.08c-1.61,1.49-2.48,3.36-2.91,5.42
				c-0.23,1.23-0.23,2.51,0.16,3.73c0.52,1.35,1.42,2.05,2.84,2.02c1.37-0.03,2.46-0.74,3.39-1.73c1.02-1.07,1.78-2.41,2.28-3.85
				c0.5-1.57,0.66-3.16,0.14-4.78C247.78,65.95,246.04,65.08,244.28,65.85z"/>
			<path class="st0" d="M219.31,51.41c-0.45,1.31-0.06,2.61,1.11,3.32c0.43,0.33,1,0.57,1.52,0.68c3.07,0.65,5.81-0.17,8.27-2.06
				c0.55-0.42,0.97-0.98,1.35-1.58c0.99-1.64,0.49-3.39-1.2-4.34c-0.43-0.24-0.91-0.43-1.4-0.5c-2.9-0.47-5.58,0.18-7.87,2.08
				C220.22,49.72,219.65,50.49,219.31,51.41z"/>
			<path class="st0" d="M228.89,57.72c-1.63-0.2-3.15,0.19-4.64,0.92c-1.8,0.86-3.31,2.08-4.23,3.91c-0.81,1.52-0.52,3.08,0.68,4.1
				c0.73,0.56,1.61,0.77,2.49,0.76c2.39-0.04,4.47-0.97,6.34-2.54c0.87-0.81,1.53-1.71,1.97-2.76
				C232.43,59.9,231.31,57.99,228.89,57.72z"/>
			<path class="st0" d="M237.94,67.24c-0.33-1.83-1.57-2.76-3.4-2.57c-1.38,0.17-2.55,0.78-3.48,1.72
				c-1.33,1.05-1.99,2.14-2.66,3.57c-0.54,1.22-0.85,2.53-0.6,3.92c0.33,1.65,1.58,2.67,3.22,2.47c0.76-0.1,1.52-0.38,2.2-0.71
				c1.67-0.78,2.79-2.15,3.64-3.66C237.63,70.59,238.23,68.98,237.94,67.24z"/>
		</g>
		<g>
			<path class="st0" d="M37.71,247.36c0.65,0.14,1.3,0.29,1.97,0.53c2.03,0.78,3.97,1.72,5.79,2.89c1.59,1.02,4.18,0.67,5.44-0.62
				c0.85-0.86,1.27-1.98,1.35-3.2c0.12-1.99,0.5-3.91,1.22-5.73c0.42-1.12,1-2.15,1.5-3.25c1.46-2.94-0.38-6.43-2.5-7.37
				c-2.32-1.05-4.47-0.62-6.6,0.65c-0.56,0.34-1.09,0.74-1.64,1.04c-2.79,1.49-5.56,2.93-8.32,4.34c-1.34,0.48-2.42,1.32-3.3,2.44
				c-1.34,1.73-0.76,4.34,0.16,5.58C33.98,246.41,35.79,246.99,37.71,247.36z"/>
			<path class="st0" d="M56.71,243.07c0.08,0.67,0.43,1.37,0.59,2.06c1.05,1.92,2.65,3.22,4.55,4.14c1.14,0.52,2.38,0.84,3.65,0.75
				c1.44-0.18,2.33-0.88,2.65-2.27c0.3-1.34-0.12-2.57-0.85-3.71c-0.79-1.24-1.9-2.31-3.18-3.14c-1.4-0.87-2.91-1.4-4.6-1.3
				C57.65,239.7,56.39,241.18,56.71,243.07z"/>
			<path class="st0" d="M36.63,263.78c1.16,0.76,2.52,0.69,3.49-0.27c0.42-0.34,0.8-0.83,1.03-1.31c1.38-2.82,1.25-5.67,0.01-8.52
				c-0.28-0.63-0.72-1.18-1.21-1.69c-1.35-1.36-3.17-1.3-4.5,0.11c-0.34,0.36-0.64,0.78-0.82,1.23c-1.16,2.7-1.19,5.46,0.1,8.14
				C35.21,262.49,35.83,263.22,36.63,263.78z"/>
			<path class="st0" d="M45.08,256.02c-0.59,1.53-0.59,3.1-0.23,4.73c0.39,1.96,1.21,3.72,2.76,5.05c1.27,1.16,2.86,1.25,4.14,0.34
				c0.72-0.57,1.14-1.37,1.35-2.23c0.54-2.33,0.14-4.57-0.92-6.77c-0.57-1.04-1.29-1.9-2.19-2.58
				C48.05,253.11,45.94,253.74,45.08,256.02z"/>
			<path class="st0" d="M56.52,249.56c-1.85-0.13-3.06,0.85-3.32,2.67c-0.17,1.38,0.14,2.67,0.83,3.79c0.7,1.54,1.59,2.45,2.81,3.45
				c1.05,0.82,2.25,1.44,3.65,1.53c1.68,0.08,2.98-0.88,3.18-2.52c0.08-0.76,0-1.57-0.15-2.3c-0.35-1.81-1.41-3.22-2.67-4.42
				C59.69,250.67,58.27,249.7,56.52,249.56z"/>
		</g>
		<g>
			<path class="st0" d="M174.93,78.25c-0.58-0.1-1.13,0.32-1.31,1.01c-0.17,0.69-0.32,1.38-0.48,2.08c-0.28,1.22-0.56,2.44-0.9,3.64
				c-0.08,0.29-0.2,0.33-0.44,0.16c-0.35-0.24-0.72-0.44-1.11-0.6c-1.18-0.5-2.4-0.64-3.61-0.16c-1.44,0.56-2.6,1.49-3.44,2.79
				c-1.12,1.73-1.78,3.6-1.71,5.7c0.04,1.04,0.17,2.05,0.6,3c0.5,1.08,1.75,2.34,3.46,2.13c1.05-0.13,1.87-0.7,2.59-1.41
				c1.04-1.02,1.94-2.15,2.66-3.42c0.35-0.63,0.71-1.26,1.06-1.88c-0.09,0.65-0.07,1.28-0.15,1.91c-0.27,2.19-0.41,4.4-0.71,6.59
				c-0.11,0.8,0.29,1.36,0.98,1.46c0.63,0.09,1.17-0.37,1.32-1.13c0.23-1.17,0.23-2.36,0.38-3.53c0.73-5.61,1.29-11.27,1.77-16.91
				C175.99,78.9,175.61,78.37,174.93,78.25z M171.16,88.24c-1.07,2.33-2.16,4.64-4,6.49c-0.31,0.31-0.63,0.61-1.01,0.81
				c-0.45,0.24-0.73,0.2-1.1-0.15c-0.32-0.3-0.48-0.69-0.58-1.11c-0.17-0.67-0.3-1.34-0.21-2.04c0.19-1.68,0.73-3.24,1.92-4.49
				c0.74-0.78,1.59-1.41,2.76-1.29c0.8,0.09,1.49,0.44,2.07,0.99C171.21,87.68,171.3,87.92,171.16,88.24z"/>
			<path class="st0" d="M204.08,91.82c-0.31-0.36-0.85-0.48-1.3-0.31c-0.23,0.09-0.41,0.24-0.57,0.42c-0.37,0.4-0.86,0.65-1.31,0.95
				c-0.21,0.13-0.27,0.07-0.27-0.17c0.01-0.74,0.02-1.47-0.01-2.21c-0.04-0.95-0.1-1.89-0.19-2.83c-0.06-0.59-0.45-1.04-1.01-1.04
				c-0.47,0-0.79-0.19-1.12-0.46c-0.13-0.11-0.29-0.19-0.44-0.26c-1.8-0.87-3.53-0.64-5.2,0.34c-0.97,0.57-1.71,1.31-2.3,2.18
				c-0.27-0.14-0.62-0.19-1-0.08c-1.51,0.42-2.94,0.28-4.27-0.61c-0.58-0.39-1.18-0.75-1.69-1.24c-1.19-1.15-2.7-0.82-3.68-0.11
				c-0.43,0.31-0.8,0.68-1.11,1.12c-1.12,1.57-1.61,3.35-1.77,5.24c-0.1,1.37,0.01,2.71,0.52,4c0.11,0.28,0.24,0.56,0.4,0.81
				c1.19,1.96,3.34,2.21,4.96,0.58c1.04-1.05,1.62-2.36,1.99-3.76c0.31-1.19,0.4-2.41,0.35-3.64c-0.01-0.2-0.04-0.44,0.3-0.29
				c0.79,0.34,1.64,0.39,2.48,0.4c0.46,0.01,0.92-0.02,1.38-0.1c0,0.01-0.01,0.02-0.01,0.02c-0.43,1.28-0.6,2.59-0.21,3.92
				c0.66,2.27,2.99,3.13,4.97,1.84c0.72-0.47,1.34-1.06,1.94-1.67c0.87-0.9,1.66-1.86,2.43-2.89c0,0.69-0.01,1.38-0.01,2.07
				c0,0.28-0.12,0.45-0.36,0.59c-1.21,0.71-2.44,1.41-3.61,2.2c-1.5,1.01-2.86,2.16-3.85,3.69c-0.89,1.37-1.53,2.82-1.43,4.51
				c0.07,1.26,0.95,2.44,2.16,2.79c1.2,0.35,2.35,0.14,3.43-0.45c1.48-0.81,2.52-2.06,3.4-3.45c1.44-2.26,2.19-4.74,2.35-7.41
				c0.03-0.51,0.18-0.83,0.66-1.08c0.67-0.34,1.29-0.77,1.91-1.18c0.45-0.3,0.87-0.65,1.16-1.11
				C204.44,92.71,204.4,92.18,204.08,91.82z M182.74,92.59c-0.08,0.89-0.42,2.23-1.22,3.42c-0.19,0.29-0.42,0.54-0.71,0.73
				c-0.35,0.23-0.59,0.2-0.87-0.12c-0.43-0.48-0.59-1.09-0.69-1.7c-0.33-1.92-0.02-3.74,0.86-5.47c0.24-0.48,0.55-0.93,1.02-1.23
				c0.27-0.17,0.5-0.16,0.76,0.05c0.28,0.23,0.44,0.52,0.56,0.85C182.75,89.96,182.86,90.92,182.74,92.59z M197.29,89.02
				c-0.99,1.99-2.33,3.69-3.99,5.15c-0.23,0.2-0.47,0.39-0.74,0.53c-0.5,0.26-0.93,0.13-1.2-0.36c-0.21-0.38-0.29-0.85-0.27-1.51
				c0.38-1.88,1.04-3.59,2.8-4.63c0.83-0.49,1.71-0.67,2.65-0.35c0.21,0.07,0.41,0.17,0.58,0.33
				C197.38,88.4,197.48,88.64,197.29,89.02z M198.01,97.61c-0.1,0.79-0.29,1.55-0.55,2.3c-0.65,1.86-1.58,3.56-3.09,4.89
				c-0.45,0.4-0.95,0.71-1.55,0.83c-1.04,0.23-1.51-0.18-1.41-1.47c0.16-1.14,0.84-2.27,1.73-3.29c1.3-1.48,2.97-2.46,4.64-3.46
				C198.05,97.26,198.04,97.43,198.01,97.61z"/>
		</g>
		<path class="st0" d="M162.63,63.36c-0.51,0.38-1.2,0.49-1.82,0.48c-0.68-0.01-1.32-0.28-1.83-0.72c-0.82-0.7-1.2-2.1-0.73-3.21
			c0.31-0.73,0.13-1.21-0.35-1.76c-1.67-1.91-3.31-3.84-4.94-5.79c-0.43-0.51-0.87-0.7-1.54-0.59c-1.4,0.24-2.72-0.49-3.34-1.76
			c-0.8-1.64,0.22-3.51,2.06-3.76c0.2-0.03,0.4-0.03,0.63-0.05c0.14-0.84,0.48-1.57,1.19-2.06c1.47-1.03,3.33-0.45,4.12,1.26
			c0.36,0.78,0.41,1.58,0.11,2.38c-0.21,0.54-0.1,0.97,0.28,1.4c1.75,2.03,3.49,4.07,5.22,6.11c0.34,0.4,0.68,0.57,1.22,0.45
			c1.41-0.33,2.63,0.16,3.37,1.29c0.68,1.04,0.42,2.79-0.53,3.61c-0.3,0.25-0.67,0.39-1.04,0.49c-0.17,0.05-0.84,0.1-0.92,0.28
			c-0.28,0.59-0.48,1.29-0.95,1.77C162.77,63.25,162.7,63.31,162.63,63.36z"/>
		<path class="st0" d="M215.18,238.25c-0.4-0.49-0.54-1.18-0.55-1.8c-0.01-0.68,0.23-1.33,0.65-1.85c0.67-0.84,2.05-1.28,3.18-0.85
			c0.74,0.28,1.21,0.09,1.74-0.42c1.84-1.74,3.71-3.46,5.59-5.16c0.5-0.45,0.67-0.9,0.53-1.56c-0.29-1.39,0.39-2.74,1.63-3.41
			c1.61-0.86,3.51,0.09,3.84,1.92c0.04,0.2,0.05,0.4,0.08,0.63c0.84,0.11,1.59,0.42,2.1,1.11c1.08,1.43,0.58,3.31-1.1,4.17
			c-0.77,0.39-1.57,0.47-2.38,0.2c-0.55-0.19-0.97-0.06-1.39,0.33c-1.96,1.83-3.93,3.64-5.91,5.45c-0.38,0.35-0.55,0.7-0.4,1.24
			c0.38,1.4-0.06,2.63-1.16,3.41c-1.02,0.72-2.77,0.53-3.62-0.39c-0.26-0.29-0.42-0.65-0.53-1.02c-0.05-0.17-0.13-0.83-0.31-0.91
			c-0.6-0.26-1.3-0.43-1.8-0.88C215.29,238.39,215.23,238.32,215.18,238.25z"/>
	</g>
	<g>
		<g>
			<path class="st1" d="M93.8,129.53c-4.11,0.01-7.47,0.01-12.28-0.02v-0.86c2.88-0.74,3.8-3.76,4.04-7.02
				c0.22-2.93,0.22-4.27,0-7.21c-0.25-3.25-1.16-6.27-4.04-7.02v-0.86c4.81-0.02,8.17-0.03,12.28-0.02v6.43
				c1.91-4.91,4.84-6.95,7.45-6.72c3.05,0.27,5.3,3.12,5.86,7.22c1.91-5.28,4.94-7.46,7.64-7.22c3.65,0.32,6.16,4.36,5.99,9.8
				c0.02,1.54,0.07,4.26,0.16,5.49c0.25,3.3,1.16,6.35,4.04,7.11v0.87c-6.33,0.03-10.15,0.03-16.48,0v-0.87
				c2.88-0.75,3.8-3.81,4.04-7.11c0.22-2.99,0.24-8.18-2.86-8.98c-1.01-0.26-2.17,1.56-2.35,7.05c0,0.07,0,0.14,0.01,0.2h-0.01v9.72
				c-4.13,0.01-7.49,0.01-12.32-0.02v-0.87c2.88-0.75,3.8-3.81,4.04-7.11c0.22-2.99,0.24-8.18-2.86-8.98
				c-1.01-0.26-2.15,1.53-2.35,6.91L93.8,129.53L93.8,129.53z"/>
			<path class="st1" d="M150.74,128.65v0.86c-4.82,0.02-8.17,0.03-12.29,0.02v-2.85c-1.55,2.25-4.08,3.72-7.52,3.47
				c-5.33-0.16-7.49-6.16-3.14-9.7c2.62-1.99,6.78-2.14,10.63-2.15v-5.1c0-6.61-5.79-7.19-6.96-4.3c0.24-0.04,0.48-0.06,0.73-0.06
				c2.44,0,4.42,1.98,4.42,4.42c0,1.04-0.36,1.99-0.96,2.75c-0.76,1.07-2.01,1.8-3.68,1.78c-2.23-0.02-4.93-1.46-4.93-5.03
				c0-8.92,18.85-9.33,19.42,1.9c0.16,3.26,0.16,2.78,0.16,5.82h0c0.02,0.41,0.05,0.8,0.07,1.16
				C146.94,124.89,147.85,127.91,150.74,128.65z M138.42,119.21c-1.84,0.22-3.09,1.56-3.69,3.03c-0.79,1.94-0.07,3.81,0.94,4.49
				c1.09,0.74,2.52,0.08,2.71-3.42C138.4,122.75,138.42,119.91,138.42,119.21z"/>
			<path class="st1" d="M163.03,129.53c-4.11,0.01-7.47,0.01-12.28-0.02v-0.86c2.88-0.74,3.8-3.76,4.04-7.02
				c0.22-2.93,0.22-4.27,0-7.21c-0.25-3.25-1.16-6.27-4.04-7.02v-0.86c4.81-0.02,8.17-0.03,12.28-0.02v6.43
				c1.91-4.91,4.84-6.95,7.45-6.72c3.05,0.27,5.3,3.12,5.86,7.22c1.91-5.28,4.94-7.46,7.64-7.22c3.65,0.32,6.16,4.36,5.99,9.8
				c0.02,1.54,0.07,4.26,0.16,5.49c0.25,3.3,1.16,6.35,4.04,7.11v0.87c-6.33,0.03-10.15,0.03-16.48,0v-0.87
				c2.88-0.75,3.8-3.81,4.04-7.11c0.22-2.99,0.24-8.18-2.86-8.98c-1.01-0.26-2.17,1.56-2.35,7.05c0,0.07,0,0.14,0.01,0.2h-0.01v9.72
				c-4.13,0.01-7.49,0.01-12.32-0.02v-0.87c2.88-0.75,3.8-3.81,4.04-7.11c0.22-2.99,0.24-8.18-2.86-8.98
				c-1.01-0.26-2.15,1.53-2.35,6.91L163.03,129.53L163.03,129.53z"/>
			<path class="st1" d="M219.97,128.65v0.86c-4.82,0.02-8.17,0.03-12.29,0.02v-2.85c-1.55,2.25-4.08,3.72-7.52,3.47
				c-5.33-0.16-7.49-6.16-3.14-9.7c2.62-1.99,6.78-2.14,10.63-2.15v-5.1c0-6.61-5.79-7.19-6.96-4.3c0.24-0.04,0.48-0.06,0.73-0.06
				c2.44,0,4.42,1.98,4.42,4.42c0,1.04-0.36,1.99-0.96,2.75c-0.76,1.07-2.01,1.8-3.68,1.78c-2.23-0.02-4.93-1.46-4.93-5.03
				c0-8.92,18.85-9.33,19.42,1.9c0.16,3.26,0.16,2.78,0.16,5.82h0c0.02,0.41,0.05,0.8,0.07,1.16
				C216.17,124.89,217.09,127.91,219.97,128.65z M207.65,119.21c-1.84,0.22-3.09,1.56-3.69,3.03c-0.79,1.94-0.07,3.81,0.94,4.49
				c1.09,0.74,2.52,0.08,2.71-3.42C207.63,122.75,207.65,119.91,207.65,119.21z"/>
		</g>
		<g>
			<path class="st1" d="M259.37,233.73c-0.21,0.63-0.42,1.26-0.73,1.9c-0.98,1.94-2.11,3.77-3.47,5.46
				c-1.18,1.48-1.1,4.09,0.06,5.47c0.77,0.93,1.84,1.47,3.04,1.67c1.97,0.33,3.84,0.9,5.57,1.8c1.07,0.53,2.04,1.21,3.08,1.83
				c2.77,1.75,6.43,0.28,7.59-1.73c1.28-2.2,1.07-4.39,0.03-6.63c-0.28-0.59-0.62-1.16-0.87-1.74c-1.2-2.92-2.35-5.83-3.47-8.72
				c-0.34-1.38-1.07-2.54-2.1-3.53c-1.58-1.51-4.24-1.2-5.57-0.41C260.7,230.12,259.94,231.86,259.37,233.73z"/>
			<path class="st1" d="M261.7,253.08c-0.67,0.01-1.41,0.29-2.11,0.38c-2.02,0.85-3.47,2.31-4.59,4.1
				c-0.63,1.08-1.07,2.28-1.12,3.56c0.03,1.45,0.64,2.41,1.99,2.86c1.3,0.44,2.57,0.14,3.77-0.47c1.32-0.66,2.49-1.66,3.45-2.84
				c1.01-1.31,1.69-2.75,1.76-4.44C264.96,254.35,263.62,252.95,261.7,253.08z"/>
			<path class="st1" d="M243.15,230.99c-0.87,1.08-0.94,2.43-0.09,3.5c0.29,0.45,0.74,0.88,1.2,1.16c2.67,1.66,5.52,1.82,8.48,0.88
				c0.66-0.21,1.24-0.59,1.81-1.03c1.49-1.21,1.61-3.02,0.35-4.49c-0.33-0.37-0.71-0.72-1.14-0.94c-2.57-1.43-5.31-1.74-8.11-0.73
				C244.58,229.71,243.78,230.24,243.15,230.99z"/>
			<path class="st1" d="M250,240.18c-1.47-0.74-3.03-0.9-4.68-0.71c-1.99,0.19-3.83,0.83-5.31,2.23c-1.28,1.15-1.54,2.72-0.76,4.09
				c0.5,0.78,1.25,1.27,2.08,1.57c2.26,0.78,4.53,0.61,6.83-0.23c1.1-0.46,2.02-1.09,2.79-1.92
				C252.59,243.44,252.19,241.26,250,240.18z"/>
			<path class="st1" d="M255.27,252.22c0.32-1.83-0.54-3.13-2.32-3.57c-1.35-0.31-2.67-0.13-3.86,0.43
				c-1.61,0.54-2.6,1.33-3.72,2.45c-0.92,0.96-1.67,2.09-1.9,3.48c-0.25,1.67,0.57,3.05,2.19,3.42c0.75,0.16,1.56,0.16,2.31,0.08
				c1.83-0.16,3.35-1.07,4.67-2.2C253.84,255.26,254.94,253.95,255.27,252.22z"/>
		</g>
		<g>
			<path class="st1" d="M264.9,146.61c-0.2-0.63-0.4-1.27-0.53-1.97c-0.34-2.15-0.5-4.29-0.39-6.46c0.09-1.89-1.51-3.96-3.26-4.39
				c-1.17-0.31-2.35-0.11-3.45,0.43c-1.79,0.89-3.63,1.53-5.57,1.82c-1.18,0.2-2.36,0.21-3.56,0.32c-3.27,0.21-5.37,3.54-5.13,5.85
				c0.25,2.53,1.71,4.18,3.87,5.38c0.58,0.31,1.19,0.57,1.72,0.9c2.68,1.67,5.33,3.34,7.92,5.03c1.09,0.92,2.35,1.43,3.77,1.63
				c2.17,0.29,4.14-1.51,4.75-2.94C265.94,150.32,265.53,148.46,264.9,146.61z"/>
			<path class="st1" d="M251.66,132.32c0.54-0.4,0.97-1.06,1.49-1.55c1.14-1.87,1.46-3.91,1.31-6.01c-0.12-1.25-0.47-2.48-1.18-3.54
				c-0.87-1.15-1.93-1.58-3.29-1.15c-1.31,0.41-2.16,1.39-2.78,2.59c-0.68,1.31-1.04,2.81-1.13,4.33c-0.05,1.65,0.24,3.22,1.18,4.63
				C248.28,133.19,250.19,133.54,251.66,132.32z"/>
			<path class="st1" d="M279.65,139.32c0.07-1.38-0.66-2.52-1.98-2.89c-0.5-0.2-1.11-0.27-1.65-0.23c-3.13,0.22-5.53,1.76-7.38,4.26
				c-0.41,0.56-0.66,1.21-0.86,1.89c-0.5,1.85,0.46,3.39,2.35,3.84c0.48,0.11,1,0.17,1.48,0.09c2.92-0.35,5.32-1.71,7-4.17
				C279.24,141.2,279.57,140.3,279.65,139.32z"/>
			<path class="st1" d="M268.7,135.89c1.62-0.26,2.98-1.05,4.21-2.17c1.5-1.32,2.61-2.92,2.99-4.92c0.36-1.68-0.35-3.1-1.78-3.75
				c-0.86-0.34-1.76-0.3-2.61-0.05c-2.29,0.7-4.02,2.17-5.4,4.19c-0.62,1.02-1,2.07-1.13,3.19
				C264.69,134.78,266.3,136.3,268.7,135.89z"/>
			<path class="st1" d="M257.37,129.24c0.82,1.67,2.27,2.22,3.97,1.53c1.28-0.54,2.24-1.46,2.87-2.61c0.98-1.38,1.32-2.6,1.58-4.17
				c0.18-1.32,0.12-2.67-0.5-3.93c-0.78-1.5-2.25-2.14-3.78-1.49c-0.7,0.31-1.36,0.79-1.92,1.29c-1.39,1.2-2.09,2.83-2.49,4.52
				C256.75,125.93,256.62,127.64,257.37,129.24z"/>
		</g>
		<path class="st1" d="M69.44,182.17c0.69-2.16,0.15-4.42-1.36-5.77c-1.75-1.63-4.02-1.98-6.09-0.93c-0.08,0.04-0.15,0.08-0.22,0.12
			c-0.05-0.12-0.11-0.24-0.18-0.36c-1.22-2.04-3.17-3.03-5.35-2.7c-2.06,0.31-3.67,1.76-4.41,3.98c-0.54,1.63-0.44,3.31,0.32,5.31
			c0.88,2.31,2.2,4.36,3.47,6.35l0.53,0.83c0.49,0.78,0.98,1.16,1.53,1.22c0.05,0.01,0.11,0.01,0.16,0.01
			c0.42,0,0.79-0.15,1.14-0.31l1.06-0.48c1.92-0.86,3.91-1.76,5.76-2.99C67.34,185.45,68.84,184.21,69.44,182.17z M64.57,184.63
			c-1.7,1.12-3.52,1.94-5.44,2.81l-1.06,0.48c-0.02-0.03-0.04-0.06-0.06-0.09l-0.53-0.84c-1.27-1.98-2.46-3.85-3.27-5.95
			c-0.58-1.51-0.66-2.69-0.29-3.82c0.28-0.83,0.99-2.25,2.65-2.5c0.18-0.03,0.35-0.04,0.51-0.04c1.32,0.01,2.14,0.9,2.61,1.69
			c0.07,0.11,0.13,0.27,0.19,0.42c0.17,0.45,0.5,1.28,1.42,1.38c0.55,0.06,0.98-0.25,1.36-0.51c0.11-0.08,0.22-0.16,0.33-0.22
			c1.24-0.63,2.51-0.43,3.58,0.58l0.02,0.02c0.87,0.77,1.16,2.13,0.73,3.48C66.94,182.84,65.95,183.72,64.57,184.63z"/>
		<path class="st1" d="M18.74,199.82c0.4-0.49,1.04-0.77,1.64-0.92c0.66-0.16,1.35-0.05,1.95,0.24c0.97,0.47,1.68,1.74,1.51,2.93
			c-0.12,0.78,0.17,1.2,0.78,1.61c2.09,1.43,4.17,2.89,6.22,4.38c0.54,0.39,1.02,0.46,1.64,0.19c1.29-0.58,2.76-0.2,3.67,0.87
			c1.18,1.39,0.66,3.45-1.06,4.16c-0.19,0.08-0.38,0.13-0.6,0.21c0.08,0.84-0.07,1.64-0.63,2.29c-1.17,1.36-3.12,1.26-4.3-0.2
			c-0.54-0.67-0.79-1.43-0.7-2.28c0.06-0.58-0.15-0.96-0.62-1.29c-2.2-1.53-4.39-3.07-6.58-4.62c-0.42-0.3-0.8-0.39-1.3-0.13
			c-1.29,0.67-2.58,0.5-3.58-0.41c-0.92-0.84-1.11-2.6-0.38-3.63c0.22-0.32,0.55-0.55,0.89-0.74c0.16-0.09,0.79-0.3,0.83-0.5
			c0.13-0.64,0.14-1.36,0.48-1.95C18.64,199.96,18.69,199.89,18.74,199.82z"/>
	</g>
	<g>
		<g>
			<path class="st2" d="M93.8,156.92c-4.11,0.01-7.47,0.01-12.28-0.02v-0.86c2.88-0.74,3.8-3.76,4.04-7.02
				c0.22-2.93,0.22-4.27,0-7.21c-0.25-3.25-1.16-6.27-4.04-7.02v-0.86c4.81-0.02,8.17-0.03,12.28-0.02v6.43
				c1.91-4.91,4.84-6.95,7.45-6.72c3.05,0.27,5.3,3.12,5.86,7.22c1.91-5.28,4.94-7.46,7.64-7.22c3.65,0.32,6.16,4.36,5.99,9.8
				c0.02,1.54,0.07,4.26,0.16,5.49c0.25,3.3,1.16,6.35,4.04,7.11v0.87c-6.33,0.03-10.15,0.03-16.48,0v-0.87
				c2.88-0.75,3.8-3.81,4.04-7.11c0.22-2.99,0.24-8.18-2.86-8.98c-1.01-0.26-2.17,1.56-2.35,7.05c0,0.07,0,0.14,0.01,0.2h-0.01v9.72
				c-4.13,0.01-7.49,0.01-12.32-0.02v-0.87c2.88-0.75,3.8-3.81,4.04-7.11c0.22-2.99,0.24-8.18-2.86-8.98
				c-1.01-0.26-2.15,1.53-2.35,6.91L93.8,156.92L93.8,156.92z"/>
			<path class="st2" d="M150.74,156.04v0.86c-4.82,0.02-8.17,0.03-12.29,0.02v-2.85c-1.55,2.25-4.08,3.72-7.52,3.47
				c-5.33-0.16-7.49-6.16-3.14-9.7c2.62-1.99,6.78-2.14,10.63-2.15v-5.1c0-6.61-5.79-7.19-6.96-4.3c0.24-0.04,0.48-0.06,0.73-0.06
				c2.44,0,4.42,1.98,4.42,4.42c0,1.04-0.36,1.99-0.96,2.75c-0.76,1.07-2.01,1.8-3.68,1.78c-2.23-0.02-4.93-1.46-4.93-5.03
				c0-8.92,18.85-9.33,19.42,1.9c0.16,3.26,0.16,2.78,0.16,5.82h0c0.02,0.41,0.05,0.8,0.07,1.16
				C146.94,152.28,147.85,155.3,150.74,156.04z M138.42,146.6c-1.84,0.22-3.09,1.56-3.69,3.03c-0.79,1.94-0.07,3.81,0.94,4.49
				c1.09,0.74,2.52,0.08,2.71-3.42C138.4,150.13,138.42,147.29,138.42,146.6z"/>
			<path class="st2" d="M163.03,156.92c-4.11,0.01-7.47,0.01-12.28-0.02v-0.86c2.88-0.74,3.8-3.76,4.04-7.02
				c0.22-2.93,0.22-4.27,0-7.21c-0.25-3.25-1.16-6.27-4.04-7.02v-0.86c4.81-0.02,8.17-0.03,12.28-0.02v6.43
				c1.91-4.91,4.84-6.95,7.45-6.72c3.05,0.27,5.3,3.12,5.86,7.22c1.91-5.28,4.94-7.46,7.64-7.22c3.65,0.32,6.16,4.36,5.99,9.8
				c0.02,1.54,0.07,4.26,0.16,5.49c0.25,3.3,1.16,6.35,4.04,7.11v0.87c-6.33,0.03-10.15,0.03-16.48,0v-0.87
				c2.88-0.75,3.8-3.81,4.04-7.11c0.22-2.99,0.24-8.18-2.86-8.98c-1.01-0.26-2.17,1.56-2.35,7.05c0,0.07,0,0.14,0.01,0.2h-0.01v9.72
				c-4.13,0.01-7.49,0.01-12.32-0.02v-0.87c2.88-0.75,3.8-3.81,4.04-7.11c0.22-2.99,0.24-8.18-2.86-8.98
				c-1.01-0.26-2.15,1.53-2.35,6.91L163.03,156.92L163.03,156.92z"/>
			<path class="st2" d="M219.97,156.04v0.86c-4.82,0.02-8.17,0.03-12.29,0.02v-2.85c-1.55,2.25-4.08,3.72-7.52,3.47
				c-5.33-0.16-7.49-6.16-3.14-9.7c2.62-1.99,6.78-2.14,10.63-2.15v-5.1c0-6.61-5.79-7.19-6.96-4.3c0.24-0.04,0.48-0.06,0.73-0.06
				c2.44,0,4.42,1.98,4.42,4.42c0,1.04-0.36,1.99-0.96,2.75c-0.76,1.07-2.01,1.8-3.68,1.78c-2.23-0.02-4.93-1.46-4.93-5.03
				c0-8.92,18.85-9.33,19.42,1.9c0.16,3.26,0.16,2.78,0.16,5.82h0c0.02,0.41,0.05,0.8,0.07,1.16
				C216.17,152.28,217.09,155.3,219.97,156.04z M207.65,146.6c-1.84,0.22-3.09,1.56-3.69,3.03c-0.79,1.94-0.07,3.81,0.94,4.49
				c1.09,0.74,2.52,0.08,2.71-3.42C207.63,150.13,207.65,147.29,207.65,146.6z"/>
		</g>
		<g>
			<path class="st2" d="M48.82,95.18c-0.19-0.64-0.37-1.28-0.48-1.98c-0.29-2.16-0.4-4.31-0.24-6.47c0.13-1.89-1.42-3.99-3.15-4.47
				c-1.16-0.33-2.35-0.17-3.46,0.35c-1.81,0.85-3.67,1.44-5.61,1.68c-1.19,0.17-2.37,0.16-3.57,0.24c-3.28,0.13-5.46,3.41-5.27,5.73
				c0.19,2.54,1.6,4.22,3.73,5.48c0.57,0.33,1.17,0.6,1.7,0.94c2.64,1.73,5.24,3.47,7.8,5.22c1.07,0.94,2.32,1.49,3.73,1.72
				c2.16,0.34,4.17-1.41,4.82-2.82C49.77,98.92,49.41,97.05,48.82,95.18z"/>
			<path class="st2" d="M35.93,80.57c0.55-0.39,1-1.03,1.53-1.51c1.18-1.84,1.55-3.87,1.45-5.98c-0.09-1.25-0.41-2.49-1.1-3.56
				c-0.85-1.17-1.89-1.62-3.26-1.23c-1.32,0.38-2.2,1.34-2.84,2.52c-0.71,1.29-1.11,2.78-1.23,4.3c-0.09,1.65,0.16,3.22,1.06,4.66
				C32.53,81.36,34.43,81.76,35.93,80.57z"/>
			<path class="st2" d="M63.74,88.25c0.11-1.38-0.6-2.54-1.91-2.93c-0.5-0.21-1.11-0.3-1.64-0.27c-3.14,0.14-5.58,1.63-7.48,4.08
				c-0.42,0.55-0.69,1.19-0.9,1.87c-0.55,1.84,0.38,3.4,2.26,3.9c0.48,0.12,0.99,0.19,1.48,0.13c2.93-0.28,5.36-1.58,7.09-4
				C63.29,90.12,63.63,89.23,63.74,88.25z"/>
			<path class="st2" d="M52.88,84.56c1.63-0.22,3-0.97,4.26-2.06c1.53-1.29,2.68-2.85,3.11-4.85c0.4-1.67-0.27-3.11-1.69-3.8
				c-0.85-0.36-1.75-0.34-2.6-0.11c-2.31,0.64-4.08,2.07-5.5,4.06c-0.64,1-1.05,2.04-1.21,3.16C48.9,83.35,50.46,84.91,52.88,84.56z
				"/>
			<path class="st2" d="M41.72,77.63c0.78,1.69,2.22,2.28,3.93,1.63c1.29-0.51,2.27-1.4,2.93-2.54c1.02-1.35,1.39-2.57,1.68-4.13
				c0.21-1.31,0.19-2.67-0.41-3.94c-0.74-1.51-2.2-2.19-3.74-1.58c-0.71,0.29-1.37,0.75-1.95,1.24c-1.42,1.17-2.15,2.78-2.6,4.46
				C41.17,74.31,41,76.02,41.72,77.63z"/>
		</g>
		<path class="st2" d="M104.94,252.63c-0.39,2.23,0.45,4.4,2.14,5.53c1.95,1.38,4.26,1.41,6.16,0.08c0.07-0.05,0.14-0.1,0.2-0.15
			c0.07,0.11,0.14,0.22,0.23,0.33c1.49,1.85,3.55,2.56,5.67,1.94c2-0.59,3.4-2.24,3.83-4.55c0.31-1.69-0.02-3.34-1.04-5.22
			c-1.19-2.17-2.78-4.02-4.31-5.82l-0.64-0.75c-0.59-0.7-1.13-1.02-1.68-1c-0.05,0-0.11,0.01-0.16,0.01
			c-0.41,0.05-0.76,0.26-1.09,0.46l-0.99,0.62c-1.79,1.12-3.64,2.28-5.3,3.75C106.58,249.1,105.26,250.53,104.94,252.63z
			 M109.43,249.53c1.53-1.35,3.22-2.41,5.01-3.53l0.99-0.62c0.02,0.02,0.05,0.05,0.07,0.08l0.64,0.76c1.53,1.79,2.97,3.48,4.05,5.45
			c0.78,1.42,1.03,2.57,0.81,3.75c-0.16,0.86-0.67,2.36-2.28,2.83c-0.17,0.05-0.34,0.09-0.5,0.11c-1.31,0.17-2.25-0.6-2.82-1.31
			c-0.08-0.1-0.16-0.25-0.24-0.39c-0.23-0.42-0.67-1.2-1.6-1.17c-0.56,0.02-0.94,0.38-1.28,0.7c-0.1,0.09-0.2,0.19-0.3,0.26
			c-1.14,0.8-2.43,0.77-3.63-0.08l-0.03-0.02c-0.97-0.65-1.44-1.95-1.2-3.35C107.33,251.63,108.2,250.62,109.43,249.53z"/>
	</g>
	<path class="st1" d="M213.59,261.25c0.08-0.75,0.02-1.58-0.19-2.42c0.07-0.08,0.2-0.18,0.25-0.23c0.07-0.06,0.12-0.11,0.15-0.14
		l0.16-0.17c0.59-0.63,1.14-1.22,1.24-2.27c0.08-0.87-0.12-1.81-0.57-2.65c-0.38-0.71-0.98-1.28-1.74-1.64
		c-1.72-0.83-3.62-0.47-5.08,0.97c-0.4,0.39-0.8,0.47-1.33,0.28c-4.11-1.36-7.26-2.39-10.21-3.32c-0.63-0.19-0.95-0.55-1.08-1.19
		c-0.22-1.16-0.87-2.1-1.91-2.8c-1.15-0.77-2.49-1.01-3.69-0.65c-1.12,0.34-2,1.15-2.47,2.29c-0.4,0.96-0.39,2.01,0.01,3.12
		c-0.13,0.09-0.26,0.18-0.39,0.28c-1.06,0.83-1.65,2.1-1.56,3.39c0.08,1.29,0.78,2.41,1.92,3.08c1.76,1.03,3.87,0.85,5.39-0.48
		c0.52-0.46,0.99-0.56,1.66-0.32c3.1,1.04,6.43,2.14,9.75,3.17c0.91,0.29,1.26,0.67,1.41,1.53c0.25,1.51,1.39,2.78,2.87,3.26
		c0.21,0.07,0.42,0.12,0.63,0.15c0.94,0.15,1.92-0.05,2.77-0.58c0.5-0.31,1.4-0.97,1.81-1.9
		C213.49,261.75,213.56,261.5,213.59,261.25z M188.16,255.68c-0.85-0.48-1.23-1.08-1.19-1.89c0.05-0.93,0.49-1.6,1.28-1.93
		c0.37-0.16,0.77-0.37,0.9-0.77c0.14-0.4-0.06-0.83-0.24-1.15c-0.31-0.55-0.38-1.22-0.19-1.85c0.18-0.57,0.55-1.02,1.03-1.25
		c0.65-0.31,1.55-0.28,2.29,0.08c0.62,0.3,1.04,0.78,1.16,1.35c0.53,2.39,2.23,3.09,3.92,3.59c2.35,0.7,4.72,1.49,7.02,2.26
		l1.63,0.54c1.32,0.42,2.44,0.19,3.36-0.77c0.77-0.8,2.02-1.04,2.97-0.58c0.82,0.4,1.35,1.37,1.29,2.36
		c-0.05,0.85-0.52,1.48-1.39,1.9c-0.28,0.13-0.61,0.33-0.73,0.68c-0.12,0.36,0.04,0.72,0.17,0.96c0.52,0.97,0.48,1.81-0.14,2.58
		c-0.45,0.56-1.23,1.17-2.39,0.89c-1.06-0.25-1.74-0.96-1.87-1.92c-0.2-1.52-0.98-2.43-2.5-2.93c-0.1-0.03-0.19-0.06-0.3-0.09
		c-1.07-0.29-2.15-0.66-3.19-1.01c-0.47-0.16-0.93-0.31-1.4-0.47l-1.5-0.48c-1.16-0.38-2.33-0.75-3.48-1.14
		c-1.25-0.41-2.35-0.22-3.32,0.65C190.43,256.13,189.23,256.28,188.16,255.68z"/>
	<g>
		<g>
			<path class="st3" d="M93.8,211.71c-3.97-1.1-7.31-1.2-12.28-0.02v-0.86c2.88-0.74,3.8-3.76,4.04-7.02c0.22-2.93,0.22-4.27,0-7.21
				c-0.25-3.25-1.16-6.27-4.04-7.02v-0.86c4.86,1,8.22,1.06,12.28-0.02v6.43c1.91-4.91,4.84-6.95,7.45-6.72
				c3.05,0.27,5.3,3.12,5.86,7.22c1.91-5.28,4.94-7.46,7.64-7.22c3.65,0.32,6.16,4.36,5.99,9.8c0.07,6.54,0.09,13.1,0.09,19.69
				c0,6.61,5.79,7.19,6.96,4.3c-2.68,0.45-5.15-1.61-5.15-4.36c0-1.04,0.36-1.99,0.96-2.75c2.47-3.46,8.61-1.77,8.61,3.24
				c0,8.92-18.85,9.33-19.42-1.9c-0.26-5.05-0.06-10.43-0.19-15.48c-0.07-2.71-0.67-5.65-2.94-6.24c-1.01-0.26-2.17,1.56-2.35,7.05
				c0,0.07,0,0.14,0.01,0.2h-0.01v9.72c-4.7-1.41-7.93-1.09-12.32-0.02v-0.87c2.88-0.75,3.8-3.81,4.04-7.11
				c0.22-2.99,0.24-8.18-2.86-8.98c-1.01-0.26-2.15,1.53-2.35,6.91V211.71z"/>
			<path class="st3" d="M150.67,210.82v0.86c-4.82,0.02-8.17,0.03-12.29,0.02v-2.85c-1.55,2.25-4.08,3.72-7.52,3.47
				c-5.33-0.16-7.49-6.16-3.14-9.7c2.62-1.99,6.78-2.14,10.63-2.15v-5.1c0-6.61-5.79-7.19-6.96-4.3c0.24-0.04,0.48-0.06,0.73-0.06
				c2.44,0,4.42,1.98,4.42,4.42c0,1.04-0.36,1.99-0.96,2.75c-0.76,1.07-2.01,1.8-3.68,1.78c-2.23-0.02-4.93-1.46-4.93-5.03
				c0-8.92,18.85-9.33,19.42,1.9c0.16,3.26,0.16,2.78,0.16,5.82h0c0.02,0.41,0.05,0.8,0.07,1.16
				C146.87,207.06,147.78,210.08,150.67,210.82z M138.34,201.38c-1.84,0.22-3.09,1.56-3.69,3.03c-0.79,1.94-0.07,3.81,0.94,4.49
				c1.09,0.74,2.52,0.08,2.71-3.42C138.33,204.91,138.34,202.07,138.34,201.38z"/>
			<path class="st3" d="M165.07,211.71c-3.97-1.1-7.31-1.2-12.28-0.02v-0.86c2.88-0.74,3.8-3.76,4.04-7.02
				c0.22-2.93,0.22-4.27,0-7.21c-0.25-3.25-1.16-6.27-4.04-7.02v-0.86c4.86,1,8.22,1.06,12.28-0.02v6.43
				c1.91-4.91,4.84-6.95,7.45-6.72c3.05,0.27,5.3,3.12,5.86,7.22c1.91-5.28,4.94-7.46,7.64-7.22c3.65,0.32,6.16,4.36,5.99,9.8
				c0.07,6.54,0.09,13.1,0.09,19.69c0,6.61,5.79,7.19,6.96,4.3c-2.68,0.45-5.15-1.61-5.15-4.36c0-1.04,0.36-1.99,0.96-2.75
				c2.47-3.46,8.61-1.77,8.61,3.24c0,8.92-18.85,9.33-19.42-1.9c-0.26-5.05-0.06-10.43-0.19-15.48c-0.07-2.71-0.67-5.65-2.94-6.24
				c-1.01-0.26-2.17,1.56-2.35,7.05c0,0.07,0,0.14,0.01,0.2h-0.01v9.72c-4.7-1.41-7.93-1.09-12.32-0.02v-0.87
				c2.88-0.75,3.8-3.81,4.04-7.11c0.22-2.99,0.24-8.18-2.86-8.98c-1.01-0.26-2.15,1.53-2.35,6.91V211.71z"/>
			<path class="st3" d="M222.24,210.82v0.86c-4.82,0.02-8.17,0.03-12.29,0.02v-2.85c-1.55,2.25-4.08,3.72-7.52,3.47
				c-5.33-0.16-7.49-6.16-3.14-9.7c2.62-1.99,6.78-2.14,10.63-2.15v-5.1c0-6.61-5.79-7.19-6.96-4.3c0.24-0.04,0.48-0.06,0.73-0.06
				c2.44,0,4.42,1.98,4.42,4.42c0,1.04-0.36,1.99-0.96,2.75c-0.76,1.07-2.01,1.8-3.68,1.78c-2.23-0.02-4.93-1.46-4.93-5.03
				c0-8.92,18.85-9.33,19.42,1.9c0.16,3.26,0.16,2.78,0.16,5.82h0c0.02,0.41,0.05,0.8,0.07,1.16
				C218.45,207.06,219.36,210.08,222.24,210.82z M209.92,201.38c-1.84,0.22-3.09,1.56-3.69,3.03c-0.79,1.94-0.07,3.81,0.94,4.49
				c1.09,0.74,2.52,0.08,2.71-3.42C209.9,204.91,209.92,202.07,209.92,201.38z"/>
		</g>
		<path class="st3" d="M93.33,71.38c-0.28-1.72-1.37-2.94-3.09-3.26c-0.39-0.07-0.97-0.01-1.13-0.15c-0.26-0.25,0.08-0.79,0.14-1.35
			c0.2-1.68-0.4-3.14-1.86-3.95c-1.41-0.78-3.01-0.54-4.37,0.38c-1.26,0.85-1.91,2.09-2.33,3.49c-0.7,2.36-0.85,4.82-1.07,7.25
			c-0.03,0.32-0.03,0.78,0.12,0.92c0.12,0.12,0.34,0.18,0.64,0.25c2.23,0.52,4.43,1.11,6.74,1.27c1.54,0.11,3.07,0.06,4.4-0.91
			C92.9,74.37,93.61,72.81,93.33,71.38z"/>
	</g>
	<g>
		<g>
			<path class="st4" d="M50.07,142.88c-0.59,0.3-1.18,0.61-1.85,0.85c-2.06,0.7-4.15,1.21-6.3,1.47c-1.88,0.23-3.65,2.15-3.79,3.95
				c-0.11,1.2,0.28,2.33,1,3.33c1.18,1.61,2.11,3.33,2.72,5.19c0.39,1.13,0.6,2.29,0.91,3.46c0.75,3.19,4.39,4.71,6.63,4.08
				c2.46-0.67,3.84-2.38,4.66-4.71c0.21-0.62,0.37-1.27,0.6-1.85c1.2-2.92,2.41-5.81,3.64-8.65c0.72-1.23,1.02-2.56,0.98-3.99
				c-0.08-2.18-2.18-3.83-3.69-4.19C53.55,141.24,51.79,141.95,50.07,142.88z"/>
			<path class="st4" d="M38.19,158.32c-0.49-0.46-1.2-0.78-1.77-1.21c-2.03-0.81-4.1-0.79-6.15-0.29c-1.21,0.33-2.37,0.88-3.29,1.76
				c-0.99,1.05-1.23,2.17-0.59,3.43c0.62,1.22,1.74,1.9,3.02,2.31c1.4,0.46,2.94,0.56,4.46,0.39c1.64-0.22,3.13-0.77,4.37-1.93
				C39.61,161.51,39.64,159.57,38.19,158.32z"/>
			<path class="st4" d="M40.42,129.56c-1.38,0.16-2.38,1.07-2.51,2.43c-0.11,0.53-0.08,1.14,0.04,1.67
				c0.74,3.05,2.66,5.16,5.44,6.57c0.62,0.31,1.3,0.45,2.01,0.53c1.91,0.19,3.27-1.02,3.4-2.96c0.03-0.49,0-1.01-0.15-1.47
				c-0.83-2.82-2.57-4.96-5.28-6.2C42.34,129.65,41.4,129.48,40.42,129.56z"/>
			<path class="st4" d="M38.87,140.93c-0.53-1.56-1.53-2.76-2.84-3.79c-1.55-1.26-3.31-2.09-5.35-2.12c-1.72-0.08-3,0.86-3.4,2.38
				c-0.19,0.9,0,1.78,0.39,2.58c1.07,2.14,2.81,3.61,5.03,4.62c1.1,0.44,2.2,0.64,3.34,0.58C38.44,145.06,39.67,143.23,38.87,140.93
				z"/>
			<path class="st4" d="M34.2,153.2c1.51-1.08,1.81-2.61,0.85-4.17c-0.75-1.17-1.81-1.96-3.06-2.39c-1.52-0.74-2.78-0.87-4.37-0.86
				c-1.33,0.04-2.65,0.33-3.79,1.15c-1.34,1.01-1.73,2.58-0.84,3.97c0.42,0.64,1,1.21,1.59,1.67c1.42,1.17,3.14,1.58,4.88,1.7
				C31.04,154.37,32.75,154.21,34.2,153.2z"/>
		</g>
		<g>
			<path class="st4" d="M169.33,251.34c-0.58-0.32-1.17-0.64-1.74-1.06c-1.73-1.31-3.33-2.75-4.75-4.39
				c-1.24-1.42-3.83-1.81-5.39-0.92c-1.06,0.59-1.77,1.55-2.19,2.7c-0.67,1.88-1.57,3.62-2.76,5.16c-0.72,0.96-1.56,1.79-2.35,2.7
				c-2.22,2.41-1.43,6.28,0.34,7.77c1.94,1.65,4.12,1.84,6.52,1.21c0.63-0.17,1.26-0.41,1.87-0.54c3.09-0.65,6.16-1.27,9.2-1.85
				c1.42-0.09,2.69-0.6,3.85-1.43c1.76-1.29,1.94-3.95,1.4-5.4C172.65,253.3,171.07,252.24,169.33,251.34z"/>
			<path class="st4" d="M149.88,250.17c0.11-0.66-0.03-1.44,0-2.15c-0.47-2.14-1.65-3.83-3.21-5.25c-0.95-0.81-2.06-1.47-3.3-1.74
				c-1.43-0.23-2.49,0.2-3.17,1.44c-0.66,1.2-0.6,2.5-0.22,3.8c0.41,1.41,1.19,2.75,2.18,3.91c1.11,1.23,2.4,2.16,4.05,2.53
				C148.04,253.14,149.66,252.08,149.88,250.17z"/>
			<path class="st4" d="M174.94,235.87c-0.91-1.05-2.22-1.37-3.43-0.71c-0.5,0.21-0.99,0.57-1.35,0.97
				c-2.11,2.33-2.78,5.1-2.38,8.19c0.09,0.69,0.36,1.33,0.69,1.96c0.92,1.69,2.68,2.13,4.36,1.15c0.42-0.25,0.83-0.57,1.13-0.96
				c1.87-2.27,2.66-4.91,2.17-7.85C175.94,237.51,175.56,236.63,174.94,235.87z"/>
			<path class="st4" d="M164.66,240.97c0.99-1.31,1.43-2.82,1.54-4.47c0.17-1.99-0.13-3.91-1.25-5.62c-0.9-1.47-2.4-2-3.88-1.48
				c-0.85,0.35-1.48,1-1.91,1.77c-1.17,2.09-1.41,4.35-1,6.76c0.26,1.16,0.71,2.18,1.39,3.09
				C161,242.94,163.21,242.93,164.66,240.97z"/>
			<path class="st4" d="M151.88,244c1.74,0.64,3.18,0.03,3.93-1.64c0.55-1.28,0.61-2.6,0.26-3.87c-0.24-1.68-0.84-2.79-1.74-4.1
				c-0.78-1.08-1.76-2.01-3.08-2.49c-1.59-0.54-3.1,0.02-3.76,1.54c-0.29,0.71-0.44,1.51-0.49,2.26c-0.17,1.83,0.45,3.49,1.33,4.99
				C149.14,242.04,150.23,243.37,151.88,244z"/>
		</g>
		<g>
			<path class="st4" d="M114.07,74.04c0.63,0.22,1.26,0.44,1.89,0.76c1.92,1.01,3.74,2.17,5.41,3.56c1.46,1.2,4.07,1.16,5.47,0.03
				c0.95-0.75,1.5-1.81,1.72-3.02c0.36-1.96,0.96-3.82,1.89-5.54c0.55-1.06,1.25-2.02,1.88-3.05c1.8-2.74,0.39-6.42-1.61-7.61
				c-2.18-1.32-4.37-1.14-6.63-0.14c-0.6,0.27-1.17,0.61-1.75,0.84c-2.94,1.15-5.87,2.26-8.78,3.32c-1.39,0.32-2.55,1.03-3.56,2.04
				c-1.53,1.56-1.27,4.22-0.5,5.56C110.48,72.65,112.21,73.44,114.07,74.04z"/>
			<path class="st4" d="M133.45,72.03c0,0.67,0.26,1.41,0.35,2.12c0.82,2.03,2.25,3.51,4.03,4.65c1.07,0.65,2.27,1.11,3.54,1.17
				c1.45-0.01,2.42-0.6,2.9-1.94c0.46-1.3,0.18-2.57-0.41-3.78c-0.63-1.33-1.62-2.52-2.79-3.5c-1.29-1.03-2.72-1.74-4.41-1.84
				C134.79,68.8,133.36,70.11,133.45,72.03z"/>
			<path class="st4" d="M111.06,90.22c1.06,0.89,2.42,0.98,3.5,0.15c0.46-0.29,0.89-0.73,1.18-1.18c1.7-2.64,1.91-5.49,1.02-8.46
				c-0.2-0.66-0.57-1.25-1-1.82c-1.18-1.51-2.99-1.66-4.48-0.42c-0.38,0.32-0.73,0.7-0.96,1.13c-1.47,2.55-1.82,5.28-0.86,8.1
				C109.81,88.77,110.33,89.57,111.06,90.22z"/>
			<path class="st4" d="M120.37,83.52c-0.76,1.45-0.95,3.01-0.79,4.67c0.16,1.99,0.77,3.84,2.14,5.34c1.13,1.3,2.69,1.58,4.07,0.83
				c0.78-0.48,1.29-1.23,1.6-2.06c0.82-2.25,0.68-4.52-0.11-6.83c-0.44-1.1-1.05-2.04-1.87-2.82
				C123.67,80.98,121.49,81.35,120.37,83.52z"/>
			<path class="st4" d="M132.49,78.45c-1.82-0.35-3.14,0.49-3.61,2.26c-0.34,1.35-0.18,2.67,0.37,3.86
				c0.51,1.61,1.29,2.62,2.39,3.76c0.95,0.93,2.06,1.7,3.45,1.95c1.66,0.28,3.06-0.52,3.46-2.13c0.17-0.74,0.18-1.56,0.12-2.31
				c-0.13-1.84-1.02-3.37-2.13-4.71C135.51,79.93,134.22,78.8,132.49,78.45z"/>
		</g>
		<path class="st4" d="M199.15,58.88c-1.63-1.57-3.9-2.09-5.78-1.33c-2.24,0.84-3.56,2.73-3.52,5.05c0,0.08,0.01,0.17,0.01,0.25
			c-0.13,0-0.26,0-0.4,0.01c-2.37,0.19-4.12,1.51-4.79,3.6c-0.64,1.99-0.05,4.07,1.62,5.72c1.22,1.21,2.78,1.86,4.9,2.06
			c2.46,0.23,4.89-0.04,7.23-0.3l0.98-0.11c0.91-0.1,1.48-0.36,1.77-0.83c0.03-0.05,0.06-0.09,0.08-0.14
			c0.19-0.37,0.22-0.78,0.23-1.16l0.04-1.17c0.08-2.11,0.15-4.29-0.13-6.49C201.16,62.22,200.72,60.32,199.15,58.88z M199.2,64.34
			c0.26,2.02,0.19,4.01,0.11,6.13l-0.04,1.17c-0.03,0.01-0.07,0.01-0.11,0.01l-0.99,0.11c-2.34,0.26-4.54,0.5-6.78,0.3
			c-1.61-0.15-2.71-0.59-3.56-1.43c-0.62-0.61-1.58-1.88-1.07-3.48c0.06-0.17,0.12-0.33,0.19-0.48c0.6-1.18,1.75-1.53,2.67-1.6
			c0.13-0.01,0.3,0,0.46,0.02c0.48,0.04,1.37,0.12,1.86-0.67c0.3-0.47,0.21-0.99,0.14-1.45c-0.02-0.13-0.05-0.27-0.05-0.39
			c-0.02-1.39,0.73-2.44,2.1-2.96l0.03-0.01c1.08-0.44,2.42-0.1,3.45,0.89C198.64,61.42,198.99,62.7,199.2,64.34z"/>
		<path class="st4" d="M265.08,209.33c-1.08-1.37-2.62-1.91-4.28-1.35c-0.38,0.13-0.85,0.47-1.06,0.41
			c-0.35-0.09-0.31-0.73-0.53-1.26c-0.64-1.57-1.87-2.55-3.54-2.55c-1.61,0-2.9,0.99-3.64,2.45c-0.69,1.35-0.66,2.75-0.35,4.18
			c0.53,2.41,1.59,4.62,2.57,6.87c0.13,0.3,0.35,0.69,0.55,0.75c0.16,0.04,0.38,0,0.68-0.09c2.21-0.63,4.42-1.17,6.51-2.15
			c1.4-0.65,2.72-1.44,3.41-2.92C266.15,212.15,266.02,210.45,265.08,209.33z"/>
		<path class="st4" d="M68.64,113.03c0.2,0.6,0.08,1.3-0.13,1.88c-0.23,0.64-0.69,1.16-1.27,1.5c-0.93,0.55-2.37,0.45-3.27-0.35
			c-0.59-0.52-1.1-0.51-1.77-0.24c-2.34,0.97-4.7,1.9-7.07,2.81c-0.62,0.24-0.95,0.6-1.05,1.27c-0.22,1.4-1.34,2.42-2.74,2.6
			c-1.81,0.23-3.25-1.34-2.9-3.16c0.04-0.2,0.1-0.39,0.16-0.62c-0.75-0.4-1.33-0.96-1.57-1.79c-0.5-1.72,0.65-3.3,2.52-3.49
			c0.85-0.09,1.63,0.12,2.29,0.67c0.45,0.37,0.89,0.4,1.42,0.19c2.48-1,4.98-1.99,7.47-2.97c0.48-0.19,0.76-0.46,0.82-1.01
			c0.15-1.45,1-2.44,2.3-2.77c1.21-0.31,2.78,0.5,3.24,1.67c0.14,0.36,0.16,0.76,0.13,1.15c-0.01,0.18-0.18,0.82-0.03,0.97
			c0.47,0.46,1.06,0.87,1.37,1.47C68.58,112.87,68.62,112.95,68.64,113.03z"/>
		<path class="st4" d="M79.98,234.03c-0.1-0.63,0.13-1.29,0.44-1.83c0.33-0.59,0.87-1.03,1.5-1.27c1-0.39,2.42-0.07,3.18,0.87
			c0.5,0.61,1,0.68,1.71,0.52c2.47-0.57,4.95-1.11,7.43-1.63c0.65-0.14,1.03-0.44,1.25-1.08c0.45-1.35,1.72-2.17,3.12-2.12
			c1.82,0.07,2.99,1.85,2.35,3.59c-0.07,0.19-0.16,0.37-0.25,0.58c0.67,0.52,1.16,1.16,1.26,2.02c0.21,1.78-1.17,3.15-3.05,3.04
			c-0.86-0.05-1.59-0.38-2.15-1.03c-0.38-0.44-0.81-0.54-1.37-0.42c-2.61,0.59-5.23,1.16-7.85,1.72c-0.51,0.11-0.83,0.33-0.97,0.87
			c-0.38,1.4-1.38,2.24-2.72,2.36c-1.24,0.11-2.66-0.94-2.93-2.17c-0.08-0.38-0.03-0.77,0.06-1.15c0.04-0.17,0.31-0.78,0.19-0.95
			c-0.39-0.53-0.91-1.03-1.11-1.67C80.01,234.2,79.99,234.12,79.98,234.03z"/>
		<path class="st4" d="M42.64,44.7c-0.2,0.73-0.26,1.56-0.19,2.42c-0.08,0.06-0.22,0.15-0.28,0.19c-0.08,0.05-0.14,0.09-0.17,0.11
			l-0.19,0.15c-0.68,0.53-1.31,1.03-1.58,2.05c-0.22,0.85-0.16,1.81,0.15,2.7c0.27,0.76,0.77,1.42,1.46,1.89
			c1.58,1.08,3.5,1.02,5.16-0.17c0.46-0.33,0.86-0.34,1.36-0.07c3.85,1.98,6.8,3.48,9.57,4.87c0.59,0.28,0.85,0.69,0.88,1.35
			c0.04,1.18,0.53,2.21,1.45,3.07c1.02,0.94,2.31,1.39,3.54,1.22c1.16-0.16,2.15-0.83,2.8-1.88c0.54-0.89,0.7-1.93,0.48-3.09
			c0.15-0.07,0.29-0.14,0.43-0.22c1.18-0.65,1.95-1.81,2.07-3.11c0.12-1.29-0.4-2.5-1.42-3.34c-1.57-1.29-3.69-1.44-5.4-0.36
			c-0.59,0.37-1.06,0.4-1.69,0.06c-2.9-1.51-6.02-3.12-9.14-4.64c-0.85-0.42-1.14-0.85-1.15-1.73c-0.01-1.53-0.94-2.96-2.33-3.66
			c-0.19-0.1-0.39-0.18-0.6-0.25c-0.91-0.3-1.91-0.25-2.82,0.14c-0.54,0.23-1.53,0.75-2.08,1.6C42.82,44.22,42.71,44.46,42.64,44.7z
			 M66.89,54.15c0.77,0.6,1.05,1.25,0.88,2.05c-0.19,0.91-0.73,1.5-1.56,1.71c-0.39,0.1-0.82,0.25-1.01,0.62
			c-0.2,0.38-0.07,0.83,0.06,1.18c0.22,0.59,0.19,1.27-0.1,1.85c-0.26,0.53-0.7,0.92-1.21,1.08c-0.69,0.21-1.58,0.04-2.25-0.44
			c-0.57-0.4-0.9-0.93-0.94-1.51c-0.15-2.45-1.73-3.4-3.32-4.16c-2.22-1.06-4.44-2.21-6.58-3.32l-1.52-0.79
			c-1.23-0.62-2.38-0.57-3.44,0.24c-0.89,0.67-2.16,0.72-3.02,0.12c-0.75-0.52-1.12-1.56-0.91-2.53c0.19-0.83,0.74-1.39,1.66-1.66
			c0.29-0.09,0.65-0.23,0.82-0.56c0.17-0.34,0.07-0.72-0.02-0.97c-0.37-1.04-0.19-1.86,0.54-2.53c0.53-0.48,1.4-0.96,2.5-0.51
			c1.01,0.41,1.57,1.21,1.55,2.19c-0.03,1.53,0.59,2.55,2.01,3.28c0.09,0.05,0.18,0.09,0.28,0.13c1.01,0.46,2.02,0.98,2.99,1.49
			c0.44,0.23,0.87,0.46,1.31,0.68l1.4,0.71c1.09,0.55,2.18,1.1,3.26,1.67c1.17,0.6,2.28,0.58,3.38-0.13
			C64.72,53.35,65.93,53.39,66.89,54.15z"/>
		<path class="st4" d="M247.84,99.44c-1.08-1.37-2.62-1.91-4.28-1.35c-0.38,0.13-0.85,0.47-1.06,0.41
			c-0.35-0.09-0.31-0.73-0.53-1.26c-0.64-1.57-1.87-2.55-3.54-2.55c-1.61,0-2.9,0.99-3.64,2.45c-0.69,1.35-0.66,2.75-0.35,4.18
			c0.53,2.41,1.59,4.62,2.57,6.87c0.13,0.3,0.35,0.69,0.55,0.75c0.16,0.04,0.38,0,0.68-0.09c2.21-0.63,4.42-1.17,6.51-2.15
			c1.4-0.65,2.72-1.44,3.41-2.92C248.9,102.26,248.77,100.56,247.84,99.44z"/>
		<path class="st4" d="M262.43,185.76c0.08-0.75,0.02-1.58-0.19-2.42c0.07-0.08,0.2-0.18,0.25-0.23c0.07-0.06,0.12-0.11,0.15-0.14
			l0.16-0.17c0.59-0.63,1.14-1.22,1.24-2.27c0.08-0.87-0.12-1.81-0.57-2.65c-0.38-0.71-0.98-1.28-1.74-1.64
			c-1.72-0.83-3.62-0.47-5.08,0.97c-0.4,0.39-0.8,0.47-1.33,0.28c-4.11-1.36-7.26-2.39-10.21-3.32c-0.63-0.19-0.95-0.55-1.08-1.19
			c-0.22-1.16-0.87-2.1-1.91-2.8c-1.15-0.77-2.49-1.01-3.69-0.65c-1.12,0.34-2,1.15-2.47,2.29c-0.4,0.96-0.39,2.01,0.01,3.12
			c-0.13,0.09-0.26,0.18-0.39,0.28c-1.06,0.83-1.65,2.1-1.56,3.39c0.08,1.29,0.78,2.41,1.92,3.08c1.76,1.03,3.87,0.85,5.39-0.48
			c0.52-0.46,0.99-0.56,1.66-0.32c3.1,1.04,6.43,2.14,9.75,3.17c0.91,0.29,1.26,0.67,1.41,1.53c0.25,1.51,1.39,2.78,2.87,3.26
			c0.21,0.07,0.42,0.12,0.63,0.15c0.94,0.15,1.92-0.05,2.77-0.58c0.5-0.31,1.4-0.97,1.81-1.9
			C262.33,186.26,262.4,186.01,262.43,185.76z M237.01,180.2c-0.85-0.48-1.23-1.08-1.19-1.89c0.05-0.93,0.49-1.6,1.28-1.93
			c0.37-0.16,0.77-0.37,0.9-0.77c0.14-0.4-0.06-0.83-0.24-1.15c-0.31-0.55-0.38-1.22-0.19-1.85c0.18-0.57,0.55-1.02,1.03-1.25
			c0.65-0.31,1.55-0.28,2.29,0.08c0.62,0.3,1.04,0.78,1.16,1.35c0.53,2.39,2.23,3.09,3.92,3.59c2.35,0.7,4.72,1.49,7.02,2.26
			l1.63,0.54c1.32,0.42,2.44,0.19,3.36-0.77c0.77-0.8,2.02-1.04,2.97-0.58c0.82,0.4,1.35,1.37,1.29,2.36
			c-0.05,0.85-0.52,1.48-1.39,1.9c-0.28,0.13-0.61,0.33-0.73,0.68c-0.12,0.36,0.04,0.72,0.17,0.96c0.52,0.97,0.48,1.81-0.14,2.58
			c-0.45,0.56-1.23,1.17-2.39,0.89c-1.06-0.25-1.74-0.96-1.87-1.92c-0.2-1.52-0.98-2.43-2.5-2.93c-0.1-0.03-0.19-0.06-0.3-0.09
			c-1.07-0.29-2.15-0.66-3.19-1.01c-0.47-0.16-0.93-0.31-1.4-0.47l-1.5-0.48c-1.16-0.38-2.33-0.75-3.48-1.14
			c-1.25-0.41-2.35-0.22-3.32,0.65C239.28,180.64,238.07,180.79,237.01,180.2z"/>
		<path class="st4" d="M71.12,210.14c-1.21-1.25-2.8-1.63-4.4-0.91c-0.36,0.16-0.8,0.55-1.01,0.52c-0.35-0.06-0.39-0.69-0.65-1.2
			c-0.8-1.5-2.12-2.35-3.78-2.18c-1.61,0.16-2.78,1.28-3.38,2.8c-0.55,1.41-0.38,2.8,0.07,4.19c0.77,2.35,2.05,4.44,3.25,6.57
			c0.16,0.28,0.42,0.66,0.63,0.69c0.17,0.03,0.38-0.04,0.67-0.16c2.13-0.85,4.28-1.61,6.26-2.79c1.33-0.79,2.56-1.7,3.1-3.25
			C72.47,212.84,72.16,211.16,71.12,210.14z"/>
	</g>
</g>
</svg>
