<?xml version="1.0" encoding="utf-8"?>
<!-- Generator: Adobe Illustrator 26.3.1, SVG Export Plug-In . SVG Version: 6.00 Build 0)  -->
<svg version="1.1" id="Layer_1" xmlns="http://www.w3.org/2000/svg" xmlns:xlink="http://www.w3.org/1999/xlink" x="0px" y="0px"
	 width="300px" height="300px" viewBox="0 0 300 300" style="enable-background:new 0 0 300 300;" xml:space="preserve">
<style type="text/css">
	.st0{fill:#8CC96E;}
	.st1{fill:#F5C2CB;}
	.st2{fill:#F7A398;}
	.st3{fill:#FFFFFF;}
	.st4{fill:#E3525A;}
	.st5{fill:#EBE4D6;}
	.st6{fill:#EFBD83;}
</style>
<g>
	<g>
		<path class="st0" d="M163.3,191.6c-2.7-10.6-9.7-21-19.1-28c0.9-2.4,1.1-5,0.4-7.6c-1.9-7.6-10.3-12-18.7-9.9
			c-6.4,1.6-10.9,6.5-11.9,12.1c-2.5,0.5-5,1.1-7.3,1.7c-2,0.5-4.1,1.1-6.2,1.7c-3.6-5.3-10.3-8-16.8-6.4
			c-8.4,2.1-13.5,10.7-11.4,19.2c0.6,2.5,1.8,4.7,3.4,6.5c-5.4,10.7-7.5,23.1-4.8,33.9c3.5,14,15.3,21.1,29.5,22.9
			c2.3,5,9.4,9.4,12.9,9.1c3.6-0.4,6.2-4.5,6.3-9.6c2.1-0.4,4.3-0.8,6.4-1.3c0.6-0.1,1.2-0.3,1.7-0.5c2.3,5.1,7,8,10.6,6.5
			c3.2-1.3,7.2-8.5,7-13.9C158.9,219.6,167.3,207,163.3,191.6z"/>
		<g>
			<path d="M90.1,170.5c-0.4,0.1-0.8,0.3-1.3,0.3c-2.8,0.5-5.5-1.6-5.7-4.4c-0.1-0.7,0.3-1.1,0.9-1.3c0.6-0.2,1.1,0.1,1.3,0.7
				c0.2,0.6,0.4,1.2,0.8,1.7c0.5,0.8,1.3,1.1,2.1,0.9c0.6-0.1,1.3-0.3,1.9-0.6c1.1-0.6,1.4-1.5,1.1-2.7c-0.1-0.4-0.2-0.7-0.4-1
				c-0.3-0.8-0.1-1.4,0.5-1.7c0.7-0.3,1.3-0.1,1.6,0.7c1.4,3,0.6,6-2.6,7.2C90.2,170.4,90.1,170.4,90.1,170.5
				C90.1,170.4,90.1,170.5,90.1,170.5z"/>
			<path d="M127.7,161.8c-0.6,0-1.3,0-1.9-0.1c-1.8-0.3-3-1.4-3.5-3.1c-0.2-0.7-0.3-1.6-0.3-2.4c0-0.7,0.5-1.1,1.1-1.1
				c0.6,0,1,0.4,1.1,1.1c0.1,0.6,0.1,1.2,0.3,1.8c0.3,0.9,1,1.4,1.9,1.5c0.6,0,1.3,0,1.9-0.2c1.3-0.3,1.9-1.2,1.8-2.5
				c0-0.4-0.1-0.7-0.1-1.1c-0.1-0.8,0.3-1.3,0.9-1.4c0.7-0.1,1.2,0.2,1.4,1c0.7,3.1-0.6,6-4.2,6.4
				C128,161.7,127.8,161.8,127.7,161.8C127.7,161.8,127.7,161.8,127.7,161.8z"/>
			<g>
				<path d="M115.8,170.2c-0.3,0.1-0.5,0.1-0.8,0.2c-1.9,0.3-4,0-5.5-0.6c-0.9,1.1-2.3,2-3.7,2.6c-2.5,1-4.8,0.9-6.5-0.4
					c-0.6-0.4-0.7-1.3-0.3-1.9c0.4-0.6,1.3-0.7,1.9-0.3c1,0.7,2.4,0.5,3.3,0.2c1.9-0.6,3.3-1.9,3.4-2.3c0.1-0.5,0.4-0.9,0.8-1
					c0.5-0.2,0.9-0.1,1.3,0.2c0.6,0.5,2.6,1.1,4.7,0.8c1.3-0.2,2.3-0.8,2.9-1.7c0.4-0.6,1.2-0.8,1.9-0.4c0.6,0.4,0.8,1.2,0.4,1.9
					C118.9,168.9,117.5,169.8,115.8,170.2z"/>
			</g>
			<g>
				<path d="M135.7,195.7c-0.6,0.2-1.3,0.2-1.9,0.2c-1.4-0.1-2.6-0.6-3.5-1.7c-0.9-1-1.3-2.2-1.1-3.5c0.5-4.1,5.9-8.1,6.6-8.5
					c0.6-0.4,1.4-0.3,1.9,0.3c0.4,0.6,0.3,1.4-0.3,1.9c-2,1.4-5.2,4.5-5.5,6.6c-0.1,0.6,0.1,1,0.4,1.4c0.5,0.5,1,0.8,1.7,0.8
					c2.8,0.1,6.6-3.5,7.9-4.6l0.1-0.1c0.5-0.5,1.4-0.5,1.9,0.1c0.5,0.5,0.5,1.4-0.1,1.9l-0.1,0.1C142.3,191.8,139,194.8,135.7,195.7
					z"/>
			</g>
			<g>
				<path d="M95.8,207.3c-0.2,0.1-0.4,0.1-0.6,0.1c-3.9,0.5-8.5-3.2-10.2-4.6l-0.1-0.1c-0.6-0.5-0.7-1.3-0.2-1.9
					c0.5-0.6,1.3-0.7,1.9-0.2l0.1,0.1c1.4,1.1,5.5,4.4,8.2,4c0.7-0.1,1.2-0.4,1.6-0.9c0.3-0.5,0.4-0.9,0.3-1.5
					c-0.4-2.1-3.9-4.9-6-6.2c-0.6-0.4-0.8-1.2-0.5-1.8c0.4-0.6,1.2-0.8,1.8-0.5c0.7,0.4,6.4,4,7.2,8c0.3,1.3,0,2.5-0.8,3.6
					C97.9,206.4,96.9,207,95.8,207.3z"/>
			</g>
		</g>
		<g>
			<path class="st1" d="M131.9,163.4c-3,0.9-5.1,3-4.6,4.7c0.5,1.7,3.3,2.5,6.4,1.6c3-0.9,5.1-3,4.6-4.7
				C137.8,163.2,134.9,162.5,131.9,163.4z"/>
			<path class="st1" d="M88,174.4c-3,0.9-5.1,3-4.6,4.7c0.5,1.7,3.3,2.5,6.4,1.6c3-0.9,5.1-3,4.6-4.7
				C93.9,174.3,91.1,173.6,88,174.4z"/>
		</g>
	</g>
	<g>
		<path class="st0" d="M226.9,115.8c1.3-9.9-1.1-21.1-6.6-30.4c1.8-2.1,3-4.7,3.2-7.5c0.4-7.3-5.8-13.6-14-14.1
			c-5.5-0.3-10.4,2.1-13.2,6c-2.7-0.5-5.3-0.9-7.8-1.3c-1.7-0.2-3.4-0.4-5.2-0.6c-0.7-6.6-5.8-12.2-12.7-13.1
			c-8.1-1-15.5,4.7-16.5,12.8c-0.4,2.7,0.1,5.4,1.1,7.8c-8.8,7.5-15.3,17.9-16.7,28.6c-1.7,13.4,6,23.7,17.7,30.1
			c0.3,5.1,4.9,11.5,8.1,12.3c3.3,0.9,7-1.8,8.8-6.2c2,0.4,4,0.8,6.1,1c0.6,0.1,1.1,0.1,1.7,0.2c0.3,5.2,3.3,9.3,7,9.3
			c3.2,0,9.2-4.9,10.9-9.7C213.4,138.8,225,130.6,226.9,115.8z"/>
		<g>
			<g>
				<path d="M192.9,81c-0.3,0-0.6-0.1-0.9-0.1c-1.8-0.4-3.5-1.4-4.5-2.3c-1.2,0.6-2.7,0.9-4.1,0.9c-2.6,0-4.6-0.9-5.7-2.6
					c-0.4-0.7-0.2-1.6,0.5-2c0.7-0.4,1.6-0.2,2,0.5c0.6,0.9,1.7,1.2,2.5,1.3c1.8,0.2,3.5-0.5,3.8-0.8c0.3-0.4,0.7-0.7,1.2-0.7
					c0.5,0,1,0.3,1.2,0.8c0.3,0.6,1.9,1.8,3.7,2.2c1.2,0.3,2.2,0.1,3-0.4c0.6-0.5,1.5-0.3,2,0.3c0.5,0.7,0.3,1.5-0.4,2
					C196.1,80.9,194.6,81.2,192.9,81z"/>
			</g>
			<path d="M173.2,63.7c1.6,0.6,2.4,2.1,2.5,3.7c0.1,1.9-0.8,4-2.5,5.3c-3.3,2.3-7.5-0.1-6.9-4.3C166.8,64.9,170.4,62.8,173.2,63.7z
				"/>
			<path d="M205.2,69.4c-1.6,0.5-2.6,1.9-2.7,3.6c-0.2,1.9,0.5,4.1,2.2,5.4c3.2,2.5,7.5,0.3,7.2-3.9C211.6,71,208.1,68.6,205.2,69.4
				z"/>
			<g>
				<path d="M203.8,108.2c-0.7-0.1-1.3-0.3-2-0.7c-1.1-0.7-1.8-1.7-2.1-2.9c-0.8-3.8,3-9,3.4-9.6c0.5-0.6,1.4-0.8,2-0.3
					c0.6,0.5,0.8,1.4,0.3,2c-1.3,1.8-3.3,5.4-2.9,7.3c0.1,0.5,0.3,0.8,0.7,1c0.5,0.3,1,0.4,1.6,0.2c1.6-0.4,3.5-2.6,5.6-6.3l0.1-0.1
					c0.4-0.7,1.3-0.9,2-0.6c0.7,0.4,0.9,1.3,0.6,2l-0.1,0.1c-1,1.8-3.8,6.7-7.3,7.7C205,108.2,204.4,108.2,203.8,108.2z"/>
			</g>
			<g>
				<path d="M164.5,103.2c-0.2,0-0.4-0.1-0.6-0.1c-3.6-0.8-6.5-5.6-7.6-7.4l-0.1-0.1c-0.4-0.7-0.2-1.6,0.5-2c0.7-0.4,1.6-0.2,2,0.5
					l0.1,0.1c2.2,3.7,4.2,5.7,5.8,6.1c0.6,0.1,1.1,0,1.6-0.3c0.4-0.3,0.6-0.6,0.7-1c0.3-2-1.8-5.5-3.2-7.2c-0.5-0.6-0.4-1.5,0.2-2
					c0.6-0.5,1.5-0.4,2,0.2c0.5,0.6,4.4,5.6,3.8,9.5c-0.2,1.3-0.9,2.3-2,3C166.8,103.1,165.7,103.3,164.5,103.2z"/>
			</g>
		</g>
		<g>
			<path class="st1" d="M167.9,75.2c-2.9-0.6-5.5,0.3-5.8,2c-0.3,1.7,1.8,3.5,4.6,4c2.9,0.6,5.5-0.3,5.8-2S170.8,75.7,167.9,75.2z"
				/>
			<path class="st1" d="M207.6,81.5c-2.9-0.6-5.5,0.3-5.8,2c-0.3,1.7,1.8,3.5,4.6,4c2.9,0.6,5.5-0.3,5.8-2
				C212.6,83.9,210.5,82.1,207.6,81.5z"/>
		</g>
	</g>
	<g>
		<g>
			<path class="st2" d="M238.7,173.5c0.2-0.3,0.3-0.5,0.4-0.8c0.1,0,0.1,0,0.2,0c0.1,0,0.1,0,0.2,0c0.1,0.3,0.3,0.5,0.4,0.8
				c2.3,4,7.4,5.5,11.4,3.2c4-2.3,5.5-7.4,3.2-11.4c-0.2-0.3-0.3-0.5-0.5-0.8c0-0.1,0.1-0.1,0.1-0.2c0-0.1,0.1-0.1,0.1-0.2
				c0.3,0,0.6,0.1,0.9,0.1c4.6,0,8.4-3.7,8.5-8.3c0-4.6-3.7-8.4-8.3-8.5c-0.3,0-0.6,0-0.9,0c0-0.1-0.1-0.1-0.1-0.2
				c0-0.1-0.1-0.1-0.1-0.2c0.2-0.2,0.4-0.5,0.5-0.8c2.4-4,1-9.1-3-11.5s-9.1-1-11.5,3c-0.2,0.3-0.3,0.5-0.4,0.8c-0.1,0-0.1,0-0.2,0
				c-0.1,0-0.1,0-0.2,0c-0.1-0.3-0.3-0.5-0.4-0.8c-2.3-4-7.4-5.5-11.4-3.2c-4,2.3-5.5,7.4-3.2,11.4c0.2,0.3,0.3,0.5,0.5,0.8
				c0,0-0.1,0.1-0.1,0.1c0,0.1-0.1,0.1-0.1,0.2c-0.3,0-0.6-0.1-0.9-0.1c-4.6,0-8.4,3.7-8.5,8.3c0,4.6,3.7,8.4,8.3,8.5
				c0.3,0,0.6,0,0.9,0c0,0.1,0.1,0.1,0.1,0.2c0,0.1,0.1,0.1,0.1,0.2c-0.2,0.2-0.4,0.5-0.5,0.8c-2.4,4-1,9.1,3,11.5
				S236.3,177.5,238.7,173.5z"/>
			<circle class="st3" cx="239.4" cy="155.7" r="7"/>
		</g>
		<g>
			<path class="st2" d="M70.1,138.8c0.2-0.3,0.3-0.5,0.4-0.8c0.1,0,0.1,0,0.2,0c0.1,0,0.1,0,0.2,0c0.1,0.3,0.3,0.5,0.4,0.8
				c2.3,4,7.4,5.5,11.4,3.2c4-2.3,5.5-7.4,3.2-11.4c-0.2-0.3-0.3-0.5-0.5-0.8c0-0.1,0.1-0.1,0.1-0.2c0-0.1,0.1-0.1,0.1-0.2
				c0.3,0,0.6,0.1,0.9,0.1c4.6,0,8.4-3.7,8.5-8.3c0-4.6-3.7-8.4-8.3-8.5c-0.3,0-0.6,0-0.9,0c0-0.1-0.1-0.1-0.1-0.2
				c0-0.1-0.1-0.1-0.1-0.2c0.2-0.2,0.4-0.5,0.5-0.8c2.4-4,1-9.1-3-11.5c-4-2.4-9.1-1-11.5,3c-0.2,0.3-0.3,0.5-0.4,0.8
				c-0.1,0-0.1,0-0.2,0c-0.1,0-0.1,0-0.2,0c-0.1-0.3-0.3-0.5-0.4-0.8c-2.3-4-7.4-5.5-11.4-3.2s-5.5,7.4-3.2,11.4
				c0.2,0.3,0.3,0.5,0.5,0.8c0,0-0.1,0.1-0.1,0.1c0,0.1-0.1,0.1-0.1,0.2c-0.3,0-0.6-0.1-0.9-0.1c-4.6,0-8.4,3.7-8.5,8.3
				c0,4.6,3.7,8.4,8.3,8.5c0.3,0,0.6,0,0.9,0c0,0.1,0.1,0.1,0.1,0.2c0,0.1,0.1,0.1,0.1,0.2c-0.2,0.2-0.4,0.5-0.5,0.8
				c-2.4,4-1,9.1,3,11.5C62.6,144.1,67.8,142.8,70.1,138.8z"/>
			<circle class="st3" cx="70.9" cy="121" r="7"/>
		</g>
	</g>
	<g>
		<g>
			<path class="st4" d="M233.7,202.4C233.7,202.4,233.7,202.4,233.7,202.4c-2.3-4.9-5.8-9.2-9.9-12.3c-0.7-0.5-1.5-1.1-2.2-1.6
				c-9.6-6.2-18.9-6.1-28.5,0.3c-3.7,2.5-7.4,6.1-9.9,9.7c0,0,0,0,0,0c-2,2.9-3.2,5.7-3.6,8.4c-0.5,3.3,0.2,6.3,2.1,8.9
				c2.2,3.2,5.9,5.7,10.7,7.4c0,0,0,0,0,0c0,0,0,0,0,0c0.4,0.2,0.9,0.3,1.3,0.4c3.1,1,20,3.3,25.7,3.3c2.3,0,4.3-0.2,6-0.6
				c0,0,0,0,0,0c0,0,0,0,0,0c4.4-1,7.4-3.2,9.3-6.8C237.2,215.2,236.8,208.9,233.7,202.4z"/>
			<path class="st5" d="M219.6,227.1c-5.7,0-22.6-2.3-25.7-3.3c-0.5-0.1-0.9-0.3-1.3-0.4c0,0,0,0,0,0c0,0,0,0,0,0
				c-0.2-0.1-0.3-0.1-0.4-0.2c-1.5,3-3.9,9.6-2.7,12l0.1,0.2c0.8,1.6,2,3.9,11.3,5.9c10,2.2,15.3,0.5,17.5-0.6
				c1.9-1,3.7-4.1,1.9-13.5C219.9,227.1,219.8,227.1,219.6,227.1z"/>
			<g>
				<g>
					<path class="st3" d="M197.1,197.9c0,0,0-0.1,0-0.1c-1.5-3.3-1-6.4,1.5-8.7c0.8-0.7,1.7-1.2,2.8-1.3c3.9-0.3,7.7,2.4,8.3,6
						c0.5,3-1.1,7-4.4,8.2C202.1,203.2,198.5,201.4,197.1,197.9z"/>
				</g>
				<g>
					<path class="st3" d="M215.6,197.8C215.6,197.8,215.6,197.8,215.6,197.8c0.1-2.5,1.4-4.1,3.5-4.8c0.7-0.2,1.4-0.2,2,0.1
						c2.4,1,3.8,3.7,3.1,6c-0.6,1.9-2.8,3.8-5.1,3.5C217,202.4,215.4,200.3,215.6,197.8z"/>
				</g>
				<g>
					<path class="st3" d="M222,210.2C222,210.2,222,210.1,222,210.2c2.5-1.6,5-1.4,7,0.5c0.6,0.6,1.1,1.4,1.2,2.2
						c0.5,3.3-1.2,6.7-4,7.5c-2.3,0.7-5.6-0.4-6.8-3.1C218.3,214.8,219.4,211.7,222,210.2z"/>
				</g>
				<g>
					<path class="st3" d="M188.5,201.8C188.5,201.8,188.6,201.8,188.5,201.8c2.3-1.5,4.6-1.3,6.5,0.5c0.6,0.6,1,1.3,1.1,2.1
						c0.5,3.1-1.2,6.3-3.7,7c-2.1,0.6-5.2-0.4-6.3-2.9C185.1,206.2,186.1,203.2,188.5,201.8z"/>
				</g>
				<g>
					<path class="st3" d="M209.2,207.7C209.2,207.7,209.2,207.7,209.2,207.7c0.1-1.9,1-3.1,2.7-3.6c0.5-0.2,1.1-0.1,1.5,0.1
						c1.8,0.8,2.9,2.8,2.3,4.6c-0.5,1.5-2.1,2.9-3.9,2.7C210.2,211.2,209,209.6,209.2,207.7z"/>
				</g>
				<g>
					<path class="st3" d="M202.3,211.7C202.3,211.7,202.4,211.7,202.3,211.7c2.9,0.1,5,1.5,6,3.8c0.3,0.7,0.4,1.5,0.2,2.2
						c-0.9,2.6-3.9,4.1-6.6,3.3c-2.3-0.7-4.8-3-4.8-5.5C197.1,213.1,199.4,211.5,202.3,211.7z"/>
				</g>
			</g>
		</g>
		<g>
			<path class="st4" d="M121.7,40.7C121.6,40.7,121.6,40.7,121.7,40.7c-5.3-0.9-10.9-0.5-15.7,1.1c-0.9,0.3-1.7,0.6-2.6,0.9
				c-10.6,4.3-15.8,12-16,23.6c-0.1,4.5,0.8,9.6,2.3,13.6c0,0,0,0,0,0c1.2,3.3,2.9,5.9,4.9,7.8c2.4,2.2,5.3,3.4,8.5,3.4
				c3.9,0,8-1.6,12.2-4.6c0,0,0,0,0,0c0,0,0,0,0,0c0.4-0.3,0.7-0.6,1.1-0.8c2.6-2,14.1-14.6,17.4-19.2c1.3-1.9,2.3-3.7,3-5.3
				c0,0,0,0,0,0c0,0,0,0,0,0c1.7-4.2,1.6-7.9-0.3-11.5C134.2,45.1,128.7,41.9,121.7,40.7z"/>
			<path class="st5" d="M133.9,66.4c-3.3,4.6-14.8,17.2-17.4,19.2c-0.4,0.3-0.7,0.6-1.1,0.8c0,0,0,0,0,0c0,0,0,0,0,0
				c-0.1,0.1-0.3,0.2-0.4,0.3c1.7,2.9,5.6,8.7,8.3,9.1l0.2,0c1.7,0.2,4.3,0.6,11.3-5.9c7.5-7,9.1-12.2,9.5-14.7
				c0.3-2.1-1.3-5.4-10-9.3C134.1,66.1,134,66.3,133.9,66.4z"/>
			<g>
				<g>
					<path class="st3" d="M97.1,68.2c0,0-0.1,0-0.1,0c-3.5-0.6-5.8-2.8-6.3-6.2c-0.2-1.1,0-2.1,0.5-3c2-3.4,6.3-4.9,9.6-3.4
						c2.8,1.3,5.1,4.9,4.3,8.3C104.2,67.1,100.7,69,97.1,68.2z"/>
				</g>
				<g>
					<path class="st3" d="M107.6,53C107.6,52.9,107.5,52.9,107.6,53c-1.9-1.5-2.6-3.5-1.9-5.6c0.2-0.7,0.7-1.2,1.2-1.6
						c2.2-1.4,5.2-1,6.7,0.9c1.2,1.6,1.5,4.5,0,6.2C112.1,54.5,109.5,54.5,107.6,53z"/>
				</g>
				<g>
					<path class="st3" d="M121.3,54.8C121.3,54.8,121.3,54.7,121.3,54.8c0.1-3,1.7-4.9,4.4-5.5c0.9-0.2,1.8-0.1,2.5,0.3
						c3.1,1.5,4.8,4.9,3.9,7.6c-0.7,2.3-3.5,4.3-6.4,3.8C123.1,60.5,121.1,57.7,121.3,54.8z"/>
				</g>
				<g>
					<path class="st3" d="M95.4,77.5C95.4,77.5,95.4,77.4,95.4,77.5c0.1-2.8,1.6-4.5,4.1-5.1c0.8-0.2,1.6-0.1,2.4,0.3
						c2.8,1.4,4.5,4.5,3.7,7.1c-0.7,2.1-3.3,4-5.9,3.5C97,82.8,95.2,80.2,95.4,77.5z"/>
				</g>
				<g>
					<path class="st3" d="M112,63.9C112,63.9,112,63.8,112,63.9c-1.5-1.1-2-2.6-1.4-4.3c0.2-0.5,0.5-0.9,0.9-1.2
						c1.7-1.1,4-0.7,5.1,0.7c0.9,1.2,1.1,3.4,0,4.7C115.5,65,113.5,65.1,112,63.9z"/>
				</g>
				<g>
					<path class="st3" d="M111.4,71.8C111.4,71.8,111.4,71.8,111.4,71.8c1.8-2.3,4.1-3.3,6.6-2.8c0.8,0.1,1.5,0.5,1.9,1.1
						c1.6,2.2,1.2,5.5-1.1,7.4c-1.9,1.5-5.2,2.2-7.3,0.8C109.6,76.9,109.5,74.1,111.4,71.8z"/>
				</g>
			</g>
		</g>
	</g>
	<path class="st6" d="M167.5,250.8c-3.5-9.4-1.2-7.2-10.7-10.7c9.4-3.5,7.2-1.2,10.7-10.7c3.5,9.4,1.2,7.2,10.7,10.7
		C168.7,243.6,171,241.4,167.5,250.8z"/>
	<g>
		<path class="st6" d="M184,180.3c-3.5-9.4-1.2-7.2-10.7-10.7c9.4-3.5,7.2-1.2,10.7-10.7c3.5,9.4,1.2,7.2,10.7,10.7
			C185.3,173.1,187.5,170.8,184,180.3z"/>
		<path class="st6" d="M118.1,133.3c-3.5-9.4-1.2-7.2-10.7-10.7c9.4-3.5,7.2-1.2,10.7-10.7c3.5,9.4,1.2,7.2,10.7,10.7
			C119.3,126.1,121.6,123.9,118.1,133.3z"/>
		<path class="st6" d="M247.7,118.2c-3.5-9.4-1.2-7.2-10.7-10.7c9.4-3.5,7.2-1.2,10.7-10.7c3.5,9.4,1.2,7.2,10.7,10.7
			C248.9,111,251.1,108.7,247.7,118.2z"/>
		<path class="st6" d="M57,192.3c-3.5-9.4-1.2-7.2-10.7-10.7c9.4-3.5,7.2-1.2,10.7-10.7c3.5,9.4,1.2,7.2,10.7,10.7
			C58.3,185.1,60.5,182.9,57,192.3z"/>
		<path class="st6" d="M162.9,47.1c-3.5-9.4-1.2-7.2-10.7-10.7c9.4-3.5,7.2-1.2,10.7-10.7c3.5,9.4,1.2,7.2,10.7,10.7
			C164.2,39.9,166.4,37.6,162.9,47.1z"/>
		<path class="st6" d="M60.6,79.3c-3.5-9.4-1.2-7.2-10.7-10.7c9.4-3.5,7.2-1.2,10.7-10.7c3.5,9.4,1.2,7.2,10.7,10.7
			C61.8,72.2,64.1,69.9,60.6,79.3z"/>
		<path class="st6" d="M255.2,219c-3.5-9.4-1.2-7.2-10.7-10.7c9.4-3.5,7.2-1.2,10.7-10.7c3.5,9.4,1.2,7.2,10.7,10.7
			C256.5,211.9,258.7,209.6,255.2,219z"/>
	</g>
</g>
</svg>
